<svg width="344" height="88" viewBox="0 0 344 88" fill="none" xmlns="http://www.w3.org/2000/svg">
<path d="M-0.00791421 181.814L-0.00790408 -82.1847C-0.00790406 -82.5606 0.251404 -82.856 0.581421 -82.856L278.845 -82.856L343.411 -82.856C343.741 -82.856 344 -82.5606 344 -82.1846L344 181.814C344 182.19 343.741 182.486 343.411 182.486L0.581411 182.486C0.251394 182.486 -0.00791422 182.19 -0.00791421 181.814ZM1.17072 -81.5134L1.17071 181.143L342.821 181.143L342.821 -81.5133L107.436 -81.5134L1.17072 -81.5134Z" fill="#DFD4CF" fill-opacity="0.05"/>
<path d="M172.862 -50.1362C124.479 -50.1362 85.1241 -5.30612 85.1241 49.8084C85.1241 104.923 124.479 149.753 172.862 149.753C221.245 149.753 260.599 104.923 260.599 49.8084C260.599 -5.30611 221.245 -50.1362 172.862 -50.1362ZM172.862 147.068C125.787 147.068 87.4814 103.433 87.4814 49.8084C87.4814 -3.81581 125.787 -47.451 172.862 -47.451C219.936 -47.451 258.242 -3.8158 258.242 49.8084C258.242 103.433 219.936 147.068 172.862 147.068Z" fill="#DFD4CF" fill-opacity="0.05"/>
<path d="M254.494 49.7947C254.494 43.1621 250.498 35.536 245.159 35.2809C243.273 35.1869 241.317 36.0731 239.49 37.8319C238.441 38.3287 235.895 39.2282 233.114 38.0199C231.522 37.3217 230.19 36.1 229.177 34.3814C228.34 30.2328 227.15 26.2317 225.653 22.4052L245.56 15.1551C245.949 15.0074 246.267 14.712 246.455 14.2958C246.644 13.8796 246.679 13.4097 246.55 12.98C246.42 12.5235 246.126 12.1341 245.737 11.9327C245.348 11.7314 244.9 11.7179 244.511 11.9059L225.158 21.1298C223.897 18.0955 222.435 15.182 220.797 12.4028L239.466 0.198272C239.82 -0.0299729 240.079 -0.405946 240.185 -0.849011C240.291 -1.29207 240.244 -1.76196 240.032 -2.16475C239.82 -2.58096 239.466 -2.88976 239.042 -2.99717C238.618 -3.10458 238.182 -2.99707 237.84 -2.72854L220.172 11.2749C220.172 11.2749 220.16 11.3018 220.149 11.3152C218.451 8.57625 216.577 5.98498 214.538 3.5817C214.609 3.55484 214.68 3.5146 214.739 3.44747L230.744 -12.9459C231.051 -13.2547 231.228 -13.6843 231.251 -14.1542C231.275 -14.6107 231.133 -15.0673 230.862 -15.4029C230.579 -15.7655 230.167 -15.9802 229.742 -15.9802C229.318 -15.9802 228.906 -15.7789 228.611 -15.4298L213.914 2.48082C213.914 2.48082 213.819 2.61496 213.796 2.69552C211.721 0.332513 209.494 -1.85596 207.136 -3.85646C207.136 -3.85646 207.16 -3.86975 207.172 -3.88318L219.807 -23.7406C220.302 -24.5193 220.148 -25.6069 219.465 -26.1708C219.123 -26.4527 218.687 -26.5601 218.263 -26.4661C217.838 -26.3721 217.473 -26.0768 217.261 -25.6606L206.205 -4.64856C203.813 -6.58194 201.279 -8.30045 198.638 -9.81761L207.101 -31.6755C207.266 -32.1051 207.278 -32.575 207.125 -33.0047C206.971 -33.4343 206.689 -33.7833 206.323 -33.9713C205.934 -34.1727 205.486 -34.1727 205.097 -33.9713C204.708 -33.7699 204.402 -33.394 204.261 -32.9375L197.531 -10.4486C193.9 -12.4088 190.058 -13.9529 186.074 -15.0135C184.766 -16.1279 183.811 -17.5376 183.257 -19.1891C182.138 -22.5322 183.057 -25.4994 183.422 -26.4527C184.966 -28.5472 185.756 -30.7758 185.662 -32.924C185.426 -39.0195 178.731 -43.5576 172.909 -43.5576C167.086 -43.5576 160.403 -39.0061 160.168 -32.924C160.097 -30.7758 160.863 -28.5337 162.407 -26.4527C162.843 -25.2712 163.633 -22.3711 162.572 -19.1891C162.018 -17.5242 161.064 -16.1279 159.755 -15.0135C155.819 -13.9663 152.035 -12.4492 148.452 -10.5292L141.651 -33.2462C141.51 -33.7027 141.215 -34.0787 140.815 -34.2801C140.426 -34.4815 139.978 -34.4815 139.589 -34.2801C139.023 -33.9981 138.681 -33.3538 138.681 -32.6824C138.681 -32.4542 138.728 -32.2125 138.811 -31.9843L147.356 -9.92496C144.704 -8.43466 142.17 -6.71617 139.778 -4.7828C139.766 -4.8365 139.754 -4.8902 139.73 -4.9439L128.663 -25.9694C128.451 -26.3856 128.074 -26.6809 127.661 -26.7749C127.237 -26.8689 126.801 -26.7749 126.459 -26.4796C126.129 -26.211 125.917 -25.8083 125.846 -25.3518C125.834 -25.2578 125.822 -25.1637 125.822 -25.0697C125.822 -24.7072 125.917 -24.3581 126.117 -24.0493L138.752 -4.19212C138.752 -4.19212 138.846 -4.07129 138.905 -4.03102C136.512 -2.03051 134.249 0.171414 132.151 2.54785C132.14 2.41359 132.093 2.27929 132.01 2.17188L117.313 -15.7386C117.018 -16.1011 116.606 -16.2891 116.181 -16.2891C115.757 -16.2891 115.344 -16.0742 115.061 -15.7117C114.814 -15.3895 114.673 -14.9867 114.673 -14.5571C114.673 -14.5302 114.673 -14.4899 114.673 -14.463C114.696 -13.9931 114.873 -13.577 115.179 -13.2682L131.185 3.12524C131.28 3.21923 131.409 3.27293 131.527 3.28635C129.464 5.70307 127.555 8.3078 125.834 11.0602C125.811 11.0333 125.787 10.9929 125.752 10.9661L108.084 -3.03733C107.73 -3.31928 107.294 -3.41336 106.87 -3.30595C106.446 -3.19854 106.092 -2.88974 105.88 -2.47353C105.739 -2.20501 105.679 -1.90962 105.679 -1.61424C105.679 -1.01006 105.951 -0.419301 106.446 -0.0970736L125.115 12.1073C125.115 12.1073 125.162 12.1207 125.174 12.1342C123.524 14.9 122.039 17.8 120.766 20.8343L101.389 11.5971C101 11.4091 100.552 11.4226 100.163 11.624C99.7745 11.8254 99.4799 12.2148 99.3503 12.6712C99.3031 12.8458 99.2795 13.0204 99.2795 13.2083C99.2795 13.4768 99.3383 13.7453 99.4444 14.0004C99.633 14.4166 99.9512 14.712 100.34 14.8597L120.259 22.1099C118.703 26.0169 117.478 30.1252 116.617 34.3947C115.604 36.1133 114.283 37.3352 112.68 38.0333C109.911 39.2417 107.365 38.3421 106.316 37.8453C104.477 36.0865 102.521 35.2003 100.635 35.2943C95.2838 35.5629 91.3001 43.189 91.3001 49.8216C91.3001 56.4541 95.2956 64.0666 100.635 64.3352C102.521 64.4292 104.477 63.543 106.316 61.7842C107.365 61.2874 109.899 60.3878 112.68 61.5962C115.085 62.6434 116.452 64.7245 117.171 66.2953C117.984 69.7056 119.045 72.9951 120.306 76.1637L100.352 83.4272C99.963 83.5749 99.6448 83.8703 99.4562 84.2865C99.3383 84.5416 99.2795 84.81 99.2795 85.0786C99.2795 85.2531 99.3031 85.4277 99.3503 85.6022C99.4799 86.0587 99.7745 86.4481 100.163 86.6495C100.552 86.8509 101 86.8643 101.389 86.6764L120.801 77.4257C122.074 80.46 123.536 83.3869 125.186 86.1393C125.162 86.1393 125.139 86.1527 125.115 86.1662L106.446 98.3705C105.951 98.6928 105.679 99.2835 105.679 99.8877C105.679 100.183 105.75 100.478 105.88 100.747C106.092 101.163 106.446 101.472 106.87 101.579C107.294 101.687 107.73 101.579 108.072 101.311L125.74 87.3074C125.74 87.3074 125.811 87.2268 125.846 87.1866C127.567 89.9524 129.476 92.557 131.55 94.9871C131.421 94.9871 131.279 95.0408 131.173 95.1482L115.167 111.542C114.861 111.85 114.684 112.28 114.661 112.737C114.661 112.763 114.661 112.804 114.661 112.831C114.661 113.26 114.802 113.663 115.049 113.985C115.332 114.348 115.745 114.563 116.169 114.563C116.594 114.563 117.006 114.361 117.301 114.012L131.998 96.1016C132.093 95.9807 132.14 95.8464 132.151 95.6987C134.261 98.0886 136.536 100.277 138.952 102.278C138.882 102.318 138.811 102.385 138.764 102.466L126.141 122.323C125.952 122.618 125.846 122.981 125.846 123.343C125.846 123.437 125.846 123.531 125.87 123.625C125.928 124.082 126.152 124.484 126.482 124.753C126.824 125.035 127.26 125.142 127.685 125.048C128.109 124.954 128.474 124.659 128.686 124.243L139.754 103.217C139.789 103.15 139.813 103.07 139.824 102.989C142.229 104.909 144.751 106.641 147.403 108.131L138.835 130.244C138.752 130.473 138.705 130.714 138.705 130.942C138.705 131.614 139.047 132.245 139.612 132.54C140.001 132.742 140.449 132.742 140.838 132.54C141.227 132.339 141.534 131.963 141.675 131.506L148.499 108.709C151.658 110.387 154.97 111.783 158.412 112.804C159.39 113.475 161.606 115.314 162.584 118.765C163.527 122.041 162.808 124.901 162.407 126.069C160.863 128.163 160.109 130.392 160.179 132.54C160.415 138.501 167.075 142.932 172.921 143.174C174.193 143.227 178.625 143.12 182.197 139.522C183.375 138.34 185.556 136.125 185.685 132.54C185.791 129.358 184.235 127.009 183.457 126.055C183.069 124.874 182.35 122.028 183.281 118.765C184.271 115.314 186.487 113.475 187.465 112.804C191.013 111.756 194.419 110.32 197.672 108.561L204.449 131.211C204.59 131.668 204.885 132.043 205.286 132.245C205.675 132.446 206.123 132.433 206.512 132.245C206.889 132.057 207.172 131.721 207.313 131.278C207.454 130.848 207.454 130.379 207.289 129.949L198.768 107.957C201.42 106.44 203.942 104.694 206.335 102.761C206.347 102.815 206.347 102.868 206.37 102.922L217.438 123.947C217.65 124.364 218.027 124.659 218.44 124.753C218.864 124.847 219.3 124.753 219.642 124.458C220.325 123.894 220.478 122.806 219.983 122.027L207.348 102.17C207.348 102.17 207.266 102.076 207.219 102.036C209.612 100.022 211.863 97.8067 213.949 95.4034C213.949 95.5511 214.008 95.6988 214.102 95.8062L228.8 113.717C229.094 114.079 229.507 114.281 229.931 114.267C230.356 114.267 230.768 114.052 231.051 113.69C231.322 113.341 231.463 112.898 231.44 112.441C231.416 111.971 231.239 111.555 230.933 111.233L214.927 94.8394C214.821 94.732 214.68 94.6783 214.55 94.6783C216.613 92.2348 218.51 89.6167 220.219 86.8375C220.255 86.9046 220.302 86.9718 220.361 87.012L238.028 101.016C238.382 101.298 238.818 101.391 239.242 101.284C239.667 101.177 240.02 100.868 240.233 100.452C240.433 100.049 240.492 99.579 240.386 99.1359C240.28 98.6929 240.02 98.3169 239.667 98.0886L220.997 85.8843C220.997 85.8843 220.903 85.8439 220.856 85.8305C222.494 83.0647 223.92 80.1244 225.181 77.0766L244.711 86.381C245.1 86.569 245.548 86.5556 245.937 86.3542C246.326 86.1528 246.62 85.7634 246.75 85.3069C246.868 84.8638 246.845 84.3939 246.656 83.9777C246.467 83.5615 246.149 83.2661 245.76 83.1184L225.688 75.8146C226.878 72.7535 227.904 69.5713 228.682 66.2819C229.401 64.7111 230.756 62.6434 233.161 61.5827C235.942 60.3744 238.488 61.274 239.537 61.7707C241.364 63.5296 243.321 64.4157 245.206 64.3217C250.557 64.0666 254.541 56.4406 254.541 49.7947L254.494 49.7947ZM245.112 62.9926C243.085 63.0865 241.317 61.7977 240.197 60.6967C240.15 60.6565 240.103 60.6161 240.044 60.5892C238.924 60.0387 235.954 58.9245 232.701 60.3342C229.919 61.556 228.375 63.9324 227.574 65.7181C227.562 65.7584 227.539 65.7852 227.539 65.8255C227.539 65.8523 227.527 65.8792 227.515 65.9061C222.247 88.2607 206.736 105.742 187.041 111.515C186.993 111.528 186.935 111.555 186.887 111.582C185.827 112.294 183.245 114.361 182.102 118.335C181.018 122.121 181.902 125.411 182.338 126.646C182.361 126.727 182.409 126.794 182.456 126.861C183.08 127.626 184.554 129.654 184.436 132.46C184.33 135.481 182.456 137.36 181.336 138.488C178.095 141.764 174.052 141.858 172.885 141.804C167.57 141.576 161.476 137.535 161.288 132.46C161.193 130.164 162.337 128.123 163.303 126.834C163.35 126.78 163.374 126.713 163.397 126.646C163.833 125.411 164.717 122.121 163.633 118.335C162.502 114.375 159.92 112.294 158.871 111.582C158.824 111.555 158.777 111.528 158.718 111.515C139.035 105.742 123.512 88.2607 118.232 65.9061C118.232 65.9061 118.22 65.8523 118.208 65.8255C118.208 65.7986 118.185 65.7584 118.173 65.7316C117.372 63.9459 115.816 61.5694 113.046 60.3476C109.793 58.9245 106.834 60.0522 105.715 60.6027C105.656 60.6295 105.609 60.6699 105.562 60.7102C104.43 61.8111 102.65 63.1 100.623 63.006C96.0028 62.7777 92.4198 55.7289 92.4198 49.8348C92.4198 43.9273 96.0028 36.8786 100.623 36.6504C102.65 36.543 104.43 37.8453 105.562 38.9462C105.609 38.9865 105.656 39.0269 105.715 39.0537C106.835 39.6042 109.793 40.7185 113.046 39.3087C114.908 38.5032 116.452 37.0667 117.607 35.0393C117.654 34.9588 117.678 34.8647 117.69 34.7707C122.463 10.8855 139.07 -8.12591 160.026 -13.6709C160.121 -13.6843 160.215 -13.7246 160.297 -13.7917C161.853 -15.0806 162.973 -16.7186 163.633 -18.6654C164.859 -22.3979 163.892 -25.7546 163.421 -27.0301C163.397 -27.0972 163.362 -27.1508 163.327 -27.2045C162.36 -28.4934 161.228 -30.5208 161.311 -32.8301C161.511 -38.0932 167.699 -42.1747 172.873 -42.1747C178.059 -42.1747 184.247 -38.0932 184.459 -32.8301C184.507 -30.5342 183.411 -28.4934 182.444 -27.2045C182.409 -27.1508 182.373 -27.0971 182.35 -27.0433C181.961 -26.0767 180.806 -22.5993 182.126 -18.6654C182.786 -16.7186 183.905 -15.0806 185.461 -13.7917C185.532 -13.738 185.626 -13.6978 185.709 -13.6709C206.665 -8.12591 223.284 10.899 228.034 34.6768C228.034 34.811 228.069 34.9319 228.128 35.0393C229.295 37.0532 230.827 38.4898 232.689 39.3088C235.942 40.7319 238.912 39.6042 240.032 39.0537C240.091 39.0269 240.138 38.9865 240.185 38.9462C241.317 37.8453 243.085 36.5564 245.1 36.6504C249.72 36.8786 253.303 43.914 253.303 49.8216C253.303 55.7291 249.72 62.7778 245.1 63.006L245.112 62.9926Z" fill="#DFD4CF" fill-opacity="0.05"/>
<path d="M214.515 49.1768C214.892 45.0013 214.48 40.7318 213.313 36.8382C212.476 34.0187 210.72 28.1381 205.475 24.0833C201.633 21.1162 197.613 20.418 194.761 20.3911C193.771 18.6189 193.064 16.8197 192.404 15.1415C191.06 11.7178 189.87 8.76398 186.864 7.54219C185.862 4.23935 184.306 1.87637 182.22 0.520324C180.511 -0.594049 179.073 -0.634197 177.093 -0.687902C175.926 -0.714754 174.618 -0.755183 172.874 -1.01028C169.974 -1.42649 168.631 -2.05741 167.546 -2.5676C166.474 -3.06437 165.554 -3.49408 163.81 -3.48065C158.577 -3.42695 151.941 0.439889 149.961 7.52891C149.537 9.03265 149.372 10.4826 149.372 11.8655C149.372 15.0073 150.244 17.6791 150.975 19.4111C150.598 19.505 150.244 19.599 149.926 19.693C147.144 20.4314 146.013 20.7268 144.634 21.7203C140.556 22.5393 137.079 24.5532 134.603 27.5338C131.716 30.9978 131.009 35.2406 129.712 42.9472C128.628 49.3649 127.862 53.9431 127.862 57.9307C127.862 60.8442 128.274 63.4489 129.264 66.2282C130.537 69.7592 132.529 72.9411 135.205 75.6801C135.535 76.8884 136.018 78.0028 136.749 79.0501C139.919 83.5613 145.577 83.6687 148.158 83.4539C148.936 87.3341 150.374 90.6907 152.471 93.4565C158.235 101.042 167.817 102.721 174.264 101.848C179.003 101.217 182.538 99.27 183.729 96.6385C183.847 96.3834 183.977 96.0343 184.13 95.6181C184.707 94.0472 185.591 91.6707 187.454 90.5161C188.114 90.0999 188.785 89.8985 188.785 89.8985C189.752 89.6166 190.388 89.7509 191.202 89.9254C191.779 90.0462 192.439 90.1938 193.264 90.167C193.924 90.1536 196.222 89.9522 197.873 88.2068C199.758 86.2197 199.853 83.2793 199.758 81.7219C200.737 81.1848 201.715 80.5135 202.681 79.7079C207.29 75.8143 209.129 70.5648 209.848 67.5036C211.227 66.6443 214.916 63.9054 215.894 58.4812C216.672 54.2117 215.305 50.7343 214.527 49.1902L214.515 49.1768ZM190.777 15.9604C192.144 19.4378 193.842 23.7611 197.99 27.3996C198.851 28.1514 199.652 28.7423 200.43 29.3062C202.092 30.5145 203.542 31.5617 205.109 33.965C205.84 35.0928 207.196 37.4961 207.997 40.8526C208.504 42.974 209.435 46.9079 208.032 51.1371C207.549 52.5872 206.901 54.5607 205.062 55.8765C203.778 56.7894 202.434 57.0044 201.42 57.0044C201.715 55.0576 201.786 52.2784 200.206 49.7811C198.556 47.1898 196.093 46.3709 194.596 46.1292C195.162 41.9402 195.009 38.6105 193.37 35.1465C192.427 33.1729 191.213 31.6154 189.917 30.3936C189.705 28.3931 189.375 26.3927 188.88 24.4728C187.524 19.1828 185.037 13.5572 181.772 9.50253C183.293 8.97891 184.684 8.88488 185.909 9.28766C188.467 10.1201 189.433 12.5636 190.765 15.9604L190.777 15.9604ZM172.697 90.2745C172.485 90.4088 172.332 90.6504 172.273 90.9324C172.06 92.0333 171.554 93.5369 170.352 94.4902C169.326 95.3092 168.218 95.3764 167.735 95.4032C164.694 95.5643 157.787 92.6778 151.258 84.0313C147.356 78.8622 144.775 75.4385 144.575 70.2695C144.48 67.7453 144.976 65.4226 145.659 63.4221C149.077 65.1138 151.823 67.2351 153.827 69.7727C154.287 70.7528 154.899 71.7463 155.748 72.7667C156.29 73.8139 156.715 74.8879 157.163 76.0157C158.282 78.8218 159.449 81.7354 162.372 84.179C164.435 85.9109 166.379 86.5554 167.311 86.8642C173.852 89.0661 180.287 86.1929 183.929 83.9775C183.434 85.7095 182.35 88.0994 180.028 89.5494C177.129 91.3485 174.229 90.5027 173.404 90.1939C173.168 90.0999 172.909 90.1402 172.697 90.2745ZM168.972 30.9307C168.972 30.9307 168.984 30.9307 168.996 30.9307C169.055 30.9307 169.114 30.9307 169.173 30.9307C169.232 30.9307 169.291 30.9307 169.35 30.9307C169.35 30.9307 169.361 30.9307 169.373 30.9307C169.42 30.9172 169.468 30.8771 169.503 30.8636C169.55 30.8368 169.597 30.8367 169.644 30.7964C171 29.776 175.879 26.5672 182.008 28.165C183.623 28.5812 189.092 30.3936 191.826 36.1266C192.757 38.0868 193.146 40.0202 193.146 42.2087C193.146 43.605 192.993 45.1088 192.722 46.7871C192.722 46.8408 192.698 46.881 192.698 46.9347C192.392 48.8681 191.944 51.0296 191.425 53.5403C189.822 61.2872 188.668 66.8861 184.542 69.437C181.431 71.3704 177.4 71.1959 175.879 71.1288C175.349 71.1019 174.807 71.048 174.276 70.9809C176.068 70.323 177.765 69.4101 179.25 68.2018C185.462 63.1804 188.668 53.782 186.876 45.8606C186.546 44.3837 185.521 39.8725 181.855 36.9859C178.272 34.153 172.638 33.2535 169.585 36.0596C168.831 35.2137 167.758 34.3275 166.344 33.8308C163.221 32.7164 160.498 34.1664 159.107 35.1599C159.178 35.0257 159.249 34.8779 159.331 34.7437C160.239 33.1594 160.97 32.5419 161.205 32.3405C163.81 30.1117 167.193 30.5145 168.972 30.9441L168.972 30.9307ZM182.397 26.1777C180.995 25.8152 179.651 25.681 178.39 25.7079C178.13 23.949 177.482 21.68 175.938 19.6526C173.475 16.4304 170.21 15.7725 168.631 15.4502C165.908 14.8998 164.352 15.3966 160.215 16.6855C158.765 17.142 156.974 17.7059 154.676 18.3638C154.228 18.498 153.803 18.6055 153.403 18.7263C153.768 16.9809 154.416 15.5577 155.371 14.497C156.232 13.5438 156.903 13.3424 158.011 13.0067C159.013 12.6979 160.274 12.3219 162.03 11.2478C163.68 10.2409 164.659 9.30111 165.531 8.46868C166.603 7.44829 167.381 6.70992 169.031 6.1863C169.22 6.13259 170.953 5.60892 172.768 5.79689C179.922 6.53533 185.297 17.6924 187.171 25.0097C187.477 26.2315 187.713 27.4801 187.901 28.7422C185.579 27.1311 183.352 26.4061 182.374 26.1645L182.397 26.1777ZM157.964 72.4042C157.669 72.1088 157.398 71.7999 157.139 71.5046C156.621 70.511 156.008 69.5712 155.324 68.6851C154.558 67.0202 154.263 65.2614 154.499 63.4892C154.9 60.4414 156.715 57.8368 159.308 56.4539C159.331 56.5344 159.355 56.615 159.378 56.6956C161.158 61.8378 165.908 65.2212 170.929 64.899C177.647 64.4828 180.83 57.4876 180.865 57.4205C182.845 52.9899 183.246 46.4111 179.415 42.437C176.822 39.7383 172.992 38.9462 169.35 40.2216C169.515 39.4026 169.797 38.691 170.21 38.1271C172.308 35.3344 177.659 36.0997 180.853 38.6238C183.976 41.0943 184.872 45.0416 185.167 46.3439C186.782 53.4866 183.859 61.9855 178.225 66.5369C175.879 68.4434 173.015 69.6249 169.951 69.974C169.951 69.974 169.951 69.974 169.939 69.974C169.833 69.9874 169.739 70.0277 169.656 70.068C169.632 70.0815 169.597 70.1084 169.573 70.1218C169.515 70.1621 169.456 70.2157 169.409 70.2695C169.385 70.2963 169.361 70.3365 169.338 70.3634C169.291 70.4305 169.267 70.4977 169.232 70.5782C169.232 70.6051 169.208 70.6184 169.197 70.6453C169.197 70.6587 169.197 70.6722 169.197 70.6856C169.197 70.699 169.185 70.7125 169.185 70.7393C168.937 72.0551 168.36 73.8407 167.016 74.8611C164.293 76.9153 160.027 74.4181 157.976 72.3639L157.964 72.4042ZM168.136 42.7189C168.136 42.7189 168.147 42.7189 168.159 42.7189C171.176 43.3231 173.746 46.0754 174.264 49.2574C174.429 50.3047 174.665 52.9227 173.145 54.7487C172.261 55.8094 170.399 57.0714 168.866 56.2256C167.994 55.7422 166.91 54.3729 167.216 52.8423C167.428 51.7816 168.253 50.9089 169.314 50.6135C169.786 50.4792 170.08 49.9422 169.974 49.4051C169.856 48.8681 169.385 48.5325 168.914 48.6533C167.205 49.1232 165.861 50.5866 165.495 52.3857C165 54.8427 166.462 57.1252 168.088 58.0248C170.316 59.26 172.933 57.9039 174.418 56.1182C175.879 54.3594 176.445 51.7144 175.985 48.8815C175.49 45.8606 173.64 43.2157 171.153 41.7657C173.781 41.2689 176.374 42.0208 178.201 43.9138C181.82 47.6732 180.488 53.7821 179.274 56.5076C179.25 56.5613 176.527 62.536 170.823 62.8851C166.556 63.1536 162.513 60.2937 161.017 55.9437C159.366 51.1639 160.887 45.0953 164.199 43.2022C165.837 42.2624 167.546 42.598 168.124 42.7055L168.136 42.7189ZM157.599 39.6846C158.212 38.5568 159.037 37.5901 159.98 36.892C161.087 36.0864 163.315 34.8511 165.814 35.7372C166.957 36.14 167.806 36.8785 168.407 37.5633C167.923 38.4226 167.617 39.4295 167.487 40.5842C166.474 40.4902 164.953 40.517 163.409 41.4032C160.392 43.1217 158.577 47.3778 158.577 51.7816C158.577 52.6811 158.659 53.5941 158.824 54.4937C155.56 56.1048 153.261 59.3539 152.754 63.1804C152.695 63.6503 152.648 64.174 152.648 64.7244C152.648 65.0735 152.672 65.4494 152.707 65.8253C150.928 64.2007 148.806 62.7777 146.378 61.5693C147.297 59.4883 148.323 57.9173 148.853 57.1252C150.492 54.6547 151.717 53.7687 152.802 52.99C153.968 52.1441 155.076 51.352 156.055 48.9755C157.021 46.6394 157.174 44.5179 157.316 42.4772C157.387 41.5373 157.445 40.611 157.587 39.6711L157.599 39.6846ZM185.108 80.9701C185.108 80.9701 185.037 80.997 184.99 81.0104C184.931 81.0238 184.884 81.0371 184.837 81.064C184.813 81.064 184.802 81.0909 184.778 81.1043L184.754 81.1043C182.02 83.0511 174.913 87.3072 167.806 84.9173C166.969 84.6354 165.224 84.0447 163.409 82.5276C161.028 80.5405 159.979 78.1908 158.978 75.6935C161.523 77.4121 165.107 78.7279 167.971 76.5663C169.468 75.4385 170.245 73.7199 170.658 72.2162C172.343 72.7264 174.064 73.0352 175.797 73.1158C177.447 73.1829 181.843 73.3708 185.367 71.1823C190.188 68.1883 191.484 61.9183 193.123 53.97C193.57 51.8219 193.971 49.8885 194.278 48.1028C195.421 48.2908 197.472 48.9084 198.756 50.9492C200.418 53.5538 199.699 56.6956 199.358 58.1993C198.58 61.5962 196.576 63.704 195.445 64.6572C195.15 64.8989 195.032 65.3152 195.115 65.718C195.327 66.6578 196.211 71.5584 193.347 75.989C190.447 80.4734 186.016 80.9164 185.155 80.9566L185.132 80.9566C185.12 80.9566 185.096 80.9566 185.084 80.9566L185.108 80.9701ZM151.646 8.13303C153.379 1.94356 159.213 -1.43989 163.822 -1.48017C165.213 -1.48017 165.873 -1.1847 166.875 -0.714781C168.053 -0.164307 169.515 0.520441 172.65 0.976932C174.477 1.24546 175.903 1.28573 177.046 1.31259C178.897 1.36629 180.016 1.39309 181.348 2.26579C182.81 3.21905 183.965 4.83011 184.802 7.04543C183.423 6.93802 181.938 7.24687 180.382 7.9316C178.166 5.64915 175.655 4.10523 172.956 3.82328C170.87 3.60846 168.961 4.15889 168.595 4.27972C166.568 4.91075 165.531 5.90428 164.423 6.95152C163.622 7.71681 162.702 8.58954 161.217 9.50252C159.638 10.4692 158.542 10.8048 157.575 11.0867C156.385 11.4492 155.348 11.758 154.157 13.0872C153.202 14.1479 152.507 15.5175 152.024 17.1018C151.269 14.8328 150.692 11.597 151.658 8.15991L151.646 8.13303ZM155.123 20.3239C157.434 19.6526 159.237 19.0887 160.699 18.6322C164.777 17.3567 166.002 16.9675 168.336 17.4374C169.809 17.7328 172.555 18.2831 174.606 20.9684C175.832 22.5795 176.374 24.3788 176.61 25.8288C173.522 26.245 171.07 27.507 169.644 28.42C169.244 27.2922 168.56 26.0703 167.417 25.1842C164.305 22.8078 160.251 24.9828 159.084 25.6944C157.811 26.4866 157.221 27.2384 156.597 28.0306C156.078 28.7019 155.548 29.3867 154.464 30.2728C153.026 31.4409 152.2 31.6825 151.328 31.9376C150.515 32.1659 149.678 32.4076 148.535 33.334C144.787 36.3146 143.278 42.0073 141.687 48.049L141.534 48.6399C141.169 50.0765 140.839 51.3116 139.966 52.7617C139.224 53.9834 138.257 55.0575 137.114 55.9571C137.833 50.1436 137.809 46.3709 137.786 43.2829C137.762 39.3624 137.739 36.771 139.377 32.5552C140.343 30.0848 141.793 26.3523 145.152 23.7074C145.258 23.6268 145.353 23.5596 145.447 23.4925C145.447 23.4925 145.447 23.4925 145.459 23.4925C146.649 22.6198 147.557 22.3781 150.327 21.6397C151.541 21.3175 153.073 20.9147 155.123 20.3239ZM130.903 65.4493C128.734 59.3941 129.642 54.0237 131.445 43.3096C132.777 35.4284 133.46 31.8302 135.888 28.9033C137.373 27.1176 139.283 25.7213 141.487 24.7681C139.542 27.2385 138.469 29.9371 137.762 31.7496C135.959 36.3682 135.994 39.2817 136.018 43.3096C136.041 46.6795 136.077 50.882 135.087 57.7696L134.981 58.4947C134.662 60.6294 134.297 63.1804 134.297 66.4161C134.297 67.2217 134.321 68.0676 134.368 68.9537C134.439 70.0547 134.497 71.1019 134.603 72.1088C133.012 70.0815 131.775 67.8528 130.914 65.4361L130.903 65.4493ZM138.128 77.7746C136.525 75.4788 136.348 72.5518 136.124 68.8328C135.865 64.5901 136.336 61.4082 136.713 58.8438L136.749 58.5751C138.693 57.3668 140.261 55.8228 141.416 53.9297C142.453 52.2112 142.83 50.7611 143.219 49.2306L143.372 48.6533C144.94 42.719 146.295 37.5901 149.537 35.0123C150.421 34.3007 151.01 34.1395 151.764 33.9247C152.707 33.6562 153.78 33.3474 155.489 31.9511C156.726 30.9307 157.363 30.1251 157.917 29.4135C158.494 28.6616 158.919 28.1247 159.921 27.5071C160.875 26.9163 164.14 25.144 166.427 26.8894C167.063 27.3727 167.487 28.0306 167.782 28.7019C165.613 28.4333 162.631 28.5945 160.133 30.7292C159.319 31.4274 158.565 32.3807 157.834 33.6428C155.925 36.9456 155.736 39.6845 155.548 42.3429C155.406 44.2897 155.277 46.1292 154.452 48.1431C153.686 49.9825 152.955 50.5195 151.847 51.3117C150.692 52.1441 149.266 53.1779 147.427 55.9437C146.26 57.7159 142.783 62.9521 142.783 69.6383C142.783 69.88 142.783 70.1217 142.795 70.3634C142.96 74.7134 144.598 77.9492 147.062 81.4937C144.634 81.5474 140.438 81.1044 138.116 77.7881L138.128 77.7746ZM196.658 86.7165C195.468 87.9786 193.712 88.1262 193.205 88.1396C192.58 88.153 192.062 88.0456 191.52 87.9382C190.624 87.7502 189.681 87.5488 188.338 87.9382C188.302 87.9382 187.442 88.1934 186.581 88.7439C184.189 90.2476 183.116 93.1207 182.492 94.8393C182.362 95.1884 182.256 95.4838 182.15 95.712C181.254 97.6857 178.071 99.2967 174.041 99.8472C168.018 100.653 159.096 99.1222 153.792 92.1406C152.566 90.516 151.611 88.6365 150.869 86.5689C158.023 95.4436 165.012 97.5783 167.806 97.4172C168.383 97.3903 169.903 97.3097 171.341 96.155C172.65 95.1078 173.345 93.6578 173.734 92.3958C175.255 92.7717 178.06 93.067 180.865 91.3216C184.424 89.1063 185.568 85.2127 185.921 83.239C188.114 83.8298 192.922 84.6624 197.99 82.5544C197.99 83.7897 197.767 85.5619 196.647 86.73L196.658 86.7165ZM208.693 65.8925C208.457 66.0268 208.28 66.2684 208.221 66.5638C207.643 69.2759 206.017 74.3644 201.621 78.07C197.46 81.5876 192.852 82.0442 189.61 81.7891C191.331 80.9701 193.252 79.5604 194.796 77.1705C197.696 72.6862 197.283 67.7856 196.977 65.8656C198.285 64.6438 200.159 62.3883 201.02 58.9914C202.316 59.0586 204.202 58.8705 206.017 57.5682C208.351 55.9033 209.187 53.3525 209.694 51.8353C211.309 47.0019 210.225 42.4906 209.706 40.3156C208.834 36.6368 207.349 33.9918 206.536 32.7566C204.768 30.0579 203.129 28.8631 201.397 27.601C200.654 27.064 199.888 26.5001 199.087 25.8019C197.873 24.7413 196.906 23.6135 196.093 22.4588C198.533 22.6736 201.574 23.4791 204.485 25.7347C209.235 29.4001 210.861 34.8511 211.639 37.4692C212.747 41.2017 213.124 45.2833 212.723 49.2709C212.7 49.4991 212.747 49.7273 212.853 49.9153C213.478 51.07 214.857 54.1715 214.15 58.0382C213.218 63.1536 209.435 65.4629 208.693 65.8791L208.693 65.8925Z" fill="#DFD4CF" fill-opacity="0.05"/>
<path d="M248.33 46.4383C248.33 46.4383 248.33 46.3444 248.33 46.3041C248.294 44.5184 247.457 43.6456 246.762 43.216C245.571 42.4776 243.863 42.5447 242.707 43.3502C240.963 44.572 240.362 45.23 239.29 46.4249L239.195 46.5322C239.007 46.7471 238.806 46.9619 238.606 47.1901C237.722 48.1702 236.803 49.1907 236.213 49.6203C236.178 49.6203 236.131 49.6605 236.096 49.7008L236.048 49.7277L236.048 49.8217L236.048 49.9022L236.084 49.9291C236.084 49.9291 236.166 49.9961 236.201 50.0096C236.791 50.4392 237.71 51.4597 238.594 52.4398C238.794 52.6546 238.983 52.8828 239.183 53.0977L239.278 53.205C240.362 54.3999 240.951 55.0445 242.696 56.2797C243.851 57.0987 245.56 57.1523 246.75 56.4139C247.446 55.9843 248.282 55.0982 248.318 53.326C248.318 53.2857 248.318 53.2319 248.318 53.1916C248.318 50.9897 247.104 50.144 246.184 49.8083C247.104 49.4861 248.318 48.6268 248.318 46.4249L248.33 46.4383Z" fill="#DFD4CF" fill-opacity="0.05"/>
<path d="M105.644 52.641C106.693 51.6341 107.813 50.7076 108.979 49.8752L109.18 49.7409L108.979 49.5933C107.671 48.64 106.41 47.5659 105.243 46.4247C104.43 45.6191 103.64 44.7733 102.91 43.9006L102.803 43.7798L102.697 43.9006C101.695 45.0552 100.623 46.1561 99.5031 47.163C98.5602 48.0223 97.5584 48.8414 96.533 49.5933L96.3445 49.7275L96.533 49.8752C97.523 50.627 98.4897 51.4461 99.409 52.3054C100.552 53.366 101.636 54.5206 102.662 55.729L102.768 55.8634L102.874 55.729C103.735 54.6414 104.666 53.6077 105.656 52.6545L105.644 52.641Z" fill="#DFD4CF" fill-opacity="0.05"/>
<path d="M103.299 157.728L240.716 157.728C241.317 166.307 247.623 173.074 255.308 173.074C262.992 173.074 269.004 166.603 269.852 158.319C276.594 158.278 283.194 157.204 289.488 155.11C299.601 151.753 308.323 146.53 315.371 139.75C316.974 140.502 318.624 140.959 320.298 141.066C328.466 141.59 334.135 134.058 335.196 132.54C340.452 124.995 341.065 113.287 336.61 105.312C335.868 103.969 334.807 102.466 333.557 101.11L333.557 83.8033C336.504 83.4005 338.79 80.5676 338.79 77.1171C338.79 73.3846 336.127 70.3502 332.85 70.3502C329.573 70.3502 326.91 73.3846 326.91 77.1171C326.91 80.4334 329.02 83.1857 331.789 83.763L331.789 99.4045C329.809 97.7531 327.57 96.7461 325.448 97.3637C323.892 97.8068 323.244 98.9077 322.066 100.895C321.535 101.781 320.875 102.895 319.944 104.305C319.461 105.044 315.006 111.636 308.924 116.859C306.602 118.846 304.068 120.618 301.357 122.108C301.345 122.108 301.333 122.122 301.322 122.135C298.905 122.994 297.137 125.532 297.137 128.566C297.137 132.299 299.801 135.333 303.078 135.333C306.354 135.333 309.018 132.299 309.018 128.566C309.018 125.599 307.321 123.102 304.987 122.189C306.732 121.047 308.417 119.812 309.985 118.47C314.287 114.764 317.799 110.414 319.744 107.796C320.557 112.549 320.97 117.933 319.991 120.645C319.803 121.155 319.473 122.095 318.695 122.511C318.164 122.793 317.08 122.941 316.455 122.175C316.314 121.987 316.196 121.773 316.125 121.544C316.279 121.585 316.432 121.611 316.585 121.611C317.646 121.611 318.506 120.631 318.506 119.423C318.506 118.215 317.646 117.235 316.585 117.235C316.031 117.235 315.536 117.503 315.194 117.933C315.171 117.96 315.147 117.973 315.123 118C315.088 118.053 315.065 118.107 315.029 118.147C315.006 118.188 314.982 118.228 314.959 118.255C314.487 119.034 314.239 119.933 314.239 120.806C314.239 121.799 314.546 122.779 315.147 123.518C316.337 124.981 318.2 124.968 319.426 124.324C320.84 123.585 321.394 122.054 321.629 121.383C323.15 117.154 321.783 108.857 321.182 105.755C321.252 105.648 321.311 105.554 321.347 105.5C322.301 104.05 322.973 102.922 323.515 102.009C324.659 100.076 325 99.5523 325.861 99.3106C328.996 98.4111 333.145 102.909 335.09 106.386C339.156 113.677 338.59 124.391 333.781 131.292C332.827 132.675 327.676 139.522 320.369 139.052C319.178 138.972 318.011 138.703 316.856 138.247C320.958 134.017 324.446 129.211 327.24 123.894C329.267 120.041 330.929 115.905 332.19 111.595C332.391 110.897 332.06 110.132 331.448 109.904C330.835 109.676 330.163 110.052 329.962 110.75C328.76 114.872 327.169 118.832 325.236 122.511C317.775 136.716 305.188 147.094 288.816 152.532C282.758 154.546 276.405 155.58 269.911 155.633C269.558 146.786 263.146 139.71 255.296 139.71C247.446 139.71 241.317 146.477 240.705 155.056L103.287 155.056C102.686 146.49 96.3807 139.71 88.696 139.71C81.0114 139.71 74.4579 146.759 74.0808 155.58C67.5865 155.526 61.2221 154.492 55.1639 152.478C38.7927 147.041 26.2047 136.662 18.744 122.457C16.811 118.765 15.2198 114.818 14.0176 110.696C13.8173 109.998 13.1454 109.608 12.5325 109.85C12.0375 110.038 11.7311 110.562 11.7311 111.126C11.7311 111.26 11.7548 111.408 11.7901 111.555C13.0513 115.865 14.7131 120 16.7403 123.854C19.5337 129.17 23.0225 133.977 27.1242 138.206C25.9691 138.649 24.8023 138.931 23.6119 139.012C16.3161 139.482 11.1653 132.634 10.1989 131.251C5.39001 124.337 4.82443 113.636 8.89075 106.346C10.8355 102.855 14.9841 98.3573 18.1192 99.2703C18.9914 99.5254 19.3214 100.036 20.4765 101.969C21.0187 102.882 21.6906 104.01 22.6453 105.46C22.6807 105.513 22.7395 105.607 22.8102 105.715C22.4095 107.783 21.6787 112.146 21.6787 116.093C21.6787 118.067 21.8674 119.933 22.3625 121.343C22.5982 122.001 23.1523 123.531 24.5666 124.27C25.7924 124.914 27.6545 124.928 28.8449 123.464C29.9764 122.068 30.0352 119.853 29.0216 118.201C28.998 118.161 28.9747 118.121 28.9511 118.08C28.9158 118.027 28.8921 117.973 28.8567 117.933C28.8332 117.906 28.8095 117.892 28.7859 117.866C28.4324 117.436 27.9374 117.167 27.3952 117.167C26.3345 117.167 25.4739 118.147 25.4739 119.356C25.4739 120.564 26.3345 121.544 27.3952 121.544C27.5602 121.544 27.7133 121.518 27.8666 121.477C27.7959 121.705 27.6898 121.934 27.5365 122.108C26.9119 122.874 25.8276 122.726 25.2972 122.444C24.5193 122.041 24.1774 121.088 24.0006 120.578C23.0341 117.866 23.4469 112.482 24.2484 107.729C26.1931 110.347 29.7052 114.71 34.0072 118.403C35.5748 119.759 37.2605 120.994 39.0049 122.122C36.6712 123.035 34.9738 125.532 34.9738 128.499C34.9738 132.232 37.6375 135.266 40.9142 135.266C44.1907 135.266 46.8545 132.232 46.8545 128.499C46.8545 125.465 45.0747 122.914 42.6585 122.068C42.6585 122.068 42.6467 122.054 42.6349 122.041C39.9358 120.551 37.3901 118.779 35.08 116.792C28.9982 111.569 24.5428 104.976 24.0596 104.238C23.1285 102.828 22.4684 101.727 21.938 100.828C20.7594 98.8407 20.1113 97.7531 18.5555 97.2967C16.4457 96.6925 14.2062 97.6995 12.2143 99.3375L12.2143 83.6959C14.9841 83.1186 17.094 80.3661 17.094 77.0499C17.094 73.3174 14.4302 70.2832 11.1536 70.2832C7.87701 70.2832 5.21326 73.3174 5.21326 77.0499C5.21326 80.5138 7.51154 83.3333 10.4463 83.7361L10.4463 101.042C9.20877 102.398 8.14816 103.902 7.39386 105.245C5.40195 108.816 4.42367 113.139 4.42367 117.503C4.42367 122.873 5.90872 128.311 8.80813 132.487C9.85714 134.004 15.538 141.536 23.706 141.012C25.3796 140.905 27.0299 140.448 28.6329 139.696C35.6811 146.49 44.403 151.7 54.5156 155.056C60.8095 157.151 67.4098 158.211 74.1634 158.265C74.9884 166.589 81.1881 173.074 88.7078 173.074C96.2275 173.074 102.686 166.307 103.299 157.728ZM328.666 77.1036C328.666 74.4855 330.54 72.3507 332.838 72.3507C335.137 72.3507 337.011 74.4855 337.011 77.1036C337.011 79.7218 335.137 81.8566 332.838 81.8566C330.54 81.8566 328.666 79.7218 328.666 77.1036ZM307.25 128.553C307.25 131.171 305.376 133.306 303.078 133.306C300.779 133.306 298.905 131.171 298.905 128.553C298.905 125.935 300.779 123.8 303.078 123.8C305.376 123.8 307.25 125.935 307.25 128.553ZM45.0984 128.499C45.0984 131.117 43.2243 133.252 40.9259 133.252C38.6276 133.252 36.7535 131.117 36.7535 128.499C36.7535 125.881 38.6276 123.746 40.9259 123.746C43.2243 123.746 45.0984 125.881 45.0984 128.499ZM6.9812 77.0633C6.9812 74.4452 8.85529 72.3106 11.1536 72.3106C13.452 72.3106 15.326 74.4452 15.326 77.0633C15.326 79.6814 13.452 81.8162 11.1536 81.8162C8.85529 81.8162 6.9812 79.6814 6.9812 77.0633ZM255.296 142.395C262.073 142.395 267.589 148.679 267.589 156.399C267.589 164.119 262.073 170.402 255.296 170.402C248.519 170.402 243.003 164.119 243.003 156.399C243.003 148.679 248.519 142.395 255.296 142.395ZM76.4148 156.385C76.4148 148.665 81.9307 142.382 88.7078 142.382C95.485 142.382 101.001 148.665 101.001 156.385C101.001 164.105 95.485 170.389 88.7078 170.389C81.9307 170.389 76.4148 164.105 76.4148 156.385Z" fill="#DFD4CF" fill-opacity="0.05"/>
<path d="M310.892 21.0359C307.91 18.928 304.48 19.4247 302.194 20.1766C301.074 18.4446 299.294 16.4575 296.725 15.8131C291.586 14.5242 286.365 19.5187 284.491 24.8892C283.925 26.4869 283.642 28.219 283.642 30.0181C283.642 30.0449 283.642 30.0717 283.642 30.0986C282.923 30.7699 282.216 31.5621 281.579 32.5422C280.837 33.67 280.318 34.8515 279.929 36.033C279.281 34.9723 278.503 34.0459 277.608 33.3074C273.954 30.3 269.746 31.1995 268.532 31.5485C268.19 31.6425 267.955 31.9916 267.955 32.3944C267.955 32.3944 267.955 32.4078 267.955 32.4213C267.955 32.8241 268.225 33.1731 268.579 33.2537C270.253 33.6162 272.751 34.5292 275.061 36.852C276.912 38.7048 277.985 40.7992 278.621 42.5312L272.881 43.7665C272.598 43.8202 272.374 44.0618 272.292 44.3706C272.209 44.6794 272.292 45.0151 272.492 45.2433L275.309 48.3581L267.389 48.3581C266.964 48.3581 266.623 48.7475 266.623 49.2309C266.623 49.7142 266.964 50.1036 267.389 50.1036L275.227 50.1036L272.386 53.0976C272.221 53.2587 272.138 53.5004 272.138 53.7421C272.138 53.836 272.15 53.9167 272.174 54.0107C272.268 54.3329 272.516 54.5745 272.81 54.6148L278.751 55.4741C278.138 57.2598 277.053 59.5154 275.073 61.5024C272.751 63.8386 270.264 64.7516 268.591 65.1007C268.237 65.1813 267.978 65.5169 267.966 65.9331C267.966 65.9331 267.966 65.9464 267.966 65.9599C267.966 66.3626 268.202 66.7117 268.544 66.8057C269.746 67.1548 273.966 68.0544 277.619 65.047C278.503 64.322 279.281 63.3955 279.929 62.3483C280.236 63.7446 280.719 65.0738 281.568 66.403C282.322 67.598 283.289 68.6182 284.385 69.4775C284.55 71.8808 285.269 76.0028 288.168 79.3593C288.404 79.6413 294.061 86.0858 299.223 83.3469C301.086 82.3668 302.194 80.5542 302.83 79.0102C304.056 79.3056 305.4 79.413 306.838 79.1445C307.097 79.0908 313.332 77.869 314.911 71.948C315.465 69.8804 315.253 67.947 314.899 66.5104C315.772 65.9465 316.573 65.208 317.209 64.295C319.248 61.3413 318.954 57.864 318.73 56.5214C319.614 55.2727 321.783 51.6073 320.993 47.029C320.604 44.7465 319.614 43.0415 318.754 41.9271C319.59 38.1678 318.282 34.2339 315.512 32.0051C315.5 30.2463 315.123 24.0165 310.916 21.0359L310.892 21.0359ZM285.917 25.5336C287.567 20.8076 292.175 16.4576 296.395 17.5182C298.304 18.0016 299.707 19.4114 300.662 20.7809C299.177 21.4656 298.245 22.3115 297.35 23.1305C296.23 24.1508 295.181 25.104 292.989 25.9096C291.952 26.2855 291.362 26.3661 290.773 26.4467C290.089 26.5407 289.382 26.648 288.156 27.185C287.555 27.4535 286.471 27.937 285.233 28.7963C285.328 27.655 285.552 26.554 285.917 25.5336ZM288.71 28.8097C289.759 28.3398 290.325 28.2593 290.973 28.1653C291.598 28.0713 292.293 27.9772 293.46 27.5476C295.923 26.648 297.196 25.4935 298.316 24.4731C299.247 23.6272 300.119 22.835 301.616 22.204C303.514 21.4252 307.121 20.4182 310.079 22.4993C313.073 24.6072 313.756 28.7828 313.91 30.9713C311.045 29.6153 307.745 30.2328 305.364 32.5958C301.251 31.844 295.829 32.3138 291.091 34.0727C285.881 36.006 282.192 39.188 280.53 43.1353C280.483 40.289 280.79 36.6774 282.817 33.5759C284.821 30.5147 287.649 29.2662 288.722 28.7963L288.71 28.8097ZM316.031 45.3373C315.783 47.029 314.946 48.1836 314.251 48.8952C314.216 48.6401 314.204 48.3851 314.145 48.1434C313.886 46.8545 313.414 45.6596 312.754 44.572C313.19 43.216 313.627 41.0274 312.99 38.7584C313.697 39.1478 314.487 39.7788 315.1 40.8126C315.489 41.4437 316.337 43.1622 316.019 45.3507L316.031 45.3373ZM314.558 59.314C313.874 59.8644 313.155 60.0658 312.542 60.1195C314.275 57.3 314.393 53.017 314.381 51.3925C314.994 51.8624 315.854 52.7351 316.184 54.1315C316.644 56.0514 315.984 58.1727 314.558 59.3005L314.558 59.314ZM281.084 49.1101C281.155 47.7406 281.556 44.666 283.642 43.0414C284.738 42.1956 286.742 41.4705 290.089 42.7862C294.415 44.4914 296.666 48.9893 298.858 53.3394C301.062 57.7163 303.149 61.8514 307.144 62.6033C308.37 62.8316 309.313 62.6437 309.973 62.3886C309.772 62.9928 309.501 63.5163 309.136 63.9325C307.816 65.4631 305.624 65.4498 302.3 64.9262C293.33 63.5164 288.828 62.8048 285.646 59.1797C283.383 56.6019 281.815 53.1245 281.084 49.1101ZM309.796 60.6163C309.136 60.9653 308.287 61.0594 307.38 60.8983C304.103 60.2941 302.276 56.6825 300.178 52.4935C299.954 52.0505 299.719 51.5805 299.483 51.124L301.652 51.124C301.793 52.1444 302.064 52.9634 302.276 53.487C302.618 54.3195 303.926 57.0986 306.708 58.0653C307.168 58.2264 308.11 58.5621 309.218 58.3608C310.385 58.1459 311.47 57.3806 312.365 56.1857C311.965 58.0251 311.21 59.8644 309.796 60.6163ZM308.476 42.7461C309.218 42.8669 309.831 43.3368 310.326 43.8604C309.666 43.9947 308.936 44.2766 308.24 44.8674C306.225 46.5725 305.942 49.6202 306.519 51.7281C307.062 53.7421 308.075 55.0311 309.36 55.3667C309.902 55.5144 310.456 55.4875 311.01 55.313C310.397 56.038 309.702 56.5079 308.971 56.6422C308.216 56.7764 307.521 56.5347 307.144 56.4139C304.975 55.662 303.926 53.4333 303.655 52.762C303.349 52.0101 302.866 50.4662 303.16 48.6536C303.632 45.6596 306.107 42.3702 308.476 42.7595L308.476 42.7461ZM312.743 50.2513C312.743 50.2513 312.813 50.3184 312.837 50.3586C312.837 50.4929 312.837 50.6138 312.837 50.748C312.837 50.748 312.813 50.7481 312.801 50.7749C311.87 51.6476 310.951 51.6745 310.786 51.4866C310.692 51.3926 310.609 50.9092 310.774 50.305C310.916 49.7546 311.21 49.3249 311.493 49.2712C311.823 49.2041 312.377 49.5531 312.743 50.2782L312.743 50.2513ZM311.21 47.5392C310.338 47.7271 309.631 48.5731 309.313 49.7948C309.218 50.1573 309.16 50.5601 309.16 50.9629C309.16 51.6208 309.313 52.2652 309.737 52.7351C310.114 53.1513 310.656 53.3259 311.258 53.2991C310.727 53.6481 310.173 53.7824 309.725 53.6616C308.995 53.4736 308.382 52.6008 308.005 51.2045C307.568 49.6068 307.828 47.405 309.183 46.2637C309.985 45.5924 310.88 45.485 311.505 45.5118C311.918 46.1965 312.247 46.9216 312.471 47.7003C312.059 47.5123 311.635 47.4452 311.234 47.5392L311.21 47.5392ZM310.244 38.9733C311.187 39.8862 311.387 41.3901 311.363 42.585C310.692 41.86 309.808 41.202 308.7 41.0275C305.411 40.477 302.264 44.4242 301.652 48.3313C301.593 48.6938 301.569 49.0295 301.557 49.3651L299.554 49.3651C300.98 44.9479 303.95 38.5034 307.533 38.1812C307.957 38.1409 309.266 38.0334 310.232 38.9598L310.244 38.9733ZM310.291 36.9728C309.478 36.5431 308.523 36.3551 307.427 36.4491C302.571 36.8653 299.389 44.9344 298.163 48.6669C296.336 45.4849 294.061 42.5178 290.584 41.1483C287.331 39.8594 285.092 40.2891 283.63 41.0678C285.433 38.8391 288.133 37.013 291.574 35.7375C298.08 33.3342 306.201 33.4283 309.301 35.9658C309.69 36.288 310.02 36.6237 310.303 36.9728L310.291 36.9728ZM276.075 35.5631C274.944 34.4353 273.789 33.6028 272.681 32.9852C273.954 33.1598 275.38 33.643 276.712 34.7305C277.808 35.6301 278.727 36.8788 279.364 38.3154C279.269 38.8122 279.199 39.3089 279.14 39.8057C278.421 38.3959 277.442 36.9191 276.075 35.5497L276.075 35.5631ZM274.626 53.1245L277.702 49.8887C277.702 49.8887 277.702 49.8887 277.702 49.8753C277.749 49.8216 277.796 49.7544 277.831 49.6739C277.843 49.647 277.867 49.6203 277.879 49.5934C277.902 49.5263 277.914 49.4591 277.926 49.3785C277.926 49.3383 277.949 49.298 277.949 49.2578C277.949 49.0161 277.855 48.8013 277.713 48.6402L274.614 45.203L279.022 44.2498C279.045 44.7734 279.069 45.2567 279.093 45.6998C279.163 46.8813 279.305 48.0628 279.529 49.2174C279.305 50.7346 279.198 52.2652 279.163 53.7824L274.626 53.1245ZM279.411 59.945C278.774 61.4353 277.843 62.7107 276.712 63.6372C275.38 64.7247 273.954 65.2081 272.681 65.3826C273.789 64.765 274.956 63.9325 276.075 62.8047C277.56 61.3144 278.598 59.6765 279.328 58.1593C279.387 58.7232 279.446 59.2602 279.505 59.7973C279.47 59.851 279.434 59.8912 279.411 59.945ZM298.552 81.7625C294.356 83.9778 289.276 78.1912 289.229 78.1375C287.119 75.6939 286.317 72.7536 286.011 70.592C286.129 70.6591 286.247 70.7397 286.365 70.8069C287.685 71.4647 288.545 71.5586 289.382 71.6525C290.03 71.7197 290.714 71.8002 291.704 72.1627C293.248 72.7401 293.931 73.4115 294.815 74.2708C295.534 74.9689 296.348 75.7745 297.75 76.6607C298.611 77.2111 299.825 77.9763 301.298 78.5402C300.756 79.7351 299.896 81.0509 298.552 81.7625ZM313.426 71.4513C312.118 76.3384 306.625 77.4124 306.566 77.4259C303.125 78.0703 300.108 76.1504 298.493 75.13C297.232 74.3245 296.501 73.6263 295.806 72.9416C294.874 72.042 294.002 71.1826 292.175 70.4979C291.02 70.0683 290.231 69.9878 289.523 69.9072C288.745 69.8267 288.074 69.7461 286.978 69.1956C285.257 68.3363 283.807 67.0206 282.782 65.3961C281.367 63.1673 281.143 60.9653 280.837 57.9041C280.696 56.4944 280.636 55.0713 280.672 53.6481C281.591 56.2528 282.899 58.562 284.538 60.4283C288.085 64.4696 292.765 65.208 302.064 66.6715C303.879 66.9534 305.635 67.1414 307.167 66.846C307.262 67.034 307.403 67.1818 307.592 67.2489C309.572 68.0142 311.623 67.947 313.45 67.2489C313.709 68.4035 313.839 69.8938 313.414 71.4513L313.426 71.4513ZM315.984 63.221C314.475 65.4095 311.929 66.4163 309.372 65.9464C309.666 65.7316 309.961 65.4766 310.22 65.1678C310.963 64.3219 311.434 63.1942 311.682 61.865C312.648 61.9455 314.086 61.8246 315.43 60.7505C316.267 60.0792 316.903 59.1394 317.316 58.0921C317.375 59.475 317.186 61.4622 315.972 63.221L315.984 63.221ZM319.461 47.3646C320.05 50.7749 318.671 53.5944 317.822 54.937C317.799 54.5074 317.752 54.0912 317.646 53.675C317.21 51.8759 316.196 50.7346 315.371 50.0633C316.243 49.1503 317.221 47.7004 317.528 45.6328C317.669 44.6795 317.634 43.8202 317.528 43.0414C318.258 43.9813 319.119 45.4178 319.461 47.3646ZM317.198 41.6182C316.927 40.7858 316.597 40.1548 316.373 39.8057C314.958 37.4829 312.884 36.7311 311.941 36.5029C311.493 35.845 310.916 35.1469 310.185 34.5562C309.454 33.952 308.488 33.482 307.356 33.1195C309.478 31.6829 312.153 31.6426 314.31 33.1867C316.809 34.9723 317.964 38.4093 317.198 41.6316L317.198 41.6182Z" fill="#DFD4CF" fill-opacity="0.05"/>
<path d="M34.8434 78.5803C37.8254 80.6882 41.2551 80.1915 43.5416 79.4396C44.6613 81.1716 46.4412 83.1587 49.0106 83.8031C54.1495 85.092 59.3707 80.0975 61.2447 74.727C61.8105 73.1024 62.0815 71.3436 62.0815 69.5176C62.8005 68.8463 63.5077 68.0408 64.1441 67.0607C64.8867 65.9329 65.4172 64.7649 65.8062 63.5834C66.4544 64.6306 67.2323 65.5703 68.128 66.2953C71.7818 69.3028 76.0013 68.4033 77.2035 68.0542C77.5571 67.9602 77.7928 67.5843 77.781 67.1815C77.781 66.7787 77.5099 66.4296 77.1563 66.3491C75.4826 65.9866 72.9839 65.0737 70.6738 62.7509C68.8233 60.8981 67.7508 58.8035 67.1143 57.0715L72.8544 55.8364C73.1373 55.7827 73.3612 55.5409 73.4437 55.2321C73.5262 54.9233 73.4435 54.5878 73.2431 54.3596L70.4381 51.2446L78.3585 51.2446C78.7828 51.2446 79.1245 50.8552 79.1245 50.3719C79.1245 49.8885 78.7828 49.4991 78.3585 49.4991L70.5207 49.4991L73.3611 46.5051C73.5851 46.2769 73.6557 45.9145 73.5732 45.5922C73.4789 45.27 73.2313 45.0282 72.9367 44.988L66.9966 44.1287C67.6095 42.343 68.6937 40.0874 70.6738 38.1003C72.9957 35.7776 75.4826 34.8513 77.1563 34.5022C77.5099 34.4216 77.7692 34.086 77.781 33.6698C77.8046 33.2536 77.5571 32.891 77.2035 32.797C76.0013 32.448 71.7936 31.5485 68.128 34.5559C67.2441 35.281 66.4662 36.2072 65.818 37.2545C65.5115 35.8581 65.0281 34.5291 64.1795 33.1999C63.4252 32.005 62.4588 30.9845 61.3627 30.1252C61.1977 27.722 60.4785 23.6001 57.579 20.2436C57.3433 19.9616 51.686 13.5171 46.5236 16.256C44.6613 17.2362 43.5534 19.0487 42.9169 20.5927C41.6911 20.2973 40.3358 20.1899 38.8979 20.4585C38.6386 20.5122 32.4035 21.7473 30.8241 27.6414C30.5766 28.5544 30.4822 29.4405 30.4822 30.2729C30.4822 31.3202 30.6355 32.2868 30.8359 33.0789C29.9637 33.6428 29.1623 34.3813 28.5258 35.2943C26.4868 38.2346 26.7932 41.7121 27.0053 43.0681C26.251 44.1288 24.5773 46.9348 24.5773 50.5733C24.5773 51.2178 24.6246 51.8756 24.7424 52.5603C25.1314 54.8428 26.1213 56.5614 26.9817 57.6624C26.1567 61.4083 27.4532 65.3556 30.223 67.5843C30.223 69.4237 30.5885 75.5594 34.8198 78.5534L34.8434 78.5803ZM59.8186 74.0826C58.1685 78.8086 53.5599 83.1586 49.3404 82.098C47.431 81.6146 46.0286 80.205 45.0739 78.8355C46.559 78.1507 47.4902 77.3049 48.3859 76.4859C49.5056 75.4655 50.5546 74.5122 52.7468 73.72C53.784 73.3441 54.3732 73.2635 54.9625 73.1695C55.6461 73.0755 56.3533 72.9682 57.579 72.4312C58.1684 72.1626 59.2647 71.6792 60.5023 70.8199C60.408 71.9477 60.184 73.0622 59.8186 74.0826ZM57.0251 70.8067C55.9761 71.2766 55.4105 71.3571 54.7622 71.4511C54.1376 71.5451 53.442 71.639 52.2752 72.0686C49.8118 72.9682 48.5391 74.1229 47.4194 75.1433C46.4882 75.9891 45.616 76.7812 44.1191 77.4122C42.2215 78.2044 38.615 79.1979 35.6566 77.1169C32.6865 75.009 31.9793 70.8468 31.826 68.6583C34.6901 70.0144 37.9903 69.3968 40.3711 67.0338C44.4846 67.7857 49.9061 67.3158 54.6443 65.557C59.8538 63.6236 63.5432 60.4416 65.2051 56.4943C65.2522 59.3406 64.9455 62.9523 62.9183 66.0537C60.9028 69.1149 58.0859 70.3634 57.0133 70.8334L57.0251 70.8067ZM29.7045 54.2789C29.952 52.6007 30.777 51.446 31.4724 50.7344C31.5078 50.9761 31.5314 51.2312 31.5904 51.4729C31.8497 52.7484 32.3329 53.9701 32.9929 55.0576C32.6157 56.2122 32.4154 57.3804 32.4154 58.4813C32.4154 59.3138 32.5451 60.1059 32.7572 60.8712C32.05 60.4819 31.2603 59.8508 30.6238 58.817C30.2349 58.186 29.3744 56.4674 29.7045 54.2789ZM31.1777 40.3022C31.8614 39.7518 32.5921 39.5504 33.205 39.4967C31.5313 42.2356 31.3544 46.3575 31.3544 47.9149C31.3544 48.0358 31.3544 48.1297 31.3544 48.2103C30.7415 47.7404 29.8814 46.8676 29.5514 45.4713C29.0917 43.5513 29.7516 41.43 31.1777 40.2888L31.1777 40.3022ZM64.6626 50.5061C64.5919 51.8756 64.1795 54.9636 62.1051 56.5748C61.009 57.4206 59.0053 58.1457 55.658 56.8299C51.3324 55.1248 49.0813 50.6271 46.889 46.277C44.685 41.9 42.5988 37.7647 38.6032 37.0129C37.3774 36.7846 36.4346 36.9726 35.7628 37.2277C35.9632 36.6236 36.2342 36.0999 36.5996 35.6837C37.9196 34.1531 40.1117 34.1666 43.4354 34.6902C52.4048 36.0999 56.9074 36.8114 60.0897 40.4365C62.3527 43.0143 63.9201 46.4917 64.6508 50.5061L64.6626 50.5061ZM35.9395 39.0134C36.5877 38.6643 37.4482 38.5704 38.3557 38.7315C41.6323 39.3356 43.4591 42.9607 45.557 47.1363C45.781 47.5793 46.0168 48.0491 46.2525 48.5056L44.0837 48.5056C43.9423 47.4852 43.6712 46.6662 43.459 46.1426C43.0229 45.0819 41.7264 42.5042 39.0273 41.5644C38.5677 41.4033 37.6249 41.0809 36.517 41.2823C35.3384 41.4971 34.2541 42.2759 33.3583 43.4708C33.7591 41.618 34.5251 39.7787 35.9395 39.0268L35.9395 39.0134ZM37.2594 56.8703C36.5169 56.7494 35.9042 56.2794 35.4091 55.7558C36.0692 55.6215 36.8 55.3261 37.4953 54.7488C39.499 53.0437 39.7936 49.996 39.2161 47.8881C38.5089 45.3102 37.283 44.4913 36.3754 44.2496C35.8332 44.1019 35.2676 44.1287 34.7254 44.3032C35.3383 43.5782 36.0337 43.1083 36.7645 42.974C37.5188 42.8398 38.2142 43.0815 38.5914 43.2023C40.7601 43.9542 41.809 46.1829 42.0801 46.8542C42.3866 47.6195 42.8579 49.1636 42.575 50.9627C42.1036 53.9567 39.6284 57.2462 37.2594 56.8434L37.2594 56.8703ZM32.9929 49.3649C32.9929 49.3649 32.9221 49.2978 32.8985 49.2576C32.8985 49.1233 32.8985 49.0024 32.8985 48.8681C32.8985 48.8681 32.9221 48.8681 32.9339 48.8413C33.865 47.9686 34.7725 47.9418 34.9493 48.1298C34.9965 48.1835 35.0555 48.3849 35.0555 48.6534C35.0555 48.8414 35.0318 49.0696 34.9611 49.3113C34.8197 49.8618 34.5252 50.2913 34.2541 50.345C33.9241 50.4121 33.3701 50.063 32.9929 49.338L32.9929 49.3649ZM34.5252 52.0905C35.3974 51.9025 36.1044 51.0566 36.4226 49.8348C36.6583 48.9084 36.6821 47.6464 35.9985 46.8945C35.6213 46.4783 35.0791 46.3037 34.478 46.3306C35.0084 45.9815 35.5624 45.8474 36.0103 45.9682C36.741 46.1562 37.3539 47.0288 37.731 48.4251C38.1671 50.0229 37.9078 52.2247 36.5524 53.3659C35.7391 54.0506 34.808 54.1447 34.2305 54.1178C33.8298 53.4465 33.4879 52.7081 33.2639 51.9428C33.6765 52.1308 34.1008 52.1979 34.5016 52.1039L34.5252 52.0905ZM35.4914 60.6429C34.5485 59.73 34.3482 58.2263 34.3718 57.0314C35.0436 57.7564 35.9276 58.4141 37.0355 58.5887C40.3239 59.1392 43.4708 55.1919 44.0837 51.2849C44.1427 50.9224 44.1663 50.5867 44.1781 50.2511L46.1817 50.2511C44.7556 54.6683 41.7854 61.1128 38.2024 61.435C37.778 61.4753 36.4697 61.5828 35.5032 60.6564L35.4914 60.6429ZM35.4563 62.6434C36.2696 63.0731 37.2242 63.261 38.3203 63.1671C43.1763 62.7509 46.3585 54.6817 47.5842 50.9493C49.4111 54.1313 51.6861 57.0984 55.1631 58.4679C58.4161 59.7568 60.6554 59.3273 62.1169 58.5485C60.3136 60.7773 57.6145 62.6032 54.1729 63.8787C47.6668 66.282 39.546 66.1879 36.4462 63.6504C36.0573 63.3282 35.7274 62.9925 35.4563 62.6569L35.4563 62.6434ZM69.66 64.0532C70.7915 65.181 71.9467 66.0134 73.0547 66.631C71.7817 66.4564 70.3557 65.9732 69.0238 64.8857C67.9159 63.9727 67.0319 62.7643 66.3837 61.3008C66.478 60.804 66.5486 60.2939 66.6076 59.8105C67.3265 61.2068 68.3046 62.6838 69.66 64.0532ZM71.11 46.4917L68.0337 49.7274C67.9865 49.7811 67.9392 49.8617 67.9039 49.9289C67.8921 49.9557 67.8688 49.9825 67.857 50.0093C67.8334 50.0765 67.8216 50.1436 67.8098 50.2242C67.8098 50.2645 67.7862 50.3047 67.7862 50.345C67.7862 50.5867 67.8804 50.8016 68.0219 50.9627L71.1218 54.3997L66.7135 55.3531C66.6899 54.8295 66.6665 54.346 66.643 53.903C66.5722 52.7215 66.4307 51.54 66.2067 50.3853C66.4307 48.8682 66.5486 47.3375 66.584 45.8204L71.11 46.4782L71.11 46.4917ZM66.3247 39.6712C66.973 38.1541 67.8805 36.9189 69.0238 35.979C70.3557 34.8915 71.7817 34.3947 73.0547 34.2336C71.9467 34.8512 70.7797 35.6837 69.66 36.8115C68.1632 38.3018 67.138 39.9397 66.4073 41.4569C66.3484 40.893 66.2893 40.356 66.2303 39.8189C66.2657 39.7652 66.3011 39.7249 66.3247 39.6712ZM47.1837 17.8671C51.3796 15.6384 56.4594 21.4384 56.5066 21.4921C58.6163 23.9357 59.4178 26.876 59.7242 29.0376C59.6064 28.9705 59.4885 28.8901 59.3706 28.8229C58.0505 28.1651 57.1903 28.0711 56.3535 27.9771C55.7053 27.91 55.0217 27.8294 54.0316 27.4669C52.4876 26.8896 51.8038 26.2182 50.9199 25.3589C50.2009 24.6607 49.3877 23.8553 47.9851 22.9691C47.1247 22.4187 45.9107 21.6533 44.4374 21.0894C44.9796 19.8945 45.84 18.5787 47.1837 17.8671ZM32.3092 28.1651C33.6057 23.2914 39.11 22.2037 39.1571 22.1903C42.5987 21.5459 45.6162 23.4659 47.2309 24.4863C48.492 25.2919 49.2225 25.9899 49.9179 26.6746C50.849 27.5876 51.7213 28.4335 53.5482 29.1183C54.7033 29.5479 55.4929 29.6284 56.2001 29.709C56.978 29.7895 57.65 29.8701 58.7462 30.4206C60.467 31.2799 61.9165 32.5957 62.9419 34.2203C64.3562 36.449 64.5804 38.6509 64.8868 41.712C65.0282 43.1218 65.087 44.545 65.0517 45.9682C64.1206 43.3635 62.824 41.0541 61.1857 39.1745C57.638 35.1332 52.959 34.3947 43.6478 32.9313C41.8327 32.6493 40.0764 32.4613 38.5442 32.7567C38.4499 32.5688 38.3084 32.4212 38.1316 32.354C36.1515 31.6022 34.1007 31.6559 32.2738 32.354C32.0145 31.1994 31.8967 29.7091 32.3092 28.1516L32.3092 28.1651ZM29.7516 36.3953C31.2603 34.2069 33.806 33.1999 36.3636 33.6698C36.069 33.8846 35.7743 34.1396 35.515 34.4484C34.7725 35.3077 34.3011 36.422 34.0535 37.7512C33.0871 37.6707 31.6492 37.7916 30.3056 38.8657C29.4687 39.537 28.8322 40.4634 28.4196 41.5106C28.3607 40.1277 28.5494 38.1407 29.7634 36.3953L29.7516 36.3953ZM26.2747 52.2516C25.6854 48.8413 27.0525 46.0218 27.9129 44.6792C27.9365 45.1088 27.9838 45.5251 28.0899 45.9548C28.526 47.7539 29.5395 48.895 30.3646 49.5663C29.4924 50.4793 28.514 51.9294 28.1958 53.997C28.125 54.4401 28.1017 54.8697 28.1017 55.2725C28.1017 55.7424 28.1486 56.172 28.2076 56.5882C27.4768 55.6484 26.6165 54.2252 26.2747 52.265L26.2747 52.2516ZM28.5376 57.998C28.8087 58.8304 29.1387 59.4614 29.3626 59.8105C30.777 62.1332 32.8514 62.8851 33.8061 63.1133C34.2304 63.7443 34.7961 64.4426 35.5622 65.0602C36.293 65.6644 37.2596 66.1342 38.3911 66.4967C36.2696 67.9333 33.5939 67.9737 31.437 66.4297C28.9383 64.644 27.7833 61.2203 28.5494 57.9846L28.5376 57.998Z" fill="#DFD4CF" fill-opacity="0.05"/>
<path d="M331.141 23.1036C331.141 24.3567 332.033 25.3725 333.133 25.3725C334.233 25.3725 335.125 24.3567 335.125 23.1036C335.125 21.8504 334.233 20.8345 333.133 20.8345C332.033 20.8345 331.141 21.8504 331.141 23.1036Z" fill="#DFD4CF" fill-opacity="0.05"/>
<path d="M330.846 77.1034C330.846 78.3566 331.738 79.3724 332.838 79.3724C333.938 79.3724 334.83 78.3566 334.83 77.1034C334.83 75.8503 333.938 74.8345 332.838 74.8345C331.738 74.8345 330.846 75.8503 330.846 77.1034Z" fill="#DFD4CF" fill-opacity="0.05"/>
<path d="M16.811 23.0499C16.811 19.7336 14.7011 16.9813 11.9313 16.404L11.9313 0.76242C13.9114 2.41384 16.151 3.42084 18.2725 2.80323C19.8283 2.36017 20.4764 1.25921 21.655 -0.72786C22.1854 -1.61399 22.8455 -2.7284 23.7766 -4.12473C24.2599 -4.86317 28.7152 -11.4554 34.797 -16.6782C37.1071 -18.6653 39.6529 -20.4376 42.3519 -21.9279C42.3519 -21.9279 42.3637 -21.9413 42.3755 -21.9547C44.7917 -22.814 46.5715 -25.3515 46.5715 -28.3858C46.5715 -32.1182 43.9078 -35.1526 40.6312 -35.1526C37.3546 -35.1526 34.6908 -32.1182 34.6908 -28.3858C34.6908 -25.4186 36.3879 -22.9213 38.7216 -22.0083C36.9655 -20.8671 35.2918 -19.632 33.7242 -18.2894C29.4222 -14.5838 25.9102 -10.2336 23.9654 -7.6155C23.1521 -12.3684 22.7394 -17.7524 23.7176 -20.4645C23.8944 -20.9746 24.2364 -21.9145 25.0142 -22.3307C25.5446 -22.6127 26.6289 -22.7603 27.2535 -21.9951C27.395 -21.8071 27.5129 -21.5921 27.5836 -21.3639C27.4304 -21.4042 27.2773 -21.4311 27.1123 -21.4311C26.0515 -21.4311 25.1909 -20.451 25.1909 -19.2426C25.1909 -18.0343 26.0515 -17.0541 27.1123 -17.0541C27.6662 -17.0541 28.1494 -17.3227 28.503 -17.7389C28.5265 -17.7657 28.5502 -17.7791 28.5738 -17.8059C28.6091 -17.8596 28.6328 -17.9135 28.6681 -17.9672C28.6917 -18.0075 28.7151 -18.0343 28.7268 -18.0746C29.7287 -19.7394 29.6816 -21.9414 28.5502 -23.3377C27.3597 -24.8011 25.4976 -24.7877 24.2718 -24.1432C22.8575 -23.4048 22.3034 -21.8741 22.0677 -21.2028C21.5608 -19.793 21.3722 -17.9269 21.3722 -15.9533C21.3722 -11.9926 22.115 -7.6289 22.5039 -5.5747C22.4332 -5.46729 22.3741 -5.37338 22.3387 -5.31968C21.384 -3.86965 20.7121 -2.74188 20.1699 -1.8289C19.0267 0.104469 18.6849 0.628112 17.8245 0.883216C14.6893 1.78277 10.5407 -2.71503 8.59594 -6.19241C4.52966 -13.4828 5.09524 -24.1834 9.90408 -31.0979C10.8588 -32.4808 16.0213 -39.3282 23.3171 -38.8583C24.4957 -38.7777 25.6743 -38.5092 26.8294 -38.0527C22.7278 -33.8235 19.2389 -29.0302 16.4456 -23.7C14.4183 -19.8467 12.7565 -15.7116 11.4954 -11.4018C11.46 -11.2675 11.4364 -11.1197 11.4364 -10.972C11.4364 -10.4082 11.7427 -9.8846 12.2378 -9.69663C12.8506 -9.46838 13.5225 -9.84432 13.7228 -10.5425C14.925 -14.6643 16.5162 -18.6251 18.4492 -22.3038C25.9099 -36.5087 38.4979 -46.8872 54.8692 -52.3248C61.0452 -54.379 67.5039 -55.4127 74.1043 -55.4261C74.6936 -46.8334 80.9994 -40.0398 88.6959 -40.0398C96.3924 -40.0398 102.674 -46.8066 103.287 -55.386L240.704 -55.386C241.306 -46.8201 247.611 -40.0398 255.296 -40.0398C262.98 -40.0398 269.275 -46.8066 269.887 -55.3725C276.476 -55.3591 282.935 -54.3252 289.111 -52.271C305.47 -46.8334 318.07 -36.455 325.531 -22.2501C327.464 -18.5579 329.055 -14.6105 330.257 -10.4887C330.457 -9.79055 331.129 -9.40118 331.742 -9.64285C332.355 -9.8711 332.685 -10.6364 332.485 -11.3346C331.224 -15.6444 329.562 -19.7797 327.534 -23.633C324.741 -28.9498 321.241 -33.7563 317.151 -37.9855C318.306 -38.4286 319.484 -38.7105 320.663 -38.791C327.947 -39.261 333.109 -32.4137 334.076 -31.0308C338.885 -24.1164 339.451 -13.4156 335.384 -6.1252C333.439 -2.63439 329.291 1.8634 326.155 0.950424C325.283 0.695327 324.953 0.185104 323.798 -1.76169C323.256 -2.67467 322.584 -3.80244 321.629 -5.25247C321.594 -5.30617 321.535 -5.40024 321.464 -5.50765C322.066 -8.60909 323.421 -16.9065 321.912 -21.1357C321.676 -21.7936 321.123 -23.3241 319.708 -24.0626C318.483 -24.707 316.62 -24.7205 315.43 -23.257C314.829 -22.5186 314.522 -21.5384 314.522 -20.5449C314.522 -19.6588 314.77 -18.7592 315.253 -17.9805C315.277 -17.9536 315.288 -17.9134 315.312 -17.8866C315.347 -17.8328 315.371 -17.7791 315.406 -17.7254C315.43 -17.6986 315.453 -17.6851 315.477 -17.6582C315.831 -17.242 316.314 -16.9735 316.868 -16.9735C317.929 -16.9735 318.789 -17.9536 318.789 -19.162C318.789 -20.3703 317.929 -21.3504 316.868 -21.3504C316.703 -21.3504 316.55 -21.3237 316.396 -21.2834C316.467 -21.5251 316.573 -21.7399 316.726 -21.9144C317.351 -22.6797 318.435 -22.532 318.966 -22.2501C319.744 -21.8473 320.085 -20.894 320.262 -20.3838C321.241 -17.6717 320.816 -12.2879 320.015 -7.53501C318.07 -10.1531 314.558 -14.5166 310.256 -18.2088C308.688 -19.5648 307.003 -20.8 305.258 -21.9278C307.592 -22.8408 309.289 -25.3381 309.289 -28.3053C309.289 -32.0378 306.625 -35.0721 303.349 -35.0721C300.072 -35.0721 297.409 -32.0378 297.409 -28.3053C297.409 -25.271 299.176 -22.7334 301.604 -21.8741C301.616 -21.8741 301.628 -21.8606 301.64 -21.8472C304.339 -20.3569 306.885 -18.5848 309.195 -16.5977C315.277 -11.3749 319.732 -4.78252 320.215 -4.04408C321.146 -2.63432 321.806 -1.5335 322.337 -0.647378C323.515 1.3397 324.163 2.44065 325.719 2.88372C327.829 3.48789 330.068 2.4809 332.06 0.84291L332.06 16.4844C329.291 17.0618 327.181 19.8142 327.181 23.1305C327.181 26.863 329.844 29.8972 333.121 29.8972C336.398 29.8972 339.061 26.863 339.061 23.1305C339.061 19.6665 336.763 16.8469 333.828 16.4441L333.828 -0.862076C335.066 -2.21812 336.127 -3.72186 336.881 -5.06448C341.325 -13.0396 340.711 -24.7473 335.467 -32.3063C334.406 -33.8234 328.737 -41.3555 320.569 -40.8319C318.895 -40.7244 317.245 -40.268 315.642 -39.5161C308.594 -46.3098 299.872 -51.5192 289.759 -54.8758C283.371 -56.9971 276.688 -58.0576 269.876 -58.0845C269.275 -66.6638 262.969 -73.4307 255.284 -73.4307C247.6 -73.4307 241.306 -66.6638 240.693 -58.0845L103.275 -58.0845C102.674 -66.6638 96.3688 -73.4307 88.6841 -73.4307C80.9994 -73.4307 74.7172 -66.6907 74.1043 -58.1382C67.28 -58.1248 60.5973 -57.0507 54.2091 -54.9294C44.0964 -51.5728 35.3745 -46.3501 28.3263 -39.5699C26.7234 -40.3218 25.0731 -40.7782 23.3994 -40.8856C15.2432 -41.4092 9.56235 -33.8772 8.50159 -32.36C5.60214 -28.1979 4.11709 -22.7603 4.11709 -17.3764C4.11709 -13.0129 5.09536 -8.68961 7.08728 -5.11825C7.8298 -3.77564 8.89041 -2.2719 10.1397 -0.915849L10.1397 16.3905C7.19317 16.7933 4.90667 19.6262 4.90667 23.0767C4.90667 26.8092 7.57043 29.8436 10.847 29.8436C14.1237 29.8436 16.7874 26.8092 16.7874 23.0767L16.811 23.0499ZM36.4588 -28.3858C36.4588 -31.0039 38.3328 -33.1387 40.6312 -33.1387C42.9295 -33.1387 44.8036 -31.0039 44.8036 -28.3858C44.8036 -25.7677 42.9295 -23.633 40.6312 -23.633C38.3328 -23.633 36.4588 -25.7677 36.4588 -28.3858ZM299.188 -28.3322C299.188 -30.9503 301.062 -33.0849 303.361 -33.0849C305.659 -33.0849 307.533 -30.9503 307.533 -28.3322C307.533 -25.7141 305.659 -23.5792 303.361 -23.5792C301.062 -23.5792 299.188 -25.7141 299.188 -28.3322ZM337.305 23.1036C337.305 25.7217 335.431 27.8564 333.133 27.8564C330.835 27.8564 328.96 25.7217 328.96 23.1036C328.96 20.4855 330.835 18.3507 333.133 18.3507C335.431 18.3507 337.305 20.4855 337.305 23.1036ZM255.296 -70.7723C262.073 -70.7723 267.589 -64.4888 267.589 -56.7687C267.589 -49.0487 262.073 -42.7653 255.296 -42.7653C248.519 -42.7653 243.003 -49.0487 243.003 -56.7687C243.003 -64.4888 248.519 -70.7723 255.296 -70.7723ZM88.7077 -70.7723C95.4849 -70.7723 101.001 -64.4888 101.001 -56.7687C101.001 -49.0487 95.4849 -42.7653 88.7077 -42.7653C81.9306 -42.7653 76.4146 -49.0487 76.4146 -56.7687C76.4146 -64.4888 81.9306 -70.7723 88.7077 -70.7723ZM6.69824 23.0499C6.69824 20.4317 8.57229 18.2969 10.8706 18.2969C13.169 18.2969 15.0431 20.4317 15.0431 23.0499C15.0431 25.668 13.169 27.8028 10.8706 27.8028C8.57229 27.8028 6.69824 25.668 6.69824 23.0499Z" fill="#DFD4CF" fill-opacity="0.05"/>
<path d="M8.87817 23.0497C8.87817 24.3029 9.7699 25.3188 10.87 25.3188C11.9701 25.3188 12.8618 24.3029 12.8618 23.0497C12.8618 21.7966 11.9701 20.7808 10.87 20.7808C9.7699 20.7808 8.87817 21.7966 8.87817 23.0497Z" fill="#DFD4CF" fill-opacity="0.05"/>
<path d="M9.16088 77.0634C9.16088 78.3165 10.0526 79.3325 11.1527 79.3325C12.2528 79.3325 13.1445 78.3165 13.1445 77.0634C13.1445 75.8102 12.2528 74.7944 11.1527 74.7944C10.0526 74.7944 9.16088 75.8102 9.16088 77.0634Z" fill="#DFD4CF" fill-opacity="0.05"/>
<path d="M273.918 11.7048C273.918 8.9256 274.484 2.31995 279.435 -2.36579C284.88 -7.52145 291.421 -6.28629 293.295 -5.7761C299.436 -4.1381 302.442 1.15172 302.654 2.34665C302.866 3.52815 302.607 4.48147 302.571 4.58888C302.477 4.89768 302.371 5.12593 302.312 5.26019C301.758 6.2403 300.956 6.65658 300.379 6.84455C299.966 6.97881 299.542 6.71019 299.436 6.24027C299.318 5.78378 299.554 5.30054 299.966 5.16628C300.296 5.05887 300.744 4.83049 301.003 4.36058C301.003 4.33372 301.074 4.19948 301.121 4.03836C301.121 4.03836 301.286 3.42076 301.157 2.69574C301.027 2.11842 298.552 -2.58065 292.954 -4.08438C291.256 -4.54087 285.316 -5.66863 280.425 -1.02317C275.533 3.60886 275.404 10.3622 275.474 12.3358C275.722 18.7267 279.246 24.6073 284.691 27.6818C285.069 27.8967 285.222 28.4204 285.033 28.8501C284.845 29.2797 284.385 29.4542 284.008 29.2393C278.067 25.8828 274.213 19.4249 273.942 12.403C273.942 12.215 273.93 11.9733 273.93 11.7048L273.918 11.7048Z" fill="#DFD4CF" fill-opacity="0.05"/>
<path d="M296.324 3.40712C296.324 5.38694 297.733 6.99197 299.471 6.99197C301.209 6.99197 302.618 5.38694 302.618 3.40712C302.618 1.42729 301.209 -0.177734 299.471 -0.177735C297.733 -0.177735 296.324 1.42729 296.324 3.40712Z" fill="#DFD4CF" fill-opacity="0.05"/>
<path d="M273.919 84.5285C273.919 84.2599 273.919 84.0182 273.93 83.8303C274.201 76.8084 278.056 70.3503 283.996 66.9938C284.373 66.779 284.833 66.9535 285.021 67.3832C285.21 67.8128 285.057 68.3364 284.68 68.5513C279.246 71.6259 275.71 77.5066 275.463 83.8975C275.392 85.8577 275.522 92.6244 280.413 97.2564C285.304 101.888 291.245 100.774 292.942 100.318C298.54 98.8139 301.015 94.1147 301.145 93.5374C301.275 92.8124 301.11 92.1948 301.11 92.1948C301.063 92.0336 301.004 91.8993 300.968 91.8322C300.721 91.4026 300.285 91.1744 299.955 91.0804C299.542 90.9462 299.307 90.4628 299.424 90.0063C299.542 89.5364 299.967 89.2679 300.367 89.4022C300.945 89.5901 301.746 90.0064 302.277 90.9462C302.371 91.1207 302.465 91.3623 302.559 91.6577C302.595 91.7651 302.854 92.7184 302.642 93.8999C302.43 95.1083 299.424 100.385 293.284 102.023C291.41 102.52 284.856 103.755 279.423 98.6125C274.473 93.9268 273.907 87.3211 273.907 84.5419L273.919 84.5285Z" fill="#DFD4CF" fill-opacity="0.05"/>
<path d="M43.0116 3.78316C43.0116 3.50121 43.0352 3.1789 43.0941 2.85667C43.3063 1.64831 46.3117 -3.62808 52.4524 -5.26607C54.3265 -5.76284 60.8797 -6.99816 66.3132 -1.85593C71.7467 3.2863 71.888 10.7513 71.8173 12.9129C71.5462 19.9348 67.692 26.3928 61.7517 29.7494C61.3746 29.9642 60.915 29.7896 60.7265 29.36C60.5379 28.9303 60.6912 28.4067 61.0683 28.1919C66.5018 25.1173 70.0375 19.2367 70.285 12.8458C70.3675 10.8856 70.2262 4.11872 65.3348 -0.513315C60.4435 -5.14535 54.5033 -4.03085 52.8061 -3.57436C47.2076 -2.07063 44.7325 2.62844 44.6028 3.20576C44.4732 3.93078 44.6379 4.54838 44.6379 4.54838C44.6851 4.7095 44.7441 4.84378 44.7795 4.91092C45.027 5.34055 45.463 5.56888 45.793 5.66286C46.2055 5.79712 46.4414 6.28037 46.3236 6.73686C46.2057 7.20677 45.7814 7.4754 45.3806 7.34113C44.8031 7.15317 44.0015 6.73692 43.4711 5.79709C43.3768 5.62255 43.2825 5.38084 43.1882 5.08546C43.1647 5.00491 43.0234 4.49474 43.0234 3.76972L43.0116 3.78316Z" fill="#DFD4CF" fill-opacity="0.05"/>
<path d="M43.1174 3.90402C43.1174 5.88385 44.5263 7.48887 46.2643 7.48887C48.0023 7.48887 49.4111 5.88385 49.4111 3.90402C49.4111 1.9242 48.0023 0.319336 46.2643 0.319336C44.5263 0.319336 43.1174 1.9242 43.1174 3.90402Z" fill="#DFD4CF" fill-opacity="0.05"/>
<path d="M43.012 93.4567C43.012 92.7317 43.1533 92.2214 43.1769 92.1408C43.2712 91.832 43.3772 91.6038 43.4362 91.4695C43.9901 90.4894 44.7917 90.0733 45.3693 89.8853C45.7818 89.751 46.2062 90.0195 46.3122 90.4894C46.4301 90.9593 46.1944 91.4427 45.7819 91.5636C45.4519 91.671 45.0039 91.8992 44.7446 92.3691C44.7446 92.396 44.6737 92.5302 44.6266 92.6913C44.6266 92.6913 44.4618 93.3089 44.5915 94.034C44.7211 94.6113 47.1962 99.3105 52.7947 100.814C54.492 101.271 60.4321 102.398 65.3235 97.753C70.2148 93.121 70.3444 86.3677 70.2737 84.394C70.0262 78.0032 66.5023 72.1224 61.057 69.0478C60.6798 68.833 60.5265 68.3094 60.7151 67.8798C60.9037 67.4501 61.3632 67.2755 61.7404 67.4904C67.6807 70.8469 71.5349 77.305 71.806 84.3268C71.8885 86.4885 71.7353 93.9534 66.3018 99.0956C60.8565 104.251 54.3151 103.016 52.4411 102.506C46.3004 100.868 43.295 95.578 43.0828 94.383C43.0239 94.0474 43.0002 93.7387 43.0002 93.4567L43.012 93.4567Z" fill="#DFD4CF" fill-opacity="0.05"/>
</svg>
