<svg width="29" height="33" viewBox="0 0 29 33" fill="none" xmlns="http://www.w3.org/2000/svg">
<path d="M24.25 32.2048C22.9074 27.7926 20.2624 20.9791 14.8521 14.0156C9.96273 7.72245 4.68266 3.69039 0.975586 1.28917C4.2318 0.989023 9.61206 0.918965 15.8239 2.82993C21.2142 4.49077 25.1818 7.01207 27.6465 8.863C26.5143 16.6469 25.3822 24.4209 24.25 32.2048Z" fill="url(#paint0_linear_69_14828)"/>
<mask id="mask0_69_14828" style="mask-type:luminance" maskUnits="userSpaceOnUse" x="0" y="1" width="28" height="32">
<path d="M24.25 32.2048C22.9074 27.7926 20.2624 20.9791 14.8521 14.0156C9.96273 7.72245 4.68266 3.69039 0.975586 1.28917C4.2318 0.989023 9.61206 0.918965 15.8239 2.82993C21.2142 4.49077 25.1818 7.01207 27.6465 8.863C26.5143 16.6469 25.3822 24.4209 24.25 32.2048Z" fill="white"/>
</mask>
<g mask="url(#mask0_69_14828)">
<path opacity="0.43" d="M25.4724 17.7872C24.22 16.0263 22.6871 14.1554 20.7834 12.3145C14.2009 5.94128 6.77668 3.25994 2.12781 2.06934C9.47182 11.2039 16.8259 20.3285 24.1699 29.4631C24.6007 25.5711 25.0315 21.6792 25.4623 17.7872H25.4724Z" fill="#270D1D"/>
</g>
<path d="M24.25 32.2048C22.9074 27.7926 20.2624 20.9791 14.8521 14.0156C9.96273 7.72245 4.68266 3.69039 0.975586 1.28917C4.2318 0.989023 9.61206 0.918965 15.8239 2.82993C21.2142 4.49077 25.1818 7.01207 27.6465 8.863C26.5143 16.6469 25.3822 24.4209 24.25 32.2048Z" stroke="black" stroke-linecap="round" stroke-linejoin="round"/>
<defs>
<linearGradient id="paint0_linear_69_14828" x1="8.68376" y1="18.4276" x2="28.1414" y2="9.77273" gradientUnits="userSpaceOnUse">
<stop stop-color="#625258"/>
<stop offset="1" stop-color="#918789"/>
</linearGradient>
</defs>
</svg>
