<svg width="29" height="33" viewBox="0 0 29 33" fill="none" xmlns="http://www.w3.org/2000/svg">
<path d="M4.55945 32.2048C5.90201 27.7926 8.54706 20.9791 13.9574 14.0156C18.8467 7.72245 24.1268 3.69039 27.8339 1.28917C24.5776 0.989023 19.1974 0.918965 12.9855 2.82993C7.59524 4.49077 3.62767 7.01207 1.16296 8.863C2.29512 16.6469 3.42728 24.4209 4.55945 32.2048Z" fill="url(#paint0_linear_69_14836)"/>
<mask id="mask0_69_14836" style="mask-type:luminance" maskUnits="userSpaceOnUse" x="1" y="1" width="27" height="32">
<path d="M4.55945 32.2048C5.90201 27.7926 8.54706 20.9791 13.9574 14.0156C18.8467 7.72245 24.1268 3.69039 27.8339 1.28917C24.5776 0.989023 19.1974 0.918965 12.9855 2.82993C7.59524 4.49077 3.62767 7.01207 1.16296 8.863C2.29512 16.6469 3.42728 24.4209 4.55945 32.2048Z" fill="white"/>
</mask>
<g mask="url(#mask0_69_14836)">
<path opacity="0.43" d="M3.33716 17.7872C4.58955 16.0263 6.12247 14.1554 8.0261 12.3145C14.6087 5.94128 22.0328 3.25994 26.6817 2.06934C19.3377 11.2039 11.9837 20.3285 4.63965 29.4631C4.20882 25.5711 3.77799 21.6792 3.34717 17.7872H3.33716Z" fill="#270D1D"/>
</g>
<path d="M4.55945 32.2048C5.90201 27.7926 8.54706 20.9791 13.9574 14.0156C18.8467 7.72245 24.1268 3.69039 27.8339 1.28917C24.5776 0.989023 19.1974 0.918965 12.9855 2.82993C7.59524 4.49077 3.62767 7.01207 1.16296 8.863C2.29512 16.6469 3.42728 24.4209 4.55945 32.2048Z" stroke="black" stroke-linecap="round" stroke-linejoin="round"/>
<defs>
<linearGradient id="paint0_linear_69_14836" x1="20.1184" y1="18.6467" x2="0.660712" y2="9.99176" gradientUnits="userSpaceOnUse">
<stop stop-color="#625258"/>
<stop offset="1" stop-color="#918789"/>
</linearGradient>
</defs>
</svg>
