<svg width="164" height="44" viewBox="0 0 164 44" fill="none" xmlns="http://www.w3.org/2000/svg">
<g clip-path="url(#clip0_238_10955)">
<rect width="164" height="44" rx="1" fill="url(#paint0_linear_238_10955)"/>
<path d="M119.87 22.6052C119.87 1.43996 102.712 -15.7179 81.5467 -15.7179C60.3814 -15.7179 43.2236 1.43997 43.2236 22.6052C43.2236 43.7704 60.3814 60.9282 81.5467 60.9282C102.712 60.9282 119.87 43.7704 119.87 22.6052Z" stroke="#DFD4CF" stroke-opacity="0.05" stroke-width="0.5" stroke-linecap="round" stroke-linejoin="round"/>
<path d="M116.543 22.7936C116.543 3.46562 100.875 -12.2028 81.5467 -12.2028C62.2187 -12.2028 46.5503 3.46562 46.5503 22.7936C46.5503 42.1216 62.2187 57.79 81.5467 57.79C100.875 57.79 116.543 42.1216 116.543 22.7936Z" stroke="#DFD4CF" stroke-opacity="0.05" stroke-width="0.5" stroke-linecap="round" stroke-linejoin="round"/>
<path d="M46.792 24.9531C48.2943 24.5775 51.6343 23.9873 54.8872 25.6707C55.3768 25.9256 56.0139 26.3079 56.7047 26.8847C59.8704 29.5473 59.5015 32.5587 62.03 36.6297C62.4257 37.2669 63.4586 38.8497 65.1688 40.4325C69.649 44.5975 74.1895 44.5438 77.429 48.5143C77.9521 49.1515 78.5423 50.0233 78.8575 51.2239C79.3337 53.0548 78.8911 54.6779 78.5691 55.5498" stroke="#DFD4CF" stroke-opacity="0.05" stroke-width="0.5" stroke-linecap="round" stroke-linejoin="round"/>
<path d="M76.4493 53.0078C76.5432 52.4847 76.5163 52.0823 76.4895 51.8609C75.9396 46.9448 66.3152 46.9046 61.2046 39.7685C59.8163 37.8302 58.9377 36.1065 58.9377 36.1065C57.3012 32.8872 57.4219 31.4586 55.9866 29.7618C55.2489 28.8966 53.988 27.8101 51.7144 27.1193" stroke="#DFD4CF" stroke-opacity="0.05" stroke-width="0.5" stroke-linecap="round" stroke-linejoin="round"/>
<path d="M61.2923 43.8131C61.2923 42.7871 60.4605 41.9553 59.4345 41.9553C58.4084 41.9553 57.5767 42.7871 57.5767 43.8131C57.5767 44.8391 58.4084 45.6709 59.4345 45.6709C60.4605 45.6709 61.2923 44.8391 61.2923 43.8131Z" fill="#DFD4CF" fill-opacity="0.05"/>
<path d="M60.3399 38.4878C59.9308 37.8171 59.2735 36.8581 58.2943 35.8722C57.0737 34.6381 56.3292 33.8936 55.2829 33.9406C54.344 33.9808 53.3514 34.6515 52.9691 35.6844C52.5935 36.6904 52.8551 37.8775 53.6331 38.5683C53.7739 38.6957 54.6056 39.4268 55.5646 39.1049C56.2152 38.8903 56.8188 38.233 56.7719 37.4282C56.7182 36.516 55.8664 36.0599 55.8195 36.0331" stroke="#DFD4CF" stroke-opacity="0.05" stroke-width="0.5" stroke-linecap="round" stroke-linejoin="round"/>
<path d="M53.5789 31.2574C53.5789 30.3721 52.8613 29.6545 51.976 29.6545C51.0907 29.6545 50.373 30.3721 50.373 31.2574C50.373 32.1427 51.0907 32.8604 51.976 32.8604C52.8613 32.8604 53.5789 32.1427 53.5789 31.2574Z" fill="#DFD4CF" fill-opacity="0.05"/>
<path d="M101.265 22.6051C101.265 11.715 92.4368 2.88687 81.5468 2.88687C70.6567 2.88687 61.8286 11.715 61.8286 22.6051C61.8286 33.4951 70.6567 42.3232 81.5468 42.3232C92.4369 42.3232 101.265 33.4951 101.265 22.6051Z" stroke="#DFD4CF" stroke-opacity="0.05" stroke-width="0.5" stroke-linecap="round" stroke-linejoin="round"/>
<path d="M65.8657 17.5752L65.8657 27.6288C65.8657 30.5402 68.2259 32.9004 71.1373 32.9004L91.9621 32.9004C94.8736 32.9004 97.2337 30.5402 97.2337 27.6288L97.2337 17.5752C97.2337 14.6638 94.8736 12.3036 91.9621 12.3036L71.1373 12.3036C68.2259 12.3036 65.8657 14.6638 65.8657 17.5752Z" stroke="#DFD4CF" stroke-opacity="0.05" stroke-width="0.5" stroke-linecap="round" stroke-linejoin="round"/>
<path d="M76.5166 38.2861L86.5702 38.2861C89.4816 38.2861 91.8418 35.926 91.8418 33.0145L91.8418 12.1897C91.8418 9.2783 89.4816 6.91812 86.5702 6.91812L76.5166 6.91812C73.6052 6.91812 71.245 9.2783 71.245 12.1897L71.245 33.0145C71.245 35.926 73.6052 38.2861 76.5166 38.2861Z" stroke="#DFD4CF" stroke-opacity="0.05" stroke-width="0.5" stroke-linecap="round" stroke-linejoin="round"/>
<path d="M46.792 20.2588C48.2943 20.6344 51.6344 21.2246 54.8872 19.5412C55.3768 19.2863 56.0139 18.904 56.7047 18.3272C59.8704 15.6646 59.5015 12.6532 62.03 8.58214C62.4257 7.94498 63.4586 6.36215 65.1688 4.77933C69.649 0.61437 74.1895 0.668033 77.429 -3.30243C77.9521 -3.93958 78.5423 -4.81148 78.8575 -6.01201C79.3337 -7.84299 78.8911 -9.46604 78.5691 -10.3379" stroke="#DFD4CF" stroke-opacity="0.05" stroke-width="0.5" stroke-linecap="round" stroke-linejoin="round"/>
<path d="M76.4493 -7.79623C76.5432 -7.27309 76.5163 -6.87066 76.4895 -6.64934C75.9396 -1.7332 66.3152 -1.69296 61.2046 5.44314C59.8163 7.38143 58.9377 9.10509 58.9377 9.10509C57.3012 12.3244 57.4219 13.7529 55.9866 15.4498C55.2489 16.315 53.988 17.4015 51.7144 18.0923" stroke="#DFD4CF" stroke-opacity="0.05" stroke-width="0.5" stroke-linecap="round" stroke-linejoin="round"/>
<path d="M61.2923 1.39855C61.2923 0.372517 60.4605 -0.459263 59.4345 -0.459263C58.4084 -0.459263 57.5767 0.372517 57.5767 1.39855C57.5767 2.42459 58.4084 3.25635 59.4345 3.25635C60.4605 3.25635 61.2923 2.42459 61.2923 1.39855Z" fill="#DFD4CF" fill-opacity="0.05"/>
<path d="M60.3399 6.72407C59.9308 7.39475 59.2735 8.35385 58.2943 9.33976C57.0737 10.5738 56.3292 11.3183 55.2829 11.2713C54.344 11.2311 53.3514 10.5604 52.9691 9.52755C52.5935 8.52152 52.8551 7.33439 53.6331 6.64359C53.7739 6.51616 54.6056 5.78512 55.5646 6.10705C56.2152 6.32166 56.8188 6.97894 56.7719 7.78376C56.7182 8.6959 55.8664 9.15195 55.8195 9.17878" stroke="#DFD4CF" stroke-opacity="0.05" stroke-width="0.5" stroke-linecap="round" stroke-linejoin="round"/>
<path d="M53.5789 13.9547C53.5789 13.0694 52.8613 12.3517 51.976 12.3517C51.0907 12.3517 50.373 13.0694 50.373 13.9547C50.373 14.84 51.0907 15.5576 51.976 15.5576C52.8613 15.5576 53.5789 14.84 53.5789 13.9547Z" fill="#DFD4CF" fill-opacity="0.05"/>
<path d="M116.041 24.9526C114.538 24.577 111.198 23.9868 107.945 25.6702C107.456 25.9251 106.819 26.3074 106.128 26.8842C102.962 29.5468 103.331 32.5582 100.803 36.6292C100.407 37.2664 99.374 38.8492 97.6638 40.432C93.1836 44.597 88.6431 44.5434 85.4036 48.5138C84.8805 49.151 84.2903 50.0228 83.9751 51.2234C83.4989 53.0544 83.9415 54.6774 84.2635 55.5493" stroke="#DFD4CF" stroke-opacity="0.05" stroke-width="0.5" stroke-linecap="round" stroke-linejoin="round"/>
<path d="M86.3893 53.0073C86.2954 52.4842 86.3222 52.0818 86.349 51.8605C86.899 46.9443 96.5233 46.9041 101.634 39.768C103.022 37.8297 103.901 36.106 103.901 36.106C105.537 32.8867 105.417 31.4582 106.852 29.7613C107.59 28.8961 108.851 27.8096 111.124 27.1188" stroke="#DFD4CF" stroke-opacity="0.05" stroke-width="0.5" stroke-linecap="round" stroke-linejoin="round"/>
<path d="M105.262 43.8116C105.262 42.7856 104.431 41.9538 103.405 41.9538C102.379 41.9538 101.547 42.7856 101.547 43.8116C101.547 44.8377 102.379 45.6694 103.405 45.6694C104.431 45.6694 105.262 44.8377 105.262 43.8116Z" fill="#DFD4CF" fill-opacity="0.05"/>
<path d="M102.5 38.4869C102.909 37.8162 103.566 36.8571 104.545 35.8712C105.766 34.6371 106.51 33.8927 107.556 33.9396C108.495 33.9798 109.488 34.6505 109.87 35.6834C110.246 36.6894 109.984 37.8765 109.206 38.5673C109.066 38.6948 108.234 39.4258 107.275 39.1039C106.624 38.8893 106.021 38.232 106.068 37.4272C106.121 36.515 106.973 36.059 107.02 36.0321" stroke="#DFD4CF" stroke-opacity="0.05" stroke-width="0.5" stroke-linecap="round" stroke-linejoin="round"/>
<path d="M112.466 31.2569C112.466 30.3717 111.748 29.654 110.863 29.654C109.977 29.654 109.26 30.3717 109.26 31.2569C109.26 32.1422 109.977 32.8599 110.863 32.8599C111.748 32.8599 112.466 32.1422 112.466 31.2569Z" fill="#DFD4CF" fill-opacity="0.05"/>
<path d="M116.041 20.2588C114.538 20.6344 111.198 21.2246 107.945 19.5412C107.456 19.2863 106.819 18.904 106.128 18.3272C102.962 15.6646 103.331 12.6532 100.803 8.58214C100.407 7.94498 99.374 6.36215 97.6638 4.77933C93.1836 0.61437 88.6431 0.668034 85.4036 -3.30243C84.8805 -3.93958 84.2903 -4.81148 83.9751 -6.01201C83.4989 -7.84299 83.9415 -9.46604 84.2635 -10.3379" stroke="#DFD4CF" stroke-opacity="0.05" stroke-width="0.5" stroke-linecap="round" stroke-linejoin="round"/>
<path d="M86.3893 -7.79622C86.2954 -7.27309 86.3222 -6.87066 86.349 -6.64934C86.899 -1.7332 96.5233 -1.69296 101.634 5.44314C103.022 7.38143 103.901 9.10509 103.901 9.10509C105.537 12.3244 105.417 13.7529 106.852 15.4498C107.59 16.315 108.851 17.4015 111.124 18.0923" stroke="#DFD4CF" stroke-opacity="0.05" stroke-width="0.5" stroke-linecap="round" stroke-linejoin="round"/>
<path d="M105.262 1.39855C105.262 0.372517 104.431 -0.459263 103.405 -0.459263C102.379 -0.459263 101.547 0.372517 101.547 1.39855C101.547 2.42459 102.379 3.25635 103.405 3.25635C104.431 3.25635 105.262 2.42459 105.262 1.39855Z" fill="#DFD4CF" fill-opacity="0.05"/>
<path d="M102.5 6.72407C102.909 7.39475 103.566 8.35385 104.545 9.33976C105.766 10.5738 106.51 11.3183 107.556 11.2713C108.495 11.2311 109.488 10.5604 109.87 9.52755C110.246 8.52152 109.984 7.33439 109.206 6.64359C109.066 6.51616 108.234 5.78512 107.275 6.10705C106.624 6.32166 106.021 6.97894 106.068 7.78376C106.121 8.6959 106.973 9.15195 107.02 9.17878" stroke="#DFD4CF" stroke-opacity="0.05" stroke-width="0.5" stroke-linecap="round" stroke-linejoin="round"/>
<path d="M112.466 13.9547C112.466 13.0694 111.748 12.3517 110.863 12.3517C109.977 12.3517 109.26 13.0694 109.26 13.9547C109.26 14.84 109.977 15.5576 110.863 15.5576C111.748 15.5576 112.466 14.84 112.466 13.9547Z" fill="#DFD4CF" fill-opacity="0.05"/>
<path d="M72.1439 22.3708C71.8757 22.9878 71.1513 24.8859 71.7482 27.1863C71.8891 27.743 72.6738 30.4928 75.437 31.8342C78.3075 33.2292 81.0708 32.0019 81.5201 31.8007C84.6388 30.352 86.5235 26.5425 86.1076 22.297" stroke="#DFD4CF" stroke-opacity="0.05" stroke-width="0.5" stroke-linecap="round" stroke-linejoin="round"/>
<path d="M76.6916 22.5726C76.6111 23.2902 76.5507 24.3231 76.705 25.5504C76.8056 26.3619 76.9196 27.2607 77.3757 28.2466C78.1604 29.9367 79.4816 30.8421 80.0115 31.1976C80.548 31.5531 82.7076 32.9481 85.5714 32.5054C86.0409 32.4317 87.6372 32.1634 89.0054 31.0299C91.2119 29.1922 91.9698 25.7717 91.0375 22.3311" stroke="#DFD4CF" stroke-opacity="0.05" stroke-width="0.5" stroke-linecap="round" stroke-linejoin="round"/>
<path d="M72.1445 22.3714C72.453 23.1091 73.7743 26.0668 77.1546 27.6966C81.0714 29.5812 84.7199 28.213 85.3235 27.9716C89.2873 26.4089 90.7896 22.9549 91.0445 22.3378" stroke="#DFD4CF" stroke-opacity="0.05" stroke-width="0.5" stroke-linecap="round" stroke-linejoin="round"/>
<path d="M76.6919 22.5723C76.9803 23.0619 78.1204 24.8593 80.3203 25.4093C80.6691 25.4965 81.5007 25.691 82.5067 25.4697C84.8676 24.9532 85.9474 22.6327 86.1016 22.2839" stroke="#DFD4CF" stroke-opacity="0.05" stroke-width="0.5" stroke-linecap="round" stroke-linejoin="round"/>
<path d="M72.1376 22.7475C71.8693 22.1305 71.145 20.2325 71.7419 17.932C71.8827 17.3753 72.6674 14.6255 75.4307 13.2841C78.3012 11.8891 81.0644 13.1165 81.5138 13.3177C84.6325 14.7664 86.5171 18.5758 86.1013 22.8213" stroke="#DFD4CF" stroke-opacity="0.05" stroke-width="0.5" stroke-linecap="round" stroke-linejoin="round"/>
<path d="M76.6847 22.5388C76.6042 21.8212 76.5439 20.7883 76.6981 19.561C76.7987 18.7495 76.9128 17.8507 77.3688 16.8648C78.1535 15.1747 79.4748 14.2693 80.0046 13.9138C80.5412 13.5583 82.7008 12.1633 85.5646 12.606C86.0341 12.6797 87.6303 12.948 88.9985 14.0815C91.2051 15.9191 91.963 19.3396 91.0307 22.7803" stroke="#DFD4CF" stroke-opacity="0.05" stroke-width="0.5" stroke-linecap="round" stroke-linejoin="round"/>
<path d="M72.1377 22.7467C72.4462 22.009 73.7675 19.0513 77.1477 17.4215C81.0645 15.5369 84.7131 16.9051 85.3167 17.1465C89.2805 18.7092 90.7828 22.1632 91.0377 22.7803" stroke="#DFD4CF" stroke-opacity="0.05" stroke-width="0.5" stroke-linecap="round" stroke-linejoin="round"/>
<path d="M76.6851 22.5392C76.9735 22.0496 78.1136 20.2522 80.3135 19.7022C80.6622 19.615 81.4939 19.4205 82.4999 19.6419C84.8607 20.1583 85.9405 22.4789 86.0948 22.8276" stroke="#DFD4CF" stroke-opacity="0.05" stroke-width="0.5" stroke-linecap="round" stroke-linejoin="round"/>
<path d="M43.7128 45.8109C41.8617 47.5882 36.5164 52.2092 28.5754 52.8195C18.1194 53.6244 8.65605 47.2931 4.43072 39.5131C4.41731 39.4863 4.4039 39.4662 4.39048 39.4394C2.87473 36.6225 2.15039 33.4501 2.15039 30.2576L2.15039 22.5917" stroke="#DFD4CF" stroke-opacity="0.05" stroke-width="0.5" stroke-linecap="round" stroke-linejoin="round"/>
<path d="M39.508 22.6254C37.3417 23.9466 36.0271 25.6233 36.3491 26.9177C36.396 27.1055 36.4832 27.3134 36.6307 27.5146" stroke="#DFD4CF" stroke-opacity="0.05" stroke-width="0.5" stroke-linecap="round" stroke-linejoin="round"/>
<path d="M39.2258 30.5189C39.2258 28.841 37.8656 27.4807 36.1876 27.4807C34.5097 27.4807 33.1494 28.841 33.1494 30.5189C33.1494 32.1969 34.5097 33.5571 36.1876 33.5571C37.8656 33.5571 39.2258 32.1969 39.2258 30.5189Z" stroke="#DFD4CF" stroke-opacity="0.05" stroke-width="0.5" stroke-linecap="round" stroke-linejoin="round"/>
<path d="M37.3884 30.5192C37.3884 29.8562 36.8509 29.3187 36.1878 29.3187C35.5248 29.3187 34.9873 29.8562 34.9873 30.5192C34.9873 31.1822 35.5248 31.7197 36.1878 31.7197C36.8509 31.7197 37.3884 31.1822 37.3884 30.5192Z" fill="#DFD4CF" fill-opacity="0.05"/>
<path d="M36.644 33.5234C36.5098 33.6844 36.3422 33.9392 36.2349 34.2813C36.0135 34.9989 36.2349 35.6227 36.3288 35.8306" stroke="#DFD4CF" stroke-opacity="0.05" stroke-width="0.5" stroke-linecap="round" stroke-linejoin="round"/>
<path d="M38.4141 35.2813C38.736 36.3812 39.3933 39.1712 38.4141 42.5045C37.3946 45.972 35.2015 48.0042 34.3296 48.7285" stroke="#DFD4CF" stroke-opacity="0.05" stroke-width="0.5" stroke-linecap="round" stroke-linejoin="round"/>
<path d="M41.6941 42.4105C41.6941 41.9512 41.3217 41.5789 40.8624 41.5789C40.4031 41.5789 40.0308 41.9512 40.0308 42.4105C40.0308 42.8699 40.4031 43.2422 40.8624 43.2422C41.3217 43.2422 41.6941 42.8699 41.6941 42.4105Z" fill="#DFD4CF" fill-opacity="0.05"/>
<path d="M19.789 51.8467C19.1585 51.5315 17.019 50.3645 16.1673 47.8762C15.9124 47.1317 15.235 45.2002 16.3081 43.6308C16.8581 42.8327 18.0251 41.887 19.3195 42.1418C20.8487 42.4437 21.9218 44.2947 21.5059 45.2807C21.298 45.777 20.634 46.2196 20.2048 46.0251C19.8426 45.8574 19.6481 45.2203 19.8695 44.5027C19.6615 44.5697 19.3866 44.7039 19.1854 44.9654C18.6689 45.6361 18.9372 46.7562 19.4737 47.3397C20.2853 48.225 21.9486 48.1378 22.8942 47.4671C24.4033 46.394 24.3094 43.6978 23.4308 41.9876C22.304 39.7877 19.7554 38.9762 17.8507 39.0097C14.6716 39.0634 12.8272 41.4779 12.5925 41.7998C10.7146 44.3484 11.345 47.1854 11.4389 47.5811" stroke="#DFD4CF" stroke-opacity="0.05" stroke-width="0.5" stroke-linecap="round" stroke-linejoin="round"/>
<path d="M1.34558 47.8159C0.809031 45.5691 0.265775 43.3223 -0.270775 41.0822C-0.753669 39.0769 -0.995118 37.0179 -0.995118 34.9522L-0.995118 22.7591" stroke="#DFD4CF" stroke-opacity="0.05" stroke-width="0.5" stroke-linecap="round" stroke-linejoin="round"/>
<path d="M3.51193 46.1997C3.10951 45.7369 1.13099 43.4029 0.111544 40.747C-0.445126 39.2983 -0.753643 37.6954 -0.753643 37.6954C-0.860952 37.1589 -0.921314 36.7028 -0.968262 36.3607" stroke="#DFD4CF" stroke-opacity="0.05" stroke-width="0.5" stroke-linecap="round" stroke-linejoin="round"/>
<path d="M34.0684 22.585C34.1891 22.7326 34.3903 22.9405 34.6854 23.1081C35.1482 23.3697 35.5975 23.3965 35.8121 23.3965C35.6579 23.4837 35.3896 23.6648 35.1951 24.0001C34.8195 24.6373 35.0274 25.3147 35.0677 25.4287C35.3427 24.9458 35.7384 24.3489 36.3017 23.752C36.7645 23.2557 37.2206 22.8801 37.6163 22.5984L34.0684 22.5984L34.0684 22.585Z" fill="#DFD4CF" fill-opacity="0.05"/>
<path d="M26.4492 35.3276C27.5223 34.5765 29.2259 33.1747 30.5672 30.8944C32.6195 27.4001 32.5726 23.9863 32.472 22.6181" stroke="#DFD4CF" stroke-opacity="0.05" stroke-width="0.5" stroke-linecap="round" stroke-linejoin="round"/>
<path d="M23.7266 33.4766C24.6521 32.8394 26.6709 31.27 27.9586 28.4397C29.0988 25.938 29.1055 23.6845 29.0317 22.5712" stroke="#DFD4CF" stroke-opacity="0.05" stroke-width="0.5" stroke-linecap="round" stroke-linejoin="round"/>
<path d="M3.38428 22.5113C4.98051 23.9197 5.93959 25.2678 6.52309 26.2336C7.48888 27.8298 7.67667 28.8224 9.02475 30.3181C10.2186 31.646 11.1307 32.0484 11.4929 32.196C12.6398 32.6453 13.6927 32.6118 14.2829 32.538" stroke="#DFD4CF" stroke-opacity="0.05" stroke-width="0.5" stroke-linecap="round" stroke-linejoin="round"/>
<path d="M14.7388 22.5246C13.545 23.1685 12.881 24.4495 13.0755 25.7037C13.317 27.2462 14.7321 27.9303 14.8529 27.984C14.712 28.5541 14.4035 30.1771 15.1681 31.9478C15.2217 32.0752 16.4893 34.8719 19.5611 35.5426C19.9568 35.6298 22.9615 36.2871 24.5845 34.3555C25.2887 33.5172 25.443 32.5447 25.4765 32.0215C25.0607 32.2496 23.4175 33.0812 21.3786 32.5782C21.0433 32.4977 18.763 31.8941 17.7636 29.7278C17.4015 28.9498 17.3277 28.2255 17.321 27.7627" stroke="#DFD4CF" stroke-opacity="0.05" stroke-width="0.5" stroke-linecap="round" stroke-linejoin="round"/>
<path d="M17.3281 27.756C18.0458 28.0243 19.7963 28.5608 21.8754 28.0109C24.6319 27.2798 26.0336 25.1336 26.436 24.4965C26.8787 23.799 27.1336 23.1551 27.2945 22.6923" stroke="#DFD4CF" stroke-opacity="0.05" stroke-width="0.5" stroke-linecap="round" stroke-linejoin="round"/>
<path d="M14.8527 27.9771C14.1284 27.749 12.9949 27.3399 11.6871 26.6491C10.5402 26.0455 9.93658 25.5894 8.45437 24.6505C7.65625 24.1474 6.46913 23.4164 4.9668 22.578" stroke="#DFD4CF" stroke-opacity="0.05" stroke-width="0.5" stroke-linecap="round" stroke-linejoin="round"/>
<path d="M25.0543 22.6588C24.9268 22.907 24.5714 23.524 23.8202 23.9264C23.2769 24.2215 22.7672 24.2685 22.4922 24.2752C22.5191 25.1001 22.1569 25.8312 21.5399 26.1732C20.9698 26.4884 20.3796 26.3543 20.1918 26.3141C19.1254 26.0726 18.5754 25.0733 18.3005 24.5837C18.0992 24.2215 17.8108 23.5777 17.7505 22.6857" stroke="#DFD4CF" stroke-opacity="0.05" stroke-width="0.5" stroke-linecap="round" stroke-linejoin="round"/>
<path d="M22.4922 24.275C21.6471 23.6915 20.8021 23.1147 19.957 22.5312C19.4071 23.2153 18.8571 23.8994 18.3071 24.5835" stroke="#DFD4CF" stroke-opacity="0.05" stroke-width="0.5" stroke-linecap="round" stroke-linejoin="round"/>
<path d="M9.60859 37.3197C9.60859 36.79 9.1792 36.3606 8.64951 36.3606C8.11983 36.3606 7.69043 36.79 7.69043 37.3197C7.69043 37.8494 8.11983 38.2788 8.64951 38.2788C9.1792 38.2788 9.60859 37.8494 9.60859 37.3197Z" fill="#DFD4CF" fill-opacity="0.05"/>
<path d="M7.14653 34.3288C7.14653 33.5658 6.52796 32.9472 5.76492 32.9472C5.00187 32.9472 4.3833 33.5658 4.3833 34.3288C4.3833 35.0919 5.00187 35.7104 5.76492 35.7104C6.52796 35.7104 7.14653 35.0919 7.14653 34.3288Z" fill="#DFD4CF" fill-opacity="0.05"/>
<path d="M43.7128 -0.600521C41.8617 -2.37784 36.5164 -6.99888 28.5754 -7.6092C18.1194 -8.41403 8.65605 -2.08275 4.43072 5.69722C4.41731 5.72405 4.4039 5.74418 4.39048 5.77101C2.87473 8.58789 2.15039 11.7602 2.15039 14.9527L2.15039 22.6187" stroke="#DFD4CF" stroke-opacity="0.05" stroke-width="0.5" stroke-linecap="round" stroke-linejoin="round"/>
<path d="M39.5544 22.5845C37.3881 21.2632 36.0735 19.5865 36.3954 18.2921C36.4424 18.1043 36.5296 17.8964 36.6771 17.6952" stroke="#DFD4CF" stroke-opacity="0.05" stroke-width="0.5" stroke-linecap="round" stroke-linejoin="round"/>
<path d="M39.2795 14.6913C39.2795 13.0133 37.9193 11.6531 36.2413 11.6531C34.5634 11.6531 33.2031 13.0133 33.2031 14.6913C33.2031 16.3692 34.5634 17.7295 36.2413 17.7295C37.9193 17.7295 39.2795 16.3692 39.2795 14.6913Z" stroke="#DFD4CF" stroke-opacity="0.05" stroke-width="0.5" stroke-linecap="round" stroke-linejoin="round"/>
<path d="M37.4421 14.6911C37.4421 14.028 36.9046 13.4906 36.2415 13.4906C35.5785 13.4906 35.041 14.028 35.041 14.6911C35.041 15.3541 35.5785 15.8916 36.2415 15.8916C36.9046 15.8916 37.4421 15.3541 37.4421 14.6911Z" fill="#DFD4CF" fill-opacity="0.05"/>
<path d="M36.6977 11.686C36.5635 11.5251 36.3959 11.2702 36.2886 10.9282C36.0672 10.2105 36.2886 9.58678 36.3825 9.37887" stroke="#DFD4CF" stroke-opacity="0.05" stroke-width="0.5" stroke-linecap="round" stroke-linejoin="round"/>
<path d="M38.4614 9.92871C38.7834 8.82878 39.4406 6.03871 38.4614 2.7054C37.442 -0.762049 35.2488 -2.79423 34.377 -3.51857" stroke="#DFD4CF" stroke-opacity="0.05" stroke-width="0.5" stroke-linecap="round" stroke-linejoin="round"/>
<path d="M41.7478 2.7997C41.7478 2.34039 41.3754 1.96804 40.9161 1.96804C40.4568 1.96804 40.0845 2.34039 40.0845 2.7997C40.0845 3.25901 40.4568 3.63135 40.9161 3.63135C41.3754 3.63135 41.7478 3.25901 41.7478 2.7997Z" fill="#DFD4CF" fill-opacity="0.05"/>
<path d="M19.8427 -6.63676C19.2122 -6.32153 17.0727 -5.15455 16.221 -2.6663C15.9661 -1.92184 15.2887 0.00975 16.3618 1.57916C16.9118 2.37727 18.0788 3.32294 19.3732 3.06808C20.9024 2.76627 21.9755 0.915182 21.5596 -0.070727C21.3517 -0.567035 20.6877 -1.0097 20.2585 -0.8152C19.8963 -0.647528 19.7018 -0.0103627 19.9232 0.707272C19.7153 0.640203 19.4403 0.506064 19.2391 0.244497C18.7226 -0.42619 18.9909 -1.54624 19.5275 -2.12974C20.339 -3.01505 22.0023 -2.92786 22.948 -2.25717C24.457 -1.18407 24.3631 1.5188 23.4845 3.22235C22.3578 5.4222 19.8091 6.23371 17.9044 6.20018C14.7253 6.14652 12.881 3.73207 12.6462 3.41014C10.7683 0.86153 11.3987 -1.97549 11.4926 -2.3712" stroke="#DFD4CF" stroke-opacity="0.05" stroke-width="0.5" stroke-linecap="round" stroke-linejoin="round"/>
<path d="M1.34558 -2.60622C0.80903 -0.359421 0.265774 1.88736 -0.270775 4.12746C-0.75367 6.13281 -0.995118 8.19183 -0.995118 10.2575L-0.995117 23.564" stroke="#DFD4CF" stroke-opacity="0.05" stroke-width="0.5" stroke-linecap="round" stroke-linejoin="round"/>
<path d="M3.51193 -0.99035C3.10951 -0.527576 1.13099 1.80642 0.111544 4.46234C-0.445126 5.91102 -0.753642 7.51397 -0.753642 7.51397C-0.860952 8.05052 -0.921314 8.50658 -0.968262 8.84863" stroke="#DFD4CF" stroke-opacity="0.05" stroke-width="0.5" stroke-linecap="round" stroke-linejoin="round"/>
<path d="M34.0684 22.5845C34.1891 22.4369 34.3903 22.229 34.6854 22.0613C35.1482 21.7998 35.5975 21.7729 35.8121 21.7729C35.6579 21.6857 35.3896 21.5047 35.1951 21.1693C34.8195 20.5322 35.0274 19.8548 35.0677 19.7407C35.3427 20.2236 35.7384 20.8206 36.3017 21.4175C36.7645 21.9138 37.2206 22.2894 37.6163 22.571L34.0684 22.571L34.0684 22.5845Z" fill="#DFD4CF" fill-opacity="0.05"/>
<path d="M26.5029 9.87499C27.576 10.6195 29.2796 12.0145 30.6209 14.3082C32.6732 17.8226 32.5861 21.2565 32.472 22.6113" stroke="#DFD4CF" stroke-opacity="0.05" stroke-width="0.5" stroke-linecap="round" stroke-linejoin="round"/>
<path d="M23.7803 11.7335C24.6924 12.3572 26.7313 13.9266 28.0123 16.7703C29.1189 19.2452 29.1122 21.4719 29.0318 22.5718" stroke="#DFD4CF" stroke-opacity="0.05" stroke-width="0.5" stroke-linecap="round" stroke-linejoin="round"/>
<path d="M3.38428 22.5112C5.01405 21.2034 5.98654 19.9157 6.57674 18.97C7.56936 17.3805 7.71021 16.408 9.07841 14.8855C10.2856 13.5442 11.2179 13.1417 11.5465 13.0076C12.6934 12.5583 13.7464 12.5918 14.3366 12.6656" stroke="#DFD4CF" stroke-opacity="0.05" stroke-width="0.5" stroke-linecap="round" stroke-linejoin="round"/>
<path d="M14.739 22.5244C13.6056 21.9275 12.9617 20.7135 13.1294 19.513C13.344 17.9369 14.8262 17.2662 14.9067 17.2327C14.7659 16.6626 14.4573 15.0395 15.2219 13.2689C15.2756 13.1415 16.5432 10.3447 19.6149 9.67405C20.0106 9.58687 23.0153 8.92959 24.6384 10.8612C25.3426 11.6995 25.4968 12.672 25.5304 13.1952C25.1145 12.9671 23.4714 12.1355 21.4325 12.6385C21.0971 12.719 18.8168 13.3226 17.8175 15.4889C17.4553 16.2669 17.3815 16.9912 17.3748 17.454" stroke="#DFD4CF" stroke-opacity="0.05" stroke-width="0.5" stroke-linecap="round" stroke-linejoin="round"/>
<path d="M17.3818 17.4544C18.0995 17.1861 19.85 16.6496 21.9291 17.1995C24.6856 17.9306 26.0873 20.0768 26.4898 20.7139C26.9324 21.4114 27.1873 22.0553 27.3482 22.5181" stroke="#DFD4CF" stroke-opacity="0.05" stroke-width="0.5" stroke-linecap="round" stroke-linejoin="round"/>
<path d="M14.9064 17.2328C14.182 17.4608 13.0486 17.8699 11.7407 18.5607C10.5402 19.1912 9.95 19.6606 8.50802 20.5594C7.7099 21.0624 6.50938 21.78 4.9668 22.5781" stroke="#DFD4CF" stroke-opacity="0.05" stroke-width="0.5" stroke-linecap="round" stroke-linejoin="round"/>
<path d="M25.1079 22.5514C24.9805 22.3032 24.625 21.6862 23.8739 21.2838C23.3306 20.9887 22.8209 20.9418 22.5459 20.935C22.5727 20.1101 22.2106 19.3791 21.5935 19.037C21.0234 18.7218 20.4332 18.8559 20.2454 18.8962C19.1992 19.1309 18.6559 20.1034 18.3541 20.6265C18.1462 21.0021 17.8176 21.6996 17.7505 22.6855" stroke="#DFD4CF" stroke-opacity="0.05" stroke-width="0.5" stroke-linecap="round" stroke-linejoin="round"/>
<path d="M22.5391 20.9354C21.694 21.5189 20.849 22.0957 20.0039 22.6792C19.4539 21.9951 18.904 21.311 18.354 20.6269" stroke="#DFD4CF" stroke-opacity="0.05" stroke-width="0.5" stroke-linecap="round" stroke-linejoin="round"/>
<path d="M9.66231 7.89004C9.66231 7.36036 9.23291 6.93097 8.70322 6.93097C8.17354 6.93097 7.74414 7.36036 7.74414 7.89004C7.74414 8.41973 8.17354 8.84912 8.70322 8.84912C9.23291 8.84912 9.66231 8.41973 9.66231 7.89004Z" fill="#DFD4CF" fill-opacity="0.05"/>
<path d="M7.1939 10.8816C7.1939 10.1185 6.57532 9.49996 5.81228 9.49996C5.04923 9.49996 4.43066 10.1185 4.43066 10.8816C4.43066 11.6446 5.04923 12.2632 5.81228 12.2632C6.57532 12.2632 7.1939 11.6446 7.1939 10.8816Z" fill="#DFD4CF" fill-opacity="0.05"/>
<path d="M119.292 -0.600519C121.143 -2.37784 126.488 -6.99888 134.429 -7.6092C144.885 -8.41403 154.349 -2.08275 158.574 5.69722C158.588 5.72404 158.601 5.74418 158.614 5.771C160.13 8.58789 160.854 11.7602 160.854 14.9527L160.854 22.6187" stroke="#DFD4CF" stroke-opacity="0.05" stroke-width="0.5" stroke-linecap="round" stroke-linejoin="round"/>
<path d="M123.498 22.5845C125.664 21.2632 126.978 19.5865 126.656 18.2921C126.61 18.1043 126.522 17.8964 126.375 17.6952" stroke="#DFD4CF" stroke-opacity="0.05" stroke-width="0.5" stroke-linecap="round" stroke-linejoin="round"/>
<path d="M129.856 14.6913C129.856 13.0133 128.495 11.6531 126.818 11.6531C125.14 11.6531 123.779 13.0133 123.779 14.6913C123.779 16.3692 125.14 17.7295 126.818 17.7295C128.495 17.7295 129.856 16.3692 129.856 14.6913Z" stroke="#DFD4CF" stroke-opacity="0.05" stroke-width="0.5" stroke-linecap="round" stroke-linejoin="round"/>
<path d="M128.018 14.6911C128.018 14.028 127.481 13.4906 126.818 13.4906C126.155 13.4906 125.617 14.028 125.617 14.6911C125.617 15.3541 126.155 15.8916 126.818 15.8916C127.481 15.8916 128.018 15.3541 128.018 14.6911Z" fill="#DFD4CF" fill-opacity="0.05"/>
<path d="M126.354 11.686C126.489 11.5251 126.656 11.2702 126.764 10.9282C126.985 10.2105 126.764 9.58678 126.67 9.37887" stroke="#DFD4CF" stroke-opacity="0.05" stroke-width="0.5" stroke-linecap="round" stroke-linejoin="round"/>
<path d="M124.591 9.92871C124.269 8.82878 123.611 6.03871 124.591 2.7054C125.61 -0.762049 127.803 -2.79423 128.675 -3.51857" stroke="#DFD4CF" stroke-opacity="0.05" stroke-width="0.5" stroke-linecap="round" stroke-linejoin="round"/>
<path d="M122.968 2.7997C122.968 2.34039 122.595 1.96804 122.136 1.96804C121.677 1.96804 121.304 2.34039 121.304 2.7997C121.304 3.25901 121.677 3.63135 122.136 3.63135C122.595 3.63135 122.968 3.25901 122.968 2.7997Z" fill="#DFD4CF" fill-opacity="0.05"/>
<path d="M143.216 -6.63676C143.846 -6.32153 145.986 -5.15455 146.837 -2.6663C147.092 -1.92184 147.77 0.00974978 146.697 1.57916C146.147 2.37727 144.98 3.32294 143.685 3.06808C142.156 2.76627 141.083 0.915183 141.499 -0.0707267C141.707 -0.567035 142.371 -1.0097 142.8 -0.8152C143.162 -0.647528 143.357 -0.0103625 143.135 0.707272C143.343 0.640204 143.618 0.506065 143.819 0.244497C144.336 -0.42619 144.067 -1.54624 143.531 -2.12974C142.719 -3.01505 141.056 -2.92786 140.11 -2.25717C138.601 -1.18407 138.695 1.5121 139.574 3.22235C140.701 5.4222 143.249 6.23371 145.154 6.20018C148.333 6.14652 150.177 3.73207 150.412 3.41014C152.29 0.861529 151.66 -1.97549 151.566 -2.3712" stroke="#DFD4CF" stroke-opacity="0.05" stroke-width="0.5" stroke-linecap="round" stroke-linejoin="round"/>
<path d="M161.659 -2.60567C162.196 -0.358872 162.739 1.88791 163.276 4.12801C163.758 6.13336 164 8.19238 164 10.2581L164 22.4512" stroke="#DFD4CF" stroke-opacity="0.05" stroke-width="0.5" stroke-linecap="round" stroke-linejoin="round"/>
<path d="M159.487 -0.989861C159.889 -0.527087 161.868 1.80691 162.887 4.46282C163.444 5.91151 163.752 7.51446 163.752 7.51446C163.86 8.05101 163.92 8.50707 163.967 8.84912" stroke="#DFD4CF" stroke-opacity="0.05" stroke-width="0.5" stroke-linecap="round" stroke-linejoin="round"/>
<path d="M128.93 22.6255C128.809 22.4779 128.608 22.27 128.313 22.1024C127.85 21.8408 127.401 21.8139 127.186 21.8139C127.34 21.7268 127.609 21.5457 127.803 21.2103C128.179 20.5732 127.971 19.8958 127.93 19.7818C127.655 20.2647 127.26 20.8616 126.696 21.4585C126.234 21.9548 125.778 22.3304 125.382 22.6121L128.93 22.6121L128.93 22.6255Z" fill="#DFD4CF" fill-opacity="0.05"/>
<path d="M136.549 9.8823C135.476 10.6335 133.772 12.0352 132.431 14.3155C130.379 17.8098 130.426 21.2236 130.526 22.5918" stroke="#DFD4CF" stroke-opacity="0.05" stroke-width="0.5" stroke-linecap="round" stroke-linejoin="round"/>
<path d="M139.279 11.7328C138.353 12.37 136.334 13.9394 135.047 16.7697C133.906 19.2713 133.9 21.5248 133.973 22.6382" stroke="#DFD4CF" stroke-opacity="0.05" stroke-width="0.5" stroke-linecap="round" stroke-linejoin="round"/>
<path d="M159.62 22.6987C158.024 21.2903 157.065 19.9422 156.482 18.9764C155.516 17.3802 155.328 16.3876 153.98 14.8919C152.786 13.564 151.874 13.1616 151.512 13.014C150.365 12.5647 149.312 12.5982 148.722 12.672" stroke="#DFD4CF" stroke-opacity="0.05" stroke-width="0.5" stroke-linecap="round" stroke-linejoin="round"/>
<path d="M148.26 22.6855C149.453 22.0417 150.117 20.7607 149.923 19.5065C149.682 17.9639 148.266 17.2798 148.146 17.2261C148.286 16.6561 148.595 15.033 147.83 13.2624C147.777 13.135 146.509 10.3382 143.437 9.66751C143.042 9.58033 140.037 8.92305 138.414 10.8546C137.71 11.693 137.556 12.6655 137.522 13.1886C137.938 12.9606 139.581 12.1289 141.62 12.632C141.955 12.7124 144.236 13.3161 145.235 15.4824C145.597 16.2604 145.671 16.9847 145.678 17.4475" stroke="#DFD4CF" stroke-opacity="0.05" stroke-width="0.5" stroke-linecap="round" stroke-linejoin="round"/>
<path d="M145.671 17.4544C144.953 17.1861 143.202 16.6496 141.123 17.1995C138.367 17.9306 136.965 20.0768 136.563 20.7139C136.12 21.4114 135.865 22.0553 135.704 22.5181" stroke="#DFD4CF" stroke-opacity="0.05" stroke-width="0.5" stroke-linecap="round" stroke-linejoin="round"/>
<path d="M148.146 17.2328C148.87 17.4608 150.003 17.87 151.311 18.5608C152.458 19.1644 153.062 19.6205 154.544 20.5594C155.342 21.0624 156.529 21.7935 158.031 22.6318" stroke="#DFD4CF" stroke-opacity="0.05" stroke-width="0.5" stroke-linecap="round" stroke-linejoin="round"/>
<path d="M137.944 22.5513C138.072 22.3031 138.427 21.6861 139.178 21.2837C139.722 20.9886 140.231 20.9416 140.506 20.9349C140.48 20.11 140.842 19.3789 141.459 19.0369C142.029 18.7217 142.619 18.8558 142.807 18.896C143.873 19.1375 144.423 20.1368 144.698 20.6264C144.899 20.9886 145.188 21.6324 145.248 22.5245" stroke="#DFD4CF" stroke-opacity="0.05" stroke-width="0.5" stroke-linecap="round" stroke-linejoin="round"/>
<path d="M140.513 20.9354C141.358 21.5189 142.203 22.0957 143.048 22.6792C143.598 21.9951 144.148 21.311 144.698 20.6269" stroke="#DFD4CF" stroke-opacity="0.05" stroke-width="0.5" stroke-linecap="round" stroke-linejoin="round"/>
<path d="M155.309 7.89004C155.309 7.36036 154.879 6.93097 154.35 6.93097C153.82 6.93097 153.391 7.36036 153.391 7.89004C153.391 8.41973 153.82 8.84912 154.35 8.84912C154.879 8.84912 155.309 8.41973 155.309 7.89004Z" fill="#DFD4CF" fill-opacity="0.05"/>
<path d="M158.622 10.8816C158.622 10.1185 158.003 9.49996 157.24 9.49996C156.477 9.49996 155.858 10.1185 155.858 10.8816C155.858 11.6446 156.477 12.2632 157.24 12.2632C158.003 12.2632 158.622 11.6446 158.622 10.8816Z" fill="#DFD4CF" fill-opacity="0.05"/>
<path d="M119.292 45.8109C121.143 47.5882 126.488 52.2092 134.429 52.8195C144.885 53.6244 154.349 47.2931 158.574 39.5131C158.588 39.4863 158.601 39.4662 158.614 39.4393C160.13 36.6225 160.854 33.4501 160.854 30.2576L160.854 22.5917" stroke="#DFD4CF" stroke-opacity="0.05" stroke-width="0.5" stroke-linecap="round" stroke-linejoin="round"/>
<path d="M123.444 22.6254C125.61 23.9466 126.925 25.6233 126.603 26.9177C126.556 27.1055 126.469 27.3134 126.321 27.5146" stroke="#DFD4CF" stroke-opacity="0.05" stroke-width="0.5" stroke-linecap="round" stroke-linejoin="round"/>
<path d="M129.802 30.5189C129.802 28.841 128.442 27.4807 126.764 27.4807C125.086 27.4807 123.726 28.841 123.726 30.5189C123.726 32.1969 125.086 33.5571 126.764 33.5571C128.442 33.5571 129.802 32.1969 129.802 30.5189Z" stroke="#DFD4CF" stroke-opacity="0.05" stroke-width="0.5" stroke-linecap="round" stroke-linejoin="round"/>
<path d="M127.965 30.5192C127.965 29.8562 127.427 29.3187 126.764 29.3187C126.101 29.3187 125.563 29.8562 125.563 30.5192C125.563 31.1822 126.101 31.7197 126.764 31.7197C127.427 31.7197 127.965 31.1822 127.965 30.5192Z" fill="#DFD4CF" fill-opacity="0.05"/>
<path d="M126.301 33.5234C126.435 33.6844 126.603 33.9392 126.71 34.2813C126.931 34.9989 126.71 35.6227 126.616 35.8306" stroke="#DFD4CF" stroke-opacity="0.05" stroke-width="0.5" stroke-linecap="round" stroke-linejoin="round"/>
<path d="M124.537 35.2813C124.215 36.3812 123.558 39.1712 124.537 42.5045C125.556 45.972 127.749 48.0042 128.621 48.7285" stroke="#DFD4CF" stroke-opacity="0.05" stroke-width="0.5" stroke-linecap="round" stroke-linejoin="round"/>
<path d="M122.914 42.4105C122.914 41.9512 122.541 41.5789 122.082 41.5789C121.623 41.5789 121.25 41.9512 121.25 42.4105C121.25 42.8699 121.623 43.2422 122.082 43.2422C122.541 43.2422 122.914 42.8699 122.914 42.4105Z" fill="#DFD4CF" fill-opacity="0.05"/>
<path d="M143.162 51.8467C143.792 51.5315 145.932 50.3645 146.784 47.8762C147.039 47.1317 147.716 45.2002 146.643 43.6308C146.093 42.8327 144.926 41.887 143.631 42.1418C142.102 42.4437 141.029 44.2947 141.445 45.2807C141.653 45.777 142.317 46.2196 142.746 46.0251C143.108 45.8574 143.303 45.2203 143.081 44.5027C143.289 44.5697 143.564 44.7039 143.766 44.9654C144.282 45.6361 144.014 46.7562 143.477 47.3397C142.666 48.225 141.002 48.1378 140.057 47.4671C138.548 46.394 138.642 43.6911 139.52 41.9876C140.647 39.7877 143.195 38.9762 145.1 39.0097C148.279 39.0634 150.124 41.4779 150.358 41.7998C152.236 44.3484 151.606 47.1854 151.512 47.5811" stroke="#DFD4CF" stroke-opacity="0.05" stroke-width="0.5" stroke-linecap="round" stroke-linejoin="round"/>
<path d="M161.659 47.8159C162.196 45.5691 162.739 43.3223 163.276 41.0822C163.758 39.0769 164 37.0179 164 34.9522L164 21.6457" stroke="#DFD4CF" stroke-opacity="0.05" stroke-width="0.5" stroke-linecap="round" stroke-linejoin="round"/>
<path d="M159.486 46.1997C159.889 45.7369 161.867 43.4029 162.887 40.747C163.443 39.2983 163.752 37.6954 163.752 37.6954C163.859 37.1589 163.92 36.7028 163.967 36.3607" stroke="#DFD4CF" stroke-opacity="0.05" stroke-width="0.5" stroke-linecap="round" stroke-linejoin="round"/>
<path d="M128.93 22.6255C128.809 22.7731 128.608 22.981 128.313 23.1487C127.85 23.4102 127.401 23.4371 127.186 23.4371C127.34 23.5242 127.609 23.7053 127.803 24.0407C128.179 24.6778 127.971 25.3552 127.93 25.4692C127.655 24.9863 127.26 24.3894 126.696 23.7925C126.234 23.2962 125.778 22.9206 125.382 22.6389L128.93 22.6389L128.93 22.6255Z" fill="#DFD4CF" fill-opacity="0.05"/>
<path d="M136.496 35.3276C135.422 34.5832 133.719 33.1881 132.377 30.8944C130.325 27.38 130.412 23.9461 130.526 22.5913" stroke="#DFD4CF" stroke-opacity="0.05" stroke-width="0.5" stroke-linecap="round" stroke-linejoin="round"/>
<path d="M139.225 33.4766C138.313 32.8528 136.274 31.2834 134.993 28.4397C133.887 25.9649 133.893 23.7382 133.974 22.6383" stroke="#DFD4CF" stroke-opacity="0.05" stroke-width="0.5" stroke-linecap="round" stroke-linejoin="round"/>
<path d="M159.621 22.6992C157.992 24.007 157.019 25.2948 156.429 26.2404C155.436 27.83 155.295 28.8024 153.927 30.3249C152.72 31.6663 151.788 32.0687 151.459 32.2028C150.312 32.6522 149.259 32.6187 148.669 32.5449" stroke="#DFD4CF" stroke-opacity="0.05" stroke-width="0.5" stroke-linecap="round" stroke-linejoin="round"/>
<path d="M148.26 22.6854C149.393 23.2824 150.037 24.4963 149.869 25.6968C149.655 27.2729 148.172 27.9436 148.092 27.9771C148.233 28.5472 148.541 30.1703 147.777 31.9409C147.723 32.0683 146.455 34.8651 143.384 35.5358C142.988 35.623 139.983 36.2802 138.36 34.3487C137.656 33.5103 137.502 32.5378 137.468 32.0147C137.884 32.2427 139.527 33.0744 141.566 32.5714C141.902 32.4909 144.182 31.8873 145.181 29.7209C145.543 28.9429 145.617 28.2186 145.624 27.7558" stroke="#DFD4CF" stroke-opacity="0.05" stroke-width="0.5" stroke-linecap="round" stroke-linejoin="round"/>
<path d="M145.624 27.756C144.906 28.0243 143.156 28.5608 141.076 28.0109C138.32 27.2798 136.918 25.1336 136.516 24.4965C136.073 23.799 135.818 23.1551 135.657 22.6923" stroke="#DFD4CF" stroke-opacity="0.05" stroke-width="0.5" stroke-linecap="round" stroke-linejoin="round"/>
<path d="M148.092 27.9771C148.816 27.749 149.95 27.3399 151.257 26.6491C152.458 26.0187 153.048 25.5492 154.49 24.6505C155.288 24.1474 156.489 23.4298 158.031 22.6317" stroke="#DFD4CF" stroke-opacity="0.05" stroke-width="0.5" stroke-linecap="round" stroke-linejoin="round"/>
<path d="M137.891 22.6588C138.018 22.907 138.374 23.524 139.125 23.9264C139.668 24.2215 140.178 24.2685 140.453 24.2752C140.426 25.1001 140.788 25.8312 141.405 26.1732C141.975 26.4884 142.565 26.3543 142.753 26.3141C143.799 26.0793 144.343 25.1068 144.644 24.5837C144.852 24.2081 145.181 23.5106 145.248 22.5247" stroke="#DFD4CF" stroke-opacity="0.05" stroke-width="0.5" stroke-linecap="round" stroke-linejoin="round"/>
<path d="M140.459 24.275C141.305 23.6915 142.15 23.1147 142.995 22.5312C143.545 23.2153 144.095 23.8994 144.645 24.5835" stroke="#DFD4CF" stroke-opacity="0.05" stroke-width="0.5" stroke-linecap="round" stroke-linejoin="round"/>
<path d="M155.255 37.3197C155.255 36.79 154.826 36.3606 154.296 36.3606C153.766 36.3606 153.337 36.79 153.337 37.3197C153.337 37.8494 153.766 38.2788 154.296 38.2788C154.826 38.2788 155.255 37.8494 155.255 37.3197Z" fill="#DFD4CF" fill-opacity="0.05"/>
<path d="M158.568 34.3288C158.568 33.5658 157.949 32.9472 157.186 32.9472C156.423 32.9472 155.805 33.5658 155.805 34.3288C155.805 35.0919 156.423 35.7104 157.186 35.7104C157.949 35.7104 158.568 35.0919 158.568 34.3288Z" fill="#DFD4CF" fill-opacity="0.05"/>
</g>
<defs>
<linearGradient id="paint0_linear_238_10955" x1="82" y1="0" x2="82" y2="44" gradientUnits="userSpaceOnUse">
<stop stop-color="#4F1515"/>
<stop offset="1" stop-color="#380C0C"/>
</linearGradient>
<clipPath id="clip0_238_10955">
<rect width="164" height="44" rx="1" fill="white"/>
</clipPath>
</defs>
</svg>
