<svg width="66" height="66" viewBox="0 0 66 66" fill="none" xmlns="http://www.w3.org/2000/svg">
<rect x="0.5" y="0.5" width="65" height="65" rx="32.5" fill="url(#paint0_linear_74_14540)"/>
<rect x="0.5" y="0.5" width="65" height="65" rx="32.5" stroke="black"/>
<g clip-path="url(#clip0_74_14540)">
<rect x="1" y="1" width="64" height="64" rx="32" fill="white"/>
<path d="M33.0457 63.9336C50.1044 63.9336 63.9332 50.0842 63.9332 33.0002C63.9332 15.9162 50.1044 2.06689 33.0457 2.06689C15.9869 2.06689 2.15808 15.9162 2.15808 33.0002C2.15808 50.0842 15.9869 63.9336 33.0457 63.9336Z" fill="url(#paint1_linear_74_14540)"/>
<path d="M33.0457 63.9336C50.1044 63.9336 63.9332 50.0842 63.9332 33.0002C63.9332 15.9162 50.1044 2.06689 33.0457 2.06689C15.9869 2.06689 2.15808 15.9162 2.15808 33.0002C2.15808 50.0842 15.9869 63.9336 33.0457 63.9336Z" fill="#8E7F83"/>
<path d="M33.0457 63.9336C50.1044 63.9336 63.9332 50.0842 63.9332 33.0002C63.9332 15.9162 50.1044 2.06689 33.0457 2.06689C15.9869 2.06689 2.15808 15.9162 2.15808 33.0002C2.15808 50.0842 15.9869 63.9336 33.0457 63.9336Z" stroke="black" stroke-width="1.06667" stroke-linecap="round" stroke-linejoin="round"/>
<path d="M32.9542 63.9336C50.013 63.9336 63.8418 50.0842 63.8418 33.0002C63.8418 15.9162 50.013 2.06689 32.9542 2.06689C15.8955 2.06689 2.06665 15.9162 2.06665 33.0002C2.06665 50.0842 15.8955 63.9336 32.9542 63.9336Z" stroke="#959387" stroke-width="0.394667" stroke-linecap="round" stroke-linejoin="round"/>
<path d="M61.9889 33.0008C61.9203 34.9255 60.6161 37.2627 58.8544 37.3544C58.0536 37.4002 57.3672 36.9419 56.9554 36.5753C56.6808 36.4607 55.6741 36.117 54.4844 36.5066C53.226 36.919 52.6311 37.8814 52.4939 38.1105C50.6635 45.2137 45.1266 50.8275 38.0568 52.7294C37.5077 53.0043 36.8213 53.5314 36.4781 54.4479C36.0205 55.6394 36.4781 56.6934 36.5467 56.8996C36.9128 57.335 37.3475 57.9995 37.3246 58.8015C37.256 60.5658 34.968 61.9406 32.9775 61.9406C31.0098 61.9406 28.7219 60.5658 28.6304 58.8015C28.5846 57.9995 29.0422 57.3121 29.4083 56.8996C29.4998 56.6705 29.9345 55.6165 29.4769 54.4479C29.2023 53.7147 28.6761 53.2335 28.2185 52.9127C20.6225 51.1942 14.628 45.2137 12.8663 37.6064C12.5459 37.1711 12.1112 36.7357 11.4248 36.4836C10.2351 36.0254 9.18262 36.4836 8.95382 36.5524C8.51911 36.919 7.8556 37.3544 7.05481 37.3314C5.29308 37.2627 3.92029 34.9713 3.92029 32.9779C3.92029 31.0073 5.29308 28.7159 7.05481 28.6243C7.8556 28.5785 8.54199 29.0367 8.95382 29.4033C9.18262 29.495 10.2351 29.9304 11.4248 29.4721C12.0883 29.22 12.5459 28.7847 12.8663 28.3493C14.628 20.742 20.6225 14.7616 28.2185 13.0431C28.6761 12.7452 29.1795 12.264 29.4769 11.5078C29.9345 10.3163 29.4769 9.26231 29.4083 9.03318C29.0422 8.59782 28.6075 7.93333 28.6304 7.13135C28.699 5.36701 30.987 3.99219 32.9775 3.99219C34.9451 3.99219 37.256 5.36701 37.3246 7.13135C37.3704 7.93333 36.9128 8.59782 36.5467 9.03318C36.4552 9.26231 36.0205 10.3163 36.4781 11.5078C36.8213 12.4244 37.5305 12.9514 38.0568 13.2264C45.1266 15.1282 50.6635 20.742 52.4939 27.8452C52.6311 28.0744 53.226 29.0596 54.4844 29.4721C55.6741 29.8616 56.6808 29.495 56.9554 29.4033C57.1384 29.243 57.8477 28.6014 58.8544 28.6472C59.884 28.693 60.5246 29.4263 60.8907 29.8158C62.0347 31.099 61.9889 32.7029 61.9889 32.9779V33.0008Z" stroke="black" stroke-width="0.533333" stroke-linecap="round" stroke-linejoin="round"/>
<path d="M41.2598 14.348L43.5935 7.01566C43.6393 6.83235 43.8452 6.7407 44.0054 6.80945C44.1884 6.87819 44.2799 7.0844 44.2113 7.26771L41.2369 14.3709L41.2598 14.348Z" fill="#959387" stroke="black" stroke-width="0.192" stroke-linecap="round" stroke-linejoin="round"/>
<path d="M44.4401 15.9058L48.261 9.23794C48.3525 9.07754 48.5584 9.03172 48.7186 9.12337C48.8787 9.21503 48.9474 9.44416 48.833 9.60456L44.4401 15.9287V15.9058Z" fill="#959387" stroke="black" stroke-width="0.192" stroke-linecap="round" stroke-linejoin="round"/>
<path d="M47.2322 18.1295L52.3572 12.4011C52.4716 12.2636 52.7004 12.2636 52.8377 12.3782C52.975 12.5157 52.975 12.7448 52.8377 12.8823L47.2322 18.1295Z" fill="#959387" stroke="black" stroke-width="0.192" stroke-linecap="round" stroke-linejoin="round"/>
<path d="M49.4967 20.8553L55.72 16.3413C55.8801 16.2267 56.086 16.2726 56.1776 16.41C56.292 16.5704 56.2462 16.7996 56.0861 16.8912L49.4967 20.8553Z" fill="#959387" stroke="black" stroke-width="0.192" stroke-linecap="round" stroke-linejoin="round"/>
<path d="M51.121 24.0178L58.1451 20.9015C58.3052 20.8328 58.5112 20.9015 58.5798 21.0619C58.6484 21.2452 58.5798 21.4515 58.3739 21.5202L51.0981 23.9949L51.121 24.0178Z" fill="#959387" stroke="black" stroke-width="0.192" stroke-linecap="round" stroke-linejoin="round"/>
<path d="M24.2371 14.3944L21.9034 7.06205C21.8576 6.87874 21.6517 6.78709 21.4915 6.85583C21.3085 6.92457 21.217 7.1308 21.2856 7.3141L24.26 14.4173L24.2371 14.3944Z" fill="#959387" stroke="black" stroke-width="0.192" stroke-linecap="round" stroke-linejoin="round"/>
<path d="M21.0565 15.9761L17.2356 9.30825C17.1441 9.14786 16.9382 9.10203 16.778 9.19369C16.6179 9.28534 16.5492 9.51448 16.6636 9.67488L21.0565 15.999V15.9761Z" fill="#959387" stroke="black" stroke-width="0.192" stroke-linecap="round" stroke-linejoin="round"/>
<path d="M18.2654 18.1759L13.1403 12.4475C13.0259 12.31 12.7971 12.31 12.6598 12.4246C12.5226 12.562 12.5226 12.7912 12.6598 12.9287L18.2654 18.1759Z" fill="#959387" stroke="black" stroke-width="0.192" stroke-linecap="round" stroke-linejoin="round"/>
<path d="M16.023 20.9022L9.79971 16.3882C9.63955 16.2736 9.43363 16.3194 9.34211 16.4569C9.22771 16.6173 9.27347 16.8464 9.43363 16.9381L16.023 20.9022Z" fill="#959387" stroke="black" stroke-width="0.192" stroke-linecap="round" stroke-linejoin="round"/>
<path d="M14.3756 24.0647L7.35156 20.9484C7.19141 20.8797 6.98549 20.9484 6.91685 21.1088C6.84821 21.2921 6.91685 21.4983 7.12277 21.5671L14.3985 24.0417L14.3756 24.0647Z" fill="#959387" stroke="black" stroke-width="0.192" stroke-linecap="round" stroke-linejoin="round"/>
<path d="M24.1459 51.5376L21.8122 58.8699C21.7664 59.0532 21.5605 59.1449 21.4003 59.0761C21.2173 59.0074 21.1258 58.8012 21.1944 58.6179L24.1688 51.5146L24.1459 51.5376Z" fill="#959387" stroke="black" stroke-width="0.192" stroke-linecap="round" stroke-linejoin="round"/>
<path d="M20.9653 49.9785L17.1444 56.6463C17.0529 56.8067 16.847 56.8525 16.6868 56.7609C16.5267 56.6692 16.458 56.4401 16.5724 56.2797L20.9653 49.9556V49.9785Z" fill="#959387" stroke="black" stroke-width="0.192" stroke-linecap="round" stroke-linejoin="round"/>
<path d="M18.1744 47.7793L13.0494 53.5077C12.935 53.6452 12.7062 53.6452 12.5689 53.5306C12.4316 53.3931 12.4316 53.164 12.5689 53.0265L18.1744 47.7793Z" fill="#959387" stroke="black" stroke-width="0.192" stroke-linecap="round" stroke-linejoin="round"/>
<path d="M15.909 45.0303L9.68569 49.5443C9.52553 49.6588 9.31962 49.613 9.2281 49.4755C9.1137 49.3151 9.15945 49.086 9.31961 48.9943L15.909 45.0303Z" fill="#959387" stroke="black" stroke-width="0.192" stroke-linecap="round" stroke-linejoin="round"/>
<path d="M14.2844 41.8901L7.26039 45.0064C7.10023 45.0751 6.89431 45.0064 6.82567 44.846C6.75703 44.6627 6.82567 44.4565 7.03158 44.3877L14.3073 41.9131L14.2844 41.8901Z" fill="#959387" stroke="black" stroke-width="0.192" stroke-linecap="round" stroke-linejoin="round"/>
<path d="M41.351 51.5376L43.6847 58.8699C43.7305 59.0532 43.9364 59.1449 44.0966 59.0761C44.2796 59.0074 44.3711 58.8012 44.3025 58.6179L41.3281 51.5146L41.351 51.5376Z" fill="#959387" stroke="black" stroke-width="0.192" stroke-linecap="round" stroke-linejoin="round"/>
<path d="M44.531 49.9785L48.3519 56.6463C48.4434 56.8067 48.6494 56.8525 48.8095 56.7609C48.9697 56.6692 49.0383 56.4401 48.9239 56.2797L44.531 49.9556V49.9785Z" fill="#959387" stroke="black" stroke-width="0.192" stroke-linecap="round" stroke-linejoin="round"/>
<path d="M47.3228 47.7793L52.4478 53.5077C52.5622 53.6452 52.791 53.6452 52.9283 53.5306C53.0656 53.3931 53.0656 53.164 52.9283 53.0265L47.3228 47.7793Z" fill="#959387" stroke="black" stroke-width="0.192" stroke-linecap="round" stroke-linejoin="round"/>
<path d="M49.5878 45.0303L55.811 49.5443C55.9712 49.6588 56.1771 49.613 56.2686 49.4755C56.383 49.3151 56.3373 49.086 56.1771 48.9943L49.5878 45.0303Z" fill="#959387" stroke="black" stroke-width="0.192" stroke-linecap="round" stroke-linejoin="round"/>
<path d="M51.2123 41.8901L58.2364 45.0064C58.3965 45.0751 58.6025 45.0064 58.6711 44.846C58.7397 44.6627 58.6711 44.4565 58.4652 44.3877L51.1895 41.9131L51.2123 41.8901Z" fill="#959387" stroke="black" stroke-width="0.192" stroke-linecap="round" stroke-linejoin="round"/>
<path d="M34.0525 6.07677C33.2059 6.07677 33 6.71835 32.9542 7.01623C32.9085 6.69544 32.7026 6.05386 31.856 6.07677C30.7349 6.09968 30.5747 7.35993 30.9637 8.00151C31.3527 8.64309 31.5586 8.84932 31.9475 9.26176C32.3136 9.65129 32.7712 10.0866 32.9313 10.3387C33.0915 10.0637 33.5262 9.65129 33.9152 9.26176C34.3041 8.84932 34.51 8.64309 34.899 8.00151C35.288 7.35993 35.1507 6.09968 34.0067 6.07677H34.0525Z" fill="black"/>
<path d="M32.9311 55.8457C32.6566 56.2581 32.3363 56.7164 31.9244 57.1976C31.6499 57.5184 31.3982 57.7934 31.1237 58.0454C31.444 58.3662 31.81 58.7557 32.1532 59.1911C32.4507 59.5577 32.7024 59.9243 32.9083 60.268C33.1371 59.9472 33.3887 59.6035 33.6633 59.2369C34.0294 58.7786 34.3954 58.412 34.7386 58.0683C34.4412 57.7933 34.098 57.4726 33.7777 57.0601C33.4116 56.6477 33.1371 56.2352 32.9083 55.8686L32.9311 55.8457Z" fill="black"/>
<path d="M58.1679 34.4905C58.6484 34.0552 59.106 33.5511 59.3577 33.3219C59.5407 33.1615 59.678 33.047 59.7466 33.0011C59.678 32.9553 59.5407 32.8407 59.3577 32.6803C59.106 32.4741 58.6484 31.9471 58.1679 31.5118C57.6874 31.0764 57.207 31.0306 56.818 31.1222C56.4291 31.2139 56.0401 31.6263 56.1316 32.2679C56.1545 32.4741 56.246 32.6116 56.3833 32.7262C55.8113 32.6574 55.5367 32.3596 55.5367 32.3596V33.6198C55.7884 33.3907 56.1545 33.299 56.3833 33.2761C56.2689 33.3907 56.1774 33.5282 56.1316 33.7344C56.0401 34.376 56.4291 34.8113 56.818 34.8801C57.207 34.9717 57.6874 34.9259 58.1679 34.4905Z" fill="black"/>
<path d="M36.1806 41.8445C36.7526 41.8445 37.5534 41.8674 38.5143 41.8904C40.4591 41.8904 41.42 41.8904 41.7404 41.7529C43.5936 40.8822 43.0216 36.0245 42.8386 34.6497C43.6623 34.2601 44.4859 33.8935 45.3096 33.504C44.097 31.121 42.9072 28.715 41.6946 26.332H27.2346C26.777 26.5383 26.4796 26.7903 26.3194 26.9507C25.1297 28.1651 25.5873 29.9982 25.5415 34.2601C25.5415 35.0392 25.4958 35.6808 25.4958 36.0245C23.4595 35.8641 21.6062 36.8952 20.9198 38.4991C20.0962 40.3781 21.2173 42.1882 21.3546 42.4403C22.7273 44.5712 25.6102 44.9149 27.5321 44.5254C28.31 44.365 29.9802 43.8609 31.2157 42.3486C31.7648 41.6841 32.3597 40.653 32.863 33.5727C33.069 30.594 33.1147 28.463 34.7163 27.0882C35.1281 26.7216 35.54 26.5153 35.8374 26.4008" stroke="black" stroke-width="1.06667" stroke-linecap="round" stroke-linejoin="round"/>
<path d="M41.7859 26.4236H27.1657L24.3058 21.2681H44.6458L41.7859 26.4236Z" stroke="black" stroke-width="1.06667" stroke-linecap="round" stroke-linejoin="round"/>
<path d="M39.0178 32.0142C39.6117 32.0142 40.0932 31.5321 40.0932 30.9373C40.0932 30.3425 39.6117 29.8604 39.0178 29.8604C38.4239 29.8604 37.9425 30.3425 37.9425 30.9373C37.9425 31.5321 38.4239 32.0142 39.0178 32.0142Z" fill="black"/>
<path d="M7.94654 31.3276C7.48894 31.763 7.76349 32.4045 7.76349 32.4045C7.55758 32.2212 7.42031 32.1067 7.09999 32.1296C7.09999 32.1296 7.09998 32.1296 7.0771 32.1296C6.57375 32.1296 6.13904 32.542 6.13904 33.069C6.13904 33.5961 6.55087 34.0085 7.0771 34.0085C7.14574 34.0085 7.21439 34.0085 7.26015 34.0085C7.48894 34.0085 7.62622 33.871 7.78638 33.7335C7.78638 33.7335 7.51182 34.398 7.96941 34.8105C8.42701 35.2458 8.999 35.0167 9.18204 34.8792C9.36508 34.7417 9.66251 34.5355 9.63963 34.0543C9.61675 33.6419 9.52523 33.5731 9.29644 33.2753C9.93707 33.3211 10.3718 33.6877 10.3718 33.6877V33.0461V32.4275V32.4045C10.1201 32.6337 9.57099 32.8399 9.29644 32.817C9.52523 32.542 9.59387 32.4733 9.61675 32.0608C9.66251 31.5797 9.34219 31.3734 9.15916 31.236C8.97612 31.0985 8.42701 30.8923 7.94654 31.3047V31.3276Z" fill="black"/>
</g>
<rect x="1.53333" y="1.53333" width="62.9333" height="62.9333" rx="31.4667" stroke="url(#paint2_linear_74_14540)" stroke-width="1.06667"/>
<defs>
<linearGradient id="paint0_linear_74_14540" x1="33.0039" y1="66.7503" x2="33.0039" y2="-0.750339" gradientUnits="userSpaceOnUse">
<stop stop-color="#4B4441"/>
<stop offset="0.17" stop-color="#443F3D"/>
<stop offset="0.45" stop-color="#393635"/>
<stop offset="0.8" stop-color="#292627"/>
</linearGradient>
<linearGradient id="paint1_linear_74_14540" x1="33.0457" y1="63.9336" x2="33.0457" y2="2.06689" gradientUnits="userSpaceOnUse">
<stop stop-color="#80776D"/>
<stop offset="0.22" stop-color="#918789"/>
<stop offset="0.55" stop-color="#BBB0AE"/>
<stop offset="0.84" stop-color="#D7CCC8"/>
<stop offset="1" stop-color="#E2D7D2"/>
</linearGradient>
<linearGradient id="paint2_linear_74_14540" x1="33.0038" y1="65.7276" x2="33.0038" y2="0.272398" gradientUnits="userSpaceOnUse">
<stop offset="0.2" stop-color="#918789"/>
<stop offset="0.55" stop-color="#BBB0AE"/>
<stop offset="0.83" stop-color="#D7CCC8"/>
<stop offset="1" stop-color="#E2D7D2"/>
</linearGradient>
<clipPath id="clip0_74_14540">
<rect x="1" y="1" width="64" height="64" rx="32" fill="white"/>
</clipPath>
</defs>
</svg>
