<svg width="55" height="66" viewBox="0 0 55 66" fill="none" xmlns="http://www.w3.org/2000/svg">
<path d="M50.485 29.9377C50.1857 28.7022 50.8043 27.197 49.9363 26.1075C49.7866 25.9278 49.627 25.7256 49.3477 25.6245C48.1504 25.1977 47.1526 27.5115 46.0951 27.2195C45.1572 26.9612 45.4266 25.0067 43.96 24.198C43.7903 24.1081 43.072 23.715 42.4833 24.0744C42.4534 24.0969 41.9046 24.4339 41.8847 25.0629C41.8847 25.1527 41.8847 25.5234 42.1042 25.7705C42.3237 26.0176 42.5631 25.9165 42.7926 26.0513C43.2516 26.3209 43.4411 27.388 43.1817 28.0058C42.7128 29.129 40.5078 29.32 38.8716 28.6685C37.4448 28.0956 36.7065 26.9949 35.589 25.4111C32.7655 21.4348 31.4086 19.3456 30.1415 18.3796C28.9941 17.5035 26.0608 15.2795 22.3592 15.5378C20.1243 15.6951 18.3783 16.8408 14.9062 19.121C10.8654 21.7718 10.6958 22.7827 7.92218 23.9958C4.29046 25.5908 1.40704 25.2426 1.41702 25.5459C1.427 25.8829 5.04873 26.8039 9.14937 25.7256C11.9031 25.0067 12.811 23.9284 17.2808 22.6592C17.5602 22.5805 19.4459 22.0638 21.7406 22.4907C23.1275 22.749 23.756 23.1871 24.1751 23.7487C24.2848 23.8947 25.0032 24.8719 24.7438 25.9502C24.5043 26.9724 23.5066 27.6351 22.6386 27.7137C20.8127 27.8934 19.7552 25.4785 18.977 25.9053C18.1987 26.3209 19.1466 28.7022 18.099 30.6341C17.3706 31.982 15.9838 32.5324 15.026 32.7683C15.9738 33.0154 17.3606 33.5546 18.099 34.9024C19.1466 36.8344 18.1987 39.2157 18.977 39.6313C19.7652 40.0581 20.8227 37.6431 22.6386 37.8229C23.5066 37.9127 24.5043 38.5754 24.7438 39.5864C25.0032 40.6647 24.2848 41.6419 24.1751 41.7879C23.766 42.3495 23.1275 42.7876 21.7406 43.0459C19.4459 43.4727 17.5702 42.9561 17.2808 42.8774C12.811 41.6082 11.9031 40.5299 9.14937 39.811C5.05871 38.7439 1.427 39.665 1.41702 40.0019C1.41702 40.3052 4.28049 39.957 7.92218 41.552C10.6859 42.7651 10.8555 43.776 14.9062 46.4269C18.3883 48.707 20.1243 49.8527 22.3592 50.01C26.0608 50.2683 28.9941 48.0443 30.1415 47.1682C31.4186 46.2022 32.7655 44.113 35.589 40.1367C36.7065 38.5642 37.4448 37.4522 38.8716 36.8793C40.5078 36.2279 42.7128 36.4188 43.1817 37.5421C43.4411 38.1598 43.2516 39.2269 42.7926 39.4965C42.5631 39.6313 42.3336 39.5302 42.1042 39.7773C41.8747 40.0244 41.8847 40.3951 41.8847 40.4849C41.9146 41.1139 42.4534 41.4509 42.4833 41.4734C43.0819 41.8328 43.7903 41.4397 43.96 41.3498C45.4366 40.5411 45.1572 38.5867 46.0951 38.3283C47.1526 38.0363 48.1504 40.3614 49.3477 39.9233C49.627 39.8222 49.7866 39.62 49.9363 39.4403C50.8043 38.3508 50.1857 36.8569 50.485 35.6101C50.7045 34.689 51.5127 33.6107 53.997 32.7683C51.5127 31.9371 50.7145 30.8476 50.485 29.9265V29.9377Z" fill="url(#paint0_linear_312_15037)" stroke="black" stroke-linecap="round" stroke-linejoin="round"/>
<path d="M39.3404 54.6375C39.1309 55.4912 39.5599 56.5133 38.9613 57.2659C38.8615 57.3895 38.7518 57.5355 38.5622 57.6029C37.7441 57.8949 37.0556 56.3112 36.3273 56.5021C35.6787 56.6818 35.8683 58.0185 34.8606 58.5801C34.7409 58.6475 34.252 58.9171 33.8429 58.6699C33.823 58.6587 33.4439 58.4228 33.4339 57.996C33.4339 57.9398 33.4339 57.6815 33.5835 57.513C33.7332 57.3445 33.8928 57.4119 34.0525 57.322C34.3717 57.1423 34.5015 56.401 34.3219 55.9854C34.0026 55.2104 32.4861 55.0868 31.3586 55.5361C30.3809 55.9292 29.872 56.6818 29.1038 57.7714C27.1682 60.5008 26.2403 61.9273 25.3623 62.6013C24.5741 63.1966 22.5687 64.7242 20.0245 64.5445C18.488 64.4322 17.2907 63.6571 14.9061 62.0846C12.1325 60.265 12.0128 59.5685 10.1171 58.7373C7.62278 57.6478 5.64729 57.8837 5.65726 57.6815C5.65726 57.4456 8.15158 56.8166 10.9652 57.5579C12.8509 58.0522 13.4794 58.7935 16.5424 59.6584C16.742 59.7146 18.029 60.0628 19.6054 59.7707C20.5533 59.591 20.9923 59.2989 21.2716 58.9058C21.3415 58.8047 21.8403 58.142 21.6608 57.4007C21.4911 56.7043 20.8127 56.2438 20.214 56.1876C18.9569 56.064 18.2386 57.7152 17.6998 57.4344C17.171 57.1423 17.8195 55.5137 17.1012 54.1882C16.6023 53.2559 15.6445 52.8853 14.9959 52.7168H41.7549C40.0488 53.2896 39.5 54.031 39.3504 54.66L39.3404 54.6375Z" fill="url(#paint1_linear_312_15037)" stroke="black" stroke-linecap="round" stroke-linejoin="round"/>
<path d="M39.3404 10.9215C39.1309 10.0679 39.5599 9.04573 38.9613 8.29316C38.8615 8.1696 38.7518 8.02359 38.5622 7.9562C37.7441 7.66416 37.0556 9.2479 36.3273 9.05695C35.6787 8.87723 35.8683 7.54061 34.8606 6.97899C34.7409 6.91159 34.252 6.642 33.8429 6.88911C33.823 6.90034 33.4439 7.13623 33.4339 7.56306C33.4339 7.61922 33.4339 7.87756 33.5835 8.04604C33.7332 8.21453 33.8928 8.14715 34.0525 8.23701C34.3717 8.41673 34.5015 9.15807 34.3219 9.57366C34.0026 10.3487 32.4861 10.4722 31.3586 10.023C30.3809 9.62982 29.872 8.87726 29.1038 7.78772C27.1682 5.05825 26.2403 3.63172 25.3623 2.95778C24.5741 2.36246 22.5687 0.834881 20.0245 1.0146C18.488 1.12692 17.2907 1.90196 14.9061 3.47449C12.1325 5.29414 12.0128 5.99052 10.1171 6.82172C7.62278 7.91126 5.64729 7.67538 5.65726 7.87756C5.65726 8.11344 8.15158 8.74248 10.9652 8.00114C12.8509 7.50691 13.4794 6.76555 16.5424 5.90066C16.742 5.84449 18.029 5.49632 19.6054 5.78836C20.5533 5.96808 20.9923 6.26011 21.2716 6.65324C21.3415 6.75433 21.8403 7.41704 21.6608 8.15837C21.4911 8.85478 20.8127 9.31533 20.214 9.37149C18.9569 9.49505 18.2386 7.84387 17.6998 8.12468C17.171 8.41672 17.8195 10.0454 17.1012 11.3709C16.6023 12.3031 15.6445 12.6738 14.9959 12.8423H41.7549C40.0488 12.2694 39.5 11.5281 39.3504 10.8991L39.3404 10.9215Z" fill="url(#paint2_linear_312_15037)" stroke="black" stroke-linecap="round" stroke-linejoin="round"/>
<defs>
<linearGradient id="paint0_linear_312_15037" x1="28.6648" y1="61.9276" x2="27.9444" y2="46.9733" gradientUnits="userSpaceOnUse">
<stop offset="0.2" stop-color="#918789"/>
<stop offset="0.55" stop-color="#BBB0AE"/>
<stop offset="0.83" stop-color="#D7CCC8"/>
<stop offset="1" stop-color="#E2D7D2"/>
</linearGradient>
<linearGradient id="paint1_linear_312_15037" x1="23.9755" y1="62.152" x2="23.255" y2="47.1978" gradientUnits="userSpaceOnUse">
<stop offset="0.2" stop-color="#918789"/>
<stop offset="0.55" stop-color="#BBB0AE"/>
<stop offset="0.83" stop-color="#D7CCC8"/>
<stop offset="1" stop-color="#E2D7D2"/>
</linearGradient>
<linearGradient id="paint2_linear_312_15037" x1="25.6616" y1="62.0738" x2="24.9538" y2="47.1193" gradientUnits="userSpaceOnUse">
<stop offset="0.2" stop-color="#918789"/>
<stop offset="0.55" stop-color="#BBB0AE"/>
<stop offset="0.83" stop-color="#D7CCC8"/>
<stop offset="1" stop-color="#E2D7D2"/>
</linearGradient>
</defs>
</svg>
