<svg width="55" height="65" viewBox="0 0 55 65" fill="none" xmlns="http://www.w3.org/2000/svg">
<path d="M4.50857 28.9377C4.80789 27.7022 4.18929 26.197 5.05731 25.1075C5.20697 24.9278 5.36661 24.7256 5.64598 24.6245C6.84324 24.1977 7.84096 26.5115 8.89855 26.2195C9.83641 25.9612 9.56702 24.0067 11.0337 23.198C11.2033 23.1081 11.9216 22.715 12.5103 23.0744C12.5402 23.0969 13.089 23.4339 13.1089 24.0629C13.1089 24.1527 13.1089 24.5234 12.8894 24.7705C12.6699 25.0176 12.4305 24.9165 12.201 25.0513C11.7421 25.3209 11.5525 26.388 11.8119 27.0058C12.2808 28.129 14.4858 28.32 16.1221 27.6685C17.5488 27.0956 18.2871 25.9949 19.4046 24.4111C22.2281 20.4348 23.585 18.3456 24.8521 17.3796C25.9995 16.5035 28.9328 14.2795 32.6344 14.5378C34.8693 14.6951 36.6153 15.8408 40.0874 18.121C44.1282 20.7718 44.2978 21.7827 47.0714 22.9958C50.7031 24.5908 53.5866 24.2426 53.5766 24.5459C53.5666 24.8829 49.9449 25.8039 45.8442 24.7256C43.0905 24.0067 42.1826 22.9284 37.7128 21.6592C37.4334 21.5805 35.5477 21.0638 33.253 21.4907C31.8661 21.749 31.2376 22.1871 30.8185 22.7487C30.7088 22.8947 29.9904 23.8719 30.2498 24.9502C30.4893 25.9724 31.487 26.6351 32.355 26.7137C34.1809 26.8934 35.2384 24.4785 36.0167 24.9053C36.7949 25.3209 35.847 27.7022 36.8947 29.6341C37.623 30.982 39.0098 31.5324 39.9676 31.7683C39.0198 32.0154 37.633 32.5546 36.8947 33.9024C35.847 35.8344 36.7949 38.2157 36.0167 38.6313C35.2285 39.0581 34.1709 36.6431 32.355 36.8229C31.487 36.9127 30.4893 37.5754 30.2498 38.5864C29.9904 39.6647 30.7088 40.6419 30.8185 40.7879C31.2276 41.3495 31.8661 41.7876 33.253 42.0459C35.5477 42.4727 37.4235 41.9561 37.7128 41.8774C42.1826 40.6082 43.0905 39.5299 45.8442 38.811C49.9349 37.7439 53.5666 38.665 53.5766 39.0019C53.5766 39.3052 50.7131 38.957 47.0714 40.552C44.3077 41.7651 44.1381 42.776 40.0874 45.4269C36.6053 47.707 34.8693 48.8527 32.6344 49.01C28.9328 49.2683 25.9995 47.0443 24.8521 46.1682C23.5751 45.2022 22.2281 43.113 19.4046 39.1367C18.2871 37.5642 17.5488 36.4522 16.1221 35.8793C14.4858 35.2279 12.2808 35.4188 11.8119 36.5421C11.5525 37.1598 11.7421 38.2269 12.201 38.4965C12.4305 38.6313 12.66 38.5302 12.8894 38.7773C13.1189 39.0244 13.1089 39.3951 13.1089 39.4849C13.079 40.1139 12.5402 40.4509 12.5103 40.4734C11.9117 40.8328 11.2033 40.4397 11.0337 40.3498C9.55704 39.5411 9.83641 37.5867 8.89855 37.3283C7.84096 37.0363 6.84324 39.3614 5.64598 38.9233C5.36661 38.8222 5.20697 38.62 5.05731 38.4403C4.18929 37.3508 4.80789 35.8569 4.50857 34.6101C4.28907 33.689 3.48091 32.6107 0.996582 31.7683C3.48091 30.9371 4.2791 29.8476 4.50857 28.9265V28.9377Z" fill="url(#paint0_linear_311_15036)" stroke="black" stroke-linecap="round" stroke-linejoin="round"/>
<path d="M15.643 53.6375C15.8525 54.4912 15.4235 55.5133 16.0221 56.2659C16.1219 56.3895 16.2317 56.5355 16.4212 56.6029C17.2394 56.8949 17.9278 55.3112 18.6561 55.5021C19.3047 55.6818 19.1151 57.0185 20.1228 57.5801C20.2425 57.6475 20.7314 57.9171 21.1405 57.6699C21.1604 57.6587 21.5396 57.4228 21.5495 56.996C21.5495 56.9398 21.5495 56.6815 21.3999 56.513C21.2502 56.3445 21.0906 56.4119 20.9309 56.322C20.6117 56.1423 20.482 55.401 20.6616 54.9854C20.9808 54.2104 22.4974 54.0868 23.6248 54.5361C24.6026 54.9292 25.1114 55.6818 25.8797 56.7714C27.8152 59.5008 28.7431 60.9273 29.6211 61.6013C30.4093 62.1966 32.4147 63.7242 34.9589 63.5445C36.4954 63.4322 37.6927 62.6571 40.0773 61.0846C42.8509 59.265 42.9707 58.5685 44.8663 57.7373C47.3606 56.6478 49.3361 56.8837 49.3261 56.6815C49.3261 56.4456 46.8318 55.8166 44.0183 56.5579C42.1326 57.0522 41.504 57.7935 38.441 58.6584C38.2414 58.7146 36.9544 59.0628 35.378 58.7707C34.4301 58.591 33.9911 58.2989 33.7118 57.9058C33.6419 57.8047 33.1431 57.142 33.3227 56.4007C33.4923 55.7043 34.1707 55.2438 34.7694 55.1876C36.0265 55.064 36.7449 56.7152 37.2836 56.4344C37.8124 56.1423 37.1639 54.5137 37.8823 53.1882C38.3811 52.2559 39.3389 51.8853 39.9875 51.7168C34.4002 51.7168 28.8229 51.7168 23.2357 51.7168H21.3201C18.6262 51.7168 15.9224 51.7168 13.2285 51.7168C14.9346 52.2896 15.4834 53.031 15.633 53.66L15.643 53.6375Z" fill="url(#paint1_linear_311_15036)" stroke="black" stroke-linecap="round" stroke-linejoin="round"/>
<path d="M37.442 10.6079C37.5967 10.8967 37.7867 11.1389 37.9952 11.3423H37.9908H37.9581H37.9254H37.8927H37.8599H37.8272H37.7945H37.7618H37.729H37.6963H37.6636H37.6309H37.5982H37.5654H37.5327H37.5H37.4673H37.4345H37.4018H37.3691H37.3364H37.3036H37.2709H37.2382H37.2055H37.1728H37.14H37.1073H37.0746H37.0419H37.0092H36.9764H36.9437H36.911H36.8783H36.8456H36.8128H36.7801H36.7474H36.7147H36.682H36.6492H36.6165H36.5838H36.5511H36.5184H36.4856H36.4529H36.4202H36.3875H36.3548H36.322H36.2893H36.2566H36.2239H36.1912H36.1585H36.1257H36.093H36.0603H36.0276H35.9949H35.9622H35.9294H35.8967H35.864H35.8313H35.7986H35.7659H35.7331H35.7004H35.6677H35.635H35.6023H35.5696H35.5369H35.5041H35.4714H35.4387H35.406H35.3733H35.3406H35.3079H35.2751H35.2424H35.2097H35.177H35.1443H35.1116H35.0789H35.0461H35.0134H34.9807H34.948H34.9153H34.8826H34.8499H34.8172H34.7844H34.7517H34.719H34.6863H34.6536H34.6209H34.5882H34.5555H34.5227H34.49H34.4573H34.4246H34.3919H34.3592H34.3265H34.2938H34.261H34.2283H34.1956H34.1629H34.1302H34.0975H34.0648H34.0321H33.9994H33.9666H33.9339H33.9012H33.8685H33.8358H33.8031H33.7704H33.7377H33.705H33.6722H33.6395H33.6068H33.5741H33.5414H33.5087H33.476H33.4433H33.4106H33.3779H33.3451H33.3124H33.2797H33.247H33.2143H33.1816H33.1489H33.1162H33.0835H33.0508H33.018H32.9853H32.9526H32.9199H32.8872H32.8545H32.8218H32.7891H32.7564H32.7237H32.691H32.6582H32.6255H32.5928H32.5601H32.5274H32.4947H32.462H32.4293H32.3966H32.3639H32.3312H32.2985H32.2657H32.233H32.2003H32.1676H32.1349H32.1022H32.0695H32.0368H32.0041H31.9714H31.9387H31.9059H31.8732H31.8405H31.8078H31.7751H31.7424H31.7097H31.677H31.6443H31.6116H31.5789H31.5462H31.5134H31.4807H31.448H31.4153H31.3826H31.3499H31.3172H31.2845H31.2518H31.2191H31.1864H31.1536H31.1209H31.0882H31.0555H31.0228H30.9901H30.9574H30.9247H30.892H30.8593H30.8266H30.7939H30.7611H30.7284H30.6957H30.663H30.6303H30.5976H30.5649H30.5322H30.4995H30.4668H30.4341H30.4013H30.3686H30.3359H30.3032H30.2705H30.2378H30.2051H30.1724H30.1397H30.107H30.0742H30.0415H30.0088H29.9761H29.9434H29.9107H29.878H29.8453H29.8126H29.7799H29.7472H29.7144H29.6817H29.649H29.6163H29.5836H29.5509H29.5182H29.4855H29.4528H29.42H29.3873H29.3546H29.3219H29.2892H29.2565H29.2238H29.1911H29.1584H29.1257H29.0929H29.0602H29.0275H28.9948H28.9621H28.9294H28.8967H28.864H28.8312H28.7985H28.7658H28.7331H28.7004H28.6677H28.635H28.6023H28.5696H28.5368H28.5041H28.4714H28.4387H28.406H28.3733H28.3406H28.3078H28.2751H28.2424H28.2097H28.177H28.1443H28.1116H28.0789H28.0461H28.0134H27.9807H27.948H27.9153H27.8826H27.8499H27.8171H27.7844H27.7517H27.719H27.6863H27.6536H27.6209H27.5881H27.5554H27.5227H27.49H27.4573H27.4246H27.3918H27.3591H27.3264H27.2937H27.261H27.2283H27.1955H27.1628H27.1301H27.0974H27.0647H27.032H26.9992H26.9665H26.9338H26.9011H26.8684H26.8357H26.8029H26.7702H26.7375H26.7048H26.6721H26.6393H26.6066H26.5739H26.5412H26.5085H26.4757H26.443H26.4103H26.3776H26.3449H26.3121H26.2794H26.2467H26.214H26.1813H26.1485H26.1158H26.0831H26.0504H26.0177H25.9849H25.9522H25.9195H25.8868H25.854H25.8213H25.7886H25.7559H25.7232H25.6904H25.6577H25.625H25.5923H25.5595H25.5268H25.4941H25.4614H25.4286H25.3959H25.3632H25.3305H25.2977H25.265H25.2323H25.1996H25.1668H25.1341H25.1014H25.0687H25.0359H25.0032H24.9705H24.9378H24.905H24.8723H24.8396H24.8068H24.7741H24.7414H24.7087H24.6759H24.6432H24.6105H24.5777H24.545H24.5123H24.4796H24.4468H24.4141H24.3814H24.3486H24.3159H24.2832H24.2504H24.2177H24.185H24.1523H24.1195H24.0868H24.0541H24.0213H23.9886H23.9559H23.9231H23.8904H23.8577H23.8249H23.7922H23.7595H23.7267H23.694H23.6613H23.6285H23.5958H23.563H23.5303H23.4976H23.4648H23.4321H23.3994H23.3666H23.3339H23.3012H23.2684H23.2357H21.3201H21.3043H21.2885H21.2727H21.2569H21.2411H21.2253H21.2096H21.1938H21.178H21.1622H21.1464H21.1306H21.1148H21.099H21.0833H21.0675H21.0517H21.0359H21.0201H21.0043H20.9885H20.9727H20.957H20.9412H20.9254H20.9096H20.8938H20.878H20.8622H20.8464H20.8306H20.8148H20.7991H20.7833H20.7675H20.7517H20.7359H20.7201H20.7043H20.6885H20.6727H20.6569H20.6411H20.6253H20.6095H20.5937H20.578H20.5622H20.5464H20.5306H20.5148H20.499H20.4832H20.4674H20.4516H20.4358H20.42H20.4042H20.3884H20.3726H20.3568H20.341H20.3252H20.3094H20.2936H20.2778H20.262H20.2462H20.2304H20.2146H20.1988H20.183H20.1672H20.1514H20.1356H20.1199H20.1041H20.0883H20.0725H20.0567H20.0409H20.0251H20.0093H19.9935H19.9777H19.9619H19.9461H19.9303H19.9144H19.8986H19.8828H19.867H19.8512H19.8354H19.8196H19.8038H19.788H19.7722H19.7564H19.7406H19.7248H19.709H19.6932H19.6774H19.6616H19.6458H19.63H19.6142H19.5984H19.5826H19.5668H19.551H19.5352H19.5194H19.5036H19.4878H19.472H19.4562H19.4404H19.4245H19.4087H19.3929H19.3771H19.3613H19.3455H19.3297H19.3139H19.2981H19.2823H19.2665H19.2507H19.2349H19.2191H19.2033H19.1875H19.1716H19.1558H19.14H19.1242H19.1084H19.0926H19.0768H19.061H19.0452H19.0294H19.0136H18.9978H18.982H18.9661H18.9503H18.9345H18.9187H18.9029H18.8871H18.8713H18.8555H18.8397H18.8239H18.8081H18.7923H18.7764H18.7606H18.7448H18.729H18.7132H18.6974H18.6816H18.6658H18.65H18.6342H18.6183H18.6025H18.5867H18.5709H18.5551H18.5393H18.5235H18.5077H18.4919H18.476H18.4602H18.4444H18.4286H18.4128H18.397H18.3812H18.3654H18.3496H18.3337H18.3179H18.3021H18.2863H18.2705H18.2547H18.2389H18.2231H18.2073H18.1914H18.1756H18.1598H18.144H18.1282H18.1124H18.0966H18.0808H18.0649H18.0491H18.0333H18.0175H18.0017H17.9859H17.9701H17.9543H17.9384H17.9226H17.9068H17.891H17.8752H17.8594H17.8436H17.8278H17.8119H17.7961H17.7803H17.7645H17.7487H17.7329H17.7171H17.7012H17.6854H17.6696H17.6538H17.638H17.6222H17.6064H17.5906H17.5747H17.5589H17.5431H17.5273H17.5115H17.4957H17.4799H17.464H17.4482H17.4324H17.4166H17.4008H17.385H17.3692H17.3534H17.3375H17.3217H17.3059H17.2901H17.2743H17.2585H17.2427H17.2268H17.211H17.1952H17.1794H17.1636H17.1478H17.132H17.1161H17.1003H17.0845H17.0687H17.0529H17.0371H17.0213H17.0055H16.9896H16.9738H16.958H16.9422H16.9264H16.9106H16.8948H16.8789H16.8631H16.8473H16.8315H16.8157H16.7999H16.7841H16.7683H16.7524H16.7366H16.7208H16.705H16.6892H16.6734H16.6576H16.6418H16.6259H16.6101H16.5943H16.5785H16.5627H16.5469H16.5311H16.5153H16.4994H16.4836H16.4678H16.452H16.4362H16.4204H16.4046H16.3888H16.3729H16.3571H16.3413H16.3255H16.3097H16.2939H16.2781H16.2623H16.2464H16.2306H16.2148H16.199H16.1832H16.1674H16.1516H16.1358H16.12H16.1041H16.0883H16.0725H16.0567H16.0409H16.0251H16.0093H15.9935H15.9777H15.9618H15.946H15.9302H15.9144H15.8986H15.8828H15.867H15.8512H15.8354H15.8196H15.8037H15.7879H15.7721H15.7563H15.7405H15.7247H15.7089H15.6931H15.6773H15.6615H15.6457H15.6298H15.614H15.5982H15.5824H15.5666H15.5508H15.535H15.5192H15.5034H15.4876H15.4718H15.456H15.4401H15.4243H15.4085H15.3927H15.3769H15.3611H15.3453H15.3295H15.3137H15.2979H15.2821H15.2663H15.2586C15.6948 10.9748 15.9481 10.5769 16.0762 10.1712C16.0994 10.1311 16.1172 10.0873 16.1286 10.0407C16.1953 9.76908 16.208 9.49796 16.2064 9.25346C16.2057 9.13061 16.2012 9.00843 16.1968 8.8941L16.196 8.87294C16.1919 8.76419 16.188 8.66277 16.1866 8.5626C16.1807 8.13013 16.2276 7.83893 16.4124 7.6057C16.4165 7.60061 16.4205 7.5957 16.4243 7.59097C16.4743 7.52898 16.501 7.49593 16.5322 7.46628C16.5594 7.44046 16.5761 7.4318 16.5887 7.42731L16.5893 7.4271C16.6139 7.41833 16.6576 7.40726 16.7733 7.47054C16.9028 7.54136 17.0459 7.66408 17.2342 7.83694C17.2516 7.85292 17.2695 7.86947 17.2879 7.88648C17.4466 8.03301 17.6417 8.21306 17.8418 8.34343C18.0684 8.49098 18.3995 8.64112 18.7829 8.5406L18.7829 8.54065L18.7897 8.53879C19.1333 8.44356 19.332 8.19666 19.4535 7.97959C19.5497 7.80767 19.6265 7.59877 19.6903 7.42518C19.7016 7.39432 19.7125 7.36456 19.7231 7.33634C19.881 6.91409 20.0344 6.60069 20.3662 6.41574L20.3662 6.41574L20.368 6.4147C20.4197 6.38563 20.5217 6.33048 20.6392 6.30246C20.7569 6.27436 20.8316 6.28667 20.8819 6.31708L20.8821 6.3172C20.8834 6.31805 20.8905 6.32281 20.9018 6.33175C20.921 6.34688 20.9463 6.36935 20.9708 6.39763C21.0202 6.45458 21.0469 6.51139 21.0495 6.57015C21.0494 6.59138 21.0483 6.62576 21.0407 6.66347C21.0389 6.6723 21.037 6.68017 21.035 6.68708C21.032 6.68759 21.0288 6.68815 21.0253 6.68876C21.0042 6.69238 20.9738 6.69772 20.9407 6.70517C20.8717 6.72069 20.7816 6.74727 20.6857 6.8013C20.4942 6.90906 20.3686 7.07703 20.2882 7.22713C20.2052 7.38193 20.1504 7.55441 20.1182 7.72258C20.0563 8.04482 20.0609 8.441 20.2009 8.76803C20.4678 9.41007 21.1661 9.67532 21.7767 9.75339C22.4225 9.83597 23.1689 9.74287 23.8099 9.48743L23.8113 9.48686C24.9003 9.04899 25.488 8.21347 26.1881 7.21817C26.2211 7.17123 26.2544 7.12392 26.288 7.07629C26.5989 6.63782 26.8827 6.2347 27.1437 5.86382C27.7003 5.0731 28.1537 4.4289 28.5477 3.90098C29.1284 3.12289 29.5447 2.64716 29.9241 2.35551C30.7213 1.75341 32.5876 0.348621 34.923 0.51331C36.3023 0.614307 37.3825 1.29635 39.802 2.8919L39.803 2.89256C41.0166 3.68877 41.7077 4.26191 42.2794 4.7361C42.3488 4.79369 42.4165 4.84981 42.4831 4.9047C43.1154 5.42556 43.6594 5.83846 44.6655 6.27963L44.6662 6.27991C45.2254 6.52419 45.7595 6.70462 46.2529 6.83944C45.6028 6.80805 44.8855 6.71257 44.1457 6.51764L44.145 6.51748C43.335 6.30517 42.7762 6.04796 42.0933 5.73365C42.0234 5.70147 41.9522 5.66869 41.8793 5.6353C41.0891 5.27344 40.141 4.86114 38.5769 4.41947L38.5764 4.41936C38.3477 4.35497 36.9737 3.98423 35.2869 4.29672L35.2848 4.29711C34.2619 4.49108 33.6842 4.82888 33.3042 5.36362L33.3042 5.36359L33.3004 5.36903C33.2979 5.37259 33.2946 5.37735 33.2904 5.38328C33.2421 5.45145 33.0849 5.67362 32.961 5.97619C32.8269 6.30345 32.7134 6.76704 32.8367 7.2761L32.8369 7.27669C33.0653 8.21451 33.9484 8.79571 34.7205 8.86909C35.5867 8.95423 36.2295 8.42011 36.6296 8.06141C36.6944 8.00337 36.7517 7.95092 36.8035 7.90352C36.8832 7.8306 36.9498 7.76961 37.0105 7.71849C37.0183 7.84681 37.0163 8.00195 37.0138 8.19915C37.0131 8.24844 37.0124 8.30035 37.0119 8.35513C37.0057 8.96418 37.016 9.82098 37.442 10.6079ZM20.8952 6.32482C20.8885 6.32107 20.8845 6.31865 20.8829 6.31763L20.8952 6.32482ZM36.9769 7.50127C36.9769 7.50121 36.9774 7.50211 36.9782 7.50418C36.9773 7.50237 36.9768 7.50134 36.9769 7.50127ZM37.1989 7.58549C37.1988 7.5857 37.1965 7.58676 37.1923 7.58806C37.1969 7.58593 37.199 7.58528 37.1989 7.58549Z" fill="url(#paint2_linear_311_15036)" stroke="black" stroke-linecap="round" stroke-linejoin="round"/>
<defs>
<linearGradient id="paint0_linear_311_15036" x1="28.7034" y1="65.5328" x2="27.9955" y2="50.5671" gradientUnits="userSpaceOnUse">
<stop offset="0.2" stop-color="#918789"/>
<stop offset="0.55" stop-color="#BBB0AE"/>
<stop offset="0.83" stop-color="#D7CCC8"/>
<stop offset="1" stop-color="#E2D7D2"/>
</linearGradient>
<linearGradient id="paint1_linear_311_15036" x1="31.7064" y1="65.3866" x2="30.9859" y2="50.4324" gradientUnits="userSpaceOnUse">
<stop offset="0.2" stop-color="#918789"/>
<stop offset="0.55" stop-color="#BBB0AE"/>
<stop offset="0.83" stop-color="#D7CCC8"/>
<stop offset="1" stop-color="#E2D7D2"/>
</linearGradient>
<linearGradient id="paint2_linear_311_15036" x1="33.3925" y1="65.3084" x2="32.6847" y2="50.3427" gradientUnits="userSpaceOnUse">
<stop offset="0.2" stop-color="#918789"/>
<stop offset="0.55" stop-color="#BBB0AE"/>
<stop offset="0.83" stop-color="#D7CCC8"/>
<stop offset="1" stop-color="#E2D7D2"/>
</linearGradient>
</defs>
</svg>
