<svg width="46" height="46" viewBox="0 0 46 46" fill="none" xmlns="http://www.w3.org/2000/svg">
<g clip-path="url(#clip0_339_8211)">
<rect width="46" height="46" rx="23" fill="url(#paint0_linear_339_8211)"/>
<g clip-path="url(#clip1_339_8211)">
<rect width="46" height="46" rx="23" fill="url(#paint1_linear_339_8211)"/>
<path d="M34.8239 34.2702L16.9328 11H11L28.8911 34.2702H34.8239Z" stroke="white" stroke-linecap="round" stroke-linejoin="round"/>
<path d="M34.8239 11.082C26.886 18.8046 18.9482 26.5169 11 34.2394" stroke="white" stroke-linecap="round" stroke-linejoin="round"/>
<g clip-path="url(#clip2_339_8211)">
<rect width="46" height="46" rx="23" fill="url(#paint2_linear_339_8211)"/>
<path d="M23 46C35.7025 46 46 35.7025 46 23C46 10.2974 35.7025 0 23 0C10.2975 0 0 10.2974 0 23C0 35.7025 10.2975 46 23 46Z" stroke="white" stroke-width="1.33333" stroke-linecap="round" stroke-linejoin="round"/>
<path d="M23.0001 38.5861C31.6081 38.5861 38.5863 31.6079 38.5863 22.9998C38.5863 14.3918 31.6081 7.41357 23.0001 7.41357C14.392 7.41357 7.41382 14.3918 7.41382 22.9998C7.41382 31.6079 14.392 38.5861 23.0001 38.5861Z" stroke="white" stroke-width="0.7" stroke-linecap="round" stroke-linejoin="round"/>
<path d="M31.1094 40.2617C37.6379 37.4321 42.2063 30.9352 42.2063 23.3634C42.2063 20.0122 41.3052 16.8823 39.7403 14.1792" stroke="white" stroke-linecap="round" stroke-linejoin="round"/>
<path d="M3.88874 22.6523C3.88874 22.9211 3.84131 23.1898 3.84131 23.4744C3.84131 33.6386 12.0929 41.8902 22.2571 41.8902C22.763 41.8902 23.253 41.8586 23.743 41.8111" stroke="white" stroke-linecap="round" stroke-linejoin="round"/>
<path d="M15.5072 15.4438C15.5072 15.4438 15.602 15.3647 15.6653 15.4438C16.1079 15.9654 16.5189 16.5029 16.8508 17.1036C17.4989 18.2734 17.8467 19.5379 17.9416 20.8816C17.9416 20.9606 17.9257 20.9922 17.8467 20.9922C17.7519 20.9922 17.657 20.9922 17.5622 20.9922C17.3251 20.9922 17.1828 21.1187 17.1828 21.3558C17.1828 21.8933 17.1512 22.4149 17.1986 22.9524C17.1986 23.0788 17.2776 23.1737 17.3883 23.2211C17.4831 23.2685 17.5938 23.2844 17.6886 23.2844C17.9574 23.2844 17.9574 23.2843 17.9416 23.5531C17.9416 23.6321 17.9099 23.6795 17.8309 23.6795C17.6096 23.6954 17.4199 23.7744 17.2302 23.8692C16.677 24.1696 16.3608 24.6438 16.3292 25.2761C16.2976 25.94 16.5663 26.4617 17.1354 26.8252C17.4989 27.0465 17.8941 27.1098 18.3209 27.0782C18.4158 27.0782 18.479 27.094 18.5264 27.1888C18.7319 27.5998 18.9849 27.9792 19.301 28.327C19.3959 28.4376 19.3959 28.4534 19.2536 28.5008C18.3526 28.7538 17.4673 28.9909 16.5663 29.2438C15.9972 29.4019 15.4124 29.5599 14.8433 29.7338C14.622 29.797 14.5271 29.9077 14.5271 30.0974C14.5271 30.2871 14.6378 30.4135 14.8591 30.461H14.8907C15.9656 30.6665 16.3766 30.7297 16.3766 30.7297C17.0879 30.8245 17.7677 31.0142 18.479 31.1249C18.479 31.1249 18.5264 31.1249 18.5422 31.1565C18.5422 31.1881 18.5422 31.2197 18.5422 31.2513C18.4316 31.5517 18.3051 31.8679 18.1945 32.1682C18.0048 32.6898 17.7993 33.2115 17.6096 33.7331C17.5464 33.907 17.5938 34.0335 17.6886 34.1283C17.7835 34.1599 17.8941 34.1916 17.989 34.239C17.989 34.239 18.0048 34.239 18.0206 34.239C18.2103 34.1916 18.3842 34.0967 18.5739 34.0177C19.5381 33.6383 20.5024 33.2431 21.4508 32.8637C21.4983 32.8479 21.5299 32.8479 21.5615 32.8637C21.6089 32.8795 21.6247 32.9269 21.6405 32.9428C21.9883 33.6383 22.4151 34.2864 22.7471 34.9819C22.7945 35.061 22.8577 35.2032 23 35.2665C23.2055 35.3613 23.49 35.2981 23.6323 35.1242C23.6639 35.0768 23.6797 35.0293 23.6955 35.0135C23.9326 34.2706 24.723 33.2431 24.8811 32.9586C24.9285 32.8637 24.9759 32.8479 25.0866 32.8953C26.1773 33.3379 27.2522 33.7648 28.3429 34.2074C28.5168 34.2706 28.6749 34.318 28.833 34.1916C28.9752 34.0809 29.0068 33.9702 28.9278 33.7647C28.7697 33.3379 28.6117 32.9112 28.4536 32.4685C28.3113 32.0734 28.1532 31.6782 28.011 31.283C27.9794 31.1881 27.9794 31.1407 28.1058 31.1249C28.4378 31.0775 28.7539 30.9668 29.0859 30.951C29.244 30.951 29.0859 30.951 30.1134 30.7613C30.7141 30.6506 31.0302 30.6032 31.0302 30.6032C31.2673 30.5558 31.5044 30.5242 31.7416 30.461C31.8838 30.4293 31.9945 30.3187 32.0103 30.1606C32.0103 30.0025 31.9471 29.8603 31.789 29.7812C31.7416 29.7654 31.6941 29.7338 31.6309 29.718C31.378 29.639 31.1251 29.5758 30.8721 29.4967C29.6708 29.1489 28.4694 28.8012 27.2838 28.4692C27.1416 28.4218 27.1416 28.4218 27.2364 28.3111C27.5367 27.9634 27.8055 27.584 28.011 27.173C28.0584 27.0782 28.1058 27.0623 28.2007 27.0623C28.4062 27.0623 28.6117 27.0623 28.8014 27.0149C29.4337 26.841 29.8605 26.4617 30.0343 25.8452C30.2082 25.2287 30.0818 24.6596 29.6233 24.1854C29.3862 23.9324 29.0859 23.7744 28.7381 23.6953C28.6907 23.6953 28.6117 23.6953 28.5959 23.6005C28.5484 23.3317 28.5959 23.2844 28.8488 23.2844C28.8962 23.2844 28.9278 23.2844 28.9752 23.2844C29.1965 23.2527 29.3388 23.1579 29.3546 22.984C29.402 22.4307 29.402 21.8775 29.3546 21.3242C29.3546 21.1345 29.1965 21.0081 28.991 21.0081C28.8962 21.0081 28.7855 21.0081 28.6907 21.0081C28.6117 21.0081 28.58 20.9923 28.5959 20.9132C28.6591 20.2651 28.7381 19.6012 28.9278 18.9689C29.3072 17.6727 29.9395 16.5187 30.8405 15.507C30.9038 15.428 30.9512 15.428 31.0302 15.4754C31.4096 15.7125 31.8206 15.7283 32.2158 15.507C32.5952 15.2857 32.7849 14.9537 32.7849 14.5111C32.7849 13.9895 32.4213 13.5469 31.9154 13.4204C31.4412 13.2939 30.8721 13.5627 30.6508 14.0211C30.5876 14.1476 30.5244 14.1792 30.3979 14.1792C29.4811 14.1476 28.58 14.1792 27.6632 14.1792C27.3787 14.1792 27.0783 14.1792 26.7938 14.2266C25.2763 14.5111 24.1223 15.3015 23.411 16.6768C23.3794 16.7558 23.3477 16.8823 23.2845 16.8823C23.2055 16.8823 23.1897 16.7558 23.1581 16.6768C22.6048 15.6018 21.7354 14.8589 20.5972 14.4479C20.0282 14.2424 19.4275 14.1792 18.8268 14.1792C17.9257 14.1792 17.0089 14.1792 16.1079 14.1792C16.013 14.1792 15.9656 14.1476 15.9182 14.0685C15.7127 13.6575 15.3965 13.4362 14.9223 13.4204C14.4481 13.4204 14.0529 13.6733 13.8474 14.1159C13.6735 14.5111 13.7684 15.017 14.0687 15.3332C14.4481 15.7283 15.033 15.7916 15.5072 15.507V15.4438ZM31.6467 14.1002C31.8206 14.1002 32.0261 14.3215 32.0261 14.4954C32.0261 14.7009 31.8364 14.8905 31.6309 14.8905C31.4412 14.8905 31.2357 14.7009 31.2357 14.4954C31.2357 14.2899 31.4254 14.1002 31.6309 14.1002H31.6467ZM18.0364 26.2878C17.7044 26.2878 17.3725 26.0348 17.2302 25.6713C17.0405 25.197 17.3093 24.6122 17.7835 24.4541C17.9099 24.4067 17.9416 24.4225 17.9416 24.5648C17.9416 24.6596 17.9416 24.7703 17.9416 24.8651C17.9416 25.3077 18.0206 25.7503 18.1312 26.1771C18.1629 26.2878 18.1312 26.3036 18.0364 26.3036V26.2878ZM29.8605 29.9867C29.8605 29.9867 29.8763 29.9867 29.9237 30.0183C29.6866 30.0974 29.4811 30.1132 29.2598 30.1606C28.6433 30.2713 28.0268 30.3819 27.4103 30.4926C27.1257 30.54 27.0151 30.7455 27.1099 31.0459C27.268 31.5043 27.4577 31.9627 27.6316 32.4211C27.7106 32.6424 27.8055 32.8637 27.8845 33.085C27.8845 33.1166 27.9477 33.1641 27.9003 33.2115C27.8687 33.2431 27.8213 33.2115 27.7739 33.1957C27.0151 32.8953 26.2405 32.5792 25.4818 32.2789C25.3079 32.2156 25.134 32.1366 24.9601 32.0734C24.723 31.9785 24.5807 32.0259 24.4385 32.263C24.2488 32.595 24.0591 32.9269 23.8694 33.2431C23.6955 33.5592 23.5058 33.8754 23.3319 34.1916C23.2529 34.318 23.2529 34.318 23.1739 34.1916C22.8261 33.5751 22.4783 32.9586 22.1148 32.3263C21.9409 32.0101 21.8144 31.9627 21.4666 32.105C20.5498 32.4843 19.6172 32.8479 18.7003 33.2273C18.6687 33.2273 18.6371 33.2747 18.6213 33.2431C18.5897 33.2115 18.6213 33.1641 18.6213 33.1167C18.811 32.6266 19.0007 32.1208 19.1904 31.6307C19.2694 31.4252 19.3484 31.2355 19.4117 31.0301C19.5065 30.7455 19.38 30.5558 19.0955 30.5084C18.6371 30.4293 18.1787 30.3503 17.7203 30.2555C17.4041 30.1923 17.0721 30.1448 16.756 30.0816C16.7086 30.0816 16.6611 30.0816 16.6137 30.0026C16.7086 29.971 16.7876 29.9551 16.8824 29.9235C17.9099 29.6232 18.9374 29.3386 19.9649 29.0383C20.0282 29.0225 20.0914 29.0383 20.1388 29.0857C20.945 29.6706 21.846 30.0184 22.8419 30.0974C23.9642 30.1764 25.0233 29.9393 25.9876 29.3545C26.1299 29.2754 26.2563 29.1805 26.3828 29.0857C26.446 29.0383 26.4934 29.0383 26.5567 29.0541C27.6632 29.3703 28.7539 29.6864 29.8605 30.0026V29.9867ZM27.8371 24.96C27.7581 26.4142 27.1416 27.5998 25.956 28.4692C25.134 29.0857 24.2014 29.3544 23.1897 29.3386C21.0556 29.307 19.3959 27.8527 18.89 26.0665C18.7477 25.5922 18.7003 25.118 18.7003 24.628C18.7003 24.2328 18.7003 23.8218 18.7003 23.4266C18.7003 23.3002 18.7319 23.2527 18.8584 23.2685C20.3285 23.2685 21.8144 23.2685 23.2845 23.2685C24.7546 23.2685 26.2089 23.2685 27.679 23.2685C27.8055 23.2685 27.8371 23.3001 27.8371 23.4424C27.8371 23.9482 27.8529 24.4699 27.8371 24.9757V24.96ZM28.58 24.5805C28.58 24.4067 28.58 24.4067 28.7539 24.4699C29.1175 24.6122 29.3704 24.9915 29.3704 25.3709C29.3704 25.7503 29.0859 26.1297 28.7223 26.2561C28.6591 26.2719 28.5958 26.3036 28.5326 26.2878C28.3745 26.2878 28.3746 26.2878 28.4062 26.1455C28.5326 25.6397 28.6117 25.118 28.58 24.5805ZM23.6639 18.4472C23.6797 17.6727 23.9642 16.9929 24.4227 16.3764C24.9759 15.6493 25.6873 15.1909 26.5725 14.9854C26.8728 14.9222 27.1732 14.8747 27.4893 14.8747C28.3904 14.8747 29.3072 14.8747 30.2082 14.8747C30.2557 14.8747 30.3031 14.8589 30.3347 14.9063C30.3505 14.9537 30.3031 14.9695 30.2714 15.0012C29.1491 16.25 28.422 17.6885 28.0584 19.3325C27.9477 19.8383 27.8687 20.3442 27.8529 20.8658C27.8529 20.9765 27.7897 20.9764 27.7106 20.9764C27.0625 20.9764 26.3986 20.9764 25.7505 20.9764C25.1024 20.9764 24.4543 20.9764 23.822 20.9764C23.7113 20.9764 23.6797 20.9606 23.6797 20.8342C23.6797 20.0438 23.6797 19.2376 23.6797 18.4472H23.6639ZM28.3745 21.7194C28.3745 21.7194 28.4536 21.7194 28.4852 21.7194C28.58 21.7194 28.6117 21.751 28.6117 21.8459C28.6117 22.0197 28.6117 22.1936 28.6117 22.3517C28.6117 22.4466 28.58 22.4782 28.501 22.4782C28.1532 22.4782 27.8213 22.4782 27.4735 22.4782C26.0824 22.4782 24.6756 22.4782 23.2845 22.4782C21.5615 22.4782 19.8543 22.4782 18.1312 22.4782C18.0048 22.4782 17.9416 22.4149 17.9416 22.2885C17.9416 22.1304 17.9416 21.9881 17.9416 21.83C17.9416 21.7352 17.9732 21.7036 18.068 21.7036C18.0996 21.7036 18.1471 21.7036 18.1787 21.7036C21.5773 21.7036 24.9759 21.7036 28.3745 21.7036V21.7194ZM16.4398 14.8747C17.3725 14.8747 18.3051 14.8431 19.2378 14.8747C21.1505 14.9538 22.5574 16.3448 22.8419 18.0678C22.8577 18.1943 22.8735 18.3208 22.8735 18.463C22.8735 19.2534 22.8735 20.028 22.8735 20.8184C22.8735 20.9448 22.8419 20.9764 22.7154 20.9764C22.0673 20.9764 21.4192 20.9764 20.7711 20.9764C20.123 20.9764 19.4749 20.9764 18.8268 20.9764C18.7161 20.9764 18.6845 20.9448 18.6845 20.8342C18.558 18.6527 17.7677 16.7242 16.345 15.0644C16.2976 15.0012 16.2027 14.9538 16.2343 14.8747C16.266 14.8115 16.3608 14.8589 16.4398 14.8589V14.8747ZM14.8907 14.1002C15.0804 14.1002 15.2859 14.3056 15.2859 14.5111C15.2859 14.7008 15.0962 14.9063 14.9065 14.9063C14.6852 14.9063 14.4955 14.7167 14.4955 14.4954C14.4955 14.3057 14.701 14.1002 14.8907 14.1002Z" fill="white"/>
<g clip-path="url(#clip3_339_8211)">
<rect width="46" height="46" rx="23" fill="url(#paint3_linear_339_8211)"/>
<g clip-path="url(#clip4_339_8211)">
<rect width="46" height="46" rx="23" fill="url(#paint4_linear_339_8211)"/>
<g clip-path="url(#clip5_339_8211)">
<rect width="46" height="46" rx="23" fill="url(#paint5_linear_339_8211)"/>
<path d="M23 46C35.7025 46 46 35.7025 46 23C46 10.2974 35.7025 0 23 0C10.2975 0 0 10.2974 0 23C0 35.7025 10.2975 46 23 46Z" stroke="white" stroke-width="1.33333" stroke-linecap="round" stroke-linejoin="round"/>
<path d="M23.0001 38.5861C31.6081 38.5861 38.5863 31.6079 38.5863 22.9998C38.5863 14.3918 31.6081 7.41357 23.0001 7.41357C14.392 7.41357 7.41382 14.3918 7.41382 22.9998C7.41382 31.6079 14.392 38.5861 23.0001 38.5861Z" stroke="white" stroke-width="0.7" stroke-linecap="round" stroke-linejoin="round"/>
<path d="M31.1094 40.2617C37.6379 37.4321 42.2063 30.9352 42.2063 23.3634C42.2063 20.0122 41.3052 16.8823 39.7403 14.1792" stroke="white" stroke-linecap="round" stroke-linejoin="round"/>
<path d="M3.88874 22.6523C3.88874 22.9211 3.84131 23.1898 3.84131 23.4744C3.84131 33.6386 12.0929 41.8902 22.2571 41.8902C22.763 41.8902 23.253 41.8586 23.743 41.8111" stroke="white" stroke-linecap="round" stroke-linejoin="round"/>
<path d="M15.5072 15.4438C15.5072 15.4438 15.602 15.3647 15.6653 15.4438C16.1079 15.9654 16.5189 16.5029 16.8508 17.1036C17.4989 18.2734 17.8467 19.5379 17.9416 20.8816C17.9416 20.9606 17.9257 20.9922 17.8467 20.9922C17.7519 20.9922 17.657 20.9922 17.5622 20.9922C17.3251 20.9922 17.1828 21.1187 17.1828 21.3558C17.1828 21.8933 17.1512 22.4149 17.1986 22.9524C17.1986 23.0788 17.2776 23.1737 17.3883 23.2211C17.4831 23.2685 17.5938 23.2844 17.6886 23.2844C17.9574 23.2844 17.9574 23.2843 17.9416 23.5531C17.9416 23.6321 17.9099 23.6795 17.8309 23.6795C17.6096 23.6954 17.4199 23.7744 17.2302 23.8692C16.677 24.1696 16.3608 24.6438 16.3292 25.2761C16.2976 25.94 16.5663 26.4617 17.1354 26.8252C17.4989 27.0465 17.8941 27.1098 18.3209 27.0782C18.4158 27.0782 18.479 27.094 18.5264 27.1888C18.7319 27.5998 18.9849 27.9792 19.301 28.327C19.3959 28.4376 19.3959 28.4534 19.2536 28.5008C18.3526 28.7538 17.4673 28.9909 16.5663 29.2438C15.9972 29.4019 15.4124 29.5599 14.8433 29.7338C14.622 29.797 14.5271 29.9077 14.5271 30.0974C14.5271 30.2871 14.6378 30.4135 14.8591 30.461H14.8907C15.9656 30.6665 16.3766 30.7297 16.3766 30.7297C17.0879 30.8245 17.7677 31.0142 18.479 31.1249C18.479 31.1249 18.5264 31.1249 18.5422 31.1565C18.5422 31.1881 18.5422 31.2197 18.5422 31.2513C18.4316 31.5517 18.3051 31.8679 18.1945 32.1682C18.0048 32.6898 17.7993 33.2115 17.6096 33.7331C17.5464 33.907 17.5938 34.0335 17.6886 34.1283C17.7835 34.1599 17.8941 34.1916 17.989 34.239C17.989 34.239 18.0048 34.239 18.0206 34.239C18.2103 34.1916 18.3842 34.0967 18.5739 34.0177C19.5381 33.6383 20.5024 33.2431 21.4508 32.8637C21.4983 32.8479 21.5299 32.8479 21.5615 32.8637C21.6089 32.8795 21.6247 32.9269 21.6405 32.9428C21.9883 33.6383 22.4151 34.2864 22.7471 34.9819C22.7945 35.061 22.8577 35.2032 23 35.2665C23.2055 35.3613 23.49 35.2981 23.6323 35.1242C23.6639 35.0768 23.6797 35.0293 23.6955 35.0135C23.9326 34.2706 24.723 33.2431 24.8811 32.9586C24.9285 32.8637 24.9759 32.8479 25.0866 32.8953C26.1773 33.3379 27.2522 33.7648 28.3429 34.2074C28.5168 34.2706 28.6749 34.318 28.833 34.1916C28.9752 34.0809 29.0068 33.9702 28.9278 33.7647C28.7697 33.3379 28.6117 32.9112 28.4536 32.4685C28.3113 32.0734 28.1532 31.6782 28.011 31.283C27.9794 31.1881 27.9794 31.1407 28.1058 31.1249C28.4378 31.0775 28.7539 30.9668 29.0859 30.951C29.244 30.951 29.0859 30.951 30.1134 30.7613C30.7141 30.6506 31.0302 30.6032 31.0302 30.6032C31.2673 30.5558 31.5044 30.5242 31.7416 30.461C31.8838 30.4293 31.9945 30.3187 32.0103 30.1606C32.0103 30.0025 31.9471 29.8603 31.789 29.7812C31.7416 29.7654 31.6941 29.7338 31.6309 29.718C31.378 29.639 31.1251 29.5758 30.8721 29.4967C29.6708 29.1489 28.4694 28.8012 27.2838 28.4692C27.1416 28.4218 27.1416 28.4218 27.2364 28.3111C27.5367 27.9634 27.8055 27.584 28.011 27.173C28.0584 27.0782 28.1058 27.0623 28.2007 27.0623C28.4062 27.0623 28.6117 27.0623 28.8014 27.0149C29.4337 26.841 29.8605 26.4617 30.0343 25.8452C30.2082 25.2287 30.0818 24.6596 29.6233 24.1854C29.3862 23.9324 29.0859 23.7744 28.7381 23.6953C28.6907 23.6953 28.6117 23.6953 28.5959 23.6005C28.5484 23.3317 28.5959 23.2844 28.8488 23.2844C28.8962 23.2844 28.9278 23.2844 28.9752 23.2844C29.1965 23.2527 29.3388 23.1579 29.3546 22.984C29.402 22.4307 29.402 21.8775 29.3546 21.3242C29.3546 21.1345 29.1965 21.0081 28.991 21.0081C28.8962 21.0081 28.7855 21.0081 28.6907 21.0081C28.6117 21.0081 28.58 20.9923 28.5959 20.9132C28.6591 20.2651 28.7381 19.6012 28.9278 18.9689C29.3072 17.6727 29.9395 16.5187 30.8405 15.507C30.9038 15.428 30.9512 15.428 31.0302 15.4754C31.4096 15.7125 31.8206 15.7283 32.2158 15.507C32.5952 15.2857 32.7849 14.9537 32.7849 14.5111C32.7849 13.9895 32.4213 13.5469 31.9154 13.4204C31.4412 13.2939 30.8721 13.5627 30.6508 14.0211C30.5876 14.1476 30.5244 14.1792 30.3979 14.1792C29.4811 14.1476 28.58 14.1792 27.6632 14.1792C27.3787 14.1792 27.0783 14.1792 26.7938 14.2266C25.2763 14.5111 24.1223 15.3015 23.411 16.6768C23.3794 16.7558 23.3477 16.8823 23.2845 16.8823C23.2055 16.8823 23.1897 16.7558 23.1581 16.6768C22.6048 15.6018 21.7354 14.8589 20.5972 14.4479C20.0282 14.2424 19.4275 14.1792 18.8268 14.1792C17.9257 14.1792 17.0089 14.1792 16.1079 14.1792C16.013 14.1792 15.9656 14.1476 15.9182 14.0685C15.7127 13.6575 15.3965 13.4362 14.9223 13.4204C14.4481 13.4204 14.0529 13.6733 13.8474 14.1159C13.6735 14.5111 13.7684 15.017 14.0687 15.3332C14.4481 15.7283 15.033 15.7916 15.5072 15.507V15.4438ZM31.6467 14.1002C31.8206 14.1002 32.0261 14.3215 32.0261 14.4954C32.0261 14.7009 31.8364 14.8905 31.6309 14.8905C31.4412 14.8905 31.2357 14.7009 31.2357 14.4954C31.2357 14.2899 31.4254 14.1002 31.6309 14.1002H31.6467ZM18.0364 26.2878C17.7044 26.2878 17.3725 26.0348 17.2302 25.6713C17.0405 25.197 17.3093 24.6122 17.7835 24.4541C17.9099 24.4067 17.9416 24.4225 17.9416 24.5648C17.9416 24.6596 17.9416 24.7703 17.9416 24.8651C17.9416 25.3077 18.0206 25.7503 18.1312 26.1771C18.1629 26.2878 18.1312 26.3036 18.0364 26.3036V26.2878ZM29.8605 29.9867C29.8605 29.9867 29.8763 29.9867 29.9237 30.0183C29.6866 30.0974 29.4811 30.1132 29.2598 30.1606C28.6433 30.2713 28.0268 30.3819 27.4103 30.4926C27.1257 30.54 27.0151 30.7455 27.1099 31.0459C27.268 31.5043 27.4577 31.9627 27.6316 32.4211C27.7106 32.6424 27.8055 32.8637 27.8845 33.085C27.8845 33.1166 27.9477 33.1641 27.9003 33.2115C27.8687 33.2431 27.8213 33.2115 27.7739 33.1957C27.0151 32.8953 26.2405 32.5792 25.4818 32.2789C25.3079 32.2156 25.134 32.1366 24.9601 32.0734C24.723 31.9785 24.5807 32.0259 24.4385 32.263C24.2488 32.595 24.0591 32.9269 23.8694 33.2431C23.6955 33.5592 23.5058 33.8754 23.3319 34.1916C23.2529 34.318 23.2529 34.318 23.1739 34.1916C22.8261 33.5751 22.4783 32.9586 22.1148 32.3263C21.9409 32.0101 21.8144 31.9627 21.4666 32.105C20.5498 32.4843 19.6172 32.8479 18.7003 33.2273C18.6687 33.2273 18.6371 33.2747 18.6213 33.2431C18.5897 33.2115 18.6213 33.1641 18.6213 33.1167C18.811 32.6266 19.0007 32.1208 19.1904 31.6307C19.2694 31.4252 19.3484 31.2355 19.4117 31.0301C19.5065 30.7455 19.38 30.5558 19.0955 30.5084C18.6371 30.4293 18.1787 30.3503 17.7203 30.2555C17.4041 30.1923 17.0721 30.1448 16.756 30.0816C16.7086 30.0816 16.6611 30.0816 16.6137 30.0026C16.7086 29.971 16.7876 29.9551 16.8824 29.9235C17.9099 29.6232 18.9374 29.3386 19.9649 29.0383C20.0282 29.0225 20.0914 29.0383 20.1388 29.0857C20.945 29.6706 21.846 30.0184 22.8419 30.0974C23.9642 30.1764 25.0233 29.9393 25.9876 29.3545C26.1299 29.2754 26.2563 29.1805 26.3828 29.0857C26.446 29.0383 26.4934 29.0383 26.5567 29.0541C27.6632 29.3703 28.7539 29.6864 29.8605 30.0026V29.9867ZM27.8371 24.96C27.7581 26.4142 27.1416 27.5998 25.956 28.4692C25.134 29.0857 24.2014 29.3544 23.1897 29.3386C21.0556 29.307 19.3959 27.8527 18.89 26.0665C18.7477 25.5922 18.7003 25.118 18.7003 24.628C18.7003 24.2328 18.7003 23.8218 18.7003 23.4266C18.7003 23.3002 18.7319 23.2527 18.8584 23.2685C20.3285 23.2685 21.8144 23.2685 23.2845 23.2685C24.7546 23.2685 26.2089 23.2685 27.679 23.2685C27.8055 23.2685 27.8371 23.3001 27.8371 23.4424C27.8371 23.9482 27.8529 24.4699 27.8371 24.9757V24.96ZM28.58 24.5805C28.58 24.4067 28.58 24.4067 28.7539 24.4699C29.1175 24.6122 29.3704 24.9915 29.3704 25.3709C29.3704 25.7503 29.0859 26.1297 28.7223 26.2561C28.6591 26.2719 28.5958 26.3036 28.5326 26.2878C28.3745 26.2878 28.3746 26.2878 28.4062 26.1455C28.5326 25.6397 28.6117 25.118 28.58 24.5805ZM23.6639 18.4472C23.6797 17.6727 23.9642 16.9929 24.4227 16.3764C24.9759 15.6493 25.6873 15.1909 26.5725 14.9854C26.8728 14.9222 27.1732 14.8747 27.4893 14.8747C28.3904 14.8747 29.3072 14.8747 30.2082 14.8747C30.2557 14.8747 30.3031 14.8589 30.3347 14.9063C30.3505 14.9537 30.3031 14.9695 30.2714 15.0012C29.1491 16.25 28.422 17.6885 28.0584 19.3325C27.9477 19.8383 27.8687 20.3442 27.8529 20.8658C27.8529 20.9765 27.7897 20.9764 27.7106 20.9764C27.0625 20.9764 26.3986 20.9764 25.7505 20.9764C25.1024 20.9764 24.4543 20.9764 23.822 20.9764C23.7113 20.9764 23.6797 20.9606 23.6797 20.8342C23.6797 20.0438 23.6797 19.2376 23.6797 18.4472H23.6639ZM28.3745 21.7194C28.3745 21.7194 28.4536 21.7194 28.4852 21.7194C28.58 21.7194 28.6117 21.751 28.6117 21.8459C28.6117 22.0197 28.6117 22.1936 28.6117 22.3517C28.6117 22.4466 28.58 22.4782 28.501 22.4782C28.1532 22.4782 27.8213 22.4782 27.4735 22.4782C26.0824 22.4782 24.6756 22.4782 23.2845 22.4782C21.5615 22.4782 19.8543 22.4782 18.1312 22.4782C18.0048 22.4782 17.9416 22.4149 17.9416 22.2885C17.9416 22.1304 17.9416 21.9881 17.9416 21.83C17.9416 21.7352 17.9732 21.7036 18.068 21.7036C18.0996 21.7036 18.1471 21.7036 18.1787 21.7036C21.5773 21.7036 24.9759 21.7036 28.3745 21.7036V21.7194ZM16.4398 14.8747C17.3725 14.8747 18.3051 14.8431 19.2378 14.8747C21.1505 14.9538 22.5574 16.3448 22.8419 18.0678C22.8577 18.1943 22.8735 18.3208 22.8735 18.463C22.8735 19.2534 22.8735 20.028 22.8735 20.8184C22.8735 20.9448 22.8419 20.9764 22.7154 20.9764C22.0673 20.9764 21.4192 20.9764 20.7711 20.9764C20.123 20.9764 19.4749 20.9764 18.8268 20.9764C18.7161 20.9764 18.6845 20.9448 18.6845 20.8342C18.558 18.6527 17.7677 16.7242 16.345 15.0644C16.2976 15.0012 16.2027 14.9538 16.2343 14.8747C16.266 14.8115 16.3608 14.8589 16.4398 14.8589V14.8747ZM14.8907 14.1002C15.0804 14.1002 15.2859 14.3056 15.2859 14.5111C15.2859 14.7008 15.0962 14.9063 14.9065 14.9063C14.6852 14.9063 14.4955 14.7167 14.4955 14.4954C14.4955 14.3057 14.701 14.1002 14.8907 14.1002Z" fill="white"/>
<g clip-path="url(#clip6_339_8211)">
<rect width="46" height="46" rx="23" fill="url(#paint6_linear_339_8211)"/>
<path d="M34.1202 12.0145C33.8511 12.0736 33.582 12.1821 33.3218 12.2905C28.827 14.1443 24.3323 16.0276 19.8285 17.8616C17.173 18.9364 14.5174 20.0111 11.8708 21.1056C11.4312 21.293 10.9826 21.5099 11.0005 22.1409C11.0274 22.7523 11.5029 22.8509 11.9066 22.9988C13.4587 23.5411 15.0108 24.0933 16.5719 24.6159C16.9397 24.7441 17.155 24.961 17.2716 25.3751C17.8638 27.4162 18.4738 29.4572 19.0839 31.4983C19.1557 31.7448 19.2364 32.0012 19.3531 32.2181C19.6491 32.7802 20.1425 32.8985 20.636 32.5435C20.7975 32.4252 20.941 32.2773 21.0846 32.1393C21.892 31.311 22.6994 30.4827 23.4889 29.6446C23.7401 29.3784 23.9375 29.3587 24.2156 29.5953C25.0949 30.3348 25.992 31.0743 26.8981 31.7843C27.7415 32.4449 28.531 33.1844 29.4281 33.7465C30.3432 34.3184 31.1237 33.8944 31.3121 32.7604C31.357 32.4942 31.4019 32.2181 31.4467 31.942C32.4605 26.5978 33.4653 21.2535 34.4701 15.9092C34.6585 14.8936 34.8469 13.8682 34.9995 13.0005C35.0174 12.33 34.5868 11.9159 34.1202 12.0145Z" stroke="white" stroke-linecap="round" stroke-linejoin="round"/>
<path d="M30.5316 16.4811C29.9754 17.0332 29.4101 17.5854 28.8539 18.1376C26.2252 20.7407 23.6055 23.3635 20.95 25.9371C20.4206 26.4498 20.4117 27.0611 20.3399 27.702C20.2681 28.3528 20.1963 29.0036 20.1515 29.6642C20.1515 29.7234 20.1246 30.0093 20.0438 30.0291C19.999 30.0291 19.9362 29.96 19.9272 29.9502C19.8734 29.8812 19.8644 29.8023 19.8644 29.7826C19.4248 28.057 18.9762 26.3315 18.4469 24.6454C18.3392 24.3101 18.4917 24.1524 18.6981 24.0044C19.6491 23.3241 20.5911 22.6437 21.5421 21.9732C24.3502 19.9913 27.1673 18.0094 29.9754 16.0176C30.0382 15.9782 30.101 15.9388 30.1548 15.8993C30.3252 15.8007 30.4957 15.7021 30.6392 15.919C30.7918 16.1359 30.6931 16.3233 30.5316 16.4811Z" fill="white" stroke="white" stroke-width="0.25" stroke-miterlimit="10"/>
<g clip-path="url(#clip7_339_8211)">
<rect width="46" height="46" rx="23" fill="url(#paint7_linear_339_8211)"/>
<path d="M34.1202 12.0145C33.8511 12.0736 33.582 12.1821 33.3218 12.2905C28.827 14.1443 24.3323 16.0276 19.8285 17.8616C17.173 18.9364 14.5174 20.0111 11.8708 21.1056C11.4312 21.293 10.9826 21.5099 11.0005 22.1409C11.0274 22.7523 11.5029 22.8509 11.9066 22.9988C13.4587 23.5411 15.0108 24.0933 16.5719 24.6159C16.9397 24.7441 17.155 24.961 17.2716 25.3751C17.8638 27.4162 18.4738 29.4572 19.0839 31.4983C19.1557 31.7448 19.2364 32.0012 19.3531 32.2181C19.6491 32.7802 20.1425 32.8985 20.636 32.5435C20.7975 32.4252 20.941 32.2773 21.0846 32.1393C21.892 31.311 22.6994 30.4827 23.4889 29.6446C23.7401 29.3784 23.9375 29.3587 24.2156 29.5953C25.0949 30.3348 25.992 31.0743 26.8981 31.7843C27.7415 32.4449 28.531 33.1844 29.4281 33.7465C30.3432 34.3184 31.1237 33.8944 31.3121 32.7604C31.357 32.4942 31.4019 32.2181 31.4467 31.942C32.4605 26.5978 33.4653 21.2535 34.4701 15.9092C34.6585 14.8936 34.8469 13.8682 34.9995 13.0005C35.0174 12.33 34.5868 11.9159 34.1202 12.0145Z" stroke="white" stroke-linecap="round" stroke-linejoin="round"/>
<path d="M30.5316 16.4811C29.9754 17.0332 29.4101 17.5854 28.8539 18.1376C26.2252 20.7407 23.6055 23.3635 20.95 25.9371C20.4206 26.4498 20.4117 27.0611 20.3399 27.702C20.2681 28.3528 20.1963 29.0036 20.1515 29.6642C20.1515 29.7234 20.1246 30.0093 20.0438 30.0291C19.999 30.0291 19.9362 29.96 19.9272 29.9502C19.8734 29.8812 19.8644 29.8023 19.8644 29.7826C19.4248 28.057 18.9762 26.3315 18.4469 24.6454C18.3392 24.3101 18.4917 24.1524 18.6981 24.0044C19.6491 23.3241 20.5911 22.6437 21.5421 21.9732C24.3502 19.9913 27.1673 18.0094 29.9754 16.0176C30.0382 15.9782 30.101 15.9388 30.1548 15.8993C30.3252 15.8007 30.4957 15.7021 30.6392 15.919C30.7918 16.1359 30.6931 16.3233 30.5316 16.4811Z" fill="white" stroke="white" stroke-width="0.25" stroke-miterlimit="10"/>
<g clip-path="url(#clip8_339_8211)">
<rect width="46" height="46" rx="23" fill="url(#paint8_linear_339_8211)"/>
<path d="M23 46C35.7025 46 46 35.7025 46 23C46 10.2974 35.7025 0 23 0C10.2975 0 0 10.2974 0 23C0 35.7025 10.2975 46 23 46Z" stroke="white" stroke-width="1.33333" stroke-linecap="round" stroke-linejoin="round"/>
<path d="M23.0001 38.5861C31.6081 38.5861 38.5863 31.6079 38.5863 22.9998C38.5863 14.3918 31.6081 7.41357 23.0001 7.41357C14.392 7.41357 7.41382 14.3918 7.41382 22.9998C7.41382 31.6079 14.392 38.5861 23.0001 38.5861Z" stroke="white" stroke-width="0.7" stroke-linecap="round" stroke-linejoin="round"/>
<path d="M31.1094 40.2617C37.6379 37.4321 42.2063 30.9352 42.2063 23.3634C42.2063 20.0122 41.3052 16.8823 39.7403 14.1792" stroke="white" stroke-linecap="round" stroke-linejoin="round"/>
<path d="M3.88874 22.6523C3.88874 22.9211 3.84131 23.1898 3.84131 23.4744C3.84131 33.6386 12.0929 41.8902 22.2571 41.8902C22.763 41.8902 23.253 41.8586 23.743 41.8111" stroke="white" stroke-linecap="round" stroke-linejoin="round"/>
<path d="M15.5072 15.4438C15.5072 15.4438 15.602 15.3647 15.6653 15.4438C16.1079 15.9654 16.5189 16.5029 16.8508 17.1036C17.4989 18.2734 17.8467 19.5379 17.9416 20.8816C17.9416 20.9606 17.9257 20.9922 17.8467 20.9922C17.7519 20.9922 17.657 20.9922 17.5622 20.9922C17.3251 20.9922 17.1828 21.1187 17.1828 21.3558C17.1828 21.8933 17.1512 22.4149 17.1986 22.9524C17.1986 23.0788 17.2776 23.1737 17.3883 23.2211C17.4831 23.2685 17.5938 23.2844 17.6886 23.2844C17.9574 23.2844 17.9574 23.2843 17.9416 23.5531C17.9416 23.6321 17.9099 23.6795 17.8309 23.6795C17.6096 23.6954 17.4199 23.7744 17.2302 23.8692C16.677 24.1696 16.3608 24.6438 16.3292 25.2761C16.2976 25.94 16.5663 26.4617 17.1354 26.8252C17.4989 27.0465 17.8941 27.1098 18.3209 27.0782C18.4158 27.0782 18.479 27.094 18.5264 27.1888C18.7319 27.5998 18.9849 27.9792 19.301 28.327C19.3959 28.4376 19.3959 28.4534 19.2536 28.5008C18.3526 28.7538 17.4673 28.9909 16.5663 29.2438C15.9972 29.4019 15.4124 29.5599 14.8433 29.7338C14.622 29.797 14.5271 29.9077 14.5271 30.0974C14.5271 30.2871 14.6378 30.4135 14.8591 30.461H14.8907C15.9656 30.6665 16.3766 30.7297 16.3766 30.7297C17.0879 30.8245 17.7677 31.0142 18.479 31.1249C18.479 31.1249 18.5264 31.1249 18.5422 31.1565C18.5422 31.1881 18.5422 31.2197 18.5422 31.2513C18.4316 31.5517 18.3051 31.8679 18.1945 32.1682C18.0048 32.6898 17.7993 33.2115 17.6096 33.7331C17.5464 33.907 17.5938 34.0335 17.6886 34.1283C17.7835 34.1599 17.8941 34.1916 17.989 34.239C17.989 34.239 18.0048 34.239 18.0206 34.239C18.2103 34.1916 18.3842 34.0967 18.5739 34.0177C19.5381 33.6383 20.5024 33.2431 21.4508 32.8637C21.4983 32.8479 21.5299 32.8479 21.5615 32.8637C21.6089 32.8795 21.6247 32.9269 21.6405 32.9428C21.9883 33.6383 22.4151 34.2864 22.7471 34.9819C22.7945 35.061 22.8577 35.2032 23 35.2665C23.2055 35.3613 23.49 35.2981 23.6323 35.1242C23.6639 35.0768 23.6797 35.0293 23.6955 35.0135C23.9326 34.2706 24.723 33.2431 24.8811 32.9586C24.9285 32.8637 24.9759 32.8479 25.0866 32.8953C26.1773 33.3379 27.2522 33.7648 28.3429 34.2074C28.5168 34.2706 28.6749 34.318 28.833 34.1916C28.9752 34.0809 29.0068 33.9702 28.9278 33.7647C28.7697 33.3379 28.6117 32.9112 28.4536 32.4685C28.3113 32.0734 28.1532 31.6782 28.011 31.283C27.9794 31.1881 27.9794 31.1407 28.1058 31.1249C28.4378 31.0775 28.7539 30.9668 29.0859 30.951C29.244 30.951 29.0859 30.951 30.1134 30.7613C30.7141 30.6506 31.0302 30.6032 31.0302 30.6032C31.2673 30.5558 31.5044 30.5242 31.7416 30.461C31.8838 30.4293 31.9945 30.3187 32.0103 30.1606C32.0103 30.0025 31.9471 29.8603 31.789 29.7812C31.7416 29.7654 31.6941 29.7338 31.6309 29.718C31.378 29.639 31.1251 29.5758 30.8721 29.4967C29.6708 29.1489 28.4694 28.8012 27.2838 28.4692C27.1416 28.4218 27.1416 28.4218 27.2364 28.3111C27.5367 27.9634 27.8055 27.584 28.011 27.173C28.0584 27.0782 28.1058 27.0623 28.2007 27.0623C28.4062 27.0623 28.6117 27.0623 28.8014 27.0149C29.4337 26.841 29.8605 26.4617 30.0343 25.8452C30.2082 25.2287 30.0818 24.6596 29.6233 24.1854C29.3862 23.9324 29.0859 23.7744 28.7381 23.6953C28.6907 23.6953 28.6117 23.6953 28.5959 23.6005C28.5484 23.3317 28.5959 23.2844 28.8488 23.2844C28.8962 23.2844 28.9278 23.2844 28.9752 23.2844C29.1965 23.2527 29.3388 23.1579 29.3546 22.984C29.402 22.4307 29.402 21.8775 29.3546 21.3242C29.3546 21.1345 29.1965 21.0081 28.991 21.0081C28.8962 21.0081 28.7855 21.0081 28.6907 21.0081C28.6117 21.0081 28.58 20.9923 28.5959 20.9132C28.6591 20.2651 28.7381 19.6012 28.9278 18.9689C29.3072 17.6727 29.9395 16.5187 30.8405 15.507C30.9038 15.428 30.9512 15.428 31.0302 15.4754C31.4096 15.7125 31.8206 15.7283 32.2158 15.507C32.5952 15.2857 32.7849 14.9537 32.7849 14.5111C32.7849 13.9895 32.4213 13.5469 31.9154 13.4204C31.4412 13.2939 30.8721 13.5627 30.6508 14.0211C30.5876 14.1476 30.5244 14.1792 30.3979 14.1792C29.4811 14.1476 28.58 14.1792 27.6632 14.1792C27.3787 14.1792 27.0783 14.1792 26.7938 14.2266C25.2763 14.5111 24.1223 15.3015 23.411 16.6768C23.3794 16.7558 23.3477 16.8823 23.2845 16.8823C23.2055 16.8823 23.1897 16.7558 23.1581 16.6768C22.6048 15.6018 21.7354 14.8589 20.5972 14.4479C20.0282 14.2424 19.4275 14.1792 18.8268 14.1792C17.9257 14.1792 17.0089 14.1792 16.1079 14.1792C16.013 14.1792 15.9656 14.1476 15.9182 14.0685C15.7127 13.6575 15.3965 13.4362 14.9223 13.4204C14.4481 13.4204 14.0529 13.6733 13.8474 14.1159C13.6735 14.5111 13.7684 15.017 14.0687 15.3332C14.4481 15.7283 15.033 15.7916 15.5072 15.507V15.4438ZM31.6467 14.1002C31.8206 14.1002 32.0261 14.3215 32.0261 14.4954C32.0261 14.7009 31.8364 14.8905 31.6309 14.8905C31.4412 14.8905 31.2357 14.7009 31.2357 14.4954C31.2357 14.2899 31.4254 14.1002 31.6309 14.1002H31.6467ZM18.0364 26.2878C17.7044 26.2878 17.3725 26.0348 17.2302 25.6713C17.0405 25.197 17.3093 24.6122 17.7835 24.4541C17.9099 24.4067 17.9416 24.4225 17.9416 24.5648C17.9416 24.6596 17.9416 24.7703 17.9416 24.8651C17.9416 25.3077 18.0206 25.7503 18.1312 26.1771C18.1629 26.2878 18.1312 26.3036 18.0364 26.3036V26.2878ZM29.8605 29.9867C29.8605 29.9867 29.8763 29.9867 29.9237 30.0183C29.6866 30.0974 29.4811 30.1132 29.2598 30.1606C28.6433 30.2713 28.0268 30.3819 27.4103 30.4926C27.1257 30.54 27.0151 30.7455 27.1099 31.0459C27.268 31.5043 27.4577 31.9627 27.6316 32.4211C27.7106 32.6424 27.8055 32.8637 27.8845 33.085C27.8845 33.1166 27.9477 33.1641 27.9003 33.2115C27.8687 33.2431 27.8213 33.2115 27.7739 33.1957C27.0151 32.8953 26.2405 32.5792 25.4818 32.2789C25.3079 32.2156 25.134 32.1366 24.9601 32.0734C24.723 31.9785 24.5807 32.0259 24.4385 32.263C24.2488 32.595 24.0591 32.9269 23.8694 33.2431C23.6955 33.5592 23.5058 33.8754 23.3319 34.1916C23.2529 34.318 23.2529 34.318 23.1739 34.1916C22.8261 33.5751 22.4783 32.9586 22.1148 32.3263C21.9409 32.0101 21.8144 31.9627 21.4666 32.105C20.5498 32.4843 19.6172 32.8479 18.7003 33.2273C18.6687 33.2273 18.6371 33.2747 18.6213 33.2431C18.5897 33.2115 18.6213 33.1641 18.6213 33.1167C18.811 32.6266 19.0007 32.1208 19.1904 31.6307C19.2694 31.4252 19.3484 31.2355 19.4117 31.0301C19.5065 30.7455 19.38 30.5558 19.0955 30.5084C18.6371 30.4293 18.1787 30.3503 17.7203 30.2555C17.4041 30.1923 17.0721 30.1448 16.756 30.0816C16.7086 30.0816 16.6611 30.0816 16.6137 30.0026C16.7086 29.971 16.7876 29.9551 16.8824 29.9235C17.9099 29.6232 18.9374 29.3386 19.9649 29.0383C20.0282 29.0225 20.0914 29.0383 20.1388 29.0857C20.945 29.6706 21.846 30.0184 22.8419 30.0974C23.9642 30.1764 25.0233 29.9393 25.9876 29.3545C26.1299 29.2754 26.2563 29.1805 26.3828 29.0857C26.446 29.0383 26.4934 29.0383 26.5567 29.0541C27.6632 29.3703 28.7539 29.6864 29.8605 30.0026V29.9867ZM27.8371 24.96C27.7581 26.4142 27.1416 27.5998 25.956 28.4692C25.134 29.0857 24.2014 29.3544 23.1897 29.3386C21.0556 29.307 19.3959 27.8527 18.89 26.0665C18.7477 25.5922 18.7003 25.118 18.7003 24.628C18.7003 24.2328 18.7003 23.8218 18.7003 23.4266C18.7003 23.3002 18.7319 23.2527 18.8584 23.2685C20.3285 23.2685 21.8144 23.2685 23.2845 23.2685C24.7546 23.2685 26.2089 23.2685 27.679 23.2685C27.8055 23.2685 27.8371 23.3001 27.8371 23.4424C27.8371 23.9482 27.8529 24.4699 27.8371 24.9757V24.96ZM28.58 24.5805C28.58 24.4067 28.58 24.4067 28.7539 24.4699C29.1175 24.6122 29.3704 24.9915 29.3704 25.3709C29.3704 25.7503 29.0859 26.1297 28.7223 26.2561C28.6591 26.2719 28.5958 26.3036 28.5326 26.2878C28.3745 26.2878 28.3746 26.2878 28.4062 26.1455C28.5326 25.6397 28.6117 25.118 28.58 24.5805ZM23.6639 18.4472C23.6797 17.6727 23.9642 16.9929 24.4227 16.3764C24.9759 15.6493 25.6873 15.1909 26.5725 14.9854C26.8728 14.9222 27.1732 14.8747 27.4893 14.8747C28.3904 14.8747 29.3072 14.8747 30.2082 14.8747C30.2557 14.8747 30.3031 14.8589 30.3347 14.9063C30.3505 14.9537 30.3031 14.9695 30.2714 15.0012C29.1491 16.25 28.422 17.6885 28.0584 19.3325C27.9477 19.8383 27.8687 20.3442 27.8529 20.8658C27.8529 20.9765 27.7897 20.9764 27.7106 20.9764C27.0625 20.9764 26.3986 20.9764 25.7505 20.9764C25.1024 20.9764 24.4543 20.9764 23.822 20.9764C23.7113 20.9764 23.6797 20.9606 23.6797 20.8342C23.6797 20.0438 23.6797 19.2376 23.6797 18.4472H23.6639ZM28.3745 21.7194C28.3745 21.7194 28.4536 21.7194 28.4852 21.7194C28.58 21.7194 28.6117 21.751 28.6117 21.8459C28.6117 22.0197 28.6117 22.1936 28.6117 22.3517C28.6117 22.4466 28.58 22.4782 28.501 22.4782C28.1532 22.4782 27.8213 22.4782 27.4735 22.4782C26.0824 22.4782 24.6756 22.4782 23.2845 22.4782C21.5615 22.4782 19.8543 22.4782 18.1312 22.4782C18.0048 22.4782 17.9416 22.4149 17.9416 22.2885C17.9416 22.1304 17.9416 21.9881 17.9416 21.83C17.9416 21.7352 17.9732 21.7036 18.068 21.7036C18.0996 21.7036 18.1471 21.7036 18.1787 21.7036C21.5773 21.7036 24.9759 21.7036 28.3745 21.7036V21.7194ZM16.4398 14.8747C17.3725 14.8747 18.3051 14.8431 19.2378 14.8747C21.1505 14.9538 22.5574 16.3448 22.8419 18.0678C22.8577 18.1943 22.8735 18.3208 22.8735 18.463C22.8735 19.2534 22.8735 20.028 22.8735 20.8184C22.8735 20.9448 22.8419 20.9764 22.7154 20.9764C22.0673 20.9764 21.4192 20.9764 20.7711 20.9764C20.123 20.9764 19.4749 20.9764 18.8268 20.9764C18.7161 20.9764 18.6845 20.9448 18.6845 20.8342C18.558 18.6527 17.7677 16.7242 16.345 15.0644C16.2976 15.0012 16.2027 14.9538 16.2343 14.8747C16.266 14.8115 16.3608 14.8589 16.4398 14.8589V14.8747ZM14.8907 14.1002C15.0804 14.1002 15.2859 14.3056 15.2859 14.5111C15.2859 14.7008 15.0962 14.9063 14.9065 14.9063C14.6852 14.9063 14.4955 14.7167 14.4955 14.4954C14.4955 14.3057 14.701 14.1002 14.8907 14.1002Z" fill="white"/>
<path d="M23 46C35.7026 46 46 35.7025 46 23C46 10.2975 35.7026 0 23 0C10.2975 0 0 10.2975 0 23C0 35.7025 10.2975 46 23 46Z" fill="#8E7F83" stroke="black" stroke-linecap="round" stroke-linejoin="round"/>
<path d="M23.0003 38.5861C31.6084 38.5861 38.5866 31.6079 38.5866 22.9998C38.5866 14.3918 31.6084 7.41357 23.0003 7.41357C14.3923 7.41357 7.41406 14.3918 7.41406 22.9998C7.41406 31.6079 14.3923 38.5861 23.0003 38.5861Z" fill="#8E7F83" stroke="black" stroke-width="0.75" stroke-linecap="round" stroke-linejoin="round"/>
<path d="M31.1094 40.2617C37.6379 37.4321 42.2063 30.9352 42.2063 23.3634C42.2063 20.0122 41.3053 16.8823 39.7403 14.1792" fill="#8E7F83"/>
<path d="M31.1094 40.2617C37.6379 37.4321 42.2063 30.9352 42.2063 23.3634C42.2063 20.0122 41.3053 16.8823 39.7403 14.1792" stroke="black" stroke-linecap="round" stroke-linejoin="round"/>
<path d="M3.88922 22.6523C3.88922 22.9211 3.8418 23.1898 3.8418 23.4743C3.8418 33.6386 12.0934 41.8901 22.2576 41.8901C22.7635 41.8901 23.2535 41.8585 23.7435 41.8111" fill="#8E7F83"/>
<path d="M3.88922 22.6523C3.88922 22.9211 3.8418 23.1898 3.8418 23.4743C3.8418 33.6386 12.0934 41.8901 22.2576 41.8901C22.7635 41.8901 23.2535 41.8585 23.7435 41.8111" stroke="black" stroke-linecap="round" stroke-linejoin="round"/>
</g>
<rect x="0.5" y="0.5" width="45" height="45" rx="22.5" stroke="url(#paint9_linear_339_8211)"/>
</g>
<rect x="0.5" y="0.5" width="45" height="45" rx="22.5" stroke="url(#paint10_linear_339_8211)"/>
</g>
<rect x="0.5" y="0.5" width="45" height="45" rx="22.5" stroke="url(#paint11_linear_339_8211)"/>
<path d="M31.267 14.012C31.0427 14.0614 30.8184 14.1517 30.6016 14.2421C26.856 15.7869 23.1103 17.3563 19.3572 18.8847C17.1442 19.7803 14.9312 20.676 12.7256 21.5881C12.3593 21.7442 11.9855 21.925 12.0004 22.4508C12.0229 22.9603 12.4191 23.0425 12.7555 23.1657C14.049 23.6176 15.3424 24.0778 16.6433 24.5133C16.9498 24.6201 17.1292 24.8009 17.2264 25.146C17.7198 26.8469 18.2282 28.5478 18.7366 30.2487C18.7964 30.4541 18.8637 30.6678 18.9609 30.8486C19.2076 31.3169 19.6188 31.4155 20.03 31.1197C20.1646 31.0211 20.2842 30.8979 20.4039 30.7828C21.0767 30.0926 21.7496 29.4024 22.4075 28.7039C22.6169 28.4821 22.7813 28.4656 23.0131 28.6628C23.7458 29.2791 24.4934 29.8954 25.2485 30.487C25.9513 31.0375 26.6092 31.6538 27.3569 32.1222C28.1195 32.5988 28.7699 32.2454 28.9269 31.3005C28.9643 31.0786 29.0017 30.8486 29.039 30.6185C29.8839 26.1649 30.7212 21.7113 31.5586 17.2577C31.7156 16.4114 31.8726 15.5568 31.9997 14.8337C32.0146 14.275 31.6558 13.9299 31.267 14.012Z" fill="#B9AEAD" stroke="black" stroke-linecap="round" stroke-linejoin="round"/>
<path d="M28.2763 17.7344C27.8127 18.1945 27.3417 18.6547 26.8782 19.1148C24.6876 21.2841 22.5045 23.4698 20.2915 25.6144C19.8504 26.0417 19.8429 26.5512 19.7831 27.0853C19.7233 27.6276 19.6635 28.1699 19.6261 28.7204C19.6261 28.7697 19.6037 29.008 19.5364 29.0245C19.499 29.0245 19.4467 28.9669 19.4392 28.9587C19.3944 28.9012 19.3869 28.8355 19.3869 28.819C19.0205 27.3811 18.6467 25.9431 18.2056 24.538C18.1159 24.2586 18.243 24.1272 18.415 24.0039C19.2074 23.4369 19.9925 22.87 20.785 22.3112C23.1251 20.6596 25.4726 19.008 27.8127 17.3482C27.8651 17.3153 27.9174 17.2825 27.9623 17.2496C28.1043 17.1674 28.2464 17.0852 28.366 17.266C28.4931 17.4468 28.4108 17.6029 28.2763 17.7344Z" fill="black" stroke="black" stroke-width="0.25" stroke-miterlimit="10"/>
</g>
<rect x="0.5" y="0.5" width="45" height="45" rx="22.5" stroke="url(#paint12_linear_339_8211)"/>
</g>
<rect x="0.5" y="0.5" width="45" height="45" rx="22.5" stroke="url(#paint13_linear_339_8211)"/>
</g>
<rect x="0.5" y="0.5" width="45" height="45" rx="22.5" stroke="url(#paint14_linear_339_8211)"/>
</g>
<rect x="0.5" y="0.5" width="45" height="45" rx="22.5" stroke="url(#paint15_linear_339_8211)"/>
</g>
<rect x="0.5" y="0.5" width="45" height="45" rx="22.5" stroke="url(#paint16_linear_339_8211)"/>
</g>
<rect x="0.5" y="0.5" width="45" height="45" rx="22.5" stroke="url(#paint17_linear_339_8211)"/>
<defs>
<linearGradient id="paint0_linear_339_8211" x1="23" y1="0" x2="23" y2="46" gradientUnits="userSpaceOnUse">
<stop stop-color="#381414"/>
<stop offset="1" stop-color="#1D0808"/>
</linearGradient>
<linearGradient id="paint1_linear_339_8211" x1="23" y1="0" x2="23" y2="46" gradientUnits="userSpaceOnUse">
<stop stop-color="#381414"/>
<stop offset="1" stop-color="#1D0808"/>
</linearGradient>
<linearGradient id="paint2_linear_339_8211" x1="23" y1="0" x2="23" y2="46" gradientUnits="userSpaceOnUse">
<stop stop-color="#381414"/>
<stop offset="1" stop-color="#1D0808"/>
</linearGradient>
<linearGradient id="paint3_linear_339_8211" x1="23" y1="0" x2="23" y2="46" gradientUnits="userSpaceOnUse">
<stop stop-color="#381414"/>
<stop offset="1" stop-color="#1D0808"/>
</linearGradient>
<linearGradient id="paint4_linear_339_8211" x1="23" y1="0" x2="23" y2="46" gradientUnits="userSpaceOnUse">
<stop stop-color="#381414"/>
<stop offset="1" stop-color="#1D0808"/>
</linearGradient>
<linearGradient id="paint5_linear_339_8211" x1="23" y1="0" x2="23" y2="46" gradientUnits="userSpaceOnUse">
<stop stop-color="#381414"/>
<stop offset="1" stop-color="#1D0808"/>
</linearGradient>
<linearGradient id="paint6_linear_339_8211" x1="23" y1="0" x2="23" y2="46" gradientUnits="userSpaceOnUse">
<stop stop-color="#381414"/>
<stop offset="1" stop-color="#1D0808"/>
</linearGradient>
<linearGradient id="paint7_linear_339_8211" x1="23" y1="0" x2="23" y2="46" gradientUnits="userSpaceOnUse">
<stop stop-color="#381414"/>
<stop offset="1" stop-color="#1D0808"/>
</linearGradient>
<linearGradient id="paint8_linear_339_8211" x1="23" y1="0" x2="23" y2="46" gradientUnits="userSpaceOnUse">
<stop stop-color="#381414"/>
<stop offset="1" stop-color="#1D0808"/>
</linearGradient>
<linearGradient id="paint9_linear_339_8211" x1="23.0027" y1="46.523" x2="23.0027" y2="-0.522964" gradientUnits="userSpaceOnUse">
<stop offset="0.2" stop-color="#918789"/>
<stop offset="0.55" stop-color="#BBB0AE"/>
<stop offset="0.83" stop-color="#D7CCC8"/>
<stop offset="1" stop-color="#E2D7D2"/>
</linearGradient>
<linearGradient id="paint10_linear_339_8211" x1="23.0027" y1="46.523" x2="23.0027" y2="-0.522964" gradientUnits="userSpaceOnUse">
<stop offset="0.2" stop-color="#918789"/>
<stop offset="0.55" stop-color="#BBB0AE"/>
<stop offset="0.83" stop-color="#D7CCC8"/>
<stop offset="1" stop-color="#E2D7D2"/>
</linearGradient>
<linearGradient id="paint11_linear_339_8211" x1="23.0027" y1="46.523" x2="23.0027" y2="-0.522964" gradientUnits="userSpaceOnUse">
<stop offset="0.2" stop-color="#918789"/>
<stop offset="0.55" stop-color="#BBB0AE"/>
<stop offset="0.83" stop-color="#D7CCC8"/>
<stop offset="1" stop-color="#E2D7D2"/>
</linearGradient>
<linearGradient id="paint12_linear_339_8211" x1="23.0027" y1="46.523" x2="23.0027" y2="-0.522964" gradientUnits="userSpaceOnUse">
<stop offset="0.2" stop-color="#918789"/>
<stop offset="0.55" stop-color="#BBB0AE"/>
<stop offset="0.83" stop-color="#D7CCC8"/>
<stop offset="1" stop-color="#E2D7D2"/>
</linearGradient>
<linearGradient id="paint13_linear_339_8211" x1="23.0027" y1="46.523" x2="23.0027" y2="-0.522964" gradientUnits="userSpaceOnUse">
<stop offset="0.2" stop-color="#918789"/>
<stop offset="0.55" stop-color="#BBB0AE"/>
<stop offset="0.83" stop-color="#D7CCC8"/>
<stop offset="1" stop-color="#E2D7D2"/>
</linearGradient>
<linearGradient id="paint14_linear_339_8211" x1="23.0027" y1="46.523" x2="23.0027" y2="-0.522964" gradientUnits="userSpaceOnUse">
<stop offset="0.2" stop-color="#918789"/>
<stop offset="0.55" stop-color="#BBB0AE"/>
<stop offset="0.83" stop-color="#D7CCC8"/>
<stop offset="1" stop-color="#E2D7D2"/>
</linearGradient>
<linearGradient id="paint15_linear_339_8211" x1="23.0027" y1="46.523" x2="23.0027" y2="-0.522964" gradientUnits="userSpaceOnUse">
<stop offset="0.2" stop-color="#918789"/>
<stop offset="0.55" stop-color="#BBB0AE"/>
<stop offset="0.83" stop-color="#D7CCC8"/>
<stop offset="1" stop-color="#E2D7D2"/>
</linearGradient>
<linearGradient id="paint16_linear_339_8211" x1="23.0027" y1="46.523" x2="23.0027" y2="-0.522964" gradientUnits="userSpaceOnUse">
<stop offset="0.2" stop-color="#918789"/>
<stop offset="0.55" stop-color="#BBB0AE"/>
<stop offset="0.83" stop-color="#D7CCC8"/>
<stop offset="1" stop-color="#E2D7D2"/>
</linearGradient>
<linearGradient id="paint17_linear_339_8211" x1="23.0027" y1="46.523" x2="23.0027" y2="-0.522964" gradientUnits="userSpaceOnUse">
<stop offset="0.2" stop-color="#918789"/>
<stop offset="0.55" stop-color="#BBB0AE"/>
<stop offset="0.83" stop-color="#D7CCC8"/>
<stop offset="1" stop-color="#E2D7D2"/>
</linearGradient>
<clipPath id="clip0_339_8211">
<rect width="46" height="46" rx="23" fill="white"/>
</clipPath>
<clipPath id="clip1_339_8211">
<rect width="46" height="46" rx="23" fill="white"/>
</clipPath>
<clipPath id="clip2_339_8211">
<rect width="46" height="46" rx="23" fill="white"/>
</clipPath>
<clipPath id="clip3_339_8211">
<rect width="46" height="46" rx="23" fill="white"/>
</clipPath>
<clipPath id="clip4_339_8211">
<rect width="46" height="46" rx="23" fill="white"/>
</clipPath>
<clipPath id="clip5_339_8211">
<rect width="46" height="46" rx="23" fill="white"/>
</clipPath>
<clipPath id="clip6_339_8211">
<rect width="46" height="46" rx="23" fill="white"/>
</clipPath>
<clipPath id="clip7_339_8211">
<rect width="46" height="46" rx="23" fill="white"/>
</clipPath>
<clipPath id="clip8_339_8211">
<rect width="46" height="46" rx="23" fill="white"/>
</clipPath>
</defs>
</svg>
