<svg width="36" height="36" viewBox="0 0 36 36" fill="none" xmlns="http://www.w3.org/2000/svg">
<path d="M18 35C27.3889 35 35 27.3889 35 18C35 8.61116 27.3889 1 18 1C8.61117 1 1 8.61116 1 18C1 27.3889 8.61117 35 18 35Z" stroke="white" stroke-width="0.824742" stroke-linecap="round" stroke-linejoin="round"/>
<path d="M18.0001 31.2961C25.3434 31.2961 31.2963 25.3432 31.2963 17.9999C31.2963 10.6565 25.3434 4.70361 18.0001 4.70361C10.6568 4.70361 4.70386 10.6565 4.70386 17.9999C4.70386 25.3432 10.6568 31.2961 18.0001 31.2961Z" stroke="white" stroke-width="0.618557" stroke-linecap="round" stroke-linejoin="round"/>
<path d="M17.9998 10.4517L20.4417 15.4173L25.9214 16.2118L21.9606 20.0792L22.8953 25.5355L17.9998 22.9651L13.0925 25.5355L14.0272 20.0792L10.0664 16.2118L15.5461 15.4173L17.9998 10.4517Z" stroke="white" stroke-width="0.824742" stroke-linecap="round" stroke-linejoin="round"/>
<path d="M5.63867 26.8208C6.64348 28.1177 9.84486 31.8682 15.1961 32.8263C17.0772 33.1652 18.7363 33.0717 20.0098 32.8731" stroke="white" stroke-width="0.618557" stroke-linecap="round" stroke-linejoin="round"/>
<path d="M22.4053 3.68652C23.2465 3.9202 24.2747 4.30575 25.3847 4.91331C26.9737 5.7896 28.107 6.82948 28.8548 7.62398" stroke="white" stroke-width="0.618557" stroke-linecap="round" stroke-linejoin="round"/>
</svg>
