<svg width="392" height="615" viewBox="0 0 392 615" fill="none" xmlns="http://www.w3.org/2000/svg">
<mask id="mask0_31_16756" style="mask-type:luminance" maskUnits="userSpaceOnUse" x="0" y="0" width="392" height="615">
<path d="M391.04 0.759766H0V614.71H391.04V0.759766Z" fill="white"/>
</mask>
<g mask="url(#mask0_31_16756)">
<path d="M312.18 617.25C311.45 614.56 310.7 611.77 309.93 608.91C299.87 571.45 287.13 520.79 290.84 505.3C290.87 505.1 290.92 504.92 290.97 504.75C291.25 503.72 291.61 502.89 292.07 502.22C300.75 489.67 251.2 491.46 228.16 492.93C223.39 493.23 219.76 493.52 218.03 493.67C217.29 493.72 216.91 493.76 216.91 493.76V495.12V496.89L216.76 537.84L216.5 617.26H312.18V617.25Z" fill="url(#paint0_linear_31_16756)" stroke="black" stroke-linecap="round" stroke-linejoin="round"/>
<path d="M274.18 265.729C273.68 274.349 273.42 281.989 272.93 287.469C271.17 307.149 263.19 342.409 259.44 358.329C258.24 363.399 257.46 366.509 257.46 366.509C257.46 366.509 298.25 366.039 299.2 364.579C299.35 364.349 299.79 359.949 300.46 352.679C300.8 348.829 301.21 344.169 301.65 338.899C305.79 290.289 313.58 189.639 313.58 189.639C312.65 189.579 311.74 189.569 310.87 189.599C305.58 189.729 301.08 191.219 297.24 193.749C279.3 205.539 275.71 239.999 274.2 265.739L274.18 265.729Z" fill="url(#paint1_linear_31_16756)" stroke="black" stroke-linecap="round" stroke-linejoin="round"/>
<path d="M335.53 210.05C334.37 214.52 333.51 219.45 332.99 224.71C331.12 243.83 334.21 260.69 334.55 278.17C334.59 281.48 334.55 284.79 334.37 288.16C334.21 291.28 333.91 294.42 333.43 297.63C330.07 320.28 326.55 339.2 324.15 351.28C322.34 360.43 321.14 365.66 321.14 365.66L341.21 369.02C341.21 369.02 346.16 365.09 351.19 358.62C355.9 352.6 360.67 344.38 361.6 335.05C361.76 333.43 361.9 331.67 362 329.8C362.1 328.36 362.17 326.87 362.24 325.3C362.51 318.83 362.56 311.37 362.55 303.72C362.55 291.72 362.3 279.2 362.31 269.23C362.3 266.53 362.31 264.05 362.37 261.79C362.39 260.67 362.42 259.62 362.44 258.64C362.81 247.51 363.02 184.37 355.03 182.75C348.65 181.43 340.05 192.31 335.54 210.03L335.53 210.05Z" fill="url(#paint2_linear_31_16756)"/>
<mask id="mask1_31_16756" style="mask-type:luminance" maskUnits="userSpaceOnUse" x="321" y="182" width="42" height="188">
<path d="M335.53 210.05C334.37 214.52 333.51 219.45 332.99 224.71C331.12 243.83 334.21 260.69 334.55 278.17C334.59 281.48 334.55 284.79 334.37 288.16C334.21 291.28 333.91 294.42 333.43 297.63C330.07 320.28 326.55 339.2 324.15 351.28C322.34 360.43 321.14 365.66 321.14 365.66L341.21 369.02C341.21 369.02 346.16 365.09 351.19 358.62C355.9 352.6 360.67 344.38 361.6 335.05C361.76 333.43 361.9 331.67 362 329.8C362.1 328.36 362.17 326.87 362.24 325.3C362.51 318.83 362.56 311.37 362.55 303.72C362.55 291.72 362.3 279.2 362.31 269.23C362.3 266.53 362.31 264.05 362.37 261.79C362.39 260.67 362.42 259.62 362.44 258.64C362.81 247.51 363.02 184.37 355.03 182.75C348.65 181.43 340.05 192.31 335.54 210.03L335.53 210.05Z" fill="white"/>
</mask>
<g mask="url(#mask1_31_16756)">
<path d="M335.57 207.199C334.49 211.169 333.3 216.889 333.05 224.039C334.21 209.369 339.02 200.519 343.55 195.009C347.71 189.949 353.95 184.889 353.31 184.039C352.9 183.499 349.91 185.049 347.25 186.559C344.88 188.859 341.58 192.569 338.92 197.889C337.14 201.449 336.33 204.379 335.56 207.199H335.57Z" fill="url(#paint3_linear_31_16756)"/>
</g>
<path d="M335.53 210.05C334.37 214.52 333.51 219.45 332.99 224.71C331.12 243.83 334.21 260.69 334.55 278.17C334.59 281.48 334.55 284.79 334.37 288.16C334.21 291.28 333.91 294.42 333.43 297.63C330.07 320.28 326.55 339.2 324.15 351.28C322.34 360.43 321.14 365.66 321.14 365.66L341.21 369.02C341.21 369.02 346.16 365.09 351.19 358.62C355.9 352.6 360.67 344.38 361.6 335.05C361.76 333.43 361.9 331.67 362 329.8C362.1 328.36 362.17 326.87 362.24 325.3C362.51 318.83 362.56 311.37 362.55 303.72C362.55 291.72 362.3 279.2 362.31 269.23C362.3 266.53 362.31 264.05 362.37 261.79C362.39 260.67 362.42 259.62 362.44 258.64C362.81 247.51 363.02 184.37 355.03 182.75C348.65 181.43 340.05 192.31 335.54 210.03L335.53 210.05Z" stroke="black" stroke-linecap="round" stroke-linejoin="round"/>
<path opacity="0.19" d="M274.19 265.74C273.7 274.35 273.42 281.99 272.93 287.46C271.42 304.48 265.23 333.15 261.16 350.88C260.75 352.64 260.37 354.27 260.01 355.79C259.99 355.94 259.95 356.05 259.93 356.17C259.77 356.92 259.6 357.65 259.43 358.32L300.44 352.68L301.45 352.53V351.97L301.47 351.87L301.54 346.59L301.63 338.9L302.83 246.78C295.78 284.12 274.46 268.93 274.18 265.74H274.19Z" fill="#270D1D"/>
<path d="M311.79 187.219C307.73 194.819 305.44 205.329 304.18 216.589C302.02 235.629 302.79 256.749 302.92 269.389C302.92 272.479 302.92 275.059 302.81 276.979C301.81 295.559 289.27 365.049 289.27 365.049L303.24 362.979L326.47 359.509C326.47 359.509 326.59 356.819 326.76 352.599C327.34 338.049 328.65 305.369 328.48 303.129C328.39 302.049 329.69 285.109 330.79 263.889C332.17 237.099 333.26 203.469 330.96 186.169C329.98 178.819 320.79 175.849 315.82 181.349C314.31 183.019 312.97 184.989 311.78 187.209L311.79 187.219Z" fill="url(#paint4_linear_31_16756)"/>
<mask id="mask2_31_16756" style="mask-type:luminance" maskUnits="userSpaceOnUse" x="289" y="178" width="44" height="188">
<path d="M311.79 187.219C307.73 194.819 305.44 205.329 304.18 216.589C302.02 235.629 302.79 256.749 302.92 269.389C302.92 272.479 302.92 275.059 302.81 276.979C301.81 295.559 289.27 365.049 289.27 365.049L303.24 362.979L326.47 359.509C326.47 359.509 326.59 356.819 326.76 352.599C327.34 338.049 328.65 305.369 328.48 303.129C328.39 302.049 329.69 285.109 330.79 263.889C332.17 237.099 333.26 203.469 330.96 186.169C329.98 178.819 320.79 175.849 315.82 181.349C314.31 183.019 312.97 184.989 311.78 187.209L311.79 187.219Z" fill="white"/>
</mask>
<g mask="url(#mask2_31_16756)">
<path d="M306.56 201.119C304.24 210.499 303.31 216.699 303.46 216.729C303.71 216.779 303.13 197.279 315.36 186.069C319.03 182.709 324.33 179.649 323.83 178.679C323.47 177.989 320.44 178.839 317.89 179.679C315.38 182.009 311.97 185.789 309.53 191.239C309.18 192.009 308.34 193.969 306.57 201.129L306.56 201.119Z" fill="url(#paint5_linear_31_16756)"/>
</g>
<path d="M311.79 187.219C307.73 194.819 305.44 205.329 304.18 216.589C302.02 235.629 302.79 256.749 302.92 269.389C302.92 272.479 302.92 275.059 302.81 276.979C301.81 295.559 289.27 365.049 289.27 365.049L303.24 362.979L326.47 359.509C326.47 359.509 326.59 356.819 326.76 352.599C327.34 338.049 328.65 305.369 328.48 303.129C328.39 302.049 329.69 285.109 330.79 263.889C332.17 237.099 333.26 203.469 330.96 186.169C329.98 178.819 320.79 175.849 315.82 181.349C314.31 183.019 312.97 184.989 311.78 187.209L311.79 187.219Z" stroke="black" stroke-linecap="round" stroke-linejoin="round"/>
<path opacity="0.43" d="M302.79 260.66C302.64 265.9 302.27 269.95 302.07 271.99C299.23 300.04 287.08 343.79 277.32 362.51C276.77 363.56 275.45 366.02 276.45 367.6C278.86 371.4 292.89 366.71 303.26 362.99L289.29 365.06C289.29 365.06 301.82 295.57 302.83 276.99C302.94 275.07 302.94 272.49 302.94 269.4C302.94 268.73 302.92 268.06 302.92 267.39C302.89 265.14 302.86 262.9 302.81 260.66H302.79Z" fill="#270D1D"/>
<path opacity="0.19" d="M333.02 228.17C334.12 220.12 334.94 214.27 335.53 210.05C334.37 214.52 333.51 219.45 332.99 224.71C331.12 243.83 334.21 260.69 334.55 278.17C334.59 281.48 334.55 284.79 334.37 288.16C334.99 286.78 335.74 285.66 336.67 284.97C342.04 280.9 351.18 281.98 356.01 286.92C360 291 361.98 300.8 362.54 303.74C362.63 304.15 362.67 304.42 362.71 304.52C362.71 303.18 362.4 261.75 362.4 261.75L362.36 261.81C351.22 284.26 329.46 253.53 333.02 228.16V228.17Z" fill="#270D1D"/>
<path d="M305.1 274.689C306.44 275.599 308.71 276.879 311.77 277.389C317.44 278.339 321.88 276.019 323.3 275.199" stroke="black" stroke-linecap="round" stroke-linejoin="round"/>
<path d="M336.55 278.459C337.89 279.369 340.16 280.649 343.22 281.159C348.89 282.109 353.33 279.789 354.75 278.969" stroke="black" stroke-linecap="round" stroke-linejoin="round"/>
<path d="M277.38 281.14C278.83 281.87 281.24 282.83 284.34 282.94C290.08 283.14 294.18 280.25 295.48 279.26" stroke="black" stroke-linecap="round" stroke-linejoin="round"/>
<path d="M404.04 311.85C399.29 312.57 394.9 313.54 390.84 314.71C366.19 321.8 353.47 336.58 345.69 352.02L325.51 351.14C325.51 351.14 317.27 351.04 305.17 351.5C305.08 351.52 304.98 351.5 304.86 351.52C303.76 351.56 302.62 351.61 301.44 351.65C289.43 352.19 274.4 353.31 259.98 355.57C258.22 355.84 256.5 356.13 254.77 356.43C254.87 356.12 254.96 355.85 255.04 355.64C255.16 355.29 255.24 355.07 255.26 355.05C255.35 354.92 255.75 353.7 256.39 351.72C260.31 339.51 272.76 297.88 271.6 294.76C271.43 294.27 271.2 292.84 270.95 290.71C269.36 277.29 266.67 236.54 266.67 236.54C243.87 244.26 242.67 285.95 247 302.13C247.06 302.33 247.03 302.71 246.92 303.21C245.72 309.7 236.99 339.1 228.96 355.43C227.82 357.74 226.78 359.78 225.84 361.43C224.52 363.86 223.2 365.78 221.95 366.96C221.14 367.76 220.06 368.94 218.74 370.43C213.63 378.65 198.51 403.02 189.13 431.38C188.3 442.89 191.18 455.02 195.28 465.59C195.74 466.83 196.23 468.03 196.73 469.18C202.69 483.21 213.87 493.81 217.06 495.49C217.26 495.59 217.41 495.66 217.55 495.7C221.44 496.7 243.29 501.71 262.1 503.57C269.58 505.24 277.64 504.86 283.46 503.67C287.45 502.85 290.53 501.62 293.62 500.26C294.18 500.02 294.73 499.77 295.29 499.52C295.29 499.52 295.29 499.52 295.3 499.52C295.69 499.34 296.08 499.16 296.48 498.97C301.5 496.62 305.71 494.02 309.5 491.26C313.49 488.44 317.31 485.3 320.73 481.99C320.73 481.99 320.74 481.98 320.75 481.97C354.02 452.51 356.19 447.37 357.18 442.6C358.35 436.96 357.26 438.36 357.48 423.89C357.68 410.63 359.91 392.6 373.1 373.87C373.18 373.75 373.26 373.62 373.35 373.51C395.43 342.44 417.41 321.13 416.72 317.95C416.02 314.76 404.06 311.85 404.06 311.85H404.04Z" fill="url(#paint6_linear_31_16756)" stroke="black" stroke-linecap="round" stroke-linejoin="round"/>
<path d="M248.32 496.93C257.26 505.65 273.62 505.94 283.49 503.91C288.2 502.94 291.64 501.4 295.33 499.75C306.39 494.8 313.51 488.64 320.79 482.2C354.06 452.74 356.23 447.6 357.22 442.83C358.39 437.19 357.3 438.59 357.52 424.12C357.72 410.86 359.95 392.83 373.14 374.1C373.22 373.98 373.3 373.85 373.39 373.74C395.47 342.67 417.45 321.36 416.76 318.18C416.06 314.99 404.1 312.08 404.1 312.08C399.35 312.8 394.96 313.77 390.9 314.94C359.39 324.01 347.38 345.62 340.24 365.16C340.06 365.65 339.89 366.13 339.72 366.61C339.72 366.63 339.72 366.64 339.72 366.64C336.23 376.46 333.88 385.65 330.81 392.31C330.8 392.35 330.77 392.39 330.76 392.44C329.49 395.17 328.09 397.46 326.44 399.21C326.44 399.21 325.6 400.06 324.59 400.84C321.6 403.17 312.9 406.19 301.04 408.73C293.69 411.05 251.46 425 242.74 459.26C241.79 462.98 241.17 467.2 241.17 471.94" fill="url(#paint7_linear_31_16756)"/>
<mask id="mask3_31_16756" style="mask-type:luminance" maskUnits="userSpaceOnUse" x="241" y="312" width="176" height="193">
<path d="M248.32 496.93C257.26 505.65 273.62 505.94 283.49 503.91C288.2 502.94 291.64 501.4 295.33 499.75C306.39 494.8 313.51 488.64 320.79 482.2C354.06 452.74 356.23 447.6 357.22 442.83C358.39 437.19 357.3 438.59 357.52 424.12C357.72 410.86 359.95 392.83 373.14 374.1C373.22 373.98 373.3 373.85 373.39 373.74C395.47 342.67 417.45 321.36 416.76 318.18C416.06 314.99 404.1 312.08 404.1 312.08C399.35 312.8 394.96 313.77 390.9 314.94C359.39 324.01 347.38 345.62 340.24 365.16C340.06 365.65 339.89 366.13 339.72 366.61C339.72 366.63 339.72 366.64 339.72 366.64C336.23 376.46 333.88 385.65 330.81 392.31C330.8 392.35 330.77 392.39 330.76 392.44C329.49 395.17 328.09 397.46 326.44 399.21C326.44 399.21 325.6 400.06 324.59 400.84C321.6 403.17 312.9 406.19 301.04 408.73C293.69 411.05 251.46 425 242.74 459.26C241.79 462.98 241.17 467.2 241.17 471.94" fill="white"/>
</mask>
<g mask="url(#mask3_31_16756)">
<path d="M244.73 461.5C247.07 464.71 254.09 464.24 258.64 461.95C265.56 458.46 267.83 450.21 268.51 448.04C271.58 438.33 282.88 423.99 319.25 403.79C315.05 404.74 309.49 406.15 303.05 408.21C301.15 408.82 296.67 410.27 291.91 412.16C285.46 414.72 275.78 418.57 266.69 425.76C266.65 425.79 266.58 425.84 266.51 425.9C253.66 436.12 240.2 455.3 244.72 461.5H244.73Z" fill="url(#paint8_linear_31_16756)"/>
<path d="M340.23 365.14C345.4 355.97 353.82 343.56 367.08 331.75C375.55 324.2 383.88 318.78 390.9 314.93C384.69 316.27 373.98 319.49 363.49 327.88C346.71 341.31 341.68 359.04 340.23 365.14Z" fill="url(#paint9_linear_31_16756)"/>
</g>
<path d="M248.32 496.93C257.26 505.65 273.62 505.94 283.49 503.91C288.2 502.94 291.64 501.4 295.33 499.75C306.39 494.8 313.51 488.64 320.79 482.2C354.06 452.74 356.23 447.6 357.22 442.83C358.39 437.19 357.3 438.59 357.52 424.12C357.72 410.86 359.95 392.83 373.14 374.1C373.22 373.98 373.3 373.85 373.39 373.74C395.47 342.67 417.45 321.36 416.76 318.18C416.06 314.99 404.1 312.08 404.1 312.08C399.35 312.8 394.96 313.77 390.9 314.94C359.39 324.01 347.38 345.62 340.24 365.16C340.06 365.65 339.89 366.13 339.72 366.61C339.72 366.63 339.72 366.64 339.72 366.64C336.23 376.46 333.88 385.65 330.81 392.31C330.8 392.35 330.77 392.39 330.76 392.44C329.49 395.17 328.09 397.46 326.44 399.21C326.44 399.21 325.6 400.06 324.59 400.84C321.6 403.17 312.9 406.19 301.04 408.73C293.69 411.05 251.46 425 242.74 459.26C241.79 462.98 241.17 467.2 241.17 471.94" stroke="black" stroke-linecap="round" stroke-linejoin="round"/>
<path opacity="0.43" d="M233.61 359.31C233.61 359.31 234.54 359.21 236.13 359.03L236.34 359C240.88 358.46 250.43 357.33 259.94 356.17C266.17 355.4 272.37 354.61 277.19 353.98C282.24 353.31 291.47 352.59 301.48 351.97C302.61 351.89 303.75 351.82 304.91 351.74C305.02 351.74 305.12 351.74 305.22 351.72C313.39 351.63 321.6 351.58 329.86 351.55C334.59 351.53 339.31 351.53 344.01 351.53C341.34 351.13 338.56 350.63 335.68 350.02C333.97 349.66 332.32 349.27 330.71 348.87C329.67 343.42 328.62 337.97 327.58 332.52C327.37 337.76 327.17 343 326.96 348.24C319.39 347.25 310.87 346.58 301.57 346.59C285.97 346.61 272.32 348.51 261.19 350.89C260.78 352.65 260.4 354.28 260.04 355.8C258.28 356.07 256.56 356.36 254.83 356.66C254.93 356.35 255.02 356.08 255.1 355.87C255.22 355.52 255.3 355.3 255.32 355.28C255.41 355.15 255.81 353.93 256.45 351.95C248.81 353.8 241.13 356.19 233.63 359.32L233.61 359.31Z" fill="#270D1D"/>
<path opacity="0.43" d="M246.96 303.439C245.76 309.929 237.03 339.329 229 355.659L227.77 360.409L236.14 359.029L236.35 358.999L255.09 355.869C255.21 355.519 255.29 355.299 255.31 355.279C255.4 355.149 255.8 353.929 256.44 351.949C260.36 339.739 272.81 298.109 271.65 294.989C271.48 294.499 271.25 293.069 271 290.939C263.05 305.659 252.01 306.259 246.97 303.439H246.96Z" fill="#270D1D"/>
<path opacity="0.19" d="M326.41 399.199L326 400.389C328.11 400.029 331.67 399.699 335.81 400.769C340.51 401.979 343.86 404.409 344.96 405.469C353.79 413.979 335.57 447.539 334.05 450.289C326.66 463.689 313.93 482.819 292.09 502.229C295.46 500.619 300.16 498.199 305.5 494.829C313.47 489.799 317.64 485.959 337.81 466.559C349.62 455.199 355.57 449.379 357.24 442.839C358.47 438.019 357.19 437.849 357.51 426.849C357.74 418.839 358.18 406.689 362.8 393.739C364.56 388.809 367.63 381.819 373.15 374.099C379.79 365.019 386.93 355.699 394.61 346.229C400.51 338.939 406.39 331.989 412.2 325.359C408.17 328.499 401.96 333.599 394.95 340.509C373.74 361.409 364.15 380.259 352.09 379.209C351.01 379.119 347.14 378.779 344.1 375.879C340.26 372.219 340.21 366.809 340.25 365.149C334.95 379.639 332.34 392.969 326.43 399.209L326.41 399.199Z" fill="#270D1D"/>
<path opacity="0.32" d="M300.15 408.94C302.63 408.5 306.11 407.77 310.18 406.55C317.76 404.28 322 403 325.64 399.96C329.19 397 331.06 391.74 334.82 381.23C337.49 373.75 337.65 371.52 340.52 363.99C342.49 358.83 344.38 354.71 345.68 352.03C330.12 351.06 312.63 350.85 293.58 352.08C279.61 352.98 266.63 354.54 254.76 356.45C245.76 357.77 236.77 359.09 227.77 360.42C228.16 358.77 228.55 357.11 228.94 355.46C227.58 358.31 225.7 361.62 223.09 365.03C221.62 366.95 220.14 368.62 218.73 370.06C216.98 372.81 215.61 375.08 214.72 376.58C212.93 379.61 209.18 386.1 198.45 408.55C196.61 412.41 196.02 413.51 195.5 414.85L189.1 431.42C189.67 428.76 191.49 421.91 197.11 419.29C199.27 418.28 201.22 418.32 206.13 418.76C217.45 419.78 223.11 420.3 225.59 421.57C233.42 425.58 236.4 433.8 238.89 440.64C242.5 450.57 242.3 459.7 241.49 465.85C242.04 461.78 242.96 458.51 243.74 456.21C243.74 456.21 247.14 446.14 255.33 436.72C256.86 434.96 258.5 433.34 258.5 433.34C261.37 430.53 264.17 428.4 267.44 425.95C279.94 416.59 291.94 411.65 300.13 408.95L300.15 408.94Z" fill="#270D1D"/>
<path d="M245.58 382.46C251.04 385 265.34 390.77 283.75 388C300.21 385.52 311.31 377.51 316.04 373.66" stroke="black" stroke-linecap="round" stroke-linejoin="round"/>
<path opacity="0.43" d="M340.32 363.33C340.15 363.84 340.01 364.31 339.87 364.82C344.31 353.84 351.27 341.09 362 329.83C362.1 328.39 362.17 326.9 362.24 325.33C350.12 336.5 344.22 350.41 340.32 363.34V363.33Z" fill="#270D1D"/>
<path opacity="0.19" d="M304.9 407.619C314.22 404.719 321.6 402.969 324.56 400.829C325.21 400.359 325.82 399.809 326.41 399.199C328.06 397.449 329.46 395.159 330.73 392.429C330.75 392.389 330.77 392.349 330.78 392.299C333.85 385.639 336.2 376.449 339.69 366.629C329.27 386.549 315.83 399.559 304.89 407.619H304.9Z" fill="#270D1D"/>
<path d="M359.55 193.47C359.52 192.4 359.11 178.79 354.79 177.98C353.56 177.75 352.36 178.62 351.09 179.55C351.09 179.55 348.63 181.34 345.08 188.69C345.08 188.69 346.12 187.47 347.62 186.28C348.31 185.73 350.85 183.92 352.9 184.01C355.74 184.13 358.66 188 359.54 193.48L359.55 193.47Z" fill="url(#paint10_linear_31_16756)" stroke="black" stroke-linecap="round" stroke-linejoin="round"/>
<path d="M327.37 173.11C327.37 173.11 330.55 174.27 331.68 194.77C331.51 189.57 329.9 185.93 328.82 183.97C327.56 181.67 326.34 179.52 323.81 178.68C321.48 177.91 319.28 178.68 318.3 179.09C318.63 178.26 320.09 174.9 323.62 173.57C324.65 173.18 326.07 172.65 327.36 173.11H327.37Z" fill="url(#paint11_linear_31_16756)" stroke="black" stroke-linecap="round" stroke-linejoin="round"/>
<path d="M268.03 254.79C267.34 246.11 264.01 239.73 263.07 239.24C262.13 238.75 259.57 240.76 259.57 240.76C259.57 240.76 261.63 237.74 264.07 236.8C266.51 235.86 266.87 236.54 266.87 236.54L268.03 254.79Z" fill="url(#paint12_linear_31_16756)" stroke="black" stroke-linecap="round" stroke-linejoin="round"/>
<path opacity="0.19" d="M193.05 459.4C193.51 461.11 194.05 462.86 194.69 464.63C199.79 478.76 209.04 488.66 216.91 495.12V496.89L216.76 537.84C218.62 529.33 225.12 512.43 247.04 517.94C263.75 522.14 291.24 571.5 309.93 608.92C307.91 601.14 305.29 590.9 302.29 578.84C302.29 578.84 299.22 566.5 295.22 548.88C295.22 548.88 291.82 533.87 290.36 517.34C290.16 515.04 290.17 513.51 290.19 511.88C290.24 507.59 290.69 505.85 290.84 505.31C291.39 503.34 292.21 501.84 292.81 500.87C297.65 498.8 304.79 495.26 312.44 489.39C313.99 488.2 316.07 486.36 320.18 482.71C335.92 468.75 343.9 461.65 348.99 455.52C350.78 453.36 353.4 450.06 356.32 445.78C351.97 450.74 299.56 509.08 255.11 493.93C250.93 492.51 246.58 490.35 242.2 487.14C238.15 489.94 232.45 492.33 225.96 492.13C211.75 491.71 198.11 478.66 193.05 459.39V459.4Z" fill="#270D1D"/>
<path d="M324.56 400.829C326.4 400.289 329.91 399.529 334.2 400.269C339.13 401.119 342.5 403.489 344.02 404.719" stroke="black" stroke-linecap="round" stroke-linejoin="round"/>
<path d="M327.53 324.459C326.75 330.119 325.98 335.819 325.23 341.539C324.81 344.729 324.4 347.909 324 351.079C325.28 351.099 326.57 351.129 327.87 351.159C333.94 351.319 339.88 351.619 345.68 352.029C347.91 347.579 351.15 342.219 355.84 336.789C358.45 333.759 361.07 331.229 363.52 329.119C363.62 327.839 363.72 326.559 363.82 325.279C356.23 325.219 348.54 325.089 340.74 324.879C336.3 324.759 331.9 324.619 327.53 324.459Z" fill="url(#paint13_linear_31_16756)"/>
<mask id="mask4_31_16756" style="mask-type:luminance" maskUnits="userSpaceOnUse" x="324" y="324" width="40" height="29">
<path d="M327.53 324.459C326.75 330.119 325.98 335.819 325.23 341.539C324.81 344.729 324.4 347.909 324 351.079C325.28 351.099 326.57 351.129 327.87 351.159C333.94 351.319 339.88 351.619 345.68 352.029C347.91 347.579 351.15 342.219 355.84 336.789C358.45 333.759 361.07 331.229 363.52 329.119C363.62 327.839 363.72 326.559 363.82 325.279C356.23 325.219 348.54 325.089 340.74 324.879C336.3 324.759 331.9 324.619 327.53 324.459Z" fill="white"/>
</mask>
<g mask="url(#mask4_31_16756)">
<path opacity="0.19" d="M356.98 324.489C356.86 327.689 356.14 332.059 353.5 336.269C348.09 344.919 336.86 349.329 324.67 348.049L324.15 351.289C326.45 351.969 330.54 353.199 335.64 354.799C352.82 360.169 360.32 363.099 363.04 359.979C363.83 359.069 363.93 357.969 363.99 357.249C364.94 344.779 365.57 326.139 365.63 324.379C362.75 324.419 359.87 324.449 356.99 324.489H356.98Z" fill="#270D1D"/>
</g>
<path d="M327.53 324.459C326.75 330.119 325.98 335.819 325.23 341.539C324.81 344.729 324.4 347.909 324 351.079C325.28 351.099 326.57 351.129 327.87 351.159C333.94 351.319 339.88 351.619 345.68 352.029C347.91 347.579 351.15 342.219 355.84 336.789C358.45 333.759 361.07 331.229 363.52 329.119C363.62 327.839 363.72 326.559 363.82 325.279C356.23 325.219 348.54 325.089 340.74 324.879C336.3 324.759 331.9 324.619 327.53 324.459Z" stroke="black" stroke-linecap="round" stroke-linejoin="round"/>
<path d="M331.31 324.589C331.61 324.879 332.04 325.319 332.51 325.899C333.2 326.749 333.76 327.439 334.04 328.469C334.25 329.269 334.24 329.949 334.2 330.369C334.54 330.389 334.88 330.409 335.22 330.429C335.23 329.949 335.31 329.259 335.62 328.499C335.78 328.109 336 327.749 337.11 326.419C337.47 325.989 337.93 325.449 338.47 324.829C338.39 324.339 337.99 323.959 337.5 323.919C337.02 323.879 336.56 324.179 336.4 324.629C336.23 324.079 335.78 323.669 335.23 323.579C334.61 323.479 333.98 323.799 333.67 324.379C333.48 323.689 332.8 323.299 332.2 323.449C331.72 323.569 331.35 324.039 331.31 324.589Z" fill="url(#paint14_linear_31_16756)" stroke="black" stroke-linecap="round" stroke-linejoin="round"/>
<path d="M343.119 329.719C342.799 330.169 342.419 330.619 341.949 331.049C339.899 332.909 337.649 332.859 336.659 332.749C336.639 333.119 336.629 333.489 336.609 333.859C337.679 333.909 339.669 334.229 341.439 336.039C341.869 336.479 342.229 336.949 342.529 337.409C342.639 337.329 343.109 336.979 343.219 336.329C343.369 335.479 342.789 334.869 342.729 334.809C342.829 334.759 343.429 334.419 343.599 333.719C343.749 333.079 343.499 332.389 342.949 331.949C343.419 331.709 343.699 331.229 343.679 330.729C343.649 330.109 343.179 329.759 343.119 329.719Z" fill="url(#paint15_linear_31_16756)" stroke="black" stroke-linecap="round" stroke-linejoin="round"/>
<path d="M327 328.339C327.15 328.799 327.7 330.309 329.27 331.329C330.49 332.119 331.69 332.219 332.22 332.229C332.18 332.599 332.13 332.969 332.09 333.339C331.39 333.319 330.25 333.379 328.96 333.849C327.51 334.379 326.53 335.189 326 335.699C325.17 335.319 324.83 334.499 325.06 333.949C325.25 333.479 325.8 333.329 325.9 333.299C325.39 332.879 325.17 332.219 325.34 331.649C325.51 331.069 326 330.799 326.1 330.749C326.07 330.729 325.48 330.199 325.62 329.469C325.73 328.859 326.3 328.379 327 328.359V328.339Z" fill="url(#paint16_linear_31_16756)" stroke="black" stroke-linecap="round" stroke-linejoin="round"/>
<path d="M327.87 351.159C328.64 350.039 329.41 348.779 330.13 347.359C332.44 342.839 333.34 338.539 333.69 335.279C334.12 335.359 334.56 335.429 334.99 335.509C334.86 336.789 334.74 338.629 334.84 340.759C334.97 343.499 335.53 345.619 336.05 347.659C336.47 349.339 336.91 350.709 337.24 351.659C334.12 351.489 331 351.329 327.87 351.159Z" fill="url(#paint17_linear_31_16756)" stroke="black" stroke-linecap="round" stroke-linejoin="round"/>
<path d="M334.45 335.419C335.736 335.419 336.78 334.287 336.78 332.889C336.78 331.492 335.736 330.359 334.45 330.359C333.163 330.359 332.12 331.492 332.12 332.889C332.12 334.287 333.163 335.419 334.45 335.419Z" fill="url(#paint18_linear_31_16756)" stroke="black" stroke-linecap="round" stroke-linejoin="round"/>
<path d="M347.55 348.51C347.55 348.21 347.53 347.91 347.52 347.6C347.49 347.01 347.45 346.44 347.39 345.9C347.14 345.86 346.88 345.82 346.59 345.8C346.41 345.79 346.24 345.78 346.08 345.77C346.07 346.24 345.99 346.93 345.68 347.68C345.34 348.52 344.72 349.15 344.19 349.74C343.74 350.23 343.12 350.96 342.4 351.91C343.49 351.95 344.59 351.98 345.68 352.02C346.3 350.85 346.93 349.67 347.55 348.5V348.51Z" fill="url(#paint19_linear_31_16756)" stroke="black" stroke-linecap="round" stroke-linejoin="round"/>
<path d="M338.18 346.469C338.5 346.029 338.88 345.569 339.35 345.159C341.4 343.319 343.65 343.359 344.64 343.469C344.66 343.099 344.67 342.729 344.69 342.369C343.62 342.319 341.63 341.999 339.86 340.209C339.43 339.769 339.07 339.309 338.77 338.859C338.66 338.939 338.19 339.289 338.08 339.929C337.93 340.769 338.51 341.369 338.57 341.429C338.47 341.479 337.87 341.809 337.7 342.509C337.55 343.139 337.8 343.829 338.35 344.259C337.88 344.499 337.6 344.969 337.62 345.469C337.65 346.079 338.12 346.429 338.18 346.469Z" fill="url(#paint20_linear_31_16756)" stroke="black" stroke-linecap="round" stroke-linejoin="round"/>
<path d="M353.22 325.15C352.51 326.17 351.8 327.31 351.13 328.58C348.71 333.21 347.88 337.65 347.61 340.95C347.18 340.88 346.74 340.8 346.31 340.73C346.44 339.46 346.56 337.64 346.46 335.54C346.31 332.49 345.62 330.01 345.25 328.71C344.98 327.74 344.57 326.45 343.97 324.97C344.33 324.39 344.98 324.08 345.62 324.16C346.45 324.27 346.85 324.98 346.88 325.06C347.33 324.25 348.22 323.82 349.04 324C349.97 324.2 350.38 325.07 350.42 325.17C350.47 325.1 351.01 324.44 351.91 324.48C352.7 324.52 353.16 325.09 353.23 325.17L353.22 325.15Z" fill="url(#paint21_linear_31_16756)" stroke="black" stroke-linecap="round" stroke-linejoin="round"/>
<path d="M346.85 345.83C348.136 345.83 349.18 344.706 349.18 343.32C349.18 341.933 348.136 340.81 346.85 340.81C345.563 340.81 344.52 341.933 344.52 343.32C344.52 344.706 345.563 345.83 346.85 345.83Z" fill="url(#paint22_linear_31_16756)" stroke="black" stroke-linecap="round" stroke-linejoin="round"/>
<path d="M357.18 325.16C357.79 326 358.32 326.66 358.69 327.12C359.68 328.33 360.12 328.73 360.42 329.56C360.69 330.3 360.71 330.98 360.68 331.44C361.08 331.05 361.49 330.66 361.89 330.26C361.89 330.07 361.91 329.79 361.99 329.45C362.23 328.51 362.77 328.09 363.31 327.25C363.55 326.88 363.86 326.31 364.1 325.52C364.07 325.13 363.81 324.8 363.49 324.73C363.06 324.63 362.54 324.96 362.45 325.53C362.24 324.99 361.75 324.62 361.19 324.58C360.56 324.53 359.96 324.9 359.7 325.5C359.67 325.46 359.1 324.63 358.16 324.7C357.63 324.74 357.28 325.04 357.16 325.16H357.18Z" fill="url(#paint23_linear_31_16756)" stroke="black" stroke-linecap="round" stroke-linejoin="round"/>
<path d="M353.39 330C353.5 330.31 354.11 331.96 355.9 332.79C357.4 333.49 358.78 333.18 359.17 333.08C358.97 333.33 358.74 333.58 358.5 333.84C358.25 334.1 358 334.35 357.77 334.57C357.2 334.73 356.52 334.96 355.8 335.33C354.52 335.98 353.6 336.79 353 337.41C352.14 337.09 351.73 336.31 351.92 335.74C352.07 335.26 352.61 335.06 352.71 335.03C352.17 334.65 351.89 334.02 352.02 333.43C352.14 332.84 352.61 332.53 352.71 332.47C352.68 332.45 352.05 331.97 352.12 331.23C352.18 330.61 352.71 330.09 353.4 330.01L353.39 330Z" fill="url(#paint24_linear_31_16756)" stroke="black" stroke-linecap="round" stroke-linejoin="round"/>
<path d="M78.8701 617.25C79.6001 614.56 80.3501 611.77 81.1201 608.91C91.1801 571.45 103.92 520.79 100.21 505.3C100.18 505.1 100.13 504.92 100.08 504.75C99.8001 503.72 99.4401 502.89 98.9801 502.22C90.3001 489.67 139.85 491.46 162.89 492.93C167.66 493.23 171.29 493.52 173.02 493.67C173.76 493.72 174.14 493.76 174.14 493.76V495.12V496.89L174.29 537.84L174.55 617.26H78.8701V617.25Z" fill="url(#paint25_linear_31_16756)" stroke="black" stroke-linecap="round" stroke-linejoin="round"/>
<path d="M116.87 265.729C117.37 274.349 117.63 281.989 118.12 287.469C119.88 307.149 127.86 342.409 131.61 358.329C132.81 363.399 133.59 366.509 133.59 366.509C133.59 366.509 92.7997 366.039 91.8497 364.579C91.6997 364.349 91.2597 359.949 90.5897 352.679C90.2497 348.829 89.8397 344.169 89.3997 338.899C85.2597 290.289 77.4697 189.639 77.4697 189.639C78.3997 189.579 79.3097 189.569 80.1797 189.599C85.4697 189.729 89.9697 191.219 93.8097 193.749C111.75 205.539 115.34 239.999 116.85 265.739L116.87 265.729Z" fill="url(#paint26_linear_31_16756)" stroke="black" stroke-linecap="round" stroke-linejoin="round"/>
<path d="M55.53 210.05C56.69 214.52 57.55 219.45 58.07 224.71C59.94 243.83 56.85 260.69 56.51 278.17C56.47 281.48 56.51 284.79 56.69 288.16C56.85 291.28 57.15 294.42 57.63 297.63C60.99 320.28 64.51 339.2 66.91 351.28C68.72 360.43 69.92 365.66 69.92 365.66L49.85 369.02C49.85 369.02 44.9 365.09 39.87 358.62C35.16 352.6 30.39 344.38 29.46 335.05C29.3 333.43 29.16 331.67 29.06 329.8C28.96 328.36 28.89 326.87 28.82 325.3C28.55 318.83 28.5 311.37 28.51 303.72C28.51 291.72 28.76 279.2 28.75 269.23C28.76 266.53 28.75 264.05 28.69 261.79C28.67 260.67 28.64 259.62 28.62 258.64C28.25 247.51 28.04 184.37 36.03 182.75C42.41 181.43 51.01 192.31 55.52 210.03L55.53 210.05Z" fill="url(#paint27_linear_31_16756)"/>
<mask id="mask5_31_16756" style="mask-type:luminance" maskUnits="userSpaceOnUse" x="28" y="182" width="42" height="188">
<path d="M55.53 210.05C56.69 214.52 57.55 219.45 58.07 224.71C59.94 243.83 56.85 260.69 56.51 278.17C56.47 281.48 56.51 284.79 56.69 288.16C56.85 291.28 57.15 294.42 57.63 297.63C60.99 320.28 64.51 339.2 66.91 351.28C68.72 360.43 69.92 365.66 69.92 365.66L49.85 369.02C49.85 369.02 44.9 365.09 39.87 358.62C35.16 352.6 30.39 344.38 29.46 335.05C29.3 333.43 29.16 331.67 29.06 329.8C28.96 328.36 28.89 326.87 28.82 325.3C28.55 318.83 28.5 311.37 28.51 303.72C28.51 291.72 28.76 279.2 28.75 269.23C28.76 266.53 28.75 264.05 28.69 261.79C28.67 260.67 28.64 259.62 28.62 258.64C28.25 247.51 28.04 184.37 36.03 182.75C42.41 181.43 51.01 192.31 55.52 210.03L55.53 210.05Z" fill="white"/>
</mask>
<g mask="url(#mask5_31_16756)">
<path d="M55.4799 207.199C56.5599 211.169 57.7499 216.889 57.9999 224.039C56.8399 209.369 52.0299 200.519 47.4999 195.009C43.3399 189.949 37.0999 184.889 37.7399 184.039C38.1499 183.499 41.1399 185.049 43.7999 186.559C46.1699 188.859 49.4699 192.569 52.1299 197.889C53.9099 201.449 54.7199 204.379 55.4899 207.199H55.4799Z" fill="url(#paint28_linear_31_16756)"/>
</g>
<path d="M55.53 210.05C56.69 214.52 57.55 219.45 58.07 224.71C59.94 243.83 56.85 260.69 56.51 278.17C56.47 281.48 56.51 284.79 56.69 288.16C56.85 291.28 57.15 294.42 57.63 297.63C60.99 320.28 64.51 339.2 66.91 351.28C68.72 360.43 69.92 365.66 69.92 365.66L49.85 369.02C49.85 369.02 44.9 365.09 39.87 358.62C35.16 352.6 30.39 344.38 29.46 335.05C29.3 333.43 29.16 331.67 29.06 329.8C28.96 328.36 28.89 326.87 28.82 325.3C28.55 318.83 28.5 311.37 28.51 303.72C28.51 291.72 28.76 279.2 28.75 269.23C28.76 266.53 28.75 264.05 28.69 261.79C28.67 260.67 28.64 259.62 28.62 258.64C28.25 247.51 28.04 184.37 36.03 182.75C42.41 181.43 51.01 192.31 55.52 210.03L55.53 210.05Z" stroke="black" stroke-linecap="round" stroke-linejoin="round"/>
<path opacity="0.19" d="M116.87 265.74C117.36 274.35 117.64 281.99 118.13 287.46C119.64 304.48 125.83 333.15 129.9 350.88C130.31 352.64 130.69 354.27 131.05 355.79C131.07 355.94 131.11 356.05 131.13 356.17C131.29 356.92 131.46 357.65 131.63 358.32L90.62 352.68L89.61 352.53V351.97L89.59 351.87L89.52 346.59L89.43 338.9L88.23 246.78C95.28 284.12 116.6 268.93 116.88 265.74H116.87Z" fill="#270D1D"/>
<path d="M79.26 187.219C83.32 194.819 85.61 205.329 86.87 216.589C89.03 235.629 88.26 256.749 88.13 269.389C88.13 272.479 88.13 275.059 88.24 276.979C89.24 295.559 101.78 365.049 101.78 365.049L87.81 362.979L64.58 359.509C64.58 359.509 64.46 356.819 64.29 352.599C63.71 338.049 62.4 305.369 62.57 303.129C62.66 302.049 61.36 285.109 60.26 263.889C58.88 237.099 57.79 203.469 60.09 186.169C61.07 178.819 70.26 175.849 75.23 181.349C76.74 183.019 78.08 184.989 79.27 187.209L79.26 187.219Z" fill="url(#paint29_linear_31_16756)"/>
<mask id="mask6_31_16756" style="mask-type:luminance" maskUnits="userSpaceOnUse" x="58" y="178" width="44" height="188">
<path d="M79.26 187.219C83.32 194.819 85.61 205.329 86.87 216.589C89.03 235.629 88.26 256.749 88.13 269.389C88.13 272.479 88.13 275.059 88.24 276.979C89.24 295.559 101.78 365.049 101.78 365.049L87.81 362.979L64.58 359.509C64.58 359.509 64.46 356.819 64.29 352.599C63.71 338.049 62.4 305.369 62.57 303.129C62.66 302.049 61.36 285.109 60.26 263.889C58.88 237.099 57.79 203.469 60.09 186.169C61.07 178.819 70.26 175.849 75.23 181.349C76.74 183.019 78.08 184.989 79.27 187.209L79.26 187.219Z" fill="white"/>
</mask>
<g mask="url(#mask6_31_16756)">
<path d="M84.5002 201.119C86.8202 210.499 87.7502 216.699 87.6002 216.729C87.3502 216.779 87.9302 197.279 75.7002 186.069C72.0302 182.709 66.7302 179.649 67.2302 178.679C67.5902 177.989 70.6202 178.839 73.1702 179.679C75.6802 182.009 79.0902 185.789 81.5302 191.239C81.8802 192.009 82.7202 193.969 84.4902 201.129L84.5002 201.119Z" fill="url(#paint30_linear_31_16756)"/>
</g>
<path d="M79.26 187.219C83.32 194.819 85.61 205.329 86.87 216.589C89.03 235.629 88.26 256.749 88.13 269.389C88.13 272.479 88.13 275.059 88.24 276.979C89.24 295.559 101.78 365.049 101.78 365.049L87.81 362.979L64.58 359.509C64.58 359.509 64.46 356.819 64.29 352.599C63.71 338.049 62.4 305.369 62.57 303.129C62.66 302.049 61.36 285.109 60.26 263.889C58.88 237.099 57.79 203.469 60.09 186.169C61.07 178.819 70.26 175.849 75.23 181.349C76.74 183.019 78.08 184.989 79.27 187.209L79.26 187.219Z" stroke="black" stroke-linecap="round" stroke-linejoin="round"/>
<path opacity="0.43" d="M88.2698 260.66C88.4198 265.9 88.7898 269.95 88.9898 271.99C91.8298 300.04 103.98 343.79 113.74 362.51C114.29 363.56 115.61 366.02 114.61 367.6C112.2 371.4 98.1698 366.71 87.7998 362.99L101.77 365.06C101.77 365.06 89.2398 295.57 88.2298 276.99C88.1198 275.07 88.1198 272.49 88.1198 269.4C88.1198 268.73 88.1398 268.06 88.1398 267.39C88.1698 265.14 88.1998 262.9 88.2498 260.66H88.2698Z" fill="#270D1D"/>
<path opacity="0.19" d="M58.0401 228.17C56.9401 220.12 56.1201 214.27 55.5301 210.05C56.6901 214.52 57.5501 219.45 58.0701 224.71C59.9401 243.83 56.8501 260.69 56.5101 278.17C56.4701 281.48 56.5101 284.79 56.6901 288.16C56.0701 286.78 55.3201 285.66 54.3901 284.97C49.0201 280.9 39.8801 281.98 35.0501 286.92C31.0601 291 29.0801 300.8 28.5201 303.74C28.4301 304.15 28.3901 304.42 28.3501 304.52C28.3501 303.18 28.6601 261.75 28.6601 261.75L28.7001 261.81C39.8401 284.26 61.6001 253.53 58.0401 228.16V228.17Z" fill="#270D1D"/>
<path d="M85.95 274.689C84.61 275.599 82.34 276.879 79.28 277.389C73.61 278.339 69.17 276.019 67.75 275.199" stroke="black" stroke-linecap="round" stroke-linejoin="round"/>
<path d="M54.5101 278.459C53.1701 279.369 50.9001 280.649 47.8401 281.159C42.1701 282.109 37.7301 279.789 36.3101 278.969" stroke="black" stroke-linecap="round" stroke-linejoin="round"/>
<path d="M113.68 281.14C112.23 281.87 109.82 282.83 106.72 282.94C100.98 283.14 96.8801 280.25 95.5801 279.26" stroke="black" stroke-linecap="round" stroke-linejoin="round"/>
<path d="M-12.9902 311.85C-8.2402 312.57 -3.8502 313.54 0.209797 314.71C24.8598 321.8 37.5798 336.58 45.3598 352.02L65.5398 351.14C65.5398 351.14 73.7798 351.04 85.8798 351.5C85.9698 351.52 86.0698 351.5 86.1898 351.52C87.2898 351.56 88.4298 351.61 89.6098 351.65C101.62 352.19 116.65 353.31 131.07 355.57C132.83 355.84 134.55 356.13 136.28 356.43C136.18 356.12 136.09 355.85 136.01 355.64C135.89 355.29 135.81 355.07 135.79 355.05C135.7 354.92 135.3 353.7 134.66 351.72C130.74 339.51 118.29 297.88 119.45 294.76C119.62 294.27 119.85 292.84 120.1 290.71C121.69 277.29 124.38 236.54 124.38 236.54C147.18 244.26 148.38 285.95 144.05 302.13C143.99 302.33 144.02 302.71 144.13 303.21C145.33 309.7 154.06 339.1 162.09 355.43C163.23 357.74 164.27 359.78 165.21 361.43C166.53 363.86 167.85 365.78 169.1 366.96C169.91 367.76 170.99 368.94 172.31 370.43C177.42 378.65 192.54 403.02 201.92 431.38C202.75 442.89 199.87 455.02 195.77 465.59C195.31 466.83 194.82 468.03 194.32 469.18C188.36 483.21 177.18 493.81 173.99 495.49C173.79 495.59 173.64 495.66 173.5 495.7C169.61 496.7 147.76 501.71 128.95 503.57C121.47 505.24 113.41 504.86 107.59 503.67C103.6 502.85 100.52 501.62 97.4298 500.26C96.8698 500.02 96.3198 499.77 95.7598 499.52C95.7598 499.52 95.7598 499.52 95.7498 499.52C95.3598 499.34 94.9698 499.16 94.5698 498.97C89.5498 496.62 85.3398 494.02 81.5498 491.26C77.5598 488.44 73.7398 485.3 70.3198 481.99C70.3198 481.99 70.3098 481.98 70.2998 481.97C37.0298 452.51 34.8598 447.37 33.8698 442.6C32.6998 436.96 33.7898 438.36 33.5698 423.89C33.3698 410.63 31.1398 392.6 17.9498 373.87C17.8698 373.75 17.7898 373.62 17.6998 373.51C-4.38021 342.44 -26.3602 321.13 -25.6702 317.95C-24.9702 314.76 -13.0102 311.85 -13.0102 311.85H-12.9902Z" fill="url(#paint31_linear_31_16756)" stroke="black" stroke-linecap="round" stroke-linejoin="round"/>
<path d="M142.73 496.93C133.79 505.65 117.43 505.94 107.56 503.91C102.85 502.94 99.4098 501.4 95.7198 499.75C84.6598 494.8 77.5398 488.64 70.2598 482.2C36.9898 452.74 34.8198 447.6 33.8298 442.83C32.6598 437.19 33.7498 438.59 33.5298 424.12C33.3298 410.86 31.0998 392.83 17.9098 374.1C17.8298 373.98 17.7498 373.85 17.6598 373.74C-4.42024 342.67 -26.4002 321.36 -25.7102 318.18C-25.0102 314.99 -13.0502 312.08 -13.0502 312.08C-8.30024 312.8 -3.91024 313.77 0.149757 314.94C31.6598 324.01 43.6698 345.62 50.8098 365.16C50.9898 365.65 51.1598 366.13 51.3298 366.61C51.3298 366.63 51.3298 366.64 51.3298 366.64C54.8198 376.46 57.1698 385.65 60.2398 392.31C60.2498 392.35 60.2798 392.39 60.2898 392.44C61.5598 395.17 62.9598 397.46 64.6098 399.21C64.6098 399.21 65.4498 400.06 66.4598 400.84C69.4498 403.17 78.1498 406.19 90.0098 408.73C97.3598 411.05 139.59 425 148.31 459.26C149.26 462.98 149.88 467.2 149.88 471.94" fill="url(#paint32_linear_31_16756)"/>
<mask id="mask7_31_16756" style="mask-type:luminance" maskUnits="userSpaceOnUse" x="-26" y="312" width="176" height="193">
<path d="M142.73 496.93C133.79 505.65 117.43 505.94 107.56 503.91C102.85 502.94 99.4098 501.4 95.7198 499.75C84.6598 494.8 77.5398 488.64 70.2598 482.2C36.9898 452.74 34.8198 447.6 33.8298 442.83C32.6598 437.19 33.7498 438.59 33.5298 424.12C33.3298 410.86 31.0998 392.83 17.9098 374.1C17.8298 373.98 17.7498 373.85 17.6598 373.74C-4.42024 342.67 -26.4002 321.36 -25.7102 318.18C-25.0102 314.99 -13.0502 312.08 -13.0502 312.08C-8.30024 312.8 -3.91024 313.77 0.149757 314.94C31.6598 324.01 43.6698 345.62 50.8098 365.16C50.9898 365.65 51.1598 366.13 51.3298 366.61C51.3298 366.63 51.3298 366.64 51.3298 366.64C54.8198 376.46 57.1698 385.65 60.2398 392.31C60.2498 392.35 60.2798 392.39 60.2898 392.44C61.5598 395.17 62.9598 397.46 64.6098 399.21C64.6098 399.21 65.4498 400.06 66.4598 400.84C69.4498 403.17 78.1498 406.19 90.0098 408.73C97.3598 411.05 139.59 425 148.31 459.26C149.26 462.98 149.88 467.2 149.88 471.94" fill="white"/>
</mask>
<g mask="url(#mask7_31_16756)">
<path d="M146.32 461.5C143.98 464.71 136.96 464.24 132.41 461.95C125.49 458.46 123.22 450.21 122.54 448.04C119.47 438.33 108.17 423.99 71.7998 403.79C75.9998 404.74 81.5598 406.15 87.9998 408.21C89.8998 408.82 94.3798 410.27 99.1398 412.16C105.59 414.72 115.27 418.57 124.36 425.76C124.4 425.79 124.47 425.84 124.54 425.9C137.39 436.12 150.85 455.3 146.33 461.5H146.32Z" fill="url(#paint33_linear_31_16756)"/>
<path d="M50.8199 365.14C45.6499 355.97 37.2299 343.56 23.9699 331.75C15.4999 324.2 7.1699 318.78 0.149902 314.93C6.3599 316.27 17.0699 319.49 27.5599 327.88C44.3399 341.31 49.3699 359.04 50.8199 365.14Z" fill="url(#paint34_linear_31_16756)"/>
</g>
<path d="M142.73 496.93C133.79 505.65 117.43 505.94 107.56 503.91C102.85 502.94 99.4098 501.4 95.7198 499.75C84.6598 494.8 77.5398 488.64 70.2598 482.2C36.9898 452.74 34.8198 447.6 33.8298 442.83C32.6598 437.19 33.7498 438.59 33.5298 424.12C33.3298 410.86 31.0998 392.83 17.9098 374.1C17.8298 373.98 17.7498 373.85 17.6598 373.74C-4.42024 342.67 -26.4002 321.36 -25.7102 318.18C-25.0102 314.99 -13.0502 312.08 -13.0502 312.08C-8.30024 312.8 -3.91024 313.77 0.149757 314.94C31.6598 324.01 43.6698 345.62 50.8098 365.16C50.9898 365.65 51.1598 366.13 51.3298 366.61C51.3298 366.63 51.3298 366.64 51.3298 366.64C54.8198 376.46 57.1698 385.65 60.2398 392.31C60.2498 392.35 60.2798 392.39 60.2898 392.44C61.5598 395.17 62.9598 397.46 64.6098 399.21C64.6098 399.21 65.4498 400.06 66.4598 400.84C69.4498 403.17 78.1498 406.19 90.0098 408.73C97.3598 411.05 139.59 425 148.31 459.26C149.26 462.98 149.88 467.2 149.88 471.94" stroke="black" stroke-linecap="round" stroke-linejoin="round"/>
<path opacity="0.43" d="M157.45 359.31C157.45 359.31 156.52 359.21 154.93 359.03L154.72 359C150.18 358.46 140.63 357.33 131.12 356.17C124.89 355.4 118.69 354.61 113.87 353.98C108.82 353.31 99.5898 352.59 89.5798 351.97C88.4498 351.89 87.3098 351.82 86.1498 351.74C86.0398 351.74 85.9398 351.74 85.8398 351.72C77.6698 351.63 69.4598 351.58 61.1998 351.55C56.4698 351.53 51.7498 351.53 47.0498 351.53C49.7198 351.13 52.4998 350.63 55.3798 350.02C57.0898 349.66 58.7398 349.27 60.3498 348.87C61.0898 333.63 61.8198 318.38 62.5598 303.14C66.8298 316.48 71.0898 329.83 75.3598 343.17C79.8298 344.42 84.5498 345.57 89.4998 346.59C104.27 349.63 117.91 350.76 129.88 350.89C130.29 352.65 130.67 354.28 131.03 355.8C132.79 356.07 134.51 356.36 136.24 356.66C136.14 356.35 136.05 356.08 135.97 355.87C135.85 355.52 135.77 355.3 135.75 355.28C135.66 355.15 135.26 353.93 134.62 351.95C142.26 353.8 149.94 356.19 157.44 359.32L157.45 359.31Z" fill="#270D1D"/>
<path opacity="0.43" d="M144.1 303.439C145.3 309.929 154.03 339.329 162.06 355.659L163.29 360.409L154.92 359.029L154.71 358.999L135.97 355.869C135.85 355.519 135.77 355.299 135.75 355.279C135.66 355.149 135.26 353.929 134.62 351.949C130.7 339.739 118.25 298.109 119.41 294.989C119.58 294.499 119.81 293.069 120.06 290.939C128.01 305.659 139.05 306.259 144.09 303.439H144.1Z" fill="#270D1D"/>
<path opacity="0.19" d="M64.6401 399.199L65.0501 400.389C62.9401 400.029 59.3801 399.699 55.2401 400.769C50.5401 401.979 47.1901 404.409 46.0901 405.469C37.2601 413.979 55.4801 447.539 57.0001 450.289C64.3901 463.689 77.1201 482.819 98.9601 502.229C95.5901 500.619 90.8901 498.199 85.5501 494.829C77.5801 489.799 73.4101 485.959 53.2401 466.559C41.4301 455.199 35.4801 449.379 33.8101 442.839C32.5801 438.019 33.8601 437.849 33.5401 426.849C33.3101 418.839 32.8701 406.689 28.2501 393.739C26.4901 388.809 23.4201 381.819 17.9001 374.099C11.2601 365.019 4.1201 355.699 -3.5599 346.229C-9.4599 338.939 -15.3399 331.989 -21.1499 325.359C-17.1199 328.499 -10.9099 333.599 -3.8999 340.509C17.3101 361.409 26.9001 380.259 38.9601 379.209C40.0401 379.119 43.9101 378.779 46.9501 375.879C50.7901 372.219 50.8401 366.809 50.8001 365.149C56.1001 379.639 58.7101 392.969 64.6201 399.209L64.6401 399.199Z" fill="#270D1D"/>
<path opacity="0.32" d="M90.9099 408.94C83.1199 407.8 77.0999 405.76 73.0399 404.1C67.5599 401.85 64.8899 399.96 62.9299 397.3C61.2999 395.09 60.6999 393.09 60.0999 391.16C58.2499 385.28 55.6499 379.65 53.7699 373.77C52.1699 368.77 49.6799 361.6 45.8999 352.72C50.1599 352.25 54.5199 351.85 58.9699 351.56C87.4699 349.68 113.49 352.17 136.26 356.66C141.32 357.27 146.46 357.94 151.68 358.68C155.61 359.23 159.48 359.81 163.31 360.41C162.2 357.33 161.09 354.24 159.99 351.16C161.92 356.34 164.21 360.02 165.94 362.43C168.17 365.53 169.7 366.81 172.74 371.12C173.25 371.85 174.96 374.3 177.37 378.49C183.24 388.71 191.6 406.39 192.62 408.55C193.62 410.58 194.71 412.63 195.57 414.85L201.97 431.42C201.4 428.76 199.58 421.91 193.96 419.29C191.8 418.28 189.85 418.32 184.94 418.76C173.62 419.78 167.96 420.3 165.48 421.57C157.65 425.58 154.67 433.8 152.18 440.64C148.57 450.57 148.77 459.7 149.58 465.85C149.03 461.78 148.11 458.51 147.33 456.21C147.33 456.21 143.93 446.14 135.74 436.72C134.21 434.96 132.57 433.34 132.57 433.34C129.7 430.53 126.9 428.4 123.63 425.95C111.13 416.59 99.1299 411.65 90.9399 408.95L90.9099 408.94Z" fill="#270D1D"/>
<path d="M145.47 382.46C140.01 385 125.71 390.77 107.3 388C90.8398 385.52 79.7398 377.51 75.0098 373.66" stroke="black" stroke-linecap="round" stroke-linejoin="round"/>
<path opacity="0.43" d="M50.7398 363.33C50.9098 363.84 51.0498 364.31 51.1898 364.82C46.7498 353.84 39.7898 341.09 29.0598 329.83C28.9598 328.39 28.8898 326.9 28.8198 325.33C40.9398 336.5 46.8398 350.41 50.7398 363.34V363.33Z" fill="#270D1D"/>
<path opacity="0.19" d="M86.1499 407.619C76.8299 404.719 69.4499 402.969 66.4899 400.829C65.8399 400.359 65.2299 399.809 64.6399 399.199C62.9899 397.449 61.5899 395.159 60.3199 392.429C60.2999 392.389 60.2799 392.349 60.2699 392.299C57.1999 385.639 54.8499 376.449 51.3599 366.629C61.7799 386.549 75.2199 399.559 86.1599 407.619H86.1499Z" fill="#270D1D"/>
<path d="M31.5 193.47C31.53 192.4 31.94 178.79 36.26 177.98C37.49 177.75 38.69 178.62 39.96 179.55C39.96 179.55 42.42 181.34 45.97 188.69C45.97 188.69 44.93 187.47 43.43 186.28C42.74 185.73 40.2 183.92 38.15 184.01C35.31 184.13 32.39 188 31.51 193.48L31.5 193.47Z" fill="url(#paint35_linear_31_16756)" stroke="black" stroke-linecap="round" stroke-linejoin="round"/>
<path d="M63.6801 173.11C63.6801 173.11 60.5001 174.27 59.3701 194.77C59.5401 189.57 61.1501 185.93 62.2301 183.97C63.4901 181.67 64.7101 179.52 67.2401 178.68C69.5701 177.91 71.7701 178.68 72.7501 179.09C72.4201 178.26 70.9601 174.9 67.4301 173.57C66.4001 173.18 64.9801 172.65 63.6901 173.11H63.6801Z" fill="url(#paint36_linear_31_16756)" stroke="black" stroke-linecap="round" stroke-linejoin="round"/>
<path d="M123.03 254.79C123.72 246.11 127.05 239.73 127.99 239.24C128.93 238.75 131.49 240.76 131.49 240.76C131.49 240.76 129.43 237.74 126.99 236.8C124.55 235.86 124.19 236.54 124.19 236.54L123.03 254.79Z" fill="url(#paint37_linear_31_16756)" stroke="black" stroke-linecap="round" stroke-linejoin="round"/>
<path opacity="0.19" d="M198.01 459.4C197.55 461.11 197.01 462.86 196.37 464.63C191.27 478.76 182.02 488.66 174.15 495.12V496.89L174.3 537.84C172.44 529.33 165.94 512.43 144.02 517.94C127.31 522.14 99.8197 571.5 81.1297 608.92C83.1497 601.14 85.7697 590.9 88.7697 578.84C88.7697 578.84 91.8397 566.5 95.8397 548.88C95.8397 548.88 99.2398 533.87 100.7 517.34C100.9 515.04 100.89 513.51 100.87 511.88C100.82 507.59 100.37 505.85 100.22 505.31C99.6698 503.34 98.8497 501.84 98.2497 500.87C93.4097 498.8 86.2697 495.26 78.6197 489.39C77.0697 488.2 74.9897 486.36 70.8797 482.71C55.1397 468.75 47.1597 461.65 42.0697 455.52C40.2797 453.36 37.6597 450.06 34.7397 445.78C39.0897 450.74 91.4998 509.08 135.95 493.93C140.13 492.51 144.48 490.35 148.86 487.14C152.91 489.94 158.61 492.33 165.1 492.13C179.31 491.71 192.95 478.66 198.01 459.39V459.4Z" fill="#270D1D"/>
<path d="M66.4898 400.829C64.6498 400.289 61.1398 399.529 56.8498 400.269C51.9198 401.119 48.5498 403.489 47.0298 404.719" stroke="black" stroke-linecap="round" stroke-linejoin="round"/>
<path d="M62.5 389.01C57.19 389.42 50.07 390.54 42.17 393.51C36.39 395.68 31.65 398.3 27.99 400.67C27.09 398 26.19 395.33 25.29 392.67C28.69 390.11 33.74 386.88 40.42 384.46C48.25 381.62 55.18 381.03 59.8 381C60.7 383.67 61.6 386.34 62.5 389V389.01Z" fill="url(#paint38_linear_31_16756)" stroke="black" stroke-linecap="round" stroke-linejoin="round"/>
<path d="M28 400.68C28.09 400.96 28.28 401.4 28.66 401.83C29.23 402.47 29.91 402.7 30.21 402.78C30.19 402.36 30.18 401.94 30.16 401.52C32.78 400 35.75 398.49 39.05 397.11C47.08 393.75 54.52 392.24 60.46 391.56C60.7 392.02 60.95 392.48 61.19 392.94C61.46 392.7 62.05 392.11 62.37 391.15C62.69 390.19 62.56 389.37 62.49 389.01C56.31 389.61 48.23 391.1 39.41 394.77C35.01 396.61 31.2 398.66 27.98 400.67L28 400.68Z" fill="url(#paint39_linear_31_16756)" stroke="black" stroke-linecap="round" stroke-linejoin="round"/>
<path d="M30.05 394.239C29.5 393.409 28.94 392.569 28.39 391.739C28.35 391.479 28.48 391.219 28.71 391.089C28.94 390.959 29.23 390.999 29.43 391.189C29.43 391.159 29.44 390.799 29.74 390.599C29.98 390.439 30.3 390.439 30.55 390.599C30.82 391.599 31.1 392.599 31.37 393.589C30.93 393.809 30.49 394.019 30.05 394.239Z" fill="url(#paint40_linear_31_16756)" stroke="black" stroke-linecap="round" stroke-linejoin="round"/>
<path d="M30.6699 393.329C31.4499 392.699 32.2199 392.069 32.9999 391.439C33.2599 391.369 33.5299 391.479 33.6799 391.699C33.8299 391.919 33.8199 392.209 33.6499 392.419C33.6799 392.419 34.0399 392.389 34.2699 392.669C34.4499 392.889 34.4899 393.209 34.3499 393.479C33.3799 393.849 32.4199 394.219 31.4499 394.589C31.1899 394.169 30.9299 393.749 30.6799 393.339L30.6699 393.329Z" fill="url(#paint41_linear_31_16756)" stroke="black" stroke-linecap="round" stroke-linejoin="round"/>
<path d="M31.6003 393.79C32.1503 394.62 32.7103 395.46 33.2603 396.29C33.3003 396.55 33.1703 396.81 32.9403 396.94C32.7103 397.07 32.4203 397.03 32.2203 396.84C32.2203 396.87 32.2103 397.23 31.9103 397.43C31.6703 397.59 31.3503 397.59 31.1003 397.43C30.8303 396.43 30.5503 395.43 30.2803 394.44C30.7203 394.22 31.1603 394.01 31.6003 393.79Z" fill="url(#paint42_linear_31_16756)" stroke="black" stroke-linecap="round" stroke-linejoin="round"/>
<path d="M31.05 394.769C30.22 395.319 29.38 395.879 28.55 396.429C28.29 396.469 28.03 396.339 27.9 396.109C27.77 395.879 27.81 395.589 28 395.389C27.97 395.389 27.61 395.379 27.41 395.079C27.25 394.839 27.25 394.519 27.41 394.269C28.41 393.999 29.41 393.719 30.4 393.449C30.62 393.889 30.83 394.329 31.05 394.769Z" fill="url(#paint43_linear_31_16756)" stroke="black" stroke-linecap="round" stroke-linejoin="round"/>
<path d="M32.0103 393.33C32.3503 393.97 32.1103 394.76 31.4703 395.1C30.8303 395.44 30.0403 395.2 29.7003 394.56C29.3603 393.92 29.6003 393.13 30.2403 392.79C30.8803 392.45 31.6703 392.69 32.0103 393.33Z" fill="url(#paint44_linear_31_16756)" stroke="black" stroke-linecap="round" stroke-linejoin="round"/>
<path d="M38.0101 390.23C37.5501 389.34 37.1001 388.45 36.6401 387.56C36.6301 387.29 36.7901 387.05 37.0301 386.95C37.2701 386.85 37.5601 386.92 37.7301 387.13C37.7301 387.1 37.7801 386.75 38.1001 386.58C38.3501 386.45 38.6701 386.48 38.9001 386.67C39.0601 387.69 39.2201 388.71 39.3801 389.74C38.9201 389.91 38.4601 390.07 37.9901 390.24L38.0101 390.23Z" fill="url(#paint45_linear_31_16756)" stroke="black" stroke-linecap="round" stroke-linejoin="round"/>
<path d="M38.73 389.389C39.57 388.849 40.41 388.309 41.26 387.769C41.52 387.729 41.78 387.87 41.9 388.1C42.02 388.33 41.98 388.619 41.79 388.819C41.82 388.819 42.18 388.839 42.38 389.139C42.54 389.379 42.53 389.699 42.37 389.949C41.37 390.209 40.37 390.47 39.36 390.72C39.15 390.28 38.94 389.829 38.73 389.389Z" fill="url(#paint46_linear_31_16756)" stroke="black" stroke-linecap="round" stroke-linejoin="round"/>
<path d="M39.6 389.96C40.06 390.85 40.51 391.74 40.97 392.63C40.98 392.9 40.82 393.14 40.58 393.24C40.34 393.34 40.05 393.27 39.88 393.06C39.88 393.09 39.83 393.44 39.51 393.61C39.26 393.74 38.94 393.71 38.71 393.52C38.55 392.5 38.39 391.48 38.23 390.45C38.69 390.28 39.15 390.12 39.62 389.95L39.6 389.96Z" fill="url(#paint47_linear_31_16756)" stroke="black" stroke-linecap="round" stroke-linejoin="round"/>
<path d="M38.9499 390.86C38.0599 391.32 37.1699 391.77 36.2799 392.23C36.0099 392.24 35.7699 392.08 35.6699 391.84C35.5699 391.6 35.6399 391.31 35.8499 391.14C35.8199 391.14 35.4699 391.09 35.2999 390.77C35.1699 390.52 35.1999 390.2 35.3899 389.97C36.4099 389.81 37.4299 389.65 38.4599 389.49C38.6299 389.95 38.7899 390.41 38.9599 390.88L38.9499 390.86Z" fill="url(#paint48_linear_31_16756)" stroke="black" stroke-linecap="round" stroke-linejoin="round"/>
<path d="M40.0701 389.55C40.3301 390.22 40.0001 390.98 39.3301 391.24C38.6601 391.5 37.9001 391.17 37.6401 390.5C37.3801 389.83 37.7101 389.07 38.3801 388.81C39.0501 388.55 39.8101 388.88 40.0701 389.55Z" fill="url(#paint49_linear_31_16756)" stroke="black" stroke-linecap="round" stroke-linejoin="round"/>
<path d="M46.46 387.159C46.07 386.239 45.68 385.319 45.29 384.399C45.29 384.129 45.47 383.899 45.73 383.819C45.99 383.739 46.26 383.829 46.42 384.049C46.42 384.019 46.5 383.669 46.83 383.529C47.09 383.409 47.41 383.469 47.63 383.679C47.72 384.709 47.8 385.739 47.89 386.769C47.42 386.899 46.94 387.029 46.47 387.169L46.46 387.159Z" fill="url(#paint50_linear_31_16756)" stroke="black" stroke-linecap="round" stroke-linejoin="round"/>
<path d="M47.23 386.38C48.11 385.9 48.99 385.43 49.87 384.95C50.13 384.93 50.38 385.08 50.49 385.33C50.6 385.58 50.53 385.86 50.33 386.04C50.36 386.04 50.72 386.08 50.89 386.4C51.03 386.65 51 386.97 50.82 387.21C49.8 387.4 48.78 387.58 47.77 387.77C47.59 387.31 47.42 386.85 47.24 386.4L47.23 386.38Z" fill="url(#paint51_linear_31_16756)" stroke="black" stroke-linecap="round" stroke-linejoin="round"/>
<path d="M48.0599 386.999C48.4499 387.919 48.8399 388.839 49.2299 389.759C49.2299 390.029 49.0499 390.259 48.7899 390.339C48.5299 390.419 48.2599 390.329 48.0999 390.109C48.0999 390.139 48.0199 390.489 47.6899 390.629C47.4299 390.749 47.1099 390.689 46.8899 390.479C46.7999 389.449 46.7199 388.419 46.6299 387.389C47.0999 387.259 47.5799 387.129 48.0499 386.989L48.0599 386.999Z" fill="url(#paint52_linear_31_16756)" stroke="black" stroke-linecap="round" stroke-linejoin="round"/>
<path d="M47.3498 387.859C46.4298 388.249 45.5099 388.639 44.5899 389.029C44.3199 389.029 44.0899 388.849 44.0099 388.589C43.9299 388.329 44.0199 388.059 44.2399 387.899C44.2099 387.899 43.8599 387.819 43.7199 387.489C43.5999 387.229 43.6599 386.909 43.8699 386.689C44.8999 386.599 45.9298 386.519 46.9598 386.429C47.0898 386.899 47.2199 387.379 47.3599 387.849L47.3498 387.859Z" fill="url(#paint53_linear_31_16756)" stroke="black" stroke-linecap="round" stroke-linejoin="round"/>
<path d="M48.56 386.629C48.78 387.319 48.39 388.049 47.7 388.269C47.01 388.489 46.28 388.099 46.06 387.409C45.84 386.719 46.23 385.989 46.92 385.769C47.61 385.549 48.34 385.939 48.56 386.629Z" fill="url(#paint54_linear_31_16756)" stroke="black" stroke-linecap="round" stroke-linejoin="round"/>
<path d="M55.1504 385.34C54.8204 384.4 54.4804 383.46 54.1504 382.51C54.1704 382.25 54.3604 382.02 54.6204 381.96C54.8804 381.9 55.1504 382 55.2904 382.23C55.2904 382.2 55.3904 381.86 55.7304 381.73C56.0004 381.63 56.3104 381.71 56.5204 381.93C56.5404 382.96 56.5704 384 56.5904 385.03C56.1104 385.13 55.6304 385.24 55.1504 385.34Z" fill="url(#paint55_linear_31_16756)" stroke="black" stroke-linecap="round" stroke-linejoin="round"/>
<path d="M55.9702 384.6C56.8802 384.18 57.7802 383.75 58.6902 383.33C58.9602 383.33 59.1902 383.5 59.2802 383.75C59.3702 384 59.2802 384.28 59.0802 384.45C59.1102 384.45 59.4602 384.52 59.6202 384.84C59.7502 385.1 59.7002 385.41 59.5002 385.64C58.4702 385.76 57.4502 385.89 56.4202 386.01C56.2702 385.54 56.1202 385.07 55.9702 384.61V384.6Z" fill="url(#paint56_linear_31_16756)" stroke="black" stroke-linecap="round" stroke-linejoin="round"/>
<path d="M56.7603 385.28C57.0903 386.22 57.4303 387.16 57.7603 388.11C57.7403 388.37 57.5503 388.6 57.2903 388.66C57.0303 388.72 56.7603 388.62 56.6203 388.39C56.6203 388.42 56.5203 388.76 56.1803 388.89C55.9103 388.99 55.6003 388.91 55.3903 388.69C55.3703 387.66 55.3403 386.62 55.3203 385.59C55.8003 385.49 56.2803 385.38 56.7603 385.28Z" fill="url(#paint57_linear_31_16756)" stroke="black" stroke-linecap="round" stroke-linejoin="round"/>
<path d="M56.0002 386.089C55.0602 386.419 54.1202 386.759 53.1702 387.089C52.9102 387.069 52.6802 386.879 52.6202 386.619C52.5602 386.359 52.6602 386.089 52.8902 385.949C52.8602 385.949 52.5202 385.849 52.3902 385.509C52.2902 385.239 52.3702 384.929 52.5902 384.719C53.6202 384.699 54.6602 384.669 55.6902 384.649C55.7902 385.129 55.9002 385.609 56.0002 386.089Z" fill="url(#paint58_linear_31_16756)" stroke="black" stroke-linecap="round" stroke-linejoin="round"/>
<path d="M57.2801 384.93C57.4501 385.63 57.0301 386.34 56.3301 386.51C55.6301 386.68 54.9201 386.26 54.7501 385.56C54.5801 384.86 55.0001 384.15 55.7001 383.98C56.4001 383.81 57.1101 384.23 57.2801 384.93Z" fill="url(#paint59_linear_31_16756)" stroke="black" stroke-linecap="round" stroke-linejoin="round"/>
</g>
<path d="M281.781 344.34C283.481 351.04 279.431 357.859 272.721 359.569L107.241 401.65C100.541 403.359 93.7109 399.299 92.0109 392.59L26.3909 134.52C24.6809 127.81 28.7409 120.99 35.4409 119.28L200.921 77.1995C207.621 75.4895 214.441 79.5495 216.161 86.2595L281.781 344.34Z" fill="url(#paint60_linear_31_16756)" stroke="black" stroke-miterlimit="10"/>
<path d="M148.061 214.529C148.061 214.529 151.411 194.259 170.001 189.089C189.901 183.549 208.391 207.809 195.201 236.019C185.731 256.289 171.571 271.589 164.361 278.609C154.661 275.889 134.921 269.209 116.921 255.929C91.8508 237.449 96.5009 207.309 116.631 202.659C135.451 198.319 148.061 214.529 148.061 214.529Z" fill="#ED1C24"/>
<path d="M256.111 326.689L255.821 325.539L262.831 323.759L263.131 324.909L260.391 325.609L257.981 347.509L256.851 347.799L244.741 329.589L241.891 330.309L241.601 329.159L250.451 326.909L250.751 328.059L247.751 328.829L251.481 334.429L258.281 332.699L259.011 325.969L256.121 326.709L256.111 326.689ZM257.151 342.859L258.131 333.959L252.181 335.469L257.101 342.869H257.161L257.151 342.859Z" fill="#ED1C24"/>
<path d="M249.081 315.349C249.081 315.349 248.341 319.809 244.251 320.949C239.871 322.169 235.801 316.829 238.701 310.609C240.791 306.149 243.901 302.779 245.491 301.229C247.631 301.829 251.971 303.299 255.931 306.229C261.451 310.289 260.421 316.929 255.991 317.949C251.841 318.909 249.071 315.339 249.071 315.339L249.081 315.349Z" fill="#ED1C24"/>
<path d="M70.6509 146.72L70.9509 147.92L62.9609 149.91L62.6709 148.76L63.1109 148.65C63.2409 148.62 63.3709 148.56 63.5109 148.48C63.6509 148.4 63.7509 148.27 63.8309 148.1C63.8909 147.94 63.8909 147.75 63.8309 147.54C63.7709 147.33 63.6709 147.11 63.5009 146.88L63.4709 146.85L58.7709 140.46C58.1209 140.51 57.4609 140.62 56.7909 140.78C54.6809 141.3 52.8909 142.28 51.4009 143.71C49.9109 145.14 48.9509 146.81 48.5209 148.74L48.4609 149.16V149.26C48.3809 149.73 48.3909 150.16 48.4809 150.53C48.6209 151.11 48.9509 151.51 49.4609 151.71H49.4809C49.8309 151.85 50.2309 151.85 50.6909 151.74L51.1409 151.63L51.4109 152.79L43.4209 154.78L43.1509 153.62L43.5909 153.51C44.4609 153.29 45.2509 152.77 45.9609 151.95C46.6709 151.12 47.1109 150.21 47.2809 149.2V149.1L50.0009 130.69C50.0609 130.25 50.0509 129.86 49.9609 129.49C49.8409 129.02 49.6109 128.67 49.2509 128.42C48.6309 128.19 48.0709 128.14 47.6009 128.26L47.1409 128.41L46.8409 127.22L52.5009 125.81L67.0709 145.63C67.4409 146.11 67.9209 146.46 68.5309 146.7C69.1409 146.94 69.6909 146.99 70.1909 146.87L70.6509 146.7V146.72ZM56.2609 139.7L57.9209 139.29L51.2809 130.26C51.2409 130.43 51.2009 130.6 51.1709 130.77L51.1409 130.96L49.1309 144.64C50.2409 143 51.7409 141.7 53.6109 140.73C53.7009 140.68 53.8009 140.63 53.9109 140.58C54.6609 140.21 55.4409 139.91 56.2709 139.7H56.2609Z" fill="black"/>
<path d="M64.4409 159.17C60.7109 160 60.5609 163.05 60.7009 164.46C60.1609 163.15 58.6109 160.53 54.9209 161.54C50.0709 162.87 50.7909 168.5 53.1809 170.83C55.5709 173.17 56.6709 173.83 58.8109 175.17C60.8309 176.43 63.2109 177.82 64.2009 178.79C64.2009 178.79 64.2709 178.91 64.2809 178.87C64.3109 178.9 64.3109 178.76 64.3109 178.76C64.7309 177.44 66.1909 175.09 67.3809 173.03C68.6509 170.84 69.3109 169.74 70.3209 166.56C71.3409 163.37 69.3309 158.07 64.4309 159.17H64.4409Z" fill="#EB1C24" stroke="black" stroke-width="0.75" stroke-linecap="round" stroke-linejoin="round"/>
<path d="M119.581 353.03C118.211 359.81 122.581 366.42 129.371 367.8L296.691 401.79C303.481 403.17 310.091 398.79 311.471 392.01L364.481 131.04C365.861 124.26 361.471 117.65 354.691 116.27L187.371 82.2799C180.591 80.8999 173.981 85.2799 172.601 92.0599L119.591 353.03H119.581Z" fill="url(#paint61_linear_31_16756)" stroke="black" stroke-miterlimit="10"/>
<path d="M141.661 333.87L142.711 340.56L149.581 341.96L153.031 336.18L149.991 335.57L150.231 334.4L159.191 336.22L158.951 337.38L156.071 336.8L144.851 355.57L143.701 355.33L140.231 333.58L137.471 333.02L137.711 331.85L144.801 333.29L144.561 334.46L141.651 333.87H141.661ZM144.391 350.69L148.941 343.05L142.931 341.84L144.331 350.68H144.391V350.69Z" fill="#0B0B0B"/>
<path d="M159.421 322.05C155.041 324.29 152.761 325.39 149.721 329.2C148.411 324.5 146.741 322.61 143.581 318.83C138.641 312.93 143.161 307.46 147.821 308.1C150.731 308.5 152.061 310.9 152.591 312.35C152.691 310.57 152.801 307.36 152.441 305.85L156.331 306.64C155.401 307.89 154.261 310.89 153.651 312.57C154.721 311.45 156.871 309.75 159.701 310.52C164.241 311.75 166.261 318.55 159.411 322.06L159.421 322.05Z" fill="#0B0B0B"/>
<path d="M211.711 213.45C230.541 203.8 240.321 199.1 253.411 182.7C259.061 202.91 266.231 211.05 279.811 227.28C301.021 252.64 281.621 276.18 261.571 273.43C249.071 271.72 243.391 261.39 241.071 255.16C240.641 262.84 240.151 276.61 241.721 283.14L224.981 279.74C228.971 274.34 233.901 261.47 236.501 254.23C231.931 259.06 222.671 266.35 210.491 263.05C190.961 257.76 182.271 228.52 211.701 213.45H211.711Z" fill="#0B0B0B"/>
<path d="M349.901 151.19L349.641 152.38L341.721 150.67L341.971 149.53L342.401 149.62C342.531 149.65 342.671 149.65 342.831 149.64C342.991 149.63 343.141 149.56 343.271 149.45C343.391 149.33 343.481 149.17 343.521 148.96C343.561 148.75 343.561 148.51 343.521 148.24V148.2L342.131 140.52C341.531 140.28 340.901 140.09 340.241 139.95C338.151 139.5 336.141 139.58 334.211 140.2C332.281 140.82 330.701 141.88 329.491 143.39L329.251 143.74L329.201 143.82C328.941 144.21 328.761 144.59 328.681 144.96C328.561 145.54 328.681 146.03 329.031 146.43V146.45C329.301 146.71 329.651 146.89 330.101 146.99L330.551 147.09L330.291 148.23L322.371 146.52L322.631 145.38L323.061 145.47C323.921 145.66 324.851 145.54 325.831 145.12C326.811 144.7 327.601 144.08 328.181 143.26L328.231 143.18L338.601 128.09C338.851 127.73 339.011 127.38 339.081 127.02C339.181 126.56 339.121 126.14 338.911 125.77C338.461 125.3 337.991 125.01 337.521 124.91L337.041 124.84L337.291 123.66L342.891 124.87L347.171 148.69C347.291 149.27 347.561 149.8 348.001 150.27C348.431 150.74 348.901 151.03 349.401 151.14L349.881 151.19H349.901ZM340.231 138.76L341.871 139.11L339.921 128.26C339.811 128.39 339.701 128.53 339.601 128.66L339.491 128.82L331.791 140.03C333.481 139.07 335.361 138.56 337.441 138.51C337.541 138.51 337.651 138.51 337.771 138.51C338.591 138.51 339.411 138.59 340.231 138.75V138.76Z" fill="black"/>
<path d="M340.171 165.88C338.571 163.14 336.611 160.39 335.851 159C335.271 157.96 334.881 157.17 334.711 156.85C334.701 156.82 334.681 156.79 334.671 156.77C334.651 156.79 334.621 156.81 334.601 156.83C334.321 157.06 333.631 157.61 332.681 158.32C331.411 159.27 328.491 160.97 325.911 162.81C323.321 164.64 322.661 166.89 322.651 168.87C322.641 170.85 324.231 173.06 327.431 173.34C328.431 173.43 329.251 173.11 329.901 172.64C328.971 175.25 327.221 176.33 327.221 176.33L333.261 177.63C332.421 176.16 332.411 174.33 332.501 173.22C332.901 173.91 333.511 174.52 334.451 174.85C337.481 175.91 339.851 174.56 340.651 172.75C341.451 170.94 341.781 168.62 340.171 165.89V165.88Z" fill="#2D291E" stroke="black" stroke-width="0.75" stroke-linecap="round" stroke-linejoin="round"/>
<path d="M285.571 333.8C286.201 340.69 281.131 346.79 274.241 347.43L104.221 363.07C97.3213 363.7 91.2213 358.63 90.5913 351.74L66.2013 86.5602C65.5713 79.6702 70.6413 73.5702 77.5313 72.9302L247.561 57.2902C254.451 56.6602 260.551 61.7302 261.191 68.6202L285.581 333.8H285.571Z" fill="url(#paint62_linear_31_16756)" stroke="black" stroke-miterlimit="10"/>
<path d="M263.161 313.72L263.051 312.53L270.261 311.87L270.371 313.06L267.561 313.32L261.751 334.57L260.581 334.68L251.471 314.8L248.541 315.07L248.431 313.89L257.531 313.05L257.641 314.23L254.561 314.52L257.371 320.63L264.351 319.99L266.121 313.45L263.161 313.73V313.72ZM261.641 329.85L264.001 321.22L257.891 321.78L261.581 329.85H261.641Z" fill="#0B0B0B"/>
<path d="M252.321 299.49C253.131 299.39 253.881 299.13 254.531 298.73C253.471 299.86 252.881 301.41 253.031 303.07C253.311 306.1 255.951 308.33 258.971 308.12C261.971 307.78 264.161 305.1 263.891 302.07C263.741 300.41 262.871 298.99 261.631 298.08C262.351 298.35 263.131 298.47 263.941 298.41C266.951 298.07 269.141 295.39 268.861 292.36C268.581 289.34 265.931 287.1 262.921 287.31C260.461 287.59 258.531 289.46 258.081 291.8C258.181 289.73 258.461 285.16 259.181 283.16L254.221 283.62C255.291 285.46 256.411 289.9 256.881 291.91C256.011 289.7 253.781 288.21 251.311 288.38C248.301 288.73 246.121 291.41 246.391 294.43C246.661 297.46 249.311 299.69 252.321 299.49Z" fill="black"/>
<path d="M198.291 188.04C194.941 188.43 191.841 189.53 189.111 191.16C193.511 186.5 195.971 180.05 195.341 173.17C194.191 160.62 183.211 151.34 170.711 152.2C158.261 153.63 149.151 164.76 150.311 177.31C150.951 184.19 154.541 190.08 159.721 193.86C156.741 192.76 153.491 192.24 150.131 192.47C137.681 193.9 128.581 205.02 129.731 217.57C130.891 230.12 141.861 239.4 154.361 238.53C164.601 237.35 172.561 229.62 174.431 219.93C174.031 228.51 172.831 247.45 169.851 255.77L190.451 253.88C186.001 246.25 181.371 227.84 179.421 219.47C183.021 228.66 192.251 234.81 202.541 234.1C215.001 232.68 224.091 221.55 222.931 209C221.781 196.45 210.811 187.17 198.301 188.03L198.291 188.04Z" fill="black"/>
<path d="M106.502 105.39L106.612 106.62L98.4315 107.36L98.3215 106.18L98.7715 106.14C98.9015 106.13 99.0415 106.09 99.1915 106.03C99.3415 105.97 99.4615 105.86 99.5615 105.71C99.6415 105.56 99.6715 105.38 99.6515 105.16C99.6315 104.94 99.5615 104.71 99.4215 104.46L99.4015 104.43L95.7415 97.4101C95.0915 97.3601 94.4215 97.3701 93.7415 97.4301C91.5815 97.6201 89.6615 98.3101 87.9815 99.4901C86.3015 100.67 85.0915 102.17 84.3715 104L84.2415 104.41L84.2115 104.5C84.0715 104.96 84.0215 105.38 84.0515 105.76C84.1015 106.36 84.3715 106.79 84.8415 107.08L84.8615 107.1C85.1915 107.27 85.5815 107.34 86.0515 107.3L86.5115 107.26L86.6015 108.44L78.4215 109.18L78.3315 108L78.7815 107.96C79.6715 107.88 80.5315 107.49 81.3615 106.78C82.1815 106.08 82.7615 105.24 83.0815 104.27L83.1115 104.18L88.5915 86.45C88.7215 86.03 88.7715 85.64 88.7415 85.2701C88.7015 84.7901 88.5215 84.41 88.2015 84.11C87.6215 83.79 87.0815 83.65 86.6015 83.7L86.1215 83.7801L86.0115 82.5601L91.8015 82.04L103.132 103.8C103.422 104.33 103.842 104.75 104.412 105.08C104.972 105.41 105.512 105.55 106.022 105.5L106.502 105.4V105.39ZM93.4015 96.2701L95.1015 96.1201L89.9415 86.2101C89.8715 86.3701 89.8115 86.53 89.7515 86.7L89.7015 86.88L85.6315 100.05C86.9815 98.61 88.6515 97.55 90.6415 96.88C90.7315 96.85 90.8415 96.8101 90.9515 96.7801C91.7415 96.5301 92.5615 96.3601 93.4115 96.2701H93.4015Z" fill="black"/>
<path d="M102.702 123.95C100.402 121.85 97.3117 123.5 97.3117 123.5C98.1217 122.46 98.6517 121.64 98.4017 120.08C98.4017 120.03 98.4017 119.97 98.3917 119.92C98.1617 117.42 95.9517 115.57 93.4517 115.79C90.9517 116.02 89.1017 118.23 89.3217 120.73C89.3517 121.05 89.4117 121.35 89.5017 121.64C89.7017 122.72 90.3017 123.33 91.1117 124.06C91.1117 124.06 87.7717 122.99 85.8817 125.47C83.9917 127.95 85.2817 130.56 86.0217 131.4C86.7617 132.23 87.8817 133.64 90.1917 133.26C92.2317 132.92 92.5117 132.54 93.8217 131.29C93.9317 134.41 92.2417 136.71 92.2417 136.71H92.3617L95.3417 136.43L98.3217 136.16H98.4417C97.1917 135.05 95.9417 132.39 95.9517 131.13C97.4317 132.11 97.7817 132.43 99.8417 132.4C102.182 132.36 103.032 130.78 103.612 129.83C104.192 128.88 104.992 126.07 102.692 123.97L102.702 123.95Z" fill="#292929" stroke="black" stroke-width="0.75" stroke-linecap="round" stroke-linejoin="round"/>
<path d="M116.061 333.48C115.411 340.37 120.481 346.48 127.371 347.13L297.371 363.06C304.261 363.71 310.361 358.64 311.011 351.75L335.871 86.6199C336.511 79.7299 331.451 73.6199 324.561 72.9699L154.561 57.0299C147.671 56.3799 141.561 61.4399 140.911 68.3399L116.061 333.47V333.48Z" fill="url(#paint63_linear_31_16756)" stroke="black" stroke-miterlimit="10"/>
<path d="M135.721 312.19L137.481 318.73L144.471 319.38L147.281 313.27L144.211 312.98L144.321 311.79L153.421 312.65L153.311 313.83L150.391 313.55L141.241 333.41L140.071 333.3L134.301 312.04L131.491 311.78L131.601 310.59L138.801 311.27L138.691 312.45L135.721 312.17V312.19ZM140.231 328.61L143.941 320.54L137.831 319.97L140.171 328.61H140.231Z" fill="#ED1C24"/>
<path d="M143.441 306.5C143.441 306.5 148.491 299.22 155.121 293.08C149.751 285.82 146.141 277.73 146.141 277.73C146.141 277.73 141.081 285.01 134.451 291.15C139.821 298.41 143.441 306.51 143.441 306.51V306.5Z" fill="#ED1C24"/>
<path d="M230.691 150.71C230.691 150.71 210.521 179.75 184.091 204.23C205.521 233.2 219.941 265.48 219.941 265.48C219.941 265.48 240.111 236.44 266.551 211.95C245.121 182.98 230.701 150.7 230.701 150.7L230.691 150.71Z" fill="#ED1C24"/>
<path d="M323.951 110.38L323.811 111.62L315.571 110.66L315.711 109.47L316.161 109.52C316.291 109.54 316.441 109.52 316.601 109.5C316.761 109.48 316.901 109.39 317.031 109.26C317.141 109.13 317.211 108.95 317.241 108.74C317.271 108.53 317.241 108.28 317.161 108V107.96L314.981 100.27C314.341 100.09 313.691 99.9596 313.001 99.8796C310.831 99.6296 308.791 99.9096 306.891 100.73C304.981 101.55 303.491 102.79 302.391 104.45L302.181 104.83L302.131 104.92C301.901 105.34 301.761 105.75 301.721 106.13C301.651 106.73 301.821 107.22 302.221 107.59L302.241 107.61C302.531 107.85 302.901 108 303.371 108.05L303.841 108.1L303.691 109.29L295.451 108.33L295.611 107.15L296.061 107.2C296.961 107.3 297.891 107.09 298.851 106.57C299.811 106.04 300.551 105.34 301.061 104.45L301.111 104.36L310.181 87.9696C310.401 87.5796 310.521 87.1996 310.571 86.8296C310.631 86.3496 310.531 85.9296 310.281 85.5796C309.771 85.1396 309.271 84.8996 308.781 84.8396L308.291 84.8196L308.431 83.5996L314.261 84.2796L320.971 108.12C321.151 108.7 321.481 109.21 321.971 109.65C322.461 110.09 322.961 110.34 323.481 110.4H323.971L323.951 110.38ZM312.881 98.6596L314.591 98.8596L311.531 88.0096C311.431 88.1596 311.331 88.2996 311.241 88.4496L311.151 88.6196L304.411 100.8C306.041 99.6496 307.911 98.9496 310.011 98.6996C310.111 98.6896 310.221 98.6796 310.341 98.6696C311.181 98.5896 312.021 98.5896 312.871 98.6696L312.881 98.6596Z" fill="black"/>
<path d="M308.611 113.939C306.671 116.309 304.331 118.869 301.531 121.459C299.651 123.189 297.811 124.709 296.051 126.029C297.831 128.269 299.711 130.859 301.541 133.799C303.081 136.279 304.381 138.669 305.481 140.889C307.051 139.039 308.851 137.089 310.901 135.109C313.471 132.619 316.001 130.499 318.341 128.729C316.671 126.839 314.871 124.569 313.101 121.909C311.211 119.059 309.741 116.349 308.611 113.939Z" fill="#EB1C24" stroke="black" stroke-linecap="round" stroke-linejoin="round"/>
<path d="M55.1802 211.26C56.3402 215.73 57.2002 220.66 57.7202 225.92C59.5902 245.04 56.5002 261.9 56.1602 279.38C56.1202 282.69 56.1602 286 56.3402 289.37C56.5802 293.75 57.0402 297.07 57.2802 298.84C58.2302 305.78 61.1102 325.16 65.1502 351.14C58.4202 351.43 51.6902 351.73 44.9702 352.02C42.0802 346.45 38.1102 340.28 32.6102 334.24C31.3002 332.79 29.9802 331.45 28.6702 330.19C28.6202 329.35 28.5502 328.07 28.4802 326.53C28.0702 317.64 28.1702 311.04 28.1702 304.95C28.1702 292.95 28.4202 280.43 28.4102 270.46C28.4202 267.76 28.4102 265.28 28.3502 263.02C28.3302 261.9 28.3002 260.85 28.2802 259.87C27.9102 248.74 27.7002 185.6 35.6902 183.98C42.0702 182.66 50.6702 193.54 55.1802 211.26Z" fill="url(#paint64_linear_31_16756)"/>
<mask id="mask8_31_16756" style="mask-type:luminance" maskUnits="userSpaceOnUse" x="28" y="183" width="38" height="170">
<path d="M55.1802 211.26C56.3402 215.73 57.2002 220.66 57.7202 225.92C59.5902 245.04 56.5002 261.9 56.1602 279.38C56.1202 282.69 56.1602 286 56.3402 289.37C56.5802 293.75 57.0402 297.07 57.2802 298.84C58.2302 305.78 61.1102 325.16 65.1502 351.14C58.4202 351.43 51.6902 351.73 44.9702 352.02C42.0802 346.45 38.1102 340.28 32.6102 334.24C31.3002 332.79 29.9802 331.45 28.6702 330.19C28.6202 329.35 28.5502 328.07 28.4802 326.53C28.0702 317.64 28.1702 311.04 28.1702 304.95C28.1702 292.95 28.4202 280.43 28.4102 270.46C28.4202 267.76 28.4102 265.28 28.3502 263.02C28.3302 261.9 28.3002 260.85 28.2802 259.87C27.9102 248.74 27.7002 185.6 35.6902 183.98C42.0702 182.66 50.6702 193.54 55.1802 211.26Z" fill="white"/>
</mask>
<g mask="url(#mask8_31_16756)">
<path d="M55.1303 208.41C56.2103 212.38 57.4003 218.1 57.6503 225.25C56.4903 210.58 51.6803 201.73 47.1503 196.22C42.9903 191.16 36.7503 186.1 37.3903 185.25C37.8003 184.71 40.7903 186.26 43.4503 187.77C45.8203 190.07 49.1203 193.78 51.7803 199.1C53.5603 202.66 54.3703 205.59 55.1403 208.41H55.1303Z" fill="url(#paint65_linear_31_16756)"/>
</g>
<path d="M55.1802 211.26C56.3402 215.73 57.2002 220.66 57.7202 225.92C59.5902 245.04 56.5002 261.9 56.1602 279.38C56.1202 282.69 56.1602 286 56.3402 289.37C56.5802 293.75 57.0402 297.07 57.2802 298.84C58.2302 305.78 61.1102 325.16 65.1502 351.14C58.4202 351.43 51.6902 351.73 44.9702 352.02C42.0802 346.45 38.1102 340.28 32.6102 334.24C31.3002 332.79 29.9802 331.45 28.6702 330.19C28.6202 329.35 28.5502 328.07 28.4802 326.53C28.0702 317.64 28.1702 311.04 28.1702 304.95C28.1702 292.95 28.4202 280.43 28.4102 270.46C28.4202 267.76 28.4102 265.28 28.3502 263.02C28.3302 261.9 28.3002 260.85 28.2802 259.87C27.9102 248.74 27.7002 185.6 35.6902 183.98C42.0702 182.66 50.6702 193.54 55.1802 211.26Z" stroke="black" stroke-linecap="round" stroke-linejoin="round"/>
<path opacity="0.19" d="M57.69 229.37C56.59 221.32 55.77 215.47 55.18 211.25C56.34 215.72 57.2 220.65 57.72 225.91C59.59 245.03 56.5 261.89 56.16 279.37C56.12 282.68 56.16 285.99 56.34 289.36C55.72 287.98 54.97 286.86 54.04 286.17C48.67 282.1 39.53 283.18 34.7 288.12C30.71 292.2 28.73 302 28.17 304.94C28.08 305.35 28.04 305.62 28 305.72C28 304.38 28.31 262.95 28.31 262.95L28.35 263.01C39.49 285.46 61.25 254.73 57.69 229.36V229.37Z" fill="#270D1D"/>
<path d="M54.16 279.67C52.82 280.58 50.55 281.86 47.49 282.37C41.82 283.32 37.38 281 35.96 280.18" stroke="black" stroke-linecap="round" stroke-linejoin="round"/>
<path d="M31.1602 194.67C31.1902 193.6 31.6002 179.99 35.9202 179.18C37.1502 178.95 38.3502 179.82 39.6202 180.75C39.6202 180.75 42.0802 182.54 45.6302 189.89C45.6302 189.89 44.5902 188.67 43.0902 187.48C42.4002 186.93 39.8602 185.12 37.8102 185.21C34.9702 185.33 32.0502 189.2 31.1702 194.68L31.1602 194.67Z" fill="url(#paint66_linear_31_16756)" stroke="black" stroke-linecap="round" stroke-linejoin="round"/>
<defs>
<linearGradient id="paint0_linear_31_16756" x1="195.228" y1="696.524" x2="314.433" y2="453.972" gradientUnits="userSpaceOnUse">
<stop stop-color="#80776D"/>
<stop offset="0.22" stop-color="#918789"/>
<stop offset="0.55" stop-color="#BBB0AE"/>
<stop offset="0.84" stop-color="#D7CCC8"/>
<stop offset="1" stop-color="#E2D7D2"/>
</linearGradient>
<linearGradient id="paint1_linear_31_16756" x1="279.42" y1="484.129" x2="290.19" y2="119.959" gradientUnits="userSpaceOnUse">
<stop stop-color="#80776D"/>
<stop offset="0.22" stop-color="#918789"/>
<stop offset="0.55" stop-color="#BBB0AE"/>
<stop offset="0.84" stop-color="#D7CCC8"/>
<stop offset="1" stop-color="#E2D7D2"/>
</linearGradient>
<linearGradient id="paint2_linear_31_16756" x1="337.54" y1="485.85" x2="348.32" y2="121.68" gradientUnits="userSpaceOnUse">
<stop stop-color="#80776D"/>
<stop offset="0.22" stop-color="#918789"/>
<stop offset="0.55" stop-color="#BBB0AE"/>
<stop offset="0.84" stop-color="#D7CCC8"/>
<stop offset="1" stop-color="#E2D7D2"/>
</linearGradient>
<linearGradient id="paint3_linear_31_16756" x1="333.05" y1="203.989" x2="353.36" y2="203.989" gradientUnits="userSpaceOnUse">
<stop stop-color="white" stop-opacity="0"/>
<stop offset="1" stop-color="white"/>
</linearGradient>
<linearGradient id="paint4_linear_31_16756" x1="305.16" y1="484.889" x2="315.93" y2="120.719" gradientUnits="userSpaceOnUse">
<stop stop-color="#80776D"/>
<stop offset="0.22" stop-color="#918789"/>
<stop offset="0.55" stop-color="#BBB0AE"/>
<stop offset="0.84" stop-color="#D7CCC8"/>
<stop offset="1" stop-color="#E2D7D2"/>
</linearGradient>
<linearGradient id="paint5_linear_31_16756" x1="303.44" y1="197.579" x2="323.85" y2="197.579" gradientUnits="userSpaceOnUse">
<stop stop-color="white" stop-opacity="0"/>
<stop offset="1" stop-color="white"/>
</linearGradient>
<linearGradient id="paint6_linear_31_16756" x1="214.82" y1="131.9" x2="360.22" y2="546.56" gradientUnits="userSpaceOnUse">
<stop stop-color="#80776D"/>
<stop offset="0.22" stop-color="#918789"/>
<stop offset="0.55" stop-color="#BBB0AE"/>
<stop offset="0.84" stop-color="#D7CCC8"/>
<stop offset="1" stop-color="#E2D7D2"/>
</linearGradient>
<linearGradient id="paint7_linear_31_16756" x1="233.58" y1="125.32" x2="378.98" y2="539.98" gradientUnits="userSpaceOnUse">
<stop stop-color="#80776D"/>
<stop offset="0.22" stop-color="#918789"/>
<stop offset="0.55" stop-color="#BBB0AE"/>
<stop offset="0.84" stop-color="#D7CCC8"/>
<stop offset="1" stop-color="#E2D7D2"/>
</linearGradient>
<linearGradient id="paint8_linear_31_16756" x1="276.56" y1="417.42" x2="288.55" y2="451.6" gradientUnits="userSpaceOnUse">
<stop stop-color="white"/>
<stop offset="1" stop-color="white" stop-opacity="0"/>
</linearGradient>
<linearGradient id="paint9_linear_31_16756" x1="340.23" y1="340.04" x2="390.9" y2="340.04" gradientUnits="userSpaceOnUse">
<stop stop-color="white" stop-opacity="0"/>
<stop offset="1" stop-color="white"/>
</linearGradient>
<linearGradient id="paint10_linear_31_16756" x1="345.09" y1="185.7" x2="359.55" y2="185.7" gradientUnits="userSpaceOnUse">
<stop offset="0.16" stop-color="#FF0303"/>
<stop offset="0.49" stop-color="#FD0303"/>
<stop offset="0.63" stop-color="#F50303"/>
<stop offset="0.74" stop-color="#E90503"/>
<stop offset="0.82" stop-color="#D80604"/>
<stop offset="0.89" stop-color="#C10905"/>
<stop offset="0.96" stop-color="#A50B06"/>
<stop offset="1" stop-color="#8F0E08"/>
</linearGradient>
<linearGradient id="paint11_linear_31_16756" x1="318.32" y1="183.85" x2="331.69" y2="183.85" gradientUnits="userSpaceOnUse">
<stop offset="0.16" stop-color="#FF0303"/>
<stop offset="0.49" stop-color="#FD0303"/>
<stop offset="0.63" stop-color="#F50303"/>
<stop offset="0.74" stop-color="#E90503"/>
<stop offset="0.82" stop-color="#D80604"/>
<stop offset="0.89" stop-color="#C10905"/>
<stop offset="0.96" stop-color="#A50B06"/>
<stop offset="1" stop-color="#8F0E08"/>
</linearGradient>
<linearGradient id="paint12_linear_31_16756" x1="259.57" y1="245.54" x2="268.03" y2="245.54" gradientUnits="userSpaceOnUse">
<stop offset="0.16" stop-color="#FF0303"/>
<stop offset="0.49" stop-color="#FD0303"/>
<stop offset="0.63" stop-color="#F50303"/>
<stop offset="0.74" stop-color="#E90503"/>
<stop offset="0.82" stop-color="#D80604"/>
<stop offset="0.89" stop-color="#C10905"/>
<stop offset="0.96" stop-color="#A50B06"/>
<stop offset="1" stop-color="#8F0E08"/>
</linearGradient>
<linearGradient id="paint13_linear_31_16756" x1="347.778" y1="351.434" x2="338.806" y2="321.145" gradientUnits="userSpaceOnUse">
<stop stop-color="#80776D"/>
<stop offset="0.22" stop-color="#918789"/>
<stop offset="0.55" stop-color="#BBB0AE"/>
<stop offset="0.84" stop-color="#D7CCC8"/>
<stop offset="1" stop-color="#E2D7D2"/>
</linearGradient>
<linearGradient id="paint14_linear_31_16756" x1="331.22" y1="325.803" x2="338.344" y2="326.415" gradientUnits="userSpaceOnUse">
<stop stop-color="#80776D"/>
<stop offset="0.22" stop-color="#918789"/>
<stop offset="0.55" stop-color="#BBB0AE"/>
<stop offset="0.84" stop-color="#D7CCC8"/>
<stop offset="1" stop-color="#E2D7D2"/>
</linearGradient>
<linearGradient id="paint15_linear_31_16756" x1="340.56" y1="329.526" x2="339.9" y2="337.208" gradientUnits="userSpaceOnUse">
<stop stop-color="#80776D"/>
<stop offset="0.22" stop-color="#918789"/>
<stop offset="0.55" stop-color="#BBB0AE"/>
<stop offset="0.84" stop-color="#D7CCC8"/>
<stop offset="1" stop-color="#E2D7D2"/>
</linearGradient>
<linearGradient id="paint16_linear_31_16756" x1="329.108" y1="328.635" x2="328.474" y2="336.018" gradientUnits="userSpaceOnUse">
<stop stop-color="#80776D"/>
<stop offset="0.22" stop-color="#918789"/>
<stop offset="0.55" stop-color="#BBB0AE"/>
<stop offset="0.84" stop-color="#D7CCC8"/>
<stop offset="1" stop-color="#E2D7D2"/>
</linearGradient>
<linearGradient id="paint17_linear_31_16756" x1="329.044" y1="338.553" x2="338.389" y2="339.356" gradientUnits="userSpaceOnUse">
<stop stop-color="#80776D"/>
<stop offset="0.22" stop-color="#918789"/>
<stop offset="0.55" stop-color="#BBB0AE"/>
<stop offset="0.84" stop-color="#D7CCC8"/>
<stop offset="1" stop-color="#E2D7D2"/>
</linearGradient>
<linearGradient id="paint18_linear_31_16756" x1="332.112" y1="332.697" x2="336.764" y2="333.097" gradientUnits="userSpaceOnUse">
<stop offset="0.16" stop-color="#FF0303"/>
<stop offset="0.49" stop-color="#FD0303"/>
<stop offset="0.63" stop-color="#F50303"/>
<stop offset="0.74" stop-color="#E90503"/>
<stop offset="0.82" stop-color="#D80604"/>
<stop offset="0.89" stop-color="#C10905"/>
<stop offset="0.96" stop-color="#A50B06"/>
<stop offset="1" stop-color="#8F0E08"/>
</linearGradient>
<linearGradient id="paint19_linear_31_16756" x1="348.153" y1="342.292" x2="343.331" y2="341.878" gradientUnits="userSpaceOnUse">
<stop stop-color="#80776D"/>
<stop offset="0.22" stop-color="#918789"/>
<stop offset="0.55" stop-color="#BBB0AE"/>
<stop offset="0.84" stop-color="#D7CCC8"/>
<stop offset="1" stop-color="#E2D7D2"/>
</linearGradient>
<linearGradient id="paint20_linear_31_16756" x1="340.804" y1="346.826" x2="341.457" y2="339.214" gradientUnits="userSpaceOnUse">
<stop stop-color="#80776D"/>
<stop offset="0.22" stop-color="#918789"/>
<stop offset="0.55" stop-color="#BBB0AE"/>
<stop offset="0.84" stop-color="#D7CCC8"/>
<stop offset="1" stop-color="#E2D7D2"/>
</linearGradient>
<linearGradient id="paint21_linear_31_16756" x1="352.469" y1="333.726" x2="343.263" y2="332.935" gradientUnits="userSpaceOnUse">
<stop stop-color="#80776D"/>
<stop offset="0.22" stop-color="#918789"/>
<stop offset="0.55" stop-color="#BBB0AE"/>
<stop offset="0.84" stop-color="#D7CCC8"/>
<stop offset="1" stop-color="#E2D7D2"/>
</linearGradient>
<linearGradient id="paint22_linear_31_16756" x1="349.24" y1="343.675" x2="344.598" y2="343.276" gradientUnits="userSpaceOnUse">
<stop offset="0.16" stop-color="#FF0303"/>
<stop offset="0.49" stop-color="#FD0303"/>
<stop offset="0.63" stop-color="#F50303"/>
<stop offset="0.74" stop-color="#E90503"/>
<stop offset="0.82" stop-color="#D80604"/>
<stop offset="0.89" stop-color="#C10905"/>
<stop offset="0.96" stop-color="#A50B06"/>
<stop offset="1" stop-color="#8F0E08"/>
</linearGradient>
<linearGradient id="paint23_linear_31_16756" x1="357.162" y1="327.716" x2="364.082" y2="327.743" gradientUnits="userSpaceOnUse">
<stop stop-color="#80776D"/>
<stop offset="0.22" stop-color="#918789"/>
<stop offset="0.55" stop-color="#BBB0AE"/>
<stop offset="0.84" stop-color="#D7CCC8"/>
<stop offset="1" stop-color="#E2D7D2"/>
</linearGradient>
<linearGradient id="paint24_linear_31_16756" x1="355.324" y1="329.727" x2="355.294" y2="337.137" gradientUnits="userSpaceOnUse">
<stop stop-color="#80776D"/>
<stop offset="0.22" stop-color="#918789"/>
<stop offset="0.55" stop-color="#BBB0AE"/>
<stop offset="0.84" stop-color="#D7CCC8"/>
<stop offset="1" stop-color="#E2D7D2"/>
</linearGradient>
<linearGradient id="paint25_linear_31_16756" x1="195.816" y1="696.233" x2="76.6117" y2="453.681" gradientUnits="userSpaceOnUse">
<stop stop-color="#80776D"/>
<stop offset="0.22" stop-color="#918789"/>
<stop offset="0.55" stop-color="#BBB0AE"/>
<stop offset="0.84" stop-color="#D7CCC8"/>
<stop offset="1" stop-color="#E2D7D2"/>
</linearGradient>
<linearGradient id="paint26_linear_31_16756" x1="99.5997" y1="478.809" x2="110.37" y2="114.639" gradientUnits="userSpaceOnUse">
<stop stop-color="#80776D"/>
<stop offset="0.22" stop-color="#918789"/>
<stop offset="0.55" stop-color="#BBB0AE"/>
<stop offset="0.84" stop-color="#D7CCC8"/>
<stop offset="1" stop-color="#E2D7D2"/>
</linearGradient>
<linearGradient id="paint27_linear_31_16756" x1="44.01" y1="477.17" x2="54.78" y2="112.99" gradientUnits="userSpaceOnUse">
<stop stop-color="#80776D"/>
<stop offset="0.22" stop-color="#918789"/>
<stop offset="0.55" stop-color="#BBB0AE"/>
<stop offset="0.84" stop-color="#D7CCC8"/>
<stop offset="1" stop-color="#E2D7D2"/>
</linearGradient>
<linearGradient id="paint28_linear_31_16756" x1="57.9999" y1="203.989" x2="37.6899" y2="203.989" gradientUnits="userSpaceOnUse">
<stop stop-color="white" stop-opacity="0"/>
<stop offset="1" stop-color="white"/>
</linearGradient>
<linearGradient id="paint29_linear_31_16756" x1="74.61" y1="478.069" x2="85.38" y2="113.899" gradientUnits="userSpaceOnUse">
<stop stop-color="#80776D"/>
<stop offset="0.22" stop-color="#918789"/>
<stop offset="0.55" stop-color="#BBB0AE"/>
<stop offset="0.84" stop-color="#D7CCC8"/>
<stop offset="1" stop-color="#E2D7D2"/>
</linearGradient>
<linearGradient id="paint30_linear_31_16756" x1="87.6102" y1="197.579" x2="67.2002" y2="197.579" gradientUnits="userSpaceOnUse">
<stop stop-color="white" stop-opacity="0"/>
<stop offset="1" stop-color="white"/>
</linearGradient>
<linearGradient id="paint31_linear_31_16756" x1="176.23" y1="131.9" x2="30.8298" y2="546.56" gradientUnits="userSpaceOnUse">
<stop stop-color="#80776D"/>
<stop offset="0.22" stop-color="#918789"/>
<stop offset="0.55" stop-color="#BBB0AE"/>
<stop offset="0.84" stop-color="#D7CCC8"/>
<stop offset="1" stop-color="#E2D7D2"/>
</linearGradient>
<linearGradient id="paint32_linear_31_16756" x1="157.47" y1="125.32" x2="12.0697" y2="539.98" gradientUnits="userSpaceOnUse">
<stop stop-color="#80776D"/>
<stop offset="0.22" stop-color="#918789"/>
<stop offset="0.55" stop-color="#BBB0AE"/>
<stop offset="0.84" stop-color="#D7CCC8"/>
<stop offset="1" stop-color="#E2D7D2"/>
</linearGradient>
<linearGradient id="paint33_linear_31_16756" x1="114.49" y1="417.42" x2="102.5" y2="451.6" gradientUnits="userSpaceOnUse">
<stop stop-color="white"/>
<stop offset="1" stop-color="white" stop-opacity="0"/>
</linearGradient>
<linearGradient id="paint34_linear_31_16756" x1="50.8199" y1="340.04" x2="0.149902" y2="340.04" gradientUnits="userSpaceOnUse">
<stop stop-color="white" stop-opacity="0"/>
<stop offset="1" stop-color="white"/>
</linearGradient>
<linearGradient id="paint35_linear_31_16756" x1="45.97" y1="185.7" x2="31.5" y2="185.7" gradientUnits="userSpaceOnUse">
<stop offset="0.16" stop-color="#FF0303"/>
<stop offset="0.49" stop-color="#FD0303"/>
<stop offset="0.63" stop-color="#F50303"/>
<stop offset="0.74" stop-color="#E90503"/>
<stop offset="0.82" stop-color="#D80604"/>
<stop offset="0.89" stop-color="#C10905"/>
<stop offset="0.96" stop-color="#A50B06"/>
<stop offset="1" stop-color="#8F0E08"/>
</linearGradient>
<linearGradient id="paint36_linear_31_16756" x1="72.7301" y1="183.85" x2="59.3601" y2="183.85" gradientUnits="userSpaceOnUse">
<stop offset="0.16" stop-color="#FF0303"/>
<stop offset="0.49" stop-color="#FD0303"/>
<stop offset="0.63" stop-color="#F50303"/>
<stop offset="0.74" stop-color="#E90503"/>
<stop offset="0.82" stop-color="#D80604"/>
<stop offset="0.89" stop-color="#C10905"/>
<stop offset="0.96" stop-color="#A50B06"/>
<stop offset="1" stop-color="#8F0E08"/>
</linearGradient>
<linearGradient id="paint37_linear_31_16756" x1="131.48" y1="245.54" x2="123.02" y2="245.54" gradientUnits="userSpaceOnUse">
<stop offset="0.16" stop-color="#FF0303"/>
<stop offset="0.49" stop-color="#FD0303"/>
<stop offset="0.63" stop-color="#F50303"/>
<stop offset="0.74" stop-color="#E90503"/>
<stop offset="0.82" stop-color="#D80604"/>
<stop offset="0.89" stop-color="#C10905"/>
<stop offset="0.96" stop-color="#A50B06"/>
<stop offset="1" stop-color="#8F0E08"/>
</linearGradient>
<linearGradient id="paint38_linear_31_16756" x1="26.8156" y1="398.593" x2="60.29" y2="382.389" gradientUnits="userSpaceOnUse">
<stop stop-color="#80776D"/>
<stop offset="0.22" stop-color="#918789"/>
<stop offset="0.55" stop-color="#BBB0AE"/>
<stop offset="0.84" stop-color="#D7CCC8"/>
<stop offset="1" stop-color="#E2D7D2"/>
</linearGradient>
<linearGradient id="paint39_linear_31_16756" x1="29.5662" y1="403.778" x2="62.1235" y2="388.02" gradientUnits="userSpaceOnUse">
<stop stop-color="#80776D"/>
<stop offset="0.22" stop-color="#918789"/>
<stop offset="0.55" stop-color="#BBB0AE"/>
<stop offset="0.84" stop-color="#D7CCC8"/>
<stop offset="1" stop-color="#E2D7D2"/>
</linearGradient>
<linearGradient id="paint40_linear_31_16756" x1="28.9838" y1="392.919" x2="31.1392" y2="391.775" gradientUnits="userSpaceOnUse">
<stop stop-color="#80776D"/>
<stop offset="0.22" stop-color="#918789"/>
<stop offset="0.55" stop-color="#BBB0AE"/>
<stop offset="0.84" stop-color="#D7CCC8"/>
<stop offset="1" stop-color="#E2D7D2"/>
</linearGradient>
<linearGradient id="paint41_linear_31_16756" x1="31.807" y1="392.146" x2="33.1534" y2="394.181" gradientUnits="userSpaceOnUse">
<stop stop-color="#80776D"/>
<stop offset="0.22" stop-color="#918789"/>
<stop offset="0.55" stop-color="#BBB0AE"/>
<stop offset="0.84" stop-color="#D7CCC8"/>
<stop offset="1" stop-color="#E2D7D2"/>
</linearGradient>
<linearGradient id="paint42_linear_31_16756" x1="32.7033" y1="395.21" x2="30.5479" y2="396.354" gradientUnits="userSpaceOnUse">
<stop stop-color="#80776D"/>
<stop offset="0.22" stop-color="#918789"/>
<stop offset="0.55" stop-color="#BBB0AE"/>
<stop offset="0.84" stop-color="#D7CCC8"/>
<stop offset="1" stop-color="#E2D7D2"/>
</linearGradient>
<linearGradient id="paint43_linear_31_16756" x1="29.7033" y1="395.905" x2="28.5597" y2="393.75" gradientUnits="userSpaceOnUse">
<stop stop-color="#80776D"/>
<stop offset="0.22" stop-color="#918789"/>
<stop offset="0.55" stop-color="#BBB0AE"/>
<stop offset="0.84" stop-color="#D7CCC8"/>
<stop offset="1" stop-color="#E2D7D2"/>
</linearGradient>
<linearGradient id="paint44_linear_31_16756" x1="29.6905" y1="394.57" x2="31.9961" y2="393.347" gradientUnits="userSpaceOnUse">
<stop stop-color="#80776D"/>
<stop offset="0.22" stop-color="#918789"/>
<stop offset="0.55" stop-color="#BBB0AE"/>
<stop offset="0.84" stop-color="#D7CCC8"/>
<stop offset="1" stop-color="#E2D7D2"/>
</linearGradient>
<linearGradient id="paint45_linear_31_16756" x1="37.138" y1="388.759" x2="39.4089" y2="387.867" gradientUnits="userSpaceOnUse">
<stop stop-color="#80776D"/>
<stop offset="0.22" stop-color="#918789"/>
<stop offset="0.55" stop-color="#BBB0AE"/>
<stop offset="0.84" stop-color="#D7CCC8"/>
<stop offset="1" stop-color="#E2D7D2"/>
</linearGradient>
<linearGradient id="paint46_linear_31_16756" x1="39.9199" y1="388.348" x2="41.0277" y2="390.522" gradientUnits="userSpaceOnUse">
<stop stop-color="#80776D"/>
<stop offset="0.22" stop-color="#918789"/>
<stop offset="0.55" stop-color="#BBB0AE"/>
<stop offset="0.84" stop-color="#D7CCC8"/>
<stop offset="1" stop-color="#E2D7D2"/>
</linearGradient>
<linearGradient id="paint47_linear_31_16756" x1="40.4497" y1="391.376" x2="38.1789" y2="392.269" gradientUnits="userSpaceOnUse">
<stop stop-color="#80776D"/>
<stop offset="0.22" stop-color="#918789"/>
<stop offset="0.55" stop-color="#BBB0AE"/>
<stop offset="0.84" stop-color="#D7CCC8"/>
<stop offset="1" stop-color="#E2D7D2"/>
</linearGradient>
<linearGradient id="paint48_linear_31_16756" x1="37.4941" y1="391.702" x2="36.6014" y2="389.432" gradientUnits="userSpaceOnUse">
<stop stop-color="#80776D"/>
<stop offset="0.22" stop-color="#918789"/>
<stop offset="0.55" stop-color="#BBB0AE"/>
<stop offset="0.84" stop-color="#D7CCC8"/>
<stop offset="1" stop-color="#E2D7D2"/>
</linearGradient>
<linearGradient id="paint49_linear_31_16756" x1="37.6533" y1="390.48" x2="40.0824" y2="389.525" gradientUnits="userSpaceOnUse">
<stop stop-color="#80776D"/>
<stop offset="0.22" stop-color="#918789"/>
<stop offset="0.55" stop-color="#BBB0AE"/>
<stop offset="0.84" stop-color="#D7CCC8"/>
<stop offset="1" stop-color="#E2D7D2"/>
</linearGradient>
<linearGradient id="paint50_linear_31_16756" x1="45.6086" y1="385.737" x2="47.9376" y2="385.01" gradientUnits="userSpaceOnUse">
<stop stop-color="#80776D"/>
<stop offset="0.22" stop-color="#918789"/>
<stop offset="0.55" stop-color="#BBB0AE"/>
<stop offset="0.84" stop-color="#D7CCC8"/>
<stop offset="1" stop-color="#E2D7D2"/>
</linearGradient>
<linearGradient id="paint51_linear_31_16756" x1="48.7049" y1="385.452" x2="49.6539" y2="387.699" gradientUnits="userSpaceOnUse">
<stop stop-color="#80776D"/>
<stop offset="0.22" stop-color="#918789"/>
<stop offset="0.55" stop-color="#BBB0AE"/>
<stop offset="0.84" stop-color="#D7CCC8"/>
<stop offset="1" stop-color="#E2D7D2"/>
</linearGradient>
<linearGradient id="paint52_linear_31_16756" x1="49.0977" y1="388.848" x2="46.7688" y2="389.576" gradientUnits="userSpaceOnUse">
<stop stop-color="#80776D"/>
<stop offset="0.22" stop-color="#918789"/>
<stop offset="0.55" stop-color="#BBB0AE"/>
<stop offset="0.84" stop-color="#D7CCC8"/>
<stop offset="1" stop-color="#E2D7D2"/>
</linearGradient>
<linearGradient id="paint53_linear_31_16756" x1="45.8091" y1="389.013" x2="45.0815" y2="386.684" gradientUnits="userSpaceOnUse">
<stop stop-color="#80776D"/>
<stop offset="0.22" stop-color="#918789"/>
<stop offset="0.55" stop-color="#BBB0AE"/>
<stop offset="0.84" stop-color="#D7CCC8"/>
<stop offset="1" stop-color="#E2D7D2"/>
</linearGradient>
<linearGradient id="paint54_linear_31_16756" x1="45.9992" y1="387.491" x2="48.4904" y2="386.712" gradientUnits="userSpaceOnUse">
<stop stop-color="#80776D"/>
<stop offset="0.22" stop-color="#918789"/>
<stop offset="0.55" stop-color="#BBB0AE"/>
<stop offset="0.84" stop-color="#D7CCC8"/>
<stop offset="1" stop-color="#E2D7D2"/>
</linearGradient>
<linearGradient id="paint55_linear_31_16756" x1="54.4979" y1="383.721" x2="56.8662" y2="383.133" gradientUnits="userSpaceOnUse">
<stop stop-color="#80776D"/>
<stop offset="0.22" stop-color="#918789"/>
<stop offset="0.55" stop-color="#BBB0AE"/>
<stop offset="0.84" stop-color="#D7CCC8"/>
<stop offset="1" stop-color="#E2D7D2"/>
</linearGradient>
<linearGradient id="paint56_linear_31_16756" x1="57.6909" y1="383.808" x2="58.5038" y2="386.109" gradientUnits="userSpaceOnUse">
<stop stop-color="#80776D"/>
<stop offset="0.22" stop-color="#918789"/>
<stop offset="0.55" stop-color="#BBB0AE"/>
<stop offset="0.84" stop-color="#D7CCC8"/>
<stop offset="1" stop-color="#E2D7D2"/>
</linearGradient>
<linearGradient id="paint57_linear_31_16756" x1="57.2928" y1="386.611" x2="54.9245" y2="387.199" gradientUnits="userSpaceOnUse">
<stop stop-color="#80776D"/>
<stop offset="0.22" stop-color="#918789"/>
<stop offset="0.55" stop-color="#BBB0AE"/>
<stop offset="0.84" stop-color="#D7CCC8"/>
<stop offset="1" stop-color="#E2D7D2"/>
</linearGradient>
<linearGradient id="paint58_linear_31_16756" x1="54.47" y1="386.531" x2="53.8826" y2="384.163" gradientUnits="userSpaceOnUse">
<stop stop-color="#80776D"/>
<stop offset="0.22" stop-color="#918789"/>
<stop offset="0.55" stop-color="#BBB0AE"/>
<stop offset="0.84" stop-color="#D7CCC8"/>
<stop offset="1" stop-color="#E2D7D2"/>
</linearGradient>
<linearGradient id="paint59_linear_31_16756" x1="54.7854" y1="385.504" x2="57.3186" y2="384.875" gradientUnits="userSpaceOnUse">
<stop stop-color="#80776D"/>
<stop offset="0.22" stop-color="#918789"/>
<stop offset="0.55" stop-color="#BBB0AE"/>
<stop offset="0.84" stop-color="#D7CCC8"/>
<stop offset="1" stop-color="#E2D7D2"/>
</linearGradient>
<linearGradient id="paint60_linear_31_16756" x1="-289.109" y1="-113.2" x2="281.451" y2="340.769" gradientUnits="userSpaceOnUse">
<stop stop-color="#C3C3C3"/>
<stop offset="0.26" stop-color="#EFEFEF"/>
<stop offset="0.3" stop-color="#F2F2F2"/>
<stop offset="0.49" stop-color="white"/>
<stop offset="0.71" stop-color="#E5E5E5"/>
<stop offset="0.76" stop-color="#DEDEDE"/>
<stop offset="0.83" stop-color="#D5D5D5"/>
<stop offset="0.86" stop-color="#D1D1D1"/>
<stop offset="0.9" stop-color="#C9C9C9"/>
<stop offset="0.97" stop-color="#B4B4B4"/>
<stop offset="1" stop-color="#A6A6A6"/>
</linearGradient>
<linearGradient id="paint61_linear_31_16756" x1="515.12" y1="-8.64066" x2="102.262" y2="370.201" gradientUnits="userSpaceOnUse">
<stop stop-color="#C3C3C3"/>
<stop offset="0.26" stop-color="#EFEFEF"/>
<stop offset="0.3" stop-color="#F2F2F2"/>
<stop offset="0.49" stop-color="white"/>
<stop offset="0.71" stop-color="#E5E5E5"/>
<stop offset="0.76" stop-color="#DEDEDE"/>
<stop offset="0.83" stop-color="#D5D5D5"/>
<stop offset="0.86" stop-color="#D1D1D1"/>
<stop offset="0.9" stop-color="#C9C9C9"/>
<stop offset="0.97" stop-color="#B4B4B4"/>
<stop offset="1" stop-color="#A6A6A6"/>
</linearGradient>
<linearGradient id="paint62_linear_31_16756" x1="-114.588" y1="-115.613" x2="286.843" y2="334.51" gradientUnits="userSpaceOnUse">
<stop stop-color="#C3C3C3"/>
<stop offset="0.26" stop-color="#EFEFEF"/>
<stop offset="0.3" stop-color="#F2F2F2"/>
<stop offset="0.49" stop-color="white"/>
<stop offset="0.71" stop-color="#E5E5E5"/>
<stop offset="0.76" stop-color="#DEDEDE"/>
<stop offset="0.83" stop-color="#D5D5D5"/>
<stop offset="0.86" stop-color="#D1D1D1"/>
<stop offset="0.9" stop-color="#C9C9C9"/>
<stop offset="0.97" stop-color="#B4B4B4"/>
<stop offset="1" stop-color="#A6A6A6"/>
</linearGradient>
<linearGradient id="paint63_linear_31_16756" x1="477.794" y1="-60.3642" x2="110.116" y2="334.748" gradientUnits="userSpaceOnUse">
<stop stop-color="#C3C3C3"/>
<stop offset="0.26" stop-color="#EFEFEF"/>
<stop offset="0.3" stop-color="#F2F2F2"/>
<stop offset="0.49" stop-color="white"/>
<stop offset="0.71" stop-color="#E5E5E5"/>
<stop offset="0.76" stop-color="#DEDEDE"/>
<stop offset="0.83" stop-color="#D5D5D5"/>
<stop offset="0.86" stop-color="#D1D1D1"/>
<stop offset="0.9" stop-color="#C9C9C9"/>
<stop offset="0.97" stop-color="#B4B4B4"/>
<stop offset="1" stop-color="#A6A6A6"/>
</linearGradient>
<linearGradient id="paint64_linear_31_16756" x1="42.0602" y1="449.72" x2="51.7802" y2="120.95" gradientUnits="userSpaceOnUse">
<stop stop-color="#80776D"/>
<stop offset="0.22" stop-color="#918789"/>
<stop offset="0.55" stop-color="#BBB0AE"/>
<stop offset="0.84" stop-color="#D7CCC8"/>
<stop offset="1" stop-color="#E2D7D2"/>
</linearGradient>
<linearGradient id="paint65_linear_31_16756" x1="57.6503" y1="205.2" x2="37.3403" y2="205.2" gradientUnits="userSpaceOnUse">
<stop stop-color="white" stop-opacity="0"/>
<stop offset="1" stop-color="white"/>
</linearGradient>
<linearGradient id="paint66_linear_31_16756" x1="45.6202" y1="186.91" x2="31.1502" y2="186.91" gradientUnits="userSpaceOnUse">
<stop offset="0.16" stop-color="#FF0303"/>
<stop offset="0.49" stop-color="#FD0303"/>
<stop offset="0.63" stop-color="#F50303"/>
<stop offset="0.74" stop-color="#E90503"/>
<stop offset="0.82" stop-color="#D80604"/>
<stop offset="0.89" stop-color="#C10905"/>
<stop offset="0.96" stop-color="#A50B06"/>
<stop offset="1" stop-color="#8F0E08"/>
</linearGradient>
</defs>
</svg>
