<svg xmlns="http://www.w3.org/2000/svg" fill="none" viewBox="12.72 4.447761194029851 292.56 123.26652452025586" style="max-height: 500px" width="292.56" height="123.26652452025586">
<g filter="url(#filter0_d_67_11971)">
<g clip-path="url(#clip0_67_11971)">
<rect fill="url(#paint0_linear_67_11971)" rx="1" height="125" width="294" y="4" x="12"/>
<path stroke-linejoin="round" stroke-linecap="round" stroke-opacity="0.08" stroke="#959387" d="M159.21 205.399C235.63 205.399 297.581 143.449 297.581 67.0283C297.581 -9.39193 235.63 -71.3428 159.21 -71.3428C82.7897 -71.3428 20.8389 -9.39193 20.8389 67.0283C20.8389 143.449 82.7897 205.399 159.21 205.399Z"/>
<path stroke-linejoin="round" stroke-linecap="round" stroke-opacity="0.08" stroke="#959387" d="M158.532 193.388C228.318 193.388 284.892 136.815 284.892 67.0284C284.892 -2.7583 228.318 -59.3315 158.532 -59.3315C88.7451 -59.3315 32.1719 -2.7583 32.1719 67.0284C32.1719 136.815 88.7451 193.388 158.532 193.388Z"/>
<path stroke-linejoin="round" stroke-linecap="round" stroke-opacity="0.08" stroke="#959387" d="M150.735 -58.46C152.091 -53.0355 154.222 -40.9759 148.144 -29.2311C147.224 -27.4633 145.843 -25.1627 143.761 -22.6685C134.147 -11.2385 123.274 -12.5703 108.575 -3.44085C106.274 -2.01209 100.559 1.71718 94.844 7.8923C79.8057 24.0687 79.9994 40.463 65.6635 52.1594C63.3629 54.0483 60.2149 56.1793 55.8802 57.3175C49.2692 59.0368 43.4088 57.4386 40.2607 56.2762"/>
<path stroke-linejoin="round" stroke-linecap="round" stroke-opacity="0.08" stroke="#959387" d="M49.438 48.6236C51.3268 48.9627 52.7798 48.8658 53.5789 48.7689C71.3294 46.7832 71.4747 12.033 97.2407 -6.41968C104.239 -11.4324 110.463 -14.6047 110.463 -14.6047C122.086 -20.5135 127.245 -20.0776 133.371 -25.2598C136.495 -27.9236 140.418 -32.4763 142.912 -40.6855"/>
<path fill-opacity="0.08" fill="#959387" d="M49.9468 49.8833C52.421 49.8833 54.4268 47.8776 54.4268 45.4033C54.4268 42.9291 52.421 40.9233 49.9468 40.9233C47.4726 40.9233 45.4668 42.9291 45.4668 45.4033C45.4668 47.8776 47.4726 49.8833 49.9468 49.8833Z"/>
<path fill-opacity="0.08" fill="#959387" d="M57.9381 30.3649C61.1345 30.3649 63.7257 27.7736 63.7257 24.5772C63.7257 21.3808 61.1345 18.7896 57.9381 18.7896C54.7417 18.7896 52.1504 21.3808 52.1504 24.5772C52.1504 27.7736 54.7417 30.3649 57.9381 30.3649Z"/>
<path fill-opacity="0.08" fill="#959387" d="M68.9564 12.7355C72.8617 12.7355 76.0275 9.56965 76.0275 5.66438C76.0275 1.7591 72.8617 -1.40674 68.9564 -1.40674C65.0511 -1.40674 61.8853 1.7591 61.8853 5.66438C61.8853 9.56965 65.0511 12.7355 68.9564 12.7355Z"/>
<path fill-opacity="0.08" fill="#959387" d="M42.4155 70.0795C44.1007 70.0795 45.4667 68.7134 45.4667 67.0283C45.4667 65.3431 44.1007 63.9771 42.4155 63.9771C40.7304 63.9771 39.3643 65.3431 39.3643 67.0283C39.3643 68.7134 40.7304 70.0795 42.4155 70.0795Z"/>
<path stroke-linejoin="round" stroke-linecap="round" stroke-opacity="0.08" stroke="#959387" d="M159.21 138.225C198.53 138.225 230.406 106.349 230.406 67.029C230.406 27.7088 198.53 -4.1665 159.21 -4.1665C119.89 -4.1665 88.0146 27.7088 88.0146 67.029C88.0146 106.349 119.89 138.225 159.21 138.225Z"/>
<path stroke-linejoin="round" stroke-linecap="round" stroke-opacity="0.08" stroke="#959387" d="M177.373 10.4106H141.073C130.56 10.4106 122.039 18.9324 122.039 29.4445V104.636C122.039 115.148 130.56 123.67 141.073 123.67H177.373C187.885 123.67 196.406 115.148 196.406 104.636V29.4445C196.406 18.9324 187.885 10.4106 177.373 10.4106Z"/>
<path stroke-linejoin="round" stroke-linecap="round" stroke-opacity="0.08" stroke="#959387" d="M102.593 48.8667V85.1667C102.593 95.6789 111.115 104.201 121.627 104.201H196.818C207.33 104.201 215.852 95.6789 215.852 85.1667V48.8667C215.852 38.3546 207.33 29.8328 196.818 29.8328H121.627C111.115 29.8328 102.593 38.3546 102.593 48.8667Z"/>
<path stroke-linejoin="round" stroke-linecap="round" stroke-opacity="0.08" stroke="#959387" d="M167.686 -58.46C166.33 -53.0355 164.199 -40.9759 170.277 -29.2311C171.197 -27.4633 172.578 -25.1627 174.66 -22.6685C184.274 -11.2385 195.147 -12.5703 209.846 -3.44085C212.147 -2.01209 217.862 1.71718 223.577 7.8923C238.615 24.0687 238.421 40.463 252.757 52.1594C255.058 54.0483 258.206 56.1793 262.541 57.3175C269.152 59.0368 275.012 57.4386 278.16 56.2762"/>
<path stroke-linejoin="round" stroke-linecap="round" stroke-opacity="0.08" stroke="#959387" d="M268.982 48.6236C267.093 48.9627 265.64 48.8658 264.841 48.7689C247.091 46.7832 246.945 12.033 221.179 -6.41968C214.181 -11.4324 207.957 -14.6047 207.957 -14.6047C196.334 -20.5135 191.176 -20.0776 185.049 -25.2598C181.925 -27.9236 178.002 -32.4763 175.508 -40.6855"/>
<path fill-opacity="0.08" fill="#959387" d="M268.474 49.8833C270.948 49.8833 272.954 47.8776 272.954 45.4033C272.954 42.9291 270.948 40.9233 268.474 40.9233C265.999 40.9233 263.994 42.9291 263.994 45.4033C263.994 47.8776 265.999 49.8833 268.474 49.8833Z"/>
<path fill-opacity="0.08" fill="#959387" d="M260.482 30.3644C263.679 30.3644 266.27 27.7732 266.27 24.5767C266.27 21.3803 263.679 18.7891 260.482 18.7891C257.286 18.7891 254.695 21.3803 254.695 24.5767C254.695 27.7732 257.286 30.3644 260.482 30.3644Z"/>
<path fill-opacity="0.08" fill="#959387" d="M249.464 12.7355C253.369 12.7355 256.535 9.56965 256.535 5.66438C256.535 1.7591 253.369 -1.40674 249.464 -1.40674C245.558 -1.40674 242.393 1.7591 242.393 5.66438C242.393 9.56965 245.558 12.7355 249.464 12.7355Z"/>
<path fill-opacity="0.08" fill="#959387" d="M276.005 69.4491C277.69 69.4491 279.056 68.0831 279.056 66.3979C279.056 64.7128 277.69 63.3467 276.005 63.3467C274.32 63.3467 272.954 64.7128 272.954 66.3979C272.954 68.0831 274.32 69.4491 276.005 69.4491Z"/>
<path stroke-linejoin="round" stroke-linecap="round" stroke-opacity="0.08" stroke="#959387" d="M150.734 191.572C152.09 186.148 154.222 174.088 148.143 162.343C147.223 160.575 145.843 158.275 143.76 155.781C134.146 144.351 123.273 145.682 108.574 136.553C106.273 135.124 100.559 131.395 94.8435 125.22C79.8053 109.043 79.9989 92.649 65.663 80.9526C63.3624 79.0637 60.2144 76.9327 55.8797 75.7946C49.2687 74.0752 43.4084 75.6735 40.2603 76.8359"/>
<path stroke-linejoin="round" stroke-linecap="round" stroke-opacity="0.08" stroke="#959387" d="M49.4385 84.5125C51.3273 84.1735 52.7803 84.2703 53.5794 84.3672C71.3299 86.3529 71.4752 121.103 97.2411 139.556C104.24 144.569 110.463 147.741 110.463 147.741C122.087 153.65 127.245 153.214 133.372 158.396C136.496 161.06 140.419 165.612 142.913 173.822"/>
<path fill-opacity="0.08" fill="#959387" d="M49.9463 92.2129C52.4205 92.2129 54.4263 90.2071 54.4263 87.7329C54.4263 85.2587 52.4205 83.2529 49.9463 83.2529C47.4721 83.2529 45.4663 85.2587 45.4663 87.7329C45.4663 90.2071 47.4721 92.2129 49.9463 92.2129Z"/>
<path fill-opacity="0.08" fill="#959387" d="M57.9376 114.347C61.134 114.347 63.7252 111.756 63.7252 108.559C63.7252 105.363 61.134 102.771 57.9376 102.771C54.7412 102.771 52.1499 105.363 52.1499 108.559C52.1499 111.756 54.7412 114.347 57.9376 114.347Z"/>
<path fill-opacity="0.08" fill="#959387" d="M68.9564 134.543C72.8617 134.543 76.0275 131.377 76.0275 127.472C76.0275 123.566 72.8617 120.4 68.9564 120.4C65.0511 120.4 61.8853 123.566 61.8853 127.472C61.8853 131.377 65.0511 134.543 68.9564 134.543Z"/>
<path stroke-linejoin="round" stroke-linecap="round" stroke-opacity="0.08" stroke="#959387" d="M167.686 191.572C166.33 186.148 164.199 174.088 170.277 162.343C171.197 160.575 172.578 158.275 174.66 155.781C184.274 144.351 195.147 145.682 209.846 136.553C212.147 135.124 217.862 131.395 223.577 125.22C238.615 109.043 238.421 92.649 252.757 80.9526C255.058 79.0637 258.206 76.9327 262.541 75.7946C269.152 74.0752 275.012 75.6735 278.16 76.8359"/>
<path stroke-linejoin="round" stroke-linecap="round" stroke-opacity="0.08" stroke="#959387" d="M268.982 84.5125C267.093 84.1735 265.64 84.2703 264.841 84.3672C247.091 86.3529 246.945 121.103 221.179 139.556C214.181 144.569 207.957 147.741 207.957 147.741C196.334 153.65 191.176 153.214 185.049 158.396C181.925 161.06 178.002 165.612 175.508 173.822"/>
<path fill-opacity="0.08" fill="#959387" d="M268.474 92.2129C270.948 92.2129 272.954 90.2071 272.954 87.7329C272.954 85.2587 270.948 83.2529 268.474 83.2529C265.999 83.2529 263.994 85.2587 263.994 87.7329C263.994 90.2071 265.999 92.2129 268.474 92.2129Z"/>
<path fill-opacity="0.08" fill="#959387" d="M260.482 114.347C263.679 114.347 266.27 111.756 266.27 108.559C266.27 105.363 263.679 102.771 260.482 102.771C257.286 102.771 254.695 105.363 254.695 108.559C254.695 111.756 257.286 114.347 260.482 114.347Z"/>
<path fill-opacity="0.08" fill="#959387" d="M249.464 134.543C253.369 134.543 256.535 131.377 256.535 127.472C256.535 123.566 253.369 120.4 249.464 120.4C245.558 120.4 242.393 123.566 242.393 127.472C242.393 131.377 245.558 134.543 249.464 134.543Z"/>
<path stroke-linejoin="round" stroke-linecap="round" stroke-opacity="0.08" stroke="#959387" d="M160.058 33.0784C157.83 32.1097 150.977 29.4943 142.671 31.6496C140.661 32.1581 130.732 34.9914 125.889 44.9685C120.852 55.333 125.284 65.3101 126.01 66.9325C131.241 78.1931 144.996 84.9978 160.325 83.4964"/>
<path stroke-linejoin="round" stroke-linecap="round" stroke-opacity="0.08" stroke="#959387" d="M159.331 49.4969C156.74 49.2063 153.011 48.9884 148.579 49.5453C145.649 49.9086 142.404 50.3202 138.845 51.9669C132.742 54.8002 129.473 59.5708 128.189 61.4839C126.906 63.4212 121.869 71.2188 123.467 81.5591C123.734 83.2542 124.702 89.0177 128.795 93.9578C135.43 101.925 147.78 104.661 160.203 101.295"/>
<path stroke-linejoin="round" stroke-linecap="round" stroke-opacity="0.08" stroke="#959387" d="M160.058 33.0776C157.394 34.1916 146.715 38.9622 140.83 51.1671C134.026 65.3093 138.966 78.4829 139.837 80.6624C145.48 94.9741 157.951 100.399 160.179 101.319"/>
<path stroke-linejoin="round" stroke-linecap="round" stroke-opacity="0.08" stroke="#959387" d="M159.332 49.4971C157.564 50.5384 151.074 54.6551 149.088 62.598C148.773 63.8572 148.071 66.86 148.87 70.4925C150.735 79.0166 159.114 82.9154 160.373 83.4723"/>
<path stroke-linejoin="round" stroke-linecap="round" stroke-opacity="0.08" stroke="#959387" d="M158.702 33.0534C160.93 32.0848 167.783 29.4694 176.09 31.6247C178.1 32.1332 188.028 34.9665 192.871 44.9436C197.908 55.3081 193.477 65.2852 192.75 66.9076C187.52 78.1682 173.765 84.9729 158.436 83.4715"/>
<path stroke-linejoin="round" stroke-linecap="round" stroke-opacity="0.08" stroke="#959387" d="M159.453 49.472C162.044 49.1814 165.774 48.9635 170.205 49.5204C173.135 49.8837 176.38 50.2954 179.94 51.9421C186.043 54.7754 189.312 59.546 190.595 61.459C191.879 63.3963 196.916 71.1939 195.317 81.5342C195.051 83.2293 194.082 88.9928 189.99 93.9329C183.355 101.9 171.004 104.636 158.582 101.27"/>
<path stroke-linejoin="round" stroke-linecap="round" stroke-opacity="0.08" stroke="#959387" d="M158.703 33.0537C161.366 34.1677 172.046 38.9382 177.93 51.1432C184.735 65.2854 179.795 78.459 178.923 80.6385C173.281 94.9502 160.809 100.375 158.582 101.295"/>
<path stroke-linejoin="round" stroke-linecap="round" stroke-opacity="0.08" stroke="#959387" d="M159.453 49.4717C161.221 50.513 167.711 54.6297 169.696 62.5726C170.011 63.8319 170.713 66.8347 169.914 70.4671C168.05 78.9912 159.671 82.89 158.412 83.4469"/>
<path stroke-linejoin="round" stroke-linecap="round" stroke-opacity="0.08" stroke="#959387" d="M19.4101 -35.9395C17.933 -33.76 16.2862 -31.0236 14.8332 -27.706C14.8332 -27.6817 14.8091 -27.6333 14.7848 -27.6091C12.8718 -23.226 12 -18.4312 12 -13.6364V78.2882"/>
<path stroke-linejoin="round" stroke-linecap="round" stroke-opacity="0.08" stroke="#959387" d="M299.01 -35.7456C300.487 -33.5662 302.134 -30.8297 303.587 -27.5121C303.587 -27.4879 303.611 -27.4395 303.635 -27.4152C305.548 -23.0321 306.42 -18.2373 306.42 -13.4425V78.482"/>
<path stroke-linejoin="round" stroke-linecap="round" stroke-opacity="0.08" stroke="#959387" d="M299.01 169.681C300.487 167.501 302.134 164.765 303.587 161.447C303.587 161.423 303.611 161.375 303.635 161.35C305.548 156.967 306.42 152.172 306.42 147.378V55.4531"/>
<path stroke-linejoin="round" stroke-linecap="round" stroke-opacity="0.08" stroke="#959387" d="M19.4101 169.486C17.933 167.307 16.2862 164.571 14.8332 161.253C14.8332 161.229 14.8091 161.18 14.7848 161.156C12.8718 156.773 12 151.978 12 147.183V55.2588"/>
</g>
</g>
<defs>
<filter color-interpolation-filters="sRGB" filterUnits="userSpaceOnUse" height="149" width="318" y="0" x="0" id="filter0_d_67_11971">
<feFlood result="BackgroundImageFix" flood-opacity="0"/>
<feColorMatrix result="hardAlpha" values="0 0 0 0 0 0 0 0 0 0 0 0 0 0 0 0 0 0 127 0" type="matrix" in="SourceAlpha"/>
<feMorphology result="effect1_dropShadow_67_11971" in="SourceAlpha" operator="dilate" radius="2"/>
<feOffset dy="8"/>
<feGaussianBlur stdDeviation="5"/>
<feComposite operator="out" in2="hardAlpha"/>
<feColorMatrix values="0 0 0 0 0 0 0 0 0 0 0 0 0 0 0 0 0 0 0.5 0" type="matrix"/>
<feBlend result="effect1_dropShadow_67_11971" in2="BackgroundImageFix" mode="normal"/>
<feBlend result="shape" in2="effect1_dropShadow_67_11971" in="SourceGraphic" mode="normal"/>
</filter>
<linearGradient gradientUnits="userSpaceOnUse" y2="3.19506" x2="159" y1="3.19506" x1="159" id="paint0_linear_67_11971">
<stop stop-color="#2A2A2A"/>
<stop stop-color="#232323" offset="0.37"/>
<stop stop-color="#0F0F0F" offset="0.91"/>
<stop stop-color="#0C0C0C" offset="1"/>
</linearGradient>
<clipPath id="clip0_67_11971">
<rect fill="white" rx="1" height="125" width="294" y="4" x="12"/>
</clipPath>
</defs>
</svg>