<svg width="26" height="26" viewBox="0 0 26 26" fill="none" xmlns="http://www.w3.org/2000/svg">
<path d="M13 25C19.6274 25 25 19.6274 25 13C25 6.37258 19.6274 1 13 1C6.37259 1 1 6.37258 1 13C1 19.6274 6.37259 25 13 25Z" fill="#8E7F83" stroke="black" stroke-linecap="round" stroke-linejoin="round"/>
<path d="M13.0001 21.1321C17.4913 21.1321 21.1321 17.4913 21.1321 13.0001C21.1321 8.50897 17.4913 4.86816 13.0001 4.86816C8.50897 4.86816 4.86816 8.50897 4.86816 13.0001C4.86816 17.4913 8.50897 21.1321 13.0001 21.1321Z" fill="#8E7F83" stroke="black" stroke-width="0.75" stroke-linecap="round" stroke-linejoin="round"/>
<path d="M17.231 22.0062C20.6371 20.5299 23.0207 17.1402 23.0207 13.1897C23.0207 11.4412 22.5506 9.80826 21.7341 8.39795" fill="#8E7F83"/>
<path d="M17.231 22.0062C20.6371 20.5299 23.0207 17.1402 23.0207 13.1897C23.0207 11.4412 22.5506 9.80826 21.7341 8.39795" stroke="black" stroke-linecap="round" stroke-linejoin="round"/>
<path d="M3.02914 12.8188C3.02914 12.9591 3.00439 13.0993 3.00439 13.2477C3.00439 18.5508 7.30956 22.856 12.6127 22.856C12.8766 22.856 13.1322 22.8395 13.3879 22.8147" fill="#8E7F83"/>
<path d="M3.02914 12.8188C3.02914 12.9591 3.00439 13.0993 3.00439 13.2477C3.00439 18.5508 7.30956 22.856 12.6127 22.856C12.8766 22.856 13.1322 22.8395 13.3879 22.8147" stroke="black" stroke-linecap="round" stroke-linejoin="round"/>
<path d="M17.495 7.53204C17.2476 7.47431 16.9506 7.60626 16.8352 7.84544C16.8104 7.91142 16.7692 7.92791 16.7032 7.92791C16.2249 7.91142 15.7548 7.91967 15.2764 7.91967C15.128 7.91967 14.9713 7.91967 14.8228 7.94441C14.0311 8.08462 13.4372 8.50523 13.0579 9.22276C13.0331 9.25575 13.0249 9.32173 12.9836 9.32173C12.9506 9.32173 12.9424 9.25575 12.9177 9.22276C12.629 8.65369 12.1836 8.2743 11.5898 8.05162C11.2929 7.94441 10.9795 7.91142 10.6661 7.91967C10.196 7.91967 9.71765 7.91967 9.24755 7.91967C9.19806 7.92791 9.17331 7.91967 9.14857 7.86193C9.04135 7.65575 8.87641 7.53204 8.62899 7.52379C8.38982 7.52379 8.17538 7.65575 8.07642 7.88668C7.98569 8.09286 8.02693 8.35678 8.19188 8.52173C8.38982 8.72791 8.69496 8.7609 8.94239 8.61245C8.96713 8.59595 8.99188 8.56297 9.02486 8.6042C9.25579 8.87637 9.47023 9.15678 9.64342 9.47018C9.98157 10.0805 10.163 10.7403 10.2125 11.4413C10.2207 11.4826 10.2043 11.499 10.163 11.499C10.1135 11.4908 10.064 11.499 10.0146 11.499C9.89084 11.499 9.81662 11.565 9.81662 11.6887C9.80838 11.9609 9.80012 12.2413 9.82487 12.5217C9.82487 12.5877 9.8661 12.6289 9.92383 12.6619C9.97332 12.6784 10.031 12.6867 10.0805 12.6867C10.174 12.6922 10.2207 12.7417 10.2207 12.8351C10.2207 12.8351 10.2042 12.8929 10.1548 12.9011C10.0475 12.9094 9.94033 12.9423 9.84136 13.0001C9.5527 13.1568 9.38775 13.4042 9.37126 13.7341C9.35476 14.0805 9.49497 14.3527 9.79188 14.5424C9.98157 14.6578 10.196 14.6908 10.4104 14.6743C10.4599 14.6743 10.4929 14.6908 10.5176 14.732C10.6249 14.9547 10.7568 15.1527 10.9218 15.3259C10.9548 15.3698 10.9438 15.4001 10.8888 15.4166C10.4269 15.5485 9.95683 15.6722 9.49497 15.8042C9.18982 15.8867 8.89291 15.9774 8.58775 16.0599C8.48054 16.0929 8.42281 16.1506 8.42281 16.2496C8.42281 16.3485 8.48879 16.4145 8.60425 16.4393C8.60425 16.4393 8.61249 16.4393 8.62074 16.4475C9.18156 16.5547 9.396 16.5877 9.396 16.5877C9.76713 16.6372 10.1218 16.7362 10.4929 16.7939C10.5012 16.7939 10.5177 16.8021 10.5259 16.8104C10.5341 16.8269 10.5259 16.8434 10.5176 16.8681C10.4599 17.0248 10.3939 17.1815 10.3362 17.3465C10.2372 17.6186 10.13 17.8908 10.0311 18.163C9.99806 18.2537 10.0228 18.3197 10.0805 18.3692C10.13 18.3856 10.1878 18.4021 10.2372 18.4269C10.2455 18.4269 10.2455 18.4269 10.2537 18.4269C10.3527 18.4021 10.4434 18.3609 10.5424 18.3197C11.0455 18.1135 11.5486 17.9155 12.0434 17.7176C12.0682 17.7011 12.0847 17.7011 12.1012 17.7094C12.1259 17.7176 12.1424 17.7424 12.1424 17.7506C12.3238 18.1135 12.5465 18.4516 12.7197 18.8145C12.7445 18.8558 12.7857 18.93 12.8599 18.963C12.9671 19.0125 13.1156 18.9795 13.1816 18.8887C13.2063 18.864 13.2146 18.8393 13.2146 18.831C13.3465 18.4434 13.7506 17.9073 13.8331 17.7588C13.8579 17.7094 13.8826 17.7011 13.9403 17.7176C14.5012 17.9485 15.0702 18.1795 15.6393 18.4021C15.7218 18.4434 15.8125 18.4681 15.895 18.3939C15.9692 18.3279 15.9857 18.2784 15.9445 18.1712C15.8702 17.9485 15.7795 17.7259 15.697 17.4949C15.6228 17.2887 15.5403 17.0826 15.4661 16.8764C15.4414 16.8269 15.4496 16.8021 15.5073 16.7939C15.6805 16.7692 15.8455 16.7114 16.0187 16.7032C16.1012 16.6949 16.0187 16.6949 16.563 16.6042C16.8764 16.5465 17.0331 16.5135 17.0414 16.5135C17.1651 16.497 17.2888 16.4722 17.4125 16.4393C17.4867 16.4228 17.5445 16.3733 17.5527 16.2826C17.5609 16.2001 17.5197 16.1259 17.4372 16.0929C17.4125 16.0764 17.3878 16.0681 17.363 16.0599C17.2228 16.0186 17.0908 15.9856 16.9589 15.9444C16.3321 15.763 15.7053 15.5898 15.0867 15.4083C15.0317 15.3918 15.0235 15.3616 15.062 15.3176C15.2187 15.1362 15.3506 14.9382 15.4661 14.7238C15.4826 14.6826 15.5156 14.6661 15.5568 14.6661C15.664 14.6661 15.7713 14.6661 15.8785 14.6413C16.2001 14.5506 16.4228 14.3444 16.5135 14.0228C16.6125 13.7011 16.5383 13.4042 16.2991 13.1568C16.1754 13.0248 16.0187 12.9423 15.8372 12.9094C15.8042 12.9011 15.7713 12.9094 15.763 12.8599C15.7383 12.7197 15.7548 12.6949 15.895 12.6867C15.9115 12.6867 15.9362 12.6949 15.9527 12.6867C16.0682 12.6702 16.1424 12.6207 16.1506 12.53C16.1754 12.2413 16.1754 11.9527 16.1589 11.664C16.1506 11.565 16.0764 11.499 15.9692 11.499C15.9197 11.4908 15.8702 11.499 15.8125 11.499C15.7795 11.499 15.7548 11.4826 15.763 11.4413C15.796 11.1032 15.8372 10.765 15.9362 10.4269C16.1341 9.75059 16.4723 9.14853 16.9341 8.62894C16.9754 8.58771 16.9919 8.57946 17.0414 8.61245C17.2393 8.73616 17.4537 8.74441 17.6517 8.6207C17.8496 8.51348 17.9568 8.34028 17.9486 8.10936C17.9403 7.83719 17.7589 7.59802 17.495 7.53204ZM8.62899 8.32379C8.51353 8.32379 8.41455 8.21657 8.41455 8.10936C8.4228 8.01039 8.53001 7.90317 8.62074 7.90317C8.71971 7.90317 8.82692 8.01039 8.82692 8.11761C8.82692 8.21657 8.72796 8.32379 8.62899 8.32379ZM9.37951 8.42276C9.37951 8.42276 9.30528 8.35678 9.32177 8.32379C9.33002 8.2908 9.38776 8.31554 9.42899 8.31554C9.91559 8.30729 10.4022 8.29905 10.8888 8.31554C11.8785 8.34853 12.6207 9.08255 12.7692 9.98152C12.7692 10.0475 12.7857 10.1217 12.7857 10.1877V11.4166C12.7857 11.4743 12.7774 11.499 12.7115 11.499C12.3651 11.4908 12.0269 11.499 11.6888 11.499H10.6743C10.6166 11.499 10.6001 11.4826 10.6001 11.4248C10.5341 10.2867 10.1218 9.28049 9.37951 8.42276ZM10.262 14.2702C10.0888 14.2619 9.91559 14.1382 9.84136 13.9485C9.73415 13.7011 9.87435 13.396 10.13 13.3135C10.196 13.2887 10.2125 13.297 10.2125 13.363V13.5197C10.2125 13.7506 10.2537 13.9815 10.3115 14.2042C10.328 14.2537 10.3115 14.2702 10.262 14.2702ZM16.431 16.1918C16.431 16.1918 16.4311 16.2001 16.464 16.2083C16.3403 16.2496 16.2331 16.2661 16.1177 16.2826L15.1527 16.4558C15.0043 16.4887 14.9465 16.5877 15.0042 16.7444C15.0867 16.9836 15.1775 17.2228 15.2682 17.4619C15.3177 17.5774 15.3589 17.6929 15.4001 17.8083C15.4001 17.8331 15.4331 17.8578 15.4166 17.8743C15.3919 17.8908 15.3671 17.8743 15.3506 17.8661C14.9465 17.7011 14.5506 17.5444 14.1548 17.3795C14.064 17.3465 13.9733 17.3052 13.8744 17.2722C13.7506 17.2228 13.6764 17.2475 13.6022 17.3712C13.5032 17.5362 13.4042 17.7094 13.3135 17.8826C13.2146 18.0475 13.1238 18.2125 13.0249 18.3774C12.9919 18.4434 12.9836 18.4434 12.9424 18.3774C12.7609 18.0558 12.5795 17.7259 12.3981 17.4042C12.3073 17.2393 12.2414 17.2228 12.0599 17.2887C11.5816 17.4867 11.095 17.6846 10.6166 17.8743C10.6001 17.8826 10.5836 17.8991 10.5754 17.8826C10.5506 17.8661 10.5671 17.8413 10.5754 17.8166C10.6744 17.5609 10.7733 17.297 10.864 17.0413C10.9053 16.9341 10.9548 16.8351 10.9878 16.7279C11.029 16.5877 10.9713 16.4805 10.8146 16.4558C10.5836 16.4145 10.3445 16.3733 10.1053 16.3238C9.93208 16.2991 9.76713 16.2661 9.60218 16.2331C9.57744 16.2331 9.54445 16.2331 9.52796 16.2001C9.57744 16.1836 9.61868 16.1753 9.66816 16.1588C10.2042 16.0104 10.7403 15.8537 11.2764 15.697C11.3094 15.6887 11.3341 15.697 11.3671 15.7217C11.7877 16.0269 12.2579 16.2083 12.7692 16.2413C13.3548 16.2908 13.9073 16.1588 14.4104 15.8537C14.4847 15.8125 14.5506 15.763 14.6166 15.7217C14.6496 15.697 14.6744 15.6887 14.7073 15.697C15.2847 15.8619 15.8537 16.0269 16.431 16.1918ZM15.3754 13.5774C15.3341 14.3362 15.0042 14.9465 14.3939 15.4083C13.9651 15.7217 13.4785 15.8702 12.9506 15.8619C11.8372 15.8372 10.9713 15.0867 10.6991 14.1547C10.6331 13.9073 10.6001 13.6599 10.6001 13.4042C10.6001 13.198 10.6084 12.9836 10.6001 12.7774C10.6001 12.7114 10.6166 12.6867 10.6908 12.6867C11.4579 12.6949 12.2249 12.6867 13.0001 12.6867C13.7754 12.6867 14.5259 12.6949 15.2929 12.6867C15.3589 12.6867 15.3754 12.7114 15.3754 12.7774C15.3754 13.0413 15.3836 13.3052 15.3754 13.5774ZM15.8537 13.3135C16.0517 13.3877 16.1836 13.5856 16.1754 13.7836C16.1671 13.9815 16.0269 14.1795 15.8372 14.2454C15.8042 14.2619 15.7713 14.2702 15.7383 14.2619C15.6558 14.2702 15.6558 14.2619 15.6723 14.1877C15.7383 13.9238 15.7795 13.6516 15.763 13.3712C15.7548 13.2805 15.763 13.2805 15.8537 13.3135ZM15.7713 11.9527C15.7713 12.0434 15.7713 12.1341 15.7795 12.2248C15.7795 12.2743 15.763 12.2908 15.7135 12.2908C15.5403 12.2826 15.3589 12.2908 15.1774 12.2908H10.3032C10.2372 12.2908 10.2043 12.2578 10.2043 12.1918C10.2043 12.1094 10.2125 12.0269 10.2043 11.9527C10.2043 11.9032 10.2207 11.8784 10.2702 11.8867H15.7053C15.7548 11.8867 15.7713 11.9032 15.7713 11.9527ZM16.6372 8.37327C16.0599 9.02482 15.6723 9.78358 15.4826 10.6331C15.4249 10.897 15.3919 11.1692 15.3754 11.4331C15.3754 11.4991 15.3424 11.499 15.3012 11.499H13.264C13.2063 11.499 13.1898 11.4826 13.1898 11.4248C13.1898 11.0042 13.1898 10.5918 13.1898 10.1795C13.2063 9.77534 13.3465 9.41245 13.5939 9.0908C13.8743 8.71967 14.2537 8.47224 14.7156 8.36503C14.8723 8.33204 15.029 8.3073 15.1857 8.3073H16.6043C16.6043 8.3073 16.662 8.29905 16.6702 8.32379C16.6785 8.34853 16.6537 8.35678 16.6372 8.37327ZM17.3548 8.32379C17.2558 8.32379 17.1568 8.21657 17.1568 8.11761C17.1568 8.01039 17.2558 7.90317 17.363 7.90317C17.4537 7.90317 17.561 8.01863 17.561 8.10936C17.561 8.21657 17.462 8.31554 17.3548 8.32379Z" fill="black"/>
<path d="M15.1526 16.4557C15.0041 16.4887 14.9464 16.5877 15.0041 16.7444C15.0866 16.9835 15.1773 17.2227 15.268 17.4619C15.3175 17.5774 15.3588 17.6928 15.4 17.8083C15.4 17.833 15.433 17.8578 15.4165 17.8743C15.3918 17.8908 15.367 17.8743 15.3505 17.866C14.9464 17.7011 14.5505 17.5444 14.1546 17.3794C14.0639 17.3464 13.9732 17.3052 13.8742 17.2722C13.7505 17.2227 13.6763 17.2475 13.6021 17.3712C13.5031 17.5361 13.4041 17.7093 13.3134 17.8825C13.2144 18.0475 13.1237 18.2124 13.0247 18.3774C12.9918 18.4433 12.9835 18.4433 12.9423 18.3774C12.7608 18.0557 12.5794 17.7258 12.3979 17.4042C12.3072 17.2392 12.2412 17.2227 12.0598 17.2887C11.5814 17.4866 11.0948 17.6846 10.6165 17.8743C10.6 17.8825 10.5835 17.899 10.5753 17.8825C10.5505 17.866 10.567 17.8413 10.5753 17.8165C10.6742 17.5609 10.7732 17.2969 10.8639 17.0413C10.9051 16.9341 10.9546 16.8351 10.9876 16.7279C11.0289 16.5877 10.9711 16.4804 10.8144 16.4557C10.5835 16.4145 10.3443 16.3732 10.1051 16.3237C9.93195 16.299 9.767 16.266 9.60206 16.233C9.57731 16.233 9.54433 16.233 9.52783 16.2C9.57732 16.1835 9.61855 16.1753 9.66804 16.1588C10.2041 16.0103 10.7402 15.8536 11.2763 15.6969C11.3093 15.6887 11.334 15.6969 11.367 15.7217C11.7876 16.0268 12.2577 16.2083 12.7691 16.2413C13.3546 16.2908 13.9072 16.1588 14.4103 15.8536C14.4845 15.8124 14.5505 15.7629 14.6165 15.7217C14.6495 15.6969 14.6742 15.6887 14.7072 15.6969C15.2845 15.8619 15.8536 16.0268 16.4309 16.1918C16.4309 16.1918 16.4309 16.2 16.4639 16.2083C16.3402 16.2495 16.233 16.266 16.1175 16.2825L15.1526 16.4557Z" fill="#B9AEAD"/>
<path d="M10.3116 14.2043C10.3281 14.2538 10.3116 14.2703 10.2621 14.2703C10.0889 14.2621 9.91572 14.1384 9.8415 13.9487C9.73428 13.7012 9.87448 13.3961 10.1301 13.3136C10.1961 13.2889 10.2126 13.2971 10.2126 13.3631V13.5198C10.2126 13.7507 10.2539 13.9817 10.3116 14.2043Z" fill="#B9AEAD"/>
<path d="M16.1753 13.7837C16.167 13.9816 16.0268 14.1796 15.8371 14.2456C15.8041 14.2621 15.7712 14.2703 15.7382 14.2621C15.6557 14.2703 15.6557 14.2621 15.6722 14.1878C15.7382 13.9239 15.7794 13.6518 15.7629 13.3713C15.7547 13.2806 15.7629 13.2806 15.8536 13.3136C16.0516 13.3878 16.1835 13.5858 16.1753 13.7837Z" fill="#B9AEAD"/>
<path d="M15.3754 12.7777C15.3754 13.0416 15.3836 13.3056 15.3754 13.5777C15.3341 14.3365 15.0042 14.9468 14.3939 15.4087C13.965 15.7221 13.4784 15.8705 12.9506 15.8623C11.8372 15.8375 10.9712 15.087 10.6991 14.1551C10.6331 13.9076 10.6001 13.6602 10.6001 13.4045C10.6001 13.1984 10.6083 12.9839 10.6001 12.7777C10.6001 12.7118 10.6166 12.687 10.6908 12.687C11.4578 12.6953 12.2248 12.687 13.0001 12.687C13.7754 12.687 14.5259 12.6953 15.2929 12.687C15.3589 12.687 15.3754 12.7118 15.3754 12.7777Z" fill="#B9AEAD"/>
<path d="M15.7794 12.225C15.7794 12.2744 15.7629 12.2909 15.7134 12.2909C15.5402 12.2827 15.3587 12.2909 15.1773 12.2909H10.3031C10.2371 12.2909 10.2041 12.258 10.2041 12.192C10.2041 12.1095 10.2123 12.027 10.2041 11.9528C10.2041 11.9033 10.2206 11.8786 10.2701 11.8868H15.7051C15.7546 11.8868 15.7711 11.9033 15.7711 11.9528C15.7711 12.0435 15.7711 12.1342 15.7794 12.225Z" fill="#B9AEAD"/>
<path d="M17.5609 8.10951C17.5609 8.21672 17.4619 8.31569 17.3547 8.32394C17.2557 8.32394 17.1567 8.21672 17.1567 8.11776C17.1567 8.01054 17.2557 7.90332 17.3629 7.90332C17.4536 7.90332 17.5609 8.01878 17.5609 8.10951Z" fill="#B9AEAD"/>
<path d="M16.6704 8.32397C16.6704 8.32397 16.6539 8.35695 16.6374 8.37345C16.06 9.025 15.6724 9.78376 15.4827 10.6332C15.425 10.8972 15.392 11.1693 15.3755 11.4332C15.3755 11.4992 15.3425 11.4992 15.3013 11.4992H13.2642C13.2064 11.4992 13.1899 11.4827 13.1899 11.425C13.1899 11.0044 13.1899 10.592 13.1899 10.1796C13.2064 9.77551 13.3466 9.41263 13.5941 9.09098C13.8745 8.71984 14.2539 8.47242 14.7157 8.3652C14.8724 8.33221 15.0291 8.30747 15.1858 8.30747H16.6044C16.6044 8.30747 16.6621 8.29922 16.6704 8.32397Z" fill="#B9AEAD"/>
<path d="M12.7856 10.1878V11.4167C12.7856 11.4744 12.7773 11.4992 12.7113 11.4992C12.365 11.4909 12.0268 11.4992 11.6887 11.4992H10.6742C10.6165 11.4992 10.6 11.4827 10.6 11.425C10.534 10.2868 10.1217 9.28063 9.37939 8.42289C9.35465 8.3899 9.30516 8.35691 9.32166 8.32392C9.3299 8.29094 9.38764 8.31568 9.42888 8.31568C9.91548 8.30743 10.4021 8.29918 10.8887 8.31568C11.8784 8.34867 12.6206 9.08269 12.7691 9.98166C12.7691 10.0476 12.7856 10.1219 12.7856 10.1878Z" fill="#B9AEAD"/>
<path d="M8.82692 8.11776C8.82692 8.21672 8.72796 8.32394 8.62899 8.32394C8.51353 8.32394 8.41455 8.21672 8.41455 8.10951C8.4228 8.01054 8.53001 7.90332 8.62074 7.90332C8.71971 7.90332 8.82692 8.01054 8.82692 8.11776Z" fill="#B9AEAD"/>
</svg>
