<svg width="58" height="58" viewBox="0 0 58 58" fill="none" xmlns="http://www.w3.org/2000/svg">
<rect x="1" y="1" width="56" height="56" rx="28" fill="url(#paint0_linear_69_13942)"/>
<rect x="1" y="1" width="56" height="56" rx="28" stroke="url(#paint1_linear_69_13942)"/>
<path d="M29 57C44.464 57 57 44.464 57 29C57 13.536 44.464 1 29 1C13.536 1 1 13.536 1 29C1 44.464 13.536 57 29 57Z" stroke="#DFD4CF" stroke-opacity="0.05" stroke-width="2" stroke-linecap="round" stroke-linejoin="round"/>
<path d="M28.8629 54.5696C42.9846 54.5696 54.4324 43.1218 54.4324 29.0001C54.4324 14.8785 42.9846 3.43066 28.8629 3.43066C14.7413 3.43066 3.29346 14.8785 3.29346 29.0001C3.29346 43.1218 14.7413 54.5696 28.8629 54.5696Z" stroke="#DFD4CF" stroke-opacity="0.05" stroke-linecap="round" stroke-linejoin="round"/>
<path d="M27.2851 3.60693C27.5595 4.70459 27.9907 7.14491 26.7608 9.52153C26.5746 9.87925 26.2952 10.3448 25.8738 10.8495C23.9284 13.1624 21.7282 12.8929 18.7538 14.7403C18.2882 15.0294 17.1318 15.784 15.9753 17.0336C12.9323 20.307 12.9715 23.6244 10.0705 25.9913C9.60501 26.3735 8.96798 26.8047 8.09084 27.035C6.75307 27.3829 5.56721 27.0595 4.93018 26.8243" stroke="#DFD4CF" stroke-opacity="0.05" stroke-linecap="round" stroke-linejoin="round"/>
<path d="M6.78711 25.2708C7.16933 25.3394 7.46334 25.3198 7.62505 25.3002C11.2169 24.8984 11.2463 17.8666 16.4602 14.1326C17.8764 13.1182 19.1357 12.4763 19.1357 12.4763C21.4878 11.2806 22.5316 11.3688 23.7714 10.3202C24.4035 9.78116 25.1973 8.85991 25.7021 7.19873" stroke="#DFD4CF" stroke-opacity="0.05" stroke-linecap="round" stroke-linejoin="round"/>
<path d="M6.89483 25.5255C7.3955 25.5255 7.80138 25.1196 7.80138 24.6189C7.80138 24.1183 7.3955 23.7124 6.89483 23.7124C6.39416 23.7124 5.98828 24.1183 5.98828 24.6189C5.98828 25.1196 6.39416 25.5255 6.89483 25.5255Z" fill="#DFD4CF" fill-opacity="0.05"/>
<path d="M8.5071 21.5762C9.15392 21.5762 9.67825 21.0519 9.67825 20.405C9.67825 19.7582 9.15392 19.2339 8.5071 19.2339C7.86029 19.2339 7.33594 19.7582 7.33594 20.405C7.33594 21.0519 7.86029 21.5762 8.5071 21.5762Z" fill="#DFD4CF" fill-opacity="0.05"/>
<path d="M10.7419 18.0087C11.5322 18.0087 12.1728 17.3681 12.1728 16.5778C12.1728 15.7876 11.5322 15.147 10.7419 15.147C9.95166 15.147 9.31104 15.7876 9.31104 16.5778C9.31104 17.3681 9.95166 18.0087 10.7419 18.0087Z" fill="#DFD4CF" fill-opacity="0.05"/>
<path d="M13.5102 14.1962C14.2599 14.1962 14.8676 13.5885 14.8676 12.8388C14.8676 12.0892 14.2599 11.4814 13.5102 11.4814C12.7606 11.4814 12.1528 12.0892 12.1528 12.8388C12.1528 13.5885 12.7606 14.1962 13.5102 14.1962Z" fill="#DFD4CF" fill-opacity="0.05"/>
<path d="M17.4008 13.5003C17.8908 13.2013 18.5915 12.7211 19.3118 12.0057C20.2135 11.1138 20.7574 10.5699 20.7231 9.80547C20.6937 9.11944 20.2037 8.3942 19.4491 8.11489C18.714 7.84048 17.8467 8.03159 17.342 8.60001C17.2489 8.70292 16.7147 9.31055 16.9499 10.0113C17.1067 10.4866 17.587 10.9276 18.175 10.8933C18.8414 10.8541 19.1746 10.2318 19.1942 10.1975" stroke="#DFD4CF" stroke-opacity="0.05" stroke-linecap="round" stroke-linejoin="round"/>
<path d="M22.679 8.56595C23.3258 8.56595 23.8501 8.0416 23.8501 7.39479C23.8501 6.74798 23.3258 6.22363 22.679 6.22363C22.0322 6.22363 21.5078 6.74798 21.5078 7.39479C21.5078 8.0416 22.0322 8.56595 22.679 8.56595Z" fill="#DFD4CF" fill-opacity="0.05"/>
<path d="M5.36597 29.6177C5.70697 29.6177 5.98339 29.3412 5.98339 29.0002C5.98339 28.6592 5.70697 28.3828 5.36597 28.3828C5.02497 28.3828 4.74854 28.6592 4.74854 29.0002C4.74854 29.3412 5.02497 29.6177 5.36597 29.6177Z" fill="#DFD4CF" fill-opacity="0.05"/>
<path d="M29 43.4067C36.9566 43.4067 43.4067 36.9566 43.4067 29C43.4067 21.0434 36.9566 14.5933 29 14.5933C21.0434 14.5933 14.5933 21.0434 14.5933 29C14.5933 36.9566 21.0434 43.4067 29 43.4067Z" stroke="#DFD4CF" stroke-opacity="0.05" stroke-width="2" stroke-linecap="round" stroke-linejoin="round"/>
<path d="M30.72 3.60693C30.4456 4.70459 30.0144 7.14491 31.2443 9.52153C31.4305 9.87925 31.7099 10.3448 32.1313 10.8495C34.0767 13.1624 36.2769 12.8929 39.2513 14.7403C39.7168 15.0294 40.8733 15.784 42.0298 17.0336C45.0728 20.307 45.0336 23.6244 47.9346 25.9913C48.4001 26.3735 49.0371 26.8047 49.9143 27.035C51.252 27.3829 52.4379 27.0595 53.0749 26.8243" stroke="#DFD4CF" stroke-opacity="0.05" stroke-linecap="round" stroke-linejoin="round"/>
<path d="M51.2177 25.2708C50.8355 25.3394 50.5414 25.3198 50.3797 25.3002C46.7879 24.8984 46.7585 17.8666 41.5446 14.1326C40.1284 13.1182 38.8691 12.4763 38.8691 12.4763C36.5169 11.2806 35.4732 11.3688 34.2334 10.3202C33.6013 9.78116 32.8075 8.85991 32.3027 7.19873" stroke="#DFD4CF" stroke-opacity="0.05" stroke-linecap="round" stroke-linejoin="round"/>
<path d="M51.1101 25.5255C51.6108 25.5255 52.0167 25.1196 52.0167 24.6189C52.0167 24.1183 51.6108 23.7124 51.1101 23.7124C50.6095 23.7124 50.2036 24.1183 50.2036 24.6189C50.2036 25.1196 50.6095 25.5255 51.1101 25.5255Z" fill="#DFD4CF" fill-opacity="0.05"/>
<path d="M49.4929 21.5762C50.1398 21.5762 50.6641 21.0519 50.6641 20.405C50.6641 19.7582 50.1398 19.2339 49.4929 19.2339C48.8461 19.2339 48.3218 19.7582 48.3218 20.405C48.3218 21.0519 48.8461 21.5762 49.4929 21.5762Z" fill="#DFD4CF" fill-opacity="0.05"/>
<path d="M47.2634 18.0087C48.0536 18.0087 48.6942 17.3681 48.6942 16.5778C48.6942 15.7876 48.0536 15.147 47.2634 15.147C46.4731 15.147 45.8325 15.7876 45.8325 16.5778C45.8325 17.3681 46.4731 18.0087 47.2634 18.0087Z" fill="#DFD4CF" fill-opacity="0.05"/>
<path d="M44.4946 14.1962C45.2442 14.1962 45.8519 13.5885 45.8519 12.8388C45.8519 12.0892 45.2442 11.4814 44.4946 11.4814C43.7449 11.4814 43.1372 12.0892 43.1372 12.8388C43.1372 13.5885 43.7449 14.1962 44.4946 14.1962Z" fill="#DFD4CF" fill-opacity="0.05"/>
<path d="M40.6037 13.5003C40.1136 13.2013 39.4129 12.7211 38.6926 12.0057C37.7909 11.1138 37.247 10.5699 37.2813 9.80547C37.3107 9.11944 37.8007 8.3942 38.5554 8.11489C39.2904 7.84048 40.1577 8.03159 40.6625 8.60001C40.7556 8.70292 41.2897 9.31055 41.0545 10.0113C40.8977 10.4866 40.4175 10.9276 39.8295 10.8933C39.163 10.8541 38.8298 10.2318 38.8102 10.1975" stroke="#DFD4CF" stroke-opacity="0.05" stroke-linecap="round" stroke-linejoin="round"/>
<path d="M35.3216 8.56595C35.9684 8.56595 36.4927 8.0416 36.4927 7.39479C36.4927 6.74798 35.9684 6.22363 35.3216 6.22363C34.6747 6.22363 34.1504 6.74798 34.1504 7.39479C34.1504 8.0416 34.6747 8.56595 35.3216 8.56595Z" fill="#DFD4CF" fill-opacity="0.05"/>
<path d="M52.634 29.4849C52.975 29.4849 53.2514 29.2084 53.2514 28.8674C53.2514 28.5264 52.975 28.25 52.634 28.25C52.293 28.25 52.0166 28.5264 52.0166 28.8674C52.0166 29.2084 52.293 29.4849 52.634 29.4849Z" fill="#DFD4CF" fill-opacity="0.05"/>
<path d="M27.2851 54.2018C27.5595 53.1042 27.9907 50.6639 26.7608 48.2872C26.5746 47.9295 26.2952 47.464 25.8738 46.9593C23.9284 44.6464 21.7282 44.9159 18.7538 43.0685C18.2882 42.7794 17.1318 42.0247 15.9753 40.7752C12.9323 37.5018 12.9715 34.1843 10.0705 31.8175C9.60501 31.4353 8.96798 31.0041 8.09084 30.7738C6.75307 30.4259 5.56721 30.7493 4.93018 30.9845" stroke="#DFD4CF" stroke-opacity="0.05" stroke-linecap="round" stroke-linejoin="round"/>
<path d="M6.78711 32.5381C7.16933 32.4695 7.46334 32.4891 7.62505 32.5087C11.2169 32.9105 11.2463 39.9424 16.4602 43.6764C17.8764 44.6907 19.1357 45.3327 19.1357 45.3327C21.4878 46.5283 22.5316 46.4401 23.7714 47.4888C24.4035 48.0278 25.1973 48.949 25.7021 50.6102" stroke="#DFD4CF" stroke-opacity="0.05" stroke-linecap="round" stroke-linejoin="round"/>
<path d="M6.89532 34.0963C7.39599 34.0963 7.80187 33.6904 7.80187 33.1897C7.80187 32.6891 7.39599 32.2832 6.89532 32.2832C6.39465 32.2832 5.98877 32.6891 5.98877 33.1897C5.98877 33.6904 6.39465 34.0963 6.89532 34.0963Z" fill="#DFD4CF" fill-opacity="0.05"/>
<path d="M8.5071 38.5699C9.15392 38.5699 9.67825 38.0455 9.67825 37.3987C9.67825 36.7519 9.15392 36.2275 8.5071 36.2275C7.86029 36.2275 7.33594 36.7519 7.33594 37.3987C7.33594 38.0455 7.86029 38.5699 8.5071 38.5699Z" fill="#DFD4CF" fill-opacity="0.05"/>
<path d="M10.7419 42.662C11.5322 42.662 12.1728 42.0214 12.1728 41.2312C12.1728 40.4409 11.5322 39.8003 10.7419 39.8003C9.95166 39.8003 9.31104 40.4409 9.31104 41.2312C9.31104 42.0214 9.95166 42.662 10.7419 42.662Z" fill="#DFD4CF" fill-opacity="0.05"/>
<path d="M13.5102 46.3222C14.2599 46.3222 14.8676 45.7144 14.8676 44.9648C14.8676 44.2151 14.2599 43.6074 13.5102 43.6074C12.7606 43.6074 12.1528 44.2151 12.1528 44.9648C12.1528 45.7144 12.7606 46.3222 13.5102 46.3222Z" fill="#DFD4CF" fill-opacity="0.05"/>
<path d="M17.4012 44.3086C17.8913 44.6075 18.592 45.0877 19.3123 45.8032C20.214 46.695 20.7579 47.2389 20.7236 48.0034C20.6942 48.6894 20.2042 49.4146 19.4495 49.694C18.7145 49.9684 17.8472 49.7773 17.3424 49.2088C17.2493 49.1059 16.7152 48.4983 16.9504 47.7976C17.1072 47.3222 17.5874 46.8812 18.1755 46.9155C18.8419 46.9547 19.1751 47.5771 19.1947 47.6114" stroke="#DFD4CF" stroke-opacity="0.05" stroke-linecap="round" stroke-linejoin="round"/>
<path d="M22.679 51.585C23.3258 51.585 23.8501 51.0606 23.8501 50.4138C23.8501 49.767 23.3258 49.2427 22.679 49.2427C22.0322 49.2427 21.5078 49.767 21.5078 50.4138C21.5078 51.0606 22.0322 51.585 22.679 51.585Z" fill="#DFD4CF" fill-opacity="0.05"/>
<path d="M30.72 54.2018C30.4456 53.1042 30.0144 50.6639 31.2443 48.2872C31.4305 47.9295 31.7099 47.464 32.1313 46.9593C34.0767 44.6464 36.2769 44.9159 39.2513 43.0685C39.7168 42.7794 40.8733 42.0247 42.0298 40.7752C45.0728 37.5018 45.0336 34.1843 47.9346 31.8175C48.4001 31.4353 49.0371 31.0041 49.9143 30.7738C51.252 30.4259 52.4379 30.7493 53.0749 30.9845" stroke="#DFD4CF" stroke-opacity="0.05" stroke-linecap="round" stroke-linejoin="round"/>
<path d="M51.2177 32.5381C50.8355 32.4695 50.5414 32.4891 50.3797 32.5087C46.7879 32.9105 46.7585 39.9424 41.5446 43.6764C40.1284 44.6907 38.8691 45.3327 38.8691 45.3327C36.5169 46.5283 35.4732 46.4401 34.2334 47.4888C33.6013 48.0278 32.8075 48.949 32.3027 50.6102" stroke="#DFD4CF" stroke-opacity="0.05" stroke-linecap="round" stroke-linejoin="round"/>
<path d="M51.1101 34.0963C51.6108 34.0963 52.0167 33.6904 52.0167 33.1897C52.0167 32.6891 51.6108 32.2832 51.1101 32.2832C50.6095 32.2832 50.2036 32.6891 50.2036 33.1897C50.2036 33.6904 50.6095 34.0963 51.1101 34.0963Z" fill="#DFD4CF" fill-opacity="0.05"/>
<path d="M49.4929 38.5699C50.1398 38.5699 50.6641 38.0455 50.6641 37.3987C50.6641 36.7519 50.1398 36.2275 49.4929 36.2275C48.8461 36.2275 48.3218 36.7519 48.3218 37.3987C48.3218 38.0455 48.8461 38.5699 49.4929 38.5699Z" fill="#DFD4CF" fill-opacity="0.05"/>
<path d="M47.2634 42.662C48.0536 42.662 48.6942 42.0214 48.6942 41.2312C48.6942 40.4409 48.0536 39.8003 47.2634 39.8003C46.4731 39.8003 45.8325 40.4409 45.8325 41.2312C45.8325 42.0214 46.4731 42.662 47.2634 42.662Z" fill="#DFD4CF" fill-opacity="0.05"/>
<path d="M44.4946 46.3222C45.2442 46.3222 45.8519 45.7144 45.8519 44.9648C45.8519 44.2151 45.2442 43.6074 44.4946 43.6074C43.7449 43.6074 43.1372 44.2151 43.1372 44.9648C43.1372 45.7144 43.7449 46.3222 44.4946 46.3222Z" fill="#DFD4CF" fill-opacity="0.05"/>
<path d="M40.6037 44.3086C40.1136 44.6075 39.4129 45.0877 38.6926 45.8032C37.7909 46.695 37.247 47.2389 37.2813 48.0034C37.3107 48.6894 37.8007 49.4146 38.5554 49.694C39.2904 49.9684 40.1577 49.7773 40.6625 49.2088C40.7556 49.1059 41.2897 48.4983 41.0545 47.7976C40.8977 47.3222 40.4175 46.8812 39.8295 46.9155C39.163 46.9547 38.8298 47.5771 38.8102 47.6114" stroke="#DFD4CF" stroke-opacity="0.05" stroke-linecap="round" stroke-linejoin="round"/>
<path d="M35.3216 51.585C35.9684 51.585 36.4927 51.0606 36.4927 50.4138C36.4927 49.767 35.9684 49.2427 35.3216 49.2427C34.6747 49.2427 34.1504 49.767 34.1504 50.4138C34.1504 51.0606 34.6747 51.585 35.3216 51.585Z" fill="#DFD4CF" fill-opacity="0.05"/>
<defs>
<linearGradient id="paint0_linear_69_13942" x1="29" y1="1" x2="29" y2="57" gradientUnits="userSpaceOnUse">
<stop stop-color="#381414"/>
<stop offset="1" stop-color="#1D0808"/>
</linearGradient>
<linearGradient id="paint1_linear_69_13942" x1="29.0033" y1="57.6367" x2="29.0033" y2="0.363348" gradientUnits="userSpaceOnUse">
<stop offset="0.2" stop-color="#918789"/>
<stop offset="0.55" stop-color="#BBB0AE"/>
<stop offset="0.83" stop-color="#D7CCC8"/>
<stop offset="1" stop-color="#E2D7D2"/>
</linearGradient>
</defs>
</svg>
