<svg width="26" height="26" viewBox="0 0 26 26" fill="none" xmlns="http://www.w3.org/2000/svg">
<path d="M13.0005 25C19.6279 25 25.0005 19.6274 25.0005 13C25.0005 6.37258 19.6279 1 13.0005 1C6.37308 1 1.00049 6.37258 1.00049 13C1.00049 19.6274 6.37308 25 13.0005 25Z" fill="#8E7F83" stroke="black" stroke-linecap="round" stroke-linejoin="round"/>
<path d="M13.0006 21.1321C17.4918 21.1321 21.1326 17.4913 21.1326 13.0001C21.1326 8.50897 17.4918 4.86816 13.0006 4.86816C8.50946 4.86816 4.86865 8.50897 4.86865 13.0001C4.86865 17.4913 8.50946 21.1321 13.0006 21.1321Z" fill="#8E7F83" stroke="black" stroke-width="0.75" stroke-linecap="round" stroke-linejoin="round"/>
<path d="M17.2314 22.0062C20.6376 20.5299 23.0211 17.1402 23.0211 13.1897C23.0211 11.4412 22.551 9.80826 21.7345 8.39795" fill="#8E7F83"/>
<path d="M17.2314 22.0062C20.6376 20.5299 23.0211 17.1402 23.0211 13.1897C23.0211 11.4412 22.551 9.80826 21.7345 8.39795" stroke="black" stroke-linecap="round" stroke-linejoin="round"/>
<path d="M3.02962 12.8184C3.02962 12.9586 3.00488 13.0988 3.00488 13.2472C3.00488 18.5503 7.31005 22.8555 12.6131 22.8555C12.8771 22.8555 13.1327 22.839 13.3884 22.8142" fill="#8E7F83"/>
<path d="M3.02962 12.8184C3.02962 12.9586 3.00488 13.0988 3.00488 13.2472C3.00488 18.5503 7.31005 22.8555 12.6131 22.8555C12.8771 22.8555 13.1327 22.839 13.3884 22.8142" stroke="black" stroke-linecap="round" stroke-linejoin="round"/>
<path d="M17.4955 7.53204C17.248 7.47431 16.9511 7.60626 16.8357 7.84544C16.8109 7.91142 16.7697 7.92791 16.7037 7.92791C16.2254 7.91142 15.7553 7.91967 15.2769 7.91967C15.1284 7.91967 14.9717 7.91967 14.8233 7.94441C14.0315 8.08462 13.4377 8.50523 13.0583 9.22276C13.0336 9.25575 13.0254 9.32173 12.9841 9.32173C12.9511 9.32173 12.9429 9.25575 12.9181 9.22276C12.6295 8.65369 12.1841 8.2743 11.5903 8.05162C11.2934 7.94441 10.98 7.91142 10.6666 7.91967C10.1965 7.91967 9.71814 7.91967 9.24804 7.91967C9.19855 7.92791 9.1738 7.91967 9.14906 7.86193C9.04184 7.65575 8.8769 7.53204 8.62948 7.52379C8.3903 7.52379 8.17587 7.65575 8.0769 7.88668C7.98618 8.09286 8.02742 8.35678 8.19237 8.52173C8.39031 8.72791 8.69545 8.7609 8.94287 8.61245C8.96762 8.59595 8.99236 8.56297 9.02535 8.6042C9.25628 8.87637 9.47071 9.15678 9.64391 9.47018C9.98205 10.0805 10.1635 10.7403 10.213 11.4413C10.2212 11.4826 10.2047 11.499 10.1635 11.499C10.114 11.4908 10.0645 11.499 10.015 11.499C9.89133 11.499 9.81711 11.565 9.81711 11.6887C9.80886 11.9609 9.80061 12.2413 9.82535 12.5217C9.82535 12.5877 9.86659 12.6289 9.92432 12.6619C9.9738 12.6784 10.0315 12.6867 10.081 12.6867C10.1745 12.6922 10.2212 12.7417 10.2212 12.8351C10.2212 12.8351 10.2047 12.8929 10.1552 12.9011C10.048 12.9094 9.94082 12.9423 9.84185 13.0001C9.55319 13.1568 9.38824 13.4042 9.37174 13.7341C9.35525 14.0805 9.49546 14.3527 9.79237 14.5424C9.98206 14.6578 10.1965 14.6908 10.4109 14.6743C10.4604 14.6743 10.4934 14.6908 10.5181 14.732C10.6254 14.9547 10.7573 15.1527 10.9223 15.3259C10.9553 15.3698 10.9442 15.4001 10.8893 15.4166C10.4274 15.5485 9.95732 15.6722 9.49546 15.8042C9.19031 15.8867 8.8934 15.9774 8.58824 16.0599C8.48102 16.0929 8.42329 16.1506 8.42329 16.2496C8.42329 16.3485 8.48927 16.4145 8.60474 16.4393C8.60474 16.4393 8.61298 16.4393 8.62122 16.4475C9.18205 16.5547 9.39648 16.5877 9.39648 16.5877C9.76762 16.6372 10.1223 16.7362 10.4934 16.7939C10.5016 16.7939 10.5181 16.8021 10.5264 16.8104C10.5346 16.8269 10.5264 16.8434 10.5181 16.8681C10.4604 17.0248 10.3944 17.1815 10.3367 17.3465C10.2377 17.6186 10.1305 17.8908 10.0315 18.163C9.99855 18.2537 10.0233 18.3197 10.081 18.3692C10.1305 18.3856 10.1882 18.4021 10.2377 18.4269C10.246 18.4269 10.246 18.4269 10.2542 18.4269C10.3532 18.4021 10.4439 18.3609 10.5429 18.3197C11.046 18.1135 11.5491 17.9155 12.0439 17.7176C12.0687 17.7011 12.0851 17.7011 12.1016 17.7094C12.1264 17.7176 12.1429 17.7424 12.1429 17.7506C12.3243 18.1135 12.547 18.4516 12.7202 18.8145C12.7449 18.8558 12.7862 18.93 12.8604 18.963C12.9676 19.0125 13.1161 18.9795 13.1821 18.8887C13.2068 18.864 13.215 18.8393 13.215 18.831C13.347 18.4434 13.7511 17.9073 13.8336 17.7588C13.8583 17.7094 13.8831 17.7011 13.9408 17.7176C14.5016 17.9485 15.0707 18.1795 15.6398 18.4021C15.7223 18.4434 15.813 18.4681 15.8955 18.3939C15.9697 18.3279 15.9862 18.2784 15.9449 18.1712C15.8707 17.9485 15.78 17.7259 15.6975 17.4949C15.6233 17.2887 15.5408 17.0826 15.4666 16.8764C15.4418 16.8269 15.4501 16.8021 15.5078 16.7939C15.681 16.7692 15.846 16.7114 16.0192 16.7032C16.1016 16.6949 16.0192 16.6949 16.5635 16.6042C16.8769 16.5465 17.0336 16.5135 17.0419 16.5135C17.1656 16.497 17.2893 16.4722 17.413 16.4393C17.4872 16.4228 17.5449 16.3733 17.5532 16.2826C17.5614 16.2001 17.5202 16.1259 17.4377 16.0929C17.413 16.0764 17.3882 16.0681 17.3635 16.0599C17.2233 16.0186 17.0913 15.9856 16.9594 15.9444C16.3326 15.763 15.7058 15.5898 15.0872 15.4083C15.0322 15.3918 15.024 15.3616 15.0625 15.3176C15.2192 15.1362 15.3511 14.9382 15.4666 14.7238C15.4831 14.6826 15.5161 14.6661 15.5573 14.6661C15.6645 14.6661 15.7717 14.6661 15.879 14.6413C16.2006 14.5506 16.4233 14.3444 16.514 14.0228C16.613 13.7011 16.5388 13.4042 16.2996 13.1568C16.1759 13.0248 16.0192 12.9423 15.8377 12.9094C15.8047 12.9011 15.7717 12.9094 15.7635 12.8599C15.7388 12.7197 15.7553 12.6949 15.8955 12.6867C15.912 12.6867 15.9367 12.6949 15.9532 12.6867C16.0686 12.6702 16.1429 12.6207 16.1511 12.53C16.1759 12.2413 16.1759 11.9527 16.1594 11.664C16.1511 11.565 16.0769 11.499 15.9697 11.499C15.9202 11.4908 15.8707 11.499 15.813 11.499C15.78 11.499 15.7553 11.4826 15.7635 11.4413C15.7965 11.1032 15.8377 10.765 15.9367 10.4269C16.1346 9.75059 16.4728 9.14853 16.9346 8.62894C16.9759 8.58771 16.9924 8.57946 17.0419 8.61245C17.2398 8.73616 17.4542 8.74441 17.6522 8.6207C17.8501 8.51348 17.9573 8.34028 17.9491 8.10936C17.9408 7.83719 17.7594 7.59802 17.4955 7.53204ZM8.62948 8.32379C8.51402 8.32379 8.41504 8.21657 8.41504 8.10936C8.42329 8.01039 8.5305 7.90317 8.62122 7.90317C8.72019 7.90317 8.82741 8.01039 8.82741 8.11761C8.82741 8.21657 8.72845 8.32379 8.62948 8.32379ZM9.38 8.42276C9.38 8.42276 9.30577 8.35678 9.32226 8.32379C9.33051 8.2908 9.38824 8.31554 9.42948 8.31554C9.91608 8.30729 10.4027 8.29905 10.8893 8.31554C11.879 8.34853 12.6212 9.08255 12.7697 9.98152C12.7697 10.0475 12.7862 10.1217 12.7862 10.1877V11.4166C12.7862 11.4743 12.7779 11.499 12.712 11.499C12.3656 11.4908 12.0274 11.499 11.6893 11.499H10.6748C10.6171 11.499 10.6006 11.4826 10.6006 11.4248C10.5346 10.2867 10.1223 9.28049 9.38 8.42276ZM10.2625 14.2702C10.0893 14.2619 9.91608 14.1382 9.84185 13.9485C9.73464 13.7011 9.87483 13.396 10.1305 13.3135C10.1965 13.2887 10.213 13.297 10.213 13.363V13.5197C10.213 13.7506 10.2542 13.9815 10.3119 14.2042C10.3284 14.2537 10.312 14.2702 10.2625 14.2702ZM16.4315 16.1918C16.4315 16.1918 16.4315 16.2001 16.4645 16.2083C16.3408 16.2496 16.2336 16.2661 16.1181 16.2826L15.1532 16.4558C15.0047 16.4887 14.947 16.5877 15.0047 16.7444C15.0872 16.9836 15.1779 17.2228 15.2687 17.4619C15.3181 17.5774 15.3594 17.6929 15.4006 17.8083C15.4006 17.8331 15.4336 17.8578 15.4171 17.8743C15.3924 17.8908 15.3676 17.8743 15.3511 17.8661C14.947 17.7011 14.5511 17.5444 14.1553 17.3795C14.0645 17.3465 13.9738 17.3052 13.8748 17.2722C13.7511 17.2228 13.6769 17.2475 13.6027 17.3712C13.5037 17.5362 13.4047 17.7094 13.314 17.8826C13.215 18.0475 13.1243 18.2125 13.0254 18.3774C12.9924 18.4434 12.9841 18.4434 12.9429 18.3774C12.7614 18.0558 12.58 17.7259 12.3985 17.4042C12.3078 17.2393 12.2419 17.2228 12.0604 17.2887C11.5821 17.4867 11.0955 17.6846 10.6171 17.8743C10.6006 17.8826 10.5841 17.8991 10.5759 17.8826C10.5511 17.8661 10.5676 17.8413 10.5759 17.8166C10.6748 17.5609 10.7738 17.297 10.8645 17.0413C10.9058 16.9341 10.9553 16.8351 10.9882 16.7279C11.0295 16.5877 10.9717 16.4805 10.815 16.4558C10.5841 16.4145 10.3449 16.3733 10.1058 16.3238C9.93257 16.2991 9.76762 16.2661 9.60267 16.2331C9.57793 16.2331 9.54494 16.2331 9.52845 16.2001C9.57793 16.1836 9.61917 16.1753 9.66865 16.1588C10.2047 16.0104 10.7408 15.8537 11.2769 15.697C11.3099 15.6887 11.3346 15.697 11.3676 15.7217C11.7882 16.0269 12.2583 16.2083 12.7697 16.2413C13.3552 16.2908 13.9078 16.1588 14.4109 15.8537C14.4851 15.8125 14.5511 15.763 14.6171 15.7217C14.6501 15.697 14.6748 15.6887 14.7078 15.697C15.2851 15.8619 15.8542 16.0269 16.4315 16.1918ZM15.3759 13.5774C15.3346 14.3362 15.0047 14.9465 14.3944 15.4083C13.9656 15.7217 13.479 15.8702 12.9511 15.8619C11.8377 15.8372 10.9717 15.0867 10.6996 14.1547C10.6336 13.9073 10.6006 13.6599 10.6006 13.4042C10.6006 13.198 10.6089 12.9836 10.6006 12.7774C10.6006 12.7114 10.6171 12.6867 10.6913 12.6867C11.4583 12.6949 12.2254 12.6867 13.0006 12.6867C13.7759 12.6867 14.5264 12.6949 15.2934 12.6867C15.3594 12.6867 15.3759 12.7114 15.3759 12.7774C15.3759 13.0413 15.3841 13.3052 15.3759 13.5774ZM15.8542 13.3135C16.0522 13.3877 16.1841 13.5856 16.1759 13.7836C16.1676 13.9815 16.0274 14.1795 15.8377 14.2454C15.8047 14.2619 15.7717 14.2702 15.7388 14.2619C15.6563 14.2702 15.6563 14.2619 15.6728 14.1877C15.7388 13.9238 15.78 13.6516 15.7635 13.3712C15.7553 13.2805 15.7635 13.2805 15.8542 13.3135ZM15.7718 11.9527C15.7718 12.0434 15.7717 12.1341 15.78 12.2248C15.78 12.2743 15.7635 12.2908 15.714 12.2908C15.5408 12.2826 15.3594 12.2908 15.1779 12.2908H10.3037C10.2377 12.2908 10.2047 12.2578 10.2047 12.1918C10.2047 12.1094 10.213 12.0269 10.2047 11.9527C10.2047 11.9032 10.2212 11.8784 10.2707 11.8867H15.7058C15.7553 11.8867 15.7718 11.9032 15.7718 11.9527ZM16.6377 8.37327C16.0604 9.02482 15.6728 9.78358 15.4831 10.6331C15.4254 10.897 15.3924 11.1692 15.3759 11.4331C15.3759 11.4991 15.3429 11.499 15.3016 11.499H13.2645C13.2068 11.499 13.1903 11.4826 13.1903 11.4248C13.1903 11.0042 13.1903 10.5918 13.1903 10.1795C13.2068 9.77534 13.347 9.41245 13.5944 9.0908C13.8748 8.71967 14.2542 8.47224 14.7161 8.36503C14.8728 8.33204 15.0295 8.3073 15.1862 8.3073H16.6047C16.6047 8.3073 16.6625 8.29905 16.6707 8.32379C16.679 8.34853 16.6542 8.35678 16.6377 8.37327ZM17.3553 8.32379C17.2563 8.32379 17.1573 8.21657 17.1573 8.11761C17.1573 8.01039 17.2563 7.90317 17.3635 7.90317C17.4542 7.90317 17.5614 8.01863 17.5614 8.10936C17.5614 8.21657 17.4625 8.31554 17.3553 8.32379Z" fill="black"/>
<path d="M15.1531 16.4562C15.0046 16.4892 14.9469 16.5882 15.0046 16.7449C15.0871 16.984 15.1778 17.2232 15.2685 17.4624C15.318 17.5778 15.3592 17.6933 15.4005 17.8088C15.4005 17.8335 15.4335 17.8583 15.417 17.8747C15.3922 17.8912 15.3675 17.8747 15.351 17.8665C14.9469 17.7016 14.551 17.5449 14.1551 17.3799C14.0644 17.3469 13.9737 17.3057 13.8747 17.2727C13.751 17.2232 13.6768 17.2479 13.6026 17.3717C13.5036 17.5366 13.4046 17.7098 13.3139 17.883C13.2149 18.0479 13.1242 18.2129 13.0252 18.3778C12.9922 18.4438 12.984 18.4438 12.9428 18.3778C12.7613 18.0562 12.5799 17.7263 12.3984 17.4046C12.3077 17.2397 12.2417 17.2232 12.0603 17.2892C11.5819 17.4871 11.0953 17.6851 10.617 17.8747C10.6005 17.883 10.584 17.8995 10.5757 17.883C10.551 17.8665 10.5675 17.8418 10.5757 17.817C10.6747 17.5613 10.7737 17.2974 10.8644 17.0418C10.9056 16.9345 10.9551 16.8356 10.9881 16.7284C11.0294 16.5882 10.9716 16.4809 10.8149 16.4562C10.584 16.415 10.3448 16.3737 10.1056 16.3242C9.93244 16.2995 9.76749 16.2665 9.60254 16.2335C9.5778 16.2335 9.54482 16.2335 9.52832 16.2005C9.5778 16.184 9.61904 16.1758 9.66853 16.1593C10.2046 16.0108 10.7407 15.8541 11.2768 15.6974C11.3098 15.6892 11.3345 15.6974 11.3675 15.7222C11.7881 16.0273 12.2582 16.2088 12.7696 16.2418C13.3551 16.2912 13.9077 16.1593 14.4108 15.8541C14.485 15.8129 14.551 15.7634 14.617 15.7222C14.65 15.6974 14.6747 15.6892 14.7077 15.6974C15.285 15.8624 15.8541 16.0273 16.4314 16.1923C16.4314 16.1923 16.4314 16.2005 16.4644 16.2088C16.3407 16.25 16.2335 16.2665 16.118 16.283L15.1531 16.4562Z" fill="#B9AEAD"/>
<path d="M10.3121 14.2043C10.3286 14.2538 10.3121 14.2703 10.2626 14.2703C10.0894 14.2621 9.91621 14.1384 9.84198 13.9487C9.73477 13.7012 9.87497 13.3961 10.1306 13.3136C10.1966 13.2889 10.2131 13.2971 10.2131 13.3631V13.5198C10.2131 13.7507 10.2543 13.9817 10.3121 14.2043Z" fill="#B9AEAD"/>
<path d="M16.1758 13.7837C16.1675 13.9816 16.0273 14.1796 15.8376 14.2456C15.8046 14.2621 15.7717 14.2703 15.7387 14.2621C15.6562 14.2703 15.6562 14.2621 15.6727 14.1878C15.7387 13.9239 15.7799 13.6518 15.7634 13.3713C15.7552 13.2806 15.7634 13.2806 15.8541 13.3136C16.0521 13.3878 16.184 13.5858 16.1758 13.7837Z" fill="#B9AEAD"/>
<path d="M15.3758 12.7772C15.3758 13.0412 15.3841 13.3051 15.3758 13.5772C15.3346 14.336 15.0047 14.9463 14.3944 15.4082C13.9655 15.7216 13.4789 15.87 12.9511 15.8618C11.8377 15.837 10.9717 15.0865 10.6996 14.1546C10.6336 13.9071 10.6006 13.6597 10.6006 13.404C10.6006 13.1979 10.6088 12.9834 10.6006 12.7772C10.6006 12.7113 10.6171 12.6865 10.6913 12.6865C11.4583 12.6948 12.2253 12.6865 13.0006 12.6865C13.7758 12.6865 14.5264 12.6948 15.2934 12.6865C15.3594 12.6865 15.3758 12.7113 15.3758 12.7772Z" fill="#B9AEAD"/>
<path d="M15.7798 12.225C15.7798 12.2744 15.7633 12.2909 15.7139 12.2909C15.5407 12.2827 15.3592 12.2909 15.1778 12.2909H10.3036C10.2376 12.2909 10.2046 12.258 10.2046 12.192C10.2046 12.1095 10.2128 12.027 10.2046 11.9528C10.2046 11.9033 10.2211 11.8786 10.2706 11.8868H15.7056C15.7551 11.8868 15.7716 11.9033 15.7716 11.9528C15.7716 12.0435 15.7716 12.1342 15.7798 12.225Z" fill="#B9AEAD"/>
<path d="M17.5614 8.10951C17.5614 8.21672 17.4624 8.31569 17.3552 8.32394C17.2562 8.32394 17.1572 8.21672 17.1572 8.11776C17.1572 8.01054 17.2562 7.90332 17.3634 7.90332C17.4541 7.90332 17.5614 8.01878 17.5614 8.10951Z" fill="#B9AEAD"/>
<path d="M16.6708 8.32397C16.6708 8.32397 16.6543 8.35695 16.6378 8.37345C16.0605 9.025 15.6729 9.78376 15.4832 10.6332C15.4255 10.8972 15.3925 11.1693 15.376 11.4332C15.376 11.4992 15.343 11.4992 15.3018 11.4992H13.2647C13.2069 11.4992 13.1904 11.4827 13.1904 11.425C13.1904 11.0044 13.1904 10.592 13.1904 10.1796C13.2069 9.77551 13.3471 9.41263 13.5945 9.09098C13.875 8.71984 14.2543 8.47242 14.7162 8.3652C14.8729 8.33221 15.0296 8.30747 15.1863 8.30747H16.6049C16.6049 8.30747 16.6626 8.29922 16.6708 8.32397Z" fill="#B9AEAD"/>
<path d="M12.7861 10.1878V11.4167C12.7861 11.4744 12.7778 11.4992 12.7118 11.4992C12.3654 11.4909 12.0273 11.4992 11.6892 11.4992H10.6747C10.617 11.4992 10.6005 11.4827 10.6005 11.425C10.5345 10.2868 10.1222 9.28063 9.37988 8.42289C9.35514 8.3899 9.30565 8.35691 9.32215 8.32392C9.33039 8.29094 9.38813 8.31568 9.42937 8.31568C9.91596 8.30743 10.4026 8.29918 10.8892 8.31568C11.8788 8.34867 12.6211 9.08269 12.7696 9.98166C12.7696 10.0476 12.7861 10.1219 12.7861 10.1878Z" fill="#B9AEAD"/>
<path d="M8.82741 8.11776C8.82741 8.21672 8.72845 8.32394 8.62948 8.32394C8.51402 8.32394 8.41504 8.21672 8.41504 8.10951C8.42329 8.01054 8.5305 7.90332 8.62122 7.90332C8.72019 7.90332 8.82741 8.01054 8.82741 8.11776Z" fill="#B9AEAD"/>
</svg>
