<svg width="40" height="40" viewBox="0 0 40 40" fill="none" xmlns="http://www.w3.org/2000/svg">
<path d="M16.8918 35L16.2885 30.18C15.7563 30.0189 15.1813 29.7667 14.5635 29.4233C13.9446 29.0789 13.4185 28.71 12.9852 28.3167L8.53851 30.2083L5.43018 24.7917L9.27351 21.8933C9.22351 21.5933 9.18295 21.2833 9.15184 20.9633C9.11851 20.6433 9.10184 20.3328 9.10184 20.0317C9.10184 19.7517 9.11851 19.4572 9.15184 19.1483C9.18295 18.8394 9.22351 18.4917 9.27351 18.105L5.43018 15.21L8.53851 9.85667L12.9518 11.7167C13.4496 11.3022 13.9885 10.9283 14.5685 10.595C15.1463 10.2617 15.7091 10.0039 16.2568 9.82167L16.8902 5H23.1102L23.7118 9.85333C24.3507 10.0778 24.9152 10.335 25.4052 10.625C25.8952 10.915 26.4002 11.2783 26.9202 11.715L31.4618 9.85667L34.5702 15.2083L30.6002 18.2017C30.6913 18.5461 30.7424 18.8622 30.7535 19.15C30.7646 19.4378 30.7702 19.7211 30.7702 20C30.7702 20.2589 30.7591 20.5317 30.7368 20.8183C30.7157 21.1061 30.6668 21.4539 30.5902 21.8617L34.4968 24.7917L31.3885 30.2083L26.9202 28.285C26.4013 28.7217 25.8791 29.0956 25.3535 29.4067C24.828 29.7178 24.2807 29.965 23.7118 30.1483L23.1102 35H16.8918ZM18.3335 33.3333H21.5935L22.2085 28.82C23.0485 28.5978 23.8041 28.2928 24.4752 27.905C25.1485 27.5172 25.833 26.9861 26.5285 26.3117L30.6868 28.0833L32.3435 25.25L28.6952 22.51C28.8341 22.0356 28.9263 21.5989 28.9718 21.2C29.0163 20.8022 29.0385 20.4022 29.0385 20C29.0385 19.5778 29.0163 19.1778 28.9718 18.8C28.9274 18.4222 28.8352 18.0072 28.6952 17.555L32.4068 14.75L30.7502 11.9167L26.4968 13.7C25.9924 13.1456 25.3296 12.6261 24.5085 12.1417C23.6863 11.6583 22.9085 11.3378 22.1752 11.18L21.6668 6.66667H18.3435L17.8235 11.1483C16.9835 11.3272 16.2113 11.6161 15.5068 12.015C14.8035 12.4128 14.1035 12.96 13.4068 13.6567L9.25018 11.9167L7.59351 14.75L11.2085 17.45C11.0696 17.8233 10.9724 18.2289 10.9168 18.6667C10.8613 19.1044 10.8335 19.56 10.8335 20.0333C10.8335 20.4556 10.8613 20.875 10.9168 21.2917C10.9724 21.7083 11.0591 22.1139 11.1768 22.5083L7.59351 25.25L9.25018 28.0833L13.3752 26.3333C14.0296 26.9933 14.7085 27.5228 15.4118 27.9217C16.1163 28.3206 16.9096 28.6311 17.7918 28.8533L18.3335 33.3333ZM19.9552 24.1667C21.1174 24.1667 22.1024 23.7628 22.9102 22.955C23.718 22.1472 24.1218 21.1622 24.1218 20C24.1218 18.8378 23.718 17.8528 22.9102 17.045C22.1024 16.2372 21.1174 15.8333 19.9552 15.8333C18.7863 15.8333 17.7996 16.2372 16.9952 17.045C16.1907 17.8528 15.7885 18.8378 15.7885 20C15.7885 21.1622 16.1907 22.1472 16.9952 22.955C17.7996 23.7628 18.7863 24.1667 19.9552 24.1667Z" fill="url(#paint0_linear_81_60702)"/>
<path d="M16.8918 35L16.2885 30.18C15.7563 30.0189 15.1813 29.7667 14.5635 29.4233C13.9446 29.0789 13.4185 28.71 12.9852 28.3167L8.53851 30.2083L5.43018 24.7917L9.27351 21.8933C9.22351 21.5933 9.18295 21.2833 9.15184 20.9633C9.11851 20.6433 9.10184 20.3328 9.10184 20.0317C9.10184 19.7517 9.11851 19.4572 9.15184 19.1483C9.18295 18.8394 9.22351 18.4917 9.27351 18.105L5.43018 15.21L8.53851 9.85667L12.9518 11.7167C13.4496 11.3022 13.9885 10.9283 14.5685 10.595C15.1463 10.2617 15.7091 10.0039 16.2568 9.82167L16.8902 5H23.1102L23.7118 9.85333C24.3507 10.0778 24.9152 10.335 25.4052 10.625C25.8952 10.915 26.4002 11.2783 26.9202 11.715L31.4618 9.85667L34.5702 15.2083L30.6002 18.2017C30.6913 18.5461 30.7424 18.8622 30.7535 19.15C30.7646 19.4378 30.7702 19.7211 30.7702 20C30.7702 20.2589 30.7591 20.5317 30.7368 20.8183C30.7157 21.1061 30.6668 21.4539 30.5902 21.8617L34.4968 24.7917L31.3885 30.2083L26.9202 28.285C26.4013 28.7217 25.8791 29.0956 25.3535 29.4067C24.828 29.7178 24.2807 29.965 23.7118 30.1483L23.1102 35H16.8918ZM18.3335 33.3333H21.5935L22.2085 28.82C23.0485 28.5978 23.8041 28.2928 24.4752 27.905C25.1485 27.5172 25.833 26.9861 26.5285 26.3117L30.6868 28.0833L32.3435 25.25L28.6952 22.51C28.8341 22.0356 28.9263 21.5989 28.9718 21.2C29.0163 20.8022 29.0385 20.4022 29.0385 20C29.0385 19.5778 29.0163 19.1778 28.9718 18.8C28.9274 18.4222 28.8352 18.0072 28.6952 17.555L32.4068 14.75L30.7502 11.9167L26.4968 13.7C25.9924 13.1456 25.3296 12.6261 24.5085 12.1417C23.6863 11.6583 22.9085 11.3378 22.1752 11.18L21.6668 6.66667H18.3435L17.8235 11.1483C16.9835 11.3272 16.2113 11.6161 15.5068 12.015C14.8035 12.4128 14.1035 12.96 13.4068 13.6567L9.25018 11.9167L7.59351 14.75L11.2085 17.45C11.0696 17.8233 10.9724 18.2289 10.9168 18.6667C10.8613 19.1044 10.8335 19.56 10.8335 20.0333C10.8335 20.4556 10.8613 20.875 10.9168 21.2917C10.9724 21.7083 11.0591 22.1139 11.1768 22.5083L7.59351 25.25L9.25018 28.0833L13.3752 26.3333C14.0296 26.9933 14.7085 27.5228 15.4118 27.9217C16.1163 28.3206 16.9096 28.6311 17.7918 28.8533L18.3335 33.3333ZM19.9552 24.1667C21.1174 24.1667 22.1024 23.7628 22.9102 22.955C23.718 22.1472 24.1218 21.1622 24.1218 20C24.1218 18.8378 23.718 17.8528 22.9102 17.045C22.1024 16.2372 21.1174 15.8333 19.9552 15.8333C18.7863 15.8333 17.7996 16.2372 16.9952 17.045C16.1907 17.8528 15.7885 18.8378 15.7885 20C15.7885 21.1622 16.1907 22.1472 16.9952 22.955C17.7996 23.7628 18.7863 24.1667 19.9552 24.1667Z" fill="black" fill-opacity="0.73"/>
<defs>
<linearGradient id="paint0_linear_81_60702" x1="20.0019" y1="35.3411" x2="20.0019" y2="4.65894" gradientUnits="userSpaceOnUse">
<stop offset="0.2" stop-color="#918789"/>
<stop offset="0.55" stop-color="#BBB0AE"/>
<stop offset="0.83" stop-color="#D7CCC8"/>
<stop offset="1" stop-color="#E2D7D2"/>
</linearGradient>
</defs>
</svg>
