<svg width="341" height="73" viewBox="0 0 341 73" fill="none" xmlns="http://www.w3.org/2000/svg">
<g clip-path="url(#clip0_265_18149)">
<rect width="341" height="73" rx="1" fill="url(#paint0_linear_265_18149)"/>
<path d="M360 -79.0351L360 153.409C360 153.74 359.714 154 359.349 154L52.15 154L-19.1292 154C-19.4935 154 -19.7798 153.74 -19.7798 153.409L-19.7798 -79.0351C-19.7798 -79.3661 -19.4936 -79.6262 -19.1292 -79.6262L359.349 -79.6262C359.713 -79.6262 360 -79.3661 360 -79.0351ZM358.699 152.818L358.699 -78.444L-18.4786 -78.444L-18.4786 152.818L241.383 152.818L358.699 152.818Z" fill="#DFD4CF" fill-opacity="0.05"/>
<path d="M169.154 125.193C222.568 125.193 266.014 85.7212 266.014 37.1944C266.014 -11.3324 222.568 -50.804 169.153 -50.804C115.739 -50.804 72.2926 -11.3324 72.2926 37.1944C72.2927 85.7212 115.74 125.193 169.154 125.193ZM169.153 -48.4397C221.123 -48.4397 263.412 -10.0203 263.412 37.1944C263.412 84.409 221.123 122.829 169.154 122.829C117.184 122.829 74.8951 84.409 74.895 37.1944C74.895 -10.0203 117.184 -48.4397 169.153 -48.4397Z" fill="#DFD4CF" fill-opacity="0.05"/>
<path d="M79.0332 37.2052C79.0332 43.045 83.4442 49.7596 89.3386 49.9842C91.4205 50.067 93.5806 49.2867 95.5974 47.7381C96.7555 47.3008 99.566 46.5087 102.637 47.5726C104.393 48.1873 105.864 49.263 106.983 50.7762C107.907 54.429 109.221 57.9518 110.873 61.3209L88.8961 67.7045C88.4667 67.8345 88.1157 68.0946 87.9075 68.4611C87.6993 68.8275 87.6602 69.2413 87.8033 69.6196C87.9464 70.0215 88.2717 70.3643 88.701 70.5417C89.1304 70.719 89.6249 70.7308 90.0543 70.5653L111.42 62.4439C112.812 65.1155 114.426 67.6808 116.234 70.1278L95.6235 80.8735C95.2331 81.0745 94.9467 81.4055 94.8296 81.7956C94.7125 82.1857 94.7647 82.5995 94.999 82.9541C95.2332 83.3206 95.6233 83.5925 96.0918 83.687C96.5602 83.7816 97.0417 83.687 97.419 83.4505L116.924 71.1209C116.924 71.1209 116.937 71.0972 116.95 71.0854C118.824 73.497 120.893 75.7785 123.144 77.8945C123.066 77.9182 122.988 77.9536 122.923 78.0127L105.252 92.4466C104.914 92.7185 104.719 93.0968 104.693 93.5105C104.667 93.9125 104.823 94.3145 105.122 94.61C105.435 94.9292 105.89 95.1182 106.358 95.1182C106.827 95.1182 107.282 94.941 107.607 94.6337L123.833 78.8638C123.833 78.8638 123.938 78.7457 123.964 78.6748C126.254 80.7553 128.713 82.6822 131.315 84.4436C131.315 84.4436 131.289 84.4553 131.276 84.4671L117.327 101.951C116.781 102.637 116.95 103.594 117.705 104.091C118.082 104.339 118.564 104.434 119.032 104.351C119.5 104.268 119.904 104.008 120.138 103.642L132.343 85.141C134.985 86.8433 137.782 88.3564 140.697 89.6923L131.354 108.938C131.172 109.316 131.159 109.73 131.328 110.108C131.497 110.486 131.81 110.793 132.213 110.959C132.642 111.136 133.137 111.136 133.566 110.959C133.996 110.782 134.334 110.451 134.49 110.049L141.92 90.2478C145.927 91.9737 150.17 93.3332 154.568 94.2671C156.012 95.2483 157.066 96.4895 157.677 97.9436C158.914 100.887 157.899 103.5 157.495 104.339C155.791 106.183 154.919 108.145 155.023 110.037C155.283 115.404 162.674 119.399 169.102 119.399C175.53 119.399 182.908 115.392 183.168 110.037C183.246 108.145 182.4 106.171 180.695 104.339C180.214 103.299 179.342 100.745 180.513 97.9436C181.125 96.4777 182.179 95.2483 183.623 94.2671C187.969 93.3451 192.146 92.0093 196.102 90.3188L203.61 110.321C203.766 110.722 204.091 111.053 204.533 111.231C204.963 111.408 205.457 111.408 205.887 111.231C206.511 110.983 206.889 110.415 206.889 109.824C206.889 109.623 206.837 109.41 206.745 109.209L197.312 89.7868C200.239 88.4746 203.037 86.9615 205.678 85.2592C205.691 85.3065 205.704 85.3538 205.73 85.4011L217.949 103.913C218.183 104.28 218.599 104.54 219.055 104.623C219.523 104.705 220.005 104.623 220.382 104.363C220.746 104.126 220.981 103.772 221.059 103.37C221.072 103.287 221.085 103.204 221.085 103.121C221.085 102.802 220.981 102.495 220.759 102.223L206.811 84.7392C206.811 84.7392 206.707 84.6328 206.642 84.5973C209.283 82.8359 211.781 80.8972 214.097 78.8048C214.11 78.923 214.162 79.0413 214.253 79.1358L230.479 94.9055C230.805 95.2247 231.26 95.3902 231.728 95.3902C232.197 95.3902 232.652 95.201 232.965 94.8819C233.238 94.5981 233.394 94.2435 233.394 93.8652C233.394 93.8416 233.394 93.806 233.394 93.7824C233.368 93.3687 233.173 93.0023 232.834 92.7304L215.164 78.2964C215.06 78.2137 214.917 78.1664 214.787 78.1546C217.064 76.0267 219.172 73.7333 221.072 71.3099C221.098 71.3336 221.124 71.3691 221.163 71.3928L240.668 83.7224C241.058 83.9706 241.54 84.0535 242.008 83.9589C242.476 83.8643 242.867 83.5924 243.101 83.226C243.257 82.9896 243.322 82.7295 243.322 82.4694C243.322 81.9374 243.023 81.4173 242.476 81.1336L221.865 70.388C221.865 70.388 221.813 70.3761 221.8 70.3643C223.622 67.9291 225.262 65.3757 226.667 62.7041L248.058 70.8372C248.488 71.0027 248.982 70.9908 249.412 70.8135C249.841 70.6362 250.166 70.2933 250.309 69.8914C250.361 69.7377 250.388 69.584 250.388 69.4185C250.388 69.1821 250.323 68.9457 250.206 68.7211C249.997 68.3547 249.646 68.0946 249.217 67.9645L227.226 61.5809C228.944 58.1409 230.297 54.5237 231.247 50.7645C232.366 49.2513 233.823 48.1755 235.593 47.5608C238.651 46.4969 241.461 47.2889 242.619 47.7263C244.649 49.2749 246.809 50.0552 248.891 49.9724C254.799 49.736 259.197 43.0213 259.197 37.1816C259.197 31.3418 254.786 24.6392 248.891 24.4027C246.809 24.32 244.649 25.1002 242.619 26.6488C241.461 27.0862 238.664 27.8783 235.593 26.8143C232.939 25.8923 231.429 24.06 230.635 22.6768C229.738 19.6742 228.566 16.7779 227.174 13.988L249.204 7.59274C249.633 7.46271 249.984 7.20262 250.192 6.83616C250.323 6.61155 250.388 6.37517 250.388 6.13873C250.388 5.98506 250.361 5.83136 250.309 5.67768C250.166 5.27576 249.841 4.9329 249.412 4.75558C248.982 4.57826 248.488 4.56641 248.058 4.73192L226.628 12.8769C225.222 10.2052 223.609 7.62819 221.787 5.2048C221.813 5.2048 221.839 5.19295 221.865 5.18114L242.476 -5.56447C243.023 -5.84818 243.322 -6.36833 243.322 -6.90029C243.322 -7.16036 243.244 -7.42045 243.101 -7.65688C242.866 -8.02335 242.476 -8.29523 242.008 -8.3898C241.539 -8.48438 241.058 -8.38986 240.681 -8.15343L221.176 4.17635C221.176 4.17635 221.098 4.24723 221.059 4.2827C219.159 1.84749 217.051 -0.445786 214.761 -2.58546C214.904 -2.58546 215.06 -2.63274 215.177 -2.72731L232.847 -17.1613C233.186 -17.4332 233.381 -17.8115 233.407 -18.2134C233.407 -18.2371 233.407 -18.2725 233.407 -18.2961C233.407 -18.6744 233.251 -19.029 232.978 -19.3128C232.665 -19.6319 232.21 -19.8211 231.741 -19.8211C231.273 -19.8211 230.817 -19.6438 230.492 -19.3364L214.266 -3.56673C214.162 -3.46034 214.11 -3.34206 214.097 -3.21203C211.768 -5.31623 209.257 -7.24315 206.589 -9.00453C206.667 -9.03999 206.745 -9.09912 206.797 -9.17006L220.733 -26.6539C220.941 -26.914 221.058 -27.233 221.058 -27.5522C221.058 -27.635 221.058 -27.7178 221.032 -27.8006C220.967 -28.2025 220.72 -28.5571 220.356 -28.7935C219.978 -29.0418 219.497 -29.1363 219.029 -29.0536C218.56 -28.9708 218.157 -28.7108 217.923 -28.3443L205.704 -9.83197C205.665 -9.77287 205.64 -9.70203 205.627 -9.6311C202.972 -11.3216 200.187 -12.8465 197.26 -14.1586L206.719 -33.6284C206.81 -33.8294 206.863 -34.0422 206.863 -34.2432C206.863 -34.8342 206.485 -35.3899 205.861 -35.65C205.431 -35.8273 204.937 -35.8273 204.507 -35.65C204.078 -35.4727 203.74 -35.1417 203.584 -34.7397L196.05 -14.667C192.562 -16.1447 188.906 -17.374 185.107 -18.2725C184.027 -18.8635 181.58 -20.4831 180.5 -23.5212C179.459 -26.4057 180.253 -28.9235 180.695 -29.952C182.4 -31.7961 183.233 -33.7586 183.155 -35.65C182.895 -40.8987 175.543 -44.7997 169.089 -45.0125C167.684 -45.0597 162.791 -44.9652 158.848 -41.7971C157.547 -40.7568 155.14 -38.8063 154.997 -35.65C154.88 -32.8483 156.597 -30.7795 157.456 -29.9402C157.886 -28.8999 158.679 -26.3938 157.651 -23.5212C156.558 -20.4831 154.112 -18.8635 153.032 -18.2725C149.115 -17.3504 145.355 -16.0856 141.764 -14.537L134.282 -34.4797C134.126 -34.8816 133.8 -35.2125 133.358 -35.3898C132.929 -35.5671 132.434 -35.5553 132.005 -35.3898C131.588 -35.2243 131.276 -34.9288 131.12 -34.5387C130.964 -34.1604 130.964 -33.7467 131.146 -33.3684L140.554 -14.005C137.626 -12.6691 134.841 -11.1324 132.2 -9.43008C132.187 -9.47737 132.187 -9.52466 132.161 -9.57195L119.943 -28.0843C119.708 -28.4507 119.292 -28.7108 118.837 -28.7935C118.368 -28.8763 117.887 -28.7936 117.51 -28.5335C116.755 -28.037 116.586 -27.0794 117.132 -26.3938L131.081 -8.91002C131.081 -8.91002 131.172 -8.82715 131.224 -8.79169C128.583 -7.01848 126.097 -5.06802 123.794 -2.95199C123.794 -3.08202 123.729 -3.21212 123.625 -3.30669L107.399 -19.0764C107.074 -19.3956 106.618 -19.5729 106.15 -19.5611C105.681 -19.5611 105.226 -19.3719 104.914 -19.0527C104.615 -18.7454 104.459 -18.3552 104.485 -17.9533C104.511 -17.5395 104.706 -17.1732 105.044 -16.8895L122.714 -2.45544C122.832 -2.36087 122.987 -2.31359 123.131 -2.31359C120.853 -0.162094 118.758 2.14304 116.872 4.59006C116.833 4.53096 116.781 4.47185 116.716 4.43638L97.2108 -7.89339C96.8205 -8.14164 96.339 -8.22433 95.8706 -8.12976C95.4021 -8.03519 95.0117 -7.76331 94.7775 -7.39684C94.5563 -7.0422 94.4913 -6.62848 94.6085 -6.23837C94.7256 -5.84827 95.0117 -5.51723 95.402 -5.31627L116.013 5.42934C116.013 5.42934 116.117 5.46485 116.169 5.47667C114.361 7.91187 112.786 10.5008 111.394 13.1842L89.8332 4.99195C89.4038 4.82645 88.9093 4.83829 88.4799 5.01562C88.0505 5.19294 87.7253 5.5358 87.5821 5.93772C87.452 6.32783 87.4778 6.74156 87.686 7.10802C87.8942 7.47449 88.2455 7.73458 88.6749 7.86462L110.834 14.2954C109.52 16.9907 108.388 19.7924 107.529 22.6887C106.736 24.0718 105.239 25.8923 102.585 26.8262C99.5138 27.8901 96.7034 27.098 95.5453 26.6607C93.5285 25.1121 91.3684 24.3318 89.2865 24.4146C83.3791 24.6392 78.9811 31.3537 78.9811 37.2052L79.0332 37.2052ZM89.3907 25.5849C91.6287 25.5021 93.5804 26.6369 94.8166 27.6063C94.8686 27.6417 94.9208 27.6773 94.9859 27.7009C96.222 28.1856 99.501 29.1667 103.092 27.9255C106.163 26.8497 107.867 24.7573 108.752 23.1851C108.765 23.1496 108.791 23.126 108.791 23.0906C108.791 23.0669 108.804 23.0432 108.817 23.0196C114.634 3.33696 131.758 -12.0545 153.501 -17.1377C153.553 -17.1495 153.618 -17.1732 153.67 -17.1968C154.841 -17.8234 157.69 -19.6437 158.952 -23.1429C160.15 -26.4765 159.174 -29.3728 158.692 -30.4604C158.666 -30.5313 158.614 -30.5905 158.562 -30.6496C157.872 -31.3234 156.246 -33.1083 156.376 -35.579C156.493 -38.2388 158.562 -39.8938 159.798 -40.8868C163.377 -43.7712 167.84 -43.8539 169.128 -43.8066C174.996 -43.6057 181.723 -40.0475 181.931 -35.579C182.036 -33.5575 180.773 -31.7608 179.706 -30.6259C179.654 -30.5786 179.629 -30.5195 179.603 -30.4604C179.121 -29.3728 178.145 -26.4765 179.342 -23.1429C180.591 -19.6556 183.441 -17.8234 184.599 -17.1968C184.651 -17.1732 184.703 -17.1495 184.768 -17.1377C206.498 -12.0545 223.635 3.33696 229.464 23.0196C229.464 23.0196 229.477 23.0669 229.49 23.0906C229.49 23.1142 229.516 23.1496 229.529 23.1733C230.414 24.7455 232.132 26.8379 235.19 27.9136C238.781 29.1667 242.047 28.1738 243.283 27.6891C243.348 27.6655 243.4 27.6299 243.452 27.5944C244.701 26.6251 246.666 25.4903 248.904 25.573C254.005 25.774 257.961 31.9803 257.961 37.1699C257.961 42.3713 254.005 48.5775 248.904 48.7784C246.666 48.873 244.701 47.7264 243.452 46.757C243.4 46.7216 243.348 46.686 243.283 46.6624C242.047 46.1777 238.781 45.1966 235.19 46.4378C233.134 47.1471 231.429 48.4119 230.154 50.1969C230.102 50.2679 230.076 50.3507 230.063 50.4335C224.793 71.4637 206.459 88.2027 183.324 93.085C183.22 93.0968 183.116 93.1322 183.025 93.1913C181.307 94.3262 180.071 95.7684 179.342 97.4825C177.989 100.769 179.056 103.724 179.577 104.847C179.603 104.906 179.641 104.954 179.681 105.001C180.748 106.136 181.997 107.921 181.906 109.954C181.685 114.588 174.853 118.182 169.141 118.182C163.416 118.182 156.584 114.588 156.35 109.954C156.298 107.933 157.508 106.136 158.575 105.001C158.614 104.954 158.653 104.906 158.679 104.859C159.109 104.008 160.384 100.946 158.927 97.4825C158.198 95.7684 156.962 94.3262 155.244 93.1913C155.166 93.1441 155.062 93.1086 154.971 93.085C131.836 88.2027 113.489 71.4518 108.245 50.5161C108.245 50.3979 108.206 50.2915 108.141 50.1969C106.853 48.4237 105.161 47.1589 103.105 46.4378C99.514 45.1848 96.2351 46.1777 94.9989 46.6624C94.9339 46.686 94.8817 46.7216 94.8296 46.757C93.5805 47.7264 91.6288 48.8612 89.4037 48.7784C84.303 48.5775 80.3475 42.383 80.3474 37.1816C80.3474 31.9802 84.303 25.774 89.4037 25.573L89.3907 25.5849Z" fill="#DFD4CF" fill-opacity="0.05"/>
<path d="M123.169 37.751C122.752 41.4275 123.208 45.1866 124.496 48.6148C125.42 51.0973 127.358 56.2751 133.149 59.8451C137.391 62.4576 141.828 63.0724 144.977 63.096C146.07 64.6564 146.85 66.2405 147.579 67.7182C149.062 70.7327 150.377 73.3334 153.695 74.4092C154.801 77.3172 156.518 79.3978 158.822 80.5917C160.708 81.5729 162.296 81.6082 164.482 81.6555C165.77 81.6792 167.214 81.7148 169.14 81.9394C172.341 82.3058 173.824 82.8613 175.021 83.3106C176.205 83.7479 177.22 84.1263 179.146 84.1145C184.923 84.0672 192.249 80.6625 194.435 74.4208C194.904 73.0969 195.086 71.8202 195.086 70.6026C195.086 67.8364 194.123 65.4839 193.316 63.9589C193.732 63.8762 194.123 63.7935 194.474 63.7107C197.545 63.0606 198.794 62.8005 200.317 61.9257C204.819 61.2046 208.657 59.4314 211.39 56.8071C214.578 53.7572 215.358 50.0215 216.79 43.236C217.987 37.5854 218.832 33.5544 218.832 30.0434C218.832 27.4782 218.377 25.1848 217.284 22.7378C215.879 19.6287 213.68 16.8272 210.726 14.4156C210.362 13.3517 209.828 12.3705 209.021 11.4484C205.521 7.47642 199.276 7.38181 196.426 7.57096C195.567 4.15457 193.98 1.19914 191.664 -1.23607C185.301 -7.91515 174.722 -9.39283 167.605 -8.62444C162.374 -8.06883 158.47 -6.35472 157.156 -4.03774C157.026 -3.81313 156.883 -3.50576 156.713 -3.1393C156.076 -1.75619 155.1 0.33625 153.044 1.35289C152.315 1.71935 151.574 1.89663 151.574 1.89663C150.507 2.14488 149.804 2.02664 148.906 1.87296C148.269 1.76657 147.54 1.63662 146.629 1.66026C145.9 1.67208 143.363 1.84936 141.542 3.38614C139.46 5.1357 139.355 7.72468 139.46 9.09596C138.38 9.56882 137.3 10.1599 136.233 10.8692C131.145 14.2974 129.115 18.9195 128.321 21.6148C126.799 22.3713 122.726 24.7829 121.646 29.5587C120.787 33.3179 122.297 36.3797 123.156 37.7392L123.169 37.751ZM149.375 66.9971C147.865 63.9354 145.992 60.1289 141.411 56.9253C140.462 56.2633 139.577 55.7431 138.718 55.2466C136.883 54.1827 135.283 53.2606 133.552 51.1446C132.745 50.1516 131.249 48.0356 130.364 45.0802C129.805 43.2124 128.777 39.7487 130.325 36.025C130.859 34.7483 131.574 33.0106 133.604 31.8521C135.022 31.0483 136.506 30.859 137.625 30.859C137.3 32.5731 137.222 35.0202 138.965 37.219C140.787 39.5005 143.506 40.2216 145.159 40.4343C144.534 44.1226 144.703 47.0544 146.512 50.1043C147.553 51.842 148.893 53.2134 150.325 54.2891C150.559 56.0505 150.923 57.8118 151.47 59.5023C152.966 64.1599 155.712 69.1131 159.316 72.6831C157.637 73.1442 156.102 73.227 154.749 72.8723C151.925 72.1394 150.858 69.9879 149.388 66.9971L149.375 66.9971ZM169.335 1.5656C169.569 1.44738 169.738 1.23461 169.803 0.986358C170.038 0.0170057 170.597 -1.30688 171.924 -2.14619C173.056 -2.86729 174.279 -2.92647 174.813 -2.95011C178.17 -3.09196 185.795 -0.5504 193.004 7.06258C197.311 11.6138 200.16 14.6283 200.382 19.1795C200.486 21.4019 199.939 23.447 199.184 25.2084C195.411 23.7189 192.379 21.8511 190.167 19.6169C189.66 18.7539 188.983 17.8792 188.046 16.9807C187.448 16.0587 186.979 15.1131 186.485 14.1201C185.248 11.6494 183.96 9.08405 180.733 6.93256C178.456 5.40759 176.309 4.84017 175.281 4.56828C168.06 2.62957 160.955 5.15938 156.935 7.10991C157.481 5.58495 158.678 3.48071 161.242 2.204C164.442 0.619934 167.644 1.3647 168.554 1.6366C168.815 1.71934 169.101 1.68381 169.335 1.5656ZM173.447 53.8162C173.447 53.8162 173.434 53.8162 173.421 53.8162C173.356 53.8162 173.291 53.8162 173.226 53.8162C173.16 53.8162 173.096 53.8162 173.03 53.8162C173.03 53.8162 173.017 53.8162 173.004 53.8162C172.952 53.8281 172.9 53.8634 172.861 53.8753C172.809 53.8989 172.757 53.899 172.705 53.9344C171.209 54.8329 165.822 57.6581 159.056 56.2514C157.273 55.8849 151.235 54.2891 148.217 49.2414C147.189 47.5154 146.759 45.8131 146.759 43.8862C146.759 42.6568 146.928 41.3328 147.228 39.8551C147.228 39.8078 147.254 39.7724 147.254 39.7251C147.592 38.0228 148.087 36.1197 148.659 33.9091C150.429 27.0881 151.704 22.1585 156.258 19.9124C159.693 18.2101 164.143 18.3638 165.822 18.4229C166.407 18.4466 167.006 18.494 167.592 18.5531C165.614 19.1323 163.74 19.9361 162.1 21C155.243 25.4212 151.704 33.6962 153.682 40.6709C154.046 41.9712 155.178 45.9432 159.225 48.4848C163.18 50.9791 169.4 51.7711 172.77 49.3004C173.603 50.0451 174.787 50.8254 176.349 51.2628C179.797 52.244 182.802 50.9673 184.338 50.0925C184.26 50.2107 184.182 50.3408 184.091 50.459C183.089 51.8539 182.282 52.3976 182.022 52.5749C179.146 54.5373 175.412 54.1827 173.447 53.8044L173.447 53.8162ZM158.626 58.0011C160.175 58.3202 161.658 58.4384 163.05 58.4148C163.337 59.9634 164.052 61.9612 165.757 63.7462C168.476 66.5834 172.08 67.1626 173.824 67.4463C176.83 67.931 178.548 67.4936 183.115 66.3587C184.715 65.9568 186.693 65.4603 189.23 64.881C189.725 64.7628 190.193 64.6682 190.636 64.5618C190.232 66.0986 189.516 67.3517 188.462 68.2856C187.513 69.1249 186.771 69.3022 185.548 69.5978C184.442 69.8697 183.05 70.2007 181.111 71.1464C179.289 72.033 178.209 72.8605 177.246 73.5934C176.062 74.4918 175.204 75.142 173.382 75.603C173.174 75.6503 171.261 76.1114 169.257 75.9459C161.359 75.2957 155.425 65.4722 153.356 59.0295C153.018 57.9538 152.758 56.8543 152.55 55.7431C155.113 57.1617 157.572 57.8 158.652 58.0127L158.626 58.0011ZM185.6 17.2999C185.925 17.56 186.224 17.832 186.511 18.092C187.083 18.9668 187.76 19.7943 188.515 20.5745C189.36 22.0403 189.686 23.5889 189.425 25.1494C188.983 27.8328 186.979 30.1262 184.117 31.3438C184.091 31.2728 184.065 31.2018 184.039 31.1309C182.074 26.6033 176.83 23.6243 171.287 23.9081C163.87 24.2745 160.357 30.4335 160.318 30.4927C158.132 34.3937 157.689 40.1861 161.918 43.6852C164.781 46.0613 169.01 46.7588 173.03 45.6358C172.848 46.3569 172.536 46.9835 172.081 47.48C169.764 49.9388 163.857 49.265 160.331 47.0426C156.883 44.8675 155.894 41.392 155.569 40.2453C153.786 33.9563 157.013 26.4733 163.232 22.4659C165.822 20.7872 168.984 19.747 172.367 19.4397C172.367 19.4397 172.367 19.4397 172.38 19.4397C172.497 19.4279 172.601 19.3923 172.692 19.3568C172.718 19.345 172.757 19.3213 172.783 19.3095C172.848 19.2741 172.913 19.2268 172.965 19.1795C172.991 19.1559 173.017 19.1205 173.043 19.0968C173.096 19.0377 173.121 18.9786 173.16 18.9076C173.16 18.884 173.186 18.8723 173.199 18.8486C173.199 18.8368 173.199 18.8249 173.199 18.8131C173.199 18.8013 173.212 18.7894 173.212 18.7658C173.486 17.6073 174.123 16.0351 175.607 15.1367C178.613 13.328 183.323 15.5268 185.587 17.3354L185.6 17.2999ZM174.371 43.437C174.371 43.437 174.358 43.437 174.345 43.437C171.014 42.9051 168.177 40.4817 167.605 37.68C167.422 36.7579 167.162 34.4528 168.841 32.8451C169.817 31.9112 171.872 30.8 173.564 31.5448C174.527 31.9703 175.724 33.176 175.386 34.5236C175.151 35.4575 174.241 36.226 173.07 36.486C172.549 36.6043 172.224 37.0771 172.341 37.55C172.471 38.0228 172.991 38.3183 173.512 38.2119C175.398 37.7982 176.882 36.5097 177.285 34.9257C177.832 32.7624 176.218 30.7526 174.423 29.9606C171.964 28.873 169.075 30.0671 167.435 31.6393C165.822 33.1879 165.197 35.5167 165.705 38.011C166.251 40.6709 168.294 42.9996 171.04 44.2763C168.138 44.7137 165.275 44.0517 163.258 42.3849C159.264 39.0749 160.734 33.6962 162.074 31.2964C162.101 31.2491 165.106 25.9886 171.404 25.6813C176.114 25.4448 180.577 27.9628 182.23 31.793C184.052 36.0014 182.373 41.3447 178.717 43.0115C176.908 43.839 175.021 43.5434 174.384 43.4489L174.371 43.437ZM186.003 46.1087C185.327 47.1017 184.416 47.9528 183.375 48.5675C182.152 49.2767 179.693 50.3644 176.934 49.5842C175.672 49.2296 174.735 48.5793 174.071 47.9764C174.605 47.2198 174.943 46.3332 175.086 45.3166C176.205 45.3993 177.884 45.3757 179.589 44.5955C182.92 43.0824 184.923 39.335 184.923 35.4576C184.923 34.6655 184.832 33.8617 184.65 33.0696C188.254 31.6511 190.792 28.7903 191.351 25.4212C191.416 25.0075 191.468 24.5464 191.468 24.0617C191.468 23.7544 191.442 23.4235 191.403 23.0925C193.368 24.5228 195.71 25.7758 198.391 26.8397C197.376 28.6721 196.244 30.0552 195.658 30.7527C193.849 32.9278 192.496 33.708 191.299 34.3936C190.011 35.1384 188.788 35.8358 187.708 37.9282C186.641 39.9851 186.472 41.853 186.316 43.6499C186.238 44.4774 186.173 45.293 186.016 46.1205L186.003 46.1087ZM155.633 9.75789C155.633 9.75789 155.712 9.73421 155.764 9.72239C155.829 9.71056 155.881 9.69884 155.933 9.6752C155.959 9.6752 155.972 9.65152 155.998 9.6397L156.024 9.6397C159.043 7.9256 166.889 4.17826 174.735 6.28246C175.659 6.53072 177.585 7.05074 179.589 8.38657C182.217 10.1361 183.375 12.205 184.481 14.4038C181.67 12.8906 177.715 11.7321 174.553 13.6353C172.9 14.6283 172.041 16.1415 171.586 17.4655C169.725 17.0162 167.826 16.7443 165.913 16.6734C164.091 16.6143 159.238 16.4488 155.347 18.3757C150.025 21.0119 148.594 26.5324 146.785 33.5307C146.291 35.4221 145.848 37.1244 145.51 38.6966C144.248 38.5311 141.984 37.9874 140.566 36.1905C138.731 33.8972 139.525 31.1309 139.902 29.8069C140.761 26.8161 142.973 24.9602 144.222 24.1209C144.547 23.9081 144.677 23.5416 144.586 23.187C144.352 22.3595 143.376 18.0446 146.538 14.1436C149.739 10.1952 154.631 9.80518 155.581 9.76972L155.607 9.76972C155.62 9.76972 155.646 9.76972 155.659 9.76972L155.633 9.75789ZM192.574 73.8889C190.662 79.3386 184.221 82.3176 179.133 82.3531C177.598 82.3531 176.869 82.0929 175.763 81.6792C174.462 81.1945 172.848 80.5916 169.387 80.1897C167.37 79.9533 165.796 79.9178 164.534 79.8942C162.491 79.8469 161.255 79.8233 159.784 79.0549C158.171 78.2156 156.896 76.7971 155.972 74.8465C157.494 74.9411 159.134 74.6692 160.851 74.0663C163.297 76.0759 166.069 77.4353 169.049 77.6836C171.352 77.8727 173.46 77.3881 173.863 77.2817C176.101 76.7261 177.246 75.8513 178.469 74.9292C179.354 74.2554 180.369 73.487 182.009 72.6831C183.752 71.832 184.962 71.5365 186.029 71.2883C187.344 70.9691 188.489 70.6972 189.803 69.5269C190.857 68.593 191.624 67.3871 192.158 65.9922C192.991 67.99 193.628 70.839 192.561 73.8653L192.574 73.8889ZM188.736 63.1552C186.186 63.7462 184.195 64.2427 182.581 64.6447C178.079 65.7677 176.726 66.1104 174.149 65.6967C172.523 65.4366 169.491 64.952 167.227 62.5878C165.874 61.1692 165.275 59.585 165.015 58.3083C168.424 57.9418 171.131 56.8307 172.705 56.0268C173.148 57.0198 173.902 58.0956 175.164 58.8758C178.599 60.9682 183.076 59.0531 184.364 58.4266C185.769 57.7292 186.42 57.0672 187.109 56.3697C187.682 55.7786 188.267 55.1757 189.464 54.3955C191.052 53.367 191.963 53.1542 192.926 52.9296C193.824 52.7287 194.747 52.5158 196.009 51.7002C200.147 49.0758 201.813 44.0636 203.569 38.744L203.738 38.2237C204.142 36.9589 204.506 35.8714 205.469 34.5946C206.289 33.5189 207.356 32.5732 208.618 31.7811C207.824 36.8998 207.85 40.2215 207.877 42.9405C207.903 46.3923 207.928 48.674 206.12 52.3859C205.053 54.561 203.452 57.8473 199.744 60.1762C199.627 60.2471 199.523 60.3062 199.419 60.3653C199.419 60.3653 199.419 60.3653 199.406 60.3653C198.092 61.1337 197.089 61.3465 194.032 61.9967C192.691 62.2804 191 62.635 188.736 63.1552ZM215.475 23.4235C217.869 28.7549 216.868 33.4835 214.877 42.9169C213.406 49.8561 212.652 53.0242 209.971 55.6013C208.332 57.1735 206.224 58.4029 203.791 59.2422C205.938 57.0671 207.122 54.691 207.903 53.0952C209.893 49.0286 209.854 46.4634 209.828 42.9169C209.802 39.9498 209.763 36.2497 210.856 30.1853L210.973 29.5469C211.325 27.6673 211.728 25.4212 211.728 22.5722C211.728 21.863 211.702 21.1182 211.65 20.338C211.572 19.3686 211.507 18.4466 211.39 17.56C213.146 19.345 214.512 21.3073 215.462 23.4352L215.475 23.4235ZM207.499 12.5714C209.269 14.5928 209.464 17.1699 209.711 20.4445C209.997 24.18 209.477 26.9816 209.06 29.2395L209.021 29.476C206.874 30.54 205.144 31.8994 203.869 33.5662C202.724 35.0793 202.307 36.356 201.878 37.7037L201.709 38.2119C199.978 43.437 198.482 47.9528 194.904 50.2225C193.928 50.849 193.277 50.991 192.444 51.1801C191.403 51.4165 190.219 51.6884 188.333 52.9178C186.966 53.8162 186.264 54.5255 185.652 55.1521C185.014 55.8141 184.546 56.2868 183.44 56.8306C182.386 57.3507 178.782 58.9113 176.257 57.3745C175.555 56.9489 175.086 56.3697 174.761 55.7786C177.155 56.0151 180.447 55.8732 183.206 53.9936C184.104 53.3789 184.936 52.5395 185.743 51.4283C187.851 48.5202 188.059 46.1087 188.267 43.7681C188.424 42.054 188.567 40.4343 189.477 38.6611C190.323 37.0416 191.13 36.5688 192.353 35.8713C193.628 35.1384 195.203 34.2282 197.232 31.793C198.521 30.2326 202.359 25.6223 202.359 19.7352C202.359 19.5224 202.359 19.3096 202.346 19.0968C202.164 15.2667 200.355 12.4177 197.636 9.29684C200.316 9.24955 204.949 9.63966 207.512 12.5595L207.499 12.5714ZM142.882 4.6983C144.196 3.58708 146.135 3.45712 146.694 3.4453C147.384 3.43348 147.956 3.52808 148.555 3.62265C149.544 3.78815 150.585 3.96547 152.068 3.62265C152.107 3.62265 153.057 3.39793 154.007 2.91325C156.648 1.58926 157.832 -0.940422 158.522 -2.45356C158.665 -2.76092 158.782 -3.02102 158.899 -3.22198C159.888 -4.95972 163.402 -6.37824 167.852 -6.86292C174.501 -7.5722 184.351 -6.22457 190.206 -0.0774463C191.559 1.35294 192.613 3.00782 193.433 4.82832C185.535 -2.98563 177.819 -4.86517 174.735 -4.72332C174.097 -4.69968 172.419 -4.62868 170.831 -3.61204C169.387 -2.68996 168.619 -1.41335 168.19 -0.302132C166.511 -0.633133 163.415 -0.893143 160.318 0.643638C156.388 2.59417 155.126 6.02239 154.736 7.76014C152.315 7.24 147.006 6.50694 141.411 8.3629C141.411 7.27533 141.658 5.71492 142.895 4.68646L142.882 4.6983ZM129.596 23.0333C129.857 22.9151 130.052 22.7023 130.117 22.4422C130.755 20.0543 132.55 15.5741 137.404 12.3113C141.997 9.21414 147.085 8.81219 150.663 9.0368C148.763 9.7579 146.642 10.9991 144.938 13.1033C141.737 17.0516 142.192 21.3665 142.531 23.057C141.086 24.1327 139.017 26.1187 138.067 29.1095C136.636 29.0504 134.554 29.216 132.55 30.3626C129.974 31.8285 129.05 34.0744 128.491 35.4103C126.708 39.666 127.905 43.638 128.478 45.5531C129.44 48.7922 131.08 51.121 131.978 52.2085C133.93 54.5846 135.738 55.6367 137.651 56.7479C138.471 57.2208 139.317 57.7172 140.201 58.3319C141.542 59.2658 142.609 60.2588 143.506 61.2755C140.813 61.0863 137.456 60.3771 134.242 58.3911C128.998 55.1639 127.202 50.3644 126.343 48.0592C125.12 44.7729 124.704 41.1791 125.146 37.6682C125.172 37.4672 125.12 37.2663 125.003 37.1008C124.314 36.0841 122.791 33.3533 123.572 29.9488C124.6 25.4448 128.777 23.4116 129.596 23.0451L129.596 23.0333Z" fill="#DFD4CF" fill-opacity="0.05"/>
<path d="M85.8389 40.1611C85.8389 40.1611 85.8389 40.2439 85.8389 40.2793C85.8779 41.8516 86.8019 42.62 87.5696 42.9983C88.8838 43.6485 90.7704 43.5894 92.0456 42.8801C93.9714 41.8044 94.6348 41.2251 95.8189 40.173L95.9231 40.0785C96.1313 39.8893 96.3525 39.7002 96.5737 39.4992C97.5496 38.6363 98.5646 37.7378 99.2152 37.3595C99.2542 37.3595 99.3061 37.3241 99.3451 37.2886L99.3972 37.265L99.3972 37.1821L99.3972 37.1113L99.3581 37.0876C99.3581 37.0876 99.2672 37.0286 99.2282 37.0168C98.5776 36.6385 97.5626 35.74 96.5867 34.877C96.3655 34.6879 96.1573 34.4869 95.9361 34.2978L95.8319 34.2033C94.6348 33.1512 93.9844 32.5837 92.0586 31.4961C90.7834 30.775 88.8968 30.7278 87.5826 31.3779C86.8149 31.7562 85.8909 32.5363 85.8519 34.0968C85.8519 34.1322 85.8519 34.1796 85.8519 34.2151C85.8519 36.1538 87.1922 36.8984 88.2071 37.194C87.1922 37.4777 85.8519 38.2343 85.8519 40.173L85.8389 40.1611Z" fill="#DFD4CF" fill-opacity="0.05"/>
<path d="M243.357 34.7013C242.199 35.5879 240.963 36.4037 239.675 37.1366L239.454 37.2548L239.675 37.3848C241.119 38.2241 242.511 39.1698 243.8 40.1746C244.697 40.8839 245.569 41.6287 246.376 42.3971L246.493 42.5034L246.61 42.3971C247.716 41.3804 248.9 40.4112 250.137 39.5245C251.178 38.768 252.284 38.0468 253.416 37.3848L253.624 37.2666L253.416 37.1366C252.323 36.4746 251.255 35.7534 250.24 34.9969C248.978 34.063 247.782 33.0464 246.649 31.9825L246.532 31.8642L246.415 31.9825C245.465 32.94 244.437 33.8502 243.344 34.6895L243.357 34.7013Z" fill="#DFD4CF" fill-opacity="0.05"/>
<path d="M245.951 -57.8272L94.2444 -57.8272C93.5807 -65.3811 86.6195 -71.339 78.1357 -71.339C69.6519 -71.339 63.0157 -65.6411 62.0789 -58.3473C54.636 -58.3118 47.3494 -57.3661 40.4011 -55.5219C29.2368 -52.5666 19.6077 -47.9681 11.8266 -41.9983C10.0569 -42.6603 8.23535 -43.0622 6.38766 -43.1568C-2.62962 -43.6178 -8.88823 -36.9861 -10.0593 -35.6503C-15.8626 -29.0066 -16.5395 -18.6983 -11.621 -11.6764C-10.8012 -10.4943 -9.63002 -9.1703 -8.25076 -7.97634L-8.25074 7.26145C-11.5037 7.61609 -14.028 10.1104 -14.028 13.1485C-14.028 16.4348 -11.0872 19.1065 -7.46989 19.1065C-3.85257 19.1065 -0.911818 16.4348 -0.911821 13.1485C-0.911823 10.2286 -3.24114 7.80527 -6.29895 7.29695L-6.29896 -6.475C-4.11295 -5.02097 -1.64052 -4.13434 0.701633 -4.67813C2.41921 -5.06823 3.1347 -6.03759 4.4359 -7.78716C5.02143 -8.56737 5.75016 -9.54859 6.77811 -10.7898C7.3116 -11.44 12.2302 -17.2443 18.9444 -21.8428C21.5078 -23.5924 24.3052 -25.1528 27.298 -26.465C27.311 -26.465 27.324 -26.4769 27.337 -26.4887C30.0045 -27.2453 31.9563 -29.4794 31.9563 -32.151C31.9563 -35.4374 29.0156 -38.1091 25.3983 -38.1091C21.7809 -38.1091 18.8402 -35.4374 18.8402 -32.151C18.8402 -29.5385 20.7138 -27.3397 23.2902 -26.5359C21.3644 -25.5311 19.5037 -24.4436 17.7731 -23.2615C13.0238 -19.9988 9.14618 -16.1685 6.99921 -13.8634C6.10138 -18.0481 5.64601 -22.7886 6.726 -25.1765C6.93419 -25.6257 7.29865 -26.4531 8.15744 -26.8196C8.74297 -27.0678 9.93995 -27.1979 10.6296 -26.524C10.7857 -26.3585 10.9159 -26.1694 10.994 -25.9685C10.8248 -26.0039 10.6558 -26.0276 10.4866 -26.0276C9.31555 -26.0276 8.36551 -25.1647 8.36552 -24.1007C8.36552 -23.0368 9.31555 -22.1738 10.4866 -22.1738C11.0982 -22.1738 11.6446 -22.4103 12.022 -22.7886C12.048 -22.8122 12.0741 -22.824 12.1001 -22.8476C12.1391 -22.8949 12.1649 -22.9422 12.204 -22.9776C12.23 -23.0131 12.2561 -23.0486 12.2821 -23.0723C12.8026 -23.7579 13.076 -24.55 13.076 -25.3184C13.076 -26.1932 12.7377 -27.056 12.074 -27.7062C10.7598 -28.9947 8.70378 -28.983 7.35054 -28.4156C5.78911 -27.7654 5.17771 -26.4177 4.91747 -25.8266C3.23894 -22.1029 4.74818 -14.7972 5.41179 -12.0665C5.33372 -11.9719 5.2688 -11.8892 5.22976 -11.842C4.17579 -10.5652 3.434 -9.57228 2.83545 -8.76843C1.57329 -7.06615 1.19596 -6.6051 0.246087 -6.39231C-3.21509 -5.60028 -7.7954 -9.56047 -9.94238 -12.6222C-14.4315 -19.0412 -13.8068 -28.4746 -8.49793 -34.5508C-7.44396 -35.7684 -1.7579 -41.7974 6.30951 -41.3836C7.62372 -41.3127 8.91188 -41.0763 10.187 -40.6744C5.65889 -36.9506 1.8076 -32.7185 -1.27623 -28.0372C-3.51428 -24.6445 -5.34922 -21.0034 -6.74149 -17.2088C-6.96269 -16.5941 -6.59819 -15.9204 -5.92157 -15.7194C-5.24495 -15.5184 -4.50326 -15.8495 -4.28206 -16.4642C-2.95484 -20.0933 -1.19822 -23.5805 0.935741 -26.8196C9.17229 -39.3266 23.0689 -48.4647 41.1425 -53.2523C47.8307 -55.0255 54.8442 -55.9357 62.0137 -55.983C62.4041 -48.1927 69.4828 -41.9628 78.1488 -41.9628C86.8147 -41.9628 93.5808 -47.9209 94.2574 -55.4748L245.964 -55.4748C246.627 -47.9327 253.589 -41.9628 262.072 -41.9628C270.556 -41.9628 277.791 -48.169 278.207 -55.9357C285.377 -55.8884 292.403 -54.9782 299.091 -53.205C317.165 -48.4173 331.062 -39.2794 339.299 -26.7724C341.433 -23.5215 343.189 -20.046 344.516 -16.4168C344.738 -15.8021 345.479 -15.4593 346.156 -15.6721C346.702 -15.8376 347.041 -16.2986 347.041 -16.7951C347.041 -16.9133 347.015 -17.0434 346.975 -17.1734C345.583 -20.9681 343.749 -24.609 341.511 -28.0017C338.427 -32.683 334.575 -36.9151 330.047 -40.6389C331.322 -41.029 332.61 -41.2772 333.924 -41.3481C341.979 -41.7619 347.665 -35.7329 348.732 -34.5153C354.041 -28.4273 354.665 -19.0057 350.176 -12.5867C348.029 -9.51315 343.449 -5.55296 339.988 -6.35682C339.025 -6.58142 338.661 -7.03065 337.386 -8.73293C336.787 -9.53678 336.046 -10.5298 334.992 -11.8065C334.952 -11.8537 334.888 -11.9366 334.81 -12.0311C335.252 -13.8516 336.059 -17.6936 336.059 -21.1691C336.059 -22.9068 335.85 -24.5499 335.304 -25.7911C335.044 -26.3704 334.432 -27.7181 332.87 -28.3682C331.517 -28.9357 329.461 -28.9475 328.147 -27.659C326.898 -26.4296 326.833 -24.479 327.952 -23.0249C327.978 -22.9895 328.004 -22.9541 328.03 -22.9186C328.069 -22.8713 328.095 -22.824 328.134 -22.7886C328.16 -22.7649 328.186 -22.7531 328.212 -22.7294C328.603 -22.3511 329.149 -22.1147 329.748 -22.1147C330.919 -22.1147 331.869 -22.9776 331.869 -24.0416C331.869 -25.1055 330.919 -25.9685 329.748 -25.9685C329.566 -25.9685 329.396 -25.9449 329.227 -25.9094C329.305 -26.1104 329.423 -26.3113 329.592 -26.465C330.281 -27.1388 331.478 -27.0088 332.064 -26.7606C332.923 -26.4059 333.3 -25.5666 333.495 -25.1174C334.562 -22.7294 334.107 -17.9891 333.222 -13.8044C331.075 -16.1095 327.198 -19.9514 322.448 -23.2023C320.718 -24.3963 318.857 -25.4839 316.931 -26.4769C319.507 -27.2807 321.381 -29.4795 321.381 -32.092C321.381 -35.3784 318.44 -38.0499 314.823 -38.0499C311.206 -38.0499 308.265 -35.3784 308.265 -32.092C308.265 -29.4204 310.23 -27.1743 312.897 -26.4295C312.897 -26.4295 312.91 -26.4177 312.923 -26.4059C315.903 -25.0937 318.713 -23.5334 321.264 -21.7838C327.978 -17.1853 332.897 -11.3809 333.43 -10.7307C334.458 -9.48943 335.187 -8.52017 335.772 -7.72814C337.074 -5.97857 337.789 -5.02104 339.507 -4.61911C341.836 -4.08715 344.308 -4.97377 346.507 -6.41598L346.507 7.35597C343.449 7.86429 341.12 10.2878 341.12 13.2076C341.12 16.494 344.061 19.1655 347.678 19.1655C351.296 19.1655 354.236 16.494 354.236 13.2076C354.236 10.1577 351.699 7.67525 348.459 7.32061L348.459 -7.91718C349.825 -9.11114 350.996 -10.4351 351.829 -11.6173C354.028 -14.7618 355.108 -18.5683 355.108 -22.4102C355.108 -27.1388 353.468 -31.9265 350.268 -35.6029C349.109 -36.9387 342.838 -43.5705 333.821 -43.1095C331.973 -43.0149 330.151 -42.613 328.381 -41.951C320.6 -47.9326 310.971 -52.5194 299.807 -55.4748C292.859 -57.3189 285.572 -58.2527 278.116 -58.2999C277.205 -65.6292 270.361 -71.339 262.059 -71.339C253.758 -71.339 246.627 -65.3811 245.951 -57.8272ZM-2.85059 13.1603C-2.85059 15.4655 -4.91954 17.3451 -7.45687 17.3451C-9.9942 17.3451 -12.0631 15.4655 -12.0632 13.1603C-12.0632 10.8551 -9.9942 8.97549 -7.45687 8.97549C-4.91954 8.97549 -2.85059 10.8551 -2.85059 13.1603ZM20.792 -32.1392C20.792 -34.4444 22.8609 -36.324 25.3983 -36.324C27.9356 -36.324 30.0045 -34.4444 30.0045 -32.1392C30.0046 -29.834 27.9356 -27.9545 25.3983 -27.9545C22.8609 -27.9545 20.792 -29.834 20.792 -32.1392ZM310.204 -32.092C310.204 -34.3972 312.273 -36.2767 314.81 -36.2767C317.347 -36.2767 319.416 -34.3972 319.416 -32.092C319.416 -29.7868 317.347 -27.9072 314.81 -27.9072C312.273 -27.9072 310.204 -29.7868 310.204 -32.092ZM352.284 13.1958C352.284 15.501 350.216 17.3805 347.678 17.3805C345.141 17.3805 343.072 15.501 343.072 13.1958C343.072 10.8906 345.141 9.01099 347.678 9.01099C350.216 9.01099 352.284 10.8906 352.284 13.1958ZM78.1488 -44.3271C70.6669 -44.3271 64.5771 -49.8596 64.5771 -56.6569C64.577 -63.4542 70.6669 -68.9865 78.1487 -68.9865C85.6306 -68.9865 91.7201 -63.4542 91.7201 -56.6569C91.7201 -49.8596 85.6306 -44.3271 78.1488 -44.3271ZM275.631 -56.6451C275.631 -49.8478 269.541 -44.3153 262.059 -44.3153C254.578 -44.3153 248.488 -49.8478 248.488 -56.6451C248.488 -63.4424 254.578 -68.9747 262.059 -68.9747C269.541 -68.9747 275.631 -63.4424 275.631 -56.6451Z" fill="#DFD4CF" fill-opacity="0.05"/>
<path d="M16.7692 62.5255C20.0612 64.3815 23.8478 63.9441 26.3721 63.2821C27.6083 64.807 29.5729 66.5566 32.4095 67.124C38.0828 68.2589 43.8472 63.8613 45.9161 59.1328C46.5407 57.726 46.8529 56.201 46.8529 54.6169C46.8529 54.5933 46.8529 54.5697 46.8529 54.5461C47.6467 53.955 48.4274 53.2574 49.13 52.3945C49.9498 51.4015 50.5222 50.3612 50.9516 49.3209C51.6672 50.2548 52.526 51.0705 53.5149 51.7207C57.5486 54.3687 62.1938 53.5768 63.534 53.2694C63.9114 53.1866 64.1716 52.8793 64.1716 52.5246C64.1716 52.5246 64.1716 52.5128 64.1716 52.501C64.1716 52.1463 63.8726 51.839 63.4822 51.7681C61.6345 51.4489 58.876 50.645 56.3257 48.5999C54.2828 46.9685 53.0987 45.1244 52.396 43.5994L58.7327 42.5118C59.045 42.4645 59.2922 42.2518 59.3833 41.9799C59.4744 41.708 59.3834 41.4125 59.1622 41.2115L56.0521 38.469L64.7964 38.469C65.2649 38.469 65.6421 38.1261 65.6421 37.7006C65.6421 37.275 65.2649 36.9322 64.7964 36.9322L56.1433 36.9322L59.2794 34.296C59.4616 34.1541 59.5526 33.9414 59.5526 33.7286C59.5526 33.6459 59.5395 33.5748 59.5135 33.4921C59.4094 33.2084 59.1361 32.9956 58.8108 32.9602L52.2527 32.2036C52.9294 30.6314 54.1266 28.6454 56.3126 26.8958C58.876 24.8389 61.6215 24.035 63.4692 23.7276C63.8595 23.6567 64.1458 23.3611 64.1589 22.9947C64.1589 22.9947 64.1589 22.983 64.1589 22.9712C64.1589 22.6165 63.8983 22.3092 63.521 22.2264C62.1937 21.9191 57.5355 21.1269 53.5018 23.7749C52.5259 24.4133 51.6672 25.229 50.9515 26.1511C50.6132 24.9216 50.0799 23.7513 49.143 22.581C48.3103 21.5289 47.2431 20.6305 46.033 19.874C45.8508 17.7579 45.0571 14.1286 41.8562 11.1733C41.596 10.925 35.3504 5.25081 29.6511 7.66238C27.5952 8.52534 26.372 10.1212 25.6694 11.4807C24.3162 11.2206 22.8326 11.126 21.2451 11.3625C20.9589 11.4098 14.0758 12.4855 12.3322 17.6987C11.7206 19.5192 11.9548 21.2216 12.3452 22.4864C11.3823 22.9829 10.4975 23.6331 9.7949 24.437C7.54383 27.0377 7.86908 30.0994 8.11631 31.2815C7.14041 32.3809 4.746 35.6082 5.61781 39.6393C6.0472 41.6489 7.1404 43.1502 8.09027 44.1313C7.16643 47.4413 8.61075 50.905 11.6686 52.8674C11.6816 54.416 12.0978 59.9011 16.7431 62.5255L16.7692 62.5255ZM44.3414 58.5654C42.5197 62.7265 37.4322 66.5566 32.7739 65.6227C30.666 65.1971 29.1174 63.9558 28.0634 62.75C29.7029 62.1471 30.731 61.4024 31.7199 60.6813C32.956 59.7829 34.114 58.9436 36.5342 58.2343C37.6793 57.9033 38.33 57.8324 38.9806 57.7614C39.7353 57.6787 40.516 57.5842 41.8693 57.1113C42.5329 56.8749 43.7299 56.4493 45.0962 55.6927C44.9921 56.6975 44.7448 57.6669 44.3414 58.5654ZM41.2577 55.6809C40.0997 56.0946 39.4752 56.1655 38.7595 56.2483C38.0699 56.331 37.3021 56.4139 36.0139 56.7921C33.2944 57.5842 31.8893 58.6007 30.6531 59.4991C29.6252 60.2439 28.6622 60.9414 27.0097 61.497C24.9148 62.1827 20.9329 63.0693 17.6669 61.237C14.3619 59.381 13.6072 55.7045 13.438 53.7776C16.5999 54.9716 20.2433 54.4279 22.8717 52.3473C27.4128 53.0093 33.3985 52.5956 38.6293 51.047C44.3806 49.3447 48.4533 46.543 50.2879 43.0675C50.34 45.5737 50.0018 48.7536 47.7637 51.4844C45.5517 54.1796 42.4288 55.2789 41.2447 55.6927L41.2577 55.6809ZM11.0961 41.1288C11.3694 39.6393 12.2932 38.6226 13.0609 37.9961C13.1 38.2207 13.1128 38.4452 13.1778 38.658C13.4641 39.7929 13.9848 40.845 14.7135 41.8026C14.232 42.9965 13.7503 44.9235 14.453 46.9213C13.6723 46.5785 12.8004 46.0229 12.1238 45.1126C11.6944 44.557 10.7578 43.0439 11.1091 41.117L11.0961 41.1288ZM12.7226 28.8227C13.4773 28.338 14.271 28.1607 14.9476 28.1134C13.0348 30.5959 12.9046 34.367 12.9176 35.7973C12.241 35.3836 11.2911 34.6152 10.9268 33.3857C10.4193 31.6953 11.1481 29.8275 12.7226 28.8345L12.7226 28.8227ZM49.6764 37.8069C49.5983 39.0127 49.156 41.7198 46.8529 43.1502C45.6428 43.895 43.4308 44.5334 39.7354 43.3749C34.96 41.8736 32.4745 37.9133 30.0543 34.0832C27.621 30.2294 25.3179 26.5885 20.9068 25.9265C19.5536 25.7255 18.5128 25.8909 17.7841 26.1156C18.0053 25.5836 18.3045 25.1227 18.7079 24.7562C20.1652 23.4086 22.5855 23.4203 26.2549 23.8813C36.157 25.1225 41.1277 25.7491 44.6409 28.9409C47.1392 31.2106 48.8697 34.2723 49.6764 37.8069ZM17.9791 27.6761C18.7078 27.3687 19.6447 27.2859 20.6467 27.4277C24.264 27.9597 26.281 31.1396 28.5971 34.8279C28.8443 35.218 29.1044 35.6318 29.3646 36.0337L26.9706 36.0337C26.8145 35.1353 26.5152 34.4142 26.2809 33.9531C25.9036 33.2202 24.4593 30.7733 21.3884 29.9221C20.881 29.7803 19.8402 29.4846 18.617 29.662C17.3289 29.8511 16.1315 30.5249 15.1426 31.577C15.585 29.9575 16.4177 28.3381 17.9791 27.6761ZM19.4367 43.4103C18.6169 43.3039 17.9402 42.8902 17.3937 42.4291C18.1224 42.3109 18.9291 42.0627 19.6968 41.5425C21.9219 40.0412 22.2341 37.3578 21.5965 35.5018C20.998 33.7286 19.879 32.5937 18.4607 32.2981C17.8622 32.1681 17.2508 32.1918 16.6392 32.3454C17.3158 31.7071 18.0835 31.2934 18.8902 31.1751C19.723 31.0569 20.4905 31.2698 20.9068 31.3762C23.301 32.0382 24.4594 34.0005 24.7586 34.5915C25.097 35.2535 25.6303 36.6129 25.305 38.2088C24.7846 40.845 22.0521 43.7412 19.4367 43.3984L19.4367 43.4103ZM14.7262 36.8021C14.7262 36.8021 14.6483 36.7431 14.6223 36.7076C14.6223 36.5894 14.6223 36.483 14.6223 36.3647C14.6223 36.3647 14.6484 36.3647 14.6614 36.3411C15.6893 35.5727 16.7042 35.549 16.8864 35.7145C16.9905 35.7973 17.0815 36.2228 16.8994 36.7548C16.7432 37.2395 16.4178 37.6178 16.1055 37.6651C15.7412 37.7242 15.1295 37.4168 14.7262 36.7785L14.7262 36.8021ZM16.4178 39.1901C17.3807 39.0246 18.1615 38.2798 18.5128 37.204C18.6169 36.8848 18.6819 36.5302 18.6819 36.1756C18.6819 35.5963 18.5127 35.029 18.0443 34.6152C17.6279 34.2487 17.0293 34.095 16.3657 34.1187C16.9512 33.8113 17.5628 33.6931 18.0573 33.7995C18.864 33.965 19.5406 34.7334 19.957 35.9629C20.4384 37.3696 20.1522 39.3082 18.6558 40.3131C17.771 40.9041 16.7821 40.9988 16.0925 40.9751C15.6371 40.3722 15.273 39.7339 15.0257 39.0482C15.4812 39.2137 15.9493 39.2728 16.3917 39.1901L16.4178 39.1901ZM17.4849 46.7321C16.4439 45.9283 16.2228 44.6042 16.2488 43.5521C16.9905 44.1905 17.9664 44.7697 19.1895 44.9234C22.8198 45.4081 26.294 41.9327 26.9706 38.4927C27.0357 38.1735 27.0618 37.8779 27.0748 37.5824L29.2868 37.5824C27.7123 41.4716 24.4333 47.1458 20.4777 47.4296C20.0092 47.465 18.5649 47.5596 17.4979 46.744L17.4849 46.7321ZM17.4328 48.4935C18.3306 48.8718 19.3845 49.0373 20.5946 48.9546C25.9555 48.5881 29.4689 41.4835 30.8221 38.1971C32.839 40.9988 35.3502 43.6113 39.1887 44.8171C42.78 45.9519 45.2525 45.5736 46.8659 44.8879C44.8751 46.8503 41.8954 48.4581 38.0959 49.5811C30.9133 51.6972 21.948 51.6144 18.5259 49.3801C18.0965 49.0964 17.732 48.8009 17.4197 48.4935L17.4328 48.4935ZM55.2065 49.7347C56.4556 50.7277 57.731 51.4606 58.9541 52.0044C57.5488 51.8507 55.9741 51.4253 54.5038 50.4677C53.2937 49.6757 52.2788 48.5763 51.5761 47.3114C51.6802 46.874 51.7582 46.4366 51.8233 45.9992C52.617 47.2405 53.6971 48.5407 55.2065 49.7465L55.2065 49.7347ZM56.8069 34.2723L53.411 37.1213C53.411 37.1213 53.411 37.1213 53.411 37.1332C53.3589 37.1805 53.3068 37.2396 53.2677 37.3105C53.2547 37.3342 53.2286 37.3577 53.2156 37.3814C53.1896 37.4405 53.1765 37.4996 53.1635 37.5706C53.1635 37.606 53.1375 37.6414 53.1375 37.6769C53.1375 37.8897 53.2418 38.0788 53.398 38.2206L56.82 41.247L51.9535 42.0863C51.9275 41.6252 51.9014 41.1997 51.8754 40.8096C51.7973 39.7693 51.6413 38.729 51.3941 37.7124C51.6413 36.3766 51.7585 35.0289 51.7975 33.6931L56.8069 34.2723ZM51.524 28.2671C52.2266 26.9549 53.2546 25.8319 54.5038 25.0162C55.9741 24.0587 57.5488 23.6331 58.9541 23.4794C57.731 24.0232 56.4426 24.7562 55.2065 25.7492C53.567 27.0613 52.4219 28.5035 51.6152 29.8393C51.5501 29.3428 51.4852 28.87 51.4201 28.3971C51.4591 28.3499 51.498 28.3144 51.524 28.2671ZM30.3926 9.05736C35.0248 7.10683 40.6332 12.2018 40.6852 12.2491C43.0144 14.4006 43.8992 16.9895 44.2375 18.8927C44.1074 18.8336 43.9772 18.7626 43.8471 18.7035C42.3897 18.1243 41.4398 18.0417 40.5159 17.9589C39.8003 17.8998 39.0456 17.8289 37.9526 17.5097C36.248 17.0014 35.4935 16.4102 34.5176 15.6536C33.7239 15.0389 32.8261 14.3296 31.2776 13.5494C30.3278 13.0647 28.9875 12.391 27.361 11.8945C27.9596 10.8424 28.9092 9.6839 30.3926 9.05736ZM13.9717 18.1361C15.416 13.8331 21.4797 12.8875 21.5447 12.8756C25.3442 12.3082 28.6751 13.9986 30.4577 14.8971C31.85 15.6063 32.6568 16.2211 33.4245 16.824C34.4524 17.616 35.4154 18.3726 37.4323 18.9755C38.7074 19.3538 39.5792 19.4247 40.3599 19.4956C41.2187 19.5665 41.9603 19.6375 43.1704 20.1222C45.0702 20.8787 46.6707 22.0372 47.8027 23.4676C49.3642 25.4299 49.6113 27.3687 49.9496 30.064C50.1057 31.3052 50.171 32.5582 50.1319 33.8113C49.117 31.5179 47.6726 29.4847 45.864 27.8416C41.9474 24.2833 36.7815 23.6331 26.5151 22.3446C24.5112 22.0963 22.5727 21.9308 20.8811 22.1909C20.777 22.0254 20.6207 21.8953 20.4125 21.8362C18.2265 21.1624 15.9625 21.2215 13.9456 21.8362C13.6594 20.8196 13.5163 19.5074 13.9847 18.1361L13.9717 18.1361ZM11.1479 25.3826C12.8134 23.4557 15.6241 22.5692 18.4477 22.983C18.1224 23.1721 17.7972 23.3967 17.5109 23.6686C16.6911 24.4133 16.1707 25.4063 15.8974 26.5766C14.8304 26.5057 13.2431 26.6122 11.7597 27.5579C10.8359 28.1489 10.1331 28.9764 9.67768 29.8985C9.61262 28.6809 9.82067 26.9312 11.1609 25.3826L11.1479 25.3826ZM7.30942 39.3438C6.65882 36.3411 8.1814 33.8586 9.11826 32.6765C9.14428 33.0548 9.1962 33.4212 9.31331 33.7876C9.79475 35.3717 10.9137 36.3766 11.8245 36.9677C10.8616 37.7715 9.78187 39.0481 9.44356 40.8686C9.28742 41.7079 9.32646 42.4646 9.44356 43.1502C8.63682 42.3227 7.68677 41.0579 7.30942 39.3438ZM9.80794 44.4034C10.1072 45.1363 10.4715 45.6919 10.7187 45.9992C12.2801 48.0443 14.5703 48.7063 15.6112 48.9072C16.1057 49.4865 16.7432 50.1011 17.55 50.6213C18.3567 51.1532 19.4236 51.5671 20.6727 51.8862C18.3306 53.1511 15.377 53.1865 12.9958 51.8271C10.2373 50.2548 8.96216 47.2287 9.80794 44.3915L9.80794 44.4034Z" fill="#DFD4CF" fill-opacity="0.05"/>
<path d="M321.523 11.8611C318.231 10.0052 314.444 10.4425 311.92 11.1045C310.684 9.57958 308.719 7.83002 305.882 7.26259C300.209 6.12774 294.445 10.5253 292.376 15.2539C291.751 16.6842 291.452 18.2329 291.452 19.8406C290.658 20.4316 289.878 21.1409 289.175 22.0038C288.355 22.9968 287.77 24.0252 287.34 25.0655C286.625 24.1435 285.766 23.3161 284.777 22.6777C280.743 20.0297 276.085 20.8217 274.758 21.1291C274.367 21.2118 274.107 21.5428 274.12 21.8975C274.12 22.2521 274.419 22.5595 274.81 22.6304C276.658 22.9496 279.416 23.7534 281.966 25.7985C284.009 27.4298 285.193 29.2741 285.896 30.799L279.559 31.8865C279.247 31.9338 279 32.1467 278.908 32.4185C278.817 32.6904 278.909 32.9859 279.13 33.1868L282.227 35.9295L273.483 35.9295C273.014 35.9295 272.637 36.2723 272.637 36.6979C272.637 37.1235 273.014 37.4663 273.483 37.4663L282.135 37.4663L279 40.1025C278.752 40.3034 278.674 40.6225 278.766 40.9062C278.87 41.1899 279.143 41.4028 279.468 41.4383L286.026 42.1949C285.349 43.7671 284.152 45.7531 281.966 47.5027C279.403 49.5478 276.658 50.3633 274.81 50.6707C274.419 50.7416 274.133 51.0372 274.12 51.4036C274.094 51.7701 274.367 52.0893 274.758 52.172C276.085 52.4794 280.73 53.2714 284.777 50.6234C285.753 49.985 286.612 49.1695 287.327 48.2474C287.665 49.4768 288.199 50.647 289.136 51.8173C289.969 52.8695 291.036 53.7679 292.246 54.5245C292.428 56.6405 293.222 60.2697 296.423 63.225C296.683 63.4733 302.929 69.1475 308.628 66.7359C310.684 65.873 311.907 64.2771 312.61 62.9177C313.963 63.1777 315.459 63.2723 317.047 63.0358C317.333 62.9885 324.216 61.901 325.96 56.7114C326.233 55.9076 326.337 55.1274 326.337 54.3945C326.337 53.4724 326.168 52.6213 325.947 51.9238C326.91 51.4273 327.795 50.7771 328.497 49.9733C330.748 47.3844 330.41 44.3226 330.176 43.1287C331.009 42.1948 332.856 39.7241 332.856 36.5205C332.856 35.9531 332.804 35.3739 332.674 34.771C332.245 32.7614 331.152 31.2482 330.202 30.2788C331.113 26.9806 329.681 23.5051 326.623 21.5428C326.623 19.9232 326.22 14.521 321.549 11.8848L321.523 11.8611ZM293.95 15.8213C295.772 11.6601 300.86 7.83004 305.518 8.76393C307.626 9.1895 309.174 10.4307 310.228 11.6364C308.589 12.2393 307.561 12.9841 306.572 13.7052C305.336 14.6036 304.178 15.443 301.758 16.1405C300.612 16.4715 299.962 16.5424 299.311 16.6252C298.557 16.7079 297.776 16.8024 296.423 17.2753C295.772 17.5117 294.562 17.9374 293.196 18.6939C293.3 17.7009 293.547 16.7197 293.95 15.8213ZM297.034 18.7056C298.192 18.2919 298.817 18.221 299.533 18.1382C300.222 18.0555 300.99 17.9728 302.278 17.5945C304.998 16.8024 306.403 15.7858 307.639 14.8873C308.667 14.1426 309.63 13.4452 311.282 12.8896C313.377 12.1921 317.359 11.3173 320.625 13.1496C323.904 15.0056 324.685 18.6703 324.854 20.5972C321.692 19.4032 318.048 19.9469 315.42 22.0275C310.879 21.3655 304.894 21.7792 299.663 23.3278C293.911 25.0301 289.838 27.8318 288.004 31.3073C287.952 28.8011 288.29 25.6212 290.528 22.8904C292.753 20.1952 295.863 19.0958 297.047 18.6821L297.034 18.7056ZM327.196 33.2578C326.923 34.7355 326.012 35.7521 325.244 36.3787C325.205 36.1659 325.179 35.9412 325.114 35.7284C324.828 34.6054 324.294 33.5298 323.566 32.5722C323.982 31.5556 324.203 30.5271 324.203 29.5577C324.203 28.8248 324.06 28.1273 323.826 27.4535C324.606 27.7963 325.478 28.3519 326.181 29.2622C326.61 29.8178 327.56 31.3309 327.196 33.2578ZM325.569 45.5639C324.815 46.0486 324.008 46.2259 323.331 46.2732C325.179 43.8616 325.374 40.2324 325.374 38.8611C325.374 38.7548 325.374 38.672 325.374 38.6011C326.051 39.0149 327.001 39.7833 327.365 41.0127C327.872 42.7032 327.144 44.5709 325.569 45.5758L325.569 45.5639ZM288.603 36.5797C288.681 35.3739 289.136 32.655 291.426 31.2364C292.636 30.4917 294.848 29.8532 298.544 31.0117C303.319 32.513 305.804 36.4732 308.224 40.3033C310.658 44.1571 312.961 47.7981 317.372 48.4601C318.725 48.6611 319.766 48.4955 320.508 48.2709C320.286 48.8029 319.987 49.264 319.584 49.6304C318.127 50.9781 315.707 50.9662 312.037 50.5052C302.135 49.2639 297.164 48.6375 293.651 45.4457C291.153 43.176 289.422 40.1143 288.616 36.5797L288.603 36.5797ZM320.313 46.6987C319.597 47.0061 318.647 47.0888 317.645 46.9469C314.028 46.415 312.011 43.2232 309.695 39.5467C309.448 39.1566 309.187 38.743 308.927 38.3411L311.321 38.3411C311.478 39.2395 311.777 39.9606 312.011 40.4217C312.493 41.3555 313.924 43.6251 316.904 44.4526C317.411 44.5945 318.452 44.8783 319.675 44.701C320.976 44.5118 322.173 43.8262 323.162 42.7741C322.72 44.4054 321.874 46.0249 320.313 46.6869L320.313 46.6987ZM318.855 30.9762C319.675 31.0826 320.352 31.4965 320.898 31.9575C320.169 32.0757 319.363 32.3358 318.595 32.8441C316.383 34.3454 316.058 37.0289 316.695 38.8848C317.476 41.1545 318.829 41.8756 319.831 42.0884C320.43 42.2184 321.054 42.1949 321.653 42.0412C320.976 42.6795 320.209 43.0933 319.402 43.2115C318.569 43.3297 317.801 43.1169 317.385 43.0105C314.991 42.3485 313.833 40.3862 313.533 39.7951C313.195 39.1213 312.675 37.7617 312.987 36.1777C313.507 33.5415 316.24 30.6453 318.855 30.9999L318.855 30.9762ZM323.566 37.5845C323.566 37.5845 323.644 37.6435 323.67 37.679C323.67 37.7972 323.67 37.9037 323.67 38.0219C323.67 38.0219 323.644 38.0219 323.631 38.0455C322.603 38.8139 321.601 38.8375 321.406 38.672C321.354 38.6247 321.288 38.4473 321.288 38.2109C321.288 38.0454 321.315 37.8445 321.393 37.6317C321.549 37.147 321.874 36.7688 322.173 36.7215C322.538 36.6624 323.149 36.9698 323.566 37.6082L323.566 37.5845ZM321.874 35.1847C320.911 35.3502 320.131 36.095 319.779 37.1708C319.519 37.9864 319.493 39.0976 320.247 39.7596C320.664 40.126 321.262 40.2798 321.926 40.2561C321.341 40.5635 320.729 40.6816 320.234 40.5752C319.428 40.4097 318.751 39.6414 318.335 38.4119C317.853 37.0052 318.14 35.0666 319.636 34.0617C320.534 33.4588 321.562 33.376 322.199 33.3997C322.642 33.9907 323.019 34.6409 323.266 35.3147C322.811 35.1492 322.342 35.0901 321.9 35.1729L321.874 35.1847ZM320.807 27.6545C321.848 28.4583 322.069 29.7823 322.043 30.8344C321.302 30.196 320.326 29.6169 319.103 29.4632C315.472 28.9785 311.998 32.4539 311.321 35.894C311.256 36.2131 311.23 36.5087 311.217 36.8042L309.005 36.8042C310.58 32.915 313.859 27.2408 317.814 26.9571C318.283 26.9216 319.727 26.827 320.794 27.6427L320.807 27.6545ZM320.846 25.8931C319.948 25.5148 318.894 25.3493 317.684 25.4321C312.323 25.7985 308.81 32.9032 307.457 36.1895C305.44 33.3878 302.929 30.7753 299.09 29.5695C295.499 28.4347 293.027 28.8129 291.413 29.4986C293.404 27.5362 296.384 25.9285 300.183 24.8055C307.366 22.6895 316.331 22.7723 319.753 25.0065C320.183 25.2902 320.547 25.5857 320.846 25.8813L320.846 25.8931ZM283.086 24.6518C281.836 23.6588 280.561 22.926 279.338 22.3822C280.743 22.5359 282.318 22.9614 283.788 23.9189C285.011 24.7227 285.987 25.7867 286.703 27.0753C286.599 27.5126 286.521 27.9618 286.455 28.3874C285.662 27.158 284.582 25.8576 283.086 24.6518ZM281.485 40.1143L284.881 37.2653C284.933 37.218 284.985 37.147 285.024 37.0879C285.037 37.0643 285.063 37.0407 285.076 37.0171C285.102 36.958 285.115 36.8988 285.128 36.8279C285.128 36.7924 285.154 36.757 285.154 36.7215C285.154 36.5088 285.05 36.3195 284.894 36.1777L281.472 33.1515L286.339 32.312C286.365 32.7731 286.39 33.1987 286.416 33.5889C286.494 34.6291 286.651 35.6694 286.898 36.6861C286.651 38.0219 286.521 39.3695 286.482 40.7054L281.485 40.1261L281.485 40.1143ZM286.768 46.1195C286.052 47.4553 285.05 48.5429 283.788 49.3704C282.318 50.3279 280.743 50.7654 279.338 50.9072C280.561 50.3634 281.849 49.6305 283.086 48.6375C284.738 47.3253 285.87 45.8831 286.677 44.5473C286.742 45.0438 286.807 45.5166 286.872 45.9895C286.833 46.0368 286.794 46.0722 286.768 46.1195ZM307.899 65.3174C303.267 67.2798 297.659 62.173 297.607 62.1257C295.278 59.9742 294.393 57.3853 294.055 55.4821C294.185 55.5412 294.315 55.612 294.445 55.6711C295.902 56.2504 296.852 56.3331 297.776 56.4159C298.491 56.475 299.246 56.5459 300.339 56.8651C302.044 57.3734 302.799 57.9646 303.774 58.7211C304.568 59.3359 305.466 60.045 307.014 60.8252C307.964 61.3099 309.305 61.9838 310.931 62.4803C310.332 63.5324 309.383 64.6909 307.899 65.3174ZM324.32 56.2504C322.889 60.5415 316.812 61.4992 316.76 61.511C312.961 62.0784 309.63 60.3878 307.847 59.4894C306.455 58.7801 305.648 58.1656 304.881 57.5627C303.853 56.7588 302.89 56.014 300.873 55.4111C299.598 55.0328 298.726 54.962 297.945 54.891C297.086 54.8201 296.344 54.7491 295.134 54.2645C293.235 53.5079 291.634 52.3493 290.502 50.9189C288.941 48.9566 288.693 47.0179 288.355 44.3226C288.199 43.0814 288.134 41.8283 288.173 40.5752C289.201 42.8685 290.632 44.9019 292.441 46.5569C296.358 50.1151 301.523 50.7653 311.803 52.0539C313.807 52.3021 315.745 52.4676 317.437 52.2075C317.541 52.373 317.697 52.503 317.893 52.5621C320.079 53.2241 322.343 53.1768 324.359 52.5621C324.646 53.5787 324.776 54.8909 324.32 56.2622L324.32 56.2504ZM327.144 49.0038C325.478 50.9307 322.668 51.8174 319.844 51.4036C320.17 51.2145 320.495 50.9899 320.781 50.718C321.601 49.9615 322.121 48.9803 322.395 47.81C323.462 47.881 325.049 47.7745 326.532 46.8288C327.456 46.2377 328.159 45.422 328.614 44.5C328.679 45.7176 328.471 47.4671 327.131 49.0038L327.144 49.0038ZM330.982 35.0429C331.633 38.0455 330.124 40.528 329.174 41.7101C329.148 41.3319 329.096 40.9653 328.978 40.587C328.497 39.003 327.378 37.9982 326.467 37.4071C327.43 36.6033 328.51 35.3265 328.862 33.506C328.94 33.1159 328.965 32.7377 328.965 32.383C328.965 31.9693 328.914 31.591 328.848 31.2246C329.655 32.0521 330.605 33.3051 330.982 35.031L330.982 35.0429ZM328.484 29.9833C328.185 29.2503 327.821 28.6948 327.573 28.3874C326.012 26.3423 323.722 25.6804 322.668 25.4794C322.199 24.9238 321.575 24.309 320.729 23.7652C319.922 23.2332 318.855 22.8196 317.606 22.5004C319.948 21.2355 322.902 21.1999 325.283 22.5594C328.042 24.1316 329.317 27.1461 328.471 29.9951L328.484 29.9833Z" fill="#DFD4CF" fill-opacity="0.05"/>
<path d="M341.43 60.7551C341.43 63.675 343.76 66.0983 346.817 66.6066L346.817 80.3786C344.631 78.9246 342.159 78.0379 339.817 78.5817C338.099 78.9718 337.384 79.9412 336.082 81.6908C335.497 82.471 334.768 83.4522 333.74 84.6816C333.207 85.3318 328.288 91.136 321.574 95.7346C319.024 97.4841 316.213 99.0446 313.233 100.357C313.233 100.357 313.22 100.369 313.207 100.38C310.54 101.137 308.575 103.371 308.575 106.043C308.575 109.329 311.516 112.001 315.133 112.001C318.75 112.001 321.691 109.329 321.691 106.043C321.691 103.43 319.818 101.231 317.241 100.428C319.18 99.4228 321.028 98.3354 322.758 97.1532C327.508 93.8905 331.385 90.0603 333.532 87.7551C334.43 91.9399 334.885 96.6804 333.805 99.0683C333.61 99.5175 333.233 100.345 332.374 100.711C331.788 100.96 330.591 101.09 329.902 100.416C329.746 100.25 329.616 100.061 329.537 99.8602C329.707 99.8957 329.876 99.9194 330.058 99.9194C331.229 99.9194 332.179 99.0564 332.179 97.9925C332.179 96.9286 331.229 96.0656 330.058 96.0656C329.446 96.0656 328.913 96.302 328.523 96.6685C328.496 96.6921 328.47 96.7039 328.444 96.7275C328.405 96.7748 328.379 96.8222 328.34 96.8695C328.314 96.905 328.288 96.9286 328.275 96.964C327.169 98.4299 327.221 100.369 328.47 101.598C329.785 102.887 331.84 102.875 333.194 102.307C334.755 101.657 335.367 100.309 335.627 99.7184C336.186 98.4771 336.395 96.8341 336.395 95.0963C336.395 91.609 335.575 87.7669 335.145 85.9583C335.223 85.8637 335.289 85.781 335.328 85.7337C336.382 84.457 337.123 83.464 337.722 82.6602C338.984 80.9579 339.362 80.4968 340.311 80.2722C343.773 79.4802 348.353 83.4404 350.5 86.5021C354.989 92.9212 354.364 102.343 349.055 108.431C348.001 109.648 342.302 115.677 334.248 115.264C332.946 115.193 331.645 114.956 330.37 114.554C334.898 110.831 338.75 106.61 341.834 101.917C344.072 98.5244 345.906 94.8835 347.299 91.0888C347.338 90.9706 347.364 90.8405 347.364 90.7105C347.364 90.214 347.026 89.753 346.479 89.5875C345.802 89.3865 345.061 89.7175 344.84 90.3323C343.512 93.9614 341.756 97.4487 339.622 100.688C331.385 113.195 317.488 122.333 299.415 127.12C292.596 128.929 285.466 129.839 278.179 129.851C277.529 122.285 270.567 116.304 262.07 116.304C253.574 116.304 246.638 122.262 245.962 129.816L94.2553 129.816C93.5917 122.274 86.6304 116.304 78.1466 116.304C69.6628 116.304 62.7143 122.262 62.0377 129.804C54.764 129.792 47.6334 128.882 40.8151 127.073C22.7545 122.285 8.84487 113.148 0.608292 100.64C-1.52567 97.3896 -3.2823 93.9141 -4.60952 90.2849C-4.83073 89.6702 -5.57242 89.3274 -6.24904 89.5402C-6.92566 89.7411 -7.29016 90.415 -7.06896 91.0297C-5.67668 94.8243 -3.84173 98.4654 -1.60367 101.858C1.48016 106.539 5.34447 110.771 9.85962 114.495C8.58445 114.885 7.28329 115.133 5.98209 115.204C-2.0593 115.618 -7.75838 109.589 -8.82537 108.372C-14.1342 102.284 -14.759 92.862 -10.2699 86.443C-8.12288 83.3694 -3.54258 79.4092 -0.0813977 80.2131C0.881487 80.4377 1.24582 80.8869 2.52099 82.601C3.11955 83.4049 3.86134 84.3978 4.91531 85.6746C4.95435 85.7218 5.01927 85.8047 5.09734 85.8992C4.43373 88.63 2.93752 95.9356 4.60305 99.6594C4.86329 100.239 5.47469 101.586 7.03612 102.236C8.38937 102.804 10.4454 102.816 11.7596 101.527C12.4232 100.877 12.7616 100.014 12.7616 99.1391C12.7616 98.3589 12.4882 97.5669 11.9547 96.8812C11.9286 96.8576 11.9156 96.8222 11.8896 96.7985C11.8505 96.7512 11.8247 96.704 11.7857 96.6567C11.7596 96.633 11.7335 96.6212 11.7075 96.5975C11.3172 96.231 10.7834 95.9946 10.1719 95.9946C9.00081 95.9946 8.05109 96.8576 8.05109 97.9215C8.05109 98.9854 9.00081 99.8484 10.1719 99.8484C10.3541 99.8484 10.5234 99.8248 10.6926 99.7894C10.6145 100.002 10.4973 100.191 10.3282 100.345C9.63855 101.019 8.44158 100.889 7.85604 100.64C6.99725 100.286 6.61978 99.4465 6.4246 98.9973C5.3446 96.6094 5.81298 91.8691 6.69779 87.6843C8.84476 89.9895 12.7224 93.8313 17.4717 97.0822C19.2023 98.2762 21.063 99.3638 22.9888 100.357C20.4124 101.161 18.5388 103.359 18.5388 105.972C18.5388 109.258 21.4796 111.93 25.0969 111.93C28.7142 111.93 31.6546 109.258 31.6546 105.972C31.6546 103.3 29.7031 101.066 27.0226 100.309C27.0096 100.309 26.9966 100.298 26.9835 100.286C24.0038 98.9736 21.193 97.4133 18.6427 95.6637C11.9285 91.0652 7.01017 85.2608 6.47668 84.6106C5.44874 83.3694 4.72 82.4001 4.13446 81.6199C2.83327 79.8703 2.11777 78.901 0.400196 78.5109C-1.92894 77.9789 -4.40138 78.8655 -6.6004 80.3077L-6.60041 66.5358C-3.5426 66.0275 -1.2136 63.604 -1.21361 60.6841C-1.21361 57.3978 -4.15404 54.7262 -7.77137 54.7262C-11.3887 54.7262 -14.3294 57.3978 -14.3294 60.6841C-14.3294 63.734 -11.7922 66.2167 -8.5522 66.5713L-8.55219 81.8089C-9.91844 83.0029 -11.0896 84.3269 -11.9224 85.509C-16.8279 92.5309 -16.151 102.839 -10.3607 109.495C-9.18961 110.831 -2.93099 117.462 6.08629 117.001C7.93398 116.907 9.75557 116.505 11.5252 115.843C19.3063 121.824 28.9351 126.411 40.0994 129.367C47.1519 131.234 54.5298 132.168 62.0507 132.192C62.7143 139.746 69.6756 145.704 78.1594 145.704C86.6432 145.704 93.5917 139.746 94.2683 132.192L245.975 132.192C246.638 139.746 253.6 145.704 262.083 145.704C270.567 145.704 277.503 139.769 278.179 132.239C285.713 132.227 293.091 131.281 300.143 129.414C311.308 126.458 320.936 121.86 328.718 115.89C330.487 116.552 332.309 116.954 334.157 117.049C343.161 117.51 349.433 110.878 350.604 109.542C353.805 105.877 355.444 101.09 355.444 96.3493C355.444 92.5074 354.364 88.7009 352.165 85.5564C351.345 84.3742 350.174 83.0502 348.795 81.8563L348.795 66.6185C352.048 66.2638 354.572 63.7696 354.572 60.7315C354.572 57.4451 351.632 54.7734 348.014 54.7734C344.397 54.7734 341.456 57.4451 341.456 60.7315L341.43 60.7551ZM319.739 106.043C319.739 108.348 317.671 110.228 315.133 110.228C312.596 110.228 310.527 108.348 310.527 106.043C310.527 103.738 312.596 101.858 315.133 101.858C317.67 101.858 319.739 103.738 319.739 106.043ZM29.6898 105.996C29.6898 108.301 27.6212 110.18 25.0839 110.18C22.5465 110.18 20.4776 108.301 20.4776 105.996C20.4776 103.69 22.5465 101.811 25.0839 101.811C27.6212 101.811 29.6898 103.69 29.6898 105.996ZM-12.3907 60.7078C-12.3907 58.4026 -10.3217 56.5231 -7.78439 56.5231C-5.24706 56.5231 -3.17811 58.4026 -3.17811 60.7078C-3.1781 63.013 -5.24705 64.8926 -7.78438 64.8926C-10.3217 64.8926 -12.3907 63.013 -12.3907 60.7078ZM78.1467 143.363C70.6648 143.363 64.575 137.831 64.575 131.033C64.5749 124.236 70.6648 118.704 78.1466 118.704C85.6285 118.704 91.718 124.236 91.718 131.033C91.718 137.831 85.6285 143.363 78.1467 143.363ZM262.057 143.363C254.576 143.363 248.486 137.831 248.486 131.033C248.486 124.236 254.576 118.704 262.057 118.704C269.539 118.704 275.629 124.236 275.629 131.033C275.629 137.831 269.539 143.363 262.057 143.363ZM352.595 60.7551C352.595 63.0603 350.526 64.9399 347.988 64.9399C345.451 64.9399 343.382 63.0603 343.382 60.7551C343.382 58.4499 345.451 56.5703 347.988 56.5703C350.526 56.5703 352.595 58.4499 352.595 60.7551Z" fill="#DFD4CF" fill-opacity="0.05"/>
<path d="M57.5894 70.7434C57.5894 73.1904 56.9646 79.0065 51.4996 83.1322C45.488 87.6716 38.2664 86.5841 36.1975 86.1349C29.4183 84.6927 26.1003 80.0351 25.8661 78.983C25.6319 77.9427 25.9182 77.1034 25.9572 77.0088C26.0613 76.7369 26.1784 76.5359 26.2435 76.4177C26.855 75.5548 27.74 75.1882 28.3776 75.0227C28.833 74.9045 29.3012 75.141 29.4183 75.5548C29.5484 75.9567 29.2883 76.3822 28.8328 76.5004C28.4685 76.595 27.9742 76.7961 27.6879 77.2098C27.6879 77.2335 27.6097 77.3517 27.5577 77.4935C27.5577 77.4935 27.3755 78.0373 27.5186 78.6757C27.6618 79.184 30.3942 83.3214 36.5749 84.6454C38.4486 85.0473 45.0068 86.0403 50.4068 81.9501C55.8067 77.8717 55.9498 71.9256 55.8717 70.1878C55.5984 64.5608 51.7078 59.3832 45.6963 56.6761C45.2799 56.4869 45.1107 56.0257 45.3189 55.6475C45.527 55.2692 46.0347 55.1156 46.451 55.3047C53.0091 58.2601 57.264 63.9461 57.5633 70.1287C57.5633 70.2942 57.5763 70.507 57.5763 70.7434L57.5894 70.7434Z" fill="#DFD4CF" fill-opacity="0.05"/>
<path d="M57.5881 6.62186C57.5881 6.85829 57.5881 7.0711 57.575 7.2366C57.2758 13.4192 53.0208 19.1053 46.4628 22.0607C46.0464 22.2498 45.5388 22.0961 45.3306 21.7178C45.1224 21.3395 45.2916 20.8785 45.708 20.6893C51.7065 17.9822 55.6102 12.8044 55.8834 7.17743C55.9615 5.45151 55.8184 -0.506413 50.4185 -4.58479C45.0185 -8.66317 38.4603 -7.68203 36.5866 -7.2801C30.4059 -5.95611 27.6735 -1.81857 27.5303 -1.31025C27.3872 -0.67189 27.5694 -0.128105 27.5694 -0.128105C27.6214 0.013752 27.6867 0.131989 27.7257 0.191095C27.9989 0.56938 28.4802 0.770267 28.8445 0.853018C29.3 0.971231 29.5601 1.39686 29.43 1.79879C29.2999 2.21254 28.8314 2.44891 28.389 2.33069C27.7514 2.16519 26.8668 1.7987 26.2812 0.971203C26.1771 0.817524 26.0731 0.604849 25.969 0.344778C25.9299 0.250208 25.6436 -0.589163 25.8778 -1.62945C26.112 -2.69337 29.43 -7.33924 36.2092 -8.78144C38.2781 -9.21884 45.5127 -10.3064 51.5113 -5.77876C56.9763 -1.6531 57.6011 4.163 57.6011 6.61003L57.5881 6.62186Z" fill="#DFD4CF" fill-opacity="0.05"/>
<path d="M32.8533 -0.68454C32.8533 -2.42772 31.2976 -3.8409 29.3789 -3.8409C27.4601 -3.8409 25.9048 -2.42772 25.9048 -0.68454C25.9048 1.05864 27.4601 2.47168 29.3789 2.47168C31.2976 2.47168 32.8533 1.05864 32.8533 -0.68454Z" fill="#DFD4CF" fill-opacity="0.05"/>
<path d="M312.504 77.7176C312.504 77.9659 312.478 78.2497 312.413 78.5334C312.179 79.5973 308.861 84.243 302.082 85.6852C300.013 86.1226 292.778 87.2103 286.78 82.6827C280.781 78.1551 280.625 71.5824 280.703 69.6792C281.002 63.4966 285.257 57.8104 291.815 54.8551C292.232 54.666 292.739 54.8197 292.947 55.198C293.155 55.5763 292.986 56.0373 292.57 56.2264C286.571 58.9335 282.668 64.1112 282.395 69.7382C282.304 71.4641 282.46 77.4222 287.86 81.5006C293.26 85.5789 299.817 84.5977 301.691 84.1957C307.872 82.8717 310.604 78.7343 310.747 78.226C310.891 77.5877 310.709 77.0439 310.709 77.0439C310.657 76.902 310.591 76.7838 310.552 76.7247C310.279 76.3464 309.798 76.1454 309.434 76.0626C308.978 75.9444 308.718 75.5189 308.848 75.117C308.978 74.7032 309.446 74.4667 309.889 74.5849C310.526 74.7504 311.411 75.1169 311.997 75.9444C312.101 76.0981 312.205 76.3109 312.309 76.571C312.335 76.6419 312.491 77.0911 312.491 77.7295L312.504 77.7176Z" fill="#DFD4CF" fill-opacity="0.05"/>
<path d="M312.508 -1.23755C312.508 -0.599199 312.352 -0.149866 312.326 -0.0789377C312.221 0.192955 312.104 0.393919 312.039 0.512133C311.428 1.37509 310.543 1.74148 309.905 1.90697C309.45 2.02519 308.981 1.78882 308.864 1.37507C308.734 0.961323 308.994 0.535694 309.45 0.429302C309.814 0.33473 310.309 0.133797 310.595 -0.279953C310.595 -0.303597 310.673 -0.421799 310.725 -0.563654C310.725 -0.563654 310.907 -1.10744 310.764 -1.74579C310.621 -2.25411 307.888 -6.39166 301.708 -7.71565C299.834 -8.11758 293.276 -9.11054 287.876 -5.02034C282.476 -0.941963 282.333 5.00414 282.411 6.74188C282.684 12.3689 286.575 17.5467 292.586 20.2538C293.003 20.4429 293.172 20.904 292.964 21.2823C292.755 21.6605 292.248 21.8143 291.832 21.6251C285.274 18.6698 281.019 12.9836 280.72 6.80105C280.628 4.8978 280.797 -1.67489 286.796 -6.20248C292.808 -10.7419 300.029 -9.65437 302.098 -9.20516C308.877 -7.76295 312.195 -3.10526 312.429 -2.05316C312.495 -1.75763 312.521 -1.4858 312.521 -1.23755L312.508 -1.23755Z" fill="#DFD4CF" fill-opacity="0.05"/>
<path d="M312.388 -1.11911C312.388 -2.86229 310.833 -4.27547 308.914 -4.27547C306.995 -4.27547 305.44 -2.86229 305.44 -1.11911C305.44 0.624073 306.995 2.03711 308.914 2.03711C310.833 2.03711 312.388 0.624073 312.388 -1.11911Z" fill="#DFD4CF" fill-opacity="0.05"/>
</g>
<defs>
<linearGradient id="paint0_linear_265_18149" x1="170.5" y1="0" x2="170.5" y2="73" gradientUnits="userSpaceOnUse">
<stop stop-color="#4F1515"/>
<stop offset="1" stop-color="#380C0C"/>
</linearGradient>
<clipPath id="clip0_265_18149">
<rect width="341" height="73" rx="1" fill="white"/>
</clipPath>
</defs>
</svg>
