<svg width="169" height="238" viewBox="0 0 169 238" fill="none" xmlns="http://www.w3.org/2000/svg">
<path d="M162.531 237.691H6.01562C2.69141 237.691 0 234.977 0 231.629V6.05859C0 2.71484 2.69141 0 6.01562 0H162.531C165.855 0 168.547 2.71484 168.547 6.05859V231.629C168.547 234.977 165.855 237.691 162.531 237.691Z" fill="white"/>
<mask id="mask0_2314_1088" style="mask-type:luminance" maskUnits="userSpaceOnUse" x="10" y="10" width="148" height="78">
<path d="M10.8281 10H157.828V88H10.8281V10Z" fill="white"/>
</mask>
<g mask="url(#mask0_2314_1088)">
<mask id="mask1_2314_1088" style="mask-type:luminance" maskUnits="userSpaceOnUse" x="11" y="10" width="147" height="78">
<path d="M157.68 87.7422C157.68 61.8438 157.687 35.9414 157.695 10.043C108.84 10.043 59.9766 10.043 11.125 10.0508C11.1016 35.5273 11.0781 61.0039 11.0547 86.4844C13.6211 75.0469 18.7969 58.1758 28.6641 49.1719C36.2187 42.2852 39.9922 38.8359 42.9453 37.4531C44.3164 36.8086 48.707 34.9141 52.3359 30.4805C53.0117 29.6641 53.5 28.9414 53.8047 28.4609C54.1211 28.8828 55.3359 30.4336 57.0078 30.4648C59.1836 30.5039 61.6133 27.9531 61.7344 24.1133C61.9883 24.6836 64.125 29.2266 68.9844 30.2539C71.3242 30.75 73.2891 30.2266 74.3047 29.8633C74.9648 29.3164 75.8398 28.4688 76.6445 27.2539C77.4297 26.0625 77.8594 24.9453 78.1055 24.1367H90.6523C90.7266 24.6016 91.3359 28.0273 94.457 29.7383C97.5078 31.4102 100.605 30.1367 101.559 29.7539C104.852 28.4258 106.246 25.6875 106.555 25.043C107.297 28.582 109.77 30.7734 111.945 30.6016C112.297 30.5703 113.43 30.4219 114.609 29.1016L118.367 32.2266C119.836 33.0977 121.898 34.3789 124.277 36.0469C127.066 37.9961 136.32 44.5664 143.59 54.0078C153.242 66.5469 156.473 80.3555 157.672 87.7266L157.68 87.7422Z" fill="white"/>
</mask>
<g mask="url(#mask1_2314_1088)">
<path d="M11.0547 10.043V87.7422H157.695V10.043H11.0547Z" fill="url(#paint0_linear_2314_1088)"/>
</g>
</g>
<path d="M158.07 227.844H10.5977C10.5977 182.512 10.5977 137.184 10.5977 91.8516C10.5977 64.4609 10.5977 37.0781 10.5977 9.69141H158.07C158.07 37.0352 158.07 64.3789 158.07 91.7266C158.07 137.102 158.07 182.469 158.07 227.844Z" stroke="#0E0E0E" stroke-width="0.75" stroke-linecap="round" stroke-linejoin="round"/>
<path d="M84.25 32.1211C84.1953 31.5 83.9414 29.3164 82.1328 27.4648C80.5117 25.8008 78.6094 25.4023 77.957 25.2891C78.0078 24.6367 78.0625 23.9844 78.1133 23.332C78.9688 22.9336 80.6875 21.9883 82.1094 20.0781C83.5586 18.1367 83.9687 16.1992 84.1055 15.2617C84.4414 16.4336 85.1875 18.4336 86.8789 20.3867C88.1875 21.8867 89.5742 22.8008 90.5312 23.332C90.5859 23.9844 90.6367 24.6367 90.6914 25.2891C90.2266 25.3359 87.2344 25.6797 85.4336 28.2969C84.375 29.8438 84.25 31.418 84.2344 32.1211H84.25Z" fill="white"/>
<path d="M53.0391 21.6758C53.875 21.4336 55.2461 21.1718 56.7969 21.5468C58.1562 21.8711 59.0703 22.5312 59.5898 22.9218C64.1484 26.3398 64.8242 28.9961 67.957 30.1953C68.3633 30.3515 71.2969 31.3203 74.25 29.9414C76.3359 28.9648 77.8203 26.7461 78.0547 24.3359C78.3828 20.8867 75.9844 17.4765 73.1992 16.8515C72.8789 16.7773 71.125 16.3867 69.6914 17.4609C69.5117 17.5937 68.4023 18.4492 68.2422 19.957C68.2188 20.1836 68.0391 22.125 69.5273 23.0703C70.3594 23.5937 71.4141 23.625 72.2539 23.2343C73.4492 22.6875 74.168 21.3164 73.9805 19.8437C74.2734 20.1679 74.6797 20.6718 75 21.3593C75.1563 21.6914 76.1797 23.9492 75.2031 26.1133C74.0195 28.7539 70.7852 29.2187 70.3516 29.2812C67.4648 29.6914 64.4648 28.1758 62.4961 25.4531" stroke="#0E0E0E" stroke-width="0.75" stroke-linecap="round" stroke-linejoin="round"/>
<path d="M78.1133 23.2422C78.6836 22.9648 79.5742 22.4609 80.4844 21.6367C83.3867 18.9883 83.918 15.3164 84.1563 13.6797C84.293 12.7578 84.4141 11.3867 84.2539 9.68359" stroke="#0E0E0E" stroke-width="0.75" stroke-linecap="round" stroke-linejoin="round"/>
<path d="M77.957 25.1992C78.668 25.3281 79.4414 25.5508 80.207 25.9414C83.6641 27.7031 84.1719 31.3945 84.25 32.0312" stroke="#0E0E0E" stroke-width="0.75" stroke-linecap="round" stroke-linejoin="round"/>
<path d="M115.621 21.6758C114.789 21.4336 113.414 21.1718 111.863 21.5468C110.504 21.8711 109.59 22.5312 109.074 22.9218C104.512 26.3398 103.84 28.9961 100.703 30.1953C100.297 30.3515 97.3672 31.3203 94.4102 29.9414C92.3242 28.9648 90.8399 26.7461 90.6094 24.3359C90.2774 20.8867 92.6797 17.4765 95.461 16.8515C95.7813 16.7773 97.5391 16.3867 98.9688 17.4609C99.1524 17.5937 100.262 18.4492 100.418 19.957C100.441 20.1836 100.621 22.125 99.1367 23.0703C98.3047 23.5937 97.2461 23.625 96.4063 23.2343C95.2149 22.6875 94.4922 21.3164 94.6797 19.8437C94.3867 20.1679 93.9844 20.6718 93.6602 21.3593C93.5039 21.6914 92.4844 23.9492 93.4571 26.1133C94.6446 28.7539 97.875 29.2187 98.3125 29.2812C101.199 29.6914 104.199 28.1758 106.164 25.4531" stroke="#0E0E0E" stroke-width="0.75" stroke-linecap="round" stroke-linejoin="round"/>
<path d="M90.707 25.1992C89.9922 25.3281 89.2188 25.5508 88.457 25.9414C85 27.7031 84.4883 31.3945 84.4141 32.0312" stroke="#0E0E0E" stroke-width="0.75" stroke-linecap="round" stroke-linejoin="round"/>
<path d="M114.914 28.5312C114.805 28.7852 114.211 30.0977 112.824 30.5312C111.352 30.9961 110.062 30.1406 109.523 29.7812C107.25 28.2734 107.027 25.4023 107.004 24.9375" stroke="#0E0E0E" stroke-width="0.75" stroke-linecap="round" stroke-linejoin="round"/>
<path d="M122.887 35.4452C122.242 35.0781 121.336 34.5234 120.317 33.7812C117.367 31.6367 115.067 29.9609 114.465 27.2343C113.918 24.7499 115.035 22.6562 115.231 22.3046C117.067 18.9882 120.914 18.4413 121.711 18.3515C125.289 17.9492 128.918 19.8359 131.192 23.1367" stroke="#0E0E0E" stroke-width="0.75" stroke-linecap="round" stroke-linejoin="round"/>
<path d="M130.695 40.5977C130.734 32.8789 128.844 26.8203 125.852 25.1484C124.313 24.293 122.754 24.2695 122.754 24.2695C122.234 24.2695 119.617 24.3086 117.961 26.4687C116.484 28.3945 116.852 30.6016 116.918 30.9766" stroke="#0E0E0E" stroke-width="0.75" stroke-linecap="round" stroke-linejoin="round"/>
<path d="M151.824 36.6992C152.215 36.5039 153.457 35.9258 154.801 36.2696C157.192 36.8789 157.465 39.7657 157.477 39.9766C157.621 41.8125 156.496 43.9492 154.352 44.7149C152.699 45.3008 151.109 44.836 150.262 44.586C147.52 43.7852 146.012 41.918 145.262 40.9727C142.859 37.9141 144.031 36.4258 141.57 34.2539C140.902 33.6602 139.555 32.461 137.484 32.1446C135.332 31.8086 134.445 32.7383 132.481 32.1914C130.555 31.6485 129.555 30.2344 129.301 29.836C129.18 29.6563 127.777 27.3985 129.098 25.125C129.367 24.6524 130.172 23.2813 131.977 22.8828C133.621 22.5313 135.43 23.1289 136.418 24.3086C137.266 25.3125 137.512 26.7305 136.852 27.8555C136.711 28.1016 136.262 28.8672 135.242 29.1758C134.387 29.4297 133.297 29.3164 132.547 28.7188C131.887 28.1836 131.77 27.5039 131.746 27.3008" stroke="#0E0E0E" stroke-width="0.75" stroke-linecap="round" stroke-linejoin="round"/>
<path d="M143.117 36.3437C142.801 32.9258 141.055 30.1132 138.496 29.1992C137.91 28.9882 136.996 28.7773 135.781 28.9258" stroke="#0E0E0E" stroke-width="0.75" stroke-linecap="round" stroke-linejoin="round"/>
<path d="M145.711 41.6485C145.246 41.5274 143.313 41.0782 141.66 42.1563C139.672 43.461 138.879 46.4844 140.102 49.3516" stroke="#0E0E0E" stroke-width="0.75" stroke-linecap="round" stroke-linejoin="round"/>
<path d="M147.066 51.9609C146.762 51.9453 146.125 51.9531 145.449 52.3047C144.352 52.8828 143.992 53.9414 143.926 54.1797" stroke="#0E0E0E" stroke-width="0.75" stroke-linecap="round" stroke-linejoin="round"/>
<path d="M158.055 90.7734C158.039 90.668 158.027 90.4805 157.996 90.2617C157.41 85.125 154.102 61.1406 134.379 43.6406C131.926 41.4688 128.125 38.4141 122.887 35.4453" stroke="#0E0E0E" stroke-width="0.75" stroke-linecap="round" stroke-linejoin="round"/>
<path d="M84.25 32.1211C84.1953 31.5 83.9414 29.3164 82.1328 27.4648C80.5117 25.8008 78.6094 25.4023 77.957 25.2891C78.0078 24.6367 78.0625 23.9844 78.1133 23.332C78.9687 22.9336 80.6875 21.9883 82.1094 20.0781C83.5586 18.1367 83.9687 16.1992 84.1055 15.2617C84.4414 16.4336 85.1875 18.4336 86.8789 20.3867C88.1875 21.8867 89.5742 22.8008 90.5312 23.332C90.5859 23.9844 90.6367 24.6367 90.6914 25.2891C90.2266 25.3359 87.2344 25.6797 85.4336 28.2969C84.375 29.8437 84.25 31.418 84.2344 32.1211H84.25Z" fill="black" stroke="black" stroke-width="0.5625" stroke-linecap="round" stroke-linejoin="round"/>
<path d="M115.621 21.6758C114.789 21.4336 113.414 21.1718 111.863 21.5468C110.504 21.8711 109.59 22.5312 109.074 22.9218C104.512 26.3398 103.84 28.9961 100.703 30.1953C100.297 30.3515 97.3672 31.3203 94.4102 29.9414C92.3242 28.9648 90.8399 26.7461 90.6094 24.3359C90.2774 20.8867 92.6797 17.4765 95.461 16.8515C95.7813 16.7773 97.5391 16.3867 98.9688 17.4609C99.1524 17.5937 100.262 18.4492 100.418 19.957C100.441 20.1836 100.621 22.125 99.1367 23.0703C98.3047 23.5937 97.2461 23.625 96.4063 23.2343C95.2149 22.6875 94.4922 21.3164 94.6797 19.8437C94.3867 20.1679 93.9844 20.6718 93.6602 21.3593C93.5039 21.6914 92.4844 23.9492 93.4571 26.1133C94.6446 28.7539 97.875 29.2187 98.3125 29.2812C101.199 29.6914 104.199 28.1758 106.164 25.4531" stroke="#0E0E0E" stroke-width="0.75" stroke-linecap="round" stroke-linejoin="round"/>
<path d="M90.5469 23.2422C89.4453 22.6953 88.6719 22.0859 88.1797 21.6367C84.8321 18.5938 84.5118 14.0703 84.3907 12.4063C84.3086 11.2656 84.3516 10.3203 84.4063 9.68359" stroke="#0E0E0E" stroke-width="0.75" stroke-linecap="round" stroke-linejoin="round"/>
<path d="M90.707 25.1992C89.9922 25.3281 89.2188 25.5508 88.457 25.9414C85 27.7031 84.4883 31.3945 84.4141 32.0312" stroke="#0E0E0E" stroke-width="0.75" stroke-linecap="round" stroke-linejoin="round"/>
<path d="M114.914 28.5312C114.805 28.7852 114.211 30.0977 112.824 30.5312C111.352 30.9961 110.062 30.1406 109.523 29.7812C107.25 28.2734 107.027 25.4023 107.004 24.9375" stroke="#0E0E0E" stroke-width="0.75" stroke-linecap="round" stroke-linejoin="round"/>
<path d="M122.887 35.4452C122.242 35.0781 121.336 34.5234 120.317 33.7812C117.367 31.6367 115.067 29.9609 114.465 27.2343C113.918 24.7499 115.035 22.6562 115.231 22.3046C117.067 18.9882 120.914 18.4413 121.711 18.3515C125.289 17.9492 128.918 19.8359 131.192 23.1367" stroke="#0E0E0E" stroke-width="0.75" stroke-linecap="round" stroke-linejoin="round"/>
<path d="M130.695 40.5977C130.734 32.8789 128.844 26.8203 125.852 25.1484C124.313 24.293 122.754 24.2695 122.754 24.2695C122.234 24.2695 119.617 24.3086 117.961 26.4687C116.484 28.3945 116.852 30.6016 116.918 30.9766" stroke="#0E0E0E" stroke-width="0.75" stroke-linecap="round" stroke-linejoin="round"/>
<path d="M151.824 36.6992C152.215 36.5039 153.457 35.9258 154.801 36.2696C157.192 36.8789 157.465 39.7657 157.477 39.9766C157.621 41.8125 156.496 43.9492 154.352 44.7149C152.699 45.3008 151.109 44.836 150.262 44.586C147.52 43.7852 146.012 41.918 145.262 40.9727C142.859 37.9141 144.031 36.4258 141.57 34.2539C140.902 33.6602 139.555 32.461 137.484 32.1446C135.332 31.8086 134.445 32.7383 132.481 32.1914C130.555 31.6485 129.555 30.2344 129.301 29.836C129.18 29.6563 127.777 27.3985 129.098 25.125C129.367 24.6524 130.172 23.2813 131.977 22.8828C133.621 22.5313 135.43 23.1289 136.418 24.3086C137.266 25.3125 137.512 26.7305 136.852 27.8555C136.711 28.1016 136.262 28.8672 135.242 29.1758C134.387 29.4297 133.297 29.3164 132.547 28.7188C131.887 28.1836 131.77 27.5039 131.746 27.3008" stroke="#0E0E0E" stroke-width="0.75" stroke-linecap="round" stroke-linejoin="round"/>
<path d="M143.117 36.3437C142.801 32.9258 141.055 30.1132 138.496 29.1992C137.91 28.9882 136.996 28.7773 135.781 28.9258" stroke="#0E0E0E" stroke-width="0.75" stroke-linecap="round" stroke-linejoin="round"/>
<path d="M157.965 48.4218C156.734 46.3124 154.77 44.9999 152.813 45.121C150.391 45.2694 148.965 47.5429 148.352 48.5233C144.887 54.0507 148.59 61.6054 149.16 62.7382" stroke="#0E0E0E" stroke-width="0.75" stroke-linecap="round" stroke-linejoin="round"/>
<path d="M158.02 90.0898C156.609 80.4375 152.027 59.3242 134.379 43.6406C130.539 40.2305 126.617 37.5508 122.887 35.4453" stroke="#0E0E0E" stroke-width="0.75" stroke-linecap="round" stroke-linejoin="round"/>
<mask id="mask2_2314_1088" style="mask-type:luminance" maskUnits="userSpaceOnUse" x="10" y="148" width="148" height="80">
<path d="M10.8281 148H157.828V228H10.8281V148Z" fill="white"/>
</mask>
<g mask="url(#mask2_2314_1088)">
<mask id="mask3_2314_1088" style="mask-type:luminance" maskUnits="userSpaceOnUse" x="10" y="148" width="148" height="80">
<path d="M10.9062 148.289C10.9297 174.684 10.9414 201.074 10.9648 227.461C59.8281 227.453 108.691 227.437 157.555 227.43C157.574 201.953 157.598 176.477 157.621 150.996C152.77 162.285 145.328 176.039 133.785 189.781C129.332 195.074 124.844 199.695 120.52 203.699C119.316 205.289 118.117 206.871 116.926 208.461C116.242 208.648 115.563 208.828 114.879 209.016C114.563 208.598 113.348 207.047 111.676 207.016C109.5 206.977 107.07 209.527 106.949 213.367C106.695 212.797 104.559 208.254 99.6992 207.227C97.3594 206.73 95.3945 207.254 94.3789 207.613C93.7188 208.164 92.8437 209.012 92.0391 210.227C91.2539 211.418 90.8242 212.535 90.5781 213.344H78.0312C77.957 212.879 77.3477 209.453 74.2266 207.742C71.1758 206.07 68.0781 207.344 67.125 207.727C63.832 209.055 62.4375 211.793 62.1289 212.438C61.3867 208.898 58.9141 206.707 56.7383 206.879C56.3867 206.91 55.2539 207.059 54.0742 208.379C52.8242 207.336 51.5703 206.297 50.3164 205.254C44.5 202.371 33.6602 196.035 24.5625 183.75C13.9297 169.379 11.5742 154.836 10.9219 148.297L10.9062 148.289Z" fill="white"/>
</mask>
<g mask="url(#mask3_2314_1088)">
<path d="M10.9062 148.289V227.461H157.621V148.289H10.9062Z" fill="url(#paint1_linear_2314_1088)"/>
</g>
</g>
<path d="M84.293 205.574C84.3437 206.199 84.6016 208.379 86.4062 210.234C88.0273 211.898 89.9336 212.297 90.5859 212.406C90.5313 213.059 90.4805 213.711 90.4297 214.363C89.5742 214.762 87.8555 215.707 86.4297 217.621C84.9844 219.562 84.5703 221.496 84.4375 222.434C84.0977 221.266 83.3555 219.262 81.6602 217.312C80.3555 215.812 78.9687 214.898 78.0078 214.363C77.957 213.711 77.9023 213.059 77.8516 212.406C78.3164 212.363 81.3086 212.016 83.1094 209.398C84.1641 207.855 84.293 206.281 84.3086 205.574H84.293Z" fill="white"/>
<path d="M115.5 216.016C114.668 216.254 113.297 216.516 111.742 216.141C110.387 215.82 109.469 215.16 108.953 214.77C104.395 211.352 103.719 208.695 100.582 207.496C100.18 207.336 97.2461 206.371 94.2891 207.75C92.2071 208.727 90.7188 210.945 90.4883 213.352C90.1563 216.801 92.5586 220.215 95.3399 220.836C95.6641 220.914 97.418 221.301 98.8516 220.23C99.0313 220.094 100.141 219.238 100.297 217.734C100.32 217.508 100.5 215.566 99.0156 214.621C98.1836 214.094 97.125 214.066 96.2852 214.453C95.0938 215.004 94.375 216.375 94.5625 217.844C94.2696 217.523 93.8633 217.02 93.5391 216.328C93.3828 216 92.3633 213.742 93.3399 211.574C94.5235 208.934 97.7539 208.469 98.1914 208.41C101.078 207.996 104.078 209.512 106.043 212.234" stroke="#0E0E0E" stroke-width="0.75" stroke-linecap="round" stroke-linejoin="round"/>
<path d="M90.4296 214.449C89.371 214.973 88.5976 215.566 88.0585 216.051C84.9452 218.879 84.4882 222.996 84.2695 224.926C84.1288 226.176 84.1445 227.211 84.1718 227.852" stroke="#0E0E0E" stroke-width="0.75" stroke-linecap="round" stroke-linejoin="round"/>
<path d="M90.5859 212.496C89.875 212.371 89.1016 212.145 88.3359 211.754C84.8789 209.992 84.3672 206.301 84.293 205.664" stroke="#0E0E0E" stroke-width="0.75" stroke-linecap="round" stroke-linejoin="round"/>
<path d="M52.9297 216.016C53.7617 216.254 55.1328 216.516 56.6875 216.141C58.043 215.82 58.957 215.16 59.4766 214.77C64.0352 211.352 64.7109 208.695 67.8438 207.496C68.25 207.336 71.1836 206.371 74.1367 207.75C76.2227 208.727 77.707 210.945 77.9414 213.352C78.2695 216.801 75.8711 220.215 73.0898 220.836C72.7656 220.914 71.0117 221.301 69.5781 220.23C69.3984 220.094 68.2891 219.238 68.1289 217.734C68.1094 217.508 67.9297 215.566 69.4141 214.621C70.2461 214.094 71.3047 214.066 72.1445 214.453C73.3359 215.004 74.0547 216.375 73.8672 217.844C74.1602 217.523 74.5664 217.02 74.8867 216.328C75.0469 216 76.0664 213.742 75.0898 211.574C73.9062 208.934 70.6719 208.469 70.2383 208.41C67.3516 207.996 64.3516 209.512 62.3867 212.234" stroke="#0E0E0E" stroke-width="0.75" stroke-linecap="round" stroke-linejoin="round"/>
<path d="M77.8438 212.496C78.5273 212.391 79.3047 212.176 80.0938 211.754C83.3047 210.059 84.1367 206.438 84.293 205.664" stroke="#0E0E0E" stroke-width="0.75" stroke-linecap="round" stroke-linejoin="round"/>
<path d="M53.6328 209.16C53.7461 208.906 54.3398 207.594 55.7266 207.156C57.1953 206.691 58.4844 207.547 59.0273 207.906C61.2969 209.414 61.5234 212.289 61.5469 212.754" stroke="#0E0E0E" stroke-width="0.75" stroke-linecap="round" stroke-linejoin="round"/>
<path d="M45.6523 202.246C46.2969 202.613 47.207 203.168 48.2266 203.91C51.1719 206.055 53.4766 207.727 54.0742 210.457C54.625 212.941 53.5039 215.031 53.3125 215.387C51.4727 218.699 47.625 219.246 46.832 219.336C43.2539 219.742 39.625 217.852 37.3516 214.551" stroke="#0E0E0E" stroke-width="0.75" stroke-linecap="round" stroke-linejoin="round"/>
<path d="M37.8516 197.102C37.8164 204.816 39.707 210.879 42.6992 212.551C44.2344 213.406 45.7969 213.426 45.7969 213.426C46.3125 213.426 48.9297 213.391 50.5898 211.23C52.0664 209.301 51.6992 207.098 51.6289 206.723" stroke="#0E0E0E" stroke-width="0.75" stroke-linecap="round" stroke-linejoin="round"/>
<path d="M16.7266 201C16.336 201.195 15.0899 201.774 13.75 201.426C11.3555 200.82 11.086 197.934 11.0704 197.723C10.9297 195.887 12.0547 193.746 14.1993 192.984C15.8477 192.399 17.4375 192.863 18.2852 193.109C21.0313 193.914 22.5391 195.781 23.2891 196.727C25.6875 199.785 24.5196 201.27 26.9766 203.445C27.6446 204.039 28.9961 205.238 31.0664 205.551C33.2188 205.891 34.1016 204.961 36.0664 205.508C37.9961 206.047 38.9922 207.465 39.25 207.863C39.3672 208.043 40.7696 210.301 39.4493 212.574C39.1797 213.047 38.3789 214.418 36.5704 214.816C34.9297 215.168 33.1211 214.567 32.129 213.391C31.2813 212.387 31.0352 210.969 31.6954 209.844C31.8399 209.594 32.2891 208.828 33.3086 208.524C34.1641 208.266 35.25 208.379 36 208.981C36.6602 209.512 36.7813 210.195 36.8047 210.399" stroke="#0E0E0E" stroke-width="0.75" stroke-linecap="round" stroke-linejoin="round"/>
<path d="M25.4336 201.344C25.75 204.766 27.4961 207.578 30.0547 208.492C30.6367 208.703 31.5547 208.914 32.7695 208.762" stroke="#0E0E0E" stroke-width="0.75" stroke-linecap="round" stroke-linejoin="round"/>
<path d="M22.832 196.043C23.3125 196.164 25.2305 196.598 26.8789 195.531C28.8828 194.227 29.6992 191.203 28.4922 188.324" stroke="#0E0E0E" stroke-width="0.75" stroke-linecap="round" stroke-linejoin="round"/>
<path d="M21.4727 185.73C21.7812 185.746 22.418 185.738 23.0938 185.387C24.2188 184.793 24.5625 183.691 24.6289 183.465" stroke="#0E0E0E" stroke-width="0.75" stroke-linecap="round" stroke-linejoin="round"/>
<path d="M10.6133 146.145C11.8125 155.805 16.0273 177.887 34.1641 194.047C37.9961 197.461 41.9102 200.137 45.6523 202.246" stroke="#0E0E0E" stroke-width="0.75" stroke-linecap="round" stroke-linejoin="round"/>
<path d="M84.293 205.574C84.3438 206.199 84.6016 208.379 86.4063 210.234C88.0273 211.898 89.9336 212.297 90.5859 212.406C90.5313 213.059 90.4805 213.711 90.4297 214.363C89.9648 214.574 89.3242 214.906 88.6445 215.422C87.1055 216.602 86.3711 217.98 85.7266 219.227C85.1641 220.32 84.4375 222.016 84.0625 224.25C84.0547 223.176 83.8867 220.094 81.6523 217.305C80.3867 215.715 78.9297 214.824 78 214.359C77.9492 213.703 77.8945 213.051 77.8438 212.398C78.3086 212.355 81.3008 212.012 83.1016 209.391C84.1563 207.848 84.2852 206.273 84.3008 205.566L84.293 205.574Z" fill="black" stroke="black" stroke-width="0.5625" stroke-linecap="round" stroke-linejoin="round"/>
<path d="M52.9297 216.016C53.7617 216.254 55.1328 216.516 56.6875 216.141C58.043 215.82 58.957 215.16 59.4766 214.77C64.0352 211.352 64.7109 208.695 67.8438 207.496C68.25 207.336 71.1836 206.371 74.1367 207.75C76.2227 208.727 77.707 210.945 77.9414 213.352C78.2695 216.801 75.8711 220.215 73.0898 220.836C72.7656 220.914 71.0117 221.301 69.5781 220.23C69.3984 220.094 68.2891 219.238 68.1289 217.734C68.1094 217.508 67.9297 215.566 69.4141 214.621C70.2461 214.094 71.3047 214.066 72.1445 214.453C73.3359 215.004 74.0547 216.375 73.8672 217.844C74.1602 217.523 74.5664 217.02 74.8867 216.328C75.0469 216 76.0664 213.742 75.0898 211.574C73.9062 208.934 70.6719 208.469 70.2383 208.41C67.3516 207.996 64.3516 209.512 62.3867 212.234" stroke="#0E0E0E" stroke-width="0.75" stroke-linecap="round" stroke-linejoin="round"/>
<path d="M78 214.449C78.625 214.746 79.4922 215.25 80.3711 216.051C82.2227 217.762 82.8906 219.742 83.4063 221.363C84.2109 223.867 84.293 226.148 84.1797 227.852" stroke="#0E0E0E" stroke-width="0.75" stroke-linecap="round" stroke-linejoin="round"/>
<path d="M77.8438 212.496C78.5273 212.391 79.3047 212.176 80.0938 211.754C83.332 210.039 84.1445 206.332 84.293 205.574" stroke="#0E0E0E" stroke-width="0.75" stroke-linecap="round" stroke-linejoin="round"/>
<path d="M53.6328 209.16C53.7461 208.906 54.3398 207.594 55.7266 207.156C57.1953 206.691 58.4844 207.547 59.0273 207.906C61.2969 209.414 61.5234 212.289 61.5469 212.754" stroke="#0E0E0E" stroke-width="0.75" stroke-linecap="round" stroke-linejoin="round"/>
<path d="M45.6523 202.246C46.2969 202.613 47.207 203.168 48.2266 203.91C51.1719 206.055 53.4766 207.727 54.0742 210.457C54.625 212.941 53.5039 215.031 53.3125 215.387C51.4727 218.699 47.625 219.246 46.832 219.336C43.2539 219.742 39.625 217.852 37.3516 214.551" stroke="#0E0E0E" stroke-width="0.75" stroke-linecap="round" stroke-linejoin="round"/>
<path d="M37.8516 197.102C37.8164 204.816 39.707 210.879 42.6992 212.551C44.2344 213.406 45.7969 213.426 45.7969 213.426C46.3125 213.426 48.9297 213.391 50.5898 211.23C52.0664 209.301 51.6992 207.098 51.6289 206.723" stroke="#0E0E0E" stroke-width="0.75" stroke-linecap="round" stroke-linejoin="round"/>
<path d="M16.7266 201C16.336 201.195 15.0899 201.774 13.75 201.426C11.3555 200.82 11.086 197.934 11.0704 197.723C10.9297 195.887 12.0547 193.746 14.1993 192.984C15.8477 192.399 17.4375 192.863 18.2852 193.109C21.0313 193.914 22.5391 195.781 23.2891 196.727C25.6875 199.785 24.5196 201.27 26.9766 203.445C27.6446 204.039 28.9961 205.238 31.0664 205.551C33.2188 205.891 34.1016 204.961 36.0664 205.508C37.9961 206.047 38.9922 207.465 39.25 207.863C39.3672 208.043 40.7696 210.301 39.4493 212.574C39.1797 213.047 38.3789 214.418 36.5704 214.816C34.9297 215.168 33.1211 214.567 32.129 213.391C31.2813 212.387 31.0352 210.969 31.6954 209.844C31.8399 209.594 32.2891 208.828 33.3086 208.524C34.1641 208.266 35.25 208.379 36 208.981C36.6602 209.512 36.7813 210.195 36.8047 210.399" stroke="#0E0E0E" stroke-width="0.75" stroke-linecap="round" stroke-linejoin="round"/>
<path d="M25.4336 201.344C25.75 204.766 27.4961 207.578 30.0547 208.492C30.6367 208.703 31.5547 208.914 32.7695 208.762" stroke="#0E0E0E" stroke-width="0.75" stroke-linecap="round" stroke-linejoin="round"/>
<path d="M10.6641 189.414C10.7539 189.563 12.75 192.758 15.7344 192.57C18.1523 192.422 19.5742 190.156 20.1992 189.164C23.6563 183.645 19.957 176.086 19.3867 174.953" stroke="#0E0E0E" stroke-width="0.75" stroke-linecap="round" stroke-linejoin="round"/>
<path d="M22.832 196.043C23.3125 196.164 25.2305 196.598 26.8789 195.531C28.8828 194.227 29.6992 191.203 28.4922 188.324" stroke="#0E0E0E" stroke-width="0.75" stroke-linecap="round" stroke-linejoin="round"/>
<path d="M21.4727 185.73C21.7812 185.746 22.418 185.738 23.0938 185.387C24.2188 184.793 24.5625 183.691 24.6289 183.465" stroke="#0E0E0E" stroke-width="0.75" stroke-linecap="round" stroke-linejoin="round"/>
<path d="M10.6133 146.145C11.8125 155.805 16.0273 177.887 34.1641 194.047C37.9961 197.461 41.9102 200.137 45.6523 202.246" stroke="#0E0E0E" stroke-width="0.75" stroke-linecap="round" stroke-linejoin="round"/>
<path d="M124.68 194.242V193.164H131.867V194.199H131.477C131.363 194.199 131.234 194.219 131.102 194.258C130.965 194.301 130.844 194.387 130.754 194.504C130.672 194.633 130.629 194.789 130.629 194.977C130.629 195.164 130.672 195.375 130.77 195.609L130.785 195.637L133.426 202.043C133.988 202.133 134.574 202.184 135.164 202.184C137.062 202.184 138.789 201.734 140.34 200.844C141.895 199.949 143.063 198.734 143.836 197.199L143.977 196.852L144.008 196.777C144.164 196.387 144.242 196.027 144.242 195.699C144.242 195.172 144.047 194.773 143.656 194.488L143.641 194.477C143.371 194.297 143.027 194.203 142.621 194.203H142.215L142.23 193.172H149.414L149.402 194.203H149.012C148.223 194.203 147.441 194.484 146.672 195.031C145.898 195.578 145.328 196.262 144.977 197.078L144.945 197.152L138.781 212.168C138.629 212.52 138.562 212.863 138.562 213.188C138.562 213.609 138.691 213.953 138.938 214.238C139.418 214.559 139.875 214.727 140.305 214.727L140.73 214.695V215.762H135.645L127.484 195.914C127.277 195.434 126.938 195.031 126.473 194.699C126.008 194.371 125.551 194.203 125.102 194.203L124.68 194.25V194.242ZM135.383 203.211H133.891L137.609 212.25C137.688 212.113 137.754 211.98 137.812 211.844L137.875 211.688L142.457 200.535C141.172 201.684 139.629 202.477 137.844 202.906C137.762 202.926 137.664 202.949 137.559 202.965C136.844 203.121 136.117 203.203 135.375 203.211H135.383Z" fill="black"/>
<path d="M130.508 178.988C132.406 181.059 134.617 183.082 135.539 184.141C136.23 184.934 136.727 185.543 136.93 185.789C136.941 185.813 136.965 185.836 136.98 185.859C136.996 185.836 137.019 185.813 137.031 185.789C137.234 185.535 137.723 184.934 138.422 184.141C139.344 183.082 141.555 181.059 143.453 178.988C145.352 176.918 145.508 174.848 145.148 173.121C144.789 171.406 142.988 169.785 140.168 170.137C139.281 170.25 138.629 170.672 138.156 171.203C138.473 168.773 139.793 167.504 139.793 167.504H134.316C135.316 168.621 135.676 170.203 135.805 171.188C135.332 170.664 134.687 170.242 133.809 170.137C130.98 169.785 129.187 171.398 128.828 173.121C128.469 174.84 128.625 176.91 130.523 178.988H130.508Z" fill="#2D291E" stroke="black" stroke-width="0.5625" stroke-linecap="round" stroke-linejoin="round"/>
<path d="M43.6641 43.5508V44.6328H36.4805V43.5977H36.8711C36.9844 43.5977 37.1094 43.5742 37.2461 43.5391C37.3789 43.4922 37.4922 43.4102 37.5898 43.2891C37.6719 43.1641 37.7188 43.0039 37.7188 42.8164C37.7188 42.6289 37.6719 42.418 37.5742 42.1875L37.5586 42.1562L34.9297 35.7539C34.3672 35.6641 33.7812 35.6094 33.1875 35.6094C31.2969 35.6094 29.5664 36.0586 28.0117 36.9531C26.4531 37.8438 25.2891 39.0586 24.5117 40.5977L24.3672 40.9414L24.3398 41.0156C24.1797 41.4062 24.1055 41.7656 24.1055 42.0977C24.1055 42.6211 24.3008 43.0195 24.6836 43.3047L24.6992 43.3203C24.9687 43.5 25.3125 43.5898 25.7188 43.5898H26.125L26.1094 44.625H18.9219L18.9375 43.5898H19.3281C20.1172 43.5898 20.8867 43.3125 21.668 42.7656C22.4414 42.2188 23.0117 41.5352 23.3633 40.7188L23.3945 40.6406L29.5586 25.6289C29.707 25.2734 29.7773 24.9297 29.7773 24.6094C29.7773 24.1875 29.6484 23.8437 29.4023 23.5586C28.9219 23.2344 28.4648 23.0703 28.0352 23.0703L27.6094 23.1016V22.0352H32.6914L40.8516 41.8789C41.0625 42.3594 41.4023 42.7656 41.8672 43.0938C42.332 43.4258 42.7891 43.5898 43.2383 43.5898L43.6641 43.543V43.5508ZM32.9648 34.5742H34.457L30.7344 25.5391C30.6602 25.6719 30.5938 25.8086 30.5312 25.9414L30.4727 26.1016L25.8906 37.2539C27.1719 36.1055 28.7188 35.3086 30.5039 34.8828C30.5859 34.8594 30.6836 34.8359 30.7891 34.8242C31.5 34.6641 32.2266 34.582 32.9688 34.5742H32.9648Z" fill="black"/>
<path d="M37.9804 58.0938C36.082 56.0234 33.871 54 32.9492 52.9414C32.2578 52.1484 31.7617 51.5391 31.5625 51.293C31.5468 51.2695 31.5234 51.2461 31.5078 51.2266C31.4921 51.2461 31.4687 51.2695 31.457 51.293C31.2539 51.5469 30.7656 52.1484 30.0664 52.9414C29.1445 54 26.9335 56.0234 25.0351 58.0938C23.1367 60.1641 22.9804 62.2344 23.3398 63.9609C23.6992 65.6758 25.5 67.2969 28.3203 66.9453C29.207 66.832 29.8593 66.4141 30.332 65.8789C30.0156 68.3086 28.6953 69.5781 28.6953 69.5781H34.1718C33.1718 68.4609 32.8125 66.8789 32.6875 65.8945C33.1562 66.418 33.8046 66.8398 34.6796 66.9453C37.5078 67.2969 39.3007 65.6836 39.6601 63.9609C40.0195 62.2422 39.8632 60.1719 37.9648 58.0938H37.9804Z" fill="#2D291E" stroke="black" stroke-width="0.5625" stroke-linecap="round" stroke-linejoin="round"/>
<path d="M117.269 94.3867C107.258 83.4766 95.625 72.8242 90.7578 67.2305C87.1054 63.0391 84.5195 59.8516 83.4531 58.5156C83.3632 58.4023 83.2734 58.2891 83.1836 58.1758C83.0937 58.2891 83.0039 58.4023 82.914 58.5156C81.8476 59.8516 79.2617 63.0313 75.6093 67.2305C70.7422 72.8164 59.1093 83.4687 49.0937 94.3867C39.082 105.301 38.2734 116.219 40.1718 125.273C42.0625 134.324 51.5312 142.844 66.414 140.977C71.0859 140.391 74.5 138.148 76.9882 135.359C76.9492 137.559 76.6367 141.996 74.5195 146.488C74.2968 146.977 72.1132 151.629 70.4179 152.586C70.2382 152.684 69.375 153.141 68.7539 154.117C68.7226 154.164 68.4765 154.523 68.3867 154.836C67.957 156.391 69.7656 157.215 70.2695 159.137C70.8672 161.43 68.8672 162.441 69.5547 165.398C69.8945 166.867 70.5156 167.145 70.6953 167.211C71.1445 167.379 71.7226 167.258 72.0742 167.004C73.8164 165.719 70.4492 160.719 72.5039 156.906C73.0664 155.863 73.8672 155.211 74.414 154.836C78.5937 154.836 82.7773 154.824 86.957 154.816C87.2539 155.332 87.707 156.188 88.0898 157.297C91.3359 166.621 84.0742 176.707 86.8789 179.055C87.8242 179.844 89.0039 179.902 89.0039 179.902C89.0039 179.902 90.2773 179.969 91.3437 179.199C94.1796 177.129 88.3945 167.871 91.1328 157.934C91.5078 156.563 91.9648 155.488 92.2656 154.836H97.2382C95.5 152.641 93.1718 149.355 91.6132 144.871C90.4062 141.406 89.7695 138.023 89.4375 135.426C91.9218 138.188 95.3164 140.391 99.9531 140.969C114.832 142.828 124.297 134.316 126.195 125.266C128.094 116.211 127.277 105.301 117.269 94.3789V94.3867Z" fill="#292929" stroke="black" stroke-width="0.5625" stroke-linecap="round" stroke-linejoin="round"/>
<path d="M89.7305 128.031C90.1953 128.691 94.8672 135.09 103.188 135.188C109.352 135.262 114.617 131.844 117.438 127.395C122.07 120.082 118.801 112.043 117.93 109.891C116.266 105.797 113.707 103.102 112.117 101.672C112.996 103.77 114.625 108.473 113.672 114.316C113.25 116.871 112.23 123.156 106.809 126.969C99.4648 132.121 90.3594 128.309 89.7305 128.031Z" fill="black"/>
<path d="M93.3087 79.9883C91.754 78.4883 90.1954 76.957 88.629 75.4219C86.6485 73.4609 84.6993 71.5117 82.7852 69.5703C79.3204 72.7656 74.3556 77.4453 68.5431 83.2812C50.2149 101.672 47.7813 107.109 46.922 112.176C46.5977 114.059 44.9493 124.461 51.5313 130.793C55.3751 134.484 60.254 135.047 61.9493 135.148C72.5118 135.809 79.1876 126.195 79.5977 125.578C78.8048 125.594 65.504 125.641 59.8282 115.801C59.3399 114.961 56.797 110.379 57.6173 104.52C58.2149 100.199 60.4298 96.8008 74.5001 83.0547C77.8438 79.7852 80.6485 77.1133 82.5743 75.293C84.8868 76.3281 87.2267 77.3555 89.5899 78.375C90.8321 78.9141 92.0704 79.4492 93.3087 79.9727V79.9883Z" fill="black"/>
<path d="M76.3594 150.801H88.8516C88.1797 149.527 87.5195 148.059 86.9414 146.391C85.5742 142.461 85.1914 138.891 85.1484 136.184C83.6914 136.172 82.2461 136.148 80.7969 136.133C80.6875 140.219 79.8164 145.012 77.1289 149.578C76.8828 150 76.6289 150.406 76.3672 150.801H76.3594Z" fill="black"/>
<defs>
<linearGradient id="paint0_linear_2314_1088" x1="157.696" y1="48.8925" x2="11.0556" y2="48.8925" gradientUnits="userSpaceOnUse">
<stop stop-color="#8F8587"/>
<stop offset="0.00390625" stop-color="#908688"/>
<stop offset="0.0078125" stop-color="#918789"/>
<stop offset="0.0117187" stop-color="#92888A"/>
<stop offset="0.015625" stop-color="#92898B"/>
<stop offset="0.0195312" stop-color="#938A8B"/>
<stop offset="0.0234375" stop-color="#948B8C"/>
<stop offset="0.0273437" stop-color="#958C8D"/>
<stop offset="0.03125" stop-color="#968D8E"/>
<stop offset="0.0351562" stop-color="#978D8F"/>
<stop offset="0.0390625" stop-color="#988E90"/>
<stop offset="0.0429687" stop-color="#988F91"/>
<stop offset="0.046875" stop-color="#999092"/>
<stop offset="0.0507812" stop-color="#9A9193"/>
<stop offset="0.0546875" stop-color="#9B9294"/>
<stop offset="0.0585937" stop-color="#9C9395"/>
<stop offset="0.0625" stop-color="#9D9496"/>
<stop offset="0.0664062" stop-color="#9D9596"/>
<stop offset="0.0703125" stop-color="#9E9697"/>
<stop offset="0.0742187" stop-color="#9F9798"/>
<stop offset="0.078125" stop-color="#A09899"/>
<stop offset="0.0820312" stop-color="#A1999A"/>
<stop offset="0.0859375" stop-color="#A2999B"/>
<stop offset="0.0898437" stop-color="#A39A9C"/>
<stop offset="0.09375" stop-color="#A39B9D"/>
<stop offset="0.0976562" stop-color="#A49C9E"/>
<stop offset="0.101562" stop-color="#A59D9F"/>
<stop offset="0.105469" stop-color="#A69EA0"/>
<stop offset="0.109375" stop-color="#A79FA0"/>
<stop offset="0.113281" stop-color="#A8A0A1"/>
<stop offset="0.117187" stop-color="#A8A1A2"/>
<stop offset="0.121094" stop-color="#A9A2A3"/>
<stop offset="0.125" stop-color="#AAA3A4"/>
<stop offset="0.128906" stop-color="#ABA4A5"/>
<stop offset="0.132812" stop-color="#ACA5A6"/>
<stop offset="0.136719" stop-color="#ADA5A7"/>
<stop offset="0.140625" stop-color="#AEA6A8"/>
<stop offset="0.144531" stop-color="#AEA7A9"/>
<stop offset="0.148438" stop-color="#AFA8AA"/>
<stop offset="0.152344" stop-color="#B0A9AB"/>
<stop offset="0.15625" stop-color="#B1AAAB"/>
<stop offset="0.160156" stop-color="#B2ABAC"/>
<stop offset="0.164062" stop-color="#B3ACAD"/>
<stop offset="0.167969" stop-color="#B3ADAE"/>
<stop offset="0.171875" stop-color="#B4AEAF"/>
<stop offset="0.175781" stop-color="#B5AFB0"/>
<stop offset="0.179688" stop-color="#B6B0B1"/>
<stop offset="0.183594" stop-color="#B7B1B2"/>
<stop offset="0.1875" stop-color="#B8B2B3"/>
<stop offset="0.191406" stop-color="#B9B2B4"/>
<stop offset="0.195312" stop-color="#B9B3B5"/>
<stop offset="0.199219" stop-color="#BAB4B5"/>
<stop offset="0.203125" stop-color="#BBB5B6"/>
<stop offset="0.207031" stop-color="#BCB6B7"/>
<stop offset="0.210938" stop-color="#BDB7B8"/>
<stop offset="0.214844" stop-color="#BEB8B9"/>
<stop offset="0.21875" stop-color="#BEB9BA"/>
<stop offset="0.222656" stop-color="#BFBABB"/>
<stop offset="0.226562" stop-color="#C0BBBC"/>
<stop offset="0.230469" stop-color="#C1BCBD"/>
<stop offset="0.234375" stop-color="#C2BDBE"/>
<stop offset="0.238281" stop-color="#C3BEBF"/>
<stop offset="0.242188" stop-color="#C3BEBF"/>
<stop offset="0.246094" stop-color="#C4BFC0"/>
<stop offset="0.25" stop-color="#C5C0C1"/>
<stop offset="0.253906" stop-color="#C6C1C2"/>
<stop offset="0.257812" stop-color="#C6C2C3"/>
<stop offset="0.261719" stop-color="#C7C3C3"/>
<stop offset="0.265625" stop-color="#C8C3C4"/>
<stop offset="0.269531" stop-color="#C9C4C5"/>
<stop offset="0.273438" stop-color="#C9C5C6"/>
<stop offset="0.277344" stop-color="#CAC6C7"/>
<stop offset="0.28125" stop-color="#CBC7C7"/>
<stop offset="0.285156" stop-color="#CCC7C8"/>
<stop offset="0.289062" stop-color="#CCC8C9"/>
<stop offset="0.292969" stop-color="#CDC9CA"/>
<stop offset="0.296875" stop-color="#CECACB"/>
<stop offset="0.300781" stop-color="#CFCBCB"/>
<stop offset="0.304688" stop-color="#CFCCCC"/>
<stop offset="0.308594" stop-color="#D0CCCD"/>
<stop offset="0.3125" stop-color="#D1CDCE"/>
<stop offset="0.316406" stop-color="#D2CECF"/>
<stop offset="0.320312" stop-color="#D2CFCF"/>
<stop offset="0.324219" stop-color="#D3D0D0"/>
<stop offset="0.328125" stop-color="#D4D0D1"/>
<stop offset="0.332031" stop-color="#D5D1D2"/>
<stop offset="0.335938" stop-color="#D5D2D3"/>
<stop offset="0.339844" stop-color="#D6D3D3"/>
<stop offset="0.34375" stop-color="#D7D4D4"/>
<stop offset="0.347656" stop-color="#D8D5D5"/>
<stop offset="0.351562" stop-color="#D8D5D6"/>
<stop offset="0.355469" stop-color="#D9D6D7"/>
<stop offset="0.359375" stop-color="#DAD7D7"/>
<stop offset="0.363281" stop-color="#DBD8D8"/>
<stop offset="0.367188" stop-color="#DBD9D9"/>
<stop offset="0.371094" stop-color="#DCDADA"/>
<stop offset="0.375" stop-color="#DDDADB"/>
<stop offset="0.378906" stop-color="#DEDBDB"/>
<stop offset="0.382812" stop-color="#DEDCDC"/>
<stop offset="0.386719" stop-color="#DFDDDD"/>
<stop offset="0.390625" stop-color="#E0DEDE"/>
<stop offset="0.394531" stop-color="#E1DEDF"/>
<stop offset="0.398438" stop-color="#E1DFE0"/>
<stop offset="0.402344" stop-color="#E2E0E0"/>
<stop offset="0.40625" stop-color="#E3E1E1"/>
<stop offset="0.410156" stop-color="#E4E2E2"/>
<stop offset="0.414062" stop-color="#E4E3E3"/>
<stop offset="0.417969" stop-color="#E5E3E4"/>
<stop offset="0.421875" stop-color="#E6E4E4"/>
<stop offset="0.425781" stop-color="#E6E5E5"/>
<stop offset="0.429688" stop-color="#E7E6E6"/>
<stop offset="0.433594" stop-color="#E8E7E7"/>
<stop offset="0.4375" stop-color="#E9E7E8"/>
<stop offset="0.441406" stop-color="#E9E8E8"/>
<stop offset="0.445312" stop-color="#EAE9E9"/>
<stop offset="0.449219" stop-color="#EBEAEA"/>
<stop offset="0.453125" stop-color="#ECEBEB"/>
<stop offset="0.457031" stop-color="#ECEBEB"/>
<stop offset="0.460938" stop-color="#EDECEC"/>
<stop offset="0.464844" stop-color="#EDECEC"/>
<stop offset="0.46875" stop-color="#EEEDED"/>
<stop offset="0.472656" stop-color="#EEEEEE"/>
<stop offset="0.476562" stop-color="#EFEEEE"/>
<stop offset="0.480469" stop-color="#EFEFEF"/>
<stop offset="0.484375" stop-color="#F0EFEF"/>
<stop offset="0.488281" stop-color="#F1F0F0"/>
<stop offset="0.492188" stop-color="#F1F1F1"/>
<stop offset="0.496094" stop-color="#F2F1F1"/>
<stop offset="0.5" stop-color="#F2F2F2"/>
<stop offset="0.503906" stop-color="#F3F2F2"/>
<stop offset="0.507812" stop-color="#F3F3F3"/>
<stop offset="0.511719" stop-color="#F4F4F4"/>
<stop offset="0.515625" stop-color="#F5F4F4"/>
<stop offset="0.519531" stop-color="#F5F5F5"/>
<stop offset="0.523438" stop-color="#F6F5F5"/>
<stop offset="0.527344" stop-color="#F6F6F6"/>
<stop offset="0.53125" stop-color="#F7F7F7"/>
<stop offset="0.535156" stop-color="#F7F7F7"/>
<stop offset="0.539062" stop-color="#F8F8F8"/>
<stop offset="0.542969" stop-color="#F8F8F8"/>
<stop offset="0.546875" stop-color="#F9F9F9"/>
<stop offset="0.550781" stop-color="#FAFAFA"/>
<stop offset="0.554688" stop-color="#FAFAFA"/>
<stop offset="0.5625" stop-color="#FBFBFB"/>
<stop offset="0.625" stop-color="#FBFBFB"/>
<stop offset="0.75" stop-color="#FBFBFB"/>
<stop offset="1" stop-color="#FBFBFB"/>
</linearGradient>
<linearGradient id="paint1_linear_2314_1088" x1="10.9056" y1="187.882" x2="157.621" y2="187.882" gradientUnits="userSpaceOnUse">
<stop stop-color="#8F8587"/>
<stop offset="0.00390625" stop-color="#908688"/>
<stop offset="0.0078125" stop-color="#918789"/>
<stop offset="0.0117188" stop-color="#91888A"/>
<stop offset="0.015625" stop-color="#92898A"/>
<stop offset="0.0195313" stop-color="#938A8B"/>
<stop offset="0.0234375" stop-color="#948A8C"/>
<stop offset="0.0273438" stop-color="#958B8D"/>
<stop offset="0.03125" stop-color="#968C8E"/>
<stop offset="0.0351562" stop-color="#968D8F"/>
<stop offset="0.0390625" stop-color="#978E90"/>
<stop offset="0.0429688" stop-color="#988F91"/>
<stop offset="0.046875" stop-color="#999091"/>
<stop offset="0.0507812" stop-color="#9A9192"/>
<stop offset="0.0546875" stop-color="#9A9293"/>
<stop offset="0.0585938" stop-color="#9B9294"/>
<stop offset="0.0625" stop-color="#9C9395"/>
<stop offset="0.0664062" stop-color="#9D9496"/>
<stop offset="0.0703125" stop-color="#9E9597"/>
<stop offset="0.0742188" stop-color="#9E9698"/>
<stop offset="0.078125" stop-color="#9F9798"/>
<stop offset="0.0820312" stop-color="#A09899"/>
<stop offset="0.0859375" stop-color="#A1999A"/>
<stop offset="0.0898438" stop-color="#A29A9B"/>
<stop offset="0.09375" stop-color="#A39A9C"/>
<stop offset="0.0976562" stop-color="#A39B9D"/>
<stop offset="0.101562" stop-color="#A49C9E"/>
<stop offset="0.105469" stop-color="#A59D9F"/>
<stop offset="0.109375" stop-color="#A69E9F"/>
<stop offset="0.113281" stop-color="#A79FA0"/>
<stop offset="0.117188" stop-color="#A7A0A1"/>
<stop offset="0.121094" stop-color="#A8A1A2"/>
<stop offset="0.125" stop-color="#A9A2A3"/>
<stop offset="0.128906" stop-color="#AAA2A4"/>
<stop offset="0.132812" stop-color="#ABA3A5"/>
<stop offset="0.136719" stop-color="#ABA4A6"/>
<stop offset="0.140625" stop-color="#ACA5A6"/>
<stop offset="0.144531" stop-color="#ADA6A7"/>
<stop offset="0.148438" stop-color="#AEA7A8"/>
<stop offset="0.152344" stop-color="#AFA8A9"/>
<stop offset="0.15625" stop-color="#B0A9AA"/>
<stop offset="0.160156" stop-color="#B0AAAB"/>
<stop offset="0.164063" stop-color="#B1AAAC"/>
<stop offset="0.167969" stop-color="#B2ABAD"/>
<stop offset="0.171875" stop-color="#B3ACAD"/>
<stop offset="0.175781" stop-color="#B4ADAE"/>
<stop offset="0.179687" stop-color="#B4AEAF"/>
<stop offset="0.183594" stop-color="#B5AFB0"/>
<stop offset="0.1875" stop-color="#B6B0B1"/>
<stop offset="0.191406" stop-color="#B7B1B2"/>
<stop offset="0.195312" stop-color="#B8B2B3"/>
<stop offset="0.199219" stop-color="#B9B2B4"/>
<stop offset="0.203125" stop-color="#B9B3B4"/>
<stop offset="0.207031" stop-color="#BAB4B5"/>
<stop offset="0.210938" stop-color="#BBB5B6"/>
<stop offset="0.214844" stop-color="#BCB6B7"/>
<stop offset="0.21875" stop-color="#BDB7B8"/>
<stop offset="0.222656" stop-color="#BDB8B9"/>
<stop offset="0.226562" stop-color="#BEB9BA"/>
<stop offset="0.230469" stop-color="#BFBABB"/>
<stop offset="0.234375" stop-color="#C0BABB"/>
<stop offset="0.238281" stop-color="#C1BBBC"/>
<stop offset="0.242188" stop-color="#C1BCBD"/>
<stop offset="0.246094" stop-color="#C2BDBE"/>
<stop offset="0.25" stop-color="#C3BEBF"/>
<stop offset="0.253906" stop-color="#C4BFC0"/>
<stop offset="0.257813" stop-color="#C5C0C1"/>
<stop offset="0.261719" stop-color="#C5C0C1"/>
<stop offset="0.265625" stop-color="#C6C1C2"/>
<stop offset="0.269531" stop-color="#C7C2C3"/>
<stop offset="0.273438" stop-color="#C8C3C4"/>
<stop offset="0.277344" stop-color="#C8C4C5"/>
<stop offset="0.28125" stop-color="#C9C5C5"/>
<stop offset="0.285156" stop-color="#CAC5C6"/>
<stop offset="0.289062" stop-color="#CBC6C7"/>
<stop offset="0.292969" stop-color="#CBC7C8"/>
<stop offset="0.296875" stop-color="#CCC8C9"/>
<stop offset="0.300781" stop-color="#CDC9C9"/>
<stop offset="0.304688" stop-color="#CDC9CA"/>
<stop offset="0.308594" stop-color="#CECACB"/>
<stop offset="0.3125" stop-color="#CFCBCC"/>
<stop offset="0.316406" stop-color="#D0CCCD"/>
<stop offset="0.320313" stop-color="#D0CDCD"/>
<stop offset="0.324219" stop-color="#D1CECE"/>
<stop offset="0.328125" stop-color="#D2CECF"/>
<stop offset="0.332031" stop-color="#D3CFD0"/>
<stop offset="0.335938" stop-color="#D3D0D1"/>
<stop offset="0.339844" stop-color="#D4D1D1"/>
<stop offset="0.34375" stop-color="#D5D2D2"/>
<stop offset="0.347656" stop-color="#D6D2D3"/>
<stop offset="0.351563" stop-color="#D6D3D4"/>
<stop offset="0.355469" stop-color="#D7D4D5"/>
<stop offset="0.359375" stop-color="#D8D5D5"/>
<stop offset="0.363281" stop-color="#D9D6D6"/>
<stop offset="0.367188" stop-color="#D9D7D7"/>
<stop offset="0.371094" stop-color="#DAD7D8"/>
<stop offset="0.375" stop-color="#DBD8D9"/>
<stop offset="0.378906" stop-color="#DCD9D9"/>
<stop offset="0.382812" stop-color="#DCDADA"/>
<stop offset="0.386719" stop-color="#DDDBDB"/>
<stop offset="0.390625" stop-color="#DEDCDC"/>
<stop offset="0.394531" stop-color="#DFDCDD"/>
<stop offset="0.398438" stop-color="#DFDDDD"/>
<stop offset="0.402344" stop-color="#E0DEDE"/>
<stop offset="0.40625" stop-color="#E1DFDF"/>
<stop offset="0.410156" stop-color="#E2E0E0"/>
<stop offset="0.414063" stop-color="#E2E0E1"/>
<stop offset="0.417969" stop-color="#E3E1E1"/>
<stop offset="0.421875" stop-color="#E4E2E2"/>
<stop offset="0.425781" stop-color="#E5E3E3"/>
<stop offset="0.429688" stop-color="#E5E4E4"/>
<stop offset="0.433594" stop-color="#E6E5E5"/>
<stop offset="0.4375" stop-color="#E7E5E5"/>
<stop offset="0.441406" stop-color="#E8E6E6"/>
<stop offset="0.445312" stop-color="#E8E7E7"/>
<stop offset="0.449219" stop-color="#E9E8E8"/>
<stop offset="0.453125" stop-color="#EAE9E9"/>
<stop offset="0.457031" stop-color="#EBE9E9"/>
<stop offset="0.460938" stop-color="#EBEAEA"/>
<stop offset="0.464844" stop-color="#ECEBEB"/>
<stop offset="0.46875" stop-color="#ECEBEB"/>
<stop offset="0.472656" stop-color="#EDECEC"/>
<stop offset="0.476563" stop-color="#EDEDED"/>
<stop offset="0.480469" stop-color="#EEEDED"/>
<stop offset="0.484375" stop-color="#EFEEEE"/>
<stop offset="0.488281" stop-color="#EFEEEE"/>
<stop offset="0.492188" stop-color="#F0EFEF"/>
<stop offset="0.496094" stop-color="#F0F0F0"/>
<stop offset="0.5" stop-color="#F1F0F0"/>
<stop offset="0.503906" stop-color="#F1F1F1"/>
<stop offset="0.507812" stop-color="#F2F1F1"/>
<stop offset="0.511719" stop-color="#F3F2F2"/>
<stop offset="0.515625" stop-color="#F3F3F3"/>
<stop offset="0.519531" stop-color="#F4F3F3"/>
<stop offset="0.523438" stop-color="#F4F4F4"/>
<stop offset="0.527344" stop-color="#F5F4F4"/>
<stop offset="0.53125" stop-color="#F5F5F5"/>
<stop offset="0.535156" stop-color="#F6F6F6"/>
<stop offset="0.539062" stop-color="#F6F6F6"/>
<stop offset="0.542969" stop-color="#F7F7F7"/>
<stop offset="0.546875" stop-color="#F8F7F7"/>
<stop offset="0.550781" stop-color="#F8F8F8"/>
<stop offset="0.554687" stop-color="#F9F9F9"/>
<stop offset="0.558594" stop-color="#F9F9F9"/>
<stop offset="0.5625" stop-color="#FAFAFA"/>
<stop offset="0.566406" stop-color="#FAFAFA"/>
<stop offset="0.570313" stop-color="#FBFBFB"/>
<stop offset="0.578125" stop-color="#FBFBFB"/>
<stop offset="0.59375" stop-color="#FBFBFB"/>
<stop offset="0.625" stop-color="#FBFBFB"/>
<stop offset="0.75" stop-color="#FBFBFB"/>
<stop offset="1" stop-color="#FBFBFB"/>
</linearGradient>
</defs>
</svg>
