<svg width="345" height="68" viewBox="0 0 345 68" fill="none" xmlns="http://www.w3.org/2000/svg">
<g clip-path="url(#clip0_77_17335)">
<rect width="345" height="68" fill="url(#paint0_linear_77_17335)"/>
<path d="M-4.5316 165.67L-4.53159 -98.3287C-4.53159 -98.7046 -4.27228 -99 -3.94226 -99L274.322 -99L338.887 -99C339.217 -99 339.476 -98.7046 339.476 -98.3287L339.476 165.67C339.476 166.046 339.217 166.342 338.887 166.342L-3.94227 166.342C-4.27229 166.342 -4.5316 166.046 -4.5316 165.67ZM-3.35297 -97.6574L-3.35298 164.999L338.298 164.999L338.298 -97.6574L102.913 -97.6574L-3.35297 -97.6574Z" fill="#DFD4CF" fill-opacity="0.02"/>
<path d="M168.338 -66.2803C119.955 -66.2803 80.601 -21.4502 80.6009 33.6643C80.6009 88.7788 119.955 133.609 168.338 133.609C216.721 133.609 256.076 88.7788 256.076 33.6643C256.076 -21.4502 216.721 -66.2803 168.338 -66.2803ZM168.338 130.924C121.264 130.924 82.9582 87.2885 82.9582 33.6643C82.9582 -19.9599 121.264 -63.595 168.338 -63.595C215.413 -63.595 253.719 -19.9598 253.719 33.6643C253.719 87.2885 215.413 130.924 168.338 130.924Z" fill="#DFD4CF" fill-opacity="0.02"/>
<path d="M249.97 33.6506C249.97 27.0181 245.975 19.392 240.636 19.1369C238.75 19.0429 236.793 19.929 234.966 21.6879C233.917 22.1846 231.372 23.0842 228.59 21.8759C226.999 21.1777 225.667 19.956 224.653 18.2374C223.817 14.0887 222.626 10.0877 221.129 6.26119L241.037 -0.98898C241.425 -1.13667 241.743 -1.43206 241.932 -1.84828C242.121 -2.26449 242.156 -2.73438 242.026 -3.16402C241.897 -3.62051 241.602 -4.00991 241.213 -4.2113C240.824 -4.41269 240.376 -4.42614 239.987 -4.23818L220.634 4.98577C219.373 1.95145 217.912 -0.96203 216.273 -3.74125L234.943 -15.9458C235.296 -16.174 235.556 -16.55 235.662 -16.9931C235.768 -17.4361 235.721 -17.906 235.509 -18.3088C235.296 -18.725 234.943 -19.0338 234.519 -19.1412C234.094 -19.2486 233.658 -19.1411 233.316 -18.8726L215.649 -4.86917C215.649 -4.86917 215.637 -4.84228 215.625 -4.82885C213.928 -7.56779 212.054 -10.1591 210.015 -12.5623C210.086 -12.5892 210.156 -12.6294 210.215 -12.6966L226.221 -29.0899C226.527 -29.3987 226.704 -29.8284 226.728 -30.2983C226.751 -30.7548 226.61 -31.2113 226.339 -31.547C226.056 -31.9095 225.643 -32.1242 225.219 -32.1242C224.795 -32.1242 224.382 -31.923 224.088 -31.5739L209.39 -13.6632C209.39 -13.6632 209.296 -13.5291 209.272 -13.4485C207.198 -15.8115 204.97 -18 202.613 -20.0005C202.613 -20.0005 202.637 -20.0138 202.648 -20.0272L215.283 -39.8846C215.778 -40.6633 215.625 -41.7509 214.941 -42.3148C214.6 -42.5968 214.163 -42.7041 213.739 -42.6102C213.315 -42.5162 212.95 -42.2208 212.738 -41.8046L201.682 -20.7926C199.289 -22.726 196.755 -24.4445 194.115 -25.9617L202.578 -47.8195C202.743 -48.2492 202.754 -48.7191 202.601 -49.1487C202.448 -49.5783 202.165 -49.9274 201.8 -50.1153C201.411 -50.3167 200.963 -50.3167 200.574 -50.1153C200.185 -49.914 199.879 -49.538 199.737 -49.0815L193.007 -26.5926C189.377 -28.5529 185.534 -30.0969 181.551 -31.1576C180.242 -32.272 179.288 -33.6817 178.734 -35.3331C177.614 -38.6762 178.533 -41.6435 178.899 -42.5967C180.443 -44.6912 181.233 -46.9199 181.138 -49.0681C180.903 -55.1636 174.208 -59.7017 168.385 -59.7017C162.563 -59.7017 155.88 -55.1501 155.644 -49.0681C155.574 -46.9199 156.34 -44.6778 157.884 -42.5967C158.32 -41.4152 159.109 -38.5151 158.049 -35.3331C157.495 -33.6683 156.54 -32.272 155.232 -31.1576C151.295 -30.1103 147.512 -28.5932 143.929 -26.6733L137.128 -49.3903C136.986 -49.8468 136.692 -50.2227 136.291 -50.4241C135.902 -50.6255 135.454 -50.6255 135.065 -50.4241C134.5 -50.1422 134.158 -49.4978 134.158 -48.8265C134.158 -48.5982 134.205 -48.3565 134.288 -48.1283L142.833 -26.069C140.181 -24.5787 137.647 -22.8602 135.254 -20.9268C135.242 -20.9805 135.23 -21.0342 135.207 -21.0879L124.139 -42.1134C123.927 -42.5296 123.55 -42.825 123.138 -42.9189C122.713 -43.0129 122.277 -42.919 121.935 -42.6236C121.605 -42.3551 121.393 -41.9523 121.323 -41.4958C121.311 -41.4019 121.299 -41.3078 121.299 -41.2138C121.299 -40.8513 121.393 -40.5022 121.594 -40.1934L134.229 -20.3362C134.229 -20.3362 134.323 -20.2153 134.382 -20.1751C131.989 -18.1746 129.726 -15.9726 127.628 -13.5962C127.616 -13.7305 127.569 -13.8648 127.487 -13.9722L112.789 -31.8827C112.495 -32.2452 112.082 -32.4332 111.658 -32.4332C111.233 -32.4332 110.821 -32.2183 110.538 -31.8558C110.29 -31.5335 110.149 -31.1308 110.149 -30.7011C110.149 -30.6743 110.149 -30.6339 110.149 -30.6071C110.173 -30.1372 110.349 -29.7211 110.656 -29.4123L126.662 -13.0188C126.756 -12.9248 126.886 -12.8711 127.004 -12.8577C124.941 -10.441 123.032 -7.83624 121.311 -5.08388C121.287 -5.11073 121.264 -5.1511 121.228 -5.17795L103.56 -19.1814C103.207 -19.4633 102.771 -19.5574 102.346 -19.45C101.922 -19.3426 101.569 -19.0338 101.357 -18.6176C101.215 -18.3491 101.156 -18.0537 101.156 -17.7583C101.156 -17.1541 101.427 -16.5633 101.922 -16.2411L120.592 -4.03676C120.592 -4.03676 120.639 -4.02331 120.651 -4.00988C119.001 -1.24409 117.515 1.65594 116.243 4.69026L96.8659 -4.54696C96.4769 -4.73493 96.029 -4.72148 95.64 -4.52008C95.2511 -4.31869 94.9565 -3.92929 94.8268 -3.4728C94.7797 -3.29826 94.7561 -3.12369 94.7561 -2.93572C94.7561 -2.6672 94.8149 -2.39872 94.9209 -2.14362C95.1095 -1.72741 95.4278 -1.43202 95.8167 -1.28433L115.736 5.96585C114.18 9.87286 112.954 13.9811 112.094 18.2507C111.08 19.9692 109.76 21.1911 108.157 21.8893C105.387 23.0976 102.841 22.1981 101.792 21.7013C99.9538 19.9425 97.9972 19.0563 96.1114 19.1503C90.7604 19.4188 86.7767 27.045 86.7767 33.6775C86.7767 40.31 90.7722 47.9226 96.1114 48.1911C97.9972 48.2851 99.9538 47.399 101.792 45.6401C102.841 45.1434 105.375 44.2438 108.157 45.4521C110.561 46.4994 111.929 48.5804 112.648 50.1513C113.461 53.5616 114.522 56.8511 115.783 60.0197L95.8285 67.2831C95.4396 67.4308 95.1213 67.7262 94.9327 68.1424C94.8149 68.3975 94.7561 68.666 94.7561 68.9345C94.7561 69.1091 94.7797 69.2836 94.8268 69.4582C94.9565 69.9146 95.2511 70.3041 95.64 70.5054C96.029 70.7068 96.4769 70.7203 96.8659 70.5323L116.278 61.2817C117.551 64.316 119.012 67.2429 120.662 69.9952C120.639 69.9952 120.615 70.0087 120.592 70.0221L101.922 82.2265C101.427 82.5487 101.156 83.1395 101.156 83.7436C101.156 84.039 101.227 84.3344 101.357 84.6029C101.569 85.0192 101.922 85.3279 102.346 85.4354C102.771 85.5428 103.207 85.4354 103.549 85.1669L121.216 71.1633C121.216 71.1633 121.287 71.0828 121.323 71.0425C123.043 73.8083 124.953 76.4129 127.027 78.8431C126.897 78.8431 126.756 78.8968 126.65 79.0042L110.644 95.3976C110.338 95.7064 110.161 96.1361 110.137 96.5926C110.137 96.6195 110.137 96.6596 110.137 96.6865C110.137 97.1161 110.279 97.5189 110.526 97.8411C110.809 98.2037 111.222 98.4185 111.646 98.4185C112.07 98.4185 112.483 98.2171 112.777 97.868L127.475 79.9575C127.569 79.8367 127.616 79.7024 127.628 79.5547C129.738 81.9445 132.013 84.133 134.429 86.1335C134.358 86.1738 134.287 86.241 134.24 86.3215L121.617 106.179C121.429 106.474 121.323 106.837 121.323 107.199C121.323 107.293 121.323 107.387 121.346 107.481C121.405 107.938 121.629 108.34 121.959 108.609C122.301 108.891 122.737 108.998 123.161 108.904C123.586 108.81 123.951 108.515 124.163 108.099L135.23 87.0733C135.266 87.0062 135.289 86.9257 135.301 86.8452C137.705 88.7651 140.228 90.497 142.88 91.9873L134.311 114.1C134.229 114.328 134.181 114.57 134.181 114.798C134.181 115.47 134.523 116.101 135.089 116.396C135.478 116.598 135.926 116.598 136.315 116.396C136.704 116.195 137.01 115.819 137.152 115.362L143.976 92.5647C147.135 94.243 150.446 95.6392 153.888 96.6596C154.866 97.3309 157.082 99.1704 158.06 102.621C159.003 105.897 158.285 108.757 157.884 109.925C156.34 112.019 155.585 114.248 155.656 116.396C155.892 122.357 162.551 126.788 168.397 127.03C169.67 127.083 174.102 126.976 177.673 123.378C178.852 122.196 181.032 119.981 181.162 116.396C181.268 113.214 179.712 110.865 178.934 109.911C178.545 108.73 177.826 105.884 178.757 102.621C179.747 99.1704 181.963 97.3309 182.942 96.6596C186.489 95.6124 189.895 94.1759 193.148 92.4171L199.926 115.067C200.067 115.524 200.362 115.899 200.762 116.101C201.151 116.302 201.599 116.289 201.988 116.101C202.365 115.913 202.648 115.577 202.79 115.134C202.931 114.704 202.931 114.235 202.766 113.805L194.245 91.8128C196.896 90.2956 199.419 88.5502 201.812 86.6169C201.823 86.6706 201.823 86.7243 201.847 86.778L212.914 107.803C213.126 108.22 213.504 108.515 213.916 108.609C214.34 108.703 214.776 108.609 215.118 108.314C215.802 107.75 215.955 106.662 215.46 105.883L202.825 86.0262C202.825 86.0262 202.743 85.9321 202.696 85.8918C205.088 83.8779 207.339 81.6626 209.425 79.2594C209.425 79.407 209.484 79.5548 209.579 79.6622L224.276 97.5727C224.571 97.9352 224.984 98.1366 225.408 98.1232C225.832 98.1232 226.245 97.9083 226.527 97.5458C226.799 97.1967 226.94 96.7536 226.916 96.2971C226.893 95.8272 226.716 95.4111 226.409 95.0889L210.404 78.6954C210.297 78.588 210.156 78.5343 210.027 78.5343C212.089 76.0907 213.987 73.4727 215.696 70.6934C215.731 70.7606 215.778 70.8277 215.837 70.868L233.505 84.8716C233.858 85.1535 234.295 85.2474 234.719 85.14C235.143 85.0326 235.497 84.7238 235.709 84.3076C235.909 83.9048 235.968 83.4349 235.862 82.9919C235.756 82.5488 235.497 82.1728 235.143 81.9446L216.474 69.7402C216.474 69.7402 216.379 69.6999 216.332 69.6865C217.97 66.9207 219.397 63.9803 220.658 60.9326L240.188 70.237C240.577 70.425 241.025 70.4115 241.413 70.2101C241.802 70.0087 242.097 69.6193 242.227 69.1628C242.345 68.7198 242.321 68.2499 242.133 67.8337C241.944 67.4174 241.626 67.122 241.237 66.9744L221.165 59.6706C222.355 56.6094 223.381 53.4273 224.158 50.1379C224.877 48.567 226.233 46.4994 228.637 45.4387C231.419 44.2303 233.965 45.1299 235.014 45.6267C236.84 47.3855 238.797 48.2717 240.683 48.1777C246.034 47.9226 250.018 40.2966 250.018 33.6506L249.97 33.6506ZM240.588 46.8485C238.561 46.9425 236.793 45.6536 235.674 44.5527C235.627 44.5124 235.579 44.472 235.52 44.4452C234.401 43.8947 231.43 42.7804 228.177 44.1902C225.396 45.4119 223.852 47.7884 223.051 49.5741C223.039 49.6144 223.015 49.6411 223.015 49.6814C223.015 49.7083 223.003 49.7352 222.992 49.7621C217.723 72.1167 202.212 89.5975 182.517 95.3708C182.47 95.3842 182.411 95.4111 182.364 95.438C181.303 96.1495 178.722 98.2171 177.579 102.191C176.494 105.977 177.378 109.267 177.814 110.502C177.838 110.583 177.885 110.65 177.932 110.717C178.557 111.482 180.03 113.51 179.912 116.316C179.806 119.336 177.932 121.216 176.812 122.344C173.571 125.62 169.529 125.714 168.362 125.66C163.046 125.432 156.953 121.391 156.764 116.316C156.67 114.02 157.813 111.979 158.78 110.69C158.827 110.636 158.85 110.569 158.874 110.502C159.31 109.267 160.194 105.977 159.11 102.191C157.978 98.2305 155.397 96.1495 154.348 95.438C154.301 95.4111 154.253 95.3842 154.195 95.3708C134.511 89.5975 118.989 72.1166 113.709 49.7621C113.709 49.7621 113.697 49.7083 113.685 49.6814C113.685 49.6546 113.661 49.6144 113.65 49.5875C112.848 47.8018 111.292 45.4254 108.522 44.2036C105.269 42.7804 102.311 43.9081 101.191 44.4586C101.132 44.4855 101.085 44.5258 101.038 44.5661C99.9068 45.6671 98.1268 46.9559 96.0996 46.862C91.4793 46.6337 87.8963 39.5849 87.8963 33.6908C87.8963 27.7833 91.4793 20.7346 96.0996 20.5063C98.1268 20.3989 99.9068 21.7012 101.038 22.8022C101.085 22.8425 101.132 22.8828 101.191 22.9097C102.311 23.4602 105.269 24.5745 108.522 23.1647C110.385 22.3591 111.929 20.9226 113.084 18.8953C113.131 18.8147 113.154 18.7206 113.166 18.6266C117.94 -5.25854 134.547 -24.27 155.503 -29.815C155.597 -29.8284 155.691 -29.8686 155.774 -29.9358C157.33 -31.2247 158.45 -32.8627 159.11 -34.8095C160.335 -38.5419 159.369 -41.8986 158.897 -43.1741C158.874 -43.2412 158.839 -43.2948 158.803 -43.3485C157.837 -44.6374 156.705 -46.6649 156.787 -48.9742C156.988 -54.2372 163.176 -58.3187 168.35 -58.3187C173.536 -58.3187 179.724 -54.2372 179.936 -48.9742C179.983 -46.6783 178.887 -44.6374 177.921 -43.3485C177.885 -43.2948 177.85 -43.2411 177.826 -43.1874C177.437 -42.2207 176.282 -38.7433 177.602 -34.8095C178.262 -32.8627 179.382 -31.2247 180.938 -29.9358C181.008 -29.882 181.103 -29.8418 181.185 -29.815C202.142 -24.2699 218.76 -5.24503 223.51 18.5327C223.51 18.667 223.546 18.7879 223.604 18.8953C224.771 20.9092 226.303 22.3457 228.166 23.1647C231.419 24.5879 234.389 23.4602 235.509 22.9097C235.567 22.8828 235.615 22.8425 235.662 22.8022C236.793 21.7012 238.561 20.4124 240.577 20.5064C245.197 20.7346 248.78 27.77 248.78 33.6775C248.78 39.585 245.197 46.6337 240.577 46.862L240.588 46.8485Z" fill="#DFD4CF" fill-opacity="0.02"/>
<path d="M209.992 33.0328C210.369 28.8572 209.956 24.5878 208.789 20.6942C207.952 17.8747 206.196 11.994 200.951 7.9393C197.109 4.97212 193.09 4.27395 190.238 4.2471C189.248 2.47484 188.54 0.675688 187.88 -1.00258C186.537 -4.42626 185.346 -7.38007 182.341 -8.60185C181.339 -11.9047 179.783 -14.2677 177.697 -15.6237C175.988 -16.7381 174.55 -16.7782 172.57 -16.8319C171.403 -16.8588 170.095 -16.8992 168.35 -17.1543C165.451 -17.5705 164.107 -18.2014 163.023 -18.7116C161.95 -19.2084 161.031 -19.6381 159.287 -19.6247C154.054 -19.571 147.418 -15.7042 145.438 -8.61513C145.013 -7.1114 144.848 -5.66139 144.848 -4.2785C144.848 -1.13677 145.721 1.53504 146.451 3.26701C146.074 3.361 145.721 3.45493 145.402 3.54891C142.621 4.28735 141.489 4.58274 140.11 5.57628C136.032 6.39527 132.555 8.40914 130.08 11.3898C127.192 14.8537 126.485 19.0965 125.189 26.8032C124.104 33.2209 123.338 37.7991 123.338 41.7867C123.338 44.7001 123.751 47.3049 124.741 50.0841C126.014 53.6152 128.006 56.7971 130.681 59.536C131.011 60.7444 131.494 61.8588 132.225 62.906C135.396 67.4172 141.053 67.5247 143.634 67.3098C144.412 71.19 145.85 74.5467 147.948 77.3125C153.712 84.8983 163.294 86.5765 169.741 85.7038C174.479 85.0728 178.015 83.126 179.205 80.4945C179.323 80.2394 179.453 79.8903 179.606 79.4741C180.184 77.9032 181.068 75.5267 182.93 74.372C183.59 73.9558 184.262 73.7545 184.262 73.7545C185.228 73.4725 185.865 73.6068 186.678 73.7814C187.256 73.9022 187.916 74.0498 188.741 74.0229C189.401 74.0095 191.699 73.8082 193.349 72.0628C195.235 70.0757 195.329 67.1353 195.235 65.5778C196.213 65.0408 197.192 64.3695 198.158 63.5639C202.766 59.6703 204.605 54.4207 205.324 51.3595C206.703 50.5003 210.392 47.7614 211.37 42.3372C212.148 38.0677 210.781 34.5902 210.003 33.0462L209.992 33.0328ZM186.254 -0.183607C187.621 3.29378 189.318 7.61703 193.467 11.2555C194.327 12.0074 195.129 12.5982 195.907 13.1621C197.569 14.3705 199.018 15.4177 200.586 17.821C201.317 18.9488 202.672 21.3521 203.474 24.7086C203.98 26.8299 204.912 30.7639 203.509 34.9931C203.026 36.4431 202.378 38.4167 200.539 39.7324C199.254 40.6454 197.91 40.8603 196.897 40.8603C197.191 38.9135 197.262 36.1343 195.683 33.637C194.033 31.0458 191.569 30.2268 190.072 29.9852C190.638 25.7962 190.485 22.4664 188.847 19.0025C187.904 17.0288 186.69 15.4713 185.393 14.2495C185.181 12.249 184.851 10.2487 184.356 8.32871C183.001 3.0388 180.514 -2.58681 177.249 -6.64152C178.769 -7.16514 180.16 -7.25917 181.386 -6.85638C183.944 -6.02396 184.91 -3.58043 186.242 -0.183607L186.254 -0.183607ZM168.174 74.1305C167.961 74.2647 167.808 74.5064 167.749 74.7883C167.537 75.8893 167.03 77.3929 165.828 78.3461C164.803 79.1651 163.695 79.2323 163.212 79.2592C160.171 79.4203 153.264 76.5337 146.734 67.8872C142.833 62.7182 140.252 59.2945 140.051 54.1254C139.957 51.6013 140.452 49.2786 141.136 47.2781C144.554 48.9698 147.3 51.0911 149.304 53.6286C149.763 54.6088 150.376 55.6023 151.225 56.6227C151.767 57.6699 152.191 58.7439 152.639 59.8717C153.759 62.6778 154.926 65.5914 157.849 68.0349C159.911 69.7669 161.856 70.4114 162.787 70.7202C169.329 72.922 175.764 70.0488 179.406 67.8335C178.911 69.5655 177.827 71.9554 175.505 73.4054C172.605 75.2045 169.706 74.3586 168.881 74.0498C168.645 73.9558 168.386 73.9962 168.174 74.1305ZM164.449 14.7866C164.449 14.7866 164.461 14.7866 164.473 14.7866C164.531 14.7866 164.591 14.7866 164.649 14.7866C164.708 14.7866 164.767 14.7866 164.826 14.7866C164.826 14.7866 164.838 14.7866 164.85 14.7866C164.897 14.7732 164.944 14.733 164.98 14.7196C165.027 14.6927 165.074 14.6927 165.121 14.6524C166.476 13.632 171.356 10.4232 177.485 12.0209C179.099 12.4371 184.568 14.2496 187.303 19.9826C188.234 21.9428 188.623 23.8762 188.623 26.0647C188.623 27.461 188.47 28.9648 188.199 30.643C188.199 30.6967 188.175 30.737 188.175 30.7907C187.869 32.7241 187.421 34.8856 186.902 37.3963C185.299 45.1432 184.144 50.742 180.019 53.293C176.907 55.2264 172.876 55.0518 171.356 54.9847C170.825 54.9579 170.283 54.904 169.753 54.8369C171.544 54.179 173.242 53.2661 174.727 52.0577C180.938 47.0363 184.144 37.638 182.353 29.7165C182.023 28.2397 180.997 23.7285 177.332 20.8418C173.749 18.0089 168.114 17.1094 165.062 19.9155C164.308 19.0697 163.235 18.1835 161.821 17.6867C158.697 16.5724 155.975 18.0224 154.584 19.0159C154.655 18.8816 154.725 18.7339 154.808 18.5996C155.715 17.0153 156.446 16.3978 156.682 16.1964C159.287 13.9677 162.669 14.3704 164.449 14.8001L164.449 14.7866ZM177.874 10.0337C176.471 9.67119 175.127 9.53697 173.866 9.56382C173.607 7.80499 172.959 5.53595 171.415 3.50859C168.951 0.28631 165.687 -0.371581 164.107 -0.693808C161.385 -1.24428 159.829 -0.747455 155.692 0.541459C154.242 0.997948 152.451 1.56185 150.152 2.21973C149.704 2.35399 149.28 2.46143 148.879 2.58227C149.245 0.836863 149.893 -0.586347 150.848 -1.64702C151.708 -2.60027 152.38 -2.80165 153.488 -3.1373C154.49 -3.44611 155.751 -3.82212 157.507 -4.89621C159.157 -5.90318 160.135 -6.84294 161.007 -7.67536C162.08 -8.69575 162.858 -9.43412 164.508 -9.95774C164.696 -10.0114 166.429 -10.5351 168.244 -10.3472C175.399 -9.60872 180.773 1.54836 182.647 8.86563C182.954 10.0874 183.189 11.3361 183.378 12.5982C181.056 10.987 178.828 10.2621 177.85 10.0204L177.874 10.0337ZM153.441 56.2601C153.146 55.9647 152.875 55.6559 152.616 55.3605C152.097 54.367 151.484 53.4272 150.801 52.541C150.034 50.8762 149.74 49.1174 149.976 47.3451C150.376 44.2974 152.191 41.6927 154.784 40.3098C154.808 40.3904 154.831 40.471 154.855 40.5516C156.635 45.6938 161.385 49.0772 166.406 48.7549C173.124 48.3387 176.306 41.3436 176.341 41.2765C178.322 36.8458 178.722 30.2671 174.892 26.293C172.299 23.5943 168.468 22.8021 164.826 24.0776C164.991 23.2586 165.274 22.5469 165.687 21.983C167.785 19.1904 173.136 19.9557 176.33 22.4798C179.453 24.9502 180.349 28.8975 180.643 30.1999C182.258 37.3426 179.335 45.8414 173.701 50.3929C171.356 52.2994 168.492 53.4808 165.427 53.8299C165.427 53.8299 165.427 53.8299 165.415 53.8299C165.309 53.8433 165.215 53.8837 165.133 53.924C165.109 53.9374 165.074 53.9643 165.05 53.9777C164.991 54.018 164.932 54.0717 164.885 54.1254C164.862 54.1523 164.838 54.1925 164.814 54.2193C164.767 54.2865 164.744 54.3536 164.708 54.4342C164.708 54.461 164.685 54.4744 164.673 54.5012C164.673 54.5146 164.673 54.5281 164.673 54.5415C164.673 54.555 164.661 54.5684 164.661 54.5953C164.414 55.9111 163.836 57.6967 162.492 58.7171C159.77 60.7713 155.503 58.274 153.452 56.2198L153.441 56.2601ZM163.612 26.5749C163.612 26.5749 163.624 26.5749 163.636 26.5749C166.653 27.179 169.222 29.9314 169.741 33.1134C169.906 34.1606 170.142 36.7787 168.621 38.6047C167.737 39.6653 165.875 40.9274 164.343 40.0815C163.471 39.5982 162.386 38.2288 162.693 36.6982C162.905 35.6376 163.73 34.7648 164.791 34.4695C165.262 34.3352 165.557 33.7981 165.451 33.2611C165.333 32.724 164.862 32.3885 164.39 32.5093C162.681 32.9792 161.337 34.4425 160.972 36.2416C160.477 38.6986 161.938 40.9812 163.565 41.8807C165.793 43.1159 168.409 41.7598 169.894 39.9742C171.356 38.2153 171.922 35.5703 171.462 32.7374C170.967 29.7165 169.116 27.0717 166.63 25.6216C169.258 25.1249 171.851 25.8767 173.678 27.7698C177.296 31.5291 175.964 37.6381 174.75 40.3636C174.727 40.4173 172.004 46.3919 166.299 46.741C162.033 47.0095 157.99 44.1497 156.493 39.7996C154.843 35.0199 156.364 28.9513 159.676 27.0582C161.314 26.1183 163.023 26.454 163.6 26.5614L163.612 26.5749ZM153.075 23.5405C153.688 22.4127 154.513 21.4461 155.456 20.7479C156.564 19.9424 158.792 18.707 161.29 19.5931C162.434 19.9959 163.282 20.7345 163.883 21.4192C163.4 22.2785 163.093 23.2855 162.964 24.4401C161.95 24.3462 160.43 24.373 158.886 25.2591C155.868 26.9777 154.054 31.2337 154.054 35.6375C154.054 36.5371 154.136 37.4501 154.301 38.3496C151.036 39.9608 148.738 43.2099 148.231 47.0363C148.172 47.5063 148.125 48.0299 148.125 48.5804C148.125 48.9295 148.149 49.3053 148.184 49.6813C146.404 48.0567 144.283 46.6336 141.855 45.4253C142.774 43.3442 143.799 41.7733 144.33 40.9811C145.968 38.5107 147.194 37.6246 148.278 36.8459C149.445 36.0001 150.553 35.2079 151.531 32.8315C152.498 30.4953 152.651 28.3739 152.792 26.3331C152.863 25.3933 152.922 24.4669 153.063 23.5271L153.075 23.5405ZM180.585 64.826C180.585 64.826 180.514 64.8529 180.467 64.8664C180.408 64.8798 180.361 64.8931 180.314 64.92C180.29 64.92 180.278 64.9468 180.255 64.9603L180.231 64.9603C177.497 66.9071 170.389 71.1631 163.282 68.7733C162.445 68.4913 160.701 67.9007 158.886 66.3835C156.505 64.3964 155.456 62.0467 154.454 59.5495C157 61.268 160.583 62.5838 163.447 60.4222C164.944 59.2944 165.722 57.5759 166.135 56.0721C167.82 56.5823 169.541 56.8912 171.273 56.9718C172.923 57.0389 177.32 57.2268 180.844 55.0383C185.665 52.0443 186.961 45.7743 188.599 37.826C189.047 35.6778 189.448 33.7444 189.754 31.9588C190.898 32.1467 192.948 32.7643 194.233 34.8051C195.895 37.4098 195.176 40.5516 194.834 42.0553C194.056 45.4521 192.053 47.5599 190.921 48.5132C190.627 48.7549 190.509 49.1711 190.591 49.5739C190.803 50.5137 191.687 55.4143 188.823 59.845C185.924 64.3293 181.492 64.7723 180.632 64.8126L180.608 64.8126C180.596 64.8126 180.573 64.8126 180.561 64.8126L180.585 64.826ZM147.123 -8.01101C148.856 -14.2005 154.69 -17.5839 159.298 -17.6242C160.689 -17.6242 161.349 -17.3287 162.351 -16.8588C163.53 -16.3084 164.991 -15.6236 168.126 -15.1671C169.953 -14.8986 171.379 -14.8583 172.523 -14.8315C174.373 -14.7778 175.493 -14.751 176.825 -13.8782C178.286 -12.925 179.441 -11.3139 180.278 -9.09861C178.899 -9.20602 177.414 -8.89717 175.858 -8.21244C173.642 -10.4949 171.132 -12.0388 168.433 -12.3208C166.347 -12.5356 164.437 -11.9852 164.072 -11.8643C162.045 -11.2333 161.007 -10.2398 159.9 -9.19253C159.098 -8.42723 158.179 -7.5545 156.694 -6.64152C155.114 -5.67483 154.018 -5.33927 153.052 -5.05732C151.861 -4.69481 150.824 -4.38602 149.634 -3.05683C148.679 -1.99616 147.984 -0.626541 147.5 0.957748C146.746 -1.31128 146.168 -4.54703 147.135 -7.98414L147.123 -8.01101ZM150.6 4.1799C152.91 3.50859 154.714 2.94468 156.175 2.48819C160.253 1.2127 161.479 0.823487 163.813 1.2934C165.286 1.58878 168.032 2.1391 170.083 4.82433C171.309 6.43548 171.851 8.23474 172.087 9.68477C168.999 10.101 166.547 11.363 165.121 12.2759C164.72 11.1481 164.037 9.9263 162.893 9.04018C159.782 6.66374 155.727 8.83879 154.56 9.55038C153.287 10.3425 152.698 11.0944 152.073 11.8865C151.555 12.5578 151.024 13.2426 149.94 14.1288C148.502 15.2968 147.677 15.5385 146.805 15.7936C145.992 16.0218 145.155 16.2636 144.012 17.19C140.264 20.1706 138.755 25.8632 137.164 31.905L137.011 32.4958C136.645 33.9324 136.315 35.1676 135.443 36.6176C134.7 37.8394 133.734 38.9135 132.591 39.813C133.31 33.9995 133.286 30.2268 133.262 27.1388C133.239 23.2184 133.215 20.627 134.854 16.4111C135.82 13.9407 137.27 10.2083 140.629 7.56333C140.735 7.48277 140.829 7.41559 140.923 7.34846C140.923 7.34846 140.923 7.34846 140.935 7.34846C142.126 6.47576 143.033 6.23408 145.803 5.49564C147.017 5.17341 148.549 4.77065 150.6 4.1799ZM126.379 49.3053C124.211 43.2501 125.118 37.8796 126.921 27.1655C128.253 19.2844 128.937 15.6862 131.365 12.7593C132.85 10.9736 134.759 9.57731 136.963 8.62405C135.019 11.0945 133.946 13.7931 133.239 15.6056C131.435 20.2242 131.471 23.1377 131.494 27.1655C131.518 30.5355 131.553 34.7379 130.563 41.6256L130.457 42.3506C130.139 44.4854 129.774 47.0364 129.774 50.2721C129.774 51.0777 129.797 51.9235 129.844 52.8097C129.915 53.9106 129.974 54.9578 130.08 55.9648C128.489 53.9374 127.251 51.7087 126.391 49.292L126.379 49.3053ZM133.604 61.6306C132.001 59.3347 131.824 56.4078 131.601 52.6887C131.341 48.446 131.813 45.2641 132.19 42.6997L132.225 42.4311C134.17 41.2227 135.738 39.6788 136.893 37.7857C137.93 36.0671 138.307 34.6171 138.696 33.0865L138.849 32.5093C140.417 26.5749 141.772 21.4461 145.013 18.8682C145.897 18.1566 146.487 17.9955 147.241 17.7806C148.184 17.5121 149.256 17.2034 150.965 15.807C152.203 14.7866 152.84 13.981 153.393 13.2695C153.971 12.5176 154.395 11.9806 155.397 11.363C156.352 10.7723 159.617 8.99992 161.903 10.7453C162.54 11.2287 162.964 11.8865 163.258 12.5578C161.09 12.2893 158.108 12.4504 155.609 14.5852C154.796 15.2834 154.042 16.2367 153.311 17.4987C151.401 20.8016 151.213 23.5405 151.024 26.1989C150.883 28.1457 150.753 29.9852 149.928 31.9991C149.162 33.8385 148.432 34.3755 147.324 35.1676C146.169 36.0001 144.742 37.0338 142.904 39.7996C141.737 41.5719 138.26 46.808 138.26 53.4943C138.26 53.7359 138.26 53.9776 138.271 54.2193C138.436 58.5694 140.075 61.8052 142.538 65.3497C140.11 65.4034 135.914 64.9603 133.592 61.644L133.604 61.6306ZM192.135 70.5725C190.945 71.8345 189.189 71.9821 188.682 71.9956C188.057 72.009 187.539 71.9016 186.996 71.7941C186.101 71.6062 185.158 71.4048 183.814 71.7941C183.779 71.7941 182.918 72.0494 182.058 72.5999C179.665 74.1036 178.593 76.9767 177.968 78.6952C177.838 79.0443 177.732 79.3397 177.626 79.568C176.73 81.5416 173.548 83.1527 169.517 83.7032C163.494 84.5087 154.572 82.9782 149.268 75.9965C148.042 74.372 147.088 72.4925 146.345 70.4248C153.5 79.2995 160.489 81.4342 163.282 81.2731C163.86 81.2463 165.38 81.1656 166.818 80.011C168.126 78.9637 168.822 77.5138 169.211 76.2517C170.731 76.6277 173.536 76.923 176.341 75.1776C179.901 72.9623 181.044 69.0686 181.398 67.095C183.59 67.6857 188.399 68.5183 193.467 66.4104C193.467 67.6456 193.243 69.4179 192.124 70.5859L192.135 70.5725ZM204.169 49.7485C203.933 49.8827 203.756 50.1244 203.698 50.4198C203.12 53.1319 201.494 58.2203 197.097 61.9259C192.937 65.4436 188.328 65.9001 185.087 65.645C186.808 64.826 188.729 63.4163 190.273 61.0265C193.172 56.5421 192.76 51.6415 192.453 49.7216C193.762 48.4998 195.636 46.2442 196.496 42.8474C197.793 42.9145 199.679 42.7265 201.494 41.4241C203.827 39.7593 204.664 37.2084 205.171 35.6913C206.786 30.8579 205.701 26.3466 205.183 24.1715C204.31 20.4927 202.825 17.8478 202.012 16.6126C200.244 13.9139 198.606 12.719 196.873 11.457C196.131 10.9199 195.365 10.3561 194.563 9.65789C193.349 8.59722 192.383 7.46944 191.569 6.31479C194.009 6.5296 197.05 7.3351 199.961 9.5907C204.711 13.256 206.338 18.7071 207.116 21.3252C208.224 25.0576 208.601 29.1393 208.2 33.1268C208.176 33.3551 208.224 33.5833 208.33 33.7713C208.954 34.9259 210.333 38.0274 209.626 41.8942C208.695 47.0096 204.912 49.3188 204.169 49.735L204.169 49.7485Z" fill="#DFD4CF" fill-opacity="0.02"/>
<path d="M243.806 30.2943C243.806 30.2943 243.806 30.2003 243.806 30.1601C243.771 28.3744 242.934 27.5016 242.238 27.072C241.048 26.3335 239.339 26.4006 238.184 27.2062C236.44 28.428 235.839 29.0859 234.766 30.2808L234.672 30.3882C234.483 30.603 234.283 30.8178 234.082 31.0461C233.198 32.0262 232.279 33.0466 231.69 33.4763C231.654 33.4763 231.607 33.5165 231.572 33.5568L231.525 33.5836L231.525 33.6777L231.525 33.7582L231.56 33.7851C231.56 33.7851 231.643 33.8521 231.678 33.8655C232.267 34.2952 233.187 35.3156 234.071 36.2957C234.271 36.5106 234.46 36.7388 234.66 36.9536L234.754 37.061C235.839 38.2559 236.428 38.9004 238.172 40.1356C239.327 40.9546 241.036 41.0083 242.227 40.2698C242.922 39.8402 243.759 38.9542 243.794 37.1819C243.794 37.1416 243.794 37.0878 243.794 37.0475C243.794 34.8456 242.58 33.9999 241.661 33.6643C242.58 33.342 243.794 32.4827 243.794 30.2808L243.806 30.2943Z" fill="#DFD4CF" fill-opacity="0.02"/>
<path d="M101.12 36.497C102.169 35.49 103.289 34.5635 104.456 33.7311L104.656 33.5969L104.456 33.4492C103.148 32.496 101.887 31.4219 100.72 30.2807C99.9065 29.4751 99.1169 28.6292 98.3861 27.7565L98.2799 27.6357L98.1738 27.7565C97.1719 28.9112 96.0994 30.012 94.9797 31.019C94.0368 31.8783 93.0349 32.6974 92.0095 33.4492L91.821 33.5834L92.0095 33.7311C92.9996 34.483 93.9663 35.3021 94.8856 36.1613C96.0289 37.222 97.113 38.3766 98.1384 39.5849L98.2445 39.7193L98.3507 39.5849C99.2111 38.4974 100.142 37.4637 101.132 36.5104L101.12 36.497Z" fill="#DFD4CF" fill-opacity="0.02"/>
<path d="M98.7755 141.584L236.193 141.584C236.794 150.163 243.099 156.93 250.784 156.93C258.469 156.93 264.48 150.459 265.328 142.175C272.07 142.134 278.67 141.06 284.964 138.966C295.077 135.609 303.799 130.386 310.847 123.606C312.45 124.358 314.1 124.815 315.774 124.922C323.942 125.446 329.611 117.914 330.672 116.396C335.929 108.851 336.542 97.1432 332.086 89.168C331.344 87.8254 330.283 86.3217 329.034 84.9656L329.034 67.6593C331.98 67.2565 334.267 64.4236 334.267 60.973C334.267 57.2406 331.603 54.2062 328.326 54.2062C325.05 54.2062 322.386 57.2406 322.386 60.973C322.386 64.2893 324.496 67.0416 327.266 67.6189L327.266 83.2605C325.286 81.6091 323.046 80.6021 320.925 81.2197C319.369 81.6627 318.721 82.7637 317.542 84.7508C317.012 85.6369 316.352 86.7513 315.42 88.1611C314.937 88.8995 310.482 95.4917 304.4 100.715C302.078 102.702 299.544 104.474 296.833 105.964C296.822 105.964 296.81 105.978 296.798 105.991C294.382 106.85 292.614 109.388 292.614 112.422C292.614 116.155 295.277 119.189 298.554 119.189C301.831 119.189 304.494 116.155 304.494 112.422C304.494 109.455 302.797 106.958 300.464 106.045C302.208 104.903 303.893 103.668 305.461 102.326C309.763 98.6201 313.275 94.2699 315.22 91.6518C316.033 96.4047 316.446 101.789 315.468 104.501C315.279 105.011 314.949 105.951 314.171 106.367C313.641 106.649 312.556 106.797 311.932 106.031C311.79 105.843 311.672 105.628 311.602 105.4C311.755 105.441 311.908 105.467 312.061 105.467C313.122 105.467 313.983 104.487 313.983 103.279C313.983 102.071 313.122 101.09 312.061 101.09C311.507 101.09 311.012 101.359 310.67 101.789C310.647 101.816 310.623 101.829 310.6 101.856C310.564 101.909 310.541 101.963 310.506 102.003C310.482 102.044 310.458 102.084 310.435 102.111C309.963 102.89 309.716 103.789 309.716 104.662C309.716 105.655 310.022 106.635 310.623 107.374C311.814 108.837 313.676 108.824 314.902 108.18C316.316 107.441 316.87 105.91 317.106 105.239C318.626 101.01 317.259 92.7125 316.658 89.611C316.729 89.5036 316.788 89.4097 316.823 89.356C317.778 87.906 318.45 86.7782 318.992 85.8652C320.135 83.9319 320.477 83.4082 321.337 83.1666C324.472 82.267 328.621 86.7648 330.566 90.2422C334.632 97.5326 334.066 108.247 329.258 115.148C328.303 116.531 323.152 123.378 315.845 122.908C314.654 122.827 313.488 122.559 312.333 122.102C316.434 117.873 319.923 113.067 322.716 107.75C324.743 103.897 326.405 99.7612 327.667 95.4514C327.867 94.7532 327.537 93.9881 326.924 93.7598C326.311 93.5316 325.639 93.9075 325.439 94.6057C324.237 98.7275 322.645 102.688 320.712 106.367C313.252 120.572 300.664 130.95 284.293 136.388C278.235 138.402 271.882 139.436 265.387 139.489C265.034 130.641 258.622 123.566 250.772 123.566C242.922 123.566 236.794 130.333 236.181 138.912L98.7637 138.912C98.1626 130.346 91.8571 123.566 84.1724 123.566C76.4877 123.566 69.9343 130.615 69.5571 139.436C63.0628 139.382 56.6985 138.348 50.6403 136.334C34.269 130.897 21.681 120.518 14.2203 106.313C12.2873 102.621 10.6961 98.6738 9.49393 94.5519C9.29358 93.8538 8.62173 93.4644 8.00885 93.7061C7.51382 93.894 7.20746 94.4176 7.20746 94.9815C7.20746 95.1157 7.23108 95.2635 7.26645 95.4112C8.52759 99.721 10.1894 103.856 12.2166 107.709C15.01 113.026 18.4988 117.833 22.6005 122.062C21.4454 122.505 20.2786 122.787 19.0882 122.868C11.7924 123.338 6.64166 116.49 5.67517 115.107C0.866331 108.193 0.300749 97.4923 4.36706 90.2019C6.3118 86.711 10.4604 82.2132 13.5955 83.1262C14.4677 83.3813 14.7978 83.8915 15.9528 85.8249C16.495 86.7379 17.1669 87.8657 18.1216 89.3157C18.157 89.3694 18.2158 89.4634 18.2865 89.5709C17.8858 91.6385 17.1551 96.002 17.1551 99.9493C17.1551 101.923 17.3437 103.789 17.8388 105.199C18.0745 105.857 18.6286 107.387 20.0429 108.126C21.2687 108.77 23.1308 108.784 24.3213 107.32C25.4528 105.924 25.5116 103.709 24.4979 102.057C24.4744 102.017 24.451 101.977 24.4274 101.936C24.3921 101.883 24.3684 101.829 24.3331 101.789C24.3095 101.762 24.2858 101.748 24.2623 101.721C23.9087 101.292 23.4137 101.023 22.8715 101.023C21.8108 101.023 20.9502 102.003 20.9502 103.212C20.9502 104.42 21.8108 105.4 22.8715 105.4C23.0366 105.4 23.1897 105.373 23.3429 105.333C23.2722 105.561 23.1661 105.79 23.0128 105.964C22.3882 106.729 21.3039 106.582 20.7736 106.3C19.9957 105.897 19.6537 104.944 19.4769 104.434C18.5105 101.721 18.9232 96.3377 19.7247 91.5848C21.6694 94.2029 25.1815 98.5663 29.4835 102.259C31.0511 103.615 32.7368 104.85 34.4812 105.978C32.1475 106.891 30.4501 109.388 30.4501 112.355C30.4501 116.088 33.1139 119.122 36.3905 119.122C39.6671 119.122 42.3308 116.088 42.3308 112.355C42.3308 109.321 40.551 106.77 38.1348 105.924C38.1348 105.924 38.123 105.91 38.1112 105.897C35.4121 104.407 32.8664 102.635 30.5563 100.647C24.4745 95.4247 20.0192 88.8323 19.5359 88.0938C18.6048 86.6841 17.9447 85.5833 17.4143 84.6837C16.2357 82.6966 15.5876 81.6091 14.0318 81.1526C11.922 80.5484 9.68249 81.5554 7.69058 83.1934L7.69058 67.5519C10.4604 66.9746 12.5703 64.2221 12.5703 60.9058C12.5703 57.1733 9.90656 54.1391 6.62994 54.1391C3.35333 54.1391 0.689575 57.1733 0.689575 60.9058C0.689575 64.3698 2.98785 67.1893 5.92264 67.592L5.92264 84.8984C4.68509 86.2545 3.62448 87.7582 2.87018 89.1008C0.878264 92.6722 -0.100008 96.9954 -0.100008 101.359C-0.100008 106.729 1.38504 112.167 4.28445 116.343C5.33346 117.86 11.0143 125.392 19.1823 124.868C20.856 124.761 22.5062 124.304 24.1092 123.552C31.1574 130.346 39.8793 135.556 49.9919 138.912C56.2859 141.007 62.8861 142.067 69.6397 142.121C70.4647 150.445 76.6645 156.93 84.1842 156.93C91.7038 156.93 98.1626 150.163 98.7755 141.584ZM324.142 60.9596C324.142 58.3415 326.016 56.2067 328.315 56.2067C330.613 56.2067 332.487 58.3415 332.487 60.9596C332.487 63.5777 330.613 65.7125 328.315 65.7125C326.016 65.7125 324.142 63.5777 324.142 60.9596ZM302.727 112.409C302.727 115.027 300.852 117.162 298.554 117.162C296.256 117.162 294.382 115.027 294.382 112.409C294.382 109.791 296.256 107.656 298.554 107.656C300.852 107.656 302.727 109.791 302.727 112.409ZM40.5747 112.355C40.5747 114.973 38.7006 117.108 36.4023 117.108C34.1039 117.108 32.2299 114.973 32.2299 112.355C32.2299 109.737 34.1039 107.602 36.4023 107.602C38.7006 107.602 40.5747 109.737 40.5747 112.355ZM2.45752 60.9193C2.45752 58.3012 4.3316 56.1665 6.62994 56.1665C8.92828 56.1665 10.8023 58.3012 10.8023 60.9193C10.8023 63.5374 8.92828 65.6722 6.62994 65.6722C4.3316 65.6722 2.45752 63.5374 2.45752 60.9193ZM250.772 126.251C257.549 126.251 263.066 132.535 263.066 140.255C263.066 147.975 257.549 154.258 250.772 154.258C243.995 154.258 238.479 147.975 238.479 140.255C238.479 132.535 243.995 126.251 250.772 126.251ZM71.8911 140.241C71.8911 132.521 77.407 126.238 84.1842 126.238C90.9613 126.238 96.4772 132.521 96.4772 140.241C96.4772 147.961 90.9613 154.245 84.1842 154.245C77.407 154.245 71.8911 147.961 71.8911 140.241Z" fill="#DFD4CF" fill-opacity="0.02"/>
<path d="M306.369 4.89185C303.387 2.78394 299.957 3.28069 297.67 4.03255C296.551 2.30058 294.771 0.313502 292.201 -0.330955C287.063 -1.61987 281.841 3.37468 279.967 8.74516C279.401 10.3429 279.119 12.0749 279.119 13.8741C279.119 13.9009 279.119 13.9277 279.119 13.9545C278.4 14.6258 277.692 15.4181 277.056 16.3982C276.313 17.526 275.795 18.7075 275.406 19.889C274.758 18.8283 273.98 17.9018 273.084 17.1634C269.43 14.1559 265.223 15.0554 264.009 15.4045C263.667 15.4985 263.431 15.8476 263.431 16.2503C263.431 16.2503 263.431 16.2638 263.431 16.2772C263.431 16.68 263.702 17.0291 264.056 17.1096C265.729 17.4721 268.228 18.3852 270.538 20.7079C272.388 22.5607 273.461 24.6552 274.098 26.3872L268.358 27.6225C268.075 27.6762 267.851 27.9178 267.768 28.2266C267.686 28.5354 267.768 28.8711 267.969 29.0993L270.786 32.2141L262.865 32.2141C262.441 32.2141 262.099 32.6035 262.099 33.0868C262.099 33.5702 262.441 33.9596 262.865 33.9596L270.703 33.9596L267.863 36.9536C267.697 37.1147 267.615 37.3563 267.615 37.598C267.615 37.692 267.627 37.7727 267.65 37.8666C267.745 38.1889 267.992 38.4305 268.287 38.4707L274.227 39.33C273.614 41.1157 272.53 43.3713 270.55 45.3584C268.228 47.6945 265.741 48.6076 264.067 48.9567C263.714 49.0372 263.454 49.3729 263.443 49.7891C263.443 49.7891 263.443 49.8024 263.443 49.8158C263.443 50.2186 263.679 50.5677 264.02 50.6617C265.223 51.0107 269.442 51.9104 273.096 48.9029C273.98 48.1779 274.758 47.2515 275.406 46.2042C275.712 47.6006 276.195 48.9298 277.044 50.259C277.798 51.4539 278.765 52.4742 279.861 53.3335C280.026 55.7368 280.745 59.8587 283.645 63.2153C283.88 63.4972 289.538 69.9418 294.7 67.2028C296.562 66.2227 297.67 64.4102 298.307 62.8662C299.533 63.1616 300.876 63.2689 302.314 63.0004C302.574 62.9467 308.808 61.725 310.388 55.804C310.942 53.7364 310.73 51.8029 310.376 50.3663C311.248 49.8024 312.05 49.064 312.686 48.151C314.725 45.1972 314.43 41.7199 314.206 40.3773C315.09 39.1287 317.259 35.4633 316.47 30.8849C316.081 28.6025 315.09 26.8974 314.23 25.7831C315.067 22.0237 313.759 18.0898 310.989 15.8611C310.977 14.1023 310.6 7.87246 306.392 4.89185L306.369 4.89185ZM281.393 9.38959C283.044 4.66357 287.652 0.313527 291.871 1.3742C293.781 1.85754 295.184 3.26736 296.138 4.63683C294.653 5.32157 293.722 6.16742 292.826 6.98641C291.706 8.0068 290.658 8.95999 288.465 9.76556C287.428 10.1415 286.839 10.2221 286.249 10.3026C285.566 10.3966 284.859 10.5039 283.633 11.041C283.032 11.3095 281.947 11.7929 280.71 12.6522C280.804 11.511 281.028 10.41 281.393 9.38959ZM284.187 12.6657C285.236 12.1957 285.801 12.1152 286.45 12.0212C287.074 11.9272 287.77 11.8332 288.937 11.4035C291.4 10.504 292.673 9.34942 293.792 8.32903C294.724 7.48318 295.596 6.69095 297.093 6.05992C298.99 5.2812 302.597 4.2742 305.556 6.35526C308.549 8.46317 309.233 12.6388 309.386 14.8273C306.522 13.4712 303.222 14.0888 300.841 16.4518C296.728 15.6999 291.306 16.1698 286.568 17.9286C281.358 19.862 277.669 23.044 276.007 26.9913C275.96 24.1449 276.266 20.5333 278.294 17.4319C280.297 14.3707 283.126 13.1221 284.199 12.6522L284.187 12.6657ZM311.507 29.1932C311.26 30.8849 310.423 32.0396 309.728 32.7512C309.692 32.4961 309.681 32.2411 309.622 31.9994C309.362 30.7105 308.891 29.5155 308.231 28.428C308.667 27.0719 309.103 24.8834 308.467 22.6144C309.174 23.0037 309.964 23.6348 310.576 24.6686C310.965 25.2996 311.814 27.0182 311.496 29.2067L311.507 29.1932ZM310.034 43.1699C309.35 43.7204 308.632 43.9218 308.019 43.9755C309.751 41.156 309.869 36.873 309.857 35.2484C310.47 35.7184 311.331 36.5911 311.661 37.9874C312.12 39.9074 311.46 42.0287 310.034 43.1565L310.034 43.1699ZM276.561 32.966C276.632 31.5966 277.032 28.522 279.119 26.8974C280.215 26.0515 282.218 25.3264 285.566 26.6422C289.891 28.3473 292.143 32.8452 294.335 37.1953C296.539 41.5723 298.625 45.7074 302.621 46.4593C303.846 46.6875 304.789 46.4997 305.449 46.2446C305.249 46.8487 304.978 47.3722 304.613 47.7884C303.292 49.319 301.1 49.3058 297.776 48.7821C288.807 47.3724 284.304 46.6608 281.122 43.0357C278.859 40.4579 277.292 36.9805 276.561 32.966ZM305.273 44.4722C304.613 44.8213 303.764 44.9154 302.856 44.7543C299.58 44.1501 297.753 40.5384 295.655 36.3495C295.431 35.9064 295.195 35.4365 294.96 34.98L297.128 34.98C297.27 36.0004 297.541 36.8194 297.753 37.343C298.095 38.1754 299.403 40.9545 302.184 41.9212C302.644 42.0823 303.587 42.4181 304.695 42.2167C305.862 42.0019 306.946 41.2366 307.842 40.0417C307.441 41.8811 306.687 43.7204 305.273 44.4722ZM303.952 26.6021C304.695 26.7229 305.308 27.1927 305.803 27.7164C305.143 27.8506 304.412 28.1326 303.717 28.7233C301.701 30.4285 301.418 33.4762 301.996 35.5841C302.538 37.598 303.552 38.887 304.836 39.2227C305.379 39.3704 305.932 39.3435 306.486 39.1689C305.873 39.894 305.178 40.3639 304.447 40.4981C303.693 40.6324 302.998 40.3907 302.621 40.2698C300.452 39.518 299.403 37.2892 299.132 36.6179C298.825 35.8661 298.342 34.3221 298.637 32.5096C299.108 29.5156 301.583 26.2261 303.952 26.6155L303.952 26.6021ZM308.219 34.1072C308.219 34.1072 308.29 34.1743 308.313 34.2146C308.313 34.3489 308.313 34.4697 308.313 34.604C308.313 34.604 308.29 34.604 308.278 34.6309C307.347 35.5036 306.428 35.5305 306.263 35.3425C306.168 35.2485 306.086 34.7652 306.251 34.161C306.392 33.6105 306.687 33.1809 306.97 33.1272C307.3 33.06 307.854 33.4091 308.219 34.1341L308.219 34.1072ZM306.687 31.3951C305.815 31.5831 305.107 32.429 304.789 33.6508C304.695 34.0133 304.636 34.4161 304.636 34.8189C304.636 35.4768 304.789 36.1211 305.214 36.5911C305.591 37.0073 306.133 37.1819 306.734 37.155C306.204 37.5041 305.65 37.6384 305.202 37.5175C304.471 37.3296 303.858 36.4568 303.481 35.0605C303.045 33.4627 303.304 31.2609 304.66 30.1197C305.461 29.4484 306.357 29.3409 306.982 29.3678C307.394 30.0525 307.724 30.7775 307.948 31.5562C307.535 31.3683 307.111 31.3011 306.711 31.3951L306.687 31.3951ZM305.72 22.8292C306.663 23.7422 306.864 25.246 306.84 26.4409C306.168 25.7159 305.284 25.058 304.176 24.8835C300.888 24.333 297.741 28.2802 297.128 32.1872C297.069 32.5497 297.045 32.8854 297.034 33.2211L295.03 33.2211C296.456 28.8039 299.426 22.3593 303.009 22.0371C303.434 21.9968 304.742 21.8894 305.709 22.8158L305.72 22.8292ZM305.768 20.8287C304.954 20.3991 304 20.2111 302.904 20.3051C298.048 20.7213 294.865 28.7904 293.639 32.5229C291.812 29.3409 289.538 26.3737 286.061 25.0042C282.808 23.7153 280.568 24.1451 279.107 24.9238C280.91 22.695 283.609 20.8689 287.051 19.5935C293.557 17.1902 301.678 17.2842 304.777 19.8218C305.166 20.144 305.497 20.4796 305.779 20.8287L305.768 20.8287ZM271.552 19.4191C270.42 18.2913 269.265 17.4588 268.157 16.8412C269.43 17.0157 270.856 17.499 272.188 18.5865C273.284 19.486 274.204 20.7347 274.84 22.1713C274.746 22.6681 274.675 23.1649 274.616 23.6616C273.897 22.2519 272.919 20.7751 271.552 19.4056L271.552 19.4191ZM270.102 36.9805L273.178 33.7447C273.178 33.7447 273.178 33.7447 273.178 33.7313C273.225 33.6776 273.273 33.6104 273.308 33.5298C273.32 33.503 273.343 33.4762 273.355 33.4494C273.379 33.3822 273.391 33.3151 273.402 33.2345C273.402 33.1942 273.426 33.154 273.426 33.1137C273.426 32.872 273.331 32.6573 273.19 32.4962L270.09 29.059L274.498 28.1058C274.522 28.6294 274.546 29.1127 274.569 29.5557C274.64 30.7372 274.781 31.9187 275.005 33.0734C274.781 34.5906 274.675 36.1212 274.64 37.6383L270.102 36.9805ZM274.887 43.8009C274.251 45.2912 273.32 46.5667 272.188 47.4931C270.856 48.5806 269.43 49.064 268.157 49.2386C269.265 48.621 270.432 47.7885 271.552 46.6607C273.037 45.1704 274.074 43.5324 274.805 42.0153C274.864 42.5792 274.923 43.1162 274.982 43.6532C274.946 43.7069 274.911 43.7472 274.887 43.8009ZM294.028 65.6185C289.832 67.8338 284.752 62.0472 284.705 61.9935C282.595 59.5499 281.794 56.6096 281.488 54.4479C281.605 54.5151 281.723 54.5957 281.841 54.6628C283.161 55.3207 284.022 55.4145 284.859 55.5085C285.507 55.5756 286.19 55.6562 287.18 56.0187C288.724 56.596 289.408 57.2674 290.292 58.1267C291.011 58.8249 291.824 59.6305 293.227 60.5166C294.087 61.0671 295.301 61.8322 296.774 62.3961C296.232 63.5911 295.372 64.9069 294.028 65.6185ZM308.903 55.3072C307.594 60.1944 302.102 61.2684 302.043 61.2818C298.601 61.9263 295.584 60.0064 293.969 58.986C292.708 58.1804 291.978 57.4823 291.282 56.7975C290.351 55.898 289.479 55.0386 287.652 54.3539C286.497 53.9242 285.707 53.8438 285 53.7632C284.222 53.6826 283.55 53.602 282.454 53.0516C280.733 52.1923 279.284 50.8766 278.258 49.252C276.844 47.0233 276.62 44.8213 276.314 41.7601C276.172 40.3504 276.113 38.9273 276.148 37.5041C277.068 40.1088 278.376 42.418 280.014 44.2842C283.562 48.3255 288.241 49.064 297.541 50.5274C299.356 50.8094 301.112 50.9974 302.644 50.702C302.738 50.89 302.88 51.0377 303.068 51.1048C305.049 51.8701 307.099 51.803 308.926 51.1048C309.186 52.2595 309.315 53.7498 308.891 55.3072L308.903 55.3072ZM311.46 47.077C309.952 49.2655 307.406 50.2723 304.848 49.8024C305.143 49.5876 305.437 49.3325 305.697 49.0237C306.439 48.1779 306.911 47.0501 307.158 45.7209C308.125 45.8015 309.563 45.6805 310.906 44.6064C311.743 43.9351 312.38 42.9953 312.792 41.9481C312.851 43.331 312.663 45.3182 311.449 47.077L311.46 47.077ZM314.937 31.2206C315.527 34.6308 314.148 37.4504 313.299 38.793C313.275 38.3633 313.228 37.9472 313.122 37.531C312.686 35.7319 311.673 34.5906 310.848 33.9193C311.72 33.0063 312.698 31.5563 313.004 29.4887C313.146 28.5355 313.11 27.6761 313.004 26.8974C313.735 27.8372 314.596 29.2738 314.937 31.2206ZM312.674 25.4741C312.403 24.6417 312.073 24.0107 311.849 23.6616C310.435 21.3389 308.36 20.5871 307.418 20.3588C306.97 19.701 306.392 19.0029 305.661 18.4121C304.931 17.8079 303.964 17.3379 302.833 16.9754C304.954 15.5388 307.63 15.4986 309.787 17.0426C312.285 18.8283 313.44 22.2653 312.674 25.4876L312.674 25.4741Z" fill="#DFD4CF" fill-opacity="0.02"/>
<path d="M30.3195 62.4367C33.3014 64.5447 36.7311 64.0479 39.0177 63.296C40.1374 65.028 41.9173 67.0151 44.4867 67.6596C49.6255 68.9485 54.8468 63.9539 56.7208 58.5834C57.2865 56.9589 57.5576 55.2 57.5576 53.3741C58.2765 52.7028 58.9837 51.8972 59.6202 50.9171C60.3627 49.7893 60.8933 48.6213 61.2822 47.4398C61.9305 48.487 62.7084 49.4267 63.6041 50.1518C67.2579 53.1592 71.4773 52.2597 72.6795 51.9107C73.0331 51.8167 73.2689 51.4407 73.2571 51.0379C73.2571 50.6351 72.9859 50.2861 72.6324 50.2055C70.9587 49.843 68.46 48.9301 66.1499 46.6074C64.2994 44.7546 63.2268 42.6599 62.5904 40.928L68.3305 39.6929C68.6133 39.6392 68.8373 39.3974 68.9198 39.0886C69.0023 38.7798 68.9196 38.4443 68.7192 38.216L65.9142 35.1011L73.8346 35.1011C74.2589 35.1011 74.6006 34.7117 74.6006 34.2283C74.6006 33.745 74.2589 33.3556 73.8346 33.3556L65.9968 33.3556L68.8372 30.3616C69.0611 30.1333 69.1318 29.7709 69.0493 29.4487C68.955 29.1265 68.7074 28.8847 68.4128 28.8444L62.4727 27.9851C63.0856 26.1994 64.1698 23.9438 66.1499 21.9568C68.4718 19.634 70.9587 18.7077 72.6324 18.3586C72.9859 18.2781 73.2453 17.9424 73.2571 17.5262C73.2806 17.11 73.0331 16.7475 72.6795 16.6535C71.4773 16.3044 67.2697 15.4049 63.6041 18.4124C62.7201 19.1374 61.9423 20.0637 61.294 21.1109C60.9876 19.7146 60.5042 18.3855 59.6556 17.0563C58.9013 15.8614 57.9349 14.841 56.8388 13.9817C56.6738 11.5784 55.9546 7.45658 53.0551 4.10003C52.8194 3.81808 47.1621 -2.62645 41.9997 0.112495C40.1374 1.09261 39.0294 2.90512 38.393 4.44913C37.1672 4.15375 35.8119 4.04637 34.3739 4.3149C34.1146 4.3686 27.8795 5.60378 26.3002 11.4979C26.0527 12.4109 25.9583 13.2969 25.9583 14.1294C25.9583 15.1766 26.1116 16.1432 26.312 16.9354C25.4398 17.4993 24.6383 18.2378 24.0019 19.1507C21.9628 22.0911 22.2692 25.5685 22.4814 26.9245C21.7271 27.9852 20.0533 30.7912 20.0533 34.4297C20.0533 35.0742 20.1006 35.7321 20.2185 36.4168C20.6075 38.6992 21.5974 40.4179 22.4578 41.5188C21.6328 45.2647 22.9293 49.212 25.699 51.4408C25.699 53.2802 26.0646 59.4158 30.2959 62.4099L30.3195 62.4367ZM55.2947 57.939C53.6446 62.665 49.036 67.0151 44.8165 65.9544C42.9071 65.4711 41.5047 64.0614 40.55 62.6919C42.035 62.0072 42.9662 61.1613 43.862 60.3423C44.9817 59.322 46.0306 58.3686 48.2229 57.5765C49.2601 57.2005 49.8493 57.1199 50.4386 57.026C51.1222 56.932 51.8293 56.8247 53.0551 56.2876C53.6444 56.0191 54.7408 55.5356 55.9784 54.6764C55.8841 55.8042 55.6601 56.9186 55.2947 57.939ZM52.5012 54.6631C51.4522 55.133 50.8865 55.2135 50.2383 55.3075C49.6136 55.4015 48.9181 55.4954 47.7513 55.9251C45.2879 56.8246 44.0151 57.9793 42.8954 58.9997C41.9643 59.8456 41.0921 60.6376 39.5952 61.2687C37.6976 62.0608 34.0911 63.0544 31.1327 60.9733C28.1625 58.8654 27.4553 54.7032 27.3021 52.5148C30.1662 53.8708 33.4664 53.2533 35.8472 50.8903C39.9607 51.6421 45.3822 51.1722 50.1203 49.4134C55.3299 47.48 59.0193 44.298 60.6811 40.3507C60.7283 43.1971 60.4216 46.8087 58.3944 49.9102C56.3789 52.9713 53.5619 54.2199 52.4894 54.6898L52.5012 54.6631ZM25.1805 38.1354C25.428 36.4571 26.2531 35.3024 26.9485 34.5908C26.9838 34.8325 27.0075 35.0877 27.0665 35.3294C27.3257 36.6048 27.8089 37.8265 28.469 38.914C28.0918 40.0687 27.8914 41.2368 27.8914 42.3378C27.8914 43.1702 28.0211 43.9624 28.2333 44.7277C27.5261 44.3383 26.7363 43.7073 26.0999 42.6734C25.7109 42.0424 24.8505 40.3238 25.1805 38.1354ZM26.6538 24.1587C27.3374 23.6082 28.0681 23.4068 28.681 23.3531C27.0074 26.0921 26.8305 30.2139 26.8305 31.7714C26.8305 31.8922 26.8305 31.9862 26.8305 32.0667C26.2176 31.5968 25.3575 30.724 25.0274 29.3277C24.5678 27.4078 25.2277 25.2865 26.6538 24.1452L26.6538 24.1587ZM60.1387 34.3625C60.068 35.732 59.6556 38.8201 57.5812 40.4312C56.485 41.2771 54.4814 42.0022 51.1341 40.6864C46.8085 38.9813 44.5574 34.4835 42.3651 30.1334C40.1611 25.7565 38.0748 21.6212 34.0793 20.8693C32.8535 20.6411 31.9107 20.8291 31.2389 21.0842C31.4392 20.48 31.7103 19.9564 32.0756 19.5401C33.3957 18.0096 35.5877 18.023 38.9115 18.5466C47.8809 19.9564 52.3834 20.6678 55.5658 24.2929C57.8287 26.8707 59.3962 30.3481 60.1269 34.3625L60.1387 34.3625ZM31.4155 22.8698C32.0638 22.5207 32.9243 22.4268 33.8318 22.5879C37.1084 23.1921 38.9351 26.8172 41.0331 30.9927C41.257 31.4358 41.4929 31.9056 41.7286 32.3621L39.5598 32.3621C39.4184 31.3417 39.1472 30.5227 38.9351 29.999C38.499 28.9384 37.2025 26.3607 34.5034 25.4208C34.0437 25.2597 33.101 24.9374 31.9931 25.1388C30.8144 25.3536 29.7302 26.1323 28.8344 27.3272C29.2351 25.4744 30.0012 23.6351 31.4155 22.8833L31.4155 22.8698ZM32.7355 40.7267C31.9929 40.6059 31.3802 40.1359 30.8852 39.6122C31.5452 39.478 32.276 39.1826 32.9714 38.6053C34.9751 36.9001 35.2697 33.8524 34.6922 31.7445C33.985 29.1667 32.759 28.3477 31.8515 28.1061C31.3093 27.9584 30.7437 27.9851 30.2015 28.1597C30.8144 27.4346 31.5098 26.9647 32.2405 26.8305C32.9949 26.6962 33.6903 26.9379 34.0675 27.0588C36.2362 27.8106 37.2851 30.0394 37.5562 30.7107C37.8626 31.476 38.334 33.02 38.0511 34.8192C37.5797 37.8132 35.1045 41.1026 32.7355 40.6998L32.7355 40.7267ZM28.469 33.2213C28.469 33.2213 28.3981 33.1543 28.3746 33.114C28.3746 32.9797 28.3746 32.8588 28.3746 32.7246C28.3746 32.7246 28.3982 32.7246 28.41 32.6977C29.3411 31.825 30.2486 31.7983 30.4254 31.9862C30.4725 32.0399 30.5316 32.2414 30.5316 32.5099C30.5316 32.6979 30.5079 32.9261 30.4372 33.1678C30.2957 33.7182 30.0013 34.1477 29.7302 34.2014C29.4002 34.2686 28.8461 33.9195 28.469 33.1945L28.469 33.2213ZM30.0012 35.9469C30.8734 35.7589 31.5804 34.913 31.8987 33.6912C32.1344 32.7648 32.1581 31.5028 31.4745 30.751C31.0974 30.3348 30.5551 30.1602 29.954 30.187C30.4844 29.8379 31.0384 29.7038 31.4863 29.8247C32.2171 30.0126 32.8299 30.8853 33.2071 32.2816C33.6432 33.8793 33.3839 36.0811 32.0285 37.2223C31.2152 37.9071 30.2841 38.0011 29.7066 37.9743C29.3058 37.303 28.964 36.5645 28.74 35.7992C29.1525 35.9872 29.5769 36.0543 29.9776 35.9603L30.0012 35.9469ZM30.9675 44.4994C30.0246 43.5864 29.8243 42.0827 29.8479 40.8878C30.5197 41.6128 31.4037 42.2706 32.5116 42.4451C35.8 42.9956 38.9469 39.0484 39.5598 35.1414C39.6187 34.7789 39.6424 34.4432 39.6542 34.1075L41.6578 34.1075C40.2317 38.5247 37.2615 44.9693 33.6784 45.2915C33.2541 45.3318 31.9458 45.4392 30.9793 44.5128L30.9675 44.4994ZM30.9324 46.4999C31.7457 46.9295 32.7003 47.1175 33.7964 47.0235C38.6524 46.6073 41.8345 38.5382 43.0603 34.8057C44.8872 37.9877 47.1622 40.9549 50.6391 42.3243C53.8922 43.6133 56.1315 43.1837 57.593 42.405C55.7897 44.6337 53.0906 46.4597 49.649 47.7351C43.1429 50.1384 35.0221 50.0444 31.9223 47.5068C31.5333 47.1846 31.2035 46.849 30.9324 46.5133L30.9324 46.4999ZM65.1361 47.9097C66.2676 49.0375 67.4228 49.8698 68.5307 50.4874C67.2578 50.3129 65.8318 49.8296 64.4999 48.7421C63.392 47.8291 62.508 46.6207 61.8598 45.1573C61.9541 44.6605 62.0247 44.1503 62.0836 43.667C62.8026 45.0633 63.7807 46.5402 65.1361 47.9097ZM66.5861 30.3481L63.5097 33.5839C63.4626 33.6376 63.4153 33.7182 63.38 33.7853C63.3682 33.8122 63.3448 33.8389 63.3331 33.8658C63.3095 33.9329 63.2977 34.0001 63.2859 34.0806C63.2859 34.1209 63.2623 34.1612 63.2623 34.2014C63.2623 34.4431 63.3565 34.658 63.4979 34.8192L66.5979 38.2562L62.1895 39.2095C62.166 38.6859 62.1426 38.2025 62.119 37.7594C62.0483 36.5779 61.9067 35.3964 61.6828 34.2418C61.9067 32.7246 62.0247 31.194 62.06 29.6768L66.5861 30.3347L66.5861 30.3481ZM61.8008 23.5277C62.449 22.0105 63.3566 20.7753 64.4999 19.8355C65.8318 18.748 67.2578 18.2511 68.5307 18.09C67.4228 18.7076 66.2558 19.5401 65.1361 20.6679C63.6392 22.1582 62.6141 23.7962 61.8834 25.3133C61.8244 24.7494 61.7653 24.2124 61.7064 23.6754C61.7418 23.6216 61.7772 23.5814 61.8008 23.5277ZM42.6598 1.72357C46.8557 -0.505175 51.9355 5.29487 51.9827 5.34858C54.0924 7.79214 54.8939 10.7325 55.2003 12.8941C55.0824 12.827 54.9645 12.7465 54.8467 12.6794C53.5266 12.0215 52.6664 11.9275 51.8296 11.8335C51.1813 11.7664 50.4978 11.6858 49.5077 11.3233C47.9637 10.746 47.2799 10.0746 46.3959 9.21532C45.677 8.51716 44.8637 7.71172 43.4612 6.82559C42.6007 6.27511 41.3867 5.50979 39.9135 4.94589C40.4556 3.75096 41.3161 2.43516 42.6598 1.72357ZM27.7853 12.0215C29.0818 7.14781 34.586 6.06019 34.6332 6.04676C38.0748 5.40231 41.0922 7.32236 42.707 8.34275C43.9681 9.14833 44.6986 9.84633 45.394 10.5311C46.3251 11.444 47.1974 12.29 49.0243 12.9747C50.1793 13.4044 50.969 13.4848 51.6762 13.5654C52.4541 13.646 53.1261 13.7265 54.2222 14.277C55.943 15.1363 57.3925 16.4522 58.418 18.0767C59.8323 20.3055 60.0564 22.5073 60.3629 25.5685C60.5043 26.9782 60.5631 28.4015 60.5278 29.8247C59.5966 27.22 58.3001 24.9106 56.6618 23.0309C53.1141 18.9896 48.4351 18.2512 39.1239 16.7877C37.3088 16.5058 35.5525 16.3178 34.0203 16.6132C33.926 16.4252 33.7844 16.2776 33.6076 16.2105C31.6275 15.4586 29.5767 15.5123 27.7499 16.2105C27.4906 15.0558 27.3727 13.5655 27.7853 12.0081L27.7853 12.0215ZM25.2277 20.2518C26.7364 18.0633 29.2821 17.0563 31.8397 17.5262C31.545 17.741 31.2504 17.9961 30.9911 18.3049C30.2486 19.1642 29.7771 20.2785 29.5296 21.6077C28.5631 21.5271 27.1253 21.6481 25.7816 22.7221C24.9448 23.3935 24.3082 24.3198 23.8957 25.3671C23.8368 23.9842 24.0255 21.9972 25.2395 20.2518L25.2277 20.2518ZM21.7508 36.108C21.1615 32.6978 22.5286 29.8782 23.389 28.5356C23.4125 28.9653 23.4599 29.3816 23.5659 29.8112C24.002 31.6103 25.0156 32.7515 25.8406 33.4228C24.9684 34.3358 23.9901 35.7858 23.6718 37.8535C23.6011 38.2965 23.5777 38.7261 23.5777 39.1289C23.5777 39.5988 23.6247 40.0284 23.6836 40.4446C22.9529 39.5048 22.0926 38.0817 21.7508 36.1215L21.7508 36.108ZM24.0137 41.8545C24.2848 42.6869 24.6147 43.3179 24.8387 43.667C26.253 45.9897 28.3274 46.7415 29.2821 46.9698C29.7064 47.6008 30.2722 48.299 31.0383 48.9166C31.769 49.5208 32.7357 49.9907 33.8672 50.3532C31.7456 51.7898 29.07 51.8302 26.9131 50.2861C24.4144 48.5005 23.2594 45.0767 24.0255 41.841L24.0137 41.8545Z" fill="#DFD4CF" fill-opacity="0.02"/>
<path d="M326.618 6.95954C326.618 8.21269 327.509 9.22849 328.609 9.22849C329.71 9.22849 330.602 8.21269 330.602 6.95954C330.602 5.70639 329.71 4.69043 328.609 4.69043C327.509 4.69043 326.618 5.70639 326.618 6.95954Z" fill="#DFD4CF" fill-opacity="0.02"/>
<path d="M326.323 60.9594C326.323 62.2125 327.215 63.2283 328.315 63.2283C329.415 63.2283 330.307 62.2125 330.307 60.9594C330.307 59.7062 329.415 58.6904 328.315 58.6904C327.215 58.6904 326.323 59.7062 326.323 60.9594Z" fill="#DFD4CF" fill-opacity="0.02"/>
<path d="M12.2876 6.90581C12.2876 3.58955 10.1776 0.837241 7.40786 0.259917L7.40786 -15.3816C9.38797 -13.7302 11.6275 -12.7232 13.7491 -13.3408C15.3049 -13.7839 15.953 -14.8848 17.1316 -16.8719C17.662 -17.758 18.3221 -18.8724 19.2532 -20.2688C19.7364 -21.0072 24.1918 -27.5994 30.2736 -32.8222C32.5837 -34.8093 35.1294 -36.5816 37.8285 -38.0719C37.8285 -38.0719 37.8403 -38.0854 37.8521 -38.0988C40.2683 -38.9581 42.0481 -41.4955 42.0481 -44.5298C42.0481 -48.2623 39.3843 -51.2967 36.1077 -51.2967C32.8311 -51.2967 30.1674 -48.2623 30.1674 -44.5298C30.1674 -41.5626 31.8645 -39.0654 34.1982 -38.1524C32.442 -37.0111 30.7684 -35.7761 29.2008 -34.4335C24.8988 -30.7278 21.3867 -26.3777 19.442 -23.7595C18.6287 -28.5124 18.2159 -33.8964 19.1942 -36.6085C19.371 -37.1187 19.7129 -38.0585 20.4908 -38.4748C21.0212 -38.7567 22.1054 -38.9044 22.7301 -38.1391C22.8715 -37.9511 22.9894 -37.7362 23.0601 -37.5079C22.9069 -37.5482 22.7538 -37.5751 22.5888 -37.5751C21.528 -37.5751 20.6675 -36.595 20.6675 -35.3867C20.6675 -34.1783 21.528 -33.1982 22.5888 -33.1982C23.1428 -33.1982 23.6259 -33.4667 23.9795 -33.8829C24.0031 -33.9098 24.0268 -33.9231 24.0503 -33.95C24.0857 -34.0037 24.1093 -34.0575 24.1447 -34.1112C24.1683 -34.1515 24.1916 -34.1783 24.2034 -34.2186C25.2052 -35.8834 25.1582 -38.0854 24.0267 -39.4817C22.8363 -40.9452 20.9742 -40.9317 19.7484 -40.2873C18.334 -39.5488 17.78 -38.0181 17.5442 -37.3468C17.0374 -35.9371 16.8487 -34.071 16.8487 -32.0973C16.8487 -28.1366 17.5915 -23.7729 17.9805 -21.7187C17.9098 -21.6113 17.8506 -21.5174 17.8153 -21.4637C16.8606 -20.0137 16.1887 -18.8859 15.6465 -17.9729C14.5032 -16.0396 14.1614 -15.5159 13.301 -15.2608C10.1659 -14.3613 6.01727 -18.8591 4.07251 -22.3365C0.00622329 -29.6269 0.571806 -40.3274 5.38064 -47.2419C6.33533 -48.6248 11.4979 -55.4722 18.7937 -55.0023C19.9723 -54.9217 21.1509 -54.6533 22.306 -54.1968C18.2043 -49.9675 14.7155 -45.1743 11.9221 -39.8441C9.89486 -35.9908 8.23306 -31.8556 6.97192 -27.5458C6.93655 -27.4116 6.91293 -27.2638 6.91293 -27.1161C6.91293 -26.5522 7.2193 -26.0286 7.71432 -25.8407C8.32721 -25.6124 8.99905 -25.9884 9.1994 -26.6865C10.4016 -30.8084 11.9928 -34.7691 13.9257 -38.4479C21.3865 -52.6528 33.9745 -63.0312 50.3457 -68.4688C56.5218 -70.523 62.9805 -71.5567 69.5808 -71.5702C70.1702 -62.9774 76.476 -56.1838 84.1725 -56.1838C91.869 -56.1838 98.151 -62.9507 98.7638 -71.53L236.181 -71.53C236.782 -62.9641 243.088 -56.1838 250.772 -56.1838C258.457 -56.1838 264.751 -62.9507 265.364 -71.5166C271.953 -71.5031 278.412 -70.4692 284.588 -68.415C300.947 -62.9774 313.547 -52.599 321.007 -38.3941C322.94 -34.7019 324.531 -30.7546 325.734 -26.6328C325.934 -25.9346 326.606 -25.5452 327.219 -25.7869C327.832 -26.0151 328.162 -26.7804 327.961 -27.4786C326.7 -31.7884 325.038 -35.9237 323.011 -39.777C320.218 -45.0938 316.717 -49.9003 312.627 -54.1296C313.782 -54.5726 314.961 -54.8545 316.14 -54.9351C323.424 -55.405 328.586 -48.5578 329.552 -47.1749C334.361 -40.2604 334.927 -29.5597 330.861 -22.2692C328.916 -18.7784 324.767 -14.2806 321.632 -15.1936C320.76 -15.4487 320.43 -15.9589 319.275 -17.9057C318.733 -18.8187 318.061 -19.9465 317.106 -21.3965C317.071 -21.4502 317.012 -21.5443 316.941 -21.6517C317.542 -24.7531 318.897 -33.0505 317.389 -37.2798C317.153 -37.9377 316.599 -39.4682 315.185 -40.2066C313.959 -40.8511 312.097 -40.8645 310.906 -39.4011C310.305 -38.6626 309.999 -37.6825 309.999 -36.689C309.999 -35.8028 310.246 -34.9032 310.73 -34.1245C310.753 -34.0977 310.765 -34.0574 310.789 -34.0306C310.824 -33.9769 310.847 -33.9232 310.883 -33.8695C310.906 -33.8426 310.93 -33.8291 310.953 -33.8023C311.307 -33.3861 311.791 -33.1175 312.344 -33.1175C313.405 -33.1175 314.266 -34.0977 314.266 -35.306C314.266 -36.5144 313.405 -37.4945 312.344 -37.4945C312.179 -37.4945 312.026 -37.4677 311.873 -37.4275C311.944 -37.6691 312.05 -37.8839 312.203 -38.0584C312.828 -38.8237 313.912 -38.6761 314.442 -38.3941C315.22 -37.9913 315.562 -37.038 315.739 -36.5278C316.717 -33.8158 316.293 -28.4319 315.491 -23.6791C313.547 -26.2972 310.034 -30.6606 305.732 -34.3528C304.165 -35.7089 302.479 -36.9441 300.735 -38.0719C303.069 -38.9849 304.766 -41.4821 304.766 -44.4493C304.766 -48.1818 302.102 -51.2162 298.825 -51.2162C295.549 -51.2162 292.885 -48.1818 292.885 -44.4493C292.885 -41.415 294.653 -38.8774 297.081 -38.0181C297.093 -38.0181 297.105 -38.0047 297.116 -37.9913C299.815 -36.5009 302.361 -34.7288 304.672 -32.7417C310.753 -27.5189 315.208 -20.9266 315.692 -20.1881C316.623 -18.7784 317.283 -17.6775 317.813 -16.7914C318.992 -14.8043 319.64 -13.7034 321.196 -13.2603C323.306 -12.6562 325.545 -13.6631 327.537 -15.3011L327.537 0.3404C324.767 0.917732 322.658 3.6702 322.658 6.98646C322.658 10.7189 325.321 13.7532 328.598 13.7532C331.874 13.7532 334.538 10.7189 334.538 6.98647C334.538 3.52251 332.24 0.702873 329.305 0.300087L329.305 -17.0061C330.542 -18.3622 331.603 -19.8659 332.358 -21.2085C336.801 -29.1837 336.188 -40.8914 330.943 -48.4503C329.882 -49.9675 324.213 -57.4995 316.045 -56.9759C314.372 -56.8685 312.722 -56.412 311.119 -55.6602C304.07 -62.4538 295.349 -67.6633 285.236 -71.0198C278.848 -73.1411 272.165 -74.2017 265.352 -74.2285C264.751 -82.8078 258.446 -89.5747 250.761 -89.5747C243.076 -89.5747 236.782 -82.8078 236.169 -74.2285L98.752 -74.2285C98.1509 -82.8079 91.8454 -89.5747 84.1607 -89.5747C76.476 -89.5747 70.1937 -82.8348 69.5808 -74.2823C62.7565 -74.2689 56.0738 -73.1947 49.6856 -71.0734C39.5729 -67.7169 30.8511 -62.4942 23.8029 -55.7139C22.1999 -56.4658 20.5496 -56.9223 18.8759 -57.0297C10.7198 -57.5533 5.03891 -50.0212 3.97815 -48.5041C1.0787 -44.342 -0.406343 -38.9043 -0.406344 -33.5204C-0.406344 -29.1569 0.571927 -24.8337 2.56384 -21.2623C3.30636 -19.9197 4.36697 -18.4159 5.6163 -17.0599L5.6163 0.246474C2.66974 0.64926 0.383236 3.48216 0.383236 6.93269C0.383236 10.6652 3.04699 13.6995 6.3236 13.6995C9.60022 13.6995 12.264 10.6652 12.264 6.93269L12.2876 6.90581ZM31.9353 -44.5298C31.9353 -47.1479 33.8094 -49.2827 36.1077 -49.2827C38.4061 -49.2827 40.2801 -47.1479 40.2801 -44.5298C40.2801 -41.9117 38.4061 -39.7771 36.1077 -39.7771C33.8094 -39.7771 31.9353 -41.9117 31.9353 -44.5298ZM294.665 -44.4762C294.665 -47.0943 296.539 -49.229 298.837 -49.229C301.135 -49.229 303.009 -47.0943 303.009 -44.4762C303.009 -41.8581 301.135 -39.7233 298.837 -39.7233C296.539 -39.7233 294.665 -41.8581 294.665 -44.4762ZM332.782 6.95959C332.782 9.57769 330.908 11.7123 328.609 11.7123C326.311 11.7123 324.437 9.57769 324.437 6.95959C324.437 4.34148 326.311 2.20666 328.609 2.20666C330.908 2.20666 332.782 4.34148 332.782 6.95959ZM250.772 -86.9164C257.549 -86.9164 263.066 -80.6328 263.066 -72.9128C263.066 -65.1927 257.549 -58.9094 250.772 -58.9094C243.995 -58.9094 238.479 -65.1927 238.479 -72.9128C238.479 -80.6328 243.995 -86.9164 250.772 -86.9164ZM84.1843 -86.9164C90.9614 -86.9164 96.4774 -80.6328 96.4774 -72.9128C96.4774 -65.1927 90.9614 -58.9094 84.1843 -58.9094C77.4071 -58.9094 71.8912 -65.1927 71.8912 -72.9128C71.8912 -80.6328 77.4071 -86.9164 84.1843 -86.9164ZM2.1748 6.90581C2.1748 4.2877 4.04886 2.15289 6.34719 2.15289C8.64553 2.15289 10.5196 4.2877 10.5196 6.90581C10.5196 9.52392 8.64553 11.6587 6.34719 11.6587C4.04885 11.6587 2.1748 9.52392 2.1748 6.90581Z" fill="#DFD4CF" fill-opacity="0.02"/>
<path d="M4.35522 6.90567C4.35522 8.15881 5.24695 9.17478 6.34704 9.17478C7.44714 9.17478 8.33887 8.15881 8.33887 6.90567C8.33887 5.65252 7.44714 4.63672 6.34704 4.63672C5.24695 4.63672 4.35522 5.65252 4.35522 6.90567Z" fill="#DFD4CF" fill-opacity="0.02"/>
<path d="M4.63745 60.9193C4.63745 62.1725 5.52918 63.1884 6.62927 63.1884C7.72936 63.1884 8.62109 62.1725 8.62109 60.9193C8.62109 59.6662 7.72936 58.6504 6.62927 58.6504C5.52918 58.6504 4.63745 59.6662 4.63745 60.9193Z" fill="#DFD4CF" fill-opacity="0.02"/>
<path d="M269.395 -4.43922C269.395 -7.21844 269.961 -13.8241 274.911 -18.5098C280.356 -23.6655 286.898 -22.4303 288.772 -21.9201C294.912 -20.2821 297.918 -14.9923 298.13 -13.7974C298.342 -12.6159 298.083 -11.6626 298.047 -11.5552C297.953 -11.2464 297.847 -11.0181 297.788 -10.8839C297.234 -9.90374 296.433 -9.48746 295.855 -9.29949C295.443 -9.16523 295.018 -9.43385 294.912 -9.90377C294.795 -10.3603 295.03 -10.8435 295.443 -10.9778C295.773 -11.0852 296.22 -11.3136 296.48 -11.7835C296.48 -11.8103 296.551 -11.9446 296.598 -12.1057C296.598 -12.1057 296.763 -12.7233 296.633 -13.4483C296.504 -14.0256 294.028 -18.7247 288.43 -20.2284C286.733 -20.6849 280.792 -21.8127 275.901 -17.1672C271.01 -12.5352 270.88 -5.78188 270.951 -3.80823C271.198 2.58263 274.722 8.46321 280.168 11.5378C280.545 11.7526 280.698 12.2764 280.51 12.706C280.321 13.1357 279.861 13.3101 279.484 13.0953C273.544 9.73875 269.689 3.28086 269.418 -3.74103C269.418 -3.929 269.407 -4.1707 269.407 -4.43922L269.395 -4.43922Z" fill="#DFD4CF" fill-opacity="0.02"/>
<path d="M269.395 68.3844C269.395 68.1159 269.395 67.8742 269.406 67.6862C269.678 60.6643 273.532 54.2063 279.472 50.8497C279.849 50.6349 280.309 50.8095 280.498 51.2391C280.686 51.6688 280.533 52.1924 280.156 52.4072C274.722 55.4818 271.186 61.3626 270.939 67.7534C270.868 69.7136 270.998 76.4804 275.889 81.1124C280.78 85.7444 286.721 84.6301 288.418 84.1736C294.016 82.6699 296.492 77.9707 296.621 77.3933C296.751 76.6683 296.586 76.0507 296.586 76.0507C296.539 75.8896 296.48 75.7553 296.444 75.6882C296.197 75.2585 295.761 75.0304 295.431 74.9364C295.018 74.8021 294.783 74.3187 294.9 73.8622C295.018 73.3923 295.443 73.1239 295.843 73.2581C296.421 73.4461 297.222 73.8623 297.753 74.8022C297.847 74.9767 297.941 75.2183 298.036 75.5136C298.071 75.621 298.33 76.5744 298.118 77.7559C297.906 78.9642 294.9 84.2408 288.76 85.8788C286.886 86.3755 280.333 87.6107 274.899 82.4685C269.949 77.7827 269.383 71.1771 269.383 68.3978L269.395 68.3844Z" fill="#DFD4CF" fill-opacity="0.02"/>
<path d="M38.4876 -12.3609C38.4876 -12.6428 38.5113 -12.9651 38.5702 -13.2874C38.7824 -14.4957 41.7878 -19.7721 47.9285 -21.4101C49.8025 -21.9069 56.3558 -23.1422 61.7893 -18C67.2228 -12.8577 67.3641 -5.39279 67.2934 -3.23117C67.0223 3.79072 63.1681 10.2488 57.2278 13.6053C56.8506 13.8201 56.3911 13.6455 56.2025 13.2159C56.014 12.7863 56.1672 12.2627 56.5444 12.0478C61.9779 8.97324 65.5136 3.09266 65.7611 -3.2982C65.8436 -5.25843 65.7022 -12.0253 60.8109 -16.6574C55.9196 -21.2894 49.9794 -20.1749 48.2822 -19.7184C42.6836 -18.2147 40.2085 -13.5156 40.0789 -12.9383C39.9493 -12.2133 40.114 -11.5957 40.114 -11.5957C40.1612 -11.4345 40.2202 -11.3003 40.2556 -11.2331C40.5031 -10.8035 40.939 -10.5752 41.269 -10.4812C41.6816 -10.3469 41.9175 -9.86368 41.7997 -9.40719C41.6818 -8.93727 41.2574 -8.66865 40.8567 -8.80291C40.2792 -8.99088 39.4776 -9.40712 38.9472 -10.347C38.8529 -10.5215 38.7586 -10.7632 38.6643 -11.0586C38.6407 -11.1391 38.4994 -11.6493 38.4994 -12.3743L38.4876 -12.3609Z" fill="#DFD4CF" fill-opacity="0.02"/>
<path d="M38.4876 77.3127C38.4876 76.5877 38.6289 76.0773 38.6525 75.9968C38.7468 75.688 38.8528 75.4597 38.9117 75.3255C39.4657 74.3453 40.2673 73.9292 40.8449 73.7413C41.2574 73.607 41.6818 73.8755 41.7878 74.3454C41.9057 74.8153 41.67 75.2987 41.2575 75.4195C40.9275 75.5269 40.4795 75.7552 40.2202 76.2251C40.2202 76.2519 40.1493 76.3862 40.1022 76.5473C40.1022 76.5473 39.9374 77.1649 40.0671 77.8899C40.1967 78.4672 42.6718 83.1665 48.2703 84.6702C49.9676 85.1267 55.9077 86.2544 60.7991 81.609C65.6904 76.977 65.82 70.2236 65.7493 68.25C65.5018 61.8591 61.9779 55.9784 56.5326 52.9038C56.1554 52.689 56.0021 52.1654 56.1907 51.7357C56.3793 51.3061 56.8388 51.1315 57.216 51.3463C63.1563 54.7029 67.0105 61.1609 67.2816 68.1828C67.3641 70.3444 67.2109 77.8094 61.7774 82.9516C56.3321 88.1073 49.7907 86.8721 47.9167 86.3619C41.776 84.7239 38.7705 79.4339 38.5584 78.239C38.4995 77.9033 38.4758 77.5946 38.4758 77.3127L38.4876 77.3127Z" fill="#DFD4CF" fill-opacity="0.02"/>
</g>
<defs>
<linearGradient id="paint0_linear_77_17335" x1="172.5" y1="0" x2="172.5" y2="68" gradientUnits="userSpaceOnUse">
<stop stop-color="#381414"/>
<stop offset="1" stop-color="#1D0808"/>
</linearGradient>
<clipPath id="clip0_77_17335">
<rect width="345" height="68" fill="white"/>
</clipPath>
</defs>
</svg>
