<svg width="170" height="238" viewBox="0 0 170 238" fill="none" xmlns="http://www.w3.org/2000/svg">
<mask id="mask0_2314_1597" style="mask-type:luminance" maskUnits="userSpaceOnUse" x="0" y="0" width="170" height="238">
<path d="M0 0H169.5V238H0V0Z" fill="white"/>
</mask>
<g mask="url(#mask0_2314_1597)">
<path d="M163.453 237.789H6.9375C3.61328 237.789 0.921875 235.074 0.921875 231.727V6.15625C0.921875 2.8125 3.61328 0.0976562 6.9375 0.0976562H163.453C166.777 0.0976562 169.469 2.8125 169.469 6.15625V231.727C169.469 235.074 166.777 237.789 163.453 237.789Z" fill="white"/>
</g>
<mask id="mask1_2314_1597" style="mask-type:luminance" maskUnits="userSpaceOnUse" x="11" y="10" width="148" height="78">
<path d="M11 10H159V88H11V10Z" fill="white"/>
</mask>
<g mask="url(#mask1_2314_1597)">
<mask id="mask2_2314_1597" style="mask-type:luminance" maskUnits="userSpaceOnUse" x="11" y="10" width="148" height="78">
<path d="M158.602 87.8398C158.602 61.9414 158.609 36.0391 158.617 10.1406C109.762 10.1406 60.8984 10.1406 12.0469 10.1484C12.0234 35.625 12 61.1016 11.9766 86.5781C14.543 75.1406 19.7187 58.2734 29.5859 49.2656C37.1406 42.3828 40.9141 38.9336 43.8672 37.5508C45.2383 36.9063 49.6289 35.0117 53.2578 30.5781C53.9336 29.7617 54.4219 29.0391 54.7266 28.5586C55.043 28.9805 56.2578 30.5312 57.9297 30.5625C60.1055 30.6016 62.5352 28.0508 62.6562 24.2109C62.9102 24.7812 65.0469 29.3242 69.9062 30.3516C72.2461 30.8477 74.2109 30.3242 75.2266 29.9609C75.8867 29.4141 76.7617 28.5664 77.5664 27.3516C78.3516 26.1602 78.7812 25.043 79.0273 24.2344H91.5742C91.6484 24.6992 92.2578 28.125 95.3789 29.8359C98.4297 31.5078 101.527 30.2344 102.48 29.8516C105.773 28.5234 107.168 25.7852 107.477 25.1406C108.219 28.6797 110.691 30.8711 112.867 30.6992C113.219 30.668 114.352 30.5156 115.531 29.1992L119.289 32.3242C120.758 33.1953 122.82 34.4766 125.199 36.1406C127.988 38.0938 137.242 44.6641 144.512 54.1055C154.164 66.6445 157.395 80.4531 158.594 87.8242L158.602 87.8398Z" fill="white"/>
</mask>
<g mask="url(#mask2_2314_1597)">
<path d="M11.9766 10.1406V87.8398H158.617V10.1406H11.9766Z" fill="url(#paint0_linear_2314_1597)"/>
</g>
</g>
<path d="M158.992 227.941H11.5195C11.5195 182.609 11.5195 137.281 11.5195 91.9492C11.5195 64.5586 11.5195 37.1758 11.5195 9.78906H158.992C158.992 37.1328 158.992 64.4766 158.992 91.8242C158.992 137.199 158.992 182.566 158.992 227.941Z" stroke="#0E0E0E" stroke-width="0.75" stroke-linecap="round" stroke-linejoin="round"/>
<path d="M85.1758 32.2188C85.125 31.5977 84.8711 29.4141 83.0625 27.5625C81.4414 25.8984 79.5391 25.5 78.8867 25.3867C78.9375 24.7344 78.9883 24.082 79.043 23.4297C79.8984 23.0312 81.6133 22.0859 83.0391 20.1758C84.4883 18.2344 84.8984 16.2969 85.0352 15.3594C85.3711 16.5312 86.1133 18.5312 87.8086 20.4844C89.1133 21.9844 90.5039 22.8984 91.4609 23.4297C91.5156 24.082 91.5664 24.7344 91.6211 25.3867C91.1562 25.4336 88.1641 25.7773 86.3633 28.3945C85.3047 29.9414 85.1758 31.5156 85.1641 32.2188H85.1758Z" fill="white"/>
<path d="M53.9609 21.7734C54.7969 21.5312 56.168 21.2695 57.7188 21.6445C59.0781 21.9687 59.9922 22.6289 60.5117 23.0156C65.0703 26.4375 65.7461 29.0937 68.8789 30.293C69.2852 30.4492 72.2188 31.4179 75.1719 30.039C77.2578 29.0625 78.7422 26.8437 78.9766 24.4336C79.3047 20.9844 76.9062 17.5742 74.1211 16.9492C73.8008 16.875 72.0469 16.4843 70.6133 17.5586C70.4336 17.6914 69.3242 18.5468 69.164 20.0547C69.1406 20.2812 68.9609 22.2226 70.4492 23.168C71.2812 23.6914 72.336 23.7226 73.1758 23.332C74.3711 22.7851 75.0898 21.414 74.9023 19.9414C75.1953 20.2656 75.6016 20.7656 75.9219 21.457C76.0781 21.7891 77.1015 24.0469 76.125 26.2109C74.9414 28.8515 71.707 29.3164 71.2734 29.3789C68.3867 29.7891 65.3867 28.2734 63.4219 25.5508" stroke="#0E0E0E" stroke-width="0.75" stroke-linecap="round" stroke-linejoin="round"/>
<path d="M79.043 23.3398C79.6133 23.0625 80.5039 22.5586 81.4141 21.7344C84.3164 19.0859 84.8477 15.4141 85.086 13.7773C85.2227 12.8555 85.3438 11.4844 85.1836 9.78125" stroke="#0E0E0E" stroke-width="0.75" stroke-linecap="round" stroke-linejoin="round"/>
<path d="M78.8867 25.2969C79.5977 25.4258 80.3711 25.6484 81.1367 26.0391C84.5938 27.8008 85.1016 31.4922 85.1758 32.1289" stroke="#0E0E0E" stroke-width="0.75" stroke-linecap="round" stroke-linejoin="round"/>
<path d="M116.543 21.7734C115.711 21.5312 114.336 21.2695 112.785 21.6445C111.426 21.9687 110.512 22.6289 109.996 23.0156C105.434 26.4375 104.762 29.0937 101.625 30.293C101.219 30.4492 98.2891 31.4179 95.332 30.039C93.2461 29.0625 91.7617 26.8437 91.5313 24.4336C91.1992 20.9844 93.6016 17.5742 96.3828 16.9492C96.7032 16.875 98.4609 16.4843 99.8906 17.5586C100.074 17.6914 101.184 18.5468 101.34 20.0547C101.363 20.2812 101.543 22.2226 100.059 23.168C99.2266 23.6914 98.168 23.7226 97.3282 23.332C96.1368 22.7851 95.4141 21.414 95.6016 19.9414C95.3086 20.2656 94.9063 20.7656 94.582 21.457C94.4258 21.7891 93.4063 24.0469 94.3789 26.2109C95.5664 28.8515 98.7969 29.3164 99.2344 29.3789C102.121 29.7891 105.121 28.2734 107.086 25.5508" stroke="#0E0E0E" stroke-width="0.75" stroke-linecap="round" stroke-linejoin="round"/>
<path d="M91.6289 25.2969C90.9141 25.4258 90.1406 25.6484 89.3789 26.0391C85.9219 27.8008 85.4102 31.4922 85.3359 32.1289" stroke="#0E0E0E" stroke-width="0.75" stroke-linecap="round" stroke-linejoin="round"/>
<path d="M115.836 28.6289C115.727 28.8828 115.133 30.1953 113.746 30.6289C112.273 31.0938 110.984 30.2383 110.445 29.8789C108.172 28.3711 107.949 25.5 107.926 25.0352" stroke="#0E0E0E" stroke-width="0.75" stroke-linecap="round" stroke-linejoin="round"/>
<path d="M123.809 35.5429C123.164 35.1757 122.258 34.621 121.238 33.8789C118.289 31.7343 115.988 30.0585 115.387 27.3281C114.84 24.8476 115.957 22.7539 116.152 22.4023C117.988 19.0859 121.836 18.539 122.633 18.4492C126.211 18.0468 129.84 19.9335 132.113 23.2343" stroke="#0E0E0E" stroke-width="0.75" stroke-linecap="round" stroke-linejoin="round"/>
<path d="M131.617 40.6953C131.656 32.9766 129.766 26.918 126.773 25.2461C125.234 24.3906 123.676 24.3672 123.676 24.3672C123.156 24.3672 120.539 24.4063 118.883 26.5664C117.406 28.4922 117.773 30.6992 117.84 31.0742" stroke="#0E0E0E" stroke-width="0.75" stroke-linecap="round" stroke-linejoin="round"/>
<path d="M152.746 36.7969C153.137 36.6016 154.379 36.0234 155.723 36.3672C158.113 36.9766 158.387 39.8633 158.398 40.0742C158.543 41.9102 157.418 44.0469 155.273 44.8125C153.621 45.3985 152.031 44.9336 151.183 44.6836C148.441 43.8828 146.933 42.0156 146.183 41.0703C143.781 38.0117 144.953 36.5234 142.492 34.3516C141.824 33.7578 140.476 32.5586 138.406 32.2422C136.254 31.9063 135.367 32.8359 133.402 32.2891C131.476 31.7461 130.476 30.3281 130.223 29.9336C130.101 29.7539 128.699 27.4961 130.019 25.2227C130.289 24.75 131.094 23.3789 132.898 22.9805C134.543 22.6289 136.351 23.2266 137.34 24.4063C138.187 25.4102 138.433 26.8281 137.773 27.9531C137.633 28.1992 137.183 28.9649 136.164 29.2735C135.308 29.5274 134.219 29.4141 133.469 28.8164C132.808 28.2813 132.691 27.6016 132.668 27.3985" stroke="#0E0E0E" stroke-width="0.75" stroke-linecap="round" stroke-linejoin="round"/>
<path d="M144.039 36.4414C143.723 33.0234 141.977 30.2109 139.418 29.2969C138.832 29.0859 137.918 28.875 136.703 29.0234" stroke="#0E0E0E" stroke-width="0.75" stroke-linecap="round" stroke-linejoin="round"/>
<path d="M146.641 41.7461C146.176 41.625 144.238 41.1758 142.59 42.2539C140.602 43.5586 139.809 46.5821 141.031 49.4493" stroke="#0E0E0E" stroke-width="0.75" stroke-linecap="round" stroke-linejoin="round"/>
<path d="M147.996 52.0586C147.691 52.043 147.051 52.0508 146.379 52.4023C145.281 52.9805 144.922 54.0391 144.855 54.2773" stroke="#0E0E0E" stroke-width="0.75" stroke-linecap="round" stroke-linejoin="round"/>
<path d="M158.977 90.8711C158.961 90.7656 158.949 90.5781 158.918 90.3594C158.332 85.2226 155.023 61.2383 135.301 43.7383C132.848 41.5664 129.047 38.5117 123.809 35.543" stroke="#0E0E0E" stroke-width="0.75" stroke-linecap="round" stroke-linejoin="round"/>
<path d="M85.1758 32.2187C85.125 31.5976 84.8711 29.4141 83.0625 27.5625C81.4414 25.8984 79.5391 25.5 78.8867 25.3867C78.9375 24.7344 78.9883 24.082 79.043 23.4297C79.8984 23.0312 81.6133 22.0859 83.039 20.1758C84.4883 18.2344 84.8985 16.2969 85.0352 15.3594C85.3711 16.5312 86.1133 18.5313 87.8086 20.4844C89.1133 21.9844 90.5039 22.8984 91.4609 23.4297C91.5156 24.082 91.5664 24.7344 91.6211 25.3867C91.1563 25.4336 88.1641 25.7774 86.3633 28.3945C85.3047 29.9414 85.1758 31.5156 85.1641 32.2187H85.1758Z" fill="black" stroke="black" stroke-width="0.5625" stroke-linecap="round" stroke-linejoin="round"/>
<path d="M116.543 21.7734C115.711 21.5312 114.336 21.2695 112.785 21.6445C111.426 21.9687 110.512 22.6289 109.996 23.0156C105.434 26.4375 104.762 29.0937 101.625 30.293C101.219 30.4492 98.2891 31.4179 95.332 30.039C93.2461 29.0625 91.7617 26.8437 91.5313 24.4336C91.1992 20.9844 93.6016 17.5742 96.3828 16.9492C96.7032 16.875 98.4609 16.4843 99.8906 17.5586C100.074 17.6914 101.184 18.5468 101.34 20.0547C101.363 20.2812 101.543 22.2226 100.059 23.168C99.2266 23.6914 98.168 23.7226 97.3282 23.332C96.1368 22.7851 95.4141 21.414 95.6016 19.9414C95.3086 20.2656 94.9063 20.7656 94.582 21.457C94.4258 21.7891 93.4063 24.0469 94.3789 26.2109C95.5664 28.8515 98.7969 29.3164 99.2344 29.3789C102.121 29.7891 105.121 28.2734 107.086 25.5508" stroke="#0E0E0E" stroke-width="0.75" stroke-linecap="round" stroke-linejoin="round"/>
<path d="M91.4688 23.3398C90.3672 22.793 89.5938 22.1836 89.1016 21.7344C85.754 18.6914 85.4336 14.168 85.3125 12.5039C85.2305 11.3633 85.2735 10.418 85.3282 9.78125" stroke="#0E0E0E" stroke-width="0.75" stroke-linecap="round" stroke-linejoin="round"/>
<path d="M91.6289 25.2969C90.9141 25.4258 90.1406 25.6484 89.3789 26.0391C85.9219 27.8008 85.4102 31.4922 85.3359 32.1289" stroke="#0E0E0E" stroke-width="0.75" stroke-linecap="round" stroke-linejoin="round"/>
<path d="M115.836 28.6289C115.727 28.8828 115.133 30.1953 113.746 30.6289C112.273 31.0938 110.984 30.2383 110.445 29.8789C108.172 28.3711 107.949 25.5 107.926 25.0352" stroke="#0E0E0E" stroke-width="0.75" stroke-linecap="round" stroke-linejoin="round"/>
<path d="M123.809 35.5429C123.164 35.1757 122.258 34.621 121.238 33.8789C118.289 31.7343 115.988 30.0585 115.387 27.3281C114.84 24.8476 115.957 22.7539 116.152 22.4023C117.988 19.0859 121.836 18.539 122.633 18.4492C126.211 18.0468 129.84 19.9335 132.113 23.2343" stroke="#0E0E0E" stroke-width="0.75" stroke-linecap="round" stroke-linejoin="round"/>
<path d="M131.617 40.6953C131.656 32.9766 129.766 26.918 126.773 25.2461C125.234 24.3906 123.676 24.3672 123.676 24.3672C123.156 24.3672 120.539 24.4063 118.883 26.5664C117.406 28.4922 117.773 30.6992 117.84 31.0742" stroke="#0E0E0E" stroke-width="0.75" stroke-linecap="round" stroke-linejoin="round"/>
<path d="M152.746 36.7969C153.137 36.6016 154.379 36.0234 155.723 36.3672C158.113 36.9766 158.387 39.8633 158.398 40.0742C158.543 41.9102 157.418 44.0469 155.273 44.8125C153.621 45.3985 152.031 44.9336 151.183 44.6836C148.441 43.8828 146.933 42.0156 146.183 41.0703C143.781 38.0117 144.953 36.5234 142.492 34.3516C141.824 33.7578 140.476 32.5586 138.406 32.2422C136.254 31.9063 135.367 32.8359 133.402 32.2891C131.476 31.7461 130.476 30.3281 130.223 29.9336C130.101 29.7539 128.699 27.4961 130.019 25.2227C130.289 24.75 131.094 23.3789 132.898 22.9805C134.543 22.6289 136.351 23.2266 137.34 24.4063C138.187 25.4102 138.433 26.8281 137.773 27.9531C137.633 28.1992 137.183 28.9649 136.164 29.2735C135.308 29.5274 134.219 29.4141 133.469 28.8164C132.808 28.2813 132.691 27.6016 132.668 27.3985" stroke="#0E0E0E" stroke-width="0.75" stroke-linecap="round" stroke-linejoin="round"/>
<path d="M144.039 36.4414C143.723 33.0234 141.977 30.2109 139.418 29.2969C138.832 29.0859 137.918 28.875 136.703 29.0234" stroke="#0E0E0E" stroke-width="0.75" stroke-linecap="round" stroke-linejoin="round"/>
<path d="M158.887 48.5155C157.656 46.4101 155.691 45.0976 153.734 45.2187C151.313 45.3671 149.887 47.6405 149.273 48.621C145.809 54.1484 149.512 61.703 150.082 62.8359" stroke="#0E0E0E" stroke-width="0.75" stroke-linecap="round" stroke-linejoin="round"/>
<path d="M158.941 90.1875C157.531 80.5352 152.949 59.4219 135.301 43.7383C131.461 40.3281 127.539 37.6484 123.809 35.543" stroke="#0E0E0E" stroke-width="0.75" stroke-linecap="round" stroke-linejoin="round"/>
<mask id="mask3_2314_1597" style="mask-type:luminance" maskUnits="userSpaceOnUse" x="11" y="148" width="148" height="80">
<path d="M11 148H159V228H11V148Z" fill="white"/>
</mask>
<g mask="url(#mask3_2314_1597)">
<mask id="mask4_2314_1597" style="mask-type:luminance" maskUnits="userSpaceOnUse" x="11" y="148" width="148" height="80">
<path d="M11.8359 148.387C11.8594 174.781 11.8711 201.172 11.8945 227.559C60.7578 227.551 109.621 227.535 158.484 227.527C158.504 202.051 158.527 176.574 158.551 151.094C153.699 162.383 146.258 176.137 134.715 189.879C130.262 195.172 125.773 199.793 121.449 203.797C120.246 205.387 119.047 206.969 117.855 208.559C117.172 208.746 116.488 208.926 115.809 209.113C115.492 208.695 114.277 207.141 112.605 207.113C110.43 207.074 108 209.625 107.879 213.465C107.625 212.895 105.488 208.352 100.629 207.324C98.2891 206.828 96.3242 207.352 95.3086 207.711C94.6484 208.262 93.7734 209.109 92.9688 210.324C92.1836 211.516 91.7539 212.633 91.5078 213.441H78.9609C78.8867 212.977 78.2773 209.551 75.1562 207.84C72.1055 206.168 69.0078 207.441 68.0547 207.824C64.7617 209.152 63.3672 211.891 63.0586 212.535C62.3164 208.996 59.8437 206.805 57.668 206.977C57.3164 207.008 56.1836 207.156 55.0039 208.477C53.7539 207.434 52.5 206.391 51.2461 205.352C45.4258 202.469 34.5898 196.133 25.4922 183.848C14.8594 169.477 12.5039 154.934 11.8516 148.395L11.8359 148.387Z" fill="white"/>
</mask>
<g mask="url(#mask4_2314_1597)">
<path d="M11.8359 148.387V227.559H158.551V148.387H11.8359Z" fill="url(#paint1_linear_2314_1597)"/>
</g>
</g>
<path d="M85.2148 205.672C85.2656 206.297 85.5234 208.477 87.3281 210.328C88.9492 211.996 90.8555 212.391 91.5078 212.504C91.4531 213.156 91.4023 213.809 91.3516 214.461C90.4961 214.859 88.7773 215.805 87.3516 217.719C85.9063 219.66 85.4922 221.594 85.3594 222.531C85.0195 221.363 84.2773 219.359 82.582 217.41C81.2773 215.91 79.8906 214.996 78.9297 214.461C78.8789 213.809 78.8242 213.156 78.7734 212.504C79.2383 212.461 82.2305 212.113 84.0312 209.496C85.0859 207.953 85.2148 206.379 85.2305 205.672H85.2148Z" fill="white"/>
<path d="M116.43 216.113C115.598 216.352 114.227 216.613 112.672 216.238C111.316 215.918 110.398 215.258 109.883 214.867C105.324 211.449 104.648 208.793 101.512 207.594C101.109 207.434 98.1758 206.469 95.2188 207.848C93.1368 208.824 91.6485 211.043 91.418 213.449C91.086 216.898 93.4883 220.313 96.2696 220.934C96.5938 221.012 98.3477 221.398 99.7813 220.328C99.961 220.191 101.07 219.336 101.227 217.828C101.25 217.605 101.43 215.664 99.9454 214.719C99.1133 214.191 98.0547 214.164 97.2149 214.551C96.0235 215.102 95.3008 216.473 95.4883 217.941C95.1993 217.621 94.793 217.117 94.4688 216.426C94.3126 216.098 93.293 213.84 94.2657 211.672C95.4532 209.031 98.6837 208.566 99.1212 208.508C102.008 208.094 105.008 209.609 106.973 212.332" stroke="#0E0E0E" stroke-width="0.75" stroke-linecap="round" stroke-linejoin="round"/>
<path d="M91.3517 214.547C90.2931 215.07 89.5197 215.664 88.9806 216.148C85.8673 218.977 85.4103 223.094 85.1916 225.023C85.0509 226.273 85.0666 227.309 85.0939 227.949" stroke="#0E0E0E" stroke-width="0.75" stroke-linecap="round" stroke-linejoin="round"/>
<path d="M91.5078 212.594C90.7969 212.469 90.0234 212.242 89.2578 211.852C85.8008 210.09 85.2891 206.398 85.2148 205.762" stroke="#0E0E0E" stroke-width="0.75" stroke-linecap="round" stroke-linejoin="round"/>
<path d="M53.8516 216.113C54.6836 216.352 56.0547 216.613 57.6093 216.238C58.9648 215.918 59.8789 215.258 60.3984 214.867C64.957 211.449 65.6328 208.793 68.7656 207.594C69.1718 207.434 72.1054 206.469 75.0586 207.848C77.1445 208.824 78.6289 211.043 78.8633 213.449C79.1914 216.898 76.793 220.313 74.0117 220.934C73.6875 221.012 71.9336 221.398 70.5 220.328C70.3203 220.191 69.2109 219.336 69.0508 217.828C69.0312 217.605 68.8515 215.664 70.3359 214.719C71.1679 214.191 72.2265 214.164 73.0664 214.551C74.2578 215.102 74.9765 216.473 74.789 217.941C75.082 217.621 75.4883 217.117 75.8086 216.426C75.9687 216.098 76.9883 213.84 76.0117 211.672C74.8281 209.031 71.5938 208.566 71.1602 208.508C68.2734 208.094 65.2734 209.609 63.3086 212.332" stroke="#0E0E0E" stroke-width="0.75" stroke-linecap="round" stroke-linejoin="round"/>
<path d="M78.7656 212.594C79.4492 212.488 80.2266 212.273 81.0156 211.852C84.2266 210.156 85.0586 206.535 85.2148 205.762" stroke="#0E0E0E" stroke-width="0.75" stroke-linecap="round" stroke-linejoin="round"/>
<path d="M54.5547 209.258C54.668 209.004 55.2617 207.691 56.6484 207.254C58.1172 206.789 59.4062 207.645 59.9492 208.004C62.2187 209.512 62.4453 212.387 62.4687 212.852" stroke="#0E0E0E" stroke-width="0.75" stroke-linecap="round" stroke-linejoin="round"/>
<path d="M46.582 202.344C47.2265 202.711 48.1367 203.266 49.1563 204.008C52.1016 206.152 54.4063 207.824 55.0039 210.555C55.5508 213.039 54.4336 215.129 54.2383 215.484C52.4024 218.797 48.5547 219.344 47.7617 219.434C44.1836 219.84 40.5508 217.949 38.2812 214.648" stroke="#0E0E0E" stroke-width="0.75" stroke-linecap="round" stroke-linejoin="round"/>
<path d="M38.7734 197.199C38.7383 204.914 40.6289 210.977 43.6211 212.648C45.1563 213.504 46.7187 213.523 46.7187 213.523C47.2344 213.523 49.8516 213.488 51.5117 211.328C52.9883 209.398 52.6211 207.195 52.5508 206.82" stroke="#0E0E0E" stroke-width="0.75" stroke-linecap="round" stroke-linejoin="round"/>
<path d="M17.6484 201.09C17.2578 201.285 16.0117 201.863 14.6719 201.516C12.2774 200.91 12.0079 198.024 11.9922 197.813C11.8516 195.977 12.9766 193.836 15.1211 193.074C16.7696 192.488 18.3594 192.953 19.207 193.199C21.9531 194.004 23.4609 195.871 24.2109 196.816C26.6094 199.875 25.4414 201.359 27.8985 203.535C28.5664 204.129 29.918 205.328 31.9883 205.641C34.1407 205.981 35.0235 205.051 36.9883 205.598C38.918 206.137 39.9141 207.555 40.1719 207.953C40.2891 208.133 41.6914 210.391 40.3711 212.664C40.1016 213.137 39.3008 214.508 37.4922 214.906C35.8516 215.258 34.043 214.656 33.0508 213.481C32.2032 212.477 31.9571 211.059 32.6172 209.934C32.7618 209.684 33.2109 208.922 34.2305 208.613C35.0859 208.359 36.1719 208.469 36.9219 209.07C37.5821 209.602 37.7032 210.285 37.7266 210.488" stroke="#0E0E0E" stroke-width="0.75" stroke-linecap="round" stroke-linejoin="round"/>
<path d="M26.3555 201.441C26.6719 204.863 28.418 207.676 30.9766 208.59C31.5586 208.801 32.4766 209.012 33.6914 208.859" stroke="#0E0E0E" stroke-width="0.75" stroke-linecap="round" stroke-linejoin="round"/>
<path d="M23.7617 196.141C24.2383 196.262 26.1601 196.695 27.8086 195.629C29.8125 194.324 30.6289 191.301 29.4219 188.422" stroke="#0E0E0E" stroke-width="0.75" stroke-linecap="round" stroke-linejoin="round"/>
<path d="M22.3945 185.828C22.7031 185.844 23.3399 185.836 24.0157 185.484C25.1407 184.891 25.4844 183.789 25.5508 183.562" stroke="#0E0E0E" stroke-width="0.75" stroke-linecap="round" stroke-linejoin="round"/>
<path d="M11.543 146.242C12.7422 155.902 16.957 177.984 35.0938 194.145C38.9258 197.559 42.8398 200.234 46.582 202.344" stroke="#0E0E0E" stroke-width="0.75" stroke-linecap="round" stroke-linejoin="round"/>
<path d="M85.2148 205.672C85.2656 206.297 85.5234 208.477 87.3281 210.328C88.9492 211.996 90.8555 212.391 91.5078 212.504C91.4531 213.156 91.4023 213.809 91.3516 214.461C90.8867 214.672 90.2461 215.004 89.5664 215.52C88.0273 216.699 87.2929 218.078 86.6484 219.324C86.0859 220.418 85.3593 222.113 84.9843 224.348C84.9765 223.273 84.8086 220.191 82.5742 217.402C81.3086 215.813 79.8515 214.922 78.9219 214.453C78.8711 213.801 78.8164 213.148 78.7656 212.496C79.2305 212.453 82.2226 212.109 84.0234 209.488C85.0781 207.945 85.207 206.371 85.2227 205.664L85.2148 205.672Z" fill="black" stroke="black" stroke-width="0.5625" stroke-linecap="round" stroke-linejoin="round"/>
<path d="M53.8516 216.113C54.6836 216.352 56.0547 216.613 57.6093 216.238C58.9648 215.918 59.8789 215.258 60.3984 214.867C64.957 211.449 65.6328 208.793 68.7656 207.594C69.1718 207.434 72.1054 206.469 75.0586 207.848C77.1445 208.824 78.6289 211.043 78.8633 213.449C79.1914 216.898 76.793 220.313 74.0117 220.934C73.6875 221.012 71.9336 221.398 70.5 220.328C70.3203 220.191 69.2109 219.336 69.0508 217.828C69.0312 217.605 68.8515 215.664 70.3359 214.719C71.1679 214.191 72.2265 214.164 73.0664 214.551C74.2578 215.102 74.9765 216.473 74.789 217.941C75.082 217.621 75.4883 217.117 75.8086 216.426C75.9687 216.098 76.9883 213.84 76.0117 211.672C74.8281 209.031 71.5938 208.566 71.1602 208.508C68.2734 208.094 65.2734 209.609 63.3086 212.332" stroke="#0E0E0E" stroke-width="0.75" stroke-linecap="round" stroke-linejoin="round"/>
<path d="M78.9219 214.547C79.5469 214.844 80.414 215.348 81.293 216.148C83.1445 217.859 83.8125 219.84 84.3281 221.461C85.1328 223.965 85.2148 226.246 85.1015 227.949" stroke="#0E0E0E" stroke-width="0.75" stroke-linecap="round" stroke-linejoin="round"/>
<path d="M78.7656 212.594C79.4492 212.488 80.2266 212.273 81.0156 211.852C84.2539 210.137 85.0664 206.43 85.2148 205.672" stroke="#0E0E0E" stroke-width="0.75" stroke-linecap="round" stroke-linejoin="round"/>
<path d="M54.5547 209.258C54.668 209.004 55.2617 207.691 56.6484 207.254C58.1172 206.789 59.4062 207.645 59.9492 208.004C62.2187 209.512 62.4453 212.387 62.4687 212.852" stroke="#0E0E0E" stroke-width="0.75" stroke-linecap="round" stroke-linejoin="round"/>
<path d="M46.582 202.344C47.2265 202.711 48.1367 203.266 49.1563 204.008C52.1016 206.152 54.4063 207.824 55.0039 210.555C55.5508 213.039 54.4336 215.129 54.2383 215.484C52.4024 218.797 48.5547 219.344 47.7617 219.434C44.1836 219.84 40.5508 217.949 38.2812 214.648" stroke="#0E0E0E" stroke-width="0.75" stroke-linecap="round" stroke-linejoin="round"/>
<path d="M38.7734 197.199C38.7383 204.914 40.6289 210.977 43.6211 212.648C45.1563 213.504 46.7187 213.523 46.7187 213.523C47.2344 213.523 49.8516 213.488 51.5117 211.328C52.9883 209.398 52.6211 207.195 52.5508 206.82" stroke="#0E0E0E" stroke-width="0.75" stroke-linecap="round" stroke-linejoin="round"/>
<path d="M17.6484 201.09C17.2578 201.285 16.0117 201.863 14.6719 201.516C12.2774 200.91 12.0079 198.024 11.9922 197.813C11.8516 195.977 12.9766 193.836 15.1211 193.074C16.7696 192.488 18.3594 192.953 19.207 193.199C21.9531 194.004 23.4609 195.871 24.2109 196.816C26.6094 199.875 25.4414 201.359 27.8985 203.535C28.5664 204.129 29.918 205.328 31.9883 205.641C34.1407 205.981 35.0235 205.051 36.9883 205.598C38.918 206.137 39.9141 207.555 40.1719 207.953C40.2891 208.133 41.6914 210.391 40.3711 212.664C40.1016 213.137 39.3008 214.508 37.4922 214.906C35.8516 215.258 34.043 214.656 33.0508 213.481C32.2032 212.477 31.9571 211.059 32.6172 209.934C32.7618 209.684 33.2109 208.922 34.2305 208.613C35.0859 208.359 36.1719 208.469 36.9219 209.07C37.5821 209.602 37.7032 210.285 37.7266 210.488" stroke="#0E0E0E" stroke-width="0.75" stroke-linecap="round" stroke-linejoin="round"/>
<path d="M26.3555 201.441C26.6719 204.863 28.418 207.676 30.9766 208.59C31.5586 208.801 32.4766 209.012 33.6914 208.859" stroke="#0E0E0E" stroke-width="0.75" stroke-linecap="round" stroke-linejoin="round"/>
<path d="M11.5859 189.504C11.6758 189.652 13.6719 192.848 16.6563 192.66C19.0742 192.512 20.4961 190.246 21.1211 189.254C24.5781 183.734 20.8789 176.176 20.3086 175.043" stroke="#0E0E0E" stroke-width="0.75" stroke-linecap="round" stroke-linejoin="round"/>
<path d="M23.7617 196.141C24.2383 196.262 26.1601 196.695 27.8086 195.629C29.8125 194.324 30.6289 191.301 29.4219 188.422" stroke="#0E0E0E" stroke-width="0.75" stroke-linecap="round" stroke-linejoin="round"/>
<path d="M22.3945 185.828C22.7031 185.844 23.3399 185.836 24.0157 185.484C25.1407 184.891 25.4844 183.789 25.5508 183.562" stroke="#0E0E0E" stroke-width="0.75" stroke-linecap="round" stroke-linejoin="round"/>
<path d="M11.543 146.242C12.7422 155.902 16.957 177.984 35.0938 194.145C38.9258 197.559 42.8398 200.234 46.582 202.344" stroke="#0E0E0E" stroke-width="0.75" stroke-linecap="round" stroke-linejoin="round"/>
<path d="M23.1094 43.6484L23.4609 43.6211V44.6836H17.3789V43.6211L17.7305 43.6484C18.0977 43.6406 18.4063 43.4844 18.6602 43.1836C18.9063 42.8867 19.0352 42.5234 19.0352 42.0977V26.6484H17.3789V25.7383L17.6406 25.6797L18.1133 25.5508C18.3906 25.4688 18.6602 25.3594 18.9141 25.207C19.3633 24.9141 19.7539 24.5234 20.1016 24.0469C20.2578 23.8047 20.3906 23.5508 20.5039 23.2812C20.5664 23.1523 20.6172 23.0156 20.6641 22.875C20.6758 22.8164 20.7227 22.6719 20.7812 22.4492L20.8633 22.1641H21.8242V42.1055C21.8242 42.5312 21.9531 42.8984 22.1992 43.1914C22.4492 43.4844 22.7539 43.6406 23.1133 43.6562L23.1094 43.6484Z" fill="black"/>
<path d="M41.6562 25.5469C42.5117 26.6328 43.1719 27.8633 43.6289 29.2344C44.0859 30.6094 44.3086 32.0391 44.3086 33.5469C44.3086 35.0547 44.0781 36.5156 43.6055 37.8984C43.1406 39.2852 42.457 40.5234 41.5742 41.625C40.6875 42.7031 39.6836 43.5313 38.5508 44.1016C37.418 44.6758 36.2344 44.9609 34.9883 44.9609C33.7422 44.9609 32.6016 44.6836 31.4844 44.1211C30.3672 43.5586 29.3711 42.7578 28.4844 41.6992L28.3438 41.5273C27.4883 40.4414 26.8281 39.2109 26.3711 37.8359C25.9141 36.4648 25.6875 35.0313 25.6875 33.5391C25.6875 32.0469 25.9219 30.5547 26.3906 29.168C26.8594 27.7812 27.5313 26.543 28.4102 25.4531C29.3008 24.3672 30.3164 23.5352 31.4414 22.957C32.5664 22.3789 33.75 22.0938 34.9961 22.0938C36.2383 22.0938 37.3945 22.3711 38.5039 22.9336C39.6211 23.4961 40.6211 24.3008 41.5039 25.3594C41.5508 25.418 41.5937 25.4766 41.6484 25.5312L41.6562 25.5469ZM40.9727 40.9062C42.0391 39.5312 42.5781 37.8437 42.5781 35.8359C42.5781 35.4883 42.5625 35.1367 42.5234 34.7852C42.2695 32.2344 41.3398 29.9336 39.7266 27.8867H39.7109C39.7109 27.8867 39.6758 27.8242 39.6602 27.8086L39.5938 27.7344C38.6562 26.6172 37.6289 25.7461 36.5117 25.1406C35.3906 24.5234 34.2656 24.2266 33.1406 24.2266C31.5078 24.2266 30.1367 24.8867 29.0312 26.2031C27.9688 27.5781 27.4258 29.2656 27.4258 31.2734C27.4258 31.6211 27.4414 31.9727 27.4805 32.3242C27.7344 34.8672 28.6641 37.1641 30.2773 39.2109L30.4062 39.3672V39.3828C32.4453 41.7148 34.5977 42.8867 36.8555 42.8867C38.5039 42.8867 39.8711 42.2344 40.9648 40.9258L40.9727 40.9062Z" fill="black"/>
<path d="M58.1251 30.6445C56.9025 29.3086 55.4845 28.0117 54.8908 27.3281C54.4494 26.8203 54.1369 26.4297 54.0001 26.2656C53.9923 26.25 53.9767 26.2344 53.9689 26.2188C53.9611 26.2344 53.9494 26.25 53.9416 26.2656C53.8126 26.4297 53.4963 26.8125 53.047 27.3281C52.4533 28.0117 51.0392 29.3086 49.8166 30.6445C48.5939 31.9805 48.4962 33.3086 48.7267 34.4102C48.9611 35.5117 50.1135 36.5547 51.9299 36.3242C52.5002 36.2461 52.9142 35.9766 53.2189 35.6406C53.0158 37.1992 52.172 38.0156 52.172 38.0156H55.6876C55.0431 37.2969 54.8166 36.2852 54.7345 35.6485C55.0353 35.9844 55.4533 36.2539 56.0158 36.3242C57.8322 36.5469 58.9885 35.5117 59.2189 34.4102C59.4533 33.3086 59.3556 31.9727 58.133 30.6445H58.1251Z" fill="#292929" stroke="black" stroke-width="0.5625" stroke-linecap="round" stroke-linejoin="round"/>
<path d="M147.203 194.34L146.852 194.371V193.305H152.934V194.371L152.578 194.34C152.211 194.348 151.906 194.504 151.648 194.805C151.402 195.105 151.273 195.465 151.273 195.891V211.344H152.934V212.25L152.672 212.309L152.199 212.438C151.922 212.52 151.648 212.633 151.395 212.781C150.945 213.074 150.555 213.465 150.211 213.945C150.051 214.184 149.918 214.441 149.805 214.711C149.746 214.836 149.691 214.973 149.648 215.113C149.633 215.176 149.586 215.316 149.527 215.543L149.445 215.828H148.484V195.887C148.484 195.457 148.359 195.09 148.109 194.797C147.863 194.504 147.555 194.348 147.195 194.332L147.203 194.34Z" fill="black"/>
<path d="M128.656 212.445C127.801 211.359 127.141 210.129 126.684 208.754C126.227 207.383 126 205.949 126 204.441C126 202.934 126.234 201.473 126.703 200.094C127.172 198.703 127.852 197.469 128.738 196.363C129.621 195.285 130.629 194.461 131.762 193.891C132.891 193.312 134.078 193.027 135.324 193.027C136.566 193.027 137.707 193.305 138.824 193.867C139.941 194.43 140.941 195.234 141.824 196.289L141.969 196.461C142.824 197.551 143.484 198.781 143.941 200.152C144.398 201.523 144.621 202.957 144.621 204.449C144.621 205.941 144.391 207.434 143.918 208.824C143.453 210.211 142.777 211.449 141.898 212.535C141.008 213.621 139.996 214.453 138.871 215.031C137.746 215.609 136.559 215.895 135.316 215.895C134.07 215.895 132.914 215.617 131.805 215.055C130.687 214.492 129.691 213.691 128.805 212.633C128.762 212.574 128.715 212.512 128.664 212.461L128.656 212.445ZM129.336 197.086C128.273 198.457 127.734 200.145 127.734 202.156C127.734 202.5 127.746 202.852 127.785 203.203C128.039 205.754 128.969 208.059 130.582 210.105H130.598C130.598 210.105 130.637 210.164 130.648 210.18L130.719 210.254C131.656 211.371 132.684 212.242 133.801 212.852C134.918 213.465 136.043 213.766 137.168 213.766C138.801 213.766 140.176 213.105 141.277 211.785C142.344 210.414 142.883 208.727 142.883 206.715C142.883 206.371 142.867 206.016 142.828 205.664C142.574 203.121 141.645 200.828 140.031 198.781L139.906 198.621V198.609C137.863 196.273 135.711 195.105 133.453 195.105C131.805 195.105 130.441 195.758 129.344 197.062L129.336 197.086Z" fill="black"/>
<path d="M112.184 207.336C113.406 208.672 114.824 209.969 115.418 210.652C115.859 211.164 116.176 211.551 116.309 211.719C116.316 211.734 116.332 211.746 116.34 211.762C116.348 211.746 116.363 211.734 116.371 211.719C116.496 211.551 116.813 211.172 117.262 210.652C117.856 209.969 119.274 208.672 120.496 207.336C121.719 206.004 121.816 204.676 121.582 203.574C121.352 202.469 120.195 201.426 118.379 201.66C117.809 201.734 117.399 202.004 117.09 202.344C117.293 200.781 118.141 199.965 118.141 199.965H114.621C115.266 200.684 115.492 201.699 115.574 202.336C115.274 201.996 114.856 201.727 114.293 201.66C112.477 201.434 111.324 202.469 111.09 203.574C110.859 204.676 110.953 206.012 112.176 207.336H112.184Z" fill="#292929" stroke="black" stroke-width="0.5625" stroke-linecap="round" stroke-linejoin="round"/>
<path d="M72.0821 55.0937C69.7813 52.5898 67.1094 50.1367 65.9922 48.8555C65.1524 47.8945 64.5586 47.1602 64.3125 46.8516C64.2891 46.8281 64.2657 46.8008 64.2539 46.7773C64.2305 46.8008 64.2071 46.8281 64.1914 46.8516C63.9454 47.1602 63.3516 47.8867 62.5118 48.8555C61.3946 50.1367 58.7188 52.5898 56.4219 55.0937C54.1211 57.6016 53.9337 60.1133 54.3672 62.1914C54.8008 64.2656 56.9766 66.2266 60.3985 65.7969C61.4688 65.6641 62.2579 65.1445 62.8282 64.5078C62.4454 67.4531 60.8555 68.9844 60.8555 68.9844H67.4844C66.2774 67.6367 65.8438 65.7149 65.6914 64.5234C66.2618 65.1602 67.043 65.6641 68.1094 65.7969C71.5274 66.2266 73.7032 64.2656 74.1368 62.1914C74.5743 60.1133 74.3867 57.6016 72.0821 55.0937Z" fill="#292929" stroke="black" stroke-width="0.5625" stroke-linecap="round" stroke-linejoin="round"/>
<path d="M72.0821 94.3789C69.7813 91.875 67.1094 89.4219 65.9922 88.1406C65.1524 87.1797 64.5586 86.4453 64.3125 86.1367C64.2891 86.1133 64.2657 86.0859 64.2539 86.0625C64.2305 86.0859 64.2071 86.1133 64.1914 86.1367C63.9454 86.4453 63.3516 87.1719 62.5118 88.1406C61.3946 89.4219 58.7188 91.875 56.4219 94.3789C54.1211 96.8867 53.9337 99.3984 54.3672 101.477C54.8008 103.551 56.9766 105.512 60.3985 105.082C61.4688 104.949 62.2579 104.43 62.8282 103.793C62.4454 106.738 60.8555 108.27 60.8555 108.27H67.4844C66.2774 106.922 65.8438 105 65.6914 103.809C66.2618 104.445 67.043 104.949 68.1094 105.082C71.5274 105.512 73.7032 103.551 74.1368 101.477C74.5743 99.3984 74.3867 96.8867 72.0821 94.3789Z" fill="#292929" stroke="black" stroke-width="0.5625" stroke-linecap="round" stroke-linejoin="round"/>
<path d="M72.0821 133.672C69.7813 131.168 67.1094 128.715 65.9922 127.434C65.1524 126.473 64.5586 125.738 64.3125 125.43C64.2891 125.406 64.2657 125.379 64.2539 125.355C64.2305 125.379 64.2071 125.406 64.1914 125.43C63.9454 125.738 63.3516 126.465 62.5118 127.434C61.3946 128.715 58.7188 131.168 56.4219 133.672C54.1211 136.176 53.9337 138.691 54.3672 140.766C54.8008 142.844 56.9766 144.801 60.3985 144.375C61.4688 144.238 62.2579 143.723 62.8282 143.086C62.4454 146.031 60.8555 147.562 60.8555 147.562H67.4844C66.2774 146.211 65.8438 144.293 65.6914 143.102C66.2618 143.738 67.043 144.238 68.1094 144.375C71.5274 144.801 73.7032 142.844 74.1368 140.766C74.5743 138.691 74.3867 136.176 72.0821 133.672Z" fill="#292929" stroke="black" stroke-width="0.5625" stroke-linecap="round" stroke-linejoin="round"/>
<path d="M72.0821 172.957C69.7813 170.453 67.1094 168 65.9922 166.719C65.1524 165.758 64.5586 165.023 64.3125 164.715C64.2891 164.691 64.2657 164.664 64.2539 164.641C64.2305 164.664 64.2071 164.691 64.1914 164.715C63.9454 165.023 63.3516 165.75 62.5118 166.719C61.3946 168 58.7188 170.453 56.4219 172.957C54.1211 175.461 53.9337 177.977 54.3672 180.051C54.8008 182.129 56.9766 184.086 60.3985 183.66C61.4688 183.523 62.2579 183.008 62.8282 182.371C62.4454 185.316 60.8555 186.848 60.8555 186.848H67.4844C66.2774 185.496 65.8438 183.578 65.6914 182.387C66.2618 183.023 67.043 183.523 68.1094 183.66C71.5274 184.086 73.7032 182.129 74.1368 180.051C74.5743 177.977 74.3867 175.461 72.0821 172.957Z" fill="#292929" stroke="black" stroke-width="0.5625" stroke-linecap="round" stroke-linejoin="round"/>
<path d="M113.941 55.0937C111.637 52.5898 108.969 50.1367 107.851 48.8555C107.012 47.8945 106.418 47.1602 106.172 46.8516C106.148 46.8281 106.125 46.8008 106.109 46.7773C106.086 46.8008 106.066 46.8281 106.051 46.8516C105.801 47.1602 105.211 47.8867 104.371 48.8555C103.254 50.1367 100.574 52.5898 98.2811 55.0937C95.9764 57.6016 95.789 60.1133 96.2265 62.1914C96.6601 64.2656 98.8358 66.2266 102.254 65.7969C103.328 65.6641 104.113 65.1445 104.683 64.5078C104.301 67.4531 102.711 68.9844 102.711 68.9844H109.344C108.137 67.6367 107.699 65.7149 107.551 64.5234C108.121 65.1602 108.898 65.6641 109.965 65.7969C113.387 66.2266 115.558 64.2656 115.996 62.1914C116.43 60.1133 116.242 57.6016 113.941 55.0937Z" fill="#292929" stroke="black" stroke-width="0.5625" stroke-linecap="round" stroke-linejoin="round"/>
<path d="M113.941 94.3789C111.637 91.875 108.969 89.4219 107.851 88.1406C107.012 87.1797 106.418 86.4453 106.172 86.1367C106.148 86.1133 106.125 86.0859 106.109 86.0625C106.086 86.0859 106.066 86.1133 106.051 86.1367C105.801 86.4453 105.211 87.1719 104.371 88.1406C103.254 89.4219 100.574 91.875 98.2811 94.3789C95.9764 96.8867 95.789 99.3984 96.2265 101.477C96.6601 103.551 98.8358 105.512 102.254 105.082C103.328 104.949 104.113 104.43 104.683 103.793C104.301 106.738 102.711 108.27 102.711 108.27H109.344C108.137 106.922 107.699 105 107.551 103.809C108.121 104.445 108.898 104.949 109.965 105.082C113.387 105.512 115.558 103.551 115.996 101.477C116.43 99.3984 116.242 96.8867 113.941 94.3789Z" fill="#292929" stroke="black" stroke-width="0.5625" stroke-linecap="round" stroke-linejoin="round"/>
<path d="M113.941 133.672C111.637 131.168 108.969 128.715 107.851 127.434C107.012 126.473 106.418 125.738 106.172 125.43C106.148 125.406 106.125 125.379 106.109 125.355C106.086 125.379 106.066 125.406 106.051 125.43C105.801 125.738 105.211 126.465 104.371 127.434C103.254 128.715 100.574 131.168 98.2811 133.672C95.9764 136.176 95.789 138.691 96.2265 140.766C96.6601 142.844 98.8358 144.801 102.254 144.375C103.328 144.238 104.113 143.723 104.683 143.086C104.301 146.031 102.711 147.562 102.711 147.562H109.344C108.137 146.211 107.699 144.293 107.551 143.102C108.121 143.738 108.898 144.238 109.965 144.375C113.387 144.801 115.558 142.844 115.996 140.766C116.43 138.691 116.242 136.176 113.941 133.672Z" fill="#292929" stroke="black" stroke-width="0.5625" stroke-linecap="round" stroke-linejoin="round"/>
<path d="M113.941 172.957C111.637 170.453 108.969 168 107.851 166.719C107.012 165.758 106.418 165.023 106.172 164.715C106.148 164.691 106.125 164.664 106.109 164.641C106.086 164.664 106.066 164.691 106.051 164.715C105.801 165.023 105.211 165.75 104.371 166.719C103.254 168 100.574 170.453 98.2811 172.957C95.9764 175.461 95.789 177.977 96.2265 180.051C96.6601 182.129 98.8358 184.086 102.254 183.66C103.328 183.523 104.113 183.008 104.683 182.371C104.301 185.316 102.711 186.848 102.711 186.848H109.344C108.137 185.496 107.699 183.578 107.551 182.387C108.121 183.023 108.898 183.523 109.965 183.66C113.387 184.086 115.558 182.129 115.996 180.051C116.43 177.977 116.242 175.461 113.941 172.957Z" fill="#292929" stroke="black" stroke-width="0.5625" stroke-linecap="round" stroke-linejoin="round"/>
<path d="M93.8009 152.656C91.5001 150.148 88.8282 147.699 87.711 146.414C86.8711 145.453 86.2813 144.719 86.0313 144.414C86.0118 144.391 85.9884 144.359 85.9727 144.336C85.9493 144.359 85.9259 144.391 85.9141 144.414C85.6641 144.719 85.0743 145.449 84.2344 146.414C83.1133 147.699 80.4375 150.148 78.1407 152.656C75.8399 155.16 75.6524 157.672 76.086 159.75C76.5235 161.828 78.6993 163.785 82.1173 163.359C83.1915 163.223 83.9766 162.703 84.5469 162.066C84.1641 165.016 82.5743 166.547 82.5743 166.547H89.2032C87.9961 165.195 87.5626 163.273 87.4141 162.082C87.9844 162.719 88.7618 163.223 89.8282 163.359C93.2462 163.785 95.4219 161.828 95.8594 159.75C96.293 157.672 96.1055 155.16 93.8009 152.656Z" fill="#292929" stroke="black" stroke-width="0.5625" stroke-linecap="round" stroke-linejoin="round"/>
<path d="M93.8009 74.0312C91.5001 71.5273 88.8282 69.0742 87.711 67.793C86.8711 66.832 86.2813 66.0977 86.0313 65.7891C86.0118 65.7656 85.9884 65.7383 85.9727 65.7148C85.9493 65.7383 85.9259 65.7656 85.9141 65.7891C85.6641 66.0977 85.0743 66.8242 84.2344 67.793C83.1133 69.0742 80.4375 71.5273 78.1407 74.0312C75.8399 76.5391 75.6524 79.0508 76.086 81.1289C76.5235 83.2031 78.6993 85.1641 82.1173 84.7344C83.1915 84.6016 83.9766 84.082 84.5469 83.4453C84.1641 86.3906 82.5743 87.9219 82.5743 87.9219H89.2032C87.9961 86.5742 87.5626 84.6524 87.4141 83.4609C87.9844 84.0977 88.7618 84.6016 89.8282 84.7344C93.2462 85.1641 95.4219 83.2031 95.8594 81.1289C96.293 79.0508 96.1055 76.5391 93.8009 74.0312Z" fill="#292929" stroke="black" stroke-width="0.5625" stroke-linecap="round" stroke-linejoin="round"/>
<defs>
<linearGradient id="paint0_linear_2314_1597" x1="158.617" y1="48.99" x2="11.9775" y2="48.99" gradientUnits="userSpaceOnUse">
<stop stop-color="#8F8587"/>
<stop offset="0.00390625" stop-color="#908688"/>
<stop offset="0.0078125" stop-color="#918789"/>
<stop offset="0.0117187" stop-color="#92888A"/>
<stop offset="0.015625" stop-color="#92898B"/>
<stop offset="0.0195312" stop-color="#938A8B"/>
<stop offset="0.0234375" stop-color="#948B8C"/>
<stop offset="0.0273437" stop-color="#958C8D"/>
<stop offset="0.03125" stop-color="#968D8E"/>
<stop offset="0.0351562" stop-color="#978D8F"/>
<stop offset="0.0390625" stop-color="#988E90"/>
<stop offset="0.0429688" stop-color="#988F91"/>
<stop offset="0.046875" stop-color="#999092"/>
<stop offset="0.0507812" stop-color="#9A9193"/>
<stop offset="0.0546875" stop-color="#9B9294"/>
<stop offset="0.0585938" stop-color="#9C9395"/>
<stop offset="0.0625" stop-color="#9D9496"/>
<stop offset="0.0664062" stop-color="#9D9596"/>
<stop offset="0.0703125" stop-color="#9E9697"/>
<stop offset="0.0742188" stop-color="#9F9798"/>
<stop offset="0.078125" stop-color="#A09899"/>
<stop offset="0.0820312" stop-color="#A1999A"/>
<stop offset="0.0859375" stop-color="#A2999B"/>
<stop offset="0.0898438" stop-color="#A39A9C"/>
<stop offset="0.09375" stop-color="#A39B9D"/>
<stop offset="0.0976562" stop-color="#A49C9E"/>
<stop offset="0.101562" stop-color="#A59D9F"/>
<stop offset="0.105469" stop-color="#A69EA0"/>
<stop offset="0.109375" stop-color="#A79FA0"/>
<stop offset="0.113281" stop-color="#A8A0A1"/>
<stop offset="0.117188" stop-color="#A8A1A2"/>
<stop offset="0.121094" stop-color="#A9A2A3"/>
<stop offset="0.125" stop-color="#AAA3A4"/>
<stop offset="0.128906" stop-color="#ABA4A5"/>
<stop offset="0.132812" stop-color="#ACA5A6"/>
<stop offset="0.136719" stop-color="#ADA6A7"/>
<stop offset="0.140625" stop-color="#AEA6A8"/>
<stop offset="0.144531" stop-color="#AEA7A9"/>
<stop offset="0.148438" stop-color="#AFA8AA"/>
<stop offset="0.152344" stop-color="#B0A9AB"/>
<stop offset="0.15625" stop-color="#B1AAAB"/>
<stop offset="0.160156" stop-color="#B2ABAC"/>
<stop offset="0.164062" stop-color="#B3ACAD"/>
<stop offset="0.167969" stop-color="#B3ADAE"/>
<stop offset="0.171875" stop-color="#B4AEAF"/>
<stop offset="0.175781" stop-color="#B5AFB0"/>
<stop offset="0.179688" stop-color="#B6B0B1"/>
<stop offset="0.183594" stop-color="#B7B1B2"/>
<stop offset="0.1875" stop-color="#B8B2B3"/>
<stop offset="0.191406" stop-color="#B9B2B4"/>
<stop offset="0.195312" stop-color="#B9B3B5"/>
<stop offset="0.199219" stop-color="#BAB4B5"/>
<stop offset="0.203125" stop-color="#BBB5B6"/>
<stop offset="0.207031" stop-color="#BCB6B7"/>
<stop offset="0.210938" stop-color="#BDB7B8"/>
<stop offset="0.214844" stop-color="#BEB8B9"/>
<stop offset="0.21875" stop-color="#BEB9BA"/>
<stop offset="0.222656" stop-color="#BFBABB"/>
<stop offset="0.226562" stop-color="#C0BBBC"/>
<stop offset="0.230469" stop-color="#C1BCBD"/>
<stop offset="0.234375" stop-color="#C2BDBE"/>
<stop offset="0.238281" stop-color="#C3BEBF"/>
<stop offset="0.242188" stop-color="#C3BEBF"/>
<stop offset="0.246094" stop-color="#C4BFC0"/>
<stop offset="0.25" stop-color="#C5C0C1"/>
<stop offset="0.253906" stop-color="#C6C1C2"/>
<stop offset="0.257813" stop-color="#C6C2C3"/>
<stop offset="0.261719" stop-color="#C7C3C3"/>
<stop offset="0.265625" stop-color="#C8C3C4"/>
<stop offset="0.269531" stop-color="#C9C4C5"/>
<stop offset="0.273438" stop-color="#C9C5C6"/>
<stop offset="0.277344" stop-color="#CAC6C7"/>
<stop offset="0.28125" stop-color="#CBC7C7"/>
<stop offset="0.285156" stop-color="#CCC7C8"/>
<stop offset="0.289062" stop-color="#CCC8C9"/>
<stop offset="0.292969" stop-color="#CDC9CA"/>
<stop offset="0.296875" stop-color="#CECACB"/>
<stop offset="0.300781" stop-color="#CFCBCB"/>
<stop offset="0.304688" stop-color="#CFCCCC"/>
<stop offset="0.308594" stop-color="#D0CCCD"/>
<stop offset="0.3125" stop-color="#D1CDCE"/>
<stop offset="0.316406" stop-color="#D2CECF"/>
<stop offset="0.320312" stop-color="#D2CFCF"/>
<stop offset="0.324219" stop-color="#D3D0D0"/>
<stop offset="0.328125" stop-color="#D4D0D1"/>
<stop offset="0.332031" stop-color="#D5D1D2"/>
<stop offset="0.335938" stop-color="#D5D2D3"/>
<stop offset="0.339844" stop-color="#D6D3D3"/>
<stop offset="0.34375" stop-color="#D7D4D4"/>
<stop offset="0.347656" stop-color="#D8D5D5"/>
<stop offset="0.351563" stop-color="#D8D5D6"/>
<stop offset="0.355469" stop-color="#D9D6D7"/>
<stop offset="0.359375" stop-color="#DAD7D7"/>
<stop offset="0.363281" stop-color="#DBD8D8"/>
<stop offset="0.367188" stop-color="#DBD9D9"/>
<stop offset="0.371094" stop-color="#DCDADA"/>
<stop offset="0.375" stop-color="#DDDADB"/>
<stop offset="0.378906" stop-color="#DEDBDC"/>
<stop offset="0.382813" stop-color="#DEDCDC"/>
<stop offset="0.386719" stop-color="#DFDDDD"/>
<stop offset="0.390625" stop-color="#E0DEDE"/>
<stop offset="0.394531" stop-color="#E1DEDF"/>
<stop offset="0.398438" stop-color="#E1DFE0"/>
<stop offset="0.402344" stop-color="#E2E0E0"/>
<stop offset="0.40625" stop-color="#E3E1E1"/>
<stop offset="0.410156" stop-color="#E4E2E2"/>
<stop offset="0.414063" stop-color="#E4E3E3"/>
<stop offset="0.417969" stop-color="#E5E3E4"/>
<stop offset="0.421875" stop-color="#E6E4E4"/>
<stop offset="0.425781" stop-color="#E6E5E5"/>
<stop offset="0.429688" stop-color="#E7E6E6"/>
<stop offset="0.433594" stop-color="#E8E7E7"/>
<stop offset="0.4375" stop-color="#E9E7E8"/>
<stop offset="0.441406" stop-color="#E9E8E8"/>
<stop offset="0.445312" stop-color="#EAE9E9"/>
<stop offset="0.449219" stop-color="#EBEAEA"/>
<stop offset="0.453125" stop-color="#ECEBEB"/>
<stop offset="0.457031" stop-color="#ECEBEB"/>
<stop offset="0.460938" stop-color="#EDECEC"/>
<stop offset="0.464844" stop-color="#EDECEC"/>
<stop offset="0.46875" stop-color="#EEEDED"/>
<stop offset="0.472656" stop-color="#EEEEEE"/>
<stop offset="0.476563" stop-color="#EFEEEE"/>
<stop offset="0.480469" stop-color="#EFEFEF"/>
<stop offset="0.484375" stop-color="#F0EFEF"/>
<stop offset="0.488281" stop-color="#F1F0F0"/>
<stop offset="0.492188" stop-color="#F1F1F1"/>
<stop offset="0.496094" stop-color="#F2F1F1"/>
<stop offset="0.5" stop-color="#F2F2F2"/>
<stop offset="0.503906" stop-color="#F3F2F2"/>
<stop offset="0.507812" stop-color="#F3F3F3"/>
<stop offset="0.511719" stop-color="#F4F4F4"/>
<stop offset="0.515625" stop-color="#F5F4F4"/>
<stop offset="0.519531" stop-color="#F5F5F5"/>
<stop offset="0.523438" stop-color="#F6F5F5"/>
<stop offset="0.527344" stop-color="#F6F6F6"/>
<stop offset="0.53125" stop-color="#F7F7F7"/>
<stop offset="0.535156" stop-color="#F7F7F7"/>
<stop offset="0.539062" stop-color="#F8F8F8"/>
<stop offset="0.542969" stop-color="#F8F8F8"/>
<stop offset="0.546875" stop-color="#F9F9F9"/>
<stop offset="0.550781" stop-color="#FAFAFA"/>
<stop offset="0.554688" stop-color="#FAFAFA"/>
<stop offset="0.5625" stop-color="#FBFBFB"/>
<stop offset="0.625" stop-color="#FBFBFB"/>
<stop offset="0.75" stop-color="#FBFBFB"/>
<stop offset="1" stop-color="#FBFBFB"/>
</linearGradient>
<linearGradient id="paint1_linear_2314_1597" x1="11.835" y1="187.972" x2="158.55" y2="187.972" gradientUnits="userSpaceOnUse">
<stop stop-color="#8F8587"/>
<stop offset="0.00390625" stop-color="#908688"/>
<stop offset="0.0078125" stop-color="#918789"/>
<stop offset="0.0117187" stop-color="#91888A"/>
<stop offset="0.015625" stop-color="#92898A"/>
<stop offset="0.0195312" stop-color="#938A8B"/>
<stop offset="0.0234375" stop-color="#948A8C"/>
<stop offset="0.0273437" stop-color="#958B8D"/>
<stop offset="0.03125" stop-color="#968C8E"/>
<stop offset="0.0351562" stop-color="#968D8F"/>
<stop offset="0.0390625" stop-color="#978E90"/>
<stop offset="0.0429687" stop-color="#988F91"/>
<stop offset="0.046875" stop-color="#999091"/>
<stop offset="0.0507813" stop-color="#9A9192"/>
<stop offset="0.0546875" stop-color="#9A9293"/>
<stop offset="0.0585938" stop-color="#9B9294"/>
<stop offset="0.0625" stop-color="#9C9395"/>
<stop offset="0.0664062" stop-color="#9D9496"/>
<stop offset="0.0703125" stop-color="#9E9597"/>
<stop offset="0.0742188" stop-color="#9F9698"/>
<stop offset="0.078125" stop-color="#9F9798"/>
<stop offset="0.0820312" stop-color="#A09899"/>
<stop offset="0.0859375" stop-color="#A1999A"/>
<stop offset="0.0898437" stop-color="#A29A9B"/>
<stop offset="0.09375" stop-color="#A39A9C"/>
<stop offset="0.0976563" stop-color="#A39B9D"/>
<stop offset="0.101563" stop-color="#A49C9E"/>
<stop offset="0.105469" stop-color="#A59D9F"/>
<stop offset="0.109375" stop-color="#A69E9F"/>
<stop offset="0.113281" stop-color="#A79FA0"/>
<stop offset="0.117188" stop-color="#A7A0A1"/>
<stop offset="0.121094" stop-color="#A8A1A2"/>
<stop offset="0.125" stop-color="#A9A2A3"/>
<stop offset="0.128906" stop-color="#AAA2A4"/>
<stop offset="0.132813" stop-color="#ABA3A5"/>
<stop offset="0.136719" stop-color="#ACA4A6"/>
<stop offset="0.140625" stop-color="#ACA5A6"/>
<stop offset="0.144531" stop-color="#ADA6A7"/>
<stop offset="0.148438" stop-color="#AEA7A8"/>
<stop offset="0.152344" stop-color="#AFA8A9"/>
<stop offset="0.15625" stop-color="#B0A9AA"/>
<stop offset="0.160156" stop-color="#B0AAAB"/>
<stop offset="0.164062" stop-color="#B1AAAC"/>
<stop offset="0.167969" stop-color="#B2ABAD"/>
<stop offset="0.171875" stop-color="#B3ACAD"/>
<stop offset="0.175781" stop-color="#B4ADAE"/>
<stop offset="0.179688" stop-color="#B4AEAF"/>
<stop offset="0.183594" stop-color="#B5AFB0"/>
<stop offset="0.1875" stop-color="#B6B0B1"/>
<stop offset="0.191406" stop-color="#B7B1B2"/>
<stop offset="0.195312" stop-color="#B8B2B3"/>
<stop offset="0.199219" stop-color="#B9B2B4"/>
<stop offset="0.203125" stop-color="#B9B3B4"/>
<stop offset="0.207031" stop-color="#BAB4B5"/>
<stop offset="0.210938" stop-color="#BBB5B6"/>
<stop offset="0.214844" stop-color="#BCB6B7"/>
<stop offset="0.21875" stop-color="#BDB7B8"/>
<stop offset="0.222656" stop-color="#BDB8B9"/>
<stop offset="0.226562" stop-color="#BEB9BA"/>
<stop offset="0.230469" stop-color="#BFBABB"/>
<stop offset="0.234375" stop-color="#C0BABB"/>
<stop offset="0.238281" stop-color="#C1BBBC"/>
<stop offset="0.242187" stop-color="#C1BCBD"/>
<stop offset="0.246094" stop-color="#C2BDBE"/>
<stop offset="0.25" stop-color="#C3BEBF"/>
<stop offset="0.253906" stop-color="#C4BFC0"/>
<stop offset="0.257812" stop-color="#C5C0C1"/>
<stop offset="0.261719" stop-color="#C5C0C1"/>
<stop offset="0.265625" stop-color="#C6C1C2"/>
<stop offset="0.269531" stop-color="#C7C2C3"/>
<stop offset="0.273437" stop-color="#C8C3C4"/>
<stop offset="0.277344" stop-color="#C8C4C5"/>
<stop offset="0.28125" stop-color="#C9C5C5"/>
<stop offset="0.285156" stop-color="#CAC5C6"/>
<stop offset="0.289062" stop-color="#CBC6C7"/>
<stop offset="0.292969" stop-color="#CBC7C8"/>
<stop offset="0.296875" stop-color="#CCC8C9"/>
<stop offset="0.300781" stop-color="#CDC9C9"/>
<stop offset="0.304687" stop-color="#CEC9CA"/>
<stop offset="0.308594" stop-color="#CECACB"/>
<stop offset="0.3125" stop-color="#CFCBCC"/>
<stop offset="0.316406" stop-color="#D0CCCD"/>
<stop offset="0.320312" stop-color="#D0CDCD"/>
<stop offset="0.324219" stop-color="#D1CECE"/>
<stop offset="0.328125" stop-color="#D2CECF"/>
<stop offset="0.332031" stop-color="#D3CFD0"/>
<stop offset="0.335937" stop-color="#D3D0D1"/>
<stop offset="0.339844" stop-color="#D4D1D1"/>
<stop offset="0.34375" stop-color="#D5D2D2"/>
<stop offset="0.347656" stop-color="#D6D2D3"/>
<stop offset="0.351562" stop-color="#D6D3D4"/>
<stop offset="0.355469" stop-color="#D7D4D5"/>
<stop offset="0.359375" stop-color="#D8D5D5"/>
<stop offset="0.363281" stop-color="#D9D6D6"/>
<stop offset="0.367187" stop-color="#D9D7D7"/>
<stop offset="0.371094" stop-color="#DAD7D8"/>
<stop offset="0.375" stop-color="#DBD8D9"/>
<stop offset="0.378906" stop-color="#DCD9D9"/>
<stop offset="0.382812" stop-color="#DCDADA"/>
<stop offset="0.386719" stop-color="#DDDBDB"/>
<stop offset="0.390625" stop-color="#DEDCDC"/>
<stop offset="0.394531" stop-color="#DFDCDD"/>
<stop offset="0.398438" stop-color="#DFDDDD"/>
<stop offset="0.402344" stop-color="#E0DEDE"/>
<stop offset="0.40625" stop-color="#E1DFDF"/>
<stop offset="0.410156" stop-color="#E2E0E0"/>
<stop offset="0.414062" stop-color="#E2E0E1"/>
<stop offset="0.417969" stop-color="#E3E1E1"/>
<stop offset="0.421875" stop-color="#E4E2E2"/>
<stop offset="0.425781" stop-color="#E5E3E3"/>
<stop offset="0.429688" stop-color="#E5E4E4"/>
<stop offset="0.433594" stop-color="#E6E5E5"/>
<stop offset="0.4375" stop-color="#E7E5E5"/>
<stop offset="0.441406" stop-color="#E8E6E6"/>
<stop offset="0.445312" stop-color="#E8E7E7"/>
<stop offset="0.449219" stop-color="#E9E8E8"/>
<stop offset="0.453125" stop-color="#EAE9E9"/>
<stop offset="0.457031" stop-color="#EBE9E9"/>
<stop offset="0.460937" stop-color="#EBEAEA"/>
<stop offset="0.464844" stop-color="#ECEBEB"/>
<stop offset="0.46875" stop-color="#ECEBEB"/>
<stop offset="0.472656" stop-color="#EDECEC"/>
<stop offset="0.476562" stop-color="#EDEDED"/>
<stop offset="0.480469" stop-color="#EEEDED"/>
<stop offset="0.484375" stop-color="#EFEEEE"/>
<stop offset="0.488281" stop-color="#EFEEEE"/>
<stop offset="0.492187" stop-color="#F0EFEF"/>
<stop offset="0.496094" stop-color="#F0F0F0"/>
<stop offset="0.5" stop-color="#F1F0F0"/>
<stop offset="0.503906" stop-color="#F1F1F1"/>
<stop offset="0.507812" stop-color="#F2F1F1"/>
<stop offset="0.511719" stop-color="#F3F2F2"/>
<stop offset="0.515625" stop-color="#F3F3F3"/>
<stop offset="0.519531" stop-color="#F4F3F3"/>
<stop offset="0.523438" stop-color="#F4F4F4"/>
<stop offset="0.527344" stop-color="#F5F4F4"/>
<stop offset="0.53125" stop-color="#F5F5F5"/>
<stop offset="0.535156" stop-color="#F6F6F6"/>
<stop offset="0.539062" stop-color="#F6F6F6"/>
<stop offset="0.542969" stop-color="#F7F7F7"/>
<stop offset="0.546875" stop-color="#F8F7F7"/>
<stop offset="0.550781" stop-color="#F8F8F8"/>
<stop offset="0.554688" stop-color="#F9F9F9"/>
<stop offset="0.558594" stop-color="#F9F9F9"/>
<stop offset="0.5625" stop-color="#FAFAFA"/>
<stop offset="0.566406" stop-color="#FAFAFA"/>
<stop offset="0.570312" stop-color="#FBFBFB"/>
<stop offset="0.578125" stop-color="#FBFBFB"/>
<stop offset="0.59375" stop-color="#FBFBFB"/>
<stop offset="0.625" stop-color="#FBFBFB"/>
<stop offset="0.75" stop-color="#FBFBFB"/>
<stop offset="1" stop-color="#FBFBFB"/>
</linearGradient>
</defs>
</svg>
