<svg width="169" height="239" viewBox="0 0 169 239" fill="none" xmlns="http://www.w3.org/2000/svg">
<mask id="mask0_2314_1598" style="mask-type:luminance" maskUnits="userSpaceOnUse" x="0" y="0" width="169" height="239">
<path d="M0 0H169V238.25H0V0Z" fill="white"/>
</mask>
<g mask="url(#mask0_2314_1598)">
<path d="M162.703 238.031H6.1875C2.86328 238.031 0.171875 235.316 0.171875 231.973V6.40234C0.171875 3.05859 2.86328 0.34375 6.1875 0.34375H162.703C166.027 0.34375 168.719 3.05859 168.719 6.40234V231.973C168.719 235.316 166.027 238.031 162.703 238.031Z" fill="white"/>
</g>
<path d="M113.691 112.617C113.844 119.129 112.68 124.191 111.344 127.941C110.348 130.73 109.996 130.699 109.027 133.715C107.902 137.211 106.703 142.43 106.922 148.707C106.98 150.5 107.144 151.953 107.266 152.887C108.613 154.047 110.641 155.789 113.101 157.934C116.101 160.543 116.062 160.543 116.371 160.754C119.73 163.016 124.793 163.664 129.336 162.027C130.379 161.652 134.969 160.012 137.129 155.227C138.375 152.473 138.262 149.906 138.113 148.617C138.504 148.297 139.035 147.762 139.449 146.996C140.715 144.637 139.844 141.809 138.637 138.051C138.328 137.098 137.91 135.922 137.34 134.602C136.988 135.086 136.547 135.836 136.41 136.82C136.238 138.043 136.68 138.598 136.379 139.316C136.262 139.602 135.891 140.211 133.379 140.797C129.976 141.598 127.453 141.238 126.734 141.125C124.941 140.84 123.586 140.613 123.246 139.672C122.934 138.793 123.676 137.773 123.988 137.383C123.457 136.184 122.926 134.984 122.391 133.766C119.281 126.641 116.379 119.594 113.672 112.617H113.691Z" fill="#EB1C24"/>
<path d="M97.0195 207.41C97.0508 202.063 96.8477 196.211 96.2773 189.934C95.6172 182.711 94.5664 176.113 93.3594 170.211C95.7461 169.918 98.2656 169.52 100.914 168.98C102.352 168.688 103.738 168.363 105.074 168.027C105.871 172.219 106.613 176.547 107.273 181.012C108.684 190.477 109.598 199.496 110.145 208.012" fill="white"/>
<path d="M97.0195 207.41C97.0508 202.063 96.8477 196.211 96.2773 189.934C95.6172 182.711 94.5664 176.113 93.3594 170.211C95.7461 169.918 98.2656 169.52 100.914 168.98C102.352 168.688 103.738 168.363 105.074 168.027C105.871 172.219 106.613 176.547 107.273 181.012C108.684 190.477 109.598 199.496 110.145 208.012" stroke="black" stroke-width="0.5625" stroke-linecap="round" stroke-linejoin="round"/>
<path d="M90.3828 57.9962C91.5586 56.7892 92.7461 56.2267 93.4414 55.961C95.6758 55.1095 98.8281 55.0236 101.031 56.7892C101.594 57.2384 101.969 57.7111 102.195 58.0158C100.934 58.4533 99.1406 58.9181 96.9609 58.9923C94.1172 59.0978 91.8242 58.4962 90.3828 58.004V57.9962Z" fill="#EB1C24" stroke="black" stroke-width="0.5625" stroke-linecap="round" stroke-linejoin="round"/>
<path d="M112.117 73.5273C108.496 77.9297 107.836 83.0508 107.902 86.6445C107.836 90.2305 108.496 95.3516 112.117 99.7617C114.426 102.574 117.121 104.09 118.816 104.863C118.141 97.8281 120.359 92.2266 124.019 90.9336C124.754 90.6797 125.836 90.4922 127.312 90.8281C127.352 89.5039 127.379 88.1758 127.418 86.8477H127.426C127.426 86.7812 127.426 86.711 127.426 86.6445V86.4414C127.387 85.1133 127.359 83.7891 127.32 82.461C125.836 82.7969 124.754 82.6094 124.027 82.3555C120.367 81.0742 118.141 75.4688 118.824 68.4258C117.129 69.207 114.434 70.7226 112.125 73.5273H112.117Z" stroke="black" stroke-width="0.5625" stroke-linecap="round" stroke-linejoin="round"/>
<path d="M130.402 90.8282C131.113 91.1993 132.48 91.7735 134.219 91.6837C135.105 91.6407 135.809 91.6017 136.41 91.1212C137.266 90.4415 137.273 88.9102 137.266 85.8712C137.266 83.4727 137.055 82.8204 136.559 82.3633C136.043 81.8907 135.422 81.8087 134.684 81.7266C133.891 81.6368 132.328 81.5899 130.402 82.4532V90.8282Z" stroke="black" stroke-width="0.5625" stroke-linecap="round" stroke-linejoin="round"/>
<path d="M70.1641 82.9766C70.3125 83.4649 70.7695 85.2031 69.8789 86.961C69.6055 87.4922 68.9258 88.836 67.4336 89.211C66.4492 89.457 65.6094 89.1484 65.25 88.9922C65.2813 89.2617 65.3984 90.1328 66.0977 90.8516C66.5781 91.3399 67.1016 91.543 67.3711 91.6172C66.9141 91.8203 66.1289 92.0898 65.1367 92.0508C64.6289 92.0312 64.1992 91.9414 63.8633 91.836C64.1836 92.2695 65.0039 93.2461 66.4141 93.7539C67.9727 94.3242 69.3242 93.9883 69.9688 93.8164C70.4922 93.6797 72.7188 93.0937 73.8359 91.1758C74.8438 89.4414 74.2344 87.8438 75.7422 86.4258C76.0352 86.1562 76.3125 85.9688 76.5 85.8633C75.9844 85.2891 74.2109 83.1641 74.5039 80.3985C74.5742 79.7813 74.7305 79.2422 74.918 78.7852C73.6875 79.6758 72.4062 80.7344 71.1289 81.9805C70.793 82.3086 70.4688 82.6485 70.1562 82.9766H70.1641Z" fill="black" stroke="black" stroke-width="0.5625" stroke-linecap="round" stroke-linejoin="round"/>
<path d="M94.3594 100.184C95.2109 102.215 96.2461 105.477 96.0469 109.488C95.9688 110.945 95.7539 112.242 95.4766 113.359C94.7109 112.43 93.3984 111.078 91.4336 110C90 109.211 88.6719 108.816 87.6758 108.613C86.5859 109.273 85.2656 110.227 83.9531 111.574C83.1289 112.422 82.4609 113.262 81.9375 114.02C80.4062 112.676 78.8398 111.223 77.25 109.664C75.5625 107.996 73.4336 105.785 71.0938 103.062C69.8711 101.637 68.4453 99.8984 66.9141 97.8711C67.418 97.4219 67.9883 96.8437 68.543 96.1172C69.1875 95.2852 69.6445 94.4883 69.9766 93.8242C70.1719 93.7695 70.3789 93.7109 70.5977 93.6367C70.7188 93.5977 70.8359 93.5508 70.9414 93.5078C72.1719 95.2695 73.6406 97.1445 75.4141 99.043C79.6563 103.586 84.0898 106.617 87.6758 108.613C88.6367 107.703 89.8281 106.387 90.9375 104.594C92.0234 102.828 92.6719 101.18 93.0586 99.9141C93.4883 100.004 93.9141 100.094 94.3516 100.184H94.3594Z" fill="white"/>
<path d="M87.6758 108.613C88.6719 108.816 90 109.211 91.4336 110C93.3984 111.078 94.7109 112.43 95.4766 113.359C95.7539 112.242 95.9687 110.945 96.0469 109.488C96.2461 105.477 95.2109 102.215 94.3594 100.184H94.3516C93.9141 100.094 93.4883 100.004 93.0586 99.9141C92.6719 101.18 92.0234 102.828 90.9375 104.594C89.8281 106.387 88.6367 107.703 87.6758 108.613ZM87.6758 108.613C86.5859 109.273 85.2656 110.227 83.9531 111.574C83.1289 112.422 82.4609 113.262 81.9375 114.02C80.4062 112.676 78.8398 111.223 77.25 109.664C75.5625 107.996 73.4336 105.785 71.0937 103.063C69.8711 101.637 68.4453 99.8985 66.9141 97.8711C67.418 97.4219 67.9883 96.8438 68.543 96.1172C69.1875 95.2852 69.6445 94.4883 69.9766 93.8242C70.1719 93.7695 70.3789 93.7109 70.5977 93.6367C70.7187 93.5977 70.8359 93.5508 70.9414 93.5078C72.1719 95.2695 73.6406 97.1446 75.4141 99.043C79.6562 103.586 84.0898 106.617 87.6758 108.613Z" stroke="black" stroke-width="0.5625" stroke-linecap="round" stroke-linejoin="round"/>
<path d="M87.6914 108.613C88.0508 109.852 88.3867 111.238 88.6484 112.773C88.8516 113.961 88.9805 115.078 89.0625 116.113" stroke="black" stroke-width="0.5625" stroke-linecap="round" stroke-linejoin="round"/>
<path d="M77.2188 115.574C79.0273 115.969 81.0391 116.293 83.2266 116.449C89.543 116.906 94.9063 115.863 98.7969 114.695" stroke="black" stroke-width="0.5625" stroke-linecap="round" stroke-linejoin="round"/>
<path d="M85.7852 159.246C86.0156 149.164 84.9961 132.988 77.2109 115.574C74.0391 108.469 70.3789 102.582 66.9219 97.8712C66.8164 97.6837 66.6133 97.3907 66.2695 97.1915C64.9492 96.4259 62.8125 97.8516 62.168 98.254C55.0938 102.77 39.7266 105.156 39.6836 111.461C39.6836 111.777 39.7109 112.34 40.0039 113.051C40.3516 112.512 40.957 111.719 41.918 111.027C43.2305 110.082 44.5273 109.805 45.2109 109.715C46.4492 110.676 48.1211 112.113 49.8359 114.102C51.6133 116.156 59.625 125.426 57.9141 137.449C57.082 143.317 54.2383 147.656 52.0664 150.274C52.8164 151.977 53.332 153.379 53.6641 154.332C54.293 156.172 54.4883 157.102 55.3633 157.949C56.1523 158.719 57.082 159.02 57.7031 159.156C63.4648 159.41 69.457 159.539 75.668 159.484C79.1094 159.453 82.4844 159.379 85.7852 159.262V159.246Z" fill="white" stroke="black" stroke-width="0.5625" stroke-linecap="round" stroke-linejoin="round"/>
<path d="M95.9414 106.168C97.2539 109.109 98.4375 112.406 99.3242 116.066C103.852 134.773 97.8008 151.25 94.2227 159.086C97.8008 158.887 101.379 158.684 104.953 158.488C105.301 158.121 105.797 157.535 106.23 156.734C107.992 153.508 107.07 150.086 106.746 147.559C106.289 144.02 107.109 140.938 108.734 134.773C110.715 127.281 112.371 127.859 113.437 121.828C113.984 118.73 115.02 112.379 111.496 108.387C110.715 107.504 109.926 106.992 108.66 106.266C105.609 104.516 100.922 102.199 94.3594 100.176C94.6875 100.949 95.0117 101.832 95.2891 102.836C95.625 104.059 95.8281 105.184 95.9414 106.16V106.168Z" fill="white" stroke="black" stroke-width="0.5625" stroke-linecap="round" stroke-linejoin="round"/>
<path d="M41.0938 108.41C41.5195 108.133 41.9023 108.035 42.1641 108.004C43.8906 107.789 45.1484 109.602 45.2188 109.707" stroke="black" stroke-width="0.5625" stroke-linecap="round" stroke-linejoin="round"/>
<path d="M45.668 105.449C45.8242 105.402 46.1094 105.328 46.4687 105.289C51.6992 104.758 57.2031 113.691 59.4805 120.516C60.0898 122.336 60.9883 125.098 61.1094 128.773C61.4766 140 54.1367 148.121 52.0742 150.262" stroke="black" stroke-width="0.5625" stroke-linecap="round" stroke-linejoin="round"/>
<path d="M106.785 105.246C108.285 107.219 110.387 110.562 111.234 115.129C111.328 115.664 111.539 116.898 111.609 118.805C111.703 121.754 111.473 126.648 109.273 132.898" stroke="black" stroke-width="0.5625" stroke-linecap="round" stroke-linejoin="round"/>
<path d="M40.0117 113.047C37.7773 121.137 35.6719 127.578 34.2226 131.84C29.918 144.461 27.3906 149.328 27.5234 157.273C27.6211 163.016 29.0625 167.652 30.1797 170.531C29.4609 171.77 28.1094 174.492 28.2148 178.102C28.3125 181.566 29.6992 184.031 30.5703 185.531C31.8281 187.707 33.293 189.191 34.3281 190.102C33.9765 190.371 33.4805 190.797 33 191.414C32.6015 191.922 32.3476 192.254 32.2578 192.727C32.0859 193.664 32.6758 194.48 32.8945 194.75C32.7969 194.906 32.5195 195.41 32.5742 196.094C32.6172 196.664 32.8789 197.059 33 197.219C32.9101 197.441 32.5351 198.492 33.0312 199.602C33.2773 200.164 33.6523 200.516 33.8789 200.699C33.8242 200.773 33.3437 201.477 33.6133 202.34C33.9219 203.324 34.9062 203.562 34.9414 203.57C37.1015 202.477 39.5039 201.371 42.1406 200.336C44.5351 199.398 46.8164 198.637 48.9453 198.004C49.0273 197.84 49.3047 197.227 49.125 196.445C48.9687 195.746 48.5312 195.344 48.3828 195.215C48.4805 195.133 49.1484 194.539 49.164 193.535C49.1758 192.508 48.4883 191.887 48.3906 191.809C48.5547 191.48 48.7344 190.992 48.789 190.387C48.9062 188.93 48.1719 187.852 47.9414 187.535C50.293 183.313 50.332 181.762 49.8164 181.191C49.6562 181.012 49.2226 180.68 48.7969 180.004C48.4336 179.434 48.2461 178.902 48.1484 178.527C48.5469 177.254 48.9219 175.738 49.1406 173.996C49.5312 170.953 49.3125 168.328 48.9961 166.398C49.6797 163.789 50.3711 161.188 51.0508 158.578C51.0078 157.559 50.9531 156.531 50.9101 155.512C51.3008 153.754 51.6914 152 52.0781 150.246C53.8594 148.07 58.0508 142.309 58.164 134.234C58.2383 128.945 56.5351 124.992 55.5 122.645C52.5078 115.879 47.8945 111.738 45.2265 109.691C44.543 109.789 43.2383 110.066 41.9336 111.004C40.957 111.703 40.3594 112.496 40.0195 113.031L40.0117 113.047Z" fill="#EB1C24" stroke="black" stroke-width="0.5625" stroke-linecap="round" stroke-linejoin="round"/>
<path d="M30.1797 170.539C31.5078 172.391 33.9766 175.363 37.9414 177.777C41.5664 179.984 44.9492 180.824 47.0859 181.176" stroke="black" stroke-width="0.5625" stroke-linecap="round" stroke-linejoin="round"/>
<path d="M28.2656 176.398C29.0156 177.852 30.0977 179.406 31.6641 180.734C38.0937 186.176 47.1992 183.23 48.2461 182.871" stroke="black" stroke-width="0.5625" stroke-linecap="round" stroke-linejoin="round"/>
<path d="M50.9101 155.523C50.5585 154.578 50.0624 153.156 49.6054 151.387C48.6132 147.559 48.0663 143.211 48.6757 131.301C48.8163 128.539 49.0429 124.926 49.4179 120.664" stroke="black" stroke-width="0.5625" stroke-linecap="round" stroke-linejoin="round"/>
<path d="M48.996 166.414C47.4218 163.168 45.6367 158.734 44.4609 153.262C43.2617 147.695 43.0742 142.82 43.1835 139.16" stroke="black" stroke-width="0.5625" stroke-linecap="round" stroke-linejoin="round"/>
<path d="M32.8867 194.766C33.7422 193.953 35.1992 192.785 37.2617 191.953C39.7266 190.961 41.9102 190.926 43.1406 191" stroke="black" stroke-width="0.5625" stroke-linecap="round" stroke-linejoin="round"/>
<path d="M48.5703 195.352C46.1484 195.359 42.2109 195.738 38.0469 197.906C36.3594 198.785 34.9805 199.781 33.8789 200.711" stroke="black" stroke-width="0.5625" stroke-linecap="round" stroke-linejoin="round"/>
<path d="M34.3281 190.11C36.5703 189.02 39.7969 187.828 43.7852 187.535C45.3008 187.422 46.6953 187.453 47.9336 187.567" stroke="black" stroke-width="0.5625" stroke-linecap="round" stroke-linejoin="round"/>
<path d="M107.266 152.887C108.691 154.191 110.91 156.172 113.781 158.48C115.027 159.477 115.641 159.98 116.016 160.234C120.988 163.676 130.094 163.813 134.941 158.977C136.875 157.039 137.656 154.781 137.762 154.484C138.609 151.941 138.336 149.703 138.137 148.617" stroke="black" stroke-width="0.5625" stroke-linecap="round" stroke-linejoin="round"/>
<path d="M113.445 112.016L123.164 135.672" stroke="black" stroke-width="0.5625" stroke-linecap="round" stroke-linejoin="round"/>
<path d="M48.3086 198.215C48.6523 198.777 49.0117 199.488 49.2969 200.352C49.957 202.355 49.8359 204.133 49.6719 205.191C44.7617 204.656 39.8477 204.125 34.9336 203.594C39.3906 201.801 43.8516 200.008 48.3086 198.215Z" stroke="black" stroke-width="0.5625" stroke-linecap="round" stroke-linejoin="round"/>
<path d="M58.168 168.312C56.3477 174.641 54.668 182.367 53.8633 191.246C53.3008 197.449 53.2735 203.129 53.5196 208.129C53.9532 208.664 61.8985 217.934 73.0039 216.102C78.6602 215.172 82.3594 211.82 83.8516 210.289C84.0586 208.941 84.2696 207.59 84.4883 206.234C84.4414 199.602 84.5039 192.777 84.7032 185.766C84.8555 180.559 85.0664 175.469 85.3438 170.488C76.2891 169.762 67.2305 169.039 58.1758 168.312H58.168Z" fill="white" stroke="black" stroke-width="0.5625" stroke-linecap="round" stroke-linejoin="round"/>
<path d="M85.3359 170.488C84.8477 179.414 84.5469 188.609 84.4805 198.043C84.457 200.797 84.457 203.523 84.4805 206.227" stroke="black" stroke-width="0.5625" stroke-linecap="round" stroke-linejoin="round"/>
<path d="M130.582 147.629C131.094 148.078 132.742 149.398 135.121 149.398C135.766 149.398 137.016 149.398 138.129 148.617C140.684 146.816 140.113 142.488 140.078 142.242C139.965 141.441 139.836 141.207 138.09 136.574C137.641 135.371 137.273 134.383 137.031 133.738" stroke="black" stroke-width="0.5625" stroke-linecap="round" stroke-linejoin="round"/>
<path d="M126.922 190.586C126.922 174.102 126.922 157.609 126.922 141.125H130.824C130.824 156.762 130.824 172.398 130.824 188.039" fill="white"/>
<path d="M126.922 190.586C126.922 174.102 126.922 157.609 126.922 141.125H130.824C130.824 156.762 130.824 172.398 130.824 188.039" stroke="black" stroke-width="0.5625" stroke-linecap="round" stroke-linejoin="round"/>
<path d="M130.824 115.625H126.922V125.113H130.824V115.625Z" fill="white" stroke="black" stroke-width="0.5625" stroke-linecap="round" stroke-linejoin="round"/>
<path d="M124.77 128.352C124.664 127.934 124.606 127.356 124.875 126.828C125.152 126.289 125.789 125.809 128.543 125.504C131.762 125.141 133.371 124.961 134.762 125.953C135.09 126.191 136.297 127.039 136.461 128.457C136.524 128.961 136.434 129.387 136.359 129.664C137.211 130.453 137.406 131.113 137.422 131.578C137.445 132.289 137.055 132.613 137.031 133.738C137.016 134.383 137.145 134.406 137.102 134.938C137.024 135.816 136.672 136.039 136.426 136.813C135.961 138.266 136.746 138.949 136.215 139.754C135.922 140.188 135.449 140.359 134.512 140.57C133.035 140.898 132.211 140.996 128.527 141.141C127.449 141.184 127.059 141.086 126.84 140.969C126.789 140.938 126.734 140.898 126.684 140.863C125.738 140.105 126.039 138.32 126.156 137.734" stroke="black" stroke-width="0.5625" stroke-linecap="round" stroke-linejoin="round"/>
<path d="M126.922 141.125C124.746 140.742 123.195 139.871 123.106 138.875C123.074 138.559 123.164 137.937 123.586 137.652C123.914 137.426 124.313 137.512 124.664 137.563C125.504 137.699 126.367 137.742 127.215 137.773C129.164 137.855 131.676 137.27 132.496 137.066" stroke="black" stroke-width="0.5625" stroke-linecap="round" stroke-linejoin="round"/>
<path d="M126.359 137.734C126.219 137.246 126.074 136.676 125.977 136.039C125.879 135.379 125.844 134.789 125.836 134.27C125.648 133.953 125.031 132.816 125.34 131.398C125.488 130.691 125.82 130.176 126.047 129.875C125.902 129.809 125.039 129.363 124.77 128.352C124.574 127.633 124.793 127.031 124.875 126.828" stroke="black" stroke-width="0.5625" stroke-linecap="round" stroke-linejoin="round"/>
<path d="M124.363 137.516C124.254 137.48 123.563 137.227 123.277 136.496C123.082 135.996 123.098 135.297 123.488 134.898C123.586 134.801 123.719 134.711 124.582 134.512C125.094 134.391 125.52 134.316 125.82 134.262C126.406 134.219 126.996 134.156 127.598 134.09C129.328 133.895 130.965 133.625 132.488 133.301" stroke="black" stroke-width="0.5625" stroke-linecap="round" stroke-linejoin="round"/>
<path d="M124.027 134.66C123.871 134.555 123.586 134.328 123.367 133.949C123.316 133.859 123.082 133.445 123.098 132.988C123.105 132.68 123.227 132.273 124.246 131.316C124.672 130.91 125.273 130.398 126.051 129.867C127.102 129.727 128.152 129.574 129.219 129.426C130.199 129.281 131.168 129.141 132.141 128.996" stroke="black" stroke-width="0.5625" stroke-linecap="round" stroke-linejoin="round"/>
<path d="M124.664 127.25C124.02 127.82 123.645 128.391 123.426 128.773C123.047 129.461 122.543 130.355 122.887 131.18C123.059 131.586 123.383 131.84 123.602 131.977" stroke="black" stroke-width="0.5625" stroke-linecap="round" stroke-linejoin="round"/>
<path d="M124.359 127.543C124.164 127.281 123.645 126.641 122.754 126.402C121.988 126.192 120.809 126.231 120.488 126.859C120.301 127.227 120.473 127.664 120.668 128.172C120.988 129.004 121.453 129.531 121.629 129.735C122.109 130.297 122.707 131.18 123.203 132.567" stroke="black" stroke-width="0.5625" stroke-linecap="round" stroke-linejoin="round"/>
<path d="M123.441 137.406C122.219 137.586 119.438 138.148 116.746 140.328C114.066 142.496 112.926 145.078 112.492 146.234" stroke="black" stroke-width="0.5625" stroke-linecap="round" stroke-linejoin="round"/>
<path d="M123.336 137.613C121.836 138.379 119.121 140.023 116.91 143.141C113.762 147.566 113.594 152.156 113.617 153.824" stroke="black" stroke-width="0.5625" stroke-linecap="round" stroke-linejoin="round"/>
<path d="M126.008 140.824C125.484 141.371 123.976 143.113 123.773 145.754C123.457 149.863 126.601 152.512 126.914 152.766" stroke="black" stroke-width="0.5625" stroke-linecap="round" stroke-linejoin="round"/>
<path d="M130.824 153.77C131.324 153.875 132.406 154.031 133.672 153.637C134.773 153.289 135.512 152.684 135.879 152.328" stroke="black" stroke-width="0.5625" stroke-linecap="round" stroke-linejoin="round"/>
<path d="M124.363 140.301C123.613 140.734 121.672 141.996 120.449 144.508C119.266 146.938 119.422 149.164 119.527 150.035" stroke="black" stroke-width="0.5625" stroke-linecap="round" stroke-linejoin="round"/>
<path d="M98.3399 89.375C97.8673 89.4492 97.4688 89.4648 97.1837 89.4648C96.4884 89.4648 95.8634 89.4492 95.4142 89.0391C95.3087 88.9414 95.129 88.7734 95.1134 88.5273C95.086 88.1836 95.379 87.9258 95.4298 87.8828" stroke="black" stroke-width="0.5625" stroke-linecap="round" stroke-linejoin="round"/>
<path d="M79.8281 86.5391C79.7695 86.6914 79.539 87.2227 79.0586 87.3359C78.75 87.4102 78.4492 87.2734 77.9414 86.9062C77.1758 86.3594 76.7851 86.082 76.2383 85.3633C75.6211 84.5508 74.2656 82.7617 74.5117 80.3906C74.5937 79.6015 74.8281 78.9883 74.9922 78.6289" stroke="black" stroke-width="0.5625" stroke-linecap="round" stroke-linejoin="round"/>
<path d="M76.1641 77.8477C76.5391 77.7266 77.2266 77.5703 77.9414 77.8477C78.6094 78.1094 78.9687 78.6289 79.3711 79.2266C80.3008 80.6016 80.168 81.4492 80.8867 81.7266C81.3086 81.8906 81.8008 81.7695 82.1094 81.5391C82.6484 81.1328 82.6289 80.375 82.7187 79.5742C82.7617 79.2266 82.9648 77.4649 83.7539 76.3321C84.9531 74.5938 87.1133 74.8985 87.6602 73.2188C87.7812 72.8516 87.7812 72.5312 87.7656 72.3203C85.0664 73.3242 82.1758 74.5782 79.1914 76.1446C78.1367 76.6992 77.1211 77.2695 76.1484 77.8398L76.1641 77.8477Z" fill="black" stroke="black" stroke-width="0.5625" stroke-linecap="round" stroke-linejoin="round"/>
<path d="M79.0938 84.4101C79.2305 84.7617 78.9844 85.2578 78.629 85.4883C78.5235 85.5586 78.3673 85.6719 78.1641 85.6484C77.5352 85.5937 77.1993 84.3125 77.1094 83.6601C77.0235 83.082 76.9649 82.6406 77.2735 82.3242C77.5782 82.0117 78.0977 81.9961 78.4493 82.1445C78.6368 82.2187 78.9298 82.4141 78.9063 82.6016C78.8868 82.7891 78.586 82.7812 78.4337 83.0742C78.3282 83.2773 78.336 83.5312 78.4141 83.7109C78.5704 84.125 78.9688 84.0664 79.1016 84.4101H79.0938Z" fill="black"/>
<path d="M78.4962 80.4063C78.1564 79.6836 77.5353 79.2657 76.9806 79.3399C76.5001 79.4063 76.2071 79.8204 76.1095 79.9532C75.6095 80.6602 75.7579 81.5313 75.8243 81.9649C76.1329 83.7735 77.5665 84.9415 78.1134 85.3477" stroke="black" stroke-width="0.5625" stroke-linecap="round" stroke-linejoin="round"/>
<path d="M89.3008 78.547C89.3008 78.547 89.7305 78.086 90.4961 77.8243C91.5977 77.4571 92.6914 77.7579 93.3828 77.9532C93.7266 78.0508 94.0117 78.1719 94.5742 78.4024C96.0899 79.0313 96.6524 79.4141 97.2227 79.1837C97.2891 79.1524 97.5078 79.0548 97.6563 78.8282C97.8086 78.5977 97.8672 78.2657 97.7617 78.0352C97.582 77.629 96.9219 77.5626 96.6211 77.5313C94.0352 77.2383 93.8789 76.4962 92.4531 76.7071C90.5547 76.9923 89.2969 78.5391 89.3008 78.547Z" fill="black" stroke="black" stroke-width="0.5625" stroke-linecap="round" stroke-linejoin="round"/>
<path d="M126.488 95.2773L125.316 115.984H132.434L131.266 95.2773H130.402V78.6641C130.914 78.8438 131.586 78.9961 132.066 78.6641C133.215 77.8711 132.367 74.8398 131.895 73.0937C131.102 70.1523 130.035 65.8711 128.859 59.9883C127.566 66.0742 126.539 70.4219 125.676 73.7812C125.332 75.1094 124.598 77.9063 125.699 78.6641C126.172 78.9883 126.848 78.8438 127.363 78.6641V95.2773H126.488Z" fill="black" stroke="black" stroke-width="0.5625" stroke-linecap="round" stroke-linejoin="round"/>
<path d="M127.359 78.6641H130.402" stroke="black" stroke-width="0.5625" stroke-linecap="round" stroke-linejoin="round"/>
<path d="M130.402 95.2773H127.359V78.6641C127.859 77.2266 128.355 75.7852 128.859 74.3438C129.375 75.7852 129.887 77.2266 130.402 78.6641V95.2773Z" fill="white" stroke="black" stroke-width="0.5625" stroke-linecap="round" stroke-linejoin="round"/>
<path d="M70.1641 82.9765C71.1836 81.8984 72.6211 80.4961 74.4805 79.0312C76.8164 77.2031 80.7617 74.539 86.25 72.7851C90.2695 71.4961 98.8711 69.5 100.184 72.3047C100.328 72.6054 100.359 72.8984 100.359 73.1094C100.754 72.8281 102.195 71.7578 102.234 70.1836C102.234 70.1836 102.246 69.4609 101.895 68.7969C100.641 66.4023 93.0234 66.5898 86.0117 68.7969C83.9336 69.4492 81.0234 70.5664 77.6992 72.5234C76.7266 73.8945 75.5469 75.3867 74.1445 76.9101C72.4336 78.7617 70.7617 80.2539 69.2539 81.4414C69.5547 81.9492 69.8555 82.4609 70.1641 82.9765Z" fill="#EB1C24" stroke="black" stroke-width="0.5625" stroke-linecap="round" stroke-linejoin="round"/>
<path d="M102.051 69.1406C102.531 69.0781 103.266 68.9141 104.004 68.4492C106.246 67.0391 106.426 64.1602 106.461 63.5391C106.484 63.1406 106.648 59.7657 104.723 58.4961C103.809 57.8907 102.727 57.9727 101.437 58.0625C100.109 58.1524 99.1406 58.4883 98.8867 58.5742C97.4765 59.0391 95.1132 59.2539 90.9375 58.1446C88.7343 57.5391 85.8593 57.0664 82.5312 57.336C79.9726 57.5469 78.2109 58.1016 76.0273 58.7969C71.4218 60.2617 70.4492 61.5117 69.9961 62.3086C69.4492 63.2617 69.2695 64.2266 69.2109 64.9023C68.0234 66.8594 66.914 68.3008 66.1406 69.2305C64.4843 71.2344 63.6992 71.7109 63.1953 73.3008C62.6718 74.9531 62.8203 76.6016 62.8867 77.3086C62.9531 78.0586 63.0234 78.6953 63.3671 79.4141C63.9453 80.6016 64.8984 81.1914 65.371 81.4492C65.0039 82.6016 65.1679 83.8008 65.8437 84.3711C66.7968 85.1836 68.9492 84.8828 70.1718 82.9844C69.8711 82.4766 69.5703 81.9648 69.2617 81.4492C70.664 80.3359 72.2109 78.9727 73.7851 77.3086C75.375 75.6289 76.664 74 77.707 72.5312C81.1875 70.5937 84.2617 69.4023 86.5039 68.6523C86.5039 68.6523 92.6015 66.6289 98.8593 67.2578C100.719 67.4453 101.437 68.0977 101.766 68.586C101.926 68.8086 102.008 69.0196 102.051 69.1485V69.1406Z" fill="#EB1C24" stroke="black" stroke-width="0.5625" stroke-linecap="round" stroke-linejoin="round"/>
<path d="M69.2618 81.4415C67.418 81.5392 65.7071 80.5782 64.9063 78.9571C63.8086 76.7462 64.8907 74.3009 65.8438 73.1134C66.961 71.7266 68.0625 71.8477 69.5313 71.0665C74.3711 68.4962 73.3516 61.3478 76.7696 60.254C78.7657 59.6134 79.8438 61.8048 83.9414 63.4688C87.8008 65.0391 91.3946 64.9493 93.7969 64.6407" stroke="black" stroke-width="0.5625" stroke-linecap="round" stroke-linejoin="round"/>
<path d="M83.5273 59.9688C84.0586 59.7812 84.9531 59.5117 86.0781 59.3828C89.1758 59.0312 90.6758 60.1328 93.4961 59.9531C94.4102 59.8906 95.7969 59.6758 97.4766 58.8789" stroke="black" stroke-width="0.5625" stroke-linecap="round" stroke-linejoin="round"/>
<path d="M93.7344 58.2813C93.5703 58.0704 90.9688 54.8517 87.6445 55.3634C87.2383 55.422 86.0703 55.6095 85.043 56.5861C83.6758 57.8829 83.543 59.6134 83.5195 59.9688C83.3555 58.8712 83.1914 57.7775 83.0234 56.6837C82.5742 58.0392 82.1328 59.3986 81.6836 60.7462C81.1367 61.5509 80.332 62.5314 79.1992 63.4689C76.8086 65.4415 74.3477 66.004 73.1094 66.1915C73.2148 65.1368 73.3203 64.086 73.4258 63.0274C72.3672 64.6563 71.3164 66.2735 70.2617 67.9024C68.7617 68.0587 66.0156 68.129 63.1484 66.754C61.9141 66.1642 60.9453 65.4415 60.2266 64.797C60.6992 63.7345 62.1289 60.8673 65.2891 58.7814C67.9727 57.0118 70.5156 56.7267 71.6406 56.6759C72.1875 56.9142 72.9297 57.172 73.8281 57.3048C74.7461 57.4493 75.5547 57.4337 76.1758 57.3712C75.3516 56.8322 74.5195 56.2931 73.6875 55.754C75.5117 56.1212 76.9492 55.9025 77.8203 55.6837C79.4492 55.2814 79.582 54.7618 81.3359 54.1329C83.6992 53.2853 86.5781 53.4884 87.9766 53.7579C88.7344 53.9063 89.7305 54.1642 90.8555 54.6485" fill="white"/>
<path d="M93.7344 58.2813C93.5703 58.0704 90.9688 54.8517 87.6445 55.3634C87.2383 55.422 86.0703 55.6095 85.043 56.5861C83.6758 57.8829 83.543 59.6134 83.5195 59.9688C83.3555 58.8712 83.1914 57.7775 83.0234 56.6837C82.5742 58.0392 82.1328 59.3986 81.6836 60.7462C81.1367 61.5509 80.332 62.5314 79.1992 63.4689C76.8086 65.4415 74.3477 66.004 73.1094 66.1915C73.2148 65.1368 73.3203 64.086 73.4258 63.0274C72.3672 64.6563 71.3164 66.2735 70.2617 67.9024C68.7617 68.0587 66.0156 68.129 63.1484 66.754C61.9141 66.1642 60.9453 65.4415 60.2266 64.797C60.6992 63.7345 62.1289 60.8673 65.2891 58.7814C67.9727 57.0118 70.5156 56.7267 71.6406 56.6759C72.1875 56.9142 72.9297 57.172 73.8281 57.3048C74.7461 57.4493 75.5547 57.4337 76.1758 57.3712C75.3516 56.8322 74.5195 56.2931 73.6875 55.754C75.5117 56.1212 76.9492 55.9025 77.8203 55.6837C79.4492 55.2814 79.582 54.7618 81.3359 54.1329C83.6992 53.2853 86.5781 53.4884 87.9766 53.7579C88.7344 53.9063 89.7305 54.1642 90.8555 54.6485" stroke="black" stroke-width="0.5625" stroke-linecap="round" stroke-linejoin="round"/>
<path d="M60.4258 64.9687C60.9609 64.3398 61.7773 63.5156 62.9336 62.8476C66.5625 60.7617 69.1641 62.789 73.5977 60.7617C74.3711 60.4101 75.5703 59.8633 76.8359 58.7148C78.6211 57.1015 78.9297 55.7539 80.625 54.6367C81.7734 53.8789 82.9219 53.6367 83.6992 53.5625" stroke="black" stroke-width="0.5625" stroke-linecap="round" stroke-linejoin="round"/>
<path d="M93.8984 59.5781C94.6484 59.7187 95.6719 57.9492 96.1133 56.4336C96.9219 53.6758 96.0078 51.0937 95.4453 49.4883C94.9961 48.207 94.0781 46.1211 92.2266 44.0078C91.9336 44.375 91.6484 44.7344 91.3594 45.1016C90.7344 44.1641 89.3555 42.3633 87 41.2344C86.4961 40.9922 83.0156 39.3711 79.1563 40.8633C78.0469 41.293 77.2813 41.832 76.7383 42.2148C74.0703 44.1133 74.0703 45.6367 71.6484 47.3828C70.6563 48.1015 69.2383 49.0937 67.4766 48.8594C67.125 48.8164 65.0234 48.5469 64.5391 46.8867C64.1992 45.7383 64.8359 44.6211 64.9961 44.375C64.793 44.6602 64.5078 45.1328 64.3438 45.793C64.2969 45.9805 63.9453 47.414 64.5977 48.6953C65.2891 50.0664 66.7031 50.4805 66.9844 50.5547C70.4492 51.5586 74.3242 47.457 78.5703 46.4766C78.8867 46.3984 79.4531 46.2891 80.168 46.4062C81.6758 46.6719 82.7109 47.8086 83.25 48.5312C84.3008 47.9687 85.3516 47.4141 86.3984 46.8516C85.8242 47.7734 85.2539 48.7031 84.6758 49.625C85.9258 50.2617 87.1875 50.8984 88.4414 51.5391C88.1641 51.7266 87.8867 51.9219 87.6094 52.1094C91.1016 53.9531 92.3867 55.9766 92.9024 57.5156C93.1953 58.3906 93.3594 59.457 93.9063 59.5625L93.8984 59.5781Z" fill="white" stroke="black" stroke-width="0.5625" stroke-linecap="round" stroke-linejoin="round"/>
<path d="M94.1406 59.5547C94.3945 58.3321 94.7539 55.879 94.0195 52.9766C93.8867 52.4298 93.2188 49.9337 91.2539 47.4962C88.6289 44.2383 83.3555 40.7227 78.0312 42.5079C76.9961 42.8516 74.8281 43.7813 72.7812 46.4297" stroke="black" stroke-width="0.5625" stroke-linecap="round" stroke-linejoin="round"/>
<path d="M72.6211 92.5703C72.6602 93.6797 72.6914 94.7969 72.7266 95.9063" stroke="black" stroke-width="0.5625" stroke-linecap="round" stroke-linejoin="round"/>
<path d="M46.0039 105.402C45.7422 106.836 45.4805 108.266 45.2188 109.699L53.625 109.574C53.1523 111.941 52.6719 114.305 52.1992 116.676C54.3164 117.133 56.4297 117.59 58.543 118.055C57.75 120.109 56.9531 122.156 56.1602 124.211L61.0352 127.664C60.0312 128.945 59.0156 130.227 58.0117 131.512C58.8242 132.785 59.6328 134.066 60.4492 135.344C59.6016 136.039 58.7617 136.738 57.9141 137.434" stroke="black" stroke-width="0.5625" stroke-linecap="round" stroke-linejoin="round"/>
<path d="M108.449 107.621C109.867 108.469 111.285 109.309 112.703 110.156C112.172 111.621 111.645 113.074 111.113 114.539C111.961 116.316 112.816 118.086 113.664 119.863C112.949 121.07 112.23 122.27 111.516 123.477" stroke="black" stroke-width="0.5625" stroke-linecap="round" stroke-linejoin="round"/>
<path d="M62.1758 98.2461C62.6484 98.9766 63.3242 100.016 64.1094 101.293C69.5039 109.969 72.8398 117.086 73.4844 118.504C76.9336 126.109 80.4844 140.629 81.6523 159.32" stroke="black" stroke-width="0.5625" stroke-linecap="round" stroke-linejoin="round"/>
<path d="M97.1836 101.113C99.6758 106.016 102.676 113.465 103.688 122.914C105.512 139.91 99.8164 153.133 96.8906 158.891" stroke="black" stroke-width="0.5625" stroke-linecap="round" stroke-linejoin="round"/>
<path d="M81.2266 170.602C80.6914 184.387 80.1602 198.172 79.6289 211.949" stroke="black" stroke-width="0.5625" stroke-linecap="round" stroke-linejoin="round"/>
<path d="M95.8945 169.934C96.9766 174.68 97.9648 179.727 98.8047 185.059C100.094 193.227 100.844 200.898 101.242 207.973" stroke="black" stroke-width="0.5625" stroke-linecap="round" stroke-linejoin="round"/>
<path d="M62.1758 98.2461C63.7578 98.1211 65.3398 97.9922 66.9219 97.8633C66.2305 99.4023 65.5352 100.941 64.8437 102.477C66.9883 103.102 69.1406 103.723 71.2891 104.352C70.7383 106.379 70.1836 108.41 69.6367 110.434C71.6992 111.156 73.7617 111.883 75.8242 112.602L73.6484 118.887L79.9727 122.449C78.832 124.016 77.6836 125.578 76.5469 127.145C78.6016 128.473 80.6563 129.801 82.7109 131.129C81.3086 132.477 79.9141 133.836 78.5117 135.184C80.4688 136.609 82.4336 138.043 84.3906 139.469C82.9648 141.074 81.5313 142.676 80.1094 144.281C81.8984 145.566 83.6836 146.848 85.4766 148.129C84.0313 149.668 82.5742 151.199 81.1289 152.734C82.6875 153.734 84.2461 154.723 85.8086 155.719C84.5156 156.809 83.2187 157.895 81.9297 158.984" stroke="black" stroke-width="0.5625" stroke-linecap="round" stroke-linejoin="round"/>
<path d="M81.2266 170.602C82.5234 171.973 83.8203 173.344 85.1172 174.719C83.7539 175.812 82.3789 176.906 81.0156 178.004C82.2734 179.48 83.543 180.957 84.8008 182.434C83.3984 183.852 81.9883 185.27 80.5859 186.68C81.9141 188.262 83.2422 189.844 84.5625 191.434C83.1914 192.711 81.8164 193.984 80.4453 195.262L84.4727 199.723C82.9648 201.262 81.457 202.789 79.9492 204.328C81.2031 205.625 82.4609 206.93 83.7148 208.227" stroke="black" stroke-width="0.5625" stroke-linecap="round" stroke-linejoin="round"/>
<path d="M94.2539 100.078C95.8203 101.684 97.3867 103.297 98.9492 104.898C98.0703 105.598 97.1836 106.297 96.3086 106.992L101.184 110.906C100.352 111.824 99.5234 112.738 98.6914 113.652C100.109 115.047 101.52 116.441 102.937 117.844C102.082 119.039 101.219 120.23 100.363 121.422C101.559 122.824 102.742 124.227 103.934 125.637C102.937 126.77 101.949 127.91 100.949 129.043C101.941 130.586 102.93 132.133 103.914 133.676C102.797 134.699 101.676 135.711 100.559 136.73C101.324 138.387 102.09 140.047 102.855 141.703C101.707 142.363 100.559 143.016 99.4141 143.676C99.9688 145.34 100.523 146.996 101.078 148.664C99.8633 149.422 98.6484 150.176 97.4336 150.926C97.7617 152.516 98.0937 154.109 98.4219 155.699C97.0742 156.719 95.7305 157.746 94.3789 158.766" stroke="black" stroke-width="0.5625" stroke-linecap="round" stroke-linejoin="round"/>
<path d="M96.0742 169.895C95.3398 170.801 94.6133 171.719 93.8789 172.625C94.9258 173.613 95.9766 174.613 97.0273 175.602C96.4062 177.086 95.7734 178.578 95.1523 180.066C96.2383 180.934 97.3281 181.797 98.4141 182.668C97.6133 183.996 96.8086 185.324 96 186.656C97.207 188.008 98.4141 189.363 99.6133 190.715C98.7539 192.043 97.8906 193.371 97.0273 194.699C98.2109 196.234 99.4062 197.773 100.59 199.309C99.3906 200.668 98.1914 202.023 96.9961 203.383C98.4062 204.793 99.8086 206.195 101.219 207.605" stroke="black" stroke-width="0.5625" stroke-linecap="round" stroke-linejoin="round"/>
<path d="M80.9023 92.0664C80.6914 93.0859 80.5586 94.625 81.3984 95.8242C82.1328 96.8672 83.0156 96.8164 86.289 97.8789C88.2539 98.5156 90.3437 99.3203 93.0664 99.914C93.6992 100.047 94.875 100.289 95.9922 99.7187C96.5547 99.4336 96.8906 99.043 96.9843 98.9375C97.8672 97.8867 97.7851 96.4765 97.7617 95.8164C97.7109 94.3554 97.8086 92.3164 98.332 89.3672C100.719 89.2461 101.121 88.5586 101.219 88.289C101.363 87.8906 101.137 87.5898 100.371 86.0508C99.2617 83.832 99.0234 83.0234 98.9414 82.707C98.6093 81.5078 98.4297 80.8555 98.7304 80.1562C99.1484 79.1758 100.027 79.2734 100.434 78.2461C100.664 77.6445 100.492 77.3008 100.379 76.0117C100.32 75.3281 100.273 74.3359 100.363 73.1094" stroke="black" stroke-width="0.5625" stroke-linecap="round" stroke-linejoin="round"/>
<path d="M57.3242 159.141C57.2031 159.449 57.0586 159.914 57.039 160.488C57.0078 161.48 57.3437 162.223 57.5312 162.574C56.8789 163.477 56.6758 164.516 57.0742 165.281C57.164 165.449 57.3086 165.664 57.5703 165.867C57.5312 165.926 57.0664 166.672 57.3906 167.473C57.6094 168.004 58.043 168.246 58.1719 168.312C66.3242 169.469 73.3359 170.016 78.8242 170.285C89.6719 170.816 95.0234 170.285 100.012 169.191C102.023 168.746 103.656 168.281 104.762 167.945C104.828 167.906 105.449 167.562 105.562 166.812C105.652 166.219 105.359 165.785 105.301 165.688C105.473 165.461 105.66 165.148 105.781 164.758C106.176 163.469 105.562 162.312 105.406 162.043C105.547 161.789 105.797 161.285 105.801 160.617C105.824 159.441 105.113 158.652 104.953 158.48C98.6719 158.84 92.1992 159.102 85.5508 159.246C75.7812 159.453 66.3515 159.402 57.3164 159.133L57.3242 159.141Z" fill="black" stroke="black" stroke-width="0.5625" stroke-linecap="round" stroke-linejoin="round"/>
<path d="M56.4062 162.418C60.9844 163.004 65.8359 163.445 70.9492 163.672C84.293 164.27 96.2773 163.309 106.523 161.727" stroke="white" stroke-width="0.5625" stroke-linecap="round" stroke-linejoin="round"/>
<path d="M56.668 165.875C61.4922 166.301 67.2734 166.43 73.7539 165.793C78.293 165.344 82.3945 164.602 85.9805 163.746" stroke="white" stroke-width="0.5625" stroke-linecap="round" stroke-linejoin="round"/>
<path d="M106.312 165.551C100.574 166.242 94.1914 166.738 87.2617 166.852C80.3086 166.961 73.8984 166.672 68.1211 166.152" stroke="white" stroke-width="0.5625" stroke-linecap="round" stroke-linejoin="round"/>
<path d="M89.9492 170.996C93.0508 170.996 95.5664 168.082 95.5664 164.488C95.5664 160.891 93.0508 157.977 89.9492 157.977C86.8437 157.977 84.3281 160.891 84.3281 164.488C84.3281 168.082 86.8437 170.996 89.9492 170.996Z" fill="white" stroke="black" stroke-width="0.5625" stroke-linecap="round" stroke-linejoin="round"/>
<path d="M91.4336 170.996C94.5352 170.996 97.0508 168.082 97.0508 164.488C97.0508 160.891 94.5352 157.977 91.4336 157.977C88.3281 157.977 85.8164 160.891 85.8164 164.488C85.8164 168.082 88.3281 170.996 91.4336 170.996Z" fill="white" stroke="black" stroke-width="0.5625" stroke-linecap="round" stroke-linejoin="round"/>
<path d="M128.852 57.1758C128.852 64.3477 128.852 71.5117 128.859 78.6797" stroke="white" stroke-width="0.5625" stroke-linecap="round" stroke-linejoin="round"/>
<path d="M120.105 85.25C119.129 84.1914 117.996 83.1484 117.523 82.6093C117.172 82.2031 116.918 81.8906 116.812 81.7617C116.805 81.7539 116.797 81.7383 116.781 81.7344C116.773 81.7383 116.766 81.7539 116.754 81.7617C116.648 81.8906 116.398 82.2031 116.039 82.6093C115.566 83.1484 114.433 84.1836 113.461 85.25C112.484 86.3086 112.41 87.3711 112.59 88.25C112.777 89.1289 113.691 89.9609 115.141 89.7812C115.598 89.7187 115.926 89.5039 116.168 89.2344C116.004 90.4766 115.336 91.1211 115.336 91.1211H118.141C117.629 90.5508 117.449 89.7422 117.383 89.2344C117.621 89.5039 117.953 89.7109 118.402 89.7734C119.851 89.9531 120.773 89.1289 120.953 88.2422C121.141 87.3633 121.058 86.3008 120.082 85.2422L120.105 85.25Z" fill="#292929" stroke="black" stroke-width="0.5625" stroke-linecap="round" stroke-linejoin="round"/>
<path d="M94.2616 163.289C93.539 162.434 92.7069 161.594 92.3632 161.156C92.1015 160.828 91.914 160.578 91.8358 160.477C91.8358 160.469 91.8241 160.461 91.8163 160.445C91.8163 160.453 91.8007 160.461 91.7929 160.477C91.7187 160.578 91.5312 160.828 91.2655 161.156C90.9218 161.602 90.0819 162.434 89.371 163.289C88.6483 164.141 88.5976 164.996 88.7343 165.711C88.8671 166.422 89.5429 167.09 90.6093 166.941C90.9452 166.895 91.1835 166.715 91.3632 166.496C91.246 167.504 90.7499 168.027 90.7499 168.027H92.8124C92.4374 167.562 92.3007 166.91 92.2577 166.504C92.4374 166.723 92.6757 166.895 93.0077 166.941C94.0741 167.09 94.746 166.414 94.8827 165.711C95.0155 164.996 94.9569 164.141 94.246 163.289H94.2616Z" fill="#292929" stroke="black" stroke-width="0.5625" stroke-linecap="round" stroke-linejoin="round"/>
<path d="M95.2344 83.5781C94.1016 82.9688 92.9688 82.3633 91.8281 81.7539C92.4375 81.7539 93.1719 81.7032 93.9883 81.5469C94.6719 81.4102 95.2656 81.2305 95.7617 81.0508" stroke="black" stroke-width="0.5625" stroke-linecap="round" stroke-linejoin="round"/>
<path d="M94.8086 81.3516C94.8516 81.4688 94.9883 81.8281 94.8594 82.2656C94.7695 82.5742 94.5977 82.7734 94.5078 82.8633" stroke="black" stroke-width="0.5625" stroke-linecap="round" stroke-linejoin="round"/>
<mask id="mask1_2314_1598" style="mask-type:luminance" maskUnits="userSpaceOnUse" x="11" y="10" width="147" height="79">
<path d="M11 10H158V89H11V10Z" fill="white"/>
</mask>
<g mask="url(#mask1_2314_1598)">
<mask id="mask2_2314_1598" style="mask-type:luminance" maskUnits="userSpaceOnUse" x="11" y="10" width="147" height="79">
<path d="M157.852 88.0859C157.852 62.1875 157.859 36.2812 157.867 10.3867C109.012 10.3867 60.1484 10.3867 11.2969 10.3906C11.2734 35.8711 11.25 61.3477 11.2266 86.8242C13.793 75.3867 18.9687 58.5195 28.8359 49.5117C36.3906 42.6289 40.1641 39.1758 43.1172 37.7969C44.4883 37.1523 48.8789 35.2539 52.5078 30.8242C53.1836 30.0039 53.6719 29.2852 53.9766 28.8047C54.293 29.2266 55.5078 30.7773 57.1797 30.8086C59.3555 30.8437 61.7852 28.2969 61.9062 24.4531C62.1602 25.0234 64.2969 29.5703 69.1562 30.5977C71.4961 31.0938 73.4609 30.5664 74.4766 30.207C75.1367 29.6602 76.0117 28.8125 76.8164 27.5977C77.6016 26.4063 78.0312 25.2891 78.2773 24.4766H90.8242C90.8984 24.9414 91.5078 28.3711 94.6289 30.0781C97.6797 31.7539 100.777 30.4766 101.73 30.0938C105.023 28.7656 106.418 26.0312 106.727 25.3867C107.469 28.9258 109.941 31.1133 112.117 30.9414C112.469 30.9141 113.602 30.7617 114.781 29.4414L118.539 32.5703C120.008 33.4414 122.07 34.7227 124.449 36.3867C127.238 38.3359 136.492 44.9063 143.762 54.3516C153.414 66.8906 156.645 80.6992 157.844 88.0703L157.852 88.0859Z" fill="white"/>
</mask>
<g mask="url(#mask2_2314_1598)">
<path d="M11.2266 10.3867V88.0859H157.867V10.3867H11.2266Z" fill="url(#paint0_linear_2314_1598)"/>
</g>
</g>
<path d="M158.242 228.184H10.7695C10.7695 182.855 10.7695 137.523 10.7695 92.1953C10.7695 64.8047 10.7695 37.4219 10.7695 10.0312H158.242C158.242 37.3789 158.242 64.7226 158.242 92.0664C158.242 137.441 158.242 182.809 158.242 228.184Z" stroke="#0E0E0E" stroke-width="0.75" stroke-linecap="round" stroke-linejoin="round"/>
<path d="M84.4219 32.4648C84.3672 31.8437 84.1133 29.6602 82.3047 27.8086C80.6836 26.1406 78.7813 25.7461 78.1289 25.6328C78.1797 24.9805 78.2344 24.3281 78.2852 23.6758C79.1406 23.2773 80.8594 22.332 82.2812 20.4219C83.7305 18.4766 84.1406 16.543 84.2773 15.6055C84.6133 16.7734 85.3594 18.7773 87.0508 20.7266C88.3594 22.2266 89.7461 23.1406 90.7031 23.6758C90.7578 24.3281 90.8086 24.9805 90.8633 25.6328C90.3984 25.6758 87.4062 26.0234 85.6055 28.6406C84.5469 30.1836 84.4219 31.7617 84.4062 32.4648H84.4219Z" fill="white"/>
<path d="M53.2109 22.0157C54.0469 21.7774 55.418 21.5157 56.9687 21.8907C58.3281 22.211 59.2422 22.8712 59.7617 23.2618C64.3203 26.6837 64.9961 29.336 68.1289 30.5392C68.5352 30.6954 71.4688 31.6642 74.4219 30.2813C76.5078 29.3087 77.9922 27.086 78.2266 24.6798C78.5547 21.2306 76.1563 17.8165 73.3711 17.1954C73.0508 17.1212 71.2969 16.7306 69.8633 17.8009C69.6836 17.9376 68.5742 18.793 68.4141 20.3009C68.3906 20.5235 68.2109 22.4688 69.6992 23.4142C70.5312 23.9376 71.5859 23.9688 72.4258 23.5782C73.6211 23.0313 74.3398 21.6564 74.1523 20.1876C74.4453 20.5118 74.8516 21.0118 75.1719 21.7032C75.3281 22.0313 76.3516 24.2892 75.375 26.4571C74.1914 29.0978 70.957 29.5626 70.5234 29.6212C67.6367 30.0353 64.6367 28.5196 62.668 25.797" stroke="#0E0E0E" stroke-width="0.75" stroke-linecap="round" stroke-linejoin="round"/>
<path d="M78.2852 23.586C78.8555 23.3086 79.7461 22.8047 80.6563 21.9805C83.5586 19.3321 84.0898 15.6562 84.3281 14.0234C84.4648 13.1015 84.5859 11.7266 84.4258 10.0234" stroke="#0E0E0E" stroke-width="0.75" stroke-linecap="round" stroke-linejoin="round"/>
<path d="M78.1289 25.543C78.8398 25.6719 79.6133 25.8945 80.3789 26.2851C83.8359 28.0469 84.3437 31.7383 84.4219 32.375" stroke="#0E0E0E" stroke-width="0.75" stroke-linecap="round" stroke-linejoin="round"/>
<path d="M115.793 22.0157C114.961 21.7774 113.586 21.5157 112.035 21.8907C110.676 22.211 109.762 22.8712 109.246 23.2618C104.684 26.6837 104.012 29.336 100.875 30.5392C100.469 30.6954 97.5391 31.6642 94.5821 30.2813C92.4961 29.3087 91.0117 27.086 90.7813 24.6798C90.4492 21.2306 92.8516 17.8165 95.6328 17.1954C95.9532 17.1212 97.711 16.7306 99.1406 17.8009C99.3242 17.9376 100.434 18.793 100.59 20.3009C100.613 20.5235 100.793 22.4688 99.3086 23.4142C98.4766 23.9376 97.418 23.9688 96.5782 23.5782C95.3867 23.0313 94.6641 21.6564 94.8516 20.1876C94.5586 20.5118 94.1563 21.0118 93.8321 21.7032C93.6758 22.0313 92.6563 24.2892 93.6289 26.4571C94.8164 29.0978 98.0469 29.5626 98.4844 29.6212C101.371 30.0353 104.371 28.5196 106.336 25.797" stroke="#0E0E0E" stroke-width="0.75" stroke-linecap="round" stroke-linejoin="round"/>
<path d="M90.8789 25.543C90.1641 25.6719 89.3906 25.8945 88.6289 26.2851C85.1719 28.0469 84.6602 31.7383 84.5859 32.375" stroke="#0E0E0E" stroke-width="0.75" stroke-linecap="round" stroke-linejoin="round"/>
<path d="M115.086 28.8711C114.977 29.1289 114.383 30.4414 112.996 30.875C111.523 31.3399 110.234 30.4844 109.695 30.125C107.422 28.6172 107.199 25.7461 107.176 25.2812" stroke="#0E0E0E" stroke-width="0.75" stroke-linecap="round" stroke-linejoin="round"/>
<path d="M123.059 35.7892C122.414 35.422 121.508 34.8634 120.488 34.1212C117.539 31.9767 115.238 30.3048 114.637 27.5743C114.09 25.0938 115.207 23.0001 115.402 22.6485C117.238 19.3321 121.086 18.7852 121.883 18.6954C125.461 18.2891 129.09 20.1798 131.363 23.4806" stroke="#0E0E0E" stroke-width="0.75" stroke-linecap="round" stroke-linejoin="round"/>
<path d="M130.867 40.9414C130.906 33.2227 129.016 27.1641 126.023 25.4883C124.484 24.6367 122.926 24.6133 122.926 24.6133C122.406 24.6133 119.789 24.6485 118.133 26.8086C116.656 28.7383 117.023 30.9414 117.09 31.3164" stroke="#0E0E0E" stroke-width="0.75" stroke-linecap="round" stroke-linejoin="round"/>
<path d="M151.996 37.0391C152.387 36.8438 153.629 36.2657 154.973 36.6133C157.363 37.2188 157.637 40.1094 157.649 40.3165C157.793 42.1563 156.668 44.293 154.524 45.0587C152.871 45.6407 151.281 45.1758 150.434 44.9297C147.692 44.129 146.184 42.2618 145.434 41.3165C143.031 38.254 144.203 36.7696 141.742 34.5938C141.074 34.004 139.727 32.8008 137.656 32.4883C135.504 32.1485 134.617 33.0782 132.652 32.5313C130.727 31.9922 129.727 30.5743 129.473 30.1758C129.352 29.9962 127.949 27.7383 129.27 25.4688C129.539 24.9961 130.344 23.6212 132.149 23.2266C133.793 22.8712 135.602 23.4727 136.59 24.6485C137.438 25.6563 137.684 27.0743 137.024 28.1993C136.883 28.4454 136.434 29.211 135.414 29.5157C134.559 29.7735 133.469 29.6602 132.719 29.0587C132.059 28.5274 131.942 27.8438 131.918 27.6407" stroke="#0E0E0E" stroke-width="0.75" stroke-linecap="round" stroke-linejoin="round"/>
<path d="M143.289 36.6875C142.973 33.2657 141.227 30.4532 138.668 29.5391C138.082 29.3282 137.168 29.1211 135.953 29.2696" stroke="#0E0E0E" stroke-width="0.75" stroke-linecap="round" stroke-linejoin="round"/>
<path d="M145.883 41.9883C145.418 41.8712 143.484 41.4219 141.832 42.5001C139.844 43.8048 139.051 46.8282 140.273 49.6915" stroke="#0E0E0E" stroke-width="0.75" stroke-linecap="round" stroke-linejoin="round"/>
<path d="M147.238 52.3007C146.934 52.289 146.297 52.2968 145.621 52.6484C144.523 53.2265 144.164 54.2812 144.098 54.5234" stroke="#0E0E0E" stroke-width="0.75" stroke-linecap="round" stroke-linejoin="round"/>
<path d="M158.227 91.1133C158.211 91.0117 158.199 90.8242 158.168 90.6055C157.582 85.4688 154.273 61.4844 134.551 43.9844C132.098 41.8086 128.297 38.7578 123.059 35.7891" stroke="#0E0E0E" stroke-width="0.75" stroke-linecap="round" stroke-linejoin="round"/>
<path d="M84.4219 32.4649C84.3672 31.8438 84.1133 29.6602 82.3047 27.8086C80.6836 26.1407 78.7812 25.7461 78.1289 25.6328C78.1797 24.9805 78.2344 24.3281 78.2852 23.6758C79.1406 23.2774 80.8594 22.3321 82.2812 20.4219C83.7305 18.4766 84.1406 16.543 84.2773 15.6055C84.6133 16.7734 85.3594 18.7774 87.0508 20.7266C88.3594 22.2266 89.7461 23.1406 90.7031 23.6758C90.7578 24.3281 90.8086 24.9805 90.8633 25.6328C90.3984 25.6758 87.4063 26.0235 85.6055 28.6407C84.5469 30.1836 84.4219 31.7617 84.4062 32.4649H84.4219Z" fill="black" stroke="black" stroke-width="0.5625" stroke-linecap="round" stroke-linejoin="round"/>
<path d="M115.793 22.0157C114.961 21.7774 113.586 21.5157 112.035 21.8907C110.676 22.211 109.762 22.8712 109.246 23.2618C104.684 26.6837 104.012 29.336 100.875 30.5392C100.469 30.6954 97.5391 31.6642 94.5821 30.2813C92.4961 29.3087 91.0117 27.086 90.7813 24.6798C90.4492 21.2306 92.8516 17.8165 95.6328 17.1954C95.9532 17.1212 97.711 16.7306 99.1406 17.8009C99.3242 17.9376 100.434 18.793 100.59 20.3009C100.613 20.5235 100.793 22.4688 99.3086 23.4142C98.4766 23.9376 97.418 23.9688 96.5782 23.5782C95.3867 23.0313 94.6641 21.6564 94.8516 20.1876C94.5586 20.5118 94.1563 21.0118 93.8321 21.7032C93.6758 22.0313 92.6563 24.2892 93.6289 26.4571C94.8164 29.0978 98.0469 29.5626 98.4844 29.6212C101.371 30.0353 104.371 28.5196 106.336 25.797" stroke="#0E0E0E" stroke-width="0.75" stroke-linecap="round" stroke-linejoin="round"/>
<path d="M90.7188 23.586C89.6172 23.0391 88.8438 22.4297 88.3516 21.9805C85.0039 18.9336 84.6836 14.414 84.5625 12.7461C84.4805 11.6094 84.5235 10.6641 84.5782 10.0234" stroke="#0E0E0E" stroke-width="0.75" stroke-linecap="round" stroke-linejoin="round"/>
<path d="M90.8789 25.543C90.1641 25.6719 89.3906 25.8945 88.6289 26.2851C85.1719 28.0469 84.6602 31.7383 84.5859 32.375" stroke="#0E0E0E" stroke-width="0.75" stroke-linecap="round" stroke-linejoin="round"/>
<path d="M115.086 28.8711C114.977 29.1289 114.383 30.4414 112.996 30.875C111.523 31.3399 110.234 30.4844 109.695 30.125C107.422 28.6172 107.199 25.7461 107.176 25.2812" stroke="#0E0E0E" stroke-width="0.75" stroke-linecap="round" stroke-linejoin="round"/>
<path d="M123.059 35.7892C122.414 35.422 121.508 34.8634 120.488 34.1212C117.539 31.9767 115.238 30.3048 114.637 27.5743C114.09 25.0938 115.207 23.0001 115.402 22.6485C117.238 19.3321 121.086 18.7852 121.883 18.6954C125.461 18.2891 129.09 20.1798 131.363 23.4806" stroke="#0E0E0E" stroke-width="0.75" stroke-linecap="round" stroke-linejoin="round"/>
<path d="M130.867 40.9414C130.906 33.2227 129.016 27.1641 126.023 25.4883C124.484 24.6367 122.926 24.6133 122.926 24.6133C122.406 24.6133 119.789 24.6485 118.133 26.8086C116.656 28.7383 117.023 30.9414 117.09 31.3164" stroke="#0E0E0E" stroke-width="0.75" stroke-linecap="round" stroke-linejoin="round"/>
<path d="M151.996 37.0391C152.387 36.8438 153.629 36.2657 154.973 36.6133C157.363 37.2188 157.637 40.1094 157.649 40.3165C157.793 42.1563 156.668 44.293 154.524 45.0587C152.871 45.6407 151.281 45.1758 150.434 44.9297C147.692 44.129 146.184 42.2618 145.434 41.3165C143.031 38.254 144.203 36.7696 141.742 34.5938C141.074 34.004 139.727 32.8008 137.656 32.4883C135.504 32.1485 134.617 33.0782 132.652 32.5313C130.727 31.9922 129.727 30.5743 129.473 30.1758C129.352 29.9962 127.949 27.7383 129.27 25.4688C129.539 24.9961 130.344 23.6212 132.149 23.2266C133.793 22.8712 135.602 23.4727 136.59 24.6485C137.438 25.6563 137.684 27.0743 137.024 28.1993C136.883 28.4454 136.434 29.211 135.414 29.5157C134.559 29.7735 133.469 29.6602 132.719 29.0587C132.059 28.5274 131.942 27.8438 131.918 27.6407" stroke="#0E0E0E" stroke-width="0.75" stroke-linecap="round" stroke-linejoin="round"/>
<path d="M143.289 36.6875C142.973 33.2657 141.227 30.4532 138.668 29.5391C138.082 29.3282 137.168 29.1211 135.953 29.2696" stroke="#0E0E0E" stroke-width="0.75" stroke-linecap="round" stroke-linejoin="round"/>
<path d="M158.137 48.7618C156.906 46.6563 154.941 45.3438 152.984 45.461C150.563 45.6133 149.137 47.8868 148.523 48.8672C145.059 54.3946 148.762 61.9493 149.332 63.0782" stroke="#0E0E0E" stroke-width="0.75" stroke-linecap="round" stroke-linejoin="round"/>
<path d="M158.191 90.4336C156.781 80.7812 152.199 59.668 134.551 43.9844C130.711 40.5742 126.789 37.8945 123.059 35.7891" stroke="#0E0E0E" stroke-width="0.75" stroke-linecap="round" stroke-linejoin="round"/>
<mask id="mask3_2314_1598" style="mask-type:luminance" maskUnits="userSpaceOnUse" x="11" y="148" width="147" height="80">
<path d="M11 148H158V228H11V148Z" fill="white"/>
</mask>
<g mask="url(#mask3_2314_1598)">
<mask id="mask4_2314_1598" style="mask-type:luminance" maskUnits="userSpaceOnUse" x="11" y="148" width="147" height="80">
<path d="M11.0781 148.633C11.1016 175.023 11.1133 201.418 11.1367 227.801C60 227.797 108.863 227.781 157.727 227.773C157.746 202.297 157.77 176.816 157.793 151.34C152.941 162.629 145.5 176.383 133.957 190.121C129.504 195.418 125.016 200.039 120.691 204.043C119.488 205.633 118.289 207.215 117.098 208.805C116.414 208.992 115.734 209.172 115.051 209.359C115.648 213.172 113.34 216.078 111.09 216.23C109.613 216.328 108.098 215.238 107.121 213.711C106.641 212.945 105.887 211.859 104.754 210.746C103.523 209.539 102.098 208.137 99.8633 207.566C97.6133 206.996 95.625 207.547 94.5469 207.957C93.8867 208.504 93.0078 209.352 92.2031 210.566C91.418 211.762 90.9883 212.879 90.7422 213.688H78.1953C78.1211 213.223 77.5117 209.797 74.3906 208.086C71.3398 206.414 68.2422 207.688 67.2891 208.07C63.9961 209.398 62.6016 212.137 62.2969 212.781C61.5508 209.238 59.0781 207.051 56.9023 207.223C56.5508 207.254 55.418 207.402 54.2383 208.723C52.9883 207.68 51.7344 206.637 50.4844 205.594C44.6641 202.715 33.8242 196.379 24.7266 184.094C14.0938 169.723 11.7383 155.18 11.0859 148.641L11.0781 148.633Z" fill="white"/>
</mask>
<g mask="url(#mask4_2314_1598)">
<path d="M11.0781 148.633V227.801H157.793V148.633H11.0781Z" fill="url(#paint1_linear_2314_1598)"/>
</g>
</g>
<path d="M84.4648 205.918C84.5156 206.539 84.7734 208.723 86.5781 210.574C88.1992 212.238 90.1055 212.637 90.7578 212.75C90.7031 213.402 90.6523 214.055 90.6016 214.707C89.7461 215.105 88.0273 216.051 86.6016 217.961C85.1563 219.906 84.7422 221.84 84.6094 222.777C84.2695 221.609 83.5273 219.605 81.832 217.656C80.5273 216.156 79.1406 215.238 78.1797 214.707C78.1289 214.055 78.0742 213.402 78.0234 212.75C78.4883 212.703 81.4805 212.359 83.2812 209.742C84.3359 208.199 84.4648 206.621 84.4805 205.918H84.4648Z" fill="white"/>
<path d="M115.672 216.359C114.84 216.598 113.469 216.859 111.914 216.484C110.559 216.164 109.641 215.504 109.125 215.113C104.566 211.691 103.891 209.039 100.754 207.836C100.352 207.68 97.418 206.711 94.461 208.094C92.3789 209.066 90.8907 211.289 90.6602 213.695C90.3282 217.145 92.7305 220.559 95.5117 221.18C95.836 221.254 97.5899 221.645 99.0235 220.574C99.2031 220.438 100.313 219.582 100.469 218.074C100.492 217.852 100.672 215.906 99.1875 214.961C98.3555 214.438 97.2969 214.406 96.4571 214.797C95.2656 215.344 94.5469 216.719 94.7344 218.188C94.4414 217.863 94.0352 217.363 93.711 216.672C93.5547 216.344 92.5352 214.086 93.5117 211.918C94.6953 209.277 97.9258 208.813 98.3633 208.754C101.25 208.34 104.25 209.855 106.215 212.578" stroke="#0E0E0E" stroke-width="0.75" stroke-linecap="round" stroke-linejoin="round"/>
<path d="M90.6015 214.789C89.5429 215.316 88.7695 215.906 88.2304 216.395C85.1171 219.223 84.6601 223.34 84.4413 225.266C84.3007 226.52 84.3163 227.555 84.3437 228.191" stroke="#0E0E0E" stroke-width="0.75" stroke-linecap="round" stroke-linejoin="round"/>
<path d="M90.7578 212.84C90.0469 212.711 89.2734 212.488 88.5078 212.098C85.0508 210.336 84.5391 206.645 84.4648 206.008" stroke="#0E0E0E" stroke-width="0.75" stroke-linecap="round" stroke-linejoin="round"/>
<path d="M53.1016 216.359C53.9336 216.598 55.3047 216.859 56.8594 216.484C58.2148 216.164 59.1289 215.504 59.6484 215.113C64.207 211.691 64.8828 209.039 68.0156 207.836C68.4219 207.68 71.3555 206.711 74.3086 208.094C76.3945 209.066 77.8789 211.289 78.1133 213.695C78.4414 217.145 76.043 220.559 73.2617 221.18C72.9375 221.254 71.1836 221.645 69.75 220.574C69.5703 220.438 68.4609 219.582 68.3008 218.074C68.2813 217.852 68.1016 215.906 69.5859 214.961C70.418 214.438 71.4766 214.406 72.3164 214.797C73.5078 215.344 74.2266 216.719 74.0391 218.188C74.332 217.863 74.7383 217.363 75.0586 216.672C75.2188 216.344 76.2383 214.086 75.2617 211.918C74.0781 209.277 70.8438 208.813 70.4102 208.754C67.5234 208.34 64.5234 209.855 62.5586 212.578" stroke="#0E0E0E" stroke-width="0.75" stroke-linecap="round" stroke-linejoin="round"/>
<path d="M78.0156 212.84C78.6992 212.734 79.4766 212.516 80.2656 212.098C83.4766 210.402 84.3086 206.781 84.4648 206.008" stroke="#0E0E0E" stroke-width="0.75" stroke-linecap="round" stroke-linejoin="round"/>
<path d="M53.8047 209.504C53.918 209.246 54.5117 207.934 55.8984 207.5C57.3672 207.035 58.6563 207.891 59.1992 208.25C61.4688 209.758 61.6953 212.629 61.7188 213.094" stroke="#0E0E0E" stroke-width="0.75" stroke-linecap="round" stroke-linejoin="round"/>
<path d="M45.8242 202.586C46.4687 202.953 47.3789 203.512 48.3984 204.254C51.3437 206.398 53.6484 208.07 54.2461 210.801C54.7969 213.281 53.6758 215.375 53.4844 215.727C51.6445 219.043 47.7969 219.59 47.0039 219.68C43.4258 220.086 39.7969 218.195 37.5234 214.895" stroke="#0E0E0E" stroke-width="0.75" stroke-linecap="round" stroke-linejoin="round"/>
<path d="M38.0234 197.441C37.9883 205.16 39.8789 211.219 42.8711 212.891C44.4062 213.746 45.9687 213.77 45.9687 213.77C46.4844 213.77 49.1016 213.734 50.7617 211.574C52.2383 209.645 51.8711 207.441 51.8008 207.066" stroke="#0E0E0E" stroke-width="0.75" stroke-linecap="round" stroke-linejoin="round"/>
<path d="M16.8985 201.336C16.5079 201.531 15.2618 202.109 13.9219 201.762C11.5274 201.156 11.2579 198.266 11.2422 198.059C11.1016 196.219 12.2266 194.082 14.3711 193.316C16.0196 192.734 17.6094 193.199 18.4571 193.445C21.2032 194.246 22.711 196.113 23.461 197.059C25.8594 200.121 24.6914 201.605 27.1485 203.781C27.8164 204.371 29.168 205.574 31.2383 205.887C33.3907 206.227 34.2735 205.297 36.2383 205.844C38.168 206.383 39.1641 207.801 39.4219 208.199C39.5391 208.379 40.9414 210.637 39.6211 212.906C39.3516 213.379 38.5508 214.754 36.7422 215.148C35.1016 215.504 33.293 214.902 32.3008 213.727C31.4532 212.719 31.2071 211.301 31.8672 210.176C32.0118 209.93 32.461 209.164 33.4805 208.859C34.336 208.602 35.4219 208.715 36.1719 209.316C36.8321 209.848 36.9532 210.531 36.9766 210.734" stroke="#0E0E0E" stroke-width="0.75" stroke-linecap="round" stroke-linejoin="round"/>
<path d="M25.6055 201.688C25.9219 205.109 27.668 207.922 30.2266 208.836C30.8086 209.047 31.7266 209.254 32.9414 209.105" stroke="#0E0E0E" stroke-width="0.75" stroke-linecap="round" stroke-linejoin="round"/>
<path d="M23.0039 196.387C23.4844 196.504 25.4023 196.941 27.0508 195.875C29.0547 194.57 29.8711 191.547 28.6641 188.668" stroke="#0E0E0E" stroke-width="0.75" stroke-linecap="round" stroke-linejoin="round"/>
<path d="M21.6445 186.074C21.9531 186.086 22.5898 186.078 23.2656 185.727C24.3906 185.137 24.7344 184.031 24.8008 183.809" stroke="#0E0E0E" stroke-width="0.75" stroke-linecap="round" stroke-linejoin="round"/>
<path d="M10.7852 146.488C11.9844 156.148 16.1992 178.227 34.3359 194.391C38.168 197.801 42.082 200.48 45.8242 202.586" stroke="#0E0E0E" stroke-width="0.75" stroke-linecap="round" stroke-linejoin="round"/>
<path d="M84.4648 205.918C84.5156 206.539 84.7734 208.723 86.5781 210.574C88.1992 212.238 90.1055 212.637 90.7578 212.75C90.7031 213.402 90.6523 214.055 90.6016 214.707C90.1367 214.918 89.4961 215.246 88.8164 215.766C87.2773 216.941 86.543 218.324 85.8984 219.566C85.3359 220.664 84.6094 222.359 84.2344 224.594C84.2266 223.52 84.0586 220.438 81.8242 217.648C80.5586 216.059 79.1016 215.164 78.1719 214.699C78.1211 214.047 78.0664 213.395 78.0156 212.742C78.4805 212.699 81.4727 212.352 83.2734 209.734C84.3281 208.191 84.457 206.613 84.4727 205.91L84.4648 205.918Z" fill="black" stroke="black" stroke-width="0.5625" stroke-linecap="round" stroke-linejoin="round"/>
<path d="M53.1016 216.359C53.9336 216.598 55.3047 216.859 56.8594 216.484C58.2148 216.164 59.1289 215.504 59.6484 215.113C64.207 211.691 64.8828 209.039 68.0156 207.836C68.4219 207.68 71.3555 206.711 74.3086 208.094C76.3945 209.066 77.8789 211.289 78.1133 213.695C78.4414 217.145 76.043 220.559 73.2617 221.18C72.9375 221.254 71.1836 221.645 69.75 220.574C69.5703 220.438 68.4609 219.582 68.3008 218.074C68.2813 217.852 68.1016 215.906 69.5859 214.961C70.418 214.438 71.4766 214.406 72.3164 214.797C73.5078 215.344 74.2266 216.719 74.0391 218.188C74.332 217.863 74.7383 217.363 75.0586 216.672C75.2188 216.344 76.2383 214.086 75.2617 211.918C74.0781 209.277 70.8438 208.813 70.4102 208.754C67.5234 208.34 64.5234 209.855 62.5586 212.578" stroke="#0E0E0E" stroke-width="0.75" stroke-linecap="round" stroke-linejoin="round"/>
<path d="M78.1719 214.789C78.7969 215.09 79.6641 215.594 80.543 216.395C82.3945 218.105 83.0625 220.086 83.5781 221.703C84.3828 224.211 84.4648 226.488 84.3516 228.191" stroke="#0E0E0E" stroke-width="0.75" stroke-linecap="round" stroke-linejoin="round"/>
<path d="M78.0156 212.84C78.6992 212.734 79.4766 212.516 80.2656 212.098C83.5039 210.379 84.3164 206.676 84.4648 205.918" stroke="#0E0E0E" stroke-width="0.75" stroke-linecap="round" stroke-linejoin="round"/>
<path d="M53.8047 209.504C53.918 209.246 54.5117 207.934 55.8984 207.5C57.3672 207.035 58.6563 207.891 59.1992 208.25C61.4688 209.758 61.6953 212.629 61.7188 213.094" stroke="#0E0E0E" stroke-width="0.75" stroke-linecap="round" stroke-linejoin="round"/>
<path d="M45.8242 202.586C46.4687 202.953 47.3789 203.512 48.3984 204.254C51.3437 206.398 53.6484 208.07 54.2461 210.801C54.7969 213.281 53.6758 215.375 53.4844 215.727C51.6445 219.043 47.7969 219.59 47.0039 219.68C43.4258 220.086 39.7969 218.195 37.5234 214.895" stroke="#0E0E0E" stroke-width="0.75" stroke-linecap="round" stroke-linejoin="round"/>
<path d="M38.0234 197.441C37.9883 205.16 39.8789 211.219 42.8711 212.891C44.4062 213.746 45.9687 213.77 45.9687 213.77C46.4844 213.77 49.1016 213.734 50.7617 211.574C52.2383 209.645 51.8711 207.441 51.8008 207.066" stroke="#0E0E0E" stroke-width="0.75" stroke-linecap="round" stroke-linejoin="round"/>
<path d="M16.8985 201.336C16.5079 201.531 15.2618 202.109 13.9219 201.762C11.5274 201.156 11.2579 198.266 11.2422 198.059C11.1016 196.219 12.2266 194.082 14.3711 193.316C16.0196 192.734 17.6094 193.199 18.4571 193.445C21.2032 194.246 22.711 196.113 23.461 197.059C25.8594 200.121 24.6914 201.605 27.1485 203.781C27.8164 204.371 29.168 205.574 31.2383 205.887C33.3907 206.227 34.2735 205.297 36.2383 205.844C38.168 206.383 39.1641 207.801 39.4219 208.199C39.5391 208.379 40.9414 210.637 39.6211 212.906C39.3516 213.379 38.5508 214.754 36.7422 215.148C35.1016 215.504 33.293 214.902 32.3008 213.727C31.4532 212.719 31.2071 211.301 31.8672 210.176C32.0118 209.93 32.461 209.164 33.4805 208.859C34.336 208.602 35.4219 208.715 36.1719 209.316C36.8321 209.848 36.9532 210.531 36.9766 210.734" stroke="#0E0E0E" stroke-width="0.75" stroke-linecap="round" stroke-linejoin="round"/>
<path d="M25.6055 201.688C25.9219 205.109 27.668 207.922 30.2266 208.836C30.8086 209.047 31.7266 209.254 32.9414 209.105" stroke="#0E0E0E" stroke-width="0.75" stroke-linecap="round" stroke-linejoin="round"/>
<path d="M10.8359 189.746C10.9258 189.898 12.9219 193.094 15.9063 192.906C18.3242 192.754 19.7461 190.488 20.3711 189.5C23.8281 183.98 20.1289 176.422 19.5586 175.289" stroke="#0E0E0E" stroke-width="0.75" stroke-linecap="round" stroke-linejoin="round"/>
<path d="M23.0039 196.387C23.4844 196.504 25.4023 196.941 27.0508 195.875C29.0547 194.57 29.8711 191.547 28.6641 188.668" stroke="#0E0E0E" stroke-width="0.75" stroke-linecap="round" stroke-linejoin="round"/>
<path d="M21.6445 186.074C21.9531 186.086 22.5898 186.078 23.2656 185.727C24.3906 185.137 24.7344 184.031 24.8008 183.809" stroke="#0E0E0E" stroke-width="0.75" stroke-linecap="round" stroke-linejoin="round"/>
<path d="M10.7852 146.488C11.9844 156.148 16.1992 178.227 34.3359 194.391C38.168 197.801 42.082 200.48 45.8242 202.586" stroke="#0E0E0E" stroke-width="0.75" stroke-linecap="round" stroke-linejoin="round"/>
<path d="M128.422 205.766C127.648 204.461 127.262 203.074 127.262 201.613C127.262 200.293 127.551 199.07 128.137 197.945C128.723 196.82 129.516 195.875 130.523 195.117C131.527 194.367 132.676 193.863 133.973 193.625L134.316 193.578C134.664 193.535 135.008 193.52 135.352 193.52H147.367V194.586L146.949 194.555C146.504 194.562 146.145 194.719 145.852 195.02C145.559 195.32 145.41 195.68 145.41 196.109L145.395 213.461C145.418 213.906 145.59 214.273 145.914 214.578C146.211 214.844 146.566 214.969 146.949 214.969L147.367 214.941V216.004H135.352C134.879 216.004 134.43 215.914 133.988 215.734C133.273 215.441 132.719 214.992 132.309 214.379C131.902 213.762 131.691 213.078 131.691 212.328C131.691 211.648 131.871 211.012 132.238 210.402C132.48 210.004 132.789 209.668 133.148 209.398C132.301 209.156 131.512 208.781 130.777 208.281C129.801 207.613 129.016 206.773 128.406 205.766H128.422ZM140.535 194.547H135.359C133.477 194.547 131.812 195.23 130.371 196.602C129.684 197.316 129.336 198.223 129.336 199.332V199.445L129.352 199.477V199.633C129.352 199.715 129.352 199.797 129.367 199.879C129.367 199.91 129.367 199.949 129.383 199.992V200.023C129.383 200.023 129.383 200.082 129.398 200.113C129.406 200.211 129.426 200.293 129.441 200.383C129.441 200.414 129.441 200.449 129.457 200.496V200.512C129.465 200.555 129.48 200.586 129.488 200.621V200.637C129.488 200.637 129.488 200.684 129.504 200.711C129.504 200.734 129.504 200.758 129.516 200.773V200.789C129.609 201.133 129.727 201.477 129.863 201.824C129.906 201.973 129.969 202.109 130.051 202.25C130.074 202.301 130.086 202.348 130.109 202.391C130.148 202.477 130.184 202.551 130.223 202.609C130.246 202.641 130.254 202.664 130.254 202.672L130.266 202.684L130.426 202.984L130.469 203.047C130.469 203.047 130.492 203.082 130.5 203.09C130.523 203.137 130.547 203.172 130.582 203.219C130.637 203.301 130.695 203.391 130.754 203.488C130.809 203.57 130.859 203.652 130.914 203.719L130.941 203.75C130.941 203.75 130.988 203.816 131.023 203.863C131.055 203.906 131.086 203.945 131.113 203.988C131.121 204.012 131.145 204.035 131.16 204.051H131.176C131.176 204.051 131.184 204.094 131.203 204.109H131.219C131.219 204.109 131.227 204.148 131.25 204.156L131.266 204.172C131.266 204.172 131.297 204.215 131.309 204.23C131.332 204.262 131.355 204.289 131.371 204.305C131.496 204.461 131.633 204.613 131.773 204.762L132.121 205.109C132.18 205.168 132.238 205.219 132.293 205.266C132.344 205.309 132.406 205.355 132.465 205.422L132.539 205.496C132.539 205.496 132.586 205.543 132.621 205.559C132.703 205.633 132.797 205.707 132.891 205.773C132.953 205.828 133.02 205.871 133.094 205.918C133.191 206 133.289 206.074 133.395 206.137C133.426 206.156 133.449 206.172 133.453 206.18H133.469L133.516 206.227H133.531C133.531 206.227 133.559 206.262 133.59 206.27C133.641 206.316 133.703 206.344 133.762 206.383C133.816 206.414 133.875 206.449 133.934 206.496C133.957 206.516 133.98 206.531 134.012 206.539L134.039 206.555C134.039 206.555 134.07 206.562 134.102 206.586C134.16 206.621 134.234 206.66 134.301 206.699C134.355 206.719 134.391 206.742 134.43 206.758L134.445 206.773L134.477 206.789L134.504 206.801C134.504 206.801 134.535 206.809 134.566 206.832C134.617 206.84 134.656 206.863 134.691 206.891H134.707C134.797 206.938 134.887 206.969 134.961 207.004C134.969 207.012 134.984 207.027 135.008 207.035C135.066 207.059 135.129 207.078 135.18 207.094C135.195 207.094 135.211 207.094 135.238 207.109L135.254 207.125C135.328 207.156 135.406 207.184 135.488 207.199C135.512 207.207 135.523 207.215 135.547 207.215V207.23C135.547 207.23 135.609 207.238 135.637 207.262C135.676 207.281 135.727 207.289 135.781 207.289C135.824 207.313 135.863 207.328 135.906 207.336H135.922C135.977 207.359 136.035 207.371 136.094 207.379C136.262 207.426 136.441 207.461 136.613 207.492H136.656L136.703 207.508C136.828 207.531 136.934 207.539 137.031 207.539C137.055 207.547 137.078 207.551 137.113 207.551H137.242C137.242 207.551 137.273 207.551 137.301 207.566H137.82C137.82 207.566 137.844 207.566 137.863 207.551H137.992C137.992 207.551 138.051 207.551 138.074 207.539H138.188C138.188 207.539 138.227 207.523 138.246 207.523H138.277C138.277 207.523 138.336 207.508 138.367 207.508H138.383C138.383 207.508 138.441 207.492 138.473 207.492L138.504 207.477H138.547C138.547 207.477 138.594 207.453 138.609 207.449H138.621C138.621 207.449 138.652 207.449 138.684 207.434H138.699C138.699 207.434 138.727 207.434 138.742 207.418H138.758C138.758 207.418 138.789 207.418 138.801 207.402H138.816L138.879 207.387L138.922 207.371L138.953 207.359H138.969C139.02 207.336 139.078 207.312 139.141 207.297C139.164 207.273 139.184 207.266 139.215 207.266C139.223 207.262 139.246 207.246 139.262 207.238H139.273L139.305 207.223L139.32 207.207C139.363 207.199 139.41 207.176 139.461 207.148C139.469 207.148 139.484 207.148 139.508 207.133V207.117C139.508 207.117 139.559 207.109 139.566 207.086H139.582L139.598 207.074H139.613L139.629 207.059C139.629 207.059 139.656 207.051 139.672 207.027L139.719 206.996H139.734L139.777 206.953H139.793L139.809 206.938H139.824L139.883 206.879H139.898L139.914 206.863C139.914 206.863 139.988 206.801 140.039 206.766C140.039 206.742 140.047 206.734 140.07 206.734L140.152 206.66H140.168V206.645L140.184 206.629H140.199L140.289 206.539C141.066 205.738 141.637 204.801 141.984 203.734V196.094C141.984 195.664 141.832 195.297 141.523 194.996C141.219 194.699 140.859 194.539 140.43 194.539L140.535 194.547ZM133.156 210.996C133.148 211.055 133.141 211.121 133.141 211.199L133.184 211.484C133.223 211.676 133.297 211.863 133.387 212.031C133.469 212.188 133.559 212.328 133.656 212.449C133.734 212.531 133.809 212.613 133.875 212.684C135.336 214.199 137.258 214.953 139.621 214.953H140.527C140.969 214.949 141.336 214.789 141.629 214.488C141.93 214.191 142.078 213.828 142.078 213.402V206.09C140.723 208.07 138.84 209.238 136.434 209.609C136.078 209.66 135.711 209.684 135.352 209.684C134.926 209.684 134.512 209.781 134.129 209.984C134.023 210.035 133.926 210.094 133.828 210.156C133.621 210.297 133.441 210.477 133.297 210.688C133.246 210.762 133.207 210.836 133.172 210.922C133.172 210.941 133.172 210.965 133.156 210.98V210.996Z" fill="black"/>
<path d="M130.949 178.699C132.848 180.77 135.059 182.797 135.984 183.852C136.672 184.648 137.168 185.254 137.371 185.504C137.387 185.523 137.406 185.547 137.422 185.57C137.437 185.547 137.461 185.523 137.477 185.504C137.676 185.246 138.164 184.648 138.863 183.852C139.785 182.797 141.996 180.77 143.894 178.699C145.793 176.629 145.949 174.559 145.59 172.836C145.23 171.117 143.43 169.496 140.609 169.852C139.727 169.961 139.074 170.383 138.602 170.914C138.914 168.484 140.234 167.219 140.234 167.219H134.762C135.758 168.336 136.117 169.918 136.246 170.898C135.773 170.375 135.129 169.953 134.25 169.852C131.422 169.496 129.629 171.109 129.269 172.836C128.91 174.551 129.066 176.621 130.965 178.699H130.949Z" fill="#292929" stroke="black" stroke-width="0.5625" stroke-linecap="round" stroke-linejoin="round"/>
<path d="M40.4102 32.7031C41.1836 34.0117 41.5742 35.3984 41.5742 36.8594C41.5742 38.1797 41.2813 39.4023 40.6953 40.5273C40.1094 41.6523 39.3164 42.5977 38.3086 43.3555C37.3047 44.1055 36.1562 44.6094 34.8594 44.8477L34.5156 44.8906C34.1719 44.9375 33.8242 44.9531 33.4805 44.9531H21.4648V43.8867L21.8867 43.918C22.3281 43.9102 22.6875 43.7539 22.9805 43.4531C23.2734 43.1523 23.4219 42.793 23.4219 42.3633L23.4375 25.0117C23.4141 24.5664 23.2422 24.1992 22.9219 23.8906C22.6211 23.6289 22.2656 23.5039 21.8867 23.5039L21.4648 23.5312V22.4688H33.4805C33.9531 22.4688 34.4023 22.5586 34.8438 22.7383C35.5586 23.0313 36.1133 23.4805 36.5234 24.0938C36.9297 24.7109 37.1406 25.3906 37.1406 26.1406C37.1406 26.8242 36.9609 27.4609 36.5938 28.0703C36.3516 28.4688 36.0469 28.8047 35.6836 29.0742C36.5312 29.3164 37.3203 29.6914 38.0547 30.1914C39.0312 30.8594 39.8164 31.6992 40.4258 32.7031H40.4102ZM35.6758 27.4766C35.6836 27.418 35.6914 27.3516 35.6914 27.2734L35.6484 26.9883C35.6094 26.7969 35.5352 26.6094 35.4453 26.4414C35.3633 26.2852 35.2734 26.1406 35.1758 26.0234C35.1016 25.9414 35.0234 25.8594 34.957 25.7891C33.4961 24.2734 31.5742 23.5156 29.2109 23.5156H28.3047C27.8633 23.5234 27.4961 23.6836 27.2031 23.9844C26.9023 24.2812 26.7539 24.6406 26.7539 25.0703V32.3828C28.1094 30.4023 29.9922 29.2344 32.3984 28.8633C32.7539 28.8125 33.1211 28.7891 33.4805 28.7891C33.9062 28.7891 34.3203 28.6914 34.7031 28.4883C34.8086 28.4375 34.9063 28.3789 35.0039 28.3164C35.2109 28.1758 35.3906 27.9961 35.5352 27.7852C35.5859 27.7109 35.625 27.6367 35.6641 27.5508C35.6641 27.5313 35.6641 27.5078 35.6758 27.4922V27.4766ZM28.3047 43.9258H33.4805C35.3633 43.9258 37.0273 43.2422 38.4688 41.8711C39.1562 41.1562 39.5039 40.25 39.5039 39.1406V39.0273L39.4883 38.9961V38.8398C39.4883 38.7578 39.4883 38.6758 39.4727 38.5938C39.4727 38.5625 39.4727 38.5234 39.457 38.4805V38.4492C39.457 38.4492 39.457 38.3906 39.4414 38.3594C39.4336 38.2617 39.4141 38.1797 39.3984 38.0898C39.3984 38.0586 39.3984 38.0234 39.3828 37.9766V37.9609C39.375 37.918 39.3594 37.8867 39.3516 37.8516V37.8359C39.3516 37.8359 39.3516 37.7891 39.3359 37.7617C39.3359 37.7383 39.3359 37.7148 39.3242 37.6992V37.6836C39.2344 37.3398 39.1133 36.9961 38.9766 36.6484C38.9336 36.5 38.8711 36.3633 38.7891 36.2227C38.7656 36.1719 38.7539 36.125 38.7305 36.0781C38.6914 35.9961 38.6562 35.9219 38.6172 35.8633C38.5937 35.832 38.5859 35.8086 38.5859 35.8008L38.5742 35.7891L38.4141 35.4883L38.3711 35.4258C38.3711 35.4258 38.3477 35.3906 38.3398 35.3828C38.3164 35.3359 38.2969 35.3008 38.2578 35.2539C38.2031 35.1719 38.1445 35.082 38.0859 34.9844C38.0312 34.9023 37.9805 34.8203 37.9258 34.7539L37.8984 34.7227C37.8984 34.7227 37.8516 34.6562 37.8164 34.6094C37.7852 34.5664 37.7539 34.5273 37.7266 34.4844C37.7188 34.4609 37.6953 34.4375 37.6797 34.4219H37.6641C37.6641 34.4219 37.6562 34.3789 37.6367 34.3633H37.6211C37.6211 34.3633 37.6133 34.3242 37.5898 34.3164L37.5742 34.3008C37.5742 34.3008 37.5469 34.2578 37.5312 34.2422C37.5078 34.2109 37.4844 34.1836 37.4688 34.168C37.3438 34.0117 37.207 33.8594 37.0664 33.7109L36.7188 33.3633C36.6602 33.3047 36.6016 33.2539 36.5469 33.207C36.4961 33.1641 36.4336 33.1172 36.375 33.0508L36.3008 32.9766C36.3008 32.9766 36.2539 32.9297 36.2188 32.9141C36.1367 32.8398 36.0469 32.7656 35.9492 32.6992C35.8867 32.6445 35.8203 32.6016 35.7461 32.5547C35.6484 32.4727 35.5508 32.3984 35.4453 32.3359C35.4141 32.3164 35.3906 32.3008 35.3867 32.293H35.3711L35.3242 32.2461H35.3086C35.3086 32.2461 35.2812 32.2109 35.25 32.2031C35.1992 32.1562 35.1367 32.1289 35.0781 32.0898C35.0234 32.0586 34.9648 32.0234 34.9062 31.9766C34.8828 31.9531 34.8594 31.9414 34.8281 31.9336L34.8008 31.918C34.8008 31.918 34.7695 31.9102 34.7383 31.8867C34.6797 31.8516 34.6055 31.8125 34.5391 31.7734C34.4844 31.7539 34.4492 31.7305 34.4102 31.7148L34.3945 31.6992L34.3633 31.6836L34.3359 31.6719C34.3359 31.6719 34.3047 31.6641 34.2734 31.6406C34.2227 31.6328 34.1836 31.6094 34.1484 31.5781H34.1328C34.043 31.5352 33.9531 31.5039 33.8789 31.4688C33.8711 31.4609 33.8555 31.4453 33.832 31.4375C33.7734 31.4141 33.7109 31.3906 33.6602 31.3789C33.6445 31.3789 33.6289 31.3789 33.6016 31.3633L33.5859 31.3477C33.5117 31.3164 33.4336 31.2891 33.3516 31.2734C33.3281 31.2656 33.3164 31.2578 33.293 31.2578V31.2422C33.293 31.2422 33.2344 31.2344 33.2031 31.2109C33.1641 31.1914 33.1133 31.1836 33.0586 31.1836C33.0156 31.1602 32.9766 31.1445 32.9336 31.1367H32.918C32.8633 31.1133 32.8047 31.1016 32.7461 31.0938C32.5781 31.0469 32.3984 31.0117 32.2266 30.9805H32.1836L32.1367 30.9648C32.0117 30.9414 31.9062 30.9336 31.8086 30.9336C31.7852 30.9258 31.7617 30.9219 31.7266 30.9219H31.5977C31.5977 30.9219 31.5664 30.9219 31.5391 30.9062H31.0195C31.0195 30.9062 30.9961 30.9062 30.9766 30.9219H30.8477C30.8477 30.9219 30.7891 30.9219 30.7656 30.9336H30.6523C30.6523 30.9336 30.6133 30.9492 30.5938 30.9492H30.5625C30.5625 30.9492 30.5039 30.9648 30.4727 30.9648H30.457C30.457 30.9648 30.3984 30.9805 30.3672 30.9805L30.3359 30.9961H30.293L30.2344 31.0234H30.2188C30.2188 31.0234 30.1875 31.0234 30.1562 31.0391H30.1406C30.1406 31.0391 30.1133 31.0391 30.0977 31.0547H30.082C30.082 31.0547 30.0508 31.0547 30.0391 31.0703H30.0234L29.9609 31.0859L29.918 31.1016L29.8867 31.1133H29.8711C29.8203 31.1367 29.7617 31.1602 29.6992 31.1758C29.6758 31.1992 29.6562 31.2031 29.625 31.2031C29.6172 31.2109 29.5938 31.2266 29.5781 31.2344H29.5664L29.5352 31.25L29.5195 31.2656C29.4766 31.2734 29.4297 31.2969 29.3789 31.3242C29.3711 31.3242 29.3555 31.3242 29.332 31.3398V31.3555C29.332 31.3555 29.2812 31.3633 29.2734 31.3867H29.2578L29.2422 31.3984H29.2266L29.2109 31.4141C29.2109 31.4141 29.1836 31.4219 29.168 31.4453L29.1211 31.4766H29.1094L29.0625 31.5195H29.0469L29.0312 31.5352H29.0156L28.957 31.5938H28.9414L28.9258 31.6094C28.9258 31.6094 28.8516 31.6719 28.8008 31.707C28.8008 31.7305 28.793 31.7383 28.7695 31.7383L28.6875 31.8125H28.6719V31.8281L28.6562 31.8438H28.6406L28.5508 31.9336C27.7734 32.7344 27.2031 33.6719 26.8594 34.7383V42.3789C26.8594 42.8086 27.0078 43.1758 27.3164 43.4766C27.6211 43.7734 27.9844 43.9336 28.4102 43.9336L28.3047 43.9258Z" fill="black"/>
<path d="M38.1523 59.1406C36.2539 57.0742 34.0429 55.0469 33.121 53.9883C32.4296 53.1953 31.9335 52.5859 31.7343 52.3398C31.7187 52.3164 31.6953 52.2969 31.6796 52.2734C31.664 52.2969 31.6406 52.3164 31.6289 52.3398C31.4257 52.5937 30.9375 53.1953 30.2382 53.9883C29.3164 55.0469 27.1054 57.0742 25.207 59.1406C23.3085 61.2109 23.1523 63.2812 23.5117 65.0078C23.871 66.7265 25.6718 68.3437 28.4921 67.9922C29.3789 67.8789 30.0312 67.4609 30.5039 66.9258C30.1875 69.3594 28.8671 70.625 28.8671 70.625H34.3437C33.3437 69.5078 32.9843 67.9258 32.8593 66.9414C33.3281 67.4687 33.9765 67.8867 34.8515 67.9922C37.6796 68.3437 39.4726 66.7343 39.832 65.0078C40.1914 63.289 40.0351 61.2187 38.1367 59.1406H38.1523Z" fill="#292929" stroke="black" stroke-width="0.5625" stroke-linecap="round" stroke-linejoin="round"/>
<path d="M136.395 139.316C136.086 142.676 135.781 146.039 135.473 149.398C134.738 149.414 133.539 149.336 132.238 148.723C131.684 148.461 131.234 148.152 130.875 147.875C130.852 145.625 130.836 143.375 130.816 141.125C132.188 141.094 133.336 140.984 134.191 140.879C134.863 140.797 135.504 140.684 135.961 140.172C136.223 139.879 136.336 139.551 136.387 139.324L136.395 139.316Z" fill="white" stroke="black" stroke-width="0.5625" stroke-linecap="round" stroke-linejoin="round"/>
<path d="M96.4805 94.9181C95.7735 95.3517 95.8047 95.9298 94.9961 96.5157C94.5313 96.8439 94.0743 96.9806 93.8477 97.0314C93.0078 97.2267 92.2188 97.0314 91.6875 96.9064C91.5391 96.8673 91.418 96.8361 91.3438 96.8165C87.375 95.6447 84.7266 94.8634 82.4922 92.2774C81.7813 91.461 80.7071 90.2892 80.2657 88.4845C80.0235 87.4845 80.0313 86.5548 79.8438 86.547C79.5821 86.5314 79.2891 88.3087 79.1836 88.9689C78.4649 93.3595 79.3203 94.6407 79.6289 95.0509C79.7266 95.1798 79.793 95.2697 79.9063 95.3751C80.4297 95.9064 81.4571 96.4689 85.5 98.1642C88.2383 99.3126 91.6133 100.664 95.2891 100.754C96.0157 100.766 96.9961 100.774 97.6055 100.129C98.2813 99.4103 98.2032 98.2111 98.1133 96.7697C98.0547 95.8634 97.9141 95.1212 97.7852 94.6017C97.1485 94.6017 96.7422 94.7814 96.5039 94.9259L96.4805 94.9181Z" fill="black" stroke="black" stroke-width="0.5625" stroke-linecap="round" stroke-linejoin="round"/>
<path d="M91.5234 94.2109C92.2812 94.7656 94.621 92.2344 96.9218 92.2265C97.1328 92.2265 97.8437 92.2265 98.0546 92.6133C98.2421 92.9609 97.9062 93.3359 98.0546 93.4687C98.2968 93.6719 99.4648 93.0937 99.539 92.2461C99.539 92.2344 99.539 92.2187 99.539 92.2031C99.5546 91.8633 99.4335 91.1211 98.6914 89.3516C98.1914 89.3906 97.6874 89.4258 97.1757 89.4648C95.4531 90.0195 94.1406 90.6719 93.2539 91.1836C92.1679 91.8047 91.5585 92.293 91.3789 93.043C91.3515 93.1719 91.164 93.957 91.5234 94.2109Z" fill="black" stroke="black" stroke-width="0.5625" stroke-linecap="round" stroke-linejoin="round"/>
<path d="M65.5937 159.32C65.1523 158.945 64.5156 158.324 64.0039 157.414C63.1719 155.938 63.1289 154.527 63.0977 153.906C63.0078 151.984 62.6484 149.203 61.7695 144.875" stroke="black" stroke-width="0.5625" stroke-linecap="round" stroke-linejoin="round"/>
<path d="M73.2539 159.441C73.0039 159.027 72.6602 158.406 72.293 157.633C70.1914 153.156 70.3047 149.172 70.2734 146.367C70.2383 143.141 69.9766 138.637 69 132.867" stroke="black" stroke-width="0.5625" stroke-linecap="round" stroke-linejoin="round"/>
<path d="M69.8555 160.078C69.4492 159.762 68.7656 159.148 68.2891 158.141C67.9648 157.469 67.8437 156.852 67.793 156.418" stroke="black" stroke-width="0.5625" stroke-linecap="round" stroke-linejoin="round"/>
<path d="M65.4961 169.227C64.957 171.441 64.4531 173.742 64.0117 176.129C62.4961 184.25 61.9258 191.801 61.8906 198.559" stroke="black" stroke-width="0.5625" stroke-linecap="round" stroke-linejoin="round"/>
<path d="M72.7187 170.18C72.2617 174.785 71.7969 179.391 71.3398 184.004" stroke="black" stroke-width="0.5625" stroke-linecap="round" stroke-linejoin="round"/>
<path d="M100.926 158.48C102.188 157.543 102.801 156.574 103.125 155.93C103.777 154.617 103.719 153.605 103.973 150.117C104.078 148.684 104.191 147.531 104.258 146.855" stroke="black" stroke-width="0.5625" stroke-linecap="round" stroke-linejoin="round"/>
<path d="M98.1992 169.559C99.2188 173.891 100.148 178.559 100.914 183.523C101.414 186.77 101.805 189.906 102.113 192.926" stroke="black" stroke-width="0.5625" stroke-linecap="round" stroke-linejoin="round"/>
<path d="M102.277 169.113C102.734 170.719 103.172 172.445 103.551 174.289C103.996 176.422 104.316 178.438 104.543 180.313" stroke="black" stroke-width="0.5625" stroke-linecap="round" stroke-linejoin="round"/>
<path d="M129.668 79.5586H128.086V120.605H129.668V79.5586Z" fill="white" stroke="black" stroke-width="0.5625" stroke-linecap="round" stroke-linejoin="round"/>
<path d="M118.695 71C117.988 71.3281 116.805 71.9531 115.598 73.0156C109.734 78.1641 108.398 88.918 112.844 96.3359C113.699 97.7656 115.418 100.152 118.703 102.254" stroke="black" stroke-width="0.5625" stroke-linecap="round" stroke-linejoin="round"/>
<defs>
<linearGradient id="paint0_linear_2314_1598" x1="157.868" y1="49.235" x2="11.2275" y2="49.235" gradientUnits="userSpaceOnUse">
<stop stop-color="#8F8587"/>
<stop offset="0.00390625" stop-color="#908688"/>
<stop offset="0.0078125" stop-color="#918789"/>
<stop offset="0.0117187" stop-color="#92888A"/>
<stop offset="0.015625" stop-color="#92898B"/>
<stop offset="0.0195312" stop-color="#938A8B"/>
<stop offset="0.0234375" stop-color="#948B8C"/>
<stop offset="0.0273437" stop-color="#958C8D"/>
<stop offset="0.03125" stop-color="#968D8E"/>
<stop offset="0.0351562" stop-color="#978D8F"/>
<stop offset="0.0390625" stop-color="#988E90"/>
<stop offset="0.0429687" stop-color="#988F91"/>
<stop offset="0.046875" stop-color="#999092"/>
<stop offset="0.0507812" stop-color="#9A9193"/>
<stop offset="0.0546875" stop-color="#9B9294"/>
<stop offset="0.0585937" stop-color="#9C9395"/>
<stop offset="0.0625" stop-color="#9D9496"/>
<stop offset="0.0664062" stop-color="#9D9596"/>
<stop offset="0.0703125" stop-color="#9E9697"/>
<stop offset="0.0742187" stop-color="#9F9798"/>
<stop offset="0.078125" stop-color="#A09899"/>
<stop offset="0.0820312" stop-color="#A1999A"/>
<stop offset="0.0859375" stop-color="#A2999B"/>
<stop offset="0.0898437" stop-color="#A39A9C"/>
<stop offset="0.09375" stop-color="#A39B9D"/>
<stop offset="0.0976562" stop-color="#A49C9E"/>
<stop offset="0.101562" stop-color="#A59D9F"/>
<stop offset="0.105469" stop-color="#A69EA0"/>
<stop offset="0.109375" stop-color="#A79FA0"/>
<stop offset="0.113281" stop-color="#A8A0A1"/>
<stop offset="0.117187" stop-color="#A8A1A2"/>
<stop offset="0.121094" stop-color="#A9A2A3"/>
<stop offset="0.125" stop-color="#AAA3A4"/>
<stop offset="0.128906" stop-color="#ABA4A5"/>
<stop offset="0.132812" stop-color="#ACA5A6"/>
<stop offset="0.136719" stop-color="#ADA5A7"/>
<stop offset="0.140625" stop-color="#AEA6A8"/>
<stop offset="0.144531" stop-color="#AEA7A9"/>
<stop offset="0.148438" stop-color="#AFA8AA"/>
<stop offset="0.152344" stop-color="#B0A9AB"/>
<stop offset="0.15625" stop-color="#B1AAAB"/>
<stop offset="0.160156" stop-color="#B2ABAC"/>
<stop offset="0.164062" stop-color="#B3ACAD"/>
<stop offset="0.167969" stop-color="#B3ADAE"/>
<stop offset="0.171875" stop-color="#B4AEAF"/>
<stop offset="0.175781" stop-color="#B5AFB0"/>
<stop offset="0.179688" stop-color="#B6B0B1"/>
<stop offset="0.183594" stop-color="#B7B1B2"/>
<stop offset="0.1875" stop-color="#B8B2B3"/>
<stop offset="0.191406" stop-color="#B9B2B4"/>
<stop offset="0.195312" stop-color="#B9B3B5"/>
<stop offset="0.199219" stop-color="#BAB4B5"/>
<stop offset="0.203125" stop-color="#BBB5B6"/>
<stop offset="0.207031" stop-color="#BCB6B7"/>
<stop offset="0.210938" stop-color="#BDB7B8"/>
<stop offset="0.214844" stop-color="#BEB8B9"/>
<stop offset="0.21875" stop-color="#BEB9BA"/>
<stop offset="0.222656" stop-color="#BFBABB"/>
<stop offset="0.226562" stop-color="#C0BBBC"/>
<stop offset="0.230469" stop-color="#C1BCBD"/>
<stop offset="0.234375" stop-color="#C2BDBE"/>
<stop offset="0.238281" stop-color="#C3BEBF"/>
<stop offset="0.242188" stop-color="#C3BEBF"/>
<stop offset="0.246094" stop-color="#C4BFC0"/>
<stop offset="0.25" stop-color="#C5C0C1"/>
<stop offset="0.253906" stop-color="#C6C1C2"/>
<stop offset="0.257812" stop-color="#C6C2C3"/>
<stop offset="0.261719" stop-color="#C7C3C3"/>
<stop offset="0.265625" stop-color="#C8C3C4"/>
<stop offset="0.269531" stop-color="#C9C4C5"/>
<stop offset="0.273438" stop-color="#C9C5C6"/>
<stop offset="0.277344" stop-color="#CAC6C7"/>
<stop offset="0.28125" stop-color="#CBC7C7"/>
<stop offset="0.285156" stop-color="#CCC7C8"/>
<stop offset="0.289062" stop-color="#CCC8C9"/>
<stop offset="0.292969" stop-color="#CDC9CA"/>
<stop offset="0.296875" stop-color="#CECACB"/>
<stop offset="0.300781" stop-color="#CFCBCB"/>
<stop offset="0.304688" stop-color="#CFCCCC"/>
<stop offset="0.308594" stop-color="#D0CCCD"/>
<stop offset="0.3125" stop-color="#D1CDCE"/>
<stop offset="0.316406" stop-color="#D2CECF"/>
<stop offset="0.320312" stop-color="#D2CFCF"/>
<stop offset="0.324219" stop-color="#D3D0D0"/>
<stop offset="0.328125" stop-color="#D4D0D1"/>
<stop offset="0.332031" stop-color="#D5D1D2"/>
<stop offset="0.335938" stop-color="#D5D2D3"/>
<stop offset="0.339844" stop-color="#D6D3D3"/>
<stop offset="0.34375" stop-color="#D7D4D4"/>
<stop offset="0.347656" stop-color="#D8D5D5"/>
<stop offset="0.351562" stop-color="#D8D5D6"/>
<stop offset="0.355469" stop-color="#D9D6D7"/>
<stop offset="0.359375" stop-color="#DAD7D7"/>
<stop offset="0.363281" stop-color="#DBD8D8"/>
<stop offset="0.367188" stop-color="#DBD9D9"/>
<stop offset="0.371094" stop-color="#DCDADA"/>
<stop offset="0.375" stop-color="#DDDADB"/>
<stop offset="0.378906" stop-color="#DEDBDB"/>
<stop offset="0.382812" stop-color="#DEDCDC"/>
<stop offset="0.386719" stop-color="#DFDDDD"/>
<stop offset="0.390625" stop-color="#E0DEDE"/>
<stop offset="0.394531" stop-color="#E1DEDF"/>
<stop offset="0.398438" stop-color="#E1DFE0"/>
<stop offset="0.402344" stop-color="#E2E0E0"/>
<stop offset="0.40625" stop-color="#E3E1E1"/>
<stop offset="0.410156" stop-color="#E4E2E2"/>
<stop offset="0.414062" stop-color="#E4E3E3"/>
<stop offset="0.417969" stop-color="#E5E3E4"/>
<stop offset="0.421875" stop-color="#E6E4E4"/>
<stop offset="0.425781" stop-color="#E6E5E5"/>
<stop offset="0.429688" stop-color="#E7E6E6"/>
<stop offset="0.433594" stop-color="#E8E7E7"/>
<stop offset="0.4375" stop-color="#E9E7E8"/>
<stop offset="0.441406" stop-color="#E9E8E8"/>
<stop offset="0.445312" stop-color="#EAE9E9"/>
<stop offset="0.449219" stop-color="#EBEAEA"/>
<stop offset="0.453125" stop-color="#ECEBEB"/>
<stop offset="0.457031" stop-color="#ECEBEB"/>
<stop offset="0.460938" stop-color="#EDECEC"/>
<stop offset="0.464844" stop-color="#EDECEC"/>
<stop offset="0.46875" stop-color="#EEEDED"/>
<stop offset="0.472656" stop-color="#EEEEEE"/>
<stop offset="0.476562" stop-color="#EFEEEE"/>
<stop offset="0.480469" stop-color="#EFEFEF"/>
<stop offset="0.484375" stop-color="#F0EFEF"/>
<stop offset="0.488281" stop-color="#F1F0F0"/>
<stop offset="0.492188" stop-color="#F1F1F1"/>
<stop offset="0.496094" stop-color="#F2F1F1"/>
<stop offset="0.5" stop-color="#F2F2F2"/>
<stop offset="0.503906" stop-color="#F3F2F2"/>
<stop offset="0.507812" stop-color="#F3F3F3"/>
<stop offset="0.511719" stop-color="#F4F4F4"/>
<stop offset="0.515625" stop-color="#F5F4F4"/>
<stop offset="0.519531" stop-color="#F5F5F5"/>
<stop offset="0.523438" stop-color="#F6F5F5"/>
<stop offset="0.527344" stop-color="#F6F6F6"/>
<stop offset="0.53125" stop-color="#F7F7F7"/>
<stop offset="0.535156" stop-color="#F7F7F7"/>
<stop offset="0.539062" stop-color="#F8F8F8"/>
<stop offset="0.542969" stop-color="#F8F8F8"/>
<stop offset="0.546875" stop-color="#F9F9F9"/>
<stop offset="0.550781" stop-color="#FAFAFA"/>
<stop offset="0.554688" stop-color="#FAFAFA"/>
<stop offset="0.5625" stop-color="#FBFBFB"/>
<stop offset="0.625" stop-color="#FBFBFB"/>
<stop offset="0.75" stop-color="#FBFBFB"/>
<stop offset="1" stop-color="#FBFBFB"/>
</linearGradient>
<linearGradient id="paint1_linear_2314_1598" x1="11.0775" y1="188.217" x2="157.792" y2="188.217" gradientUnits="userSpaceOnUse">
<stop stop-color="#8F8587"/>
<stop offset="0.00390625" stop-color="#908688"/>
<stop offset="0.0078125" stop-color="#918789"/>
<stop offset="0.0117188" stop-color="#91888A"/>
<stop offset="0.015625" stop-color="#92898A"/>
<stop offset="0.0195313" stop-color="#938A8B"/>
<stop offset="0.0234375" stop-color="#948A8C"/>
<stop offset="0.0273438" stop-color="#958B8D"/>
<stop offset="0.03125" stop-color="#968C8E"/>
<stop offset="0.0351562" stop-color="#968D8F"/>
<stop offset="0.0390625" stop-color="#978E90"/>
<stop offset="0.0429688" stop-color="#988F91"/>
<stop offset="0.046875" stop-color="#999091"/>
<stop offset="0.0507812" stop-color="#9A9192"/>
<stop offset="0.0546875" stop-color="#9A9293"/>
<stop offset="0.0585938" stop-color="#9B9294"/>
<stop offset="0.0625" stop-color="#9C9395"/>
<stop offset="0.0664062" stop-color="#9D9496"/>
<stop offset="0.0703125" stop-color="#9E9597"/>
<stop offset="0.0742188" stop-color="#9E9698"/>
<stop offset="0.078125" stop-color="#9F9798"/>
<stop offset="0.0820312" stop-color="#A09899"/>
<stop offset="0.0859375" stop-color="#A1999A"/>
<stop offset="0.0898438" stop-color="#A29A9B"/>
<stop offset="0.09375" stop-color="#A39A9C"/>
<stop offset="0.0976562" stop-color="#A39B9D"/>
<stop offset="0.101562" stop-color="#A49C9E"/>
<stop offset="0.105469" stop-color="#A59D9F"/>
<stop offset="0.109375" stop-color="#A69E9F"/>
<stop offset="0.113281" stop-color="#A79FA0"/>
<stop offset="0.117188" stop-color="#A7A0A1"/>
<stop offset="0.121094" stop-color="#A8A1A2"/>
<stop offset="0.125" stop-color="#A9A2A3"/>
<stop offset="0.128906" stop-color="#AAA2A4"/>
<stop offset="0.132812" stop-color="#ABA3A5"/>
<stop offset="0.136719" stop-color="#ABA4A6"/>
<stop offset="0.140625" stop-color="#ACA5A6"/>
<stop offset="0.144531" stop-color="#ADA6A7"/>
<stop offset="0.148438" stop-color="#AEA7A8"/>
<stop offset="0.152344" stop-color="#AFA8A9"/>
<stop offset="0.15625" stop-color="#B0A9AA"/>
<stop offset="0.160156" stop-color="#B0AAAB"/>
<stop offset="0.164063" stop-color="#B1AAAC"/>
<stop offset="0.167969" stop-color="#B2ABAD"/>
<stop offset="0.171875" stop-color="#B3ACAD"/>
<stop offset="0.175781" stop-color="#B4ADAE"/>
<stop offset="0.179687" stop-color="#B4AEAF"/>
<stop offset="0.183594" stop-color="#B5AFB0"/>
<stop offset="0.1875" stop-color="#B6B0B1"/>
<stop offset="0.191406" stop-color="#B7B1B2"/>
<stop offset="0.195312" stop-color="#B8B2B3"/>
<stop offset="0.199219" stop-color="#B9B2B4"/>
<stop offset="0.203125" stop-color="#B9B3B4"/>
<stop offset="0.207031" stop-color="#BAB4B5"/>
<stop offset="0.210938" stop-color="#BBB5B6"/>
<stop offset="0.214844" stop-color="#BCB6B7"/>
<stop offset="0.21875" stop-color="#BDB7B8"/>
<stop offset="0.222656" stop-color="#BDB8B9"/>
<stop offset="0.226562" stop-color="#BEB9BA"/>
<stop offset="0.230469" stop-color="#BFBABB"/>
<stop offset="0.234375" stop-color="#C0BABB"/>
<stop offset="0.238281" stop-color="#C1BBBC"/>
<stop offset="0.242188" stop-color="#C1BCBD"/>
<stop offset="0.246094" stop-color="#C2BDBE"/>
<stop offset="0.25" stop-color="#C3BEBF"/>
<stop offset="0.253906" stop-color="#C4BFC0"/>
<stop offset="0.257813" stop-color="#C5C0C1"/>
<stop offset="0.261719" stop-color="#C5C0C1"/>
<stop offset="0.265625" stop-color="#C6C1C2"/>
<stop offset="0.269531" stop-color="#C7C2C3"/>
<stop offset="0.273438" stop-color="#C8C3C4"/>
<stop offset="0.277344" stop-color="#C8C4C5"/>
<stop offset="0.28125" stop-color="#C9C5C5"/>
<stop offset="0.285156" stop-color="#CAC5C6"/>
<stop offset="0.289062" stop-color="#CBC6C7"/>
<stop offset="0.292969" stop-color="#CBC7C8"/>
<stop offset="0.296875" stop-color="#CCC8C9"/>
<stop offset="0.300781" stop-color="#CDC9C9"/>
<stop offset="0.304688" stop-color="#CDC9CA"/>
<stop offset="0.308594" stop-color="#CECACB"/>
<stop offset="0.3125" stop-color="#CFCBCC"/>
<stop offset="0.316406" stop-color="#D0CCCD"/>
<stop offset="0.320313" stop-color="#D0CDCD"/>
<stop offset="0.324219" stop-color="#D1CECE"/>
<stop offset="0.328125" stop-color="#D2CECF"/>
<stop offset="0.332031" stop-color="#D3CFD0"/>
<stop offset="0.335938" stop-color="#D3D0D1"/>
<stop offset="0.339844" stop-color="#D4D1D1"/>
<stop offset="0.34375" stop-color="#D5D2D2"/>
<stop offset="0.347656" stop-color="#D6D2D3"/>
<stop offset="0.351563" stop-color="#D6D3D4"/>
<stop offset="0.355469" stop-color="#D7D4D5"/>
<stop offset="0.359375" stop-color="#D8D5D5"/>
<stop offset="0.363281" stop-color="#D9D6D6"/>
<stop offset="0.367188" stop-color="#D9D7D7"/>
<stop offset="0.371094" stop-color="#DAD7D8"/>
<stop offset="0.375" stop-color="#DBD8D9"/>
<stop offset="0.378906" stop-color="#DCD9D9"/>
<stop offset="0.382812" stop-color="#DCDADA"/>
<stop offset="0.386719" stop-color="#DDDBDB"/>
<stop offset="0.390625" stop-color="#DEDCDC"/>
<stop offset="0.394531" stop-color="#DFDCDD"/>
<stop offset="0.398438" stop-color="#DFDDDD"/>
<stop offset="0.402344" stop-color="#E0DEDE"/>
<stop offset="0.40625" stop-color="#E1DFDF"/>
<stop offset="0.410156" stop-color="#E2E0E0"/>
<stop offset="0.414063" stop-color="#E2E0E1"/>
<stop offset="0.417969" stop-color="#E3E1E1"/>
<stop offset="0.421875" stop-color="#E4E2E2"/>
<stop offset="0.425781" stop-color="#E5E3E3"/>
<stop offset="0.429688" stop-color="#E5E4E4"/>
<stop offset="0.433594" stop-color="#E6E5E5"/>
<stop offset="0.4375" stop-color="#E7E5E5"/>
<stop offset="0.441406" stop-color="#E8E6E6"/>
<stop offset="0.445312" stop-color="#E8E7E7"/>
<stop offset="0.449219" stop-color="#E9E8E8"/>
<stop offset="0.453125" stop-color="#EAE9E9"/>
<stop offset="0.457031" stop-color="#EBE9E9"/>
<stop offset="0.460938" stop-color="#EBEAEA"/>
<stop offset="0.464844" stop-color="#ECEBEB"/>
<stop offset="0.46875" stop-color="#ECEBEB"/>
<stop offset="0.472656" stop-color="#EDECEC"/>
<stop offset="0.476563" stop-color="#EDEDED"/>
<stop offset="0.480469" stop-color="#EEEDED"/>
<stop offset="0.484375" stop-color="#EFEEEE"/>
<stop offset="0.488281" stop-color="#EFEEEE"/>
<stop offset="0.492188" stop-color="#F0EFEF"/>
<stop offset="0.496094" stop-color="#F0F0F0"/>
<stop offset="0.5" stop-color="#F1F0F0"/>
<stop offset="0.503906" stop-color="#F1F1F1"/>
<stop offset="0.507812" stop-color="#F2F1F1"/>
<stop offset="0.511719" stop-color="#F3F2F2"/>
<stop offset="0.515625" stop-color="#F3F3F3"/>
<stop offset="0.519531" stop-color="#F4F3F3"/>
<stop offset="0.523438" stop-color="#F4F4F4"/>
<stop offset="0.527344" stop-color="#F5F4F4"/>
<stop offset="0.53125" stop-color="#F5F5F5"/>
<stop offset="0.535156" stop-color="#F6F6F6"/>
<stop offset="0.539062" stop-color="#F6F6F6"/>
<stop offset="0.542969" stop-color="#F7F7F7"/>
<stop offset="0.546875" stop-color="#F8F7F7"/>
<stop offset="0.550781" stop-color="#F8F8F8"/>
<stop offset="0.554687" stop-color="#F9F9F9"/>
<stop offset="0.558594" stop-color="#F9F9F9"/>
<stop offset="0.5625" stop-color="#FAFAFA"/>
<stop offset="0.566406" stop-color="#FAFAFA"/>
<stop offset="0.570313" stop-color="#FBFBFB"/>
<stop offset="0.578125" stop-color="#FBFBFB"/>
<stop offset="0.59375" stop-color="#FBFBFB"/>
<stop offset="0.625" stop-color="#FBFBFB"/>
<stop offset="0.75" stop-color="#FBFBFB"/>
<stop offset="1" stop-color="#FBFBFB"/>
</linearGradient>
</defs>
</svg>
