<svg width="170" height="239" viewBox="0 0 170 239" fill="none" xmlns="http://www.w3.org/2000/svg">
<mask id="mask0_2314_1599" style="mask-type:luminance" maskUnits="userSpaceOnUse" x="0" y="0" width="170" height="239">
<path d="M0 0H170V238.25H0V0Z" fill="white"/>
</mask>
<g mask="url(#mask0_2314_1599)">
<path d="M163.078 238.031H6.5625C3.23828 238.031 0.546875 235.316 0.546875 231.973V6.40234C0.546875 3.05859 3.23828 0.34375 6.5625 0.34375H163.078C166.402 0.34375 169.094 3.05859 169.094 6.40234V231.973C169.094 235.316 166.402 238.031 163.078 238.031Z" fill="white"/>
</g>
<mask id="mask1_2314_1599" style="mask-type:luminance" maskUnits="userSpaceOnUse" x="11" y="10" width="148" height="79">
<path d="M11 10H159V89H11V10Z" fill="white"/>
</mask>
<g mask="url(#mask1_2314_1599)">
<mask id="mask2_2314_1599" style="mask-type:luminance" maskUnits="userSpaceOnUse" x="11" y="10" width="148" height="79">
<path d="M158.227 88.0859C158.227 62.1875 158.234 36.2812 158.242 10.3867C109.387 10.3867 60.5234 10.3867 11.6719 10.3906C11.6484 35.8711 11.625 61.3477 11.6016 86.8242C14.168 75.3867 19.3437 58.5195 29.2109 49.5117C36.7656 42.6289 40.5391 39.1758 43.4922 37.7969C44.8633 37.1523 49.2539 35.2539 52.8828 30.8242C53.5586 30.0039 54.0469 29.2852 54.3516 28.8047C54.668 29.2266 55.8828 30.7773 57.5547 30.8086C59.7305 30.8437 62.1602 28.2969 62.2812 24.4531C62.5352 25.0234 64.6719 29.5703 69.5312 30.5977C71.8711 31.0938 73.8359 30.5664 74.8516 30.207C75.5117 29.6602 76.3867 28.8125 77.1914 27.5977C77.9766 26.4063 78.4062 25.2891 78.6523 24.4766H91.1992C91.2734 24.9414 91.8828 28.3711 95.0039 30.0781C98.0547 31.7539 101.152 30.4766 102.105 30.0938C105.398 28.7656 106.793 26.0312 107.102 25.3867C107.844 28.9258 110.316 31.1133 112.492 30.9414C112.844 30.9141 113.977 30.7617 115.156 29.4414L118.914 32.5703C120.383 33.4414 122.445 34.7227 124.824 36.3867C127.613 38.3359 136.867 44.9063 144.137 54.3516C153.789 66.8906 157.02 80.6992 158.219 88.0703L158.227 88.0859Z" fill="white"/>
</mask>
<g mask="url(#mask2_2314_1599)">
<path d="M11.6016 10.3867V88.0859H158.242V10.3867H11.6016Z" fill="url(#paint0_linear_2314_1599)"/>
</g>
</g>
<path d="M158.617 228.184H11.1445C11.1445 182.855 11.1445 137.523 11.1445 92.1953C11.1445 64.8047 11.1445 37.4219 11.1445 10.0312H158.617C158.617 37.3789 158.617 64.7226 158.617 92.0664C158.617 137.441 158.617 182.809 158.617 228.184Z" stroke="#0E0E0E" stroke-width="0.75" stroke-linecap="round" stroke-linejoin="round"/>
<path d="M84.7969 32.4648C84.7422 31.8437 84.4883 29.6602 82.6797 27.8086C81.0586 26.1406 79.1563 25.7461 78.5039 25.6328C78.5547 24.9805 78.6094 24.3281 78.6602 23.6758C79.5156 23.2773 81.2344 22.332 82.6562 20.4219C84.1055 18.4766 84.5156 16.543 84.6523 15.6055C84.9883 16.7734 85.7344 18.7773 87.4258 20.7266C88.7344 22.2266 90.1211 23.1406 91.0781 23.6758C91.1328 24.3281 91.1836 24.9805 91.2383 25.6328C90.7734 25.6758 87.7812 26.0234 85.9805 28.6406C84.9219 30.1836 84.7969 31.7617 84.7812 32.4648H84.7969Z" fill="white"/>
<path d="M53.5859 22.0157C54.4219 21.7774 55.793 21.5157 57.3437 21.8907C58.7031 22.211 59.6172 22.8712 60.1367 23.2618C64.6953 26.6837 65.3711 29.336 68.5039 30.5392C68.9102 30.6954 71.8437 31.6642 74.7969 30.2813C76.8828 29.3087 78.3672 27.086 78.6016 24.6798C78.9297 21.2306 76.5312 17.8165 73.7461 17.1954C73.4258 17.1212 71.6719 16.7306 70.2383 17.8009C70.0586 17.9376 68.9492 18.793 68.789 20.3009C68.7656 20.5235 68.5859 22.4688 70.0742 23.4142C70.9062 23.9376 71.9609 23.9688 72.8008 23.5782C73.9961 23.0313 74.7148 21.6564 74.5273 20.1876C74.8203 20.5118 75.2266 21.0118 75.5469 21.7032C75.7031 22.0313 76.7265 24.2892 75.75 26.4571C74.5664 29.0978 71.332 29.5626 70.8984 29.6212C68.0117 30.0353 65.0117 28.5196 63.0469 25.797" stroke="#0E0E0E" stroke-width="0.75" stroke-linecap="round" stroke-linejoin="round"/>
<path d="M78.6602 23.586C79.2305 23.3086 80.1211 22.8047 81.0313 21.9805C83.9336 19.3321 84.4649 15.6562 84.7031 14.0234C84.8399 13.1015 84.9609 11.7266 84.8008 10.0234" stroke="#0E0E0E" stroke-width="0.75" stroke-linecap="round" stroke-linejoin="round"/>
<path d="M78.5039 25.543C79.2148 25.6719 79.9883 25.8945 80.7539 26.2851C84.2109 28.0469 84.7188 31.7383 84.7969 32.375" stroke="#0E0E0E" stroke-width="0.75" stroke-linecap="round" stroke-linejoin="round"/>
<path d="M116.168 22.0157C115.336 21.7774 113.961 21.5157 112.41 21.8907C111.051 22.211 110.137 22.8712 109.621 23.2618C105.059 26.6837 104.387 29.336 101.25 30.5392C100.844 30.6954 97.9141 31.6642 94.9571 30.2813C92.8711 29.3087 91.3867 27.086 91.1563 24.6798C90.8242 21.2306 93.2266 17.8165 96.0078 17.1954C96.3282 17.1212 98.086 16.7306 99.5157 17.8009C99.6993 17.9376 100.809 18.793 100.965 20.3009C100.988 20.5235 101.168 22.4688 99.6836 23.4142C98.8516 23.9376 97.793 23.9688 96.9531 23.5782C95.7617 23.0313 95.0391 21.6564 95.2266 20.1876C94.9336 20.5118 94.5313 21.0118 94.2071 21.7032C94.0508 22.0313 93.0313 24.2892 94.0039 26.4571C95.1914 29.0978 98.4219 29.5626 98.8594 29.6212C101.746 30.0353 104.746 28.5196 106.711 25.797" stroke="#0E0E0E" stroke-width="0.75" stroke-linecap="round" stroke-linejoin="round"/>
<path d="M91.2539 25.543C90.5391 25.6719 89.7656 25.8945 89.0039 26.2851C85.5469 28.0469 85.0352 31.7383 84.9609 32.375" stroke="#0E0E0E" stroke-width="0.75" stroke-linecap="round" stroke-linejoin="round"/>
<path d="M115.461 28.8711C115.352 29.1289 114.758 30.4414 113.371 30.875C111.898 31.3399 110.609 30.4844 110.07 30.125C107.797 28.6172 107.574 25.7461 107.551 25.2812" stroke="#0E0E0E" stroke-width="0.75" stroke-linecap="round" stroke-linejoin="round"/>
<path d="M123.434 35.7892C122.789 35.422 121.883 34.8634 120.863 34.1212C117.914 31.9767 115.613 30.3048 115.012 27.5743C114.465 25.0938 115.582 23.0001 115.777 22.6485C117.613 19.3321 121.461 18.7852 122.258 18.6954C125.836 18.2891 129.465 20.1798 131.738 23.4806" stroke="#0E0E0E" stroke-width="0.75" stroke-linecap="round" stroke-linejoin="round"/>
<path d="M131.242 40.9414C131.281 33.2227 129.391 27.1641 126.398 25.4883C124.859 24.6367 123.301 24.6133 123.301 24.6133C122.781 24.6133 120.164 24.6485 118.508 26.8086C117.031 28.7383 117.398 30.9414 117.465 31.3164" stroke="#0E0E0E" stroke-width="0.75" stroke-linecap="round" stroke-linejoin="round"/>
<path d="M152.371 37.0391C152.762 36.8438 154.004 36.2657 155.348 36.6133C157.738 37.2188 158.012 40.1094 158.023 40.3165C158.168 42.1563 157.043 44.293 154.898 45.0587C153.246 45.6407 151.656 45.1758 150.808 44.9297C148.066 44.129 146.558 42.2618 145.808 41.3165C143.406 38.254 144.578 36.7696 142.117 34.5938C141.449 34.004 140.101 32.8008 138.031 32.4883C135.879 32.1485 134.992 33.0782 133.027 32.5313C131.101 31.9922 130.101 30.5743 129.848 30.1758C129.726 29.9962 128.324 27.7383 129.644 25.4688C129.914 24.9961 130.719 23.6212 132.523 23.2266C134.168 22.8712 135.976 23.4727 136.965 24.6485C137.812 25.6563 138.058 27.0743 137.398 28.1993C137.258 28.4454 136.808 29.211 135.789 29.5157C134.933 29.7735 133.844 29.6602 133.094 29.0587C132.433 28.5274 132.316 27.8438 132.293 27.6407" stroke="#0E0E0E" stroke-width="0.75" stroke-linecap="round" stroke-linejoin="round"/>
<path d="M143.664 36.6875C143.348 33.2657 141.602 30.4532 139.043 29.5391C138.457 29.3282 137.543 29.1211 136.328 29.2696" stroke="#0E0E0E" stroke-width="0.75" stroke-linecap="round" stroke-linejoin="round"/>
<path d="M146.258 41.9883C145.793 41.8712 143.859 41.4219 142.207 42.5001C140.219 43.8048 139.426 46.8282 140.648 49.6915" stroke="#0E0E0E" stroke-width="0.75" stroke-linecap="round" stroke-linejoin="round"/>
<path d="M147.613 52.3007C147.309 52.289 146.672 52.2968 145.996 52.6484C144.898 53.2265 144.539 54.2812 144.473 54.5234" stroke="#0E0E0E" stroke-width="0.75" stroke-linecap="round" stroke-linejoin="round"/>
<path d="M158.602 91.1133C158.586 91.0117 158.574 90.8242 158.543 90.6055C157.957 85.4688 154.648 61.4844 134.926 43.9844C132.473 41.8086 128.672 38.7578 123.434 35.7891" stroke="#0E0E0E" stroke-width="0.75" stroke-linecap="round" stroke-linejoin="round"/>
<path d="M84.7969 32.4649C84.7422 31.8438 84.4883 29.6602 82.6797 27.8086C81.0586 26.1407 79.1563 25.7461 78.5039 25.6328C78.5547 24.9805 78.6094 24.3281 78.6602 23.6758C79.5156 23.2774 81.2344 22.3321 82.6563 20.4219C84.1055 18.4766 84.5156 16.543 84.6524 15.6055C84.9883 16.7734 85.7344 18.7774 87.4258 20.7266C88.7344 22.2266 90.1211 23.1406 91.0781 23.6758C91.1328 24.3281 91.1836 24.9805 91.2383 25.6328C90.7735 25.6758 87.7813 26.0235 85.9805 28.6407C84.9219 30.1836 84.7969 31.7617 84.7813 32.4649H84.7969Z" fill="black" stroke="black" stroke-width="0.5625" stroke-linecap="round" stroke-linejoin="round"/>
<path d="M116.168 22.0157C115.336 21.7774 113.961 21.5157 112.41 21.8907C111.051 22.211 110.137 22.8712 109.621 23.2618C105.059 26.6837 104.387 29.336 101.25 30.5392C100.844 30.6954 97.9141 31.6642 94.9571 30.2813C92.8711 29.3087 91.3867 27.086 91.1563 24.6798C90.8242 21.2306 93.2266 17.8165 96.0078 17.1954C96.3282 17.1212 98.086 16.7306 99.5157 17.8009C99.6993 17.9376 100.809 18.793 100.965 20.3009C100.988 20.5235 101.168 22.4688 99.6836 23.4142C98.8516 23.9376 97.793 23.9688 96.9531 23.5782C95.7617 23.0313 95.0391 21.6564 95.2266 20.1876C94.9336 20.5118 94.5313 21.0118 94.2071 21.7032C94.0508 22.0313 93.0313 24.2892 94.0039 26.4571C95.1914 29.0978 98.4219 29.5626 98.8594 29.6212C101.746 30.0353 104.746 28.5196 106.711 25.797" stroke="#0E0E0E" stroke-width="0.75" stroke-linecap="round" stroke-linejoin="round"/>
<path d="M91.0938 23.586C89.9922 23.0391 89.2188 22.4297 88.7266 21.9805C85.3789 18.9336 85.0586 14.414 84.9375 12.7461C84.8555 11.6094 84.8985 10.6641 84.9531 10.0234" stroke="#0E0E0E" stroke-width="0.75" stroke-linecap="round" stroke-linejoin="round"/>
<path d="M91.2539 25.543C90.5391 25.6719 89.7656 25.8945 89.0039 26.2851C85.5469 28.0469 85.0352 31.7383 84.9609 32.375" stroke="#0E0E0E" stroke-width="0.75" stroke-linecap="round" stroke-linejoin="round"/>
<path d="M115.461 28.8711C115.352 29.1289 114.758 30.4414 113.371 30.875C111.898 31.3399 110.609 30.4844 110.07 30.125C107.797 28.6172 107.574 25.7461 107.551 25.2812" stroke="#0E0E0E" stroke-width="0.75" stroke-linecap="round" stroke-linejoin="round"/>
<path d="M123.434 35.7892C122.789 35.422 121.883 34.8634 120.863 34.1212C117.914 31.9767 115.613 30.3048 115.012 27.5743C114.465 25.0938 115.582 23.0001 115.777 22.6485C117.613 19.3321 121.461 18.7852 122.258 18.6954C125.836 18.2891 129.465 20.1798 131.738 23.4806" stroke="#0E0E0E" stroke-width="0.75" stroke-linecap="round" stroke-linejoin="round"/>
<path d="M131.242 40.9414C131.281 33.2227 129.391 27.1641 126.398 25.4883C124.859 24.6367 123.301 24.6133 123.301 24.6133C122.781 24.6133 120.164 24.6485 118.508 26.8086C117.031 28.7383 117.398 30.9414 117.465 31.3164" stroke="#0E0E0E" stroke-width="0.75" stroke-linecap="round" stroke-linejoin="round"/>
<path d="M152.371 37.0391C152.762 36.8438 154.004 36.2657 155.348 36.6133C157.738 37.2188 158.012 40.1094 158.023 40.3165C158.168 42.1563 157.043 44.293 154.898 45.0587C153.246 45.6407 151.656 45.1758 150.808 44.9297C148.066 44.129 146.558 42.2618 145.808 41.3165C143.406 38.254 144.578 36.7696 142.117 34.5938C141.449 34.004 140.101 32.8008 138.031 32.4883C135.879 32.1485 134.992 33.0782 133.027 32.5313C131.101 31.9922 130.101 30.5743 129.848 30.1758C129.726 29.9962 128.324 27.7383 129.644 25.4688C129.914 24.9961 130.719 23.6212 132.523 23.2266C134.168 22.8712 135.976 23.4727 136.965 24.6485C137.812 25.6563 138.058 27.0743 137.398 28.1993C137.258 28.4454 136.808 29.211 135.789 29.5157C134.933 29.7735 133.844 29.6602 133.094 29.0587C132.433 28.5274 132.316 27.8438 132.293 27.6407" stroke="#0E0E0E" stroke-width="0.75" stroke-linecap="round" stroke-linejoin="round"/>
<path d="M143.664 36.6875C143.348 33.2657 141.602 30.4532 139.043 29.5391C138.457 29.3282 137.543 29.1211 136.328 29.2696" stroke="#0E0E0E" stroke-width="0.75" stroke-linecap="round" stroke-linejoin="round"/>
<path d="M158.512 48.7618C157.281 46.6563 155.316 45.3438 153.359 45.461C150.938 45.6133 149.512 47.8868 148.898 48.8672C145.434 54.3946 149.137 61.9493 149.707 63.0782" stroke="#0E0E0E" stroke-width="0.75" stroke-linecap="round" stroke-linejoin="round"/>
<path d="M158.566 90.4336C157.156 80.7812 152.574 59.668 134.926 43.9844C131.086 40.5742 127.164 37.8945 123.434 35.7891" stroke="#0E0E0E" stroke-width="0.75" stroke-linecap="round" stroke-linejoin="round"/>
<mask id="mask3_2314_1599" style="mask-type:luminance" maskUnits="userSpaceOnUse" x="11" y="148" width="148" height="80">
<path d="M11 148H159V228H11V148Z" fill="white"/>
</mask>
<g mask="url(#mask3_2314_1599)">
<mask id="mask4_2314_1599" style="mask-type:luminance" maskUnits="userSpaceOnUse" x="11" y="148" width="148" height="80">
<path d="M11.4531 148.633C11.4766 175.023 11.4883 201.418 11.5117 227.801C60.375 227.797 109.238 227.781 158.102 227.773C158.121 202.297 158.145 176.816 158.168 151.34C153.316 162.629 145.875 176.383 134.332 190.121C129.879 195.418 125.391 200.039 121.066 204.043C119.863 205.633 118.664 207.215 117.473 208.805C116.789 208.992 116.109 209.172 115.426 209.359C115.109 208.941 113.895 207.387 112.223 207.359C110.047 207.32 107.617 209.871 107.496 213.711C107.242 213.141 105.105 208.594 100.246 207.566C97.9062 207.074 95.9414 207.598 94.9258 207.957C94.2656 208.504 93.3906 209.352 92.5859 210.566C91.8008 211.762 91.3711 212.879 91.125 213.688H78.5781C78.5039 213.223 77.8945 209.797 74.7734 208.086C71.7227 206.414 68.625 207.688 67.6719 208.07C64.3789 209.398 62.9844 212.137 62.6758 212.781C61.9336 209.238 59.4609 207.051 57.2852 207.223C56.9336 207.254 55.8008 207.402 54.6211 208.723C53.3711 207.68 52.1172 206.637 50.8633 205.594C45.0469 202.715 34.207 196.379 25.1094 184.094C14.4766 169.723 12.1211 155.18 11.4688 148.641L11.4531 148.633Z" fill="white"/>
</mask>
<g mask="url(#mask4_2314_1599)">
<path d="M11.4531 148.633V227.801H158.168V148.633H11.4531Z" fill="url(#paint1_linear_2314_1599)"/>
</g>
</g>
<path d="M84.8398 205.918C84.8906 206.539 85.1484 208.723 86.9531 210.574C88.5742 212.238 90.4805 212.637 91.1328 212.75C91.0781 213.402 91.0273 214.055 90.9766 214.707C90.1211 215.105 88.4023 216.051 86.9766 217.961C85.5313 219.906 85.1172 221.84 84.9844 222.777C84.6445 221.609 83.9023 219.605 82.207 217.656C80.9023 216.156 79.5156 215.238 78.5547 214.707C78.5039 214.055 78.4492 213.402 78.3984 212.75C78.8633 212.703 81.8555 212.359 83.6562 209.742C84.7109 208.199 84.8398 206.621 84.8555 205.918H84.8398Z" fill="white"/>
<path d="M116.055 216.359C115.223 216.598 113.852 216.859 112.297 216.484C110.941 216.164 110.023 215.504 109.508 215.113C104.949 211.691 104.273 209.039 101.137 207.836C100.734 207.68 97.8008 206.711 94.8438 208.094C92.7617 209.066 91.2735 211.289 91.043 213.695C90.711 217.145 93.1133 220.559 95.8946 221.18C96.2188 221.254 97.9727 221.645 99.4063 220.574C99.586 220.438 100.695 219.582 100.852 218.074C100.875 217.852 101.055 215.906 99.5703 214.961C98.7383 214.438 97.6797 214.406 96.8399 214.797C95.6485 215.344 94.9258 216.719 95.1133 218.188C94.8242 217.863 94.418 217.363 94.0938 216.672C93.9375 216.344 92.918 214.086 93.8907 211.918C95.0782 209.277 98.3086 208.813 98.7461 208.754C101.633 208.34 104.633 209.855 106.598 212.578" stroke="#0E0E0E" stroke-width="0.75" stroke-linecap="round" stroke-linejoin="round"/>
<path d="M90.9765 214.789C89.9179 215.316 89.1445 215.906 88.6054 216.395C85.4921 219.223 85.0351 223.34 84.8163 225.266C84.6757 226.52 84.6913 227.555 84.7187 228.191" stroke="#0E0E0E" stroke-width="0.75" stroke-linecap="round" stroke-linejoin="round"/>
<path d="M91.1328 212.84C90.4219 212.711 89.6484 212.488 88.8828 212.098C85.4258 210.336 84.9141 206.645 84.8398 206.008" stroke="#0E0E0E" stroke-width="0.75" stroke-linecap="round" stroke-linejoin="round"/>
<path d="M53.4766 216.359C54.3086 216.598 55.6797 216.859 57.2344 216.484C58.5898 216.164 59.5039 215.504 60.0234 215.113C64.582 211.691 65.2578 209.039 68.3906 207.836C68.7969 207.68 71.7305 206.711 74.6836 208.094C76.7695 209.066 78.2539 211.289 78.4883 213.695C78.8164 217.145 76.418 220.559 73.6367 221.18C73.3125 221.254 71.5586 221.645 70.125 220.574C69.9453 220.438 68.8359 219.582 68.6758 218.074C68.6562 217.852 68.4766 215.906 69.9609 214.961C70.793 214.438 71.8516 214.406 72.6914 214.797C73.8828 215.344 74.6016 216.719 74.4141 218.188C74.707 217.863 75.1133 217.363 75.4336 216.672C75.5937 216.344 76.6133 214.086 75.6367 211.918C74.4531 209.277 71.2188 208.813 70.7852 208.754C67.8984 208.34 64.8984 209.855 62.9336 212.578" stroke="#0E0E0E" stroke-width="0.75" stroke-linecap="round" stroke-linejoin="round"/>
<path d="M78.3906 212.84C79.0742 212.734 79.8516 212.516 80.6406 212.098C83.8516 210.402 84.6836 206.781 84.8399 206.008" stroke="#0E0E0E" stroke-width="0.75" stroke-linecap="round" stroke-linejoin="round"/>
<path d="M54.1797 209.504C54.293 209.246 54.8867 207.934 56.2734 207.5C57.7422 207.035 59.0313 207.891 59.5742 208.25C61.8438 209.758 62.0703 212.629 62.0938 213.094" stroke="#0E0E0E" stroke-width="0.75" stroke-linecap="round" stroke-linejoin="round"/>
<path d="M46.207 202.586C46.8515 202.953 47.7617 203.512 48.7812 204.254C51.7266 206.398 54.0312 208.07 54.6289 210.801C55.1758 213.281 54.0586 215.375 53.8633 215.727C52.0273 219.043 48.1797 219.59 47.3867 219.68C43.8086 220.086 40.1758 218.195 37.9062 214.895" stroke="#0E0E0E" stroke-width="0.75" stroke-linecap="round" stroke-linejoin="round"/>
<path d="M38.3984 197.441C38.3633 205.16 40.2539 211.219 43.2461 212.891C44.7812 213.746 46.3437 213.77 46.3437 213.77C46.8594 213.77 49.4766 213.734 51.1367 211.574C52.6133 209.645 52.2461 207.441 52.1758 207.066" stroke="#0E0E0E" stroke-width="0.75" stroke-linecap="round" stroke-linejoin="round"/>
<path d="M17.2735 201.336C16.8828 201.531 15.6368 202.109 14.2969 201.762C11.9024 201.156 11.6329 198.266 11.6172 198.059C11.4766 196.219 12.6016 194.082 14.7461 193.316C16.3946 192.734 17.9844 193.199 18.8321 193.445C21.5782 194.246 23.086 196.113 23.836 197.059C26.2344 200.121 25.0665 201.605 27.5235 203.781C28.1915 204.371 29.543 205.574 31.6133 205.887C33.7657 206.227 34.6485 205.297 36.6133 205.844C38.543 206.383 39.5391 207.801 39.7969 208.199C39.9141 208.379 41.3164 210.637 39.9961 212.906C39.7266 213.379 38.9258 214.754 37.1172 215.148C35.4766 215.504 33.668 214.902 32.6758 213.727C31.8282 212.719 31.5821 211.301 32.2422 210.176C32.3868 209.93 32.836 209.164 33.8555 208.859C34.711 208.602 35.7969 208.715 36.5469 209.316C37.2071 209.848 37.3282 210.531 37.3516 210.734" stroke="#0E0E0E" stroke-width="0.75" stroke-linecap="round" stroke-linejoin="round"/>
<path d="M25.9805 201.688C26.2969 205.109 28.043 207.922 30.6016 208.836C31.1836 209.047 32.1016 209.254 33.3164 209.105" stroke="#0E0E0E" stroke-width="0.75" stroke-linecap="round" stroke-linejoin="round"/>
<path d="M23.3789 196.387C23.8594 196.504 25.7774 196.941 27.4258 195.875C29.4297 194.57 30.2461 191.547 29.0391 188.668" stroke="#0E0E0E" stroke-width="0.75" stroke-linecap="round" stroke-linejoin="round"/>
<path d="M22.0195 186.074C22.3281 186.086 22.9649 186.078 23.6406 185.727C24.7656 185.137 25.1094 184.031 25.1758 183.809" stroke="#0E0E0E" stroke-width="0.75" stroke-linecap="round" stroke-linejoin="round"/>
<path d="M11.168 146.488C12.3672 156.148 16.582 178.227 34.7188 194.391C38.5508 197.801 42.4648 200.48 46.207 202.586" stroke="#0E0E0E" stroke-width="0.75" stroke-linecap="round" stroke-linejoin="round"/>
<path d="M84.8399 205.918C84.8906 206.539 85.1485 208.723 86.9531 210.574C88.5742 212.238 90.4805 212.637 91.1328 212.75C91.0781 213.402 91.0273 214.055 90.9766 214.707C90.5117 214.918 89.8711 215.246 89.1914 215.766C87.6524 216.941 86.918 218.324 86.2735 219.566C85.711 220.664 84.9844 222.359 84.6094 224.594C84.6016 223.52 84.4336 220.438 82.1992 217.648C80.9336 216.059 79.4766 215.164 78.5469 214.699C78.4961 214.047 78.4414 213.395 78.3906 212.742C78.8555 212.699 81.8476 212.352 83.6484 209.734C84.7031 208.191 84.832 206.613 84.8477 205.91L84.8399 205.918Z" fill="black" stroke="black" stroke-width="0.5625" stroke-linecap="round" stroke-linejoin="round"/>
<path d="M53.4766 216.359C54.3086 216.598 55.6797 216.859 57.2344 216.484C58.5898 216.164 59.5039 215.504 60.0234 215.113C64.582 211.691 65.2578 209.039 68.3906 207.836C68.7969 207.68 71.7305 206.711 74.6836 208.094C76.7695 209.066 78.2539 211.289 78.4883 213.695C78.8164 217.145 76.418 220.559 73.6367 221.18C73.3125 221.254 71.5586 221.645 70.125 220.574C69.9453 220.438 68.8359 219.582 68.6758 218.074C68.6562 217.852 68.4766 215.906 69.9609 214.961C70.793 214.438 71.8516 214.406 72.6914 214.797C73.8828 215.344 74.6016 216.719 74.4141 218.188C74.707 217.863 75.1133 217.363 75.4336 216.672C75.5937 216.344 76.6133 214.086 75.6367 211.918C74.4531 209.277 71.2188 208.813 70.7852 208.754C67.8984 208.34 64.8984 209.855 62.9336 212.578" stroke="#0E0E0E" stroke-width="0.75" stroke-linecap="round" stroke-linejoin="round"/>
<path d="M78.5469 214.789C79.1719 215.09 80.039 215.594 80.918 216.395C82.7695 218.105 83.4375 220.086 83.9531 221.703C84.7578 224.211 84.8399 226.488 84.7266 228.191" stroke="#0E0E0E" stroke-width="0.75" stroke-linecap="round" stroke-linejoin="round"/>
<path d="M78.3906 212.84C79.0742 212.734 79.8516 212.516 80.6406 212.098C83.8789 210.379 84.6914 206.676 84.8399 205.918" stroke="#0E0E0E" stroke-width="0.75" stroke-linecap="round" stroke-linejoin="round"/>
<path d="M54.1797 209.504C54.293 209.246 54.8867 207.934 56.2734 207.5C57.7422 207.035 59.0313 207.891 59.5742 208.25C61.8438 209.758 62.0703 212.629 62.0938 213.094" stroke="#0E0E0E" stroke-width="0.75" stroke-linecap="round" stroke-linejoin="round"/>
<path d="M46.207 202.586C46.8515 202.953 47.7617 203.512 48.7812 204.254C51.7266 206.398 54.0312 208.07 54.6289 210.801C55.1758 213.281 54.0586 215.375 53.8633 215.727C52.0273 219.043 48.1797 219.59 47.3867 219.68C43.8086 220.086 40.1758 218.195 37.9062 214.895" stroke="#0E0E0E" stroke-width="0.75" stroke-linecap="round" stroke-linejoin="round"/>
<path d="M38.3984 197.441C38.3633 205.16 40.2539 211.219 43.2461 212.891C44.7812 213.746 46.3437 213.77 46.3437 213.77C46.8594 213.77 49.4766 213.734 51.1367 211.574C52.6133 209.645 52.2461 207.441 52.1758 207.066" stroke="#0E0E0E" stroke-width="0.75" stroke-linecap="round" stroke-linejoin="round"/>
<path d="M17.2735 201.336C16.8828 201.531 15.6368 202.109 14.2969 201.762C11.9024 201.156 11.6329 198.266 11.6172 198.059C11.4766 196.219 12.6016 194.082 14.7461 193.316C16.3946 192.734 17.9844 193.199 18.8321 193.445C21.5782 194.246 23.086 196.113 23.836 197.059C26.2344 200.121 25.0665 201.605 27.5235 203.781C28.1915 204.371 29.543 205.574 31.6133 205.887C33.7657 206.227 34.6485 205.297 36.6133 205.844C38.543 206.383 39.5391 207.801 39.7969 208.199C39.9141 208.379 41.3164 210.637 39.9961 212.906C39.7266 213.379 38.9258 214.754 37.1172 215.148C35.4766 215.504 33.668 214.902 32.6758 213.727C31.8282 212.719 31.5821 211.301 32.2422 210.176C32.3868 209.93 32.836 209.164 33.8555 208.859C34.711 208.602 35.7969 208.715 36.5469 209.316C37.2071 209.848 37.3282 210.531 37.3516 210.734" stroke="#0E0E0E" stroke-width="0.75" stroke-linecap="round" stroke-linejoin="round"/>
<path d="M25.9805 201.688C26.2969 205.109 28.043 207.922 30.6016 208.836C31.1836 209.047 32.1016 209.254 33.3164 209.105" stroke="#0E0E0E" stroke-width="0.75" stroke-linecap="round" stroke-linejoin="round"/>
<path d="M11.2109 189.746C11.3008 189.898 13.2969 193.094 16.2812 192.906C18.6992 192.754 20.1211 190.488 20.7461 189.5C24.2031 183.98 20.5039 176.422 19.9336 175.289" stroke="#0E0E0E" stroke-width="0.75" stroke-linecap="round" stroke-linejoin="round"/>
<path d="M23.3789 196.387C23.8594 196.504 25.7774 196.941 27.4258 195.875C29.4297 194.57 30.2461 191.547 29.0391 188.668" stroke="#0E0E0E" stroke-width="0.75" stroke-linecap="round" stroke-linejoin="round"/>
<path d="M22.0195 186.074C22.3281 186.086 22.9649 186.078 23.6406 185.727C24.7656 185.137 25.1094 184.031 25.1758 183.809" stroke="#0E0E0E" stroke-width="0.75" stroke-linecap="round" stroke-linejoin="round"/>
<path d="M11.168 146.488C12.3672 156.148 16.582 178.227 34.7188 194.391C38.5508 197.801 42.4648 200.48 46.207 202.586" stroke="#0E0E0E" stroke-width="0.75" stroke-linecap="round" stroke-linejoin="round"/>
<path d="M128.594 194.586H125.438V190.461H126.473V190.852C126.473 191.586 126.727 192.207 127.246 192.734C127.762 193.258 128.391 193.535 129.156 193.566H145.02C145.785 193.535 146.422 193.258 146.941 192.738C147.457 192.223 147.719 191.594 147.719 190.852V190.461H148.754V194.586H147.277C146.039 194.66 144.996 195.094 144.141 195.906C143.289 196.715 142.777 197.727 142.621 198.965L142.605 199.453V199.469L142.523 200.832L141.906 212.367V212.512C141.781 214.039 141.016 215.121 139.621 215.758C139.176 215.938 138.727 216.027 138.254 216.027H128.152V214.961L128.574 215.008C129 214.984 129.359 214.836 129.645 214.551C129.93 214.266 130.086 213.914 130.109 213.484V196.152C130.109 195.734 129.961 195.371 129.668 195.078C129.375 194.789 129.016 194.621 128.586 194.602L128.594 194.586ZM144.156 194.586H134.961C134.535 194.609 134.176 194.766 133.883 195.066C133.59 195.363 133.441 195.727 133.441 196.137V213.441C133.441 213.656 133.484 213.867 133.566 214.07L133.582 214.102C133.875 214.664 134.34 214.961 134.977 214.992H135.996C137.199 214.992 138.262 214.406 139.191 213.23C140.113 212.051 140.715 210.539 140.969 208.672L141.562 199.398C141.562 199.137 141.586 198.883 141.621 198.629C141.629 198.574 141.645 198.523 141.652 198.469C141.66 198.418 141.676 198.359 141.684 198.297C141.691 198.246 141.703 198.191 141.711 198.141C141.719 198.094 141.734 198.051 141.742 197.996C141.75 197.953 141.766 197.914 141.773 197.871C141.781 197.824 141.797 197.789 141.801 197.742C141.809 197.699 141.824 197.668 141.848 197.629C141.855 197.586 141.871 197.547 141.879 197.504C141.898 197.457 141.914 197.422 141.922 197.375C141.93 197.344 141.953 197.309 141.969 197.262C141.977 197.219 141.996 197.18 142.012 197.137C142.035 197.105 142.051 197.066 142.059 197.023C142.078 196.977 142.102 196.949 142.117 196.91C142.125 196.863 142.148 196.836 142.164 196.797C142.184 196.754 142.207 196.715 142.223 196.672C142.246 196.641 142.266 196.602 142.281 196.559C142.289 196.527 142.312 196.488 142.328 196.445C142.359 196.414 142.387 196.387 142.402 196.348C142.426 196.301 142.449 196.273 142.461 196.234C142.484 196.191 142.508 196.16 142.523 196.121C142.547 196.094 142.566 196.062 142.598 196.031C142.621 195.988 142.641 195.957 142.656 195.922C142.688 195.891 142.719 195.859 142.738 195.824C142.77 195.793 142.801 195.754 142.816 195.711C142.844 195.68 142.875 195.648 142.891 195.621C142.922 195.59 142.949 195.559 142.965 195.523L143.055 195.434C143.055 195.434 143.102 195.371 143.137 195.336C143.168 195.312 143.199 195.289 143.227 195.262C143.258 195.23 143.289 195.199 143.301 195.172C143.332 195.141 143.363 195.109 143.398 195.094L143.488 194.996C143.488 194.996 143.551 194.953 143.586 194.922C143.617 194.898 143.648 194.879 143.676 194.848C143.707 194.816 143.746 194.789 143.789 194.773C143.82 194.75 143.852 194.727 143.887 194.699C143.918 194.676 143.953 194.652 144 194.621C144.031 194.602 144.059 194.578 144.09 194.562L144.156 194.586Z" fill="black"/>
<path d="M131.055 179.328C132.953 181.398 135.164 183.426 136.086 184.484C136.777 185.277 137.273 185.887 137.476 186.133C137.488 186.156 137.512 186.176 137.527 186.199C137.543 186.176 137.566 186.156 137.578 186.133C137.781 185.879 138.269 185.277 138.969 184.484C139.891 183.426 142.102 181.398 144 179.328C145.898 177.262 146.055 175.191 145.695 173.465C145.336 171.746 143.535 170.129 140.715 170.48C139.828 170.594 139.176 171.012 138.703 171.547C139.019 169.113 140.34 167.848 140.34 167.848H134.863C135.863 168.965 136.223 170.547 136.351 171.531C135.879 171.004 135.234 170.586 134.355 170.48C131.527 170.129 129.734 171.738 129.375 173.465C129.016 175.184 129.172 177.254 131.07 179.328H131.055Z" fill="#292929" stroke="black" stroke-width="0.5625" stroke-linecap="round" stroke-linejoin="round"/>
<path d="M40.9961 43.8945H44.1523V48.0195H43.1172V47.6289C43.1172 46.8945 42.8633 46.2734 42.3438 45.7461C41.8281 45.2227 41.1992 44.9453 40.4336 44.9141H24.5703C23.8047 44.9453 23.168 45.2227 22.6484 45.7383C22.1328 46.2578 21.8711 46.8867 21.8711 47.6289V48.0195H20.8359V43.8945H22.3125C23.5508 43.8203 24.5937 43.3867 25.4492 42.5742C26.3008 41.7656 26.8125 40.7539 26.9688 39.5156L26.9844 39.0273V39.0117L27.0664 37.6484L27.6836 26.1133V25.9688C27.8086 24.4414 28.5742 23.3594 29.9688 22.7227C30.4141 22.543 30.8633 22.4531 31.3359 22.4531H41.4375V23.5156L41.0156 23.4727C40.5898 23.4961 40.2305 23.6445 39.9453 23.9297C39.6602 24.2148 39.5039 24.5664 39.4805 24.9961V42.3281C39.4805 42.7461 39.6289 43.1094 39.9219 43.3984C40.2148 43.6914 40.5742 43.8594 41.0039 43.8789L40.9961 43.8945ZM25.4336 43.8945H34.6289C35.0547 43.8711 35.4141 43.7148 35.707 43.4141C36 43.1133 36.1484 42.7539 36.1484 42.3438V25.0391C36.1484 24.8242 36.1055 24.6133 36.0234 24.4102L36.0078 24.3789C35.7148 23.8164 35.25 23.5156 34.6133 23.4883H33.5938C32.3906 23.4883 31.3281 24.0742 30.3984 25.25C29.4766 26.4258 28.875 27.9414 28.6211 29.8086L28.0273 39.0781C28.0273 39.3438 28.0039 39.5977 27.9688 39.8516C27.9609 39.9063 27.9453 39.957 27.9375 40.0117C27.9297 40.0625 27.9141 40.1211 27.9062 40.1836C27.8984 40.2344 27.8867 40.2891 27.8789 40.3398C27.8711 40.3867 27.8555 40.4297 27.8477 40.4844C27.8398 40.5273 27.8242 40.5664 27.8164 40.6094C27.8086 40.6562 27.7969 40.6914 27.7891 40.7383C27.7813 40.7813 27.7656 40.8125 27.7422 40.8516C27.7344 40.8945 27.7187 40.9336 27.7109 40.9766C27.6914 41.0234 27.6758 41.0586 27.668 41.1055C27.6602 41.1367 27.6367 41.1719 27.6211 41.2188C27.6133 41.2617 27.5938 41.3008 27.5781 41.3438C27.5547 41.375 27.5391 41.4141 27.5312 41.457C27.5117 41.5039 27.4883 41.5313 27.4727 41.5703C27.4648 41.6133 27.4414 41.6445 27.4258 41.6836C27.4063 41.7266 27.3828 41.7656 27.3672 41.8086C27.3437 41.8398 27.3242 41.8789 27.3086 41.9219C27.3008 41.9531 27.2773 41.9883 27.2617 42.0352C27.2344 42.0664 27.2031 42.0938 27.1875 42.1328C27.1641 42.1758 27.1406 42.207 27.1289 42.2461C27.1055 42.2891 27.082 42.3203 27.0664 42.3594C27.0469 42.3867 27.0234 42.418 26.9922 42.4492C26.9687 42.4922 26.9492 42.5234 26.9336 42.5586C26.9023 42.5898 26.8711 42.6211 26.8516 42.6562C26.8203 42.6875 26.7891 42.7266 26.7734 42.7695C26.7461 42.8008 26.7148 42.8281 26.6992 42.8594C26.6719 42.8906 26.6406 42.9219 26.625 42.957L26.5352 43.0469C26.5352 43.0469 26.4883 43.1094 26.4531 43.1445C26.4219 43.168 26.3906 43.1914 26.3633 43.2188C26.332 43.25 26.3008 43.2812 26.2891 43.3086C26.2578 43.3398 26.2266 43.3711 26.1914 43.3867L26.1016 43.4844C26.1016 43.4844 26.0391 43.5273 26.0039 43.5586C25.9727 43.5781 25.9414 43.6016 25.9141 43.6328C25.8828 43.6641 25.8438 43.6914 25.8008 43.707C25.7695 43.7305 25.7383 43.7539 25.7031 43.7812C25.6719 43.8047 25.6367 43.8281 25.5898 43.8594C25.5586 43.8789 25.5312 43.9023 25.5 43.918L25.4336 43.8945Z" fill="black"/>
<path d="M38.5273 59.1406C36.6289 57.0742 34.4179 55.0469 33.496 53.9883C32.8046 53.1953 32.3085 52.5859 32.1093 52.3398C32.0937 52.3164 32.0703 52.2969 32.0546 52.2734C32.039 52.2969 32.0156 52.3164 32.0039 52.3398C31.8007 52.5937 31.3125 53.1953 30.6132 53.9883C29.6914 55.0469 27.4804 57.0742 25.582 59.1406C23.6835 61.2109 23.5273 63.2812 23.8867 65.0078C24.246 66.7265 26.0468 68.3437 28.8671 67.9922C29.7539 67.8789 30.4062 67.4609 30.8789 66.9258C30.5624 69.3594 29.2421 70.625 29.2421 70.625H34.7187C33.7187 69.5078 33.3593 67.9258 33.2343 66.9414C33.7031 67.4687 34.3515 67.8867 35.2265 67.9922C38.0546 68.3437 39.8476 66.7343 40.207 65.0078C40.5664 63.289 40.4101 61.2187 38.5117 59.1406H38.5273Z" fill="#292929" stroke="black" stroke-width="0.5625" stroke-linecap="round" stroke-linejoin="round"/>
<path d="M65.8047 186.621C67.3945 187.004 69.1875 187.754 70.5664 189.266C71.8359 190.648 72.082 191.922 73.4414 195.434C73.9961 196.863 74.7656 198.754 75.7812 200.961C78.8242 198.762 80.5664 197.879 80.9844 198.305C81.1875 198.508 81.0898 199.016 80.6836 199.836C84.6133 198.32 86.8203 197.93 87.293 198.664C87.5117 199.004 87.3672 199.578 86.8516 200.406C86.9766 200.27 87.2617 199.918 87.3359 199.387C87.3828 199.078 87.3359 198.828 87.293 198.664C86.9766 197.262 86.6641 195.852 86.3477 194.449C86.5586 195.402 86.7734 196.363 86.9844 197.316C87.1953 197 87.5391 196.586 88.0781 196.34C89.1992 195.836 90.3086 196.453 92.8633 197.352C93.6094 197.613 94.6719 197.977 95.9844 198.344C95.1016 196.152 93.9883 193.762 92.5781 191.254C90.3008 187.199 87.832 183.891 85.5898 181.289C78.9883 183.066 72.3984 184.844 65.7969 186.621H65.8047Z" fill="black"/>
<path d="M87.293 198.664C86.8203 197.93 84.6133 198.32 80.6836 199.836C81.0898 199.016 81.1875 198.508 80.9844 198.305C80.5664 197.879 78.8242 198.762 75.7812 200.961C74.7656 198.754 73.9961 196.863 73.4414 195.434C72.082 191.922 71.8359 190.648 70.5664 189.266C69.1875 187.754 67.3945 187.004 65.8047 186.621H65.7969C72.3984 184.844 78.9883 183.066 85.5898 181.289C87.832 183.891 90.3008 187.199 92.5781 191.254C93.9883 193.762 95.1016 196.152 95.9844 198.344C94.6719 197.977 93.6094 197.613 92.8633 197.352C90.3086 196.453 89.1992 195.836 88.0781 196.34C87.5391 196.586 87.1953 197 86.9844 197.316C86.7734 196.363 86.5586 195.402 86.3476 194.449C86.6641 195.852 86.9766 197.262 87.293 198.664ZM87.293 198.664C87.5117 199.004 87.3672 199.578 86.8516 200.406C86.9766 200.27 87.2617 199.918 87.3359 199.387C87.3828 199.078 87.3359 198.828 87.293 198.664Z" stroke="black" stroke-width="0.5625" stroke-linecap="round" stroke-linejoin="round"/>
<path d="M41.4766 120.906C41.6641 120.297 41.8594 119.691 42.0469 119.082C42.9453 118.356 44.0781 117.199 44.6406 115.527C45.3164 113.523 44.4961 112.82 44.6992 109.813C44.8633 107.426 45.5625 105.266 46.2891 103.023C47.0547 100.672 47.6016 99.6641 47.1524 99.2618C46.6133 98.7657 44.8945 99.4024 43.9258 100.543C43.875 100.602 43.8242 100.672 43.7695 100.738C42.9531 101.922 42.8711 103.07 42.6602 104.734C42.5781 105.371 42.4414 106.309 42.2109 107.481" stroke="black" stroke-width="0.5625" stroke-linecap="round" stroke-linejoin="round"/>
<path d="M33.9062 118.746C31.7695 113.473 30.9453 109.484 31.125 109.203C31.3594 108.836 31.664 108.516 31.664 108.516C32.1914 108.246 32.7539 107.984 33.3515 107.727C35.1523 106.977 36.8476 106.52 38.3242 106.25C39.0078 106.324 39.9453 106.496 40.9883 106.941C41.9492 107.344 42.6836 107.84 43.1992 108.246C43.0859 109.805 42.9766 111.371 42.8633 112.934C42.5859 112.934 42.3672 112.887 42.1953 112.812C41.2344 112.414 40.7109 111.051 40.7851 109.398C39.9765 109.348 39.1562 109.301 38.3476 109.25C37.8164 110.059 37.2891 110.871 36.7578 111.672C37.4258 112.242 38.3711 113.121 39.3984 114.297C40.6054 115.691 41.2422 116.426 41.5742 117.41C42.3281 119.691 41.0234 122.051 40.3633 123.074" stroke="black" stroke-width="0.5625" stroke-linecap="round" stroke-linejoin="round"/>
<path d="M44.4453 94.6485C45.2539 92.9141 45.1289 91.3087 44.3164 90.7345C44.1524 90.6134 43.8438 90.4532 43.3203 90.4844C42.7656 92.1563 42.2031 93.8243 41.6484 95.4962" stroke="black" stroke-width="0.5625" stroke-linecap="round" stroke-linejoin="round"/>
<path d="M43.043 98.5234C42.5469 99.9727 42.0508 101.426 41.5664 102.875" stroke="black" stroke-width="0.5625" stroke-linecap="round" stroke-linejoin="round"/>
<path d="M33.5703 117.867C38.0234 134.352 41.5742 146.523 42.9688 150.77C43.207 151.504 43.7109 153.551 45.4883 155.059C45.6602 155.203 48.3008 157.398 51.1875 156.785C52.8437 156.434 54.0586 155.254 57.7812 148.723C59.0703 146.449 60.5625 143.711 62.1523 140.547" stroke="black" stroke-width="0.5625" stroke-linecap="round" stroke-linejoin="round"/>
<path d="M42.5391 105.469C43.125 99.4609 45.0508 96.2461 46.793 94.4062C47.5117 93.6484 48.75 92.5391 50.0781 90.5508C51.4805 88.4453 52.2539 86.4648 52.6875 85.0781" stroke="black" stroke-width="0.5625" stroke-linecap="round" stroke-linejoin="round"/>
<path d="M31.6211 107.074C32.1523 106.176 32.6992 105.262 33.2774 104.344C35.0117 101.586 36.7891 99.0274 38.5664 96.6797C41.5937 95.7422 44.6172 94.8047 47.6484 93.8594C47.8633 94.1836 47.9492 94.4766 47.9531 94.7305C48 97.3321 40.3203 99.1914 39.9453 99.2734C39.5625 99.9141 39.1797 100.551 38.7969 101.188" fill="white"/>
<path d="M31.6211 107.074C32.1523 106.176 32.6992 105.262 33.2774 104.344C35.0117 101.586 36.7891 99.0274 38.5664 96.6797C41.5937 95.7422 44.6172 94.8047 47.6484 93.8594C47.8633 94.1836 47.9492 94.4766 47.9531 94.7305C48 97.3321 40.3203 99.1914 39.9453 99.2734C39.5625 99.9141 39.1797 100.551 38.7969 101.188" stroke="black" stroke-width="0.5625" stroke-linecap="round" stroke-linejoin="round"/>
<path d="M31.6719 108.508C31.6563 108.027 31.6367 107.555 31.6211 107.074C34.8984 104.293 37.3633 102.273 38.2422 101.613C38.3633 101.523 38.6914 101.277 39.1953 101.164C39.2695 101.148 40.3594 100.91 41.0312 101.488C41.4883 101.879 41.5195 102.449 41.6172 103.211C41.7305 104.051 41.9336 105.223 42.3594 106.641" stroke="black" stroke-width="0.5625" stroke-linecap="round" stroke-linejoin="round"/>
<path d="M39.6367 106.484C39.7188 105.898 39.7969 105.305 39.8789 104.719" stroke="black" stroke-width="0.5625" stroke-linecap="round" stroke-linejoin="round"/>
<path d="M58.0859 75.7343C58.0508 75.4531 57.9453 75.1913 57.7969 74.9687C59.3984 74.2695 59.8437 75.9218 60.5234 76.9531C60.7109 77.2382 60.9531 77.4491 61.207 77.6679C61.5078 77.9218 61.8164 78.1484 61.9805 78.5156C62.1211 78.8437 62.2734 79.8124 61.7188 79.9101C61.3789 79.496 60.9375 79.1757 60.4492 78.996C60.4648 78.3945 60.1641 77.8007 59.6172 77.4726C59.6641 77.2538 59.6836 77.0234 59.6562 76.7734C59.6562 76.7226 59.5937 76.7148 59.5586 76.7382C59.5508 76.3398 59.1289 75.8906 58.7852 75.746C58.5391 75.6406 58.2812 75.664 58.0859 75.7616C58.0859 75.7538 58.0859 75.746 58.0859 75.7343Z" fill="#EB1C24"/>
<path d="M59.5508 77.6992C60.7266 78.7383 60.0977 79.9844 58.8672 80.6016C58.2539 80.9063 57.6523 81.1562 57.2031 81.6797C57.1055 81.6562 57 81.6367 56.9023 81.6211C56.9023 81.6211 56.9102 81.6055 56.9102 81.5977C57.2031 80.0391 59.0625 79.1367 59.543 77.6992H59.5508Z" fill="#EB1C24"/>
<path d="M57.961 76.3163C57.9453 75.7382 58.6133 75.7929 58.9258 76.039C59.1602 76.2187 59.5508 76.6718 59.2969 76.9609C59.2969 76.4452 58.2891 76.0038 58.2657 76.5351C58.2657 76.6015 58.3711 76.6249 58.3867 76.5585C58.4532 76.2421 59.0703 76.7812 59.0625 76.8788C59.0547 77.1952 58.8242 77.1405 58.6641 77.082C58.3594 76.9687 57.9688 76.664 57.961 76.3163Z" fill="#8E0E08"/>
<path d="M55.9492 77.5781C56.2344 77.2617 57.2344 76.1367 57.7031 76.5117C57.7266 76.5273 57.75 76.5273 57.7734 76.5195C57.7891 76.5664 57.8086 76.6171 57.832 76.664C57.9961 76.9687 58.8906 77.6523 59.1992 77.2187C59.2109 77.2187 59.2344 77.2187 59.25 77.2109C59.3633 77.1406 59.4375 77.0664 59.4844 76.9765C59.1445 78.8437 57.0234 79.6484 56.6719 81.5156C56.6719 81.539 56.6719 81.5507 56.6719 81.5742C56.3789 81.5312 56.0938 81.5156 55.8164 81.5507C55.6563 81.5742 55.5078 81.6054 55.3633 81.6406C56.2734 80.4882 55.9258 79.0234 55.8672 77.6093C55.8906 77.6093 55.9219 77.6015 55.9414 77.5781H55.9492Z" fill="#EB1C24"/>
<path d="M54.8906 82.1367C55.6289 81.8281 56.4453 81.7539 57.3828 81.9805C58.4844 82.25 59.8125 82.6016 60.6758 81.6367C60.7813 81.5156 60.6211 81.3359 60.5039 81.4531C59.6016 82.332 58.4688 81.9727 57.3516 81.7188C58.2461 80.9883 59.6562 80.8242 60.2344 79.7617C60.3359 79.5664 60.3984 79.3633 60.4258 79.1602C61.2461 79.6406 62.0781 80.4805 62.0469 81.4844C62.0391 81.9062 61.9062 82.3477 61.6367 82.6758C61.1328 83.2852 60.4648 82.9531 59.8359 82.8125C59.7891 82.7969 59.7461 82.8125 59.7227 82.8438C59.6836 82.8281 59.625 82.8438 59.6094 82.8945C59.4219 83.4492 58.8906 83.6836 58.3438 83.5156C57.8398 83.3672 57.5391 82.9609 57.1953 82.5938C57.1133 82.5117 56.9531 82.6094 57.0156 82.7148C57.0469 82.7656 57.082 82.8203 57.1211 82.8633C57.0312 83.2617 56.4063 83.2344 56.1289 83.0742C55.8828 82.9336 55.6875 82.707 55.4766 82.5195C55.2969 82.3633 55.1094 82.2187 54.8906 82.1367Z" fill="#EB1C24"/>
<path d="M53.1289 83.4492C53.586 82.9531 54.0742 82.5586 54.6016 82.2812C55.336 82.4609 55.6953 83.3359 56.461 83.4219C56.7461 83.4492 57.1407 83.3008 57.2461 83.0234C57.4141 83.2187 57.6016 83.3906 57.8164 83.5312C57.0742 83.7188 56.5508 84.1328 55.9883 84.6406C55.5742 85.0156 55.1485 85.2344 54.5938 85.2031C54.5782 85.2031 54.5625 85.1914 54.5469 85.1836C54.5039 85.1602 54.4571 85.168 54.4258 85.1836C54.0313 85.1133 53.3985 84.8594 53.1016 84.4688C53.1016 84.4609 53.1016 84.4492 53.086 84.4414L53.0703 84.4258C52.8985 84.1719 52.875 83.8633 53.1289 83.5156C53.1524 83.4883 53.1446 83.457 53.1289 83.4336V83.4492Z" fill="#EB1C24"/>
<path d="M54.246 75.8984C54.4726 75.5664 54.7812 75.4102 55.1757 75.418C55.2539 75.418 55.3281 75.418 55.4023 75.4102C55.664 75.2539 55.5742 75.1172 55.8281 74.8555C56.6718 74 57.6601 74.9453 57.9453 75.7617C57.9531 75.793 57.9765 75.8086 57.996 75.8086C57.832 75.9258 57.7265 76.1094 57.7343 76.3242C57.164 75.9649 56.2343 76.9258 55.8593 77.3516C55.8515 76.707 55.9218 76.0859 56.2109 75.5C56.2656 75.3945 56.1289 75.3125 56.0625 75.4024C54.7578 77.2852 56.5429 79.7617 55.1992 81.6133C54.4804 80.9141 53.7734 79.5586 54.5937 78.7109C54.5937 78.7109 54.5937 78.7188 54.6015 78.7266C54.6836 78.8516 54.8984 78.7461 54.8164 78.6133C54.5781 78.2461 54.3242 77.8633 54.164 77.4414C54.2343 77.3672 54.1796 77.2774 54.1054 77.2461C54.082 77.1563 54.0586 77.0664 54.0468 76.9766C53.9921 76.6172 54.0312 76.1992 54.2343 75.8828L54.246 75.8984Z" fill="#EB1C24"/>
<path d="M51.2539 80.6133C51.5391 79.1992 52.9141 78.4414 53.9766 77.6133C54.1211 77.9531 54.3086 78.2656 54.5117 78.5742C53.543 79.3398 54.1484 81.0742 55.0039 81.7695C54.0977 82.1133 53.3242 82.8047 52.8164 83.6211C52.8008 83.6445 52.8086 83.668 52.8164 83.6914C52.7383 83.8242 52.7109 83.9609 52.7187 84.1016C51.8008 83.1563 50.9687 81.9961 51.2461 80.6211L51.2539 80.6133Z" fill="#EB1C24"/>
<path d="M45.0312 81.2305C44.9101 81.1992 44.9413 81.043 45.039 81.0117C47.1757 80.3242 49.5741 80.8086 51.203 82.3633C50.9999 81.875 50.9023 81.3594 50.9609 80.7969C51.1366 79.1524 52.6952 78.2617 53.8944 77.3516C53.7968 77.0391 53.7538 76.707 53.8124 76.3633C53.8788 76.0039 54.0507 75.6641 54.3437 75.4336C54.6679 75.1836 54.8788 75.2812 55.1913 75.1641C55.4921 75.0508 55.5741 74.7109 55.8359 74.5234C56.1132 74.3359 56.4765 74.2461 56.8124 74.3008C57.1483 74.3515 57.4335 74.5156 57.6444 74.7578C58.289 74.4492 59.0312 74.4805 59.5937 74.9375C60.4062 75.5977 60.5312 76.7461 61.3437 77.4414C61.9062 77.9219 62.3866 78.3711 62.3476 79.1758C62.3319 79.5273 62.203 80.0508 61.7929 80C62.1991 80.5391 62.414 81.2149 62.2812 81.8985C62.1913 82.3477 61.9491 82.8633 61.5663 83.1406C61.0585 83.5117 60.3163 83.1953 59.7734 83.0391C59.7734 83.0391 59.7733 83.0391 59.7655 83.0391C59.664 83.5391 59.1444 83.8398 58.6366 83.8164C58.4179 83.8086 58.2069 83.7422 58.0194 83.6523C58.0194 83.6836 57.996 83.711 57.9608 83.7266C57.4257 83.9219 56.9765 84.1172 56.5429 84.4922C56.2812 84.7187 56.0624 84.9961 55.7694 85.1836C55.5468 85.3242 55.2968 85.4219 55.0351 85.461C55.8358 85.9414 56.5194 86.6094 57.039 87.3867C57.3983 87.9336 58.1913 89.1875 57.789 89.8633C57.7577 89.9219 57.6601 89.8789 57.578 89.8555C57.1562 89.7344 56.953 89.2461 56.9101 89.1406C56.4062 88.0313 53.9491 87.7187 53.078 86.0078C52.914 85.6914 52.7343 85.168 52.7773 84.3789C52.621 85.3906 52.2069 85.8867 51.8984 86.1406C51.1132 86.7891 50.2421 86.5117 48.2773 86.8477C47.6913 86.9531 47.0468 86.8477 46.5155 87.125C46.5077 87.125 46.4609 87.1484 46.4257 87.1406C46.3359 87.1172 46.3046 86.9766 46.4023 86.9062C47.039 86.4727 47.5194 86.0664 47.953 85.4297C48.1366 85.168 48.3007 84.8985 48.5312 84.6641C48.8632 84.3438 49.2616 84.125 49.6952 84.0586C49.5663 83.9961 49.4413 83.9375 49.3202 83.8711C47.8202 83.0469 46.7616 81.6211 45.0312 81.2227V81.2305ZM51.3007 82.7617C49.7773 81.2148 47.5585 80.5625 45.4726 81.1094C47.8358 81.8672 49.5819 85.0547 52.2968 83.9297C51.953 83.5859 51.6444 83.2031 51.4062 82.7812C51.3671 82.7891 51.328 82.7812 51.3007 82.7617ZM55.1757 75.418C54.7812 75.4102 54.4726 75.5664 54.246 75.8985C54.039 76.2031 53.9999 76.6328 54.0585 76.9922C54.0741 77.082 54.0976 77.1719 54.121 77.2617C54.1952 77.293 54.246 77.3828 54.1796 77.457C54.3358 77.8789 54.5937 78.2617 54.8319 78.6289C54.9218 78.7617 54.703 78.8672 54.6132 78.7383C54.6132 78.7383 54.6132 78.7344 54.6093 78.7266C53.789 79.5742 54.496 80.9297 55.2148 81.6289C56.5585 79.7735 54.7733 77.293 56.078 75.418C56.1444 75.3203 56.2812 75.4102 56.2265 75.5156C55.9335 76.0937 55.8671 76.7227 55.8749 77.3672C56.2499 76.9414 57.1718 75.9805 57.7499 76.3398C57.7499 76.1211 57.8476 75.9414 58.0116 75.8242C57.9882 75.8242 57.9765 75.8008 57.9608 75.7773C57.6757 74.9609 56.6835 74.0156 55.8437 74.8711C55.5898 75.125 55.6796 75.2656 55.4179 75.4258C55.3437 75.4258 55.2655 75.4336 55.1913 75.4336L55.1757 75.418ZM53.9765 77.6133C52.914 78.4414 51.539 79.1992 51.2538 80.6133C50.9765 81.9883 51.8085 83.1484 52.7265 84.0937C52.7187 83.9609 52.7382 83.8164 52.8241 83.6836C52.8085 83.6602 52.8085 83.6367 52.8241 83.6133C53.3241 82.7969 54.1054 82.1094 55.0116 81.7617C54.1483 81.0742 53.5429 79.332 54.5155 78.5664C54.3241 78.2656 54.1288 77.9453 53.9843 77.6094L53.9765 77.6133ZM57.7109 76.5117C57.2382 76.1367 56.2421 77.2695 55.9569 77.5781C55.9335 77.6016 55.9062 77.6133 55.8827 77.6094C55.9413 79.0235 56.289 80.4805 55.3788 81.6406C55.5312 81.6055 55.6796 81.5742 55.828 81.5508C56.1093 81.5234 56.3905 81.5391 56.6835 81.5742C56.6835 81.5586 56.6835 81.5391 56.6835 81.5156C57.039 79.6406 59.1601 78.8438 59.496 76.9766C59.453 77.0586 59.3788 77.1406 59.2655 77.211C59.2421 77.2188 59.2265 77.2265 59.2109 77.2187C58.8984 77.6523 58.0116 76.9687 57.8476 76.6641C57.8163 76.6094 57.8007 76.5664 57.789 76.5195C57.7655 76.5274 57.7421 76.5273 57.7187 76.5117H57.7109ZM57.7968 74.9687C57.9452 75.1914 58.0429 75.461 58.0859 75.7344C58.0859 75.7383 58.0859 75.7539 58.0859 75.7617C58.2812 75.6641 58.539 75.6406 58.7851 75.7461C59.1288 75.8906 59.5507 76.3398 59.5585 76.7383C59.5937 76.7148 59.6484 76.7148 59.6562 76.7734C59.6757 77.0234 59.664 77.2539 59.6171 77.4727C60.164 77.8008 60.4648 78.3867 60.4491 78.9961C60.9374 79.1758 61.3866 79.4961 61.7187 79.9102C62.2655 79.8203 62.121 78.8437 61.9804 78.5156C61.8163 78.1406 61.5077 77.9219 61.2069 77.668C60.953 77.4492 60.7109 77.2383 60.5234 76.9531C59.8437 75.9258 59.3983 74.2773 57.7968 74.9687ZM58.9257 76.0312C58.6132 75.7852 57.9452 75.7383 57.9608 76.3086C57.9687 76.6563 58.3632 76.9609 58.664 77.0742C58.8241 77.1367 59.0546 77.1875 59.0624 76.8711C59.0624 76.7735 58.453 76.2344 58.3866 76.5508C58.371 76.6172 58.2655 76.5937 58.2655 76.5273C58.289 75.9883 59.3007 76.4297 59.2968 76.9531C59.5507 76.6641 59.1601 76.2109 58.9257 76.0312ZM50.1757 84.2891C49.1015 84.1992 48.578 84.9883 48.0312 85.7617C47.7968 86.0898 47.5116 86.3672 47.203 86.6133C47.8437 86.4727 48.5038 86.4883 49.1718 86.4492C50.5116 86.3672 51.8398 85.9024 52.3866 84.6641C52.4179 84.5391 52.4491 84.418 52.4765 84.2969C52.4843 84.2617 52.5077 84.2461 52.539 84.2305C52.539 84.2149 52.5468 84.1992 52.5507 84.1836C52.4999 84.1328 52.4491 84.0859 52.3944 84.0352C51.7499 84.4531 50.9765 84.461 50.2655 84.2656C50.2421 84.2891 50.2109 84.2969 50.1757 84.2969V84.2891ZM54.6015 82.2812C54.0663 82.5586 53.578 82.9531 53.1288 83.4492C53.1523 83.4727 53.1601 83.5039 53.1288 83.5312C52.8749 83.8789 52.8984 84.1836 53.0702 84.4414C53.0702 84.4414 53.0858 84.4492 53.0858 84.4531C53.0937 84.461 53.1015 84.4765 53.1015 84.4844C53.3983 84.875 54.0233 85.1289 54.4257 85.1992C54.4569 85.1758 54.5038 85.168 54.5468 85.1992C54.5624 85.1992 54.578 85.2109 54.5937 85.2187C55.1562 85.2422 55.5741 85.0234 55.9882 84.6562C56.5507 84.1484 57.0741 83.7265 57.8163 83.5469C57.6015 83.414 57.4062 83.2344 57.246 83.0391C57.1405 83.3164 56.746 83.4649 56.4608 83.4336C55.6952 83.3516 55.3358 82.4766 54.6015 82.2969V82.2812ZM58.8671 80.6016C60.0898 79.9844 60.7265 78.7461 59.5507 77.6992C59.0702 79.1367 57.203 80.0391 56.9179 81.5977C56.9179 81.6055 56.9179 81.6133 56.9101 81.6211C57.0077 81.6367 57.1054 81.6562 57.2108 81.6797C57.6601 81.1484 58.2655 80.8984 58.8749 80.6016H58.8671ZM52.8163 84.4102C52.8163 84.4102 52.7929 84.3867 52.7851 84.3789C53.0038 87.0781 56.578 87.2617 57.6757 89.4414C57.7265 88.6836 56.828 87.4531 56.4687 87.0117C55.9491 86.3672 55.3124 85.8789 54.6015 85.4766C54.5038 85.4766 54.4062 85.4609 54.3085 85.4453C53.8046 85.3555 53.0702 84.9219 52.8241 84.4023L52.8163 84.4102ZM57.3827 81.9805C56.4452 81.7539 55.6288 81.8281 54.8905 82.1367C55.1093 82.2187 55.2968 82.3555 55.4765 82.5195C55.6952 82.707 55.8827 82.9336 56.1288 83.0742C56.4062 83.2344 57.0312 83.2617 57.121 82.8633C57.0819 82.8125 57.0507 82.7656 57.0155 82.7148C56.9491 82.6094 57.1132 82.5039 57.1952 82.5937C57.539 82.9531 57.8398 83.3594 58.3437 83.5156C58.8905 83.6836 59.4296 83.4492 59.6093 82.8945C59.6249 82.8438 59.6757 82.8281 59.7226 82.8437C59.7538 82.8125 59.789 82.7969 59.8358 82.8125C60.4569 82.9531 61.1327 83.2852 61.6366 82.6758C61.9062 82.3555 62.039 81.9062 62.0468 81.4844C62.0702 80.4805 61.2382 79.6406 60.4257 79.1602C60.4062 79.3633 60.3358 79.5742 60.2343 79.7617C59.6562 80.8242 58.246 80.9883 57.3515 81.7187C58.4687 81.9726 59.6015 82.332 60.5038 81.4531C60.621 81.3438 60.7734 81.5234 60.6757 81.6367C59.8124 82.6094 58.4765 82.25 57.3827 81.9805Z" fill="black" stroke="black" stroke-width="0.1875" stroke-linecap="round" stroke-linejoin="round"/>
<path d="M75.0821 129.02C77.3555 128.227 80.754 127.109 84.961 126.035C91.4259 124.379 101.438 121.887 113.934 122.789C122.477 123.402 126.914 125.219 130.305 127.594C131.887 128.703 133.059 129.809 133.817 130.578C133.949 131.383 134.234 133.684 132.906 135.906C132.422 136.723 131.836 137.316 131.348 137.727C131.399 139.012 131.242 140.129 130.957 141.102C128.039 151.227 110.203 153.191 108.996 153.313C107.152 150.176 105.309 147.051 103.461 143.914C100.801 148.934 98.1446 154.977 96.0665 162.012C95.2735 164.719 94.629 167.324 94.1173 169.805C89.3087 172.023 83.3907 175.445 77.5509 180.719C75.2188 182.824 73.2149 184.941 71.504 186.957C68.5196 180.98 65.5274 175.004 62.543 169.023C62.3477 154.926 62.1524 140.832 61.9571 126.734C60.9298 127.16 59.461 127.633 57.6368 127.773C54.6681 128 52.3204 127.199 51.0743 126.664C50.6016 123.184 50.9102 120.344 51.3009 118.371C51.7423 116.129 52.0782 114.453 53.3868 112.699C53.7813 112.168 56.1524 109.078 60.3985 108.606C62.7735 108.344 64.6954 109.004 65.7618 109.484C65.7149 109.551 65.0157 110.563 64.9727 110.629C64.8907 110.75 63.9962 112.047 63.922 112.168C64.254 112.551 64.6642 113.031 65.129 113.586C65.129 113.586 66.0743 114.734 66.9844 115.91C70.4688 120.469 73.0938 124.949 75.0899 128.996L75.0821 129.02Z" stroke="black" stroke-width="0.5625" stroke-linecap="round" stroke-linejoin="round"/>
<path d="M75.0898 129.02C75.4883 127.992 76.2461 126.453 77.707 125.039C78.3281 124.43 78.9531 123.973 79.5078 123.629" stroke="black" stroke-width="0.5625" stroke-linecap="round" stroke-linejoin="round"/>
<path d="M65.7656 109.496C66.7891 108.281 68.3985 106.754 70.7188 106.031C73.4531 105.184 74.7656 106.219 78.336 105.793C80.0156 105.59 83.3477 105.191 85.6406 102.965C89.1133 99.5977 88.2383 93.9727 88.0781 93.0273" stroke="black" stroke-width="0.5625" stroke-linecap="round" stroke-linejoin="round"/>
<path d="M103.605 86.5312C104.316 96.4609 107.656 101.93 110.684 105.109C113.602 108.176 118.32 111.305 119.844 112.316C125.91 116.344 129.668 117.539 131.078 121.414C131.934 123.77 131.543 126.066 131.145 127.52" stroke="black" stroke-width="0.5625" stroke-linecap="round" stroke-linejoin="round"/>
<path d="M87.3672 102.191C88.207 101.195 89.2578 100.16 90.5469 99.2071C96.1484 95.0743 102.594 95.2539 105.219 95.4883C105.023 94.7891 104.836 94.1016 104.641 93.4024C105.262 93.3047 106.164 93.2618 107.047 93.6875C108.602 94.4297 109.172 96.1016 109.934 98.5235C110.82 101.316 111.262 102.711 110.828 103.656C109.875 105.719 106.363 105.836 101.004 105.957C96.3008 106.063 88.4023 106.242 87.4258 103.227C87.2929 102.816 87.3242 102.441 87.3594 102.184L87.3672 102.191Z" fill="white" stroke="black" stroke-width="0.5625" stroke-linecap="round" stroke-linejoin="round"/>
<path d="M87.6015 101.496C87.7499 100.73 87.8789 99.9219 87.9882 99.0664C88.1718 97.6563 88.2617 96.3281 88.289 95.1055C87.8867 95.1406 87.1874 95.2695 86.4882 95.7266C84.5039 97.0391 84.6914 99.7109 84.7031 99.8516C84.8086 101 85.3945 102.688 86.2656 102.711C86.9101 102.727 87.4257 101.824 87.6015 101.496Z" fill="white" stroke="black" stroke-width="0.5625" stroke-linecap="round" stroke-linejoin="round"/>
<path d="M103.461 143.922C102.203 141.703 100.785 138.523 100.164 134.523C99.9375 133.078 99.8477 131.734 99.832 130.52C101.617 129.273 104.469 127.691 108.211 127.145C118.094 125.699 125.477 132.734 126.531 133.773C127.379 133.859 130.066 134 132.316 132.215C132.984 131.684 133.461 131.105 133.809 130.586" stroke="black" stroke-width="0.5625" stroke-linecap="round" stroke-linejoin="round"/>
<path d="M99.8398 130.52C102.766 130.73 107.992 131.504 113.484 134.742C117.129 136.895 119.664 139.406 121.273 141.305C123.023 141.027 125.137 140.523 127.449 139.617C128.941 139.023 130.238 138.371 131.348 137.734C131.887 137.262 133.172 136.016 133.711 133.953C134.094 132.508 133.949 131.277 133.816 130.586C133.363 131.211 131.953 132.973 129.465 133.609C128.273 133.918 127.238 133.863 126.531 133.766C125.535 132.734 119.191 126.344 109.859 126.973C105.098 127.297 101.602 129.305 99.832 130.512L99.8398 130.52Z" fill="#EB1C24" stroke="black" stroke-width="0.5625" stroke-linecap="round" stroke-linejoin="round"/>
<path d="M99.8399 130.52C98.0469 130.961 95.4219 131.824 92.7617 133.672C84.711 139.242 84.0234 148.461 78.5313 164.172C77.0039 168.547 74.6641 174.68 71.2266 181.91C72.8867 180.027 75.0899 177.371 77.4688 174.02C79.9961 170.449 82.4844 166.934 84.5781 162.133C86.7149 157.242 85.6641 157.387 88.7696 148.781C90.5625 143.809 92.0117 140.219 95.3906 137.676C97.2735 136.258 99.1641 135.641 100.313 135.352C100.156 133.746 100.004 132.141 99.8477 130.527L99.8399 130.52Z" fill="#EB1C24" stroke="black" stroke-width="0.5625" stroke-linecap="round" stroke-linejoin="round"/>
<path d="M61.9648 126.746C62.0117 126.719 62.6992 126.32 62.7461 126.289C62.7891 126.262 63.4805 125.863 63.5234 125.832C63.5781 130.895 63.8164 134.988 64.0117 137.652C64.8984 149.809 66.8086 159.672 69.6992 174.359C70.3438 177.637 70.8906 180.281 71.2265 181.895C69.2383 177.066 67.2812 171.426 65.6719 165.035C63.5547 156.621 62.5781 148.984 62.1836 142.574C62.1094 137.293 62.0391 132.02 61.9648 126.738V126.746Z" fill="#EB1C24" stroke="black" stroke-width="0.5625" stroke-linecap="round" stroke-linejoin="round"/>
<path d="M63.5234 125.84C61.3125 123.836 58.9336 121.422 56.5742 118.535C55.1914 116.848 53.9766 115.191 52.9141 113.613" stroke="black" stroke-width="0.5625" stroke-linecap="round" stroke-linejoin="round"/>
<path d="M63.5234 125.84C61.7109 124.199 59.7461 122.238 57.7656 119.953C55.8516 117.738 54.2461 115.586 52.9141 113.613C53.2969 113.051 53.7891 112.406 54.4219 111.754C55.1406 111.004 55.8437 110.434 56.4609 110C58.8164 115.289 61.1719 120.566 63.5234 125.855V125.84Z" fill="#EB1C24" stroke="black" stroke-width="0.5625" stroke-linecap="round" stroke-linejoin="round"/>
<path d="M75.0898 129.02C74.0703 139.691 73.1914 150.648 72.4961 161.891C72.082 168.484 71.7461 174.98 71.4688 181.391" stroke="black" stroke-width="0.5625" stroke-linecap="round" stroke-linejoin="round"/>
<path d="M62.5195 167C57.5703 170.441 51.4649 175.453 45.5938 182.504C41.7735 187.086 38.8789 191.539 36.6914 195.449" stroke="black" stroke-width="0.5625" stroke-linecap="round" stroke-linejoin="round"/>
<path d="M94.8359 166.852C100.156 168.305 112.387 172.52 119.52 184.113C120.801 186.199 121.77 188.277 122.496 190.273" stroke="black" stroke-width="0.5625" stroke-linecap="round" stroke-linejoin="round"/>
<path d="M75.9609 64.3086C74.9843 67.2891 75.1484 69.5 75.5038 71.0156C75.9843 73.0469 76.7851 73.625 76.6288 75.3945C76.453 77.3828 75.2343 79.2812 74.6757 80.1211C73.6562 81.6719 72.914 82.2266 73.1171 82.8945C73.3593 83.6992 74.7655 83.9883 75.9843 84.1093C76.2812 84.5898 78.0312 87.4492 78.4257 89.7031C78.6523 90.9961 78.7734 91.6406 78.7187 92.1367C78.6679 92.6679 78.5312 93.1406 78.7968 93.6484C79.0273 94.1015 79.4413 94.3554 79.5898 94.4453C79.5898 94.4453 80.0468 94.7226 80.6405 94.8047C83.8788 95.2617 88.1249 92.7734 88.1249 92.7734C90.8163 90.6641 93.5038 88.5586 96.1952 86.457" stroke="black" stroke-width="0.5625" stroke-linecap="round" stroke-linejoin="round"/>
<path d="M75.2265 68.3437C75.246 67.6484 75.328 66.8437 75.5038 65.9766C75.6015 65.4883 75.7187 65.0312 75.8554 64.6172C76.8827 64.1602 78.4648 63.6563 80.1523 64.0859C82.664 64.7227 83.3241 66.875 85.9257 68.4805C87.2187 69.2735 89.2421 70.0859 92.3632 69.9727C90.6601 72.9648 90.8007 74.5117 91.3202 75.3633C92.0468 76.5742 93.6445 76.6328 94.0859 77.9844C94.4179 78.9727 93.9218 80.0234 93.4648 80.7578C94.1835 80.5859 95.1523 80.2344 95.5273 79.4219C96.1718 78.0351 94.5312 76.5781 95.0702 75.2617C95.3241 74.6367 96.1288 73.918 98.6327 73.6719C99.6679 71.9375 101.355 71.0156 102.84 71.3242C103.019 71.3594 103.934 71.5469 104.476 72.3125C105.48 73.7383 104.371 76.1015 103.898 77.1133C103.508 77.9531 103.066 78.582 102.742 79.0039C103.043 81.7188 103.344 84.4336 103.641 87.1484C103.754 88.0703 104.559 88.6016 105.164 88.4531C105.586 88.3477 105.93 87.9141 106.019 87.3711C105.758 87.6211 105.398 87.7266 105.113 87.6211C104.691 87.4609 104.437 86.8711 104.684 86.293C105.164 85.9102 105.914 85.3242 106.851 84.6484C113.121 80.1054 116.559 79.4453 117.316 76.5937C117.504 75.875 117.629 74.6602 116.859 72.8906C118.035 72.6406 120.523 71.9297 121.988 69.7383C124.492 65.9961 122.301 60.4844 119.16 57.8008C118.363 57.1172 116.316 55.3711 113.543 55.6719C110.871 55.9609 108.523 58.0312 107.437 60.9961C106.141 60.3945 83.9609 50.3906 76.6718 58.5781C76.0781 59.2461 75.5546 60.0664 75.1562 61.0781C72.8984 62.2383 71.9609 64.6016 72.6601 66.2812C73.2734 67.7656 74.953 68.2539 75.2265 68.3281V68.3437Z" fill="black" stroke="black" stroke-width="0.5625" stroke-linecap="round" stroke-linejoin="round"/>
<path d="M98.9844 79.9492C99.082 80.1797 99.3828 80.832 99.9688 80.9687C100.547 81.1015 101.078 80.6523 101.746 80.0586C102.211 79.6563 102.848 78.9961 103.426 77.9961" stroke="black" stroke-width="0.5625" stroke-linecap="round" stroke-linejoin="round"/>
<path d="M85.1094 55.3164L85.6406 42.207C86.0938 44.3594 87.6524 46.1015 89.6836 46.6914C92.1094 47.3984 94.8086 46.3633 96.2617 44.1133C95.5351 46.6992 96.7656 49.4218 99.0898 50.5468C101.578 51.7539 104.707 50.8086 106.172 48.3281C106.125 48.5898 105.629 51.5898 107.559 53.4062C109.523 55.25 113.266 55.1836 115.891 52.6484C115.102 53.6602 114.324 54.6719 113.535 55.6836" stroke="black" stroke-width="0.5625" stroke-linecap="round" stroke-linejoin="round"/>
<path d="M67.3516 116.18C68.1602 116.047 69.082 115.844 70.0781 115.527C71.2734 115.145 72.3008 114.695 73.1328 114.262" stroke="black" stroke-width="0.5625" stroke-linecap="round" stroke-linejoin="round"/>
<path d="M70.0859 115.527C70.1016 115.109 70.1719 114.461 70.4609 113.734C70.7031 113.141 71.0117 112.691 71.2578 112.391" stroke="black" stroke-width="0.5625" stroke-linecap="round" stroke-linejoin="round"/>
<path d="M70.1172 115.063C70.0352 114.777 69.9297 114.469 69.7969 114.148C69.6016 113.676 69.375 113.27 69.1641 112.934" stroke="black" stroke-width="0.5625" stroke-linecap="round" stroke-linejoin="round"/>
<path d="M108.488 122.602C108.285 121.863 108.082 121.129 107.879 120.395" stroke="black" stroke-width="0.5625" stroke-linecap="round" stroke-linejoin="round"/>
<path d="M99.3008 77.7734C99.0977 78.125 99.2696 78.6953 99.6094 79.0039C99.7031 79.0937 99.8633 79.2343 100.074 79.25C100.754 79.3008 101.332 77.9961 101.543 77.3164C101.73 76.7148 101.871 76.25 101.602 75.8672C101.324 75.4765 100.777 75.3711 100.379 75.4687C100.172 75.5234 99.8242 75.6718 99.8086 75.875C99.7969 76.0781 100.117 76.1211 100.238 76.4609C100.32 76.6914 100.262 76.9609 100.156 77.1406C99.9141 77.5547 99.5039 77.4218 99.3008 77.7656V77.7734Z" fill="black"/>
<path d="M100.629 73.6094C101.109 72.8985 101.844 72.5586 102.426 72.7383C102.93 72.8907 103.172 73.379 103.254 73.543C103.664 74.3829 103.359 75.2735 103.207 75.7344C102.57 77.6016 100.836 78.6055 100.184 78.9414" stroke="black" stroke-width="0.5625" stroke-linecap="round" stroke-linejoin="round"/>
<path d="M75.9883 84.1172C76.6055 84.207 77.1211 84.2539 77.4883 84.2734C78.0508 84.3125 78.2109 84.2969 78.3672 84.1914C78.7266 83.9609 78.9531 83.3672 78.7109 82.8946C78.5391 82.5508 78.1953 82.4297 78.1055 82.3984" stroke="black" stroke-width="0.5625" stroke-linecap="round" stroke-linejoin="round"/>
<path d="M75.1641 61.0938C75.0664 61.3984 74.7149 62.5938 75.336 63.7383C75.5391 64.1211 75.8008 64.3985 76.0196 64.5938" stroke="black" stroke-width="0.5625" stroke-linecap="round" stroke-linejoin="round"/>
<path d="M93.4726 80.75C93.0155 80.9688 92.7382 81.3047 92.7616 81.6211C92.7616 81.664 92.7733 81.7461 92.828 81.8281C93.0585 82.1914 93.703 81.9336 93.9609 82.2578C94.0937 82.4297 94.0585 82.6718 94.0429 82.7617C93.953 83.3008 93.3515 83.3984 93.203 83.9844C93.1562 84.1641 93.1718 84.3203 93.1796 84.418" stroke="black" stroke-width="0.5625" stroke-linecap="round" stroke-linejoin="round"/>
<path d="M84.3242 106.887C84.246 106.797 83.121 105.273 83.7734 103.602C84.1484 102.656 84.8906 102.172 85.1757 102.012C85.2226 100.387 86.4687 99.4024 87.3007 99.5391C88.0585 99.6641 88.8281 100.773 88.6406 102.172C90.0078 102.477 90.9375 103.746 90.832 105.102C90.7343 106.406 89.707 107.48 88.3789 107.652C88.289 108.973 87.0742 109.887 85.9218 109.684C84.75 109.484 83.9179 108.172 84.3164 106.887H84.3242Z" fill="white" stroke="black" stroke-width="0.5625" stroke-linecap="round" stroke-linejoin="round"/>
<path d="M86.9336 102.109C87.7578 102.395 87.6992 104.473 87.6836 104.801C87.6601 105.508 87.6133 107.141 86.7304 107.523C86.3906 107.668 85.9804 107.621 85.6718 107.414C84.5039 106.625 84.6914 103.281 86.1094 102.32C86.2344 102.238 86.5937 101.988 86.9414 102.109H86.9336Z" fill="#EB1C24" stroke="black" stroke-width="0.5625" stroke-linecap="round" stroke-linejoin="round"/>
<path d="M85.8086 109.664C85.6367 110.516 85.4531 111.363 85.2812 112.219L85.8086 109.664Z" fill="#EB1C24"/>
<path d="M85.8086 109.664C85.6367 110.516 85.4531 111.363 85.2812 112.219" stroke="black" stroke-width="0.5625" stroke-linecap="round" stroke-linejoin="round"/>
<path d="M86.7657 115.16C86.3986 114.004 85.9142 112.828 85.7384 112.242C85.6134 111.809 85.5314 111.477 85.5001 111.344C85.5001 111.328 85.5001 111.32 85.4923 111.305C85.4845 111.305 85.4689 111.32 85.461 111.32C85.3439 111.395 85.0587 111.566 84.6603 111.793C84.129 112.094 82.9493 112.586 81.8868 113.148C80.8126 113.711 80.4063 114.551 80.2501 115.316C80.0938 116.082 80.4962 117.035 81.629 117.328C81.9845 117.418 82.3048 117.344 82.5665 117.199C82.0353 118.16 81.3243 118.484 81.3243 118.484L83.3907 119.328C83.2032 118.715 83.3399 118.004 83.461 117.574C83.5509 117.867 83.7228 118.137 84.0392 118.316C85.0431 118.902 86.004 118.512 86.4298 117.852C86.8595 117.191 87.1485 116.316 86.7814 115.16H86.7657Z" fill="#292929" stroke="black" stroke-width="0.5625" stroke-linecap="round" stroke-linejoin="round"/>
<path d="M90.4219 103.453C95.6562 102.305 99.5039 102.402 102.195 102.77C102.195 102.77 107.625 103.512 109.621 101.668C109.836 101.465 110.004 101.254 110.121 101.051C110.121 101.051 110.324 100.723 110.437 100.316C110.602 99.7266 110.137 97.9102 108.922 95.7344C109.141 96.2461 109.102 96.5977 109.035 96.8282C108.383 98.9063 102.547 97.7227 96.3008 99.7188C93.4883 100.617 91.3594 101.914 89.9766 102.891C90.1289 103.078 90.2773 103.266 90.4258 103.453H90.4219Z" fill="#EB1C24" stroke="black" stroke-width="0.5625" stroke-linecap="round" stroke-linejoin="round"/>
<path d="M78.0156 72.6133C77.9922 72.8281 78.0469 73.0938 78.1797 73.2578C78.5391 73.6914 79.2969 73.2266 80.1602 72.9141C81.5938 72.3867 82.8359 72.4492 83.9258 72.5C85.4844 72.5742 86.4609 73.0117 86.4961 72.8281C86.5352 72.6406 85.5508 72.0508 84.6133 71.668C82.6641 70.8711 81.0977 71.0742 80.3906 71.2188C79.7539 71.3438 78.1133 71.6836 78.0078 72.6211L78.0156 72.6133Z" fill="black"/>
<path d="M77.3905 86.3984C77.4882 86.3984 77.6484 86.3984 77.828 86.4219C78.7655 86.5234 79.2655 86.9218 79.8163 87.1328C80.2343 87.289 80.8945 87.4102 81.8632 87.1836C81.1484 87.6797 80.4374 88.1992 79.7108 88.7383C79.2733 89.0586 78.8476 89.3906 78.4257 89.7109C78.2694 89.6523 77.953 89.5156 77.746 89.2109C77.4296 88.7617 77.4452 88.1445 77.7655 87.6133C77.2421 87.4609 76.9569 87.0664 77.0312 86.7734C77.0859 86.5625 77.2968 86.4414 77.3788 86.4062L77.3905 86.3984Z" fill="#EB1C24" stroke="black" stroke-width="0.5625" stroke-linecap="round" stroke-linejoin="round"/>
<path d="M53.2656 127.738C51.9688 130.227 50.6719 132.719 49.3711 135.199C46.9258 129.828 44.4883 124.453 42.0469 119.082" stroke="black" stroke-width="0.5625" stroke-linecap="round" stroke-linejoin="round"/>
<path d="M49.3711 135.199C50.4687 137.512 51.5703 139.82 52.6641 142.129" stroke="black" stroke-width="0.5625" stroke-linecap="round" stroke-linejoin="round"/>
<path d="M108.336 62C108.426 62.4219 104.961 63.8164 101.289 64.3554C101.289 64.3554 95.5195 65.1797 90.8008 63.2656C90.5391 63.164 90.8242 63.2656 85.4922 60.7265C83.4766 59.7656 82.4258 59.3672 81.3164 59.3164C80.543 59.2773 78.0312 59.3359 75.0898 62.6836C75.3594 62.0234 76.6797 58.9765 79.9336 57.7265C81.75 57.0273 83.3398 57.1992 83.6914 57.2461C85.7773 57.5078 87.1133 58.5937 88.0508 59.2382C90.9375 61.2265 93.8789 61.6719 97.9141 62.2695C103.98 63.1719 108.234 61.5429 108.336 62.0078V62Z" stroke="white" stroke-width="0.5625" stroke-linecap="round" stroke-linejoin="round"/>
<path d="M75.3282 59.2539C75.1407 59.6992 74.6485 61.0469 75.0821 62.6836C75.3907 63.836 76.0352 64.6016 76.379 64.9609C76.6407 64.4687 77.1212 63.7344 77.9532 63.125C80.3243 61.3867 83.3165 62.3516 83.7149 62.4883C84.2696 62.6758 84.6915 62.8984 85.0274 63.1562C86.6993 64.3906 87.547 65.5938 88.0274 66.1641C90.5157 69.1406 96.6212 64.586 102.426 67.6016C104.484 68.668 105.977 70.4141 107.121 69.8008C108.098 69.2734 108.024 67.4844 109.613 66.6953C110.055 66.4766 110.484 66.4102 110.762 66.3867" stroke="white" stroke-width="0.5625" stroke-linecap="round" stroke-linejoin="round"/>
<path d="M104.445 81.3515C104.566 81.043 104.805 80.5156 105.246 79.9922C107.211 77.6445 110.348 78.6211 112.875 76.9922C113.879 76.3476 115.164 75.043 115.898 72.125" stroke="white" stroke-width="0.5625" stroke-linecap="round" stroke-linejoin="round"/>
<path d="M115.941 61.8125C116.25 62.3008 116.535 62.9063 116.699 63.629C116.828 64.1915 116.91 64.5782 116.699 64.8047C116.387 65.1407 115.484 65 115.004 64.5118C114.422 63.9141 114.816 63.1172 114.324 62.7813C113.746 62.3906 112.461 62.7813 112.254 63.4024C111.734 64.9024 116.879 69.1485 118.754 68.0899C120.457 67.1289 120.246 61.3477 116.992 58.8047C115.59 57.711 113.094 56.7969 111 57.836C110.754 57.957 109.109 58.8125 108.645 60.5899C107.754 63.9727 111.887 67.8516 115.434 71.1797C116.496 72.1758 117.414 72.9336 117.988 73.3907" stroke="white" stroke-width="0.5625" stroke-linecap="round" stroke-linejoin="round"/>
<path d="M95.953 77.2617C94.3359 76.7891 93.1952 75.6875 93.0741 74.4571C92.953 73.2657 93.8476 72.336 94.4023 71.7735C96.0233 70.1016 99.203 68.5469 102.051 69.5C104.363 70.2735 105.359 72.6406 107.578 72.5312C107.844 72.5156 108.156 72.4922 108.488 72.3047C109.461 71.7344 109.262 70.4297 110.078 68.8164C110.301 68.375 110.683 67.7539 111.344 67.0938" stroke="white" stroke-width="0.5625" stroke-linecap="round" stroke-linejoin="round"/>
<path d="M89.6328 177.426C92.2031 179.57 94.793 181.699 97.3633 183.844C99.6367 183.117 101.43 182.148 102.891 180.77C105.156 178.625 108.18 174.371 109.02 173.203C109.02 173.203 110.586 171.352 111.719 169.145C115.23 162.289 118.629 154.691 120.441 150.551C116.625 151.477 112.816 152.398 109.004 153.32C108.016 151.656 107.023 149.984 106.043 148.297C105.27 146.977 104.504 145.664 103.746 144.352C102.66 148.023 101.566 151.707 100.453 155.406C99.2539 159.402 98.0547 163.379 96.8398 167.336C92.8633 169.152 88.8086 171.117 84.6914 173.234C86.332 174.641 87.9765 176.047 89.6406 177.434L89.6328 177.426Z" fill="white" stroke="black" stroke-width="0.5625" stroke-linecap="round" stroke-linejoin="round"/>
<path d="M62.3398 154.012C61.2969 151.543 60.2461 149.074 59.2031 146.613C58.2734 148.578 56.8437 151.047 54.6367 153.523C53.4609 154.844 52.2813 155.914 51.1953 156.793C52.3281 162.273 53.4609 167.758 54.5938 173.238C57.2344 171.164 59.8789 169.086 62.5195 167.008C62.4609 162.68 62.3984 158.344 62.3398 154.016V154.012Z" fill="black" stroke="black" stroke-width="0.5625" stroke-linecap="round" stroke-linejoin="round"/>
<path d="M49.7539 134.473C49.9336 134.523 50.2187 134.621 50.543 134.797C53.5039 136.371 53.7656 141.199 53.8867 143.105C54.6836 155.375 54.75 167.699 56.0117 179.922C56.1758 181.519 56.6406 185.367 54.3164 188C53.1211 189.352 51.6094 189.926 50.6641 190.199C51.0078 189.281 51.0312 188.652 50.7305 188.293C50.0469 187.488 47.6914 188.113 43.6875 190.16C44.6563 187.242 45.9063 182.613 46.2383 176.84C46.5977 170.523 45.5234 168.492 45.8086 161.391C46.0781 154.648 47.1602 153.508 47.7461 147.215C48.1406 142.887 48.2695 136.543 46.7344 128.586C47.3555 128.48 47.7383 128.652 47.9024 128.742C48.7578 129.215 49.1484 130.574 48.6836 132.059C48.7891 132.547 48.9688 133.152 49.3203 133.797C49.461 134.051 49.6133 134.285 49.7539 134.488V134.473Z" fill="black" stroke="black" stroke-width="0.5625" stroke-linecap="round" stroke-linejoin="round"/>
<path d="M74.1758 139.316C74.3906 138.59 75.375 135.621 78.4336 133.797C82.3203 131.481 86.3242 132.934 86.8438 133.129C85.0742 133.684 83.1133 134.414 81.0312 135.387C78.3281 136.649 76.043 138.027 74.1836 139.316H74.1758Z" stroke="black" stroke-width="0.5625" stroke-linecap="round" stroke-linejoin="round"/>
<path d="M73.6953 146.75C73.8672 146.18 74.625 143.887 76.9961 142.477C80.0039 140.684 83.1094 141.809 83.5117 141.957C82.1406 142.387 80.6172 142.953 79.0039 143.703C76.9141 144.68 75.1406 145.754 73.6953 146.75Z" stroke="black" stroke-width="0.5625" stroke-linecap="round" stroke-linejoin="round"/>
<path d="M73.207 153.043C73.3438 152.602 73.9336 150.801 75.7969 149.691C78.1563 148.289 80.586 149.164 80.9024 149.285C79.8281 149.621 78.6367 150.066 77.3711 150.656C75.7266 151.422 74.3398 152.262 73.207 153.051V153.043Z" stroke="black" stroke-width="0.5625" stroke-linecap="round" stroke-linejoin="round"/>
<path d="M72.8867 158.481C72.9883 158.129 73.4609 156.695 74.9414 155.816C76.8164 154.699 78.7422 155.398 78.9883 155.496C78.1367 155.766 77.1914 156.117 76.1836 156.582C74.8789 157.191 73.7852 157.859 72.8867 158.481Z" stroke="black" stroke-width="0.5625" stroke-linecap="round" stroke-linejoin="round"/>
<path d="M72.711 163.191C72.7969 162.914 73.1641 161.801 74.3086 161.121C75.7656 160.25 77.2734 160.797 77.4609 160.871C76.8008 161.082 76.0586 161.352 75.2774 161.719C74.2656 162.191 73.4102 162.711 72.7031 163.199L72.711 163.191Z" stroke="black" stroke-width="0.5625" stroke-linecap="round" stroke-linejoin="round"/>
<path d="M72.3164 167.594C72.3906 167.352 72.711 166.379 73.7188 165.777C75 165.012 76.3203 165.492 76.4844 165.559C75.8985 165.738 75.2539 165.98 74.5742 166.301C73.6797 166.715 72.9297 167.172 72.3164 167.602V167.594Z" stroke="black" stroke-width="0.5625" stroke-linecap="round" stroke-linejoin="round"/>
<path d="M72.1641 171.477C72.2187 171.289 72.4727 170.539 73.2461 170.074C74.2344 169.484 75.2539 169.859 75.3828 169.902C74.9336 170.047 74.4297 170.234 73.9063 170.48C73.2149 170.801 72.6367 171.156 72.1562 171.477H72.1641Z" stroke="black" stroke-width="0.5625" stroke-linecap="round" stroke-linejoin="round"/>
<path d="M74.1758 139.203C74.1602 138.441 74.0312 135.328 72.3438 132.816C70.1992 129.629 67.3281 130.063 66.9531 130.121C68.0156 131.09 69.1719 132.273 70.3711 133.723C71.9258 135.606 73.1758 137.496 74.1758 139.199V139.203Z" stroke="black" stroke-width="0.5625" stroke-linecap="round" stroke-linejoin="round"/>
<path d="M73.2735 146.613C73.2227 146.031 72.9453 143.629 71.5039 141.777C69.668 139.43 67.4687 139.934 67.1836 140C68.0625 140.691 69.0235 141.539 70.0274 142.594C71.332 143.961 72.4063 145.355 73.2735 146.613Z" stroke="black" stroke-width="0.5625" stroke-linecap="round" stroke-linejoin="round"/>
<path d="M73.0039 153.043C72.9531 152.586 72.6992 150.703 71.5352 149.285C70.0586 147.477 68.3398 147.906 68.1211 147.965C68.8203 148.488 69.5859 149.141 70.3945 149.945C71.4375 150.996 72.3086 152.067 73.0039 153.043Z" stroke="black" stroke-width="0.5625" stroke-linecap="round" stroke-linejoin="round"/>
<path d="M72.6524 158.481C72.5859 158.121 72.2617 156.648 71.2578 155.602C69.9766 154.266 68.6484 154.707 68.4766 154.766C69.0586 155.137 69.7031 155.609 70.3945 156.191C71.2891 156.957 72.0391 157.754 72.6524 158.481Z" stroke="black" stroke-width="0.5625" stroke-linecap="round" stroke-linejoin="round"/>
<path d="M72.4141 163.192C72.375 162.906 72.1875 161.75 71.4531 160.895C70.5156 159.801 69.4648 160.094 69.3281 160.129C69.7656 160.445 70.2539 160.836 70.7617 161.324C71.4219 161.953 71.9687 162.606 72.4219 163.199L72.4141 163.192Z" stroke="black" stroke-width="0.5625" stroke-linecap="round" stroke-linejoin="round"/>
<path d="M72.082 167.594C72.0469 167.344 71.8633 166.332 71.2031 165.59C70.3633 164.644 69.4414 164.914 69.3242 164.953C69.7109 165.223 70.1406 165.559 70.5976 165.98C71.1914 166.527 71.6758 167.09 72.082 167.602V167.594Z" stroke="black" stroke-width="0.5625" stroke-linecap="round" stroke-linejoin="round"/>
<path d="M71.6641 171.484C71.625 171.297 71.4609 170.516 70.9258 169.961C70.2539 169.258 69.5469 169.484 69.457 169.52C69.7656 169.715 70.1094 169.961 70.4688 170.277C70.9414 170.684 71.332 171.102 71.6563 171.492L71.6641 171.484Z" stroke="black" stroke-width="0.5625" stroke-linecap="round" stroke-linejoin="round"/>
<path d="M98.9101 153.777C99.6289 153.613 100.359 153.453 101.078 153.289C99.6601 157.969 98.2422 162.656 96.832 167.336C96.1641 167.172 95.5039 167.016 94.8359 166.852L98.9101 153.777Z" fill="black" stroke="black" stroke-width="0.5625" stroke-linecap="round" stroke-linejoin="round"/>
<path d="M85.2617 51.6562C88.6484 51.8516 93.1641 52.4687 98.2187 54.1758C102.359 55.5781 105.719 57.3359 108.262 58.9102" stroke="black" stroke-width="0.5625" stroke-linecap="round" stroke-linejoin="round"/>
<path d="M92.0039 46.8594C91.4531 47.3281 90.7422 48.0742 90.2383 49.1289C89.5508 50.5781 89.5352 51.9804 89.4531 51.9648C89.3711 51.957 89.5664 50.6992 89.4141 49.2031C89.2891 47.9609 88.9648 46.9609 88.7031 46.2969C89.0234 46.4609 89.4531 46.6406 89.9609 46.7617C90.8008 46.9531 91.5235 46.918 92.0039 46.8515V46.8594Z" fill="#EB1C24" stroke="black" stroke-width="0.5625" stroke-linecap="round" stroke-linejoin="round"/>
<path d="M100.727 51.0273C100.336 51.4023 99.9297 51.836 99.5156 52.332C98.9922 52.961 98.5742 53.5781 98.2187 54.1328C98.3555 53.4805 98.4609 52.625 98.3984 51.6367C98.3633 51.0351 98.2734 50.5117 98.168 50.0508C98.4453 50.2461 98.8125 50.4727 99.2695 50.6602C99.832 50.8906 100.344 50.9844 100.719 51.0273H100.727Z" fill="#EB1C24" stroke="black" stroke-width="0.5625" stroke-linecap="round" stroke-linejoin="round"/>
<path d="M109.875 54.5586C109.297 54.7773 108.504 55.1523 107.746 55.8515C106.769 56.75 106.305 57.7773 106.207 57.7344C106.102 57.6797 106.738 56.6289 106.988 55.1836C107.144 54.2539 107.086 53.457 107.012 52.918C107.301 53.1953 107.691 53.5156 108.187 53.8164C108.824 54.207 109.418 54.4336 109.875 54.5586Z" fill="#EB1C24" stroke="black" stroke-width="0.5625" stroke-linecap="round" stroke-linejoin="round"/>
<path d="M85.8516 42.1563C85.8516 43.0703 85.8437 43.9844 85.5742 44.0508C85.2734 44.1211 84.6094 43.1445 84.6094 42.1094C84.6094 41.0742 85.2734 40.1016 85.5742 40.168C85.8594 40.2344 85.8594 41.2461 85.8516 42.1563Z" fill="#EB1C24" stroke="black" stroke-width="0.5625" stroke-linecap="round" stroke-linejoin="round"/>
<path d="M116.086 52.4532C115.469 53.129 114.855 53.8087 115.012 54.0352C115.184 54.2891 116.34 54.0196 117.039 53.2618C117.734 52.504 117.898 51.336 117.637 51.1759C117.383 51.0352 116.699 51.7852 116.094 52.4532H116.086Z" fill="#EB1C24" stroke="black" stroke-width="0.5625" stroke-linecap="round" stroke-linejoin="round"/>
<path d="M97.1562 44.0313C96.9296 44.5313 96.3671 45.0938 95.7656 45.0196C95.0156 44.9219 94.5234 43.836 94.7109 42.9649C94.8906 42.1406 95.707 41.4219 96.3593 41.5547C97.1327 41.7188 97.582 43.086 97.1562 44.0313Z" fill="#EB1C24" stroke="black" stroke-width="0.5625" stroke-linecap="round" stroke-linejoin="round"/>
<path d="M105.516 46.754C105.441 47.3009 105.621 48.0782 106.172 48.3204C106.859 48.6368 107.859 47.9688 108.148 47.1368C108.434 46.3399 108.121 45.2891 107.488 45.0743C106.746 44.8086 105.645 45.7345 105.512 46.754H105.516Z" fill="#EB1C24" stroke="black" stroke-width="0.5625" stroke-linecap="round" stroke-linejoin="round"/>
<path d="M77.7734 87.6133C77.8945 87.6406 78.0586 87.6875 78.2695 87.711C78.7969 87.7774 79.207 87.711 79.4765 87.6563C80.1133 87.5469 80.918 87.3945 81.8633 87.1914" fill="#EB1C24"/>
<path d="M77.7734 87.6133C77.8945 87.6406 78.0586 87.6875 78.2695 87.711C78.7969 87.7774 79.207 87.711 79.4765 87.6563C80.1133 87.5469 80.918 87.3945 81.8633 87.1914" stroke="black" stroke-width="0.5625" stroke-linecap="round" stroke-linejoin="round"/>
<path d="M49.2656 132.094C49.8242 136.297 50.3008 140.613 50.6992 145.047C52.0274 159.852 52.207 173.734 51.6602 186.508" stroke="white" stroke-width="0.5625" stroke-linecap="round" stroke-linejoin="round"/>
<path d="M92.7734 172.566C88.3516 174.281 83.8711 176.121 79.3359 178.086C78.4726 178.461 77.6172 178.836 76.7617 179.211C76.7539 179.211 76.7383 179.211 76.7344 179.211C75.5703 179.727 73.7695 180.441 71.4883 180.973C69.8476 181.355 69.2461 181.348 66.7422 181.676C58.4531 182.789 56.7734 184.016 55.8515 184.953C55.5312 185.285 55.1484 185.879 54.3828 187.078C53.1836 188.953 52.0859 191.711 49.9414 197.156C49.2891 198.824 48.6601 200.457 49.3203 201.074C49.5234 201.262 49.7851 201.305 49.9883 201.312C50.6914 199.496 51.3906 197.676 52.0937 195.859C52.0195 196.023 51.914 196.281 51.7734 196.594C51.3594 197.496 50.9179 198.402 50.6484 199.355C50.4961 199.754 50.3633 200.141 50.25 200.547C49.9414 201.551 49.7383 201.816 49.8515 202.191C49.9336 202.488 50.1836 202.863 50.5664 202.953C51 203.047 51.5234 202.746 51.789 202.168C52.1015 202.387 52.5 202.266 52.8086 202.086C53.0039 201.965 53.1914 201.801 53.3633 201.637C53.4375 201.559 53.5117 201.477 53.5781 201.402C53.5859 201.395 53.6015 201.371 53.6172 201.359C53.7148 201.434 53.8359 201.477 53.9765 201.484C54.4414 201.5 54.8906 201.156 55.2383 200.879C55.6406 200.555 56.0117 200.188 56.3633 199.812C56.8633 199.273 57.293 198.672 57.7187 198.074C58.0195 197.652 58.3281 197.254 58.7109 196.902L58.914 196.746C58.914 196.746 58.9336 196.746 58.9414 196.73C59.1289 196.594 59.332 196.469 59.5273 196.332C60.293 195.801 61.0586 195.273 61.8164 194.742C62.2031 194.465 62.5742 194.195 62.9531 193.918C63.2851 193.676 63.5859 193.398 63.9062 193.145C64.0273 193.07 64.2226 192.941 64.4687 192.793C68.3476 190.445 70.582 190.43 73.5469 188.629C74.2031 188.227 75.2031 187.559 76.3125 186.508C79.6797 186.793 83.168 187.023 86.7734 187.191C91.6406 187.406 96.3164 187.484 100.785 187.445C97.8984 182.602 94.8515 177.828 92.7812 172.566H92.7734Z" fill="white" stroke="black" stroke-width="0.5625" stroke-linecap="round" stroke-linejoin="round"/>
<path d="M52.1016 195.867C52.2461 195.531 52.4688 195.004 52.7188 194.344C53.0469 193.469 53.1289 193.152 53.3711 192.629C53.6719 191.953 53.9766 191.488 54.3164 190.969C55.4687 189.223 56.6992 187.496 57.1485 186.859" stroke="black" stroke-width="0.5625" stroke-linecap="round" stroke-linejoin="round"/>
<path d="M51.789 202.184C51.703 202.113 51.5858 201.996 51.5155 201.809C51.4413 201.582 51.4882 201.379 51.5116 201.273C51.7187 200.398 52.078 199.684 52.078 199.684C52.2226 199.371 52.4257 198.922 52.6874 198.387C53.3397 197.023 54.2616 195.086 55.5155 193.137C56.3163 191.887 57.5038 190.227 59.1991 188.426" stroke="black" stroke-width="0.5625" stroke-linecap="round" stroke-linejoin="round"/>
<path d="M53.5859 201.41C53.5508 201.344 53.4765 201.199 53.4375 201.004C53.332 200.449 53.6484 199.961 53.7617 199.789C56.4297 195.613 55.8594 195.973 57.2187 194.488C58.3281 193.266 59.9179 191.699 62.0469 190.094" stroke="black" stroke-width="0.5625" stroke-linecap="round" stroke-linejoin="round"/>
<path d="M119.355 152.988C120.711 154.266 122.617 156.32 124.254 159.254C125.453 161.398 127.379 164.727 127.297 169.316C127.238 173.141 125.961 176.156 124.934 178.031C125.355 179.969 125.633 182.824 124.176 185.328C123.016 187.332 121.516 187.781 118.719 190.113C114.465 193.672 114.809 195.246 112.762 196.488C108.219 199.266 101.535 194.512 90.2266 189.051C85.6719 186.852 79.0742 183.906 70.6641 181.023C70.2227 181.16 69.7266 181.281 69.1719 181.379C68.6992 181.461 68.2578 181.512 67.8594 181.535C67.1992 180.109 67.3789 178.437 68.3242 177.215C69.3359 175.902 71.0547 175.316 72.6836 175.73C73.2969 175.016 74.25 174.004 75.5469 172.961C79.9961 169.398 84.8164 168.426 91.5977 167.547C105.773 165.703 107.168 167.016 110.836 164.891C115.027 162.461 117.684 158.148 119.324 152.996L119.355 152.988Z" fill="black" stroke="black" stroke-width="0.5625" stroke-linecap="round" stroke-linejoin="round"/>
<path d="M122.559 179C119.055 180.363 114.922 181.578 110.227 182.262C93.0742 184.762 79.0742 178.609 72.4961 175.113" stroke="white" stroke-width="0.5625" stroke-linecap="round" stroke-linejoin="round"/>
<path d="M119.371 156.816C119.676 157.109 124.672 161.937 123.336 164.465C122.73 165.613 120.66 165.816 116.535 166.168C113.82 166.398 110.895 166.469 106.156 166.25C103.648 166.137 101.602 165.988 100.23 165.883" stroke="white" stroke-width="0.5625" stroke-linecap="round" stroke-linejoin="round"/>
<path d="M95.332 182.426C98.4961 183.266 102.141 184.488 106.051 186.297C108.711 187.535 111.074 188.84 113.137 190.121" stroke="white" stroke-width="0.5625" stroke-linecap="round" stroke-linejoin="round"/>
<path d="M98.6992 107.66C100.5 108.453 102.563 109.234 104.871 109.902C108.758 111.027 112.289 111.539 115.223 111.746" stroke="black" stroke-width="0.5625" stroke-linecap="round" stroke-linejoin="round"/>
<path d="M75.8555 105.891C76.4258 106.047 77.25 106.258 78.2617 106.43C79.3633 106.617 80.1289 106.754 81.1367 106.715C81.7813 106.691 82.7539 106.578 83.918 106.184" stroke="black" stroke-width="0.5625" stroke-linecap="round" stroke-linejoin="round"/>
<path d="M79.9258 77.3828C80.4609 77.4961 81.3281 77.6094 82.3711 77.4219C83.6992 77.1797 84.6289 76.5742 85.1016 76.2109" stroke="black" stroke-width="0.5625" stroke-linecap="round" stroke-linejoin="round"/>
<path d="M57 184.477C57.5312 184.789 58.0664 185.105 58.5977 185.414" stroke="black" stroke-width="0.5625" stroke-linecap="round" stroke-linejoin="round"/>
<path d="M61.9648 187.234C62.8633 187.887 63.7734 188.547 64.6719 189.199" stroke="black" stroke-width="0.5625" stroke-linecap="round" stroke-linejoin="round"/>
<path d="M76.3125 186.508L76.4492 185.422" stroke="black" stroke-width="0.5625" stroke-linecap="round" stroke-linejoin="round"/>
<defs>
<linearGradient id="paint0_linear_2314_1599" x1="158.242" y1="49.235" x2="11.6025" y2="49.235" gradientUnits="userSpaceOnUse">
<stop stop-color="#8F8587"/>
<stop offset="0.00390625" stop-color="#908688"/>
<stop offset="0.0078125" stop-color="#918789"/>
<stop offset="0.0117188" stop-color="#92888A"/>
<stop offset="0.015625" stop-color="#92898B"/>
<stop offset="0.0195313" stop-color="#938A8B"/>
<stop offset="0.0234375" stop-color="#948B8C"/>
<stop offset="0.0273438" stop-color="#958C8D"/>
<stop offset="0.03125" stop-color="#968D8E"/>
<stop offset="0.0351563" stop-color="#978D8F"/>
<stop offset="0.0390625" stop-color="#988E90"/>
<stop offset="0.0429688" stop-color="#988F91"/>
<stop offset="0.046875" stop-color="#999092"/>
<stop offset="0.0507813" stop-color="#9A9193"/>
<stop offset="0.0546875" stop-color="#9B9294"/>
<stop offset="0.0585938" stop-color="#9C9395"/>
<stop offset="0.0625" stop-color="#9D9496"/>
<stop offset="0.0664063" stop-color="#9D9596"/>
<stop offset="0.0703125" stop-color="#9E9697"/>
<stop offset="0.0742188" stop-color="#9F9798"/>
<stop offset="0.078125" stop-color="#A09899"/>
<stop offset="0.0820313" stop-color="#A1999A"/>
<stop offset="0.0859375" stop-color="#A2999B"/>
<stop offset="0.0898438" stop-color="#A39A9C"/>
<stop offset="0.09375" stop-color="#A39B9D"/>
<stop offset="0.0976563" stop-color="#A49C9E"/>
<stop offset="0.101563" stop-color="#A59D9F"/>
<stop offset="0.105469" stop-color="#A69EA0"/>
<stop offset="0.109375" stop-color="#A79FA0"/>
<stop offset="0.113281" stop-color="#A8A0A1"/>
<stop offset="0.117188" stop-color="#A8A1A2"/>
<stop offset="0.121094" stop-color="#A9A2A3"/>
<stop offset="0.125" stop-color="#AAA3A4"/>
<stop offset="0.128906" stop-color="#ABA4A5"/>
<stop offset="0.132813" stop-color="#ACA5A6"/>
<stop offset="0.136719" stop-color="#ADA5A7"/>
<stop offset="0.140625" stop-color="#AEA6A8"/>
<stop offset="0.144531" stop-color="#AEA7A9"/>
<stop offset="0.148438" stop-color="#AFA8AA"/>
<stop offset="0.152344" stop-color="#B0A9AB"/>
<stop offset="0.15625" stop-color="#B1AAAB"/>
<stop offset="0.160156" stop-color="#B2ABAC"/>
<stop offset="0.164063" stop-color="#B3ACAD"/>
<stop offset="0.167969" stop-color="#B3ADAE"/>
<stop offset="0.171875" stop-color="#B4AEAF"/>
<stop offset="0.175781" stop-color="#B5AFB0"/>
<stop offset="0.179688" stop-color="#B6B0B1"/>
<stop offset="0.183594" stop-color="#B7B1B2"/>
<stop offset="0.1875" stop-color="#B8B2B3"/>
<stop offset="0.191406" stop-color="#B9B2B4"/>
<stop offset="0.195313" stop-color="#B9B3B5"/>
<stop offset="0.199219" stop-color="#BAB4B5"/>
<stop offset="0.203125" stop-color="#BBB5B6"/>
<stop offset="0.207031" stop-color="#BCB6B7"/>
<stop offset="0.210938" stop-color="#BDB7B8"/>
<stop offset="0.214844" stop-color="#BEB8B9"/>
<stop offset="0.21875" stop-color="#BEB9BA"/>
<stop offset="0.222656" stop-color="#BFBABB"/>
<stop offset="0.226563" stop-color="#C0BBBC"/>
<stop offset="0.230469" stop-color="#C1BCBD"/>
<stop offset="0.234375" stop-color="#C2BDBE"/>
<stop offset="0.238281" stop-color="#C3BEBF"/>
<stop offset="0.242188" stop-color="#C3BEBF"/>
<stop offset="0.246094" stop-color="#C4BFC0"/>
<stop offset="0.25" stop-color="#C5C0C1"/>
<stop offset="0.253906" stop-color="#C6C1C2"/>
<stop offset="0.257813" stop-color="#C6C2C3"/>
<stop offset="0.261719" stop-color="#C7C3C3"/>
<stop offset="0.265625" stop-color="#C8C3C4"/>
<stop offset="0.269531" stop-color="#C9C4C5"/>
<stop offset="0.273438" stop-color="#C9C5C6"/>
<stop offset="0.277344" stop-color="#CAC6C7"/>
<stop offset="0.28125" stop-color="#CBC7C7"/>
<stop offset="0.285156" stop-color="#CCC7C8"/>
<stop offset="0.289063" stop-color="#CCC8C9"/>
<stop offset="0.292969" stop-color="#CDC9CA"/>
<stop offset="0.296875" stop-color="#CECACB"/>
<stop offset="0.300781" stop-color="#CFCBCB"/>
<stop offset="0.304688" stop-color="#CFCCCC"/>
<stop offset="0.308594" stop-color="#D0CCCD"/>
<stop offset="0.3125" stop-color="#D1CDCE"/>
<stop offset="0.316406" stop-color="#D2CECF"/>
<stop offset="0.320313" stop-color="#D2CFCF"/>
<stop offset="0.324219" stop-color="#D3D0D0"/>
<stop offset="0.328125" stop-color="#D4D0D1"/>
<stop offset="0.332031" stop-color="#D5D1D2"/>
<stop offset="0.335938" stop-color="#D5D2D3"/>
<stop offset="0.339844" stop-color="#D6D3D3"/>
<stop offset="0.34375" stop-color="#D7D4D4"/>
<stop offset="0.347656" stop-color="#D8D5D5"/>
<stop offset="0.351563" stop-color="#D8D5D6"/>
<stop offset="0.355469" stop-color="#D9D6D7"/>
<stop offset="0.359375" stop-color="#DAD7D7"/>
<stop offset="0.363281" stop-color="#DBD8D8"/>
<stop offset="0.367188" stop-color="#DBD9D9"/>
<stop offset="0.371094" stop-color="#DCDADA"/>
<stop offset="0.375" stop-color="#DDDADB"/>
<stop offset="0.378906" stop-color="#DEDBDB"/>
<stop offset="0.382813" stop-color="#DEDCDC"/>
<stop offset="0.386719" stop-color="#DFDDDD"/>
<stop offset="0.390625" stop-color="#E0DEDE"/>
<stop offset="0.394531" stop-color="#E1DEDF"/>
<stop offset="0.398438" stop-color="#E1DFE0"/>
<stop offset="0.402344" stop-color="#E2E0E0"/>
<stop offset="0.40625" stop-color="#E3E1E1"/>
<stop offset="0.410156" stop-color="#E4E2E2"/>
<stop offset="0.414063" stop-color="#E4E3E3"/>
<stop offset="0.417969" stop-color="#E5E3E4"/>
<stop offset="0.421875" stop-color="#E6E4E4"/>
<stop offset="0.425781" stop-color="#E6E5E5"/>
<stop offset="0.429688" stop-color="#E7E6E6"/>
<stop offset="0.433594" stop-color="#E8E7E7"/>
<stop offset="0.4375" stop-color="#E9E7E8"/>
<stop offset="0.441406" stop-color="#E9E8E8"/>
<stop offset="0.445313" stop-color="#EAE9E9"/>
<stop offset="0.449219" stop-color="#EBEAEA"/>
<stop offset="0.453125" stop-color="#ECEBEB"/>
<stop offset="0.457031" stop-color="#ECEBEB"/>
<stop offset="0.460938" stop-color="#EDECEC"/>
<stop offset="0.464844" stop-color="#EDECEC"/>
<stop offset="0.46875" stop-color="#EEEDED"/>
<stop offset="0.472656" stop-color="#EEEEEE"/>
<stop offset="0.476563" stop-color="#EFEEEE"/>
<stop offset="0.480469" stop-color="#EFEFEF"/>
<stop offset="0.484375" stop-color="#F0EFEF"/>
<stop offset="0.488281" stop-color="#F1F0F0"/>
<stop offset="0.492188" stop-color="#F1F1F1"/>
<stop offset="0.496094" stop-color="#F2F1F1"/>
<stop offset="0.5" stop-color="#F2F2F2"/>
<stop offset="0.503906" stop-color="#F3F2F2"/>
<stop offset="0.507812" stop-color="#F3F3F3"/>
<stop offset="0.511719" stop-color="#F4F4F4"/>
<stop offset="0.515625" stop-color="#F5F4F4"/>
<stop offset="0.519531" stop-color="#F5F5F5"/>
<stop offset="0.523438" stop-color="#F6F5F5"/>
<stop offset="0.527344" stop-color="#F6F6F6"/>
<stop offset="0.53125" stop-color="#F7F7F7"/>
<stop offset="0.535156" stop-color="#F7F7F7"/>
<stop offset="0.539062" stop-color="#F8F8F8"/>
<stop offset="0.542969" stop-color="#F8F8F8"/>
<stop offset="0.546875" stop-color="#F9F9F9"/>
<stop offset="0.550781" stop-color="#FAFAFA"/>
<stop offset="0.554688" stop-color="#FAFAFA"/>
<stop offset="0.5625" stop-color="#FBFBFB"/>
<stop offset="0.625" stop-color="#FBFBFB"/>
<stop offset="0.75" stop-color="#FBFBFB"/>
<stop offset="1" stop-color="#FBFBFB"/>
</linearGradient>
<linearGradient id="paint1_linear_2314_1599" x1="11.4525" y1="188.217" x2="158.167" y2="188.217" gradientUnits="userSpaceOnUse">
<stop stop-color="#8F8587"/>
<stop offset="0.00390625" stop-color="#908688"/>
<stop offset="0.0078125" stop-color="#918789"/>
<stop offset="0.0117188" stop-color="#91888A"/>
<stop offset="0.015625" stop-color="#92898A"/>
<stop offset="0.0195312" stop-color="#938A8B"/>
<stop offset="0.0234375" stop-color="#948A8C"/>
<stop offset="0.0273438" stop-color="#958B8D"/>
<stop offset="0.03125" stop-color="#968C8E"/>
<stop offset="0.0351562" stop-color="#968D8F"/>
<stop offset="0.0390625" stop-color="#978E90"/>
<stop offset="0.0429687" stop-color="#988F91"/>
<stop offset="0.046875" stop-color="#999091"/>
<stop offset="0.0507812" stop-color="#9A9192"/>
<stop offset="0.0546875" stop-color="#9A9293"/>
<stop offset="0.0585938" stop-color="#9B9294"/>
<stop offset="0.0625" stop-color="#9C9395"/>
<stop offset="0.0664062" stop-color="#9D9496"/>
<stop offset="0.0703125" stop-color="#9E9597"/>
<stop offset="0.0742188" stop-color="#9E9698"/>
<stop offset="0.078125" stop-color="#9F9798"/>
<stop offset="0.0820312" stop-color="#A09899"/>
<stop offset="0.0859375" stop-color="#A1999A"/>
<stop offset="0.0898438" stop-color="#A29A9B"/>
<stop offset="0.09375" stop-color="#A39A9C"/>
<stop offset="0.0976562" stop-color="#A39B9D"/>
<stop offset="0.101562" stop-color="#A49C9E"/>
<stop offset="0.105469" stop-color="#A59D9F"/>
<stop offset="0.109375" stop-color="#A69E9F"/>
<stop offset="0.113281" stop-color="#A79FA0"/>
<stop offset="0.117188" stop-color="#A7A0A1"/>
<stop offset="0.121094" stop-color="#A8A1A2"/>
<stop offset="0.125" stop-color="#A9A2A3"/>
<stop offset="0.128906" stop-color="#AAA2A4"/>
<stop offset="0.132813" stop-color="#ABA3A5"/>
<stop offset="0.136719" stop-color="#ABA4A6"/>
<stop offset="0.140625" stop-color="#ACA5A6"/>
<stop offset="0.144531" stop-color="#ADA6A7"/>
<stop offset="0.148438" stop-color="#AEA7A8"/>
<stop offset="0.152344" stop-color="#AFA8A9"/>
<stop offset="0.15625" stop-color="#B0A9AA"/>
<stop offset="0.160156" stop-color="#B0AAAB"/>
<stop offset="0.164062" stop-color="#B1AAAC"/>
<stop offset="0.167969" stop-color="#B2ABAD"/>
<stop offset="0.171875" stop-color="#B3ACAD"/>
<stop offset="0.175781" stop-color="#B4ADAE"/>
<stop offset="0.179688" stop-color="#B4AEAF"/>
<stop offset="0.183594" stop-color="#B5AFB0"/>
<stop offset="0.1875" stop-color="#B6B0B1"/>
<stop offset="0.191406" stop-color="#B7B1B2"/>
<stop offset="0.195313" stop-color="#B8B2B3"/>
<stop offset="0.199219" stop-color="#B9B2B4"/>
<stop offset="0.203125" stop-color="#B9B3B4"/>
<stop offset="0.207031" stop-color="#BAB4B5"/>
<stop offset="0.210938" stop-color="#BBB5B6"/>
<stop offset="0.214844" stop-color="#BCB6B7"/>
<stop offset="0.21875" stop-color="#BDB7B8"/>
<stop offset="0.222656" stop-color="#BDB8B9"/>
<stop offset="0.226563" stop-color="#BEB9BA"/>
<stop offset="0.230469" stop-color="#BFBABB"/>
<stop offset="0.234375" stop-color="#C0BABB"/>
<stop offset="0.238281" stop-color="#C1BBBC"/>
<stop offset="0.242188" stop-color="#C1BCBD"/>
<stop offset="0.246094" stop-color="#C2BDBE"/>
<stop offset="0.25" stop-color="#C3BEBF"/>
<stop offset="0.253906" stop-color="#C4BFC0"/>
<stop offset="0.257812" stop-color="#C5C0C1"/>
<stop offset="0.261719" stop-color="#C5C0C1"/>
<stop offset="0.265625" stop-color="#C6C1C2"/>
<stop offset="0.269531" stop-color="#C7C2C3"/>
<stop offset="0.273437" stop-color="#C8C3C4"/>
<stop offset="0.277344" stop-color="#C8C4C5"/>
<stop offset="0.28125" stop-color="#C9C5C5"/>
<stop offset="0.285156" stop-color="#CAC5C6"/>
<stop offset="0.289062" stop-color="#CBC6C7"/>
<stop offset="0.292969" stop-color="#CBC7C8"/>
<stop offset="0.296875" stop-color="#CCC8C9"/>
<stop offset="0.300781" stop-color="#CDC9C9"/>
<stop offset="0.304688" stop-color="#CDC9CA"/>
<stop offset="0.308594" stop-color="#CECACB"/>
<stop offset="0.3125" stop-color="#CFCBCC"/>
<stop offset="0.316406" stop-color="#D0CCCD"/>
<stop offset="0.320313" stop-color="#D0CDCD"/>
<stop offset="0.324219" stop-color="#D1CECE"/>
<stop offset="0.328125" stop-color="#D2CECF"/>
<stop offset="0.332031" stop-color="#D3CFD0"/>
<stop offset="0.335938" stop-color="#D3D0D1"/>
<stop offset="0.339844" stop-color="#D4D1D1"/>
<stop offset="0.34375" stop-color="#D5D2D2"/>
<stop offset="0.347656" stop-color="#D6D2D3"/>
<stop offset="0.351562" stop-color="#D6D3D4"/>
<stop offset="0.355469" stop-color="#D7D4D5"/>
<stop offset="0.359375" stop-color="#D8D5D5"/>
<stop offset="0.363281" stop-color="#D9D6D6"/>
<stop offset="0.367188" stop-color="#D9D7D7"/>
<stop offset="0.371094" stop-color="#DAD7D8"/>
<stop offset="0.375" stop-color="#DBD8D9"/>
<stop offset="0.378906" stop-color="#DCD9D9"/>
<stop offset="0.382812" stop-color="#DCDADA"/>
<stop offset="0.386719" stop-color="#DDDBDB"/>
<stop offset="0.390625" stop-color="#DEDCDC"/>
<stop offset="0.394531" stop-color="#DFDCDD"/>
<stop offset="0.398438" stop-color="#DFDDDD"/>
<stop offset="0.402344" stop-color="#E0DEDE"/>
<stop offset="0.40625" stop-color="#E1DFDF"/>
<stop offset="0.410156" stop-color="#E2E0E0"/>
<stop offset="0.414062" stop-color="#E2E0E1"/>
<stop offset="0.417969" stop-color="#E3E1E1"/>
<stop offset="0.421875" stop-color="#E4E2E2"/>
<stop offset="0.425781" stop-color="#E5E3E3"/>
<stop offset="0.429688" stop-color="#E5E4E4"/>
<stop offset="0.433594" stop-color="#E6E5E5"/>
<stop offset="0.4375" stop-color="#E7E5E5"/>
<stop offset="0.441406" stop-color="#E8E6E6"/>
<stop offset="0.445312" stop-color="#E8E7E7"/>
<stop offset="0.449219" stop-color="#E9E8E8"/>
<stop offset="0.453125" stop-color="#EAE9E9"/>
<stop offset="0.457031" stop-color="#EBE9E9"/>
<stop offset="0.460938" stop-color="#EBEAEA"/>
<stop offset="0.464844" stop-color="#ECEBEB"/>
<stop offset="0.46875" stop-color="#ECEBEB"/>
<stop offset="0.472656" stop-color="#EDECEC"/>
<stop offset="0.476562" stop-color="#EDEDED"/>
<stop offset="0.480469" stop-color="#EEEDED"/>
<stop offset="0.484375" stop-color="#EFEEEE"/>
<stop offset="0.488281" stop-color="#EFEEEE"/>
<stop offset="0.492187" stop-color="#F0EFEF"/>
<stop offset="0.496094" stop-color="#F0F0F0"/>
<stop offset="0.5" stop-color="#F1F0F0"/>
<stop offset="0.503906" stop-color="#F1F1F1"/>
<stop offset="0.507812" stop-color="#F2F1F1"/>
<stop offset="0.511719" stop-color="#F3F2F2"/>
<stop offset="0.515625" stop-color="#F3F3F3"/>
<stop offset="0.519531" stop-color="#F4F3F3"/>
<stop offset="0.523438" stop-color="#F4F4F4"/>
<stop offset="0.527344" stop-color="#F5F4F4"/>
<stop offset="0.53125" stop-color="#F5F5F5"/>
<stop offset="0.535156" stop-color="#F6F6F6"/>
<stop offset="0.539062" stop-color="#F6F6F6"/>
<stop offset="0.542969" stop-color="#F7F7F7"/>
<stop offset="0.546875" stop-color="#F8F7F7"/>
<stop offset="0.550781" stop-color="#F8F8F8"/>
<stop offset="0.554688" stop-color="#F9F9F9"/>
<stop offset="0.558594" stop-color="#F9F9F9"/>
<stop offset="0.5625" stop-color="#FAFAFA"/>
<stop offset="0.566406" stop-color="#FAFAFA"/>
<stop offset="0.570312" stop-color="#FBFBFB"/>
<stop offset="0.578125" stop-color="#FBFBFB"/>
<stop offset="0.59375" stop-color="#FBFBFB"/>
<stop offset="0.625" stop-color="#FBFBFB"/>
<stop offset="0.75" stop-color="#FBFBFB"/>
<stop offset="1" stop-color="#FBFBFB"/>
</linearGradient>
</defs>
</svg>
