<svg width="169" height="238" viewBox="0 0 169 238" fill="none" xmlns="http://www.w3.org/2000/svg">
<path d="M162.531 237.691H6.01562C2.69141 237.691 0 234.977 0 231.629V6.05859C0 2.71484 2.69141 0 6.01562 0H162.531C165.855 0 168.547 2.71484 168.547 6.05859V231.629C168.547 234.977 165.855 237.691 162.531 237.691Z" fill="white"/>
<mask id="mask0_2314_1252" style="mask-type:luminance" maskUnits="userSpaceOnUse" x="10" y="10" width="149" height="78">
<path d="M10.4531 10H158.453V88H10.4531V10Z" fill="white"/>
</mask>
<g mask="url(#mask0_2314_1252)">
<mask id="mask1_2314_1252" style="mask-type:luminance" maskUnits="userSpaceOnUse" x="11" y="10" width="147" height="78">
<path d="M157.68 87.7422C157.68 61.8438 157.687 35.9414 157.695 10.043C108.84 10.043 59.9766 10.043 11.125 10.0508C11.1016 35.5273 11.0781 61.0039 11.0547 86.4844C13.6211 75.0469 18.7969 58.1758 28.6641 49.1719C36.2187 42.2852 39.9922 38.8359 42.9453 37.4531C44.3164 36.8086 48.707 34.9141 52.3359 30.4805C53.0117 29.6641 53.5 28.9414 53.8047 28.4609C54.1211 28.8828 55.3359 30.4336 57.0078 30.4648C59.1836 30.5039 61.6133 27.9531 61.7344 24.1133C61.9883 24.6836 64.125 29.2266 68.9844 30.2539C71.3242 30.75 73.2891 30.2266 74.3047 29.8633C74.9648 29.3164 75.8398 28.4688 76.6445 27.2539C77.4297 26.0625 77.8594 24.9453 78.1055 24.1367H90.6523C90.7266 24.6016 91.3359 28.0273 94.457 29.7383C97.5078 31.4102 100.605 30.1367 101.559 29.7539C104.852 28.4258 106.246 25.6875 106.555 25.043C107.297 28.582 109.77 30.7734 111.945 30.6016C112.297 30.5703 113.43 30.4219 114.609 29.1016L118.367 32.2266C119.836 33.0977 121.898 34.3789 124.277 36.0469C127.066 37.9961 136.32 44.5664 143.59 54.0078C153.242 66.5469 156.473 80.3555 157.672 87.7266L157.68 87.7422Z" fill="white"/>
</mask>
<g mask="url(#mask1_2314_1252)">
<path d="M11.0547 10.043V87.7422H157.695V10.043H11.0547Z" fill="url(#paint0_linear_2314_1252)"/>
</g>
</g>
<path d="M158.07 227.844H10.5977C10.5977 182.512 10.5977 137.184 10.5977 91.8516C10.5977 64.4609 10.5977 37.0781 10.5977 9.69141H158.07C158.07 37.0352 158.07 64.3789 158.07 91.7266C158.07 137.102 158.07 182.469 158.07 227.844Z" stroke="#0E0E0E" stroke-width="0.75" stroke-linecap="round" stroke-linejoin="round"/>
<path d="M84.25 32.1211C84.1953 31.5 83.9414 29.3164 82.1328 27.4648C80.5117 25.8008 78.6094 25.4023 77.957 25.2891C78.0078 24.6367 78.0625 23.9844 78.1133 23.332C78.9688 22.9336 80.6875 21.9883 82.1094 20.0781C83.5586 18.1367 83.9687 16.1992 84.1055 15.2617C84.4414 16.4336 85.1875 18.4336 86.8789 20.3867C88.1875 21.8867 89.5742 22.8008 90.5312 23.332C90.5859 23.9844 90.6367 24.6367 90.6914 25.2891C90.2266 25.3359 87.2344 25.6797 85.4336 28.2969C84.375 29.8438 84.25 31.418 84.2344 32.1211H84.25Z" fill="white"/>
<path d="M53.0391 21.6758C53.875 21.4336 55.2461 21.1718 56.7969 21.5468C58.1562 21.8711 59.0703 22.5312 59.5898 22.9218C64.1484 26.3398 64.8242 28.9961 67.957 30.1953C68.3633 30.3515 71.2969 31.3203 74.25 29.9414C76.3359 28.9648 77.8203 26.7461 78.0547 24.3359C78.3828 20.8867 75.9844 17.4765 73.1992 16.8515C72.8789 16.7773 71.125 16.3867 69.6914 17.4609C69.5117 17.5937 68.4023 18.4492 68.2422 19.957C68.2187 20.1836 68.0391 22.125 69.5273 23.0703C70.3594 23.5937 71.4141 23.625 72.2539 23.2343C73.4492 22.6875 74.168 21.3164 73.9805 19.8437C74.2734 20.1679 74.6797 20.6718 75 21.3593C75.1562 21.6914 76.1797 23.9492 75.2031 26.1133C74.0195 28.7539 70.7851 29.2187 70.3515 29.2812C67.4648 29.6914 64.4648 28.1758 62.5 25.4531" stroke="#0E0E0E" stroke-width="0.75" stroke-linecap="round" stroke-linejoin="round"/>
<path d="M78.1133 23.2422C78.6836 22.9648 79.5742 22.4609 80.4844 21.6367C83.3867 18.9883 83.918 15.3164 84.1563 13.6797C84.293 12.7578 84.4141 11.3867 84.2539 9.68359" stroke="#0E0E0E" stroke-width="0.75" stroke-linecap="round" stroke-linejoin="round"/>
<path d="M77.957 25.1992C78.668 25.3281 79.4414 25.5508 80.207 25.9414C83.6641 27.7031 84.1719 31.3945 84.25 32.0312" stroke="#0E0E0E" stroke-width="0.75" stroke-linecap="round" stroke-linejoin="round"/>
<path d="M115.621 21.6758C114.789 21.4336 113.414 21.1718 111.863 21.5468C110.504 21.8711 109.59 22.5312 109.074 22.9218C104.512 26.3398 103.84 28.9961 100.703 30.1953C100.297 30.3515 97.3672 31.3203 94.4102 29.9414C92.3243 28.9648 90.8399 26.7461 90.6094 24.3359C90.2774 20.8867 92.6797 17.4765 95.461 16.8515C95.7813 16.7773 97.5391 16.3867 98.9688 17.4609C99.1524 17.5937 100.262 18.4492 100.418 19.957C100.441 20.1836 100.621 22.125 99.1367 23.0703C98.3047 23.5937 97.2461 23.625 96.4063 23.2343C95.2149 22.6875 94.4922 21.3164 94.6797 19.8437C94.3868 20.1679 93.9844 20.6718 93.6602 21.3593C93.5039 21.6914 92.4844 23.9492 93.4571 26.1133C94.6446 28.7539 97.875 29.2187 98.3125 29.2812C101.199 29.6914 104.199 28.1758 106.164 25.4531" stroke="#0E0E0E" stroke-width="0.75" stroke-linecap="round" stroke-linejoin="round"/>
<path d="M90.707 25.1992C89.9922 25.3281 89.2188 25.5508 88.457 25.9414C85 27.7031 84.4883 31.3945 84.4141 32.0312" stroke="#0E0E0E" stroke-width="0.75" stroke-linecap="round" stroke-linejoin="round"/>
<path d="M114.914 28.5312C114.805 28.7852 114.211 30.0977 112.824 30.5312C111.352 30.9961 110.062 30.1406 109.523 29.7812C107.25 28.2734 107.027 25.4023 107.004 24.9375" stroke="#0E0E0E" stroke-width="0.75" stroke-linecap="round" stroke-linejoin="round"/>
<path d="M122.887 35.4452C122.242 35.0781 121.336 34.5234 120.317 33.7812C117.367 31.6367 115.067 29.9609 114.465 27.2343C113.918 24.7499 115.035 22.6562 115.231 22.3046C117.067 18.9882 120.914 18.4413 121.711 18.3515C125.289 17.9492 128.918 19.8359 131.192 23.1367" stroke="#0E0E0E" stroke-width="0.75" stroke-linecap="round" stroke-linejoin="round"/>
<path d="M130.695 40.5977C130.734 32.8789 128.844 26.8203 125.852 25.1484C124.313 24.293 122.754 24.2695 122.754 24.2695C122.234 24.2695 119.617 24.3086 117.961 26.4687C116.484 28.3945 116.852 30.6016 116.918 30.9766" stroke="#0E0E0E" stroke-width="0.75" stroke-linecap="round" stroke-linejoin="round"/>
<path d="M151.824 36.6992C152.215 36.5039 153.457 35.9258 154.801 36.2696C157.191 36.8789 157.465 39.7657 157.476 39.9766C157.621 41.8125 156.496 43.9492 154.351 44.7149C152.699 45.3008 151.109 44.836 150.262 44.586C147.519 43.7852 146.012 41.918 145.262 40.9727C142.859 37.9141 144.031 36.4258 141.57 34.2539C140.902 33.6602 139.555 32.461 137.484 32.1446C135.332 31.8086 134.445 32.7383 132.48 32.1914C130.555 31.6485 129.555 30.2344 129.301 29.836C129.18 29.6563 127.777 27.3985 129.098 25.125C129.367 24.6524 130.172 23.2813 131.976 22.8828C133.621 22.5313 135.43 23.1289 136.418 24.3086C137.265 25.3125 137.512 26.7305 136.851 27.8555C136.711 28.1016 136.262 28.8672 135.242 29.1758C134.387 29.4297 133.297 29.3164 132.547 28.7188C131.887 28.1836 131.769 27.5039 131.746 27.3008" stroke="#0E0E0E" stroke-width="0.75" stroke-linecap="round" stroke-linejoin="round"/>
<path d="M143.117 36.3437C142.801 32.9258 141.055 30.1132 138.496 29.1992C137.91 28.9882 136.996 28.7773 135.781 28.9258" stroke="#0E0E0E" stroke-width="0.75" stroke-linecap="round" stroke-linejoin="round"/>
<path d="M145.711 41.6485C145.246 41.5274 143.313 41.0782 141.66 42.1563C139.672 43.461 138.879 46.4844 140.102 49.3516" stroke="#0E0E0E" stroke-width="0.75" stroke-linecap="round" stroke-linejoin="round"/>
<path d="M147.066 51.9609C146.762 51.9453 146.125 51.9531 145.449 52.3047C144.352 52.8828 143.992 53.9414 143.926 54.1797" stroke="#0E0E0E" stroke-width="0.75" stroke-linecap="round" stroke-linejoin="round"/>
<path d="M158.055 90.7734C158.039 90.668 158.027 90.4805 157.996 90.2617C157.41 85.125 154.102 61.1406 134.379 43.6406C131.926 41.4688 128.125 38.4141 122.887 35.4453" stroke="#0E0E0E" stroke-width="0.75" stroke-linecap="round" stroke-linejoin="round"/>
<path d="M84.25 32.1211C84.1953 31.5 83.9414 29.3164 82.1328 27.4648C80.5117 25.8008 78.6094 25.4023 77.957 25.2891C78.0078 24.6367 78.0625 23.9844 78.1133 23.332C78.9688 22.9336 80.6875 21.9883 82.1094 20.0781C83.5586 18.1367 83.9688 16.1992 84.1055 15.2617C84.4414 16.4336 85.1875 18.4336 86.8789 20.3867C88.1875 21.8867 89.5742 22.8008 90.5313 23.332C90.586 23.9844 90.6367 24.6367 90.6914 25.2891C90.2266 25.3359 87.2344 25.6797 85.4336 28.2969C84.375 29.8437 84.25 31.418 84.2344 32.1211H84.25Z" fill="black" stroke="black" stroke-width="0.5625" stroke-linecap="round" stroke-linejoin="round"/>
<path d="M115.621 21.6758C114.789 21.4336 113.414 21.1718 111.863 21.5468C110.504 21.8711 109.59 22.5312 109.074 22.9218C104.512 26.3398 103.84 28.9961 100.703 30.1953C100.297 30.3515 97.3672 31.3203 94.4102 29.9414C92.3243 28.9648 90.8399 26.7461 90.6094 24.3359C90.2774 20.8867 92.6797 17.4765 95.461 16.8515C95.7813 16.7773 97.5391 16.3867 98.9688 17.4609C99.1524 17.5937 100.262 18.4492 100.418 19.957C100.441 20.1836 100.621 22.125 99.1367 23.0703C98.3047 23.5937 97.2461 23.625 96.4063 23.2343C95.2149 22.6875 94.4922 21.3164 94.6797 19.8437C94.3868 20.1679 93.9844 20.6718 93.6602 21.3593C93.5039 21.6914 92.4844 23.9492 93.4571 26.1133C94.6446 28.7539 97.875 29.2187 98.3125 29.2812C101.199 29.6914 104.199 28.1758 106.164 25.4531" stroke="#0E0E0E" stroke-width="0.75" stroke-linecap="round" stroke-linejoin="round"/>
<path d="M90.5469 23.2422C89.4453 22.6953 88.6719 22.0859 88.1797 21.6367C84.8321 18.5938 84.5118 14.0703 84.3907 12.4063C84.3086 11.2656 84.3516 10.3203 84.4063 9.68359" stroke="#0E0E0E" stroke-width="0.75" stroke-linecap="round" stroke-linejoin="round"/>
<path d="M90.707 25.1992C89.9922 25.3281 89.2188 25.5508 88.457 25.9414C85 27.7031 84.4883 31.3945 84.4141 32.0312" stroke="#0E0E0E" stroke-width="0.75" stroke-linecap="round" stroke-linejoin="round"/>
<path d="M114.914 28.5312C114.805 28.7852 114.211 30.0977 112.824 30.5312C111.352 30.9961 110.062 30.1406 109.523 29.7812C107.25 28.2734 107.027 25.4023 107.004 24.9375" stroke="#0E0E0E" stroke-width="0.75" stroke-linecap="round" stroke-linejoin="round"/>
<path d="M122.887 35.4452C122.242 35.0781 121.336 34.5234 120.317 33.7812C117.367 31.6367 115.067 29.9609 114.465 27.2343C113.918 24.7499 115.035 22.6562 115.231 22.3046C117.067 18.9882 120.914 18.4413 121.711 18.3515C125.289 17.9492 128.918 19.8359 131.192 23.1367" stroke="#0E0E0E" stroke-width="0.75" stroke-linecap="round" stroke-linejoin="round"/>
<path d="M130.695 40.5977C130.734 32.8789 128.844 26.8203 125.852 25.1484C124.313 24.293 122.754 24.2695 122.754 24.2695C122.234 24.2695 119.617 24.3086 117.961 26.4687C116.484 28.3945 116.852 30.6016 116.918 30.9766" stroke="#0E0E0E" stroke-width="0.75" stroke-linecap="round" stroke-linejoin="round"/>
<path d="M151.824 36.6992C152.215 36.5039 153.457 35.9258 154.801 36.2696C157.191 36.8789 157.465 39.7657 157.476 39.9766C157.621 41.8125 156.496 43.9492 154.351 44.7149C152.699 45.3008 151.109 44.836 150.262 44.586C147.519 43.7852 146.012 41.918 145.262 40.9727C142.859 37.9141 144.031 36.4258 141.57 34.2539C140.902 33.6602 139.555 32.461 137.484 32.1446C135.332 31.8086 134.445 32.7383 132.48 32.1914C130.555 31.6485 129.555 30.2344 129.301 29.836C129.18 29.6563 127.777 27.3985 129.098 25.125C129.367 24.6524 130.172 23.2813 131.976 22.8828C133.621 22.5313 135.43 23.1289 136.418 24.3086C137.265 25.3125 137.512 26.7305 136.851 27.8555C136.711 28.1016 136.262 28.8672 135.242 29.1758C134.387 29.4297 133.297 29.3164 132.547 28.7188C131.887 28.1836 131.769 27.5039 131.746 27.3008" stroke="#0E0E0E" stroke-width="0.75" stroke-linecap="round" stroke-linejoin="round"/>
<path d="M143.117 36.3437C142.801 32.9258 141.055 30.1132 138.496 29.1992C137.91 28.9882 136.996 28.7773 135.781 28.9258" stroke="#0E0E0E" stroke-width="0.75" stroke-linecap="round" stroke-linejoin="round"/>
<path d="M157.965 48.4218C156.734 46.3124 154.77 44.9999 152.813 45.121C150.391 45.2694 148.965 47.5429 148.352 48.5233C144.887 54.0507 148.59 61.6054 149.16 62.7382" stroke="#0E0E0E" stroke-width="0.75" stroke-linecap="round" stroke-linejoin="round"/>
<path d="M158.02 90.0898C156.609 80.4375 152.027 59.3242 134.379 43.6406C130.539 40.2305 126.617 37.5508 122.887 35.4453" stroke="#0E0E0E" stroke-width="0.75" stroke-linecap="round" stroke-linejoin="round"/>
<mask id="mask2_2314_1252" style="mask-type:luminance" maskUnits="userSpaceOnUse" x="10" y="148" width="149" height="80">
<path d="M10.4531 148H158.453V228H10.4531V148Z" fill="white"/>
</mask>
<g mask="url(#mask2_2314_1252)">
<mask id="mask3_2314_1252" style="mask-type:luminance" maskUnits="userSpaceOnUse" x="10" y="148" width="148" height="80">
<path d="M10.9062 148.289C10.9297 174.684 10.9414 201.074 10.9648 227.461C59.8281 227.453 108.691 227.437 157.555 227.43C157.574 201.953 157.598 176.477 157.621 150.996C152.77 162.285 145.328 176.039 133.785 189.781C129.332 195.074 124.844 199.695 120.52 203.699C119.316 205.289 118.117 206.871 116.926 208.461C116.242 208.648 115.563 208.828 114.879 209.016C114.563 208.598 113.348 207.047 111.676 207.016C109.5 206.977 107.07 209.527 106.949 213.367C106.695 212.797 104.559 208.254 99.6992 207.227C97.3594 206.73 95.3945 207.254 94.3789 207.613C93.7188 208.164 92.8437 209.012 92.0391 210.227C91.2539 211.418 90.8242 212.535 90.5781 213.344H78.0312C77.957 212.879 77.3477 209.453 74.2266 207.742C71.1758 206.07 68.0781 207.344 67.125 207.727C63.832 209.055 62.4375 211.793 62.1289 212.438C61.3867 208.898 58.9141 206.707 56.7383 206.879C56.3867 206.91 55.2539 207.059 54.0742 208.379C52.8242 207.336 51.5703 206.297 50.3164 205.254C44.5 202.371 33.6602 196.035 24.5625 183.75C13.9297 169.379 11.5742 154.836 10.9219 148.297L10.9062 148.289Z" fill="white"/>
</mask>
<g mask="url(#mask3_2314_1252)">
<path d="M10.9062 148.289V227.461H157.621V148.289H10.9062Z" fill="url(#paint1_linear_2314_1252)"/>
</g>
</g>
<path d="M84.293 205.574C84.3437 206.199 84.6016 208.379 86.4062 210.234C88.0273 211.898 89.9336 212.297 90.5859 212.406C90.5313 213.059 90.4805 213.711 90.4297 214.363C89.5742 214.762 87.8555 215.707 86.4297 217.621C84.9844 219.562 84.5703 221.496 84.4375 222.434C84.0977 221.266 83.3555 219.262 81.6602 217.312C80.3555 215.812 78.9687 214.898 78.0078 214.363C77.957 213.711 77.9023 213.059 77.8516 212.406C78.3164 212.363 81.3086 212.016 83.1094 209.398C84.1641 207.855 84.293 206.281 84.3086 205.574H84.293Z" fill="white"/>
<path d="M115.508 216.016C114.676 216.254 113.305 216.516 111.75 216.141C110.395 215.82 109.477 215.16 108.961 214.77C104.402 211.352 103.727 208.695 100.59 207.496C100.188 207.336 97.2539 206.371 94.2969 207.75C92.2149 208.727 90.7266 210.945 90.4961 213.352C90.1641 216.801 92.5664 220.215 95.3477 220.836C95.6719 220.914 97.4258 221.301 98.8594 220.23C99.0391 220.094 100.148 219.238 100.305 217.734C100.328 217.508 100.508 215.566 99.0235 214.621C98.1914 214.094 97.1328 214.066 96.293 214.453C95.1016 215.004 94.3789 216.375 94.5664 217.844C94.2774 217.523 93.8711 217.02 93.5469 216.328C93.3906 216 92.3711 213.742 93.3438 211.574C94.5313 208.934 97.7617 208.469 98.1992 208.41C101.086 207.996 104.086 209.512 106.051 212.234" stroke="#0E0E0E" stroke-width="0.75" stroke-linecap="round" stroke-linejoin="round"/>
<path d="M90.4296 214.449C89.371 214.973 88.5976 215.566 88.0585 216.051C84.9452 218.879 84.4882 222.996 84.2695 224.926C84.1288 226.176 84.1445 227.211 84.1718 227.852" stroke="#0E0E0E" stroke-width="0.75" stroke-linecap="round" stroke-linejoin="round"/>
<path d="M90.5859 212.496C89.875 212.371 89.1016 212.145 88.3359 211.754C84.8789 209.992 84.3672 206.301 84.293 205.664" stroke="#0E0E0E" stroke-width="0.75" stroke-linecap="round" stroke-linejoin="round"/>
<path d="M52.9297 216.016C53.7617 216.254 55.1328 216.516 56.6875 216.141C58.043 215.82 58.957 215.16 59.4766 214.77C64.0351 211.352 64.7109 208.695 67.8437 207.496C68.25 207.336 71.1836 206.371 74.1367 207.75C76.2226 208.727 77.707 210.945 77.9414 213.352C78.2695 216.801 75.8711 220.215 73.0899 220.836C72.7656 220.914 71.0117 221.301 69.5781 220.23C69.3984 220.094 68.2891 219.238 68.1289 217.734C68.1094 217.508 67.9297 215.566 69.4141 214.621C70.2461 214.094 71.3047 214.066 72.1445 214.453C73.3359 215.004 74.0547 216.375 73.8672 217.844C74.1601 217.523 74.5664 217.02 74.8867 216.328C75.0469 216 76.0664 213.742 75.0898 211.574C73.9062 208.934 70.6719 208.469 70.2383 208.41C67.3516 207.996 64.3516 209.512 62.3867 212.234" stroke="#0E0E0E" stroke-width="0.75" stroke-linecap="round" stroke-linejoin="round"/>
<path d="M77.8438 212.496C78.5273 212.391 79.3047 212.176 80.0938 211.754C83.3047 210.059 84.1367 206.438 84.293 205.664" stroke="#0E0E0E" stroke-width="0.75" stroke-linecap="round" stroke-linejoin="round"/>
<path d="M53.6328 209.16C53.7461 208.906 54.3398 207.594 55.7266 207.156C57.1953 206.691 58.4844 207.547 59.0274 207.906C61.2969 209.414 61.5234 212.289 61.5469 212.754" stroke="#0E0E0E" stroke-width="0.75" stroke-linecap="round" stroke-linejoin="round"/>
<path d="M45.6601 202.246C46.3047 202.613 47.2148 203.168 48.2344 203.91C51.1797 206.055 53.4844 207.727 54.082 210.457C54.6289 212.941 53.5117 215.031 53.3164 215.387C51.4805 218.699 47.6328 219.246 46.8398 219.336C43.2617 219.742 39.6289 217.852 37.3594 214.551" stroke="#0E0E0E" stroke-width="0.75" stroke-linecap="round" stroke-linejoin="round"/>
<path d="M37.8516 197.102C37.8164 204.816 39.707 210.879 42.6992 212.551C44.2344 213.406 45.7969 213.426 45.7969 213.426C46.3125 213.426 48.9297 213.391 50.5898 211.23C52.0664 209.301 51.6992 207.098 51.6289 206.723" stroke="#0E0E0E" stroke-width="0.75" stroke-linecap="round" stroke-linejoin="round"/>
<path d="M16.7266 201C16.336 201.195 15.0899 201.774 13.75 201.426C11.3555 200.82 11.086 197.934 11.0704 197.723C10.9297 195.887 12.0547 193.746 14.1993 192.984C15.8477 192.399 17.4375 192.863 18.2852 193.109C21.0313 193.914 22.5391 195.781 23.2891 196.727C25.6875 199.785 24.5196 201.27 26.9766 203.445C27.6446 204.039 28.9961 205.238 31.0665 205.551C33.2188 205.891 34.1016 204.961 36.0664 205.508C37.9961 206.047 38.9922 207.465 39.25 207.863C39.3672 208.043 40.7696 210.301 39.4493 212.574C39.1797 213.047 38.3789 214.418 36.5704 214.816C34.9297 215.168 33.1211 214.567 32.1289 213.391C31.2813 212.387 31.0352 210.969 31.6954 209.844C31.8399 209.594 32.2891 208.828 33.3086 208.524C34.1641 208.266 35.25 208.379 36.0001 208.981C36.6602 209.512 36.7813 210.195 36.8047 210.399" stroke="#0E0E0E" stroke-width="0.75" stroke-linecap="round" stroke-linejoin="round"/>
<path d="M25.4336 201.344C25.75 204.766 27.4961 207.578 30.0547 208.492C30.6367 208.703 31.5547 208.914 32.7695 208.762" stroke="#0E0E0E" stroke-width="0.75" stroke-linecap="round" stroke-linejoin="round"/>
<path d="M22.832 196.043C23.3125 196.164 25.2305 196.598 26.8789 195.531C28.8828 194.227 29.6992 191.203 28.4922 188.324" stroke="#0E0E0E" stroke-width="0.75" stroke-linecap="round" stroke-linejoin="round"/>
<path d="M21.4727 185.73C21.7812 185.746 22.418 185.738 23.0938 185.387C24.2188 184.793 24.5625 183.691 24.6289 183.465" stroke="#0E0E0E" stroke-width="0.75" stroke-linecap="round" stroke-linejoin="round"/>
<path d="M10.6211 146.145C11.8203 155.805 16.0352 177.887 34.1719 194.047C38.0039 197.461 41.918 200.137 45.6602 202.246" stroke="#0E0E0E" stroke-width="0.75" stroke-linecap="round" stroke-linejoin="round"/>
<path d="M84.293 205.574C84.3438 206.199 84.6016 208.379 86.4063 210.234C88.0274 211.898 89.9336 212.297 90.5859 212.406C90.5313 213.059 90.4805 213.711 90.4297 214.363C89.9648 214.574 89.3242 214.906 88.6445 215.422C87.1055 216.602 86.3711 217.98 85.7266 219.227C85.1641 220.32 84.4375 222.016 84.0625 224.25C84.0547 223.176 83.8867 220.094 81.6523 217.305C80.3867 215.715 78.9297 214.824 78 214.359C77.9492 213.703 77.8945 213.051 77.8438 212.398C78.3086 212.355 81.3008 212.012 83.1016 209.391C84.1562 207.848 84.2852 206.273 84.3008 205.566L84.293 205.574Z" fill="black" stroke="black" stroke-width="0.5625" stroke-linecap="round" stroke-linejoin="round"/>
<path d="M52.9297 216.016C53.7617 216.254 55.1328 216.516 56.6875 216.141C58.043 215.82 58.957 215.16 59.4766 214.77C64.0351 211.352 64.7109 208.695 67.8437 207.496C68.25 207.336 71.1836 206.371 74.1367 207.75C76.2226 208.727 77.707 210.945 77.9414 213.352C78.2695 216.801 75.8711 220.215 73.0899 220.836C72.7656 220.914 71.0117 221.301 69.5781 220.23C69.3984 220.094 68.2891 219.238 68.1289 217.734C68.1094 217.508 67.9297 215.566 69.4141 214.621C70.2461 214.094 71.3047 214.066 72.1445 214.453C73.3359 215.004 74.0547 216.375 73.8672 217.844C74.1601 217.523 74.5664 217.02 74.8867 216.328C75.0469 216 76.0664 213.742 75.0898 211.574C73.9062 208.934 70.6719 208.469 70.2383 208.41C67.3516 207.996 64.3516 209.512 62.3867 212.234" stroke="#0E0E0E" stroke-width="0.75" stroke-linecap="round" stroke-linejoin="round"/>
<path d="M78 214.449C78.625 214.746 79.4922 215.25 80.3711 216.051C82.2226 217.762 82.8906 219.742 83.4062 221.363C84.2109 223.867 84.293 226.148 84.1797 227.852" stroke="#0E0E0E" stroke-width="0.75" stroke-linecap="round" stroke-linejoin="round"/>
<path d="M77.8438 212.496C78.5273 212.391 79.3047 212.176 80.0938 211.754C83.332 210.039 84.1445 206.332 84.293 205.574" stroke="#0E0E0E" stroke-width="0.75" stroke-linecap="round" stroke-linejoin="round"/>
<path d="M53.6328 209.16C53.7461 208.906 54.3398 207.594 55.7266 207.156C57.1953 206.691 58.4844 207.547 59.0274 207.906C61.2969 209.414 61.5234 212.289 61.5469 212.754" stroke="#0E0E0E" stroke-width="0.75" stroke-linecap="round" stroke-linejoin="round"/>
<path d="M45.6601 202.246C46.3047 202.613 47.2148 203.168 48.2344 203.91C51.1797 206.055 53.4844 207.727 54.082 210.457C54.6289 212.941 53.5117 215.031 53.3164 215.387C51.4805 218.699 47.6328 219.246 46.8398 219.336C43.2617 219.742 39.6289 217.852 37.3594 214.551" stroke="#0E0E0E" stroke-width="0.75" stroke-linecap="round" stroke-linejoin="round"/>
<path d="M37.8516 197.102C37.8164 204.816 39.707 210.879 42.6992 212.551C44.2344 213.406 45.7969 213.426 45.7969 213.426C46.3125 213.426 48.9297 213.391 50.5898 211.23C52.0664 209.301 51.6992 207.098 51.6289 206.723" stroke="#0E0E0E" stroke-width="0.75" stroke-linecap="round" stroke-linejoin="round"/>
<path d="M16.7266 201C16.336 201.195 15.0899 201.774 13.75 201.426C11.3555 200.82 11.086 197.934 11.0704 197.723C10.9297 195.887 12.0547 193.746 14.1993 192.984C15.8477 192.399 17.4375 192.863 18.2852 193.109C21.0313 193.914 22.5391 195.781 23.2891 196.727C25.6875 199.785 24.5196 201.27 26.9766 203.445C27.6446 204.039 28.9961 205.238 31.0665 205.551C33.2188 205.891 34.1016 204.961 36.0664 205.508C37.9961 206.047 38.9922 207.465 39.25 207.863C39.3672 208.043 40.7696 210.301 39.4493 212.574C39.1797 213.047 38.3789 214.418 36.5704 214.816C34.9297 215.168 33.1211 214.567 32.1289 213.391C31.2813 212.387 31.0352 210.969 31.6954 209.844C31.8399 209.594 32.2891 208.828 33.3086 208.524C34.1641 208.266 35.25 208.379 36.0001 208.981C36.6602 209.512 36.7813 210.195 36.8047 210.399" stroke="#0E0E0E" stroke-width="0.75" stroke-linecap="round" stroke-linejoin="round"/>
<path d="M25.4336 201.344C25.75 204.766 27.4961 207.578 30.0547 208.492C30.6367 208.703 31.5547 208.914 32.7695 208.762" stroke="#0E0E0E" stroke-width="0.75" stroke-linecap="round" stroke-linejoin="round"/>
<path d="M10.6641 189.414C10.7539 189.563 12.75 192.758 15.7344 192.57C18.1523 192.422 19.5742 190.156 20.1992 189.164C23.6562 183.645 19.957 176.086 19.3867 174.953" stroke="#0E0E0E" stroke-width="0.75" stroke-linecap="round" stroke-linejoin="round"/>
<path d="M22.832 196.043C23.3125 196.164 25.2305 196.598 26.8789 195.531C28.8828 194.227 29.6992 191.203 28.4922 188.324" stroke="#0E0E0E" stroke-width="0.75" stroke-linecap="round" stroke-linejoin="round"/>
<path d="M21.4727 185.73C21.7812 185.746 22.418 185.738 23.0938 185.387C24.2188 184.793 24.5625 183.691 24.6289 183.465" stroke="#0E0E0E" stroke-width="0.75" stroke-linecap="round" stroke-linejoin="round"/>
<path d="M10.6211 146.145C11.8203 155.805 16.0352 177.887 34.1719 194.047C38.0039 197.461 41.918 200.137 45.6602 202.246" stroke="#0E0E0E" stroke-width="0.75" stroke-linecap="round" stroke-linejoin="round"/>
<path d="M36.9375 29.9492C38.6328 31.6719 39.5039 33.75 39.5391 36.1719C39.5391 37.8086 39.0742 39.3906 38.1602 40.9258C37.207 42.4414 35.9688 43.5391 34.4414 44.2031C33.457 44.6328 32.4219 44.8516 31.3359 44.8516C29.9766 44.8516 28.6289 44.5352 27.3008 43.9219C25.9727 43.2969 24.7891 42.4258 23.7539 41.3086C23.3555 40.8672 22.9883 40.4023 22.6562 39.9141C21.375 37.9336 20.7305 35.8125 20.7305 33.5312V33.457C20.7305 30.3594 21.8633 27.6445 24.1367 25.2969C26.5 23.0469 29.2188 21.9219 32.2969 21.9219C33.2695 21.9219 34.2148 22.043 35.1523 22.2812C35.582 22.3867 36.0078 22.5156 36.4219 22.6719C36.4414 22.6797 36.457 22.6875 36.4648 22.6875C36.5195 22.6875 36.5547 22.6484 36.5781 22.5742L36.5469 22.1484H37.6133V27.4492H36.5469L36.5781 27.0234C36.5781 26.4961 36.3516 26.0703 35.9023 25.7383C35.875 25.7188 35.8359 25.6953 35.7891 25.6797C35.4687 25.4687 35.1367 25.2812 34.8008 25.1172C34.0195 24.7969 33.2187 24.5312 32.4023 24.3359C31.582 24.1406 30.7812 24.0469 29.9844 24.0469C27.9375 24.0469 26.2187 24.7109 24.8398 26.0391C23.5117 27.4258 22.8438 29.1367 22.8438 31.1562C22.8438 31.4531 22.8594 31.7617 22.8906 32.0625C23.6797 30.6211 24.7578 29.4844 26.1445 28.6406C27.5313 27.8008 29.0469 27.3906 30.6914 27.3906C33.0469 27.3906 35.125 28.2461 36.9375 29.9492ZM26.5664 29.8047C25.793 30.1211 25.1641 30.6211 24.6914 31.3125C24.2188 32.0039 23.9648 32.7812 23.9336 33.6523V33.8086C23.9336 34.7187 24.1211 35.5937 24.4961 36.4336C24.8711 37.2734 25.375 38.0547 25.9961 38.7656C26.6172 39.4805 27.3086 40.1094 28.0742 40.6562C28.8398 41.2031 29.6172 41.6641 30.4141 42.0156C30.9062 42.2344 31.418 42.4258 31.9414 42.6016C32.4688 42.7734 33.0078 42.8633 33.5469 42.8633C33.8047 42.8633 34.0586 42.832 34.3203 42.7891C35.3789 42.5391 36.1562 41.9844 36.668 41.1367C37.1797 40.2891 37.4336 39.3672 37.4336 38.3789C37.4336 38.0625 37.4023 37.7539 37.3516 37.4531C37.0273 35.5938 36.0977 33.8906 34.5742 32.3555C33.5703 31.3516 32.4609 30.6016 31.2461 30.0977C30.2539 29.6992 29.3047 29.5039 28.4023 29.5039C27.7422 29.5039 27.1367 29.6094 26.5664 29.8203V29.8047Z" fill="black"/>
<path d="M57.203 30.5469C55.9804 29.2109 54.5624 27.9141 53.9687 27.2344C53.5272 26.7227 53.2147 26.332 53.078 26.168C53.0702 26.1523 53.0546 26.1367 53.0468 26.1211C53.039 26.1367 53.0272 26.1523 53.0194 26.168C52.8905 26.332 52.5741 26.7148 52.1249 27.2344C51.5312 27.9141 50.1171 29.2109 48.8944 30.5469C47.6718 31.8828 47.5741 33.2109 47.8046 34.3125C48.039 35.4141 49.1913 36.457 51.0077 36.2266C51.578 36.1484 51.9921 35.8789 52.2968 35.543C52.0937 37.1016 51.2499 37.9219 51.2499 37.9219H54.7655C54.121 37.1992 53.8944 36.1875 53.8124 35.5508C54.1132 35.8867 54.5312 36.1562 55.0937 36.2266C56.9101 36.4492 58.0663 35.4141 58.2968 34.3125C58.5312 33.2109 58.4335 31.875 57.2109 30.5469H57.203Z" fill="#292929" stroke="black" stroke-width="0.5625" stroke-linecap="round" stroke-linejoin="round"/>
<path d="M131.527 207.84C129.832 206.113 128.965 204.039 128.926 201.613C128.926 199.98 129.383 198.398 130.305 196.859C131.258 195.344 132.496 194.25 134.027 193.582C135.008 193.156 136.043 192.938 137.129 192.938C138.488 192.938 139.84 193.254 141.164 193.867C142.492 194.488 143.68 195.359 144.715 196.477C145.109 196.922 145.477 197.387 145.809 197.871C147.09 199.852 147.734 201.977 147.734 204.254V204.328C147.734 207.426 146.602 210.141 144.332 212.488C141.969 214.738 139.246 215.863 136.172 215.863C135.195 215.863 134.242 215.746 133.312 215.504C132.887 215.398 132.457 215.273 132.047 215.113C132.023 215.109 132.008 215.102 132 215.102C131.949 215.102 131.91 215.137 131.887 215.211L131.918 215.641H130.852V210.336H131.918L131.887 210.766C131.887 211.289 132.113 211.719 132.562 212.047C132.594 212.07 132.629 212.094 132.676 212.109C133 212.316 133.328 212.504 133.664 212.672C134.453 212.992 135.25 213.254 136.066 213.449C136.883 213.645 137.687 213.742 138.48 213.742C140.527 213.742 142.246 213.074 143.625 211.746C144.953 210.359 145.621 208.648 145.621 206.633C145.621 206.332 145.605 206.023 145.574 205.727C144.789 207.164 143.707 208.305 142.32 209.145C140.934 209.984 139.418 210.398 137.777 210.398C135.422 210.398 133.344 209.543 131.527 207.84ZM141.902 207.984C142.672 207.668 143.305 207.164 143.777 206.477C144.25 205.785 144.504 205.004 144.531 204.137V203.977C144.531 203.07 144.344 202.191 143.969 201.352C143.594 200.512 143.094 199.734 142.469 199.02C141.848 198.309 141.156 197.676 140.395 197.129C139.629 196.582 138.848 196.125 138.055 195.773C137.559 195.555 137.055 195.359 136.523 195.188C136 195.016 135.457 194.926 134.918 194.926C134.672 194.926 134.406 194.953 134.145 195C133.09 195.246 132.309 195.801 131.797 196.648C131.289 197.496 131.039 198.422 131.039 199.41C131.039 199.727 131.07 200.031 131.117 200.332C131.438 202.191 132.367 203.895 133.891 205.434C134.895 206.437 136.004 207.188 137.219 207.691C138.211 208.086 139.164 208.281 140.062 208.281C140.723 208.281 141.332 208.176 141.902 207.969V207.984Z" fill="black"/>
<path d="M111.262 207.238C112.484 208.574 113.902 209.871 114.496 210.555C114.938 211.066 115.254 211.453 115.387 211.621C115.395 211.637 115.41 211.648 115.418 211.664C115.426 211.648 115.441 211.637 115.449 211.621C115.574 211.453 115.891 211.074 116.34 210.555C116.934 209.871 118.352 208.574 119.574 207.238C120.797 205.906 120.895 204.578 120.66 203.477C120.43 202.371 119.274 201.328 117.457 201.562C116.887 201.637 116.477 201.906 116.168 202.246C116.371 200.684 117.219 199.867 117.219 199.867H113.699C114.344 200.586 114.57 201.602 114.652 202.238C114.352 201.898 113.934 201.629 113.371 201.562C111.555 201.336 110.402 202.371 110.168 203.477C109.938 204.578 110.031 205.914 111.254 207.238H111.262Z" fill="#292929" stroke="black" stroke-width="0.5625" stroke-linecap="round" stroke-linejoin="round"/>
<path d="M71.129 56.3164C68.8282 53.8125 66.1563 51.3594 65.0391 50.0781C64.1993 49.1172 63.6094 48.3828 63.3594 48.0742C63.3399 48.0508 63.3165 48.0234 63.3008 48C63.2774 48.0234 63.254 48.0508 63.2422 48.0742C62.9922 48.3828 62.4024 49.1094 61.5625 50.0781C60.4414 51.3594 57.7657 53.8125 55.4688 56.3164C53.168 58.8242 52.9805 61.3359 53.4141 63.4141C53.8516 65.4883 56.0274 67.4492 59.4454 67.0195C60.5196 66.8867 61.3047 66.3672 61.8751 65.7305C61.4922 68.6758 59.9024 70.207 59.9024 70.207H66.5313C65.3243 68.8594 64.8907 66.9375 64.7422 65.7461C65.3125 66.3828 66.0899 66.8867 67.1563 67.0195C70.5743 67.4492 72.75 65.4883 73.1875 63.4141C73.6211 61.3359 73.4336 58.8242 71.129 56.3164Z" fill="#292929" stroke="black" stroke-width="0.5625" stroke-linecap="round" stroke-linejoin="round"/>
<path d="M113.047 56.3164C110.746 53.8125 108.074 51.3594 106.957 50.0781C106.117 49.1172 105.527 48.3828 105.277 48.0742C105.254 48.0508 105.234 48.0234 105.219 48C105.195 48.0234 105.172 48.0508 105.156 48.0742C104.91 48.3828 104.316 49.1094 103.477 50.0781C102.359 51.3594 99.6837 53.8125 97.3868 56.3164C95.086 58.8242 94.8985 61.3359 95.3321 63.4141C95.7696 65.4883 97.9415 67.4492 101.363 67.0195C102.438 66.8867 103.223 66.3672 103.793 65.7305C103.41 68.6758 101.82 70.207 101.82 70.207H108.449C107.242 68.8594 106.809 66.9375 106.656 65.7461C107.227 66.3828 108.008 66.8867 109.074 67.0195C112.492 67.4492 114.668 65.4883 115.102 63.4141C115.539 61.3359 115.352 58.8242 113.047 56.3164Z" fill="#292929" stroke="black" stroke-width="0.5625" stroke-linecap="round" stroke-linejoin="round"/>
<path d="M71.129 114.238C68.8282 111.734 66.1563 109.281 65.0391 108C64.1993 107.039 63.6094 106.305 63.3594 105.996C63.3399 105.977 63.3165 105.945 63.3008 105.922C63.2774 105.945 63.254 105.977 63.2422 105.996C62.9922 106.305 62.4024 107.031 61.5625 108C60.4414 109.281 57.7657 111.734 55.4688 114.238C53.168 116.746 52.9805 119.258 53.4141 121.336C53.8516 123.414 56.0274 125.371 59.4454 124.941C60.5196 124.809 61.3047 124.289 61.8751 123.652C61.4922 126.602 59.9024 128.129 59.9024 128.129H66.5313C65.3243 126.781 64.8907 124.859 64.7422 123.668C65.3125 124.305 66.0899 124.809 67.1563 124.941C70.5743 125.371 72.75 123.414 73.1875 121.336C73.6211 119.258 73.4336 116.746 71.129 114.238Z" fill="#292929" stroke="black" stroke-width="0.5625" stroke-linecap="round" stroke-linejoin="round"/>
<path d="M113.047 114.238C110.746 111.734 108.074 109.281 106.957 108C106.117 107.039 105.527 106.305 105.277 105.996C105.254 105.977 105.234 105.945 105.219 105.922C105.195 105.945 105.172 105.977 105.156 105.996C104.91 106.305 104.316 107.031 103.477 108C102.359 109.281 99.6837 111.734 97.3868 114.238C95.086 116.746 94.8985 119.258 95.3321 121.336C95.7696 123.414 97.9415 125.371 101.363 124.941C102.438 124.809 103.223 124.289 103.793 123.652C103.41 126.602 101.82 128.129 101.82 128.129H108.449C107.242 126.781 106.809 124.859 106.656 123.668C107.227 124.305 108.008 124.809 109.074 124.941C112.492 125.371 114.668 123.414 115.102 121.336C115.539 119.258 115.352 116.746 113.047 114.238Z" fill="#292929" stroke="black" stroke-width="0.5625" stroke-linecap="round" stroke-linejoin="round"/>
<path d="M71.129 172.164C68.8282 169.656 66.1563 167.203 65.0391 165.922C64.1993 164.961 63.6094 164.227 63.3594 163.922C63.3399 163.898 63.3165 163.867 63.3008 163.844C63.2774 163.867 63.254 163.898 63.2422 163.922C62.9922 164.227 62.4024 164.953 61.5625 165.922C60.4414 167.203 57.7657 169.656 55.4688 172.164C53.168 174.668 52.9805 177.18 53.4141 179.258C53.8516 181.336 56.0274 183.293 59.4454 182.863C60.5196 182.73 61.3047 182.211 61.8751 181.574C61.4922 184.523 59.9024 186.051 59.9024 186.051H66.5313C65.3243 184.703 64.8907 182.781 64.7422 181.59C65.3125 182.227 66.0899 182.73 67.1563 182.863C70.5743 183.293 72.75 181.336 73.1875 179.258C73.6211 177.18 73.4336 174.668 71.129 172.164Z" fill="#292929" stroke="black" stroke-width="0.5625" stroke-linecap="round" stroke-linejoin="round"/>
<path d="M113.047 172.164C110.746 169.656 108.074 167.203 106.957 165.922C106.117 164.961 105.527 164.227 105.277 163.922C105.254 163.898 105.234 163.867 105.219 163.844C105.195 163.867 105.172 163.898 105.156 163.922C104.91 164.227 104.316 164.953 103.477 165.922C102.359 167.203 99.6837 169.656 97.3868 172.164C95.086 174.668 94.8985 177.18 95.3321 179.258C95.7696 181.336 97.9415 183.293 101.363 182.863C102.438 182.73 103.223 182.211 103.793 181.574C103.41 184.523 101.82 186.051 101.82 186.051H108.449C107.242 184.703 106.809 182.781 106.656 181.59C107.227 182.227 108.008 182.73 109.074 182.863C112.492 183.293 114.668 181.336 115.102 179.258C115.539 177.18 115.352 174.668 113.047 172.164Z" fill="#292929" stroke="black" stroke-width="0.5625" stroke-linecap="round" stroke-linejoin="round"/>
<defs>
<linearGradient id="paint0_linear_2314_1252" x1="157.696" y1="48.8925" x2="11.0556" y2="48.8925" gradientUnits="userSpaceOnUse">
<stop stop-color="#8F8587"/>
<stop offset="0.00390625" stop-color="#908688"/>
<stop offset="0.0078125" stop-color="#918789"/>
<stop offset="0.0117188" stop-color="#92888A"/>
<stop offset="0.015625" stop-color="#92898B"/>
<stop offset="0.0195313" stop-color="#938A8B"/>
<stop offset="0.0234375" stop-color="#948B8C"/>
<stop offset="0.0273438" stop-color="#958C8D"/>
<stop offset="0.03125" stop-color="#968D8E"/>
<stop offset="0.0351563" stop-color="#978D8F"/>
<stop offset="0.0390625" stop-color="#988E90"/>
<stop offset="0.0429688" stop-color="#988F91"/>
<stop offset="0.046875" stop-color="#999092"/>
<stop offset="0.0507813" stop-color="#9A9193"/>
<stop offset="0.0546875" stop-color="#9B9294"/>
<stop offset="0.0585938" stop-color="#9C9395"/>
<stop offset="0.0625" stop-color="#9D9496"/>
<stop offset="0.0664063" stop-color="#9D9596"/>
<stop offset="0.0703125" stop-color="#9E9697"/>
<stop offset="0.0742188" stop-color="#9F9798"/>
<stop offset="0.078125" stop-color="#A09899"/>
<stop offset="0.0820313" stop-color="#A1999A"/>
<stop offset="0.0859375" stop-color="#A2999B"/>
<stop offset="0.0898438" stop-color="#A39A9C"/>
<stop offset="0.09375" stop-color="#A39B9D"/>
<stop offset="0.0976563" stop-color="#A49C9E"/>
<stop offset="0.101563" stop-color="#A59D9F"/>
<stop offset="0.105469" stop-color="#A69EA0"/>
<stop offset="0.109375" stop-color="#A79FA0"/>
<stop offset="0.113281" stop-color="#A8A0A1"/>
<stop offset="0.117188" stop-color="#A8A1A2"/>
<stop offset="0.121094" stop-color="#A9A2A3"/>
<stop offset="0.125" stop-color="#AAA3A4"/>
<stop offset="0.128906" stop-color="#ABA4A5"/>
<stop offset="0.132813" stop-color="#ACA5A6"/>
<stop offset="0.136719" stop-color="#ADA5A7"/>
<stop offset="0.140625" stop-color="#AEA6A8"/>
<stop offset="0.144531" stop-color="#AEA7A9"/>
<stop offset="0.148438" stop-color="#AFA8AA"/>
<stop offset="0.152344" stop-color="#B0A9AB"/>
<stop offset="0.15625" stop-color="#B1AAAB"/>
<stop offset="0.160156" stop-color="#B2ABAC"/>
<stop offset="0.164063" stop-color="#B3ACAD"/>
<stop offset="0.167969" stop-color="#B3ADAE"/>
<stop offset="0.171875" stop-color="#B4AEAF"/>
<stop offset="0.175781" stop-color="#B5AFB0"/>
<stop offset="0.179688" stop-color="#B6B0B1"/>
<stop offset="0.183594" stop-color="#B7B1B2"/>
<stop offset="0.1875" stop-color="#B8B2B3"/>
<stop offset="0.191406" stop-color="#B9B2B4"/>
<stop offset="0.195313" stop-color="#B9B3B5"/>
<stop offset="0.199219" stop-color="#BAB4B5"/>
<stop offset="0.203125" stop-color="#BBB5B6"/>
<stop offset="0.207031" stop-color="#BCB6B7"/>
<stop offset="0.210938" stop-color="#BDB7B8"/>
<stop offset="0.214844" stop-color="#BEB8B9"/>
<stop offset="0.21875" stop-color="#BEB9BA"/>
<stop offset="0.222656" stop-color="#BFBABB"/>
<stop offset="0.226563" stop-color="#C0BBBC"/>
<stop offset="0.230469" stop-color="#C1BCBD"/>
<stop offset="0.234375" stop-color="#C2BDBE"/>
<stop offset="0.238281" stop-color="#C3BEBF"/>
<stop offset="0.242188" stop-color="#C3BEBF"/>
<stop offset="0.246094" stop-color="#C4BFC0"/>
<stop offset="0.25" stop-color="#C5C0C1"/>
<stop offset="0.253906" stop-color="#C6C1C2"/>
<stop offset="0.257813" stop-color="#C6C2C3"/>
<stop offset="0.261719" stop-color="#C7C3C3"/>
<stop offset="0.265625" stop-color="#C8C3C4"/>
<stop offset="0.269531" stop-color="#C9C4C5"/>
<stop offset="0.273438" stop-color="#C9C5C6"/>
<stop offset="0.277344" stop-color="#CAC6C7"/>
<stop offset="0.28125" stop-color="#CBC7C7"/>
<stop offset="0.285156" stop-color="#CCC7C8"/>
<stop offset="0.289063" stop-color="#CCC8C9"/>
<stop offset="0.292969" stop-color="#CDC9CA"/>
<stop offset="0.296875" stop-color="#CECACB"/>
<stop offset="0.300781" stop-color="#CFCBCB"/>
<stop offset="0.304688" stop-color="#CFCCCC"/>
<stop offset="0.308594" stop-color="#D0CCCD"/>
<stop offset="0.3125" stop-color="#D1CDCE"/>
<stop offset="0.316406" stop-color="#D2CECF"/>
<stop offset="0.320313" stop-color="#D2CFCF"/>
<stop offset="0.324219" stop-color="#D3D0D0"/>
<stop offset="0.328125" stop-color="#D4D0D1"/>
<stop offset="0.332031" stop-color="#D5D1D2"/>
<stop offset="0.335938" stop-color="#D5D2D3"/>
<stop offset="0.339844" stop-color="#D6D3D3"/>
<stop offset="0.34375" stop-color="#D7D4D4"/>
<stop offset="0.347656" stop-color="#D8D5D5"/>
<stop offset="0.351563" stop-color="#D8D5D6"/>
<stop offset="0.355469" stop-color="#D9D6D7"/>
<stop offset="0.359375" stop-color="#DAD7D7"/>
<stop offset="0.363281" stop-color="#DBD8D8"/>
<stop offset="0.367188" stop-color="#DBD9D9"/>
<stop offset="0.371094" stop-color="#DCDADA"/>
<stop offset="0.375" stop-color="#DDDADB"/>
<stop offset="0.378906" stop-color="#DEDBDB"/>
<stop offset="0.382813" stop-color="#DEDCDC"/>
<stop offset="0.386719" stop-color="#DFDDDD"/>
<stop offset="0.390625" stop-color="#E0DEDE"/>
<stop offset="0.394531" stop-color="#E1DEDF"/>
<stop offset="0.398438" stop-color="#E1DFE0"/>
<stop offset="0.402344" stop-color="#E2E0E0"/>
<stop offset="0.40625" stop-color="#E3E1E1"/>
<stop offset="0.410156" stop-color="#E4E2E2"/>
<stop offset="0.414063" stop-color="#E4E3E3"/>
<stop offset="0.417969" stop-color="#E5E3E4"/>
<stop offset="0.421875" stop-color="#E6E4E4"/>
<stop offset="0.425781" stop-color="#E6E5E5"/>
<stop offset="0.429688" stop-color="#E7E6E6"/>
<stop offset="0.433594" stop-color="#E8E7E7"/>
<stop offset="0.4375" stop-color="#E9E7E8"/>
<stop offset="0.441406" stop-color="#E9E8E8"/>
<stop offset="0.445313" stop-color="#EAE9E9"/>
<stop offset="0.449219" stop-color="#EBEAEA"/>
<stop offset="0.453125" stop-color="#ECEBEB"/>
<stop offset="0.457031" stop-color="#ECEBEB"/>
<stop offset="0.460938" stop-color="#EDECEC"/>
<stop offset="0.464844" stop-color="#EDECEC"/>
<stop offset="0.46875" stop-color="#EEEDED"/>
<stop offset="0.472656" stop-color="#EEEEEE"/>
<stop offset="0.476563" stop-color="#EFEEEE"/>
<stop offset="0.480469" stop-color="#EFEFEF"/>
<stop offset="0.484375" stop-color="#F0EFEF"/>
<stop offset="0.488281" stop-color="#F1F0F0"/>
<stop offset="0.492188" stop-color="#F1F1F1"/>
<stop offset="0.496094" stop-color="#F2F1F1"/>
<stop offset="0.5" stop-color="#F2F2F2"/>
<stop offset="0.503906" stop-color="#F3F2F2"/>
<stop offset="0.507812" stop-color="#F3F3F3"/>
<stop offset="0.511719" stop-color="#F4F4F4"/>
<stop offset="0.515625" stop-color="#F5F4F4"/>
<stop offset="0.519531" stop-color="#F5F5F5"/>
<stop offset="0.523438" stop-color="#F6F5F5"/>
<stop offset="0.527344" stop-color="#F6F6F6"/>
<stop offset="0.53125" stop-color="#F7F7F7"/>
<stop offset="0.535156" stop-color="#F7F7F7"/>
<stop offset="0.539062" stop-color="#F8F8F8"/>
<stop offset="0.542969" stop-color="#F8F8F8"/>
<stop offset="0.546875" stop-color="#F9F9F9"/>
<stop offset="0.550781" stop-color="#FAFAFA"/>
<stop offset="0.554688" stop-color="#FAFAFA"/>
<stop offset="0.5625" stop-color="#FBFBFB"/>
<stop offset="0.625" stop-color="#FBFBFB"/>
<stop offset="0.75" stop-color="#FBFBFB"/>
<stop offset="1" stop-color="#FBFBFB"/>
</linearGradient>
<linearGradient id="paint1_linear_2314_1252" x1="10.9056" y1="187.882" x2="157.621" y2="187.882" gradientUnits="userSpaceOnUse">
<stop stop-color="#8F8587"/>
<stop offset="0.00390625" stop-color="#908688"/>
<stop offset="0.0078125" stop-color="#918789"/>
<stop offset="0.0117188" stop-color="#91888A"/>
<stop offset="0.015625" stop-color="#92898A"/>
<stop offset="0.0195312" stop-color="#938A8B"/>
<stop offset="0.0234375" stop-color="#948A8C"/>
<stop offset="0.0273438" stop-color="#958B8D"/>
<stop offset="0.03125" stop-color="#968C8E"/>
<stop offset="0.0351562" stop-color="#968D8F"/>
<stop offset="0.0390625" stop-color="#978E90"/>
<stop offset="0.0429687" stop-color="#988F91"/>
<stop offset="0.046875" stop-color="#999091"/>
<stop offset="0.0507812" stop-color="#9A9192"/>
<stop offset="0.0546875" stop-color="#9A9293"/>
<stop offset="0.0585938" stop-color="#9B9294"/>
<stop offset="0.0625" stop-color="#9C9395"/>
<stop offset="0.0664062" stop-color="#9D9496"/>
<stop offset="0.0703125" stop-color="#9E9597"/>
<stop offset="0.0742188" stop-color="#9E9698"/>
<stop offset="0.078125" stop-color="#9F9798"/>
<stop offset="0.0820312" stop-color="#A09899"/>
<stop offset="0.0859375" stop-color="#A1999A"/>
<stop offset="0.0898438" stop-color="#A29A9B"/>
<stop offset="0.09375" stop-color="#A39A9C"/>
<stop offset="0.0976562" stop-color="#A39B9D"/>
<stop offset="0.101562" stop-color="#A49C9E"/>
<stop offset="0.105469" stop-color="#A59D9F"/>
<stop offset="0.109375" stop-color="#A69E9F"/>
<stop offset="0.113281" stop-color="#A79FA0"/>
<stop offset="0.117188" stop-color="#A7A0A1"/>
<stop offset="0.121094" stop-color="#A8A1A2"/>
<stop offset="0.125" stop-color="#A9A2A3"/>
<stop offset="0.128906" stop-color="#AAA2A4"/>
<stop offset="0.132813" stop-color="#ABA3A5"/>
<stop offset="0.136719" stop-color="#ABA4A6"/>
<stop offset="0.140625" stop-color="#ACA5A6"/>
<stop offset="0.144531" stop-color="#ADA6A7"/>
<stop offset="0.148438" stop-color="#AEA7A8"/>
<stop offset="0.152344" stop-color="#AFA8A9"/>
<stop offset="0.15625" stop-color="#B0A9AA"/>
<stop offset="0.160156" stop-color="#B0AAAB"/>
<stop offset="0.164062" stop-color="#B1AAAC"/>
<stop offset="0.167969" stop-color="#B2ABAD"/>
<stop offset="0.171875" stop-color="#B3ACAD"/>
<stop offset="0.175781" stop-color="#B4ADAE"/>
<stop offset="0.179688" stop-color="#B4AEAF"/>
<stop offset="0.183594" stop-color="#B5AFB0"/>
<stop offset="0.1875" stop-color="#B6B0B1"/>
<stop offset="0.191406" stop-color="#B7B1B2"/>
<stop offset="0.195313" stop-color="#B8B2B3"/>
<stop offset="0.199219" stop-color="#B9B2B4"/>
<stop offset="0.203125" stop-color="#B9B3B4"/>
<stop offset="0.207031" stop-color="#BAB4B5"/>
<stop offset="0.210938" stop-color="#BBB5B6"/>
<stop offset="0.214844" stop-color="#BCB6B7"/>
<stop offset="0.21875" stop-color="#BDB7B8"/>
<stop offset="0.222656" stop-color="#BDB8B9"/>
<stop offset="0.226563" stop-color="#BEB9BA"/>
<stop offset="0.230469" stop-color="#BFBABB"/>
<stop offset="0.234375" stop-color="#C0BABB"/>
<stop offset="0.238281" stop-color="#C1BBBC"/>
<stop offset="0.242188" stop-color="#C1BCBD"/>
<stop offset="0.246094" stop-color="#C2BDBE"/>
<stop offset="0.25" stop-color="#C3BEBF"/>
<stop offset="0.253906" stop-color="#C4BFC0"/>
<stop offset="0.257812" stop-color="#C5C0C1"/>
<stop offset="0.261719" stop-color="#C5C0C1"/>
<stop offset="0.265625" stop-color="#C6C1C2"/>
<stop offset="0.269531" stop-color="#C7C2C3"/>
<stop offset="0.273437" stop-color="#C8C3C4"/>
<stop offset="0.277344" stop-color="#C8C4C5"/>
<stop offset="0.28125" stop-color="#C9C5C5"/>
<stop offset="0.285156" stop-color="#CAC5C6"/>
<stop offset="0.289062" stop-color="#CBC6C7"/>
<stop offset="0.292969" stop-color="#CBC7C8"/>
<stop offset="0.296875" stop-color="#CCC8C9"/>
<stop offset="0.300781" stop-color="#CDC9C9"/>
<stop offset="0.304688" stop-color="#CDC9CA"/>
<stop offset="0.308594" stop-color="#CECACB"/>
<stop offset="0.3125" stop-color="#CFCBCC"/>
<stop offset="0.316406" stop-color="#D0CCCD"/>
<stop offset="0.320313" stop-color="#D0CDCD"/>
<stop offset="0.324219" stop-color="#D1CECE"/>
<stop offset="0.328125" stop-color="#D2CECF"/>
<stop offset="0.332031" stop-color="#D3CFD0"/>
<stop offset="0.335938" stop-color="#D3D0D1"/>
<stop offset="0.339844" stop-color="#D4D1D1"/>
<stop offset="0.34375" stop-color="#D5D2D2"/>
<stop offset="0.347656" stop-color="#D6D2D3"/>
<stop offset="0.351562" stop-color="#D6D3D4"/>
<stop offset="0.355469" stop-color="#D7D4D5"/>
<stop offset="0.359375" stop-color="#D8D5D5"/>
<stop offset="0.363281" stop-color="#D9D6D6"/>
<stop offset="0.367188" stop-color="#D9D7D7"/>
<stop offset="0.371094" stop-color="#DAD7D8"/>
<stop offset="0.375" stop-color="#DBD8D9"/>
<stop offset="0.378906" stop-color="#DCD9D9"/>
<stop offset="0.382812" stop-color="#DCDADA"/>
<stop offset="0.386719" stop-color="#DDDBDB"/>
<stop offset="0.390625" stop-color="#DEDCDC"/>
<stop offset="0.394531" stop-color="#DFDCDD"/>
<stop offset="0.398438" stop-color="#DFDDDD"/>
<stop offset="0.402344" stop-color="#E0DEDE"/>
<stop offset="0.40625" stop-color="#E1DFDF"/>
<stop offset="0.410156" stop-color="#E2E0E0"/>
<stop offset="0.414062" stop-color="#E2E0E1"/>
<stop offset="0.417969" stop-color="#E3E1E1"/>
<stop offset="0.421875" stop-color="#E4E2E2"/>
<stop offset="0.425781" stop-color="#E5E3E3"/>
<stop offset="0.429688" stop-color="#E5E4E4"/>
<stop offset="0.433594" stop-color="#E6E5E5"/>
<stop offset="0.4375" stop-color="#E7E5E5"/>
<stop offset="0.441406" stop-color="#E8E6E6"/>
<stop offset="0.445312" stop-color="#E8E7E7"/>
<stop offset="0.449219" stop-color="#E9E8E8"/>
<stop offset="0.453125" stop-color="#EAE9E9"/>
<stop offset="0.457031" stop-color="#EBE9E9"/>
<stop offset="0.460938" stop-color="#EBEAEA"/>
<stop offset="0.464844" stop-color="#ECEBEB"/>
<stop offset="0.46875" stop-color="#ECEBEB"/>
<stop offset="0.472656" stop-color="#EDECEC"/>
<stop offset="0.476562" stop-color="#EDEDED"/>
<stop offset="0.480469" stop-color="#EEEDED"/>
<stop offset="0.484375" stop-color="#EFEEEE"/>
<stop offset="0.488281" stop-color="#EFEEEE"/>
<stop offset="0.492187" stop-color="#F0EFEF"/>
<stop offset="0.496094" stop-color="#F0F0F0"/>
<stop offset="0.5" stop-color="#F1F0F0"/>
<stop offset="0.503906" stop-color="#F1F1F1"/>
<stop offset="0.507812" stop-color="#F2F1F1"/>
<stop offset="0.511719" stop-color="#F3F2F2"/>
<stop offset="0.515625" stop-color="#F3F3F3"/>
<stop offset="0.519531" stop-color="#F4F3F3"/>
<stop offset="0.523438" stop-color="#F4F4F4"/>
<stop offset="0.527344" stop-color="#F5F4F4"/>
<stop offset="0.53125" stop-color="#F5F5F5"/>
<stop offset="0.535156" stop-color="#F6F6F6"/>
<stop offset="0.539062" stop-color="#F6F6F6"/>
<stop offset="0.542969" stop-color="#F7F7F7"/>
<stop offset="0.546875" stop-color="#F8F7F7"/>
<stop offset="0.550781" stop-color="#F8F8F8"/>
<stop offset="0.554688" stop-color="#F9F9F9"/>
<stop offset="0.558594" stop-color="#F9F9F9"/>
<stop offset="0.5625" stop-color="#FAFAFA"/>
<stop offset="0.566406" stop-color="#FAFAFA"/>
<stop offset="0.570312" stop-color="#FBFBFB"/>
<stop offset="0.578125" stop-color="#FBFBFB"/>
<stop offset="0.59375" stop-color="#FBFBFB"/>
<stop offset="0.625" stop-color="#FBFBFB"/>
<stop offset="0.75" stop-color="#FBFBFB"/>
<stop offset="1" stop-color="#FBFBFB"/>
</linearGradient>
</defs>
</svg>
