<svg width="170" height="238" viewBox="0 0 170 238" fill="none" xmlns="http://www.w3.org/2000/svg">
<mask id="mask0_2314_1336" style="mask-type:luminance" maskUnits="userSpaceOnUse" x="0" y="0" width="170" height="238">
<path d="M0 0H169.5V238H0V0Z" fill="white"/>
</mask>
<g mask="url(#mask0_2314_1336)">
<path d="M163.453 237.691H6.9375C3.61328 237.691 0.921875 234.977 0.921875 231.629V6.05859C0.921875 2.71484 3.61328 0 6.9375 0H163.453C166.777 0 169.469 2.71484 169.469 6.05859V231.629C169.469 234.977 166.777 237.691 163.453 237.691Z" fill="white"/>
</g>
<mask id="mask1_2314_1336" style="mask-type:luminance" maskUnits="userSpaceOnUse" x="11" y="10" width="148" height="78">
<path d="M11 10H159V88H11V10Z" fill="white"/>
</mask>
<g mask="url(#mask1_2314_1336)">
<mask id="mask2_2314_1336" style="mask-type:luminance" maskUnits="userSpaceOnUse" x="11" y="10" width="148" height="78">
<path d="M158.602 87.7422C158.602 61.8438 158.609 35.9414 158.617 10.043C109.762 10.043 60.8984 10.043 12.0469 10.0508C12.0234 35.5273 12 61.0039 11.9766 86.4844C14.543 75.0469 19.7187 58.1758 29.5859 49.1719C37.1406 42.2852 40.9141 38.8359 43.8672 37.4531C45.2383 36.8086 49.6289 34.9141 53.2578 30.4805C53.9336 29.6641 54.4219 28.9414 54.7266 28.4609C55.043 28.8828 56.2578 30.4336 57.9297 30.4648C60.1055 30.5039 62.5352 27.9531 62.6562 24.1133C62.9102 24.6836 65.0469 29.2266 69.9062 30.2539C72.2461 30.75 74.2109 30.2266 75.2266 29.8633C75.8867 29.3164 76.7617 28.4688 77.5664 27.2539C78.3516 26.0625 78.7812 24.9453 79.0273 24.1367H91.5742C91.6484 24.6016 92.2578 28.0273 95.3789 29.7383C98.4297 31.4102 101.527 30.1367 102.48 29.7539C105.773 28.4258 107.168 25.6875 107.477 25.043C108.219 28.582 110.691 30.7734 112.867 30.6016C113.219 30.5703 114.352 30.4219 115.531 29.1016L119.289 32.2266C120.758 33.0977 122.82 34.3789 125.199 36.0469C127.988 37.9961 137.242 44.5664 144.512 54.0078C154.164 66.5469 157.395 80.3555 158.594 87.7266L158.602 87.7422Z" fill="white"/>
</mask>
<g mask="url(#mask2_2314_1336)">
<path d="M11.9766 10.043V87.7422H158.617V10.043H11.9766Z" fill="url(#paint0_linear_2314_1336)"/>
</g>
</g>
<path d="M158.992 227.844H11.5195C11.5195 182.512 11.5195 137.184 11.5195 91.8516C11.5195 64.4609 11.5195 37.0781 11.5195 9.69141H158.992C158.992 37.0352 158.992 64.3789 158.992 91.7266C158.992 137.102 158.992 182.469 158.992 227.844Z" stroke="#0E0E0E" stroke-width="0.75" stroke-linecap="round" stroke-linejoin="round"/>
<path d="M85.1758 32.1211C85.125 31.5 84.8711 29.3164 83.0625 27.4648C81.4414 25.8008 79.5391 25.4023 78.8867 25.2891C78.9375 24.6367 78.9883 23.9844 79.043 23.332C79.8984 22.9336 81.6133 21.9883 83.0391 20.0781C84.4883 18.1367 84.8984 16.1992 85.0352 15.2617C85.3711 16.4336 86.1133 18.4336 87.8086 20.3867C89.1133 21.8867 90.5039 22.8008 91.4609 23.332C91.5156 23.9844 91.5664 24.6367 91.6211 25.2891C91.1562 25.3359 88.1641 25.6797 86.3633 28.2969C85.3047 29.8438 85.1758 31.418 85.1641 32.1211H85.1758Z" fill="white"/>
<path d="M53.9609 21.6758C54.7969 21.4336 56.168 21.1718 57.7188 21.5468C59.0781 21.8711 59.9922 22.5312 60.5117 22.9218C65.0703 26.3398 65.7461 28.9961 68.8789 30.1953C69.2852 30.3515 72.2188 31.3203 75.1719 29.9414C77.2578 28.9648 78.7422 26.7461 78.9766 24.3359C79.3047 20.8867 76.9062 17.4765 74.1211 16.8515C73.8008 16.7773 72.0469 16.3867 70.6133 17.4609C70.4336 17.5937 69.3242 18.4492 69.164 19.957C69.1406 20.1836 68.9609 22.125 70.4492 23.0703C71.2812 23.5937 72.336 23.625 73.1758 23.2343C74.3711 22.6875 75.0898 21.3164 74.9023 19.8437C75.1953 20.1679 75.6016 20.6718 75.9219 21.3593C76.0781 21.6914 77.1015 23.9492 76.125 26.1133C74.9414 28.7539 71.707 29.2187 71.2734 29.2812C68.3867 29.6914 65.3867 28.1758 63.4219 25.4531" stroke="#0E0E0E" stroke-width="0.75" stroke-linecap="round" stroke-linejoin="round"/>
<path d="M79.043 23.2422C79.6133 22.9648 80.5039 22.4609 81.4141 21.6367C84.3164 18.9883 84.8477 15.3164 85.086 13.6797C85.2227 12.7578 85.3438 11.3867 85.1836 9.68359" stroke="#0E0E0E" stroke-width="0.75" stroke-linecap="round" stroke-linejoin="round"/>
<path d="M78.8867 25.1992C79.5977 25.3281 80.3711 25.5508 81.1367 25.9414C84.5938 27.7031 85.1016 31.3945 85.1758 32.0312" stroke="#0E0E0E" stroke-width="0.75" stroke-linecap="round" stroke-linejoin="round"/>
<path d="M116.543 21.6758C115.711 21.4336 114.336 21.1718 112.785 21.5468C111.426 21.8711 110.512 22.5312 109.996 22.9218C105.434 26.3398 104.762 28.9961 101.625 30.1953C101.219 30.3515 98.2891 31.3203 95.332 29.9414C93.2461 28.9648 91.7617 26.7461 91.5313 24.3359C91.1992 20.8867 93.6016 17.4765 96.3828 16.8515C96.7032 16.7773 98.4609 16.3867 99.8906 17.4609C100.074 17.5937 101.184 18.4492 101.34 19.957C101.363 20.1836 101.543 22.125 100.059 23.0703C99.2266 23.5937 98.168 23.625 97.3282 23.2343C96.1368 22.6875 95.4141 21.3164 95.6016 19.8437C95.3086 20.1679 94.9063 20.6718 94.582 21.3593C94.4258 21.6914 93.4063 23.9492 94.3789 26.1133C95.5664 28.7539 98.7969 29.2187 99.2344 29.2812C102.121 29.6914 105.121 28.1758 107.086 25.4531" stroke="#0E0E0E" stroke-width="0.75" stroke-linecap="round" stroke-linejoin="round"/>
<path d="M91.6289 25.1992C90.9141 25.3281 90.1406 25.5508 89.3789 25.9414C85.9219 27.7031 85.4102 31.3945 85.3359 32.0312" stroke="#0E0E0E" stroke-width="0.75" stroke-linecap="round" stroke-linejoin="round"/>
<path d="M115.836 28.5312C115.727 28.7852 115.133 30.0977 113.746 30.5312C112.273 30.9961 110.984 30.1406 110.445 29.7812C108.172 28.2734 107.949 25.4023 107.926 24.9375" stroke="#0E0E0E" stroke-width="0.75" stroke-linecap="round" stroke-linejoin="round"/>
<path d="M123.809 35.4452C123.164 35.0781 122.258 34.5234 121.238 33.7812C118.289 31.6367 115.988 29.9609 115.387 27.2343C114.84 24.7499 115.957 22.6562 116.152 22.3046C117.988 18.9882 121.836 18.4413 122.633 18.3515C126.211 17.9492 129.84 19.8359 132.113 23.1367" stroke="#0E0E0E" stroke-width="0.75" stroke-linecap="round" stroke-linejoin="round"/>
<path d="M131.617 40.5977C131.656 32.8789 129.766 26.8203 126.773 25.1484C125.234 24.293 123.676 24.2695 123.676 24.2695C123.156 24.2695 120.539 24.3086 118.883 26.4687C117.406 28.3945 117.773 30.6016 117.84 30.9766" stroke="#0E0E0E" stroke-width="0.75" stroke-linecap="round" stroke-linejoin="round"/>
<path d="M152.746 36.6992C153.137 36.5039 154.379 35.9258 155.723 36.2696C158.113 36.8789 158.387 39.7657 158.398 39.9766C158.543 41.8125 157.418 43.9492 155.273 44.7149C153.621 45.3008 152.031 44.836 151.183 44.586C148.441 43.7852 146.933 41.918 146.183 40.9727C143.781 37.9141 144.953 36.4258 142.492 34.2539C141.824 33.6602 140.476 32.461 138.406 32.1446C136.254 31.8086 135.367 32.7383 133.402 32.1914C131.476 31.6485 130.476 30.2344 130.223 29.836C130.101 29.6563 128.699 27.3985 130.019 25.125C130.289 24.6524 131.094 23.2813 132.898 22.8828C134.543 22.5313 136.351 23.1289 137.34 24.3086C138.187 25.3125 138.433 26.7305 137.773 27.8555C137.633 28.1016 137.183 28.8672 136.164 29.1758C135.308 29.4297 134.219 29.3164 133.469 28.7188C132.808 28.1836 132.691 27.5039 132.668 27.3008" stroke="#0E0E0E" stroke-width="0.75" stroke-linecap="round" stroke-linejoin="round"/>
<path d="M144.039 36.3437C143.723 32.9258 141.977 30.1132 139.418 29.1992C138.832 28.9882 137.918 28.7773 136.703 28.9258" stroke="#0E0E0E" stroke-width="0.75" stroke-linecap="round" stroke-linejoin="round"/>
<path d="M146.641 41.6485C146.176 41.5274 144.238 41.0782 142.59 42.1563C140.602 43.461 139.809 46.4844 141.031 49.3516" stroke="#0E0E0E" stroke-width="0.75" stroke-linecap="round" stroke-linejoin="round"/>
<path d="M147.996 51.9609C147.691 51.9453 147.051 51.9531 146.379 52.3047C145.281 52.8828 144.922 53.9414 144.855 54.1797" stroke="#0E0E0E" stroke-width="0.75" stroke-linecap="round" stroke-linejoin="round"/>
<path d="M158.977 90.7734C158.961 90.668 158.949 90.4805 158.918 90.2617C158.332 85.125 155.023 61.1406 135.301 43.6406C132.848 41.4688 129.047 38.4141 123.809 35.4453" stroke="#0E0E0E" stroke-width="0.75" stroke-linecap="round" stroke-linejoin="round"/>
<path d="M85.1758 32.1211C85.125 31.5 84.8711 29.3164 83.0625 27.4648C81.4414 25.8008 79.5391 25.4023 78.8867 25.2891C78.9375 24.6367 78.9883 23.9844 79.043 23.332C79.8984 22.9336 81.6133 21.9883 83.039 20.0781C84.4883 18.1367 84.8985 16.1992 85.0352 15.2617C85.3711 16.4336 86.1133 18.4336 87.8086 20.3867C89.1133 21.8867 90.5039 22.8008 91.4609 23.332C91.5156 23.9844 91.5664 24.6367 91.6211 25.2891C91.1563 25.3359 88.1641 25.6797 86.3633 28.2969C85.3047 29.8437 85.1758 31.418 85.1641 32.1211H85.1758Z" fill="black" stroke="black" stroke-width="0.5625" stroke-linecap="round" stroke-linejoin="round"/>
<path d="M116.543 21.6758C115.711 21.4336 114.336 21.1718 112.785 21.5468C111.426 21.8711 110.512 22.5312 109.996 22.9218C105.434 26.3398 104.762 28.9961 101.625 30.1953C101.219 30.3515 98.2891 31.3203 95.332 29.9414C93.2461 28.9648 91.7617 26.7461 91.5313 24.3359C91.1992 20.8867 93.6016 17.4765 96.3828 16.8515C96.7032 16.7773 98.4609 16.3867 99.8906 17.4609C100.074 17.5937 101.184 18.4492 101.34 19.957C101.363 20.1836 101.543 22.125 100.059 23.0703C99.2266 23.5937 98.168 23.625 97.3282 23.2343C96.1368 22.6875 95.4141 21.3164 95.6016 19.8437C95.3086 20.1679 94.9063 20.6718 94.582 21.3593C94.4258 21.6914 93.4063 23.9492 94.3789 26.1133C95.5664 28.7539 98.7969 29.2187 99.2344 29.2812C102.121 29.6914 105.121 28.1758 107.086 25.4531" stroke="#0E0E0E" stroke-width="0.75" stroke-linecap="round" stroke-linejoin="round"/>
<path d="M91.4688 23.2422C90.3672 22.6953 89.5938 22.0859 89.1016 21.6367C85.754 18.5938 85.4336 14.0703 85.3125 12.4063C85.2305 11.2656 85.2735 10.3203 85.3282 9.68359" stroke="#0E0E0E" stroke-width="0.75" stroke-linecap="round" stroke-linejoin="round"/>
<path d="M91.6289 25.1992C90.9141 25.3281 90.1406 25.5508 89.3789 25.9414C85.9219 27.7031 85.4102 31.3945 85.3359 32.0312" stroke="#0E0E0E" stroke-width="0.75" stroke-linecap="round" stroke-linejoin="round"/>
<path d="M115.836 28.5312C115.727 28.7852 115.133 30.0977 113.746 30.5312C112.273 30.9961 110.984 30.1406 110.445 29.7812C108.172 28.2734 107.949 25.4023 107.926 24.9375" stroke="#0E0E0E" stroke-width="0.75" stroke-linecap="round" stroke-linejoin="round"/>
<path d="M123.809 35.4452C123.164 35.0781 122.258 34.5234 121.238 33.7812C118.289 31.6367 115.988 29.9609 115.387 27.2343C114.84 24.7499 115.957 22.6562 116.152 22.3046C117.988 18.9882 121.836 18.4413 122.633 18.3515C126.211 17.9492 129.84 19.8359 132.113 23.1367" stroke="#0E0E0E" stroke-width="0.75" stroke-linecap="round" stroke-linejoin="round"/>
<path d="M131.617 40.5977C131.656 32.8789 129.766 26.8203 126.773 25.1484C125.234 24.293 123.676 24.2695 123.676 24.2695C123.156 24.2695 120.539 24.3086 118.883 26.4687C117.406 28.3945 117.773 30.6016 117.84 30.9766" stroke="#0E0E0E" stroke-width="0.75" stroke-linecap="round" stroke-linejoin="round"/>
<path d="M152.746 36.6992C153.137 36.5039 154.379 35.9258 155.723 36.2696C158.113 36.8789 158.387 39.7657 158.398 39.9766C158.543 41.8125 157.418 43.9492 155.273 44.7149C153.621 45.3008 152.031 44.836 151.183 44.586C148.441 43.7852 146.933 41.918 146.183 40.9727C143.781 37.9141 144.953 36.4258 142.492 34.2539C141.824 33.6602 140.476 32.461 138.406 32.1446C136.254 31.8086 135.367 32.7383 133.402 32.1914C131.476 31.6485 130.476 30.2344 130.223 29.836C130.101 29.6563 128.699 27.3985 130.019 25.125C130.289 24.6524 131.094 23.2813 132.898 22.8828C134.543 22.5313 136.351 23.1289 137.34 24.3086C138.187 25.3125 138.433 26.7305 137.773 27.8555C137.633 28.1016 137.183 28.8672 136.164 29.1758C135.308 29.4297 134.219 29.3164 133.469 28.7188C132.808 28.1836 132.691 27.5039 132.668 27.3008" stroke="#0E0E0E" stroke-width="0.75" stroke-linecap="round" stroke-linejoin="round"/>
<path d="M144.039 36.3437C143.723 32.9258 141.977 30.1132 139.418 29.1992C138.832 28.9882 137.918 28.7773 136.703 28.9258" stroke="#0E0E0E" stroke-width="0.75" stroke-linecap="round" stroke-linejoin="round"/>
<path d="M158.887 48.4218C157.656 46.3124 155.691 44.9999 153.734 45.121C151.313 45.2694 149.887 47.5429 149.273 48.5233C145.809 54.0507 149.512 61.6054 150.082 62.7382" stroke="#0E0E0E" stroke-width="0.75" stroke-linecap="round" stroke-linejoin="round"/>
<path d="M158.941 90.0898C157.531 80.4375 152.949 59.3242 135.301 43.6406C131.461 40.2305 127.539 37.5508 123.809 35.4453" stroke="#0E0E0E" stroke-width="0.75" stroke-linecap="round" stroke-linejoin="round"/>
<mask id="mask3_2314_1336" style="mask-type:luminance" maskUnits="userSpaceOnUse" x="11" y="148" width="148" height="80">
<path d="M11 148H159V228H11V148Z" fill="white"/>
</mask>
<g mask="url(#mask3_2314_1336)">
<mask id="mask4_2314_1336" style="mask-type:luminance" maskUnits="userSpaceOnUse" x="11" y="148" width="148" height="80">
<path d="M11.8359 148.289C11.8594 174.684 11.8711 201.074 11.8945 227.461C60.7578 227.453 109.621 227.437 158.484 227.43C158.504 201.953 158.527 176.477 158.551 150.996C153.699 162.285 146.258 176.039 134.715 189.781C130.262 195.074 125.773 199.695 121.449 203.699C120.246 205.289 119.047 206.871 117.855 208.461C117.172 208.648 116.488 208.828 115.809 209.016C115.492 208.598 114.277 207.047 112.605 207.016C110.43 206.977 108 209.527 107.879 213.367C107.625 212.797 105.488 208.254 100.629 207.227C98.2891 206.73 96.3242 207.254 95.3086 207.613C94.6484 208.164 93.7734 209.012 92.9688 210.227C92.1836 211.418 91.7539 212.535 91.5078 213.344H78.9609C78.8867 212.879 78.2773 209.453 75.1562 207.742C72.1055 206.07 69.0078 207.344 68.0547 207.727C64.7617 209.055 63.3672 211.793 63.0586 212.438C62.3164 208.898 59.8437 206.707 57.668 206.879C57.3164 206.91 56.1836 207.059 55.0039 208.379C53.7539 207.336 52.5 206.297 51.2461 205.254C45.4258 202.371 34.5898 196.035 25.4922 183.75C14.8594 169.379 12.5039 154.836 11.8516 148.297L11.8359 148.289Z" fill="white"/>
</mask>
<g mask="url(#mask4_2314_1336)">
<path d="M11.8359 148.289V227.461H158.551V148.289H11.8359Z" fill="url(#paint1_linear_2314_1336)"/>
</g>
</g>
<path d="M85.2148 205.574C85.2656 206.199 85.5234 208.379 87.3281 210.234C88.9492 211.898 90.8555 212.297 91.5078 212.406C91.4531 213.059 91.4023 213.711 91.3516 214.363C90.4961 214.762 88.7773 215.707 87.3516 217.621C85.9063 219.562 85.4922 221.496 85.3594 222.434C85.0195 221.266 84.2773 219.262 82.582 217.312C81.2773 215.812 79.8906 214.898 78.9297 214.363C78.8789 213.711 78.8242 213.059 78.7734 212.406C79.2383 212.363 82.2305 212.016 84.0312 209.398C85.0859 207.855 85.2148 206.281 85.2305 205.574H85.2148Z" fill="white"/>
<path d="M116.43 216.016C115.598 216.254 114.227 216.516 112.672 216.141C111.316 215.82 110.398 215.16 109.883 214.77C105.324 211.352 104.648 208.695 101.512 207.496C101.109 207.336 98.1758 206.371 95.2188 207.75C93.1368 208.727 91.6485 210.945 91.418 213.352C91.086 216.801 93.4883 220.215 96.2696 220.836C96.5938 220.914 98.3477 221.301 99.7813 220.23C99.961 220.094 101.07 219.238 101.227 217.734C101.25 217.508 101.43 215.566 99.9454 214.621C99.1133 214.094 98.0547 214.066 97.2149 214.453C96.0235 215.004 95.3008 216.375 95.4883 217.844C95.1993 217.523 94.793 217.02 94.4688 216.328C94.3126 216 93.293 213.742 94.2657 211.574C95.4532 208.934 98.6837 208.469 99.1212 208.41C102.008 207.996 105.008 209.512 106.973 212.234" stroke="#0E0E0E" stroke-width="0.75" stroke-linecap="round" stroke-linejoin="round"/>
<path d="M91.3517 214.449C90.2931 214.973 89.5197 215.566 88.9806 216.051C85.8673 218.879 85.4103 222.996 85.1916 224.926C85.0509 226.176 85.0666 227.211 85.0939 227.852" stroke="#0E0E0E" stroke-width="0.75" stroke-linecap="round" stroke-linejoin="round"/>
<path d="M91.5078 212.496C90.7969 212.371 90.0234 212.145 89.2578 211.754C85.8008 209.992 85.2891 206.301 85.2148 205.664" stroke="#0E0E0E" stroke-width="0.75" stroke-linecap="round" stroke-linejoin="round"/>
<path d="M53.8516 216.016C54.6836 216.254 56.0547 216.516 57.6093 216.141C58.9648 215.82 59.8789 215.16 60.3984 214.77C64.957 211.352 65.6328 208.695 68.7656 207.496C69.1718 207.336 72.1054 206.371 75.0586 207.75C77.1445 208.727 78.6289 210.945 78.8633 213.352C79.1914 216.801 76.793 220.215 74.0117 220.836C73.6875 220.914 71.9336 221.301 70.5 220.23C70.3203 220.094 69.2109 219.238 69.0508 217.734C69.0312 217.508 68.8515 215.566 70.3359 214.621C71.1679 214.094 72.2265 214.066 73.0664 214.453C74.2578 215.004 74.9765 216.375 74.789 217.844C75.082 217.523 75.4883 217.02 75.8086 216.328C75.9687 216 76.9883 213.742 76.0117 211.574C74.8281 208.934 71.5938 208.469 71.1602 208.41C68.2734 207.996 65.2734 209.512 63.3086 212.234" stroke="#0E0E0E" stroke-width="0.75" stroke-linecap="round" stroke-linejoin="round"/>
<path d="M78.7656 212.496C79.4492 212.391 80.2266 212.176 81.0156 211.754C84.2266 210.059 85.0586 206.438 85.2148 205.664" stroke="#0E0E0E" stroke-width="0.75" stroke-linecap="round" stroke-linejoin="round"/>
<path d="M54.5547 209.16C54.668 208.906 55.2617 207.594 56.6484 207.156C58.1172 206.691 59.4062 207.547 59.9492 207.906C62.2187 209.414 62.4453 212.289 62.4687 212.754" stroke="#0E0E0E" stroke-width="0.75" stroke-linecap="round" stroke-linejoin="round"/>
<path d="M46.582 202.246C47.2265 202.613 48.1367 203.168 49.1563 203.91C52.1016 206.055 54.4063 207.727 55.0039 210.457C55.5508 212.941 54.4336 215.031 54.2383 215.387C52.4024 218.699 48.5547 219.246 47.7617 219.336C44.1836 219.742 40.5508 217.852 38.2812 214.551" stroke="#0E0E0E" stroke-width="0.75" stroke-linecap="round" stroke-linejoin="round"/>
<path d="M38.7734 197.102C38.7383 204.816 40.6289 210.879 43.6211 212.551C45.1563 213.406 46.7187 213.426 46.7187 213.426C47.2344 213.426 49.8516 213.391 51.5117 211.23C52.9883 209.301 52.6211 207.098 52.5508 206.723" stroke="#0E0E0E" stroke-width="0.75" stroke-linecap="round" stroke-linejoin="round"/>
<path d="M17.6484 201C17.2578 201.195 16.0117 201.774 14.6719 201.426C12.2774 200.82 12.0079 197.934 11.9922 197.723C11.8516 195.887 12.9766 193.746 15.1211 192.984C16.7696 192.399 18.3594 192.863 19.207 193.109C21.9531 193.914 23.4609 195.781 24.2109 196.727C26.6094 199.785 25.4414 201.27 27.8985 203.445C28.5664 204.039 29.918 205.238 31.9883 205.551C34.1407 205.891 35.0235 204.961 36.9883 205.508C38.918 206.047 39.9141 207.465 40.1719 207.863C40.2891 208.043 41.6914 210.301 40.3711 212.574C40.1016 213.047 39.3008 214.418 37.4922 214.816C35.8516 215.168 34.043 214.567 33.0508 213.391C32.2032 212.387 31.9571 210.969 32.6172 209.844C32.7618 209.594 33.2109 208.828 34.2305 208.524C35.0859 208.266 36.1719 208.379 36.9219 208.981C37.5821 209.512 37.7032 210.195 37.7266 210.399" stroke="#0E0E0E" stroke-width="0.75" stroke-linecap="round" stroke-linejoin="round"/>
<path d="M26.3555 201.344C26.6719 204.766 28.418 207.578 30.9766 208.492C31.5586 208.703 32.4766 208.914 33.6914 208.762" stroke="#0E0E0E" stroke-width="0.75" stroke-linecap="round" stroke-linejoin="round"/>
<path d="M23.7617 196.043C24.2383 196.164 26.1601 196.598 27.8086 195.531C29.8125 194.227 30.6289 191.203 29.4219 188.324" stroke="#0E0E0E" stroke-width="0.75" stroke-linecap="round" stroke-linejoin="round"/>
<path d="M22.3945 185.73C22.7031 185.746 23.3399 185.738 24.0157 185.387C25.1407 184.793 25.4844 183.691 25.5508 183.465" stroke="#0E0E0E" stroke-width="0.75" stroke-linecap="round" stroke-linejoin="round"/>
<path d="M11.543 146.145C12.7422 155.805 16.957 177.887 35.0938 194.047C38.9258 197.461 42.8398 200.137 46.582 202.246" stroke="#0E0E0E" stroke-width="0.75" stroke-linecap="round" stroke-linejoin="round"/>
<path d="M85.2148 205.574C85.2656 206.199 85.5234 208.379 87.3281 210.234C88.9492 211.898 90.8555 212.297 91.5078 212.406C91.4531 213.059 91.4023 213.711 91.3516 214.363C90.8867 214.574 90.2461 214.906 89.5664 215.422C88.0273 216.602 87.2929 217.98 86.6484 219.227C86.0859 220.32 85.3593 222.016 84.9843 224.25C84.9765 223.176 84.8086 220.094 82.5742 217.305C81.3086 215.715 79.8515 214.824 78.9219 214.359C78.8711 213.703 78.8164 213.051 78.7656 212.398C79.2305 212.355 82.2226 212.012 84.0234 209.391C85.0781 207.848 85.207 206.273 85.2227 205.566L85.2148 205.574Z" fill="black" stroke="black" stroke-width="0.5625" stroke-linecap="round" stroke-linejoin="round"/>
<path d="M53.8516 216.016C54.6836 216.254 56.0547 216.516 57.6093 216.141C58.9648 215.82 59.8789 215.16 60.3984 214.77C64.957 211.352 65.6328 208.695 68.7656 207.496C69.1718 207.336 72.1054 206.371 75.0586 207.75C77.1445 208.727 78.6289 210.945 78.8633 213.352C79.1914 216.801 76.793 220.215 74.0117 220.836C73.6875 220.914 71.9336 221.301 70.5 220.23C70.3203 220.094 69.2109 219.238 69.0508 217.734C69.0312 217.508 68.8515 215.566 70.3359 214.621C71.1679 214.094 72.2265 214.066 73.0664 214.453C74.2578 215.004 74.9765 216.375 74.789 217.844C75.082 217.523 75.4883 217.02 75.8086 216.328C75.9687 216 76.9883 213.742 76.0117 211.574C74.8281 208.934 71.5938 208.469 71.1602 208.41C68.2734 207.996 65.2734 209.512 63.3086 212.234" stroke="#0E0E0E" stroke-width="0.75" stroke-linecap="round" stroke-linejoin="round"/>
<path d="M78.9219 214.449C79.5469 214.746 80.414 215.25 81.293 216.051C83.1445 217.762 83.8125 219.742 84.3281 221.363C85.1328 223.867 85.2148 226.148 85.1015 227.852" stroke="#0E0E0E" stroke-width="0.75" stroke-linecap="round" stroke-linejoin="round"/>
<path d="M78.7656 212.496C79.4492 212.391 80.2266 212.176 81.0156 211.754C84.2539 210.039 85.0664 206.332 85.2148 205.574" stroke="#0E0E0E" stroke-width="0.75" stroke-linecap="round" stroke-linejoin="round"/>
<path d="M54.5547 209.16C54.668 208.906 55.2617 207.594 56.6484 207.156C58.1172 206.691 59.4062 207.547 59.9492 207.906C62.2187 209.414 62.4453 212.289 62.4687 212.754" stroke="#0E0E0E" stroke-width="0.75" stroke-linecap="round" stroke-linejoin="round"/>
<path d="M46.582 202.246C47.2265 202.613 48.1367 203.168 49.1563 203.91C52.1016 206.055 54.4063 207.727 55.0039 210.457C55.5508 212.941 54.4336 215.031 54.2383 215.387C52.4024 218.699 48.5547 219.246 47.7617 219.336C44.1836 219.742 40.5508 217.852 38.2812 214.551" stroke="#0E0E0E" stroke-width="0.75" stroke-linecap="round" stroke-linejoin="round"/>
<path d="M38.7734 197.102C38.7383 204.816 40.6289 210.879 43.6211 212.551C45.1563 213.406 46.7187 213.426 46.7187 213.426C47.2344 213.426 49.8516 213.391 51.5117 211.23C52.9883 209.301 52.6211 207.098 52.5508 206.723" stroke="#0E0E0E" stroke-width="0.75" stroke-linecap="round" stroke-linejoin="round"/>
<path d="M17.6484 201C17.2578 201.195 16.0117 201.774 14.6719 201.426C12.2774 200.82 12.0079 197.934 11.9922 197.723C11.8516 195.887 12.9766 193.746 15.1211 192.984C16.7696 192.399 18.3594 192.863 19.207 193.109C21.9531 193.914 23.4609 195.781 24.2109 196.727C26.6094 199.785 25.4414 201.27 27.8985 203.445C28.5664 204.039 29.918 205.238 31.9883 205.551C34.1407 205.891 35.0235 204.961 36.9883 205.508C38.918 206.047 39.9141 207.465 40.1719 207.863C40.2891 208.043 41.6914 210.301 40.3711 212.574C40.1016 213.047 39.3008 214.418 37.4922 214.816C35.8516 215.168 34.043 214.567 33.0508 213.391C32.2032 212.387 31.9571 210.969 32.6172 209.844C32.7618 209.594 33.2109 208.828 34.2305 208.524C35.0859 208.266 36.1719 208.379 36.9219 208.981C37.5821 209.512 37.7032 210.195 37.7266 210.399" stroke="#0E0E0E" stroke-width="0.75" stroke-linecap="round" stroke-linejoin="round"/>
<path d="M26.3555 201.344C26.6719 204.766 28.418 207.578 30.9766 208.492C31.5586 208.703 32.4766 208.914 33.6914 208.762" stroke="#0E0E0E" stroke-width="0.75" stroke-linecap="round" stroke-linejoin="round"/>
<path d="M11.5859 189.414C11.6758 189.563 13.6719 192.758 16.6563 192.57C19.0742 192.422 20.4961 190.156 21.1211 189.164C24.5781 183.645 20.8789 176.086 20.3086 174.953" stroke="#0E0E0E" stroke-width="0.75" stroke-linecap="round" stroke-linejoin="round"/>
<path d="M23.7617 196.043C24.2383 196.164 26.1601 196.598 27.8086 195.531C29.8125 194.227 30.6289 191.203 29.4219 188.324" stroke="#0E0E0E" stroke-width="0.75" stroke-linecap="round" stroke-linejoin="round"/>
<path d="M22.3945 185.73C22.7031 185.746 23.3399 185.738 24.0157 185.387C25.1407 184.793 25.4844 183.691 25.5508 183.465" stroke="#0E0E0E" stroke-width="0.75" stroke-linecap="round" stroke-linejoin="round"/>
<path d="M11.543 146.145C12.7422 155.805 16.957 177.887 35.0938 194.047C38.9258 197.461 42.8398 200.137 46.582 202.246" stroke="#0E0E0E" stroke-width="0.75" stroke-linecap="round" stroke-linejoin="round"/>
<path d="M23.8594 22.1172H42.9531V23.1523H42.5469C41.7812 23.1523 41.1836 23.4883 40.7461 24.1719L30.5039 42.2773C30.3906 42.5391 30.3281 42.7734 30.3281 42.9844C30.3281 43.1328 30.3594 43.2539 30.4219 43.3594C30.5469 43.5391 30.7578 43.6289 31.0508 43.6289L31.4688 43.5977L31.4531 44.6641H24.1875V43.5977L24.6094 43.6289C24.9609 43.6289 25.3203 43.5234 25.6641 43.3047C26.0156 43.0859 26.3008 42.8008 26.5195 42.4492V42.4336C29.3477 37.4023 32.9492 30.9766 37.3281 23.1523H27.6016C26.8516 23.1523 26.2031 23.4219 25.6797 23.9531C25.1484 24.4883 24.8867 25.125 24.8867 25.8672V26.2734H23.8516V22.1172H23.8594Z" fill="black"/>
<path d="M58.1251 30.5469C56.9025 29.2109 55.4845 27.9141 54.8908 27.2344C54.4494 26.7227 54.1369 26.332 54.0001 26.168C53.9923 26.1523 53.9767 26.1367 53.9689 26.1211C53.9611 26.1367 53.9494 26.1523 53.9416 26.168C53.8126 26.332 53.4963 26.7148 53.047 27.2344C52.4533 27.9141 51.0392 29.2109 49.8166 30.5469C48.5939 31.8828 48.4962 33.2109 48.7267 34.3125C48.9611 35.4141 50.1135 36.457 51.9299 36.2266C52.5002 36.1484 52.9142 35.8789 53.2189 35.543C53.0158 37.1016 52.172 37.9219 52.172 37.9219H55.6876C55.0431 37.1992 54.8166 36.1875 54.7345 35.5508C55.0353 35.8867 55.4533 36.1562 56.0158 36.2266C57.8322 36.4492 58.9885 35.4141 59.2189 34.3125C59.4533 33.2109 59.3556 31.875 58.133 30.5469H58.1251Z" fill="#292929" stroke="black" stroke-width="0.5625" stroke-linecap="round" stroke-linejoin="round"/>
<path d="M146.461 215.672H127.363V214.637H127.77C128.535 214.637 129.137 214.297 129.578 213.613L139.824 195.512C139.934 195.246 139.996 195.016 139.996 194.805C139.996 194.656 139.965 194.535 139.906 194.43C139.777 194.25 139.566 194.16 139.273 194.16L138.855 194.191L138.871 193.125H146.137V194.191L145.719 194.16C145.363 194.16 145.004 194.266 144.66 194.484C144.309 194.699 144.023 194.984 143.805 195.336V195.352C140.977 200.387 137.379 206.812 132.996 214.637H142.727C143.477 214.637 144.121 214.363 144.645 213.832C145.176 213.301 145.441 212.664 145.441 211.922V211.516H146.477V215.672H146.461Z" fill="black"/>
<path d="M112.184 207.238C113.406 208.574 114.824 209.871 115.418 210.555C115.859 211.066 116.176 211.453 116.309 211.621C116.316 211.637 116.332 211.648 116.34 211.664C116.348 211.648 116.363 211.637 116.371 211.621C116.496 211.453 116.813 211.074 117.262 210.555C117.856 209.871 119.274 208.574 120.496 207.238C121.719 205.906 121.816 204.578 121.582 203.477C121.352 202.371 120.195 201.328 118.379 201.562C117.809 201.637 117.399 201.906 117.09 202.246C117.293 200.684 118.141 199.867 118.141 199.867H114.621C115.266 200.586 115.492 201.602 115.574 202.238C115.274 201.898 114.856 201.629 114.293 201.562C112.477 201.336 111.324 202.371 111.09 203.477C110.859 204.578 110.953 205.914 112.176 207.238H112.184Z" fill="#292929" stroke="black" stroke-width="0.5625" stroke-linecap="round" stroke-linejoin="round"/>
<path d="M72.2108 56.3164C69.9061 53.8125 67.2382 51.3594 66.121 50.0781C65.2812 49.1172 64.6874 48.3828 64.4413 48.0742C64.4178 48.0508 64.3944 48.0234 64.3788 48C64.3593 48.0234 64.3358 48.0508 64.3202 48.0742C64.0741 48.3828 63.4804 49.1094 62.6405 50.0781C61.5233 51.3594 58.8436 53.8125 56.5507 56.3164C54.246 58.8242 54.0585 61.3359 54.496 63.4141C54.9296 65.4883 57.1054 67.4492 60.5233 67.0195C61.5975 66.8867 62.3866 66.3672 62.953 65.7305C62.5741 68.6758 60.9842 70.207 60.9842 70.207H67.6132C66.4061 68.8594 65.9686 66.9375 65.8202 65.7461C66.3905 66.3828 67.1718 66.8867 68.2343 67.0195C71.6561 67.4492 73.828 65.4883 74.2655 63.4141C74.6991 61.3359 74.5116 58.8242 72.2108 56.3164Z" fill="#292929" stroke="black" stroke-width="0.5625" stroke-linecap="round" stroke-linejoin="round"/>
<path d="M114.129 56.3164C111.824 53.8125 109.156 51.3594 108.039 50.0781C107.199 49.1172 106.605 48.3828 106.359 48.0742C106.336 48.0508 106.312 48.0234 106.297 48C106.273 48.0234 106.254 48.0508 106.238 48.0742C105.988 48.3828 105.398 49.1094 104.558 50.0781C103.441 51.3594 100.762 53.8125 98.4686 56.3164C96.1639 58.8242 95.9765 61.3359 96.414 63.4141C96.8476 65.4883 99.0233 67.4492 102.441 67.0195C103.516 66.8867 104.301 66.3672 104.871 65.7305C104.488 68.6758 102.898 70.207 102.898 70.207H109.531C108.324 68.8594 107.887 66.9375 107.738 65.7461C108.308 66.3828 109.086 66.8867 110.152 67.0195C113.574 67.4492 115.746 65.4883 116.183 63.4141C116.617 61.3359 116.43 58.8242 114.129 56.3164Z" fill="#292929" stroke="black" stroke-width="0.5625" stroke-linecap="round" stroke-linejoin="round"/>
<path d="M72.2108 114.238C69.9061 111.734 67.2382 109.281 66.121 108C65.2812 107.039 64.6874 106.305 64.4413 105.996C64.4178 105.977 64.3944 105.945 64.3788 105.922C64.3593 105.945 64.3358 105.977 64.3202 105.996C64.0741 106.305 63.4804 107.031 62.6405 108C61.5233 109.281 58.8436 111.734 56.5507 114.238C54.246 116.746 54.0585 119.258 54.496 121.336C54.9296 123.414 57.1054 125.371 60.5233 124.941C61.5975 124.809 62.3866 124.289 62.953 123.652C62.5741 126.602 60.9842 128.129 60.9842 128.129H67.6132C66.4061 126.781 65.9686 124.859 65.8202 123.668C66.3905 124.305 67.1718 124.809 68.2343 124.941C71.6561 125.371 73.828 123.414 74.2655 121.336C74.6991 119.258 74.5116 116.746 72.2108 114.238Z" fill="#292929" stroke="black" stroke-width="0.5625" stroke-linecap="round" stroke-linejoin="round"/>
<path d="M114.129 114.238C111.824 111.734 109.156 109.281 108.039 108C107.199 107.039 106.605 106.305 106.359 105.996C106.336 105.977 106.312 105.945 106.297 105.922C106.273 105.945 106.254 105.977 106.238 105.996C105.988 106.305 105.398 107.031 104.558 108C103.441 109.281 100.762 111.734 98.4686 114.238C96.1639 116.746 95.9765 119.258 96.414 121.336C96.8476 123.414 99.0233 125.371 102.441 124.941C103.516 124.809 104.301 124.289 104.871 123.652C104.488 126.602 102.898 128.129 102.898 128.129H109.531C108.324 126.781 107.887 124.859 107.738 123.668C108.308 124.305 109.086 124.809 110.152 124.941C113.574 125.371 115.746 123.414 116.183 121.336C116.617 119.258 116.43 116.746 114.129 114.238Z" fill="#292929" stroke="black" stroke-width="0.5625" stroke-linecap="round" stroke-linejoin="round"/>
<path d="M72.2108 172.164C69.9061 169.656 67.2382 167.203 66.121 165.922C65.2812 164.961 64.6874 164.227 64.4413 163.922C64.4178 163.898 64.3944 163.867 64.3788 163.844C64.3593 163.867 64.3358 163.898 64.3202 163.922C64.0741 164.227 63.4804 164.953 62.6405 165.922C61.5233 167.203 58.8436 169.656 56.5507 172.164C54.246 174.668 54.0585 177.18 54.496 179.258C54.9296 181.336 57.1054 183.293 60.5233 182.863C61.5975 182.73 62.3866 182.211 62.953 181.574C62.5741 184.523 60.9842 186.051 60.9842 186.051H67.6132C66.4061 184.703 65.9686 182.781 65.8202 181.59C66.3905 182.227 67.1718 182.73 68.2343 182.863C71.6561 183.293 73.828 181.336 74.2655 179.258C74.6991 177.18 74.5116 174.668 72.2108 172.164Z" fill="#292929" stroke="black" stroke-width="0.5625" stroke-linecap="round" stroke-linejoin="round"/>
<path d="M114.129 172.164C111.824 169.656 109.156 167.203 108.039 165.922C107.199 164.961 106.605 164.227 106.359 163.922C106.336 163.898 106.312 163.867 106.297 163.844C106.273 163.867 106.254 163.898 106.238 163.922C105.988 164.227 105.398 164.953 104.558 165.922C103.441 167.203 100.762 169.656 98.4686 172.164C96.1639 174.668 95.9765 177.18 96.414 179.258C96.8476 181.336 99.0233 183.293 102.441 182.863C103.516 182.73 104.301 182.211 104.871 181.574C104.488 184.523 102.898 186.051 102.898 186.051H109.531C108.324 184.703 107.887 182.781 107.738 181.59C108.308 182.227 109.086 182.73 110.152 182.863C113.574 183.293 115.746 181.336 116.183 179.258C116.617 177.18 116.43 174.668 114.129 172.164Z" fill="#292929" stroke="black" stroke-width="0.5625" stroke-linecap="round" stroke-linejoin="round"/>
<path d="M93.0899 83.1758C90.7891 80.6719 88.1172 78.2187 87.0001 76.9336C86.1602 75.9766 85.5665 75.2383 85.3204 74.9336C85.2969 74.9102 85.2735 74.8789 85.2618 74.8594C85.2383 74.8789 85.2149 74.9102 85.1993 74.9336C84.9532 75.2383 84.3594 75.9687 83.5196 76.9336C82.4024 78.2187 79.7266 80.6719 77.4298 83.1758C75.129 85.6797 74.9415 88.1914 75.375 90.2695C75.8086 92.3477 77.9844 94.3047 81.4063 93.8789C82.4766 93.7422 83.2657 93.2266 83.836 92.5859C83.4532 95.5352 81.8633 97.0664 81.8633 97.0664H88.4923C87.2852 95.7148 86.8516 93.7969 86.6993 92.6016C87.2696 93.2383 88.0509 93.7422 89.1134 93.8789C92.5352 94.3047 94.711 92.3477 95.1446 90.2695C95.5782 88.1914 95.3907 85.6797 93.0899 83.1758Z" fill="#292929" stroke="black" stroke-width="0.5625" stroke-linecap="round" stroke-linejoin="round"/>
<defs>
<linearGradient id="paint0_linear_2314_1336" x1="158.617" y1="48.8925" x2="11.9775" y2="48.8925" gradientUnits="userSpaceOnUse">
<stop stop-color="#8F8587"/>
<stop offset="0.00390625" stop-color="#908688"/>
<stop offset="0.0078125" stop-color="#918789"/>
<stop offset="0.0117187" stop-color="#92888A"/>
<stop offset="0.015625" stop-color="#92898B"/>
<stop offset="0.0195312" stop-color="#938A8B"/>
<stop offset="0.0234375" stop-color="#948B8C"/>
<stop offset="0.0273437" stop-color="#958C8D"/>
<stop offset="0.03125" stop-color="#968D8E"/>
<stop offset="0.0351562" stop-color="#978D8F"/>
<stop offset="0.0390625" stop-color="#988E90"/>
<stop offset="0.0429688" stop-color="#988F91"/>
<stop offset="0.046875" stop-color="#999092"/>
<stop offset="0.0507812" stop-color="#9A9193"/>
<stop offset="0.0546875" stop-color="#9B9294"/>
<stop offset="0.0585938" stop-color="#9C9395"/>
<stop offset="0.0625" stop-color="#9D9496"/>
<stop offset="0.0664062" stop-color="#9D9596"/>
<stop offset="0.0703125" stop-color="#9E9697"/>
<stop offset="0.0742188" stop-color="#9F9798"/>
<stop offset="0.078125" stop-color="#A09899"/>
<stop offset="0.0820312" stop-color="#A1999A"/>
<stop offset="0.0859375" stop-color="#A2999B"/>
<stop offset="0.0898438" stop-color="#A39A9C"/>
<stop offset="0.09375" stop-color="#A39B9D"/>
<stop offset="0.0976562" stop-color="#A49C9E"/>
<stop offset="0.101562" stop-color="#A59D9F"/>
<stop offset="0.105469" stop-color="#A69EA0"/>
<stop offset="0.109375" stop-color="#A79FA0"/>
<stop offset="0.113281" stop-color="#A8A0A1"/>
<stop offset="0.117188" stop-color="#A8A1A2"/>
<stop offset="0.121094" stop-color="#A9A2A3"/>
<stop offset="0.125" stop-color="#AAA3A4"/>
<stop offset="0.128906" stop-color="#ABA4A5"/>
<stop offset="0.132812" stop-color="#ACA5A6"/>
<stop offset="0.136719" stop-color="#ADA6A7"/>
<stop offset="0.140625" stop-color="#AEA6A8"/>
<stop offset="0.144531" stop-color="#AEA7A9"/>
<stop offset="0.148438" stop-color="#AFA8AA"/>
<stop offset="0.152344" stop-color="#B0A9AB"/>
<stop offset="0.15625" stop-color="#B1AAAB"/>
<stop offset="0.160156" stop-color="#B2ABAC"/>
<stop offset="0.164062" stop-color="#B3ACAD"/>
<stop offset="0.167969" stop-color="#B3ADAE"/>
<stop offset="0.171875" stop-color="#B4AEAF"/>
<stop offset="0.175781" stop-color="#B5AFB0"/>
<stop offset="0.179688" stop-color="#B6B0B1"/>
<stop offset="0.183594" stop-color="#B7B1B2"/>
<stop offset="0.1875" stop-color="#B8B2B3"/>
<stop offset="0.191406" stop-color="#B9B2B4"/>
<stop offset="0.195312" stop-color="#B9B3B5"/>
<stop offset="0.199219" stop-color="#BAB4B5"/>
<stop offset="0.203125" stop-color="#BBB5B6"/>
<stop offset="0.207031" stop-color="#BCB6B7"/>
<stop offset="0.210938" stop-color="#BDB7B8"/>
<stop offset="0.214844" stop-color="#BEB8B9"/>
<stop offset="0.21875" stop-color="#BEB9BA"/>
<stop offset="0.222656" stop-color="#BFBABB"/>
<stop offset="0.226562" stop-color="#C0BBBC"/>
<stop offset="0.230469" stop-color="#C1BCBD"/>
<stop offset="0.234375" stop-color="#C2BDBE"/>
<stop offset="0.238281" stop-color="#C3BEBF"/>
<stop offset="0.242188" stop-color="#C3BEBF"/>
<stop offset="0.246094" stop-color="#C4BFC0"/>
<stop offset="0.25" stop-color="#C5C0C1"/>
<stop offset="0.253906" stop-color="#C6C1C2"/>
<stop offset="0.257813" stop-color="#C6C2C3"/>
<stop offset="0.261719" stop-color="#C7C3C3"/>
<stop offset="0.265625" stop-color="#C8C3C4"/>
<stop offset="0.269531" stop-color="#C9C4C5"/>
<stop offset="0.273438" stop-color="#C9C5C6"/>
<stop offset="0.277344" stop-color="#CAC6C7"/>
<stop offset="0.28125" stop-color="#CBC7C7"/>
<stop offset="0.285156" stop-color="#CCC7C8"/>
<stop offset="0.289062" stop-color="#CCC8C9"/>
<stop offset="0.292969" stop-color="#CDC9CA"/>
<stop offset="0.296875" stop-color="#CECACB"/>
<stop offset="0.300781" stop-color="#CFCBCB"/>
<stop offset="0.304688" stop-color="#CFCCCC"/>
<stop offset="0.308594" stop-color="#D0CCCD"/>
<stop offset="0.3125" stop-color="#D1CDCE"/>
<stop offset="0.316406" stop-color="#D2CECF"/>
<stop offset="0.320312" stop-color="#D2CFCF"/>
<stop offset="0.324219" stop-color="#D3D0D0"/>
<stop offset="0.328125" stop-color="#D4D0D1"/>
<stop offset="0.332031" stop-color="#D5D1D2"/>
<stop offset="0.335938" stop-color="#D5D2D3"/>
<stop offset="0.339844" stop-color="#D6D3D3"/>
<stop offset="0.34375" stop-color="#D7D4D4"/>
<stop offset="0.347656" stop-color="#D8D5D5"/>
<stop offset="0.351563" stop-color="#D8D5D6"/>
<stop offset="0.355469" stop-color="#D9D6D7"/>
<stop offset="0.359375" stop-color="#DAD7D7"/>
<stop offset="0.363281" stop-color="#DBD8D8"/>
<stop offset="0.367188" stop-color="#DBD9D9"/>
<stop offset="0.371094" stop-color="#DCDADA"/>
<stop offset="0.375" stop-color="#DDDADB"/>
<stop offset="0.378906" stop-color="#DEDBDC"/>
<stop offset="0.382813" stop-color="#DEDCDC"/>
<stop offset="0.386719" stop-color="#DFDDDD"/>
<stop offset="0.390625" stop-color="#E0DEDE"/>
<stop offset="0.394531" stop-color="#E1DEDF"/>
<stop offset="0.398438" stop-color="#E1DFE0"/>
<stop offset="0.402344" stop-color="#E2E0E0"/>
<stop offset="0.40625" stop-color="#E3E1E1"/>
<stop offset="0.410156" stop-color="#E4E2E2"/>
<stop offset="0.414063" stop-color="#E4E3E3"/>
<stop offset="0.417969" stop-color="#E5E3E4"/>
<stop offset="0.421875" stop-color="#E6E4E4"/>
<stop offset="0.425781" stop-color="#E6E5E5"/>
<stop offset="0.429688" stop-color="#E7E6E6"/>
<stop offset="0.433594" stop-color="#E8E7E7"/>
<stop offset="0.4375" stop-color="#E9E7E8"/>
<stop offset="0.441406" stop-color="#E9E8E8"/>
<stop offset="0.445312" stop-color="#EAE9E9"/>
<stop offset="0.449219" stop-color="#EBEAEA"/>
<stop offset="0.453125" stop-color="#ECEBEB"/>
<stop offset="0.457031" stop-color="#ECEBEB"/>
<stop offset="0.460938" stop-color="#EDECEC"/>
<stop offset="0.464844" stop-color="#EDECEC"/>
<stop offset="0.46875" stop-color="#EEEDED"/>
<stop offset="0.472656" stop-color="#EEEEEE"/>
<stop offset="0.476563" stop-color="#EFEEEE"/>
<stop offset="0.480469" stop-color="#EFEFEF"/>
<stop offset="0.484375" stop-color="#F0EFEF"/>
<stop offset="0.488281" stop-color="#F1F0F0"/>
<stop offset="0.492188" stop-color="#F1F1F1"/>
<stop offset="0.496094" stop-color="#F2F1F1"/>
<stop offset="0.5" stop-color="#F2F2F2"/>
<stop offset="0.503906" stop-color="#F3F2F2"/>
<stop offset="0.507812" stop-color="#F3F3F3"/>
<stop offset="0.511719" stop-color="#F4F4F4"/>
<stop offset="0.515625" stop-color="#F5F4F4"/>
<stop offset="0.519531" stop-color="#F5F5F5"/>
<stop offset="0.523438" stop-color="#F6F5F5"/>
<stop offset="0.527344" stop-color="#F6F6F6"/>
<stop offset="0.53125" stop-color="#F7F7F7"/>
<stop offset="0.535156" stop-color="#F7F7F7"/>
<stop offset="0.539062" stop-color="#F8F8F8"/>
<stop offset="0.542969" stop-color="#F8F8F8"/>
<stop offset="0.546875" stop-color="#F9F9F9"/>
<stop offset="0.550781" stop-color="#FAFAFA"/>
<stop offset="0.554688" stop-color="#FAFAFA"/>
<stop offset="0.5625" stop-color="#FBFBFB"/>
<stop offset="0.625" stop-color="#FBFBFB"/>
<stop offset="0.75" stop-color="#FBFBFB"/>
<stop offset="1" stop-color="#FBFBFB"/>
</linearGradient>
<linearGradient id="paint1_linear_2314_1336" x1="11.835" y1="187.882" x2="158.55" y2="187.882" gradientUnits="userSpaceOnUse">
<stop stop-color="#8F8587"/>
<stop offset="0.00390625" stop-color="#908688"/>
<stop offset="0.0078125" stop-color="#918789"/>
<stop offset="0.0117187" stop-color="#91888A"/>
<stop offset="0.015625" stop-color="#92898A"/>
<stop offset="0.0195312" stop-color="#938A8B"/>
<stop offset="0.0234375" stop-color="#948A8C"/>
<stop offset="0.0273437" stop-color="#958B8D"/>
<stop offset="0.03125" stop-color="#968C8E"/>
<stop offset="0.0351562" stop-color="#968D8F"/>
<stop offset="0.0390625" stop-color="#978E90"/>
<stop offset="0.0429687" stop-color="#988F91"/>
<stop offset="0.046875" stop-color="#999091"/>
<stop offset="0.0507813" stop-color="#9A9192"/>
<stop offset="0.0546875" stop-color="#9A9293"/>
<stop offset="0.0585938" stop-color="#9B9294"/>
<stop offset="0.0625" stop-color="#9C9395"/>
<stop offset="0.0664062" stop-color="#9D9496"/>
<stop offset="0.0703125" stop-color="#9E9597"/>
<stop offset="0.0742188" stop-color="#9F9698"/>
<stop offset="0.078125" stop-color="#9F9798"/>
<stop offset="0.0820312" stop-color="#A09899"/>
<stop offset="0.0859375" stop-color="#A1999A"/>
<stop offset="0.0898437" stop-color="#A29A9B"/>
<stop offset="0.09375" stop-color="#A39A9C"/>
<stop offset="0.0976563" stop-color="#A39B9D"/>
<stop offset="0.101563" stop-color="#A49C9E"/>
<stop offset="0.105469" stop-color="#A59D9F"/>
<stop offset="0.109375" stop-color="#A69E9F"/>
<stop offset="0.113281" stop-color="#A79FA0"/>
<stop offset="0.117188" stop-color="#A7A0A1"/>
<stop offset="0.121094" stop-color="#A8A1A2"/>
<stop offset="0.125" stop-color="#A9A2A3"/>
<stop offset="0.128906" stop-color="#AAA2A4"/>
<stop offset="0.132813" stop-color="#ABA3A5"/>
<stop offset="0.136719" stop-color="#ACA4A6"/>
<stop offset="0.140625" stop-color="#ACA5A6"/>
<stop offset="0.144531" stop-color="#ADA6A7"/>
<stop offset="0.148438" stop-color="#AEA7A8"/>
<stop offset="0.152344" stop-color="#AFA8A9"/>
<stop offset="0.15625" stop-color="#B0A9AA"/>
<stop offset="0.160156" stop-color="#B0AAAB"/>
<stop offset="0.164062" stop-color="#B1AAAC"/>
<stop offset="0.167969" stop-color="#B2ABAD"/>
<stop offset="0.171875" stop-color="#B3ACAD"/>
<stop offset="0.175781" stop-color="#B4ADAE"/>
<stop offset="0.179688" stop-color="#B4AEAF"/>
<stop offset="0.183594" stop-color="#B5AFB0"/>
<stop offset="0.1875" stop-color="#B6B0B1"/>
<stop offset="0.191406" stop-color="#B7B1B2"/>
<stop offset="0.195312" stop-color="#B8B2B3"/>
<stop offset="0.199219" stop-color="#B9B2B4"/>
<stop offset="0.203125" stop-color="#B9B3B4"/>
<stop offset="0.207031" stop-color="#BAB4B5"/>
<stop offset="0.210938" stop-color="#BBB5B6"/>
<stop offset="0.214844" stop-color="#BCB6B7"/>
<stop offset="0.21875" stop-color="#BDB7B8"/>
<stop offset="0.222656" stop-color="#BDB8B9"/>
<stop offset="0.226562" stop-color="#BEB9BA"/>
<stop offset="0.230469" stop-color="#BFBABB"/>
<stop offset="0.234375" stop-color="#C0BABB"/>
<stop offset="0.238281" stop-color="#C1BBBC"/>
<stop offset="0.242187" stop-color="#C1BCBD"/>
<stop offset="0.246094" stop-color="#C2BDBE"/>
<stop offset="0.25" stop-color="#C3BEBF"/>
<stop offset="0.253906" stop-color="#C4BFC0"/>
<stop offset="0.257812" stop-color="#C5C0C1"/>
<stop offset="0.261719" stop-color="#C5C0C1"/>
<stop offset="0.265625" stop-color="#C6C1C2"/>
<stop offset="0.269531" stop-color="#C7C2C3"/>
<stop offset="0.273437" stop-color="#C8C3C4"/>
<stop offset="0.277344" stop-color="#C8C4C5"/>
<stop offset="0.28125" stop-color="#C9C5C5"/>
<stop offset="0.285156" stop-color="#CAC5C6"/>
<stop offset="0.289062" stop-color="#CBC6C7"/>
<stop offset="0.292969" stop-color="#CBC7C8"/>
<stop offset="0.296875" stop-color="#CCC8C9"/>
<stop offset="0.300781" stop-color="#CDC9C9"/>
<stop offset="0.304687" stop-color="#CEC9CA"/>
<stop offset="0.308594" stop-color="#CECACB"/>
<stop offset="0.3125" stop-color="#CFCBCC"/>
<stop offset="0.316406" stop-color="#D0CCCD"/>
<stop offset="0.320312" stop-color="#D0CDCD"/>
<stop offset="0.324219" stop-color="#D1CECE"/>
<stop offset="0.328125" stop-color="#D2CECF"/>
<stop offset="0.332031" stop-color="#D3CFD0"/>
<stop offset="0.335937" stop-color="#D3D0D1"/>
<stop offset="0.339844" stop-color="#D4D1D1"/>
<stop offset="0.34375" stop-color="#D5D2D2"/>
<stop offset="0.347656" stop-color="#D6D2D3"/>
<stop offset="0.351562" stop-color="#D6D3D4"/>
<stop offset="0.355469" stop-color="#D7D4D5"/>
<stop offset="0.359375" stop-color="#D8D5D5"/>
<stop offset="0.363281" stop-color="#D9D6D6"/>
<stop offset="0.367187" stop-color="#D9D7D7"/>
<stop offset="0.371094" stop-color="#DAD7D8"/>
<stop offset="0.375" stop-color="#DBD8D9"/>
<stop offset="0.378906" stop-color="#DCD9D9"/>
<stop offset="0.382812" stop-color="#DCDADA"/>
<stop offset="0.386719" stop-color="#DDDBDB"/>
<stop offset="0.390625" stop-color="#DEDCDC"/>
<stop offset="0.394531" stop-color="#DFDCDD"/>
<stop offset="0.398438" stop-color="#DFDDDD"/>
<stop offset="0.402344" stop-color="#E0DEDE"/>
<stop offset="0.40625" stop-color="#E1DFDF"/>
<stop offset="0.410156" stop-color="#E2E0E0"/>
<stop offset="0.414062" stop-color="#E2E0E1"/>
<stop offset="0.417969" stop-color="#E3E1E1"/>
<stop offset="0.421875" stop-color="#E4E2E2"/>
<stop offset="0.425781" stop-color="#E5E3E3"/>
<stop offset="0.429688" stop-color="#E5E4E4"/>
<stop offset="0.433594" stop-color="#E6E5E5"/>
<stop offset="0.4375" stop-color="#E7E5E5"/>
<stop offset="0.441406" stop-color="#E8E6E6"/>
<stop offset="0.445312" stop-color="#E8E7E7"/>
<stop offset="0.449219" stop-color="#E9E8E8"/>
<stop offset="0.453125" stop-color="#EAE9E9"/>
<stop offset="0.457031" stop-color="#EBE9E9"/>
<stop offset="0.460937" stop-color="#EBEAEA"/>
<stop offset="0.464844" stop-color="#ECEBEB"/>
<stop offset="0.46875" stop-color="#ECEBEB"/>
<stop offset="0.472656" stop-color="#EDECEC"/>
<stop offset="0.476562" stop-color="#EDEDED"/>
<stop offset="0.480469" stop-color="#EEEDED"/>
<stop offset="0.484375" stop-color="#EFEEEE"/>
<stop offset="0.488281" stop-color="#EFEEEE"/>
<stop offset="0.492187" stop-color="#F0EFEF"/>
<stop offset="0.496094" stop-color="#F0F0F0"/>
<stop offset="0.5" stop-color="#F1F0F0"/>
<stop offset="0.503906" stop-color="#F1F1F1"/>
<stop offset="0.507812" stop-color="#F2F1F1"/>
<stop offset="0.511719" stop-color="#F3F2F2"/>
<stop offset="0.515625" stop-color="#F3F3F3"/>
<stop offset="0.519531" stop-color="#F4F3F3"/>
<stop offset="0.523438" stop-color="#F4F4F4"/>
<stop offset="0.527344" stop-color="#F5F4F4"/>
<stop offset="0.53125" stop-color="#F5F5F5"/>
<stop offset="0.535156" stop-color="#F6F6F6"/>
<stop offset="0.539062" stop-color="#F6F6F6"/>
<stop offset="0.542969" stop-color="#F7F7F7"/>
<stop offset="0.546875" stop-color="#F8F7F7"/>
<stop offset="0.550781" stop-color="#F8F8F8"/>
<stop offset="0.554688" stop-color="#F9F9F9"/>
<stop offset="0.558594" stop-color="#F9F9F9"/>
<stop offset="0.5625" stop-color="#FAFAFA"/>
<stop offset="0.566406" stop-color="#FAFAFA"/>
<stop offset="0.570312" stop-color="#FBFBFB"/>
<stop offset="0.578125" stop-color="#FBFBFB"/>
<stop offset="0.59375" stop-color="#FBFBFB"/>
<stop offset="0.625" stop-color="#FBFBFB"/>
<stop offset="0.75" stop-color="#FBFBFB"/>
<stop offset="1" stop-color="#FBFBFB"/>
</linearGradient>
</defs>
</svg>
