<svg width="169" height="238" viewBox="0 0 169 238" fill="none" xmlns="http://www.w3.org/2000/svg">
<path d="M162.535 237.691H6.01562C2.69531 237.691 0 234.977 0 231.629V6.05859C0 2.71484 2.69531 0 6.01562 0H162.535C165.855 0 168.551 2.71484 168.551 6.05859V231.629C168.551 234.977 165.855 237.691 162.535 237.691Z" fill="white"/>
<mask id="mask0_2314_1425" style="mask-type:luminance" maskUnits="userSpaceOnUse" x="10" y="9" width="148" height="79">
<path d="M10.8516 9.82031H157.852V87.8203H10.8516V9.82031Z" fill="white"/>
</mask>
<g mask="url(#mask0_2314_1425)">
<mask id="mask1_2314_1425" style="mask-type:luminance" maskUnits="userSpaceOnUse" x="11" y="10" width="147" height="78">
<path d="M157.68 87.7422C157.68 61.8438 157.688 35.9414 157.695 10.043C108.84 10.043 59.9805 10.043 11.125 10.0508C11.1016 35.5273 11.0781 61.0039 11.0547 86.4844C13.6211 75.0469 18.7969 58.1797 28.668 49.1719C36.2188 42.2852 39.9922 38.8359 42.9453 37.457C44.3203 36.8086 48.707 34.9141 52.3359 30.4805C53.0117 29.6641 53.5 28.9414 53.8047 28.4609C54.1211 28.8828 55.3359 30.4336 57.0078 30.4648C59.1836 30.5039 61.6133 27.9531 61.7344 24.1133C61.9883 24.6836 64.125 29.2266 68.9883 30.2539C71.3281 30.75 73.293 30.2266 74.3047 29.8672C74.9648 29.3164 75.8398 28.4688 76.6445 27.2539C77.4297 26.0625 77.8594 24.9453 78.1055 24.1367H90.6523C90.7305 24.6016 91.3359 28.0273 94.457 29.7383C97.5078 31.4102 100.605 30.1367 101.559 29.7539C104.852 28.4258 106.246 25.6875 106.555 25.043C107.297 28.582 109.773 30.7734 111.945 30.6016C112.301 30.5703 113.43 30.4219 114.609 29.1016L118.367 32.2266C119.836 33.0977 121.898 34.3789 124.277 36.0469C127.066 37.9961 136.32 44.5664 143.59 54.0078C153.242 66.5469 156.473 80.3555 157.676 87.7266L157.68 87.7422Z" fill="white"/>
</mask>
<g mask="url(#mask1_2314_1425)">
<path d="M11.0547 10.043V87.7422H157.695V10.043H11.0547Z" fill="url(#paint0_linear_2314_1425)"/>
</g>
</g>
<path d="M158.07 227.844H10.5977C10.5977 182.512 10.5977 137.184 10.5977 91.8516C10.5977 64.4609 10.5977 37.082 10.5977 9.69141H158.07C158.07 37.0352 158.07 64.3789 158.07 91.7266C158.07 137.102 158.07 182.469 158.07 227.844Z" stroke="#0E0E0E" stroke-width="0.75" stroke-linecap="round" stroke-linejoin="round"/>
<path d="M84.25 32.1211C84.1953 31.5 83.9414 29.3164 82.1328 27.4648C80.5156 25.8008 78.6094 25.4023 77.957 25.2891C78.0078 24.6367 78.0625 23.9844 78.1133 23.332C78.9688 22.9336 80.6875 21.9922 82.1133 20.0781C83.5586 18.1367 83.9727 16.1992 84.1055 15.2617C84.4453 16.4336 85.1875 18.4336 86.8828 20.3867C88.1875 21.8867 89.5742 22.8008 90.5352 23.332C90.5859 23.9844 90.6406 24.6367 90.6914 25.2891C90.2266 25.3359 87.2344 25.6797 85.4336 28.2969C84.375 29.8438 84.25 31.418 84.2344 32.1211H84.25Z" fill="white"/>
<path d="M53.043 21.6758C53.875 21.4336 55.2461 21.1719 56.8008 21.5469C58.1563 21.8711 59.0703 22.5312 59.5898 22.9218C64.1484 26.3398 64.8242 28.9961 67.957 30.1953C68.3633 30.3516 71.2969 31.3203 74.25 29.9414C76.3359 28.9648 77.8203 26.7461 78.0547 24.3359C78.3828 20.8867 75.9844 17.4765 73.2031 16.8515C72.8789 16.7773 71.125 16.3867 69.6914 17.4609C69.5117 17.5937 68.4023 18.4492 68.2422 19.957C68.2227 20.1836 68.043 22.125 69.5273 23.0703C70.3594 23.5937 71.418 23.625 72.2578 23.2344C73.4492 22.6875 74.168 21.3164 73.9805 19.8437C74.2734 20.1679 74.6797 20.6719 75 21.3594C75.1602 21.6914 76.1797 23.9492 75.2031 26.1172C74.0195 28.7539 70.7852 29.2187 70.3516 29.2812C67.4648 29.6914 64.4648 28.1797 62.5 25.457" stroke="#0E0E0E" stroke-width="0.75" stroke-linecap="round" stroke-linejoin="round"/>
<path d="M78.1133 23.2422C78.6836 22.9648 79.5781 22.4609 80.4844 21.6367C83.3867 18.9922 83.918 15.3164 84.1602 13.6797C84.293 12.7578 84.4141 11.3867 84.2578 9.68359" stroke="#0E0E0E" stroke-width="0.75" stroke-linecap="round" stroke-linejoin="round"/>
<path d="M77.957 25.1992C78.668 25.3281 79.4414 25.5547 80.207 25.9414C83.6641 27.707 84.1758 31.3945 84.25 32.0312" stroke="#0E0E0E" stroke-width="0.75" stroke-linecap="round" stroke-linejoin="round"/>
<path d="M115.621 21.6758C114.789 21.4336 113.418 21.1719 111.863 21.5469C110.508 21.8711 109.59 22.5312 109.074 22.9218C104.516 26.3398 103.84 28.9961 100.703 30.1953C100.301 30.3516 97.3672 31.3203 94.4102 29.9414C92.3282 28.9648 90.8399 26.7461 90.6094 24.3359C90.2774 20.8867 92.6797 17.4765 95.461 16.8515C95.7852 16.7773 97.5391 16.3867 98.9727 17.4609C99.1524 17.5937 100.262 18.4492 100.418 19.957C100.441 20.1836 100.621 22.125 99.1367 23.0703C98.3047 23.5937 97.2461 23.625 96.4063 23.2344C95.2149 22.6875 94.4922 21.3164 94.6797 19.8437C94.3907 20.1679 93.9844 20.6719 93.6602 21.3594C93.5039 21.6914 92.4844 23.9492 93.461 26.1172C94.6446 28.7539 97.875 29.2187 98.3125 29.2812C101.199 29.6914 104.199 28.1797 106.164 25.457" stroke="#0E0E0E" stroke-width="0.75" stroke-linecap="round" stroke-linejoin="round"/>
<path d="M90.707 25.1992C89.9922 25.3281 89.2227 25.5547 88.457 25.9414C85 27.707 84.4883 31.3945 84.4141 32.0312" stroke="#0E0E0E" stroke-width="0.75" stroke-linecap="round" stroke-linejoin="round"/>
<path d="M114.918 28.5313C114.805 28.7852 114.211 30.0977 112.824 30.5313C111.355 30.9961 110.062 30.1445 109.523 29.7813C107.25 28.2734 107.027 25.4023 107.004 24.9375" stroke="#0E0E0E" stroke-width="0.75" stroke-linecap="round" stroke-linejoin="round"/>
<path d="M122.891 35.4453C122.242 35.0781 121.336 34.5234 120.317 33.7812C117.367 31.6367 115.067 29.9609 114.465 27.2343C113.918 24.7499 115.035 22.6562 115.231 22.3046C117.07 18.9921 120.918 18.4413 121.711 18.3515C125.289 17.9492 128.918 19.8359 131.192 23.1367" stroke="#0E0E0E" stroke-width="0.75" stroke-linecap="round" stroke-linejoin="round"/>
<path d="M130.695 40.5977C130.734 32.8789 128.844 26.8203 125.852 25.1484C124.313 24.293 122.754 24.2695 122.754 24.2695C122.238 24.2695 119.617 24.3086 117.961 26.4688C116.484 28.3945 116.852 30.6016 116.918 30.9766" stroke="#0E0E0E" stroke-width="0.75" stroke-linecap="round" stroke-linejoin="round"/>
<path d="M151.824 36.6992C152.215 36.5039 153.461 35.9258 154.801 36.2695C157.195 36.8789 157.465 39.7656 157.481 39.9766C157.621 41.8125 156.496 43.9492 154.352 44.7149C152.703 45.3008 151.113 44.836 150.266 44.586C147.52 43.7852 146.012 41.918 145.262 40.9727C142.863 37.9141 144.031 36.4297 141.57 34.2539C140.902 33.6602 139.555 32.4609 137.484 32.1445C135.332 31.8086 134.445 32.7383 132.481 32.1914C130.555 31.6484 129.555 30.2344 129.301 29.8359C129.18 29.6563 127.777 27.3984 129.098 25.125C129.367 24.6524 130.172 23.2813 131.981 22.8828C133.621 22.5313 135.43 23.1289 136.418 24.3086C137.266 25.3125 137.516 26.7305 136.856 27.8555C136.711 28.1016 136.262 28.8672 135.242 29.1758C134.387 29.4297 133.301 29.3164 132.551 28.7188C131.891 28.1836 131.77 27.5039 131.746 27.3008" stroke="#0E0E0E" stroke-width="0.75" stroke-linecap="round" stroke-linejoin="round"/>
<path d="M143.117 36.3437C142.801 32.9257 141.055 30.1132 138.496 29.1992C137.91 28.9882 136.996 28.7773 135.781 28.9296" stroke="#0E0E0E" stroke-width="0.75" stroke-linecap="round" stroke-linejoin="round"/>
<path d="M145.711 41.6485C145.246 41.5274 143.312 41.0782 141.66 42.1563C139.676 43.461 138.879 46.4844 140.101 49.3516" stroke="#0E0E0E" stroke-width="0.75" stroke-linecap="round" stroke-linejoin="round"/>
<path d="M147.07 51.9609C146.762 51.9453 146.125 51.9531 145.449 52.3047C144.355 52.8828 143.992 53.9414 143.926 54.1797" stroke="#0E0E0E" stroke-width="0.75" stroke-linecap="round" stroke-linejoin="round"/>
<path d="M158.055 90.7734C158.043 90.668 158.027 90.4805 157.996 90.2617C157.41 85.125 154.105 61.1406 134.379 43.6445C131.926 41.4687 128.125 38.4141 122.891 35.4453" stroke="#0E0E0E" stroke-width="0.75" stroke-linecap="round" stroke-linejoin="round"/>
<path d="M84.25 32.1211C84.1953 31.5 83.9414 29.3164 82.1328 27.4649C80.5156 25.8008 78.6094 25.4023 77.957 25.2891C78.0078 24.6367 78.0625 23.9844 78.1133 23.332C78.9687 22.9336 80.6875 21.9922 82.1133 20.0781C83.5586 18.1367 83.9727 16.1992 84.1055 15.2617C84.4453 16.4336 85.1875 18.4336 86.8828 20.3867C88.1875 21.8867 89.5742 22.8008 90.5352 23.332C90.5859 23.9844 90.6406 24.6367 90.6914 25.2891C90.2266 25.3359 87.2344 25.6797 85.4336 28.2969C84.375 29.8438 84.25 31.418 84.2344 32.1211H84.25Z" fill="black" stroke="black" stroke-width="0.5625" stroke-linecap="round" stroke-linejoin="round"/>
<path d="M115.621 21.6758C114.789 21.4336 113.418 21.1719 111.863 21.5469C110.508 21.8711 109.59 22.5312 109.074 22.9218C104.516 26.3398 103.84 28.9961 100.703 30.1953C100.301 30.3516 97.3672 31.3203 94.4102 29.9414C92.3282 28.9648 90.8399 26.7461 90.6094 24.3359C90.2774 20.8867 92.6797 17.4765 95.461 16.8515C95.7852 16.7773 97.5391 16.3867 98.9727 17.4609C99.1524 17.5937 100.262 18.4492 100.418 19.957C100.441 20.1836 100.621 22.125 99.1367 23.0703C98.3047 23.5937 97.2461 23.625 96.4063 23.2344C95.2149 22.6875 94.4922 21.3164 94.6797 19.8437C94.3907 20.1679 93.9844 20.6719 93.6602 21.3594C93.5039 21.6914 92.4844 23.9492 93.461 26.1172C94.6446 28.7539 97.875 29.2187 98.3125 29.2812C101.199 29.6914 104.199 28.1797 106.164 25.457" stroke="#0E0E0E" stroke-width="0.75" stroke-linecap="round" stroke-linejoin="round"/>
<path d="M90.5507 23.2422C89.4452 22.6953 88.6757 22.0859 88.1796 21.6367C84.8358 18.5937 84.5116 14.0703 84.3905 12.4063C84.3085 11.2656 84.3554 10.3203 84.4061 9.68359" stroke="#0E0E0E" stroke-width="0.75" stroke-linecap="round" stroke-linejoin="round"/>
<path d="M90.707 25.1992C89.9922 25.3281 89.2227 25.5547 88.457 25.9414C85 27.707 84.4883 31.3945 84.4141 32.0312" stroke="#0E0E0E" stroke-width="0.75" stroke-linecap="round" stroke-linejoin="round"/>
<path d="M114.918 28.5313C114.805 28.7852 114.211 30.0977 112.824 30.5313C111.355 30.9961 110.062 30.1445 109.523 29.7813C107.25 28.2734 107.027 25.4023 107.004 24.9375" stroke="#0E0E0E" stroke-width="0.75" stroke-linecap="round" stroke-linejoin="round"/>
<path d="M122.891 35.4453C122.242 35.0781 121.336 34.5234 120.317 33.7812C117.367 31.6367 115.067 29.9609 114.465 27.2343C113.918 24.7499 115.035 22.6562 115.231 22.3046C117.07 18.9921 120.918 18.4413 121.711 18.3515C125.289 17.9492 128.918 19.8359 131.192 23.1367" stroke="#0E0E0E" stroke-width="0.75" stroke-linecap="round" stroke-linejoin="round"/>
<path d="M130.695 40.5977C130.734 32.8789 128.844 26.8203 125.852 25.1484C124.313 24.293 122.754 24.2695 122.754 24.2695C122.238 24.2695 119.617 24.3086 117.961 26.4688C116.484 28.3945 116.852 30.6016 116.918 30.9766" stroke="#0E0E0E" stroke-width="0.75" stroke-linecap="round" stroke-linejoin="round"/>
<path d="M151.824 36.6992C152.215 36.5039 153.461 35.9258 154.801 36.2695C157.195 36.8789 157.465 39.7656 157.481 39.9766C157.621 41.8125 156.496 43.9492 154.352 44.7149C152.703 45.3008 151.113 44.836 150.266 44.586C147.52 43.7852 146.012 41.918 145.262 40.9727C142.863 37.9141 144.031 36.4297 141.57 34.2539C140.902 33.6602 139.555 32.4609 137.484 32.1445C135.332 31.8086 134.445 32.7383 132.481 32.1914C130.555 31.6484 129.555 30.2344 129.301 29.8359C129.18 29.6563 127.777 27.3984 129.098 25.125C129.367 24.6524 130.172 23.2813 131.981 22.8828C133.621 22.5313 135.43 23.1289 136.418 24.3086C137.266 25.3125 137.516 26.7305 136.856 27.8555C136.711 28.1016 136.262 28.8672 135.242 29.1758C134.387 29.4297 133.301 29.3164 132.551 28.7188C131.891 28.1836 131.77 27.5039 131.746 27.3008" stroke="#0E0E0E" stroke-width="0.75" stroke-linecap="round" stroke-linejoin="round"/>
<path d="M143.117 36.3437C142.801 32.9257 141.055 30.1132 138.496 29.1992C137.91 28.9882 136.996 28.7773 135.781 28.9296" stroke="#0E0E0E" stroke-width="0.75" stroke-linecap="round" stroke-linejoin="round"/>
<path d="M157.965 48.4218C156.738 46.3124 154.773 44.9999 152.813 45.121C150.391 45.2694 148.965 47.5429 148.352 48.5234C144.887 54.0546 148.59 61.6054 149.16 62.7382" stroke="#0E0E0E" stroke-width="0.75" stroke-linecap="round" stroke-linejoin="round"/>
<path d="M158.02 90.0898C156.609 80.4375 152.027 59.3242 134.379 43.6445C130.539 40.2305 126.617 37.5547 122.891 35.4453" stroke="#0E0E0E" stroke-width="0.75" stroke-linecap="round" stroke-linejoin="round"/>
<mask id="mask2_2314_1425" style="mask-type:luminance" maskUnits="userSpaceOnUse" x="10" y="147" width="148" height="81">
<path d="M10.8516 147.82H157.852V227.82H10.8516V147.82Z" fill="white"/>
</mask>
<g mask="url(#mask2_2314_1425)">
<mask id="mask3_2314_1425" style="mask-type:luminance" maskUnits="userSpaceOnUse" x="10" y="148" width="148" height="80">
<path d="M10.9062 148.289C10.9297 174.684 10.9453 201.074 10.9648 227.461C59.8281 227.453 108.691 227.438 157.555 227.43C157.578 201.953 157.598 176.477 157.621 150.996C152.77 162.285 145.328 176.039 133.785 189.781C129.332 195.074 124.848 199.695 120.52 203.699C119.32 205.289 118.117 206.871 116.926 208.461C116.242 208.648 115.563 208.832 114.879 209.02C114.563 208.598 113.348 207.047 111.676 207.016C109.5 206.977 107.07 209.527 106.953 213.367C106.695 212.797 104.559 208.254 99.6992 207.227C97.3594 206.73 95.3945 207.254 94.3828 207.617C93.7227 208.164 92.8438 209.012 92.043 210.227C91.2539 211.418 90.8281 212.535 90.5781 213.344H78.0312C77.957 212.879 77.3477 209.453 74.2305 207.742C71.1758 206.07 68.0781 207.344 67.125 207.727C63.8359 209.055 62.4375 211.793 62.1328 212.438C61.3906 208.898 58.9141 206.707 56.7383 206.879C56.3867 206.91 55.2539 207.059 54.0781 208.379C52.8242 207.336 51.5703 206.297 50.3203 205.254C44.5 202.371 33.6602 196.035 24.5625 183.75C13.9297 169.379 11.5742 154.836 10.9219 148.297L10.9062 148.289Z" fill="white"/>
</mask>
<g mask="url(#mask3_2314_1425)">
<path d="M10.9062 148.289V227.461H157.621V148.289H10.9062Z" fill="url(#paint1_linear_2314_1425)"/>
</g>
</g>
<path d="M84.293 205.574C84.3477 206.199 84.6016 208.379 86.4102 210.234C88.0273 211.898 89.9336 212.297 90.5859 212.406C90.5352 213.059 90.4805 213.711 90.4297 214.367C89.5742 214.762 87.8555 215.707 86.4297 217.621C84.9844 219.563 84.5703 221.496 84.4375 222.434C84.0977 221.266 83.3555 219.262 81.6602 217.312C80.3555 215.812 78.9688 214.898 78.0078 214.367C77.957 213.711 77.9023 213.059 77.8516 212.406C78.3164 212.363 81.3086 212.02 83.1094 209.398C84.168 207.855 84.293 206.281 84.3086 205.574H84.293Z" fill="white"/>
<path d="M115.5 216.016C114.668 216.254 113.297 216.52 111.742 216.145C110.387 215.82 109.473 215.16 108.953 214.77C104.394 211.352 103.719 208.695 100.586 207.496C100.18 207.336 97.246 206.371 94.2928 207.75C92.2069 208.727 90.7225 210.945 90.4882 213.352C90.16 216.805 92.5585 220.215 95.3397 220.836C95.6639 220.914 97.4178 221.305 98.8514 220.231C99.0311 220.094 100.141 219.242 100.301 217.734C100.32 217.508 100.5 215.566 99.0155 214.621C98.1835 214.094 97.1249 214.066 96.285 214.457C95.0936 215.004 94.3749 216.375 94.5624 217.844C94.2694 217.523 93.8632 217.02 93.5428 216.332C93.3827 216 92.3632 213.742 93.3397 211.574C94.5233 208.934 97.7577 208.469 98.1913 208.41C101.078 207.996 104.078 209.512 106.043 212.234" stroke="#0E0E0E" stroke-width="0.75" stroke-linecap="round" stroke-linejoin="round"/>
<path d="M90.4296 214.449C89.371 214.973 88.5976 215.566 88.0585 216.055C84.9453 218.879 84.4882 222.996 84.2734 224.926C84.1289 226.18 84.1445 227.211 84.1757 227.852" stroke="#0E0E0E" stroke-width="0.75" stroke-linecap="round" stroke-linejoin="round"/>
<path d="M90.5859 212.496C89.875 212.371 89.1016 212.145 88.3359 211.754C84.8789 209.992 84.3672 206.305 84.293 205.664" stroke="#0E0E0E" stroke-width="0.75" stroke-linecap="round" stroke-linejoin="round"/>
<path d="M52.9297 216.016C53.7617 216.254 55.1328 216.52 56.6875 216.145C58.043 215.82 58.957 215.16 59.4766 214.77C64.0352 211.352 64.7109 208.695 67.8477 207.496C68.25 207.336 71.1836 206.371 74.1406 207.75C76.2227 208.727 77.7109 210.945 77.9414 213.352C78.2734 216.805 75.8711 220.215 73.0898 220.836C72.7656 220.914 71.0117 221.305 69.5781 220.231C69.3984 220.094 68.2891 219.242 68.1328 217.734C68.1094 217.508 67.9297 215.566 69.4141 214.621C70.2461 214.094 71.3047 214.066 72.1445 214.457C73.3359 215.004 74.0547 216.375 73.8672 217.844C74.1602 217.523 74.5664 217.02 74.8906 216.332C75.0469 216 76.0664 213.742 75.0898 211.574C73.9062 208.934 70.6758 208.469 70.2383 208.41C67.3516 207.996 64.3516 209.512 62.3867 212.234" stroke="#0E0E0E" stroke-width="0.75" stroke-linecap="round" stroke-linejoin="round"/>
<path d="M77.8438 212.496C78.5273 212.395 79.3047 212.176 80.0938 211.754C83.3047 210.059 84.1367 206.438 84.293 205.664" stroke="#0E0E0E" stroke-width="0.75" stroke-linecap="round" stroke-linejoin="round"/>
<path d="M53.6328 209.16C53.7461 208.906 54.3398 207.594 55.7266 207.156C57.1953 206.691 58.4883 207.547 59.0273 207.906C61.3008 209.414 61.5234 212.289 61.5469 212.754" stroke="#0E0E0E" stroke-width="0.75" stroke-linecap="round" stroke-linejoin="round"/>
<path d="M45.6523 202.246C46.3008 202.613 47.207 203.168 48.2266 203.91C51.1758 206.055 53.4766 207.727 54.0781 210.457C54.625 212.941 53.5078 215.031 53.3125 215.387C51.4727 218.699 47.625 219.246 46.832 219.336C43.2539 219.742 39.625 217.852 37.3516 214.555" stroke="#0E0E0E" stroke-width="0.75" stroke-linecap="round" stroke-linejoin="round"/>
<path d="M37.8556 197.102C37.8165 204.816 39.7071 210.879 42.6993 212.551C44.2384 213.406 45.797 213.43 45.797 213.43C46.3126 213.43 48.9298 213.391 50.59 211.23C52.0665 209.305 51.6993 207.098 51.6329 206.723" stroke="#0E0E0E" stroke-width="0.75" stroke-linecap="round" stroke-linejoin="round"/>
<path d="M16.7266 201C16.336 201.195 15.0899 201.774 13.75 201.43C11.3555 200.82 11.086 197.934 11.0704 197.723C10.9297 195.887 12.0547 193.746 14.1993 192.984C15.8477 192.399 17.4375 192.863 18.2852 193.109C21.0313 193.914 22.5391 195.781 23.2891 196.727C25.6875 199.785 24.5196 201.27 26.9805 203.445C27.6485 204.039 28.9961 205.238 31.0664 205.555C33.2188 205.891 34.1055 204.961 36.0704 205.508C37.9961 206.047 38.9922 207.465 39.25 207.863C39.3672 208.043 40.7696 210.301 39.4532 212.574C39.1797 213.047 38.3789 214.418 36.5704 214.817C34.9297 215.168 33.1211 214.566 32.1329 213.391C31.2852 212.387 31.0352 210.969 31.6954 209.844C31.8399 209.594 32.2891 208.832 33.3086 208.524C34.1641 208.27 35.25 208.379 36 208.981C36.6602 209.512 36.7813 210.195 36.8047 210.399" stroke="#0E0E0E" stroke-width="0.75" stroke-linecap="round" stroke-linejoin="round"/>
<path d="M25.4336 201.344C25.75 204.766 27.4961 207.578 30.0547 208.492C30.6406 208.703 31.5547 208.914 32.7695 208.762" stroke="#0E0E0E" stroke-width="0.75" stroke-linecap="round" stroke-linejoin="round"/>
<path d="M22.832 196.043C23.3125 196.164 25.2305 196.598 26.8828 195.531C28.8828 194.227 29.7031 191.207 28.4922 188.324" stroke="#0E0E0E" stroke-width="0.75" stroke-linecap="round" stroke-linejoin="round"/>
<path d="M21.4727 185.73C21.7812 185.746 22.418 185.738 23.0938 185.387C24.2188 184.793 24.5625 183.691 24.6328 183.465" stroke="#0E0E0E" stroke-width="0.75" stroke-linecap="round" stroke-linejoin="round"/>
<path d="M10.6211 146.145C11.8203 155.805 16.0352 177.887 34.1719 194.047C38.0039 197.461 41.918 200.137 45.6602 202.246" stroke="#0E0E0E" stroke-width="0.75" stroke-linecap="round" stroke-linejoin="round"/>
<path d="M84.293 205.574C84.3477 206.199 84.6016 208.379 86.4102 210.234C88.0273 211.898 89.9336 212.297 90.5859 212.406C90.5352 213.059 90.4805 213.711 90.4297 214.367C89.9648 214.574 89.3281 214.906 88.6445 215.422C87.1055 216.602 86.3711 217.98 85.7266 219.227C85.1641 220.32 84.4375 222.016 84.0625 224.25C84.0547 223.18 83.8906 220.094 81.6523 217.305C80.3867 215.715 78.9297 214.824 78 214.359C77.9492 213.707 77.8984 213.055 77.8438 212.398C78.3086 212.355 81.3008 212.012 83.1016 209.395C84.1602 207.848 84.2852 206.273 84.3008 205.566L84.293 205.574Z" fill="black" stroke="black" stroke-width="0.5625" stroke-linecap="round" stroke-linejoin="round"/>
<path d="M52.9297 216.016C53.7617 216.254 55.1328 216.52 56.6875 216.145C58.043 215.82 58.957 215.16 59.4766 214.77C64.0352 211.352 64.7109 208.695 67.8477 207.496C68.25 207.336 71.1836 206.371 74.1406 207.75C76.2227 208.727 77.7109 210.945 77.9414 213.352C78.2734 216.805 75.8711 220.215 73.0898 220.836C72.7656 220.914 71.0117 221.305 69.5781 220.231C69.3984 220.094 68.2891 219.242 68.1328 217.734C68.1094 217.508 67.9297 215.566 69.4141 214.621C70.2461 214.094 71.3047 214.066 72.1445 214.457C73.3359 215.004 74.0547 216.375 73.8672 217.844C74.1602 217.523 74.5664 217.02 74.8906 216.332C75.0469 216 76.0664 213.742 75.0898 211.574C73.9062 208.934 70.6758 208.469 70.2383 208.41C67.3516 207.996 64.3516 209.512 62.3867 212.234" stroke="#0E0E0E" stroke-width="0.75" stroke-linecap="round" stroke-linejoin="round"/>
<path d="M78 214.449C78.625 214.746 79.4922 215.25 80.3711 216.055C82.2227 217.762 82.8906 219.742 83.4102 221.363C84.2109 223.867 84.293 226.148 84.1797 227.852" stroke="#0E0E0E" stroke-width="0.75" stroke-linecap="round" stroke-linejoin="round"/>
<path d="M77.8438 212.496C78.5273 212.395 79.3047 212.176 80.0938 211.754C83.3359 210.039 84.1445 206.332 84.293 205.574" stroke="#0E0E0E" stroke-width="0.75" stroke-linecap="round" stroke-linejoin="round"/>
<path d="M53.6328 209.16C53.7461 208.906 54.3398 207.594 55.7266 207.156C57.1953 206.691 58.4883 207.547 59.0273 207.906C61.3008 209.414 61.5234 212.289 61.5469 212.754" stroke="#0E0E0E" stroke-width="0.75" stroke-linecap="round" stroke-linejoin="round"/>
<path d="M45.6523 202.246C46.3008 202.613 47.207 203.168 48.2266 203.91C51.1758 206.055 53.4766 207.727 54.0781 210.457C54.625 212.941 53.5078 215.031 53.3125 215.387C51.4727 218.699 47.625 219.246 46.832 219.336C43.2539 219.742 39.625 217.852 37.3516 214.555" stroke="#0E0E0E" stroke-width="0.75" stroke-linecap="round" stroke-linejoin="round"/>
<path d="M37.8556 197.102C37.8165 204.816 39.7071 210.879 42.6993 212.551C44.2384 213.406 45.797 213.43 45.797 213.43C46.3126 213.43 48.9298 213.391 50.59 211.23C52.0665 209.305 51.6993 207.098 51.6329 206.723" stroke="#0E0E0E" stroke-width="0.75" stroke-linecap="round" stroke-linejoin="round"/>
<path d="M16.7266 201C16.336 201.195 15.0899 201.774 13.75 201.43C11.3555 200.82 11.086 197.934 11.0704 197.723C10.9297 195.887 12.0547 193.746 14.1993 192.984C15.8477 192.399 17.4375 192.863 18.2852 193.109C21.0313 193.914 22.5391 195.781 23.2891 196.727C25.6875 199.785 24.5196 201.27 26.9805 203.445C27.6485 204.039 28.9961 205.238 31.0664 205.555C33.2188 205.891 34.1055 204.961 36.0704 205.508C37.9961 206.047 38.9922 207.465 39.25 207.863C39.3672 208.043 40.7696 210.301 39.4532 212.574C39.1797 213.047 38.3789 214.418 36.5704 214.817C34.9297 215.168 33.1211 214.566 32.1329 213.391C31.2852 212.387 31.0352 210.969 31.6954 209.844C31.8399 209.594 32.2891 208.832 33.3086 208.524C34.1641 208.27 35.25 208.379 36 208.981C36.6602 209.512 36.7813 210.195 36.8047 210.399" stroke="#0E0E0E" stroke-width="0.75" stroke-linecap="round" stroke-linejoin="round"/>
<path d="M25.4336 201.344C25.75 204.766 27.4961 207.578 30.0547 208.492C30.6406 208.703 31.5547 208.914 32.7695 208.762" stroke="#0E0E0E" stroke-width="0.75" stroke-linecap="round" stroke-linejoin="round"/>
<path d="M10.668 189.414C10.7578 189.563 12.75 192.758 15.7383 192.57C18.1523 192.422 19.5781 190.156 20.1992 189.164C23.6563 183.645 19.9609 176.086 19.3906 174.953" stroke="#0E0E0E" stroke-width="0.75" stroke-linecap="round" stroke-linejoin="round"/>
<path d="M22.832 196.043C23.3125 196.164 25.2305 196.598 26.8828 195.531C28.8828 194.227 29.7031 191.207 28.4922 188.324" stroke="#0E0E0E" stroke-width="0.75" stroke-linecap="round" stroke-linejoin="round"/>
<path d="M21.4727 185.73C21.7812 185.746 22.418 185.738 23.0938 185.387C24.2188 184.793 24.5625 183.691 24.6328 183.465" stroke="#0E0E0E" stroke-width="0.75" stroke-linecap="round" stroke-linejoin="round"/>
<path d="M10.6211 146.145C11.8203 155.805 16.0352 177.887 34.1719 194.047C38.0039 197.461 41.918 200.137 45.6602 202.246" stroke="#0E0E0E" stroke-width="0.75" stroke-linecap="round" stroke-linejoin="round"/>
<path d="M39.082 36.0664C39.3008 36.6758 39.4141 37.2812 39.4141 37.9062C39.4141 38.4844 39.3164 39.0469 39.1133 39.6016C38.6875 40.7617 37.6875 41.8789 36.1133 42.9609C34.1172 44.2813 31.9609 44.9414 29.6484 44.9414C28.8672 44.9414 28.1055 44.8672 27.3633 44.707C25.8984 44.4063 24.5352 43.8242 23.2656 42.9688C22.043 42.1289 21.1523 41.207 20.582 40.1914C20.1602 39.4297 19.9531 38.6484 19.9531 37.8359C19.9531 37.3359 20.0352 36.8242 20.1836 36.3164C20.4766 35.4375 20.9258 34.6953 21.543 34.0938C22.1563 33.4961 22.7773 32.9922 23.418 32.5938C23.793 32.3555 24.1797 32.1367 24.5781 31.9336C24.6016 31.9336 24.6406 31.9141 24.6914 31.875C24.7227 31.8516 24.7422 31.8438 24.75 31.8438C24.0469 31.5078 23.418 31.082 22.8555 30.5547C22.293 30.0313 21.8945 29.3555 21.6758 28.5156C21.5938 28.1719 21.5508 27.8242 21.5508 27.4805C21.5508 26.6641 21.7656 25.8906 22.2109 25.1562C22.5859 24.5469 23.0781 24.0391 23.7031 23.6328C24.4727 23.1602 25.1797 22.8242 25.8164 22.6133C26.9883 22.1836 28.2305 21.9688 29.5508 21.9688C29.8203 21.9688 30.0898 21.9688 30.3555 21.9844C31.8477 22.0938 33.2773 22.4688 34.6523 23.1016C36.9258 24.1875 38.0547 25.6797 38.0547 27.5859C38.0547 28.2227 37.9141 28.8359 37.6367 29.4375C37.5781 29.5938 37.4883 29.7461 37.3828 29.8945C37.375 29.9258 37.3516 29.957 37.3203 29.9844C37 30.457 36.6094 30.8477 36.1602 31.1562C35.707 31.4609 35.25 31.7266 34.793 31.9336C34.793 31.9414 34.793 31.9492 34.8086 31.9492C35.3711 32.2188 35.9805 32.5938 36.6328 33.0742C37.2852 33.5469 37.8633 34.125 38.3711 34.793C38.6719 35.1914 38.9102 35.6172 39.0781 36.0742L39.082 36.0664ZM35.5898 36.5391C34.7734 35.6836 33.8555 34.9727 32.8438 34.4102C30.9375 33.375 29.0859 32.8594 27.2734 32.8594C25.6602 32.8594 24.2773 33.2773 23.1328 34.1094C22.4102 34.6641 22.0508 35.3164 22.0508 36.0664C22.0508 36.5703 22.2148 37.0859 22.5547 37.6211C23.1602 38.5742 24.1367 39.5391 25.4883 40.5234C26.6563 41.3789 27.8945 42 29.1914 42.3906C30.168 42.6758 31.1172 42.8086 32.0625 42.8086C32.8438 42.8086 33.5938 42.7109 34.293 42.5117C35.4375 42.1641 36.3242 41.6406 36.9258 40.9297C37.2695 40.5 37.4414 40.043 37.4414 39.5625C37.4414 39.4805 37.4414 39.3906 37.4258 39.293C37.3359 38.7891 37.0977 38.3047 36.7305 37.8164C36.3633 37.3359 35.9805 36.9063 35.5898 36.5234V36.5391ZM36.0312 29.8359C36.1602 29.625 36.2188 29.4141 36.2188 29.207C36.2188 28.9414 36.1523 28.6953 36.0234 28.457C35.8945 28.2148 35.7461 28.0039 35.582 27.8164C35.4258 27.6367 35.2891 27.4961 35.1836 27.4062C35.0547 27.2773 34.9375 27.1641 34.8086 27.0586C34.1953 26.5352 33.457 26.0391 32.6133 25.5586C31.7656 25.0859 30.8555 24.6914 29.8984 24.3828C28.9375 24.0742 27.9844 23.918 27.0391 23.918C25.8477 23.918 24.8359 24.2031 23.9922 24.7812C23.6953 24.9922 23.5078 25.2734 23.4453 25.6289C23.4375 25.7031 23.4297 25.7773 23.4297 25.8594C23.4297 26.25 23.5586 26.6172 23.8203 26.9766C24.6172 28.0195 25.8477 28.9492 27.5117 29.7539C29.0703 30.4961 30.6836 30.8711 32.3555 30.8711C32.7852 30.8711 33.2109 30.8477 33.6445 30.7969C34.125 30.7422 34.5898 30.6445 35.0352 30.5117C35.4766 30.375 35.8125 30.1484 36.0312 29.8359Z" fill="black"/>
<path d="M57.1954 30.5547C55.9727 29.2187 54.5548 27.9219 53.9649 27.2422C53.5235 26.7305 53.2071 26.3398 53.0704 26.1758C53.0626 26.1602 53.0508 26.1445 53.043 26.1289C53.0352 26.1445 53.0196 26.1602 53.0118 26.1758C52.8829 26.3398 52.5704 26.7227 52.1173 27.2422C51.5274 27.9219 50.1094 29.2187 48.8868 30.5547C47.6641 31.8906 47.5665 33.2188 47.8008 34.3203C48.0313 35.4219 49.1876 36.4648 51.0001 36.2344C51.5704 36.1562 51.9844 35.8867 52.293 35.5508C52.0899 37.1094 51.2423 37.9297 51.2423 37.9297H54.7579C54.1133 37.207 53.8907 36.1953 53.8048 35.5586C54.1055 35.8945 54.5274 36.164 55.0899 36.2344C56.9024 36.457 58.0587 35.4219 58.293 34.3203C58.5235 33.2188 58.4259 31.8828 57.2032 30.5547H57.1954Z" fill="#292929" stroke="black" stroke-width="0.5625" stroke-linecap="round" stroke-linejoin="round"/>
<path d="M129.375 201.727C129.16 201.121 129.047 200.512 129.047 199.891C129.047 199.313 129.145 198.75 129.348 198.195C129.773 197.031 130.773 195.914 132.348 194.836C134.34 193.516 136.5 192.855 138.812 192.855C139.598 192.855 140.355 192.93 141.098 193.086C142.563 193.387 143.926 193.973 145.195 194.828C146.418 195.668 147.309 196.59 147.879 197.602C148.301 198.367 148.508 199.148 148.508 199.957C148.508 200.461 148.434 200.969 148.277 201.48C147.984 202.359 147.535 203.102 146.918 203.699C146.305 204.301 145.68 204.805 145.043 205.199C144.668 205.441 144.277 205.656 143.883 205.859C143.859 205.859 143.82 205.883 143.77 205.922C143.738 205.941 143.715 205.949 143.711 205.949C144.406 206.289 145.043 206.715 145.605 207.242C146.168 207.766 146.566 208.441 146.785 209.281C146.867 209.625 146.91 209.969 146.91 210.316C146.91 211.133 146.695 211.906 146.25 212.641C145.875 213.246 145.383 213.758 144.758 214.164C143.988 214.637 143.281 214.973 142.645 215.184C141.473 215.609 140.23 215.828 138.91 215.828C138.641 215.828 138.367 215.828 138.105 215.812C136.613 215.699 135.18 215.324 133.809 214.695C131.535 213.609 130.402 212.117 130.402 210.211C130.402 209.574 130.547 208.957 130.832 208.359C130.891 208.199 130.98 208.051 131.078 207.898C131.086 207.871 131.109 207.84 131.141 207.809C131.461 207.336 131.852 206.949 132.301 206.641C132.75 206.332 133.211 206.07 133.668 205.859C133.668 205.852 133.668 205.844 133.652 205.844C133.09 205.574 132.48 205.199 131.828 204.719C131.176 204.246 130.598 203.672 130.09 203.004C129.789 202.605 129.551 202.18 129.383 201.719L129.375 201.727ZM132.879 201.254C133.695 202.109 134.613 202.824 135.625 203.387C137.527 204.422 139.383 204.938 141.195 204.938C142.809 204.938 144.188 204.52 145.336 203.684C146.055 203.129 146.418 202.477 146.418 201.727C146.418 201.227 146.25 200.707 145.914 200.176C145.305 199.223 144.332 198.254 142.98 197.273C141.813 196.418 140.574 195.797 139.277 195.406C138.301 195.121 137.348 194.984 136.402 194.984C135.617 194.984 134.875 195.082 134.176 195.285C133.027 195.629 132.145 196.156 131.543 196.867C131.199 197.297 131.027 197.754 131.027 198.234C131.027 198.316 131.027 198.406 131.043 198.504C131.133 199.004 131.371 199.492 131.738 199.98C132.105 200.469 132.488 200.887 132.879 201.27V201.254ZM132.438 207.953C132.309 208.164 132.25 208.371 132.25 208.582C132.25 208.844 132.316 209.094 132.445 209.332C132.57 209.574 132.723 209.781 132.887 209.969C133.051 210.148 133.18 210.293 133.285 210.383C133.41 210.512 133.531 210.621 133.66 210.727C134.273 211.254 135.008 211.746 135.855 212.227C136.703 212.699 137.613 213.098 138.57 213.406C139.531 213.711 140.484 213.871 141.43 213.871C142.621 213.871 143.633 213.586 144.473 213.008C144.773 212.797 144.961 212.512 145.023 212.16C145.027 212.086 145.035 212.012 145.035 211.93C145.035 211.539 144.91 211.172 144.648 210.809C143.852 209.77 142.621 208.836 140.957 208.035C139.398 207.293 137.785 206.918 136.113 206.918C135.684 206.918 135.258 206.941 134.82 206.992C134.34 207.047 133.875 207.145 133.434 207.277C132.992 207.414 132.652 207.637 132.438 207.953Z" fill="black"/>
<path d="M111.266 207.242C112.488 208.574 113.902 209.871 114.496 210.555C114.937 211.066 115.254 211.457 115.391 211.621C115.398 211.637 115.41 211.648 115.418 211.664C115.426 211.648 115.441 211.637 115.449 211.621C115.578 211.457 115.891 211.074 116.34 210.555C116.933 209.871 118.351 208.574 119.574 207.242C120.797 205.906 120.894 204.578 120.66 203.477C120.43 202.371 119.273 201.332 117.461 201.563C116.891 201.637 116.476 201.906 116.168 202.246C116.371 200.684 117.219 199.867 117.219 199.867H113.703C114.348 200.586 114.57 201.602 114.652 202.238C114.355 201.898 113.933 201.629 113.371 201.563C111.555 201.336 110.402 202.371 110.168 203.477C109.937 204.578 110.035 205.914 111.258 207.242H111.266Z" fill="#292929" stroke="black" stroke-width="0.5625" stroke-linecap="round" stroke-linejoin="round"/>
<path d="M71.3124 56.7383C69.0077 54.2344 66.3397 51.7813 65.2226 50.4961C64.3827 49.5391 63.789 48.8047 63.5429 48.4961C63.5194 48.4727 63.496 48.4414 63.4804 48.4219C63.4569 48.4414 63.4374 48.4727 63.4218 48.4961C63.1757 48.8047 62.5819 49.5313 61.7421 50.4961C60.6249 51.7813 57.9452 54.2344 55.6522 56.7383C53.3476 59.2422 53.1601 61.7539 53.5976 63.832C54.0311 65.9102 56.2069 67.8672 59.6249 67.4414C60.6991 67.3047 61.4882 66.7891 62.0546 66.1485C61.6757 69.0977 60.0819 70.6289 60.0819 70.6289H66.7147C65.5077 69.2773 65.0702 67.3594 64.9218 66.1641C65.4921 66.8047 66.2694 67.3047 67.3358 67.4414C70.7577 67.8672 72.9296 65.9102 73.3671 63.832C73.8007 61.7539 73.6132 59.2422 71.3124 56.7383Z" fill="#292929" stroke="black" stroke-width="0.5625" stroke-linecap="round" stroke-linejoin="round"/>
<path d="M113.23 56.7383C110.926 54.2344 108.258 51.7813 107.141 50.4961C106.301 49.5391 105.707 48.8047 105.461 48.4961C105.437 48.4727 105.414 48.4414 105.398 48.4219C105.375 48.4414 105.355 48.4727 105.34 48.4961C105.09 48.8047 104.5 49.5313 103.66 50.4961C102.543 51.7813 99.8632 54.2344 97.5702 56.7383C95.2655 59.2422 95.078 61.7539 95.5155 63.832C95.9491 65.9102 98.1249 67.8672 101.543 67.4414C102.617 67.3047 103.402 66.7891 103.973 66.1485C103.59 69.0977 102 70.6289 102 70.6289H108.633C107.426 69.2773 106.988 67.3594 106.84 66.1641C107.41 66.8047 108.187 67.3047 109.254 67.4414C112.676 67.8672 114.848 65.9102 115.285 63.832C115.719 61.7539 115.531 59.2422 113.23 56.7383Z" fill="#292929" stroke="black" stroke-width="0.5625" stroke-linecap="round" stroke-linejoin="round"/>
<path d="M71.3124 114.66C69.0077 112.156 66.3397 109.703 65.2226 108.422C64.3827 107.461 63.789 106.727 63.5429 106.418C63.5194 106.395 63.496 106.367 63.4804 106.344C63.4569 106.367 63.4374 106.395 63.4218 106.418C63.1757 106.727 62.5819 107.453 61.7421 108.422C60.6249 109.703 57.9452 112.156 55.6522 114.66C53.3476 117.164 53.1601 119.68 53.5976 121.754C54.0311 123.832 56.2069 125.789 59.6249 125.363C60.6991 125.227 61.4882 124.711 62.0546 124.074C61.6757 127.02 60.0819 128.551 60.0819 128.551H66.7147C65.5077 127.199 65.0702 125.281 64.9218 124.086C65.4921 124.727 66.2694 125.227 67.3358 125.363C70.7577 125.789 72.9296 123.832 73.3671 121.754C73.8007 119.68 73.6132 117.164 71.3124 114.66Z" fill="#292929" stroke="black" stroke-width="0.5625" stroke-linecap="round" stroke-linejoin="round"/>
<path d="M113.23 114.66C110.926 112.156 108.258 109.703 107.141 108.422C106.301 107.461 105.707 106.727 105.461 106.418C105.437 106.395 105.414 106.367 105.398 106.344C105.375 106.367 105.355 106.395 105.34 106.418C105.09 106.727 104.5 107.453 103.66 108.422C102.543 109.703 99.8632 112.156 97.5702 114.66C95.2655 117.164 95.078 119.68 95.5155 121.754C95.9491 123.832 98.1249 125.789 101.543 125.363C102.617 125.227 103.402 124.711 103.973 124.074C103.59 127.02 102 128.551 102 128.551H108.633C107.426 127.199 106.988 125.281 106.84 124.086C107.41 124.727 108.187 125.227 109.254 125.363C112.676 125.789 114.848 123.832 115.285 121.754C115.719 119.68 115.531 117.164 113.23 114.66Z" fill="#292929" stroke="black" stroke-width="0.5625" stroke-linecap="round" stroke-linejoin="round"/>
<path d="M71.3124 172.582C69.0077 170.078 66.3397 167.625 65.2226 166.344C64.3827 165.383 63.789 164.648 63.5429 164.34C63.5194 164.316 63.496 164.289 63.4804 164.266C63.4569 164.289 63.4374 164.316 63.4218 164.34C63.1757 164.648 62.5819 165.375 61.7421 166.344C60.6249 167.625 57.9452 170.078 55.6522 172.582C53.3476 175.086 53.1601 177.602 53.5976 179.68C54.0311 181.754 56.2069 183.711 59.6249 183.285C60.6991 183.148 61.4882 182.633 62.0546 181.996C61.6757 184.941 60.0819 186.473 60.0819 186.473H66.7147C65.5077 185.121 65.0702 183.203 64.9218 182.012C65.4921 182.648 66.2694 183.148 67.3358 183.285C70.7577 183.711 72.9296 181.754 73.3671 179.68C73.8007 177.602 73.6132 175.086 71.3124 172.582Z" fill="#292929" stroke="black" stroke-width="0.5625" stroke-linecap="round" stroke-linejoin="round"/>
<path d="M113.23 172.582C110.926 170.078 108.258 167.625 107.141 166.344C106.301 165.383 105.707 164.648 105.461 164.34C105.437 164.316 105.414 164.289 105.398 164.266C105.375 164.289 105.355 164.316 105.34 164.34C105.09 164.648 104.5 165.375 103.66 166.344C102.543 167.625 99.8632 170.078 97.5702 172.582C95.2655 175.086 95.078 177.602 95.5155 179.68C95.9491 181.754 98.1249 183.711 101.543 183.285C102.617 183.148 103.402 182.633 103.973 181.996C103.59 184.941 102 186.473 102 186.473H108.633C107.426 185.121 106.988 183.203 106.84 182.012C107.41 182.648 108.187 183.148 109.254 183.285C112.676 183.711 114.848 181.754 115.285 179.68C115.719 177.602 115.531 175.086 113.23 172.582Z" fill="#292929" stroke="black" stroke-width="0.5625" stroke-linecap="round" stroke-linejoin="round"/>
<path d="M92.1837 83.5937C89.8829 81.0898 87.211 78.6367 86.0938 77.3555C85.254 76.3945 84.6602 75.6601 84.4141 75.3515C84.3907 75.332 84.3672 75.3008 84.3555 75.2773C84.3321 75.3008 84.3086 75.332 84.293 75.3515C84.0469 75.6601 83.4532 76.3867 82.6133 77.3555C81.4961 78.6367 78.8204 81.0898 76.5235 83.5937C74.2227 86.1016 74.0352 88.6133 74.4688 90.6914C74.9024 92.7695 77.0782 94.7266 80.5001 94.2969C81.5704 94.1641 82.3594 93.6445 82.9297 93.0078C82.5469 95.957 80.9571 97.4844 80.9571 97.4844H87.586C86.379 96.1367 85.9454 94.2148 85.793 93.0234C86.3633 93.6601 87.1446 94.1641 88.211 94.2969C91.629 94.7266 93.8047 92.7695 94.2383 90.6914C94.6758 88.6133 94.4883 86.1016 92.1837 83.5937Z" fill="#292929" stroke="black" stroke-width="0.5625" stroke-linecap="round" stroke-linejoin="round"/>
<path d="M92.0118 143.363C89.711 140.859 87.0391 138.406 85.9219 137.121C85.0821 136.164 84.4883 135.43 84.2422 135.121C84.2188 135.098 84.1954 135.066 84.1797 135.047C84.1602 135.066 84.1368 135.098 84.1211 135.121C83.8751 135.43 83.2813 136.156 82.4415 137.121C81.3243 138.406 78.6485 140.859 76.3516 143.363C74.0508 145.867 73.8633 148.379 74.2969 150.457C74.7305 152.535 76.9063 154.492 80.3282 154.066C81.3985 153.93 82.1876 153.414 82.7579 152.773C82.3751 155.723 80.7852 157.254 80.7852 157.254H87.4141C86.2071 155.902 85.7735 153.984 85.6211 152.789C86.1915 153.43 86.9727 153.93 88.0352 154.066C91.4571 154.492 93.6329 152.535 94.0665 150.457C94.5001 148.379 94.3126 145.867 92.0118 143.363Z" fill="#292929" stroke="black" stroke-width="0.5625" stroke-linecap="round" stroke-linejoin="round"/>
<defs>
<linearGradient id="paint0_linear_2314_1425" x1="157.697" y1="48.8928" x2="11.0565" y2="48.8928" gradientUnits="userSpaceOnUse">
<stop stop-color="#8F8587"/>
<stop offset="0.00390625" stop-color="#908688"/>
<stop offset="0.0078125" stop-color="#918789"/>
<stop offset="0.0117187" stop-color="#92888A"/>
<stop offset="0.015625" stop-color="#92898B"/>
<stop offset="0.0195312" stop-color="#938A8B"/>
<stop offset="0.0234375" stop-color="#948B8C"/>
<stop offset="0.0273437" stop-color="#958C8D"/>
<stop offset="0.03125" stop-color="#968D8E"/>
<stop offset="0.0351562" stop-color="#978D8F"/>
<stop offset="0.0390625" stop-color="#988E90"/>
<stop offset="0.0429687" stop-color="#988F91"/>
<stop offset="0.046875" stop-color="#999092"/>
<stop offset="0.0507812" stop-color="#9A9193"/>
<stop offset="0.0546875" stop-color="#9B9294"/>
<stop offset="0.0585937" stop-color="#9C9395"/>
<stop offset="0.0625" stop-color="#9D9496"/>
<stop offset="0.0664062" stop-color="#9D9596"/>
<stop offset="0.0703125" stop-color="#9E9697"/>
<stop offset="0.0742188" stop-color="#9F9798"/>
<stop offset="0.078125" stop-color="#A09899"/>
<stop offset="0.0820312" stop-color="#A1999A"/>
<stop offset="0.0859375" stop-color="#A2999B"/>
<stop offset="0.0898438" stop-color="#A39A9C"/>
<stop offset="0.09375" stop-color="#A39B9D"/>
<stop offset="0.0976562" stop-color="#A49C9E"/>
<stop offset="0.101562" stop-color="#A59D9F"/>
<stop offset="0.105469" stop-color="#A69EA0"/>
<stop offset="0.109375" stop-color="#A79FA0"/>
<stop offset="0.113281" stop-color="#A8A0A1"/>
<stop offset="0.117188" stop-color="#A8A1A2"/>
<stop offset="0.121094" stop-color="#A9A2A3"/>
<stop offset="0.125" stop-color="#AAA3A4"/>
<stop offset="0.128906" stop-color="#ABA4A5"/>
<stop offset="0.132812" stop-color="#ACA5A6"/>
<stop offset="0.136719" stop-color="#ADA5A7"/>
<stop offset="0.140625" stop-color="#AEA6A8"/>
<stop offset="0.144531" stop-color="#AEA7A9"/>
<stop offset="0.148438" stop-color="#AFA8AA"/>
<stop offset="0.152344" stop-color="#B0A9AB"/>
<stop offset="0.15625" stop-color="#B1AAAB"/>
<stop offset="0.160156" stop-color="#B2ABAC"/>
<stop offset="0.164062" stop-color="#B3ACAD"/>
<stop offset="0.167969" stop-color="#B3ADAE"/>
<stop offset="0.171875" stop-color="#B4AEAF"/>
<stop offset="0.175781" stop-color="#B5AFB0"/>
<stop offset="0.179688" stop-color="#B6B0B1"/>
<stop offset="0.183594" stop-color="#B7B1B2"/>
<stop offset="0.1875" stop-color="#B8B2B3"/>
<stop offset="0.191406" stop-color="#B9B2B4"/>
<stop offset="0.195312" stop-color="#B9B3B5"/>
<stop offset="0.199219" stop-color="#BAB4B5"/>
<stop offset="0.203125" stop-color="#BBB5B6"/>
<stop offset="0.207031" stop-color="#BCB6B7"/>
<stop offset="0.210938" stop-color="#BDB7B8"/>
<stop offset="0.214844" stop-color="#BEB8B9"/>
<stop offset="0.21875" stop-color="#BEB9BA"/>
<stop offset="0.222656" stop-color="#BFBABB"/>
<stop offset="0.226562" stop-color="#C0BBBC"/>
<stop offset="0.230469" stop-color="#C1BCBD"/>
<stop offset="0.234375" stop-color="#C2BDBE"/>
<stop offset="0.238281" stop-color="#C3BEBF"/>
<stop offset="0.242188" stop-color="#C3BEBF"/>
<stop offset="0.246094" stop-color="#C4BFC0"/>
<stop offset="0.25" stop-color="#C5C0C1"/>
<stop offset="0.253906" stop-color="#C6C1C2"/>
<stop offset="0.257812" stop-color="#C6C2C3"/>
<stop offset="0.261719" stop-color="#C7C3C3"/>
<stop offset="0.265625" stop-color="#C8C3C4"/>
<stop offset="0.269531" stop-color="#C9C4C5"/>
<stop offset="0.273437" stop-color="#C9C5C6"/>
<stop offset="0.277344" stop-color="#CAC6C7"/>
<stop offset="0.28125" stop-color="#CBC7C7"/>
<stop offset="0.285156" stop-color="#CCC7C8"/>
<stop offset="0.289062" stop-color="#CCC8C9"/>
<stop offset="0.292969" stop-color="#CDC9CA"/>
<stop offset="0.296875" stop-color="#CECACB"/>
<stop offset="0.300781" stop-color="#CFCBCB"/>
<stop offset="0.304687" stop-color="#CFCCCC"/>
<stop offset="0.308594" stop-color="#D0CCCD"/>
<stop offset="0.3125" stop-color="#D1CDCE"/>
<stop offset="0.316406" stop-color="#D2CECF"/>
<stop offset="0.320312" stop-color="#D2CFCF"/>
<stop offset="0.324219" stop-color="#D3D0D0"/>
<stop offset="0.328125" stop-color="#D4D0D1"/>
<stop offset="0.332031" stop-color="#D5D1D2"/>
<stop offset="0.335937" stop-color="#D5D2D3"/>
<stop offset="0.339844" stop-color="#D6D3D3"/>
<stop offset="0.34375" stop-color="#D7D4D4"/>
<stop offset="0.347656" stop-color="#D8D5D5"/>
<stop offset="0.351562" stop-color="#D8D5D6"/>
<stop offset="0.355469" stop-color="#D9D6D7"/>
<stop offset="0.359375" stop-color="#DAD7D7"/>
<stop offset="0.363281" stop-color="#DBD8D8"/>
<stop offset="0.367187" stop-color="#DBD9D9"/>
<stop offset="0.371094" stop-color="#DCDADA"/>
<stop offset="0.375" stop-color="#DDDADB"/>
<stop offset="0.378906" stop-color="#DEDBDB"/>
<stop offset="0.382812" stop-color="#DEDCDC"/>
<stop offset="0.386719" stop-color="#DFDDDD"/>
<stop offset="0.390625" stop-color="#E0DEDE"/>
<stop offset="0.394531" stop-color="#E1DEDF"/>
<stop offset="0.398437" stop-color="#E1DFE0"/>
<stop offset="0.402344" stop-color="#E2E0E0"/>
<stop offset="0.40625" stop-color="#E3E1E1"/>
<stop offset="0.410156" stop-color="#E4E2E2"/>
<stop offset="0.414062" stop-color="#E4E3E3"/>
<stop offset="0.417969" stop-color="#E5E3E4"/>
<stop offset="0.421875" stop-color="#E6E4E4"/>
<stop offset="0.425781" stop-color="#E6E5E5"/>
<stop offset="0.429687" stop-color="#E7E6E6"/>
<stop offset="0.433594" stop-color="#E8E7E7"/>
<stop offset="0.4375" stop-color="#E9E7E8"/>
<stop offset="0.441406" stop-color="#E9E8E8"/>
<stop offset="0.445312" stop-color="#EAE9E9"/>
<stop offset="0.449219" stop-color="#EBEAEA"/>
<stop offset="0.453125" stop-color="#ECEBEB"/>
<stop offset="0.457031" stop-color="#ECEBEB"/>
<stop offset="0.460937" stop-color="#EDECEC"/>
<stop offset="0.464844" stop-color="#EDECEC"/>
<stop offset="0.46875" stop-color="#EEEDED"/>
<stop offset="0.472656" stop-color="#EEEEEE"/>
<stop offset="0.476562" stop-color="#EFEEEE"/>
<stop offset="0.480469" stop-color="#EFEFEF"/>
<stop offset="0.484375" stop-color="#F0EFEF"/>
<stop offset="0.488281" stop-color="#F1F0F0"/>
<stop offset="0.492187" stop-color="#F1F1F1"/>
<stop offset="0.496094" stop-color="#F2F1F1"/>
<stop offset="0.5" stop-color="#F2F2F2"/>
<stop offset="0.503906" stop-color="#F3F2F2"/>
<stop offset="0.507812" stop-color="#F3F3F3"/>
<stop offset="0.511719" stop-color="#F4F4F4"/>
<stop offset="0.515625" stop-color="#F5F4F4"/>
<stop offset="0.519531" stop-color="#F5F5F5"/>
<stop offset="0.523438" stop-color="#F6F5F5"/>
<stop offset="0.527344" stop-color="#F6F6F6"/>
<stop offset="0.53125" stop-color="#F7F7F7"/>
<stop offset="0.535156" stop-color="#F7F7F7"/>
<stop offset="0.539062" stop-color="#F8F8F8"/>
<stop offset="0.542969" stop-color="#F8F8F8"/>
<stop offset="0.546875" stop-color="#F9F9F9"/>
<stop offset="0.550781" stop-color="#FAFAFA"/>
<stop offset="0.554688" stop-color="#FAFAFA"/>
<stop offset="0.5625" stop-color="#FBFBFB"/>
<stop offset="0.625" stop-color="#FBFBFB"/>
<stop offset="0.75" stop-color="#FBFBFB"/>
<stop offset="1" stop-color="#FBFBFB"/>
</linearGradient>
<linearGradient id="paint1_linear_2314_1425" x1="10.9066" y1="187.883" x2="157.622" y2="187.883" gradientUnits="userSpaceOnUse">
<stop stop-color="#8F8587"/>
<stop offset="0.00390625" stop-color="#908688"/>
<stop offset="0.0078125" stop-color="#918789"/>
<stop offset="0.0117188" stop-color="#91888A"/>
<stop offset="0.015625" stop-color="#92898A"/>
<stop offset="0.0195312" stop-color="#938A8B"/>
<stop offset="0.0234375" stop-color="#948A8C"/>
<stop offset="0.0273438" stop-color="#958B8D"/>
<stop offset="0.03125" stop-color="#968C8E"/>
<stop offset="0.0351562" stop-color="#968D8F"/>
<stop offset="0.0390625" stop-color="#978E90"/>
<stop offset="0.0429688" stop-color="#988F91"/>
<stop offset="0.046875" stop-color="#999091"/>
<stop offset="0.0507812" stop-color="#9A9192"/>
<stop offset="0.0546875" stop-color="#9A9293"/>
<stop offset="0.0585938" stop-color="#9B9294"/>
<stop offset="0.0625" stop-color="#9C9395"/>
<stop offset="0.0664062" stop-color="#9D9496"/>
<stop offset="0.0703125" stop-color="#9E9597"/>
<stop offset="0.0742188" stop-color="#9E9698"/>
<stop offset="0.078125" stop-color="#9F9798"/>
<stop offset="0.0820312" stop-color="#A09899"/>
<stop offset="0.0859375" stop-color="#A1999A"/>
<stop offset="0.0898438" stop-color="#A29A9B"/>
<stop offset="0.09375" stop-color="#A39A9C"/>
<stop offset="0.0976563" stop-color="#A39B9D"/>
<stop offset="0.101563" stop-color="#A49C9E"/>
<stop offset="0.105469" stop-color="#A59D9F"/>
<stop offset="0.109375" stop-color="#A69E9F"/>
<stop offset="0.113281" stop-color="#A79FA0"/>
<stop offset="0.117188" stop-color="#A7A0A1"/>
<stop offset="0.121094" stop-color="#A8A1A2"/>
<stop offset="0.125" stop-color="#A9A2A3"/>
<stop offset="0.128906" stop-color="#AAA2A4"/>
<stop offset="0.132812" stop-color="#ABA3A5"/>
<stop offset="0.136719" stop-color="#ABA4A6"/>
<stop offset="0.140625" stop-color="#ACA5A6"/>
<stop offset="0.144531" stop-color="#ADA6A7"/>
<stop offset="0.148438" stop-color="#AEA7A8"/>
<stop offset="0.152344" stop-color="#AFA8A9"/>
<stop offset="0.15625" stop-color="#B0A9AA"/>
<stop offset="0.160156" stop-color="#B0AAAB"/>
<stop offset="0.164062" stop-color="#B1AAAC"/>
<stop offset="0.167969" stop-color="#B2ABAD"/>
<stop offset="0.171875" stop-color="#B3ACAD"/>
<stop offset="0.175781" stop-color="#B4ADAE"/>
<stop offset="0.179688" stop-color="#B4AEAF"/>
<stop offset="0.183594" stop-color="#B5AFB0"/>
<stop offset="0.1875" stop-color="#B6B0B1"/>
<stop offset="0.191406" stop-color="#B7B1B2"/>
<stop offset="0.195312" stop-color="#B8B2B3"/>
<stop offset="0.199219" stop-color="#B9B2B4"/>
<stop offset="0.203125" stop-color="#B9B3B4"/>
<stop offset="0.207031" stop-color="#BAB4B5"/>
<stop offset="0.210938" stop-color="#BBB5B6"/>
<stop offset="0.214844" stop-color="#BCB6B7"/>
<stop offset="0.21875" stop-color="#BDB7B8"/>
<stop offset="0.222656" stop-color="#BDB8B9"/>
<stop offset="0.226563" stop-color="#BEB9BA"/>
<stop offset="0.230469" stop-color="#BFBABB"/>
<stop offset="0.234375" stop-color="#C0BABB"/>
<stop offset="0.238281" stop-color="#C1BBBC"/>
<stop offset="0.242188" stop-color="#C1BCBD"/>
<stop offset="0.246094" stop-color="#C2BDBE"/>
<stop offset="0.25" stop-color="#C3BEBF"/>
<stop offset="0.253906" stop-color="#C4BFC0"/>
<stop offset="0.257812" stop-color="#C5C0C1"/>
<stop offset="0.261719" stop-color="#C5C0C1"/>
<stop offset="0.265625" stop-color="#C6C1C2"/>
<stop offset="0.269531" stop-color="#C7C2C3"/>
<stop offset="0.273438" stop-color="#C8C3C4"/>
<stop offset="0.277344" stop-color="#C8C4C5"/>
<stop offset="0.28125" stop-color="#C9C5C5"/>
<stop offset="0.285156" stop-color="#CAC5C6"/>
<stop offset="0.289062" stop-color="#CBC6C7"/>
<stop offset="0.292969" stop-color="#CBC7C8"/>
<stop offset="0.296875" stop-color="#CCC8C9"/>
<stop offset="0.300781" stop-color="#CDC9C9"/>
<stop offset="0.304688" stop-color="#CDC9CA"/>
<stop offset="0.308594" stop-color="#CECACB"/>
<stop offset="0.3125" stop-color="#CFCBCC"/>
<stop offset="0.316406" stop-color="#D0CCCD"/>
<stop offset="0.320312" stop-color="#D0CDCD"/>
<stop offset="0.324219" stop-color="#D1CECE"/>
<stop offset="0.328125" stop-color="#D2CECF"/>
<stop offset="0.332031" stop-color="#D3CFD0"/>
<stop offset="0.335937" stop-color="#D3D0D1"/>
<stop offset="0.339844" stop-color="#D4D1D1"/>
<stop offset="0.34375" stop-color="#D5D2D2"/>
<stop offset="0.347656" stop-color="#D6D2D3"/>
<stop offset="0.351562" stop-color="#D6D3D4"/>
<stop offset="0.355469" stop-color="#D7D4D5"/>
<stop offset="0.359375" stop-color="#D8D5D5"/>
<stop offset="0.363281" stop-color="#D9D6D6"/>
<stop offset="0.367188" stop-color="#D9D7D7"/>
<stop offset="0.371094" stop-color="#DAD7D8"/>
<stop offset="0.375" stop-color="#DBD8D9"/>
<stop offset="0.378906" stop-color="#DCD9D9"/>
<stop offset="0.382812" stop-color="#DCDADA"/>
<stop offset="0.386719" stop-color="#DDDBDB"/>
<stop offset="0.390625" stop-color="#DEDCDC"/>
<stop offset="0.394531" stop-color="#DFDCDD"/>
<stop offset="0.398438" stop-color="#DFDDDD"/>
<stop offset="0.402344" stop-color="#E0DEDE"/>
<stop offset="0.40625" stop-color="#E1DFDF"/>
<stop offset="0.410156" stop-color="#E2E0E0"/>
<stop offset="0.414062" stop-color="#E2E0E1"/>
<stop offset="0.417969" stop-color="#E3E1E1"/>
<stop offset="0.421875" stop-color="#E4E2E2"/>
<stop offset="0.425781" stop-color="#E5E3E3"/>
<stop offset="0.429688" stop-color="#E5E4E4"/>
<stop offset="0.433594" stop-color="#E6E5E5"/>
<stop offset="0.4375" stop-color="#E7E5E5"/>
<stop offset="0.441406" stop-color="#E8E6E6"/>
<stop offset="0.445312" stop-color="#E8E7E7"/>
<stop offset="0.449219" stop-color="#E9E8E8"/>
<stop offset="0.453125" stop-color="#EAE9E9"/>
<stop offset="0.457031" stop-color="#EBE9E9"/>
<stop offset="0.460938" stop-color="#EBEAEA"/>
<stop offset="0.464844" stop-color="#ECEBEB"/>
<stop offset="0.46875" stop-color="#ECEBEB"/>
<stop offset="0.472656" stop-color="#EDECEC"/>
<stop offset="0.476563" stop-color="#EDEDED"/>
<stop offset="0.480469" stop-color="#EEEDED"/>
<stop offset="0.484375" stop-color="#EFEEEE"/>
<stop offset="0.488281" stop-color="#EFEEEE"/>
<stop offset="0.492188" stop-color="#F0EFEF"/>
<stop offset="0.496094" stop-color="#F0F0F0"/>
<stop offset="0.5" stop-color="#F1F0F0"/>
<stop offset="0.503906" stop-color="#F1F1F1"/>
<stop offset="0.507812" stop-color="#F2F1F1"/>
<stop offset="0.511719" stop-color="#F3F2F2"/>
<stop offset="0.515625" stop-color="#F3F3F3"/>
<stop offset="0.519531" stop-color="#F4F3F3"/>
<stop offset="0.523437" stop-color="#F4F4F4"/>
<stop offset="0.527344" stop-color="#F5F4F4"/>
<stop offset="0.53125" stop-color="#F5F5F5"/>
<stop offset="0.535156" stop-color="#F6F6F6"/>
<stop offset="0.539062" stop-color="#F6F6F6"/>
<stop offset="0.542969" stop-color="#F7F7F7"/>
<stop offset="0.546875" stop-color="#F8F7F7"/>
<stop offset="0.550781" stop-color="#F8F8F8"/>
<stop offset="0.554687" stop-color="#F9F9F9"/>
<stop offset="0.558594" stop-color="#F9F9F9"/>
<stop offset="0.5625" stop-color="#FAFAFA"/>
<stop offset="0.566406" stop-color="#FAFAFA"/>
<stop offset="0.570312" stop-color="#FBFBFB"/>
<stop offset="0.578125" stop-color="#FBFBFB"/>
<stop offset="0.59375" stop-color="#FBFBFB"/>
<stop offset="0.625" stop-color="#FBFBFB"/>
<stop offset="0.75" stop-color="#FBFBFB"/>
<stop offset="1" stop-color="#FBFBFB"/>
</linearGradient>
</defs>
</svg>
