<svg width="169" height="238" viewBox="0 0 169 238" fill="none" xmlns="http://www.w3.org/2000/svg">
<path d="M162.531 237.691H6.01562C2.69141 237.691 0 234.977 0 231.629V6.05859C0 2.71484 2.69141 0 6.01562 0H162.531C165.855 0 168.547 2.71484 168.547 6.05859V231.629C168.547 234.977 165.855 237.691 162.531 237.691Z" fill="white"/>
<mask id="mask0_2314_1511" style="mask-type:luminance" maskUnits="userSpaceOnUse" x="10" y="9" width="149" height="79">
<path d="M10.4531 9.82031H158.453V87.8203H10.4531V9.82031Z" fill="white"/>
</mask>
<g mask="url(#mask0_2314_1511)">
<mask id="mask1_2314_1511" style="mask-type:luminance" maskUnits="userSpaceOnUse" x="11" y="10" width="147" height="78">
<path d="M157.68 87.7422C157.68 61.8438 157.687 35.9414 157.695 10.043C108.84 10.043 59.9766 10.043 11.125 10.0508C11.1016 35.5273 11.0781 61.0039 11.0547 86.4844C13.6211 75.0469 18.7969 58.1797 28.6641 49.1719C36.2187 42.2852 39.9922 38.8359 42.9453 37.457C44.3164 36.8086 48.707 34.9141 52.3359 30.4805C53.0117 29.6641 53.5 28.9414 53.8047 28.4609C54.1211 28.8828 55.3359 30.4336 57.0078 30.4648C59.1836 30.5039 61.6133 27.9531 61.7344 24.1133C61.9883 24.6836 64.125 29.2266 68.9844 30.2539C71.3242 30.75 73.2891 30.2266 74.3047 29.8672C74.9648 29.3164 75.8398 28.4688 76.6445 27.2539C77.4297 26.0625 77.8594 24.9453 78.1055 24.1367H90.6523C90.7266 24.6016 91.3359 28.0273 94.457 29.7383C97.5078 31.4102 100.605 30.1367 101.559 29.7539C104.852 28.4258 106.246 25.6875 106.555 25.043C107.297 28.582 109.77 30.7734 111.945 30.6016C112.297 30.5703 113.43 30.4219 114.609 29.1016L118.367 32.2266C119.836 33.0977 121.898 34.3789 124.277 36.0469C127.066 37.9961 136.32 44.5664 143.59 54.0078C153.242 66.5469 156.473 80.3555 157.672 87.7266L157.68 87.7422Z" fill="white"/>
</mask>
<g mask="url(#mask1_2314_1511)">
<path d="M11.0547 10.043V87.7422H157.695V10.043H11.0547Z" fill="url(#paint0_linear_2314_1511)"/>
</g>
</g>
<path d="M158.07 227.844H10.5977C10.5977 182.512 10.5977 137.184 10.5977 91.8516C10.5977 64.4609 10.5977 37.082 10.5977 9.69141H158.07C158.07 37.0352 158.07 64.3789 158.07 91.7266C158.07 137.102 158.07 182.469 158.07 227.844Z" stroke="#0E0E0E" stroke-width="0.75" stroke-linecap="round" stroke-linejoin="round"/>
<path d="M84.25 32.1211C84.1953 31.5 83.9414 29.3164 82.1328 27.4648C80.5117 25.8008 78.6094 25.4023 77.957 25.2891C78.0078 24.6367 78.0625 23.9844 78.1133 23.332C78.9688 22.9336 80.6875 21.9922 82.1094 20.0781C83.5586 18.1367 83.9687 16.1992 84.1055 15.2617C84.4414 16.4336 85.1875 18.4336 86.8789 20.3867C88.1875 21.8867 89.5742 22.8008 90.5312 23.332C90.5859 23.9844 90.6367 24.6367 90.6914 25.2891C90.2266 25.3359 87.2344 25.6797 85.4336 28.2969C84.375 29.8438 84.25 31.418 84.2344 32.1211H84.25Z" fill="white"/>
<path d="M53.0391 21.6758C53.875 21.4336 55.2461 21.1719 56.7969 21.5469C58.1562 21.8711 59.0703 22.5312 59.5898 22.9218C64.1484 26.3398 64.8242 28.9961 67.957 30.1953C68.3633 30.3516 71.2969 31.3203 74.25 29.9414C76.3359 28.9648 77.8203 26.7461 78.0547 24.3359C78.3828 20.8867 75.9844 17.4765 73.1992 16.8515C72.8789 16.7773 71.125 16.3867 69.6914 17.4609C69.5117 17.5937 68.4023 18.4492 68.2422 19.957C68.2187 20.1836 68.0391 22.125 69.5273 23.0703C70.3594 23.5937 71.4141 23.625 72.2539 23.2344C73.4492 22.6875 74.168 21.3164 73.9805 19.8437C74.2734 20.1679 74.6797 20.6719 75 21.3594C75.1562 21.6914 76.1797 23.9492 75.2031 26.1172C74.0195 28.7539 70.7851 29.2187 70.3515 29.2812C67.4648 29.6914 64.4648 28.1797 62.5 25.457" stroke="#0E0E0E" stroke-width="0.75" stroke-linecap="round" stroke-linejoin="round"/>
<path d="M78.1133 23.2422C78.6836 22.9648 79.5742 22.4609 80.4844 21.6367C83.3867 18.9922 83.918 15.3164 84.1563 13.6797C84.293 12.7578 84.4141 11.3867 84.2539 9.68359" stroke="#0E0E0E" stroke-width="0.75" stroke-linecap="round" stroke-linejoin="round"/>
<path d="M77.957 25.1992C78.668 25.3281 79.4414 25.5547 80.207 25.9414C83.6641 27.707 84.1719 31.3945 84.25 32.0312" stroke="#0E0E0E" stroke-width="0.75" stroke-linecap="round" stroke-linejoin="round"/>
<path d="M115.621 21.6758C114.789 21.4336 113.414 21.1719 111.863 21.5469C110.504 21.8711 109.59 22.5312 109.074 22.9218C104.512 26.3398 103.84 28.9961 100.703 30.1953C100.297 30.3516 97.3672 31.3203 94.4102 29.9414C92.3243 28.9648 90.8399 26.7461 90.6094 24.3359C90.2774 20.8867 92.6797 17.4765 95.461 16.8515C95.7813 16.7773 97.5391 16.3867 98.9688 17.4609C99.1524 17.5937 100.262 18.4492 100.418 19.957C100.441 20.1836 100.621 22.125 99.1367 23.0703C98.3047 23.5937 97.2461 23.625 96.4063 23.2344C95.2149 22.6875 94.4922 21.3164 94.6797 19.8437C94.3868 20.1679 93.9844 20.6719 93.6602 21.3594C93.5039 21.6914 92.4844 23.9492 93.4571 26.1172C94.6446 28.7539 97.875 29.2187 98.3125 29.2812C101.199 29.6914 104.199 28.1797 106.164 25.457" stroke="#0E0E0E" stroke-width="0.75" stroke-linecap="round" stroke-linejoin="round"/>
<path d="M90.707 25.1992C89.9922 25.3281 89.2188 25.5547 88.457 25.9414C85 27.707 84.4883 31.3945 84.4141 32.0312" stroke="#0E0E0E" stroke-width="0.75" stroke-linecap="round" stroke-linejoin="round"/>
<path d="M114.914 28.5313C114.805 28.7852 114.211 30.0977 112.824 30.5313C111.352 30.9961 110.062 30.1445 109.523 29.7813C107.25 28.2734 107.027 25.4023 107.004 24.9375" stroke="#0E0E0E" stroke-width="0.75" stroke-linecap="round" stroke-linejoin="round"/>
<path d="M122.887 35.4453C122.242 35.0781 121.336 34.5234 120.317 33.7812C117.367 31.6367 115.067 29.9609 114.465 27.2343C113.918 24.7499 115.035 22.6562 115.231 22.3046C117.067 18.9921 120.914 18.4413 121.711 18.3515C125.289 17.9492 128.918 19.8359 131.192 23.1367" stroke="#0E0E0E" stroke-width="0.75" stroke-linecap="round" stroke-linejoin="round"/>
<path d="M130.695 40.5977C130.734 32.8789 128.844 26.8203 125.852 25.1484C124.313 24.293 122.754 24.2695 122.754 24.2695C122.234 24.2695 119.617 24.3086 117.961 26.4688C116.484 28.3945 116.852 30.6016 116.918 30.9766" stroke="#0E0E0E" stroke-width="0.75" stroke-linecap="round" stroke-linejoin="round"/>
<path d="M151.824 36.6992C152.215 36.5039 153.457 35.9258 154.801 36.2695C157.191 36.8789 157.465 39.7656 157.476 39.9766C157.621 41.8125 156.496 43.9492 154.351 44.7149C152.699 45.3008 151.109 44.836 150.262 44.586C147.519 43.7852 146.012 41.918 145.262 40.9727C142.859 37.9141 144.031 36.4297 141.57 34.2539C140.902 33.6602 139.555 32.4609 137.484 32.1445C135.332 31.8086 134.445 32.7383 132.48 32.1914C130.555 31.6484 129.555 30.2344 129.301 29.8359C129.18 29.6563 127.777 27.3984 129.098 25.125C129.367 24.6524 130.172 23.2813 131.976 22.8828C133.621 22.5313 135.43 23.1289 136.418 24.3086C137.265 25.3125 137.512 26.7305 136.851 27.8555C136.711 28.1016 136.262 28.8672 135.242 29.1758C134.387 29.4297 133.297 29.3164 132.547 28.7188C131.887 28.1836 131.769 27.5039 131.746 27.3008" stroke="#0E0E0E" stroke-width="0.75" stroke-linecap="round" stroke-linejoin="round"/>
<path d="M143.117 36.3437C142.801 32.9257 141.055 30.1132 138.496 29.1992C137.91 28.9882 136.996 28.7773 135.781 28.9296" stroke="#0E0E0E" stroke-width="0.75" stroke-linecap="round" stroke-linejoin="round"/>
<path d="M145.711 41.6485C145.246 41.5274 143.313 41.0782 141.66 42.1563C139.672 43.461 138.879 46.4844 140.102 49.3516" stroke="#0E0E0E" stroke-width="0.75" stroke-linecap="round" stroke-linejoin="round"/>
<path d="M147.066 51.9609C146.762 51.9453 146.125 51.9531 145.449 52.3047C144.352 52.8828 143.992 53.9414 143.926 54.1797" stroke="#0E0E0E" stroke-width="0.75" stroke-linecap="round" stroke-linejoin="round"/>
<path d="M158.055 90.7734C158.039 90.668 158.027 90.4805 157.996 90.2617C157.41 85.125 154.102 61.1406 134.379 43.6445C131.926 41.4687 128.125 38.4141 122.887 35.4453" stroke="#0E0E0E" stroke-width="0.75" stroke-linecap="round" stroke-linejoin="round"/>
<path d="M84.25 32.1211C84.1953 31.5 83.9414 29.3164 82.1328 27.4649C80.5117 25.8008 78.6094 25.4023 77.957 25.2891C78.0078 24.6367 78.0625 23.9844 78.1133 23.332C78.9688 22.9336 80.6875 21.9922 82.1094 20.0781C83.5586 18.1367 83.9688 16.1992 84.1055 15.2617C84.4414 16.4336 85.1875 18.4336 86.8789 20.3867C88.1875 21.8867 89.5742 22.8008 90.5313 23.332C90.586 23.9844 90.6367 24.6367 90.6914 25.2891C90.2266 25.3359 87.2344 25.6797 85.4336 28.2969C84.375 29.8438 84.25 31.418 84.2344 32.1211H84.25Z" fill="black" stroke="black" stroke-width="0.5625" stroke-linecap="round" stroke-linejoin="round"/>
<path d="M115.621 21.6758C114.789 21.4336 113.414 21.1719 111.863 21.5469C110.504 21.8711 109.59 22.5312 109.074 22.9218C104.512 26.3398 103.84 28.9961 100.703 30.1953C100.297 30.3516 97.3672 31.3203 94.4102 29.9414C92.3243 28.9648 90.8399 26.7461 90.6094 24.3359C90.2774 20.8867 92.6797 17.4765 95.461 16.8515C95.7813 16.7773 97.5391 16.3867 98.9688 17.4609C99.1524 17.5937 100.262 18.4492 100.418 19.957C100.441 20.1836 100.621 22.125 99.1367 23.0703C98.3047 23.5937 97.2461 23.625 96.4063 23.2344C95.2149 22.6875 94.4922 21.3164 94.6797 19.8437C94.3868 20.1679 93.9844 20.6719 93.6602 21.3594C93.5039 21.6914 92.4844 23.9492 93.4571 26.1172C94.6446 28.7539 97.875 29.2187 98.3125 29.2812C101.199 29.6914 104.199 28.1797 106.164 25.457" stroke="#0E0E0E" stroke-width="0.75" stroke-linecap="round" stroke-linejoin="round"/>
<path d="M90.5469 23.2422C89.4453 22.6953 88.6719 22.0859 88.1797 21.6367C84.8321 18.5937 84.5118 14.0703 84.3907 12.4063C84.3086 11.2656 84.3516 10.3203 84.4063 9.68359" stroke="#0E0E0E" stroke-width="0.75" stroke-linecap="round" stroke-linejoin="round"/>
<path d="M90.707 25.1992C89.9922 25.3281 89.2188 25.5547 88.457 25.9414C85 27.707 84.4883 31.3945 84.4141 32.0312" stroke="#0E0E0E" stroke-width="0.75" stroke-linecap="round" stroke-linejoin="round"/>
<path d="M114.914 28.5313C114.805 28.7852 114.211 30.0977 112.824 30.5313C111.352 30.9961 110.062 30.1445 109.523 29.7813C107.25 28.2734 107.027 25.4023 107.004 24.9375" stroke="#0E0E0E" stroke-width="0.75" stroke-linecap="round" stroke-linejoin="round"/>
<path d="M122.887 35.4453C122.242 35.0781 121.336 34.5234 120.317 33.7812C117.367 31.6367 115.067 29.9609 114.465 27.2343C113.918 24.7499 115.035 22.6562 115.231 22.3046C117.067 18.9921 120.914 18.4413 121.711 18.3515C125.289 17.9492 128.918 19.8359 131.192 23.1367" stroke="#0E0E0E" stroke-width="0.75" stroke-linecap="round" stroke-linejoin="round"/>
<path d="M130.695 40.5977C130.734 32.8789 128.844 26.8203 125.852 25.1484C124.313 24.293 122.754 24.2695 122.754 24.2695C122.234 24.2695 119.617 24.3086 117.961 26.4688C116.484 28.3945 116.852 30.6016 116.918 30.9766" stroke="#0E0E0E" stroke-width="0.75" stroke-linecap="round" stroke-linejoin="round"/>
<path d="M151.824 36.6992C152.215 36.5039 153.457 35.9258 154.801 36.2695C157.191 36.8789 157.465 39.7656 157.476 39.9766C157.621 41.8125 156.496 43.9492 154.351 44.7149C152.699 45.3008 151.109 44.836 150.262 44.586C147.519 43.7852 146.012 41.918 145.262 40.9727C142.859 37.9141 144.031 36.4297 141.57 34.2539C140.902 33.6602 139.555 32.4609 137.484 32.1445C135.332 31.8086 134.445 32.7383 132.48 32.1914C130.555 31.6484 129.555 30.2344 129.301 29.8359C129.18 29.6563 127.777 27.3984 129.098 25.125C129.367 24.6524 130.172 23.2813 131.976 22.8828C133.621 22.5313 135.43 23.1289 136.418 24.3086C137.265 25.3125 137.512 26.7305 136.851 27.8555C136.711 28.1016 136.262 28.8672 135.242 29.1758C134.387 29.4297 133.297 29.3164 132.547 28.7188C131.887 28.1836 131.769 27.5039 131.746 27.3008" stroke="#0E0E0E" stroke-width="0.75" stroke-linecap="round" stroke-linejoin="round"/>
<path d="M143.117 36.3437C142.801 32.9257 141.055 30.1132 138.496 29.1992C137.91 28.9882 136.996 28.7773 135.781 28.9296" stroke="#0E0E0E" stroke-width="0.75" stroke-linecap="round" stroke-linejoin="round"/>
<path d="M157.965 48.4218C156.734 46.3124 154.77 44.9999 152.813 45.121C150.391 45.2694 148.965 47.5429 148.352 48.5234C144.887 54.0546 148.59 61.6054 149.16 62.7382" stroke="#0E0E0E" stroke-width="0.75" stroke-linecap="round" stroke-linejoin="round"/>
<path d="M158.02 90.0898C156.609 80.4375 152.027 59.3242 134.379 43.6445C130.539 40.2305 126.617 37.5547 122.887 35.4453" stroke="#0E0E0E" stroke-width="0.75" stroke-linecap="round" stroke-linejoin="round"/>
<mask id="mask2_2314_1511" style="mask-type:luminance" maskUnits="userSpaceOnUse" x="10" y="147" width="149" height="81">
<path d="M10.4531 147.82H158.453V227.82H10.4531V147.82Z" fill="white"/>
</mask>
<g mask="url(#mask2_2314_1511)">
<mask id="mask3_2314_1511" style="mask-type:luminance" maskUnits="userSpaceOnUse" x="10" y="148" width="148" height="80">
<path d="M10.9062 148.289C10.9297 174.684 10.9414 201.074 10.9648 227.461C59.8281 227.453 108.691 227.438 157.555 227.43C157.574 201.953 157.598 176.477 157.621 150.996C152.77 162.285 145.328 176.039 133.785 189.781C129.332 195.074 124.844 199.695 120.52 203.699C119.316 205.289 118.117 206.871 116.926 208.461C116.242 208.648 115.563 208.832 114.879 209.02C114.563 208.598 113.348 207.047 111.676 207.016C109.5 206.977 107.07 209.527 106.949 213.367C106.695 212.797 104.559 208.254 99.6992 207.227C97.3594 206.73 95.3945 207.254 94.3789 207.617C93.7188 208.164 92.8437 209.012 92.0391 210.227C91.2539 211.418 90.8242 212.535 90.5781 213.344H78.0312C77.957 212.879 77.3477 209.453 74.2266 207.742C71.1758 206.07 68.0781 207.344 67.125 207.727C63.832 209.055 62.4375 211.793 62.1289 212.438C61.3867 208.898 58.9141 206.707 56.7383 206.879C56.3867 206.91 55.2539 207.059 54.0742 208.379C52.8242 207.336 51.5703 206.297 50.3164 205.254C44.5 202.371 33.6602 196.035 24.5625 183.75C13.9297 169.379 11.5742 154.836 10.9219 148.297L10.9062 148.289Z" fill="white"/>
</mask>
<g mask="url(#mask3_2314_1511)">
<path d="M10.9062 148.289V227.461H157.621V148.289H10.9062Z" fill="url(#paint1_linear_2314_1511)"/>
</g>
</g>
<path d="M84.293 205.574C84.3437 206.199 84.6016 208.379 86.4062 210.234C88.0273 211.898 89.9336 212.297 90.5859 212.406C90.5313 213.059 90.4805 213.711 90.4297 214.367C89.5742 214.762 87.8555 215.707 86.4297 217.621C84.9844 219.563 84.5703 221.496 84.4375 222.434C84.0977 221.266 83.3555 219.262 81.6602 217.312C80.3555 215.812 78.9687 214.898 78.0078 214.367C77.957 213.711 77.9023 213.059 77.8516 212.406C78.3164 212.363 81.3086 212.02 83.1094 209.398C84.1641 207.855 84.293 206.281 84.3086 205.574H84.293Z" fill="white"/>
<path d="M115.508 216.016C114.676 216.254 113.305 216.52 111.75 216.145C110.395 215.82 109.477 215.16 108.961 214.77C104.402 211.352 103.727 208.695 100.59 207.496C100.188 207.336 97.2539 206.371 94.2969 207.75C92.2149 208.727 90.7266 210.945 90.4961 213.352C90.1641 216.805 92.5664 220.215 95.3477 220.836C95.6719 220.914 97.4258 221.305 98.8594 220.231C99.0391 220.094 100.148 219.242 100.305 217.734C100.328 217.508 100.508 215.566 99.0235 214.621C98.1914 214.094 97.1328 214.066 96.293 214.457C95.1016 215.004 94.3789 216.375 94.5664 217.844C94.2774 217.523 93.8711 217.02 93.5469 216.332C93.3906 216 92.3711 213.742 93.3438 211.574C94.5313 208.934 97.7617 208.469 98.1992 208.41C101.086 207.996 104.086 209.512 106.051 212.234" stroke="#0E0E0E" stroke-width="0.75" stroke-linecap="round" stroke-linejoin="round"/>
<path d="M90.4296 214.449C89.371 214.973 88.5976 215.566 88.0585 216.055C84.9452 218.879 84.4882 222.996 84.2695 224.926C84.1288 226.18 84.1445 227.211 84.1718 227.852" stroke="#0E0E0E" stroke-width="0.75" stroke-linecap="round" stroke-linejoin="round"/>
<path d="M90.5859 212.496C89.875 212.371 89.1016 212.145 88.3359 211.754C84.8789 209.992 84.3672 206.305 84.293 205.664" stroke="#0E0E0E" stroke-width="0.75" stroke-linecap="round" stroke-linejoin="round"/>
<path d="M52.9297 216.016C53.7617 216.254 55.1328 216.52 56.6875 216.145C58.043 215.82 58.957 215.16 59.4766 214.77C64.0351 211.352 64.7109 208.695 67.8437 207.496C68.25 207.336 71.1836 206.371 74.1367 207.75C76.2226 208.727 77.707 210.945 77.9414 213.352C78.2695 216.805 75.8711 220.215 73.0899 220.836C72.7656 220.914 71.0117 221.305 69.5781 220.231C69.3984 220.094 68.2891 219.242 68.1289 217.734C68.1094 217.508 67.9297 215.566 69.4141 214.621C70.2461 214.094 71.3047 214.066 72.1445 214.457C73.3359 215.004 74.0547 216.375 73.8672 217.844C74.1601 217.523 74.5664 217.02 74.8867 216.332C75.0469 216 76.0664 213.742 75.0898 211.574C73.9062 208.934 70.6719 208.469 70.2383 208.41C67.3516 207.996 64.3516 209.512 62.3867 212.234" stroke="#0E0E0E" stroke-width="0.75" stroke-linecap="round" stroke-linejoin="round"/>
<path d="M77.8438 212.496C78.5273 212.395 79.3047 212.176 80.0938 211.754C83.3047 210.059 84.1367 206.438 84.293 205.664" stroke="#0E0E0E" stroke-width="0.75" stroke-linecap="round" stroke-linejoin="round"/>
<path d="M53.6328 209.16C53.7461 208.906 54.3398 207.594 55.7266 207.156C57.1953 206.691 58.4844 207.547 59.0274 207.906C61.2969 209.414 61.5234 212.289 61.5469 212.754" stroke="#0E0E0E" stroke-width="0.75" stroke-linecap="round" stroke-linejoin="round"/>
<path d="M45.6601 202.246C46.3047 202.613 47.2148 203.168 48.2344 203.91C51.1797 206.055 53.4844 207.727 54.082 210.457C54.6289 212.941 53.5117 215.031 53.3164 215.387C51.4805 218.699 47.6328 219.246 46.8398 219.336C43.2617 219.742 39.6289 217.852 37.3594 214.555" stroke="#0E0E0E" stroke-width="0.75" stroke-linecap="round" stroke-linejoin="round"/>
<path d="M37.8516 197.102C37.8164 204.816 39.707 210.879 42.6992 212.551C44.2344 213.406 45.7969 213.43 45.7969 213.43C46.3125 213.43 48.9297 213.391 50.5898 211.23C52.0664 209.305 51.6992 207.098 51.6289 206.723" stroke="#0E0E0E" stroke-width="0.75" stroke-linecap="round" stroke-linejoin="round"/>
<path d="M16.7266 201C16.336 201.195 15.0899 201.774 13.75 201.43C11.3555 200.82 11.086 197.934 11.0704 197.723C10.9297 195.887 12.0547 193.746 14.1993 192.984C15.8477 192.399 17.4375 192.863 18.2852 193.109C21.0313 193.914 22.5391 195.781 23.2891 196.727C25.6875 199.785 24.5196 201.27 26.9766 203.445C27.6446 204.039 28.9961 205.238 31.0665 205.555C33.2188 205.891 34.1016 204.961 36.0664 205.508C37.9961 206.047 38.9922 207.465 39.25 207.863C39.3672 208.043 40.7696 210.301 39.4493 212.574C39.1797 213.047 38.3789 214.418 36.5704 214.817C34.9297 215.168 33.1211 214.566 32.1289 213.391C31.2813 212.387 31.0352 210.969 31.6954 209.844C31.8399 209.594 32.2891 208.832 33.3086 208.524C34.1641 208.27 35.25 208.379 36.0001 208.981C36.6602 209.512 36.7813 210.195 36.8047 210.399" stroke="#0E0E0E" stroke-width="0.75" stroke-linecap="round" stroke-linejoin="round"/>
<path d="M25.4336 201.344C25.75 204.766 27.4961 207.578 30.0547 208.492C30.6367 208.703 31.5547 208.914 32.7695 208.762" stroke="#0E0E0E" stroke-width="0.75" stroke-linecap="round" stroke-linejoin="round"/>
<path d="M22.832 196.043C23.3125 196.164 25.2305 196.598 26.8789 195.531C28.8828 194.227 29.6992 191.207 28.4922 188.324" stroke="#0E0E0E" stroke-width="0.75" stroke-linecap="round" stroke-linejoin="round"/>
<path d="M21.4727 185.73C21.7812 185.746 22.418 185.738 23.0938 185.387C24.2188 184.793 24.5625 183.691 24.6289 183.465" stroke="#0E0E0E" stroke-width="0.75" stroke-linecap="round" stroke-linejoin="round"/>
<path d="M10.6211 146.145C11.8203 155.805 16.0352 177.887 34.1719 194.047C38.0039 197.461 41.918 200.137 45.6602 202.246" stroke="#0E0E0E" stroke-width="0.75" stroke-linecap="round" stroke-linejoin="round"/>
<path d="M84.293 205.574C84.3438 206.199 84.6016 208.379 86.4063 210.234C88.0274 211.898 89.9336 212.297 90.5859 212.406C90.5313 213.059 90.4805 213.711 90.4297 214.367C89.9648 214.574 89.3242 214.906 88.6445 215.422C87.1055 216.602 86.3711 217.98 85.7266 219.227C85.1641 220.32 84.4375 222.016 84.0625 224.25C84.0547 223.18 83.8867 220.094 81.6523 217.305C80.3867 215.715 78.9297 214.824 78 214.359C77.9492 213.707 77.8945 213.055 77.8438 212.398C78.3086 212.355 81.3008 212.012 83.1016 209.395C84.1562 207.848 84.2852 206.273 84.3008 205.566L84.293 205.574Z" fill="black" stroke="black" stroke-width="0.5625" stroke-linecap="round" stroke-linejoin="round"/>
<path d="M52.9297 216.016C53.7617 216.254 55.1328 216.52 56.6875 216.145C58.043 215.82 58.957 215.16 59.4766 214.77C64.0351 211.352 64.7109 208.695 67.8437 207.496C68.25 207.336 71.1836 206.371 74.1367 207.75C76.2226 208.727 77.707 210.945 77.9414 213.352C78.2695 216.805 75.8711 220.215 73.0899 220.836C72.7656 220.914 71.0117 221.305 69.5781 220.231C69.3984 220.094 68.2891 219.242 68.1289 217.734C68.1094 217.508 67.9297 215.566 69.4141 214.621C70.2461 214.094 71.3047 214.066 72.1445 214.457C73.3359 215.004 74.0547 216.375 73.8672 217.844C74.1601 217.523 74.5664 217.02 74.8867 216.332C75.0469 216 76.0664 213.742 75.0898 211.574C73.9062 208.934 70.6719 208.469 70.2383 208.41C67.3516 207.996 64.3516 209.512 62.3867 212.234" stroke="#0E0E0E" stroke-width="0.75" stroke-linecap="round" stroke-linejoin="round"/>
<path d="M78 214.449C78.625 214.746 79.4922 215.25 80.3711 216.055C82.2226 217.762 82.8906 219.742 83.4062 221.363C84.2109 223.867 84.293 226.148 84.1797 227.852" stroke="#0E0E0E" stroke-width="0.75" stroke-linecap="round" stroke-linejoin="round"/>
<path d="M77.8438 212.496C78.5273 212.395 79.3047 212.176 80.0938 211.754C83.332 210.039 84.1445 206.332 84.293 205.574" stroke="#0E0E0E" stroke-width="0.75" stroke-linecap="round" stroke-linejoin="round"/>
<path d="M53.6328 209.16C53.7461 208.906 54.3398 207.594 55.7266 207.156C57.1953 206.691 58.4844 207.547 59.0274 207.906C61.2969 209.414 61.5234 212.289 61.5469 212.754" stroke="#0E0E0E" stroke-width="0.75" stroke-linecap="round" stroke-linejoin="round"/>
<path d="M45.6601 202.246C46.3047 202.613 47.2148 203.168 48.2344 203.91C51.1797 206.055 53.4844 207.727 54.082 210.457C54.6289 212.941 53.5117 215.031 53.3164 215.387C51.4805 218.699 47.6328 219.246 46.8398 219.336C43.2617 219.742 39.6289 217.852 37.3594 214.555" stroke="#0E0E0E" stroke-width="0.75" stroke-linecap="round" stroke-linejoin="round"/>
<path d="M37.8516 197.102C37.8164 204.816 39.707 210.879 42.6992 212.551C44.2344 213.406 45.7969 213.43 45.7969 213.43C46.3125 213.43 48.9297 213.391 50.5898 211.23C52.0664 209.305 51.6992 207.098 51.6289 206.723" stroke="#0E0E0E" stroke-width="0.75" stroke-linecap="round" stroke-linejoin="round"/>
<path d="M16.7266 201C16.336 201.195 15.0899 201.774 13.75 201.43C11.3555 200.82 11.086 197.934 11.0704 197.723C10.9297 195.887 12.0547 193.746 14.1993 192.984C15.8477 192.399 17.4375 192.863 18.2852 193.109C21.0313 193.914 22.5391 195.781 23.2891 196.727C25.6875 199.785 24.5196 201.27 26.9766 203.445C27.6446 204.039 28.9961 205.238 31.0665 205.555C33.2188 205.891 34.1016 204.961 36.0664 205.508C37.9961 206.047 38.9922 207.465 39.25 207.863C39.3672 208.043 40.7696 210.301 39.4493 212.574C39.1797 213.047 38.3789 214.418 36.5704 214.817C34.9297 215.168 33.1211 214.566 32.1289 213.391C31.2813 212.387 31.0352 210.969 31.6954 209.844C31.8399 209.594 32.2891 208.832 33.3086 208.524C34.1641 208.27 35.25 208.379 36.0001 208.981C36.6602 209.512 36.7813 210.195 36.8047 210.399" stroke="#0E0E0E" stroke-width="0.75" stroke-linecap="round" stroke-linejoin="round"/>
<path d="M25.4336 201.344C25.75 204.766 27.4961 207.578 30.0547 208.492C30.6367 208.703 31.5547 208.914 32.7695 208.762" stroke="#0E0E0E" stroke-width="0.75" stroke-linecap="round" stroke-linejoin="round"/>
<path d="M10.6641 189.414C10.7539 189.563 12.75 192.758 15.7344 192.57C18.1523 192.422 19.5742 190.156 20.1992 189.164C23.6562 183.645 19.957 176.086 19.3867 174.953" stroke="#0E0E0E" stroke-width="0.75" stroke-linecap="round" stroke-linejoin="round"/>
<path d="M22.832 196.043C23.3125 196.164 25.2305 196.598 26.8789 195.531C28.8828 194.227 29.6992 191.207 28.4922 188.324" stroke="#0E0E0E" stroke-width="0.75" stroke-linecap="round" stroke-linejoin="round"/>
<path d="M21.4727 185.73C21.7812 185.746 22.418 185.738 23.0938 185.387C24.2188 184.793 24.5625 183.691 24.6289 183.465" stroke="#0E0E0E" stroke-width="0.75" stroke-linecap="round" stroke-linejoin="round"/>
<path d="M10.6211 146.145C11.8203 155.805 16.0352 177.887 34.1719 194.047C38.0039 197.461 41.918 200.137 45.6602 202.246" stroke="#0E0E0E" stroke-width="0.75" stroke-linecap="round" stroke-linejoin="round"/>
<path d="M22.5664 36.8164C20.8438 35.0313 19.9805 32.957 19.9805 30.6094V30.5312C19.9805 28.9219 20.4375 27.3594 21.3438 25.8438C22.2969 24.3359 23.5352 23.25 25.0664 22.5664C26.0547 22.1406 27.0977 21.9219 28.1719 21.9219C29.5273 21.9219 30.8789 22.2383 32.207 22.8594C33.5313 23.4922 34.7188 24.3594 35.7539 25.4766C36.1563 25.9219 36.5273 26.3867 36.8477 26.8711C38.1445 28.8594 38.7891 31.0117 38.7891 33.3359C38.7383 36.5117 37.6055 39.2188 35.3867 41.4844C34.2773 42.5781 33.0234 43.418 31.6211 43.9961C30.2187 44.5742 28.75 44.8594 27.2109 44.8594C26.2344 44.8594 25.2812 44.7461 24.3516 44.5117C23.9258 44.3984 23.5 44.2656 23.0859 44.1094H23.0391C22.9961 44.1094 22.957 44.1367 22.9297 44.1992L22.957 44.625H21.8945V39.3242H22.957L22.9297 39.7422C22.9297 40.2539 23.1523 40.6797 23.6016 41.0234C23.6484 41.0547 23.6797 41.0781 23.7148 41.0859V41.1016C24.0391 41.2969 24.375 41.4922 24.7188 41.6641C25.5078 41.9844 26.3047 42.2422 27.1133 42.4297C27.9219 42.6172 28.7266 42.7109 29.5195 42.7109C31.582 42.7109 33.293 42.0469 34.6641 40.7188C35.9922 39.3164 36.6602 37.6133 36.6602 35.6016C36.6602 35.3086 36.6445 35.0117 36.6172 34.7109C35.8281 36.1445 34.75 37.2813 33.3672 38.1211C31.9883 38.9609 30.4727 39.3828 28.8164 39.3828C27.6445 39.3828 26.5195 39.1641 25.4414 38.7227C24.3594 38.2813 23.4063 37.6445 22.5664 36.8086V36.8164ZM32.9336 36.9609C33.7187 36.6445 34.3438 36.1445 34.8164 35.4531C35.2891 34.7617 35.5352 33.9844 35.5664 33.1133V32.957C35.5664 32.0469 35.3789 31.1719 35.0039 30.332C34.6289 29.4922 34.125 28.7109 33.5039 27.9961C32.8789 27.2852 32.1914 26.6563 31.4258 26.1094C30.6602 25.5586 29.8789 25.1094 29.0859 24.7656C28.5898 24.5313 28.082 24.332 27.5469 24.1562C27.0156 23.9844 26.4766 23.8945 25.9297 23.8945C25.6797 23.8945 25.4258 23.9258 25.1797 23.9766C24.1211 24.2266 23.3398 24.7813 22.832 25.6367C22.3203 26.4922 22.0742 27.4141 22.0742 28.4023C22.0742 28.7188 22.0938 29.0234 22.1484 29.3242C22.4844 31.1797 23.4062 32.8711 24.9219 34.4258C25.9297 35.4063 27.0391 36.1563 28.2539 36.6836C29.2578 37.082 30.2031 37.2734 31.0938 37.2734C31.7539 37.2734 32.3633 37.1641 32.9336 36.9453V36.9609Z" fill="black"/>
<path d="M57.203 30.5547C55.9804 29.2187 54.5624 27.9219 53.9687 27.2422C53.5272 26.7305 53.2147 26.3398 53.078 26.1758C53.0702 26.1602 53.0546 26.1445 53.0468 26.1289C53.039 26.1445 53.0272 26.1602 53.0194 26.1758C52.8905 26.3398 52.5741 26.7227 52.1249 27.2422C51.5312 27.9219 50.1171 29.2187 48.8944 30.5547C47.6718 31.8906 47.5741 33.2188 47.8046 34.3203C48.039 35.4219 49.1913 36.4648 51.0077 36.2344C51.578 36.1562 51.9921 35.8867 52.2968 35.5508C52.0937 37.1094 51.2499 37.9297 51.2499 37.9297H54.7655C54.121 37.207 53.8944 36.1953 53.8124 35.5586C54.1132 35.8945 54.5312 36.164 55.0937 36.2344C56.9101 36.457 58.0663 35.4219 58.2968 34.3203C58.5312 33.2188 58.4335 31.8828 57.2109 30.5547H57.203Z" fill="#292929" stroke="black" stroke-width="0.5625" stroke-linecap="round" stroke-linejoin="round"/>
<path d="M145.898 200.969C147.625 202.754 148.484 204.832 148.484 207.18V207.254C148.484 208.867 148.027 210.43 147.121 211.941C146.168 213.449 144.93 214.539 143.402 215.219C142.41 215.648 141.367 215.867 140.297 215.867C138.938 215.867 137.59 215.551 136.262 214.93C134.934 214.297 133.75 213.43 132.715 212.309C132.309 211.867 131.941 211.402 131.617 210.914C130.32 208.93 129.676 206.773 129.676 204.449C129.727 201.277 130.859 198.57 133.082 196.305C134.191 195.211 135.441 194.371 136.844 193.793C138.25 193.215 139.719 192.93 141.254 192.93C142.23 192.93 143.184 193.043 144.113 193.273C144.539 193.387 144.969 193.523 145.379 193.68H145.426C145.469 193.68 145.508 193.648 145.539 193.59L145.508 193.164H146.574V198.465H145.508L145.539 198.047C145.539 197.535 145.313 197.109 144.863 196.762C144.816 196.734 144.789 196.711 144.75 196.703V196.688C144.43 196.492 144.09 196.297 143.746 196.125C142.957 195.805 142.164 195.547 141.352 195.359C140.543 195.172 139.742 195.074 138.945 195.074C136.883 195.074 135.172 195.742 133.801 197.07C132.473 198.473 131.805 200.176 131.805 202.184C131.805 202.477 131.82 202.777 131.852 203.078C132.637 201.645 133.719 200.504 135.098 199.664C136.477 198.824 137.992 198.406 139.652 198.406C140.82 198.406 141.945 198.621 143.027 199.066C144.105 199.508 145.059 200.145 145.898 200.977V200.969ZM135.527 200.836C134.738 201.148 134.117 201.652 133.645 202.344C133.172 203.031 132.922 203.813 132.895 204.684V204.84C132.895 205.746 133.082 206.625 133.457 207.465C133.832 208.305 134.332 209.086 134.957 209.797C135.578 210.512 136.27 211.141 137.031 211.688C137.797 212.234 138.578 212.684 139.375 213.031C139.867 213.262 140.379 213.465 140.91 213.637C141.441 213.809 141.984 213.898 142.531 213.898C142.777 213.898 143.031 213.871 143.281 213.816C144.34 213.57 145.117 213.016 145.629 212.16C146.137 211.305 146.387 210.383 146.387 209.395C146.387 209.078 146.363 208.77 146.312 208.469C145.973 206.617 145.051 204.922 143.535 203.371C142.531 202.387 141.422 201.637 140.207 201.113C139.199 200.715 138.254 200.52 137.363 200.52C136.703 200.52 136.094 200.633 135.527 200.852V200.836Z" fill="black"/>
<path d="M111.262 207.242C112.484 208.574 113.902 209.871 114.496 210.555C114.938 211.066 115.254 211.457 115.387 211.621C115.395 211.637 115.41 211.648 115.418 211.664C115.426 211.648 115.441 211.637 115.449 211.621C115.574 211.457 115.891 211.074 116.34 210.555C116.934 209.871 118.352 208.574 119.574 207.242C120.797 205.906 120.895 204.578 120.66 203.477C120.43 202.371 119.274 201.332 117.457 201.563C116.887 201.637 116.477 201.906 116.168 202.246C116.371 200.684 117.219 199.867 117.219 199.867H113.699C114.344 200.586 114.57 201.602 114.652 202.238C114.352 201.898 113.934 201.629 113.371 201.563C111.555 201.336 110.402 202.371 110.168 203.477C109.938 204.578 110.031 205.914 111.254 207.242H111.262Z" fill="#292929" stroke="black" stroke-width="0.5625" stroke-linecap="round" stroke-linejoin="round"/>
<path d="M71.0626 55.6133C68.7618 53.1094 66.0899 50.6563 64.9727 49.3711C64.1329 48.4141 63.5391 47.6797 63.293 47.3711C63.2696 47.3477 63.2501 47.3164 63.2344 47.2969C63.211 47.3164 63.1876 47.3477 63.1719 47.3711C62.9258 47.6797 62.3321 48.4063 61.4922 49.3711C60.3751 50.6563 57.6993 53.1094 55.4024 55.6133C53.1016 58.1172 52.9141 60.6289 53.3477 62.707C53.7813 64.7852 55.9571 66.7422 59.379 66.3164C60.4493 66.1797 61.2383 65.6641 61.8086 65.0235C61.4258 67.9727 59.836 69.5039 59.836 69.5039H66.4649C65.2579 68.1523 64.8243 66.2344 64.6719 65.0391C65.2422 65.6797 66.0235 66.1797 67.0899 66.3164C70.5079 66.7422 72.6836 64.7852 73.1172 62.707C73.5547 60.6289 73.3673 58.1172 71.0626 55.6133Z" fill="#292929" stroke="black" stroke-width="0.5625" stroke-linecap="round" stroke-linejoin="round"/>
<path d="M71.0626 94.8984C68.7618 92.3945 66.0899 89.9414 64.9727 88.6562C64.1329 87.6992 63.5391 86.9609 63.293 86.6563C63.2696 86.6328 63.2501 86.6016 63.2344 86.582C63.211 86.6016 63.1876 86.6328 63.1719 86.6563C62.9258 86.9609 62.3321 87.6914 61.4922 88.6562C60.3751 89.9414 57.6993 92.3945 55.4024 94.8984C53.1016 97.4023 52.9141 99.9141 53.3477 101.992C53.7813 104.07 55.9571 106.027 59.379 105.602C60.4493 105.465 61.2383 104.949 61.8086 104.309C61.4258 107.258 59.836 108.789 59.836 108.789H66.4649C65.2579 107.437 64.8243 105.52 64.6719 104.324C65.2422 104.961 66.0235 105.465 67.0899 105.602C70.5079 106.027 72.6836 104.07 73.1172 101.992C73.5547 99.9141 73.3673 97.4023 71.0626 94.8984Z" fill="#292929" stroke="black" stroke-width="0.5625" stroke-linecap="round" stroke-linejoin="round"/>
<path d="M71.0626 134.191C68.7618 131.684 66.0899 129.234 64.9727 127.949C64.1329 126.992 63.5391 126.254 63.293 125.949C63.2696 125.926 63.2501 125.895 63.2344 125.871C63.211 125.895 63.1876 125.926 63.1719 125.949C62.9258 126.254 62.3321 126.984 61.4922 127.949C60.3751 129.234 57.6993 131.684 55.4024 134.191C53.1016 136.695 52.9141 139.207 53.3477 141.285C53.7813 143.363 55.9571 145.32 59.379 144.895C60.4493 144.758 61.2383 144.242 61.8086 143.602C61.4258 146.551 59.836 148.082 59.836 148.082H66.4649C65.2579 146.73 64.8243 144.809 64.6719 143.617C65.2422 144.254 66.0235 144.758 67.0899 144.895C70.5079 145.32 72.6836 143.363 73.1172 141.285C73.5547 139.207 73.3673 136.695 71.0626 134.191Z" fill="#292929" stroke="black" stroke-width="0.5625" stroke-linecap="round" stroke-linejoin="round"/>
<path d="M71.0626 173.477C68.7618 170.969 66.0899 168.52 64.9727 167.234C64.1329 166.273 63.5391 165.539 63.293 165.234C63.2696 165.211 63.2501 165.18 63.2344 165.156C63.211 165.18 63.1876 165.211 63.1719 165.234C62.9258 165.539 62.3321 166.27 61.4922 167.234C60.3751 168.52 57.6993 170.969 55.4024 173.477C53.1016 175.98 52.9141 178.492 53.3477 180.57C53.7813 182.648 55.9571 184.605 59.379 184.18C60.4493 184.043 61.2383 183.523 61.8086 182.887C61.4258 185.836 59.836 187.367 59.836 187.367H66.4649C65.2579 186.016 64.8243 184.094 64.6719 182.902C65.2422 183.539 66.0235 184.043 67.0899 184.18C70.5079 184.605 72.6836 182.648 73.1172 180.57C73.5547 178.492 73.3673 175.98 71.0626 173.477Z" fill="#292929" stroke="black" stroke-width="0.5625" stroke-linecap="round" stroke-linejoin="round"/>
<path d="M112.922 55.6133C110.617 53.1094 107.949 50.6563 106.832 49.3711C105.992 48.4141 105.398 47.6797 105.152 47.3711C105.129 47.3477 105.105 47.3164 105.09 47.2969C105.066 47.3164 105.047 47.3477 105.031 47.3711C104.781 47.6797 104.191 48.4063 103.351 49.3711C102.234 50.6563 99.5546 53.1094 97.2616 55.6133C94.9569 58.1172 94.7694 60.6289 95.2069 62.707C95.6405 64.7852 97.8163 66.7422 101.234 66.3164C102.308 66.1797 103.094 65.6641 103.664 65.0235C103.281 67.9727 101.691 69.5039 101.691 69.5039H108.324C107.117 68.1523 106.68 66.2344 106.531 65.0391C107.101 65.6797 107.879 66.1797 108.945 66.3164C112.367 66.7422 114.539 64.7852 114.976 62.707C115.41 60.6289 115.223 58.1172 112.922 55.6133Z" fill="#292929" stroke="black" stroke-width="0.5625" stroke-linecap="round" stroke-linejoin="round"/>
<path d="M112.922 94.8984C110.617 92.3945 107.949 89.9414 106.832 88.6562C105.992 87.6992 105.398 86.9609 105.152 86.6563C105.129 86.6328 105.105 86.6016 105.09 86.582C105.066 86.6016 105.047 86.6328 105.031 86.6563C104.781 86.9609 104.191 87.6914 103.351 88.6562C102.234 89.9414 99.5546 92.3945 97.2616 94.8984C94.9569 97.4023 94.7694 99.9141 95.2069 101.992C95.6405 104.07 97.8163 106.027 101.234 105.602C102.308 105.465 103.094 104.949 103.664 104.309C103.281 107.258 101.691 108.789 101.691 108.789H108.324C107.117 107.437 106.68 105.52 106.531 104.324C107.101 104.961 107.879 105.465 108.945 105.602C112.367 106.027 114.539 104.07 114.976 101.992C115.41 99.9141 115.223 97.4023 112.922 94.8984Z" fill="#292929" stroke="black" stroke-width="0.5625" stroke-linecap="round" stroke-linejoin="round"/>
<path d="M112.922 134.191C110.617 131.684 107.949 129.234 106.832 127.949C105.992 126.992 105.398 126.254 105.152 125.949C105.129 125.926 105.105 125.895 105.09 125.871C105.066 125.895 105.047 125.926 105.031 125.949C104.781 126.254 104.191 126.984 103.351 127.949C102.234 129.234 99.5546 131.684 97.2616 134.191C94.9569 136.695 94.7694 139.207 95.2069 141.285C95.6405 143.363 97.8163 145.32 101.234 144.895C102.308 144.758 103.094 144.242 103.664 143.602C103.281 146.551 101.691 148.082 101.691 148.082H108.324C107.117 146.73 106.68 144.809 106.531 143.617C107.101 144.254 107.879 144.758 108.945 144.895C112.367 145.32 114.539 143.363 114.976 141.285C115.41 139.207 115.223 136.695 112.922 134.191Z" fill="#292929" stroke="black" stroke-width="0.5625" stroke-linecap="round" stroke-linejoin="round"/>
<path d="M112.922 173.477C110.617 170.969 107.949 168.52 106.832 167.234C105.992 166.273 105.398 165.539 105.152 165.234C105.129 165.211 105.105 165.18 105.09 165.156C105.066 165.18 105.047 165.211 105.031 165.234C104.781 165.539 104.191 166.27 103.351 167.234C102.234 168.52 99.5546 170.969 97.2616 173.477C94.9569 175.98 94.7694 178.492 95.2069 180.57C95.6405 182.648 97.8163 184.605 101.234 184.18C102.308 184.043 103.094 183.523 103.664 182.887C103.281 185.836 101.691 187.367 101.691 187.367H108.324C107.117 186.016 106.68 184.094 106.531 182.902C107.101 183.539 107.879 184.043 108.945 184.18C112.367 184.605 114.539 182.648 114.976 180.57C115.41 178.492 115.223 175.98 112.922 173.477Z" fill="#292929" stroke="black" stroke-width="0.5625" stroke-linecap="round" stroke-linejoin="round"/>
<path d="M92.1015 113.844C89.7968 111.336 87.1288 108.887 86.0116 107.602C85.1718 106.645 84.578 105.906 84.3319 105.602C84.3085 105.578 84.2851 105.547 84.2694 105.523C84.2499 105.547 84.2265 105.578 84.2108 105.602C83.9647 105.906 83.371 106.637 82.5311 107.602C81.414 108.887 78.7343 111.336 76.4413 113.844C74.1366 116.348 73.9491 118.859 74.3866 120.938C74.8202 123.016 76.996 124.973 80.414 124.547C81.4882 124.41 82.2772 123.895 82.8436 123.254C82.4647 126.203 80.8749 127.734 80.8749 127.734H87.5038C86.2968 126.383 85.8593 124.461 85.7108 123.27C86.2812 123.906 87.0624 124.41 88.1249 124.547C91.5468 124.973 93.7186 123.016 94.1561 120.938C94.5897 118.859 94.4023 116.348 92.1015 113.844Z" fill="#292929" stroke="black" stroke-width="0.5625" stroke-linecap="round" stroke-linejoin="round"/>
<defs>
<linearGradient id="paint0_linear_2314_1511" x1="157.696" y1="48.8928" x2="11.0556" y2="48.8928" gradientUnits="userSpaceOnUse">
<stop stop-color="#8F8587"/>
<stop offset="0.00390625" stop-color="#908688"/>
<stop offset="0.0078125" stop-color="#918789"/>
<stop offset="0.0117188" stop-color="#92888A"/>
<stop offset="0.015625" stop-color="#92898B"/>
<stop offset="0.0195313" stop-color="#938A8B"/>
<stop offset="0.0234375" stop-color="#948B8C"/>
<stop offset="0.0273438" stop-color="#958C8D"/>
<stop offset="0.03125" stop-color="#968D8E"/>
<stop offset="0.0351563" stop-color="#978D8F"/>
<stop offset="0.0390625" stop-color="#988E90"/>
<stop offset="0.0429688" stop-color="#988F91"/>
<stop offset="0.046875" stop-color="#999092"/>
<stop offset="0.0507813" stop-color="#9A9193"/>
<stop offset="0.0546875" stop-color="#9B9294"/>
<stop offset="0.0585938" stop-color="#9C9395"/>
<stop offset="0.0625" stop-color="#9D9496"/>
<stop offset="0.0664063" stop-color="#9D9596"/>
<stop offset="0.0703125" stop-color="#9E9697"/>
<stop offset="0.0742188" stop-color="#9F9798"/>
<stop offset="0.078125" stop-color="#A09899"/>
<stop offset="0.0820313" stop-color="#A1999A"/>
<stop offset="0.0859375" stop-color="#A2999B"/>
<stop offset="0.0898438" stop-color="#A39A9C"/>
<stop offset="0.09375" stop-color="#A39B9D"/>
<stop offset="0.0976563" stop-color="#A49C9E"/>
<stop offset="0.101563" stop-color="#A59D9F"/>
<stop offset="0.105469" stop-color="#A69EA0"/>
<stop offset="0.109375" stop-color="#A79FA0"/>
<stop offset="0.113281" stop-color="#A8A0A1"/>
<stop offset="0.117188" stop-color="#A8A1A2"/>
<stop offset="0.121094" stop-color="#A9A2A3"/>
<stop offset="0.125" stop-color="#AAA3A4"/>
<stop offset="0.128906" stop-color="#ABA4A5"/>
<stop offset="0.132813" stop-color="#ACA5A6"/>
<stop offset="0.136719" stop-color="#ADA5A7"/>
<stop offset="0.140625" stop-color="#AEA6A8"/>
<stop offset="0.144531" stop-color="#AEA7A9"/>
<stop offset="0.148438" stop-color="#AFA8AA"/>
<stop offset="0.152344" stop-color="#B0A9AB"/>
<stop offset="0.15625" stop-color="#B1AAAB"/>
<stop offset="0.160156" stop-color="#B2ABAC"/>
<stop offset="0.164063" stop-color="#B3ACAD"/>
<stop offset="0.167969" stop-color="#B3ADAE"/>
<stop offset="0.171875" stop-color="#B4AEAF"/>
<stop offset="0.175781" stop-color="#B5AFB0"/>
<stop offset="0.179688" stop-color="#B6B0B1"/>
<stop offset="0.183594" stop-color="#B7B1B2"/>
<stop offset="0.1875" stop-color="#B8B2B3"/>
<stop offset="0.191406" stop-color="#B9B2B4"/>
<stop offset="0.195313" stop-color="#B9B3B5"/>
<stop offset="0.199219" stop-color="#BAB4B5"/>
<stop offset="0.203125" stop-color="#BBB5B6"/>
<stop offset="0.207031" stop-color="#BCB6B7"/>
<stop offset="0.210938" stop-color="#BDB7B8"/>
<stop offset="0.214844" stop-color="#BEB8B9"/>
<stop offset="0.21875" stop-color="#BEB9BA"/>
<stop offset="0.222656" stop-color="#BFBABB"/>
<stop offset="0.226563" stop-color="#C0BBBC"/>
<stop offset="0.230469" stop-color="#C1BCBD"/>
<stop offset="0.234375" stop-color="#C2BDBE"/>
<stop offset="0.238281" stop-color="#C3BEBF"/>
<stop offset="0.242188" stop-color="#C3BEBF"/>
<stop offset="0.246094" stop-color="#C4BFC0"/>
<stop offset="0.25" stop-color="#C5C0C1"/>
<stop offset="0.253906" stop-color="#C6C1C2"/>
<stop offset="0.257813" stop-color="#C6C2C3"/>
<stop offset="0.261719" stop-color="#C7C3C3"/>
<stop offset="0.265625" stop-color="#C8C3C4"/>
<stop offset="0.269531" stop-color="#C9C4C5"/>
<stop offset="0.273438" stop-color="#C9C5C6"/>
<stop offset="0.277344" stop-color="#CAC6C7"/>
<stop offset="0.28125" stop-color="#CBC7C7"/>
<stop offset="0.285156" stop-color="#CCC7C8"/>
<stop offset="0.289063" stop-color="#CCC8C9"/>
<stop offset="0.292969" stop-color="#CDC9CA"/>
<stop offset="0.296875" stop-color="#CECACB"/>
<stop offset="0.300781" stop-color="#CFCBCB"/>
<stop offset="0.304688" stop-color="#CFCCCC"/>
<stop offset="0.308594" stop-color="#D0CCCD"/>
<stop offset="0.3125" stop-color="#D1CDCE"/>
<stop offset="0.316406" stop-color="#D2CECF"/>
<stop offset="0.320313" stop-color="#D2CFCF"/>
<stop offset="0.324219" stop-color="#D3D0D0"/>
<stop offset="0.328125" stop-color="#D4D0D1"/>
<stop offset="0.332031" stop-color="#D5D1D2"/>
<stop offset="0.335938" stop-color="#D5D2D3"/>
<stop offset="0.339844" stop-color="#D6D3D3"/>
<stop offset="0.34375" stop-color="#D7D4D4"/>
<stop offset="0.347656" stop-color="#D8D5D5"/>
<stop offset="0.351563" stop-color="#D8D5D6"/>
<stop offset="0.355469" stop-color="#D9D6D7"/>
<stop offset="0.359375" stop-color="#DAD7D7"/>
<stop offset="0.363281" stop-color="#DBD8D8"/>
<stop offset="0.367188" stop-color="#DBD9D9"/>
<stop offset="0.371094" stop-color="#DCDADA"/>
<stop offset="0.375" stop-color="#DDDADB"/>
<stop offset="0.378906" stop-color="#DEDBDB"/>
<stop offset="0.382813" stop-color="#DEDCDC"/>
<stop offset="0.386719" stop-color="#DFDDDD"/>
<stop offset="0.390625" stop-color="#E0DEDE"/>
<stop offset="0.394531" stop-color="#E1DEDF"/>
<stop offset="0.398438" stop-color="#E1DFE0"/>
<stop offset="0.402344" stop-color="#E2E0E0"/>
<stop offset="0.40625" stop-color="#E3E1E1"/>
<stop offset="0.410156" stop-color="#E4E2E2"/>
<stop offset="0.414063" stop-color="#E4E3E3"/>
<stop offset="0.417969" stop-color="#E5E3E4"/>
<stop offset="0.421875" stop-color="#E6E4E4"/>
<stop offset="0.425781" stop-color="#E6E5E5"/>
<stop offset="0.429688" stop-color="#E7E6E6"/>
<stop offset="0.433594" stop-color="#E8E7E7"/>
<stop offset="0.4375" stop-color="#E9E7E8"/>
<stop offset="0.441406" stop-color="#E9E8E8"/>
<stop offset="0.445313" stop-color="#EAE9E9"/>
<stop offset="0.449219" stop-color="#EBEAEA"/>
<stop offset="0.453125" stop-color="#ECEBEB"/>
<stop offset="0.457031" stop-color="#ECEBEB"/>
<stop offset="0.460938" stop-color="#EDECEC"/>
<stop offset="0.464844" stop-color="#EDECEC"/>
<stop offset="0.46875" stop-color="#EEEDED"/>
<stop offset="0.472656" stop-color="#EEEEEE"/>
<stop offset="0.476563" stop-color="#EFEEEE"/>
<stop offset="0.480469" stop-color="#EFEFEF"/>
<stop offset="0.484375" stop-color="#F0EFEF"/>
<stop offset="0.488281" stop-color="#F1F0F0"/>
<stop offset="0.492188" stop-color="#F1F1F1"/>
<stop offset="0.496094" stop-color="#F2F1F1"/>
<stop offset="0.5" stop-color="#F2F2F2"/>
<stop offset="0.503906" stop-color="#F3F2F2"/>
<stop offset="0.507812" stop-color="#F3F3F3"/>
<stop offset="0.511719" stop-color="#F4F4F4"/>
<stop offset="0.515625" stop-color="#F5F4F4"/>
<stop offset="0.519531" stop-color="#F5F5F5"/>
<stop offset="0.523438" stop-color="#F6F5F5"/>
<stop offset="0.527344" stop-color="#F6F6F6"/>
<stop offset="0.53125" stop-color="#F7F7F7"/>
<stop offset="0.535156" stop-color="#F7F7F7"/>
<stop offset="0.539062" stop-color="#F8F8F8"/>
<stop offset="0.542969" stop-color="#F8F8F8"/>
<stop offset="0.546875" stop-color="#F9F9F9"/>
<stop offset="0.550781" stop-color="#FAFAFA"/>
<stop offset="0.554688" stop-color="#FAFAFA"/>
<stop offset="0.5625" stop-color="#FBFBFB"/>
<stop offset="0.625" stop-color="#FBFBFB"/>
<stop offset="0.75" stop-color="#FBFBFB"/>
<stop offset="1" stop-color="#FBFBFB"/>
</linearGradient>
<linearGradient id="paint1_linear_2314_1511" x1="10.9056" y1="187.883" x2="157.621" y2="187.883" gradientUnits="userSpaceOnUse">
<stop stop-color="#8F8587"/>
<stop offset="0.00390625" stop-color="#908688"/>
<stop offset="0.0078125" stop-color="#918789"/>
<stop offset="0.0117188" stop-color="#91888A"/>
<stop offset="0.015625" stop-color="#92898A"/>
<stop offset="0.0195312" stop-color="#938A8B"/>
<stop offset="0.0234375" stop-color="#948A8C"/>
<stop offset="0.0273438" stop-color="#958B8D"/>
<stop offset="0.03125" stop-color="#968C8E"/>
<stop offset="0.0351562" stop-color="#968D8F"/>
<stop offset="0.0390625" stop-color="#978E90"/>
<stop offset="0.0429687" stop-color="#988F91"/>
<stop offset="0.046875" stop-color="#999091"/>
<stop offset="0.0507812" stop-color="#9A9192"/>
<stop offset="0.0546875" stop-color="#9A9293"/>
<stop offset="0.0585938" stop-color="#9B9294"/>
<stop offset="0.0625" stop-color="#9C9395"/>
<stop offset="0.0664062" stop-color="#9D9496"/>
<stop offset="0.0703125" stop-color="#9E9597"/>
<stop offset="0.0742188" stop-color="#9E9698"/>
<stop offset="0.078125" stop-color="#9F9798"/>
<stop offset="0.0820312" stop-color="#A09899"/>
<stop offset="0.0859375" stop-color="#A1999A"/>
<stop offset="0.0898438" stop-color="#A29A9B"/>
<stop offset="0.09375" stop-color="#A39A9C"/>
<stop offset="0.0976562" stop-color="#A39B9D"/>
<stop offset="0.101562" stop-color="#A49C9E"/>
<stop offset="0.105469" stop-color="#A59D9F"/>
<stop offset="0.109375" stop-color="#A69E9F"/>
<stop offset="0.113281" stop-color="#A79FA0"/>
<stop offset="0.117188" stop-color="#A7A0A1"/>
<stop offset="0.121094" stop-color="#A8A1A2"/>
<stop offset="0.125" stop-color="#A9A2A3"/>
<stop offset="0.128906" stop-color="#AAA2A4"/>
<stop offset="0.132813" stop-color="#ABA3A5"/>
<stop offset="0.136719" stop-color="#ABA4A6"/>
<stop offset="0.140625" stop-color="#ACA5A6"/>
<stop offset="0.144531" stop-color="#ADA6A7"/>
<stop offset="0.148438" stop-color="#AEA7A8"/>
<stop offset="0.152344" stop-color="#AFA8A9"/>
<stop offset="0.15625" stop-color="#B0A9AA"/>
<stop offset="0.160156" stop-color="#B0AAAB"/>
<stop offset="0.164062" stop-color="#B1AAAC"/>
<stop offset="0.167969" stop-color="#B2ABAD"/>
<stop offset="0.171875" stop-color="#B3ACAD"/>
<stop offset="0.175781" stop-color="#B4ADAE"/>
<stop offset="0.179688" stop-color="#B4AEAF"/>
<stop offset="0.183594" stop-color="#B5AFB0"/>
<stop offset="0.1875" stop-color="#B6B0B1"/>
<stop offset="0.191406" stop-color="#B7B1B2"/>
<stop offset="0.195313" stop-color="#B8B2B3"/>
<stop offset="0.199219" stop-color="#B9B2B4"/>
<stop offset="0.203125" stop-color="#B9B3B4"/>
<stop offset="0.207031" stop-color="#BAB4B5"/>
<stop offset="0.210938" stop-color="#BBB5B6"/>
<stop offset="0.214844" stop-color="#BCB6B7"/>
<stop offset="0.21875" stop-color="#BDB7B8"/>
<stop offset="0.222656" stop-color="#BDB8B9"/>
<stop offset="0.226563" stop-color="#BEB9BA"/>
<stop offset="0.230469" stop-color="#BFBABB"/>
<stop offset="0.234375" stop-color="#C0BABB"/>
<stop offset="0.238281" stop-color="#C1BBBC"/>
<stop offset="0.242188" stop-color="#C1BCBD"/>
<stop offset="0.246094" stop-color="#C2BDBE"/>
<stop offset="0.25" stop-color="#C3BEBF"/>
<stop offset="0.253906" stop-color="#C4BFC0"/>
<stop offset="0.257812" stop-color="#C5C0C1"/>
<stop offset="0.261719" stop-color="#C5C0C1"/>
<stop offset="0.265625" stop-color="#C6C1C2"/>
<stop offset="0.269531" stop-color="#C7C2C3"/>
<stop offset="0.273437" stop-color="#C8C3C4"/>
<stop offset="0.277344" stop-color="#C8C4C5"/>
<stop offset="0.28125" stop-color="#C9C5C5"/>
<stop offset="0.285156" stop-color="#CAC5C6"/>
<stop offset="0.289062" stop-color="#CBC6C7"/>
<stop offset="0.292969" stop-color="#CBC7C8"/>
<stop offset="0.296875" stop-color="#CCC8C9"/>
<stop offset="0.300781" stop-color="#CDC9C9"/>
<stop offset="0.304688" stop-color="#CDC9CA"/>
<stop offset="0.308594" stop-color="#CECACB"/>
<stop offset="0.3125" stop-color="#CFCBCC"/>
<stop offset="0.316406" stop-color="#D0CCCD"/>
<stop offset="0.320313" stop-color="#D0CDCD"/>
<stop offset="0.324219" stop-color="#D1CECE"/>
<stop offset="0.328125" stop-color="#D2CECF"/>
<stop offset="0.332031" stop-color="#D3CFD0"/>
<stop offset="0.335938" stop-color="#D3D0D1"/>
<stop offset="0.339844" stop-color="#D4D1D1"/>
<stop offset="0.34375" stop-color="#D5D2D2"/>
<stop offset="0.347656" stop-color="#D6D2D3"/>
<stop offset="0.351562" stop-color="#D6D3D4"/>
<stop offset="0.355469" stop-color="#D7D4D5"/>
<stop offset="0.359375" stop-color="#D8D5D5"/>
<stop offset="0.363281" stop-color="#D9D6D6"/>
<stop offset="0.367188" stop-color="#D9D7D7"/>
<stop offset="0.371094" stop-color="#DAD7D8"/>
<stop offset="0.375" stop-color="#DBD8D9"/>
<stop offset="0.378906" stop-color="#DCD9D9"/>
<stop offset="0.382812" stop-color="#DCDADA"/>
<stop offset="0.386719" stop-color="#DDDBDB"/>
<stop offset="0.390625" stop-color="#DEDCDC"/>
<stop offset="0.394531" stop-color="#DFDCDD"/>
<stop offset="0.398438" stop-color="#DFDDDD"/>
<stop offset="0.402344" stop-color="#E0DEDE"/>
<stop offset="0.40625" stop-color="#E1DFDF"/>
<stop offset="0.410156" stop-color="#E2E0E0"/>
<stop offset="0.414062" stop-color="#E2E0E1"/>
<stop offset="0.417969" stop-color="#E3E1E1"/>
<stop offset="0.421875" stop-color="#E4E2E2"/>
<stop offset="0.425781" stop-color="#E5E3E3"/>
<stop offset="0.429688" stop-color="#E5E4E4"/>
<stop offset="0.433594" stop-color="#E6E5E5"/>
<stop offset="0.4375" stop-color="#E7E5E5"/>
<stop offset="0.441406" stop-color="#E8E6E6"/>
<stop offset="0.445312" stop-color="#E8E7E7"/>
<stop offset="0.449219" stop-color="#E9E8E8"/>
<stop offset="0.453125" stop-color="#EAE9E9"/>
<stop offset="0.457031" stop-color="#EBE9E9"/>
<stop offset="0.460938" stop-color="#EBEAEA"/>
<stop offset="0.464844" stop-color="#ECEBEB"/>
<stop offset="0.46875" stop-color="#ECEBEB"/>
<stop offset="0.472656" stop-color="#EDECEC"/>
<stop offset="0.476562" stop-color="#EDEDED"/>
<stop offset="0.480469" stop-color="#EEEDED"/>
<stop offset="0.484375" stop-color="#EFEEEE"/>
<stop offset="0.488281" stop-color="#EFEEEE"/>
<stop offset="0.492187" stop-color="#F0EFEF"/>
<stop offset="0.496094" stop-color="#F0F0F0"/>
<stop offset="0.5" stop-color="#F1F0F0"/>
<stop offset="0.503906" stop-color="#F1F1F1"/>
<stop offset="0.507812" stop-color="#F2F1F1"/>
<stop offset="0.511719" stop-color="#F3F2F2"/>
<stop offset="0.515625" stop-color="#F3F3F3"/>
<stop offset="0.519531" stop-color="#F4F3F3"/>
<stop offset="0.523438" stop-color="#F4F4F4"/>
<stop offset="0.527344" stop-color="#F5F4F4"/>
<stop offset="0.53125" stop-color="#F5F5F5"/>
<stop offset="0.535156" stop-color="#F6F6F6"/>
<stop offset="0.539062" stop-color="#F6F6F6"/>
<stop offset="0.542969" stop-color="#F7F7F7"/>
<stop offset="0.546875" stop-color="#F8F7F7"/>
<stop offset="0.550781" stop-color="#F8F8F8"/>
<stop offset="0.554688" stop-color="#F9F9F9"/>
<stop offset="0.558594" stop-color="#F9F9F9"/>
<stop offset="0.5625" stop-color="#FAFAFA"/>
<stop offset="0.566406" stop-color="#FAFAFA"/>
<stop offset="0.570312" stop-color="#FBFBFB"/>
<stop offset="0.578125" stop-color="#FBFBFB"/>
<stop offset="0.59375" stop-color="#FBFBFB"/>
<stop offset="0.625" stop-color="#FBFBFB"/>
<stop offset="0.75" stop-color="#FBFBFB"/>
<stop offset="1" stop-color="#FBFBFB"/>
</linearGradient>
</defs>
</svg>
