<svg width="25" height="32" viewBox="0 0 25 32" fill="none" xmlns="http://www.w3.org/2000/svg">
<path d="M23.6458 32H1.35425C0.882613 32 0.5 31.6383 0.5 31.184V0.815984C0.5 0.361725 0.882613 0 1.35425 0H23.6458C24.1174 0 24.5 0.361725 24.5 0.815984V31.184C24.5 31.6383 24.1174 32 23.6458 32Z" fill="url(#paint0_linear_388_803)"/>
<path d="M12.5 16.0002L5.85226 9.3335V12.2995H0.5V19.6939H5.85226V22.6668L12.5 16.0002Z" fill="url(#paint1_linear_388_803)"/>
<path d="M12.5 16.0002L19.1409 9.3335V12.2995H24.5V19.6939H19.1409V22.6668L12.5 16.0002Z" fill="url(#paint2_linear_388_803)"/>
<path d="M12.4967 12L5.8335 5.35605H8.80487V0H16.1954V5.35605H19.1668L12.4967 12Z" fill="url(#paint3_linear_388_803)"/>
<defs>
<linearGradient id="paint0_linear_388_803" x1="12.5" y1="0" x2="12.5" y2="32" gradientUnits="userSpaceOnUse">
<stop stop-color="#FFC1C1"/>
<stop offset="1" stop-color="#9C7A7A"/>
</linearGradient>
<linearGradient id="paint1_linear_388_803" x1="6.5" y1="9.3335" x2="6.5" y2="22.6668" gradientUnits="userSpaceOnUse">
<stop stop-color="#381414"/>
<stop offset="1" stop-color="#1D0808"/>
</linearGradient>
<linearGradient id="paint2_linear_388_803" x1="18.5" y1="9.3335" x2="18.5" y2="22.6668" gradientUnits="userSpaceOnUse">
<stop stop-color="#381414"/>
<stop offset="1" stop-color="#1D0808"/>
</linearGradient>
<linearGradient id="paint3_linear_388_803" x1="12.5002" y1="0" x2="12.5002" y2="12" gradientUnits="userSpaceOnUse">
<stop stop-color="#381414"/>
<stop offset="1" stop-color="#1D0808"/>
</linearGradient>
</defs>
</svg>
