<svg width="96" height="98" viewBox="0 0 96 98" fill="none" xmlns="http://www.w3.org/2000/svg">
<path d="M47.7281 92.8959C72.014 92.8959 91.7017 73.1136 91.7017 48.7109C91.7017 24.3082 72.014 4.52588 47.7281 4.52588C23.4421 4.52588 3.75439 24.3082 3.75439 48.7109C3.75439 73.1136 23.4421 92.8959 47.7281 92.8959Z" fill="url(#paint0_linear_320_15038)" stroke="black" stroke-linecap="round" stroke-linejoin="round"/>
<path d="M33.8997 50.153C27.417 51.0202 22.1988 52.1193 18.5561 52.9865C10.2972 54.9628 6.09251 56.7072 3.29273 54.3578C1.75736 53.0671 0.834135 50.7076 1.0248 48.5296C1.03484 48.3885 1.31582 45.545 3.38304 43.8611C6.73476 41.1285 11.7724 43.8812 20.8842 45.4946C23.8445 46.0189 28.3302 46.6138 33.99 46.5735C33.9599 47.7633 33.9198 48.9632 33.8896 50.153H33.8997Z" fill="url(#paint1_linear_320_15038)" stroke="black" stroke-linecap="round" stroke-linejoin="round"/>
<path d="M34.0502 46.1802C31.1501 45.5147 26.835 44.456 21.6369 42.9334C7.44728 38.769 5.9922 36.7624 5.48041 35.2297C4.09557 31.1158 7.67809 25.1464 10.5682 25.096C12.8662 25.0557 13.9199 28.726 16.6996 32.3863C19.66 36.2784 24.9284 40.6243 35.0437 42.9737C34.8129 43.4073 34.562 43.9518 34.3714 44.6072C34.1907 45.2021 34.1004 45.7365 34.0502 46.1903V46.1802Z" fill="url(#paint2_linear_320_15038)" stroke="black" stroke-linecap="round" stroke-linejoin="round"/>
<path d="M34.1004 51.2923C31.2204 52.0183 26.9254 53.1678 21.7573 54.8013C7.65804 59.2682 6.2431 61.2949 5.76141 62.8478C4.46689 66.992 8.16983 72.8806 11.0599 72.8706C13.358 72.8706 14.3314 69.17 17.0408 65.4493C19.9209 61.4966 25.089 57.0398 35.1642 54.4786C34.9233 54.0551 34.6624 53.5106 34.4517 52.8552C34.261 52.2704 34.1607 51.7259 34.1004 51.2822V51.2923Z" fill="url(#paint3_linear_320_15038)" stroke="black" stroke-linecap="round" stroke-linejoin="round"/>
<path d="M49.8858 63.9971C50.508 70.5411 51.4212 75.8248 52.1537 79.5052C53.8196 87.8743 55.4051 92.1496 52.9666 94.8822C51.6319 96.3745 49.2436 97.2215 47.086 96.9493C46.9455 96.9291 44.1257 96.5459 42.5301 94.4083C39.9411 90.9396 42.8613 85.9887 44.788 76.8936C45.4202 73.9392 46.1728 69.4521 46.3334 63.7651C47.5175 63.8458 48.7017 63.9164 49.8959 63.9971H49.8858Z" fill="url(#paint4_linear_320_15038)" stroke="black" stroke-linecap="round" stroke-linejoin="round"/>
<path d="M45.9516 63.6948C45.1789 66.5786 43.9747 70.8741 42.2687 76.0468C37.6125 90.1432 35.5653 91.5247 34.0199 91.9885C29.8754 93.2287 24.0751 89.4172 24.1253 86.5032C24.1655 84.1941 27.8584 83.2664 31.6014 80.6044C35.5753 77.771 40.0911 72.6386 42.8006 62.5654C43.2221 62.8074 43.7539 63.0797 44.3962 63.3015C44.9782 63.5032 45.5101 63.6141 45.9516 63.6847V63.6948Z" fill="url(#paint5_linear_320_15038)" stroke="black" stroke-linecap="round" stroke-linejoin="round"/>
<path d="M51.0298 63.8258C51.652 66.7398 52.6354 71.1059 54.0704 76.3492C58.0042 90.6675 59.971 92.1598 61.4863 92.7043C65.5606 94.1563 71.5515 90.6574 71.6518 87.7433C71.7321 85.4443 68.0894 84.3251 64.4968 81.4715C60.6735 78.4365 56.4286 73.0822 54.241 62.8779C53.8095 63.0998 53.2576 63.3418 52.6053 63.5333C52.0132 63.7048 51.4713 63.7854 51.0298 63.8358V63.8258Z" fill="url(#paint6_linear_320_15038)" stroke="black" stroke-linecap="round" stroke-linejoin="round"/>
<path d="M49.5749 33.949C50.0666 27.3949 50.8594 22.091 51.5117 18.4006C52.9969 10.0012 54.4921 5.68552 52.0034 3.01344C50.6386 1.55136 48.2403 0.754783 46.0827 1.06737C45.9422 1.08753 43.1324 1.5312 41.577 3.70919C39.0582 7.22826 42.0787 12.1187 44.2062 21.1735C44.8986 24.1178 45.7415 28.5746 46.0325 34.2616C47.2167 34.1607 48.4008 34.0599 49.5849 33.949H49.5749Z" fill="url(#paint7_linear_320_15038)" stroke="black" stroke-linecap="round" stroke-linejoin="round"/>
<path d="M45.6408 34.3222C44.8079 31.4586 43.5134 27.1833 41.697 22.0509C36.7397 8.05523 34.6725 6.71416 33.117 6.28057C28.9525 5.13108 23.2325 9.06356 23.3429 11.9676C23.4332 14.2665 27.1361 15.1236 30.9394 17.705C34.9735 20.4476 39.5997 25.4893 42.5099 35.502C42.9213 35.2499 43.4532 34.9676 44.0954 34.7256C44.6774 34.5138 45.1993 34.3827 45.6508 34.3121L45.6408 34.3222Z" fill="url(#paint8_linear_320_15038)" stroke="black" stroke-linecap="round" stroke-linejoin="round"/>
<path d="M50.7188 34.0904C51.2807 31.1562 52.1738 26.78 53.4985 21.5064C57.1312 7.1075 59.0679 5.57484 60.5732 5.00009C64.6173 3.45734 70.6785 6.83525 70.8391 9.73924C70.9695 12.0382 67.3569 13.2381 63.8145 16.1623C60.0514 19.278 55.9169 24.723 53.95 34.9676C53.5185 34.7559 52.9666 34.524 52.3043 34.3526C51.7122 34.1912 51.1703 34.1207 50.7188 34.0904Z" fill="url(#paint9_linear_320_15038)" stroke="black" stroke-linecap="round" stroke-linejoin="round"/>
<path d="M62.209 50.5359C68.7318 51.03 74.0103 51.8266 77.6831 52.482C86.0423 53.9743 90.3373 55.4767 92.9966 52.9761C94.4517 51.6047 95.2445 49.1948 94.9334 47.0269C94.9133 46.8858 94.4718 44.0624 92.3042 42.4995C88.802 39.9686 83.9349 43.0037 74.9235 45.1413C71.9932 45.8371 67.5577 46.6841 61.8979 46.9765C61.9983 48.1663 62.0986 49.3562 62.209 50.546V50.5359Z" fill="url(#paint10_linear_320_15038)" stroke="black" stroke-linecap="round" stroke-linejoin="round"/>
<path d="M61.8274 46.5834C64.6774 45.7465 68.9323 44.4458 74.0401 42.6207C87.9688 37.6395 89.3034 35.5624 89.735 33.9995C90.879 29.8149 86.9653 24.0674 84.0752 24.1783C81.7872 24.2691 80.9342 27.9898 78.3652 31.8114C75.6357 35.8649 70.6181 40.5133 60.6533 43.4374C60.9042 43.8509 61.1852 44.3853 61.426 45.0306C61.6368 45.6154 61.7672 46.1398 61.8375 46.5935L61.8274 46.5834Z" fill="url(#paint11_linear_320_15038)" stroke="black" stroke-linecap="round" stroke-linejoin="round"/>
<path d="M62.0684 51.6855C64.9886 52.2502 69.3438 53.1476 74.5921 54.4786C88.9222 58.1288 90.4475 60.0749 91.0195 61.5873C92.5549 65.6509 89.1932 71.7412 86.3031 71.9026C84.0151 72.0336 82.8209 68.4037 79.9107 64.8442C76.8099 61.063 71.3909 56.9087 61.1953 54.9324C61.406 54.4988 61.6369 53.9442 61.8075 53.2787C61.968 52.6838 62.0383 52.1393 62.0684 51.6855Z" fill="url(#paint12_linear_320_15038)" stroke="black" stroke-linecap="round" stroke-linejoin="round"/>
<path d="M47.5877 34.7356C55.2746 34.655 61.5666 40.8461 61.6469 48.5699C61.7271 56.2937 55.5656 62.616 47.8788 62.6966C40.1919 62.7773 33.8999 56.5861 33.8196 48.8623C33.7393 41.1385 39.9009 34.8163 47.5877 34.7356Z" fill="url(#paint13_radial_320_15038)" stroke="black" stroke-linecap="round" stroke-linejoin="round"/>
<path d="M85.3008 48.9222C85.3008 69.0802 68.7181 85.7058 48.5031 85.9272H48.0984C27.8734 85.7058 11.3008 69.0802 11.3008 48.9222C11.3008 28.7642 27.8734 12.1386 48.0984 11.9272H48.5031C68.7282 12.1487 85.3008 28.7642 85.3008 48.9222Z" fill="url(#paint14_linear_320_15038)" stroke="black" stroke-linecap="round" stroke-linejoin="round"/>
<path d="M48.6865 79.3384C65.2551 79.3384 78.6865 65.9069 78.6865 49.3384C78.6865 32.7698 65.2551 19.3384 48.6865 19.3384C32.118 19.3384 18.6865 32.7698 18.6865 49.3384C18.6865 65.9069 32.118 79.3384 48.6865 79.3384Z" fill="white" stroke="black" stroke-linecap="round" stroke-linejoin="round"/>
<path d="M48.9226 85.0965C68.7762 85.0965 84.8707 68.9788 84.8707 49.0966C84.8707 29.2144 68.7762 13.0967 48.9226 13.0967C29.0691 13.0967 12.9746 29.2144 12.9746 49.0966C12.9746 68.9788 29.0691 85.0965 48.9226 85.0965Z" fill="url(#paint15_linear_320_15038)" stroke="black" stroke-width="3.82" stroke-linecap="round" stroke-linejoin="round"/>
<path d="M48.8186 85.0965C68.6722 85.0965 84.7667 68.9788 84.7667 49.0966C84.7667 29.2144 68.6722 13.0967 48.8186 13.0967C28.9651 13.0967 12.8706 29.2144 12.8706 49.0966C12.8706 68.9788 28.9651 85.0965 48.8186 85.0965Z" stroke="#959387" stroke-width="1.41" stroke-linecap="round" stroke-linejoin="round"/>
<path d="M82.6075 49.0962C82.5239 51.3284 81.0124 54.0697 78.9646 54.1604C78.0313 54.2022 77.2442 53.693 76.7427 53.2605C76.4292 53.135 75.2591 52.7165 73.8799 53.1699C72.4172 53.6442 71.7207 54.7602 71.5535 55.0462C69.4291 63.3121 62.9653 69.848 54.7462 72.0592C54.7462 72.0592 54.7323 72.0592 54.7253 72.0592C54.0984 72.38 53.2904 72.9939 52.8795 74.0611C52.3501 75.4422 52.8516 76.6629 52.9631 76.928C53.3879 77.4232 53.8964 78.2115 53.8616 79.1531C53.771 81.1969 51.1103 82.8012 48.8117 82.8012C46.5132 82.8012 43.8455 81.1969 43.7549 79.1531C43.7131 78.2184 44.2216 77.4302 44.6534 76.928C44.7649 76.6699 45.2664 75.4492 44.737 74.0611C44.4096 73.1962 43.8176 72.6381 43.2743 72.2824C34.4283 70.2735 27.456 63.319 25.4152 54.4673C25.053 53.9651 24.5236 53.4559 23.7505 53.1629C22.3644 52.6397 21.1455 53.135 20.8877 53.2466C20.3932 53.6721 19.6061 54.1813 18.6658 54.1464C16.625 54.0557 15.0229 51.3911 15.0229 49.0893C15.0229 46.7874 16.625 44.1158 18.6658 44.0251C19.5992 43.9833 20.3862 44.4925 20.8877 44.925C21.1455 45.0436 22.3644 45.5388 23.7505 45.0157C24.5306 44.7157 25.053 44.2135 25.4152 43.7113C27.463 34.8595 34.4283 27.912 43.2743 25.8962C43.8176 25.5404 44.4027 24.9824 44.737 24.1174C45.2664 22.7363 44.7649 21.5087 44.6534 21.2506C44.2285 20.7553 43.7201 19.9671 43.7549 19.0324C43.8455 16.9886 46.5062 15.3843 48.8048 15.3843C51.1033 15.3843 53.771 16.9886 53.8616 19.0324C53.9034 19.9671 53.3949 20.7483 52.9631 21.2506C52.8516 21.5156 52.3501 22.7363 52.8795 24.1174C53.2904 25.1847 54.0984 25.7985 54.7253 26.1194C54.7253 26.1194 54.7392 26.1194 54.7462 26.1194C62.9653 28.3306 69.4221 34.8595 71.5535 43.1253C71.7207 43.4043 72.4172 44.5274 73.8799 45.0087C75.266 45.4621 76.4292 45.0436 76.7427 44.918C76.9516 44.7227 77.7875 43.9763 78.9646 44.0251C80.1696 44.074 80.9219 44.925 81.3328 45.3993C82.6562 46.892 82.6144 48.7684 82.6075 49.0823V49.0962Z" stroke="black" stroke-width="0.7" stroke-linecap="round" stroke-linejoin="round"/>
<path d="M58.4795 27.3962L61.2029 18.8723C61.2656 18.67 61.4885 18.5514 61.6905 18.6212C61.9064 18.6909 62.0179 18.9351 61.9343 19.1443L58.4865 27.4032L58.4795 27.3962Z" fill="#959387" stroke="black" stroke-width="0.7" stroke-linecap="round" stroke-linejoin="round"/>
<path d="M62.1782 29.2168L66.6291 21.4532C66.7335 21.2649 66.9704 21.2021 67.1584 21.3068C67.3535 21.4184 67.4161 21.6834 67.2838 21.8648L62.1782 29.2168Z" fill="#959387" stroke="black" stroke-width="0.7" stroke-linecap="round" stroke-linejoin="round"/>
<path d="M65.4166 31.7841L71.3929 25.1296C71.5391 24.9691 71.7829 24.9552 71.9431 25.1017C72.1103 25.2551 72.1173 25.5202 71.9431 25.6737L65.4097 31.7841H65.4166Z" fill="#959387" stroke="black" stroke-width="0.7" stroke-linecap="round" stroke-linejoin="round"/>
<path d="M68.0498 34.9705L75.2868 29.7181C75.4609 29.5925 75.7047 29.6274 75.8301 29.8018C75.9624 29.9831 75.9067 30.2482 75.7186 30.3668L68.0498 34.9705Z" fill="#959387" stroke="black" stroke-width="0.7" stroke-linecap="round" stroke-linejoin="round"/>
<path d="M69.9517 38.6401L78.1289 35.0268C78.324 34.9431 78.5538 35.0268 78.6444 35.2291C78.7349 35.4384 78.6304 35.6825 78.4145 35.7523L69.9517 38.6401Z" fill="#959387" stroke="black" stroke-width="0.7" stroke-linecap="round" stroke-linejoin="round"/>
<path d="M38.6706 27.4587L35.9472 18.9348C35.8845 18.7325 35.6616 18.6139 35.4596 18.6837C35.2437 18.7534 35.1322 18.9976 35.2158 19.2068L38.6637 27.4657L38.6706 27.4587Z" fill="#959387" stroke="black" stroke-width="0.7" stroke-linecap="round" stroke-linejoin="round"/>
<path d="M34.9642 29.2866L30.5133 21.5231C30.4089 21.3347 30.172 21.2719 29.984 21.3766C29.7889 21.4882 29.7263 21.7532 29.8586 21.9346L34.9642 29.2866Z" fill="#959387" stroke="black" stroke-width="0.7" stroke-linecap="round" stroke-linejoin="round"/>
<path d="M31.7253 31.8461L25.7491 25.1916C25.6028 25.0312 25.359 25.0172 25.1988 25.1637C25.0316 25.3171 25.0247 25.5822 25.1988 25.7357L31.7323 31.8461H31.7253Z" fill="#959387" stroke="black" stroke-width="0.7" stroke-linecap="round" stroke-linejoin="round"/>
<path d="M29.0925 35.034L21.8555 29.7815C21.6814 29.656 21.4376 29.6909 21.3122 29.8652C21.1799 30.0466 21.2356 30.3117 21.4237 30.4303L29.0925 35.034Z" fill="#959387" stroke="black" stroke-width="0.7" stroke-linecap="round" stroke-linejoin="round"/>
<path d="M27.1912 38.7031L19.0139 35.0898C18.8189 35.0061 18.589 35.0898 18.4985 35.2921C18.4079 35.5014 18.5124 35.7455 18.7283 35.8153L27.1912 38.7031Z" fill="#959387" stroke="black" stroke-width="0.7" stroke-linecap="round" stroke-linejoin="round"/>
<path d="M38.5578 70.6847L35.8344 79.2086C35.7717 79.4109 35.5488 79.5295 35.3468 79.4597C35.1309 79.39 35.0194 79.1458 35.103 78.9366L38.5509 70.6777L38.5578 70.6847Z" fill="#959387" stroke="black" stroke-width="0.7" stroke-linecap="round" stroke-linejoin="round"/>
<path d="M34.8524 68.8574L30.4015 76.621C30.297 76.8093 30.0602 76.8721 29.8722 76.7675C29.6771 76.6559 29.6144 76.3908 29.7468 76.2095L34.8524 68.8574Z" fill="#959387" stroke="black" stroke-width="0.7" stroke-linecap="round" stroke-linejoin="round"/>
<path d="M31.614 66.2974L25.6377 72.9519C25.4915 73.1123 25.2477 73.1262 25.0875 72.9798C24.9203 72.8263 24.9133 72.5612 25.0875 72.4078L31.6209 66.2974H31.614Z" fill="#959387" stroke="black" stroke-width="0.7" stroke-linecap="round" stroke-linejoin="round"/>
<path d="M28.9812 63.1099L21.7442 68.3623C21.5701 68.4879 21.3263 68.453 21.2009 68.2786C21.0686 68.0973 21.1243 67.8322 21.3124 67.7136L28.9812 63.1099Z" fill="#959387" stroke="black" stroke-width="0.7" stroke-linecap="round" stroke-linejoin="round"/>
<path d="M27.0799 59.4409L18.9026 63.0542C18.7076 63.1379 18.4777 63.0542 18.3872 62.8519C18.2966 62.6426 18.4011 62.3985 18.617 62.3287L27.0799 59.4409Z" fill="#959387" stroke="black" stroke-width="0.7" stroke-linecap="round" stroke-linejoin="round"/>
<path d="M58.5835 70.6847L61.3069 79.2086C61.3696 79.4109 61.5925 79.5295 61.7945 79.4597C62.0104 79.39 62.1219 79.1458 62.0383 78.9366L58.5905 70.6777L58.5835 70.6847Z" fill="#959387" stroke="black" stroke-width="0.7" stroke-linecap="round" stroke-linejoin="round"/>
<path d="M62.2886 68.8574L66.7394 76.621C66.8439 76.8093 67.0807 76.8721 67.2688 76.7675C67.4638 76.6559 67.5265 76.3908 67.3942 76.2095L62.2886 68.8574Z" fill="#959387" stroke="black" stroke-width="0.7" stroke-linecap="round" stroke-linejoin="round"/>
<path d="M65.5275 66.2974L71.5037 72.9519C71.65 73.1123 71.8938 73.1262 72.054 72.9798C72.2211 72.8263 72.2281 72.5612 72.054 72.4078L65.5205 66.2974H65.5275Z" fill="#959387" stroke="black" stroke-width="0.7" stroke-linecap="round" stroke-linejoin="round"/>
<path d="M68.1611 63.1099L75.3981 68.3623C75.5722 68.4879 75.816 68.453 75.9414 68.2786C76.0737 68.0973 76.018 67.8322 75.83 67.7136L68.1611 63.1099Z" fill="#959387" stroke="black" stroke-width="0.7" stroke-linecap="round" stroke-linejoin="round"/>
<path d="M70.063 59.4409L78.2403 63.0542C78.4353 63.1379 78.6652 63.0542 78.7557 62.8519C78.8463 62.6426 78.7418 62.3985 78.5259 62.3287L70.063 59.4409Z" fill="#959387" stroke="black" stroke-width="0.7" stroke-linecap="round" stroke-linejoin="round"/>
<path d="M50.0927 17.7698C49.0967 17.7489 48.8668 18.5092 48.8111 18.8719C48.7554 18.5022 48.5255 17.7419 47.5295 17.7698C46.22 17.8047 46.0459 19.2695 46.5056 20.0159C46.9653 20.7552 47.2021 20.9924 47.6548 21.4667C48.0867 21.9132 48.6021 22.4154 48.7902 22.7223C48.7902 22.7223 48.7972 22.7572 48.8041 22.7502C48.8041 22.7572 48.8181 22.7223 48.8181 22.7223C49.0061 22.4154 49.5216 21.9132 49.9534 21.4667C50.4131 20.9924 50.6499 20.7552 51.1027 20.0159C51.5624 19.2765 51.3883 17.8047 50.0788 17.7698H50.0927Z" fill="black"/>
<path d="M48.7908 75.7002C48.4773 76.1885 48.1012 76.7186 47.6276 77.2627C47.3141 77.6254 47.0007 77.9532 46.7012 78.2392C47.0843 78.6229 47.4883 79.0623 47.8992 79.5785C48.2405 80.011 48.54 80.4295 48.7908 80.8201C49.0415 80.4365 49.341 80.0319 49.6754 79.6204C50.1003 79.0972 50.5251 78.6508 50.9291 78.2602C50.5739 77.9393 50.1908 77.5556 49.8007 77.0953C49.3828 76.6 49.0555 76.1257 48.7908 75.7002Z" fill="black"/>
<path d="M78.1568 50.8335C78.714 50.3243 79.2573 49.7314 79.5429 49.4803C79.7588 49.292 79.919 49.1594 79.9887 49.1106C79.9887 49.1106 80.0026 49.1036 80.0026 49.0967C80.0026 49.0967 79.9887 49.0897 79.9887 49.0827C79.919 49.0269 79.7588 48.8944 79.5429 48.713C79.2573 48.4619 78.714 47.869 78.1568 47.3598C77.5996 46.8506 77.0423 46.8087 76.5826 46.9064C76.1229 47.0041 75.6841 47.4854 75.7816 48.2457C75.8095 48.4828 75.9279 48.6572 76.0672 48.7828C75.4125 48.6991 75.0781 48.3433 75.0781 48.3433V49.8151C75.3776 49.5431 75.8025 49.4524 76.0672 49.4175C75.9279 49.5431 75.8164 49.7175 75.7816 49.9546C75.6841 50.715 76.1229 51.1963 76.5826 51.2939C77.0423 51.3916 77.5996 51.3497 78.1568 50.8405V50.8335Z" fill="black"/>
<path d="M52.5664 59.4071C53.2211 59.4211 54.1545 59.442 55.2689 59.4559C57.5187 59.4769 58.6541 59.4769 59.0371 59.2955C61.1825 58.2841 60.5277 52.641 60.3118 51.0436C61.273 50.5972 62.2273 50.1578 63.1885 49.7113C61.7884 46.9282 60.3954 44.145 58.9953 41.3618H42.1602C41.6169 41.606 41.2825 41.8989 41.1014 42.0873C39.7084 43.5102 40.2586 45.6377 40.189 50.6042C40.175 51.518 40.1472 52.2573 40.1263 52.6619C37.7441 52.4736 35.6128 53.6594 34.7909 55.5427C33.8366 57.733 35.1252 59.8396 35.3063 60.1256C36.9013 62.6158 40.2656 63.0203 42.4945 62.56C43.393 62.3786 45.3294 61.7927 46.7782 60.0419C47.412 59.2746 48.1225 58.0609 48.6936 49.8229C48.9305 46.3632 48.9931 43.873 50.8529 42.2895C51.3405 41.871 51.8211 41.6269 52.1484 41.4874" stroke="black" stroke-width="1.41" stroke-linecap="round" stroke-linejoin="round"/>
<path d="M59.0861 41.4379H42.0698L38.7334 35.46H62.4225L59.0861 41.4379Z" stroke="black" stroke-width="1.41" stroke-linecap="round" stroke-linejoin="round"/>
<path d="M55.8679 47.9386C56.5565 47.9386 57.1147 47.3796 57.1147 46.69C57.1147 46.0004 56.5565 45.4414 55.8679 45.4414C55.1793 45.4414 54.6211 46.0004 54.6211 46.69C54.6211 47.3796 55.1793 47.9386 55.8679 47.9386Z" fill="black"/>
<path d="M19.6962 47.15C19.1529 47.6523 19.4733 48.4126 19.4733 48.4126C19.2435 48.1964 19.0624 48.0568 18.6862 48.0847C18.6723 48.0847 18.6584 48.0847 18.6514 48.0847C18.0524 48.0847 17.5718 48.566 17.5718 49.1659C17.5718 49.7658 18.0524 50.2471 18.6514 50.2471C18.728 50.2471 18.7977 50.2401 18.8673 50.2262C19.125 50.1983 19.2852 50.0727 19.4733 49.8983C19.4733 49.8983 19.1529 50.6656 19.6962 51.1609C20.2395 51.6631 20.8873 51.412 21.0962 51.2516C21.3052 51.0911 21.6674 50.8609 21.6256 50.3029C21.5908 49.8146 21.5072 49.7379 21.2355 49.4031C21.9739 49.4449 22.4823 49.8914 22.4823 49.8914V49.8635V49.152V48.4405V48.4126C22.1968 48.6846 21.542 48.9218 21.2425 48.8939C21.5072 48.5661 21.5908 48.4893 21.6256 48.001C21.6674 47.443 21.3122 47.2128 21.0962 47.0524C20.8873 46.892 20.2395 46.6478 19.6962 47.1431V47.15Z" fill="black"/>
<defs>
<linearGradient id="paint0_linear_320_15038" x1="48.2241" y1="93.3202" x2="47.2943" y2="4.95514" gradientUnits="userSpaceOnUse">
<stop stop-color="#80776D"/>
<stop offset="0.22" stop-color="#918789"/>
<stop offset="0.55" stop-color="#BBB0AE"/>
<stop offset="0.84" stop-color="#D7CCC8"/>
<stop offset="1" stop-color="#E2D7D2"/>
</linearGradient>
<linearGradient id="paint1_linear_320_15038" x1="17.6157" y1="55.7979" x2="17.4812" y2="43.0129" gradientUnits="userSpaceOnUse">
<stop stop-color="#80776D"/>
<stop offset="0.22" stop-color="#918789"/>
<stop offset="0.55" stop-color="#BBB0AE"/>
<stop offset="0.84" stop-color="#D7CCC8"/>
<stop offset="1" stop-color="#E2D7D2"/>
</linearGradient>
<linearGradient id="paint2_linear_320_15038" x1="20.2312" y1="46.7553" x2="20.0067" y2="25.4203" gradientUnits="userSpaceOnUse">
<stop stop-color="#80776D"/>
<stop offset="0.22" stop-color="#918789"/>
<stop offset="0.55" stop-color="#BBB0AE"/>
<stop offset="0.84" stop-color="#D7CCC8"/>
<stop offset="1" stop-color="#E2D7D2"/>
</linearGradient>
<linearGradient id="paint3_linear_320_15038" x1="20.6964" y1="51.8519" x2="20.9209" y2="73.187" gradientUnits="userSpaceOnUse">
<stop stop-color="#80776D"/>
<stop offset="0.22" stop-color="#918789"/>
<stop offset="0.55" stop-color="#BBB0AE"/>
<stop offset="0.84" stop-color="#D7CCC8"/>
<stop offset="1" stop-color="#E2D7D2"/>
</linearGradient>
<linearGradient id="paint4_linear_320_15038" x1="54.5461" y1="80.6316" x2="41.8258" y2="80.3045" gradientUnits="userSpaceOnUse">
<stop stop-color="#80776D"/>
<stop offset="0.22" stop-color="#918789"/>
<stop offset="0.55" stop-color="#BBB0AE"/>
<stop offset="0.84" stop-color="#D7CCC8"/>
<stop offset="1" stop-color="#E2D7D2"/>
</linearGradient>
<linearGradient id="paint5_linear_320_15038" x1="45.6473" y1="77.6774" x2="24.42" y2="77.1316" gradientUnits="userSpaceOnUse">
<stop stop-color="#80776D"/>
<stop offset="0.22" stop-color="#918789"/>
<stop offset="0.55" stop-color="#BBB0AE"/>
<stop offset="0.84" stop-color="#D7CCC8"/>
<stop offset="1" stop-color="#E2D7D2"/>
</linearGradient>
<linearGradient id="paint6_linear_320_15038" x1="50.7271" y1="77.7512" x2="71.9544" y2="78.2971" gradientUnits="userSpaceOnUse">
<stop stop-color="#80776D"/>
<stop offset="0.22" stop-color="#918789"/>
<stop offset="0.55" stop-color="#BBB0AE"/>
<stop offset="0.84" stop-color="#D7CCC8"/>
<stop offset="1" stop-color="#E2D7D2"/>
</linearGradient>
<linearGradient id="paint7_linear_320_15038" x1="53.7919" y1="17.1278" x2="41.0912" y2="17.7217" gradientUnits="userSpaceOnUse">
<stop stop-color="#80776D"/>
<stop offset="0.22" stop-color="#918789"/>
<stop offset="0.55" stop-color="#BBB0AE"/>
<stop offset="0.84" stop-color="#D7CCC8"/>
<stop offset="1" stop-color="#E2D7D2"/>
</linearGradient>
<linearGradient id="paint8_linear_320_15038" x1="44.9673" y1="20.27" x2="23.746" y2="21.2623" gradientUnits="userSpaceOnUse">
<stop stop-color="#80776D"/>
<stop offset="0.22" stop-color="#918789"/>
<stop offset="0.55" stop-color="#BBB0AE"/>
<stop offset="0.84" stop-color="#D7CCC8"/>
<stop offset="1" stop-color="#E2D7D2"/>
</linearGradient>
<linearGradient id="paint9_linear_320_15038" x1="50.055" y1="20.1621" x2="71.2663" y2="19.1702" gradientUnits="userSpaceOnUse">
<stop stop-color="#80776D"/>
<stop offset="0.22" stop-color="#918789"/>
<stop offset="0.55" stop-color="#BBB0AE"/>
<stop offset="0.84" stop-color="#D7CCC8"/>
<stop offset="1" stop-color="#E2D7D2"/>
</linearGradient>
<linearGradient id="paint10_linear_320_15038" x1="78.7867" y1="54.7626" x2="78.1843" y2="42.0014" gradientUnits="userSpaceOnUse">
<stop stop-color="#80776D"/>
<stop offset="0.22" stop-color="#918789"/>
<stop offset="0.55" stop-color="#BBB0AE"/>
<stop offset="0.84" stop-color="#D7CCC8"/>
<stop offset="1" stop-color="#E2D7D2"/>
</linearGradient>
<linearGradient id="paint11_linear_320_15038" x1="75.6589" y1="45.886" x2="74.6528" y2="24.5737" gradientUnits="userSpaceOnUse">
<stop stop-color="#80776D"/>
<stop offset="0.22" stop-color="#918789"/>
<stop offset="0.55" stop-color="#BBB0AE"/>
<stop offset="0.84" stop-color="#D7CCC8"/>
<stop offset="1" stop-color="#E2D7D2"/>
</linearGradient>
<linearGradient id="paint12_linear_320_15038" x1="75.7766" y1="50.998" x2="76.7827" y2="72.3103" gradientUnits="userSpaceOnUse">
<stop stop-color="#80776D"/>
<stop offset="0.22" stop-color="#918789"/>
<stop offset="0.55" stop-color="#BBB0AE"/>
<stop offset="0.84" stop-color="#D7CCC8"/>
<stop offset="1" stop-color="#E2D7D2"/>
</linearGradient>
<radialGradient id="paint13_radial_320_15038" cx="0" cy="0" r="1" gradientUnits="userSpaceOnUse" gradientTransform="translate(47.7638 49.1378) rotate(-90.5971) scale(13.9754 13.9086)">
<stop offset="0.16" stop-color="#FF0303"/>
<stop offset="0.49" stop-color="#FD0303"/>
<stop offset="0.63" stop-color="#F50303"/>
<stop offset="0.74" stop-color="#E90503"/>
<stop offset="0.82" stop-color="#D80604"/>
<stop offset="0.89" stop-color="#C10905"/>
<stop offset="0.96" stop-color="#A50B06"/>
<stop offset="1" stop-color="#8F0E08"/>
</radialGradient>
<linearGradient id="paint14_linear_320_15038" x1="28.7334" y1="17.6436" x2="67.5688" y2="80.3862" gradientUnits="userSpaceOnUse">
<stop stop-color="#E2D7D2"/>
<stop offset="0.16" stop-color="#D7CCC8"/>
<stop offset="0.45" stop-color="#BBB0AE"/>
<stop offset="0.78" stop-color="#918789"/>
<stop offset="1" stop-color="#80776D"/>
</linearGradient>
<linearGradient id="paint15_linear_320_15038" x1="48.9226" y1="85.0965" x2="48.9226" y2="13.0897" gradientUnits="userSpaceOnUse">
<stop stop-color="#80776D"/>
<stop offset="0.22" stop-color="#918789"/>
<stop offset="0.55" stop-color="#BBB0AE"/>
<stop offset="0.84" stop-color="#D7CCC8"/>
<stop offset="1" stop-color="#E2D7D2"/>
</linearGradient>
</defs>
</svg>
