<svg width="164" height="44" viewBox="0 0 164 44" fill="none" xmlns="http://www.w3.org/2000/svg">
<g clip-path="url(#clip0_238_10955)">
<rect width="164" height="44" rx="8" fill="url(#paint0_linear_238_10955)"/>
<path d="M119.869 22.6052C119.869 1.43996 102.712 -15.7179 81.5464 -15.7179C60.3812 -15.7179 43.2234 1.43997 43.2234 22.6052C43.2234 43.7704 60.3812 60.9282 81.5464 60.9282C102.712 60.9282 119.869 43.7704 119.869 22.6052Z" stroke="#DFD4CF" stroke-opacity="0.05" stroke-width="0.5" stroke-linecap="round" stroke-linejoin="round"/>
<path d="M116.543 22.7936C116.543 3.46562 100.874 -12.2028 81.5462 -12.2028C62.2182 -12.2028 46.5498 3.46562 46.5498 22.7936C46.5498 42.1216 62.2182 57.79 81.5462 57.79C100.874 57.79 116.543 42.1216 116.543 22.7936Z" stroke="#DFD4CF" stroke-opacity="0.05" stroke-width="0.5" stroke-linecap="round" stroke-linejoin="round"/>
<path d="M46.7913 24.9531C48.2936 24.5775 51.6336 23.9873 54.8864 25.6707C55.376 25.9256 56.0132 26.3079 56.704 26.8847C59.8696 29.5473 59.5008 32.5587 62.0293 36.6297C62.425 37.2669 63.4578 38.8497 65.1681 40.4325C69.6483 44.5975 74.1888 44.5438 77.4282 48.5143C77.9514 49.1515 78.5416 50.0233 78.8568 51.2239C79.333 53.0548 78.8903 54.6779 78.5684 55.5498" stroke="#DFD4CF" stroke-opacity="0.05" stroke-width="0.5" stroke-linecap="round" stroke-linejoin="round"/>
<path d="M76.449 53.0078C76.5429 52.4847 76.5161 52.0823 76.4893 51.8609C75.9393 46.9448 66.315 46.9046 61.2043 39.7685C59.816 37.8302 58.9374 36.1065 58.9374 36.1065C57.3009 32.8872 57.4217 31.4586 55.9864 29.7618C55.2486 28.8966 53.9877 27.8101 51.7141 27.1193" stroke="#DFD4CF" stroke-opacity="0.05" stroke-width="0.5" stroke-linecap="round" stroke-linejoin="round"/>
<path d="M61.2915 43.8131C61.2915 42.7871 60.4598 41.9553 59.4337 41.9553C58.4077 41.9553 57.5759 42.7871 57.5759 43.8131C57.5759 44.8391 58.4077 45.6709 59.4337 45.6709C60.4598 45.6709 61.2915 44.8391 61.2915 43.8131Z" fill="#DFD4CF" fill-opacity="0.05"/>
<path d="M60.3394 38.4878C59.9303 37.8171 59.273 36.8581 58.2938 35.8722C57.0732 34.6381 56.3287 33.8936 55.2825 33.9406C54.3435 33.9808 53.3509 34.6515 52.9686 35.6844C52.593 36.6904 52.8546 37.8775 53.6326 38.5683C53.7734 38.6957 54.6051 39.4268 55.5641 39.1049C56.2147 38.8903 56.8183 38.233 56.7714 37.4282C56.7177 36.516 55.866 36.0599 55.819 36.0331" stroke="#DFD4CF" stroke-opacity="0.05" stroke-width="0.5" stroke-linecap="round" stroke-linejoin="round"/>
<path d="M53.5787 31.2574C53.5787 30.3721 52.861 29.6545 51.9757 29.6545C51.0905 29.6545 50.3728 30.3721 50.3728 31.2574C50.3728 32.1427 51.0905 32.8604 51.9757 32.8604C52.861 32.8604 53.5787 32.1427 53.5787 31.2574Z" fill="#DFD4CF" fill-opacity="0.05"/>
<path d="M101.265 22.6051C101.265 11.715 92.4366 2.88687 81.5466 2.88687C70.6565 2.88687 61.8284 11.715 61.8284 22.6051C61.8284 33.4951 70.6565 42.3232 81.5466 42.3232C92.4366 42.3232 101.265 33.4951 101.265 22.6051Z" stroke="#DFD4CF" stroke-opacity="0.05" stroke-width="0.5" stroke-linecap="round" stroke-linejoin="round"/>
<path d="M65.8655 17.5752L65.8655 27.6288C65.8655 30.5402 68.2257 32.9004 71.1371 32.9004L91.9619 32.9004C94.8733 32.9004 97.2335 30.5402 97.2335 27.6288L97.2335 17.5752C97.2335 14.6638 94.8733 12.3036 91.9619 12.3036L71.1371 12.3036C68.2257 12.3036 65.8655 14.6638 65.8655 17.5752Z" stroke="#DFD4CF" stroke-opacity="0.05" stroke-width="0.5" stroke-linecap="round" stroke-linejoin="round"/>
<path d="M76.5164 38.2861L86.5699 38.2861C89.4814 38.2861 91.8416 35.926 91.8416 33.0145L91.8416 12.1897C91.8416 9.2783 89.4814 6.91812 86.5699 6.91812L76.5164 6.91812C73.6049 6.91812 71.2447 9.2783 71.2447 12.1897L71.2447 33.0145C71.2447 35.926 73.6049 38.2861 76.5164 38.2861Z" stroke="#DFD4CF" stroke-opacity="0.05" stroke-width="0.5" stroke-linecap="round" stroke-linejoin="round"/>
<path d="M46.7915 20.2588C48.2938 20.6344 51.6339 21.2246 54.8867 19.5412C55.3763 19.2863 56.0134 18.904 56.7043 18.3272C59.8699 15.6646 59.501 12.6532 62.0295 8.58214C62.4252 7.94498 63.4581 6.36215 65.1683 4.77933C69.6485 0.61437 74.1891 0.668033 77.4285 -3.30243C77.9516 -3.93958 78.5418 -4.81148 78.857 -6.01201C79.3332 -7.84299 78.8906 -9.46604 78.5686 -10.3379" stroke="#DFD4CF" stroke-opacity="0.05" stroke-width="0.5" stroke-linecap="round" stroke-linejoin="round"/>
<path d="M76.449 -7.79623C76.5429 -7.27309 76.5161 -6.87066 76.4893 -6.64934C75.9393 -1.7332 66.315 -1.69296 61.2043 5.44314C59.816 7.38143 58.9374 9.10509 58.9374 9.10509C57.3009 12.3244 57.4217 13.7529 55.9864 15.4498C55.2486 16.315 53.9877 17.4015 51.7141 18.0923" stroke="#DFD4CF" stroke-opacity="0.05" stroke-width="0.5" stroke-linecap="round" stroke-linejoin="round"/>
<path d="M61.2915 1.39855C61.2915 0.372517 60.4598 -0.459263 59.4337 -0.459263C58.4077 -0.459263 57.5759 0.372517 57.5759 1.39855C57.5759 2.42459 58.4077 3.25635 59.4337 3.25635C60.4598 3.25635 61.2915 2.42459 61.2915 1.39855Z" fill="#DFD4CF" fill-opacity="0.05"/>
<path d="M60.3394 6.72407C59.9303 7.39475 59.273 8.35385 58.2938 9.33976C57.0732 10.5738 56.3287 11.3183 55.2825 11.2713C54.3435 11.2311 53.3509 10.5604 52.9686 9.52755C52.593 8.52152 52.8546 7.33439 53.6326 6.64359C53.7734 6.51616 54.6051 5.78512 55.5641 6.10705C56.2147 6.32166 56.8183 6.97894 56.7714 7.78376C56.7177 8.6959 55.866 9.15195 55.819 9.17878" stroke="#DFD4CF" stroke-opacity="0.05" stroke-width="0.5" stroke-linecap="round" stroke-linejoin="round"/>
<path d="M53.5787 13.9547C53.5787 13.0694 52.861 12.3517 51.9757 12.3517C51.0905 12.3517 50.3728 13.0694 50.3728 13.9547C50.3728 14.84 51.0905 15.5576 51.9757 15.5576C52.861 15.5576 53.5787 14.84 53.5787 13.9547Z" fill="#DFD4CF" fill-opacity="0.05"/>
<path d="M116.04 24.9526C114.538 24.577 111.198 23.9868 107.945 25.6702C107.456 25.9251 106.818 26.3074 106.128 26.8842C102.962 29.5468 103.331 32.5582 100.802 36.6292C100.407 37.2664 99.3738 38.8492 97.6636 40.432C93.1834 44.597 88.6428 44.5434 85.4034 48.5138C84.8803 49.151 84.2901 50.0228 83.9748 51.2234C83.4987 53.0544 83.9413 54.6774 84.2632 55.5493" stroke="#DFD4CF" stroke-opacity="0.05" stroke-width="0.5" stroke-linecap="round" stroke-linejoin="round"/>
<path d="M86.389 53.0073C86.2951 52.4842 86.322 52.0818 86.3488 51.8605C86.8987 46.9443 96.5231 46.9041 101.634 39.768C103.022 37.8297 103.901 36.106 103.901 36.106C105.537 32.8867 105.416 31.4582 106.852 29.7613C107.589 28.8961 108.85 27.8096 111.124 27.1188" stroke="#DFD4CF" stroke-opacity="0.05" stroke-width="0.5" stroke-linecap="round" stroke-linejoin="round"/>
<path d="M105.262 43.8116C105.262 42.7856 104.431 41.9538 103.405 41.9538C102.379 41.9538 101.547 42.7856 101.547 43.8116C101.547 44.8377 102.379 45.6694 103.405 45.6694C104.431 45.6694 105.262 44.8377 105.262 43.8116Z" fill="#DFD4CF" fill-opacity="0.05"/>
<path d="M102.499 38.4869C102.908 37.8162 103.566 36.8571 104.545 35.8712C105.766 34.6371 106.51 33.8927 107.556 33.9396C108.495 33.9798 109.488 34.6505 109.87 35.6834C110.246 36.6894 109.984 37.8765 109.206 38.5673C109.065 38.6948 108.234 39.4258 107.275 39.1039C106.624 38.8893 106.02 38.232 106.067 37.4272C106.121 36.515 106.973 36.059 107.02 36.0321" stroke="#DFD4CF" stroke-opacity="0.05" stroke-width="0.5" stroke-linecap="round" stroke-linejoin="round"/>
<path d="M112.466 31.2569C112.466 30.3717 111.748 29.654 110.863 29.654C109.977 29.654 109.26 30.3717 109.26 31.2569C109.26 32.1422 109.977 32.8599 110.863 32.8599C111.748 32.8599 112.466 32.1422 112.466 31.2569Z" fill="#DFD4CF" fill-opacity="0.05"/>
<path d="M116.04 20.2588C114.538 20.6344 111.198 21.2246 107.945 19.5412C107.456 19.2863 106.818 18.904 106.128 18.3272C102.962 15.6646 103.331 12.6532 100.802 8.58214C100.407 7.94498 99.3738 6.36215 97.6636 4.77933C93.1834 0.61437 88.6428 0.668034 85.4034 -3.30243C84.8803 -3.93958 84.2901 -4.81148 83.9748 -6.01201C83.4987 -7.84299 83.9413 -9.46604 84.2632 -10.3379" stroke="#DFD4CF" stroke-opacity="0.05" stroke-width="0.5" stroke-linecap="round" stroke-linejoin="round"/>
<path d="M86.389 -7.79622C86.2951 -7.27309 86.322 -6.87066 86.3488 -6.64934C86.8987 -1.7332 96.5231 -1.69296 101.634 5.44314C103.022 7.38143 103.901 9.10509 103.901 9.10509C105.537 12.3244 105.416 13.7529 106.852 15.4498C107.589 16.315 108.85 17.4015 111.124 18.0923" stroke="#DFD4CF" stroke-opacity="0.05" stroke-width="0.5" stroke-linecap="round" stroke-linejoin="round"/>
<path d="M105.262 1.39855C105.262 0.372517 104.431 -0.459263 103.405 -0.459263C102.379 -0.459263 101.547 0.372517 101.547 1.39855C101.547 2.42459 102.379 3.25635 103.405 3.25635C104.431 3.25635 105.262 2.42459 105.262 1.39855Z" fill="#DFD4CF" fill-opacity="0.05"/>
<path d="M102.499 6.72407C102.908 7.39475 103.566 8.35385 104.545 9.33976C105.766 10.5738 106.51 11.3183 107.556 11.2713C108.495 11.2311 109.488 10.5604 109.87 9.52755C110.246 8.52152 109.984 7.33439 109.206 6.64359C109.065 6.51616 108.234 5.78512 107.275 6.10705C106.624 6.32166 106.02 6.97894 106.067 7.78376C106.121 8.6959 106.973 9.15195 107.02 9.17878" stroke="#DFD4CF" stroke-opacity="0.05" stroke-width="0.5" stroke-linecap="round" stroke-linejoin="round"/>
<path d="M112.466 13.9547C112.466 13.0694 111.748 12.3517 110.863 12.3517C109.977 12.3517 109.26 13.0694 109.26 13.9547C109.26 14.84 109.977 15.5576 110.863 15.5576C111.748 15.5576 112.466 14.84 112.466 13.9547Z" fill="#DFD4CF" fill-opacity="0.05"/>
<path d="M72.1439 22.3708C71.8757 22.9878 71.1513 24.8859 71.7482 27.1863C71.8891 27.743 72.6738 30.4928 75.437 31.8342C78.3075 33.2292 81.0708 32.0019 81.5201 31.8007C84.6388 30.352 86.5235 26.5425 86.1076 22.297" stroke="#DFD4CF" stroke-opacity="0.05" stroke-width="0.5" stroke-linecap="round" stroke-linejoin="round"/>
<path d="M76.6911 22.5726C76.6106 23.2902 76.5502 24.3231 76.7045 25.5504C76.8051 26.3619 76.9191 27.2607 77.3752 28.2466C78.1599 29.9367 79.4811 30.8421 80.011 31.1976C80.5475 31.5531 82.7071 32.9481 85.571 32.5054C86.0404 32.4317 87.6367 32.1634 89.0049 31.0299C91.2114 29.1922 91.9693 25.7717 91.0371 22.3311" stroke="#DFD4CF" stroke-opacity="0.05" stroke-width="0.5" stroke-linecap="round" stroke-linejoin="round"/>
<path d="M72.144 22.3714C72.4526 23.1091 73.7738 26.0668 77.1541 27.6966C81.0709 29.5812 84.7194 28.213 85.323 27.9716C89.2868 26.4089 90.7891 22.9549 91.044 22.3378" stroke="#DFD4CF" stroke-opacity="0.05" stroke-width="0.5" stroke-linecap="round" stroke-linejoin="round"/>
<path d="M76.6914 22.5723C76.9798 23.0619 78.12 24.8593 80.3198 25.4093C80.6686 25.4965 81.5002 25.691 82.5063 25.4697C84.8671 24.9532 85.9469 22.6327 86.1011 22.2839" stroke="#DFD4CF" stroke-opacity="0.05" stroke-width="0.5" stroke-linecap="round" stroke-linejoin="round"/>
<path d="M72.1373 22.7475C71.8691 22.1305 71.1447 20.2325 71.7416 17.932C71.8825 17.3753 72.6672 14.6255 75.4304 13.2841C78.301 11.8891 81.0642 13.1165 81.5135 13.3177C84.6322 14.7664 86.5169 18.5758 86.101 22.8213" stroke="#DFD4CF" stroke-opacity="0.05" stroke-width="0.5" stroke-linecap="round" stroke-linejoin="round"/>
<path d="M76.6845 22.5388C76.604 21.8212 76.5436 20.7883 76.6979 19.561C76.7985 18.7495 76.9125 17.8507 77.3686 16.8648C78.1533 15.1747 79.4745 14.2693 80.0044 13.9138C80.5409 13.5583 82.7005 12.1633 85.5644 12.606C86.0338 12.6797 87.6301 12.948 88.9983 14.0815C91.2048 15.9191 91.9627 19.3396 91.0305 22.7803" stroke="#DFD4CF" stroke-opacity="0.05" stroke-width="0.5" stroke-linecap="round" stroke-linejoin="round"/>
<path d="M72.1375 22.7467C72.446 22.009 73.7672 19.0513 77.1475 17.4215C81.0643 15.5369 84.7128 16.9051 85.3164 17.1465C89.2802 18.7092 90.7825 22.1632 91.0374 22.7803" stroke="#DFD4CF" stroke-opacity="0.05" stroke-width="0.5" stroke-linecap="round" stroke-linejoin="round"/>
<path d="M76.6851 22.5392C76.9735 22.0496 78.1136 20.2522 80.3135 19.7022C80.6622 19.615 81.4939 19.4205 82.4999 19.6419C84.8607 20.1583 85.9405 22.4789 86.0948 22.8276" stroke="#DFD4CF" stroke-opacity="0.05" stroke-width="0.5" stroke-linecap="round" stroke-linejoin="round"/>
<path d="M43.7128 45.8109C41.8617 47.5882 36.5164 52.2092 28.5754 52.8195C18.1194 53.6244 8.65605 47.2931 4.43072 39.5131C4.41731 39.4863 4.4039 39.4662 4.39048 39.4394C2.87473 36.6225 2.15039 33.4501 2.15039 30.2576L2.15039 22.5917" stroke="#DFD4CF" stroke-opacity="0.05" stroke-width="0.5" stroke-linecap="round" stroke-linejoin="round"/>
<path d="M39.5075 22.6254C37.3412 23.9466 36.0266 25.6233 36.3486 26.9177C36.3955 27.1055 36.4827 27.3134 36.6303 27.5146" stroke="#DFD4CF" stroke-opacity="0.05" stroke-width="0.5" stroke-linecap="round" stroke-linejoin="round"/>
<path d="M39.2256 30.5189C39.2256 28.841 37.8653 27.4807 36.1874 27.4807C34.5094 27.4807 33.1492 28.841 33.1492 30.5189C33.1492 32.1969 34.5094 33.5571 36.1874 33.5571C37.8653 33.5571 39.2256 32.1969 39.2256 30.5189Z" stroke="#DFD4CF" stroke-opacity="0.05" stroke-width="0.5" stroke-linecap="round" stroke-linejoin="round"/>
<path d="M37.3881 30.5192C37.3881 29.8562 36.8506 29.3187 36.1876 29.3187C35.5246 29.3187 34.9871 29.8562 34.9871 30.5192C34.9871 31.1822 35.5246 31.7197 36.1876 31.7197C36.8506 31.7197 37.3881 31.1822 37.3881 30.5192Z" fill="#DFD4CF" fill-opacity="0.05"/>
<path d="M36.6435 33.5234C36.5094 33.6844 36.3417 33.9392 36.2344 34.2813C36.013 34.9989 36.2344 35.6227 36.3283 35.8306" stroke="#DFD4CF" stroke-opacity="0.05" stroke-width="0.5" stroke-linecap="round" stroke-linejoin="round"/>
<path d="M38.4141 35.2813C38.736 36.3812 39.3933 39.1712 38.4141 42.5045C37.3946 45.972 35.2015 48.0042 34.3296 48.7285" stroke="#DFD4CF" stroke-opacity="0.05" stroke-width="0.5" stroke-linecap="round" stroke-linejoin="round"/>
<path d="M41.6936 42.4105C41.6936 41.9512 41.3212 41.5789 40.8619 41.5789C40.4026 41.5789 40.0303 41.9512 40.0303 42.4105C40.0303 42.8699 40.4026 43.2422 40.8619 43.2422C41.3212 43.2422 41.6936 42.8699 41.6936 42.4105Z" fill="#DFD4CF" fill-opacity="0.05"/>
<path d="M19.789 51.8467C19.1585 51.5315 17.019 50.3645 16.1673 47.8762C15.9124 47.1317 15.235 45.2002 16.3081 43.6308C16.8581 42.8327 18.0251 41.887 19.3195 42.1418C20.8487 42.4437 21.9218 44.2947 21.5059 45.2807C21.298 45.777 20.634 46.2196 20.2048 46.0251C19.8426 45.8574 19.6481 45.2203 19.8695 44.5027C19.6615 44.5697 19.3866 44.7039 19.1854 44.9654C18.6689 45.6361 18.9372 46.7562 19.4737 47.3397C20.2853 48.225 21.9486 48.1378 22.8942 47.4671C24.4033 46.394 24.3094 43.6978 23.4308 41.9876C22.304 39.7877 19.7554 38.9762 17.8507 39.0097C14.6716 39.0634 12.8272 41.4779 12.5925 41.7998C10.7146 44.3484 11.345 47.1854 11.4389 47.5811" stroke="#DFD4CF" stroke-opacity="0.05" stroke-width="0.5" stroke-linecap="round" stroke-linejoin="round"/>
<path d="M1.34485 47.8159C0.808299 45.5691 0.265042 43.3223 -0.271507 41.0822C-0.754402 39.0769 -0.99585 37.0179 -0.99585 34.9522L-0.995851 22.7591" stroke="#DFD4CF" stroke-opacity="0.05" stroke-width="0.5" stroke-linecap="round" stroke-linejoin="round"/>
<path d="M3.51119 46.1997C3.10878 45.7369 1.13026 43.4029 0.110812 40.747C-0.445858 39.2983 -0.754375 37.6954 -0.754375 37.6954C-0.861685 37.1589 -0.922046 36.7028 -0.968995 36.3607" stroke="#DFD4CF" stroke-opacity="0.05" stroke-width="0.5" stroke-linecap="round" stroke-linejoin="round"/>
<path d="M34.0681 22.585C34.1888 22.7326 34.39 22.9405 34.6851 23.1081C35.1479 23.3697 35.5973 23.3965 35.8119 23.3965C35.6576 23.4837 35.3894 23.6648 35.1949 24.0001C34.8193 24.6373 35.0272 25.3147 35.0674 25.4287C35.3424 24.9458 35.7381 24.3489 36.3015 23.752C36.7643 23.2557 37.2203 22.8801 37.616 22.5984L34.0681 22.5984L34.0681 22.585Z" fill="#DFD4CF" fill-opacity="0.05"/>
<path d="M26.449 35.3276C27.5221 34.5765 29.2256 33.1747 30.567 30.8944C32.6193 27.4001 32.5723 23.9863 32.4717 22.6181" stroke="#DFD4CF" stroke-opacity="0.05" stroke-width="0.5" stroke-linecap="round" stroke-linejoin="round"/>
<path d="M23.7263 33.4766C24.6519 32.8394 26.6706 31.27 27.9583 28.4397C29.0985 25.938 29.1052 23.6845 29.0314 22.5712" stroke="#DFD4CF" stroke-opacity="0.05" stroke-width="0.5" stroke-linecap="round" stroke-linejoin="round"/>
<path d="M3.38428 22.5113C4.98051 23.9197 5.93959 25.2678 6.52309 26.2336C7.48888 27.8298 7.67667 28.8224 9.02475 30.3181C10.2186 31.646 11.1307 32.0484 11.4929 32.196C12.6398 32.6453 13.6927 32.6118 14.2829 32.538" stroke="#DFD4CF" stroke-opacity="0.05" stroke-width="0.5" stroke-linecap="round" stroke-linejoin="round"/>
<path d="M14.7386 22.5246C13.5448 23.1685 12.8808 24.4495 13.0753 25.7037C13.3167 27.2462 14.7319 27.9303 14.8526 27.984C14.7118 28.5541 14.4033 30.1771 15.1678 31.9478C15.2215 32.0752 16.4891 34.8719 19.5608 35.5426C19.9565 35.6298 22.9612 36.2871 24.5843 34.3555C25.2885 33.5172 25.4428 32.5447 25.4763 32.0215C25.0605 32.2496 23.4173 33.0812 21.3784 32.5782C21.0431 32.4977 18.7627 31.8941 17.7634 29.7278C17.4012 28.9498 17.3274 28.2255 17.3207 27.7627" stroke="#DFD4CF" stroke-opacity="0.05" stroke-width="0.5" stroke-linecap="round" stroke-linejoin="round"/>
<path d="M17.3279 27.756C18.0455 28.0243 19.796 28.5608 21.8751 28.0109C24.6317 27.2798 26.0334 25.1336 26.4358 24.4965C26.8785 23.799 27.1333 23.1551 27.2943 22.6923" stroke="#DFD4CF" stroke-opacity="0.05" stroke-width="0.5" stroke-linecap="round" stroke-linejoin="round"/>
<path d="M14.8525 27.9771C14.1281 27.749 12.9947 27.3399 11.6868 26.6491C10.54 26.0455 9.93634 25.5894 8.45412 24.6505C7.656 24.1474 6.46889 23.4164 4.96655 22.578" stroke="#DFD4CF" stroke-opacity="0.05" stroke-width="0.5" stroke-linecap="round" stroke-linejoin="round"/>
<path d="M25.054 22.6588C24.9266 22.907 24.5711 23.524 23.82 23.9264C23.2767 24.2215 22.767 24.2685 22.492 24.2752C22.5188 25.1001 22.1567 25.8312 21.5396 26.1732C20.9695 26.4884 20.3793 26.3543 20.1915 26.3141C19.1252 26.0726 18.5752 25.0733 18.3002 24.5837C18.099 24.2215 17.8106 23.5777 17.7502 22.6857" stroke="#DFD4CF" stroke-opacity="0.05" stroke-width="0.5" stroke-linecap="round" stroke-linejoin="round"/>
<path d="M22.4922 24.275C21.6471 23.6915 20.8021 23.1147 19.957 22.5312C19.4071 23.2153 18.8571 23.8994 18.3071 24.5835" stroke="#DFD4CF" stroke-opacity="0.05" stroke-width="0.5" stroke-linecap="round" stroke-linejoin="round"/>
<path d="M9.60811 37.3197C9.60811 36.79 9.17871 36.3606 8.64902 36.3606C8.11934 36.3606 7.68994 36.79 7.68994 37.3197C7.68994 37.8494 8.11934 38.2788 8.64902 38.2788C9.17871 38.2788 9.60811 37.8494 9.60811 37.3197Z" fill="#DFD4CF" fill-opacity="0.05"/>
<path d="M7.14629 34.3288C7.14629 33.5658 6.52772 32.9472 5.76467 32.9472C5.00163 32.9472 4.38306 33.5658 4.38306 34.3288C4.38306 35.0919 5.00163 35.7104 5.76467 35.7104C6.52772 35.7104 7.14629 35.0919 7.14629 34.3288Z" fill="#DFD4CF" fill-opacity="0.05"/>
<path d="M43.7128 -0.600521C41.8617 -2.37784 36.5164 -6.99888 28.5754 -7.6092C18.1194 -8.41403 8.65605 -2.08275 4.43072 5.69722C4.41731 5.72405 4.4039 5.74418 4.39048 5.77101C2.87473 8.58789 2.15039 11.7602 2.15039 14.9527L2.15039 22.6187" stroke="#DFD4CF" stroke-opacity="0.05" stroke-width="0.5" stroke-linecap="round" stroke-linejoin="round"/>
<path d="M39.5539 22.5845C37.3876 21.2632 36.073 19.5865 36.395 18.2921C36.4419 18.1043 36.5291 17.8964 36.6766 17.6952" stroke="#DFD4CF" stroke-opacity="0.05" stroke-width="0.5" stroke-linecap="round" stroke-linejoin="round"/>
<path d="M39.2793 14.6913C39.2793 13.0133 37.919 11.6531 36.2411 11.6531C34.5631 11.6531 33.2029 13.0133 33.2029 14.6913C33.2029 16.3692 34.5631 17.7295 36.2411 17.7295C37.919 17.7295 39.2793 16.3692 39.2793 14.6913Z" stroke="#DFD4CF" stroke-opacity="0.05" stroke-width="0.5" stroke-linecap="round" stroke-linejoin="round"/>
<path d="M37.4418 14.6911C37.4418 14.028 36.9043 13.4906 36.2413 13.4906C35.5783 13.4906 35.0408 14.028 35.0408 14.6911C35.0408 15.3541 35.5783 15.8916 36.2413 15.8916C36.9043 15.8916 37.4418 15.3541 37.4418 14.6911Z" fill="#DFD4CF" fill-opacity="0.05"/>
<path d="M36.6972 11.686C36.5631 11.5251 36.3954 11.2702 36.2881 10.9282C36.0668 10.2105 36.2881 9.58678 36.382 9.37887" stroke="#DFD4CF" stroke-opacity="0.05" stroke-width="0.5" stroke-linecap="round" stroke-linejoin="round"/>
<path d="M38.4612 9.92871C38.7831 8.82878 39.4404 6.03871 38.4612 2.7054C37.4417 -0.762049 35.2486 -2.79423 34.3767 -3.51857" stroke="#DFD4CF" stroke-opacity="0.05" stroke-width="0.5" stroke-linecap="round" stroke-linejoin="round"/>
<path d="M41.7473 2.7997C41.7473 2.34039 41.3749 1.96804 40.9156 1.96804C40.4563 1.96804 40.084 2.34039 40.084 2.7997C40.084 3.25901 40.4563 3.63135 40.9156 3.63135C41.3749 3.63135 41.7473 3.25901 41.7473 2.7997Z" fill="#DFD4CF" fill-opacity="0.05"/>
<path d="M19.8427 -6.63676C19.2122 -6.32153 17.0727 -5.15455 16.221 -2.6663C15.9661 -1.92184 15.2887 0.00975 16.3618 1.57916C16.9118 2.37727 18.0788 3.32294 19.3732 3.06808C20.9024 2.76627 21.9755 0.915182 21.5596 -0.070727C21.3517 -0.567035 20.6877 -1.0097 20.2585 -0.8152C19.8963 -0.647528 19.7018 -0.0103627 19.9232 0.707272C19.7153 0.640203 19.4403 0.506064 19.2391 0.244497C18.7226 -0.42619 18.9909 -1.54624 19.5275 -2.12974C20.339 -3.01505 22.0023 -2.92786 22.948 -2.25717C24.457 -1.18407 24.3631 1.5188 23.4845 3.22235C22.3578 5.4222 19.8091 6.23371 17.9044 6.20018C14.7253 6.14652 12.881 3.73207 12.6462 3.41014C10.7683 0.86153 11.3987 -1.97549 11.4926 -2.3712" stroke="#DFD4CF" stroke-opacity="0.05" stroke-width="0.5" stroke-linecap="round" stroke-linejoin="round"/>
<path d="M1.34509 -2.60622C0.808542 -0.359421 0.265286 1.88736 -0.271263 4.12746C-0.754158 6.13281 -0.995606 8.19183 -0.995606 10.2575L-0.995605 23.564" stroke="#DFD4CF" stroke-opacity="0.05" stroke-width="0.5" stroke-linecap="round" stroke-linejoin="round"/>
<path d="M3.51119 -0.99035C3.10878 -0.527576 1.13026 1.80642 0.110812 4.46234C-0.445858 5.91102 -0.754375 7.51397 -0.754375 7.51397C-0.861685 8.05052 -0.922046 8.50658 -0.968994 8.84863" stroke="#DFD4CF" stroke-opacity="0.05" stroke-width="0.5" stroke-linecap="round" stroke-linejoin="round"/>
<path d="M34.0681 22.5845C34.1888 22.4369 34.39 22.229 34.6851 22.0613C35.1479 21.7998 35.5973 21.7729 35.8119 21.7729C35.6576 21.6857 35.3894 21.5047 35.1949 21.1693C34.8193 20.5322 35.0272 19.8548 35.0674 19.7407C35.3424 20.2236 35.7381 20.8206 36.3015 21.4175C36.7643 21.9138 37.2203 22.2894 37.616 22.571L34.0681 22.571L34.0681 22.5845Z" fill="#DFD4CF" fill-opacity="0.05"/>
<path d="M26.5027 9.87499C27.5758 10.6195 29.2793 12.0145 30.6207 14.3082C32.673 17.8226 32.5858 21.2565 32.4718 22.6113" stroke="#DFD4CF" stroke-opacity="0.05" stroke-width="0.5" stroke-linecap="round" stroke-linejoin="round"/>
<path d="M23.78 11.7335C24.6922 12.3572 26.7311 13.9266 28.0121 16.7703C29.1187 19.2452 29.112 21.4719 29.0315 22.5718" stroke="#DFD4CF" stroke-opacity="0.05" stroke-width="0.5" stroke-linecap="round" stroke-linejoin="round"/>
<path d="M3.38428 22.5112C5.01405 21.2034 5.98654 19.9157 6.57674 18.97C7.56936 17.3805 7.71021 16.408 9.07841 14.8855C10.2856 13.5442 11.2179 13.1417 11.5465 13.0076C12.6934 12.5583 13.7464 12.5918 14.3366 12.6656" stroke="#DFD4CF" stroke-opacity="0.05" stroke-width="0.5" stroke-linecap="round" stroke-linejoin="round"/>
<path d="M14.7385 22.5244C13.6051 21.9275 12.9612 20.7135 13.1289 19.513C13.3435 17.9369 14.8257 17.2662 14.9062 17.2327C14.7654 16.6626 14.4568 15.0395 15.2214 13.2689C15.2751 13.1415 16.5427 10.3447 19.6144 9.67405C20.0101 9.58687 23.0148 8.92959 24.6379 10.8612C25.3421 11.6995 25.4963 12.672 25.5299 13.1952C25.1141 12.9671 23.4709 12.1355 21.432 12.6385C21.0966 12.719 18.8163 13.3226 17.817 15.4889C17.4548 16.2669 17.381 16.9912 17.3743 17.454" stroke="#DFD4CF" stroke-opacity="0.05" stroke-width="0.5" stroke-linecap="round" stroke-linejoin="round"/>
<path d="M17.3816 17.4544C18.0992 17.1861 19.8497 16.6496 21.9288 17.1995C24.6854 17.9306 26.0871 20.0768 26.4895 20.7139C26.9322 21.4114 27.187 22.0553 27.348 22.5181" stroke="#DFD4CF" stroke-opacity="0.05" stroke-width="0.5" stroke-linecap="round" stroke-linejoin="round"/>
<path d="M14.9061 17.2328C14.1818 17.4608 13.0483 17.8699 11.7405 18.5607C10.54 19.1912 9.94975 19.6606 8.50778 20.5594C7.70966 21.0624 6.50913 21.78 4.96655 22.5781" stroke="#DFD4CF" stroke-opacity="0.05" stroke-width="0.5" stroke-linecap="round" stroke-linejoin="round"/>
<path d="M25.1077 22.5514C24.9802 22.3032 24.6248 21.6862 23.8736 21.2838C23.3304 20.9887 22.8206 20.9418 22.5457 20.935C22.5725 20.1101 22.2103 19.3791 21.5933 19.037C21.0232 18.7218 20.433 18.8559 20.2452 18.8962C19.1989 19.1309 18.6557 20.1034 18.3539 20.6265C18.146 21.0021 17.8173 21.6996 17.7502 22.6855" stroke="#DFD4CF" stroke-opacity="0.05" stroke-width="0.5" stroke-linecap="round" stroke-linejoin="round"/>
<path d="M22.5386 20.9354C21.6935 21.5189 20.8485 22.0957 20.0034 22.6792C19.4534 21.9951 18.9035 21.311 18.3535 20.6269" stroke="#DFD4CF" stroke-opacity="0.05" stroke-width="0.5" stroke-linecap="round" stroke-linejoin="round"/>
<path d="M9.66182 7.89004C9.66182 7.36036 9.23242 6.93097 8.70273 6.93097C8.17305 6.93097 7.74365 7.36036 7.74365 7.89004C7.74365 8.41973 8.17305 8.84912 8.70273 8.84912C9.23242 8.84912 9.66182 8.41973 9.66182 7.89004Z" fill="#DFD4CF" fill-opacity="0.05"/>
<path d="M7.19341 10.8816C7.19341 10.1185 6.57484 9.49996 5.81179 9.49996C5.04875 9.49996 4.43018 10.1185 4.43018 10.8816C4.43018 11.6446 5.04875 12.2632 5.81179 12.2632C6.57484 12.2632 7.19341 11.6446 7.19341 10.8816Z" fill="#DFD4CF" fill-opacity="0.05"/>
<path d="M119.292 -0.600519C121.143 -2.37784 126.488 -6.99888 134.429 -7.6092C144.885 -8.41403 154.349 -2.08275 158.574 5.69722C158.588 5.72404 158.601 5.74418 158.614 5.771C160.13 8.58789 160.854 11.7602 160.854 14.9527L160.854 22.6187" stroke="#DFD4CF" stroke-opacity="0.05" stroke-width="0.5" stroke-linecap="round" stroke-linejoin="round"/>
<path d="M123.497 22.5845C125.664 21.2632 126.978 19.5865 126.656 18.2921C126.609 18.1043 126.522 17.8964 126.375 17.6952" stroke="#DFD4CF" stroke-opacity="0.05" stroke-width="0.5" stroke-linecap="round" stroke-linejoin="round"/>
<path d="M129.855 14.6913C129.855 13.0133 128.495 11.6531 126.817 11.6531C125.139 11.6531 123.779 13.0133 123.779 14.6913C123.779 16.3692 125.139 17.7295 126.817 17.7295C128.495 17.7295 129.855 16.3692 129.855 14.6913Z" stroke="#DFD4CF" stroke-opacity="0.05" stroke-width="0.5" stroke-linecap="round" stroke-linejoin="round"/>
<path d="M128.018 14.6911C128.018 14.028 127.481 13.4906 126.817 13.4906C126.154 13.4906 125.617 14.028 125.617 14.6911C125.617 15.3541 126.154 15.8916 126.817 15.8916C127.481 15.8916 128.018 15.3541 128.018 14.6911Z" fill="#DFD4CF" fill-opacity="0.05"/>
<path d="M126.354 11.686C126.489 11.5251 126.656 11.2702 126.764 10.9282C126.985 10.2105 126.764 9.58678 126.67 9.37887" stroke="#DFD4CF" stroke-opacity="0.05" stroke-width="0.5" stroke-linecap="round" stroke-linejoin="round"/>
<path d="M124.59 9.92871C124.268 8.82878 123.611 6.03871 124.59 2.7054C125.61 -0.762049 127.803 -2.79423 128.675 -3.51857" stroke="#DFD4CF" stroke-opacity="0.05" stroke-width="0.5" stroke-linecap="round" stroke-linejoin="round"/>
<path d="M122.967 2.7997C122.967 2.34039 122.595 1.96804 122.136 1.96804C121.676 1.96804 121.304 2.34039 121.304 2.7997C121.304 3.25901 121.676 3.63135 122.136 3.63135C122.595 3.63135 122.967 3.25901 122.967 2.7997Z" fill="#DFD4CF" fill-opacity="0.05"/>
<path d="M143.216 -6.63676C143.846 -6.32153 145.986 -5.15455 146.837 -2.6663C147.092 -1.92184 147.77 0.00974978 146.697 1.57916C146.147 2.37727 144.98 3.32294 143.685 3.06808C142.156 2.76627 141.083 0.915183 141.499 -0.0707267C141.707 -0.567035 142.371 -1.0097 142.8 -0.8152C143.162 -0.647528 143.357 -0.0103625 143.135 0.707272C143.343 0.640204 143.618 0.506065 143.819 0.244497C144.336 -0.42619 144.067 -1.54624 143.531 -2.12974C142.719 -3.01505 141.056 -2.92786 140.11 -2.25717C138.601 -1.18407 138.695 1.5121 139.574 3.22235C140.701 5.4222 143.249 6.23371 145.154 6.20018C148.333 6.14652 150.177 3.73207 150.412 3.41014C152.29 0.861529 151.66 -1.97549 151.566 -2.3712" stroke="#DFD4CF" stroke-opacity="0.05" stroke-width="0.5" stroke-linecap="round" stroke-linejoin="round"/>
<path d="M161.659 -2.60567C162.196 -0.358872 162.739 1.88791 163.276 4.12801C163.759 6.13336 164 8.19238 164 10.2581L164 22.4512" stroke="#DFD4CF" stroke-opacity="0.05" stroke-width="0.5" stroke-linecap="round" stroke-linejoin="round"/>
<path d="M159.487 -0.989861C159.889 -0.527087 161.868 1.80691 162.887 4.46282C163.444 5.91151 163.752 7.51446 163.752 7.51446C163.86 8.05101 163.92 8.50707 163.967 8.84912" stroke="#DFD4CF" stroke-opacity="0.05" stroke-width="0.5" stroke-linecap="round" stroke-linejoin="round"/>
<path d="M128.93 22.6255C128.809 22.4779 128.608 22.27 128.313 22.1024C127.85 21.8408 127.401 21.8139 127.186 21.8139C127.34 21.7268 127.609 21.5457 127.803 21.2103C128.179 20.5732 127.971 19.8958 127.93 19.7818C127.655 20.2647 127.26 20.8616 126.696 21.4585C126.234 21.9548 125.778 22.3304 125.382 22.6121L128.93 22.6121L128.93 22.6255Z" fill="#DFD4CF" fill-opacity="0.05"/>
<path d="M136.549 9.8823C135.476 10.6335 133.772 12.0352 132.431 14.3155C130.379 17.8098 130.425 21.2236 130.526 22.5918" stroke="#DFD4CF" stroke-opacity="0.05" stroke-width="0.5" stroke-linecap="round" stroke-linejoin="round"/>
<path d="M139.278 11.7328C138.353 12.37 136.334 13.9394 135.046 16.7697C133.906 19.2713 133.899 21.5248 133.973 22.6382" stroke="#DFD4CF" stroke-opacity="0.05" stroke-width="0.5" stroke-linecap="round" stroke-linejoin="round"/>
<path d="M159.62 22.6987C158.024 21.2903 157.065 19.9422 156.481 18.9764C155.515 17.3802 155.328 16.3876 153.98 14.8919C152.786 13.564 151.874 13.1616 151.511 13.014C150.365 12.5647 149.312 12.5982 148.721 12.672" stroke="#DFD4CF" stroke-opacity="0.05" stroke-width="0.5" stroke-linecap="round" stroke-linejoin="round"/>
<path d="M148.259 22.6855C149.453 22.0417 150.117 20.7607 149.922 19.5065C149.681 17.9639 148.266 17.2798 148.145 17.2261C148.286 16.6561 148.595 15.033 147.83 13.2624C147.776 13.135 146.509 10.3382 143.437 9.66751C143.041 9.58033 140.037 8.92305 138.413 10.8546C137.709 11.693 137.555 12.6655 137.521 13.1886C137.937 12.9606 139.58 12.1289 141.619 12.632C141.955 12.7124 144.235 13.3161 145.234 15.4824C145.597 16.2604 145.67 16.9847 145.677 17.4475" stroke="#DFD4CF" stroke-opacity="0.05" stroke-width="0.5" stroke-linecap="round" stroke-linejoin="round"/>
<path d="M145.671 17.4544C144.953 17.1861 143.202 16.6496 141.123 17.1995C138.367 17.9306 136.965 20.0768 136.563 20.7139C136.12 21.4114 135.865 22.0553 135.704 22.5181" stroke="#DFD4CF" stroke-opacity="0.05" stroke-width="0.5" stroke-linecap="round" stroke-linejoin="round"/>
<path d="M148.145 17.2328C148.87 17.4608 150.003 17.87 151.311 18.5608C152.458 19.1644 153.061 19.6205 154.544 20.5594C155.342 21.0624 156.529 21.7935 158.031 22.6318" stroke="#DFD4CF" stroke-opacity="0.05" stroke-width="0.5" stroke-linecap="round" stroke-linejoin="round"/>
<path d="M137.944 22.5513C138.072 22.3031 138.427 21.6861 139.178 21.2837C139.721 20.9886 140.231 20.9416 140.506 20.9349C140.479 20.11 140.841 19.3789 141.458 19.0369C142.029 18.7217 142.619 18.8558 142.807 18.896C143.873 19.1375 144.423 20.1368 144.698 20.6264C144.899 20.9886 145.188 21.6324 145.248 22.5245" stroke="#DFD4CF" stroke-opacity="0.05" stroke-width="0.5" stroke-linecap="round" stroke-linejoin="round"/>
<path d="M140.513 20.9354C141.358 21.5189 142.203 22.0957 143.048 22.6792C143.598 21.9951 144.148 21.311 144.698 20.6269" stroke="#DFD4CF" stroke-opacity="0.05" stroke-width="0.5" stroke-linecap="round" stroke-linejoin="round"/>
<path d="M155.308 7.89004C155.308 7.36036 154.879 6.93097 154.349 6.93097C153.82 6.93097 153.39 7.36036 153.39 7.89004C153.39 8.41973 153.82 8.84912 154.349 8.84912C154.879 8.84912 155.308 8.41973 155.308 7.89004Z" fill="#DFD4CF" fill-opacity="0.05"/>
<path d="M158.621 10.8816C158.621 10.1185 158.003 9.49996 157.24 9.49996C156.477 9.49996 155.858 10.1185 155.858 10.8816C155.858 11.6446 156.477 12.2632 157.24 12.2632C158.003 12.2632 158.621 11.6446 158.621 10.8816Z" fill="#DFD4CF" fill-opacity="0.05"/>
<path d="M119.292 45.8109C121.143 47.5882 126.488 52.2092 134.429 52.8195C144.885 53.6244 154.349 47.2931 158.574 39.5131C158.588 39.4863 158.601 39.4662 158.614 39.4393C160.13 36.6225 160.854 33.4501 160.854 30.2576L160.854 22.5917" stroke="#DFD4CF" stroke-opacity="0.05" stroke-width="0.5" stroke-linecap="round" stroke-linejoin="round"/>
<path d="M123.444 22.6254C125.61 23.9466 126.924 25.6233 126.603 26.9177C126.556 27.1055 126.468 27.3134 126.321 27.5146" stroke="#DFD4CF" stroke-opacity="0.05" stroke-width="0.5" stroke-linecap="round" stroke-linejoin="round"/>
<path d="M129.802 30.5189C129.802 28.841 128.442 27.4807 126.764 27.4807C125.086 27.4807 123.725 28.841 123.725 30.5189C123.725 32.1969 125.086 33.5571 126.764 33.5571C128.442 33.5571 129.802 32.1969 129.802 30.5189Z" stroke="#DFD4CF" stroke-opacity="0.05" stroke-width="0.5" stroke-linecap="round" stroke-linejoin="round"/>
<path d="M127.964 30.5192C127.964 29.8562 127.427 29.3187 126.764 29.3187C126.101 29.3187 125.563 29.8562 125.563 30.5192C125.563 31.1822 126.101 31.7197 126.764 31.7197C127.427 31.7197 127.964 31.1822 127.964 30.5192Z" fill="#DFD4CF" fill-opacity="0.05"/>
<path d="M126.301 33.5234C126.435 33.6844 126.603 33.9392 126.71 34.2813C126.931 34.9989 126.71 35.6227 126.616 35.8306" stroke="#DFD4CF" stroke-opacity="0.05" stroke-width="0.5" stroke-linecap="round" stroke-linejoin="round"/>
<path d="M124.537 35.2813C124.215 36.3812 123.557 39.1712 124.537 42.5045C125.556 45.972 127.749 48.0042 128.621 48.7285" stroke="#DFD4CF" stroke-opacity="0.05" stroke-width="0.5" stroke-linecap="round" stroke-linejoin="round"/>
<path d="M122.914 42.4105C122.914 41.9512 122.541 41.5789 122.082 41.5789C121.623 41.5789 121.25 41.9512 121.25 42.4105C121.25 42.8699 121.623 43.2422 122.082 43.2422C122.541 43.2422 122.914 42.8699 122.914 42.4105Z" fill="#DFD4CF" fill-opacity="0.05"/>
<path d="M143.162 51.8467C143.792 51.5315 145.932 50.3645 146.784 47.8762C147.039 47.1317 147.716 45.2002 146.643 43.6308C146.093 42.8327 144.926 41.887 143.631 42.1418C142.102 42.4437 141.029 44.2947 141.445 45.2807C141.653 45.777 142.317 46.2196 142.746 46.0251C143.108 45.8574 143.303 45.2203 143.081 44.5027C143.289 44.5697 143.564 44.7039 143.766 44.9654C144.282 45.6361 144.014 46.7562 143.477 47.3397C142.666 48.225 141.002 48.1378 140.057 47.4671C138.548 46.394 138.642 43.6911 139.52 41.9876C140.647 39.7877 143.195 38.9762 145.1 39.0097C148.279 39.0634 150.124 41.4779 150.358 41.7998C152.236 44.3484 151.606 47.1854 151.512 47.5811" stroke="#DFD4CF" stroke-opacity="0.05" stroke-width="0.5" stroke-linecap="round" stroke-linejoin="round"/>
<path d="M161.659 47.8159C162.196 45.5691 162.739 43.3223 163.276 41.0822C163.759 39.0769 164 37.0179 164 34.9522L164 21.6457" stroke="#DFD4CF" stroke-opacity="0.05" stroke-width="0.5" stroke-linecap="round" stroke-linejoin="round"/>
<path d="M159.486 46.1997C159.888 45.7369 161.867 43.4029 162.886 40.747C163.443 39.2983 163.752 37.6954 163.752 37.6954C163.859 37.1589 163.919 36.7028 163.966 36.3607" stroke="#DFD4CF" stroke-opacity="0.05" stroke-width="0.5" stroke-linecap="round" stroke-linejoin="round"/>
<path d="M128.93 22.6255C128.809 22.7731 128.608 22.981 128.313 23.1487C127.85 23.4102 127.401 23.4371 127.186 23.4371C127.34 23.5242 127.609 23.7053 127.803 24.0407C128.179 24.6778 127.971 25.3552 127.93 25.4692C127.655 24.9863 127.26 24.3894 126.696 23.7925C126.234 23.2962 125.778 22.9206 125.382 22.6389L128.93 22.6389L128.93 22.6255Z" fill="#DFD4CF" fill-opacity="0.05"/>
<path d="M136.495 35.3276C135.422 34.5832 133.719 33.1881 132.377 30.8944C130.325 27.38 130.412 23.9461 130.526 22.5913" stroke="#DFD4CF" stroke-opacity="0.05" stroke-width="0.5" stroke-linecap="round" stroke-linejoin="round"/>
<path d="M139.225 33.4766C138.313 32.8528 136.274 31.2834 134.993 28.4397C133.886 25.9649 133.893 23.7382 133.973 22.6383" stroke="#DFD4CF" stroke-opacity="0.05" stroke-width="0.5" stroke-linecap="round" stroke-linejoin="round"/>
<path d="M159.621 22.6992C157.991 24.007 157.019 25.2948 156.428 26.2404C155.436 27.83 155.295 28.8024 153.927 30.3249C152.719 31.6663 151.787 32.0687 151.459 32.2028C150.312 32.6522 149.259 32.6187 148.668 32.5449" stroke="#DFD4CF" stroke-opacity="0.05" stroke-width="0.5" stroke-linecap="round" stroke-linejoin="round"/>
<path d="M148.259 22.6854C149.393 23.2824 150.036 24.4963 149.869 25.6968C149.654 27.2729 148.172 27.9436 148.091 27.9771C148.232 28.5472 148.541 30.1703 147.776 31.9409C147.723 32.0683 146.455 34.8651 143.383 35.5358C142.988 35.623 139.983 36.2802 138.36 34.3487C137.656 33.5103 137.501 32.5378 137.468 32.0147C137.884 32.2427 139.527 33.0744 141.566 32.5714C141.901 32.4909 144.181 31.8873 145.181 29.7209C145.543 28.9429 145.617 28.2186 145.623 27.7558" stroke="#DFD4CF" stroke-opacity="0.05" stroke-width="0.5" stroke-linecap="round" stroke-linejoin="round"/>
<path d="M145.623 27.756C144.906 28.0243 143.155 28.5608 141.076 28.0109C138.32 27.2798 136.918 25.1336 136.515 24.4965C136.073 23.799 135.818 23.1551 135.657 22.6923" stroke="#DFD4CF" stroke-opacity="0.05" stroke-width="0.5" stroke-linecap="round" stroke-linejoin="round"/>
<path d="M148.092 27.9771C148.816 27.749 149.949 27.3399 151.257 26.6491C152.458 26.0187 153.048 25.5492 154.49 24.6505C155.288 24.1474 156.489 23.4298 158.031 22.6317" stroke="#DFD4CF" stroke-opacity="0.05" stroke-width="0.5" stroke-linecap="round" stroke-linejoin="round"/>
<path d="M137.89 22.6588C138.018 22.907 138.373 23.524 139.124 23.9264C139.668 24.2215 140.177 24.2685 140.452 24.2752C140.426 25.1001 140.788 25.8312 141.405 26.1732C141.975 26.4884 142.565 26.3543 142.753 26.3141C143.799 26.0793 144.342 25.1068 144.644 24.5837C144.852 24.2081 145.181 23.5106 145.248 22.5247" stroke="#DFD4CF" stroke-opacity="0.05" stroke-width="0.5" stroke-linecap="round" stroke-linejoin="round"/>
<path d="M140.459 24.275C141.304 23.6915 142.149 23.1147 142.994 22.5312C143.544 23.2153 144.094 23.8994 144.644 24.5835" stroke="#DFD4CF" stroke-opacity="0.05" stroke-width="0.5" stroke-linecap="round" stroke-linejoin="round"/>
<path d="M155.255 37.3197C155.255 36.79 154.825 36.3606 154.296 36.3606C153.766 36.3606 153.336 36.79 153.336 37.3197C153.336 37.8494 153.766 38.2788 154.296 38.2788C154.825 38.2788 155.255 37.8494 155.255 37.3197Z" fill="#DFD4CF" fill-opacity="0.05"/>
<path d="M158.568 34.3288C158.568 33.5658 157.949 32.9472 157.186 32.9472C156.423 32.9472 155.804 33.5658 155.804 34.3288C155.804 35.0919 156.423 35.7104 157.186 35.7104C157.949 35.7104 158.568 35.0919 158.568 34.3288Z" fill="#DFD4CF" fill-opacity="0.05"/>
<path d="M53.718 14.28C54.358 14.28 55.0046 14.34 55.658 14.46C56.3113 14.58 56.8313 14.7533 57.218 14.98C57.338 15.0333 57.4113 15.0933 57.438 15.16C57.478 15.2133 57.5046 15.3133 57.518 15.46L57.738 17.7C57.738 17.74 57.7046 17.7667 57.638 17.78C57.5713 17.78 57.5313 17.76 57.518 17.72C57.2246 16.6933 56.678 15.94 55.878 15.46C55.0913 14.9667 54.1113 14.72 52.938 14.72C51.9246 14.72 51.038 14.9467 50.278 15.4C49.518 15.84 48.9313 16.4667 48.518 17.28C48.1046 18.0933 47.898 19.0333 47.898 20.1C47.898 21.34 48.1513 22.4867 48.658 23.54C49.178 24.5933 49.8713 25.4267 50.738 26.04C51.618 26.6533 52.5646 26.96 53.578 26.96C54.538 26.96 55.3713 26.7 56.078 26.18C56.7846 25.6467 57.3246 24.8333 57.698 23.74C57.698 23.7 57.7246 23.68 57.778 23.68C57.818 23.68 57.8513 23.6867 57.878 23.7C57.918 23.7133 57.938 23.7333 57.938 23.76L57.658 26.02C57.6313 26.18 57.598 26.2867 57.558 26.34C57.5313 26.38 57.458 26.4267 57.338 26.48C56.138 26.9867 54.8713 27.24 53.538 27.24C51.938 27.24 50.598 26.92 49.518 26.28C48.4513 25.6267 47.6646 24.8 47.158 23.8C46.6513 22.8 46.398 21.7467 46.398 20.64C46.398 19.4133 46.738 18.3133 47.418 17.34C48.098 16.3667 48.998 15.6133 50.118 15.08C51.238 14.5467 52.438 14.28 53.718 14.28ZM63.4169 27.26C62.6435 27.26 61.9569 27.0733 61.3569 26.7C60.7702 26.3133 60.3169 25.8 59.9969 25.16C59.6769 24.5067 59.5169 23.8 59.5169 23.04C59.5169 22.1733 59.7235 21.44 60.1369 20.84C60.5635 20.2267 61.1035 19.7733 61.7569 19.48C62.4235 19.1733 63.0969 19.02 63.7769 19.02C64.5635 19.02 65.2502 19.2133 65.8369 19.6C66.4235 19.9867 66.8702 20.5 67.1769 21.14C67.4969 21.7667 67.6569 22.4333 67.6569 23.14C67.6569 23.9667 67.4635 24.6933 67.0769 25.32C66.6902 25.9333 66.1702 26.4133 65.5169 26.76C64.8769 27.0933 64.1769 27.26 63.4169 27.26ZM63.9969 26.88C64.7302 26.88 65.2969 26.62 65.6969 26.1C66.0969 25.58 66.2969 24.78 66.2969 23.7C66.2969 22.8733 66.1569 22.1333 65.8769 21.48C65.6102 20.8267 65.2369 20.32 64.7569 19.96C64.2769 19.5867 63.7302 19.4 63.1169 19.4C62.3969 19.4 61.8369 19.66 61.4369 20.18C61.0502 20.7 60.8569 21.4467 60.8569 22.42C60.8569 23.2333 60.9902 23.98 61.2569 24.66C61.5235 25.34 61.8969 25.88 62.3769 26.28C62.8569 26.68 63.3969 26.88 63.9969 26.88ZM72.9072 25.08C73.5605 25.1067 74.1205 25.2867 74.5872 25.62C75.0672 25.9533 75.4272 26.38 75.6672 26.9C75.9072 27.42 76.0272 27.9733 76.0272 28.56C76.0272 29.3333 75.8472 30.0267 75.4872 30.64C75.1272 31.2533 74.6205 31.7333 73.9672 32.08C73.3272 32.44 72.5939 32.62 71.7672 32.62C70.8872 32.62 70.1605 32.4667 69.5872 32.16C69.0272 31.8667 68.7472 31.5 68.7472 31.06C68.7472 30.8333 68.8072 30.6667 68.9272 30.56C69.0472 30.4667 69.1939 30.42 69.3672 30.42C69.5539 30.42 69.7139 30.4733 69.8472 30.58C69.9939 30.7 70.1605 30.88 70.3472 31.12C70.6139 31.4933 70.8872 31.78 71.1672 31.98C71.4605 32.18 71.8605 32.28 72.3672 32.28C73.1272 32.28 73.6805 31.9467 74.0272 31.28C74.3872 30.6267 74.5672 29.8067 74.5672 28.82C74.5672 26.4867 73.2939 25.32 70.7472 25.32C70.6939 25.32 70.6605 25.28 70.6472 25.2C70.6339 25.12 70.6672 25.08 70.7472 25.08C71.9072 25.08 72.7272 24.8267 73.2072 24.32C73.6872 23.8 73.9272 23.0667 73.9272 22.12C73.9272 20.32 73.2205 19.42 71.8072 19.42C71.1805 19.42 70.6339 19.6267 70.1672 20.04C69.7005 20.4533 69.3339 21.08 69.0672 21.92C69.0672 21.9333 69.0405 21.94 68.9872 21.94C68.8805 21.94 68.8339 21.9133 68.8472 21.86L69.5672 18.86C69.5672 18.8333 69.5939 18.82 69.6472 18.82C69.6872 18.82 69.7272 18.8333 69.7672 18.86C69.8072 18.8733 69.8205 18.8867 69.8072 18.9C69.7805 19.0067 69.7672 19.08 69.7672 19.12C69.7672 19.2533 69.8005 19.3533 69.8672 19.42C69.9472 19.4733 70.0272 19.5 70.1072 19.5C70.2005 19.5 70.3139 19.48 70.4472 19.44C70.5939 19.3867 70.7005 19.3533 70.7672 19.34C71.3805 19.1267 71.9405 19.02 72.4472 19.02C73.3405 19.02 74.0339 19.28 74.5272 19.8C75.0205 20.3067 75.2672 20.94 75.2672 21.7C75.2672 22.42 75.0539 23.0933 74.6272 23.72C74.2005 24.3467 73.6272 24.8 72.9072 25.08ZM84.1136 19.1C84.1269 19.0733 84.1603 19.0733 84.2136 19.1C84.2669 19.1133 84.2936 19.1333 84.2936 19.16V28.4C84.2936 29.68 83.9403 30.7 83.2336 31.46C82.5403 32.2333 81.5669 32.62 80.3136 32.62C79.5136 32.62 78.8603 32.4733 78.3536 32.18C77.8469 31.9 77.5936 31.5467 77.5936 31.12C77.5936 30.8933 77.6536 30.7267 77.7736 30.62C77.8936 30.5133 78.0336 30.46 78.1936 30.46C78.3803 30.46 78.5336 30.5067 78.6536 30.6C78.7736 30.7067 78.9203 30.8733 79.0936 31.1C79.3469 31.4467 79.6069 31.7133 79.8736 31.9C80.1403 32.1 80.5403 32.2 81.0736 32.2C81.7136 32.2 82.2269 31.9667 82.6136 31.5C83.0003 31.0333 83.1936 30.16 83.1936 28.88V25.52C82.7003 26.0267 82.2003 26.4333 81.6936 26.74C81.1869 27.0467 80.6336 27.2 80.0336 27.2C79.2203 27.2 78.5336 26.9 77.9736 26.3C77.4269 25.7 77.1536 24.86 77.1536 23.78C77.1536 22.82 77.3803 21.98 77.8336 21.26C78.2869 20.54 78.8536 19.9867 79.5336 19.6C80.2269 19.2133 80.9203 19.02 81.6136 19.02C82.3603 19.02 83.0069 19.22 83.5536 19.62C83.7936 19.4867 83.9803 19.3133 84.1136 19.1ZM80.7136 26.54C81.1536 26.54 81.5736 26.42 81.9736 26.18C82.3869 25.9267 82.7936 25.6 83.1936 25.2V21.12C83.1936 20.6267 82.9803 20.22 82.5536 19.9C82.1269 19.58 81.6469 19.42 81.1136 19.42C80.3269 19.42 79.6869 19.7733 79.1936 20.48C78.7136 21.1733 78.4736 22.08 78.4736 23.2C78.4736 24.2 78.6736 25.0067 79.0736 25.62C79.4869 26.2333 80.0336 26.54 80.7136 26.54ZM95.41 25.84C95.4633 25.84 95.4967 25.8733 95.51 25.94C95.5367 25.9933 95.5233 26.0267 95.47 26.04L93.15 27.16C93.1233 27.1733 93.09 27.18 93.05 27.18C92.93 27.18 92.81 27.0267 92.69 26.72C92.5833 26.4 92.5233 26 92.51 25.52C92.0167 26.0267 91.5167 26.4333 91.01 26.74C90.5033 27.0467 89.95 27.2 89.35 27.2C88.5367 27.2 87.85 26.9 87.29 26.3C86.7433 25.7 86.47 24.86 86.47 23.78C86.47 22.82 86.6967 21.98 87.15 21.26C87.6033 20.54 88.17 19.9867 88.85 19.6C89.5433 19.2133 90.2367 19.02 90.93 19.02C91.6767 19.02 92.3233 19.22 92.87 19.62C93.11 19.4867 93.2967 19.3133 93.43 19.1C93.4433 19.0733 93.4767 19.0733 93.53 19.1C93.5833 19.1133 93.61 19.1333 93.61 19.16V24.86C93.61 25.3133 93.6633 25.64 93.77 25.84C93.8767 26.0267 94.0567 26.12 94.31 26.12C94.5367 26.12 94.89 26.0267 95.37 25.84H95.41ZM90.03 26.54C90.47 26.54 90.89 26.42 91.29 26.18C91.7033 25.9267 92.11 25.6 92.51 25.2V21.12C92.51 20.6267 92.2967 20.22 91.87 19.9C91.4433 19.58 90.9633 19.42 90.43 19.42C89.6433 19.42 89.0033 19.7733 88.51 20.48C88.03 21.1733 87.79 22.08 87.79 23.2C87.79 24.2 87.99 25.0067 88.39 25.62C88.8033 26.2333 89.35 26.54 90.03 26.54ZM110.395 26.76C110.435 26.76 110.455 26.8 110.455 26.88C110.455 26.96 110.435 27 110.395 27C110.088 27 109.841 26.9933 109.655 26.98L108.575 26.96L107.495 26.98C107.308 26.9933 107.061 27 106.755 27C106.715 27 106.695 26.96 106.695 26.88C106.695 26.8 106.715 26.76 106.755 26.76C107.115 26.76 107.381 26.7267 107.555 26.66C107.728 26.58 107.848 26.4467 107.915 26.26C107.981 26.06 108.015 25.7667 108.015 25.38V22.2C108.015 21.4133 107.875 20.8333 107.595 20.46C107.315 20.0733 106.881 19.88 106.295 19.88C105.895 19.88 105.488 19.9933 105.075 20.22C104.675 20.4333 104.301 20.74 103.955 21.14C103.968 21.2067 103.975 21.3133 103.975 21.46V25.38C103.975 25.78 104.008 26.0733 104.075 26.26C104.141 26.4467 104.261 26.58 104.435 26.66C104.608 26.7267 104.875 26.76 105.235 26.76C105.275 26.76 105.295 26.8 105.295 26.88C105.295 26.96 105.275 27 105.235 27C104.928 27 104.681 26.9933 104.495 26.98L103.415 26.96L102.315 26.98C102.141 26.9933 101.901 27 101.595 27C101.555 27 101.535 26.96 101.535 26.88C101.535 26.8 101.555 26.76 101.595 26.76C101.955 26.76 102.221 26.7267 102.395 26.66C102.568 26.58 102.681 26.4467 102.735 26.26C102.801 26.0733 102.835 25.78 102.835 25.38V22.2C102.835 21.4133 102.695 20.8333 102.415 20.46C102.135 20.0733 101.708 19.88 101.135 19.88C100.735 19.88 100.335 19.9867 99.9347 20.2C99.5347 20.4133 99.168 20.7133 98.8347 21.1V25.38C98.8347 25.78 98.8614 26.0733 98.9147 26.26C98.9814 26.4467 99.1014 26.58 99.2747 26.66C99.448 26.7267 99.7147 26.76 100.075 26.76C100.115 26.76 100.135 26.8 100.135 26.88C100.135 26.96 100.115 27 100.075 27C99.768 27 99.528 26.9933 99.3547 26.98L98.2747 26.96L97.1747 26.98C97.0014 26.9933 96.7614 27 96.4547 27C96.4147 27 96.3947 26.96 96.3947 26.88C96.3947 26.8 96.4147 26.76 96.4547 26.76C96.8147 26.76 97.0814 26.7267 97.2547 26.66C97.428 26.58 97.5414 26.4467 97.5947 26.26C97.6614 26.0733 97.6947 25.78 97.6947 25.38V21.42C97.6947 20.9667 97.6414 20.64 97.5347 20.44C97.428 20.24 97.248 20.14 96.9947 20.14C96.7814 20.14 96.4214 20.24 95.9147 20.44H95.8747C95.8214 20.44 95.7814 20.4133 95.7547 20.36C95.7414 20.2933 95.7614 20.2467 95.8147 20.22L98.1347 19.12C98.1614 19.1067 98.2014 19.1 98.2547 19.1C98.3747 19.1 98.5014 19.2533 98.6347 19.56C98.768 19.8667 98.8347 20.26 98.8347 20.74V20.76C99.3147 20.1733 99.7947 19.7467 100.275 19.48C100.755 19.2133 101.255 19.08 101.775 19.08C102.375 19.08 102.861 19.2267 103.235 19.52C103.608 19.8133 103.841 20.2533 103.935 20.84C104.428 20.24 104.921 19.8 105.415 19.52C105.908 19.2267 106.421 19.08 106.955 19.08C107.661 19.08 108.201 19.2867 108.575 19.7C108.961 20.1 109.155 20.7 109.155 21.5V25.38C109.155 25.78 109.181 26.0733 109.235 26.26C109.301 26.4467 109.421 26.58 109.595 26.66C109.768 26.7267 110.035 26.76 110.395 26.76ZM115.409 22.46C117.235 22.46 118.149 23.18 118.149 24.62C118.149 25.4467 117.862 26.0933 117.289 26.56C116.729 27.0267 115.942 27.26 114.929 27.26C114.075 27.26 113.429 27.1 112.989 26.78C112.549 26.4467 112.329 25.9667 112.329 25.34V21.64C112.329 21.12 112.282 20.7467 112.189 20.52C112.095 20.28 111.942 20.16 111.729 20.16C111.582 20.16 111.355 20.2267 111.049 20.36H111.029C110.975 20.36 110.935 20.3267 110.909 20.26C110.882 20.18 110.895 20.1333 110.949 20.12L113.169 19.12L113.249 19.1C113.289 19.1 113.329 19.12 113.369 19.16C113.422 19.1867 113.449 19.22 113.449 19.26V22.76C114.035 22.56 114.689 22.46 115.409 22.46ZM115.189 27C116.322 27 116.889 26.3467 116.889 25.04C116.889 24.36 116.715 23.82 116.369 23.42C116.022 23.02 115.469 22.82 114.709 22.82C114.295 22.82 113.875 22.8933 113.449 23.04V24.88C113.449 25.56 113.589 26.0867 113.869 26.46C114.162 26.82 114.602 27 115.189 27Z" fill="white"/>
</g>
<rect x="0.5" y="0.5" width="163" height="43" rx="7.5" stroke="url(#paint1_linear_238_10955)"/>
<defs>
<linearGradient id="paint0_linear_238_10955" x1="82" y1="0" x2="82" y2="44" gradientUnits="userSpaceOnUse">
<stop stop-color="#4F1515"/>
<stop offset="1" stop-color="#380C0C"/>
</linearGradient>
<linearGradient id="paint1_linear_238_10955" x1="82.0096" y1="44.5002" x2="82.0096" y2="-0.500226" gradientUnits="userSpaceOnUse">
<stop offset="0.2" stop-color="#918789"/>
<stop offset="0.55" stop-color="#BBB0AE"/>
<stop offset="0.83" stop-color="#D7CCC8"/>
<stop offset="1" stop-color="#E2D7D2"/>
</linearGradient>
<clipPath id="clip0_238_10955">
<rect width="164" height="44" rx="8" fill="white"/>
</clipPath>
</defs>
</svg>
