<svg width="30" height="37" viewBox="0 0 30 37" fill="none" xmlns="http://www.w3.org/2000/svg">
<g filter="url(#filter0_d_339_689)">
<path d="M29.1458 32.625H6.85425C6.38261 32.625 6 32.2633 6 31.809V1.44098C6 0.986725 6.38261 0.625 6.85425 0.625H29.1458C29.6174 0.625 30 0.986725 30 1.44098V31.809C30 32.2633 29.6174 32.625 29.1458 32.625Z" fill="url(#paint0_linear_339_689)"/>
<path d="M27.3297 21.6465C27.3297 21.2203 27.0635 20.8618 26.6834 20.7359C26.8165 20.6099 26.9685 20.2805 27.0636 20.048C27.3392 19.3117 27.6528 17.6744 26.6169 16.3569C25.8187 15.3396 24.6878 15.1168 24.3742 15.0684C24.1746 14.7777 23.7945 14.3321 23.1767 14.0317C22.5115 13.7023 21.7322 13.6442 21.0005 13.8186C20.7724 12.9951 20.3353 12.1523 19.499 11.6679C18.8337 11.29 18.1589 11.2706 17.7598 11.2997C17.2466 11.0284 16.4199 10.6894 15.3651 10.6313C13.3218 10.5344 11.6492 11.5904 11.6967 11.7744C11.6587 11.7648 11.6113 11.7551 11.5733 11.7454C11.5352 11.7454 11.4971 11.7454 11.4591 11.7454C10.9364 11.7454 10.5183 12.1716 10.5183 12.7045C10.5183 13.1598 10.8224 13.5376 11.2405 13.6345C11.3071 13.6539 11.3831 13.6636 11.4591 13.6636C11.9818 13.6636 12.4 13.2373 12.4 12.7045C12.4 12.2879 12.1339 11.9294 11.7633 11.7938C12.0009 11.7841 12.8182 11.4741 13.702 11.8326C14.2437 12.0554 15.1749 12.6657 15.3175 13.5861C15.346 13.7605 15.3365 13.9349 15.3175 14.1189C14.3767 13.6345 13.2458 13.5861 12.3239 14.0317C11.7157 14.3321 11.3356 14.7777 11.1265 15.0684C10.8034 15.1168 9.68202 15.3396 8.88374 16.3569C7.84788 17.6744 8.16152 19.3214 8.43711 20.048C8.51314 20.2612 8.65568 20.5615 8.77922 20.7068C8.34207 20.7843 8 21.1815 8 21.6562C8 22.189 8.41814 22.6153 8.94082 22.6153C8.96933 22.6153 8.98829 22.6153 9.0168 22.6153C9.50147 22.5766 9.88164 22.16 9.88164 21.6562C9.88164 21.1524 9.48244 20.7262 8.98826 20.6971C9.03578 20.5421 9.02631 20.203 9.14035 19.8349C9.33042 19.1955 9.90061 18.4398 10.4423 18.3913C10.8034 18.3623 11.041 18.6432 11.2881 19.0308C11.1836 19.4377 11.2691 19.8543 11.5352 20.1061C11.6968 20.2611 11.8868 20.3096 11.9913 20.3289C11.9628 20.3774 11.7823 20.794 11.9913 21.2396C12.2099 21.695 12.6661 21.7919 12.7136 21.8015C13.7685 21.2881 16.2773 20.2417 19.4324 20.7455C21.0194 20.9974 22.2644 21.5593 23.1102 22.0437C23.2242 21.9178 23.4143 21.6562 23.4903 21.2687C23.5378 21.0362 23.5283 20.8424 23.5093 20.6971C23.6044 20.6487 23.956 20.4646 24.1366 20.0286C24.3457 19.5636 24.2125 19.1373 24.184 19.0405C24.4406 18.6432 24.6782 18.3526 25.0394 18.3913C25.581 18.4398 26.1512 19.1955 26.3413 19.8349C26.4553 20.203 26.4459 20.5518 26.4934 20.7068C26.4934 20.7068 26.4934 20.7068 26.4839 20.7068C26.4459 20.7068 26.4079 20.7068 26.3698 20.7068C25.8472 20.7068 25.429 21.1331 25.429 21.6659C25.429 22.1212 25.7331 22.4991 26.1513 22.5959C26.2178 22.6153 26.2938 22.625 26.3698 22.625C26.4744 22.625 26.5693 22.6056 26.6644 22.5766C26.6644 22.5766 26.6644 22.5862 26.6739 22.5959C26.6739 22.5862 26.6929 22.5766 26.6929 22.5669C27.0445 22.4312 27.2916 22.0825 27.2916 21.6756L27.3297 21.6465Z" fill="#2B0E0E"/>
</g>
<defs>
<filter id="filter0_d_339_689" x="0" y="0.625" width="30" height="36" filterUnits="userSpaceOnUse" color-interpolation-filters="sRGB">
<feFlood flood-opacity="0" result="BackgroundImageFix"/>
<feColorMatrix in="SourceAlpha" type="matrix" values="0 0 0 0 0 0 0 0 0 0 0 0 0 0 0 0 0 0 127 0" result="hardAlpha"/>
<feOffset dx="-4" dy="2"/>
<feGaussianBlur stdDeviation="1"/>
<feComposite in2="hardAlpha" operator="out"/>
<feColorMatrix type="matrix" values="0 0 0 0 0 0 0 0 0 0 0 0 0 0 0 0 0 0 0.25 0"/>
<feBlend mode="normal" in2="BackgroundImageFix" result="effect1_dropShadow_339_689"/>
<feBlend mode="normal" in="SourceGraphic" in2="effect1_dropShadow_339_689" result="shape"/>
</filter>
<linearGradient id="paint0_linear_339_689" x1="18" y1="0.625" x2="18" y2="32.625" gradientUnits="userSpaceOnUse">
<stop stop-color="#FFC1C1"/>
<stop offset="1" stop-color="#9C7A7A"/>
</linearGradient>
</defs>
</svg>
