<svg width="30" height="37" viewBox="0 0 30 37" fill="none" xmlns="http://www.w3.org/2000/svg">
<g filter="url(#filter0_d_339_692)">
<path d="M29.1458 32.625H6.85425C6.38261 32.625 6 32.2633 6 31.809V1.44098C6 0.986725 6.38261 0.625 6.85425 0.625H29.1458C29.6174 0.625 30 0.986725 30 1.44098V31.809C30 32.2633 29.6174 32.625 29.1458 32.625Z" fill="url(#paint0_linear_339_692)"/>
<path d="M18 16.6252L11.3523 9.9585V12.9245H6V20.3189H11.3523V23.2918L18 16.6252Z" fill="url(#paint1_linear_339_692)"/>
<path d="M18 16.6252L24.6409 9.9585V12.9245H30V20.3189H24.6409V23.2918L18 16.6252Z" fill="url(#paint2_linear_339_692)"/>
<path d="M17.9967 12.625L11.3335 5.98105H14.3049V0.625H21.6954V5.98105H24.6668L17.9967 12.625Z" fill="url(#paint3_linear_339_692)"/>
</g>
<defs>
<filter id="filter0_d_339_692" x="0" y="0.625" width="30" height="36" filterUnits="userSpaceOnUse" color-interpolation-filters="sRGB">
<feFlood flood-opacity="0" result="BackgroundImageFix"/>
<feColorMatrix in="SourceAlpha" type="matrix" values="0 0 0 0 0 0 0 0 0 0 0 0 0 0 0 0 0 0 127 0" result="hardAlpha"/>
<feOffset dx="-4" dy="2"/>
<feGaussianBlur stdDeviation="1"/>
<feComposite in2="hardAlpha" operator="out"/>
<feColorMatrix type="matrix" values="0 0 0 0 0 0 0 0 0 0 0 0 0 0 0 0 0 0 0.25 0"/>
<feBlend mode="normal" in2="BackgroundImageFix" result="effect1_dropShadow_339_692"/>
<feBlend mode="normal" in="SourceGraphic" in2="effect1_dropShadow_339_692" result="shape"/>
</filter>
<linearGradient id="paint0_linear_339_692" x1="18" y1="0.625" x2="18" y2="32.625" gradientUnits="userSpaceOnUse">
<stop stop-color="#FFC1C1"/>
<stop offset="1" stop-color="#9C7A7A"/>
</linearGradient>
<linearGradient id="paint1_linear_339_692" x1="12" y1="9.9585" x2="12" y2="23.2918" gradientUnits="userSpaceOnUse">
<stop stop-color="#381414"/>
<stop offset="1" stop-color="#1D0808"/>
</linearGradient>
<linearGradient id="paint2_linear_339_692" x1="24" y1="9.9585" x2="24" y2="23.2918" gradientUnits="userSpaceOnUse">
<stop stop-color="#381414"/>
<stop offset="1" stop-color="#1D0808"/>
</linearGradient>
<linearGradient id="paint3_linear_339_692" x1="18.0002" y1="0.625" x2="18.0002" y2="12.625" gradientUnits="userSpaceOnUse">
<stop stop-color="#381414"/>
<stop offset="1" stop-color="#1D0808"/>
</linearGradient>
</defs>
</svg>
