<svg width="25" height="32" viewBox="0 0 25 32" fill="none" xmlns="http://www.w3.org/2000/svg">
<path d="M23.6458 32H1.35425C0.882613 32 0.5 31.6383 0.5 31.184V0.815984C0.5 0.361725 0.882613 0 1.35425 0H23.6458C24.1174 0 24.5 0.361725 24.5 0.815984V31.184C24.5 31.6383 24.1174 32 23.6458 32Z" fill="url(#paint0_linear_388_3312)"/>
<path d="M21.8297 21.0215C21.8297 20.5953 21.5635 20.2368 21.1834 20.1109C21.3165 19.9849 21.4685 19.6555 21.5636 19.423C21.8392 18.6867 22.1528 17.0494 21.1169 15.7319C20.3187 14.7146 19.1878 14.4918 18.8742 14.4434C18.6746 14.1527 18.2945 13.7071 17.6767 13.4067C17.0115 13.0773 16.2322 13.0192 15.5005 13.1936C15.2724 12.3701 14.8353 11.5273 13.999 11.0429C13.3337 10.665 12.6589 10.6456 12.2598 10.6747C11.7466 10.4034 10.9199 10.0644 9.86506 10.0063C7.82185 9.90938 6.14917 10.9654 6.19668 11.1494C6.15867 11.1398 6.11126 11.1301 6.07325 11.1204C6.03524 11.1204 5.99711 11.1204 5.9591 11.1204C5.43642 11.1204 5.01828 11.5466 5.01828 12.0795C5.01828 12.5348 5.3224 12.9126 5.74054 13.0095C5.80707 13.0289 5.88307 13.0386 5.9591 13.0386C6.48178 13.0386 6.90003 12.6123 6.90003 12.0795C6.90003 11.6629 6.6339 11.3044 6.26327 11.1688C6.50085 11.1591 7.31817 10.8491 8.20198 11.2076C8.74367 11.4304 9.67495 12.0407 9.8175 12.9611C9.84601 13.1355 9.8365 13.3099 9.8175 13.4939C8.87667 13.0095 7.74575 12.9611 6.82393 13.4067C6.21572 13.7071 5.83558 14.1527 5.62651 14.4434C5.3034 14.4918 4.18202 14.7146 3.38374 15.7319C2.34788 17.0494 2.66152 18.6964 2.93711 19.423C3.01314 19.6362 3.15568 19.9365 3.27922 20.0818C2.84207 20.1593 2.5 20.5565 2.5 21.0312C2.5 21.564 2.91814 21.9903 3.44082 21.9903C3.46933 21.9903 3.48829 21.9903 3.5168 21.9903C4.00147 21.9516 4.38164 21.535 4.38164 21.0312C4.38164 20.5274 3.98244 20.1012 3.48826 20.0721C3.53578 19.9171 3.52631 19.578 3.64035 19.2099C3.83042 18.5705 4.40061 17.8148 4.9423 17.7663C5.30342 17.7373 5.54102 18.0182 5.78811 18.4058C5.68357 18.8127 5.76911 19.2293 6.0352 19.4811C6.19676 19.6361 6.3868 19.6846 6.49134 19.7039C6.46283 19.7524 6.28227 20.169 6.49134 20.6146C6.70992 21.07 7.16608 21.1669 7.2136 21.1765C8.26847 20.6631 10.7773 19.6167 13.9324 20.1205C15.5194 20.3724 16.7644 20.9343 17.6102 21.4187C17.7242 21.2928 17.9143 21.0312 17.9903 20.6437C18.0378 20.4112 18.0283 20.2174 18.0093 20.0721C18.1044 20.0237 18.456 19.8396 18.6366 19.4036C18.8457 18.9386 18.7125 18.5123 18.684 18.4155C18.9406 18.0182 19.1782 17.7276 19.5394 17.7663C20.081 17.8148 20.6512 18.5705 20.8413 19.2099C20.9553 19.578 20.9459 19.9268 20.9934 20.0818C20.9934 20.0818 20.9934 20.0818 20.9839 20.0818C20.9459 20.0818 20.9079 20.0818 20.8698 20.0818C20.3472 20.0818 19.929 20.5081 19.929 21.0409C19.929 21.4962 20.2331 21.8741 20.6513 21.9709C20.7178 21.9903 20.7938 22 20.8698 22C20.9744 22 21.0693 21.9806 21.1644 21.9516C21.1644 21.9516 21.1644 21.9612 21.1739 21.9709C21.1739 21.9612 21.1929 21.9516 21.1929 21.9419C21.5445 21.8062 21.7916 21.4575 21.7916 21.0506L21.8297 21.0215Z" fill="#2B0E0E"/>
<defs>
<linearGradient id="paint0_linear_388_3312" x1="12.5" y1="0" x2="12.5" y2="32" gradientUnits="userSpaceOnUse">
<stop stop-color="#FFC1C1"/>
<stop offset="1" stop-color="#9C7A7A"/>
</linearGradient>
</defs>
</svg>
