<svg width="26" height="26" viewBox="0 0 26 26" fill="none" xmlns="http://www.w3.org/2000/svg">
<path d="M13 25C19.6274 25 25 19.6274 25 13C25 6.37258 19.6274 1 13 1C6.37259 1 1 6.37258 1 13C1 19.6274 6.37259 25 13 25Z" fill="#8E7F83" stroke="black" stroke-linecap="round" stroke-linejoin="round"/>
<path d="M13.0002 21.1321C17.4914 21.1321 21.1322 17.4913 21.1322 13.0001C21.1322 8.50897 17.4914 4.86816 13.0002 4.86816C8.50909 4.86816 4.86829 8.50897 4.86829 13.0001C4.86829 17.4913 8.50909 21.1321 13.0002 21.1321Z" fill="#8E7F83" stroke="black" stroke-width="0.75" stroke-linecap="round" stroke-linejoin="round"/>
<path d="M17.2308 22.0062C20.637 20.5299 23.0205 17.1402 23.0205 13.1897C23.0205 11.4412 22.5504 9.80826 21.7339 8.39795" fill="#8E7F83"/>
<path d="M17.2308 22.0062C20.637 20.5299 23.0205 17.1402 23.0205 13.1897C23.0205 11.4412 22.5504 9.80826 21.7339 8.39795" stroke="black" stroke-linecap="round" stroke-linejoin="round"/>
<path d="M3.02901 12.8184C3.02901 12.9586 3.00427 13.0988 3.00427 13.2472C3.00427 18.5503 7.30944 22.8555 12.6125 22.8555C12.8764 22.8555 13.1321 22.839 13.3878 22.8142" fill="#8E7F83"/>
<path d="M3.02901 12.8184C3.02901 12.9586 3.00427 13.0988 3.00427 13.2472C3.00427 18.5503 7.30944 22.8555 12.6125 22.8555C12.8764 22.8555 13.1321 22.839 13.3878 22.8142" stroke="black" stroke-linecap="round" stroke-linejoin="round"/>
<path d="M17.4951 7.53204C17.2477 7.47431 16.9508 7.60626 16.8353 7.84544C16.8106 7.91142 16.7693 7.92791 16.7033 7.92791C16.225 7.91142 15.7549 7.91967 15.2765 7.91967C15.1281 7.91967 14.9714 7.91967 14.8229 7.94441C14.0312 8.08462 13.4374 8.50523 13.058 9.22276C13.0332 9.25575 13.025 9.32173 12.9838 9.32173C12.9508 9.32173 12.9425 9.25575 12.9178 9.22276C12.6291 8.65369 12.1838 8.2743 11.5899 8.05162C11.293 7.94441 10.9796 7.91142 10.6662 7.91967C10.1961 7.91967 9.71777 7.91967 9.24767 7.91967C9.19819 7.92791 9.17344 7.91967 9.14869 7.86193C9.04148 7.65575 8.87654 7.53204 8.62911 7.52379C8.38994 7.52379 8.17551 7.65575 8.07654 7.88668C7.98582 8.09286 8.02705 8.35678 8.192 8.52173C8.38994 8.72791 8.69508 8.7609 8.94251 8.61245C8.96725 8.59595 8.992 8.56297 9.02499 8.6042C9.25591 8.87637 9.47035 9.15678 9.64354 9.47018C9.98169 10.0805 10.1631 10.7403 10.2126 11.4413C10.2209 11.4826 10.2044 11.499 10.1631 11.499C10.1137 11.4908 10.0642 11.499 10.0147 11.499C9.89096 11.499 9.81675 11.565 9.81675 11.6887C9.8085 11.9609 9.80025 12.2413 9.82499 12.5217C9.82499 12.5877 9.86622 12.6289 9.92395 12.6619C9.97344 12.6784 10.0312 12.6867 10.0807 12.6867C10.1741 12.6922 10.2209 12.7417 10.2209 12.8351C10.2209 12.8351 10.2044 12.8929 10.1549 12.9011C10.0477 12.9094 9.94046 12.9423 9.84149 13.0001C9.55283 13.1568 9.38787 13.4042 9.37138 13.7341C9.35488 14.0805 9.4951 14.3527 9.792 14.5424C9.98169 14.6578 10.1961 14.6908 10.4106 14.6743C10.46 14.6743 10.493 14.6908 10.5178 14.732C10.625 14.9547 10.7569 15.1527 10.9219 15.3259C10.9549 15.3698 10.9439 15.4001 10.8889 15.4166C10.427 15.5485 9.95695 15.6722 9.4951 15.8042C9.18994 15.8867 8.89303 15.9774 8.58787 16.0599C8.48066 16.0929 8.42293 16.1506 8.42293 16.2496C8.42293 16.3485 8.48891 16.4145 8.60437 16.4393C8.60437 16.4393 8.61261 16.4393 8.62086 16.4475C9.18168 16.5547 9.39612 16.5877 9.39612 16.5877C9.76725 16.6372 10.1219 16.7362 10.493 16.7939C10.5013 16.7939 10.5178 16.8021 10.526 16.8104C10.5343 16.8269 10.526 16.8434 10.5178 16.8681C10.46 17.0248 10.3941 17.1815 10.3363 17.3465C10.2374 17.6186 10.1301 17.8908 10.0312 18.163C9.99818 18.2537 10.0229 18.3197 10.0807 18.3692C10.1301 18.3856 10.1879 18.4021 10.2374 18.4269C10.2456 18.4269 10.2456 18.4269 10.2539 18.4269C10.3528 18.4021 10.4435 18.3609 10.5425 18.3197C11.0456 18.1135 11.5487 17.9155 12.0435 17.7176C12.0683 17.7011 12.0848 17.7011 12.1013 17.7094C12.126 17.7176 12.1425 17.7424 12.1425 17.7506C12.324 18.1135 12.5466 18.4516 12.7198 18.8145C12.7446 18.8558 12.7858 18.93 12.86 18.963C12.9673 19.0125 13.1157 18.9795 13.1817 18.8887C13.2064 18.864 13.2147 18.8393 13.2147 18.831C13.3466 18.4434 13.7508 17.9073 13.8332 17.7588C13.858 17.7094 13.8827 17.7011 13.9405 17.7176C14.5013 17.9485 15.0704 18.1795 15.6394 18.4021C15.7219 18.4434 15.8126 18.4681 15.8951 18.3939C15.9693 18.3279 15.9858 18.2784 15.9446 18.1712C15.8703 17.9485 15.7796 17.7259 15.6972 17.4949C15.6229 17.2887 15.5405 17.0826 15.4662 16.8764C15.4415 16.8269 15.4497 16.8021 15.5075 16.7939C15.6807 16.7692 15.8456 16.7114 16.0188 16.7032C16.1013 16.6949 16.0188 16.6949 16.5631 16.6042C16.8765 16.5465 17.0332 16.5135 17.0415 16.5135C17.1652 16.497 17.2889 16.4722 17.4126 16.4393C17.4868 16.4228 17.5446 16.3733 17.5528 16.2826C17.5611 16.2001 17.5198 16.1259 17.4374 16.0929C17.4126 16.0764 17.3879 16.0681 17.3631 16.0599C17.2229 16.0186 17.091 15.9856 16.959 15.9444C16.3322 15.763 15.7054 15.5898 15.0868 15.4083C15.0319 15.3918 15.0236 15.3616 15.0621 15.3176C15.2188 15.1362 15.3508 14.9382 15.4662 14.7238C15.4827 14.6826 15.5157 14.6661 15.5569 14.6661C15.6642 14.6661 15.7714 14.6661 15.8786 14.6413C16.2002 14.5506 16.4229 14.3444 16.5137 14.0228C16.6126 13.7011 16.5384 13.4042 16.2992 13.1568C16.1755 13.0248 16.0188 12.9423 15.8374 12.9094C15.8044 12.9011 15.7714 12.9094 15.7631 12.8599C15.7384 12.7197 15.7549 12.6949 15.8951 12.6867C15.9116 12.6867 15.9363 12.6949 15.9528 12.6867C16.0683 12.6702 16.1425 12.6207 16.1508 12.53C16.1755 12.2413 16.1755 11.9527 16.159 11.664C16.1508 11.565 16.0765 11.499 15.9693 11.499C15.9198 11.4908 15.8703 11.499 15.8126 11.499C15.7796 11.499 15.7549 11.4826 15.7631 11.4413C15.7961 11.1032 15.8374 10.765 15.9363 10.4269C16.1343 9.75059 16.4724 9.14853 16.9343 8.62894C16.9755 8.58771 16.992 8.57946 17.0415 8.61245C17.2394 8.73616 17.4539 8.74441 17.6518 8.6207C17.8497 8.51348 17.957 8.34028 17.9487 8.10936C17.9405 7.83719 17.759 7.59802 17.4951 7.53204ZM8.62911 8.32379C8.51365 8.32379 8.41467 8.21657 8.41467 8.10936C8.42292 8.01039 8.53014 7.90317 8.62086 7.90317C8.71983 7.90317 8.82704 8.01039 8.82704 8.11761C8.82704 8.21657 8.72808 8.32379 8.62911 8.32379ZM9.37963 8.42276C9.37963 8.42276 9.3054 8.35678 9.32189 8.32379C9.33014 8.2908 9.38788 8.31554 9.42912 8.31554C9.91571 8.30729 10.4023 8.29905 10.8889 8.31554C11.8786 8.34853 12.6209 9.08255 12.7693 9.98152C12.7693 10.0475 12.7858 10.1217 12.7858 10.1877V11.4166C12.7858 11.4743 12.7776 11.499 12.7116 11.499C12.3652 11.4908 12.027 11.499 11.6889 11.499H10.6745C10.6167 11.499 10.6002 11.4826 10.6002 11.4248C10.5343 10.2867 10.1219 9.28049 9.37963 8.42276ZM10.2621 14.2702C10.0889 14.2619 9.91571 14.1382 9.84149 13.9485C9.73427 13.7011 9.87447 13.396 10.1301 13.3135C10.1961 13.2887 10.2126 13.297 10.2126 13.363V13.5197C10.2126 13.7506 10.2539 13.9815 10.3116 14.2042C10.3281 14.2537 10.3116 14.2702 10.2621 14.2702ZM16.4312 16.1918C16.4312 16.1918 16.4312 16.2001 16.4642 16.2083C16.3405 16.2496 16.2332 16.2661 16.1178 16.2826L15.1528 16.4558C15.0044 16.4887 14.9466 16.5877 15.0044 16.7444C15.0868 16.9836 15.1776 17.2228 15.2683 17.4619C15.3178 17.5774 15.359 17.6929 15.4002 17.8083C15.4002 17.8331 15.4332 17.8578 15.4167 17.8743C15.392 17.8908 15.3673 17.8743 15.3508 17.8661C14.9466 17.7011 14.5508 17.5444 14.1549 17.3795C14.0642 17.3465 13.9734 17.3052 13.8745 17.2722C13.7508 17.2228 13.6765 17.2475 13.6023 17.3712C13.5033 17.5362 13.4044 17.7094 13.3136 17.8826C13.2147 18.0475 13.124 18.2125 13.025 18.3774C12.992 18.4434 12.9838 18.4434 12.9425 18.3774C12.7611 18.0558 12.5796 17.7259 12.3982 17.4042C12.3075 17.2393 12.2415 17.2228 12.06 17.2887C11.5817 17.4867 11.0951 17.6846 10.6167 17.8743C10.6003 17.8826 10.5838 17.8991 10.5755 17.8826C10.5508 17.8661 10.5673 17.8413 10.5755 17.8166C10.6745 17.5609 10.7734 17.297 10.8642 17.0413C10.9054 16.9341 10.9549 16.8351 10.9879 16.7279C11.0291 16.5877 10.9714 16.4805 10.8147 16.4558C10.5837 16.4145 10.3446 16.3733 10.1054 16.3238C9.9322 16.2991 9.76725 16.2661 9.6023 16.2331C9.57756 16.2331 9.54458 16.2331 9.52808 16.2001C9.57756 16.1836 9.6188 16.1753 9.66829 16.1588C10.2044 16.0104 10.7404 15.8537 11.2765 15.697C11.3095 15.6887 11.3343 15.697 11.3673 15.7217C11.7879 16.0269 12.258 16.2083 12.7693 16.2413C13.3549 16.2908 13.9075 16.1588 14.4106 15.8537C14.4848 15.8125 14.5508 15.763 14.6167 15.7217C14.6497 15.697 14.6745 15.6887 14.7075 15.697C15.2848 15.8619 15.8539 16.0269 16.4312 16.1918ZM15.3755 13.5774C15.3343 14.3362 15.0044 14.9465 14.3941 15.4083C13.9652 15.7217 13.4786 15.8702 12.9508 15.8619C11.8374 15.8372 10.9714 15.0867 10.6992 14.1547C10.6332 13.9073 10.6002 13.6599 10.6002 13.4042C10.6002 13.198 10.6085 12.9836 10.6002 12.7774C10.6002 12.7114 10.6167 12.6867 10.691 12.6867C11.458 12.6949 12.225 12.6867 13.0003 12.6867C13.7755 12.6867 14.526 12.6949 15.293 12.6867C15.359 12.6867 15.3755 12.7114 15.3755 12.7774C15.3755 13.0413 15.3837 13.3052 15.3755 13.5774ZM15.8539 13.3135C16.0518 13.3877 16.1838 13.5856 16.1755 13.7836C16.1673 13.9815 16.027 14.1795 15.8374 14.2454C15.8044 14.2619 15.7714 14.2702 15.7384 14.2619C15.6559 14.2702 15.6559 14.2619 15.6724 14.1877C15.7384 13.9238 15.7796 13.6516 15.7631 13.3712C15.7549 13.2805 15.7631 13.2805 15.8539 13.3135ZM15.7714 11.9527C15.7714 12.0434 15.7714 12.1341 15.7796 12.2248C15.7796 12.2743 15.7631 12.2908 15.7136 12.2908C15.5405 12.2826 15.359 12.2908 15.1776 12.2908H10.3033C10.2374 12.2908 10.2044 12.2578 10.2044 12.1918C10.2044 12.1094 10.2126 12.0269 10.2044 11.9527C10.2044 11.9032 10.2209 11.8784 10.2703 11.8867H15.7054C15.7549 11.8867 15.7714 11.9032 15.7714 11.9527ZM16.6374 8.37327C16.06 9.02482 15.6724 9.78358 15.4827 10.6331C15.425 10.897 15.392 11.1692 15.3755 11.4331C15.3755 11.4991 15.3425 11.499 15.3013 11.499H13.2642C13.2064 11.499 13.1899 11.4826 13.1899 11.4248C13.1899 11.0042 13.1899 10.5918 13.1899 10.1795C13.2064 9.77534 13.3466 9.41245 13.5941 9.0908C13.8745 8.71967 14.2538 8.47224 14.7157 8.36503C14.8724 8.33204 15.0291 8.3073 15.1858 8.3073H16.6044C16.6044 8.3073 16.6621 8.29905 16.6704 8.32379C16.6786 8.34853 16.6539 8.35678 16.6374 8.37327ZM17.3549 8.32379C17.2559 8.32379 17.1569 8.21657 17.1569 8.11761C17.1569 8.01039 17.2559 7.90317 17.3631 7.90317C17.4539 7.90317 17.5611 8.01863 17.5611 8.10936C17.5611 8.21657 17.4621 8.31554 17.3549 8.32379Z" fill="black"/>
<path d="M15.1528 16.4562C15.0044 16.4892 14.9466 16.5882 15.0044 16.7449C15.0868 16.984 15.1776 17.2232 15.2683 17.4624C15.3178 17.5778 15.359 17.6933 15.4002 17.8088C15.4002 17.8335 15.4332 17.8583 15.4167 17.8747C15.392 17.8912 15.3673 17.8747 15.3508 17.8665C14.9466 17.7016 14.5508 17.5449 14.1549 17.3799C14.0642 17.3469 13.9734 17.3057 13.8745 17.2727C13.7508 17.2232 13.6765 17.2479 13.6023 17.3717C13.5033 17.5366 13.4044 17.7098 13.3136 17.883C13.2147 18.0479 13.124 18.2129 13.025 18.3778C12.992 18.4438 12.9837 18.4438 12.9425 18.3778C12.7611 18.0562 12.5796 17.7263 12.3982 17.4046C12.3075 17.2397 12.2415 17.2232 12.06 17.2892C11.5817 17.4871 11.0951 17.6851 10.6167 17.8747C10.6002 17.883 10.5838 17.8995 10.5755 17.883C10.5508 17.8665 10.5673 17.8418 10.5755 17.817C10.6745 17.5613 10.7734 17.2974 10.8642 17.0418C10.9054 16.9345 10.9549 16.8356 10.9879 16.7284C11.0291 16.5882 10.9714 16.4809 10.8147 16.4562C10.5837 16.415 10.3446 16.3737 10.1054 16.3242C9.9322 16.2995 9.76725 16.2665 9.6023 16.2335C9.57756 16.2335 9.54457 16.2335 9.52808 16.2005C9.57756 16.184 9.6188 16.1758 9.66828 16.1593C10.2044 16.0108 10.7404 15.8541 11.2765 15.6974C11.3095 15.6892 11.3343 15.6974 11.3672 15.7222C11.7879 16.0273 12.258 16.2088 12.7693 16.2418C13.3549 16.2912 13.9075 16.1593 14.4106 15.8541C14.4848 15.8129 14.5508 15.7634 14.6167 15.7222C14.6497 15.6974 14.6745 15.6892 14.7075 15.6974C15.2848 15.8624 15.8538 16.0273 16.4312 16.1923C16.4312 16.1923 16.4312 16.2005 16.4642 16.2088C16.3405 16.25 16.2332 16.2665 16.1178 16.283L15.1528 16.4562Z" fill="#B9AEAD"/>
<path d="M10.3117 14.2043C10.3282 14.2538 10.3117 14.2703 10.2622 14.2703C10.089 14.2621 9.91585 14.1384 9.84162 13.9487C9.7344 13.7012 9.8746 13.3961 10.1303 13.3136C10.1963 13.2889 10.2127 13.2971 10.2127 13.3631V13.5198C10.2127 13.7507 10.254 13.9817 10.3117 14.2043Z" fill="#B9AEAD"/>
<path d="M16.1753 13.7837C16.167 13.9816 16.0268 14.1796 15.8371 14.2456C15.8041 14.2621 15.7712 14.2703 15.7382 14.2621C15.6557 14.2703 15.6557 14.2621 15.6722 14.1878C15.7382 13.9239 15.7794 13.6518 15.7629 13.3713C15.7547 13.2806 15.7629 13.2806 15.8536 13.3136C16.0516 13.3878 16.1835 13.5858 16.1753 13.7837Z" fill="#B9AEAD"/>
<path d="M15.3756 12.7772C15.3756 13.0412 15.3838 13.3051 15.3756 13.5772C15.3344 14.336 15.0045 14.9463 14.3941 15.4082C13.9653 15.7216 13.4787 15.87 12.9509 15.8618C11.8374 15.837 10.9715 15.0865 10.6993 14.1546C10.6333 13.9071 10.6003 13.6597 10.6003 13.404C10.6003 13.1979 10.6086 12.9834 10.6003 12.7772C10.6003 12.7113 10.6168 12.6865 10.6911 12.6865C11.4581 12.6948 12.2251 12.6865 13.0003 12.6865C13.7756 12.6865 14.5261 12.6948 15.2931 12.6865C15.3591 12.6865 15.3756 12.7113 15.3756 12.7772Z" fill="#B9AEAD"/>
<path d="M15.7794 12.225C15.7794 12.2744 15.7629 12.2909 15.7134 12.2909C15.5402 12.2827 15.3587 12.2909 15.1773 12.2909H10.3031C10.2371 12.2909 10.2041 12.258 10.2041 12.192C10.2041 12.1095 10.2123 12.027 10.2041 11.9528C10.2041 11.9033 10.2206 11.8786 10.2701 11.8868H15.7051C15.7546 11.8868 15.7711 11.9033 15.7711 11.9528C15.7711 12.0435 15.7711 12.1342 15.7794 12.225Z" fill="#B9AEAD"/>
<path d="M17.5611 8.10951C17.5611 8.21672 17.4621 8.31569 17.3549 8.32394C17.256 8.32394 17.157 8.21672 17.157 8.11776C17.157 8.01054 17.256 7.90332 17.3632 7.90332C17.4539 7.90332 17.5611 8.01878 17.5611 8.10951Z" fill="#B9AEAD"/>
<path d="M16.6706 8.32397C16.6706 8.32397 16.6541 8.35695 16.6376 8.37345C16.0603 9.025 15.6727 9.78376 15.483 10.6332C15.4252 10.8972 15.3922 11.1693 15.3757 11.4332C15.3757 11.4992 15.3428 11.4992 15.3015 11.4992H13.2644C13.2067 11.4992 13.1902 11.4827 13.1902 11.425C13.1902 11.0044 13.1902 10.592 13.1902 10.1796C13.2067 9.77551 13.3469 9.41263 13.5943 9.09098C13.8747 8.71984 14.2541 8.47242 14.716 8.3652C14.8727 8.33221 15.0294 8.30747 15.1861 8.30747H16.6046C16.6046 8.30747 16.6624 8.29922 16.6706 8.32397Z" fill="#B9AEAD"/>
<path d="M12.7858 10.1878V11.4167C12.7858 11.4744 12.7776 11.4992 12.7116 11.4992C12.3652 11.4909 12.0271 11.4992 11.6889 11.4992H10.6745C10.6167 11.4992 10.6003 11.4827 10.6003 11.425C10.5343 10.2868 10.1219 9.28063 9.37964 8.42289C9.3549 8.3899 9.30541 8.35691 9.3219 8.32392C9.33015 8.29094 9.38788 8.31568 9.42912 8.31568C9.91572 8.30743 10.4023 8.29918 10.8889 8.31568C11.8786 8.34867 12.6209 9.08269 12.7693 9.98166C12.7693 10.0476 12.7858 10.1219 12.7858 10.1878Z" fill="#B9AEAD"/>
<path d="M8.82717 8.11776C8.82717 8.21672 8.72821 8.32394 8.62924 8.32394C8.51377 8.32394 8.41479 8.21672 8.41479 8.10951C8.42304 8.01054 8.53026 7.90332 8.62098 7.90332C8.71995 7.90332 8.82717 8.01054 8.82717 8.11776Z" fill="#B9AEAD"/>
</svg>
