<svg width="345" height="104" viewBox="0 0 345 104" fill="none" xmlns="http://www.w3.org/2000/svg">
<path d="M117.215 0.510014C117.227 0.510014 117.239 0.509608 117.25 0.508797C117.373 0.500211 117.499 0.5 117.645 0.5H153.568C156.66 0.5 159.433 1.17689 161.415 2.24704C163.417 3.32794 164.5 4.73825 164.5 6.17279V37.8372C164.5 39.2662 163.418 40.6742 161.415 41.7541C159.433 42.8231 156.66 43.5 153.568 43.5H117.645C117.583 43.5 117.521 43.4979 117.448 43.4953L117.444 43.4952C117.375 43.4927 117.296 43.49 117.215 43.49C117.21 43.49 117.205 43.4901 117.201 43.4902C117.194 43.4904 117.187 43.4907 117.181 43.4912C117.058 43.4998 116.932 43.5 116.786 43.5H11.4316C8.34028 43.5 5.56719 42.8231 3.58491 41.7541C1.58236 40.6742 0.5 39.2662 0.5 37.8372V6.17279C0.5 4.73825 1.58305 3.32793 3.58512 2.24704C5.56728 1.17689 8.34026 0.5 11.4316 0.5H116.786C116.848 0.5 116.91 0.502147 116.983 0.504701L116.987 0.504828C117.056 0.507251 117.135 0.510014 117.215 0.510014Z" fill="url(#paint0_linear_238_10841)" stroke="url(#paint1_linear_238_10841)" stroke-linecap="round" stroke-linejoin="round"/>
<path d="M31.2575 0.510014C31.2908 0.510014 31.3241 0.506677 31.3567 0.500067L31.372 0.5H40.9515C41.4991 0.5 42.1326 0.962803 42.659 2.0285C43.1698 3.06267 43.5 4.52689 43.5 6.17279V37.8372C43.5 39.4779 43.1699 40.9396 42.6591 41.9726C42.1327 43.0371 41.4992 43.5 40.9515 43.5H31.3856L31.3798 43.4992C31.3716 43.4982 31.354 43.4958 31.3351 43.494C31.3152 43.492 31.2884 43.49 31.2575 43.49C31.2241 43.49 31.1909 43.4933 31.1582 43.4999L31.143 43.5H3.04842C2.50076 43.5 1.86726 43.0371 1.34089 41.9726C0.830106 40.9396 0.5 39.4779 0.5 37.8372V6.17279C0.5 4.52688 0.830178 3.06266 1.34099 2.02849C1.86736 0.962798 2.50088 0.5 3.04842 0.5H31.1293L31.1352 0.500759L31.1367 0.500961C31.1454 0.502107 31.1621 0.504292 31.1799 0.506046C31.1997 0.507998 31.2265 0.510014 31.2575 0.510014Z" fill="url(#paint2_linear_238_10841)" stroke="url(#paint3_linear_238_10841)" stroke-linecap="round" stroke-linejoin="round"/>
<path d="M15 22H29" stroke="white" stroke-width="2" stroke-linecap="round" stroke-linejoin="round"/>
<path d="M72.1914 27.5C72.17 27.5 72.1594 27.468 72.1594 27.404C72.1594 27.34 72.17 27.308 72.1914 27.308C72.6607 27.308 73.0127 27.2813 73.2474 27.228C73.4927 27.164 73.6687 27.0573 73.7754 26.908C73.882 26.748 73.9354 26.5133 73.9354 26.204V20.252C73.9354 19.5267 73.7647 19.164 73.4234 19.164C73.1674 19.164 72.7567 19.3667 72.1914 19.772L72.1594 19.788C72.1167 19.788 72.0847 19.7667 72.0634 19.724C72.042 19.6707 72.042 19.6333 72.0634 19.612L75.1514 17.388C75.194 17.3667 75.2314 17.356 75.2634 17.356C75.2847 17.356 75.306 17.3667 75.3274 17.388C75.3487 17.4093 75.3594 17.4307 75.3594 17.452V26.204C75.3594 26.524 75.4074 26.7587 75.5034 26.908C75.5994 27.0573 75.7647 27.164 75.9994 27.228C76.2447 27.2813 76.6074 27.308 77.0874 27.308C77.1194 27.308 77.1354 27.34 77.1354 27.404C77.1354 27.468 77.1194 27.5 77.0874 27.5C76.6607 27.5 76.3247 27.4947 76.0794 27.484L74.6394 27.468L73.2474 27.484C72.9914 27.4947 72.6394 27.5 72.1914 27.5ZM81.6254 27.708C80.932 27.708 80.3294 27.5 79.8174 27.084C79.316 26.6573 78.9267 26.0547 78.6494 25.276C78.3827 24.4867 78.2494 23.5587 78.2494 22.492C78.2494 21.436 78.3827 20.5187 78.6494 19.74C78.9267 18.9613 79.3214 18.364 79.8334 17.948C80.356 17.5213 80.964 17.308 81.6574 17.308C82.34 17.308 82.9267 17.5213 83.4174 17.948C83.9187 18.364 84.3027 18.9667 84.5694 19.756C84.836 20.5453 84.9694 21.4733 84.9694 22.54C84.9694 23.596 84.8307 24.5133 84.5534 25.292C84.2867 26.0707 83.9027 26.668 83.4014 27.084C82.9 27.5 82.308 27.708 81.6254 27.708ZM81.8174 27.404C82.3507 27.404 82.7347 27.0307 82.9694 26.284C83.2147 25.5267 83.3374 24.3427 83.3374 22.732C83.3374 20.9507 83.1827 19.6493 82.8734 18.828C82.564 18.0067 82.1 17.596 81.4814 17.596C80.9374 17.596 80.532 17.9907 80.2654 18.78C80.0094 19.5587 79.8814 20.7587 79.8814 22.38C79.8814 24.0867 80.036 25.3507 80.3454 26.172C80.6654 26.9933 81.156 27.404 81.8174 27.404ZM89.641 27.708C88.9477 27.708 88.345 27.5 87.833 27.084C87.3317 26.6573 86.9423 26.0547 86.665 25.276C86.3983 24.4867 86.265 23.5587 86.265 22.492C86.265 21.436 86.3983 20.5187 86.665 19.74C86.9423 18.9613 87.337 18.364 87.849 17.948C88.3717 17.5213 88.9797 17.308 89.673 17.308C90.3557 17.308 90.9423 17.5213 91.433 17.948C91.9343 18.364 92.3183 18.9667 92.585 19.756C92.8517 20.5453 92.985 21.4733 92.985 22.54C92.985 23.596 92.8463 24.5133 92.569 25.292C92.3023 26.0707 91.9183 26.668 91.417 27.084C90.9157 27.5 90.3237 27.708 89.641 27.708ZM89.833 27.404C90.3663 27.404 90.7503 27.0307 90.985 26.284C91.2303 25.5267 91.353 24.3427 91.353 22.732C91.353 20.9507 91.1983 19.6493 90.889 18.828C90.5797 18.0067 90.1157 17.596 89.497 17.596C88.953 17.596 88.5477 17.9907 88.281 18.78C88.025 19.5587 87.897 20.7587 87.897 22.38C87.897 24.0867 88.0517 25.3507 88.361 26.172C88.681 26.9933 89.1717 27.404 89.833 27.404Z" fill="white"/>
<path d="M71.3594 29.1H93.641V29.9H71.3594V29.1Z" fill="white"/>
<path d="M152.257 0.510014C152.291 0.510014 152.324 0.506677 152.357 0.500067L152.372 0.5H161.952C162.499 0.5 163.133 0.962803 163.659 2.0285C164.17 3.06267 164.5 4.52689 164.5 6.17279V37.8372C164.5 39.4779 164.17 40.9396 163.659 41.9726C163.133 43.0371 162.499 43.5 161.952 43.5H152.386L152.38 43.4992C152.372 43.4982 152.354 43.4958 152.335 43.494C152.315 43.492 152.288 43.49 152.257 43.49C152.224 43.49 152.191 43.4933 152.158 43.4999L152.143 43.5H124.048C123.501 43.5 122.867 43.0371 122.341 41.9726C121.83 40.9396 121.5 39.4779 121.5 37.8372V6.17279C121.5 4.52688 121.83 3.06266 122.341 2.02849C122.867 0.962798 123.501 0.5 124.048 0.5H152.129L152.135 0.500759L152.137 0.500961C152.145 0.502107 152.162 0.504292 152.18 0.506046C152.2 0.507998 152.227 0.510014 152.257 0.510014Z" fill="url(#paint4_linear_238_10841)" stroke="url(#paint5_linear_238_10841)" stroke-linecap="round" stroke-linejoin="round"/>
<path d="M143 15V29" stroke="white" stroke-width="2" stroke-linecap="round" stroke-linejoin="round"/>
<path d="M136 22H150" stroke="white" stroke-width="2" stroke-linecap="round" stroke-linejoin="round"/>
<path d="M297.505 0.510014C297.517 0.510014 297.529 0.509603 297.54 0.508782C297.662 0.500214 297.787 0.5 297.932 0.5H333.638C336.709 0.5 339.465 1.1767 341.434 2.24643C343.423 3.32661 344.5 4.73669 344.5 6.17279V37.8372C344.5 39.2678 343.423 40.6755 341.434 41.7547C339.465 42.8233 336.709 43.5 333.638 43.5H297.932C297.871 43.5 297.809 43.4979 297.736 43.4953C297.709 43.4944 297.681 43.4933 297.651 43.4925C297.604 43.4911 297.555 43.49 297.505 43.49C297.493 43.49 297.482 43.4904 297.47 43.4912C297.348 43.4998 297.223 43.5 297.078 43.5H192.362C189.291 43.5 186.535 42.8233 184.566 41.7547C182.577 40.6755 181.5 39.2678 181.5 37.8372V6.17279C181.5 4.73668 182.577 3.3266 184.566 2.24643C186.535 1.1767 189.291 0.5 192.362 0.5H297.078C297.139 0.5 297.202 0.502142 297.274 0.504698L297.278 0.504825C297.347 0.507248 297.425 0.510014 297.505 0.510014Z" fill="url(#paint6_linear_238_10841)" stroke="url(#paint7_linear_238_10841)" stroke-linecap="round" stroke-linejoin="round"/>
<path d="M212.257 0.510014C212.291 0.510014 212.324 0.506677 212.357 0.500067L212.372 0.5H221.952C222.499 0.5 223.133 0.962803 223.659 2.0285C224.17 3.06267 224.5 4.52689 224.5 6.17279V37.8372C224.5 39.4779 224.17 40.9396 223.659 41.9726C223.133 43.0371 222.499 43.5 221.952 43.5H212.386L212.38 43.4992C212.372 43.4982 212.354 43.4958 212.335 43.494C212.315 43.492 212.288 43.49 212.257 43.49C212.224 43.49 212.191 43.4933 212.158 43.4999L212.143 43.5H184.048C183.501 43.5 182.867 43.0371 182.341 41.9726C181.83 40.9396 181.5 39.4779 181.5 37.8372V6.17279C181.5 4.52688 181.83 3.06266 182.341 2.02849C182.867 0.962798 183.501 0.5 184.048 0.5H212.129L212.135 0.500759L212.137 0.500961C212.145 0.502107 212.162 0.504292 212.18 0.506046C212.2 0.507998 212.227 0.510014 212.257 0.510014Z" fill="url(#paint8_linear_238_10841)" stroke="url(#paint9_linear_238_10841)" stroke-linecap="round" stroke-linejoin="round"/>
<path d="M196 22H210" stroke="white" stroke-width="2" stroke-linecap="round" stroke-linejoin="round"/>
<path d="M255.395 27.5C255.373 27.5 255.363 27.468 255.363 27.404C255.363 27.34 255.373 27.308 255.395 27.308C255.864 27.308 256.216 27.2813 256.451 27.228C256.696 27.164 256.872 27.0573 256.979 26.908C257.085 26.748 257.139 26.5133 257.139 26.204V20.252C257.139 19.5267 256.968 19.164 256.627 19.164C256.371 19.164 255.96 19.3667 255.395 19.772L255.363 19.788C255.32 19.788 255.288 19.7667 255.267 19.724C255.245 19.6707 255.245 19.6333 255.267 19.612L258.355 17.388C258.397 17.3667 258.435 17.356 258.467 17.356C258.488 17.356 258.509 17.3667 258.531 17.388C258.552 17.4093 258.562 17.4307 258.562 17.452V26.204C258.562 26.524 258.611 26.7587 258.707 26.908C258.803 27.0573 258.968 27.164 259.203 27.228C259.448 27.2813 259.811 27.308 260.291 27.308C260.323 27.308 260.339 27.34 260.339 27.404C260.339 27.468 260.323 27.5 260.291 27.5C259.864 27.5 259.528 27.4947 259.283 27.484L257.843 27.468L256.451 27.484C256.195 27.4947 255.843 27.5 255.395 27.5ZM271.485 27.308C271.506 27.308 271.517 27.34 271.517 27.404C271.517 27.468 271.506 27.5 271.485 27.5H269.165C269.015 27.5 268.882 27.4573 268.765 27.372C268.658 27.2867 268.471 27.068 268.205 26.716C267.938 26.364 267.485 25.7293 266.845 24.812L266.557 24.396C266.13 23.788 265.815 23.3667 265.613 23.132C265.421 22.8867 265.218 22.716 265.005 22.62C264.791 22.5133 264.509 22.46 264.157 22.46H264.093V26.204C264.093 26.524 264.125 26.764 264.189 26.924C264.253 27.0733 264.37 27.1747 264.541 27.228C264.711 27.2813 264.989 27.308 265.373 27.308C265.405 27.308 265.421 27.34 265.421 27.404C265.421 27.468 265.405 27.5 265.373 27.5C265.01 27.5 264.722 27.4947 264.509 27.484L263.245 27.468L262.093 27.484C261.89 27.4947 261.613 27.5 261.261 27.5C261.229 27.5 261.213 27.468 261.213 27.404C261.213 27.34 261.229 27.308 261.261 27.308C261.645 27.308 261.922 27.2813 262.093 27.228C262.274 27.1747 262.397 27.0733 262.461 26.924C262.525 26.764 262.557 26.524 262.557 26.204V18.796C262.557 18.476 262.525 18.2413 262.461 18.092C262.397 17.9427 262.274 17.8413 262.093 17.788C261.922 17.724 261.65 17.692 261.277 17.692C261.245 17.692 261.229 17.66 261.229 17.596C261.229 17.532 261.245 17.5 261.277 17.5L262.109 17.516C262.578 17.5373 262.957 17.548 263.245 17.548C263.586 17.548 264.013 17.5373 264.525 17.516L265.373 17.5C265.405 17.5 265.421 17.532 265.421 17.596C265.421 17.66 265.405 17.692 265.373 17.692C264.999 17.692 264.722 17.724 264.541 17.788C264.37 17.852 264.253 17.964 264.189 18.124C264.125 18.2733 264.093 18.508 264.093 18.828V22.188C264.381 22.1773 264.738 22.172 265.165 22.172H265.277L267.037 19.74C267.485 19.1213 267.709 18.6307 267.709 18.268C267.709 17.884 267.474 17.692 267.005 17.692C266.983 17.692 266.973 17.66 266.973 17.596C266.973 17.532 266.983 17.5 267.005 17.5L267.725 17.516C268.173 17.5373 268.578 17.548 268.941 17.548C269.335 17.548 269.746 17.5373 270.173 17.516L270.829 17.5C270.861 17.5 270.877 17.532 270.877 17.596C270.877 17.66 270.861 17.692 270.829 17.692C270.327 17.692 269.81 17.852 269.277 18.172C268.743 18.492 268.258 18.9293 267.821 19.484L265.677 22.188C266.039 22.22 266.343 22.3053 266.589 22.444C266.834 22.5827 267.074 22.796 267.309 23.084C267.554 23.3613 267.911 23.8307 268.381 24.492C268.935 25.26 269.346 25.8147 269.613 26.156C269.89 26.4973 270.178 26.7747 270.477 26.988C270.786 27.1907 271.122 27.2973 271.485 27.308Z" fill="white"/>
<path d="M254.562 29.1H271.437V29.9H254.562V29.1Z" fill="white"/>
<path d="M332.257 0.510014C332.291 0.510014 332.324 0.506677 332.357 0.500067L332.372 0.5H341.952C342.499 0.5 343.133 0.962803 343.659 2.0285C344.17 3.06267 344.5 4.52689 344.5 6.17279V37.8372C344.5 39.4779 344.17 40.9396 343.659 41.9726C343.133 43.0371 342.499 43.5 341.952 43.5H332.386L332.38 43.4992C332.372 43.4982 332.354 43.4958 332.335 43.494C332.315 43.492 332.288 43.49 332.257 43.49C332.224 43.49 332.191 43.4933 332.158 43.4999L332.143 43.5H304.048C303.501 43.5 302.867 43.0371 302.341 41.9726C301.83 40.9396 301.5 39.4779 301.5 37.8372V6.17279C301.5 4.52688 301.83 3.06266 302.341 2.02849C302.867 0.962798 303.501 0.5 304.048 0.5H332.129L332.135 0.500759L332.137 0.500961C332.145 0.502107 332.162 0.504292 332.18 0.506046C332.2 0.507998 332.227 0.510014 332.257 0.510014Z" fill="url(#paint10_linear_238_10841)" stroke="url(#paint11_linear_238_10841)" stroke-linecap="round" stroke-linejoin="round"/>
<path d="M323 15V29" stroke="white" stroke-width="2" stroke-linecap="round" stroke-linejoin="round"/>
<path d="M316 22H330" stroke="white" stroke-width="2" stroke-linecap="round" stroke-linejoin="round"/>
<path d="M117.215 60.51C117.227 60.51 117.239 60.5096 117.25 60.5088C117.373 60.5002 117.499 60.5 117.645 60.5H153.568C156.66 60.5 159.433 61.1769 161.415 62.247C163.417 63.3279 164.5 64.7383 164.5 66.1728V97.8372C164.5 99.2662 163.418 100.674 161.415 101.754C159.433 102.823 156.66 103.5 153.568 103.5H117.645C117.583 103.5 117.521 103.498 117.448 103.495L117.444 103.495C117.375 103.493 117.296 103.49 117.215 103.49C117.21 103.49 117.205 103.49 117.201 103.49C117.194 103.49 117.187 103.491 117.181 103.491C117.058 103.5 116.932 103.5 116.786 103.5H11.4316C8.34028 103.5 5.56719 102.823 3.58491 101.754C1.58236 100.674 0.5 99.2662 0.5 97.8372V66.1728C0.5 64.7382 1.58305 63.3279 3.58512 62.247C5.56728 61.1769 8.34026 60.5 11.4316 60.5H116.786C116.848 60.5 116.91 60.5021 116.983 60.5047L116.987 60.5048C117.056 60.5073 117.135 60.51 117.215 60.51Z" fill="url(#paint12_linear_238_10841)" stroke="url(#paint13_linear_238_10841)" stroke-linecap="round" stroke-linejoin="round"/>
<path d="M31.2575 60.51C31.2908 60.51 31.3241 60.5067 31.3567 60.5001L31.372 60.5H40.9515C41.4991 60.5 42.1326 60.9628 42.659 62.0285C43.1698 63.0627 43.5 64.5269 43.5 66.1728V97.8372C43.5 99.4779 43.1699 100.94 42.6591 101.973C42.1327 103.037 41.4992 103.5 40.9515 103.5H31.3856L31.3798 103.499C31.3716 103.498 31.354 103.496 31.3351 103.494C31.3152 103.492 31.2884 103.49 31.2575 103.49C31.2241 103.49 31.1909 103.493 31.1582 103.5L31.143 103.5H3.04842C2.50076 103.5 1.86726 103.037 1.34089 101.973C0.830106 100.94 0.5 99.4779 0.5 97.8372V66.1728C0.5 64.5269 0.830178 63.0627 1.34099 62.0285C1.86736 60.9628 2.50088 60.5 3.04842 60.5H31.1293L31.1352 60.5008L31.1367 60.501C31.1454 60.5021 31.1621 60.5043 31.1799 60.506C31.1997 60.508 31.2265 60.51 31.2575 60.51Z" fill="url(#paint14_linear_238_10841)" stroke="url(#paint15_linear_238_10841)" stroke-linecap="round" stroke-linejoin="round"/>
<path d="M15 82H29" stroke="white" stroke-width="2" stroke-linecap="round" stroke-linejoin="round"/>
<path d="M70.8867 87.5C70.8654 87.5 70.8547 87.468 70.8547 87.404C70.8547 87.34 70.8654 87.308 70.8867 87.308C71.356 87.308 71.708 87.2813 71.9427 87.228C72.188 87.164 72.364 87.0573 72.4707 86.908C72.5774 86.748 72.6307 86.5133 72.6307 86.204V80.252C72.6307 79.5267 72.46 79.164 72.1187 79.164C71.8627 79.164 71.452 79.3667 70.8867 79.772L70.8547 79.788C70.812 79.788 70.78 79.7667 70.7587 79.724C70.7374 79.6707 70.7374 79.6333 70.7587 79.612L73.8467 77.388C73.8894 77.3667 73.9267 77.356 73.9587 77.356C73.98 77.356 74.0014 77.3667 74.0227 77.388C74.044 77.4093 74.0547 77.4307 74.0547 77.452V86.204C74.0547 86.524 74.1027 86.7587 74.1987 86.908C74.2947 87.0573 74.46 87.164 74.6947 87.228C74.94 87.2813 75.3027 87.308 75.7827 87.308C75.8147 87.308 75.8307 87.34 75.8307 87.404C75.8307 87.468 75.8147 87.5 75.7827 87.5C75.356 87.5 75.02 87.4947 74.7747 87.484L73.3347 87.468L71.9427 87.484C71.6867 87.4947 71.3347 87.5 70.8867 87.5ZM80.3207 87.708C79.6274 87.708 79.0247 87.5 78.5127 87.084C78.0114 86.6573 77.622 86.0547 77.3447 85.276C77.078 84.4867 76.9447 83.5587 76.9447 82.492C76.9447 81.436 77.078 80.5187 77.3447 79.74C77.622 78.9613 78.0167 78.364 78.5287 77.948C79.0514 77.5213 79.6594 77.308 80.3527 77.308C81.0354 77.308 81.622 77.5213 82.1127 77.948C82.614 78.364 82.998 78.9667 83.2647 79.756C83.5314 80.5453 83.6647 81.4733 83.6647 82.54C83.6647 83.596 83.526 84.5133 83.2487 85.292C82.982 86.0707 82.598 86.668 82.0967 87.084C81.5954 87.5 81.0034 87.708 80.3207 87.708ZM80.5127 87.404C81.046 87.404 81.43 87.0307 81.6647 86.284C81.91 85.5267 82.0327 84.3427 82.0327 82.732C82.0327 80.9507 81.878 79.6493 81.5687 78.828C81.2594 78.0067 80.7954 77.596 80.1767 77.596C79.6327 77.596 79.2274 77.9907 78.9607 78.78C78.7047 79.5587 78.5767 80.7587 78.5767 82.38C78.5767 84.0867 78.7314 85.3507 79.0407 86.172C79.3607 86.9933 79.8514 87.404 80.5127 87.404ZM94.9923 87.308C95.0136 87.308 95.0243 87.34 95.0243 87.404C95.0243 87.468 95.0136 87.5 94.9923 87.5H92.6723C92.523 87.5 92.3896 87.4573 92.2723 87.372C92.1656 87.2867 91.979 87.068 91.7123 86.716C91.4456 86.364 90.9923 85.7293 90.3523 84.812L90.0643 84.396C89.6376 83.788 89.323 83.3667 89.1203 83.132C88.9283 82.8867 88.7256 82.716 88.5123 82.62C88.299 82.5133 88.0163 82.46 87.6643 82.46H87.6003V86.204C87.6003 86.524 87.6323 86.764 87.6963 86.924C87.7603 87.0733 87.8776 87.1747 88.0483 87.228C88.219 87.2813 88.4963 87.308 88.8803 87.308C88.9123 87.308 88.9283 87.34 88.9283 87.404C88.9283 87.468 88.9123 87.5 88.8803 87.5C88.5176 87.5 88.2296 87.4947 88.0163 87.484L86.7523 87.468L85.6003 87.484C85.3976 87.4947 85.1203 87.5 84.7683 87.5C84.7363 87.5 84.7203 87.468 84.7203 87.404C84.7203 87.34 84.7363 87.308 84.7683 87.308C85.1523 87.308 85.4296 87.2813 85.6003 87.228C85.7816 87.1747 85.9043 87.0733 85.9683 86.924C86.0323 86.764 86.0643 86.524 86.0643 86.204V78.796C86.0643 78.476 86.0323 78.2413 85.9683 78.092C85.9043 77.9427 85.7816 77.8413 85.6003 77.788C85.4296 77.724 85.1576 77.692 84.7843 77.692C84.7523 77.692 84.7363 77.66 84.7363 77.596C84.7363 77.532 84.7523 77.5 84.7843 77.5L85.6163 77.516C86.0856 77.5373 86.4643 77.548 86.7523 77.548C87.0936 77.548 87.5203 77.5373 88.0323 77.516L88.8803 77.5C88.9123 77.5 88.9283 77.532 88.9283 77.596C88.9283 77.66 88.9123 77.692 88.8803 77.692C88.507 77.692 88.2296 77.724 88.0483 77.788C87.8776 77.852 87.7603 77.964 87.6963 78.124C87.6323 78.2733 87.6003 78.508 87.6003 78.828V82.188C87.8883 82.1773 88.2456 82.172 88.6723 82.172H88.7843L90.5443 79.74C90.9923 79.1213 91.2163 78.6307 91.2163 78.268C91.2163 77.884 90.9816 77.692 90.5123 77.692C90.491 77.692 90.4803 77.66 90.4803 77.596C90.4803 77.532 90.491 77.5 90.5123 77.5L91.2323 77.516C91.6803 77.5373 92.0856 77.548 92.4483 77.548C92.843 77.548 93.2536 77.5373 93.6803 77.516L94.3363 77.5C94.3683 77.5 94.3843 77.532 94.3843 77.596C94.3843 77.66 94.3683 77.692 94.3363 77.692C93.835 77.692 93.3176 77.852 92.7843 78.172C92.251 78.492 91.7656 78.9293 91.3283 79.484L89.1843 82.188C89.547 82.22 89.851 82.3053 90.0963 82.444C90.3416 82.5827 90.5816 82.796 90.8163 83.084C91.0616 83.3613 91.419 83.8307 91.8883 84.492C92.443 85.26 92.8536 85.8147 93.1203 86.156C93.3976 86.4973 93.6856 86.7747 93.9843 86.988C94.2936 87.1907 94.6296 87.2973 94.9923 87.308Z" fill="white"/>
<path d="M70.0547 89.1H94.9443V89.9H70.0547V89.1Z" fill="white"/>
<path d="M152.257 60.51C152.291 60.51 152.324 60.5067 152.357 60.5001L152.372 60.5H161.952C162.499 60.5 163.133 60.9628 163.659 62.0285C164.17 63.0627 164.5 64.5269 164.5 66.1728V97.8372C164.5 99.4779 164.17 100.94 163.659 101.973C163.133 103.037 162.499 103.5 161.952 103.5H152.386L152.38 103.499C152.372 103.498 152.354 103.496 152.335 103.494C152.315 103.492 152.288 103.49 152.257 103.49C152.224 103.49 152.191 103.493 152.158 103.5L152.143 103.5H124.048C123.501 103.5 122.867 103.037 122.341 101.973C121.83 100.94 121.5 99.4779 121.5 97.8372V66.1728C121.5 64.5269 121.83 63.0627 122.341 62.0285C122.867 60.9628 123.501 60.5 124.048 60.5H152.129L152.135 60.5008L152.137 60.501C152.145 60.5021 152.162 60.5043 152.18 60.506C152.2 60.508 152.227 60.51 152.257 60.51Z" fill="url(#paint16_linear_238_10841)" stroke="url(#paint17_linear_238_10841)" stroke-linecap="round" stroke-linejoin="round"/>
<path d="M143 75V89" stroke="white" stroke-width="2" stroke-linecap="round" stroke-linejoin="round"/>
<path d="M136 82H150" stroke="white" stroke-width="2" stroke-linecap="round" stroke-linejoin="round"/>
<path d="M297.505 60.51C297.517 60.51 297.529 60.5096 297.54 60.5088C297.662 60.5002 297.787 60.5 297.932 60.5H333.638C336.709 60.5 339.465 61.1767 341.434 62.2464C343.423 63.3266 344.5 64.7367 344.5 66.1728V97.8372C344.5 99.2678 343.423 100.675 341.434 101.755C339.465 102.823 336.709 103.5 333.638 103.5H297.932C297.871 103.5 297.809 103.498 297.736 103.495C297.709 103.494 297.681 103.493 297.651 103.492C297.604 103.491 297.555 103.49 297.505 103.49C297.493 103.49 297.482 103.49 297.47 103.491C297.348 103.5 297.223 103.5 297.078 103.5H192.362C189.291 103.5 186.535 102.823 184.566 101.755C182.577 100.675 181.5 99.2678 181.5 97.8372V66.1728C181.5 64.7367 182.577 63.3266 184.566 62.2464C186.535 61.1767 189.291 60.5 192.362 60.5H297.078C297.139 60.5 297.202 60.5021 297.274 60.5047L297.278 60.5048C297.347 60.5072 297.425 60.51 297.505 60.51Z" fill="url(#paint18_linear_238_10841)" stroke="url(#paint19_linear_238_10841)" stroke-linecap="round" stroke-linejoin="round"/>
<path d="M212.257 60.51C212.291 60.51 212.324 60.5067 212.357 60.5001L212.372 60.5H221.952C222.499 60.5 223.133 60.9628 223.659 62.0285C224.17 63.0627 224.5 64.5269 224.5 66.1728V97.8372C224.5 99.4779 224.17 100.94 223.659 101.973C223.133 103.037 222.499 103.5 221.952 103.5H212.386L212.38 103.499C212.372 103.498 212.354 103.496 212.335 103.494C212.315 103.492 212.288 103.49 212.257 103.49C212.224 103.49 212.191 103.493 212.158 103.5L212.143 103.5H184.048C183.501 103.5 182.867 103.037 182.341 101.973C181.83 100.94 181.5 99.4779 181.5 97.8372V66.1728C181.5 64.5269 181.83 63.0627 182.341 62.0285C182.867 60.9628 183.501 60.5 184.048 60.5H212.129L212.135 60.5008L212.137 60.501C212.145 60.5021 212.162 60.5043 212.18 60.506C212.2 60.508 212.227 60.51 212.257 60.51Z" fill="url(#paint20_linear_238_10841)" stroke="url(#paint21_linear_238_10841)" stroke-linecap="round" stroke-linejoin="round"/>
<path d="M196 82H210" stroke="white" stroke-width="2" stroke-linecap="round" stroke-linejoin="round"/>
<path d="M247.379 87.5C247.358 87.5 247.347 87.468 247.347 87.404C247.347 87.34 247.358 87.308 247.379 87.308C247.848 87.308 248.2 87.2813 248.435 87.228C248.68 87.164 248.856 87.0573 248.963 86.908C249.07 86.748 249.123 86.5133 249.123 86.204V80.252C249.123 79.5267 248.952 79.164 248.611 79.164C248.355 79.164 247.944 79.3667 247.379 79.772L247.347 79.788C247.304 79.788 247.272 79.7667 247.251 79.724C247.23 79.6707 247.23 79.6333 247.251 79.612L250.339 77.388C250.382 77.3667 250.419 77.356 250.451 77.356C250.472 77.356 250.494 77.3667 250.515 77.388C250.536 77.4093 250.547 77.4307 250.547 77.452V86.204C250.547 86.524 250.595 86.7587 250.691 86.908C250.787 87.0573 250.952 87.164 251.187 87.228C251.432 87.2813 251.795 87.308 252.275 87.308C252.307 87.308 252.323 87.34 252.323 87.404C252.323 87.468 252.307 87.5 252.275 87.5C251.848 87.5 251.512 87.4947 251.267 87.484L249.827 87.468L248.435 87.484C248.179 87.4947 247.827 87.5 247.379 87.5ZM256.813 87.708C256.12 87.708 255.517 87.5 255.005 87.084C254.504 86.6573 254.114 86.0547 253.837 85.276C253.57 84.4867 253.437 83.5587 253.437 82.492C253.437 81.436 253.57 80.5187 253.837 79.74C254.114 78.9613 254.509 78.364 255.021 77.948C255.544 77.5213 256.152 77.308 256.845 77.308C257.528 77.308 258.114 77.5213 258.605 77.948C259.106 78.364 259.49 78.9667 259.757 79.756C260.024 80.5453 260.157 81.4733 260.157 82.54C260.157 83.596 260.018 84.5133 259.741 85.292C259.474 86.0707 259.09 86.668 258.589 87.084C258.088 87.5 257.496 87.708 256.813 87.708ZM257.005 87.404C257.538 87.404 257.922 87.0307 258.157 86.284C258.402 85.5267 258.525 84.3427 258.525 82.732C258.525 80.9507 258.37 79.6493 258.061 78.828C257.752 78.0067 257.288 77.596 256.669 77.596C256.125 77.596 255.72 77.9907 255.453 78.78C255.197 79.5587 255.069 80.7587 255.069 82.38C255.069 84.0867 255.224 85.3507 255.533 86.172C255.853 86.9933 256.344 87.404 257.005 87.404ZM264.829 87.708C264.135 87.708 263.533 87.5 263.021 87.084C262.519 86.6573 262.13 86.0547 261.853 85.276C261.586 84.4867 261.453 83.5587 261.453 82.492C261.453 81.436 261.586 80.5187 261.853 79.74C262.13 78.9613 262.525 78.364 263.037 77.948C263.559 77.5213 264.167 77.308 264.861 77.308C265.543 77.308 266.13 77.5213 266.621 77.948C267.122 78.364 267.506 78.9667 267.773 79.756C268.039 80.5453 268.173 81.4733 268.173 82.54C268.173 83.596 268.034 84.5133 267.757 85.292C267.49 86.0707 267.106 86.668 266.605 87.084C266.103 87.5 265.511 87.708 264.829 87.708ZM265.021 87.404C265.554 87.404 265.938 87.0307 266.173 86.284C266.418 85.5267 266.541 84.3427 266.541 82.732C266.541 80.9507 266.386 79.6493 266.077 78.828C265.767 78.0067 265.303 77.596 264.685 77.596C264.141 77.596 263.735 77.9907 263.469 78.78C263.213 79.5587 263.085 80.7587 263.085 82.38C263.085 84.0867 263.239 85.3507 263.549 86.172C263.869 86.9933 264.359 87.404 265.021 87.404ZM279.5 87.308C279.521 87.308 279.532 87.34 279.532 87.404C279.532 87.468 279.521 87.5 279.5 87.5H277.18C277.031 87.5 276.897 87.4573 276.78 87.372C276.673 87.2867 276.487 87.068 276.22 86.716C275.953 86.364 275.5 85.7293 274.86 84.812L274.572 84.396C274.145 83.788 273.831 83.3667 273.628 83.132C273.436 82.8867 273.233 82.716 273.02 82.62C272.807 82.5133 272.524 82.46 272.172 82.46H272.108V86.204C272.108 86.524 272.14 86.764 272.204 86.924C272.268 87.0733 272.385 87.1747 272.556 87.228C272.727 87.2813 273.004 87.308 273.388 87.308C273.42 87.308 273.436 87.34 273.436 87.404C273.436 87.468 273.42 87.5 273.388 87.5C273.025 87.5 272.737 87.4947 272.524 87.484L271.26 87.468L270.108 87.484C269.905 87.4947 269.628 87.5 269.276 87.5C269.244 87.5 269.228 87.468 269.228 87.404C269.228 87.34 269.244 87.308 269.276 87.308C269.66 87.308 269.937 87.2813 270.108 87.228C270.289 87.1747 270.412 87.0733 270.476 86.924C270.54 86.764 270.572 86.524 270.572 86.204V78.796C270.572 78.476 270.54 78.2413 270.476 78.092C270.412 77.9427 270.289 77.8413 270.108 77.788C269.937 77.724 269.665 77.692 269.292 77.692C269.26 77.692 269.244 77.66 269.244 77.596C269.244 77.532 269.26 77.5 269.292 77.5L270.124 77.516C270.593 77.5373 270.972 77.548 271.26 77.548C271.601 77.548 272.028 77.5373 272.54 77.516L273.388 77.5C273.42 77.5 273.436 77.532 273.436 77.596C273.436 77.66 273.42 77.692 273.388 77.692C273.015 77.692 272.737 77.724 272.556 77.788C272.385 77.852 272.268 77.964 272.204 78.124C272.14 78.2733 272.108 78.508 272.108 78.828V82.188C272.396 82.1773 272.753 82.172 273.18 82.172H273.292L275.052 79.74C275.5 79.1213 275.724 78.6307 275.724 78.268C275.724 77.884 275.489 77.692 275.02 77.692C274.999 77.692 274.988 77.66 274.988 77.596C274.988 77.532 274.999 77.5 275.02 77.5L275.74 77.516C276.188 77.5373 276.593 77.548 276.956 77.548C277.351 77.548 277.761 77.5373 278.188 77.516L278.844 77.5C278.876 77.5 278.892 77.532 278.892 77.596C278.892 77.66 278.876 77.692 278.844 77.692C278.343 77.692 277.825 77.852 277.292 78.172C276.759 78.492 276.273 78.9293 275.836 79.484L273.692 82.188C274.055 82.22 274.359 82.3053 274.604 82.444C274.849 82.5827 275.089 82.796 275.324 83.084C275.569 83.3613 275.927 83.8307 276.396 84.492C276.951 85.26 277.361 85.8147 277.628 86.156C277.905 86.4973 278.193 86.7747 278.492 86.988C278.801 87.1907 279.137 87.2973 279.5 87.308Z" fill="white"/>
<path d="M246.547 89.1H279.452V89.9H246.547V89.1Z" fill="white"/>
<path d="M332.257 60.51C332.291 60.51 332.324 60.5067 332.357 60.5001L332.372 60.5H341.952C342.499 60.5 343.133 60.9628 343.659 62.0285C344.17 63.0627 344.5 64.5269 344.5 66.1728V97.8372C344.5 99.4779 344.17 100.94 343.659 101.973C343.133 103.037 342.499 103.5 341.952 103.5H332.386L332.38 103.499C332.372 103.498 332.354 103.496 332.335 103.494C332.315 103.492 332.288 103.49 332.257 103.49C332.224 103.49 332.191 103.493 332.158 103.5L332.143 103.5H304.048C303.501 103.5 302.867 103.037 302.341 101.973C301.83 100.94 301.5 99.4779 301.5 97.8372V66.1728C301.5 64.5269 301.83 63.0627 302.341 62.0285C302.867 60.9628 303.501 60.5 304.048 60.5H332.129L332.135 60.5008L332.137 60.501C332.145 60.5021 332.162 60.5043 332.18 60.506C332.2 60.508 332.227 60.51 332.257 60.51Z" fill="url(#paint22_linear_238_10841)" stroke="url(#paint23_linear_238_10841)" stroke-linecap="round" stroke-linejoin="round"/>
<path d="M323 75V89" stroke="white" stroke-width="2" stroke-linecap="round" stroke-linejoin="round"/>
<path d="M316 82H330" stroke="white" stroke-width="2" stroke-linecap="round" stroke-linejoin="round"/>
<defs>
<linearGradient id="paint0_linear_238_10841" x1="82.5" y1="0" x2="82.5" y2="44" gradientUnits="userSpaceOnUse">
<stop stop-color="#4F1515"/>
<stop offset="1" stop-color="#380C0C"/>
</linearGradient>
<linearGradient id="paint1_linear_238_10841" x1="82.5089" y1="44.5002" x2="82.5089" y2="-0.500226" gradientUnits="userSpaceOnUse">
<stop offset="0.2" stop-color="#918789"/>
<stop offset="0.55" stop-color="#BBB0AE"/>
<stop offset="0.83" stop-color="#D7CCC8"/>
<stop offset="1" stop-color="#E2D7D2"/>
</linearGradient>
<linearGradient id="paint2_linear_238_10841" x1="22" y1="0" x2="22" y2="44" gradientUnits="userSpaceOnUse">
<stop stop-color="#381414"/>
<stop offset="1" stop-color="#1D0808"/>
</linearGradient>
<linearGradient id="paint3_linear_238_10841" x1="22.0024" y1="44.5002" x2="22.0024" y2="-0.500226" gradientUnits="userSpaceOnUse">
<stop offset="0.2" stop-color="#918789"/>
<stop offset="0.55" stop-color="#BBB0AE"/>
<stop offset="0.83" stop-color="#D7CCC8"/>
<stop offset="1" stop-color="#E2D7D2"/>
</linearGradient>
<linearGradient id="paint4_linear_238_10841" x1="143" y1="0" x2="143" y2="44" gradientUnits="userSpaceOnUse">
<stop stop-color="#381414"/>
<stop offset="1" stop-color="#1D0808"/>
</linearGradient>
<linearGradient id="paint5_linear_238_10841" x1="143.002" y1="44.5002" x2="143.002" y2="-0.500226" gradientUnits="userSpaceOnUse">
<stop offset="0.2" stop-color="#918789"/>
<stop offset="0.55" stop-color="#BBB0AE"/>
<stop offset="0.83" stop-color="#D7CCC8"/>
<stop offset="1" stop-color="#E2D7D2"/>
</linearGradient>
<linearGradient id="paint6_linear_238_10841" x1="263" y1="0" x2="263" y2="44" gradientUnits="userSpaceOnUse">
<stop stop-color="#4F1515"/>
<stop offset="1" stop-color="#380C0C"/>
</linearGradient>
<linearGradient id="paint7_linear_238_10841" x1="263.009" y1="44.5002" x2="263.009" y2="-0.500226" gradientUnits="userSpaceOnUse">
<stop offset="0.2" stop-color="#918789"/>
<stop offset="0.55" stop-color="#BBB0AE"/>
<stop offset="0.83" stop-color="#D7CCC8"/>
<stop offset="1" stop-color="#E2D7D2"/>
</linearGradient>
<linearGradient id="paint8_linear_238_10841" x1="203" y1="0" x2="203" y2="44" gradientUnits="userSpaceOnUse">
<stop stop-color="#381414"/>
<stop offset="1" stop-color="#1D0808"/>
</linearGradient>
<linearGradient id="paint9_linear_238_10841" x1="203.002" y1="44.5002" x2="203.002" y2="-0.500226" gradientUnits="userSpaceOnUse">
<stop offset="0.2" stop-color="#918789"/>
<stop offset="0.55" stop-color="#BBB0AE"/>
<stop offset="0.83" stop-color="#D7CCC8"/>
<stop offset="1" stop-color="#E2D7D2"/>
</linearGradient>
<linearGradient id="paint10_linear_238_10841" x1="323" y1="0" x2="323" y2="44" gradientUnits="userSpaceOnUse">
<stop stop-color="#381414"/>
<stop offset="1" stop-color="#1D0808"/>
</linearGradient>
<linearGradient id="paint11_linear_238_10841" x1="323.002" y1="44.5002" x2="323.002" y2="-0.500226" gradientUnits="userSpaceOnUse">
<stop offset="0.2" stop-color="#918789"/>
<stop offset="0.55" stop-color="#BBB0AE"/>
<stop offset="0.83" stop-color="#D7CCC8"/>
<stop offset="1" stop-color="#E2D7D2"/>
</linearGradient>
<linearGradient id="paint12_linear_238_10841" x1="82.5" y1="60" x2="82.5" y2="104" gradientUnits="userSpaceOnUse">
<stop stop-color="#4F1515"/>
<stop offset="1" stop-color="#380C0C"/>
</linearGradient>
<linearGradient id="paint13_linear_238_10841" x1="82.5089" y1="104.5" x2="82.5089" y2="59.4998" gradientUnits="userSpaceOnUse">
<stop offset="0.2" stop-color="#918789"/>
<stop offset="0.55" stop-color="#BBB0AE"/>
<stop offset="0.83" stop-color="#D7CCC8"/>
<stop offset="1" stop-color="#E2D7D2"/>
</linearGradient>
<linearGradient id="paint14_linear_238_10841" x1="22" y1="60" x2="22" y2="104" gradientUnits="userSpaceOnUse">
<stop stop-color="#381414"/>
<stop offset="1" stop-color="#1D0808"/>
</linearGradient>
<linearGradient id="paint15_linear_238_10841" x1="22.0024" y1="104.5" x2="22.0024" y2="59.4998" gradientUnits="userSpaceOnUse">
<stop offset="0.2" stop-color="#918789"/>
<stop offset="0.55" stop-color="#BBB0AE"/>
<stop offset="0.83" stop-color="#D7CCC8"/>
<stop offset="1" stop-color="#E2D7D2"/>
</linearGradient>
<linearGradient id="paint16_linear_238_10841" x1="143" y1="60" x2="143" y2="104" gradientUnits="userSpaceOnUse">
<stop stop-color="#381414"/>
<stop offset="1" stop-color="#1D0808"/>
</linearGradient>
<linearGradient id="paint17_linear_238_10841" x1="143.002" y1="104.5" x2="143.002" y2="59.4998" gradientUnits="userSpaceOnUse">
<stop offset="0.2" stop-color="#918789"/>
<stop offset="0.55" stop-color="#BBB0AE"/>
<stop offset="0.83" stop-color="#D7CCC8"/>
<stop offset="1" stop-color="#E2D7D2"/>
</linearGradient>
<linearGradient id="paint18_linear_238_10841" x1="263" y1="60" x2="263" y2="104" gradientUnits="userSpaceOnUse">
<stop stop-color="#4F1515"/>
<stop offset="1" stop-color="#380C0C"/>
</linearGradient>
<linearGradient id="paint19_linear_238_10841" x1="263.009" y1="104.5" x2="263.009" y2="59.4998" gradientUnits="userSpaceOnUse">
<stop offset="0.2" stop-color="#918789"/>
<stop offset="0.55" stop-color="#BBB0AE"/>
<stop offset="0.83" stop-color="#D7CCC8"/>
<stop offset="1" stop-color="#E2D7D2"/>
</linearGradient>
<linearGradient id="paint20_linear_238_10841" x1="203" y1="60" x2="203" y2="104" gradientUnits="userSpaceOnUse">
<stop stop-color="#381414"/>
<stop offset="1" stop-color="#1D0808"/>
</linearGradient>
<linearGradient id="paint21_linear_238_10841" x1="203.002" y1="104.5" x2="203.002" y2="59.4998" gradientUnits="userSpaceOnUse">
<stop offset="0.2" stop-color="#918789"/>
<stop offset="0.55" stop-color="#BBB0AE"/>
<stop offset="0.83" stop-color="#D7CCC8"/>
<stop offset="1" stop-color="#E2D7D2"/>
</linearGradient>
<linearGradient id="paint22_linear_238_10841" x1="323" y1="60" x2="323" y2="104" gradientUnits="userSpaceOnUse">
<stop stop-color="#381414"/>
<stop offset="1" stop-color="#1D0808"/>
</linearGradient>
<linearGradient id="paint23_linear_238_10841" x1="323.002" y1="104.5" x2="323.002" y2="59.4998" gradientUnits="userSpaceOnUse">
<stop offset="0.2" stop-color="#918789"/>
<stop offset="0.55" stop-color="#BBB0AE"/>
<stop offset="0.83" stop-color="#D7CCC8"/>
<stop offset="1" stop-color="#E2D7D2"/>
</linearGradient>
</defs>
</svg>
