<svg width="393.000000" height="126.000000" viewBox="0 0 393 126" fill="none" xmlns="http://www.w3.org/2000/svg" xmlns:xlink="http://www.w3.org/1999/xlink">
	<desc>
			Created with Pixso.
	</desc>
	<defs>
		<linearGradient x1="196.500015" y1="142.324341" x2="196.500015" y2="30.476685" id="paint_linear_63_45809_0" gradientUnits="userSpaceOnUse">
			<stop stop-color="#80776D"/>
			<stop offset="0.220000" stop-color="#918789"/>
			<stop offset="0.550000" stop-color="#BBB0AE"/>
			<stop offset="0.840000" stop-color="#D7CCC8"/>
			<stop offset="1.000000" stop-color="#E2D7D2"/>
		</linearGradient>
		<linearGradient x1="5.664429" y1="3.873352" x2="392.067627" y2="3.873352" id="paint_linear_63_45810_0" gradientUnits="userSpaceOnUse">
			<stop stop-color="#918789"/>
			<stop offset="0.210000" stop-color="#BBB0AE"/>
			<stop offset="0.390000" stop-color="#D7CCC8"/>
			<stop offset="0.490000" stop-color="#E2D7D2"/>
			<stop offset="1.000000" stop-color="#918789"/>
		</linearGradient>
		<linearGradient x1="-28.091476" y1="122.126556" x2="-27.088926" y2="122.126556" id="paint_linear_63_45811_0" gradientUnits="userSpaceOnUse">
			<stop stop-color="#918789"/>
			<stop offset="0.210000" stop-color="#BBB0AE"/>
			<stop offset="0.390000" stop-color="#D7CCC8"/>
			<stop offset="0.490000" stop-color="#E2D7D2"/>
			<stop offset="1.000000" stop-color="#918789"/>
		</linearGradient>
	</defs>
	<path id="Vector" d="M392.99 0.76L0 0.76L0 121.07L392.99 121.07L392.99 0.76Z" fill="url(#paint_linear_63_45809_0)" fill-opacity="1.000000" fill-rule="nonzero"/>
	<path id="Vector" d="M392.99 0.76L392.99 121.07L0 121.07L0 0.76L392.99 0.76Z" stroke="#000000" stroke-opacity="0" stroke-width="1.000000" stroke-linejoin="round"/>
	<path id="Vector" d="M393 7.73C290.85 7.73 188.73 7.73 86.59 7.73L81.1 7.73C79.46 7.73 77.81 7.73 76.18 7.73L0 7.73L0 0L392.99 0L392.99 7.73L393 7.73Z" fill="url(#paint_linear_63_45810_0)" fill-opacity="1.000000" fill-rule="nonzero"/>
	<path id="Vector" d="M86.59 7.73L81.1 7.73C79.46 7.73 77.81 7.73 76.18 7.73L0 7.73L0 0L392.99 0L392.99 7.73L393 7.73C290.85 7.73 188.73 7.73 86.59 7.73Z" stroke="#000000" stroke-opacity="0" stroke-width="1.000000" stroke-linejoin="round"/>
	<path id="Vector" d="M393 126C290.85 126 188.73 126 86.59 126L81.1 126C79.46 126 77.81 126 76.18 126L0 126L0 118.26L392.99 118.26L392.99 126L393 126Z" fill="url(#paint_linear_63_45811_0)" fill-opacity="1.000000" fill-rule="nonzero"/>
	<path id="Vector" d="M86.59 126L81.1 126C79.46 126 77.81 126 76.18 126L0 126L0 118.26L392.99 118.26L392.99 126L393 126C290.85 126 188.73 126 86.59 126Z" stroke="#000000" stroke-opacity="0" stroke-width="1.000000" stroke-linejoin="round"/>
	<g opacity="0.320000">
		<path id="Vector" d="M0 33.22C1.02 30.45 2.77 26.61 5.83 22.69C16.52 9.02 33.81 6.43 42.2 5.29C69.67 1.57 78.96 13.51 103.59 7.56C111.99 5.53 118.47 2.32 122.54 0C81.69 0.02 40.84 0.06 0 0.08L0 33.21L0 33.22Z" fill="#270D1D" fill-opacity="1.000000" fill-rule="nonzero"/>
	</g>
	<g opacity="0.320000">
		<path id="Vector" d="M0 125.56C61.93 116.19 135.3 109.67 217.65 111.19C280.44 112.34 337.46 117.97 387.62 125.56L0 125.56Z" fill="#270D1D" fill-opacity="1.000000" fill-rule="nonzero"/>
	</g>
</svg>
