<svg width="393" height="126" viewBox="0 0 393 126" fill="none" xmlns="http://www.w3.org/2000/svg">
<path d="M196.455 45.4199C196.455 45.4199 196.385 45.4199 196.345 45.4199V45.3999C196.345 45.3999 196.425 45.3999 196.455 45.3999V45.4199Z" fill="url(#paint0_linear_23_4440)" stroke="black" stroke-linecap="round" stroke-linejoin="round"/>
<path d="M196.555 45.4302C196.555 45.4302 196.485 45.4302 196.455 45.4302C196.485 45.4302 196.515 45.4302 196.555 45.4302Z" fill="url(#paint1_linear_23_4440)"/>
<path d="M196.555 45.4102V45.4302M196.555 45.4302C196.555 45.4302 196.485 45.4302 196.455 45.4302C196.485 45.4302 196.515 45.4302 196.555 45.4302Z" stroke="black" stroke-linecap="round" stroke-linejoin="round"/>
<path d="M392.88 125C375.515 106.15 345.668 78.6101 299.941 55.4701C264.069 37.3101 230.422 27.9401 205.859 22.8701C189.958 25.9101 166.859 30.7001 139.368 37.8001C93.1193 49.7401 69.5688 55.9901 48.7052 69.6001C35.7418 78.0601 15.0988 94.5601 0.0100098 125V0.0800781H392.88V125Z" fill="url(#paint2_linear_23_4440)" stroke="black" stroke-linecap="round" stroke-linejoin="round"/>
<path d="M279.959 38.4498C261.161 30.3098 257.682 24.9498 258.254 21.4998C260.289 9.20984 315.862 7.77984 342.851 8.89984C363.584 9.75984 373.46 12.3798 380.518 18.3698C392.649 28.6598 392.99 45.8698 392.99 44.6498C392.99 29.8198 392.99 14.9898 393 0.169844C333.326 0.139844 273.653 0.119844 213.98 0.0898438C215.975 2.01984 218.09 3.93984 220.316 5.84984C239.265 22.0898 260.72 32.1198 279.959 38.4598V38.4498Z" fill="url(#paint3_linear_23_4440)" stroke="black" stroke-linecap="round" stroke-linejoin="round"/>
<path d="M113.04 38.3598C131.839 30.2198 135.318 24.8598 134.746 21.4098C132.711 9.11977 77.1382 7.68977 50.1489 8.80977C29.4156 9.66977 19.5402 12.2898 12.4821 18.2798C0.360912 28.5798 0.0200355 45.7798 0.0200355 44.5698C0.0200355 29.7398 0.0200355 14.9098 0.0100098 0.0897656C59.6834 0.0597656 119.357 0.0397656 179.03 0.00976562C177.035 1.93977 174.92 3.85977 172.694 5.76977C153.745 22.0098 132.29 32.0398 113.051 38.3798L113.04 38.3598Z" fill="url(#paint4_linear_23_4440)" stroke="black" stroke-linecap="round" stroke-linejoin="round"/>
<path d="M392.88 45.41V125C385.019 123.72 373.7 121.05 362.161 114.89C346.801 106.68 340.134 97.11 333.256 89.43C296.051 47.9 232.548 38.9 229.6 38.52C216.055 36.76 204.506 37.06 196.555 37.66C196.515 37.66 196.485 37.66 196.455 37.66C196.425 37.66 196.385 37.66 196.345 37.66C188.394 37.06 176.854 36.76 163.3 38.52C160.352 38.9 96.8489 47.9 59.6432 89.43C52.7656 97.11 46.0984 106.68 30.739 114.89C19.1993 121.05 7.88022 123.72 0.0200195 125V45.41C20.8536 48.86 81.6699 56.47 138.927 27.75C156.121 19.12 169.255 9.1 179.02 0H213.86C223.635 9.1 236.758 19.12 253.963 27.75C311.22 56.47 372.026 48.86 392.87 45.41H392.88Z" fill="url(#paint5_linear_23_4440)" stroke="black" stroke-linecap="round" stroke-linejoin="round"/>
<path d="M199.924 0C211.714 10.06 226.402 20.57 244.308 29.67C303.39 59.73 361.118 56.06 389.521 52.09" stroke="black" stroke-linecap="round" stroke-linejoin="round"/>
<path d="M219.665 37.5402C222.502 36.5002 226.793 35.2302 232.137 34.7502C244.137 33.6802 253.612 37.3402 259.216 39.5702C289.334 51.5602 304.382 57.5602 308.964 60.4002C346.631 83.8202 349.989 108.86 382.754 114.88C387.065 115.67 390.664 115.92 392.88 116" stroke="black" stroke-linecap="round" stroke-linejoin="round"/>
<path d="M192.976 0C181.206 10.06 166.518 20.58 148.592 29.67C89.3494 59.76 31.4205 55.76 3.18799 51.68" stroke="black" stroke-linecap="round" stroke-linejoin="round"/>
<path d="M173.235 37.5402C172.223 36.4802 170.588 35.0302 168.172 33.9502C160.232 30.3902 150.517 33.7202 146.075 35.3102C110.785 47.8802 93.1293 54.1702 83.9257 60.4102C47.3617 85.2002 42.8601 108.99 10.136 114.89C5.91519 115.65 2.34601 115.91 0.0100098 116.01" stroke="black" stroke-linecap="round" stroke-linejoin="round"/>
<path d="M220.446 30.7599C220.105 28.1699 219.885 24.0499 221.068 19.1999C222.131 14.8199 223.935 11.5099 225.299 9.41992C223.534 10.0199 220.727 11.2299 217.94 13.6599C215.524 15.7699 214.05 17.9899 213.208 19.5199C215.624 23.2699 218.03 27.0199 220.446 30.7699V30.7599Z" fill="url(#paint6_linear_23_4440)"/>
<mask id="mask0_23_4440" style="mask-type:luminance" maskUnits="userSpaceOnUse" x="213" y="9" width="13" height="22">
<path d="M220.446 30.7599C220.105 28.1699 219.885 24.0499 221.068 19.1999C222.131 14.8199 223.935 11.5099 225.299 9.41992C223.534 10.0199 220.727 11.2299 217.94 13.6599C215.524 15.7699 214.05 17.9899 213.208 19.5199C215.624 23.2699 218.03 27.0199 220.446 30.7699V30.7599Z" fill="white"/>
</mask>
<g mask="url(#mask0_23_4440)">
<path opacity="0.43" d="M216.436 23.5998C216.677 22.3998 217.038 21.0798 217.589 19.6898C219.514 14.8698 222.742 11.7698 224.878 10.0698C223.204 16.4798 221.519 22.8998 219.845 29.3098C218.712 27.3998 217.569 25.4998 216.436 23.5898V23.5998Z" fill="#270D1D"/>
</g>
<path d="M220.446 30.7599C220.105 28.1699 219.885 24.0499 221.068 19.1999C222.131 14.8199 223.935 11.5099 225.299 9.41992C223.534 10.0199 220.727 11.2299 217.94 13.6599C215.524 15.7699 214.05 17.9899 213.208 19.5199C215.624 23.2699 218.03 27.0199 220.446 30.7699V30.7599Z" stroke="black" stroke-width="0.89" stroke-linecap="round" stroke-linejoin="round"/>
<path d="M172.252 31.0102C172.563 28.4202 172.734 24.2902 171.511 19.4602C170.398 15.0902 168.563 11.8102 167.179 9.72021C168.954 10.3002 171.771 11.4802 174.578 13.8802C177.015 15.9602 178.509 18.1702 179.371 19.6902C176.995 23.4702 174.629 27.2402 172.252 31.0202V31.0102Z" fill="url(#paint7_linear_23_4440)"/>
<mask id="mask1_23_4440" style="mask-type:luminance" maskUnits="userSpaceOnUse" x="167" y="9" width="13" height="23">
<path d="M172.252 31.0102C172.563 28.4202 172.734 24.2902 171.511 19.4602C170.398 15.0902 168.563 11.8102 167.179 9.72021C168.954 10.3002 171.771 11.4802 174.578 13.8802C177.015 15.9602 178.509 18.1702 179.371 19.6902C176.995 23.4702 174.629 27.2402 172.252 31.0202V31.0102Z" fill="white"/>
</mask>
<g mask="url(#mask1_23_4440)">
<path opacity="0.43" d="M176.183 23.8101C175.932 22.6101 175.561 21.3001 174.99 19.9101C173.015 15.1101 169.746 12.0501 167.591 10.3701C169.335 16.7701 171.09 23.1601 172.834 29.5601C173.947 27.6401 175.07 25.7201 176.183 23.8001V23.8101Z" fill="#270D1D"/>
</g>
<path d="M172.252 31.0102C172.563 28.4202 172.734 24.2902 171.511 19.4602C170.398 15.0902 168.563 11.8102 167.179 9.72021C168.954 10.3002 171.771 11.4802 174.578 13.8802C177.015 15.9602 178.509 18.1702 179.371 19.6902C176.995 23.4702 174.629 27.2402 172.252 31.0202V31.0102Z" stroke="black" stroke-width="0.89" stroke-linecap="round" stroke-linejoin="round"/>
<path d="M221.569 37.3103C221.259 34.8203 209.127 35.3103 196.324 36.5403L196.475 65.0503C199.833 64.8903 203.182 64.3903 205.969 63.6303C212.747 61.7903 222.241 42.6303 221.569 37.3103Z" fill="url(#paint8_linear_23_4440)" stroke="black" stroke-width="0.89" stroke-linecap="round" stroke-linejoin="round"/>
<path d="M171.2 37.5803C171.491 35.0803 183.622 35.4503 196.435 36.5403L196.585 65.0504C193.227 64.9303 189.878 64.4604 187.081 63.7304C180.283 61.9604 170.588 42.9103 171.2 37.5803Z" fill="url(#paint9_linear_23_4440)" stroke="black" stroke-width="0.89" stroke-linecap="round" stroke-linejoin="round"/>
<path d="M168.192 49.5502C170.248 52.3802 178.128 62.6702 188.825 63.4402C191.623 63.6402 192.064 63.0202 192.144 62.8302C193.076 60.5102 176.714 52.0002 171.862 40.2302C166.849 28.0502 189.347 9.11016 196.154 3.74016V3.66016C196.154 3.66016 196.184 3.69016 196.204 3.70016C196.224 3.69016 196.234 3.67016 196.255 3.66016V3.74016C203.122 9.04016 225.821 27.7402 220.938 39.9802C216.216 51.8002 199.944 60.4802 200.906 62.7902C201.027 63.0702 201.538 63.5802 204.225 63.3602C214.862 62.4802 222.953 52.9202 225.419 49.7902C225.58 51.9302 225.57 56.1202 223.274 60.5102C222.301 62.3702 221.159 63.8002 220.156 64.8602C218.752 64.7902 203.513 64.2102 197.989 73.7402C197.317 74.9002 196.696 76.3702 196.345 78.1902C195.332 72.2402 191.462 67.7402 186.72 66.8602C184.063 66.3702 181.747 67.1302 180.374 67.7502C178.9 67.1102 177.256 66.1902 175.652 64.8502C169.396 59.6402 168.393 51.9902 168.182 49.5502H168.192Z" fill="url(#paint10_linear_23_4440)"/>
<mask id="mask2_23_4440" style="mask-type:luminance" maskUnits="userSpaceOnUse" x="168" y="3" width="58" height="76">
<path d="M168.192 49.5502C170.248 52.3802 178.128 62.6702 188.825 63.4402C191.623 63.6402 192.064 63.0202 192.144 62.8302C193.076 60.5102 176.714 52.0002 171.862 40.2302C166.849 28.0502 189.347 9.11016 196.154 3.74016V3.66016C196.154 3.66016 196.184 3.69016 196.204 3.70016C196.224 3.69016 196.234 3.67016 196.255 3.66016V3.74016C203.122 9.04016 225.821 27.7402 220.938 39.9802C216.216 51.8002 199.944 60.4802 200.906 62.7902C201.027 63.0702 201.538 63.5802 204.225 63.3602C214.862 62.4802 222.953 52.9202 225.419 49.7902C225.58 51.9302 225.57 56.1202 223.274 60.5102C222.301 62.3702 221.159 63.8002 220.156 64.8602C218.752 64.7902 203.513 64.2102 197.989 73.7402C197.317 74.9002 196.696 76.3702 196.345 78.1902C195.332 72.2402 191.462 67.7402 186.72 66.8602C184.063 66.3702 181.747 67.1302 180.374 67.7502C178.9 67.1102 177.256 66.1902 175.652 64.8502C169.396 59.6402 168.393 51.9902 168.182 49.5502H168.192Z" fill="white"/>
</mask>
<g mask="url(#mask2_23_4440)">
<path d="M196.325 17.4102C201.337 20.5702 206.731 24.3902 212.265 28.9802C215.534 31.7002 218.512 34.4002 221.208 37.0402C221.549 34.5402 224.286 12.4102 209.679 0.67023C207.644 -0.969769 202.36 -5.20977 195.352 -4.97977C183.07 -4.57977 174.148 9.26023 171.39 19.8102C169.486 27.0902 170.358 33.4202 171.16 37.0902C175.321 33.9702 179.531 30.7602 183.782 27.4402C188.083 24.0802 192.264 20.7402 196.335 17.4102H196.325Z" fill="url(#paint11_linear_23_4440)"/>
</g>
<path d="M168.192 49.5502C170.248 52.3802 178.128 62.6702 188.825 63.4402C191.623 63.6402 192.064 63.0202 192.144 62.8302C193.076 60.5102 176.714 52.0002 171.862 40.2302C166.849 28.0502 189.347 9.11016 196.154 3.74016V3.66016C196.154 3.66016 196.184 3.69016 196.204 3.70016C196.224 3.69016 196.234 3.67016 196.255 3.66016V3.74016C203.122 9.04016 225.821 27.7402 220.938 39.9802C216.216 51.8002 199.944 60.4802 200.906 62.7902C201.027 63.0702 201.538 63.5802 204.225 63.3602C214.862 62.4802 222.953 52.9202 225.419 49.7902C225.58 51.9302 225.57 56.1202 223.274 60.5102C222.301 62.3702 221.159 63.8002 220.156 64.8602C218.752 64.7902 203.513 64.2102 197.989 73.7402C197.317 74.9002 196.696 76.3702 196.345 78.1902C195.332 72.2402 191.462 67.7402 186.72 66.8602C184.063 66.3702 181.747 67.1302 180.374 67.7502C178.9 67.1102 177.256 66.1902 175.652 64.8502C169.396 59.6402 168.393 51.9902 168.182 49.5502H168.192Z" stroke="black" stroke-width="0.89" stroke-linecap="round" stroke-linejoin="round"/>
<path d="M196.264 17.4501V17.3901C196.264 17.3901 196.304 17.4101 196.335 17.4201C196.355 17.4201 196.375 17.4001 196.405 17.3901V17.4501C202.41 20.0401 208.315 29.2901 207.614 36.4101C206.992 42.7401 200.876 48.0101 196.585 50.3201V50.3901C196.585 50.3901 196.545 50.3701 196.515 50.3501C196.495 50.3601 196.475 50.3801 196.445 50.3901V50.3201C192.124 48.0601 185.958 42.8401 185.266 36.5201C184.484 29.4101 190.289 20.1001 196.274 17.4501H196.264Z" fill="url(#paint12_radial_23_4440)" stroke="black" stroke-width="0.89" stroke-linecap="round" stroke-linejoin="round"/>
<path d="M230.673 72.0599C218.06 72.4699 216.166 78.9499 216.166 78.9499C219.945 77.7999 228.357 78.3199 236.267 79.1999C245.361 80.2099 253.772 81.6999 253.772 81.6999C253.772 81.6999 253.752 81.6999 253.742 81.6799C253.181 81.1299 242.934 71.6499 230.663 72.0499L230.673 72.0599Z" fill="url(#paint13_linear_23_4440)" stroke="black" stroke-linecap="round" stroke-linejoin="round"/>
<path d="M392.9 80.9602C385.049 73.7302 373.329 65.4602 358.1 62.2302C339.783 58.3502 330.228 64.6802 330.108 64.8402C315.922 70.5402 303.359 74.5002 293.223 77.2702C275.859 82.0302 265.382 83.3802 253.782 81.7102C253.772 81.7102 253.752 81.7102 253.742 81.7102C251.677 81.4102 249.681 80.7602 247.817 79.8402C232.658 72.3602 224.256 73.5102 219.333 76.2002C210.15 81.2102 204.124 96.7802 201.387 94.9802C201.237 94.8802 201.046 94.7302 200.876 94.5302C197.848 91.2902 192.404 76.1602 201.026 70.1902C206.621 66.3202 212.566 65.1702 216.316 64.9002C218.672 64.7102 220.166 64.8602 220.166 64.8602C220.918 63.3702 222.271 61.0002 224.487 58.5502C232.567 49.6002 245.852 46.4402 246.553 47.7302C246.583 47.7802 246.594 47.8602 246.573 47.9702C245.37 48.9702 243.736 50.5702 242.393 52.9102C239.726 57.5502 239.054 63.6402 240.779 67.2902C244.989 76.1702 265.091 74.1202 265.973 74.0202C293.604 70.9502 299.169 46.2502 325.316 41.2202C332.705 39.8002 343.623 39.5802 358.12 45.7902C354.491 45.9902 346.56 46.9202 338.73 52.3502C333.727 55.8302 330.619 59.8502 328.855 62.5802C332.665 59.1902 346.45 47.7202 366.893 47.5402C378.753 47.4402 387.917 51.1802 392.869 53.6702C392.869 62.7702 392.89 71.8702 392.89 80.9702L392.9 80.9602Z" fill="url(#paint14_linear_23_4440)"/>
<mask id="mask3_23_4440" style="mask-type:luminance" maskUnits="userSpaceOnUse" x="196" y="40" width="197" height="56">
<path d="M392.9 80.9602C385.049 73.7302 373.329 65.4602 358.1 62.2302C339.783 58.3502 330.228 64.6802 330.108 64.8402C315.922 70.5402 303.359 74.5002 293.223 77.2702C275.859 82.0302 265.382 83.3802 253.782 81.7102C253.772 81.7102 253.752 81.7102 253.742 81.7102C251.677 81.4102 249.681 80.7602 247.817 79.8402C232.658 72.3602 224.256 73.5102 219.333 76.2002C210.15 81.2102 204.124 96.7802 201.387 94.9802C201.237 94.8802 201.046 94.7302 200.876 94.5302C197.848 91.2902 192.404 76.1602 201.026 70.1902C206.621 66.3202 212.566 65.1702 216.316 64.9002C218.672 64.7102 220.166 64.8602 220.166 64.8602C220.918 63.3702 222.271 61.0002 224.487 58.5502C232.567 49.6002 245.852 46.4402 246.553 47.7302C246.583 47.7802 246.594 47.8602 246.573 47.9702C245.37 48.9702 243.736 50.5702 242.393 52.9102C239.726 57.5502 239.054 63.6402 240.779 67.2902C244.989 76.1702 265.091 74.1202 265.973 74.0202C293.604 70.9502 299.169 46.2502 325.316 41.2202C332.705 39.8002 343.623 39.5802 358.12 45.7902C354.491 45.9902 346.56 46.9202 338.73 52.3502C333.727 55.8302 330.619 59.8502 328.855 62.5802C332.665 59.1902 346.45 47.7202 366.893 47.5402C378.753 47.4402 387.917 51.1802 392.869 53.6702C392.869 62.7702 392.89 71.8702 392.89 80.9702L392.9 80.9602Z" fill="white"/>
</mask>
<g mask="url(#mask3_23_4440)">
<path d="M328.875 63.1403C333.597 60.2303 341.457 56.2903 351.834 55.0503C372.798 52.5403 388.558 62.8903 392.91 65.9703C392.91 62.0603 392.91 58.1403 392.91 54.2303C389.22 50.9903 382.002 45.6703 371.765 44.1303C347.272 40.4403 329.767 62.0303 328.895 63.1403H328.875Z" fill="url(#paint15_linear_23_4440)"/>
</g>
<path d="M392.9 80.9602C385.049 73.7302 373.329 65.4602 358.1 62.2302C339.783 58.3502 330.228 64.6802 330.108 64.8402C315.922 70.5402 303.359 74.5002 293.223 77.2702C275.859 82.0302 265.382 83.3802 253.782 81.7102C253.772 81.7102 253.752 81.7102 253.742 81.7102C251.677 81.4102 249.681 80.7602 247.817 79.8402C232.658 72.3602 224.256 73.5102 219.333 76.2002C210.15 81.2102 204.124 96.7802 201.387 94.9802C201.237 94.8802 201.046 94.7302 200.876 94.5302C197.848 91.2902 192.404 76.1602 201.026 70.1902C206.621 66.3202 212.566 65.1702 216.316 64.9002C218.672 64.7102 220.166 64.8602 220.166 64.8602C220.918 63.3702 222.271 61.0002 224.487 58.5502C232.567 49.6002 245.852 46.4402 246.553 47.7302C246.583 47.7802 246.594 47.8602 246.573 47.9702C245.37 48.9702 243.736 50.5702 242.393 52.9102C239.726 57.5502 239.054 63.6402 240.779 67.2902C244.989 76.1702 265.091 74.1202 265.973 74.0202C293.604 70.9502 299.169 46.2502 325.316 41.2202C332.705 39.8002 343.623 39.5802 358.12 45.7902C354.491 45.9902 346.56 46.9202 338.73 52.3502C333.727 55.8302 330.619 59.8502 328.855 62.5802C332.665 59.1902 346.45 47.7202 366.893 47.5402C378.753 47.4402 387.917 51.1802 392.869 53.6702C392.869 62.7702 392.89 71.8702 392.89 80.9702L392.9 80.9602Z" stroke="black" stroke-linecap="round" stroke-linejoin="round"/>
<path d="M261.612 82.3797C256.78 82.5097 253.241 81.5797 250.995 80.7697C247.947 79.6697 244.398 77.2697 237.43 72.4997C233.039 69.4997 232.056 68.6497 229.6 67.5397C225.8 65.8197 222.381 65.1497 220.156 64.8497C220.587 63.8497 221.259 62.4597 222.281 60.9297C225.73 55.7597 230.262 53.2797 233.55 51.5397C238.473 48.9197 245.581 46.3797 246.503 47.8297C246.534 47.8797 246.554 47.9197 246.564 47.9497C243.847 48.9897 236.698 52.1597 235.184 58.2797C232.959 67.2997 244.358 76.9997 253.562 80.5197C256.8 81.7597 259.677 82.1997 261.602 82.3697L261.612 82.3797Z" fill="url(#paint16_linear_23_4440)"/>
<mask id="mask4_23_4440" style="mask-type:luminance" maskUnits="userSpaceOnUse" x="220" y="47" width="42" height="36">
<path d="M261.612 82.3797C256.78 82.5097 253.241 81.5797 250.995 80.7697C247.947 79.6697 244.398 77.2697 237.43 72.4997C233.039 69.4997 232.056 68.6497 229.6 67.5397C225.8 65.8197 222.381 65.1497 220.156 64.8497C220.587 63.8497 221.259 62.4597 222.281 60.9297C225.73 55.7597 230.262 53.2797 233.55 51.5397C238.473 48.9197 245.581 46.3797 246.503 47.8297C246.534 47.8797 246.554 47.9197 246.564 47.9497C243.847 48.9897 236.698 52.1597 235.184 58.2797C232.959 67.2997 244.358 76.9997 253.562 80.5197C256.8 81.7597 259.677 82.1997 261.602 82.3697L261.612 82.3797Z" fill="white"/>
</mask>
<g mask="url(#mask4_23_4440)">
<path d="M258.825 82.3396C250.945 81.4696 244.268 76.1696 241.711 68.7696C239.205 61.5096 241.099 53.4296 246.563 47.9596C243.526 47.5996 236.377 47.1796 228.577 50.8596C218.842 55.4496 214.471 63.4296 213.208 65.9796C228.417 71.4296 243.616 76.8896 258.825 82.3396Z" fill="url(#paint17_linear_23_4440)"/>
</g>
<path d="M261.612 82.3797C256.78 82.5097 253.241 81.5797 250.995 80.7697C247.947 79.6697 244.398 77.2697 237.43 72.4997C233.039 69.4997 232.056 68.6497 229.6 67.5397C225.8 65.8197 222.381 65.1497 220.156 64.8497C220.587 63.8497 221.259 62.4597 222.281 60.9297C225.73 55.7597 230.262 53.2797 233.55 51.5397C238.473 48.9197 245.581 46.3797 246.503 47.8297C246.534 47.8797 246.554 47.9197 246.564 47.9497C243.847 48.9897 236.698 52.1597 235.184 58.2797C232.959 67.2997 244.358 76.9997 253.562 80.5197C256.8 81.7597 259.677 82.1997 261.602 82.3697L261.612 82.3797Z" stroke="black" stroke-linecap="round" stroke-linejoin="round"/>
<path d="M200.966 94.6002L200.876 94.5302C199.483 92.7002 194.921 86.2402 196.355 78.1902C196.886 75.1802 198.029 73.2602 198.279 72.8602C203.132 64.9002 214.982 64.8802 216.316 64.9002C214.942 65.3302 213.358 66.0002 211.995 67.2702C209.849 69.2702 209.198 71.7602 207.764 81.4002C207.764 81.4002 206.22 91.7602 203.012 94.6002C202.571 94.9902 202.099 95.0202 202.099 95.0202C201.548 95.0602 201.127 94.7302 200.966 94.5902V94.6002Z" fill="url(#paint18_linear_23_4440)"/>
<mask id="mask5_23_4440" style="mask-type:luminance" maskUnits="userSpaceOnUse" x="196" y="64" width="21" height="32">
<path d="M200.966 94.6002L200.876 94.5302C199.483 92.7002 194.921 86.2402 196.355 78.1902C196.886 75.1802 198.029 73.2602 198.279 72.8602C203.132 64.9002 214.982 64.8802 216.316 64.9002C214.942 65.3302 213.358 66.0002 211.995 67.2702C209.849 69.2702 209.198 71.7602 207.764 81.4002C207.764 81.4002 206.22 91.7602 203.012 94.6002C202.571 94.9902 202.099 95.0202 202.099 95.0202C201.548 95.0602 201.127 94.7302 200.966 94.5902V94.6002Z" fill="white"/>
</mask>
<g mask="url(#mask5_23_4440)">
<path d="M196.505 83.5198C196.334 79.4598 199.653 76.5198 202.691 76.8098C205.017 77.0298 207.162 79.1298 207.643 81.9698C209.839 79.8698 213.047 76.2199 215.163 70.8699C216.727 66.9199 218.602 62.1498 216.616 59.7598C213.418 55.9198 199.703 57.5698 194.961 66.2698C190.69 74.1098 196.214 83.0598 196.505 83.5198Z" fill="url(#paint19_linear_23_4440)"/>
</g>
<path d="M200.966 94.6002L200.876 94.5302C199.483 92.7002 194.921 86.2402 196.355 78.1902C196.886 75.1802 198.029 73.2602 198.279 72.8602C203.132 64.9002 214.982 64.8802 216.316 64.9002C214.942 65.3302 213.358 66.0002 211.995 67.2702C209.849 69.2702 209.198 71.7602 207.764 81.4002C207.764 81.4002 206.22 91.7602 203.012 94.6002C202.571 94.9902 202.099 95.0202 202.099 95.0202C201.548 95.0602 201.127 94.7302 200.966 94.5902V94.6002Z" stroke="black" stroke-linecap="round" stroke-linejoin="round"/>
<path d="M330.981 60.7803C335.843 59.8603 341.628 59.3103 348.095 59.7803C371.144 61.4803 386.894 75.1003 392.9 80.9403C392.9 89.7603 392.88 98.5704 392.88 107.39C380.127 99.5404 374.302 91.0403 371.415 84.2403C369.129 78.8703 369.6 74.6803 365.82 70.7803C360.988 65.8003 353.749 65.3003 343.743 65.4603C323.622 65.7703 308.222 68.5303 294.788 70.5003C288.11 71.4803 278.205 72.8203 265.994 73.9903C283.709 71.7003 295.65 65.9104 303.39 60.8804C316.433 52.4004 319.16 46.8303 330.349 43.8003C341.117 40.8803 351.233 43.2703 358.14 45.7603C355.233 45.7803 349.418 46.2003 343.152 49.5103C336.274 53.1503 332.555 58.3103 331.001 60.7703L330.981 60.7803Z" fill="url(#paint20_linear_23_4440)" stroke="black" stroke-linecap="round" stroke-linejoin="round"/>
<path d="M329.346 100.97C329.346 100.97 329.276 100.64 329.346 100.07C329.537 97.8899 331.281 92.1399 343.893 87.5699C360.065 81.7199 366.652 69.0899 343.733 65.4699C343.733 65.4699 360.085 62.6499 367.745 70.0199C375.505 77.4599 377.861 94.2399 358.391 97.4899C339.402 100.65 329.346 100.97 329.346 100.97Z" fill="url(#paint21_linear_23_4440)"/>
<mask id="mask6_23_4440" style="mask-type:luminance" maskUnits="userSpaceOnUse" x="329" y="64" width="45" height="37">
<path d="M329.346 100.97C329.346 100.97 329.276 100.64 329.346 100.07C329.537 97.8899 331.281 92.1399 343.893 87.5699C360.065 81.7199 366.652 69.0899 343.733 65.4699C343.733 65.4699 360.085 62.6499 367.745 70.0199C375.505 77.4599 377.861 94.2399 358.391 97.4899C339.402 100.65 329.346 100.97 329.346 100.97Z" fill="white"/>
</mask>
<g mask="url(#mask6_23_4440)">
<path d="M329.437 100.38C334.269 99.9599 347.543 98.5899 358.531 94.2899C362.221 92.8499 366.231 90.8499 368.687 86.8199C370.271 84.2199 370.522 81.9099 370.572 81.3599C370.933 77.4099 369.189 74.4499 368.397 73.0999C365.73 68.5799 361.589 66.5999 359.895 65.8999C361.93 66.2599 365.87 67.2399 369.469 70.3499C374.242 74.4799 376.096 80.3599 376.137 84.5799C376.287 98.0299 358.21 112.48 342.921 109.15C336.334 107.71 331.853 103.32 329.437 100.39V100.38Z" fill="url(#paint22_linear_23_4440)"/>
</g>
<path d="M329.346 100.97C329.346 100.97 329.276 100.64 329.346 100.07C329.537 97.8899 331.281 92.1399 343.893 87.5699C360.065 81.7199 366.652 69.0899 343.733 65.4699C343.733 65.4699 360.085 62.6499 367.745 70.0199C375.505 77.4599 377.861 94.2399 358.391 97.4899C339.402 100.65 329.346 100.97 329.346 100.97Z" stroke="black" stroke-linecap="round" stroke-linejoin="round"/>
<path d="M265.983 74.01C265.983 74.01 289.183 67.03 294.306 52.77C299.449 38.47 288.211 31.1 287.007 29.75C285.804 28.4 308.493 25.13 314.257 39.35C320.102 53.75 298.567 72.66 265.983 74.01Z" fill="url(#paint23_linear_23_4440)"/>
<mask id="mask7_23_4440" style="mask-type:luminance" maskUnits="userSpaceOnUse" x="265" y="28" width="51" height="47">
<path d="M265.983 74.01C265.983 74.01 289.183 67.03 294.306 52.77C299.449 38.47 288.211 31.1 287.007 29.75C285.804 28.4 308.493 25.13 314.257 39.35C320.102 53.75 298.567 72.66 265.983 74.01Z" fill="white"/>
</mask>
<g mask="url(#mask7_23_4440)">
<path d="M310.829 24.8598C316.754 27.9198 319.681 34.2298 320.112 39.1298C321.115 50.5398 309.325 63.3998 290.175 69.2798C298.978 67.0498 305.445 60.0898 306.337 52.1498C307.49 41.9198 299.259 31.3498 287.007 29.7198C294.216 23.0298 303.8 21.2198 310.829 24.8598Z" fill="url(#paint24_linear_23_4440)"/>
</g>
<path d="M265.983 74.01C265.983 74.01 289.183 67.03 294.306 52.77C299.449 38.47 288.211 31.1 287.007 29.75C285.804 28.4 308.493 25.13 314.257 39.35C320.102 53.75 298.567 72.66 265.983 74.01Z" stroke="black" stroke-linecap="round" stroke-linejoin="round"/>
<path d="M265.984 74.01C265.984 74.01 294.707 67.07 303.43 51.49C312.212 35.8 286.998 29.75 286.998 29.75C286.998 29.75 298.938 37.56 294.728 51.45C290.527 65.31 265.974 74.02 265.974 74.02L265.984 74.01Z" fill="url(#paint25_linear_23_4440)" stroke="black" stroke-linecap="round" stroke-linejoin="round"/>
<path d="M329.346 100.07C329.537 97.8899 331.281 92.1399 343.894 87.5699C360.065 81.7199 366.652 69.0899 343.733 65.4699C343.733 65.4699 362.903 64.3799 365.961 77.3399C369.038 90.4099 345.017 90.2299 337.918 92.3999C331.913 94.2399 329.838 98.7399 329.346 100.07Z" fill="url(#paint26_linear_23_4440)" stroke="black" stroke-linecap="round" stroke-linejoin="round"/>
<path d="M392.88 107.4C392.88 98.5898 392.9 89.7698 392.9 80.9598C391.215 79.5098 389.381 78.0898 387.396 76.7498C371.946 66.2598 354.792 65.0298 343.733 65.4798C344.535 65.4798 363.985 65.4298 369.911 74.1598C371.405 76.3598 372.076 78.7698 372.076 78.7698C373.68 84.4698 371.525 89.4698 370.613 91.3098C372.126 93.5998 374.282 96.3498 377.31 99.0098C383.105 104.12 389.18 106.37 392.89 107.4H392.88Z" fill="url(#paint27_linear_23_4440)" stroke="black" stroke-linecap="round" stroke-linejoin="round"/>
<path d="M162.237 72.0599C174.849 72.4699 176.744 78.9499 176.744 78.9499C172.965 77.7999 164.553 78.3199 156.643 79.1999C147.549 80.2099 139.138 81.6999 139.138 81.6999C139.138 81.6999 139.158 81.6999 139.168 81.6799C139.729 81.1299 149.976 71.6499 162.247 72.0499L162.237 72.0599Z" fill="url(#paint28_linear_23_4440)" stroke="black" stroke-linecap="round" stroke-linejoin="round"/>
<path d="M0 80.9602C7.85017 73.7302 19.5703 65.4602 34.7994 62.2302C53.1165 58.3502 62.6711 64.6802 62.7914 64.8402C76.9778 70.5402 89.5401 74.5002 99.6762 77.2702C117.041 82.0302 127.518 83.3802 139.118 81.7102C139.128 81.7102 139.148 81.7102 139.158 81.7102C141.223 81.4102 143.218 80.7602 145.083 79.8402C160.242 72.3602 168.643 73.5102 173.566 76.2002C182.75 81.2102 188.775 96.7802 191.512 94.9802C191.663 94.8802 191.853 94.7302 192.023 94.5302C195.051 91.2902 200.495 76.1602 191.873 70.1902C186.279 66.3202 180.333 65.1702 176.584 64.9002C174.228 64.7102 172.734 64.8602 172.734 64.8602C171.982 63.3702 170.629 61.0002 168.413 58.5502C160.332 49.6002 147.048 46.4402 146.346 47.7302C146.316 47.7802 146.306 47.8602 146.326 47.9702C147.529 48.9702 149.163 50.5702 150.507 52.9102C153.174 57.5502 153.845 63.6402 152.121 67.2902C147.91 76.1702 127.808 74.1202 126.926 74.0202C99.2952 70.9502 93.7309 46.2502 67.5837 41.2202C60.1947 39.8002 49.2766 39.5802 34.7794 45.7902C38.4087 45.9902 46.3391 46.9202 54.1692 52.3502C59.1721 55.8302 62.2801 59.8502 64.0446 62.5802C60.2348 59.1902 46.4494 47.7202 26.0068 47.5402C14.1464 47.4402 4.98281 51.1802 0.0300773 53.6702C0.0300773 62.7702 0.0100258 71.8702 0.0100258 80.9702L0 80.9602Z" fill="url(#paint29_linear_23_4440)"/>
<mask id="mask8_23_4440" style="mask-type:luminance" maskUnits="userSpaceOnUse" x="0" y="40" width="197" height="56">
<path d="M0 80.9602C7.85017 73.7302 19.5703 65.4602 34.7994 62.2302C53.1165 58.3502 62.6711 64.6802 62.7914 64.8402C76.9778 70.5402 89.5401 74.5002 99.6762 77.2702C117.041 82.0302 127.518 83.3802 139.118 81.7102C139.128 81.7102 139.148 81.7102 139.158 81.7102C141.223 81.4102 143.218 80.7602 145.083 79.8402C160.242 72.3602 168.643 73.5102 173.566 76.2002C182.75 81.2102 188.775 96.7802 191.512 94.9802C191.663 94.8802 191.853 94.7302 192.023 94.5302C195.051 91.2902 200.495 76.1602 191.873 70.1902C186.279 66.3202 180.333 65.1702 176.584 64.9002C174.228 64.7102 172.734 64.8602 172.734 64.8602C171.982 63.3702 170.629 61.0002 168.413 58.5502C160.332 49.6002 147.048 46.4402 146.346 47.7302C146.316 47.7802 146.306 47.8602 146.326 47.9702C147.529 48.9702 149.163 50.5702 150.507 52.9102C153.174 57.5502 153.845 63.6402 152.121 67.2902C147.91 76.1702 127.808 74.1202 126.926 74.0202C99.2952 70.9502 93.7309 46.2502 67.5837 41.2202C60.1947 39.8002 49.2766 39.5802 34.7794 45.7902C38.4087 45.9902 46.3391 46.9202 54.1692 52.3502C59.1721 55.8302 62.2801 59.8502 64.0446 62.5802C60.2348 59.1902 46.4494 47.7202 26.0068 47.5402C14.1464 47.4402 4.98281 51.1802 0.0300773 53.6702C0.0300773 62.7702 0.0100258 71.8702 0.0100258 80.9702L0 80.9602Z" fill="white"/>
</mask>
<g mask="url(#mask8_23_4440)">
<path d="M64.0346 63.1403C59.3124 60.2303 51.4522 56.2903 41.0756 55.0503C20.1117 52.5403 4.35118 62.8903 0 65.9703C0 62.0603 0 58.1403 0 54.2303C3.68948 50.9903 10.908 45.6703 21.1443 44.1303C45.6373 40.4403 63.1423 62.0303 64.0145 63.1403H64.0346Z" fill="url(#paint30_linear_23_4440)"/>
</g>
<path d="M0 80.9602C7.85017 73.7302 19.5703 65.4602 34.7994 62.2302C53.1165 58.3502 62.6711 64.6802 62.7914 64.8402C76.9778 70.5402 89.5401 74.5002 99.6762 77.2702C117.041 82.0302 127.518 83.3802 139.118 81.7102C139.128 81.7102 139.148 81.7102 139.158 81.7102C141.223 81.4102 143.218 80.7602 145.083 79.8402C160.242 72.3602 168.643 73.5102 173.566 76.2002C182.75 81.2102 188.775 96.7802 191.512 94.9802C191.663 94.8802 191.853 94.7302 192.023 94.5302C195.051 91.2902 200.495 76.1602 191.873 70.1902C186.279 66.3202 180.333 65.1702 176.584 64.9002C174.228 64.7102 172.734 64.8602 172.734 64.8602C171.982 63.3702 170.629 61.0002 168.413 58.5502C160.332 49.6002 147.048 46.4402 146.346 47.7302C146.316 47.7802 146.306 47.8602 146.326 47.9702C147.529 48.9702 149.163 50.5702 150.507 52.9102C153.174 57.5502 153.845 63.6402 152.121 67.2902C147.91 76.1702 127.808 74.1202 126.926 74.0202C99.2952 70.9502 93.7309 46.2502 67.5837 41.2202C60.1947 39.8002 49.2766 39.5802 34.7794 45.7902C38.4087 45.9902 46.3391 46.9202 54.1692 52.3502C59.1721 55.8302 62.2801 59.8502 64.0446 62.5802C60.2348 59.1902 46.4494 47.7202 26.0068 47.5402C14.1464 47.4402 4.98281 51.1802 0.0300773 53.6702C0.0300773 62.7702 0.0100258 71.8702 0.0100258 80.9702L0 80.9602Z" stroke="black" stroke-linecap="round" stroke-linejoin="round"/>
<path d="M131.297 82.3797C136.13 82.5097 139.669 81.5797 141.915 80.7697C144.962 79.6697 148.512 77.2697 155.48 72.4997C159.871 69.4997 160.853 68.6497 163.31 67.5397C167.109 65.8197 170.528 65.1497 172.754 64.8497C172.323 63.8497 171.651 62.4597 170.628 60.9297C167.18 55.7597 162.648 53.2797 159.359 51.5397C154.437 48.9197 147.329 46.3797 146.406 47.8297C146.376 47.8797 146.356 47.9197 146.346 47.9497C149.063 48.9897 156.211 52.1597 157.725 58.2797C159.951 67.2997 148.552 76.9997 139.348 80.5197C136.11 81.7597 133.232 82.1997 131.307 82.3697L131.297 82.3797Z" fill="url(#paint31_linear_23_4440)"/>
<mask id="mask9_23_4440" style="mask-type:luminance" maskUnits="userSpaceOnUse" x="131" y="47" width="42" height="36">
<path d="M131.297 82.3797C136.13 82.5097 139.669 81.5797 141.915 80.7697C144.962 79.6697 148.512 77.2697 155.48 72.4997C159.871 69.4997 160.853 68.6497 163.31 67.5397C167.109 65.8197 170.528 65.1497 172.754 64.8497C172.323 63.8497 171.651 62.4597 170.628 60.9297C167.18 55.7597 162.648 53.2797 159.359 51.5397C154.437 48.9197 147.329 46.3797 146.406 47.8297C146.376 47.8797 146.356 47.9197 146.346 47.9497C149.063 48.9897 156.211 52.1597 157.725 58.2797C159.951 67.2997 148.552 76.9997 139.348 80.5197C136.11 81.7597 133.232 82.1997 131.307 82.3697L131.297 82.3797Z" fill="white"/>
</mask>
<g mask="url(#mask9_23_4440)">
<path d="M134.074 82.3396C141.955 81.4696 148.632 76.1696 151.188 68.7696C153.695 61.5096 151.8 53.4296 146.336 47.9596C149.374 47.5996 156.522 47.1796 164.322 50.8596C174.057 55.4496 178.428 63.4296 179.692 65.9796C164.483 71.4296 149.284 76.8896 134.074 82.3396Z" fill="url(#paint32_linear_23_4440)"/>
</g>
<path d="M131.297 82.3797C136.13 82.5097 139.669 81.5797 141.915 80.7697C144.962 79.6697 148.512 77.2697 155.48 72.4997C159.871 69.4997 160.853 68.6497 163.31 67.5397C167.109 65.8197 170.528 65.1497 172.754 64.8497C172.323 63.8497 171.651 62.4597 170.628 60.9297C167.18 55.7597 162.648 53.2797 159.359 51.5397C154.437 48.9197 147.329 46.3797 146.406 47.8297C146.376 47.8797 146.356 47.9197 146.346 47.9497C149.063 48.9897 156.211 52.1597 157.725 58.2797C159.951 67.2997 148.552 76.9997 139.348 80.5197C136.11 81.7597 133.232 82.1997 131.307 82.3697L131.297 82.3797Z" stroke="black" stroke-linecap="round" stroke-linejoin="round"/>
<path d="M191.943 94.6002L192.033 94.5302C193.427 92.7002 197.989 86.2402 196.555 78.1902C196.024 75.1802 194.881 73.2602 194.63 72.8602C189.778 64.9002 177.927 64.8802 176.594 64.9002C177.967 65.3302 179.551 66.0002 180.915 67.2702C183.06 69.2702 183.712 71.7602 185.146 81.4002C185.146 81.4002 186.69 91.7602 189.898 94.6002C190.339 94.9902 190.81 95.0202 190.81 95.0202C191.362 95.0602 191.783 94.7302 191.943 94.5902V94.6002Z" fill="url(#paint33_linear_23_4440)"/>
<mask id="mask10_23_4440" style="mask-type:luminance" maskUnits="userSpaceOnUse" x="176" y="64" width="21" height="32">
<path d="M191.943 94.6002L192.033 94.5302C193.427 92.7002 197.989 86.2402 196.555 78.1902C196.024 75.1802 194.881 73.2602 194.63 72.8602C189.778 64.9002 177.927 64.8802 176.594 64.9002C177.967 65.3302 179.551 66.0002 180.915 67.2702C183.06 69.2702 183.712 71.7602 185.146 81.4002C185.146 81.4002 186.69 91.7602 189.898 94.6002C190.339 94.9902 190.81 95.0202 190.81 95.0202C191.362 95.0602 191.783 94.7302 191.943 94.5902V94.6002Z" fill="white"/>
</mask>
<g mask="url(#mask10_23_4440)">
<path d="M196.405 83.5198C196.575 79.4598 193.256 76.5198 190.219 76.8098C187.893 77.0298 185.747 79.1298 185.266 81.9698C183.07 79.8698 179.862 76.2199 177.747 70.8699C176.183 66.9199 174.308 62.1498 176.293 59.7598C179.491 55.9198 193.206 57.5698 197.949 66.2698C202.22 74.1098 196.695 83.0598 196.405 83.5198Z" fill="url(#paint34_linear_23_4440)"/>
</g>
<path d="M191.943 94.6002L192.033 94.5302C193.427 92.7002 197.989 86.2402 196.555 78.1902C196.024 75.1802 194.881 73.2602 194.63 72.8602C189.778 64.9002 177.927 64.8802 176.594 64.9002C177.967 65.3302 179.551 66.0002 180.915 67.2702C183.06 69.2702 183.712 71.7602 185.146 81.4002C185.146 81.4002 186.69 91.7602 189.898 94.6002C190.339 94.9902 190.81 95.0202 190.81 95.0202C191.362 95.0602 191.783 94.7302 191.943 94.5902V94.6002Z" stroke="black" stroke-linecap="round" stroke-linejoin="round"/>
<path d="M61.9191 60.7799C57.0566 59.8599 51.2718 59.3099 44.8051 59.7799C21.7559 61.4799 6.00543 75.0999 0 80.9399C0 89.7599 0.0200515 98.5699 0.0200515 107.39C12.7728 99.5399 18.5978 91.0399 21.4852 84.2399C23.7711 78.8699 23.2999 74.6799 27.0796 70.7799C31.912 65.7999 39.1506 65.2999 49.1563 65.4599C69.278 65.7699 84.6776 68.5299 98.1121 70.4999C104.789 71.4799 114.695 72.8199 126.906 73.9899C109.191 71.6999 97.2499 65.9099 89.51 60.8799C76.4665 52.3999 73.7395 46.8299 62.5508 43.7999C51.7831 40.8799 41.6671 43.2699 34.7593 45.7599C37.6668 45.7799 43.4818 46.1999 49.7479 49.5099C56.6255 53.1499 60.3451 58.3099 61.8991 60.7699L61.9191 60.7799Z" fill="url(#paint35_linear_23_4440)" stroke="black" stroke-linecap="round" stroke-linejoin="round"/>
<path d="M63.5534 100.97C63.5534 100.97 63.6236 100.64 63.5534 100.07C63.3629 97.8899 61.6184 92.1399 49.006 87.5699C32.8345 81.7199 26.2475 69.0899 49.1664 65.4699C49.1664 65.4699 32.8144 62.6499 25.1547 70.0199C17.3948 77.4599 15.0387 94.2399 34.5088 97.4899C53.4976 100.65 63.5534 100.97 63.5534 100.97Z" fill="url(#paint36_linear_23_4440)"/>
<mask id="mask11_23_4440" style="mask-type:luminance" maskUnits="userSpaceOnUse" x="19" y="64" width="45" height="37">
<path d="M63.5534 100.97C63.5534 100.97 63.6236 100.64 63.5534 100.07C63.3629 97.8899 61.6184 92.1399 49.006 87.5699C32.8345 81.7199 26.2475 69.0899 49.1664 65.4699C49.1664 65.4699 32.8144 62.6499 25.1547 70.0199C17.3948 77.4599 15.0387 94.2399 34.5088 97.4899C53.4976 100.65 63.5534 100.97 63.5534 100.97Z" fill="white"/>
</mask>
<g mask="url(#mask11_23_4440)">
<path d="M63.4632 100.38C58.6307 99.9599 45.3566 98.5899 34.3684 94.2899C30.6789 92.8499 26.6686 90.8499 24.2123 86.8199C22.6282 84.2199 22.3776 81.9099 22.3274 81.3599C21.9665 77.4099 23.711 74.4499 24.503 73.0999C27.1699 68.5799 31.3105 66.5999 33.0049 65.8999C30.9696 66.2599 27.0295 67.2399 23.4303 70.3499C18.658 74.4799 16.8032 80.3599 16.7631 84.5799C16.6128 98.0299 34.6892 112.48 49.9785 109.15C56.5654 107.71 61.047 103.32 63.4632 100.39V100.38Z" fill="url(#paint37_linear_23_4440)"/>
</g>
<path d="M63.5534 100.97C63.5534 100.97 63.6236 100.64 63.5534 100.07C63.3629 97.8899 61.6184 92.1399 49.006 87.5699C32.8345 81.7199 26.2475 69.0899 49.1664 65.4699C49.1664 65.4699 32.8144 62.6499 25.1547 70.0199C17.3948 77.4599 15.0387 94.2399 34.5088 97.4899C53.4976 100.65 63.5534 100.97 63.5534 100.97Z" stroke="black" stroke-linecap="round" stroke-linejoin="round"/>
<path d="M126.926 74.01C126.926 74.01 103.727 67.03 98.6035 52.77C93.4603 38.47 104.699 31.1 105.902 29.75C107.105 28.4 84.4171 25.13 78.6523 39.35C72.8072 53.75 94.3426 72.66 126.926 74.01Z" fill="url(#paint38_linear_23_4440)"/>
<mask id="mask12_23_4440" style="mask-type:luminance" maskUnits="userSpaceOnUse" x="77" y="28" width="50" height="47">
<path d="M126.926 74.01C126.926 74.01 103.727 67.03 98.6035 52.77C93.4603 38.47 104.699 31.1 105.902 29.75C107.105 28.4 84.4171 25.13 78.6523 39.35C72.8072 53.75 94.3426 72.66 126.926 74.01Z" fill="white"/>
</mask>
<g mask="url(#mask12_23_4440)">
<path d="M82.0812 24.8598C76.1559 27.9198 73.2284 34.2298 72.7973 39.1298C71.7947 50.5398 83.585 63.3998 102.734 69.2798C93.9316 67.0498 87.465 60.0898 86.5727 52.1498C85.4197 41.9198 93.6509 31.3498 105.902 29.7198C98.6938 23.0298 89.1092 21.2198 82.0812 24.8598Z" fill="url(#paint39_linear_23_4440)"/>
</g>
<path d="M126.926 74.01C126.926 74.01 103.727 67.03 98.6035 52.77C93.4603 38.47 104.699 31.1 105.902 29.75C107.105 28.4 84.4171 25.13 78.6523 39.35C72.8072 53.75 94.3426 72.66 126.926 74.01Z" stroke="black" stroke-linecap="round" stroke-linejoin="round"/>
<path d="M126.926 74.01C126.926 74.01 98.2024 67.07 89.4799 51.49C80.6974 35.8 105.912 29.75 105.912 29.75C105.912 29.75 93.9715 37.56 98.1823 51.45C102.383 65.31 126.936 74.02 126.936 74.02L126.926 74.01Z" fill="url(#paint40_linear_23_4440)" stroke="black" stroke-linecap="round" stroke-linejoin="round"/>
<path d="M63.5634 100.07C63.3729 97.8899 61.6285 92.1399 49.016 87.5699C32.8445 81.7199 26.2576 69.0899 49.1765 65.4699C49.1765 65.4699 30.0072 64.3799 26.9493 77.3399C23.8714 90.4099 47.8932 90.2299 54.9914 92.3999C60.9968 94.2399 63.0722 98.7399 63.5634 100.07Z" fill="url(#paint41_linear_23_4440)" stroke="black" stroke-linecap="round" stroke-linejoin="round"/>
<path d="M0.0300613 107.4C0.0300613 98.5898 0.0100098 89.7698 0.0100098 80.9598C1.69434 79.5098 3.52905 78.0898 5.51416 76.7498C20.9639 66.2598 38.1179 65.0298 49.1764 65.4798C48.3743 65.4798 28.9243 65.4298 22.9991 74.1598C21.5053 76.3598 20.8335 78.7698 20.8335 78.7698C19.2294 84.4698 21.3849 89.4698 22.2973 91.3098C20.7834 93.5998 18.6279 96.3498 15.6001 99.0098C9.80518 104.12 3.72957 106.37 0.0200355 107.4H0.0300613Z" fill="url(#paint42_linear_23_4440)" stroke="black" stroke-linecap="round" stroke-linejoin="round"/>
<defs>
<linearGradient id="paint0_linear_23_4440" x1="196.405" y1="45.4299" x2="196.405" y2="45.4099" gradientUnits="userSpaceOnUse">
<stop stop-color="#80776D"/>
<stop offset="0.22" stop-color="#918789"/>
<stop offset="0.55" stop-color="#BBB0AE"/>
<stop offset="0.84" stop-color="#D7CCC8"/>
<stop offset="1" stop-color="#E2D7D2"/>
</linearGradient>
<linearGradient id="paint1_linear_23_4440" x1="196.505" y1="-0.500895" x2="196.505" y2="-0.500895" gradientUnits="userSpaceOnUse">
<stop stop-color="#80776D"/>
<stop offset="0.22" stop-color="#918789"/>
<stop offset="0.55" stop-color="#BBB0AE"/>
<stop offset="0.84" stop-color="#D7CCC8"/>
<stop offset="1" stop-color="#E2D7D2"/>
</linearGradient>
<linearGradient id="paint2_linear_23_4440" x1="196.445" y1="125" x2="196.445" y2="0.0800781" gradientUnits="userSpaceOnUse">
<stop stop-color="#E2D7D2"/>
<stop offset="0.16" stop-color="#D7CCC8"/>
<stop offset="0.45" stop-color="#BBB0AE"/>
<stop offset="0.78" stop-color="#918789"/>
<stop offset="1" stop-color="#80776D"/>
</linearGradient>
<linearGradient id="paint3_linear_23_4440" x1="303.49" y1="44.7098" x2="303.49" y2="0.0798442" gradientUnits="userSpaceOnUse">
<stop stop-color="#80776D"/>
<stop offset="0.22" stop-color="#918789"/>
<stop offset="0.55" stop-color="#BBB0AE"/>
<stop offset="0.84" stop-color="#D7CCC8"/>
<stop offset="1" stop-color="#E2D7D2"/>
</linearGradient>
<linearGradient id="paint4_linear_23_4440" x1="89.51" y1="44.6298" x2="89.51" y2="-0.000233899" gradientUnits="userSpaceOnUse">
<stop stop-color="#80776D"/>
<stop offset="0.22" stop-color="#918789"/>
<stop offset="0.55" stop-color="#BBB0AE"/>
<stop offset="0.84" stop-color="#D7CCC8"/>
<stop offset="1" stop-color="#E2D7D2"/>
</linearGradient>
<linearGradient id="paint5_linear_23_4440" x1="196.445" y1="125" x2="196.445" y2="0" gradientUnits="userSpaceOnUse">
<stop stop-color="#80776D"/>
<stop offset="0.22" stop-color="#918789"/>
<stop offset="0.55" stop-color="#BBB0AE"/>
<stop offset="0.84" stop-color="#D7CCC8"/>
<stop offset="1" stop-color="#E2D7D2"/>
</linearGradient>
<linearGradient id="paint6_linear_23_4440" x1="225.473" y1="20.5395" x2="213.322" y2="20.6033" gradientUnits="userSpaceOnUse">
<stop stop-color="#625258"/>
<stop offset="1" stop-color="#918789"/>
</linearGradient>
<linearGradient id="paint7_linear_23_4440" x1="167.328" y1="20.5319" x2="179.48" y2="20.4681" gradientUnits="userSpaceOnUse">
<stop stop-color="#625258"/>
<stop offset="1" stop-color="#918789"/>
</linearGradient>
<linearGradient id="paint8_linear_23_4440" x1="209.21" y1="65.1886" x2="209.056" y2="35.709" gradientUnits="userSpaceOnUse">
<stop stop-color="#80776D"/>
<stop offset="0.22" stop-color="#918789"/>
<stop offset="0.55" stop-color="#BBB0AE"/>
<stop offset="0.84" stop-color="#D7CCC8"/>
<stop offset="1" stop-color="#E2D7D2"/>
</linearGradient>
<linearGradient id="paint9_linear_23_4440" x1="184.063" y1="65.6587" x2="183.909" y2="36.1791" gradientUnits="userSpaceOnUse">
<stop stop-color="#80776D"/>
<stop offset="0.22" stop-color="#918789"/>
<stop offset="0.55" stop-color="#BBB0AE"/>
<stop offset="0.84" stop-color="#D7CCC8"/>
<stop offset="1" stop-color="#E2D7D2"/>
</linearGradient>
<linearGradient id="paint10_linear_23_4440" x1="197.097" y1="78.9954" x2="196.702" y2="3.31639" gradientUnits="userSpaceOnUse">
<stop offset="0.04" stop-color="#918789"/>
<stop offset="0.45" stop-color="#BBB0AE"/>
<stop offset="0.8" stop-color="#D7CCC8"/>
<stop offset="1" stop-color="#E2D7D2"/>
</linearGradient>
<linearGradient id="paint11_linear_23_4440" x1="195.965" y1="0.97028" x2="196.073" y2="36.9302" gradientUnits="userSpaceOnUse">
<stop stop-color="white"/>
<stop offset="0.1" stop-color="white" stop-opacity="0.9604"/>
<stop offset="0.23" stop-color="white" stop-opacity="0.8464"/>
<stop offset="0.36" stop-color="white" stop-opacity="0.6889"/>
<stop offset="0.49" stop-color="white" stop-opacity="0.49"/>
<stop offset="0.64" stop-color="white" stop-opacity="0.2809"/>
<stop offset="0.79" stop-color="white" stop-opacity="0.1089"/>
<stop offset="0.94" stop-color="white" stop-opacity="0.01"/>
<stop offset="0.99" stop-color="white" stop-opacity="0"/>
</linearGradient>
<radialGradient id="paint12_radial_23_4440" cx="0" cy="0" r="1" gradientUnits="userSpaceOnUse" gradientTransform="translate(196.815 23.3171) scale(15.2321 15.0773)">
<stop offset="0.16" stop-color="#FF0303"/>
<stop offset="0.49" stop-color="#FD0303"/>
<stop offset="0.63" stop-color="#F50303"/>
<stop offset="0.74" stop-color="#E90503"/>
<stop offset="0.82" stop-color="#D80604"/>
<stop offset="0.89" stop-color="#C10905"/>
<stop offset="0.96" stop-color="#A50B06"/>
<stop offset="1" stop-color="#8F0E08"/>
</radialGradient>
<linearGradient id="paint13_linear_23_4440" x1="222.177" y1="87.9087" x2="246.959" y2="71.4074" gradientUnits="userSpaceOnUse">
<stop stop-color="#80776D"/>
<stop offset="1" stop-color="#918789"/>
</linearGradient>
<linearGradient id="paint14_linear_23_4440" x1="196.314" y1="68.0702" x2="392.94" y2="67.1756" gradientUnits="userSpaceOnUse">
<stop stop-color="#80776D"/>
<stop offset="0.22" stop-color="#918789"/>
<stop offset="0.55" stop-color="#BBB0AE"/>
<stop offset="0.84" stop-color="#D7CCC8"/>
<stop offset="1" stop-color="#E2D7D2"/>
</linearGradient>
<linearGradient id="paint15_linear_23_4440" x1="328.835" y1="55.0703" x2="392.89" y2="54.7788" gradientUnits="userSpaceOnUse">
<stop stop-color="white" stop-opacity="0"/>
<stop offset="1" stop-color="white"/>
</linearGradient>
<linearGradient id="paint16_linear_23_4440" x1="229.453" y1="78.7547" x2="255.561" y2="61.3707" gradientUnits="userSpaceOnUse">
<stop stop-color="#80776D"/>
<stop offset="1" stop-color="#918789"/>
</linearGradient>
<linearGradient id="paint17_linear_23_4440" x1="222.732" y1="80.2896" x2="254.164" y2="59.3651" gradientUnits="userSpaceOnUse">
<stop stop-color="white"/>
<stop offset="0.07" stop-color="white" stop-opacity="0.81"/>
<stop offset="0.26" stop-color="white" stop-opacity="0.3969"/>
<stop offset="0.45" stop-color="white" stop-opacity="0.1681"/>
<stop offset="0.62" stop-color="white" stop-opacity="0.0529"/>
<stop offset="0.77" stop-color="white" stop-opacity="0.01"/>
<stop offset="0.9" stop-color="white" stop-opacity="0.01"/>
<stop offset="0.99" stop-color="white" stop-opacity="0"/>
</linearGradient>
<linearGradient id="paint18_linear_23_4440" x1="195.43" y1="86.3841" x2="219.837" y2="70.1326" gradientUnits="userSpaceOnUse">
<stop stop-color="#80776D"/>
<stop offset="1" stop-color="#918789"/>
</linearGradient>
<linearGradient id="paint19_linear_23_4440" x1="193.176" y1="78.5198" x2="218.081" y2="61.9308" gradientUnits="userSpaceOnUse">
<stop stop-color="white"/>
<stop offset="0.07" stop-color="white" stop-opacity="0.81"/>
<stop offset="0.26" stop-color="white" stop-opacity="0.3969"/>
<stop offset="0.45" stop-color="white" stop-opacity="0.1681"/>
<stop offset="0.62" stop-color="white" stop-opacity="0.0529"/>
<stop offset="0.77" stop-color="white" stop-opacity="0.01"/>
<stop offset="0.9" stop-color="white" stop-opacity="0.01"/>
<stop offset="0.99" stop-color="white" stop-opacity="0"/>
</linearGradient>
<linearGradient id="paint20_linear_23_4440" x1="269.049" y1="58.5291" x2="397.966" y2="79.5324" gradientUnits="userSpaceOnUse">
<stop stop-color="#80776D"/>
<stop offset="0.22" stop-color="#918789"/>
<stop offset="0.55" stop-color="#BBB0AE"/>
<stop offset="0.84" stop-color="#D7CCC8"/>
<stop offset="1" stop-color="#E2D7D2"/>
</linearGradient>
<linearGradient id="paint21_linear_23_4440" x1="332.946" y1="81.2353" x2="373.425" y2="87.8302" gradientUnits="userSpaceOnUse">
<stop stop-color="#80776D"/>
<stop offset="0.22" stop-color="#918789"/>
<stop offset="0.55" stop-color="#BBB0AE"/>
<stop offset="0.84" stop-color="#D7CCC8"/>
<stop offset="1" stop-color="#E2D7D2"/>
</linearGradient>
<linearGradient id="paint22_linear_23_4440" x1="332.043" y1="84.3899" x2="375.259" y2="91.4251" gradientUnits="userSpaceOnUse">
<stop stop-color="white" stop-opacity="0"/>
<stop offset="1" stop-color="white"/>
</linearGradient>
<linearGradient id="paint23_linear_23_4440" x1="270.567" y1="49.211" x2="313.985" y2="56.2846" gradientUnits="userSpaceOnUse">
<stop stop-color="#80776D"/>
<stop offset="0.22" stop-color="#918789"/>
<stop offset="0.55" stop-color="#BBB0AE"/>
<stop offset="0.84" stop-color="#D7CCC8"/>
<stop offset="1" stop-color="#E2D7D2"/>
</linearGradient>
<linearGradient id="paint24_linear_23_4440" x1="284.661" y1="44.1098" x2="318.885" y2="49.6776" gradientUnits="userSpaceOnUse">
<stop stop-color="white" stop-opacity="0"/>
<stop offset="1" stop-color="white"/>
</linearGradient>
<linearGradient id="paint25_linear_23_4440" x1="260.389" y1="65.5488" x2="302.315" y2="37.6321" gradientUnits="userSpaceOnUse">
<stop stop-color="#80776D"/>
<stop offset="1" stop-color="#918789"/>
</linearGradient>
<linearGradient id="paint26_linear_23_4440" x1="325.387" y1="94.0625" x2="361.918" y2="69.7382" gradientUnits="userSpaceOnUse">
<stop stop-color="#80776D"/>
<stop offset="1" stop-color="#918789"/>
</linearGradient>
<linearGradient id="paint27_linear_23_4440" x1="360.951" y1="91.2594" x2="387.867" y2="73.3368" gradientUnits="userSpaceOnUse">
<stop stop-color="#80776D"/>
<stop offset="1" stop-color="#918789"/>
</linearGradient>
<linearGradient id="paint28_linear_23_4440" x1="170.726" y1="87.9962" x2="145.936" y2="71.4893" gradientUnits="userSpaceOnUse">
<stop stop-color="#80776D"/>
<stop offset="1" stop-color="#918789"/>
</linearGradient>
<linearGradient id="paint29_linear_23_4440" x1="196.585" y1="68.0702" x2="-0.0400924" y2="67.1756" gradientUnits="userSpaceOnUse">
<stop stop-color="#80776D"/>
<stop offset="0.22" stop-color="#918789"/>
<stop offset="0.55" stop-color="#BBB0AE"/>
<stop offset="0.84" stop-color="#D7CCC8"/>
<stop offset="1" stop-color="#E2D7D2"/>
</linearGradient>
<linearGradient id="paint30_linear_23_4440" x1="64.0646" y1="55.0703" x2="0.0100293" y2="54.7788" gradientUnits="userSpaceOnUse">
<stop stop-color="white" stop-opacity="0"/>
<stop offset="1" stop-color="white"/>
</linearGradient>
<linearGradient id="paint31_linear_23_4440" x1="163.45" y1="78.8422" x2="137.334" y2="61.4526" gradientUnits="userSpaceOnUse">
<stop stop-color="#80776D"/>
<stop offset="1" stop-color="#918789"/>
</linearGradient>
<linearGradient id="paint32_linear_23_4440" x1="170.167" y1="80.2896" x2="138.736" y2="59.3651" gradientUnits="userSpaceOnUse">
<stop stop-color="white"/>
<stop offset="0.07" stop-color="white" stop-opacity="0.81"/>
<stop offset="0.26" stop-color="white" stop-opacity="0.3969"/>
<stop offset="0.45" stop-color="white" stop-opacity="0.1681"/>
<stop offset="0.62" stop-color="white" stop-opacity="0.0529"/>
<stop offset="0.77" stop-color="white" stop-opacity="0.01"/>
<stop offset="0.9" stop-color="white" stop-opacity="0.01"/>
<stop offset="0.99" stop-color="white" stop-opacity="0"/>
</linearGradient>
<linearGradient id="paint33_linear_23_4440" x1="197.473" y1="86.4716" x2="173.066" y2="70.2202" gradientUnits="userSpaceOnUse">
<stop stop-color="#80776D"/>
<stop offset="1" stop-color="#918789"/>
</linearGradient>
<linearGradient id="paint34_linear_23_4440" x1="199.723" y1="78.5198" x2="174.818" y2="61.9308" gradientUnits="userSpaceOnUse">
<stop stop-color="white"/>
<stop offset="0.07" stop-color="white" stop-opacity="0.81"/>
<stop offset="0.26" stop-color="white" stop-opacity="0.3969"/>
<stop offset="0.45" stop-color="white" stop-opacity="0.1681"/>
<stop offset="0.62" stop-color="white" stop-opacity="0.0529"/>
<stop offset="0.77" stop-color="white" stop-opacity="0.01"/>
<stop offset="0.9" stop-color="white" stop-opacity="0.01"/>
<stop offset="0.99" stop-color="white" stop-opacity="0"/>
</linearGradient>
<linearGradient id="paint35_linear_23_4440" x1="123.845" y1="58.1772" x2="-5.07183" y2="79.1805" gradientUnits="userSpaceOnUse">
<stop stop-color="#80776D"/>
<stop offset="0.22" stop-color="#918789"/>
<stop offset="0.55" stop-color="#BBB0AE"/>
<stop offset="0.84" stop-color="#D7CCC8"/>
<stop offset="1" stop-color="#E2D7D2"/>
</linearGradient>
<linearGradient id="paint36_linear_23_4440" x1="59.9565" y1="80.8724" x2="19.4776" y2="87.4673" gradientUnits="userSpaceOnUse">
<stop stop-color="#80776D"/>
<stop offset="0.22" stop-color="#918789"/>
<stop offset="0.55" stop-color="#BBB0AE"/>
<stop offset="0.84" stop-color="#D7CCC8"/>
<stop offset="1" stop-color="#E2D7D2"/>
</linearGradient>
<linearGradient id="paint37_linear_23_4440" x1="60.8565" y1="84.3899" x2="17.6411" y2="91.4251" gradientUnits="userSpaceOnUse">
<stop stop-color="white" stop-opacity="0"/>
<stop offset="1" stop-color="white"/>
</linearGradient>
<linearGradient id="paint38_linear_23_4440" x1="122.328" y1="48.8595" x2="78.9197" y2="55.9316" gradientUnits="userSpaceOnUse">
<stop stop-color="#80776D"/>
<stop offset="0.22" stop-color="#918789"/>
<stop offset="0.55" stop-color="#BBB0AE"/>
<stop offset="0.84" stop-color="#D7CCC8"/>
<stop offset="1" stop-color="#E2D7D2"/>
</linearGradient>
<linearGradient id="paint39_linear_23_4440" x1="108.238" y1="44.1098" x2="74.0149" y2="49.6776" gradientUnits="userSpaceOnUse">
<stop stop-color="white" stop-opacity="0"/>
<stop offset="1" stop-color="white"/>
</linearGradient>
<linearGradient id="paint40_linear_23_4440" x1="132.514" y1="65.6363" x2="90.5883" y2="37.7196" gradientUnits="userSpaceOnUse">
<stop stop-color="#80776D"/>
<stop offset="1" stop-color="#918789"/>
</linearGradient>
<linearGradient id="paint41_linear_23_4440" x1="67.5163" y1="94.1501" x2="30.9855" y2="69.8257" gradientUnits="userSpaceOnUse">
<stop stop-color="#80776D"/>
<stop offset="1" stop-color="#918789"/>
</linearGradient>
<linearGradient id="paint42_linear_23_4440" x1="31.9524" y1="91.3469" x2="5.02744" y2="73.4187" gradientUnits="userSpaceOnUse">
<stop stop-color="#80776D"/>
<stop offset="1" stop-color="#918789"/>
</linearGradient>
</defs>
</svg>
