<svg width="46" height="46" viewBox="0 0 46 46" fill="none" xmlns="http://www.w3.org/2000/svg">
<g clip-path="url(#clip0_339_3179)">
<rect width="46" height="46" rx="23" fill="url(#paint0_linear_339_3179)"/>
<path d="M23 46C35.7025 46 46 35.7025 46 23C46 10.2974 35.7025 0 23 0C10.2975 0 0 10.2974 0 23C0 35.7025 10.2975 46 23 46Z" stroke="white" stroke-width="1.33333" stroke-linecap="round" stroke-linejoin="round"/>
<path d="M23.0001 38.5861C31.6081 38.5861 38.5863 31.6079 38.5863 22.9998C38.5863 14.3918 31.6081 7.41357 23.0001 7.41357C14.392 7.41357 7.41382 14.3918 7.41382 22.9998C7.41382 31.6079 14.392 38.5861 23.0001 38.5861Z" stroke="white" stroke-width="0.7" stroke-linecap="round" stroke-linejoin="round"/>
<path d="M31.1094 40.2617C37.6379 37.4321 42.2063 30.9352 42.2063 23.3634C42.2063 20.0122 41.3052 16.8823 39.7403 14.1792" stroke="white" stroke-linecap="round" stroke-linejoin="round"/>
<path d="M3.88874 22.6523C3.88874 22.9211 3.84131 23.1898 3.84131 23.4744C3.84131 33.6386 12.0929 41.8902 22.2571 41.8902C22.763 41.8902 23.253 41.8586 23.743 41.8111" stroke="white" stroke-linecap="round" stroke-linejoin="round"/>
<path d="M15.5072 15.4438C15.5072 15.4438 15.602 15.3647 15.6653 15.4438C16.1079 15.9654 16.5189 16.5029 16.8508 17.1036C17.4989 18.2734 17.8467 19.5379 17.9416 20.8816C17.9416 20.9606 17.9257 20.9922 17.8467 20.9922C17.7519 20.9922 17.657 20.9922 17.5622 20.9922C17.3251 20.9922 17.1828 21.1187 17.1828 21.3558C17.1828 21.8933 17.1512 22.4149 17.1986 22.9524C17.1986 23.0788 17.2776 23.1737 17.3883 23.2211C17.4831 23.2685 17.5938 23.2844 17.6886 23.2844C17.9574 23.2844 17.9574 23.2843 17.9416 23.5531C17.9416 23.6321 17.9099 23.6795 17.8309 23.6795C17.6096 23.6954 17.4199 23.7744 17.2302 23.8692C16.677 24.1696 16.3608 24.6438 16.3292 25.2761C16.2976 25.94 16.5663 26.4617 17.1354 26.8252C17.4989 27.0465 17.8941 27.1098 18.3209 27.0782C18.4158 27.0782 18.479 27.094 18.5264 27.1888C18.7319 27.5998 18.9849 27.9792 19.301 28.327C19.3959 28.4376 19.3959 28.4534 19.2536 28.5008C18.3526 28.7538 17.4673 28.9909 16.5663 29.2438C15.9972 29.4019 15.4124 29.5599 14.8433 29.7338C14.622 29.797 14.5271 29.9077 14.5271 30.0974C14.5271 30.2871 14.6378 30.4135 14.8591 30.461H14.8907C15.9656 30.6665 16.3766 30.7297 16.3766 30.7297C17.0879 30.8245 17.7677 31.0142 18.479 31.1249C18.479 31.1249 18.5264 31.1249 18.5422 31.1565C18.5422 31.1881 18.5422 31.2197 18.5422 31.2513C18.4316 31.5517 18.3051 31.8679 18.1945 32.1682C18.0048 32.6898 17.7993 33.2115 17.6096 33.7331C17.5464 33.907 17.5938 34.0335 17.6886 34.1283C17.7835 34.1599 17.8941 34.1916 17.989 34.239C17.989 34.239 18.0048 34.239 18.0206 34.239C18.2103 34.1916 18.3842 34.0967 18.5739 34.0177C19.5381 33.6383 20.5024 33.2431 21.4508 32.8637C21.4983 32.8479 21.5299 32.8479 21.5615 32.8637C21.6089 32.8795 21.6247 32.9269 21.6405 32.9428C21.9883 33.6383 22.4151 34.2864 22.7471 34.9819C22.7945 35.061 22.8577 35.2032 23 35.2665C23.2055 35.3613 23.49 35.2981 23.6323 35.1242C23.6639 35.0768 23.6797 35.0293 23.6955 35.0135C23.9326 34.2706 24.723 33.2431 24.8811 32.9586C24.9285 32.8637 24.9759 32.8479 25.0866 32.8953C26.1773 33.3379 27.2522 33.7648 28.3429 34.2074C28.5168 34.2706 28.6749 34.318 28.833 34.1916C28.9752 34.0809 29.0068 33.9702 28.9278 33.7647C28.7697 33.3379 28.6117 32.9112 28.4536 32.4685C28.3113 32.0734 28.1532 31.6782 28.011 31.283C27.9794 31.1881 27.9794 31.1407 28.1058 31.1249C28.4378 31.0775 28.7539 30.9668 29.0859 30.951C29.244 30.951 29.0859 30.951 30.1134 30.7613C30.7141 30.6506 31.0302 30.6032 31.0302 30.6032C31.2673 30.5558 31.5044 30.5242 31.7416 30.461C31.8838 30.4293 31.9945 30.3187 32.0103 30.1606C32.0103 30.0025 31.9471 29.8603 31.789 29.7812C31.7416 29.7654 31.6941 29.7338 31.6309 29.718C31.378 29.639 31.1251 29.5758 30.8721 29.4967C29.6708 29.1489 28.4694 28.8012 27.2838 28.4692C27.1416 28.4218 27.1416 28.4218 27.2364 28.3111C27.5367 27.9634 27.8055 27.584 28.011 27.173C28.0584 27.0782 28.1058 27.0623 28.2007 27.0623C28.4062 27.0623 28.6117 27.0623 28.8014 27.0149C29.4337 26.841 29.8605 26.4617 30.0343 25.8452C30.2082 25.2287 30.0818 24.6596 29.6233 24.1854C29.3862 23.9324 29.0859 23.7744 28.7381 23.6953C28.6907 23.6953 28.6117 23.6953 28.5959 23.6005C28.5484 23.3317 28.5959 23.2844 28.8488 23.2844C28.8962 23.2844 28.9278 23.2844 28.9752 23.2844C29.1965 23.2527 29.3388 23.1579 29.3546 22.984C29.402 22.4307 29.402 21.8775 29.3546 21.3242C29.3546 21.1345 29.1965 21.0081 28.991 21.0081C28.8962 21.0081 28.7855 21.0081 28.6907 21.0081C28.6117 21.0081 28.58 20.9923 28.5959 20.9132C28.6591 20.2651 28.7381 19.6012 28.9278 18.9689C29.3072 17.6727 29.9395 16.5187 30.8405 15.507C30.9038 15.428 30.9512 15.428 31.0302 15.4754C31.4096 15.7125 31.8206 15.7283 32.2158 15.507C32.5952 15.2857 32.7849 14.9537 32.7849 14.5111C32.7849 13.9895 32.4213 13.5469 31.9154 13.4204C31.4412 13.2939 30.8721 13.5627 30.6508 14.0211C30.5876 14.1476 30.5244 14.1792 30.3979 14.1792C29.4811 14.1476 28.58 14.1792 27.6632 14.1792C27.3787 14.1792 27.0783 14.1792 26.7938 14.2266C25.2763 14.5111 24.1223 15.3015 23.411 16.6768C23.3794 16.7558 23.3477 16.8823 23.2845 16.8823C23.2055 16.8823 23.1897 16.7558 23.1581 16.6768C22.6048 15.6018 21.7354 14.8589 20.5972 14.4479C20.0282 14.2424 19.4275 14.1792 18.8268 14.1792C17.9257 14.1792 17.0089 14.1792 16.1079 14.1792C16.013 14.1792 15.9656 14.1476 15.9182 14.0685C15.7127 13.6575 15.3965 13.4362 14.9223 13.4204C14.4481 13.4204 14.0529 13.6733 13.8474 14.1159C13.6735 14.5111 13.7684 15.017 14.0687 15.3332C14.4481 15.7283 15.033 15.7916 15.5072 15.507V15.4438ZM31.6467 14.1002C31.8206 14.1002 32.0261 14.3215 32.0261 14.4954C32.0261 14.7009 31.8364 14.8905 31.6309 14.8905C31.4412 14.8905 31.2357 14.7009 31.2357 14.4954C31.2357 14.2899 31.4254 14.1002 31.6309 14.1002H31.6467ZM18.0364 26.2878C17.7044 26.2878 17.3725 26.0348 17.2302 25.6713C17.0405 25.197 17.3093 24.6122 17.7835 24.4541C17.9099 24.4067 17.9416 24.4225 17.9416 24.5648C17.9416 24.6596 17.9416 24.7703 17.9416 24.8651C17.9416 25.3077 18.0206 25.7503 18.1312 26.1771C18.1629 26.2878 18.1312 26.3036 18.0364 26.3036V26.2878ZM29.8605 29.9867C29.8605 29.9867 29.8763 29.9867 29.9237 30.0183C29.6866 30.0974 29.4811 30.1132 29.2598 30.1606C28.6433 30.2713 28.0268 30.3819 27.4103 30.4926C27.1257 30.54 27.0151 30.7455 27.1099 31.0459C27.268 31.5043 27.4577 31.9627 27.6316 32.4211C27.7106 32.6424 27.8055 32.8637 27.8845 33.085C27.8845 33.1166 27.9477 33.1641 27.9003 33.2115C27.8687 33.2431 27.8213 33.2115 27.7739 33.1957C27.0151 32.8953 26.2405 32.5792 25.4818 32.2789C25.3079 32.2156 25.134 32.1366 24.9601 32.0734C24.723 31.9785 24.5807 32.0259 24.4385 32.263C24.2488 32.595 24.0591 32.9269 23.8694 33.2431C23.6955 33.5592 23.5058 33.8754 23.3319 34.1916C23.2529 34.318 23.2529 34.318 23.1739 34.1916C22.8261 33.5751 22.4783 32.9586 22.1148 32.3263C21.9409 32.0101 21.8144 31.9627 21.4666 32.105C20.5498 32.4843 19.6172 32.8479 18.7003 33.2273C18.6687 33.2273 18.6371 33.2747 18.6213 33.2431C18.5897 33.2115 18.6213 33.1641 18.6213 33.1167C18.811 32.6266 19.0007 32.1208 19.1904 31.6307C19.2694 31.4252 19.3484 31.2355 19.4117 31.0301C19.5065 30.7455 19.38 30.5558 19.0955 30.5084C18.6371 30.4293 18.1787 30.3503 17.7203 30.2555C17.4041 30.1923 17.0721 30.1448 16.756 30.0816C16.7086 30.0816 16.6611 30.0816 16.6137 30.0026C16.7086 29.971 16.7876 29.9551 16.8824 29.9235C17.9099 29.6232 18.9374 29.3386 19.9649 29.0383C20.0282 29.0225 20.0914 29.0383 20.1388 29.0857C20.945 29.6706 21.846 30.0184 22.8419 30.0974C23.9642 30.1764 25.0233 29.9393 25.9876 29.3545C26.1299 29.2754 26.2563 29.1805 26.3828 29.0857C26.446 29.0383 26.4934 29.0383 26.5567 29.0541C27.6632 29.3703 28.7539 29.6864 29.8605 30.0026V29.9867ZM27.8371 24.96C27.7581 26.4142 27.1416 27.5998 25.956 28.4692C25.134 29.0857 24.2014 29.3544 23.1897 29.3386C21.0556 29.307 19.3959 27.8527 18.89 26.0665C18.7477 25.5922 18.7003 25.118 18.7003 24.628C18.7003 24.2328 18.7003 23.8218 18.7003 23.4266C18.7003 23.3002 18.7319 23.2527 18.8584 23.2685C20.3285 23.2685 21.8144 23.2685 23.2845 23.2685C24.7546 23.2685 26.2089 23.2685 27.679 23.2685C27.8055 23.2685 27.8371 23.3001 27.8371 23.4424C27.8371 23.9482 27.8529 24.4699 27.8371 24.9757V24.96ZM28.58 24.5805C28.58 24.4067 28.58 24.4067 28.7539 24.4699C29.1175 24.6122 29.3704 24.9915 29.3704 25.3709C29.3704 25.7503 29.0859 26.1297 28.7223 26.2561C28.6591 26.2719 28.5958 26.3036 28.5326 26.2878C28.3745 26.2878 28.3746 26.2878 28.4062 26.1455C28.5326 25.6397 28.6117 25.118 28.58 24.5805ZM23.6639 18.4472C23.6797 17.6727 23.9642 16.9929 24.4227 16.3764C24.9759 15.6493 25.6873 15.1909 26.5725 14.9854C26.8728 14.9222 27.1732 14.8747 27.4893 14.8747C28.3904 14.8747 29.3072 14.8747 30.2082 14.8747C30.2557 14.8747 30.3031 14.8589 30.3347 14.9063C30.3505 14.9537 30.3031 14.9695 30.2714 15.0012C29.1491 16.25 28.422 17.6885 28.0584 19.3325C27.9477 19.8383 27.8687 20.3442 27.8529 20.8658C27.8529 20.9765 27.7897 20.9764 27.7106 20.9764C27.0625 20.9764 26.3986 20.9764 25.7505 20.9764C25.1024 20.9764 24.4543 20.9764 23.822 20.9764C23.7113 20.9764 23.6797 20.9606 23.6797 20.8342C23.6797 20.0438 23.6797 19.2376 23.6797 18.4472H23.6639ZM28.3745 21.7194C28.3745 21.7194 28.4536 21.7194 28.4852 21.7194C28.58 21.7194 28.6117 21.751 28.6117 21.8459C28.6117 22.0197 28.6117 22.1936 28.6117 22.3517C28.6117 22.4466 28.58 22.4782 28.501 22.4782C28.1532 22.4782 27.8213 22.4782 27.4735 22.4782C26.0824 22.4782 24.6756 22.4782 23.2845 22.4782C21.5615 22.4782 19.8543 22.4782 18.1312 22.4782C18.0048 22.4782 17.9416 22.4149 17.9416 22.2885C17.9416 22.1304 17.9416 21.9881 17.9416 21.83C17.9416 21.7352 17.9732 21.7036 18.068 21.7036C18.0996 21.7036 18.1471 21.7036 18.1787 21.7036C21.5773 21.7036 24.9759 21.7036 28.3745 21.7036V21.7194ZM16.4398 14.8747C17.3725 14.8747 18.3051 14.8431 19.2378 14.8747C21.1505 14.9538 22.5574 16.3448 22.8419 18.0678C22.8577 18.1943 22.8735 18.3208 22.8735 18.463C22.8735 19.2534 22.8735 20.028 22.8735 20.8184C22.8735 20.9448 22.8419 20.9764 22.7154 20.9764C22.0673 20.9764 21.4192 20.9764 20.7711 20.9764C20.123 20.9764 19.4749 20.9764 18.8268 20.9764C18.7161 20.9764 18.6845 20.9448 18.6845 20.8342C18.558 18.6527 17.7677 16.7242 16.345 15.0644C16.2976 15.0012 16.2027 14.9538 16.2343 14.8747C16.266 14.8115 16.3608 14.8589 16.4398 14.8589V14.8747ZM14.8907 14.1002C15.0804 14.1002 15.2859 14.3056 15.2859 14.5111C15.2859 14.7008 15.0962 14.9063 14.9065 14.9063C14.6852 14.9063 14.4955 14.7167 14.4955 14.4954C14.4955 14.3057 14.701 14.1002 14.8907 14.1002Z" fill="white"/>
<path d="M23 46C35.7026 46 46 35.7025 46 23C46 10.2975 35.7026 0 23 0C10.2975 0 0 10.2975 0 23C0 35.7025 10.2975 46 23 46Z" fill="#8E7F83" stroke="black" stroke-linecap="round" stroke-linejoin="round"/>
<path d="M23.0003 38.5861C31.6084 38.5861 38.5866 31.6079 38.5866 22.9998C38.5866 14.3918 31.6084 7.41357 23.0003 7.41357C14.3923 7.41357 7.41406 14.3918 7.41406 22.9998C7.41406 31.6079 14.3923 38.5861 23.0003 38.5861Z" fill="#8E7F83" stroke="black" stroke-width="0.75" stroke-linecap="round" stroke-linejoin="round"/>
<path d="M31.1094 40.2617C37.6379 37.4321 42.2063 30.9352 42.2063 23.3634C42.2063 20.0122 41.3053 16.8823 39.7403 14.1792" fill="#8E7F83"/>
<path d="M31.1094 40.2617C37.6379 37.4321 42.2063 30.9352 42.2063 23.3634C42.2063 20.0122 41.3053 16.8823 39.7403 14.1792" stroke="black" stroke-linecap="round" stroke-linejoin="round"/>
<path d="M3.88922 22.6523C3.88922 22.9211 3.8418 23.1898 3.8418 23.4743C3.8418 33.6386 12.0934 41.8901 22.2576 41.8901C22.7635 41.8901 23.2535 41.8585 23.7435 41.8111" fill="#8E7F83"/>
<path d="M3.88922 22.6523C3.88922 22.9211 3.8418 23.1898 3.8418 23.4743C3.8418 33.6386 12.0934 41.8901 22.2576 41.8901C22.7635 41.8901 23.2535 41.8585 23.7435 41.8111" stroke="black" stroke-linecap="round" stroke-linejoin="round"/>
<path d="M31.6154 12.5195C31.1412 12.4088 30.5721 12.6618 30.3508 13.1202C30.3034 13.2466 30.2244 13.2783 30.0979 13.2783C29.1811 13.2466 28.28 13.2624 27.3632 13.2624C27.0787 13.2624 26.7783 13.2625 26.4938 13.3099C24.9763 13.5786 23.8381 14.3848 23.111 15.76C23.0635 15.8233 23.0477 15.9497 22.9687 15.9497C22.9055 15.9497 22.8897 15.8233 22.8422 15.76C22.289 14.6693 21.4354 13.9422 20.2972 13.5154C19.7282 13.3099 19.1275 13.2466 18.5268 13.2624C17.6258 13.2624 16.7089 13.2624 15.8079 13.2624C15.713 13.2783 15.6656 13.2624 15.6182 13.1518C15.4127 12.7566 15.0965 12.5195 14.6223 12.5037C14.1639 12.5037 13.7529 12.7566 13.5632 13.1992C13.3893 13.5944 13.4684 14.1002 13.7845 14.4164C14.1639 14.8116 14.7488 14.8748 15.223 14.5903C15.2704 14.5587 15.3178 14.4954 15.3811 14.5745C15.8237 15.0961 16.2347 15.6336 16.5666 16.2343C17.2147 17.404 17.5625 18.6686 17.6574 20.0123C17.6732 20.0913 17.6416 20.1229 17.5625 20.1229C17.4677 20.1071 17.3728 20.1229 17.278 20.1229C17.0409 20.1229 16.8986 20.2494 16.8986 20.4865C16.8828 21.0082 16.867 21.5456 16.9144 22.0831C16.9144 22.2095 16.9934 22.2886 17.1041 22.3518C17.1989 22.3834 17.3096 22.3992 17.4044 22.3992C17.5836 22.4098 17.6732 22.5046 17.6732 22.6838C17.6732 22.6838 17.6415 22.7944 17.5467 22.8102C17.3412 22.826 17.1357 22.8893 16.946 22.9999C16.3928 23.3002 16.0766 23.7745 16.045 24.4068C16.0134 25.0707 16.2821 25.5923 16.8512 25.9559C17.2148 26.1772 17.6258 26.2405 18.0368 26.2088C18.1316 26.2088 18.1948 26.2405 18.2422 26.3195C18.4477 26.7463 18.7007 27.1257 19.0168 27.4576C19.08 27.5419 19.059 27.5999 18.9536 27.6315C18.0683 27.8844 17.1673 28.1216 16.2821 28.3745C15.6972 28.5326 15.1282 28.7064 14.5433 28.8645C14.3378 28.9277 14.2271 29.0384 14.2271 29.2281C14.2271 29.4178 14.3536 29.5442 14.5749 29.5917C14.5749 29.5917 14.5907 29.5917 14.6065 29.6075C15.6814 29.813 16.0924 29.8762 16.0924 29.8762C16.8037 29.971 17.4835 30.1607 18.1948 30.2714C18.2106 30.2714 18.2423 30.2872 18.2581 30.303C18.2739 30.3346 18.258 30.3662 18.2422 30.4137C18.1316 30.714 18.0051 31.0143 17.8945 31.3305C17.7048 31.8521 17.4993 32.3738 17.3096 32.8954C17.2464 33.0693 17.2938 33.1958 17.4044 33.2906C17.4993 33.3222 17.6099 33.3539 17.7048 33.4013C17.7206 33.4013 17.7206 33.4013 17.7364 33.4013C17.9261 33.3539 18.1 33.2748 18.2897 33.1958C19.2539 32.8006 20.2182 32.4212 21.1666 32.0418C21.2141 32.0102 21.2457 32.0102 21.2773 32.026C21.3247 32.0418 21.3563 32.0893 21.3563 32.1051C21.7041 32.8006 22.1309 33.4487 22.4629 34.1442C22.5103 34.2233 22.5893 34.3655 22.7316 34.4288C22.9371 34.5236 23.2216 34.4604 23.3481 34.2865C23.3955 34.2391 23.4113 34.1917 23.4113 34.1758C23.6642 33.4329 24.4388 32.4054 24.5969 32.1209C24.6443 32.026 24.6917 32.0102 24.8024 32.0418C25.8773 32.4844 26.968 32.9271 28.0587 33.3539C28.2168 33.4329 28.3907 33.4803 28.5488 33.3381C28.691 33.2116 28.7227 33.1167 28.6436 32.9112C28.5013 32.4844 28.3275 32.0576 28.1694 31.615C28.0271 31.2198 27.869 30.8246 27.7268 30.4295C27.6793 30.3346 27.6952 30.2872 27.8058 30.2714C28.1378 30.224 28.4539 30.1133 28.7859 30.0975C28.944 30.0817 28.7859 30.0817 29.8292 29.9078C30.4299 29.7972 30.7302 29.7339 30.746 29.7339C30.9831 29.7023 31.2202 29.6549 31.4574 29.5917C31.5996 29.56 31.7103 29.4652 31.7261 29.2913C31.7419 29.1332 31.6629 28.991 31.5048 28.9277C31.4574 28.8961 31.4099 28.8803 31.3625 28.8645C31.0938 28.7855 30.8409 28.7222 30.5879 28.6432C29.3866 28.2954 28.1852 27.9635 26.9996 27.6157C26.8943 27.5841 26.8784 27.5261 26.9522 27.4418C27.2526 27.0941 27.5055 26.7147 27.7268 26.3037C27.7584 26.2246 27.8216 26.193 27.9007 26.193C28.1062 26.193 28.3117 26.193 28.5172 26.1456C29.1336 25.9717 29.5605 25.5765 29.7343 24.96C29.924 24.3436 29.7818 23.7745 29.3234 23.3003C29.0862 23.0473 28.7859 22.8893 28.4381 22.826C28.3749 22.8102 28.3117 22.826 28.2958 22.7312C28.2484 22.4625 28.28 22.415 28.5488 22.3992C28.5804 22.3992 28.6278 22.415 28.6594 22.3992C28.8807 22.3676 29.023 22.2728 29.0388 22.0989C29.0862 21.5456 29.0862 20.9923 29.0546 20.4391C29.0388 20.2494 28.8965 20.1229 28.691 20.1229C28.5962 20.1071 28.5013 20.1229 28.3907 20.1229C28.3275 20.1229 28.28 20.0913 28.2958 20.0123C28.3591 19.3642 28.4381 18.7161 28.6278 18.0679C29.0072 16.7717 29.6553 15.6178 30.5405 14.6219C30.6196 14.5429 30.6512 14.5271 30.746 14.5903C31.1254 14.8274 31.5364 14.8432 31.9158 14.6061C32.2952 14.4006 32.5007 14.0686 32.4849 13.626C32.4691 13.1044 32.1213 12.646 31.6154 12.5195ZM14.6223 14.037C14.401 14.037 14.2113 13.8315 14.2113 13.626C14.2271 13.4363 14.4326 13.2308 14.6065 13.2308C14.7962 13.2308 15.0017 13.4363 15.0017 13.6418C15.0017 13.8315 14.812 14.037 14.6223 14.037ZM16.0608 14.2267C16.0608 14.2267 15.9185 14.1003 15.9501 14.037C15.966 13.9738 16.0766 14.0212 16.1557 14.0212C17.0883 14.0054 18.0209 13.9896 18.9536 14.0212C20.8505 14.0844 22.2732 15.4913 22.5577 17.2143C22.5577 17.3408 22.5893 17.4831 22.5893 17.6095V19.9649C22.5893 20.0755 22.5735 20.1229 22.4471 20.1229C21.7831 20.1071 21.135 20.1229 20.4869 20.1229H18.5426C18.4319 20.1229 18.4003 20.0913 18.4003 19.9807C18.2739 17.7992 17.4835 15.8707 16.0608 14.2267ZM17.7522 25.4343C17.4202 25.4185 17.0883 25.1814 16.946 24.8178C16.7405 24.3435 17.0092 23.7587 17.4993 23.6006C17.6257 23.5532 17.6574 23.569 17.6574 23.6954V23.9958C17.6574 24.4384 17.7364 24.881 17.847 25.3078C17.8787 25.4027 17.8471 25.4343 17.7522 25.4343ZM29.5763 29.1174C29.5763 29.1174 29.5763 29.1332 29.6395 29.149C29.4024 29.2281 29.1969 29.2597 28.9756 29.2913L27.1261 29.6233C26.8416 29.6865 26.7309 29.8762 26.8416 30.1765C26.9996 30.635 27.1735 31.0934 27.3474 31.5518C27.4423 31.7731 27.5213 31.9944 27.6003 32.2157C27.6003 32.2631 27.6635 32.3106 27.6319 32.3422C27.5845 32.3738 27.5371 32.3422 27.5055 32.3264C26.7309 32.0102 25.9721 31.7099 25.2134 31.3937C25.0395 31.3305 24.8656 31.2515 24.6759 31.1882C24.4388 31.0934 24.2965 31.1408 24.1543 31.3779C23.9646 31.6941 23.7749 32.026 23.601 32.358C23.4113 32.6741 23.2374 32.9903 23.0477 33.3064C22.9845 33.4329 22.9687 33.4329 22.8897 33.3064C22.5419 32.6899 22.1941 32.0576 21.8464 31.4411C21.6725 31.125 21.546 31.0934 21.1983 31.2198C20.2814 31.5992 19.3488 31.9786 18.4319 32.3422C18.4003 32.358 18.3687 32.3896 18.3529 32.358C18.3055 32.3264 18.3371 32.2789 18.3529 32.2315C18.5426 31.7415 18.7323 31.2356 18.9062 30.7456C18.9852 30.5401 19.08 30.3504 19.1433 30.1449C19.2223 29.8762 19.1117 29.6707 18.8113 29.6233C18.3687 29.5442 17.9103 29.4652 17.4519 29.3704C17.1199 29.3229 16.8037 29.2597 16.4876 29.1965C16.4402 29.1965 16.3769 29.1965 16.3453 29.1332C16.4402 29.1016 16.5192 29.0858 16.6141 29.0542C17.6416 28.7697 18.669 28.4693 19.6965 28.169C19.7598 28.1532 19.8072 28.169 19.8704 28.2164C20.6766 28.8013 21.5776 29.149 22.5577 29.2123C23.68 29.3071 24.7391 29.0542 25.7034 28.4693C25.8457 28.3903 25.9721 28.2954 26.0986 28.2164C26.1618 28.169 26.2092 28.1532 26.2725 28.169C27.379 28.4851 28.4697 28.8013 29.5763 29.1174ZM27.5529 24.1064C27.4739 25.5607 26.8415 26.7305 25.6718 27.6157C24.8498 28.2164 23.9171 28.5009 22.9055 28.4851C20.7714 28.4377 19.1117 26.9992 18.59 25.213C18.4635 24.7387 18.4003 24.2645 18.4003 23.7745C18.4003 23.3793 18.4161 22.9683 18.4003 22.5731C18.4003 22.4466 18.4319 22.3992 18.5742 22.3992C20.0443 22.415 21.5144 22.3992 23.0003 22.3992C24.4862 22.3992 25.9247 22.415 27.3948 22.3992C27.5213 22.3992 27.5529 22.4466 27.5529 22.5731C27.5529 23.0789 27.5687 23.5848 27.5529 24.1064ZM28.4697 23.6006C28.8491 23.7429 29.102 24.1222 29.0862 24.5016C29.0704 24.881 28.8017 25.2604 28.4381 25.3868C28.3749 25.4185 28.3117 25.4343 28.2484 25.4185C28.0903 25.4343 28.0903 25.4185 28.122 25.2762C28.2484 24.7704 28.3275 24.2487 28.2958 23.7112C28.28 23.5374 28.2958 23.5374 28.4697 23.6006ZM28.3117 20.9923C28.3117 21.1662 28.3117 21.3401 28.3275 21.514C28.3275 21.6088 28.2958 21.6405 28.201 21.6405C27.869 21.6246 27.5213 21.6405 27.1735 21.6405H17.8312C17.7048 21.6405 17.6416 21.5772 17.6416 21.4508C17.6416 21.2927 17.6574 21.1346 17.6416 20.9923C17.6416 20.8975 17.6732 20.8501 17.768 20.8659H28.1852C28.2801 20.8659 28.3117 20.8975 28.3117 20.9923ZM29.9714 14.1319C28.8649 15.3807 28.122 16.835 27.7584 18.4631C27.6477 18.969 27.5845 19.4906 27.5529 19.9965C27.5529 20.1229 27.4897 20.1229 27.4106 20.1229H23.5062C23.3955 20.1229 23.3639 20.0913 23.3639 19.9807C23.3639 19.1745 23.3639 18.3841 23.3639 17.5937C23.3955 16.8192 23.6642 16.1236 24.1384 15.5071C24.6759 14.7958 25.4031 14.3216 26.2883 14.1161C26.5886 14.0528 26.889 14.0054 27.1893 14.0054H29.9082C29.9082 14.0054 30.0189 13.9896 30.0347 14.037C30.0505 14.0844 30.0031 14.1002 29.9714 14.1319ZM31.3467 14.037C31.157 14.037 30.9673 13.8315 30.9673 13.6418C30.9673 13.4363 31.157 13.2308 31.3625 13.2308C31.5364 13.2308 31.7419 13.4521 31.7419 13.626C31.7419 13.8315 31.5522 14.0212 31.3467 14.037Z" fill="black"/>
<path d="M27.1257 29.6238C26.8412 29.687 26.7305 29.8767 26.8412 30.1771C26.9993 30.6355 27.1732 31.0939 27.347 31.5523C27.4419 31.7736 27.5209 31.9949 27.5999 32.2162C27.5999 32.2637 27.6632 32.3111 27.6316 32.3427C27.5841 32.3743 27.5367 32.3427 27.5051 32.3269C26.7305 32.0107 25.9718 31.7104 25.213 31.3942C25.0391 31.331 24.8653 31.252 24.6756 31.1887C24.4384 31.0939 24.2962 31.1413 24.1539 31.3784C23.9642 31.6946 23.7745 32.0265 23.6006 32.3585C23.4109 32.6747 23.2371 32.9908 23.0474 33.307C22.9842 33.4334 22.9683 33.4334 22.8893 33.307C22.5415 32.6905 22.1938 32.0582 21.846 31.4417C21.6721 31.1255 21.5457 31.0939 21.1979 31.2204C20.2811 31.5997 19.3484 31.9791 18.4316 32.3427C18.4 32.3585 18.3683 32.3901 18.3525 32.3585C18.3051 32.3269 18.3367 32.2795 18.3525 32.232C18.5422 31.742 18.7319 31.2362 18.9058 30.7461C18.9848 30.5406 19.0797 30.3509 19.1429 30.1454C19.222 29.8767 19.1113 29.6712 18.8109 29.6238C18.3683 29.5448 17.9099 29.4657 17.4515 29.3709C17.1195 29.3235 16.8034 29.2602 16.4872 29.197C16.4398 29.197 16.3766 29.197 16.345 29.1338C16.4398 29.1021 16.5189 29.0863 16.6137 29.0547C17.6412 28.7702 18.6687 28.4698 19.6962 28.1695C19.7594 28.1537 19.8068 28.1695 19.87 28.2169C20.6762 28.8018 21.5773 29.1496 22.5573 29.2128C23.6797 29.3076 24.7388 29.0547 25.703 28.4698C25.8453 28.3908 25.9718 28.296 26.0982 28.2169C26.1615 28.1695 26.2089 28.1537 26.2721 28.1695C27.3786 28.4857 28.4694 28.8018 29.5759 29.118C29.5759 29.118 29.5759 29.1338 29.6391 29.1496C29.402 29.2286 29.1965 29.2602 28.9752 29.2918L27.1257 29.6238Z" fill="#B9AEAD"/>
<path d="M17.8473 25.308C17.879 25.4028 17.8473 25.4344 17.7525 25.4344C17.4205 25.4186 17.0886 25.1815 16.9463 24.8179C16.7408 24.3437 17.0095 23.7588 17.4996 23.6008C17.626 23.5533 17.6577 23.5691 17.6577 23.6956V23.9959C17.6577 24.4386 17.7367 24.8812 17.8473 25.308Z" fill="#B9AEAD"/>
<path d="M29.086 24.5017C29.0702 24.881 28.8015 25.2604 28.4379 25.3869C28.3747 25.4185 28.3114 25.4343 28.2482 25.4185C28.0901 25.4343 28.0901 25.4185 28.1217 25.2762C28.2482 24.7704 28.3272 24.2487 28.2956 23.7113C28.2798 23.5374 28.2956 23.5374 28.4695 23.6006C28.8489 23.7429 29.1018 24.1223 29.086 24.5017Z" fill="#B9AEAD"/>
<path d="M27.5527 22.5733C27.5527 23.0791 27.5685 23.585 27.5527 24.1066C27.4737 25.5609 26.8414 26.7307 25.6716 27.6159C24.8496 28.2166 23.917 28.5011 22.9053 28.4853C20.7713 28.4379 19.1115 26.9994 18.5898 25.2132C18.4634 24.7389 18.4001 24.2647 18.4001 23.7747C18.4001 23.3795 18.416 22.9685 18.4001 22.5733C18.4001 22.4468 18.4318 22.3994 18.574 22.3994C20.0441 22.4152 21.5142 22.3994 23.0002 22.3994C24.4861 22.3994 25.9245 22.4152 27.3947 22.3994C27.5211 22.3994 27.5527 22.4468 27.5527 22.5733Z" fill="#B9AEAD"/>
<path d="M28.327 21.5144C28.327 21.6092 28.2954 21.6408 28.2006 21.6408C27.8686 21.625 27.5208 21.6408 27.1731 21.6408H17.8308C17.7043 21.6408 17.6411 21.5776 17.6411 21.4512C17.6411 21.2931 17.6569 21.135 17.6411 20.9927C17.6411 20.8979 17.6727 20.8505 17.7676 20.8663H28.1848C28.2796 20.8663 28.3112 20.8979 28.3112 20.9927C28.3112 21.1666 28.3112 21.3405 28.327 21.5144Z" fill="#B9AEAD"/>
<path d="M31.7416 13.6261C31.7416 13.8316 31.5519 14.0213 31.3464 14.0371C31.1567 14.0371 30.967 13.8316 30.967 13.642C30.967 13.4365 31.1567 13.231 31.3622 13.231C31.5361 13.231 31.7416 13.4523 31.7416 13.6261Z" fill="#B9AEAD"/>
<path d="M30.0348 14.0376C30.0348 14.0376 30.0032 14.1008 29.9716 14.1324C28.865 15.3812 28.1221 16.8355 27.7585 18.4637C27.6479 18.9695 27.5846 19.4912 27.553 19.997C27.553 20.1235 27.4898 20.1235 27.4107 20.1235H23.5063C23.3956 20.1235 23.364 20.0919 23.364 19.9812C23.364 19.175 23.364 18.3846 23.364 17.5943C23.3956 16.8197 23.6643 16.1242 24.1386 15.5077C24.676 14.7963 25.4032 14.3221 26.2884 14.1166C26.5887 14.0534 26.8891 14.0059 27.1894 14.0059H29.9083C29.9083 14.0059 30.019 13.9901 30.0348 14.0376Z" fill="#B9AEAD"/>
<path d="M22.5891 17.61V19.9653C22.5891 20.076 22.5733 20.1234 22.4468 20.1234C21.7829 20.1076 21.1348 20.1234 20.4867 20.1234H18.5424C18.4317 20.1234 18.4001 20.0918 18.4001 19.9811C18.2736 17.7997 17.4833 15.8712 16.0606 14.2272C16.0132 14.1639 15.9183 14.1007 15.9499 14.0375C15.9657 13.9743 16.0764 14.0217 16.1554 14.0217C17.0881 14.0059 18.0207 13.9901 18.9534 14.0217C20.8503 14.0849 22.2729 15.4918 22.5575 17.2148C22.5575 17.3413 22.5891 17.4835 22.5891 17.61Z" fill="#B9AEAD"/>
<path d="M15.0016 13.642C15.0016 13.8316 14.8119 14.0371 14.6222 14.0371C14.4009 14.0371 14.2112 13.8316 14.2112 13.6261C14.227 13.4365 14.4325 13.231 14.6064 13.231C14.7961 13.231 15.0016 13.4365 15.0016 13.642Z" fill="#B9AEAD"/>
</g>
<rect x="0.5" y="0.5" width="45" height="45" rx="22.5" stroke="url(#paint1_linear_339_3179)"/>
<defs>
<linearGradient id="paint0_linear_339_3179" x1="23" y1="0" x2="23" y2="46" gradientUnits="userSpaceOnUse">
<stop stop-color="#381414"/>
<stop offset="1" stop-color="#1D0808"/>
</linearGradient>
<linearGradient id="paint1_linear_339_3179" x1="23.0027" y1="46.523" x2="23.0027" y2="-0.522964" gradientUnits="userSpaceOnUse">
<stop offset="0.2" stop-color="#918789"/>
<stop offset="0.55" stop-color="#BBB0AE"/>
<stop offset="0.83" stop-color="#D7CCC8"/>
<stop offset="1" stop-color="#E2D7D2"/>
</linearGradient>
<clipPath id="clip0_339_3179">
<rect width="46" height="46" rx="23" fill="white"/>
</clipPath>
</defs>
</svg>
