<svg width="393" height="106" viewBox="0 0 393 106" fill="none" xmlns="http://www.w3.org/2000/svg">
<path d="M392.99 1H0.0100098V105.99H392.99V1Z" fill="url(#paint0_linear_238_11597)" stroke="black" stroke-linecap="round" stroke-linejoin="round"/>
<path d="M393 8.99696C290.863 8.99696 188.735 8.99696 86.5981 8.99696H81.1143C79.4702 8.99696 77.826 8.99696 76.1919 8.99696H0.0100098V1H392.99V8.99696H393Z" fill="url(#paint1_linear_238_11597)"/>
<path d="M393 8.99696C290.863 8.99696 188.735 8.99696 86.5981 8.99696H81.1143C79.4702 8.99696 77.826 8.99696 76.1919 8.99696H0.0100098V1H392.99V8.99696H393Z" fill="url(#paint2_linear_238_11597)"/>
<path d="M393 8.99696C290.863 8.99696 188.735 8.99696 86.5981 8.99696H81.1143C79.4702 8.99696 77.826 8.99696 76.1919 8.99696H0.0100098V1H392.99V8.99696H393Z" stroke="black" stroke-linecap="round" stroke-linejoin="round"/>
<path opacity="0.43" d="M0.0100098 106C55.2291 101.651 115.902 98.7226 181.287 98.3227C258.551 97.8529 329.51 100.992 392.99 106H0.0100098Z" fill="#270D1D"/>
<path opacity="0.32" d="M77.1945 8.99678C73.7959 9.05675 67.7607 9.26662 60.3019 10.2562C37.9356 13.2051 28.7725 19.6127 14.4264 16.4239C11.1882 15.7042 6.01515 14.1148 0 10.0763V1.00977H174.69C139.832 1.7095 113.646 2.46922 102.679 2.76911C100.463 2.82908 95.3201 2.96903 88.7034 4.70837C83.6808 6.02787 79.7008 7.77719 77.1744 9.00672L77.1945 8.99678Z" fill="#270D1D"/>
<path opacity="0.32" d="M315.495 8.99678C318.893 9.05675 324.928 9.26662 332.387 10.2562C354.753 13.2051 363.917 19.6127 378.263 16.4239C381.501 15.7042 386.674 14.1148 392.689 10.0763C392.689 7.05747 392.689 4.02862 392.689 1.00977C334.462 1.00977 276.226 1.00977 217.999 1.00977C252.857 1.7095 279.043 2.46922 290.011 2.76911C292.226 2.82908 297.369 2.96903 303.986 4.70837C309.008 6.02787 312.988 7.77719 315.515 9.00672L315.495 8.99678Z" fill="#270D1D"/>
<path d="M65.1516 38.8981C60.4081 33.8024 53.1065 36.8202 53.1065 36.8202C55.151 34.673 56.5106 32.9811 56.2487 29.4685C56.2487 29.3498 56.2487 29.231 56.2487 29.1123C56.2487 23.5318 51.6462 19 45.956 19C40.2658 19 35.6632 23.5219 35.6632 29.1123C35.6632 29.8148 35.7338 30.4976 35.8748 31.1605C36.1064 33.5946 37.3351 35.0589 39.017 36.8202C39.017 36.8202 31.7154 33.7925 26.9719 38.8981C25.5116 40.4713 24.8367 42.183 24.5849 42.9449C24.2425 43.9839 23.0642 48.0802 25.5115 52.0381C27.707 55.6001 31.3427 56.6193 32.0779 56.8073C38.4127 58.4399 43.4483 53.5717 43.6799 53.3243C43.2972 60.2505 39.017 64.9901 39.017 64.9901H53.0864C50.4981 62.3186 48.2119 56.1938 48.504 53.3936C49.2895 54.205 50.5685 55.3132 52.4116 56.085C52.8245 56.2532 59.3104 58.8158 64.3258 54.5711C68.173 51.3059 68.5254 46.2596 67.5183 42.9548C66.8133 40.6494 65.4437 39.2443 65.1315 38.9079L65.1516 38.8981Z" fill="url(#paint3_linear_238_11597)" stroke="black" stroke-linecap="round" stroke-linejoin="round"/>
<path d="M61.8484 38.9474C57.9206 34.7323 51.8881 37.2356 51.8881 37.2356C53.57 35.4645 54.6979 34.0595 54.4864 31.1504C54.4864 31.0515 54.4864 30.9526 54.4864 30.8536C54.4864 26.2328 50.6796 22.4927 45.9763 22.4927C41.2731 22.4927 37.4661 26.2328 37.4661 30.8536C37.4661 31.4374 37.5266 32.0014 37.6374 32.5555C37.8287 34.5641 38.8459 35.7811 40.2357 37.2356C40.2357 37.2356 34.203 34.7323 30.2753 38.9474C26.3475 43.1625 28.3114 48.1691 29.5502 49.8116C30.7889 51.4541 32.6421 54.2147 37.0029 53.8981C40.8702 53.621 41.4342 52.968 44.093 50.8902C43.9923 52.6613 43.68 54.9469 42.8542 57.4898C41.7765 60.8045 40.2458 63.3178 39.0272 64.9999H53.0966C51.7873 63.298 50.0451 60.567 48.9977 56.8665C48.3531 54.6006 48.1416 52.5623 48.0912 50.9495C48.7459 51.6323 49.8134 52.5524 51.324 53.1758C54.5871 54.5215 59.5925 54.3434 62.4326 50.9297C65.3834 47.3875 63.9735 42.8062 63.8123 42.3115C63.5102 41.3814 62.9563 40.1644 61.8384 38.9672L61.8484 38.9474Z" fill="url(#paint4_linear_238_11597)" stroke="black" stroke-linecap="round" stroke-linejoin="round"/>
<path d="M46.1272 37.7105C48.1407 37.7105 49.773 36.1069 49.773 34.1287C49.773 32.1505 48.1407 30.5469 46.1272 30.5469C44.1137 30.5469 42.4814 32.1505 42.4814 34.1287C42.4814 36.1069 44.1137 37.7105 46.1272 37.7105Z" stroke="black" stroke-linecap="round" stroke-linejoin="round"/>
<path d="M39.7017 48.7433V43.2617C39.7017 41.2333 41.3736 39.5908 43.4381 39.5908H48.8161C50.8807 39.5908 52.5525 41.2333 52.5525 43.2617V48.7433" stroke="black" stroke-linecap="round" stroke-linejoin="round"/>
<path d="M40.996 83.856C41.012 83.856 41.02 83.88 41.02 83.928C41.02 83.976 41.012 84 40.996 84C40.724 84 40.508 83.996 40.348 83.988L39.46 83.976L38.56 83.988C38.408 83.996 38.2 84 37.936 84C37.912 84 37.9 83.976 37.9 83.928C37.9 83.88 37.912 83.856 37.936 83.856C38.272 83.856 38.5 83.816 38.62 83.736C38.74 83.656 38.8 83.488 38.8 83.232L38.788 83.028L38.536 78.12L36.064 83.916C36.048 83.948 36.016 83.964 35.968 83.964C35.92 83.964 35.888 83.948 35.872 83.916L32.836 78.144L32.74 82.476C32.732 82.908 32.816 83.248 32.992 83.496C33.176 83.736 33.432 83.856 33.76 83.856C33.784 83.856 33.796 83.88 33.796 83.928C33.796 83.976 33.784 84 33.76 84C33.544 84 33.376 83.996 33.256 83.988L32.596 83.976L31.84 83.988C31.712 83.996 31.54 84 31.324 84C31.3 84 31.288 83.976 31.288 83.928C31.288 83.88 31.3 83.856 31.324 83.856C31.652 83.856 31.912 83.732 32.104 83.484C32.296 83.236 32.396 82.9 32.404 82.476L32.512 77.508L32.5 77.496C32.34 77.2 32.172 76.984 31.996 76.848C31.828 76.712 31.632 76.644 31.408 76.644C31.384 76.644 31.372 76.62 31.372 76.572C31.372 76.524 31.384 76.5 31.408 76.5L31.972 76.512C32.084 76.52 32.228 76.524 32.404 76.524L33.04 76.512C33.112 76.504 33.204 76.5 33.316 76.5C33.42 76.5 33.5 76.536 33.556 76.608C33.612 76.68 33.716 76.852 33.868 77.124L36.484 82.032L38.764 76.8C38.812 76.688 38.86 76.612 38.908 76.572C38.964 76.524 39.036 76.5 39.124 76.5C39.196 76.5 39.276 76.504 39.364 76.512C39.46 76.52 39.568 76.524 39.688 76.524L40.396 76.512C40.508 76.504 40.668 76.5 40.876 76.5C40.9 76.5 40.912 76.524 40.912 76.572C40.912 76.62 40.9 76.644 40.876 76.644C40.5 76.644 40.228 76.72 40.06 76.872C39.892 77.024 39.816 77.26 39.832 77.58L40.12 83.028C40.136 83.276 40.164 83.456 40.204 83.568C40.252 83.68 40.332 83.756 40.444 83.796C40.564 83.836 40.748 83.856 40.996 83.856ZM45.9451 83.208C45.9611 83.208 45.9771 83.224 45.9931 83.256C46.0171 83.288 46.0211 83.312 46.0051 83.328C45.7091 83.616 45.4091 83.824 45.1051 83.952C44.8011 84.08 44.4691 84.144 44.1091 84.144C43.6051 84.144 43.1691 84.04 42.8011 83.832C42.4331 83.616 42.1531 83.332 41.9611 82.98C41.7691 82.62 41.6731 82.236 41.6731 81.828C41.6731 81.364 41.7931 80.936 42.0331 80.544C42.2731 80.144 42.6011 79.832 43.0171 79.608C43.4331 79.376 43.8971 79.26 44.4091 79.26C44.9051 79.26 45.2851 79.368 45.5491 79.584C45.8131 79.792 45.9451 80.08 45.9451 80.448C45.9451 80.68 45.9011 80.796 45.8131 80.796H45.0811L42.9211 80.82C42.8971 80.972 42.8851 81.14 42.8851 81.324C42.8851 82.012 43.0451 82.556 43.3651 82.956C43.6931 83.356 44.1411 83.556 44.7091 83.556C44.9091 83.556 45.1171 83.528 45.3331 83.472C45.5491 83.416 45.7451 83.332 45.9211 83.22L45.9451 83.208ZM43.9651 79.5C43.7251 79.5 43.5171 79.596 43.3411 79.788C43.1651 79.98 43.0371 80.244 42.9571 80.58L44.6611 80.544C44.6371 79.848 44.4051 79.5 43.9651 79.5ZM52.3407 83.856C52.3567 83.856 52.3647 83.88 52.3647 83.928C52.3647 83.976 52.3567 84 52.3407 84C52.1167 84 51.9447 83.996 51.8247 83.988L51.1527 83.976L50.4447 83.988C50.3167 83.996 50.1407 84 49.9167 84C49.8927 84 49.8807 83.976 49.8807 83.928C49.8807 83.88 49.8927 83.856 49.9167 83.856C50.1087 83.856 50.2487 83.836 50.3367 83.796C50.4327 83.756 50.4967 83.68 50.5287 83.568C50.5607 83.448 50.5767 83.268 50.5767 83.028V81.828H48.4647V83.028C48.4647 83.268 48.4807 83.448 48.5127 83.568C48.5447 83.68 48.6047 83.756 48.6927 83.796C48.7807 83.836 48.9207 83.856 49.1127 83.856C49.1287 83.856 49.1367 83.88 49.1367 83.928C49.1367 83.976 49.1287 84 49.1127 84C48.8887 84 48.7167 83.996 48.5967 83.988L47.9247 83.976L47.2287 83.988C47.1007 83.996 46.9207 84 46.6887 84C46.6647 84 46.6527 83.976 46.6527 83.928C46.6527 83.88 46.6647 83.856 46.6887 83.856C46.8807 83.856 47.0207 83.836 47.1087 83.796C47.2047 83.756 47.2687 83.68 47.3007 83.568C47.3327 83.448 47.3487 83.268 47.3487 83.028V80.88C47.3487 80.36 47.2247 80.1 46.9767 80.1C46.8887 80.1 46.7847 80.128 46.6647 80.184H46.6527C46.6287 80.184 46.6087 80.164 46.5927 80.124C46.5767 80.076 46.5807 80.048 46.6047 80.04L48.2127 79.272C48.2287 79.264 48.2487 79.26 48.2727 79.26C48.3127 79.26 48.3527 79.28 48.3927 79.32C48.4407 79.352 48.4647 79.384 48.4647 79.416V81.54H50.5767V80.88C50.5767 80.36 50.4527 80.1 50.2047 80.1C50.1167 80.1 50.0127 80.128 49.8927 80.184H49.8807C49.8567 80.184 49.8367 80.164 49.8207 80.124C49.8047 80.076 49.8087 80.048 49.8327 80.04L51.4407 79.272C51.4567 79.264 51.4767 79.26 51.5007 79.26C51.5407 79.26 51.5807 79.28 51.6207 79.32C51.6687 79.352 51.6927 79.384 51.6927 79.416V83.028C51.6927 83.268 51.7087 83.448 51.7407 83.568C51.7727 83.68 51.8327 83.756 51.9207 83.796C52.0087 83.836 52.1487 83.856 52.3407 83.856ZM58.2843 79.212C58.7563 79.212 59.1643 79.328 59.5083 79.56C59.8603 79.792 60.1283 80.1 60.3123 80.484C60.4963 80.86 60.5883 81.264 60.5883 81.696C60.5883 82.176 60.4723 82.604 60.2403 82.98C60.0163 83.348 59.7123 83.636 59.3283 83.844C58.9523 84.052 58.5403 84.156 58.0923 84.156C57.6443 84.156 57.2483 84.052 56.9043 83.844C56.5603 83.636 56.2883 83.356 56.0883 83.004C55.8963 82.644 55.7843 82.252 55.7523 81.828H54.6723V83.028C54.6723 83.348 54.7163 83.568 54.8043 83.688C54.9003 83.8 55.0723 83.856 55.3203 83.856C55.3523 83.856 55.3683 83.88 55.3683 83.928C55.3683 83.976 55.3523 84 55.3203 84C55.1123 84 54.9443 83.996 54.8163 83.988L54.1203 83.976L53.4003 83.988C53.2803 83.996 53.1163 84 52.9083 84C52.8923 84 52.8843 83.976 52.8843 83.928C52.8843 83.88 52.8923 83.856 52.9083 83.856C53.1563 83.856 53.3243 83.8 53.4123 83.688C53.5083 83.568 53.5563 83.348 53.5563 83.028V76.932C53.5563 76.652 53.5283 76.452 53.4723 76.332C53.4243 76.212 53.3363 76.152 53.2083 76.152C53.0963 76.152 52.9443 76.196 52.7523 76.284H52.7403C52.7163 76.284 52.6923 76.264 52.6683 76.224C52.6522 76.176 52.6522 76.148 52.6683 76.14L54.4202 75.312L54.4803 75.3C54.5203 75.3 54.5603 75.32 54.6003 75.36C54.6483 75.392 54.6723 75.424 54.6723 75.456V81.54H55.7523C55.7683 81.036 55.9043 80.608 56.1603 80.256C56.4163 79.904 56.7323 79.644 57.1083 79.476C57.4923 79.3 57.8843 79.212 58.2843 79.212ZM58.4643 83.904C59.0483 83.904 59.3403 83.332 59.3403 82.188C59.3403 81.564 59.2643 81.048 59.1123 80.64C58.9603 80.232 58.7683 79.936 58.5363 79.752C58.3043 79.568 58.0723 79.476 57.8403 79.476C57.2723 79.476 56.9883 80.02 56.9883 81.108C56.9883 81.7 57.0603 82.208 57.2043 82.632C57.3483 83.056 57.5323 83.376 57.7563 83.592C57.9803 83.8 58.2163 83.904 58.4643 83.904Z" fill="black"/>
<path d="M145.767 19.0049C136.507 18.7882 134.372 25.8191 133.881 29.1992C133.391 25.8191 131.256 18.7882 121.995 19.0049C109.826 19.2974 108.203 32.8609 112.463 39.7185C116.712 46.5761 118.912 48.7645 123.172 53.1412C127.181 57.258 131.964 61.9055 133.729 64.7439C133.729 64.7439 133.827 65.0797 133.871 64.9822C133.925 65.0689 134.012 64.7439 134.012 64.7439C135.777 61.9055 140.571 57.2688 144.569 53.1412C148.818 48.7645 151.019 46.5761 155.279 39.7185C159.527 32.8609 157.915 19.2974 145.746 19.0049H145.767Z" fill="url(#paint5_linear_238_11597)" stroke="black" stroke-linecap="round" stroke-linejoin="round"/>
<path d="M143.447 20.9658C135.995 20.7925 134.284 26.4476 133.892 29.1668C133.5 26.4476 131.779 20.7925 124.338 20.9658C114.543 21.2041 113.247 32.1135 116.668 37.6277C120.089 43.142 121.865 44.897 125.286 48.4178C128.51 51.7329 132.356 55.4597 133.783 57.7455C133.783 57.7455 133.86 58.0164 133.903 57.9405C133.947 58.0164 134.023 57.7455 134.023 57.7455C135.45 55.4597 139.296 51.7329 142.521 48.4178C145.942 44.897 147.717 43.142 151.138 37.6277C154.559 32.1135 153.263 21.2041 143.469 20.9658H143.447Z" fill="url(#paint6_linear_238_11597)" stroke="black" stroke-linecap="round" stroke-linejoin="round"/>
<path d="M127 34.4167H129.75C129.993 34.4167 130.226 34.3201 130.398 34.1482C130.57 33.9763 130.667 33.7431 130.667 33.5V32.5833C130.667 32.0971 130.86 31.6308 131.204 31.287C131.547 30.9432 132.014 30.75 132.5 30.75C132.986 30.75 133.452 30.9432 133.796 31.287C134.14 31.6308 134.333 32.0971 134.333 32.5833V33.5C134.333 33.7431 134.43 33.9763 134.602 34.1482C134.774 34.3201 135.007 34.4167 135.25 34.4167H138C138.243 34.4167 138.476 34.5132 138.648 34.6852C138.82 34.8571 138.917 35.0902 138.917 35.3333V38.0833C138.917 38.3264 139.013 38.5596 139.185 38.7315C139.357 38.9034 139.59 39 139.833 39H140.75C141.236 39 141.702 39.1932 142.046 39.537C142.39 39.8808 142.583 40.3471 142.583 40.8333C142.583 41.3196 142.39 41.7859 142.046 42.1297C141.702 42.4735 141.236 42.6667 140.75 42.6667H139.833C139.59 42.6667 139.357 42.7632 139.185 42.9352C139.013 43.1071 138.917 43.3402 138.917 43.5833V46.3333C138.917 46.5764 138.82 46.8096 138.648 46.9815C138.476 47.1534 138.243 47.25 138 47.25H135.25C135.007 47.25 134.774 47.1534 134.602 46.9815C134.43 46.8096 134.333 46.5764 134.333 46.3333V45.4167C134.333 44.9304 134.14 44.4641 133.796 44.1203C133.452 43.7765 132.986 43.5833 132.5 43.5833C132.014 43.5833 131.547 43.7765 131.204 44.1203C130.86 44.4641 130.667 44.9304 130.667 45.4167V46.3333C130.667 46.5764 130.57 46.8096 130.398 46.9815C130.226 47.1534 129.993 47.25 129.75 47.25H127C126.757 47.25 126.524 47.1534 126.352 46.9815C126.18 46.8096 126.083 46.5764 126.083 46.3333V43.5833C126.083 43.3402 126.18 43.1071 126.352 42.9352C126.524 42.7632 126.757 42.6667 127 42.6667H127.917C128.403 42.6667 128.869 42.4735 129.213 42.1297C129.557 41.7859 129.75 41.3196 129.75 40.8333C129.75 40.3471 129.557 39.8808 129.213 39.537C128.869 39.1932 128.403 39 127.917 39H127C126.757 39 126.524 38.9034 126.352 38.7315C126.18 38.5596 126.083 38.3264 126.083 38.0833V35.3333C126.083 35.0902 126.18 34.8571 126.352 34.6852C126.524 34.5132 126.757 34.4167 127 34.4167Z" stroke="black" stroke-width="0.916667" stroke-linecap="round" stroke-linejoin="round"/>
<path d="M119.445 83.856C119.469 83.856 119.481 83.88 119.481 83.928C119.481 83.976 119.469 84 119.445 84H117.597C117.493 84 117.397 83.968 117.309 83.904C117.229 83.84 117.085 83.676 116.877 83.412C116.669 83.14 116.329 82.664 115.857 81.984L115.533 81.528C115.253 81.12 115.045 80.836 114.909 80.676C114.773 80.508 114.629 80.392 114.477 80.328C114.333 80.256 114.141 80.22 113.901 80.22V83.028C113.901 83.268 113.921 83.448 113.961 83.568C114.009 83.68 114.097 83.756 114.225 83.796C114.353 83.836 114.553 83.856 114.825 83.856C114.849 83.856 114.861 83.88 114.861 83.928C114.861 83.976 114.849 84 114.825 84C114.545 84 114.321 83.996 114.153 83.988L113.157 83.976L112.281 83.988C112.121 83.996 111.905 84 111.633 84C111.609 84 111.597 83.976 111.597 83.928C111.597 83.88 111.609 83.856 111.633 83.856C111.905 83.856 112.105 83.836 112.233 83.796C112.361 83.756 112.449 83.68 112.497 83.568C112.545 83.448 112.569 83.268 112.569 83.028V77.472C112.569 77.232 112.545 77.056 112.497 76.944C112.449 76.832 112.361 76.756 112.233 76.716C112.113 76.668 111.917 76.644 111.645 76.644C111.621 76.644 111.609 76.62 111.609 76.572C111.609 76.524 111.621 76.5 111.645 76.5L112.281 76.512C112.649 76.528 112.941 76.536 113.157 76.536C113.429 76.536 113.765 76.528 114.165 76.512L114.825 76.5C114.849 76.5 114.861 76.524 114.861 76.572C114.861 76.62 114.849 76.644 114.825 76.644C114.561 76.644 114.365 76.668 114.237 76.716C114.109 76.764 114.021 76.848 113.973 76.968C113.925 77.08 113.901 77.256 113.901 77.496V80.016C114.117 80.008 114.389 80.004 114.717 80.004L115.977 78.276C116.305 77.82 116.469 77.44 116.469 77.136C116.469 76.984 116.425 76.864 116.337 76.776C116.249 76.688 116.129 76.644 115.977 76.644C115.961 76.644 115.953 76.62 115.953 76.572C115.953 76.524 115.961 76.5 115.977 76.5L116.529 76.512C116.881 76.528 117.193 76.536 117.465 76.536C117.777 76.536 118.101 76.528 118.437 76.512L118.953 76.5C118.977 76.5 118.989 76.524 118.989 76.572C118.989 76.62 118.977 76.644 118.953 76.644C118.601 76.644 118.205 76.772 117.765 77.028C117.325 77.284 116.953 77.604 116.649 77.988L115.017 80.016C115.329 80.032 115.585 80.092 115.785 80.196C115.985 80.292 116.181 80.448 116.373 80.664C116.573 80.88 116.853 81.24 117.213 81.744L117.429 82.044C117.765 82.508 118.025 82.856 118.209 83.088C118.401 83.32 118.597 83.504 118.797 83.64C118.997 83.776 119.213 83.848 119.445 83.856ZM122.793 79.38C123.177 79.404 123.533 79.512 123.861 79.704C124.189 79.896 124.449 80.168 124.641 80.52C124.841 80.872 124.941 81.288 124.941 81.768C124.941 82.496 124.725 83.076 124.293 83.508C123.861 83.94 123.221 84.156 122.373 84.156C121.805 84.156 121.333 84.048 120.957 83.832C120.581 83.616 120.289 83.216 120.081 82.632C119.873 82.048 119.769 81.216 119.769 80.136C119.769 78.336 120.017 77.08 120.513 76.368C121.009 75.656 121.709 75.3 122.613 75.3C123.189 75.3 123.625 75.424 123.921 75.672C124.217 75.92 124.365 76.288 124.365 76.776C124.365 77.288 124.213 77.788 123.909 78.276C123.613 78.756 123.241 79.124 122.793 79.38ZM122.313 75.504C121.905 75.504 121.601 75.816 121.401 76.44C121.209 77.064 121.109 78.064 121.101 79.44C121.237 79.448 121.397 79.452 121.581 79.452C121.869 79.452 122.133 79.34 122.373 79.116C122.613 78.892 122.801 78.592 122.937 78.216C123.081 77.832 123.153 77.42 123.153 76.98C123.153 76.5 123.077 76.136 122.925 75.888C122.773 75.632 122.569 75.504 122.313 75.504ZM122.625 83.94C122.977 83.94 123.229 83.816 123.381 83.568C123.541 83.312 123.621 82.884 123.621 82.284C123.621 81.42 123.445 80.776 123.093 80.352C122.749 79.92 122.249 79.704 121.593 79.704C121.401 79.704 121.237 79.72 121.101 79.752C121.101 80.872 121.161 81.74 121.281 82.356C121.409 82.964 121.581 83.38 121.797 83.604C122.021 83.828 122.297 83.94 122.625 83.94ZM129.97 83.208C129.986 83.208 130.002 83.224 130.018 83.256C130.042 83.288 130.046 83.312 130.03 83.328C129.734 83.616 129.434 83.824 129.13 83.952C128.826 84.08 128.494 84.144 128.134 84.144C127.63 84.144 127.194 84.04 126.826 83.832C126.458 83.616 126.178 83.332 125.986 82.98C125.794 82.62 125.698 82.236 125.698 81.828C125.698 81.364 125.818 80.936 126.058 80.544C126.298 80.144 126.626 79.832 127.042 79.608C127.458 79.376 127.922 79.26 128.434 79.26C128.93 79.26 129.31 79.368 129.574 79.584C129.838 79.792 129.97 80.08 129.97 80.448C129.97 80.68 129.926 80.796 129.838 80.796H129.106L126.946 80.82C126.922 80.972 126.91 81.14 126.91 81.324C126.91 82.012 127.07 82.556 127.39 82.956C127.718 83.356 128.166 83.556 128.734 83.556C128.934 83.556 129.142 83.528 129.358 83.472C129.574 83.416 129.77 83.332 129.946 83.22L129.97 83.208ZM127.99 79.5C127.75 79.5 127.542 79.596 127.366 79.788C127.19 79.98 127.062 80.244 126.982 80.58L128.686 80.544C128.662 79.848 128.43 79.5 127.99 79.5ZM133.067 84.144C132.539 84.144 132.091 84.032 131.723 83.808C131.363 83.576 131.091 83.28 130.907 82.92C130.731 82.552 130.643 82.168 130.643 81.768C130.643 81.264 130.783 80.824 131.063 80.448C131.343 80.064 131.699 79.772 132.131 79.572C132.571 79.364 133.019 79.26 133.475 79.26C133.859 79.26 134.203 79.34 134.507 79.5C134.819 79.66 134.975 79.88 134.975 80.16C134.975 80.312 134.915 80.444 134.795 80.556C134.683 80.66 134.523 80.712 134.315 80.712C134.123 80.712 133.971 80.664 133.859 80.568C133.747 80.464 133.655 80.308 133.583 80.1C133.511 79.876 133.439 79.724 133.367 79.644C133.303 79.556 133.183 79.512 133.007 79.512C132.663 79.512 132.387 79.684 132.179 80.028C131.979 80.364 131.879 80.812 131.879 81.372C131.879 82.036 132.027 82.568 132.323 82.968C132.619 83.36 133.091 83.556 133.739 83.556C133.955 83.556 134.139 83.532 134.291 83.484C134.451 83.436 134.651 83.356 134.891 83.244H134.903C134.927 83.244 134.947 83.256 134.963 83.28C134.987 83.304 134.991 83.324 134.975 83.34C134.679 83.612 134.383 83.816 134.087 83.952C133.791 84.08 133.451 84.144 133.067 84.144ZM144.465 83.856C144.497 83.856 144.513 83.88 144.513 83.928C144.513 83.976 144.497 84 144.465 84C144.257 84 144.093 83.996 143.973 83.988L143.253 83.976L142.557 83.988C142.429 83.996 142.261 84 142.053 84C142.029 84 142.017 83.976 142.017 83.928C142.017 83.88 142.029 83.856 142.053 83.856C142.301 83.856 142.469 83.8 142.557 83.688C142.653 83.568 142.701 83.348 142.701 83.028V81.3C142.701 80.868 142.625 80.548 142.473 80.34C142.329 80.132 142.105 80.028 141.801 80.028C141.593 80.028 141.389 80.072 141.189 80.16C140.989 80.248 140.817 80.368 140.673 80.52V80.592V83.028C140.673 83.348 140.717 83.568 140.805 83.688C140.901 83.8 141.073 83.856 141.321 83.856C141.353 83.856 141.369 83.88 141.369 83.928C141.369 83.976 141.353 84 141.321 84C141.113 84 140.949 83.996 140.829 83.988L140.109 83.976L139.413 83.988C139.285 83.996 139.117 84 138.909 84C138.885 84 138.873 83.976 138.873 83.928C138.873 83.88 138.885 83.856 138.909 83.856C139.157 83.856 139.325 83.8 139.413 83.688C139.509 83.568 139.557 83.348 139.557 83.028V81.3C139.557 80.868 139.481 80.548 139.329 80.34C139.185 80.132 138.961 80.028 138.657 80.028C138.465 80.028 138.273 80.068 138.081 80.148C137.897 80.22 137.733 80.324 137.589 80.46V83.028C137.589 83.348 137.633 83.568 137.721 83.688C137.817 83.8 137.989 83.856 138.237 83.856C138.261 83.856 138.273 83.88 138.273 83.928C138.273 83.976 138.261 84 138.237 84C138.029 84 137.865 83.996 137.745 83.988L137.025 83.976L136.317 83.988C136.197 83.996 136.033 84 135.825 84C135.801 84 135.789 83.976 135.789 83.928C135.789 83.88 135.801 83.856 135.825 83.856C136.073 83.856 136.241 83.8 136.329 83.688C136.417 83.568 136.461 83.348 136.461 83.028V80.772C136.461 80.524 136.429 80.344 136.365 80.232C136.309 80.112 136.217 80.052 136.089 80.052C135.953 80.052 135.761 80.108 135.513 80.22H135.489C135.465 80.22 135.445 80.2 135.429 80.16C135.421 80.12 135.425 80.096 135.441 80.088L137.109 79.272C137.157 79.256 137.185 79.248 137.193 79.248C137.281 79.248 137.365 79.336 137.445 79.512C137.525 79.68 137.573 79.908 137.589 80.196C138.133 79.548 138.717 79.224 139.341 79.224C139.717 79.224 140.017 79.316 140.241 79.5C140.465 79.684 140.601 79.948 140.649 80.292C141.201 79.58 141.813 79.224 142.485 79.224C142.917 79.224 143.245 79.348 143.469 79.596C143.701 79.844 143.817 80.22 143.817 80.724V83.028C143.817 83.348 143.861 83.568 143.949 83.688C144.045 83.8 144.217 83.856 144.465 83.856ZM152.425 83.856C152.449 83.856 152.461 83.88 152.461 83.928C152.461 83.976 152.449 84 152.425 84C152.217 84 152.053 83.996 151.933 83.988L151.213 83.976L150.505 83.988C150.385 83.996 150.221 84 150.013 84C149.989 84 149.977 83.976 149.977 83.928C149.977 83.88 149.989 83.856 150.013 83.856C150.261 83.856 150.429 83.8 150.517 83.688C150.605 83.568 150.649 83.348 150.649 83.028V80.88C150.649 80.608 150.621 80.412 150.565 80.292C150.509 80.172 150.417 80.112 150.289 80.112C150.185 80.112 150.037 80.156 149.845 80.244H149.833C149.801 80.244 149.777 80.224 149.761 80.184C149.745 80.136 149.749 80.108 149.773 80.1L151.585 79.26L151.621 79.248C151.661 79.248 151.701 79.268 151.741 79.308C151.781 79.348 151.801 79.384 151.801 79.416V79.68C151.785 80 151.777 80.392 151.777 80.856V83.028C151.777 83.348 151.821 83.568 151.909 83.688C152.005 83.8 152.177 83.856 152.425 83.856ZM147.661 81.252C148.285 81.252 148.749 81.364 149.053 81.588C149.357 81.812 149.509 82.152 149.509 82.608C149.509 83.088 149.337 83.468 148.993 83.748C148.657 84.02 148.129 84.156 147.409 84.156C146.185 84.156 145.573 83.756 145.573 82.956V80.88C145.573 80.36 145.449 80.1 145.201 80.1C145.113 80.1 145.013 80.128 144.901 80.184H144.889C144.857 80.184 144.833 80.164 144.817 80.124C144.801 80.076 144.805 80.048 144.829 80.04L146.437 79.272L146.497 79.26C146.537 79.26 146.577 79.28 146.617 79.32C146.665 79.352 146.689 79.384 146.689 79.416V81.36C146.985 81.288 147.309 81.252 147.661 81.252ZM147.565 83.976C148.061 83.976 148.309 83.6 148.309 82.848C148.309 81.96 147.949 81.516 147.229 81.516C147.061 81.516 146.881 81.54 146.689 81.588V82.608C146.689 83.048 146.761 83.388 146.905 83.628C147.057 83.86 147.277 83.976 147.565 83.976Z" fill="black"/>
<path d="M244.392 36.2303C239.481 31.0317 233.778 25.961 231.384 23.3027C229.587 21.3039 228.319 19.7876 227.802 19.1575C227.761 19.1083 227.71 19.0492 227.67 19C227.629 19.0492 227.578 19.1083 227.538 19.1575C227.02 19.7876 225.742 21.3039 223.956 23.3027C221.571 25.961 215.858 31.0317 210.947 36.2303C206.036 41.429 205.64 46.6177 206.563 50.9302C207.497 55.2427 212.134 59.2894 219.44 58.4033C221.733 58.1276 223.408 57.0544 224.625 55.7252C223.804 61.8198 220.404 65 220.404 65H234.56C231.972 62.2038 231.059 58.226 230.734 55.7645C231.952 57.074 233.616 58.1276 235.889 58.4033C243.185 59.2894 247.832 55.2329 248.766 50.9302C249.699 46.6177 249.293 41.429 244.382 36.2303H244.392Z" fill="url(#paint7_linear_238_11597)" stroke="black" stroke-linecap="round" stroke-linejoin="round"/>
<path d="M240.475 38.3177C236.711 34.3399 232.337 30.4508 230.511 28.4127C229.141 26.8866 228.167 25.7248 227.761 25.2325C227.73 25.1931 227.69 25.1537 227.659 25.1045C227.629 25.1439 227.588 25.1833 227.558 25.2325C227.162 25.7149 226.188 26.8767 224.808 28.4127C222.982 30.4508 218.608 34.3399 214.844 38.3177C211.079 42.2954 210.775 46.283 211.485 49.5814C212.195 52.8798 215.757 55.9911 221.348 55.3117C223.103 55.0951 224.392 54.2779 225.326 53.2637C225.042 54.8785 224.554 56.8575 223.682 59.0138C222.677 61.5146 221.459 63.5133 220.404 65H234.56C233.464 63.2376 232.266 60.973 231.312 58.226C230.693 56.4341 230.288 54.7702 230.014 53.2933C230.947 54.2976 232.226 55.1049 233.961 55.3117C239.552 55.9911 243.114 52.8798 243.824 49.5814C244.534 46.283 244.23 42.2954 240.465 38.3177H240.475Z" fill="url(#paint8_linear_238_11597)" stroke="black" stroke-linecap="round" stroke-linejoin="round"/>
<path d="M232.063 39.8145H223.276C222.334 39.8145 221.571 40.555 221.571 41.4686V48.6265C221.571 49.54 222.334 50.2806 223.276 50.2806H232.063C233.005 50.2806 233.768 49.54 233.768 48.6265V41.4686C233.768 40.555 233.005 39.8145 232.063 39.8145Z" stroke="black" stroke-miterlimit="10"/>
<path d="M232.452 39.4656L234.57 37.6882C235.092 37.2498 234.493 35.6756 233.236 34.1774L232.011 32.7172C230.754 31.2189 229.307 30.3554 228.785 30.7938L226.667 32.5712" stroke="black" stroke-linecap="round" stroke-linejoin="round"/>
<path d="M227.67 44.8946C228.32 44.8946 228.847 44.3833 228.847 43.7525C228.847 43.1217 228.32 42.6104 227.67 42.6104C227.019 42.6104 226.492 43.1217 226.492 43.7525C226.492 44.3833 227.019 44.8946 227.67 44.8946Z" fill="black"/>
<path d="M228.836 48.0652H226.492L227.101 44.3828H228.228L228.836 48.0652Z" fill="black"/>
<path d="M201.059 84.144C200.315 84.144 199.651 83.972 199.067 83.628C198.491 83.276 198.043 82.804 197.723 82.212C197.411 81.612 197.255 80.96 197.255 80.256C197.255 79.432 197.463 78.728 197.879 78.144C198.295 77.552 198.827 77.108 199.475 76.812C200.131 76.516 200.799 76.368 201.479 76.368C202.239 76.368 202.907 76.548 203.483 76.908C204.059 77.26 204.499 77.728 204.803 78.312C205.115 78.896 205.271 79.516 205.271 80.172C205.271 80.9 205.079 81.568 204.695 82.176C204.311 82.784 203.795 83.264 203.147 83.616C202.507 83.968 201.811 84.144 201.059 84.144ZM201.455 83.844C201.903 83.844 202.303 83.716 202.655 83.46C203.015 83.196 203.295 82.816 203.495 82.32C203.695 81.816 203.795 81.216 203.795 80.52C203.795 79.784 203.683 79.128 203.459 78.552C203.235 77.968 202.911 77.512 202.487 77.184C202.063 76.856 201.567 76.692 200.999 76.692C200.271 76.692 199.711 76.968 199.319 77.52C198.927 78.064 198.731 78.828 198.731 79.812C198.731 80.588 198.847 81.284 199.079 81.9C199.319 82.508 199.643 82.984 200.051 83.328C200.467 83.672 200.935 83.844 201.455 83.844ZM214.962 83.856C214.994 83.856 215.01 83.88 215.01 83.928C215.01 83.976 214.994 84 214.962 84C214.754 84 214.59 83.996 214.47 83.988L213.75 83.976L213.054 83.988C212.926 83.996 212.758 84 212.55 84C212.526 84 212.514 83.976 212.514 83.928C212.514 83.88 212.526 83.856 212.55 83.856C212.798 83.856 212.966 83.8 213.054 83.688C213.15 83.568 213.198 83.348 213.198 83.028V81.3C213.198 80.868 213.122 80.548 212.97 80.34C212.826 80.132 212.602 80.028 212.298 80.028C212.09 80.028 211.886 80.072 211.686 80.16C211.486 80.248 211.314 80.368 211.17 80.52V80.592V83.028C211.17 83.348 211.214 83.568 211.302 83.688C211.398 83.8 211.57 83.856 211.818 83.856C211.85 83.856 211.866 83.88 211.866 83.928C211.866 83.976 211.85 84 211.818 84C211.61 84 211.446 83.996 211.326 83.988L210.606 83.976L209.91 83.988C209.782 83.996 209.614 84 209.406 84C209.382 84 209.37 83.976 209.37 83.928C209.37 83.88 209.382 83.856 209.406 83.856C209.654 83.856 209.822 83.8 209.91 83.688C210.006 83.568 210.054 83.348 210.054 83.028V81.3C210.054 80.868 209.978 80.548 209.826 80.34C209.682 80.132 209.458 80.028 209.154 80.028C208.962 80.028 208.77 80.068 208.578 80.148C208.394 80.22 208.23 80.324 208.086 80.46V83.028C208.086 83.348 208.13 83.568 208.218 83.688C208.314 83.8 208.486 83.856 208.734 83.856C208.758 83.856 208.77 83.88 208.77 83.928C208.77 83.976 208.758 84 208.734 84C208.526 84 208.362 83.996 208.242 83.988L207.522 83.976L206.814 83.988C206.694 83.996 206.53 84 206.322 84C206.298 84 206.286 83.976 206.286 83.928C206.286 83.88 206.298 83.856 206.322 83.856C206.57 83.856 206.738 83.8 206.826 83.688C206.914 83.568 206.958 83.348 206.958 83.028V80.772C206.958 80.524 206.926 80.344 206.862 80.232C206.806 80.112 206.714 80.052 206.586 80.052C206.45 80.052 206.258 80.108 206.01 80.22H205.986C205.962 80.22 205.942 80.2 205.926 80.16C205.918 80.12 205.922 80.096 205.938 80.088L207.606 79.272C207.654 79.256 207.682 79.248 207.69 79.248C207.778 79.248 207.862 79.336 207.942 79.512C208.022 79.68 208.07 79.908 208.086 80.196C208.63 79.548 209.214 79.224 209.838 79.224C210.214 79.224 210.514 79.316 210.738 79.5C210.962 79.684 211.098 79.948 211.146 80.292C211.698 79.58 212.31 79.224 212.982 79.224C213.414 79.224 213.742 79.348 213.966 79.596C214.198 79.844 214.314 80.22 214.314 80.724V83.028C214.314 83.348 214.358 83.568 214.446 83.688C214.542 83.8 214.714 83.856 214.962 83.856ZM220.918 83.856C220.942 83.856 220.954 83.88 220.954 83.928C220.954 83.976 220.942 84 220.918 84H219.49C219.474 84 219.438 84 219.382 84C219.326 84.008 219.23 83.924 219.094 83.748C218.958 83.572 218.734 83.272 218.422 82.848L218.17 82.5C217.994 82.244 217.866 82.068 217.786 81.972C217.706 81.876 217.622 81.808 217.534 81.768C217.454 81.728 217.342 81.708 217.198 81.708V83.028C217.198 83.268 217.214 83.448 217.246 83.568C217.278 83.68 217.338 83.756 217.426 83.796C217.522 83.836 217.662 83.856 217.846 83.856C217.87 83.856 217.882 83.88 217.882 83.928C217.882 83.976 217.87 84 217.846 84C217.622 84 217.45 83.996 217.33 83.988L216.658 83.976L215.962 83.988C215.834 83.996 215.654 84 215.422 84C215.398 84 215.386 83.976 215.386 83.928C215.386 83.88 215.398 83.856 215.422 83.856C215.614 83.856 215.754 83.836 215.842 83.796C215.938 83.756 216.002 83.68 216.034 83.568C216.066 83.448 216.082 83.268 216.082 83.028V76.932C216.082 76.652 216.054 76.452 215.998 76.332C215.95 76.212 215.862 76.152 215.734 76.152C215.622 76.152 215.47 76.196 215.278 76.284H215.266C215.242 76.284 215.218 76.264 215.194 76.224C215.178 76.176 215.178 76.148 215.194 76.14L216.946 75.312L217.006 75.3C217.046 75.3 217.086 75.32 217.126 75.36C217.174 75.392 217.198 75.424 217.198 75.456V81.48L217.774 81.468C217.934 81.468 218.114 81.252 218.314 80.82C218.618 80.204 218.882 79.788 219.106 79.572C219.338 79.356 219.586 79.248 219.85 79.248C220.082 79.248 220.254 79.304 220.366 79.416C220.486 79.52 220.546 79.66 220.546 79.836C220.546 80.02 220.494 80.168 220.39 80.28C220.286 80.392 220.134 80.448 219.934 80.448C219.814 80.448 219.69 80.416 219.562 80.352C219.434 80.288 219.318 80.256 219.214 80.256C219.086 80.256 218.978 80.3 218.89 80.388C218.81 80.468 218.702 80.644 218.566 80.916C218.446 81.172 218.322 81.364 218.194 81.492C218.386 81.508 218.542 81.556 218.662 81.636C218.79 81.708 218.906 81.804 219.01 81.924C219.122 82.044 219.31 82.272 219.574 82.608C219.654 82.712 219.782 82.888 219.958 83.136C220.134 83.4 220.282 83.584 220.402 83.688C220.522 83.792 220.694 83.848 220.918 83.856ZM224.08 84.156C223.688 84.156 223.344 84.112 223.048 84.024V86.328C223.048 86.568 223.072 86.744 223.12 86.856C223.176 86.968 223.276 87.044 223.42 87.084C223.572 87.132 223.804 87.156 224.116 87.156C224.14 87.156 224.152 87.18 224.152 87.228C224.152 87.276 224.14 87.3 224.116 87.3C223.82 87.3 223.588 87.296 223.42 87.288L222.472 87.276L221.764 87.288C221.644 87.296 221.476 87.3 221.26 87.3C221.236 87.3 221.224 87.276 221.224 87.228C221.224 87.18 221.236 87.156 221.26 87.156C221.452 87.156 221.592 87.132 221.68 87.084C221.776 87.044 221.84 86.968 221.872 86.856C221.912 86.744 221.932 86.568 221.932 86.328V80.772C221.932 80.516 221.904 80.332 221.848 80.22C221.792 80.108 221.692 80.052 221.548 80.052C221.42 80.052 221.236 80.108 220.996 80.22H220.972C220.948 80.22 220.928 80.2 220.912 80.16C220.888 80.12 220.884 80.096 220.9 80.088L222.604 79.26C222.62 79.252 222.64 79.248 222.664 79.248C222.744 79.248 222.816 79.316 222.88 79.452C222.952 79.588 223 79.772 223.024 80.004C223.608 79.476 224.208 79.212 224.824 79.212C225.16 79.212 225.472 79.3 225.76 79.476C226.056 79.652 226.292 79.908 226.468 80.244C226.644 80.58 226.732 80.972 226.732 81.42C226.732 82.06 226.6 82.588 226.336 83.004C226.072 83.412 225.736 83.708 225.328 83.892C224.928 84.068 224.512 84.156 224.08 84.156ZM224.032 79.884C223.672 79.884 223.344 80.012 223.048 80.268V80.364V83.256C223.224 83.456 223.408 83.608 223.6 83.712C223.792 83.808 224.028 83.856 224.308 83.856C225.116 83.856 225.52 83.168 225.52 81.792C225.52 81.184 225.376 80.716 225.088 80.388C224.808 80.052 224.456 79.884 224.032 79.884ZM234.84 83.856C234.864 83.856 234.876 83.88 234.876 83.928C234.876 83.976 234.864 84 234.84 84C234.632 84 234.468 83.996 234.348 83.988L233.628 83.976L232.92 83.988C232.8 83.996 232.636 84 232.428 84C232.404 84 232.392 83.976 232.392 83.928C232.392 83.88 232.404 83.856 232.428 83.856C232.676 83.856 232.844 83.8 232.932 83.688C233.02 83.568 233.064 83.348 233.064 83.028V80.88C233.064 80.608 233.036 80.412 232.98 80.292C232.924 80.172 232.832 80.112 232.704 80.112C232.6 80.112 232.452 80.156 232.26 80.244H232.248C232.216 80.244 232.192 80.224 232.176 80.184C232.16 80.136 232.164 80.108 232.188 80.1L234 79.26L234.036 79.248C234.076 79.248 234.116 79.268 234.156 79.308C234.196 79.348 234.216 79.384 234.216 79.416V79.68C234.2 80 234.192 80.392 234.192 80.856V83.028C234.192 83.348 234.236 83.568 234.324 83.688C234.42 83.8 234.592 83.856 234.84 83.856ZM230.076 81.252C230.7 81.252 231.164 81.364 231.468 81.588C231.772 81.812 231.924 82.152 231.924 82.608C231.924 83.088 231.752 83.468 231.408 83.748C231.072 84.02 230.544 84.156 229.824 84.156C228.6 84.156 227.988 83.756 227.988 82.956V80.88C227.988 80.36 227.864 80.1 227.616 80.1C227.528 80.1 227.428 80.128 227.316 80.184H227.304C227.272 80.184 227.248 80.164 227.232 80.124C227.216 80.076 227.22 80.048 227.244 80.04L228.852 79.272L228.912 79.26C228.952 79.26 228.992 79.28 229.032 79.32C229.08 79.352 229.104 79.384 229.104 79.416V81.36C229.4 81.288 229.724 81.252 230.076 81.252ZM229.98 83.976C230.476 83.976 230.724 83.6 230.724 82.848C230.724 81.96 230.364 81.516 229.644 81.516C229.476 81.516 229.296 81.54 229.104 81.588V82.608C229.104 83.048 229.176 83.388 229.32 83.628C229.472 83.86 229.692 83.976 229.98 83.976ZM244.329 83.856C244.361 83.856 244.377 83.88 244.377 83.928C244.377 83.976 244.361 84 244.329 84C244.121 84 243.957 83.996 243.837 83.988L243.117 83.976L242.421 83.988C242.293 83.996 242.125 84 241.917 84C241.893 84 241.881 83.976 241.881 83.928C241.881 83.88 241.893 83.856 241.917 83.856C242.165 83.856 242.333 83.8 242.421 83.688C242.517 83.568 242.565 83.348 242.565 83.028V81.3C242.565 80.868 242.489 80.548 242.337 80.34C242.193 80.132 241.969 80.028 241.665 80.028C241.457 80.028 241.253 80.072 241.053 80.16C240.853 80.248 240.681 80.368 240.537 80.52V80.592V83.028C240.537 83.348 240.581 83.568 240.669 83.688C240.765 83.8 240.937 83.856 241.185 83.856C241.217 83.856 241.233 83.88 241.233 83.928C241.233 83.976 241.217 84 241.185 84C240.977 84 240.813 83.996 240.693 83.988L239.973 83.976L239.277 83.988C239.149 83.996 238.981 84 238.773 84C238.749 84 238.737 83.976 238.737 83.928C238.737 83.88 238.749 83.856 238.773 83.856C239.021 83.856 239.189 83.8 239.277 83.688C239.373 83.568 239.421 83.348 239.421 83.028V81.3C239.421 80.868 239.345 80.548 239.193 80.34C239.049 80.132 238.825 80.028 238.521 80.028C238.329 80.028 238.137 80.068 237.945 80.148C237.761 80.22 237.597 80.324 237.453 80.46V83.028C237.453 83.348 237.497 83.568 237.585 83.688C237.681 83.8 237.853 83.856 238.101 83.856C238.125 83.856 238.137 83.88 238.137 83.928C238.137 83.976 238.125 84 238.101 84C237.893 84 237.729 83.996 237.609 83.988L236.889 83.976L236.181 83.988C236.061 83.996 235.897 84 235.689 84C235.665 84 235.653 83.976 235.653 83.928C235.653 83.88 235.665 83.856 235.689 83.856C235.937 83.856 236.105 83.8 236.193 83.688C236.281 83.568 236.325 83.348 236.325 83.028V80.772C236.325 80.524 236.293 80.344 236.229 80.232C236.173 80.112 236.081 80.052 235.953 80.052C235.817 80.052 235.625 80.108 235.377 80.22H235.353C235.329 80.22 235.309 80.2 235.293 80.16C235.285 80.12 235.289 80.096 235.305 80.088L236.973 79.272C237.021 79.256 237.049 79.248 237.057 79.248C237.145 79.248 237.229 79.336 237.309 79.512C237.389 79.68 237.437 79.908 237.453 80.196C237.997 79.548 238.581 79.224 239.205 79.224C239.581 79.224 239.881 79.316 240.105 79.5C240.329 79.684 240.465 79.948 240.513 80.292C241.065 79.58 241.677 79.224 242.349 79.224C242.781 79.224 243.109 79.348 243.333 79.596C243.565 79.844 243.681 80.22 243.681 80.724V83.028C243.681 83.348 243.725 83.568 243.813 83.688C243.909 83.8 244.081 83.856 244.329 83.856ZM252.29 83.856C252.314 83.856 252.326 83.88 252.326 83.928C252.326 83.976 252.314 84 252.29 84C252.082 84 251.918 83.996 251.798 83.988L251.078 83.976L250.37 83.988C250.25 83.996 250.086 84 249.878 84C249.854 84 249.842 83.976 249.842 83.928C249.842 83.88 249.854 83.856 249.878 83.856C250.126 83.856 250.294 83.8 250.382 83.688C250.47 83.568 250.514 83.348 250.514 83.028V80.88C250.514 80.608 250.486 80.412 250.43 80.292C250.374 80.172 250.282 80.112 250.154 80.112C250.05 80.112 249.902 80.156 249.71 80.244H249.698C249.666 80.244 249.642 80.224 249.626 80.184C249.61 80.136 249.614 80.108 249.638 80.1L251.45 79.26L251.486 79.248C251.526 79.248 251.566 79.268 251.606 79.308C251.646 79.348 251.666 79.384 251.666 79.416V79.68C251.65 80 251.642 80.392 251.642 80.856V83.028C251.642 83.348 251.686 83.568 251.774 83.688C251.87 83.8 252.042 83.856 252.29 83.856ZM247.526 81.252C248.15 81.252 248.614 81.364 248.918 81.588C249.222 81.812 249.374 82.152 249.374 82.608C249.374 83.088 249.202 83.468 248.858 83.748C248.522 84.02 247.994 84.156 247.274 84.156C246.05 84.156 245.438 83.756 245.438 82.956V80.88C245.438 80.36 245.314 80.1 245.066 80.1C244.978 80.1 244.878 80.128 244.766 80.184H244.754C244.722 80.184 244.698 80.164 244.682 80.124C244.666 80.076 244.67 80.048 244.694 80.04L246.302 79.272L246.362 79.26C246.402 79.26 246.442 79.28 246.482 79.32C246.53 79.352 246.554 79.384 246.554 79.416V81.36C246.85 81.288 247.174 81.252 247.526 81.252ZM247.43 83.976C247.926 83.976 248.174 83.6 248.174 82.848C248.174 81.96 247.814 81.516 247.094 81.516C246.926 81.516 246.746 81.54 246.554 81.588V82.608C246.554 83.048 246.626 83.388 246.77 83.628C246.922 83.86 247.142 83.976 247.43 83.976ZM257.327 83.208C257.343 83.208 257.359 83.224 257.375 83.256C257.399 83.288 257.403 83.312 257.387 83.328C257.091 83.616 256.791 83.824 256.487 83.952C256.183 84.08 255.851 84.144 255.491 84.144C254.987 84.144 254.551 84.04 254.183 83.832C253.815 83.616 253.535 83.332 253.343 82.98C253.151 82.62 253.055 82.236 253.055 81.828C253.055 81.364 253.175 80.936 253.415 80.544C253.655 80.144 253.983 79.832 254.399 79.608C254.815 79.376 255.279 79.26 255.791 79.26C256.287 79.26 256.667 79.368 256.931 79.584C257.195 79.792 257.327 80.08 257.327 80.448C257.327 80.68 257.283 80.796 257.195 80.796H256.463L254.303 80.82C254.279 80.972 254.267 81.14 254.267 81.324C254.267 82.012 254.427 82.556 254.747 82.956C255.075 83.356 255.523 83.556 256.091 83.556C256.291 83.556 256.499 83.528 256.715 83.472C256.931 83.416 257.127 83.332 257.303 83.22L257.327 83.208ZM255.347 79.5C255.107 79.5 254.899 79.596 254.723 79.788C254.547 79.98 254.419 80.244 254.339 80.58L256.043 80.544C256.019 79.848 255.787 79.5 255.347 79.5Z" fill="black"/>
<path d="M335.255 19C332.464 23.3707 329.041 28.1445 324.85 33.0436C322.033 36.3306 319.242 39.2414 316.559 41.8209C319.982 45.2422 323.629 49.2278 327.275 53.8314C330.351 57.7095 332.99 61.4712 335.264 65C337.537 61.5787 340.176 57.9424 343.216 54.2076C347.041 49.5055 350.857 45.4572 354.441 42C351.267 39.1429 347.817 35.6858 344.331 31.5479C340.604 27.1145 337.626 22.8333 335.255 19Z" fill="#EB1C24"/>
<path d="M335.255 19C332.464 23.3707 329.041 28.1445 324.85 33.0436C322.033 36.3306 319.242 39.2414 316.559 41.8209C319.982 45.2422 323.629 49.2278 327.275 53.8314C330.351 57.7095 332.99 61.4712 335.264 65C337.537 61.5787 340.176 57.9424 343.216 54.2076C347.041 49.5055 350.857 45.4572 354.441 42C351.267 39.1429 347.817 35.6858 344.331 31.5479C340.604 27.1145 337.626 22.8333 335.255 19Z" fill="url(#paint9_radial_238_11597)"/>
<path d="M335.255 19C332.464 23.3707 329.041 28.1445 324.85 33.0436C322.033 36.3306 319.242 39.2414 316.559 41.8209C319.982 45.2422 323.629 49.2278 327.275 53.8314C330.351 57.7095 332.99 61.4712 335.264 65C337.537 61.5787 340.176 57.9424 343.216 54.2076C347.041 49.5055 350.857 45.4572 354.441 42C351.267 39.1429 347.817 35.6858 344.331 31.5479C340.604 27.1145 337.626 22.8333 335.255 19Z" stroke="black" stroke-linecap="round" stroke-linejoin="round"/>
<path d="M335.496 36.4648V47.526V36.4648Z" fill="#EB1C24"/>
<path d="M335.496 36.4648V47.526V36.4648Z" fill="url(#paint10_radial_238_11597)"/>
<path d="M335.496 36.4648V47.526" stroke="white" stroke-width="2" stroke-linecap="round" stroke-linejoin="round"/>
<path d="M341.005 42H329.995H341.005Z" fill="#EB1C24"/>
<path d="M341.005 42H329.995H341.005Z" fill="url(#paint11_radial_238_11597)"/>
<path d="M341.005 42H329.995" stroke="white" stroke-width="2" stroke-linecap="round" stroke-linejoin="round"/>
<path d="M306.052 76.368C306.404 76.368 306.772 76.4 307.156 76.464C307.54 76.52 307.84 76.596 308.056 76.692C308.128 76.716 308.172 76.748 308.188 76.788C308.212 76.82 308.232 76.88 308.248 76.968L308.392 78.636C308.392 78.66 308.372 78.676 308.332 78.684C308.292 78.692 308.268 78.68 308.26 78.648C307.988 78.016 307.624 77.528 307.168 77.184C306.712 76.84 306.184 76.668 305.584 76.668C304.792 76.668 304.18 76.96 303.748 77.544C303.316 78.128 303.1 78.912 303.1 79.896C303.1 80.632 303.216 81.304 303.448 81.912C303.688 82.52 304.02 83.004 304.444 83.364C304.876 83.716 305.364 83.892 305.908 83.892C306.42 83.892 306.876 83.724 307.276 83.388C307.684 83.044 308.048 82.524 308.368 81.828C308.376 81.796 308.4 81.784 308.44 81.792C308.488 81.8 308.512 81.816 308.512 81.84L308.332 83.472C308.316 83.568 308.296 83.632 308.272 83.664C308.256 83.688 308.212 83.716 308.14 83.748C307.428 84.012 306.696 84.144 305.944 84.144C304.968 84.144 304.152 83.952 303.496 83.568C302.84 83.176 302.356 82.684 302.044 82.092C301.74 81.492 301.588 80.868 301.588 80.22C301.588 79.46 301.792 78.788 302.2 78.204C302.616 77.62 303.164 77.168 303.844 76.848C304.532 76.528 305.268 76.368 306.052 76.368ZM311.871 84.156C311.375 84.156 310.939 84.044 310.563 83.82C310.195 83.588 309.911 83.28 309.711 82.896C309.511 82.504 309.411 82.08 309.411 81.624C309.411 81.104 309.543 80.664 309.807 80.304C310.071 79.936 310.407 79.664 310.815 79.488C311.223 79.304 311.643 79.212 312.075 79.212C312.571 79.212 313.003 79.328 313.371 79.56C313.739 79.792 314.019 80.1 314.211 80.484C314.411 80.86 314.511 81.264 314.511 81.696C314.511 82.176 314.391 82.604 314.151 82.98C313.911 83.348 313.587 83.636 313.179 83.844C312.779 84.052 312.343 84.156 311.871 84.156ZM312.231 83.904C312.543 83.904 312.779 83.752 312.939 83.448C313.107 83.136 313.191 82.692 313.191 82.116C313.191 81.556 313.119 81.076 312.975 80.676C312.831 80.276 312.643 79.976 312.411 79.776C312.179 79.568 311.931 79.464 311.667 79.464C311.027 79.464 310.707 80.036 310.707 81.18C310.707 81.716 310.775 82.192 310.911 82.608C311.047 83.016 311.231 83.336 311.463 83.568C311.695 83.792 311.951 83.904 312.231 83.904ZM317.514 82.848C317.946 82.864 318.314 82.972 318.618 83.172C318.93 83.372 319.166 83.628 319.326 83.94C319.486 84.252 319.566 84.584 319.566 84.936C319.566 85.4 319.454 85.816 319.23 86.184C319.014 86.552 318.702 86.84 318.294 87.048C317.894 87.264 317.434 87.372 316.914 87.372C316.346 87.372 315.882 87.292 315.522 87.132C315.162 86.98 314.982 86.756 314.982 86.46C314.982 86.252 315.038 86.096 315.15 85.992C315.27 85.896 315.414 85.848 315.582 85.848C315.814 85.848 315.982 85.9 316.086 86.004C316.198 86.108 316.306 86.268 316.41 86.484C316.514 86.7 316.622 86.864 316.734 86.976C316.854 87.088 317.038 87.144 317.286 87.144C317.606 87.144 317.842 86.948 317.994 86.556C318.146 86.164 318.222 85.676 318.222 85.092C318.222 83.692 317.538 82.992 316.17 82.992C316.146 82.992 316.13 82.968 316.122 82.92C316.114 82.872 316.13 82.848 316.17 82.848C316.762 82.848 317.178 82.696 317.418 82.392C317.658 82.08 317.778 81.64 317.778 81.072C317.778 80.544 317.718 80.144 317.598 79.872C317.478 79.6 317.274 79.464 316.986 79.464C316.818 79.464 316.622 79.536 316.398 79.68C316.182 79.816 315.97 80.016 315.762 80.28C315.554 80.536 315.378 80.832 315.234 81.168C315.226 81.176 315.21 81.18 315.186 81.18C315.114 81.18 315.082 81.164 315.09 81.132L315.474 79.116C315.474 79.1 315.49 79.092 315.522 79.092C315.546 79.092 315.57 79.1 315.594 79.116C315.618 79.124 315.626 79.132 315.618 79.14C315.61 79.172 315.606 79.216 315.606 79.272C315.606 79.352 315.622 79.412 315.654 79.452C315.694 79.484 315.742 79.5 315.798 79.5C315.894 79.5 316.026 79.468 316.194 79.404C316.37 79.348 316.542 79.304 316.71 79.272C316.878 79.232 317.078 79.212 317.31 79.212C317.886 79.212 318.33 79.368 318.642 79.68C318.954 79.984 319.11 80.364 319.11 80.82C319.11 81.252 318.966 81.656 318.678 82.032C318.398 82.408 318.01 82.68 317.514 82.848ZM324.551 79.224C324.559 79.216 324.571 79.212 324.587 79.212C324.603 79.212 324.619 79.22 324.635 79.236C324.659 79.244 324.671 79.256 324.671 79.272V84.84C324.671 85.592 324.447 86.2 323.999 86.664C323.551 87.136 322.923 87.372 322.115 87.372C321.587 87.372 321.155 87.292 320.819 87.132C320.483 86.98 320.315 86.756 320.315 86.46C320.315 86.252 320.375 86.096 320.495 85.992C320.615 85.896 320.759 85.848 320.927 85.848C321.151 85.848 321.315 85.9 321.419 86.004C321.531 86.108 321.639 86.264 321.743 86.472C321.847 86.688 321.955 86.848 322.067 86.952C322.187 87.064 322.371 87.12 322.619 87.12C322.899 87.12 323.123 86.976 323.291 86.688C323.459 86.4 323.543 85.88 323.543 85.128V83.376C323.279 83.616 323.015 83.808 322.751 83.952C322.495 84.088 322.207 84.156 321.887 84.156C321.559 84.156 321.255 84.076 320.975 83.916C320.703 83.748 320.487 83.504 320.327 83.184C320.167 82.864 320.087 82.48 320.087 82.032C320.087 81.464 320.219 80.968 320.483 80.544C320.747 80.112 321.095 79.784 321.527 79.56C321.959 79.336 322.423 79.224 322.919 79.224C323.351 79.224 323.739 79.328 324.083 79.536C324.267 79.456 324.423 79.352 324.551 79.224ZM322.499 83.52C322.819 83.52 323.167 83.392 323.543 83.136V80.544C323.543 80.232 323.455 79.976 323.279 79.776C323.111 79.576 322.887 79.476 322.607 79.476C322.207 79.476 321.891 79.676 321.659 80.076C321.435 80.476 321.323 80.992 321.323 81.624C321.323 82.224 321.423 82.692 321.623 83.028C321.831 83.356 322.123 83.52 322.499 83.52ZM331.148 83.22C331.172 83.22 331.192 83.24 331.208 83.28C331.232 83.32 331.232 83.344 331.208 83.352L329.552 84.156C329.536 84.164 329.516 84.168 329.492 84.168C329.42 84.168 329.352 84.096 329.288 83.952C329.232 83.808 329.196 83.612 329.18 83.364C328.916 83.612 328.652 83.808 328.388 83.952C328.124 84.088 327.832 84.156 327.512 84.156C327.184 84.156 326.88 84.076 326.6 83.916C326.328 83.748 326.112 83.504 325.952 83.184C325.792 82.864 325.712 82.48 325.712 82.032C325.712 81.464 325.844 80.968 326.108 80.544C326.372 80.112 326.72 79.784 327.152 79.56C327.584 79.336 328.048 79.224 328.544 79.224C328.976 79.224 329.364 79.328 329.708 79.536C329.892 79.456 330.048 79.352 330.176 79.224C330.184 79.216 330.196 79.212 330.212 79.212C330.228 79.212 330.244 79.22 330.26 79.236C330.284 79.244 330.296 79.256 330.296 79.272V82.692C330.296 82.932 330.32 83.104 330.368 83.208C330.424 83.304 330.512 83.352 330.632 83.352C330.736 83.352 330.9 83.308 331.124 83.22H331.148ZM328.124 83.52C328.444 83.52 328.792 83.392 329.168 83.136V83.016V80.544C329.168 80.232 329.08 79.976 328.904 79.776C328.736 79.576 328.512 79.476 328.232 79.476C327.832 79.476 327.516 79.676 327.284 80.076C327.06 80.476 326.948 80.992 326.948 81.624C326.948 82.224 327.048 82.692 327.248 83.028C327.456 83.356 327.748 83.52 328.124 83.52ZM340.319 83.856C340.351 83.856 340.367 83.88 340.367 83.928C340.367 83.976 340.351 84 340.319 84C340.111 84 339.947 83.996 339.827 83.988L339.107 83.976L338.411 83.988C338.283 83.996 338.115 84 337.907 84C337.883 84 337.871 83.976 337.871 83.928C337.871 83.88 337.883 83.856 337.907 83.856C338.155 83.856 338.323 83.8 338.411 83.688C338.507 83.568 338.555 83.348 338.555 83.028V81.3C338.555 80.868 338.479 80.548 338.327 80.34C338.183 80.132 337.959 80.028 337.655 80.028C337.447 80.028 337.243 80.072 337.043 80.16C336.843 80.248 336.671 80.368 336.527 80.52V80.592V83.028C336.527 83.348 336.571 83.568 336.659 83.688C336.755 83.8 336.927 83.856 337.175 83.856C337.207 83.856 337.223 83.88 337.223 83.928C337.223 83.976 337.207 84 337.175 84C336.967 84 336.803 83.996 336.683 83.988L335.963 83.976L335.267 83.988C335.139 83.996 334.971 84 334.763 84C334.739 84 334.727 83.976 334.727 83.928C334.727 83.88 334.739 83.856 334.763 83.856C335.011 83.856 335.179 83.8 335.267 83.688C335.363 83.568 335.411 83.348 335.411 83.028V81.3C335.411 80.868 335.335 80.548 335.183 80.34C335.039 80.132 334.815 80.028 334.511 80.028C334.319 80.028 334.127 80.068 333.935 80.148C333.751 80.22 333.587 80.324 333.443 80.46V83.028C333.443 83.348 333.487 83.568 333.575 83.688C333.671 83.8 333.843 83.856 334.091 83.856C334.115 83.856 334.127 83.88 334.127 83.928C334.127 83.976 334.115 84 334.091 84C333.883 84 333.719 83.996 333.599 83.988L332.879 83.976L332.171 83.988C332.051 83.996 331.887 84 331.679 84C331.655 84 331.643 83.976 331.643 83.928C331.643 83.88 331.655 83.856 331.679 83.856C331.927 83.856 332.095 83.8 332.183 83.688C332.271 83.568 332.315 83.348 332.315 83.028V80.772C332.315 80.524 332.283 80.344 332.219 80.232C332.163 80.112 332.071 80.052 331.943 80.052C331.807 80.052 331.615 80.108 331.367 80.22H331.343C331.319 80.22 331.299 80.2 331.283 80.16C331.275 80.12 331.279 80.096 331.295 80.088L332.963 79.272C333.011 79.256 333.039 79.248 333.047 79.248C333.135 79.248 333.219 79.336 333.299 79.512C333.379 79.68 333.427 79.908 333.443 80.196C333.987 79.548 334.571 79.224 335.195 79.224C335.571 79.224 335.871 79.316 336.095 79.5C336.319 79.684 336.455 79.948 336.503 80.292C337.055 79.58 337.667 79.224 338.339 79.224C338.771 79.224 339.099 79.348 339.323 79.596C339.555 79.844 339.671 80.22 339.671 80.724V83.028C339.671 83.348 339.715 83.568 339.803 83.688C339.899 83.8 340.071 83.856 340.319 83.856ZM343.515 81.252C344.139 81.252 344.603 81.364 344.907 81.588C345.211 81.812 345.363 82.152 345.363 82.608C345.363 83.088 345.191 83.468 344.847 83.748C344.511 84.02 343.983 84.156 343.263 84.156C342.039 84.156 341.427 83.756 341.427 82.956V80.88C341.427 80.36 341.303 80.1 341.055 80.1C340.967 80.1 340.867 80.128 340.755 80.184H340.743C340.711 80.184 340.687 80.164 340.671 80.124C340.655 80.076 340.659 80.048 340.683 80.04L342.291 79.272L342.351 79.26C342.391 79.26 342.431 79.28 342.471 79.32C342.519 79.352 342.543 79.384 342.543 79.416V81.36C342.839 81.288 343.163 81.252 343.515 81.252ZM343.419 83.976C343.915 83.976 344.163 83.6 344.163 82.848C344.163 81.96 343.803 81.516 343.083 81.516C342.915 81.516 342.735 81.54 342.543 81.588V82.608C342.543 83.048 342.615 83.388 342.759 83.628C342.911 83.86 343.131 83.976 343.419 83.976ZM354.402 83.22C354.426 83.22 354.446 83.24 354.462 83.28C354.486 83.32 354.486 83.344 354.462 83.352L352.806 84.156C352.79 84.164 352.77 84.168 352.746 84.168C352.666 84.168 352.594 84.084 352.53 83.916C352.474 83.74 352.442 83.504 352.434 83.208C351.906 83.832 351.334 84.144 350.718 84.144C350.278 84.144 349.93 84.008 349.674 83.736C349.426 83.456 349.302 83.092 349.302 82.644V80.88C349.302 80.36 349.178 80.1 348.93 80.1C348.842 80.1 348.742 80.128 348.63 80.184H348.618C348.586 80.184 348.562 80.164 348.546 80.124C348.53 80.076 348.534 80.048 348.558 80.04L350.166 79.272L350.226 79.26C350.266 79.26 350.306 79.28 350.346 79.32C350.394 79.352 350.418 79.384 350.418 79.416V82.068C350.418 82.932 350.75 83.364 351.414 83.364C351.59 83.364 351.766 83.328 351.942 83.256C352.126 83.176 352.29 83.068 352.434 82.932V80.88C352.434 80.36 352.31 80.1 352.062 80.1C351.974 80.1 351.87 80.128 351.75 80.184H351.738C351.714 80.184 351.694 80.164 351.678 80.124C351.662 80.076 351.666 80.048 351.69 80.04L353.298 79.272C353.314 79.264 353.334 79.26 353.358 79.26C353.398 79.26 353.438 79.28 353.478 79.32C353.526 79.352 353.55 79.384 353.55 79.416V82.608C353.55 82.88 353.574 83.072 353.622 83.184C353.678 83.296 353.766 83.352 353.886 83.352C353.998 83.352 354.162 83.308 354.378 83.22H354.402ZM356.309 79.536C356.069 79.536 355.837 79.664 355.613 79.92C355.389 80.176 355.221 80.452 355.109 80.748C355.101 80.756 355.081 80.76 355.049 80.76C354.985 80.76 354.957 80.744 354.965 80.712L355.349 79.116C355.349 79.1 355.365 79.092 355.397 79.092C355.421 79.092 355.441 79.1 355.457 79.116C355.481 79.124 355.489 79.132 355.481 79.14C355.473 79.172 355.469 79.212 355.469 79.26C355.469 79.42 355.533 79.5 355.661 79.5C355.717 79.5 355.785 79.488 355.865 79.464C355.953 79.432 356.013 79.412 356.045 79.404C356.389 79.276 356.701 79.212 356.981 79.212C357.365 79.212 357.653 79.3 357.845 79.476C358.045 79.652 358.145 79.896 358.145 80.208C358.145 80.48 358.069 80.7 357.917 80.868C357.765 81.028 357.501 81.212 357.125 81.42C356.805 81.596 356.569 81.764 356.417 81.924C356.265 82.084 356.189 82.308 356.189 82.596C356.189 82.876 356.293 83.1 356.501 83.268C356.709 83.428 356.961 83.508 357.257 83.508C357.465 83.508 357.665 83.464 357.857 83.376C358.057 83.288 358.225 83.156 358.361 82.98C358.369 82.964 358.385 82.956 358.409 82.956C358.433 82.956 358.453 82.968 358.469 82.992C358.485 83.016 358.485 83.04 358.469 83.064C358.245 83.408 357.949 83.672 357.581 83.856C357.221 84.04 356.849 84.132 356.465 84.132C356.065 84.132 355.721 84.04 355.433 83.856C355.145 83.672 355.001 83.388 355.001 83.004C355.001 82.764 355.073 82.552 355.217 82.368C355.369 82.176 355.629 81.968 355.997 81.744C356.333 81.56 356.569 81.364 356.705 81.156C356.849 80.94 356.921 80.696 356.921 80.424C356.921 80.152 356.861 79.936 356.741 79.776C356.629 79.616 356.485 79.536 356.309 79.536ZM361.706 84.156C361.314 84.156 360.97 84.112 360.674 84.024V86.328C360.674 86.568 360.698 86.744 360.746 86.856C360.802 86.968 360.902 87.044 361.046 87.084C361.198 87.132 361.43 87.156 361.742 87.156C361.766 87.156 361.778 87.18 361.778 87.228C361.778 87.276 361.766 87.3 361.742 87.3C361.446 87.3 361.214 87.296 361.046 87.288L360.098 87.276L359.39 87.288C359.27 87.296 359.102 87.3 358.886 87.3C358.862 87.3 358.85 87.276 358.85 87.228C358.85 87.18 358.862 87.156 358.886 87.156C359.078 87.156 359.218 87.132 359.306 87.084C359.402 87.044 359.466 86.968 359.498 86.856C359.538 86.744 359.558 86.568 359.558 86.328V80.772C359.558 80.516 359.53 80.332 359.474 80.22C359.418 80.108 359.318 80.052 359.174 80.052C359.046 80.052 358.862 80.108 358.622 80.22H358.598C358.574 80.22 358.554 80.2 358.538 80.16C358.514 80.12 358.51 80.096 358.526 80.088L360.23 79.26C360.246 79.252 360.266 79.248 360.29 79.248C360.37 79.248 360.442 79.316 360.506 79.452C360.578 79.588 360.626 79.772 360.65 80.004C361.234 79.476 361.834 79.212 362.45 79.212C362.786 79.212 363.098 79.3 363.386 79.476C363.682 79.652 363.918 79.908 364.094 80.244C364.27 80.58 364.358 80.972 364.358 81.42C364.358 82.06 364.226 82.588 363.962 83.004C363.698 83.412 363.362 83.708 362.954 83.892C362.554 84.068 362.138 84.156 361.706 84.156ZM361.658 79.884C361.298 79.884 360.97 80.012 360.674 80.268V80.364V83.256C360.85 83.456 361.034 83.608 361.226 83.712C361.418 83.808 361.654 83.856 361.934 83.856C362.742 83.856 363.146 83.168 363.146 81.792C363.146 81.184 363.002 80.716 362.714 80.388C362.434 80.052 362.082 79.884 361.658 79.884ZM370.019 79.368C370.035 79.368 370.043 79.392 370.043 79.44C370.043 79.488 370.035 79.512 370.019 79.512C369.763 79.512 369.539 79.624 369.347 79.848C369.163 80.064 368.995 80.38 368.843 80.796L367.511 84.336C367.087 85.456 366.679 86.24 366.287 86.688C365.903 87.144 365.475 87.372 365.003 87.372C364.763 87.372 364.579 87.32 364.451 87.216C364.323 87.12 364.259 86.976 364.259 86.784C364.259 86.6 364.315 86.46 364.427 86.364C364.539 86.268 364.675 86.22 364.835 86.22C364.923 86.22 364.995 86.232 365.051 86.256C365.115 86.28 365.191 86.32 365.279 86.376C365.431 86.48 365.575 86.532 365.711 86.532C365.895 86.532 366.059 86.46 366.203 86.316C366.355 86.18 366.511 85.948 366.671 85.62C366.831 85.3 367.023 84.84 367.247 84.24L365.327 80.364C365.151 80.02 365.011 79.792 364.907 79.68C364.811 79.568 364.691 79.512 364.547 79.512C364.523 79.512 364.511 79.488 364.511 79.44C364.511 79.392 364.523 79.368 364.547 79.368C364.771 79.368 364.943 79.372 365.063 79.38L365.567 79.392L366.395 79.38C366.523 79.372 366.695 79.368 366.911 79.368C366.935 79.368 366.947 79.392 366.947 79.44C366.947 79.488 366.935 79.512 366.911 79.512C366.703 79.512 366.551 79.532 366.455 79.572C366.359 79.604 366.311 79.66 366.311 79.74C366.311 79.804 366.335 79.884 366.383 79.98L367.799 82.872L368.519 80.784C368.591 80.576 368.627 80.388 368.627 80.22C368.627 79.996 368.563 79.824 368.435 79.704C368.307 79.576 368.123 79.512 367.883 79.512C367.867 79.512 367.859 79.488 367.859 79.44C367.859 79.392 367.867 79.368 367.883 79.368C368.099 79.368 368.263 79.372 368.375 79.38L369.095 79.392L369.575 79.38C369.671 79.372 369.819 79.368 370.019 79.368Z" fill="black"/>
<defs>
<linearGradient id="paint0_linear_238_11597" x1="196.505" y1="124.533" x2="196.505" y2="26.9401" gradientUnits="userSpaceOnUse">
<stop stop-color="#80776D"/>
<stop offset="0.22" stop-color="#918789"/>
<stop offset="0.55" stop-color="#BBB0AE"/>
<stop offset="0.84" stop-color="#D7CCC8"/>
<stop offset="1" stop-color="#E2D7D2"/>
</linearGradient>
<linearGradient id="paint1_linear_238_11597" x1="5.67428" y1="4.99848" x2="392.068" y2="4.99848" gradientUnits="userSpaceOnUse">
<stop stop-color="#918789"/>
<stop offset="0.21" stop-color="#BBB0AE"/>
<stop offset="0.39" stop-color="#D7CCC8"/>
<stop offset="0.49" stop-color="#E2D7D2"/>
<stop offset="1" stop-color="#918789"/>
</linearGradient>
<linearGradient id="paint2_linear_238_11597" x1="0.0100098" y1="4.99848" x2="393" y2="4.99848" gradientUnits="userSpaceOnUse">
<stop stop-color="white" stop-opacity="0"/>
<stop offset="0.497296" stop-color="white"/>
<stop offset="1" stop-color="white" stop-opacity="0"/>
</linearGradient>
<linearGradient id="paint3_linear_238_11597" x1="46.4998" y1="82.9587" x2="45.9554" y2="39.7586" gradientUnits="userSpaceOnUse">
<stop offset="0.49" stop-color="#E2D7D2"/>
<stop offset="1" stop-color="#918789"/>
</linearGradient>
<linearGradient id="paint4_linear_238_11597" x1="46.4899" y1="20.395" x2="45.9358" y2="60.221" gradientUnits="userSpaceOnUse">
<stop offset="0.46" stop-color="#E2D7D2"/>
<stop offset="0.76" stop-color="#B2A8A7"/>
<stop offset="1" stop-color="#918789"/>
</linearGradient>
<linearGradient id="paint5_linear_238_11597" x1="134.524" y1="80.1275" x2="133.91" y2="32.8392" gradientUnits="userSpaceOnUse">
<stop offset="0.49" stop-color="#E2D7D2"/>
<stop offset="1" stop-color="#918789"/>
</linearGradient>
<linearGradient id="paint6_linear_238_11597" x1="134.121" y1="14.2815" x2="133.518" y2="57.8865" gradientUnits="userSpaceOnUse">
<stop offset="0.46" stop-color="#E2D7D2"/>
<stop offset="0.76" stop-color="#B2A8A7"/>
<stop offset="1" stop-color="#918789"/>
</linearGradient>
<linearGradient id="paint7_linear_238_11597" x1="228.045" y1="75.4465" x2="227.501" y2="32.4688" gradientUnits="userSpaceOnUse">
<stop offset="0.49" stop-color="#E2D7D2"/>
<stop offset="1" stop-color="#918789"/>
</linearGradient>
<linearGradient id="paint8_linear_238_11597" x1="228.086" y1="18.1139" x2="227.541" y2="57.7441" gradientUnits="userSpaceOnUse">
<stop offset="0.46" stop-color="#E2D7D2"/>
<stop offset="0.76" stop-color="#B2A8A7"/>
<stop offset="1" stop-color="#918789"/>
</linearGradient>
<radialGradient id="paint9_radial_238_11597" cx="0" cy="0" r="1" gradientUnits="userSpaceOnUse" gradientTransform="translate(336.144 27.2618) scale(25.6738 21.0169)">
<stop offset="0.16" stop-color="#FF0303"/>
<stop offset="0.49" stop-color="#FD0303"/>
<stop offset="0.63" stop-color="#F50303"/>
<stop offset="0.74" stop-color="#E90503"/>
<stop offset="0.82" stop-color="#D80604"/>
<stop offset="0.89" stop-color="#C10905"/>
<stop offset="0.96" stop-color="#A50B06"/>
<stop offset="1" stop-color="#8F0E08"/>
</radialGradient>
<radialGradient id="paint10_radial_238_11597" cx="0" cy="0" r="1" gradientUnits="userSpaceOnUse" gradientTransform="translate(336.013 38.4515) scale(0.677725 5.0537)">
<stop offset="0.16" stop-color="#FF0303"/>
<stop offset="0.49" stop-color="#FD0303"/>
<stop offset="0.63" stop-color="#F50303"/>
<stop offset="0.74" stop-color="#E90503"/>
<stop offset="0.82" stop-color="#D80604"/>
<stop offset="0.89" stop-color="#C10905"/>
<stop offset="0.96" stop-color="#A50B06"/>
<stop offset="1" stop-color="#8F0E08"/>
</radialGradient>
<radialGradient id="paint11_radial_238_11597" cx="0" cy="0" r="1" gradientUnits="userSpaceOnUse" gradientTransform="translate(335.687 42.1796) scale(7.46226 0.456889)">
<stop offset="0.16" stop-color="#FF0303"/>
<stop offset="0.49" stop-color="#FD0303"/>
<stop offset="0.63" stop-color="#F50303"/>
<stop offset="0.74" stop-color="#E90503"/>
<stop offset="0.82" stop-color="#D80604"/>
<stop offset="0.89" stop-color="#C10905"/>
<stop offset="0.96" stop-color="#A50B06"/>
<stop offset="1" stop-color="#8F0E08"/>
</radialGradient>
</defs>
</svg>
