<svg width="39" height="48" viewBox="0 0 39 48" fill="none" xmlns="http://www.w3.org/2000/svg">
<path d="M19.2546 1C16.464 5.37072 13.0404 10.1445 8.85003 15.0436C6.0327 18.3306 3.24219 21.2414 0.558594 23.8209C3.98218 27.2422 7.62857 31.2278 11.275 35.8314C14.3509 39.7095 16.99 43.4712 19.2635 47C21.537 43.5787 24.1759 39.9424 27.2161 36.2076C31.0409 31.5055 34.8569 27.4572 38.4409 24C35.267 21.1429 31.8166 17.6858 28.3306 13.5479C24.6039 9.1145 21.6261 4.83333 19.2546 1Z" fill="url(#paint0_linear_239_4908)" stroke="black" stroke-linecap="round" stroke-linejoin="round"/>
<path d="M19.3259 7.47559C17.3288 10.6193 14.8681 14.0406 11.8457 17.5605C9.82185 19.925 7.81591 22.0118 5.89014 23.8658C8.35084 26.3198 10.9631 29.1859 13.5843 32.4997C15.7954 35.2852 17.6854 37.99 19.317 40.5247C20.9574 38.0617 22.8476 35.4553 25.0319 32.7684C27.7779 29.3919 30.5239 26.4811 33.1005 24.0001C30.8271 21.9491 28.3396 19.4592 25.8343 16.4857C23.1596 13.3062 21.0109 10.2252 19.317 7.47559H19.3259Z" fill="url(#paint1_linear_239_4908)" stroke="black" stroke-linecap="round" stroke-linejoin="round"/>
<path d="M19.4951 18.4648V29.526" stroke="black" stroke-width="2" stroke-linecap="round" stroke-linejoin="round"/>
<path d="M25.0049 24H13.9941" stroke="black" stroke-width="2" stroke-linecap="round" stroke-linejoin="round"/>
<defs>
<linearGradient id="paint0_linear_239_4908" x1="19.8787" y1="53.3322" x2="19.3658" y2="14.2376" gradientUnits="userSpaceOnUse">
<stop offset="0.49" stop-color="#E2D7D2"/>
<stop offset="1" stop-color="#918789"/>
</linearGradient>
<linearGradient id="paint1_linear_239_4908" x1="19.8515" y1="1.68465" x2="19.399" y2="34.5139" gradientUnits="userSpaceOnUse">
<stop offset="0.46" stop-color="#E2D7D2"/>
<stop offset="0.76" stop-color="#B2A8A7"/>
<stop offset="1" stop-color="#918789"/>
</linearGradient>
</defs>
</svg>
