<svg width="146" height="34" viewBox="0 0 146 34" fill="none" xmlns="http://www.w3.org/2000/svg">
<rect x="0.5" y="2.5" width="31" height="31" rx="15.5" fill="url(#paint0_linear_23_5833)"/>
<rect x="0.5" y="2.5" width="31" height="31" rx="15.5" stroke="url(#paint1_linear_23_5833)"/>
<path d="M11.0811 26C11.0011 26 10.9291 25.96 10.8651 25.88C10.8171 25.8 10.8251 25.736 10.8891 25.688C11.4971 24.92 11.9611 24.352 12.2811 23.984C13.4491 22.56 14.3691 21.384 15.0411 20.456C15.7131 19.528 16.2811 18.576 16.7451 17.6C17.2091 16.608 17.4411 15.664 17.4411 14.768C17.4411 13.824 17.1931 13.088 16.6971 12.56C16.2011 12.016 15.5051 11.744 14.6091 11.744C13.8091 11.744 13.1291 11.976 12.5691 12.44C12.0091 12.888 11.5931 13.536 11.3211 14.384C11.3211 14.4 11.2891 14.408 11.2251 14.408C11.0971 14.408 11.0411 14.376 11.0571 14.312C11.2811 13.176 11.7691 12.296 12.5211 11.672C13.2731 11.048 14.2011 10.736 15.3051 10.736C16.4571 10.736 17.3611 11.072 18.0171 11.744C18.6891 12.4 19.0251 13.248 19.0251 14.288C19.0251 15.216 18.7691 16.176 18.2571 17.168C17.7451 18.16 17.1531 19.072 16.4811 19.904C15.8091 20.736 14.9771 21.696 13.9851 22.784C13.8411 22.944 13.5851 23.224 13.2171 23.624C12.8651 24.008 12.6011 24.328 12.4251 24.584C12.3451 24.696 12.3771 24.752 12.5211 24.752C14.6011 24.752 16.0731 24.728 16.9371 24.68C17.8011 24.616 18.4091 24.472 18.7611 24.248C19.1131 24.008 19.2971 23.624 19.3131 23.096C19.3131 23.064 19.3531 23.048 19.4331 23.048C19.5291 23.048 19.5771 23.064 19.5771 23.096L19.5531 25.736C19.5531 25.8 19.5291 25.864 19.4811 25.928C19.4491 25.976 19.4011 26 19.3371 26H11.0811Z" fill="white"/>
<rect x="56.5" y="2.5" width="31" height="31" rx="15.5" fill="url(#paint2_linear_23_5833)"/>
<rect x="56.5" y="2.5" width="31" height="31" rx="15.5" stroke="url(#paint3_linear_23_5833)"/>
<path d="M72.1412 17.912C73.2132 17.976 74.0532 18.376 74.6612 19.112C75.2692 19.848 75.5732 20.744 75.5732 21.8C75.5732 22.68 75.3812 23.464 74.9972 24.152C74.6132 24.824 74.0772 25.352 73.3892 25.736C72.7012 26.104 71.9252 26.288 71.0612 26.288C69.5732 26.288 68.2772 25.688 67.1732 24.488L67.1492 24.44C67.1492 24.376 67.1812 24.328 67.2452 24.296C67.3252 24.248 67.3812 24.248 67.4132 24.296C67.8292 24.744 68.3252 25.08 68.9012 25.304C69.4932 25.528 70.0852 25.64 70.6772 25.64C71.7652 25.64 72.5732 25.304 73.1012 24.632C73.6292 23.944 73.8932 23.056 73.8932 21.968C73.8932 19.472 72.4372 18.224 69.5252 18.224C69.5092 18.224 69.4852 18.208 69.4532 18.176C69.4372 18.128 69.4292 18.08 69.4292 18.032C69.4292 17.984 69.4372 17.944 69.4532 17.912C69.4852 17.864 69.5092 17.84 69.5252 17.84C70.9332 17.84 71.9332 17.56 72.5252 17C73.1172 16.44 73.4132 15.664 73.4132 14.672C73.4132 13.712 73.1732 12.976 72.6932 12.464C72.2132 11.936 71.5412 11.672 70.6772 11.672C70.0052 11.672 69.3652 11.84 68.7572 12.176C68.1652 12.496 67.7252 12.968 67.4372 13.592C67.4372 13.608 67.4212 13.616 67.3892 13.616C67.3412 13.616 67.2852 13.6 67.2212 13.568C67.1732 13.536 67.1572 13.504 67.1732 13.472C67.5412 12.608 68.0852 11.936 68.8052 11.456C69.5252 10.976 70.3652 10.736 71.3252 10.736C72.4612 10.736 73.3492 11.056 73.9892 11.696C74.6292 12.32 74.9492 13.104 74.9492 14.048C74.9492 14.88 74.6932 15.656 74.1812 16.376C73.6852 17.08 73.0052 17.592 72.1412 17.912Z" fill="white"/>
<rect x="112.5" y="2.5" width="31" height="31" rx="15.5" fill="url(#paint4_linear_23_5833)"/>
<rect x="112.5" y="2.5" width="31" height="31" rx="15.5" stroke="url(#paint5_linear_23_5833)"/>
<path d="M131.407 20.744C131.471 20.744 131.503 20.912 131.503 21.248C131.503 21.584 131.471 21.752 131.407 21.752L129.415 21.68V24.056C129.415 24.536 129.455 24.896 129.535 25.136C129.615 25.36 129.775 25.512 130.015 25.592C130.255 25.672 130.639 25.712 131.167 25.712C131.199 25.712 131.215 25.76 131.215 25.856C131.215 25.952 131.199 26 131.167 26C130.751 26 130.423 25.992 130.183 25.976L128.671 25.952L126.871 25.976C126.567 25.992 126.151 26 125.623 26C125.575 26 125.551 25.952 125.551 25.856C125.551 25.76 125.575 25.712 125.623 25.712C126.375 25.712 126.903 25.68 127.207 25.616C127.511 25.536 127.711 25.392 127.807 25.184C127.903 24.96 127.951 24.584 127.951 24.056V21.632C125.775 21.6 123.759 21.584 121.903 21.584C121.823 21.584 121.759 21.56 121.711 21.512C121.679 21.448 121.687 21.384 121.735 21.32L129.031 10.88C129.063 10.848 129.111 10.832 129.175 10.832C129.335 10.832 129.415 10.88 129.415 10.976V20.816L131.407 20.744ZM123.055 20.888C124.463 20.888 126.095 20.872 127.951 20.84V13.4L122.935 20.72C122.871 20.832 122.911 20.888 123.055 20.888Z" fill="white"/>
<path d="M133.091 5.63636L136.727 9.27273L144 2" stroke="url(#paint6_linear_23_5833)" stroke-width="3" stroke-linejoin="round"/>
<defs>
<linearGradient id="paint0_linear_23_5833" x1="16" y1="2" x2="16" y2="34" gradientUnits="userSpaceOnUse">
<stop stop-color="#4F1515"/>
<stop offset="1" stop-color="#380C0C"/>
</linearGradient>
<linearGradient id="paint1_linear_23_5833" x1="16.0019" y1="34.3638" x2="16.0019" y2="1.6362" gradientUnits="userSpaceOnUse">
<stop offset="0.2" stop-color="#918789"/>
<stop offset="0.55" stop-color="#BBB0AE"/>
<stop offset="0.83" stop-color="#D7CCC8"/>
<stop offset="1" stop-color="#E2D7D2"/>
</linearGradient>
<linearGradient id="paint2_linear_23_5833" x1="72" y1="2" x2="72" y2="34" gradientUnits="userSpaceOnUse">
<stop stop-color="#4F1515"/>
<stop offset="1" stop-color="#380C0C"/>
</linearGradient>
<linearGradient id="paint3_linear_23_5833" x1="72.0019" y1="34.3638" x2="72.0019" y2="1.6362" gradientUnits="userSpaceOnUse">
<stop offset="0.2" stop-color="#918789"/>
<stop offset="0.55" stop-color="#BBB0AE"/>
<stop offset="0.83" stop-color="#D7CCC8"/>
<stop offset="1" stop-color="#E2D7D2"/>
</linearGradient>
<linearGradient id="paint4_linear_23_5833" x1="128" y1="2" x2="128" y2="34" gradientUnits="userSpaceOnUse">
<stop stop-color="#381414"/>
<stop offset="1" stop-color="#1D0808"/>
</linearGradient>
<linearGradient id="paint5_linear_23_5833" x1="128.002" y1="34.3638" x2="128.002" y2="1.6362" gradientUnits="userSpaceOnUse">
<stop offset="0.2" stop-color="#918789"/>
<stop offset="0.55" stop-color="#BBB0AE"/>
<stop offset="0.83" stop-color="#D7CCC8"/>
<stop offset="1" stop-color="#E2D7D2"/>
</linearGradient>
<linearGradient id="paint6_linear_23_5833" x1="138.546" y1="9.35541" x2="138.546" y2="1.91732" gradientUnits="userSpaceOnUse">
<stop offset="0.2" stop-color="#CBB2B7"/>
<stop offset="0.55" stop-color="#E8D0CC"/>
<stop offset="0.83" stop-color="#FDEDE8"/>
<stop offset="1" stop-color="#F5EAE5"/>
</linearGradient>
</defs>
</svg>
