<svg width="165" height="44" viewBox="0 0 165 44" fill="none" xmlns="http://www.w3.org/2000/svg">
<path d="M117.215 0.510014C117.227 0.510014 117.239 0.509608 117.25 0.508797C117.373 0.500211 117.499 0.5 117.645 0.5H153.568C156.66 0.5 159.433 1.17689 161.415 2.24704C163.417 3.32794 164.5 4.73825 164.5 6.17279V37.8372C164.5 39.2662 163.418 40.6742 161.415 41.7541C159.433 42.8231 156.66 43.5 153.568 43.5H117.645C117.583 43.5 117.521 43.4979 117.448 43.4953L117.444 43.4952C117.375 43.4927 117.296 43.49 117.215 43.49C117.21 43.49 117.205 43.4901 117.201 43.4902C117.194 43.4904 117.187 43.4907 117.181 43.4912C117.058 43.4998 116.932 43.5 116.786 43.5H11.4316C8.34028 43.5 5.56719 42.8231 3.58491 41.7541C1.58236 40.6742 0.5 39.2662 0.5 37.8372V6.17279C0.5 4.73825 1.58305 3.32793 3.58512 2.24704C5.56728 1.17689 8.34026 0.5 11.4316 0.5H116.786C116.848 0.5 116.91 0.502147 116.983 0.504701L116.987 0.504828C117.056 0.507251 117.135 0.510014 117.215 0.510014Z" fill="url(#paint0_linear_238_10842)" stroke="url(#paint1_linear_238_10842)" stroke-linecap="round" stroke-linejoin="round"/>
<path d="M31.2575 0.510014C31.2908 0.510014 31.3241 0.506677 31.3567 0.500067L31.372 0.5H40.9515C41.4991 0.5 42.1326 0.962803 42.659 2.0285C43.1698 3.06267 43.5 4.52689 43.5 6.17279V37.8372C43.5 39.4779 43.1699 40.9396 42.6591 41.9726C42.1327 43.0371 41.4992 43.5 40.9515 43.5H31.3856L31.3798 43.4992C31.3716 43.4982 31.354 43.4958 31.3351 43.494C31.3152 43.492 31.2884 43.49 31.2575 43.49C31.2241 43.49 31.1909 43.4933 31.1582 43.4999L31.143 43.5H3.04842C2.50076 43.5 1.86726 43.0371 1.34089 41.9726C0.830106 40.9396 0.5 39.4779 0.5 37.8372V6.17279C0.5 4.52688 0.830178 3.06266 1.34099 2.02849C1.86736 0.962798 2.50088 0.5 3.04842 0.5H31.1293L31.1352 0.500759L31.1367 0.500961C31.1454 0.502107 31.1621 0.504292 31.1799 0.506046C31.1997 0.507998 31.2265 0.510014 31.2575 0.510014Z" fill="url(#paint2_linear_238_10842)" stroke="url(#paint3_linear_238_10842)" stroke-linecap="round" stroke-linejoin="round"/>
<path d="M15 22H29" stroke="white" stroke-width="2" stroke-linecap="round" stroke-linejoin="round"/>
<path d="M72.1914 27.5C72.17 27.5 72.1594 27.468 72.1594 27.404C72.1594 27.34 72.17 27.308 72.1914 27.308C72.6607 27.308 73.0127 27.2813 73.2474 27.228C73.4927 27.164 73.6687 27.0573 73.7754 26.908C73.882 26.748 73.9354 26.5133 73.9354 26.204V20.252C73.9354 19.5267 73.7647 19.164 73.4234 19.164C73.1674 19.164 72.7567 19.3667 72.1914 19.772L72.1594 19.788C72.1167 19.788 72.0847 19.7667 72.0634 19.724C72.042 19.6707 72.042 19.6333 72.0634 19.612L75.1514 17.388C75.194 17.3667 75.2314 17.356 75.2634 17.356C75.2847 17.356 75.306 17.3667 75.3274 17.388C75.3487 17.4093 75.3594 17.4307 75.3594 17.452V26.204C75.3594 26.524 75.4074 26.7587 75.5034 26.908C75.5994 27.0573 75.7647 27.164 75.9994 27.228C76.2447 27.2813 76.6074 27.308 77.0874 27.308C77.1194 27.308 77.1354 27.34 77.1354 27.404C77.1354 27.468 77.1194 27.5 77.0874 27.5C76.6607 27.5 76.3247 27.4947 76.0794 27.484L74.6394 27.468L73.2474 27.484C72.9914 27.4947 72.6394 27.5 72.1914 27.5ZM81.6254 27.708C80.932 27.708 80.3294 27.5 79.8174 27.084C79.316 26.6573 78.9267 26.0547 78.6494 25.276C78.3827 24.4867 78.2494 23.5587 78.2494 22.492C78.2494 21.436 78.3827 20.5187 78.6494 19.74C78.9267 18.9613 79.3214 18.364 79.8334 17.948C80.356 17.5213 80.964 17.308 81.6574 17.308C82.34 17.308 82.9267 17.5213 83.4174 17.948C83.9187 18.364 84.3027 18.9667 84.5694 19.756C84.836 20.5453 84.9694 21.4733 84.9694 22.54C84.9694 23.596 84.8307 24.5133 84.5534 25.292C84.2867 26.0707 83.9027 26.668 83.4014 27.084C82.9 27.5 82.308 27.708 81.6254 27.708ZM81.8174 27.404C82.3507 27.404 82.7347 27.0307 82.9694 26.284C83.2147 25.5267 83.3374 24.3427 83.3374 22.732C83.3374 20.9507 83.1827 19.6493 82.8734 18.828C82.564 18.0067 82.1 17.596 81.4814 17.596C80.9374 17.596 80.532 17.9907 80.2654 18.78C80.0094 19.5587 79.8814 20.7587 79.8814 22.38C79.8814 24.0867 80.036 25.3507 80.3454 26.172C80.6654 26.9933 81.156 27.404 81.8174 27.404ZM89.641 27.708C88.9477 27.708 88.345 27.5 87.833 27.084C87.3317 26.6573 86.9423 26.0547 86.665 25.276C86.3983 24.4867 86.265 23.5587 86.265 22.492C86.265 21.436 86.3983 20.5187 86.665 19.74C86.9423 18.9613 87.337 18.364 87.849 17.948C88.3717 17.5213 88.9797 17.308 89.673 17.308C90.3557 17.308 90.9423 17.5213 91.433 17.948C91.9343 18.364 92.3183 18.9667 92.585 19.756C92.8517 20.5453 92.985 21.4733 92.985 22.54C92.985 23.596 92.8463 24.5133 92.569 25.292C92.3023 26.0707 91.9183 26.668 91.417 27.084C90.9157 27.5 90.3237 27.708 89.641 27.708ZM89.833 27.404C90.3663 27.404 90.7503 27.0307 90.985 26.284C91.2303 25.5267 91.353 24.3427 91.353 22.732C91.353 20.9507 91.1983 19.6493 90.889 18.828C90.5797 18.0067 90.1157 17.596 89.497 17.596C88.953 17.596 88.5477 17.9907 88.281 18.78C88.025 19.5587 87.897 20.7587 87.897 22.38C87.897 24.0867 88.0517 25.3507 88.361 26.172C88.681 26.9933 89.1717 27.404 89.833 27.404Z" fill="white"/>
<path d="M71.3594 29.1H93.641V29.9H71.3594V29.1Z" fill="white"/>
<path d="M152.257 0.510014C152.291 0.510014 152.324 0.506677 152.357 0.500067L152.372 0.5H161.952C162.499 0.5 163.133 0.962803 163.659 2.0285C164.17 3.06267 164.5 4.52689 164.5 6.17279V37.8372C164.5 39.4779 164.17 40.9396 163.659 41.9726C163.133 43.0371 162.499 43.5 161.952 43.5H152.386L152.38 43.4992C152.372 43.4982 152.354 43.4958 152.335 43.494C152.315 43.492 152.288 43.49 152.257 43.49C152.224 43.49 152.191 43.4933 152.158 43.4999L152.143 43.5H124.048C123.501 43.5 122.867 43.0371 122.341 41.9726C121.83 40.9396 121.5 39.4779 121.5 37.8372V6.17279C121.5 4.52688 121.83 3.06266 122.341 2.02849C122.867 0.962798 123.501 0.5 124.048 0.5H152.129L152.135 0.500759L152.137 0.500961C152.145 0.502107 152.162 0.504292 152.18 0.506046C152.2 0.507998 152.227 0.510014 152.257 0.510014Z" fill="url(#paint4_linear_238_10842)" stroke="url(#paint5_linear_238_10842)" stroke-linecap="round" stroke-linejoin="round"/>
<path d="M143 15V29" stroke="white" stroke-width="2" stroke-linecap="round" stroke-linejoin="round"/>
<path d="M136 22H150" stroke="white" stroke-width="2" stroke-linecap="round" stroke-linejoin="round"/>
<defs>
<linearGradient id="paint0_linear_238_10842" x1="82.5" y1="0" x2="82.5" y2="44" gradientUnits="userSpaceOnUse">
<stop stop-color="#4F1515"/>
<stop offset="1" stop-color="#380C0C"/>
</linearGradient>
<linearGradient id="paint1_linear_238_10842" x1="82.5089" y1="44.5002" x2="82.5089" y2="-0.500226" gradientUnits="userSpaceOnUse">
<stop offset="0.2" stop-color="#918789"/>
<stop offset="0.55" stop-color="#BBB0AE"/>
<stop offset="0.83" stop-color="#D7CCC8"/>
<stop offset="1" stop-color="#E2D7D2"/>
</linearGradient>
<linearGradient id="paint2_linear_238_10842" x1="22" y1="0" x2="22" y2="44" gradientUnits="userSpaceOnUse">
<stop stop-color="#381414"/>
<stop offset="1" stop-color="#1D0808"/>
</linearGradient>
<linearGradient id="paint3_linear_238_10842" x1="22.0024" y1="44.5002" x2="22.0024" y2="-0.500226" gradientUnits="userSpaceOnUse">
<stop offset="0.2" stop-color="#918789"/>
<stop offset="0.55" stop-color="#BBB0AE"/>
<stop offset="0.83" stop-color="#D7CCC8"/>
<stop offset="1" stop-color="#E2D7D2"/>
</linearGradient>
<linearGradient id="paint4_linear_238_10842" x1="143" y1="0" x2="143" y2="44" gradientUnits="userSpaceOnUse">
<stop stop-color="#381414"/>
<stop offset="1" stop-color="#1D0808"/>
</linearGradient>
<linearGradient id="paint5_linear_238_10842" x1="143.002" y1="44.5002" x2="143.002" y2="-0.500226" gradientUnits="userSpaceOnUse">
<stop offset="0.2" stop-color="#918789"/>
<stop offset="0.55" stop-color="#BBB0AE"/>
<stop offset="0.83" stop-color="#D7CCC8"/>
<stop offset="1" stop-color="#E2D7D2"/>
</linearGradient>
</defs>
</svg>
