<svg width="45" height="48" viewBox="0 0 45 48" fill="none" xmlns="http://www.w3.org/2000/svg">
<path d="M39.3919 18.2303C34.4807 13.0317 28.778 7.96104 26.3833 5.30265C24.5872 3.30394 23.3188 1.78765 22.8013 1.15751C22.7607 1.10828 22.7099 1.04923 22.6694 1C22.6288 1.04923 22.578 1.10828 22.5374 1.15751C22.0199 1.78765 20.7413 3.30394 18.9554 5.30265C16.5708 7.96104 10.858 13.0317 5.94676 18.2303C1.03551 23.429 0.639824 28.6177 1.56322 32.9302C2.49676 37.2427 7.13398 41.2894 14.44 40.4033C16.7332 40.1276 18.4075 39.0544 19.6252 37.7252C18.8033 43.8198 15.4039 47 15.4039 47H29.5593C26.9718 44.2038 26.0585 40.226 25.7338 37.7645C26.9515 39.074 28.6156 40.1276 30.8886 40.4033C38.1844 41.2894 42.8319 37.2329 43.7654 32.9302C44.699 28.6177 44.293 23.429 39.3818 18.2303H39.3919Z" fill="url(#paint0_radial_239_6016)" stroke="black" stroke-linecap="round" stroke-linejoin="round"/>
<path d="M27.0631 21.8145H18.2756C17.3341 21.8145 16.5708 22.555 16.5708 23.4686V30.6265C16.5708 31.54 17.3341 32.2806 18.2756 32.2806H27.0631C28.0046 32.2806 28.7678 31.54 28.7678 30.6265V23.4686C28.7678 22.555 28.0046 21.8145 27.0631 21.8145Z" stroke="white" stroke-miterlimit="10"/>
<path d="M27.5944 21.5071L29.7126 19.7297C30.235 19.2913 29.6359 17.7171 28.3788 16.2189L27.1535 14.7587C25.8963 13.2604 24.4499 12.3969 23.9275 12.8353L21.8094 14.6127" stroke="white" stroke-linecap="round" stroke-linejoin="round"/>
<path d="M23.3464 25.7525C23.3464 26.093 23.0576 26.3946 22.6693 26.3946C22.281 26.3946 21.9922 26.093 21.9922 25.7525C21.9922 25.412 22.281 25.1104 22.6693 25.1104C23.0576 25.1104 23.3464 25.412 23.3464 25.7525Z" fill="black" stroke="white"/>
<path d="M22.8033 26.8828L23.2468 29.5652H22.0817L22.5252 26.8828H22.8033Z" fill="black" stroke="white"/>
<defs>
<radialGradient id="paint0_radial_239_6016" cx="0" cy="0" r="1" gradientUnits="userSpaceOnUse" gradientTransform="translate(22.6665 24) rotate(90) scale(23 21.5)">
<stop stop-color="#2B2B2B"/>
<stop offset="0.875" stop-color="#0F0F0F"/>
<stop offset="1" stop-color="#2F2F2F"/>
</radialGradient>
</defs>
</svg>
