<svg width="34" height="34" viewBox="0 0 34 34" fill="none" xmlns="http://www.w3.org/2000/svg">
<path d="M17 32.625C25.8366 32.625 33 25.4616 33 16.625C33 7.78845 25.8366 0.625 17 0.625C8.16345 0.625 1 7.78845 1 16.625C1 25.4616 8.16345 32.625 17 32.625Z" stroke="white" stroke-linecap="round" stroke-linejoin="round"/>
<path d="M16.9998 27.4674C22.988 27.4674 27.8424 22.613 27.8424 16.6248C27.8424 10.6366 22.988 5.78223 16.9998 5.78223C11.0116 5.78223 6.15723 10.6366 6.15723 16.6248C6.15723 22.613 11.0116 27.4674 16.9998 27.4674Z" stroke="white" stroke-width="0.75" stroke-linecap="round" stroke-linejoin="round"/>
<path d="M22.6416 28.6331C27.1832 26.6647 30.3612 22.1451 30.3612 16.8778C30.3612 14.5465 29.7344 12.3692 28.6457 10.4888" stroke="white" stroke-linecap="round" stroke-linejoin="round"/>
<path d="M3.70535 16.3833C3.70535 16.5702 3.67236 16.7572 3.67236 16.9551C3.67236 24.0259 9.41256 29.7661 16.4834 29.7661C16.8352 29.7661 17.1761 29.7441 17.517 29.7111" stroke="white" stroke-linecap="round" stroke-linejoin="round"/>
<path d="M11.7877 11.3688C11.7877 11.3688 11.8536 11.3138 11.8976 11.3688C12.2055 11.7316 12.4915 12.1055 12.7224 12.5234C13.1732 13.3371 13.4152 14.2169 13.4811 15.1516C13.4811 15.2066 13.4701 15.2285 13.4152 15.2285C13.3492 15.2285 13.2832 15.2285 13.2172 15.2285C13.0523 15.2285 12.9533 15.3165 12.9533 15.4815C12.9533 15.8553 12.9313 16.2182 12.9643 16.5921C12.9643 16.6801 13.0193 16.7461 13.0963 16.7791C13.1622 16.812 13.2392 16.823 13.3052 16.823C13.4921 16.823 13.4921 16.823 13.4811 17.01C13.4811 17.065 13.4591 17.098 13.4042 17.098C13.2502 17.109 13.1183 17.1639 12.9863 17.2299C12.6014 17.4389 12.3815 17.7688 12.3595 18.2086C12.3375 18.6705 12.5244 19.0333 12.9203 19.2863C13.1732 19.4402 13.4482 19.4842 13.7451 19.4622C13.811 19.4622 13.855 19.4732 13.888 19.5392C14.031 19.8251 14.2069 20.089 14.4268 20.3309C14.4928 20.4079 14.4928 20.4189 14.3939 20.4519C13.7671 20.6279 13.1513 20.7928 12.5244 20.9687C12.1286 21.0787 11.7217 21.1887 11.3258 21.3096C11.1719 21.3536 11.1059 21.4306 11.1059 21.5626C11.1059 21.6945 11.1829 21.7825 11.3368 21.8155H11.3588C12.1066 21.9584 12.3925 22.0024 12.3925 22.0024C12.8873 22.0684 13.3602 22.2004 13.855 22.2773C13.855 22.2773 13.888 22.2773 13.899 22.2993C13.899 22.3213 13.899 22.3433 13.899 22.3653C13.822 22.5742 13.7341 22.7942 13.6571 23.0031C13.5251 23.366 13.3822 23.7289 13.2502 24.0918C13.2062 24.2127 13.2392 24.3007 13.3052 24.3667C13.3712 24.3887 13.4482 24.4107 13.5141 24.4437C13.5141 24.4437 13.5251 24.4437 13.5361 24.4437C13.6681 24.4107 13.789 24.3447 13.921 24.2897C14.5918 24.0258 15.2626 23.7509 15.9224 23.487C15.9554 23.476 15.9774 23.476 15.9993 23.487C16.0323 23.498 16.0433 23.5309 16.0543 23.5419C16.2963 24.0258 16.5932 24.4767 16.8241 24.9605C16.8571 25.0155 16.9011 25.1145 17 25.1584C17.143 25.2244 17.3409 25.1804 17.4399 25.0595C17.4619 25.0265 17.4729 24.9935 17.4839 24.9825C17.6488 24.4657 18.1987 23.7509 18.3086 23.5529C18.3416 23.487 18.3746 23.476 18.4516 23.509C19.2104 23.8169 19.9581 24.1138 20.7169 24.4217C20.8378 24.4657 20.9478 24.4986 21.0578 24.4107C21.1567 24.3337 21.1787 24.2567 21.1238 24.1138C21.0138 23.8169 20.9038 23.5199 20.7939 23.212C20.6949 22.9371 20.5849 22.6622 20.4859 22.3873C20.464 22.3213 20.464 22.2883 20.5519 22.2773C20.7829 22.2443 21.0028 22.1674 21.2337 22.1564C21.3437 22.1564 21.2337 22.1564 21.9485 22.0244C22.3664 21.9474 22.5863 21.9144 22.5863 21.9144C22.7512 21.8815 22.9162 21.8595 23.0811 21.8155C23.1801 21.7935 23.2571 21.7165 23.2681 21.6065C23.2681 21.4966 23.2241 21.3976 23.1141 21.3426C23.0811 21.3316 23.0482 21.3096 23.0042 21.2986C22.8282 21.2437 22.6523 21.1997 22.4763 21.1447C21.6406 20.9028 20.8049 20.6608 19.9801 20.4299C19.8811 20.3969 19.8811 20.3969 19.9471 20.32C20.1561 20.078 20.343 19.8141 20.4859 19.5282C20.5189 19.4622 20.5519 19.4512 20.6179 19.4512C20.7609 19.4512 20.9038 19.4512 21.0358 19.4182C21.4756 19.2973 21.7725 19.0334 21.8935 18.6045C22.0145 18.1756 21.9265 17.7797 21.6076 17.4498C21.4427 17.2739 21.2337 17.1639 20.9918 17.109C20.9588 17.109 20.9038 17.109 20.8928 17.043C20.8598 16.856 20.8928 16.823 21.0688 16.823C21.1018 16.823 21.1237 16.823 21.1567 16.823C21.3107 16.8011 21.4097 16.7351 21.4207 16.6141C21.4537 16.2292 21.4537 15.8444 21.4207 15.4595C21.4207 15.3275 21.3107 15.2395 21.1677 15.2395C21.1018 15.2395 21.0248 15.2395 20.9588 15.2395C20.9038 15.2395 20.8818 15.2285 20.8928 15.1736C20.9368 14.7227 20.9918 14.2608 21.1238 13.821C21.3877 12.9193 21.8275 12.1165 22.4543 11.4127C22.4983 11.3578 22.5313 11.3578 22.5863 11.3907C22.8502 11.5557 23.1361 11.5667 23.411 11.4127C23.675 11.2588 23.8069 11.0279 23.8069 10.7199C23.8069 10.3571 23.554 10.0492 23.2021 9.96119C22.8722 9.87322 22.4763 10.0602 22.3224 10.3791C22.2784 10.467 22.2344 10.489 22.1464 10.489C21.5086 10.467 20.8818 10.489 20.244 10.489C20.0461 10.489 19.8371 10.489 19.6392 10.522C18.5835 10.7199 17.7808 11.2698 17.2859 12.2265C17.264 12.2815 17.242 12.3694 17.198 12.3694C17.143 12.3694 17.132 12.2815 17.11 12.2265C16.7251 11.4787 16.1203 10.9619 15.3286 10.676C14.9327 10.533 14.5148 10.489 14.0969 10.489C13.4701 10.489 12.8323 10.489 12.2055 10.489C12.1396 10.489 12.1066 10.467 12.0736 10.412C11.9306 10.1261 11.7107 9.97219 11.3808 9.96119C11.0509 9.96119 10.776 10.1371 10.633 10.445C10.5121 10.7199 10.5781 11.0718 10.787 11.2918C11.0509 11.5667 11.4578 11.6107 11.7877 11.4127V11.3688ZM23.0152 10.434C23.1361 10.434 23.2791 10.588 23.2791 10.709C23.2791 10.8519 23.1471 10.9839 23.0042 10.9839C22.8722 10.9839 22.7293 10.8519 22.7293 10.709C22.7293 10.566 22.8612 10.434 23.0042 10.434H23.0152ZM13.5471 18.9124C13.3162 18.9124 13.0853 18.7364 12.9863 18.4835C12.8543 18.1536 13.0413 17.7468 13.3712 17.6368C13.4591 17.6038 13.4811 17.6148 13.4811 17.7138C13.4811 17.7797 13.4811 17.8567 13.4811 17.9227C13.4811 18.2306 13.5361 18.5385 13.6131 18.8354C13.6351 18.9124 13.6131 18.9234 13.5471 18.9234V18.9124ZM21.7725 21.4746C21.7725 21.4746 21.7836 21.4746 21.8165 21.4966C21.6516 21.5516 21.5086 21.5626 21.3547 21.5955C20.9258 21.6725 20.497 21.7495 20.0681 21.8265C19.8702 21.8595 19.7932 22.0024 19.8592 22.2114C19.9691 22.5303 20.1011 22.8492 20.222 23.1681C20.277 23.322 20.343 23.476 20.398 23.6299C20.398 23.6519 20.442 23.6849 20.409 23.7179C20.387 23.7399 20.354 23.7179 20.321 23.7069C19.7932 23.498 19.2543 23.278 18.7265 23.0691C18.6055 23.0251 18.4846 22.9701 18.3636 22.9261C18.1987 22.8602 18.0997 22.8931 18.0007 23.0581C17.8688 23.289 17.7368 23.5199 17.6049 23.7399C17.4839 23.9598 17.3519 24.1797 17.231 24.3997C17.176 24.4876 17.176 24.4876 17.121 24.3997C16.8791 23.9708 16.6372 23.5419 16.3842 23.1021C16.2633 22.8821 16.1753 22.8492 15.9334 22.9481C15.2956 23.212 14.6468 23.465 14.009 23.7289C13.987 23.7289 13.965 23.7619 13.954 23.7399C13.932 23.7179 13.954 23.6849 13.954 23.6519C14.0859 23.311 14.2179 22.9591 14.3499 22.6182C14.4048 22.4753 14.4598 22.3433 14.5038 22.2004C14.5698 22.0024 14.4818 21.8705 14.2839 21.8375C13.965 21.7825 13.6461 21.7275 13.3272 21.6615C13.1073 21.6175 12.8763 21.5846 12.6564 21.5406C12.6234 21.5406 12.5904 21.5406 12.5574 21.4856C12.6234 21.4636 12.6784 21.4526 12.7444 21.4306C13.4592 21.2217 14.1739 21.0237 14.8887 20.8148C14.9327 20.8038 14.9767 20.8148 15.0097 20.8478C15.5705 21.2547 16.1973 21.4966 16.8901 21.5516C17.6708 21.6066 18.4076 21.4416 19.0784 21.0347C19.1774 20.9797 19.2653 20.9138 19.3533 20.8478C19.3973 20.8148 19.4303 20.8148 19.4743 20.8258C20.244 21.0457 21.0028 21.2657 21.7725 21.4856V21.4746ZM20.365 17.9887C20.31 19.0004 19.8811 19.8251 19.0564 20.4299C18.4846 20.8588 17.8358 21.0457 17.132 21.0347C15.6475 21.0127 14.4928 20.0011 14.1409 18.7584C14.042 18.4285 14.009 18.0986 14.009 17.7578C14.009 17.4828 14.009 17.1969 14.009 16.922C14.009 16.834 14.031 16.801 14.1189 16.812C15.1416 16.812 16.1753 16.812 17.198 16.812C18.2207 16.812 19.2323 16.812 20.255 16.812C20.343 16.812 20.365 16.834 20.365 16.933C20.365 17.2849 20.376 17.6478 20.365 17.9997V17.9887ZM20.8818 17.7138C20.8818 17.5928 20.8818 17.5928 21.0028 17.6368C21.2557 17.7358 21.4317 17.9997 21.4317 18.2636C21.4317 18.5275 21.2337 18.7914 20.9808 18.8794C20.9368 18.8904 20.8928 18.9124 20.8488 18.9014C20.7389 18.9014 20.7389 18.9014 20.7609 18.8024C20.8488 18.4505 20.9038 18.0876 20.8818 17.7138ZM17.4619 13.4581C17.4729 12.9193 17.6708 12.4464 17.9897 12.0175C18.3746 11.5117 18.8694 11.1928 19.4853 11.0498C19.6942 11.0059 19.9031 10.9729 20.1231 10.9729C20.7499 10.9729 21.3877 10.9729 22.0145 10.9729C22.0475 10.9729 22.0805 10.9619 22.1024 10.9949C22.1134 11.0279 22.0805 11.0389 22.0585 11.0608C21.2777 11.9296 20.7719 12.9303 20.5189 14.0739C20.442 14.4258 20.387 14.7777 20.376 15.1406C20.376 15.2175 20.332 15.2175 20.277 15.2175C19.8262 15.2175 19.3643 15.2175 18.9134 15.2175C18.4626 15.2175 18.0117 15.2175 17.5719 15.2175C17.4949 15.2175 17.4729 15.2065 17.4729 15.1186C17.4729 14.5687 17.4729 14.0079 17.4729 13.4581H17.4619ZM20.7389 15.7344C20.7389 15.7344 20.7939 15.7344 20.8158 15.7344C20.8818 15.7344 20.9038 15.7564 20.9038 15.8224C20.9038 15.9433 20.9038 16.0643 20.9038 16.1743C20.9038 16.2402 20.8818 16.2622 20.8268 16.2622C20.5849 16.2622 20.354 16.2622 20.1121 16.2622C19.1444 16.2622 18.1657 16.2622 17.198 16.2622C15.9994 16.2622 14.8117 16.2622 13.6131 16.2622C13.5251 16.2622 13.4811 16.2182 13.4811 16.1303C13.4811 16.0203 13.4811 15.9213 13.4811 15.8114C13.4811 15.7454 13.5031 15.7234 13.5691 15.7234C13.5911 15.7234 13.6241 15.7234 13.6461 15.7234C16.0103 15.7234 18.3746 15.7234 20.7389 15.7234V15.7344ZM12.4365 10.9729C13.0853 10.9729 13.7341 10.9509 14.3829 10.9729C15.7134 11.0279 16.6921 11.9956 16.8901 13.1942C16.9011 13.2821 16.9121 13.3701 16.9121 13.4691C16.9121 14.0189 16.9121 14.5578 16.9121 15.1076C16.9121 15.1956 16.8901 15.2175 16.8021 15.2175C16.3513 15.2175 15.9004 15.2175 15.4495 15.2175C14.9987 15.2175 14.5478 15.2175 14.0969 15.2175C14.02 15.2175 13.998 15.1955 13.998 15.1186C13.91 13.601 13.3602 12.2595 12.3705 11.1048C12.3375 11.0608 12.2715 11.0279 12.2935 10.9729C12.3155 10.9289 12.3815 10.9619 12.4365 10.9619V10.9729ZM11.3588 10.434C11.4908 10.434 11.6337 10.577 11.6337 10.7199C11.6337 10.8519 11.5018 10.9949 11.3698 10.9949C11.2159 10.9949 11.0839 10.8629 11.0839 10.709C11.0839 10.577 11.2268 10.434 11.3588 10.434Z" fill="white"/>
</svg>
