<svg width="389" height="202" viewBox="0 0 389 202" fill="none" xmlns="http://www.w3.org/2000/svg">
<path d="M250.342 34.8596C257.415 37.9212 266.021 42.1133 275.439 47.7662C275.439 47.7662 289.286 56.0803 302.201 66.7857C319.123 80.8128 346.475 114.06 371.122 162.974C373.917 142.094 376.011 119.042 376.793 94.1195C377.474 72.3686 377.073 52.0283 375.981 33.2988C340.574 30.2573 302.772 29.9171 263.006 33.569C258.748 33.9592 254.53 34.3894 250.342 34.8596Z" fill="url(#paint0_linear_509_13424)"/>
<path d="M316.137 63.7738C315.937 61.7028 315.266 52.248 321.998 44.1439C326.176 39.1114 331.246 36.9703 333.741 36.1099C326.287 39.1714 323.06 41.5726 321.547 43.2935C321.187 43.7137 319.604 45.5146 317.119 47.6257C316.488 48.1559 315.766 48.7162 314.885 49.3165C312.23 51.1174 308.142 53.8088 304.475 52.5281C303.162 52.0679 301.249 50.8773 301.129 49.4166C301.108 49.2265 301.048 48.4461 301.589 48.0059C301.92 47.7357 302.471 47.5957 302.922 47.8358C303.313 48.0359 303.453 48.4261 303.483 48.5361C303.663 49.1064 303.333 49.6167 303.223 49.7767C302.752 50.4871 301.93 50.6272 301.77 50.6472C303.573 51.5777 305.647 51.4676 307.04 50.3771C308.974 48.8563 308.893 45.9448 307.942 44.304C306.278 41.4225 300.818 40.9423 297.762 43.2335C294.636 45.5746 293.825 50.9774 296.87 55.4196" stroke="black" stroke-width="0.89" stroke-linecap="round" stroke-linejoin="round"/>
<path d="M311.909 50.7574C311.358 50.2672 309.885 48.8364 309.384 46.4752C309.324 46.1751 308.913 44.114 309.795 41.9229C311.368 38.041 316.458 35.1095 320.976 36.4302C323.491 37.1705 325.004 38.9815 325.695 39.9519" stroke="black" stroke-width="0.89" stroke-linecap="round" stroke-linejoin="round"/>
<path d="M321.908 43.1636C321.648 42.4732 321.107 41.4227 320.015 40.7524C317.69 39.3116 314.494 40.6223 312.781 42.093C309.975 44.5043 310.176 48.1861 310.216 48.6663" stroke="black" stroke-width="0.89" stroke-linecap="round" stroke-linejoin="round"/>
<path d="M318.712 46.1547C318.672 46.0346 317.8 43.4633 315.606 42.9831C313.442 42.5128 310.757 44.2337 310.106 47.2652" stroke="black" stroke-width="0.89" stroke-linecap="round" stroke-linejoin="round"/>
<path d="M286 49.1466C288.835 50.1771 291.6 49.8569 293.213 48.7864C294.977 47.6158 295.698 45.9249 295.698 45.9249C295.768 45.7649 295.818 45.6348 295.848 45.5447C296.77 42.9434 296.159 38.9814 293.073 37.3606C290.228 35.8599 286.3 36.8904 284.968 39.3516C284.316 40.5622 284.156 42.3531 285.078 43.7038C286.25 45.4247 288.915 45.995 289.807 45.1746C290.127 44.8844 290.358 44.2641 290.198 43.7138C290.027 43.1635 289.526 42.9134 289.476 42.8934C288.875 42.6233 288.324 42.8934 288.224 42.9434C287.573 43.2836 287.462 43.9639 287.442 44.034C287.352 44.5943 287.613 45.1745 288.094 45.5247C287.683 45.5047 284.737 45.3446 282.854 42.8634C281.351 40.8824 281.09 38.181 282.182 35.8398" stroke="black" stroke-width="0.89" stroke-linecap="round" stroke-linejoin="round"/>
<path d="M295.448 39.0112H311.729" stroke="black" stroke-width="0.89" stroke-linecap="round" stroke-linejoin="round"/>
<path d="M341.055 95.1098C343.9 95.0498 353.438 94.4895 361.864 87.2859C368.116 81.9432 370.631 75.62 371.583 72.6885C370.691 75.9001 369.158 79.8421 366.453 83.8741C365.612 85.1348 364.74 86.2653 363.878 87.2859C362.846 88.4164 362.325 88.7766 361.203 89.9172C361.203 89.9172 359.44 91.7081 358.007 93.7091C356.594 95.6701 353.378 100.112 354.761 104.024C355.222 105.325 356.434 107.226 357.907 107.336C358.097 107.356 358.889 107.416 359.33 106.886C359.6 106.566 359.74 106.015 359.5 105.565C359.3 105.175 358.909 105.045 358.789 105.005C358.207 104.835 357.696 105.155 357.536 105.265C356.815 105.725 356.685 106.546 356.654 106.706C355.723 104.915 355.823 102.854 356.925 101.483C358.458 99.562 361.394 99.6421 363.047 100.593C366.002 102.273 366.483 107.656 364.129 110.688C361.774 113.709 356.544 114.47 352.336 111.578" stroke="black" stroke-width="0.89" stroke-linecap="round" stroke-linejoin="round"/>
<path d="M356.564 96.6505C357.055 97.2008 358.508 98.6515 360.892 99.1518C361.193 99.2118 363.277 99.622 365.481 98.7416C369.389 97.1808 372.354 92.1383 371.022 87.666C370.28 85.1747 368.447 83.664 367.465 82.9937" stroke="black" stroke-width="0.89" stroke-linecap="round" stroke-linejoin="round"/>
<path d="M361.213 89.9072C361.444 89.9873 363.888 90.8777 364.409 92.9888C364.95 95.2199 363.167 98.0613 359.901 98.8717" stroke="black" stroke-width="0.89" stroke-linecap="round" stroke-linejoin="round"/>
<path d="M358.157 121.973C357.195 119.382 357.486 116.781 358.558 115.18C359.72 113.439 361.444 112.709 361.444 112.709C361.604 112.639 361.744 112.589 361.834 112.559C364.449 111.648 368.457 112.248 370.09 115.31C371.603 118.131 370.561 122.023 368.076 123.344C366.854 123.994 365.05 124.154 363.688 123.234C361.955 122.063 361.373 119.432 362.205 118.542C362.496 118.231 363.117 117.991 363.678 118.161C364.239 118.331 364.479 118.832 364.509 118.882C364.79 119.472 364.509 120.022 364.459 120.122C364.119 120.763 363.437 120.883 363.357 120.893C362.786 120.983 362.205 120.733 361.854 120.252C361.854 120.453 361.904 121.283 362.265 122.303C362.325 122.464 363.007 124.274 364.539 125.455C367.435 127.676 371.433 126.195 371.623 126.125" stroke="black" stroke-width="0.89" stroke-linecap="round" stroke-linejoin="round"/>
<path d="M364.199 87.4956C364.89 87.7557 365.952 88.296 366.633 89.3665C368.066 91.6377 366.884 94.7893 365.281 96.5302C363.307 98.6813 360.562 98.8413 359.891 98.8613" stroke="black" stroke-width="0.89" stroke-linecap="round" stroke-linejoin="round"/>
<path d="M368.397 113.419C368.417 107.856 368.437 102.293 368.457 96.7305" stroke="black" stroke-width="0.89" stroke-linecap="round" stroke-linejoin="round"/>
<path d="M369.319 72.4679C370.932 70.4069 373.737 67.3554 378.045 64.7741C381.933 62.4429 385.57 61.3924 388.034 60.8721C386.361 60.0517 383.526 58.9211 379.829 58.671C376.623 58.4509 373.998 58.9811 372.304 59.4514C371.312 63.7836 370.321 68.1258 369.329 72.4579L369.319 72.4679Z" fill="url(#paint1_linear_509_13424)"/>
<mask id="mask0_509_13424" style="mask-type:luminance" maskUnits="userSpaceOnUse" x="369" y="58" width="20" height="15">
<path d="M369.319 72.4679C370.932 70.4069 373.737 67.3554 378.045 64.7741C381.933 62.4429 385.57 61.3924 388.034 60.8721C386.361 60.0517 383.526 58.9211 379.829 58.671C376.623 58.4509 373.998 58.9811 372.304 59.4514C371.312 63.7836 370.321 68.1258 369.329 72.4579L369.319 72.4679Z" fill="white"/>
</mask>
<g mask="url(#mask0_509_13424)">
<path opacity="0.43" d="M371.623 64.6141C372.645 63.9337 373.847 63.2634 375.24 62.6831C380.049 60.6521 384.538 60.7421 387.253 61.0623C381.472 64.394 375.701 67.7157 369.92 71.0473C370.491 68.9063 371.052 66.7652 371.623 64.6241V64.6141Z" fill="#270D1D"/>
</g>
<path d="M369.319 72.4679C370.932 70.4069 373.737 67.3554 378.045 64.7741C381.933 62.4429 385.57 61.3924 388.034 60.8721C386.361 60.0517 383.526 58.9211 379.829 58.671C376.623 58.4509 373.998 58.9811 372.304 59.4514C371.312 63.7836 370.321 68.1258 369.329 72.4579L369.319 72.4679Z" stroke="black" stroke-width="0.89" stroke-linecap="round" stroke-linejoin="round"/>
<path d="M335.274 38.7215C337.348 37.1207 340.434 34.3393 343.028 30.0771C345.373 26.2252 346.445 22.6234 346.966 20.1821C347.788 21.843 348.93 24.6544 349.19 28.3162C349.411 31.4978 348.88 34.0991 348.399 35.77C344.03 36.7505 339.652 37.741 335.284 38.7215H335.274Z" fill="url(#paint2_linear_509_13424)"/>
<mask id="mask1_509_13424" style="mask-type:luminance" maskUnits="userSpaceOnUse" x="335" y="20" width="15" height="19">
<path d="M335.274 38.7215C337.348 37.1207 340.434 34.3393 343.028 30.0771C345.373 26.2252 346.445 22.6234 346.966 20.1821C347.788 21.843 348.93 24.6544 349.19 28.3162C349.411 31.4978 348.88 34.0991 348.399 35.77C344.03 36.7505 339.652 37.741 335.284 38.7215H335.274Z" fill="white"/>
</mask>
<g mask="url(#mask1_509_13424)">
<path opacity="0.43" d="M343.199 36.4297C343.88 35.4092 344.561 34.2186 345.153 32.8479C347.196 28.0855 347.106 23.6333 346.796 20.9419C343.439 26.6648 340.083 32.3977 336.726 38.1206C338.891 37.5603 341.045 36.99 343.209 36.4297H343.199Z" fill="#270D1D"/>
</g>
<path d="M335.274 38.7215C337.348 37.1207 340.434 34.3393 343.028 30.0771C345.373 26.2252 346.445 22.6234 346.966 20.1821C347.788 21.843 348.93 24.6544 349.19 28.3162C349.411 31.4978 348.88 34.0991 348.399 35.77C344.03 36.7505 339.652 37.741 335.284 38.7215H335.274Z" stroke="black" stroke-width="0.89" stroke-linecap="round" stroke-linejoin="round"/>
<path d="M365.411 77.861C366.974 75.89 358.107 67.6959 348.228 59.5518L327.91 79.7019C330.384 81.9531 333.09 83.9541 335.594 85.3848C341.676 88.8666 362.075 82.0831 365.411 77.861Z" fill="url(#paint3_linear_509_13424)" stroke="black" stroke-width="0.89" stroke-linecap="round" stroke-linejoin="round"/>
<path d="M329.833 42.5935C331.827 41.0428 340.083 49.8372 348.309 59.6221L327.99 79.7723C325.715 77.3211 323.702 74.6297 322.259 72.1585C318.752 66.1354 325.595 45.9052 329.843 42.6035L329.833 42.5935Z" fill="url(#paint4_linear_509_13424)" stroke="black" stroke-width="0.89" stroke-linecap="round" stroke-linejoin="round"/>
<path d="M319.133 48.8963C318.542 52.338 316.708 65.1145 323.672 73.1785C325.485 75.2896 326.246 75.1695 326.437 75.0895C328.761 74.119 323.351 56.6202 328.381 44.9343C333.591 32.8382 362.967 35.3594 371.603 36.38L371.663 36.3199C371.663 36.3199 371.663 36.3599 371.663 36.38C371.683 36.38 371.703 36.38 371.723 36.38L371.663 36.44C372.695 45.0043 375.23 74.119 363.037 79.2816C351.244 84.2741 333.591 78.9114 332.619 81.2126C332.498 81.4927 332.488 82.2131 334.542 83.954C342.648 90.8274 355.192 89.7969 359.159 89.3267C358.268 90.4773 355.282 94.0291 349.972 95.3497C345.914 96.3603 342.538 95.5498 341.035 95.0896C337.137 90.3072 332.338 85.0645 326.487 79.7919C322.399 76.11 318.402 72.9484 314.644 70.2571C314.063 68.7663 313.572 66.9654 313.402 64.8944C312.741 56.8303 317.52 50.7472 319.123 48.8763L319.133 48.8963Z" fill="url(#paint5_linear_509_13424)"/>
<mask id="mask2_509_13424" style="mask-type:luminance" maskUnits="userSpaceOnUse" x="313" y="35" width="60" height="61">
<path d="M319.133 48.8963C318.542 52.338 316.708 65.1145 323.672 73.1785C325.485 75.2896 326.246 75.1695 326.437 75.0895C328.761 74.119 323.351 56.6202 328.381 44.9343C333.591 32.8382 362.967 35.3594 371.603 36.38L371.663 36.3199C371.663 36.3199 371.663 36.3599 371.663 36.38C371.683 36.38 371.703 36.38 371.723 36.38L371.663 36.44C372.695 45.0043 375.23 74.119 363.037 79.2816C351.244 84.2741 333.591 78.9114 332.619 81.2126C332.498 81.4927 332.488 82.2131 334.542 83.954C342.648 90.8274 355.192 89.7969 359.159 89.3267C358.268 90.4773 355.282 94.0291 349.972 95.3497C345.914 96.3603 342.538 95.5498 341.035 95.0896C337.137 90.3072 332.338 85.0645 326.487 79.7919C322.399 76.11 318.402 72.9484 314.644 70.2571C314.063 68.7663 313.572 66.9654 313.402 64.8944C312.741 56.8303 317.52 50.7472 319.123 48.8763L319.133 48.8963Z" fill="white"/>
</mask>
<g mask="url(#mask2_509_13424)">
<path d="M361.935 46.115C363.187 51.8679 364.249 58.3511 364.84 65.4747C365.191 69.6869 365.341 73.6789 365.351 77.4308C367.385 75.92 385.159 62.2831 383.316 43.7438C383.055 41.1525 382.384 34.4591 377.304 29.6867C368.387 21.3225 352.196 24.7742 342.698 30.247C336.135 34.0289 332.208 39.0914 330.154 42.233C335.314 42.9734 340.574 43.6737 345.934 44.3341C351.355 44.9944 356.695 45.5947 361.935 46.125V46.115Z" fill="url(#paint6_linear_509_13424)"/>
</g>
<path d="M319.133 48.8963C318.542 52.338 316.708 65.1145 323.672 73.1785C325.485 75.2896 326.246 75.1695 326.437 75.0895C328.761 74.119 323.351 56.6202 328.381 44.9343C333.591 32.8382 362.967 35.3594 371.603 36.38L371.663 36.3199C371.663 36.3199 371.663 36.3599 371.663 36.38C371.683 36.38 371.703 36.38 371.723 36.38L371.663 36.44C372.695 45.0043 375.23 74.119 363.037 79.2816C351.244 84.2741 333.591 78.9114 332.619 81.2126C332.498 81.4927 332.488 82.2131 334.542 83.954C342.648 90.8274 355.192 89.7969 359.159 89.3267C358.268 90.4773 355.282 94.0291 349.972 95.3497C345.914 96.3603 342.538 95.5498 341.035 95.0896C337.137 90.3072 332.338 85.0645 326.487 79.7919C322.399 76.11 318.402 72.9484 314.644 70.2571C314.063 68.7663 313.572 66.9654 313.402 64.8944C312.741 56.8303 317.52 50.7472 319.123 48.8763L319.133 48.8963Z" stroke="black" stroke-width="0.89" stroke-linecap="round" stroke-linejoin="round"/>
<path d="M361.864 46.0846L361.914 46.0346C361.914 46.0346 361.925 46.0846 361.935 46.1046C361.955 46.1046 361.985 46.1146 362.005 46.1246L361.955 46.1747C364.319 52.2277 361.844 62.8831 356.244 67.3854C351.274 71.3874 343.189 70.7971 338.52 69.3964L338.47 69.4464C338.47 69.4464 338.46 69.3964 338.45 69.3764C338.43 69.3764 338.4 69.3664 338.38 69.3564L338.43 69.3063C337.017 64.674 336.426 56.6699 340.464 51.7375C345.012 46.1847 355.763 43.7334 361.864 46.0746V46.0846Z" fill="url(#paint7_radial_509_13424)" stroke="black" stroke-width="0.89" stroke-linecap="round" stroke-linejoin="round"/>
<path d="M138.468 34.8596C131.395 37.9212 122.788 42.1133 113.37 47.7662C113.37 47.7662 99.5237 56.0803 86.6091 66.7857C69.6868 80.8128 42.3346 114.06 17.6876 162.974C14.8922 142.094 12.7982 119.042 12.0167 94.1195C11.3354 72.3686 11.7362 52.0283 12.8283 33.2988C48.2359 30.2573 86.038 29.9171 125.804 33.569C130.062 33.9592 134.28 34.3894 138.468 34.8596Z" fill="url(#paint8_linear_509_13424)"/>
<path d="M72.6724 63.7738C72.8728 61.7028 73.5441 52.248 66.8113 44.1439C62.6333 39.1114 57.5636 36.9703 55.0688 36.1099C62.5231 39.1714 65.7492 41.5726 67.2621 43.2935C67.6228 43.7137 69.2058 45.5146 71.6906 47.6257C72.3218 48.1559 73.0431 48.7162 73.9248 49.3165C76.5799 51.1174 80.6677 53.8088 84.3347 52.5281C85.6472 52.0679 87.5609 50.8773 87.6811 49.4166C87.7011 49.2265 87.7612 48.4461 87.2202 48.0059C86.8896 47.7357 86.3385 47.5957 85.8877 47.8358C85.4969 48.0359 85.3566 48.4261 85.3266 48.5361C85.1462 49.1064 85.4769 49.6167 85.5871 49.7767C86.058 50.4871 86.8795 50.6272 87.0399 50.6472C85.2364 51.5777 83.1625 51.4676 81.7698 50.3771C79.8361 48.8563 79.9163 45.9448 80.8681 44.304C82.5313 41.4225 87.9917 40.9423 91.0475 43.2335C94.1735 45.5746 94.985 50.9774 91.9392 55.4196" stroke="black" stroke-width="0.89" stroke-linecap="round" stroke-linejoin="round"/>
<path d="M76.9004 50.7574C77.4515 50.2672 78.9243 48.8364 79.4253 46.4752C79.4854 46.1751 79.8962 44.114 79.0145 41.9229C77.4415 38.041 72.3518 35.1095 67.8331 36.4302C65.3183 37.1705 63.8055 38.9815 63.1141 39.9519" stroke="black" stroke-width="0.89" stroke-linecap="round" stroke-linejoin="round"/>
<path d="M66.9014 43.1636C67.1619 42.4732 67.7029 41.4227 68.795 40.7524C71.1194 39.3116 74.3155 40.6223 76.0288 42.093C78.8341 44.5043 78.6338 48.1861 78.5937 48.6663" stroke="black" stroke-width="0.89" stroke-linecap="round" stroke-linejoin="round"/>
<path d="M70.0975 46.1547C70.1376 46.0346 71.0093 43.4633 73.2035 42.9831C75.3676 42.5128 78.0527 44.2337 78.704 47.2652" stroke="black" stroke-width="0.89" stroke-linecap="round" stroke-linejoin="round"/>
<path d="M102.8 49.1466C99.9646 50.1771 97.1993 49.8569 95.5862 48.7864C93.8229 47.6158 93.1015 45.9249 93.1015 45.9249C93.0314 45.7649 92.9813 45.6348 92.9512 45.5447C92.0295 42.9434 92.6406 38.9814 95.7265 37.3606C98.5719 35.8599 102.499 36.8904 103.832 39.3516C104.483 40.5622 104.644 42.3531 103.722 43.7038C102.55 45.4247 99.8844 45.995 98.9927 45.1746C98.6721 44.8844 98.4417 44.2641 98.602 43.7138C98.7723 43.1635 99.2733 42.9134 99.3234 42.8934C99.9245 42.6233 100.476 42.8934 100.576 42.9434C101.227 43.2836 101.337 43.9639 101.357 44.034C101.447 44.5943 101.187 45.1745 100.706 45.5247C101.117 45.5047 104.062 45.3446 105.946 42.8634C107.449 40.8824 107.709 38.181 106.617 35.8398" stroke="black" stroke-width="0.89" stroke-linecap="round" stroke-linejoin="round"/>
<path d="M93.362 39.0112H77.0809" stroke="black" stroke-width="0.89" stroke-linecap="round" stroke-linejoin="round"/>
<path d="M47.7549 95.1098C44.9095 95.0498 35.3713 94.4895 26.9452 87.2859C20.6933 81.9432 18.1785 75.62 17.2267 72.6885C18.1184 75.9001 19.6513 79.8421 22.3565 83.8741C23.1981 85.1348 24.0697 86.2653 24.9314 87.2859C25.9634 88.4164 26.4844 88.7766 27.6065 89.9172C27.6065 89.9172 29.3699 91.7081 30.8026 93.7091C32.2153 95.6701 35.4314 100.112 34.0488 104.024C33.5879 105.325 32.3756 107.226 30.9028 107.336C30.7124 107.356 29.9209 107.416 29.4801 106.886C29.2096 106.566 29.0693 106.015 29.3097 105.565C29.5101 105.175 29.9009 105.045 30.0211 105.005C30.6022 104.835 31.1132 105.155 31.2735 105.265C31.9949 105.725 32.1251 106.546 32.1552 106.706C33.087 104.915 32.9868 102.854 31.8847 101.483C30.3517 99.562 27.4161 99.6421 25.763 100.593C22.8073 102.273 22.3264 107.656 24.6809 110.688C27.0354 113.709 32.2654 114.47 36.4734 111.578" stroke="black" stroke-width="0.89" stroke-linecap="round" stroke-linejoin="round"/>
<path d="M32.2353 96.6505C31.7444 97.2008 30.2916 98.6515 27.9071 99.1518C27.6065 99.2118 25.5225 99.622 23.3183 98.7416C19.4109 97.1808 16.4452 92.1383 17.7777 87.666C18.5192 85.1747 20.3527 83.664 21.3345 82.9937" stroke="black" stroke-width="0.89" stroke-linecap="round" stroke-linejoin="round"/>
<path d="M27.5965 89.9072C27.366 89.9873 24.9214 90.8777 24.4004 92.9888C23.8594 95.2199 25.6428 98.0613 28.909 98.8717" stroke="black" stroke-width="0.89" stroke-linecap="round" stroke-linejoin="round"/>
<path d="M30.6523 121.973C31.6142 119.382 31.3236 116.781 30.2516 115.18C29.0894 113.439 27.3661 112.709 27.3661 112.709C27.2058 112.639 27.0655 112.589 26.9753 112.559C24.3603 111.648 20.3527 112.248 18.7196 115.31C17.2067 118.131 18.2487 122.023 20.7334 123.344C21.9557 123.994 23.7592 124.154 25.1218 123.234C26.8551 122.063 27.4362 119.432 26.6046 118.542C26.3141 118.231 25.6929 117.991 25.1318 118.161C24.5707 118.331 24.3303 118.832 24.3002 118.882C24.0197 119.472 24.3002 120.022 24.3503 120.122C24.691 120.763 25.3723 120.883 25.4524 120.893C26.0235 120.983 26.6046 120.733 26.9553 120.252C26.9553 120.453 26.9052 121.283 26.5445 122.303C26.4844 122.464 25.8031 124.274 24.2702 125.455C21.3746 127.676 17.377 126.195 17.1866 126.125" stroke="black" stroke-width="0.89" stroke-linecap="round" stroke-linejoin="round"/>
<path d="M24.6008 87.4956C23.9095 87.7557 22.8475 88.296 22.1662 89.3665C20.7335 91.6377 21.9157 94.7893 23.5188 96.5302C25.4925 98.6813 28.2378 98.8413 28.9091 98.8613" stroke="black" stroke-width="0.89" stroke-linecap="round" stroke-linejoin="round"/>
<path d="M20.4127 113.419C20.3927 107.856 20.3727 102.293 20.3527 96.7305" stroke="black" stroke-width="0.89" stroke-linecap="round" stroke-linejoin="round"/>
<path d="M19.491 72.4679C17.8779 70.4069 15.0726 67.3554 10.7643 64.7741C6.87691 62.4429 3.23997 61.3924 0.775269 60.8721C2.44846 60.0517 5.28387 58.9211 8.98093 58.671C12.187 58.4509 14.8121 58.9811 16.5053 59.4514C17.4972 63.7836 18.4891 68.1258 19.481 72.4579L19.491 72.4679Z" fill="url(#paint9_linear_509_13424)"/>
<mask id="mask3_509_13424" style="mask-type:luminance" maskUnits="userSpaceOnUse" x="0" y="58" width="20" height="15">
<path d="M19.491 72.4679C17.8779 70.4069 15.0726 67.3554 10.7643 64.7741C6.87691 62.4429 3.23997 61.3924 0.775269 60.8721C2.44846 60.0517 5.28387 58.9211 8.98093 58.671C12.187 58.4509 14.8121 58.9811 16.5053 59.4514C17.4972 63.7836 18.4891 68.1258 19.481 72.4579L19.491 72.4679Z" fill="white"/>
</mask>
<g mask="url(#mask3_509_13424)">
<path opacity="0.43" d="M17.1867 64.6141C16.1648 63.9337 14.9625 63.2634 13.5698 62.6831C8.76063 60.6521 4.27207 60.7421 1.55688 61.0623C7.33792 64.394 13.1089 67.7157 18.89 71.0473C18.3189 68.9063 17.7578 66.7652 17.1867 64.6241V64.6141Z" fill="#270D1D"/>
</g>
<path d="M19.491 72.4679C17.8779 70.4069 15.0726 67.3554 10.7643 64.7741C6.87691 62.4429 3.23997 61.3924 0.775269 60.8721C2.44846 60.0517 5.28387 58.9211 8.98093 58.671C12.187 58.4509 14.8121 58.9811 16.5053 59.4514C17.4972 63.7836 18.4891 68.1258 19.481 72.4579L19.491 72.4679Z" stroke="black" stroke-width="0.89" stroke-linecap="round" stroke-linejoin="round"/>
<path d="M53.5361 38.7215C51.4621 37.1207 48.3762 34.3393 45.7813 30.0771C43.4368 26.2252 42.3647 22.6234 41.8437 20.1821C41.0222 21.843 39.88 24.6544 39.6195 28.3162C39.3991 31.4978 39.9301 34.0991 40.411 35.77C44.7793 36.7505 49.1577 37.741 53.526 38.7215H53.5361Z" fill="url(#paint10_linear_509_13424)"/>
<mask id="mask4_509_13424" style="mask-type:luminance" maskUnits="userSpaceOnUse" x="39" y="20" width="15" height="19">
<path d="M53.5361 38.7215C51.4621 37.1207 48.3762 34.3393 45.7813 30.0771C43.4368 26.2252 42.3647 22.6234 41.8437 20.1821C41.0222 21.843 39.88 24.6544 39.6195 28.3162C39.3991 31.4978 39.9301 34.0991 40.411 35.77C44.7793 36.7505 49.1577 37.741 53.526 38.7215H53.5361Z" fill="white"/>
</mask>
<g mask="url(#mask4_509_13424)">
<path opacity="0.43" d="M45.6108 36.4297C44.9295 35.4092 44.2482 34.2186 43.6571 32.8479C41.6132 28.0855 41.7034 23.6333 42.014 20.9419C45.3704 26.6648 48.7268 32.3977 52.0832 38.1206C49.9191 37.5603 47.7649 36.99 45.6008 36.4297H45.6108Z" fill="#270D1D"/>
</g>
<path d="M53.5361 38.7215C51.4621 37.1207 48.3762 34.3393 45.7813 30.0771C43.4368 26.2252 42.3647 22.6234 41.8437 20.1821C41.0222 21.843 39.88 24.6544 39.6195 28.3162C39.3991 31.4978 39.9301 34.0991 40.411 35.77C44.7793 36.7505 49.1577 37.741 53.526 38.7215H53.5361Z" stroke="black" stroke-width="0.89" stroke-linecap="round" stroke-linejoin="round"/>
<path d="M23.3985 77.861C21.8355 75.89 30.7024 67.6959 40.5813 59.5518L60.9 79.7019C58.4253 81.9531 55.7202 83.9541 53.2154 85.3848C47.1338 88.8666 26.7348 82.0831 23.3985 77.861Z" fill="url(#paint11_linear_509_13424)" stroke="black" stroke-width="0.89" stroke-linecap="round" stroke-linejoin="round"/>
<path d="M58.9764 42.5935C56.9826 41.0428 48.7268 49.8372 40.5011 59.6221L60.8199 79.7723C63.0942 77.3211 65.1081 74.6297 66.5508 72.1585C70.0575 66.1354 63.2144 45.9052 58.9663 42.6035L58.9764 42.5935Z" fill="url(#paint12_linear_509_13424)" stroke="black" stroke-width="0.89" stroke-linecap="round" stroke-linejoin="round"/>
<path d="M69.6769 48.8963C70.268 52.338 72.1015 65.1145 65.1383 73.1785C63.3248 75.2896 62.5633 75.1695 62.373 75.0895C60.0485 74.119 65.4589 56.6202 60.4293 44.9343C55.2193 32.8382 25.8433 35.3594 17.2068 36.38L17.1467 36.3199C17.1467 36.3199 17.1467 36.3599 17.1467 36.38C17.1266 36.38 17.1066 36.38 17.0866 36.38L17.1467 36.44C16.1147 45.0043 13.5799 74.119 25.7731 79.2816C37.5656 84.2741 55.2193 78.9114 56.1912 81.2126C56.3114 81.4927 56.3214 82.2131 54.2675 83.954C46.162 90.8274 33.6181 89.7969 29.6505 89.3267C30.5422 90.4773 33.5279 94.0291 38.8381 95.3497C42.8958 96.3603 46.2722 95.5498 47.7751 95.0896C51.6726 90.3072 56.4717 85.0645 62.3229 79.7919C66.4107 76.11 70.4083 72.9484 74.1655 70.2571C74.7466 68.7663 75.2375 66.9654 75.4079 64.8944C76.0691 56.8303 71.29 50.7472 69.6869 48.8763L69.6769 48.8963Z" fill="url(#paint13_linear_509_13424)"/>
<mask id="mask5_509_13424" style="mask-type:luminance" maskUnits="userSpaceOnUse" x="16" y="35" width="60" height="61">
<path d="M69.6769 48.8963C70.268 52.338 72.1015 65.1145 65.1383 73.1785C63.3248 75.2896 62.5633 75.1695 62.373 75.0895C60.0485 74.119 65.4589 56.6202 60.4293 44.9343C55.2193 32.8382 25.8433 35.3594 17.2068 36.38L17.1467 36.3199C17.1467 36.3199 17.1467 36.3599 17.1467 36.38C17.1266 36.38 17.1066 36.38 17.0866 36.38L17.1467 36.44C16.1147 45.0043 13.5799 74.119 25.7731 79.2816C37.5656 84.2741 55.2193 78.9114 56.1912 81.2126C56.3114 81.4927 56.3214 82.2131 54.2675 83.954C46.162 90.8274 33.6181 89.7969 29.6505 89.3267C30.5422 90.4773 33.5279 94.0291 38.8381 95.3497C42.8958 96.3603 46.2722 95.5498 47.7751 95.0896C51.6726 90.3072 56.4717 85.0645 62.3229 79.7919C66.4107 76.11 70.4083 72.9484 74.1655 70.2571C74.7466 68.7663 75.2375 66.9654 75.4079 64.8944C76.0691 56.8303 71.29 50.7472 69.6869 48.8763L69.6769 48.8963Z" fill="white"/>
</mask>
<g mask="url(#mask5_509_13424)">
<path d="M26.8751 46.115C25.6227 51.8679 24.5607 58.3511 23.9696 65.4747C23.6189 69.6869 23.4686 73.6789 23.4586 77.4308C21.4247 75.92 3.65081 62.2831 5.49433 43.7438C5.75482 41.1525 6.42611 34.4591 11.5058 29.6867C20.4228 21.3225 36.6137 24.7742 46.1118 30.247C52.6744 34.0289 56.6019 39.0914 58.6558 42.233C53.4959 42.9734 48.2359 43.6737 42.8757 44.3341C37.4553 44.9944 32.1151 45.5947 26.8751 46.125V46.115Z" fill="url(#paint14_linear_509_13424)"/>
</g>
<path d="M69.6769 48.8963C70.268 52.338 72.1015 65.1145 65.1383 73.1785C63.3248 75.2896 62.5633 75.1695 62.373 75.0895C60.0485 74.119 65.4589 56.6202 60.4293 44.9343C55.2193 32.8382 25.8433 35.3594 17.2068 36.38L17.1467 36.3199C17.1467 36.3199 17.1467 36.3599 17.1467 36.38C17.1266 36.38 17.1066 36.38 17.0866 36.38L17.1467 36.44C16.1147 45.0043 13.5799 74.119 25.7731 79.2816C37.5656 84.2741 55.2193 78.9114 56.1912 81.2126C56.3114 81.4927 56.3214 82.2131 54.2675 83.954C46.162 90.8274 33.6181 89.7969 29.6505 89.3267C30.5422 90.4773 33.5279 94.0291 38.8381 95.3497C42.8958 96.3603 46.2722 95.5498 47.7751 95.0896C51.6726 90.3072 56.4717 85.0645 62.3229 79.7919C66.4107 76.11 70.4083 72.9484 74.1655 70.2571C74.7466 68.7663 75.2375 66.9654 75.4079 64.8944C76.0691 56.8303 71.29 50.7472 69.6869 48.8763L69.6769 48.8963Z" stroke="black" stroke-width="0.89" stroke-linecap="round" stroke-linejoin="round"/>
<path d="M26.9452 46.0846L26.8951 46.0346C26.8951 46.0346 26.8851 46.0846 26.8751 46.1046C26.855 46.1046 26.825 46.1146 26.805 46.1246L26.855 46.1747C24.4905 52.2277 26.9653 62.8831 32.5659 67.3854C37.5354 71.3874 45.6209 70.7971 50.2898 69.3964L50.3399 69.4464C50.3399 69.4464 50.3499 69.3964 50.3599 69.3764C50.3799 69.3764 50.41 69.3664 50.43 69.3564L50.3799 69.3063C51.7926 64.674 52.3838 56.6699 48.3461 51.7375C43.7974 46.1847 33.0469 43.7334 26.9452 46.0746V46.0846Z" fill="url(#paint15_radial_509_13424)" stroke="black" stroke-width="0.89" stroke-linecap="round" stroke-linejoin="round"/>
<path d="M371.282 150.397V201.163C370.701 193.389 369.238 181.233 364.95 167.036C347.327 108.866 293.574 61.7324 261.663 51.6073C252.015 48.5458 232.347 44.2036 220.755 33.3681C218.851 31.5872 211.507 24.3335 199.805 17.4101C197.521 16.0594 195.617 15.0389 194.405 14.4085C193.192 15.0389 191.289 16.0594 189.004 17.4101C177.302 24.3335 169.958 31.5872 168.054 33.3681C156.462 44.2036 136.795 48.5458 127.146 51.6073C95.2355 61.7324 41.4829 108.866 23.8693 167.036C19.5711 181.233 18.1083 193.389 17.5272 201.163V150.397C22.5167 135.61 31.6341 114.769 48.7468 93.9087C79.0546 56.97 116.446 41.8624 134.01 36.0595C139.28 34.9189 143.247 33.178 145.932 31.7573C151.643 28.7358 156.242 24.6937 161.272 20.2815C162.193 19.4711 162.965 18.7807 163.506 18.2805C167.804 14.5286 173.355 10.4065 180.268 6.70465C185.347 3.98328 190.147 2.03229 194.365 0.621577C194.365 0.611572 194.395 0.611568 194.405 0.601562C194.415 0.611568 194.435 0.611572 194.445 0.621577C198.663 2.03229 203.462 3.98328 208.552 6.70465C215.505 10.4365 221.086 14.5886 225.394 18.3505L225.424 18.3805C225.955 18.8708 226.676 19.5311 227.538 20.2815C232.568 24.6937 237.166 28.7358 242.877 31.7573C245.562 33.178 249.53 34.9189 254.8 36.0595C272.364 41.8624 309.755 56.97 340.063 93.9087C357.175 114.769 366.293 135.61 371.282 150.397Z" fill="url(#paint16_linear_509_13424)" stroke="black" stroke-width="0.93" stroke-linecap="round" stroke-linejoin="round"/>
<defs>
<linearGradient id="paint0_linear_509_13424" x1="250.342" y1="96.951" x2="377.134" y2="96.951" gradientUnits="userSpaceOnUse">
<stop stop-color="#80776D"/>
<stop offset="0.22" stop-color="#918789"/>
<stop offset="0.55" stop-color="#BBB0AE"/>
<stop offset="0.84" stop-color="#D7CCC8"/>
<stop offset="1" stop-color="#E2D7D2"/>
</linearGradient>
<linearGradient id="paint1_linear_509_13424" x1="380.444" y1="68.4466" x2="371.883" y2="59.8742" gradientUnits="userSpaceOnUse">
<stop stop-color="#625258"/>
<stop offset="1" stop-color="#918789"/>
</linearGradient>
<linearGradient id="paint2_linear_509_13424" x1="339.4" y1="27.7298" x2="347.911" y2="36.2525" gradientUnits="userSpaceOnUse">
<stop stop-color="#625258"/>
<stop offset="1" stop-color="#918789"/>
</linearGradient>
<linearGradient id="paint3_linear_509_13424" x1="336.803" y1="88.6527" x2="357.751" y2="67.6753" gradientUnits="userSpaceOnUse">
<stop stop-color="#80776D"/>
<stop offset="0.22" stop-color="#918789"/>
<stop offset="0.55" stop-color="#BBB0AE"/>
<stop offset="0.84" stop-color="#D7CCC8"/>
<stop offset="1" stop-color="#E2D7D2"/>
</linearGradient>
<linearGradient id="paint4_linear_509_13424" x1="319.129" y1="71.0033" x2="339.992" y2="50.1109" gradientUnits="userSpaceOnUse">
<stop stop-color="#80776D"/>
<stop offset="0.22" stop-color="#918789"/>
<stop offset="0.55" stop-color="#BBB0AE"/>
<stop offset="0.84" stop-color="#D7CCC8"/>
<stop offset="1" stop-color="#E2D7D2"/>
</linearGradient>
<linearGradient id="paint5_linear_509_13424" x1="326.189" y1="82.1601" x2="372.329" y2="35.9544" gradientUnits="userSpaceOnUse">
<stop offset="0.04" stop-color="#918789"/>
<stop offset="0.45" stop-color="#BBB0AE"/>
<stop offset="0.8" stop-color="#D7CCC8"/>
<stop offset="1" stop-color="#E2D7D2"/>
</linearGradient>
<linearGradient id="paint6_linear_509_13424" x1="373.67" y1="33.7838" x2="348.116" y2="59.2601" gradientUnits="userSpaceOnUse">
<stop stop-color="white"/>
<stop offset="0.1" stop-color="white" stop-opacity="0.9604"/>
<stop offset="0.23" stop-color="white" stop-opacity="0.8464"/>
<stop offset="0.36" stop-color="white" stop-opacity="0.6889"/>
<stop offset="0.49" stop-color="white" stop-opacity="0.49"/>
<stop offset="0.64" stop-color="white" stop-opacity="0.2809"/>
<stop offset="0.79" stop-color="white" stop-opacity="0.1089"/>
<stop offset="0.94" stop-color="white" stop-opacity="0.01"/>
<stop offset="0.99" stop-color="white" stop-opacity="0"/>
</linearGradient>
<radialGradient id="paint7_radial_509_13424" cx="0" cy="0" r="1" gradientUnits="userSpaceOnUse" gradientTransform="translate(350.54 49.7277) scale(17.2699 11.5422)">
<stop offset="0.16" stop-color="#FF0303"/>
<stop offset="0.49" stop-color="#FD0303"/>
<stop offset="0.63" stop-color="#F50303"/>
<stop offset="0.74" stop-color="#E90503"/>
<stop offset="0.82" stop-color="#D80604"/>
<stop offset="0.89" stop-color="#C10905"/>
<stop offset="0.96" stop-color="#A50B06"/>
<stop offset="1" stop-color="#8F0E08"/>
</radialGradient>
<linearGradient id="paint8_linear_509_13424" x1="138.458" y1="96.951" x2="11.6761" y2="96.951" gradientUnits="userSpaceOnUse">
<stop stop-color="#80776D"/>
<stop offset="0.22" stop-color="#918789"/>
<stop offset="0.55" stop-color="#BBB0AE"/>
<stop offset="0.84" stop-color="#D7CCC8"/>
<stop offset="1" stop-color="#E2D7D2"/>
</linearGradient>
<linearGradient id="paint9_linear_509_13424" x1="8.36138" y1="68.4466" x2="16.9217" y2="59.8743" gradientUnits="userSpaceOnUse">
<stop stop-color="#625258"/>
<stop offset="1" stop-color="#918789"/>
</linearGradient>
<linearGradient id="paint10_linear_509_13424" x1="49.4053" y1="27.7298" x2="40.8945" y2="36.2526" gradientUnits="userSpaceOnUse">
<stop stop-color="#625258"/>
<stop offset="1" stop-color="#918789"/>
</linearGradient>
<linearGradient id="paint11_linear_509_13424" x1="52.009" y1="88.6598" x2="31.0539" y2="67.6753" gradientUnits="userSpaceOnUse">
<stop stop-color="#80776D"/>
<stop offset="0.22" stop-color="#918789"/>
<stop offset="0.55" stop-color="#BBB0AE"/>
<stop offset="0.84" stop-color="#D7CCC8"/>
<stop offset="1" stop-color="#E2D7D2"/>
</linearGradient>
<linearGradient id="paint12_linear_509_13424" x1="69.6764" y1="71.0033" x2="48.8133" y2="50.1109" gradientUnits="userSpaceOnUse">
<stop stop-color="#80776D"/>
<stop offset="0.22" stop-color="#918789"/>
<stop offset="0.55" stop-color="#BBB0AE"/>
<stop offset="0.84" stop-color="#D7CCC8"/>
<stop offset="1" stop-color="#E2D7D2"/>
</linearGradient>
<linearGradient id="paint13_linear_509_13424" x1="62.6168" y1="82.1601" x2="16.4761" y2="35.9545" gradientUnits="userSpaceOnUse">
<stop offset="0.04" stop-color="#918789"/>
<stop offset="0.45" stop-color="#BBB0AE"/>
<stop offset="0.8" stop-color="#D7CCC8"/>
<stop offset="1" stop-color="#E2D7D2"/>
</linearGradient>
<linearGradient id="paint14_linear_509_13424" x1="15.1429" y1="33.7767" x2="40.6895" y2="59.2601" gradientUnits="userSpaceOnUse">
<stop stop-color="white"/>
<stop offset="0.1" stop-color="white" stop-opacity="0.9604"/>
<stop offset="0.23" stop-color="white" stop-opacity="0.8464"/>
<stop offset="0.36" stop-color="white" stop-opacity="0.6889"/>
<stop offset="0.49" stop-color="white" stop-opacity="0.49"/>
<stop offset="0.64" stop-color="white" stop-opacity="0.2809"/>
<stop offset="0.79" stop-color="white" stop-opacity="0.1089"/>
<stop offset="0.94" stop-color="white" stop-opacity="0.01"/>
<stop offset="0.99" stop-color="white" stop-opacity="0"/>
</linearGradient>
<radialGradient id="paint15_radial_509_13424" cx="0" cy="0" r="1" gradientUnits="userSpaceOnUse" gradientTransform="translate(39.1359 49.7277) scale(17.2699 11.5422)">
<stop offset="0.16" stop-color="#FF0303"/>
<stop offset="0.49" stop-color="#FD0303"/>
<stop offset="0.63" stop-color="#F50303"/>
<stop offset="0.74" stop-color="#E90503"/>
<stop offset="0.82" stop-color="#D80604"/>
<stop offset="0.89" stop-color="#C10905"/>
<stop offset="0.96" stop-color="#A50B06"/>
<stop offset="1" stop-color="#8F0E08"/>
</radialGradient>
<linearGradient id="paint16_linear_509_13424" x1="17.5272" y1="100.882" x2="371.282" y2="100.882" gradientUnits="userSpaceOnUse">
<stop stop-color="#E2D7D2"/>
<stop offset="0.16" stop-color="#D7CCC8"/>
<stop offset="0.45" stop-color="#BBB0AE"/>
<stop offset="0.78" stop-color="#918789"/>
<stop offset="1" stop-color="#80776D"/>
</linearGradient>
</defs>
</svg>
