<svg width="123" height="24" viewBox="0 0 123 24" fill="none" xmlns="http://www.w3.org/2000/svg">
<rect x="0.5" y="0.5" width="23" height="23" rx="7.5" fill="url(#paint0_linear_265_16191)"/>
<rect x="0.5" y="0.5" width="23" height="23" rx="7.5" stroke="url(#paint1_linear_265_16191)"/>
<path d="M41.603 15.844C41.629 15.844 41.642 15.87 41.642 15.922C41.642 15.974 41.629 16 41.603 16C41.3257 16 41.109 15.9957 40.953 15.987L40.069 15.974L39.146 15.987C38.99 15.9957 38.7777 16 38.509 16C38.483 16 38.47 15.974 38.47 15.922C38.47 15.87 38.483 15.844 38.509 15.844C38.8383 15.844 39.081 15.8223 39.237 15.779C39.393 15.7357 39.497 15.6533 39.549 15.532C39.601 15.402 39.627 15.207 39.627 14.947V8.98C39.627 8.68533 39.6097 8.49033 39.575 8.395C39.549 8.29967 39.4753 8.239 39.354 8.213C39.2327 8.187 38.9857 8.174 38.613 8.174H35.948C35.558 8.174 35.298 8.187 35.168 8.213C35.038 8.239 34.9557 8.304 34.921 8.408C34.8863 8.50333 34.869 8.694 34.869 8.98V14.947C34.869 15.207 34.895 15.402 34.947 15.532C35.0077 15.6533 35.1117 15.7357 35.259 15.779C35.415 15.8223 35.662 15.844 36 15.844C36.0173 15.844 36.026 15.87 36.026 15.922C36.026 15.974 36.0173 16 36 16C35.7313 16 35.519 15.9957 35.363 15.987L34.427 15.974L33.543 15.987C33.387 15.9957 33.1703 16 32.893 16C32.8757 16 32.867 15.974 32.867 15.922C32.867 15.87 32.8757 15.844 32.893 15.844C33.2223 15.844 33.465 15.8223 33.621 15.779C33.7857 15.7357 33.894 15.6533 33.946 15.532C34.0067 15.402 34.037 15.207 34.037 14.947V9.084C34.037 8.81533 34.0067 8.60733 33.946 8.46C33.894 8.31267 33.7857 8.20433 33.621 8.135C33.4563 8.06567 33.218 8.031 32.906 8.031C32.8887 8.031 32.88 8.005 32.88 7.953C32.88 7.901 32.8887 7.875 32.906 7.875C33.2007 7.875 33.4823 7.87933 33.751 7.888C34.8777 7.90533 36.0607 7.914 37.3 7.914C38.4267 7.914 39.718 7.901 41.174 7.875H41.603C41.629 7.875 41.642 7.901 41.642 7.953C41.642 8.005 41.629 8.031 41.603 8.031C41.1523 8.031 40.849 8.109 40.693 8.265C40.5457 8.421 40.472 8.694 40.472 9.084V14.947C40.472 15.207 40.498 15.402 40.55 15.532C40.6107 15.6533 40.719 15.7357 40.875 15.779C41.031 15.8223 41.2737 15.844 41.603 15.844ZM46.2207 10.813C46.5761 10.813 46.9054 10.9083 47.2087 11.099C47.5121 11.2897 47.7547 11.567 47.9367 11.931C48.1187 12.295 48.2097 12.7197 48.2097 13.205C48.2097 13.855 48.0624 14.4053 47.7677 14.856C47.4731 15.298 47.1091 15.6273 46.6757 15.844C46.2511 16.0607 45.8307 16.169 45.4147 16.169C45.1461 16.169 44.9034 16.143 44.6867 16.091C44.4787 16.039 44.2621 15.9523 44.0367 15.831V18.522C44.0367 18.782 44.0671 18.9727 44.1277 19.094C44.1971 19.2153 44.3227 19.2977 44.5047 19.341C44.6867 19.393 44.9641 19.419 45.3367 19.419C45.3541 19.419 45.3627 19.445 45.3627 19.497C45.3627 19.549 45.3541 19.575 45.3367 19.575C45.0421 19.575 44.8081 19.5707 44.6347 19.562L43.6857 19.549L42.9707 19.562C42.8494 19.5707 42.6891 19.575 42.4897 19.575C42.4637 19.575 42.4507 19.549 42.4507 19.497C42.4507 19.445 42.4637 19.419 42.4897 19.419C42.7237 19.419 42.8971 19.393 43.0097 19.341C43.1224 19.2977 43.2004 19.2153 43.2437 19.094C43.2871 18.9727 43.3087 18.782 43.3087 18.522V12.412C43.3087 12.1 43.2741 11.879 43.2047 11.749C43.1354 11.6103 43.0141 11.541 42.8407 11.541C42.6501 11.541 42.4204 11.6017 42.1517 11.723L42.1257 11.736C42.0911 11.736 42.0694 11.7143 42.0607 11.671C42.0434 11.6277 42.0477 11.5973 42.0737 11.58L43.5167 10.891C43.5341 10.8823 43.5644 10.878 43.6077 10.878C43.7291 10.878 43.8287 10.969 43.9067 11.151C43.9847 11.333 44.0281 11.593 44.0367 11.931C44.7734 11.1857 45.5014 10.813 46.2207 10.813ZM45.8047 15.896C46.2641 15.896 46.6411 15.6967 46.9357 15.298C47.2304 14.8907 47.3777 14.3273 47.3777 13.608C47.3777 12.88 47.2174 12.3167 46.8967 11.918C46.5761 11.5107 46.1687 11.307 45.6747 11.307C45.3714 11.307 45.0897 11.3807 44.8297 11.528C44.5697 11.6753 44.3054 11.8833 44.0367 12.152V15.077C44.2707 15.3457 44.5264 15.5493 44.8037 15.688C45.0811 15.8267 45.4147 15.896 45.8047 15.896ZM55.0444 15.259C55.079 15.259 55.1007 15.2807 55.1094 15.324C55.1267 15.3587 55.118 15.3847 55.0834 15.402L53.5624 16.117L53.5104 16.13C53.4237 16.13 53.3414 16.0303 53.2634 15.831C53.1854 15.6317 53.1464 15.3717 53.1464 15.051V14.999C52.8084 15.3803 52.4704 15.662 52.1324 15.844C51.7944 16.0173 51.4434 16.104 51.0794 16.104C50.646 16.104 50.308 15.9697 50.0654 15.701C49.8227 15.4237 49.7014 15.025 49.7014 14.505V12.516C49.7014 12.178 49.671 11.9353 49.6104 11.788C49.5497 11.632 49.45 11.554 49.3114 11.554C49.19 11.554 49.0427 11.5973 48.8694 11.684H48.8564C48.8217 11.684 48.7957 11.6623 48.7784 11.619C48.761 11.567 48.7697 11.5367 48.8044 11.528L50.2474 10.878L50.2994 10.865C50.3254 10.865 50.3514 10.878 50.3774 10.904C50.412 10.9213 50.4294 10.943 50.4294 10.969V14.076C50.4294 15.0813 50.7934 15.584 51.5214 15.584C51.7987 15.584 52.0804 15.5147 52.3664 15.376C52.6524 15.2287 52.9124 15.0293 53.1464 14.778V12.516C53.1464 12.1693 53.116 11.9223 53.0554 11.775C53.0034 11.6277 52.9037 11.554 52.7564 11.554C52.635 11.554 52.4877 11.5973 52.3144 11.684H52.3014C52.2667 11.684 52.2407 11.6623 52.2234 11.619C52.2147 11.567 52.2277 11.5367 52.2624 11.528L53.7054 10.878L53.7444 10.865C53.7704 10.865 53.7964 10.878 53.8224 10.904C53.857 10.9213 53.8744 10.943 53.8744 10.969V14.609C53.8744 14.9037 53.909 15.116 53.9784 15.246C54.0477 15.376 54.1647 15.441 54.3294 15.441C54.4767 15.441 54.7064 15.3803 55.0184 15.259H55.0444ZM58.3485 10.982C58.7732 11.0253 59.1545 11.1597 59.4925 11.385C59.8392 11.6103 60.1078 11.9137 60.2985 12.295C60.4978 12.6763 60.5975 13.1097 60.5975 13.595C60.5975 14.3403 60.3765 14.9557 59.9345 15.441C59.4925 15.9263 58.8685 16.169 58.0625 16.169C57.4992 16.169 57.0398 16.0347 56.6845 15.766C56.3292 15.4973 56.0605 15.0553 55.8785 14.44C55.7052 13.816 55.6185 12.9797 55.6185 11.931C55.6185 8.36033 56.5978 6.575 58.5565 6.575C59.6398 6.575 60.1815 7.07767 60.1815 8.083C60.1815 8.655 60.0038 9.20967 59.6485 9.747C59.3018 10.2843 58.8685 10.696 58.3485 10.982ZM58.2705 6.77C57.1352 6.77 56.5328 8.213 56.4635 11.099C56.5848 11.1077 56.7582 11.112 56.9835 11.112C57.4515 11.112 57.8718 10.9907 58.2445 10.748C58.6258 10.4967 58.9205 10.1673 59.1285 9.76C59.3452 9.344 59.4535 8.902 59.4535 8.434C59.4535 7.94867 59.3538 7.55 59.1545 7.238C58.9552 6.926 58.6605 6.77 58.2705 6.77ZM58.4005 15.922C59.3712 15.922 59.8565 15.298 59.8565 14.05C59.8565 13.1747 59.6052 12.503 59.1025 12.035C58.6085 11.567 57.9065 11.333 56.9965 11.333C56.7625 11.333 56.5848 11.3373 56.4635 11.346V11.58C56.4635 12.698 56.5372 13.5733 56.6845 14.206C56.8318 14.8387 57.0442 15.285 57.3215 15.545C57.5988 15.7963 57.9585 15.922 58.4005 15.922ZM67.3449 15.246C67.3796 15.246 67.4013 15.2677 67.4099 15.311C67.4273 15.3457 67.4186 15.3673 67.3839 15.376L65.8759 16.104C65.8586 16.1127 65.8369 16.117 65.8109 16.117C65.7329 16.117 65.6549 16.0173 65.5769 15.818C65.5076 15.61 65.4686 15.35 65.4599 15.038C65.1393 15.3673 64.8143 15.6317 64.4849 15.831C64.1556 16.0303 63.7959 16.13 63.4059 16.13C62.8773 16.13 62.4309 15.935 62.0669 15.545C61.7116 15.155 61.5339 14.609 61.5339 13.907C61.5339 13.283 61.6813 12.737 61.9759 12.269C62.2706 11.801 62.6389 11.4413 63.0809 11.19C63.5316 10.9387 63.9823 10.813 64.4329 10.813C64.9183 10.813 65.3386 10.943 65.6939 11.203C65.8499 11.1163 65.9713 11.0037 66.0579 10.865C66.0666 10.8477 66.0883 10.8477 66.1229 10.865C66.1576 10.8737 66.1749 10.8867 66.1749 10.904V14.609C66.1749 14.9037 66.2096 15.116 66.2789 15.246C66.3483 15.3673 66.4653 15.428 66.6299 15.428C66.7773 15.428 67.0069 15.3673 67.3189 15.246H67.3449ZM63.8479 15.701C64.1339 15.701 64.4069 15.623 64.6669 15.467C64.9356 15.3023 65.1999 15.09 65.4599 14.83V12.178C65.4599 11.8573 65.3213 11.593 65.0439 11.385C64.7666 11.177 64.4546 11.073 64.1079 11.073C63.5966 11.073 63.1806 11.3027 62.8599 11.762C62.5479 12.2127 62.3919 12.802 62.3919 13.53C62.3919 14.18 62.5219 14.7043 62.7819 15.103C63.0506 15.5017 63.4059 15.701 63.8479 15.701ZM77.085 15.844C77.111 15.844 77.124 15.87 77.124 15.922C77.124 15.974 77.111 16 77.085 16C76.8856 16 76.7253 15.9957 76.604 15.987L75.902 15.974L75.2 15.987C75.0786 15.9957 74.9183 16 74.719 16C74.693 16 74.68 15.974 74.68 15.922C74.68 15.87 74.693 15.844 74.719 15.844C74.953 15.844 75.1263 15.8223 75.239 15.779C75.3516 15.727 75.4296 15.6403 75.473 15.519C75.5163 15.389 75.538 15.1983 75.538 14.947V12.88C75.538 12.3687 75.447 11.9917 75.265 11.749C75.083 11.4977 74.8013 11.372 74.42 11.372C74.16 11.372 73.8956 11.4457 73.627 11.593C73.367 11.7317 73.1243 11.931 72.899 12.191C72.9076 12.2343 72.912 12.3037 72.912 12.399V14.947C72.912 15.207 72.9336 15.3977 72.977 15.519C73.0203 15.6403 73.0983 15.727 73.211 15.779C73.3236 15.8223 73.497 15.844 73.731 15.844C73.757 15.844 73.77 15.87 73.77 15.922C73.77 15.974 73.757 16 73.731 16C73.5316 16 73.3713 15.9957 73.25 15.987L72.548 15.974L71.833 15.987C71.7203 15.9957 71.5643 16 71.365 16C71.339 16 71.326 15.974 71.326 15.922C71.326 15.87 71.339 15.844 71.365 15.844C71.599 15.844 71.7723 15.8223 71.885 15.779C71.9976 15.727 72.0713 15.6403 72.106 15.519C72.1493 15.3977 72.171 15.207 72.171 14.947V12.88C72.171 12.3687 72.08 11.9917 71.898 11.749C71.716 11.4977 71.4386 11.372 71.066 11.372C70.806 11.372 70.546 11.4413 70.286 11.58C70.026 11.7187 69.7876 11.9137 69.571 12.165V14.947C69.571 15.207 69.5883 15.3977 69.623 15.519C69.6663 15.6403 69.7443 15.727 69.857 15.779C69.9696 15.8223 70.143 15.844 70.377 15.844C70.403 15.844 70.416 15.87 70.416 15.922C70.416 15.974 70.403 16 70.377 16C70.1776 16 70.0216 15.9957 69.909 15.987L69.207 15.974L68.492 15.987C68.3793 15.9957 68.2233 16 68.024 16C67.998 16 67.985 15.974 67.985 15.922C67.985 15.87 67.998 15.844 68.024 15.844C68.258 15.844 68.4313 15.8223 68.544 15.779C68.6566 15.727 68.7303 15.6403 68.765 15.519C68.8083 15.3977 68.83 15.207 68.83 14.947V12.373C68.83 12.0783 68.7953 11.866 68.726 11.736C68.6566 11.606 68.5396 11.541 68.375 11.541C68.2363 11.541 68.0023 11.606 67.673 11.736H67.647C67.6123 11.736 67.5863 11.7187 67.569 11.684C67.5603 11.6407 67.5733 11.6103 67.608 11.593L69.116 10.878C69.1333 10.8693 69.1593 10.865 69.194 10.865C69.272 10.865 69.3543 10.9647 69.441 11.164C69.5276 11.3633 69.571 11.619 69.571 11.931V11.944C69.883 11.5627 70.195 11.2853 70.507 11.112C70.819 10.9387 71.144 10.852 71.482 10.852C71.872 10.852 72.1883 10.9473 72.431 11.138C72.6736 11.3287 72.8253 11.6147 72.886 11.996C73.2066 11.606 73.5273 11.32 73.848 11.138C74.1686 10.9473 74.5023 10.852 74.849 10.852C75.3083 10.852 75.6593 10.9863 75.902 11.255C76.1533 11.515 76.279 11.905 76.279 12.425V14.947C76.279 15.207 76.2963 15.3977 76.331 15.519C76.3743 15.6403 76.4523 15.727 76.565 15.779C76.6776 15.8223 76.851 15.844 77.085 15.844ZM83.659 15.844C83.6763 15.844 83.685 15.87 83.685 15.922C83.685 15.974 83.6763 16 83.659 16C83.4337 16 83.256 15.9957 83.126 15.987L82.476 15.974L81.774 15.987C81.6527 15.9957 81.4837 16 81.267 16C81.241 16 81.228 15.974 81.228 15.922C81.228 15.87 81.241 15.844 81.267 15.844C81.5097 15.844 81.6873 15.8223 81.8 15.779C81.9127 15.7357 81.9907 15.6533 82.034 15.532C82.0773 15.402 82.099 15.207 82.099 14.947V13.621H79.33V14.947C79.33 15.207 79.3473 15.402 79.382 15.532C79.4253 15.6533 79.5033 15.7357 79.616 15.779C79.7373 15.8223 79.9193 15.844 80.162 15.844C80.1793 15.844 80.188 15.87 80.188 15.922C80.188 15.974 80.1793 16 80.162 16C79.9367 16 79.759 15.9957 79.629 15.987L78.979 15.974L78.29 15.987C78.1687 15.9957 77.9953 16 77.77 16C77.744 16 77.731 15.974 77.731 15.922C77.731 15.87 77.744 15.844 77.77 15.844C78.0127 15.844 78.1903 15.8223 78.303 15.779C78.4243 15.7357 78.5023 15.6533 78.537 15.532C78.5803 15.402 78.602 15.207 78.602 14.947V12.516C78.602 12.178 78.5717 11.9353 78.511 11.788C78.4503 11.632 78.3507 11.554 78.212 11.554C78.134 11.554 77.9867 11.5973 77.77 11.684H77.757C77.7223 11.684 77.6963 11.6623 77.679 11.619C77.6617 11.567 77.6703 11.5367 77.705 11.528L79.148 10.878L79.213 10.865C79.2303 10.865 79.252 10.878 79.278 10.904C79.3127 10.9213 79.33 10.943 79.33 10.969V13.361H82.099V12.516C82.099 12.178 82.0687 11.9353 82.008 11.788C81.9473 11.632 81.8477 11.554 81.709 11.554C81.631 11.554 81.4837 11.5973 81.267 11.684H81.254C81.2193 11.684 81.1933 11.6623 81.176 11.619C81.1587 11.567 81.1673 11.5367 81.202 11.528L82.645 10.878L82.71 10.865C82.736 10.865 82.762 10.878 82.788 10.904C82.814 10.9213 82.827 10.943 82.827 10.969V14.947C82.827 15.207 82.8443 15.402 82.879 15.532C82.9223 15.6533 83.0003 15.7357 83.113 15.779C83.2343 15.8223 83.4163 15.844 83.659 15.844ZM90.26 15.246C90.2946 15.246 90.3163 15.2677 90.325 15.311C90.3423 15.3457 90.3336 15.3673 90.299 15.376L88.791 16.104C88.7736 16.1127 88.752 16.117 88.726 16.117C88.648 16.117 88.57 16.0173 88.492 15.818C88.4226 15.61 88.3836 15.35 88.375 15.038C88.0543 15.3673 87.7293 15.6317 87.4 15.831C87.0706 16.0303 86.711 16.13 86.321 16.13C85.7923 16.13 85.346 15.935 84.982 15.545C84.6266 15.155 84.449 14.609 84.449 13.907C84.449 13.283 84.5963 12.737 84.891 12.269C85.1856 11.801 85.554 11.4413 85.996 11.19C86.4466 10.9387 86.8973 10.813 87.348 10.813C87.8333 10.813 88.2536 10.943 88.609 11.203C88.765 11.1163 88.8863 11.0037 88.973 10.865C88.9816 10.8477 89.0033 10.8477 89.038 10.865C89.0726 10.8737 89.09 10.8867 89.09 10.904V14.609C89.09 14.9037 89.1246 15.116 89.194 15.246C89.2633 15.3673 89.3803 15.428 89.545 15.428C89.6923 15.428 89.922 15.3673 90.234 15.246H90.26ZM86.763 15.701C87.049 15.701 87.322 15.623 87.582 15.467C87.8506 15.3023 88.115 15.09 88.375 14.83V12.178C88.375 11.8573 88.2363 11.593 87.959 11.385C87.6816 11.177 87.3696 11.073 87.023 11.073C86.5116 11.073 86.0956 11.3027 85.775 11.762C85.463 12.2127 85.307 12.802 85.307 13.53C85.307 14.18 85.437 14.7043 85.697 15.103C85.9656 15.5017 86.321 15.701 86.763 15.701ZM95.411 15.844C95.4283 15.844 95.437 15.87 95.437 15.922C95.437 15.974 95.4283 16 95.411 16C95.2117 16 95.0557 15.9957 94.943 15.987L94.28 15.974L93.591 15.987C93.4697 15.9957 93.3007 16 93.084 16C93.0667 16 93.058 15.974 93.058 15.922C93.058 15.87 93.0667 15.844 93.084 15.844C93.318 15.844 93.487 15.8223 93.591 15.779C93.7037 15.7357 93.7773 15.6533 93.812 15.532C93.8553 15.4107 93.877 15.2157 93.877 14.947V13.53C93.5563 13.5473 93.2747 13.66 93.032 13.868C92.7893 14.0673 92.5293 14.427 92.252 14.947C91.992 15.415 91.8187 15.7097 91.732 15.831C91.654 15.9437 91.5717 16 91.485 16H90.354C90.3367 16 90.328 15.974 90.328 15.922C90.328 15.87 90.3367 15.844 90.354 15.844C90.614 15.844 90.822 15.7617 90.978 15.597C91.1427 15.4237 91.2727 15.2417 91.368 15.051C91.472 14.8603 91.5413 14.739 91.576 14.687C91.7407 14.3923 91.94 14.1453 92.174 13.946C92.4167 13.738 92.681 13.6037 92.967 13.543C91.9183 13.465 91.394 13.049 91.394 12.295C91.394 11.879 91.5457 11.5497 91.849 11.307C92.161 11.0643 92.5727 10.943 93.084 10.943C93.1793 10.943 93.3657 10.9517 93.643 10.969C93.877 10.995 94.0893 11.008 94.28 11.008L94.93 10.995C95.0427 10.9863 95.1987 10.982 95.398 10.982C95.4153 10.982 95.424 11.008 95.424 11.06C95.424 11.112 95.4153 11.138 95.398 11.138C95.1727 11.138 95.0037 11.164 94.891 11.216C94.787 11.2593 94.7133 11.3417 94.67 11.463C94.6267 11.5843 94.605 11.775 94.605 12.035V14.947C94.605 15.1983 94.6267 15.389 94.67 15.519C94.722 15.6403 94.8 15.727 94.904 15.779C95.0167 15.8223 95.1857 15.844 95.411 15.844ZM92.174 11.996C92.174 12.4033 92.278 12.737 92.486 12.997C92.694 13.2483 92.9887 13.374 93.37 13.374C93.5347 13.374 93.7037 13.361 93.877 13.335V12.061C93.877 11.7837 93.8553 11.58 93.812 11.45C93.7687 11.32 93.6907 11.229 93.578 11.177C93.4653 11.125 93.2963 11.099 93.071 11.099C92.7763 11.099 92.551 11.177 92.395 11.333C92.2477 11.489 92.174 11.71 92.174 11.996ZM105.204 15.259C105.238 15.259 105.26 15.2807 105.269 15.324C105.286 15.3587 105.277 15.3847 105.243 15.402L103.722 16.117L103.67 16.13C103.583 16.13 103.501 16.0303 103.423 15.831C103.345 15.6317 103.306 15.3717 103.306 15.051V14.999C102.968 15.3803 102.63 15.662 102.292 15.844C101.954 16.0173 101.603 16.104 101.239 16.104C100.805 16.104 100.467 15.9697 100.225 15.701C99.9819 15.4237 99.8606 15.025 99.8606 14.505V12.516C99.8606 12.178 99.8302 11.9353 99.7696 11.788C99.7089 11.632 99.6092 11.554 99.4706 11.554C99.3492 11.554 99.2019 11.5973 99.0286 11.684H99.0156C98.9809 11.684 98.9549 11.6623 98.9376 11.619C98.9202 11.567 98.9289 11.5367 98.9636 11.528L100.407 10.878L100.459 10.865C100.485 10.865 100.511 10.878 100.537 10.904C100.571 10.9213 100.589 10.943 100.589 10.969V14.076C100.589 15.0813 100.953 15.584 101.681 15.584C101.958 15.584 102.24 15.5147 102.526 15.376C102.812 15.2287 103.072 15.0293 103.306 14.778V12.516C103.306 12.1693 103.275 11.9223 103.215 11.775C103.163 11.6277 103.063 11.554 102.916 11.554C102.794 11.554 102.647 11.5973 102.474 11.684H102.461C102.426 11.684 102.4 11.6623 102.383 11.619C102.374 11.567 102.387 11.5367 102.422 11.528L103.865 10.878L103.904 10.865C103.93 10.865 103.956 10.878 103.982 10.904C104.016 10.9213 104.034 10.943 104.034 10.969V14.609C104.034 14.9037 104.068 15.116 104.138 15.246C104.207 15.376 104.324 15.441 104.489 15.441C104.636 15.441 104.866 15.3803 105.178 15.259H105.204ZM107.455 11.112C107.151 11.112 106.87 11.229 106.61 11.463C106.35 11.697 106.155 12.035 106.025 12.477C106.025 12.4857 106.007 12.49 105.973 12.49C105.903 12.49 105.873 12.4727 105.882 12.438L106.285 10.709C106.302 10.6917 106.319 10.683 106.337 10.683C106.363 10.683 106.389 10.6917 106.415 10.709C106.441 10.7177 106.449 10.7263 106.441 10.735C106.432 10.7697 106.428 10.8173 106.428 10.878C106.428 10.9647 106.449 11.0297 106.493 11.073C106.536 11.1077 106.584 11.125 106.636 11.125C106.688 11.125 106.809 11.0903 107 11.021C107.355 10.8823 107.671 10.813 107.949 10.813C108.321 10.813 108.603 10.9083 108.794 11.099C108.984 11.281 109.08 11.5367 109.08 11.866C109.08 12.1087 109.023 12.321 108.911 12.503C108.798 12.6763 108.659 12.8237 108.495 12.945C108.33 13.0577 108.1 13.1963 107.806 13.361C107.407 13.5777 107.117 13.7727 106.935 13.946C106.753 14.1107 106.662 14.336 106.662 14.622C106.662 14.934 106.783 15.194 107.026 15.402C107.268 15.6013 107.559 15.701 107.897 15.701C108.165 15.701 108.417 15.636 108.651 15.506C108.893 15.3673 109.097 15.1637 109.262 14.895C109.27 14.8777 109.288 14.869 109.314 14.869C109.34 14.869 109.361 14.882 109.379 14.908C109.396 14.934 109.396 14.96 109.379 14.986C109.153 15.35 108.863 15.6317 108.508 15.831C108.161 16.0217 107.788 16.117 107.39 16.117C106.982 16.117 106.627 16.0217 106.324 15.831C106.029 15.6317 105.882 15.324 105.882 14.908C105.882 14.5873 105.973 14.3317 106.155 14.141C106.345 13.9503 106.636 13.751 107.026 13.543C107.424 13.3263 107.723 13.1097 107.923 12.893C108.131 12.6763 108.235 12.386 108.235 12.022C108.235 11.7273 108.165 11.502 108.027 11.346C107.897 11.19 107.706 11.112 107.455 11.112ZM113.696 10.813C114.052 10.813 114.381 10.9083 114.684 11.099C114.988 11.2897 115.23 11.567 115.412 11.931C115.594 12.295 115.685 12.7197 115.685 13.205C115.685 13.855 115.538 14.4053 115.243 14.856C114.949 15.298 114.585 15.6273 114.151 15.844C113.727 16.0607 113.306 16.169 112.89 16.169C112.622 16.169 112.379 16.143 112.162 16.091C111.954 16.039 111.738 15.9523 111.512 15.831V18.522C111.512 18.782 111.543 18.9727 111.603 19.094C111.673 19.2153 111.798 19.2977 111.98 19.341C112.162 19.393 112.44 19.419 112.812 19.419C112.83 19.419 112.838 19.445 112.838 19.497C112.838 19.549 112.83 19.575 112.812 19.575C112.518 19.575 112.284 19.5707 112.11 19.562L111.161 19.549L110.446 19.562C110.325 19.5707 110.165 19.575 109.965 19.575C109.939 19.575 109.926 19.549 109.926 19.497C109.926 19.445 109.939 19.419 109.965 19.419C110.199 19.419 110.373 19.393 110.485 19.341C110.598 19.2977 110.676 19.2153 110.719 19.094C110.763 18.9727 110.784 18.782 110.784 18.522V12.412C110.784 12.1 110.75 11.879 110.68 11.749C110.611 11.6103 110.49 11.541 110.316 11.541C110.126 11.541 109.896 11.6017 109.627 11.723L109.601 11.736C109.567 11.736 109.545 11.7143 109.536 11.671C109.519 11.6277 109.523 11.5973 109.549 11.58L110.992 10.891C111.01 10.8823 111.04 10.878 111.083 10.878C111.205 10.878 111.304 10.969 111.382 11.151C111.46 11.333 111.504 11.593 111.512 11.931C112.249 11.1857 112.977 10.813 113.696 10.813ZM113.28 15.896C113.74 15.896 114.117 15.6967 114.411 15.298C114.706 14.8907 114.853 14.3273 114.853 13.608C114.853 12.88 114.693 12.3167 114.372 11.918C114.052 11.5107 113.644 11.307 113.15 11.307C112.847 11.307 112.565 11.3807 112.305 11.528C112.045 11.6753 111.781 11.8833 111.512 12.152V15.077C111.746 15.3457 112.002 15.5493 112.279 15.688C112.557 15.8267 112.89 15.896 113.28 15.896ZM122.468 15.246C122.503 15.246 122.524 15.2677 122.533 15.311C122.55 15.3457 122.542 15.3673 122.507 15.376L120.999 16.104C120.982 16.1127 120.96 16.117 120.934 16.117C120.856 16.117 120.778 16.0173 120.7 15.818C120.631 15.61 120.592 15.35 120.583 15.038C120.262 15.3673 119.937 15.6317 119.608 15.831C119.279 16.0303 118.919 16.13 118.529 16.13C118 16.13 117.554 15.935 117.19 15.545C116.835 15.155 116.657 14.609 116.657 13.907C116.657 13.283 116.804 12.737 117.099 12.269C117.394 11.801 117.762 11.4413 118.204 11.19C118.655 10.9387 119.105 10.813 119.556 10.813C120.041 10.813 120.462 10.943 120.817 11.203C120.973 11.1163 121.094 11.0037 121.181 10.865C121.19 10.8477 121.211 10.8477 121.246 10.865C121.281 10.8737 121.298 10.8867 121.298 10.904V14.609C121.298 14.9037 121.333 15.116 121.402 15.246C121.471 15.3673 121.588 15.428 121.753 15.428C121.9 15.428 122.13 15.3673 122.442 15.246H122.468ZM118.971 15.701C119.257 15.701 119.53 15.623 119.79 15.467C120.059 15.3023 120.323 15.09 120.583 14.83V12.178C120.583 11.8573 120.444 11.593 120.167 11.385C119.89 11.177 119.578 11.073 119.231 11.073C118.72 11.073 118.304 11.3027 117.983 11.762C117.671 12.2127 117.515 12.802 117.515 13.53C117.515 14.18 117.645 14.7043 117.905 15.103C118.174 15.5017 118.529 15.701 118.971 15.701Z" fill="white"/>
<defs>
<linearGradient id="paint0_linear_265_16191" x1="12" y1="0" x2="12" y2="24" gradientUnits="userSpaceOnUse">
<stop stop-color="#4F1515"/>
<stop offset="1" stop-color="#380C0C"/>
</linearGradient>
<linearGradient id="paint1_linear_265_16191" x1="12.0014" y1="24.2729" x2="12.0014" y2="-0.272851" gradientUnits="userSpaceOnUse">
<stop offset="0.2" stop-color="#918789"/>
<stop offset="0.55" stop-color="#BBB0AE"/>
<stop offset="0.83" stop-color="#D7CCC8"/>
<stop offset="1" stop-color="#E2D7D2"/>
</linearGradient>
</defs>
</svg>
