<svg width="341" height="127" viewBox="0 0 341 127" fill="none" xmlns="http://www.w3.org/2000/svg">
<g clip-path="url(#clip0_265_18250)">
<rect width="341" height="127" rx="1" fill="url(#paint0_linear_265_18250)"/>
<path d="M246.798 64.2101C246.798 22.3929 212.898 -11.5067 171.081 -11.5067C129.264 -11.5067 95.3643 22.3929 95.3643 64.2101C95.3643 106.027 129.264 139.927 171.081 139.927C212.898 139.927 246.798 106.027 246.798 64.2101Z" stroke="#391818" stroke-opacity="0.5" stroke-width="2" stroke-linecap="round" stroke-linejoin="round"/>
<path d="M240.225 64.5809C240.225 26.3937 209.268 -4.56322 171.081 -4.56322C132.894 -4.56322 101.937 26.3937 101.937 64.5809C101.937 102.768 132.894 133.725 171.081 133.725C209.268 133.725 240.225 102.768 240.225 64.5809Z" stroke="#391818" stroke-opacity="0.5" stroke-linecap="round" stroke-linejoin="round"/>
<path d="M102.414 68.8479C105.382 68.1058 111.981 66.9397 118.408 70.2657C119.375 70.7692 120.634 71.5246 121.999 72.6642C128.254 77.9249 127.525 83.8746 132.521 91.918C133.302 93.1769 135.343 96.3041 138.722 99.4314C147.574 107.66 156.545 107.554 162.945 115.399C163.979 116.658 165.145 118.38 165.768 120.752C166.708 124.37 165.834 127.577 165.198 129.299" stroke="#391818" stroke-opacity="0.5" stroke-linecap="round" stroke-linejoin="round"/>
<path d="M161.01 124.277C161.196 123.244 161.143 122.449 161.09 122.011C160.003 112.298 140.988 112.219 130.891 98.1197C128.148 94.2901 126.412 90.8846 126.412 90.8846C123.179 84.5241 123.417 81.7016 120.581 78.3491C119.124 76.6397 116.632 74.493 112.14 73.1281" stroke="#391818" stroke-opacity="0.5" stroke-linecap="round" stroke-linejoin="round"/>
<path d="M161.699 123.999C161.699 122.645 160.602 121.548 159.248 121.548C157.894 121.548 156.796 122.645 156.796 123.999C156.796 125.353 157.894 126.451 159.248 126.451C160.602 126.451 161.699 125.353 161.699 123.999Z" fill="#391818" fill-opacity="0.5"/>
<path d="M151.019 119.626C151.019 117.877 149.601 116.459 147.852 116.459C146.103 116.459 144.685 117.877 144.685 119.626C144.685 121.376 146.103 122.793 147.852 122.793C149.601 122.793 151.019 121.376 151.019 119.626Z" fill="#391818" fill-opacity="0.5"/>
<path d="M141.372 113.597C141.372 111.46 139.64 109.728 137.503 109.728C135.366 109.728 133.634 111.46 133.634 113.597C133.634 115.734 135.366 117.467 137.503 117.467C139.64 117.467 141.372 115.734 141.372 113.597Z" fill="#391818" fill-opacity="0.5"/>
<path d="M131.063 106.11C131.063 104.083 129.42 102.44 127.392 102.44C125.365 102.44 123.722 104.083 123.722 106.11C123.722 108.137 125.365 109.781 127.392 109.781C129.42 109.781 131.063 108.137 131.063 106.11Z" fill="#391818" fill-opacity="0.5"/>
<path d="M129.181 95.5888C128.373 94.2637 127.074 92.3688 125.139 90.4209C122.728 87.9827 121.257 86.5118 119.19 86.6045C117.335 86.6841 115.373 88.0092 114.618 90.0498C113.876 92.0375 114.393 94.3829 115.93 95.7478C116.208 95.9996 117.851 97.444 119.746 96.8079C121.032 96.3839 122.224 95.0853 122.132 93.4951C122.025 91.693 120.343 90.7919 120.25 90.7389" stroke="#391818" stroke-opacity="0.5" stroke-linecap="round" stroke-linejoin="round"/>
<path d="M115.824 81.3037C115.824 79.5546 114.406 78.1367 112.657 78.1367C110.908 78.1367 109.49 79.5546 109.49 81.3037C109.49 83.0528 110.908 84.4707 112.657 84.4707C114.406 84.4707 115.824 83.0528 115.824 81.3037Z" fill="#391818" fill-opacity="0.5"/>
<path d="M172.751 128.12C172.751 127.198 172.003 126.451 171.081 126.451C170.159 126.451 169.412 127.198 169.412 128.12C169.412 129.043 170.159 129.79 171.081 129.79C172.003 129.79 172.751 129.043 172.751 128.12Z" fill="#391818" fill-opacity="0.5"/>
<path d="M210.039 64.2098C210.039 42.6938 192.597 25.2516 171.081 25.2516C149.565 25.2516 132.123 42.6938 132.123 64.2098C132.123 85.7258 149.565 103.168 171.081 103.168C192.597 103.168 210.039 85.7258 210.039 64.2098Z" stroke="#391818" stroke-opacity="0.5" stroke-width="2" stroke-linecap="round" stroke-linejoin="round"/>
<path d="M140.1 54.2716L140.1 74.1349C140.1 79.8872 144.763 84.5503 150.515 84.5503L191.66 84.5503C197.412 84.5503 202.075 79.8872 202.075 74.1349L202.075 54.2716C202.075 48.5193 197.412 43.8562 191.66 43.8562L150.515 43.8562C144.763 43.8562 140.1 48.5193 140.1 54.2716Z" stroke="#391818" stroke-opacity="0.5" stroke-linecap="round" stroke-linejoin="round"/>
<path d="M161.143 95.1909L181.006 95.1909C186.758 95.1909 191.421 90.5278 191.421 84.7756L191.421 43.631C191.421 37.8787 186.758 33.2156 181.006 33.2156L161.143 33.2156C155.39 33.2156 150.727 37.8787 150.727 43.631L150.727 84.7756C150.727 90.5278 155.39 95.1909 161.143 95.1909Z" stroke="#391818" stroke-opacity="0.5" stroke-linecap="round" stroke-linejoin="round"/>
<path d="M102.414 59.5726C105.382 60.3146 111.981 61.4807 118.408 58.1547C119.375 57.6511 120.634 56.8958 121.999 55.7562C128.254 50.4956 127.525 44.5458 132.521 36.5024C133.302 35.2436 135.343 32.1163 138.722 28.989C147.574 20.7601 156.545 20.8661 162.945 13.0215C163.979 11.7626 165.145 10.04 165.768 7.66803C166.708 4.05048 165.834 0.84374 165.198 -0.878901" stroke="#391818" stroke-opacity="0.5" stroke-linecap="round" stroke-linejoin="round"/>
<path d="M161.01 4.14328C161.196 5.17686 161.143 5.97196 161.09 6.40924C160.003 16.1223 140.988 16.2018 130.891 30.3009C128.148 34.1305 126.412 37.536 126.412 37.536C123.179 43.8966 123.417 46.719 120.581 50.0715C119.124 51.7809 116.632 53.9276 112.14 55.2925" stroke="#391818" stroke-opacity="0.5" stroke-linecap="round" stroke-linejoin="round"/>
<path d="M161.699 4.42163C161.699 3.06773 160.602 1.97017 159.248 1.97017C157.894 1.97017 156.796 3.06773 156.796 4.42163C156.796 5.77553 157.894 6.87305 159.248 6.87305C160.602 6.87305 161.699 5.77553 161.699 4.42163Z" fill="#391818" fill-opacity="0.5"/>
<path d="M151.019 8.79444C151.019 7.04535 149.601 5.62741 147.852 5.62741C146.103 5.62741 144.685 7.04535 144.685 8.79444C144.685 10.5435 146.103 11.9614 147.852 11.9614C149.601 11.9614 151.019 10.5435 151.019 8.79444Z" fill="#391818" fill-opacity="0.5"/>
<path d="M141.372 14.8235C141.372 12.6866 139.64 10.9542 137.503 10.9542C135.366 10.9542 133.634 12.6866 133.634 14.8235C133.634 16.9605 135.366 18.6929 137.503 18.6929C139.64 18.6929 141.372 16.9605 141.372 14.8235Z" fill="#391818" fill-opacity="0.5"/>
<path d="M131.063 22.3104C131.063 20.2832 129.42 18.6398 127.392 18.6398C125.365 18.6398 123.722 20.2832 123.722 22.3104C123.722 24.3376 125.365 25.981 127.392 25.981C129.42 25.981 131.063 24.3376 131.063 22.3104Z" fill="#391818" fill-opacity="0.5"/>
<path d="M129.181 32.8319C128.373 34.157 127.074 36.0519 125.139 37.9999C122.728 40.4381 121.257 41.9089 119.19 41.8162C117.335 41.7367 115.373 40.4115 114.618 38.3709C113.876 36.3832 114.393 34.0377 115.93 32.6729C116.208 32.4211 117.851 30.9768 119.746 31.6128C121.032 32.0369 122.224 33.3355 122.132 34.9256C122.025 36.7277 120.343 37.6288 120.25 37.6818" stroke="#391818" stroke-opacity="0.5" stroke-linecap="round" stroke-linejoin="round"/>
<path d="M115.824 47.1162C115.824 45.3671 114.406 43.9492 112.657 43.9492C110.908 43.9492 109.49 45.3671 109.49 47.1162C109.49 48.8653 110.908 50.2832 112.657 50.2832C114.406 50.2832 115.824 48.8653 115.824 47.1162Z" fill="#391818" fill-opacity="0.5"/>
<path d="M172.406 0.300077C172.406 -0.622039 171.659 -1.36957 170.737 -1.36957C169.815 -1.36957 169.067 -0.622038 169.067 0.300077C169.067 1.22219 169.815 1.96973 170.737 1.96973C171.659 1.96973 172.406 1.22219 172.406 0.300077Z" fill="#391818" fill-opacity="0.5"/>
<path d="M239.231 68.8479C236.263 68.1058 229.664 66.9397 223.237 70.2657C222.27 70.7692 221.011 71.5246 219.646 72.6642C213.392 77.9249 214.121 83.8746 209.125 91.918C208.343 93.1769 206.302 96.3041 202.923 99.4314C194.072 107.66 185.101 107.554 178.7 115.399C177.667 116.658 176.501 118.38 175.878 120.752C174.937 124.37 175.812 127.577 176.448 129.299" stroke="#391818" stroke-opacity="0.5" stroke-linecap="round" stroke-linejoin="round"/>
<path d="M180.649 124.277C180.463 123.244 180.516 122.449 180.569 122.011C181.656 112.298 200.671 112.219 210.768 98.1197C213.511 94.2901 215.247 90.8846 215.247 90.8846C218.48 84.5241 218.242 81.7016 221.078 78.3491C222.535 76.6397 225.026 74.493 229.519 73.1281" stroke="#391818" stroke-opacity="0.5" stroke-linecap="round" stroke-linejoin="round"/>
<path d="M184.862 123.999C184.862 122.645 183.765 121.548 182.411 121.548C181.057 121.548 179.959 122.645 179.959 123.999C179.959 125.353 181.057 126.451 182.411 126.451C183.765 126.451 184.862 125.353 184.862 123.999Z" fill="#391818" fill-opacity="0.5"/>
<path d="M196.974 119.626C196.974 117.877 195.556 116.459 193.807 116.459C192.058 116.459 190.64 117.877 190.64 119.626C190.64 121.375 192.058 122.793 193.807 122.793C195.556 122.793 196.974 121.375 196.974 119.626Z" fill="#391818" fill-opacity="0.5"/>
<path d="M208.025 113.596C208.025 111.46 206.293 109.727 204.156 109.727C202.019 109.727 200.287 111.46 200.287 113.596C200.287 115.733 202.019 117.466 204.156 117.466C206.293 117.466 208.025 115.733 208.025 113.596Z" fill="#391818" fill-opacity="0.5"/>
<path d="M217.937 106.11C217.937 104.083 216.293 102.44 214.266 102.44C212.239 102.44 210.596 104.083 210.596 106.11C210.596 108.137 212.239 109.781 214.266 109.781C216.293 109.781 217.937 108.137 217.937 106.11Z" fill="#391818" fill-opacity="0.5"/>
<path d="M212.478 95.5888C213.286 94.2637 214.584 92.3688 216.519 90.4209C218.931 87.9827 220.402 86.5118 222.469 86.6045C224.324 86.6841 226.285 88.0092 227.04 90.0498C227.783 92.0375 227.266 94.3829 225.729 95.7478C225.45 95.9996 223.807 97.444 221.912 96.8079C220.627 96.3839 219.434 95.0853 219.527 93.4951C219.633 91.693 221.316 90.7919 221.409 90.7389" stroke="#391818" stroke-opacity="0.5" stroke-linecap="round" stroke-linejoin="round"/>
<path d="M232.168 81.3037C232.168 79.5546 230.751 78.1367 229.001 78.1367C227.252 78.1367 225.834 79.5546 225.834 81.3037C225.834 83.0528 227.252 84.4707 229.001 84.4707C230.751 84.4707 232.168 83.0528 232.168 81.3037Z" fill="#391818" fill-opacity="0.5"/>
<path d="M239.231 59.5725C236.263 60.3146 229.664 61.4807 223.237 58.1547C222.27 57.6511 221.011 56.8958 219.646 55.7562C213.392 50.4955 214.121 44.5458 209.125 36.5024C208.343 35.2436 206.302 32.1163 202.923 28.989C194.072 20.7601 185.101 20.8661 178.7 13.0215C177.667 11.7626 176.501 10.04 175.878 7.66803C174.937 4.05048 175.812 0.843743 176.448 -0.878898" stroke="#391818" stroke-opacity="0.5" stroke-linecap="round" stroke-linejoin="round"/>
<path d="M180.649 4.14328C180.463 5.17686 180.516 5.97196 180.569 6.40924C181.656 16.1223 200.671 16.2018 210.768 30.3009C213.511 34.1305 215.247 37.536 215.247 37.536C218.48 43.8966 218.242 46.719 221.078 50.0715C222.535 51.7809 225.026 53.9276 229.519 55.2925" stroke="#391818" stroke-opacity="0.5" stroke-linecap="round" stroke-linejoin="round"/>
<path d="M184.862 4.42163C184.862 3.06773 183.765 1.97017 182.411 1.97017C181.057 1.97017 179.959 3.06773 179.959 4.42163C179.959 5.77553 181.057 6.87305 182.411 6.87305C183.765 6.87305 184.862 5.77553 184.862 4.42163Z" fill="#391818" fill-opacity="0.5"/>
<path d="M196.974 8.79444C196.974 7.04535 195.556 5.62741 193.807 5.62741C192.058 5.62741 190.64 7.04535 190.64 8.79444C190.64 10.5435 192.058 11.9614 193.807 11.9614C195.556 11.9614 196.974 10.5435 196.974 8.79444Z" fill="#391818" fill-opacity="0.5"/>
<path d="M208.025 14.8235C208.025 12.6866 206.293 10.9542 204.156 10.9542C202.019 10.9542 200.287 12.6866 200.287 14.8235C200.287 16.9605 202.019 18.6929 204.156 18.6929C206.293 18.6929 208.025 16.9605 208.025 14.8235Z" fill="#391818" fill-opacity="0.5"/>
<path d="M217.937 22.3104C217.937 20.2832 216.293 18.6398 214.266 18.6398C212.239 18.6398 210.596 20.2832 210.596 22.3104C210.596 24.3376 212.239 25.981 214.266 25.981C216.293 25.981 217.937 24.3376 217.937 22.3104Z" fill="#391818" fill-opacity="0.5"/>
<path d="M212.478 32.8319C213.286 34.157 214.584 36.0519 216.519 37.9999C218.931 40.4381 220.402 41.9089 222.469 41.8162C224.324 41.7367 226.285 40.4115 227.04 38.3709C227.783 36.3832 227.266 34.0377 225.729 32.6729C225.45 32.4211 223.807 30.9768 221.912 31.6128C220.627 32.0369 219.434 33.3355 219.527 34.9256C219.633 36.7277 221.316 37.6288 221.409 37.6818" stroke="#391818" stroke-opacity="0.5" stroke-linecap="round" stroke-linejoin="round"/>
<path d="M232.168 47.1162C232.168 45.3671 230.751 43.9492 229.001 43.9492C227.252 43.9492 225.834 45.3671 225.834 47.1162C225.834 48.8653 227.252 50.2832 229.001 50.2832C230.751 50.2832 232.168 48.8653 232.168 47.1162Z" fill="#391818" fill-opacity="0.5"/>
<path d="M152.503 63.7459C151.973 64.965 150.542 68.715 151.721 73.2601C151.999 74.36 153.55 79.7929 159.009 82.4431C164.681 85.1993 170.14 82.7744 171.028 82.3769C177.19 79.5146 180.913 71.988 180.092 63.6001" stroke="#391818" stroke-opacity="0.5" stroke-linecap="round" stroke-linejoin="round"/>
<path d="M161.487 64.1439C161.328 65.5618 161.209 67.6025 161.514 70.0274C161.712 71.6308 161.938 73.4065 162.839 75.3544C164.389 78.6937 167 80.4826 168.046 81.1849C169.106 81.8872 173.373 84.6434 179.032 83.7688C179.959 83.623 183.113 83.093 185.816 80.8536C190.176 77.2228 191.673 70.4647 189.831 63.6669" stroke="#391818" stroke-opacity="0.5" stroke-linecap="round" stroke-linejoin="round"/>
<path d="M152.503 63.7462C153.112 65.2038 155.723 71.0476 162.401 74.2676C170.14 77.9911 177.349 75.2879 178.541 74.8109C186.373 71.7234 189.341 64.8991 189.844 63.68" stroke="#391818" stroke-opacity="0.5" stroke-linecap="round" stroke-linejoin="round"/>
<path d="M161.487 64.1436C162.057 65.1109 164.31 68.6622 168.656 69.7488C169.345 69.9211 170.988 70.3054 172.976 69.8681C177.64 68.8477 179.774 64.2629 180.078 63.5738" stroke="#391818" stroke-opacity="0.5" stroke-linecap="round" stroke-linejoin="round"/>
<path d="M152.49 64.4885C151.96 63.2694 150.529 59.5194 151.708 54.9743C151.986 53.8744 153.537 48.4415 158.996 45.7913C164.667 43.035 170.127 45.46 171.015 45.8575C177.177 48.7197 180.9 56.2463 180.079 64.6343" stroke="#391818" stroke-opacity="0.5" stroke-linecap="round" stroke-linejoin="round"/>
<path d="M161.474 64.0777C161.315 62.6598 161.196 60.6191 161.5 58.1942C161.699 56.5908 161.924 54.8152 162.825 52.8673C164.376 49.528 166.986 47.7391 168.033 47.0367C169.093 46.3344 173.36 43.5782 179.018 44.4528C179.946 44.5986 183.1 45.1286 185.803 47.368C190.162 50.9988 191.66 57.7569 189.818 64.5547" stroke="#391818" stroke-opacity="0.5" stroke-linecap="round" stroke-linejoin="round"/>
<path d="M152.49 64.4884C153.099 63.0308 155.71 57.1871 162.388 53.9671C170.127 50.2435 177.335 52.9467 178.528 53.4238C186.359 56.5113 189.328 63.3356 189.831 64.5547" stroke="#391818" stroke-opacity="0.5" stroke-linecap="round" stroke-linejoin="round"/>
<path d="M161.474 64.0777C162.044 63.1103 164.296 59.559 168.643 58.4724C169.332 58.3002 170.975 57.9159 172.963 58.3532C177.627 59.3735 179.76 63.9584 180.065 64.6475" stroke="#391818" stroke-opacity="0.5" stroke-linecap="round" stroke-linejoin="round"/>
<path d="M99.8831 129.445C99.4193 129.246 97.0872 128.173 96.1463 125.589C95.179 122.952 96.1993 120.196 97.7497 118.606C100.599 115.664 105.886 116.101 108.682 118.738C110.935 120.858 111.014 123.893 111.027 124.092C111.213 126.888 109.98 128.902 109.556 129.538C110.179 128.769 111.902 126.874 114.685 126.278C118.382 125.496 123.165 127.192 124.702 131.287C125.948 134.6 124.914 139.132 121.496 140.894C119.044 142.153 115.533 141.901 113.452 139.648C112.101 138.191 111.279 135.819 112.061 133.566C112.18 133.208 113.134 130.598 115.678 130.041C117.852 129.564 120.621 130.73 121.178 132.957C121.655 134.851 120.277 136.495 120.091 136.707" stroke="#391818" stroke-opacity="0.5" stroke-linecap="round" stroke-linejoin="round"/>
<path d="M100.108 120.421C100.466 120.116 101.341 119.454 102.533 119.44C104.72 119.414 106.018 121.547 106.23 121.905C107.569 124.105 106.827 126.569 106.601 127.285C105.568 130.704 102.546 132.36 101.95 132.678C97.4316 135.156 90.3555 134.414 86.4464 129.657C82.7494 125.165 83.889 119.507 84.0612 118.698" stroke="#391818" stroke-opacity="0.5" stroke-linecap="round" stroke-linejoin="round"/>
<path d="M103.607 121.8C103.607 120.468 102.527 119.388 101.195 119.388C99.863 119.388 98.7832 120.468 98.7832 121.8C98.7832 123.132 99.863 124.211 101.195 124.211C102.527 124.211 103.607 123.132 103.607 121.8Z" fill="#391818" fill-opacity="0.5"/>
<path d="M102.321 120.116C102.732 120.646 103.633 121.971 103.646 123.787C103.686 126.994 100.956 128.915 100.546 129.18C97.6569 131.141 93.7081 130.558 91.1506 128.822C87.8378 126.583 86.3537 122.038 87.6258 117.599" stroke="#391818" stroke-opacity="0.5" stroke-linecap="round" stroke-linejoin="round"/>
<path d="M96.3316 110.059C92.6743 113.571 82.1132 122.701 66.4239 123.906C45.7654 125.497 27.0682 112.987 18.72 97.6162C18.6935 97.5632 18.667 97.5235 18.6405 97.4705C15.6457 91.905 14.2146 85.6373 14.2146 79.3297L14.2146 64.1837" stroke="#391818" stroke-opacity="0.5" stroke-width="2" stroke-linecap="round" stroke-linejoin="round"/>
<path d="M84.6839 130.531C83.9154 129.643 83.4781 128.848 83.2263 128.305C82.2855 126.278 81.994 123.667 81.3844 123.495C81.2784 123.468 81.1989 123.495 81.1989 123.495C80.8809 123.614 80.8809 124.317 80.8809 124.542C80.3111 123.76 79.6883 123.323 79.3173 123.482C78.827 123.694 78.933 124.886 78.9595 125.138C79.1847 127.788 83.0276 129.763 84.6839 130.518L84.6839 130.531Z" fill="#391818" fill-opacity="0.5"/>
<path d="M88.0232 64.2497C83.7431 66.8601 81.1458 70.1729 81.7819 72.7303C81.8747 73.1014 82.0469 73.5121 82.3384 73.9097" stroke="#391818" stroke-opacity="0.5" stroke-linecap="round" stroke-linejoin="round"/>
<path d="M87.4667 79.8464C87.4667 76.5312 84.7791 73.8436 81.4639 73.8436C78.1487 73.8436 75.4612 76.5312 75.4612 79.8464C75.4612 83.1616 78.1487 85.8491 81.4639 85.8491C84.7791 85.8491 87.4667 83.1616 87.4667 79.8464Z" stroke="#391818" stroke-opacity="0.5" stroke-width="1.5" stroke-linecap="round" stroke-linejoin="round"/>
<path d="M83.8359 79.8458C83.8359 78.5358 82.774 77.4739 81.464 77.4739C80.154 77.4739 79.092 78.5358 79.092 79.8458C79.092 81.1558 80.154 82.2178 81.464 82.2178C82.774 82.2178 83.8359 81.1558 83.8359 79.8458Z" fill="#391818" fill-opacity="0.5"/>
<path d="M82.3653 85.7829C82.1003 86.101 81.769 86.6045 81.557 87.2803C81.1197 88.6982 81.557 89.9305 81.7425 90.3413" stroke="#391818" stroke-opacity="0.5" stroke-linecap="round" stroke-linejoin="round"/>
<path d="M85.8634 89.2548C86.4994 91.428 87.798 96.9404 85.8634 103.526C83.8492 110.377 79.5161 114.392 77.7935 115.823" stroke="#391818" stroke-opacity="0.5" stroke-linecap="round" stroke-linejoin="round"/>
<path d="M92.3431 103.34C92.3431 102.433 91.6075 101.697 90.7 101.697C89.7925 101.697 89.0569 102.433 89.0569 103.34C89.0569 104.248 89.7925 104.983 90.7 104.983C91.6075 104.983 92.3431 104.248 92.3431 103.34Z" fill="#391818" fill-opacity="0.5"/>
<path d="M49.0653 121.985C47.8197 121.362 43.5926 119.056 41.9097 114.14C41.4061 112.669 40.0678 108.853 42.1879 105.752C43.2745 104.175 45.5802 102.307 48.1377 102.811C51.1589 103.407 53.2791 107.064 52.4575 109.012C52.0467 109.993 50.7349 110.867 49.8868 110.483C49.1713 110.152 48.787 108.893 49.2243 107.475C48.8135 107.607 48.2702 107.872 47.8727 108.389C46.8523 109.714 47.3824 111.927 48.4425 113.08C50.0458 114.829 53.3321 114.657 55.2005 113.332C58.182 111.212 57.9965 105.885 56.2606 102.506C54.0344 98.1594 48.999 96.556 45.2357 96.6223C38.9547 96.7283 35.3106 101.499 34.8468 102.135C31.1365 107.17 32.3821 112.775 32.5676 113.557" stroke="#391818" stroke-opacity="0.5" stroke-linecap="round" stroke-linejoin="round"/>
<path d="M24.63 116.578C24.63 113.263 21.9425 110.575 18.6273 110.575C15.312 110.575 12.6245 113.263 12.6245 116.578C12.6245 119.893 15.312 122.581 18.6273 122.581C21.9425 122.581 24.63 119.893 24.63 116.578Z" stroke="#391818" stroke-opacity="0.5" stroke-width="1.5" stroke-linecap="round" stroke-linejoin="round"/>
<path d="M20.9993 116.578C20.9993 115.268 19.9373 114.206 18.6273 114.206C17.3173 114.206 16.2554 115.268 16.2554 116.578C16.2554 117.888 17.3173 118.95 18.6273 118.95C19.9373 118.95 20.9993 117.888 20.9993 116.578Z" fill="#391818" fill-opacity="0.5"/>
<path d="M12.6246 114.021C11.5645 109.581 10.4912 105.142 9.43112 100.716C8.47704 96.7543 8 92.6863 8 88.6049L8 64.5144" stroke="#391818" stroke-opacity="0.5" stroke-linecap="round" stroke-linejoin="round"/>
<path d="M16.9047 110.827C16.1096 109.912 12.2006 105.301 10.1864 100.054C9.08656 97.1913 8.47701 94.0243 8.47701 94.0243C8.26499 92.9642 8.14574 92.0631 8.05298 91.3873" stroke="#391818" stroke-opacity="0.5" stroke-linecap="round" stroke-linejoin="round"/>
<path d="M77.2766 64.1701C77.5151 64.4617 77.9127 64.8724 78.4957 65.2037C79.41 65.7205 80.2979 65.7735 80.7219 65.7735C80.4171 65.9458 79.8871 66.3035 79.5028 66.9661C78.7607 68.2249 79.1715 69.5633 79.251 69.7886C79.7943 68.8345 80.5761 67.6551 81.6892 66.4758C82.6036 65.4952 83.5046 64.7532 84.2864 64.1966L77.2766 64.1966L77.2766 64.1701Z" fill="#391818" fill-opacity="0.5"/>
<path d="M62.2234 89.3477C64.3436 87.8635 67.7093 85.094 70.3596 80.5887C74.4144 73.6849 74.3216 66.9401 74.1229 64.2368" stroke="#391818" stroke-opacity="0.5" stroke-linecap="round" stroke-linejoin="round"/>
<path d="M56.8438 85.6899C58.6724 84.4311 62.661 81.3303 65.2052 75.7384C67.4579 70.7957 67.4711 66.3433 67.3254 64.1437" stroke="#391818" stroke-opacity="0.5" stroke-linecap="round" stroke-linejoin="round"/>
<path d="M16.6531 64.0241C19.8068 66.8068 21.7017 69.4703 22.8546 71.3785C24.7627 74.5322 25.1338 76.4934 27.7972 79.4484C30.1559 82.0721 31.9581 82.8671 32.6736 83.1587C34.9396 84.0465 37.02 83.9802 38.1861 83.8345" stroke="#391818" stroke-opacity="0.5" stroke-linecap="round" stroke-linejoin="round"/>
<path d="M39.0869 64.0509C36.7282 65.323 35.4164 67.8539 35.8006 70.3319C36.2777 73.3796 39.0737 74.7312 39.3122 74.8372C39.0339 75.9636 38.4244 79.1704 39.935 82.6686C40.041 82.9204 42.5455 88.4461 48.6145 89.7712C49.3963 89.9435 55.3328 91.2421 58.5395 87.4258C59.9309 85.7694 60.2357 83.848 60.3019 82.8144C59.4803 83.2649 56.2338 84.9081 52.2055 83.9142C51.5429 83.7552 47.0376 82.5626 45.0632 78.2825C44.3476 76.7454 44.2018 75.3143 44.1886 74.4" stroke="#391818" stroke-opacity="0.5" stroke-linecap="round" stroke-linejoin="round"/>
<path d="M44.2021 74.3873C45.62 74.9173 49.0786 75.9774 53.1864 74.8908C58.6326 73.4465 61.4021 69.2061 62.1971 67.9472C63.0717 66.5691 63.5752 65.297 63.8933 64.3827" stroke="#391818" stroke-opacity="0.5" stroke-linecap="round" stroke-linejoin="round"/>
<path d="M39.3121 74.8242C37.881 74.3737 35.6416 73.5654 33.0576 72.2005C30.7917 71.0079 29.5991 70.1068 26.6706 68.2517C25.0937 67.2579 22.7483 65.8135 19.78 64.1571" stroke="#391818" stroke-opacity="0.5" stroke-linecap="round" stroke-linejoin="round"/>
<path d="M59.4671 64.3165C59.2153 64.8068 58.513 66.0259 57.0289 66.821C55.9555 67.404 54.9484 67.4968 54.4051 67.51C54.4581 69.1399 53.7426 70.5843 52.5235 71.2601C51.3971 71.8829 50.231 71.6179 49.86 71.5384C47.7531 71.0613 46.6665 69.0869 46.1232 68.1196C45.7257 67.404 45.1559 66.1319 45.0366 64.3695" stroke="#391818" stroke-opacity="0.5" stroke-linecap="round" stroke-linejoin="round"/>
<path d="M54.4054 67.5096C52.7358 66.3568 51.0661 65.2172 49.3965 64.0643C48.3099 65.4159 47.2233 66.7675 46.1367 68.1191" stroke="#391818" stroke-opacity="0.5" stroke-linecap="round" stroke-linejoin="round"/>
<path d="M28.95 93.2828C28.95 92.2363 28.1016 91.3879 27.0551 91.3879C26.0085 91.3879 25.1602 92.2363 25.1602 93.2828C25.1602 94.3294 26.0085 95.1777 27.0551 95.1777C28.1016 95.1777 28.95 94.3294 28.95 93.2828Z" fill="#391818" fill-opacity="0.5"/>
<path d="M24.0869 87.3728C24.0869 85.8652 22.8648 84.6431 21.3572 84.6431C19.8496 84.6431 18.6274 85.8652 18.6274 87.3728C18.6274 88.8804 19.8496 90.1025 21.3572 90.1025C22.8648 90.1025 24.0869 88.8804 24.0869 87.3728Z" fill="#391818" fill-opacity="0.5"/>
<path d="M99.9891 -1.02489C99.5253 -0.826121 97.1931 0.247222 96.2523 2.83118C95.285 5.46815 96.3053 8.22436 97.8557 9.81449C100.705 12.7562 105.992 12.319 108.788 9.68201C111.04 7.56184 111.12 4.52733 111.133 4.32856C111.319 1.53258 110.086 -0.481603 109.662 -1.11765C110.285 -0.349092 112.008 1.54584 114.791 2.14214C118.488 2.92395 123.271 1.22782 124.808 -2.86677C126.054 -6.17954 125.02 -10.7114 121.602 -12.4738C119.15 -13.7327 115.639 -13.4809 113.558 -11.2282C112.207 -9.77062 111.385 -7.39864 112.167 -5.14596C112.286 -4.78818 113.24 -2.17775 115.784 -1.6212C117.958 -1.14416 120.727 -2.31024 121.284 -4.53642C121.761 -6.43132 120.383 -8.07448 120.197 -8.2865" stroke="#391818" stroke-opacity="0.5" stroke-linecap="round" stroke-linejoin="round"/>
<path d="M100.214 7.99853C100.572 8.3033 101.447 8.96584 102.639 8.97909C104.826 9.00559 106.124 6.87219 106.336 6.51441C107.675 4.31473 106.933 1.85003 106.708 1.13447C105.674 -2.28431 102.653 -3.9407 102.056 -4.25873C97.5378 -6.73668 90.4617 -5.99462 86.5526 -1.23748C82.8556 3.25464 83.9952 8.91288 84.1674 9.72119" stroke="#391818" stroke-opacity="0.5" stroke-linecap="round" stroke-linejoin="round"/>
<path d="M103.713 6.62052C103.713 5.28858 102.633 4.20885 101.301 4.20885C99.9692 4.20885 98.8894 5.28858 98.8894 6.62052C98.8894 7.95246 99.9692 9.03223 101.301 9.03223C102.633 9.03223 103.713 7.95246 103.713 6.62052Z" fill="#391818" fill-opacity="0.5"/>
<path d="M102.427 8.29041C102.838 7.76036 103.739 6.43527 103.752 4.61987C103.792 1.41311 101.062 -0.50831 100.652 -0.773332C97.7628 -2.73449 93.814 -2.15146 91.2565 -0.415567C87.9438 1.82387 86.4597 6.36899 87.7318 10.8081" stroke="#391818" stroke-opacity="0.5" stroke-linecap="round" stroke-linejoin="round"/>
<path d="M96.3316 18.3611C92.6743 14.8495 82.1132 5.71952 66.4239 4.51367C45.7654 2.92354 27.0681 15.4326 18.72 30.8038C18.6935 30.8568 18.667 30.8966 18.6405 30.9496C15.6457 36.5151 14.2146 42.7828 14.2146 49.0903L14.2146 64.2363" stroke="#391818" stroke-opacity="0.5" stroke-width="2" stroke-linecap="round" stroke-linejoin="round"/>
<path d="M84.7901 -2.1118C84.0216 -1.22398 83.5843 -0.428881 83.3325 0.114414C82.3917 2.14183 82.1002 4.75226 81.4906 4.92452C81.3846 4.95103 81.3051 4.92452 81.3051 4.92452C80.9871 4.80526 80.9871 4.10299 80.9871 3.87772C80.4173 4.65953 79.7945 5.0968 79.4234 4.93779C78.9332 4.72577 79.0392 3.53317 79.0657 3.2814C79.2909 0.631185 83.1338 -1.34322 84.7901 -2.09854L84.7901 -2.1118Z" fill="#391818" fill-opacity="0.5"/>
<path d="M88.1159 64.1704C83.8358 61.5599 81.2386 58.2471 81.8747 55.6897C81.9674 55.3187 82.1397 54.9079 82.4312 54.5104" stroke="#391818" stroke-opacity="0.5" stroke-linecap="round" stroke-linejoin="round"/>
<path d="M87.5729 48.5734C87.5729 45.2582 84.8853 42.5707 81.5701 42.5707C78.2549 42.5707 75.5674 45.2582 75.5674 48.5734C75.5674 51.8887 78.2549 54.5762 81.5701 54.5762C84.8853 54.5762 87.5729 51.8887 87.5729 48.5734Z" stroke="#391818" stroke-opacity="0.5" stroke-width="1.5" stroke-linecap="round" stroke-linejoin="round"/>
<path d="M83.9419 48.5734C83.9419 47.2634 82.8799 46.2014 81.5699 46.2014C80.26 46.2014 79.198 47.2634 79.198 48.5734C79.198 49.8833 80.26 50.9453 81.5699 50.9453C82.8799 50.9453 83.9419 49.8833 83.9419 48.5734Z" fill="#391818" fill-opacity="0.5"/>
<path d="M82.471 42.6377C82.206 42.3197 81.8747 41.8161 81.6627 41.1403C81.2254 39.7224 81.6627 38.4901 81.8482 38.0793" stroke="#391818" stroke-opacity="0.5" stroke-linecap="round" stroke-linejoin="round"/>
<path d="M85.9561 39.1655C86.5922 36.9923 87.8908 31.4799 85.9561 24.8941C83.942 18.0433 79.6089 14.0282 77.8862 12.5971" stroke="#391818" stroke-opacity="0.5" stroke-linecap="round" stroke-linejoin="round"/>
<path d="M92.4491 25.0795C92.4491 24.1721 91.7135 23.4364 90.806 23.4364C89.8985 23.4364 89.1628 24.1721 89.1628 25.0795C89.1628 25.987 89.8985 26.7227 90.806 26.7227C91.7135 26.7227 92.4491 25.987 92.4491 25.0795Z" fill="#391818" fill-opacity="0.5"/>
<path d="M49.171 6.43528C47.9254 7.05808 43.6983 9.36375 42.0154 14.2799C41.5118 15.7508 40.1735 19.5671 42.2937 22.6679C43.3802 24.2447 45.6859 26.1131 48.2434 25.6096C51.2646 25.0133 53.3848 21.356 52.5632 19.4081C52.1525 18.4275 50.8406 17.5529 49.9925 17.9372C49.277 18.2685 48.8927 19.5274 49.33 20.9452C48.9192 20.8127 48.3759 20.5477 47.9784 20.0309C46.958 18.7058 47.4881 16.4929 48.5482 15.34C50.1515 13.5909 53.4378 13.7631 55.3062 15.0882C58.2877 17.2084 58.1022 22.5486 56.3663 25.9144C54.1401 30.2608 49.1047 31.8641 45.3414 31.7978C39.0604 31.6918 35.4163 26.9215 34.9525 26.2854C31.2422 21.25 32.4878 15.6448 32.6734 14.863" stroke="#391818" stroke-opacity="0.5" stroke-linecap="round" stroke-linejoin="round"/>
<path d="M24.63 11.842C24.63 8.52676 21.9425 5.83925 18.6273 5.83925C15.312 5.83925 12.6245 8.52676 12.6245 11.842C12.6245 15.1572 15.312 17.8447 18.6273 17.8447C21.9425 17.8447 24.63 15.1572 24.63 11.842Z" stroke="#391818" stroke-opacity="0.5" stroke-width="1.5" stroke-linecap="round" stroke-linejoin="round"/>
<path d="M20.9993 11.8419C20.9993 10.5319 19.9373 9.47 18.6273 9.47C17.3173 9.47 16.2554 10.5319 16.2554 11.8419C16.2554 13.1519 17.3173 14.2139 18.6273 14.2139C19.9373 14.2139 20.9993 13.1519 20.9993 11.8419Z" fill="#391818" fill-opacity="0.5"/>
<path d="M12.6246 14.3993C11.5645 18.8384 10.4912 23.2775 9.43112 27.7033C8.47704 31.6654 8 35.7335 8 39.8148L8 66.105" stroke="#391818" stroke-opacity="0.5" stroke-linecap="round" stroke-linejoin="round"/>
<path d="M16.9047 17.5929C16.1096 18.5072 12.2006 23.1186 10.1864 28.366C9.08656 31.2282 8.47701 34.3953 8.47701 34.3953C8.265 35.4554 8.14574 36.3564 8.05298 37.0322" stroke="#391818" stroke-opacity="0.5" stroke-linecap="round" stroke-linejoin="round"/>
<path d="M77.2766 64.1704C77.5151 63.8789 77.9127 63.4681 78.4957 63.1368C79.41 62.62 80.2979 62.567 80.7219 62.567C80.4171 62.3947 79.8871 62.037 79.5028 61.3744C78.7607 60.1156 79.1715 58.7772 79.251 58.5519C79.7943 59.506 80.5761 60.6853 81.6892 61.8647C82.6036 62.8453 83.5046 63.5873 84.2864 64.1439L77.2766 64.1439L77.2766 64.1704Z" fill="#391818" fill-opacity="0.5"/>
<path d="M62.3293 39.0598C64.4495 40.5307 67.8153 43.2869 70.4655 47.8188C74.5203 54.7624 74.3481 61.5469 74.1228 64.2236" stroke="#391818" stroke-opacity="0.5" stroke-linecap="round" stroke-linejoin="round"/>
<path d="M56.9495 42.7303C58.7516 43.9626 62.7799 47.0634 65.3109 52.6819C67.4973 57.5715 67.4841 61.9709 67.3251 64.144" stroke="#391818" stroke-opacity="0.5" stroke-linecap="round" stroke-linejoin="round"/>
<path d="M16.6531 64.0244C19.8731 61.4405 21.7945 58.8962 22.9606 57.0278C24.9218 53.8873 25.2 51.9659 27.9032 48.9579C30.2884 46.3077 32.1303 45.5127 32.7796 45.2476C35.0456 44.3598 37.126 44.4261 38.2921 44.5718" stroke="#391818" stroke-opacity="0.5" stroke-linecap="round" stroke-linejoin="round"/>
<path d="M39.0871 64.0508C36.8476 62.8714 35.5755 60.473 35.9068 58.101C36.3308 54.987 39.2593 53.6619 39.4183 53.5957C39.1401 52.4693 38.5305 49.2625 40.0411 45.7643C40.1471 45.5125 42.6516 39.9868 48.7206 38.6617C49.5024 38.4894 55.4389 37.1908 58.6457 41.0071C60.037 42.6635 60.3418 44.5849 60.408 45.6185C59.5865 45.168 56.34 43.5248 52.3116 44.5187C51.6491 44.6777 47.1437 45.8703 45.1693 50.1504C44.4537 51.6875 44.308 53.1186 44.2947 54.0329" stroke="#391818" stroke-opacity="0.5" stroke-linecap="round" stroke-linejoin="round"/>
<path d="M44.3079 54.033C45.7257 53.503 49.1843 52.4429 53.2921 53.5295C58.7383 54.9739 61.5078 59.2142 62.3028 60.4731C63.1774 61.8512 63.6809 63.1233 63.999 64.0376" stroke="#391818" stroke-opacity="0.5" stroke-linecap="round" stroke-linejoin="round"/>
<path d="M39.4181 53.5956C37.987 54.0462 35.7476 54.8545 33.1636 56.2193C30.7917 57.465 29.6256 58.3925 26.7766 60.1681C25.1997 61.162 22.8278 62.5799 19.78 64.1567" stroke="#391818" stroke-opacity="0.5" stroke-linecap="round" stroke-linejoin="round"/>
<path d="M59.5731 64.1041C59.3213 63.6138 58.619 62.3947 57.1349 61.5997C56.0615 61.0166 55.0544 60.9238 54.5111 60.9106C54.5642 59.2807 53.8486 57.8364 52.6295 57.1605C51.5032 56.5377 50.3371 56.8028 49.966 56.8823C47.8989 57.3461 46.8255 59.2675 46.2292 60.301C45.8184 61.0431 45.1691 62.4212 45.0366 64.3691" stroke="#391818" stroke-opacity="0.5" stroke-linecap="round" stroke-linejoin="round"/>
<path d="M54.4982 60.9102C52.8285 62.063 51.1589 63.2026 49.4893 64.3555C48.4027 63.0039 47.3161 61.6523 46.2295 60.3006" stroke="#391818" stroke-opacity="0.5" stroke-linecap="round" stroke-linejoin="round"/>
<path d="M29.0559 35.1373C29.0559 34.0908 28.2075 33.2424 27.161 33.2424C26.1145 33.2424 25.2661 34.0908 25.2661 35.1373C25.2661 36.1839 26.1145 37.0322 27.161 37.0322C28.2075 37.0322 29.0559 36.1839 29.0559 35.1373Z" fill="#391818" fill-opacity="0.5"/>
<path d="M24.1797 41.0471C24.1797 39.5395 22.9575 38.3174 21.4499 38.3174C19.9424 38.3174 18.7202 39.5395 18.7202 41.0471C18.7202 42.5547 19.9424 43.7769 21.4499 43.7769C22.9575 43.7769 24.1797 42.5547 24.1797 41.0471Z" fill="#391818" fill-opacity="0.5"/>
<path d="M242.094 -1.02489C242.558 -0.826122 244.89 0.24722 245.831 2.83118C246.798 5.46815 245.778 8.22436 244.227 9.81449C241.378 12.7562 236.091 12.319 233.295 9.68201C231.042 7.56184 230.963 4.52733 230.95 4.32856C230.764 1.53258 231.996 -0.481603 232.421 -1.11765C231.798 -0.349092 230.075 1.54584 227.292 2.14214C223.595 2.92396 218.812 1.22782 217.275 -2.86677C216.029 -6.17954 217.063 -10.7114 220.481 -12.4738C222.933 -13.7327 226.444 -13.4809 228.525 -11.2282C229.876 -9.77062 230.698 -7.39864 229.916 -5.14596C229.797 -4.78818 228.843 -2.17775 226.299 -1.6212C224.125 -1.14416 221.356 -2.31023 220.799 -4.53642C220.322 -6.43132 221.7 -8.07448 221.886 -8.2865" stroke="#391818" stroke-opacity="0.5" stroke-linecap="round" stroke-linejoin="round"/>
<path d="M241.868 7.99853C241.51 8.3033 240.636 8.96584 239.443 8.97909C237.257 9.0056 235.958 6.87219 235.746 6.51441C234.408 4.31473 235.15 1.85003 235.375 1.13447C236.409 -2.28431 239.43 -3.9407 240.026 -4.25873C244.545 -6.73668 251.621 -5.99462 255.53 -1.23748C259.227 3.25463 258.088 8.91287 257.915 9.72119" stroke="#391818" stroke-opacity="0.5" stroke-linecap="round" stroke-linejoin="round"/>
<path d="M243.193 6.62052C243.193 5.28858 242.114 4.20885 240.782 4.20885C239.45 4.20885 238.37 5.28858 238.37 6.62052C238.37 7.95246 239.45 9.03223 240.782 9.03223C242.114 9.03223 243.193 7.95246 243.193 6.62052Z" fill="#391818" fill-opacity="0.5"/>
<path d="M239.655 8.29041C239.245 7.76036 238.344 6.43527 238.33 4.61987C238.291 1.41311 241.02 -0.50831 241.431 -0.773331C244.32 -2.73449 248.269 -2.15146 250.826 -0.415567C254.139 1.82387 255.623 6.36899 254.351 10.8081" stroke="#391818" stroke-opacity="0.5" stroke-linecap="round" stroke-linejoin="round"/>
<path d="M245.658 18.3611C249.315 14.8495 259.876 5.71952 275.566 4.51367C296.224 2.92354 314.921 15.4326 323.27 30.8038C323.296 30.8568 323.323 30.8966 323.349 30.9496C326.344 36.5151 327.775 42.7828 327.775 49.0903L327.775 64.2363" stroke="#391818" stroke-opacity="0.5" stroke-width="2" stroke-linecap="round" stroke-linejoin="round"/>
<path d="M257.292 -2.1118C258.061 -1.22398 258.498 -0.428881 258.75 0.114414C259.691 2.14183 259.982 4.75226 260.592 4.92452C260.698 4.95103 260.778 4.92452 260.778 4.92452C261.096 4.80526 261.096 4.10299 261.096 3.87772C261.665 4.65953 262.288 5.0968 262.659 4.93779C263.149 4.72577 263.043 3.53317 263.017 3.2814C262.792 0.631184 258.949 -1.34322 257.292 -2.09854L257.292 -2.1118Z" fill="#391818" fill-opacity="0.5"/>
<path d="M253.967 64.1704C258.247 61.5599 260.844 58.2471 260.208 55.6897C260.115 55.3187 259.943 54.9079 259.651 54.5104" stroke="#391818" stroke-opacity="0.5" stroke-linecap="round" stroke-linejoin="round"/>
<path d="M266.529 48.5734C266.529 45.2582 263.841 42.5707 260.526 42.5707C257.211 42.5707 254.523 45.2582 254.523 48.5734C254.523 51.8887 257.211 54.5762 260.526 54.5762C263.841 54.5762 266.529 51.8887 266.529 48.5734Z" stroke="#391818" stroke-opacity="0.5" stroke-width="1.5" stroke-linecap="round" stroke-linejoin="round"/>
<path d="M262.898 48.5734C262.898 47.2634 261.836 46.2014 260.526 46.2014C259.216 46.2014 258.154 47.2634 258.154 48.5734C258.154 49.8833 259.216 50.9453 260.526 50.9453C261.836 50.9453 262.898 49.8833 262.898 48.5734Z" fill="#391818" fill-opacity="0.5"/>
<path d="M259.612 42.6377C259.877 42.3197 260.208 41.8161 260.42 41.1403C260.857 39.7224 260.42 38.4901 260.234 38.0793" stroke="#391818" stroke-opacity="0.5" stroke-linecap="round" stroke-linejoin="round"/>
<path d="M256.126 39.1655C255.49 36.9923 254.192 31.4799 256.126 24.8941C258.141 18.0433 262.474 14.0282 264.196 12.5971" stroke="#391818" stroke-opacity="0.5" stroke-linecap="round" stroke-linejoin="round"/>
<path d="M252.92 25.0795C252.92 24.1721 252.184 23.4364 251.276 23.4364C250.369 23.4364 249.633 24.1721 249.633 25.0795C249.633 25.987 250.369 26.7227 251.276 26.7227C252.184 26.7227 252.92 25.987 252.92 25.0795Z" fill="#391818" fill-opacity="0.5"/>
<path d="M292.925 6.43528C294.17 7.05808 298.397 9.36375 300.08 14.2799C300.584 15.7508 301.922 19.5671 299.802 22.6679C298.715 24.2447 296.41 26.1131 293.852 25.6096C290.831 25.0133 288.711 21.356 289.532 19.4081C289.943 18.4275 291.255 17.5529 292.103 17.9372C292.819 18.2685 293.203 19.5274 292.766 20.9452C293.177 20.8127 293.72 20.5477 294.117 20.0309C295.138 18.7058 294.608 16.4929 293.548 15.34C291.944 13.5909 288.658 13.7631 286.79 15.0882C283.808 17.2084 283.994 22.5354 285.729 25.9144C287.956 30.2608 292.991 31.8641 296.754 31.7978C303.035 31.6918 306.679 26.9215 307.143 26.2854C310.854 21.25 309.608 15.6448 309.422 14.863" stroke="#391818" stroke-opacity="0.5" stroke-linecap="round" stroke-linejoin="round"/>
<path d="M329.365 11.8415C329.365 8.52627 326.678 5.83876 323.363 5.83876C320.047 5.83876 317.36 8.52627 317.36 11.8415C317.36 15.1567 320.047 17.8442 323.363 17.8442C326.678 17.8442 329.365 15.1567 329.365 11.8415Z" stroke="#391818" stroke-opacity="0.5" stroke-width="1.5" stroke-linecap="round" stroke-linejoin="round"/>
<path d="M325.734 11.8409C325.734 10.5309 324.672 9.46902 323.362 9.46902C322.052 9.46902 320.99 10.5309 320.99 11.8409C320.99 13.1509 322.052 14.2129 323.362 14.2129C324.672 14.2129 325.734 13.1509 325.734 11.8409Z" fill="#391818" fill-opacity="0.5"/>
<path d="M329.365 14.3992C330.426 18.8383 331.499 23.2774 332.559 27.7033C333.513 31.6654 333.99 35.7335 333.99 39.8148L333.99 63.9053" stroke="#391818" stroke-opacity="0.5" stroke-linecap="round" stroke-linejoin="round"/>
<path d="M325.072 17.5929C325.867 18.5072 329.776 23.1186 331.79 28.366C332.89 31.2282 333.5 34.3953 333.5 34.3953C333.712 35.4554 333.831 36.3564 333.924 37.0322" stroke="#391818" stroke-opacity="0.5" stroke-linecap="round" stroke-linejoin="round"/>
<path d="M264.7 64.25C264.462 63.9585 264.064 63.5477 263.481 63.2164C262.567 62.6996 261.679 62.6466 261.255 62.6466C261.56 62.4743 262.09 62.1166 262.474 61.454C263.216 60.1951 262.805 58.8568 262.726 58.6315C262.182 59.5856 261.4 60.7649 260.287 61.9443C259.373 62.9249 258.472 63.6669 257.69 64.2235L264.7 64.2235L264.7 64.25Z" fill="#391818" fill-opacity="0.5"/>
<path d="M279.753 39.0728C277.633 40.5569 274.267 43.3264 271.617 47.8318C267.562 54.7356 267.655 61.4804 267.854 64.1836" stroke="#391818" stroke-opacity="0.5" stroke-linecap="round" stroke-linejoin="round"/>
<path d="M285.146 42.7296C283.318 43.9885 279.329 47.0892 276.785 52.6812C274.532 57.6238 274.519 62.0762 274.665 64.2759" stroke="#391818" stroke-opacity="0.5" stroke-linecap="round" stroke-linejoin="round"/>
<path d="M325.337 64.3955C322.183 61.6128 320.288 58.9493 319.135 57.0412C317.227 53.8874 316.856 51.9263 314.193 48.9713C311.834 46.3475 310.032 45.5525 309.316 45.2609C307.05 44.3731 304.97 44.4394 303.804 44.5852" stroke="#391818" stroke-opacity="0.5" stroke-linecap="round" stroke-linejoin="round"/>
<path d="M302.89 64.3691C305.248 63.097 306.56 60.5661 306.176 58.0881C305.699 55.0404 302.903 53.6887 302.665 53.5827C302.943 52.4564 303.552 49.2496 302.042 45.7513C301.936 45.4996 299.431 39.9739 293.362 38.6488C292.58 38.4765 286.644 37.1779 283.437 40.9942C282.046 42.6506 281.741 44.572 281.675 45.6056C282.496 45.1551 285.743 43.5119 289.771 44.5058C290.434 44.6648 294.939 45.8574 296.914 50.1375C297.629 51.6746 297.775 53.1057 297.788 54.02" stroke="#391818" stroke-opacity="0.5" stroke-linecap="round" stroke-linejoin="round"/>
<path d="M297.775 54.033C296.357 53.503 292.898 52.4429 288.791 53.5295C283.344 54.9739 280.575 59.2142 279.78 60.4731C278.905 61.8512 278.402 63.1233 278.084 64.0376" stroke="#391818" stroke-opacity="0.5" stroke-linecap="round" stroke-linejoin="round"/>
<path d="M302.664 53.5961C304.095 54.0466 306.335 54.8549 308.919 56.2198C311.185 57.4124 312.377 58.3135 315.306 60.1686C316.883 61.1624 319.228 62.6068 322.196 64.2632" stroke="#391818" stroke-opacity="0.5" stroke-linecap="round" stroke-linejoin="round"/>
<path d="M282.509 64.104C282.761 63.6137 283.463 62.3946 284.947 61.5996C286.021 61.0165 287.028 60.9237 287.571 60.9105C287.518 59.2806 288.234 57.8363 289.453 57.1604C290.579 56.5376 291.745 56.8027 292.116 56.8822C294.223 57.3592 295.31 59.3336 295.853 60.3009C296.251 61.0165 296.82 62.2886 296.94 64.051" stroke="#391818" stroke-opacity="0.5" stroke-linecap="round" stroke-linejoin="round"/>
<path d="M287.585 60.9102C289.254 62.063 290.924 63.2026 292.594 64.3555C293.68 63.0039 294.767 61.6523 295.853 60.3006" stroke="#391818" stroke-opacity="0.5" stroke-linecap="round" stroke-linejoin="round"/>
<path d="M316.816 35.1373C316.816 34.0908 315.968 33.2424 314.922 33.2424C313.875 33.2424 313.027 34.0908 313.027 35.1373C313.027 36.1839 313.875 37.0322 314.922 37.0322C315.968 37.0322 316.816 36.1839 316.816 35.1373Z" fill="#391818" fill-opacity="0.5"/>
<path d="M323.363 41.0471C323.363 39.5395 322.14 38.3174 320.633 38.3174C319.125 38.3174 317.903 39.5395 317.903 41.0471C317.903 42.5547 319.125 43.7769 320.633 43.7769C322.14 43.7769 323.363 42.5547 323.363 41.0471Z" fill="#391818" fill-opacity="0.5"/>
<path d="M242.001 129.445C242.465 129.246 244.797 128.173 245.738 125.589C246.705 122.952 245.685 120.196 244.134 118.606C241.285 115.664 235.998 116.101 233.202 118.738C230.95 120.858 230.87 123.893 230.857 124.092C230.671 126.888 231.904 128.902 232.328 129.538C231.705 128.769 229.982 126.874 227.2 126.278C223.503 125.496 218.719 127.192 217.182 131.287C215.936 134.6 216.97 139.132 220.389 140.894C222.84 142.153 226.351 141.901 228.432 139.648C229.784 138.191 230.605 135.819 229.823 133.566C229.704 133.208 228.75 130.598 226.206 130.041C224.033 129.564 221.263 130.73 220.707 132.957C220.23 134.851 221.608 136.495 221.793 136.707" stroke="#391818" stroke-opacity="0.5" stroke-linecap="round" stroke-linejoin="round"/>
<path d="M241.763 120.421C241.405 120.116 240.53 119.454 239.338 119.44C237.151 119.414 235.853 121.547 235.64 121.905C234.302 124.105 235.044 126.569 235.269 127.285C236.303 130.704 239.324 132.36 239.921 132.678C244.439 135.156 251.515 134.414 255.424 129.657C259.121 125.165 257.982 119.507 257.81 118.698" stroke="#391818" stroke-opacity="0.5" stroke-linecap="round" stroke-linejoin="round"/>
<path d="M243.088 121.8C243.088 120.468 242.008 119.388 240.676 119.388C239.344 119.388 238.264 120.468 238.264 121.8C238.264 123.132 239.344 124.211 240.676 124.211C242.008 124.211 243.088 123.132 243.088 121.8Z" fill="#391818" fill-opacity="0.5"/>
<path d="M239.55 120.116C239.139 120.646 238.238 121.971 238.225 123.787C238.185 126.994 240.915 128.915 241.325 129.18C244.214 131.141 248.163 130.558 250.72 128.822C254.033 126.583 255.517 122.038 254.245 117.599" stroke="#391818" stroke-opacity="0.5" stroke-linecap="round" stroke-linejoin="round"/>
<path d="M245.658 110.059C249.315 113.571 259.876 122.701 275.566 123.906C296.224 125.497 314.921 112.987 323.27 97.6162C323.296 97.5632 323.323 97.5235 323.349 97.4705C326.344 91.905 327.775 85.6373 327.775 79.3297L327.775 64.1837" stroke="#391818" stroke-opacity="0.5" stroke-width="2" stroke-linecap="round" stroke-linejoin="round"/>
<path d="M257.187 130.531C257.955 129.643 258.393 128.848 258.644 128.305C259.585 126.278 259.877 123.667 260.486 123.495C260.592 123.468 260.672 123.495 260.672 123.495C260.99 123.614 260.99 124.317 260.99 124.542C261.56 123.76 262.182 123.323 262.553 123.482C263.044 123.694 262.938 124.886 262.911 125.138C262.686 127.788 258.843 129.763 257.187 130.518L257.187 130.531Z" fill="#391818" fill-opacity="0.5"/>
<path d="M253.861 64.2497C258.141 66.8601 260.738 70.1729 260.102 72.7303C260.009 73.1014 259.837 73.5121 259.545 73.9097" stroke="#391818" stroke-opacity="0.5" stroke-linecap="round" stroke-linejoin="round"/>
<path d="M266.423 79.8464C266.423 76.5312 263.735 73.8436 260.42 73.8436C257.105 73.8436 254.417 76.5312 254.417 79.8464C254.417 83.1616 257.105 85.8491 260.42 85.8491C263.735 85.8491 266.423 83.1616 266.423 79.8464Z" stroke="#391818" stroke-opacity="0.5" stroke-width="1.5" stroke-linecap="round" stroke-linejoin="round"/>
<path d="M262.792 79.8458C262.792 78.5358 261.73 77.4739 260.42 77.4739C259.11 77.4739 258.048 78.5358 258.048 79.8458C258.048 81.1558 259.11 82.2178 260.42 82.2178C261.73 82.2178 262.792 81.1558 262.792 79.8458Z" fill="#391818" fill-opacity="0.5"/>
<path d="M259.506 85.7829C259.771 86.101 260.102 86.6045 260.314 87.2803C260.751 88.6982 260.314 89.9305 260.128 90.3413" stroke="#391818" stroke-opacity="0.5" stroke-linecap="round" stroke-linejoin="round"/>
<path d="M256.02 89.2548C255.384 91.428 254.086 96.9404 256.02 103.526C258.034 110.377 262.368 114.392 264.09 115.823" stroke="#391818" stroke-opacity="0.5" stroke-linecap="round" stroke-linejoin="round"/>
<path d="M252.814 103.34C252.814 102.433 252.078 101.697 251.171 101.697C250.263 101.697 249.528 102.433 249.528 103.34C249.528 104.248 250.263 104.983 251.171 104.983C252.078 104.983 252.814 104.248 252.814 103.34Z" fill="#391818" fill-opacity="0.5"/>
<path d="M292.819 121.985C294.065 121.362 298.292 119.056 299.975 114.14C300.478 112.669 301.817 108.853 299.696 105.752C298.61 104.175 296.304 102.307 293.747 102.811C290.725 103.407 288.605 107.064 289.427 109.012C289.838 109.993 291.149 110.867 291.997 110.483C292.713 110.152 293.097 108.893 292.66 107.475C293.071 107.607 293.614 107.872 294.012 108.389C295.032 109.714 294.502 111.927 293.442 113.08C291.838 114.829 288.552 114.657 286.684 113.332C283.702 111.212 283.888 105.872 285.624 102.506C287.85 98.1594 292.885 96.556 296.649 96.6223C302.93 96.7283 306.574 101.499 307.037 102.135C310.748 107.17 309.502 112.775 309.317 113.557" stroke="#391818" stroke-opacity="0.5" stroke-linecap="round" stroke-linejoin="round"/>
<path d="M329.365 116.578C329.365 113.263 326.678 110.575 323.363 110.575C320.047 110.575 317.36 113.263 317.36 116.578C317.36 119.893 320.047 122.581 323.363 122.581C326.678 122.581 329.365 119.893 329.365 116.578Z" stroke="#391818" stroke-opacity="0.5" stroke-width="1.5" stroke-linecap="round" stroke-linejoin="round"/>
<path d="M325.734 116.578C325.734 115.268 324.672 114.206 323.362 114.206C322.052 114.206 320.99 115.268 320.99 116.578C320.99 117.888 322.052 118.95 323.362 118.95C324.672 118.95 325.734 117.888 325.734 116.578Z" fill="#391818" fill-opacity="0.5"/>
<path d="M329.365 114.021C330.426 109.581 331.499 105.142 332.559 100.716C333.513 96.7543 333.99 92.6863 333.99 88.6049L333.99 62.3147" stroke="#391818" stroke-opacity="0.5" stroke-linecap="round" stroke-linejoin="round"/>
<path d="M325.072 110.827C325.867 109.912 329.776 105.301 331.79 100.054C332.89 97.1913 333.5 94.0243 333.5 94.0243C333.712 92.9642 333.831 92.0631 333.924 91.3873" stroke="#391818" stroke-opacity="0.5" stroke-linecap="round" stroke-linejoin="round"/>
<path d="M264.7 64.2497C264.462 64.5412 264.064 64.952 263.481 65.2833C262.567 65.8001 261.679 65.8531 261.255 65.8531C261.56 66.0254 262.09 66.3831 262.474 67.0457C263.216 68.3045 262.805 69.6429 262.726 69.8682C262.182 68.9141 261.4 67.7347 260.287 66.5554C259.373 65.5748 258.472 64.8327 257.69 64.2762L264.7 64.2762L264.7 64.2497Z" fill="#391818" fill-opacity="0.5"/>
<path d="M279.647 89.3477C277.527 87.8768 274.161 85.1205 271.511 80.5887C267.456 73.6451 267.629 66.8605 267.854 64.1838" stroke="#391818" stroke-opacity="0.5" stroke-linecap="round" stroke-linejoin="round"/>
<path d="M285.04 85.6899C283.238 84.4576 279.21 81.3568 276.679 75.7384C274.492 70.8487 274.506 66.4494 274.665 64.2762" stroke="#391818" stroke-opacity="0.5" stroke-linecap="round" stroke-linejoin="round"/>
<path d="M325.337 64.3956C322.117 66.9795 320.195 69.5237 319.029 71.3921C317.068 74.5326 316.79 76.454 314.087 79.462C311.701 82.1123 309.86 82.9073 309.21 83.1724C306.944 84.0602 304.864 83.9939 303.698 83.8481" stroke="#391818" stroke-opacity="0.5" stroke-linecap="round" stroke-linejoin="round"/>
<path d="M302.89 64.3689C305.129 65.5483 306.401 67.9467 306.07 70.3187C305.646 73.4327 302.717 74.7578 302.558 74.824C302.837 75.9504 303.446 79.1571 301.936 82.6554C301.83 82.9072 299.325 88.4329 293.256 89.758C292.474 89.9303 286.538 91.2289 283.331 87.4126C281.94 85.7562 281.635 83.8348 281.569 82.8012C282.39 83.2518 285.637 84.8949 289.665 83.901C290.328 83.742 294.833 82.5494 296.807 78.2693C297.523 76.7322 297.669 75.3011 297.682 74.3868" stroke="#391818" stroke-opacity="0.5" stroke-linecap="round" stroke-linejoin="round"/>
<path d="M297.682 74.3873C296.264 74.9173 292.806 75.9774 288.698 74.8908C283.252 73.4465 280.482 69.2061 279.687 67.9472C278.813 66.5691 278.309 65.2971 277.991 64.3827" stroke="#391818" stroke-opacity="0.5" stroke-linecap="round" stroke-linejoin="round"/>
<path d="M302.558 74.8242C303.989 74.3737 306.229 73.5654 308.813 72.2005C311.185 70.9549 312.351 70.0273 315.2 68.2517C316.777 67.2579 319.149 65.84 322.196 64.2631" stroke="#391818" stroke-opacity="0.5" stroke-linecap="round" stroke-linejoin="round"/>
<path d="M282.404 64.3165C282.655 64.8068 283.358 66.0259 284.842 66.821C285.915 67.404 286.922 67.4968 287.465 67.51C287.412 69.1399 288.128 70.5843 289.347 71.2601C290.473 71.8829 291.64 71.6179 292.011 71.5384C294.078 71.0746 295.151 69.1531 295.747 68.1196C296.158 67.3775 296.807 65.9994 296.94 64.0515" stroke="#391818" stroke-opacity="0.5" stroke-linecap="round" stroke-linejoin="round"/>
<path d="M287.479 67.5096C289.148 66.3568 290.818 65.2172 292.487 64.0643C293.574 65.4159 294.661 66.7675 295.747 68.1191" stroke="#391818" stroke-opacity="0.5" stroke-linecap="round" stroke-linejoin="round"/>
<path d="M316.71 93.2828C316.71 92.2363 315.862 91.3879 314.816 91.3879C313.769 91.3879 312.921 92.2363 312.921 93.2828C312.921 94.3294 313.769 95.1777 314.816 95.1777C315.862 95.1777 316.71 94.3294 316.71 93.2828Z" fill="#391818" fill-opacity="0.5"/>
<path d="M323.257 87.3728C323.257 85.8652 322.034 84.6431 320.527 84.6431C319.019 84.6431 317.797 85.8652 317.797 87.3728C317.797 88.8804 319.019 90.1025 320.527 90.1025C322.034 90.1025 323.257 88.8804 323.257 87.3728Z" fill="#391818" fill-opacity="0.5"/>
</g>
<defs>
<linearGradient id="paint0_linear_265_18250" x1="170.5" y1="0" x2="170.5" y2="127" gradientUnits="userSpaceOnUse">
<stop stop-color="#381414"/>
<stop offset="1" stop-color="#1D0808"/>
</linearGradient>
<clipPath id="clip0_265_18250">
<rect width="341" height="127" rx="1" fill="white"/>
</clipPath>
</defs>
</svg>
