<svg width="353" height="96" viewBox="0 0 353 96" fill="none" xmlns="http://www.w3.org/2000/svg">
<g filter="url(#filter0_d_77_17035)">
<g clip-path="url(#clip0_77_17035)">
<rect x="4" width="345" height="88" fill="url(#paint0_linear_77_17035)"/>
<path d="M4.99209 181.814L4.9921 -82.1847C4.9921 -82.5606 5.2514 -82.856 5.58142 -82.856L283.845 -82.856L348.411 -82.856C348.741 -82.856 349 -82.5606 349 -82.1846L349 181.814C349 182.19 348.741 182.486 348.411 182.486L5.58141 182.486C5.25139 182.486 4.99209 182.19 4.99209 181.814ZM6.17072 -81.5134L6.17071 181.143L347.821 181.143L347.821 -81.5133L112.436 -81.5134L6.17072 -81.5134Z" fill="#DFD4CF" fill-opacity="0.05"/>
<path d="M177.862 -50.1362C129.479 -50.1362 90.1246 -5.30612 90.1246 49.8084C90.1246 104.923 129.479 149.753 177.862 149.753C226.245 149.753 265.6 104.923 265.6 49.8084C265.6 -5.30611 226.245 -50.1362 177.862 -50.1362ZM177.862 147.068C130.787 147.068 92.4819 103.433 92.4819 49.8084C92.4819 -3.81581 130.787 -47.451 177.862 -47.451C224.937 -47.451 263.242 -3.8158 263.242 49.8084C263.242 103.433 224.937 147.068 177.862 147.068Z" fill="#DFD4CF" fill-opacity="0.05"/>
<path d="M259.494 49.7947C259.494 43.1621 255.499 35.536 250.159 35.2809C248.274 35.1869 246.317 36.0731 244.49 37.8319C243.441 38.3287 240.895 39.2282 238.114 38.0199C236.523 37.3217 235.191 36.1 234.177 34.3814C233.34 30.2328 232.15 26.2317 230.653 22.4052L250.56 15.1551C250.949 15.0074 251.267 14.712 251.456 14.2958C251.644 13.8796 251.68 13.4097 251.55 12.98C251.42 12.5235 251.126 12.1341 250.737 11.9327C250.348 11.7314 249.9 11.7179 249.511 11.9059L230.158 21.1298C228.897 18.0955 227.435 15.182 225.797 12.4028L244.466 0.198272C244.82 -0.0299729 245.079 -0.405946 245.186 -0.849011C245.292 -1.29207 245.244 -1.76196 245.032 -2.16475C244.82 -2.58096 244.467 -2.88976 244.042 -2.99717C243.618 -3.10458 243.182 -2.99707 242.84 -2.72854L225.172 11.2749C225.172 11.2749 225.161 11.3018 225.149 11.3152C223.452 8.57625 221.578 5.98498 219.538 3.5817C219.609 3.55484 219.68 3.5146 219.739 3.44747L235.745 -12.9459C236.051 -13.2547 236.228 -13.6843 236.251 -14.1542C236.275 -14.6107 236.133 -15.0673 235.862 -15.4029C235.58 -15.7655 235.167 -15.9802 234.743 -15.9802C234.318 -15.9802 233.906 -15.7789 233.611 -15.4298L218.914 2.48082C218.914 2.48082 218.819 2.61496 218.796 2.69552C216.721 0.332513 214.494 -1.85596 212.137 -3.85646C212.137 -3.85646 212.16 -3.86975 212.172 -3.88318L224.807 -23.7406C225.302 -24.5193 225.149 -25.6069 224.465 -26.1708C224.123 -26.4527 223.687 -26.5601 223.263 -26.4661C222.839 -26.3721 222.473 -26.0768 222.261 -25.6606L211.205 -4.64856C208.813 -6.58194 206.279 -8.30045 203.639 -9.81761L212.101 -31.6755C212.266 -32.1051 212.278 -32.575 212.125 -33.0047C211.972 -33.4343 211.689 -33.7833 211.323 -33.9713C210.934 -34.1727 210.487 -34.1727 210.098 -33.9713C209.709 -33.7699 209.402 -33.394 209.261 -32.9375L202.531 -10.4486C198.901 -12.4088 195.058 -13.9529 191.074 -15.0135C189.766 -16.1279 188.811 -17.5376 188.257 -19.1891C187.138 -22.5322 188.057 -25.4994 188.422 -26.4527C189.966 -28.5472 190.756 -30.7758 190.662 -32.924C190.426 -39.0195 183.731 -43.5576 177.909 -43.5576C172.087 -43.5576 165.404 -39.0061 165.168 -32.924C165.097 -30.7758 165.863 -28.5337 167.407 -26.4527C167.844 -25.2712 168.633 -22.3711 167.572 -19.1891C167.018 -17.5242 166.064 -16.1279 164.756 -15.0135C160.819 -13.9663 157.035 -12.4492 153.452 -10.5292L146.652 -33.2462C146.51 -33.7027 146.216 -34.0787 145.815 -34.2801C145.426 -34.4815 144.978 -34.4815 144.589 -34.2801C144.023 -33.9981 143.681 -33.3538 143.681 -32.6824C143.681 -32.4542 143.729 -32.2125 143.811 -31.9843L152.356 -9.92496C149.704 -8.43466 147.17 -6.71617 144.778 -4.7828C144.766 -4.8365 144.754 -4.8902 144.731 -4.9439L133.663 -25.9694C133.451 -26.3856 133.074 -26.6809 132.661 -26.7749C132.237 -26.8689 131.801 -26.7749 131.459 -26.4796C131.129 -26.211 130.917 -25.8083 130.846 -25.3518C130.834 -25.2578 130.823 -25.1637 130.823 -25.0697C130.823 -24.7072 130.917 -24.3581 131.117 -24.0493L143.752 -4.19212C143.752 -4.19212 143.846 -4.07129 143.905 -4.03102C141.513 -2.03051 139.25 0.171414 137.152 2.54785C137.14 2.41359 137.093 2.27929 137.01 2.17188L122.313 -15.7386C122.018 -16.1011 121.606 -16.2891 121.181 -16.2891C120.757 -16.2891 120.344 -16.0742 120.062 -15.7117C119.814 -15.3895 119.673 -14.9867 119.673 -14.5571C119.673 -14.5302 119.673 -14.4899 119.673 -14.463C119.696 -13.9931 119.873 -13.577 120.18 -13.2682L136.185 3.12524C136.28 3.21923 136.409 3.27293 136.527 3.28635C134.465 5.70307 132.555 8.3078 130.834 11.0602C130.811 11.0333 130.787 10.9929 130.752 10.9661L113.084 -3.03733C112.731 -3.31928 112.294 -3.41336 111.87 -3.30595C111.446 -3.19854 111.092 -2.88974 110.88 -2.47353C110.739 -2.20501 110.68 -1.90962 110.68 -1.61424C110.68 -1.01006 110.951 -0.419301 111.446 -0.0970736L130.115 12.1073C130.115 12.1073 130.163 12.1207 130.174 12.1342C128.524 14.9 127.039 17.8 125.766 20.8343L106.39 11.5971C106.001 11.4091 105.553 11.4226 105.164 11.624C104.775 11.8254 104.48 12.2148 104.351 12.6712C104.303 12.8458 104.28 13.0204 104.28 13.2083C104.28 13.4768 104.339 13.7453 104.445 14.0004C104.633 14.4166 104.951 14.712 105.34 14.8597L125.259 22.1099C123.704 26.0169 122.478 30.1252 121.617 34.3947C120.604 36.1133 119.284 37.3352 117.681 38.0333C114.911 39.2417 112.365 38.3421 111.316 37.8453C109.477 36.0865 107.521 35.2003 105.635 35.2943C100.284 35.5629 96.3004 43.189 96.3004 49.8216C96.3004 56.4541 100.296 64.0666 105.635 64.3352C107.521 64.4292 109.477 63.543 111.316 61.7842C112.365 61.2874 114.899 60.3878 117.681 61.5962C120.085 62.6434 121.452 64.7245 122.171 66.2953C122.985 69.7056 124.046 72.9951 125.307 76.1637L105.352 83.4272C104.963 83.5749 104.645 83.8703 104.456 84.2865C104.339 84.5416 104.28 84.81 104.28 85.0786C104.28 85.2531 104.303 85.4277 104.351 85.6022C104.48 86.0587 104.775 86.4481 105.164 86.6495C105.553 86.8509 106.001 86.8643 106.39 86.6764L125.802 77.4257C127.075 80.46 128.536 83.3869 130.186 86.1393C130.163 86.1393 130.139 86.1527 130.115 86.1662L111.446 98.3705C110.951 98.6928 110.68 99.2835 110.68 99.8877C110.68 100.183 110.751 100.478 110.88 100.747C111.092 101.163 111.446 101.472 111.87 101.579C112.294 101.687 112.73 101.579 113.072 101.311L130.74 87.3074C130.74 87.3074 130.811 87.2268 130.846 87.1866C132.567 89.9524 134.476 92.557 136.551 94.9871C136.421 94.9871 136.28 95.0408 136.174 95.1482L120.168 111.542C119.861 111.85 119.685 112.28 119.661 112.737C119.661 112.763 119.661 112.804 119.661 112.831C119.661 113.26 119.802 113.663 120.05 113.985C120.333 114.348 120.745 114.563 121.17 114.563C121.594 114.563 122.006 114.361 122.301 114.012L136.999 96.1016C137.093 95.9807 137.14 95.8464 137.152 95.6987C139.261 98.0886 141.536 100.277 143.952 102.278C143.882 102.318 143.811 102.385 143.764 102.466L131.141 122.323C130.952 122.618 130.846 122.981 130.846 123.343C130.846 123.437 130.846 123.531 130.87 123.625C130.929 124.082 131.153 124.484 131.483 124.753C131.825 125.035 132.261 125.142 132.685 125.048C133.109 124.954 133.474 124.659 133.687 124.243L144.754 103.217C144.79 103.15 144.813 103.07 144.825 102.989C147.229 104.909 149.752 106.641 152.403 108.131L143.835 130.244C143.752 130.473 143.705 130.714 143.705 130.942C143.705 131.614 144.047 132.245 144.613 132.54C145.002 132.742 145.449 132.742 145.838 132.54C146.227 132.339 146.534 131.963 146.675 131.506L153.5 108.709C156.658 110.387 159.97 111.783 163.412 112.804C164.39 113.475 166.606 115.314 167.584 118.765C168.527 122.041 167.808 124.901 167.407 126.069C165.863 128.163 165.109 130.392 165.18 132.54C165.415 138.501 172.075 142.932 177.921 143.174C179.194 143.227 183.626 143.12 187.197 139.522C188.375 138.34 190.556 136.125 190.686 132.54C190.792 129.358 189.236 127.009 188.458 126.055C188.069 124.874 187.35 122.028 188.281 118.765C189.271 115.314 191.487 113.475 192.465 112.804C196.013 111.756 199.419 110.32 202.672 108.561L209.449 131.211C209.591 131.668 209.885 132.043 210.286 132.245C210.675 132.446 211.123 132.433 211.512 132.245C211.889 132.057 212.172 131.721 212.313 131.278C212.455 130.848 212.455 130.379 212.29 129.949L203.768 107.957C206.42 106.44 208.943 104.694 211.335 102.761C211.347 102.815 211.347 102.868 211.371 102.922L222.438 123.947C222.65 124.364 223.027 124.659 223.44 124.753C223.864 124.847 224.3 124.753 224.642 124.458C225.325 123.894 225.479 122.806 224.984 122.027L212.349 102.17C212.349 102.17 212.266 102.076 212.219 102.036C214.612 100.022 216.863 97.8067 218.949 95.4034C218.949 95.5511 219.008 95.6988 219.102 95.8062L233.8 113.717C234.094 114.079 234.507 114.281 234.932 114.267C235.356 114.267 235.768 114.052 236.051 113.69C236.322 113.341 236.463 112.898 236.44 112.441C236.416 111.971 236.24 111.555 235.933 111.233L219.927 94.8394C219.821 94.732 219.68 94.6783 219.55 94.6783C221.613 92.2348 223.511 89.6167 225.22 86.8375C225.255 86.9046 225.302 86.9718 225.361 87.012L243.029 101.016C243.382 101.298 243.818 101.391 244.243 101.284C244.667 101.177 245.021 100.868 245.233 100.452C245.433 100.049 245.492 99.579 245.386 99.1359C245.28 98.6929 245.021 98.3169 244.667 98.0886L225.997 85.8843C225.997 85.8843 225.903 85.8439 225.856 85.8305C227.494 83.0647 228.92 80.1244 230.182 77.0766L249.711 86.381C250.1 86.569 250.548 86.5556 250.937 86.3542C251.326 86.1528 251.621 85.7634 251.75 85.3069C251.868 84.8638 251.845 84.3939 251.656 83.9777C251.468 83.5615 251.149 83.2661 250.76 83.1184L230.688 75.8146C231.879 72.7535 232.904 69.5713 233.682 66.2819C234.401 64.7111 235.757 62.6434 238.161 61.5827C240.943 60.3744 243.488 61.274 244.537 61.7707C246.364 63.5296 248.321 64.4157 250.207 64.3217C255.558 64.0666 259.541 56.4406 259.541 49.7947L259.494 49.7947ZM250.112 62.9926C248.085 63.0865 246.317 61.7977 245.197 60.6967C245.15 60.6565 245.103 60.6161 245.044 60.5892C243.924 60.0387 240.954 58.9245 237.701 60.3342C234.92 61.556 233.376 63.9324 232.574 65.7181C232.562 65.7584 232.539 65.7852 232.539 65.8255C232.539 65.8523 232.527 65.8792 232.515 65.9061C227.247 88.2607 211.736 105.742 192.041 111.515C191.994 111.528 191.935 111.555 191.888 111.582C190.827 112.294 188.246 114.361 187.102 118.335C186.018 122.121 186.902 125.411 187.338 126.646C187.362 126.727 187.409 126.794 187.456 126.861C188.081 127.626 189.554 129.654 189.436 132.46C189.33 135.481 187.456 137.36 186.336 138.488C183.095 141.764 179.052 141.858 177.885 141.804C172.57 141.576 166.476 137.535 166.288 132.46C166.194 130.164 167.337 128.123 168.303 126.834C168.35 126.78 168.374 126.713 168.397 126.646C168.833 125.411 169.718 122.121 168.633 118.335C167.502 114.375 164.921 112.294 163.872 111.582C163.824 111.555 163.777 111.528 163.718 111.515C144.035 105.742 128.513 88.2607 123.232 65.9061C123.232 65.9061 123.22 65.8523 123.209 65.8255C123.209 65.7986 123.185 65.7584 123.173 65.7316C122.372 63.9459 120.816 61.5694 118.046 60.3476C114.793 58.9245 111.835 60.0522 110.715 60.6027C110.656 60.6295 110.609 60.6699 110.562 60.7102C109.43 61.8111 107.651 63.1 105.623 63.006C101.003 62.7777 97.42 55.7289 97.42 49.8348C97.42 43.9273 101.003 36.8786 105.623 36.6504C107.651 36.543 109.43 37.8453 110.562 38.9462C110.609 38.9865 110.656 39.0269 110.715 39.0537C111.835 39.6042 114.793 40.7185 118.046 39.3087C119.908 38.5032 121.452 37.0667 122.608 35.0393C122.655 34.9588 122.678 34.8647 122.69 34.7707C127.463 10.8855 144.07 -8.12591 165.027 -13.6709C165.121 -13.6843 165.215 -13.7246 165.298 -13.7917C166.853 -15.0806 167.973 -16.7186 168.633 -18.6654C169.859 -22.3979 168.892 -25.7546 168.421 -27.0301C168.397 -27.0972 168.362 -27.1508 168.327 -27.2045C167.36 -28.4934 166.229 -30.5208 166.311 -32.8301C166.512 -38.0932 172.699 -42.1747 177.874 -42.1747C183.06 -42.1747 189.248 -38.0932 189.46 -32.8301C189.507 -30.5342 188.411 -28.4934 187.444 -27.2045C187.409 -27.1508 187.373 -27.0971 187.35 -27.0433C186.961 -26.0767 185.806 -22.5993 187.126 -18.6654C187.786 -16.7186 188.906 -15.0806 190.461 -13.7917C190.532 -13.738 190.627 -13.6978 190.709 -13.6709C211.665 -8.12591 228.284 10.899 233.034 34.6768C233.034 34.811 233.069 34.9319 233.128 35.0393C234.295 37.0532 235.827 38.4898 237.689 39.3088C240.942 40.7319 243.912 39.6042 245.032 39.0537C245.091 39.0269 245.138 38.9865 245.186 38.9462C246.317 37.8453 248.085 36.5564 250.1 36.6504C254.721 36.8786 258.304 43.914 258.304 49.8216C258.304 55.7291 254.721 62.7778 250.1 63.006L250.112 62.9926Z" fill="#DFD4CF" fill-opacity="0.05"/>
<path d="M219.515 49.1768C219.892 45.0013 219.48 40.7318 218.313 36.8382C217.476 34.0187 215.72 28.1381 210.475 24.0833C206.633 21.1162 202.614 20.418 199.761 20.3911C198.771 18.6189 198.064 16.8197 197.404 15.1415C196.06 11.7178 194.87 8.76398 191.864 7.54219C190.863 4.23935 189.307 1.87637 187.22 0.520324C185.511 -0.594049 184.074 -0.634197 182.094 -0.687902C180.927 -0.714754 179.618 -0.755183 177.874 -1.01028C174.975 -1.42649 173.631 -2.05741 172.547 -2.5676C171.474 -3.06437 170.555 -3.49408 168.81 -3.48065C163.577 -3.42695 156.941 0.439889 154.961 7.52891C154.537 9.03265 154.372 10.4826 154.372 11.8655C154.372 15.0073 155.244 17.6791 155.975 19.4111C155.598 19.505 155.244 19.599 154.926 19.693C152.144 20.4314 151.013 20.7268 149.634 21.7203C145.556 22.5393 142.079 24.5532 139.604 27.5338C136.716 30.9978 136.009 35.2406 134.712 42.9472C133.628 49.3649 132.862 53.9431 132.862 57.9307C132.862 60.8442 133.274 63.4489 134.264 66.2282C135.537 69.7592 137.529 72.9411 140.205 75.6801C140.535 76.8884 141.018 78.0028 141.749 79.0501C144.919 83.5613 150.577 83.6687 153.158 83.4539C153.936 87.3341 155.374 90.6907 157.472 93.4565C163.235 101.042 172.818 102.721 179.265 101.848C184.003 101.217 187.539 99.27 188.729 96.6385C188.847 96.3834 188.977 96.0343 189.13 95.6181C189.707 94.0472 190.592 91.6707 192.454 90.5161C193.114 90.0999 193.786 89.8985 193.786 89.8985C194.752 89.6166 195.389 89.7509 196.202 89.9254C196.779 90.0462 197.439 90.1938 198.264 90.167C198.924 90.1536 201.223 89.9522 202.873 88.2068C204.759 86.2197 204.853 83.2793 204.759 81.7219C205.737 81.1848 206.715 80.5135 207.682 79.7079C212.29 75.8143 214.129 70.5648 214.848 67.5036C216.227 66.6443 219.916 63.9054 220.894 58.4812C221.672 54.2117 220.305 50.7343 219.527 49.1902L219.515 49.1768ZM195.777 15.9604C197.145 19.4378 198.842 23.7611 202.991 27.3996C203.851 28.1514 204.653 28.7423 205.431 29.3062C207.092 30.5145 208.542 31.5617 210.11 33.965C210.84 35.0928 212.196 37.4961 212.997 40.8526C213.504 42.974 214.435 46.9079 213.033 51.1371C212.549 52.5872 211.901 54.5607 210.063 55.8765C208.778 56.7894 207.434 57.0044 206.42 57.0044C206.715 55.0576 206.786 52.2784 205.206 49.7811C203.556 47.1898 201.093 46.3709 199.596 46.1292C200.162 41.9402 200.009 38.6105 198.371 35.1465C197.428 33.1729 196.213 31.6154 194.917 30.3936C194.705 28.3931 194.375 26.3927 193.88 24.4728C192.524 19.1828 190.038 13.5572 186.773 9.50253C188.293 8.97891 189.684 8.88488 190.91 9.28766C193.467 10.1201 194.434 12.5636 195.766 15.9604L195.777 15.9604ZM177.697 90.2745C177.485 90.4088 177.332 90.6504 177.273 90.9324C177.061 92.0333 176.554 93.5369 175.352 94.4902C174.326 95.3092 173.219 95.3764 172.735 95.4032C169.694 95.5643 162.788 92.6778 156.258 84.0313C152.357 78.8622 149.775 75.4385 149.575 70.2695C149.481 67.7453 149.976 65.4226 150.659 63.4221C154.078 65.1138 156.824 67.2351 158.827 69.7727C159.287 70.7528 159.9 71.7463 160.748 72.7667C161.291 73.8139 161.715 74.8879 162.163 76.0157C163.283 78.8218 164.449 81.7354 167.372 84.179C169.435 85.9109 171.38 86.5554 172.311 86.8642C178.852 89.0661 185.288 86.1929 188.93 83.9775C188.435 85.7095 187.35 88.0994 185.028 89.5494C182.129 91.3485 179.229 90.5027 178.404 90.1939C178.169 90.0999 177.909 90.1402 177.697 90.2745ZM173.973 30.9307C173.973 30.9307 173.984 30.9307 173.996 30.9307C174.055 30.9307 174.114 30.9307 174.173 30.9307C174.232 30.9307 174.291 30.9307 174.35 30.9307C174.35 30.9307 174.362 30.9307 174.373 30.9307C174.421 30.9172 174.468 30.8771 174.503 30.8636C174.55 30.8368 174.597 30.8367 174.645 30.7964C176 29.776 180.879 26.5672 187.008 28.165C188.623 28.5812 194.092 30.3936 196.826 36.1266C197.758 38.0868 198.146 40.0202 198.146 42.2087C198.146 43.605 197.993 45.1088 197.722 46.7871C197.722 46.8408 197.699 46.881 197.699 46.9347C197.392 48.8681 196.944 51.0296 196.426 53.5403C194.823 61.2872 193.668 66.8861 189.543 69.437C186.431 71.3704 182.4 71.1959 180.88 71.1288C180.349 71.1019 179.807 71.048 179.276 70.9809C181.068 70.323 182.765 69.4101 184.251 68.2018C190.462 63.1804 193.668 53.782 191.876 45.8606C191.546 44.3837 190.521 39.8725 186.855 36.9859C183.272 34.153 177.638 33.2535 174.586 36.0596C173.831 35.2137 172.759 34.3275 171.344 33.8308C168.221 32.7164 165.498 34.1664 164.108 35.1599C164.178 35.0257 164.249 34.8779 164.331 34.7437C165.239 33.1594 165.97 32.5419 166.206 32.3405C168.81 30.1117 172.193 30.5145 173.973 30.9441L173.973 30.9307ZM187.397 26.1777C185.995 25.8152 184.651 25.681 183.39 25.7079C183.131 23.949 182.483 21.68 180.939 19.6526C178.475 16.4304 175.21 15.7725 173.631 15.4502C170.908 14.8998 169.352 15.3966 165.215 16.6855C163.766 17.142 161.974 17.7059 159.676 18.3638C159.228 18.498 158.804 18.6055 158.403 18.7263C158.768 16.9809 159.417 15.5577 160.371 14.497C161.232 13.5438 161.904 13.3424 163.012 13.0067C164.013 12.6979 165.274 12.3219 167.031 11.2478C168.681 10.2409 169.659 9.30111 170.531 8.46868C171.604 7.44829 172.382 6.70992 174.032 6.1863C174.22 6.13259 175.953 5.60892 177.768 5.79689C184.922 6.53533 190.297 17.6924 192.171 25.0097C192.477 26.2315 192.713 27.4801 192.902 28.7422C190.58 27.1311 188.352 26.4061 187.374 26.1645L187.397 26.1777ZM162.964 72.4042C162.67 72.1088 162.399 71.7999 162.139 71.5046C161.621 70.511 161.008 69.5712 160.324 68.6851C159.558 67.0202 159.263 65.2614 159.499 63.4892C159.9 60.4414 161.715 57.8368 164.308 56.4539C164.331 56.5344 164.355 56.615 164.379 56.6956C166.158 61.8378 170.908 65.2212 175.929 64.899C182.648 64.4828 185.83 57.4876 185.865 57.4205C187.845 52.9899 188.246 46.4111 184.415 42.437C181.822 39.7383 177.992 38.9462 174.35 40.2216C174.515 39.4026 174.798 38.691 175.21 38.1271C177.308 35.3344 182.659 36.0997 185.853 38.6238C188.977 41.0943 189.872 45.0416 190.167 46.3439C191.782 53.4866 188.859 61.9855 183.225 66.5369C180.88 68.4434 178.015 69.6249 174.951 69.974C174.951 69.974 174.951 69.974 174.939 69.974C174.833 69.9874 174.739 70.0277 174.656 70.068C174.633 70.0815 174.597 70.1084 174.574 70.1218C174.515 70.1621 174.456 70.2157 174.409 70.2695C174.385 70.2963 174.362 70.3365 174.338 70.3634C174.291 70.4305 174.268 70.4977 174.232 70.5782C174.232 70.6051 174.209 70.6184 174.197 70.6453C174.197 70.6587 174.197 70.6722 174.197 70.6856C174.197 70.699 174.185 70.7125 174.185 70.7393C173.937 72.0551 173.36 73.8407 172.016 74.8611C169.294 76.9153 165.027 74.4181 162.976 72.3639L162.964 72.4042ZM173.136 42.7189C173.136 42.7189 173.148 42.7189 173.159 42.7189C176.177 43.3231 178.746 46.0754 179.265 49.2574C179.43 50.3047 179.665 52.9227 178.145 54.7487C177.261 55.8094 175.399 57.0714 173.867 56.2256C172.995 55.7422 171.91 54.3729 172.216 52.8423C172.429 51.7816 173.254 50.9089 174.314 50.6135C174.786 50.4792 175.081 49.9422 174.975 49.4051C174.857 48.8681 174.385 48.5325 173.914 48.6533C172.205 49.1232 170.861 50.5866 170.496 52.3857C170.001 54.8427 171.462 57.1252 173.089 58.0248C175.316 59.26 177.933 57.9039 179.418 56.1182C180.88 54.3594 181.445 51.7144 180.986 48.8815C180.491 45.8606 178.64 43.2157 176.153 41.7657C178.782 41.2689 181.375 42.0208 183.201 43.9138C186.82 47.6732 185.488 53.7821 184.274 56.5076C184.25 56.5613 181.528 62.536 175.823 62.8851C171.556 63.1536 167.514 60.2937 166.017 55.9437C164.367 51.1639 165.887 45.0953 169.199 43.2022C170.838 42.2624 172.546 42.598 173.124 42.7055L173.136 42.7189ZM162.599 39.6846C163.212 38.5568 164.037 37.5901 164.98 36.892C166.088 36.0864 168.315 34.8511 170.814 35.7372C171.957 36.14 172.806 36.8785 173.407 37.5633C172.924 38.4226 172.617 39.4295 172.488 40.5842C171.474 40.4902 169.953 40.517 168.409 41.4032C165.392 43.1217 163.577 47.3778 163.577 51.7816C163.577 52.6811 163.66 53.5941 163.825 54.4937C160.56 56.1048 158.261 59.3539 157.755 63.1804C157.696 63.6503 157.649 64.174 157.649 64.7244C157.649 65.0735 157.672 65.4494 157.708 65.8253C155.928 64.2007 153.806 62.7777 151.378 61.5693C152.298 59.4883 153.323 57.9173 153.854 57.1252C155.492 54.6547 156.717 53.7687 157.802 52.99C158.969 52.1441 160.077 51.352 161.055 48.9755C162.021 46.6394 162.175 44.5179 162.316 42.4772C162.387 41.5373 162.446 40.611 162.587 39.6711L162.599 39.6846ZM190.108 80.9701C190.108 80.9701 190.037 80.997 189.99 81.0104C189.931 81.0238 189.884 81.0371 189.837 81.064C189.814 81.064 189.802 81.0909 189.778 81.1043L189.755 81.1043C187.02 83.0511 179.913 87.3072 172.806 84.9173C171.969 84.6354 170.225 84.0447 168.409 82.5276C166.029 80.5405 164.98 78.1908 163.978 75.6935C166.524 77.4121 170.107 78.7279 172.971 76.5663C174.468 75.4385 175.246 73.7199 175.658 72.2162C177.344 72.7264 179.064 73.0352 180.797 73.1158C182.447 73.1829 186.843 73.3708 190.368 71.1823C195.188 68.1883 196.485 61.9183 198.123 53.97C198.571 51.8219 198.972 49.8885 199.278 48.1028C200.421 48.2908 202.472 48.9084 203.757 50.9492C205.419 53.5538 204.7 56.6956 204.358 58.1993C203.58 61.5962 201.576 63.704 200.445 64.6572C200.15 64.8989 200.032 65.3152 200.115 65.718C200.327 66.6578 201.211 71.5584 198.347 75.989C195.448 80.4734 191.016 80.9164 190.156 80.9566L190.132 80.9566C190.12 80.9566 190.097 80.9566 190.085 80.9566L190.108 80.9701ZM156.647 8.13303C158.379 1.94356 164.214 -1.43989 168.822 -1.48017C170.213 -1.48017 170.873 -1.1847 171.875 -0.714781C173.054 -0.164307 174.515 0.520441 177.65 0.976932C179.477 1.24546 180.903 1.28573 182.046 1.31259C183.897 1.36629 185.016 1.39309 186.348 2.26579C187.81 3.21905 188.965 4.83011 189.802 7.04543C188.423 6.93802 186.938 7.24687 185.382 7.9316C183.166 5.64915 180.656 4.10523 177.957 3.82328C175.87 3.60846 173.961 4.15889 173.596 4.27972C171.568 4.91075 170.531 5.90428 169.423 6.95152C168.622 7.71681 167.702 8.58954 166.217 9.50252C164.638 10.4692 163.542 10.8048 162.575 11.0867C161.385 11.4492 160.348 11.758 159.157 13.0872C158.203 14.1479 157.507 15.5175 157.024 17.1018C156.27 14.8328 155.692 11.597 156.659 8.15991L156.647 8.13303ZM160.124 20.3239C162.434 19.6526 164.237 19.0887 165.699 18.6322C169.777 17.3567 171.003 16.9675 173.336 17.4374C174.81 17.7328 177.556 18.2831 179.607 20.9684C180.832 22.5795 181.375 24.3788 181.61 25.8288C178.522 26.245 176.071 27.507 174.645 28.42C174.244 27.2922 173.56 26.0703 172.417 25.1842C169.305 22.8078 165.251 24.9828 164.084 25.6944C162.811 26.4866 162.222 27.2384 161.597 28.0306C161.078 28.7019 160.548 29.3867 159.464 30.2728C158.026 31.4409 157.201 31.6825 156.328 31.9376C155.515 32.1659 154.679 32.4076 153.535 33.334C149.787 36.3146 148.278 42.0073 146.687 48.049L146.534 48.6399C146.169 50.0765 145.839 51.3116 144.967 52.7617C144.224 53.9834 143.258 55.0575 142.114 55.9571C142.833 50.1436 142.81 46.3709 142.786 43.2829C142.762 39.3624 142.739 36.771 144.377 32.5552C145.344 30.0848 146.793 26.3523 150.152 23.7074C150.259 23.6268 150.353 23.5596 150.447 23.4925C150.447 23.4925 150.447 23.4925 150.459 23.4925C151.649 22.6198 152.557 22.3781 155.327 21.6397C156.541 21.3175 158.073 20.9147 160.124 20.3239ZM135.903 65.4493C133.734 59.3941 134.642 54.0237 136.445 43.3096C137.777 35.4284 138.461 31.8302 140.889 28.9033C142.374 27.1176 144.283 25.7213 146.487 24.7681C144.542 27.2385 143.47 29.9371 142.762 31.7496C140.959 36.3682 140.994 39.2817 141.018 43.3096C141.042 46.6795 141.077 50.882 140.087 57.7696L139.981 58.4947C139.663 60.6294 139.297 63.1804 139.297 66.4161C139.297 67.2217 139.321 68.0676 139.368 68.9537C139.439 70.0547 139.498 71.1019 139.604 72.1088C138.013 70.0815 136.775 67.8528 135.915 65.4361L135.903 65.4493ZM143.128 77.7746C141.525 75.4788 141.348 72.5518 141.124 68.8328C140.865 64.5901 141.336 61.4082 141.714 58.8438L141.749 58.5751C143.694 57.3668 145.261 55.8228 146.416 53.9297C147.453 52.2112 147.831 50.7611 148.22 49.2306L148.373 48.6533C149.94 42.719 151.296 37.5901 154.537 35.0123C155.421 34.3007 156.01 34.1395 156.765 33.9247C157.708 33.6562 158.78 33.3474 160.489 31.9511C161.727 30.9307 162.363 30.1251 162.917 29.4135C163.495 28.6616 163.919 28.1247 164.921 27.5071C165.875 26.9163 169.14 25.144 171.427 26.8894C172.063 27.3727 172.488 28.0306 172.782 28.7019C170.613 28.4333 167.632 28.5945 165.133 30.7292C164.32 31.4274 163.565 32.3807 162.835 33.6428C160.925 36.9456 160.737 39.6845 160.548 42.3429C160.407 44.2897 160.277 46.1292 159.452 48.1431C158.686 49.9825 157.955 50.5195 156.847 51.3117C155.692 52.1441 154.266 53.1779 152.427 55.9437C151.261 57.7159 147.783 62.9521 147.783 69.6383C147.783 69.88 147.783 70.1217 147.795 70.3634C147.96 74.7134 149.599 77.9492 152.062 81.4937C149.634 81.5474 145.438 81.1044 143.116 77.7881L143.128 77.7746ZM201.659 86.7165C200.468 87.9786 198.712 88.1262 198.205 88.1396C197.581 88.153 197.062 88.0456 196.52 87.9382C195.624 87.7502 194.681 87.5488 193.338 87.9382C193.302 87.9382 192.442 88.1934 191.582 88.7439C189.189 90.2476 188.116 93.1207 187.492 94.8393C187.362 95.1884 187.256 95.4838 187.15 95.712C186.254 97.6857 183.072 99.2967 179.041 99.8472C173.018 100.653 164.096 99.1222 158.792 92.1406C157.566 90.516 156.611 88.6365 155.869 86.5689C163.023 95.4436 170.012 97.5783 172.806 97.4172C173.383 97.3903 174.904 97.3097 176.342 96.155C177.65 95.1078 178.345 93.6578 178.734 92.3958C180.255 92.7717 183.06 93.067 185.865 91.3216C189.425 89.1063 190.568 85.2127 190.922 83.239C193.114 83.8298 197.923 84.6624 202.991 82.5544C202.991 83.7897 202.767 85.5619 201.647 86.73L201.659 86.7165ZM213.693 65.8925C213.457 66.0268 213.28 66.2684 213.221 66.5638C212.644 69.2759 211.017 74.3644 206.621 78.07C202.46 81.5876 197.852 82.0442 194.611 81.7891C196.331 80.9701 198.253 79.5604 199.797 77.1705C202.696 72.6862 202.283 67.7856 201.977 65.8656C203.285 64.6438 205.159 62.3883 206.02 58.9914C207.316 59.0586 209.202 58.8705 211.017 57.5682C213.351 55.9033 214.188 53.3525 214.694 51.8353C216.309 47.0019 215.225 42.4906 214.706 40.3156C213.834 36.6368 212.349 33.9918 211.536 32.7566C209.768 30.0579 208.129 28.8631 206.397 27.601C205.654 27.064 204.888 26.5001 204.087 25.8019C202.873 24.7413 201.906 23.6135 201.093 22.4588C203.533 22.6736 206.574 23.4791 209.485 25.7347C214.235 29.4001 215.862 34.8511 216.639 37.4692C217.747 41.2017 218.124 45.2833 217.724 49.2709C217.7 49.4991 217.747 49.7273 217.853 49.9153C218.478 51.07 219.857 54.1715 219.15 58.0382C218.219 63.1536 214.435 65.4629 213.693 65.8791L213.693 65.8925Z" fill="#DFD4CF" fill-opacity="0.05"/>
<path d="M253.33 46.4383C253.33 46.4383 253.33 46.3444 253.33 46.3041C253.294 44.5184 252.458 43.6456 251.762 43.216C250.572 42.4776 248.863 42.5447 247.708 43.3502C245.963 44.572 245.362 45.23 244.29 46.4249L244.195 46.5322C244.007 46.7471 243.806 46.9619 243.606 47.1901C242.722 48.1702 241.803 49.1907 241.213 49.6203C241.178 49.6203 241.131 49.6605 241.096 49.7008L241.049 49.7277L241.049 49.8217L241.049 49.9022L241.084 49.9291C241.084 49.9291 241.166 49.9961 241.202 50.0096C241.791 50.4392 242.71 51.4597 243.594 52.4398C243.795 52.6546 243.983 52.8828 244.184 53.0977L244.278 53.205C245.362 54.3999 245.952 55.0445 247.696 56.2797C248.851 57.0987 250.56 57.1523 251.75 56.4139C252.446 55.9843 253.283 55.0982 253.318 53.326C253.318 53.2857 253.318 53.2319 253.318 53.1916C253.318 50.9897 252.104 50.144 251.185 49.8083C252.104 49.4861 253.318 48.6268 253.318 46.4249L253.33 46.4383Z" fill="#DFD4CF" fill-opacity="0.05"/>
<path d="M110.644 52.641C111.693 51.6341 112.813 50.7076 113.98 49.8752L114.18 49.7409L113.98 49.5933C112.672 48.64 111.411 47.5659 110.244 46.4247C109.43 45.6191 108.641 44.7733 107.91 43.9006L107.804 43.7798L107.698 43.9006C106.696 45.0552 105.623 46.1561 104.504 47.163C103.561 48.0223 102.559 48.8414 101.533 49.5933L101.345 49.7275L101.533 49.8752C102.524 50.627 103.49 51.4461 104.41 52.3054C105.553 53.366 106.637 54.5206 107.662 55.729L107.768 55.8634L107.875 55.729C108.735 54.6414 109.666 53.6077 110.656 52.6545L110.644 52.641Z" fill="#DFD4CF" fill-opacity="0.05"/>
<path d="M108.299 157.728L245.716 157.728C246.317 166.307 252.623 173.074 260.308 173.074C267.992 173.074 274.004 166.603 274.852 158.319C281.594 158.278 288.194 157.204 294.488 155.11C304.601 151.753 313.323 146.53 320.371 139.75C321.974 140.502 323.624 140.959 325.298 141.066C333.466 141.59 339.135 134.058 340.196 132.54C345.452 124.995 346.065 113.287 341.61 105.312C340.868 103.969 339.807 102.466 338.557 101.11L338.557 83.8033C341.504 83.4005 343.79 80.5676 343.79 77.1171C343.79 73.3846 341.127 70.3502 337.85 70.3502C334.573 70.3502 331.91 73.3846 331.91 77.1171C331.91 80.4334 334.02 83.1857 336.789 83.763L336.789 99.4045C334.809 97.7531 332.57 96.7461 330.448 97.3637C328.892 97.8068 328.244 98.9077 327.066 100.895C326.535 101.781 325.875 102.895 324.944 104.305C324.461 105.044 320.006 111.636 313.924 116.859C311.602 118.846 309.068 120.618 306.357 122.108C306.345 122.108 306.333 122.122 306.322 122.135C303.905 122.994 302.137 125.532 302.137 128.566C302.137 132.299 304.801 135.333 308.078 135.333C311.354 135.333 314.018 132.299 314.018 128.566C314.018 125.599 312.321 123.102 309.987 122.189C311.732 121.047 313.417 119.812 314.985 118.47C319.287 114.764 322.799 110.414 324.744 107.796C325.557 112.549 325.97 117.933 324.991 120.645C324.803 121.155 324.473 122.095 323.695 122.511C323.164 122.793 322.08 122.941 321.455 122.175C321.314 121.987 321.196 121.773 321.125 121.544C321.279 121.585 321.432 121.611 321.585 121.611C322.646 121.611 323.506 120.631 323.506 119.423C323.506 118.215 322.646 117.235 321.585 117.235C321.031 117.235 320.536 117.503 320.194 117.933C320.171 117.96 320.147 117.973 320.123 118C320.088 118.053 320.065 118.107 320.029 118.147C320.006 118.188 319.982 118.228 319.959 118.255C319.487 119.034 319.239 119.933 319.239 120.806C319.239 121.799 319.546 122.779 320.147 123.518C321.337 124.981 323.2 124.968 324.426 124.324C325.84 123.585 326.394 122.054 326.629 121.383C328.15 117.154 326.783 108.857 326.182 105.755C326.252 105.648 326.311 105.554 326.347 105.5C327.301 104.05 327.973 102.922 328.515 102.009C329.659 100.076 330 99.5523 330.861 99.3106C333.996 98.4111 338.145 102.909 340.09 106.386C344.156 113.677 343.59 124.391 338.781 131.292C337.827 132.675 332.676 139.522 325.369 139.052C324.178 138.972 323.011 138.703 321.856 138.247C325.958 134.017 329.446 129.211 332.24 123.894C334.267 120.041 335.929 115.905 337.19 111.595C337.391 110.897 337.06 110.132 336.448 109.904C335.835 109.676 335.163 110.052 334.962 110.75C333.76 114.872 332.169 118.832 330.236 122.511C322.775 136.716 310.188 147.094 293.816 152.532C287.758 154.546 281.405 155.58 274.911 155.633C274.558 146.786 268.146 139.71 260.296 139.71C252.446 139.71 246.317 146.477 245.705 155.056L108.287 155.056C107.686 146.49 101.381 139.71 93.696 139.71C86.0114 139.71 79.4579 146.759 79.0808 155.58C72.5865 155.526 66.2221 154.492 60.1639 152.478C43.7927 147.041 31.2047 136.662 23.744 122.457C21.811 118.765 20.2198 114.818 19.0176 110.696C18.8173 109.998 18.1454 109.608 17.5325 109.85C17.0375 110.038 16.7311 110.562 16.7311 111.126C16.7311 111.26 16.7548 111.408 16.7901 111.555C18.0513 115.865 19.7131 120 21.7403 123.854C24.5337 129.17 28.0225 133.977 32.1242 138.206C30.9691 138.649 29.8023 138.931 28.6119 139.012C21.3161 139.482 16.1653 132.634 15.1989 131.251C10.39 124.337 9.82443 113.636 13.8907 106.346C15.8355 102.855 19.9841 98.3573 23.1192 99.2703C23.9914 99.5254 24.3214 100.036 25.4765 101.969C26.0187 102.882 26.6906 104.01 27.6453 105.46C27.6807 105.513 27.7395 105.607 27.8102 105.715C27.4095 107.783 26.6787 112.146 26.6787 116.093C26.6787 118.067 26.8674 119.933 27.3625 121.343C27.5982 122.001 28.1523 123.531 29.5666 124.27C30.7924 124.914 32.6545 124.928 33.8449 123.464C34.9764 122.068 35.0352 119.853 34.0216 118.201C33.998 118.161 33.9747 118.121 33.9511 118.08C33.9158 118.027 33.8921 117.973 33.8567 117.933C33.8332 117.906 33.8095 117.892 33.7859 117.866C33.4324 117.436 32.9374 117.167 32.3952 117.167C31.3345 117.167 30.4739 118.147 30.4739 119.356C30.4739 120.564 31.3345 121.544 32.3952 121.544C32.5602 121.544 32.7133 121.518 32.8666 121.477C32.7959 121.705 32.6898 121.934 32.5365 122.108C31.9119 122.874 30.8276 122.726 30.2972 122.444C29.5193 122.041 29.1774 121.088 29.0006 120.578C28.0341 117.866 28.4469 112.482 29.2484 107.729C31.1931 110.347 34.7052 114.71 39.0072 118.403C40.5748 119.759 42.2605 120.994 44.0049 122.122C41.6712 123.035 39.9738 125.532 39.9738 128.499C39.9738 132.232 42.6375 135.266 45.9142 135.266C49.1907 135.266 51.8545 132.232 51.8545 128.499C51.8545 125.465 50.0747 122.914 47.6585 122.068C47.6585 122.068 47.6467 122.054 47.6349 122.041C44.9358 120.551 42.3901 118.779 40.08 116.792C33.9982 111.569 29.5428 104.976 29.0596 104.238C28.1285 102.828 27.4684 101.727 26.938 100.828C25.7594 98.8407 25.1113 97.7531 23.5555 97.2967C21.4457 96.6925 19.2062 97.6995 17.2143 99.3375L17.2143 83.6959C19.9841 83.1186 22.094 80.3661 22.094 77.0499C22.094 73.3174 19.4302 70.2832 16.1536 70.2832C12.877 70.2832 10.2133 73.3174 10.2133 77.0499C10.2133 80.5138 12.5115 83.3333 15.4463 83.7361L15.4463 101.042C14.2088 102.398 13.1482 103.902 12.3939 105.245C10.4019 108.816 9.42367 113.139 9.42367 117.503C9.42367 122.873 10.9087 128.311 13.8081 132.487C14.8571 134.004 20.538 141.536 28.706 141.012C30.3796 140.905 32.0299 140.448 33.6329 139.696C40.6811 146.49 49.403 151.7 59.5156 155.056C65.8095 157.151 72.4098 158.211 79.1634 158.265C79.9884 166.589 86.1881 173.074 93.7078 173.074C101.228 173.074 107.686 166.307 108.299 157.728ZM333.666 77.1036C333.666 74.4855 335.54 72.3507 337.838 72.3507C340.137 72.3507 342.011 74.4855 342.011 77.1036C342.011 79.7218 340.137 81.8566 337.838 81.8566C335.54 81.8566 333.666 79.7218 333.666 77.1036ZM312.25 128.553C312.25 131.171 310.376 133.306 308.078 133.306C305.779 133.306 303.905 131.171 303.905 128.553C303.905 125.935 305.779 123.8 308.078 123.8C310.376 123.8 312.25 125.935 312.25 128.553ZM50.0984 128.499C50.0984 131.117 48.2243 133.252 45.9259 133.252C43.6276 133.252 41.7535 131.117 41.7535 128.499C41.7535 125.881 43.6276 123.746 45.9259 123.746C48.2243 123.746 50.0984 125.881 50.0984 128.499ZM11.9812 77.0633C11.9812 74.4452 13.8553 72.3106 16.1536 72.3106C18.452 72.3106 20.326 74.4452 20.326 77.0633C20.326 79.6814 18.452 81.8162 16.1536 81.8162C13.8553 81.8162 11.9812 79.6814 11.9812 77.0633ZM260.296 142.395C267.073 142.395 272.589 148.679 272.589 156.399C272.589 164.119 267.073 170.402 260.296 170.402C253.519 170.402 248.003 164.119 248.003 156.399C248.003 148.679 253.519 142.395 260.296 142.395ZM81.4148 156.385C81.4148 148.665 86.9307 142.382 93.7078 142.382C100.485 142.382 106.001 148.665 106.001 156.385C106.001 164.105 100.485 170.389 93.7078 170.389C86.9307 170.389 81.4148 164.105 81.4148 156.385Z" fill="#DFD4CF" fill-opacity="0.05"/>
<path d="M315.892 21.0359C312.91 18.928 309.48 19.4247 307.194 20.1766C306.074 18.4446 304.295 16.4575 301.725 15.8131C296.586 14.5242 291.365 19.5187 289.491 24.8892C288.925 26.4869 288.642 28.219 288.642 30.0181C288.642 30.0449 288.642 30.0717 288.642 30.0986C287.923 30.7699 287.216 31.5621 286.58 32.5422C285.837 33.67 285.319 34.8515 284.93 36.033C284.281 34.9723 283.504 34.0459 282.608 33.3074C278.954 30.3 274.746 31.1995 273.532 31.5485C273.191 31.6425 272.955 31.9916 272.955 32.3944C272.955 32.3944 272.955 32.4078 272.955 32.4213C272.955 32.8241 273.226 33.1731 273.579 33.2537C275.253 33.6162 277.752 34.5292 280.062 36.852C281.912 38.7048 282.985 40.7992 283.621 42.5312L277.881 43.7665C277.599 43.8202 277.375 44.0618 277.292 44.3706C277.21 44.6794 277.292 45.0151 277.492 45.2433L280.309 48.3581L272.389 48.3581C271.964 48.3581 271.623 48.7475 271.623 49.2309C271.623 49.7142 271.964 50.1036 272.389 50.1036L280.227 50.1036L277.386 53.0976C277.221 53.2587 277.139 53.5004 277.139 53.7421C277.139 53.836 277.151 53.9167 277.174 54.0107C277.268 54.3329 277.516 54.5745 277.811 54.6148L283.751 55.4741C283.138 57.2598 282.054 59.5154 280.074 61.5024C277.752 63.8386 275.265 64.7516 273.591 65.1007C273.237 65.1813 272.978 65.5169 272.966 65.9331C272.966 65.9331 272.966 65.9464 272.966 65.9599C272.966 66.3626 273.202 66.7117 273.544 66.8057C274.746 67.1548 278.966 68.0544 282.62 65.047C283.504 64.322 284.281 63.3955 284.93 62.3483C285.236 63.7446 285.719 65.0738 286.568 66.403C287.322 67.598 288.289 68.6182 289.385 69.4775C289.55 71.8808 290.269 76.0028 293.168 79.3593C293.404 79.6413 299.061 86.0858 304.224 83.3469C306.086 82.3668 307.194 80.5542 307.83 79.0102C309.056 79.3056 310.4 79.413 311.838 79.1445C312.097 79.0908 318.332 77.869 319.911 71.948C320.465 69.8804 320.253 67.947 319.9 66.5104C320.772 65.9465 321.573 65.208 322.21 64.295C324.249 61.3413 323.954 57.864 323.73 56.5214C324.614 55.2727 326.783 51.6073 325.993 47.029C325.604 44.7465 324.614 43.0415 323.754 41.9271C324.591 38.1678 323.282 34.2339 320.513 32.0051C320.501 30.2463 320.124 24.0165 315.916 21.0359L315.892 21.0359ZM290.917 25.5336C292.567 20.8076 297.176 16.4576 301.395 17.5182C303.304 18.0016 304.707 19.4114 305.662 20.7809C304.177 21.4656 303.246 22.3115 302.35 23.1305C301.23 24.1508 300.181 25.104 297.989 25.9096C296.952 26.2855 296.362 26.3661 295.773 26.4467C295.089 26.5407 294.382 26.648 293.156 27.185C292.555 27.4535 291.471 27.937 290.233 28.7963C290.328 27.655 290.552 26.554 290.917 25.5336ZM293.71 28.8097C294.759 28.3398 295.325 28.2593 295.973 28.1653C296.598 28.0713 297.293 27.9772 298.46 27.5476C300.924 26.648 302.196 25.4935 303.316 24.4731C304.247 23.6272 305.12 22.835 306.616 22.204C308.514 21.4252 312.121 20.4182 315.079 22.4993C318.073 24.6072 318.757 28.7828 318.91 30.9713C316.046 29.6153 312.745 30.2328 310.365 32.5958C306.251 31.844 300.829 32.3138 296.091 34.0727C290.882 36.006 287.193 39.188 285.531 43.1353C285.484 40.289 285.79 36.6774 287.817 33.5759C289.821 30.5147 292.65 29.2662 293.722 28.7963L293.71 28.8097ZM321.031 45.3373C320.784 47.029 319.947 48.1836 319.251 48.8952C319.216 48.6401 319.204 48.3851 319.145 48.1434C318.886 46.8545 318.414 45.6596 317.754 44.572C318.191 43.216 318.627 41.0274 317.99 38.7584C318.698 39.1478 319.487 39.7788 320.1 40.8126C320.489 41.4437 321.337 43.1622 321.019 45.3507L321.031 45.3373ZM319.558 59.314C318.874 59.8644 318.155 60.0658 317.542 60.1195C319.275 57.3 319.393 53.017 319.381 51.3925C319.994 51.8624 320.854 52.7351 321.184 54.1315C321.644 56.0514 320.984 58.1727 319.558 59.3005L319.558 59.314ZM286.085 49.1101C286.155 47.7406 286.556 44.666 288.642 43.0414C289.738 42.1956 291.742 41.4705 295.089 42.7862C299.415 44.4914 301.666 48.9893 303.859 53.3394C306.063 57.7163 308.149 61.8514 312.144 62.6033C313.37 62.8316 314.313 62.6437 314.973 62.3886C314.773 62.9928 314.502 63.5163 314.136 63.9325C312.816 65.4631 310.624 65.4498 307.3 64.9262C298.331 63.5164 293.828 62.8048 290.646 59.1797C288.383 56.6019 286.815 53.1245 286.085 49.1101ZM314.796 60.6163C314.136 60.9653 313.288 61.0594 312.38 60.8983C309.103 60.2941 307.276 56.6825 305.178 52.4935C304.955 52.0505 304.719 51.5805 304.483 51.124L306.652 51.124C306.793 52.1444 307.064 52.9634 307.276 53.487C307.618 54.3195 308.927 57.0986 311.708 58.0653C312.168 58.2264 313.111 58.5621 314.219 58.3608C315.385 58.1459 316.47 57.3806 317.366 56.1857C316.965 58.0251 316.211 59.8644 314.796 60.6163ZM313.476 42.7461C314.219 42.8669 314.832 43.3368 315.327 43.8604C314.667 43.9947 313.936 44.2766 313.24 44.8674C311.225 46.5725 310.942 49.6202 311.52 51.7281C312.062 53.7421 313.075 55.0311 314.36 55.3667C314.902 55.5144 315.456 55.4875 316.01 55.313C315.397 56.038 314.702 56.5079 313.971 56.6422C313.217 56.7764 312.522 56.5347 312.144 56.4139C309.976 55.662 308.926 53.4333 308.655 52.762C308.349 52.0101 307.866 50.4662 308.16 48.6536C308.632 45.6596 311.107 42.3702 313.476 42.7595L313.476 42.7461ZM317.743 50.2513C317.743 50.2513 317.813 50.3184 317.837 50.3586C317.837 50.4929 317.837 50.6138 317.837 50.748C317.837 50.748 317.813 50.7481 317.802 50.7749C316.87 51.6476 315.951 51.6745 315.786 51.4866C315.692 51.3926 315.609 50.9092 315.774 50.305C315.916 49.7546 316.211 49.3249 316.493 49.2712C316.824 49.2041 317.378 49.5531 317.743 50.2782L317.743 50.2513ZM316.211 47.5392C315.338 47.7271 314.631 48.5731 314.313 49.7948C314.219 50.1573 314.16 50.5601 314.16 50.9629C314.16 51.6208 314.313 52.2652 314.737 52.7351C315.114 53.1513 315.657 53.3259 316.258 53.2991C315.727 53.6481 315.173 53.7824 314.726 53.6616C313.995 53.4736 313.382 52.6008 313.005 51.2045C312.569 49.6068 312.828 47.405 314.183 46.2637C314.985 45.5924 315.881 45.485 316.505 45.5118C316.918 46.1965 317.248 46.9216 317.472 47.7003C317.059 47.5123 316.635 47.4452 316.234 47.5392L316.211 47.5392ZM315.244 38.9733C316.187 39.8862 316.387 41.3901 316.364 42.585C315.692 41.86 314.808 41.202 313.7 41.0275C310.412 40.477 307.265 44.4242 306.652 48.3313C306.593 48.6938 306.569 49.0295 306.557 49.3651L304.554 49.3651C305.98 44.9479 308.95 38.5034 312.533 38.1812C312.957 38.1409 314.266 38.0334 315.232 38.9598L315.244 38.9733ZM315.291 36.9728C314.478 36.5431 313.523 36.3551 312.427 36.4491C307.571 36.8653 304.389 44.9344 303.163 48.6669C301.336 45.4849 299.061 42.5178 295.585 41.1483C292.331 39.8594 290.092 40.2891 288.63 41.0678C290.434 38.8391 293.133 37.013 296.574 35.7375C303.08 33.3342 311.201 33.4283 314.301 35.9658C314.69 36.288 315.02 36.6237 315.303 36.9728L315.291 36.9728ZM281.075 35.5631C279.944 34.4353 278.789 33.6028 277.681 32.9852C278.954 33.1598 280.38 33.643 281.712 34.7305C282.808 35.6301 283.727 36.8788 284.364 38.3154C284.27 38.8122 284.199 39.3089 284.14 39.8057C283.421 38.3959 282.443 36.9191 281.075 35.5497L281.075 35.5631ZM279.626 53.1245L282.702 49.8887C282.702 49.8887 282.702 49.8887 282.702 49.8753C282.749 49.8216 282.796 49.7544 282.832 49.6739C282.843 49.647 282.867 49.6203 282.879 49.5934C282.902 49.5263 282.914 49.4591 282.926 49.3785C282.926 49.3383 282.95 49.298 282.95 49.2578C282.95 49.0161 282.855 48.8013 282.714 48.6402L279.614 45.203L284.022 44.2498C284.046 44.7734 284.069 45.2567 284.093 45.6998C284.164 46.8813 284.305 48.0628 284.529 49.2174C284.305 50.7346 284.199 52.2652 284.163 53.7824L279.626 53.1245ZM284.411 59.945C283.775 61.4353 282.843 62.7107 281.712 63.6372C280.38 64.7247 278.954 65.2081 277.681 65.3826C278.789 64.765 279.956 63.9325 281.075 62.8047C282.561 61.3144 283.598 59.6765 284.329 58.1593C284.387 58.7232 284.446 59.2602 284.505 59.7973C284.47 59.851 284.435 59.8912 284.411 59.945ZM303.552 81.7625C299.356 83.9778 294.276 78.1912 294.229 78.1375C292.119 75.6939 291.318 72.7536 291.011 70.592C291.129 70.6591 291.247 70.7397 291.365 70.8069C292.685 71.4647 293.545 71.5586 294.382 71.6525C295.031 71.7197 295.714 71.8002 296.704 72.1627C298.248 72.7401 298.932 73.4115 299.816 74.2708C300.535 74.9689 301.348 75.7745 302.75 76.6607C303.611 77.2111 304.825 77.9763 306.298 78.5402C305.756 79.7351 304.896 81.0509 303.552 81.7625ZM318.426 71.4513C317.118 76.3384 311.626 77.4124 311.567 77.4259C308.125 78.0703 305.108 76.1504 303.493 75.13C302.232 74.3245 301.501 73.6263 300.806 72.9416C299.875 72.042 299.002 71.1826 297.176 70.4979C296.02 70.0683 295.231 69.9878 294.524 69.9072C293.746 69.8267 293.074 69.7461 291.978 69.1956C290.257 68.3363 288.807 67.0206 287.782 65.3961C286.367 63.1673 286.144 60.9653 285.837 57.9041C285.696 56.4944 285.637 55.0713 285.672 53.6481C286.591 56.2528 287.9 58.562 289.538 60.4283C293.086 64.4696 297.765 65.208 307.064 66.6715C308.88 66.9534 310.635 67.1414 312.168 66.846C312.262 67.034 312.404 67.1818 312.592 67.2489C314.572 68.0142 316.623 67.947 318.45 67.2489C318.709 68.4035 318.839 69.8938 318.415 71.4513L318.426 71.4513ZM320.984 63.221C319.476 65.4095 316.93 66.4163 314.372 65.9464C314.667 65.7316 314.961 65.4766 315.22 65.1678C315.963 64.3219 316.434 63.1942 316.682 61.865C317.648 61.9455 319.086 61.8246 320.43 60.7505C321.267 60.0792 321.903 59.1394 322.316 58.0921C322.375 59.475 322.186 61.4622 320.972 63.221L320.984 63.221ZM324.461 47.3646C325.05 50.7749 323.671 53.5944 322.823 54.937C322.799 54.5074 322.752 54.0912 322.646 53.675C322.21 51.8759 321.196 50.7346 320.371 50.0633C321.243 49.1503 322.222 47.7004 322.528 45.6328C322.669 44.6795 322.634 43.8202 322.528 43.0414C323.259 43.9813 324.119 45.4178 324.461 47.3646ZM322.198 41.6182C321.927 40.7858 321.597 40.1548 321.373 39.8057C319.959 37.4829 317.884 36.7311 316.941 36.5029C316.493 35.845 315.916 35.1469 315.185 34.5562C314.454 33.952 313.488 33.482 312.356 33.1195C314.478 31.6829 317.153 31.6426 319.31 33.1867C321.809 34.9723 322.964 38.4093 322.198 41.6316L322.198 41.6182Z" fill="#DFD4CF" fill-opacity="0.05"/>
<path d="M39.8439 78.5803C42.8259 80.6882 46.2555 80.1915 48.5421 79.4396C49.6618 81.1716 51.4417 83.1587 54.0111 83.8031C59.15 85.092 64.3712 80.0975 66.2452 74.727C66.811 73.1024 67.082 71.3436 67.082 69.5176C67.801 68.8463 68.5081 68.0408 69.1446 67.0607C69.8871 65.9329 70.4177 64.7649 70.8067 63.5834C71.4549 64.6306 72.2328 65.5703 73.1285 66.2953C76.7823 69.3028 81.0018 68.4033 82.204 68.0542C82.5576 67.9602 82.7933 67.5843 82.7815 67.1815C82.7815 66.7787 82.5104 66.4296 82.1568 66.3491C80.4831 65.9866 77.9844 65.0737 75.6743 62.7509C73.8238 60.8981 72.7512 58.8035 72.1148 57.0715L77.8549 55.8364C78.1377 55.7827 78.3617 55.5409 78.4442 55.2321C78.5267 54.9233 78.444 54.5878 78.2436 54.3596L75.4386 51.2446L83.359 51.2446C83.7833 51.2446 84.125 50.8552 84.125 50.3719C84.125 49.8885 83.7833 49.4991 83.359 49.4991L75.5212 49.4991L78.3616 46.5051C78.5855 46.2769 78.6562 45.9145 78.5737 45.5922C78.4794 45.27 78.2318 45.0282 77.9372 44.988L71.9971 44.1287C72.61 42.343 73.6942 40.0874 75.6743 38.1003C77.9962 35.7776 80.4831 34.8513 82.1568 34.5022C82.5104 34.4216 82.7697 34.086 82.7815 33.6698C82.8051 33.2536 82.5576 32.891 82.204 32.797C81.0018 32.448 76.7941 31.5485 73.1285 34.5559C72.2446 35.281 71.4667 36.2072 70.8185 37.2545C70.512 35.8581 70.0286 34.5291 69.18 33.1999C68.4257 32.005 67.4593 30.9845 66.3632 30.1252C66.1982 27.722 65.479 23.6001 62.5795 20.2436C62.3438 19.9616 56.6865 13.5171 51.5241 16.256C49.6618 17.2362 48.5538 19.0487 47.9174 20.5927C46.6916 20.2973 45.3363 20.1899 43.8983 20.4585C43.639 20.5122 37.404 21.7473 35.8246 27.6414C35.5771 28.5544 35.4827 29.4405 35.4827 30.2729C35.4827 31.3202 35.636 32.2868 35.8364 33.0789C34.9642 33.6428 34.1628 34.3813 33.5263 35.2943C31.4873 38.2346 31.7937 41.7121 32.0058 43.0681C31.2515 44.1288 29.5778 46.9348 29.5778 50.5733C29.5778 51.2178 29.6251 51.8756 29.7429 52.5603C30.1319 54.8428 31.1218 56.5614 31.9822 57.6624C31.1572 61.4083 32.4537 65.3556 35.2235 67.5843C35.2235 69.4237 35.589 75.5594 39.8203 78.5534L39.8439 78.5803ZM64.8191 74.0826C63.169 78.8086 58.5604 83.1586 54.3409 82.098C52.4315 81.6146 51.0291 80.205 50.0744 78.8355C51.5595 78.1507 52.4906 77.3049 53.3864 76.4859C54.5061 75.4655 55.555 74.5122 57.7473 73.72C58.7845 73.3441 59.3737 73.2635 59.963 73.1695C60.6466 73.0755 61.3537 72.9682 62.5795 72.4312C63.1688 72.1626 64.2652 71.6792 65.5028 70.8199C65.4085 71.9477 65.1845 73.0622 64.8191 74.0826ZM62.0256 70.8067C60.9766 71.2766 60.411 71.3571 59.7627 71.4511C59.138 71.5451 58.4425 71.639 57.2757 72.0686C54.8123 72.9682 53.5396 74.1229 52.4198 75.1433C51.4887 75.9891 50.6165 76.7812 49.1196 77.4122C47.222 78.2044 43.6155 79.1979 40.6571 77.1169C37.6869 75.009 36.9798 70.8468 36.8265 68.6583C39.6906 70.0144 42.9908 69.3968 45.3716 67.0338C49.4851 67.7857 54.9066 67.3158 59.6447 65.557C64.8543 63.6236 68.5437 60.4416 70.2055 56.4943C70.2527 59.3406 69.946 62.9523 67.9188 66.0537C65.9033 69.1149 63.0864 70.3634 62.0138 70.8334L62.0256 70.8067ZM34.7049 54.2789C34.9525 52.6007 35.7775 51.446 36.4729 50.7344C36.5082 50.9761 36.5319 51.2312 36.5909 51.4729C36.8502 52.7484 37.3333 53.9701 37.9934 55.0576C37.6162 56.2122 37.4159 57.3804 37.4159 58.4813C37.4159 59.3138 37.5455 60.1059 37.7577 60.8712C37.0505 60.4819 36.2608 59.8508 35.6243 58.817C35.2354 58.186 34.3749 56.4674 34.7049 54.2789ZM36.1782 40.3022C36.8618 39.7518 37.5926 39.5504 38.2054 39.4967C36.5318 42.2356 36.3549 46.3575 36.3549 47.9149C36.3549 48.0358 36.3549 48.1297 36.3549 48.2103C35.742 47.7404 34.8819 46.8676 34.5519 45.4713C34.0922 43.5513 34.7521 41.43 36.1782 40.2888L36.1782 40.3022ZM69.6631 50.5061C69.5924 51.8756 69.18 54.9636 67.1056 56.5748C66.0095 57.4206 64.0058 58.1457 60.6585 56.8299C56.3329 55.1248 54.0818 50.6271 51.8895 46.277C49.6855 41.9 47.5993 37.7647 43.6037 37.0129C42.3779 36.7846 41.4351 36.9726 40.7633 37.2277C40.9636 36.6236 41.2347 36.0999 41.6001 35.6837C42.9201 34.1531 45.1122 34.1666 48.4359 34.6902C57.4053 36.0999 61.9079 36.8114 65.0902 40.4365C67.3531 43.0143 68.9206 46.4917 69.6513 50.5061L69.6631 50.5061ZM40.94 39.0134C41.5882 38.6643 42.4487 38.5704 43.3562 38.7315C46.6328 39.3356 48.4595 42.9607 50.5575 47.1363C50.7815 47.5793 51.0173 48.0491 51.253 48.5056L49.0842 48.5056C48.9428 47.4852 48.6717 46.6662 48.4595 46.1426C48.0234 45.0819 46.7269 42.5042 44.0278 41.5644C43.5682 41.4033 42.6254 41.0809 41.5175 41.2823C40.3388 41.4971 39.2546 42.2759 38.3588 43.4708C38.7596 41.618 39.5256 39.7787 40.94 39.0268L40.94 39.0134ZM42.2599 56.8703C41.5173 56.7494 40.9047 56.2794 40.4096 55.7558C41.0697 55.6215 41.8004 55.3261 42.4958 54.7488C44.4995 53.0437 44.7941 49.996 44.2166 47.8881C43.5094 45.3102 42.2835 44.4913 41.3759 44.2496C40.8337 44.1019 40.2681 44.1287 39.7259 44.3032C40.3388 43.5782 41.0342 43.1083 41.7649 42.974C42.5193 42.8398 43.2147 43.0815 43.5919 43.2023C45.7606 43.9542 46.8095 46.1829 47.0806 46.8542C47.387 47.6195 47.8584 49.1636 47.5755 50.9627C47.1041 53.9567 44.6289 57.2462 42.2599 56.8434L42.2599 56.8703ZM37.9934 49.3649C37.9934 49.3649 37.9226 49.2978 37.899 49.2576C37.899 49.1233 37.899 49.0024 37.899 48.8681C37.899 48.8681 37.9226 48.8681 37.9344 48.8413C38.8655 47.9686 39.773 47.9418 39.9498 48.1298C39.997 48.1835 40.056 48.3849 40.056 48.6534C40.056 48.8414 40.0323 49.0696 39.9616 49.3113C39.8202 49.8618 39.5257 50.2913 39.2546 50.345C38.9246 50.4121 38.3705 50.063 37.9934 49.338L37.9934 49.3649ZM39.5257 52.0905C40.3978 51.9025 41.1049 51.0566 41.4231 49.8348C41.6588 48.9084 41.6826 47.6464 40.9989 46.8945C40.6218 46.4783 40.0796 46.3037 39.4785 46.3306C40.0089 45.9815 40.5629 45.8474 41.0107 45.9682C41.7415 46.1562 42.3543 47.0288 42.7315 48.4251C43.1676 50.0229 42.9083 52.2247 41.5529 53.3659C40.7396 54.0506 39.8085 54.1447 39.231 54.1178C38.8303 53.4465 38.4884 52.7081 38.2644 51.9428C38.677 52.1308 39.1013 52.1979 39.5021 52.1039L39.5257 52.0905ZM40.4919 60.6429C39.549 59.73 39.3487 58.2263 39.3723 57.0314C40.0441 57.7564 40.9281 58.4141 42.036 58.5887C45.3244 59.1392 48.4713 55.1919 49.0842 51.2849C49.1432 50.9224 49.1668 50.5867 49.1786 50.2511L51.1822 50.2511C49.7561 54.6683 46.7859 61.1128 43.2028 61.435C42.7785 61.4753 41.4702 61.5828 40.5037 60.6564L40.4919 60.6429ZM40.4568 62.6434C41.2701 63.0731 42.2247 63.261 43.3208 63.1671C48.1768 62.7509 51.359 54.6817 52.5847 50.9493C54.4116 54.1313 56.6866 57.0984 60.1636 58.4679C63.4166 59.7568 65.6559 59.3273 67.1174 58.5485C65.3141 60.7773 62.615 62.6032 59.1734 63.8787C52.6673 66.282 44.5465 66.1879 41.4467 63.6504C41.0577 63.3282 40.7279 62.9925 40.4568 62.6569L40.4568 62.6434ZM74.6605 64.0532C75.792 65.181 76.9472 66.0134 78.0551 66.631C76.7822 66.4564 75.3562 65.9732 74.0243 64.8857C72.9164 63.9727 72.0324 62.7643 71.3842 61.3008C71.4785 60.804 71.5491 60.2939 71.6081 59.8105C72.327 61.2068 73.3051 62.6838 74.6605 64.0532ZM76.1105 46.4917L73.0342 49.7274C72.987 49.7811 72.9397 49.8617 72.9044 49.9289C72.8926 49.9557 72.8693 49.9825 72.8575 50.0093C72.8339 50.0765 72.8221 50.1436 72.8103 50.2242C72.8103 50.2645 72.7867 50.3047 72.7867 50.345C72.7867 50.5867 72.8809 50.8016 73.0224 50.9627L76.1223 54.3997L71.7139 55.3531C71.6904 54.8295 71.667 54.346 71.6434 53.903C71.5727 52.7215 71.4312 51.54 71.2072 50.3853C71.4312 48.8682 71.5491 47.3375 71.5845 45.8204L76.1105 46.4782L76.1105 46.4917ZM71.3252 39.6712C71.9734 38.1541 72.881 36.9189 74.0243 35.979C75.3562 34.8915 76.7822 34.3947 78.0551 34.2336C76.9472 34.8512 75.7802 35.6837 74.6605 36.8115C73.1637 38.3018 72.1385 39.9397 71.4078 41.4569C71.3488 40.893 71.2897 40.356 71.2308 39.8189C71.2662 39.7652 71.3016 39.7249 71.3252 39.6712ZM52.1842 17.8671C56.3801 15.6384 61.4599 21.4384 61.5071 21.4921C63.6168 23.9357 64.4183 26.876 64.7247 29.0376C64.6069 28.9705 64.4889 28.8901 64.3711 28.8229C63.051 28.1651 62.1908 28.0711 61.354 27.9771C60.7057 27.91 60.0222 27.8294 59.0321 27.4669C57.4881 26.8896 56.8043 26.2182 55.9204 25.3589C55.2014 24.6607 54.3881 23.8553 52.9856 22.9691C52.1252 22.4187 50.9112 21.6533 49.4379 21.0894C49.98 19.8945 50.8405 18.5787 52.1842 17.8671ZM37.3097 28.1651C38.6062 23.2914 44.1105 22.2037 44.1576 22.1903C47.5992 21.5459 50.6166 23.4659 52.2314 24.4863C53.4925 25.2919 54.223 25.9899 54.9184 26.6746C55.8495 27.5876 56.7218 28.4335 58.5487 29.1183C59.7038 29.5479 60.4934 29.6284 61.2006 29.709C61.9785 29.7895 62.6505 29.8701 63.7467 30.4206C65.4675 31.2799 66.917 32.5957 67.9424 34.2203C69.3567 36.449 69.5808 38.6509 69.8873 41.712C70.0287 43.1218 70.0875 44.545 70.0522 45.9682C69.1211 43.3635 67.8245 41.0541 66.1862 39.1745C62.6385 35.1332 57.9595 34.3947 48.6483 32.9313C46.8332 32.6493 45.0769 32.4613 43.5447 32.7567C43.4504 32.5688 43.3089 32.4212 43.1321 32.354C41.152 31.6022 39.1012 31.6559 37.2743 32.354C37.015 31.1994 36.8972 29.7091 37.3097 28.1516L37.3097 28.1651ZM34.7521 36.3953C36.2608 34.2069 38.8065 33.1999 41.3641 33.6698C41.0694 33.8846 40.7748 34.1396 40.5155 34.4484C39.773 35.3077 39.3015 36.422 39.054 37.7512C38.0876 37.6707 36.6497 37.7916 35.3061 38.8657C34.4692 39.537 33.8326 40.4634 33.4201 41.5106C33.3612 40.1277 33.5499 38.1407 34.7639 36.3953L34.7521 36.3953ZM31.2752 52.2516C30.6859 48.8413 32.053 46.0218 32.9134 44.6792C32.937 45.1088 32.9843 45.5251 33.0904 45.9548C33.5265 47.7539 34.54 48.895 35.365 49.5663C34.4929 50.4793 33.5145 51.9294 33.1963 53.997C33.1255 54.4401 33.1022 54.8697 33.1022 55.2725C33.1022 55.7424 33.1491 56.172 33.208 56.5882C32.4773 55.6484 31.617 54.2252 31.2752 52.265L31.2752 52.2516ZM33.5381 57.998C33.8092 58.8304 34.1391 59.4614 34.3631 59.8105C35.7774 62.1332 37.8519 62.8851 38.8066 63.1133C39.2309 63.7443 39.7966 64.4426 40.5627 65.0602C41.2935 65.6644 42.2601 66.1342 43.3916 66.4967C41.2701 67.9333 38.5944 67.9737 36.4375 66.4297C33.9388 64.644 32.7838 61.2203 33.5499 57.9846L33.5381 57.998Z" fill="#DFD4CF" fill-opacity="0.05"/>
<path d="M336.141 23.1036C336.141 24.3567 337.033 25.3725 338.133 25.3725C339.233 25.3725 340.125 24.3567 340.125 23.1036C340.125 21.8504 339.233 20.8345 338.133 20.8345C337.033 20.8345 336.141 21.8504 336.141 23.1036Z" fill="#DFD4CF" fill-opacity="0.05"/>
<path d="M335.847 77.1034C335.847 78.3566 336.738 79.3724 337.838 79.3724C338.939 79.3724 339.831 78.3566 339.831 77.1034C339.831 75.8503 338.939 74.8345 337.838 74.8345C336.738 74.8345 335.847 75.8503 335.847 77.1034Z" fill="#DFD4CF" fill-opacity="0.05"/>
<path d="M21.8112 23.0499C21.8112 19.7336 19.7013 16.9813 16.9315 16.404L16.9315 0.76242C18.9116 2.41384 21.1512 3.42084 23.2727 2.80323C24.8285 2.36017 25.4767 1.25921 26.6553 -0.72786C27.1857 -1.61399 27.8458 -2.7284 28.7769 -4.12473C29.2601 -4.86317 33.7155 -11.4554 39.7972 -16.6782C42.1074 -18.6653 44.6531 -20.4376 47.3522 -21.9279C47.3522 -21.9279 47.364 -21.9413 47.3758 -21.9547C49.792 -22.814 51.5718 -25.3515 51.5718 -28.3858C51.5718 -32.1182 48.908 -35.1526 45.6314 -35.1526C42.3548 -35.1526 39.691 -32.1182 39.691 -28.3858C39.691 -25.4186 41.3882 -22.9213 43.7219 -22.0083C41.9657 -20.8671 40.2921 -19.632 38.7245 -18.2894C34.4225 -14.5838 30.9104 -10.2336 28.9656 -7.6155C28.1524 -12.3684 27.7396 -17.7524 28.7179 -20.4645C28.8947 -20.9746 29.2366 -21.9145 30.0145 -22.3307C30.5449 -22.6127 31.6291 -22.7603 32.2538 -21.9951C32.3952 -21.8071 32.5131 -21.5921 32.5838 -21.3639C32.4306 -21.4042 32.2775 -21.4311 32.1125 -21.4311C31.0517 -21.4311 30.1912 -20.451 30.1912 -19.2426C30.1912 -18.0343 31.0517 -17.0541 32.1125 -17.0541C32.6665 -17.0541 33.1496 -17.3227 33.5032 -17.7389C33.5268 -17.7657 33.5504 -17.7791 33.574 -17.8059C33.6094 -17.8596 33.633 -17.9135 33.6684 -17.9672C33.692 -18.0075 33.7153 -18.0343 33.7271 -18.0746C34.7289 -19.7394 34.6819 -21.9414 33.5504 -23.3377C32.36 -24.8011 30.4979 -24.7877 29.2721 -24.1432C27.8577 -23.4048 27.3036 -21.8741 27.0679 -21.2028C26.5611 -19.793 26.3724 -17.9269 26.3724 -15.9533C26.3724 -11.9926 27.1152 -7.6289 27.5041 -5.5747C27.4334 -5.46729 27.3743 -5.37338 27.339 -5.31968C26.3843 -3.86965 25.7124 -2.74188 25.1702 -1.8289C24.0269 0.104469 23.6851 0.628112 22.8247 0.883216C19.6895 1.78277 15.541 -2.71503 13.5962 -6.19241C9.5299 -13.4828 10.0955 -24.1834 14.9043 -31.0979C15.859 -32.4808 21.0216 -39.3282 28.3174 -38.8583C29.496 -38.7777 30.6746 -38.5092 31.8296 -38.0527C27.728 -33.8235 24.2392 -29.0302 21.4458 -23.7C19.4185 -19.8467 17.7567 -15.7116 16.4956 -11.4018C16.4602 -11.2675 16.4366 -11.1197 16.4366 -10.972C16.4366 -10.4082 16.743 -9.8846 17.238 -9.69663C17.8509 -9.46838 18.5227 -9.84432 18.7231 -10.5425C19.9253 -14.6643 21.5165 -18.6251 23.4494 -22.3038C30.9102 -36.5087 43.4982 -46.8872 59.8694 -52.3248C66.0455 -54.379 72.5042 -55.4127 79.1045 -55.4261C79.6938 -46.8334 85.9997 -40.0398 93.6962 -40.0398C101.393 -40.0398 107.675 -46.8066 108.288 -55.386L245.705 -55.386C246.306 -46.8201 252.611 -40.0398 260.296 -40.0398C267.981 -40.0398 274.275 -46.8066 274.888 -55.3725C281.476 -55.3591 287.935 -54.3252 294.111 -52.271C310.471 -46.8334 323.07 -36.455 330.531 -22.2501C332.464 -18.5579 334.055 -14.6105 335.257 -10.4887C335.458 -9.79055 336.129 -9.40118 336.742 -9.64285C337.355 -9.8711 337.685 -10.6364 337.485 -11.3346C336.224 -15.6444 334.562 -19.7797 332.535 -23.633C329.741 -28.9498 326.241 -33.7563 322.151 -37.9855C323.306 -38.4286 324.485 -38.7105 325.663 -38.791C332.947 -39.261 338.11 -32.4137 339.076 -31.0308C343.885 -24.1164 344.451 -13.4156 340.384 -6.1252C338.44 -2.63439 334.291 1.8634 331.156 0.950424C330.283 0.695327 329.953 0.185104 328.798 -1.76169C328.256 -2.67467 327.584 -3.80244 326.63 -5.25247C326.594 -5.30617 326.535 -5.40024 326.465 -5.50765C327.066 -8.60909 328.421 -16.9065 326.912 -21.1357C326.677 -21.7936 326.123 -23.3241 324.709 -24.0626C323.483 -24.707 321.62 -24.7205 320.43 -23.257C319.829 -22.5186 319.522 -21.5384 319.522 -20.5449C319.522 -19.6588 319.77 -18.7592 320.253 -17.9805C320.277 -17.9536 320.289 -17.9134 320.312 -17.8866C320.348 -17.8328 320.371 -17.7791 320.406 -17.7254C320.43 -17.6986 320.454 -17.6851 320.477 -17.6582C320.831 -17.242 321.314 -16.9735 321.868 -16.9735C322.929 -16.9735 323.789 -17.9536 323.789 -19.162C323.789 -20.3703 322.929 -21.3504 321.868 -21.3504C321.703 -21.3504 321.55 -21.3237 321.397 -21.2834C321.467 -21.5251 321.573 -21.7399 321.727 -21.9144C322.351 -22.6797 323.435 -22.532 323.966 -22.2501C324.744 -21.8473 325.086 -20.894 325.262 -20.3838C326.241 -17.6717 325.816 -12.2879 325.015 -7.53501C323.07 -10.1531 319.558 -14.5166 315.256 -18.2088C313.688 -19.5648 312.003 -20.8 310.258 -21.9278C312.592 -22.8408 314.289 -25.3381 314.289 -28.3053C314.289 -32.0378 311.626 -35.0721 308.349 -35.0721C305.072 -35.0721 302.409 -32.0378 302.409 -28.3053C302.409 -25.271 304.177 -22.7334 306.605 -21.8741C306.616 -21.8741 306.628 -21.8606 306.64 -21.8472C309.339 -20.3569 311.885 -18.5848 314.195 -16.5977C320.277 -11.3749 324.732 -4.78252 325.215 -4.04408C326.146 -2.63432 326.807 -1.5335 327.337 -0.647378C328.516 1.3397 329.164 2.44065 330.719 2.88372C332.829 3.48789 335.069 2.4809 337.061 0.84291L337.061 16.4844C334.291 17.0618 332.181 19.8142 332.181 23.1305C332.181 26.863 334.845 29.8972 338.121 29.8972C341.398 29.8972 344.062 26.863 344.062 23.1305C344.062 19.6665 341.763 16.8469 338.829 16.4441L338.829 -0.862076C340.066 -2.21812 341.127 -3.72186 341.881 -5.06448C346.325 -13.0396 345.712 -24.7473 340.467 -32.3063C339.406 -33.8234 333.737 -41.3555 325.569 -40.8319C323.895 -40.7244 322.245 -40.268 320.642 -39.5161C313.594 -46.3098 304.872 -51.5192 294.76 -54.8758C288.371 -56.9971 281.688 -58.0576 274.876 -58.0845C274.275 -66.6638 267.969 -73.4307 260.285 -73.4307C252.6 -73.4307 246.306 -66.6638 245.693 -58.0845L108.276 -58.0845C107.675 -66.6638 101.369 -73.4307 93.6844 -73.4307C85.9997 -73.4307 79.7174 -66.6907 79.1045 -58.1382C72.2802 -58.1248 65.5975 -57.0507 59.2093 -54.9294C49.0966 -51.5728 40.3748 -46.3501 33.3265 -39.5699C31.7236 -40.3218 30.0733 -40.7782 28.3996 -40.8856C20.2435 -41.4092 14.5626 -33.8772 13.5018 -32.36C10.6024 -28.1979 9.11734 -22.7603 9.11734 -17.3764C9.11734 -13.0129 10.0956 -8.68961 12.0875 -5.11825C12.83 -3.77564 13.8907 -2.2719 15.14 -0.915849L15.14 16.3905C12.1934 16.7933 9.90692 19.6262 9.90692 23.0767C9.90692 26.8092 12.5707 29.8436 15.8473 29.8436C19.1239 29.8436 21.7877 26.8092 21.7877 23.0767L21.8112 23.0499ZM41.459 -28.3858C41.459 -31.0039 43.3331 -33.1387 45.6314 -33.1387C47.9297 -33.1387 49.8038 -31.0039 49.8038 -28.3858C49.8038 -25.7677 47.9297 -23.633 45.6314 -23.633C43.3331 -23.633 41.459 -25.7677 41.459 -28.3858ZM304.189 -28.3322C304.189 -30.9503 306.062 -33.0849 308.361 -33.0849C310.659 -33.0849 312.533 -30.9503 312.533 -28.3322C312.533 -25.7141 310.659 -23.5792 308.361 -23.5792C306.062 -23.5792 304.189 -25.7141 304.189 -28.3322ZM342.305 23.1036C342.305 25.7217 340.431 27.8564 338.133 27.8564C335.835 27.8564 333.961 25.7217 333.961 23.1036C333.961 20.4855 335.835 18.3507 338.133 18.3507C340.431 18.3507 342.305 20.4855 342.305 23.1036ZM260.296 -70.7723C267.073 -70.7723 272.589 -64.4888 272.589 -56.7687C272.589 -49.0487 267.073 -42.7653 260.296 -42.7653C253.519 -42.7653 248.003 -49.0487 248.003 -56.7687C248.003 -64.4888 253.519 -70.7723 260.296 -70.7723ZM93.708 -70.7723C100.485 -70.7723 106.001 -64.4888 106.001 -56.7687C106.001 -49.0487 100.485 -42.7653 93.708 -42.7653C86.9308 -42.7653 81.4149 -49.0487 81.4149 -56.7687C81.4149 -64.4888 86.9308 -70.7723 93.708 -70.7723ZM11.6985 23.0499C11.6985 20.4317 13.5725 18.2969 15.8709 18.2969C18.1692 18.2969 20.0433 20.4317 20.0433 23.0499C20.0433 25.668 18.1692 27.8028 15.8709 27.8028C13.5725 27.8028 11.6985 25.668 11.6985 23.0499Z" fill="#DFD4CF" fill-opacity="0.05"/>
<path d="M13.8787 23.0497C13.8787 24.3029 14.7704 25.3188 15.8705 25.3188C16.9706 25.3188 17.8623 24.3029 17.8623 23.0497C17.8623 21.7966 16.9706 20.7808 15.8705 20.7808C14.7704 20.7808 13.8787 21.7966 13.8787 23.0497Z" fill="#DFD4CF" fill-opacity="0.05"/>
<path d="M14.1614 77.0634C14.1614 78.3165 15.0531 79.3325 16.1532 79.3325C17.2533 79.3325 18.145 78.3165 18.145 77.0634C18.145 75.8102 17.2533 74.7944 16.1532 74.7944C15.0531 74.7944 14.1614 75.8102 14.1614 77.0634Z" fill="#DFD4CF" fill-opacity="0.05"/>
<path d="M278.918 11.7048C278.918 8.9256 279.484 2.31995 284.435 -2.36579C289.88 -7.52145 296.421 -6.28629 298.295 -5.7761C304.436 -4.1381 307.442 1.15172 307.654 2.34665C307.866 3.52815 307.607 4.48147 307.571 4.58888C307.477 4.89768 307.371 5.12593 307.312 5.26019C306.758 6.2403 305.956 6.65658 305.379 6.84455C304.966 6.97881 304.542 6.71019 304.436 6.24027C304.318 5.78378 304.554 5.30054 304.966 5.16628C305.296 5.05887 305.744 4.83049 306.003 4.36058C306.003 4.33372 306.074 4.19948 306.121 4.03836C306.121 4.03836 306.286 3.42076 306.157 2.69574C306.027 2.11842 303.552 -2.58065 297.954 -4.08438C296.256 -4.54087 290.316 -5.66863 285.425 -1.02317C280.533 3.60886 280.404 10.3622 280.474 12.3358C280.722 18.7267 284.246 24.6073 289.691 27.6818C290.069 27.8967 290.222 28.4204 290.033 28.8501C289.845 29.2797 289.385 29.4542 289.008 29.2393C283.067 25.8828 279.213 19.4249 278.942 12.403C278.942 12.215 278.93 11.9733 278.93 11.7048L278.918 11.7048Z" fill="#DFD4CF" fill-opacity="0.05"/>
<path d="M301.324 3.40712C301.324 5.38694 302.733 6.99197 304.471 6.99197C306.209 6.99197 307.618 5.38694 307.618 3.40712C307.618 1.42729 306.209 -0.177734 304.471 -0.177735C302.733 -0.177735 301.324 1.42729 301.324 3.40712Z" fill="#DFD4CF" fill-opacity="0.05"/>
<path d="M278.918 84.5285C278.918 84.2599 278.918 84.0182 278.93 83.8303C279.201 76.8084 283.055 70.3503 288.996 66.9938C289.373 66.779 289.833 66.9535 290.021 67.3832C290.21 67.8128 290.057 68.3364 289.679 68.5513C284.246 71.6259 280.71 77.5066 280.462 83.8975C280.392 85.8577 280.521 92.6244 285.413 97.2564C290.304 101.888 296.244 100.774 297.942 100.318C303.54 98.8139 306.015 94.1147 306.145 93.5374C306.275 92.8124 306.109 92.1948 306.109 92.1948C306.062 92.0336 306.003 91.8993 305.968 91.8322C305.72 91.4026 305.284 91.1744 304.954 91.0804C304.542 90.9462 304.306 90.4628 304.424 90.0063C304.542 89.5364 304.966 89.2679 305.367 89.4022C305.945 89.5901 306.746 90.0064 307.276 90.9462C307.371 91.1207 307.465 91.3623 307.559 91.6577C307.595 91.7651 307.854 92.7184 307.642 93.8999C307.43 95.1083 304.424 100.385 298.283 102.023C296.409 102.52 289.856 103.755 284.423 98.6125C279.472 93.9268 278.907 87.3211 278.907 84.5419L278.918 84.5285Z" fill="#DFD4CF" fill-opacity="0.05"/>
<path d="M48.0118 3.78316C48.0118 3.50121 48.0355 3.1789 48.0944 2.85667C48.3065 1.64831 51.312 -3.62808 57.4527 -5.26607C59.3267 -5.76284 65.8799 -6.99816 71.3134 -1.85593C76.7469 3.2863 76.8883 10.7513 76.8176 12.9129C76.5465 19.9348 72.6923 26.3928 66.752 29.7494C66.3748 29.9642 65.9153 29.7896 65.7267 29.36C65.5381 28.9303 65.6914 28.4067 66.0686 28.1919C71.5021 25.1173 75.0378 19.2367 75.2853 12.8458C75.3678 10.8856 75.2264 4.11872 70.3351 -0.513315C65.4437 -5.14535 59.5036 -4.03085 57.8063 -3.57436C52.2078 -2.07063 49.7327 2.62844 49.6031 3.20576C49.4734 3.93078 49.6382 4.54838 49.6382 4.54838C49.6853 4.7095 49.7444 4.84378 49.7798 4.91092C50.0273 5.34055 50.4632 5.56888 50.7932 5.66286C51.2057 5.79712 51.4417 6.28037 51.3238 6.73686C51.206 7.20677 50.7816 7.4754 50.3809 7.34113C49.8033 7.15317 49.0017 6.73692 48.4713 5.79709C48.377 5.62255 48.2828 5.38084 48.1885 5.08546C48.1649 5.00491 48.0236 4.49474 48.0236 3.76972L48.0118 3.78316Z" fill="#DFD4CF" fill-opacity="0.05"/>
<path d="M48.1179 3.90402C48.1179 5.88385 49.5267 7.48887 51.2648 7.48887C53.0028 7.48887 54.4116 5.88385 54.4116 3.90402C54.4116 1.9242 53.0028 0.319336 51.2648 0.319336C49.5267 0.319336 48.1179 1.9242 48.1179 3.90402Z" fill="#DFD4CF" fill-opacity="0.05"/>
<path d="M48.0118 93.4567C48.0118 92.7317 48.1531 92.2214 48.1766 92.1408C48.2709 91.832 48.377 91.6038 48.4359 91.4695C48.9899 90.4894 49.7915 90.0733 50.369 89.8853C50.7816 89.751 51.2059 90.0195 51.312 90.4894C51.4299 90.9593 51.1942 91.4427 50.7817 91.5636C50.4517 91.671 50.0036 91.8992 49.7443 92.3691C49.7443 92.396 49.6735 92.5302 49.6263 92.6913C49.6263 92.6913 49.4616 93.3089 49.5912 94.034C49.7209 94.6113 52.196 99.3105 57.7945 100.814C59.4917 101.271 65.4319 102.398 70.3232 97.753C75.2146 93.121 75.3442 86.3677 75.2734 84.394C75.0259 78.0032 71.502 72.1224 66.0567 69.0478C65.6796 68.833 65.5263 68.3094 65.7149 67.8798C65.9035 67.4501 66.363 67.2755 66.7401 67.4904C72.6805 70.8469 76.5346 77.305 76.8057 84.3268C76.8882 86.4885 76.7351 93.9534 71.3016 99.0956C65.8563 104.251 59.3149 103.016 57.4408 102.506C51.3002 100.868 48.2947 95.578 48.0826 94.383C48.0236 94.0474 48 93.7387 48 93.4567L48.0118 93.4567Z" fill="#DFD4CF" fill-opacity="0.05"/>
</g>
</g>
<defs>
<filter id="filter0_d_77_17035" x="0" y="0" width="353" height="96" filterUnits="userSpaceOnUse" color-interpolation-filters="sRGB">
<feFlood flood-opacity="0" result="BackgroundImageFix"/>
<feColorMatrix in="SourceAlpha" type="matrix" values="0 0 0 0 0 0 0 0 0 0 0 0 0 0 0 0 0 0 127 0" result="hardAlpha"/>
<feOffset dy="4"/>
<feGaussianBlur stdDeviation="2"/>
<feComposite in2="hardAlpha" operator="out"/>
<feColorMatrix type="matrix" values="0 0 0 0 0 0 0 0 0 0 0 0 0 0 0 0 0 0 0.25 0"/>
<feBlend mode="normal" in2="BackgroundImageFix" result="effect1_dropShadow_77_17035"/>
<feBlend mode="normal" in="SourceGraphic" in2="effect1_dropShadow_77_17035" result="shape"/>
</filter>
<linearGradient id="paint0_linear_77_17035" x1="176.5" y1="0" x2="176.5" y2="88" gradientUnits="userSpaceOnUse">
<stop stop-color="#381414"/>
<stop offset="1" stop-color="#1D0808"/>
</linearGradient>
<clipPath id="clip0_77_17035">
<rect x="4" width="345" height="88" fill="white"/>
</clipPath>
</defs>
</svg>
