<svg width="345" height="76" viewBox="0 0 345 76" fill="none" xmlns="http://www.w3.org/2000/svg">
<g clip-path="url(#clip0_77_17185)">
<rect width="345" height="76" fill="url(#paint0_linear_77_17185)"/>
<path d="M0.992086 169.67L0.992096 -94.3287C0.992096 -94.7046 1.2514 -95 1.58142 -95L279.845 -95L344.411 -95C344.741 -95 345 -94.7046 345 -94.3287L345 169.67C345 170.046 344.741 170.342 344.411 170.342L1.58141 170.342C1.25139 170.342 0.992086 170.046 0.992086 169.67ZM2.17072 -93.6574L2.17071 168.999L343.821 168.999L343.821 -93.6574L108.436 -93.6574L2.17072 -93.6574Z" fill="#DFD4CF" fill-opacity="0.02"/>
<path d="M173.862 -62.2803C125.479 -62.2803 86.1246 -17.4502 86.1246 37.6643C86.1246 92.7788 125.479 137.609 173.862 137.609C222.245 137.609 261.6 92.7788 261.6 37.6643C261.6 -17.4502 222.245 -62.2803 173.862 -62.2803ZM173.862 134.924C126.787 134.924 88.4819 91.2885 88.4819 37.6643C88.4819 -15.9599 126.787 -59.595 173.862 -59.595C220.937 -59.595 259.242 -15.9598 259.242 37.6643C259.242 91.2885 220.937 134.924 173.862 134.924Z" fill="#DFD4CF" fill-opacity="0.02"/>
<path d="M255.494 37.6506C255.494 31.0181 251.498 23.392 246.159 23.1369C244.273 23.0429 242.317 23.929 240.49 25.6879C239.441 26.1846 236.895 27.0842 234.114 25.8759C232.522 25.1777 231.19 23.956 230.177 22.2374C229.34 18.0887 228.15 14.0877 226.653 10.2612L246.56 3.01102C246.949 2.86333 247.267 2.56794 247.455 2.15172C247.644 1.73551 247.679 1.26562 247.55 0.835983C247.42 0.379493 247.126 -0.00990726 246.737 -0.211297C246.348 -0.41269 245.9 -0.426144 245.511 -0.238179L226.158 8.98577C224.897 5.95145 223.435 3.03797 221.797 0.258749L240.466 -11.9458C240.82 -12.174 241.079 -12.55 241.185 -12.9931C241.291 -13.4361 241.244 -13.906 241.032 -14.3088C240.82 -14.725 240.466 -15.0338 240.042 -15.1412C239.618 -15.2486 239.182 -15.1411 238.84 -14.8726L221.172 -0.869169C221.172 -0.869169 221.16 -0.84228 221.149 -0.828852C219.451 -3.56779 217.577 -6.15906 215.538 -8.56235C215.609 -8.5892 215.68 -8.62945 215.739 -8.69658L231.744 -25.0899C232.051 -25.3987 232.228 -25.8284 232.251 -26.2983C232.275 -26.7548 232.133 -27.2113 231.862 -27.547C231.579 -27.9095 231.167 -28.1242 230.742 -28.1242C230.318 -28.1242 229.906 -27.923 229.611 -27.5739L214.914 -9.66322C214.914 -9.66322 214.819 -9.52908 214.796 -9.44852C212.721 -11.8115 210.494 -14 208.136 -16.0005C208.136 -16.0005 208.16 -16.0138 208.172 -16.0272L220.807 -35.8846C221.302 -36.6633 221.148 -37.7509 220.465 -38.3148C220.123 -38.5968 219.687 -38.7041 219.263 -38.6102C218.838 -38.5162 218.473 -38.2208 218.261 -37.8046L207.205 -16.7926C204.813 -18.726 202.279 -20.4445 199.638 -21.9617L208.101 -43.8195C208.266 -44.2492 208.278 -44.7191 208.125 -45.1487C207.971 -45.5783 207.689 -45.9274 207.323 -46.1153C206.934 -46.3167 206.486 -46.3167 206.097 -46.1153C205.708 -45.914 205.402 -45.538 205.261 -45.0815L198.531 -22.5926C194.9 -24.5529 191.058 -26.0969 187.074 -27.1576C185.766 -28.272 184.811 -29.6817 184.257 -31.3331C183.138 -34.6762 184.057 -37.6435 184.422 -38.5967C185.966 -40.6912 186.756 -42.9199 186.662 -45.0681C186.426 -51.1636 179.731 -55.7017 173.909 -55.7017C168.086 -55.7017 161.403 -51.1501 161.168 -45.0681C161.097 -42.9199 161.863 -40.6778 163.407 -38.5967C163.843 -37.4152 164.633 -34.5151 163.572 -31.3331C163.018 -29.6683 162.064 -28.272 160.755 -27.1576C156.819 -26.1103 153.035 -24.5932 149.452 -22.6733L142.651 -45.3903C142.51 -45.8468 142.215 -46.2227 141.815 -46.4241C141.426 -46.6255 140.978 -46.6255 140.589 -46.4241C140.023 -46.1422 139.681 -45.4978 139.681 -44.8265C139.681 -44.5982 139.728 -44.3565 139.811 -44.1283L148.356 -22.069C145.704 -20.5787 143.17 -18.8602 140.778 -16.9268C140.766 -16.9805 140.754 -17.0342 140.73 -17.0879L129.663 -38.1134C129.451 -38.5296 129.074 -38.825 128.661 -38.9189C128.237 -39.0129 127.801 -38.919 127.459 -38.6236C127.129 -38.3551 126.917 -37.9523 126.846 -37.4958C126.834 -37.4019 126.822 -37.3078 126.822 -37.2138C126.822 -36.8513 126.917 -36.5022 127.117 -36.1934L139.752 -16.3362C139.752 -16.3362 139.846 -16.2153 139.905 -16.1751C137.512 -14.1746 135.249 -11.9726 133.151 -9.59619C133.14 -9.73046 133.093 -9.86476 133.01 -9.97217L118.313 -27.8827C118.018 -28.2452 117.606 -28.4332 117.181 -28.4332C116.757 -28.4332 116.344 -28.2183 116.061 -27.8558C115.814 -27.5335 115.673 -27.1308 115.673 -26.7011C115.673 -26.6743 115.673 -26.6339 115.673 -26.6071C115.696 -26.1372 115.873 -25.7211 116.179 -25.4123L132.185 -9.0188C132.28 -8.92482 132.409 -8.87112 132.527 -8.85769C130.464 -6.44097 128.555 -3.83624 126.834 -1.08388C126.811 -1.11073 126.787 -1.1511 126.752 -1.17795L109.084 -15.1814C108.73 -15.4633 108.294 -15.5574 107.87 -15.45C107.446 -15.3426 107.092 -15.0338 106.88 -14.6176C106.739 -14.3491 106.679 -14.0537 106.679 -13.7583C106.679 -13.1541 106.951 -12.5633 107.446 -12.2411L126.115 -0.0367583C126.115 -0.0367583 126.162 -0.0233077 126.174 -0.00987997C124.524 2.75591 123.039 5.65594 121.766 8.69026L102.389 -0.54696C102 -0.734929 101.552 -0.721475 101.163 -0.520082C100.775 -0.318689 100.48 0.0707078 100.35 0.527197C100.303 0.701739 100.279 0.876311 100.279 1.06428C100.279 1.3328 100.338 1.60128 100.444 1.85638C100.633 2.27259 100.951 2.56798 101.34 2.71567L121.259 9.96585C119.703 13.8729 118.478 17.9811 117.617 22.2507C116.604 23.9692 115.283 25.1911 113.68 25.8893C110.911 27.0976 108.365 26.1981 107.316 25.7013C105.477 23.9425 103.521 23.0563 101.635 23.1503C96.2838 23.4188 92.3001 31.045 92.3001 37.6775C92.3001 44.31 96.2956 51.9226 101.635 52.1911C103.521 52.2851 105.477 51.399 107.316 49.6401C108.365 49.1434 110.899 48.2438 113.68 49.4521C116.085 50.4994 117.452 52.5804 118.171 54.1513C118.984 57.5616 120.045 60.8511 121.306 64.0197L101.352 71.2831C100.963 71.4308 100.645 71.7262 100.456 72.1424C100.338 72.3975 100.279 72.666 100.279 72.9345C100.279 73.1091 100.303 73.2836 100.35 73.4582C100.48 73.9146 100.775 74.3041 101.163 74.5054C101.552 74.7068 102 74.7203 102.389 74.5323L121.801 65.2817C123.074 68.316 124.536 71.2429 126.186 73.9952C126.162 73.9952 126.139 74.0087 126.115 74.0221L107.446 86.2265C106.951 86.5487 106.679 87.1395 106.679 87.7436C106.679 88.039 106.75 88.3344 106.88 88.6029C107.092 89.0192 107.446 89.3279 107.87 89.4354C108.294 89.5428 108.73 89.4354 109.072 89.1669L126.74 75.1633C126.74 75.1633 126.811 75.0828 126.846 75.0425C128.567 77.8083 130.476 80.4129 132.55 82.8431C132.421 82.8431 132.279 82.8968 132.173 83.0042L116.167 99.3976C115.861 99.7064 115.684 100.136 115.661 100.593C115.661 100.619 115.661 100.66 115.661 100.687C115.661 101.116 115.802 101.519 116.049 101.841C116.332 102.204 116.745 102.419 117.169 102.419C117.594 102.419 118.006 102.217 118.301 101.868L132.998 83.9575C133.093 83.8367 133.14 83.7024 133.151 83.5547C135.261 85.9445 137.536 88.133 139.952 90.1335C139.882 90.1738 139.811 90.241 139.764 90.3215L127.141 110.179C126.952 110.474 126.846 110.837 126.846 111.199C126.846 111.293 126.846 111.387 126.87 111.481C126.928 111.938 127.152 112.34 127.482 112.609C127.824 112.891 128.26 112.998 128.685 112.904C129.109 112.81 129.474 112.515 129.686 112.099L140.754 91.0733C140.789 91.0062 140.813 90.9257 140.824 90.8452C143.229 92.7651 145.751 94.497 148.403 95.9873L139.835 118.1C139.752 118.328 139.705 118.57 139.705 118.798C139.705 119.47 140.047 120.101 140.612 120.396C141.001 120.598 141.449 120.598 141.838 120.396C142.227 120.195 142.534 119.819 142.675 119.362L149.499 96.5647C152.658 98.243 155.97 99.6392 159.412 100.66C160.39 101.331 162.606 103.17 163.584 106.621C164.527 109.897 163.808 112.757 163.407 113.925C161.863 116.019 161.109 118.248 161.179 120.396C161.415 126.357 168.075 130.788 173.921 131.03C175.193 131.083 179.625 130.976 183.197 127.378C184.375 126.196 186.556 123.981 186.685 120.396C186.791 117.214 185.235 114.865 184.457 113.911C184.069 112.73 183.35 109.884 184.281 106.621C185.271 103.17 187.487 101.331 188.465 100.66C192.013 99.6124 195.419 98.1759 198.672 96.4171L205.449 119.067C205.59 119.524 205.885 119.899 206.286 120.101C206.675 120.302 207.123 120.289 207.512 120.101C207.889 119.913 208.172 119.577 208.313 119.134C208.454 118.704 208.454 118.235 208.289 117.805L199.768 95.8128C202.42 94.2956 204.942 92.5502 207.335 90.6169C207.347 90.6706 207.347 90.7243 207.37 90.778L218.438 111.803C218.65 112.22 219.027 112.515 219.44 112.609C219.864 112.703 220.3 112.609 220.642 112.314C221.325 111.75 221.478 110.662 220.983 109.883L208.348 90.0262C208.348 90.0262 208.266 89.9321 208.219 89.8918C210.612 87.8779 212.863 85.6626 214.949 83.2594C214.949 83.407 215.008 83.5548 215.102 83.6622L229.8 101.573C230.094 101.935 230.507 102.137 230.931 102.123C231.356 102.123 231.768 101.908 232.051 101.546C232.322 101.197 232.463 100.754 232.44 100.297C232.416 99.8272 232.239 99.4111 231.933 99.0889L215.927 82.6954C215.821 82.588 215.68 82.5343 215.55 82.5343C217.613 80.0907 219.51 77.4727 221.219 74.6934C221.255 74.7606 221.302 74.8277 221.361 74.868L239.028 88.8716C239.382 89.1535 239.818 89.2474 240.242 89.14C240.667 89.0326 241.02 88.7238 241.233 88.3076C241.433 87.9048 241.492 87.4349 241.386 86.9919C241.28 86.5488 241.02 86.1728 240.667 85.9446L221.997 73.7402C221.997 73.7402 221.903 73.6999 221.856 73.6865C223.494 70.9207 224.92 67.9803 226.181 64.9326L245.711 74.237C246.1 74.425 246.548 74.4115 246.937 74.2101C247.326 74.0087 247.62 73.6193 247.75 73.1628C247.868 72.7198 247.845 72.2499 247.656 71.8337C247.467 71.4174 247.149 71.122 246.76 70.9744L226.688 63.6706C227.878 60.6094 228.904 57.4273 229.682 54.1379C230.401 52.567 231.756 50.4994 234.161 49.4387C236.942 48.2303 239.488 49.1299 240.537 49.6267C242.364 51.3855 244.321 52.2717 246.206 52.1777C251.557 51.9226 255.541 44.2966 255.541 37.6506L255.494 37.6506ZM246.112 50.8485C244.085 50.9425 242.317 49.6536 241.197 48.5527C241.15 48.5124 241.103 48.472 241.044 48.4452C239.924 47.8947 236.954 46.7804 233.701 48.1902C230.919 49.4119 229.375 51.7884 228.574 53.5741C228.562 53.6144 228.539 53.6411 228.539 53.6814C228.539 53.7083 228.527 53.7352 228.515 53.7621C223.247 76.1167 207.736 93.5975 188.041 99.3708C187.993 99.3842 187.935 99.4111 187.887 99.438C186.827 100.15 184.245 102.217 183.102 106.191C182.018 109.977 182.902 113.267 183.338 114.502C183.361 114.583 183.409 114.65 183.456 114.717C184.08 115.482 185.554 117.51 185.436 120.316C185.33 123.336 183.456 125.216 182.336 126.344C179.095 129.62 175.052 129.714 173.885 129.66C168.57 129.432 162.476 125.391 162.288 120.316C162.193 118.02 163.337 115.979 164.303 114.69C164.35 114.636 164.374 114.569 164.397 114.502C164.833 113.267 165.717 109.977 164.633 106.191C163.502 102.23 160.92 100.15 159.871 99.438C159.824 99.4111 159.777 99.3842 159.718 99.3708C140.035 93.5975 124.512 76.1166 119.232 53.7621C119.232 53.7621 119.22 53.7083 119.208 53.6814C119.208 53.6546 119.185 53.6144 119.173 53.5875C118.372 51.8018 116.816 49.4254 114.046 48.2036C110.793 46.7804 107.834 47.9081 106.715 48.4586C106.656 48.4855 106.609 48.5258 106.562 48.5661C105.43 49.6671 103.65 50.9559 101.623 50.862C97.0028 50.6337 93.4198 43.5849 93.4198 37.6908C93.4198 31.7833 97.0028 24.7346 101.623 24.5063C103.65 24.3989 105.43 25.7012 106.562 26.8022C106.609 26.8425 106.656 26.8828 106.715 26.9097C107.835 27.4602 110.793 28.5745 114.046 27.1647C115.908 26.3591 117.452 24.9226 118.607 22.8953C118.654 22.8147 118.678 22.7206 118.69 22.6266C123.463 -1.25854 140.07 -20.27 161.026 -25.815C161.121 -25.8284 161.215 -25.8686 161.297 -25.9358C162.853 -27.2247 163.973 -28.8627 164.633 -30.8095C165.859 -34.5419 164.892 -37.8986 164.421 -39.1741C164.397 -39.2412 164.362 -39.2948 164.327 -39.3485C163.36 -40.6374 162.228 -42.6649 162.311 -44.9742C162.511 -50.2372 168.699 -54.3187 173.873 -54.3187C179.059 -54.3187 185.247 -50.2372 185.459 -44.9742C185.507 -42.6783 184.411 -40.6374 183.444 -39.3485C183.409 -39.2948 183.373 -39.2411 183.35 -39.1874C182.961 -38.2207 181.806 -34.7433 183.126 -30.8095C183.786 -28.8627 184.905 -27.2247 186.461 -25.9358C186.532 -25.882 186.626 -25.8418 186.709 -25.815C207.665 -20.2699 224.284 -1.24503 229.034 22.5327C229.034 22.667 229.069 22.7879 229.128 22.8953C230.295 24.9092 231.827 26.3457 233.689 27.1647C236.942 28.5879 239.912 27.4602 241.032 26.9097C241.091 26.8828 241.138 26.8425 241.185 26.8022C242.317 25.7012 244.085 24.4124 246.1 24.5064C250.72 24.7346 254.303 31.77 254.303 37.6775C254.303 43.585 250.72 50.6337 246.1 50.862L246.112 50.8485Z" fill="#DFD4CF" fill-opacity="0.02"/>
<path d="M215.515 37.0328C215.892 32.8572 215.48 28.5878 214.313 24.6942C213.476 21.8747 211.72 15.994 206.475 11.9393C202.633 8.97212 198.613 8.27395 195.761 8.2471C194.771 6.47484 194.064 4.67569 193.404 2.99742C192.06 -0.426261 190.87 -3.38007 187.864 -4.60185C186.862 -7.90469 185.306 -10.2677 183.22 -11.6237C181.511 -12.7381 180.073 -12.7782 178.093 -12.8319C176.926 -12.8588 175.618 -12.8992 173.874 -13.1543C170.974 -13.5705 169.631 -14.2014 168.546 -14.7116C167.474 -15.2084 166.554 -15.6381 164.81 -15.6247C159.577 -15.571 152.941 -11.7042 150.961 -4.61513C150.537 -3.11139 150.372 -1.66139 150.372 -0.278497C150.372 2.86323 151.244 5.53504 151.975 7.26701C151.598 7.361 151.244 7.45493 150.926 7.54891C148.144 8.28735 147.013 8.58274 145.634 9.57628C141.556 10.3953 138.079 12.4091 135.603 15.3898C132.716 18.8537 132.009 23.0965 130.712 30.8032C129.628 37.2209 128.862 41.7991 128.862 45.7867C128.862 48.7001 129.274 51.3049 130.264 54.0841C131.537 57.6152 133.529 60.7971 136.205 63.536C136.535 64.7444 137.018 65.8588 137.749 66.906C140.919 71.4172 146.577 71.5247 149.158 71.3098C149.936 75.19 151.374 78.5467 153.471 81.3125C159.235 88.8983 168.817 90.5765 175.264 89.7038C180.003 89.0728 183.538 87.126 184.729 84.4945C184.847 84.2394 184.977 83.8903 185.13 83.4741C185.707 81.9032 186.591 79.5267 188.454 78.372C189.114 77.9558 189.785 77.7545 189.785 77.7545C190.752 77.4725 191.388 77.6068 192.202 77.7814C192.779 77.9022 193.439 78.0498 194.264 78.0229C194.924 78.0095 197.222 77.8082 198.873 76.0628C200.758 74.0757 200.853 71.1353 200.758 69.5778C201.737 69.0408 202.715 68.3695 203.681 67.5639C208.29 63.6703 210.129 58.4207 210.848 55.3595C212.227 54.5003 215.916 51.7614 216.894 46.3372C217.672 42.0677 216.305 38.5902 215.527 37.0462L215.515 37.0328ZM191.777 3.81639C193.144 7.29378 194.842 11.617 198.99 15.2555C199.851 16.0074 200.652 16.5982 201.43 17.1621C203.092 18.3705 204.542 19.4177 206.109 21.821C206.84 22.9488 208.196 25.3521 208.997 28.7086C209.504 30.8299 210.435 34.7639 209.032 38.9931C208.549 40.4431 207.901 42.4167 206.062 43.7324C204.778 44.6454 203.434 44.8603 202.42 44.8603C202.715 42.9135 202.786 40.1343 201.206 37.637C199.556 35.0458 197.093 34.2268 195.596 33.9852C196.162 29.7962 196.009 26.4664 194.37 23.0025C193.427 21.0288 192.213 19.4713 190.917 18.2495C190.705 16.249 190.375 14.2487 189.88 12.3287C188.524 7.0388 186.037 1.41319 182.772 -2.64152C184.293 -3.16514 185.684 -3.25917 186.909 -2.85638C189.467 -2.02396 190.433 0.419569 191.765 3.81639L191.777 3.81639ZM173.697 78.1305C173.485 78.2647 173.332 78.5064 173.273 78.7883C173.06 79.8893 172.554 81.3929 171.352 82.3461C170.326 83.1651 169.218 83.2323 168.735 83.2592C165.694 83.4203 158.787 80.5337 152.258 71.8872C148.356 66.7182 145.775 63.2945 145.575 58.1254C145.48 55.6013 145.976 53.2786 146.659 51.2781C150.077 52.9698 152.823 55.0911 154.827 57.6286C155.287 58.6088 155.899 59.6023 156.748 60.6227C157.29 61.6699 157.715 62.7439 158.163 63.8717C159.282 66.6778 160.449 69.5914 163.372 72.0349C165.435 73.7669 167.379 74.4114 168.311 74.7202C174.852 76.922 181.287 74.0488 184.929 71.8335C184.434 73.5655 183.35 75.9554 181.028 77.4054C178.129 79.2045 175.229 78.3586 174.404 78.0498C174.168 77.9558 173.909 77.9962 173.697 78.1305ZM169.972 18.7866C169.972 18.7866 169.984 18.7866 169.996 18.7866C170.055 18.7866 170.114 18.7866 170.173 18.7866C170.232 18.7866 170.291 18.7866 170.35 18.7866C170.35 18.7866 170.361 18.7866 170.373 18.7866C170.42 18.7732 170.468 18.733 170.503 18.7196C170.55 18.6927 170.597 18.6927 170.644 18.6524C172 17.632 176.879 14.4232 183.008 16.0209C184.623 16.4371 190.092 18.2496 192.826 23.9826C193.757 25.9428 194.146 27.8762 194.146 30.0647C194.146 31.461 193.993 32.9648 193.722 34.643C193.722 34.6967 193.698 34.737 193.698 34.7907C193.392 36.7241 192.944 38.8856 192.425 41.3963C190.822 49.1432 189.668 54.742 185.542 57.293C182.431 59.2264 178.4 59.0518 176.879 58.9847C176.349 58.9579 175.807 58.904 175.276 58.8369C177.068 58.179 178.765 57.2661 180.25 56.0577C186.462 51.0363 189.668 41.638 187.876 33.7165C187.546 32.2397 186.521 27.7285 182.855 24.8418C179.272 22.0089 173.638 21.1094 170.585 23.9155C169.831 23.0697 168.758 22.1835 167.344 21.6867C164.221 20.5724 161.498 22.0224 160.107 23.0159C160.178 22.8816 160.249 22.7339 160.331 22.5996C161.239 21.0153 161.97 20.3978 162.205 20.1964C164.81 17.9677 168.193 18.3704 169.972 18.8001L169.972 18.7866ZM183.397 14.0337C181.995 13.6712 180.651 13.537 179.39 13.5638C179.13 11.805 178.482 9.53595 176.938 7.50859C174.475 4.28631 171.21 3.62842 169.631 3.30619C166.908 2.75572 165.352 3.25255 161.215 4.54146C159.765 4.99795 157.974 5.56185 155.676 6.21973C155.228 6.35399 154.803 6.46143 154.403 6.58227C154.768 4.83686 155.416 3.41365 156.371 2.35298C157.232 1.39973 157.903 1.19835 159.011 0.862696C160.013 0.553895 161.274 0.177883 163.03 -0.896212C164.68 -1.90318 165.659 -2.84294 166.531 -3.67536C167.603 -4.69575 168.381 -5.43412 170.031 -5.95774C170.22 -6.01145 171.953 -6.53512 173.768 -6.34716C180.922 -5.60872 186.297 5.54836 188.171 12.8656C188.477 14.0874 188.713 15.3361 188.901 16.5982C186.579 14.987 184.352 14.2621 183.374 14.0204L183.397 14.0337ZM158.964 60.2601C158.669 59.9647 158.398 59.6559 158.139 59.3605C157.621 58.367 157.008 57.4272 156.324 56.541C155.558 54.8762 155.263 53.1174 155.499 51.3451C155.9 48.2974 157.715 45.6927 160.308 44.3098C160.331 44.3904 160.355 44.471 160.378 44.5516C162.158 49.6938 166.908 53.0772 171.929 52.7549C178.647 52.3387 181.83 45.3436 181.865 45.2765C183.845 40.8458 184.246 34.2671 180.415 30.293C177.822 27.5943 173.992 26.8021 170.35 28.0776C170.515 27.2586 170.797 26.5469 171.21 25.983C173.308 23.1904 178.659 23.9557 181.853 26.4798C184.976 28.9502 185.872 32.8975 186.167 34.1999C187.782 41.3426 184.859 49.8414 179.225 54.3929C176.879 56.2994 174.015 57.4808 170.951 57.8299C170.951 57.8299 170.951 57.8299 170.939 57.8299C170.833 57.8433 170.739 57.8837 170.656 57.924C170.632 57.9374 170.597 57.9643 170.573 57.9777C170.515 58.018 170.456 58.0717 170.409 58.1254C170.385 58.1523 170.361 58.1925 170.338 58.2193C170.291 58.2865 170.267 58.3536 170.232 58.4342C170.232 58.461 170.208 58.4744 170.197 58.5012C170.197 58.5146 170.197 58.5281 170.197 58.5415C170.197 58.555 170.185 58.5684 170.185 58.5953C169.937 59.9111 169.36 61.6967 168.016 62.7171C165.293 64.7713 161.027 62.274 158.976 60.2198L158.964 60.2601ZM169.136 30.5749C169.136 30.5749 169.147 30.5749 169.159 30.5749C172.176 31.179 174.746 33.9314 175.264 37.1134C175.429 38.1606 175.665 40.7787 174.145 42.6047C173.261 43.6653 171.399 44.9274 169.866 44.0815C168.994 43.5982 167.91 42.2288 168.216 40.6982C168.428 39.6376 169.253 38.7648 170.314 38.4695C170.786 38.3352 171.08 37.7981 170.974 37.2611C170.856 36.724 170.385 36.3884 169.914 36.5093C168.205 36.9792 166.861 38.4425 166.495 40.2416C166 42.6986 167.462 44.9812 169.088 45.8807C171.316 47.1159 173.933 45.7598 175.418 43.9742C176.879 42.2153 177.445 39.5703 176.985 36.7374C176.49 33.7165 174.64 31.0717 172.153 29.6216C174.781 29.1249 177.374 29.8767 179.201 31.7698C182.82 35.5291 181.488 41.6381 180.274 44.3636C180.25 44.4173 177.527 50.3919 171.823 50.741C167.556 51.0095 163.513 48.1497 162.017 43.7996C160.366 39.0199 161.887 32.9513 165.199 31.0582C166.837 30.1183 168.546 30.454 169.124 30.5614L169.136 30.5749ZM158.599 27.5405C159.212 26.4127 160.037 25.4461 160.98 24.7479C162.087 23.9424 164.315 22.707 166.814 23.5931C167.957 23.9959 168.806 24.7345 169.407 25.4192C168.923 26.2785 168.617 27.2855 168.487 28.4401C167.474 28.3462 165.953 28.373 164.409 29.2591C161.392 30.9777 159.577 35.2337 159.577 39.6375C159.577 40.5371 159.659 41.4501 159.824 42.3496C156.56 43.9608 154.261 47.2099 153.754 51.0363C153.695 51.5063 153.648 52.0299 153.648 52.5804C153.648 52.9295 153.672 53.3053 153.707 53.6813C151.928 52.0567 149.806 50.6336 147.378 49.4253C148.297 47.3442 149.323 45.7733 149.853 44.9811C151.492 42.5107 152.717 41.6246 153.802 40.8459C154.968 40.0001 156.076 39.2079 157.055 36.8315C158.021 34.4953 158.174 32.3739 158.316 30.3331C158.387 29.3933 158.445 28.4669 158.587 27.5271L158.599 27.5405ZM186.108 68.826C186.108 68.826 186.037 68.8529 185.99 68.8664C185.931 68.8798 185.884 68.8931 185.837 68.92C185.813 68.92 185.802 68.9468 185.778 68.9603L185.754 68.9603C183.02 70.9071 175.913 75.1631 168.806 72.7733C167.969 72.4913 166.224 71.9007 164.409 70.3835C162.028 68.3964 160.979 66.0467 159.978 63.5495C162.523 65.268 166.107 66.5838 168.971 64.4222C170.468 63.2944 171.245 61.5759 171.658 60.0721C173.343 60.5823 175.064 60.8912 176.797 60.9718C178.447 61.0389 182.843 61.2268 186.367 59.0383C191.188 56.0443 192.484 49.7743 194.123 41.826C194.57 39.6778 194.971 37.7444 195.278 35.9588C196.421 36.1467 198.472 36.7643 199.756 38.8051C201.418 41.4098 200.699 44.5516 200.358 46.0553C199.58 49.4521 197.576 51.5599 196.445 52.5132C196.15 52.7549 196.032 53.1711 196.115 53.5739C196.327 54.5137 197.211 59.4143 194.347 63.845C191.447 68.3293 187.016 68.7723 186.155 68.8126L186.132 68.8126C186.12 68.8126 186.096 68.8126 186.084 68.8126L186.108 68.826ZM152.646 -4.01101C154.379 -10.2005 160.213 -13.5839 164.822 -13.6242C166.213 -13.6242 166.873 -13.3287 167.875 -12.8588C169.053 -12.3084 170.515 -11.6236 173.65 -11.1671C175.477 -10.8986 176.903 -10.8583 178.046 -10.8315C179.897 -10.7778 181.016 -10.751 182.348 -9.87825C183.81 -8.92499 184.965 -7.31393 185.802 -5.09861C184.423 -5.20602 182.938 -4.89717 181.382 -4.21244C179.166 -6.49489 176.655 -8.03882 173.956 -8.32077C171.87 -8.53559 169.961 -7.98516 169.595 -7.86432C167.568 -7.23329 166.531 -6.23977 165.423 -5.19253C164.622 -4.42723 163.702 -3.5545 162.217 -2.64152C160.638 -1.67483 159.542 -1.33927 158.575 -1.05732C157.385 -0.694812 156.348 -0.386024 155.157 0.943169C154.202 2.00384 153.507 3.37346 153.024 4.95775C152.269 2.68872 151.692 -0.547033 152.658 -3.98414L152.646 -4.01101ZM156.123 8.1799C158.434 7.50859 160.237 6.94468 161.699 6.48819C165.777 5.2127 167.002 4.82349 169.336 5.2934C170.809 5.58878 173.555 6.1391 175.606 8.82433C176.832 10.4355 177.374 12.2347 177.61 13.6848C174.522 14.101 172.07 15.363 170.644 16.2759C170.244 15.1481 169.56 13.9263 168.417 13.0402C165.305 10.6637 161.251 12.8388 160.084 13.5504C158.811 14.3425 158.221 15.0944 157.597 15.8865C157.078 16.5578 156.548 17.2426 155.464 18.1288C154.026 19.2968 153.2 19.5385 152.328 19.7936C151.515 20.0218 150.678 20.2636 149.535 21.19C145.787 24.1706 144.278 29.8632 142.687 35.905L142.534 36.4958C142.169 37.9324 141.839 39.1676 140.966 40.6176C140.224 41.8394 139.257 42.9135 138.114 43.813C138.833 37.9995 138.809 34.2268 138.786 31.1388C138.762 27.2184 138.739 24.627 140.377 20.4111C141.343 17.9407 142.793 14.2083 146.152 11.5633C146.258 11.4828 146.353 11.4156 146.447 11.3485C146.447 11.3485 146.447 11.3485 146.459 11.3485C147.649 10.4758 148.557 10.2341 151.327 9.49564C152.541 9.17341 154.073 8.77065 156.123 8.1799ZM131.903 53.3053C129.734 47.2501 130.642 41.8796 132.445 31.1655C133.777 23.2844 134.46 19.6862 136.888 16.7593C138.373 14.9736 140.283 13.5773 142.487 12.624C140.542 15.0945 139.469 17.7931 138.762 19.6056C136.959 24.2242 136.994 27.1377 137.018 31.1655C137.041 34.5355 137.077 38.7379 136.087 45.6256L135.981 46.3506C135.662 48.4854 135.297 51.0364 135.297 54.2721C135.297 55.0777 135.321 55.9235 135.368 56.8097C135.439 57.9106 135.497 58.9578 135.603 59.9648C134.012 57.9374 132.775 55.7087 131.914 53.292L131.903 53.3053ZM139.128 65.6306C137.525 63.3347 137.348 60.4078 137.124 56.6887C136.865 52.446 137.336 49.2641 137.713 46.6997L137.749 46.4311C139.693 45.2227 141.261 43.6788 142.416 41.7857C143.453 40.0671 143.83 38.6171 144.219 37.0865L144.372 36.5093C145.94 30.5749 147.295 25.4461 150.537 22.8682C151.421 22.1566 152.01 21.9955 152.764 21.7806C153.707 21.5121 154.78 21.2033 156.489 19.807C157.726 18.7866 158.363 17.981 158.917 17.2695C159.494 16.5176 159.919 15.9806 160.921 15.363C161.875 14.7723 165.14 12.9999 167.427 14.7453C168.063 15.2287 168.487 15.8865 168.782 16.5578C166.613 16.2893 163.631 16.4504 161.133 18.5852C160.319 19.2834 159.565 20.2367 158.834 21.4987C156.925 24.8016 156.736 27.5405 156.548 30.1989C156.406 32.1457 156.277 33.9852 155.452 35.9991C154.686 37.8385 153.955 38.3755 152.847 39.1676C151.692 40.0001 150.266 41.0338 148.427 43.7996C147.26 45.5719 143.783 50.808 143.783 57.4943C143.783 57.7359 143.783 57.9776 143.795 58.2193C143.96 62.5694 145.598 65.8052 148.062 69.3497C145.634 69.4034 141.438 68.9603 139.116 65.644L139.128 65.6306ZM197.658 74.5725C196.468 75.8345 194.712 75.9822 194.205 75.9956C193.58 76.009 193.062 75.9016 192.52 75.7941C191.624 75.6062 190.681 75.4048 189.338 75.7941C189.302 75.7941 188.442 76.0494 187.581 76.5999C185.189 78.1036 184.116 80.9767 183.492 82.6952C183.362 83.0443 183.256 83.3397 183.15 83.568C182.254 85.5416 179.071 87.1527 175.041 87.7032C169.018 88.5087 160.096 86.9782 154.792 79.9965C153.566 78.372 152.611 76.4925 151.869 74.4248C159.023 83.2995 166.012 85.4342 168.806 85.2731C169.383 85.2463 170.903 85.1656 172.341 84.011C173.65 82.9637 174.345 81.5138 174.734 80.2517C176.255 80.6277 179.06 80.923 181.865 79.1776C185.424 76.9623 186.568 73.0686 186.921 71.095C189.114 71.6857 193.922 72.5183 198.99 70.4104C198.99 71.6456 198.767 73.4178 197.647 74.5859L197.658 74.5725ZM209.693 53.7485C209.457 53.8827 209.28 54.1244 209.221 54.4198C208.643 57.1319 207.017 62.2203 202.621 65.9259C198.46 69.4436 193.852 69.9001 190.61 69.645C192.331 68.826 194.252 67.4163 195.796 65.0265C198.696 60.5421 198.283 55.6415 197.977 53.7216C199.285 52.4998 201.159 50.2442 202.02 46.8474C203.316 46.9145 205.202 46.7265 207.017 45.4241C209.351 43.7593 210.187 41.2084 210.694 39.6913C212.309 34.8579 211.225 30.3466 210.706 28.1715C209.834 24.4927 208.349 21.8478 207.536 20.6126C205.768 17.9139 204.129 16.719 202.397 15.457C201.654 14.9199 200.888 14.3561 200.087 13.6579C198.873 12.5972 197.906 11.4694 197.093 10.3148C199.533 10.5296 202.574 11.3351 205.485 13.5907C210.235 17.256 211.861 22.7071 212.639 25.3252C213.747 29.0577 214.124 33.1393 213.723 37.1268C213.7 37.3551 213.747 37.5833 213.853 37.7713C214.478 38.9259 215.857 42.0274 215.15 45.8942C214.218 51.0096 210.435 53.3188 209.693 53.735L209.693 53.7485Z" fill="#DFD4CF" fill-opacity="0.02"/>
<path d="M249.33 34.2943C249.33 34.2943 249.33 34.2003 249.33 34.1601C249.294 32.3744 248.457 31.5016 247.762 31.072C246.571 30.3335 244.863 30.4006 243.707 31.2062C241.963 32.428 241.362 33.0859 240.29 34.2808L240.195 34.3882C240.007 34.603 239.806 34.8178 239.606 35.0461C238.722 36.0262 237.803 37.0466 237.213 37.4763C237.178 37.4763 237.131 37.5165 237.096 37.5568L237.048 37.5836L237.048 37.6777L237.048 37.7582L237.084 37.7851C237.084 37.7851 237.166 37.8521 237.201 37.8655C237.791 38.2952 238.71 39.3156 239.594 40.2957C239.794 40.5106 239.983 40.7388 240.183 40.9536L240.278 41.061C241.362 42.2559 241.951 42.9004 243.696 44.1356C244.851 44.9546 246.56 45.0083 247.75 44.2698C248.446 43.8402 249.282 42.9542 249.318 41.1819C249.318 41.1416 249.318 41.0878 249.318 41.0475C249.318 38.8456 248.104 37.9999 247.184 37.6643C248.104 37.342 249.318 36.4827 249.318 34.2808L249.33 34.2943Z" fill="#DFD4CF" fill-opacity="0.02"/>
<path d="M106.644 40.497C107.693 39.49 108.813 38.5635 109.98 37.7311L110.18 37.5969L109.98 37.4492C108.672 36.496 107.411 35.4219 106.244 34.2807C105.43 33.4751 104.641 32.6292 103.91 31.7565L103.804 31.6357L103.698 31.7565C102.696 32.9112 101.623 34.012 100.504 35.019C99.5607 35.8783 98.5589 36.6974 97.5334 37.4492L97.345 37.5834L97.5334 37.7311C98.5235 38.483 99.4902 39.3021 100.41 40.1613C101.553 41.222 102.637 42.3766 103.662 43.5849L103.768 43.7193L103.875 43.5849C104.735 42.4974 105.666 41.4637 106.656 40.5104L106.644 40.497Z" fill="#DFD4CF" fill-opacity="0.02"/>
<path d="M104.299 145.584L241.716 145.584C242.317 154.163 248.623 160.93 256.308 160.93C263.992 160.93 270.004 154.459 270.852 146.175C277.594 146.134 284.194 145.06 290.488 142.966C300.601 139.609 309.323 134.386 316.371 127.606C317.974 128.358 319.624 128.815 321.298 128.922C329.466 129.446 335.135 121.914 336.196 120.396C341.452 112.851 342.065 101.143 337.61 93.168C336.868 91.8254 335.807 90.3217 334.557 88.9656L334.557 71.6593C337.504 71.2565 339.79 68.4236 339.79 64.973C339.79 61.2406 337.127 58.2062 333.85 58.2062C330.573 58.2062 327.91 61.2406 327.91 64.973C327.91 68.2893 330.02 71.0416 332.789 71.6189L332.789 87.2605C330.809 85.6091 328.57 84.6021 326.448 85.2197C324.892 85.6627 324.244 86.7637 323.066 88.7508C322.535 89.6369 321.875 90.7513 320.944 92.1611C320.461 92.8995 316.006 99.4917 309.924 104.715C307.602 106.702 305.068 108.474 302.357 109.964C302.345 109.964 302.333 109.978 302.322 109.991C299.905 110.85 298.137 113.388 298.137 116.422C298.137 120.155 300.801 123.189 304.078 123.189C307.354 123.189 310.018 120.155 310.018 116.422C310.018 113.455 308.321 110.958 305.987 110.045C307.732 108.903 309.417 107.668 310.985 106.326C315.287 102.62 318.799 98.2699 320.744 95.6518C321.557 100.405 321.97 105.789 320.991 108.501C320.803 109.011 320.473 109.951 319.695 110.367C319.164 110.649 318.08 110.797 317.455 110.031C317.314 109.843 317.196 109.628 317.125 109.4C317.279 109.441 317.432 109.467 317.585 109.467C318.646 109.467 319.506 108.487 319.506 107.279C319.506 106.071 318.646 105.09 317.585 105.09C317.031 105.09 316.536 105.359 316.194 105.789C316.171 105.816 316.147 105.829 316.123 105.856C316.088 105.909 316.065 105.963 316.029 106.003C316.006 106.044 315.982 106.084 315.959 106.111C315.487 106.89 315.239 107.789 315.239 108.662C315.239 109.655 315.546 110.635 316.147 111.374C317.337 112.837 319.2 112.824 320.426 112.18C321.84 111.441 322.394 109.91 322.629 109.239C324.15 105.01 322.783 96.7125 322.182 93.611C322.252 93.5036 322.311 93.4097 322.347 93.356C323.301 91.906 323.973 90.7782 324.515 89.8652C325.659 87.9319 326 87.4082 326.861 87.1666C329.996 86.267 334.145 90.7648 336.09 94.2422C340.156 101.533 339.59 112.247 334.781 119.148C333.827 120.531 328.676 127.378 321.369 126.908C320.178 126.827 319.011 126.559 317.856 126.102C321.958 121.873 325.446 117.067 328.24 111.75C330.267 107.897 331.929 103.761 333.19 99.4514C333.391 98.7532 333.06 97.9881 332.448 97.7598C331.835 97.5316 331.163 97.9075 330.962 98.6057C329.76 102.728 328.169 106.688 326.236 110.367C318.775 124.572 306.188 134.95 289.816 140.388C283.758 142.402 277.405 143.436 270.911 143.489C270.558 134.641 264.146 127.566 256.296 127.566C248.446 127.566 242.317 134.333 241.705 142.912L104.287 142.912C103.686 134.346 97.3807 127.566 89.696 127.566C82.0114 127.566 75.4579 134.615 75.0808 143.436C68.5865 143.382 62.2221 142.348 56.1639 140.334C39.7927 134.897 27.2047 124.518 19.744 110.313C17.811 106.621 16.2198 102.674 15.0176 98.5519C14.8173 97.8538 14.1454 97.4644 13.5325 97.7061C13.0375 97.894 12.7311 98.4176 12.7311 98.9815C12.7311 99.1157 12.7548 99.2635 12.7901 99.4112C14.0513 103.721 15.7131 107.856 17.7403 111.709C20.5337 117.026 24.0225 121.833 28.1242 126.062C26.9691 126.505 25.8023 126.787 24.6119 126.868C17.3161 127.338 12.1653 120.49 11.1989 119.107C6.39001 112.193 5.82443 101.492 9.89075 94.2019C11.8355 90.711 15.9841 86.2132 19.1192 87.1262C19.9914 87.3813 20.3214 87.8915 21.4765 89.8249C22.0187 90.7379 22.6906 91.8657 23.6453 93.3157C23.6807 93.3694 23.7395 93.4634 23.8102 93.5709C23.4095 95.6385 22.6787 100.002 22.6787 103.949C22.6787 105.923 22.8674 107.789 23.3625 109.199C23.5982 109.857 24.1523 111.387 25.5666 112.126C26.7924 112.77 28.6545 112.784 29.8449 111.32C30.9764 109.924 31.0352 107.709 30.0216 106.057C29.998 106.017 29.9747 105.977 29.9511 105.936C29.9158 105.883 29.8921 105.829 29.8567 105.789C29.8332 105.762 29.8095 105.748 29.7859 105.721C29.4324 105.292 28.9374 105.023 28.3952 105.023C27.3345 105.023 26.4739 106.003 26.4739 107.212C26.4739 108.42 27.3345 109.4 28.3952 109.4C28.5602 109.4 28.7133 109.373 28.8666 109.333C28.7959 109.561 28.6898 109.79 28.5365 109.964C27.9119 110.729 26.8276 110.582 26.2972 110.3C25.5193 109.897 25.1774 108.944 25.0006 108.434C24.0341 105.721 24.4469 100.338 25.2484 95.5848C27.1931 98.2029 30.7052 102.566 35.0072 106.259C36.5748 107.615 38.2605 108.85 40.0049 109.978C37.6712 110.891 35.9738 113.388 35.9738 116.355C35.9738 120.088 38.6375 123.122 41.9142 123.122C45.1907 123.122 47.8545 120.088 47.8545 116.355C47.8545 113.321 46.0747 110.77 43.6585 109.924C43.6585 109.924 43.6467 109.91 43.6349 109.897C40.9358 108.407 38.3901 106.635 36.08 104.647C29.9982 99.4247 25.5428 92.8323 25.0596 92.0938C24.1285 90.6841 23.4684 89.5833 22.938 88.6837C21.7594 86.6966 21.1113 85.6091 19.5555 85.1526C17.4457 84.5484 15.2062 85.5554 13.2143 87.1934L13.2143 71.5519C15.9841 70.9746 18.094 68.2221 18.094 64.9058C18.094 61.1733 15.4302 58.1391 12.1536 58.1391C8.87701 58.1391 6.21326 61.1733 6.21326 64.9058C6.21326 68.3698 8.51154 71.1893 11.4463 71.592L11.4463 88.8984C10.2088 90.2545 9.14816 91.7582 8.39386 93.1008C6.40195 96.6722 5.42367 100.995 5.42367 105.359C5.42367 110.729 6.90872 116.167 9.80813 120.343C10.8571 121.86 16.538 129.392 24.706 128.868C26.3796 128.761 28.0299 128.304 29.6329 127.552C36.6811 134.346 45.403 139.556 55.5156 142.912C61.8095 145.007 68.4098 146.067 75.1634 146.121C75.9884 154.445 82.1881 160.93 89.7078 160.93C97.2275 160.93 103.686 154.163 104.299 145.584ZM329.666 64.9596C329.666 62.3415 331.54 60.2067 333.838 60.2067C336.137 60.2067 338.011 62.3415 338.011 64.9596C338.011 67.5777 336.137 69.7125 333.838 69.7125C331.54 69.7125 329.666 67.5777 329.666 64.9596ZM308.25 116.409C308.25 119.027 306.376 121.162 304.078 121.162C301.779 121.162 299.905 119.027 299.905 116.409C299.905 113.791 301.779 111.656 304.078 111.656C306.376 111.656 308.25 113.791 308.25 116.409ZM46.0984 116.355C46.0984 118.973 44.2243 121.108 41.9259 121.108C39.6276 121.108 37.7535 118.973 37.7535 116.355C37.7535 113.737 39.6276 111.602 41.9259 111.602C44.2243 111.602 46.0984 113.737 46.0984 116.355ZM7.9812 64.9193C7.9812 62.3012 9.85529 60.1665 12.1536 60.1665C14.452 60.1665 16.326 62.3012 16.326 64.9193C16.326 67.5374 14.452 69.6722 12.1536 69.6722C9.85529 69.6722 7.9812 67.5374 7.9812 64.9193ZM256.296 130.251C263.073 130.251 268.589 136.535 268.589 144.255C268.589 151.975 263.073 158.258 256.296 158.258C249.519 158.258 244.003 151.975 244.003 144.255C244.003 136.535 249.519 130.251 256.296 130.251ZM77.4148 144.241C77.4148 136.521 82.9307 130.238 89.7078 130.238C96.485 130.238 102.001 136.521 102.001 144.241C102.001 151.961 96.485 158.245 89.7078 158.245C82.9307 158.245 77.4148 151.961 77.4148 144.241Z" fill="#DFD4CF" fill-opacity="0.02"/>
<path d="M311.892 8.89185C308.91 6.78394 305.48 7.28069 303.194 8.03255C302.074 6.30058 300.295 4.3135 297.725 3.66904C292.586 2.38013 287.365 7.37468 285.491 12.7452C284.925 14.3429 284.642 16.0749 284.642 17.8741C284.642 17.9009 284.642 17.9277 284.642 17.9545C283.923 18.6258 283.216 19.4181 282.58 20.3982C281.837 21.526 281.319 22.7075 280.93 23.889C280.281 22.8283 279.504 21.9018 278.608 21.1634C274.954 18.1559 270.746 19.0554 269.532 19.4045C269.191 19.4985 268.955 19.8476 268.955 20.2503C268.955 20.2503 268.955 20.2638 268.955 20.2772C268.955 20.68 269.226 21.0291 269.579 21.1096C271.253 21.4721 273.752 22.3852 276.062 24.7079C277.912 26.5607 278.985 28.6552 279.621 30.3872L273.881 31.6225C273.599 31.6762 273.375 31.9178 273.292 32.2266C273.21 32.5354 273.292 32.8711 273.492 33.0993L276.309 36.2141L268.389 36.2141C267.964 36.2141 267.623 36.6035 267.623 37.0868C267.623 37.5702 267.964 37.9596 268.389 37.9596L276.227 37.9596L273.386 40.9536C273.221 41.1147 273.139 41.3563 273.139 41.598C273.139 41.692 273.151 41.7727 273.174 41.8666C273.268 42.1889 273.516 42.4305 273.811 42.4707L279.751 43.33C279.138 45.1157 278.054 47.3713 276.074 49.3584C273.752 51.6945 271.265 52.6076 269.591 52.9567C269.237 53.0372 268.978 53.3729 268.966 53.7891C268.966 53.7891 268.966 53.8024 268.966 53.8158C268.966 54.2186 269.202 54.5677 269.544 54.6617C270.746 55.0107 274.966 55.9104 278.62 52.9029C279.504 52.1779 280.281 51.2515 280.93 50.2042C281.236 51.6006 281.719 52.9298 282.568 54.259C283.322 55.4539 284.289 56.4742 285.385 57.3335C285.55 59.7368 286.269 63.8587 289.168 67.2153C289.404 67.4972 295.061 73.9418 300.224 71.2028C302.086 70.2227 303.194 68.4102 303.83 66.8662C305.056 67.1616 306.4 67.2689 307.838 67.0004C308.097 66.9467 314.332 65.725 315.911 59.804C316.465 57.7364 316.253 55.8029 315.9 54.3663C316.772 53.8024 317.573 53.064 318.21 52.151C320.249 49.1972 319.954 45.7199 319.73 44.3773C320.614 43.1287 322.783 39.4633 321.993 34.8849C321.604 32.6025 320.614 30.8974 319.754 29.7831C320.591 26.0237 319.282 22.0898 316.513 19.8611C316.501 18.1023 316.124 11.8725 311.916 8.89185L311.892 8.89185ZM286.917 13.3896C288.567 8.66357 293.176 4.31353 297.395 5.3742C299.304 5.85754 300.707 7.26736 301.662 8.63683C300.177 9.32157 299.246 10.1674 298.35 10.9864C297.23 12.0068 296.181 12.96 293.989 13.7656C292.952 14.1415 292.362 14.2221 291.773 14.3026C291.089 14.3966 290.382 14.5039 289.156 15.041C288.555 15.3095 287.471 15.7929 286.233 16.6522C286.328 15.511 286.552 14.41 286.917 13.3896ZM289.71 16.6657C290.759 16.1957 291.325 16.1152 291.973 16.0212C292.598 15.9272 293.293 15.8332 294.46 15.4035C296.924 14.504 298.196 13.3494 299.316 12.329C300.247 11.4832 301.12 10.691 302.616 10.0599C304.514 9.2812 308.121 8.2742 311.079 10.3553C314.073 12.4632 314.757 16.6388 314.91 18.8273C312.046 17.4712 308.745 18.0888 306.365 20.4518C302.251 19.6999 296.829 20.1698 292.091 21.9286C286.882 23.862 283.193 27.044 281.531 30.9913C281.484 28.1449 281.79 24.5333 283.817 21.4319C285.821 18.3707 288.65 17.1221 289.722 16.6522L289.71 16.6657ZM317.031 33.1932C316.784 34.8849 315.947 36.0396 315.251 36.7512C315.216 36.4961 315.204 36.2411 315.145 35.9994C314.886 34.7105 314.414 33.5155 313.754 32.428C314.191 31.0719 314.627 28.8834 313.99 26.6144C314.698 27.0037 315.487 27.6348 316.1 28.6686C316.489 29.2996 317.337 31.0182 317.019 33.2067L317.031 33.1932ZM315.558 47.1699C314.874 47.7204 314.155 47.9218 313.542 47.9755C315.275 45.156 315.393 40.873 315.381 39.2484C315.994 39.7184 316.854 40.5911 317.184 41.9874C317.644 43.9074 316.984 46.0287 315.558 47.1565L315.558 47.1699ZM282.085 36.966C282.155 35.5966 282.556 32.522 284.642 30.8974C285.738 30.0515 287.742 29.3264 291.089 30.6422C295.415 32.3473 297.666 36.8452 299.859 41.1953C302.063 45.5723 304.149 49.7074 308.144 50.4593C309.37 50.6875 310.313 50.4997 310.973 50.2446C310.773 50.8487 310.502 51.3722 310.136 51.7884C308.816 53.319 306.624 53.3058 303.3 52.7821C294.331 51.3724 289.828 50.6608 286.646 47.0357C284.383 44.4579 282.815 40.9805 282.085 36.966ZM310.796 48.4722C310.136 48.8213 309.288 48.9154 308.38 48.7543C305.103 48.1501 303.276 44.5384 301.178 40.3495C300.955 39.9064 300.719 39.4365 300.483 38.98L302.652 38.98C302.793 40.0004 303.064 40.8194 303.276 41.343C303.618 42.1754 304.927 44.9545 307.708 45.9212C308.168 46.0823 309.111 46.4181 310.219 46.2167C311.385 46.0019 312.47 45.2366 313.366 44.0417C312.965 45.8811 312.211 47.7204 310.796 48.4722ZM309.476 30.6021C310.219 30.7229 310.832 31.1927 311.327 31.7164C310.667 31.8506 309.936 32.1326 309.24 32.7233C307.225 34.4285 306.942 37.4762 307.52 39.5841C308.062 41.598 309.075 42.887 310.36 43.2227C310.902 43.3704 311.456 43.3435 312.01 43.1689C311.397 43.894 310.702 44.3639 309.971 44.4981C309.217 44.6324 308.522 44.3907 308.144 44.2698C305.976 43.5179 304.926 41.2892 304.655 40.6179C304.349 39.8661 303.866 38.3221 304.16 36.5096C304.632 33.5156 307.107 30.2261 309.476 30.6155L309.476 30.6021ZM313.743 38.1072C313.743 38.1072 313.813 38.1743 313.837 38.2146C313.837 38.3489 313.837 38.4697 313.837 38.604C313.837 38.604 313.813 38.604 313.802 38.6309C312.87 39.5036 311.951 39.5305 311.786 39.3425C311.692 39.2485 311.609 38.7652 311.774 38.161C311.916 37.6105 312.211 37.1809 312.493 37.1272C312.824 37.06 313.378 37.4091 313.743 38.1341L313.743 38.1072ZM312.211 35.3951C311.338 35.5831 310.631 36.429 310.313 37.6508C310.219 38.0133 310.16 38.4161 310.16 38.8189C310.16 39.4768 310.313 40.1211 310.737 40.5911C311.114 41.0073 311.657 41.1819 312.258 41.155C311.727 41.5041 311.173 41.6384 310.726 41.5175C309.995 41.3296 309.382 40.4568 309.005 39.0605C308.569 37.4627 308.828 35.2609 310.183 34.1197C310.985 33.4484 311.881 33.3409 312.505 33.3678C312.918 34.0525 313.248 34.7775 313.472 35.5562C313.059 35.3683 312.635 35.3011 312.234 35.3951L312.211 35.3951ZM311.244 26.8292C312.187 27.7422 312.387 29.246 312.364 30.4409C311.692 29.7159 310.808 29.058 309.7 28.8835C306.412 28.333 303.265 32.2802 302.652 36.1872C302.593 36.5497 302.569 36.8854 302.557 37.2211L300.554 37.2211C301.98 32.8039 304.95 26.3593 308.533 26.0371C308.957 25.9968 310.266 25.8894 311.232 26.8158L311.244 26.8292ZM311.291 24.8287C310.478 24.3991 309.523 24.2111 308.427 24.3051C303.571 24.7213 300.389 32.7904 299.163 36.5229C297.336 33.3409 295.061 30.3737 291.585 29.0042C288.331 27.7153 286.092 28.1451 284.63 28.9238C286.434 26.695 289.133 24.8689 292.574 23.5935C299.08 21.1902 307.201 21.2842 310.301 23.8218C310.69 24.144 311.02 24.4796 311.303 24.8287L311.291 24.8287ZM277.075 23.4191C275.944 22.2913 274.789 21.4588 273.681 20.8412C274.954 21.0157 276.38 21.499 277.712 22.5865C278.808 23.486 279.727 24.7347 280.364 26.1713C280.27 26.6681 280.199 27.1649 280.14 27.6616C279.421 26.2519 278.443 24.7751 277.075 23.4056L277.075 23.4191ZM275.626 40.9805L278.702 37.7447C278.702 37.7447 278.702 37.7447 278.702 37.7313C278.749 37.6776 278.796 37.6104 278.832 37.5298C278.843 37.503 278.867 37.4762 278.879 37.4494C278.902 37.3822 278.914 37.3151 278.926 37.2345C278.926 37.1942 278.95 37.154 278.95 37.1137C278.95 36.872 278.855 36.6573 278.714 36.4962L275.614 33.059L280.022 32.1058C280.046 32.6294 280.069 33.1127 280.093 33.5557C280.164 34.7372 280.305 35.9187 280.529 37.0734C280.305 38.5906 280.199 40.1212 280.163 41.6383L275.626 40.9805ZM280.411 47.8009C279.775 49.2912 278.843 50.5667 277.712 51.4931C276.38 52.5806 274.954 53.064 273.681 53.2386C274.789 52.621 275.956 51.7885 277.075 50.6607C278.561 49.1704 279.598 47.5324 280.329 46.0153C280.387 46.5792 280.446 47.1162 280.505 47.6532C280.47 47.7069 280.435 47.7472 280.411 47.8009ZM299.552 69.6185C295.356 71.8338 290.276 66.0472 290.229 65.9935C288.119 63.5499 287.318 60.6096 287.011 58.4479C287.129 58.5151 287.247 58.5957 287.365 58.6628C288.685 59.3207 289.545 59.4145 290.382 59.5085C291.031 59.5756 291.714 59.6562 292.704 60.0187C294.248 60.596 294.932 61.2674 295.816 62.1267C296.535 62.8249 297.348 63.6305 298.75 64.5166C299.611 65.0671 300.825 65.8322 302.298 66.3961C301.756 67.5911 300.896 68.9069 299.552 69.6185ZM314.426 59.3072C313.118 64.1944 307.626 65.2684 307.567 65.2818C304.125 65.9263 301.108 64.0064 299.493 62.986C298.232 62.1804 297.501 61.4823 296.806 60.7975C295.875 59.898 295.002 59.0386 293.176 58.3539C292.02 57.9242 291.231 57.8438 290.524 57.7632C289.746 57.6826 289.074 57.602 287.978 57.0516C286.257 56.1923 284.807 54.8766 283.782 53.252C282.367 51.0233 282.144 48.8213 281.837 45.7601C281.696 44.3504 281.637 42.9273 281.672 41.5041C282.591 44.1088 283.9 46.418 285.538 48.2842C289.086 52.3255 293.765 53.064 303.064 54.5274C304.88 54.8094 306.635 54.9974 308.168 54.702C308.262 54.89 308.404 55.0377 308.592 55.1048C310.572 55.8701 312.623 55.803 314.45 55.1048C314.709 56.2595 314.839 57.7498 314.415 59.3072L314.426 59.3072ZM316.984 51.077C315.476 53.2655 312.93 54.2723 310.372 53.8024C310.667 53.5876 310.961 53.3325 311.22 53.0237C311.963 52.1779 312.434 51.0501 312.682 49.7209C313.648 49.8015 315.086 49.6805 316.43 48.6064C317.267 47.9351 317.903 46.9953 318.316 45.9481C318.375 47.331 318.186 49.3182 316.972 51.077L316.984 51.077ZM320.461 35.2206C321.05 38.6308 319.671 41.4504 318.823 42.793C318.799 42.3633 318.752 41.9472 318.646 41.531C318.21 39.7319 317.196 38.5906 316.371 37.9193C317.243 37.0063 318.222 35.5563 318.528 33.4887C318.669 32.5355 318.634 31.6761 318.528 30.8974C319.259 31.8372 320.119 33.2738 320.461 35.2206ZM318.198 29.4741C317.927 28.6417 317.597 28.0107 317.373 27.6616C315.959 25.3389 313.884 24.5871 312.941 24.3588C312.493 23.701 311.916 23.0029 311.185 22.4121C310.454 21.8079 309.488 21.3379 308.356 20.9754C310.478 19.5388 313.153 19.4986 315.31 21.0426C317.809 22.8283 318.964 26.2653 318.198 29.4876L318.198 29.4741Z" fill="#DFD4CF" fill-opacity="0.02"/>
<path d="M35.8439 66.4363C38.8259 68.5442 42.2555 68.0474 44.5421 67.2956C45.6618 69.0275 47.4417 71.0146 50.0111 71.6591C55.15 72.948 60.3712 67.9534 62.2452 62.5829C62.811 60.9584 63.082 59.1995 63.082 57.3736C63.801 56.7023 64.5081 55.8968 65.1446 54.9166C65.8871 53.7888 66.4177 52.6208 66.8067 51.4393C67.4549 52.4866 68.2328 53.4262 69.1285 54.1513C72.7823 57.1587 77.0018 56.2593 78.204 55.9102C78.5576 55.8162 78.7933 55.4402 78.7815 55.0374C78.7815 54.6347 78.5104 54.2856 78.1568 54.205C76.4831 53.8425 73.9844 52.9296 71.6743 50.6069C69.8238 48.7541 68.7512 46.6595 68.1148 44.9275L73.8549 43.6924C74.1377 43.6387 74.3617 43.3969 74.4442 43.0881C74.5267 42.7793 74.444 42.4438 74.2436 42.2155L71.4386 39.1006L79.359 39.1006C79.7833 39.1006 80.125 38.7112 80.125 38.2278C80.125 37.7445 79.7833 37.3551 79.359 37.3551L71.5212 37.3551L74.3616 34.3611C74.5855 34.1328 74.6562 33.7704 74.5737 33.4482C74.4794 33.126 74.2318 32.8842 73.9372 32.8439L67.9971 31.9846C68.61 30.1989 69.6942 27.9434 71.6743 25.9563C73.9962 23.6335 76.4831 22.7072 78.1568 22.3581C78.5104 22.2776 78.7697 21.9419 78.7815 21.5257C78.8051 21.1095 78.5576 20.747 78.204 20.653C77.0018 20.3039 72.7941 19.4044 69.1285 22.4119C68.2446 23.1369 67.4667 24.0632 66.8185 25.1104C66.512 23.7141 66.0286 22.385 65.18 21.0558C64.4257 19.8609 63.4593 18.8405 62.3632 17.9812C62.1982 15.5779 61.479 11.4561 58.5795 8.09954C58.3438 7.8176 52.6865 1.37306 47.5241 4.11201C45.6618 5.09212 44.5538 6.90463 43.9174 8.44864C42.6916 8.15326 41.3363 8.04589 39.8983 8.31441C39.639 8.36811 33.404 9.60329 31.8246 15.4974C31.5771 16.4104 31.4827 17.2964 31.4827 18.1289C31.4827 19.1761 31.636 20.1427 31.8364 20.9349C30.9642 21.4988 30.1628 22.2373 29.5263 23.1502C27.4873 26.0906 27.7937 29.568 28.0058 30.9241C27.2515 31.9847 25.5778 34.7908 25.5778 38.4292C25.5778 39.0737 25.6251 39.7316 25.7429 40.4163C26.1319 42.6988 27.1218 44.4174 27.9822 45.5183C27.1572 49.2642 28.4537 53.2115 31.2235 55.4403C31.2235 57.2797 31.589 63.4153 35.8203 66.4094L35.8439 66.4363ZM60.8191 61.9385C59.169 66.6645 54.5604 71.0146 50.3409 69.9539C48.4315 69.4706 47.0291 68.0609 46.0744 66.6914C47.5595 66.0067 48.4906 65.1609 49.3864 64.3419C50.5061 63.3215 51.555 62.3681 53.7473 61.576C54.7845 61.2001 55.3737 61.1194 55.963 61.0255C56.6466 60.9315 57.3537 60.8242 58.5795 60.2871C59.1688 60.0186 60.2652 59.5352 61.5028 58.6759C61.4085 59.8037 61.1845 60.9181 60.8191 61.9385ZM58.0256 58.6626C56.9766 59.1325 56.411 59.2131 55.7627 59.307C55.138 59.401 54.4425 59.495 53.2757 59.9246C50.8123 60.8241 49.5396 61.9788 48.4198 62.9992C47.4887 63.8451 46.6165 64.6372 45.1196 65.2682C43.222 66.0603 39.6155 67.0539 36.6571 64.9728C33.6869 62.8649 32.9798 58.7028 32.8265 56.5143C35.6906 57.8703 38.9908 57.2528 41.3716 54.8898C45.4851 55.6416 50.9066 55.1718 55.6447 53.4129C60.8543 51.4796 64.5437 48.2975 66.2055 44.3502C66.2527 47.1966 65.946 50.8082 63.9188 53.9097C61.9033 56.9709 59.0864 58.2194 58.0138 58.6893L58.0256 58.6626ZM30.7049 42.1349C30.9525 40.4566 31.7775 39.3019 32.4729 38.5904C32.5082 38.832 32.5319 39.0872 32.5909 39.3289C32.8502 40.6044 33.3333 41.826 33.9934 42.9136C33.6162 44.0682 33.4159 45.2363 33.4159 46.3373C33.4159 47.1697 33.5455 47.9619 33.7577 48.7272C33.0505 48.3378 32.2608 47.7068 31.6243 46.6729C31.2354 46.0419 30.3749 44.3234 30.7049 42.1349ZM32.1782 28.1582C32.8618 27.6077 33.5926 27.4064 34.2054 27.3526C32.5318 30.0916 32.3549 34.2135 32.3549 35.7709C32.3549 35.8917 32.3549 35.9857 32.3549 36.0662C31.742 35.5963 30.8819 34.7236 30.5519 33.3272C30.0922 31.4073 30.7521 29.286 32.1782 28.1447L32.1782 28.1582ZM65.6631 38.3621C65.5924 39.7315 65.18 42.8196 63.1056 44.4307C62.0095 45.2766 60.0058 46.0017 56.6585 44.6859C52.3329 42.9808 50.0818 38.483 47.8895 34.1329C45.6855 29.756 43.5993 25.6207 39.6037 24.8688C38.3779 24.6406 37.4351 24.8286 36.7633 25.0837C36.9636 24.4795 37.2347 23.9559 37.6001 23.5397C38.9201 22.0091 41.1122 22.0225 44.4359 22.5461C53.4053 23.9559 57.9079 24.6673 61.0902 28.2924C63.3531 30.8702 64.9206 34.3476 65.6513 38.3621L65.6631 38.3621ZM36.94 26.8693C37.5882 26.5202 38.4487 26.4263 39.3562 26.5874C42.6328 27.1916 44.4595 30.8167 46.5575 34.9922C46.7815 35.4353 47.0173 35.9051 47.253 36.3616L45.0842 36.3616C44.9428 35.3412 44.6717 34.5222 44.4595 33.9985C44.0234 32.9379 42.7269 30.3602 40.0278 29.4203C39.5682 29.2592 38.6254 28.9369 37.5175 29.1383C36.3388 29.3531 35.2546 30.1318 34.3588 31.3267C34.7596 29.4739 35.5256 27.6346 36.94 26.8828L36.94 26.8693ZM38.2599 44.7262C37.5173 44.6054 36.9047 44.1354 36.4096 43.6117C37.0697 43.4775 37.8004 43.1821 38.4958 42.6048C40.4995 40.8997 40.7941 37.8519 40.2166 35.744C39.5094 33.1662 38.2835 32.3472 37.3759 32.1056C36.8337 31.9579 36.2681 31.9846 35.7259 32.1592C36.3388 31.4342 37.0342 30.9642 37.7649 30.83C38.5193 30.6957 39.2147 30.9375 39.5919 31.0583C41.7606 31.8102 42.8095 34.0389 43.0806 34.7102C43.387 35.4755 43.8584 37.0196 43.5755 38.8187C43.1041 41.8127 40.6289 45.1021 38.2599 44.6993L38.2599 44.7262ZM33.9934 37.2209C33.9934 37.2209 33.9226 37.1538 33.899 37.1135C33.899 36.9792 33.899 36.8584 33.899 36.7241C33.899 36.7241 33.9226 36.7241 33.9344 36.6972C34.8655 35.8245 35.773 35.7978 35.9498 35.9858C35.997 36.0395 36.056 36.2409 36.056 36.5094C36.056 36.6974 36.0323 36.9256 35.9616 37.1673C35.8202 37.7177 35.5257 38.1472 35.2546 38.2009C34.9246 38.2681 34.3705 37.919 33.9934 37.194L33.9934 37.2209ZM35.5257 39.9464C36.3978 39.7585 37.1049 38.9125 37.4231 37.6907C37.6588 36.7643 37.6826 35.5024 36.9989 34.7505C36.6218 34.3343 36.0796 34.1597 35.4785 34.1865C36.0089 33.8375 36.5629 33.7033 37.0107 33.8242C37.7415 34.0121 38.3543 34.8848 38.7315 36.2811C39.1676 37.8788 38.9083 40.0806 37.5529 41.2218C36.7396 41.9066 35.8085 42.0006 35.231 41.9738C34.8303 41.3025 34.4884 40.564 34.2644 39.7987C34.677 39.9867 35.1013 40.0538 35.5021 39.9599L35.5257 39.9464ZM36.4919 48.4989C35.549 47.5859 35.3487 46.0823 35.3723 44.8873C36.0441 45.6123 36.9281 46.2701 38.036 46.4446C41.3244 46.9951 44.4713 43.0479 45.0842 39.1409C45.1432 38.7784 45.1668 38.4427 45.1786 38.107L47.1822 38.107C45.7561 42.5243 42.7859 48.9688 39.2028 49.291C38.7785 49.3313 37.4702 49.4387 36.5037 48.5123L36.4919 48.4989ZM36.4568 50.4994C37.2701 50.929 38.2247 51.117 39.3208 51.023C44.1768 50.6068 47.359 42.5377 48.5847 38.8052C50.4116 41.9872 52.6866 44.9544 56.1636 46.3239C59.4166 47.6128 61.6559 47.1832 63.1174 46.4045C61.3141 48.6332 58.615 50.4592 55.1734 51.7346C48.6673 54.1379 40.5465 54.0439 37.4467 51.5063C37.0577 51.1841 36.7279 50.8485 36.4568 50.5128L36.4568 50.4994ZM70.6605 51.9092C71.792 53.037 72.9472 53.8693 74.0551 54.4869C72.7822 54.3124 71.3562 53.8291 70.0243 52.7416C68.9164 51.8286 68.0324 50.6202 67.3842 49.1568C67.4785 48.66 67.5491 48.1498 67.6081 47.6665C68.327 49.0628 69.3051 50.5397 70.6605 51.9092ZM72.1105 34.3476L69.0342 37.5834C68.987 37.6371 68.9397 37.7177 68.9044 37.7848C68.8926 37.8117 68.8693 37.8384 68.8575 37.8653C68.8339 37.9324 68.8221 37.9996 68.8103 38.0802C68.8103 38.1204 68.7867 38.1607 68.7867 38.2009C68.7867 38.4426 68.8809 38.6576 69.0224 38.8187L72.1223 42.2557L67.7139 43.2091C67.6904 42.6854 67.667 42.202 67.6434 41.7589C67.5727 40.5774 67.4312 39.3959 67.2072 38.2413C67.4312 36.7241 67.5491 35.1935 67.5845 33.6763L72.1105 34.3342L72.1105 34.3476ZM67.3252 27.5272C67.9734 26.01 68.881 24.7748 70.0243 23.835C71.3562 22.7475 72.7822 22.2506 74.0551 22.0895C72.9472 22.7071 71.7802 23.5396 70.6605 24.6674C69.1637 26.1577 68.1385 27.7957 67.4078 29.3128C67.3488 28.7489 67.2897 28.2119 67.2308 27.6749C67.2662 27.6212 67.3016 27.5809 67.3252 27.5272ZM48.1842 5.72308C52.3801 3.49434 57.4599 9.29438 57.5071 9.34809C59.6168 11.7917 60.4183 14.732 60.7247 16.8936C60.6069 16.8265 60.4889 16.746 60.3711 16.6789C59.051 16.021 58.1908 15.927 57.354 15.833C56.7057 15.7659 56.0222 15.6853 55.0321 15.3228C53.4881 14.7455 52.8043 14.0741 51.9204 13.2148C51.2014 12.5167 50.3881 11.7112 48.9856 10.8251C48.1252 10.2746 46.9112 9.5093 45.4379 8.9454C45.98 7.75047 46.8405 6.43467 48.1842 5.72308ZM33.3097 16.021C34.6062 11.1473 40.1105 10.0597 40.1576 10.0463C43.5992 9.40182 46.6166 11.3219 48.2314 12.3423C49.4925 13.1478 50.223 13.8458 50.9184 14.5306C51.8495 15.4436 52.7218 16.2895 54.5487 16.9742C55.7038 17.4039 56.4934 17.4844 57.2006 17.5649C57.9785 17.6455 58.6505 17.7261 59.7467 18.2765C61.4675 19.1358 62.917 20.4517 63.9424 22.0763C65.3567 24.305 65.5808 26.5068 65.8873 29.568C66.0287 30.9778 66.0875 32.401 66.0522 33.8242C65.1211 31.2195 63.8245 28.9101 62.1862 27.0304C58.6385 22.9892 53.9595 22.2507 44.6483 20.7872C42.8332 20.5053 41.0769 20.3173 39.5447 20.6127C39.4504 20.4247 39.3089 20.2771 39.1321 20.21C37.152 19.4581 35.1012 19.5118 33.2743 20.21C33.015 19.0553 32.8972 17.565 33.3097 16.0076L33.3097 16.021ZM30.7521 24.2513C32.2608 22.0628 34.8065 21.0558 37.3641 21.5257C37.0694 21.7405 36.7748 21.9956 36.5155 22.3044C35.773 23.1637 35.3015 24.278 35.054 25.6072C34.0876 25.5266 32.6497 25.6476 31.3061 26.7217C30.4692 27.393 29.8326 28.3193 29.4201 29.3666C29.3612 27.9837 29.5499 25.9967 30.7639 24.2513L30.7521 24.2513ZM27.2752 40.1075C26.6859 36.6973 28.053 33.8778 28.9134 32.5351C28.937 32.9648 28.9843 33.3811 29.0904 33.8107C29.5265 35.6098 30.54 36.751 31.365 37.4223C30.4929 38.3353 29.5145 39.7854 29.1963 41.853C29.1255 42.2961 29.1022 42.7256 29.1022 43.1284C29.1022 43.5983 29.1491 44.0279 29.208 44.4442C28.4773 43.5043 27.617 42.0812 27.2752 40.121L27.2752 40.1075ZM29.5381 45.854C29.8092 46.6864 30.1391 47.3174 30.3631 47.6665C31.7774 49.9892 33.8519 50.741 34.8066 50.9693C35.2309 51.6003 35.7966 52.2986 36.5627 52.9162C37.2935 53.5203 38.2601 53.9902 39.3916 54.3527C37.2701 55.7893 34.5944 55.8297 32.4375 54.2857C29.9388 52.5 28.7838 49.0762 29.5499 45.8405L29.5381 45.854Z" fill="#DFD4CF" fill-opacity="0.02"/>
<path d="M332.141 10.9595C332.141 12.2127 333.033 13.2285 334.133 13.2285C335.233 13.2285 336.125 12.2127 336.125 10.9595C336.125 9.70639 335.233 8.69043 334.133 8.69043C333.033 8.69043 332.141 9.70639 332.141 10.9595Z" fill="#DFD4CF" fill-opacity="0.02"/>
<path d="M331.847 64.9594C331.847 66.2125 332.738 67.2283 333.838 67.2283C334.939 67.2283 335.831 66.2125 335.831 64.9594C335.831 63.7062 334.939 62.6904 333.838 62.6904C332.738 62.6904 331.847 63.7062 331.847 64.9594Z" fill="#DFD4CF" fill-opacity="0.02"/>
<path d="M17.8112 10.9058C17.8112 7.58955 15.7013 4.83724 12.9315 4.25992L12.9315 -11.3816C14.9116 -9.7302 17.1512 -8.72321 19.2727 -9.34081C20.8285 -9.78388 21.4767 -10.8848 22.6553 -12.8719C23.1857 -13.758 23.8458 -14.8724 24.7769 -16.2688C25.2601 -17.0072 29.7155 -23.5994 35.7972 -28.8222C38.1074 -30.8093 40.6531 -32.5816 43.3522 -34.0719C43.3522 -34.0719 43.364 -34.0854 43.3758 -34.0988C45.792 -34.9581 47.5718 -37.4955 47.5718 -40.5298C47.5718 -44.2623 44.908 -47.2967 41.6314 -47.2967C38.3548 -47.2967 35.691 -44.2623 35.691 -40.5298C35.691 -37.5626 37.3882 -35.0654 39.7219 -34.1524C37.9657 -33.0111 36.2921 -31.7761 34.7245 -30.4335C30.4225 -26.7278 26.9104 -22.3777 24.9656 -19.7595C24.1524 -24.5124 23.7396 -29.8964 24.7179 -32.6085C24.8947 -33.1187 25.2366 -34.0585 26.0145 -34.4748C26.5449 -34.7567 27.6291 -34.9044 28.2538 -34.1391C28.3952 -33.9511 28.5131 -33.7362 28.5838 -33.5079C28.4306 -33.5482 28.2775 -33.5751 28.1125 -33.5751C27.0517 -33.5751 26.1912 -32.595 26.1912 -31.3867C26.1912 -30.1783 27.0517 -29.1982 28.1125 -29.1982C28.6665 -29.1982 29.1496 -29.4667 29.5032 -29.8829C29.5268 -29.9098 29.5504 -29.9231 29.574 -29.95C29.6094 -30.0037 29.633 -30.0575 29.6684 -30.1112C29.692 -30.1515 29.7153 -30.1783 29.7271 -30.2186C30.7289 -31.8834 30.6819 -34.0854 29.5504 -35.4817C28.36 -36.9452 26.4979 -36.9317 25.2721 -36.2873C23.8577 -35.5488 23.3036 -34.0181 23.0679 -33.3468C22.5611 -31.9371 22.3724 -30.071 22.3724 -28.0973C22.3724 -24.1366 23.1152 -19.7729 23.5041 -17.7187C23.4334 -17.6113 23.3743 -17.5174 23.339 -17.4637C22.3843 -16.0137 21.7124 -14.8859 21.1702 -13.9729C20.0269 -12.0396 19.6851 -11.5159 18.8247 -11.2608C15.6895 -10.3613 11.541 -14.8591 9.59619 -18.3365C5.5299 -25.6269 6.09549 -36.3274 10.9043 -43.2419C11.859 -44.6248 17.0216 -51.4722 24.3174 -51.0023C25.496 -50.9217 26.6746 -50.6533 27.8296 -50.1968C23.728 -45.9675 20.2392 -41.1743 17.4458 -35.8441C15.4185 -31.9908 13.7567 -27.8556 12.4956 -23.5458C12.4602 -23.4116 12.4366 -23.2638 12.4366 -23.1161C12.4366 -22.5522 12.743 -22.0286 13.238 -21.8407C13.8509 -21.6124 14.5227 -21.9884 14.7231 -22.6865C15.9253 -26.8084 17.5165 -30.7691 19.4494 -34.4479C26.9102 -48.6528 39.4982 -59.0312 55.8694 -64.4688C62.0455 -66.523 68.5042 -67.5567 75.1045 -67.5702C75.6938 -58.9774 81.9997 -52.1838 89.6962 -52.1838C97.3927 -52.1838 103.675 -58.9507 104.288 -67.53L241.705 -67.53C242.306 -58.9641 248.611 -52.1838 256.296 -52.1838C263.981 -52.1838 270.275 -58.9507 270.888 -67.5166C277.476 -67.5031 283.935 -66.4692 290.111 -64.415C306.471 -58.9774 319.07 -48.599 326.531 -34.3941C328.464 -30.7019 330.055 -26.7546 331.257 -22.6328C331.458 -21.9346 332.129 -21.5452 332.742 -21.7869C333.355 -22.0151 333.685 -22.7804 333.485 -23.4786C332.224 -27.7884 330.562 -31.9237 328.535 -35.777C325.741 -41.0938 322.241 -45.9003 318.151 -50.1296C319.306 -50.5726 320.485 -50.8545 321.663 -50.9351C328.947 -51.405 334.11 -44.5578 335.076 -43.1749C339.885 -36.2604 340.451 -25.5597 336.384 -18.2692C334.44 -14.7784 330.291 -10.2806 327.156 -11.1936C326.283 -11.4487 325.953 -11.9589 324.798 -13.9057C324.256 -14.8187 323.584 -15.9465 322.63 -17.3965C322.594 -17.4502 322.535 -17.5443 322.465 -17.6517C323.066 -20.7531 324.421 -29.0505 322.912 -33.2798C322.677 -33.9377 322.123 -35.4682 320.709 -36.2066C319.483 -36.8511 317.62 -36.8645 316.43 -35.4011C315.829 -34.6626 315.522 -33.6825 315.522 -32.689C315.522 -31.8028 315.77 -30.9032 316.253 -30.1245C316.277 -30.0977 316.289 -30.0574 316.312 -30.0306C316.348 -29.9769 316.371 -29.9232 316.406 -29.8695C316.43 -29.8426 316.454 -29.8291 316.477 -29.8023C316.831 -29.3861 317.314 -29.1175 317.868 -29.1175C318.929 -29.1175 319.789 -30.0977 319.789 -31.306C319.789 -32.5144 318.929 -33.4945 317.868 -33.4945C317.703 -33.4945 317.55 -33.4677 317.397 -33.4275C317.467 -33.6691 317.573 -33.8839 317.727 -34.0584C318.351 -34.8237 319.435 -34.6761 319.966 -34.3941C320.744 -33.9913 321.086 -33.038 321.262 -32.5278C322.241 -29.8158 321.816 -24.4319 321.015 -19.6791C319.07 -22.2972 315.558 -26.6606 311.256 -30.3528C309.688 -31.7089 308.003 -32.9441 306.258 -34.0719C308.592 -34.9849 310.289 -37.4821 310.289 -40.4493C310.289 -44.1818 307.626 -47.2162 304.349 -47.2162C301.072 -47.2162 298.409 -44.1818 298.409 -40.4493C298.409 -37.415 300.177 -34.8774 302.605 -34.0181C302.616 -34.0181 302.628 -34.0047 302.64 -33.9913C305.339 -32.5009 307.885 -30.7288 310.195 -28.7417C316.277 -23.5189 320.732 -16.9266 321.215 -16.1881C322.146 -14.7784 322.807 -13.6775 323.337 -12.7914C324.516 -10.8043 325.164 -9.70339 326.719 -9.26032C328.829 -8.65615 331.069 -9.66314 333.061 -11.3011L333.061 4.3404C330.291 4.91773 328.181 7.6702 328.181 10.9865C328.181 14.7189 330.845 17.7532 334.121 17.7532C337.398 17.7532 340.062 14.7189 340.062 10.9865C340.062 7.52251 337.763 4.70287 334.829 4.30009L334.829 -13.0061C336.066 -14.3622 337.127 -15.8659 337.881 -17.2085C342.325 -25.1837 341.712 -36.8914 336.467 -44.4503C335.406 -45.9675 329.737 -53.4995 321.569 -52.9759C319.895 -52.8685 318.245 -52.412 316.642 -51.6602C309.594 -58.4538 300.872 -63.6633 290.76 -67.0198C284.371 -69.1411 277.688 -70.2017 270.876 -70.2285C270.275 -78.8078 263.969 -85.5747 256.285 -85.5747C248.6 -85.5747 242.306 -78.8078 241.693 -70.2285L104.276 -70.2285C103.675 -78.8079 97.3691 -85.5747 89.6844 -85.5747C81.9997 -85.5747 75.7174 -78.8348 75.1045 -70.2823C68.2802 -70.2689 61.5975 -69.1947 55.2093 -67.0734C45.0966 -63.7169 36.3748 -58.4942 29.3265 -51.7139C27.7236 -52.4658 26.0733 -52.9223 24.3996 -53.0297C16.2435 -53.5533 10.5626 -46.0212 9.50183 -44.5041C6.60238 -40.342 5.11734 -34.9043 5.11734 -29.5204C5.11734 -25.1569 6.09561 -20.8337 8.08752 -17.2623C8.83004 -15.9197 9.89065 -14.4159 11.14 -13.0599L11.14 4.24647C8.19342 4.64926 5.90692 7.48216 5.90692 10.9327C5.90692 14.6652 8.57067 17.6995 11.8473 17.6995C15.1239 17.6995 17.7877 14.6652 17.7877 10.9327L17.8112 10.9058ZM37.459 -40.5298C37.459 -43.1479 39.3331 -45.2827 41.6314 -45.2827C43.9297 -45.2827 45.8038 -43.1479 45.8038 -40.5298C45.8038 -37.9117 43.9297 -35.7771 41.6314 -35.7771C39.3331 -35.7771 37.459 -37.9117 37.459 -40.5298ZM300.189 -40.4762C300.189 -43.0943 302.062 -45.229 304.361 -45.229C306.659 -45.229 308.533 -43.0943 308.533 -40.4762C308.533 -37.8581 306.659 -35.7233 304.361 -35.7233C302.062 -35.7233 300.189 -37.8581 300.189 -40.4762ZM338.305 10.9596C338.305 13.5777 336.431 15.7123 334.133 15.7123C331.835 15.7123 329.961 13.5777 329.961 10.9596C329.961 8.34148 331.835 6.20666 334.133 6.20666C336.431 6.20666 338.305 8.34148 338.305 10.9596ZM256.296 -82.9164C263.073 -82.9164 268.589 -76.6328 268.589 -68.9128C268.589 -61.1927 263.073 -54.9094 256.296 -54.9094C249.519 -54.9094 244.003 -61.1927 244.003 -68.9128C244.003 -76.6328 249.519 -82.9164 256.296 -82.9164ZM89.708 -82.9164C96.4851 -82.9164 102.001 -76.6328 102.001 -68.9128C102.001 -61.1927 96.4851 -54.9094 89.708 -54.9094C82.9308 -54.9094 77.4149 -61.1927 77.4149 -68.9128C77.4149 -76.6328 82.9308 -82.9164 89.708 -82.9164ZM7.69848 10.9058C7.69848 8.2877 9.57254 6.15289 11.8709 6.15289C14.1692 6.15289 16.0433 8.2877 16.0433 10.9058C16.0433 13.5239 14.1692 15.6587 11.8709 15.6587C9.57254 15.6587 7.69848 13.5239 7.69848 10.9058Z" fill="#DFD4CF" fill-opacity="0.02"/>
<path d="M9.87866 10.9057C9.87866 12.1588 10.7704 13.1748 11.8705 13.1748C12.9706 13.1748 13.8623 12.1588 13.8623 10.9057C13.8623 9.65252 12.9706 8.63672 11.8705 8.63672C10.7704 8.63672 9.87866 9.65252 9.87866 10.9057Z" fill="#DFD4CF" fill-opacity="0.02"/>
<path d="M10.1614 64.9193C10.1614 66.1725 11.0531 67.1884 12.1532 67.1884C13.2533 67.1884 14.145 66.1725 14.145 64.9193C14.145 63.6662 13.2533 62.6504 12.1532 62.6504C11.0531 62.6504 10.1614 63.6662 10.1614 64.9193Z" fill="#DFD4CF" fill-opacity="0.02"/>
<path d="M274.918 -0.43922C274.918 -3.21844 275.484 -9.8241 280.435 -14.5098C285.88 -19.6655 292.421 -18.4303 294.295 -17.9201C300.436 -16.2821 303.442 -10.9923 303.654 -9.79739C303.866 -8.61589 303.607 -7.66257 303.571 -7.55516C303.477 -7.24636 303.371 -7.01812 303.312 -6.88385C302.758 -5.90374 301.956 -5.48746 301.379 -5.29949C300.966 -5.16523 300.542 -5.43385 300.436 -5.90377C300.318 -6.36026 300.554 -6.8435 300.966 -6.97777C301.296 -7.08517 301.744 -7.31355 302.003 -7.78347C302.003 -7.81032 302.074 -7.94457 302.121 -8.10568C302.121 -8.10568 302.286 -8.72329 302.157 -9.4483C302.027 -10.0256 299.552 -14.7247 293.954 -16.2284C292.256 -16.6849 286.316 -17.8127 281.425 -13.1672C276.533 -8.53518 276.404 -1.78188 276.474 0.191771C276.722 6.58263 280.246 12.4632 285.691 15.5378C286.069 15.7526 286.222 16.2764 286.033 16.706C285.845 17.1357 285.385 17.3101 285.008 17.0953C279.067 13.7387 275.213 7.28086 274.942 0.258967C274.942 0.0709996 274.93 -0.170698 274.93 -0.43922L274.918 -0.43922Z" fill="#DFD4CF" fill-opacity="0.02"/>
<path d="M274.919 72.3844C274.919 72.1159 274.919 71.8742 274.93 71.6862C275.201 64.6643 279.056 58.2063 284.996 54.8497C285.373 54.6349 285.833 54.8095 286.021 55.2391C286.21 55.6688 286.057 56.1924 285.68 56.4072C280.246 59.4818 276.71 65.3626 276.463 71.7534C276.392 73.7136 276.522 80.4804 281.413 85.1124C286.304 89.7444 292.245 88.6301 293.942 88.1736C299.54 86.6699 302.015 81.9707 302.145 81.3933C302.275 80.6683 302.11 80.0507 302.11 80.0507C302.063 79.8896 302.004 79.7553 301.968 79.6882C301.721 79.2585 301.285 79.0304 300.955 78.9364C300.542 78.8021 300.307 78.3187 300.424 77.8622C300.542 77.3923 300.967 77.1239 301.367 77.2581C301.945 77.4461 302.746 77.8623 303.277 78.8022C303.371 78.9767 303.465 79.2183 303.559 79.5136C303.595 79.621 303.854 80.5744 303.642 81.7559C303.43 82.9642 300.424 88.2408 294.284 89.8788C292.41 90.3755 285.856 91.6107 280.423 86.4685C275.473 81.7827 274.907 75.1771 274.907 72.3978L274.919 72.3844Z" fill="#DFD4CF" fill-opacity="0.02"/>
<path d="M44.0111 -8.36088C44.0111 -8.64283 44.0347 -8.96514 44.0937 -9.28737C44.3058 -10.4957 47.3113 -15.7721 53.4519 -17.4101C55.326 -17.9069 61.8792 -19.1422 67.3127 -14C72.7462 -8.85775 72.8875 -1.39279 72.8168 0.768827C72.5457 7.79072 68.6916 14.2488 62.7512 17.6053C62.3741 17.8201 61.9146 17.6455 61.726 17.2159C61.5374 16.7863 61.6907 16.2627 62.0678 16.0478C67.5013 12.9732 71.037 7.09266 71.2845 0.701796C71.367 -1.25843 71.2257 -8.02532 66.3343 -12.6574C61.443 -17.2894 55.5028 -16.1749 53.8056 -15.7184C48.2071 -14.2147 45.732 -9.51561 45.6023 -8.93828C45.4727 -8.21326 45.6374 -7.59566 45.6374 -7.59566C45.6846 -7.43455 45.7437 -7.30026 45.779 -7.23313C46.0265 -6.80349 46.4625 -6.57517 46.7925 -6.48118C47.205 -6.34692 47.441 -5.86368 47.3231 -5.40719C47.2052 -4.93727 46.7809 -4.66865 46.3801 -4.80291C45.8026 -4.99088 45.001 -5.40712 44.4706 -6.34695C44.3763 -6.52149 44.282 -6.76321 44.1877 -7.05858C44.1642 -7.13914 44.0229 -7.64931 44.0229 -8.37432L44.0111 -8.36088Z" fill="#DFD4CF" fill-opacity="0.02"/>
<path d="M44.0115 81.3127C44.0115 80.5877 44.1528 80.0773 44.1764 79.9968C44.2707 79.688 44.3767 79.4597 44.4357 79.3255C44.9896 78.3453 45.7913 77.9292 46.3688 77.7413C46.7813 77.607 47.2057 77.8755 47.3118 78.3454C47.4296 78.8153 47.194 79.2987 46.7814 79.4195C46.4514 79.5269 46.0034 79.7552 45.7441 80.2251C45.7441 80.2519 45.6732 80.3862 45.6261 80.5473C45.6261 80.5473 45.4613 81.1649 45.591 81.8899C45.7206 82.4672 48.1957 87.1665 53.7942 88.6702C55.4915 89.1267 61.4317 90.2544 66.323 85.609C71.2143 80.977 71.3439 74.2236 71.2732 72.25C71.0257 65.8591 67.5018 59.9784 62.0565 56.9038C61.6793 56.689 61.5261 56.1654 61.7146 55.7357C61.9032 55.3061 62.3627 55.1315 62.7399 55.3463C68.6802 58.7029 72.5344 65.1609 72.8055 72.1828C72.888 74.3444 72.7349 81.8094 67.3014 86.9516C61.8561 92.1073 55.3146 90.8721 53.4406 90.3619C47.2999 88.7239 44.2945 83.4339 44.0823 82.239C44.0234 81.9033 43.9997 81.5946 43.9997 81.3127L44.0115 81.3127Z" fill="#DFD4CF" fill-opacity="0.02"/>
</g>
<defs>
<linearGradient id="paint0_linear_77_17185" x1="172.5" y1="0" x2="172.5" y2="76" gradientUnits="userSpaceOnUse">
<stop stop-color="#381414"/>
<stop offset="1" stop-color="#1D0808"/>
</linearGradient>
<clipPath id="clip0_77_17185">
<rect width="345" height="76" fill="white"/>
</clipPath>
</defs>
</svg>
