<svg width="222" height="44" viewBox="0 0 222 44" fill="none" xmlns="http://www.w3.org/2000/svg">
<path d="M157.708 0.510014C157.717 0.510014 157.725 0.50979 157.734 0.509341C157.912 0.500121 158.091 0.5 158.286 0.5H206.619C210.82 0.5 214.599 1.18352 217.31 2.2711C218.666 2.81544 219.73 3.45117 220.447 4.13169C221.163 4.8111 221.5 5.50091 221.5 6.17279V37.8372C221.5 38.5061 221.164 39.194 220.448 39.8722C219.731 40.5515 218.666 41.1863 217.31 41.7301C214.599 42.8165 210.82 43.5 206.619 43.5H158.286C158.197 43.5 158.107 43.4977 158.01 43.4952L158.007 43.4951C157.912 43.4926 157.811 43.49 157.708 43.49C157.699 43.49 157.691 43.4902 157.682 43.4907C157.505 43.4999 157.325 43.5 157.13 43.5H15.3806C11.1797 43.5 7.40051 42.8165 4.69004 41.7301C3.33343 41.1863 2.26918 40.5515 1.55224 39.8722C0.836374 39.194 0.5 38.5061 0.5 37.8372V6.17279C0.5 5.50091 0.836843 4.81109 1.55259 4.13168C2.26951 3.45117 3.33368 2.81543 4.69022 2.2711C7.40058 1.18352 11.1797 0.5 15.3806 0.5H157.13C157.219 0.5 157.309 0.502306 157.406 0.504838L157.409 0.504915C157.504 0.507369 157.605 0.510014 157.708 0.510014Z" fill="url(#paint0_linear_238_10811)" stroke="url(#paint1_linear_238_10811)" stroke-linecap="round" stroke-linejoin="round"/>
<defs>
<linearGradient id="paint0_linear_238_10811" x1="111" y1="0" x2="111" y2="44" gradientUnits="userSpaceOnUse">
<stop stop-color="#3E0F0F"/>
<stop offset="1" stop-color="#210707"/>
</linearGradient>
<linearGradient id="paint1_linear_238_10811" x1="111.012" y1="44.5002" x2="111.012" y2="-0.500226" gradientUnits="userSpaceOnUse">
<stop offset="0.2" stop-color="#918789"/>
<stop offset="0.55" stop-color="#BBB0AE"/>
<stop offset="0.83" stop-color="#D7CCC8"/>
<stop offset="1" stop-color="#E2D7D2"/>
</linearGradient>
</defs>
</svg>
