<svg width="76" height="78" viewBox="0 0 76 78" fill="none" xmlns="http://www.w3.org/2000/svg">
<path d="M19.491 53.4679C17.8779 51.4069 15.0726 48.3554 10.7643 45.7741C6.87691 43.4429 3.23997 42.3924 0.775269 41.8721C2.44846 41.0517 5.28387 39.9211 8.98093 39.671C12.187 39.4509 14.8121 39.9811 16.5053 40.4514C17.4972 44.7836 18.4891 49.1258 19.481 53.4579L19.491 53.4679Z" fill="url(#paint0_linear_69_14775)"/>
<mask id="mask0_69_14775" style="mask-type:luminance" maskUnits="userSpaceOnUse" x="0" y="39" width="20" height="15">
<path d="M19.491 53.4679C17.8779 51.4069 15.0726 48.3554 10.7643 45.7741C6.87691 43.4429 3.23997 42.3924 0.775269 41.8721C2.44846 41.0517 5.28387 39.9211 8.98093 39.671C12.187 39.4509 14.8121 39.9811 16.5053 40.4514C17.4972 44.7836 18.4891 49.1258 19.481 53.4579L19.491 53.4679Z" fill="white"/>
</mask>
<g mask="url(#mask0_69_14775)">
<path opacity="0.43" d="M17.1867 45.6141C16.1648 44.9337 14.9625 44.2634 13.5698 43.6831C8.76063 41.6521 4.27207 41.7421 1.55688 42.0623C7.33792 45.394 13.1089 48.7157 18.89 52.0473C18.3189 49.9063 17.7578 47.7652 17.1867 45.6241V45.6141Z" fill="#270D1D"/>
</g>
<path d="M19.491 53.4679C17.8779 51.4069 15.0726 48.3554 10.7643 45.7741C6.87691 43.4429 3.23997 42.3924 0.775269 41.8721C2.44846 41.0517 5.28387 39.9211 8.98093 39.671C12.187 39.4509 14.8121 39.9811 16.5053 40.4514C17.4972 44.7836 18.4891 49.1258 19.481 53.4579L19.491 53.4679Z" stroke="black" stroke-width="0.89" stroke-linecap="round" stroke-linejoin="round"/>
<path d="M53.5361 19.7215C51.4621 18.1207 48.3762 15.3393 45.7813 11.0771C43.4368 7.22518 42.3647 3.62336 41.8437 1.18213C41.0222 2.84297 39.88 5.65438 39.6195 9.31622C39.3991 12.4978 39.9301 15.0991 40.411 16.77C44.7793 17.7505 49.1577 18.741 53.526 19.7215H53.5361Z" fill="url(#paint1_linear_69_14775)"/>
<mask id="mask1_69_14775" style="mask-type:luminance" maskUnits="userSpaceOnUse" x="39" y="1" width="15" height="19">
<path d="M53.5361 19.7215C51.4621 18.1207 48.3762 15.3393 45.7813 11.0771C43.4368 7.22518 42.3647 3.62336 41.8437 1.18213C41.0222 2.84297 39.88 5.65438 39.6195 9.31622C39.3991 12.4978 39.9301 15.0991 40.411 16.77C44.7793 17.7505 49.1577 18.741 53.526 19.7215H53.5361Z" fill="white"/>
</mask>
<g mask="url(#mask1_69_14775)">
<path opacity="0.43" d="M45.6108 17.4297C44.9295 16.4092 44.2482 15.2186 43.6571 13.8479C41.6132 9.08549 41.7034 4.63325 42.014 1.94189C45.3704 7.66478 48.7268 13.3977 52.0832 19.1206C49.9191 18.5603 47.7649 17.99 45.6008 17.4297H45.6108Z" fill="#270D1D"/>
</g>
<path d="M53.5361 19.7215C51.4621 18.1207 48.3762 15.3393 45.7813 11.0771C43.4368 7.22518 42.3647 3.62336 41.8437 1.18213C41.0222 2.84297 39.88 5.65438 39.6195 9.31622C39.3991 12.4978 39.9301 15.0991 40.411 16.77C44.7793 17.7505 49.1577 18.741 53.526 19.7215H53.5361Z" stroke="black" stroke-width="0.89" stroke-linecap="round" stroke-linejoin="round"/>
<path d="M23.3985 58.861C21.8355 56.89 30.7024 48.6959 40.5813 40.5518L60.9 60.7019C58.4253 62.9531 55.7202 64.9541 53.2154 66.3848C47.1338 69.8666 26.7348 63.0831 23.3985 58.861Z" fill="url(#paint2_linear_69_14775)" stroke="black" stroke-width="0.89" stroke-linecap="round" stroke-linejoin="round"/>
<path d="M58.9764 23.5935C56.9826 22.0428 48.7268 30.8372 40.5011 40.6221L60.8199 60.7723C63.0942 58.3211 65.1081 55.6297 66.5508 53.1585C70.0575 47.1354 63.2144 26.9052 58.9663 23.6035L58.9764 23.5935Z" fill="url(#paint3_linear_69_14775)" stroke="black" stroke-width="0.89" stroke-linecap="round" stroke-linejoin="round"/>
<path d="M69.6769 29.8963C70.268 33.338 72.1015 46.1145 65.1383 54.1785C63.3248 56.2896 62.5633 56.1695 62.373 56.0895C60.0485 55.119 65.4589 37.6202 60.4293 25.9343C55.2193 13.8382 25.8433 16.3594 17.2068 17.38L17.1467 17.3199C17.1467 17.3199 17.1467 17.3599 17.1467 17.38C17.1266 17.38 17.1066 17.38 17.0866 17.38L17.1467 17.44C16.1147 26.0043 13.5799 55.119 25.7731 60.2816C37.5656 65.2741 55.2193 59.9114 56.1912 62.2126C56.3114 62.4927 56.3214 63.2131 54.2675 64.954C46.162 71.8274 33.6181 70.7969 29.6505 70.3267C30.5422 71.4773 33.5279 75.0291 38.8381 76.3497C42.8958 77.3603 46.2722 76.5498 47.7751 76.0896C51.6726 71.3072 56.4717 66.0645 62.3229 60.7919C66.4107 57.11 70.4083 53.9484 74.1655 51.2571C74.7466 49.7663 75.2375 47.9654 75.4079 45.8944C76.0691 37.8303 71.29 31.7472 69.6869 29.8763L69.6769 29.8963Z" fill="url(#paint4_linear_69_14775)"/>
<mask id="mask2_69_14775" style="mask-type:luminance" maskUnits="userSpaceOnUse" x="16" y="16" width="60" height="61">
<path d="M69.6769 29.8963C70.268 33.338 72.1015 46.1145 65.1383 54.1785C63.3248 56.2896 62.5633 56.1695 62.373 56.0895C60.0485 55.119 65.4589 37.6202 60.4293 25.9343C55.2193 13.8382 25.8433 16.3594 17.2068 17.38L17.1467 17.3199C17.1467 17.3199 17.1467 17.3599 17.1467 17.38C17.1266 17.38 17.1066 17.38 17.0866 17.38L17.1467 17.44C16.1147 26.0043 13.5799 55.119 25.7731 60.2816C37.5656 65.2741 55.2193 59.9114 56.1912 62.2126C56.3114 62.4927 56.3214 63.2131 54.2675 64.954C46.162 71.8274 33.6181 70.7969 29.6505 70.3267C30.5422 71.4773 33.5279 75.0291 38.8381 76.3497C42.8958 77.3603 46.2722 76.5498 47.7751 76.0896C51.6726 71.3072 56.4717 66.0645 62.3229 60.7919C66.4107 57.11 70.4083 53.9484 74.1655 51.2571C74.7466 49.7663 75.2375 47.9654 75.4079 45.8944C76.0691 37.8303 71.29 31.7472 69.6869 29.8763L69.6769 29.8963Z" fill="white"/>
</mask>
<g mask="url(#mask2_69_14775)">
<path d="M26.8751 27.115C25.6227 32.8679 24.5607 39.3511 23.9696 46.4747C23.6189 50.6869 23.4686 54.6789 23.4586 58.4308C21.4247 56.92 3.65081 43.2831 5.49433 24.7438C5.75482 22.1525 6.42611 15.4591 11.5058 10.6867C20.4228 2.32246 36.6137 5.7742 46.1118 11.247C52.6744 15.0289 56.6019 20.0914 58.6558 23.233C53.4959 23.9734 48.2359 24.6737 42.8757 25.3341C37.4553 25.9944 32.1151 26.5947 26.8751 27.125V27.115Z" fill="url(#paint5_linear_69_14775)"/>
</g>
<path d="M69.6769 29.8963C70.268 33.338 72.1015 46.1145 65.1383 54.1785C63.3248 56.2896 62.5633 56.1695 62.373 56.0895C60.0485 55.119 65.4589 37.6202 60.4293 25.9343C55.2193 13.8382 25.8433 16.3594 17.2068 17.38L17.1467 17.3199C17.1467 17.3199 17.1467 17.3599 17.1467 17.38C17.1266 17.38 17.1066 17.38 17.0866 17.38L17.1467 17.44C16.1147 26.0043 13.5799 55.119 25.7731 60.2816C37.5656 65.2741 55.2193 59.9114 56.1912 62.2126C56.3114 62.4927 56.3214 63.2131 54.2675 64.954C46.162 71.8274 33.6181 70.7969 29.6505 70.3267C30.5422 71.4773 33.5279 75.0291 38.8381 76.3497C42.8958 77.3603 46.2722 76.5498 47.7751 76.0896C51.6726 71.3072 56.4717 66.0645 62.3229 60.7919C66.4107 57.11 70.4083 53.9484 74.1655 51.2571C74.7466 49.7663 75.2375 47.9654 75.4079 45.8944C76.0691 37.8303 71.29 31.7472 69.6869 29.8763L69.6769 29.8963Z" stroke="black" stroke-width="0.89" stroke-linecap="round" stroke-linejoin="round"/>
<path d="M26.9452 27.0846L26.8951 27.0346C26.8951 27.0346 26.8851 27.0846 26.8751 27.1046C26.855 27.1046 26.825 27.1146 26.805 27.1246L26.855 27.1747C24.4905 33.2277 26.9653 43.8831 32.5659 48.3854C37.5354 52.3874 45.6209 51.7971 50.2898 50.3964L50.3399 50.4464C50.3399 50.4464 50.3499 50.3964 50.3599 50.3764C50.3799 50.3764 50.41 50.3664 50.43 50.3564L50.3799 50.3063C51.7926 45.674 52.3838 37.6699 48.3461 32.7375C43.7974 27.1847 33.0469 24.7334 26.9452 27.0746V27.0846Z" fill="url(#paint6_radial_69_14775)" stroke="black" stroke-width="0.89" stroke-linecap="round" stroke-linejoin="round"/>
<defs>
<linearGradient id="paint0_linear_69_14775" x1="8.36138" y1="49.4466" x2="16.9217" y2="40.8743" gradientUnits="userSpaceOnUse">
<stop stop-color="#625258"/>
<stop offset="1" stop-color="#918789"/>
</linearGradient>
<linearGradient id="paint1_linear_69_14775" x1="49.4053" y1="8.7298" x2="40.8945" y2="17.2526" gradientUnits="userSpaceOnUse">
<stop stop-color="#625258"/>
<stop offset="1" stop-color="#918789"/>
</linearGradient>
<linearGradient id="paint2_linear_69_14775" x1="52.009" y1="69.6598" x2="31.0539" y2="48.6753" gradientUnits="userSpaceOnUse">
<stop stop-color="#80776D"/>
<stop offset="0.22" stop-color="#918789"/>
<stop offset="0.55" stop-color="#BBB0AE"/>
<stop offset="0.84" stop-color="#D7CCC8"/>
<stop offset="1" stop-color="#E2D7D2"/>
</linearGradient>
<linearGradient id="paint3_linear_69_14775" x1="69.6764" y1="52.0033" x2="48.8133" y2="31.1109" gradientUnits="userSpaceOnUse">
<stop stop-color="#80776D"/>
<stop offset="0.22" stop-color="#918789"/>
<stop offset="0.55" stop-color="#BBB0AE"/>
<stop offset="0.84" stop-color="#D7CCC8"/>
<stop offset="1" stop-color="#E2D7D2"/>
</linearGradient>
<linearGradient id="paint4_linear_69_14775" x1="62.6168" y1="63.1601" x2="16.4761" y2="16.9545" gradientUnits="userSpaceOnUse">
<stop offset="0.04" stop-color="#918789"/>
<stop offset="0.45" stop-color="#BBB0AE"/>
<stop offset="0.8" stop-color="#D7CCC8"/>
<stop offset="1" stop-color="#E2D7D2"/>
</linearGradient>
<linearGradient id="paint5_linear_69_14775" x1="15.1429" y1="14.7767" x2="40.6895" y2="40.2601" gradientUnits="userSpaceOnUse">
<stop stop-color="white"/>
<stop offset="0.1" stop-color="white" stop-opacity="0.9604"/>
<stop offset="0.23" stop-color="white" stop-opacity="0.8464"/>
<stop offset="0.36" stop-color="white" stop-opacity="0.6889"/>
<stop offset="0.49" stop-color="white" stop-opacity="0.49"/>
<stop offset="0.64" stop-color="white" stop-opacity="0.2809"/>
<stop offset="0.79" stop-color="white" stop-opacity="0.1089"/>
<stop offset="0.94" stop-color="white" stop-opacity="0.01"/>
<stop offset="0.99" stop-color="white" stop-opacity="0"/>
</linearGradient>
<radialGradient id="paint6_radial_69_14775" cx="0" cy="0" r="1" gradientUnits="userSpaceOnUse" gradientTransform="translate(39.1359 30.7277) scale(17.2699 11.5422)">
<stop offset="0.16" stop-color="#FF0303"/>
<stop offset="0.49" stop-color="#FD0303"/>
<stop offset="0.63" stop-color="#F50303"/>
<stop offset="0.74" stop-color="#E90503"/>
<stop offset="0.82" stop-color="#D80604"/>
<stop offset="0.89" stop-color="#C10905"/>
<stop offset="0.96" stop-color="#A50B06"/>
<stop offset="1" stop-color="#8F0E08"/>
</radialGradient>
</defs>
</svg>
