<svg width="20" height="714" viewBox="0 0 20 714" fill="none" xmlns="http://www.w3.org/2000/svg">
<path d="M12.063 358.38V1.16992H0.0600679V356.099H0.0500488V713.299H12.053V358.38H12.063Z" fill="url(#paint0_linear_74_8349)" stroke="black" stroke-width="0.93" stroke-linecap="round" stroke-linejoin="round"/>
<path d="M12.063 1.18988L12.063 713.299H19.5373L19.5373 1.18988H12.063Z" fill="url(#paint1_linear_74_8349)"/>
<mask id="mask0_74_8349" style="mask-type:luminance" maskUnits="userSpaceOnUse" x="12" y="1" width="8" height="713">
<path d="M12.063 1.18988L12.063 713.299H19.5373L19.5373 1.18988H12.063Z" fill="white"/>
</mask>
<g mask="url(#mask0_74_8349)">
<path d="M9.26758 -0.0702515L9.26758 714.521H15.8001L15.8001 -0.0702515H9.26758Z" fill="url(#paint2_linear_74_8349)"/>
</g>
<path d="M12.063 1.18988L12.063 713.299H19.5373L19.5373 1.18988H12.063Z" stroke="black" stroke-width="0.93" stroke-linecap="round" stroke-linejoin="round"/>
<defs>
<linearGradient id="paint0_linear_74_8349" x1="6.06151" y1="1.16992" x2="6.06151" y2="713.299" gradientUnits="userSpaceOnUse">
<stop stop-color="#E2D7D2"/>
<stop offset="0.16" stop-color="#D7CCC8"/>
<stop offset="0.45" stop-color="#BBB0AE"/>
<stop offset="0.78" stop-color="#918789"/>
<stop offset="1" stop-color="#80776D"/>
</linearGradient>
<linearGradient id="paint1_linear_74_8349" x1="6.72279" y1="751.329" x2="18.732" y2="227.803" gradientUnits="userSpaceOnUse">
<stop stop-color="#80776D"/>
<stop offset="0.22" stop-color="#918789"/>
<stop offset="0.55" stop-color="#BBB0AE"/>
<stop offset="0.84" stop-color="#D7CCC8"/>
<stop offset="1" stop-color="#E2D7D2"/>
</linearGradient>
<linearGradient id="paint2_linear_74_8349" x1="-14.9587" y1="356.6" x2="427.406" y2="366.774" gradientUnits="userSpaceOnUse">
<stop stop-color="#918789"/>
<stop offset="0.06" stop-color="#A19797"/>
<stop offset="0.16" stop-color="#B8AEAD"/>
<stop offset="0.28" stop-color="#CBC0BD"/>
<stop offset="0.42" stop-color="#D8CDC9"/>
<stop offset="0.61" stop-color="#DFD4D0"/>
<stop offset="1" stop-color="#E2D7D2"/>
</linearGradient>
</defs>
</svg>
