<svg width="54" height="30" viewBox="0 0 54 30" fill="none" xmlns="http://www.w3.org/2000/svg">
<path d="M18.6724 28.7738C18.8728 26.7028 19.5441 17.248 12.8113 9.14392C8.63328 4.11138 3.56361 1.9703 1.06885 1.10986C8.52307 4.17141 11.7492 6.57261 13.2621 8.29348C13.6228 8.71369 15.2058 10.5146 17.6906 12.6257C18.3218 13.1559 19.0431 13.7162 19.9248 14.3165C22.5799 16.1174 26.6677 18.8088 30.3347 17.5281C31.6472 17.0679 33.5609 15.8773 33.6811 14.4166C33.7011 14.2265 33.7612 13.4461 33.2202 13.0059C32.8896 12.7357 32.3385 12.5957 31.8877 12.8358C31.4969 13.0359 31.3566 13.4261 31.3266 13.5361C31.1462 14.1064 31.4769 14.6167 31.5871 14.7767C32.058 15.4871 32.8795 15.6272 33.0399 15.6472C31.2364 16.5777 29.1625 16.4676 27.7698 15.3771C25.8361 13.8563 25.9163 10.9448 26.8681 9.30399C28.5313 6.42253 33.9917 5.9423 37.0475 8.23345C40.1735 10.5746 40.985 15.9774 37.9392 20.4196" stroke="black" stroke-width="0.89" stroke-linecap="round" stroke-linejoin="round"/>
<path d="M22.9004 15.7574C23.4515 15.2672 24.9243 13.8364 25.4253 11.4752C25.4854 11.1751 25.8962 9.11405 25.0145 6.92294C23.4415 3.04098 18.3518 0.109498 13.8331 1.43016C11.3183 2.17054 9.80546 3.98146 9.11414 4.95195" stroke="black" stroke-width="0.89" stroke-linecap="round" stroke-linejoin="round"/>
<path d="M12.9014 8.16357C13.1619 7.47322 13.7029 6.42271 14.795 5.75237C17.1194 4.31164 20.3155 5.6223 22.0288 7.09304C24.8341 9.50426 24.6338 13.1861 24.5937 13.6663" stroke="black" stroke-width="0.89" stroke-linecap="round" stroke-linejoin="round"/>
<path d="M16.0975 11.1547C16.1376 11.0346 17.0093 8.46331 19.2035 7.98306C21.3676 7.51283 24.0527 9.23369 24.704 12.2652" stroke="black" stroke-width="0.89" stroke-linecap="round" stroke-linejoin="round"/>
<path d="M48.8 14.1466C45.9646 15.1771 43.1993 14.8569 41.5862 13.7864C39.8229 12.6158 39.1015 10.9249 39.1015 10.9249C39.0314 10.7649 38.9813 10.6348 38.9512 10.5447C38.0295 7.94343 38.6406 3.98143 41.7265 2.36062C44.5719 0.859858 48.4994 1.89037 49.832 4.35161C50.4832 5.56222 50.6435 7.35313 49.7218 8.70381C48.5495 10.4247 45.8844 10.995 44.9927 10.1746C44.6721 9.88441 44.4417 9.26409 44.602 8.71381C44.7723 8.16354 45.2733 7.91342 45.3234 7.89341C45.9245 7.62327 46.4756 7.89341 46.5758 7.94344C47.227 8.28361 47.3372 8.96395 47.3573 9.03398C47.4474 9.59426 47.1869 10.1745 46.706 10.5247C47.1168 10.5047 50.0624 10.3446 51.946 7.86339C53.4489 5.88239 53.7094 3.18103 52.6173 0.839844" stroke="black" stroke-width="0.89" stroke-linecap="round" stroke-linejoin="round"/>
<path d="M39.362 4.01123H23.0809" stroke="black" stroke-width="0.89" stroke-linecap="round" stroke-linejoin="round"/>
</svg>
