<svg width="33" height="56" viewBox="0 0 33 56" fill="none" xmlns="http://www.w3.org/2000/svg">
<path d="M31.7549 23.1098C28.9095 23.0498 19.3713 22.4895 10.9452 15.2859C4.6933 9.94316 2.1785 3.61996 1.22668 0.688477C2.11839 3.9001 3.65131 7.84208 6.35647 11.8741C7.19808 13.1348 8.06974 14.2653 8.93139 15.2859C9.96336 16.4164 10.4844 16.7766 11.6065 17.9172C11.6065 17.9172 13.3699 19.7081 14.8026 21.7091C16.2153 23.6701 19.4314 28.1123 18.0488 32.0243C17.5879 33.3249 16.3756 35.2259 14.9028 35.336C14.7124 35.356 13.9209 35.416 13.4801 34.8857C13.2096 34.5656 13.0693 34.0153 13.3097 33.5651C13.5101 33.1749 13.9009 33.0448 14.0211 33.0048C14.6022 32.8347 15.1132 33.1548 15.2735 33.2649C15.9949 33.7251 16.1251 34.5455 16.1552 34.7056C17.087 32.9147 16.9868 30.8537 15.8847 29.483C14.3517 27.562 11.4161 27.6421 9.76298 28.5926C6.80733 30.2734 6.32642 35.6561 8.68091 38.6877C11.0354 41.7092 16.2654 42.4696 20.4734 39.5781" stroke="black" stroke-width="0.89" stroke-linecap="round" stroke-linejoin="round"/>
<path d="M16.2353 24.6505C15.7444 25.2008 14.2916 26.6515 11.9071 27.1518C11.6065 27.2118 9.52252 27.622 7.31831 26.7416C3.41086 25.1808 0.445195 20.1383 1.77774 15.666C2.51915 13.1747 4.35265 11.664 5.33453 10.9937" stroke="black" stroke-width="0.89" stroke-linecap="round" stroke-linejoin="round"/>
<path d="M11.5965 17.9072C11.366 17.9873 8.92138 18.8777 8.40038 20.9888C7.85935 23.2199 9.64275 26.0613 12.909 26.8717" stroke="black" stroke-width="0.89" stroke-linecap="round" stroke-linejoin="round"/>
<path d="M14.6523 49.9733C15.6142 47.382 15.3236 44.7807 14.2516 43.1799C13.0894 41.439 11.3661 40.7086 11.3661 40.7086C11.2058 40.6386 11.0655 40.5886 10.9753 40.5586C8.36033 39.6481 4.35269 40.2484 2.71957 43.3099C1.20668 46.1314 2.24867 50.0233 4.73341 51.344C5.95575 51.9943 7.75919 52.1544 9.12179 51.234C10.8551 50.0634 11.4362 47.432 10.6046 46.5416C10.3141 46.2314 9.69288 45.9913 9.13181 46.1614C8.57074 46.3315 8.33028 46.8317 8.30022 46.8818C8.01968 47.4721 8.30022 48.0223 8.35032 48.1224C8.69097 48.7627 9.37227 48.8828 9.45242 48.8928C10.0235 48.9828 10.6046 48.7327 10.9553 48.2524C10.9553 48.4525 10.9052 49.283 10.5445 50.3035C10.4844 50.4636 9.80309 52.2745 8.27016 53.4551C5.37464 55.6762 1.37701 54.1954 1.18665 54.1254" stroke="black" stroke-width="0.89" stroke-linecap="round" stroke-linejoin="round"/>
<path d="M8.60084 15.4956C7.90952 15.7557 6.8475 16.296 6.1662 17.3665C4.73346 19.6377 5.91572 22.7893 7.51878 24.5302C9.49254 26.6813 12.2378 26.8413 12.9091 26.8613" stroke="black" stroke-width="0.89" stroke-linecap="round" stroke-linejoin="round"/>
<path d="M4.41266 41.4189C4.39266 35.8561 4.37266 30.2933 4.35266 24.7305" stroke="black" stroke-width="0.89" stroke-linecap="round" stroke-linejoin="round"/>
</svg>
