<svg width="355" height="202" viewBox="0 0 355 202" fill="none" xmlns="http://www.w3.org/2000/svg">
<path d="M354.282 150.397V201.163C353.701 193.389 352.238 181.233 347.95 167.036C330.327 108.866 276.574 61.7324 244.663 51.6073C235.015 48.5458 215.347 44.2036 203.755 33.3681C201.851 31.5872 194.507 24.3335 182.805 17.4101C180.521 16.0594 178.617 15.0389 177.405 14.4085C176.192 15.0389 174.289 16.0594 172.004 17.4101C160.302 24.3335 152.958 31.5872 151.054 33.3681C139.462 44.2036 119.795 48.5458 110.146 51.6073C78.2355 61.7324 24.4829 108.866 6.86933 167.036C2.57112 181.233 1.10833 193.389 0.527222 201.163V150.397C5.51674 135.61 14.6341 114.769 31.7468 93.9087C62.0546 56.97 99.446 41.8624 117.01 36.0595C122.28 34.9189 126.247 33.178 128.932 31.7573C134.643 28.7358 139.242 24.6937 144.272 20.2815C145.193 19.4711 145.965 18.7807 146.506 18.2805C150.804 14.5286 156.355 10.4065 163.268 6.70465C168.347 3.98328 173.147 2.03229 177.365 0.621577C177.365 0.611572 177.395 0.611568 177.405 0.601562C177.415 0.611568 177.435 0.611572 177.445 0.621577C181.663 2.03229 186.462 3.98328 191.552 6.70465C198.505 10.4365 204.086 14.5886 208.394 18.3505L208.424 18.3805C208.955 18.8708 209.676 19.5311 210.538 20.2815C215.568 24.6937 220.166 28.7358 225.877 31.7573C228.562 33.178 232.53 34.9189 237.8 36.0595C255.364 41.8624 292.755 56.97 323.063 93.9087C340.175 114.769 349.293 135.61 354.282 150.397Z" fill="url(#paint0_linear_69_14804)" stroke="black" stroke-width="0.93" stroke-linecap="round" stroke-linejoin="round"/>
<defs>
<linearGradient id="paint0_linear_69_14804" x1="0.527222" y1="100.882" x2="354.282" y2="100.882" gradientUnits="userSpaceOnUse">
<stop stop-color="#E2D7D2"/>
<stop offset="0.16" stop-color="#D7CCC8"/>
<stop offset="0.45" stop-color="#BBB0AE"/>
<stop offset="0.78" stop-color="#918789"/>
<stop offset="1" stop-color="#80776D"/>
</linearGradient>
</defs>
</svg>
