<svg width="83" height="83" viewBox="0 0 83 83" fill="none" xmlns="http://www.w3.org/2000/svg">
<path d="M81.6439 41.4704C81.6439 63.5316 63.5794 81.7207 41.5373 81.9509H41.0965C19.0544 81.7107 1 63.5216 1 41.4704C1 19.4193 19.0544 1.23012 41.0965 1H41.5373C63.5794 1.24012 81.6439 19.4193 81.6439 41.4704Z" fill="url(#paint0_linear_69_14819)" stroke="black" stroke-linecap="round" stroke-linejoin="round"/>
<path d="M41.5373 73.8567C59.4434 73.8567 73.9592 59.3613 73.9592 41.4804C73.9592 23.5994 59.4434 9.104 41.5373 9.104C23.6312 9.104 9.11548 23.5994 9.11548 41.4804C9.11548 59.3613 23.6312 73.8567 41.5373 73.8567Z" fill="white" stroke="black" stroke-linecap="round" stroke-linejoin="round"/>
<rect x="8.62024" y="8.90576" width="65" height="65" rx="32.5" fill="url(#paint1_linear_69_14819)"/>
<rect x="8.62024" y="8.90576" width="65" height="65" rx="32.5" stroke="black"/>
<g clip-path="url(#clip0_69_14819)">
<rect x="9.12024" y="9.40576" width="64" height="64" rx="32" fill="white"/>
<path d="M41.1659 72.3393C58.2246 72.3393 72.0535 58.49 72.0535 41.406C72.0535 24.322 58.2246 10.4727 41.1659 10.4727C24.1072 10.4727 10.2783 24.322 10.2783 41.406C10.2783 58.49 24.1072 72.3393 41.1659 72.3393Z" fill="url(#paint2_linear_69_14819)"/>
<path d="M41.1659 72.3393C58.2246 72.3393 72.0535 58.49 72.0535 41.406C72.0535 24.322 58.2246 10.4727 41.1659 10.4727C24.1072 10.4727 10.2783 24.322 10.2783 41.406C10.2783 58.49 24.1072 72.3393 41.1659 72.3393Z" fill="#8E7F83"/>
<path d="M41.1659 72.3393C58.2246 72.3393 72.0535 58.49 72.0535 41.406C72.0535 24.322 58.2246 10.4727 41.1659 10.4727C24.1072 10.4727 10.2783 24.322 10.2783 41.406C10.2783 58.49 24.1072 72.3393 41.1659 72.3393Z" stroke="black" stroke-width="1.06667" stroke-linecap="round" stroke-linejoin="round"/>
<path d="M41.0745 72.3393C58.1332 72.3393 71.962 58.49 71.962 41.406C71.962 24.322 58.1332 10.4727 41.0745 10.4727C24.0157 10.4727 10.1869 24.322 10.1869 41.406C10.1869 58.49 24.0157 72.3393 41.0745 72.3393Z" stroke="#959387" stroke-width="0.394667" stroke-linecap="round" stroke-linejoin="round"/>
<path d="M70.1092 41.4065C70.0405 43.3313 68.7364 45.6685 66.9747 45.7601C66.1739 45.8059 65.4875 45.3477 65.0756 44.9811C64.8011 44.8665 63.7944 44.5228 62.6046 44.9123C61.3463 45.3248 60.7514 46.2871 60.6141 46.5163C58.7837 53.6195 53.2468 59.2333 46.177 61.1351C45.6279 61.4101 44.9415 61.9371 44.5983 62.8537C44.1407 64.0452 44.5983 65.0992 44.667 65.3054C45.033 65.7408 45.4678 66.4052 45.4449 67.2072C45.3762 68.9716 43.0883 70.3464 41.0977 70.3464C39.1301 70.3464 36.8421 68.9716 36.7506 67.2072C36.7048 66.4052 37.1624 65.7179 37.5285 65.3054C37.62 65.0763 38.0547 64.0222 37.5971 62.8537C37.3226 62.1204 36.7964 61.6392 36.3388 61.3184C28.7427 59.5999 22.7482 53.6195 20.9865 46.0122C20.6662 45.5768 20.2315 45.1415 19.5451 44.8894C18.3553 44.4311 17.3029 44.8894 17.0741 44.9581C16.6393 45.3248 15.9758 45.7601 15.1751 45.7372C13.4133 45.6685 12.0405 43.3771 12.0405 41.3836C12.0405 39.4131 13.4133 37.1217 15.1751 37.03C15.9758 36.9842 16.6622 37.4425 17.0741 37.8091C17.3029 37.9008 18.3553 38.3361 19.5451 37.8779C20.2086 37.6258 20.6662 37.1904 20.9865 36.7551C22.7482 29.1478 28.7427 23.1673 36.3388 21.4488C36.7964 21.1509 37.2997 20.6698 37.5971 19.9136C38.0547 18.7221 37.5971 17.6681 37.5285 17.4389C37.1624 17.0036 36.7277 16.3391 36.7506 15.5371C36.8192 13.7728 39.1072 12.3979 41.0977 12.3979C43.0654 12.3979 45.3762 13.7728 45.4449 15.5371C45.4906 16.3391 45.033 17.0036 44.667 17.4389C44.5754 17.6681 44.1407 18.7221 44.5983 19.9136C44.9415 20.8302 45.6508 21.3572 46.177 21.6321C53.2468 23.534 58.7837 29.1478 60.6141 36.251C60.7514 36.4801 61.3463 37.4654 62.6046 37.8779C63.7944 38.2674 64.8011 37.9008 65.0756 37.8091C65.2587 37.6487 65.9679 37.0071 66.9747 37.053C68.0042 37.0988 68.6449 37.832 69.0109 38.2216C70.1549 39.5047 70.1092 41.1087 70.1092 41.3836V41.4065Z" stroke="black" stroke-width="0.533333" stroke-linecap="round" stroke-linejoin="round"/>
<path d="M49.3801 22.7538L51.7138 15.4214C51.7595 15.2381 51.9655 15.1465 52.1256 15.2152C52.3087 15.2839 52.4002 15.4902 52.3315 15.6735L49.3572 22.7767L49.3801 22.7538Z" fill="#959387" stroke="black" stroke-width="0.192" stroke-linecap="round" stroke-linejoin="round"/>
<path d="M52.5603 24.3116L56.3812 17.6437C56.4727 17.4833 56.6786 17.4375 56.8388 17.5291C56.999 17.6208 57.0676 17.8499 56.9532 18.0103L52.5603 24.3345V24.3116Z" fill="#959387" stroke="black" stroke-width="0.192" stroke-linecap="round" stroke-linejoin="round"/>
<path d="M55.3524 26.5353L60.4775 20.8069C60.5919 20.6694 60.8207 20.6694 60.9579 20.7839C61.0952 20.9214 61.0952 21.1506 60.9579 21.288L55.3524 26.5353Z" fill="#959387" stroke="black" stroke-width="0.192" stroke-linecap="round" stroke-linejoin="round"/>
<path d="M57.6169 29.261L63.8402 24.7471C64.0004 24.6325 64.2063 24.6783 64.2978 24.8158C64.4122 24.9762 64.3665 25.2053 64.2063 25.297L57.6169 29.261Z" fill="#959387" stroke="black" stroke-width="0.192" stroke-linecap="round" stroke-linejoin="round"/>
<path d="M59.2413 32.4236L66.2653 29.3073C66.4255 29.2386 66.6314 29.3073 66.7 29.4677C66.7687 29.651 66.7 29.8572 66.4941 29.926L59.2184 32.4006L59.2413 32.4236Z" fill="#959387" stroke="black" stroke-width="0.192" stroke-linecap="round" stroke-linejoin="round"/>
<path d="M32.3573 22.8002L30.0236 15.4678C29.9778 15.2845 29.7719 15.1929 29.6118 15.2616C29.4287 15.3303 29.3372 15.5366 29.4058 15.7199L32.3802 22.8231L32.3573 22.8002Z" fill="#959387" stroke="black" stroke-width="0.192" stroke-linecap="round" stroke-linejoin="round"/>
<path d="M29.1768 24.3819L25.3559 17.714C25.2643 17.5536 25.0584 17.5078 24.8983 17.5994C24.7381 17.6911 24.6695 17.9202 24.7839 18.0806L29.1768 24.4048V24.3819Z" fill="#959387" stroke="black" stroke-width="0.192" stroke-linecap="round" stroke-linejoin="round"/>
<path d="M26.3856 26.5816L21.2606 20.8532C21.1462 20.7158 20.9174 20.7158 20.7801 20.8303C20.6428 20.9678 20.6428 21.1969 20.7801 21.3344L26.3856 26.5816Z" fill="#959387" stroke="black" stroke-width="0.192" stroke-linecap="round" stroke-linejoin="round"/>
<path d="M24.1432 29.3079L17.9199 24.7939C17.7598 24.6794 17.5539 24.7252 17.4624 24.8627C17.348 25.0231 17.3937 25.2522 17.5539 25.3439L24.1432 29.3079Z" fill="#959387" stroke="black" stroke-width="0.192" stroke-linecap="round" stroke-linejoin="round"/>
<path d="M22.4959 32.4704L15.4718 29.3542C15.3116 29.2854 15.1057 29.3542 15.0371 29.5146C14.9685 29.6979 15.0371 29.9041 15.243 29.9728L22.5187 32.4475L22.4959 32.4704Z" fill="#959387" stroke="black" stroke-width="0.192" stroke-linecap="round" stroke-linejoin="round"/>
<path d="M32.2661 59.9433L29.9324 67.2757C29.8867 67.459 29.6807 67.5506 29.5206 67.4819C29.3375 67.4132 29.246 67.2069 29.3147 67.0236L32.289 59.9204L32.2661 59.9433Z" fill="#959387" stroke="black" stroke-width="0.192" stroke-linecap="round" stroke-linejoin="round"/>
<path d="M29.0856 58.3842L25.2647 65.0521C25.1731 65.2125 24.9672 65.2583 24.8071 65.1666C24.6469 65.075 24.5783 64.8459 24.6927 64.6855L29.0856 58.3613V58.3842Z" fill="#959387" stroke="black" stroke-width="0.192" stroke-linecap="round" stroke-linejoin="round"/>
<path d="M26.2947 56.1851L21.1696 61.9135C21.0552 62.0509 20.8264 62.0509 20.6891 61.9364C20.5519 61.7989 20.5519 61.5698 20.6891 61.4323L26.2947 56.1851Z" fill="#959387" stroke="black" stroke-width="0.192" stroke-linecap="round" stroke-linejoin="round"/>
<path d="M24.0292 53.436L17.8059 57.95C17.6458 58.0646 17.4399 58.0187 17.3483 57.8813C17.2339 57.7209 17.2797 57.4917 17.4399 57.4001L24.0292 53.436Z" fill="#959387" stroke="black" stroke-width="0.192" stroke-linecap="round" stroke-linejoin="round"/>
<path d="M22.4047 50.2959L15.3806 53.4121C15.2205 53.4809 15.0145 53.4121 14.9459 53.2518C14.8773 53.0684 14.9459 52.8622 15.1518 52.7935L22.4276 50.3188L22.4047 50.2959Z" fill="#959387" stroke="black" stroke-width="0.192" stroke-linecap="round" stroke-linejoin="round"/>
<path d="M49.4712 59.9433L51.805 67.2757C51.8507 67.459 52.0566 67.5506 52.2168 67.4819C52.3998 67.4132 52.4914 67.2069 52.4227 67.0236L49.4484 59.9204L49.4712 59.9433Z" fill="#959387" stroke="black" stroke-width="0.192" stroke-linecap="round" stroke-linejoin="round"/>
<path d="M52.6512 58.3842L56.4722 65.0521C56.5637 65.2125 56.7696 65.2583 56.9298 65.1666C57.0899 65.075 57.1585 64.8459 57.0441 64.6855L52.6512 58.3613V58.3842Z" fill="#959387" stroke="black" stroke-width="0.192" stroke-linecap="round" stroke-linejoin="round"/>
<path d="M55.443 56.1851L60.568 61.9135C60.6824 62.0509 60.9112 62.0509 61.0485 61.9364C61.1858 61.7989 61.1858 61.5698 61.0485 61.4323L55.443 56.1851Z" fill="#959387" stroke="black" stroke-width="0.192" stroke-linecap="round" stroke-linejoin="round"/>
<path d="M57.708 53.436L63.9313 57.95C64.0914 58.0646 64.2974 58.0187 64.3889 57.8813C64.5033 57.7209 64.4575 57.4917 64.2973 57.4001L57.708 53.436Z" fill="#959387" stroke="black" stroke-width="0.192" stroke-linecap="round" stroke-linejoin="round"/>
<path d="M59.3326 50.2959L66.3566 53.4121C66.5168 53.4809 66.7227 53.4121 66.7913 53.2518C66.86 53.0684 66.7913 52.8622 66.5854 52.7935L59.3097 50.3188L59.3326 50.2959Z" fill="#959387" stroke="black" stroke-width="0.192" stroke-linecap="round" stroke-linejoin="round"/>
<path d="M42.1727 14.4825C41.3261 14.4825 41.1202 15.1241 41.0745 15.422C41.0287 15.1012 40.8228 14.4596 39.9762 14.4825C38.8551 14.5054 38.695 15.7657 39.0839 16.4073C39.4729 17.0489 39.6788 17.2551 40.0678 17.6675C40.4338 18.0571 40.8914 18.4924 41.0516 18.7445C41.2117 18.4695 41.6465 18.0571 42.0354 17.6675C42.4244 17.2551 42.6303 17.0489 43.0192 16.4073C43.4082 15.7657 43.2709 14.5054 42.1269 14.4825H42.1727Z" fill="black"/>
<path d="M41.0514 64.2515C40.7768 64.6639 40.4565 65.1222 40.0447 65.6034C39.7701 65.9241 39.5185 66.1991 39.2439 66.4512C39.5642 66.772 39.9303 67.1615 40.2735 67.5968C40.5709 67.9635 40.8226 68.3301 41.0285 68.6738C41.2573 68.353 41.509 68.0093 41.7835 67.6427C42.1496 67.1844 42.5157 66.8178 42.8589 66.4741C42.5614 66.1991 42.2183 65.8783 41.8979 65.4659C41.5319 65.0534 41.2573 64.641 41.0285 64.2744L41.0514 64.2515Z" fill="black"/>
<path d="M66.2881 42.8963C66.7686 42.4609 67.2262 41.9568 67.4779 41.7277C67.6609 41.5673 67.7982 41.4527 67.8668 41.4069C67.7982 41.3611 67.6609 41.2465 67.4779 41.0861C67.2262 40.8799 66.7686 40.3529 66.2881 39.9175C65.8077 39.4822 65.3272 39.4363 64.9382 39.528C64.5493 39.6196 64.1603 40.0321 64.2519 40.6737C64.2747 40.8799 64.3663 41.0174 64.5035 41.1319C63.9315 41.0632 63.657 40.7653 63.657 40.7653V42.0256C63.9087 41.7964 64.2747 41.7048 64.5035 41.6819C64.3891 41.7964 64.2976 41.9339 64.2519 42.1401C64.1603 42.7817 64.5493 43.2171 64.9382 43.2858C65.3272 43.3775 65.8077 43.3316 66.2881 42.8963Z" fill="black"/>
<path d="M44.3008 50.2503C44.8728 50.2503 45.6736 50.2732 46.6346 50.2961C48.5793 50.2961 49.5403 50.2961 49.8606 50.1586C51.7139 49.2879 51.1419 44.4302 50.9588 43.0554C51.7825 42.6659 52.6062 42.2993 53.4298 41.9097C52.2172 39.5267 51.0275 37.1208 49.8148 34.7378H35.3549C34.8973 34.944 34.5998 35.1961 34.4397 35.3565C33.2499 36.5709 33.7075 38.404 33.6618 42.6659C33.6618 43.445 33.616 44.0865 33.616 44.4302C31.5797 44.2698 29.7265 45.301 29.0401 46.9049C28.2164 48.7838 29.3375 50.594 29.4748 50.846C30.8476 52.977 33.7304 53.3207 35.6523 52.9312C36.4302 52.7708 38.1004 52.2667 39.3359 50.7544C39.8851 50.0899 40.4799 49.0588 40.9833 41.9785C41.1892 38.9997 41.235 36.8688 42.8365 35.4939C43.2484 35.1273 43.6602 34.9211 43.9576 34.8065" stroke="black" stroke-width="1.06667" stroke-linecap="round" stroke-linejoin="round"/>
<path d="M49.9061 34.8294H35.286L32.426 29.6738H52.7661L49.9061 34.8294Z" stroke="black" stroke-width="1.06667" stroke-linecap="round" stroke-linejoin="round"/>
<path d="M47.1381 40.42C47.732 40.42 48.2134 39.9378 48.2134 39.3431C48.2134 38.7483 47.732 38.2661 47.1381 38.2661C46.5442 38.2661 46.0627 38.7483 46.0627 39.3431C46.0627 39.9378 46.5442 40.42 47.1381 40.42Z" fill="black"/>
<path d="M16.0668 39.7334C15.6092 40.1687 15.8837 40.8103 15.8837 40.8103C15.6778 40.627 15.5405 40.5124 15.2202 40.5353C15.2202 40.5353 15.2202 40.5353 15.1973 40.5353C14.694 40.5353 14.2593 40.9478 14.2593 41.4748C14.2593 42.0018 14.6711 42.4143 15.1973 42.4143C15.266 42.4143 15.3346 42.4143 15.3804 42.4143C15.6092 42.4143 15.7465 42.2768 15.9066 42.1393C15.9066 42.1393 15.6321 42.8038 16.0897 43.2162C16.5472 43.6516 17.1192 43.4225 17.3023 43.285C17.4853 43.1475 17.7827 42.9413 17.7599 42.4601C17.737 42.0476 17.6455 41.9789 17.4167 41.681C18.0573 41.7269 18.492 42.0935 18.492 42.0935V41.4519V40.8332V40.8103C18.2403 41.0394 17.6912 41.2457 17.4167 41.2228C17.6455 40.9478 17.7141 40.879 17.737 40.4666C17.7828 39.9854 17.4624 39.7792 17.2794 39.6417C17.0964 39.5042 16.5472 39.298 16.0668 39.7105V39.7334Z" fill="black"/>
</g>
<rect x="9.65357" y="9.9391" width="62.9333" height="62.9333" rx="31.4667" stroke="url(#paint3_linear_69_14819)" stroke-width="1.06667"/>
<defs>
<linearGradient id="paint0_linear_69_14819" x1="19.9962" y1="7.25316" x2="62.5613" y2="75.7514" gradientUnits="userSpaceOnUse">
<stop stop-color="#E2D7D2"/>
<stop offset="0.16" stop-color="#D7CCC8"/>
<stop offset="0.45" stop-color="#BBB0AE"/>
<stop offset="0.78" stop-color="#918789"/>
<stop offset="1" stop-color="#80776D"/>
</linearGradient>
<linearGradient id="paint1_linear_69_14819" x1="41.1241" y1="75.1561" x2="41.1241" y2="7.65542" gradientUnits="userSpaceOnUse">
<stop stop-color="#4B4441"/>
<stop offset="0.17" stop-color="#443F3D"/>
<stop offset="0.45" stop-color="#393635"/>
<stop offset="0.8" stop-color="#292627"/>
</linearGradient>
<linearGradient id="paint2_linear_69_14819" x1="41.1659" y1="72.3393" x2="41.1659" y2="10.4727" gradientUnits="userSpaceOnUse">
<stop stop-color="#80776D"/>
<stop offset="0.22" stop-color="#918789"/>
<stop offset="0.55" stop-color="#BBB0AE"/>
<stop offset="0.84" stop-color="#D7CCC8"/>
<stop offset="1" stop-color="#E2D7D2"/>
</linearGradient>
<linearGradient id="paint3_linear_69_14819" x1="41.124" y1="74.1334" x2="41.124" y2="8.67816" gradientUnits="userSpaceOnUse">
<stop offset="0.2" stop-color="#918789"/>
<stop offset="0.55" stop-color="#BBB0AE"/>
<stop offset="0.83" stop-color="#D7CCC8"/>
<stop offset="1" stop-color="#E2D7D2"/>
</linearGradient>
<clipPath id="clip0_69_14819">
<rect x="9.12024" y="9.40576" width="64" height="64" rx="32" fill="white"/>
</clipPath>
</defs>
</svg>
