<svg width="225" height="318" viewBox="0 0 225 318" fill="none" xmlns="http://www.w3.org/2000/svg">
<path d="M216.74 317.71H8.05003C3.62003 317.71 0.0300293 314.09 0.0300293 309.63V8.87C0.0300293 4.41 3.62003 0.789978 8.05003 0.789978H216.74C221.17 0.789978 224.76 4.41 224.76 8.87V309.63C224.76 314.09 221.17 317.71 216.74 317.71Z" fill="white"/>
<path d="M151.4 150.49C151.6 159.17 150.05 165.92 148.27 170.92C146.94 174.64 146.47 174.6 145.18 178.62C143.68 183.28 142.08 190.24 142.37 198.61C142.45 201 142.67 202.94 142.83 204.18C144.63 205.73 147.33 208.05 150.61 210.91C154.61 214.39 154.56 214.39 154.97 214.67C159.45 217.69 166.2 218.55 172.26 216.37C173.65 215.87 179.77 213.68 182.65 207.3C184.31 203.63 184.16 200.21 183.96 198.49C184.48 198.06 185.19 197.35 185.74 196.33C187.43 193.18 186.27 189.41 184.66 184.4C184.25 183.13 183.69 181.56 182.93 179.8C182.46 180.45 181.87 181.45 181.69 182.76C181.46 184.39 182.05 185.13 181.65 186.09C181.49 186.47 181 187.28 177.65 188.06C173.11 189.13 169.75 188.65 168.79 188.5C166.4 188.12 164.59 187.82 164.14 186.56C163.72 185.39 164.71 184.03 165.13 183.51C164.42 181.91 163.71 180.31 163 178.69C158.85 169.19 154.98 159.79 151.37 150.49H151.4Z" fill="#EB1C24"/>
<path d="M129.16 276.88C129.2 269.75 128.93 261.95 128.17 253.58C127.29 243.95 125.89 235.15 124.28 227.28C127.46 226.89 130.82 226.36 134.35 225.64C136.27 225.25 138.12 224.82 139.9 224.37C140.96 229.96 141.95 235.73 142.83 241.68C144.71 254.3 145.93 266.33 146.66 277.68" fill="white"/>
<path d="M129.16 276.88C129.2 269.75 128.93 261.95 128.17 253.58C127.29 243.95 125.89 235.15 124.28 227.28C127.46 226.89 130.82 226.36 134.35 225.64C136.27 225.25 138.12 224.82 139.9 224.37C140.96 229.96 141.95 235.73 142.83 241.68C144.71 254.3 145.93 266.33 146.66 277.68" stroke="black" stroke-width="0.75" stroke-linecap="round" stroke-linejoin="round"/>
<path d="M120.32 77.6599C121.89 76.0499 123.47 75.3 124.4 74.95C127.38 73.81 131.58 73.7 134.52 76.05C135.27 76.65 135.77 77.28 136.07 77.69C134.39 78.27 132 78.89 129.09 78.99C125.3 79.13 122.24 78.33 120.32 77.67V77.6599Z" fill="#EB1C24" stroke="black" stroke-width="0.75" stroke-linecap="round" stroke-linejoin="round"/>
<path d="M149.3 98.37C144.47 104.24 143.59 111.07 143.68 115.86C143.59 120.64 144.47 127.47 149.3 133.35C152.38 137.1 155.97 139.12 158.23 140.15C157.33 130.77 160.29 123.3 165.17 121.58C166.15 121.24 167.59 120.99 169.56 121.44C169.61 119.67 169.65 117.9 169.7 116.13H169.71C169.71 116.04 169.71 115.95 169.71 115.86V115.59C169.66 113.82 169.62 112.05 169.57 110.28C167.59 110.73 166.15 110.48 165.18 110.14C160.3 108.43 157.33 100.96 158.24 91.57C155.98 92.61 152.39 94.63 149.31 98.37H149.3Z" stroke="black" stroke-width="0.75" stroke-linecap="round" stroke-linejoin="round"/>
<path d="M173.68 121.44C174.63 121.93 176.45 122.7 178.77 122.58C179.95 122.52 180.89 122.47 181.69 121.83C182.83 120.92 182.84 118.88 182.83 114.83C182.83 111.63 182.55 110.76 181.89 110.15C181.2 109.52 180.37 109.41 179.39 109.3C178.33 109.18 176.25 109.12 173.68 110.27V121.43V121.44Z" stroke="black" stroke-width="0.75" stroke-linecap="round" stroke-linejoin="round"/>
<path d="M93.3601 110.97C93.5601 111.62 94.1701 113.94 92.9801 116.28C92.6201 116.99 91.7101 118.78 89.7201 119.28C88.4101 119.61 87.2901 119.2 86.8101 118.99C86.8501 119.35 87.0101 120.51 87.9401 121.47C88.5801 122.12 89.2801 122.39 89.6401 122.49C89.0301 122.76 87.9801 123.12 86.6601 123.07C85.9801 123.04 85.4101 122.92 84.9601 122.78C85.3901 123.36 86.4801 124.66 88.3601 125.34C90.4401 126.1 92.2401 125.65 93.1001 125.42C93.8001 125.24 96.7701 124.46 98.2601 121.9C99.6001 119.59 98.7901 117.46 100.8 115.57C101.19 115.21 101.56 114.96 101.81 114.82C101.12 114.05 98.7601 111.22 99.1501 107.53C99.2401 106.71 99.4501 105.99 99.7001 105.38C98.0601 106.57 96.3501 107.98 94.6501 109.64C94.2001 110.08 93.7701 110.53 93.3501 110.97H93.3601Z" fill="black" stroke="black" stroke-width="0.75" stroke-linecap="round" stroke-linejoin="round"/>
<path d="M125.62 133.91C126.76 136.62 128.14 140.97 127.87 146.32C127.77 148.26 127.48 149.99 127.11 151.48C126.09 150.24 124.34 148.44 121.72 147C119.81 145.95 118.04 145.42 116.71 145.15C115.26 146.03 113.5 147.3 111.75 149.1C110.65 150.23 109.76 151.35 109.06 152.36C107.02 150.57 104.93 148.63 102.81 146.55C100.56 144.33 97.72 141.38 94.6 137.75C92.97 135.85 91.07 133.53 89.03 130.83C89.7 130.23 90.46 129.46 91.2 128.49C92.06 127.38 92.67 126.32 93.11 125.43C93.37 125.36 93.65 125.28 93.94 125.18C94.1 125.13 94.26 125.07 94.4 125.01C96.04 127.36 98 129.86 100.36 132.39C106.02 138.45 111.93 142.49 116.71 145.15C117.99 143.94 119.58 142.18 121.06 139.79C122.51 137.44 123.37 135.24 123.89 133.55C124.46 133.67 125.03 133.79 125.61 133.91H125.62Z" fill="white"/>
<path d="M116.71 145.15C118.04 145.42 119.81 145.95 121.72 147C124.34 148.44 126.09 150.24 127.11 151.48C127.48 149.99 127.77 148.26 127.87 146.32C128.14 140.97 126.76 136.62 125.62 133.91H125.61C125.03 133.79 124.46 133.67 123.89 133.55C123.37 135.24 122.51 137.44 121.06 139.79C119.58 142.18 117.99 143.94 116.71 145.15ZM116.71 145.15C115.26 146.03 113.5 147.3 111.75 149.1C110.65 150.23 109.76 151.35 109.06 152.36C107.02 150.57 104.93 148.63 102.81 146.55C100.56 144.33 97.72 141.38 94.6 137.75C92.97 135.85 91.07 133.53 89.03 130.83C89.7 130.23 90.46 129.46 91.2 128.49C92.06 127.38 92.67 126.32 93.11 125.43C93.37 125.36 93.65 125.28 93.94 125.18C94.1 125.13 94.26 125.07 94.4 125.01C96.04 127.36 98 129.86 100.36 132.39C106.02 138.45 111.93 142.49 116.71 145.15Z" stroke="black" stroke-width="0.75" stroke-linecap="round" stroke-linejoin="round"/>
<path d="M116.72 145.15C117.2 146.8 117.65 148.65 118 150.7C118.27 152.28 118.44 153.77 118.55 155.15" stroke="black" stroke-width="0.75" stroke-linecap="round" stroke-linejoin="round"/>
<path d="M102.76 154.43C105.17 154.96 107.85 155.39 110.77 155.6C119.19 156.21 126.34 154.82 131.53 153.26" stroke="black" stroke-width="0.75" stroke-linecap="round" stroke-linejoin="round"/>
<path d="M114.19 212.66C114.5 199.22 113.14 177.65 102.76 154.43C98.5301 144.96 93.6501 137.11 89.0401 130.83C88.9001 130.58 88.6301 130.19 88.1701 129.92C86.4101 128.9 83.5601 130.8 82.7001 131.34C73.2701 137.36 52.7801 140.54 52.7201 148.95C52.7201 149.37 52.7601 150.12 53.1501 151.07C53.6101 150.35 54.4201 149.29 55.7001 148.37C57.4501 147.11 59.1801 146.74 60.0901 146.62C61.7401 147.9 63.9701 149.82 66.2601 152.47C68.6301 155.21 79.3101 167.57 77.0301 183.6C75.9201 191.42 72.1301 197.21 69.2301 200.7C70.2301 202.97 70.9201 204.84 71.3601 206.11C72.2001 208.56 72.4601 209.8 73.6301 210.93C74.6801 211.96 75.9201 212.36 76.7501 212.54C84.4301 212.88 92.4201 213.05 100.7 212.98C105.29 212.94 109.79 212.84 114.19 212.68V212.66Z" fill="white" stroke="black" stroke-width="0.75" stroke-linecap="round" stroke-linejoin="round"/>
<path d="M127.73 141.89C129.48 145.81 131.06 150.21 132.24 155.09C138.28 180.03 130.21 202 125.44 212.45C130.21 212.18 134.98 211.91 139.75 211.65C140.21 211.16 140.87 210.38 141.45 209.31C143.8 205.01 142.57 200.45 142.14 197.08C141.53 192.36 142.62 188.25 144.79 180.03C147.43 170.04 149.64 170.81 151.06 162.77C151.79 158.64 153.17 150.17 148.47 144.85C147.43 143.67 146.38 142.99 144.69 142.02C140.62 139.69 134.37 136.6 125.62 133.9C126.06 134.93 126.49 136.11 126.86 137.45C127.31 139.08 127.58 140.58 127.73 141.88V141.89Z" fill="white" stroke="black" stroke-width="0.75" stroke-linecap="round" stroke-linejoin="round"/>
<path d="M54.6001 144.88C55.1701 144.51 55.6801 144.38 56.0301 144.34C58.3301 144.05 60.0101 146.47 60.1001 146.61" stroke="black" stroke-width="0.75" stroke-linecap="round" stroke-linejoin="round"/>
<path d="M60.7001 140.93C60.9101 140.87 61.2901 140.77 61.7701 140.72C68.7401 140.01 76.0801 151.92 79.1201 161.02C79.9301 163.45 81.1301 167.13 81.2901 172.03C81.7801 187 71.9901 197.83 69.2401 200.68" stroke="black" stroke-width="0.75" stroke-linecap="round" stroke-linejoin="round"/>
<path d="M142.19 140.66C144.19 143.29 146.99 147.75 148.12 153.84C148.25 154.55 148.53 156.2 148.62 158.74C148.75 162.67 148.44 169.2 145.51 177.53" stroke="black" stroke-width="0.75" stroke-linecap="round" stroke-linejoin="round"/>
<path d="M53.16 151.06C50.18 161.85 47.37 170.44 45.44 176.12C39.7 192.95 36.33 199.44 36.51 210.03C36.64 217.69 38.56 223.87 40.05 227.71C39.09 229.36 37.29 232.99 37.43 237.8C37.56 242.42 39.41 245.71 40.57 247.71C42.25 250.61 44.2 252.59 45.58 253.8C45.11 254.16 44.45 254.73 43.81 255.55C43.28 256.23 42.94 256.67 42.82 257.3C42.59 258.55 43.38 259.64 43.67 260C43.54 260.21 43.17 260.88 43.24 261.79C43.3 262.55 43.65 263.08 43.81 263.29C43.69 263.59 43.19 264.99 43.85 266.47C44.18 267.22 44.68 267.69 44.98 267.93C44.91 268.03 44.27 268.97 44.63 270.12C45.04 271.43 46.35 271.75 46.4 271.76C49.28 270.3 52.48 268.83 56 267.45C59.19 266.2 62.23 265.18 65.07 264.34C65.18 264.12 65.55 263.3 65.31 262.26C65.1 261.33 64.52 260.79 64.32 260.62C64.45 260.51 65.34 259.72 65.36 258.38C65.38 257.01 64.46 256.18 64.33 256.08C64.55 255.64 64.79 254.99 64.86 254.18C65.02 252.24 64.04 250.8 63.73 250.38C66.87 244.75 66.92 242.68 66.23 241.92C66.02 241.68 65.44 241.24 64.87 240.34C64.39 239.58 64.14 238.87 64.01 238.37C64.54 236.67 65.04 234.65 65.33 232.33C65.85 228.27 65.56 224.77 65.14 222.2C66.05 218.72 66.97 215.25 67.88 211.77C67.82 210.41 67.75 209.04 67.69 207.68C68.21 205.34 68.73 203 69.25 200.66C71.62 197.76 77.21 190.08 77.36 179.31C77.46 172.26 75.19 166.99 73.81 163.86C69.82 154.84 63.67 149.32 60.11 146.59C59.2 146.72 57.46 147.09 55.72 148.34C54.42 149.27 53.62 150.33 53.17 151.04L53.16 151.06Z" fill="#EB1C24" stroke="black" stroke-width="0.75" stroke-linecap="round" stroke-linejoin="round"/>
<path d="M40.05 227.72C41.82 230.19 45.1101 234.15 50.4001 237.37C55.2301 240.31 59.74 241.43 62.59 241.9" stroke="black" stroke-width="0.75" stroke-linecap="round" stroke-linejoin="round"/>
<path d="M37.5 235.53C38.5 237.47 39.94 239.54 42.03 241.31C50.6 248.57 62.74 244.64 64.14 244.16" stroke="black" stroke-width="0.75" stroke-linecap="round" stroke-linejoin="round"/>
<path d="M67.6801 207.7C67.2101 206.44 66.5501 204.54 65.9401 202.18C64.6201 197.08 63.8901 191.28 64.7001 175.4C64.8901 171.72 65.1901 166.9 65.6901 161.22" stroke="black" stroke-width="0.75" stroke-linecap="round" stroke-linejoin="round"/>
<path d="M65.13 222.22C63.03 217.89 60.65 211.98 59.08 204.68C57.48 197.26 57.23 190.76 57.38 185.88" stroke="black" stroke-width="0.75" stroke-linecap="round" stroke-linejoin="round"/>
<path d="M43.66 260.02C44.8 258.94 46.74 257.38 49.49 256.27C52.78 254.95 55.69 254.9 57.33 255" stroke="black" stroke-width="0.75" stroke-linecap="round" stroke-linejoin="round"/>
<path d="M64.57 260.8C61.34 260.81 56.09 261.32 50.54 264.21C48.29 265.38 46.45 266.71 44.98 267.95" stroke="black" stroke-width="0.75" stroke-linecap="round" stroke-linejoin="round"/>
<path d="M45.5701 253.81C48.5601 252.36 52.8601 250.77 58.1801 250.38C60.2001 250.23 62.0601 250.27 63.7101 250.42" stroke="black" stroke-width="0.75" stroke-linecap="round" stroke-linejoin="round"/>
<path d="M142.83 204.18C144.73 205.92 147.69 208.56 151.52 211.64C153.18 212.97 154 213.64 154.5 213.98C161.13 218.57 173.27 218.75 179.73 212.3C182.31 209.72 183.35 206.71 183.49 206.31C184.62 202.92 184.26 199.94 183.99 198.49" stroke="black" stroke-width="0.75" stroke-linecap="round" stroke-linejoin="round"/>
<path d="M151.07 149.69L164.03 181.23" stroke="black" stroke-width="0.75" stroke-linecap="round" stroke-linejoin="round"/>
<path d="M64.22 264.62C64.68 265.37 65.16 266.32 65.54 267.47C66.42 270.14 66.26 272.51 66.04 273.92C59.49 273.21 52.94 272.5 46.39 271.79C52.33 269.4 58.28 267.01 64.22 264.62Z" stroke="black" stroke-width="0.75" stroke-linecap="round" stroke-linejoin="round"/>
<path d="M77.37 224.75C74.94 233.19 72.7 243.49 71.63 255.33C70.88 263.6 70.84 271.17 71.17 277.84C71.75 278.55 82.34 290.91 97.15 288.47C104.69 287.23 109.62 282.76 111.61 280.72C111.89 278.92 112.17 277.12 112.46 275.31C112.4 266.47 112.48 257.37 112.75 248.02C112.95 241.08 113.23 234.29 113.6 227.65C101.53 226.68 89.45 225.72 77.38 224.75H77.37Z" fill="white" stroke="black" stroke-width="0.75" stroke-linecap="round" stroke-linejoin="round"/>
<path d="M113.59 227.65C112.94 239.55 112.54 251.81 112.45 264.39C112.42 268.06 112.42 271.7 112.45 275.3" stroke="black" stroke-width="0.75" stroke-linecap="round" stroke-linejoin="round"/>
<path d="M173.92 197.17C174.6 197.77 176.8 199.53 179.97 199.53C180.83 199.53 182.5 199.53 183.98 198.49C187.39 196.09 186.63 190.32 186.58 189.99C186.43 188.92 186.26 188.61 183.93 182.43C183.33 180.83 182.84 179.51 182.52 178.65" stroke="black" stroke-width="0.75" stroke-linecap="round" stroke-linejoin="round"/>
<path d="M169.04 254.45C169.04 232.47 169.04 210.48 169.04 188.5H174.24C174.24 209.35 174.24 230.2 174.24 251.05" fill="white"/>
<path d="M169.04 254.45C169.04 232.47 169.04 210.48 169.04 188.5H174.24C174.24 209.35 174.24 230.2 174.24 251.05" stroke="black" stroke-width="0.75" stroke-linecap="round" stroke-linejoin="round"/>
<path d="M174.24 154.5H169.04V167.15H174.24V154.5Z" fill="white" stroke="black" stroke-width="0.75" stroke-linecap="round" stroke-linejoin="round"/>
<path d="M166.17 171.47C166.03 170.91 165.95 170.14 166.31 169.44C166.68 168.72 167.53 168.08 171.2 167.67C175.49 167.19 177.64 166.95 179.49 168.27C179.93 168.59 181.54 169.72 181.76 171.61C181.84 172.28 181.72 172.85 181.62 173.22C182.76 174.27 183.02 175.15 183.04 175.77C183.07 176.72 182.55 177.15 182.52 178.65C182.5 179.51 182.67 179.54 182.61 180.25C182.51 181.42 182.04 181.72 181.71 182.75C181.09 184.69 182.14 185.6 181.43 186.67C181.04 187.25 180.41 187.48 179.16 187.76C177.19 188.2 176.09 188.33 171.18 188.52C169.74 188.58 169.22 188.45 168.93 188.29C168.86 188.25 168.79 188.2 168.72 188.15C167.46 187.14 167.86 184.76 168.02 183.98" stroke="black" stroke-width="0.75" stroke-linecap="round" stroke-linejoin="round"/>
<path d="M169.04 188.5C166.14 187.99 164.07 186.83 163.95 185.5C163.91 185.08 164.03 184.25 164.59 183.87C165.03 183.57 165.56 183.68 166.03 183.75C167.15 183.93 168.3 183.99 169.43 184.03C172.03 184.14 175.38 183.36 176.47 183.09" stroke="black" stroke-width="0.75" stroke-linecap="round" stroke-linejoin="round"/>
<path d="M168.28 183.98C168.09 183.33 167.9 182.57 167.77 181.72C167.64 180.84 167.59 180.05 167.58 179.36C167.33 178.94 166.51 177.42 166.92 175.53C167.12 174.59 167.56 173.9 167.86 173.5C167.67 173.41 166.52 172.82 166.16 171.47C165.9 170.51 166.19 169.71 166.3 169.44" stroke="black" stroke-width="0.75" stroke-linecap="round" stroke-linejoin="round"/>
<path d="M165.63 183.69C165.48 183.64 164.56 183.3 164.18 182.33C163.92 181.66 163.94 180.73 164.46 180.2C164.59 180.07 164.77 179.95 165.92 179.68C166.6 179.52 167.17 179.42 167.57 179.35C168.35 179.29 169.14 179.21 169.94 179.12C172.25 178.86 174.43 178.5 176.46 178.07" stroke="black" stroke-width="0.75" stroke-linecap="round" stroke-linejoin="round"/>
<path d="M165.17 179.88C164.96 179.74 164.58 179.44 164.29 178.93C164.22 178.81 163.91 178.26 163.93 177.65C163.94 177.24 164.1 176.7 165.46 175.42C166.03 174.88 166.83 174.2 167.87 173.49C169.27 173.3 170.67 173.1 172.09 172.9C173.4 172.71 174.69 172.52 175.99 172.33" stroke="black" stroke-width="0.75" stroke-linecap="round" stroke-linejoin="round"/>
<path d="M166.02 170C165.16 170.76 164.66 171.52 164.37 172.03C163.86 172.95 163.19 174.14 163.65 175.24C163.88 175.78 164.31 176.12 164.6 176.3" stroke="black" stroke-width="0.75" stroke-linecap="round" stroke-linejoin="round"/>
<path d="M165.61 170.39C165.35 170.04 164.66 169.19 163.47 168.87C162.45 168.59 160.88 168.64 160.45 169.48C160.2 169.97 160.43 170.55 160.69 171.23C161.12 172.34 161.74 173.04 161.97 173.31C162.61 174.06 163.41 175.24 164.07 177.09" stroke="black" stroke-width="0.75" stroke-linecap="round" stroke-linejoin="round"/>
<path d="M164.4 183.54C162.77 183.78 159.06 184.53 155.47 187.44C151.9 190.33 150.38 193.77 149.8 195.31" stroke="black" stroke-width="0.75" stroke-linecap="round" stroke-linejoin="round"/>
<path d="M164.25 183.82C162.25 184.84 158.63 187.03 155.68 191.19C151.48 197.09 151.26 203.21 151.29 205.43" stroke="black" stroke-width="0.75" stroke-linecap="round" stroke-linejoin="round"/>
<path d="M167.82 188.1C167.12 188.83 165.11 191.15 164.84 194.67C164.42 200.15 168.61 203.68 169.03 204.02" stroke="black" stroke-width="0.75" stroke-linecap="round" stroke-linejoin="round"/>
<path d="M174.23 205.36C174.9 205.5 176.34 205.71 178.03 205.18C179.5 204.72 180.48 203.91 180.97 203.44" stroke="black" stroke-width="0.75" stroke-linecap="round" stroke-linejoin="round"/>
<path d="M165.63 187.4C164.63 187.98 162.04 189.66 160.41 193.01C158.83 196.25 159.04 199.22 159.18 200.38" stroke="black" stroke-width="0.75" stroke-linecap="round" stroke-linejoin="round"/>
<path d="M130.92 119.5C130.29 119.6 129.76 119.62 129.38 119.62C128.45 119.62 127.62 119.6 127.02 119.05C126.88 118.92 126.64 118.7 126.62 118.37C126.58 117.91 126.97 117.57 127.04 117.51" stroke="black" stroke-width="0.75" stroke-linecap="round" stroke-linejoin="round"/>
<path d="M106.25 115.72C106.17 115.92 105.86 116.63 105.22 116.78C104.81 116.88 104.41 116.7 103.73 116.21C102.71 115.48 102.19 115.11 101.46 114.15C100.64 113.07 98.8301 110.68 99.1601 107.52C99.2701 106.47 99.5801 105.65 99.8001 105.17" stroke="black" stroke-width="0.75" stroke-linecap="round" stroke-linejoin="round"/>
<path d="M101.36 104.13C101.86 103.97 102.78 103.76 103.73 104.13C104.62 104.48 105.1 105.17 105.64 105.97C106.88 107.8 106.7 108.93 107.66 109.3C108.22 109.52 108.88 109.36 109.29 109.05C110.01 108.51 109.98 107.5 110.1 106.43C110.16 105.97 110.43 103.62 111.48 102.11C113.08 99.79 115.96 100.2 116.69 97.96C116.85 97.47 116.85 97.04 116.83 96.76C113.23 98.1 109.38 99.77 105.4 101.86C103.99 102.6 102.64 103.36 101.34 104.12L101.36 104.13Z" fill="black" stroke="black" stroke-width="0.75" stroke-linecap="round" stroke-linejoin="round"/>
<path d="M105.26 112.88C105.44 113.35 105.11 114.01 104.64 114.32C104.5 114.41 104.29 114.56 104.02 114.53C103.18 114.46 102.73 112.75 102.61 111.88C102.5 111.11 102.42 110.52 102.83 110.1C103.24 109.68 103.93 109.66 104.4 109.86C104.65 109.96 105.04 110.22 105.01 110.47C104.98 110.72 104.58 110.71 104.38 111.1C104.24 111.37 104.25 111.71 104.35 111.95C104.56 112.5 105.09 112.42 105.27 112.88H105.26Z" fill="black"/>
<path d="M104.47 107.54C104.02 106.58 103.19 106.02 102.45 106.12C101.81 106.21 101.42 106.76 101.29 106.94C100.62 107.88 100.82 109.04 100.91 109.62C101.32 112.03 103.23 113.59 103.96 114.13" stroke="black" stroke-width="0.75" stroke-linecap="round" stroke-linejoin="round"/>
<path d="M118.88 105.06C118.88 105.06 119.45 104.45 120.47 104.1C121.94 103.61 123.4 104.01 124.32 104.27C124.78 104.4 125.16 104.56 125.91 104.87C127.93 105.71 128.68 106.22 129.44 105.91C129.53 105.87 129.82 105.74 130.02 105.44C130.22 105.13 130.3 104.69 130.16 104.38C129.92 103.84 129.04 103.75 128.64 103.71C125.19 103.32 124.98 102.33 123.08 102.61C120.55 102.99 118.87 105.05 118.88 105.06Z" fill="black" stroke="black" stroke-width="0.75" stroke-linecap="round" stroke-linejoin="round"/>
<path d="M168.46 127.37L166.9 154.98H176.39L174.83 127.37H173.68V105.22C174.36 105.46 175.26 105.66 175.9 105.22C177.43 104.16 176.3 100.12 175.67 97.79C174.61 93.87 173.19 88.16 171.62 80.32C169.9 88.43 168.53 94.23 167.38 98.71C166.92 100.48 165.94 104.21 167.41 105.22C168.04 105.65 168.94 105.46 169.63 105.22V127.37H168.48H168.46Z" fill="black" stroke="black" stroke-width="0.75" stroke-linecap="round" stroke-linejoin="round"/>
<path d="M169.61 105.22H173.67H169.61Z" fill="white"/>
<path d="M169.61 105.22H173.67" stroke="black" stroke-width="0.75" stroke-linecap="round" stroke-linejoin="round"/>
<path d="M173.68 127.37H169.62V105.22C170.29 103.3 170.95 101.38 171.62 99.46C172.31 101.38 172.99 103.3 173.68 105.22V127.37Z" fill="white" stroke="black" stroke-width="0.75" stroke-linecap="round" stroke-linejoin="round"/>
<path d="M93.36 110.97C94.72 109.53 96.64 107.66 99.12 105.71C102.23 103.27 107.49 99.72 114.81 97.38C120.17 95.66 131.64 93 133.39 96.74C133.58 97.14 133.62 97.53 133.62 97.81C134.15 97.44 136.07 96.01 136.12 93.91C136.12 93.91 136.14 92.95 135.67 92.06C134 88.87 123.84 89.12 114.49 92.06C111.72 92.93 107.84 94.4201 103.41 97.0301C102.11 98.8601 100.54 100.85 98.67 102.88C96.39 105.35 94.16 107.34 92.15 108.92C92.55 109.6 92.95 110.28 93.36 110.97Z" fill="#EB1C24" stroke="black" stroke-width="0.75" stroke-linecap="round" stroke-linejoin="round"/>
<path d="M135.87 92.52C136.51 92.44 137.49 92.22 138.47 91.6C141.46 89.72 141.7 85.88 141.75 85.05C141.78 84.52 142 80.02 139.43 78.33C138.21 77.52 136.77 77.63 135.05 77.75C133.28 77.87 131.99 78.32 131.65 78.43C129.77 79.05 126.62 79.34 121.05 77.86C118.11 77.05 114.28 76.42 109.84 76.78C106.43 77.06 104.08 77.8 101.17 78.73C95.03 80.68 93.73 82.35 93.13 83.41C92.4 84.68 92.1601 85.97 92.0801 86.87C90.5001 89.48 89.02 91.4 87.99 92.64C85.78 95.31 84.73 95.95 84.06 98.07C83.36 100.27 83.56 102.47 83.65 103.41C83.74 104.41 83.83 105.26 84.29 106.22C85.06 107.8 86.33 108.59 86.96 108.93C86.47 110.47 86.69 112.07 87.59 112.83C88.86 113.91 91.73 113.51 93.36 110.98C92.96 110.3 92.5601 109.62 92.1501 108.93C94.0201 107.45 96.08 105.63 98.18 103.41C100.3 101.17 102.02 99 103.41 97.04C108.05 94.46 112.15 92.87 115.14 91.87C115.14 91.87 123.27 89.17 131.61 90.01C134.09 90.26 135.05 91.13 135.49 91.78C135.7 92.08 135.81 92.36 135.87 92.53V92.52Z" fill="#EB1C24" stroke="black" stroke-width="0.75" stroke-linecap="round" stroke-linejoin="round"/>
<path d="M92.1501 108.92C89.6901 109.05 87.4101 107.77 86.3401 105.61C84.8801 102.66 86.3201 99.4 87.5901 97.82C89.0801 95.97 90.5501 96.13 92.5101 95.09C98.9601 91.66 97.6001 82.13 102.16 80.67C104.82 79.82 106.26 82.74 111.72 84.96C116.87 87.05 121.66 86.93 124.86 86.52" stroke="black" stroke-width="0.75" stroke-linecap="round" stroke-linejoin="round"/>
<path d="M111.18 80.29C111.89 80.04 113.08 79.68 114.58 79.51C118.71 79.04 120.71 80.51 124.47 80.27C125.69 80.19 127.54 79.9 129.78 78.84" stroke="black" stroke-width="0.75" stroke-linecap="round" stroke-linejoin="round"/>
<path d="M124.79 78.04C124.57 77.76 121.1 73.47 116.67 74.15C116.13 74.23 114.57 74.4801 113.2 75.7801C111.38 77.5101 111.2 79.82 111.17 80.29C110.95 78.83 110.73 77.37 110.51 75.91C109.91 77.72 109.32 79.53 108.72 81.33C107.99 82.4 106.92 83.71 105.41 84.96C102.22 87.59 98.94 88.3401 97.29 88.5901C97.43 87.1801 97.57 85.78 97.71 84.37C96.3 86.54 94.9 88.7 93.49 90.87C91.49 91.08 87.83 91.1701 84.01 89.3401C82.36 88.5501 81.07 87.59 80.11 86.73C80.74 85.31 82.65 81.49 86.86 78.71C90.44 76.35 93.83 75.97 95.33 75.9C96.06 76.22 97.05 76.56 98.25 76.74C99.47 76.93 100.55 76.91 101.38 76.83C100.28 76.11 99.17 75.39 98.06 74.67C100.49 75.16 102.41 74.87 103.57 74.58C105.74 74.04 105.92 73.35 108.26 72.51C111.41 71.38 115.25 71.65 117.11 72.01C118.12 72.21 119.45 72.55 120.95 73.2" fill="white"/>
<path d="M124.79 78.04C124.57 77.76 121.1 73.47 116.67 74.15C116.13 74.23 114.57 74.4801 113.2 75.7801C111.38 77.5101 111.2 79.82 111.17 80.29C110.95 78.83 110.73 77.37 110.51 75.91C109.91 77.72 109.32 79.53 108.72 81.33C107.99 82.4 106.92 83.71 105.41 84.96C102.22 87.59 98.94 88.3401 97.29 88.5901C97.43 87.1801 97.57 85.78 97.71 84.37C96.3 86.54 94.9 88.7 93.49 90.87C91.49 91.08 87.83 91.1701 84.01 89.3401C82.36 88.5501 81.07 87.59 80.11 86.73C80.74 85.31 82.65 81.49 86.86 78.71C90.44 76.35 93.83 75.97 95.33 75.9C96.06 76.22 97.05 76.56 98.25 76.74C99.47 76.93 100.55 76.91 101.38 76.83C100.28 76.11 99.17 75.39 98.06 74.67C100.49 75.16 102.41 74.87 103.57 74.58C105.74 74.04 105.92 73.35 108.26 72.51C111.41 71.38 115.25 71.65 117.11 72.01C118.12 72.21 119.45 72.55 120.95 73.2" stroke="black" stroke-width="0.75" stroke-linecap="round" stroke-linejoin="round"/>
<path d="M80.38 86.96C81.09 86.12 82.18 85.02 83.72 84.13C88.56 81.35 92.03 84.05 97.94 81.35C98.97 80.88 100.57 80.15 102.26 78.62C104.64 76.47 105.05 74.67 107.31 73.18C108.84 72.17 110.37 71.85 111.41 71.75" stroke="black" stroke-width="0.75" stroke-linecap="round" stroke-linejoin="round"/>
<path d="M125.01 79.77C126.01 79.96 127.37 77.6 127.96 75.58C129.04 71.9 127.82 68.46 127.07 66.32C126.47 64.61 125.25 61.83 122.78 59.01C122.39 59.5 122.01 59.98 121.62 60.47C120.79 59.22 118.95 56.82 115.81 55.31C115.14 54.99 110.5 52.83 105.35 54.82C103.87 55.39 102.85 56.11 102.13 56.62C98.5699 59.15 98.5699 61.18 95.3399 63.51C94.0199 64.47 92.1299 65.79 89.7799 65.48C89.3099 65.42 86.5099 65.06 85.8599 62.85C85.4099 61.32 86.2599 59.83 86.4699 59.5C86.1999 59.88 85.8199 60.51 85.5999 61.39C85.5399 61.64 85.0699 63.55 85.9399 65.26C86.8599 67.09 88.7499 67.64 89.1199 67.74C93.7399 69.08 98.9099 63.61 104.57 62.3C104.99 62.2 105.75 62.05 106.7 62.21C108.71 62.56 110.09 64.08 110.81 65.04C112.21 64.29 113.61 63.55 115.01 62.8C114.24 64.03 113.48 65.27 112.71 66.5C114.38 67.35 116.06 68.2 117.73 69.05C117.36 69.3 116.99 69.56 116.62 69.81C121.28 72.27 122.99 74.97 123.68 77.02C124.07 78.19 124.29 79.61 125.02 79.75L125.01 79.77Z" fill="white" stroke="black" stroke-width="0.75" stroke-linecap="round" stroke-linejoin="round"/>
<path d="M125.32 79.74C125.66 78.11 126.14 74.84 125.16 70.97C124.98 70.24 124.09 66.91 121.47 63.66C117.97 59.32 110.94 54.63 103.84 57.01C102.46 57.47 99.57 58.71 96.84 62.24" stroke="black" stroke-width="0.75" stroke-linecap="round" stroke-linejoin="round"/>
<path d="M96.63 123.76C96.68 125.24 96.72 126.73 96.77 128.21" stroke="black" stroke-width="0.75" stroke-linecap="round" stroke-linejoin="round"/>
<path d="M158.21 111.36C156.03 111.31 155.53 112.97 155.41 113.78C155.29 112.98 154.79 111.31 152.61 111.36C149.74 111.43 149.36 114.64 150.36 116.27C151.36 117.89 151.88 118.41 152.88 119.45C153.82 120.43 154.95 121.53 155.37 122.2C155.37 122.2 155.39 122.28 155.4 122.26C155.41 122.28 155.43 122.2 155.43 122.2C155.85 121.53 156.97 120.43 157.92 119.45C158.92 118.41 159.44 117.89 160.44 116.27C161.44 114.65 161.06 111.43 158.19 111.36H158.21Z" fill="#EB1C24" stroke="black" stroke-width="0.75" stroke-linecap="round" stroke-linejoin="round"/>
<path d="M61.1501 140.87C60.8001 142.78 60.4501 144.69 60.1001 146.6L71.3101 146.43C70.6801 149.59 70.0401 152.74 69.4101 155.9C72.2301 156.51 75.0501 157.12 77.8701 157.74C76.8101 160.48 75.7501 163.21 74.6901 165.95L81.1901 170.55C79.8501 172.26 78.5001 173.97 77.1601 175.68C78.2401 177.38 79.3201 179.09 80.4101 180.79C79.2801 181.72 78.1601 182.65 77.0301 183.58" stroke="black" stroke-width="0.75" stroke-linecap="round" stroke-linejoin="round"/>
<path d="M144.41 143.83C146.3 144.96 148.19 146.08 150.08 147.21C149.37 149.16 148.67 151.1 147.96 153.05C149.09 155.42 150.23 157.78 151.36 160.15C150.41 161.76 149.45 163.36 148.5 164.97" stroke="black" stroke-width="0.75" stroke-linecap="round" stroke-linejoin="round"/>
<path d="M82.7101 131.33C83.3401 132.3 84.2401 133.69 85.2901 135.39C92.4801 146.96 96.9301 156.45 97.7901 158.34C102.39 168.48 107.12 187.84 108.68 212.76" stroke="black" stroke-width="0.75" stroke-linecap="round" stroke-linejoin="round"/>
<path d="M129.39 135.15C132.71 141.69 136.71 151.62 138.06 164.22C140.49 186.88 132.9 204.51 129 212.19" stroke="black" stroke-width="0.75" stroke-linecap="round" stroke-linejoin="round"/>
<path d="M108.11 227.8C107.4 246.18 106.69 264.56 105.98 282.93" stroke="black" stroke-width="0.75" stroke-linecap="round" stroke-linejoin="round"/>
<path d="M127.67 226.91C129.11 233.24 130.43 239.97 131.55 247.08C133.27 257.97 134.27 268.2 134.8 277.63" stroke="black" stroke-width="0.75" stroke-linecap="round" stroke-linejoin="round"/>
<path d="M82.7101 131.33C84.8201 131.16 86.9301 130.99 89.0401 130.82C88.1201 132.87 87.1901 134.92 86.2701 136.97C89.1301 137.8 92.0001 138.63 94.8601 139.47C94.1301 142.17 93.3901 144.88 92.6601 147.58C95.4101 148.54 98.1601 149.51 100.91 150.47L98.0101 158.85L106.44 163.6C104.92 165.69 103.39 167.77 101.87 169.86C104.61 171.63 107.35 173.4 110.09 175.17C108.22 176.97 106.36 178.78 104.49 180.58C107.1 182.48 109.72 184.39 112.33 186.29C110.43 188.43 108.52 190.57 106.62 192.71C109.01 194.42 111.39 196.13 113.78 197.84C111.85 199.89 109.91 201.93 107.98 203.98C110.06 205.31 112.14 206.63 114.22 207.96C112.5 209.41 110.77 210.86 109.05 212.31" stroke="black" stroke-width="0.75" stroke-linecap="round" stroke-linejoin="round"/>
<path d="M108.11 227.8C109.84 229.63 111.57 231.46 113.3 233.29C111.48 234.75 109.65 236.21 107.83 237.67C109.51 239.64 111.2 241.61 112.88 243.58C111.01 245.47 109.13 247.36 107.26 249.24C109.03 251.35 110.8 253.46 112.56 255.58C110.73 257.28 108.9 258.98 107.07 260.68L112.44 266.63C110.43 268.68 108.42 270.72 106.41 272.77C108.08 274.5 109.76 276.24 111.43 277.97" stroke="black" stroke-width="0.75" stroke-linecap="round" stroke-linejoin="round"/>
<path d="M125.47 133.77C127.56 135.91 129.65 138.06 131.73 140.2C130.56 141.13 129.38 142.06 128.21 142.99L134.71 148.21C133.6 149.43 132.5 150.65 131.39 151.87C133.28 153.73 135.16 155.59 137.05 157.46C135.91 159.05 134.76 160.64 133.62 162.23C135.21 164.1 136.79 165.97 138.38 167.85C137.05 169.36 135.73 170.88 134.4 172.39C135.72 174.45 137.04 176.51 138.35 178.57C136.86 179.93 135.37 181.28 133.88 182.64C134.9 184.85 135.92 187.06 136.94 189.27C135.41 190.15 133.88 191.02 132.35 191.9C133.09 194.12 133.83 196.33 134.57 198.55C132.95 199.56 131.33 200.57 129.71 201.57C130.15 203.69 130.59 205.81 131.03 207.93C129.23 209.29 127.44 210.66 125.64 212.02" stroke="black" stroke-width="0.75" stroke-linecap="round" stroke-linejoin="round"/>
<path d="M127.9 226.86C126.92 228.07 125.95 229.29 124.97 230.5C126.37 231.82 127.77 233.15 129.17 234.47C128.34 236.45 127.5 238.44 126.67 240.42C128.12 241.58 129.57 242.73 131.02 243.89C129.95 245.66 128.88 247.43 127.8 249.21C129.41 251.01 131.02 252.82 132.62 254.62C131.47 256.39 130.32 258.16 129.17 259.93C130.75 261.98 132.34 264.03 133.92 266.08C132.32 267.89 130.72 269.7 129.13 271.51C131.01 273.39 132.88 275.26 134.76 277.14" stroke="black" stroke-width="0.75" stroke-linecap="round" stroke-linejoin="round"/>
<path d="M107.68 123.09C107.4 124.45 107.22 126.5 108.34 128.1C109.32 129.49 110.5 129.42 114.86 130.84C117.48 131.69 120.27 132.76 123.9 133.55C124.74 133.73 126.31 134.05 127.8 133.29C128.55 132.91 129 132.39 129.12 132.25C130.3 130.85 130.19 128.97 130.16 128.09C130.09 126.14 130.22 123.42 130.92 119.49C134.1 119.33 134.64 118.41 134.77 118.05C134.96 117.52 134.66 117.12 133.64 115.07C132.16 112.11 131.84 111.03 131.73 110.61C131.29 109.01 131.05 108.14 131.45 107.21C132.01 105.9 133.18 106.03 133.72 104.66C134.03 103.86 133.8 103.4 133.65 101.68C133.57 100.77 133.51 99.45 133.63 97.81" stroke="black" stroke-width="0.75" stroke-linecap="round" stroke-linejoin="round"/>
<path d="M76.23 212.52C76.07 212.93 75.88 213.55 75.85 214.32C75.81 215.64 76.26 216.63 76.51 217.1C75.64 218.3 75.37 219.69 75.9 220.71C76.02 220.93 76.21 221.22 76.56 221.49C76.51 221.57 75.89 222.56 76.32 223.63C76.61 224.34 77.19 224.66 77.36 224.75C88.23 226.29 97.58 227.02 104.9 227.38C119.36 228.09 126.5 227.38 133.15 225.92C135.83 225.33 138.01 224.71 139.48 224.26C139.57 224.21 140.4 223.75 140.55 222.75C140.67 221.96 140.28 221.38 140.2 221.25C140.43 220.95 140.68 220.53 140.84 220.01C141.37 218.29 140.55 216.75 140.34 216.39C140.53 216.05 140.86 215.38 140.87 214.49C140.9 212.92 139.95 211.87 139.74 211.64C131.36 212.12 122.73 212.47 113.87 212.66C100.84 212.94 88.27 212.87 76.22 212.51L76.23 212.52Z" fill="black" stroke="black" stroke-width="0.75" stroke-linecap="round" stroke-linejoin="round"/>
<path d="M75.01 216.89C81.11 217.67 87.58 218.26 94.4 218.56C112.19 219.36 128.17 218.08 141.83 215.97" stroke="white" stroke-width="0.75" stroke-linecap="round" stroke-linejoin="round"/>
<path d="M75.37 221.5C81.8 222.07 89.51 222.24 98.15 221.39C104.2 220.79 109.67 219.8 114.45 218.66" stroke="white" stroke-width="0.75" stroke-linecap="round" stroke-linejoin="round"/>
<path d="M141.56 221.07C133.91 221.99 125.4 222.65 116.16 222.8C106.89 222.95 98.34 222.56 90.64 221.87" stroke="white" stroke-width="0.75" stroke-linecap="round" stroke-linejoin="round"/>
<path d="M119.74 228.33C123.877 228.33 127.23 224.444 127.23 219.65C127.23 214.856 123.877 210.97 119.74 210.97C115.603 210.97 112.25 214.856 112.25 219.65C112.25 224.444 115.603 228.33 119.74 228.33Z" fill="white" stroke="black" stroke-width="0.75" stroke-linecap="round" stroke-linejoin="round"/>
<path d="M121.71 228.33C125.847 228.33 129.2 224.444 129.2 219.65C129.2 214.856 125.847 210.97 121.71 210.97C117.573 210.97 114.22 214.856 114.22 219.65C114.22 224.444 117.573 228.33 121.71 228.33Z" fill="white" stroke="black" stroke-width="0.75" stroke-linecap="round" stroke-linejoin="round"/>
<path d="M124.61 215.6C122.76 215.55 122.33 217.13 122.23 217.89C122.13 217.13 121.7 215.55 119.85 215.6C117.41 215.67 117.09 218.71 117.94 220.26C118.79 221.8 119.23 222.29 120.08 223.28C120.88 224.21 121.84 225.25 122.19 225.89C122.19 225.89 122.21 225.96 122.22 225.94C122.23 225.96 122.25 225.89 122.25 225.89C122.6 225.25 123.56 224.21 124.36 223.28C125.21 222.3 125.65 221.8 126.5 220.26C127.35 218.72 127.03 215.67 124.59 215.6H124.61Z" fill="#EB1C24" stroke="black" stroke-width="0.75" stroke-linecap="round" stroke-linejoin="round"/>
<path d="M171.61 76.57C171.61 86.13 171.61 95.68 171.62 105.24" stroke="white" stroke-width="0.75" stroke-linecap="round" stroke-linejoin="round"/>
<path d="M210.28 117.78C210.28 83.25 210.29 48.71 210.3 14.18C145.16 14.18 80.01 14.18 14.87 14.19C14.84 48.16 14.81 82.13 14.78 116.1C18.2 100.85 25.1 78.36 38.26 66.35C48.33 57.17 53.36 52.57 57.3 50.73C59.13 49.87 64.98 47.34 69.82 41.43C70.72 40.34 71.37 39.38 71.78 38.74C72.2 39.3 73.82 41.37 76.05 41.41C78.95 41.46 82.19 38.06 82.35 32.94C82.69 33.7 85.54 39.76 92.02 41.13C95.14 41.79 97.76 41.09 99.11 40.61C99.99 39.88 101.16 38.75 102.23 37.13C103.28 35.54 103.85 34.05 104.18 32.97H120.91C121.01 33.59 121.82 38.16 125.98 40.44C130.05 42.67 134.18 40.97 135.45 40.46C139.84 38.69 141.7 35.04 142.11 34.18C143.1 38.9 146.4 41.82 149.3 41.59C149.77 41.55 151.28 41.35 152.85 39.59L157.86 43.76C159.82 44.92 162.57 46.63 165.74 48.85C169.46 51.45 181.8 60.21 191.49 72.8C204.36 89.52 208.67 107.93 210.27 117.76L210.28 117.78Z" fill="url(#paint0_linear_2_19097)"/>
<path d="M210.79 304.58H14.16C14.16 244.14 14.16 183.7 14.16 123.26C14.16 86.74 14.16 50.23 14.16 13.71H210.79C210.79 50.17 210.79 86.63 210.79 123.09C210.79 183.59 210.79 244.08 210.79 304.58Z" stroke="#0E0E0E" stroke-linecap="round" stroke-linejoin="round"/>
<path d="M112.37 43.62C112.3 42.79 111.96 39.88 109.55 37.41C107.39 35.19 104.85 34.66 103.98 34.51C104.05 33.64 104.12 32.77 104.19 31.9C105.33 31.37 107.62 30.11 109.52 27.56C111.45 24.97 112 22.39 112.18 21.14C112.63 22.7 113.62 25.37 115.88 27.97C117.62 29.97 119.47 31.19 120.75 31.9C120.82 32.77 120.89 33.64 120.96 34.51C120.34 34.57 116.35 35.03 113.95 38.52C112.54 40.58 112.37 42.68 112.35 43.62H112.37Z" fill="white"/>
<path d="M70.76 29.69C71.87 29.37 73.7 29.02 75.77 29.52C77.58 29.95 78.8 30.83 79.49 31.35C85.57 35.91 86.47 39.45 90.65 41.05C91.19 41.26 95.1 42.55 99.04 40.71C101.82 39.41 103.8 36.45 104.11 33.24C104.55 28.64 101.35 24.09 97.64 23.26C97.21 23.16 94.87 22.64 92.96 24.07C92.72 24.25 91.24 25.39 91.03 27.4C91 27.7 90.76 30.29 92.74 31.55C93.85 32.25 95.26 32.29 96.38 31.77C97.97 31.04 98.93 29.21 98.68 27.25C99.07 27.68 99.61 28.35 100.04 29.27C100.25 29.71 101.61 32.72 100.31 35.61C98.73 39.13 94.42 39.75 93.84 39.83C89.99 40.38 85.99 38.36 83.37 34.73" stroke="#0E0E0E" stroke-linecap="round" stroke-linejoin="round"/>
<path d="M104.19 31.78C104.95 31.41 106.14 30.74 107.35 29.64C111.22 26.11 111.93 21.21 112.25 19.03C112.43 17.8 112.59 15.97 112.38 13.7" stroke="#0E0E0E" stroke-linecap="round" stroke-linejoin="round"/>
<path d="M103.98 34.39C104.93 34.56 105.96 34.86 106.98 35.38C111.59 37.73 112.27 42.65 112.37 43.5" stroke="#0E0E0E" stroke-linecap="round" stroke-linejoin="round"/>
<path d="M154.2 29.69C153.09 29.37 151.26 29.02 149.19 29.52C147.38 29.95 146.16 30.83 145.47 31.35C139.39 35.91 138.49 39.45 134.31 41.05C133.77 41.26 129.86 42.55 125.92 40.71C123.14 39.41 121.16 36.45 120.85 33.24C120.41 28.64 123.61 24.09 127.32 23.26C127.75 23.16 130.09 22.64 132 24.07C132.24 24.25 133.72 25.39 133.93 27.4C133.96 27.7 134.2 30.29 132.22 31.55C131.11 32.25 129.7 32.29 128.58 31.77C126.99 31.04 126.03 29.21 126.28 27.25C125.89 27.68 125.35 28.35 124.92 29.27C124.71 29.71 123.35 32.72 124.65 35.61C126.23 39.13 130.54 39.75 131.12 39.83C134.97 40.38 138.97 38.36 141.59 34.73" stroke="#0E0E0E" stroke-linecap="round" stroke-linejoin="round"/>
<path d="M120.97 34.39C120.02 34.56 118.99 34.86 117.97 35.38C113.36 37.73 112.68 42.65 112.58 43.5" stroke="#0E0E0E" stroke-linecap="round" stroke-linejoin="round"/>
<path d="M153.25 38.83C153.1 39.17 152.31 40.92 150.46 41.5C148.5 42.12 146.78 40.98 146.06 40.5C143.03 38.49 142.73 34.66 142.7 34.04" stroke="#0E0E0E" stroke-linecap="round" stroke-linejoin="round"/>
<path d="M163.89 48.05C163.03 47.56 161.82 46.82 160.46 45.83C156.53 42.97 153.46 40.74 152.66 37.1C151.93 33.79 153.42 31 153.68 30.53C156.13 26.11 161.26 25.38 162.32 25.26C167.09 24.72 171.93 27.24 174.96 31.64" stroke="#0E0E0E" stroke-linecap="round" stroke-linejoin="round"/>
<path d="M174.29 54.92C174.34 44.63 171.82 36.55 167.83 34.32C165.78 33.18 163.7 33.15 163.7 33.15C163.01 33.15 159.52 33.2 157.31 36.08C155.34 38.65 155.83 41.59 155.92 42.09" stroke="#0E0E0E" stroke-linecap="round" stroke-linejoin="round"/>
<path d="M202.47 49.72C202.99 49.46 204.65 48.69 206.44 49.15C209.63 49.96 209.99 53.81 210.01 54.09C210.2 56.54 208.7 59.39 205.84 60.41C203.64 61.19 201.52 60.57 200.39 60.24C196.73 59.17 194.72 56.68 193.72 55.42C190.52 51.34 192.08 49.36 188.8 46.46C187.91 45.67 186.11 44.07 183.35 43.65C180.48 43.2 179.3 44.44 176.68 43.71C174.11 42.99 172.78 41.1 172.44 40.57C172.28 40.33 170.41 37.32 172.17 34.29C172.53 33.66 173.6 31.83 176.01 31.3C178.2 30.83 180.61 31.63 181.93 33.2C183.06 34.54 183.39 36.43 182.51 37.93C182.32 38.26 181.72 39.28 180.36 39.69C179.22 40.03 177.77 39.88 176.77 39.08C175.89 38.37 175.73 37.46 175.7 37.19" stroke="#0E0E0E" stroke-linecap="round" stroke-linejoin="round"/>
<path d="M190.85 49.25C190.43 44.69 188.1 40.94 184.69 39.72C183.91 39.44 182.69 39.16 181.07 39.36" stroke="#0E0E0E" stroke-linecap="round" stroke-linejoin="round"/>
<path d="M194.32 56.32C193.7 56.16 191.12 55.56 188.92 57C186.27 58.74 185.21 62.77 186.84 66.59" stroke="#0E0E0E" stroke-linecap="round" stroke-linejoin="round"/>
<path d="M196.13 70.07C195.72 70.05 194.87 70.06 193.97 70.53C192.51 71.3 192.03 72.71 191.94 73.03" stroke="#0E0E0E" stroke-linecap="round" stroke-linejoin="round"/>
<path d="M210.78 121.82C210.76 121.68 210.74 121.43 210.7 121.14C209.92 114.29 205.51 82.31 179.21 58.98C175.94 56.08 170.87 52.01 163.89 48.05" stroke="#0E0E0E" stroke-linecap="round" stroke-linejoin="round"/>
<path d="M112.37 43.62C112.3 42.79 111.96 39.88 109.55 37.41C107.39 35.19 104.85 34.66 103.98 34.51C104.05 33.64 104.12 32.77 104.19 31.9C105.33 31.37 107.62 30.11 109.52 27.56C111.45 24.97 112 22.39 112.18 21.14C112.63 22.7 113.62 25.37 115.88 27.97C117.62 29.97 119.47 31.19 120.75 31.9C120.82 32.77 120.89 33.64 120.96 34.51C120.34 34.57 116.35 35.03 113.95 38.52C112.54 40.58 112.37 42.68 112.35 43.62H112.37Z" fill="black" stroke="black" stroke-width="0.75" stroke-linecap="round" stroke-linejoin="round"/>
<path d="M154.2 29.69C153.09 29.37 151.26 29.02 149.19 29.52C147.38 29.95 146.16 30.83 145.47 31.35C139.39 35.91 138.49 39.45 134.31 41.05C133.77 41.26 129.86 42.55 125.92 40.71C123.14 39.41 121.16 36.45 120.85 33.24C120.41 28.64 123.61 24.09 127.32 23.26C127.75 23.16 130.09 22.64 132 24.07C132.24 24.25 133.72 25.39 133.93 27.4C133.96 27.7 134.2 30.29 132.22 31.55C131.11 32.25 129.7 32.29 128.58 31.77C126.99 31.04 126.03 29.21 126.28 27.25C125.89 27.68 125.35 28.35 124.92 29.27C124.71 29.71 123.35 32.72 124.65 35.61C126.23 39.13 130.54 39.75 131.12 39.83C134.97 40.38 138.97 38.36 141.59 34.73" stroke="#0E0E0E" stroke-linecap="round" stroke-linejoin="round"/>
<path d="M120.76 31.78C119.29 31.05 118.26 30.24 117.6 29.64C113.14 25.58 112.71 19.55 112.55 17.33C112.44 15.81 112.5 14.55 112.57 13.7" stroke="#0E0E0E" stroke-linecap="round" stroke-linejoin="round"/>
<path d="M120.97 34.39C120.02 34.56 118.99 34.86 117.97 35.38C113.36 37.73 112.68 42.65 112.58 43.5" stroke="#0E0E0E" stroke-linecap="round" stroke-linejoin="round"/>
<path d="M153.25 38.83C153.1 39.17 152.31 40.92 150.46 41.5C148.5 42.12 146.78 40.98 146.06 40.5C143.03 38.49 142.73 34.66 142.7 34.04" stroke="#0E0E0E" stroke-linecap="round" stroke-linejoin="round"/>
<path d="M163.89 48.05C163.03 47.56 161.82 46.82 160.46 45.83C156.53 42.97 153.46 40.74 152.66 37.1C151.93 33.79 153.42 31 153.68 30.53C156.13 26.11 161.26 25.38 162.32 25.26C167.09 24.72 171.93 27.24 174.96 31.64" stroke="#0E0E0E" stroke-linecap="round" stroke-linejoin="round"/>
<path d="M174.29 54.92C174.34 44.63 171.82 36.55 167.83 34.32C165.78 33.18 163.7 33.15 163.7 33.15C163.01 33.15 159.52 33.2 157.31 36.08C155.34 38.65 155.83 41.59 155.92 42.09" stroke="#0E0E0E" stroke-linecap="round" stroke-linejoin="round"/>
<path d="M202.47 49.72C202.99 49.46 204.65 48.69 206.44 49.15C209.63 49.96 209.99 53.81 210.01 54.09C210.2 56.54 208.7 59.39 205.84 60.41C203.64 61.19 201.52 60.57 200.39 60.24C196.73 59.17 194.72 56.68 193.72 55.42C190.52 51.34 192.08 49.36 188.8 46.46C187.91 45.67 186.11 44.07 183.35 43.65C180.48 43.2 179.3 44.44 176.68 43.71C174.11 42.99 172.78 41.1 172.44 40.57C172.28 40.33 170.41 37.32 172.17 34.29C172.53 33.66 173.6 31.83 176.01 31.3C178.2 30.83 180.61 31.63 181.93 33.2C183.06 34.54 183.39 36.43 182.51 37.93C182.32 38.26 181.72 39.28 180.36 39.69C179.22 40.03 177.77 39.88 176.77 39.08C175.89 38.37 175.73 37.46 175.7 37.19" stroke="#0E0E0E" stroke-linecap="round" stroke-linejoin="round"/>
<path d="M190.85 49.25C190.43 44.69 188.1 40.94 184.69 39.72C183.91 39.44 182.69 39.16 181.07 39.36" stroke="#0E0E0E" stroke-linecap="round" stroke-linejoin="round"/>
<path d="M210.65 65.35C209.01 62.54 206.39 60.79 203.78 60.95C200.55 61.15 198.65 64.18 197.83 65.49C193.21 72.86 198.15 82.93 198.91 84.44" stroke="#0E0E0E" stroke-linecap="round" stroke-linejoin="round"/>
<path d="M210.73 120.91C208.85 108.04 202.74 79.89 179.21 58.98C174.09 54.43 168.86 50.86 163.89 48.05" stroke="#0E0E0E" stroke-linecap="round" stroke-linejoin="round"/>
<path d="M14.5801 198.51C14.6101 233.7 14.6301 268.89 14.6601 304.07C79.8101 304.06 144.96 304.04 210.11 304.03C210.14 270.06 210.17 236.09 210.2 202.12C203.73 217.17 193.81 235.51 178.42 253.83C172.48 260.89 166.5 267.05 160.73 272.39C159.13 274.51 157.53 276.62 155.94 278.74C155.03 278.99 154.12 279.23 153.21 279.48C154.01 284.56 150.93 288.44 147.93 288.64C145.96 288.77 143.94 287.32 142.64 285.28C142 284.26 140.99 282.81 139.48 281.33C137.84 279.72 135.94 277.85 132.96 277.09C129.96 276.33 127.31 277.06 125.87 277.61C124.99 278.34 123.82 279.47 122.75 281.09C121.7 282.68 121.13 284.17 120.8 285.25H104.07C103.97 284.63 103.16 280.06 99.0001 277.78C94.9301 275.55 90.8001 277.25 89.5301 277.76C85.1401 279.53 83.2801 283.18 82.8701 284.04C81.8801 279.32 78.5801 276.4 75.6801 276.63C75.2101 276.67 73.7001 276.87 72.1301 278.63C70.4601 277.24 68.7901 275.85 67.1201 274.46C59.3601 270.62 44.9101 262.17 32.7801 245.79C18.6001 226.63 15.4601 207.24 14.5901 198.52L14.5801 198.51Z" fill="url(#paint1_linear_2_19097)"/>
<path d="M112.43 274.89C112.5 275.72 112.84 278.63 115.25 281.1C117.41 283.32 119.95 283.85 120.82 284C120.75 284.87 120.68 285.74 120.61 286.61C119.47 287.14 117.18 288.4 115.28 290.95C113.35 293.54 112.8 296.12 112.62 297.37C112.17 295.81 111.18 293.14 108.92 290.54C107.18 288.54 105.33 287.32 104.05 286.61C103.98 285.74 103.91 284.87 103.84 284C104.46 283.94 108.45 283.48 110.85 279.99C112.26 277.93 112.43 275.83 112.45 274.89H112.43Z" fill="white"/>
<path d="M154.04 288.81C152.93 289.13 151.1 289.48 149.03 288.98C147.22 288.55 146 287.67 145.31 287.15C139.23 282.59 138.33 279.05 134.15 277.45C133.61 277.24 129.7 275.95 125.76 277.79C122.98 279.09 121 282.05 120.69 285.26C120.25 289.86 123.45 294.41 127.16 295.24C127.59 295.34 129.93 295.86 131.84 294.43C132.08 294.25 133.56 293.11 133.77 291.1C133.8 290.8 134.04 288.21 132.06 286.95C130.95 286.25 129.54 286.21 128.42 286.73C126.83 287.46 125.87 289.29 126.12 291.25C125.73 290.82 125.19 290.15 124.76 289.23C124.55 288.79 123.19 285.78 124.49 282.89C126.07 279.37 130.38 278.75 130.96 278.67C134.81 278.12 138.81 280.14 141.43 283.77" stroke="#0E0E0E" stroke-linecap="round" stroke-linejoin="round"/>
<path d="M120.61 286.72C119.2 287.42 118.17 288.21 117.45 288.86C113.3 292.63 112.69 298.12 112.4 300.69C112.21 302.36 112.23 303.74 112.27 304.59" stroke="#0E0E0E" stroke-linecap="round" stroke-linejoin="round"/>
<path d="M120.82 284.12C119.87 283.95 118.84 283.65 117.82 283.13C113.21 280.78 112.53 275.86 112.43 275.01" stroke="#0E0E0E" stroke-linecap="round" stroke-linejoin="round"/>
<path d="M70.6001 288.81C71.7101 289.13 73.5401 289.48 75.6101 288.98C77.4201 288.55 78.6401 287.67 79.3301 287.15C85.4101 282.59 86.3101 279.05 90.4901 277.45C91.0301 277.24 94.9401 275.95 98.8801 277.79C101.66 279.09 103.64 282.05 103.95 285.26C104.39 289.86 101.19 294.41 97.4801 295.24C97.0501 295.34 94.7101 295.86 92.8001 294.43C92.5601 294.25 91.0801 293.11 90.8701 291.1C90.8401 290.8 90.6001 288.21 92.5801 286.95C93.6901 286.25 95.1001 286.21 96.2201 286.73C97.8101 287.46 98.7701 289.29 98.5201 291.25C98.9101 290.82 99.4501 290.15 99.8801 289.23C100.09 288.79 101.45 285.78 100.15 282.89C98.5701 279.37 94.2601 278.75 93.6801 278.67C89.8301 278.12 85.8301 280.14 83.2101 283.77" stroke="#0E0E0E" stroke-linecap="round" stroke-linejoin="round"/>
<path d="M103.82 284.12C104.73 283.98 105.77 283.69 106.82 283.13C111.1 280.87 112.21 276.04 112.42 275.01" stroke="#0E0E0E" stroke-linecap="round" stroke-linejoin="round"/>
<path d="M71.54 279.67C71.69 279.33 72.48 277.58 74.33 277C76.29 276.38 78.01 277.52 78.73 278C81.76 280.01 82.06 283.84 82.09 284.46" stroke="#0E0E0E" stroke-linecap="round" stroke-linejoin="round"/>
<path d="M60.9101 270.45C61.7701 270.94 62.9801 271.68 64.3401 272.67C68.2701 275.53 71.3401 277.76 72.1401 281.4C72.8701 284.71 71.3801 287.5 71.1201 287.97C68.6701 292.39 63.5401 293.12 62.4801 293.24C57.7101 293.78 52.8701 291.26 49.8401 286.86" stroke="#0E0E0E" stroke-linecap="round" stroke-linejoin="round"/>
<path d="M50.5001 263.59C50.4501 273.88 52.9701 281.96 56.9601 284.19C59.0101 285.33 61.0901 285.36 61.0901 285.36C61.7801 285.36 65.2701 285.31 67.4801 282.43C69.4501 279.86 68.9601 276.92 68.8701 276.42" stroke="#0E0E0E" stroke-linecap="round" stroke-linejoin="round"/>
<path d="M22.33 268.78C21.81 269.04 20.15 269.81 18.36 269.35C15.17 268.54 14.81 264.69 14.79 264.41C14.6 261.96 16.1 259.11 18.96 258.09C21.16 257.31 23.28 257.93 24.41 258.26C28.07 259.33 30.08 261.82 31.08 263.08C34.28 267.16 32.72 269.14 36 272.04C36.89 272.83 38.69 274.43 41.45 274.85C44.32 275.3 45.5 274.06 48.12 274.79C50.69 275.51 52.02 277.4 52.36 277.93C52.52 278.17 54.39 281.18 52.63 284.21C52.27 284.84 51.2 286.67 48.79 287.2C46.6 287.67 44.19 286.87 42.87 285.3C41.74 283.96 41.41 282.07 42.29 280.57C42.48 280.24 43.08 279.22 44.44 278.81C45.58 278.47 47.03 278.62 48.03 279.42C48.91 280.13 49.07 281.04 49.1 281.31" stroke="#0E0E0E" stroke-linecap="round" stroke-linejoin="round"/>
<path d="M33.9401 269.25C34.3601 273.81 36.6901 277.56 40.1001 278.78C40.8801 279.06 42.1001 279.34 43.7201 279.14" stroke="#0E0E0E" stroke-linecap="round" stroke-linejoin="round"/>
<path d="M30.4801 262.18C31.1201 262.34 33.6801 262.92 35.8801 261.5C38.5501 259.76 39.6401 255.73 38.0301 251.89" stroke="#0E0E0E" stroke-linecap="round" stroke-linejoin="round"/>
<path d="M28.67 248.43C29.08 248.45 29.93 248.44 30.83 247.97C32.33 247.18 32.79 245.71 32.88 245.41" stroke="#0E0E0E" stroke-linecap="round" stroke-linejoin="round"/>
<path d="M14.1901 195.65C15.7901 208.53 21.4101 237.97 45.5901 259.52C50.7001 264.07 55.9201 267.64 60.9101 270.45" stroke="#0E0E0E" stroke-linecap="round" stroke-linejoin="round"/>
<path d="M112.43 274.89C112.5 275.72 112.84 278.63 115.25 281.1C117.41 283.32 119.95 283.85 120.82 284C120.75 284.87 120.68 285.74 120.61 286.61C119.99 286.89 119.14 287.33 118.23 288.02C116.18 289.59 115.2 291.43 114.34 293.09C113.59 294.55 112.62 296.81 112.12 299.79C112.11 298.36 111.89 294.25 108.91 290.53C107.22 288.41 105.28 287.22 104.04 286.6C103.97 285.73 103.9 284.86 103.83 283.99C104.45 283.93 108.44 283.47 110.84 279.98C112.25 277.92 112.42 275.82 112.44 274.88L112.43 274.89Z" fill="black" stroke="black" stroke-width="0.75" stroke-linecap="round" stroke-linejoin="round"/>
<path d="M70.6001 288.81C71.7101 289.13 73.5401 289.48 75.6101 288.98C77.4201 288.55 78.6401 287.67 79.3301 287.15C85.4101 282.59 86.3101 279.05 90.4901 277.45C91.0301 277.24 94.9401 275.95 98.8801 277.79C101.66 279.09 103.64 282.05 103.95 285.26C104.39 289.86 101.19 294.41 97.4801 295.24C97.0501 295.34 94.7101 295.86 92.8001 294.43C92.5601 294.25 91.0801 293.11 90.8701 291.1C90.8401 290.8 90.6001 288.21 92.5801 286.95C93.6901 286.25 95.1001 286.21 96.2201 286.73C97.8101 287.46 98.7701 289.29 98.5201 291.25C98.9101 290.82 99.4501 290.15 99.8801 289.23C100.09 288.79 101.45 285.78 100.15 282.89C98.5701 279.37 94.2601 278.75 93.6801 278.67C89.8301 278.12 85.8301 280.14 83.2101 283.77" stroke="#0E0E0E" stroke-linecap="round" stroke-linejoin="round"/>
<path d="M104.03 286.72C104.86 287.12 106.02 287.79 107.19 288.86C109.66 291.14 110.55 293.78 111.24 295.94C112.31 299.28 112.42 302.32 112.27 304.59" stroke="#0E0E0E" stroke-linecap="round" stroke-linejoin="round"/>
<path d="M103.82 284.12C104.73 283.98 105.77 283.69 106.82 283.13C111.14 280.84 112.22 275.9 112.42 274.89" stroke="#0E0E0E" stroke-linecap="round" stroke-linejoin="round"/>
<path d="M71.54 279.67C71.69 279.33 72.48 277.58 74.33 277C76.29 276.38 78.01 277.52 78.73 278C81.76 280.01 82.06 283.84 82.09 284.46" stroke="#0E0E0E" stroke-linecap="round" stroke-linejoin="round"/>
<path d="M60.9101 270.45C61.7701 270.94 62.9801 271.68 64.3401 272.67C68.2701 275.53 71.3401 277.76 72.1401 281.4C72.8701 284.71 71.3801 287.5 71.1201 287.97C68.6701 292.39 63.5401 293.12 62.4801 293.24C57.7101 293.78 52.8701 291.26 49.8401 286.86" stroke="#0E0E0E" stroke-linecap="round" stroke-linejoin="round"/>
<path d="M50.5001 263.59C50.4501 273.88 52.9701 281.96 56.9601 284.19C59.0101 285.33 61.0901 285.36 61.0901 285.36C61.7801 285.36 65.2701 285.31 67.4801 282.43C69.4501 279.86 68.9601 276.92 68.8701 276.42" stroke="#0E0E0E" stroke-linecap="round" stroke-linejoin="round"/>
<path d="M22.33 268.78C21.81 269.04 20.15 269.81 18.36 269.35C15.17 268.54 14.81 264.69 14.79 264.41C14.6 261.96 16.1 259.11 18.96 258.09C21.16 257.31 23.28 257.93 24.41 258.26C28.07 259.33 30.08 261.82 31.08 263.08C34.28 267.16 32.72 269.14 36 272.04C36.89 272.83 38.69 274.43 41.45 274.85C44.32 275.3 45.5 274.06 48.12 274.79C50.69 275.51 52.02 277.4 52.36 277.93C52.52 278.17 54.39 281.18 52.63 284.21C52.27 284.84 51.2 286.67 48.79 287.2C46.6 287.67 44.19 286.87 42.87 285.3C41.74 283.96 41.41 282.07 42.29 280.57C42.48 280.24 43.08 279.22 44.44 278.81C45.58 278.47 47.03 278.62 48.03 279.42C48.91 280.13 49.07 281.04 49.1 281.31" stroke="#0E0E0E" stroke-linecap="round" stroke-linejoin="round"/>
<path d="M33.9401 269.25C34.3601 273.81 36.6901 277.56 40.1001 278.78C40.8801 279.06 42.1001 279.34 43.7201 279.14" stroke="#0E0E0E" stroke-linecap="round" stroke-linejoin="round"/>
<path d="M14.2501 253.33C14.3701 253.53 17.0301 257.79 21.0101 257.54C24.2301 257.34 26.1301 254.32 26.9601 253C31.5701 245.64 26.6401 235.56 25.8801 234.05" stroke="#0E0E0E" stroke-linecap="round" stroke-linejoin="round"/>
<path d="M30.4801 262.18C31.1201 262.34 33.6801 262.92 35.8801 261.5C38.5501 259.76 39.6401 255.73 38.0301 251.89" stroke="#0E0E0E" stroke-linecap="round" stroke-linejoin="round"/>
<path d="M28.67 248.43C29.08 248.45 29.93 248.44 30.83 247.97C32.33 247.18 32.79 245.71 32.88 245.41" stroke="#0E0E0E" stroke-linecap="round" stroke-linejoin="round"/>
<path d="M14.1901 195.65C15.7901 208.53 21.4101 237.97 45.5901 259.52C50.7001 264.07 55.9201 267.64 60.9101 270.45" stroke="#0E0E0E" stroke-linecap="round" stroke-linejoin="round"/>
<path d="M171.03 274.69C170 272.95 169.48 271.1 169.48 269.15C169.48 267.39 169.87 265.76 170.65 264.26C171.43 262.76 172.49 261.5 173.83 260.49C175.17 259.48 176.7 258.82 178.43 258.5L178.89 258.44C179.35 258.38 179.81 258.36 180.27 258.36H196.29V259.78L195.72 259.74C195.13 259.75 194.65 259.96 194.26 260.36C193.87 260.76 193.67 261.24 193.67 261.81L193.65 284.95C193.68 285.54 193.91 286.03 194.34 286.44C194.75 286.79 195.21 286.96 195.72 286.96L196.29 286.92V288.34H180.27C179.64 288.34 179.04 288.22 178.45 287.98C177.5 287.59 176.76 286.99 176.21 286.17C175.66 285.35 175.39 284.44 175.39 283.44C175.39 282.53 175.63 281.68 176.12 280.87C176.44 280.34 176.85 279.89 177.33 279.53C176.2 279.21 175.15 278.71 174.17 278.04C172.87 277.15 171.82 276.03 171.01 274.69H171.03ZM187.18 259.73H180.28C177.77 259.73 175.55 260.64 173.63 262.47C172.71 263.42 172.25 264.63 172.25 266.11V266.26L172.27 266.3V266.51C172.27 266.62 172.27 266.73 172.29 266.84C172.29 266.88 172.29 266.93 172.31 266.99V267.03C172.31 267.03 172.31 267.11 172.33 267.15C172.34 267.28 172.37 267.39 172.39 267.51C172.39 267.55 172.39 267.6 172.41 267.66V267.68C172.42 267.74 172.44 267.78 172.45 267.83V267.85C172.45 267.85 172.45 267.91 172.47 267.95C172.47 267.98 172.47 268.01 172.49 268.03V268.05C172.61 268.51 172.77 268.97 172.95 269.43C173.01 269.63 173.09 269.81 173.2 270C173.23 270.07 173.26 270.13 173.28 270.19C173.34 270.3 173.38 270.4 173.43 270.48C173.46 270.52 173.47 270.55 173.47 270.56L173.49 270.58L173.7 270.98L173.76 271.06C173.76 271.06 173.79 271.11 173.8 271.12C173.83 271.18 173.86 271.23 173.9 271.29C173.97 271.4 174.05 271.52 174.13 271.65C174.2 271.76 174.27 271.87 174.34 271.96L174.38 272C174.38 272 174.44 272.09 174.48 272.15L174.61 272.32C174.61 272.32 174.65 272.38 174.67 272.4H174.69C174.69 272.4 174.7 272.46 174.73 272.48H174.75C174.75 272.48 174.76 272.53 174.79 272.54L174.81 272.56C174.81 272.56 174.85 272.62 174.87 272.64C174.9 272.68 174.93 272.72 174.95 272.74C175.12 272.95 175.3 273.15 175.49 273.35L175.95 273.81C176.03 273.89 176.11 273.96 176.18 274.02C176.25 274.08 176.33 274.14 176.41 274.23L176.51 274.33C176.51 274.33 176.57 274.39 176.61 274.41C176.72 274.51 176.84 274.61 176.97 274.7C177.05 274.77 177.14 274.83 177.24 274.89C177.37 275 177.5 275.1 177.64 275.18C177.68 275.21 177.71 275.23 177.72 275.24H177.74L177.8 275.3H177.82C177.82 275.3 177.86 275.35 177.9 275.36C177.97 275.42 178.05 275.46 178.13 275.51C178.2 275.55 178.28 275.6 178.36 275.66C178.39 275.69 178.42 275.71 178.46 275.72L178.5 275.74C178.5 275.74 178.54 275.75 178.58 275.78C178.66 275.83 178.75 275.88 178.85 275.93C178.92 275.96 178.97 275.99 179.02 276.01L179.04 276.03L179.08 276.05L179.12 276.07C179.12 276.07 179.16 276.08 179.2 276.11C179.27 276.12 179.33 276.15 179.37 276.19H179.39C179.51 276.25 179.63 276.29 179.72 276.34C179.73 276.35 179.75 276.37 179.78 276.38C179.86 276.41 179.94 276.44 180.01 276.46C180.02 276.46 180.05 276.46 180.09 276.48L180.11 276.5C180.21 276.54 180.31 276.58 180.42 276.6C180.45 276.61 180.48 276.62 180.5 276.62V276.64C180.5 276.64 180.58 276.65 180.62 276.68C180.68 276.71 180.74 276.72 180.81 276.72C180.87 276.75 180.92 276.77 180.98 276.78H181C181.07 276.81 181.15 276.83 181.23 276.84C181.45 276.9 181.68 276.95 181.92 276.99H181.98L182.04 277.01C182.21 277.04 182.35 277.05 182.48 277.05C182.51 277.06 182.54 277.07 182.58 277.07H182.75C182.75 277.07 182.79 277.07 182.83 277.09H183.52C183.52 277.09 183.55 277.09 183.58 277.07H183.75C183.75 277.07 183.83 277.07 183.85 277.05H184C184 277.05 184.06 277.03 184.08 277.03H184.12C184.12 277.03 184.2 277.01 184.24 277.01H184.26C184.26 277.01 184.34 276.99 184.38 276.99L184.42 276.97H184.48C184.48 276.97 184.54 276.94 184.56 276.93H184.58C184.58 276.93 184.62 276.93 184.66 276.91H184.68C184.68 276.91 184.71 276.91 184.74 276.89H184.76C184.76 276.89 184.8 276.89 184.82 276.87H184.84L184.92 276.85L184.98 276.83L185.02 276.81H185.04C185.11 276.78 185.19 276.75 185.27 276.73C185.3 276.7 185.33 276.69 185.37 276.69C185.38 276.68 185.41 276.66 185.43 276.65H185.45L185.49 276.63L185.51 276.61C185.57 276.6 185.63 276.57 185.7 276.53C185.71 276.53 185.73 276.53 185.76 276.51V276.49C185.76 276.49 185.83 276.48 185.84 276.45H185.86L185.88 276.43H185.9L185.92 276.41C185.92 276.41 185.96 276.4 185.98 276.37L186.04 276.33H186.06L186.12 276.27H186.14L186.16 276.25H186.18L186.26 276.17H186.28L186.3 276.15C186.3 276.15 186.4 276.07 186.47 276.02C186.47 275.99 186.48 275.98 186.51 275.98L186.62 275.88H186.64V275.86L186.66 275.84H186.68L186.8 275.72C187.85 274.65 188.6 273.4 189.06 271.98V261.79C189.06 261.22 188.86 260.73 188.45 260.33C188.04 259.93 187.56 259.72 186.99 259.72L187.18 259.73ZM177.35 281.66C177.34 281.74 177.33 281.83 177.33 281.93L177.39 282.31C177.45 282.57 177.54 282.82 177.66 283.04C177.77 283.25 177.89 283.44 178.02 283.6C178.12 283.71 178.22 283.82 178.31 283.91C180.26 285.93 182.81 286.94 185.97 286.94H187.18C187.77 286.93 188.26 286.72 188.65 286.32C189.04 285.92 189.25 285.44 189.25 284.87V275.12C187.44 277.76 184.93 279.32 181.72 279.81C181.25 279.88 180.76 279.91 180.28 279.91C179.71 279.91 179.16 280.04 178.65 280.31C178.51 280.38 178.38 280.46 178.25 280.54C177.97 280.73 177.73 280.97 177.54 281.25C177.47 281.35 177.42 281.45 177.37 281.56C177.37 281.59 177.37 281.62 177.35 281.64V281.66Z" fill="black"/>
<path d="M176.97 247.47C181.41 247.58 182.44 244.18 182.67 242.55C182.91 244.18 183.93 247.58 188.37 247.47C194.21 247.33 194.99 240.78 192.95 237.47C190.91 234.16 189.85 233.1 187.81 230.99C185.89 229 183.59 226.76 182.74 225.39C182.74 225.39 182.69 225.23 182.67 225.27C182.64 225.23 182.6 225.39 182.6 225.39C181.75 226.76 179.45 229 177.53 230.99C175.49 233.1 174.43 234.16 172.39 237.47C170.35 240.78 171.12 247.33 176.97 247.47Z" fill="#EB1C24" stroke="black" stroke-width="0.75" stroke-linecap="round" stroke-linejoin="round"/>
<path d="M53.6901 43.94C54.7201 45.68 55.2401 47.53 55.2401 49.48C55.2401 51.24 54.8501 52.87 54.0701 54.37C53.2901 55.87 52.2301 57.13 50.8901 58.14C49.5501 59.15 48.0201 59.81 46.2901 60.13L45.8301 60.19C45.3701 60.25 44.9101 60.27 44.4501 60.27H28.4301V58.85L29.0001 58.89C29.5901 58.88 30.0701 58.67 30.4601 58.27C30.8501 57.87 31.0501 57.39 31.0501 56.82L31.0701 33.68C31.0401 33.09 30.8101 32.6 30.3801 32.19C29.9701 31.84 29.5101 31.67 29.0001 31.67L28.4301 31.71V30.29H44.4501C45.0801 30.29 45.6801 30.41 46.2701 30.65C47.2201 31.04 47.9601 31.64 48.5101 32.46C49.0601 33.28 49.3301 34.19 49.3301 35.19C49.3301 36.1 49.0901 36.95 48.6001 37.76C48.2801 38.29 47.8701 38.74 47.3901 39.1C48.5201 39.42 49.5701 39.92 50.5501 40.59C51.8501 41.48 52.9001 42.6 53.7101 43.94H53.6901ZM47.3701 36.97C47.3801 36.89 47.3901 36.8 47.3901 36.7L47.3301 36.32C47.2701 36.06 47.1801 35.81 47.0601 35.59C46.9501 35.38 46.8301 35.19 46.7001 35.03C46.6001 34.92 46.5001 34.81 46.4101 34.72C44.4601 32.7 41.9101 31.69 38.7501 31.69H37.5401C36.9501 31.7 36.4601 31.91 36.0701 32.31C35.6801 32.71 35.4701 33.19 35.4701 33.76V43.51C37.2801 40.87 39.7901 39.31 43.0001 38.82C43.4701 38.75 43.9601 38.72 44.4401 38.72C45.0101 38.72 45.5601 38.59 46.0701 38.32C46.2101 38.25 46.3401 38.17 46.4701 38.09C46.7501 37.9 46.9901 37.66 47.1801 37.38C47.2501 37.28 47.3001 37.18 47.3501 37.07C47.3501 37.04 47.3501 37.01 47.3701 36.99V36.97ZM37.5401 58.9H44.4401C46.9501 58.9 49.1701 57.99 51.0901 56.16C52.0101 55.21 52.4701 54 52.4701 52.52V52.37L52.4501 52.33V52.12C52.4501 52.01 52.4501 51.9 52.4301 51.79C52.4301 51.75 52.4301 51.7 52.4101 51.64V51.6C52.4101 51.6 52.4101 51.52 52.3901 51.48C52.3801 51.35 52.3501 51.24 52.3301 51.12C52.3301 51.08 52.3301 51.03 52.3101 50.97V50.95C52.3001 50.89 52.2801 50.85 52.2701 50.8V50.78C52.2701 50.78 52.2701 50.72 52.2501 50.68C52.2501 50.65 52.2501 50.62 52.2301 50.6V50.58C52.1101 50.12 51.9501 49.66 51.7701 49.2C51.7101 49 51.6301 48.82 51.5201 48.63C51.4901 48.56 51.4601 48.5 51.4401 48.44C51.3801 48.33 51.3401 48.23 51.2901 48.15C51.2601 48.11 51.2501 48.08 51.2501 48.07L51.2301 48.05L51.0201 47.65L50.9601 47.57C50.9601 47.57 50.9301 47.52 50.9201 47.51C50.8901 47.45 50.8601 47.4 50.8201 47.34C50.7501 47.23 50.6701 47.11 50.5901 46.98C50.5201 46.87 50.4501 46.76 50.3801 46.67L50.3401 46.63C50.3401 46.63 50.2801 46.54 50.2401 46.48L50.1101 46.31C50.1101 46.31 50.0701 46.25 50.0501 46.23H50.0301C50.0301 46.23 50.0201 46.17 49.9901 46.15H49.9701C49.9701 46.15 49.9601 46.1 49.9301 46.09L49.9101 46.07C49.9101 46.07 49.8701 46.01 49.8501 45.99C49.8201 45.95 49.7901 45.91 49.7701 45.89C49.6001 45.68 49.4201 45.48 49.2301 45.28L48.7701 44.82C48.6901 44.74 48.6101 44.67 48.5401 44.61C48.4701 44.55 48.3901 44.49 48.3101 44.4L48.2101 44.3C48.2101 44.3 48.1501 44.24 48.1101 44.22C48.0001 44.12 47.8801 44.02 47.7501 43.93C47.6701 43.86 47.5801 43.8 47.4801 43.74C47.3501 43.63 47.2201 43.53 47.0801 43.45C47.0401 43.42 47.0101 43.4 47.0001 43.39H46.9801L46.9201 43.33H46.9001C46.9001 43.33 46.8601 43.28 46.8201 43.27C46.7501 43.21 46.6701 43.17 46.5901 43.12C46.5201 43.08 46.4401 43.03 46.3601 42.97C46.3301 42.94 46.3001 42.92 46.2601 42.91L46.2201 42.89C46.2201 42.89 46.1801 42.88 46.1401 42.85C46.0601 42.8 45.9701 42.75 45.8701 42.7C45.8001 42.67 45.7501 42.64 45.7001 42.62L45.6801 42.6L45.6401 42.58L45.6001 42.56C45.6001 42.56 45.5601 42.55 45.5201 42.52C45.4501 42.51 45.3901 42.48 45.3501 42.44H45.3301C45.2101 42.38 45.0901 42.34 45.0001 42.29C44.9901 42.28 44.9701 42.26 44.9401 42.25C44.8601 42.22 44.7801 42.19 44.7101 42.17C44.7001 42.17 44.6701 42.17 44.6301 42.15L44.6101 42.13C44.5101 42.09 44.4101 42.05 44.3001 42.03C44.2701 42.02 44.2401 42.01 44.2201 42.01V41.99C44.2201 41.99 44.1401 41.98 44.1001 41.95C44.0401 41.92 43.9801 41.91 43.9101 41.91C43.8501 41.88 43.8001 41.86 43.7401 41.85H43.7201C43.6501 41.82 43.5701 41.8 43.4901 41.79C43.2701 41.73 43.0401 41.68 42.8001 41.64H42.7401L42.6801 41.62C42.5101 41.59 42.3701 41.58 42.2401 41.58C42.2101 41.57 42.1801 41.56 42.1401 41.56H41.9701C41.9701 41.56 41.9301 41.56 41.8901 41.54H41.2001C41.2001 41.54 41.1701 41.54 41.1401 41.56H40.9701C40.9701 41.56 40.8901 41.56 40.8701 41.58H40.7201C40.7201 41.58 40.6601 41.6 40.6401 41.6H40.6001C40.6001 41.6 40.5201 41.62 40.4801 41.62H40.4601C40.4601 41.62 40.3801 41.64 40.3401 41.64L40.3001 41.66H40.2401C40.2401 41.66 40.1801 41.69 40.1601 41.7H40.1401C40.1401 41.7 40.1001 41.7 40.0601 41.72H40.0401C40.0401 41.72 40.0101 41.72 39.9801 41.74H39.9601C39.9601 41.74 39.9201 41.74 39.9001 41.76H39.8801L39.8001 41.78L39.7401 41.8L39.7001 41.82H39.6801C39.6101 41.85 39.5301 41.88 39.4501 41.9C39.4201 41.93 39.3901 41.94 39.3501 41.94C39.3401 41.95 39.3101 41.97 39.2901 41.98H39.2701L39.2301 42L39.2101 42.02C39.1501 42.03 39.0901 42.06 39.0201 42.1C39.0101 42.1 38.9901 42.1 38.9601 42.12V42.14C38.9601 42.14 38.8901 42.15 38.8801 42.18H38.8601L38.8401 42.2H38.8201L38.8001 42.22C38.8001 42.22 38.7601 42.23 38.7401 42.26L38.6801 42.3H38.6601L38.6001 42.36H38.5801L38.5601 42.38H38.5401L38.4601 42.46H38.4401L38.4201 42.48C38.4201 42.48 38.3201 42.56 38.2501 42.61C38.2501 42.64 38.2401 42.65 38.2101 42.65L38.1001 42.75H38.0801V42.77L38.0601 42.79H38.0401L37.9201 42.91C36.8701 43.98 36.1201 45.23 35.6601 46.65V56.84C35.6601 57.41 35.8601 57.9 36.2701 58.3C36.6801 58.7 37.1601 58.91 37.7301 58.91L37.5401 58.9Z" fill="black"/>
<path d="M47.75 71.16C43.31 71.05 42.28 74.45 42.05 76.08C41.81 74.45 40.79 71.05 36.35 71.16C30.51 71.3 29.73 77.85 31.77 81.16C33.81 84.47 34.87 85.53 36.91 87.64C38.83 89.63 41.13 91.87 41.98 93.24C41.98 93.24 42.03 93.4 42.05 93.36C42.08 93.4 42.12 93.24 42.12 93.24C42.97 91.87 45.27 89.63 47.19 87.64C49.23 85.53 50.29 84.47 52.33 81.16C54.37 77.85 53.6 71.3 47.75 71.16Z" fill="#EB1C24" stroke="black" stroke-width="0.75" stroke-linecap="round" stroke-linejoin="round"/>
<path d="M181.67 186.09C181.26 190.57 180.85 195.05 180.44 199.53C179.46 199.55 177.86 199.45 176.13 198.63C175.39 198.28 174.79 197.87 174.31 197.5C174.28 194.5 174.26 191.5 174.23 188.5C176.06 188.46 177.59 188.31 178.73 188.17C179.63 188.06 180.48 187.91 181.09 187.23C181.44 186.84 181.59 186.4 181.66 186.1L181.67 186.09Z" fill="white" stroke="black" stroke-width="0.75" stroke-linecap="round" stroke-linejoin="round"/>
<path d="M128.45 126.89C127.51 127.47 127.55 128.24 126.47 129.02C125.85 129.46 125.24 129.64 124.94 129.71C123.82 129.97 122.77 129.71 122.06 129.54C121.86 129.49 121.7 129.45 121.6 129.42C116.31 127.86 112.78 126.82 109.8 123.37C108.85 122.28 107.42 120.72 106.83 118.31C106.51 116.98 106.52 115.74 106.27 115.73C105.92 115.71 105.53 118.08 105.39 118.96C104.43 124.81 105.57 126.52 105.98 127.07C106.11 127.24 106.2 127.36 106.35 127.5C107.05 128.21 108.42 128.96 113.81 131.22C117.46 132.75 121.96 134.55 126.86 134.67C127.83 134.69 129.14 134.7 129.95 133.84C130.85 132.88 130.75 131.28 130.63 129.36C130.55 128.15 130.36 127.16 130.19 126.47C129.34 126.47 128.8 126.71 128.48 126.9L128.45 126.89Z" fill="black" stroke="black" stroke-width="0.75" stroke-linecap="round" stroke-linejoin="round"/>
<path d="M121.84 125.95C122.85 126.69 125.97 123.31 129.04 123.3C129.32 123.3 130.27 123.3 130.55 123.82C130.8 124.28 130.35 124.78 130.55 124.96C130.87 125.23 132.43 124.46 132.53 123.33C132.53 123.31 132.53 123.29 132.53 123.27C132.55 122.82 132.39 121.83 131.4 119.47C130.73 119.52 130.06 119.57 129.38 119.62C127.08 120.36 125.33 121.23 124.15 121.91C122.7 122.74 121.89 123.39 121.65 124.39C121.61 124.56 121.36 125.61 121.84 125.95Z" fill="black" stroke="black" stroke-width="0.75" stroke-linecap="round" stroke-linejoin="round"/>
<path d="M87.27 212.76C86.68 212.26 85.83 211.43 85.15 210.22C84.04 208.25 83.98 206.37 83.94 205.54C83.82 202.98 83.34 199.27 82.17 193.5" stroke="black" stroke-width="0.75" stroke-linecap="round" stroke-linejoin="round"/>
<path d="M97.4801 212.92C97.1501 212.37 96.6901 211.54 96.2001 210.51C93.4001 204.54 93.5501 199.23 93.5101 195.49C93.4601 191.19 93.1101 185.18 91.8101 177.49" stroke="black" stroke-width="0.75" stroke-linecap="round" stroke-linejoin="round"/>
<path d="M92.9401 213.77C92.4001 213.35 91.4901 212.53 90.8501 211.19C90.4201 210.29 90.2601 209.47 90.1901 208.89" stroke="black" stroke-width="0.75" stroke-linecap="round" stroke-linejoin="round"/>
<path d="M87.1301 225.97C86.4101 228.92 85.7401 231.99 85.1501 235.17C83.1301 246 82.3701 256.07 82.3201 265.08" stroke="black" stroke-width="0.75" stroke-linecap="round" stroke-linejoin="round"/>
<path d="M96.7701 227.24C96.1601 233.38 95.5401 239.52 94.9301 245.67" stroke="black" stroke-width="0.75" stroke-linecap="round" stroke-linejoin="round"/>
<path d="M134.38 211.64C136.06 210.39 136.88 209.1 137.31 208.24C138.18 206.49 138.1 205.14 138.44 200.49C138.58 198.58 138.73 197.04 138.82 196.14" stroke="black" stroke-width="0.75" stroke-linecap="round" stroke-linejoin="round"/>
<path d="M130.74 226.41C132.1 232.19 133.34 238.41 134.36 245.03C135.03 249.36 135.55 253.54 135.96 257.57" stroke="black" stroke-width="0.75" stroke-linecap="round" stroke-linejoin="round"/>
<path d="M136.17 225.82C136.78 227.96 137.36 230.26 137.87 232.72C138.46 235.56 138.89 238.25 139.19 240.75" stroke="black" stroke-width="0.75" stroke-linecap="round" stroke-linejoin="round"/>
<path d="M172.7 106.41H170.59V161.14H172.7V106.41Z" fill="white" stroke="black" stroke-width="0.75" stroke-linecap="round" stroke-linejoin="round"/>
<path d="M158.07 95C157.13 95.44 155.55 96.27 153.94 97.69C146.12 104.55 144.34 118.89 150.27 128.78C151.41 130.69 153.7 133.87 158.08 136.67" stroke="black" stroke-width="0.75" stroke-linecap="round" stroke-linejoin="round"/>
<path d="M126.82 111.77C125.31 110.96 123.8 110.15 122.28 109.34C123.09 109.34 124.07 109.27 125.16 109.06C126.07 108.88 126.86 108.64 127.52 108.4" stroke="black" stroke-width="0.75" stroke-linecap="round" stroke-linejoin="round"/>
<path d="M126.26 108.8C126.32 108.96 126.5 109.44 126.33 110.02C126.21 110.43 125.98 110.7 125.86 110.82" stroke="black" stroke-width="0.75" stroke-linecap="round" stroke-linejoin="round"/>
<defs>
<linearGradient id="paint0_linear_2_19097" x1="210.3" y1="65.98" x2="14.77" y2="65.98" gradientUnits="userSpaceOnUse">
<stop stop-color="#8F8587"/>
<stop offset="0.24" stop-color="#C3BEBF"/>
<stop offset="0.45" stop-color="#EBEAEA"/>
<stop offset="0.56" stop-color="#FBFBFB"/>
</linearGradient>
<linearGradient id="paint1_linear_2_19097" x1="14.5801" y1="251.29" x2="210.2" y2="251.29" gradientUnits="userSpaceOnUse">
<stop stop-color="#8F8587"/>
<stop offset="0.25" stop-color="#C3BEBF"/>
<stop offset="0.46" stop-color="#EBEAEA"/>
<stop offset="0.57" stop-color="#FBFBFB"/>
</linearGradient>
</defs>
</svg>
