<svg width="225" height="318" viewBox="0 0 225 318" fill="none" xmlns="http://www.w3.org/2000/svg">
<path d="M216.75 317.16H8.06003C3.63003 317.16 0.0400391 313.54 0.0400391 309.08V8.32001C0.0400391 3.86001 3.63003 0.23999 8.06003 0.23999H216.75C221.18 0.23999 224.77 3.86001 224.77 8.32001V309.08C224.77 313.54 221.18 317.16 216.75 317.16Z" fill="white"/>
<path d="M210.28 117.23C210.28 82.7 210.29 48.16 210.3 13.63C145.16 13.63 80.01 13.63 14.87 13.64C14.84 47.61 14.81 81.58 14.78 115.55C18.2 100.3 25.1 77.81 38.26 65.8C48.33 56.62 53.36 52.02 57.3 50.18C59.13 49.32 64.98 46.79 69.82 40.88C70.72 39.79 71.37 38.83 71.78 38.19C72.2 38.75 73.82 40.82 76.05 40.86C78.95 40.91 82.19 37.51 82.35 32.39C82.69 33.15 85.54 39.21 92.02 40.58C95.14 41.24 97.76 40.54 99.11 40.06C99.99 39.33 101.16 38.2 102.23 36.58C103.28 34.99 103.85 33.5 104.18 32.42H120.91C121.01 33.04 121.82 37.61 125.98 39.89C130.05 42.12 134.18 40.42 135.45 39.91C139.84 38.14 141.7 34.49 142.11 33.63C143.1 38.35 146.4 41.27 149.3 41.04C149.77 41 151.28 40.8 152.85 39.04L157.86 43.21C159.82 44.37 162.57 46.08 165.74 48.3C169.46 50.9 181.8 59.66 191.49 72.25C204.36 88.97 208.67 107.38 210.27 117.21L210.28 117.23Z" fill="url(#paint0_linear_2_19678)"/>
<path d="M210.8 304.03H14.17C14.17 243.59 14.17 183.15 14.17 122.71C14.17 86.19 14.17 49.68 14.17 13.16H210.8C210.8 49.62 210.8 86.08 210.8 122.54C210.8 183.04 210.8 243.53 210.8 304.03Z" stroke="#0E0E0E" stroke-linecap="round" stroke-linejoin="round"/>
<path d="M112.37 43.07C112.3 42.24 111.96 39.33 109.55 36.86C107.39 34.64 104.85 34.11 103.98 33.96C104.05 33.09 104.12 32.22 104.19 31.35C105.33 30.82 107.62 29.56 109.52 27.01C111.45 24.42 112 21.84 112.18 20.59C112.63 22.15 113.62 24.82 115.88 27.42C117.62 29.42 119.47 30.64 120.75 31.35C120.82 32.22 120.89 33.09 120.96 33.96C120.34 34.02 116.35 34.48 113.95 37.97C112.54 40.03 112.37 42.13 112.35 43.07H112.37Z" fill="white"/>
<path d="M70.76 29.14C71.87 28.82 73.7 28.47 75.77 28.97C77.58 29.4 78.8 30.28 79.49 30.8C85.57 35.36 86.47 38.9 90.65 40.5C91.19 40.71 95.1 42 99.04 40.16C101.82 38.86 103.8 35.9 104.11 32.69C104.55 28.09 101.35 23.54 97.64 22.71C97.21 22.61 94.87 22.09 92.96 23.52C92.72 23.7 91.24 24.84 91.03 26.85C91 27.15 90.76 29.74 92.74 31C93.85 31.7 95.26 31.74 96.38 31.22C97.97 30.49 98.93 28.66 98.68 26.7C99.07 27.13 99.61 27.8 100.04 28.72C100.25 29.16 101.61 32.17 100.31 35.06C98.73 38.58 94.42 39.2 93.84 39.28C89.99 39.83 85.99 37.81 83.37 34.18" stroke="#0E0E0E" stroke-linecap="round" stroke-linejoin="round"/>
<path d="M104.19 31.23C104.95 30.86 106.14 30.19 107.35 29.09C111.22 25.56 111.93 20.66 112.25 18.48C112.43 17.25 112.59 15.42 112.38 13.15" stroke="#0E0E0E" stroke-linecap="round" stroke-linejoin="round"/>
<path d="M103.98 33.84C104.93 34.01 105.96 34.31 106.98 34.83C111.59 37.18 112.27 42.1 112.37 42.95" stroke="#0E0E0E" stroke-linecap="round" stroke-linejoin="round"/>
<path d="M154.2 29.14C153.09 28.82 151.26 28.47 149.19 28.97C147.38 29.4 146.16 30.28 145.47 30.8C139.39 35.36 138.49 38.9 134.31 40.5C133.77 40.71 129.86 42 125.92 40.16C123.14 38.86 121.16 35.9 120.85 32.69C120.41 28.09 123.61 23.54 127.32 22.71C127.75 22.61 130.09 22.09 132 23.52C132.24 23.7 133.72 24.84 133.93 26.85C133.96 27.15 134.2 29.74 132.22 31C131.11 31.7 129.7 31.74 128.58 31.22C126.99 30.49 126.03 28.66 126.28 26.7C125.89 27.13 125.35 27.8 124.92 28.72C124.71 29.16 123.35 32.17 124.65 35.06C126.23 38.58 130.54 39.2 131.12 39.28C134.97 39.83 138.97 37.81 141.59 34.18" stroke="#0E0E0E" stroke-linecap="round" stroke-linejoin="round"/>
<path d="M120.98 33.84C120.03 34.01 119 34.31 117.98 34.83C113.37 37.18 112.69 42.1 112.59 42.95" stroke="#0E0E0E" stroke-linecap="round" stroke-linejoin="round"/>
<path d="M153.26 38.28C153.11 38.62 152.32 40.37 150.47 40.95C148.51 41.57 146.79 40.43 146.07 39.95C143.04 37.94 142.74 34.11 142.71 33.49" stroke="#0E0E0E" stroke-linecap="round" stroke-linejoin="round"/>
<path d="M163.89 47.5C163.03 47.01 161.82 46.27 160.46 45.28C156.53 42.42 153.46 40.19 152.66 36.55C151.93 33.24 153.42 30.45 153.68 29.98C156.13 25.56 161.26 24.83 162.32 24.71C167.09 24.17 171.93 26.69 174.96 31.09" stroke="#0E0E0E" stroke-linecap="round" stroke-linejoin="round"/>
<path d="M174.3 54.37C174.35 44.08 171.83 36 167.84 33.77C165.79 32.63 163.71 32.6 163.71 32.6C163.02 32.6 159.53 32.65 157.32 35.53C155.35 38.1 155.84 41.04 155.93 41.54" stroke="#0E0E0E" stroke-linecap="round" stroke-linejoin="round"/>
<path d="M202.47 49.17C202.99 48.91 204.65 48.14 206.44 48.6C209.63 49.41 209.99 53.26 210.01 53.54C210.2 55.99 208.7 58.84 205.84 59.86C203.64 60.64 201.52 60.02 200.39 59.69C196.73 58.62 194.72 56.13 193.72 54.87C190.52 50.79 192.08 48.81 188.8 45.91C187.91 45.12 186.11 43.52 183.35 43.1C180.48 42.65 179.3 43.89 176.68 43.16C174.11 42.44 172.78 40.55 172.44 40.02C172.28 39.78 170.41 36.77 172.17 33.74C172.53 33.11 173.6 31.28 176.01 30.75C178.2 30.28 180.61 31.08 181.93 32.65C183.06 33.99 183.39 35.88 182.51 37.38C182.32 37.71 181.72 38.73 180.36 39.14C179.22 39.48 177.77 39.33 176.77 38.53C175.89 37.82 175.73 36.91 175.7 36.64" stroke="#0E0E0E" stroke-linecap="round" stroke-linejoin="round"/>
<path d="M190.86 48.7C190.44 44.14 188.11 40.39 184.7 39.17C183.92 38.89 182.7 38.61 181.08 38.81" stroke="#0E0E0E" stroke-linecap="round" stroke-linejoin="round"/>
<path d="M194.32 55.77C193.7 55.61 191.12 55.01 188.92 56.45C186.27 58.19 185.21 62.22 186.84 66.04" stroke="#0E0E0E" stroke-linecap="round" stroke-linejoin="round"/>
<path d="M196.13 69.52C195.72 69.5 194.87 69.51 193.97 69.98C192.51 70.75 192.03 72.16 191.94 72.48" stroke="#0E0E0E" stroke-linecap="round" stroke-linejoin="round"/>
<path d="M210.78 121.27C210.76 121.13 210.74 120.88 210.7 120.59C209.92 113.74 205.51 81.76 179.21 58.43C175.94 55.53 170.87 51.46 163.89 47.5" stroke="#0E0E0E" stroke-linecap="round" stroke-linejoin="round"/>
<path d="M112.37 43.07C112.3 42.24 111.96 39.33 109.55 36.86C107.39 34.64 104.85 34.11 103.98 33.96C104.05 33.09 104.12 32.22 104.19 31.35C105.33 30.82 107.62 29.56 109.52 27.01C111.45 24.42 112 21.84 112.18 20.59C112.63 22.15 113.62 24.82 115.88 27.42C117.62 29.42 119.47 30.64 120.75 31.35C120.82 32.22 120.89 33.09 120.96 33.96C120.34 34.02 116.35 34.48 113.95 37.97C112.54 40.03 112.37 42.13 112.35 43.07H112.37Z" fill="black" stroke="black" stroke-width="0.75" stroke-linecap="round" stroke-linejoin="round"/>
<path d="M154.2 29.14C153.09 28.82 151.26 28.47 149.19 28.97C147.38 29.4 146.16 30.28 145.47 30.8C139.39 35.36 138.49 38.9 134.31 40.5C133.77 40.71 129.86 42 125.92 40.16C123.14 38.86 121.16 35.9 120.85 32.69C120.41 28.09 123.61 23.54 127.32 22.71C127.75 22.61 130.09 22.09 132 23.52C132.24 23.7 133.72 24.84 133.93 26.85C133.96 27.15 134.2 29.74 132.22 31C131.11 31.7 129.7 31.74 128.58 31.22C126.99 30.49 126.03 28.66 126.28 26.7C125.89 27.13 125.35 27.8 124.92 28.72C124.71 29.16 123.35 32.17 124.65 35.06C126.23 38.58 130.54 39.2 131.12 39.28C134.97 39.83 138.97 37.81 141.59 34.18" stroke="#0E0E0E" stroke-linecap="round" stroke-linejoin="round"/>
<path d="M120.77 31.23C119.3 30.5 118.27 29.69 117.61 29.09C113.15 25.03 112.72 19 112.56 16.78C112.45 15.26 112.51 14 112.58 13.15" stroke="#0E0E0E" stroke-linecap="round" stroke-linejoin="round"/>
<path d="M120.98 33.84C120.03 34.01 119 34.31 117.98 34.83C113.37 37.18 112.69 42.1 112.59 42.95" stroke="#0E0E0E" stroke-linecap="round" stroke-linejoin="round"/>
<path d="M153.26 38.28C153.11 38.62 152.32 40.37 150.47 40.95C148.51 41.57 146.79 40.43 146.07 39.95C143.04 37.94 142.74 34.11 142.71 33.49" stroke="#0E0E0E" stroke-linecap="round" stroke-linejoin="round"/>
<path d="M163.89 47.5C163.03 47.01 161.82 46.27 160.46 45.28C156.53 42.42 153.46 40.19 152.66 36.55C151.93 33.24 153.42 30.45 153.68 29.98C156.13 25.56 161.26 24.83 162.32 24.71C167.09 24.17 171.93 26.69 174.96 31.09" stroke="#0E0E0E" stroke-linecap="round" stroke-linejoin="round"/>
<path d="M174.3 54.37C174.35 44.08 171.83 36 167.84 33.77C165.79 32.63 163.71 32.6 163.71 32.6C163.02 32.6 159.53 32.65 157.32 35.53C155.35 38.1 155.84 41.04 155.93 41.54" stroke="#0E0E0E" stroke-linecap="round" stroke-linejoin="round"/>
<path d="M202.47 49.17C202.99 48.91 204.65 48.14 206.44 48.6C209.63 49.41 209.99 53.26 210.01 53.54C210.2 55.99 208.7 58.84 205.84 59.86C203.64 60.64 201.52 60.02 200.39 59.69C196.73 58.62 194.72 56.13 193.72 54.87C190.52 50.79 192.08 48.81 188.8 45.91C187.91 45.12 186.11 43.52 183.35 43.1C180.48 42.65 179.3 43.89 176.68 43.16C174.11 42.44 172.78 40.55 172.44 40.02C172.28 39.78 170.41 36.77 172.17 33.74C172.53 33.11 173.6 31.28 176.01 30.75C178.2 30.28 180.61 31.08 181.93 32.65C183.06 33.99 183.39 35.88 182.51 37.38C182.32 37.71 181.72 38.73 180.36 39.14C179.22 39.48 177.77 39.33 176.77 38.53C175.89 37.82 175.73 36.91 175.7 36.64" stroke="#0E0E0E" stroke-linecap="round" stroke-linejoin="round"/>
<path d="M190.86 48.7C190.44 44.14 188.11 40.39 184.7 39.17C183.92 38.89 182.7 38.61 181.08 38.81" stroke="#0E0E0E" stroke-linecap="round" stroke-linejoin="round"/>
<path d="M210.66 64.8C209.02 61.99 206.4 60.24 203.79 60.4C200.56 60.6 198.66 63.63 197.84 64.94C193.22 72.31 198.16 82.38 198.92 83.89" stroke="#0E0E0E" stroke-linecap="round" stroke-linejoin="round"/>
<path d="M210.73 120.36C208.85 107.49 202.74 79.34 179.21 58.43C174.09 53.88 168.86 50.31 163.89 47.5" stroke="#0E0E0E" stroke-linecap="round" stroke-linejoin="round"/>
<path d="M14.5801 197.96C14.6101 233.15 14.63 268.34 14.66 303.52C79.81 303.51 144.96 303.49 210.11 303.48C210.14 269.51 210.17 235.54 210.2 201.57C203.73 216.62 193.81 234.96 178.42 253.28C172.48 260.34 166.5 266.5 160.73 271.84C159.13 273.96 157.53 276.07 155.94 278.19C155.03 278.44 154.12 278.68 153.21 278.93C152.79 278.37 151.17 276.3 148.94 276.26C146.04 276.21 142.8 279.61 142.64 284.73C142.3 283.97 139.45 277.91 132.97 276.54C129.85 275.88 127.23 276.58 125.88 277.06C125 277.79 123.83 278.92 122.76 280.54C121.71 282.13 121.14 283.62 120.81 284.7H104.08C103.98 284.08 103.17 279.51 99.0101 277.23C94.9401 275 90.81 276.7 89.54 277.21C85.15 278.98 83.2901 282.63 82.8801 283.49C81.8901 278.77 78.5901 275.85 75.6901 276.08C75.2201 276.12 73.7101 276.32 72.1401 278.08C70.4701 276.69 68.8001 275.3 67.1301 273.91C59.3701 270.07 44.92 261.62 32.79 245.24C18.61 226.08 15.47 206.69 14.6 197.97L14.5801 197.96Z" fill="url(#paint1_linear_2_19678)"/>
<path d="M112.43 274.34C112.5 275.17 112.84 278.08 115.25 280.55C117.41 282.77 119.95 283.3 120.82 283.45C120.75 284.32 120.68 285.19 120.61 286.06C119.47 286.59 117.18 287.85 115.28 290.4C113.35 292.99 112.8 295.57 112.62 296.82C112.17 295.26 111.18 292.59 108.92 289.99C107.18 287.99 105.33 286.77 104.05 286.06C103.98 285.19 103.91 284.32 103.84 283.45C104.46 283.39 108.45 282.93 110.85 279.44C112.26 277.38 112.43 275.28 112.45 274.34H112.43Z" fill="white"/>
<path d="M154.04 288.26C152.93 288.58 151.1 288.93 149.03 288.43C147.22 288 146 287.12 145.31 286.6C139.23 282.04 138.33 278.5 134.15 276.9C133.61 276.69 129.7 275.4 125.76 277.24C122.98 278.54 121 281.5 120.69 284.71C120.25 289.31 123.45 293.86 127.16 294.69C127.59 294.79 129.93 295.31 131.84 293.88C132.08 293.7 133.56 292.56 133.77 290.55C133.8 290.25 134.04 287.66 132.06 286.4C130.95 285.7 129.54 285.66 128.42 286.18C126.83 286.91 125.87 288.74 126.12 290.7C125.73 290.27 125.19 289.6 124.76 288.68C124.55 288.24 123.19 285.23 124.49 282.34C126.07 278.82 130.38 278.2 130.96 278.12C134.81 277.57 138.81 279.59 141.43 283.22" stroke="#0E0E0E" stroke-linecap="round" stroke-linejoin="round"/>
<path d="M120.61 286.17C119.2 286.87 118.17 287.66 117.45 288.31C113.3 292.08 112.69 297.57 112.4 300.14C112.21 301.81 112.23 303.19 112.27 304.04" stroke="#0E0E0E" stroke-linecap="round" stroke-linejoin="round"/>
<path d="M120.82 283.57C119.87 283.4 118.84 283.1 117.82 282.58C113.21 280.23 112.53 275.31 112.43 274.46" stroke="#0E0E0E" stroke-linecap="round" stroke-linejoin="round"/>
<path d="M70.6101 288.26C71.7201 288.58 73.5501 288.93 75.6201 288.43C77.4301 288 78.6501 287.12 79.3401 286.6C85.4201 282.04 86.3201 278.5 90.5001 276.9C91.0401 276.69 94.9501 275.4 98.8901 277.24C101.67 278.54 103.65 281.5 103.96 284.71C104.4 289.31 101.2 293.86 97.4901 294.69C97.0601 294.79 94.7201 295.31 92.8101 293.88C92.5701 293.7 91.0901 292.56 90.8801 290.55C90.8501 290.25 90.6101 287.66 92.5901 286.4C93.7001 285.7 95.1101 285.66 96.2301 286.18C97.8201 286.91 98.7802 288.74 98.5302 290.7C98.9202 290.27 99.4601 289.6 99.8901 288.68C100.1 288.24 101.46 285.23 100.16 282.34C98.5801 278.82 94.2701 278.2 93.6901 278.12C89.8401 277.57 85.8401 279.59 83.2201 283.22" stroke="#0E0E0E" stroke-linecap="round" stroke-linejoin="round"/>
<path d="M103.83 283.57C104.74 283.43 105.78 283.14 106.83 282.58C111.11 280.32 112.22 275.49 112.43 274.46" stroke="#0E0E0E" stroke-linecap="round" stroke-linejoin="round"/>
<path d="M71.55 279.12C71.7 278.78 72.4901 277.03 74.3401 276.45C76.3001 275.83 78.0201 276.97 78.7401 277.45C81.7701 279.46 82.07 283.29 82.1 283.91" stroke="#0E0E0E" stroke-linecap="round" stroke-linejoin="round"/>
<path d="M60.91 269.9C61.77 270.39 62.9801 271.13 64.3401 272.12C68.2701 274.98 71.3401 277.21 72.1401 280.85C72.8701 284.16 71.3801 286.95 71.1201 287.42C68.6701 291.84 63.54 292.57 62.48 292.69C57.71 293.23 52.8701 290.71 49.8401 286.31" stroke="#0E0E0E" stroke-linecap="round" stroke-linejoin="round"/>
<path d="M50.51 263.04C50.46 273.33 52.98 281.41 56.97 283.64C59.02 284.78 61.1 284.81 61.1 284.81C61.79 284.81 65.28 284.76 67.49 281.88C69.46 279.31 68.97 276.37 68.88 275.87" stroke="#0E0E0E" stroke-linecap="round" stroke-linejoin="round"/>
<path d="M22.3401 268.24C21.8201 268.5 20.16 269.27 18.37 268.81C15.18 268 14.82 264.15 14.8 263.87C14.61 261.42 16.11 258.57 18.97 257.55C21.17 256.77 23.29 257.39 24.42 257.72C28.08 258.79 30.0901 261.28 31.0901 262.54C34.2901 266.62 32.73 268.6 36.01 271.5C36.9 272.29 38.7001 273.89 41.4601 274.31C44.3301 274.76 45.51 273.52 48.13 274.25C50.7 274.97 52.03 276.86 52.37 277.39C52.53 277.63 54.4 280.64 52.64 283.67C52.28 284.3 51.21 286.13 48.8 286.66C46.61 287.13 44.2 286.33 42.88 284.76C41.75 283.42 41.42 281.53 42.3 280.03C42.49 279.7 43.09 278.68 44.45 278.27C45.59 277.93 47.04 278.08 48.04 278.88C48.92 279.59 49.08 280.5 49.11 280.77" stroke="#0E0E0E" stroke-linecap="round" stroke-linejoin="round"/>
<path d="M33.9501 268.7C34.3701 273.26 36.7 277.01 40.11 278.23C40.89 278.51 42.11 278.79 43.73 278.59" stroke="#0E0E0E" stroke-linecap="round" stroke-linejoin="round"/>
<path d="M30.48 261.63C31.12 261.79 33.68 262.37 35.88 260.95C38.55 259.21 39.64 255.18 38.03 251.34" stroke="#0E0E0E" stroke-linecap="round" stroke-linejoin="round"/>
<path d="M28.67 247.88C29.08 247.9 29.9301 247.89 30.8301 247.42C32.3301 246.63 32.7901 245.16 32.8801 244.86" stroke="#0E0E0E" stroke-linecap="round" stroke-linejoin="round"/>
<path d="M14.1901 195.1C15.7901 207.98 21.4101 237.42 45.5901 258.97C50.7001 263.52 55.92 267.09 60.91 269.9" stroke="#0E0E0E" stroke-linecap="round" stroke-linejoin="round"/>
<path d="M112.43 274.34C112.5 275.17 112.84 278.08 115.25 280.55C117.41 282.77 119.95 283.3 120.82 283.45C120.75 284.32 120.68 285.19 120.61 286.06C119.99 286.34 119.14 286.78 118.23 287.47C116.18 289.04 115.2 290.88 114.34 292.54C113.59 294 112.62 296.26 112.12 299.24C112.11 297.81 111.89 293.7 108.91 289.98C107.22 287.86 105.28 286.67 104.04 286.05C103.97 285.18 103.9 284.31 103.83 283.44C104.45 283.38 108.44 282.92 110.84 279.43C112.25 277.37 112.42 275.27 112.44 274.33L112.43 274.34Z" fill="black" stroke="black" stroke-width="0.75" stroke-linecap="round" stroke-linejoin="round"/>
<path d="M70.6101 288.26C71.7201 288.58 73.5501 288.93 75.6201 288.43C77.4301 288 78.6501 287.12 79.3401 286.6C85.4201 282.04 86.3201 278.5 90.5001 276.9C91.0401 276.69 94.9501 275.4 98.8901 277.24C101.67 278.54 103.65 281.5 103.96 284.71C104.4 289.31 101.2 293.86 97.4901 294.69C97.0601 294.79 94.7201 295.31 92.8101 293.88C92.5701 293.7 91.0901 292.56 90.8801 290.55C90.8501 290.25 90.6101 287.66 92.5901 286.4C93.7001 285.7 95.1101 285.66 96.2301 286.18C97.8201 286.91 98.7802 288.74 98.5302 290.7C98.9202 290.27 99.4601 289.6 99.8901 288.68C100.1 288.24 101.46 285.23 100.16 282.34C98.5801 278.82 94.2701 278.2 93.6901 278.12C89.8401 277.57 85.8401 279.59 83.2201 283.22" stroke="#0E0E0E" stroke-linecap="round" stroke-linejoin="round"/>
<path d="M104.04 286.17C104.87 286.57 106.03 287.24 107.2 288.31C109.67 290.59 110.56 293.23 111.25 295.39C112.32 298.73 112.43 301.77 112.28 304.04" stroke="#0E0E0E" stroke-linecap="round" stroke-linejoin="round"/>
<path d="M103.83 283.57C104.74 283.43 105.78 283.14 106.83 282.58C111.15 280.29 112.23 275.35 112.43 274.34" stroke="#0E0E0E" stroke-linecap="round" stroke-linejoin="round"/>
<path d="M71.55 279.12C71.7 278.78 72.4901 277.03 74.3401 276.45C76.3001 275.83 78.0201 276.97 78.7401 277.45C81.7701 279.46 82.07 283.29 82.1 283.91" stroke="#0E0E0E" stroke-linecap="round" stroke-linejoin="round"/>
<path d="M60.91 269.9C61.77 270.39 62.9801 271.13 64.3401 272.12C68.2701 274.98 71.3401 277.21 72.1401 280.85C72.8701 284.16 71.3801 286.95 71.1201 287.42C68.6701 291.84 63.54 292.57 62.48 292.69C57.71 293.23 52.8701 290.71 49.8401 286.31" stroke="#0E0E0E" stroke-linecap="round" stroke-linejoin="round"/>
<path d="M50.51 263.04C50.46 273.33 52.98 281.41 56.97 283.64C59.02 284.78 61.1 284.81 61.1 284.81C61.79 284.81 65.28 284.76 67.49 281.88C69.46 279.31 68.97 276.37 68.88 275.87" stroke="#0E0E0E" stroke-linecap="round" stroke-linejoin="round"/>
<path d="M22.3401 268.24C21.8201 268.5 20.16 269.27 18.37 268.81C15.18 268 14.82 264.15 14.8 263.87C14.61 261.42 16.11 258.57 18.97 257.55C21.17 256.77 23.29 257.39 24.42 257.72C28.08 258.79 30.0901 261.28 31.0901 262.54C34.2901 266.62 32.73 268.6 36.01 271.5C36.9 272.29 38.7001 273.89 41.4601 274.31C44.3301 274.76 45.51 273.52 48.13 274.25C50.7 274.97 52.03 276.86 52.37 277.39C52.53 277.63 54.4 280.64 52.64 283.67C52.28 284.3 51.21 286.13 48.8 286.66C46.61 287.13 44.2 286.33 42.88 284.76C41.75 283.42 41.42 281.53 42.3 280.03C42.49 279.7 43.09 278.68 44.45 278.27C45.59 277.93 47.04 278.08 48.04 278.88C48.92 279.59 49.08 280.5 49.11 280.77" stroke="#0E0E0E" stroke-linecap="round" stroke-linejoin="round"/>
<path d="M33.9501 268.7C34.3701 273.26 36.7 277.01 40.11 278.23C40.89 278.51 42.11 278.79 43.73 278.59" stroke="#0E0E0E" stroke-linecap="round" stroke-linejoin="round"/>
<path d="M14.26 252.79C14.38 252.99 17.04 257.25 21.02 257C24.24 256.8 26.14 253.78 26.97 252.46C31.58 245.1 26.65 235.02 25.89 233.51" stroke="#0E0E0E" stroke-linecap="round" stroke-linejoin="round"/>
<path d="M30.48 261.63C31.12 261.79 33.68 262.37 35.88 260.95C38.55 259.21 39.64 255.18 38.03 251.34" stroke="#0E0E0E" stroke-linecap="round" stroke-linejoin="round"/>
<path d="M28.67 247.88C29.08 247.9 29.9301 247.89 30.8301 247.42C32.3301 246.63 32.7901 245.16 32.8801 244.86" stroke="#0E0E0E" stroke-linecap="round" stroke-linejoin="round"/>
<path d="M14.1901 195.1C15.7901 207.98 21.4101 237.42 45.5901 258.97C50.7001 263.52 55.92 267.09 60.91 269.9" stroke="#0E0E0E" stroke-linecap="round" stroke-linejoin="round"/>
<path d="M74.5599 35.55C71.5099 35.48 70.7999 37.81 70.6399 38.93C70.4799 37.81 69.7699 35.48 66.7199 35.55C62.6999 35.65 62.1699 40.15 63.5799 42.42C64.9799 44.69 65.7099 45.42 67.1099 46.87C68.4299 48.24 70.0099 49.78 70.5899 50.72C70.5899 50.72 70.6199 50.83 70.6399 50.8C70.6599 50.83 70.6899 50.72 70.6899 50.72C71.2699 49.78 72.8499 48.24 74.1699 46.87C75.5699 45.42 76.2999 44.69 77.6999 42.42C79.0999 40.15 78.5699 35.65 74.5599 35.55Z" fill="#EB1C24" stroke="black" stroke-width="0.75" stroke-linecap="round" stroke-linejoin="round"/>
<path d="M29.61 58.31L30.08 58.27V59.69H21.97V58.27L22.44 58.31C22.93 58.3 23.34 58.09 23.68 57.69C24.01 57.29 24.18 56.81 24.18 56.24V35.64H21.97V34.43L22.32 34.35L22.95 34.18C23.32 34.07 23.68 33.92 24.02 33.72C24.62 33.33 25.14 32.81 25.6 32.17C25.81 31.85 25.99 31.51 26.14 31.15C26.22 30.98 26.29 30.8 26.35 30.61C26.37 30.53 26.43 30.34 26.51 30.04L26.62 29.66H27.9V56.25C27.9 56.82 28.07 57.31 28.4 57.7C28.73 58.09 29.14 58.3 29.62 58.32L29.61 58.31Z" fill="black"/>
<path d="M54.35 34.17C55.49 35.62 56.37 37.26 56.98 39.09C57.59 40.92 57.8901 42.83 57.8901 44.84C57.8901 46.85 57.5801 48.8 56.9501 50.64C56.3301 52.49 55.4201 54.14 54.2401 55.61C53.0601 57.05 51.7201 58.15 50.2101 58.91C48.7001 59.68 47.1201 60.06 45.4601 60.06C43.8001 60.06 42.28 59.69 40.79 58.94C39.3 58.19 37.97 57.12 36.79 55.71L36.6 55.48C35.46 54.03 34.58 52.39 33.97 50.56C33.36 48.73 33.0601 46.82 33.0601 44.83C33.0601 42.84 33.3701 40.85 34.0001 39C34.6201 37.15 35.5201 35.5 36.6901 34.05C37.8801 32.6 39.23 31.49 40.73 30.72C42.23 29.95 43.81 29.57 45.47 29.57C47.13 29.57 48.6701 29.94 50.1501 30.69C51.6401 31.44 52.9701 32.51 54.1501 33.92C54.2101 34 54.2701 34.08 54.3401 34.15L54.35 34.17ZM53.4301 54.65C54.8501 52.82 55.5701 50.57 55.5701 47.89C55.5701 47.43 55.5501 46.96 55.5001 46.49C55.1601 43.09 53.9201 40.02 51.7701 37.29H51.7501C51.7501 37.29 51.7001 37.21 51.6801 37.19L51.5901 37.09C50.3401 35.6 48.97 34.44 47.48 33.63C45.99 32.81 44.4901 32.41 42.9901 32.41C40.8101 32.41 38.9801 33.29 37.5101 35.05C36.0901 36.88 35.3701 39.13 35.3701 41.81C35.3701 42.27 35.3901 42.74 35.4401 43.21C35.7801 46.6 37.02 49.66 39.17 52.39L39.3401 52.6V52.62C42.0601 55.73 44.9301 57.29 47.9401 57.29C50.1401 57.29 51.96 56.42 53.42 54.68L53.4301 54.65Z" fill="black"/>
<path d="M150.02 281.99C153.07 282.06 153.78 279.73 153.94 278.61C154.1 279.73 154.81 282.06 157.86 281.99C161.88 281.89 162.41 277.39 161 275.12C159.6 272.85 158.87 272.12 157.47 270.67C156.15 269.3 154.57 267.76 153.99 266.82C153.99 266.82 153.96 266.71 153.94 266.74C153.92 266.71 153.89 266.82 153.89 266.82C153.31 267.76 151.73 269.3 150.41 270.67C149.01 272.12 148.28 272.85 146.88 275.12C145.48 277.39 146.01 281.89 150.02 281.99Z" fill="#EB1C24" stroke="black" stroke-width="0.75" stroke-linecap="round" stroke-linejoin="round"/>
<path d="M195.08 259.23L194.61 259.27V257.85H202.72V259.27L202.25 259.23C201.76 259.24 201.35 259.45 201.01 259.85C200.68 260.25 200.51 260.73 200.51 261.3V281.9H202.72V283.11L202.37 283.19L201.74 283.36C201.37 283.47 201.01 283.62 200.67 283.82C200.07 284.21 199.55 284.73 199.09 285.37C198.88 285.69 198.7 286.03 198.55 286.39C198.47 286.56 198.4 286.74 198.34 286.93C198.32 287.01 198.26 287.2 198.18 287.5L198.07 287.88H196.79V261.29C196.79 260.72 196.62 260.23 196.29 259.84C195.96 259.45 195.55 259.24 195.07 259.22L195.08 259.23Z" fill="black"/>
<path d="M170.35 283.37C169.21 281.92 168.33 280.28 167.72 278.45C167.11 276.62 166.81 274.71 166.81 272.7C166.81 270.69 167.12 268.74 167.75 266.9C168.37 265.05 169.28 263.4 170.46 261.93C171.64 260.49 172.98 259.39 174.49 258.63C176 257.86 177.58 257.48 179.24 257.48C180.9 257.48 182.42 257.85 183.91 258.6C185.4 259.35 186.73 260.42 187.91 261.83L188.1 262.06C189.24 263.51 190.12 265.15 190.73 266.98C191.34 268.81 191.64 270.72 191.64 272.71C191.64 274.7 191.33 276.69 190.7 278.54C190.08 280.39 189.18 282.04 188.01 283.49C186.82 284.94 185.47 286.05 183.97 286.82C182.47 287.59 180.89 287.97 179.23 287.97C177.57 287.97 176.03 287.6 174.55 286.85C173.06 286.1 171.73 285.03 170.55 283.62C170.49 283.54 170.43 283.46 170.36 283.39L170.35 283.37ZM171.26 262.89C169.84 264.72 169.12 266.97 169.12 269.65C169.12 270.11 169.14 270.58 169.19 271.05C169.53 274.45 170.77 277.52 172.92 280.25H172.94C172.94 280.25 172.99 280.33 173.01 280.35L173.1 280.45C174.35 281.94 175.72 283.1 177.21 283.91C178.7 284.73 180.2 285.13 181.7 285.13C183.88 285.13 185.71 284.25 187.18 282.49C188.6 280.66 189.32 278.41 189.32 275.73C189.32 275.27 189.3 274.8 189.25 274.33C188.91 270.94 187.67 267.88 185.52 265.15L185.35 264.94V264.92C182.63 261.81 179.76 260.25 176.75 260.25C174.55 260.25 172.73 261.12 171.27 262.86L171.26 262.89Z" fill="black"/>
<path d="M91.2601 67.36C85.8701 67.23 84.63 71.34 84.35 73.32C84.0601 71.34 82.8201 67.23 77.4401 67.36C70.3601 67.53 69.4201 75.47 71.8901 79.48C74.3601 83.49 75.6401 84.77 78.1201 87.33C80.4501 89.74 83.2401 92.45 84.2601 94.12C84.2601 94.12 84.3101 94.31 84.35 94.26C84.38 94.31 84.4401 94.12 84.4401 94.12C85.4701 92.46 88.2501 89.74 90.5801 87.33C93.0501 84.77 94.3301 83.49 96.8101 79.48C99.2801 75.47 98.3501 67.53 91.2601 67.36Z" fill="#EB1C24" stroke="black" stroke-width="0.75" stroke-linecap="round" stroke-linejoin="round"/>
<path d="M91.2601 119.9C85.8701 119.77 84.63 123.88 84.35 125.86C84.0601 123.88 82.8201 119.77 77.4401 119.9C70.3601 120.07 69.4201 128.01 71.8901 132.02C74.3601 136.03 75.6401 137.31 78.1201 139.87C80.4501 142.28 83.2401 144.99 84.2601 146.66C84.2601 146.66 84.3101 146.85 84.35 146.8C84.38 146.85 84.4401 146.66 84.4401 146.66C85.4701 145 88.2501 142.28 90.5801 139.87C93.0501 137.31 94.3301 136.03 96.8101 132.02C99.2801 128.01 98.3501 120.07 91.2601 119.9Z" fill="#EB1C24" stroke="black" stroke-width="0.75" stroke-linecap="round" stroke-linejoin="round"/>
<path d="M147.07 66.57C141.68 66.44 140.44 70.55 140.16 72.53C139.87 70.55 138.63 66.44 133.25 66.57C126.17 66.74 125.23 74.68 127.7 78.69C130.17 82.7 131.45 83.98 133.93 86.54C136.26 88.95 139.05 91.66 140.07 93.33C140.07 93.33 140.12 93.52 140.16 93.47C140.19 93.52 140.25 93.33 140.25 93.33C141.28 91.67 144.06 88.95 146.39 86.54C148.86 83.98 150.14 82.7 152.62 78.69C155.09 74.68 154.16 66.74 147.07 66.57Z" fill="#EB1C24" stroke="black" stroke-width="0.75" stroke-linecap="round" stroke-linejoin="round"/>
<path d="M147.07 119.63C141.68 119.5 140.44 123.61 140.16 125.59C139.87 123.61 138.63 119.5 133.25 119.63C126.17 119.8 125.23 127.74 127.7 131.75C130.17 135.76 131.45 137.04 133.93 139.6C136.26 142.01 139.05 144.72 140.07 146.39C140.07 146.39 140.12 146.58 140.16 146.53C140.19 146.58 140.25 146.39 140.25 146.39C141.28 144.73 144.06 142.01 146.39 139.6C148.86 137.04 150.14 135.76 152.62 131.75C155.09 127.74 154.16 119.8 147.07 119.63Z" fill="#EB1C24" stroke="black" stroke-width="0.75" stroke-linecap="round" stroke-linejoin="round"/>
<path d="M120.34 92.36C114.95 92.23 113.71 96.34 113.43 98.32C113.14 96.34 111.9 92.23 106.52 92.36C99.4401 92.53 98.5 100.47 100.97 104.48C103.44 108.49 104.72 109.77 107.2 112.33C109.53 114.74 112.32 117.45 113.34 119.12C113.34 119.12 113.39 119.31 113.43 119.26C113.46 119.31 113.52 119.12 113.52 119.12C114.55 117.46 117.33 114.74 119.66 112.33C122.13 109.77 123.41 108.49 125.89 104.48C128.36 100.47 127.43 92.53 120.34 92.36Z" fill="#EB1C24" stroke="black" stroke-width="0.75" stroke-linecap="round" stroke-linejoin="round"/>
<path d="M91.2601 172.44C85.8701 172.31 84.63 176.42 84.35 178.4C84.0601 176.42 82.8201 172.31 77.4401 172.44C70.3601 172.61 69.4201 180.55 71.8901 184.56C74.3601 188.57 75.6401 189.85 78.1201 192.41C80.4501 194.82 83.2401 197.53 84.2601 199.2C84.2601 199.2 84.3101 199.39 84.35 199.34C84.38 199.39 84.4401 199.2 84.4401 199.2C85.4701 197.54 88.2501 194.82 90.5801 192.41C93.0501 189.85 94.3301 188.57 96.8101 184.56C99.2801 180.55 98.3501 172.61 91.2601 172.44Z" fill="#EB1C24" stroke="black" stroke-width="0.75" stroke-linecap="round" stroke-linejoin="round"/>
<path d="M91.2601 224.98C85.8701 224.85 84.63 228.96 84.35 230.94C84.0601 228.96 82.8201 224.85 77.4401 224.98C70.3601 225.15 69.4201 233.09 71.8901 237.1C74.3601 241.11 75.6401 242.39 78.1201 244.95C80.4501 247.36 83.2401 250.07 84.2601 251.74C84.2601 251.74 84.3101 251.93 84.35 251.88C84.38 251.93 84.4401 251.74 84.4401 251.74C85.4701 250.08 88.2501 247.36 90.5801 244.95C93.0501 242.39 94.3301 241.11 96.8101 237.1C99.2801 233.09 98.3501 225.15 91.2601 224.98Z" fill="#EB1C24" stroke="black" stroke-width="0.75" stroke-linecap="round" stroke-linejoin="round"/>
<path d="M147.07 172.69C141.68 172.56 140.44 176.67 140.16 178.65C139.87 176.67 138.63 172.56 133.25 172.69C126.17 172.86 125.23 180.8 127.7 184.81C130.17 188.82 131.45 190.1 133.93 192.66C136.26 195.07 139.05 197.78 140.07 199.45C140.07 199.45 140.12 199.64 140.16 199.59C140.19 199.64 140.25 199.45 140.25 199.45C141.28 197.79 144.06 195.07 146.39 192.66C148.86 190.1 150.14 188.82 152.62 184.81C155.09 180.8 154.16 172.86 147.07 172.69Z" fill="#EB1C24" stroke="black" stroke-width="0.75" stroke-linecap="round" stroke-linejoin="round"/>
<path d="M147.07 225.75C141.68 225.62 140.44 229.73 140.16 231.71C139.87 229.73 138.63 225.62 133.25 225.75C126.17 225.92 125.23 233.86 127.7 237.87C130.17 241.88 131.45 243.16 133.93 245.72C136.26 248.13 139.05 250.84 140.07 252.51C140.07 252.51 140.12 252.7 140.16 252.65C140.19 252.7 140.25 252.51 140.25 252.51C141.28 250.85 144.06 248.13 146.39 245.72C148.86 243.16 150.14 241.88 152.62 237.87C155.09 233.86 154.16 225.92 147.07 225.75Z" fill="#EB1C24" stroke="black" stroke-width="0.75" stroke-linecap="round" stroke-linejoin="round"/>
<path d="M120.34 196.91C114.95 196.78 113.71 200.89 113.43 202.87C113.14 200.89 111.9 196.78 106.52 196.91C99.4401 197.08 98.5 205.02 100.97 209.03C103.44 213.04 104.72 214.32 107.2 216.88C109.53 219.29 112.32 222 113.34 223.67C113.34 223.67 113.39 223.86 113.43 223.81C113.46 223.86 113.52 223.67 113.52 223.67C114.55 222.01 117.33 219.29 119.66 216.88C122.13 214.32 123.41 213.04 125.89 209.03C128.36 205.02 127.43 197.08 120.34 196.91Z" fill="#EB1C24" stroke="black" stroke-width="0.75" stroke-linecap="round" stroke-linejoin="round"/>
<defs>
<linearGradient id="paint0_linear_2_19678" x1="210.3" y1="65.43" x2="14.78" y2="65.43" gradientUnits="userSpaceOnUse">
<stop stop-color="#8F8587"/>
<stop offset="0.24" stop-color="#C3BEBF"/>
<stop offset="0.45" stop-color="#EBEAEA"/>
<stop offset="0.56" stop-color="#FBFBFB"/>
</linearGradient>
<linearGradient id="paint1_linear_2_19678" x1="14.5801" y1="250.75" x2="210.21" y2="250.75" gradientUnits="userSpaceOnUse">
<stop stop-color="#8F8587"/>
<stop offset="0.25" stop-color="#C3BEBF"/>
<stop offset="0.46" stop-color="#EBEAEA"/>
<stop offset="0.57" stop-color="#FBFBFB"/>
</linearGradient>
</defs>
</svg>
