<?xml version="1.0" encoding="UTF-8"?>
<svg xmlns="http://www.w3.org/2000/svg" xmlns:xlink="http://www.w3.org/1999/xlink" width="612" height="792" viewBox="0 0 612 792">
<defs>
<clipPath id="clip-0">
<path clip-rule="nonzero" d="M 6 6 L 174.75 6 L 174.75 243.75 L 6 243.75 Z M 6 6 "/>
</clipPath>
<clipPath id="clip-1">
<path clip-rule="nonzero" d="M 17 16 L 164 16 L 164 94 L 17 94 Z M 17 16 "/>
</clipPath>
<clipPath id="clip-2">
<path clip-rule="nonzero" d="M 163.710938 93.742188 C 163.710938 67.84375 163.71875 41.941406 163.726562 16.042969 C 114.871094 16.042969 66.007812 16.042969 17.152344 16.050781 C 17.128906 41.527344 17.109375 67.003906 17.085938 92.484375 C 19.648438 81.046875 24.824219 64.175781 34.695312 55.171875 C 42.246094 48.285156 46.019531 44.835938 48.976562 43.453125 C 50.347656 42.808594 54.734375 40.914062 58.363281 36.480469 C 59.039062 35.664062 59.527344 34.941406 59.835938 34.460938 C 60.148438 34.882812 61.363281 36.433594 63.039062 36.464844 C 65.210938 36.503906 67.640625 33.953125 67.761719 30.113281 C 68.015625 30.683594 70.15625 35.226562 75.015625 36.253906 C 77.355469 36.75 79.320312 36.226562 80.332031 35.863281 C 80.992188 35.316406 81.871094 34.46875 82.671875 33.253906 C 83.460938 32.0625 83.886719 30.945312 84.136719 30.136719 L 96.683594 30.136719 C 96.757812 30.601562 97.363281 34.027344 100.484375 35.738281 C 103.539062 37.410156 106.636719 36.136719 107.585938 35.753906 C 110.878906 34.425781 112.273438 31.6875 112.582031 31.042969 C 113.324219 34.582031 115.800781 36.773438 117.976562 36.601562 C 118.328125 36.570312 119.460938 36.421875 120.636719 35.101562 L 124.394531 38.226562 C 125.863281 39.097656 127.925781 40.378906 130.304688 42.046875 C 133.09375 43.996094 142.351562 50.566406 149.617188 60.007812 C 159.269531 72.546875 162.503906 86.355469 163.703125 93.726562 Z M 163.710938 93.742188 "/>
</clipPath>
<linearGradient id="linear-pattern-0" gradientUnits="userSpaceOnUse" x1="210.299991" y1="65.190002" x2="14.779999" y2="65.190002" gradientTransform="matrix(0.75, 0, 0, 0.75, 6, 6)">
<stop offset="0" stop-color="rgb(56.098938%, 52.198792%, 52.89917%)" stop-opacity="1"/>
<stop offset="0.00390625" stop-color="rgb(56.430054%, 52.561951%, 53.256226%)" stop-opacity="1"/>
<stop offset="0.0078125" stop-color="rgb(56.762695%, 52.92511%, 53.614807%)" stop-opacity="1"/>
<stop offset="0.0117188" stop-color="rgb(57.095337%, 53.288269%, 53.973389%)" stop-opacity="1"/>
<stop offset="0.015625" stop-color="rgb(57.427979%, 53.651428%, 54.33197%)" stop-opacity="1"/>
<stop offset="0.0195312" stop-color="rgb(57.759094%, 54.013062%, 54.689026%)" stop-opacity="1"/>
<stop offset="0.0234375" stop-color="rgb(58.091736%, 54.376221%, 55.047607%)" stop-opacity="1"/>
<stop offset="0.0273438" stop-color="rgb(58.422852%, 54.73938%, 55.404663%)" stop-opacity="1"/>
<stop offset="0.03125" stop-color="rgb(58.755493%, 55.102539%, 55.763245%)" stop-opacity="1"/>
<stop offset="0.0351562" stop-color="rgb(59.086609%, 55.465698%, 56.121826%)" stop-opacity="1"/>
<stop offset="0.0390625" stop-color="rgb(59.41925%, 55.828857%, 56.480408%)" stop-opacity="1"/>
<stop offset="0.0429688" stop-color="rgb(59.750366%, 56.192017%, 56.837463%)" stop-opacity="1"/>
<stop offset="0.046875" stop-color="rgb(60.083008%, 56.555176%, 57.196045%)" stop-opacity="1"/>
<stop offset="0.0507812" stop-color="rgb(60.414124%, 56.916809%, 57.553101%)" stop-opacity="1"/>
<stop offset="0.0546875" stop-color="rgb(60.746765%, 57.279968%, 57.911682%)" stop-opacity="1"/>
<stop offset="0.0585938" stop-color="rgb(61.079407%, 57.643127%, 58.270264%)" stop-opacity="1"/>
<stop offset="0.0625" stop-color="rgb(61.412048%, 58.006287%, 58.628845%)" stop-opacity="1"/>
<stop offset="0.0664062" stop-color="rgb(61.743164%, 58.369446%, 58.985901%)" stop-opacity="1"/>
<stop offset="0.0703125" stop-color="rgb(62.075806%, 58.732605%, 59.344482%)" stop-opacity="1"/>
<stop offset="0.0742188" stop-color="rgb(62.406921%, 59.094238%, 59.701538%)" stop-opacity="1"/>
<stop offset="0.078125" stop-color="rgb(62.739563%, 59.457397%, 60.06012%)" stop-opacity="1"/>
<stop offset="0.0820312" stop-color="rgb(63.070679%, 59.820557%, 60.417175%)" stop-opacity="1"/>
<stop offset="0.0859375" stop-color="rgb(63.40332%, 60.183716%, 60.775757%)" stop-opacity="1"/>
<stop offset="0.0898438" stop-color="rgb(63.734436%, 60.546875%, 61.134338%)" stop-opacity="1"/>
<stop offset="0.09375" stop-color="rgb(64.067078%, 60.910034%, 61.49292%)" stop-opacity="1"/>
<stop offset="0.0976563" stop-color="rgb(64.399719%, 61.273193%, 61.849976%)" stop-opacity="1"/>
<stop offset="0.101563" stop-color="rgb(64.732361%, 61.636353%, 62.208557%)" stop-opacity="1"/>
<stop offset="0.105469" stop-color="rgb(65.063477%, 61.997986%, 62.565613%)" stop-opacity="1"/>
<stop offset="0.109375" stop-color="rgb(65.396118%, 62.361145%, 62.924194%)" stop-opacity="1"/>
<stop offset="0.113281" stop-color="rgb(65.727234%, 62.724304%, 63.282776%)" stop-opacity="1"/>
<stop offset="0.117188" stop-color="rgb(66.059875%, 63.087463%, 63.641357%)" stop-opacity="1"/>
<stop offset="0.121094" stop-color="rgb(66.390991%, 63.450623%, 63.998413%)" stop-opacity="1"/>
<stop offset="0.125" stop-color="rgb(66.723633%, 63.813782%, 64.356995%)" stop-opacity="1"/>
<stop offset="0.128906" stop-color="rgb(67.054749%, 64.175415%, 64.71405%)" stop-opacity="1"/>
<stop offset="0.132812" stop-color="rgb(67.38739%, 64.538574%, 65.072632%)" stop-opacity="1"/>
<stop offset="0.136719" stop-color="rgb(67.718506%, 64.901733%, 65.431213%)" stop-opacity="1"/>
<stop offset="0.140625" stop-color="rgb(68.051147%, 65.264893%, 65.789795%)" stop-opacity="1"/>
<stop offset="0.144531" stop-color="rgb(68.383789%, 65.628052%, 66.146851%)" stop-opacity="1"/>
<stop offset="0.148438" stop-color="rgb(68.716431%, 65.991211%, 66.505432%)" stop-opacity="1"/>
<stop offset="0.152344" stop-color="rgb(69.047546%, 66.352844%, 66.862488%)" stop-opacity="1"/>
<stop offset="0.15625" stop-color="rgb(69.380188%, 66.716003%, 67.221069%)" stop-opacity="1"/>
<stop offset="0.160156" stop-color="rgb(69.711304%, 67.079163%, 67.579651%)" stop-opacity="1"/>
<stop offset="0.164062" stop-color="rgb(70.043945%, 67.442322%, 67.938232%)" stop-opacity="1"/>
<stop offset="0.167969" stop-color="rgb(70.375061%, 67.805481%, 68.295288%)" stop-opacity="1"/>
<stop offset="0.171875" stop-color="rgb(70.707703%, 68.16864%, 68.65387%)" stop-opacity="1"/>
<stop offset="0.175781" stop-color="rgb(71.038818%, 68.531799%, 69.010925%)" stop-opacity="1"/>
<stop offset="0.179688" stop-color="rgb(71.37146%, 68.894958%, 69.369507%)" stop-opacity="1"/>
<stop offset="0.183594" stop-color="rgb(71.702576%, 69.256592%, 69.726562%)" stop-opacity="1"/>
<stop offset="0.1875" stop-color="rgb(72.035217%, 69.619751%, 70.085144%)" stop-opacity="1"/>
<stop offset="0.191406" stop-color="rgb(72.367859%, 69.98291%, 70.443726%)" stop-opacity="1"/>
<stop offset="0.195313" stop-color="rgb(72.7005%, 70.346069%, 70.802307%)" stop-opacity="1"/>
<stop offset="0.199219" stop-color="rgb(73.031616%, 70.709229%, 71.159363%)" stop-opacity="1"/>
<stop offset="0.203125" stop-color="rgb(73.364258%, 71.072388%, 71.517944%)" stop-opacity="1"/>
<stop offset="0.207031" stop-color="rgb(73.695374%, 71.434021%, 71.875%)" stop-opacity="1"/>
<stop offset="0.210938" stop-color="rgb(74.028015%, 71.79718%, 72.233582%)" stop-opacity="1"/>
<stop offset="0.214844" stop-color="rgb(74.359131%, 72.160339%, 72.592163%)" stop-opacity="1"/>
<stop offset="0.21875" stop-color="rgb(74.691772%, 72.523499%, 72.950745%)" stop-opacity="1"/>
<stop offset="0.222656" stop-color="rgb(75.022888%, 72.886658%, 73.3078%)" stop-opacity="1"/>
<stop offset="0.226562" stop-color="rgb(75.35553%, 73.249817%, 73.666382%)" stop-opacity="1"/>
<stop offset="0.230469" stop-color="rgb(75.688171%, 73.612976%, 74.023438%)" stop-opacity="1"/>
<stop offset="0.234375" stop-color="rgb(76.020813%, 73.976135%, 74.382019%)" stop-opacity="1"/>
<stop offset="0.238281" stop-color="rgb(76.341248%, 74.327087%, 74.728394%)" stop-opacity="1"/>
<stop offset="0.242188" stop-color="rgb(76.661682%, 74.67804%, 75.074768%)" stop-opacity="1"/>
<stop offset="0.246094" stop-color="rgb(76.953125%, 75%, 75.389099%)" stop-opacity="1"/>
<stop offset="0.25" stop-color="rgb(77.246094%, 75.32196%, 75.70343%)" stop-opacity="1"/>
<stop offset="0.253906" stop-color="rgb(77.537537%, 75.643921%, 76.017761%)" stop-opacity="1"/>
<stop offset="0.257812" stop-color="rgb(77.830505%, 75.965881%, 76.332092%)" stop-opacity="1"/>
<stop offset="0.261719" stop-color="rgb(78.121948%, 76.287842%, 76.646423%)" stop-opacity="1"/>
<stop offset="0.265625" stop-color="rgb(78.413391%, 76.609802%, 76.960754%)" stop-opacity="1"/>
<stop offset="0.269531" stop-color="rgb(78.704834%, 76.930237%, 77.275085%)" stop-opacity="1"/>
<stop offset="0.273437" stop-color="rgb(78.997803%, 77.252197%, 77.589417%)" stop-opacity="1"/>
<stop offset="0.277344" stop-color="rgb(79.289246%, 77.574158%, 77.903748%)" stop-opacity="1"/>
<stop offset="0.28125" stop-color="rgb(79.582214%, 77.896118%, 78.218079%)" stop-opacity="1"/>
<stop offset="0.285156" stop-color="rgb(79.873657%, 78.218079%, 78.53241%)" stop-opacity="1"/>
<stop offset="0.289062" stop-color="rgb(80.166626%, 78.540039%, 78.846741%)" stop-opacity="1"/>
<stop offset="0.292969" stop-color="rgb(80.458069%, 78.862%, 79.161072%)" stop-opacity="1"/>
<stop offset="0.296875" stop-color="rgb(80.749512%, 79.18396%, 79.475403%)" stop-opacity="1"/>
<stop offset="0.300781" stop-color="rgb(81.040955%, 79.504395%, 79.789734%)" stop-opacity="1"/>
<stop offset="0.304688" stop-color="rgb(81.333923%, 79.826355%, 80.104065%)" stop-opacity="1"/>
<stop offset="0.308594" stop-color="rgb(81.625366%, 80.148315%, 80.418396%)" stop-opacity="1"/>
<stop offset="0.3125" stop-color="rgb(81.918335%, 80.470276%, 80.732727%)" stop-opacity="1"/>
<stop offset="0.316406" stop-color="rgb(82.209778%, 80.792236%, 81.047058%)" stop-opacity="1"/>
<stop offset="0.320312" stop-color="rgb(82.502747%, 81.114197%, 81.361389%)" stop-opacity="1"/>
<stop offset="0.324219" stop-color="rgb(82.794189%, 81.436157%, 81.67572%)" stop-opacity="1"/>
<stop offset="0.328125" stop-color="rgb(83.085632%, 81.758118%, 81.990051%)" stop-opacity="1"/>
<stop offset="0.332031" stop-color="rgb(83.377075%, 82.078552%, 82.304382%)" stop-opacity="1"/>
<stop offset="0.335938" stop-color="rgb(83.670044%, 82.400513%, 82.618713%)" stop-opacity="1"/>
<stop offset="0.339844" stop-color="rgb(83.961487%, 82.722473%, 82.933044%)" stop-opacity="1"/>
<stop offset="0.34375" stop-color="rgb(84.254456%, 83.044434%, 83.247375%)" stop-opacity="1"/>
<stop offset="0.347656" stop-color="rgb(84.545898%, 83.366394%, 83.561707%)" stop-opacity="1"/>
<stop offset="0.351562" stop-color="rgb(84.838867%, 83.688354%, 83.876038%)" stop-opacity="1"/>
<stop offset="0.355469" stop-color="rgb(85.13031%, 84.010315%, 84.190369%)" stop-opacity="1"/>
<stop offset="0.359375" stop-color="rgb(85.423279%, 84.332275%, 84.5047%)" stop-opacity="1"/>
<stop offset="0.363281" stop-color="rgb(85.714722%, 84.654236%, 84.819031%)" stop-opacity="1"/>
<stop offset="0.367188" stop-color="rgb(86.006165%, 84.976196%, 85.133362%)" stop-opacity="1"/>
<stop offset="0.371094" stop-color="rgb(86.297607%, 85.296631%, 85.447693%)" stop-opacity="1"/>
<stop offset="0.375" stop-color="rgb(86.590576%, 85.618591%, 85.762024%)" stop-opacity="1"/>
<stop offset="0.378906" stop-color="rgb(86.882019%, 85.940552%, 86.076355%)" stop-opacity="1"/>
<stop offset="0.382813" stop-color="rgb(87.174988%, 86.262512%, 86.390686%)" stop-opacity="1"/>
<stop offset="0.386719" stop-color="rgb(87.466431%, 86.584473%, 86.705017%)" stop-opacity="1"/>
<stop offset="0.390625" stop-color="rgb(87.759399%, 86.906433%, 87.019348%)" stop-opacity="1"/>
<stop offset="0.394531" stop-color="rgb(88.050842%, 87.228394%, 87.333679%)" stop-opacity="1"/>
<stop offset="0.398438" stop-color="rgb(88.342285%, 87.550354%, 87.64801%)" stop-opacity="1"/>
<stop offset="0.402344" stop-color="rgb(88.633728%, 87.870789%, 87.962341%)" stop-opacity="1"/>
<stop offset="0.40625" stop-color="rgb(88.926697%, 88.192749%, 88.276672%)" stop-opacity="1"/>
<stop offset="0.410156" stop-color="rgb(89.21814%, 88.514709%, 88.591003%)" stop-opacity="1"/>
<stop offset="0.414063" stop-color="rgb(89.511108%, 88.83667%, 88.905334%)" stop-opacity="1"/>
<stop offset="0.417969" stop-color="rgb(89.802551%, 89.15863%, 89.219666%)" stop-opacity="1"/>
<stop offset="0.421875" stop-color="rgb(90.09552%, 89.480591%, 89.533997%)" stop-opacity="1"/>
<stop offset="0.425781" stop-color="rgb(90.386963%, 89.802551%, 89.848328%)" stop-opacity="1"/>
<stop offset="0.429688" stop-color="rgb(90.678406%, 90.124512%, 90.162659%)" stop-opacity="1"/>
<stop offset="0.433594" stop-color="rgb(90.969849%, 90.444946%, 90.47699%)" stop-opacity="1"/>
<stop offset="0.4375" stop-color="rgb(91.262817%, 90.766907%, 90.791321%)" stop-opacity="1"/>
<stop offset="0.441406" stop-color="rgb(91.55426%, 91.088867%, 91.105652%)" stop-opacity="1"/>
<stop offset="0.445312" stop-color="rgb(91.847229%, 91.410828%, 91.419983%)" stop-opacity="1"/>
<stop offset="0.449219" stop-color="rgb(92.10968%, 91.697693%, 91.702271%)" stop-opacity="1"/>
<stop offset="0.453125" stop-color="rgb(92.373657%, 91.986084%, 91.986084%)" stop-opacity="1"/>
<stop offset="0.457031" stop-color="rgb(92.593384%, 92.219543%, 92.219543%)" stop-opacity="1"/>
<stop offset="0.460938" stop-color="rgb(92.814636%, 92.454529%, 92.454529%)" stop-opacity="1"/>
<stop offset="0.464844" stop-color="rgb(93.034363%, 92.687988%, 92.687988%)" stop-opacity="1"/>
<stop offset="0.46875" stop-color="rgb(93.254089%, 92.922974%, 92.922974%)" stop-opacity="1"/>
<stop offset="0.472656" stop-color="rgb(93.473816%, 93.156433%, 93.156433%)" stop-opacity="1"/>
<stop offset="0.476562" stop-color="rgb(93.695068%, 93.391418%, 93.391418%)" stop-opacity="1"/>
<stop offset="0.480469" stop-color="rgb(93.914795%, 93.624878%, 93.624878%)" stop-opacity="1"/>
<stop offset="0.484375" stop-color="rgb(94.136047%, 93.859863%, 93.859863%)" stop-opacity="1"/>
<stop offset="0.488281" stop-color="rgb(94.355774%, 94.093323%, 94.093323%)" stop-opacity="1"/>
<stop offset="0.492188" stop-color="rgb(94.5755%, 94.328308%, 94.328308%)" stop-opacity="1"/>
<stop offset="0.496094" stop-color="rgb(94.795227%, 94.563293%, 94.563293%)" stop-opacity="1"/>
<stop offset="0.5" stop-color="rgb(95.016479%, 94.798279%, 94.798279%)" stop-opacity="1"/>
<stop offset="0.503906" stop-color="rgb(95.236206%, 95.031738%, 95.031738%)" stop-opacity="1"/>
<stop offset="0.507813" stop-color="rgb(95.455933%, 95.266724%, 95.266724%)" stop-opacity="1"/>
<stop offset="0.511719" stop-color="rgb(95.675659%, 95.500183%, 95.500183%)" stop-opacity="1"/>
<stop offset="0.515625" stop-color="rgb(95.896912%, 95.735168%, 95.735168%)" stop-opacity="1"/>
<stop offset="0.519531" stop-color="rgb(96.116638%, 95.968628%, 95.968628%)" stop-opacity="1"/>
<stop offset="0.523438" stop-color="rgb(96.336365%, 96.203613%, 96.203613%)" stop-opacity="1"/>
<stop offset="0.527344" stop-color="rgb(96.556091%, 96.437073%, 96.437073%)" stop-opacity="1"/>
<stop offset="0.53125" stop-color="rgb(96.777344%, 96.672058%, 96.672058%)" stop-opacity="1"/>
<stop offset="0.535156" stop-color="rgb(96.99707%, 96.907043%, 96.907043%)" stop-opacity="1"/>
<stop offset="0.539063" stop-color="rgb(97.218323%, 97.142029%, 97.142029%)" stop-opacity="1"/>
<stop offset="0.542969" stop-color="rgb(97.438049%, 97.375488%, 97.375488%)" stop-opacity="1"/>
<stop offset="0.546875" stop-color="rgb(97.657776%, 97.610474%, 97.610474%)" stop-opacity="1"/>
<stop offset="0.550781" stop-color="rgb(97.877502%, 97.843933%, 97.843933%)" stop-opacity="1"/>
<stop offset="0.554688" stop-color="rgb(98.098755%, 98.078918%, 98.078918%)" stop-opacity="1"/>
<stop offset="0.5625" stop-color="rgb(98.248291%, 98.239136%, 98.239136%)" stop-opacity="1"/>
<stop offset="0.625" stop-color="rgb(98.399353%, 98.399353%, 98.399353%)" stop-opacity="1"/>
<stop offset="0.75" stop-color="rgb(98.399353%, 98.399353%, 98.399353%)" stop-opacity="1"/>
<stop offset="1" stop-color="rgb(98.399353%, 98.399353%, 98.399353%)" stop-opacity="1"/>
</linearGradient>
<clipPath id="clip-3">
<path clip-rule="nonzero" d="M 16 154 L 164 154 L 164 234 L 16 234 Z M 16 154 "/>
</clipPath>
<clipPath id="clip-4">
<path clip-rule="nonzero" d="M 16.933594 154.289062 C 16.957031 180.683594 16.972656 207.074219 16.996094 233.460938 C 65.859375 233.453125 114.71875 233.4375 163.582031 233.429688 C 163.605469 207.953125 163.628906 182.476562 163.648438 156.996094 C 158.796875 168.285156 151.359375 182.039062 139.816406 195.78125 C 135.359375 201.074219 130.875 205.695312 126.546875 209.699219 C 125.347656 211.289062 124.148438 212.871094 122.953125 214.460938 C 122.273438 214.648438 121.589844 214.828125 120.90625 215.015625 C 120.59375 214.597656 119.378906 213.046875 117.703125 213.015625 C 115.53125 212.976562 113.101562 215.527344 112.980469 219.367188 C 112.726562 218.796875 110.585938 214.253906 105.726562 213.226562 C 103.386719 212.730469 101.421875 213.253906 100.410156 213.613281 C 99.75 214.164062 98.871094 215.011719 98.070312 216.226562 C 97.28125 217.417969 96.855469 218.535156 96.609375 219.34375 L 84.058594 219.34375 C 83.984375 218.878906 83.378906 215.453125 80.257812 213.742188 C 77.203125 212.070312 74.109375 213.34375 73.15625 213.726562 C 69.863281 215.054688 68.46875 217.792969 68.160156 218.4375 C 67.417969 214.898438 64.941406 212.707031 62.765625 212.878906 C 62.414062 212.910156 61.28125 213.058594 60.105469 214.378906 C 58.851562 213.335938 57.601562 212.296875 56.347656 211.253906 C 50.527344 208.371094 39.691406 202.035156 30.59375 189.75 C 19.957031 175.378906 17.601562 160.835938 16.949219 154.296875 Z M 16.933594 154.289062 "/>
</clipPath>
<linearGradient id="linear-pattern-1" gradientUnits="userSpaceOnUse" x1="14.580099" y1="250.50999" x2="210.199991" y2="250.50999" gradientTransform="matrix(0.75, 0, 0, 0.75, 6, 6)">
<stop offset="0" stop-color="rgb(56.098938%, 52.198792%, 52.89917%)" stop-opacity="1"/>
<stop offset="0.00390625" stop-color="rgb(56.417847%, 52.546692%, 53.242493%)" stop-opacity="1"/>
<stop offset="0.0078125" stop-color="rgb(56.736755%, 52.896118%, 53.587341%)" stop-opacity="1"/>
<stop offset="0.0117188" stop-color="rgb(57.055664%, 53.244019%, 53.930664%)" stop-opacity="1"/>
<stop offset="0.015625" stop-color="rgb(57.374573%, 53.593445%, 54.273987%)" stop-opacity="1"/>
<stop offset="0.0195313" stop-color="rgb(57.693481%, 53.941345%, 54.61731%)" stop-opacity="1"/>
<stop offset="0.0234375" stop-color="rgb(58.01239%, 54.289246%, 54.962158%)" stop-opacity="1"/>
<stop offset="0.0273438" stop-color="rgb(58.329773%, 54.637146%, 55.305481%)" stop-opacity="1"/>
<stop offset="0.03125" stop-color="rgb(58.648682%, 54.986572%, 55.648804%)" stop-opacity="1"/>
<stop offset="0.0351562" stop-color="rgb(58.96759%, 55.334473%, 55.992126%)" stop-opacity="1"/>
<stop offset="0.0390625" stop-color="rgb(59.286499%, 55.683899%, 56.336975%)" stop-opacity="1"/>
<stop offset="0.0429688" stop-color="rgb(59.605408%, 56.031799%, 56.680298%)" stop-opacity="1"/>
<stop offset="0.046875" stop-color="rgb(59.924316%, 56.381226%, 57.023621%)" stop-opacity="1"/>
<stop offset="0.0507812" stop-color="rgb(60.243225%, 56.729126%, 57.366943%)" stop-opacity="1"/>
<stop offset="0.0546875" stop-color="rgb(60.562134%, 57.077026%, 57.711792%)" stop-opacity="1"/>
<stop offset="0.0585938" stop-color="rgb(60.881042%, 57.424927%, 58.055115%)" stop-opacity="1"/>
<stop offset="0.0625" stop-color="rgb(61.199951%, 57.774353%, 58.399963%)" stop-opacity="1"/>
<stop offset="0.0664062" stop-color="rgb(61.517334%, 58.122253%, 58.743286%)" stop-opacity="1"/>
<stop offset="0.0703125" stop-color="rgb(61.836243%, 58.47168%, 59.086609%)" stop-opacity="1"/>
<stop offset="0.0742188" stop-color="rgb(62.155151%, 58.81958%, 59.429932%)" stop-opacity="1"/>
<stop offset="0.078125" stop-color="rgb(62.47406%, 59.16748%, 59.77478%)" stop-opacity="1"/>
<stop offset="0.0820312" stop-color="rgb(62.792969%, 59.515381%, 60.118103%)" stop-opacity="1"/>
<stop offset="0.0859375" stop-color="rgb(63.111877%, 59.864807%, 60.461426%)" stop-opacity="1"/>
<stop offset="0.0898438" stop-color="rgb(63.430786%, 60.212708%, 60.804749%)" stop-opacity="1"/>
<stop offset="0.09375" stop-color="rgb(63.749695%, 60.562134%, 61.149597%)" stop-opacity="1"/>
<stop offset="0.0976562" stop-color="rgb(64.067078%, 60.910034%, 61.49292%)" stop-opacity="1"/>
<stop offset="0.101562" stop-color="rgb(64.385986%, 61.257935%, 61.836243%)" stop-opacity="1"/>
<stop offset="0.105469" stop-color="rgb(64.704895%, 61.605835%, 62.179565%)" stop-opacity="1"/>
<stop offset="0.109375" stop-color="rgb(65.023804%, 61.955261%, 62.524414%)" stop-opacity="1"/>
<stop offset="0.113281" stop-color="rgb(65.342712%, 62.303162%, 62.867737%)" stop-opacity="1"/>
<stop offset="0.117188" stop-color="rgb(65.661621%, 62.652588%, 63.21106%)" stop-opacity="1"/>
<stop offset="0.121094" stop-color="rgb(65.98053%, 63.000488%, 63.554382%)" stop-opacity="1"/>
<stop offset="0.125" stop-color="rgb(66.299438%, 63.349915%, 63.899231%)" stop-opacity="1"/>
<stop offset="0.128906" stop-color="rgb(66.618347%, 63.697815%, 64.242554%)" stop-opacity="1"/>
<stop offset="0.132812" stop-color="rgb(66.937256%, 64.045715%, 64.587402%)" stop-opacity="1"/>
<stop offset="0.136719" stop-color="rgb(67.254639%, 64.393616%, 64.930725%)" stop-opacity="1"/>
<stop offset="0.140625" stop-color="rgb(67.573547%, 64.743042%, 65.274048%)" stop-opacity="1"/>
<stop offset="0.144531" stop-color="rgb(67.892456%, 65.090942%, 65.617371%)" stop-opacity="1"/>
<stop offset="0.148438" stop-color="rgb(68.211365%, 65.440369%, 65.962219%)" stop-opacity="1"/>
<stop offset="0.152344" stop-color="rgb(68.530273%, 65.788269%, 66.305542%)" stop-opacity="1"/>
<stop offset="0.15625" stop-color="rgb(68.849182%, 66.136169%, 66.648865%)" stop-opacity="1"/>
<stop offset="0.160156" stop-color="rgb(69.168091%, 66.48407%, 66.992188%)" stop-opacity="1"/>
<stop offset="0.164062" stop-color="rgb(69.487%, 66.833496%, 67.337036%)" stop-opacity="1"/>
<stop offset="0.167969" stop-color="rgb(69.805908%, 67.181396%, 67.680359%)" stop-opacity="1"/>
<stop offset="0.171875" stop-color="rgb(70.124817%, 67.530823%, 68.023682%)" stop-opacity="1"/>
<stop offset="0.175781" stop-color="rgb(70.4422%, 67.878723%, 68.367004%)" stop-opacity="1"/>
<stop offset="0.179688" stop-color="rgb(70.761108%, 68.226624%, 68.711853%)" stop-opacity="1"/>
<stop offset="0.183594" stop-color="rgb(71.080017%, 68.574524%, 69.055176%)" stop-opacity="1"/>
<stop offset="0.1875" stop-color="rgb(71.398926%, 68.92395%, 69.398499%)" stop-opacity="1"/>
<stop offset="0.191406" stop-color="rgb(71.717834%, 69.271851%, 69.741821%)" stop-opacity="1"/>
<stop offset="0.195312" stop-color="rgb(72.036743%, 69.621277%, 70.08667%)" stop-opacity="1"/>
<stop offset="0.199219" stop-color="rgb(72.355652%, 69.969177%, 70.429993%)" stop-opacity="1"/>
<stop offset="0.203125" stop-color="rgb(72.674561%, 70.318604%, 70.774841%)" stop-opacity="1"/>
<stop offset="0.207031" stop-color="rgb(72.993469%, 70.666504%, 71.118164%)" stop-opacity="1"/>
<stop offset="0.210938" stop-color="rgb(73.312378%, 71.014404%, 71.461487%)" stop-opacity="1"/>
<stop offset="0.214844" stop-color="rgb(73.629761%, 71.362305%, 71.80481%)" stop-opacity="1"/>
<stop offset="0.21875" stop-color="rgb(73.948669%, 71.711731%, 72.149658%)" stop-opacity="1"/>
<stop offset="0.222656" stop-color="rgb(74.267578%, 72.059631%, 72.492981%)" stop-opacity="1"/>
<stop offset="0.226562" stop-color="rgb(74.586487%, 72.409058%, 72.836304%)" stop-opacity="1"/>
<stop offset="0.230469" stop-color="rgb(74.905396%, 72.756958%, 73.179626%)" stop-opacity="1"/>
<stop offset="0.234375" stop-color="rgb(75.224304%, 73.104858%, 73.524475%)" stop-opacity="1"/>
<stop offset="0.238281" stop-color="rgb(75.543213%, 73.452759%, 73.867798%)" stop-opacity="1"/>
<stop offset="0.242188" stop-color="rgb(75.862122%, 73.802185%, 74.211121%)" stop-opacity="1"/>
<stop offset="0.246094" stop-color="rgb(76.18103%, 74.150085%, 74.554443%)" stop-opacity="1"/>
<stop offset="0.25" stop-color="rgb(76.499939%, 74.499512%, 74.899292%)" stop-opacity="1"/>
<stop offset="0.253906" stop-color="rgb(76.791382%, 74.821472%, 75.213623%)" stop-opacity="1"/>
<stop offset="0.257813" stop-color="rgb(77.082825%, 75.143433%, 75.527954%)" stop-opacity="1"/>
<stop offset="0.261719" stop-color="rgb(77.374268%, 75.463867%, 75.842285%)" stop-opacity="1"/>
<stop offset="0.265625" stop-color="rgb(77.667236%, 75.785828%, 76.156616%)" stop-opacity="1"/>
<stop offset="0.269531" stop-color="rgb(77.958679%, 76.107788%, 76.470947%)" stop-opacity="1"/>
<stop offset="0.273438" stop-color="rgb(78.251648%, 76.429749%, 76.785278%)" stop-opacity="1"/>
<stop offset="0.277344" stop-color="rgb(78.543091%, 76.751709%, 77.099609%)" stop-opacity="1"/>
<stop offset="0.28125" stop-color="rgb(78.83606%, 77.073669%, 77.41394%)" stop-opacity="1"/>
<stop offset="0.285156" stop-color="rgb(79.127502%, 77.39563%, 77.728271%)" stop-opacity="1"/>
<stop offset="0.289063" stop-color="rgb(79.418945%, 77.71759%, 78.042603%)" stop-opacity="1"/>
<stop offset="0.292969" stop-color="rgb(79.710388%, 78.039551%, 78.356934%)" stop-opacity="1"/>
<stop offset="0.296875" stop-color="rgb(80.003357%, 78.361511%, 78.671265%)" stop-opacity="1"/>
<stop offset="0.300781" stop-color="rgb(80.2948%, 78.681946%, 78.985596%)" stop-opacity="1"/>
<stop offset="0.304688" stop-color="rgb(80.587769%, 79.003906%, 79.299927%)" stop-opacity="1"/>
<stop offset="0.308594" stop-color="rgb(80.879211%, 79.325867%, 79.614258%)" stop-opacity="1"/>
<stop offset="0.3125" stop-color="rgb(81.17218%, 79.647827%, 79.928589%)" stop-opacity="1"/>
<stop offset="0.316406" stop-color="rgb(81.463623%, 79.969788%, 80.24292%)" stop-opacity="1"/>
<stop offset="0.320313" stop-color="rgb(81.756592%, 80.291748%, 80.557251%)" stop-opacity="1"/>
<stop offset="0.324219" stop-color="rgb(82.048035%, 80.613708%, 80.871582%)" stop-opacity="1"/>
<stop offset="0.328125" stop-color="rgb(82.339478%, 80.935669%, 81.185913%)" stop-opacity="1"/>
<stop offset="0.332031" stop-color="rgb(82.63092%, 81.257629%, 81.500244%)" stop-opacity="1"/>
<stop offset="0.335938" stop-color="rgb(82.923889%, 81.57959%, 81.814575%)" stop-opacity="1"/>
<stop offset="0.339844" stop-color="rgb(83.215332%, 81.900024%, 82.128906%)" stop-opacity="1"/>
<stop offset="0.34375" stop-color="rgb(83.508301%, 82.221985%, 82.443237%)" stop-opacity="1"/>
<stop offset="0.347656" stop-color="rgb(83.799744%, 82.543945%, 82.757568%)" stop-opacity="1"/>
<stop offset="0.351563" stop-color="rgb(84.092712%, 82.865906%, 83.071899%)" stop-opacity="1"/>
<stop offset="0.355469" stop-color="rgb(84.384155%, 83.187866%, 83.38623%)" stop-opacity="1"/>
<stop offset="0.359375" stop-color="rgb(84.675598%, 83.509827%, 83.700562%)" stop-opacity="1"/>
<stop offset="0.363281" stop-color="rgb(84.967041%, 83.831787%, 84.014893%)" stop-opacity="1"/>
<stop offset="0.367188" stop-color="rgb(85.26001%, 84.153748%, 84.33075%)" stop-opacity="1"/>
<stop offset="0.371094" stop-color="rgb(85.551453%, 84.474182%, 84.645081%)" stop-opacity="1"/>
<stop offset="0.375" stop-color="rgb(85.844421%, 84.796143%, 84.959412%)" stop-opacity="1"/>
<stop offset="0.378906" stop-color="rgb(86.135864%, 85.118103%, 85.273743%)" stop-opacity="1"/>
<stop offset="0.382813" stop-color="rgb(86.428833%, 85.440063%, 85.588074%)" stop-opacity="1"/>
<stop offset="0.386719" stop-color="rgb(86.720276%, 85.762024%, 85.902405%)" stop-opacity="1"/>
<stop offset="0.390625" stop-color="rgb(87.013245%, 86.083984%, 86.216736%)" stop-opacity="1"/>
<stop offset="0.394531" stop-color="rgb(87.304688%, 86.405945%, 86.531067%)" stop-opacity="1"/>
<stop offset="0.398438" stop-color="rgb(87.59613%, 86.727905%, 86.845398%)" stop-opacity="1"/>
<stop offset="0.402344" stop-color="rgb(87.887573%, 87.049866%, 87.159729%)" stop-opacity="1"/>
<stop offset="0.40625" stop-color="rgb(88.180542%, 87.371826%, 87.47406%)" stop-opacity="1"/>
<stop offset="0.410156" stop-color="rgb(88.471985%, 87.692261%, 87.788391%)" stop-opacity="1"/>
<stop offset="0.414063" stop-color="rgb(88.764954%, 88.014221%, 88.102722%)" stop-opacity="1"/>
<stop offset="0.417969" stop-color="rgb(89.056396%, 88.336182%, 88.417053%)" stop-opacity="1"/>
<stop offset="0.421875" stop-color="rgb(89.349365%, 88.658142%, 88.731384%)" stop-opacity="1"/>
<stop offset="0.425781" stop-color="rgb(89.640808%, 88.980103%, 89.045715%)" stop-opacity="1"/>
<stop offset="0.429688" stop-color="rgb(89.933777%, 89.302063%, 89.360046%)" stop-opacity="1"/>
<stop offset="0.433594" stop-color="rgb(90.22522%, 89.624023%, 89.674377%)" stop-opacity="1"/>
<stop offset="0.4375" stop-color="rgb(90.516663%, 89.945984%, 89.988708%)" stop-opacity="1"/>
<stop offset="0.441406" stop-color="rgb(90.808105%, 90.267944%, 90.30304%)" stop-opacity="1"/>
<stop offset="0.445313" stop-color="rgb(91.101074%, 90.589905%, 90.617371%)" stop-opacity="1"/>
<stop offset="0.449219" stop-color="rgb(91.392517%, 90.910339%, 90.931702%)" stop-opacity="1"/>
<stop offset="0.453125" stop-color="rgb(91.685486%, 91.2323%, 91.246033%)" stop-opacity="1"/>
<stop offset="0.457031" stop-color="rgb(91.967773%, 91.543579%, 91.549683%)" stop-opacity="1"/>
<stop offset="0.460938" stop-color="rgb(92.251587%, 91.854858%, 91.854858%)" stop-opacity="1"/>
<stop offset="0.464844" stop-color="rgb(92.471313%, 92.089844%, 92.089844%)" stop-opacity="1"/>
<stop offset="0.46875" stop-color="rgb(92.692566%, 92.324829%, 92.324829%)" stop-opacity="1"/>
<stop offset="0.472656" stop-color="rgb(92.912292%, 92.558289%, 92.558289%)" stop-opacity="1"/>
<stop offset="0.476563" stop-color="rgb(93.132019%, 92.793274%, 92.793274%)" stop-opacity="1"/>
<stop offset="0.480469" stop-color="rgb(93.351746%, 93.026733%, 93.026733%)" stop-opacity="1"/>
<stop offset="0.484375" stop-color="rgb(93.572998%, 93.261719%, 93.261719%)" stop-opacity="1"/>
<stop offset="0.488281" stop-color="rgb(93.792725%, 93.495178%, 93.495178%)" stop-opacity="1"/>
<stop offset="0.492188" stop-color="rgb(94.013977%, 93.730164%, 93.730164%)" stop-opacity="1"/>
<stop offset="0.496094" stop-color="rgb(94.233704%, 93.963623%, 93.963623%)" stop-opacity="1"/>
<stop offset="0.5" stop-color="rgb(94.45343%, 94.198608%, 94.198608%)" stop-opacity="1"/>
<stop offset="0.503906" stop-color="rgb(94.673157%, 94.433594%, 94.433594%)" stop-opacity="1"/>
<stop offset="0.507812" stop-color="rgb(94.894409%, 94.668579%, 94.668579%)" stop-opacity="1"/>
<stop offset="0.511719" stop-color="rgb(95.114136%, 94.902039%, 94.902039%)" stop-opacity="1"/>
<stop offset="0.515625" stop-color="rgb(95.333862%, 95.137024%, 95.137024%)" stop-opacity="1"/>
<stop offset="0.519531" stop-color="rgb(95.553589%, 95.370483%, 95.370483%)" stop-opacity="1"/>
<stop offset="0.523438" stop-color="rgb(95.774841%, 95.605469%, 95.605469%)" stop-opacity="1"/>
<stop offset="0.527344" stop-color="rgb(95.994568%, 95.838928%, 95.838928%)" stop-opacity="1"/>
<stop offset="0.53125" stop-color="rgb(96.21582%, 96.073914%, 96.073914%)" stop-opacity="1"/>
<stop offset="0.535156" stop-color="rgb(96.435547%, 96.307373%, 96.307373%)" stop-opacity="1"/>
<stop offset="0.539062" stop-color="rgb(96.655273%, 96.542358%, 96.542358%)" stop-opacity="1"/>
<stop offset="0.542969" stop-color="rgb(96.875%, 96.777344%, 96.777344%)" stop-opacity="1"/>
<stop offset="0.546875" stop-color="rgb(97.096252%, 97.012329%, 97.012329%)" stop-opacity="1"/>
<stop offset="0.550781" stop-color="rgb(97.315979%, 97.245789%, 97.245789%)" stop-opacity="1"/>
<stop offset="0.554688" stop-color="rgb(97.535706%, 97.480774%, 97.480774%)" stop-opacity="1"/>
<stop offset="0.558594" stop-color="rgb(97.755432%, 97.714233%, 97.714233%)" stop-opacity="1"/>
<stop offset="0.5625" stop-color="rgb(97.976685%, 97.949219%, 97.949219%)" stop-opacity="1"/>
<stop offset="0.566406" stop-color="rgb(98.187256%, 98.173523%, 98.173523%)" stop-opacity="1"/>
<stop offset="0.570312" stop-color="rgb(98.399353%, 98.399353%, 98.399353%)" stop-opacity="1"/>
<stop offset="0.578125" stop-color="rgb(98.399353%, 98.399353%, 98.399353%)" stop-opacity="1"/>
<stop offset="0.59375" stop-color="rgb(98.399353%, 98.399353%, 98.399353%)" stop-opacity="1"/>
<stop offset="0.625" stop-color="rgb(98.399353%, 98.399353%, 98.399353%)" stop-opacity="1"/>
<stop offset="0.75" stop-color="rgb(98.399353%, 98.399353%, 98.399353%)" stop-opacity="1"/>
<stop offset="1" stop-color="rgb(98.399353%, 98.399353%, 98.399353%)" stop-opacity="1"/>
</linearGradient>
</defs>
<g clip-path="url(#clip-0)">
<path fill-rule="nonzero" fill="rgb(100%, 100%, 100%)" fill-opacity="1" d="M 168.554688 243.691406 L 12.039062 243.691406 C 8.714844 243.691406 6.023438 240.976562 6.023438 237.628906 L 6.023438 12.058594 C 6.023438 8.714844 8.714844 6 12.039062 6 L 168.554688 6 C 171.878906 6 174.570312 8.714844 174.570312 12.058594 L 174.570312 237.628906 C 174.570312 240.976562 171.878906 243.691406 168.554688 243.691406 Z M 168.554688 243.691406 "/>
</g>
<g clip-path="url(#clip-1)">
<g clip-path="url(#clip-2)">
<path fill-rule="nonzero" fill="url(#linear-pattern-0)" d="M 17.085938 16.042969 L 17.085938 93.742188 L 163.726562 93.742188 L 163.726562 16.042969 Z M 17.085938 16.042969 "/>
</g>
</g>
<path fill="none" stroke-width="1" stroke-linecap="round" stroke-linejoin="round" stroke="rgb(5.488586%, 5.488586%, 5.488586%)" stroke-opacity="1" stroke-miterlimit="4" d="M 210.791676 303.79168 L 14.161459 303.79168 C 14.161459 243.348969 14.161459 182.911466 14.161459 122.468755 C 14.161459 85.947921 14.161459 49.437502 14.161459 12.921876 L 210.791676 12.921876 C 210.791676 49.380211 210.791676 85.838546 210.791676 122.302089 C 210.791676 182.802091 210.791676 243.291677 210.791676 303.79168 Z M 210.791676 303.79168 " transform="matrix(0.75, 0, 0, 0.75, 6, 6)"/>
<path fill-rule="nonzero" fill="rgb(100%, 100%, 100%)" fill-opacity="1" d="M 90.277344 38.121094 C 90.226562 37.5 89.96875 35.316406 88.164062 33.464844 C 86.542969 31.800781 84.636719 31.402344 83.984375 31.289062 C 84.039062 30.636719 84.089844 29.984375 84.140625 29.332031 C 84.996094 28.933594 86.714844 27.988281 88.140625 26.078125 C 89.585938 24.136719 90 22.199219 90.136719 21.261719 C 90.472656 22.433594 91.214844 24.433594 92.910156 26.386719 C 94.214844 27.886719 95.601562 28.800781 96.5625 29.332031 C 96.613281 29.984375 96.667969 30.636719 96.71875 31.289062 C 96.253906 31.335938 93.261719 31.679688 91.460938 34.296875 C 90.40625 35.84375 90.277344 37.417969 90.261719 38.121094 Z M 90.277344 38.121094 "/>
<path fill="none" stroke-width="1" stroke-linecap="round" stroke-linejoin="round" stroke="rgb(5.488586%, 5.488586%, 5.488586%)" stroke-opacity="1" stroke-miterlimit="4" d="M 70.76042 28.901043 C 71.869795 28.578127 73.69792 28.229168 75.770837 28.729168 C 77.578129 29.16146 78.802087 30.041668 79.489587 30.562502 C 85.567712 35.119793 86.468754 38.66146 90.651046 40.260419 C 91.187504 40.468752 95.098963 41.760419 99.041671 39.921877 C 101.817713 38.619794 103.802088 35.66146 104.10938 32.447918 C 104.552088 27.84896 101.348963 23.302085 97.640629 22.468751 C 97.208338 22.369793 94.869796 21.84896 92.958338 23.281251 C 92.718754 23.458335 91.239587 24.59896 91.031254 26.609376 C 91.000004 26.91146 90.760421 29.500002 92.739588 30.760418 C 93.848963 31.458335 95.260421 31.500002 96.380213 30.979168 C 97.968754 30.250002 98.932296 28.421877 98.682296 26.458335 C 99.067713 26.890626 99.609379 27.562501 100.041671 28.479168 C 100.250005 28.921877 101.60938 31.932293 100.312505 34.81771 C 98.729171 38.338544 94.421879 38.958335 93.838546 39.041669 C 89.989587 39.588544 85.989587 37.56771 83.369795 33.937502 " transform="matrix(0.75, 0, 0, 0.75, 6, 6)"/>
<path fill="none" stroke-width="1" stroke-linecap="round" stroke-linejoin="round" stroke="rgb(5.488586%, 5.488586%, 5.488586%)" stroke-opacity="1" stroke-miterlimit="4" d="M 104.187505 30.989585 C 104.947921 30.619793 106.14063 29.947918 107.348963 28.84896 C 111.218755 25.31771 111.932297 20.421876 112.250005 18.239584 C 112.432297 17.010418 112.588547 15.182293 112.380213 12.911459 " transform="matrix(0.75, 0, 0, 0.75, 6, 6)"/>
<path fill="none" stroke-width="1" stroke-linecap="round" stroke-linejoin="round" stroke="rgb(5.488586%, 5.488586%, 5.488586%)" stroke-opacity="1" stroke-miterlimit="4" d="M 103.979171 33.59896 C 104.932296 33.770835 105.958338 34.06771 106.979171 34.588543 C 111.588547 36.937502 112.270838 41.859377 112.369797 42.708335 " transform="matrix(0.75, 0, 0, 0.75, 6, 6)"/>
<path fill="none" stroke-width="1" stroke-linecap="round" stroke-linejoin="round" stroke="rgb(5.488586%, 5.488586%, 5.488586%)" stroke-opacity="1" stroke-miterlimit="4" d="M 154.197923 28.901043 C 153.088548 28.578127 151.260423 28.229168 149.187507 28.729168 C 147.380215 29.16146 146.161465 30.041668 145.468756 30.562502 C 139.390631 35.119793 138.489589 38.66146 134.312506 40.260419 C 133.770839 40.468752 129.859381 41.760419 125.921881 39.921877 C 123.14063 38.619794 121.161464 35.66146 120.848964 32.447918 C 120.411464 27.84896 123.60938 23.302085 127.317714 22.468751 C 127.750006 22.369793 130.088547 21.84896 132.000006 23.281251 C 132.239589 23.458335 133.718756 24.59896 133.932298 26.609376 C 133.958339 26.91146 134.197923 29.500002 132.218756 30.760418 C 131.109381 31.458335 129.697922 31.500002 128.578131 30.979168 C 126.989589 30.250002 126.031256 28.421877 126.281256 26.458335 C 125.890631 26.890626 125.348964 27.562501 124.921881 28.479168 C 124.708339 28.921877 123.348964 31.932293 124.651047 34.81771 C 126.229172 38.338544 130.541672 38.958335 131.119797 39.041669 C 134.968756 39.588544 138.968756 37.56771 141.588548 33.937502 " transform="matrix(0.75, 0, 0, 0.75, 6, 6)"/>
<path fill="none" stroke-width="1" stroke-linecap="round" stroke-linejoin="round" stroke="rgb(5.488586%, 5.488586%, 5.488586%)" stroke-opacity="1" stroke-miterlimit="4" d="M 120.968755 33.59896 C 120.020839 33.770835 118.989589 34.06771 117.968755 34.588543 C 113.35938 36.937502 112.682297 41.859377 112.57813 42.708335 " transform="matrix(0.75, 0, 0, 0.75, 6, 6)"/>
<path fill="none" stroke-width="1" stroke-linecap="round" stroke-linejoin="round" stroke="rgb(5.488586%, 5.488586%, 5.488586%)" stroke-opacity="1" stroke-miterlimit="4" d="M 153.250007 38.041669 C 153.098965 38.38021 152.312507 40.13021 150.45834 40.708335 C 148.500007 41.328127 146.781256 40.187502 146.062506 39.708335 C 143.031256 37.697919 142.729173 33.869793 142.697923 33.250002 " transform="matrix(0.75, 0, 0, 0.75, 6, 6)"/>
<path fill="none" stroke-width="1" stroke-linecap="round" stroke-linejoin="round" stroke="rgb(5.488586%, 5.488586%, 5.488586%)" stroke-opacity="1" stroke-miterlimit="4" d="M 163.890632 47.260419 C 163.031257 46.770836 161.817715 46.031252 160.45834 45.041669 C 156.531257 42.182294 153.45834 39.947919 152.661465 36.312502 C 151.932298 33.000002 153.421882 30.208335 153.682298 29.739585 C 156.130215 25.31771 161.260424 24.588543 162.317715 24.468751 C 167.088549 23.932293 171.932299 26.447918 174.958341 30.84896 " transform="matrix(0.75, 0, 0, 0.75, 6, 6)"/>
<path fill="none" stroke-width="1" stroke-linecap="round" stroke-linejoin="round" stroke="rgb(5.488586%, 5.488586%, 5.488586%)" stroke-opacity="1" stroke-miterlimit="4" d="M 174.291674 54.130211 C 174.338549 43.838544 171.817716 35.760418 167.828132 33.531252 C 165.781257 32.390627 163.697924 32.359377 163.697924 32.359377 C 163.010424 32.359377 159.52084 32.41146 157.312507 35.291668 C 155.338548 37.859377 155.828132 40.802085 155.921882 41.302085 " transform="matrix(0.75, 0, 0, 0.75, 6, 6)"/>
<path fill="none" stroke-width="1" stroke-linecap="round" stroke-linejoin="round" stroke="rgb(5.488586%, 5.488586%, 5.488586%)" stroke-opacity="1" stroke-miterlimit="4" d="M 202.468759 48.932294 C 202.989592 48.671877 204.651051 47.901044 206.437509 48.359377 C 209.630217 49.171877 209.989592 53.020836 210.010426 53.302086 C 210.197926 55.750003 208.697926 58.598961 205.838551 59.619794 C 203.640634 60.401045 201.520842 59.781253 200.390634 59.447919 C 196.729175 58.380211 194.718758 55.890628 193.718758 54.630211 C 190.520842 50.552086 192.078133 48.567711 188.802092 45.671877 C 187.911466 44.880211 186.109383 43.281252 183.348966 42.859377 C 180.479175 42.41146 179.302091 43.651044 176.682299 42.921877 C 174.109383 42.197919 172.781258 40.312502 172.437508 39.781252 C 172.281258 39.541669 170.411466 36.531252 172.171883 33.500002 C 172.531258 32.869793 173.598966 31.041668 176.010424 30.510418 C 178.197924 30.041668 180.609383 30.838543 181.9323 32.41146 C 183.062508 33.750002 183.390633 35.640627 182.510425 37.140627 C 182.317716 37.468752 181.718758 38.489585 180.359383 38.901044 C 179.218758 39.239585 177.770841 39.088544 176.770841 38.291669 C 175.890633 37.578127 175.729174 36.671877 175.697924 36.401044 " transform="matrix(0.75, 0, 0, 0.75, 6, 6)"/>
<path fill="none" stroke-width="1" stroke-linecap="round" stroke-linejoin="round" stroke="rgb(5.488586%, 5.488586%, 5.488586%)" stroke-opacity="1" stroke-miterlimit="4" d="M 190.848967 48.458336 C 190.4323 43.901044 188.098967 40.151044 184.687508 38.932294 C 183.911466 38.651044 182.687508 38.369794 181.067716 38.56771 " transform="matrix(0.75, 0, 0, 0.75, 6, 6)"/>
<path fill="none" stroke-width="1" stroke-linecap="round" stroke-linejoin="round" stroke="rgb(5.488586%, 5.488586%, 5.488586%)" stroke-opacity="1" stroke-miterlimit="4" d="M 194.317717 55.531253 C 193.697925 55.369794 191.1198 54.770836 188.921883 56.208336 C 186.270841 57.947919 185.208341 61.97917 186.83855 65.802086 " transform="matrix(0.75, 0, 0, 0.75, 6, 6)"/>
<path fill="none" stroke-width="1" stroke-linecap="round" stroke-linejoin="round" stroke="rgb(5.488586%, 5.488586%, 5.488586%)" stroke-opacity="1" stroke-miterlimit="4" d="M 196.130217 69.281253 C 195.718758 69.26042 194.8698 69.270837 193.968758 69.739587 C 192.510425 70.51042 192.031258 71.921878 191.937508 72.239587 " transform="matrix(0.75, 0, 0, 0.75, 6, 6)"/>
<path fill="none" stroke-width="1" stroke-linecap="round" stroke-linejoin="round" stroke="rgb(5.488586%, 5.488586%, 5.488586%)" stroke-opacity="1" stroke-miterlimit="4" d="M 210.781259 121.031255 C 210.760426 120.89063 210.739592 120.64063 210.697926 120.348964 C 209.921884 113.500005 205.510426 81.520837 179.208341 58.187503 C 175.937508 55.291669 170.869799 51.218752 163.890632 47.260419 " transform="matrix(0.75, 0, 0, 0.75, 6, 6)"/>
<path fill-rule="nonzero" fill="rgb(0%, 0%, 0%)" fill-opacity="1" stroke-width="0.75" stroke-linecap="round" stroke-linejoin="round" stroke="rgb(0%, 0%, 0%)" stroke-opacity="1" stroke-miterlimit="4" d="M 112.369797 42.828127 C 112.302088 42.000002 111.958338 39.088544 109.552088 36.619794 C 107.39063 34.401043 104.848963 33.869793 103.979171 33.718752 C 104.052088 32.84896 104.119796 31.979168 104.187505 31.109377 C 105.32813 30.578127 107.619796 29.31771 109.520838 26.770835 C 111.447922 24.182293 112.000005 21.59896 112.182297 20.34896 C 112.630213 21.91146 113.619797 24.578126 115.880213 27.182293 C 117.619797 29.182293 119.468755 30.401043 120.750005 31.109377 C 120.817714 31.979168 120.89063 32.84896 120.958339 33.718752 C 120.338547 33.781252 116.348964 34.239585 113.947922 37.729169 C 112.541672 39.791669 112.369797 41.890627 112.348963 42.828127 Z M 112.369797 42.828127 " transform="matrix(0.75, 0, 0, 0.75, 6, 6)"/>
<path fill="none" stroke-width="1" stroke-linecap="round" stroke-linejoin="round" stroke="rgb(5.488586%, 5.488586%, 5.488586%)" stroke-opacity="1" stroke-miterlimit="4" d="M 154.197923 28.901043 C 153.088548 28.578127 151.260423 28.229168 149.187507 28.729168 C 147.380215 29.16146 146.161465 30.041668 145.468756 30.562502 C 139.390631 35.119793 138.489589 38.66146 134.312506 40.260419 C 133.770839 40.468752 129.859381 41.760419 125.921881 39.921877 C 123.14063 38.619794 121.161464 35.66146 120.848964 32.447918 C 120.411464 27.84896 123.60938 23.302085 127.317714 22.468751 C 127.750006 22.369793 130.088547 21.84896 132.000006 23.281251 C 132.239589 23.458335 133.718756 24.59896 133.932298 26.609376 C 133.958339 26.91146 134.197923 29.500002 132.218756 30.760418 C 131.109381 31.458335 129.697922 31.500002 128.578131 30.979168 C 126.989589 30.250002 126.031256 28.421877 126.281256 26.458335 C 125.890631 26.890626 125.348964 27.562501 124.921881 28.479168 C 124.708339 28.921877 123.348964 31.932293 124.651047 34.81771 C 126.229172 38.338544 130.541672 38.958335 131.119797 39.041669 C 134.968756 39.588544 138.968756 37.56771 141.588548 33.937502 " transform="matrix(0.75, 0, 0, 0.75, 6, 6)"/>
<path fill="none" stroke-width="1" stroke-linecap="round" stroke-linejoin="round" stroke="rgb(5.488586%, 5.488586%, 5.488586%)" stroke-opacity="1" stroke-miterlimit="4" d="M 120.760422 30.989585 C 119.291672 30.260418 118.260422 29.447918 117.598964 28.84896 C 113.14063 24.791668 112.708338 18.760418 112.552088 16.541668 C 112.437505 15.020834 112.500005 13.760418 112.567713 12.911459 " transform="matrix(0.75, 0, 0, 0.75, 6, 6)"/>
<path fill="none" stroke-width="1" stroke-linecap="round" stroke-linejoin="round" stroke="rgb(5.488586%, 5.488586%, 5.488586%)" stroke-opacity="1" stroke-miterlimit="4" d="M 120.968755 33.59896 C 120.020839 33.770835 118.989589 34.06771 117.968755 34.588543 C 113.35938 36.937502 112.682297 41.859377 112.57813 42.708335 " transform="matrix(0.75, 0, 0, 0.75, 6, 6)"/>
<path fill="none" stroke-width="1" stroke-linecap="round" stroke-linejoin="round" stroke="rgb(5.488586%, 5.488586%, 5.488586%)" stroke-opacity="1" stroke-miterlimit="4" d="M 153.250007 38.041669 C 153.098965 38.38021 152.312507 40.13021 150.45834 40.708335 C 148.500007 41.328127 146.781256 40.187502 146.062506 39.708335 C 143.031256 37.697919 142.729173 33.869793 142.697923 33.250002 " transform="matrix(0.75, 0, 0, 0.75, 6, 6)"/>
<path fill="none" stroke-width="1" stroke-linecap="round" stroke-linejoin="round" stroke="rgb(5.488586%, 5.488586%, 5.488586%)" stroke-opacity="1" stroke-miterlimit="4" d="M 163.890632 47.260419 C 163.031257 46.770836 161.817715 46.031252 160.45834 45.041669 C 156.531257 42.182294 153.45834 39.947919 152.661465 36.312502 C 151.932298 33.000002 153.421882 30.208335 153.682298 29.739585 C 156.130215 25.31771 161.260424 24.588543 162.317715 24.468751 C 167.088549 23.932293 171.932299 26.447918 174.958341 30.84896 " transform="matrix(0.75, 0, 0, 0.75, 6, 6)"/>
<path fill="none" stroke-width="1" stroke-linecap="round" stroke-linejoin="round" stroke="rgb(5.488586%, 5.488586%, 5.488586%)" stroke-opacity="1" stroke-miterlimit="4" d="M 174.291674 54.130211 C 174.338549 43.838544 171.817716 35.760418 167.828132 33.531252 C 165.781257 32.390627 163.697924 32.359377 163.697924 32.359377 C 163.010424 32.359377 159.52084 32.41146 157.312507 35.291668 C 155.338548 37.859377 155.828132 40.802085 155.921882 41.302085 " transform="matrix(0.75, 0, 0, 0.75, 6, 6)"/>
<path fill="none" stroke-width="1" stroke-linecap="round" stroke-linejoin="round" stroke="rgb(5.488586%, 5.488586%, 5.488586%)" stroke-opacity="1" stroke-miterlimit="4" d="M 202.468759 48.932294 C 202.989592 48.671877 204.651051 47.901044 206.437509 48.359377 C 209.630217 49.171877 209.989592 53.020836 210.010426 53.302086 C 210.197926 55.750003 208.697926 58.598961 205.838551 59.619794 C 203.640634 60.401045 201.520842 59.781253 200.390634 59.447919 C 196.729175 58.380211 194.718758 55.890628 193.718758 54.630211 C 190.520842 50.552086 192.078133 48.567711 188.802092 45.671877 C 187.911466 44.880211 186.109383 43.281252 183.348966 42.859377 C 180.479175 42.41146 179.302091 43.651044 176.682299 42.921877 C 174.109383 42.197919 172.781258 40.312502 172.437508 39.781252 C 172.281258 39.541669 170.411466 36.531252 172.171883 33.500002 C 172.531258 32.869793 173.598966 31.041668 176.010424 30.510418 C 178.197924 30.041668 180.609383 30.838543 181.9323 32.41146 C 183.062508 33.750002 183.390633 35.640627 182.510425 37.140627 C 182.317716 37.468752 181.718758 38.489585 180.359383 38.901044 C 179.218758 39.239585 177.770841 39.088544 176.770841 38.291669 C 175.890633 37.578127 175.729174 36.671877 175.697924 36.401044 " transform="matrix(0.75, 0, 0, 0.75, 6, 6)"/>
<path fill="none" stroke-width="1" stroke-linecap="round" stroke-linejoin="round" stroke="rgb(5.488586%, 5.488586%, 5.488586%)" stroke-opacity="1" stroke-miterlimit="4" d="M 190.848967 48.458336 C 190.4323 43.901044 188.098967 40.151044 184.687508 38.932294 C 183.911466 38.651044 182.687508 38.369794 181.067716 38.56771 " transform="matrix(0.75, 0, 0, 0.75, 6, 6)"/>
<path fill="none" stroke-width="1" stroke-linecap="round" stroke-linejoin="round" stroke="rgb(5.488586%, 5.488586%, 5.488586%)" stroke-opacity="1" stroke-miterlimit="4" d="M 210.651051 64.562503 C 209.010426 61.750003 206.390634 60.000003 203.781259 60.161461 C 200.552092 60.359378 198.65105 63.390628 197.828134 64.69792 C 193.208342 72.067712 198.15105 82.140629 198.911467 83.651045 " transform="matrix(0.75, 0, 0, 0.75, 6, 6)"/>
<path fill="none" stroke-width="1" stroke-linecap="round" stroke-linejoin="round" stroke="rgb(5.488586%, 5.488586%, 5.488586%)" stroke-opacity="1" stroke-miterlimit="4" d="M 210.729176 120.119797 C 208.848967 107.250005 202.739592 79.098962 179.208341 58.187503 C 174.088549 53.640628 168.859382 50.067711 163.890632 47.260419 " transform="matrix(0.75, 0, 0, 0.75, 6, 6)"/>
<g clip-path="url(#clip-3)">
<g clip-path="url(#clip-4)">
<path fill-rule="nonzero" fill="url(#linear-pattern-1)" d="M 16.933594 154.289062 L 16.933594 233.460938 L 163.648438 233.460938 L 163.648438 154.289062 Z M 16.933594 154.289062 "/>
</g>
</g>
<path fill-rule="nonzero" fill="rgb(100%, 100%, 100%)" fill-opacity="1" d="M 90.324219 211.574219 C 90.375 212.199219 90.628906 214.378906 92.4375 216.234375 C 94.058594 217.898438 95.960938 218.296875 96.613281 218.40625 C 96.5625 219.058594 96.511719 219.710938 96.457031 220.363281 C 95.601562 220.761719 93.886719 221.707031 92.460938 223.621094 C 91.011719 225.5625 90.601562 227.496094 90.464844 228.433594 C 90.128906 227.265625 89.386719 225.261719 87.691406 223.3125 C 86.386719 221.8125 84.996094 220.898438 84.039062 220.363281 C 83.984375 219.710938 83.933594 219.058594 83.878906 218.40625 C 84.34375 218.363281 87.335938 218.015625 89.136719 215.398438 C 90.195312 213.855469 90.324219 212.28125 90.335938 211.574219 Z M 90.324219 211.574219 "/>
<path fill="none" stroke-width="1" stroke-linecap="round" stroke-linejoin="round" stroke="rgb(5.488586%, 5.488586%, 5.488586%)" stroke-opacity="1" stroke-miterlimit="4" d="M 154.041673 288.020846 C 152.932298 288.338554 151.098965 288.687512 149.031257 288.187512 C 147.218756 287.760429 146.000006 286.880221 145.312506 286.359387 C 139.229173 281.802095 138.328131 278.260429 134.151048 276.66147 C 133.609381 276.447929 129.697922 275.16147 125.760422 277.000012 C 122.979172 278.302095 121.000005 281.260429 120.687505 284.468762 C 120.250005 289.067721 123.447922 293.619804 127.161464 294.447929 C 127.588547 294.552096 129.932297 295.067721 131.838547 293.640638 C 132.078131 293.458346 133.562506 292.317721 133.770839 290.312512 C 133.802089 290.010429 134.041673 287.421887 132.062506 286.161471 C 130.947922 285.458346 129.541672 285.421887 128.421881 285.937512 C 126.828131 286.671887 125.869797 288.500012 126.119797 290.458346 C 125.729172 290.031262 125.187506 289.359387 124.760422 288.437512 C 124.552089 288.000012 123.187505 284.989596 124.489589 282.09897 C 126.067714 278.578137 130.380214 277.958345 130.958339 277.88022 C 134.812506 277.328137 138.812506 279.34897 141.432298 282.979179 " transform="matrix(0.75, 0, 0, 0.75, 6, 6)"/>
<path fill="none" stroke-width="1" stroke-linecap="round" stroke-linejoin="round" stroke="rgb(5.488586%, 5.488586%, 5.488586%)" stroke-opacity="1" stroke-miterlimit="4" d="M 120.60938 285.932304 C 119.197922 286.630221 118.17188 287.421887 117.447922 288.067721 C 113.302088 291.838554 112.687505 297.328138 112.401047 299.901054 C 112.208338 301.567721 112.229172 302.94793 112.270838 303.802096 " transform="matrix(0.75, 0, 0, 0.75, 6, 6)"/>
<path fill="none" stroke-width="1" stroke-linecap="round" stroke-linejoin="round" stroke="rgb(5.488586%, 5.488586%, 5.488586%)" stroke-opacity="1" stroke-miterlimit="4" d="M 120.817714 283.328137 C 119.869797 283.16147 118.838547 282.859387 117.817714 282.338554 C 113.208338 279.989595 112.531255 275.06772 112.432297 274.218762 " transform="matrix(0.75, 0, 0, 0.75, 6, 6)"/>
<path fill="none" stroke-width="1" stroke-linecap="round" stroke-linejoin="round" stroke="rgb(5.488586%, 5.488586%, 5.488586%)" stroke-opacity="1" stroke-miterlimit="4" d="M 70.598962 288.020846 C 71.708337 288.338554 73.54167 288.687512 75.609378 288.187512 C 77.421879 287.760429 78.640629 286.880221 79.328129 286.359387 C 85.411462 281.802095 86.312504 278.260429 90.489587 276.66147 C 91.031254 276.447929 94.937504 275.16147 98.880213 277.000012 C 101.661463 278.302095 103.64063 281.260429 103.947921 284.468762 C 104.39063 289.067721 101.187505 293.619804 97.479171 294.447929 C 97.052088 294.552096 94.708338 295.067721 92.802088 293.640638 C 92.562504 293.458346 91.078129 292.317721 90.869796 290.312512 C 90.838546 290.010429 90.598962 287.421887 92.578129 286.161471 C 93.687504 285.458346 95.098963 285.421887 96.218754 285.937512 C 97.812504 286.671887 98.770838 288.500012 98.520838 290.458346 C 98.911463 290.031262 99.447921 289.359387 99.880213 288.437512 C 100.088546 288.000012 101.447921 284.989596 100.151046 282.09897 C 98.567713 278.578137 94.260421 277.958345 93.682296 277.88022 C 89.828129 277.328137 85.828129 279.34897 83.208337 282.979179 " transform="matrix(0.75, 0, 0, 0.75, 6, 6)"/>
<path fill="none" stroke-width="1" stroke-linecap="round" stroke-linejoin="round" stroke="rgb(5.488586%, 5.488586%, 5.488586%)" stroke-opacity="1" stroke-miterlimit="4" d="M 103.817713 283.328137 C 104.729171 283.187512 105.770838 282.901054 106.817713 282.338554 C 111.098963 280.078137 112.208338 275.250012 112.42188 274.218762 " transform="matrix(0.75, 0, 0, 0.75, 6, 6)"/>
<path fill="none" stroke-width="1" stroke-linecap="round" stroke-linejoin="round" stroke="rgb(5.488586%, 5.488586%, 5.488586%)" stroke-opacity="1" stroke-miterlimit="4" d="M 71.54167 278.88022 C 71.687503 278.541679 72.47917 276.791679 74.328128 276.208345 C 76.29167 275.588553 78.01042 276.729179 78.72917 277.208345 C 81.76042 279.218762 82.062504 283.052095 82.088545 283.671887 " transform="matrix(0.75, 0, 0, 0.75, 6, 6)"/>
<path fill="none" stroke-width="1" stroke-linecap="round" stroke-linejoin="round" stroke="rgb(5.488586%, 5.488586%, 5.488586%)" stroke-opacity="1" stroke-miterlimit="4" d="M 60.911461 269.66147 C 61.770836 270.151053 62.97917 270.890637 64.338545 271.88022 C 68.270837 274.739595 71.338545 276.968762 72.140628 280.609387 C 72.869795 283.921887 71.380212 286.708346 71.119795 287.182304 C 68.671878 291.598971 63.54167 292.328138 62.47917 292.447929 C 57.708336 292.989596 52.869794 290.468762 49.838544 286.067721 " transform="matrix(0.75, 0, 0, 0.75, 6, 6)"/>
<path fill="none" stroke-width="1" stroke-linecap="round" stroke-linejoin="round" stroke="rgb(5.488586%, 5.488586%, 5.488586%)" stroke-opacity="1" stroke-miterlimit="4" d="M 50.500002 262.802095 C 50.447919 273.088553 52.968753 281.171887 56.958336 283.401054 C 59.010419 284.541679 61.088545 284.567721 61.088545 284.567721 C 61.781253 284.567721 65.270836 284.520846 67.47917 281.640637 C 69.44792 279.06772 68.958337 276.13022 68.869795 275.63022 " transform="matrix(0.75, 0, 0, 0.75, 6, 6)"/>
<path fill="none" stroke-width="1" stroke-linecap="round" stroke-linejoin="round" stroke="rgb(5.488586%, 5.488586%, 5.488586%)" stroke-opacity="1" stroke-miterlimit="4" d="M 22.328126 268.000012 C 21.812501 268.260428 20.151043 269.031262 18.359376 268.56772 C 15.171876 267.760428 14.812501 263.91147 14.791668 263.63022 C 14.598959 261.182303 16.098959 258.328136 18.958334 257.312511 C 21.16146 256.531261 23.281251 257.151053 24.41146 257.479178 C 28.06771 258.552094 30.078127 261.041678 31.078127 262.302095 C 34.281252 266.38022 32.718752 268.359387 36.000002 271.260428 C 36.890627 272.052095 38.687502 273.651053 41.447919 274.06772 C 44.317711 274.520845 45.500002 273.281262 48.119794 274.010428 C 50.687502 274.729178 52.020836 276.619804 52.359378 277.151054 C 52.520836 277.390637 54.390628 280.401054 52.630211 283.432304 C 52.270836 284.062512 51.197919 285.890637 48.791669 286.421887 C 46.598961 286.890637 44.187502 286.088554 42.869794 284.520846 C 41.739585 283.182304 41.41146 281.291679 42.291669 279.791679 C 42.479169 279.458345 43.078127 278.437512 44.437502 278.031262 C 45.578127 277.687512 47.031252 277.838554 48.031252 278.640637 C 48.911461 279.34897 49.067711 280.260429 49.098961 280.531262 " transform="matrix(0.75, 0, 0, 0.75, 6, 6)"/>
<path fill="none" stroke-width="1" stroke-linecap="round" stroke-linejoin="round" stroke="rgb(5.488586%, 5.488586%, 5.488586%)" stroke-opacity="1" stroke-miterlimit="4" d="M 33.937502 268.458345 C 34.359377 273.020845 36.687502 276.770845 40.09896 277.989595 C 40.88021 278.270845 42.09896 278.552095 43.718752 278.34897 " transform="matrix(0.75, 0, 0, 0.75, 6, 6)"/>
<path fill="none" stroke-width="1" stroke-linecap="round" stroke-linejoin="round" stroke="rgb(5.488586%, 5.488586%, 5.488586%)" stroke-opacity="1" stroke-miterlimit="4" d="M 30.479168 261.390636 C 31.119793 261.552095 33.682293 262.13022 35.88021 260.708345 C 38.552085 258.968761 39.640627 254.937511 38.031252 251.098969 " transform="matrix(0.75, 0, 0, 0.75, 6, 6)"/>
<path fill="none" stroke-width="1" stroke-linecap="round" stroke-linejoin="round" stroke="rgb(5.488586%, 5.488586%, 5.488586%)" stroke-opacity="1" stroke-miterlimit="4" d="M 28.671877 247.640636 C 29.078127 247.661469 29.932293 247.651052 30.828127 247.182302 C 32.328127 246.390636 32.791668 244.921886 32.88021 244.619802 " transform="matrix(0.75, 0, 0, 0.75, 6, 6)"/>
<path fill="none" stroke-width="1" stroke-linecap="round" stroke-linejoin="round" stroke="rgb(5.488586%, 5.488586%, 5.488586%)" stroke-opacity="1" stroke-miterlimit="4" d="M 14.187501 194.859383 C 15.791668 207.739592 21.41146 237.182302 45.588544 258.729178 C 50.697919 263.281261 55.921878 266.84897 60.911461 269.66147 " transform="matrix(0.75, 0, 0, 0.75, 6, 6)"/>
<path fill-rule="nonzero" fill="rgb(0%, 0%, 0%)" fill-opacity="1" stroke-width="0.75" stroke-linecap="round" stroke-linejoin="round" stroke="rgb(0%, 0%, 0%)" stroke-opacity="1" stroke-miterlimit="4" d="M 112.432297 274.09897 C 112.500005 274.932303 112.838547 277.838554 115.250005 280.312512 C 117.411464 282.531262 119.947922 283.062512 120.817714 283.208345 C 120.750005 284.078137 120.682297 284.947929 120.60938 285.817721 C 119.989589 286.098971 119.14063 286.541679 118.229172 287.229179 C 116.182297 288.802096 115.197922 290.640637 114.338547 292.302096 C 113.588547 293.760429 112.619797 296.020846 112.119797 299.000013 C 112.10938 297.567721 111.89063 293.458346 108.911463 289.739596 C 107.218755 287.619804 105.281255 286.432304 104.041671 285.812512 C 103.968755 284.937512 103.901046 284.067721 103.82813 283.197929 C 104.447921 283.140637 108.437505 282.682304 110.838547 279.187512 C 112.250005 277.13022 112.42188 275.031262 112.437505 274.088553 Z M 112.432297 274.09897 " transform="matrix(0.75, 0, 0, 0.75, 6, 6)"/>
<path fill="none" stroke-width="1" stroke-linecap="round" stroke-linejoin="round" stroke="rgb(5.488586%, 5.488586%, 5.488586%)" stroke-opacity="1" stroke-miterlimit="4" d="M 70.598962 288.020846 C 71.708337 288.338554 73.54167 288.687512 75.609378 288.187512 C 77.421879 287.760429 78.640629 286.880221 79.328129 286.359387 C 85.411462 281.802095 86.312504 278.260429 90.489587 276.66147 C 91.031254 276.447929 94.937504 275.16147 98.880213 277.000012 C 101.661463 278.302095 103.64063 281.260429 103.947921 284.468762 C 104.39063 289.067721 101.187505 293.619804 97.479171 294.447929 C 97.052088 294.552096 94.708338 295.067721 92.802088 293.640638 C 92.562504 293.458346 91.078129 292.317721 90.869796 290.312512 C 90.838546 290.010429 90.598962 287.421887 92.578129 286.161471 C 93.687504 285.458346 95.098963 285.421887 96.218754 285.937512 C 97.812504 286.671887 98.770838 288.500012 98.520838 290.458346 C 98.911463 290.031262 99.447921 289.359387 99.880213 288.437512 C 100.088546 288.000012 101.447921 284.989596 100.151046 282.09897 C 98.567713 278.578137 94.260421 277.958345 93.682296 277.88022 C 89.828129 277.328137 85.828129 279.34897 83.208337 282.979179 " transform="matrix(0.75, 0, 0, 0.75, 6, 6)"/>
<path fill="none" stroke-width="1" stroke-linecap="round" stroke-linejoin="round" stroke="rgb(5.488586%, 5.488586%, 5.488586%)" stroke-opacity="1" stroke-miterlimit="4" d="M 104.031255 285.932304 C 104.85938 286.328137 106.020838 287.000012 107.187505 288.067721 C 109.661463 290.348971 110.552088 292.989596 111.239588 295.151054 C 112.312505 298.489596 112.42188 301.531263 112.270838 303.802096 " transform="matrix(0.75, 0, 0, 0.75, 6, 6)"/>
<path fill="none" stroke-width="1" stroke-linecap="round" stroke-linejoin="round" stroke="rgb(5.488586%, 5.488586%, 5.488586%)" stroke-opacity="1" stroke-miterlimit="4" d="M 103.817713 283.328137 C 104.729171 283.187512 105.770838 282.901054 106.817713 282.338554 C 111.14063 280.052095 112.218755 275.109387 112.42188 274.09897 " transform="matrix(0.75, 0, 0, 0.75, 6, 6)"/>
<path fill="none" stroke-width="1" stroke-linecap="round" stroke-linejoin="round" stroke="rgb(5.488586%, 5.488586%, 5.488586%)" stroke-opacity="1" stroke-miterlimit="4" d="M 71.54167 278.88022 C 71.687503 278.541679 72.47917 276.791679 74.328128 276.208345 C 76.29167 275.588553 78.01042 276.729179 78.72917 277.208345 C 81.76042 279.218762 82.062504 283.052095 82.088545 283.671887 " transform="matrix(0.75, 0, 0, 0.75, 6, 6)"/>
<path fill="none" stroke-width="1" stroke-linecap="round" stroke-linejoin="round" stroke="rgb(5.488586%, 5.488586%, 5.488586%)" stroke-opacity="1" stroke-miterlimit="4" d="M 60.911461 269.66147 C 61.770836 270.151053 62.97917 270.890637 64.338545 271.88022 C 68.270837 274.739595 71.338545 276.968762 72.140628 280.609387 C 72.869795 283.921887 71.380212 286.708346 71.119795 287.182304 C 68.671878 291.598971 63.54167 292.328138 62.47917 292.447929 C 57.708336 292.989596 52.869794 290.468762 49.838544 286.067721 " transform="matrix(0.75, 0, 0, 0.75, 6, 6)"/>
<path fill="none" stroke-width="1" stroke-linecap="round" stroke-linejoin="round" stroke="rgb(5.488586%, 5.488586%, 5.488586%)" stroke-opacity="1" stroke-miterlimit="4" d="M 50.500002 262.802095 C 50.447919 273.088553 52.968753 281.171887 56.958336 283.401054 C 59.010419 284.541679 61.088545 284.567721 61.088545 284.567721 C 61.781253 284.567721 65.270836 284.520846 67.47917 281.640637 C 69.44792 279.06772 68.958337 276.13022 68.869795 275.63022 " transform="matrix(0.75, 0, 0, 0.75, 6, 6)"/>
<path fill="none" stroke-width="1" stroke-linecap="round" stroke-linejoin="round" stroke="rgb(5.488586%, 5.488586%, 5.488586%)" stroke-opacity="1" stroke-miterlimit="4" d="M 22.328126 268.000012 C 21.812501 268.260428 20.151043 269.031262 18.359376 268.56772 C 15.171876 267.760428 14.812501 263.91147 14.791668 263.63022 C 14.598959 261.182303 16.098959 258.328136 18.958334 257.312511 C 21.16146 256.531261 23.281251 257.151053 24.41146 257.479178 C 28.06771 258.552094 30.078127 261.041678 31.078127 262.302095 C 34.281252 266.38022 32.718752 268.359387 36.000002 271.260428 C 36.890627 272.052095 38.687502 273.651053 41.447919 274.06772 C 44.317711 274.520845 45.500002 273.281262 48.119794 274.010428 C 50.687502 274.729178 52.020836 276.619804 52.359378 277.151054 C 52.520836 277.390637 54.390628 280.401054 52.630211 283.432304 C 52.270836 284.062512 51.197919 285.890637 48.791669 286.421887 C 46.598961 286.890637 44.187502 286.088554 42.869794 284.520846 C 41.739585 283.182304 41.41146 281.291679 42.291669 279.791679 C 42.479169 279.458345 43.078127 278.437512 44.437502 278.031262 C 45.578127 277.687512 47.031252 277.838554 48.031252 278.640637 C 48.911461 279.34897 49.067711 280.260429 49.098961 280.531262 " transform="matrix(0.75, 0, 0, 0.75, 6, 6)"/>
<path fill="none" stroke-width="1" stroke-linecap="round" stroke-linejoin="round" stroke="rgb(5.488586%, 5.488586%, 5.488586%)" stroke-opacity="1" stroke-miterlimit="4" d="M 33.937502 268.458345 C 34.359377 273.020845 36.687502 276.770845 40.09896 277.989595 C 40.88021 278.270845 42.09896 278.552095 43.718752 278.34897 " transform="matrix(0.75, 0, 0, 0.75, 6, 6)"/>
<path fill="none" stroke-width="1" stroke-linecap="round" stroke-linejoin="round" stroke="rgb(5.488586%, 5.488586%, 5.488586%)" stroke-opacity="1" stroke-miterlimit="4" d="M 14.250001 252.552094 C 14.369793 252.750011 17.031251 257.010428 21.010418 256.760428 C 24.229168 256.562511 26.13021 253.541678 26.958335 252.218761 C 31.56771 244.859386 26.640626 234.78126 25.88021 233.270843 " transform="matrix(0.75, 0, 0, 0.75, 6, 6)"/>
<path fill="none" stroke-width="1" stroke-linecap="round" stroke-linejoin="round" stroke="rgb(5.488586%, 5.488586%, 5.488586%)" stroke-opacity="1" stroke-miterlimit="4" d="M 30.479168 261.390636 C 31.119793 261.552095 33.682293 262.13022 35.88021 260.708345 C 38.552085 258.968761 39.640627 254.937511 38.031252 251.098969 " transform="matrix(0.75, 0, 0, 0.75, 6, 6)"/>
<path fill="none" stroke-width="1" stroke-linecap="round" stroke-linejoin="round" stroke="rgb(5.488586%, 5.488586%, 5.488586%)" stroke-opacity="1" stroke-miterlimit="4" d="M 28.671877 247.640636 C 29.078127 247.661469 29.932293 247.651052 30.828127 247.182302 C 32.328127 246.390636 32.791668 244.921886 32.88021 244.619802 " transform="matrix(0.75, 0, 0, 0.75, 6, 6)"/>
<path fill="none" stroke-width="1" stroke-linecap="round" stroke-linejoin="round" stroke="rgb(5.488586%, 5.488586%, 5.488586%)" stroke-opacity="1" stroke-miterlimit="4" d="M 14.187501 194.859383 C 15.791668 207.739592 21.41146 237.182302 45.588544 258.729178 C 50.697919 263.281261 55.921878 266.84897 60.911461 269.66147 " transform="matrix(0.75, 0, 0, 0.75, 6, 6)"/>
<path fill-rule="nonzero" fill="rgb(0%, 0%, 0%)" fill-opacity="1" d="M 130.710938 200.242188 L 130.710938 199.164062 L 137.894531 199.164062 L 137.894531 200.199219 L 137.503906 200.199219 C 137.390625 200.199219 137.265625 200.21875 137.128906 200.257812 C 136.996094 200.300781 136.882812 200.386719 136.785156 200.503906 C 136.703125 200.632812 136.65625 200.789062 136.65625 200.976562 C 136.65625 201.164062 136.703125 201.375 136.800781 201.609375 L 136.816406 201.636719 L 139.449219 208.042969 C 140.011719 208.132812 140.59375 208.183594 141.1875 208.183594 C 143.078125 208.183594 144.808594 207.734375 146.363281 206.84375 C 147.921875 205.949219 149.085938 204.734375 149.863281 203.199219 L 150.007812 202.851562 L 150.039062 202.777344 C 150.195312 202.386719 150.269531 202.027344 150.269531 201.699219 C 150.269531 201.171875 150.074219 200.773438 149.691406 200.488281 L 149.675781 200.476562 C 149.40625 200.296875 149.0625 200.203125 148.65625 200.203125 L 148.253906 200.203125 L 148.265625 199.171875 L 155.453125 199.171875 L 155.4375 200.203125 L 155.046875 200.203125 C 154.261719 200.203125 153.488281 200.484375 152.707031 201.03125 C 151.933594 201.578125 151.363281 202.261719 151.011719 203.078125 L 150.984375 203.152344 L 144.816406 218.167969 C 144.667969 218.519531 144.601562 218.863281 144.601562 219.1875 C 144.601562 219.609375 144.726562 219.953125 144.976562 220.238281 C 145.453125 220.558594 145.914062 220.726562 146.339844 220.726562 L 146.765625 220.695312 L 146.765625 221.761719 L 141.683594 221.761719 L 133.523438 201.914062 C 133.3125 201.433594 132.976562 201.03125 132.511719 200.699219 C 132.046875 200.371094 131.585938 200.203125 131.136719 200.203125 L 130.710938 200.25 Z M 141.40625 209.210938 L 139.914062 209.210938 L 143.632812 218.25 C 143.707031 218.113281 143.773438 217.980469 143.835938 217.84375 L 143.894531 217.6875 L 148.476562 206.535156 C 147.195312 207.683594 145.648438 208.476562 143.863281 208.90625 C 143.78125 208.925781 143.683594 208.949219 143.578125 208.964844 C 142.867188 209.121094 142.140625 209.203125 141.398438 209.210938 Z M 141.40625 209.210938 "/>
<path fill-rule="nonzero" fill="rgb(92.158508%, 10.978699%, 14.118958%)" fill-opacity="1" stroke-width="0.75" stroke-linecap="round" stroke-linejoin="round" stroke="rgb(0%, 0%, 0%)" stroke-opacity="1" stroke-miterlimit="4" d="M 176.968758 246.682302 C 181.411466 246.791677 182.437508 243.390635 182.671883 241.760427 C 182.911466 243.390635 183.9323 246.791677 188.3698 246.682302 C 194.208342 246.541677 194.989592 239.989594 192.947925 236.682302 C 190.911467 233.369802 189.848967 232.31251 187.812508 230.197927 C 185.890633 228.208343 183.58855 225.96876 182.739591 224.598968 C 182.739591 224.598968 182.687508 224.43751 182.671883 224.479176 C 182.640633 224.43751 182.598966 224.598968 182.598966 224.598968 C 181.750008 225.96876 179.447924 228.208343 177.531258 230.197927 C 175.489591 232.31251 174.432299 233.369802 172.390633 236.682302 C 170.348966 239.989594 171.119799 246.541677 176.968758 246.682302 Z M 176.968758 246.682302 " transform="matrix(0.75, 0, 0, 0.75, 6, 6)"/>
<path fill-rule="nonzero" fill="rgb(0%, 0%, 0%)" fill-opacity="1" d="M 49.695312 49.550781 L 49.695312 50.632812 L 42.511719 50.632812 L 42.511719 49.597656 L 42.898438 49.597656 C 43.011719 49.597656 43.140625 49.574219 43.273438 49.539062 C 43.410156 49.492188 43.523438 49.410156 43.621094 49.289062 C 43.703125 49.164062 43.746094 49.003906 43.746094 48.816406 C 43.746094 48.628906 43.703125 48.417969 43.605469 48.1875 L 43.589844 48.15625 L 40.957031 41.753906 C 40.394531 41.664062 39.808594 41.609375 39.21875 41.609375 C 37.328125 41.609375 35.59375 42.058594 34.042969 42.953125 C 32.484375 43.84375 31.320312 45.058594 30.539062 46.597656 L 30.398438 46.941406 L 30.367188 47.015625 C 30.210938 47.40625 30.136719 47.765625 30.136719 48.097656 C 30.136719 48.621094 30.328125 49.019531 30.710938 49.304688 L 30.726562 49.320312 C 30.996094 49.5 31.34375 49.589844 31.746094 49.589844 L 32.152344 49.589844 L 32.136719 50.625 L 24.953125 50.625 L 24.96875 49.589844 L 25.359375 49.589844 C 26.144531 49.589844 26.917969 49.3125 27.699219 48.765625 C 28.46875 48.21875 29.039062 47.535156 29.390625 46.71875 L 29.421875 46.640625 L 35.585938 31.628906 C 35.738281 31.273438 35.804688 30.929688 35.804688 30.609375 C 35.804688 30.1875 35.675781 29.84375 35.429688 29.558594 C 34.949219 29.234375 34.492188 29.070312 34.066406 29.070312 L 33.636719 29.101562 L 33.636719 28.035156 L 38.722656 28.035156 L 46.882812 47.878906 C 47.09375 48.359375 47.429688 48.765625 47.894531 49.09375 C 48.359375 49.425781 48.816406 49.589844 49.265625 49.589844 L 49.695312 49.542969 Z M 38.992188 40.574219 L 40.484375 40.574219 L 36.765625 31.539062 C 36.691406 31.671875 36.621094 31.808594 36.5625 31.941406 L 36.503906 32.101562 L 31.921875 43.253906 C 33.203125 42.105469 34.746094 41.308594 36.53125 40.882812 C 36.613281 40.859375 36.710938 40.835938 36.816406 40.824219 C 37.53125 40.664062 38.257812 40.582031 39 40.574219 Z M 38.992188 40.574219 "/>
<path fill-rule="nonzero" fill="rgb(92.158508%, 10.978699%, 14.118958%)" fill-opacity="1" stroke-width="0.75" stroke-linecap="round" stroke-linejoin="round" stroke="rgb(0%, 0%, 0%)" stroke-opacity="1" stroke-miterlimit="4" d="M 47.750002 70.369795 C 43.312502 70.26042 42.281252 73.661462 42.052085 75.29167 C 41.812502 73.661462 40.791669 70.26042 36.34896 70.369795 C 30.510418 70.51042 29.729168 77.057295 31.770835 80.369795 C 33.812502 83.682295 34.869793 84.739587 36.91146 86.848962 C 38.828127 88.838546 41.13021 91.078129 41.979169 92.447921 C 41.979169 92.447921 42.031252 92.609379 42.052085 92.567713 C 42.078127 92.609379 42.119794 92.447921 42.119794 92.447921 C 42.968752 91.078129 45.270836 88.838546 47.187502 86.848962 C 49.229169 84.739587 50.291669 83.682295 52.328128 80.369795 C 54.369794 77.057295 53.598961 70.51042 47.750002 70.369795 Z M 47.750002 70.369795 " transform="matrix(0.75, 0, 0, 0.75, 6, 6)"/>
<path fill-rule="nonzero" fill="rgb(92.158508%, 10.978699%, 14.118958%)" fill-opacity="1" stroke-width="0.75" stroke-linecap="round" stroke-linejoin="round" stroke="rgb(0%, 0%, 0%)" stroke-opacity="1" stroke-miterlimit="4" d="M 137.260423 103.270838 C 114.718755 102.729171 109.531255 119.937505 108.32813 128.218756 C 107.14063 119.937505 101.937505 102.718755 79.401045 103.270838 C 49.760419 103.979171 45.828127 137.197923 56.187503 153.979173 C 61.078128 161.901049 64.848961 167.270841 68.562503 171.869799 C 71.671878 175.718758 74.411462 178.750008 82.26042 186.83855 C 103.14063 208.359384 103.161463 206.989592 104.291671 209.802092 C 110.291672 224.630218 100.630213 239.869802 107.401046 243.96876 C 108.432297 244.588552 110.437505 245.317719 111.750005 244.489594 C 116.218755 241.682302 105.588546 225.348968 112.041672 210.359384 C 113.802088 206.260426 116.432297 203.208342 117.32813 203.562509 C 118.760422 204.119801 115.661463 213.182301 118.458339 214.718759 C 119.239589 215.151051 120.291672 214.880218 120.92188 214.531259 C 123.989589 212.802093 121.520839 206.640634 123.187505 200.359384 C 124.140631 196.781259 125.697922 195.90105 134.390631 186.859383 C 136.932298 184.208341 143.588548 177.458341 148.088548 171.890632 C 151.80209 167.302091 155.567715 161.921882 160.45834 154.000007 C 170.817716 137.208339 166.890632 104.000005 137.250006 103.291671 Z M 137.260423 103.270838 " transform="matrix(0.75, 0, 0, 0.75, 6, 6)"/>
<path fill-rule="nonzero" fill="rgb(67.449951%, 7.058716%, 9.01947%)" fill-opacity="1" d="M 83.085938 99.375 C 82.523438 98.0625 80.011719 92.59375 73.734375 89.804688 C 72.613281 89.308594 67.101562 87 61.671875 88.925781 C 54.585938 91.449219 49.777344 100.441406 50.984375 110.851562 C 50.953125 109.957031 50.746094 100.453125 57.789062 95.332031 C 64.703125 90.300781 75.78125 91.53125 83.085938 99.375 Z M 83.085938 99.375 "/>
<path fill-rule="nonzero" fill="rgb(67.449951%, 7.058716%, 9.01947%)" fill-opacity="1" d="M 53.960938 120.210938 C 58.597656 117.074219 64.296875 116.527344 68.632812 118.933594 C 69.234375 119.265625 73.003906 121.433594 74.429688 125.851562 C 74.730469 126.773438 75.457031 129.03125 74.835938 131.664062 C 74.113281 134.707031 72.074219 136.191406 72.652344 138.621094 C 72.898438 139.65625 73.425781 140.054688 73.589844 140.167969 C 74.371094 140.699219 75.511719 140.601562 76.265625 140.167969 C 77.804688 139.273438 78.171875 136.710938 77.917969 134.949219 C 77.683594 133.351562 77.003906 132.511719 77.28125 130.816406 C 77.316406 130.605469 77.496094 129.503906 77.917969 129.433594 C 78.148438 129.398438 79.058594 129.5625 81.441406 137.46875 C 82.835938 142.101562 84.546875 148.746094 85.824219 157.363281 C 81.824219 152.585938 78.457031 148.785156 76.140625 146.203125 C 69.808594 139.171875 66.976562 136.515625 62.175781 130.792969 C 58.492188 126.398438 55.703125 122.640625 53.960938 120.210938 Z M 53.960938 120.210938 "/>
<path fill-rule="nonzero" fill="rgb(67.449951%, 7.058716%, 9.01947%)" fill-opacity="1" d="M 89.039062 157.6875 C 91.957031 154.753906 94.90625 151.664062 97.867188 148.425781 C 104.0625 141.652344 109.605469 134.960938 114.570312 128.488281 C 108.929688 133.34375 102.757812 139.441406 96.726562 147.007812 C 93.808594 150.667969 91.261719 154.261719 89.03125 157.6875 Z M 89.039062 157.6875 "/>
<path fill-rule="nonzero" fill="rgb(67.449951%, 7.058716%, 9.01947%)" fill-opacity="1" d="M 117.007812 124.53125 C 118.296875 123.128906 120 120.988281 121.410156 118.09375 C 122.296875 116.289062 127.636719 105.300781 121.996094 96.824219 C 118.671875 91.828125 113.339844 90.414062 112.640625 90.234375 C 107.488281 88.941406 103.289062 90.667969 102.015625 91.253906 C 103.761719 91.230469 106.761719 91.410156 110.09375 92.851562 C 111.40625 93.414062 115.207031 95.109375 117.960938 99.015625 C 122.4375 105.375 120.855469 112.972656 120.195312 116.183594 C 119.429688 119.871094 118.058594 122.714844 117.015625 124.53125 Z M 117.007812 124.53125 "/>
</svg>
