<svg width="226" height="318" viewBox="0 0 226 318" fill="none" xmlns="http://www.w3.org/2000/svg">
<path d="M217.25 317.71H8.56004C4.13004 317.71 0.540039 314.09 0.540039 309.63V8.87C0.540039 4.41 4.13004 0.789978 8.56004 0.789978H217.25C221.68 0.789978 225.27 4.41 225.27 8.87V309.63C225.27 314.09 221.68 317.71 217.25 317.71Z" fill="white"/>
<path d="M210.78 117.78C210.78 83.25 210.79 48.71 210.8 14.18C145.66 14.18 80.51 14.18 15.37 14.19C15.34 48.16 15.31 82.13 15.28 116.1C18.7 100.85 25.6 78.36 38.76 66.35C48.83 57.17 53.86 52.57 57.8 50.73C59.63 49.87 65.48 47.34 70.32 41.43C71.22 40.34 71.87 39.38 72.28 38.74C72.7 39.3 74.32 41.37 76.55 41.41C79.45 41.46 82.69 38.06 82.85 32.94C83.19 33.7 86.04 39.76 92.52 41.13C95.64 41.79 98.26 41.09 99.61 40.61C100.49 39.88 101.66 38.75 102.73 37.13C103.78 35.54 104.35 34.05 104.68 32.97H121.41C121.51 33.59 122.32 38.16 126.48 40.44C130.55 42.67 134.68 40.97 135.95 40.46C140.34 38.69 142.2 35.04 142.61 34.18C143.6 38.9 146.9 41.82 149.8 41.59C150.27 41.55 151.78 41.35 153.35 39.59L158.36 43.76C160.32 44.92 163.07 46.63 166.24 48.85C169.96 51.45 182.3 60.21 191.99 72.8C204.86 89.52 209.17 107.93 210.77 117.76L210.78 117.78Z" fill="url(#paint0_linear_2_18911)"/>
<path d="M211.29 304.58H14.66C14.66 244.14 14.66 183.7 14.66 123.26C14.66 86.74 14.66 50.23 14.66 13.71H211.29C211.29 50.17 211.29 86.63 211.29 123.09C211.29 183.59 211.29 244.08 211.29 304.58Z" stroke="#0E0E0E" stroke-linecap="round" stroke-linejoin="round"/>
<path d="M112.87 43.62C112.8 42.79 112.46 39.88 110.05 37.41C107.89 35.19 105.35 34.66 104.48 34.51C104.55 33.64 104.62 32.77 104.69 31.9C105.83 31.37 108.12 30.11 110.02 27.56C111.95 24.97 112.5 22.39 112.68 21.14C113.13 22.7 114.12 25.37 116.38 27.97C118.12 29.97 119.97 31.19 121.25 31.9C121.32 32.77 121.39 33.64 121.46 34.51C120.84 34.57 116.85 35.03 114.45 38.52C113.04 40.58 112.87 42.68 112.85 43.62H112.87Z" fill="white"/>
<path d="M71.26 29.69C72.37 29.37 74.2 29.02 76.27 29.52C78.08 29.95 79.3 30.83 79.99 31.35C86.07 35.91 86.97 39.45 91.15 41.05C91.69 41.26 95.6 42.55 99.54 40.71C102.32 39.41 104.3 36.45 104.61 33.24C105.05 28.64 101.85 24.09 98.14 23.26C97.71 23.16 95.37 22.64 93.46 24.07C93.22 24.25 91.74 25.39 91.53 27.4C91.5 27.7 91.26 30.29 93.24 31.55C94.35 32.25 95.76 32.29 96.88 31.77C98.47 31.04 99.43 29.21 99.18 27.25C99.57 27.68 100.11 28.35 100.54 29.27C100.75 29.71 102.11 32.72 100.81 35.61C99.23 39.13 94.92 39.75 94.34 39.83C90.49 40.38 86.49 38.36 83.87 34.73" stroke="#0E0E0E" stroke-linecap="round" stroke-linejoin="round"/>
<path d="M104.69 31.78C105.45 31.41 106.64 30.74 107.85 29.64C111.72 26.11 112.43 21.21 112.75 19.03C112.93 17.8 113.09 15.97 112.88 13.7" stroke="#0E0E0E" stroke-linecap="round" stroke-linejoin="round"/>
<path d="M104.48 34.39C105.43 34.56 106.46 34.86 107.48 35.38C112.09 37.73 112.77 42.65 112.87 43.5" stroke="#0E0E0E" stroke-linecap="round" stroke-linejoin="round"/>
<path d="M154.7 29.69C153.59 29.37 151.76 29.02 149.69 29.52C147.88 29.95 146.66 30.83 145.97 31.35C139.89 35.91 138.99 39.45 134.81 41.05C134.27 41.26 130.36 42.55 126.42 40.71C123.64 39.41 121.66 36.45 121.35 33.24C120.91 28.64 124.11 24.09 127.82 23.26C128.25 23.16 130.59 22.64 132.5 24.07C132.74 24.25 134.22 25.39 134.43 27.4C134.46 27.7 134.7 30.29 132.72 31.55C131.61 32.25 130.2 32.29 129.08 31.77C127.49 31.04 126.53 29.21 126.78 27.25C126.39 27.68 125.85 28.35 125.42 29.27C125.21 29.71 123.85 32.72 125.15 35.61C126.73 39.13 131.04 39.75 131.62 39.83C135.47 40.38 139.47 38.36 142.09 34.73" stroke="#0E0E0E" stroke-linecap="round" stroke-linejoin="round"/>
<path d="M121.47 34.39C120.52 34.56 119.49 34.86 118.47 35.38C113.86 37.73 113.18 42.65 113.08 43.5" stroke="#0E0E0E" stroke-linecap="round" stroke-linejoin="round"/>
<path d="M153.75 38.83C153.6 39.17 152.81 40.92 150.96 41.5C149 42.12 147.28 40.98 146.56 40.5C143.53 38.49 143.23 34.66 143.2 34.04" stroke="#0E0E0E" stroke-linecap="round" stroke-linejoin="round"/>
<path d="M164.39 48.05C163.53 47.56 162.32 46.82 160.96 45.83C157.03 42.97 153.96 40.74 153.16 37.1C152.43 33.79 153.92 31 154.18 30.53C156.63 26.11 161.76 25.38 162.82 25.26C167.59 24.72 172.43 27.24 175.46 31.64" stroke="#0E0E0E" stroke-linecap="round" stroke-linejoin="round"/>
<path d="M174.79 54.92C174.84 44.63 172.32 36.55 168.33 34.32C166.28 33.18 164.2 33.15 164.2 33.15C163.51 33.15 160.02 33.2 157.81 36.08C155.84 38.65 156.33 41.59 156.42 42.09" stroke="#0E0E0E" stroke-linecap="round" stroke-linejoin="round"/>
<path d="M202.97 49.72C203.49 49.46 205.15 48.69 206.94 49.15C210.13 49.96 210.49 53.81 210.51 54.09C210.7 56.54 209.2 59.39 206.34 60.41C204.14 61.19 202.02 60.57 200.89 60.24C197.23 59.17 195.22 56.68 194.22 55.42C191.02 51.34 192.58 49.36 189.3 46.46C188.41 45.67 186.61 44.07 183.85 43.65C180.98 43.2 179.8 44.44 177.18 43.71C174.61 42.99 173.28 41.1 172.94 40.57C172.78 40.33 170.91 37.32 172.67 34.29C173.03 33.66 174.1 31.83 176.51 31.3C178.7 30.83 181.11 31.63 182.43 33.2C183.56 34.54 183.89 36.43 183.01 37.93C182.82 38.26 182.22 39.28 180.86 39.69C179.72 40.03 178.27 39.88 177.27 39.08C176.39 38.37 176.23 37.46 176.2 37.19" stroke="#0E0E0E" stroke-linecap="round" stroke-linejoin="round"/>
<path d="M191.36 49.25C190.94 44.69 188.61 40.94 185.2 39.72C184.42 39.44 183.2 39.16 181.58 39.36" stroke="#0E0E0E" stroke-linecap="round" stroke-linejoin="round"/>
<path d="M194.82 56.32C194.2 56.16 191.62 55.56 189.42 57C186.77 58.74 185.71 62.77 187.34 66.59" stroke="#0E0E0E" stroke-linecap="round" stroke-linejoin="round"/>
<path d="M196.63 70.07C196.22 70.05 195.37 70.06 194.47 70.53C193.01 71.3 192.53 72.71 192.44 73.03" stroke="#0E0E0E" stroke-linecap="round" stroke-linejoin="round"/>
<path d="M211.28 121.82C211.26 121.68 211.24 121.43 211.2 121.14C210.42 114.29 206.01 82.31 179.71 58.98C176.44 56.08 171.37 52.01 164.39 48.05" stroke="#0E0E0E" stroke-linecap="round" stroke-linejoin="round"/>
<path d="M112.87 43.62C112.8 42.79 112.46 39.88 110.05 37.41C107.89 35.19 105.35 34.66 104.48 34.51C104.55 33.64 104.62 32.77 104.69 31.9C105.83 31.37 108.12 30.11 110.02 27.56C111.95 24.97 112.5 22.39 112.68 21.14C113.13 22.7 114.12 25.37 116.38 27.97C118.12 29.97 119.97 31.19 121.25 31.9C121.32 32.77 121.39 33.64 121.46 34.51C120.84 34.57 116.85 35.03 114.45 38.52C113.04 40.58 112.87 42.68 112.85 43.62H112.87Z" fill="black" stroke="black" stroke-width="0.75" stroke-linecap="round" stroke-linejoin="round"/>
<path d="M154.7 29.69C153.59 29.37 151.76 29.02 149.69 29.52C147.88 29.95 146.66 30.83 145.97 31.35C139.89 35.91 138.99 39.45 134.81 41.05C134.27 41.26 130.36 42.55 126.42 40.71C123.64 39.41 121.66 36.45 121.35 33.24C120.91 28.64 124.11 24.09 127.82 23.26C128.25 23.16 130.59 22.64 132.5 24.07C132.74 24.25 134.22 25.39 134.43 27.4C134.46 27.7 134.7 30.29 132.72 31.55C131.61 32.25 130.2 32.29 129.08 31.77C127.49 31.04 126.53 29.21 126.78 27.25C126.39 27.68 125.85 28.35 125.42 29.27C125.21 29.71 123.85 32.72 125.15 35.61C126.73 39.13 131.04 39.75 131.62 39.83C135.47 40.38 139.47 38.36 142.09 34.73" stroke="#0E0E0E" stroke-linecap="round" stroke-linejoin="round"/>
<path d="M121.26 31.78C119.79 31.05 118.76 30.24 118.1 29.64C113.64 25.58 113.21 19.55 113.05 17.33C112.94 15.81 113 14.55 113.07 13.7" stroke="#0E0E0E" stroke-linecap="round" stroke-linejoin="round"/>
<path d="M121.47 34.39C120.52 34.56 119.49 34.86 118.47 35.38C113.86 37.73 113.18 42.65 113.08 43.5" stroke="#0E0E0E" stroke-linecap="round" stroke-linejoin="round"/>
<path d="M153.75 38.83C153.6 39.17 152.81 40.92 150.96 41.5C149 42.12 147.28 40.98 146.56 40.5C143.53 38.49 143.23 34.66 143.2 34.04" stroke="#0E0E0E" stroke-linecap="round" stroke-linejoin="round"/>
<path d="M164.39 48.05C163.53 47.56 162.32 46.82 160.96 45.83C157.03 42.97 153.96 40.74 153.16 37.1C152.43 33.79 153.92 31 154.18 30.53C156.63 26.11 161.76 25.38 162.82 25.26C167.59 24.72 172.43 27.24 175.46 31.64" stroke="#0E0E0E" stroke-linecap="round" stroke-linejoin="round"/>
<path d="M174.79 54.92C174.84 44.63 172.32 36.55 168.33 34.32C166.28 33.18 164.2 33.15 164.2 33.15C163.51 33.15 160.02 33.2 157.81 36.08C155.84 38.65 156.33 41.59 156.42 42.09" stroke="#0E0E0E" stroke-linecap="round" stroke-linejoin="round"/>
<path d="M202.97 49.72C203.49 49.46 205.15 48.69 206.94 49.15C210.13 49.96 210.49 53.81 210.51 54.09C210.7 56.54 209.2 59.39 206.34 60.41C204.14 61.19 202.02 60.57 200.89 60.24C197.23 59.17 195.22 56.68 194.22 55.42C191.02 51.34 192.58 49.36 189.3 46.46C188.41 45.67 186.61 44.07 183.85 43.65C180.98 43.2 179.8 44.44 177.18 43.71C174.61 42.99 173.28 41.1 172.94 40.57C172.78 40.33 170.91 37.32 172.67 34.29C173.03 33.66 174.1 31.83 176.51 31.3C178.7 30.83 181.11 31.63 182.43 33.2C183.56 34.54 183.89 36.43 183.01 37.93C182.82 38.26 182.22 39.28 180.86 39.69C179.72 40.03 178.27 39.88 177.27 39.08C176.39 38.37 176.23 37.46 176.2 37.19" stroke="#0E0E0E" stroke-linecap="round" stroke-linejoin="round"/>
<path d="M191.36 49.25C190.94 44.69 188.61 40.94 185.2 39.72C184.42 39.44 183.2 39.16 181.58 39.36" stroke="#0E0E0E" stroke-linecap="round" stroke-linejoin="round"/>
<path d="M211.16 65.35C209.52 62.54 206.9 60.79 204.29 60.95C201.06 61.15 199.16 64.18 198.34 65.49C193.72 72.86 198.66 82.93 199.42 84.44" stroke="#0E0E0E" stroke-linecap="round" stroke-linejoin="round"/>
<path d="M211.23 120.91C209.35 108.04 203.24 79.89 179.71 58.98C174.59 54.43 169.36 50.86 164.39 48.05" stroke="#0E0E0E" stroke-linecap="round" stroke-linejoin="round"/>
<path d="M15.0801 198.51C15.1101 233.7 15.1301 268.89 15.1601 304.07C80.3101 304.06 145.46 304.04 210.61 304.03C210.64 270.06 210.67 236.09 210.7 202.12C204.23 217.17 194.31 235.51 178.92 253.83C172.98 260.89 167 267.05 161.23 272.39C159.63 274.51 158.03 276.62 156.44 278.74C155.53 278.99 154.62 279.23 153.71 279.48C153.29 278.92 151.67 276.85 149.44 276.81C146.54 276.76 143.3 280.16 143.14 285.28C142.8 284.52 139.95 278.46 133.47 277.09C130.35 276.43 127.73 277.13 126.38 277.61C125.5 278.34 124.33 279.47 123.26 281.09C122.21 282.68 121.64 284.17 121.31 285.25H104.58C104.48 284.63 103.67 280.06 99.5101 277.78C95.4401 275.55 91.3101 277.25 90.0401 277.76C85.6501 279.53 83.7901 283.18 83.3801 284.04C82.3901 279.32 79.0901 276.4 76.1901 276.63C75.7201 276.67 74.2101 276.87 72.6401 278.63C70.9701 277.24 69.3001 275.85 67.6301 274.46C59.8701 270.62 45.4201 262.17 33.2901 245.79C19.1101 226.63 15.9701 207.24 15.1001 198.52L15.0801 198.51Z" fill="url(#paint1_linear_2_18911)"/>
<path d="M112.93 274.89C113 275.72 113.34 278.63 115.75 281.1C117.91 283.32 120.45 283.85 121.32 284C121.25 284.87 121.18 285.74 121.11 286.61C119.97 287.14 117.68 288.4 115.78 290.95C113.85 293.54 113.3 296.12 113.12 297.37C112.67 295.81 111.68 293.14 109.42 290.54C107.68 288.54 105.83 287.32 104.55 286.61C104.48 285.74 104.41 284.87 104.34 284C104.96 283.94 108.95 283.48 111.35 279.99C112.76 277.93 112.93 275.83 112.95 274.89H112.93Z" fill="white"/>
<path d="M154.54 288.81C153.43 289.13 151.6 289.48 149.53 288.98C147.72 288.55 146.5 287.67 145.81 287.15C139.73 282.59 138.83 279.05 134.65 277.45C134.11 277.24 130.2 275.95 126.26 277.79C123.48 279.09 121.5 282.05 121.19 285.26C120.75 289.86 123.95 294.41 127.66 295.24C128.09 295.34 130.43 295.86 132.34 294.43C132.58 294.25 134.06 293.11 134.27 291.1C134.3 290.8 134.54 288.21 132.56 286.95C131.45 286.25 130.04 286.21 128.92 286.73C127.33 287.46 126.37 289.29 126.62 291.25C126.23 290.82 125.69 290.15 125.26 289.23C125.05 288.79 123.69 285.78 124.99 282.89C126.57 279.37 130.88 278.75 131.46 278.67C135.31 278.12 139.31 280.14 141.93 283.77" stroke="#0E0E0E" stroke-linecap="round" stroke-linejoin="round"/>
<path d="M121.11 286.72C119.7 287.42 118.67 288.21 117.95 288.86C113.8 292.63 113.19 298.12 112.9 300.69C112.71 302.36 112.73 303.74 112.77 304.59" stroke="#0E0E0E" stroke-linecap="round" stroke-linejoin="round"/>
<path d="M121.32 284.12C120.37 283.95 119.34 283.65 118.32 283.13C113.71 280.78 113.03 275.86 112.93 275.01" stroke="#0E0E0E" stroke-linecap="round" stroke-linejoin="round"/>
<path d="M71.1001 288.81C72.2101 289.13 74.0401 289.48 76.1101 288.98C77.9201 288.55 79.1401 287.67 79.8301 287.15C85.9101 282.59 86.8101 279.05 90.9901 277.45C91.5301 277.24 95.4401 275.95 99.3801 277.79C102.16 279.09 104.14 282.05 104.45 285.26C104.89 289.86 101.69 294.41 97.9801 295.24C97.5501 295.34 95.2101 295.86 93.3001 294.43C93.0601 294.25 91.5801 293.11 91.3701 291.1C91.3401 290.8 91.1001 288.21 93.0801 286.95C94.1901 286.25 95.6001 286.21 96.7201 286.73C98.3101 287.46 99.2701 289.29 99.0201 291.25C99.4101 290.82 99.9501 290.15 100.38 289.23C100.59 288.79 101.95 285.78 100.65 282.89C99.0701 279.37 94.7601 278.75 94.1801 278.67C90.3301 278.12 86.3301 280.14 83.7101 283.77" stroke="#0E0E0E" stroke-linecap="round" stroke-linejoin="round"/>
<path d="M104.33 284.12C105.24 283.98 106.28 283.69 107.33 283.13C111.61 280.87 112.72 276.04 112.93 275.01" stroke="#0E0E0E" stroke-linecap="round" stroke-linejoin="round"/>
<path d="M72.05 279.67C72.2 279.33 72.9901 277.58 74.8401 277C76.8001 276.38 78.5201 277.52 79.2401 278C82.2701 280.01 82.5701 283.84 82.6001 284.46" stroke="#0E0E0E" stroke-linecap="round" stroke-linejoin="round"/>
<path d="M61.4101 270.45C62.2701 270.94 63.4801 271.68 64.8401 272.67C68.7701 275.53 71.8401 277.76 72.6401 281.4C73.3701 284.71 71.8801 287.5 71.6201 287.97C69.1701 292.39 64.0401 293.12 62.9801 293.24C58.2101 293.78 53.3701 291.26 50.3401 286.86" stroke="#0E0E0E" stroke-linecap="round" stroke-linejoin="round"/>
<path d="M51.01 263.59C50.96 273.88 53.48 281.96 57.47 284.19C59.52 285.33 61.6 285.36 61.6 285.36C62.29 285.36 65.78 285.31 67.99 282.43C69.96 279.86 69.47 276.92 69.38 276.42" stroke="#0E0E0E" stroke-linecap="round" stroke-linejoin="round"/>
<path d="M22.83 268.78C22.31 269.04 20.65 269.81 18.86 269.35C15.67 268.54 15.31 264.69 15.29 264.41C15.1 261.96 16.6 259.11 19.46 258.09C21.66 257.31 23.78 257.93 24.91 258.26C28.57 259.33 30.58 261.82 31.58 263.08C34.78 267.16 33.22 269.14 36.5 272.04C37.39 272.83 39.19 274.43 41.95 274.85C44.82 275.3 46 274.06 48.62 274.79C51.19 275.51 52.52 277.4 52.86 277.93C53.02 278.17 54.89 281.18 53.13 284.21C52.77 284.84 51.7 286.67 49.29 287.2C47.1 287.67 44.69 286.87 43.37 285.3C42.24 283.96 41.91 282.07 42.79 280.57C42.98 280.24 43.58 279.22 44.94 278.81C46.08 278.47 47.53 278.62 48.53 279.42C49.41 280.13 49.57 281.04 49.6 281.31" stroke="#0E0E0E" stroke-linecap="round" stroke-linejoin="round"/>
<path d="M34.4401 269.25C34.8601 273.81 37.1901 277.56 40.6001 278.78C41.3801 279.06 42.6001 279.34 44.2201 279.14" stroke="#0E0E0E" stroke-linecap="round" stroke-linejoin="round"/>
<path d="M30.9801 262.18C31.6201 262.34 34.1801 262.92 36.3801 261.5C39.0501 259.76 40.1401 255.73 38.5301 251.89" stroke="#0E0E0E" stroke-linecap="round" stroke-linejoin="round"/>
<path d="M29.17 248.43C29.58 248.45 30.43 248.44 31.33 247.97C32.83 247.18 33.29 245.71 33.38 245.41" stroke="#0E0E0E" stroke-linecap="round" stroke-linejoin="round"/>
<path d="M14.6901 195.65C16.2901 208.53 21.9101 237.97 46.0901 259.52C51.2001 264.07 56.4201 267.64 61.4101 270.45" stroke="#0E0E0E" stroke-linecap="round" stroke-linejoin="round"/>
<path d="M112.93 274.89C113 275.72 113.34 278.63 115.75 281.1C117.91 283.32 120.45 283.85 121.32 284C121.25 284.87 121.18 285.74 121.11 286.61C120.49 286.89 119.64 287.33 118.73 288.02C116.68 289.59 115.7 291.43 114.84 293.09C114.09 294.55 113.12 296.81 112.62 299.79C112.61 298.36 112.39 294.25 109.41 290.53C107.72 288.41 105.78 287.22 104.54 286.6C104.47 285.73 104.4 284.86 104.33 283.99C104.95 283.93 108.94 283.47 111.34 279.98C112.75 277.92 112.92 275.82 112.94 274.88L112.93 274.89Z" fill="black" stroke="black" stroke-width="0.75" stroke-linecap="round" stroke-linejoin="round"/>
<path d="M71.1001 288.81C72.2101 289.13 74.0401 289.48 76.1101 288.98C77.9201 288.55 79.1401 287.67 79.8301 287.15C85.9101 282.59 86.8101 279.05 90.9901 277.45C91.5301 277.24 95.4401 275.95 99.3801 277.79C102.16 279.09 104.14 282.05 104.45 285.26C104.89 289.86 101.69 294.41 97.9801 295.24C97.5501 295.34 95.2101 295.86 93.3001 294.43C93.0601 294.25 91.5801 293.11 91.3701 291.1C91.3401 290.8 91.1001 288.21 93.0801 286.95C94.1901 286.25 95.6001 286.21 96.7201 286.73C98.3101 287.46 99.2701 289.29 99.0201 291.25C99.4101 290.82 99.9501 290.15 100.38 289.23C100.59 288.79 101.95 285.78 100.65 282.89C99.0701 279.37 94.7601 278.75 94.1801 278.67C90.3301 278.12 86.3301 280.14 83.7101 283.77" stroke="#0E0E0E" stroke-linecap="round" stroke-linejoin="round"/>
<path d="M104.54 286.72C105.37 287.12 106.53 287.79 107.7 288.86C110.17 291.14 111.06 293.78 111.75 295.94C112.82 299.28 112.93 302.32 112.78 304.59" stroke="#0E0E0E" stroke-linecap="round" stroke-linejoin="round"/>
<path d="M104.33 284.12C105.24 283.98 106.28 283.69 107.33 283.13C111.65 280.84 112.73 275.9 112.93 274.89" stroke="#0E0E0E" stroke-linecap="round" stroke-linejoin="round"/>
<path d="M72.05 279.67C72.2 279.33 72.9901 277.58 74.8401 277C76.8001 276.38 78.5201 277.52 79.2401 278C82.2701 280.01 82.5701 283.84 82.6001 284.46" stroke="#0E0E0E" stroke-linecap="round" stroke-linejoin="round"/>
<path d="M61.4101 270.45C62.2701 270.94 63.4801 271.68 64.8401 272.67C68.7701 275.53 71.8401 277.76 72.6401 281.4C73.3701 284.71 71.8801 287.5 71.6201 287.97C69.1701 292.39 64.0401 293.12 62.9801 293.24C58.2101 293.78 53.3701 291.26 50.3401 286.86" stroke="#0E0E0E" stroke-linecap="round" stroke-linejoin="round"/>
<path d="M51.01 263.59C50.96 273.88 53.48 281.96 57.47 284.19C59.52 285.33 61.6 285.36 61.6 285.36C62.29 285.36 65.78 285.31 67.99 282.43C69.96 279.86 69.47 276.92 69.38 276.42" stroke="#0E0E0E" stroke-linecap="round" stroke-linejoin="round"/>
<path d="M22.83 268.78C22.31 269.04 20.65 269.81 18.86 269.35C15.67 268.54 15.31 264.69 15.29 264.41C15.1 261.96 16.6 259.11 19.46 258.09C21.66 257.31 23.78 257.93 24.91 258.26C28.57 259.33 30.58 261.82 31.58 263.08C34.78 267.16 33.22 269.14 36.5 272.04C37.39 272.83 39.19 274.43 41.95 274.85C44.82 275.3 46 274.06 48.62 274.79C51.19 275.51 52.52 277.4 52.86 277.93C53.02 278.17 54.89 281.18 53.13 284.21C52.77 284.84 51.7 286.67 49.29 287.2C47.1 287.67 44.69 286.87 43.37 285.3C42.24 283.96 41.91 282.07 42.79 280.57C42.98 280.24 43.58 279.22 44.94 278.81C46.08 278.47 47.53 278.62 48.53 279.42C49.41 280.13 49.57 281.04 49.6 281.31" stroke="#0E0E0E" stroke-linecap="round" stroke-linejoin="round"/>
<path d="M34.4401 269.25C34.8601 273.81 37.1901 277.56 40.6001 278.78C41.3801 279.06 42.6001 279.34 44.2201 279.14" stroke="#0E0E0E" stroke-linecap="round" stroke-linejoin="round"/>
<path d="M14.75 253.33C14.87 253.53 17.53 257.79 21.51 257.54C24.73 257.34 26.63 254.32 27.46 253C32.07 245.64 27.14 235.56 26.38 234.05" stroke="#0E0E0E" stroke-linecap="round" stroke-linejoin="round"/>
<path d="M30.9801 262.18C31.6201 262.34 34.1801 262.92 36.3801 261.5C39.0501 259.76 40.1401 255.73 38.5301 251.89" stroke="#0E0E0E" stroke-linecap="round" stroke-linejoin="round"/>
<path d="M29.17 248.43C29.58 248.45 30.43 248.44 31.33 247.97C32.83 247.18 33.29 245.71 33.38 245.41" stroke="#0E0E0E" stroke-linecap="round" stroke-linejoin="round"/>
<path d="M14.6901 195.65C16.2901 208.53 21.9101 237.97 46.0901 259.52C51.2001 264.07 56.4201 267.64 61.4101 270.45" stroke="#0E0E0E" stroke-linecap="round" stroke-linejoin="round"/>
<path d="M171.26 259.78H167.05V254.28H168.43V254.8C168.43 255.78 168.77 256.61 169.46 257.31C170.15 258.01 170.99 258.38 172.01 258.42H193.16C194.18 258.38 195.03 258.01 195.72 257.32C196.41 256.63 196.76 255.79 196.76 254.8V254.28H198.14V259.78H196.17C194.52 259.88 193.13 260.46 191.99 261.54C190.85 262.62 190.17 263.97 189.96 265.62L189.94 266.27V266.29L189.83 268.11L189.01 283.49V283.68C188.84 285.72 187.82 287.16 185.96 288.01C185.37 288.25 184.77 288.37 184.14 288.37H170.67V286.95L171.23 287.01C171.8 286.98 172.28 286.78 172.66 286.4C173.04 286.02 173.25 285.55 173.28 284.98V261.87C173.28 261.31 173.08 260.83 172.69 260.44C172.3 260.05 171.82 259.83 171.25 259.8L171.26 259.78ZM192.01 259.78H179.75C179.18 259.81 178.7 260.02 178.31 260.42C177.92 260.82 177.72 261.3 177.72 261.85V284.92C177.72 285.21 177.78 285.49 177.89 285.76L177.91 285.8C178.3 286.55 178.92 286.95 179.77 286.99H181.13C182.73 286.99 184.15 286.21 185.39 284.64C186.62 283.07 187.42 281.05 187.76 278.56L188.55 266.2C188.55 265.85 188.58 265.51 188.63 265.17C188.64 265.1 188.66 265.03 188.67 264.96C188.68 264.89 188.7 264.81 188.71 264.73C188.72 264.66 188.74 264.59 188.75 264.52C188.76 264.46 188.78 264.4 188.79 264.33C188.8 264.27 188.82 264.22 188.83 264.16C188.84 264.1 188.86 264.05 188.87 263.99C188.88 263.93 188.9 263.89 188.93 263.84C188.94 263.78 188.96 263.73 188.97 263.67C189 263.61 189.02 263.56 189.03 263.5C189.04 263.46 189.07 263.41 189.09 263.35C189.1 263.29 189.13 263.24 189.15 263.18C189.18 263.14 189.2 263.09 189.21 263.03C189.24 262.97 189.27 262.93 189.29 262.88C189.3 262.82 189.33 262.78 189.35 262.73C189.38 262.67 189.41 262.62 189.43 262.56C189.46 262.52 189.49 262.47 189.51 262.41C189.52 262.37 189.55 262.32 189.57 262.26C189.61 262.22 189.65 262.18 189.67 262.13C189.7 262.07 189.73 262.03 189.75 261.98C189.78 261.92 189.81 261.88 189.83 261.83C189.86 261.79 189.89 261.75 189.93 261.71C189.96 261.65 189.99 261.61 190.01 261.56C190.05 261.52 190.09 261.48 190.12 261.43C190.16 261.39 190.2 261.34 190.22 261.28C190.26 261.24 190.3 261.2 190.32 261.16C190.36 261.12 190.4 261.08 190.42 261.03L190.54 260.91C190.54 260.91 190.6 260.83 190.65 260.78C190.69 260.75 190.73 260.72 190.77 260.68C190.81 260.64 190.85 260.6 190.87 260.56C190.91 260.52 190.95 260.48 191 260.46L191.12 260.33C191.12 260.33 191.2 260.27 191.25 260.23C191.29 260.2 191.33 260.17 191.37 260.13C191.41 260.09 191.46 260.05 191.52 260.03C191.56 260 191.6 259.97 191.65 259.93C191.69 259.9 191.74 259.87 191.8 259.83C191.84 259.8 191.88 259.77 191.92 259.75L192.01 259.78Z" fill="black"/>
<path d="M177.47 247.47C181.91 247.58 182.94 244.18 183.17 242.55C183.41 244.18 184.43 247.58 188.87 247.47C194.71 247.33 195.49 240.78 193.45 237.47C191.41 234.16 190.35 233.1 188.31 230.99C186.39 229 184.09 226.76 183.24 225.39C183.24 225.39 183.19 225.23 183.17 225.27C183.14 225.23 183.1 225.39 183.1 225.39C182.25 226.76 179.95 229 178.03 230.99C175.99 233.1 174.93 234.16 172.89 237.47C170.85 240.78 171.62 247.33 177.47 247.47Z" fill="#EB1C24" stroke="black" stroke-width="0.75" stroke-linecap="round" stroke-linejoin="round"/>
<path d="M54.4601 58.86H58.6701V64.36H57.2901V63.84C57.2901 62.86 56.9501 62.03 56.2601 61.33C55.5701 60.63 54.7301 60.26 53.7101 60.22H32.5601C31.5401 60.26 30.6901 60.63 30.0001 61.32C29.3101 62.01 28.9601 62.85 28.9601 63.84V64.36H27.5801V58.86H29.5501C31.2001 58.76 32.5901 58.18 33.7301 57.1C34.8701 56.02 35.5501 54.67 35.7601 53.02L35.7801 52.37V52.35L35.8901 50.53L36.7101 35.15V34.96C36.8801 32.92 37.9001 31.48 39.7601 30.63C40.3501 30.39 40.9501 30.27 41.5801 30.27H55.0501V31.69L54.4901 31.63C53.9201 31.66 53.4401 31.86 53.0601 32.24C52.6801 32.62 52.4701 33.09 52.4401 33.66V56.77C52.4401 57.33 52.6401 57.81 53.0301 58.2C53.4201 58.59 53.9001 58.81 54.4701 58.84L54.4601 58.86ZM33.7101 58.86H45.9701C46.5401 58.83 47.0201 58.62 47.4101 58.22C47.8001 57.82 48.0001 57.34 48.0001 56.79V33.72C48.0001 33.43 47.9401 33.15 47.8301 32.88L47.8101 32.84C47.4201 32.09 46.8001 31.69 45.9501 31.65H44.5901C42.9901 31.65 41.5701 32.43 40.3301 34C39.1001 35.57 38.3001 37.59 37.9601 40.08L37.1701 52.44C37.1701 52.79 37.1401 53.13 37.0901 53.47C37.0801 53.54 37.0601 53.61 37.0501 53.68C37.0401 53.75 37.0201 53.83 37.0101 53.91C37.0001 53.98 36.9801 54.05 36.9701 54.12C36.9601 54.18 36.9401 54.24 36.9301 54.31C36.9201 54.37 36.9001 54.42 36.8901 54.48C36.8801 54.54 36.8601 54.59 36.8501 54.65C36.8401 54.71 36.8201 54.75 36.7901 54.8C36.7801 54.86 36.7601 54.91 36.7501 54.97C36.7201 55.03 36.7001 55.08 36.6901 55.14C36.6801 55.18 36.6501 55.23 36.6301 55.29C36.6201 55.35 36.5901 55.4 36.5701 55.46C36.5401 55.5 36.5201 55.55 36.5101 55.61C36.4801 55.67 36.4501 55.71 36.4301 55.76C36.4201 55.82 36.3901 55.86 36.3701 55.91C36.3401 55.97 36.3101 56.02 36.2901 56.08C36.2601 56.12 36.2301 56.17 36.2101 56.23C36.2001 56.27 36.1701 56.32 36.1501 56.38C36.1101 56.42 36.0701 56.46 36.0501 56.51C36.0201 56.57 35.9901 56.61 35.9701 56.66C35.9401 56.72 35.9101 56.76 35.8901 56.81C35.8601 56.85 35.8301 56.89 35.7901 56.93C35.7601 56.99 35.7301 57.03 35.7101 57.08C35.6701 57.12 35.6301 57.16 35.6001 57.21C35.5601 57.25 35.5201 57.3 35.5001 57.36C35.4601 57.4 35.4201 57.44 35.4001 57.48C35.3601 57.52 35.3201 57.56 35.3001 57.61L35.1801 57.73C35.1801 57.73 35.1201 57.81 35.0701 57.86C35.0301 57.89 34.9901 57.92 34.9501 57.96C34.9101 58 34.8701 58.04 34.8501 58.08C34.8101 58.12 34.7701 58.16 34.7201 58.18L34.6001 58.31C34.6001 58.31 34.5201 58.37 34.4701 58.41C34.4301 58.44 34.3901 58.47 34.3501 58.51C34.3101 58.55 34.2601 58.59 34.2001 58.61C34.1601 58.64 34.1201 58.67 34.0701 58.71C34.0301 58.74 33.9801 58.77 33.9201 58.81C33.8801 58.84 33.8401 58.87 33.8001 58.89L33.7101 58.86Z" fill="black"/>
<path d="M48.2501 71.16C43.8101 71.05 42.78 74.45 42.55 76.08C42.31 74.45 41.2901 71.05 36.8501 71.16C31.0101 71.3 30.23 77.85 32.27 81.16C34.31 84.47 35.3701 85.53 37.4101 87.64C39.3301 89.63 41.6301 91.87 42.4801 93.24C42.4801 93.24 42.53 93.4 42.55 93.36C42.58 93.4 42.62 93.24 42.62 93.24C43.47 91.87 45.7701 89.63 47.6901 87.64C49.7301 85.53 50.79 84.47 52.83 81.16C54.87 77.85 54.1001 71.3 48.2501 71.16Z" fill="#EB1C24" stroke="black" stroke-width="0.75" stroke-linecap="round" stroke-linejoin="round"/>
<path d="M87.55 249.16C89.67 249.67 92.06 250.67 93.9 252.69C95.59 254.53 95.92 256.23 97.73 260.91C98.47 262.82 99.5 265.34 100.85 268.28C104.91 265.35 107.23 264.17 107.79 264.74C108.06 265.01 107.93 265.69 107.39 266.78C112.63 264.76 115.57 264.24 116.2 265.22C116.49 265.67 116.3 266.44 115.61 267.54C115.78 267.36 116.16 266.89 116.26 266.18C116.32 265.77 116.26 265.44 116.2 265.22C115.78 263.35 115.36 261.47 114.94 259.6C115.22 260.87 115.51 262.15 115.79 263.42C116.07 263 116.53 262.45 117.25 262.12C118.74 261.45 120.22 262.27 123.63 263.47C124.62 263.82 126.04 264.3 127.79 264.79C126.61 261.87 125.13 258.68 123.25 255.34C120.21 249.93 116.92 245.52 113.93 242.05C105.13 244.42 96.34 246.79 87.54 249.16H87.55Z" fill="black"/>
<path d="M116.2 265.22C115.57 264.24 112.63 264.76 107.39 266.78C107.93 265.69 108.06 265.01 107.79 264.74C107.23 264.17 104.91 265.35 100.85 268.28C99.5 265.34 98.47 262.82 97.73 260.91C95.92 256.23 95.59 254.53 93.9 252.69C92.06 250.67 89.67 249.67 87.55 249.16H87.54C96.34 246.79 105.13 244.42 113.93 242.05C116.92 245.52 120.21 249.93 123.25 255.34C125.13 258.68 126.61 261.87 127.79 264.79C126.04 264.3 124.62 263.82 123.63 263.47C120.22 262.27 118.74 261.45 117.25 262.12C116.53 262.45 116.07 263 115.79 263.42C115.51 262.15 115.22 260.87 114.94 259.6C115.36 261.47 115.78 263.35 116.2 265.22ZM116.2 265.22C116.49 265.67 116.3 266.44 115.61 267.54C115.78 267.36 116.16 266.89 116.26 266.18C116.32 265.77 116.26 265.44 116.2 265.22Z" stroke="black" stroke-width="0.75" stroke-linecap="round" stroke-linejoin="round"/>
<path d="M55.11 161.54C55.36 160.73 55.62 159.92 55.87 159.11C57.07 158.14 58.58 156.6 59.33 154.37C60.23 151.7 59.14 150.76 59.41 146.75C59.63 143.57 60.56 140.69 61.53 137.7C62.55 134.56 63.28 133.22 62.68 132.68C61.96 132.02 59.67 132.87 58.38 134.39C58.31 134.47 58.24 134.56 58.17 134.65C57.08 136.23 56.97 137.76 56.69 139.98C56.58 140.83 56.4 142.08 56.09 143.64" stroke="black" stroke-width="0.75" stroke-linecap="round" stroke-linejoin="round"/>
<path d="M45.02 158.66C42.17 151.63 41.07 146.31 41.31 145.94C41.62 145.45 42.03 145.02 42.03 145.02C42.73 144.66 43.48 144.31 44.28 143.97C46.68 142.97 48.94 142.36 50.91 142C51.82 142.1 53.07 142.33 54.46 142.92C55.74 143.46 56.72 144.12 57.41 144.66C57.26 146.74 57.11 148.83 56.96 150.91C56.59 150.91 56.3 150.85 56.07 150.75C54.79 150.22 54.09 148.4 54.19 146.2C53.11 146.13 52.02 146.07 50.94 146C50.23 147.08 49.53 148.16 48.82 149.23C49.71 149.99 50.97 151.16 52.34 152.73C53.95 154.59 54.8 155.57 55.24 156.88C56.25 159.92 54.51 163.07 53.63 164.43" stroke="black" stroke-width="0.75" stroke-linecap="round" stroke-linejoin="round"/>
<path d="M59.0701 126.53C60.1501 124.22 59.9801 122.08 58.9001 121.31C58.6801 121.15 58.2701 120.94 57.5701 120.98C56.8301 123.21 56.0801 125.43 55.3401 127.66" stroke="black" stroke-width="0.75" stroke-linecap="round" stroke-linejoin="round"/>
<path d="M57.2 131.7C56.54 133.63 55.88 135.57 55.23 137.5" stroke="black" stroke-width="0.75" stroke-linecap="round" stroke-linejoin="round"/>
<path d="M44.5701 157.49C50.5101 179.47 55.2401 195.7 57.1001 201.36C57.4201 202.34 58.0901 205.07 60.4601 207.08C60.6901 207.27 64.2101 210.2 68.0601 209.38C70.2701 208.91 71.8901 207.34 76.8501 198.63C78.5701 195.6 80.5601 191.95 82.6801 187.73" stroke="black" stroke-width="0.75" stroke-linecap="round" stroke-linejoin="round"/>
<path d="M56.53 140.96C57.31 132.95 59.88 128.66 62.2 126.21C63.16 125.2 64.81 123.72 66.58 121.07C68.45 118.26 69.48 115.62 70.06 113.77" stroke="black" stroke-width="0.75" stroke-linecap="round" stroke-linejoin="round"/>
<path d="M41.96 143.1C42.67 141.9 43.4 140.68 44.17 139.46C46.48 135.78 48.85 132.37 51.22 129.24C55.26 127.99 59.29 126.74 63.33 125.48C63.62 125.91 63.73 126.3 63.74 126.64C63.8 130.11 53.56 132.59 53.06 132.7C52.55 133.55 52.04 134.4 51.53 135.25" fill="white"/>
<path d="M41.96 143.1C42.67 141.9 43.4 140.68 44.17 139.46C46.48 135.78 48.85 132.37 51.22 129.24C55.26 127.99 59.29 126.74 63.33 125.48C63.62 125.91 63.73 126.3 63.74 126.64C63.8 130.11 53.56 132.59 53.06 132.7C52.55 133.55 52.04 134.4 51.53 135.25" stroke="black" stroke-width="0.75" stroke-linecap="round" stroke-linejoin="round"/>
<path d="M42.03 145.01C42.01 144.37 41.98 143.74 41.96 143.1C46.33 139.39 49.62 136.7 50.79 135.82C50.95 135.7 51.39 135.37 52.06 135.22C52.16 135.2 53.61 134.88 54.51 135.65C55.12 136.17 55.16 136.93 55.29 137.95C55.44 139.07 55.71 140.63 56.28 142.52" stroke="black" stroke-width="0.75" stroke-linecap="round" stroke-linejoin="round"/>
<path d="M52.66 142.31C52.77 141.53 52.87 140.74 52.98 139.96" stroke="black" stroke-width="0.75" stroke-linecap="round" stroke-linejoin="round"/>
<path d="M77.26 101.31C77.21 100.94 77.07 100.59 76.87 100.29C79.01 99.36 79.6 101.56 80.51 102.94C80.76 103.32 81.08 103.6 81.42 103.89C81.82 104.23 82.23 104.53 82.45 105.02C82.64 105.46 82.84 106.75 82.1 106.88C81.65 106.33 81.06 105.9 80.41 105.66C80.43 104.86 80.03 104.07 79.3 103.63C79.36 103.34 79.39 103.03 79.35 102.7C79.35 102.63 79.27 102.62 79.22 102.65C79.21 102.12 78.65 101.52 78.19 101.33C77.86 101.19 77.52 101.22 77.26 101.35C77.26 101.34 77.26 101.33 77.26 101.31Z" fill="#EB1C24"/>
<path d="M79.2101 103.93C80.7801 105.32 79.94 106.98 78.3 107.8C77.48 108.21 76.68 108.54 76.08 109.24C75.95 109.21 75.8101 109.18 75.6801 109.16C75.6801 109.16 75.6901 109.14 75.6901 109.13C76.0801 107.05 78.5601 105.85 79.2001 103.93H79.2101Z" fill="#EB1C24"/>
<path d="M77.0901 102.09C77.0701 101.32 77.9601 101.39 78.3801 101.72C78.6901 101.96 79.2101 102.56 78.8701 102.95C78.8701 102.26 77.5301 101.67 77.5001 102.38C77.5001 102.47 77.6401 102.5 77.6601 102.41C77.7501 101.99 78.5701 102.71 78.5601 102.84C78.5501 103.26 78.2401 103.19 78.0301 103.11C77.6201 102.96 77.1001 102.55 77.0901 102.09Z" fill="#8E0E08"/>
<path d="M74.41 103.77C74.79 103.35 76.12 101.85 76.75 102.35C76.78 102.37 76.81 102.37 76.84 102.36C76.86 102.42 76.89 102.49 76.92 102.55C77.14 102.96 78.33 103.87 78.74 103.29C78.76 103.29 78.79 103.29 78.81 103.28C78.96 103.19 79.06 103.09 79.12 102.97C78.67 105.46 75.84 106.53 75.37 109.02C75.37 109.05 75.37 109.07 75.37 109.1C74.98 109.04 74.6 109.02 74.23 109.07C74.02 109.1 73.82 109.14 73.63 109.19C74.84 107.65 74.38 105.7 74.3 103.81C74.33 103.81 74.37 103.8 74.4 103.77H74.41Z" fill="#EB1C24"/>
<path d="M73 109.85C73.98 109.44 75.07 109.34 76.32 109.64C77.79 110 79.56 110.47 80.71 109.18C80.85 109.02 80.64 108.78 80.48 108.94C79.28 110.11 77.77 109.63 76.28 109.29C77.47 108.32 79.35 108.1 80.12 106.68C80.26 106.42 80.34 106.15 80.38 105.88C81.47 106.52 82.58 107.64 82.54 108.98C82.53 109.54 82.35 110.13 81.99 110.57C81.32 111.38 80.43 110.94 79.59 110.75C79.53 110.73 79.47 110.75 79.44 110.79C79.39 110.77 79.31 110.79 79.29 110.86C79.04 111.6 78.33 111.91 77.6 111.69C76.93 111.49 76.53 110.95 76.07 110.46C75.96 110.35 75.75 110.48 75.83 110.62C75.87 110.69 75.92 110.76 75.97 110.82C75.85 111.35 75.02 111.31 74.65 111.1C74.32 110.91 74.06 110.61 73.78 110.36C73.54 110.15 73.29 109.96 73 109.85Z" fill="#EB1C24"/>
<path d="M70.64 111.6C71.25 110.94 71.9 110.41 72.6 110.04C73.58 110.28 74.06 111.45 75.08 111.56C75.46 111.6 75.99 111.4 76.13 111.03C76.35 111.29 76.6 111.52 76.89 111.71C75.9 111.96 75.2 112.51 74.45 113.19C73.9 113.69 73.33 113.98 72.59 113.94C72.57 113.94 72.55 113.92 72.53 113.91C72.47 113.88 72.41 113.89 72.37 113.91C71.84 113.82 71 113.48 70.6 112.96C70.6 112.95 70.6 112.93 70.58 112.92L70.56 112.9C70.33 112.56 70.3 112.15 70.64 111.69C70.67 111.65 70.66 111.61 70.64 111.58V111.6Z" fill="#EB1C24"/>
<path d="M72.1401 101.53C72.4401 101.09 72.8501 100.88 73.3801 100.89C73.4801 100.89 73.5801 100.89 73.6801 100.88C74.0301 100.67 73.9101 100.49 74.2501 100.14C75.3701 99 76.6901 100.26 77.0701 101.35C77.0801 101.39 77.1101 101.41 77.1401 101.41C76.9201 101.57 76.7801 101.81 76.7901 102.1C76.0301 101.62 74.7901 102.9 74.2901 103.47C74.2801 102.61 74.3701 101.78 74.7601 101C74.8301 100.86 74.6501 100.75 74.5601 100.87C72.8201 103.38 75.2001 106.68 73.4101 109.15C72.4501 108.22 71.5101 106.41 72.6001 105.28C72.6001 105.28 72.6001 105.29 72.6101 105.3C72.7201 105.47 73.0101 105.33 72.9001 105.15C72.5801 104.66 72.2401 104.15 72.0301 103.59C72.1201 103.49 72.0501 103.37 71.9501 103.33C71.9201 103.21 71.8901 103.09 71.8701 102.97C71.8001 102.49 71.8501 101.93 72.1201 101.51L72.1401 101.53Z" fill="#EB1C24"/>
<path d="M68.15 107.82C68.53 105.93 70.36 104.92 71.78 103.82C71.97 104.27 72.22 104.69 72.49 105.1C71.2 106.12 72.01 108.43 73.15 109.36C71.94 109.82 70.9101 110.74 70.2301 111.83C70.2101 111.86 70.2201 111.89 70.2301 111.92C70.1301 112.1 70.0901 112.28 70.1001 112.47C68.8801 111.21 67.7701 109.66 68.1401 107.83L68.15 107.82Z" fill="#EB1C24"/>
<path d="M59.84 108.64C59.68 108.6 59.72 108.39 59.85 108.35C62.7 107.43 65.9 108.08 68.07 110.15C67.8 109.5 67.67 108.81 67.75 108.06C67.98 105.87 70.06 104.68 71.66 103.47C71.53 103.05 71.47 102.61 71.55 102.15C71.64 101.67 71.87 101.22 72.26 100.91C72.69 100.58 72.97 100.71 73.39 100.55C73.79 100.4 73.9 99.95 74.25 99.7C74.62 99.45 75.1 99.33 75.55 99.4C76 99.47 76.38 99.69 76.66 100.01C77.52 99.6 78.51 99.64 79.26 100.25C80.34 101.13 80.51 102.66 81.59 103.59C82.34 104.23 82.98 104.83 82.93 105.9C82.91 106.37 82.74 107.07 82.19 107C82.73 107.72 83.02 108.62 82.84 109.53C82.72 110.13 82.4 110.82 81.89 111.19C81.21 111.68 80.22 111.26 79.5 111.05C79.5 111.05 79.5 111.05 79.49 111.05C79.35 111.72 78.66 112.12 77.98 112.09C77.69 112.08 77.41 111.99 77.16 111.87C77.16 111.91 77.13 111.95 77.08 111.97C76.37 112.23 75.77 112.49 75.19 112.99C74.84 113.29 74.55 113.66 74.16 113.91C73.86 114.1 73.53 114.23 73.18 114.28C74.25 114.92 75.16 115.81 75.85 116.85C76.33 117.58 77.39 119.25 76.85 120.15C76.81 120.23 76.68 120.17 76.57 120.14C76.01 119.98 75.74 119.33 75.68 119.19C75.01 117.71 71.73 117.29 70.57 115.01C70.35 114.59 70.11 113.89 70.17 112.84C69.96 114.19 69.41 114.85 69 115.19C67.95 116.05 66.79 115.68 64.17 116.13C63.39 116.27 62.53 116.13 61.82 116.5C61.81 116.5 61.75 116.53 61.7 116.52C61.58 116.49 61.54 116.3 61.67 116.21C62.52 115.63 63.16 115.09 63.74 114.24C63.98 113.89 64.2 113.53 64.51 113.22C64.95 112.79 65.48 112.5 66.06 112.41C65.89 112.33 65.72 112.25 65.56 112.16C63.56 111.06 62.15 109.16 59.84 108.63V108.64ZM68.21 110.68C66.18 108.62 63.22 107.75 60.44 108.48C63.59 109.49 65.92 113.74 69.54 112.24C69.08 111.78 68.67 111.27 68.35 110.71C68.3 110.72 68.25 110.71 68.21 110.68ZM73.37 100.89C72.84 100.88 72.43 101.09 72.13 101.53C71.85 101.94 71.8 102.51 71.88 102.99C71.9 103.11 71.93 103.23 71.96 103.35C72.06 103.39 72.13 103.51 72.04 103.61C72.25 104.17 72.59 104.68 72.91 105.17C73.03 105.35 72.74 105.49 72.62 105.32C72.62 105.32 72.62 105.31 72.61 105.3C71.52 106.43 72.46 108.24 73.42 109.17C75.21 106.7 72.83 103.39 74.57 100.89C74.66 100.76 74.84 100.88 74.77 101.02C74.38 101.79 74.29 102.63 74.3 103.49C74.8 102.92 76.03 101.64 76.8 102.12C76.8 101.83 76.93 101.59 77.15 101.43C77.12 101.43 77.1 101.4 77.08 101.37C76.7 100.28 75.38 99.02 74.26 100.16C73.92 100.5 74.04 100.69 73.69 100.9C73.59 100.9 73.49 100.91 73.39 100.91L73.37 100.89ZM71.78 103.82C70.36 104.92 68.53 105.93 68.15 107.82C67.78 109.65 68.89 111.2 70.11 112.46C70.1 112.28 70.13 112.09 70.24 111.91C70.22 111.88 70.22 111.85 70.24 111.82C70.91 110.73 71.95 109.81 73.16 109.35C72.01 108.43 71.2 106.11 72.5 105.09C72.24 104.69 71.98 104.26 71.79 103.81L71.78 103.82ZM76.75 102.35C76.12 101.85 74.79 103.36 74.41 103.77C74.38 103.8 74.34 103.82 74.31 103.81C74.39 105.7 74.85 107.64 73.64 109.19C73.84 109.14 74.04 109.1 74.24 109.07C74.61 109.03 74.99 109.05 75.38 109.1C75.38 109.08 75.38 109.05 75.38 109.02C75.85 106.52 78.68 105.46 79.13 102.97C79.07 103.08 78.97 103.19 78.82 103.28C78.79 103.29 78.77 103.3 78.75 103.29C78.33 103.87 77.15 102.96 76.93 102.55C76.89 102.48 76.87 102.42 76.85 102.36C76.82 102.37 76.79 102.37 76.76 102.35H76.75ZM76.87 100.29C77.07 100.59 77.2 100.95 77.26 101.31C77.26 101.32 77.26 101.34 77.26 101.35C77.52 101.22 77.86 101.19 78.19 101.33C78.65 101.52 79.21 102.12 79.22 102.65C79.27 102.62 79.34 102.62 79.35 102.7C79.38 103.03 79.36 103.34 79.3 103.63C80.03 104.07 80.43 104.85 80.41 105.66C81.06 105.9 81.66 106.33 82.1 106.88C82.83 106.76 82.64 105.46 82.45 105.02C82.23 104.52 81.82 104.23 81.42 103.89C81.08 103.6 80.76 103.32 80.51 102.94C79.6 101.57 79.01 99.37 76.87 100.29ZM78.38 101.71C77.96 101.38 77.07 101.32 77.09 102.08C77.1 102.54 77.63 102.95 78.03 103.1C78.24 103.18 78.55 103.25 78.56 102.83C78.56 102.7 77.75 101.98 77.66 102.4C77.64 102.49 77.5 102.46 77.5 102.37C77.53 101.65 78.88 102.24 78.87 102.94C79.21 102.55 78.69 101.95 78.38 101.71ZM66.7 112.72C65.27 112.6 64.57 113.65 63.84 114.68C63.53 115.12 63.15 115.49 62.74 115.82C63.59 115.63 64.47 115.65 65.36 115.6C67.15 115.49 68.92 114.87 69.65 113.22C69.69 113.05 69.73 112.89 69.77 112.73C69.78 112.68 69.81 112.66 69.85 112.64C69.85 112.62 69.86 112.6 69.87 112.58C69.8 112.51 69.73 112.45 69.66 112.38C68.8 112.94 67.77 112.95 66.82 112.69C66.79 112.72 66.75 112.73 66.7 112.73V112.72ZM72.61 110.04C71.9 110.41 71.25 110.94 70.65 111.6C70.68 111.63 70.69 111.67 70.65 111.71C70.31 112.17 70.34 112.58 70.57 112.92C70.57 112.92 70.59 112.93 70.59 112.94C70.6 112.95 70.61 112.97 70.61 112.98C71.01 113.5 71.84 113.84 72.38 113.93C72.42 113.9 72.48 113.89 72.54 113.93C72.56 113.93 72.58 113.95 72.6 113.96C73.35 113.99 73.91 113.7 74.46 113.21C75.21 112.53 75.91 111.97 76.9 111.73C76.61 111.55 76.35 111.31 76.14 111.05C76 111.42 75.47 111.62 75.09 111.58C74.07 111.47 73.59 110.3 72.61 110.06V110.04ZM78.3 107.8C79.93 106.98 80.78 105.33 79.21 103.93C78.57 105.85 76.08 107.05 75.7 109.13C75.7 109.14 75.7 109.15 75.69 109.16C75.82 109.18 75.95 109.21 76.09 109.24C76.69 108.53 77.5 108.2 78.31 107.8H78.3ZM70.22 112.88C70.22 112.88 70.19 112.85 70.18 112.84C70.47 116.44 75.24 116.68 76.7 119.59C76.77 118.58 75.57 116.94 75.09 116.35C74.4 115.49 73.55 114.84 72.6 114.3C72.47 114.3 72.34 114.28 72.21 114.26C71.54 114.14 70.56 113.56 70.23 112.87L70.22 112.88ZM76.32 109.64C75.07 109.34 73.98 109.44 73 109.85C73.29 109.96 73.54 110.14 73.78 110.36C74.07 110.61 74.32 110.91 74.65 111.1C75.02 111.31 75.85 111.35 75.97 110.82C75.92 110.75 75.88 110.69 75.83 110.62C75.74 110.48 75.96 110.34 76.07 110.46C76.53 110.94 76.93 111.48 77.6 111.69C78.33 111.91 79.05 111.6 79.29 110.86C79.31 110.79 79.38 110.77 79.44 110.79C79.48 110.75 79.53 110.73 79.59 110.75C80.42 110.94 81.32 111.38 81.99 110.57C82.35 110.14 82.53 109.54 82.54 108.98C82.57 107.64 81.46 106.52 80.38 105.88C80.35 106.15 80.26 106.43 80.12 106.68C79.35 108.1 77.47 108.32 76.28 109.29C77.77 109.63 79.28 110.11 80.48 108.94C80.64 108.79 80.84 109.03 80.71 109.18C79.56 110.48 77.78 110 76.32 109.64Z" fill="black" stroke="black" stroke-width="0.25" stroke-linecap="round" stroke-linejoin="round"/>
<path d="M99.92 172.36C102.95 171.3 107.48 169.81 113.09 168.38C121.71 166.17 135.06 162.85 151.72 164.05C163.11 164.87 169.03 167.29 173.55 170.46C175.66 171.94 177.22 173.41 178.23 174.44C178.41 175.51 178.79 178.58 177.02 181.54C176.37 182.63 175.59 183.42 174.94 183.97C175.01 185.68 174.8 187.17 174.42 188.47C170.53 201.97 146.75 204.59 145.14 204.75C142.68 200.57 140.22 196.4 137.76 192.22C134.21 198.91 130.67 206.97 127.9 216.35C126.84 219.96 125.98 223.43 125.3 226.74C118.89 229.7 111 234.26 103.21 241.29C100.1 244.1 97.43 246.92 95.15 249.61C91.17 241.64 87.18 233.67 83.2 225.7C82.94 206.9 82.68 188.11 82.42 169.31C81.05 169.88 79.09 170.51 76.66 170.7C72.7 171 69.57 169.93 67.91 169.22C67.28 164.58 67.69 160.79 68.21 158.16C68.8 155.17 69.25 152.94 70.99 150.6C71.52 149.89 74.68 145.77 80.34 145.14C83.51 144.79 86.07 145.67 87.49 146.31C87.43 146.4 86.5 147.75 86.44 147.84C86.33 148 85.14 149.73 85.04 149.89C85.48 150.4 86.03 151.04 86.65 151.78C86.65 151.78 87.91 153.31 89.12 154.88C93.77 160.96 97.27 166.93 99.93 172.33L99.92 172.36Z" stroke="black" stroke-width="0.75" stroke-linecap="round" stroke-linejoin="round"/>
<path d="M99.9199 172.36C100.45 170.99 101.46 168.94 103.41 167.05C104.24 166.24 105.07 165.63 105.81 165.17" stroke="black" stroke-width="0.75" stroke-linecap="round" stroke-linejoin="round"/>
<path d="M87.49 146.33C88.85 144.71 91 142.67 94.09 141.71C97.74 140.58 99.49 141.96 104.25 141.39C106.49 141.12 110.93 140.59 113.99 137.62C118.62 133.13 117.45 125.63 117.24 124.37" stroke="black" stroke-width="0.75" stroke-linecap="round" stroke-linejoin="round"/>
<path d="M137.95 115.71C138.9 128.95 143.35 136.24 147.39 140.48C151.28 144.57 157.57 148.74 159.6 150.09C167.69 155.46 172.7 157.05 174.58 162.22C175.72 165.36 175.2 168.42 174.67 170.36" stroke="black" stroke-width="0.75" stroke-linecap="round" stroke-linejoin="round"/>
<path d="M116.29 136.59C117.41 135.26 118.81 133.88 120.53 132.61C128 127.1 136.59 127.34 140.09 127.65C139.83 126.72 139.58 125.8 139.32 124.87C140.15 124.74 141.35 124.68 142.53 125.25C144.6 126.24 145.36 128.47 146.38 131.7C147.56 135.42 148.15 137.28 147.57 138.54C146.3 141.29 141.62 141.45 134.47 141.61C128.2 141.75 117.67 141.99 116.37 137.97C116.19 137.42 116.23 136.92 116.28 136.58L116.29 136.59Z" fill="white" stroke="black" stroke-width="0.75" stroke-linecap="round" stroke-linejoin="round"/>
<path d="M116.6 135.66C116.8 134.64 116.97 133.56 117.12 132.42C117.36 130.54 117.48 128.77 117.52 127.14C116.98 127.19 116.05 127.36 115.12 127.97C112.47 129.72 112.72 133.28 112.74 133.47C112.88 135 113.66 137.25 114.82 137.28C115.68 137.3 116.37 136.1 116.6 135.66Z" fill="white" stroke="black" stroke-width="0.75" stroke-linecap="round" stroke-linejoin="round"/>
<path d="M137.76 192.23C136.08 189.27 134.19 185.03 133.36 179.7C133.06 177.77 132.94 175.98 132.92 174.36C135.3 172.7 139.1 170.59 144.09 169.86C157.27 167.93 167.11 177.31 168.52 178.7C169.65 178.81 173.23 179 176.23 176.62C177.12 175.91 177.76 175.14 178.22 174.45" stroke="black" stroke-width="0.75" stroke-linecap="round" stroke-linejoin="round"/>
<path d="M132.92 174.36C136.82 174.64 143.79 175.67 151.11 179.99C155.97 182.86 159.35 186.21 161.5 188.74C163.83 188.37 166.65 187.7 169.73 186.49C171.72 185.7 173.45 184.83 174.93 183.98C175.65 183.35 177.36 181.69 178.08 178.94C178.59 177.01 178.4 175.37 178.22 174.45C177.62 175.28 175.74 177.63 172.42 178.48C170.83 178.89 169.45 178.82 168.51 178.69C167.18 177.31 158.72 168.79 146.28 169.63C139.93 170.06 135.27 172.74 132.91 174.35L132.92 174.36Z" fill="#EB1C24" stroke="black" stroke-width="0.75" stroke-linecap="round" stroke-linejoin="round"/>
<path d="M132.92 174.36C130.53 174.95 127.03 176.1 123.48 178.56C112.75 185.99 111.83 198.28 104.51 219.23C102.47 225.06 99.35 233.24 94.77 242.88C96.98 240.37 99.92 236.83 103.09 232.36C106.46 227.6 109.78 222.91 112.57 216.51C115.42 209.99 114.02 210.18 118.16 198.71C120.55 192.08 122.48 187.29 126.99 183.9C129.5 182.01 132.02 181.19 133.55 180.8C133.34 178.66 133.14 176.52 132.93 174.37L132.92 174.36Z" fill="#EB1C24" stroke="black" stroke-width="0.75" stroke-linecap="round" stroke-linejoin="round"/>
<path d="M82.4199 169.33C82.4799 169.29 83.3999 168.76 83.4599 168.72C83.5199 168.68 84.4399 168.15 84.4999 168.11C84.5699 174.86 84.8899 180.32 85.1499 183.87C86.3299 200.08 88.8799 213.23 92.7299 232.81C93.5899 237.18 94.3199 240.71 94.7699 242.86C92.1199 236.42 89.5099 228.9 87.3599 220.38C84.5399 209.16 83.2399 198.98 82.7099 190.43C82.6099 183.39 82.5199 176.36 82.4199 169.32V169.33Z" fill="#EB1C24" stroke="black" stroke-width="0.75" stroke-linecap="round" stroke-linejoin="round"/>
<path d="M84.5 168.12C81.55 165.45 78.38 162.23 75.23 158.38C73.39 156.13 71.77 153.92 70.35 151.82" stroke="black" stroke-width="0.75" stroke-linecap="round" stroke-linejoin="round"/>
<path d="M84.5 168.12C82.08 165.93 79.46 163.32 76.82 160.27C74.27 157.32 72.13 154.45 70.35 151.82C70.86 151.07 71.52 150.21 72.36 149.34C73.32 148.34 74.26 147.58 75.08 147C78.22 154.05 81.36 161.09 84.5 168.14V168.12Z" fill="#EB1C24" stroke="black" stroke-width="0.75" stroke-linecap="round" stroke-linejoin="round"/>
<path d="M99.92 172.36C98.56 186.59 97.39 201.2 96.46 216.19C95.91 224.98 95.46 233.64 95.09 242.19" stroke="black" stroke-width="0.75" stroke-linecap="round" stroke-linejoin="round"/>
<path d="M83.17 223C76.57 227.59 68.43 234.27 60.6 243.67C55.51 249.78 51.65 255.72 48.73 260.93" stroke="black" stroke-width="0.75" stroke-linecap="round" stroke-linejoin="round"/>
<path d="M126.26 222.8C133.35 224.74 149.66 230.36 159.17 245.82C160.88 248.6 162.17 251.37 163.14 254.03" stroke="black" stroke-width="0.75" stroke-linecap="round" stroke-linejoin="round"/>
<path d="M101.08 86.08C99.7799 90.05 99.9999 93 100.47 95.02C101.11 97.73 102.18 98.5 101.97 100.86C101.74 103.51 100.11 106.04 99.3699 107.16C98.0099 109.23 97.0199 109.97 97.2899 110.86C97.6099 111.93 99.4899 112.32 101.11 112.48C101.51 113.12 103.84 116.93 104.37 119.94C104.67 121.66 104.83 122.52 104.76 123.18C104.69 123.89 104.51 124.52 104.86 125.2C105.17 125.8 105.72 126.14 105.92 126.26C105.92 126.26 106.53 126.63 107.32 126.74C111.64 127.35 117.3 124.03 117.3 124.03C120.89 121.22 124.47 118.41 128.06 115.61" stroke="black" stroke-width="0.75" stroke-linecap="round" stroke-linejoin="round"/>
<path d="M100.11 91.46C100.14 90.53 100.25 89.46 100.48 88.3C100.61 87.65 100.77 87.04 100.95 86.49C102.32 85.88 104.43 85.21 106.68 85.78C110.03 86.63 110.91 89.5 114.38 91.64C116.1 92.7 118.8 93.78 122.96 93.63C120.69 97.62 120.88 99.68 121.57 100.82C122.54 102.43 124.67 102.51 125.26 104.31C125.7 105.63 125.04 107.03 124.43 108.01C125.39 107.78 126.68 107.31 127.18 106.23C128.04 104.38 125.85 102.44 126.57 100.68C126.91 99.85 127.98 98.89 131.32 98.56C132.7 96.25 134.95 95.02 136.93 95.43C137.17 95.48 138.39 95.73 139.11 96.75C140.45 98.65 138.97 101.8 138.34 103.15C137.82 104.27 137.23 105.11 136.8 105.67C137.2 109.29 137.6 112.91 138 116.53C138.15 117.76 139.22 118.47 140.03 118.27C140.59 118.13 141.05 117.55 141.17 116.83C140.82 117.16 140.34 117.3 139.96 117.16C139.4 116.95 139.06 116.16 139.39 115.39C140.03 114.88 141.03 114.1 142.28 113.2C150.64 107.14 155.22 106.26 156.23 102.46C156.48 101.5 156.65 99.88 155.62 97.52C157.19 97.19 160.51 96.24 162.46 93.32C165.8 88.33 162.88 80.98 158.69 77.4C157.63 76.49 154.9 74.16 151.2 74.56C147.64 74.95 144.51 77.71 143.06 81.66C141.33 80.86 111.76 67.52 102.04 78.44C101.25 79.33 100.55 80.42 100.02 81.77C97.0099 83.32 95.7599 86.47 96.6899 88.71C97.5099 90.69 99.7499 91.34 100.11 91.44V91.46Z" fill="black" stroke="black" stroke-width="0.75" stroke-linecap="round" stroke-linejoin="round"/>
<path d="M131.78 106.93C131.91 107.24 132.31 108.11 133.09 108.29C133.86 108.47 134.57 107.87 135.46 107.08C136.08 106.54 136.93 105.66 137.7 104.33" stroke="black" stroke-width="0.75" stroke-linecap="round" stroke-linejoin="round"/>
<path d="M113.28 74.09L113.99 56.61C114.59 59.48 116.67 61.8 119.38 62.59C122.61 63.53 126.21 62.15 128.15 59.15C127.18 62.6 128.82 66.23 131.92 67.73C135.24 69.34 139.41 68.08 141.36 64.77C141.3 65.12 140.64 69.12 143.21 71.54C145.83 74 150.82 73.91 154.32 70.53C153.27 71.88 152.23 73.23 151.18 74.58" stroke="black" stroke-width="0.75" stroke-linecap="round" stroke-linejoin="round"/>
<path d="M89.61 155.24C90.69 155.06 91.92 154.79 93.25 154.37C94.84 153.86 96.21 153.26 97.32 152.68" stroke="black" stroke-width="0.75" stroke-linecap="round" stroke-linejoin="round"/>
<path d="M93.25 154.37C93.27 153.81 93.36 152.95 93.75 151.98C94.07 151.19 94.48 150.59 94.81 150.19" stroke="black" stroke-width="0.75" stroke-linecap="round" stroke-linejoin="round"/>
<path d="M93.3 153.75C93.19 153.37 93.05 152.96 92.87 152.53C92.61 151.9 92.31 151.36 92.03 150.91" stroke="black" stroke-width="0.75" stroke-linecap="round" stroke-linejoin="round"/>
<path d="M144.45 163.8C144.18 162.82 143.91 161.84 143.64 160.86" stroke="black" stroke-width="0.75" stroke-linecap="round" stroke-linejoin="round"/>
<path d="M132.21 104.03C131.94 104.5 132.17 105.26 132.62 105.67C132.75 105.79 132.96 105.98 133.24 106C134.15 106.07 134.92 104.33 135.2 103.42C135.45 102.62 135.64 102 135.28 101.49C134.91 100.97 134.18 100.83 133.65 100.96C133.37 101.03 132.91 101.23 132.89 101.5C132.87 101.77 133.3 101.83 133.46 102.28C133.57 102.59 133.49 102.95 133.35 103.19C133.03 103.74 132.48 103.56 132.21 104.02V104.03Z" fill="black"/>
<path d="M133.98 98.48C134.62 97.53 135.6 97.08 136.38 97.32C137.05 97.52 137.37 98.17 137.48 98.39C138.03 99.51 137.62 100.7 137.42 101.31C136.57 103.8 134.26 105.14 133.39 105.59" stroke="black" stroke-width="0.75" stroke-linecap="round" stroke-linejoin="round"/>
<path d="M101.13 112.49C101.95 112.61 102.64 112.67 103.13 112.7C103.88 112.75 104.09 112.73 104.3 112.59C104.78 112.28 105.08 111.49 104.76 110.86C104.53 110.4 104.07 110.24 103.95 110.2" stroke="black" stroke-width="0.75" stroke-linecap="round" stroke-linejoin="round"/>
<path d="M100.02 81.79C99.89 82.2 99.4201 83.79 100.25 85.32C100.52 85.83 100.87 86.2 101.16 86.46" stroke="black" stroke-width="0.75" stroke-linecap="round" stroke-linejoin="round"/>
<path d="M124.44 108C123.83 108.29 123.46 108.74 123.49 109.16C123.49 109.22 123.51 109.33 123.58 109.44C123.89 109.92 124.75 109.58 125.09 110.01C125.27 110.24 125.22 110.56 125.2 110.68C125.08 111.4 124.28 111.53 124.08 112.31C124.02 112.55 124.04 112.76 124.05 112.89" stroke="black" stroke-width="0.75" stroke-linecap="round" stroke-linejoin="round"/>
<path d="M112.23 142.85C112.13 142.73 110.63 140.7 111.5 138.47C112 137.21 112.99 136.56 113.37 136.35C113.43 134.18 115.09 132.87 116.2 133.05C117.21 133.22 118.24 134.7 117.99 136.56C119.81 136.97 121.05 138.66 120.91 140.47C120.78 142.21 119.41 143.64 117.64 143.87C117.52 145.63 115.9 146.85 114.36 146.58C112.8 146.31 111.69 144.56 112.22 142.85H112.23Z" fill="white" stroke="black" stroke-width="0.75" stroke-linecap="round" stroke-linejoin="round"/>
<path d="M115.72 136.48C116.82 136.86 116.74 139.63 116.72 140.07C116.69 141.01 116.63 143.19 115.45 143.7C115 143.89 114.45 143.83 114.04 143.55C112.48 142.5 112.73 138.04 114.62 136.76C114.79 136.65 115.27 136.32 115.73 136.48H115.72Z" fill="#EB1C24" stroke="black" stroke-width="0.75" stroke-linecap="round" stroke-linejoin="round"/>
<path d="M116.37 148.54C114.61 148.03 113.78 149.57 113.49 150.34C113.6 149.53 113.62 147.78 111.83 147.37C109.49 146.84 108.36 149.93 108.76 151.74C109.16 153.55 109.45 154.17 110 155.4C110.52 156.56 111.15 157.88 111.32 158.63C111.32 158.63 111.32 158.71 111.33 158.69C111.33 158.71 111.37 158.64 111.37 158.64C111.88 158.06 113.07 157.21 114.09 156.45C115.17 155.64 115.72 155.23 116.94 153.84C118.17 152.45 118.68 149.2 116.37 148.53V148.54Z" fill="#EB1C24" stroke="black" stroke-width="0.75" stroke-linecap="round" stroke-linejoin="round"/>
<path d="M114.21 146.55C113.98 147.69 113.74 148.82 113.51 149.96L114.21 146.55Z" fill="#EB1C24"/>
<path d="M114.21 146.55C113.98 147.69 113.74 148.82 113.51 149.96" stroke="black" stroke-width="0.75" stroke-linecap="round" stroke-linejoin="round"/>
<path d="M120.37 138.27C127.35 136.74 132.48 136.87 136.07 137.36C136.07 137.36 143.31 138.35 145.97 135.89C146.26 135.62 146.48 135.34 146.64 135.07C146.64 135.07 146.91 134.63 147.06 134.09C147.28 133.3 146.66 130.88 145.04 127.98C145.33 128.66 145.28 129.13 145.19 129.44C144.32 132.21 136.54 130.63 128.21 133.29C124.46 134.49 121.62 136.22 119.78 137.52C119.98 137.77 120.18 138.02 120.38 138.27H120.37Z" fill="#EB1C24" stroke="black" stroke-width="0.75" stroke-linecap="round" stroke-linejoin="round"/>
<path d="M103.82 97.15C103.79 97.44 103.86 97.79 104.04 98.01C104.52 98.59 105.53 97.97 106.68 97.55C108.59 96.85 110.25 96.93 111.7 97C113.78 97.1 115.08 97.68 115.13 97.44C115.18 97.19 113.87 96.4 112.62 95.89C110.02 94.83 107.93 95.1 106.99 95.29C106.14 95.46 103.95 95.91 103.81 97.16L103.82 97.15Z" fill="black"/>
<path d="M102.99 115.53C103.12 115.53 103.33 115.53 103.57 115.56C104.82 115.7 105.49 116.23 106.22 116.51C106.78 116.72 107.66 116.88 108.95 116.58C108 117.24 107.05 117.93 106.08 118.65C105.5 119.08 104.93 119.52 104.37 119.95C104.16 119.87 103.74 119.69 103.46 119.28C103.04 118.68 103.06 117.86 103.49 117.15C102.79 116.95 102.41 116.42 102.51 116.03C102.58 115.75 102.86 115.59 102.97 115.54L102.99 115.53Z" fill="#EB1C24" stroke="black" stroke-width="0.75" stroke-linecap="round" stroke-linejoin="round"/>
<path d="M70.83 170.65C69.1 173.97 67.37 177.29 65.64 180.6C62.38 173.44 59.13 166.27 55.87 159.11" stroke="black" stroke-width="0.75" stroke-linecap="round" stroke-linejoin="round"/>
<path d="M65.64 180.6C67.1 183.68 68.57 186.76 70.03 189.84" stroke="black" stroke-width="0.75" stroke-linecap="round" stroke-linejoin="round"/>
<path d="M144.25 83C144.37 83.56 139.75 85.42 134.85 86.14C134.85 86.14 127.16 87.24 120.87 84.69C120.52 84.55 120.9 84.69 113.79 81.3C111.1 80.02 109.7 79.49 108.22 79.42C107.19 79.37 103.84 79.45 99.92 83.91C100.28 83.03 102.04 78.97 106.38 77.3C108.8 76.37 110.92 76.6 111.39 76.66C114.17 77.01 115.95 78.46 117.2 79.32C121.05 81.97 124.97 82.56 130.35 83.36C138.44 84.56 144.11 82.39 144.25 83.01V83Z" stroke="white" stroke-width="0.75" stroke-linecap="round" stroke-linejoin="round"/>
<path d="M100.25 79.34C100 79.93 99.34 81.73 99.92 83.91C100.33 85.45 101.19 86.47 101.65 86.95C102 86.29 102.64 85.31 103.75 84.5C106.91 82.18 110.9 83.47 111.43 83.65C112.17 83.9 112.73 84.2 113.18 84.54C115.41 86.19 116.54 87.79 117.18 88.55C120.5 92.52 128.64 86.45 136.38 90.47C139.12 91.89 141.11 94.22 142.64 93.4C143.94 92.7 143.84 90.31 145.96 89.26C146.55 88.97 147.12 88.88 147.49 88.85" stroke="white" stroke-width="0.75" stroke-linecap="round" stroke-linejoin="round"/>
<path d="M139.07 108.8C139.23 108.39 139.55 107.69 140.14 106.99C142.76 103.86 146.94 105.16 150.31 102.99C151.65 102.13 153.36 100.39 154.34 96.5" stroke="white" stroke-width="0.75" stroke-linecap="round" stroke-linejoin="round"/>
<path d="M154.4 82.75C154.81 83.4 155.19 84.21 155.41 85.17C155.58 85.92 155.69 86.44 155.41 86.74C154.99 87.19 153.79 87 153.15 86.35C152.37 85.55 152.9 84.49 152.24 84.04C151.47 83.52 149.76 84.04 149.48 84.87C148.79 86.87 155.65 92.53 158.15 91.12C160.42 89.84 160.14 82.13 155.8 78.74C153.93 77.28 150.6 76.06 147.81 77.45C147.48 77.61 145.29 78.75 144.67 81.12C143.48 85.63 148.99 90.8 153.72 95.24C155.14 96.57 156.36 97.58 157.13 98.19" stroke="white" stroke-width="0.75" stroke-linecap="round" stroke-linejoin="round"/>
<path d="M127.74 103.35C125.58 102.72 124.06 101.25 123.9 99.61C123.74 98.02 124.93 96.78 125.67 96.03C127.83 93.8 132.07 91.73 135.87 93C138.95 94.03 140.28 97.19 143.24 97.04C143.59 97.02 144.01 96.99 144.45 96.74C145.75 95.98 145.48 94.24 146.57 92.09C146.87 91.5 147.38 90.67 148.26 89.79" stroke="white" stroke-width="0.75" stroke-linecap="round" stroke-linejoin="round"/>
<path d="M119.32 236.9C122.75 239.76 126.2 242.6 129.63 245.46C132.66 244.49 135.05 243.2 137 241.36C140.02 238.5 144.05 232.83 145.17 231.27C145.17 231.27 147.26 228.8 148.77 225.86C153.45 216.72 157.98 206.59 160.4 201.07C155.31 202.3 150.23 203.53 145.15 204.76C143.83 202.54 142.51 200.31 141.2 198.06C140.17 196.3 139.15 194.55 138.14 192.8C136.69 197.7 135.23 202.61 133.75 207.54C132.15 212.87 130.55 218.17 128.93 223.45C123.63 225.87 118.22 228.49 112.73 231.31C114.92 233.19 117.11 235.06 119.33 236.91L119.32 236.9Z" fill="white" stroke="black" stroke-width="0.75" stroke-linecap="round" stroke-linejoin="round"/>
<path d="M82.9301 205.68C81.5401 202.39 80.1401 199.1 78.7501 195.82C77.5101 198.44 75.6001 201.73 72.6601 205.03C71.0901 206.79 69.5201 208.22 68.0701 209.39C69.5801 216.7 71.0901 224.01 72.6001 231.32C76.1201 228.55 79.6501 225.78 83.1701 223.01C83.0901 217.24 83.0101 211.46 82.9301 205.69V205.68Z" fill="black" stroke="black" stroke-width="0.75" stroke-linecap="round" stroke-linejoin="round"/>
<path d="M66.1401 179.63C66.3801 179.7 66.7601 179.83 67.1901 180.06C71.1401 182.16 71.4901 188.6 71.6501 191.14C72.7101 207.5 72.8001 223.93 74.4801 240.23C74.7001 242.36 75.3201 247.49 72.2201 251C70.6301 252.8 68.6101 253.57 67.3501 253.93C67.8101 252.71 67.8401 251.87 67.4401 251.39C66.5301 250.32 63.39 251.15 58.05 253.88C59.34 249.99 61.0101 243.82 61.4501 236.12C61.9301 227.7 60.5001 224.99 60.8801 215.52C61.2401 206.53 62.6801 205.01 63.4601 196.62C63.9901 190.85 64.16 182.39 62.11 171.78C62.94 171.64 63.4501 171.87 63.6701 171.99C64.8101 172.62 65.3301 174.43 64.7101 176.41C64.8501 177.06 65.0901 177.87 65.5601 178.73C65.7501 179.07 65.9501 179.38 66.1401 179.65V179.63Z" fill="black" stroke="black" stroke-width="0.75" stroke-linecap="round" stroke-linejoin="round"/>
<path d="M98.71 186.09C99 185.12 100.31 181.16 104.39 178.73C109.57 175.64 114.91 177.58 115.6 177.84C113.24 178.58 110.63 179.55 107.85 180.85C104.25 182.53 101.2 184.37 98.72 186.09H98.71Z" stroke="black" stroke-width="0.75" stroke-linecap="round" stroke-linejoin="round"/>
<path d="M98.0701 196C98.3001 195.24 99.3101 192.18 102.47 190.3C106.48 187.91 110.62 189.41 111.16 189.61C109.33 190.18 107.3 190.94 105.15 191.94C102.36 193.24 100 194.67 98.0701 196Z" stroke="black" stroke-width="0.75" stroke-linecap="round" stroke-linejoin="round"/>
<path d="M97.41 204.39C97.59 203.8 98.38 201.4 100.86 199.92C104.01 198.05 107.25 199.22 107.67 199.38C106.24 199.83 104.65 200.42 102.96 201.21C100.77 202.23 98.92 203.35 97.41 204.4V204.39Z" stroke="black" stroke-width="0.75" stroke-linecap="round" stroke-linejoin="round"/>
<path d="M96.99 211.64C97.13 211.17 97.76 209.26 99.73 208.09C102.23 206.6 104.8 207.53 105.13 207.66C103.99 208.02 102.73 208.49 101.39 209.11C99.65 209.92 98.19 210.81 96.99 211.64Z" stroke="black" stroke-width="0.75" stroke-linecap="round" stroke-linejoin="round"/>
<path d="M96.76 217.92C96.87 217.55 97.36 216.07 98.89 215.16C100.83 214 102.84 214.73 103.09 214.83C102.21 215.11 101.22 215.47 100.18 215.96C98.83 216.59 97.69 217.28 96.75 217.93L96.76 217.92Z" stroke="black" stroke-width="0.75" stroke-linecap="round" stroke-linejoin="round"/>
<path d="M96.23 223.79C96.33 223.47 96.76 222.17 98.1 221.37C99.81 220.35 101.57 220.99 101.79 221.08C101.01 221.32 100.15 221.64 99.24 222.07C98.05 222.62 97.05 223.23 96.23 223.8V223.79Z" stroke="black" stroke-width="0.75" stroke-linecap="round" stroke-linejoin="round"/>
<path d="M96.03 228.97C96.1 228.72 96.44 227.72 97.47 227.1C98.79 226.31 100.15 226.81 100.32 226.87C99.72 227.06 99.05 227.31 98.35 227.64C97.43 228.07 96.66 228.54 96.02 228.97H96.03Z" stroke="black" stroke-width="0.75" stroke-linecap="round" stroke-linejoin="round"/>
<path d="M98.7101 185.94C98.6901 184.92 98.5201 180.77 96.2701 177.42C93.4101 173.17 89.5801 173.75 89.0801 173.83C90.5001 175.12 92.0401 176.7 93.6401 178.63C95.7101 181.14 97.3801 183.66 98.7101 185.93V185.94Z" stroke="black" stroke-width="0.75" stroke-linecap="round" stroke-linejoin="round"/>
<path d="M97.5101 195.82C97.4401 195.04 97.0701 191.84 95.1501 189.37C92.7001 186.24 89.7701 186.91 89.3901 187C90.5601 187.92 91.8401 189.05 93.1801 190.46C94.9201 192.28 96.3501 194.14 97.5101 195.82Z" stroke="black" stroke-width="0.75" stroke-linecap="round" stroke-linejoin="round"/>
<path d="M97.1501 204.39C97.0801 203.78 96.7401 201.27 95.1901 199.38C93.2201 196.97 90.9301 197.54 90.6401 197.62C91.5701 198.32 92.5901 199.19 93.6701 200.26C95.0601 201.66 96.2201 203.09 97.1501 204.39Z" stroke="black" stroke-width="0.75" stroke-linecap="round" stroke-linejoin="round"/>
<path d="M96.6801 211.64C96.5901 211.16 96.1601 209.2 94.8201 207.8C93.1101 206.02 91.3401 206.61 91.1101 206.69C91.8901 207.18 92.7501 207.81 93.6701 208.59C94.8601 209.61 95.8601 210.67 96.6801 211.64Z" stroke="black" stroke-width="0.75" stroke-linecap="round" stroke-linejoin="round"/>
<path d="M96.3601 217.92C96.3101 217.54 96.0601 216 95.0801 214.86C93.8301 213.4 92.4301 213.79 92.2501 213.84C92.8301 214.26 93.4801 214.78 94.1601 215.43C95.0401 216.27 95.7701 217.14 96.3701 217.93L96.3601 217.92Z" stroke="black" stroke-width="0.75" stroke-linecap="round" stroke-linejoin="round"/>
<path d="M95.9201 223.79C95.8701 223.46 95.6301 222.11 94.7501 221.12C93.6301 219.86 92.4001 220.22 92.2401 220.27C92.7601 220.63 93.3301 221.08 93.9401 221.64C94.7301 222.37 95.3801 223.12 95.9201 223.8V223.79Z" stroke="black" stroke-width="0.75" stroke-linecap="round" stroke-linejoin="round"/>
<path d="M95.3601 228.98C95.3101 228.73 95.0902 227.69 94.3802 226.95C93.4802 226.01 92.5402 226.31 92.4202 226.36C92.8302 226.62 93.2901 226.95 93.7701 227.37C94.4001 227.91 94.9202 228.47 95.3502 228.99L95.3601 228.98Z" stroke="black" stroke-width="0.75" stroke-linecap="round" stroke-linejoin="round"/>
<path d="M131.69 205.37C132.65 205.15 133.62 204.94 134.58 204.72C132.69 210.96 130.8 217.21 128.92 223.45C128.03 223.23 127.15 223.02 126.26 222.8L131.69 205.37Z" fill="black" stroke="black" stroke-width="0.75" stroke-linecap="round" stroke-linejoin="round"/>
<path d="M113.48 69.21C118 69.47 124.02 70.29 130.76 72.57C136.28 74.44 140.76 76.78 144.15 78.88" stroke="black" stroke-width="0.75" stroke-linecap="round" stroke-linejoin="round"/>
<path d="M122.48 62.81C121.75 63.44 120.8 64.43 120.13 65.84C119.21 67.77 119.19 69.64 119.08 69.62C118.97 69.61 119.23 67.93 119.03 65.94C118.86 64.28 118.43 62.95 118.08 62.06C118.51 62.28 119.08 62.52 119.76 62.68C120.88 62.94 121.84 62.89 122.48 62.8V62.81Z" fill="#EB1C24" stroke="black" stroke-width="0.75" stroke-linecap="round" stroke-linejoin="round"/>
<path d="M134.1 68.37C133.58 68.87 133.04 69.45 132.49 70.11C131.79 70.95 131.23 71.77 130.76 72.51C130.94 71.64 131.08 70.5 131 69.18C130.95 68.38 130.83 67.68 130.69 67.07C131.06 67.33 131.55 67.63 132.16 67.88C132.91 68.19 133.59 68.31 134.09 68.37H134.1Z" fill="#EB1C24" stroke="black" stroke-width="0.75" stroke-linecap="round" stroke-linejoin="round"/>
<path d="M146.3 73.08C145.53 73.37 144.47 73.87 143.46 74.8C142.16 76 141.54 77.37 141.41 77.31C141.27 77.24 142.12 75.84 142.45 73.91C142.66 72.67 142.58 71.61 142.48 70.89C142.87 71.26 143.39 71.69 144.05 72.09C144.9 72.61 145.69 72.91 146.3 73.08Z" fill="#EB1C24" stroke="black" stroke-width="0.75" stroke-linecap="round" stroke-linejoin="round"/>
<path d="M114.27 56.54C114.27 57.76 114.26 58.98 113.9 59.07C113.5 59.16 112.61 57.86 112.61 56.48C112.61 55.1 113.5 53.8 113.9 53.89C114.28 53.98 114.28 55.33 114.27 56.54Z" fill="#EB1C24" stroke="black" stroke-width="0.75" stroke-linecap="round" stroke-linejoin="round"/>
<path d="M154.58 70.27C153.76 71.17 152.94 72.08 153.15 72.38C153.38 72.72 154.92 72.36 155.85 71.35C156.78 70.34 157 68.78 156.65 68.57C156.31 68.38 155.4 69.38 154.59 70.27H154.58Z" fill="#EB1C24" stroke="black" stroke-width="0.75" stroke-linecap="round" stroke-linejoin="round"/>
<path d="M129.34 59.04C129.04 59.71 128.29 60.46 127.49 60.36C126.49 60.23 125.83 58.78 126.08 57.62C126.32 56.52 127.41 55.56 128.28 55.74C129.31 55.96 129.91 57.78 129.34 59.04Z" fill="#EB1C24" stroke="black" stroke-width="0.75" stroke-linecap="round" stroke-linejoin="round"/>
<path d="M140.5 62.67C140.4 63.4 140.64 64.44 141.37 64.76C142.29 65.18 143.62 64.29 144.01 63.18C144.39 62.12 143.97 60.72 143.13 60.43C142.14 60.08 140.67 61.31 140.49 62.67H140.5Z" fill="#EB1C24" stroke="black" stroke-width="0.75" stroke-linecap="round" stroke-linejoin="round"/>
<path d="M103.51 117.15C103.67 117.19 103.89 117.25 104.17 117.28C104.87 117.37 105.42 117.28 105.78 117.21C106.63 117.06 107.7 116.86 108.96 116.59" fill="#EB1C24"/>
<path d="M103.51 117.15C103.67 117.19 103.89 117.25 104.17 117.28C104.87 117.37 105.42 117.28 105.78 117.21C106.63 117.06 107.7 116.86 108.96 116.59" stroke="black" stroke-width="0.75" stroke-linecap="round" stroke-linejoin="round"/>
<path d="M65.49 176.46C66.23 182.06 66.87 187.82 67.4 193.73C69.17 213.47 69.41 231.98 68.68 249.01" stroke="white" stroke-width="0.75" stroke-linecap="round" stroke-linejoin="round"/>
<path d="M123.51 230.42C117.61 232.71 111.64 235.16 105.59 237.78C104.44 238.28 103.3 238.78 102.16 239.28C102.15 239.28 102.13 239.28 102.12 239.28C100.57 239.97 98.17 240.92 95.13 241.63C92.94 242.14 92.14 242.13 88.8 242.57C77.75 244.05 75.51 245.69 74.28 246.94C73.85 247.38 73.34 248.17 72.32 249.77C70.72 252.27 69.26 255.95 66.4 263.21C65.53 265.43 64.69 267.61 65.57 268.43C65.84 268.68 66.19 268.74 66.46 268.75C67.4 266.33 68.33 263.9 69.27 261.48C69.17 261.7 69.03 262.04 68.84 262.46C68.29 263.66 67.7 264.87 67.34 266.14C67.14 266.67 66.96 267.19 66.81 267.73C66.4 269.07 66.13 269.42 66.28 269.92C66.39 270.32 66.72 270.82 67.23 270.94C67.81 271.06 68.51 270.66 68.86 269.89C69.28 270.18 69.81 270.02 70.22 269.78C70.48 269.62 70.73 269.4 70.96 269.18C71.06 269.08 71.16 268.97 71.25 268.87C71.26 268.86 71.28 268.83 71.3 268.81C71.43 268.91 71.59 268.97 71.78 268.98C72.4 269 73 268.54 73.46 268.17C74 267.74 74.49 267.25 74.96 266.75C75.63 266.03 76.2 265.23 76.77 264.43C77.17 263.87 77.58 263.34 78.09 262.87L78.36 262.66C78.36 262.66 78.39 262.66 78.4 262.64C78.65 262.46 78.92 262.29 79.18 262.11C80.2 261.4 81.22 260.7 82.23 259.99C82.75 259.62 83.24 259.26 83.75 258.89C84.19 258.57 84.59 258.2 85.02 257.86C85.18 257.76 85.44 257.59 85.77 257.39C90.94 254.26 93.92 254.24 97.87 251.84C98.75 251.3 100.08 250.41 101.56 249.01C106.05 249.39 110.7 249.7 115.51 249.92C122 250.21 128.23 250.31 134.19 250.26C130.34 243.8 126.28 237.44 123.52 230.42H123.51Z" fill="white" stroke="black" stroke-width="0.75" stroke-linecap="round" stroke-linejoin="round"/>
<path d="M69.27 261.49C69.46 261.04 69.76 260.34 70.09 259.46C70.53 258.29 70.64 257.87 70.96 257.17C71.36 256.27 71.77 255.65 72.22 254.96C73.76 252.63 75.4 250.33 76 249.48" stroke="black" stroke-width="0.75" stroke-linecap="round" stroke-linejoin="round"/>
<path d="M68.86 269.91C68.75 269.82 68.59 269.66 68.5 269.41C68.4 269.11 68.46 268.84 68.49 268.7C68.77 267.53 69.25 266.58 69.25 266.58C69.44 266.16 69.71 265.56 70.06 264.85C70.93 263.03 72.16 260.45 73.83 257.85C74.9 256.18 76.48 253.97 78.74 251.57" stroke="black" stroke-width="0.75" stroke-linecap="round" stroke-linejoin="round"/>
<path d="M71.25 268.88C71.2 268.79 71.1 268.6 71.05 268.34C70.91 267.6 71.33 266.95 71.48 266.72C75.04 261.15 74.28 261.63 76.09 259.65C77.57 258.02 79.69 255.93 82.53 253.79" stroke="black" stroke-width="0.75" stroke-linecap="round" stroke-linejoin="round"/>
<path d="M158.95 204.32C160.76 206.02 163.3 208.76 165.48 212.67C167.08 215.53 169.65 219.97 169.54 226.09C169.46 231.19 167.76 235.21 166.39 237.71C166.95 240.29 167.32 244.1 165.38 247.44C163.83 250.11 161.83 250.71 158.1 253.82C152.43 258.56 152.89 260.66 150.16 262.32C144.1 266.02 135.19 259.68 120.11 252.4C114.04 249.47 105.24 245.54 94.0301 241.7C93.4401 241.88 92.7801 242.04 92.0401 242.17C91.4101 242.28 90.8201 242.35 90.2901 242.38C89.4101 240.48 89.6501 238.25 90.9101 236.62C92.2601 234.87 94.5501 234.09 96.7201 234.64C97.5401 233.69 98.8101 232.34 100.54 230.95C106.47 226.2 112.9 224.9 121.94 223.73C140.84 221.27 142.7 223.02 147.59 220.19C153.18 216.95 156.72 211.2 158.91 204.33L158.95 204.32Z" fill="black" stroke="black" stroke-width="0.75" stroke-linecap="round" stroke-linejoin="round"/>
<path d="M163.22 239C158.55 240.82 153.04 242.44 146.78 243.35C123.91 246.68 105.24 238.48 96.47 233.82" stroke="white" stroke-width="0.75" stroke-linecap="round" stroke-linejoin="round"/>
<path d="M158.97 209.42C159.38 209.81 166.04 216.25 164.26 219.62C163.45 221.15 160.69 221.42 155.19 221.89C151.57 222.2 147.67 222.29 141.35 222C138.01 221.85 135.28 221.65 133.45 221.51" stroke="white" stroke-width="0.75" stroke-linecap="round" stroke-linejoin="round"/>
<path d="M126.91 243.57C131.13 244.69 135.99 246.32 141.2 248.73C144.75 250.38 147.9 252.12 150.65 253.83" stroke="white" stroke-width="0.75" stroke-linecap="round" stroke-linejoin="round"/>
<path d="M131.41 143.88C133.81 144.94 136.56 145.98 139.64 146.87C144.82 148.37 149.53 149.05 153.44 149.33" stroke="black" stroke-width="0.75" stroke-linecap="round" stroke-linejoin="round"/>
<path d="M100.94 141.52C101.7 141.73 102.8 142.01 104.15 142.24C105.62 142.49 106.64 142.67 107.98 142.62C108.84 142.59 110.14 142.44 111.69 141.91" stroke="black" stroke-width="0.75" stroke-linecap="round" stroke-linejoin="round"/>
<path d="M106.38 103.53C107.09 103.68 108.25 103.83 109.64 103.58C111.41 103.26 112.65 102.45 113.28 101.97" stroke="black" stroke-width="0.75" stroke-linecap="round" stroke-linejoin="round"/>
<path d="M75.8101 246.3C76.5201 246.72 77.2301 247.14 77.9401 247.55" stroke="black" stroke-width="0.75" stroke-linecap="round" stroke-linejoin="round"/>
<path d="M82.42 249.98C83.62 250.85 84.83 251.73 86.03 252.6" stroke="black" stroke-width="0.75" stroke-linecap="round" stroke-linejoin="round"/>
<path d="M101.55 249.01L101.73 247.56" stroke="black" stroke-width="0.75" stroke-linecap="round" stroke-linejoin="round"/>
<defs>
<linearGradient id="paint0_linear_2_18911" x1="210.8" y1="65.98" x2="15.28" y2="65.98" gradientUnits="userSpaceOnUse">
<stop stop-color="#8F8587"/>
<stop offset="0.24" stop-color="#C3BEBF"/>
<stop offset="0.45" stop-color="#EBEAEA"/>
<stop offset="0.56" stop-color="#FBFBFB"/>
</linearGradient>
<linearGradient id="paint1_linear_2_18911" x1="15.0801" y1="251.29" x2="210.7" y2="251.29" gradientUnits="userSpaceOnUse">
<stop stop-color="#8F8587"/>
<stop offset="0.25" stop-color="#C3BEBF"/>
<stop offset="0.46" stop-color="#EBEAEA"/>
<stop offset="0.57" stop-color="#FBFBFB"/>
</linearGradient>
</defs>
</svg>
