<svg width="225" height="317" viewBox="0 0 225 317" fill="none" xmlns="http://www.w3.org/2000/svg">
<path d="M216.74 316.92H8.05003C3.62003 316.92 0.0300293 313.3 0.0300293 308.84V8.08C0.0300293 3.62 3.62003 0 8.05003 0H216.74C221.17 0 224.76 3.62 224.76 8.08V308.84C224.76 313.3 221.17 316.92 216.74 316.92Z" fill="white"/>
<path d="M210.28 116.99C210.28 82.46 210.29 47.92 210.3 13.39C145.16 13.39 80.01 13.39 14.87 13.4C14.84 47.37 14.81 81.34 14.78 115.31C18.2 100.06 25.1 77.57 38.26 65.56C48.33 56.38 53.36 51.78 57.3 49.94C59.13 49.08 64.98 46.55 69.82 40.64C70.72 39.55 71.37 38.59 71.78 37.95C72.2 38.51 73.82 40.58 76.05 40.62C78.95 40.67 82.19 37.27 82.35 32.15C82.69 32.91 85.54 38.97 92.02 40.34C95.14 41 97.76 40.3 99.11 39.82C99.99 39.09 101.16 37.96 102.23 36.34C103.28 34.75 103.85 33.26 104.18 32.18H120.91C121.01 32.8 121.82 37.37 125.98 39.65C130.05 41.88 134.18 40.18 135.45 39.67C139.84 37.9 141.7 34.25 142.11 33.39C143.1 38.11 146.4 41.03 149.3 40.8C149.77 40.76 151.28 40.56 152.85 38.8L157.86 42.97C159.82 44.13 162.57 45.84 165.74 48.06C169.46 50.66 181.8 59.42 191.49 72.01C204.36 88.73 208.67 107.14 210.27 116.97L210.28 116.99Z" fill="url(#paint0_linear_2_19353)"/>
<path d="M210.79 303.79H14.16C14.16 243.35 14.16 182.91 14.16 122.47C14.16 85.95 14.16 49.44 14.16 12.92H210.79C210.79 49.38 210.79 85.84 210.79 122.3C210.79 182.8 210.79 243.29 210.79 303.79Z" stroke="#0E0E0E" stroke-linecap="round" stroke-linejoin="round"/>
<path d="M112.37 42.83C112.3 42 111.96 39.09 109.55 36.62C107.39 34.4 104.85 33.87 103.98 33.72C104.05 32.85 104.12 31.98 104.19 31.11C105.33 30.58 107.62 29.32 109.52 26.77C111.45 24.18 112 21.6 112.18 20.35C112.63 21.91 113.62 24.58 115.88 27.18C117.62 29.18 119.47 30.4 120.75 31.11C120.82 31.98 120.89 32.85 120.96 33.72C120.34 33.78 116.35 34.24 113.95 37.73C112.54 39.79 112.37 41.89 112.35 42.83H112.37Z" fill="white"/>
<path d="M70.76 28.9C71.87 28.58 73.7 28.23 75.77 28.73C77.58 29.16 78.8 30.04 79.49 30.56C85.57 35.12 86.47 38.66 90.65 40.26C91.19 40.47 95.1 41.76 99.04 39.92C101.82 38.62 103.8 35.66 104.11 32.45C104.55 27.85 101.35 23.3 97.64 22.47C97.21 22.37 94.87 21.85 92.96 23.28C92.72 23.46 91.24 24.6 91.03 26.61C91 26.91 90.76 29.5 92.74 30.76C93.85 31.46 95.26 31.5 96.38 30.98C97.97 30.25 98.93 28.42 98.68 26.46C99.07 26.89 99.61 27.56 100.04 28.48C100.25 28.92 101.61 31.93 100.31 34.82C98.73 38.34 94.42 38.96 93.84 39.04C89.99 39.59 85.99 37.57 83.37 33.94" stroke="#0E0E0E" stroke-linecap="round" stroke-linejoin="round"/>
<path d="M104.19 30.99C104.95 30.62 106.14 29.95 107.35 28.85C111.22 25.32 111.93 20.42 112.25 18.24C112.43 17.01 112.59 15.18 112.38 12.91" stroke="#0E0E0E" stroke-linecap="round" stroke-linejoin="round"/>
<path d="M103.98 33.6C104.93 33.77 105.96 34.07 106.98 34.59C111.59 36.94 112.27 41.86 112.37 42.71" stroke="#0E0E0E" stroke-linecap="round" stroke-linejoin="round"/>
<path d="M154.2 28.9C153.09 28.58 151.26 28.23 149.19 28.73C147.38 29.16 146.16 30.04 145.47 30.56C139.39 35.12 138.49 38.66 134.31 40.26C133.77 40.47 129.86 41.76 125.92 39.92C123.14 38.62 121.16 35.66 120.85 32.45C120.41 27.85 123.61 23.3 127.32 22.47C127.75 22.37 130.09 21.85 132 23.28C132.24 23.46 133.72 24.6 133.93 26.61C133.96 26.91 134.2 29.5 132.22 30.76C131.11 31.46 129.7 31.5 128.58 30.98C126.99 30.25 126.03 28.42 126.28 26.46C125.89 26.89 125.35 27.56 124.92 28.48C124.71 28.92 123.35 31.93 124.65 34.82C126.23 38.34 130.54 38.96 131.12 39.04C134.97 39.59 138.97 37.57 141.59 33.94" stroke="#0E0E0E" stroke-linecap="round" stroke-linejoin="round"/>
<path d="M120.97 33.6C120.02 33.77 118.99 34.07 117.97 34.59C113.36 36.94 112.68 41.86 112.58 42.71" stroke="#0E0E0E" stroke-linecap="round" stroke-linejoin="round"/>
<path d="M153.25 38.0399C153.1 38.3799 152.31 40.1299 150.46 40.7099C148.5 41.3299 146.78 40.1899 146.06 39.7099C143.03 37.6999 142.73 33.8699 142.7 33.2499" stroke="#0E0E0E" stroke-linecap="round" stroke-linejoin="round"/>
<path d="M163.89 47.2599C163.03 46.7699 161.82 46.0299 160.46 45.0399C156.53 42.1799 153.46 39.9499 152.66 36.3099C151.93 32.9999 153.42 30.2099 153.68 29.7399C156.13 25.3199 161.26 24.5899 162.32 24.4699C167.09 23.9299 171.93 26.4499 174.96 30.8499" stroke="#0E0E0E" stroke-linecap="round" stroke-linejoin="round"/>
<path d="M174.29 54.13C174.34 43.84 171.82 35.76 167.83 33.53C165.78 32.39 163.7 32.36 163.7 32.36C163.01 32.36 159.52 32.41 157.31 35.29C155.34 37.86 155.83 40.8 155.92 41.3" stroke="#0E0E0E" stroke-linecap="round" stroke-linejoin="round"/>
<path d="M202.47 48.93C202.99 48.67 204.65 47.9 206.44 48.36C209.63 49.17 209.99 53.02 210.01 53.3C210.2 55.75 208.7 58.6 205.84 59.62C203.64 60.4 201.52 59.78 200.39 59.45C196.73 58.38 194.72 55.89 193.72 54.63C190.52 50.55 192.08 48.57 188.8 45.67C187.91 44.88 186.11 43.28 183.35 42.86C180.48 42.41 179.3 43.65 176.68 42.92C174.11 42.2 172.78 40.31 172.44 39.78C172.28 39.54 170.41 36.53 172.17 33.5C172.53 32.87 173.6 31.04 176.01 30.51C178.2 30.04 180.61 30.84 181.93 32.41C183.06 33.75 183.39 35.64 182.51 37.14C182.32 37.47 181.72 38.49 180.36 38.9C179.22 39.24 177.77 39.09 176.77 38.29C175.89 37.58 175.73 36.67 175.7 36.4" stroke="#0E0E0E" stroke-linecap="round" stroke-linejoin="round"/>
<path d="M190.85 48.46C190.43 43.9 188.1 40.15 184.69 38.93C183.91 38.65 182.69 38.37 181.07 38.57" stroke="#0E0E0E" stroke-linecap="round" stroke-linejoin="round"/>
<path d="M194.32 55.53C193.7 55.37 191.12 54.77 188.92 56.21C186.27 57.95 185.21 61.98 186.84 65.8" stroke="#0E0E0E" stroke-linecap="round" stroke-linejoin="round"/>
<path d="M196.13 69.28C195.72 69.26 194.87 69.27 193.97 69.74C192.51 70.51 192.03 71.92 191.94 72.24" stroke="#0E0E0E" stroke-linecap="round" stroke-linejoin="round"/>
<path d="M210.78 121.03C210.76 120.89 210.74 120.64 210.7 120.35C209.92 113.5 205.51 81.5199 179.21 58.1899C175.94 55.2899 170.87 51.2199 163.89 47.2599" stroke="#0E0E0E" stroke-linecap="round" stroke-linejoin="round"/>
<path d="M112.37 42.83C112.3 42 111.96 39.09 109.55 36.62C107.39 34.4 104.85 33.87 103.98 33.72C104.05 32.85 104.12 31.98 104.19 31.11C105.33 30.58 107.62 29.32 109.52 26.77C111.45 24.18 112 21.6 112.18 20.35C112.63 21.91 113.62 24.58 115.88 27.18C117.62 29.18 119.47 30.4 120.75 31.11C120.82 31.98 120.89 32.85 120.96 33.72C120.34 33.78 116.35 34.24 113.95 37.73C112.54 39.79 112.37 41.89 112.35 42.83H112.37Z" fill="black" stroke="black" stroke-width="0.75" stroke-linecap="round" stroke-linejoin="round"/>
<path d="M154.2 28.9C153.09 28.58 151.26 28.23 149.19 28.73C147.38 29.16 146.16 30.04 145.47 30.56C139.39 35.12 138.49 38.66 134.31 40.26C133.77 40.47 129.86 41.76 125.92 39.92C123.14 38.62 121.16 35.66 120.85 32.45C120.41 27.85 123.61 23.3 127.32 22.47C127.75 22.37 130.09 21.85 132 23.28C132.24 23.46 133.72 24.6 133.93 26.61C133.96 26.91 134.2 29.5 132.22 30.76C131.11 31.46 129.7 31.5 128.58 30.98C126.99 30.25 126.03 28.42 126.28 26.46C125.89 26.89 125.35 27.56 124.92 28.48C124.71 28.92 123.35 31.93 124.65 34.82C126.23 38.34 130.54 38.96 131.12 39.04C134.97 39.59 138.97 37.57 141.59 33.94" stroke="#0E0E0E" stroke-linecap="round" stroke-linejoin="round"/>
<path d="M120.76 30.99C119.29 30.26 118.26 29.45 117.6 28.85C113.14 24.79 112.71 18.76 112.55 16.54C112.44 15.02 112.5 13.76 112.57 12.91" stroke="#0E0E0E" stroke-linecap="round" stroke-linejoin="round"/>
<path d="M120.97 33.6C120.02 33.77 118.99 34.07 117.97 34.59C113.36 36.94 112.68 41.86 112.58 42.71" stroke="#0E0E0E" stroke-linecap="round" stroke-linejoin="round"/>
<path d="M153.25 38.04C153.1 38.38 152.31 40.13 150.46 40.71C148.5 41.33 146.78 40.19 146.06 39.71C143.03 37.7 142.73 33.87 142.7 33.25" stroke="#0E0E0E" stroke-linecap="round" stroke-linejoin="round"/>
<path d="M163.89 47.2599C163.03 46.7699 161.82 46.0299 160.46 45.0399C156.53 42.1799 153.46 39.9499 152.66 36.3099C151.93 32.9999 153.42 30.2099 153.68 29.7399C156.13 25.3199 161.26 24.5899 162.32 24.4699C167.09 23.9299 171.93 26.4499 174.96 30.8499" stroke="#0E0E0E" stroke-linecap="round" stroke-linejoin="round"/>
<path d="M174.29 54.13C174.34 43.84 171.82 35.76 167.83 33.53C165.78 32.39 163.7 32.36 163.7 32.36C163.01 32.36 159.52 32.41 157.31 35.29C155.34 37.86 155.83 40.8 155.92 41.3" stroke="#0E0E0E" stroke-linecap="round" stroke-linejoin="round"/>
<path d="M202.47 48.93C202.99 48.67 204.65 47.9 206.44 48.36C209.63 49.17 209.99 53.02 210.01 53.3C210.2 55.75 208.7 58.6 205.84 59.62C203.64 60.4 201.52 59.78 200.39 59.45C196.73 58.38 194.72 55.89 193.72 54.63C190.52 50.55 192.08 48.57 188.8 45.67C187.91 44.88 186.11 43.28 183.35 42.86C180.48 42.41 179.3 43.65 176.68 42.92C174.11 42.2 172.78 40.31 172.44 39.78C172.28 39.54 170.41 36.53 172.17 33.5C172.53 32.87 173.6 31.04 176.01 30.51C178.2 30.04 180.61 30.84 181.93 32.41C183.06 33.75 183.39 35.64 182.51 37.14C182.32 37.47 181.72 38.49 180.36 38.9C179.22 39.24 177.77 39.09 176.77 38.29C175.89 37.58 175.73 36.67 175.7 36.4" stroke="#0E0E0E" stroke-linecap="round" stroke-linejoin="round"/>
<path d="M190.85 48.46C190.43 43.9 188.1 40.15 184.69 38.93C183.91 38.65 182.69 38.37 181.07 38.57" stroke="#0E0E0E" stroke-linecap="round" stroke-linejoin="round"/>
<path d="M210.65 64.56C209.01 61.75 206.39 60 203.78 60.16C200.55 60.36 198.65 63.39 197.83 64.7C193.21 72.07 198.15 82.14 198.91 83.65" stroke="#0E0E0E" stroke-linecap="round" stroke-linejoin="round"/>
<path d="M210.73 120.12C208.85 107.25 202.74 79.0999 179.21 58.1899C174.09 53.6399 168.86 50.0699 163.89 47.2599" stroke="#0E0E0E" stroke-linecap="round" stroke-linejoin="round"/>
<path d="M14.5801 197.72C14.6101 232.91 14.6301 268.1 14.6601 303.28C79.8101 303.27 144.96 303.25 210.11 303.24C210.14 269.27 210.17 235.3 210.2 201.33C203.73 216.38 193.81 234.72 178.42 253.04C172.48 260.1 166.5 266.26 160.73 271.6C159.13 273.72 157.53 275.83 155.94 277.95C155.03 278.2 154.12 278.44 153.21 278.69C152.79 278.13 151.17 276.06 148.94 276.02C146.04 275.97 142.8 279.37 142.64 284.49C142.3 283.73 139.45 277.67 132.97 276.3C129.85 275.64 127.23 276.34 125.88 276.82C125 277.55 123.83 278.68 122.76 280.3C121.71 281.89 121.14 283.38 120.81 284.46H104.08C103.98 283.84 103.17 279.27 99.0101 276.99C94.9401 274.76 90.8101 276.46 89.5401 276.97C85.1501 278.74 83.2901 282.39 82.8801 283.25C81.8901 278.53 78.5901 275.61 75.6901 275.84C75.2201 275.88 73.7101 276.08 72.1401 277.84C70.4701 276.45 68.8001 275.06 67.1301 273.67C59.3701 269.83 44.9201 261.38 32.7901 245C18.6101 225.84 15.4701 206.45 14.6001 197.73L14.5801 197.72Z" fill="url(#paint1_linear_2_19353)"/>
<path d="M112.43 274.1C112.5 274.93 112.84 277.84 115.25 280.31C117.41 282.53 119.95 283.06 120.82 283.21C120.75 284.08 120.68 284.95 120.61 285.82C119.47 286.35 117.18 287.61 115.28 290.16C113.35 292.75 112.8 295.33 112.62 296.58C112.17 295.02 111.18 292.35 108.92 289.75C107.18 287.75 105.33 286.53 104.05 285.82C103.98 284.95 103.91 284.08 103.84 283.21C104.46 283.15 108.45 282.69 110.85 279.2C112.26 277.14 112.43 275.04 112.45 274.1H112.43Z" fill="white"/>
<path d="M154.04 288.02C152.93 288.34 151.1 288.69 149.03 288.19C147.22 287.76 146 286.88 145.31 286.36C139.23 281.8 138.33 278.26 134.15 276.66C133.61 276.45 129.7 275.16 125.76 277C122.98 278.3 121 281.26 120.69 284.47C120.25 289.07 123.45 293.62 127.16 294.45C127.59 294.55 129.93 295.07 131.84 293.64C132.08 293.46 133.56 292.32 133.77 290.31C133.8 290.01 134.04 287.42 132.06 286.16C130.95 285.46 129.54 285.42 128.42 285.94C126.83 286.67 125.87 288.5 126.12 290.46C125.73 290.03 125.19 289.36 124.76 288.44C124.55 288 123.19 284.99 124.49 282.1C126.07 278.58 130.38 277.96 130.96 277.88C134.81 277.33 138.81 279.35 141.43 282.98" stroke="#0E0E0E" stroke-linecap="round" stroke-linejoin="round"/>
<path d="M120.61 285.93C119.2 286.63 118.17 287.42 117.45 288.07C113.3 291.84 112.69 297.33 112.4 299.9C112.21 301.57 112.23 302.95 112.27 303.8" stroke="#0E0E0E" stroke-linecap="round" stroke-linejoin="round"/>
<path d="M120.82 283.33C119.87 283.16 118.84 282.86 117.82 282.34C113.21 279.99 112.53 275.07 112.43 274.22" stroke="#0E0E0E" stroke-linecap="round" stroke-linejoin="round"/>
<path d="M70.6001 288.02C71.7101 288.34 73.5401 288.69 75.6101 288.19C77.4201 287.76 78.6401 286.88 79.3301 286.36C85.4101 281.8 86.3101 278.26 90.4901 276.66C91.0301 276.45 94.9401 275.16 98.8801 277C101.66 278.3 103.64 281.26 103.95 284.47C104.39 289.07 101.19 293.62 97.4801 294.45C97.0501 294.55 94.7101 295.07 92.8001 293.64C92.5601 293.46 91.0801 292.32 90.8701 290.31C90.8401 290.01 90.6001 287.42 92.5801 286.16C93.6901 285.46 95.1001 285.42 96.2201 285.94C97.8101 286.67 98.7701 288.5 98.5201 290.46C98.9101 290.03 99.4501 289.36 99.8801 288.44C100.09 288 101.45 284.99 100.15 282.1C98.5701 278.58 94.2601 277.96 93.6801 277.88C89.8301 277.33 85.8301 279.35 83.2101 282.98" stroke="#0E0E0E" stroke-linecap="round" stroke-linejoin="round"/>
<path d="M103.82 283.33C104.73 283.19 105.77 282.9 106.82 282.34C111.1 280.08 112.21 275.25 112.42 274.22" stroke="#0E0E0E" stroke-linecap="round" stroke-linejoin="round"/>
<path d="M71.54 278.88C71.69 278.54 72.48 276.79 74.33 276.21C76.29 275.59 78.01 276.73 78.73 277.21C81.76 279.22 82.06 283.05 82.09 283.67" stroke="#0E0E0E" stroke-linecap="round" stroke-linejoin="round"/>
<path d="M60.9101 269.66C61.7701 270.15 62.9801 270.89 64.3401 271.88C68.2701 274.74 71.3401 276.97 72.1401 280.61C72.8701 283.92 71.3801 286.71 71.1201 287.18C68.6701 291.6 63.5401 292.33 62.4801 292.45C57.7101 292.99 52.8701 290.47 49.8401 286.07" stroke="#0E0E0E" stroke-linecap="round" stroke-linejoin="round"/>
<path d="M50.5001 262.8C50.4501 273.09 52.9701 281.17 56.9601 283.4C59.0101 284.54 61.0901 284.57 61.0901 284.57C61.7801 284.57 65.2701 284.52 67.4801 281.64C69.4501 279.07 68.9601 276.13 68.8701 275.63" stroke="#0E0E0E" stroke-linecap="round" stroke-linejoin="round"/>
<path d="M22.33 268C21.81 268.26 20.15 269.03 18.36 268.57C15.17 267.76 14.81 263.91 14.79 263.63C14.6 261.18 16.1 258.33 18.96 257.31C21.16 256.53 23.28 257.15 24.41 257.48C28.07 258.55 30.08 261.04 31.08 262.3C34.28 266.38 32.72 268.36 36 271.26C36.89 272.05 38.69 273.65 41.45 274.07C44.32 274.52 45.5 273.28 48.12 274.01C50.69 274.73 52.02 276.62 52.36 277.15C52.52 277.39 54.39 280.4 52.63 283.43C52.27 284.06 51.2 285.89 48.79 286.42C46.6 286.89 44.19 286.09 42.87 284.52C41.74 283.18 41.41 281.29 42.29 279.79C42.48 279.46 43.08 278.44 44.44 278.03C45.58 277.69 47.03 277.84 48.03 278.64C48.91 279.35 49.07 280.26 49.1 280.53" stroke="#0E0E0E" stroke-linecap="round" stroke-linejoin="round"/>
<path d="M33.9401 268.46C34.3601 273.02 36.6901 276.77 40.1001 277.99C40.8801 278.27 42.1001 278.55 43.7201 278.35" stroke="#0E0E0E" stroke-linecap="round" stroke-linejoin="round"/>
<path d="M30.4801 261.39C31.1201 261.55 33.6801 262.13 35.8801 260.71C38.5501 258.97 39.6401 254.94 38.0301 251.1" stroke="#0E0E0E" stroke-linecap="round" stroke-linejoin="round"/>
<path d="M28.67 247.64C29.08 247.66 29.93 247.65 30.83 247.18C32.33 246.39 32.79 244.92 32.88 244.62" stroke="#0E0E0E" stroke-linecap="round" stroke-linejoin="round"/>
<path d="M14.1901 194.86C15.7901 207.74 21.4101 237.18 45.5901 258.73C50.7001 263.28 55.9201 266.85 60.9101 269.66" stroke="#0E0E0E" stroke-linecap="round" stroke-linejoin="round"/>
<path d="M112.43 274.1C112.5 274.93 112.84 277.84 115.25 280.31C117.41 282.53 119.95 283.06 120.82 283.21C120.75 284.08 120.68 284.95 120.61 285.82C119.99 286.1 119.14 286.54 118.23 287.23C116.18 288.8 115.2 290.64 114.34 292.3C113.59 293.76 112.62 296.02 112.12 299C112.11 297.57 111.89 293.46 108.91 289.74C107.22 287.62 105.28 286.43 104.04 285.81C103.97 284.94 103.9 284.07 103.83 283.2C104.45 283.14 108.44 282.68 110.84 279.19C112.25 277.13 112.42 275.03 112.44 274.09L112.43 274.1Z" fill="black" stroke="black" stroke-width="0.75" stroke-linecap="round" stroke-linejoin="round"/>
<path d="M70.6001 288.02C71.7101 288.34 73.5401 288.69 75.6101 288.19C77.4201 287.76 78.6401 286.88 79.3301 286.36C85.4101 281.8 86.3101 278.26 90.4901 276.66C91.0301 276.45 94.9401 275.16 98.8801 277C101.66 278.3 103.64 281.26 103.95 284.47C104.39 289.07 101.19 293.62 97.4801 294.45C97.0501 294.55 94.7101 295.07 92.8001 293.64C92.5601 293.46 91.0801 292.32 90.8701 290.31C90.8401 290.01 90.6001 287.42 92.5801 286.16C93.6901 285.46 95.1001 285.42 96.2201 285.94C97.8101 286.67 98.7701 288.5 98.5201 290.46C98.9101 290.03 99.4501 289.36 99.8801 288.44C100.09 288 101.45 284.99 100.15 282.1C98.5701 278.58 94.2601 277.96 93.6801 277.88C89.8301 277.33 85.8301 279.35 83.2101 282.98" stroke="#0E0E0E" stroke-linecap="round" stroke-linejoin="round"/>
<path d="M104.03 285.93C104.86 286.33 106.02 287 107.19 288.07C109.66 290.35 110.55 292.99 111.24 295.15C112.31 298.49 112.42 301.53 112.27 303.8" stroke="#0E0E0E" stroke-linecap="round" stroke-linejoin="round"/>
<path d="M103.82 283.33C104.73 283.19 105.77 282.9 106.82 282.34C111.14 280.05 112.22 275.11 112.42 274.1" stroke="#0E0E0E" stroke-linecap="round" stroke-linejoin="round"/>
<path d="M71.54 278.88C71.69 278.54 72.48 276.79 74.33 276.21C76.29 275.59 78.01 276.73 78.73 277.21C81.76 279.22 82.06 283.05 82.09 283.67" stroke="#0E0E0E" stroke-linecap="round" stroke-linejoin="round"/>
<path d="M60.9101 269.66C61.7701 270.15 62.9801 270.89 64.3401 271.88C68.2701 274.74 71.3401 276.97 72.1401 280.61C72.8701 283.92 71.3801 286.71 71.1201 287.18C68.6701 291.6 63.5401 292.33 62.4801 292.45C57.7101 292.99 52.8701 290.47 49.8401 286.07" stroke="#0E0E0E" stroke-linecap="round" stroke-linejoin="round"/>
<path d="M50.5001 262.8C50.4501 273.09 52.9701 281.17 56.9601 283.4C59.0101 284.54 61.0901 284.57 61.0901 284.57C61.7801 284.57 65.2701 284.52 67.4801 281.64C69.4501 279.07 68.9601 276.13 68.8701 275.63" stroke="#0E0E0E" stroke-linecap="round" stroke-linejoin="round"/>
<path d="M22.33 268C21.81 268.26 20.15 269.03 18.36 268.57C15.17 267.76 14.81 263.91 14.79 263.63C14.6 261.18 16.1 258.33 18.96 257.31C21.16 256.53 23.28 257.15 24.41 257.48C28.07 258.55 30.08 261.04 31.08 262.3C34.28 266.38 32.72 268.36 36 271.26C36.89 272.05 38.69 273.65 41.45 274.07C44.32 274.52 45.5 273.28 48.12 274.01C50.69 274.73 52.02 276.62 52.36 277.15C52.52 277.39 54.39 280.4 52.63 283.43C52.27 284.06 51.2 285.89 48.79 286.42C46.6 286.89 44.19 286.09 42.87 284.52C41.74 283.18 41.41 281.29 42.29 279.79C42.48 279.46 43.08 278.44 44.44 278.03C45.58 277.69 47.03 277.84 48.03 278.64C48.91 279.35 49.07 280.26 49.1 280.53" stroke="#0E0E0E" stroke-linecap="round" stroke-linejoin="round"/>
<path d="M33.9401 268.46C34.3601 273.02 36.6901 276.77 40.1001 277.99C40.8801 278.27 42.1001 278.55 43.7201 278.35" stroke="#0E0E0E" stroke-linecap="round" stroke-linejoin="round"/>
<path d="M14.2501 252.55C14.3701 252.75 17.0301 257.01 21.0101 256.76C24.2301 256.56 26.1301 253.54 26.9601 252.22C31.5701 244.86 26.6401 234.78 25.8801 233.27" stroke="#0E0E0E" stroke-linecap="round" stroke-linejoin="round"/>
<path d="M30.4801 261.39C31.1201 261.55 33.6801 262.13 35.8801 260.71C38.5501 258.97 39.6401 254.94 38.0301 251.1" stroke="#0E0E0E" stroke-linecap="round" stroke-linejoin="round"/>
<path d="M28.67 247.64C29.08 247.66 29.93 247.65 30.83 247.18C32.33 246.39 32.79 244.92 32.88 244.62" stroke="#0E0E0E" stroke-linecap="round" stroke-linejoin="round"/>
<path d="M14.1901 194.86C15.7901 207.74 21.4101 237.18 45.5901 258.73C50.7001 263.28 55.9201 266.85 60.9101 269.66" stroke="#0E0E0E" stroke-linecap="round" stroke-linejoin="round"/>
<path d="M166.28 258.99V257.55H175.86V258.93H175.34C175.19 258.93 175.02 258.96 174.84 259.01C174.66 259.07 174.51 259.18 174.38 259.34C174.27 259.51 174.21 259.72 174.21 259.97C174.21 260.22 174.27 260.5 174.4 260.81L174.42 260.85L177.93 269.39C178.68 269.51 179.46 269.58 180.25 269.58C182.77 269.58 185.08 268.98 187.15 267.79C189.23 266.6 190.78 264.98 191.82 262.93L192.01 262.47L192.05 262.37C192.26 261.85 192.36 261.37 192.36 260.93C192.36 260.23 192.1 259.7 191.59 259.32L191.57 259.3C191.21 259.06 190.75 258.94 190.21 258.94H189.67L189.69 257.56H199.27L199.25 258.94H198.73C197.68 258.94 196.65 259.31 195.61 260.04C194.58 260.77 193.82 261.68 193.35 262.77L193.31 262.87L185.09 282.89C184.89 283.36 184.8 283.82 184.8 284.25C184.8 284.81 184.97 285.27 185.3 285.65C185.94 286.08 186.55 286.3 187.12 286.3L187.69 286.26V287.68H180.91L170.03 261.22C169.75 260.58 169.3 260.04 168.68 259.6C168.06 259.16 167.45 258.94 166.85 258.94L166.28 259V258.99ZM180.54 270.95H178.55L183.51 283C183.61 282.82 183.7 282.64 183.78 282.46L183.86 282.25L189.97 267.38C188.26 268.91 186.2 269.97 183.82 270.54C183.71 270.57 183.58 270.6 183.44 270.62C182.49 270.83 181.52 270.94 180.53 270.95H180.54Z" fill="black"/>
<path d="M176.97 246.68C181.41 246.79 182.44 243.39 182.67 241.76C182.91 243.39 183.93 246.79 188.37 246.68C194.21 246.54 194.99 239.99 192.95 236.68C190.91 233.37 189.85 232.31 187.81 230.2C185.89 228.21 183.59 225.97 182.74 224.6C182.74 224.6 182.69 224.44 182.67 224.48C182.64 224.44 182.6 224.6 182.6 224.6C181.75 225.97 179.45 228.21 177.53 230.2C175.49 232.31 174.43 233.37 172.39 236.68C170.35 239.99 171.12 246.54 176.97 246.68Z" fill="#EB1C24" stroke="black" stroke-width="0.75" stroke-linecap="round" stroke-linejoin="round"/>
<path d="M58.26 58.0699V59.5099H48.68V58.1299H49.2C49.35 58.1299 49.52 58.0999 49.7 58.0499C49.88 57.9899 50.03 57.8799 50.16 57.7199C50.27 57.5499 50.33 57.3399 50.33 57.0899C50.33 56.8399 50.27 56.5599 50.14 56.2499L50.12 56.2099L46.61 47.6699C45.86 47.5499 45.08 47.4799 44.29 47.4799C41.77 47.4799 39.46 48.0799 37.39 49.2699C35.31 50.4599 33.76 52.0799 32.72 54.1299L32.53 54.5899L32.49 54.6899C32.28 55.2099 32.18 55.6899 32.18 56.1299C32.18 56.8299 32.44 57.3599 32.95 57.7399L32.97 57.7599C33.33 57.9999 33.79 58.1199 34.33 58.1199H34.87L34.85 59.4999H25.27L25.29 58.1199H25.81C26.86 58.1199 27.89 57.7499 28.93 57.0199C29.96 56.2899 30.72 55.3799 31.19 54.2899L31.23 54.1899L39.45 34.1699C39.65 33.6999 39.74 33.2399 39.74 32.8099C39.74 32.2499 39.57 31.7899 39.24 31.4099C38.6 30.9799 37.99 30.7599 37.42 30.7599L36.85 30.7999V29.3799H43.63L54.51 55.8399C54.79 56.4799 55.24 57.0199 55.86 57.4599C56.48 57.8999 57.09 58.1199 57.69 58.1199L58.26 58.0599V58.0699ZM43.99 46.0999H45.98L41.02 34.0499C40.92 34.2299 40.83 34.4099 40.75 34.5899L40.67 34.7999L34.56 49.6699C36.27 48.1399 38.33 47.0799 40.71 46.5099C40.82 46.4799 40.95 46.4499 41.09 46.4299C42.04 46.2199 43.01 46.1099 44 46.0999H43.99Z" fill="black"/>
<path d="M47.75 70.3699C43.31 70.2599 42.28 73.6599 42.05 75.2899C41.81 73.6599 40.79 70.2599 36.35 70.3699C30.51 70.5099 29.73 77.0599 31.77 80.3699C33.81 83.6799 34.87 84.7399 36.91 86.8499C38.83 88.8399 41.13 91.0799 41.98 92.4499C41.98 92.4499 42.03 92.6099 42.05 92.5699C42.08 92.6099 42.12 92.4499 42.12 92.4499C42.97 91.0799 45.27 88.8399 47.19 86.8499C49.23 84.7399 50.29 83.6799 52.33 80.3699C54.37 77.0599 53.6 70.5099 47.75 70.3699Z" fill="#EB1C24" stroke="black" stroke-width="0.75" stroke-linecap="round" stroke-linejoin="round"/>
<path d="M137.26 103.27C114.72 102.73 109.53 119.94 108.33 128.22C107.14 119.94 101.94 102.72 79.4 103.27C49.76 103.98 45.83 137.2 56.19 153.98C61.08 161.9 64.85 167.27 68.56 171.87C71.67 175.72 74.41 178.75 82.26 186.84C103.14 208.36 103.16 206.99 104.29 209.8C110.29 224.63 100.63 239.87 107.4 243.97C108.43 244.59 110.44 245.32 111.75 244.49C116.22 241.68 105.59 225.35 112.04 210.36C113.8 206.26 116.43 203.21 117.33 203.56C118.76 204.12 115.66 213.18 118.46 214.72C119.24 215.15 120.29 214.88 120.92 214.53C123.99 212.8 121.52 206.64 123.19 200.36C124.14 196.78 125.7 195.9 134.39 186.86C136.93 184.21 143.59 177.46 148.09 171.89C151.8 167.3 155.57 161.92 160.46 154C170.82 137.21 166.89 104 137.25 103.29L137.26 103.27Z" fill="#EB1C24" stroke="black" stroke-width="0.75" stroke-linecap="round" stroke-linejoin="round"/>
<path d="M102.78 124.5C102.03 122.75 98.68 115.46 90.31 111.74C88.82 111.08 81.47 108 74.23 110.57C64.78 113.93 58.37 125.92 59.98 139.8C59.94 138.61 59.66 125.94 69.05 119.11C78.27 112.4 93.04 114.04 102.78 124.5Z" fill="#AC1217"/>
<path d="M63.95 152.28C70.13 148.1 77.73 147.37 83.51 150.58C84.31 151.02 89.3399 153.91 91.2399 159.8C91.6399 161.03 92.6099 164.04 91.7799 167.55C90.82 171.61 88.1 173.59 88.87 176.83C89.2 178.21 89.9 178.74 90.12 178.89C91.16 179.6 92.68 179.47 93.69 178.89C95.74 177.7 96.2299 174.28 95.8899 171.93C95.58 169.8 94.67 168.68 95.04 166.42C95.09 166.14 95.33 164.67 95.8899 164.58C96.2 164.53 97.4099 164.75 100.59 175.29C102.45 181.47 104.73 190.33 106.43 201.82C101.1 195.45 96.6099 190.38 93.5199 186.94C85.0799 177.56 81.3 174.02 74.9 166.39C69.99 160.53 66.27 155.52 63.95 152.28Z" fill="#AC1217"/>
<path d="M110.72 202.25C114.61 198.34 118.54 194.22 122.49 189.9C130.75 180.87 138.14 171.95 144.76 163.32C137.24 169.79 129.01 177.92 120.97 188.01C117.08 192.89 113.68 197.68 110.71 202.25H110.72Z" fill="#AC1217"/>
<path d="M148.01 158.04C149.73 156.17 152 153.32 153.88 149.46C155.06 147.05 162.18 132.4 154.66 121.1C150.23 114.44 143.12 112.55 142.19 112.31C135.32 110.59 129.72 112.89 128.02 113.67C130.35 113.64 134.35 113.88 138.79 115.8C140.54 116.55 145.61 118.81 149.28 124.02C155.25 132.5 153.14 142.63 152.26 146.91C151.24 151.83 149.41 155.62 148.02 158.04H148.01Z" fill="#AC1217"/>
<defs>
<linearGradient id="paint0_linear_2_19353" x1="210.3" y1="65.19" x2="14.77" y2="65.19" gradientUnits="userSpaceOnUse">
<stop stop-color="#8F8587"/>
<stop offset="0.24" stop-color="#C3BEBF"/>
<stop offset="0.45" stop-color="#EBEAEA"/>
<stop offset="0.56" stop-color="#FBFBFB"/>
</linearGradient>
<linearGradient id="paint1_linear_2_19353" x1="14.5801" y1="250.51" x2="210.2" y2="250.51" gradientUnits="userSpaceOnUse">
<stop stop-color="#8F8587"/>
<stop offset="0.25" stop-color="#C3BEBF"/>
<stop offset="0.46" stop-color="#EBEAEA"/>
<stop offset="0.57" stop-color="#FBFBFB"/>
</linearGradient>
</defs>
</svg>
