<?xml version="1.0" encoding="UTF-8"?>
<svg xmlns="http://www.w3.org/2000/svg" xmlns:xlink="http://www.w3.org/1999/xlink" width="612" height="792" viewBox="0 0 612 792">
<defs>
<clipPath id="clip-0">
<path clip-rule="nonzero" d="M 6 6 L 174.75 6 L 174.75 244 L 6 244 Z M 6 6 "/>
</clipPath>
<clipPath id="clip-1">
<path clip-rule="nonzero" d="M 17 16 L 164 16 L 164 94 L 17 94 Z M 17 16 "/>
</clipPath>
<clipPath id="clip-2">
<path clip-rule="nonzero" d="M 163.710938 93.921875 C 163.710938 68.023438 163.71875 42.121094 163.726562 16.222656 C 114.871094 16.222656 66.007812 16.222656 17.152344 16.230469 C 17.128906 41.707031 17.109375 67.183594 17.085938 92.664062 C 19.648438 81.226562 24.824219 64.359375 34.695312 55.351562 C 42.246094 48.464844 46.019531 45.015625 48.976562 43.636719 C 50.347656 42.988281 54.734375 41.09375 58.363281 36.660156 C 59.039062 35.84375 59.527344 35.121094 59.835938 34.640625 C 60.148438 35.0625 61.363281 36.613281 63.039062 36.644531 C 65.210938 36.683594 67.640625 34.132812 67.761719 30.292969 C 68.015625 30.863281 70.15625 35.40625 75.015625 36.433594 C 77.355469 36.929688 79.320312 36.40625 80.332031 36.046875 C 80.992188 35.496094 81.871094 34.648438 82.671875 33.433594 C 83.460938 32.242188 83.886719 31.125 84.136719 30.316406 L 96.683594 30.316406 C 96.757812 30.78125 97.363281 34.207031 100.484375 35.917969 C 103.539062 37.589844 106.636719 36.316406 107.585938 35.933594 C 110.878906 34.605469 112.273438 31.867188 112.582031 31.222656 C 113.324219 34.761719 115.800781 36.953125 117.976562 36.78125 C 118.328125 36.75 119.460938 36.601562 120.636719 35.28125 L 124.394531 38.40625 C 125.863281 39.277344 127.925781 40.558594 130.304688 42.226562 C 133.09375 44.175781 142.351562 50.746094 149.617188 60.1875 C 159.269531 72.726562 162.503906 86.535156 163.703125 93.90625 Z M 163.710938 93.921875 "/>
</clipPath>
<linearGradient id="linear-pattern-0" gradientUnits="userSpaceOnUse" x1="210.299991" y1="65.43" x2="14.779999" y2="65.43" gradientTransform="matrix(0.75, 0, 0, 0.75, 6, 6)">
<stop offset="0" stop-color="rgb(56.098938%, 52.198792%, 52.89917%)" stop-opacity="1"/>
<stop offset="0.00390625" stop-color="rgb(56.430054%, 52.561951%, 53.256226%)" stop-opacity="1"/>
<stop offset="0.0078125" stop-color="rgb(56.762695%, 52.92511%, 53.614807%)" stop-opacity="1"/>
<stop offset="0.0117188" stop-color="rgb(57.095337%, 53.288269%, 53.973389%)" stop-opacity="1"/>
<stop offset="0.015625" stop-color="rgb(57.427979%, 53.651428%, 54.33197%)" stop-opacity="1"/>
<stop offset="0.0195312" stop-color="rgb(57.759094%, 54.013062%, 54.689026%)" stop-opacity="1"/>
<stop offset="0.0234375" stop-color="rgb(58.091736%, 54.376221%, 55.047607%)" stop-opacity="1"/>
<stop offset="0.0273438" stop-color="rgb(58.422852%, 54.73938%, 55.404663%)" stop-opacity="1"/>
<stop offset="0.03125" stop-color="rgb(58.755493%, 55.102539%, 55.763245%)" stop-opacity="1"/>
<stop offset="0.0351563" stop-color="rgb(59.086609%, 55.465698%, 56.121826%)" stop-opacity="1"/>
<stop offset="0.0390625" stop-color="rgb(59.41925%, 55.828857%, 56.480408%)" stop-opacity="1"/>
<stop offset="0.0429688" stop-color="rgb(59.750366%, 56.192017%, 56.837463%)" stop-opacity="1"/>
<stop offset="0.046875" stop-color="rgb(60.083008%, 56.555176%, 57.196045%)" stop-opacity="1"/>
<stop offset="0.0507813" stop-color="rgb(60.415649%, 56.916809%, 57.553101%)" stop-opacity="1"/>
<stop offset="0.0546875" stop-color="rgb(60.748291%, 57.279968%, 57.911682%)" stop-opacity="1"/>
<stop offset="0.0585938" stop-color="rgb(61.079407%, 57.643127%, 58.270264%)" stop-opacity="1"/>
<stop offset="0.0625" stop-color="rgb(61.412048%, 58.006287%, 58.628845%)" stop-opacity="1"/>
<stop offset="0.0664063" stop-color="rgb(61.743164%, 58.369446%, 58.985901%)" stop-opacity="1"/>
<stop offset="0.0703125" stop-color="rgb(62.075806%, 58.732605%, 59.344482%)" stop-opacity="1"/>
<stop offset="0.0742188" stop-color="rgb(62.406921%, 59.095764%, 59.701538%)" stop-opacity="1"/>
<stop offset="0.078125" stop-color="rgb(62.739563%, 59.458923%, 60.06012%)" stop-opacity="1"/>
<stop offset="0.0820313" stop-color="rgb(63.070679%, 59.820557%, 60.418701%)" stop-opacity="1"/>
<stop offset="0.0859375" stop-color="rgb(63.40332%, 60.183716%, 60.777283%)" stop-opacity="1"/>
<stop offset="0.0898438" stop-color="rgb(63.735962%, 60.546875%, 61.134338%)" stop-opacity="1"/>
<stop offset="0.09375" stop-color="rgb(64.068604%, 60.910034%, 61.49292%)" stop-opacity="1"/>
<stop offset="0.0976563" stop-color="rgb(64.399719%, 61.273193%, 61.849976%)" stop-opacity="1"/>
<stop offset="0.101563" stop-color="rgb(64.732361%, 61.636353%, 62.208557%)" stop-opacity="1"/>
<stop offset="0.105469" stop-color="rgb(65.063477%, 61.999512%, 62.567139%)" stop-opacity="1"/>
<stop offset="0.109375" stop-color="rgb(65.396118%, 62.362671%, 62.92572%)" stop-opacity="1"/>
<stop offset="0.113281" stop-color="rgb(65.727234%, 62.724304%, 63.282776%)" stop-opacity="1"/>
<stop offset="0.117188" stop-color="rgb(66.059875%, 63.087463%, 63.641357%)" stop-opacity="1"/>
<stop offset="0.121094" stop-color="rgb(66.390991%, 63.450623%, 63.998413%)" stop-opacity="1"/>
<stop offset="0.125" stop-color="rgb(66.723633%, 63.813782%, 64.356995%)" stop-opacity="1"/>
<stop offset="0.128906" stop-color="rgb(67.056274%, 64.176941%, 64.715576%)" stop-opacity="1"/>
<stop offset="0.132813" stop-color="rgb(67.388916%, 64.5401%, 65.074158%)" stop-opacity="1"/>
<stop offset="0.136719" stop-color="rgb(67.720032%, 64.901733%, 65.431213%)" stop-opacity="1"/>
<stop offset="0.140625" stop-color="rgb(68.052673%, 65.264893%, 65.789795%)" stop-opacity="1"/>
<stop offset="0.144531" stop-color="rgb(68.383789%, 65.628052%, 66.146851%)" stop-opacity="1"/>
<stop offset="0.148438" stop-color="rgb(68.716431%, 65.991211%, 66.505432%)" stop-opacity="1"/>
<stop offset="0.152344" stop-color="rgb(69.047546%, 66.35437%, 66.864014%)" stop-opacity="1"/>
<stop offset="0.15625" stop-color="rgb(69.380188%, 66.717529%, 67.222595%)" stop-opacity="1"/>
<stop offset="0.160156" stop-color="rgb(69.711304%, 67.080688%, 67.579651%)" stop-opacity="1"/>
<stop offset="0.164063" stop-color="rgb(70.043945%, 67.443848%, 67.938232%)" stop-opacity="1"/>
<stop offset="0.167969" stop-color="rgb(70.376587%, 67.805481%, 68.295288%)" stop-opacity="1"/>
<stop offset="0.171875" stop-color="rgb(70.709229%, 68.16864%, 68.65387%)" stop-opacity="1"/>
<stop offset="0.175781" stop-color="rgb(71.040344%, 68.531799%, 69.012451%)" stop-opacity="1"/>
<stop offset="0.179688" stop-color="rgb(71.372986%, 68.894958%, 69.371033%)" stop-opacity="1"/>
<stop offset="0.183594" stop-color="rgb(71.704102%, 69.258118%, 69.728088%)" stop-opacity="1"/>
<stop offset="0.1875" stop-color="rgb(72.036743%, 69.621277%, 70.08667%)" stop-opacity="1"/>
<stop offset="0.191406" stop-color="rgb(72.367859%, 69.984436%, 70.443726%)" stop-opacity="1"/>
<stop offset="0.195313" stop-color="rgb(72.7005%, 70.347595%, 70.802307%)" stop-opacity="1"/>
<stop offset="0.199219" stop-color="rgb(73.031616%, 70.709229%, 71.160889%)" stop-opacity="1"/>
<stop offset="0.203125" stop-color="rgb(73.364258%, 71.072388%, 71.51947%)" stop-opacity="1"/>
<stop offset="0.207031" stop-color="rgb(73.696899%, 71.435547%, 71.876526%)" stop-opacity="1"/>
<stop offset="0.210938" stop-color="rgb(74.029541%, 71.798706%, 72.235107%)" stop-opacity="1"/>
<stop offset="0.214844" stop-color="rgb(74.360657%, 72.161865%, 72.592163%)" stop-opacity="1"/>
<stop offset="0.21875" stop-color="rgb(74.693298%, 72.525024%, 72.950745%)" stop-opacity="1"/>
<stop offset="0.222656" stop-color="rgb(75.024414%, 72.888184%, 73.309326%)" stop-opacity="1"/>
<stop offset="0.226563" stop-color="rgb(75.357056%, 73.251343%, 73.667908%)" stop-opacity="1"/>
<stop offset="0.230469" stop-color="rgb(75.688171%, 73.612976%, 74.024963%)" stop-opacity="1"/>
<stop offset="0.234375" stop-color="rgb(76.020813%, 73.976135%, 74.383545%)" stop-opacity="1"/>
<stop offset="0.238281" stop-color="rgb(76.341248%, 74.327087%, 74.728394%)" stop-opacity="1"/>
<stop offset="0.242188" stop-color="rgb(76.663208%, 74.679565%, 75.074768%)" stop-opacity="1"/>
<stop offset="0.246094" stop-color="rgb(76.954651%, 75.001526%, 75.389099%)" stop-opacity="1"/>
<stop offset="0.25" stop-color="rgb(77.24762%, 75.323486%, 75.70343%)" stop-opacity="1"/>
<stop offset="0.253906" stop-color="rgb(77.539062%, 75.645447%, 76.017761%)" stop-opacity="1"/>
<stop offset="0.257812" stop-color="rgb(77.830505%, 75.967407%, 76.332092%)" stop-opacity="1"/>
<stop offset="0.261719" stop-color="rgb(78.121948%, 76.287842%, 76.646423%)" stop-opacity="1"/>
<stop offset="0.265625" stop-color="rgb(78.414917%, 76.609802%, 76.960754%)" stop-opacity="1"/>
<stop offset="0.269531" stop-color="rgb(78.70636%, 76.931763%, 77.275085%)" stop-opacity="1"/>
<stop offset="0.273438" stop-color="rgb(78.999329%, 77.253723%, 77.589417%)" stop-opacity="1"/>
<stop offset="0.277344" stop-color="rgb(79.290771%, 77.575684%, 77.903748%)" stop-opacity="1"/>
<stop offset="0.28125" stop-color="rgb(79.58374%, 77.897644%, 78.219604%)" stop-opacity="1"/>
<stop offset="0.285156" stop-color="rgb(79.875183%, 78.219604%, 78.533936%)" stop-opacity="1"/>
<stop offset="0.289062" stop-color="rgb(80.166626%, 78.541565%, 78.848267%)" stop-opacity="1"/>
<stop offset="0.292969" stop-color="rgb(80.458069%, 78.862%, 79.162598%)" stop-opacity="1"/>
<stop offset="0.296875" stop-color="rgb(80.751038%, 79.18396%, 79.476929%)" stop-opacity="1"/>
<stop offset="0.300781" stop-color="rgb(81.04248%, 79.50592%, 79.79126%)" stop-opacity="1"/>
<stop offset="0.304688" stop-color="rgb(81.335449%, 79.827881%, 80.105591%)" stop-opacity="1"/>
<stop offset="0.308594" stop-color="rgb(81.626892%, 80.149841%, 80.419922%)" stop-opacity="1"/>
<stop offset="0.3125" stop-color="rgb(81.919861%, 80.471802%, 80.734253%)" stop-opacity="1"/>
<stop offset="0.316406" stop-color="rgb(82.211304%, 80.793762%, 81.048584%)" stop-opacity="1"/>
<stop offset="0.320312" stop-color="rgb(82.504272%, 81.115723%, 81.362915%)" stop-opacity="1"/>
<stop offset="0.324219" stop-color="rgb(82.795715%, 81.437683%, 81.677246%)" stop-opacity="1"/>
<stop offset="0.328125" stop-color="rgb(83.087158%, 81.759644%, 81.991577%)" stop-opacity="1"/>
<stop offset="0.332031" stop-color="rgb(83.378601%, 82.080078%, 82.305908%)" stop-opacity="1"/>
<stop offset="0.335938" stop-color="rgb(83.67157%, 82.402039%, 82.620239%)" stop-opacity="1"/>
<stop offset="0.339844" stop-color="rgb(83.963013%, 82.723999%, 82.93457%)" stop-opacity="1"/>
<stop offset="0.34375" stop-color="rgb(84.255981%, 83.045959%, 83.248901%)" stop-opacity="1"/>
<stop offset="0.347656" stop-color="rgb(84.547424%, 83.36792%, 83.563232%)" stop-opacity="1"/>
<stop offset="0.351562" stop-color="rgb(84.840393%, 83.68988%, 83.877563%)" stop-opacity="1"/>
<stop offset="0.355469" stop-color="rgb(85.131836%, 84.011841%, 84.191895%)" stop-opacity="1"/>
<stop offset="0.359375" stop-color="rgb(85.423279%, 84.333801%, 84.506226%)" stop-opacity="1"/>
<stop offset="0.363281" stop-color="rgb(85.714722%, 84.655762%, 84.820557%)" stop-opacity="1"/>
<stop offset="0.367188" stop-color="rgb(86.00769%, 84.977722%, 85.134888%)" stop-opacity="1"/>
<stop offset="0.371094" stop-color="rgb(86.299133%, 85.298157%, 85.449219%)" stop-opacity="1"/>
<stop offset="0.375" stop-color="rgb(86.592102%, 85.620117%, 85.76355%)" stop-opacity="1"/>
<stop offset="0.378906" stop-color="rgb(86.883545%, 85.942078%, 86.077881%)" stop-opacity="1"/>
<stop offset="0.382813" stop-color="rgb(87.176514%, 86.264038%, 86.392212%)" stop-opacity="1"/>
<stop offset="0.386719" stop-color="rgb(87.467957%, 86.585999%, 86.706543%)" stop-opacity="1"/>
<stop offset="0.390625" stop-color="rgb(87.760925%, 86.907959%, 87.020874%)" stop-opacity="1"/>
<stop offset="0.394531" stop-color="rgb(88.052368%, 87.229919%, 87.335205%)" stop-opacity="1"/>
<stop offset="0.398438" stop-color="rgb(88.343811%, 87.55188%, 87.649536%)" stop-opacity="1"/>
<stop offset="0.402344" stop-color="rgb(88.635254%, 87.87384%, 87.963867%)" stop-opacity="1"/>
<stop offset="0.40625" stop-color="rgb(88.928223%, 88.195801%, 88.278198%)" stop-opacity="1"/>
<stop offset="0.410156" stop-color="rgb(89.219666%, 88.516235%, 88.592529%)" stop-opacity="1"/>
<stop offset="0.414063" stop-color="rgb(89.512634%, 88.838196%, 88.90686%)" stop-opacity="1"/>
<stop offset="0.417969" stop-color="rgb(89.804077%, 89.160156%, 89.221191%)" stop-opacity="1"/>
<stop offset="0.421875" stop-color="rgb(90.097046%, 89.482117%, 89.535522%)" stop-opacity="1"/>
<stop offset="0.425781" stop-color="rgb(90.388489%, 89.804077%, 89.849854%)" stop-opacity="1"/>
<stop offset="0.429688" stop-color="rgb(90.679932%, 90.126038%, 90.164185%)" stop-opacity="1"/>
<stop offset="0.433594" stop-color="rgb(90.971375%, 90.447998%, 90.478516%)" stop-opacity="1"/>
<stop offset="0.4375" stop-color="rgb(91.264343%, 90.769958%, 90.792847%)" stop-opacity="1"/>
<stop offset="0.441406" stop-color="rgb(91.555786%, 91.090393%, 91.107178%)" stop-opacity="1"/>
<stop offset="0.445313" stop-color="rgb(91.848755%, 91.412354%, 91.421509%)" stop-opacity="1"/>
<stop offset="0.449219" stop-color="rgb(92.111206%, 91.699219%, 91.703796%)" stop-opacity="1"/>
<stop offset="0.453125" stop-color="rgb(92.375183%, 91.986084%, 91.986084%)" stop-opacity="1"/>
<stop offset="0.457031" stop-color="rgb(92.59491%, 92.221069%, 92.221069%)" stop-opacity="1"/>
<stop offset="0.460938" stop-color="rgb(92.816162%, 92.456055%, 92.456055%)" stop-opacity="1"/>
<stop offset="0.464844" stop-color="rgb(93.035889%, 92.689514%, 92.689514%)" stop-opacity="1"/>
<stop offset="0.46875" stop-color="rgb(93.255615%, 92.9245%, 92.9245%)" stop-opacity="1"/>
<stop offset="0.472656" stop-color="rgb(93.475342%, 93.157959%, 93.157959%)" stop-opacity="1"/>
<stop offset="0.476563" stop-color="rgb(93.696594%, 93.392944%, 93.392944%)" stop-opacity="1"/>
<stop offset="0.480469" stop-color="rgb(93.916321%, 93.626404%, 93.626404%)" stop-opacity="1"/>
<stop offset="0.484375" stop-color="rgb(94.136047%, 93.861389%, 93.861389%)" stop-opacity="1"/>
<stop offset="0.488281" stop-color="rgb(94.355774%, 94.094849%, 94.094849%)" stop-opacity="1"/>
<stop offset="0.492188" stop-color="rgb(94.577026%, 94.329834%, 94.329834%)" stop-opacity="1"/>
<stop offset="0.496094" stop-color="rgb(94.796753%, 94.564819%, 94.564819%)" stop-opacity="1"/>
<stop offset="0.5" stop-color="rgb(95.018005%, 94.799805%, 94.799805%)" stop-opacity="1"/>
<stop offset="0.503906" stop-color="rgb(95.237732%, 95.033264%, 95.033264%)" stop-opacity="1"/>
<stop offset="0.507812" stop-color="rgb(95.457458%, 95.26825%, 95.26825%)" stop-opacity="1"/>
<stop offset="0.511719" stop-color="rgb(95.677185%, 95.501709%, 95.501709%)" stop-opacity="1"/>
<stop offset="0.515625" stop-color="rgb(95.898438%, 95.736694%, 95.736694%)" stop-opacity="1"/>
<stop offset="0.519531" stop-color="rgb(96.118164%, 95.970154%, 95.970154%)" stop-opacity="1"/>
<stop offset="0.523437" stop-color="rgb(96.337891%, 96.205139%, 96.205139%)" stop-opacity="1"/>
<stop offset="0.527344" stop-color="rgb(96.557617%, 96.438599%, 96.438599%)" stop-opacity="1"/>
<stop offset="0.53125" stop-color="rgb(96.77887%, 96.673584%, 96.673584%)" stop-opacity="1"/>
<stop offset="0.535156" stop-color="rgb(96.998596%, 96.908569%, 96.908569%)" stop-opacity="1"/>
<stop offset="0.539062" stop-color="rgb(97.219849%, 97.143555%, 97.143555%)" stop-opacity="1"/>
<stop offset="0.542969" stop-color="rgb(97.439575%, 97.377014%, 97.377014%)" stop-opacity="1"/>
<stop offset="0.546875" stop-color="rgb(97.659302%, 97.612%, 97.612%)" stop-opacity="1"/>
<stop offset="0.550781" stop-color="rgb(97.879028%, 97.845459%, 97.845459%)" stop-opacity="1"/>
<stop offset="0.554687" stop-color="rgb(98.100281%, 98.080444%, 98.080444%)" stop-opacity="1"/>
<stop offset="0.5625" stop-color="rgb(98.249817%, 98.239136%, 98.239136%)" stop-opacity="1"/>
<stop offset="0.625" stop-color="rgb(98.399353%, 98.399353%, 98.399353%)" stop-opacity="1"/>
<stop offset="0.75" stop-color="rgb(98.399353%, 98.399353%, 98.399353%)" stop-opacity="1"/>
<stop offset="1" stop-color="rgb(98.399353%, 98.399353%, 98.399353%)" stop-opacity="1"/>
</linearGradient>
<clipPath id="clip-3">
<path clip-rule="nonzero" d="M 16 154 L 164 154 L 164 234 L 16 234 Z M 16 154 "/>
</clipPath>
<clipPath id="clip-4">
<path clip-rule="nonzero" d="M 16.933594 154.46875 C 16.957031 180.863281 16.972656 207.253906 16.996094 233.640625 C 65.859375 233.632812 114.71875 233.617188 163.582031 233.609375 C 163.605469 208.132812 163.628906 182.65625 163.648438 157.175781 C 158.796875 168.464844 151.359375 182.21875 139.816406 195.960938 C 135.359375 201.253906 130.875 205.875 126.546875 209.878906 C 125.347656 211.46875 124.148438 213.050781 122.953125 214.640625 C 122.273438 214.828125 121.589844 215.011719 120.90625 215.199219 C 120.59375 214.777344 119.378906 213.226562 117.703125 213.195312 C 115.53125 213.15625 113.101562 215.707031 112.980469 219.546875 C 112.726562 218.976562 110.585938 214.433594 105.726562 213.40625 C 103.386719 212.910156 101.421875 213.433594 100.410156 213.796875 C 99.75 214.34375 98.871094 215.191406 98.070312 216.40625 C 97.28125 217.597656 96.855469 218.714844 96.609375 219.523438 L 84.058594 219.523438 C 83.984375 219.058594 83.378906 215.632812 80.257812 213.921875 C 77.203125 212.25 74.109375 213.523438 73.15625 213.90625 C 69.863281 215.234375 68.46875 217.972656 68.160156 218.617188 C 67.417969 215.078125 64.941406 212.886719 62.765625 213.058594 C 62.414062 213.089844 61.28125 213.238281 60.105469 214.558594 C 58.851562 213.515625 57.601562 212.476562 56.347656 211.433594 C 50.527344 208.550781 39.691406 202.214844 30.59375 189.929688 C 19.957031 175.558594 17.601562 161.015625 16.949219 154.476562 Z M 16.933594 154.46875 "/>
</clipPath>
<linearGradient id="linear-pattern-1" gradientUnits="userSpaceOnUse" x1="14.580099" y1="250.75" x2="210.199991" y2="250.75" gradientTransform="matrix(0.75, 0, 0, 0.75, 6, 6)">
<stop offset="0" stop-color="rgb(56.098938%, 52.198792%, 52.89917%)" stop-opacity="1"/>
<stop offset="0.00390625" stop-color="rgb(56.417847%, 52.546692%, 53.242493%)" stop-opacity="1"/>
<stop offset="0.0078125" stop-color="rgb(56.736755%, 52.896118%, 53.587341%)" stop-opacity="1"/>
<stop offset="0.0117187" stop-color="rgb(57.055664%, 53.244019%, 53.930664%)" stop-opacity="1"/>
<stop offset="0.015625" stop-color="rgb(57.374573%, 53.593445%, 54.273987%)" stop-opacity="1"/>
<stop offset="0.0195312" stop-color="rgb(57.693481%, 53.941345%, 54.61731%)" stop-opacity="1"/>
<stop offset="0.0234375" stop-color="rgb(58.01239%, 54.289246%, 54.962158%)" stop-opacity="1"/>
<stop offset="0.0273437" stop-color="rgb(58.329773%, 54.637146%, 55.305481%)" stop-opacity="1"/>
<stop offset="0.03125" stop-color="rgb(58.648682%, 54.986572%, 55.648804%)" stop-opacity="1"/>
<stop offset="0.0351562" stop-color="rgb(58.96759%, 55.334473%, 55.992126%)" stop-opacity="1"/>
<stop offset="0.0390625" stop-color="rgb(59.286499%, 55.683899%, 56.336975%)" stop-opacity="1"/>
<stop offset="0.0429688" stop-color="rgb(59.605408%, 56.031799%, 56.680298%)" stop-opacity="1"/>
<stop offset="0.046875" stop-color="rgb(59.924316%, 56.3797%, 57.023621%)" stop-opacity="1"/>
<stop offset="0.0507812" stop-color="rgb(60.243225%, 56.7276%, 57.366943%)" stop-opacity="1"/>
<stop offset="0.0546875" stop-color="rgb(60.562134%, 57.077026%, 57.711792%)" stop-opacity="1"/>
<stop offset="0.0585937" stop-color="rgb(60.879517%, 57.424927%, 58.055115%)" stop-opacity="1"/>
<stop offset="0.0625" stop-color="rgb(61.198425%, 57.774353%, 58.398438%)" stop-opacity="1"/>
<stop offset="0.0664062" stop-color="rgb(61.517334%, 58.122253%, 58.74176%)" stop-opacity="1"/>
<stop offset="0.0703125" stop-color="rgb(61.836243%, 58.470154%, 59.086609%)" stop-opacity="1"/>
<stop offset="0.0742188" stop-color="rgb(62.155151%, 58.818054%, 59.429932%)" stop-opacity="1"/>
<stop offset="0.078125" stop-color="rgb(62.47406%, 59.16748%, 59.773254%)" stop-opacity="1"/>
<stop offset="0.0820312" stop-color="rgb(62.792969%, 59.515381%, 60.116577%)" stop-opacity="1"/>
<stop offset="0.0859375" stop-color="rgb(63.111877%, 59.864807%, 60.461426%)" stop-opacity="1"/>
<stop offset="0.0898438" stop-color="rgb(63.42926%, 60.212708%, 60.804749%)" stop-opacity="1"/>
<stop offset="0.09375" stop-color="rgb(63.748169%, 60.560608%, 61.148071%)" stop-opacity="1"/>
<stop offset="0.0976562" stop-color="rgb(64.067078%, 60.908508%, 61.491394%)" stop-opacity="1"/>
<stop offset="0.101562" stop-color="rgb(64.385986%, 61.257935%, 61.836243%)" stop-opacity="1"/>
<stop offset="0.105469" stop-color="rgb(64.704895%, 61.605835%, 62.179565%)" stop-opacity="1"/>
<stop offset="0.109375" stop-color="rgb(65.023804%, 61.955261%, 62.524414%)" stop-opacity="1"/>
<stop offset="0.113281" stop-color="rgb(65.342712%, 62.303162%, 62.867737%)" stop-opacity="1"/>
<stop offset="0.117187" stop-color="rgb(65.661621%, 62.652588%, 63.21106%)" stop-opacity="1"/>
<stop offset="0.121094" stop-color="rgb(65.98053%, 63.000488%, 63.554382%)" stop-opacity="1"/>
<stop offset="0.125" stop-color="rgb(66.299438%, 63.348389%, 63.899231%)" stop-opacity="1"/>
<stop offset="0.128906" stop-color="rgb(66.616821%, 63.696289%, 64.242554%)" stop-opacity="1"/>
<stop offset="0.132812" stop-color="rgb(66.93573%, 64.045715%, 64.585876%)" stop-opacity="1"/>
<stop offset="0.136719" stop-color="rgb(67.254639%, 64.393616%, 64.929199%)" stop-opacity="1"/>
<stop offset="0.140625" stop-color="rgb(67.573547%, 64.743042%, 65.274048%)" stop-opacity="1"/>
<stop offset="0.144531" stop-color="rgb(67.892456%, 65.090942%, 65.617371%)" stop-opacity="1"/>
<stop offset="0.148438" stop-color="rgb(68.211365%, 65.438843%, 65.960693%)" stop-opacity="1"/>
<stop offset="0.152344" stop-color="rgb(68.530273%, 65.786743%, 66.304016%)" stop-opacity="1"/>
<stop offset="0.15625" stop-color="rgb(68.849182%, 66.136169%, 66.648865%)" stop-opacity="1"/>
<stop offset="0.160156" stop-color="rgb(69.166565%, 66.48407%, 66.992188%)" stop-opacity="1"/>
<stop offset="0.164062" stop-color="rgb(69.485474%, 66.833496%, 67.33551%)" stop-opacity="1"/>
<stop offset="0.167969" stop-color="rgb(69.804382%, 67.181396%, 67.678833%)" stop-opacity="1"/>
<stop offset="0.171875" stop-color="rgb(70.123291%, 67.529297%, 68.023682%)" stop-opacity="1"/>
<stop offset="0.175781" stop-color="rgb(70.4422%, 67.877197%, 68.367004%)" stop-opacity="1"/>
<stop offset="0.179688" stop-color="rgb(70.761108%, 68.226624%, 68.710327%)" stop-opacity="1"/>
<stop offset="0.183594" stop-color="rgb(71.080017%, 68.574524%, 69.05365%)" stop-opacity="1"/>
<stop offset="0.1875" stop-color="rgb(71.398926%, 68.92395%, 69.398499%)" stop-opacity="1"/>
<stop offset="0.191406" stop-color="rgb(71.716309%, 69.271851%, 69.741821%)" stop-opacity="1"/>
<stop offset="0.195312" stop-color="rgb(72.035217%, 69.619751%, 70.085144%)" stop-opacity="1"/>
<stop offset="0.199219" stop-color="rgb(72.354126%, 69.967651%, 70.428467%)" stop-opacity="1"/>
<stop offset="0.203125" stop-color="rgb(72.673035%, 70.317078%, 70.773315%)" stop-opacity="1"/>
<stop offset="0.207031" stop-color="rgb(72.991943%, 70.664978%, 71.116638%)" stop-opacity="1"/>
<stop offset="0.210937" stop-color="rgb(73.310852%, 71.014404%, 71.461487%)" stop-opacity="1"/>
<stop offset="0.214844" stop-color="rgb(73.629761%, 71.362305%, 71.80481%)" stop-opacity="1"/>
<stop offset="0.21875" stop-color="rgb(73.948669%, 71.710205%, 72.148132%)" stop-opacity="1"/>
<stop offset="0.222656" stop-color="rgb(74.267578%, 72.058105%, 72.491455%)" stop-opacity="1"/>
<stop offset="0.226562" stop-color="rgb(74.586487%, 72.407532%, 72.836304%)" stop-opacity="1"/>
<stop offset="0.230469" stop-color="rgb(74.90387%, 72.755432%, 73.179626%)" stop-opacity="1"/>
<stop offset="0.234375" stop-color="rgb(75.222778%, 73.104858%, 73.522949%)" stop-opacity="1"/>
<stop offset="0.238281" stop-color="rgb(75.541687%, 73.452759%, 73.866272%)" stop-opacity="1"/>
<stop offset="0.242188" stop-color="rgb(75.860596%, 73.800659%, 74.211121%)" stop-opacity="1"/>
<stop offset="0.246094" stop-color="rgb(76.179504%, 74.14856%, 74.554443%)" stop-opacity="1"/>
<stop offset="0.25" stop-color="rgb(76.498413%, 74.497986%, 74.897766%)" stop-opacity="1"/>
<stop offset="0.253906" stop-color="rgb(76.789856%, 74.819946%, 75.212097%)" stop-opacity="1"/>
<stop offset="0.257812" stop-color="rgb(77.082825%, 75.141907%, 75.526428%)" stop-opacity="1"/>
<stop offset="0.261719" stop-color="rgb(77.374268%, 75.463867%, 75.840759%)" stop-opacity="1"/>
<stop offset="0.265625" stop-color="rgb(77.66571%, 75.785828%, 76.15509%)" stop-opacity="1"/>
<stop offset="0.269531" stop-color="rgb(77.957153%, 76.106262%, 76.469421%)" stop-opacity="1"/>
<stop offset="0.273438" stop-color="rgb(78.250122%, 76.428223%, 76.783752%)" stop-opacity="1"/>
<stop offset="0.277344" stop-color="rgb(78.541565%, 76.750183%, 77.098083%)" stop-opacity="1"/>
<stop offset="0.28125" stop-color="rgb(78.834534%, 77.072144%, 77.412415%)" stop-opacity="1"/>
<stop offset="0.285156" stop-color="rgb(79.125977%, 77.394104%, 77.726746%)" stop-opacity="1"/>
<stop offset="0.289062" stop-color="rgb(79.418945%, 77.716064%, 78.041077%)" stop-opacity="1"/>
<stop offset="0.292969" stop-color="rgb(79.710388%, 78.038025%, 78.355408%)" stop-opacity="1"/>
<stop offset="0.296875" stop-color="rgb(80.001831%, 78.359985%, 78.669739%)" stop-opacity="1"/>
<stop offset="0.300781" stop-color="rgb(80.293274%, 78.681946%, 78.98407%)" stop-opacity="1"/>
<stop offset="0.304688" stop-color="rgb(80.586243%, 79.003906%, 79.298401%)" stop-opacity="1"/>
<stop offset="0.308594" stop-color="rgb(80.877686%, 79.324341%, 79.612732%)" stop-opacity="1"/>
<stop offset="0.3125" stop-color="rgb(81.170654%, 79.646301%, 79.927063%)" stop-opacity="1"/>
<stop offset="0.316406" stop-color="rgb(81.462097%, 79.968262%, 80.241394%)" stop-opacity="1"/>
<stop offset="0.320312" stop-color="rgb(81.755066%, 80.290222%, 80.555725%)" stop-opacity="1"/>
<stop offset="0.324219" stop-color="rgb(82.046509%, 80.612183%, 80.870056%)" stop-opacity="1"/>
<stop offset="0.328125" stop-color="rgb(82.339478%, 80.934143%, 81.184387%)" stop-opacity="1"/>
<stop offset="0.332031" stop-color="rgb(82.63092%, 81.256104%, 81.498718%)" stop-opacity="1"/>
<stop offset="0.335938" stop-color="rgb(82.922363%, 81.578064%, 81.813049%)" stop-opacity="1"/>
<stop offset="0.339844" stop-color="rgb(83.213806%, 81.898499%, 82.12738%)" stop-opacity="1"/>
<stop offset="0.34375" stop-color="rgb(83.506775%, 82.220459%, 82.441711%)" stop-opacity="1"/>
<stop offset="0.347656" stop-color="rgb(83.798218%, 82.542419%, 82.756042%)" stop-opacity="1"/>
<stop offset="0.351562" stop-color="rgb(84.091187%, 82.86438%, 83.071899%)" stop-opacity="1"/>
<stop offset="0.355469" stop-color="rgb(84.382629%, 83.18634%, 83.38623%)" stop-opacity="1"/>
<stop offset="0.359375" stop-color="rgb(84.675598%, 83.508301%, 83.700562%)" stop-opacity="1"/>
<stop offset="0.363281" stop-color="rgb(84.967041%, 83.830261%, 84.014893%)" stop-opacity="1"/>
<stop offset="0.367188" stop-color="rgb(85.258484%, 84.152222%, 84.329224%)" stop-opacity="1"/>
<stop offset="0.371094" stop-color="rgb(85.549927%, 84.472656%, 84.643555%)" stop-opacity="1"/>
<stop offset="0.375" stop-color="rgb(85.842896%, 84.794617%, 84.957886%)" stop-opacity="1"/>
<stop offset="0.378906" stop-color="rgb(86.134338%, 85.116577%, 85.272217%)" stop-opacity="1"/>
<stop offset="0.382812" stop-color="rgb(86.427307%, 85.438538%, 85.586548%)" stop-opacity="1"/>
<stop offset="0.386719" stop-color="rgb(86.71875%, 85.760498%, 85.900879%)" stop-opacity="1"/>
<stop offset="0.390625" stop-color="rgb(87.011719%, 86.082458%, 86.21521%)" stop-opacity="1"/>
<stop offset="0.394531" stop-color="rgb(87.303162%, 86.404419%, 86.529541%)" stop-opacity="1"/>
<stop offset="0.398438" stop-color="rgb(87.594604%, 86.726379%, 86.843872%)" stop-opacity="1"/>
<stop offset="0.402344" stop-color="rgb(87.886047%, 87.04834%, 87.158203%)" stop-opacity="1"/>
<stop offset="0.40625" stop-color="rgb(88.179016%, 87.3703%, 87.472534%)" stop-opacity="1"/>
<stop offset="0.410156" stop-color="rgb(88.470459%, 87.690735%, 87.786865%)" stop-opacity="1"/>
<stop offset="0.414062" stop-color="rgb(88.763428%, 88.012695%, 88.101196%)" stop-opacity="1"/>
<stop offset="0.417969" stop-color="rgb(89.054871%, 88.334656%, 88.415527%)" stop-opacity="1"/>
<stop offset="0.421875" stop-color="rgb(89.347839%, 88.656616%, 88.729858%)" stop-opacity="1"/>
<stop offset="0.425781" stop-color="rgb(89.639282%, 88.978577%, 89.044189%)" stop-opacity="1"/>
<stop offset="0.429688" stop-color="rgb(89.930725%, 89.300537%, 89.358521%)" stop-opacity="1"/>
<stop offset="0.433594" stop-color="rgb(90.222168%, 89.622498%, 89.672852%)" stop-opacity="1"/>
<stop offset="0.4375" stop-color="rgb(90.515137%, 89.944458%, 89.987183%)" stop-opacity="1"/>
<stop offset="0.441406" stop-color="rgb(90.80658%, 90.264893%, 90.301514%)" stop-opacity="1"/>
<stop offset="0.445312" stop-color="rgb(91.099548%, 90.586853%, 90.615845%)" stop-opacity="1"/>
<stop offset="0.449219" stop-color="rgb(91.390991%, 90.908813%, 90.930176%)" stop-opacity="1"/>
<stop offset="0.453125" stop-color="rgb(91.68396%, 91.230774%, 91.244507%)" stop-opacity="1"/>
<stop offset="0.457031" stop-color="rgb(91.966248%, 91.542053%, 91.548157%)" stop-opacity="1"/>
<stop offset="0.460938" stop-color="rgb(92.250061%, 91.853333%, 91.853333%)" stop-opacity="1"/>
<stop offset="0.464844" stop-color="rgb(92.469788%, 92.088318%, 92.088318%)" stop-opacity="1"/>
<stop offset="0.46875" stop-color="rgb(92.69104%, 92.323303%, 92.323303%)" stop-opacity="1"/>
<stop offset="0.472656" stop-color="rgb(92.910767%, 92.556763%, 92.556763%)" stop-opacity="1"/>
<stop offset="0.476562" stop-color="rgb(93.132019%, 92.791748%, 92.791748%)" stop-opacity="1"/>
<stop offset="0.480469" stop-color="rgb(93.351746%, 93.025208%, 93.025208%)" stop-opacity="1"/>
<stop offset="0.484375" stop-color="rgb(93.571472%, 93.260193%, 93.260193%)" stop-opacity="1"/>
<stop offset="0.488281" stop-color="rgb(93.791199%, 93.493652%, 93.493652%)" stop-opacity="1"/>
<stop offset="0.492188" stop-color="rgb(94.012451%, 93.728638%, 93.728638%)" stop-opacity="1"/>
<stop offset="0.496094" stop-color="rgb(94.232178%, 93.962097%, 93.962097%)" stop-opacity="1"/>
<stop offset="0.5" stop-color="rgb(94.451904%, 94.197083%, 94.197083%)" stop-opacity="1"/>
<stop offset="0.503906" stop-color="rgb(94.671631%, 94.432068%, 94.432068%)" stop-opacity="1"/>
<stop offset="0.507813" stop-color="rgb(94.892883%, 94.667053%, 94.667053%)" stop-opacity="1"/>
<stop offset="0.511719" stop-color="rgb(95.11261%, 94.900513%, 94.900513%)" stop-opacity="1"/>
<stop offset="0.515625" stop-color="rgb(95.332336%, 95.135498%, 95.135498%)" stop-opacity="1"/>
<stop offset="0.519531" stop-color="rgb(95.552063%, 95.368958%, 95.368958%)" stop-opacity="1"/>
<stop offset="0.523438" stop-color="rgb(95.773315%, 95.603943%, 95.603943%)" stop-opacity="1"/>
<stop offset="0.527344" stop-color="rgb(95.993042%, 95.837402%, 95.837402%)" stop-opacity="1"/>
<stop offset="0.53125" stop-color="rgb(96.214294%, 96.072388%, 96.072388%)" stop-opacity="1"/>
<stop offset="0.535156" stop-color="rgb(96.434021%, 96.305847%, 96.305847%)" stop-opacity="1"/>
<stop offset="0.539062" stop-color="rgb(96.653748%, 96.540833%, 96.540833%)" stop-opacity="1"/>
<stop offset="0.542969" stop-color="rgb(96.873474%, 96.775818%, 96.775818%)" stop-opacity="1"/>
<stop offset="0.546875" stop-color="rgb(97.094727%, 97.010803%, 97.010803%)" stop-opacity="1"/>
<stop offset="0.550781" stop-color="rgb(97.314453%, 97.244263%, 97.244263%)" stop-opacity="1"/>
<stop offset="0.554688" stop-color="rgb(97.53418%, 97.479248%, 97.479248%)" stop-opacity="1"/>
<stop offset="0.558594" stop-color="rgb(97.753906%, 97.712708%, 97.712708%)" stop-opacity="1"/>
<stop offset="0.5625" stop-color="rgb(97.975159%, 97.947693%, 97.947693%)" stop-opacity="1"/>
<stop offset="0.566406" stop-color="rgb(98.187256%, 98.173523%, 98.173523%)" stop-opacity="1"/>
<stop offset="0.570313" stop-color="rgb(98.399353%, 98.399353%, 98.399353%)" stop-opacity="1"/>
<stop offset="0.578125" stop-color="rgb(98.399353%, 98.399353%, 98.399353%)" stop-opacity="1"/>
<stop offset="0.59375" stop-color="rgb(98.399353%, 98.399353%, 98.399353%)" stop-opacity="1"/>
<stop offset="0.625" stop-color="rgb(98.399353%, 98.399353%, 98.399353%)" stop-opacity="1"/>
<stop offset="0.75" stop-color="rgb(98.399353%, 98.399353%, 98.399353%)" stop-opacity="1"/>
<stop offset="1" stop-color="rgb(98.399353%, 98.399353%, 98.399353%)" stop-opacity="1"/>
</linearGradient>
</defs>
<g clip-path="url(#clip-0)">
<path fill-rule="nonzero" fill="rgb(100%, 100%, 100%)" fill-opacity="1" d="M 168.5625 243.871094 L 12.046875 243.871094 C 8.722656 243.871094 6.03125 241.15625 6.03125 237.808594 L 6.03125 12.238281 C 6.03125 8.894531 8.722656 6.179688 12.046875 6.179688 L 168.5625 6.179688 C 171.886719 6.179688 174.578125 8.894531 174.578125 12.238281 L 174.578125 237.808594 C 174.578125 241.15625 171.886719 243.871094 168.5625 243.871094 Z M 168.5625 243.871094 "/>
</g>
<g clip-path="url(#clip-1)">
<g clip-path="url(#clip-2)">
<path fill-rule="nonzero" fill="url(#linear-pattern-0)" d="M 17.085938 16.222656 L 17.085938 93.921875 L 163.726562 93.921875 L 163.726562 16.222656 Z M 17.085938 16.222656 "/>
</g>
</g>
<path fill="none" stroke-width="1" stroke-linecap="round" stroke-linejoin="round" stroke="rgb(5.488586%, 5.488586%, 5.488586%)" stroke-opacity="1" stroke-miterlimit="4" d="M 210.802092 304.031263 L 14.171876 304.031263 C 14.171876 243.588552 14.171876 183.15105 14.171876 122.708339 C 14.171876 86.187504 14.171876 49.682294 14.171876 13.161459 L 210.802092 13.161459 C 210.802092 49.619794 210.802092 86.078129 210.802092 122.541672 C 210.802092 183.041675 210.802092 243.53126 210.802092 304.031263 Z M 210.802092 304.031263 " transform="matrix(0.75, 0, 0, 0.75, 6, 6)"/>
<path fill-rule="nonzero" fill="rgb(100%, 100%, 100%)" fill-opacity="1" d="M 90.277344 38.300781 C 90.226562 37.679688 89.96875 35.496094 88.164062 33.644531 C 86.542969 31.980469 84.636719 31.582031 83.984375 31.46875 C 84.039062 30.816406 84.089844 30.164062 84.140625 29.511719 C 84.996094 29.113281 86.714844 28.171875 88.140625 26.257812 C 89.585938 24.316406 90 22.378906 90.136719 21.441406 C 90.472656 22.613281 91.214844 24.613281 92.910156 26.566406 C 94.214844 28.066406 95.601562 28.980469 96.5625 29.511719 C 96.613281 30.164062 96.667969 30.816406 96.71875 31.46875 C 96.253906 31.515625 93.261719 31.859375 91.460938 34.476562 C 90.40625 36.023438 90.277344 37.597656 90.261719 38.300781 Z M 90.277344 38.300781 "/>
<path fill="none" stroke-width="1" stroke-linecap="round" stroke-linejoin="round" stroke="rgb(5.488586%, 5.488586%, 5.488586%)" stroke-opacity="1" stroke-miterlimit="4" d="M 70.76042 29.140627 C 71.869795 28.81771 73.69792 28.468752 75.770837 28.968752 C 77.578129 29.401043 78.802087 30.281252 79.489587 30.802085 C 85.567712 35.359377 86.468754 38.901044 90.651046 40.500002 C 91.187504 40.708335 95.098963 42.000002 99.041671 40.16146 C 101.817713 38.859377 103.802088 35.901043 104.10938 32.687502 C 104.552088 28.088543 101.348963 23.541668 97.640629 22.708335 C 97.208338 22.609376 94.869796 22.088543 92.958338 23.520835 C 92.718754 23.697918 91.239587 24.838543 91.031254 26.84896 C 91.000004 27.151043 90.760421 29.739585 92.739588 31.000002 C 93.848963 31.697918 95.260421 31.739585 96.380213 31.218752 C 97.968754 30.489585 98.932296 28.66146 98.682296 26.697918 C 99.067713 27.13021 99.609379 27.802085 100.041671 28.718752 C 100.250005 29.16146 101.60938 32.171877 100.312505 35.062502 C 98.729171 38.578127 94.421879 39.197919 93.838546 39.281252 C 89.989587 39.828127 85.989587 37.812502 83.369795 34.182293 " transform="matrix(0.75, 0, 0, 0.75, 6, 6)"/>
<path fill="none" stroke-width="1" stroke-linecap="round" stroke-linejoin="round" stroke="rgb(5.488586%, 5.488586%, 5.488586%)" stroke-opacity="1" stroke-miterlimit="4" d="M 104.187505 31.229168 C 104.947921 30.859377 106.14063 30.187502 107.348963 29.088543 C 111.218755 25.562501 111.932297 20.66146 112.250005 18.479168 C 112.432297 17.250001 112.588547 15.421876 112.380213 13.151043 " transform="matrix(0.75, 0, 0, 0.75, 6, 6)"/>
<path fill="none" stroke-width="1" stroke-linecap="round" stroke-linejoin="round" stroke="rgb(5.488586%, 5.488586%, 5.488586%)" stroke-opacity="1" stroke-miterlimit="4" d="M 103.979171 33.838543 C 104.932296 34.010418 105.958338 34.312502 106.979171 34.828127 C 111.588547 37.182294 112.270838 42.09896 112.369797 42.947919 " transform="matrix(0.75, 0, 0, 0.75, 6, 6)"/>
<path fill="none" stroke-width="1" stroke-linecap="round" stroke-linejoin="round" stroke="rgb(5.488586%, 5.488586%, 5.488586%)" stroke-opacity="1" stroke-miterlimit="4" d="M 154.197923 29.140627 C 153.088548 28.81771 151.260423 28.468752 149.187507 28.968752 C 147.380215 29.401043 146.161465 30.281252 145.468756 30.802085 C 139.390631 35.359377 138.489589 38.901044 134.312506 40.500002 C 133.770839 40.708335 129.859381 42.000002 125.921881 40.16146 C 123.14063 38.859377 121.161464 35.901043 120.848964 32.687502 C 120.411464 28.088543 123.60938 23.541668 127.317714 22.708335 C 127.750006 22.609376 130.088547 22.088543 132.000006 23.520835 C 132.239589 23.697918 133.718756 24.838543 133.932298 26.84896 C 133.958339 27.151043 134.197923 29.739585 132.218756 31.000002 C 131.109381 31.697918 129.697922 31.739585 128.578131 31.218752 C 126.989589 30.489585 126.031256 28.66146 126.281256 26.697918 C 125.890631 27.13021 125.348964 27.802085 124.921881 28.718752 C 124.708339 29.16146 123.348964 32.171877 124.651047 35.062502 C 126.229172 38.578127 130.541672 39.197919 131.119797 39.281252 C 134.968756 39.828127 138.968756 37.812502 141.588548 34.182293 " transform="matrix(0.75, 0, 0, 0.75, 6, 6)"/>
<path fill="none" stroke-width="1" stroke-linecap="round" stroke-linejoin="round" stroke="rgb(5.488586%, 5.488586%, 5.488586%)" stroke-opacity="1" stroke-miterlimit="4" d="M 120.979172 33.838543 C 120.031255 34.010418 119.000005 34.312502 117.979172 34.828127 C 113.369797 37.182294 112.687505 42.09896 112.588547 42.947919 " transform="matrix(0.75, 0, 0, 0.75, 6, 6)"/>
<path fill="none" stroke-width="1" stroke-linecap="round" stroke-linejoin="round" stroke="rgb(5.488586%, 5.488586%, 5.488586%)" stroke-opacity="1" stroke-miterlimit="4" d="M 153.260423 38.281252 C 153.109382 38.619794 152.317715 40.369794 150.468757 40.947919 C 148.510423 41.56771 146.791673 40.432294 146.067715 39.947919 C 143.041673 37.937502 142.73959 34.109377 142.70834 33.489585 " transform="matrix(0.75, 0, 0, 0.75, 6, 6)"/>
<path fill="none" stroke-width="1" stroke-linecap="round" stroke-linejoin="round" stroke="rgb(5.488586%, 5.488586%, 5.488586%)" stroke-opacity="1" stroke-miterlimit="4" d="M 163.890632 47.500002 C 163.031257 47.010419 161.817715 46.270836 160.45834 45.281252 C 156.531257 42.421877 153.45834 40.187502 152.661465 36.552085 C 151.932298 33.239585 153.421882 30.447918 153.682298 29.979168 C 156.130215 25.562501 161.260424 24.828126 162.317715 24.708335 C 167.088549 24.171876 171.932299 26.687501 174.958341 31.088543 " transform="matrix(0.75, 0, 0, 0.75, 6, 6)"/>
<path fill="none" stroke-width="1" stroke-linecap="round" stroke-linejoin="round" stroke="rgb(5.488586%, 5.488586%, 5.488586%)" stroke-opacity="1" stroke-miterlimit="4" d="M 174.302091 54.369794 C 174.348966 44.078127 171.828132 36.000002 167.838549 33.770835 C 165.791674 32.63021 163.70834 32.59896 163.70834 32.59896 C 163.02084 32.59896 159.531257 32.651043 157.317715 35.531252 C 155.348965 38.09896 155.838548 41.041669 155.932298 41.541669 " transform="matrix(0.75, 0, 0, 0.75, 6, 6)"/>
<path fill="none" stroke-width="1" stroke-linecap="round" stroke-linejoin="round" stroke="rgb(5.488586%, 5.488586%, 5.488586%)" stroke-opacity="1" stroke-miterlimit="4" d="M 202.468759 49.171877 C 202.989592 48.911461 204.651051 48.140627 206.437509 48.598961 C 209.630217 49.411461 209.989592 53.260419 210.010426 53.541669 C 210.197926 55.989586 208.697926 58.838544 205.838551 59.859378 C 203.640634 60.640628 201.520842 60.020836 200.390634 59.687503 C 196.729175 58.619794 194.718758 56.130211 193.718758 54.869794 C 190.520842 50.791669 192.078133 48.812502 188.802092 45.911461 C 187.911466 45.119794 186.109383 43.520835 183.348966 43.09896 C 180.479175 42.651044 179.302091 43.890627 176.682299 43.16146 C 174.109383 42.437502 172.781258 40.552085 172.437508 40.020835 C 172.281258 39.781252 170.411466 36.770835 172.171883 33.739585 C 172.531258 33.109377 173.598966 31.281252 176.010424 30.750002 C 178.197924 30.281252 180.609383 31.078127 181.9323 32.651043 C 183.062508 33.989585 183.390633 35.88021 182.510425 37.38021 C 182.317716 37.708335 181.718758 38.729169 180.359383 39.140627 C 179.218758 39.479169 177.770841 39.328127 176.770841 38.531252 C 175.890633 37.81771 175.729174 36.91146 175.697924 36.640627 " transform="matrix(0.75, 0, 0, 0.75, 6, 6)"/>
<path fill="none" stroke-width="1" stroke-linecap="round" stroke-linejoin="round" stroke="rgb(5.488586%, 5.488586%, 5.488586%)" stroke-opacity="1" stroke-miterlimit="4" d="M 190.859383 48.697919 C 190.437508 44.140627 188.109383 40.390627 184.697925 39.171877 C 183.921883 38.890627 182.697925 38.609377 181.078133 38.812502 " transform="matrix(0.75, 0, 0, 0.75, 6, 6)"/>
<path fill="none" stroke-width="1" stroke-linecap="round" stroke-linejoin="round" stroke="rgb(5.488586%, 5.488586%, 5.488586%)" stroke-opacity="1" stroke-miterlimit="4" d="M 194.317717 55.770836 C 193.697925 55.609378 191.1198 55.010419 188.921883 56.447919 C 186.270841 58.187503 185.208341 62.218753 186.83855 66.04167 " transform="matrix(0.75, 0, 0, 0.75, 6, 6)"/>
<path fill="none" stroke-width="1" stroke-linecap="round" stroke-linejoin="round" stroke="rgb(5.488586%, 5.488586%, 5.488586%)" stroke-opacity="1" stroke-miterlimit="4" d="M 196.130217 69.520837 C 195.718758 69.500003 194.8698 69.51042 193.968758 69.97917 C 192.510425 70.750003 192.031258 72.161462 191.937508 72.47917 " transform="matrix(0.75, 0, 0, 0.75, 6, 6)"/>
<path fill="none" stroke-width="1" stroke-linecap="round" stroke-linejoin="round" stroke="rgb(5.488586%, 5.488586%, 5.488586%)" stroke-opacity="1" stroke-miterlimit="4" d="M 210.781259 121.270839 C 210.760426 121.130214 210.739592 120.880214 210.697926 120.588547 C 209.921884 113.739588 205.510426 81.76042 179.208341 58.432294 C 175.937508 55.531253 170.869799 51.458336 163.890632 47.500002 " transform="matrix(0.75, 0, 0, 0.75, 6, 6)"/>
<path fill-rule="nonzero" fill="rgb(0%, 0%, 0%)" fill-opacity="1" stroke-width="0.75" stroke-linecap="round" stroke-linejoin="round" stroke="rgb(0%, 0%, 0%)" stroke-opacity="1" stroke-miterlimit="4" d="M 112.369797 43.06771 C 112.302088 42.239585 111.958338 39.328127 109.552088 36.859377 C 107.39063 34.640627 104.848963 34.109377 103.979171 33.958335 C 104.052088 33.088543 104.119796 32.218752 104.187505 31.34896 C 105.32813 30.81771 107.619796 29.562502 109.520838 27.010418 C 111.447922 24.421876 112.000005 21.838543 112.182297 20.588543 C 112.630213 22.151043 113.619797 24.81771 115.880213 27.421876 C 117.619797 29.421877 119.468755 30.640627 120.750005 31.34896 C 120.817714 32.218752 120.89063 33.088543 120.958339 33.958335 C 120.338547 34.020835 116.348964 34.479168 113.947922 37.968752 C 112.541672 40.031252 112.369797 42.13021 112.348963 43.06771 Z M 112.369797 43.06771 " transform="matrix(0.75, 0, 0, 0.75, 6, 6)"/>
<path fill="none" stroke-width="1" stroke-linecap="round" stroke-linejoin="round" stroke="rgb(5.488586%, 5.488586%, 5.488586%)" stroke-opacity="1" stroke-miterlimit="4" d="M 154.197923 29.140627 C 153.088548 28.81771 151.260423 28.468752 149.187507 28.968752 C 147.380215 29.401043 146.161465 30.281252 145.468756 30.802085 C 139.390631 35.359377 138.489589 38.901044 134.312506 40.500002 C 133.770839 40.708335 129.859381 42.000002 125.921881 40.16146 C 123.14063 38.859377 121.161464 35.901043 120.848964 32.687502 C 120.411464 28.088543 123.60938 23.541668 127.317714 22.708335 C 127.750006 22.609376 130.088547 22.088543 132.000006 23.520835 C 132.239589 23.697918 133.718756 24.838543 133.932298 26.84896 C 133.958339 27.151043 134.197923 29.739585 132.218756 31.000002 C 131.109381 31.697918 129.697922 31.739585 128.578131 31.218752 C 126.989589 30.489585 126.031256 28.66146 126.281256 26.697918 C 125.890631 27.13021 125.348964 27.802085 124.921881 28.718752 C 124.708339 29.16146 123.348964 32.171877 124.651047 35.062502 C 126.229172 38.578127 130.541672 39.197919 131.119797 39.281252 C 134.968756 39.828127 138.968756 37.812502 141.588548 34.182293 " transform="matrix(0.75, 0, 0, 0.75, 6, 6)"/>
<path fill="none" stroke-width="1" stroke-linecap="round" stroke-linejoin="round" stroke="rgb(5.488586%, 5.488586%, 5.488586%)" stroke-opacity="1" stroke-miterlimit="4" d="M 120.770839 31.229168 C 119.302089 30.500002 118.270839 29.687502 117.60938 29.088543 C 113.151047 25.031251 112.718755 19.000001 112.562505 16.781251 C 112.447922 15.260418 112.510422 14.000001 112.57813 13.151043 " transform="matrix(0.75, 0, 0, 0.75, 6, 6)"/>
<path fill="none" stroke-width="1" stroke-linecap="round" stroke-linejoin="round" stroke="rgb(5.488586%, 5.488586%, 5.488586%)" stroke-opacity="1" stroke-miterlimit="4" d="M 120.979172 33.838543 C 120.031255 34.010418 119.000005 34.312502 117.979172 34.828127 C 113.369797 37.182294 112.687505 42.09896 112.588547 42.947919 " transform="matrix(0.75, 0, 0, 0.75, 6, 6)"/>
<path fill="none" stroke-width="1" stroke-linecap="round" stroke-linejoin="round" stroke="rgb(5.488586%, 5.488586%, 5.488586%)" stroke-opacity="1" stroke-miterlimit="4" d="M 153.260423 38.281252 C 153.109382 38.619794 152.317715 40.369794 150.468757 40.947919 C 148.510423 41.56771 146.791673 40.432294 146.067715 39.947919 C 143.041673 37.937502 142.73959 34.109377 142.70834 33.489585 " transform="matrix(0.75, 0, 0, 0.75, 6, 6)"/>
<path fill="none" stroke-width="1" stroke-linecap="round" stroke-linejoin="round" stroke="rgb(5.488586%, 5.488586%, 5.488586%)" stroke-opacity="1" stroke-miterlimit="4" d="M 163.890632 47.500002 C 163.031257 47.010419 161.817715 46.270836 160.45834 45.281252 C 156.531257 42.421877 153.45834 40.187502 152.661465 36.552085 C 151.932298 33.239585 153.421882 30.447918 153.682298 29.979168 C 156.130215 25.562501 161.260424 24.828126 162.317715 24.708335 C 167.088549 24.171876 171.932299 26.687501 174.958341 31.088543 " transform="matrix(0.75, 0, 0, 0.75, 6, 6)"/>
<path fill="none" stroke-width="1" stroke-linecap="round" stroke-linejoin="round" stroke="rgb(5.488586%, 5.488586%, 5.488586%)" stroke-opacity="1" stroke-miterlimit="4" d="M 174.302091 54.369794 C 174.348966 44.078127 171.828132 36.000002 167.838549 33.770835 C 165.791674 32.63021 163.70834 32.59896 163.70834 32.59896 C 163.02084 32.59896 159.531257 32.651043 157.317715 35.531252 C 155.348965 38.09896 155.838548 41.041669 155.932298 41.541669 " transform="matrix(0.75, 0, 0, 0.75, 6, 6)"/>
<path fill="none" stroke-width="1" stroke-linecap="round" stroke-linejoin="round" stroke="rgb(5.488586%, 5.488586%, 5.488586%)" stroke-opacity="1" stroke-miterlimit="4" d="M 202.468759 49.171877 C 202.989592 48.911461 204.651051 48.140627 206.437509 48.598961 C 209.630217 49.411461 209.989592 53.260419 210.010426 53.541669 C 210.197926 55.989586 208.697926 58.838544 205.838551 59.859378 C 203.640634 60.640628 201.520842 60.020836 200.390634 59.687503 C 196.729175 58.619794 194.718758 56.130211 193.718758 54.869794 C 190.520842 50.791669 192.078133 48.812502 188.802092 45.911461 C 187.911466 45.119794 186.109383 43.520835 183.348966 43.09896 C 180.479175 42.651044 179.302091 43.890627 176.682299 43.16146 C 174.109383 42.437502 172.781258 40.552085 172.437508 40.020835 C 172.281258 39.781252 170.411466 36.770835 172.171883 33.739585 C 172.531258 33.109377 173.598966 31.281252 176.010424 30.750002 C 178.197924 30.281252 180.609383 31.078127 181.9323 32.651043 C 183.062508 33.989585 183.390633 35.88021 182.510425 37.38021 C 182.317716 37.708335 181.718758 38.729169 180.359383 39.140627 C 179.218758 39.479169 177.770841 39.328127 176.770841 38.531252 C 175.890633 37.81771 175.729174 36.91146 175.697924 36.640627 " transform="matrix(0.75, 0, 0, 0.75, 6, 6)"/>
<path fill="none" stroke-width="1" stroke-linecap="round" stroke-linejoin="round" stroke="rgb(5.488586%, 5.488586%, 5.488586%)" stroke-opacity="1" stroke-miterlimit="4" d="M 190.859383 48.697919 C 190.437508 44.140627 188.109383 40.390627 184.697925 39.171877 C 183.921883 38.890627 182.697925 38.609377 181.078133 38.812502 " transform="matrix(0.75, 0, 0, 0.75, 6, 6)"/>
<path fill="none" stroke-width="1" stroke-linecap="round" stroke-linejoin="round" stroke="rgb(5.488586%, 5.488586%, 5.488586%)" stroke-opacity="1" stroke-miterlimit="4" d="M 210.661467 64.802086 C 209.020842 61.989586 206.401051 60.239586 203.791675 60.401045 C 200.562509 60.598961 198.661467 63.630211 197.83855 64.937503 C 193.218758 72.312503 198.161467 82.380212 198.921884 83.890629 " transform="matrix(0.75, 0, 0, 0.75, 6, 6)"/>
<path fill="none" stroke-width="1" stroke-linecap="round" stroke-linejoin="round" stroke="rgb(5.488586%, 5.488586%, 5.488586%)" stroke-opacity="1" stroke-miterlimit="4" d="M 210.729176 120.35938 C 208.848967 107.489588 202.739592 79.338545 179.208341 58.432294 C 174.088549 53.880211 168.859382 50.312502 163.890632 47.500002 " transform="matrix(0.75, 0, 0, 0.75, 6, 6)"/>
<g clip-path="url(#clip-3)">
<g clip-path="url(#clip-4)">
<path fill-rule="nonzero" fill="url(#linear-pattern-1)" d="M 16.933594 154.46875 L 16.933594 233.640625 L 163.648438 233.640625 L 163.648438 154.46875 Z M 16.933594 154.46875 "/>
</g>
</g>
<path fill-rule="nonzero" fill="rgb(100%, 100%, 100%)" fill-opacity="1" d="M 90.324219 211.753906 C 90.375 212.378906 90.628906 214.558594 92.4375 216.414062 C 94.058594 218.078125 95.960938 218.476562 96.613281 218.585938 C 96.5625 219.238281 96.511719 219.890625 96.457031 220.546875 C 95.601562 220.941406 93.886719 221.886719 92.460938 223.800781 C 91.011719 225.742188 90.601562 227.675781 90.464844 228.613281 C 90.128906 227.445312 89.386719 225.441406 87.691406 223.492188 C 86.386719 221.992188 84.996094 221.078125 84.039062 220.546875 C 83.984375 219.890625 83.933594 219.238281 83.878906 218.585938 C 84.34375 218.542969 87.335938 218.199219 89.136719 215.578125 C 90.195312 214.035156 90.324219 212.460938 90.335938 211.753906 Z M 90.324219 211.753906 "/>
<path fill="none" stroke-width="1" stroke-linecap="round" stroke-linejoin="round" stroke="rgb(5.488586%, 5.488586%, 5.488586%)" stroke-opacity="1" stroke-miterlimit="4" d="M 154.041673 288.260429 C 152.932298 288.578137 151.098965 288.932304 149.031257 288.432304 C 147.218756 288.000012 146.000006 287.119804 145.312506 286.598971 C 139.229173 282.041679 138.328131 278.500012 134.151048 276.901054 C 133.609381 276.687512 129.697922 275.401053 125.760422 277.239595 C 122.979172 278.541679 121.000005 281.500012 120.687505 284.708346 C 120.250005 289.312512 123.447922 293.859388 127.161464 294.687513 C 127.588547 294.791679 129.932297 295.312513 131.838547 293.880221 C 132.078131 293.697929 133.562506 292.562513 133.770839 290.552096 C 133.802089 290.250012 134.041673 287.661471 132.062506 286.401054 C 130.947922 285.697929 129.541672 285.661471 128.421881 286.182304 C 126.828131 286.911471 125.869797 288.739596 126.119797 290.697929 C 125.729172 290.270846 125.187506 289.598971 124.760422 288.682304 C 124.552089 288.239596 123.187505 285.229179 124.489589 282.338554 C 126.067714 278.81772 130.380214 278.197929 130.958339 278.119804 C 134.812506 277.56772 138.812506 279.588554 141.432298 283.218762 " transform="matrix(0.75, 0, 0, 0.75, 6, 6)"/>
<path fill="none" stroke-width="1" stroke-linecap="round" stroke-linejoin="round" stroke="rgb(5.488586%, 5.488586%, 5.488586%)" stroke-opacity="1" stroke-miterlimit="4" d="M 120.60938 286.171887 C 119.197922 286.869804 118.17188 287.661471 117.447922 288.312512 C 113.302088 292.078138 112.687505 297.567721 112.401047 300.140638 C 112.208338 301.812513 112.229172 303.187513 112.270838 304.04168 " transform="matrix(0.75, 0, 0, 0.75, 6, 6)"/>
<path fill="none" stroke-width="1" stroke-linecap="round" stroke-linejoin="round" stroke="rgb(5.488586%, 5.488586%, 5.488586%)" stroke-opacity="1" stroke-miterlimit="4" d="M 120.817714 283.56772 C 119.869797 283.401054 118.838547 283.09897 117.817714 282.578137 C 113.208338 280.229179 112.531255 275.312512 112.432297 274.458345 " transform="matrix(0.75, 0, 0, 0.75, 6, 6)"/>
<path fill="none" stroke-width="1" stroke-linecap="round" stroke-linejoin="round" stroke="rgb(5.488586%, 5.488586%, 5.488586%)" stroke-opacity="1" stroke-miterlimit="4" d="M 70.609378 288.260429 C 71.718753 288.578137 73.552087 288.932304 75.619795 288.432304 C 77.432295 288.000012 78.651045 287.119804 79.338545 286.598971 C 85.421879 282.041679 86.317712 278.500012 90.500004 276.901054 C 91.041671 276.687512 94.947921 275.401053 98.890629 277.239595 C 101.67188 278.541679 103.651046 281.500012 103.958338 284.708346 C 104.401046 289.312512 101.197921 293.859388 97.489588 294.687513 C 97.062504 294.791679 94.718754 295.312513 92.812504 293.880221 C 92.567713 293.697929 91.088546 292.562513 90.880212 290.552096 C 90.848962 290.250012 90.609379 287.661471 92.588546 286.401054 C 93.697921 285.697929 95.109379 285.661471 96.229171 286.182304 C 97.817713 286.911471 98.781254 288.739596 98.531254 290.697929 C 98.921879 290.270846 99.458338 289.598971 99.890629 288.682304 C 100.098963 288.239596 101.458338 285.229179 100.161463 282.338554 C 98.578129 278.81772 94.270838 278.197929 93.687504 278.119804 C 89.838546 277.56772 85.838546 279.588554 83.218754 283.218762 " transform="matrix(0.75, 0, 0, 0.75, 6, 6)"/>
<path fill="none" stroke-width="1" stroke-linecap="round" stroke-linejoin="round" stroke="rgb(5.488586%, 5.488586%, 5.488586%)" stroke-opacity="1" stroke-miterlimit="4" d="M 103.82813 283.56772 C 104.739588 283.432304 105.781255 283.140637 106.82813 282.578137 C 111.10938 280.31772 112.218755 275.489595 112.432297 274.458345 " transform="matrix(0.75, 0, 0, 0.75, 6, 6)"/>
<path fill="none" stroke-width="1" stroke-linecap="round" stroke-linejoin="round" stroke="rgb(5.488586%, 5.488586%, 5.488586%)" stroke-opacity="1" stroke-miterlimit="4" d="M 71.552087 279.119804 C 71.69792 278.781262 72.489587 277.031262 74.338545 276.447929 C 76.302087 275.828137 78.020837 276.968762 78.739587 277.447929 C 81.770837 279.458345 82.067712 283.291679 82.098962 283.91147 " transform="matrix(0.75, 0, 0, 0.75, 6, 6)"/>
<path fill="none" stroke-width="1" stroke-linecap="round" stroke-linejoin="round" stroke="rgb(5.488586%, 5.488586%, 5.488586%)" stroke-opacity="1" stroke-miterlimit="4" d="M 60.911461 269.901053 C 61.770836 270.390637 62.97917 271.13022 64.338545 272.119803 C 68.270837 274.979178 71.338545 277.208345 72.140628 280.84897 C 72.869795 284.161471 71.380212 286.947929 71.119795 287.421887 C 68.671878 291.838554 63.54167 292.567721 62.47917 292.687513 C 57.708336 293.229179 52.869794 290.708346 49.838544 286.312512 " transform="matrix(0.75, 0, 0, 0.75, 6, 6)"/>
<path fill="none" stroke-width="1" stroke-linecap="round" stroke-linejoin="round" stroke="rgb(5.488586%, 5.488586%, 5.488586%)" stroke-opacity="1" stroke-miterlimit="4" d="M 50.510419 263.041678 C 50.458336 273.328137 52.979169 281.41147 56.968753 283.640637 C 59.020836 284.781262 61.098961 284.812512 61.098961 284.812512 C 61.79167 284.812512 65.281253 284.760429 67.489586 281.88022 C 69.458337 279.312512 68.968753 276.369804 68.880212 275.869803 " transform="matrix(0.75, 0, 0, 0.75, 6, 6)"/>
<path fill="none" stroke-width="1" stroke-linecap="round" stroke-linejoin="round" stroke="rgb(5.488586%, 5.488586%, 5.488586%)" stroke-opacity="1" stroke-miterlimit="4" d="M 22.338543 268.239595 C 21.81771 268.500012 20.16146 269.270845 18.369793 268.812512 C 15.182293 268.000012 14.817709 264.151053 14.802084 263.869803 C 14.609376 261.421886 16.109376 258.567719 18.968751 257.552094 C 21.171876 256.770844 23.291668 257.390636 24.421876 257.718761 C 28.078127 258.791678 30.088543 261.281261 31.088543 262.541678 C 34.291668 266.619803 32.729168 268.59897 36.010419 271.500012 C 36.901044 272.291678 38.697919 273.890637 41.458335 274.312512 C 44.328127 274.760428 45.510419 273.520845 48.130211 274.250012 C 50.697919 274.968762 52.031253 276.859387 52.369794 277.390637 C 52.531253 277.63022 54.401044 280.640637 52.640628 283.671887 C 52.281253 284.302096 51.208336 286.130221 48.802086 286.661471 C 46.609377 287.130221 44.197919 286.328137 42.88021 284.760429 C 41.750002 283.421887 41.421877 281.531262 42.302085 280.031262 C 42.489585 279.697929 43.088544 278.682304 44.447919 278.270845 C 45.588544 277.932304 47.041669 278.078137 48.041669 278.88022 C 48.921877 279.588554 49.078127 280.500012 49.109377 280.770845 " transform="matrix(0.75, 0, 0, 0.75, 6, 6)"/>
<path fill="none" stroke-width="1" stroke-linecap="round" stroke-linejoin="round" stroke="rgb(5.488586%, 5.488586%, 5.488586%)" stroke-opacity="1" stroke-miterlimit="4" d="M 33.947918 268.697928 C 34.369793 273.260428 36.697919 277.010429 40.109377 278.229179 C 40.890627 278.510429 42.109377 278.791679 43.729169 278.588554 " transform="matrix(0.75, 0, 0, 0.75, 6, 6)"/>
<path fill="none" stroke-width="1" stroke-linecap="round" stroke-linejoin="round" stroke="rgb(5.488586%, 5.488586%, 5.488586%)" stroke-opacity="1" stroke-miterlimit="4" d="M 30.479168 261.63022 C 31.119793 261.791678 33.682293 262.369803 35.88021 260.947928 C 38.552085 259.208344 39.640627 255.182303 38.031252 251.338552 " transform="matrix(0.75, 0, 0, 0.75, 6, 6)"/>
<path fill="none" stroke-width="1" stroke-linecap="round" stroke-linejoin="round" stroke="rgb(5.488586%, 5.488586%, 5.488586%)" stroke-opacity="1" stroke-miterlimit="4" d="M 28.671877 247.880219 C 29.078127 247.901052 29.932293 247.890636 30.828127 247.421886 C 32.328127 246.630219 32.791668 245.161469 32.88021 244.859386 " transform="matrix(0.75, 0, 0, 0.75, 6, 6)"/>
<path fill="none" stroke-width="1" stroke-linecap="round" stroke-linejoin="round" stroke="rgb(5.488586%, 5.488586%, 5.488586%)" stroke-opacity="1" stroke-miterlimit="4" d="M 14.187501 195.098967 C 15.791668 207.979176 21.41146 237.421885 45.588544 258.968761 C 50.697919 263.520845 55.921878 267.088553 60.911461 269.901053 " transform="matrix(0.75, 0, 0, 0.75, 6, 6)"/>
<path fill-rule="nonzero" fill="rgb(0%, 0%, 0%)" fill-opacity="1" stroke-width="0.75" stroke-linecap="round" stroke-linejoin="round" stroke="rgb(0%, 0%, 0%)" stroke-opacity="1" stroke-miterlimit="4" d="M 112.432297 274.338553 C 112.500005 275.171887 112.838547 278.078137 115.250005 280.552095 C 117.411464 282.770845 119.947922 283.302095 120.817714 283.447929 C 120.750005 284.317721 120.682297 285.187512 120.60938 286.062512 C 119.989589 286.338554 119.14063 286.781262 118.229172 287.468762 C 116.182297 289.041679 115.197922 290.880221 114.338547 292.541679 C 113.588547 294.000013 112.619797 296.260429 112.119797 299.239596 C 112.10938 297.812513 111.89063 293.697929 108.911463 289.979179 C 107.218755 287.859387 105.281255 286.671887 104.041671 286.052096 C 103.968755 285.182304 103.901046 284.312512 103.82813 283.437512 C 104.447921 283.38022 108.437505 282.921887 110.838547 279.432304 C 112.250005 277.369804 112.42188 275.270845 112.437505 274.328137 Z M 112.432297 274.338553 " transform="matrix(0.75, 0, 0, 0.75, 6, 6)"/>
<path fill="none" stroke-width="1" stroke-linecap="round" stroke-linejoin="round" stroke="rgb(5.488586%, 5.488586%, 5.488586%)" stroke-opacity="1" stroke-miterlimit="4" d="M 70.609378 288.260429 C 71.718753 288.578137 73.552087 288.932304 75.619795 288.432304 C 77.432295 288.000012 78.651045 287.119804 79.338545 286.598971 C 85.421879 282.041679 86.317712 278.500012 90.500004 276.901054 C 91.041671 276.687512 94.947921 275.401053 98.890629 277.239595 C 101.67188 278.541679 103.651046 281.500012 103.958338 284.708346 C 104.401046 289.312512 101.197921 293.859388 97.489588 294.687513 C 97.062504 294.791679 94.718754 295.312513 92.812504 293.880221 C 92.567713 293.697929 91.088546 292.562513 90.880212 290.552096 C 90.848962 290.250012 90.609379 287.661471 92.588546 286.401054 C 93.697921 285.697929 95.109379 285.661471 96.229171 286.182304 C 97.817713 286.911471 98.781254 288.739596 98.531254 290.697929 C 98.921879 290.270846 99.458338 289.598971 99.890629 288.682304 C 100.098963 288.239596 101.458338 285.229179 100.161463 282.338554 C 98.578129 278.81772 94.270838 278.197929 93.687504 278.119804 C 89.838546 277.56772 85.838546 279.588554 83.218754 283.218762 " transform="matrix(0.75, 0, 0, 0.75, 6, 6)"/>
<path fill="none" stroke-width="1" stroke-linecap="round" stroke-linejoin="round" stroke="rgb(5.488586%, 5.488586%, 5.488586%)" stroke-opacity="1" stroke-miterlimit="4" d="M 104.041671 286.171887 C 104.869796 286.567721 106.031255 287.239596 107.197921 288.312512 C 109.67188 290.588554 110.562505 293.229179 111.250005 295.390638 C 112.317713 298.729179 112.432297 301.770846 112.281255 304.04168 " transform="matrix(0.75, 0, 0, 0.75, 6, 6)"/>
<path fill="none" stroke-width="1" stroke-linecap="round" stroke-linejoin="round" stroke="rgb(5.488586%, 5.488586%, 5.488586%)" stroke-opacity="1" stroke-miterlimit="4" d="M 103.82813 283.56772 C 104.739588 283.432304 105.781255 283.140637 106.82813 282.578137 C 111.151047 280.291679 112.229172 275.34897 112.432297 274.338553 " transform="matrix(0.75, 0, 0, 0.75, 6, 6)"/>
<path fill="none" stroke-width="1" stroke-linecap="round" stroke-linejoin="round" stroke="rgb(5.488586%, 5.488586%, 5.488586%)" stroke-opacity="1" stroke-miterlimit="4" d="M 71.552087 279.119804 C 71.69792 278.781262 72.489587 277.031262 74.338545 276.447929 C 76.302087 275.828137 78.020837 276.968762 78.739587 277.447929 C 81.770837 279.458345 82.067712 283.291679 82.098962 283.91147 " transform="matrix(0.75, 0, 0, 0.75, 6, 6)"/>
<path fill="none" stroke-width="1" stroke-linecap="round" stroke-linejoin="round" stroke="rgb(5.488586%, 5.488586%, 5.488586%)" stroke-opacity="1" stroke-miterlimit="4" d="M 60.911461 269.901053 C 61.770836 270.390637 62.97917 271.13022 64.338545 272.119803 C 68.270837 274.979178 71.338545 277.208345 72.140628 280.84897 C 72.869795 284.161471 71.380212 286.947929 71.119795 287.421887 C 68.671878 291.838554 63.54167 292.567721 62.47917 292.687513 C 57.708336 293.229179 52.869794 290.708346 49.838544 286.312512 " transform="matrix(0.75, 0, 0, 0.75, 6, 6)"/>
<path fill="none" stroke-width="1" stroke-linecap="round" stroke-linejoin="round" stroke="rgb(5.488586%, 5.488586%, 5.488586%)" stroke-opacity="1" stroke-miterlimit="4" d="M 50.510419 263.041678 C 50.458336 273.328137 52.979169 281.41147 56.968753 283.640637 C 59.020836 284.781262 61.098961 284.812512 61.098961 284.812512 C 61.79167 284.812512 65.281253 284.760429 67.489586 281.88022 C 69.458337 279.312512 68.968753 276.369804 68.880212 275.869803 " transform="matrix(0.75, 0, 0, 0.75, 6, 6)"/>
<path fill="none" stroke-width="1" stroke-linecap="round" stroke-linejoin="round" stroke="rgb(5.488586%, 5.488586%, 5.488586%)" stroke-opacity="1" stroke-miterlimit="4" d="M 22.338543 268.239595 C 21.81771 268.500012 20.16146 269.270845 18.369793 268.812512 C 15.182293 268.000012 14.817709 264.151053 14.802084 263.869803 C 14.609376 261.421886 16.109376 258.567719 18.968751 257.552094 C 21.171876 256.770844 23.291668 257.390636 24.421876 257.718761 C 28.078127 258.791678 30.088543 261.281261 31.088543 262.541678 C 34.291668 266.619803 32.729168 268.59897 36.010419 271.500012 C 36.901044 272.291678 38.697919 273.890637 41.458335 274.312512 C 44.328127 274.760428 45.510419 273.520845 48.130211 274.250012 C 50.697919 274.968762 52.031253 276.859387 52.369794 277.390637 C 52.531253 277.63022 54.401044 280.640637 52.640628 283.671887 C 52.281253 284.302096 51.208336 286.130221 48.802086 286.661471 C 46.609377 287.130221 44.197919 286.328137 42.88021 284.760429 C 41.750002 283.421887 41.421877 281.531262 42.302085 280.031262 C 42.489585 279.697929 43.088544 278.682304 44.447919 278.270845 C 45.588544 277.932304 47.041669 278.078137 48.041669 278.88022 C 48.921877 279.588554 49.078127 280.500012 49.109377 280.770845 " transform="matrix(0.75, 0, 0, 0.75, 6, 6)"/>
<path fill="none" stroke-width="1" stroke-linecap="round" stroke-linejoin="round" stroke="rgb(5.488586%, 5.488586%, 5.488586%)" stroke-opacity="1" stroke-miterlimit="4" d="M 33.947918 268.697928 C 34.369793 273.260428 36.697919 277.010429 40.109377 278.229179 C 40.890627 278.510429 42.109377 278.791679 43.729169 278.588554 " transform="matrix(0.75, 0, 0, 0.75, 6, 6)"/>
<path fill="none" stroke-width="1" stroke-linecap="round" stroke-linejoin="round" stroke="rgb(5.488586%, 5.488586%, 5.488586%)" stroke-opacity="1" stroke-miterlimit="4" d="M 14.260418 252.791678 C 14.380209 252.989594 17.041668 257.250011 21.020835 257.000011 C 24.239585 256.802094 26.140626 253.781261 26.968751 252.458344 C 31.578127 245.098969 26.651043 235.020843 25.890626 233.510427 " transform="matrix(0.75, 0, 0, 0.75, 6, 6)"/>
<path fill="none" stroke-width="1" stroke-linecap="round" stroke-linejoin="round" stroke="rgb(5.488586%, 5.488586%, 5.488586%)" stroke-opacity="1" stroke-miterlimit="4" d="M 30.479168 261.63022 C 31.119793 261.791678 33.682293 262.369803 35.88021 260.947928 C 38.552085 259.208344 39.640627 255.182303 38.031252 251.338552 " transform="matrix(0.75, 0, 0, 0.75, 6, 6)"/>
<path fill="none" stroke-width="1" stroke-linecap="round" stroke-linejoin="round" stroke="rgb(5.488586%, 5.488586%, 5.488586%)" stroke-opacity="1" stroke-miterlimit="4" d="M 28.671877 247.880219 C 29.078127 247.901052 29.932293 247.890636 30.828127 247.421886 C 32.328127 246.630219 32.791668 245.161469 32.88021 244.859386 " transform="matrix(0.75, 0, 0, 0.75, 6, 6)"/>
<path fill="none" stroke-width="1" stroke-linecap="round" stroke-linejoin="round" stroke="rgb(5.488586%, 5.488586%, 5.488586%)" stroke-opacity="1" stroke-miterlimit="4" d="M 14.187501 195.098967 C 15.791668 207.979176 21.41146 237.421885 45.588544 258.968761 C 50.697919 263.520845 55.921878 267.088553 60.911461 269.901053 " transform="matrix(0.75, 0, 0, 0.75, 6, 6)"/>
<path fill-rule="nonzero" fill="rgb(92.158508%, 10.978699%, 14.118958%)" fill-opacity="1" stroke-width="0.75" stroke-linecap="round" stroke-linejoin="round" stroke="rgb(0%, 0%, 0%)" stroke-opacity="1" stroke-miterlimit="4" d="M 74.557295 35.552085 C 71.51042 35.479168 70.802087 37.812502 70.640628 38.932294 C 70.47917 37.812502 69.770837 35.479168 66.718753 35.552085 C 62.69792 35.651043 62.171878 40.151044 63.578128 42.421877 C 64.97917 44.687502 65.708336 45.421877 67.109378 46.869794 C 68.432295 48.239586 70.01042 49.781252 70.588545 50.718752 C 70.588545 50.718752 70.619795 50.828127 70.640628 50.802086 C 70.661462 50.828127 70.687503 50.718752 70.687503 50.718752 C 71.270837 49.781252 72.848962 48.239586 74.171878 46.869794 C 75.567712 45.421877 76.302087 44.687502 77.69792 42.421877 C 79.098962 40.151044 78.567712 35.651043 74.557295 35.552085 Z M 74.557295 35.552085 " transform="matrix(0.75, 0, 0, 0.75, 6, 6)"/>
<path fill-rule="nonzero" fill="rgb(0%, 0%, 0%)" fill-opacity="1" d="M 28.207031 49.734375 L 28.558594 49.703125 L 28.558594 50.765625 L 22.476562 50.765625 L 22.476562 49.703125 L 22.828125 49.734375 C 23.199219 49.726562 23.503906 49.566406 23.761719 49.265625 C 24.007812 48.96875 24.136719 48.609375 24.136719 48.179688 L 24.136719 32.730469 L 22.476562 32.730469 L 22.476562 31.824219 L 22.738281 31.761719 L 23.210938 31.636719 C 23.488281 31.550781 23.761719 31.441406 24.015625 31.289062 C 24.464844 30.996094 24.855469 30.609375 25.199219 30.128906 C 25.359375 29.886719 25.492188 29.632812 25.605469 29.363281 C 25.664062 29.234375 25.71875 29.101562 25.761719 28.957031 C 25.777344 28.898438 25.824219 28.753906 25.882812 28.53125 L 25.964844 28.246094 L 26.925781 28.246094 L 26.925781 48.1875 C 26.925781 48.613281 27.050781 48.984375 27.300781 49.273438 C 27.546875 49.566406 27.855469 49.726562 28.214844 49.738281 Z M 28.207031 49.734375 "/>
<path fill-rule="nonzero" fill="rgb(0%, 0%, 0%)" fill-opacity="1" d="M 46.761719 31.628906 C 47.617188 32.714844 48.277344 33.945312 48.734375 35.316406 C 49.191406 36.691406 49.417969 38.121094 49.417969 39.628906 C 49.417969 41.136719 49.183594 42.601562 48.710938 43.980469 C 48.246094 45.367188 47.566406 46.605469 46.679688 47.707031 C 45.796875 48.789062 44.789062 49.613281 43.65625 50.183594 C 42.523438 50.761719 41.339844 51.046875 40.09375 51.046875 C 38.851562 51.046875 37.710938 50.765625 36.59375 50.203125 C 35.476562 49.640625 34.476562 48.839844 33.59375 47.78125 L 33.449219 47.609375 C 32.59375 46.523438 31.933594 45.292969 31.476562 43.921875 C 31.019531 42.546875 30.796875 41.113281 30.796875 39.621094 C 30.796875 38.128906 31.027344 36.636719 31.5 35.25 C 31.964844 33.863281 32.640625 32.625 33.515625 31.539062 C 34.410156 30.449219 35.421875 29.617188 36.546875 29.039062 C 37.671875 28.460938 38.859375 28.175781 40.101562 28.175781 C 41.347656 28.175781 42.503906 28.453125 43.613281 29.015625 C 44.730469 29.578125 45.726562 30.382812 46.613281 31.441406 C 46.65625 31.5 46.703125 31.558594 46.753906 31.613281 Z M 46.074219 46.988281 C 47.136719 45.613281 47.675781 43.925781 47.675781 41.917969 C 47.675781 41.574219 47.664062 41.21875 47.625 40.867188 C 47.371094 38.316406 46.441406 36.015625 44.828125 33.96875 L 44.8125 33.96875 C 44.8125 33.96875 44.773438 33.90625 44.761719 33.890625 L 44.691406 33.816406 C 43.753906 32.699219 42.726562 31.828125 41.609375 31.222656 C 40.492188 30.609375 39.367188 30.308594 38.242188 30.308594 C 36.609375 30.308594 35.234375 30.96875 34.132812 32.289062 C 33.066406 33.660156 32.527344 35.347656 32.527344 37.359375 C 32.527344 37.703125 32.542969 38.054688 32.578125 38.40625 C 32.835938 40.949219 33.765625 43.246094 35.378906 45.292969 L 35.503906 45.449219 L 35.503906 45.464844 C 37.546875 47.796875 39.699219 48.96875 41.953125 48.96875 C 43.605469 48.96875 44.96875 48.316406 46.066406 47.011719 Z M 46.074219 46.988281 "/>
<path fill-rule="nonzero" fill="rgb(92.158508%, 10.978699%, 14.118958%)" fill-opacity="1" stroke-width="0.75" stroke-linecap="round" stroke-linejoin="round" stroke="rgb(0%, 0%, 0%)" stroke-opacity="1" stroke-miterlimit="4" d="M 150.02084 281.989595 C 153.067715 282.062512 153.781257 279.729179 153.937507 278.609387 C 154.098965 279.729179 154.812507 282.062512 157.859382 281.989595 C 161.880215 281.890637 162.411465 277.390637 161.000007 275.119803 C 159.598965 272.84897 158.869799 272.119803 157.468757 270.671887 C 156.151049 269.302095 154.567715 267.760428 153.98959 266.81772 C 153.98959 266.81772 153.95834 266.708345 153.937507 266.739595 C 153.921882 266.708345 153.890632 266.81772 153.890632 266.81772 C 153.312507 267.760428 151.729173 269.302095 150.411465 270.671887 C 149.010423 272.119803 148.281257 272.84897 146.880215 275.119803 C 145.479173 277.390637 146.010423 281.890637 150.02084 281.989595 Z M 150.02084 281.989595 " transform="matrix(0.75, 0, 0, 0.75, 6, 6)"/>
<path fill-rule="nonzero" fill="rgb(0%, 0%, 0%)" fill-opacity="1" d="M 152.308594 200.421875 L 151.957031 200.453125 L 151.957031 199.386719 L 158.039062 199.386719 L 158.039062 200.453125 L 157.6875 200.421875 C 157.320312 200.429688 157.011719 200.585938 156.757812 200.886719 C 156.511719 201.1875 156.382812 201.546875 156.382812 201.976562 L 156.382812 217.425781 L 158.039062 217.425781 L 158.039062 218.332031 L 157.777344 218.390625 L 157.304688 218.519531 C 157.027344 218.601562 156.757812 218.714844 156.503906 218.863281 C 156.050781 219.15625 155.664062 219.546875 155.316406 220.027344 C 155.160156 220.265625 155.023438 220.523438 154.914062 220.792969 C 154.851562 220.921875 154.800781 221.054688 154.753906 221.199219 C 154.738281 221.257812 154.695312 221.398438 154.636719 221.625 L 154.550781 221.910156 L 153.59375 221.910156 L 153.59375 201.96875 C 153.59375 201.539062 153.464844 201.171875 153.21875 200.878906 C 152.96875 200.585938 152.664062 200.429688 152.300781 200.414062 Z M 152.308594 200.421875 "/>
<path fill-rule="nonzero" fill="rgb(0%, 0%, 0%)" fill-opacity="1" d="M 133.761719 218.527344 C 132.90625 217.441406 132.246094 216.210938 131.789062 214.835938 C 131.332031 213.464844 131.109375 212.03125 131.109375 210.523438 C 131.109375 209.015625 131.339844 207.554688 131.8125 206.175781 C 132.277344 204.789062 132.960938 203.550781 133.84375 202.449219 C 134.730469 201.367188 135.734375 200.542969 136.867188 199.972656 C 138 199.394531 139.183594 199.109375 140.429688 199.109375 C 141.675781 199.109375 142.816406 199.386719 143.933594 199.949219 C 145.050781 200.511719 146.046875 201.316406 146.933594 202.371094 L 147.074219 202.546875 C 147.929688 203.632812 148.589844 204.863281 149.046875 206.234375 C 149.503906 207.609375 149.730469 209.039062 149.730469 210.53125 C 149.730469 212.023438 149.496094 213.515625 149.023438 214.90625 C 148.558594 216.292969 147.886719 217.53125 147.007812 218.617188 C 146.113281 219.703125 145.101562 220.539062 143.976562 221.113281 C 142.851562 221.691406 141.667969 221.976562 140.421875 221.976562 C 139.175781 221.976562 138.023438 221.699219 136.914062 221.136719 C 135.796875 220.574219 134.796875 219.773438 133.914062 218.714844 C 133.867188 218.65625 133.824219 218.59375 133.769531 218.542969 Z M 134.445312 203.167969 C 133.378906 204.539062 132.839844 206.226562 132.839844 208.238281 C 132.839844 208.582031 132.855469 208.933594 132.890625 209.289062 C 133.148438 211.835938 134.078125 214.140625 135.691406 216.1875 L 135.703125 216.1875 C 135.703125 216.1875 135.742188 216.246094 135.757812 216.261719 L 135.824219 216.335938 C 136.761719 217.453125 137.789062 218.324219 138.90625 218.933594 C 140.023438 219.546875 141.148438 219.847656 142.273438 219.847656 C 143.910156 219.847656 145.28125 219.1875 146.386719 217.867188 C 147.449219 216.496094 147.988281 214.808594 147.988281 212.796875 C 147.988281 212.453125 147.976562 212.101562 147.9375 211.746094 C 147.683594 209.203125 146.753906 206.910156 145.140625 204.863281 L 145.011719 204.703125 L 145.011719 204.691406 C 142.972656 202.359375 140.820312 201.1875 138.5625 201.1875 C 136.914062 201.1875 135.546875 201.839844 134.453125 203.144531 Z M 134.445312 203.167969 "/>
<path fill-rule="nonzero" fill="rgb(92.158508%, 10.978699%, 14.118958%)" fill-opacity="1" stroke-width="0.75" stroke-linecap="round" stroke-linejoin="round" stroke="rgb(0%, 0%, 0%)" stroke-opacity="1" stroke-miterlimit="4" d="M 91.260421 67.359378 C 85.869796 67.22917 84.630212 71.338545 84.348962 73.317712 C 84.062504 71.338545 82.817712 67.22917 77.437504 67.359378 C 70.359378 67.531253 69.421878 75.468753 71.890628 79.47917 C 74.359378 83.489587 75.640628 84.770837 78.119795 87.328129 C 80.44792 89.739587 83.239587 92.447921 84.260421 94.119796 C 84.260421 94.119796 84.312504 94.312504 84.348962 94.260421 C 84.380212 94.312504 84.437504 94.119796 84.437504 94.119796 C 85.468754 92.458338 88.250004 89.739587 90.578129 87.328129 C 93.052088 84.770837 94.328129 83.489587 96.812504 79.47917 C 99.281254 75.468753 98.348963 67.531253 91.260421 67.359378 Z M 91.260421 67.359378 " transform="matrix(0.75, 0, 0, 0.75, 6, 6)"/>
<path fill-rule="nonzero" fill="rgb(92.158508%, 10.978699%, 14.118958%)" fill-opacity="1" stroke-width="0.75" stroke-linecap="round" stroke-linejoin="round" stroke="rgb(0%, 0%, 0%)" stroke-opacity="1" stroke-miterlimit="4" d="M 91.260421 119.901047 C 85.869796 119.770839 84.630212 123.880214 84.348962 125.859381 C 84.062504 123.880214 82.817712 119.770839 77.437504 119.901047 C 70.359378 120.067714 69.421878 128.010422 71.890628 132.020839 C 74.359378 136.031256 75.640628 137.312506 78.119795 139.869798 C 80.44792 142.281256 83.239587 144.98959 84.260421 146.661465 C 84.260421 146.661465 84.312504 146.848965 84.348962 146.80209 C 84.380212 146.848965 84.437504 146.661465 84.437504 146.661465 C 85.468754 145.000006 88.250004 142.281256 90.578129 139.869798 C 93.052088 137.312506 94.328129 136.031256 96.812504 132.020839 C 99.281254 128.010422 98.348963 120.067714 91.260421 119.901047 Z M 91.260421 119.901047 " transform="matrix(0.75, 0, 0, 0.75, 6, 6)"/>
<path fill-rule="nonzero" fill="rgb(92.158508%, 10.978699%, 14.118958%)" fill-opacity="1" stroke-width="0.75" stroke-linecap="round" stroke-linejoin="round" stroke="rgb(0%, 0%, 0%)" stroke-opacity="1" stroke-miterlimit="4" d="M 147.067715 66.567711 C 141.682298 66.437503 140.437506 70.552087 140.161465 72.531253 C 139.869798 70.552087 138.630214 66.437503 133.250006 66.567711 C 126.171881 66.739586 125.229172 74.682295 127.697922 78.687504 C 130.171881 82.69792 131.447922 83.97917 133.932298 86.541671 C 136.260423 88.947921 139.052089 91.661462 140.067715 93.328129 C 140.067715 93.328129 140.119798 93.520838 140.161465 93.468754 C 140.187506 93.520838 140.250006 93.328129 140.250006 93.328129 C 141.281256 91.671879 144.062506 88.947921 146.390631 86.541671 C 148.859382 83.97917 150.140632 82.69792 152.619798 78.687504 C 155.088548 74.682295 154.161465 66.739586 147.067715 66.567711 Z M 147.067715 66.567711 " transform="matrix(0.75, 0, 0, 0.75, 6, 6)"/>
<path fill-rule="nonzero" fill="rgb(92.158508%, 10.978699%, 14.118958%)" fill-opacity="1" stroke-width="0.75" stroke-linecap="round" stroke-linejoin="round" stroke="rgb(0%, 0%, 0%)" stroke-opacity="1" stroke-miterlimit="4" d="M 147.067715 119.630214 C 141.682298 119.500005 140.437506 123.60938 140.161465 125.588547 C 139.869798 123.60938 138.630214 119.500005 133.250006 119.630214 C 126.171881 119.802089 125.229172 127.739589 127.697922 131.750006 C 130.171881 135.760423 131.447922 137.041673 133.932298 139.598964 C 136.260423 142.010423 139.052089 144.718756 140.067715 146.390631 C 140.067715 146.390631 140.119798 146.578131 140.161465 146.531256 C 140.187506 146.578131 140.250006 146.390631 140.250006 146.390631 C 141.281256 144.729173 144.062506 142.010423 146.390631 139.598964 C 148.859382 137.041673 150.140632 135.760423 152.619798 131.750006 C 155.088548 127.739589 154.161465 119.802089 147.067715 119.630214 Z M 147.067715 119.630214 " transform="matrix(0.75, 0, 0, 0.75, 6, 6)"/>
<path fill-rule="nonzero" fill="rgb(92.158508%, 10.978699%, 14.118958%)" fill-opacity="1" stroke-width="0.75" stroke-linecap="round" stroke-linejoin="round" stroke="rgb(0%, 0%, 0%)" stroke-opacity="1" stroke-miterlimit="4" d="M 120.338547 92.359379 C 114.947922 92.229171 113.708338 96.338546 113.432297 98.317713 C 113.14063 96.338546 111.901047 92.229171 106.520838 92.359379 C 99.437504 92.531254 98.500004 100.468755 100.968755 104.479171 C 103.437505 108.489588 104.718755 109.770838 107.197921 112.32813 C 109.531255 114.739588 112.317713 117.447922 113.338547 119.119797 C 113.338547 119.119797 113.39063 119.312505 113.432297 119.260422 C 113.458338 119.312505 113.520838 119.119797 113.520838 119.119797 C 114.552088 117.458339 117.32813 114.739588 119.661464 112.32813 C 122.130214 109.770838 123.411464 108.489588 125.890631 104.479171 C 128.359381 100.468755 127.432297 92.531254 120.338547 92.359379 Z M 120.338547 92.359379 " transform="matrix(0.75, 0, 0, 0.75, 6, 6)"/>
<path fill-rule="nonzero" fill="rgb(92.158508%, 10.978699%, 14.118958%)" fill-opacity="1" stroke-width="0.75" stroke-linecap="round" stroke-linejoin="round" stroke="rgb(0%, 0%, 0%)" stroke-opacity="1" stroke-miterlimit="4" d="M 91.260421 172.437508 C 85.869796 172.312508 84.630212 176.421883 84.348962 178.401049 C 84.062504 176.421883 82.817712 172.312508 77.437504 172.437508 C 70.359378 172.609383 69.421878 180.552091 71.890628 184.562508 C 74.359378 188.567717 75.640628 189.848967 78.119795 192.411467 C 80.44792 194.817717 83.239587 197.531259 84.260421 199.197925 C 84.260421 199.197925 84.312504 199.390634 84.348962 199.33855 C 84.380212 199.390634 84.437504 199.197925 84.437504 199.197925 C 85.468754 197.541675 88.250004 194.817717 90.578129 192.411467 C 93.052088 189.848967 94.328129 188.567717 96.812504 184.562508 C 99.281254 180.552091 98.348963 172.609383 91.260421 172.437508 Z M 91.260421 172.437508 " transform="matrix(0.75, 0, 0, 0.75, 6, 6)"/>
<path fill-rule="nonzero" fill="rgb(92.158508%, 10.978699%, 14.118958%)" fill-opacity="1" stroke-width="0.75" stroke-linecap="round" stroke-linejoin="round" stroke="rgb(0%, 0%, 0%)" stroke-opacity="1" stroke-miterlimit="4" d="M 91.260421 224.979176 C 85.869796 224.848968 84.630212 228.958343 84.348962 230.93751 C 84.062504 228.958343 82.817712 224.848968 77.437504 224.979176 C 70.359378 225.151051 69.421878 233.088552 71.890628 237.098969 C 74.359378 241.109385 75.640628 242.390635 78.119795 244.947927 C 80.44792 247.359386 83.239587 250.067719 84.260421 251.739594 C 84.260421 251.739594 84.312504 251.932302 84.348962 251.880219 C 84.380212 251.932302 84.437504 251.739594 84.437504 251.739594 C 85.468754 250.078136 88.250004 247.359386 90.578129 244.947927 C 93.052088 242.390635 94.328129 241.109385 96.812504 237.098969 C 99.281254 233.088552 98.348963 225.151051 91.260421 224.979176 Z M 91.260421 224.979176 " transform="matrix(0.75, 0, 0, 0.75, 6, 6)"/>
<path fill-rule="nonzero" fill="rgb(92.158508%, 10.978699%, 14.118958%)" fill-opacity="1" stroke-width="0.75" stroke-linecap="round" stroke-linejoin="round" stroke="rgb(0%, 0%, 0%)" stroke-opacity="1" stroke-miterlimit="4" d="M 147.067715 172.687508 C 141.682298 172.562508 140.437506 176.671883 140.161465 178.651049 C 139.869798 176.671883 138.630214 172.562508 133.250006 172.687508 C 126.171881 172.859383 125.229172 180.802091 127.697922 184.812508 C 130.171881 188.817717 131.447922 190.098967 133.932298 192.661467 C 136.260423 195.067717 139.052089 197.781259 140.067715 199.447925 C 140.067715 199.447925 140.119798 199.640634 140.161465 199.58855 C 140.187506 199.640634 140.250006 199.447925 140.250006 199.447925 C 141.281256 197.791675 144.062506 195.067717 146.390631 192.661467 C 148.859382 190.098967 150.140632 188.817717 152.619798 184.812508 C 155.088548 180.802091 154.161465 172.859383 147.067715 172.687508 Z M 147.067715 172.687508 " transform="matrix(0.75, 0, 0, 0.75, 6, 6)"/>
<path fill-rule="nonzero" fill="rgb(92.158508%, 10.978699%, 14.118958%)" fill-opacity="1" stroke-width="0.75" stroke-linecap="round" stroke-linejoin="round" stroke="rgb(0%, 0%, 0%)" stroke-opacity="1" stroke-miterlimit="4" d="M 147.067715 225.75001 C 141.682298 225.619801 140.437506 229.729177 140.161465 231.708343 C 139.869798 229.729177 138.630214 225.619801 133.250006 225.75001 C 126.171881 225.921885 125.229172 233.859385 127.697922 237.869802 C 130.171881 241.880219 131.447922 243.161469 133.932298 245.718761 C 136.260423 248.130219 139.052089 250.838552 140.067715 252.510428 C 140.067715 252.510428 140.119798 252.697928 140.161465 252.651053 C 140.187506 252.697928 140.250006 252.510428 140.250006 252.510428 C 141.281256 250.848969 144.062506 248.130219 146.390631 245.718761 C 148.859382 243.161469 150.140632 241.880219 152.619798 237.869802 C 155.088548 233.859385 154.161465 225.921885 147.067715 225.75001 Z M 147.067715 225.75001 " transform="matrix(0.75, 0, 0, 0.75, 6, 6)"/>
<path fill-rule="nonzero" fill="rgb(92.158508%, 10.978699%, 14.118958%)" fill-opacity="1" stroke-width="0.75" stroke-linecap="round" stroke-linejoin="round" stroke="rgb(0%, 0%, 0%)" stroke-opacity="1" stroke-miterlimit="4" d="M 120.338547 196.911467 C 114.947922 196.781259 113.708338 200.890634 113.432297 202.8698 C 113.14063 200.890634 111.901047 196.781259 106.520838 196.911467 C 99.437504 197.078134 98.500004 205.020842 100.968755 209.031259 C 103.437505 213.041676 104.718755 214.317718 107.197921 216.880218 C 109.531255 219.291676 112.317713 222.00001 113.338547 223.671885 C 113.338547 223.671885 113.39063 223.859385 113.432297 223.81251 C 113.458338 223.859385 113.520838 223.671885 113.520838 223.671885 C 114.552088 222.010426 117.32813 219.291676 119.661464 216.880218 C 122.130214 214.317718 123.411464 213.041676 125.890631 209.031259 C 128.359381 205.020842 127.432297 197.078134 120.338547 196.911467 Z M 120.338547 196.911467 " transform="matrix(0.75, 0, 0, 0.75, 6, 6)"/>
</svg>
