<svg width="225" height="318" viewBox="0 0 225 318" fill="none" xmlns="http://www.w3.org/2000/svg">
<path d="M216.75 317.71H8.06003C3.63003 317.71 0.0400391 314.09 0.0400391 309.63V8.87C0.0400391 4.41 3.63003 0.789978 8.06003 0.789978H216.75C221.18 0.789978 224.77 4.41 224.77 8.87V309.63C224.77 314.09 221.18 317.71 216.75 317.71Z" fill="white"/>
<path d="M210.28 117.78C210.28 83.25 210.29 48.71 210.3 14.18C145.16 14.18 80.01 14.18 14.87 14.19C14.84 48.16 14.81 82.13 14.78 116.1C18.2 100.85 25.1 78.36 38.26 66.35C48.33 57.17 53.36 52.57 57.3 50.73C59.13 49.87 64.98 47.34 69.82 41.43C70.72 40.34 71.37 39.38 71.78 38.74C72.2 39.3 73.82 41.37 76.05 41.41C78.95 41.46 82.19 38.06 82.35 32.94C82.69 33.7 85.54 39.76 92.02 41.13C95.14 41.79 97.76 41.09 99.11 40.61C99.99 39.88 101.16 38.75 102.23 37.13C103.28 35.54 103.85 34.05 104.18 32.97H120.91C121.01 33.59 121.82 38.16 125.98 40.44C130.05 42.67 134.18 40.97 135.45 40.46C139.84 38.69 141.7 35.04 142.11 34.18C143.1 38.9 146.4 41.82 149.3 41.59C149.77 41.55 151.28 41.35 152.85 39.59L157.86 43.76C159.82 44.92 162.57 46.63 165.74 48.85C169.46 51.45 181.8 60.21 191.49 72.8C204.36 89.52 208.67 107.93 210.27 117.76L210.28 117.78Z" fill="url(#paint0_linear_2_18689)"/>
<path d="M210.8 304.57H14.17C14.17 244.13 14.17 183.69 14.17 123.25C14.17 86.73 14.17 50.22 14.17 13.7H210.8C210.8 50.16 210.8 86.62 210.8 123.08C210.8 183.58 210.8 244.07 210.8 304.57Z" stroke="#0E0E0E" stroke-linecap="round" stroke-linejoin="round"/>
<path d="M112.37 43.62C112.3 42.79 111.96 39.88 109.55 37.41C107.39 35.19 104.85 34.66 103.98 34.51C104.05 33.64 104.12 32.77 104.19 31.9C105.33 31.37 107.62 30.11 109.52 27.56C111.45 24.97 112 22.39 112.18 21.14C112.63 22.7 113.62 25.37 115.88 27.97C117.62 29.97 119.47 31.19 120.75 31.9C120.82 32.77 120.89 33.64 120.96 34.51C120.34 34.57 116.35 35.03 113.95 38.52C112.54 40.58 112.37 42.68 112.35 43.62H112.37Z" fill="white"/>
<path d="M70.76 29.69C71.87 29.37 73.7 29.02 75.77 29.52C77.58 29.95 78.8 30.83 79.49 31.35C85.57 35.91 86.47 39.45 90.65 41.05C91.19 41.26 95.1 42.55 99.04 40.71C101.82 39.41 103.8 36.45 104.11 33.24C104.55 28.64 101.35 24.09 97.64 23.26C97.21 23.16 94.87 22.64 92.96 24.07C92.72 24.25 91.24 25.39 91.03 27.4C91 27.7 90.76 30.29 92.74 31.55C93.85 32.25 95.26 32.29 96.38 31.77C97.97 31.04 98.93 29.21 98.68 27.25C99.07 27.68 99.61 28.35 100.04 29.27C100.25 29.71 101.61 32.72 100.31 35.61C98.73 39.13 94.42 39.75 93.84 39.83C89.99 40.38 85.99 38.36 83.37 34.73" stroke="#0E0E0E" stroke-linecap="round" stroke-linejoin="round"/>
<path d="M104.19 31.78C104.95 31.41 106.14 30.74 107.35 29.64C111.22 26.11 111.93 21.21 112.25 19.03C112.43 17.8 112.59 15.97 112.38 13.7" stroke="#0E0E0E" stroke-linecap="round" stroke-linejoin="round"/>
<path d="M103.98 34.39C104.93 34.56 105.96 34.86 106.98 35.38C111.59 37.73 112.27 42.65 112.37 43.5" stroke="#0E0E0E" stroke-linecap="round" stroke-linejoin="round"/>
<path d="M154.2 29.69C153.09 29.37 151.26 29.02 149.19 29.52C147.38 29.95 146.16 30.83 145.47 31.35C139.39 35.91 138.49 39.45 134.31 41.05C133.77 41.26 129.86 42.55 125.92 40.71C123.14 39.41 121.16 36.45 120.85 33.24C120.41 28.64 123.61 24.09 127.32 23.26C127.75 23.16 130.09 22.64 132 24.07C132.24 24.25 133.72 25.39 133.93 27.4C133.96 27.7 134.2 30.29 132.22 31.55C131.11 32.25 129.7 32.29 128.58 31.77C126.99 31.04 126.03 29.21 126.28 27.25C125.89 27.68 125.35 28.35 124.92 29.27C124.71 29.71 123.35 32.72 124.65 35.61C126.23 39.13 130.54 39.75 131.12 39.83C134.97 40.38 138.97 38.36 141.59 34.73" stroke="#0E0E0E" stroke-linecap="round" stroke-linejoin="round"/>
<path d="M120.98 34.39C120.03 34.56 119 34.86 117.98 35.38C113.37 37.73 112.69 42.65 112.59 43.5" stroke="#0E0E0E" stroke-linecap="round" stroke-linejoin="round"/>
<path d="M153.26 38.83C153.11 39.17 152.32 40.92 150.47 41.5C148.51 42.12 146.79 40.98 146.07 40.5C143.04 38.49 142.74 34.66 142.71 34.04" stroke="#0E0E0E" stroke-linecap="round" stroke-linejoin="round"/>
<path d="M163.89 48.05C163.03 47.56 161.82 46.82 160.46 45.83C156.53 42.97 153.46 40.74 152.66 37.1C151.93 33.79 153.42 31 153.68 30.53C156.13 26.11 161.26 25.38 162.32 25.26C167.09 24.72 171.93 27.24 174.96 31.64" stroke="#0E0E0E" stroke-linecap="round" stroke-linejoin="round"/>
<path d="M174.3 54.92C174.35 44.63 171.83 36.55 167.84 34.32C165.79 33.18 163.71 33.15 163.71 33.15C163.02 33.15 159.53 33.2 157.32 36.08C155.35 38.65 155.84 41.59 155.93 42.09" stroke="#0E0E0E" stroke-linecap="round" stroke-linejoin="round"/>
<path d="M202.47 49.72C202.99 49.46 204.65 48.69 206.44 49.15C209.63 49.96 209.99 53.81 210.01 54.09C210.2 56.54 208.7 59.39 205.84 60.41C203.64 61.19 201.52 60.57 200.39 60.24C196.73 59.17 194.72 56.68 193.72 55.42C190.52 51.34 192.08 49.36 188.8 46.46C187.91 45.67 186.11 44.07 183.35 43.65C180.48 43.2 179.3 44.44 176.68 43.71C174.11 42.99 172.78 41.1 172.44 40.57C172.28 40.33 170.41 37.32 172.17 34.29C172.53 33.66 173.6 31.83 176.01 31.3C178.2 30.83 180.61 31.63 181.93 33.2C183.06 34.54 183.39 36.43 182.51 37.93C182.32 38.26 181.72 39.28 180.36 39.69C179.22 40.03 177.77 39.88 176.77 39.08C175.89 38.37 175.73 37.46 175.7 37.19" stroke="#0E0E0E" stroke-linecap="round" stroke-linejoin="round"/>
<path d="M190.86 49.25C190.44 44.69 188.11 40.94 184.7 39.72C183.92 39.44 182.7 39.16 181.08 39.36" stroke="#0E0E0E" stroke-linecap="round" stroke-linejoin="round"/>
<path d="M194.32 56.32C193.7 56.16 191.12 55.56 188.92 57C186.27 58.74 185.21 62.77 186.84 66.59" stroke="#0E0E0E" stroke-linecap="round" stroke-linejoin="round"/>
<path d="M196.13 70.07C195.72 70.05 194.87 70.06 193.97 70.53C192.51 71.3 192.03 72.71 191.94 73.03" stroke="#0E0E0E" stroke-linecap="round" stroke-linejoin="round"/>
<path d="M210.78 121.82C210.76 121.68 210.74 121.43 210.7 121.14C209.92 114.29 205.51 82.31 179.21 58.98C175.94 56.08 170.87 52.01 163.89 48.05" stroke="#0E0E0E" stroke-linecap="round" stroke-linejoin="round"/>
<path d="M109.28 57.18C109.55 57.32 109.93 57.49 110.4 57.59C110.59 57.63 110.76 57.65 110.92 57.67C110.92 57.44 110.89 57.18 110.83 56.89C110.73 56.42 110.56 56.04 110.42 55.77C110.5 55.7 110.92 55.34 111.53 55.38C112.01 55.41 112.33 55.65 112.44 55.74C112.29 55.94 112.07 56.29 111.95 56.79C111.87 57.14 111.86 57.44 111.88 57.68C112.07 57.67 112.27 57.64 112.49 57.6C112.96 57.5 113.34 57.33 113.61 57.19C113.68 57.27 114.04 57.69 114 58.3C113.97 58.78 113.73 59.1 113.64 59.21C113.44 59.06 113.09 58.84 112.59 58.72C112.35 58.66 112.12 58.64 111.93 58.64C111.95 59.53 111.97 60.41 111.99 61.3C111.62 61.3 111.25 61.32 110.88 61.32C110.9 60.43 110.92 59.53 110.94 58.64C110.76 58.64 110.55 58.67 110.33 58.72C109.83 58.84 109.48 59.07 109.28 59.21C109.19 59.1 108.94 58.78 108.92 58.3C108.89 57.69 109.24 57.27 109.31 57.19L109.28 57.18Z" fill="black" stroke="black" stroke-width="0.75" stroke-linecap="round" stroke-linejoin="round"/>
<path d="M114.14 61.51C113.18 63.31 112.22 65.1 111.26 66.9C110.44 65.22 109.62 63.54 108.8 61.86C109.16 61.6 110.09 60.9999 111.43 60.9099C112.76 60.8299 113.75 61.3 114.14 61.51Z" fill="white" stroke="black" stroke-width="0.75" stroke-linecap="round" stroke-linejoin="round"/>
<path d="M87.3901 77.73C87.9201 76.07 88.9101 73.8 90.8601 71.77C95.1301 67.31 101.04 67.11 110.78 66.91C120.14 66.73 125.47 66.7 130.39 70.48C133.29 72.71 134.94 75.41 135.87 77.29" stroke="black" stroke-width="0.75" stroke-linecap="round" stroke-linejoin="round"/>
<path d="M69.6001 249.48C68.6001 257.74 67.6001 265.99 66.6001 274.25C69.6401 278.64 72.6701 283.03 75.7101 287.42C78.9101 288.58 83.7601 289.88 89.7201 289.79C99.6101 289.64 106.9 285.76 110.25 283.67C110.59 262.29 110.92 240.91 111.26 219.53" stroke="black" stroke-width="0.75" stroke-linecap="round" stroke-linejoin="round"/>
<path d="M153.06 249.52C154.06 255.9 155.05 262.29 156.05 268.67C156.91 271.24 157.77 275.27 156.44 279.53C153.36 289.45 140.69 293.39 132.36 293.54C122.87 293.72 115.83 289.11 112.82 286.83C112.3 264.4 111.78 241.97 111.26 219.53" stroke="black" stroke-width="0.75" stroke-linecap="round" stroke-linejoin="round"/>
<path d="M91.51 110.04C91.69 110.23 92.18 110.72 92.93 110.81C93.04 110.82 93.94 110.92 94.17 110.5C94.33 110.21 94.05 109.87 93.8 109.2C93.54 108.5 93.45 107.88 93.43 107.46" stroke="black" stroke-width="0.75" stroke-linecap="round" stroke-linejoin="round"/>
<path d="M111.55 115.03C111.06 114.94 110.31 114.85 109.44 115.03C107.89 115.35 107.78 116.15 106.17 116.77C104.41 117.44 103.68 116.82 102.36 117.76C101.5 118.38 101.26 119.04 101.2 119.21C101.02 119.75 100.89 120.74 101.41 121.28C102.22 122.12 104.15 121.37 104.97 121.05C106.51 120.45 106.79 119.78 108.2 119.25C109.53 118.75 110.73 118.64 111.55 118.63V115.03Z" fill="black"/>
<path d="M105.02 91.3C103.06 91.44 92.7401 92.23 88.7901 93.89C87.3601 94.49 86.9401 95.12 86.8001 95.63C86.4401 96.94 87.7301 98.29 88.0401 98.61C87.5401 99.33 86.7501 100.3 85.5601 101.18C82.3201 103.55 78.6602 103.26 78.5302 104.41C78.5002 104.69 78.6701 105.12 79.6901 105.73C79.1401 106.26 76.9001 108.56 76.7901 112.1C76.6801 115.73 78.8602 118.76 81.3202 120.28C82.4402 120.97 83.5002 121.28 84.2102 121.43C84.8602 122.28 86.3501 123.95 88.8001 124.78C93.7701 126.46 98.1501 123.17 98.5501 122.86C97.7501 121.37 96.8901 119.37 96.3601 116.91C96.1001 115.71 95.9602 114.59 95.9002 113.59C95.3802 113.77 93.5601 114.36 92.3001 113.49C90.2501 112.06 90.7001 107.44 93.0401 105.55C93.7201 105 94.4502 104.77 94.9002 104.67C94.6402 103.64 94.3601 102.08 94.4901 100.19C94.5201 99.8 94.6701 97.5 95.4901 95.86C97.6401 91.57 104.59 91.32 105 91.31L105.02 91.3Z" fill="black" stroke="black" stroke-width="0.75" stroke-linecap="round" stroke-linejoin="round"/>
<path d="M108.53 100.18C108.59 100.11 108.61 100.02 108.48 99.06C108.39 98.43 108.35 98.11 108.29 98C107.93 97.32 106.66 97.33 106.18 97.32C102.45 97.25 101.53 95.32 99.4801 96.14C97.8401 96.79 96.8901 98.63 97.1801 98.99C97.4801 99.37 98.8601 97.81 101.15 97.87C102.81 97.91 104.7 98.8 106.55 99.67C107.17 99.96 108.23 100.49 108.52 100.17L108.53 100.18Z" fill="black"/>
<path d="M97.0801 123.79C96.4001 125.22 95.64 127.19 95.16 129.61C94.84 131.24 94.69 132.07 94.91 133.02C95.19 134.22 95.8901 135.07 99.5601 137.92C102.5 140.21 104 141.36 105.08 141.77C107.53 142.69 109.86 142.64 111.53 142.39" stroke="black" stroke-width="0.75" stroke-linecap="round" stroke-linejoin="round"/>
<path d="M107.83 146.31C102.34 144.75 98.35 142.6 95.79 140.97C89.57 137.03 89.49 134.74 89.54 134.1C89.58 133.69 89.68 132.51 90.54 132C90.61 131.96 91.19 131.63 91.81 131.81C92.53 132.02 92.61 132.69 93.3 133.3C93.67 133.63 94.29 134.02 95.39 134.13" stroke="black" stroke-width="0.75" stroke-linecap="round" stroke-linejoin="round"/>
<path d="M97.0801 123.79C91.6401 126.75 88.46 126.8 86.54 126.23C85.97 126.06 84.7201 125.61 83.2501 125.99C81.5601 126.42 80.43 127.71 79.73 128.72C79.1 128.84 78.12 129.01 76.92 129.18C74.78 129.47 74.13 129.43 73.22 129.83C72.55 130.13 71.61 130.72 70.72 132.03C69.88 132.2 68.5 132.47 66.79 132.77C63.4 133.38 58.6301 134.52 57.1901 135C51.9401 136.76 50.0401 144.46 46.8801 155.12C45.1501 160.96 42.4701 169.59 38.7101 180.28" stroke="black" stroke-width="0.75" stroke-linecap="round" stroke-linejoin="round"/>
<path d="M70.7101 132.04C73.1101 136.34 78.0301 143.82 86.8901 150.16C96.7901 157.25 106.57 159.31 111.55 160.01" stroke="black" stroke-width="0.75" stroke-linecap="round" stroke-linejoin="round"/>
<path d="M79.73 128.73C81.4 131.81 83.97 135.66 87.86 139.34C96.72 147.73 106.91 150.01 111.55 150.74" stroke="black" stroke-width="0.75" stroke-linecap="round" stroke-linejoin="round"/>
<path d="M82.92 133.74C81.86 132.07 80.8001 130.4 79.7401 128.72C78.9301 128.85 78.1301 128.99 77.3201 129.12C77.9301 130.45 78.6601 131.84 79.5301 133.27C82.3901 137.97 85.7601 141.39 88.6301 143.78C87.2001 142.56 84.9801 140.3 83.7101 136.83C83.3001 135.72 83.06 134.67 82.92 133.74Z" fill="black" stroke="black" stroke-width="0.75" stroke-linecap="round" stroke-linejoin="round"/>
<path d="M94.54 129.72C94.87 126.7 96.38 124.64 97.08 123.79C94.32 124.7 91.55 125.6 88.79 126.51C88.89 126.63 89.08 126.92 89.08 127.27C89.08 129.05 84.18 129.39 83.25 131.57C82.76 132.72 83.16 134.88 87.86 139.33C85.29 136.87 84.17 133.81 85.15 131.78C85.74 130.56 87.02 129.86 88.5 129.05C88.78 128.89 91.93 127.19 92.49 127.9C92.88 128.39 92.05 130.03 90.77 130.95C89.2 132.09 87.51 131.72 87.38 132.32C87.32 132.6 87.6 133.11 89.53 134.1C90.08 132.28 90.62 131.84 91.03 131.81C91.61 131.76 91.96 132.5 93.29 133.31C93.94 133.7 94.52 133.94 94.93 134.07C94.65 133.11 94.33 131.58 94.54 129.72Z" fill="black" stroke="black" stroke-width="0.75" stroke-linecap="round" stroke-linejoin="round"/>
<path d="M70.48 132.08C71.76 133.94 73.0301 135.8 74.3101 137.66C72.0601 135.98 69.8101 134.31 67.5701 132.63C68.5401 132.44 69.51 132.26 70.48 132.07V132.08Z" fill="black" stroke="black" stroke-width="0.75" stroke-linecap="round" stroke-linejoin="round"/>
<path d="M111.55 161.75C98.41 167.02 90.53 164.67 86.97 163.07C82.13 160.9 75.2701 155.66 70.3401 148.51C67.5601 144.49 63.7401 137.47 59.0901 137.34C58.2001 137.32 57.44 137.55 57.37 137.57C53.76 138.69 52.4101 143.51 51.8901 145.24C49.0201 154.87 39.44 178.51 39.31 178.47C39.17 178.44 48.3801 152.11 56.0301 145.29C56.6201 144.76 57.46 144.13 58.6 143.97C62.73 143.39 65.7401 149.75 70.5701 154.97C71.3201 155.78 80.36 165.31 92.22 166.67C95.21 167.01 102.52 167.3 111.56 161.77L111.55 161.75Z" fill="black" stroke="black" stroke-width="0.75" stroke-linecap="round" stroke-linejoin="round"/>
<path d="M68.7701 192.36C67.8301 191.34 66.1601 189.78 63.6401 188.64C60.3801 187.16 57.4201 187.17 55.9401 187.27" stroke="black" stroke-width="0.75" stroke-linecap="round" stroke-linejoin="round"/>
<path d="M75.18 179.45C75.22 182.97 75.25 186.52 75.26 190.1C75.26 191.84 75.26 193.58 75.26 195.31C73.1 194.33 70.93 193.35 68.77 192.36C68.97 192.3 69.3 192.17 69.56 191.86C70 191.34 70.05 190.54 69.7 189.8C70.3 189.2 70.91 188.51 71.5 187.72C73.74 184.73 74.72 181.66 75.18 179.44V179.45Z" fill="black" stroke="black" stroke-width="0.75" stroke-linecap="round" stroke-linejoin="round"/>
<path d="M75.1801 179.45C75.0001 176.13 74.9301 172.6 75.0201 168.88C75.0701 166.76 75.1701 164.71 75.3101 162.73" fill="black"/>
<path d="M75.1801 179.45C75.0001 176.13 74.9301 172.6 75.0201 168.88C75.0701 166.76 75.1701 164.71 75.3101 162.73" stroke="black" stroke-width="0.75" stroke-linecap="round" stroke-linejoin="round"/>
<path d="M70.0801 190.97C69.8401 190.15 69.52 189.28 69.1 188.39C67.07 184.1 63.7401 181.58 61.5901 180.26" stroke="black" stroke-width="0.75" stroke-linecap="round" stroke-linejoin="round"/>
<path d="M80.1401 162.45C79.9101 166.84 79.9401 170.5 80.0201 173.17C80.3401 183.23 81.6401 190.94 82.3401 194.52C82.7801 196.78 83.2001 198.63 83.5001 199.87" stroke="black" stroke-width="0.75" stroke-linecap="round" stroke-linejoin="round"/>
<path d="M74.2001 226.19C72.8001 228.55 71.3701 231.35 70.0901 234.57C67.9101 240.06 66.8701 245.08 66.3701 249.09C68.3701 249.33 71.4401 249.7 75.1801 250.21C81.1401 251.01 83.6201 251.44 86.4901 251.82C90.2701 252.32 95.8001 252.87 102.82 252.94C104.64 244.92 106.11 236.12 106.92 226.63C107.13 224.22 107.28 221.85 107.39 219.53" stroke="black" stroke-width="0.75" stroke-linecap="round" stroke-linejoin="round"/>
<path d="M43.5601 256.94C46.3601 260 50.0201 263.5 54.6401 266.94C58.9501 270.14 63.06 272.51 66.6 274.26C67.6 266 68.6 257.75 69.6 249.49L66.3701 249.1C67.0501 243.89 68.5201 237.57 71.6801 230.94C72.4901 229.24 73.3401 227.66 74.2001 226.2C71.8801 226.53 68.6601 226.77 64.8801 226.39C63.7901 226.28 62.7801 226.13 61.8401 225.96C61.1101 225.83 58.5501 225.34 55.1901 224.15C52.9101 223.34 49.8501 222.06 46.4001 220.01C47.4901 226.06 48.2501 234.5 46.7101 244.32C45.9601 249.14 44.8 253.37 43.55 256.95L43.5601 256.94Z" fill="black" stroke="black" stroke-width="0.75" stroke-linecap="round" stroke-linejoin="round"/>
<path d="M94.26 217.26C96.05 217.42 97.84 217.59 99.63 217.75C100.52 218.13 101.85 218.64 103.51 219.02C104.8 219.31 105.88 219.44 111.45 219.53C115.88 219.6 116.41 219.55 117.14 219.21C119.45 218.12 120.58 215.86 121.1 214.52C121.4 214.2 121.83 213.64 122.12 212.85C122.51 211.81 122.46 210.89 122.4 210.42C122.68 210.13 123.1 209.62 123.34 208.87C123.84 207.34 123.22 206 123.05 205.68C123.63 204.95 124.29 203.82 124.05 202.64C123.85 201.68 123.2 201.43 120.27 199.28C117.8 197.47 117.11 196.81 116.32 197.09C115.66 197.33 115.31 198.1 115.13 198.74C115.05 198.13 114.85 197.36 114.24 196.94C113.29 196.29 112.02 196.94 109.38 197.74C106.06 198.74 106.05 198.27 104.7 198.91C103.64 199.42 101.87 200.54 100.34 203.19C98.67 203.09 96.99 203 95.32 202.9" stroke="black" stroke-width="0.75" stroke-linecap="round" stroke-linejoin="round"/>
<path d="M121.09 214.51C119.86 215.4 118.62 216.29 117.39 217.19" stroke="black" stroke-width="0.75" stroke-linecap="round" stroke-linejoin="round"/>
<path d="M122.4 210.41C120.91 211.35 119.42 212.29 117.93 213.23" stroke="black" stroke-width="0.75" stroke-linecap="round" stroke-linejoin="round"/>
<path d="M123.12 205.71C121.95 206.14 120.78 206.57 119.62 207.01" stroke="black" stroke-width="0.75" stroke-linecap="round" stroke-linejoin="round"/>
<path d="M115.12 198.74C115.27 199.23 115.69 200.31 116.77 201.18C117.35 201.65 117.94 201.9 118.35 202.03C117.59 202.14 116.73 202.21 115.78 202.2C113.75 202.18 112.05 201.79 110.77 201.39" stroke="black" stroke-width="0.75" stroke-linecap="round" stroke-linejoin="round"/>
<path d="M117.24 209.05C117.31 209.37 117.36 209.77 117.35 210.23C117.34 210.86 117.22 211.38 117.1 211.76" stroke="black" stroke-width="0.75" stroke-linecap="round" stroke-linejoin="round"/>
<path d="M116.83 215.1C116.71 215.6 116.59 216.1 116.48 216.59" stroke="black" stroke-width="0.75" stroke-linecap="round" stroke-linejoin="round"/>
<path d="M66.99 245.06C77.93 246.17 88.87 247.28 99.81 248.39C101.41 241.84 102.73 234.56 103.49 226.63C103.72 224.18 103.89 221.78 104 219.45" stroke="black" stroke-width="0.75" stroke-linecap="round" stroke-linejoin="round"/>
<path d="M130.78 113.46C129.53 114.46 127.48 113.68 127.18 113.57C127.08 115.42 126.68 118.49 125.03 121.85C124.27 123.38 123.09 125.69 120.64 127.72C117.21 130.56 113.37 131.08 111.56 131.2V131.23C109.76 131.11 105.89 130.59 102.45 127.75C100 125.73 98.82 123.41 98.06 121.87C96.4 118.52 96.01 115.44 95.91 113.59C95.6 113.71 93.55 114.48 92.31 113.48C91.15 112.55 91.41 110.66 91.69 108.58C91.92 106.87 92.39 106.24 92.56 106.04C93.36 105.06 94.45 104.76 94.92 104.66C94.47 103.46 93.9 101.48 94.01 99.02C94.07 97.66 94.13 96.3 94.92 95.04C95.74 93.75 97.14 92.88 100.55 92.06C103.05 91.46 106.79 90.86 111.54 91.15V91.13C116.3 90.84 120.04 91.45 122.55 92.04C125.95 92.85 127.36 93.72 128.17 95.02C128.96 96.27 129.02 97.63 129.08 99C129.18 101.46 128.62 103.44 128.17 104.63C128.64 104.73 129.74 105.03 130.53 106.01C130.7 106.22 131.17 106.84 131.41 108.56C131.69 110.64 131.94 112.54 130.79 113.46H130.78Z" stroke="black" stroke-width="0.75" stroke-linecap="round" stroke-linejoin="round"/>
<path d="M131.57 110.02C131.39 110.21 130.9 110.7 130.15 110.79C130.04 110.8 129.14 110.9 128.91 110.48C128.75 110.19 129.03 109.85 129.28 109.18C129.54 108.48 129.63 107.86 129.65 107.44" stroke="black" stroke-width="0.75" stroke-linecap="round" stroke-linejoin="round"/>
<path d="M111.89 113.67C111.1 113.75 110.58 113.58 110.25 113.4C109.85 113.18 109.72 112.94 109.32 112.9C108.87 112.86 108.69 113.12 108.27 113.09C107.89 113.06 107.6 112.81 107.4 112.59" stroke="black" stroke-width="0.75" stroke-linecap="round" stroke-linejoin="round"/>
<path d="M111.19 113.67C112 113.74 112.52 113.56 112.85 113.37C113.25 113.15 113.38 112.91 113.78 112.87C114.23 112.83 114.41 113.09 114.83 113.06C115.21 113.03 115.5 112.78 115.7 112.56" stroke="black" stroke-width="0.75" stroke-linecap="round" stroke-linejoin="round"/>
<path d="M111.53 115.01C112.02 114.92 112.77 114.83 113.64 115.01C115.19 115.33 115.3 116.13 116.91 116.75C118.67 117.42 119.4 116.8 120.72 117.74C121.58 118.36 121.82 119.02 121.88 119.19C122.06 119.73 122.19 120.72 121.67 121.26C120.86 122.1 118.93 121.35 118.11 121.03C116.57 120.43 116.29 119.76 114.88 119.23C113.55 118.73 112.35 118.62 111.53 118.61C111.53 117.41 111.53 116.21 111.53 115.01Z" fill="black"/>
<path d="M125.35 119.89C124.83 121.04 124.43 121.91 123.86 122.74C121.96 125.54 118.12 128.04 114.92 127.21C114.69 127.15 112.78 126.63 112.6 125.55C112.44 124.53 113.95 123.67 113.68 123.07C113.55 122.79 113.06 122.57 111.53 122.74V122.76C110.02 122.6 109.52 122.81 109.39 123.09C109.12 123.7 110.63 124.55 110.47 125.57C110.3 126.65 108.38 127.17 108.15 127.23C104.96 128.06 101.11 125.56 99.2101 122.76C98.6401 121.92 98.24 121.05 97.72 119.91C96.9 118.12 96.3901 116.56 96.0801 115.45C96.5501 118.48 97.55 120.74 98.3 122.15C99.32 124.06 101.66 128.45 106.62 130.34C108.6 131.1 110.39 131.22 111.54 131.21V131.19C112.7 131.19 114.48 131.07 116.45 130.32C121.41 128.43 123.75 124.04 124.77 122.13C125.52 120.72 126.51 118.46 126.99 115.43C126.68 116.54 126.17 118.1 125.35 119.89Z" fill="black"/>
<path d="M118.06 91.28C120.02 91.42 130.34 92.21 134.29 93.87C135.72 94.47 136.14 95.1 136.28 95.61C136.64 96.92 135.35 98.27 135.04 98.59C135.54 99.31 136.33 100.28 137.52 101.16C140.76 103.53 144.42 103.24 144.55 104.39C144.58 104.67 144.41 105.1 143.39 105.71C143.94 106.24 146.18 108.54 146.29 112.08C146.4 115.71 144.22 118.74 141.76 120.26C140.64 120.95 139.58 121.26 138.87 121.41C138.22 122.26 136.73 123.93 134.28 124.76C129.31 126.44 124.93 123.15 124.53 122.84C125.33 121.35 126.19 119.35 126.72 116.89C126.98 115.69 127.12 114.57 127.18 113.57C127.7 113.75 129.52 114.34 130.78 113.47C132.83 112.04 132.38 107.42 130.04 105.53C129.36 104.98 128.63 104.75 128.18 104.65C128.44 103.62 128.72 102.06 128.59 100.17C128.56 99.78 128.41 97.48 127.59 95.84C125.44 91.55 118.49 91.3 118.08 91.29L118.06 91.28Z" fill="black" stroke="black" stroke-width="0.75" stroke-linecap="round" stroke-linejoin="round"/>
<path d="M114.55 100.16C114.49 100.09 114.47 100 114.6 99.04C114.69 98.41 114.73 98.09 114.79 97.98C115.15 97.3 116.42 97.31 116.9 97.3C120.63 97.23 121.55 95.3 123.6 96.12C125.24 96.77 126.19 98.6099 125.9 98.9699C125.6 99.3499 124.22 97.79 121.93 97.85C120.27 97.89 118.38 98.78 116.53 99.65C115.91 99.94 114.85 100.47 114.56 100.15L114.55 100.16Z" fill="black"/>
<path d="M119.79 128.42C116.42 130.63 113.13 131.08 111.54 131.19V131.21C109.94 131.1 106.66 130.65 103.3 128.44C100.56 126.64 98.9601 124.45 98.1501 123.15C98.2301 126.57 99.2201 128.74 100.05 130.05C100.94 131.46 102.52 132.89 105.68 135.76C107.04 137 108.06 137.85 109.38 139.42C110.36 140.59 111.07 141.64 111.54 142.38L111.55 142.4V142.36C112.01 141.63 112.72 140.58 113.71 139.4C115.03 137.82 116.05 136.98 117.41 135.74C120.57 132.87 122.14 131.44 123.04 130.03C123.87 128.72 124.86 126.55 124.94 123.13C124.13 124.43 122.53 126.62 119.79 128.42Z" stroke="black" stroke-width="0.75" stroke-linecap="round" stroke-linejoin="round"/>
<path d="M126 123.77C126.68 125.2 127.44 127.17 127.92 129.59C128.24 131.22 128.39 132.05 128.17 133C127.89 134.2 127.19 135.05 123.52 137.9C120.58 140.19 119.08 141.34 118 141.75C115.55 142.67 113.22 142.62 111.55 142.37" stroke="black" stroke-width="0.75" stroke-linecap="round" stroke-linejoin="round"/>
<path d="M114.79 142.79C114.56 142.66 114.36 142.68 113.43 142.6C112.62 142.53 111.96 142.44 111.54 142.38V142.4C111.12 142.46 110.47 142.55 109.66 142.62C108.73 142.7 108.52 142.68 108.3 142.81C107.98 143 107.4 143.63 107.83 146.32C108.34 146.48 109.02 146.64 109.85 146.68C110.52 146.71 111.1 146.65 111.56 146.57V146.55C112.02 146.63 112.59 146.69 113.25 146.66C114.07 146.62 114.76 146.46 115.27 146.3C115.7 143.61 115.13 142.98 114.8 142.79H114.79Z" stroke="black" stroke-width="0.75" stroke-linecap="round" stroke-linejoin="round"/>
<path d="M115.26 146.29C120.75 144.73 124.74 142.58 127.3 140.95C133.52 137.01 133.6 134.72 133.55 134.08C133.51 133.67 133.41 132.49 132.55 131.98C132.48 131.94 131.9 131.61 131.28 131.79C130.56 132 130.48 132.67 129.79 133.28C129.42 133.61 128.8 134 127.7 134.11" stroke="black" stroke-width="0.75" stroke-linecap="round" stroke-linejoin="round"/>
<path d="M126 123.77C131.44 126.73 134.62 126.78 136.54 126.21C137.11 126.04 138.36 125.59 139.83 125.97C141.52 126.4 142.65 127.69 143.35 128.7C143.98 128.82 144.96 128.99 146.16 129.16C148.3 129.45 148.95 129.41 149.86 129.81C150.53 130.11 151.47 130.7 152.36 132.01C153.2 132.18 154.58 132.45 156.29 132.75C159.68 133.36 164.45 134.5 165.89 134.98C171.14 136.74 173.04 144.44 176.2 155.1C177.93 160.94 180.61 169.57 184.37 180.26" stroke="black" stroke-width="0.75" stroke-linecap="round" stroke-linejoin="round"/>
<path d="M152.37 132.02C149.97 136.32 145.05 143.8 136.19 150.14C126.29 157.23 116.51 159.29 111.53 159.99" stroke="black" stroke-width="0.75" stroke-linecap="round" stroke-linejoin="round"/>
<path d="M143.35 128.71C141.68 131.79 139.11 135.64 135.22 139.32C126.36 147.71 116.17 149.99 111.53 150.72" stroke="black" stroke-width="0.75" stroke-linecap="round" stroke-linejoin="round"/>
<path d="M140.17 133.72C141.23 132.05 142.29 130.38 143.35 128.7C144.16 128.83 144.96 128.97 145.77 129.1C145.16 130.43 144.43 131.82 143.56 133.25C140.7 137.95 137.33 141.37 134.46 143.76C135.89 142.54 138.11 140.28 139.38 136.81C139.79 135.7 140.03 134.65 140.17 133.72Z" fill="black" stroke="black" stroke-width="0.75" stroke-linecap="round" stroke-linejoin="round"/>
<path d="M128.54 129.7C128.21 126.68 126.7 124.62 126 123.77C128.76 124.68 131.53 125.58 134.29 126.49C134.19 126.61 134 126.9 134 127.25C134 129.03 138.9 129.37 139.83 131.55C140.32 132.7 139.92 134.86 135.22 139.31C137.79 136.85 138.91 133.79 137.93 131.76C137.34 130.54 136.06 129.84 134.58 129.03C134.3 128.87 131.15 127.17 130.59 127.88C130.2 128.37 131.03 130.01 132.31 130.93C133.88 132.07 135.57 131.7 135.7 132.3C135.76 132.58 135.48 133.09 133.55 134.08C133 132.26 132.46 131.82 132.05 131.79C131.47 131.74 131.12 132.48 129.79 133.29C129.14 133.68 128.56 133.92 128.15 134.05C128.43 133.09 128.75 131.56 128.54 129.7Z" fill="black" stroke="black" stroke-width="0.75" stroke-linecap="round" stroke-linejoin="round"/>
<path d="M152.6 132.06C151.32 133.92 150.05 135.78 148.77 137.64C151.02 135.96 153.27 134.29 155.51 132.61C154.54 132.42 153.57 132.24 152.6 132.05V132.06Z" fill="black" stroke="black" stroke-width="0.75" stroke-linecap="round" stroke-linejoin="round"/>
<path d="M111.53 161.72C124.67 166.99 132.55 164.64 136.11 163.04C140.95 160.87 147.81 155.63 152.74 148.48C155.52 144.46 159.34 137.44 163.99 137.31C164.88 137.29 165.64 137.52 165.71 137.54C169.32 138.66 170.67 143.48 171.19 145.21C174.06 154.84 183.64 178.48 183.77 178.44C183.91 178.41 174.7 152.08 167.05 145.26C166.46 144.73 165.62 144.1 164.48 143.94C160.35 143.36 157.34 149.72 152.51 154.94C151.76 155.75 142.72 165.28 130.86 166.64C127.87 166.98 120.56 167.27 111.52 161.74L111.53 161.72Z" fill="black" stroke="black" stroke-width="0.75" stroke-linecap="round" stroke-linejoin="round"/>
<path d="M156.06 186.49C157.76 186.14 159.73 185.87 161.92 185.82C167.5 185.68 172.07 187 175.1 188.19" stroke="black" stroke-width="0.75" stroke-linecap="round" stroke-linejoin="round"/>
<path d="M147.9 179.43C148.03 182.35 148.16 185.26 148.28 188.18C149.34 187.92 150.39 187.67 151.45 187.41C151.05 186.77 150.65 186.09 150.27 185.36C149.15 183.24 148.41 181.22 147.9 179.43Z" fill="black" stroke="black" stroke-width="0.75" stroke-linecap="round" stroke-linejoin="round"/>
<path d="M147.9 179.43C147.93 177.03 147.94 174.59 147.93 172.11C147.91 168.92 147.86 165.79 147.78 162.71" fill="black"/>
<path d="M147.9 179.43C147.93 177.03 147.94 174.59 147.93 172.11C147.91 168.92 147.86 165.79 147.78 162.71" stroke="black" stroke-width="0.75" stroke-linecap="round" stroke-linejoin="round"/>
<path d="M156.06 186.49C157.82 185.33 159.63 184.17 161.48 183C163.17 181.93 164.85 180.9 166.51 179.89" stroke="black" stroke-width="0.75" stroke-linecap="round" stroke-linejoin="round"/>
<path d="M142.95 162.42C143.08 165.83 143.13 169.41 143.07 173.14C142.96 179.16 142.57 184.81 142 190.03" stroke="black" stroke-width="0.75" stroke-linecap="round" stroke-linejoin="round"/>
<path d="M145.91 219.2C148.28 223.26 150.84 228.4 152.99 234.54C154.87 239.91 156.01 244.85 156.71 249.06C154.71 249.3 151.64 249.67 147.9 250.18C141.94 250.98 139.46 251.41 136.59 251.79C132.81 252.29 127.28 252.84 120.26 252.91C118.43 244.85 116.97 236.06 116.16 226.6C115.98 224.44 115.83 222.32 115.73 220.23" stroke="black" stroke-width="0.75" stroke-linecap="round" stroke-linejoin="round"/>
<path d="M155.78 278.26C155.77 275.45 155.68 272.53 155.51 269.51C155.08 262.26 154.19 255.57 153.06 249.52C154.28 249.37 155.5 249.22 156.72 249.07C155.69 243.77 154.05 237.58 151.41 230.91C149.68 226.52 147.78 222.61 145.91 219.21C148.67 219.83 152.33 220.42 156.68 220.53C158.11 220.56 162.52 220.61 168.21 219.6C173.22 218.7 176.3 218.12 179.61 215.85C181.73 214.39 183.18 212.77 184.09 211.6C181.67 214.55 177.96 218.12 172.61 220.49C171.64 220.92 170.69 221.28 169.76 221.58C167.83 231.45 166.66 239.5 165.94 245.12C164.31 257.91 163.82 267.53 156.81 276.95C156.39 277.52 156.02 277.98 155.77 278.28L155.78 278.26Z" fill="black" stroke="black" stroke-width="0.75" stroke-linecap="round" stroke-linejoin="round"/>
<path d="M156.1 245.04C145.16 246.15 134.22 247.26 123.28 248.37C121.68 241.8 120.36 234.52 119.6 226.61C119.38 224.33 119.22 222.09 119.11 219.92" stroke="black" stroke-width="0.75" stroke-linecap="round" stroke-linejoin="round"/>
<path d="M184.38 180.28C185.33 183.21 185.91 185.67 186.27 187.36C187.48 193.13 188.59 198.75 186.91 205.17C186.46 206.89 186.06 208.43 185.04 210.16C180.33 218.24 168.93 219.34 162.77 220.02C156.34 220.72 145.73 221.88 139.99 215.21C138.32 213.28 137.5 211.19 137.07 209.63C138.18 208.17 140.05 205.29 140.84 201.2C141.77 196.37 140.69 192.46 140.07 190.69C141.94 190.04 143.92 189.4 146.01 188.81C149.56 187.8 152.93 187.05 156.06 186.49C160.94 187.33 168.53 189.52 174.54 195.77C175.39 196.66 176.15 197.57 176.83 198.47" stroke="black" stroke-width="0.75" stroke-linecap="round" stroke-linejoin="round"/>
<path d="M137.07 209.62C133.6 209.37 130.13 209.12 126.66 208.87C127.8 207.26 129.13 204.99 130.05 202.08C131.98 195.93 130.94 190.57 130.26 188.05C133.53 188.93 136.8 189.81 140.08 190.69C140.73 192.63 141.98 197.25 140.5 202.71C139.64 205.86 138.18 208.19 137.08 209.63L137.07 209.62Z" stroke="black" stroke-width="0.75" stroke-linecap="round" stroke-linejoin="round"/>
<path d="M130.56 189.32C129.53 189.13 128.49 188.93 127.46 188.74C127.96 191.03 128.46 194.75 127.69 199.19C127.1 202.58 125.97 205.26 125.02 207.09C125.78 207.34 126.54 207.6 127.3 207.85" stroke="black" stroke-width="0.75" stroke-linecap="round" stroke-linejoin="round"/>
<path d="M125.64 205.86C125.25 205.77 124.86 205.67 124.47 205.58C123.52 205.77 122.12 205.98 120.41 205.99C119.08 206 118.01 205.89 112.55 204.8C108.21 203.93 107.7 203.76 107.06 203.27C105.03 201.72 104.41 199.27 104.19 197.85C103.97 197.47 103.66 196.84 103.55 196C103.39 194.9 103.64 194.01 103.8 193.56C103.59 193.21 103.29 192.63 103.21 191.85C103.05 190.25 103.94 189.07 104.17 188.79C103.76 187.95 103.35 186.71 103.84 185.61C104.24 184.72 104.93 184.61 108.25 183.13C111.04 181.89 111.87 181.39 112.58 181.83C113.18 182.2 113.35 183.03 113.39 183.7C113.59 183.12 113.96 182.41 114.64 182.13C115.7 181.7 116.81 182.61 119.21 183.95C122.24 185.64 122.36 185.18 123.53 186.09C124.46 186.81 125.95 188.28 126.88 191.2C127.24 191.31 127.59 191.42 127.95 191.52" fill="white"/>
<path d="M125.64 205.86C125.25 205.77 124.86 205.67 124.47 205.58C123.52 205.77 122.12 205.98 120.41 205.99C119.08 206 118.01 205.89 112.55 204.8C108.21 203.93 107.7 203.76 107.06 203.27C105.03 201.72 104.41 199.27 104.19 197.85C103.97 197.47 103.66 196.84 103.55 196C103.39 194.9 103.64 194.01 103.8 193.56C103.59 193.21 103.29 192.63 103.21 191.85C103.05 190.25 103.94 189.07 104.17 188.79C103.76 187.95 103.35 186.71 103.84 185.61C104.24 184.72 104.93 184.61 108.25 183.13C111.04 181.89 111.87 181.39 112.58 181.83C113.18 182.2 113.35 183.03 113.39 183.7C113.59 183.12 113.96 182.41 114.64 182.13C115.7 181.7 116.81 182.61 119.21 183.95C122.24 185.64 122.36 185.18 123.53 186.09C124.46 186.81 125.95 188.28 126.88 191.2C127.24 191.31 127.59 191.42 127.95 191.52" stroke="black" stroke-width="0.75" stroke-linecap="round" stroke-linejoin="round"/>
<path d="M104.18 197.85C105.19 198.98 106.21 200.12 107.22 201.25" stroke="black" stroke-width="0.75" stroke-linecap="round" stroke-linejoin="round"/>
<path d="M103.78 193.56C105.04 194.8 106.29 196.03 107.55 197.27" stroke="black" stroke-width="0.75" stroke-linecap="round" stroke-linejoin="round"/>
<path d="M104.08 188.82C105.13 189.49 106.18 190.16 107.23 190.83" stroke="black" stroke-width="0.75" stroke-linecap="round" stroke-linejoin="round"/>
<path d="M113.37 183.71C113.12 184.15 112.48 185.13 111.24 185.74C110.57 186.08 109.95 186.19 109.51 186.24C110.23 186.51 111.06 186.76 111.99 186.95C113.97 187.36 115.72 187.35 117.06 187.22" stroke="black" stroke-width="0.75" stroke-linecap="round" stroke-linejoin="round"/>
<path d="M109.6 190.51C109.47 190.8 109.33 191.18 109.24 191.64C109.12 192.26 109.12 192.8 109.16 193.18" stroke="black" stroke-width="0.75" stroke-linecap="round" stroke-linejoin="round"/>
<path d="M108.9 195.38C108.9 195.89 108.92 196.4 108.93 196.91" stroke="black" stroke-width="0.75" stroke-linecap="round" stroke-linejoin="round"/>
<path d="M84.4801 164.6C84.3501 171.28 84.6201 178.79 85.6201 186.95C86.1701 191.47 86.8901 195.71 87.7101 199.67" stroke="black" stroke-width="0.75" stroke-linecap="round" stroke-linejoin="round"/>
<path d="M138.58 163.62C138.72 170.65 138.4 178.13 137.44 185.97C137.29 187.16 137.14 188.34 136.97 189.5" stroke="black" stroke-width="0.75" stroke-linecap="round" stroke-linejoin="round"/>
<path d="M141.41 75.16C141.71 75.03 141.94 74.71 141.96 74.41C141.99 73.99 141.65 73.56 141.17 73.66C141.69 73.26 141.97 72.61 141.89 72.11C141.79 71.52 141.23 71.36 141.14 71.34C140.48 71.15 139.66 71.68 139.01 72.65C138.79 72.29 138.46 72.14 138.22 72.28C137.9 72.46 137.84 72.98 137.82 73.2C137.77 73.92 138.12 74.51 138.33 74.8C138.24 74.68 138.14 74.53 138.05 74.34C137.97 74.18 137.92 74.03 137.89 73.9C137.76 73.64 137.53 73.49 137.3 73.51C137.13 73.53 137.01 73.64 136.97 73.68C136.75 73.92 136.76 74.3 136.77 74.34C136.45 73.98 135.98 73.94 135.64 74.23C135.22 74.59 135.22 75.26 135.22 75.35C135.22 75.87 135.47 76.32 135.86 76.53C135.56 76.73 135.37 77.05 135.36 77.36C135.36 77.4 135.36 77.59 135.46 77.73C135.77 78.17 136.67 77.71 136.9 77.59C137.21 77.43 137.46 77.23 137.64 77.07L139.08 77.53C139.26 78.96 139.64 79.86 140.01 79.81C140.33 79.77 140.59 79.03 140.71 78.64C140.78 78.69 141.15 78.93 141.61 78.72C141.98 78.55 142.4 78.09 142.43 77.5C142.46 76.9 142.09 76.35 141.53 76.31C141.84 75.71 141.79 75.48 141.75 75.38C141.61 75.07 140.78 75.24 139.82 75.72" stroke="black" stroke-width="0.75" stroke-linecap="round" stroke-linejoin="round"/>
<path d="M117.5 78.44C117.86 72 119.18 68.24 120.37 65.96C120.7 65.32 121.99 62.96 121.59 60.17C121.48 59.44 121.29 58.23 120.33 57.49C119.15 56.58 117.17 56.63 115.92 57.51C114.49 58.53 114.83 60.07 113.25 64.19C112.79 65.39 112.35 66.33 112.07 66.91" stroke="black" stroke-width="0.75" stroke-linecap="round" stroke-linejoin="round"/>
<path d="M120.33 57.5C121.35 57.48 122.37 57.46 123.38 57.44C123.6 57.26 123.94 57.05 124.37 57.02C125.71 56.92 126.76 58.69 126.92 58.96C128.27 61.23 126.71 64.08 125.26 68.72C124.59 70.86 123.78 73.91 123.22 77.75" stroke="black" stroke-width="0.75" stroke-linecap="round" stroke-linejoin="round"/>
<path d="M114.87 66.57C116.2 65.08 116.94 63.72 117.38 62.71C117.82 61.69 118.14 60.6 119.12 59.27C119.59 58.63 120.06 58.15 120.39 57.84" stroke="black" stroke-width="0.75" stroke-linecap="round" stroke-linejoin="round"/>
<path d="M127.16 62.76C131.07 59.99 135.34 59.29 137.79 61C139.33 62.07 139.94 63.67 139.94 63.67C140.47 65.07 140.24 66.31 139.94 67.91C139.74 68.96 139.35 70.49 138.46 72.23" stroke="black" stroke-width="0.75" stroke-linecap="round" stroke-linejoin="round"/>
<path d="M125.91 66.74C126.79 65.74 131.9 60.13 137.8 61C138.61 61.12 140.1 61.36 141.19 62.54C142.92 64.4 142.92 67.79 141.23 71.19" stroke="black" stroke-width="0.75" stroke-linecap="round" stroke-linejoin="round"/>
<path d="M135.7 77.98C135.23 79.03 134.77 80.07 134.3 81.12" stroke="black" stroke-width="0.75" stroke-linecap="round" stroke-linejoin="round"/>
<path d="M125.7 69.93C126.12 69.7 126.36 69.27 126.29 68.91C126.2 68.42 125.53 68 124.83 68.24C125.49 67.63 125.7 66.81 125.41 66.25C125.07 65.59 124.16 65.55 124 65.54C122.92 65.49 121.85 66.32 121.19 67.61C120.73 67.25 120.19 67.16 119.86 67.38C119.47 67.65 119.53 68.28 119.56 68.55C119.69 69.78 120.83 70.55 121.17 70.77C120.92 70.6 120.62 70.35 120.33 70.02C120.07 69.73 119.87 69.44 119.73 69.2C119.25 68.9 118.68 69 118.43 69.34C118.18 69.67 118.32 70.11 118.34 70.16C117.72 69.82 117 69.9 116.58 70.33C116.07 70.85 116.28 71.64 116.31 71.75C116.49 72.35 117.02 72.82 117.69 72.96C117.3 73.27 117.11 73.69 117.21 74.05C117.22 74.1 117.29 74.32 117.49 74.46C118.11 74.89 119.33 74.12 119.64 73.92C120.06 73.65 120.38 73.36 120.59 73.13L122.94 73.3C123.7 74.92 124.58 75.88 125.14 75.72C125.61 75.59 125.76 74.67 125.81 74.18C125.93 74.22 126.58 74.41 127.21 74.05C127.72 73.76 128.2 73.12 128.05 72.42C127.9 71.71 127.14 71.17 126.27 71.27C126.54 70.5 126.39 70.23 126.29 70.13C125.74 69.57 123.64 70.9 123.45 71.02" fill="white"/>
<path d="M125.7 69.93C126.12 69.7 126.36 69.27 126.29 68.91C126.2 68.42 125.53 68 124.83 68.24C125.49 67.63 125.7 66.81 125.41 66.25C125.07 65.59 124.16 65.55 124 65.54C122.92 65.49 121.85 66.32 121.19 67.61C120.73 67.25 120.19 67.16 119.86 67.38C119.47 67.65 119.53 68.28 119.56 68.55C119.69 69.78 120.83 70.55 121.17 70.77C120.92 70.6 120.62 70.35 120.33 70.02C120.07 69.73 119.87 69.44 119.73 69.2C119.25 68.9 118.68 69 118.43 69.34C118.18 69.67 118.32 70.11 118.34 70.16C117.72 69.82 117 69.9 116.58 70.33C116.07 70.85 116.28 71.64 116.31 71.75C116.49 72.35 117.02 72.82 117.69 72.96C117.3 73.27 117.11 73.69 117.21 74.05C117.22 74.1 117.29 74.32 117.49 74.46C118.11 74.89 119.33 74.12 119.64 73.92C120.06 73.65 120.38 73.36 120.59 73.13L122.94 73.3C123.7 74.92 124.58 75.88 125.14 75.72C125.61 75.59 125.76 74.67 125.81 74.18C125.93 74.22 126.58 74.41 127.21 74.05C127.72 73.76 128.2 73.12 128.05 72.42C127.9 71.71 127.14 71.17 126.27 71.27C126.54 70.5 126.39 70.23 126.29 70.13C125.74 69.57 123.64 70.9 123.45 71.02" stroke="black" stroke-width="0.75" stroke-linecap="round" stroke-linejoin="round"/>
<path d="M138.05 77.93C138.15 77.77 138.25 77.63 138.34 77.47C138.27 77.58 138.16 77.74 138.05 77.93Z" fill="black" stroke="black" stroke-width="0.75" stroke-linecap="round" stroke-linejoin="round"/>
<path d="M138.05 77.93C136.36 80.63 134.05 81.64 132.91 81.02C131.65 80.33 131.87 77.66 131.89 77.46C130.64 79.24 128.66 80.31 126.74 80.1C123.96 79.81 121.52 76.87 121.78 73.24C120.44 77.32 117.04 79.41 114.55 78.75C112.77 78.28 111.82 76.49 111.51 75.86C111.48 76 111.45 76.13 111.42 76.27C111.39 76.13 111.36 76 111.33 75.86C111.03 76.5 110.07 78.28 108.29 78.75C105.8 79.41 102.4 77.33 101.06 73.24C101.32 76.87 98.89 79.8 96.1 80.1C94.17 80.3 92.2001 79.23 90.9501 77.46C90.9701 77.66 91.1901 80.33 89.9301 81.02C88.7901 81.65 86.48 80.63 84.79 77.93C85.4 78.93 86.39 80.97 85.66 82.97C85.57 83.22 85.45 83.47 85.29 83.73C85.64 84.75 85.9801 85.76 86.3301 86.78C94.1801 84.92 102.55 83.78 111.37 83.68C111.38 83.68 111.39 83.68 111.41 83.68C111.42 83.68 111.43 83.68 111.45 83.68C120.27 83.78 128.64 84.92 136.49 86.78C136.84 85.76 137.18 84.75 137.53 83.73C137.37 83.47 137.25 83.21 137.16 82.97C136.44 80.98 137.43 78.93 138.03 77.93H138.05Z" fill="black" stroke="black" stroke-width="0.75" stroke-linecap="round" stroke-linejoin="round"/>
<path d="M84.8 77.93C84.68 77.74 84.58 77.57 84.51 77.47C84.6 77.64 84.71 77.78 84.8 77.93Z" fill="black" stroke="black" stroke-width="0.75" stroke-linecap="round" stroke-linejoin="round"/>
<path d="M81.4401 75.16C81.1401 75.03 80.9101 74.71 80.8901 74.41C80.8601 73.99 81.2 73.56 81.68 73.66C81.16 73.26 80.8801 72.61 80.9601 72.11C81.0601 71.52 81.6201 71.36 81.7101 71.34C82.3701 71.15 83.1901 71.68 83.8401 72.65C84.0601 72.29 84.3901 72.14 84.6301 72.28C84.9501 72.46 85.0101 72.98 85.0301 73.2C85.0801 73.92 84.7301 74.51 84.5201 74.8C84.6101 74.68 84.71 74.53 84.8 74.34C84.88 74.18 84.9301 74.03 84.9601 73.9C85.0901 73.64 85.32 73.49 85.55 73.51C85.72 73.53 85.8401 73.64 85.8801 73.68C86.1001 73.92 86.0901 74.3 86.0801 74.34C86.4001 73.98 86.8701 73.94 87.2101 74.23C87.6301 74.59 87.6301 75.26 87.6301 75.35C87.6301 75.87 87.38 76.32 86.99 76.53C87.29 76.73 87.48 77.05 87.49 77.36C87.49 77.4 87.4901 77.59 87.3901 77.73C87.0801 78.17 86.1801 77.71 85.9501 77.59C85.6401 77.43 85.3901 77.23 85.2101 77.07L83.7701 77.53C83.5901 78.96 83.2101 79.86 82.8401 79.81C82.5201 79.77 82.2601 79.03 82.1401 78.64C82.0701 78.69 81.7 78.93 81.24 78.72C80.87 78.55 80.45 78.09 80.42 77.5C80.39 76.9 80.7601 76.35 81.3201 76.31C81.0101 75.71 81.06 75.48 81.1 75.38C81.24 75.07 82.0701 75.24 83.0301 75.72" stroke="black" stroke-width="0.75" stroke-linecap="round" stroke-linejoin="round"/>
<path d="M105.35 78.44C104.99 72 103.67 68.24 102.48 65.96C102.15 65.32 100.86 62.96 101.26 60.17C101.37 59.44 101.56 58.23 102.52 57.49C103.7 56.58 105.68 56.63 106.93 57.51C108.36 58.53 108.02 60.07 109.6 64.19C110.06 65.39 110.5 66.33 110.78 66.91" stroke="black" stroke-width="0.75" stroke-linecap="round" stroke-linejoin="round"/>
<path d="M102.53 57.5C101.51 57.48 100.49 57.46 99.4801 57.44C99.2601 57.26 98.9201 57.05 98.4901 57.02C97.1501 56.92 96.1001 58.69 95.9401 58.96C94.5901 61.23 96.1501 64.08 97.6001 68.72C98.2701 70.86 99.0801 73.91 99.6401 77.75" stroke="black" stroke-width="0.75" stroke-linecap="round" stroke-linejoin="round"/>
<path d="M107.99 66.57C106.66 65.08 105.92 63.72 105.48 62.71C105.04 61.69 104.72 60.6 103.74 59.27C103.27 58.63 102.8 58.15 102.47 57.84" stroke="black" stroke-width="0.75" stroke-linecap="round" stroke-linejoin="round"/>
<path d="M95.6901 62.76C91.7801 59.99 87.5101 59.29 85.0601 61C83.5201 62.07 82.91 63.67 82.91 63.67C82.38 65.07 82.61 66.31 82.91 67.91C83.11 68.96 83.5001 70.49 84.3901 72.23" stroke="black" stroke-width="0.75" stroke-linecap="round" stroke-linejoin="round"/>
<path d="M97.06 67.08C96.23 66.09 91.04 60.13 85.06 60.99C84.27 61.1 82.77 61.3401 81.67 62.5301C79.92 64.4101 79.9501 67.87 81.7101 71.33" stroke="black" stroke-width="0.75" stroke-linecap="round" stroke-linejoin="round"/>
<path d="M87.16 77.98C87.63 79.03 88.0901 80.07 88.5601 81.12" stroke="black" stroke-width="0.75" stroke-linecap="round" stroke-linejoin="round"/>
<path d="M97.1501 69.93C96.7301 69.7 96.4901 69.27 96.5601 68.91C96.6501 68.42 97.3201 68 98.0201 68.24C97.3601 67.63 97.1501 66.81 97.4401 66.25C97.7801 65.59 98.6901 65.55 98.8501 65.54C99.9301 65.49 101 66.32 101.66 67.61C102.12 67.25 102.66 67.16 102.99 67.38C103.38 67.65 103.32 68.28 103.29 68.55C103.16 69.78 102.02 70.55 101.68 70.77C101.93 70.6 102.23 70.35 102.52 70.02C102.78 69.73 102.98 69.44 103.12 69.2C103.6 68.9 104.17 69 104.42 69.34C104.67 69.67 104.53 70.11 104.51 70.16C105.13 69.82 105.85 69.9 106.27 70.33C106.78 70.85 106.57 71.64 106.54 71.75C106.36 72.35 105.83 72.82 105.16 72.96C105.55 73.27 105.74 73.69 105.64 74.05C105.63 74.1 105.56 74.32 105.36 74.46C104.74 74.89 103.52 74.12 103.21 73.92C102.79 73.65 102.47 73.36 102.26 73.13L99.9101 73.3C99.1501 74.92 98.2701 75.88 97.7101 75.72C97.2401 75.59 97.0901 74.67 97.0401 74.18C96.9201 74.22 96.2701 74.41 95.6401 74.05C95.1301 73.76 94.6501 73.12 94.8001 72.42C94.9501 71.71 95.7101 71.17 96.5801 71.27C96.3101 70.5 96.4601 70.23 96.5601 70.13C97.1101 69.57 99.2101 70.9 99.4001 71.02" fill="white"/>
<path d="M97.1501 69.93C96.7301 69.7 96.4901 69.27 96.5601 68.91C96.6501 68.42 97.3201 68 98.0201 68.24C97.3601 67.63 97.1501 66.81 97.4401 66.25C97.7801 65.59 98.6901 65.55 98.8501 65.54C99.9301 65.49 101 66.32 101.66 67.61C102.12 67.25 102.66 67.16 102.99 67.38C103.38 67.65 103.32 68.28 103.29 68.55C103.16 69.78 102.02 70.55 101.68 70.77C101.93 70.6 102.23 70.35 102.52 70.02C102.78 69.73 102.98 69.44 103.12 69.2C103.6 68.9 104.17 69 104.42 69.34C104.67 69.67 104.53 70.11 104.51 70.16C105.13 69.82 105.85 69.9 106.27 70.33C106.78 70.85 106.57 71.64 106.54 71.75C106.36 72.35 105.83 72.82 105.16 72.96C105.55 73.27 105.74 73.69 105.64 74.05C105.63 74.1 105.56 74.32 105.36 74.46C104.74 74.89 103.52 74.12 103.21 73.92C102.79 73.65 102.47 73.36 102.26 73.13L99.9101 73.3C99.1501 74.92 98.2701 75.88 97.7101 75.72C97.2401 75.59 97.0901 74.67 97.0401 74.18C96.9201 74.22 96.2701 74.41 95.6401 74.05C95.1301 73.76 94.6501 73.12 94.8001 72.42C94.9501 71.71 95.7101 71.17 96.5801 71.27C96.3101 70.5 96.4601 70.23 96.5601 70.13C97.1101 69.57 99.2101 70.9 99.4001 71.02" stroke="black" stroke-width="0.75" stroke-linecap="round" stroke-linejoin="round"/>
<path d="M132.1 78.2C133.072 78.2 133.86 77.412 133.86 76.44C133.86 75.468 133.072 74.68 132.1 74.68C131.128 74.68 130.34 75.468 130.34 76.44C130.34 77.412 131.128 78.2 132.1 78.2Z" fill="#EB1C24" stroke="black" stroke-width="0.75" stroke-linecap="round" stroke-linejoin="round"/>
<path d="M138.95 77.72C139.795 77.72 140.48 77.035 140.48 76.19C140.48 75.345 139.795 74.66 138.95 74.66C138.105 74.66 137.42 75.345 137.42 76.19C137.42 77.035 138.105 77.72 138.95 77.72Z" fill="#EB1C24" stroke="black" stroke-width="0.75" stroke-linecap="round" stroke-linejoin="round"/>
<path d="M121.99 73.98C122.962 73.98 123.75 73.192 123.75 72.22C123.75 71.2479 122.962 70.46 121.99 70.46C121.018 70.46 120.23 71.2479 120.23 72.22C120.23 73.192 121.018 73.98 121.99 73.98Z" fill="#EB1C24" stroke="black" stroke-width="0.75" stroke-linecap="round" stroke-linejoin="round"/>
<path d="M111.38 75.74C112.352 75.74 113.14 74.952 113.14 73.98C113.14 73.008 112.352 72.22 111.38 72.22C110.408 72.22 109.62 73.008 109.62 73.98C109.62 74.952 110.408 75.74 111.38 75.74Z" fill="#EB1C24" stroke="black" stroke-width="0.75" stroke-linecap="round" stroke-linejoin="round"/>
<path d="M90.76 78.2C91.732 78.2 92.52 77.412 92.52 76.44C92.52 75.468 91.732 74.68 90.76 74.68C89.788 74.68 89 75.468 89 76.44C89 77.412 89.788 78.2 90.76 78.2Z" fill="#EB1C24" stroke="black" stroke-width="0.75" stroke-linecap="round" stroke-linejoin="round"/>
<path d="M83.9001 77.72C84.7451 77.72 85.4301 77.035 85.4301 76.19C85.4301 75.345 84.7451 74.66 83.9001 74.66C83.0552 74.66 82.3701 75.345 82.3701 76.19C82.3701 77.035 83.0552 77.72 83.9001 77.72Z" fill="#EB1C24" stroke="black" stroke-width="0.75" stroke-linecap="round" stroke-linejoin="round"/>
<path d="M100.86 73.98C101.832 73.98 102.62 73.192 102.62 72.22C102.62 71.2479 101.832 70.46 100.86 70.46C99.8881 70.46 99.1001 71.2479 99.1001 72.22C99.1001 73.192 99.8881 73.98 100.86 73.98Z" fill="#EB1C24" stroke="black" stroke-width="0.75" stroke-linecap="round" stroke-linejoin="round"/>
<path d="M136.98 87.2C136.32 89.54 135.68 91.88 135.02 94.22C131.43 93.18 127.14 92.21 122.26 91.65C118.32 91.19 114.72 91.07 111.56 91.14V91.16C108.39 91.1 104.78 91.21 100.84 91.67C95.9501 92.24 91.6701 93.21 88.0801 94.24C87.4201 91.91 86.7701 89.57 86.1101 87.23C87.4501 86.45 88.9001 85.7 90.4501 84.99C98.3001 81.45 105.81 80.62 111.54 80.65V80.63C117.26 80.6 124.78 81.43 132.64 84.97C134.2 85.67 135.64 86.42 136.98 87.2Z" fill="white" stroke="black" stroke-width="0.75" stroke-linecap="round" stroke-linejoin="round"/>
<path d="M136.44 89.13C134.68 88.18 132.73 87.25 130.59 86.4C123.36 83.56 116.66 82.8 111.57 82.74" stroke="black" stroke-width="0.75" stroke-linecap="round" stroke-linejoin="round"/>
<path d="M135.48 92.55C132.41 91.44 128.34 90.22 123.45 89.44C122.13 89.23 117.64 88.55 111.53 88.63C106.17 88.7 97.8101 89.37 87.6001 92.57C87.2801 91.43 86.9601 90.2901 86.6401 89.1501C90.7101 86.9201 99.4701 82.83 111.29 82.77C123.4 82.71 132.37 86.9 136.45 89.13C136.13 90.27 135.81 91.41 135.49 92.55H135.48Z" fill="black" stroke="black" stroke-width="0.75" stroke-linecap="round" stroke-linejoin="round"/>
<path d="M86.6401 89.15C88.4001 88.2 90.3501 87.27 92.4901 86.42C99.7201 83.58 106.42 82.82 111.51 82.76" stroke="black" stroke-width="0.75" stroke-linecap="round" stroke-linejoin="round"/>
<path d="M87.6001 92.57C90.8501 91.39 94.9001 90.22 99.6301 89.46C104.16 88.74 108.2 88.58 111.55 88.65" stroke="black" stroke-width="0.75" stroke-linecap="round" stroke-linejoin="round"/>
<path d="M88.27 90.32C92.94 88.41 100.52 86 110.11 85.8C121.18 85.58 129.85 88.43 134.76 90.46" stroke="white" stroke-width="0.75" stroke-linecap="round" stroke-linejoin="round"/>
<path d="M100.08 226.93C91.02 226.93 81.9699 226.93 72.9099 226.93V225.05C81.3399 224.57 89.7699 224.09 98.1899 223.62C98.8799 223.63 99.5699 223.64 100.26 223.66C100.2 224.75 100.14 225.84 100.07 226.94L100.08 226.93Z" fill="white" stroke="black" stroke-width="0.75" stroke-linecap="round" stroke-linejoin="round"/>
<path d="M100.08 226.96C91.02 226.96 81.9699 226.96 72.9099 226.96V228.84C81.3399 229.32 89.7699 229.8 98.1899 230.27C98.8799 230.26 99.5699 230.25 100.26 230.23C100.2 229.14 100.14 228.05 100.07 226.95L100.08 226.96Z" fill="white" stroke="black" stroke-width="0.75" stroke-linecap="round" stroke-linejoin="round"/>
<path d="M69.61 230.55C71.7363 230.55 73.46 228.826 73.46 226.7C73.46 224.574 71.7363 222.85 69.61 222.85C67.4837 222.85 65.76 224.574 65.76 226.7C65.76 228.826 67.4837 230.55 69.61 230.55Z" fill="#EB1C24" stroke="black" stroke-width="0.75" stroke-linecap="round" stroke-linejoin="round"/>
<path d="M124.75 226.93C133.81 226.93 142.86 226.93 151.92 226.93C151.92 226.3 151.92 225.68 151.92 225.05C143.49 224.57 135.06 224.09 126.64 223.62C125.95 223.63 125.26 223.64 124.57 223.66C124.63 224.75 124.69 225.84 124.76 226.94L124.75 226.93Z" fill="white" stroke="black" stroke-width="0.75" stroke-linecap="round" stroke-linejoin="round"/>
<path d="M124.75 226.96C133.81 226.96 142.86 226.96 151.92 226.96C151.92 227.59 151.92 228.21 151.92 228.84C143.49 229.32 135.06 229.8 126.64 230.27C125.95 230.26 125.26 230.25 124.57 230.23C124.63 229.14 124.69 228.05 124.76 226.95L124.75 226.96Z" fill="white" stroke="black" stroke-width="0.75" stroke-linecap="round" stroke-linejoin="round"/>
<path d="M155.22 230.55C157.346 230.55 159.07 228.826 159.07 226.7C159.07 224.574 157.346 222.85 155.22 222.85C153.094 222.85 151.37 224.574 151.37 226.7C151.37 228.826 153.094 230.55 155.22 230.55Z" fill="#EB1C24" stroke="black" stroke-width="0.75" stroke-linecap="round" stroke-linejoin="round"/>
<path d="M112.51 223.81H101.04V230.16H112.51V223.81Z" fill="white" stroke="black" stroke-width="0.75" stroke-linecap="round" stroke-linejoin="round"/>
<path d="M101.04 223.81V230.16C99.4201 230.07 98.1201 228.95 97.8701 227.6C97.5601 225.9 98.9301 224 101.04 223.81Z" fill="#EB1C24" stroke="black" stroke-width="0.75" stroke-linecap="round" stroke-linejoin="round"/>
<path d="M112.51 230.28C114.327 230.28 115.8 228.807 115.8 226.99C115.8 225.173 114.327 223.7 112.51 223.7C110.693 223.7 109.22 225.173 109.22 226.99C109.22 228.807 110.693 230.28 112.51 230.28Z" fill="white" stroke="black" stroke-width="0.75" stroke-linecap="round" stroke-linejoin="round"/>
<path d="M112.42 230.16H123.89V223.81H112.42V230.16Z" fill="white" stroke="black" stroke-width="0.75" stroke-linecap="round" stroke-linejoin="round"/>
<path d="M125.5 219.7H99.4301C98.9501 219.7 98.5601 220.09 98.5601 220.58V222.94C98.5601 223.42 98.9501 223.82 99.4301 223.82H125.5C125.98 223.82 126.38 223.43 126.38 222.94V220.58C126.38 220.1 125.99 219.7 125.5 219.7Z" fill="black" stroke="black" stroke-width="0.75" stroke-linecap="round" stroke-linejoin="round"/>
<path d="M125.5 230.16H99.4301C98.9501 230.16 98.5601 230.55 98.5601 231.04V233.4C98.5601 233.88 98.9501 234.28 99.4301 234.28H125.5C125.98 234.28 126.38 233.89 126.38 233.4V231.04C126.38 230.56 125.99 230.16 125.5 230.16Z" fill="black" stroke="black" stroke-width="0.75" stroke-linecap="round" stroke-linejoin="round"/>
<path d="M123.88 223.81C123.88 225.93 123.88 228.04 123.88 230.16C125.5 230.07 126.8 228.95 127.05 227.6C127.36 225.9 125.99 224 123.88 223.81Z" fill="#EB1C24" stroke="black" stroke-width="0.75" stroke-linecap="round" stroke-linejoin="round"/>
<path d="M116.98 217.19C113.5 217.11 112.7 219.76 112.52 221.04C112.34 219.76 111.53 217.11 108.06 217.19C103.49 217.3 102.88 222.43 104.48 225.02C106.08 227.61 106.91 228.44 108.5 230.09C110.01 231.65 111.8 233.4 112.47 234.47C112.47 234.47 112.51 234.6 112.52 234.56C112.54 234.59 112.58 234.47 112.58 234.47C113.24 233.4 115.04 231.64 116.55 230.09C118.15 228.44 118.98 227.61 120.57 225.02C122.17 222.43 121.56 217.3 116.99 217.19H116.98Z" fill="#EB1C24" stroke="black" stroke-width="0.75" stroke-linecap="round" stroke-linejoin="round"/>
<path d="M124.53 234.44H100.3V285.9H124.53V234.44Z" fill="white" stroke="black" stroke-width="0.75" stroke-linecap="round" stroke-linejoin="round"/>
<path d="M112.51 234.37V285.58" stroke="#0E0E0E" stroke-linecap="round" stroke-linejoin="round"/>
<path d="M39.3101 178.46C36.4201 186.93 35.3401 194.29 34.9701 199.93C34.6701 204.43 34.5401 206.73 35.4201 209.32C38.4001 218.12 48.7301 221.56 55.0901 223.69C61.2201 225.74 71.3401 229.13 78.3701 223.84C80.4101 222.3 81.6601 220.44 82.4101 219.01C81.6401 217.35 80.4201 214.14 80.5201 209.97C80.6401 205.05 82.5301 201.47 83.5101 199.87C81.8201 198.83 80.0201 197.79 78.1101 196.77C74.8601 195.03 71.7201 193.58 68.7801 192.36C63.8301 192.15 55.9501 192.66 48.7501 197.49C47.7301 198.18 46.7901 198.9 45.9401 199.64" fill="white"/>
<path d="M39.3101 178.46C36.4201 186.93 35.3401 194.29 34.9701 199.93C34.6701 204.43 34.5401 206.73 35.4201 209.32C38.4001 218.12 48.7301 221.56 55.0901 223.69C61.2201 225.74 71.3401 229.13 78.3701 223.84C80.4101 222.3 81.6601 220.44 82.4101 219.01C81.6401 217.35 80.4201 214.14 80.5201 209.97C80.6401 205.05 82.5301 201.47 83.5101 199.87C81.8201 198.83 80.0201 197.79 78.1101 196.77C74.8601 195.03 71.7201 193.58 68.7801 192.36C63.8301 192.15 55.9501 192.66 48.7501 197.49C47.7301 198.18 46.7901 198.9 45.9401 199.64" stroke="black" stroke-width="0.75" stroke-linecap="round" stroke-linejoin="round"/>
<path d="M82.4 219.01C85.76 219.31 89.13 219.6 92.49 219.9C91.81 218.18 91.12 215.89 90.87 213.14C90.34 207.32 92.08 202.71 93.17 200.37C89.95 200.2 86.72 200.04 83.5 199.87C82.45 201.63 80.25 205.87 80.53 211.53C80.7 214.79 81.63 217.37 82.4 219.02V219.01Z" fill="white" stroke="black" stroke-width="0.75" stroke-linecap="round" stroke-linejoin="round"/>
<path d="M92.97 201.17C93.9 201.32 94.8201 201.47 95.7501 201.61C94.9301 203.68 93.9601 206.85 93.7801 210.82C93.6101 214.5 94.17 217.53 94.72 219.61C93.92 219.53 93.1201 219.45 92.3201 219.37" stroke="black" stroke-width="0.75" stroke-linecap="round" stroke-linejoin="round"/>
<path d="M100.34 203.2C100.01 203.87 99.66 204.72 99.4 205.75C99.15 206.73 99.04 207.6 99.01 208.32" fill="white"/>
<path d="M100.34 203.2C100.01 203.87 99.66 204.72 99.4 205.75C99.15 206.73 99.04 207.6 99.01 208.32" stroke="black" stroke-width="0.75" stroke-linecap="round" stroke-linejoin="round"/>
<path d="M112.12 185.06C112.12 176 112.12 166.95 112.12 157.89H110.24C109.76 166.32 109.28 174.75 108.81 183.17C108.82 183.86 108.83 184.55 108.85 185.24C109.94 185.18 111.03 185.12 112.13 185.05L112.12 185.06Z" fill="white" stroke="black" stroke-width="0.75" stroke-linecap="round" stroke-linejoin="round"/>
<path d="M112.15 185.06C112.15 176 112.15 166.95 112.15 157.89C112.78 157.89 113.4 157.89 114.03 157.89C114.51 166.32 114.99 174.75 115.46 183.17C115.45 183.86 115.44 184.55 115.42 185.24C114.33 185.18 113.24 185.12 112.14 185.05L112.15 185.06Z" fill="white" stroke="black" stroke-width="0.75" stroke-linecap="round" stroke-linejoin="round"/>
<path d="M111.89 158.44C114.016 158.44 115.74 156.716 115.74 154.59C115.74 152.464 114.016 150.74 111.89 150.74C109.764 150.74 108.04 152.464 108.04 154.59C108.04 156.716 109.764 158.44 111.89 158.44Z" fill="#EB1C24" stroke="black" stroke-width="0.75" stroke-linecap="round" stroke-linejoin="round"/>
<path d="M117.06 187.23C115.41 187.28 113.4 187.19 111.15 186.78C109.75 186.52 108.49 186.18 107.39 185.82V174.86C107.32 174.81 106.37 174.14 106.4 172.94C106.42 171.79 107.31 171.17 107.39 171.11C108.9 171.1 110.42 171.09 111.95 171.09C113.61 171.09 115.26 171.09 116.91 171.11C116.96 171.15 118.02 171.89 117.95 173.17C117.89 174.27 117.05 174.87 116.95 174.94C116.99 179.04 117.03 183.14 117.07 187.24L117.06 187.23Z" fill="#EB1C24" stroke="black" stroke-width="0.75" stroke-linecap="round" stroke-linejoin="round"/>
<path d="M107.4 174.86H117.16H107.4Z" fill="white"/>
<path d="M107.4 174.86H117.16" stroke="black" stroke-width="0.75" stroke-linecap="round" stroke-linejoin="round"/>
<path d="M122.99 103.19C122.48 102.62 121.91 102.37 121.57 102.26C120 101.74 117.87 102.29 116.28 103.68" stroke="black" stroke-width="0.75" stroke-linecap="round" stroke-linejoin="round"/>
<path d="M119.62 103.96C120.112 103.96 120.51 103.651 120.51 103.27C120.51 102.889 120.112 102.58 119.62 102.58C119.129 102.58 118.73 102.889 118.73 103.27C118.73 103.651 119.129 103.96 119.62 103.96Z" fill="black" stroke="black" stroke-width="0.75" stroke-linecap="round" stroke-linejoin="round"/>
<path d="M99.8601 102.84C100.37 102.27 100.94 102.02 101.28 101.91C102.85 101.39 104.98 101.94 106.57 103.33" stroke="black" stroke-width="0.75" stroke-linecap="round" stroke-linejoin="round"/>
<path d="M103.24 103.61C103.732 103.61 104.13 103.301 104.13 102.92C104.13 102.539 103.732 102.23 103.24 102.23C102.749 102.23 102.35 102.539 102.35 102.92C102.35 103.301 102.749 103.61 103.24 103.61Z" fill="black" stroke="black" stroke-width="0.75" stroke-linecap="round" stroke-linejoin="round"/>
<path d="M112.37 43.62C112.3 42.79 111.96 39.88 109.55 37.41C107.39 35.19 104.85 34.66 103.98 34.51C104.05 33.64 104.12 32.77 104.19 31.9C105.33 31.37 107.62 30.11 109.52 27.56C111.45 24.97 112 22.39 112.18 21.14C112.63 22.7 113.62 25.37 115.88 27.97C117.62 29.97 119.47 31.19 120.75 31.9C120.82 32.77 120.89 33.64 120.96 34.51C120.34 34.57 116.35 35.03 113.95 38.52C112.54 40.58 112.37 42.68 112.35 43.62H112.37Z" fill="black" stroke="black" stroke-width="0.75" stroke-linecap="round" stroke-linejoin="round"/>
<path d="M154.2 29.69C153.09 29.37 151.26 29.02 149.19 29.52C147.38 29.95 146.16 30.83 145.47 31.35C139.39 35.91 138.49 39.45 134.31 41.05C133.77 41.26 129.86 42.55 125.92 40.71C123.14 39.41 121.16 36.45 120.85 33.24C120.41 28.64 123.61 24.09 127.32 23.26C127.75 23.16 130.09 22.64 132 24.07C132.24 24.25 133.72 25.39 133.93 27.4C133.96 27.7 134.2 30.29 132.22 31.55C131.11 32.25 129.7 32.29 128.58 31.77C126.99 31.04 126.03 29.21 126.28 27.25C125.89 27.68 125.35 28.35 124.92 29.27C124.71 29.71 123.35 32.72 124.65 35.61C126.23 39.13 130.54 39.75 131.12 39.83C134.97 40.38 138.97 38.36 141.59 34.73" stroke="#0E0E0E" stroke-linecap="round" stroke-linejoin="round"/>
<path d="M120.77 31.78C119.3 31.05 118.27 30.24 117.61 29.64C113.15 25.58 112.72 19.55 112.56 17.33C112.45 15.81 112.51 14.55 112.58 13.7" stroke="#0E0E0E" stroke-linecap="round" stroke-linejoin="round"/>
<path d="M120.98 34.39C120.03 34.56 119 34.86 117.98 35.38C113.37 37.73 112.69 42.65 112.59 43.5" stroke="#0E0E0E" stroke-linecap="round" stroke-linejoin="round"/>
<path d="M153.26 38.83C153.11 39.17 152.32 40.92 150.47 41.5C148.51 42.12 146.79 40.98 146.07 40.5C143.04 38.49 142.74 34.66 142.71 34.04" stroke="#0E0E0E" stroke-linecap="round" stroke-linejoin="round"/>
<path d="M163.89 48.05C163.03 47.56 161.82 46.82 160.46 45.83C156.53 42.97 153.46 40.74 152.66 37.1C151.93 33.79 153.42 31 153.68 30.53C156.13 26.11 161.26 25.38 162.32 25.26C167.09 24.72 171.93 27.24 174.96 31.64" stroke="#0E0E0E" stroke-linecap="round" stroke-linejoin="round"/>
<path d="M174.3 54.92C174.35 44.63 171.83 36.55 167.84 34.32C165.79 33.18 163.71 33.15 163.71 33.15C163.02 33.15 159.53 33.2 157.32 36.08C155.35 38.65 155.84 41.59 155.93 42.09" stroke="#0E0E0E" stroke-linecap="round" stroke-linejoin="round"/>
<path d="M202.47 49.72C202.99 49.46 204.65 48.69 206.44 49.15C209.63 49.96 209.99 53.81 210.01 54.09C210.2 56.54 208.7 59.39 205.84 60.41C203.64 61.19 201.52 60.57 200.39 60.24C196.73 59.17 194.72 56.68 193.72 55.42C190.52 51.34 192.08 49.36 188.8 46.46C187.91 45.67 186.11 44.07 183.35 43.65C180.48 43.2 179.3 44.44 176.68 43.71C174.11 42.99 172.78 41.1 172.44 40.57C172.28 40.33 170.41 37.32 172.17 34.29C172.53 33.66 173.6 31.83 176.01 31.3C178.2 30.83 180.61 31.63 181.93 33.2C183.06 34.54 183.39 36.43 182.51 37.93C182.32 38.26 181.72 39.28 180.36 39.69C179.22 40.03 177.77 39.88 176.77 39.08C175.89 38.37 175.73 37.46 175.7 37.19" stroke="#0E0E0E" stroke-linecap="round" stroke-linejoin="round"/>
<path d="M190.86 49.25C190.44 44.69 188.11 40.94 184.7 39.72C183.92 39.44 182.7 39.16 181.08 39.36" stroke="#0E0E0E" stroke-linecap="round" stroke-linejoin="round"/>
<path d="M210.66 65.35C209.02 62.54 206.4 60.79 203.79 60.95C200.56 61.15 198.66 64.18 197.84 65.49C193.22 72.86 198.16 82.93 198.92 84.44" stroke="#0E0E0E" stroke-linecap="round" stroke-linejoin="round"/>
<path d="M210.73 120.91C208.85 108.04 202.74 79.89 179.21 58.98C174.09 54.43 168.86 50.86 163.89 48.05" stroke="#0E0E0E" stroke-linecap="round" stroke-linejoin="round"/>
<path d="M14.5801 198.51C14.6101 233.7 14.63 268.89 14.66 304.07C79.81 304.06 144.96 304.04 210.11 304.03C210.14 270.06 210.17 236.09 210.2 202.12C203.73 217.17 193.81 235.51 178.42 253.83C172.48 260.89 166.5 267.05 160.73 272.39C159.13 274.51 157.53 276.62 155.94 278.74C155.03 278.99 154.12 279.23 153.21 279.48C152.79 278.92 151.17 276.85 148.94 276.81C146.04 276.76 142.8 280.16 142.64 285.28C142.3 284.52 139.45 278.46 132.97 277.09C129.85 276.43 127.23 277.13 125.88 277.61C125 278.34 123.83 279.47 122.76 281.09C121.71 282.68 121.14 284.17 120.81 285.25H104.08C103.98 284.63 103.17 280.06 99.0101 277.78C94.9401 275.55 90.81 277.25 89.54 277.76C85.15 279.53 83.2901 283.18 82.8801 284.04C81.8901 279.32 78.5901 276.4 75.6901 276.63C75.2201 276.67 73.7101 276.87 72.1401 278.63C70.4701 277.24 68.8001 275.85 67.1301 274.46C59.3701 270.62 44.92 262.17 32.79 245.79C18.61 226.63 15.47 207.24 14.6 198.52L14.5801 198.51Z" fill="url(#paint1_linear_2_18689)"/>
<path d="M112.43 274.88C112.5 275.71 112.84 278.62 115.25 281.09C117.41 283.31 119.95 283.84 120.82 283.99C120.75 284.86 120.68 285.73 120.61 286.6C119.47 287.13 117.18 288.39 115.28 290.94C113.35 293.53 112.8 296.11 112.62 297.36C112.17 295.8 111.18 293.13 108.92 290.53C107.18 288.53 105.33 287.31 104.05 286.6C103.98 285.73 103.91 284.86 103.84 283.99C104.46 283.93 108.45 283.47 110.85 279.98C112.26 277.92 112.43 275.82 112.45 274.88H112.43Z" fill="white"/>
<path d="M154.04 288.81C152.93 289.13 151.1 289.48 149.03 288.98C147.22 288.55 146 287.67 145.31 287.15C139.23 282.59 138.33 279.05 134.15 277.45C133.61 277.24 129.7 275.95 125.76 277.79C122.98 279.09 121 282.05 120.69 285.26C120.25 289.86 123.45 294.41 127.16 295.24C127.59 295.34 129.93 295.86 131.84 294.43C132.08 294.25 133.56 293.11 133.77 291.1C133.8 290.8 134.04 288.21 132.06 286.95C130.95 286.25 129.54 286.21 128.42 286.73C126.83 287.46 125.87 289.29 126.12 291.25C125.73 290.82 125.19 290.15 124.76 289.23C124.55 288.79 123.19 285.78 124.49 282.89C126.07 279.37 130.38 278.75 130.96 278.67C134.81 278.12 138.81 280.14 141.43 283.77" stroke="#0E0E0E" stroke-linecap="round" stroke-linejoin="round"/>
<path d="M120.61 286.72C119.2 287.42 118.17 288.21 117.45 288.86C113.3 292.63 112.69 298.12 112.4 300.69C112.21 302.36 112.23 303.74 112.27 304.59" stroke="#0E0E0E" stroke-linecap="round" stroke-linejoin="round"/>
<path d="M120.82 284.12C119.87 283.95 118.84 283.65 117.82 283.13C113.21 280.78 112.53 275.86 112.43 275.01" stroke="#0E0E0E" stroke-linecap="round" stroke-linejoin="round"/>
<path d="M70.6101 288.81C71.7201 289.13 73.5501 289.48 75.6201 288.98C77.4301 288.55 78.6501 287.67 79.3401 287.15C85.4201 282.59 86.3201 279.05 90.5001 277.45C91.0401 277.24 94.9501 275.95 98.8901 277.79C101.67 279.09 103.65 282.05 103.96 285.26C104.4 289.86 101.2 294.41 97.4901 295.24C97.0601 295.34 94.7201 295.86 92.8101 294.43C92.5701 294.25 91.0901 293.11 90.8801 291.1C90.8501 290.8 90.6101 288.21 92.5901 286.95C93.7001 286.25 95.1101 286.21 96.2301 286.73C97.8201 287.46 98.7802 289.29 98.5302 291.25C98.9202 290.82 99.4601 290.15 99.8901 289.23C100.1 288.79 101.46 285.78 100.16 282.89C98.5801 279.37 94.2701 278.75 93.6901 278.67C89.8401 278.12 85.8401 280.14 83.2201 283.77" stroke="#0E0E0E" stroke-linecap="round" stroke-linejoin="round"/>
<path d="M103.83 284.12C104.74 283.98 105.78 283.69 106.83 283.13C111.11 280.87 112.22 276.04 112.43 275.01" stroke="#0E0E0E" stroke-linecap="round" stroke-linejoin="round"/>
<path d="M71.55 279.67C71.7 279.33 72.4901 277.58 74.3401 277C76.3001 276.38 78.0201 277.52 78.7401 278C81.7701 280.01 82.07 283.84 82.1 284.46" stroke="#0E0E0E" stroke-linecap="round" stroke-linejoin="round"/>
<path d="M60.91 270.45C61.77 270.94 62.9801 271.68 64.3401 272.67C68.2701 275.53 71.3401 277.76 72.1401 281.4C72.8701 284.71 71.3801 287.5 71.1201 287.97C68.6701 292.39 63.54 293.12 62.48 293.24C57.71 293.78 52.8701 291.26 49.8401 286.86" stroke="#0E0E0E" stroke-linecap="round" stroke-linejoin="round"/>
<path d="M50.51 263.59C50.46 273.88 52.98 281.96 56.97 284.19C59.02 285.33 61.1 285.36 61.1 285.36C61.79 285.36 65.28 285.31 67.49 282.43C69.46 279.86 68.97 276.92 68.88 276.42" stroke="#0E0E0E" stroke-linecap="round" stroke-linejoin="round"/>
<path d="M22.3401 268.78C21.8201 269.04 20.16 269.81 18.37 269.35C15.18 268.54 14.82 264.69 14.8 264.41C14.61 261.96 16.11 259.11 18.97 258.09C21.17 257.31 23.29 257.93 24.42 258.26C28.08 259.33 30.0901 261.82 31.0901 263.08C34.2901 267.16 32.73 269.14 36.01 272.04C36.9 272.83 38.7001 274.43 41.4601 274.85C44.3301 275.3 45.51 274.06 48.13 274.79C50.7 275.51 52.03 277.4 52.37 277.93C52.53 278.17 54.4 281.18 52.64 284.21C52.28 284.84 51.21 286.67 48.8 287.2C46.61 287.67 44.2 286.87 42.88 285.3C41.75 283.96 41.42 282.07 42.3 280.57C42.49 280.24 43.09 279.22 44.45 278.81C45.59 278.47 47.04 278.62 48.04 279.42C48.92 280.13 49.08 281.04 49.11 281.31" stroke="#0E0E0E" stroke-linecap="round" stroke-linejoin="round"/>
<path d="M33.9501 269.25C34.3701 273.81 36.7 277.56 40.11 278.78C40.89 279.06 42.11 279.34 43.73 279.14" stroke="#0E0E0E" stroke-linecap="round" stroke-linejoin="round"/>
<path d="M30.48 262.18C31.12 262.34 33.68 262.92 35.88 261.5C38.55 259.76 39.64 255.73 38.03 251.89" stroke="#0E0E0E" stroke-linecap="round" stroke-linejoin="round"/>
<path d="M28.67 248.43C29.08 248.45 29.9301 248.44 30.8301 247.97C32.3301 247.18 32.7901 245.71 32.8801 245.41" stroke="#0E0E0E" stroke-linecap="round" stroke-linejoin="round"/>
<path d="M14.1901 195.65C15.7901 208.53 21.4101 237.97 45.5901 259.52C50.7001 264.07 55.92 267.64 60.91 270.45" stroke="#0E0E0E" stroke-linecap="round" stroke-linejoin="round"/>
<path d="M112.43 274.88C112.5 275.71 112.84 278.62 115.25 281.09C117.41 283.31 119.95 283.84 120.82 283.99C120.75 284.86 120.68 285.73 120.61 286.6C119.99 286.88 119.14 287.32 118.23 288.01C116.18 289.58 115.2 291.42 114.34 293.08C113.59 294.54 112.62 296.8 112.12 299.78C112.11 298.35 111.89 294.24 108.91 290.52C107.22 288.4 105.28 287.21 104.04 286.59C103.97 285.72 103.9 284.85 103.83 283.98C104.45 283.92 108.44 283.46 110.84 279.97C112.25 277.91 112.42 275.81 112.44 274.87L112.43 274.88Z" fill="black" stroke="black" stroke-width="0.75" stroke-linecap="round" stroke-linejoin="round"/>
<path d="M70.6101 288.81C71.7201 289.13 73.5501 289.48 75.6201 288.98C77.4301 288.55 78.6501 287.67 79.3401 287.15C85.4201 282.59 86.3201 279.05 90.5001 277.45C91.0401 277.24 94.9501 275.95 98.8901 277.79C101.67 279.09 103.65 282.05 103.96 285.26C104.4 289.86 101.2 294.41 97.4901 295.24C97.0601 295.34 94.7201 295.86 92.8101 294.43C92.5701 294.25 91.0901 293.11 90.8801 291.1C90.8501 290.8 90.6101 288.21 92.5901 286.95C93.7001 286.25 95.1101 286.21 96.2301 286.73C97.8201 287.46 98.7802 289.29 98.5302 291.25C98.9202 290.82 99.4601 290.15 99.8901 289.23C100.1 288.79 101.46 285.78 100.16 282.89C98.5801 279.37 94.2701 278.75 93.6901 278.67C89.8401 278.12 85.8401 280.14 83.2201 283.77" stroke="#0E0E0E" stroke-linecap="round" stroke-linejoin="round"/>
<path d="M104.04 286.72C104.87 287.12 106.03 287.79 107.2 288.86C109.67 291.14 110.56 293.78 111.25 295.94C112.32 299.28 112.43 302.32 112.28 304.59" stroke="#0E0E0E" stroke-linecap="round" stroke-linejoin="round"/>
<path d="M103.83 284.12C104.74 283.98 105.78 283.69 106.83 283.13C111.15 280.84 112.23 275.9 112.43 274.89" stroke="#0E0E0E" stroke-linecap="round" stroke-linejoin="round"/>
<path d="M71.55 279.67C71.7 279.33 72.4901 277.58 74.3401 277C76.3001 276.38 78.0201 277.52 78.7401 278C81.7701 280.01 82.07 283.84 82.1 284.46" stroke="#0E0E0E" stroke-linecap="round" stroke-linejoin="round"/>
<path d="M60.91 270.45C61.77 270.94 62.9801 271.68 64.3401 272.67C68.2701 275.53 71.3401 277.76 72.1401 281.4C72.8701 284.71 71.3801 287.5 71.1201 287.97C68.6701 292.39 63.54 293.12 62.48 293.24C57.71 293.78 52.8701 291.26 49.8401 286.86" stroke="#0E0E0E" stroke-linecap="round" stroke-linejoin="round"/>
<path d="M50.51 263.59C50.46 273.88 52.98 281.96 56.97 284.19C59.02 285.33 61.1 285.36 61.1 285.36C61.79 285.36 65.28 285.31 67.49 282.43C69.46 279.86 68.97 276.92 68.88 276.42" stroke="#0E0E0E" stroke-linecap="round" stroke-linejoin="round"/>
<path d="M22.3401 268.78C21.8201 269.04 20.16 269.81 18.37 269.35C15.18 268.54 14.82 264.69 14.8 264.41C14.61 261.96 16.11 259.11 18.97 258.09C21.17 257.31 23.29 257.93 24.42 258.26C28.08 259.33 30.0901 261.82 31.0901 263.08C34.2901 267.16 32.73 269.14 36.01 272.04C36.9 272.83 38.7001 274.43 41.4601 274.85C44.3301 275.3 45.51 274.06 48.13 274.79C50.7 275.51 52.03 277.4 52.37 277.93C52.53 278.17 54.4 281.18 52.64 284.21C52.28 284.84 51.21 286.67 48.8 287.2C46.61 287.67 44.2 286.87 42.88 285.3C41.75 283.96 41.42 282.07 42.3 280.57C42.49 280.24 43.09 279.22 44.45 278.81C45.59 278.47 47.04 278.62 48.04 279.42C48.92 280.13 49.08 281.04 49.11 281.31" stroke="#0E0E0E" stroke-linecap="round" stroke-linejoin="round"/>
<path d="M33.9501 269.25C34.3701 273.81 36.7 277.56 40.11 278.78C40.89 279.06 42.11 279.34 43.73 279.14" stroke="#0E0E0E" stroke-linecap="round" stroke-linejoin="round"/>
<path d="M14.26 253.33C14.38 253.53 17.04 257.79 21.02 257.54C24.24 257.34 26.14 254.32 26.97 253C31.58 245.64 26.65 235.56 25.89 234.05" stroke="#0E0E0E" stroke-linecap="round" stroke-linejoin="round"/>
<path d="M30.48 262.18C31.12 262.34 33.68 262.92 35.88 261.5C38.55 259.76 39.64 255.73 38.03 251.89" stroke="#0E0E0E" stroke-linecap="round" stroke-linejoin="round"/>
<path d="M28.67 248.43C29.08 248.45 29.9301 248.44 30.8301 247.97C32.3301 247.18 32.7901 245.71 32.8801 245.41" stroke="#0E0E0E" stroke-linecap="round" stroke-linejoin="round"/>
<path d="M14.1901 195.65C15.7901 208.53 21.4101 237.97 45.5901 259.52C50.7001 264.07 55.92 267.64 60.91 270.45" stroke="#0E0E0E" stroke-linecap="round" stroke-linejoin="round"/>
<path d="M170.16 259.71L169.62 259.75V258.33H179.31V259.75L178.74 259.71C178.17 259.71 177.68 259.91 177.28 260.32C176.88 260.72 176.67 261.21 176.67 261.78V267.01C176.67 269.05 177.12 270.8 178.02 272.28C178.92 273.76 180.05 274.6 181.4 274.79C181.47 274.8 181.56 274.81 181.67 274.81H188.87C188.99 274.81 189.07 274.73 189.1 274.58V261.78C189.1 261.21 188.89 260.72 188.48 260.32C188.07 259.91 187.58 259.71 187.03 259.71L186.46 259.75V258.33H196.17V259.75L195.6 259.71C195.03 259.71 194.54 259.91 194.14 260.32C193.74 260.72 193.53 261.21 193.53 261.78V284.98C193.56 285.57 193.77 286.05 194.16 286.43C194.55 286.81 195.03 287.01 195.6 287.01L196.17 286.97V288.39H186.46V286.97L187.03 287.01C187.6 287.01 188.09 286.81 188.49 286.4C188.9 286 189.1 285.51 189.1 284.94V276.43C189.1 276.3 189.02 276.23 188.87 276.2H183.87C183.58 276.2 183.3 276.21 183.03 276.24C182.5 276.28 182 276.38 181.52 276.53C181.05 276.68 180.58 276.86 180.12 277.07C179.67 277.29 179.26 277.56 178.87 277.86C178.47 278.15 178.1 278.48 177.76 278.84C177.41 279.2 177.1 279.59 176.84 280.01C176.56 280.44 176.33 280.89 176.15 281.35C175.94 281.82 175.79 282.31 175.69 282.79C175.63 283.04 175.61 283.29 175.61 283.54V283.71C175.64 284.03 175.71 284.34 175.82 284.65C175.99 285.12 176.25 285.53 176.59 285.86C176.92 286.22 177.32 286.5 177.76 286.7C178.23 286.9 178.72 286.99 179.22 286.99H179.74V288.37H170.06V286.99H170.58C170.89 286.99 171.2 286.95 171.52 286.86C172.01 286.74 172.45 286.51 172.86 286.19C173.26 285.87 173.59 285.48 173.82 285.04C173.95 284.82 174.04 284.58 174.09 284.33C174.17 284.01 174.22 283.68 174.24 283.35L174.3 282.85C174.61 281.09 175.35 279.52 176.54 278.12C177.35 277.23 178.27 276.5 179.3 275.92C179.17 275.89 179.06 275.86 178.94 275.84C177.81 275.53 176.77 275.01 175.82 274.27C174.68 273.38 173.79 272.3 173.16 271.04C172.53 269.78 172.22 268.43 172.22 266.99V261.76C172.22 261.19 172.02 260.7 171.61 260.3C171.21 259.89 170.72 259.69 170.15 259.69L170.16 259.71Z" fill="black"/>
<path d="M176.97 247.47C181.41 247.58 182.44 244.18 182.67 242.55C182.91 244.18 183.93 247.58 188.37 247.47C194.21 247.33 194.99 240.78 192.95 237.47C190.91 234.16 189.85 233.1 187.81 230.99C185.89 229 183.59 226.76 182.74 225.39C182.74 225.39 182.69 225.23 182.67 225.27C182.64 225.23 182.6 225.39 182.6 225.39C181.75 226.76 179.45 229 177.53 230.99C175.49 233.1 174.43 234.16 172.39 237.47C170.35 240.78 171.12 247.33 176.97 247.47Z" fill="#EB1C24" stroke="black" stroke-width="0.75" stroke-linecap="round" stroke-linejoin="round"/>
<path d="M54.5701 58.92L55.11 58.88V60.3H45.42V58.88L45.9901 58.92C46.5601 58.92 47.0501 58.72 47.4501 58.31C47.8501 57.91 48.0601 57.42 48.0601 56.85V51.62C48.0601 49.58 47.6101 47.83 46.7101 46.35C45.8101 44.87 44.6801 44.03 43.3301 43.84C43.2601 43.83 43.1701 43.82 43.0601 43.82H35.86C35.74 43.82 35.6601 43.9 35.6301 44.05V56.85C35.6301 57.42 35.8401 57.91 36.2501 58.31C36.6601 58.72 37.1501 58.92 37.7001 58.92L38.2701 58.88V60.3H28.5601V58.88L29.1301 58.92C29.7001 58.92 30.1901 58.72 30.5901 58.31C30.9901 57.91 31.2001 57.42 31.2001 56.85V33.65C31.1701 33.06 30.9601 32.58 30.5701 32.2C30.1801 31.82 29.7001 31.62 29.1301 31.62L28.5601 31.66V30.24H38.2701V31.66L37.7001 31.62C37.1301 31.62 36.6401 31.82 36.2401 32.23C35.8301 32.63 35.6301 33.12 35.6301 33.69V42.2C35.6301 42.33 35.71 42.4 35.86 42.43H40.86C41.15 42.43 41.4301 42.42 41.7001 42.39C42.2301 42.35 42.7301 42.25 43.2101 42.1C43.6801 41.95 44.15 41.77 44.61 41.56C45.06 41.34 45.47 41.07 45.86 40.77C46.26 40.48 46.63 40.15 46.97 39.79C47.32 39.43 47.6301 39.04 47.8901 38.62C48.1701 38.19 48.4001 37.74 48.5801 37.28C48.7901 36.81 48.94 36.32 49.04 35.84C49.1 35.59 49.1201 35.34 49.1201 35.09V34.92C49.0901 34.6 49.02 34.29 48.91 33.98C48.74 33.51 48.4801 33.1 48.1401 32.77C47.8101 32.41 47.41 32.13 46.97 31.93C46.5 31.73 46.0101 31.64 45.5101 31.64H44.9901V30.26H54.67V31.64H54.1501C53.8401 31.64 53.5301 31.68 53.2101 31.77C52.7201 31.89 52.2801 32.12 51.8701 32.44C51.4701 32.76 51.14 33.15 50.91 33.59C50.78 33.81 50.6901 34.05 50.6401 34.3C50.5601 34.62 50.5101 34.95 50.4901 35.28L50.4301 35.78C50.1201 37.54 49.3801 39.11 48.1901 40.51C47.3801 41.4 46.4601 42.13 45.4301 42.71C45.5601 42.74 45.67 42.77 45.79 42.79C46.92 43.1 47.96 43.62 48.91 44.36C50.05 45.25 50.9401 46.33 51.5701 47.59C52.2001 48.85 52.5101 50.2 52.5101 51.64V56.87C52.5101 57.44 52.7101 57.93 53.1201 58.33C53.5201 58.74 54.0101 58.94 54.5801 58.94L54.5701 58.92Z" fill="black"/>
<path d="M47.75 71.16C43.31 71.05 42.28 74.45 42.05 76.08C41.81 74.45 40.79 71.05 36.35 71.16C30.51 71.3 29.7301 77.85 31.7701 81.16C33.8101 84.47 34.87 85.53 36.91 87.64C38.83 89.63 41.13 91.87 41.98 93.24C41.98 93.24 42.03 93.4 42.05 93.36C42.08 93.4 42.12 93.24 42.12 93.24C42.97 91.87 45.27 89.63 47.19 87.64C49.23 85.53 50.2901 84.47 52.3301 81.16C54.3701 77.85 53.6 71.3 47.75 71.16Z" fill="#EB1C24" stroke="black" stroke-width="0.75" stroke-linecap="round" stroke-linejoin="round"/>
<defs>
<linearGradient id="paint0_linear_2_18689" x1="210.3" y1="65.98" x2="14.78" y2="65.98" gradientUnits="userSpaceOnUse">
<stop stop-color="#8F8587"/>
<stop offset="0.24" stop-color="#C3BEBF"/>
<stop offset="0.45" stop-color="#EBEAEA"/>
<stop offset="0.56" stop-color="#FBFBFB"/>
</linearGradient>
<linearGradient id="paint1_linear_2_18689" x1="14.5801" y1="251.29" x2="210.21" y2="251.29" gradientUnits="userSpaceOnUse">
<stop stop-color="#8F8587"/>
<stop offset="0.25" stop-color="#C3BEBF"/>
<stop offset="0.46" stop-color="#EBEAEA"/>
<stop offset="0.57" stop-color="#FBFBFB"/>
</linearGradient>
</defs>
</svg>
