<svg width="226" height="317" viewBox="0 0 226 317" fill="none" xmlns="http://www.w3.org/2000/svg">
<path d="M217.25 316.92H8.56004C4.13004 316.92 0.540039 313.3 0.540039 308.84V8.08C0.540039 3.62 4.13004 0 8.56004 0H217.25C221.68 0 225.27 3.62 225.27 8.08V308.84C225.27 313.3 221.68 316.92 217.25 316.92Z" fill="white"/>
<path d="M210.78 116.99C210.78 82.46 210.79 47.92 210.8 13.39C145.66 13.39 80.51 13.39 15.37 13.4C15.34 47.37 15.31 81.34 15.28 115.31C18.7 100.06 25.6 77.57 38.76 65.56C48.83 56.38 53.86 51.78 57.8 49.94C59.63 49.08 65.48 46.55 70.32 40.64C71.22 39.55 71.87 38.59 72.28 37.95C72.7 38.51 74.32 40.58 76.55 40.62C79.45 40.67 82.69 37.27 82.85 32.15C83.19 32.91 86.04 38.97 92.52 40.34C95.64 41 98.26 40.3 99.61 39.82C100.49 39.09 101.66 37.96 102.73 36.34C103.78 34.75 104.35 33.26 104.68 32.18H121.41C121.51 32.8 122.32 37.37 126.48 39.65C130.55 41.88 134.68 40.18 135.95 39.67C140.34 37.9 142.2 34.25 142.61 33.39C143.6 38.11 146.9 41.03 149.8 40.8C150.27 40.76 151.78 40.56 153.35 38.8L158.36 42.97C160.32 44.13 163.07 45.84 166.24 48.06C169.96 50.66 182.3 59.42 191.99 72.01C204.86 88.73 209.17 107.14 210.77 116.97L210.78 116.99Z" fill="url(#paint0_linear_2_19433)"/>
<path d="M211.29 303.79H14.66C14.66 243.35 14.66 182.91 14.66 122.47C14.66 85.95 14.66 49.44 14.66 12.92H211.29C211.29 49.38 211.29 85.84 211.29 122.3C211.29 182.8 211.29 243.29 211.29 303.79Z" stroke="#0E0E0E" stroke-linecap="round" stroke-linejoin="round"/>
<path d="M112.87 42.83C112.8 42 112.46 39.09 110.05 36.62C107.89 34.4 105.35 33.87 104.48 33.72C104.55 32.85 104.62 31.98 104.69 31.11C105.83 30.58 108.12 29.32 110.02 26.77C111.95 24.18 112.5 21.6 112.68 20.35C113.13 21.91 114.12 24.58 116.38 27.18C118.12 29.18 119.97 30.4 121.25 31.11C121.32 31.98 121.39 32.85 121.46 33.72C120.84 33.78 116.85 34.24 114.45 37.73C113.04 39.79 112.87 41.89 112.85 42.83H112.87Z" fill="white"/>
<path d="M71.26 28.9C72.37 28.58 74.2 28.23 76.27 28.73C78.08 29.16 79.3 30.04 79.99 30.56C86.07 35.12 86.97 38.66 91.15 40.26C91.69 40.47 95.6 41.76 99.54 39.92C102.32 38.62 104.3 35.66 104.61 32.45C105.05 27.85 101.85 23.3 98.14 22.47C97.71 22.37 95.37 21.85 93.46 23.28C93.22 23.46 91.74 24.6 91.53 26.61C91.5 26.91 91.26 29.5 93.24 30.76C94.35 31.46 95.76 31.5 96.88 30.98C98.47 30.25 99.43 28.42 99.18 26.46C99.57 26.89 100.11 27.56 100.54 28.48C100.75 28.92 102.11 31.93 100.81 34.82C99.23 38.34 94.92 38.96 94.34 39.04C90.49 39.59 86.49 37.57 83.87 33.94" stroke="#0E0E0E" stroke-linecap="round" stroke-linejoin="round"/>
<path d="M104.69 30.99C105.45 30.62 106.64 29.95 107.85 28.85C111.72 25.32 112.43 20.42 112.75 18.24C112.93 17.01 113.09 15.18 112.88 12.91" stroke="#0E0E0E" stroke-linecap="round" stroke-linejoin="round"/>
<path d="M104.48 33.6C105.43 33.77 106.46 34.07 107.48 34.59C112.09 36.94 112.77 41.86 112.87 42.71" stroke="#0E0E0E" stroke-linecap="round" stroke-linejoin="round"/>
<path d="M154.7 28.9C153.59 28.58 151.76 28.23 149.69 28.73C147.88 29.16 146.66 30.04 145.97 30.56C139.89 35.12 138.99 38.66 134.81 40.26C134.27 40.47 130.36 41.76 126.42 39.92C123.64 38.62 121.66 35.66 121.35 32.45C120.91 27.85 124.11 23.3 127.82 22.47C128.25 22.37 130.59 21.85 132.5 23.28C132.74 23.46 134.22 24.6 134.43 26.61C134.46 26.91 134.7 29.5 132.72 30.76C131.61 31.46 130.2 31.5 129.08 30.98C127.49 30.25 126.53 28.42 126.78 26.46C126.39 26.89 125.85 27.56 125.42 28.48C125.21 28.92 123.85 31.93 125.15 34.82C126.73 38.34 131.04 38.96 131.62 39.04C135.47 39.59 139.47 37.57 142.09 33.94" stroke="#0E0E0E" stroke-linecap="round" stroke-linejoin="round"/>
<path d="M121.47 33.6C120.52 33.77 119.49 34.07 118.47 34.59C113.86 36.94 113.18 41.86 113.08 42.71" stroke="#0E0E0E" stroke-linecap="round" stroke-linejoin="round"/>
<path d="M153.75 38.0399C153.6 38.3799 152.81 40.1299 150.96 40.7099C149 41.3299 147.28 40.1899 146.56 39.7099C143.53 37.6999 143.23 33.8699 143.2 33.2499" stroke="#0E0E0E" stroke-linecap="round" stroke-linejoin="round"/>
<path d="M164.39 47.2599C163.53 46.7699 162.32 46.0299 160.96 45.0399C157.03 42.1799 153.96 39.9499 153.16 36.3099C152.43 32.9999 153.92 30.2099 154.18 29.7399C156.63 25.3199 161.76 24.5899 162.82 24.4699C167.59 23.9299 172.43 26.4499 175.46 30.8499" stroke="#0E0E0E" stroke-linecap="round" stroke-linejoin="round"/>
<path d="M174.79 54.13C174.84 43.84 172.32 35.76 168.33 33.53C166.28 32.39 164.2 32.36 164.2 32.36C163.51 32.36 160.02 32.41 157.81 35.29C155.84 37.86 156.33 40.8 156.42 41.3" stroke="#0E0E0E" stroke-linecap="round" stroke-linejoin="round"/>
<path d="M202.97 48.93C203.49 48.67 205.15 47.9 206.94 48.36C210.13 49.17 210.49 53.02 210.51 53.3C210.7 55.75 209.2 58.6 206.34 59.62C204.14 60.4 202.02 59.78 200.89 59.45C197.23 58.38 195.22 55.89 194.22 54.63C191.02 50.55 192.58 48.57 189.3 45.67C188.41 44.88 186.61 43.28 183.85 42.86C180.98 42.41 179.8 43.65 177.18 42.92C174.61 42.2 173.28 40.31 172.94 39.78C172.78 39.54 170.91 36.53 172.67 33.5C173.03 32.87 174.1 31.04 176.51 30.51C178.7 30.04 181.11 30.84 182.43 32.41C183.56 33.75 183.89 35.64 183.01 37.14C182.82 37.47 182.22 38.49 180.86 38.9C179.72 39.24 178.27 39.09 177.27 38.29C176.39 37.58 176.23 36.67 176.2 36.4" stroke="#0E0E0E" stroke-linecap="round" stroke-linejoin="round"/>
<path d="M191.36 48.46C190.94 43.9 188.61 40.15 185.2 38.93C184.42 38.65 183.2 38.37 181.58 38.57" stroke="#0E0E0E" stroke-linecap="round" stroke-linejoin="round"/>
<path d="M194.82 55.53C194.2 55.37 191.62 54.77 189.42 56.21C186.77 57.95 185.71 61.98 187.34 65.8" stroke="#0E0E0E" stroke-linecap="round" stroke-linejoin="round"/>
<path d="M196.63 69.28C196.22 69.26 195.37 69.27 194.47 69.74C193.01 70.51 192.53 71.92 192.44 72.24" stroke="#0E0E0E" stroke-linecap="round" stroke-linejoin="round"/>
<path d="M211.28 121.03C211.26 120.89 211.24 120.64 211.2 120.35C210.42 113.5 206.01 81.5199 179.71 58.1899C176.44 55.2899 171.37 51.2199 164.39 47.2599" stroke="#0E0E0E" stroke-linecap="round" stroke-linejoin="round"/>
<path d="M112.87 42.83C112.8 42 112.46 39.09 110.05 36.62C107.89 34.4 105.35 33.87 104.48 33.72C104.55 32.85 104.62 31.98 104.69 31.11C105.83 30.58 108.12 29.32 110.02 26.77C111.95 24.18 112.5 21.6 112.68 20.35C113.13 21.91 114.12 24.58 116.38 27.18C118.12 29.18 119.97 30.4 121.25 31.11C121.32 31.98 121.39 32.85 121.46 33.72C120.84 33.78 116.85 34.24 114.45 37.73C113.04 39.79 112.87 41.89 112.85 42.83H112.87Z" fill="black" stroke="black" stroke-width="0.75" stroke-linecap="round" stroke-linejoin="round"/>
<path d="M154.7 28.9C153.59 28.58 151.76 28.23 149.69 28.73C147.88 29.16 146.66 30.04 145.97 30.56C139.89 35.12 138.99 38.66 134.81 40.26C134.27 40.47 130.36 41.76 126.42 39.92C123.64 38.62 121.66 35.66 121.35 32.45C120.91 27.85 124.11 23.3 127.82 22.47C128.25 22.37 130.59 21.85 132.5 23.28C132.74 23.46 134.22 24.6 134.43 26.61C134.46 26.91 134.7 29.5 132.72 30.76C131.61 31.46 130.2 31.5 129.08 30.98C127.49 30.25 126.53 28.42 126.78 26.46C126.39 26.89 125.85 27.56 125.42 28.48C125.21 28.92 123.85 31.93 125.15 34.82C126.73 38.34 131.04 38.96 131.62 39.04C135.47 39.59 139.47 37.57 142.09 33.94" stroke="#0E0E0E" stroke-linecap="round" stroke-linejoin="round"/>
<path d="M121.26 30.99C119.79 30.26 118.76 29.45 118.1 28.85C113.64 24.79 113.21 18.76 113.05 16.54C112.94 15.02 113 13.76 113.07 12.91" stroke="#0E0E0E" stroke-linecap="round" stroke-linejoin="round"/>
<path d="M121.47 33.6C120.52 33.77 119.49 34.07 118.47 34.59C113.86 36.94 113.18 41.86 113.08 42.71" stroke="#0E0E0E" stroke-linecap="round" stroke-linejoin="round"/>
<path d="M153.75 38.04C153.6 38.38 152.81 40.13 150.96 40.71C149 41.33 147.28 40.19 146.56 39.71C143.53 37.7 143.23 33.87 143.2 33.25" stroke="#0E0E0E" stroke-linecap="round" stroke-linejoin="round"/>
<path d="M164.39 47.2599C163.53 46.7699 162.32 46.0299 160.96 45.0399C157.03 42.1799 153.96 39.9499 153.16 36.3099C152.43 32.9999 153.92 30.2099 154.18 29.7399C156.63 25.3199 161.76 24.5899 162.82 24.4699C167.59 23.9299 172.43 26.4499 175.46 30.8499" stroke="#0E0E0E" stroke-linecap="round" stroke-linejoin="round"/>
<path d="M174.79 54.13C174.84 43.84 172.32 35.76 168.33 33.53C166.28 32.39 164.2 32.36 164.2 32.36C163.51 32.36 160.02 32.41 157.81 35.29C155.84 37.86 156.33 40.8 156.42 41.3" stroke="#0E0E0E" stroke-linecap="round" stroke-linejoin="round"/>
<path d="M202.97 48.93C203.49 48.67 205.15 47.9 206.94 48.36C210.13 49.17 210.49 53.02 210.51 53.3C210.7 55.75 209.2 58.6 206.34 59.62C204.14 60.4 202.02 59.78 200.89 59.45C197.23 58.38 195.22 55.89 194.22 54.63C191.02 50.55 192.58 48.57 189.3 45.67C188.41 44.88 186.61 43.28 183.85 42.86C180.98 42.41 179.8 43.65 177.18 42.92C174.61 42.2 173.28 40.31 172.94 39.78C172.78 39.54 170.91 36.53 172.67 33.5C173.03 32.87 174.1 31.04 176.51 30.51C178.7 30.04 181.11 30.84 182.43 32.41C183.56 33.75 183.89 35.64 183.01 37.14C182.82 37.47 182.22 38.49 180.86 38.9C179.72 39.24 178.27 39.09 177.27 38.29C176.39 37.58 176.23 36.67 176.2 36.4" stroke="#0E0E0E" stroke-linecap="round" stroke-linejoin="round"/>
<path d="M191.36 48.46C190.94 43.9 188.61 40.15 185.2 38.93C184.42 38.65 183.2 38.37 181.58 38.57" stroke="#0E0E0E" stroke-linecap="round" stroke-linejoin="round"/>
<path d="M211.16 64.56C209.52 61.75 206.9 60 204.29 60.16C201.06 60.36 199.16 63.39 198.34 64.7C193.72 72.07 198.66 82.14 199.42 83.65" stroke="#0E0E0E" stroke-linecap="round" stroke-linejoin="round"/>
<path d="M211.23 120.12C209.35 107.25 203.24 79.0999 179.71 58.1899C174.59 53.6399 169.36 50.0699 164.39 47.2599" stroke="#0E0E0E" stroke-linecap="round" stroke-linejoin="round"/>
<path d="M15.0801 197.72C15.1101 232.91 15.1301 268.1 15.1601 303.28C80.3101 303.27 145.46 303.25 210.61 303.24C210.64 269.27 210.67 235.3 210.7 201.33C204.23 216.38 194.31 234.72 178.92 253.04C172.98 260.1 167 266.26 161.23 271.6C159.63 273.72 158.03 275.83 156.44 277.95C155.53 278.2 154.62 278.44 153.71 278.69C153.29 278.13 151.67 276.06 149.44 276.02C146.54 275.97 143.3 279.37 143.14 284.49C142.8 283.73 139.95 277.67 133.47 276.3C130.35 275.64 127.73 276.34 126.38 276.82C125.5 277.55 124.33 278.68 123.26 280.3C122.21 281.89 121.64 283.38 121.31 284.46H104.58C104.48 283.84 103.67 279.27 99.5101 276.99C95.4401 274.76 91.3101 276.46 90.0401 276.97C85.6501 278.74 83.7901 282.39 83.3801 283.25C82.3901 278.53 79.0901 275.61 76.1901 275.84C75.7201 275.88 74.2101 276.08 72.6401 277.84C70.9701 276.45 69.3001 275.06 67.6301 273.67C59.8701 269.83 45.4201 261.38 33.2901 245C19.1101 225.84 15.9701 206.45 15.1001 197.73L15.0801 197.72Z" fill="url(#paint1_linear_2_19433)"/>
<path d="M112.93 274.1C113 274.93 113.34 277.84 115.75 280.31C117.91 282.53 120.45 283.06 121.32 283.21C121.25 284.08 121.18 284.95 121.11 285.82C119.97 286.35 117.68 287.61 115.78 290.16C113.85 292.75 113.3 295.33 113.12 296.58C112.67 295.02 111.68 292.35 109.42 289.75C107.68 287.75 105.83 286.53 104.55 285.82C104.48 284.95 104.41 284.08 104.34 283.21C104.96 283.15 108.95 282.69 111.35 279.2C112.76 277.14 112.93 275.04 112.95 274.1H112.93Z" fill="white"/>
<path d="M154.54 288.02C153.43 288.34 151.6 288.69 149.53 288.19C147.72 287.76 146.5 286.88 145.81 286.36C139.73 281.8 138.83 278.26 134.65 276.66C134.11 276.45 130.2 275.16 126.26 277C123.48 278.3 121.5 281.26 121.19 284.47C120.75 289.07 123.95 293.62 127.66 294.45C128.09 294.55 130.43 295.07 132.34 293.64C132.58 293.46 134.06 292.32 134.27 290.31C134.3 290.01 134.54 287.42 132.56 286.16C131.45 285.46 130.04 285.42 128.92 285.94C127.33 286.67 126.37 288.5 126.62 290.46C126.23 290.03 125.69 289.36 125.26 288.44C125.05 288 123.69 284.99 124.99 282.1C126.57 278.58 130.88 277.96 131.46 277.88C135.31 277.33 139.31 279.35 141.93 282.98" stroke="#0E0E0E" stroke-linecap="round" stroke-linejoin="round"/>
<path d="M121.11 285.93C119.7 286.63 118.67 287.42 117.95 288.07C113.8 291.84 113.19 297.33 112.9 299.9C112.71 301.57 112.73 302.95 112.77 303.8" stroke="#0E0E0E" stroke-linecap="round" stroke-linejoin="round"/>
<path d="M121.32 283.33C120.37 283.16 119.34 282.86 118.32 282.34C113.71 279.99 113.03 275.07 112.93 274.22" stroke="#0E0E0E" stroke-linecap="round" stroke-linejoin="round"/>
<path d="M71.1001 288.02C72.2101 288.34 74.0401 288.69 76.1101 288.19C77.9201 287.76 79.1401 286.88 79.8301 286.36C85.9101 281.8 86.8101 278.26 90.9901 276.66C91.5301 276.45 95.4401 275.16 99.3801 277C102.16 278.3 104.14 281.26 104.45 284.47C104.89 289.07 101.69 293.62 97.9801 294.45C97.5501 294.55 95.2101 295.07 93.3001 293.64C93.0601 293.46 91.5801 292.32 91.3701 290.31C91.3401 290.01 91.1001 287.42 93.0801 286.16C94.1901 285.46 95.6001 285.42 96.7201 285.94C98.3101 286.67 99.2701 288.5 99.0201 290.46C99.4101 290.03 99.9501 289.36 100.38 288.44C100.59 288 101.95 284.99 100.65 282.1C99.0701 278.58 94.7601 277.96 94.1801 277.88C90.3301 277.33 86.3301 279.35 83.7101 282.98" stroke="#0E0E0E" stroke-linecap="round" stroke-linejoin="round"/>
<path d="M104.33 283.33C105.24 283.19 106.28 282.9 107.33 282.34C111.61 280.08 112.72 275.25 112.93 274.22" stroke="#0E0E0E" stroke-linecap="round" stroke-linejoin="round"/>
<path d="M72.05 278.88C72.2 278.54 72.9901 276.79 74.8401 276.21C76.8001 275.59 78.5201 276.73 79.2401 277.21C82.2701 279.22 82.5701 283.05 82.6001 283.67" stroke="#0E0E0E" stroke-linecap="round" stroke-linejoin="round"/>
<path d="M61.4101 269.66C62.2701 270.15 63.4801 270.89 64.8401 271.88C68.7701 274.74 71.8401 276.97 72.6401 280.61C73.3701 283.92 71.8801 286.71 71.6201 287.18C69.1701 291.6 64.0401 292.33 62.9801 292.45C58.2101 292.99 53.3701 290.47 50.3401 286.07" stroke="#0E0E0E" stroke-linecap="round" stroke-linejoin="round"/>
<path d="M51.01 262.8C50.96 273.09 53.48 281.17 57.47 283.4C59.52 284.54 61.6 284.57 61.6 284.57C62.29 284.57 65.78 284.52 67.99 281.64C69.96 279.07 69.47 276.13 69.38 275.63" stroke="#0E0E0E" stroke-linecap="round" stroke-linejoin="round"/>
<path d="M22.83 268C22.31 268.26 20.65 269.03 18.86 268.57C15.67 267.76 15.31 263.91 15.29 263.63C15.1 261.18 16.6 258.33 19.46 257.31C21.66 256.53 23.78 257.15 24.91 257.48C28.57 258.55 30.58 261.04 31.58 262.3C34.78 266.38 33.22 268.36 36.5 271.26C37.39 272.05 39.19 273.65 41.95 274.07C44.82 274.52 46 273.28 48.62 274.01C51.19 274.73 52.52 276.62 52.86 277.15C53.02 277.39 54.89 280.4 53.13 283.43C52.77 284.06 51.7 285.89 49.29 286.42C47.1 286.89 44.69 286.09 43.37 284.52C42.24 283.18 41.91 281.29 42.79 279.79C42.98 279.46 43.58 278.44 44.94 278.03C46.08 277.69 47.53 277.84 48.53 278.64C49.41 279.35 49.57 280.26 49.6 280.53" stroke="#0E0E0E" stroke-linecap="round" stroke-linejoin="round"/>
<path d="M34.4401 268.46C34.8601 273.02 37.1901 276.77 40.6001 277.99C41.3801 278.27 42.6001 278.55 44.2201 278.35" stroke="#0E0E0E" stroke-linecap="round" stroke-linejoin="round"/>
<path d="M30.9801 261.39C31.6201 261.55 34.1801 262.13 36.3801 260.71C39.0501 258.97 40.1401 254.94 38.5301 251.1" stroke="#0E0E0E" stroke-linecap="round" stroke-linejoin="round"/>
<path d="M29.17 247.64C29.58 247.66 30.43 247.65 31.33 247.18C32.83 246.39 33.29 244.92 33.38 244.62" stroke="#0E0E0E" stroke-linecap="round" stroke-linejoin="round"/>
<path d="M14.6901 194.86C16.2901 207.74 21.9101 237.18 46.0901 258.73C51.2001 263.28 56.4201 266.85 61.4101 269.66" stroke="#0E0E0E" stroke-linecap="round" stroke-linejoin="round"/>
<path d="M112.93 274.1C113 274.93 113.34 277.84 115.75 280.31C117.91 282.53 120.45 283.06 121.32 283.21C121.25 284.08 121.18 284.95 121.11 285.82C120.49 286.1 119.64 286.54 118.73 287.23C116.68 288.8 115.7 290.64 114.84 292.3C114.09 293.76 113.12 296.02 112.62 299C112.61 297.57 112.39 293.46 109.41 289.74C107.72 287.62 105.78 286.43 104.54 285.81C104.47 284.94 104.4 284.07 104.33 283.2C104.95 283.14 108.94 282.68 111.34 279.19C112.75 277.13 112.92 275.03 112.94 274.09L112.93 274.1Z" fill="black" stroke="black" stroke-width="0.75" stroke-linecap="round" stroke-linejoin="round"/>
<path d="M71.1001 288.02C72.2101 288.34 74.0401 288.69 76.1101 288.19C77.9201 287.76 79.1401 286.88 79.8301 286.36C85.9101 281.8 86.8101 278.26 90.9901 276.66C91.5301 276.45 95.4401 275.16 99.3801 277C102.16 278.3 104.14 281.26 104.45 284.47C104.89 289.07 101.69 293.62 97.9801 294.45C97.5501 294.55 95.2101 295.07 93.3001 293.64C93.0601 293.46 91.5801 292.32 91.3701 290.31C91.3401 290.01 91.1001 287.42 93.0801 286.16C94.1901 285.46 95.6001 285.42 96.7201 285.94C98.3101 286.67 99.2701 288.5 99.0201 290.46C99.4101 290.03 99.9501 289.36 100.38 288.44C100.59 288 101.95 284.99 100.65 282.1C99.0701 278.58 94.7601 277.96 94.1801 277.88C90.3301 277.33 86.3301 279.35 83.7101 282.98" stroke="#0E0E0E" stroke-linecap="round" stroke-linejoin="round"/>
<path d="M104.54 285.93C105.37 286.33 106.53 287 107.7 288.07C110.17 290.35 111.06 292.99 111.75 295.15C112.82 298.49 112.93 301.53 112.78 303.8" stroke="#0E0E0E" stroke-linecap="round" stroke-linejoin="round"/>
<path d="M104.33 283.33C105.24 283.19 106.28 282.9 107.33 282.34C111.65 280.05 112.73 275.11 112.93 274.1" stroke="#0E0E0E" stroke-linecap="round" stroke-linejoin="round"/>
<path d="M72.05 278.88C72.2 278.54 72.9901 276.79 74.8401 276.21C76.8001 275.59 78.5201 276.73 79.2401 277.21C82.2701 279.22 82.5701 283.05 82.6001 283.67" stroke="#0E0E0E" stroke-linecap="round" stroke-linejoin="round"/>
<path d="M61.4101 269.66C62.2701 270.15 63.4801 270.89 64.8401 271.88C68.7701 274.74 71.8401 276.97 72.6401 280.61C73.3701 283.92 71.8801 286.71 71.6201 287.18C69.1701 291.6 64.0401 292.33 62.9801 292.45C58.2101 292.99 53.3701 290.47 50.3401 286.07" stroke="#0E0E0E" stroke-linecap="round" stroke-linejoin="round"/>
<path d="M51.01 262.8C50.96 273.09 53.48 281.17 57.47 283.4C59.52 284.54 61.6 284.57 61.6 284.57C62.29 284.57 65.78 284.52 67.99 281.64C69.96 279.07 69.47 276.13 69.38 275.63" stroke="#0E0E0E" stroke-linecap="round" stroke-linejoin="round"/>
<path d="M22.83 268C22.31 268.26 20.65 269.03 18.86 268.57C15.67 267.76 15.31 263.91 15.29 263.63C15.1 261.18 16.6 258.33 19.46 257.31C21.66 256.53 23.78 257.15 24.91 257.48C28.57 258.55 30.58 261.04 31.58 262.3C34.78 266.38 33.22 268.36 36.5 271.26C37.39 272.05 39.19 273.65 41.95 274.07C44.82 274.52 46 273.28 48.62 274.01C51.19 274.73 52.52 276.62 52.86 277.15C53.02 277.39 54.89 280.4 53.13 283.43C52.77 284.06 51.7 285.89 49.29 286.42C47.1 286.89 44.69 286.09 43.37 284.52C42.24 283.18 41.91 281.29 42.79 279.79C42.98 279.46 43.58 278.44 44.94 278.03C46.08 277.69 47.53 277.84 48.53 278.64C49.41 279.35 49.57 280.26 49.6 280.53" stroke="#0E0E0E" stroke-linecap="round" stroke-linejoin="round"/>
<path d="M34.4401 268.46C34.8601 273.02 37.1901 276.77 40.6001 277.99C41.3801 278.27 42.6001 278.55 44.2201 278.35" stroke="#0E0E0E" stroke-linecap="round" stroke-linejoin="round"/>
<path d="M14.75 252.55C14.87 252.75 17.53 257.01 21.51 256.76C24.73 256.56 26.63 253.54 27.46 252.22C32.07 244.86 27.14 234.78 26.38 233.27" stroke="#0E0E0E" stroke-linecap="round" stroke-linejoin="round"/>
<path d="M30.9801 261.39C31.6201 261.55 34.1801 262.13 36.3801 260.71C39.0501 258.97 40.1401 254.94 38.5301 251.1" stroke="#0E0E0E" stroke-linecap="round" stroke-linejoin="round"/>
<path d="M29.17 247.64C29.58 247.66 30.43 247.65 31.33 247.18C32.83 246.39 33.29 244.92 33.38 244.62" stroke="#0E0E0E" stroke-linecap="round" stroke-linejoin="round"/>
<path d="M14.6901 194.86C16.2901 207.74 21.9101 237.18 46.0901 258.73C51.2001 263.28 56.4201 266.85 61.4101 269.66" stroke="#0E0E0E" stroke-linecap="round" stroke-linejoin="round"/>
<path d="M49.78 39.93C52.04 42.23 53.2 45 53.25 48.23C53.25 50.41 52.64 52.52 51.41 54.57C50.14 56.59 48.49 58.05 46.45 58.94C45.14 59.51 43.76 59.8 42.31 59.8C40.5 59.8 38.7 59.38 36.93 58.56C35.16 57.73 33.58 56.57 32.2 55.08C31.67 54.49 31.18 53.87 30.74 53.22C29.03 50.58 28.17 47.75 28.17 44.71V44.61C28.17 40.48 29.68 36.86 32.71 33.73C35.86 30.73 39.49 29.23 43.59 29.23C44.89 29.23 46.16 29.39 47.4 29.71C47.97 29.85 48.54 30.02 49.09 30.23C49.12 30.24 49.14 30.25 49.15 30.25C49.22 30.25 49.27 30.2 49.3 30.1L49.26 29.53H50.68V36.6H49.26L49.3 36.03C49.3 35.33 49 34.76 48.4 34.32C48.36 34.29 48.31 34.26 48.25 34.24C47.82 33.96 47.38 33.71 46.93 33.49C45.88 33.06 44.82 32.71 43.73 32.45C42.64 32.19 41.57 32.06 40.51 32.06C37.78 32.06 35.49 32.95 33.65 34.72C31.88 36.57 30.99 38.85 30.99 41.54C30.99 41.94 31.01 42.35 31.05 42.75C32.1 40.83 33.54 39.31 35.39 38.19C37.24 37.07 39.26 36.52 41.45 36.52C44.59 36.52 47.36 37.66 49.78 39.93ZM35.95 39.74C34.92 40.16 34.08 40.83 33.45 41.75C32.82 42.67 32.48 43.71 32.44 44.87V45.08C32.44 46.29 32.69 47.46 33.19 48.58C33.69 49.7 34.36 50.74 35.19 51.69C36.02 52.64 36.94 53.48 37.96 54.21C38.98 54.94 40.02 55.55 41.08 56.02C41.74 56.31 42.41 56.57 43.12 56.8C43.82 57.03 44.54 57.15 45.26 57.15C45.59 57.15 45.94 57.11 46.29 57.05C47.7 56.72 48.74 55.98 49.42 54.85C50.1 53.72 50.43 52.49 50.43 51.17C50.43 50.75 50.39 50.34 50.33 49.94C49.9 47.46 48.66 45.19 46.63 43.14C45.29 41.8 43.81 40.8 42.19 40.13C40.87 39.6 39.6 39.34 38.4 39.34C37.52 39.34 36.71 39.48 35.95 39.76V39.74Z" fill="black"/>
<path d="M175.91 277.12C173.65 274.82 172.49 272.05 172.44 268.82C172.44 266.64 173.05 264.53 174.28 262.48C175.55 260.46 177.2 259 179.24 258.11C180.55 257.54 181.93 257.25 183.38 257.25C185.19 257.25 186.99 257.67 188.76 258.49C190.53 259.32 192.11 260.48 193.49 261.97C194.02 262.56 194.51 263.18 194.95 263.83C196.66 266.47 197.52 269.3 197.52 272.34V272.44C197.52 276.57 196.01 280.19 192.98 283.32C189.83 286.32 186.2 287.82 182.1 287.82C180.8 287.82 179.53 287.66 178.29 287.34C177.72 287.2 177.15 287.03 176.6 286.82C176.57 286.81 176.55 286.8 176.54 286.8C176.47 286.8 176.42 286.85 176.39 286.95L176.43 287.52H175.01V280.45H176.43L176.39 281.02C176.39 281.72 176.69 282.29 177.29 282.73C177.33 282.76 177.38 282.79 177.44 282.81C177.87 283.09 178.31 283.34 178.76 283.56C179.81 283.99 180.87 284.34 181.96 284.6C183.05 284.86 184.12 284.99 185.18 284.99C187.91 284.99 190.2 284.1 192.04 282.33C193.81 280.48 194.7 278.2 194.7 275.51C194.7 275.11 194.68 274.7 194.64 274.3C193.59 276.22 192.15 277.74 190.3 278.86C188.45 279.98 186.43 280.53 184.24 280.53C181.1 280.53 178.33 279.39 175.91 277.12ZM189.74 277.31C190.77 276.89 191.61 276.22 192.24 275.3C192.87 274.38 193.21 273.34 193.25 272.18V271.97C193.25 270.76 193 269.59 192.5 268.47C192 267.35 191.33 266.31 190.5 265.36C189.67 264.41 188.75 263.57 187.73 262.84C186.71 262.11 185.67 261.5 184.61 261.03C183.95 260.74 183.28 260.48 182.57 260.25C181.87 260.02 181.15 259.9 180.43 259.9C180.1 259.9 179.75 259.94 179.4 260C177.99 260.33 176.95 261.07 176.27 262.2C175.59 263.33 175.26 264.56 175.26 265.88C175.26 266.3 175.3 266.71 175.36 267.11C175.79 269.59 177.03 271.86 179.06 273.91C180.4 275.25 181.88 276.25 183.5 276.92C184.82 277.45 186.09 277.71 187.29 277.71C188.17 277.71 188.98 277.57 189.74 277.29V277.31Z" fill="black"/>
<path d="M91.8701 67.93C86.4801 67.8 85.2401 71.91 84.9601 73.89C84.6701 71.91 83.4301 67.8 78.0501 67.93C70.9701 68.1 70.0301 76.04 72.5001 80.05C74.9701 84.06 76.2501 85.34 78.7301 87.9C81.0601 90.31 83.8501 93.02 84.8701 94.69C84.8701 94.69 84.9201 94.88 84.9601 94.83C84.9901 94.88 85.0501 94.69 85.0501 94.69C86.0801 93.03 88.8601 90.31 91.1901 87.9C93.6601 85.34 94.9401 84.06 97.4201 80.05C99.8901 76.04 98.9601 68.1 91.8701 67.93Z" fill="#EB1C24" stroke="black" stroke-width="0.75" stroke-linecap="round" stroke-linejoin="round"/>
<path d="M91.8701 145.28C86.4801 145.15 85.2401 149.26 84.9601 151.24C84.6701 149.26 83.4301 145.15 78.0501 145.28C70.9701 145.45 70.0301 153.39 72.5001 157.4C74.9701 161.41 76.2501 162.69 78.7301 165.25C81.0601 167.66 83.8501 170.37 84.8701 172.04C84.8701 172.04 84.9201 172.23 84.9601 172.18C84.9901 172.23 85.0501 172.04 85.0501 172.04C86.0801 170.38 88.8601 167.66 91.1901 165.25C93.6601 162.69 94.9401 161.41 97.4201 157.4C99.8901 153.39 98.9601 145.45 91.8701 145.28Z" fill="#EB1C24" stroke="black" stroke-width="0.75" stroke-linecap="round" stroke-linejoin="round"/>
<path d="M147.76 67.93C142.37 67.8 141.13 71.91 140.85 73.89C140.56 71.91 139.32 67.8 133.94 67.93C126.86 68.1 125.92 76.04 128.39 80.05C130.86 84.06 132.14 85.34 134.62 87.9C136.95 90.31 139.74 93.02 140.76 94.69C140.76 94.69 140.81 94.88 140.85 94.83C140.88 94.88 140.94 94.69 140.94 94.69C141.97 93.03 144.75 90.31 147.08 87.9C149.55 85.34 150.83 84.06 153.31 80.05C155.78 76.04 154.85 68.1 147.76 67.93Z" fill="#EB1C24" stroke="black" stroke-width="0.75" stroke-linecap="round" stroke-linejoin="round"/>
<path d="M147.76 145.28C142.37 145.15 141.13 149.26 140.85 151.24C140.56 149.26 139.32 145.15 133.94 145.28C126.86 145.45 125.92 153.39 128.39 157.4C130.86 161.41 132.14 162.69 134.62 165.25C136.95 167.66 139.74 170.37 140.76 172.04C140.76 172.04 140.81 172.23 140.85 172.18C140.88 172.23 140.94 172.04 140.94 172.04C141.97 170.38 144.75 167.66 147.08 165.25C149.55 162.69 150.83 161.41 153.31 157.4C155.78 153.39 154.85 145.45 147.76 145.28Z" fill="#EB1C24" stroke="black" stroke-width="0.75" stroke-linecap="round" stroke-linejoin="round"/>
<path d="M92.1 222.87C86.7101 222.74 85.47 226.85 85.19 228.83C84.9 226.85 83.66 222.74 78.28 222.87C71.2 223.04 70.2601 230.98 72.7301 234.99C75.2001 239 76.48 240.28 78.96 242.84C81.29 245.25 84.08 247.96 85.1 249.63C85.1 249.63 85.15 249.82 85.19 249.77C85.22 249.82 85.28 249.63 85.28 249.63C86.31 247.97 89.0901 245.25 91.4201 242.84C93.8901 240.28 95.17 239 97.65 234.99C100.12 230.98 99.1901 223.04 92.1 222.87Z" fill="#EB1C24" stroke="black" stroke-width="0.75" stroke-linecap="round" stroke-linejoin="round"/>
<path d="M147.76 222.87C142.37 222.74 141.13 226.85 140.85 228.83C140.56 226.85 139.32 222.74 133.94 222.87C126.86 223.04 125.92 230.98 128.39 234.99C130.86 239 132.14 240.28 134.62 242.84C136.95 245.25 139.74 247.96 140.76 249.63C140.76 249.63 140.81 249.82 140.85 249.77C140.88 249.82 140.94 249.63 140.94 249.63C141.97 247.97 144.75 245.25 147.08 242.84C149.55 240.28 150.83 239 153.31 234.99C155.78 230.98 154.85 223.04 147.76 222.87Z" fill="#EB1C24" stroke="black" stroke-width="0.75" stroke-linecap="round" stroke-linejoin="round"/>
<path d="M75.18 36.24C72.13 36.17 71.42 38.5 71.26 39.62C71.1 38.5 70.39 36.17 67.34 36.24C63.32 36.34 62.79 40.84 64.2 43.11C65.6 45.38 66.33 46.11 67.73 47.56C69.05 48.93 70.63 50.47 71.21 51.41C71.21 51.41 71.24 51.52 71.26 51.49C71.28 51.52 71.31 51.41 71.31 51.41C71.89 50.47 73.47 48.93 74.79 47.56C76.19 46.11 76.92 45.38 78.32 43.11C79.72 40.84 79.19 36.34 75.18 36.24Z" fill="#EB1C24" stroke="black" stroke-width="0.75" stroke-linecap="round" stroke-linejoin="round"/>
<path d="M150.52 280.81C153.57 280.88 154.28 278.55 154.44 277.43C154.6 278.55 155.31 280.88 158.36 280.81C162.38 280.71 162.91 276.21 161.5 273.94C160.1 271.67 159.37 270.94 157.97 269.49C156.65 268.12 155.07 266.58 154.49 265.64C154.49 265.64 154.46 265.53 154.44 265.56C154.42 265.53 154.39 265.64 154.39 265.64C153.81 266.58 152.23 268.12 150.91 269.49C149.51 270.94 148.78 271.67 147.38 273.94C145.98 276.21 146.51 280.71 150.52 280.81Z" fill="#EB1C24" stroke="black" stroke-width="0.75" stroke-linecap="round" stroke-linejoin="round"/>
<defs>
<linearGradient id="paint0_linear_2_19433" x1="210.8" y1="65.19" x2="15.28" y2="65.19" gradientUnits="userSpaceOnUse">
<stop stop-color="#8F8587"/>
<stop offset="0.24" stop-color="#C3BEBF"/>
<stop offset="0.45" stop-color="#EBEAEA"/>
<stop offset="0.56" stop-color="#FBFBFB"/>
</linearGradient>
<linearGradient id="paint1_linear_2_19433" x1="15.0801" y1="250.51" x2="210.7" y2="250.51" gradientUnits="userSpaceOnUse">
<stop stop-color="#8F8587"/>
<stop offset="0.25" stop-color="#C3BEBF"/>
<stop offset="0.46" stop-color="#EBEAEA"/>
<stop offset="0.57" stop-color="#FBFBFB"/>
</linearGradient>
</defs>
</svg>
