<svg width="225" height="317" viewBox="0 0 225 317" fill="none" xmlns="http://www.w3.org/2000/svg">
<path d="M216.72 316.92H8.03003C3.60003 316.92 0.0100098 313.3 0.0100098 308.84V8.08C0.0100098 3.62 3.60003 0 8.03003 0H216.72C221.15 0 224.74 3.62 224.74 8.08V308.84C224.74 313.3 221.15 316.92 216.72 316.92Z" fill="white"/>
<path d="M210.25 116.99C210.25 82.46 210.26 47.92 210.27 13.39C145.13 13.39 79.98 13.39 14.84 13.4C14.81 47.37 14.78 81.34 14.75 115.31C18.17 100.06 25.07 77.57 38.23 65.56C48.3 56.38 53.33 51.78 57.27 49.94C59.1 49.08 64.95 46.55 69.79 40.64C70.69 39.55 71.34 38.59 71.75 37.95C72.17 38.51 73.79 40.58 76.02 40.62C78.92 40.67 82.16 37.27 82.32 32.15C82.66 32.91 85.51 38.97 91.99 40.34C95.11 41 97.73 40.3 99.08 39.82C99.96 39.09 101.13 37.96 102.2 36.34C103.25 34.75 103.82 33.26 104.15 32.18H120.88C120.98 32.8 121.79 37.37 125.95 39.65C130.02 41.88 134.15 40.18 135.42 39.67C139.81 37.9 141.67 34.25 142.08 33.39C143.07 38.11 146.37 41.03 149.27 40.8C149.74 40.76 151.25 40.56 152.82 38.8L157.83 42.97C159.79 44.13 162.54 45.84 165.71 48.06C169.43 50.66 181.77 59.42 191.46 72.01C204.33 88.73 208.64 107.14 210.24 116.97L210.25 116.99Z" fill="url(#paint0_linear_2_19513)"/>
<path d="M210.77 303.79H14.14C14.14 243.35 14.14 182.91 14.14 122.47C14.14 85.95 14.14 49.44 14.14 12.92H210.77C210.77 49.38 210.77 85.84 210.77 122.3C210.77 182.8 210.77 243.29 210.77 303.79Z" stroke="#0E0E0E" stroke-linecap="round" stroke-linejoin="round"/>
<path d="M112.34 42.83C112.27 42 111.93 39.09 109.52 36.62C107.36 34.4 104.82 33.87 103.95 33.72C104.02 32.85 104.09 31.98 104.16 31.11C105.3 30.58 107.59 29.32 109.49 26.77C111.42 24.18 111.97 21.6 112.15 20.35C112.6 21.91 113.59 24.58 115.85 27.18C117.59 29.18 119.44 30.4 120.72 31.11C120.79 31.98 120.86 32.85 120.93 33.72C120.31 33.78 116.32 34.24 113.92 37.73C112.51 39.79 112.34 41.89 112.32 42.83H112.34Z" fill="white"/>
<path d="M70.73 28.9C71.84 28.58 73.67 28.23 75.74 28.73C77.55 29.16 78.77 30.04 79.46 30.56C85.54 35.12 86.44 38.66 90.62 40.26C91.16 40.47 95.07 41.76 99.01 39.92C101.79 38.62 103.77 35.66 104.08 32.45C104.52 27.85 101.32 23.3 97.61 22.47C97.18 22.37 94.84 21.85 92.93 23.28C92.69 23.46 91.21 24.6 91 26.61C90.97 26.91 90.73 29.5 92.71 30.76C93.82 31.46 95.23 31.5 96.35 30.98C97.94 30.25 98.9 28.42 98.65 26.46C99.04 26.89 99.58 27.56 100.01 28.48C100.22 28.92 101.58 31.93 100.28 34.82C98.7 38.34 94.39 38.96 93.81 39.04C89.96 39.59 85.96 37.57 83.34 33.94" stroke="#0E0E0E" stroke-linecap="round" stroke-linejoin="round"/>
<path d="M104.16 30.99C104.92 30.62 106.11 29.95 107.32 28.85C111.19 25.32 111.9 20.42 112.22 18.24C112.4 17.01 112.56 15.18 112.35 12.91" stroke="#0E0E0E" stroke-linecap="round" stroke-linejoin="round"/>
<path d="M103.95 33.6C104.9 33.77 105.93 34.07 106.95 34.59C111.56 36.94 112.24 41.86 112.34 42.71" stroke="#0E0E0E" stroke-linecap="round" stroke-linejoin="round"/>
<path d="M154.17 28.9C153.06 28.58 151.23 28.23 149.16 28.73C147.35 29.16 146.13 30.04 145.44 30.56C139.36 35.12 138.46 38.66 134.28 40.26C133.74 40.47 129.83 41.76 125.89 39.92C123.11 38.62 121.13 35.66 120.82 32.45C120.38 27.85 123.58 23.3 127.29 22.47C127.72 22.37 130.06 21.85 131.97 23.28C132.21 23.46 133.69 24.6 133.9 26.61C133.93 26.91 134.17 29.5 132.19 30.76C131.08 31.46 129.67 31.5 128.55 30.98C126.96 30.25 126 28.42 126.25 26.46C125.86 26.89 125.32 27.56 124.89 28.48C124.68 28.92 123.32 31.93 124.62 34.82C126.2 38.34 130.51 38.96 131.09 39.04C134.94 39.59 138.94 37.57 141.56 33.94" stroke="#0E0E0E" stroke-linecap="round" stroke-linejoin="round"/>
<path d="M120.95 33.6C120 33.77 118.97 34.07 117.95 34.59C113.34 36.94 112.66 41.86 112.56 42.71" stroke="#0E0E0E" stroke-linecap="round" stroke-linejoin="round"/>
<path d="M153.23 38.0399C153.08 38.3799 152.29 40.1299 150.44 40.7099C148.48 41.3299 146.76 40.1899 146.04 39.7099C143.01 37.6999 142.71 33.8699 142.68 33.2499" stroke="#0E0E0E" stroke-linecap="round" stroke-linejoin="round"/>
<path d="M163.86 47.2599C163 46.7699 161.79 46.0299 160.43 45.0399C156.5 42.1799 153.43 39.9499 152.63 36.3099C151.9 32.9999 153.39 30.2099 153.65 29.7399C156.1 25.3199 161.23 24.5899 162.29 24.4699C167.06 23.9299 171.9 26.4499 174.93 30.8499" stroke="#0E0E0E" stroke-linecap="round" stroke-linejoin="round"/>
<path d="M174.27 54.13C174.32 43.84 171.8 35.76 167.81 33.53C165.76 32.39 163.68 32.36 163.68 32.36C162.99 32.36 159.5 32.41 157.29 35.29C155.32 37.86 155.81 40.8 155.9 41.3" stroke="#0E0E0E" stroke-linecap="round" stroke-linejoin="round"/>
<path d="M202.44 48.93C202.96 48.67 204.62 47.9 206.41 48.36C209.6 49.17 209.96 53.02 209.98 53.3C210.17 55.75 208.67 58.6 205.81 59.62C203.61 60.4 201.49 59.78 200.36 59.45C196.7 58.38 194.69 55.89 193.69 54.63C190.49 50.55 192.05 48.57 188.77 45.67C187.88 44.88 186.08 43.28 183.32 42.86C180.45 42.41 179.27 43.65 176.65 42.92C174.08 42.2 172.75 40.31 172.41 39.78C172.25 39.54 170.38 36.53 172.14 33.5C172.5 32.87 173.57 31.04 175.98 30.51C178.17 30.04 180.58 30.84 181.9 32.41C183.03 33.75 183.36 35.64 182.48 37.14C182.29 37.47 181.69 38.49 180.33 38.9C179.19 39.24 177.74 39.09 176.74 38.29C175.86 37.58 175.7 36.67 175.67 36.4" stroke="#0E0E0E" stroke-linecap="round" stroke-linejoin="round"/>
<path d="M190.83 48.46C190.41 43.9 188.08 40.15 184.67 38.93C183.89 38.65 182.67 38.37 181.05 38.57" stroke="#0E0E0E" stroke-linecap="round" stroke-linejoin="round"/>
<path d="M194.29 55.53C193.67 55.37 191.09 54.77 188.89 56.21C186.24 57.95 185.18 61.98 186.81 65.8" stroke="#0E0E0E" stroke-linecap="round" stroke-linejoin="round"/>
<path d="M196.1 69.28C195.69 69.26 194.84 69.27 193.94 69.74C192.48 70.51 192 71.92 191.91 72.24" stroke="#0E0E0E" stroke-linecap="round" stroke-linejoin="round"/>
<path d="M210.75 121.03C210.73 120.89 210.71 120.64 210.67 120.35C209.89 113.5 205.48 81.5199 179.18 58.1899C175.91 55.2899 170.84 51.2199 163.86 47.2599" stroke="#0E0E0E" stroke-linecap="round" stroke-linejoin="round"/>
<path d="M112.34 42.83C112.27 42 111.93 39.09 109.52 36.62C107.36 34.4 104.82 33.87 103.95 33.72C104.02 32.85 104.09 31.98 104.16 31.11C105.3 30.58 107.59 29.32 109.49 26.77C111.42 24.18 111.97 21.6 112.15 20.35C112.6 21.91 113.59 24.58 115.85 27.18C117.59 29.18 119.44 30.4 120.72 31.11C120.79 31.98 120.86 32.85 120.93 33.72C120.31 33.78 116.32 34.24 113.92 37.73C112.51 39.79 112.34 41.89 112.32 42.83H112.34Z" fill="black" stroke="black" stroke-width="0.75" stroke-linecap="round" stroke-linejoin="round"/>
<path d="M154.17 28.9C153.06 28.58 151.23 28.23 149.16 28.73C147.35 29.16 146.13 30.04 145.44 30.56C139.36 35.12 138.46 38.66 134.28 40.26C133.74 40.47 129.83 41.76 125.89 39.92C123.11 38.62 121.13 35.66 120.82 32.45C120.38 27.85 123.58 23.3 127.29 22.47C127.72 22.37 130.06 21.85 131.97 23.28C132.21 23.46 133.69 24.6 133.9 26.61C133.93 26.91 134.17 29.5 132.19 30.76C131.08 31.46 129.67 31.5 128.55 30.98C126.96 30.25 126 28.42 126.25 26.46C125.86 26.89 125.32 27.56 124.89 28.48C124.68 28.92 123.32 31.93 124.62 34.82C126.2 38.34 130.51 38.96 131.09 39.04C134.94 39.59 138.94 37.57 141.56 33.94" stroke="#0E0E0E" stroke-linecap="round" stroke-linejoin="round"/>
<path d="M120.74 30.99C119.27 30.26 118.24 29.45 117.58 28.85C113.12 24.79 112.69 18.76 112.53 16.54C112.42 15.02 112.48 13.76 112.55 12.91" stroke="#0E0E0E" stroke-linecap="round" stroke-linejoin="round"/>
<path d="M120.95 33.6C120 33.77 118.97 34.07 117.95 34.59C113.34 36.94 112.66 41.86 112.56 42.71" stroke="#0E0E0E" stroke-linecap="round" stroke-linejoin="round"/>
<path d="M153.23 38.04C153.08 38.38 152.29 40.13 150.44 40.71C148.48 41.33 146.76 40.19 146.04 39.71C143.01 37.7 142.71 33.87 142.68 33.25" stroke="#0E0E0E" stroke-linecap="round" stroke-linejoin="round"/>
<path d="M163.86 47.2599C163 46.7699 161.79 46.0299 160.43 45.0399C156.5 42.1799 153.43 39.9499 152.63 36.3099C151.9 32.9999 153.39 30.2099 153.65 29.7399C156.1 25.3199 161.23 24.5899 162.29 24.4699C167.06 23.9299 171.9 26.4499 174.93 30.8499" stroke="#0E0E0E" stroke-linecap="round" stroke-linejoin="round"/>
<path d="M174.27 54.13C174.32 43.84 171.8 35.76 167.81 33.53C165.76 32.39 163.68 32.36 163.68 32.36C162.99 32.36 159.5 32.41 157.29 35.29C155.32 37.86 155.81 40.8 155.9 41.3" stroke="#0E0E0E" stroke-linecap="round" stroke-linejoin="round"/>
<path d="M202.44 48.93C202.96 48.67 204.62 47.9 206.41 48.36C209.6 49.17 209.96 53.02 209.98 53.3C210.17 55.75 208.67 58.6 205.81 59.62C203.61 60.4 201.49 59.78 200.36 59.45C196.7 58.38 194.69 55.89 193.69 54.63C190.49 50.55 192.05 48.57 188.77 45.67C187.88 44.88 186.08 43.28 183.32 42.86C180.45 42.41 179.27 43.65 176.65 42.92C174.08 42.2 172.75 40.31 172.41 39.78C172.25 39.54 170.38 36.53 172.14 33.5C172.5 32.87 173.57 31.04 175.98 30.51C178.17 30.04 180.58 30.84 181.9 32.41C183.03 33.75 183.36 35.64 182.48 37.14C182.29 37.47 181.69 38.49 180.33 38.9C179.19 39.24 177.74 39.09 176.74 38.29C175.86 37.58 175.7 36.67 175.67 36.4" stroke="#0E0E0E" stroke-linecap="round" stroke-linejoin="round"/>
<path d="M190.83 48.46C190.41 43.9 188.08 40.15 184.67 38.93C183.89 38.65 182.67 38.37 181.05 38.57" stroke="#0E0E0E" stroke-linecap="round" stroke-linejoin="round"/>
<path d="M210.63 64.56C208.99 61.75 206.37 60 203.76 60.16C200.53 60.36 198.63 63.39 197.81 64.7C193.19 72.07 198.13 82.14 198.89 83.65" stroke="#0E0E0E" stroke-linecap="round" stroke-linejoin="round"/>
<path d="M210.7 120.12C208.82 107.25 202.71 79.0999 179.18 58.1899C174.06 53.6399 168.83 50.0699 163.86 47.2599" stroke="#0E0E0E" stroke-linecap="round" stroke-linejoin="round"/>
<path d="M14.55 197.72C14.58 232.91 14.6001 268.1 14.6301 303.28C79.7801 303.27 144.93 303.25 210.08 303.24C210.11 269.27 210.14 235.3 210.17 201.33C203.7 216.38 193.78 234.72 178.39 253.04C172.45 260.1 166.47 266.26 160.7 271.6C159.1 273.72 157.5 275.83 155.91 277.95C155 278.2 154.09 278.44 153.18 278.69C152.76 278.13 151.14 276.06 148.91 276.02C146.01 275.97 142.77 279.37 142.61 284.49C142.27 283.73 139.42 277.67 132.94 276.3C129.82 275.64 127.2 276.34 125.85 276.82C124.97 277.55 123.8 278.68 122.73 280.3C121.68 281.89 121.11 283.38 120.78 284.46H104.05C103.95 283.84 103.14 279.27 98.98 276.99C94.91 274.76 90.7801 276.46 89.5101 276.97C85.1201 278.74 83.26 282.39 82.85 283.25C81.86 278.53 78.56 275.61 75.66 275.84C75.19 275.88 73.68 276.08 72.11 277.84C70.44 276.45 68.77 275.06 67.1 273.67C59.34 269.83 44.8901 261.38 32.7601 245C18.5801 225.84 15.4401 206.45 14.5701 197.73L14.55 197.72Z" fill="url(#paint1_linear_2_19513)"/>
<path d="M112.4 274.1C112.47 274.93 112.81 277.84 115.22 280.31C117.38 282.53 119.92 283.06 120.79 283.21C120.72 284.08 120.65 284.95 120.58 285.82C119.44 286.35 117.15 287.61 115.25 290.16C113.32 292.75 112.77 295.33 112.59 296.58C112.14 295.02 111.15 292.35 108.89 289.75C107.15 287.75 105.3 286.53 104.02 285.82C103.95 284.95 103.88 284.08 103.81 283.21C104.43 283.15 108.42 282.69 110.82 279.2C112.23 277.14 112.4 275.04 112.42 274.1H112.4Z" fill="white"/>
<path d="M154.02 288.02C152.91 288.34 151.08 288.69 149.01 288.19C147.2 287.76 145.98 286.88 145.29 286.36C139.21 281.8 138.31 278.26 134.13 276.66C133.59 276.45 129.68 275.16 125.74 277C122.96 278.3 120.98 281.26 120.67 284.47C120.23 289.07 123.43 293.62 127.14 294.45C127.57 294.55 129.91 295.07 131.82 293.64C132.06 293.46 133.54 292.32 133.75 290.31C133.78 290.01 134.02 287.42 132.04 286.16C130.93 285.46 129.52 285.42 128.4 285.94C126.81 286.67 125.85 288.5 126.1 290.46C125.71 290.03 125.17 289.36 124.74 288.44C124.53 288 123.17 284.99 124.47 282.1C126.05 278.58 130.36 277.96 130.94 277.88C134.79 277.33 138.79 279.35 141.41 282.98" stroke="#0E0E0E" stroke-linecap="round" stroke-linejoin="round"/>
<path d="M120.58 285.93C119.17 286.63 118.14 287.42 117.42 288.07C113.27 291.84 112.66 297.33 112.37 299.9C112.18 301.57 112.2 302.95 112.24 303.8" stroke="#0E0E0E" stroke-linecap="round" stroke-linejoin="round"/>
<path d="M120.79 283.33C119.84 283.16 118.81 282.86 117.79 282.34C113.18 279.99 112.5 275.07 112.4 274.22" stroke="#0E0E0E" stroke-linecap="round" stroke-linejoin="round"/>
<path d="M70.58 288.02C71.69 288.34 73.52 288.69 75.59 288.19C77.4 287.76 78.6199 286.88 79.3099 286.36C85.3899 281.8 86.2899 278.26 90.4699 276.66C91.0099 276.45 94.9199 275.16 98.8599 277C101.64 278.3 103.62 281.26 103.93 284.47C104.37 289.07 101.17 293.62 97.46 294.45C97.03 294.55 94.69 295.07 92.78 293.64C92.54 293.46 91.0599 292.32 90.8499 290.31C90.8199 290.01 90.5799 287.42 92.5599 286.16C93.6699 285.46 95.08 285.42 96.2 285.94C97.79 286.67 98.7499 288.5 98.4999 290.46C98.8899 290.03 99.4299 289.36 99.8599 288.44C100.07 288 101.43 284.99 100.13 282.1C98.5499 278.58 94.2399 277.96 93.6599 277.88C89.8099 277.33 85.8099 279.35 83.1899 282.98" stroke="#0E0E0E" stroke-linecap="round" stroke-linejoin="round"/>
<path d="M103.8 283.33C104.71 283.19 105.75 282.9 106.8 282.34C111.08 280.08 112.19 275.25 112.4 274.22" stroke="#0E0E0E" stroke-linecap="round" stroke-linejoin="round"/>
<path d="M71.52 278.88C71.67 278.54 72.46 276.79 74.31 276.21C76.27 275.59 77.99 276.73 78.71 277.21C81.74 279.22 82.04 283.05 82.07 283.67" stroke="#0E0E0E" stroke-linecap="round" stroke-linejoin="round"/>
<path d="M60.89 269.66C61.75 270.15 62.9599 270.89 64.3199 271.88C68.2499 274.74 71.3199 276.97 72.1199 280.61C72.8499 283.92 71.3599 286.71 71.0999 287.18C68.6499 291.6 63.52 292.33 62.46 292.45C57.69 292.99 52.8499 290.47 49.8199 286.07" stroke="#0E0E0E" stroke-linecap="round" stroke-linejoin="round"/>
<path d="M50.48 262.8C50.43 273.09 52.95 281.17 56.94 283.4C58.99 284.54 61.07 284.57 61.07 284.57C61.76 284.57 65.25 284.52 67.46 281.64C69.43 279.07 68.94 276.13 68.85 275.63" stroke="#0E0E0E" stroke-linecap="round" stroke-linejoin="round"/>
<path d="M22.31 268C21.79 268.26 20.13 269.03 18.34 268.57C15.15 267.76 14.79 263.91 14.77 263.63C14.58 261.18 16.08 258.33 18.94 257.31C21.14 256.53 23.26 257.15 24.39 257.48C28.05 258.55 30.06 261.04 31.06 262.3C34.26 266.38 32.6999 268.36 35.9799 271.26C36.8699 272.05 38.67 273.65 41.43 274.07C44.3 274.52 45.4799 273.28 48.0999 274.01C50.6699 274.73 52 276.62 52.34 277.15C52.5 277.39 54.37 280.4 52.61 283.43C52.25 284.06 51.18 285.89 48.77 286.42C46.58 286.89 44.1699 286.09 42.8499 284.52C41.7199 283.18 41.39 281.29 42.27 279.79C42.46 279.46 43.06 278.44 44.42 278.03C45.56 277.69 47.01 277.84 48.01 278.64C48.89 279.35 49.05 280.26 49.08 280.53" stroke="#0E0E0E" stroke-linecap="round" stroke-linejoin="round"/>
<path d="M33.9199 268.46C34.3399 273.02 36.67 276.77 40.08 277.99C40.86 278.27 42.08 278.55 43.7 278.35" stroke="#0E0E0E" stroke-linecap="round" stroke-linejoin="round"/>
<path d="M30.45 261.39C31.09 261.55 33.6499 262.13 35.8499 260.71C38.5199 258.97 39.6099 254.94 37.9999 251.1" stroke="#0E0E0E" stroke-linecap="round" stroke-linejoin="round"/>
<path d="M28.6399 247.64C29.0499 247.66 29.8999 247.65 30.7999 247.18C32.2999 246.39 32.7599 244.92 32.8499 244.62" stroke="#0E0E0E" stroke-linecap="round" stroke-linejoin="round"/>
<path d="M14.1699 194.86C15.7699 207.74 21.3899 237.18 45.5699 258.73C50.6799 263.28 55.9 266.85 60.89 269.66" stroke="#0E0E0E" stroke-linecap="round" stroke-linejoin="round"/>
<path d="M112.4 274.1C112.47 274.93 112.81 277.84 115.22 280.31C117.38 282.53 119.92 283.06 120.79 283.21C120.72 284.08 120.65 284.95 120.58 285.82C119.96 286.1 119.11 286.54 118.2 287.23C116.15 288.8 115.17 290.64 114.31 292.3C113.56 293.76 112.59 296.02 112.09 299C112.08 297.57 111.86 293.46 108.88 289.74C107.19 287.62 105.25 286.43 104.01 285.81C103.94 284.94 103.87 284.07 103.8 283.2C104.42 283.14 108.41 282.68 110.81 279.19C112.22 277.13 112.39 275.03 112.41 274.09L112.4 274.1Z" fill="black" stroke="black" stroke-width="0.75" stroke-linecap="round" stroke-linejoin="round"/>
<path d="M70.58 288.02C71.69 288.34 73.52 288.69 75.59 288.19C77.4 287.76 78.6199 286.88 79.3099 286.36C85.3899 281.8 86.2899 278.26 90.4699 276.66C91.0099 276.45 94.9199 275.16 98.8599 277C101.64 278.3 103.62 281.26 103.93 284.47C104.37 289.07 101.17 293.62 97.46 294.45C97.03 294.55 94.69 295.07 92.78 293.64C92.54 293.46 91.0599 292.32 90.8499 290.31C90.8199 290.01 90.5799 287.42 92.5599 286.16C93.6699 285.46 95.08 285.42 96.2 285.94C97.79 286.67 98.7499 288.5 98.4999 290.46C98.8899 290.03 99.4299 289.36 99.8599 288.44C100.07 288 101.43 284.99 100.13 282.1C98.5499 278.58 94.2399 277.96 93.6599 277.88C89.8099 277.33 85.8099 279.35 83.1899 282.98" stroke="#0E0E0E" stroke-linecap="round" stroke-linejoin="round"/>
<path d="M104.01 285.93C104.84 286.33 106 287 107.17 288.07C109.64 290.35 110.53 292.99 111.22 295.15C112.29 298.49 112.4 301.53 112.25 303.8" stroke="#0E0E0E" stroke-linecap="round" stroke-linejoin="round"/>
<path d="M103.8 283.33C104.71 283.19 105.75 282.9 106.8 282.34C111.12 280.05 112.2 275.11 112.4 274.1" stroke="#0E0E0E" stroke-linecap="round" stroke-linejoin="round"/>
<path d="M71.52 278.88C71.67 278.54 72.46 276.79 74.31 276.21C76.27 275.59 77.99 276.73 78.71 277.21C81.74 279.22 82.04 283.05 82.07 283.67" stroke="#0E0E0E" stroke-linecap="round" stroke-linejoin="round"/>
<path d="M60.89 269.66C61.75 270.15 62.9599 270.89 64.3199 271.88C68.2499 274.74 71.3199 276.97 72.1199 280.61C72.8499 283.92 71.3599 286.71 71.0999 287.18C68.6499 291.6 63.52 292.33 62.46 292.45C57.69 292.99 52.8499 290.47 49.8199 286.07" stroke="#0E0E0E" stroke-linecap="round" stroke-linejoin="round"/>
<path d="M50.48 262.8C50.43 273.09 52.95 281.17 56.94 283.4C58.99 284.54 61.07 284.57 61.07 284.57C61.76 284.57 65.25 284.52 67.46 281.64C69.43 279.07 68.94 276.13 68.85 275.63" stroke="#0E0E0E" stroke-linecap="round" stroke-linejoin="round"/>
<path d="M22.31 268C21.79 268.26 20.13 269.03 18.34 268.57C15.15 267.76 14.79 263.91 14.77 263.63C14.58 261.18 16.08 258.33 18.94 257.31C21.14 256.53 23.26 257.15 24.39 257.48C28.05 258.55 30.06 261.04 31.06 262.3C34.26 266.38 32.6999 268.36 35.9799 271.26C36.8699 272.05 38.67 273.65 41.43 274.07C44.3 274.52 45.4799 273.28 48.0999 274.01C50.6699 274.73 52 276.62 52.34 277.15C52.5 277.39 54.37 280.4 52.61 283.43C52.25 284.06 51.18 285.89 48.77 286.42C46.58 286.89 44.1699 286.09 42.8499 284.52C41.7199 283.18 41.39 281.29 42.27 279.79C42.46 279.46 43.06 278.44 44.42 278.03C45.56 277.69 47.01 277.84 48.01 278.64C48.89 279.35 49.05 280.26 49.08 280.53" stroke="#0E0E0E" stroke-linecap="round" stroke-linejoin="round"/>
<path d="M33.9199 268.46C34.3399 273.02 36.67 276.77 40.08 277.99C40.86 278.27 42.08 278.55 43.7 278.35" stroke="#0E0E0E" stroke-linecap="round" stroke-linejoin="round"/>
<path d="M14.23 252.55C14.35 252.75 17.01 257.01 20.99 256.76C24.21 256.56 26.11 253.54 26.94 252.22C31.55 244.86 26.62 234.78 25.86 233.27" stroke="#0E0E0E" stroke-linecap="round" stroke-linejoin="round"/>
<path d="M30.45 261.39C31.09 261.55 33.6499 262.13 35.8499 260.71C38.5199 258.97 39.6099 254.94 37.9999 251.1" stroke="#0E0E0E" stroke-linecap="round" stroke-linejoin="round"/>
<path d="M28.6399 247.64C29.0499 247.66 29.8999 247.65 30.7999 247.18C32.2999 246.39 32.7599 244.92 32.8499 244.62" stroke="#0E0E0E" stroke-linecap="round" stroke-linejoin="round"/>
<path d="M14.1699 194.86C15.7699 207.74 21.3899 237.18 45.5699 258.73C50.6799 263.28 55.9 266.85 60.89 269.66" stroke="#0E0E0E" stroke-linecap="round" stroke-linejoin="round"/>
<path d="M29.5801 29.49H55.04V30.87H54.5001C53.4801 30.87 52.6801 31.32 52.0901 32.23L38.4301 56.37C38.2801 56.72 38.2001 57.03 38.2001 57.31C38.2001 57.51 38.2401 57.67 38.3201 57.81C38.4901 58.05 38.77 58.17 39.16 58.17L39.72 58.13L39.7001 59.55H30.0101V58.13L30.5701 58.17C31.0401 58.17 31.52 58.03 31.98 57.74C32.45 57.45 32.8301 57.07 33.1201 56.6V56.58C36.8901 49.87 41.6901 41.3 47.5301 30.87H34.5601C33.5601 30.87 32.7001 31.23 32.0001 31.94C31.2901 32.65 30.9401 33.5 30.9401 34.49V35.03H29.5601V29.49H29.5801Z" fill="black"/>
<path d="M195.06 287.56H169.6V286.18H170.14C171.16 286.18 171.96 285.73 172.55 284.82L186.21 260.68C186.36 260.33 186.44 260.02 186.44 259.74C186.44 259.54 186.4 259.38 186.32 259.24C186.15 259 185.87 258.88 185.48 258.88L184.92 258.92L184.94 257.5H194.63V258.92L194.07 258.88C193.6 258.88 193.12 259.02 192.66 259.31C192.19 259.6 191.81 259.98 191.52 260.45V260.47C187.75 267.18 182.95 275.75 177.11 286.18H190.08C191.08 286.18 191.94 285.82 192.64 285.11C193.35 284.4 193.7 283.55 193.7 282.56V282.02H195.08V287.56H195.06Z" fill="black"/>
<path d="M74.65 36.24C71.6 36.17 70.89 38.5 70.73 39.62C70.57 38.5 69.86 36.17 66.81 36.24C62.79 36.34 62.26 40.84 63.67 43.11C65.07 45.38 65.8 46.11 67.2 47.56C68.52 48.93 70.1 50.47 70.68 51.41C70.68 51.41 70.71 51.52 70.73 51.49C70.75 51.52 70.78 51.41 70.78 51.41C71.36 50.47 72.94 48.93 74.26 47.56C75.66 46.11 76.39 45.38 77.79 43.11C79.19 40.84 78.66 36.34 74.65 36.24Z" fill="#EB1C24" stroke="black" stroke-width="0.75" stroke-linecap="round" stroke-linejoin="round"/>
<path d="M149.99 280.81C153.04 280.88 153.75 278.55 153.91 277.43C154.07 278.55 154.78 280.88 157.83 280.81C161.85 280.71 162.38 276.21 160.97 273.94C159.57 271.67 158.84 270.94 157.44 269.49C156.12 268.12 154.54 266.58 153.96 265.64C153.96 265.64 153.93 265.53 153.91 265.56C153.89 265.53 153.86 265.64 153.86 265.64C153.28 266.58 151.7 268.12 150.38 269.49C148.98 270.94 148.25 271.67 146.85 273.94C145.45 276.21 145.98 280.71 149.99 280.81Z" fill="#EB1C24" stroke="black" stroke-width="0.75" stroke-linecap="round" stroke-linejoin="round"/>
<path d="M91.3701 67.93C85.9801 67.8 84.7401 71.91 84.4601 73.89C84.1701 71.91 82.9301 67.8 77.5501 67.93C70.4701 68.1 69.5301 76.04 72.0001 80.05C74.4701 84.06 75.7501 85.34 78.2301 87.9C80.5601 90.31 83.3501 93.02 84.3701 94.69C84.3701 94.69 84.4201 94.88 84.4601 94.83C84.4901 94.88 84.5501 94.69 84.5501 94.69C85.5801 93.03 88.3601 90.31 90.6901 87.9C93.1601 85.34 94.4401 84.06 96.9201 80.05C99.3901 76.04 98.4601 68.1 91.3701 67.93Z" fill="#EB1C24" stroke="black" stroke-width="0.75" stroke-linecap="round" stroke-linejoin="round"/>
<path d="M91.3701 145.28C85.9801 145.15 84.7401 149.26 84.4601 151.24C84.1701 149.26 82.9301 145.15 77.5501 145.28C70.4701 145.45 69.5301 153.39 72.0001 157.4C74.4701 161.41 75.7501 162.69 78.2301 165.25C80.5601 167.66 83.3501 170.37 84.3701 172.04C84.3701 172.04 84.4201 172.23 84.4601 172.18C84.4901 172.23 84.5501 172.04 84.5501 172.04C85.5801 170.38 88.3601 167.66 90.6901 165.25C93.1601 162.69 94.4401 161.41 96.9201 157.4C99.3901 153.39 98.4601 145.45 91.3701 145.28Z" fill="#EB1C24" stroke="black" stroke-width="0.75" stroke-linecap="round" stroke-linejoin="round"/>
<path d="M147.26 67.15C141.87 67.02 140.63 71.13 140.35 73.11C140.06 71.13 138.82 67.02 133.44 67.15C126.36 67.32 125.42 75.26 127.89 79.27C130.36 83.28 131.64 84.56 134.12 87.12C136.45 89.53 139.24 92.24 140.26 93.91C140.26 93.91 140.31 94.1 140.35 94.05C140.38 94.1 140.44 93.91 140.44 93.91C141.47 92.25 144.25 89.53 146.58 87.12C149.05 84.56 150.33 83.28 152.81 79.27C155.28 75.26 154.35 67.32 147.26 67.15Z" fill="#EB1C24" stroke="black" stroke-width="0.75" stroke-linecap="round" stroke-linejoin="round"/>
<path d="M147.26 145.01C141.87 144.88 140.63 148.99 140.35 150.97C140.06 148.99 138.82 144.88 133.44 145.01C126.36 145.18 125.42 153.12 127.89 157.13C130.36 161.14 131.64 162.42 134.12 164.98C136.45 167.39 139.24 170.1 140.26 171.77C140.26 171.77 140.31 171.96 140.35 171.91C140.38 171.96 140.44 171.77 140.44 171.77C141.47 170.11 144.25 167.39 146.58 164.98C149.05 162.42 150.33 161.14 152.81 157.13C155.28 153.12 154.35 145.18 147.26 145.01Z" fill="#EB1C24" stroke="black" stroke-width="0.75" stroke-linecap="round" stroke-linejoin="round"/>
<path d="M91.6 222.62C86.21 222.49 84.9701 226.6 84.6901 228.58C84.4001 226.6 83.1601 222.49 77.7801 222.62C70.7001 222.79 69.76 230.73 72.23 234.74C74.7 238.75 75.9801 240.03 78.4601 242.59C80.7901 245 83.58 247.71 84.6 249.38C84.6 249.38 84.6501 249.57 84.6901 249.52C84.7201 249.57 84.7801 249.38 84.7801 249.38C85.8101 247.72 88.59 245 90.92 242.59C93.39 240.03 94.6701 238.75 97.1501 234.74C99.6201 230.73 98.69 222.79 91.6 222.62Z" fill="#EB1C24" stroke="black" stroke-width="0.75" stroke-linecap="round" stroke-linejoin="round"/>
<path d="M147.26 222.87C141.87 222.74 140.63 226.85 140.35 228.83C140.06 226.85 138.82 222.74 133.44 222.87C126.36 223.04 125.42 230.98 127.89 234.99C130.36 239 131.64 240.28 134.12 242.84C136.45 245.25 139.24 247.96 140.26 249.63C140.26 249.63 140.31 249.82 140.35 249.77C140.38 249.82 140.44 249.63 140.44 249.63C141.47 247.97 144.25 245.25 146.58 242.84C149.05 240.28 150.33 239 152.81 234.99C155.28 230.98 154.35 223.04 147.26 222.87Z" fill="#EB1C24" stroke="black" stroke-width="0.75" stroke-linecap="round" stroke-linejoin="round"/>
<path d="M119.5 103.93C114.11 103.8 112.87 107.91 112.59 109.89C112.3 107.91 111.06 103.8 105.68 103.93C98.6001 104.1 97.6601 112.04 100.13 116.05C102.6 120.06 103.88 121.34 106.36 123.9C108.69 126.31 111.48 129.02 112.5 130.69C112.5 130.69 112.55 130.88 112.59 130.83C112.62 130.88 112.68 130.69 112.68 130.69C113.71 129.03 116.49 126.31 118.82 123.9C121.29 121.34 122.57 120.06 125.05 116.05C127.52 112.04 126.59 104.1 119.5 103.93Z" fill="#EB1C24" stroke="black" stroke-width="0.75" stroke-linecap="round" stroke-linejoin="round"/>
<defs>
<linearGradient id="paint0_linear_2_19513" x1="210.27" y1="65.19" x2="14.75" y2="65.19" gradientUnits="userSpaceOnUse">
<stop stop-color="#8F8587"/>
<stop offset="0.24" stop-color="#C3BEBF"/>
<stop offset="0.45" stop-color="#EBEAEA"/>
<stop offset="0.56" stop-color="#FBFBFB"/>
</linearGradient>
<linearGradient id="paint1_linear_2_19513" x1="14.55" y1="250.51" x2="210.18" y2="250.51" gradientUnits="userSpaceOnUse">
<stop stop-color="#8F8587"/>
<stop offset="0.25" stop-color="#C3BEBF"/>
<stop offset="0.46" stop-color="#EBEAEA"/>
<stop offset="0.57" stop-color="#FBFBFB"/>
</linearGradient>
</defs>
</svg>
