<svg width="225" height="318" viewBox="0 0 225 318" fill="none" xmlns="http://www.w3.org/2000/svg">
<path d="M216.71 317.16H8.02C3.59 317.16 0 313.54 0 309.08V8.32001C0 3.86001 3.59 0.23999 8.02 0.23999H216.71C221.14 0.23999 224.73 3.86001 224.73 8.32001V309.08C224.73 313.54 221.14 317.16 216.71 317.16Z" fill="white"/>
<path d="M210.25 117.23C210.25 82.7 210.26 48.16 210.27 13.63C145.13 13.63 79.98 13.63 14.84 13.64C14.81 47.61 14.78 81.58 14.75 115.55C18.17 100.3 25.07 77.81 38.23 65.8C48.3 56.62 53.33 52.02 57.27 50.18C59.1 49.32 64.95 46.79 69.79 40.88C70.69 39.79 71.34 38.83 71.75 38.19C72.17 38.75 73.79 40.82 76.02 40.86C78.92 40.91 82.16 37.51 82.32 32.39C82.66 33.15 85.51 39.21 91.99 40.58C95.11 41.24 97.73 40.54 99.08 40.06C99.96 39.33 101.13 38.2 102.2 36.58C103.25 34.99 103.82 33.5 104.15 32.42H120.88C120.98 33.04 121.79 37.61 125.95 39.89C130.02 42.12 134.15 40.42 135.42 39.91C139.81 38.14 141.67 34.49 142.08 33.63C143.07 38.35 146.37 41.27 149.27 41.04C149.74 41 151.25 40.8 152.82 39.04L157.83 43.21C159.79 44.37 162.54 46.08 165.71 48.3C169.43 50.9 181.77 59.66 191.46 72.25C204.33 88.97 208.64 107.38 210.24 117.21L210.25 117.23Z" fill="url(#paint0_linear_2_19595)"/>
<path d="M210.76 304.03H14.13C14.13 243.59 14.13 183.15 14.13 122.71C14.13 86.19 14.13 49.68 14.13 13.16H210.76C210.76 49.62 210.76 86.08 210.76 122.54C210.76 183.04 210.76 243.53 210.76 304.03Z" stroke="#0E0E0E" stroke-linecap="round" stroke-linejoin="round"/>
<path d="M112.34 43.07C112.27 42.24 111.93 39.33 109.52 36.86C107.36 34.64 104.82 34.11 103.95 33.96C104.02 33.09 104.09 32.22 104.16 31.35C105.3 30.82 107.59 29.56 109.49 27.01C111.42 24.42 111.97 21.84 112.15 20.59C112.6 22.15 113.59 24.82 115.85 27.42C117.59 29.42 119.44 30.64 120.72 31.35C120.79 32.22 120.86 33.09 120.93 33.96C120.31 34.02 116.32 34.48 113.92 37.97C112.51 40.03 112.34 42.13 112.32 43.07H112.34Z" fill="white"/>
<path d="M70.73 29.14C71.84 28.82 73.67 28.47 75.74 28.97C77.55 29.4 78.77 30.28 79.46 30.8C85.54 35.36 86.44 38.9 90.62 40.5C91.16 40.71 95.07 42 99.01 40.16C101.79 38.86 103.77 35.9 104.08 32.69C104.52 28.09 101.32 23.54 97.61 22.71C97.18 22.61 94.84 22.09 92.93 23.52C92.69 23.7 91.21 24.84 91 26.85C90.97 27.15 90.73 29.74 92.71 31C93.82 31.7 95.23 31.74 96.35 31.22C97.94 30.49 98.9 28.66 98.65 26.7C99.04 27.13 99.58 27.8 100.01 28.72C100.22 29.16 101.58 32.17 100.28 35.06C98.7 38.58 94.39 39.2 93.81 39.28C89.96 39.83 85.96 37.81 83.34 34.18" stroke="#0E0E0E" stroke-linecap="round" stroke-linejoin="round"/>
<path d="M104.16 31.23C104.92 30.86 106.11 30.19 107.32 29.09C111.19 25.56 111.9 20.66 112.22 18.48C112.4 17.25 112.56 15.42 112.35 13.15" stroke="#0E0E0E" stroke-linecap="round" stroke-linejoin="round"/>
<path d="M103.95 33.84C104.9 34.01 105.93 34.31 106.95 34.83C111.56 37.18 112.24 42.1 112.34 42.95" stroke="#0E0E0E" stroke-linecap="round" stroke-linejoin="round"/>
<path d="M154.17 29.14C153.06 28.82 151.23 28.47 149.16 28.97C147.35 29.4 146.13 30.28 145.44 30.8C139.36 35.36 138.46 38.9 134.28 40.5C133.74 40.71 129.83 42 125.89 40.16C123.11 38.86 121.13 35.9 120.82 32.69C120.38 28.09 123.58 23.54 127.29 22.71C127.72 22.61 130.06 22.09 131.97 23.52C132.21 23.7 133.69 24.84 133.9 26.85C133.93 27.15 134.17 29.74 132.19 31C131.08 31.7 129.67 31.74 128.55 31.22C126.96 30.49 126 28.66 126.25 26.7C125.86 27.13 125.32 27.8 124.89 28.72C124.68 29.16 123.32 32.17 124.62 35.06C126.2 38.58 130.51 39.2 131.09 39.28C134.94 39.83 138.94 37.81 141.56 34.18" stroke="#0E0E0E" stroke-linecap="round" stroke-linejoin="round"/>
<path d="M120.94 33.84C119.99 34.01 118.96 34.31 117.94 34.83C113.33 37.18 112.65 42.1 112.55 42.95" stroke="#0E0E0E" stroke-linecap="round" stroke-linejoin="round"/>
<path d="M153.22 38.28C153.07 38.62 152.28 40.37 150.43 40.95C148.47 41.57 146.75 40.43 146.03 39.95C143 37.94 142.7 34.11 142.67 33.49" stroke="#0E0E0E" stroke-linecap="round" stroke-linejoin="round"/>
<path d="M163.86 47.5C163 47.01 161.79 46.27 160.43 45.28C156.5 42.42 153.43 40.19 152.63 36.55C151.9 33.24 153.39 30.45 153.65 29.98C156.1 25.56 161.23 24.83 162.29 24.71C167.06 24.17 171.9 26.69 174.93 31.09" stroke="#0E0E0E" stroke-linecap="round" stroke-linejoin="round"/>
<path d="M174.26 54.37C174.31 44.08 171.79 36 167.8 33.77C165.75 32.63 163.67 32.6 163.67 32.6C162.98 32.6 159.49 32.65 157.28 35.53C155.31 38.1 155.8 41.04 155.89 41.54" stroke="#0E0E0E" stroke-linecap="round" stroke-linejoin="round"/>
<path d="M202.44 49.17C202.96 48.91 204.62 48.14 206.41 48.6C209.6 49.41 209.96 53.26 209.98 53.54C210.17 55.99 208.67 58.84 205.81 59.86C203.61 60.64 201.49 60.02 200.36 59.69C196.7 58.62 194.69 56.13 193.69 54.87C190.49 50.79 192.05 48.81 188.77 45.91C187.88 45.12 186.08 43.52 183.32 43.1C180.45 42.65 179.27 43.89 176.65 43.16C174.08 42.44 172.75 40.55 172.41 40.02C172.25 39.78 170.38 36.77 172.14 33.74C172.5 33.11 173.57 31.28 175.98 30.75C178.17 30.28 180.58 31.08 181.9 32.65C183.03 33.99 183.36 35.88 182.48 37.38C182.29 37.71 181.69 38.73 180.33 39.14C179.19 39.48 177.74 39.33 176.74 38.53C175.86 37.82 175.7 36.91 175.67 36.64" stroke="#0E0E0E" stroke-linecap="round" stroke-linejoin="round"/>
<path d="M190.82 48.7C190.4 44.14 188.07 40.39 184.66 39.17C183.88 38.89 182.66 38.61 181.04 38.81" stroke="#0E0E0E" stroke-linecap="round" stroke-linejoin="round"/>
<path d="M194.29 55.77C193.67 55.61 191.09 55.01 188.89 56.45C186.24 58.19 185.18 62.22 186.81 66.04" stroke="#0E0E0E" stroke-linecap="round" stroke-linejoin="round"/>
<path d="M196.1 69.52C195.69 69.5 194.84 69.51 193.94 69.98C192.48 70.75 192 72.16 191.91 72.48" stroke="#0E0E0E" stroke-linecap="round" stroke-linejoin="round"/>
<path d="M210.75 121.27C210.73 121.13 210.71 120.88 210.67 120.59C209.89 113.74 205.48 81.76 179.18 58.43C175.91 55.53 170.84 51.46 163.86 47.5" stroke="#0E0E0E" stroke-linecap="round" stroke-linejoin="round"/>
<path d="M112.34 43.07C112.27 42.24 111.93 39.33 109.52 36.86C107.36 34.64 104.82 34.11 103.95 33.96C104.02 33.09 104.09 32.22 104.16 31.35C105.3 30.82 107.59 29.56 109.49 27.01C111.42 24.42 111.97 21.84 112.15 20.59C112.6 22.15 113.59 24.82 115.85 27.42C117.59 29.42 119.44 30.64 120.72 31.35C120.79 32.22 120.86 33.09 120.93 33.96C120.31 34.02 116.32 34.48 113.92 37.97C112.51 40.03 112.34 42.13 112.32 43.07H112.34Z" fill="black" stroke="black" stroke-width="0.75" stroke-linecap="round" stroke-linejoin="round"/>
<path d="M154.17 29.14C153.06 28.82 151.23 28.47 149.16 28.97C147.35 29.4 146.13 30.28 145.44 30.8C139.36 35.36 138.46 38.9 134.28 40.5C133.74 40.71 129.83 42 125.89 40.16C123.11 38.86 121.13 35.9 120.82 32.69C120.38 28.09 123.58 23.54 127.29 22.71C127.72 22.61 130.06 22.09 131.97 23.52C132.21 23.7 133.69 24.84 133.9 26.85C133.93 27.15 134.17 29.74 132.19 31C131.08 31.7 129.67 31.74 128.55 31.22C126.96 30.49 126 28.66 126.25 26.7C125.86 27.13 125.32 27.8 124.89 28.72C124.68 29.16 123.32 32.17 124.62 35.06C126.2 38.58 130.51 39.2 131.09 39.28C134.94 39.83 138.94 37.81 141.56 34.18" stroke="#0E0E0E" stroke-linecap="round" stroke-linejoin="round"/>
<path d="M120.73 31.23C119.26 30.5 118.23 29.69 117.57 29.09C113.11 25.03 112.68 19 112.52 16.78C112.41 15.26 112.47 14 112.54 13.15" stroke="#0E0E0E" stroke-linecap="round" stroke-linejoin="round"/>
<path d="M120.94 33.84C119.99 34.01 118.96 34.31 117.94 34.83C113.33 37.18 112.65 42.1 112.55 42.95" stroke="#0E0E0E" stroke-linecap="round" stroke-linejoin="round"/>
<path d="M153.22 38.28C153.07 38.62 152.28 40.37 150.43 40.95C148.47 41.57 146.75 40.43 146.03 39.95C143 37.94 142.7 34.11 142.67 33.49" stroke="#0E0E0E" stroke-linecap="round" stroke-linejoin="round"/>
<path d="M163.86 47.5C163 47.01 161.79 46.27 160.43 45.28C156.5 42.42 153.43 40.19 152.63 36.55C151.9 33.24 153.39 30.45 153.65 29.98C156.1 25.56 161.23 24.83 162.29 24.71C167.06 24.17 171.9 26.69 174.93 31.09" stroke="#0E0E0E" stroke-linecap="round" stroke-linejoin="round"/>
<path d="M174.26 54.37C174.31 44.08 171.79 36 167.8 33.77C165.75 32.63 163.67 32.6 163.67 32.6C162.98 32.6 159.49 32.65 157.28 35.53C155.31 38.1 155.8 41.04 155.89 41.54" stroke="#0E0E0E" stroke-linecap="round" stroke-linejoin="round"/>
<path d="M202.44 49.17C202.96 48.91 204.62 48.14 206.41 48.6C209.6 49.41 209.96 53.26 209.98 53.54C210.17 55.99 208.67 58.84 205.81 59.86C203.61 60.64 201.49 60.02 200.36 59.69C196.7 58.62 194.69 56.13 193.69 54.87C190.49 50.79 192.05 48.81 188.77 45.91C187.88 45.12 186.08 43.52 183.32 43.1C180.45 42.65 179.27 43.89 176.65 43.16C174.08 42.44 172.75 40.55 172.41 40.02C172.25 39.78 170.38 36.77 172.14 33.74C172.5 33.11 173.57 31.28 175.98 30.75C178.17 30.28 180.58 31.08 181.9 32.65C183.03 33.99 183.36 35.88 182.48 37.38C182.29 37.71 181.69 38.73 180.33 39.14C179.19 39.48 177.74 39.33 176.74 38.53C175.86 37.82 175.7 36.91 175.67 36.64" stroke="#0E0E0E" stroke-linecap="round" stroke-linejoin="round"/>
<path d="M190.82 48.7C190.4 44.14 188.07 40.39 184.66 39.17C183.88 38.89 182.66 38.61 181.04 38.81" stroke="#0E0E0E" stroke-linecap="round" stroke-linejoin="round"/>
<path d="M210.62 64.8C208.98 61.99 206.36 60.24 203.75 60.4C200.52 60.6 198.62 63.63 197.8 64.94C193.18 72.31 198.12 82.38 198.88 83.89" stroke="#0E0E0E" stroke-linecap="round" stroke-linejoin="round"/>
<path d="M210.7 120.36C208.82 107.49 202.71 79.34 179.18 58.43C174.06 53.88 168.83 50.31 163.86 47.5" stroke="#0E0E0E" stroke-linecap="round" stroke-linejoin="round"/>
<path d="M14.55 197.96C14.58 233.15 14.6 268.34 14.63 303.52C79.7801 303.51 144.93 303.49 210.08 303.48C210.11 269.51 210.14 235.54 210.17 201.57C203.7 216.62 193.78 234.96 178.39 253.28C172.45 260.34 166.47 266.5 160.7 271.84C159.1 273.96 157.5 276.07 155.91 278.19C155 278.44 154.09 278.68 153.18 278.93C152.76 278.37 151.14 276.3 148.91 276.26C146.01 276.21 142.77 279.61 142.61 284.73C142.27 283.97 139.42 277.91 132.94 276.54C129.82 275.88 127.2 276.58 125.85 277.06C124.97 277.79 123.8 278.92 122.73 280.54C121.68 282.13 121.11 283.62 120.78 284.7H104.05C103.95 284.08 103.14 279.51 98.98 277.23C94.91 275 90.78 276.7 89.51 277.21C85.12 278.98 83.26 282.63 82.85 283.49C81.86 278.77 78.5601 275.85 75.6601 276.08C75.1901 276.12 73.68 276.32 72.1101 278.08C70.4401 276.69 68.77 275.3 67.1 273.91C59.34 270.07 44.89 261.62 32.76 245.24C18.58 226.08 15.44 206.69 14.57 197.97L14.55 197.96Z" fill="url(#paint1_linear_2_19595)"/>
<path d="M112.4 274.34C112.47 275.17 112.81 278.08 115.22 280.55C117.38 282.77 119.92 283.3 120.79 283.45C120.72 284.32 120.65 285.19 120.58 286.06C119.44 286.59 117.15 287.85 115.25 290.4C113.32 292.99 112.77 295.57 112.59 296.82C112.14 295.26 111.15 292.59 108.89 289.99C107.15 287.99 105.3 286.77 104.02 286.06C103.95 285.19 103.88 284.32 103.81 283.45C104.43 283.39 108.42 282.93 110.82 279.44C112.23 277.38 112.4 275.28 112.42 274.34H112.4Z" fill="white"/>
<path d="M154.01 288.26C152.9 288.58 151.07 288.93 149 288.43C147.19 288 145.97 287.12 145.28 286.6C139.2 282.04 138.3 278.5 134.12 276.9C133.58 276.69 129.67 275.4 125.73 277.24C122.95 278.54 120.97 281.5 120.66 284.71C120.22 289.31 123.42 293.86 127.13 294.69C127.56 294.79 129.9 295.31 131.81 293.88C132.05 293.7 133.53 292.56 133.74 290.55C133.77 290.25 134.01 287.66 132.03 286.4C130.92 285.7 129.51 285.66 128.39 286.18C126.8 286.91 125.84 288.74 126.09 290.7C125.7 290.27 125.16 289.6 124.73 288.68C124.52 288.24 123.16 285.23 124.46 282.34C126.04 278.82 130.35 278.2 130.93 278.12C134.78 277.57 138.78 279.59 141.4 283.22" stroke="#0E0E0E" stroke-linecap="round" stroke-linejoin="round"/>
<path d="M120.58 286.17C119.17 286.87 118.14 287.66 117.42 288.31C113.27 292.08 112.66 297.57 112.37 300.14C112.18 301.81 112.2 303.19 112.24 304.04" stroke="#0E0E0E" stroke-linecap="round" stroke-linejoin="round"/>
<path d="M120.79 283.57C119.84 283.4 118.81 283.1 117.79 282.58C113.18 280.23 112.5 275.31 112.4 274.46" stroke="#0E0E0E" stroke-linecap="round" stroke-linejoin="round"/>
<path d="M70.5701 288.26C71.6801 288.58 73.5101 288.93 75.5801 288.43C77.3901 288 78.6101 287.12 79.3001 286.6C85.3801 282.04 86.2801 278.5 90.4601 276.9C91.0001 276.69 94.9101 275.4 98.8501 277.24C101.63 278.54 103.61 281.5 103.92 284.71C104.36 289.31 101.16 293.86 97.4501 294.69C97.0201 294.79 94.6801 295.31 92.7701 293.88C92.5301 293.7 91.0501 292.56 90.8401 290.55C90.8101 290.25 90.5701 287.66 92.5501 286.4C93.6601 285.7 95.0701 285.66 96.1901 286.18C97.7801 286.91 98.7401 288.74 98.4901 290.7C98.8801 290.27 99.4201 289.6 99.8501 288.68C100.06 288.24 101.42 285.23 100.12 282.34C98.5401 278.82 94.2301 278.2 93.6501 278.12C89.8001 277.57 85.8001 279.59 83.1801 283.22" stroke="#0E0E0E" stroke-linecap="round" stroke-linejoin="round"/>
<path d="M103.79 283.57C104.7 283.43 105.74 283.14 106.79 282.58C111.07 280.32 112.18 275.49 112.39 274.46" stroke="#0E0E0E" stroke-linecap="round" stroke-linejoin="round"/>
<path d="M71.52 279.12C71.67 278.78 72.46 277.03 74.31 276.45C76.27 275.83 77.99 276.97 78.71 277.45C81.74 279.46 82.04 283.29 82.07 283.91" stroke="#0E0E0E" stroke-linecap="round" stroke-linejoin="round"/>
<path d="M60.8801 269.9C61.7401 270.39 62.9501 271.13 64.3101 272.12C68.2401 274.98 71.3101 277.21 72.1101 280.85C72.8401 284.16 71.3501 286.95 71.0901 287.42C68.6401 291.84 63.5101 292.57 62.4501 292.69C57.6801 293.23 52.8401 290.71 49.8101 286.31" stroke="#0E0E0E" stroke-linecap="round" stroke-linejoin="round"/>
<path d="M50.48 263.04C50.43 273.33 52.95 281.41 56.94 283.64C58.99 284.78 61.07 284.81 61.07 284.81C61.76 284.81 65.25 284.76 67.46 281.88C69.43 279.31 68.94 276.37 68.85 275.87" stroke="#0E0E0E" stroke-linecap="round" stroke-linejoin="round"/>
<path d="M22.3 268.24C21.78 268.5 20.12 269.27 18.33 268.81C15.14 268 14.78 264.15 14.76 263.87C14.57 261.42 16.07 258.57 18.93 257.55C21.13 256.77 23.25 257.39 24.38 257.72C28.04 258.79 30.05 261.28 31.05 262.54C34.25 266.62 32.69 268.6 35.97 271.5C36.86 272.29 38.66 273.89 41.42 274.31C44.29 274.76 45.47 273.52 48.09 274.25C50.66 274.97 51.99 276.86 52.33 277.39C52.49 277.63 54.36 280.64 52.6 283.67C52.24 284.3 51.17 286.13 48.76 286.66C46.57 287.13 44.16 286.33 42.84 284.76C41.71 283.42 41.38 281.53 42.26 280.03C42.45 279.7 43.05 278.68 44.41 278.27C45.55 277.93 47 278.08 48 278.88C48.88 279.59 49.04 280.5 49.07 280.77" stroke="#0E0E0E" stroke-linecap="round" stroke-linejoin="round"/>
<path d="M33.91 268.7C34.33 273.26 36.66 277.01 40.07 278.23C40.85 278.51 42.07 278.79 43.69 278.59" stroke="#0E0E0E" stroke-linecap="round" stroke-linejoin="round"/>
<path d="M30.4501 261.63C31.0901 261.79 33.6501 262.37 35.8501 260.95C38.5201 259.21 39.6101 255.18 38.0001 251.34" stroke="#0E0E0E" stroke-linecap="round" stroke-linejoin="round"/>
<path d="M28.64 247.88C29.05 247.9 29.9 247.89 30.8 247.42C32.3 246.63 32.76 245.16 32.85 244.86" stroke="#0E0E0E" stroke-linecap="round" stroke-linejoin="round"/>
<path d="M14.16 195.1C15.76 207.98 21.38 237.42 45.56 258.97C50.67 263.52 55.89 267.09 60.88 269.9" stroke="#0E0E0E" stroke-linecap="round" stroke-linejoin="round"/>
<path d="M112.4 274.34C112.47 275.17 112.81 278.08 115.22 280.55C117.38 282.77 119.92 283.3 120.79 283.45C120.72 284.32 120.65 285.19 120.58 286.06C119.96 286.34 119.11 286.78 118.2 287.47C116.15 289.04 115.17 290.88 114.31 292.54C113.56 294 112.59 296.26 112.09 299.24C112.08 297.81 111.86 293.7 108.88 289.98C107.19 287.86 105.25 286.67 104.01 286.05C103.94 285.18 103.87 284.31 103.8 283.44C104.42 283.38 108.41 282.92 110.81 279.43C112.22 277.37 112.39 275.27 112.41 274.33L112.4 274.34Z" fill="black" stroke="black" stroke-width="0.75" stroke-linecap="round" stroke-linejoin="round"/>
<path d="M70.5701 288.26C71.6801 288.58 73.5101 288.93 75.5801 288.43C77.3901 288 78.6101 287.12 79.3001 286.6C85.3801 282.04 86.2801 278.5 90.4601 276.9C91.0001 276.69 94.9101 275.4 98.8501 277.24C101.63 278.54 103.61 281.5 103.92 284.71C104.36 289.31 101.16 293.86 97.4501 294.69C97.0201 294.79 94.6801 295.31 92.7701 293.88C92.5301 293.7 91.0501 292.56 90.8401 290.55C90.8101 290.25 90.5701 287.66 92.5501 286.4C93.6601 285.7 95.0701 285.66 96.1901 286.18C97.7801 286.91 98.7401 288.74 98.4901 290.7C98.8801 290.27 99.4201 289.6 99.8501 288.68C100.06 288.24 101.42 285.23 100.12 282.34C98.5401 278.82 94.2301 278.2 93.6501 278.12C89.8001 277.57 85.8001 279.59 83.1801 283.22" stroke="#0E0E0E" stroke-linecap="round" stroke-linejoin="round"/>
<path d="M104 286.17C104.83 286.57 105.99 287.24 107.16 288.31C109.63 290.59 110.52 293.23 111.21 295.39C112.28 298.73 112.39 301.77 112.24 304.04" stroke="#0E0E0E" stroke-linecap="round" stroke-linejoin="round"/>
<path d="M103.79 283.57C104.7 283.43 105.74 283.14 106.79 282.58C111.11 280.29 112.19 275.35 112.39 274.34" stroke="#0E0E0E" stroke-linecap="round" stroke-linejoin="round"/>
<path d="M71.52 279.12C71.67 278.78 72.46 277.03 74.31 276.45C76.27 275.83 77.99 276.97 78.71 277.45C81.74 279.46 82.04 283.29 82.07 283.91" stroke="#0E0E0E" stroke-linecap="round" stroke-linejoin="round"/>
<path d="M60.8801 269.9C61.7401 270.39 62.9501 271.13 64.3101 272.12C68.2401 274.98 71.3101 277.21 72.1101 280.85C72.8401 284.16 71.3501 286.95 71.0901 287.42C68.6401 291.84 63.5101 292.57 62.4501 292.69C57.6801 293.23 52.8401 290.71 49.8101 286.31" stroke="#0E0E0E" stroke-linecap="round" stroke-linejoin="round"/>
<path d="M50.48 263.04C50.43 273.33 52.95 281.41 56.94 283.64C58.99 284.78 61.07 284.81 61.07 284.81C61.76 284.81 65.25 284.76 67.46 281.88C69.43 279.31 68.94 276.37 68.85 275.87" stroke="#0E0E0E" stroke-linecap="round" stroke-linejoin="round"/>
<path d="M22.3 268.24C21.78 268.5 20.12 269.27 18.33 268.81C15.14 268 14.78 264.15 14.76 263.87C14.57 261.42 16.07 258.57 18.93 257.55C21.13 256.77 23.25 257.39 24.38 257.72C28.04 258.79 30.05 261.28 31.05 262.54C34.25 266.62 32.69 268.6 35.97 271.5C36.86 272.29 38.66 273.89 41.42 274.31C44.29 274.76 45.47 273.52 48.09 274.25C50.66 274.97 51.99 276.86 52.33 277.39C52.49 277.63 54.36 280.64 52.6 283.67C52.24 284.3 51.17 286.13 48.76 286.66C46.57 287.13 44.16 286.33 42.84 284.76C41.71 283.42 41.38 281.53 42.26 280.03C42.45 279.7 43.05 278.68 44.41 278.27C45.55 277.93 47 278.08 48 278.88C48.88 279.59 49.04 280.5 49.07 280.77" stroke="#0E0E0E" stroke-linecap="round" stroke-linejoin="round"/>
<path d="M33.91 268.7C34.33 273.26 36.66 277.01 40.07 278.23C40.85 278.51 42.07 278.79 43.69 278.59" stroke="#0E0E0E" stroke-linecap="round" stroke-linejoin="round"/>
<path d="M14.2201 252.79C14.3401 252.99 17.0001 257.25 20.9801 257C24.2001 256.8 26.1001 253.78 26.9301 252.46C31.5401 245.1 26.6101 235.02 25.8501 233.51" stroke="#0E0E0E" stroke-linecap="round" stroke-linejoin="round"/>
<path d="M30.4501 261.63C31.0901 261.79 33.6501 262.37 35.8501 260.95C38.5201 259.21 39.6101 255.18 38.0001 251.34" stroke="#0E0E0E" stroke-linecap="round" stroke-linejoin="round"/>
<path d="M28.64 247.88C29.05 247.9 29.9 247.89 30.8 247.42C32.3 246.63 32.76 245.16 32.85 244.86" stroke="#0E0E0E" stroke-linecap="round" stroke-linejoin="round"/>
<path d="M14.16 195.1C15.76 207.98 21.38 237.42 45.56 258.97C50.67 263.52 55.89 267.09 60.88 269.9" stroke="#0E0E0E" stroke-linecap="round" stroke-linejoin="round"/>
<path d="M52.12 48.33C52.41 49.14 52.56 49.95 52.56 50.78C52.56 51.55 52.43 52.3 52.16 53.04C51.59 54.59 50.26 56.08 48.16 57.52C45.5 59.28 42.62 60.16 39.54 60.16C38.49 60.16 37.48 60.06 36.49 59.85C34.54 59.45 32.72 58.67 31.03 57.53C29.4 56.41 28.21 55.18 27.45 53.83C26.89 52.81 26.61 51.77 26.61 50.69C26.61 50.02 26.71 49.34 26.92 48.66C27.31 47.49 27.91 46.5 28.73 45.7C29.55 44.9 30.38 44.23 31.23 43.7C31.73 43.38 32.25 43.09 32.78 42.82C32.81 42.82 32.86 42.79 32.93 42.74C32.97 42.71 33 42.7 33.01 42.7C32.08 42.25 31.23 41.68 30.48 40.98C29.73 40.28 29.2 39.38 28.91 38.26C28.8 37.8 28.74 37.34 28.74 36.88C28.74 35.79 29.03 34.76 29.62 33.78C30.12 32.97 30.78 32.29 31.61 31.75C32.64 31.12 33.58 30.67 34.43 30.39C35.99 29.82 37.65 29.53 39.41 29.53C39.77 29.53 40.13 29.53 40.48 29.55C42.47 29.7 44.38 30.2 46.21 31.04C49.24 32.49 50.75 34.48 50.75 37.02C50.75 37.87 50.56 38.69 50.18 39.49C50.1 39.7 49.98 39.9 49.85 40.1C49.84 40.14 49.81 40.18 49.77 40.22C49.34 40.85 48.82 41.37 48.22 41.78C47.62 42.19 47.01 42.54 46.4 42.82C46.4 42.83 46.4 42.84 46.42 42.84C47.17 43.2 47.98 43.7 48.85 44.34C49.72 44.97 50.49 45.74 51.17 46.63C51.57 47.16 51.89 47.73 52.11 48.34L52.12 48.33ZM47.45 48.96C46.36 47.82 45.14 46.87 43.79 46.12C41.25 44.74 38.78 44.05 36.36 44.05C34.21 44.05 32.37 44.61 30.84 45.72C29.88 46.46 29.4 47.33 29.4 48.33C29.4 49 29.62 49.69 30.07 50.4C30.88 51.67 32.18 52.96 33.98 54.27C35.54 55.41 37.19 56.24 38.92 56.76C40.22 57.14 41.49 57.32 42.75 57.32C43.8 57.32 44.79 57.19 45.72 56.92C47.25 56.46 48.43 55.76 49.23 54.81C49.69 54.24 49.92 53.63 49.92 52.99C49.92 52.88 49.92 52.76 49.9 52.63C49.78 51.96 49.46 51.31 48.97 50.66C48.48 50.01 47.97 49.45 47.45 48.94V48.96ZM48.04 40.02C48.21 39.74 48.29 39.46 48.29 39.18C48.29 38.83 48.2 38.5 48.03 38.18C47.86 37.86 47.66 37.58 47.44 37.33C47.22 37.09 47.05 36.9 46.91 36.78C46.74 36.61 46.58 36.46 46.41 36.32C45.59 35.62 44.61 34.96 43.48 34.32C42.35 33.69 41.14 33.16 39.86 32.75C38.58 32.34 37.31 32.13 36.05 32.13C34.46 32.13 33.11 32.51 31.99 33.28C31.59 33.56 31.34 33.94 31.26 34.41C31.25 34.51 31.24 34.61 31.24 34.72C31.24 35.24 31.41 35.73 31.76 36.21C32.82 37.6 34.46 38.84 36.68 39.91C38.76 40.9 40.91 41.4 43.14 41.4C43.71 41.4 44.28 41.37 44.86 41.3C45.5 41.23 46.12 41.1 46.71 40.92C47.3 40.74 47.75 40.44 48.04 40.02Z" fill="black"/>
<path d="M172.51 269.2C172.22 268.39 172.07 267.58 172.07 266.75C172.07 265.98 172.2 265.23 172.47 264.49C173.04 262.94 174.37 261.45 176.47 260.01C179.13 258.25 182.01 257.37 185.09 257.37C186.14 257.37 187.15 257.47 188.14 257.68C190.09 258.08 191.91 258.86 193.6 260C195.23 261.12 196.42 262.35 197.18 263.7C197.74 264.72 198.02 265.76 198.02 266.84C198.02 267.51 197.92 268.19 197.71 268.87C197.32 270.04 196.72 271.03 195.9 271.83C195.08 272.63 194.25 273.3 193.4 273.83C192.9 274.15 192.38 274.44 191.85 274.71C191.82 274.71 191.77 274.74 191.7 274.79C191.66 274.82 191.63 274.83 191.62 274.83C192.55 275.28 193.4 275.85 194.15 276.55C194.9 277.25 195.43 278.15 195.72 279.27C195.83 279.73 195.89 280.19 195.89 280.65C195.89 281.74 195.6 282.77 195.01 283.75C194.51 284.56 193.85 285.24 193.02 285.78C191.99 286.41 191.05 286.86 190.2 287.14C188.64 287.71 186.98 288 185.22 288C184.86 288 184.5 288 184.15 287.98C182.16 287.83 180.25 287.33 178.42 286.49C175.39 285.04 173.88 283.05 173.88 280.51C173.88 279.66 174.07 278.84 174.45 278.04C174.53 277.83 174.65 277.63 174.78 277.43C174.79 277.39 174.82 277.35 174.86 277.31C175.29 276.68 175.81 276.16 176.41 275.75C177.01 275.34 177.62 274.99 178.23 274.71C178.23 274.7 178.23 274.69 178.21 274.69C177.46 274.33 176.65 273.83 175.78 273.19C174.91 272.56 174.14 271.79 173.46 270.9C173.06 270.37 172.74 269.8 172.52 269.19L172.51 269.2ZM177.18 268.58C178.27 269.72 179.49 270.67 180.84 271.42C183.38 272.8 185.85 273.49 188.27 273.49C190.42 273.49 192.26 272.93 193.79 271.82C194.75 271.08 195.23 270.21 195.23 269.21C195.23 268.54 195.01 267.85 194.56 267.14C193.75 265.87 192.45 264.58 190.65 263.27C189.09 262.13 187.44 261.3 185.71 260.78C184.41 260.4 183.14 260.22 181.88 260.22C180.83 260.22 179.84 260.35 178.91 260.62C177.38 261.08 176.2 261.78 175.4 262.73C174.94 263.3 174.71 263.91 174.71 264.55C174.71 264.66 174.71 264.78 174.73 264.91C174.85 265.58 175.17 266.23 175.66 266.88C176.15 267.53 176.66 268.09 177.18 268.6V268.58ZM176.59 277.51C176.42 277.79 176.34 278.07 176.34 278.35C176.34 278.7 176.43 279.03 176.6 279.35C176.77 279.67 176.97 279.95 177.19 280.2C177.41 280.44 177.58 280.63 177.72 280.75C177.89 280.92 178.05 281.07 178.22 281.21C179.04 281.91 180.02 282.57 181.15 283.21C182.28 283.84 183.49 284.37 184.77 284.78C186.05 285.19 187.32 285.4 188.58 285.4C190.17 285.4 191.52 285.02 192.64 284.25C193.04 283.97 193.29 283.59 193.37 283.12C193.38 283.02 193.39 282.92 193.39 282.81C193.39 282.29 193.22 281.8 192.87 281.32C191.81 279.93 190.17 278.69 187.95 277.62C185.87 276.63 183.72 276.13 181.49 276.13C180.92 276.13 180.35 276.16 179.77 276.23C179.13 276.3 178.51 276.43 177.92 276.61C177.33 276.79 176.88 277.09 176.59 277.51Z" fill="black"/>
<path d="M74.65 36.48C71.6 36.41 70.89 38.74 70.73 39.86C70.57 38.74 69.86 36.41 66.81 36.48C62.79 36.58 62.26 41.08 63.67 43.35C65.07 45.62 65.8 46.35 67.2 47.8C68.52 49.17 70.1 50.71 70.68 51.65C70.68 51.65 70.71 51.76 70.73 51.73C70.75 51.76 70.78 51.65 70.78 51.65C71.36 50.71 72.94 49.17 74.26 47.8C75.66 46.35 76.39 45.62 77.79 43.35C79.19 41.08 78.66 36.58 74.65 36.48Z" fill="#EB1C24" stroke="black" stroke-width="0.75" stroke-linecap="round" stroke-linejoin="round"/>
<path d="M149.99 281.05C153.04 281.12 153.75 278.79 153.91 277.67C154.07 278.79 154.78 281.12 157.83 281.05C161.85 280.95 162.38 276.45 160.97 274.18C159.57 271.91 158.84 271.18 157.44 269.73C156.12 268.36 154.54 266.82 153.96 265.88C153.96 265.88 153.93 265.77 153.91 265.8C153.89 265.77 153.86 265.88 153.86 265.88C153.28 266.82 151.7 268.36 150.38 269.73C148.98 271.18 148.25 271.91 146.85 274.18C145.45 276.45 145.98 280.95 149.99 281.05Z" fill="#EB1C24" stroke="black" stroke-width="0.75" stroke-linecap="round" stroke-linejoin="round"/>
<path d="M91.37 68.17C85.98 68.04 84.7399 72.15 84.4599 74.13C84.1699 72.15 82.93 68.04 77.55 68.17C70.47 68.34 69.5299 76.28 71.9999 80.29C74.4699 84.3 75.75 85.58 78.23 88.14C80.56 90.55 83.35 93.26 84.37 94.93C84.37 94.93 84.4199 95.12 84.4599 95.07C84.4899 95.12 84.55 94.93 84.55 94.93C85.58 93.27 88.36 90.55 90.69 88.14C93.16 85.58 94.4399 84.3 96.9199 80.29C99.3899 76.28 98.46 68.34 91.37 68.17Z" fill="#EB1C24" stroke="black" stroke-width="0.75" stroke-linecap="round" stroke-linejoin="round"/>
<path d="M91.37 145.52C85.98 145.39 84.7399 149.5 84.4599 151.48C84.1699 149.5 82.93 145.39 77.55 145.52C70.47 145.69 69.5299 153.63 71.9999 157.64C74.4699 161.65 75.75 162.93 78.23 165.49C80.56 167.9 83.35 170.61 84.37 172.28C84.37 172.28 84.4199 172.47 84.4599 172.42C84.4899 172.47 84.55 172.28 84.55 172.28C85.58 170.62 88.36 167.9 90.69 165.49C93.16 162.93 94.4399 161.65 96.9199 157.64C99.3899 153.63 98.46 145.69 91.37 145.52Z" fill="#EB1C24" stroke="black" stroke-width="0.75" stroke-linecap="round" stroke-linejoin="round"/>
<path d="M147.26 68.17C141.87 68.04 140.63 72.15 140.35 74.13C140.06 72.15 138.82 68.04 133.44 68.17C126.36 68.34 125.42 76.28 127.89 80.29C130.36 84.3 131.64 85.58 134.12 88.14C136.45 90.55 139.24 93.26 140.26 94.93C140.26 94.93 140.31 95.12 140.35 95.07C140.38 95.12 140.44 94.93 140.44 94.93C141.47 93.27 144.25 90.55 146.58 88.14C149.05 85.58 150.33 84.3 152.81 80.29C155.28 76.28 154.35 68.34 147.26 68.17Z" fill="#EB1C24" stroke="black" stroke-width="0.75" stroke-linecap="round" stroke-linejoin="round"/>
<path d="M147.26 145.52C141.87 145.39 140.63 149.5 140.35 151.48C140.06 149.5 138.82 145.39 133.44 145.52C126.36 145.69 125.42 153.63 127.89 157.64C130.36 161.65 131.64 162.93 134.12 165.49C136.45 167.9 139.24 170.61 140.26 172.28C140.26 172.28 140.31 172.47 140.35 172.42C140.38 172.47 140.44 172.28 140.44 172.28C141.47 170.62 144.25 167.9 146.58 165.49C149.05 162.93 150.33 161.65 152.81 157.64C155.28 153.63 154.35 145.69 147.26 145.52Z" fill="#EB1C24" stroke="black" stroke-width="0.75" stroke-linecap="round" stroke-linejoin="round"/>
<path d="M91.5999 223.11C86.2099 222.98 84.9699 227.09 84.6899 229.07C84.3999 227.09 83.1599 222.98 77.7799 223.11C70.6999 223.28 69.7599 231.22 72.2299 235.23C74.6999 239.24 75.9799 240.52 78.4599 243.08C80.7899 245.49 83.5799 248.2 84.5999 249.87C84.5999 249.87 84.6499 250.06 84.6899 250.01C84.7199 250.06 84.7799 249.87 84.7799 249.87C85.8099 248.21 88.5899 245.49 90.9199 243.08C93.3899 240.52 94.6699 239.24 97.1499 235.23C99.6199 231.22 98.6899 223.28 91.5999 223.11Z" fill="#EB1C24" stroke="black" stroke-width="0.75" stroke-linecap="round" stroke-linejoin="round"/>
<path d="M147.26 223.11C141.87 222.98 140.63 227.09 140.35 229.07C140.06 227.09 138.82 222.98 133.44 223.11C126.36 223.28 125.42 231.22 127.89 235.23C130.36 239.24 131.64 240.52 134.12 243.08C136.45 245.49 139.24 248.2 140.26 249.87C140.26 249.87 140.31 250.06 140.35 250.01C140.38 250.06 140.44 249.87 140.44 249.87C141.47 248.21 144.25 245.49 146.58 243.08C149.05 240.52 150.33 239.24 152.81 235.23C155.28 231.22 154.35 223.28 147.26 223.11Z" fill="#EB1C24" stroke="black" stroke-width="0.75" stroke-linecap="round" stroke-linejoin="round"/>
<path d="M119.5 104.17C114.11 104.04 112.87 108.15 112.59 110.13C112.3 108.15 111.06 104.04 105.68 104.17C98.6 104.34 97.66 112.28 100.13 116.29C102.6 120.3 103.88 121.58 106.36 124.14C108.69 126.55 111.48 129.26 112.5 130.93C112.5 130.93 112.55 131.12 112.59 131.07C112.62 131.12 112.68 130.93 112.68 130.93C113.71 129.27 116.49 126.55 118.82 124.14C121.29 121.58 122.57 120.3 125.05 116.29C127.52 112.28 126.59 104.34 119.5 104.17Z" fill="#EB1C24" stroke="black" stroke-width="0.75" stroke-linecap="round" stroke-linejoin="round"/>
<path d="M119.31 184.51C113.92 184.38 112.68 188.49 112.4 190.47C112.11 188.49 110.87 184.38 105.49 184.51C98.4099 184.68 97.4699 192.62 99.9399 196.63C102.41 200.64 103.69 201.92 106.17 204.48C108.5 206.89 111.29 209.6 112.31 211.27C112.31 211.27 112.36 211.46 112.4 211.41C112.43 211.46 112.49 211.27 112.49 211.27C113.52 209.61 116.3 206.89 118.63 204.48C121.1 201.92 122.38 200.64 124.86 196.63C127.33 192.62 126.4 184.68 119.31 184.51Z" fill="#EB1C24" stroke="black" stroke-width="0.75" stroke-linecap="round" stroke-linejoin="round"/>
<defs>
<linearGradient id="paint0_linear_2_19595" x1="210.27" y1="65.43" x2="14.74" y2="65.43" gradientUnits="userSpaceOnUse">
<stop stop-color="#8F8587"/>
<stop offset="0.24" stop-color="#C3BEBF"/>
<stop offset="0.45" stop-color="#EBEAEA"/>
<stop offset="0.56" stop-color="#FBFBFB"/>
</linearGradient>
<linearGradient id="paint1_linear_2_19595" x1="14.55" y1="250.75" x2="210.17" y2="250.75" gradientUnits="userSpaceOnUse">
<stop stop-color="#8F8587"/>
<stop offset="0.25" stop-color="#C3BEBF"/>
<stop offset="0.46" stop-color="#EBEAEA"/>
<stop offset="0.57" stop-color="#FBFBFB"/>
</linearGradient>
</defs>
</svg>
