<?xml version="1.0" encoding="UTF-8"?>
<svg xmlns="http://www.w3.org/2000/svg" xmlns:xlink="http://www.w3.org/1999/xlink" width="612" height="792" viewBox="0 0 612 792">
<defs>
<clipPath id="clip-0">
<path clip-rule="nonzero" d="M 6 6 L 174.75 6 L 174.75 244 L 6 244 Z M 6 6 "/>
</clipPath>
<clipPath id="clip-1">
<path clip-rule="nonzero" d="M 17 16 L 164 16 L 164 94 L 17 94 Z M 17 16 "/>
</clipPath>
<clipPath id="clip-2">
<path clip-rule="nonzero" d="M 163.6875 93.921875 C 163.6875 68.023438 163.695312 42.121094 163.703125 16.222656 C 114.847656 16.222656 65.984375 16.222656 17.128906 16.230469 C 17.109375 41.707031 17.085938 67.183594 17.0625 92.664062 C 19.628906 81.226562 24.800781 64.359375 34.671875 55.351562 C 42.226562 48.464844 45.996094 45.015625 48.953125 43.636719 C 50.324219 42.988281 54.710938 41.09375 58.34375 36.660156 C 59.015625 35.84375 59.503906 35.121094 59.8125 34.640625 C 60.128906 35.0625 61.34375 36.613281 63.015625 36.644531 C 65.191406 36.683594 67.621094 34.132812 67.738281 30.292969 C 67.996094 30.863281 70.132812 35.40625 74.992188 36.433594 C 77.332031 36.929688 79.296875 36.40625 80.308594 36.046875 C 80.96875 35.496094 81.847656 34.648438 82.648438 33.433594 C 83.4375 32.242188 83.863281 31.125 84.113281 30.316406 L 96.660156 30.316406 C 96.734375 30.78125 97.34375 34.207031 100.460938 35.917969 C 103.515625 37.589844 106.613281 36.316406 107.566406 35.933594 C 110.859375 34.605469 112.253906 31.867188 112.558594 31.222656 C 113.300781 34.761719 115.777344 36.953125 117.953125 36.78125 C 118.304688 36.75 119.4375 36.601562 120.613281 35.28125 L 124.371094 38.40625 C 125.84375 39.277344 127.90625 40.558594 130.28125 42.226562 C 133.074219 44.175781 142.328125 50.746094 149.59375 60.1875 C 159.246094 72.726562 162.480469 86.535156 163.679688 93.90625 Z M 163.6875 93.921875 "/>
</clipPath>
<linearGradient id="linear-pattern-0" gradientUnits="userSpaceOnUse" x1="210.269991" y1="65.43" x2="14.749999" y2="65.43" gradientTransform="matrix(0.75, 0, 0, 0.75, 6, 6)">
<stop offset="0" stop-color="rgb(56.098938%, 52.198792%, 52.89917%)" stop-opacity="1"/>
<stop offset="0.00390625" stop-color="rgb(56.430054%, 52.561951%, 53.256226%)" stop-opacity="1"/>
<stop offset="0.0078125" stop-color="rgb(56.762695%, 52.92511%, 53.614807%)" stop-opacity="1"/>
<stop offset="0.0117188" stop-color="rgb(57.095337%, 53.288269%, 53.973389%)" stop-opacity="1"/>
<stop offset="0.015625" stop-color="rgb(57.427979%, 53.651428%, 54.33197%)" stop-opacity="1"/>
<stop offset="0.0195312" stop-color="rgb(57.759094%, 54.013062%, 54.689026%)" stop-opacity="1"/>
<stop offset="0.0234375" stop-color="rgb(58.091736%, 54.376221%, 55.047607%)" stop-opacity="1"/>
<stop offset="0.0273437" stop-color="rgb(58.422852%, 54.73938%, 55.404663%)" stop-opacity="1"/>
<stop offset="0.03125" stop-color="rgb(58.755493%, 55.102539%, 55.763245%)" stop-opacity="1"/>
<stop offset="0.0351562" stop-color="rgb(59.086609%, 55.465698%, 56.121826%)" stop-opacity="1"/>
<stop offset="0.0390625" stop-color="rgb(59.41925%, 55.828857%, 56.480408%)" stop-opacity="1"/>
<stop offset="0.0429688" stop-color="rgb(59.750366%, 56.192017%, 56.837463%)" stop-opacity="1"/>
<stop offset="0.046875" stop-color="rgb(60.083008%, 56.555176%, 57.196045%)" stop-opacity="1"/>
<stop offset="0.0507812" stop-color="rgb(60.414124%, 56.916809%, 57.553101%)" stop-opacity="1"/>
<stop offset="0.0546875" stop-color="rgb(60.746765%, 57.279968%, 57.911682%)" stop-opacity="1"/>
<stop offset="0.0585937" stop-color="rgb(61.079407%, 57.643127%, 58.270264%)" stop-opacity="1"/>
<stop offset="0.0625" stop-color="rgb(61.412048%, 58.006287%, 58.628845%)" stop-opacity="1"/>
<stop offset="0.0664062" stop-color="rgb(61.743164%, 58.369446%, 58.985901%)" stop-opacity="1"/>
<stop offset="0.0703125" stop-color="rgb(62.075806%, 58.732605%, 59.344482%)" stop-opacity="1"/>
<stop offset="0.0742188" stop-color="rgb(62.406921%, 59.094238%, 59.701538%)" stop-opacity="1"/>
<stop offset="0.078125" stop-color="rgb(62.739563%, 59.457397%, 60.06012%)" stop-opacity="1"/>
<stop offset="0.0820312" stop-color="rgb(63.070679%, 59.820557%, 60.417175%)" stop-opacity="1"/>
<stop offset="0.0859375" stop-color="rgb(63.40332%, 60.183716%, 60.775757%)" stop-opacity="1"/>
<stop offset="0.0898437" stop-color="rgb(63.734436%, 60.546875%, 61.134338%)" stop-opacity="1"/>
<stop offset="0.09375" stop-color="rgb(64.067078%, 60.910034%, 61.49292%)" stop-opacity="1"/>
<stop offset="0.0976562" stop-color="rgb(64.399719%, 61.273193%, 61.849976%)" stop-opacity="1"/>
<stop offset="0.101562" stop-color="rgb(64.732361%, 61.636353%, 62.208557%)" stop-opacity="1"/>
<stop offset="0.105469" stop-color="rgb(65.063477%, 61.997986%, 62.565613%)" stop-opacity="1"/>
<stop offset="0.109375" stop-color="rgb(65.396118%, 62.361145%, 62.924194%)" stop-opacity="1"/>
<stop offset="0.113281" stop-color="rgb(65.727234%, 62.724304%, 63.282776%)" stop-opacity="1"/>
<stop offset="0.117187" stop-color="rgb(66.059875%, 63.087463%, 63.641357%)" stop-opacity="1"/>
<stop offset="0.121094" stop-color="rgb(66.390991%, 63.450623%, 63.998413%)" stop-opacity="1"/>
<stop offset="0.125" stop-color="rgb(66.723633%, 63.813782%, 64.356995%)" stop-opacity="1"/>
<stop offset="0.128906" stop-color="rgb(67.054749%, 64.175415%, 64.71405%)" stop-opacity="1"/>
<stop offset="0.132812" stop-color="rgb(67.38739%, 64.538574%, 65.072632%)" stop-opacity="1"/>
<stop offset="0.136719" stop-color="rgb(67.718506%, 64.901733%, 65.431213%)" stop-opacity="1"/>
<stop offset="0.140625" stop-color="rgb(68.051147%, 65.264893%, 65.789795%)" stop-opacity="1"/>
<stop offset="0.144531" stop-color="rgb(68.383789%, 65.628052%, 66.146851%)" stop-opacity="1"/>
<stop offset="0.148438" stop-color="rgb(68.716431%, 65.991211%, 66.505432%)" stop-opacity="1"/>
<stop offset="0.152344" stop-color="rgb(69.047546%, 66.352844%, 66.862488%)" stop-opacity="1"/>
<stop offset="0.15625" stop-color="rgb(69.380188%, 66.716003%, 67.221069%)" stop-opacity="1"/>
<stop offset="0.160156" stop-color="rgb(69.711304%, 67.079163%, 67.579651%)" stop-opacity="1"/>
<stop offset="0.164062" stop-color="rgb(70.043945%, 67.442322%, 67.938232%)" stop-opacity="1"/>
<stop offset="0.167969" stop-color="rgb(70.375061%, 67.805481%, 68.295288%)" stop-opacity="1"/>
<stop offset="0.171875" stop-color="rgb(70.707703%, 68.16864%, 68.65387%)" stop-opacity="1"/>
<stop offset="0.175781" stop-color="rgb(71.038818%, 68.531799%, 69.010925%)" stop-opacity="1"/>
<stop offset="0.179688" stop-color="rgb(71.37146%, 68.894958%, 69.369507%)" stop-opacity="1"/>
<stop offset="0.183594" stop-color="rgb(71.702576%, 69.256592%, 69.726562%)" stop-opacity="1"/>
<stop offset="0.1875" stop-color="rgb(72.035217%, 69.619751%, 70.085144%)" stop-opacity="1"/>
<stop offset="0.191406" stop-color="rgb(72.367859%, 69.98291%, 70.443726%)" stop-opacity="1"/>
<stop offset="0.195312" stop-color="rgb(72.7005%, 70.346069%, 70.802307%)" stop-opacity="1"/>
<stop offset="0.199219" stop-color="rgb(73.031616%, 70.709229%, 71.159363%)" stop-opacity="1"/>
<stop offset="0.203125" stop-color="rgb(73.364258%, 71.072388%, 71.517944%)" stop-opacity="1"/>
<stop offset="0.207031" stop-color="rgb(73.695374%, 71.434021%, 71.875%)" stop-opacity="1"/>
<stop offset="0.210938" stop-color="rgb(74.028015%, 71.79718%, 72.233582%)" stop-opacity="1"/>
<stop offset="0.214844" stop-color="rgb(74.359131%, 72.160339%, 72.592163%)" stop-opacity="1"/>
<stop offset="0.21875" stop-color="rgb(74.691772%, 72.523499%, 72.950745%)" stop-opacity="1"/>
<stop offset="0.222656" stop-color="rgb(75.022888%, 72.886658%, 73.3078%)" stop-opacity="1"/>
<stop offset="0.226562" stop-color="rgb(75.35553%, 73.249817%, 73.666382%)" stop-opacity="1"/>
<stop offset="0.230469" stop-color="rgb(75.688171%, 73.612976%, 74.023438%)" stop-opacity="1"/>
<stop offset="0.234375" stop-color="rgb(76.020813%, 73.976135%, 74.382019%)" stop-opacity="1"/>
<stop offset="0.238281" stop-color="rgb(76.341248%, 74.327087%, 74.728394%)" stop-opacity="1"/>
<stop offset="0.242188" stop-color="rgb(76.661682%, 74.67804%, 75.074768%)" stop-opacity="1"/>
<stop offset="0.246094" stop-color="rgb(76.953125%, 75%, 75.389099%)" stop-opacity="1"/>
<stop offset="0.25" stop-color="rgb(77.246094%, 75.32196%, 75.70343%)" stop-opacity="1"/>
<stop offset="0.253906" stop-color="rgb(77.537537%, 75.643921%, 76.017761%)" stop-opacity="1"/>
<stop offset="0.257812" stop-color="rgb(77.830505%, 75.965881%, 76.332092%)" stop-opacity="1"/>
<stop offset="0.261719" stop-color="rgb(78.121948%, 76.287842%, 76.646423%)" stop-opacity="1"/>
<stop offset="0.265625" stop-color="rgb(78.413391%, 76.609802%, 76.960754%)" stop-opacity="1"/>
<stop offset="0.269531" stop-color="rgb(78.704834%, 76.930237%, 77.275085%)" stop-opacity="1"/>
<stop offset="0.273438" stop-color="rgb(78.997803%, 77.252197%, 77.589417%)" stop-opacity="1"/>
<stop offset="0.277344" stop-color="rgb(79.289246%, 77.574158%, 77.903748%)" stop-opacity="1"/>
<stop offset="0.28125" stop-color="rgb(79.582214%, 77.896118%, 78.218079%)" stop-opacity="1"/>
<stop offset="0.285156" stop-color="rgb(79.873657%, 78.218079%, 78.53241%)" stop-opacity="1"/>
<stop offset="0.289063" stop-color="rgb(80.166626%, 78.540039%, 78.846741%)" stop-opacity="1"/>
<stop offset="0.292969" stop-color="rgb(80.458069%, 78.862%, 79.161072%)" stop-opacity="1"/>
<stop offset="0.296875" stop-color="rgb(80.749512%, 79.18396%, 79.475403%)" stop-opacity="1"/>
<stop offset="0.300781" stop-color="rgb(81.040955%, 79.504395%, 79.789734%)" stop-opacity="1"/>
<stop offset="0.304688" stop-color="rgb(81.333923%, 79.826355%, 80.104065%)" stop-opacity="1"/>
<stop offset="0.308594" stop-color="rgb(81.625366%, 80.148315%, 80.418396%)" stop-opacity="1"/>
<stop offset="0.3125" stop-color="rgb(81.918335%, 80.470276%, 80.732727%)" stop-opacity="1"/>
<stop offset="0.316406" stop-color="rgb(82.209778%, 80.792236%, 81.047058%)" stop-opacity="1"/>
<stop offset="0.320312" stop-color="rgb(82.502747%, 81.114197%, 81.361389%)" stop-opacity="1"/>
<stop offset="0.324219" stop-color="rgb(82.794189%, 81.436157%, 81.67572%)" stop-opacity="1"/>
<stop offset="0.328125" stop-color="rgb(83.085632%, 81.758118%, 81.990051%)" stop-opacity="1"/>
<stop offset="0.332031" stop-color="rgb(83.377075%, 82.078552%, 82.304382%)" stop-opacity="1"/>
<stop offset="0.335937" stop-color="rgb(83.670044%, 82.400513%, 82.618713%)" stop-opacity="1"/>
<stop offset="0.339844" stop-color="rgb(83.961487%, 82.722473%, 82.933044%)" stop-opacity="1"/>
<stop offset="0.34375" stop-color="rgb(84.254456%, 83.044434%, 83.247375%)" stop-opacity="1"/>
<stop offset="0.347656" stop-color="rgb(84.545898%, 83.366394%, 83.561707%)" stop-opacity="1"/>
<stop offset="0.351563" stop-color="rgb(84.838867%, 83.688354%, 83.876038%)" stop-opacity="1"/>
<stop offset="0.355469" stop-color="rgb(85.13031%, 84.010315%, 84.190369%)" stop-opacity="1"/>
<stop offset="0.359375" stop-color="rgb(85.423279%, 84.332275%, 84.5047%)" stop-opacity="1"/>
<stop offset="0.363281" stop-color="rgb(85.714722%, 84.654236%, 84.819031%)" stop-opacity="1"/>
<stop offset="0.367188" stop-color="rgb(86.006165%, 84.976196%, 85.133362%)" stop-opacity="1"/>
<stop offset="0.371094" stop-color="rgb(86.297607%, 85.296631%, 85.447693%)" stop-opacity="1"/>
<stop offset="0.375" stop-color="rgb(86.590576%, 85.618591%, 85.762024%)" stop-opacity="1"/>
<stop offset="0.378906" stop-color="rgb(86.882019%, 85.940552%, 86.076355%)" stop-opacity="1"/>
<stop offset="0.382812" stop-color="rgb(87.174988%, 86.262512%, 86.390686%)" stop-opacity="1"/>
<stop offset="0.386719" stop-color="rgb(87.466431%, 86.584473%, 86.705017%)" stop-opacity="1"/>
<stop offset="0.390625" stop-color="rgb(87.759399%, 86.906433%, 87.019348%)" stop-opacity="1"/>
<stop offset="0.394531" stop-color="rgb(88.050842%, 87.228394%, 87.333679%)" stop-opacity="1"/>
<stop offset="0.398437" stop-color="rgb(88.342285%, 87.550354%, 87.64801%)" stop-opacity="1"/>
<stop offset="0.402344" stop-color="rgb(88.633728%, 87.870789%, 87.962341%)" stop-opacity="1"/>
<stop offset="0.40625" stop-color="rgb(88.926697%, 88.192749%, 88.276672%)" stop-opacity="1"/>
<stop offset="0.410156" stop-color="rgb(89.21814%, 88.514709%, 88.591003%)" stop-opacity="1"/>
<stop offset="0.414062" stop-color="rgb(89.511108%, 88.83667%, 88.905334%)" stop-opacity="1"/>
<stop offset="0.417969" stop-color="rgb(89.802551%, 89.15863%, 89.219666%)" stop-opacity="1"/>
<stop offset="0.421875" stop-color="rgb(90.09552%, 89.480591%, 89.533997%)" stop-opacity="1"/>
<stop offset="0.425781" stop-color="rgb(90.386963%, 89.802551%, 89.848328%)" stop-opacity="1"/>
<stop offset="0.429688" stop-color="rgb(90.678406%, 90.124512%, 90.162659%)" stop-opacity="1"/>
<stop offset="0.433594" stop-color="rgb(90.969849%, 90.444946%, 90.47699%)" stop-opacity="1"/>
<stop offset="0.4375" stop-color="rgb(91.262817%, 90.766907%, 90.791321%)" stop-opacity="1"/>
<stop offset="0.441406" stop-color="rgb(91.55426%, 91.088867%, 91.105652%)" stop-opacity="1"/>
<stop offset="0.445312" stop-color="rgb(91.847229%, 91.410828%, 91.419983%)" stop-opacity="1"/>
<stop offset="0.449219" stop-color="rgb(92.10968%, 91.697693%, 91.702271%)" stop-opacity="1"/>
<stop offset="0.453125" stop-color="rgb(92.373657%, 91.986084%, 91.986084%)" stop-opacity="1"/>
<stop offset="0.457031" stop-color="rgb(92.593384%, 92.219543%, 92.219543%)" stop-opacity="1"/>
<stop offset="0.460938" stop-color="rgb(92.814636%, 92.454529%, 92.454529%)" stop-opacity="1"/>
<stop offset="0.464844" stop-color="rgb(93.034363%, 92.687988%, 92.687988%)" stop-opacity="1"/>
<stop offset="0.46875" stop-color="rgb(93.254089%, 92.922974%, 92.922974%)" stop-opacity="1"/>
<stop offset="0.472656" stop-color="rgb(93.473816%, 93.156433%, 93.156433%)" stop-opacity="1"/>
<stop offset="0.476562" stop-color="rgb(93.695068%, 93.391418%, 93.391418%)" stop-opacity="1"/>
<stop offset="0.480469" stop-color="rgb(93.914795%, 93.624878%, 93.624878%)" stop-opacity="1"/>
<stop offset="0.484375" stop-color="rgb(94.136047%, 93.859863%, 93.859863%)" stop-opacity="1"/>
<stop offset="0.488281" stop-color="rgb(94.355774%, 94.093323%, 94.093323%)" stop-opacity="1"/>
<stop offset="0.492187" stop-color="rgb(94.5755%, 94.328308%, 94.328308%)" stop-opacity="1"/>
<stop offset="0.496094" stop-color="rgb(94.795227%, 94.563293%, 94.563293%)" stop-opacity="1"/>
<stop offset="0.5" stop-color="rgb(95.016479%, 94.798279%, 94.798279%)" stop-opacity="1"/>
<stop offset="0.503906" stop-color="rgb(95.236206%, 95.031738%, 95.031738%)" stop-opacity="1"/>
<stop offset="0.507812" stop-color="rgb(95.455933%, 95.266724%, 95.266724%)" stop-opacity="1"/>
<stop offset="0.511719" stop-color="rgb(95.675659%, 95.500183%, 95.500183%)" stop-opacity="1"/>
<stop offset="0.515625" stop-color="rgb(95.896912%, 95.735168%, 95.735168%)" stop-opacity="1"/>
<stop offset="0.519531" stop-color="rgb(96.116638%, 95.968628%, 95.968628%)" stop-opacity="1"/>
<stop offset="0.523438" stop-color="rgb(96.336365%, 96.203613%, 96.203613%)" stop-opacity="1"/>
<stop offset="0.527344" stop-color="rgb(96.556091%, 96.437073%, 96.437073%)" stop-opacity="1"/>
<stop offset="0.53125" stop-color="rgb(96.777344%, 96.672058%, 96.672058%)" stop-opacity="1"/>
<stop offset="0.535156" stop-color="rgb(96.99707%, 96.907043%, 96.907043%)" stop-opacity="1"/>
<stop offset="0.539062" stop-color="rgb(97.218323%, 97.142029%, 97.142029%)" stop-opacity="1"/>
<stop offset="0.542969" stop-color="rgb(97.438049%, 97.375488%, 97.375488%)" stop-opacity="1"/>
<stop offset="0.546875" stop-color="rgb(97.657776%, 97.610474%, 97.610474%)" stop-opacity="1"/>
<stop offset="0.550781" stop-color="rgb(97.877502%, 97.843933%, 97.843933%)" stop-opacity="1"/>
<stop offset="0.554688" stop-color="rgb(98.098755%, 98.078918%, 98.078918%)" stop-opacity="1"/>
<stop offset="0.5625" stop-color="rgb(98.248291%, 98.239136%, 98.239136%)" stop-opacity="1"/>
<stop offset="0.625" stop-color="rgb(98.399353%, 98.399353%, 98.399353%)" stop-opacity="1"/>
<stop offset="0.75" stop-color="rgb(98.399353%, 98.399353%, 98.399353%)" stop-opacity="1"/>
<stop offset="1" stop-color="rgb(98.399353%, 98.399353%, 98.399353%)" stop-opacity="1"/>
</linearGradient>
<clipPath id="clip-3">
<path clip-rule="nonzero" d="M 16 154 L 164 154 L 164 234 L 16 234 Z M 16 154 "/>
</clipPath>
<clipPath id="clip-4">
<path clip-rule="nonzero" d="M 16.914062 154.46875 C 16.933594 180.863281 16.949219 207.253906 16.972656 233.640625 C 65.835938 233.632812 114.699219 233.617188 163.558594 233.609375 C 163.582031 208.132812 163.605469 182.65625 163.628906 157.175781 C 158.773438 168.464844 151.335938 182.21875 139.792969 195.960938 C 135.335938 201.253906 130.851562 205.875 126.523438 209.878906 C 125.324219 211.46875 124.125 213.050781 122.933594 214.640625 C 122.25 214.828125 121.566406 215.011719 120.886719 215.199219 C 120.570312 214.777344 119.355469 213.226562 117.683594 213.195312 C 115.507812 213.15625 113.078125 215.707031 112.957031 219.546875 C 112.703125 218.976562 110.566406 214.433594 105.703125 213.40625 C 103.363281 212.910156 101.398438 213.433594 100.386719 213.796875 C 99.726562 214.34375 98.851562 215.191406 98.046875 216.40625 C 97.261719 217.597656 96.832031 218.714844 96.585938 219.523438 L 84.039062 219.523438 C 83.960938 219.058594 83.355469 215.632812 80.234375 213.921875 C 77.183594 212.25 74.085938 213.523438 73.132812 213.90625 C 69.839844 215.234375 68.445312 217.972656 68.136719 218.617188 C 67.394531 215.078125 64.921875 212.886719 62.746094 213.058594 C 62.390625 213.089844 61.261719 213.238281 60.082031 214.558594 C 58.828125 213.515625 57.578125 212.476562 56.324219 211.433594 C 50.503906 208.550781 39.667969 202.214844 30.570312 189.929688 C 19.933594 175.558594 17.578125 161.015625 16.925781 154.476562 Z M 16.914062 154.46875 "/>
</clipPath>
<linearGradient id="linear-pattern-1" gradientUnits="userSpaceOnUse" x1="14.549999" y1="250.75" x2="210.169991" y2="250.75" gradientTransform="matrix(0.75, 0, 0, 0.75, 6, 6)">
<stop offset="0" stop-color="rgb(56.098938%, 52.198792%, 52.89917%)" stop-opacity="1"/>
<stop offset="0.00390625" stop-color="rgb(56.417847%, 52.546692%, 53.242493%)" stop-opacity="1"/>
<stop offset="0.0078125" stop-color="rgb(56.736755%, 52.896118%, 53.587341%)" stop-opacity="1"/>
<stop offset="0.0117188" stop-color="rgb(57.055664%, 53.244019%, 53.930664%)" stop-opacity="1"/>
<stop offset="0.015625" stop-color="rgb(57.374573%, 53.593445%, 54.273987%)" stop-opacity="1"/>
<stop offset="0.0195313" stop-color="rgb(57.693481%, 53.941345%, 54.61731%)" stop-opacity="1"/>
<stop offset="0.0234375" stop-color="rgb(58.01239%, 54.289246%, 54.962158%)" stop-opacity="1"/>
<stop offset="0.0273438" stop-color="rgb(58.329773%, 54.637146%, 55.305481%)" stop-opacity="1"/>
<stop offset="0.03125" stop-color="rgb(58.648682%, 54.986572%, 55.648804%)" stop-opacity="1"/>
<stop offset="0.0351563" stop-color="rgb(58.96759%, 55.334473%, 55.992126%)" stop-opacity="1"/>
<stop offset="0.0390625" stop-color="rgb(59.286499%, 55.683899%, 56.336975%)" stop-opacity="1"/>
<stop offset="0.0429688" stop-color="rgb(59.605408%, 56.031799%, 56.680298%)" stop-opacity="1"/>
<stop offset="0.046875" stop-color="rgb(59.924316%, 56.381226%, 57.023621%)" stop-opacity="1"/>
<stop offset="0.0507813" stop-color="rgb(60.243225%, 56.729126%, 57.366943%)" stop-opacity="1"/>
<stop offset="0.0546875" stop-color="rgb(60.562134%, 57.077026%, 57.711792%)" stop-opacity="1"/>
<stop offset="0.0585938" stop-color="rgb(60.881042%, 57.424927%, 58.055115%)" stop-opacity="1"/>
<stop offset="0.0625" stop-color="rgb(61.199951%, 57.774353%, 58.399963%)" stop-opacity="1"/>
<stop offset="0.0664062" stop-color="rgb(61.517334%, 58.122253%, 58.743286%)" stop-opacity="1"/>
<stop offset="0.0703125" stop-color="rgb(61.836243%, 58.47168%, 59.086609%)" stop-opacity="1"/>
<stop offset="0.0742188" stop-color="rgb(62.155151%, 58.81958%, 59.429932%)" stop-opacity="1"/>
<stop offset="0.078125" stop-color="rgb(62.47406%, 59.16748%, 59.77478%)" stop-opacity="1"/>
<stop offset="0.0820312" stop-color="rgb(62.792969%, 59.515381%, 60.118103%)" stop-opacity="1"/>
<stop offset="0.0859375" stop-color="rgb(63.111877%, 59.864807%, 60.461426%)" stop-opacity="1"/>
<stop offset="0.0898438" stop-color="rgb(63.430786%, 60.212708%, 60.804749%)" stop-opacity="1"/>
<stop offset="0.09375" stop-color="rgb(63.749695%, 60.562134%, 61.149597%)" stop-opacity="1"/>
<stop offset="0.0976562" stop-color="rgb(64.067078%, 60.910034%, 61.49292%)" stop-opacity="1"/>
<stop offset="0.101562" stop-color="rgb(64.385986%, 61.257935%, 61.836243%)" stop-opacity="1"/>
<stop offset="0.105469" stop-color="rgb(64.704895%, 61.605835%, 62.179565%)" stop-opacity="1"/>
<stop offset="0.109375" stop-color="rgb(65.023804%, 61.955261%, 62.524414%)" stop-opacity="1"/>
<stop offset="0.113281" stop-color="rgb(65.342712%, 62.303162%, 62.867737%)" stop-opacity="1"/>
<stop offset="0.117188" stop-color="rgb(65.661621%, 62.652588%, 63.21106%)" stop-opacity="1"/>
<stop offset="0.121094" stop-color="rgb(65.98053%, 63.000488%, 63.554382%)" stop-opacity="1"/>
<stop offset="0.125" stop-color="rgb(66.299438%, 63.349915%, 63.899231%)" stop-opacity="1"/>
<stop offset="0.128906" stop-color="rgb(66.618347%, 63.697815%, 64.242554%)" stop-opacity="1"/>
<stop offset="0.132813" stop-color="rgb(66.937256%, 64.045715%, 64.587402%)" stop-opacity="1"/>
<stop offset="0.136719" stop-color="rgb(67.254639%, 64.393616%, 64.930725%)" stop-opacity="1"/>
<stop offset="0.140625" stop-color="rgb(67.573547%, 64.743042%, 65.274048%)" stop-opacity="1"/>
<stop offset="0.144531" stop-color="rgb(67.892456%, 65.090942%, 65.617371%)" stop-opacity="1"/>
<stop offset="0.148438" stop-color="rgb(68.211365%, 65.440369%, 65.962219%)" stop-opacity="1"/>
<stop offset="0.152344" stop-color="rgb(68.530273%, 65.788269%, 66.305542%)" stop-opacity="1"/>
<stop offset="0.15625" stop-color="rgb(68.849182%, 66.136169%, 66.648865%)" stop-opacity="1"/>
<stop offset="0.160156" stop-color="rgb(69.168091%, 66.48407%, 66.992188%)" stop-opacity="1"/>
<stop offset="0.164063" stop-color="rgb(69.487%, 66.833496%, 67.337036%)" stop-opacity="1"/>
<stop offset="0.167969" stop-color="rgb(69.805908%, 67.181396%, 67.680359%)" stop-opacity="1"/>
<stop offset="0.171875" stop-color="rgb(70.124817%, 67.530823%, 68.023682%)" stop-opacity="1"/>
<stop offset="0.175781" stop-color="rgb(70.4422%, 67.878723%, 68.367004%)" stop-opacity="1"/>
<stop offset="0.179688" stop-color="rgb(70.761108%, 68.226624%, 68.711853%)" stop-opacity="1"/>
<stop offset="0.183594" stop-color="rgb(71.080017%, 68.574524%, 69.055176%)" stop-opacity="1"/>
<stop offset="0.1875" stop-color="rgb(71.398926%, 68.92395%, 69.398499%)" stop-opacity="1"/>
<stop offset="0.191406" stop-color="rgb(71.717834%, 69.271851%, 69.741821%)" stop-opacity="1"/>
<stop offset="0.195313" stop-color="rgb(72.036743%, 69.621277%, 70.08667%)" stop-opacity="1"/>
<stop offset="0.199219" stop-color="rgb(72.355652%, 69.969177%, 70.429993%)" stop-opacity="1"/>
<stop offset="0.203125" stop-color="rgb(72.674561%, 70.318604%, 70.774841%)" stop-opacity="1"/>
<stop offset="0.207031" stop-color="rgb(72.993469%, 70.666504%, 71.118164%)" stop-opacity="1"/>
<stop offset="0.210938" stop-color="rgb(73.312378%, 71.014404%, 71.461487%)" stop-opacity="1"/>
<stop offset="0.214844" stop-color="rgb(73.629761%, 71.362305%, 71.80481%)" stop-opacity="1"/>
<stop offset="0.21875" stop-color="rgb(73.948669%, 71.711731%, 72.149658%)" stop-opacity="1"/>
<stop offset="0.222656" stop-color="rgb(74.267578%, 72.059631%, 72.492981%)" stop-opacity="1"/>
<stop offset="0.226563" stop-color="rgb(74.586487%, 72.409058%, 72.836304%)" stop-opacity="1"/>
<stop offset="0.230469" stop-color="rgb(74.905396%, 72.756958%, 73.179626%)" stop-opacity="1"/>
<stop offset="0.234375" stop-color="rgb(75.224304%, 73.104858%, 73.524475%)" stop-opacity="1"/>
<stop offset="0.238281" stop-color="rgb(75.543213%, 73.452759%, 73.867798%)" stop-opacity="1"/>
<stop offset="0.242188" stop-color="rgb(75.862122%, 73.802185%, 74.211121%)" stop-opacity="1"/>
<stop offset="0.246094" stop-color="rgb(76.18103%, 74.150085%, 74.554443%)" stop-opacity="1"/>
<stop offset="0.25" stop-color="rgb(76.499939%, 74.499512%, 74.899292%)" stop-opacity="1"/>
<stop offset="0.253906" stop-color="rgb(76.791382%, 74.821472%, 75.213623%)" stop-opacity="1"/>
<stop offset="0.257812" stop-color="rgb(77.082825%, 75.143433%, 75.527954%)" stop-opacity="1"/>
<stop offset="0.261719" stop-color="rgb(77.374268%, 75.463867%, 75.842285%)" stop-opacity="1"/>
<stop offset="0.265625" stop-color="rgb(77.667236%, 75.785828%, 76.156616%)" stop-opacity="1"/>
<stop offset="0.269531" stop-color="rgb(77.958679%, 76.107788%, 76.470947%)" stop-opacity="1"/>
<stop offset="0.273438" stop-color="rgb(78.251648%, 76.429749%, 76.785278%)" stop-opacity="1"/>
<stop offset="0.277344" stop-color="rgb(78.543091%, 76.751709%, 77.099609%)" stop-opacity="1"/>
<stop offset="0.28125" stop-color="rgb(78.83606%, 77.073669%, 77.41394%)" stop-opacity="1"/>
<stop offset="0.285156" stop-color="rgb(79.127502%, 77.39563%, 77.728271%)" stop-opacity="1"/>
<stop offset="0.289062" stop-color="rgb(79.418945%, 77.71759%, 78.042603%)" stop-opacity="1"/>
<stop offset="0.292969" stop-color="rgb(79.710388%, 78.039551%, 78.356934%)" stop-opacity="1"/>
<stop offset="0.296875" stop-color="rgb(80.003357%, 78.361511%, 78.671265%)" stop-opacity="1"/>
<stop offset="0.300781" stop-color="rgb(80.2948%, 78.681946%, 78.985596%)" stop-opacity="1"/>
<stop offset="0.304688" stop-color="rgb(80.587769%, 79.003906%, 79.299927%)" stop-opacity="1"/>
<stop offset="0.308594" stop-color="rgb(80.879211%, 79.325867%, 79.614258%)" stop-opacity="1"/>
<stop offset="0.3125" stop-color="rgb(81.17218%, 79.647827%, 79.928589%)" stop-opacity="1"/>
<stop offset="0.316406" stop-color="rgb(81.463623%, 79.969788%, 80.24292%)" stop-opacity="1"/>
<stop offset="0.320312" stop-color="rgb(81.756592%, 80.291748%, 80.557251%)" stop-opacity="1"/>
<stop offset="0.324219" stop-color="rgb(82.048035%, 80.613708%, 80.871582%)" stop-opacity="1"/>
<stop offset="0.328125" stop-color="rgb(82.339478%, 80.935669%, 81.185913%)" stop-opacity="1"/>
<stop offset="0.332031" stop-color="rgb(82.63092%, 81.257629%, 81.500244%)" stop-opacity="1"/>
<stop offset="0.335938" stop-color="rgb(82.923889%, 81.57959%, 81.814575%)" stop-opacity="1"/>
<stop offset="0.339844" stop-color="rgb(83.215332%, 81.900024%, 82.128906%)" stop-opacity="1"/>
<stop offset="0.34375" stop-color="rgb(83.508301%, 82.221985%, 82.443237%)" stop-opacity="1"/>
<stop offset="0.347656" stop-color="rgb(83.799744%, 82.543945%, 82.757568%)" stop-opacity="1"/>
<stop offset="0.351562" stop-color="rgb(84.092712%, 82.865906%, 83.071899%)" stop-opacity="1"/>
<stop offset="0.355469" stop-color="rgb(84.384155%, 83.187866%, 83.38623%)" stop-opacity="1"/>
<stop offset="0.359375" stop-color="rgb(84.675598%, 83.509827%, 83.700562%)" stop-opacity="1"/>
<stop offset="0.363281" stop-color="rgb(84.967041%, 83.831787%, 84.014893%)" stop-opacity="1"/>
<stop offset="0.367188" stop-color="rgb(85.26001%, 84.153748%, 84.33075%)" stop-opacity="1"/>
<stop offset="0.371094" stop-color="rgb(85.551453%, 84.474182%, 84.645081%)" stop-opacity="1"/>
<stop offset="0.375" stop-color="rgb(85.844421%, 84.796143%, 84.959412%)" stop-opacity="1"/>
<stop offset="0.378906" stop-color="rgb(86.135864%, 85.118103%, 85.273743%)" stop-opacity="1"/>
<stop offset="0.382812" stop-color="rgb(86.428833%, 85.440063%, 85.588074%)" stop-opacity="1"/>
<stop offset="0.386719" stop-color="rgb(86.720276%, 85.762024%, 85.902405%)" stop-opacity="1"/>
<stop offset="0.390625" stop-color="rgb(87.013245%, 86.083984%, 86.216736%)" stop-opacity="1"/>
<stop offset="0.394531" stop-color="rgb(87.304688%, 86.405945%, 86.531067%)" stop-opacity="1"/>
<stop offset="0.398438" stop-color="rgb(87.59613%, 86.727905%, 86.845398%)" stop-opacity="1"/>
<stop offset="0.402344" stop-color="rgb(87.887573%, 87.049866%, 87.159729%)" stop-opacity="1"/>
<stop offset="0.40625" stop-color="rgb(88.180542%, 87.371826%, 87.47406%)" stop-opacity="1"/>
<stop offset="0.410156" stop-color="rgb(88.471985%, 87.692261%, 87.788391%)" stop-opacity="1"/>
<stop offset="0.414062" stop-color="rgb(88.764954%, 88.014221%, 88.102722%)" stop-opacity="1"/>
<stop offset="0.417969" stop-color="rgb(89.056396%, 88.336182%, 88.417053%)" stop-opacity="1"/>
<stop offset="0.421875" stop-color="rgb(89.349365%, 88.658142%, 88.731384%)" stop-opacity="1"/>
<stop offset="0.425781" stop-color="rgb(89.640808%, 88.980103%, 89.045715%)" stop-opacity="1"/>
<stop offset="0.429688" stop-color="rgb(89.933777%, 89.302063%, 89.360046%)" stop-opacity="1"/>
<stop offset="0.433594" stop-color="rgb(90.22522%, 89.624023%, 89.674377%)" stop-opacity="1"/>
<stop offset="0.4375" stop-color="rgb(90.516663%, 89.945984%, 89.988708%)" stop-opacity="1"/>
<stop offset="0.441406" stop-color="rgb(90.808105%, 90.267944%, 90.30304%)" stop-opacity="1"/>
<stop offset="0.445312" stop-color="rgb(91.101074%, 90.589905%, 90.617371%)" stop-opacity="1"/>
<stop offset="0.449219" stop-color="rgb(91.392517%, 90.910339%, 90.931702%)" stop-opacity="1"/>
<stop offset="0.453125" stop-color="rgb(91.685486%, 91.2323%, 91.246033%)" stop-opacity="1"/>
<stop offset="0.457031" stop-color="rgb(91.967773%, 91.543579%, 91.549683%)" stop-opacity="1"/>
<stop offset="0.460938" stop-color="rgb(92.251587%, 91.854858%, 91.854858%)" stop-opacity="1"/>
<stop offset="0.464844" stop-color="rgb(92.471313%, 92.089844%, 92.089844%)" stop-opacity="1"/>
<stop offset="0.46875" stop-color="rgb(92.692566%, 92.324829%, 92.324829%)" stop-opacity="1"/>
<stop offset="0.472656" stop-color="rgb(92.912292%, 92.558289%, 92.558289%)" stop-opacity="1"/>
<stop offset="0.476562" stop-color="rgb(93.132019%, 92.793274%, 92.793274%)" stop-opacity="1"/>
<stop offset="0.480469" stop-color="rgb(93.351746%, 93.026733%, 93.026733%)" stop-opacity="1"/>
<stop offset="0.484375" stop-color="rgb(93.572998%, 93.261719%, 93.261719%)" stop-opacity="1"/>
<stop offset="0.488281" stop-color="rgb(93.792725%, 93.495178%, 93.495178%)" stop-opacity="1"/>
<stop offset="0.492188" stop-color="rgb(94.013977%, 93.730164%, 93.730164%)" stop-opacity="1"/>
<stop offset="0.496094" stop-color="rgb(94.233704%, 93.963623%, 93.963623%)" stop-opacity="1"/>
<stop offset="0.5" stop-color="rgb(94.45343%, 94.198608%, 94.198608%)" stop-opacity="1"/>
<stop offset="0.503906" stop-color="rgb(94.673157%, 94.433594%, 94.433594%)" stop-opacity="1"/>
<stop offset="0.507812" stop-color="rgb(94.894409%, 94.668579%, 94.668579%)" stop-opacity="1"/>
<stop offset="0.511719" stop-color="rgb(95.114136%, 94.902039%, 94.902039%)" stop-opacity="1"/>
<stop offset="0.515625" stop-color="rgb(95.333862%, 95.137024%, 95.137024%)" stop-opacity="1"/>
<stop offset="0.519531" stop-color="rgb(95.553589%, 95.370483%, 95.370483%)" stop-opacity="1"/>
<stop offset="0.523438" stop-color="rgb(95.774841%, 95.605469%, 95.605469%)" stop-opacity="1"/>
<stop offset="0.527344" stop-color="rgb(95.994568%, 95.838928%, 95.838928%)" stop-opacity="1"/>
<stop offset="0.53125" stop-color="rgb(96.21582%, 96.073914%, 96.073914%)" stop-opacity="1"/>
<stop offset="0.535156" stop-color="rgb(96.435547%, 96.307373%, 96.307373%)" stop-opacity="1"/>
<stop offset="0.539062" stop-color="rgb(96.655273%, 96.542358%, 96.542358%)" stop-opacity="1"/>
<stop offset="0.542969" stop-color="rgb(96.875%, 96.777344%, 96.777344%)" stop-opacity="1"/>
<stop offset="0.546875" stop-color="rgb(97.096252%, 97.012329%, 97.012329%)" stop-opacity="1"/>
<stop offset="0.550781" stop-color="rgb(97.315979%, 97.245789%, 97.245789%)" stop-opacity="1"/>
<stop offset="0.554688" stop-color="rgb(97.535706%, 97.480774%, 97.480774%)" stop-opacity="1"/>
<stop offset="0.558594" stop-color="rgb(97.755432%, 97.714233%, 97.714233%)" stop-opacity="1"/>
<stop offset="0.5625" stop-color="rgb(97.976685%, 97.949219%, 97.949219%)" stop-opacity="1"/>
<stop offset="0.566406" stop-color="rgb(98.187256%, 98.173523%, 98.173523%)" stop-opacity="1"/>
<stop offset="0.570312" stop-color="rgb(98.399353%, 98.399353%, 98.399353%)" stop-opacity="1"/>
<stop offset="0.578125" stop-color="rgb(98.399353%, 98.399353%, 98.399353%)" stop-opacity="1"/>
<stop offset="0.59375" stop-color="rgb(98.399353%, 98.399353%, 98.399353%)" stop-opacity="1"/>
<stop offset="0.625" stop-color="rgb(98.399353%, 98.399353%, 98.399353%)" stop-opacity="1"/>
<stop offset="0.75" stop-color="rgb(98.399353%, 98.399353%, 98.399353%)" stop-opacity="1"/>
<stop offset="1" stop-color="rgb(98.399353%, 98.399353%, 98.399353%)" stop-opacity="1"/>
</linearGradient>
</defs>
<g clip-path="url(#clip-0)">
<path fill-rule="nonzero" fill="rgb(100%, 100%, 100%)" fill-opacity="1" d="M 168.53125 243.871094 L 12.015625 243.871094 C 8.691406 243.871094 6 241.15625 6 237.808594 L 6 12.238281 C 6 8.894531 8.691406 6.179688 12.015625 6.179688 L 168.53125 6.179688 C 171.855469 6.179688 174.546875 8.894531 174.546875 12.238281 L 174.546875 237.808594 C 174.546875 241.15625 171.855469 243.871094 168.53125 243.871094 Z M 168.53125 243.871094 "/>
</g>
<g clip-path="url(#clip-1)">
<g clip-path="url(#clip-2)">
<path fill-rule="nonzero" fill="url(#linear-pattern-0)" d="M 17.0625 16.222656 L 17.0625 93.921875 L 163.703125 93.921875 L 163.703125 16.222656 Z M 17.0625 16.222656 "/>
</g>
</g>
<path fill="none" stroke-width="1" stroke-linecap="round" stroke-linejoin="round" stroke="rgb(5.488586%, 5.488586%, 5.488586%)" stroke-opacity="1" stroke-miterlimit="4" d="M 210.760426 304.031263 L 14.130209 304.031263 C 14.130209 243.588552 14.130209 183.15105 14.130209 122.708339 C 14.130209 86.187504 14.130209 49.682294 14.130209 13.161459 L 210.760426 13.161459 C 210.760426 49.619794 210.760426 86.078129 210.760426 122.541672 C 210.760426 183.041675 210.760426 243.53126 210.760426 304.031263 Z M 210.760426 304.031263 " transform="matrix(0.75, 0, 0, 0.75, 6, 6)"/>
<path fill-rule="nonzero" fill="rgb(100%, 100%, 100%)" fill-opacity="1" d="M 90.253906 38.300781 C 90.203125 37.679688 89.949219 35.496094 88.140625 33.644531 C 86.519531 31.980469 84.613281 31.582031 83.960938 31.46875 C 84.015625 30.816406 84.066406 30.164062 84.121094 29.511719 C 84.976562 29.113281 86.691406 28.171875 88.117188 26.257812 C 89.566406 24.316406 89.976562 22.378906 90.113281 21.441406 C 90.449219 22.613281 91.191406 24.613281 92.886719 26.566406 C 94.191406 28.066406 95.578125 28.980469 96.539062 29.511719 C 96.59375 30.164062 96.644531 30.816406 96.699219 31.46875 C 96.234375 31.515625 93.238281 31.859375 91.441406 34.476562 C 90.382812 36.023438 90.253906 37.597656 90.238281 38.300781 Z M 90.253906 38.300781 "/>
<path fill="none" stroke-width="1" stroke-linecap="round" stroke-linejoin="round" stroke="rgb(5.488586%, 5.488586%, 5.488586%)" stroke-opacity="1" stroke-miterlimit="4" d="M 70.72917 29.140627 C 71.838545 28.81771 73.671878 28.468752 75.739587 28.968752 C 77.552087 29.401043 78.770837 30.281252 79.458337 30.802085 C 85.541671 35.359377 86.437504 38.901044 90.619796 40.500002 C 91.161462 40.708335 95.067713 42.000002 99.010421 40.16146 C 101.791671 38.859377 103.770838 35.901043 104.07813 32.687502 C 104.520838 28.088543 101.317713 23.541668 97.609379 22.708335 C 97.182296 22.609376 94.838546 22.088543 92.932296 23.520835 C 92.687504 23.697918 91.208337 24.838543 91.000004 26.84896 C 90.968754 27.151043 90.729171 29.739585 92.708338 31.000002 C 93.817713 31.697918 95.229171 31.739585 96.348963 31.218752 C 97.937504 30.489585 98.901046 28.66146 98.651046 26.697918 C 99.041671 27.13021 99.578129 27.802085 100.010421 28.718752 C 100.218755 29.16146 101.57813 32.171877 100.281255 35.062502 C 98.697921 38.578127 94.390629 39.197919 93.812504 39.281252 C 89.958337 39.828127 85.958337 37.812502 83.338545 34.182293 " transform="matrix(0.75, 0, 0, 0.75, 6, 6)"/>
<path fill="none" stroke-width="1" stroke-linecap="round" stroke-linejoin="round" stroke="rgb(5.488586%, 5.488586%, 5.488586%)" stroke-opacity="1" stroke-miterlimit="4" d="M 104.161463 31.229168 C 104.92188 30.859377 106.10938 30.187502 107.317713 29.088543 C 111.187505 25.562501 111.901047 20.66146 112.218755 18.479168 C 112.401047 17.250001 112.562505 15.421876 112.348963 13.151043 " transform="matrix(0.75, 0, 0, 0.75, 6, 6)"/>
<path fill="none" stroke-width="1" stroke-linecap="round" stroke-linejoin="round" stroke="rgb(5.488586%, 5.488586%, 5.488586%)" stroke-opacity="1" stroke-miterlimit="4" d="M 103.947921 33.838543 C 104.901046 34.010418 105.932296 34.312502 106.947921 34.828127 C 111.562505 37.182294 112.239588 42.09896 112.338547 42.947919 " transform="matrix(0.75, 0, 0, 0.75, 6, 6)"/>
<path fill="none" stroke-width="1" stroke-linecap="round" stroke-linejoin="round" stroke="rgb(5.488586%, 5.488586%, 5.488586%)" stroke-opacity="1" stroke-miterlimit="4" d="M 154.171882 29.140627 C 153.062507 28.81771 151.229173 28.468752 149.161465 28.968752 C 147.348965 29.401043 146.130215 30.281252 145.437506 30.802085 C 139.359381 35.359377 138.458339 38.901044 134.281256 40.500002 C 133.739589 40.708335 129.828131 42.000002 125.890631 40.16146 C 123.10938 38.859377 121.130214 35.901043 120.817714 32.687502 C 120.380214 28.088543 123.57813 23.541668 127.291672 22.708335 C 127.718756 22.609376 130.062506 22.088543 131.968756 23.520835 C 132.208339 23.697918 133.687506 24.838543 133.901048 26.84896 C 133.932298 27.151043 134.171881 29.739585 132.187506 31.000002 C 131.078131 31.697918 129.671881 31.739585 128.552089 31.218752 C 126.958339 30.489585 126.000006 28.66146 126.250006 26.697918 C 125.859381 27.13021 125.317714 27.802085 124.890631 28.718752 C 124.682297 29.16146 123.317714 32.171877 124.619797 35.062502 C 126.197922 38.578127 130.510422 39.197919 131.088547 39.281252 C 134.937506 39.828127 138.937506 37.812502 141.562506 34.182293 " transform="matrix(0.75, 0, 0, 0.75, 6, 6)"/>
<path fill="none" stroke-width="1" stroke-linecap="round" stroke-linejoin="round" stroke="rgb(5.488586%, 5.488586%, 5.488586%)" stroke-opacity="1" stroke-miterlimit="4" d="M 120.937505 33.838543 C 119.989589 34.010418 118.958339 34.312502 117.937505 34.828127 C 113.32813 37.182294 112.651047 42.09896 112.552088 42.947919 " transform="matrix(0.75, 0, 0, 0.75, 6, 6)"/>
<path fill="none" stroke-width="1" stroke-linecap="round" stroke-linejoin="round" stroke="rgb(5.488586%, 5.488586%, 5.488586%)" stroke-opacity="1" stroke-miterlimit="4" d="M 153.218757 38.281252 C 153.067715 38.619794 152.281257 40.369794 150.432298 40.947919 C 148.468757 41.56771 146.750006 40.432294 146.031256 39.947919 C 143.000006 37.937502 142.697923 34.109377 142.671881 33.489585 " transform="matrix(0.75, 0, 0, 0.75, 6, 6)"/>
<path fill="none" stroke-width="1" stroke-linecap="round" stroke-linejoin="round" stroke="rgb(5.488586%, 5.488586%, 5.488586%)" stroke-opacity="1" stroke-miterlimit="4" d="M 163.859382 47.500002 C 163.000007 47.010419 161.791674 46.270836 160.432299 45.281252 C 156.500007 42.421877 153.432298 40.187502 152.630215 36.552085 C 151.901048 33.239585 153.390632 30.447918 153.651048 29.979168 C 156.098965 25.562501 161.229174 24.828126 162.291674 24.708335 C 167.062507 24.171876 171.901049 26.687501 174.932299 31.088543 " transform="matrix(0.75, 0, 0, 0.75, 6, 6)"/>
<path fill="none" stroke-width="1" stroke-linecap="round" stroke-linejoin="round" stroke="rgb(5.488586%, 5.488586%, 5.488586%)" stroke-opacity="1" stroke-miterlimit="4" d="M 174.260424 54.369794 C 174.312508 44.078127 171.791674 36.000002 167.802091 33.770835 C 165.750007 32.63021 163.671882 32.59896 163.671882 32.59896 C 162.979174 32.59896 159.48959 32.651043 157.281257 35.531252 C 155.312507 38.09896 155.80209 41.041669 155.890632 41.541669 " transform="matrix(0.75, 0, 0, 0.75, 6, 6)"/>
<path fill="none" stroke-width="1" stroke-linecap="round" stroke-linejoin="round" stroke="rgb(5.488586%, 5.488586%, 5.488586%)" stroke-opacity="1" stroke-miterlimit="4" d="M 202.437509 49.171877 C 202.958342 48.911461 204.619801 48.140627 206.411467 48.598961 C 209.598967 49.411461 209.958342 53.260419 209.979176 53.541669 C 210.171884 55.989586 208.671884 58.838544 205.812509 59.859378 C 203.609384 60.640628 201.489592 60.020836 200.359384 59.687503 C 196.697925 58.619794 194.687508 56.130211 193.687508 54.869794 C 190.489592 50.791669 192.052092 48.812502 188.770842 45.911461 C 187.880216 45.119794 186.078133 43.520835 183.317716 43.09896 C 180.447925 42.651044 179.270841 43.890627 176.651049 43.16146 C 174.078133 42.437502 172.750008 40.552085 172.411466 40.020835 C 172.250008 39.781252 170.380216 36.770835 172.140633 33.739585 C 172.500008 33.109377 173.567716 31.281252 175.979174 30.750002 C 178.171883 30.281252 180.578133 31.078127 181.90105 32.651043 C 183.031258 33.989585 183.359383 35.88021 182.479175 37.38021 C 182.291675 37.708335 181.687508 38.729169 180.328133 39.140627 C 179.187508 39.479169 177.739591 39.328127 176.739591 38.531252 C 175.859383 37.81771 175.697924 36.91146 175.671883 36.640627 " transform="matrix(0.75, 0, 0, 0.75, 6, 6)"/>
<path fill="none" stroke-width="1" stroke-linecap="round" stroke-linejoin="round" stroke="rgb(5.488586%, 5.488586%, 5.488586%)" stroke-opacity="1" stroke-miterlimit="4" d="M 190.817717 48.697919 C 190.40105 44.140627 188.067717 40.390627 184.661466 39.171877 C 183.880216 38.890627 182.661466 38.609377 181.041675 38.812502 " transform="matrix(0.75, 0, 0, 0.75, 6, 6)"/>
<path fill="none" stroke-width="1" stroke-linecap="round" stroke-linejoin="round" stroke="rgb(5.488586%, 5.488586%, 5.488586%)" stroke-opacity="1" stroke-miterlimit="4" d="M 194.291675 55.770836 C 193.671883 55.609378 191.08855 55.010419 188.890633 56.447919 C 186.239591 58.187503 185.1823 62.218753 186.812508 66.04167 " transform="matrix(0.75, 0, 0, 0.75, 6, 6)"/>
<path fill="none" stroke-width="1" stroke-linecap="round" stroke-linejoin="round" stroke="rgb(5.488586%, 5.488586%, 5.488586%)" stroke-opacity="1" stroke-miterlimit="4" d="M 196.098967 69.520837 C 195.687508 69.500003 194.83855 69.51042 193.937508 69.97917 C 192.479175 70.750003 192.000008 72.161462 191.911467 72.47917 " transform="matrix(0.75, 0, 0, 0.75, 6, 6)"/>
<path fill="none" stroke-width="1" stroke-linecap="round" stroke-linejoin="round" stroke="rgb(5.488586%, 5.488586%, 5.488586%)" stroke-opacity="1" stroke-miterlimit="4" d="M 210.750009 121.270839 C 210.729176 121.130214 210.708342 120.880214 210.671884 120.588547 C 209.890634 113.739588 205.479176 81.76042 179.182299 58.432294 C 175.911466 55.531253 170.838549 51.458336 163.859382 47.500002 " transform="matrix(0.75, 0, 0, 0.75, 6, 6)"/>
<path fill-rule="nonzero" fill="rgb(0%, 0%, 0%)" fill-opacity="1" stroke-width="0.75" stroke-linecap="round" stroke-linejoin="round" stroke="rgb(0%, 0%, 0%)" stroke-opacity="1" stroke-miterlimit="4" d="M 112.338547 43.06771 C 112.270838 42.239585 111.932297 39.328127 109.520838 36.859377 C 107.35938 34.640627 104.817713 34.109377 103.947921 33.958335 C 104.020838 33.088543 104.088546 32.218752 104.161463 31.34896 C 105.302088 30.81771 107.588546 29.562502 109.489588 27.010418 C 111.42188 24.421876 111.968755 21.838543 112.151047 20.588543 C 112.598963 22.151043 113.588547 24.81771 115.848963 27.421876 C 117.588547 29.421877 119.437505 30.640627 120.718755 31.34896 C 120.791672 32.218752 120.85938 33.088543 120.932297 33.958335 C 120.312505 34.020835 116.317714 34.479168 113.92188 37.968752 C 112.510422 40.031252 112.338547 42.13021 112.317713 43.06771 Z M 112.338547 43.06771 " transform="matrix(0.75, 0, 0, 0.75, 6, 6)"/>
<path fill="none" stroke-width="1" stroke-linecap="round" stroke-linejoin="round" stroke="rgb(5.488586%, 5.488586%, 5.488586%)" stroke-opacity="1" stroke-miterlimit="4" d="M 154.171882 29.140627 C 153.062507 28.81771 151.229173 28.468752 149.161465 28.968752 C 147.348965 29.401043 146.130215 30.281252 145.437506 30.802085 C 139.359381 35.359377 138.458339 38.901044 134.281256 40.500002 C 133.739589 40.708335 129.828131 42.000002 125.890631 40.16146 C 123.10938 38.859377 121.130214 35.901043 120.817714 32.687502 C 120.380214 28.088543 123.57813 23.541668 127.291672 22.708335 C 127.718756 22.609376 130.062506 22.088543 131.968756 23.520835 C 132.208339 23.697918 133.687506 24.838543 133.901048 26.84896 C 133.932298 27.151043 134.171881 29.739585 132.187506 31.000002 C 131.078131 31.697918 129.671881 31.739585 128.552089 31.218752 C 126.958339 30.489585 126.000006 28.66146 126.250006 26.697918 C 125.859381 27.13021 125.317714 27.802085 124.890631 28.718752 C 124.682297 29.16146 123.317714 32.171877 124.619797 35.062502 C 126.197922 38.578127 130.510422 39.197919 131.088547 39.281252 C 134.937506 39.828127 138.937506 37.812502 141.562506 34.182293 " transform="matrix(0.75, 0, 0, 0.75, 6, 6)"/>
<path fill="none" stroke-width="1" stroke-linecap="round" stroke-linejoin="round" stroke="rgb(5.488586%, 5.488586%, 5.488586%)" stroke-opacity="1" stroke-miterlimit="4" d="M 120.729172 31.229168 C 119.260422 30.500002 118.229172 29.687502 117.567714 29.088543 C 113.10938 25.031251 112.682297 19.000001 112.520838 16.781251 C 112.411463 15.260418 112.468755 14.000001 112.541672 13.151043 " transform="matrix(0.75, 0, 0, 0.75, 6, 6)"/>
<path fill="none" stroke-width="1" stroke-linecap="round" stroke-linejoin="round" stroke="rgb(5.488586%, 5.488586%, 5.488586%)" stroke-opacity="1" stroke-miterlimit="4" d="M 120.937505 33.838543 C 119.989589 34.010418 118.958339 34.312502 117.937505 34.828127 C 113.32813 37.182294 112.651047 42.09896 112.552088 42.947919 " transform="matrix(0.75, 0, 0, 0.75, 6, 6)"/>
<path fill="none" stroke-width="1" stroke-linecap="round" stroke-linejoin="round" stroke="rgb(5.488586%, 5.488586%, 5.488586%)" stroke-opacity="1" stroke-miterlimit="4" d="M 153.218757 38.281252 C 153.067715 38.619794 152.281257 40.369794 150.432298 40.947919 C 148.468757 41.56771 146.750006 40.432294 146.031256 39.947919 C 143.000006 37.937502 142.697923 34.109377 142.671881 33.489585 " transform="matrix(0.75, 0, 0, 0.75, 6, 6)"/>
<path fill="none" stroke-width="1" stroke-linecap="round" stroke-linejoin="round" stroke="rgb(5.488586%, 5.488586%, 5.488586%)" stroke-opacity="1" stroke-miterlimit="4" d="M 163.859382 47.500002 C 163.000007 47.010419 161.791674 46.270836 160.432299 45.281252 C 156.500007 42.421877 153.432298 40.187502 152.630215 36.552085 C 151.901048 33.239585 153.390632 30.447918 153.651048 29.979168 C 156.098965 25.562501 161.229174 24.828126 162.291674 24.708335 C 167.062507 24.171876 171.901049 26.687501 174.932299 31.088543 " transform="matrix(0.75, 0, 0, 0.75, 6, 6)"/>
<path fill="none" stroke-width="1" stroke-linecap="round" stroke-linejoin="round" stroke="rgb(5.488586%, 5.488586%, 5.488586%)" stroke-opacity="1" stroke-miterlimit="4" d="M 174.260424 54.369794 C 174.312508 44.078127 171.791674 36.000002 167.802091 33.770835 C 165.750007 32.63021 163.671882 32.59896 163.671882 32.59896 C 162.979174 32.59896 159.48959 32.651043 157.281257 35.531252 C 155.312507 38.09896 155.80209 41.041669 155.890632 41.541669 " transform="matrix(0.75, 0, 0, 0.75, 6, 6)"/>
<path fill="none" stroke-width="1" stroke-linecap="round" stroke-linejoin="round" stroke="rgb(5.488586%, 5.488586%, 5.488586%)" stroke-opacity="1" stroke-miterlimit="4" d="M 202.437509 49.171877 C 202.958342 48.911461 204.619801 48.140627 206.411467 48.598961 C 209.598967 49.411461 209.958342 53.260419 209.979176 53.541669 C 210.171884 55.989586 208.671884 58.838544 205.812509 59.859378 C 203.609384 60.640628 201.489592 60.020836 200.359384 59.687503 C 196.697925 58.619794 194.687508 56.130211 193.687508 54.869794 C 190.489592 50.791669 192.052092 48.812502 188.770842 45.911461 C 187.880216 45.119794 186.078133 43.520835 183.317716 43.09896 C 180.447925 42.651044 179.270841 43.890627 176.651049 43.16146 C 174.078133 42.437502 172.750008 40.552085 172.411466 40.020835 C 172.250008 39.781252 170.380216 36.770835 172.140633 33.739585 C 172.500008 33.109377 173.567716 31.281252 175.979174 30.750002 C 178.171883 30.281252 180.578133 31.078127 181.90105 32.651043 C 183.031258 33.989585 183.359383 35.88021 182.479175 37.38021 C 182.291675 37.708335 181.687508 38.729169 180.328133 39.140627 C 179.187508 39.479169 177.739591 39.328127 176.739591 38.531252 C 175.859383 37.81771 175.697924 36.91146 175.671883 36.640627 " transform="matrix(0.75, 0, 0, 0.75, 6, 6)"/>
<path fill="none" stroke-width="1" stroke-linecap="round" stroke-linejoin="round" stroke="rgb(5.488586%, 5.488586%, 5.488586%)" stroke-opacity="1" stroke-miterlimit="4" d="M 190.817717 48.697919 C 190.40105 44.140627 188.067717 40.390627 184.661466 39.171877 C 183.880216 38.890627 182.661466 38.609377 181.041675 38.812502 " transform="matrix(0.75, 0, 0, 0.75, 6, 6)"/>
<path fill="none" stroke-width="1" stroke-linecap="round" stroke-linejoin="round" stroke="rgb(5.488586%, 5.488586%, 5.488586%)" stroke-opacity="1" stroke-miterlimit="4" d="M 210.619801 64.802086 C 208.979176 61.989586 206.359384 60.239586 203.750009 60.401045 C 200.520842 60.598961 198.6198 63.630211 197.802092 64.937503 C 193.1823 72.312503 198.1198 82.380212 198.880217 83.890629 " transform="matrix(0.75, 0, 0, 0.75, 6, 6)"/>
<path fill="none" stroke-width="1" stroke-linecap="round" stroke-linejoin="round" stroke="rgb(5.488586%, 5.488586%, 5.488586%)" stroke-opacity="1" stroke-miterlimit="4" d="M 210.697926 120.35938 C 208.817717 107.489588 202.708342 79.338545 179.182299 58.432294 C 174.062508 53.880211 168.828132 50.312502 163.859382 47.500002 " transform="matrix(0.75, 0, 0, 0.75, 6, 6)"/>
<g clip-path="url(#clip-3)">
<g clip-path="url(#clip-4)">
<path fill-rule="nonzero" fill="url(#linear-pattern-1)" d="M 16.914062 154.46875 L 16.914062 233.640625 L 163.628906 233.640625 L 163.628906 154.46875 Z M 16.914062 154.46875 "/>
</g>
</g>
<path fill-rule="nonzero" fill="rgb(100%, 100%, 100%)" fill-opacity="1" d="M 90.300781 211.753906 C 90.351562 212.378906 90.609375 214.558594 92.414062 216.414062 C 94.035156 218.078125 95.941406 218.476562 96.59375 218.585938 C 96.539062 219.238281 96.488281 219.890625 96.433594 220.546875 C 95.578125 220.941406 93.863281 221.886719 92.4375 223.800781 C 90.988281 225.742188 90.578125 227.675781 90.441406 228.613281 C 90.105469 227.445312 89.363281 225.441406 87.667969 223.492188 C 86.363281 221.992188 84.976562 221.078125 84.015625 220.546875 C 83.960938 219.890625 83.910156 219.238281 83.859375 218.585938 C 84.324219 218.542969 87.316406 218.199219 89.113281 215.578125 C 90.171875 214.035156 90.300781 212.460938 90.316406 211.753906 Z M 90.300781 211.753906 "/>
<path fill="none" stroke-width="1" stroke-linecap="round" stroke-linejoin="round" stroke="rgb(5.488586%, 5.488586%, 5.488586%)" stroke-opacity="1" stroke-miterlimit="4" d="M 154.010423 288.260429 C 152.901048 288.578137 151.067715 288.932304 149.000007 288.432304 C 147.187506 288.000012 145.968756 287.119804 145.281256 286.598971 C 139.197923 282.041679 138.302089 278.500012 134.119798 276.901054 C 133.578131 276.687512 129.671881 275.401053 125.729172 277.239595 C 122.947922 278.541679 120.968755 281.500012 120.661464 284.708346 C 120.218755 289.312512 123.42188 293.859388 127.130214 294.687513 C 127.562506 294.791679 129.901047 295.312513 131.812506 293.880221 C 132.052089 293.697929 133.531256 292.562513 133.739589 290.552096 C 133.770839 290.250012 134.010423 287.661471 132.031256 286.401054 C 130.921881 285.697929 129.510422 285.661471 128.390631 286.182304 C 126.802089 286.911471 125.838547 288.739596 126.088547 290.697929 C 125.697922 290.270846 125.161464 289.598971 124.729172 288.682304 C 124.520839 288.239596 123.161464 285.229179 124.458339 282.338554 C 126.041672 278.81772 130.348964 278.197929 130.932297 278.119804 C 134.781256 277.56772 138.781256 279.588554 141.401048 283.218762 " transform="matrix(0.75, 0, 0, 0.75, 6, 6)"/>
<path fill="none" stroke-width="1" stroke-linecap="round" stroke-linejoin="round" stroke="rgb(5.488586%, 5.488586%, 5.488586%)" stroke-opacity="1" stroke-miterlimit="4" d="M 120.57813 286.171887 C 119.17188 286.869804 118.14063 287.661471 117.42188 288.312512 C 113.270838 292.078138 112.661463 297.567721 112.369797 300.140638 C 112.182297 301.812513 112.197922 303.187513 112.239588 304.04168 " transform="matrix(0.75, 0, 0, 0.75, 6, 6)"/>
<path fill="none" stroke-width="1" stroke-linecap="round" stroke-linejoin="round" stroke="rgb(5.488586%, 5.488586%, 5.488586%)" stroke-opacity="1" stroke-miterlimit="4" d="M 120.791672 283.56772 C 119.838547 283.401054 118.812505 283.09897 117.791672 282.578137 C 113.182297 280.229179 112.500005 275.312512 112.401047 274.458345 " transform="matrix(0.75, 0, 0, 0.75, 6, 6)"/>
<path fill="none" stroke-width="1" stroke-linecap="round" stroke-linejoin="round" stroke="rgb(5.488586%, 5.488586%, 5.488586%)" stroke-opacity="1" stroke-miterlimit="4" d="M 70.567712 288.260429 C 71.682295 288.578137 73.51042 288.932304 75.578128 288.432304 C 77.390629 288.000012 78.609379 287.119804 79.302087 286.598971 C 85.380212 282.041679 86.281254 278.500012 90.458337 276.901054 C 91.000004 276.687512 94.911463 275.401053 98.848963 277.239595 C 101.630213 278.541679 103.60938 281.500012 103.92188 284.708346 C 104.35938 289.312512 101.161463 293.859388 97.447921 294.687513 C 97.020838 294.791679 94.682296 295.312513 92.770838 293.880221 C 92.531254 293.697929 91.052087 292.562513 90.838546 290.552096 C 90.812504 290.250012 90.567712 287.661471 92.552088 286.401054 C 93.661463 285.697929 95.067713 285.661471 96.187504 286.182304 C 97.781254 286.911471 98.739588 288.739596 98.489588 290.697929 C 98.880213 290.270846 99.421879 289.598971 99.848963 288.682304 C 100.062505 288.239596 101.42188 285.229179 100.119796 282.338554 C 98.541671 278.81772 94.229171 278.197929 93.651046 278.119804 C 89.802087 277.56772 85.802087 279.588554 83.182295 283.218762 " transform="matrix(0.75, 0, 0, 0.75, 6, 6)"/>
<path fill="none" stroke-width="1" stroke-linecap="round" stroke-linejoin="round" stroke="rgb(5.488586%, 5.488586%, 5.488586%)" stroke-opacity="1" stroke-miterlimit="4" d="M 103.791671 283.56772 C 104.697921 283.432304 105.739588 283.140637 106.791671 282.578137 C 111.067713 280.31772 112.182297 275.489595 112.39063 274.458345 " transform="matrix(0.75, 0, 0, 0.75, 6, 6)"/>
<path fill="none" stroke-width="1" stroke-linecap="round" stroke-linejoin="round" stroke="rgb(5.488586%, 5.488586%, 5.488586%)" stroke-opacity="1" stroke-miterlimit="4" d="M 71.520837 279.119804 C 71.671878 278.781262 72.458337 277.031262 74.312503 276.447929 C 76.270837 275.828137 77.989587 276.968762 78.708337 277.447929 C 81.739587 279.458345 82.04167 283.291679 82.067712 283.91147 " transform="matrix(0.75, 0, 0, 0.75, 6, 6)"/>
<path fill="none" stroke-width="1" stroke-linecap="round" stroke-linejoin="round" stroke="rgb(5.488586%, 5.488586%, 5.488586%)" stroke-opacity="1" stroke-miterlimit="4" d="M 60.880211 269.901053 C 61.739586 270.390637 62.94792 271.13022 64.312503 272.119803 C 68.239587 274.979178 71.312503 277.208345 72.109378 280.84897 C 72.838545 284.161471 71.348962 286.947929 71.088545 287.421887 C 68.640628 291.838554 63.51042 292.567721 62.44792 292.687513 C 57.682294 293.229179 52.838544 290.708346 49.812502 286.312512 " transform="matrix(0.75, 0, 0, 0.75, 6, 6)"/>
<path fill="none" stroke-width="1" stroke-linecap="round" stroke-linejoin="round" stroke="rgb(5.488586%, 5.488586%, 5.488586%)" stroke-opacity="1" stroke-miterlimit="4" d="M 50.479169 263.041678 C 50.432294 273.328137 52.947919 281.41147 56.937503 283.640637 C 58.989586 284.781262 61.067711 284.812512 61.067711 284.812512 C 61.76042 284.812512 65.250003 284.760429 67.458336 281.88022 C 69.432295 279.312512 68.937503 276.369804 68.848962 275.869803 " transform="matrix(0.75, 0, 0, 0.75, 6, 6)"/>
<path fill="none" stroke-width="1" stroke-linecap="round" stroke-linejoin="round" stroke="rgb(5.488586%, 5.488586%, 5.488586%)" stroke-opacity="1" stroke-miterlimit="4" d="M 22.302085 268.239595 C 21.781251 268.500012 20.119793 269.270845 18.328126 268.812512 C 15.140626 268.000012 14.781251 264.151053 14.760418 263.869803 C 14.567709 261.421886 16.067709 258.567719 18.932293 257.552094 C 21.13021 256.770844 23.250001 257.390636 24.38021 257.718761 C 28.041668 258.791678 30.052085 261.281261 31.052085 262.541678 C 34.250002 266.619803 32.687502 268.59897 35.968752 271.500012 C 36.859377 272.291678 38.66146 273.890637 41.421877 274.312512 C 44.291669 274.760428 45.468752 273.520845 48.088544 274.250012 C 50.661461 274.968762 51.989586 276.859387 52.328128 277.390637 C 52.489586 277.63022 54.359378 280.640637 52.598961 283.671887 C 52.239586 284.302096 51.171877 286.130221 48.760419 286.661471 C 46.567711 287.130221 44.161461 286.328137 42.838544 284.760429 C 41.708335 283.421887 41.38021 281.531262 42.260419 280.031262 C 42.447919 279.697929 43.052085 278.682304 44.411461 278.270845 C 45.552086 277.932304 47.000002 278.078137 48.000002 278.88022 C 48.880211 279.588554 49.041669 280.500012 49.067711 280.770845 " transform="matrix(0.75, 0, 0, 0.75, 6, 6)"/>
<path fill="none" stroke-width="1" stroke-linecap="round" stroke-linejoin="round" stroke="rgb(5.488586%, 5.488586%, 5.488586%)" stroke-opacity="1" stroke-miterlimit="4" d="M 33.91146 268.697928 C 34.328127 273.260428 36.66146 277.010429 40.06771 278.229179 C 40.84896 278.510429 42.06771 278.791679 43.687502 278.588554 " transform="matrix(0.75, 0, 0, 0.75, 6, 6)"/>
<path fill="none" stroke-width="1" stroke-linecap="round" stroke-linejoin="round" stroke="rgb(5.488586%, 5.488586%, 5.488586%)" stroke-opacity="1" stroke-miterlimit="4" d="M 30.447918 261.63022 C 31.088543 261.791678 33.651043 262.369803 35.84896 260.947928 C 38.520835 259.208344 39.609377 255.182303 38.000002 251.338552 " transform="matrix(0.75, 0, 0, 0.75, 6, 6)"/>
<path fill="none" stroke-width="1" stroke-linecap="round" stroke-linejoin="round" stroke="rgb(5.488586%, 5.488586%, 5.488586%)" stroke-opacity="1" stroke-miterlimit="4" d="M 28.640627 247.880219 C 29.052085 247.901052 29.901043 247.890636 30.802085 247.421886 C 32.302085 246.630219 32.760418 245.161469 32.84896 244.859386 " transform="matrix(0.75, 0, 0, 0.75, 6, 6)"/>
<path fill="none" stroke-width="1" stroke-linecap="round" stroke-linejoin="round" stroke="rgb(5.488586%, 5.488586%, 5.488586%)" stroke-opacity="1" stroke-miterlimit="4" d="M 14.161459 195.098967 C 15.760418 207.979176 21.38021 237.421885 45.562502 258.968761 C 50.671877 263.520845 55.890628 267.088553 60.880211 269.901053 " transform="matrix(0.75, 0, 0, 0.75, 6, 6)"/>
<path fill-rule="nonzero" fill="rgb(0%, 0%, 0%)" fill-opacity="1" stroke-width="0.75" stroke-linecap="round" stroke-linejoin="round" stroke="rgb(0%, 0%, 0%)" stroke-opacity="1" stroke-miterlimit="4" d="M 112.401047 274.338553 C 112.468755 275.171887 112.812505 278.078137 115.218755 280.552095 C 117.380214 282.770845 119.92188 283.302095 120.791672 283.447929 C 120.718755 284.317721 120.651047 285.187512 120.57813 286.062512 C 119.958339 286.338554 119.10938 286.781262 118.197922 287.468762 C 116.151047 289.041679 115.17188 290.880221 114.312505 292.541679 C 113.562505 294.000013 112.588547 296.260429 112.088547 299.239596 C 112.07813 297.812513 111.85938 293.697929 108.880213 289.979179 C 107.187505 287.859387 105.250005 286.671887 104.010421 286.052096 C 103.937505 285.182304 103.869796 284.312512 103.802088 283.437512 C 104.42188 283.38022 108.411463 282.921887 110.812505 279.432304 C 112.218755 277.369804 112.39063 275.270845 112.411463 274.328137 Z M 112.401047 274.338553 " transform="matrix(0.75, 0, 0, 0.75, 6, 6)"/>
<path fill="none" stroke-width="1" stroke-linecap="round" stroke-linejoin="round" stroke="rgb(5.488586%, 5.488586%, 5.488586%)" stroke-opacity="1" stroke-miterlimit="4" d="M 70.567712 288.260429 C 71.682295 288.578137 73.51042 288.932304 75.578128 288.432304 C 77.390629 288.000012 78.609379 287.119804 79.302087 286.598971 C 85.380212 282.041679 86.281254 278.500012 90.458337 276.901054 C 91.000004 276.687512 94.911463 275.401053 98.848963 277.239595 C 101.630213 278.541679 103.60938 281.500012 103.92188 284.708346 C 104.35938 289.312512 101.161463 293.859388 97.447921 294.687513 C 97.020838 294.791679 94.682296 295.312513 92.770838 293.880221 C 92.531254 293.697929 91.052087 292.562513 90.838546 290.552096 C 90.812504 290.250012 90.567712 287.661471 92.552088 286.401054 C 93.661463 285.697929 95.067713 285.661471 96.187504 286.182304 C 97.781254 286.911471 98.739588 288.739596 98.489588 290.697929 C 98.880213 290.270846 99.421879 289.598971 99.848963 288.682304 C 100.062505 288.239596 101.42188 285.229179 100.119796 282.338554 C 98.541671 278.81772 94.229171 278.197929 93.651046 278.119804 C 89.802087 277.56772 85.802087 279.588554 83.182295 283.218762 " transform="matrix(0.75, 0, 0, 0.75, 6, 6)"/>
<path fill="none" stroke-width="1" stroke-linecap="round" stroke-linejoin="round" stroke="rgb(5.488586%, 5.488586%, 5.488586%)" stroke-opacity="1" stroke-miterlimit="4" d="M 104.000005 286.171887 C 104.82813 286.567721 105.989588 287.239596 107.161463 288.312512 C 109.630213 290.588554 110.520838 293.229179 111.208338 295.390638 C 112.281255 298.729179 112.39063 301.770846 112.239588 304.04168 " transform="matrix(0.75, 0, 0, 0.75, 6, 6)"/>
<path fill="none" stroke-width="1" stroke-linecap="round" stroke-linejoin="round" stroke="rgb(5.488586%, 5.488586%, 5.488586%)" stroke-opacity="1" stroke-miterlimit="4" d="M 103.791671 283.56772 C 104.697921 283.432304 105.739588 283.140637 106.791671 282.578137 C 111.10938 280.291679 112.187505 275.34897 112.39063 274.338553 " transform="matrix(0.75, 0, 0, 0.75, 6, 6)"/>
<path fill="none" stroke-width="1" stroke-linecap="round" stroke-linejoin="round" stroke="rgb(5.488586%, 5.488586%, 5.488586%)" stroke-opacity="1" stroke-miterlimit="4" d="M 71.520837 279.119804 C 71.671878 278.781262 72.458337 277.031262 74.312503 276.447929 C 76.270837 275.828137 77.989587 276.968762 78.708337 277.447929 C 81.739587 279.458345 82.04167 283.291679 82.067712 283.91147 " transform="matrix(0.75, 0, 0, 0.75, 6, 6)"/>
<path fill="none" stroke-width="1" stroke-linecap="round" stroke-linejoin="round" stroke="rgb(5.488586%, 5.488586%, 5.488586%)" stroke-opacity="1" stroke-miterlimit="4" d="M 60.880211 269.901053 C 61.739586 270.390637 62.94792 271.13022 64.312503 272.119803 C 68.239587 274.979178 71.312503 277.208345 72.109378 280.84897 C 72.838545 284.161471 71.348962 286.947929 71.088545 287.421887 C 68.640628 291.838554 63.51042 292.567721 62.44792 292.687513 C 57.682294 293.229179 52.838544 290.708346 49.812502 286.312512 " transform="matrix(0.75, 0, 0, 0.75, 6, 6)"/>
<path fill="none" stroke-width="1" stroke-linecap="round" stroke-linejoin="round" stroke="rgb(5.488586%, 5.488586%, 5.488586%)" stroke-opacity="1" stroke-miterlimit="4" d="M 50.479169 263.041678 C 50.432294 273.328137 52.947919 281.41147 56.937503 283.640637 C 58.989586 284.781262 61.067711 284.812512 61.067711 284.812512 C 61.76042 284.812512 65.250003 284.760429 67.458336 281.88022 C 69.432295 279.312512 68.937503 276.369804 68.848962 275.869803 " transform="matrix(0.75, 0, 0, 0.75, 6, 6)"/>
<path fill="none" stroke-width="1" stroke-linecap="round" stroke-linejoin="round" stroke="rgb(5.488586%, 5.488586%, 5.488586%)" stroke-opacity="1" stroke-miterlimit="4" d="M 22.302085 268.239595 C 21.781251 268.500012 20.119793 269.270845 18.328126 268.812512 C 15.140626 268.000012 14.781251 264.151053 14.760418 263.869803 C 14.567709 261.421886 16.067709 258.567719 18.932293 257.552094 C 21.13021 256.770844 23.250001 257.390636 24.38021 257.718761 C 28.041668 258.791678 30.052085 261.281261 31.052085 262.541678 C 34.250002 266.619803 32.687502 268.59897 35.968752 271.500012 C 36.859377 272.291678 38.66146 273.890637 41.421877 274.312512 C 44.291669 274.760428 45.468752 273.520845 48.088544 274.250012 C 50.661461 274.968762 51.989586 276.859387 52.328128 277.390637 C 52.489586 277.63022 54.359378 280.640637 52.598961 283.671887 C 52.239586 284.302096 51.171877 286.130221 48.760419 286.661471 C 46.567711 287.130221 44.161461 286.328137 42.838544 284.760429 C 41.708335 283.421887 41.38021 281.531262 42.260419 280.031262 C 42.447919 279.697929 43.052085 278.682304 44.411461 278.270845 C 45.552086 277.932304 47.000002 278.078137 48.000002 278.88022 C 48.880211 279.588554 49.041669 280.500012 49.067711 280.770845 " transform="matrix(0.75, 0, 0, 0.75, 6, 6)"/>
<path fill="none" stroke-width="1" stroke-linecap="round" stroke-linejoin="round" stroke="rgb(5.488586%, 5.488586%, 5.488586%)" stroke-opacity="1" stroke-miterlimit="4" d="M 33.91146 268.697928 C 34.328127 273.260428 36.66146 277.010429 40.06771 278.229179 C 40.84896 278.510429 42.06771 278.791679 43.687502 278.588554 " transform="matrix(0.75, 0, 0, 0.75, 6, 6)"/>
<path fill="none" stroke-width="1" stroke-linecap="round" stroke-linejoin="round" stroke="rgb(5.488586%, 5.488586%, 5.488586%)" stroke-opacity="1" stroke-miterlimit="4" d="M 14.218751 252.791678 C 14.338543 252.989594 17.000001 257.250011 20.979168 257.000011 C 24.197918 256.802094 26.09896 253.781261 26.932293 252.458344 C 31.541668 245.098969 26.609376 235.020843 25.84896 233.510427 " transform="matrix(0.75, 0, 0, 0.75, 6, 6)"/>
<path fill="none" stroke-width="1" stroke-linecap="round" stroke-linejoin="round" stroke="rgb(5.488586%, 5.488586%, 5.488586%)" stroke-opacity="1" stroke-miterlimit="4" d="M 30.447918 261.63022 C 31.088543 261.791678 33.651043 262.369803 35.84896 260.947928 C 38.520835 259.208344 39.609377 255.182303 38.000002 251.338552 " transform="matrix(0.75, 0, 0, 0.75, 6, 6)"/>
<path fill="none" stroke-width="1" stroke-linecap="round" stroke-linejoin="round" stroke="rgb(5.488586%, 5.488586%, 5.488586%)" stroke-opacity="1" stroke-miterlimit="4" d="M 28.640627 247.880219 C 29.052085 247.901052 29.901043 247.890636 30.802085 247.421886 C 32.302085 246.630219 32.760418 245.161469 32.84896 244.859386 " transform="matrix(0.75, 0, 0, 0.75, 6, 6)"/>
<path fill="none" stroke-width="1" stroke-linecap="round" stroke-linejoin="round" stroke="rgb(5.488586%, 5.488586%, 5.488586%)" stroke-opacity="1" stroke-miterlimit="4" d="M 14.161459 195.098967 C 15.760418 207.979176 21.38021 237.421885 45.562502 258.968761 C 50.671877 263.520845 55.890628 267.088553 60.880211 269.901053 " transform="matrix(0.75, 0, 0, 0.75, 6, 6)"/>
<path fill-rule="nonzero" fill="rgb(0%, 0%, 0%)" fill-opacity="1" d="M 45.089844 42.246094 C 45.308594 42.855469 45.421875 43.460938 45.421875 44.085938 C 45.421875 44.664062 45.324219 45.226562 45.121094 45.78125 C 44.691406 46.941406 43.695312 48.058594 42.121094 49.140625 C 40.125 50.460938 37.964844 51.121094 35.65625 51.121094 C 34.867188 51.121094 34.109375 51.046875 33.367188 50.886719 C 31.90625 50.585938 30.539062 50.003906 29.273438 49.148438 C 28.050781 48.308594 27.15625 47.386719 26.585938 46.371094 C 26.167969 45.609375 25.957031 44.828125 25.957031 44.015625 C 25.957031 43.515625 26.03125 43.003906 26.191406 42.496094 C 26.484375 41.617188 26.933594 40.875 27.546875 40.273438 C 28.164062 39.675781 28.785156 39.171875 29.421875 38.773438 C 29.796875 38.535156 30.1875 38.316406 30.585938 38.113281 C 30.609375 38.113281 30.644531 38.09375 30.699219 38.054688 C 30.726562 38.03125 30.75 38.023438 30.757812 38.023438 C 30.058594 37.6875 29.421875 37.261719 28.859375 36.734375 C 28.296875 36.210938 27.898438 35.535156 27.683594 34.695312 C 27.601562 34.351562 27.554688 34.003906 27.554688 33.660156 C 27.554688 32.84375 27.773438 32.070312 28.214844 31.335938 C 28.589844 30.726562 29.085938 30.21875 29.707031 29.8125 C 30.480469 29.339844 31.183594 29.003906 31.824219 28.792969 C 32.992188 28.363281 34.238281 28.148438 35.558594 28.148438 C 35.828125 28.148438 36.097656 28.148438 36.359375 28.164062 C 37.851562 28.273438 39.285156 28.648438 40.65625 29.28125 C 42.929688 30.367188 44.0625 31.859375 44.0625 33.765625 C 44.0625 34.402344 43.921875 35.015625 43.636719 35.617188 C 43.574219 35.773438 43.484375 35.925781 43.386719 36.074219 C 43.378906 36.105469 43.359375 36.136719 43.328125 36.164062 C 43.003906 36.636719 42.613281 37.027344 42.164062 37.335938 C 41.714844 37.640625 41.257812 37.90625 40.800781 38.113281 C 40.800781 38.121094 40.800781 38.128906 40.816406 38.128906 C 41.378906 38.398438 41.984375 38.773438 42.636719 39.253906 C 43.289062 39.726562 43.867188 40.304688 44.378906 40.972656 C 44.675781 41.371094 44.917969 41.796875 45.082031 42.253906 Z M 41.585938 42.71875 C 40.769531 41.863281 39.855469 41.152344 38.84375 40.589844 C 36.9375 39.554688 35.085938 39.039062 33.269531 39.039062 C 31.65625 39.039062 30.277344 39.457031 29.128906 40.289062 C 28.410156 40.84375 28.050781 41.496094 28.050781 42.246094 C 28.050781 42.75 28.214844 43.265625 28.550781 43.800781 C 29.160156 44.753906 30.136719 45.71875 31.484375 46.703125 C 32.65625 47.558594 33.890625 48.179688 35.191406 48.570312 C 36.164062 48.855469 37.117188 48.988281 38.0625 48.988281 C 38.851562 48.988281 39.59375 48.890625 40.289062 48.691406 C 41.4375 48.34375 42.324219 47.820312 42.921875 47.109375 C 43.265625 46.679688 43.441406 46.222656 43.441406 45.742188 C 43.441406 45.660156 43.441406 45.570312 43.425781 45.472656 C 43.335938 44.96875 43.09375 44.484375 42.726562 43.996094 C 42.359375 43.507812 41.976562 43.085938 41.585938 42.703125 Z M 42.03125 36.015625 C 42.15625 35.804688 42.21875 35.59375 42.21875 35.386719 C 42.21875 35.121094 42.148438 34.875 42.023438 34.636719 C 41.894531 34.394531 41.746094 34.183594 41.578125 33.996094 C 41.414062 33.816406 41.289062 33.675781 41.183594 33.585938 C 41.054688 33.457031 40.933594 33.34375 40.808594 33.238281 C 40.191406 32.714844 39.457031 32.21875 38.609375 31.738281 C 37.761719 31.265625 36.855469 30.871094 35.894531 30.5625 C 34.933594 30.253906 33.984375 30.097656 33.039062 30.097656 C 31.84375 30.097656 30.832031 30.382812 29.992188 30.960938 C 29.691406 31.171875 29.503906 31.453125 29.445312 31.808594 C 29.4375 31.882812 29.429688 31.957031 29.429688 32.039062 C 29.429688 32.429688 29.558594 32.796875 29.820312 33.15625 C 30.613281 34.199219 31.84375 35.128906 33.511719 35.933594 C 35.070312 36.675781 36.683594 37.050781 38.355469 37.050781 C 38.78125 37.050781 39.210938 37.027344 39.644531 36.976562 C 40.125 36.921875 40.589844 36.824219 41.03125 36.691406 C 41.476562 36.554688 41.8125 36.328125 42.03125 36.015625 Z M 42.03125 36.015625 "/>
<path fill-rule="nonzero" fill="rgb(0%, 0%, 0%)" fill-opacity="1" d="M 135.382812 207.898438 C 135.164062 207.292969 135.050781 206.683594 135.050781 206.0625 C 135.050781 205.484375 135.148438 204.921875 135.351562 204.367188 C 135.78125 203.203125 136.777344 202.085938 138.351562 201.007812 C 140.347656 199.6875 142.507812 199.027344 144.816406 199.027344 C 145.605469 199.027344 146.363281 199.101562 147.105469 199.261719 C 148.566406 199.558594 149.933594 200.144531 151.199219 201 C 152.421875 201.839844 153.316406 202.761719 153.886719 203.773438 C 154.304688 204.539062 154.515625 205.320312 154.515625 206.128906 C 154.515625 206.632812 154.441406 207.140625 154.28125 207.652344 C 153.988281 208.53125 153.539062 209.273438 152.925781 209.871094 C 152.308594 210.472656 151.6875 210.976562 151.050781 211.371094 C 150.675781 211.613281 150.285156 211.828125 149.886719 212.03125 C 149.863281 212.03125 149.828125 212.054688 149.773438 212.09375 C 149.746094 212.113281 149.722656 212.121094 149.714844 212.121094 C 150.414062 212.460938 151.050781 212.886719 151.613281 213.414062 C 152.175781 213.9375 152.574219 214.613281 152.789062 215.453125 C 152.871094 215.796875 152.917969 216.140625 152.917969 216.488281 C 152.917969 217.304688 152.699219 218.078125 152.257812 218.8125 C 151.882812 219.421875 151.386719 219.929688 150.765625 220.335938 C 149.992188 220.808594 149.289062 221.144531 148.648438 221.355469 C 147.480469 221.78125 146.234375 222 144.914062 222 C 144.644531 222 144.375 222 144.113281 221.984375 C 142.621094 221.871094 141.1875 221.496094 139.816406 220.867188 C 137.542969 219.78125 136.410156 218.289062 136.410156 216.382812 C 136.410156 215.746094 136.550781 215.128906 136.835938 214.53125 C 136.898438 214.371094 136.988281 214.222656 137.085938 214.074219 C 137.09375 214.042969 137.113281 214.011719 137.144531 213.984375 C 137.46875 213.511719 137.859375 213.121094 138.308594 212.8125 C 138.757812 212.503906 139.214844 212.242188 139.671875 212.03125 C 139.671875 212.023438 139.671875 212.015625 139.65625 212.015625 C 139.09375 211.746094 138.488281 211.371094 137.835938 210.890625 C 137.183594 210.421875 136.605469 209.84375 136.09375 209.175781 C 135.796875 208.777344 135.554688 208.351562 135.390625 207.890625 Z M 138.886719 207.433594 C 139.703125 208.289062 140.617188 209.003906 141.628906 209.566406 C 143.535156 210.601562 145.386719 211.117188 147.203125 211.117188 C 148.816406 211.117188 150.195312 210.699219 151.34375 209.863281 C 152.0625 209.308594 152.421875 208.65625 152.421875 207.90625 C 152.421875 207.40625 152.257812 206.886719 151.921875 206.355469 C 151.3125 205.402344 150.335938 204.433594 148.988281 203.453125 C 147.816406 202.597656 146.578125 201.976562 145.28125 201.585938 C 144.308594 201.300781 143.355469 201.164062 142.410156 201.164062 C 141.621094 201.164062 140.878906 201.261719 140.183594 201.464844 C 139.035156 201.808594 138.148438 202.335938 137.550781 203.046875 C 137.203125 203.476562 137.03125 203.933594 137.03125 204.414062 C 137.03125 204.496094 137.03125 204.585938 137.046875 204.683594 C 137.136719 205.183594 137.378906 205.671875 137.746094 206.160156 C 138.113281 206.648438 138.496094 207.066406 138.886719 207.449219 Z M 138.441406 214.132812 C 138.316406 214.34375 138.253906 214.550781 138.253906 214.761719 C 138.253906 215.023438 138.324219 215.273438 138.449219 215.511719 C 138.578125 215.753906 138.726562 215.960938 138.890625 216.148438 C 139.058594 216.328125 139.183594 216.472656 139.289062 216.5625 C 139.417969 216.691406 139.539062 216.800781 139.664062 216.90625 C 140.28125 217.433594 141.015625 217.925781 141.863281 218.40625 C 142.710938 218.878906 143.617188 219.277344 144.578125 219.585938 C 145.539062 219.890625 146.488281 220.050781 147.433594 220.050781 C 148.628906 220.050781 149.640625 219.765625 150.480469 219.1875 C 150.78125 218.976562 150.96875 218.691406 151.027344 218.339844 C 151.035156 218.265625 151.042969 218.191406 151.042969 218.109375 C 151.042969 217.71875 150.914062 217.351562 150.652344 216.988281 C 149.859375 215.949219 148.628906 215.015625 146.960938 214.214844 C 145.402344 213.472656 143.789062 213.097656 142.117188 213.097656 C 141.691406 213.097656 141.261719 213.121094 140.828125 213.171875 C 140.347656 213.226562 139.882812 213.324219 139.441406 213.457031 C 138.996094 213.59375 138.660156 213.816406 138.441406 214.132812 Z M 138.441406 214.132812 "/>
<path fill-rule="nonzero" fill="rgb(92.158508%, 10.978699%, 14.118958%)" fill-opacity="1" stroke-width="0.75" stroke-linecap="round" stroke-linejoin="round" stroke="rgb(0%, 0%, 0%)" stroke-opacity="1" stroke-miterlimit="4" d="M 74.651045 36.479169 C 71.598962 36.41146 70.890628 38.739585 70.72917 39.859377 C 70.567712 38.739585 69.859378 36.41146 66.812503 36.479169 C 62.79167 36.578127 62.26042 41.078127 63.671878 43.34896 C 65.067711 45.619794 65.802086 46.348961 67.19792 47.802086 C 68.520837 49.171877 70.098962 50.708336 70.682295 51.651044 C 70.682295 51.651044 70.708337 51.760419 70.72917 51.729169 C 70.750003 51.760419 70.781253 51.651044 70.781253 51.651044 C 71.359378 50.708336 72.937503 49.171877 74.26042 47.802086 C 75.661462 46.348961 76.390629 45.619794 77.79167 43.34896 C 79.187504 41.078127 78.661462 36.578127 74.651045 36.479169 Z M 74.651045 36.479169 " transform="matrix(0.75, 0, 0, 0.75, 6, 6)"/>
<path fill-rule="nonzero" fill="rgb(92.158508%, 10.978699%, 14.118958%)" fill-opacity="1" stroke-width="0.75" stroke-linecap="round" stroke-linejoin="round" stroke="rgb(0%, 0%, 0%)" stroke-opacity="1" stroke-miterlimit="4" d="M 149.98959 281.052095 C 153.041673 281.119804 153.750007 278.791679 153.911465 277.671887 C 154.067715 278.791679 154.781257 281.119804 157.828132 281.052095 C 161.848965 280.947929 162.380215 276.447929 160.968757 274.182303 C 159.567715 271.91147 158.838549 271.182303 157.437507 269.729178 C 156.119799 268.359387 154.541673 266.81772 153.95834 265.88022 C 153.95834 265.88022 153.932298 265.770845 153.911465 265.802095 C 153.890632 265.770845 153.859382 265.88022 153.859382 265.88022 C 153.281257 266.81772 151.697923 268.359387 150.380215 269.729178 C 148.979173 271.182303 148.250007 271.91147 146.848965 274.182303 C 145.447923 276.447929 145.979173 280.947929 149.98959 281.052095 Z M 149.98959 281.052095 " transform="matrix(0.75, 0, 0, 0.75, 6, 6)"/>
<path fill-rule="nonzero" fill="rgb(92.158508%, 10.978699%, 14.118958%)" fill-opacity="1" stroke-width="0.75" stroke-linecap="round" stroke-linejoin="round" stroke="rgb(0%, 0%, 0%)" stroke-opacity="1" stroke-miterlimit="4" d="M 91.369796 68.171878 C 85.979171 68.04167 84.739587 72.151045 84.458337 74.130212 C 84.171879 72.151045 82.932295 68.04167 77.552087 68.171878 C 70.468753 68.338545 69.531253 76.281254 72.000003 80.29167 C 74.468753 84.302087 75.750003 85.578129 78.22917 88.140629 C 80.562504 90.552087 83.348962 93.260421 84.369796 94.932296 C 84.369796 94.932296 84.421879 95.119796 84.458337 95.067713 C 84.489587 95.119796 84.552087 94.932296 84.552087 94.932296 C 85.578129 93.270838 88.359379 90.552087 90.687504 88.140629 C 93.161463 85.578129 94.437504 84.302087 96.921879 80.29167 C 99.390629 76.281254 98.458338 68.338545 91.369796 68.171878 Z M 91.369796 68.171878 " transform="matrix(0.75, 0, 0, 0.75, 6, 6)"/>
<path fill-rule="nonzero" fill="rgb(92.158508%, 10.978699%, 14.118958%)" fill-opacity="1" stroke-width="0.75" stroke-linecap="round" stroke-linejoin="round" stroke="rgb(0%, 0%, 0%)" stroke-opacity="1" stroke-miterlimit="4" d="M 91.369796 145.52084 C 85.979171 145.390631 84.739587 149.500007 84.458337 151.479173 C 84.171879 149.500007 82.932295 145.390631 77.552087 145.52084 C 70.468753 145.687506 69.531253 153.630215 72.000003 157.640632 C 74.468753 161.651049 75.750003 162.932299 78.22917 165.489591 C 80.562504 167.901049 83.348962 170.609382 84.369796 172.281258 C 84.369796 172.281258 84.421879 172.468758 84.458337 172.421883 C 84.489587 172.468758 84.552087 172.281258 84.552087 172.281258 C 85.578129 170.619799 88.359379 167.901049 90.687504 165.489591 C 93.161463 162.932299 94.437504 161.651049 96.921879 157.640632 C 99.390629 153.630215 98.458338 145.687506 91.369796 145.52084 Z M 91.369796 145.52084 " transform="matrix(0.75, 0, 0, 0.75, 6, 6)"/>
<path fill-rule="nonzero" fill="rgb(92.158508%, 10.978699%, 14.118958%)" fill-opacity="1" stroke-width="0.75" stroke-linecap="round" stroke-linejoin="round" stroke="rgb(0%, 0%, 0%)" stroke-opacity="1" stroke-miterlimit="4" d="M 147.260423 68.171878 C 141.869798 68.04167 140.630215 72.151045 140.348965 74.130212 C 140.062506 72.151045 138.817714 68.04167 133.437506 68.171878 C 126.359381 68.338545 125.421881 76.281254 127.890631 80.29167 C 130.359381 84.302087 131.640631 85.578129 134.119798 88.140629 C 136.447923 90.552087 139.239589 93.260421 140.260423 94.932296 C 140.260423 94.932296 140.312506 95.119796 140.348965 95.067713 C 140.380215 95.119796 140.437506 94.932296 140.437506 94.932296 C 141.468756 93.270838 144.250006 90.552087 146.578131 88.140629 C 149.05209 85.578129 150.328132 84.302087 152.812507 80.29167 C 155.281257 76.281254 154.348965 68.338545 147.260423 68.171878 Z M 147.260423 68.171878 " transform="matrix(0.75, 0, 0, 0.75, 6, 6)"/>
<path fill-rule="nonzero" fill="rgb(92.158508%, 10.978699%, 14.118958%)" fill-opacity="1" stroke-width="0.75" stroke-linecap="round" stroke-linejoin="round" stroke="rgb(0%, 0%, 0%)" stroke-opacity="1" stroke-miterlimit="4" d="M 147.260423 145.52084 C 141.869798 145.390631 140.630215 149.500007 140.348965 151.479173 C 140.062506 149.500007 138.817714 145.390631 133.437506 145.52084 C 126.359381 145.687506 125.421881 153.630215 127.890631 157.640632 C 130.359381 161.651049 131.640631 162.932299 134.119798 165.489591 C 136.447923 167.901049 139.239589 170.609382 140.260423 172.281258 C 140.260423 172.281258 140.312506 172.468758 140.348965 172.421883 C 140.380215 172.468758 140.437506 172.281258 140.437506 172.281258 C 141.468756 170.619799 144.250006 167.901049 146.578131 165.489591 C 149.05209 162.932299 150.328132 161.651049 152.812507 157.640632 C 155.281257 153.630215 154.348965 145.687506 147.260423 145.52084 Z M 147.260423 145.52084 " transform="matrix(0.75, 0, 0, 0.75, 6, 6)"/>
<path fill-rule="nonzero" fill="rgb(92.158508%, 10.978699%, 14.118958%)" fill-opacity="1" stroke-width="0.75" stroke-linecap="round" stroke-linejoin="round" stroke="rgb(0%, 0%, 0%)" stroke-opacity="1" stroke-miterlimit="4" d="M 91.598962 223.109385 C 86.208337 222.979176 84.968754 227.088551 84.687504 229.067718 C 84.401046 227.088551 83.161462 222.979176 77.781254 223.109385 C 70.69792 223.28126 69.76042 231.21876 72.22917 235.229177 C 74.69792 239.239594 75.97917 240.520844 78.458337 243.078135 C 80.79167 245.489594 83.578129 248.197927 84.598962 249.869802 C 84.598962 249.869802 84.651046 250.062511 84.687504 250.010427 C 84.718754 250.062511 84.781254 249.869802 84.781254 249.869802 C 85.807296 248.208344 88.588546 245.489594 90.921879 243.078135 C 93.390629 240.520844 94.671879 239.239594 97.151046 235.229177 C 99.619796 231.21876 98.687504 223.28126 91.598962 223.109385 Z M 91.598962 223.109385 " transform="matrix(0.75, 0, 0, 0.75, 6, 6)"/>
<path fill-rule="nonzero" fill="rgb(92.158508%, 10.978699%, 14.118958%)" fill-opacity="1" stroke-width="0.75" stroke-linecap="round" stroke-linejoin="round" stroke="rgb(0%, 0%, 0%)" stroke-opacity="1" stroke-miterlimit="4" d="M 147.260423 223.109385 C 141.869798 222.979176 140.630215 227.088551 140.348965 229.067718 C 140.062506 227.088551 138.817714 222.979176 133.437506 223.109385 C 126.359381 223.28126 125.421881 231.21876 127.890631 235.229177 C 130.359381 239.239594 131.640631 240.520844 134.119798 243.078135 C 136.447923 245.489594 139.239589 248.197927 140.260423 249.869802 C 140.260423 249.869802 140.312506 250.062511 140.348965 250.010427 C 140.380215 250.062511 140.437506 249.869802 140.437506 249.869802 C 141.468756 248.208344 144.250006 245.489594 146.578131 243.078135 C 149.05209 240.520844 150.328132 239.239594 152.812507 235.229177 C 155.281257 231.21876 154.348965 223.28126 147.260423 223.109385 Z M 147.260423 223.109385 " transform="matrix(0.75, 0, 0, 0.75, 6, 6)"/>
<path fill-rule="nonzero" fill="rgb(92.158508%, 10.978699%, 14.118958%)" fill-opacity="1" stroke-width="0.75" stroke-linecap="round" stroke-linejoin="round" stroke="rgb(0%, 0%, 0%)" stroke-opacity="1" stroke-miterlimit="4" d="M 119.500005 104.17188 C 114.10938 104.041671 112.869797 108.151047 112.588547 110.130213 C 112.302088 108.151047 111.062505 104.041671 105.682296 104.17188 C 98.598963 104.338546 97.661463 112.281255 100.130213 116.291672 C 102.598963 120.302089 103.880213 121.57813 106.35938 124.140631 C 108.687505 126.552089 111.479172 129.260422 112.500005 130.932297 C 112.500005 130.932297 112.552088 131.119797 112.588547 131.067714 C 112.619797 131.119797 112.682297 130.932297 112.682297 130.932297 C 113.708338 129.270839 116.489589 126.552089 118.817714 124.140631 C 121.291672 121.57813 122.567714 120.302089 125.052089 116.291672 C 127.520839 112.281255 126.588547 104.338546 119.500005 104.17188 Z M 119.500005 104.17188 " transform="matrix(0.75, 0, 0, 0.75, 6, 6)"/>
<path fill-rule="nonzero" fill="rgb(92.158508%, 10.978699%, 14.118958%)" fill-opacity="1" stroke-width="0.75" stroke-linecap="round" stroke-linejoin="round" stroke="rgb(0%, 0%, 0%)" stroke-opacity="1" stroke-miterlimit="4" d="M 119.312505 184.510425 C 113.92188 184.380216 112.682297 188.489592 112.401047 190.468758 C 112.10938 188.489592 110.869797 184.380216 105.489588 184.510425 C 98.411463 184.6823 97.468754 192.6198 99.937504 196.630217 C 102.411463 200.640634 103.687505 201.921884 106.17188 204.479176 C 108.500005 206.890634 111.291672 209.598967 112.312505 211.270842 C 112.312505 211.270842 112.35938 211.458342 112.401047 211.411467 C 112.432297 211.458342 112.489588 211.270842 112.489588 211.270842 C 113.520838 209.609384 116.302089 206.890634 118.630214 204.479176 C 121.098964 201.921884 122.380214 200.640634 124.859381 196.630217 C 127.328131 192.6198 126.401047 184.6823 119.312505 184.510425 Z M 119.312505 184.510425 " transform="matrix(0.75, 0, 0, 0.75, 6, 6)"/>
</svg>
