<svg width="226" height="318" viewBox="0 0 226 318" fill="none" xmlns="http://www.w3.org/2000/svg">
<path d="M217.25 317.16H8.56004C4.13004 317.16 0.540039 313.54 0.540039 309.08V8.32001C0.540039 3.86001 4.13004 0.23999 8.56004 0.23999H217.25C221.68 0.23999 225.27 3.86001 225.27 8.32001V309.08C225.27 313.54 221.68 317.16 217.25 317.16Z" fill="white"/>
<path d="M210.78 117.23C210.78 82.7 210.79 48.16 210.8 13.63C145.66 13.63 80.51 13.63 15.37 13.64C15.34 47.61 15.31 81.58 15.28 115.55C18.7 100.3 25.6 77.81 38.76 65.8C48.83 56.62 53.86 52.02 57.8 50.18C59.63 49.32 65.48 46.79 70.32 40.88C71.22 39.79 71.87 38.83 72.28 38.19C72.7 38.75 74.32 40.82 76.55 40.86C79.45 40.91 82.69 37.51 82.85 32.39C83.19 33.15 86.04 39.21 92.52 40.58C95.64 41.24 98.26 40.54 99.61 40.06C100.49 39.33 101.66 38.2 102.73 36.58C103.78 34.99 104.35 33.5 104.68 32.42H121.41C121.51 33.04 122.32 37.61 126.48 39.89C130.55 42.12 134.68 40.42 135.95 39.91C140.34 38.14 142.2 34.49 142.61 33.63C143.6 38.35 146.9 41.27 149.8 41.04C150.27 41 151.78 40.8 153.35 39.04L158.36 43.21C160.32 44.37 163.07 46.08 166.24 48.3C169.96 50.9 182.3 59.66 191.99 72.25C204.86 88.97 209.17 107.38 210.77 117.21L210.78 117.23Z" fill="url(#paint0_linear_2_19269)"/>
<path d="M211.29 304.03H14.66C14.66 243.59 14.66 183.15 14.66 122.71C14.66 86.19 14.66 49.68 14.66 13.16H211.29C211.29 49.62 211.29 86.08 211.29 122.54C211.29 183.04 211.29 243.53 211.29 304.03Z" stroke="#0E0E0E" stroke-linecap="round" stroke-linejoin="round"/>
<path d="M112.87 43.07C112.8 42.24 112.46 39.33 110.05 36.86C107.89 34.64 105.35 34.11 104.48 33.96C104.55 33.09 104.62 32.22 104.69 31.35C105.83 30.82 108.12 29.56 110.02 27.01C111.95 24.42 112.5 21.84 112.68 20.59C113.13 22.15 114.12 24.82 116.38 27.42C118.12 29.42 119.97 30.64 121.25 31.35C121.32 32.22 121.39 33.09 121.46 33.96C120.84 34.02 116.85 34.48 114.45 37.97C113.04 40.03 112.87 42.13 112.85 43.07H112.87Z" fill="white"/>
<path d="M71.26 29.14C72.37 28.82 74.2 28.47 76.27 28.97C78.08 29.4 79.3 30.28 79.99 30.8C86.07 35.36 86.97 38.9 91.15 40.5C91.69 40.71 95.6 42 99.54 40.16C102.32 38.86 104.3 35.9 104.61 32.69C105.05 28.09 101.85 23.54 98.14 22.71C97.71 22.61 95.37 22.09 93.46 23.52C93.22 23.7 91.74 24.84 91.53 26.85C91.5 27.15 91.26 29.74 93.24 31C94.35 31.7 95.76 31.74 96.88 31.22C98.47 30.49 99.43 28.66 99.18 26.7C99.57 27.13 100.11 27.8 100.54 28.72C100.75 29.16 102.11 32.17 100.81 35.06C99.23 38.58 94.92 39.2 94.34 39.28C90.49 39.83 86.49 37.81 83.87 34.18" stroke="#0E0E0E" stroke-linecap="round" stroke-linejoin="round"/>
<path d="M104.69 31.23C105.45 30.86 106.64 30.19 107.85 29.09C111.72 25.56 112.43 20.66 112.75 18.48C112.93 17.25 113.09 15.42 112.88 13.15" stroke="#0E0E0E" stroke-linecap="round" stroke-linejoin="round"/>
<path d="M104.48 33.84C105.43 34.01 106.46 34.31 107.48 34.83C112.09 37.18 112.77 42.1 112.87 42.95" stroke="#0E0E0E" stroke-linecap="round" stroke-linejoin="round"/>
<path d="M154.7 29.14C153.59 28.82 151.76 28.47 149.69 28.97C147.88 29.4 146.66 30.28 145.97 30.8C139.89 35.36 138.99 38.9 134.81 40.5C134.27 40.71 130.36 42 126.42 40.16C123.64 38.86 121.66 35.9 121.35 32.69C120.91 28.09 124.11 23.54 127.82 22.71C128.25 22.61 130.59 22.09 132.5 23.52C132.74 23.7 134.22 24.84 134.43 26.85C134.46 27.15 134.7 29.74 132.72 31C131.61 31.7 130.2 31.74 129.08 31.22C127.49 30.49 126.53 28.66 126.78 26.7C126.39 27.13 125.85 27.8 125.42 28.72C125.21 29.16 123.85 32.17 125.15 35.06C126.73 38.58 131.04 39.2 131.62 39.28C135.47 39.83 139.47 37.81 142.09 34.18" stroke="#0E0E0E" stroke-linecap="round" stroke-linejoin="round"/>
<path d="M121.47 33.84C120.52 34.01 119.49 34.31 118.47 34.83C113.86 37.18 113.18 42.1 113.08 42.95" stroke="#0E0E0E" stroke-linecap="round" stroke-linejoin="round"/>
<path d="M153.75 38.28C153.6 38.62 152.81 40.37 150.96 40.95C149 41.57 147.28 40.43 146.56 39.95C143.53 37.94 143.23 34.11 143.2 33.49" stroke="#0E0E0E" stroke-linecap="round" stroke-linejoin="round"/>
<path d="M164.39 47.5C163.53 47.01 162.32 46.27 160.96 45.28C157.03 42.42 153.96 40.19 153.16 36.55C152.43 33.24 153.92 30.45 154.18 29.98C156.63 25.56 161.76 24.83 162.82 24.71C167.59 24.17 172.43 26.69 175.46 31.09" stroke="#0E0E0E" stroke-linecap="round" stroke-linejoin="round"/>
<path d="M174.79 54.37C174.84 44.08 172.32 36 168.33 33.77C166.28 32.63 164.2 32.6 164.2 32.6C163.51 32.6 160.02 32.65 157.81 35.53C155.84 38.1 156.33 41.04 156.42 41.54" stroke="#0E0E0E" stroke-linecap="round" stroke-linejoin="round"/>
<path d="M202.97 49.17C203.49 48.91 205.15 48.14 206.94 48.6C210.13 49.41 210.49 53.26 210.51 53.54C210.7 55.99 209.2 58.84 206.34 59.86C204.14 60.64 202.02 60.02 200.89 59.69C197.23 58.62 195.22 56.13 194.22 54.87C191.02 50.79 192.58 48.81 189.3 45.91C188.41 45.12 186.61 43.52 183.85 43.1C180.98 42.65 179.8 43.89 177.18 43.16C174.61 42.44 173.28 40.55 172.94 40.02C172.78 39.78 170.91 36.77 172.67 33.74C173.03 33.11 174.1 31.28 176.51 30.75C178.7 30.28 181.11 31.08 182.43 32.65C183.56 33.99 183.89 35.88 183.01 37.38C182.82 37.71 182.22 38.73 180.86 39.14C179.72 39.48 178.27 39.33 177.27 38.53C176.39 37.82 176.23 36.91 176.2 36.64" stroke="#0E0E0E" stroke-linecap="round" stroke-linejoin="round"/>
<path d="M191.36 48.7C190.94 44.14 188.61 40.39 185.2 39.17C184.42 38.89 183.2 38.61 181.58 38.81" stroke="#0E0E0E" stroke-linecap="round" stroke-linejoin="round"/>
<path d="M194.82 55.77C194.2 55.61 191.62 55.01 189.42 56.45C186.77 58.19 185.71 62.22 187.34 66.04" stroke="#0E0E0E" stroke-linecap="round" stroke-linejoin="round"/>
<path d="M196.63 69.52C196.22 69.5 195.37 69.51 194.47 69.98C193.01 70.75 192.53 72.16 192.44 72.48" stroke="#0E0E0E" stroke-linecap="round" stroke-linejoin="round"/>
<path d="M211.28 121.27C211.26 121.13 211.24 120.88 211.2 120.59C210.42 113.74 206.01 81.76 179.71 58.43C176.44 55.53 171.37 51.46 164.39 47.5" stroke="#0E0E0E" stroke-linecap="round" stroke-linejoin="round"/>
<path d="M112.87 43.07C112.8 42.24 112.46 39.33 110.05 36.86C107.89 34.64 105.35 34.11 104.48 33.96C104.55 33.09 104.62 32.22 104.69 31.35C105.83 30.82 108.12 29.56 110.02 27.01C111.95 24.42 112.5 21.84 112.68 20.59C113.13 22.15 114.12 24.82 116.38 27.42C118.12 29.42 119.97 30.64 121.25 31.35C121.32 32.22 121.39 33.09 121.46 33.96C120.84 34.02 116.85 34.48 114.45 37.97C113.04 40.03 112.87 42.13 112.85 43.07H112.87Z" fill="black" stroke="black" stroke-width="0.75" stroke-linecap="round" stroke-linejoin="round"/>
<path d="M154.7 29.14C153.59 28.82 151.76 28.47 149.69 28.97C147.88 29.4 146.66 30.28 145.97 30.8C139.89 35.36 138.99 38.9 134.81 40.5C134.27 40.71 130.36 42 126.42 40.16C123.64 38.86 121.66 35.9 121.35 32.69C120.91 28.09 124.11 23.54 127.82 22.71C128.25 22.61 130.59 22.09 132.5 23.52C132.74 23.7 134.22 24.84 134.43 26.85C134.46 27.15 134.7 29.74 132.72 31C131.61 31.7 130.2 31.74 129.08 31.22C127.49 30.49 126.53 28.66 126.78 26.7C126.39 27.13 125.85 27.8 125.42 28.72C125.21 29.16 123.85 32.17 125.15 35.06C126.73 38.58 131.04 39.2 131.62 39.28C135.47 39.83 139.47 37.81 142.09 34.18" stroke="#0E0E0E" stroke-linecap="round" stroke-linejoin="round"/>
<path d="M121.26 31.23C119.79 30.5 118.76 29.69 118.1 29.09C113.64 25.03 113.21 19 113.05 16.78C112.94 15.26 113 14 113.07 13.15" stroke="#0E0E0E" stroke-linecap="round" stroke-linejoin="round"/>
<path d="M121.47 33.84C120.52 34.01 119.49 34.31 118.47 34.83C113.86 37.18 113.18 42.1 113.08 42.95" stroke="#0E0E0E" stroke-linecap="round" stroke-linejoin="round"/>
<path d="M153.75 38.28C153.6 38.62 152.81 40.37 150.96 40.95C149 41.57 147.28 40.43 146.56 39.95C143.53 37.94 143.23 34.11 143.2 33.49" stroke="#0E0E0E" stroke-linecap="round" stroke-linejoin="round"/>
<path d="M164.39 47.5C163.53 47.01 162.32 46.27 160.96 45.28C157.03 42.42 153.96 40.19 153.16 36.55C152.43 33.24 153.92 30.45 154.18 29.98C156.63 25.56 161.76 24.83 162.82 24.71C167.59 24.17 172.43 26.69 175.46 31.09" stroke="#0E0E0E" stroke-linecap="round" stroke-linejoin="round"/>
<path d="M174.79 54.37C174.84 44.08 172.32 36 168.33 33.77C166.28 32.63 164.2 32.6 164.2 32.6C163.51 32.6 160.02 32.65 157.81 35.53C155.84 38.1 156.33 41.04 156.42 41.54" stroke="#0E0E0E" stroke-linecap="round" stroke-linejoin="round"/>
<path d="M202.97 49.17C203.49 48.91 205.15 48.14 206.94 48.6C210.13 49.41 210.49 53.26 210.51 53.54C210.7 55.99 209.2 58.84 206.34 59.86C204.14 60.64 202.02 60.02 200.89 59.69C197.23 58.62 195.22 56.13 194.22 54.87C191.02 50.79 192.58 48.81 189.3 45.91C188.41 45.12 186.61 43.52 183.85 43.1C180.98 42.65 179.8 43.89 177.18 43.16C174.61 42.44 173.28 40.55 172.94 40.02C172.78 39.78 170.91 36.77 172.67 33.74C173.03 33.11 174.1 31.28 176.51 30.75C178.7 30.28 181.11 31.08 182.43 32.65C183.56 33.99 183.89 35.88 183.01 37.38C182.82 37.71 182.22 38.73 180.86 39.14C179.72 39.48 178.27 39.33 177.27 38.53C176.39 37.82 176.23 36.91 176.2 36.64" stroke="#0E0E0E" stroke-linecap="round" stroke-linejoin="round"/>
<path d="M191.36 48.7C190.94 44.14 188.61 40.39 185.2 39.17C184.42 38.89 183.2 38.61 181.58 38.81" stroke="#0E0E0E" stroke-linecap="round" stroke-linejoin="round"/>
<path d="M211.16 64.8C209.52 61.99 206.9 60.24 204.29 60.4C201.06 60.6 199.16 63.63 198.34 64.94C193.72 72.31 198.66 82.38 199.42 83.89" stroke="#0E0E0E" stroke-linecap="round" stroke-linejoin="round"/>
<path d="M211.23 120.36C209.35 107.49 203.24 79.34 179.71 58.43C174.59 53.88 169.36 50.31 164.39 47.5" stroke="#0E0E0E" stroke-linecap="round" stroke-linejoin="round"/>
<path d="M15.0801 197.96C15.1101 233.15 15.1301 268.34 15.1601 303.52C80.3101 303.51 145.46 303.49 210.61 303.48C210.64 269.51 210.67 235.54 210.7 201.57C204.23 216.62 194.31 234.96 178.92 253.28C172.98 260.34 167 266.5 161.23 271.84C159.63 273.96 158.03 276.07 156.44 278.19C155.53 278.44 154.62 278.68 153.71 278.93C153.29 278.37 151.67 276.3 149.44 276.26C146.54 276.21 143.3 279.61 143.14 284.73C142.8 283.97 139.95 277.91 133.47 276.54C130.35 275.88 127.73 276.58 126.38 277.06C125.5 277.79 124.33 278.92 123.26 280.54C122.21 282.13 121.64 283.62 121.31 284.7H104.58C104.48 284.08 103.67 279.51 99.5101 277.23C95.4401 275 91.3101 276.7 90.0401 277.21C85.6501 278.98 83.7901 282.63 83.3801 283.49C82.3901 278.77 79.0901 275.85 76.1901 276.08C75.7201 276.12 74.2101 276.32 72.6401 278.08C70.9701 276.69 69.3001 275.3 67.6301 273.91C59.8701 270.07 45.4201 261.62 33.2901 245.24C19.1101 226.08 15.9701 206.69 15.1001 197.97L15.0801 197.96Z" fill="url(#paint1_linear_2_19269)"/>
<path d="M112.93 274.34C113 275.17 113.34 278.08 115.75 280.55C117.91 282.77 120.45 283.3 121.32 283.45C121.25 284.32 121.18 285.19 121.11 286.06C119.97 286.59 117.68 287.85 115.78 290.4C113.85 292.99 113.3 295.57 113.12 296.82C112.67 295.26 111.68 292.59 109.42 289.99C107.68 287.99 105.83 286.77 104.55 286.06C104.48 285.19 104.41 284.32 104.34 283.45C104.96 283.39 108.95 282.93 111.35 279.44C112.76 277.38 112.93 275.28 112.95 274.34H112.93Z" fill="white"/>
<path d="M154.54 288.26C153.43 288.58 151.6 288.93 149.53 288.43C147.72 288 146.5 287.12 145.81 286.6C139.73 282.04 138.83 278.5 134.65 276.9C134.11 276.69 130.2 275.4 126.26 277.24C123.48 278.54 121.5 281.5 121.19 284.71C120.75 289.31 123.95 293.86 127.66 294.69C128.09 294.79 130.43 295.31 132.34 293.88C132.58 293.7 134.06 292.56 134.27 290.55C134.3 290.25 134.54 287.66 132.56 286.4C131.45 285.7 130.04 285.66 128.92 286.18C127.33 286.91 126.37 288.74 126.62 290.7C126.23 290.27 125.69 289.6 125.26 288.68C125.05 288.24 123.69 285.23 124.99 282.34C126.57 278.82 130.88 278.2 131.46 278.12C135.31 277.57 139.31 279.59 141.93 283.22" stroke="#0E0E0E" stroke-linecap="round" stroke-linejoin="round"/>
<path d="M121.11 286.17C119.7 286.87 118.67 287.66 117.95 288.31C113.8 292.08 113.19 297.57 112.9 300.14C112.71 301.81 112.73 303.19 112.77 304.04" stroke="#0E0E0E" stroke-linecap="round" stroke-linejoin="round"/>
<path d="M121.32 283.57C120.37 283.4 119.34 283.1 118.32 282.58C113.71 280.23 113.03 275.31 112.93 274.46" stroke="#0E0E0E" stroke-linecap="round" stroke-linejoin="round"/>
<path d="M71.1001 288.26C72.2101 288.58 74.0401 288.93 76.1101 288.43C77.9201 288 79.1401 287.12 79.8301 286.6C85.9101 282.04 86.8101 278.5 90.9901 276.9C91.5301 276.69 95.4401 275.4 99.3801 277.24C102.16 278.54 104.14 281.5 104.45 284.71C104.89 289.31 101.69 293.86 97.9801 294.69C97.5501 294.79 95.2101 295.31 93.3001 293.88C93.0601 293.7 91.5801 292.56 91.3701 290.55C91.3401 290.25 91.1001 287.66 93.0801 286.4C94.1901 285.7 95.6001 285.66 96.7201 286.18C98.3101 286.91 99.2701 288.74 99.0201 290.7C99.4101 290.27 99.9501 289.6 100.38 288.68C100.59 288.24 101.95 285.23 100.65 282.34C99.0701 278.82 94.7601 278.2 94.1801 278.12C90.3301 277.57 86.3301 279.59 83.7101 283.22" stroke="#0E0E0E" stroke-linecap="round" stroke-linejoin="round"/>
<path d="M104.33 283.57C105.24 283.43 106.28 283.14 107.33 282.58C111.61 280.32 112.72 275.49 112.93 274.46" stroke="#0E0E0E" stroke-linecap="round" stroke-linejoin="round"/>
<path d="M72.05 279.12C72.2 278.78 72.9901 277.03 74.8401 276.45C76.8001 275.83 78.5201 276.97 79.2401 277.45C82.2701 279.46 82.5701 283.29 82.6001 283.91" stroke="#0E0E0E" stroke-linecap="round" stroke-linejoin="round"/>
<path d="M61.4101 269.9C62.2701 270.39 63.4801 271.13 64.8401 272.12C68.7701 274.98 71.8401 277.21 72.6401 280.85C73.3701 284.16 71.8801 286.95 71.6201 287.42C69.1701 291.84 64.0401 292.57 62.9801 292.69C58.2101 293.23 53.3701 290.71 50.3401 286.31" stroke="#0E0E0E" stroke-linecap="round" stroke-linejoin="round"/>
<path d="M51.01 263.04C50.96 273.33 53.48 281.41 57.47 283.64C59.52 284.78 61.6 284.81 61.6 284.81C62.29 284.81 65.78 284.76 67.99 281.88C69.96 279.31 69.47 276.37 69.38 275.87" stroke="#0E0E0E" stroke-linecap="round" stroke-linejoin="round"/>
<path d="M22.83 268.24C22.31 268.5 20.65 269.27 18.86 268.81C15.67 268 15.31 264.15 15.29 263.87C15.1 261.42 16.6 258.57 19.46 257.55C21.66 256.77 23.78 257.39 24.91 257.72C28.57 258.79 30.58 261.28 31.58 262.54C34.78 266.62 33.22 268.6 36.5 271.5C37.39 272.29 39.19 273.89 41.95 274.31C44.82 274.76 46 273.52 48.62 274.25C51.19 274.97 52.52 276.86 52.86 277.39C53.02 277.63 54.89 280.64 53.13 283.67C52.77 284.3 51.7 286.13 49.29 286.66C47.1 287.13 44.69 286.33 43.37 284.76C42.24 283.42 41.91 281.53 42.79 280.03C42.98 279.7 43.58 278.68 44.94 278.27C46.08 277.93 47.53 278.08 48.53 278.88C49.41 279.59 49.57 280.5 49.6 280.77" stroke="#0E0E0E" stroke-linecap="round" stroke-linejoin="round"/>
<path d="M34.4401 268.7C34.8601 273.26 37.1901 277.01 40.6001 278.23C41.3801 278.51 42.6001 278.79 44.2201 278.59" stroke="#0E0E0E" stroke-linecap="round" stroke-linejoin="round"/>
<path d="M30.9801 261.63C31.6201 261.79 34.1801 262.37 36.3801 260.95C39.0501 259.21 40.1401 255.18 38.5301 251.34" stroke="#0E0E0E" stroke-linecap="round" stroke-linejoin="round"/>
<path d="M29.17 247.88C29.58 247.9 30.43 247.89 31.33 247.42C32.83 246.63 33.29 245.16 33.38 244.86" stroke="#0E0E0E" stroke-linecap="round" stroke-linejoin="round"/>
<path d="M14.6901 195.1C16.2901 207.98 21.9101 237.42 46.0901 258.97C51.2001 263.52 56.4201 267.09 61.4101 269.9" stroke="#0E0E0E" stroke-linecap="round" stroke-linejoin="round"/>
<path d="M112.93 274.34C113 275.17 113.34 278.08 115.75 280.55C117.91 282.77 120.45 283.3 121.32 283.45C121.25 284.32 121.18 285.19 121.11 286.06C120.49 286.34 119.64 286.78 118.73 287.47C116.68 289.04 115.7 290.88 114.84 292.54C114.09 294 113.12 296.26 112.62 299.24C112.61 297.81 112.39 293.7 109.41 289.98C107.72 287.86 105.78 286.67 104.54 286.05C104.47 285.18 104.4 284.31 104.33 283.44C104.95 283.38 108.94 282.92 111.34 279.43C112.75 277.37 112.92 275.27 112.94 274.33L112.93 274.34Z" fill="black" stroke="black" stroke-width="0.75" stroke-linecap="round" stroke-linejoin="round"/>
<path d="M71.1001 288.26C72.2101 288.58 74.0401 288.93 76.1101 288.43C77.9201 288 79.1401 287.12 79.8301 286.6C85.9101 282.04 86.8101 278.5 90.9901 276.9C91.5301 276.69 95.4401 275.4 99.3801 277.24C102.16 278.54 104.14 281.5 104.45 284.71C104.89 289.31 101.69 293.86 97.9801 294.69C97.5501 294.79 95.2101 295.31 93.3001 293.88C93.0601 293.7 91.5801 292.56 91.3701 290.55C91.3401 290.25 91.1001 287.66 93.0801 286.4C94.1901 285.7 95.6001 285.66 96.7201 286.18C98.3101 286.91 99.2701 288.74 99.0201 290.7C99.4101 290.27 99.9501 289.6 100.38 288.68C100.59 288.24 101.95 285.23 100.65 282.34C99.0701 278.82 94.7601 278.2 94.1801 278.12C90.3301 277.57 86.3301 279.59 83.7101 283.22" stroke="#0E0E0E" stroke-linecap="round" stroke-linejoin="round"/>
<path d="M104.54 286.17C105.37 286.57 106.53 287.24 107.7 288.31C110.17 290.59 111.06 293.23 111.75 295.39C112.82 298.73 112.93 301.77 112.78 304.04" stroke="#0E0E0E" stroke-linecap="round" stroke-linejoin="round"/>
<path d="M104.33 283.57C105.24 283.43 106.28 283.14 107.33 282.58C111.65 280.29 112.73 275.35 112.93 274.34" stroke="#0E0E0E" stroke-linecap="round" stroke-linejoin="round"/>
<path d="M72.05 279.12C72.2 278.78 72.9901 277.03 74.8401 276.45C76.8001 275.83 78.5201 276.97 79.2401 277.45C82.2701 279.46 82.5701 283.29 82.6001 283.91" stroke="#0E0E0E" stroke-linecap="round" stroke-linejoin="round"/>
<path d="M61.4101 269.9C62.2701 270.39 63.4801 271.13 64.8401 272.12C68.7701 274.98 71.8401 277.21 72.6401 280.85C73.3701 284.16 71.8801 286.95 71.6201 287.42C69.1701 291.84 64.0401 292.57 62.9801 292.69C58.2101 293.23 53.3701 290.71 50.3401 286.31" stroke="#0E0E0E" stroke-linecap="round" stroke-linejoin="round"/>
<path d="M51.01 263.04C50.96 273.33 53.48 281.41 57.47 283.64C59.52 284.78 61.6 284.81 61.6 284.81C62.29 284.81 65.78 284.76 67.99 281.88C69.96 279.31 69.47 276.37 69.38 275.87" stroke="#0E0E0E" stroke-linecap="round" stroke-linejoin="round"/>
<path d="M22.83 268.24C22.31 268.5 20.65 269.27 18.86 268.81C15.67 268 15.31 264.15 15.29 263.87C15.1 261.42 16.6 258.57 19.46 257.55C21.66 256.77 23.78 257.39 24.91 257.72C28.57 258.79 30.58 261.28 31.58 262.54C34.78 266.62 33.22 268.6 36.5 271.5C37.39 272.29 39.19 273.89 41.95 274.31C44.82 274.76 46 273.52 48.62 274.25C51.19 274.97 52.52 276.86 52.86 277.39C53.02 277.63 54.89 280.64 53.13 283.67C52.77 284.3 51.7 286.13 49.29 286.66C47.1 287.13 44.69 286.33 43.37 284.76C42.24 283.42 41.91 281.53 42.79 280.03C42.98 279.7 43.58 278.68 44.94 278.27C46.08 277.93 47.53 278.08 48.53 278.88C49.41 279.59 49.57 280.5 49.6 280.77" stroke="#0E0E0E" stroke-linecap="round" stroke-linejoin="round"/>
<path d="M34.4401 268.7C34.8601 273.26 37.1901 277.01 40.6001 278.23C41.3801 278.51 42.6001 278.79 44.2201 278.59" stroke="#0E0E0E" stroke-linecap="round" stroke-linejoin="round"/>
<path d="M14.75 252.79C14.87 252.99 17.53 257.25 21.51 257C24.73 256.8 26.63 253.78 27.46 252.46C32.07 245.1 27.14 235.02 26.38 233.51" stroke="#0E0E0E" stroke-linecap="round" stroke-linejoin="round"/>
<path d="M30.9801 261.63C31.6201 261.79 34.1801 262.37 36.3801 260.95C39.0501 259.21 40.1401 255.18 38.5301 251.34" stroke="#0E0E0E" stroke-linecap="round" stroke-linejoin="round"/>
<path d="M29.17 247.88C29.58 247.9 30.43 247.89 31.33 247.42C32.83 246.63 33.29 245.16 33.38 244.86" stroke="#0E0E0E" stroke-linecap="round" stroke-linejoin="round"/>
<path d="M14.6901 195.1C16.2901 207.98 21.9101 237.42 46.0901 258.97C51.2001 263.52 56.4201 267.09 61.4101 269.9" stroke="#0E0E0E" stroke-linecap="round" stroke-linejoin="round"/>
<path d="M30.62 49.33C28.32 46.95 27.17 44.18 27.17 41.05V40.95C27.17 38.8 27.78 36.72 28.99 34.7C30.26 32.69 31.91 31.24 33.95 30.33C35.27 29.76 36.66 29.47 38.09 29.47C39.9 29.47 41.7 29.89 43.47 30.72C45.24 31.56 46.82 32.72 48.2 34.21C48.74 34.8 49.23 35.42 49.66 36.07C51.39 38.72 52.25 41.59 52.25 44.69C52.18 48.92 50.67 52.53 47.71 55.55C46.23 57.01 44.56 58.13 42.69 58.9C40.82 59.67 38.86 60.05 36.81 60.05C35.51 60.05 34.24 59.9 33 59.59C32.43 59.44 31.86 59.26 31.31 59.05H31.25C31.19 59.05 31.14 59.09 31.1 59.17L31.14 59.74H29.72V52.67H31.14L31.1 53.23C31.1 53.91 31.4 54.48 32 54.94C32.06 54.98 32.1 55.01 32.15 55.02V55.04C32.58 55.3 33.03 55.56 33.49 55.79C34.54 56.22 35.6 56.56 36.68 56.81C37.76 57.06 38.83 57.19 39.89 57.19C42.64 57.19 44.92 56.3 46.75 54.53C48.52 52.66 49.41 50.39 49.41 47.71C49.41 47.32 49.39 46.92 49.35 46.52C48.3 48.43 46.86 49.95 45.02 51.07C43.18 52.19 41.16 52.75 38.95 52.75C37.39 52.75 35.89 52.46 34.45 51.87C33.01 51.28 31.74 50.43 30.62 49.32V49.33ZM44.45 49.52C45.5 49.1 46.33 48.43 46.96 47.51C47.59 46.59 47.92 45.55 47.96 44.39V44.18C47.96 42.97 47.71 41.8 47.21 40.68C46.71 39.56 46.04 38.52 45.21 37.57C44.38 36.62 43.46 35.78 42.44 35.05C41.42 34.32 40.38 33.72 39.32 33.26C38.66 32.95 37.98 32.68 37.27 32.45C36.56 32.22 35.84 32.1 35.11 32.1C34.78 32.1 34.44 32.14 34.11 32.21C32.7 32.54 31.66 33.28 30.98 34.42C30.3 35.56 29.97 36.79 29.97 38.11C29.97 38.53 30 38.94 30.07 39.34C30.52 41.81 31.75 44.07 33.77 46.14C35.11 47.45 36.59 48.45 38.21 49.15C39.55 49.68 40.81 49.94 42 49.94C42.88 49.94 43.69 49.79 44.45 49.5V49.52Z" fill="black"/>
<path d="M195.07 268.2C197.37 270.58 198.52 273.35 198.52 276.48V276.58C198.52 278.73 197.91 280.81 196.7 282.83C195.43 284.84 193.78 286.29 191.74 287.2C190.42 287.77 189.03 288.06 187.6 288.06C185.79 288.06 183.99 287.64 182.22 286.81C180.45 285.97 178.87 284.81 177.49 283.32C176.95 282.73 176.46 282.11 176.03 281.46C174.3 278.81 173.44 275.94 173.44 272.84C173.51 268.61 175.02 265 177.98 261.98C179.46 260.52 181.13 259.4 183 258.63C184.87 257.86 186.83 257.48 188.88 257.48C190.18 257.48 191.45 257.63 192.69 257.94C193.26 258.09 193.83 258.27 194.38 258.48H194.44C194.5 258.48 194.55 258.44 194.59 258.36L194.55 257.79H195.97V264.86H194.55L194.59 264.3C194.59 263.62 194.29 263.05 193.69 262.59C193.63 262.55 193.59 262.52 193.54 262.51V262.49C193.11 262.23 192.66 261.97 192.2 261.74C191.15 261.31 190.09 260.97 189.01 260.72C187.93 260.47 186.86 260.34 185.8 260.34C183.05 260.34 180.77 261.23 178.94 263C177.17 264.87 176.28 267.14 176.28 269.82C176.28 270.21 176.3 270.61 176.34 271.01C177.39 269.1 178.83 267.58 180.67 266.46C182.51 265.34 184.53 264.78 186.74 264.78C188.3 264.78 189.8 265.07 191.24 265.66C192.68 266.25 193.95 267.1 195.07 268.21V268.2ZM181.24 268.01C180.19 268.43 179.36 269.1 178.73 270.02C178.1 270.94 177.77 271.98 177.73 273.14V273.35C177.73 274.56 177.98 275.73 178.48 276.85C178.98 277.97 179.65 279.01 180.48 279.96C181.31 280.91 182.23 281.75 183.25 282.48C184.27 283.21 185.31 283.81 186.37 284.27C187.03 284.58 187.71 284.85 188.42 285.08C189.13 285.31 189.85 285.43 190.58 285.43C190.91 285.43 191.25 285.39 191.58 285.32C192.99 284.99 194.03 284.25 194.71 283.11C195.39 281.97 195.72 280.74 195.72 279.42C195.72 279 195.69 278.59 195.62 278.19C195.17 275.72 193.94 273.46 191.92 271.39C190.58 270.08 189.1 269.08 187.48 268.38C186.14 267.85 184.88 267.59 183.69 267.59C182.81 267.59 182 267.74 181.24 268.03V268.01Z" fill="black"/>
<path d="M75.18 36.48C72.13 36.41 71.42 38.74 71.26 39.86C71.1 38.74 70.39 36.41 67.34 36.48C63.32 36.58 62.79 41.08 64.2 43.35C65.6 45.62 66.33 46.35 67.73 47.8C69.05 49.17 70.63 50.71 71.21 51.65C71.21 51.65 71.24 51.76 71.26 51.73C71.28 51.76 71.31 51.65 71.31 51.65C71.89 50.71 73.47 49.17 74.79 47.8C76.19 46.35 76.92 45.62 78.32 43.35C79.72 41.08 79.19 36.58 75.18 36.48Z" fill="#EB1C24" stroke="black" stroke-width="0.75" stroke-linecap="round" stroke-linejoin="round"/>
<path d="M150.52 281.05C153.57 281.12 154.28 278.79 154.44 277.67C154.6 278.79 155.31 281.12 158.36 281.05C162.38 280.95 162.91 276.45 161.5 274.18C160.1 271.91 159.37 271.18 157.97 269.73C156.65 268.36 155.07 266.82 154.49 265.88C154.49 265.88 154.46 265.77 154.44 265.8C154.42 265.77 154.39 265.88 154.39 265.88C153.81 266.82 152.23 268.36 150.91 269.73C149.51 271.18 148.78 271.91 147.38 274.18C145.98 276.45 146.51 280.95 150.52 281.05Z" fill="#EB1C24" stroke="black" stroke-width="0.75" stroke-linecap="round" stroke-linejoin="round"/>
<path d="M91.7501 67.36C86.3601 67.23 85.1201 71.34 84.8401 73.32C84.5501 71.34 83.3101 67.23 77.9301 67.36C70.8501 67.53 69.9101 75.47 72.3801 79.48C74.8501 83.49 76.1301 84.77 78.6101 87.33C80.9401 89.74 83.7301 92.45 84.7501 94.12C84.7501 94.12 84.8001 94.31 84.8401 94.26C84.8701 94.31 84.9301 94.12 84.9301 94.12C85.9601 92.46 88.7401 89.74 91.0701 87.33C93.5401 84.77 94.8201 83.49 97.3001 79.48C99.7701 75.47 98.8401 67.53 91.7501 67.36Z" fill="#EB1C24" stroke="black" stroke-width="0.75" stroke-linecap="round" stroke-linejoin="round"/>
<path d="M91.7501 119.9C86.3601 119.77 85.1201 123.88 84.8401 125.86C84.5501 123.88 83.3101 119.77 77.9301 119.9C70.8501 120.07 69.9101 128.01 72.3801 132.02C74.8501 136.03 76.1301 137.31 78.6101 139.87C80.9401 142.28 83.7301 144.99 84.7501 146.66C84.7501 146.66 84.8001 146.85 84.8401 146.8C84.8701 146.85 84.9301 146.66 84.9301 146.66C85.9601 145 88.7401 142.28 91.0701 139.87C93.5401 137.31 94.8201 136.03 97.3001 132.02C99.7701 128.01 98.8401 120.07 91.7501 119.9Z" fill="#EB1C24" stroke="black" stroke-width="0.75" stroke-linecap="round" stroke-linejoin="round"/>
<path d="M147.57 66.57C142.18 66.44 140.94 70.55 140.66 72.53C140.37 70.55 139.13 66.44 133.75 66.57C126.67 66.74 125.73 74.68 128.2 78.69C130.67 82.7 131.95 83.98 134.43 86.54C136.76 88.95 139.55 91.66 140.57 93.33C140.57 93.33 140.62 93.52 140.66 93.47C140.69 93.52 140.75 93.33 140.75 93.33C141.78 91.67 144.56 88.95 146.89 86.54C149.36 83.98 150.64 82.7 153.12 78.69C155.59 74.68 154.66 66.74 147.57 66.57Z" fill="#EB1C24" stroke="black" stroke-width="0.75" stroke-linecap="round" stroke-linejoin="round"/>
<path d="M147.57 119.63C142.18 119.5 140.94 123.61 140.66 125.59C140.37 123.61 139.13 119.5 133.75 119.63C126.67 119.8 125.73 127.74 128.2 131.75C130.67 135.76 131.95 137.04 134.43 139.6C136.76 142.01 139.55 144.72 140.57 146.39C140.57 146.39 140.62 146.58 140.66 146.53C140.69 146.58 140.75 146.39 140.75 146.39C141.78 144.73 144.56 142.01 146.89 139.6C149.36 137.04 150.64 135.76 153.12 131.75C155.59 127.74 154.66 119.8 147.57 119.63Z" fill="#EB1C24" stroke="black" stroke-width="0.75" stroke-linecap="round" stroke-linejoin="round"/>
<path d="M91.7501 172.44C86.3601 172.31 85.1201 176.42 84.8401 178.4C84.5501 176.42 83.3101 172.31 77.9301 172.44C70.8501 172.61 69.9101 180.55 72.3801 184.56C74.8501 188.57 76.1301 189.85 78.6101 192.41C80.9401 194.82 83.7301 197.53 84.7501 199.2C84.7501 199.2 84.8001 199.39 84.8401 199.34C84.8701 199.39 84.9301 199.2 84.9301 199.2C85.9601 197.54 88.7401 194.82 91.0701 192.41C93.5401 189.85 94.8201 188.57 97.3001 184.56C99.7701 180.55 98.8401 172.61 91.7501 172.44Z" fill="#EB1C24" stroke="black" stroke-width="0.75" stroke-linecap="round" stroke-linejoin="round"/>
<path d="M91.7501 224.98C86.3601 224.85 85.1201 228.96 84.8401 230.94C84.5501 228.96 83.3101 224.85 77.9301 224.98C70.8501 225.15 69.9101 233.09 72.3801 237.1C74.8501 241.11 76.1301 242.39 78.6101 244.95C80.9401 247.36 83.7301 250.07 84.7501 251.74C84.7501 251.74 84.8001 251.93 84.8401 251.88C84.8701 251.93 84.9301 251.74 84.9301 251.74C85.9601 250.08 88.7401 247.36 91.0701 244.95C93.5401 242.39 94.8201 241.11 97.3001 237.1C99.7701 233.09 98.8401 225.15 91.7501 224.98Z" fill="#EB1C24" stroke="black" stroke-width="0.75" stroke-linecap="round" stroke-linejoin="round"/>
<path d="M147.57 172.69C142.18 172.56 140.94 176.67 140.66 178.65C140.37 176.67 139.13 172.56 133.75 172.69C126.67 172.86 125.73 180.8 128.2 184.81C130.67 188.82 131.95 190.1 134.43 192.66C136.76 195.07 139.55 197.78 140.57 199.45C140.57 199.45 140.62 199.64 140.66 199.59C140.69 199.64 140.75 199.45 140.75 199.45C141.78 197.79 144.56 195.07 146.89 192.66C149.36 190.1 150.64 188.82 153.12 184.81C155.59 180.8 154.66 172.86 147.57 172.69Z" fill="#EB1C24" stroke="black" stroke-width="0.75" stroke-linecap="round" stroke-linejoin="round"/>
<path d="M147.57 225.75C142.18 225.62 140.94 229.73 140.66 231.71C140.37 229.73 139.13 225.62 133.75 225.75C126.67 225.92 125.73 233.86 128.2 237.87C130.67 241.88 131.95 243.16 134.43 245.72C136.76 248.13 139.55 250.84 140.57 252.51C140.57 252.51 140.62 252.7 140.66 252.65C140.69 252.7 140.75 252.51 140.75 252.51C141.78 250.85 144.56 248.13 146.89 245.72C149.36 243.16 150.64 241.88 153.12 237.87C155.59 233.86 154.66 225.92 147.57 225.75Z" fill="#EB1C24" stroke="black" stroke-width="0.75" stroke-linecap="round" stroke-linejoin="round"/>
<path d="M119.81 145.25C114.42 145.12 113.18 149.23 112.9 151.21C112.61 149.23 111.37 145.12 105.99 145.25C98.91 145.42 97.97 153.36 100.44 157.37C102.91 161.38 104.19 162.66 106.67 165.22C109 167.63 111.79 170.34 112.81 172.01C112.81 172.01 112.86 172.2 112.9 172.15C112.93 172.2 112.99 172.01 112.99 172.01C114.02 170.35 116.8 167.63 119.13 165.22C121.6 162.66 122.88 161.38 125.36 157.37C127.83 153.36 126.9 145.42 119.81 145.25Z" fill="#EB1C24" stroke="black" stroke-width="0.75" stroke-linecap="round" stroke-linejoin="round"/>
<defs>
<linearGradient id="paint0_linear_2_19269" x1="210.8" y1="65.43" x2="15.28" y2="65.43" gradientUnits="userSpaceOnUse">
<stop stop-color="#8F8587"/>
<stop offset="0.24" stop-color="#C3BEBF"/>
<stop offset="0.45" stop-color="#EBEAEA"/>
<stop offset="0.56" stop-color="#FBFBFB"/>
</linearGradient>
<linearGradient id="paint1_linear_2_19269" x1="15.0801" y1="250.75" x2="210.7" y2="250.75" gradientUnits="userSpaceOnUse">
<stop stop-color="#8F8587"/>
<stop offset="0.25" stop-color="#C3BEBF"/>
<stop offset="0.46" stop-color="#EBEAEA"/>
<stop offset="0.57" stop-color="#FBFBFB"/>
</linearGradient>
</defs>
</svg>
