<?xml version="1.0" encoding="UTF-8"?>
<svg xmlns="http://www.w3.org/2000/svg" xmlns:xlink="http://www.w3.org/1999/xlink" width="612" height="792" viewBox="0 0 612 792">
<defs>
<clipPath id="clip-0">
<path clip-rule="nonzero" d="M 17 16 L 165 16 L 165 94 L 17 94 Z M 17 16 "/>
</clipPath>
<clipPath id="clip-1">
<path clip-rule="nonzero" d="M 164.085938 93.921875 C 164.085938 68.023438 164.09375 42.121094 164.101562 16.222656 C 115.246094 16.222656 66.382812 16.222656 17.527344 16.230469 C 17.503906 41.707031 17.484375 67.183594 17.460938 92.664062 C 20.023438 81.226562 25.199219 64.359375 35.070312 55.351562 C 42.621094 48.464844 46.394531 45.015625 49.351562 43.636719 C 50.722656 42.988281 55.109375 41.09375 58.738281 36.660156 C 59.414062 35.84375 59.902344 35.121094 60.210938 34.640625 C 60.523438 35.0625 61.738281 36.613281 63.414062 36.644531 C 65.585938 36.683594 68.015625 34.132812 68.136719 30.292969 C 68.390625 30.863281 70.53125 35.40625 75.390625 36.433594 C 77.730469 36.929688 79.695312 36.40625 80.707031 36.046875 C 81.367188 35.496094 82.246094 34.648438 83.046875 33.433594 C 83.835938 32.242188 84.261719 31.125 84.511719 30.316406 L 97.058594 30.316406 C 97.132812 30.78125 97.738281 34.207031 100.859375 35.917969 C 103.914062 37.589844 107.011719 36.316406 107.960938 35.933594 C 111.253906 34.605469 112.648438 31.867188 112.957031 31.222656 C 113.699219 34.761719 116.175781 36.953125 118.351562 36.78125 C 118.703125 36.75 119.835938 36.601562 121.011719 35.28125 L 124.769531 38.40625 C 126.238281 39.277344 128.300781 40.558594 130.679688 42.226562 C 133.46875 44.175781 142.726562 50.746094 149.992188 60.1875 C 159.644531 72.726562 162.878906 86.535156 164.078125 93.90625 Z M 164.085938 93.921875 "/>
</clipPath>
<linearGradient id="linear-pattern-0" gradientUnits="userSpaceOnUse" x1="210.799991" y1="65.43" x2="15.279999" y2="65.43" gradientTransform="matrix(0.75, 0, 0, 0.75, 6, 6)">
<stop offset="0" stop-color="rgb(56.098938%, 52.198792%, 52.89917%)" stop-opacity="1"/>
<stop offset="0.00390625" stop-color="rgb(56.430054%, 52.561951%, 53.256226%)" stop-opacity="1"/>
<stop offset="0.0078125" stop-color="rgb(56.762695%, 52.92511%, 53.614807%)" stop-opacity="1"/>
<stop offset="0.0117188" stop-color="rgb(57.095337%, 53.288269%, 53.973389%)" stop-opacity="1"/>
<stop offset="0.015625" stop-color="rgb(57.427979%, 53.651428%, 54.33197%)" stop-opacity="1"/>
<stop offset="0.0195312" stop-color="rgb(57.759094%, 54.013062%, 54.689026%)" stop-opacity="1"/>
<stop offset="0.0234375" stop-color="rgb(58.091736%, 54.376221%, 55.047607%)" stop-opacity="1"/>
<stop offset="0.0273438" stop-color="rgb(58.422852%, 54.73938%, 55.404663%)" stop-opacity="1"/>
<stop offset="0.03125" stop-color="rgb(58.755493%, 55.102539%, 55.763245%)" stop-opacity="1"/>
<stop offset="0.0351562" stop-color="rgb(59.086609%, 55.465698%, 56.121826%)" stop-opacity="1"/>
<stop offset="0.0390625" stop-color="rgb(59.41925%, 55.828857%, 56.480408%)" stop-opacity="1"/>
<stop offset="0.0429688" stop-color="rgb(59.750366%, 56.192017%, 56.837463%)" stop-opacity="1"/>
<stop offset="0.046875" stop-color="rgb(60.083008%, 56.555176%, 57.196045%)" stop-opacity="1"/>
<stop offset="0.0507812" stop-color="rgb(60.415649%, 56.916809%, 57.553101%)" stop-opacity="1"/>
<stop offset="0.0546875" stop-color="rgb(60.748291%, 57.279968%, 57.911682%)" stop-opacity="1"/>
<stop offset="0.0585938" stop-color="rgb(61.079407%, 57.643127%, 58.270264%)" stop-opacity="1"/>
<stop offset="0.0625" stop-color="rgb(61.412048%, 58.006287%, 58.628845%)" stop-opacity="1"/>
<stop offset="0.0664062" stop-color="rgb(61.743164%, 58.369446%, 58.985901%)" stop-opacity="1"/>
<stop offset="0.0703125" stop-color="rgb(62.075806%, 58.732605%, 59.344482%)" stop-opacity="1"/>
<stop offset="0.0742187" stop-color="rgb(62.406921%, 59.095764%, 59.701538%)" stop-opacity="1"/>
<stop offset="0.078125" stop-color="rgb(62.739563%, 59.458923%, 60.06012%)" stop-opacity="1"/>
<stop offset="0.0820312" stop-color="rgb(63.070679%, 59.820557%, 60.418701%)" stop-opacity="1"/>
<stop offset="0.0859375" stop-color="rgb(63.40332%, 60.183716%, 60.777283%)" stop-opacity="1"/>
<stop offset="0.0898437" stop-color="rgb(63.735962%, 60.546875%, 61.134338%)" stop-opacity="1"/>
<stop offset="0.09375" stop-color="rgb(64.068604%, 60.910034%, 61.49292%)" stop-opacity="1"/>
<stop offset="0.0976562" stop-color="rgb(64.399719%, 61.273193%, 61.849976%)" stop-opacity="1"/>
<stop offset="0.101562" stop-color="rgb(64.732361%, 61.636353%, 62.208557%)" stop-opacity="1"/>
<stop offset="0.105469" stop-color="rgb(65.063477%, 61.999512%, 62.567139%)" stop-opacity="1"/>
<stop offset="0.109375" stop-color="rgb(65.396118%, 62.362671%, 62.92572%)" stop-opacity="1"/>
<stop offset="0.113281" stop-color="rgb(65.727234%, 62.724304%, 63.282776%)" stop-opacity="1"/>
<stop offset="0.117187" stop-color="rgb(66.059875%, 63.087463%, 63.641357%)" stop-opacity="1"/>
<stop offset="0.121094" stop-color="rgb(66.390991%, 63.450623%, 63.998413%)" stop-opacity="1"/>
<stop offset="0.125" stop-color="rgb(66.723633%, 63.813782%, 64.356995%)" stop-opacity="1"/>
<stop offset="0.128906" stop-color="rgb(67.056274%, 64.176941%, 64.715576%)" stop-opacity="1"/>
<stop offset="0.132812" stop-color="rgb(67.388916%, 64.5401%, 65.074158%)" stop-opacity="1"/>
<stop offset="0.136719" stop-color="rgb(67.720032%, 64.901733%, 65.431213%)" stop-opacity="1"/>
<stop offset="0.140625" stop-color="rgb(68.052673%, 65.264893%, 65.789795%)" stop-opacity="1"/>
<stop offset="0.144531" stop-color="rgb(68.383789%, 65.628052%, 66.146851%)" stop-opacity="1"/>
<stop offset="0.148437" stop-color="rgb(68.716431%, 65.991211%, 66.505432%)" stop-opacity="1"/>
<stop offset="0.152344" stop-color="rgb(69.047546%, 66.35437%, 66.864014%)" stop-opacity="1"/>
<stop offset="0.15625" stop-color="rgb(69.380188%, 66.717529%, 67.222595%)" stop-opacity="1"/>
<stop offset="0.160156" stop-color="rgb(69.711304%, 67.080688%, 67.579651%)" stop-opacity="1"/>
<stop offset="0.164062" stop-color="rgb(70.043945%, 67.443848%, 67.938232%)" stop-opacity="1"/>
<stop offset="0.167969" stop-color="rgb(70.376587%, 67.805481%, 68.295288%)" stop-opacity="1"/>
<stop offset="0.171875" stop-color="rgb(70.709229%, 68.16864%, 68.65387%)" stop-opacity="1"/>
<stop offset="0.175781" stop-color="rgb(71.040344%, 68.531799%, 69.012451%)" stop-opacity="1"/>
<stop offset="0.179687" stop-color="rgb(71.372986%, 68.894958%, 69.371033%)" stop-opacity="1"/>
<stop offset="0.183594" stop-color="rgb(71.704102%, 69.258118%, 69.728088%)" stop-opacity="1"/>
<stop offset="0.1875" stop-color="rgb(72.036743%, 69.621277%, 70.08667%)" stop-opacity="1"/>
<stop offset="0.191406" stop-color="rgb(72.367859%, 69.984436%, 70.443726%)" stop-opacity="1"/>
<stop offset="0.195312" stop-color="rgb(72.7005%, 70.347595%, 70.802307%)" stop-opacity="1"/>
<stop offset="0.199219" stop-color="rgb(73.031616%, 70.709229%, 71.160889%)" stop-opacity="1"/>
<stop offset="0.203125" stop-color="rgb(73.364258%, 71.072388%, 71.51947%)" stop-opacity="1"/>
<stop offset="0.207031" stop-color="rgb(73.696899%, 71.435547%, 71.876526%)" stop-opacity="1"/>
<stop offset="0.210937" stop-color="rgb(74.029541%, 71.798706%, 72.235107%)" stop-opacity="1"/>
<stop offset="0.214844" stop-color="rgb(74.360657%, 72.161865%, 72.592163%)" stop-opacity="1"/>
<stop offset="0.21875" stop-color="rgb(74.693298%, 72.525024%, 72.950745%)" stop-opacity="1"/>
<stop offset="0.222656" stop-color="rgb(75.024414%, 72.888184%, 73.309326%)" stop-opacity="1"/>
<stop offset="0.226562" stop-color="rgb(75.357056%, 73.251343%, 73.667908%)" stop-opacity="1"/>
<stop offset="0.230469" stop-color="rgb(75.688171%, 73.612976%, 74.024963%)" stop-opacity="1"/>
<stop offset="0.234375" stop-color="rgb(76.020813%, 73.976135%, 74.383545%)" stop-opacity="1"/>
<stop offset="0.238281" stop-color="rgb(76.341248%, 74.327087%, 74.728394%)" stop-opacity="1"/>
<stop offset="0.242187" stop-color="rgb(76.663208%, 74.679565%, 75.074768%)" stop-opacity="1"/>
<stop offset="0.246094" stop-color="rgb(76.954651%, 75.001526%, 75.389099%)" stop-opacity="1"/>
<stop offset="0.25" stop-color="rgb(77.24762%, 75.323486%, 75.70343%)" stop-opacity="1"/>
<stop offset="0.253906" stop-color="rgb(77.539062%, 75.645447%, 76.017761%)" stop-opacity="1"/>
<stop offset="0.257812" stop-color="rgb(77.830505%, 75.967407%, 76.332092%)" stop-opacity="1"/>
<stop offset="0.261719" stop-color="rgb(78.121948%, 76.287842%, 76.646423%)" stop-opacity="1"/>
<stop offset="0.265625" stop-color="rgb(78.414917%, 76.609802%, 76.960754%)" stop-opacity="1"/>
<stop offset="0.269531" stop-color="rgb(78.70636%, 76.931763%, 77.275085%)" stop-opacity="1"/>
<stop offset="0.273438" stop-color="rgb(78.999329%, 77.253723%, 77.589417%)" stop-opacity="1"/>
<stop offset="0.277344" stop-color="rgb(79.290771%, 77.575684%, 77.903748%)" stop-opacity="1"/>
<stop offset="0.28125" stop-color="rgb(79.58374%, 77.897644%, 78.219604%)" stop-opacity="1"/>
<stop offset="0.285156" stop-color="rgb(79.875183%, 78.219604%, 78.533936%)" stop-opacity="1"/>
<stop offset="0.289062" stop-color="rgb(80.166626%, 78.541565%, 78.848267%)" stop-opacity="1"/>
<stop offset="0.292969" stop-color="rgb(80.458069%, 78.862%, 79.162598%)" stop-opacity="1"/>
<stop offset="0.296875" stop-color="rgb(80.751038%, 79.18396%, 79.476929%)" stop-opacity="1"/>
<stop offset="0.300781" stop-color="rgb(81.04248%, 79.50592%, 79.79126%)" stop-opacity="1"/>
<stop offset="0.304688" stop-color="rgb(81.335449%, 79.827881%, 80.105591%)" stop-opacity="1"/>
<stop offset="0.308594" stop-color="rgb(81.626892%, 80.149841%, 80.419922%)" stop-opacity="1"/>
<stop offset="0.3125" stop-color="rgb(81.919861%, 80.471802%, 80.734253%)" stop-opacity="1"/>
<stop offset="0.316406" stop-color="rgb(82.211304%, 80.793762%, 81.048584%)" stop-opacity="1"/>
<stop offset="0.320312" stop-color="rgb(82.504272%, 81.115723%, 81.362915%)" stop-opacity="1"/>
<stop offset="0.324219" stop-color="rgb(82.795715%, 81.437683%, 81.677246%)" stop-opacity="1"/>
<stop offset="0.328125" stop-color="rgb(83.087158%, 81.759644%, 81.991577%)" stop-opacity="1"/>
<stop offset="0.332031" stop-color="rgb(83.378601%, 82.080078%, 82.305908%)" stop-opacity="1"/>
<stop offset="0.335938" stop-color="rgb(83.67157%, 82.402039%, 82.620239%)" stop-opacity="1"/>
<stop offset="0.339844" stop-color="rgb(83.963013%, 82.723999%, 82.93457%)" stop-opacity="1"/>
<stop offset="0.34375" stop-color="rgb(84.255981%, 83.045959%, 83.248901%)" stop-opacity="1"/>
<stop offset="0.347656" stop-color="rgb(84.547424%, 83.36792%, 83.563232%)" stop-opacity="1"/>
<stop offset="0.351562" stop-color="rgb(84.840393%, 83.68988%, 83.877563%)" stop-opacity="1"/>
<stop offset="0.355469" stop-color="rgb(85.131836%, 84.011841%, 84.191895%)" stop-opacity="1"/>
<stop offset="0.359375" stop-color="rgb(85.423279%, 84.333801%, 84.506226%)" stop-opacity="1"/>
<stop offset="0.363281" stop-color="rgb(85.714722%, 84.655762%, 84.820557%)" stop-opacity="1"/>
<stop offset="0.367188" stop-color="rgb(86.00769%, 84.977722%, 85.134888%)" stop-opacity="1"/>
<stop offset="0.371094" stop-color="rgb(86.299133%, 85.298157%, 85.449219%)" stop-opacity="1"/>
<stop offset="0.375" stop-color="rgb(86.592102%, 85.620117%, 85.76355%)" stop-opacity="1"/>
<stop offset="0.378906" stop-color="rgb(86.883545%, 85.942078%, 86.077881%)" stop-opacity="1"/>
<stop offset="0.382812" stop-color="rgb(87.176514%, 86.264038%, 86.392212%)" stop-opacity="1"/>
<stop offset="0.386719" stop-color="rgb(87.467957%, 86.585999%, 86.706543%)" stop-opacity="1"/>
<stop offset="0.390625" stop-color="rgb(87.760925%, 86.907959%, 87.020874%)" stop-opacity="1"/>
<stop offset="0.394531" stop-color="rgb(88.052368%, 87.229919%, 87.335205%)" stop-opacity="1"/>
<stop offset="0.398438" stop-color="rgb(88.343811%, 87.55188%, 87.649536%)" stop-opacity="1"/>
<stop offset="0.402344" stop-color="rgb(88.635254%, 87.87384%, 87.963867%)" stop-opacity="1"/>
<stop offset="0.40625" stop-color="rgb(88.928223%, 88.195801%, 88.278198%)" stop-opacity="1"/>
<stop offset="0.410156" stop-color="rgb(89.219666%, 88.516235%, 88.592529%)" stop-opacity="1"/>
<stop offset="0.414062" stop-color="rgb(89.512634%, 88.838196%, 88.90686%)" stop-opacity="1"/>
<stop offset="0.417969" stop-color="rgb(89.804077%, 89.160156%, 89.221191%)" stop-opacity="1"/>
<stop offset="0.421875" stop-color="rgb(90.097046%, 89.482117%, 89.535522%)" stop-opacity="1"/>
<stop offset="0.425781" stop-color="rgb(90.388489%, 89.804077%, 89.849854%)" stop-opacity="1"/>
<stop offset="0.429688" stop-color="rgb(90.679932%, 90.126038%, 90.164185%)" stop-opacity="1"/>
<stop offset="0.433594" stop-color="rgb(90.971375%, 90.447998%, 90.478516%)" stop-opacity="1"/>
<stop offset="0.4375" stop-color="rgb(91.264343%, 90.769958%, 90.792847%)" stop-opacity="1"/>
<stop offset="0.441406" stop-color="rgb(91.555786%, 91.090393%, 91.107178%)" stop-opacity="1"/>
<stop offset="0.445312" stop-color="rgb(91.848755%, 91.412354%, 91.421509%)" stop-opacity="1"/>
<stop offset="0.449219" stop-color="rgb(92.111206%, 91.699219%, 91.703796%)" stop-opacity="1"/>
<stop offset="0.453125" stop-color="rgb(92.375183%, 91.986084%, 91.986084%)" stop-opacity="1"/>
<stop offset="0.457031" stop-color="rgb(92.59491%, 92.221069%, 92.221069%)" stop-opacity="1"/>
<stop offset="0.460938" stop-color="rgb(92.816162%, 92.456055%, 92.456055%)" stop-opacity="1"/>
<stop offset="0.464844" stop-color="rgb(93.035889%, 92.689514%, 92.689514%)" stop-opacity="1"/>
<stop offset="0.46875" stop-color="rgb(93.255615%, 92.9245%, 92.9245%)" stop-opacity="1"/>
<stop offset="0.472656" stop-color="rgb(93.475342%, 93.157959%, 93.157959%)" stop-opacity="1"/>
<stop offset="0.476562" stop-color="rgb(93.696594%, 93.392944%, 93.392944%)" stop-opacity="1"/>
<stop offset="0.480469" stop-color="rgb(93.916321%, 93.626404%, 93.626404%)" stop-opacity="1"/>
<stop offset="0.484375" stop-color="rgb(94.136047%, 93.861389%, 93.861389%)" stop-opacity="1"/>
<stop offset="0.488281" stop-color="rgb(94.355774%, 94.094849%, 94.094849%)" stop-opacity="1"/>
<stop offset="0.492188" stop-color="rgb(94.577026%, 94.329834%, 94.329834%)" stop-opacity="1"/>
<stop offset="0.496094" stop-color="rgb(94.796753%, 94.564819%, 94.564819%)" stop-opacity="1"/>
<stop offset="0.5" stop-color="rgb(95.018005%, 94.799805%, 94.799805%)" stop-opacity="1"/>
<stop offset="0.503906" stop-color="rgb(95.237732%, 95.033264%, 95.033264%)" stop-opacity="1"/>
<stop offset="0.507812" stop-color="rgb(95.457458%, 95.26825%, 95.26825%)" stop-opacity="1"/>
<stop offset="0.511719" stop-color="rgb(95.677185%, 95.501709%, 95.501709%)" stop-opacity="1"/>
<stop offset="0.515625" stop-color="rgb(95.898438%, 95.736694%, 95.736694%)" stop-opacity="1"/>
<stop offset="0.519531" stop-color="rgb(96.118164%, 95.970154%, 95.970154%)" stop-opacity="1"/>
<stop offset="0.523438" stop-color="rgb(96.337891%, 96.205139%, 96.205139%)" stop-opacity="1"/>
<stop offset="0.527344" stop-color="rgb(96.557617%, 96.438599%, 96.438599%)" stop-opacity="1"/>
<stop offset="0.53125" stop-color="rgb(96.77887%, 96.673584%, 96.673584%)" stop-opacity="1"/>
<stop offset="0.535156" stop-color="rgb(96.998596%, 96.908569%, 96.908569%)" stop-opacity="1"/>
<stop offset="0.539062" stop-color="rgb(97.219849%, 97.143555%, 97.143555%)" stop-opacity="1"/>
<stop offset="0.542969" stop-color="rgb(97.439575%, 97.377014%, 97.377014%)" stop-opacity="1"/>
<stop offset="0.546875" stop-color="rgb(97.659302%, 97.612%, 97.612%)" stop-opacity="1"/>
<stop offset="0.550781" stop-color="rgb(97.879028%, 97.845459%, 97.845459%)" stop-opacity="1"/>
<stop offset="0.554688" stop-color="rgb(98.100281%, 98.080444%, 98.080444%)" stop-opacity="1"/>
<stop offset="0.5625" stop-color="rgb(98.249817%, 98.239136%, 98.239136%)" stop-opacity="1"/>
<stop offset="0.625" stop-color="rgb(98.399353%, 98.399353%, 98.399353%)" stop-opacity="1"/>
<stop offset="0.75" stop-color="rgb(98.399353%, 98.399353%, 98.399353%)" stop-opacity="1"/>
<stop offset="1" stop-color="rgb(98.399353%, 98.399353%, 98.399353%)" stop-opacity="1"/>
</linearGradient>
<clipPath id="clip-2">
<path clip-rule="nonzero" d="M 17 154 L 165 154 L 165 234 L 17 234 Z M 17 154 "/>
</clipPath>
<clipPath id="clip-3">
<path clip-rule="nonzero" d="M 17.308594 154.46875 C 17.332031 180.863281 17.347656 207.253906 17.371094 233.640625 C 66.234375 233.632812 115.09375 233.617188 163.957031 233.609375 C 163.980469 208.132812 164.003906 182.65625 164.023438 157.175781 C 159.171875 168.464844 151.734375 182.21875 140.191406 195.960938 C 135.734375 201.253906 131.25 205.875 126.921875 209.878906 C 125.722656 211.46875 124.523438 213.050781 123.328125 214.640625 C 122.648438 214.828125 121.964844 215.011719 121.28125 215.199219 C 120.96875 214.777344 119.753906 213.226562 118.078125 213.195312 C 115.90625 213.15625 113.476562 215.707031 113.355469 219.546875 C 113.101562 218.976562 110.960938 214.433594 106.101562 213.40625 C 103.761719 212.910156 101.796875 213.433594 100.785156 213.796875 C 100.125 214.34375 99.246094 215.191406 98.445312 216.40625 C 97.65625 217.597656 97.230469 218.714844 96.984375 219.523438 L 84.433594 219.523438 C 84.359375 219.058594 83.753906 215.632812 80.632812 213.921875 C 77.578125 212.25 74.484375 213.523438 73.53125 213.90625 C 70.238281 215.234375 68.84375 217.972656 68.535156 218.617188 C 67.792969 215.078125 65.316406 212.886719 63.140625 213.058594 C 62.789062 213.089844 61.65625 213.238281 60.480469 214.558594 C 59.226562 213.515625 57.976562 212.476562 56.722656 211.433594 C 50.902344 208.550781 40.066406 202.214844 30.96875 189.929688 C 20.332031 175.558594 17.976562 161.015625 17.324219 154.476562 Z M 17.308594 154.46875 "/>
</clipPath>
<linearGradient id="linear-pattern-1" gradientUnits="userSpaceOnUse" x1="15.080099" y1="250.75" x2="210.699991" y2="250.75" gradientTransform="matrix(0.75, 0, 0, 0.75, 6, 6)">
<stop offset="0" stop-color="rgb(56.098938%, 52.198792%, 52.89917%)" stop-opacity="1"/>
<stop offset="0.00390625" stop-color="rgb(56.417847%, 52.546692%, 53.242493%)" stop-opacity="1"/>
<stop offset="0.0078125" stop-color="rgb(56.736755%, 52.896118%, 53.587341%)" stop-opacity="1"/>
<stop offset="0.0117188" stop-color="rgb(57.055664%, 53.244019%, 53.930664%)" stop-opacity="1"/>
<stop offset="0.015625" stop-color="rgb(57.374573%, 53.593445%, 54.273987%)" stop-opacity="1"/>
<stop offset="0.0195313" stop-color="rgb(57.693481%, 53.941345%, 54.61731%)" stop-opacity="1"/>
<stop offset="0.0234375" stop-color="rgb(58.01239%, 54.289246%, 54.962158%)" stop-opacity="1"/>
<stop offset="0.0273438" stop-color="rgb(58.329773%, 54.637146%, 55.305481%)" stop-opacity="1"/>
<stop offset="0.03125" stop-color="rgb(58.648682%, 54.986572%, 55.648804%)" stop-opacity="1"/>
<stop offset="0.0351563" stop-color="rgb(58.96759%, 55.334473%, 55.992126%)" stop-opacity="1"/>
<stop offset="0.0390625" stop-color="rgb(59.286499%, 55.683899%, 56.336975%)" stop-opacity="1"/>
<stop offset="0.0429688" stop-color="rgb(59.605408%, 56.031799%, 56.680298%)" stop-opacity="1"/>
<stop offset="0.046875" stop-color="rgb(59.924316%, 56.381226%, 57.023621%)" stop-opacity="1"/>
<stop offset="0.0507813" stop-color="rgb(60.243225%, 56.729126%, 57.366943%)" stop-opacity="1"/>
<stop offset="0.0546875" stop-color="rgb(60.562134%, 57.077026%, 57.711792%)" stop-opacity="1"/>
<stop offset="0.0585938" stop-color="rgb(60.881042%, 57.424927%, 58.055115%)" stop-opacity="1"/>
<stop offset="0.0625" stop-color="rgb(61.199951%, 57.774353%, 58.399963%)" stop-opacity="1"/>
<stop offset="0.0664062" stop-color="rgb(61.517334%, 58.122253%, 58.743286%)" stop-opacity="1"/>
<stop offset="0.0703125" stop-color="rgb(61.836243%, 58.47168%, 59.086609%)" stop-opacity="1"/>
<stop offset="0.0742188" stop-color="rgb(62.155151%, 58.81958%, 59.429932%)" stop-opacity="1"/>
<stop offset="0.078125" stop-color="rgb(62.47406%, 59.16748%, 59.77478%)" stop-opacity="1"/>
<stop offset="0.0820312" stop-color="rgb(62.792969%, 59.515381%, 60.118103%)" stop-opacity="1"/>
<stop offset="0.0859375" stop-color="rgb(63.111877%, 59.864807%, 60.461426%)" stop-opacity="1"/>
<stop offset="0.0898438" stop-color="rgb(63.430786%, 60.212708%, 60.804749%)" stop-opacity="1"/>
<stop offset="0.09375" stop-color="rgb(63.749695%, 60.562134%, 61.149597%)" stop-opacity="1"/>
<stop offset="0.0976562" stop-color="rgb(64.067078%, 60.910034%, 61.49292%)" stop-opacity="1"/>
<stop offset="0.101562" stop-color="rgb(64.385986%, 61.257935%, 61.836243%)" stop-opacity="1"/>
<stop offset="0.105469" stop-color="rgb(64.704895%, 61.605835%, 62.179565%)" stop-opacity="1"/>
<stop offset="0.109375" stop-color="rgb(65.023804%, 61.955261%, 62.524414%)" stop-opacity="1"/>
<stop offset="0.113281" stop-color="rgb(65.342712%, 62.303162%, 62.867737%)" stop-opacity="1"/>
<stop offset="0.117188" stop-color="rgb(65.661621%, 62.652588%, 63.21106%)" stop-opacity="1"/>
<stop offset="0.121094" stop-color="rgb(65.98053%, 63.000488%, 63.554382%)" stop-opacity="1"/>
<stop offset="0.125" stop-color="rgb(66.299438%, 63.349915%, 63.899231%)" stop-opacity="1"/>
<stop offset="0.128906" stop-color="rgb(66.618347%, 63.697815%, 64.242554%)" stop-opacity="1"/>
<stop offset="0.132813" stop-color="rgb(66.937256%, 64.045715%, 64.587402%)" stop-opacity="1"/>
<stop offset="0.136719" stop-color="rgb(67.254639%, 64.393616%, 64.930725%)" stop-opacity="1"/>
<stop offset="0.140625" stop-color="rgb(67.573547%, 64.743042%, 65.274048%)" stop-opacity="1"/>
<stop offset="0.144531" stop-color="rgb(67.892456%, 65.090942%, 65.617371%)" stop-opacity="1"/>
<stop offset="0.148438" stop-color="rgb(68.211365%, 65.440369%, 65.962219%)" stop-opacity="1"/>
<stop offset="0.152344" stop-color="rgb(68.530273%, 65.788269%, 66.305542%)" stop-opacity="1"/>
<stop offset="0.15625" stop-color="rgb(68.849182%, 66.136169%, 66.648865%)" stop-opacity="1"/>
<stop offset="0.160156" stop-color="rgb(69.168091%, 66.48407%, 66.992188%)" stop-opacity="1"/>
<stop offset="0.164063" stop-color="rgb(69.487%, 66.833496%, 67.337036%)" stop-opacity="1"/>
<stop offset="0.167969" stop-color="rgb(69.805908%, 67.181396%, 67.680359%)" stop-opacity="1"/>
<stop offset="0.171875" stop-color="rgb(70.124817%, 67.530823%, 68.023682%)" stop-opacity="1"/>
<stop offset="0.175781" stop-color="rgb(70.4422%, 67.878723%, 68.367004%)" stop-opacity="1"/>
<stop offset="0.179688" stop-color="rgb(70.761108%, 68.226624%, 68.711853%)" stop-opacity="1"/>
<stop offset="0.183594" stop-color="rgb(71.080017%, 68.574524%, 69.055176%)" stop-opacity="1"/>
<stop offset="0.1875" stop-color="rgb(71.398926%, 68.92395%, 69.398499%)" stop-opacity="1"/>
<stop offset="0.191406" stop-color="rgb(71.717834%, 69.271851%, 69.741821%)" stop-opacity="1"/>
<stop offset="0.195313" stop-color="rgb(72.036743%, 69.621277%, 70.08667%)" stop-opacity="1"/>
<stop offset="0.199219" stop-color="rgb(72.355652%, 69.969177%, 70.429993%)" stop-opacity="1"/>
<stop offset="0.203125" stop-color="rgb(72.674561%, 70.318604%, 70.774841%)" stop-opacity="1"/>
<stop offset="0.207031" stop-color="rgb(72.993469%, 70.666504%, 71.118164%)" stop-opacity="1"/>
<stop offset="0.210938" stop-color="rgb(73.312378%, 71.014404%, 71.461487%)" stop-opacity="1"/>
<stop offset="0.214844" stop-color="rgb(73.629761%, 71.362305%, 71.80481%)" stop-opacity="1"/>
<stop offset="0.21875" stop-color="rgb(73.948669%, 71.711731%, 72.149658%)" stop-opacity="1"/>
<stop offset="0.222656" stop-color="rgb(74.267578%, 72.059631%, 72.492981%)" stop-opacity="1"/>
<stop offset="0.226563" stop-color="rgb(74.586487%, 72.409058%, 72.836304%)" stop-opacity="1"/>
<stop offset="0.230469" stop-color="rgb(74.905396%, 72.756958%, 73.179626%)" stop-opacity="1"/>
<stop offset="0.234375" stop-color="rgb(75.224304%, 73.104858%, 73.524475%)" stop-opacity="1"/>
<stop offset="0.238281" stop-color="rgb(75.543213%, 73.452759%, 73.867798%)" stop-opacity="1"/>
<stop offset="0.242188" stop-color="rgb(75.862122%, 73.802185%, 74.211121%)" stop-opacity="1"/>
<stop offset="0.246094" stop-color="rgb(76.18103%, 74.150085%, 74.554443%)" stop-opacity="1"/>
<stop offset="0.25" stop-color="rgb(76.499939%, 74.499512%, 74.899292%)" stop-opacity="1"/>
<stop offset="0.253906" stop-color="rgb(76.791382%, 74.821472%, 75.213623%)" stop-opacity="1"/>
<stop offset="0.257813" stop-color="rgb(77.082825%, 75.143433%, 75.527954%)" stop-opacity="1"/>
<stop offset="0.261719" stop-color="rgb(77.374268%, 75.463867%, 75.842285%)" stop-opacity="1"/>
<stop offset="0.265625" stop-color="rgb(77.667236%, 75.785828%, 76.156616%)" stop-opacity="1"/>
<stop offset="0.269531" stop-color="rgb(77.958679%, 76.107788%, 76.470947%)" stop-opacity="1"/>
<stop offset="0.273438" stop-color="rgb(78.251648%, 76.429749%, 76.785278%)" stop-opacity="1"/>
<stop offset="0.277344" stop-color="rgb(78.543091%, 76.751709%, 77.099609%)" stop-opacity="1"/>
<stop offset="0.28125" stop-color="rgb(78.83606%, 77.073669%, 77.41394%)" stop-opacity="1"/>
<stop offset="0.285156" stop-color="rgb(79.127502%, 77.39563%, 77.728271%)" stop-opacity="1"/>
<stop offset="0.289063" stop-color="rgb(79.418945%, 77.71759%, 78.042603%)" stop-opacity="1"/>
<stop offset="0.292969" stop-color="rgb(79.710388%, 78.039551%, 78.356934%)" stop-opacity="1"/>
<stop offset="0.296875" stop-color="rgb(80.003357%, 78.361511%, 78.671265%)" stop-opacity="1"/>
<stop offset="0.300781" stop-color="rgb(80.2948%, 78.681946%, 78.985596%)" stop-opacity="1"/>
<stop offset="0.304688" stop-color="rgb(80.587769%, 79.003906%, 79.299927%)" stop-opacity="1"/>
<stop offset="0.308594" stop-color="rgb(80.879211%, 79.325867%, 79.614258%)" stop-opacity="1"/>
<stop offset="0.3125" stop-color="rgb(81.17218%, 79.647827%, 79.928589%)" stop-opacity="1"/>
<stop offset="0.316406" stop-color="rgb(81.463623%, 79.969788%, 80.24292%)" stop-opacity="1"/>
<stop offset="0.320313" stop-color="rgb(81.756592%, 80.291748%, 80.557251%)" stop-opacity="1"/>
<stop offset="0.324219" stop-color="rgb(82.048035%, 80.613708%, 80.871582%)" stop-opacity="1"/>
<stop offset="0.328125" stop-color="rgb(82.339478%, 80.935669%, 81.185913%)" stop-opacity="1"/>
<stop offset="0.332031" stop-color="rgb(82.63092%, 81.257629%, 81.500244%)" stop-opacity="1"/>
<stop offset="0.335938" stop-color="rgb(82.923889%, 81.57959%, 81.814575%)" stop-opacity="1"/>
<stop offset="0.339844" stop-color="rgb(83.215332%, 81.900024%, 82.128906%)" stop-opacity="1"/>
<stop offset="0.34375" stop-color="rgb(83.508301%, 82.221985%, 82.443237%)" stop-opacity="1"/>
<stop offset="0.347656" stop-color="rgb(83.799744%, 82.543945%, 82.757568%)" stop-opacity="1"/>
<stop offset="0.351563" stop-color="rgb(84.092712%, 82.865906%, 83.071899%)" stop-opacity="1"/>
<stop offset="0.355469" stop-color="rgb(84.384155%, 83.187866%, 83.38623%)" stop-opacity="1"/>
<stop offset="0.359375" stop-color="rgb(84.675598%, 83.509827%, 83.700562%)" stop-opacity="1"/>
<stop offset="0.363281" stop-color="rgb(84.967041%, 83.831787%, 84.014893%)" stop-opacity="1"/>
<stop offset="0.367188" stop-color="rgb(85.26001%, 84.153748%, 84.33075%)" stop-opacity="1"/>
<stop offset="0.371094" stop-color="rgb(85.551453%, 84.474182%, 84.645081%)" stop-opacity="1"/>
<stop offset="0.375" stop-color="rgb(85.844421%, 84.796143%, 84.959412%)" stop-opacity="1"/>
<stop offset="0.378906" stop-color="rgb(86.135864%, 85.118103%, 85.273743%)" stop-opacity="1"/>
<stop offset="0.382813" stop-color="rgb(86.428833%, 85.440063%, 85.588074%)" stop-opacity="1"/>
<stop offset="0.386719" stop-color="rgb(86.720276%, 85.762024%, 85.902405%)" stop-opacity="1"/>
<stop offset="0.390625" stop-color="rgb(87.013245%, 86.083984%, 86.216736%)" stop-opacity="1"/>
<stop offset="0.394531" stop-color="rgb(87.304688%, 86.405945%, 86.531067%)" stop-opacity="1"/>
<stop offset="0.398438" stop-color="rgb(87.59613%, 86.727905%, 86.845398%)" stop-opacity="1"/>
<stop offset="0.402344" stop-color="rgb(87.887573%, 87.049866%, 87.159729%)" stop-opacity="1"/>
<stop offset="0.40625" stop-color="rgb(88.180542%, 87.371826%, 87.47406%)" stop-opacity="1"/>
<stop offset="0.410156" stop-color="rgb(88.471985%, 87.692261%, 87.788391%)" stop-opacity="1"/>
<stop offset="0.414063" stop-color="rgb(88.764954%, 88.014221%, 88.102722%)" stop-opacity="1"/>
<stop offset="0.417969" stop-color="rgb(89.056396%, 88.336182%, 88.417053%)" stop-opacity="1"/>
<stop offset="0.421875" stop-color="rgb(89.349365%, 88.658142%, 88.731384%)" stop-opacity="1"/>
<stop offset="0.425781" stop-color="rgb(89.640808%, 88.980103%, 89.045715%)" stop-opacity="1"/>
<stop offset="0.429688" stop-color="rgb(89.933777%, 89.302063%, 89.360046%)" stop-opacity="1"/>
<stop offset="0.433594" stop-color="rgb(90.22522%, 89.624023%, 89.674377%)" stop-opacity="1"/>
<stop offset="0.4375" stop-color="rgb(90.516663%, 89.945984%, 89.988708%)" stop-opacity="1"/>
<stop offset="0.441406" stop-color="rgb(90.808105%, 90.267944%, 90.30304%)" stop-opacity="1"/>
<stop offset="0.445313" stop-color="rgb(91.101074%, 90.589905%, 90.617371%)" stop-opacity="1"/>
<stop offset="0.449219" stop-color="rgb(91.392517%, 90.910339%, 90.931702%)" stop-opacity="1"/>
<stop offset="0.453125" stop-color="rgb(91.685486%, 91.2323%, 91.246033%)" stop-opacity="1"/>
<stop offset="0.457031" stop-color="rgb(91.967773%, 91.543579%, 91.549683%)" stop-opacity="1"/>
<stop offset="0.460938" stop-color="rgb(92.251587%, 91.854858%, 91.854858%)" stop-opacity="1"/>
<stop offset="0.464844" stop-color="rgb(92.471313%, 92.089844%, 92.089844%)" stop-opacity="1"/>
<stop offset="0.46875" stop-color="rgb(92.692566%, 92.324829%, 92.324829%)" stop-opacity="1"/>
<stop offset="0.472656" stop-color="rgb(92.912292%, 92.558289%, 92.558289%)" stop-opacity="1"/>
<stop offset="0.476563" stop-color="rgb(93.132019%, 92.793274%, 92.793274%)" stop-opacity="1"/>
<stop offset="0.480469" stop-color="rgb(93.351746%, 93.026733%, 93.026733%)" stop-opacity="1"/>
<stop offset="0.484375" stop-color="rgb(93.572998%, 93.261719%, 93.261719%)" stop-opacity="1"/>
<stop offset="0.488281" stop-color="rgb(93.792725%, 93.495178%, 93.495178%)" stop-opacity="1"/>
<stop offset="0.492188" stop-color="rgb(94.013977%, 93.730164%, 93.730164%)" stop-opacity="1"/>
<stop offset="0.496094" stop-color="rgb(94.233704%, 93.963623%, 93.963623%)" stop-opacity="1"/>
<stop offset="0.5" stop-color="rgb(94.45343%, 94.198608%, 94.198608%)" stop-opacity="1"/>
<stop offset="0.503906" stop-color="rgb(94.673157%, 94.433594%, 94.433594%)" stop-opacity="1"/>
<stop offset="0.507812" stop-color="rgb(94.894409%, 94.668579%, 94.668579%)" stop-opacity="1"/>
<stop offset="0.511719" stop-color="rgb(95.114136%, 94.902039%, 94.902039%)" stop-opacity="1"/>
<stop offset="0.515625" stop-color="rgb(95.333862%, 95.137024%, 95.137024%)" stop-opacity="1"/>
<stop offset="0.519531" stop-color="rgb(95.553589%, 95.370483%, 95.370483%)" stop-opacity="1"/>
<stop offset="0.523438" stop-color="rgb(95.774841%, 95.605469%, 95.605469%)" stop-opacity="1"/>
<stop offset="0.527344" stop-color="rgb(95.994568%, 95.838928%, 95.838928%)" stop-opacity="1"/>
<stop offset="0.53125" stop-color="rgb(96.21582%, 96.073914%, 96.073914%)" stop-opacity="1"/>
<stop offset="0.535156" stop-color="rgb(96.435547%, 96.307373%, 96.307373%)" stop-opacity="1"/>
<stop offset="0.539062" stop-color="rgb(96.655273%, 96.542358%, 96.542358%)" stop-opacity="1"/>
<stop offset="0.542969" stop-color="rgb(96.875%, 96.777344%, 96.777344%)" stop-opacity="1"/>
<stop offset="0.546875" stop-color="rgb(97.096252%, 97.012329%, 97.012329%)" stop-opacity="1"/>
<stop offset="0.550781" stop-color="rgb(97.315979%, 97.245789%, 97.245789%)" stop-opacity="1"/>
<stop offset="0.554688" stop-color="rgb(97.535706%, 97.480774%, 97.480774%)" stop-opacity="1"/>
<stop offset="0.558594" stop-color="rgb(97.755432%, 97.714233%, 97.714233%)" stop-opacity="1"/>
<stop offset="0.5625" stop-color="rgb(97.976685%, 97.949219%, 97.949219%)" stop-opacity="1"/>
<stop offset="0.566406" stop-color="rgb(98.187256%, 98.173523%, 98.173523%)" stop-opacity="1"/>
<stop offset="0.570312" stop-color="rgb(98.399353%, 98.399353%, 98.399353%)" stop-opacity="1"/>
<stop offset="0.578125" stop-color="rgb(98.399353%, 98.399353%, 98.399353%)" stop-opacity="1"/>
<stop offset="0.59375" stop-color="rgb(98.399353%, 98.399353%, 98.399353%)" stop-opacity="1"/>
<stop offset="0.625" stop-color="rgb(98.399353%, 98.399353%, 98.399353%)" stop-opacity="1"/>
<stop offset="0.75" stop-color="rgb(98.399353%, 98.399353%, 98.399353%)" stop-opacity="1"/>
<stop offset="1" stop-color="rgb(98.399353%, 98.399353%, 98.399353%)" stop-opacity="1"/>
</linearGradient>
</defs>
<path fill-rule="nonzero" fill="rgb(100%, 100%, 100%)" fill-opacity="1" d="M 168.9375 243.871094 L 12.421875 243.871094 C 9.097656 243.871094 6.40625 241.15625 6.40625 237.808594 L 6.40625 12.238281 C 6.40625 8.894531 9.097656 6.179688 12.421875 6.179688 L 168.9375 6.179688 C 172.261719 6.179688 174.953125 8.894531 174.953125 12.238281 L 174.953125 237.808594 C 174.953125 241.15625 172.261719 243.871094 168.9375 243.871094 Z M 168.9375 243.871094 "/>
<g clip-path="url(#clip-0)">
<g clip-path="url(#clip-1)">
<path fill-rule="nonzero" fill="url(#linear-pattern-0)" d="M 17.460938 16.222656 L 17.460938 93.921875 L 164.101562 93.921875 L 164.101562 16.222656 Z M 17.460938 16.222656 "/>
</g>
</g>
<path fill="none" stroke-width="1" stroke-linecap="round" stroke-linejoin="round" stroke="rgb(5.488586%, 5.488586%, 5.488586%)" stroke-opacity="1" stroke-miterlimit="4" d="M 211.291676 304.031263 L 14.661459 304.031263 C 14.661459 243.588552 14.661459 183.15105 14.661459 122.708339 C 14.661459 86.187504 14.661459 49.682294 14.661459 13.161459 L 211.291676 13.161459 C 211.291676 49.619794 211.291676 86.078129 211.291676 122.541672 C 211.291676 183.041675 211.291676 243.53126 211.291676 304.031263 Z M 211.291676 304.031263 " transform="matrix(0.75, 0, 0, 0.75, 6, 6)"/>
<path fill-rule="nonzero" fill="rgb(100%, 100%, 100%)" fill-opacity="1" d="M 90.652344 38.300781 C 90.601562 37.679688 90.34375 35.496094 88.539062 33.644531 C 86.917969 31.980469 85.011719 31.582031 84.359375 31.46875 C 84.414062 30.816406 84.464844 30.164062 84.515625 29.511719 C 85.371094 29.113281 87.089844 28.171875 88.515625 26.257812 C 89.960938 24.316406 90.375 22.378906 90.511719 21.441406 C 90.847656 22.613281 91.589844 24.613281 93.285156 26.566406 C 94.589844 28.066406 95.976562 28.980469 96.9375 29.511719 C 96.988281 30.164062 97.042969 30.816406 97.09375 31.46875 C 96.628906 31.515625 93.636719 31.859375 91.835938 34.476562 C 90.78125 36.023438 90.652344 37.597656 90.636719 38.300781 Z M 90.652344 38.300781 "/>
<path fill="none" stroke-width="1" stroke-linecap="round" stroke-linejoin="round" stroke="rgb(5.488586%, 5.488586%, 5.488586%)" stroke-opacity="1" stroke-miterlimit="4" d="M 71.26042 29.140627 C 72.369795 28.81771 74.19792 28.468752 76.270837 28.968752 C 78.078129 29.401043 79.302087 30.281252 79.989587 30.802085 C 86.067712 35.359377 86.968754 38.901044 91.151046 40.500002 C 91.687504 40.708335 95.598963 42.000002 99.541671 40.16146 C 102.317713 38.859377 104.302088 35.901043 104.60938 32.687502 C 105.052088 28.088543 101.848963 23.541668 98.140629 22.708335 C 97.708338 22.609376 95.369796 22.088543 93.458338 23.520835 C 93.218754 23.697918 91.739587 24.838543 91.531254 26.84896 C 91.500004 27.151043 91.260421 29.739585 93.239588 31.000002 C 94.348963 31.697918 95.760421 31.739585 96.880213 31.218752 C 98.468754 30.489585 99.432296 28.66146 99.182296 26.697918 C 99.567713 27.13021 100.10938 27.802085 100.541671 28.718752 C 100.750005 29.16146 102.10938 32.171877 100.812505 35.062502 C 99.229171 38.578127 94.921879 39.197919 94.338546 39.281252 C 90.489587 39.828127 86.489587 37.812502 83.869795 34.182293 " transform="matrix(0.75, 0, 0, 0.75, 6, 6)"/>
<path fill="none" stroke-width="1" stroke-linecap="round" stroke-linejoin="round" stroke="rgb(5.488586%, 5.488586%, 5.488586%)" stroke-opacity="1" stroke-miterlimit="4" d="M 104.687505 31.229168 C 105.447921 30.859377 106.64063 30.187502 107.848963 29.088543 C 111.718755 25.562501 112.432297 20.66146 112.750005 18.479168 C 112.932297 17.250001 113.088547 15.421876 112.880213 13.151043 " transform="matrix(0.75, 0, 0, 0.75, 6, 6)"/>
<path fill="none" stroke-width="1" stroke-linecap="round" stroke-linejoin="round" stroke="rgb(5.488586%, 5.488586%, 5.488586%)" stroke-opacity="1" stroke-miterlimit="4" d="M 104.479171 33.838543 C 105.432296 34.010418 106.458338 34.312502 107.479171 34.828127 C 112.088547 37.182294 112.770838 42.09896 112.869797 42.947919 " transform="matrix(0.75, 0, 0, 0.75, 6, 6)"/>
<path fill="none" stroke-width="1" stroke-linecap="round" stroke-linejoin="round" stroke="rgb(5.488586%, 5.488586%, 5.488586%)" stroke-opacity="1" stroke-miterlimit="4" d="M 154.697923 29.140627 C 153.588548 28.81771 151.760423 28.468752 149.687507 28.968752 C 147.880215 29.401043 146.661465 30.281252 145.968756 30.802085 C 139.890631 35.359377 138.989589 38.901044 134.812506 40.500002 C 134.270839 40.708335 130.359381 42.000002 126.421881 40.16146 C 123.64063 38.859377 121.661464 35.901043 121.348964 32.687502 C 120.911464 28.088543 124.109381 23.541668 127.817714 22.708335 C 128.250006 22.609376 130.588547 22.088543 132.500006 23.520835 C 132.739589 23.697918 134.218756 24.838543 134.432298 26.84896 C 134.458339 27.151043 134.697923 29.739585 132.718756 31.000002 C 131.609381 31.697918 130.197922 31.739585 129.078131 31.218752 C 127.489589 30.489585 126.531256 28.66146 126.781256 26.697918 C 126.390631 27.13021 125.848964 27.802085 125.421881 28.718752 C 125.208339 29.16146 123.848964 32.171877 125.151047 35.062502 C 126.729172 38.578127 131.041672 39.197919 131.619797 39.281252 C 135.468756 39.828127 139.468756 37.812502 142.088548 34.182293 " transform="matrix(0.75, 0, 0, 0.75, 6, 6)"/>
<path fill="none" stroke-width="1" stroke-linecap="round" stroke-linejoin="round" stroke="rgb(5.488586%, 5.488586%, 5.488586%)" stroke-opacity="1" stroke-miterlimit="4" d="M 121.468755 33.838543 C 120.520839 34.010418 119.489589 34.312502 118.468755 34.828127 C 113.85938 37.182294 113.182297 42.09896 113.07813 42.947919 " transform="matrix(0.75, 0, 0, 0.75, 6, 6)"/>
<path fill="none" stroke-width="1" stroke-linecap="round" stroke-linejoin="round" stroke="rgb(5.488586%, 5.488586%, 5.488586%)" stroke-opacity="1" stroke-miterlimit="4" d="M 153.750007 38.281252 C 153.598965 38.619794 152.812507 40.369794 150.95834 40.947919 C 149.000007 41.56771 147.281256 40.432294 146.562506 39.947919 C 143.531256 37.937502 143.229173 34.109377 143.197923 33.489585 " transform="matrix(0.75, 0, 0, 0.75, 6, 6)"/>
<path fill="none" stroke-width="1" stroke-linecap="round" stroke-linejoin="round" stroke="rgb(5.488586%, 5.488586%, 5.488586%)" stroke-opacity="1" stroke-miterlimit="4" d="M 164.390632 47.500002 C 163.531257 47.010419 162.317715 46.270836 160.95834 45.281252 C 157.031257 42.421877 153.95834 40.187502 153.161465 36.552085 C 152.432298 33.239585 153.921882 30.447918 154.182298 29.979168 C 156.630215 25.562501 161.760424 24.828126 162.817715 24.708335 C 167.588549 24.171876 172.432299 26.687501 175.458341 31.088543 " transform="matrix(0.75, 0, 0, 0.75, 6, 6)"/>
<path fill="none" stroke-width="1" stroke-linecap="round" stroke-linejoin="round" stroke="rgb(5.488586%, 5.488586%, 5.488586%)" stroke-opacity="1" stroke-miterlimit="4" d="M 174.791674 54.369794 C 174.838549 44.078127 172.317716 36.000002 168.328132 33.770835 C 166.281257 32.63021 164.197924 32.59896 164.197924 32.59896 C 163.510424 32.59896 160.02084 32.651043 157.812507 35.531252 C 155.838548 38.09896 156.328132 41.041669 156.421882 41.541669 " transform="matrix(0.75, 0, 0, 0.75, 6, 6)"/>
<path fill="none" stroke-width="1" stroke-linecap="round" stroke-linejoin="round" stroke="rgb(5.488586%, 5.488586%, 5.488586%)" stroke-opacity="1" stroke-miterlimit="4" d="M 202.968759 49.171877 C 203.489592 48.911461 205.151051 48.140627 206.937509 48.598961 C 210.130217 49.411461 210.489592 53.260419 210.510426 53.541669 C 210.697926 55.989586 209.197926 58.838544 206.338551 59.859378 C 204.140634 60.640628 202.020842 60.020836 200.890634 59.687503 C 197.229175 58.619794 195.218758 56.130211 194.218758 54.869794 C 191.020842 50.791669 192.578133 48.812502 189.302092 45.911461 C 188.411467 45.119794 186.609383 43.520835 183.848966 43.09896 C 180.979175 42.651044 179.802091 43.890627 177.182299 43.16146 C 174.609383 42.437502 173.281258 40.552085 172.937508 40.020835 C 172.781258 39.781252 170.911466 36.770835 172.671883 33.739585 C 173.031258 33.109377 174.098966 31.281252 176.510424 30.750002 C 178.697924 30.281252 181.109383 31.078127 182.4323 32.651043 C 183.562508 33.989585 183.890633 35.88021 183.010425 37.38021 C 182.817716 37.708335 182.218758 38.729169 180.859383 39.140627 C 179.718758 39.479169 178.270841 39.328127 177.270841 38.531252 C 176.390633 37.81771 176.229174 36.91146 176.197924 36.640627 " transform="matrix(0.75, 0, 0, 0.75, 6, 6)"/>
<path fill="none" stroke-width="1" stroke-linecap="round" stroke-linejoin="round" stroke="rgb(5.488586%, 5.488586%, 5.488586%)" stroke-opacity="1" stroke-miterlimit="4" d="M 191.359383 48.697919 C 190.937508 44.140627 188.609383 40.390627 185.197925 39.171877 C 184.421883 38.890627 183.197925 38.609377 181.578133 38.812502 " transform="matrix(0.75, 0, 0, 0.75, 6, 6)"/>
<path fill="none" stroke-width="1" stroke-linecap="round" stroke-linejoin="round" stroke="rgb(5.488586%, 5.488586%, 5.488586%)" stroke-opacity="1" stroke-miterlimit="4" d="M 194.817717 55.770836 C 194.197925 55.609378 191.6198 55.010419 189.421883 56.447919 C 186.770841 58.187503 185.708341 62.218753 187.33855 66.04167 " transform="matrix(0.75, 0, 0, 0.75, 6, 6)"/>
<path fill="none" stroke-width="1" stroke-linecap="round" stroke-linejoin="round" stroke="rgb(5.488586%, 5.488586%, 5.488586%)" stroke-opacity="1" stroke-miterlimit="4" d="M 196.630217 69.520837 C 196.218759 69.500003 195.3698 69.51042 194.468758 69.97917 C 193.010425 70.750003 192.531258 72.161462 192.437508 72.47917 " transform="matrix(0.75, 0, 0, 0.75, 6, 6)"/>
<path fill="none" stroke-width="1" stroke-linecap="round" stroke-linejoin="round" stroke="rgb(5.488586%, 5.488586%, 5.488586%)" stroke-opacity="1" stroke-miterlimit="4" d="M 211.281259 121.270839 C 211.260426 121.130214 211.239592 120.880214 211.197926 120.588547 C 210.421884 113.739588 206.010426 81.76042 179.708341 58.432294 C 176.437508 55.531253 171.369799 51.458336 164.390632 47.500002 " transform="matrix(0.75, 0, 0, 0.75, 6, 6)"/>
<path fill-rule="nonzero" fill="rgb(0%, 0%, 0%)" fill-opacity="1" stroke-width="0.75" stroke-linecap="round" stroke-linejoin="round" stroke="rgb(0%, 0%, 0%)" stroke-opacity="1" stroke-miterlimit="4" d="M 112.869797 43.06771 C 112.802088 42.239585 112.458338 39.328127 110.052088 36.859377 C 107.89063 34.640627 105.348963 34.109377 104.479171 33.958335 C 104.552088 33.088543 104.619796 32.218752 104.687505 31.34896 C 105.82813 30.81771 108.119797 29.562502 110.020838 27.010418 C 111.947922 24.421876 112.500005 21.838543 112.682297 20.588543 C 113.130213 22.151043 114.119797 24.81771 116.380214 27.421876 C 118.119797 29.421877 119.968755 30.640627 121.250005 31.34896 C 121.317714 32.218752 121.39063 33.088543 121.458339 33.958335 C 120.838547 34.020835 116.848964 34.479168 114.447922 37.968752 C 113.041672 40.031252 112.869797 42.13021 112.848963 43.06771 Z M 112.869797 43.06771 " transform="matrix(0.75, 0, 0, 0.75, 6, 6)"/>
<path fill="none" stroke-width="1" stroke-linecap="round" stroke-linejoin="round" stroke="rgb(5.488586%, 5.488586%, 5.488586%)" stroke-opacity="1" stroke-miterlimit="4" d="M 154.697923 29.140627 C 153.588548 28.81771 151.760423 28.468752 149.687507 28.968752 C 147.880215 29.401043 146.661465 30.281252 145.968756 30.802085 C 139.890631 35.359377 138.989589 38.901044 134.812506 40.500002 C 134.270839 40.708335 130.359381 42.000002 126.421881 40.16146 C 123.64063 38.859377 121.661464 35.901043 121.348964 32.687502 C 120.911464 28.088543 124.109381 23.541668 127.817714 22.708335 C 128.250006 22.609376 130.588547 22.088543 132.500006 23.520835 C 132.739589 23.697918 134.218756 24.838543 134.432298 26.84896 C 134.458339 27.151043 134.697923 29.739585 132.718756 31.000002 C 131.609381 31.697918 130.197922 31.739585 129.078131 31.218752 C 127.489589 30.489585 126.531256 28.66146 126.781256 26.697918 C 126.390631 27.13021 125.848964 27.802085 125.421881 28.718752 C 125.208339 29.16146 123.848964 32.171877 125.151047 35.062502 C 126.729172 38.578127 131.041672 39.197919 131.619797 39.281252 C 135.468756 39.828127 139.468756 37.812502 142.088548 34.182293 " transform="matrix(0.75, 0, 0, 0.75, 6, 6)"/>
<path fill="none" stroke-width="1" stroke-linecap="round" stroke-linejoin="round" stroke="rgb(5.488586%, 5.488586%, 5.488586%)" stroke-opacity="1" stroke-miterlimit="4" d="M 121.260422 31.229168 C 119.791672 30.500002 118.760422 29.687502 118.098964 29.088543 C 113.64063 25.031251 113.208338 19.000001 113.052088 16.781251 C 112.937505 15.260418 113.000005 14.000001 113.067713 13.151043 " transform="matrix(0.75, 0, 0, 0.75, 6, 6)"/>
<path fill="none" stroke-width="1" stroke-linecap="round" stroke-linejoin="round" stroke="rgb(5.488586%, 5.488586%, 5.488586%)" stroke-opacity="1" stroke-miterlimit="4" d="M 121.468755 33.838543 C 120.520839 34.010418 119.489589 34.312502 118.468755 34.828127 C 113.85938 37.182294 113.182297 42.09896 113.07813 42.947919 " transform="matrix(0.75, 0, 0, 0.75, 6, 6)"/>
<path fill="none" stroke-width="1" stroke-linecap="round" stroke-linejoin="round" stroke="rgb(5.488586%, 5.488586%, 5.488586%)" stroke-opacity="1" stroke-miterlimit="4" d="M 153.750007 38.281252 C 153.598965 38.619794 152.812507 40.369794 150.95834 40.947919 C 149.000007 41.56771 147.281256 40.432294 146.562506 39.947919 C 143.531256 37.937502 143.229173 34.109377 143.197923 33.489585 " transform="matrix(0.75, 0, 0, 0.75, 6, 6)"/>
<path fill="none" stroke-width="1" stroke-linecap="round" stroke-linejoin="round" stroke="rgb(5.488586%, 5.488586%, 5.488586%)" stroke-opacity="1" stroke-miterlimit="4" d="M 164.390632 47.500002 C 163.531257 47.010419 162.317715 46.270836 160.95834 45.281252 C 157.031257 42.421877 153.95834 40.187502 153.161465 36.552085 C 152.432298 33.239585 153.921882 30.447918 154.182298 29.979168 C 156.630215 25.562501 161.760424 24.828126 162.817715 24.708335 C 167.588549 24.171876 172.432299 26.687501 175.458341 31.088543 " transform="matrix(0.75, 0, 0, 0.75, 6, 6)"/>
<path fill="none" stroke-width="1" stroke-linecap="round" stroke-linejoin="round" stroke="rgb(5.488586%, 5.488586%, 5.488586%)" stroke-opacity="1" stroke-miterlimit="4" d="M 174.791674 54.369794 C 174.838549 44.078127 172.317716 36.000002 168.328132 33.770835 C 166.281257 32.63021 164.197924 32.59896 164.197924 32.59896 C 163.510424 32.59896 160.02084 32.651043 157.812507 35.531252 C 155.838548 38.09896 156.328132 41.041669 156.421882 41.541669 " transform="matrix(0.75, 0, 0, 0.75, 6, 6)"/>
<path fill="none" stroke-width="1" stroke-linecap="round" stroke-linejoin="round" stroke="rgb(5.488586%, 5.488586%, 5.488586%)" stroke-opacity="1" stroke-miterlimit="4" d="M 202.968759 49.171877 C 203.489592 48.911461 205.151051 48.140627 206.937509 48.598961 C 210.130217 49.411461 210.489592 53.260419 210.510426 53.541669 C 210.697926 55.989586 209.197926 58.838544 206.338551 59.859378 C 204.140634 60.640628 202.020842 60.020836 200.890634 59.687503 C 197.229175 58.619794 195.218758 56.130211 194.218758 54.869794 C 191.020842 50.791669 192.578133 48.812502 189.302092 45.911461 C 188.411467 45.119794 186.609383 43.520835 183.848966 43.09896 C 180.979175 42.651044 179.802091 43.890627 177.182299 43.16146 C 174.609383 42.437502 173.281258 40.552085 172.937508 40.020835 C 172.781258 39.781252 170.911466 36.770835 172.671883 33.739585 C 173.031258 33.109377 174.098966 31.281252 176.510424 30.750002 C 178.697924 30.281252 181.109383 31.078127 182.4323 32.651043 C 183.562508 33.989585 183.890633 35.88021 183.010425 37.38021 C 182.817716 37.708335 182.218758 38.729169 180.859383 39.140627 C 179.718758 39.479169 178.270841 39.328127 177.270841 38.531252 C 176.390633 37.81771 176.229174 36.91146 176.197924 36.640627 " transform="matrix(0.75, 0, 0, 0.75, 6, 6)"/>
<path fill="none" stroke-width="1" stroke-linecap="round" stroke-linejoin="round" stroke="rgb(5.488586%, 5.488586%, 5.488586%)" stroke-opacity="1" stroke-miterlimit="4" d="M 191.359383 48.697919 C 190.937508 44.140627 188.609383 40.390627 185.197925 39.171877 C 184.421883 38.890627 183.197925 38.609377 181.578133 38.812502 " transform="matrix(0.75, 0, 0, 0.75, 6, 6)"/>
<path fill="none" stroke-width="1" stroke-linecap="round" stroke-linejoin="round" stroke="rgb(5.488586%, 5.488586%, 5.488586%)" stroke-opacity="1" stroke-miterlimit="4" d="M 211.161467 64.802086 C 209.520842 61.989586 206.901051 60.239586 204.291676 60.401045 C 201.062509 60.598961 199.161467 63.630211 198.33855 64.937503 C 193.718758 72.312503 198.661467 82.380212 199.421884 83.890629 " transform="matrix(0.75, 0, 0, 0.75, 6, 6)"/>
<path fill="none" stroke-width="1" stroke-linecap="round" stroke-linejoin="round" stroke="rgb(5.488586%, 5.488586%, 5.488586%)" stroke-opacity="1" stroke-miterlimit="4" d="M 211.229176 120.35938 C 209.348967 107.489588 203.239592 79.338545 179.708341 58.432294 C 174.588549 53.880211 169.359382 50.312502 164.390632 47.500002 " transform="matrix(0.75, 0, 0, 0.75, 6, 6)"/>
<g clip-path="url(#clip-2)">
<g clip-path="url(#clip-3)">
<path fill-rule="nonzero" fill="url(#linear-pattern-1)" d="M 17.308594 154.46875 L 17.308594 233.640625 L 164.023438 233.640625 L 164.023438 154.46875 Z M 17.308594 154.46875 "/>
</g>
</g>
<path fill-rule="nonzero" fill="rgb(100%, 100%, 100%)" fill-opacity="1" d="M 90.699219 211.753906 C 90.75 212.378906 91.003906 214.558594 92.8125 216.414062 C 94.433594 218.078125 96.335938 218.476562 96.988281 218.585938 C 96.9375 219.238281 96.886719 219.890625 96.832031 220.546875 C 95.976562 220.941406 94.261719 221.886719 92.835938 223.800781 C 91.386719 225.742188 90.976562 227.675781 90.839844 228.613281 C 90.503906 227.445312 89.761719 225.441406 88.066406 223.492188 C 86.761719 221.992188 85.371094 221.078125 84.414062 220.546875 C 84.359375 219.890625 84.308594 219.238281 84.253906 218.585938 C 84.71875 218.542969 87.710938 218.199219 89.511719 215.578125 C 90.570312 214.035156 90.699219 212.460938 90.710938 211.753906 Z M 90.699219 211.753906 "/>
<path fill="none" stroke-width="1" stroke-linecap="round" stroke-linejoin="round" stroke="rgb(5.488586%, 5.488586%, 5.488586%)" stroke-opacity="1" stroke-miterlimit="4" d="M 154.541673 288.260429 C 153.432298 288.578137 151.598965 288.932304 149.531257 288.432304 C 147.718756 288.000012 146.500006 287.119804 145.812506 286.598971 C 139.729173 282.041679 138.828131 278.500012 134.651048 276.901054 C 134.109381 276.687512 130.197922 275.401053 126.260422 277.239595 C 123.479172 278.541679 121.500005 281.500012 121.187505 284.708346 C 120.750005 289.312512 123.947922 293.859388 127.661464 294.687513 C 128.088547 294.791679 130.432297 295.312513 132.338548 293.880221 C 132.578131 293.697929 134.062506 292.562513 134.270839 290.552096 C 134.302089 290.250012 134.541673 287.661471 132.562506 286.401054 C 131.447922 285.697929 130.041672 285.661471 128.921881 286.182304 C 127.328131 286.911471 126.369797 288.739596 126.619797 290.697929 C 126.229172 290.270846 125.687506 289.598971 125.260422 288.682304 C 125.052089 288.239596 123.687505 285.229179 124.989589 282.338554 C 126.567714 278.81772 130.880214 278.197929 131.458339 278.119804 C 135.312506 277.56772 139.312506 279.588554 141.932298 283.218762 " transform="matrix(0.75, 0, 0, 0.75, 6, 6)"/>
<path fill="none" stroke-width="1" stroke-linecap="round" stroke-linejoin="round" stroke="rgb(5.488586%, 5.488586%, 5.488586%)" stroke-opacity="1" stroke-miterlimit="4" d="M 121.10938 286.171887 C 119.697922 286.869804 118.67188 287.661471 117.947922 288.312512 C 113.802088 292.078138 113.187505 297.567721 112.901047 300.140638 C 112.708338 301.812513 112.729172 303.187513 112.770838 304.04168 " transform="matrix(0.75, 0, 0, 0.75, 6, 6)"/>
<path fill="none" stroke-width="1" stroke-linecap="round" stroke-linejoin="round" stroke="rgb(5.488586%, 5.488586%, 5.488586%)" stroke-opacity="1" stroke-miterlimit="4" d="M 121.317714 283.56772 C 120.369797 283.401054 119.338547 283.09897 118.317714 282.578137 C 113.708338 280.229179 113.031255 275.312512 112.932297 274.458345 " transform="matrix(0.75, 0, 0, 0.75, 6, 6)"/>
<path fill="none" stroke-width="1" stroke-linecap="round" stroke-linejoin="round" stroke="rgb(5.488586%, 5.488586%, 5.488586%)" stroke-opacity="1" stroke-miterlimit="4" d="M 71.098962 288.260429 C 72.208337 288.578137 74.04167 288.932304 76.109379 288.432304 C 77.921879 288.000012 79.140629 287.119804 79.828129 286.598971 C 85.911462 282.041679 86.812504 278.500012 90.989587 276.901054 C 91.531254 276.687512 95.437504 275.401053 99.380213 277.239595 C 102.161463 278.541679 104.14063 281.500012 104.447921 284.708346 C 104.89063 289.312512 101.687505 293.859388 97.979171 294.687513 C 97.552088 294.791679 95.208338 295.312513 93.302088 293.880221 C 93.062504 293.697929 91.578129 292.562513 91.369796 290.552096 C 91.338546 290.250012 91.098962 287.661471 93.078129 286.401054 C 94.187504 285.697929 95.598963 285.661471 96.718754 286.182304 C 98.312504 286.911471 99.270838 288.739596 99.020838 290.697929 C 99.411463 290.270846 99.947921 289.598971 100.380213 288.682304 C 100.588546 288.239596 101.947921 285.229179 100.651046 282.338554 C 99.067713 278.81772 94.760421 278.197929 94.182296 278.119804 C 90.328129 277.56772 86.328129 279.588554 83.708337 283.218762 " transform="matrix(0.75, 0, 0, 0.75, 6, 6)"/>
<path fill="none" stroke-width="1" stroke-linecap="round" stroke-linejoin="round" stroke="rgb(5.488586%, 5.488586%, 5.488586%)" stroke-opacity="1" stroke-miterlimit="4" d="M 104.32813 283.56772 C 105.239588 283.432304 106.281255 283.140637 107.32813 282.578137 C 111.60938 280.31772 112.718755 275.489595 112.932297 274.458345 " transform="matrix(0.75, 0, 0, 0.75, 6, 6)"/>
<path fill="none" stroke-width="1" stroke-linecap="round" stroke-linejoin="round" stroke="rgb(5.488586%, 5.488586%, 5.488586%)" stroke-opacity="1" stroke-miterlimit="4" d="M 72.052087 279.119804 C 72.19792 278.781262 72.989587 277.031262 74.838545 276.447929 C 76.802087 275.828137 78.520837 276.968762 79.239587 277.447929 C 82.270837 279.458345 82.567712 283.291679 82.598962 283.91147 " transform="matrix(0.75, 0, 0, 0.75, 6, 6)"/>
<path fill="none" stroke-width="1" stroke-linecap="round" stroke-linejoin="round" stroke="rgb(5.488586%, 5.488586%, 5.488586%)" stroke-opacity="1" stroke-miterlimit="4" d="M 61.411461 269.901053 C 62.270836 270.390637 63.47917 271.13022 64.838545 272.119803 C 68.770837 274.979178 71.838545 277.208345 72.640628 280.84897 C 73.369795 284.161471 71.880212 286.947929 71.619795 287.421887 C 69.171878 291.838554 64.04167 292.567721 62.97917 292.687513 C 58.208336 293.229179 53.369794 290.708346 50.338544 286.312512 " transform="matrix(0.75, 0, 0, 0.75, 6, 6)"/>
<path fill="none" stroke-width="1" stroke-linecap="round" stroke-linejoin="round" stroke="rgb(5.488586%, 5.488586%, 5.488586%)" stroke-opacity="1" stroke-miterlimit="4" d="M 51.010419 263.041678 C 50.958336 273.328137 53.479169 281.41147 57.468753 283.640637 C 59.520836 284.781262 61.598961 284.812512 61.598961 284.812512 C 62.29167 284.812512 65.781253 284.760429 67.989586 281.88022 C 69.958337 279.312512 69.468753 276.369804 69.380212 275.869803 " transform="matrix(0.75, 0, 0, 0.75, 6, 6)"/>
<path fill="none" stroke-width="1" stroke-linecap="round" stroke-linejoin="round" stroke="rgb(5.488586%, 5.488586%, 5.488586%)" stroke-opacity="1" stroke-miterlimit="4" d="M 22.828126 268.239595 C 22.312501 268.500012 20.651043 269.270845 18.859376 268.812512 C 15.671876 268.000012 15.312501 264.151053 15.291668 263.869803 C 15.098959 261.421886 16.598959 258.567719 19.458334 257.552094 C 21.66146 256.770844 23.781251 257.390636 24.91146 257.718761 C 28.56771 258.791678 30.578127 261.281261 31.578127 262.541678 C 34.781252 266.619803 33.218752 268.59897 36.500002 271.500012 C 37.390627 272.291678 39.187502 273.890637 41.947919 274.312512 C 44.817711 274.760428 46.000002 273.520845 48.619794 274.250012 C 51.187502 274.968762 52.520836 276.859387 52.859378 277.390637 C 53.020836 277.63022 54.890628 280.640637 53.130211 283.671887 C 52.770836 284.302096 51.697919 286.130221 49.291669 286.661471 C 47.098961 287.130221 44.687502 286.328137 43.369794 284.760429 C 42.239585 283.421887 41.91146 281.531262 42.791669 280.031262 C 42.979169 279.697929 43.578127 278.682304 44.937502 278.270845 C 46.078127 277.932304 47.531252 278.078137 48.531252 278.88022 C 49.411461 279.588554 49.567711 280.500012 49.598961 280.770845 " transform="matrix(0.75, 0, 0, 0.75, 6, 6)"/>
<path fill="none" stroke-width="1" stroke-linecap="round" stroke-linejoin="round" stroke="rgb(5.488586%, 5.488586%, 5.488586%)" stroke-opacity="1" stroke-miterlimit="4" d="M 34.437502 268.697928 C 34.859377 273.260428 37.187502 277.010429 40.59896 278.229179 C 41.38021 278.510429 42.59896 278.791679 44.218752 278.588554 " transform="matrix(0.75, 0, 0, 0.75, 6, 6)"/>
<path fill="none" stroke-width="1" stroke-linecap="round" stroke-linejoin="round" stroke="rgb(5.488586%, 5.488586%, 5.488586%)" stroke-opacity="1" stroke-miterlimit="4" d="M 30.979168 261.63022 C 31.619793 261.791678 34.182293 262.369803 36.38021 260.947928 C 39.052085 259.208344 40.140627 255.182303 38.531252 251.338552 " transform="matrix(0.75, 0, 0, 0.75, 6, 6)"/>
<path fill="none" stroke-width="1" stroke-linecap="round" stroke-linejoin="round" stroke="rgb(5.488586%, 5.488586%, 5.488586%)" stroke-opacity="1" stroke-miterlimit="4" d="M 29.171877 247.880219 C 29.578127 247.901052 30.432293 247.890636 31.328127 247.421886 C 32.828127 246.630219 33.291668 245.161469 33.38021 244.859386 " transform="matrix(0.75, 0, 0, 0.75, 6, 6)"/>
<path fill="none" stroke-width="1" stroke-linecap="round" stroke-linejoin="round" stroke="rgb(5.488586%, 5.488586%, 5.488586%)" stroke-opacity="1" stroke-miterlimit="4" d="M 14.687501 195.098967 C 16.291668 207.979176 21.91146 237.421885 46.088544 258.968761 C 51.197919 263.520845 56.421878 267.088553 61.411461 269.901053 " transform="matrix(0.75, 0, 0, 0.75, 6, 6)"/>
<path fill-rule="nonzero" fill="rgb(0%, 0%, 0%)" fill-opacity="1" stroke-width="0.75" stroke-linecap="round" stroke-linejoin="round" stroke="rgb(0%, 0%, 0%)" stroke-opacity="1" stroke-miterlimit="4" d="M 112.932297 274.338553 C 113.000005 275.171887 113.338547 278.078137 115.750005 280.552095 C 117.911464 282.770845 120.447922 283.302095 121.317714 283.447929 C 121.250005 284.317721 121.182297 285.187512 121.10938 286.062512 C 120.489589 286.338554 119.64063 286.781262 118.729172 287.468762 C 116.682297 289.041679 115.697922 290.880221 114.838547 292.541679 C 114.088547 294.000013 113.119797 296.260429 112.619797 299.239596 C 112.60938 297.812513 112.39063 293.697929 109.411463 289.979179 C 107.718755 287.859387 105.781255 286.671887 104.541671 286.052096 C 104.468755 285.182304 104.401046 284.312512 104.32813 283.437512 C 104.947921 283.38022 108.937505 282.921887 111.338547 279.432304 C 112.750005 277.369804 112.92188 275.270845 112.937505 274.328137 Z M 112.932297 274.338553 " transform="matrix(0.75, 0, 0, 0.75, 6, 6)"/>
<path fill="none" stroke-width="1" stroke-linecap="round" stroke-linejoin="round" stroke="rgb(5.488586%, 5.488586%, 5.488586%)" stroke-opacity="1" stroke-miterlimit="4" d="M 71.098962 288.260429 C 72.208337 288.578137 74.04167 288.932304 76.109379 288.432304 C 77.921879 288.000012 79.140629 287.119804 79.828129 286.598971 C 85.911462 282.041679 86.812504 278.500012 90.989587 276.901054 C 91.531254 276.687512 95.437504 275.401053 99.380213 277.239595 C 102.161463 278.541679 104.14063 281.500012 104.447921 284.708346 C 104.89063 289.312512 101.687505 293.859388 97.979171 294.687513 C 97.552088 294.791679 95.208338 295.312513 93.302088 293.880221 C 93.062504 293.697929 91.578129 292.562513 91.369796 290.552096 C 91.338546 290.250012 91.098962 287.661471 93.078129 286.401054 C 94.187504 285.697929 95.598963 285.661471 96.718754 286.182304 C 98.312504 286.911471 99.270838 288.739596 99.020838 290.697929 C 99.411463 290.270846 99.947921 289.598971 100.380213 288.682304 C 100.588546 288.239596 101.947921 285.229179 100.651046 282.338554 C 99.067713 278.81772 94.760421 278.197929 94.182296 278.119804 C 90.328129 277.56772 86.328129 279.588554 83.708337 283.218762 " transform="matrix(0.75, 0, 0, 0.75, 6, 6)"/>
<path fill="none" stroke-width="1" stroke-linecap="round" stroke-linejoin="round" stroke="rgb(5.488586%, 5.488586%, 5.488586%)" stroke-opacity="1" stroke-miterlimit="4" d="M 104.541671 286.171887 C 105.369796 286.567721 106.531255 287.239596 107.697921 288.312512 C 110.17188 290.588554 111.062505 293.229179 111.750005 295.390638 C 112.817713 298.729179 112.932297 301.770846 112.781255 304.04168 " transform="matrix(0.75, 0, 0, 0.75, 6, 6)"/>
<path fill="none" stroke-width="1" stroke-linecap="round" stroke-linejoin="round" stroke="rgb(5.488586%, 5.488586%, 5.488586%)" stroke-opacity="1" stroke-miterlimit="4" d="M 104.32813 283.56772 C 105.239588 283.432304 106.281255 283.140637 107.32813 282.578137 C 111.651047 280.291679 112.729172 275.34897 112.932297 274.338553 " transform="matrix(0.75, 0, 0, 0.75, 6, 6)"/>
<path fill="none" stroke-width="1" stroke-linecap="round" stroke-linejoin="round" stroke="rgb(5.488586%, 5.488586%, 5.488586%)" stroke-opacity="1" stroke-miterlimit="4" d="M 72.052087 279.119804 C 72.19792 278.781262 72.989587 277.031262 74.838545 276.447929 C 76.802087 275.828137 78.520837 276.968762 79.239587 277.447929 C 82.270837 279.458345 82.567712 283.291679 82.598962 283.91147 " transform="matrix(0.75, 0, 0, 0.75, 6, 6)"/>
<path fill="none" stroke-width="1" stroke-linecap="round" stroke-linejoin="round" stroke="rgb(5.488586%, 5.488586%, 5.488586%)" stroke-opacity="1" stroke-miterlimit="4" d="M 61.411461 269.901053 C 62.270836 270.390637 63.47917 271.13022 64.838545 272.119803 C 68.770837 274.979178 71.838545 277.208345 72.640628 280.84897 C 73.369795 284.161471 71.880212 286.947929 71.619795 287.421887 C 69.171878 291.838554 64.04167 292.567721 62.97917 292.687513 C 58.208336 293.229179 53.369794 290.708346 50.338544 286.312512 " transform="matrix(0.75, 0, 0, 0.75, 6, 6)"/>
<path fill="none" stroke-width="1" stroke-linecap="round" stroke-linejoin="round" stroke="rgb(5.488586%, 5.488586%, 5.488586%)" stroke-opacity="1" stroke-miterlimit="4" d="M 51.010419 263.041678 C 50.958336 273.328137 53.479169 281.41147 57.468753 283.640637 C 59.520836 284.781262 61.598961 284.812512 61.598961 284.812512 C 62.29167 284.812512 65.781253 284.760429 67.989586 281.88022 C 69.958337 279.312512 69.468753 276.369804 69.380212 275.869803 " transform="matrix(0.75, 0, 0, 0.75, 6, 6)"/>
<path fill="none" stroke-width="1" stroke-linecap="round" stroke-linejoin="round" stroke="rgb(5.488586%, 5.488586%, 5.488586%)" stroke-opacity="1" stroke-miterlimit="4" d="M 22.828126 268.239595 C 22.312501 268.500012 20.651043 269.270845 18.859376 268.812512 C 15.671876 268.000012 15.312501 264.151053 15.291668 263.869803 C 15.098959 261.421886 16.598959 258.567719 19.458334 257.552094 C 21.66146 256.770844 23.781251 257.390636 24.91146 257.718761 C 28.56771 258.791678 30.578127 261.281261 31.578127 262.541678 C 34.781252 266.619803 33.218752 268.59897 36.500002 271.500012 C 37.390627 272.291678 39.187502 273.890637 41.947919 274.312512 C 44.817711 274.760428 46.000002 273.520845 48.619794 274.250012 C 51.187502 274.968762 52.520836 276.859387 52.859378 277.390637 C 53.020836 277.63022 54.890628 280.640637 53.130211 283.671887 C 52.770836 284.302096 51.697919 286.130221 49.291669 286.661471 C 47.098961 287.130221 44.687502 286.328137 43.369794 284.760429 C 42.239585 283.421887 41.91146 281.531262 42.791669 280.031262 C 42.979169 279.697929 43.578127 278.682304 44.937502 278.270845 C 46.078127 277.932304 47.531252 278.078137 48.531252 278.88022 C 49.411461 279.588554 49.567711 280.500012 49.598961 280.770845 " transform="matrix(0.75, 0, 0, 0.75, 6, 6)"/>
<path fill="none" stroke-width="1" stroke-linecap="round" stroke-linejoin="round" stroke="rgb(5.488586%, 5.488586%, 5.488586%)" stroke-opacity="1" stroke-miterlimit="4" d="M 34.437502 268.697928 C 34.859377 273.260428 37.187502 277.010429 40.59896 278.229179 C 41.38021 278.510429 42.59896 278.791679 44.218752 278.588554 " transform="matrix(0.75, 0, 0, 0.75, 6, 6)"/>
<path fill="none" stroke-width="1" stroke-linecap="round" stroke-linejoin="round" stroke="rgb(5.488586%, 5.488586%, 5.488586%)" stroke-opacity="1" stroke-miterlimit="4" d="M 14.750001 252.791678 C 14.869793 252.989594 17.531251 257.250011 21.510418 257.000011 C 24.729168 256.802094 26.63021 253.781261 27.458335 252.458344 C 32.06771 245.098969 27.140626 235.020843 26.38021 233.510427 " transform="matrix(0.75, 0, 0, 0.75, 6, 6)"/>
<path fill="none" stroke-width="1" stroke-linecap="round" stroke-linejoin="round" stroke="rgb(5.488586%, 5.488586%, 5.488586%)" stroke-opacity="1" stroke-miterlimit="4" d="M 30.979168 261.63022 C 31.619793 261.791678 34.182293 262.369803 36.38021 260.947928 C 39.052085 259.208344 40.140627 255.182303 38.531252 251.338552 " transform="matrix(0.75, 0, 0, 0.75, 6, 6)"/>
<path fill="none" stroke-width="1" stroke-linecap="round" stroke-linejoin="round" stroke="rgb(5.488586%, 5.488586%, 5.488586%)" stroke-opacity="1" stroke-miterlimit="4" d="M 29.171877 247.880219 C 29.578127 247.901052 30.432293 247.890636 31.328127 247.421886 C 32.828127 246.630219 33.291668 245.161469 33.38021 244.859386 " transform="matrix(0.75, 0, 0, 0.75, 6, 6)"/>
<path fill="none" stroke-width="1" stroke-linecap="round" stroke-linejoin="round" stroke="rgb(5.488586%, 5.488586%, 5.488586%)" stroke-opacity="1" stroke-miterlimit="4" d="M 14.687501 195.098967 C 16.291668 207.979176 21.91146 237.421885 46.088544 258.968761 C 51.197919 263.520845 56.421878 267.088553 61.411461 269.901053 " transform="matrix(0.75, 0, 0, 0.75, 6, 6)"/>
<path fill-rule="nonzero" fill="rgb(0%, 0%, 0%)" fill-opacity="1" d="M 28.964844 42.996094 C 27.238281 41.210938 26.378906 39.136719 26.378906 36.789062 L 26.378906 36.710938 C 26.378906 35.101562 26.835938 33.539062 27.742188 32.023438 C 28.695312 30.515625 29.933594 29.429688 31.460938 28.746094 C 32.453125 28.320312 33.496094 28.101562 34.566406 28.101562 C 35.925781 28.101562 37.273438 28.417969 38.601562 29.039062 C 39.929688 29.671875 41.113281 30.539062 42.148438 31.65625 C 42.554688 32.101562 42.921875 32.566406 43.246094 33.050781 C 44.542969 35.039062 45.1875 37.191406 45.1875 39.515625 C 45.136719 42.691406 44.003906 45.398438 41.78125 47.664062 C 40.671875 48.757812 39.421875 49.597656 38.015625 50.175781 C 36.613281 50.753906 35.144531 51.039062 33.609375 51.039062 C 32.632812 51.039062 31.679688 50.925781 30.75 50.691406 C 30.324219 50.578125 29.894531 50.445312 29.484375 50.289062 L 29.4375 50.289062 C 29.390625 50.289062 29.355469 50.316406 29.324219 50.378906 L 29.355469 50.804688 L 28.289062 50.804688 L 28.289062 45.503906 L 29.355469 45.503906 L 29.324219 45.921875 C 29.324219 46.433594 29.550781 46.859375 30 47.203125 C 30.046875 47.234375 30.074219 47.257812 30.113281 47.265625 L 30.113281 47.28125 C 30.433594 47.476562 30.773438 47.671875 31.117188 47.84375 C 31.90625 48.164062 32.699219 48.421875 33.511719 48.609375 C 34.320312 48.796875 35.121094 48.890625 35.917969 48.890625 C 37.980469 48.890625 39.691406 48.226562 41.0625 46.898438 C 42.390625 45.496094 43.058594 43.792969 43.058594 41.78125 C 43.058594 41.488281 43.042969 41.191406 43.011719 40.890625 C 42.226562 42.324219 41.144531 43.460938 39.765625 44.300781 C 38.386719 45.140625 36.871094 45.5625 35.210938 45.5625 C 34.042969 45.5625 32.917969 45.34375 31.835938 44.902344 C 30.757812 44.460938 29.804688 43.824219 28.964844 42.988281 Z M 39.335938 43.140625 C 40.125 42.824219 40.746094 42.324219 41.21875 41.632812 C 41.691406 40.941406 41.941406 40.164062 41.96875 39.292969 L 41.96875 39.136719 C 41.96875 38.226562 41.78125 37.351562 41.40625 36.511719 C 41.03125 35.671875 40.53125 34.890625 39.90625 34.175781 C 39.285156 33.464844 38.59375 32.835938 37.828125 32.289062 C 37.066406 31.738281 36.285156 31.289062 35.488281 30.945312 C 34.996094 30.710938 34.484375 30.511719 33.953125 30.335938 C 33.421875 30.164062 32.878906 30.074219 32.332031 30.074219 C 32.085938 30.074219 31.828125 30.105469 31.582031 30.15625 C 30.523438 30.40625 29.746094 30.960938 29.234375 31.816406 C 28.726562 32.671875 28.476562 33.59375 28.476562 34.582031 C 28.476562 34.898438 28.5 35.203125 28.550781 35.503906 C 28.890625 37.359375 29.8125 39.050781 31.328125 40.605469 C 32.332031 41.585938 33.441406 42.335938 34.65625 42.863281 C 35.664062 43.261719 36.609375 43.453125 37.5 43.453125 C 38.160156 43.453125 38.765625 43.34375 39.335938 43.125 Z M 39.335938 43.140625 "/>
<path fill-rule="nonzero" fill="rgb(0%, 0%, 0%)" fill-opacity="1" d="M 152.300781 207.148438 C 154.027344 208.933594 154.890625 211.011719 154.890625 213.359375 L 154.890625 213.433594 C 154.890625 215.046875 154.433594 216.609375 153.523438 218.121094 C 152.574219 219.628906 151.335938 220.71875 149.804688 221.398438 C 148.816406 221.828125 147.773438 222.046875 146.699219 222.046875 C 145.34375 222.046875 143.992188 221.730469 142.664062 221.109375 C 141.335938 220.476562 140.152344 219.609375 139.117188 218.488281 C 138.710938 218.046875 138.34375 217.582031 138.023438 217.09375 C 136.726562 215.109375 136.078125 212.953125 136.078125 210.628906 C 136.132812 207.457031 137.265625 204.75 139.484375 202.484375 C 140.59375 201.390625 141.847656 200.550781 143.25 199.972656 C 144.652344 199.394531 146.121094 199.109375 147.660156 199.109375 C 148.636719 199.109375 149.585938 199.222656 150.515625 199.453125 C 150.945312 199.566406 151.371094 199.703125 151.785156 199.859375 L 151.828125 199.859375 C 151.875 199.859375 151.914062 199.828125 151.941406 199.769531 L 151.914062 199.34375 L 152.976562 199.34375 L 152.976562 204.644531 L 151.914062 204.644531 L 151.941406 204.226562 C 151.941406 203.714844 151.71875 203.289062 151.265625 202.941406 C 151.222656 202.914062 151.191406 202.890625 151.15625 202.882812 L 151.15625 202.867188 C 150.832031 202.671875 150.496094 202.476562 150.148438 202.304688 C 149.363281 201.984375 148.566406 201.726562 147.757812 201.539062 C 146.949219 201.351562 146.144531 201.253906 145.351562 201.253906 C 143.289062 201.253906 141.578125 201.921875 140.203125 203.25 C 138.878906 204.652344 138.210938 206.355469 138.210938 208.363281 C 138.210938 208.65625 138.226562 208.957031 138.253906 209.257812 C 139.042969 207.824219 140.121094 206.683594 141.503906 205.84375 C 142.882812 205.003906 144.398438 204.585938 146.054688 204.585938 C 147.226562 204.585938 148.351562 204.800781 149.429688 205.246094 C 150.511719 205.6875 151.460938 206.324219 152.300781 207.15625 Z M 141.929688 207.007812 C 141.140625 207.324219 140.519531 207.824219 140.046875 208.515625 C 139.574219 209.203125 139.328125 209.984375 139.296875 210.855469 L 139.296875 211.011719 C 139.296875 211.921875 139.484375 212.796875 139.859375 213.636719 C 140.234375 214.476562 140.738281 215.257812 141.359375 215.96875 C 141.984375 216.683594 142.671875 217.3125 143.4375 217.859375 C 144.203125 218.40625 144.984375 218.859375 145.777344 219.203125 C 146.273438 219.433594 146.78125 219.636719 147.316406 219.808594 C 147.847656 219.984375 148.386719 220.074219 148.933594 220.074219 C 149.183594 220.074219 149.4375 220.042969 149.683594 219.988281 C 150.742188 219.742188 151.523438 219.1875 152.03125 218.332031 C 152.542969 217.476562 152.789062 216.554688 152.789062 215.566406 C 152.789062 215.25 152.765625 214.941406 152.714844 214.640625 C 152.378906 212.789062 151.453125 211.09375 149.941406 209.542969 C 148.933594 208.558594 147.824219 207.808594 146.609375 207.285156 C 145.605469 206.886719 144.660156 206.691406 143.765625 206.691406 C 143.109375 206.691406 142.5 206.804688 141.929688 207.023438 Z M 141.929688 207.007812 "/>
<path fill-rule="nonzero" fill="rgb(92.158508%, 10.978699%, 14.118958%)" fill-opacity="1" stroke-width="0.75" stroke-linecap="round" stroke-linejoin="round" stroke="rgb(0%, 0%, 0%)" stroke-opacity="1" stroke-miterlimit="4" d="M 75.182295 36.479169 C 72.130212 36.41146 71.421878 38.739585 71.26042 39.859377 C 71.098962 38.739585 70.390628 36.41146 67.338545 36.479169 C 63.317711 36.578127 62.79167 41.078127 64.19792 43.34896 C 65.598961 45.619794 66.328128 46.348961 67.72917 47.802086 C 69.052087 49.171877 70.630212 50.708336 71.208337 51.651044 C 71.208337 51.651044 71.239587 51.760419 71.26042 51.729169 C 71.281253 51.760419 71.312503 51.651044 71.312503 51.651044 C 71.890628 50.708336 73.468753 49.171877 74.79167 47.802086 C 76.187504 46.348961 76.921879 45.619794 78.317712 43.34896 C 79.718754 41.078127 79.187504 36.578127 75.182295 36.479169 Z M 75.182295 36.479169 " transform="matrix(0.75, 0, 0, 0.75, 6, 6)"/>
<path fill-rule="nonzero" fill="rgb(92.158508%, 10.978699%, 14.118958%)" fill-opacity="1" stroke-width="0.75" stroke-linecap="round" stroke-linejoin="round" stroke="rgb(0%, 0%, 0%)" stroke-opacity="1" stroke-miterlimit="4" d="M 150.52084 281.052095 C 153.567715 281.119804 154.281257 278.791679 154.437507 277.671887 C 154.598965 278.791679 155.312507 281.119804 158.359382 281.052095 C 162.380215 280.947929 162.911465 276.447929 161.500007 274.182303 C 160.098965 271.91147 159.369799 271.182303 157.968757 269.729178 C 156.651049 268.359387 155.067715 266.81772 154.48959 265.88022 C 154.48959 265.88022 154.45834 265.770845 154.437507 265.802095 C 154.421882 265.770845 154.390632 265.88022 154.390632 265.88022 C 153.812507 266.81772 152.229173 268.359387 150.911465 269.729178 C 149.510423 271.182303 148.781257 271.91147 147.380215 274.182303 C 145.979173 276.447929 146.510423 280.947929 150.52084 281.052095 Z M 150.52084 281.052095 " transform="matrix(0.75, 0, 0, 0.75, 6, 6)"/>
<path fill-rule="nonzero" fill="rgb(92.158508%, 10.978699%, 14.118958%)" fill-opacity="1" stroke-width="0.75" stroke-linecap="round" stroke-linejoin="round" stroke="rgb(0%, 0%, 0%)" stroke-opacity="1" stroke-miterlimit="4" d="M 91.750004 67.359378 C 86.359379 67.22917 85.119796 71.338545 84.838546 73.317712 C 84.552087 71.338545 83.312504 67.22917 77.932295 67.359378 C 70.848962 67.531253 69.911462 75.468753 72.380212 79.47917 C 74.848962 83.489587 76.130212 84.770837 78.609379 87.328129 C 80.937504 89.739587 83.72917 92.447921 84.750004 94.119796 C 84.750004 94.119796 84.802087 94.312504 84.838546 94.260421 C 84.869796 94.312504 84.932296 94.119796 84.932296 94.119796 C 85.958337 92.458338 88.739587 89.739587 91.067712 87.328129 C 93.541671 84.770837 94.817713 83.489587 97.302088 79.47917 C 99.770838 75.468753 98.838546 67.531253 91.750004 67.359378 Z M 91.750004 67.359378 " transform="matrix(0.75, 0, 0, 0.75, 6, 6)"/>
<path fill-rule="nonzero" fill="rgb(92.158508%, 10.978699%, 14.118958%)" fill-opacity="1" stroke-width="0.75" stroke-linecap="round" stroke-linejoin="round" stroke="rgb(0%, 0%, 0%)" stroke-opacity="1" stroke-miterlimit="4" d="M 91.750004 119.901047 C 86.359379 119.770839 85.119796 123.880214 84.838546 125.859381 C 84.552087 123.880214 83.312504 119.770839 77.932295 119.901047 C 70.848962 120.067714 69.911462 128.010422 72.380212 132.020839 C 74.848962 136.031256 76.130212 137.312506 78.609379 139.869798 C 80.937504 142.281256 83.72917 144.98959 84.750004 146.661465 C 84.750004 146.661465 84.802087 146.848965 84.838546 146.80209 C 84.869796 146.848965 84.932296 146.661465 84.932296 146.661465 C 85.958337 145.000006 88.739587 142.281256 91.067712 139.869798 C 93.541671 137.312506 94.817713 136.031256 97.302088 132.020839 C 99.770838 128.010422 98.838546 120.067714 91.750004 119.901047 Z M 91.750004 119.901047 " transform="matrix(0.75, 0, 0, 0.75, 6, 6)"/>
<path fill-rule="nonzero" fill="rgb(92.158508%, 10.978699%, 14.118958%)" fill-opacity="1" stroke-width="0.75" stroke-linecap="round" stroke-linejoin="round" stroke="rgb(0%, 0%, 0%)" stroke-opacity="1" stroke-miterlimit="4" d="M 147.567715 66.567711 C 142.182298 66.437503 140.937506 70.552087 140.661465 72.531253 C 140.369798 70.552087 139.130214 66.437503 133.750006 66.567711 C 126.671881 66.739586 125.729172 74.682295 128.197922 78.687504 C 130.671881 82.69792 131.947922 83.97917 134.432298 86.541671 C 136.760423 88.947921 139.552089 91.661462 140.567715 93.328129 C 140.567715 93.328129 140.619798 93.520838 140.661465 93.468754 C 140.687506 93.520838 140.750006 93.328129 140.750006 93.328129 C 141.781256 91.671879 144.562506 88.947921 146.890631 86.541671 C 149.359382 83.97917 150.640632 82.69792 153.119798 78.687504 C 155.588548 74.682295 154.661465 66.739586 147.567715 66.567711 Z M 147.567715 66.567711 " transform="matrix(0.75, 0, 0, 0.75, 6, 6)"/>
<path fill-rule="nonzero" fill="rgb(92.158508%, 10.978699%, 14.118958%)" fill-opacity="1" stroke-width="0.75" stroke-linecap="round" stroke-linejoin="round" stroke="rgb(0%, 0%, 0%)" stroke-opacity="1" stroke-miterlimit="4" d="M 147.567715 119.630214 C 142.182298 119.500005 140.937506 123.60938 140.661465 125.588547 C 140.369798 123.60938 139.130214 119.500005 133.750006 119.630214 C 126.671881 119.802089 125.729172 127.739589 128.197922 131.750006 C 130.671881 135.760423 131.947922 137.041673 134.432298 139.598964 C 136.760423 142.010423 139.552089 144.718756 140.567715 146.390631 C 140.567715 146.390631 140.619798 146.578131 140.661465 146.531256 C 140.687506 146.578131 140.750006 146.390631 140.750006 146.390631 C 141.781256 144.729173 144.562506 142.010423 146.890631 139.598964 C 149.359382 137.041673 150.640632 135.760423 153.119798 131.750006 C 155.588548 127.739589 154.661465 119.802089 147.567715 119.630214 Z M 147.567715 119.630214 " transform="matrix(0.75, 0, 0, 0.75, 6, 6)"/>
<path fill-rule="nonzero" fill="rgb(92.158508%, 10.978699%, 14.118958%)" fill-opacity="1" stroke-width="0.75" stroke-linecap="round" stroke-linejoin="round" stroke="rgb(0%, 0%, 0%)" stroke-opacity="1" stroke-miterlimit="4" d="M 91.750004 172.437508 C 86.359379 172.312508 85.119796 176.421883 84.838546 178.401049 C 84.552087 176.421883 83.312504 172.312508 77.932295 172.437508 C 70.848962 172.609383 69.911462 180.552091 72.380212 184.562508 C 74.848962 188.567717 76.130212 189.848967 78.609379 192.411467 C 80.937504 194.817717 83.72917 197.531259 84.750004 199.197925 C 84.750004 199.197925 84.802087 199.390634 84.838546 199.33855 C 84.869796 199.390634 84.932296 199.197925 84.932296 199.197925 C 85.958337 197.541675 88.739587 194.817717 91.067712 192.411467 C 93.541671 189.848967 94.817713 188.567717 97.302088 184.562508 C 99.770838 180.552091 98.838546 172.609383 91.750004 172.437508 Z M 91.750004 172.437508 " transform="matrix(0.75, 0, 0, 0.75, 6, 6)"/>
<path fill-rule="nonzero" fill="rgb(92.158508%, 10.978699%, 14.118958%)" fill-opacity="1" stroke-width="0.75" stroke-linecap="round" stroke-linejoin="round" stroke="rgb(0%, 0%, 0%)" stroke-opacity="1" stroke-miterlimit="4" d="M 91.750004 224.979176 C 86.359379 224.848968 85.119796 228.958343 84.838546 230.93751 C 84.552087 228.958343 83.312504 224.848968 77.932295 224.979176 C 70.848962 225.151051 69.911462 233.088552 72.380212 237.098969 C 74.848962 241.109385 76.130212 242.390635 78.609379 244.947927 C 80.937504 247.359386 83.72917 250.067719 84.750004 251.739594 C 84.750004 251.739594 84.802087 251.932302 84.838546 251.880219 C 84.869796 251.932302 84.932296 251.739594 84.932296 251.739594 C 85.958337 250.078136 88.739587 247.359386 91.067712 244.947927 C 93.541671 242.390635 94.817713 241.109385 97.302088 237.098969 C 99.770838 233.088552 98.838546 225.151051 91.750004 224.979176 Z M 91.750004 224.979176 " transform="matrix(0.75, 0, 0, 0.75, 6, 6)"/>
<path fill-rule="nonzero" fill="rgb(92.158508%, 10.978699%, 14.118958%)" fill-opacity="1" stroke-width="0.75" stroke-linecap="round" stroke-linejoin="round" stroke="rgb(0%, 0%, 0%)" stroke-opacity="1" stroke-miterlimit="4" d="M 147.567715 172.687508 C 142.182298 172.562508 140.937506 176.671883 140.661465 178.651049 C 140.369798 176.671883 139.130214 172.562508 133.750006 172.687508 C 126.671881 172.859383 125.729172 180.802091 128.197922 184.812508 C 130.671881 188.817717 131.947922 190.098967 134.432298 192.661467 C 136.760423 195.067717 139.552089 197.781259 140.567715 199.447925 C 140.567715 199.447925 140.619798 199.640634 140.661465 199.58855 C 140.687506 199.640634 140.750006 199.447925 140.750006 199.447925 C 141.781256 197.791675 144.562506 195.067717 146.890631 192.661467 C 149.359382 190.098967 150.640632 188.817717 153.119798 184.812508 C 155.588548 180.802091 154.661465 172.859383 147.567715 172.687508 Z M 147.567715 172.687508 " transform="matrix(0.75, 0, 0, 0.75, 6, 6)"/>
<path fill-rule="nonzero" fill="rgb(92.158508%, 10.978699%, 14.118958%)" fill-opacity="1" stroke-width="0.75" stroke-linecap="round" stroke-linejoin="round" stroke="rgb(0%, 0%, 0%)" stroke-opacity="1" stroke-miterlimit="4" d="M 147.567715 225.75001 C 142.182298 225.619801 140.937506 229.729177 140.661465 231.708343 C 140.369798 229.729177 139.130214 225.619801 133.750006 225.75001 C 126.671881 225.921885 125.729172 233.859385 128.197922 237.869802 C 130.671881 241.880219 131.947922 243.161469 134.432298 245.718761 C 136.760423 248.130219 139.552089 250.838552 140.567715 252.510428 C 140.567715 252.510428 140.619798 252.697928 140.661465 252.651053 C 140.687506 252.697928 140.750006 252.510428 140.750006 252.510428 C 141.781256 250.848969 144.562506 248.130219 146.890631 245.718761 C 149.359382 243.161469 150.640632 241.880219 153.119798 237.869802 C 155.588548 233.859385 154.661465 225.921885 147.567715 225.75001 Z M 147.567715 225.75001 " transform="matrix(0.75, 0, 0, 0.75, 6, 6)"/>
<path fill-rule="nonzero" fill="rgb(92.158508%, 10.978699%, 14.118958%)" fill-opacity="1" stroke-width="0.75" stroke-linecap="round" stroke-linejoin="round" stroke="rgb(0%, 0%, 0%)" stroke-opacity="1" stroke-miterlimit="4" d="M 119.812505 145.250006 C 114.42188 145.119798 113.182297 149.229173 112.901047 151.20834 C 112.60938 149.229173 111.369797 145.119798 105.989588 145.250006 C 98.911463 145.421881 97.968754 153.359382 100.437505 157.369799 C 102.911463 161.380215 104.187505 162.661465 106.67188 165.218757 C 109.000005 167.630216 111.791672 170.338549 112.812505 172.010424 C 112.812505 172.010424 112.85938 172.197924 112.901047 172.151049 C 112.932297 172.197924 112.989588 172.010424 112.989588 172.010424 C 114.020838 170.348966 116.802089 167.630216 119.130214 165.218757 C 121.598964 162.661465 122.880214 161.380215 125.359381 157.369799 C 127.828131 153.359382 126.901047 145.421881 119.812505 145.250006 Z M 119.812505 145.250006 " transform="matrix(0.75, 0, 0, 0.75, 6, 6)"/>
</svg>
