<svg width="26" height="26" viewBox="0 0 26 26" fill="none" xmlns="http://www.w3.org/2000/svg">
<path d="M13.0005 25C19.6279 25 25.0005 19.6274 25.0005 13C25.0005 6.37257 19.6279 1 13.0005 1C6.37307 1 1.00049 6.37257 1.00049 13C1.00049 19.6274 6.37307 25 13.0005 25Z" fill="#8E7F83" stroke="black" stroke-width="0.824742" stroke-linecap="round" stroke-linejoin="round"/>
<path d="M13.0003 22.3854C18.1838 22.3854 22.3859 18.1833 22.3859 12.9998C22.3859 7.81632 18.1838 3.61426 13.0003 3.61426C7.81681 3.61426 3.61475 7.81632 3.61475 12.9998C3.61475 18.1833 7.81681 22.3854 13.0003 22.3854Z" stroke="black" stroke-width="0.618557" stroke-linecap="round" stroke-linejoin="round"/>
<path d="M13.0004 7.67188L14.7241 11.177L18.5921 11.7378L15.7963 14.4677L16.4561 18.3193L13.0004 16.5049L9.53647 18.3193L10.1963 14.4677L7.40039 11.7378L11.2684 11.177L13.0004 7.67188Z" fill="#B9AEAD" stroke="black" stroke-width="0.824742" stroke-linecap="round" stroke-linejoin="round"/>
<path d="M4.2749 19.2266C4.98418 20.142 7.24398 22.7895 11.0213 23.4658C12.3491 23.7049 13.5203 23.639 14.4192 23.4987" stroke="black" stroke-width="0.618557" stroke-linecap="round" stroke-linejoin="round"/>
<path d="M16.1099 2.89648C16.7037 3.06143 17.4295 3.33359 18.213 3.76245C19.3346 4.38101 20.1346 5.11504 20.6624 5.67586" stroke="black" stroke-width="0.618557" stroke-linecap="round" stroke-linejoin="round"/>
</svg>
