<svg width="49" height="48" viewBox="0 0 49 48" fill="none" xmlns="http://www.w3.org/2000/svg">
<path d="M36.7676 1.0049C27.5072 0.788225 25.372 7.81913 24.8817 11.1992C24.3914 7.81913 22.2561 0.788225 12.9956 1.0049C0.826352 1.2974 -0.796946 14.8609 3.46285 21.7185C7.71175 28.5761 9.91241 30.7645 14.1722 35.1412C18.1814 39.258 22.9642 43.9055 24.7292 46.7439C24.7292 46.7439 24.8272 47.0797 24.8708 46.9822C24.9253 47.0689 25.0124 46.7439 25.0124 46.7439C26.7774 43.9055 31.5709 39.2688 35.5693 35.1412C39.8182 30.7645 42.019 28.5761 46.2787 21.7185C50.5276 14.8609 48.9152 1.2974 36.746 1.0049H36.7676Z" fill="url(#paint0_linear_239_4884)" stroke="black" stroke-linecap="round" stroke-linejoin="round"/>
<path d="M34.447 2.96581C26.9951 2.79247 25.2847 8.44757 24.8925 11.1668C24.5003 8.44757 22.7789 2.79247 15.3379 2.96581C5.54366 3.20415 4.24716 14.1135 7.66807 19.6277C11.089 25.142 12.8648 26.897 16.2857 30.4178C19.5106 33.7329 23.3563 37.4597 24.7835 39.7455C24.7835 39.7455 24.8598 40.0164 24.9034 39.9405C24.947 40.0164 25.0233 39.7455 25.0233 39.7455C26.4504 37.4597 30.2962 33.7329 33.521 30.4178C36.9419 26.897 38.7177 25.142 42.1387 19.6277C45.5596 14.1135 44.2631 3.20415 34.4688 2.96581H34.447Z" fill="url(#paint1_linear_239_4884)" stroke="black" stroke-linecap="round" stroke-linejoin="round"/>
<path d="M20.0008 24.1237C23.3041 24.1237 25.9819 21.4609 25.9819 18.1761C25.9819 14.8913 23.3041 12.2285 20.0008 12.2285C16.6975 12.2285 14.0195 14.8913 14.0195 18.1761C14.0195 21.4609 16.6975 24.1237 20.0008 24.1237Z" stroke="black" stroke-linecap="round" stroke-linejoin="round"/>
<path d="M25.1713 21.4578L23.2993 23.3193L30.0631 30.0452L31.9351 28.1836L25.1713 21.4578Z" stroke="black" stroke-linecap="round" stroke-linejoin="round"/>
<path d="M20.001 21.8162C17.9746 21.8162 16.3403 20.1804 16.3403 18.1762C16.3403 16.172 17.9855 14.5361 20.001 14.5361" stroke="black" stroke-linecap="round" stroke-linejoin="round"/>
<defs>
<linearGradient id="paint0_linear_239_4884" x1="25.5245" y1="62.1275" x2="24.9104" y2="14.8392" gradientUnits="userSpaceOnUse">
<stop offset="0.49" stop-color="#E2D7D2"/>
<stop offset="1" stop-color="#918789"/>
</linearGradient>
<linearGradient id="paint1_linear_239_4884" x1="25.1213" y1="-3.71846" x2="24.518" y2="39.8865" gradientUnits="userSpaceOnUse">
<stop offset="0.46" stop-color="#E2D7D2"/>
<stop offset="0.76" stop-color="#B2A8A7"/>
<stop offset="1" stop-color="#918789"/>
</linearGradient>
</defs>
</svg>
