<svg width="393.000000" height="105.000000" viewBox="0 0 393 105" fill="none" xmlns="http://www.w3.org/2000/svg" xmlns:xlink="http://www.w3.org/1999/xlink">
	<desc>
			Created with Pixso.
	</desc>
	<defs>
		<linearGradient x1="196.504730" y1="123.532921" x2="196.504730" y2="25.940109" id="paint_linear_6_10519_0" gradientUnits="userSpaceOnUse">
			<stop stop-color="#80776D"/>
			<stop offset="0.220000" stop-color="#918789"/>
			<stop offset="0.550000" stop-color="#BBB0AE"/>
			<stop offset="0.840000" stop-color="#D7CCC8"/>
			<stop offset="1.000000" stop-color="#E2D7D2"/>
		</linearGradient>
		<linearGradient x1="5.674042" y1="3.998474" x2="392.067413" y2="3.998474" id="paint_linear_6_10520_0" gradientUnits="userSpaceOnUse">
			<stop stop-color="#918789"/>
			<stop offset="0.210000" stop-color="#BBB0AE"/>
			<stop offset="0.390000" stop-color="#D7CCC8"/>
			<stop offset="0.490000" stop-color="#E2D7D2"/>
			<stop offset="1.000000" stop-color="#918789"/>
		</linearGradient>
		<linearGradient x1="0.009766" y1="3.998474" x2="392.999756" y2="3.998474" id="paint_linear_6_10520_1" gradientUnits="userSpaceOnUse">
			<stop stop-color="#FFFFFF" stop-opacity="0.000000"/>
			<stop offset="0.497296" stop-color="#FFFFFF"/>
			<stop offset="1.000000" stop-color="#FFFFFF" stop-opacity="0.000000"/>
		</linearGradient>
	</defs>
	<path id="Vector" d="M0 0L392.99 0L392.99 104.99L0 104.99L0 0Z" fill="url(#paint_linear_6_10519_0)" fill-opacity="1.000000" fill-rule="evenodd"/>
	<path id="Vector" d="M392.99 0L392.99 104.99L0 104.99L0 0L392.99 0Z" stroke="#000000" stroke-opacity="0" stroke-width="1.000000" stroke-linejoin="round"/>
	<path id="Vector" d="M393 7.99C290.86 7.99 188.73 7.99 86.59 7.99L81.11 7.99C79.46 7.99 77.82 7.99 76.19 7.99L0 7.99L0 0L392.99 0L392.99 7.99L393 7.99Z" fill="url(#paint_linear_6_10520_0)" fill-opacity="1.000000" fill-rule="nonzero"/>
	<path id="Vector" d="M393 7.99C290.86 7.99 188.73 7.99 86.59 7.99L81.11 7.99C79.46 7.99 77.82 7.99 76.19 7.99L0 7.99L0 0L392.99 0L392.99 7.99L393 7.99Z" fill="url(#paint_linear_6_10520_1)" fill-opacity="1.000000" fill-rule="nonzero"/>
	<path id="Vector" d="M86.59 7.99L81.11 7.99C79.46 7.99 77.82 7.99 76.19 7.99L0 7.99L0 0L392.99 0L392.99 7.99L393 7.99C290.86 7.99 188.73 7.99 86.59 7.99Z" stroke="#000000" stroke-opacity="0" stroke-width="1.000000" stroke-linejoin="round"/>
	<g opacity="0.430000">
		<path id="Vector" d="M0 105C55.22 100.65 115.9 97.72 181.28 97.32C258.55 96.85 329.51 99.99 392.99 105L0 105Z" fill="#270D1D" fill-opacity="1.000000" fill-rule="nonzero"/>
	</g>
	<g opacity="0.320000">
		<path id="Vector" d="M77.19 7.99C73.79 8.05 67.76 8.26 60.3 9.25C37.93 12.2 28.77 18.61 14.42 15.42C11.18 14.7 6.01 13.11 0 9.07L0 0L174.69 0C139.83 0.7 113.64 1.46 102.67 1.76C100.46 1.82 95.32 1.96 88.7 3.7C83.68 5.02 79.7 6.77 77.17 8L77.19 7.99Z" fill="#270D1D" fill-opacity="1.000000" fill-rule="nonzero"/>
	</g>
	<g opacity="0.320000">
		<path id="Vector" d="M315.49 7.99C318.89 8.05 324.92 8.26 332.38 9.25C354.75 12.2 363.91 18.61 378.26 15.42C381.5 14.7 386.67 13.11 392.68 9.07C392.68 6.05 392.68 3.02 392.68 0C334.46 0 276.22 0 217.99 0C252.85 0.7 279.04 1.46 290.01 1.76C292.22 1.82 297.36 1.96 303.98 3.7C309 5.02 312.98 6.77 315.51 8L315.49 7.99Z" fill="#270D1D" fill-opacity="1.000000" fill-rule="nonzero"/>
	</g>
</svg>
