<svg width="339" height="80" viewBox="0 0 339 80" fill="none" xmlns="http://www.w3.org/2000/svg">
<g clip-path="url(#clip0_69_18344)">
<g clip-path="url(#clip1_69_18344)">
<rect width="339" height="80" rx="8" fill="url(#paint0_linear_69_18344)"/>
<path d="M339 -63.3168L339 143.691C339 143.986 338.745 144.217 338.42 144.217L64.8378 144.217L1.3587 144.217C1.03423 144.217 0.779297 143.986 0.779297 143.691L0.779263 -63.3168C0.779263 -63.6116 1.0342 -63.8432 1.35867 -63.8432L338.42 -63.8432C338.745 -63.8432 339 -63.6116 339 -63.3168ZM337.841 143.165L337.841 -62.7904L1.93807 -62.7904L1.9381 143.165L233.363 143.165L337.841 143.165Z" fill="#DFD4CF" fill-opacity="0.05"/>
<path d="M169.038 118.563C216.607 118.563 255.299 83.4107 255.299 40.1942C255.299 -3.02237 216.607 -38.1746 169.038 -38.1746C121.469 -38.1746 82.7765 -3.02237 82.7766 40.1942C82.7766 83.4107 121.469 118.563 169.038 118.563ZM169.038 -36.069C215.321 -36.069 252.982 -1.85378 252.982 40.1942C252.982 82.2421 215.321 116.457 169.038 116.457C122.755 116.457 85.0942 82.2421 85.0942 40.1942C85.0941 -1.85378 122.755 -36.069 169.038 -36.069Z" fill="#DFD4CF" fill-opacity="0.05"/>
<path d="M88.7793 40.2037C88.7793 45.4044 92.7075 51.3842 97.9569 51.5842C99.811 51.6579 101.735 50.9631 103.531 49.5839C104.562 49.1944 107.065 48.489 109.8 49.4365C111.364 49.984 112.674 50.942 113.67 52.2895C114.493 55.5426 115.664 58.6799 117.135 61.6803L97.5628 67.3654C97.1804 67.4812 96.8678 67.7128 96.6824 68.0392C96.497 68.3655 96.4621 68.734 96.5896 69.0709C96.7171 69.4288 97.0067 69.7341 97.3891 69.8921C97.7715 70.05 98.2119 70.0605 98.5943 69.9131L117.622 62.6804C118.862 65.0597 120.299 67.3442 121.909 69.5235L103.554 79.0933C103.206 79.2723 102.951 79.5671 102.847 79.9145C102.743 80.2619 102.789 80.6304 102.998 80.9462C103.206 81.2726 103.554 81.5147 103.971 81.5989C104.388 81.6832 104.817 81.5989 105.153 81.3883L122.524 70.4079C122.524 70.4079 122.535 70.3868 122.547 70.3763C124.215 72.524 126.058 74.5558 128.063 76.4403C127.993 76.4614 127.924 76.4929 127.866 76.5456L112.129 89.3999C111.828 89.6421 111.654 89.979 111.631 90.3475C111.608 90.7054 111.747 91.0634 112.013 91.3266C112.292 91.6109 112.697 91.7792 113.114 91.7792C113.531 91.7792 113.937 91.6214 114.227 91.3477L128.677 77.3035C128.677 77.3035 128.77 77.1983 128.793 77.1352C130.832 78.9881 133.022 80.7041 135.34 82.2727C135.34 82.2727 135.317 82.2832 135.305 82.2937L122.883 97.8643C122.396 98.4749 122.547 99.3277 123.219 99.7699C123.555 99.991 123.984 100.075 124.401 100.001C124.818 99.9278 125.177 99.6962 125.386 99.3698L136.256 82.8938C138.608 84.4098 141.099 85.7574 143.695 86.947L135.375 104.086C135.213 104.423 135.201 104.792 135.352 105.129C135.502 105.465 135.78 105.739 136.14 105.886C136.522 106.044 136.962 106.044 137.345 105.886C137.727 105.729 138.028 105.434 138.167 105.076L144.784 87.4418C148.353 88.9788 152.131 90.1896 156.048 91.0213C157.334 91.8951 158.273 93.0005 158.817 94.2954C159.918 96.9168 159.015 99.2435 158.655 99.9909C157.137 101.633 156.361 103.381 156.453 105.065C156.685 109.845 163.267 113.403 168.992 113.403C174.716 113.403 181.287 109.834 181.519 105.065C181.588 103.381 180.835 101.623 179.317 99.9909C178.888 99.0645 178.112 96.7905 179.155 94.2954C179.699 92.9899 180.638 91.8951 181.924 91.0213C185.794 90.2001 189.514 89.0105 193.037 87.505L199.723 105.318C199.862 105.676 200.152 105.971 200.546 106.129C200.928 106.287 201.369 106.287 201.751 106.129C202.307 105.908 202.644 105.402 202.644 104.876C202.644 104.697 202.597 104.507 202.516 104.328L194.115 87.0312C196.722 85.8626 199.213 84.5151 201.566 82.9991C201.577 83.0412 201.589 83.0833 201.612 83.1254L212.493 99.612C212.702 99.9383 213.073 100.17 213.478 100.244C213.895 100.317 214.324 100.244 214.66 100.012C214.985 99.8015 215.193 99.4857 215.263 99.1277C215.274 99.054 215.286 98.9802 215.286 98.9065C215.286 98.6223 215.193 98.3486 214.996 98.1064L202.574 82.5359C202.574 82.5359 202.481 82.4412 202.423 82.4096C204.776 80.841 207.001 79.1144 209.063 77.251C209.075 77.3562 209.121 77.4616 209.202 77.5458L223.653 91.5898C223.942 91.874 224.348 92.0215 224.765 92.0215C225.182 92.0215 225.588 91.853 225.866 91.5687C226.109 91.3161 226.248 91.0002 226.248 90.6633C226.248 90.6423 226.248 90.6106 226.248 90.5896C226.225 90.2211 226.051 89.8949 225.75 89.6527L210.013 76.7982C209.921 76.7245 209.793 76.6824 209.677 76.6719C211.705 74.7769 213.583 72.7345 215.274 70.5763C215.298 70.5973 215.321 70.629 215.356 70.65L232.726 81.6304C233.074 81.8515 233.502 81.9253 233.92 81.8411C234.337 81.7568 234.684 81.5147 234.893 81.1883C235.032 80.9778 235.09 80.7462 235.09 80.5146C235.09 80.0408 234.823 79.5776 234.337 79.3249L215.981 69.7552C215.981 69.7552 215.935 69.7446 215.923 69.7341C217.546 67.5654 219.006 65.2914 220.257 62.9121L239.308 70.1553C239.69 70.3026 240.131 70.2921 240.513 70.1342C240.896 69.9763 241.185 69.6709 241.313 69.313C241.359 69.1761 241.382 69.0392 241.382 68.8918C241.382 68.6813 241.324 68.4708 241.22 68.2707C241.035 67.9444 240.722 67.7128 240.339 67.5969L220.755 61.9119C222.285 58.8483 223.49 55.6269 224.336 52.2791C225.333 50.9316 226.631 49.9734 228.207 49.426C230.93 48.4785 233.433 49.1839 234.464 49.5734C236.272 50.9525 238.196 51.6474 240.05 51.5737C245.311 51.3631 249.227 45.3833 249.227 40.1826C249.227 34.9818 245.299 29.0127 240.05 28.8021C238.196 28.7284 236.272 29.4233 234.464 30.8024C233.433 31.1919 230.942 31.8973 228.207 30.9498C225.843 30.1287 224.499 28.4968 223.792 27.2651C222.992 24.591 221.949 22.0116 220.709 19.5271L240.328 13.8316C240.71 13.7158 241.023 13.4842 241.209 13.1579C241.324 12.9578 241.382 12.7473 241.382 12.5367C241.382 12.3999 241.359 12.263 241.313 12.1262C241.185 11.7682 240.896 11.4629 240.513 11.305C240.131 11.147 239.69 11.1365 239.308 11.2839L220.222 18.5375C218.971 16.1583 217.534 13.8632 215.912 11.705C215.935 11.705 215.958 11.6945 215.981 11.6839L234.337 2.11423C234.823 1.86156 235.09 1.39833 235.09 0.924583C235.09 0.692969 235.02 0.461341 234.893 0.250785C234.684 -0.0755777 234.337 -0.317712 233.92 -0.401933C233.502 -0.486154 233.074 -0.401986 232.738 -0.19143L215.367 10.7891C215.367 10.7891 215.297 10.8522 215.263 10.8838C213.571 8.71509 211.694 6.67277 209.654 4.76724C209.782 4.76724 209.921 4.72514 210.025 4.64091L225.762 -8.21359C226.063 -8.45573 226.237 -8.79263 226.26 -9.15057C226.26 -9.17163 226.26 -9.20316 226.26 -9.22421C226.26 -9.5611 226.121 -9.87692 225.878 -10.1296C225.599 -10.4138 225.194 -10.5823 224.776 -10.5823C224.359 -10.5823 223.954 -10.4244 223.664 -10.1507L209.214 3.89336C209.121 3.98811 209.075 4.09344 209.063 4.20924C206.989 2.3353 204.753 0.619239 202.377 -0.949395C202.446 -0.980981 202.516 -1.03363 202.562 -1.0968L214.973 -16.6674C215.158 -16.899 215.263 -17.1832 215.263 -17.4674C215.263 -17.5411 215.263 -17.6149 215.24 -17.6886C215.182 -18.0465 214.961 -18.3623 214.637 -18.5729C214.301 -18.794 213.872 -18.8782 213.455 -18.8045C213.038 -18.7308 212.679 -18.4992 212.47 -18.1728L201.589 -1.68629C201.554 -1.63365 201.531 -1.57056 201.519 -1.5074C199.155 -3.01287 196.675 -4.37091 194.068 -5.53949L202.493 -22.8787C202.574 -23.0577 202.62 -23.2472 202.62 -23.4262C202.62 -23.9526 202.284 -24.4474 201.728 -24.679C201.346 -24.837 200.905 -24.837 200.523 -24.679C200.14 -24.5211 199.839 -24.2263 199.7 -23.8684L192.991 -5.99224C189.885 -7.30821 186.629 -8.40302 183.245 -9.20314C182.283 -9.72952 180.105 -11.1719 179.143 -13.8775C178.216 -16.4463 178.923 -18.6887 179.317 -19.6046C180.835 -21.2469 181.576 -22.9946 181.507 -24.679C181.275 -29.3534 174.728 -32.8275 168.98 -33.017C167.729 -33.0591 163.371 -32.9749 159.86 -30.1534C158.701 -29.227 156.558 -27.49 156.43 -24.679C156.326 -22.184 157.856 -20.3415 158.62 -19.5941C159.003 -18.6676 159.71 -16.4358 158.794 -13.8775C157.821 -11.1719 155.642 -9.72952 154.68 -9.20314C151.192 -8.38197 147.843 -7.25559 144.645 -5.87645L137.982 -23.6368C137.843 -23.9948 137.553 -24.2894 137.159 -24.4473C136.777 -24.6053 136.337 -24.5947 135.954 -24.4473C135.583 -24.3 135.305 -24.0368 135.166 -23.6894C135.027 -23.3525 135.027 -22.984 135.189 -22.6471L143.568 -5.40263C140.96 -4.21299 138.48 -2.84438 136.128 -1.32838C136.116 -1.37049 136.116 -1.4126 136.093 -1.45471L125.212 -17.9412C125.003 -18.2676 124.632 -18.4992 124.227 -18.5729C123.81 -18.6466 123.381 -18.5729 123.045 -18.3413C122.373 -17.8991 122.222 -17.0463 122.709 -16.4357L135.131 -0.865219C135.131 -0.865219 135.212 -0.79142 135.259 -0.759842C132.906 0.819328 130.693 2.55635 128.642 4.44082C128.642 4.32501 128.584 4.20916 128.492 4.12494L114.041 -9.91908C113.752 -10.2033 113.346 -10.3613 112.929 -10.3508C112.511 -10.3508 112.106 -10.1823 111.828 -9.89801C111.561 -9.62428 111.422 -9.27681 111.446 -8.91887C111.469 -8.55039 111.642 -8.22414 111.944 -7.97147L127.68 4.88303C127.785 4.96725 127.924 5.00936 128.051 5.00936C126.023 6.92541 124.157 8.9783 122.477 11.1575C122.442 11.1049 122.396 11.0523 122.338 11.0207L104.968 0.0401534C104.62 -0.180931 104.191 -0.25457 103.774 -0.170349C103.357 -0.0861283 103.009 0.156006 102.801 0.482368C102.604 0.798202 102.546 1.16665 102.65 1.51407C102.754 1.86149 103.009 2.1563 103.357 2.33527L121.712 11.905C121.712 11.905 121.805 11.9366 121.852 11.9471C120.241 14.1159 118.839 16.4215 117.599 18.8113L98.3974 11.5155C98.015 11.3681 97.5746 11.3786 97.1922 11.5365C96.8098 11.6945 96.5201 11.9998 96.3927 12.3577C96.2768 12.7051 96.2998 13.0736 96.4852 13.4C96.6706 13.7263 96.9835 13.958 97.3659 14.0738L117.1 19.8008C115.93 22.2011 114.922 24.6963 114.157 27.2756C113.45 28.5074 112.117 30.1287 109.753 30.9604C107.019 31.9079 104.516 31.2025 103.484 30.813C101.688 29.4338 99.7646 28.739 97.9105 28.8127C92.6495 29.0127 88.7329 34.9924 88.7329 40.2037L88.7793 40.2037ZM98.0033 29.8549C99.9964 29.7812 101.735 30.7918 102.835 31.6551C102.882 31.6867 102.928 31.7184 102.986 31.7394C104.087 32.171 107.007 33.0448 110.206 31.9394C112.94 30.9813 114.458 29.1179 115.246 27.7177C115.258 27.6861 115.281 27.6651 115.281 27.6335C115.281 27.6125 115.293 27.5914 115.304 27.5703C120.484 10.0416 135.734 -3.66557 155.098 -8.19251C155.144 -8.20304 155.202 -8.22414 155.248 -8.2452C156.291 -8.80318 158.829 -10.4244 159.953 -13.5406C161.019 -16.5094 160.15 -19.0888 159.721 -20.0573C159.698 -20.1205 159.652 -20.1732 159.605 -20.2258C158.991 -20.8259 157.543 -22.4155 157.659 -24.6158C157.763 -26.9846 159.605 -28.4585 160.706 -29.3428C163.893 -31.9116 167.868 -31.9852 169.015 -31.9431C174.241 -31.7641 180.232 -28.5953 180.417 -24.6158C180.51 -22.8156 179.386 -21.2154 178.436 -20.2047C178.389 -20.1626 178.367 -20.11 178.343 -20.0573C177.915 -19.0888 177.045 -16.5094 178.111 -13.5406C179.224 -10.4349 181.762 -8.80318 182.793 -8.2452C182.839 -8.22414 182.886 -8.20304 182.944 -8.19251C202.296 -3.66557 217.557 10.0416 222.749 27.5703C222.749 27.5703 222.76 27.6125 222.772 27.6335C222.772 27.6546 222.795 27.6861 222.807 27.7072C223.595 29.1074 225.124 30.9708 227.848 31.9288C231.046 33.0448 233.954 32.1605 235.055 31.7289C235.113 31.7078 235.159 31.6761 235.206 31.6446C236.318 30.7813 238.068 29.7707 240.061 29.8444C244.604 30.0233 248.127 35.5505 248.127 40.1722C248.127 44.8044 244.604 50.3314 240.061 50.5104C238.068 50.5946 236.318 49.5735 235.206 48.7102C235.159 48.6786 235.113 48.6469 235.055 48.6259C233.954 48.1942 231.046 47.3205 227.848 48.4259C226.017 49.0576 224.498 50.184 223.363 51.7737C223.316 51.8368 223.293 51.9106 223.282 51.9843C218.589 70.7132 202.261 85.6205 181.657 89.9685C181.565 89.979 181.472 90.0106 181.391 90.0632C179.861 91.0739 178.76 92.3583 178.111 93.8848C176.906 96.8115 177.857 99.4436 178.32 100.444C178.343 100.496 178.378 100.538 178.413 100.58C179.363 101.591 180.476 103.181 180.395 104.992C180.198 109.119 174.114 112.319 169.027 112.319C163.928 112.319 157.844 109.119 157.635 104.992C157.589 103.191 158.667 101.591 159.617 100.58C159.652 100.538 159.687 100.496 159.71 100.454C160.092 99.6961 161.228 96.9694 159.93 93.8848C159.281 92.3583 158.18 91.0739 156.651 90.0632C156.581 90.0211 156.488 89.9895 156.407 89.9685C135.803 85.6205 119.464 70.7026 114.794 52.0579C114.794 51.9527 114.76 51.8579 114.702 51.7737C113.554 50.1945 112.048 49.0681 110.217 48.4259C107.019 47.31 104.099 48.1942 102.998 48.6259C102.94 48.6469 102.893 48.6786 102.847 48.7102C101.735 49.5735 99.9965 50.5841 98.0149 50.5104C93.4724 50.3314 89.9497 44.8148 89.9497 40.1826C89.9497 35.5504 93.4724 30.0233 98.0149 29.8444L98.0033 29.8549Z" fill="#DFD4CF" fill-opacity="0.05"/>
<path d="M128.085 40.6898C127.714 43.964 128.12 47.3117 129.267 50.3648C130.09 52.5756 131.816 57.1868 136.973 60.3662C140.751 62.6928 144.702 63.2403 147.506 63.2613C148.48 64.651 149.175 66.0617 149.824 67.3777C151.145 70.0623 152.315 72.3784 155.27 73.3365C156.255 75.9263 157.785 77.7792 159.836 78.8425C161.517 79.7163 162.93 79.7478 164.877 79.7899C166.024 79.8109 167.311 79.8426 169.026 80.0427C171.876 80.369 173.197 80.8637 174.263 81.2638C175.318 81.6533 176.222 81.9903 177.937 81.9797C183.082 81.9376 189.606 78.9056 191.553 73.3469C191.97 72.1678 192.132 71.0308 192.132 69.9464C192.132 67.4829 191.274 65.3879 190.556 64.0298C190.927 63.9561 191.275 63.8825 191.587 63.8088C194.322 63.2298 195.435 62.9981 196.79 62.2191C200.8 61.5769 204.218 59.9978 206.652 57.6606C209.491 54.9444 210.186 51.6175 211.461 45.5746C212.527 40.5423 213.28 36.9524 213.28 33.8257C213.28 31.5412 212.875 29.4987 211.901 27.3195C210.65 24.5507 208.691 22.0557 206.061 19.908C205.736 18.9605 205.261 18.0867 204.543 17.2655C201.426 13.7282 195.863 13.6439 193.326 13.8124C192.561 10.7699 191.147 8.13783 189.085 5.96911C183.418 0.0209118 173.997 -1.29506 167.658 -0.610756C163 -0.115952 159.523 1.41058 158.353 3.47403C158.237 3.67406 158.11 3.94779 157.959 4.27415C157.391 5.5059 156.522 7.36937 154.691 8.27476C154.042 8.60112 153.382 8.75899 153.382 8.75899C152.431 8.98008 151.806 8.87478 151.006 8.73791C150.438 8.64317 149.789 8.52744 148.978 8.54849C148.329 8.55902 146.07 8.7169 144.447 10.0855C142.593 11.6436 142.5 13.9493 142.593 15.1705C141.631 15.5916 140.67 16.118 139.719 16.7497C135.188 19.8027 133.381 23.9191 132.674 26.3194C131.318 26.9932 127.691 29.1408 126.729 33.394C125.964 36.7419 127.308 39.4686 128.073 40.6793L128.085 40.6898ZM151.423 66.7355C150.079 64.0088 148.41 60.6189 144.331 57.7658C143.485 57.1763 142.697 56.713 141.933 56.2709C140.299 55.3234 138.873 54.5022 137.332 52.6178C136.614 51.7334 135.281 49.8489 134.493 47.217C133.995 45.5536 133.079 42.4689 134.458 39.1527C134.933 38.0157 135.571 36.4682 137.379 35.4365C138.642 34.7206 139.963 34.5521 140.959 34.5521C140.67 36.0786 140.6 38.2578 142.153 40.216C143.775 42.2479 146.197 42.89 147.669 43.0795C147.113 46.3642 147.263 48.9751 148.874 51.6913C149.801 53.2389 150.995 54.4601 152.269 55.4182C152.478 56.9868 152.802 58.5554 153.289 60.0608C154.622 64.2088 157.067 68.6199 160.277 71.7993C158.782 72.2099 157.414 72.2836 156.209 71.9678C153.695 71.3151 152.744 69.3991 151.435 66.7355L151.423 66.7355ZM169.199 8.46419C169.408 8.35891 169.559 8.16942 169.617 7.94833C169.825 7.08506 170.323 5.90605 171.505 5.15858C172.513 4.51638 173.603 4.46368 174.078 4.44263C177.067 4.3163 183.858 6.57974 190.278 13.3596C194.113 17.4128 196.651 20.0974 196.848 24.1506C196.941 26.1298 196.454 27.9511 195.782 29.5197C192.422 28.1932 189.722 26.5299 187.752 24.5401C187.3 23.7716 186.697 22.9926 185.863 22.1924C185.33 21.3713 184.913 20.5291 184.472 19.6448C183.371 17.4445 182.224 15.1599 179.35 13.2438C177.322 11.8858 175.411 11.3804 174.495 11.1383C168.064 9.41173 161.736 11.6647 158.156 13.4018C158.642 12.0437 159.709 10.1697 161.991 9.03273C164.842 7.622 167.693 8.28528 168.504 8.52741C168.736 8.60111 168.991 8.56947 169.199 8.46419ZM172.861 54.997C172.861 54.997 172.85 54.997 172.838 54.997C172.78 54.997 172.722 54.997 172.664 54.997C172.606 54.997 172.548 54.997 172.49 54.997C172.49 54.997 172.479 54.997 172.467 54.997C172.421 55.0076 172.374 55.0391 172.34 55.0496C172.293 55.0707 172.247 55.0707 172.201 55.1023C170.868 55.9024 166.071 58.4185 160.045 57.1657C158.457 56.8393 153.08 55.4182 150.392 50.9228C149.476 49.3857 149.094 47.8697 149.094 46.1537C149.094 45.0588 149.245 43.8796 149.511 42.5637C149.511 42.5216 149.534 42.49 149.534 42.4479C149.836 40.9319 150.276 39.237 150.786 37.2683C152.362 31.1938 153.497 26.8036 157.553 24.8033C160.612 23.2873 164.576 23.4242 166.071 23.4768C166.592 23.4979 167.125 23.5401 167.647 23.5927C165.885 24.1086 164.216 24.8244 162.756 25.7719C156.649 29.7093 153.497 37.0788 155.259 43.2902C155.583 44.4482 156.591 47.9855 160.195 50.249C163.718 52.4704 169.257 53.1757 172.259 50.9754C173 51.6386 174.055 52.3335 175.445 52.723C178.516 53.5968 181.193 52.4598 182.56 51.6808C182.491 51.786 182.421 51.9019 182.34 52.0072C181.448 53.2495 180.729 53.7337 180.498 53.8916C177.937 55.6392 174.611 55.3234 172.861 54.9865L172.861 54.997ZM159.662 58.7239C161.041 59.0082 162.363 59.1134 163.602 59.0924C163.857 60.4715 164.495 62.2507 166.013 63.8404C168.434 66.3671 171.644 66.8829 173.197 67.1356C175.874 67.5672 177.404 67.1777 181.471 66.167C182.896 65.8091 184.658 65.3669 186.917 64.851C187.358 64.7457 187.775 64.6615 188.169 64.5668C187.81 65.9354 187.172 67.0513 186.234 67.883C185.388 68.6305 184.727 68.7884 183.638 69.0516C182.653 69.2937 181.413 69.5886 179.687 70.4308C178.064 71.2204 177.102 71.9573 176.245 72.61C175.19 73.4101 174.426 73.9891 172.803 74.3997C172.618 74.4418 170.914 74.8524 169.13 74.705C162.096 74.126 156.812 65.3775 154.969 59.6398C154.668 58.6818 154.436 57.7027 154.251 56.7131C156.534 57.9764 158.724 58.5448 159.686 58.7343L159.662 58.7239ZM183.684 22.4767C183.974 22.7083 184.24 22.9505 184.495 23.1821C185.005 23.9612 185.608 24.6981 186.28 25.3929C187.033 26.6984 187.323 28.0775 187.091 29.4672C186.697 31.857 184.913 33.8994 182.363 34.9837C182.34 34.9206 182.317 34.8573 182.294 34.7942C180.544 30.762 175.874 28.109 170.937 28.3617C164.332 28.6881 161.204 34.1731 161.169 34.2258C159.222 37.6999 158.828 42.8584 162.594 45.9747C165.143 48.0907 168.91 48.7119 172.49 47.7118C172.328 48.354 172.05 48.912 171.644 49.3542C169.582 51.5439 164.321 50.9439 161.18 48.9646C158.11 47.0275 157.229 43.9324 156.939 42.9112C155.352 37.3104 158.225 30.6463 163.765 27.0774C166.071 25.5824 168.886 24.656 171.899 24.3823C171.899 24.3823 171.899 24.3823 171.911 24.3823C172.015 24.3718 172.108 24.3401 172.189 24.3085C172.212 24.298 172.247 24.2769 172.27 24.2664C172.328 24.2348 172.386 24.1927 172.432 24.1506C172.456 24.1295 172.479 24.098 172.502 24.077C172.548 24.0243 172.571 23.9716 172.606 23.9085C172.606 23.8874 172.629 23.877 172.641 23.8559C172.641 23.8454 172.641 23.8348 172.641 23.8243C172.641 23.8138 172.652 23.8032 172.652 23.7822C172.896 22.7504 173.464 21.3503 174.785 20.5502C177.462 18.9394 181.656 20.8976 183.673 22.5083L183.684 22.4767ZM173.684 45.7536C173.684 45.7536 173.672 45.7536 173.661 45.7536C170.694 45.2799 168.168 43.1217 167.658 40.6266C167.496 39.8054 167.264 37.7526 168.759 36.3208C169.628 35.4891 171.459 34.4995 172.965 35.1627C173.823 35.5417 174.889 36.6155 174.588 37.8156C174.379 38.6473 173.568 39.3317 172.525 39.5633C172.062 39.6686 171.772 40.0897 171.876 40.5108C171.992 40.9319 172.455 41.195 172.919 41.1003C174.599 40.7318 175.92 39.5844 176.28 38.1737C176.766 36.2471 175.33 34.4573 173.73 33.7519C171.54 32.7834 168.968 33.8467 167.507 35.2469C166.071 36.6261 165.514 38.7 165.966 40.9214C166.453 43.2902 168.272 45.3641 170.717 46.5011C168.133 46.8906 165.584 46.301 163.788 44.8166C160.23 41.8689 161.54 37.0787 162.733 34.9416C162.756 34.8995 165.433 30.2146 171.042 29.9409C175.237 29.7303 179.212 31.9728 180.683 35.3838C182.306 39.1317 180.81 43.8902 177.554 45.3746C175.943 46.1116 174.263 45.8484 173.696 45.7642L173.684 45.7536ZM184.044 48.1329C183.441 49.0172 182.63 49.7752 181.703 50.3226C180.614 50.9543 178.423 51.923 175.967 51.2281C174.843 50.9123 174.008 50.3332 173.417 49.7962C173.893 49.1225 174.194 48.3329 174.321 47.4275C175.318 47.5012 176.813 47.4802 178.331 46.7853C181.297 45.4378 183.082 42.1005 183.082 38.6474C183.082 37.942 183.001 37.2261 182.838 36.5207C186.048 35.2574 188.308 32.7097 188.806 29.7093C188.864 29.3408 188.911 28.9302 188.911 28.4986C188.911 28.2249 188.887 27.9301 188.853 27.6354C190.602 28.9092 192.688 30.0251 195.075 30.9726C194.172 32.6044 193.163 33.8362 192.642 34.4573C191.031 36.3944 189.826 37.0892 188.76 37.6998C187.613 38.3631 186.524 38.9842 185.562 40.8476C184.612 42.6795 184.461 44.343 184.322 45.9432C184.252 46.6801 184.194 47.4065 184.055 48.1434L184.044 48.1329ZM156.997 15.76C156.997 15.76 157.067 15.7389 157.113 15.7284C157.171 15.7178 157.217 15.7074 157.263 15.6864C157.287 15.6864 157.298 15.6653 157.321 15.6547L157.345 15.6547C160.033 14.1282 167.021 10.7909 174.008 12.6649C174.831 12.886 176.546 13.3491 178.331 14.5387C180.672 16.0968 181.703 17.9393 182.688 19.8975C180.185 18.5499 176.662 17.5182 173.846 19.2131C172.374 20.0975 171.61 21.445 171.204 22.6241C169.547 22.2241 167.855 21.9819 166.152 21.9187C164.529 21.8661 160.207 21.7188 156.742 23.4348C152.003 25.7825 150.728 30.6989 149.117 36.9313C148.677 38.6158 148.283 40.1318 147.981 41.532C146.857 41.3846 144.841 40.9003 143.578 39.3001C141.944 37.2577 142.651 34.7942 142.987 33.6151C143.752 30.9515 145.722 29.2987 146.834 28.5513C147.124 28.3618 147.24 28.0354 147.159 27.7195C146.95 26.9826 146.081 23.1399 148.897 19.6658C151.748 16.1495 156.105 15.8021 156.951 15.7705L156.974 15.7705C156.985 15.7705 157.009 15.7705 157.02 15.7705L156.997 15.76ZM189.896 72.8732C188.192 77.7265 182.456 80.3795 177.925 80.4111C176.558 80.4111 175.909 80.1794 174.924 79.811C173.765 79.3793 172.328 78.8424 169.246 78.4844C167.45 78.2739 166.047 78.2423 164.923 78.2213C163.104 78.1791 162.003 78.1581 160.694 77.4738C159.257 76.7263 158.121 75.4631 157.298 73.726C158.654 73.8102 160.114 73.568 161.644 73.0311C163.822 74.8209 166.291 76.0315 168.944 76.2526C170.995 76.421 172.873 75.9894 173.232 75.8947C175.225 75.3998 176.245 74.6208 177.334 73.7996C178.122 73.1996 179.026 72.5152 180.486 71.7993C182.039 71.0413 183.117 70.7782 184.067 70.5571C185.237 70.2729 186.257 70.0307 187.427 68.9885C188.366 68.1568 189.05 67.0829 189.525 65.8406C190.266 67.6198 190.834 70.157 189.884 72.8521L189.896 72.8732ZM186.477 63.314C184.206 63.8404 182.433 64.2826 180.996 64.6405C176.986 65.6407 175.781 65.9459 173.487 65.5774C172.038 65.3458 169.338 64.9143 167.322 62.8087C166.117 61.5454 165.584 60.1345 165.352 58.9975C168.388 58.6712 170.799 57.6816 172.201 56.9657C172.595 57.8501 173.267 58.8081 174.391 59.503C177.45 61.3664 181.436 59.6609 182.584 59.1029C183.835 58.4818 184.415 57.8922 185.029 57.2711C185.539 56.7447 186.06 56.2077 187.126 55.5129C188.54 54.597 189.351 54.4075 190.209 54.2075C191.008 54.0285 191.831 53.8389 192.955 53.1125C196.64 50.7754 198.123 46.3116 199.687 41.5741L199.838 41.1108C200.197 39.9844 200.522 39.0159 201.379 37.8789C202.109 36.9208 203.059 36.0786 204.184 35.3732C203.477 39.9318 203.5 42.89 203.523 45.3114C203.546 48.3855 203.569 50.4175 201.959 53.7232C201.008 55.6603 199.583 58.587 196.281 60.661C196.176 60.7242 196.084 60.7768 195.991 60.8295C195.991 60.8295 195.991 60.8295 195.979 60.8295C194.809 61.5138 193.917 61.7033 191.193 62.2823C190 62.535 188.494 62.8508 186.477 63.314ZM210.29 27.9302C212.423 32.6782 211.53 36.8893 209.757 45.2905C208.448 51.4703 207.776 54.2917 205.389 56.5867C203.929 57.9869 202.051 59.0818 199.884 59.8293C201.796 57.8921 202.851 55.7761 203.546 54.3549C205.319 50.7333 205.285 48.4488 205.261 45.2905C205.238 42.648 205.204 39.3528 206.177 33.952L206.281 33.3835C206.594 31.7096 206.953 29.7093 206.953 27.1721C206.953 26.5404 206.93 25.8771 206.884 25.1823C206.814 24.319 206.756 23.4979 206.652 22.7083C208.216 24.298 209.433 26.0456 210.279 27.9406L210.29 27.9302ZM203.187 18.2656C204.763 20.0659 204.937 22.3609 205.157 25.2771C205.412 28.6039 204.948 31.0989 204.578 33.1097L204.543 33.3204C202.631 34.2679 201.09 35.4785 199.954 36.963C198.934 38.3105 198.563 39.4475 198.181 40.6477L198.03 41.1003C196.489 45.7536 195.157 49.7752 191.97 51.7966C191.101 52.3545 190.521 52.4809 189.78 52.6494C188.853 52.8599 187.798 53.102 186.118 54.1969C184.901 54.997 184.275 55.6287 183.731 56.1867C183.163 56.7762 182.746 57.1973 181.761 57.6815C180.822 58.1448 177.612 59.5345 175.364 58.1659C174.738 57.7869 174.321 57.2711 174.032 56.7447C176.164 56.9552 179.096 56.8289 181.552 55.155C182.352 54.6075 183.093 53.86 183.812 52.8704C185.689 50.2806 185.875 48.1329 186.06 46.0484C186.199 44.5219 186.326 43.0795 187.138 41.5004C187.891 40.0581 188.609 39.637 189.698 39.0158C190.834 38.3631 192.236 37.5525 194.044 35.3838C195.191 33.9941 198.61 29.8883 198.61 24.6455C198.61 24.456 198.61 24.2665 198.598 24.077C198.436 20.666 196.825 18.1287 194.403 15.3494C196.79 15.3073 200.916 15.6547 203.199 18.2551L203.187 18.2656ZM145.641 11.2541C146.811 10.2645 148.538 10.1487 149.036 10.1382C149.65 10.1277 150.16 10.2119 150.693 10.2961C151.574 10.4435 152.501 10.6014 153.822 10.2961C153.857 10.2961 154.703 10.096 155.548 9.66437C157.901 8.48526 158.955 6.2324 159.569 4.88484C159.697 4.61112 159.801 4.37949 159.906 4.20052C160.786 2.65293 163.915 1.38964 167.878 0.958C173.8 0.326339 182.572 1.5265 187.787 7.00094C188.992 8.2748 189.93 9.74859 190.66 11.3699C183.626 4.411 176.755 2.73713 174.008 2.86346C173.441 2.88452 171.946 2.94775 170.532 3.85314C169.246 4.67431 168.562 5.81123 168.18 6.80084C166.685 6.50607 163.927 6.27451 161.169 7.64312C157.669 9.3802 156.545 12.4333 156.197 13.9809C154.042 13.5176 149.314 12.8648 144.331 14.5177C144.331 13.5491 144.551 12.1595 145.652 11.2435L145.641 11.2541ZM133.809 27.5827C134.041 27.4774 134.215 27.2879 134.273 27.0563C134.841 24.9297 136.44 20.9397 140.762 18.034C144.853 15.2757 149.384 14.9178 152.571 15.1178C150.879 15.76 148.99 16.8654 147.472 18.7393C144.621 22.2556 145.027 26.0983 145.328 27.6037C144.042 28.5618 142.199 30.3304 141.353 32.994C140.078 32.9413 138.224 33.0888 136.44 34.11C134.145 35.4154 133.323 37.4156 132.824 38.6052C131.237 42.3952 132.303 45.9326 132.813 47.6381C133.67 50.5227 135.13 52.5967 135.93 53.5653C137.668 55.6814 139.279 56.6183 140.983 57.6079C141.713 58.029 142.466 58.4711 143.254 59.0186C144.447 59.8503 145.398 60.7346 146.197 61.64C143.798 61.4716 140.809 60.84 137.946 59.0713C133.276 56.1972 131.677 51.9229 130.912 49.87C129.823 46.9433 129.452 43.7428 129.846 40.6161C129.869 40.4371 129.823 40.2581 129.719 40.1107C129.105 39.2054 127.749 36.7734 128.444 33.7414C129.36 29.7303 133.079 27.9196 133.809 27.5932L133.809 27.5827Z" fill="#DFD4CF" fill-opacity="0.05"/>
<path d="M94.8401 42.8366C94.8401 42.8366 94.8401 42.9103 94.8401 42.9418C94.8749 44.342 95.6977 45.0264 96.3814 45.3633C97.5518 45.9423 99.232 45.8897 100.368 45.258C102.083 44.3 102.674 43.7841 103.728 42.8471L103.821 42.763C104.006 42.5945 104.203 42.4261 104.4 42.2471C105.269 41.4786 106.173 40.6784 106.753 40.3415C106.787 40.3415 106.834 40.31 106.868 40.2784L106.915 40.2573L106.915 40.1836L106.915 40.1205L106.88 40.0994C106.88 40.0994 106.799 40.0468 106.764 40.0363C106.185 39.6994 105.281 38.8992 104.412 38.1307C104.215 37.9623 104.029 37.7833 103.832 37.6149L103.74 37.5307C102.674 36.5937 102.094 36.0883 100.379 35.1198C99.2436 34.4776 97.5634 34.4355 96.393 35.0145C95.7093 35.3514 94.8864 36.0462 94.8517 37.4358C94.8517 37.4674 94.8517 37.5096 94.8517 37.5412C94.8517 39.2678 96.0453 39.9309 96.9492 40.1941C96.0453 40.4468 94.8517 41.1206 94.8517 42.8471L94.8401 42.8366Z" fill="#DFD4CF" fill-opacity="0.05"/>
<path d="M235.121 37.9741C234.09 38.7636 232.989 39.4901 231.842 40.1428L231.645 40.2481L231.842 40.3639C233.128 41.1114 234.368 41.9536 235.515 42.8484C236.315 43.4801 237.091 44.1433 237.81 44.8276L237.914 44.9224L238.018 44.8276C239.003 43.9223 240.058 43.0591 241.159 42.2695C242.086 41.5957 243.071 40.9534 244.079 40.3639L244.264 40.2586L244.079 40.1428C243.106 39.5533 242.155 38.911 241.251 38.2372C240.127 37.4056 239.061 36.5002 238.053 35.5527L237.949 35.4474L237.844 35.5527C236.999 36.4055 236.083 37.216 235.11 37.9635L235.121 37.9741Z" fill="#DFD4CF" fill-opacity="0.05"/>
<path d="M237.431 -44.4292L102.326 -44.4292C101.735 -51.1565 95.5354 -56.4624 87.98 -56.4624C80.4245 -56.4624 74.5145 -51.388 73.6802 -44.8924C67.0518 -44.8608 60.5626 -44.0186 54.3746 -42.3762C44.4321 -39.7443 35.8567 -35.6491 28.927 -30.3325C27.351 -30.9221 25.7288 -31.28 24.0833 -31.3642C16.0528 -31.7748 10.479 -25.8688 9.43612 -24.6791C4.26786 -18.7625 3.66506 -9.58225 8.04535 -3.32875C8.7754 -2.27597 9.81842 -1.09686 11.0468 -0.0335522L11.0468 13.5368C8.14976 13.8526 5.90174 16.0739 5.90174 18.7796C5.90175 21.7063 8.52069 24.0856 11.7422 24.0856C14.9637 24.0856 17.5826 21.7063 17.5826 18.7796C17.5826 16.1792 15.5082 14.0211 12.785 13.5684L12.785 1.3035C14.7318 2.59841 16.9336 3.38802 19.0195 2.90374C20.5491 2.55632 21.1863 1.69304 22.3451 0.134928C22.8666 -0.559906 23.5156 -1.43375 24.431 -2.53917C24.9061 -3.1182 29.2865 -8.28731 35.2659 -12.3826C37.5488 -13.9407 40.0401 -15.3304 42.7054 -16.499C42.717 -16.499 42.7286 -16.5096 42.7402 -16.5201C45.1157 -17.1939 46.854 -19.1835 46.854 -21.5628C46.854 -24.4895 44.235 -26.8688 41.0136 -26.8688C37.7921 -26.8688 35.1731 -24.4895 35.1731 -21.5628C35.1731 -19.2362 36.8417 -17.278 39.1362 -16.5621C37.4211 -15.6673 35.7641 -14.6988 34.2229 -13.646C29.9932 -10.7404 26.5399 -7.32928 24.6279 -5.27637C23.8283 -9.0032 23.4228 -13.2249 24.3846 -15.3515C24.57 -15.7516 24.8946 -16.4884 25.6594 -16.8148C26.1809 -17.0359 27.2469 -17.1517 27.861 -16.5516C28.0001 -16.4042 28.116 -16.2358 28.1855 -16.0568C28.0349 -16.0884 27.8844 -16.1095 27.7337 -16.1095C26.6908 -16.1095 25.8447 -15.341 25.8447 -14.3935C25.8447 -13.446 26.6908 -12.6774 27.7337 -12.6774C28.2784 -12.6774 28.765 -12.888 29.101 -13.2249C29.1242 -13.2459 29.1474 -13.2564 29.1706 -13.2775C29.2054 -13.3196 29.2284 -13.3617 29.2631 -13.3932C29.2863 -13.4248 29.3096 -13.4565 29.3327 -13.4775C29.7962 -14.0882 30.0397 -14.7935 30.0397 -15.4778C30.0397 -16.2569 29.7384 -17.0253 29.1474 -17.6044C27.977 -18.7519 26.146 -18.7415 24.9408 -18.2361C23.5502 -17.6571 23.0058 -16.4569 22.774 -15.9305C21.2791 -12.6142 22.6232 -6.10804 23.2142 -3.67612C23.1447 -3.5919 23.0869 -3.51827 23.0521 -3.47616C22.1135 -2.33916 21.4528 -1.45485 20.9198 -0.73896C19.7958 0.77704 19.4597 1.18763 18.6138 1.37713C15.5314 2.08249 11.4523 -1.44433 9.54025 -4.17103C5.54237 -9.88761 6.09871 -18.2887 10.8266 -23.7C11.7653 -24.7843 16.8291 -30.1535 24.0137 -29.7851C25.1841 -29.7219 26.3313 -29.5114 27.4669 -29.1534C23.4343 -25.8372 20.0044 -22.0682 17.2581 -17.8992C15.2649 -14.8777 13.6308 -11.6351 12.3909 -8.25568C12.1939 -7.70824 12.5185 -7.10827 13.1211 -6.9293C13.7236 -6.75033 14.3842 -7.04511 14.5812 -7.59255C15.7631 -10.8246 17.3275 -13.9302 19.228 -16.8148C26.5632 -27.9532 38.9391 -36.0912 55.0349 -40.355C60.9912 -41.9342 67.2372 -42.7447 73.6222 -42.7868C73.9699 -35.849 80.2739 -30.3009 87.9916 -30.3009C95.7092 -30.3009 101.735 -35.607 102.337 -42.3342L237.443 -42.3342C238.034 -35.6175 244.233 -30.3009 251.789 -30.3009C259.344 -30.3009 265.787 -35.8279 266.158 -42.7447C272.543 -42.7026 278.8 -41.892 284.756 -40.3128C300.852 -36.0491 313.229 -27.9111 320.564 -16.7727C322.464 -13.8776 324.029 -10.7824 325.211 -7.5504C325.408 -7.00296 326.068 -6.69765 326.671 -6.88715C327.157 -7.03454 327.459 -7.44507 327.459 -7.88724C327.459 -7.99251 327.435 -8.10839 327.401 -8.2242C326.161 -11.6036 324.527 -14.8461 322.534 -17.8675C319.787 -22.0365 316.357 -25.8056 312.325 -29.1218C313.46 -29.4692 314.607 -29.6903 315.778 -29.7535C322.951 -30.1219 328.015 -24.7527 328.965 -23.6684C333.693 -18.2466 334.249 -9.856 330.251 -4.13941C328.339 -1.40219 324.26 2.12463 321.178 1.40874C320.32 1.20872 319.996 0.808653 318.86 -0.707348C318.327 -1.42324 317.667 -2.30754 316.728 -3.44454C316.693 -3.48666 316.635 -3.56042 316.566 -3.64464C316.96 -5.26592 317.678 -8.68743 317.678 -11.7826C317.678 -13.3302 317.493 -14.7934 317.006 -15.8989C316.774 -16.4147 316.23 -17.6149 314.839 -18.194C313.634 -18.6993 311.803 -18.7099 310.633 -17.5623C309.52 -16.4674 309.462 -14.7303 310.459 -13.4354C310.482 -13.4038 310.505 -13.3723 310.528 -13.3407C310.563 -13.2986 310.586 -13.2565 310.621 -13.2249C310.644 -13.2038 310.668 -13.1933 310.691 -13.1722C311.038 -12.8353 311.525 -12.6247 312.058 -12.6247C313.101 -12.6247 313.947 -13.3933 313.947 -14.3408C313.947 -15.2883 313.101 -16.0568 312.058 -16.0568C311.896 -16.0568 311.745 -16.0358 311.595 -16.0042C311.664 -16.1832 311.768 -16.3622 311.919 -16.499C312.533 -17.0991 313.599 -16.9833 314.121 -16.7622C314.886 -16.4464 315.222 -15.6989 315.396 -15.2988C316.346 -13.1722 315.94 -8.95064 315.152 -5.22381C313.24 -7.27672 309.787 -10.6982 305.557 -13.5933C304.016 -14.6566 302.359 -15.6252 300.644 -16.5096C302.938 -17.2254 304.607 -19.1836 304.607 -21.5102C304.607 -24.437 301.988 -26.8162 298.767 -26.8162C295.545 -26.8162 292.926 -24.437 292.926 -21.5102C292.926 -19.131 294.676 -17.1307 297.052 -16.4674C297.052 -16.4674 297.063 -16.4568 297.075 -16.4463C299.728 -15.2777 302.231 -13.8882 304.503 -12.3301C310.482 -8.23475 314.862 -3.06551 315.338 -2.48648C316.253 -1.38106 316.902 -0.517874 317.423 0.187487C318.582 1.7456 319.219 2.59835 320.749 2.9563C322.823 3.43005 325.025 2.64044 326.984 1.35606L326.984 13.6209C324.26 14.0736 322.186 16.2319 322.186 18.8323C322.186 21.759 324.805 24.1382 328.026 24.1382C331.248 24.1382 333.867 21.759 333.867 18.8323C333.867 16.1161 331.607 13.9053 328.722 13.5895L328.722 0.0191363C329.939 -1.04417 330.981 -2.22329 331.723 -3.27606C333.681 -6.07645 334.643 -9.4664 334.643 -12.8879C334.643 -17.099 333.183 -21.3628 330.332 -24.637C329.301 -25.8266 323.716 -31.7327 315.685 -31.3221C314.04 -31.2379 312.417 -30.8799 310.841 -30.2904C303.912 -35.6174 295.336 -39.7023 285.394 -42.3342C279.206 -43.9766 272.717 -44.8081 266.077 -44.8502C265.266 -51.3775 259.17 -56.4624 251.777 -56.4624C244.384 -56.4624 238.034 -51.1565 237.431 -44.4292ZM15.856 18.7901C15.856 20.843 14.0134 22.517 11.7538 22.517C9.4941 22.517 7.65155 20.843 7.65155 18.7901C7.65155 16.7372 9.49409 15.0632 11.7538 15.0632C14.0134 15.0632 15.856 16.7372 15.856 18.7901ZM36.9114 -21.5523C36.9114 -23.6052 38.7539 -25.2791 41.0136 -25.2791C43.2732 -25.2791 45.1158 -23.6052 45.1158 -21.5523C45.1158 -19.4994 43.2732 -17.8255 41.0136 -17.8255C38.7539 -17.8255 36.9114 -19.4994 36.9114 -21.5523ZM294.653 -21.5102C294.653 -23.5632 296.495 -25.237 298.755 -25.237C301.015 -25.237 302.857 -23.5632 302.857 -21.5102C302.857 -19.4573 301.015 -17.7834 298.755 -17.7834C296.495 -17.7834 294.653 -19.4573 294.653 -21.5102ZM332.129 18.8217C332.129 20.8746 330.286 22.5485 328.026 22.5485C325.767 22.5485 323.924 20.8746 323.924 18.8217C323.924 16.7688 325.767 15.0949 328.026 15.0949C330.286 15.0949 332.129 16.7688 332.129 18.8217ZM87.9916 -32.4065C81.3284 -32.4065 75.905 -37.3335 75.905 -43.387C75.905 -49.4405 81.3284 -54.3674 87.9916 -54.3674C94.6547 -54.3674 100.078 -49.4405 100.078 -43.387C100.078 -37.3335 94.6547 -32.4065 87.9916 -32.4065ZM263.863 -43.3765C263.863 -37.323 258.44 -32.3959 251.777 -32.3959C245.114 -32.3959 239.691 -37.323 239.691 -43.3765C239.691 -49.4299 245.114 -54.3569 251.777 -54.3569C258.44 -54.3569 263.863 -49.4299 263.863 -43.3765Z" fill="#DFD4CF" fill-opacity="0.05"/>
<path d="M33.3289 62.7531C36.2606 64.4059 39.6329 64.0164 41.881 63.4269C42.9819 64.7849 44.7315 66.3431 47.2577 66.8484C52.3101 67.8591 57.4438 63.9427 59.2863 59.7316C59.8425 58.4788 60.1206 57.1206 60.1206 55.7099C60.1206 55.6889 60.1206 55.6679 60.1206 55.6468C60.8275 55.1204 61.5227 54.4992 62.1485 53.7307C62.8785 52.8464 63.3883 51.9199 63.7707 50.9935C64.408 51.8252 65.1728 52.5516 66.0535 53.1307C69.6458 55.4889 73.7827 54.7836 74.9763 54.5099C75.3123 54.4362 75.5441 54.1624 75.5441 53.8466C75.5441 53.8466 75.5441 53.8361 75.5441 53.8255C75.5441 53.5097 75.2778 53.236 74.9301 53.1728C73.2846 52.8886 70.828 52.1726 68.5567 50.3513C66.7374 48.8985 65.6829 47.2562 65.0571 45.8981L70.7003 44.9295C70.9784 44.8874 71.1986 44.6979 71.2797 44.4558C71.3608 44.2136 71.2798 43.9504 71.0828 43.7715L68.3131 41.3291L76.1005 41.3291C76.5177 41.3291 76.8536 41.0237 76.8536 40.6447C76.8536 40.2657 76.5177 39.9604 76.1005 39.9604L68.3943 39.9604L71.1872 37.6127C71.3494 37.4864 71.4305 37.2969 71.4305 37.1074C71.4305 37.0337 71.4189 36.9705 71.3957 36.8968C71.303 36.6441 71.0596 36.4547 70.7699 36.4231L64.9295 35.7493C65.5321 34.3491 66.5983 32.5804 68.5451 31.0223C70.8279 29.1905 73.273 28.4746 74.9185 28.2008C75.2662 28.1377 75.5211 27.8745 75.5327 27.5481C75.5327 27.5481 75.5327 27.5377 75.5327 27.5272C75.5327 27.2113 75.3007 26.9376 74.9646 26.8639C73.7827 26.5902 69.6342 25.8848 66.0419 28.243C65.1728 28.8115 64.408 29.5379 63.7707 30.3591C63.4694 29.2642 62.9944 28.2219 62.1601 27.1797C61.4184 26.2427 60.4681 25.4427 59.3904 24.7689C59.2281 22.8844 58.5213 19.6523 55.6706 17.0203C55.4389 16.7993 49.8767 11.746 44.8012 13.8936C42.9703 14.6621 41.8809 16.0834 41.2552 17.2941C40.05 17.0625 38.7288 16.9783 37.3151 17.1888C37.0601 17.2309 30.9302 18.1889 29.3774 22.8317C28.8328 24.453 29.0414 25.969 29.389 27.0955C28.5315 27.5377 27.7436 28.1167 27.1178 28.8326C25.1131 31.1487 25.4027 33.8753 25.6229 34.9281C24.7538 35.9072 22.6214 38.7813 23.3978 42.3713C23.7802 44.161 24.7538 45.498 25.5997 46.3718C24.777 49.3196 26.0632 52.4042 28.7864 54.1518C28.798 55.531 29.1687 60.4159 33.3057 62.7531L33.3289 62.7531ZM57.8839 59.2263C56.2616 62.9321 51.7308 66.343 47.5822 65.5113C45.705 65.1323 44.3259 64.0269 43.3872 62.953C44.8473 62.4161 45.7628 61.7529 46.6435 61.1107C47.7444 60.3106 48.7757 59.5631 50.9311 58.9315C51.9508 58.6367 52.5304 58.5735 53.1098 58.5103C53.7819 58.4367 54.4771 58.3525 55.6823 57.9314C56.2733 57.7208 57.3393 57.3418 58.5561 56.668C58.4634 57.5628 58.2431 58.4262 57.8839 59.2263ZM55.1377 56.6574C54.1063 57.0259 53.5502 57.0891 52.9128 57.1628C52.2987 57.2365 51.6149 57.3102 50.4676 57.6471C48.0457 58.3525 46.7944 59.2578 45.6935 60.0579C44.7781 60.7211 43.9205 61.3424 42.4488 61.8372C40.5831 62.4478 37.037 63.2374 34.1284 61.6056C31.185 59.9527 30.5129 56.6785 30.3623 54.9625C33.1782 56.0258 36.4228 55.5416 38.7636 53.6887C42.8078 54.2782 48.1385 53.9098 52.7968 52.5306C57.9188 51.0146 61.5458 48.5196 63.1797 45.4244C63.226 47.6563 62.9248 50.4882 60.9317 52.9202C58.9617 55.3205 56.1806 56.2995 55.1261 56.668L55.1377 56.6574ZM28.2766 43.6978C28.52 42.3713 29.3427 41.4659 30.0264 40.9079C30.0612 41.108 30.0726 41.3079 30.1305 41.4974C30.3855 42.5081 30.8492 43.4451 31.4981 44.2978C31.0694 45.3612 30.6404 47.0773 31.2662 48.8565C30.5709 48.5511 29.7944 48.0563 29.1918 47.2457C28.8094 46.7509 27.9753 45.4033 28.2882 43.6873L28.2766 43.6978ZM29.7251 32.7384C30.3972 32.3067 31.1041 32.1488 31.7066 32.1067C30.0032 34.3176 29.8872 37.6759 29.8988 38.9498C29.2963 38.5813 28.4503 37.897 28.1258 36.8021C27.6739 35.2966 28.323 33.6332 29.7251 32.7489L29.7251 32.7384ZM62.6351 40.7395C62.5656 41.8133 62.1717 44.2242 60.1206 45.498C59.0429 46.1613 57.0729 46.7298 53.7819 45.6981C49.5291 44.3611 47.3156 40.8342 45.1602 37.4232C42.9932 33.9911 40.9421 30.7487 37.0138 30.1591C35.8086 29.9801 34.8817 30.1274 34.2327 30.3275C34.4297 29.8537 34.6962 29.4432 35.0555 29.1169C36.3533 27.9167 38.5087 27.9271 41.7766 28.3377C50.5951 29.4431 55.0219 30.0011 58.1507 32.8436C60.3756 34.865 61.9166 37.5916 62.6351 40.7395ZM34.4065 31.7172C35.0554 31.4435 35.8898 31.3697 36.7821 31.496C40.0035 31.9698 41.7998 34.8018 43.8625 38.0864C44.0827 38.4338 44.3142 38.8023 44.546 39.1603L42.414 39.1603C42.2749 38.3602 42.0084 37.718 41.7998 37.3074C41.4637 36.6547 40.1774 34.4755 37.4427 33.7175C36.9907 33.5912 36.0638 33.3279 34.9745 33.4858C33.8273 33.6542 32.761 34.2543 31.8803 35.1913C32.2743 33.749 33.0159 32.3068 34.4065 31.7172ZM35.7045 45.7296C34.9744 45.6349 34.3718 45.2664 33.8851 44.8558C34.534 44.7506 35.2525 44.5295 35.9362 44.0663C37.9177 42.7292 38.1958 40.3394 37.628 38.6866C37.0949 37.1074 36.0985 36.0967 34.8354 35.8335C34.3023 35.7177 33.7578 35.7388 33.2131 35.8756C33.8157 35.3071 34.4994 34.9387 35.2178 34.8334C35.9595 34.7281 36.643 34.9177 37.0138 35.0124C39.146 35.602 40.1775 37.3495 40.4441 37.8759C40.7454 38.4655 41.2204 39.6761 40.9307 41.0974C40.4672 43.4451 38.0337 46.0244 35.7045 45.7191L35.7045 45.7296ZM31.5094 39.8446C31.5094 39.8446 31.4401 39.792 31.4169 39.7604C31.4169 39.6552 31.4169 39.5604 31.4169 39.4551C31.4169 39.4551 31.4401 39.4551 31.4517 39.434C32.3672 38.7497 33.271 38.7286 33.4332 38.876C33.526 38.9497 33.6071 39.3287 33.4448 39.8025C33.3058 40.2341 33.016 40.571 32.7379 40.6131C32.4134 40.6658 31.8687 40.392 31.5094 39.8235L31.5094 39.8446ZM33.016 41.9712C33.8735 41.8239 34.5689 41.1606 34.8818 40.2025C34.9745 39.9183 35.0323 39.6024 35.0323 39.2866C35.0323 38.7708 34.8816 38.2655 34.4645 37.897C34.0936 37.5706 33.5605 37.4337 32.9696 37.4548C33.491 37.1811 34.0357 37.0758 34.4761 37.1705C35.1945 37.3179 35.797 38.0023 36.1679 39.0972C36.5966 40.35 36.3417 42.0765 35.0091 42.9713C34.2211 43.4977 33.3404 43.582 32.7263 43.561C32.3207 43.024 31.9964 42.4555 31.7762 41.8449C32.1818 41.9923 32.5988 42.0449 32.9928 41.9712L33.016 41.9712ZM33.9663 48.688C33.0392 47.9721 32.8423 46.7929 32.8654 45.8559C33.526 46.4244 34.3951 46.9403 35.4844 47.0772C38.7174 47.5088 41.8114 44.4137 42.414 41.3501C42.4719 41.0659 42.4952 40.8027 42.5068 40.5395L44.4767 40.5395C43.0745 44.0031 40.1543 49.0564 36.6316 49.3091C36.2144 49.3407 34.9281 49.4249 33.9779 48.6985L33.9663 48.688ZM33.9199 50.2566C34.7194 50.5935 35.658 50.7409 36.7357 50.6672C41.51 50.3408 44.6389 44.0137 45.844 41.087C47.6402 43.582 49.8766 45.9086 53.2951 46.9825C56.4934 47.9931 58.6953 47.6562 60.1322 47.0456C58.3592 48.7932 55.7055 50.2251 52.3218 51.2252C45.9252 53.1097 37.941 53.0359 34.8934 51.0462C34.511 50.7935 34.1864 50.5303 33.9083 50.2566L33.9199 50.2566ZM67.56 51.3619C68.6725 52.2463 69.8082 52.899 70.8975 53.3833C69.646 53.2465 68.2437 52.8675 66.9342 52.0148C65.8565 51.3094 64.9527 50.3303 64.3269 49.2038C64.4196 48.8143 64.4891 48.4248 64.547 48.0353C65.2539 49.1407 66.2158 50.2986 67.56 51.3725L67.56 51.3619ZM68.9853 37.5917L65.961 40.1289C65.961 40.1289 65.961 40.1289 65.961 40.1394C65.9146 40.1815 65.8682 40.2342 65.8334 40.2974C65.8218 40.3184 65.7986 40.3394 65.787 40.3605C65.7638 40.4131 65.7522 40.4658 65.7406 40.5289C65.7406 40.5605 65.7174 40.5921 65.7174 40.6237C65.7174 40.8132 65.8103 40.9816 65.9494 41.1079L68.9969 43.8031L64.663 44.5505C64.6398 44.1399 64.6166 43.761 64.5934 43.4135C64.5239 42.4871 64.385 41.5607 64.1648 40.6553C64.385 39.4656 64.4893 38.2654 64.5241 37.0758L68.9853 37.5917ZM64.2805 32.2436C64.9062 31.075 65.8217 30.0749 66.9342 29.3485C68.2436 28.4957 69.646 28.1166 70.8975 27.9798C69.8082 28.4641 68.6609 29.1168 67.56 30.0012C66.0999 31.1698 65.0801 32.4541 64.3617 33.6437C64.3037 33.2016 64.2459 32.7805 64.188 32.3594C64.2227 32.3173 64.2573 32.2857 64.2805 32.2436ZM45.4615 15.136C49.5868 13.3989 54.5815 17.9363 54.6278 17.9784C56.7021 19.8945 57.4901 22.2 57.7913 23.895C57.6755 23.8424 57.5595 23.7792 57.4436 23.7265C56.1458 23.2107 55.2998 23.1371 54.477 23.0634C53.8397 23.0108 53.1676 22.9476 52.1942 22.6633C50.6762 22.2106 50.0042 21.6842 49.1351 21.0104C48.4282 20.463 47.6287 19.8313 46.2497 19.1364C45.4038 18.7048 44.2102 18.1048 42.7617 17.6626C43.2947 16.7257 44.1405 15.6939 45.4615 15.136ZM30.8375 23.2212C32.1238 19.3891 37.5239 18.5469 37.5818 18.5364C40.9656 18.0311 43.9319 19.5365 45.5195 20.3366C46.7594 20.9683 47.4779 21.5157 48.1616 22.0526C49.0771 22.758 49.9347 23.4319 51.7308 23.9688C52.8664 24.3057 53.6428 24.3688 54.3381 24.4319C55.1029 24.4951 55.7634 24.5583 56.841 24.9899C58.5329 25.6637 59.9583 26.6954 60.9665 27.9693C62.357 29.7169 62.5771 31.4435 62.8784 33.8438C63.0174 34.9492 63.0755 36.0651 63.0408 37.1811C62.1369 35.1387 60.8506 33.328 59.2399 31.8646C55.7519 28.6957 51.1513 28.1167 42.0083 26.9692C40.2237 26.7481 38.4973 26.6007 36.9908 26.8323C36.8981 26.6849 36.759 26.5691 36.5736 26.5164C34.6268 25.9163 32.6105 25.969 30.8143 26.5164C30.5594 25.611 30.432 24.4424 30.8491 23.2212L30.8375 23.2212ZM28.3227 29.6747C29.806 27.9587 32.3091 27.1692 34.8237 27.5377C34.534 27.7061 34.2444 27.9061 33.9894 28.1483C33.2594 28.8115 32.7959 29.6958 32.5525 30.7381C31.6023 30.6749 30.1887 30.7697 28.8676 31.6119C28.0449 32.1383 27.419 32.8753 27.0134 33.6964C26.9555 32.6121 27.1408 31.0539 28.3343 29.6747L28.3227 29.6747ZM24.9043 42.1081C24.3249 39.4341 25.6809 37.2232 26.5152 36.1704C26.5384 36.5073 26.5846 36.8336 26.6889 37.16C27.1177 38.5707 28.1142 39.4656 28.9253 39.992C28.0678 40.7079 27.1062 41.8448 26.8049 43.4661C26.6659 44.2136 26.7006 44.8874 26.8049 45.498C26.0865 44.7611 25.2404 43.6346 24.9043 42.1081ZM27.1294 46.614C27.3959 47.2668 27.7204 47.7615 27.9405 48.0353C29.3311 49.8566 31.3706 50.4461 32.2976 50.6251C32.738 51.1409 33.3058 51.6883 34.0243 52.1515C34.7427 52.6253 35.6928 52.9938 36.8053 53.2781C34.7194 54.4045 32.0891 54.4361 29.9684 53.2254C27.5118 51.8252 26.3762 49.1302 27.1294 46.6035L27.1294 46.614Z" fill="#DFD4CF" fill-opacity="0.05"/>
<path d="M304.733 17.6329C301.801 15.9801 298.429 16.3696 296.181 16.9591C295.08 15.601 293.33 14.0429 290.804 13.5376C285.752 12.5269 280.618 16.4433 278.776 20.6544C278.22 21.9282 277.953 23.3074 277.953 24.7392C277.246 25.2656 276.551 25.8972 275.925 26.6657C275.195 27.55 274.674 28.4659 274.291 29.3924C273.654 28.5712 272.889 27.8344 272.008 27.2659C268.416 24.9076 264.268 25.6129 263.086 25.8867C262.738 25.9604 262.506 26.2552 262.518 26.571C262.518 26.8868 262.784 27.1605 263.132 27.2237C264.778 27.508 267.234 28.2238 269.506 30.0451C271.325 31.4979 272.379 33.1404 273.005 34.4984L267.362 35.4669C267.084 35.509 266.863 35.6986 266.782 35.9407C266.701 36.1829 266.782 36.446 266.979 36.6249L269.737 39.0675L261.95 39.0675C261.533 39.0675 261.197 39.3728 261.197 39.7518C261.197 40.1308 261.533 40.4361 261.95 40.4361L269.656 40.4361L266.863 42.7838C266.643 42.9628 266.574 43.2469 266.655 43.4996C266.748 43.7523 266.991 43.9418 267.281 43.9734L273.121 44.6472C272.518 46.0474 271.452 47.8161 269.506 49.3742C267.223 51.1955 264.778 51.9218 263.132 52.1956C262.784 52.2587 262.53 52.5219 262.518 52.8483C262.495 53.1746 262.738 53.4589 263.086 53.5326C264.268 53.8063 268.405 54.5116 272.008 52.1534C272.878 51.5849 273.642 50.8586 274.28 50.0374C274.581 51.1323 275.056 52.1745 275.891 53.2167C276.632 54.1537 277.582 54.9538 278.66 55.6276C278.822 57.5121 279.529 60.7441 282.38 63.3761C282.612 63.5971 288.174 68.6504 293.249 66.5028C295.08 65.7342 296.17 64.313 296.795 63.1023C298.001 63.3339 299.333 63.4181 300.747 63.2076C301.002 63.1655 307.132 62.1969 308.685 57.5752C308.928 56.8593 309.021 56.1646 309.021 55.5118C309.021 54.6907 308.87 53.9327 308.673 53.3116C309.531 52.8694 310.319 52.2903 310.944 51.5745C312.949 49.2689 312.648 46.5421 312.439 45.4788C313.181 44.6471 314.827 42.4469 314.827 39.5938C314.827 39.0885 314.78 38.5727 314.664 38.0358C314.282 36.246 313.308 34.8984 312.463 34.0351C313.274 31.0979 311.999 28.0027 309.276 26.2551C309.276 24.8128 308.916 20.0017 304.756 17.654L304.733 17.6329ZM280.178 21.1597C281.8 17.4539 286.331 14.0429 290.48 14.8746C292.357 15.2536 293.736 16.359 294.675 17.4328C293.215 17.9697 292.299 18.633 291.418 19.2752C290.318 20.0753 289.286 20.8228 287.131 21.444C286.111 21.7387 285.532 21.8019 284.952 21.8756C284.28 21.9493 283.585 22.0335 282.38 22.4546C281.801 22.6651 280.723 23.0442 279.506 23.718C279.599 22.8337 279.819 21.9598 280.178 21.1597ZM282.925 23.7284C283.956 23.3599 284.512 23.2968 285.149 23.2231C285.764 23.1494 286.447 23.0757 287.595 22.7389C290.017 22.0335 291.268 21.1281 292.369 20.328C293.284 19.6647 294.142 19.0436 295.613 18.5488C297.479 17.9277 301.025 17.1486 303.934 18.7804C306.854 20.4333 307.549 23.6969 307.7 25.413C304.884 24.3497 301.639 24.8339 299.298 26.6868C295.254 26.0972 289.924 26.4657 285.265 27.8448C280.143 29.3608 276.516 31.8559 274.882 34.9511C274.836 32.7192 275.137 29.8872 277.131 27.4553C279.112 25.055 281.882 24.0759 282.936 23.7075L282.925 23.7284ZM309.786 36.6882C309.542 38.0041 308.731 38.9095 308.047 39.4675C308.013 39.278 307.989 39.0779 307.931 38.8884C307.676 37.8883 307.201 36.9303 306.553 36.0776C306.923 35.1722 307.12 34.2562 307.12 33.393C307.12 32.7402 306.993 32.1191 306.784 31.519C307.479 31.8243 308.256 32.3191 308.882 33.1298C309.264 33.6246 310.11 34.9721 309.786 36.6882ZM308.337 47.6476C307.665 48.0793 306.947 48.2371 306.344 48.2793C307.99 46.1316 308.163 42.8995 308.163 41.6783C308.163 41.5836 308.163 41.5099 308.163 41.4467C308.766 41.8152 309.612 42.4996 309.936 43.5944C310.388 45.0999 309.739 46.7633 308.337 47.6582L308.337 47.6476ZM275.416 39.6465C275.485 38.5727 275.891 36.1513 277.93 34.888C279.008 34.2247 280.978 33.6561 284.269 34.6879C288.522 36.0249 290.735 39.5517 292.89 42.9627C295.057 46.3947 297.108 49.6373 301.037 50.2269C302.242 50.4058 303.169 50.2584 303.829 50.0584C303.632 50.5321 303.366 50.9427 303.007 51.2691C301.709 52.4693 299.554 52.4587 296.286 52.0482C287.467 50.9427 283.04 50.3849 279.912 47.5424C277.687 45.521 276.146 42.7943 275.427 39.6465L275.416 39.6465ZM303.656 48.6582C303.018 48.932 302.172 49.0056 301.28 48.8793C298.058 48.4055 296.262 45.563 294.2 42.2889C293.98 41.9415 293.748 41.5731 293.516 41.2152L295.648 41.2152C295.787 42.0153 296.054 42.6575 296.262 43.0681C296.691 43.8998 297.966 45.921 300.62 46.6579C301.072 46.7843 301.998 47.037 303.088 46.8791C304.247 46.7107 305.313 46.1 306.193 45.1631C305.799 46.6159 305.046 48.0581 303.656 48.6477L303.656 48.6582ZM302.358 34.6562C303.088 34.751 303.69 35.1196 304.177 35.5301C303.528 35.6354 302.809 35.867 302.126 36.3197C300.156 37.6567 299.866 40.0465 300.434 41.6994C301.129 43.7207 302.335 44.3629 303.227 44.5524C303.76 44.6682 304.316 44.6472 304.849 44.5104C304.247 45.0789 303.563 45.4473 302.844 45.5526C302.103 45.6579 301.419 45.4683 301.048 45.3736C298.916 44.784 297.885 43.0364 297.618 42.5101C297.317 41.91 296.853 40.6992 297.132 39.2885C297.595 36.9408 300.029 34.3615 302.358 34.6773L302.358 34.6562ZM306.553 40.5414C306.553 40.5414 306.622 40.594 306.645 40.6255C306.645 40.7308 306.645 40.8256 306.645 40.9309C306.645 40.9309 306.622 40.9309 306.611 40.952C305.695 41.6363 304.803 41.6572 304.629 41.5098C304.583 41.4677 304.525 41.3098 304.525 41.0992C304.525 40.9519 304.548 40.7729 304.617 40.5834C304.756 40.1518 305.046 39.815 305.313 39.7729C305.637 39.7202 306.182 39.9939 306.553 40.5624L306.553 40.5414ZM305.046 38.4042C304.188 38.5516 303.493 39.2149 303.18 40.1729C302.949 40.8993 302.925 41.8889 303.598 42.4784C303.968 42.8048 304.501 42.9417 305.092 42.9207C304.571 43.1944 304.026 43.2995 303.586 43.2048C302.867 43.0574 302.265 42.3731 301.894 41.2783C301.465 40.0255 301.72 38.299 303.053 37.4041C303.852 36.8672 304.768 36.7934 305.336 36.8145C305.73 37.3409 306.066 37.9199 306.286 38.52C305.88 38.3726 305.463 38.32 305.069 38.3937L305.046 38.4042ZM304.096 31.698C305.023 32.4139 305.22 33.5929 305.197 34.5299C304.536 33.9614 303.667 33.4456 302.578 33.3088C299.345 32.8772 296.251 35.9723 295.648 39.0358C295.59 39.3201 295.567 39.5833 295.555 39.8465L293.586 39.8465C294.988 36.3829 297.908 31.3296 301.431 31.0769C301.848 31.0453 303.134 30.9611 304.084 31.6875L304.096 31.698ZM304.131 30.1294C303.331 29.7925 302.392 29.6451 301.315 29.7188C296.54 30.0451 293.412 36.3723 292.207 39.299C290.41 36.8039 288.174 34.4773 284.755 33.4035C281.557 32.3928 279.355 32.7297 277.918 33.3403C279.691 31.5927 282.345 30.1609 285.729 29.1608C292.125 27.2763 300.11 27.35 303.157 29.3398C303.54 29.5925 303.864 29.8556 304.131 30.1188L304.131 30.1294ZM270.502 29.0239C269.39 28.1396 268.254 27.4869 267.165 27.0027C268.416 27.1395 269.818 27.5184 271.128 28.3712C272.217 29.0871 273.086 30.0346 273.723 31.1822C273.631 31.5717 273.561 31.9717 273.503 32.3507C272.796 31.2558 271.835 30.0977 270.502 29.0239ZM269.077 42.7943L272.101 40.2571C272.148 40.215 272.194 40.1518 272.229 40.0992C272.24 40.0781 272.263 40.0571 272.275 40.0361C272.298 39.9834 272.31 39.9307 272.321 39.8676C272.321 39.836 272.345 39.8044 272.345 39.7729C272.345 39.5834 272.252 39.4148 272.113 39.2885L269.065 36.5935L273.399 35.8459C273.422 36.2565 273.445 36.6356 273.469 36.983C273.538 37.9094 273.677 38.8359 273.897 39.7412C273.677 40.9309 273.561 42.1311 273.527 43.3207L269.077 42.8049L269.077 42.7943ZM273.781 48.1424C273.144 49.332 272.252 50.3006 271.128 51.0375C269.818 51.8903 268.416 52.2799 267.165 52.4062C268.254 51.9219 269.401 51.2691 270.502 50.3848C271.974 49.2162 272.982 47.9319 273.7 46.7422C273.758 47.1844 273.816 47.6055 273.874 48.0266C273.84 48.0687 273.805 48.1003 273.781 48.1424ZM292.6 65.2395C288.475 66.9871 283.481 62.4392 283.434 62.397C281.36 60.481 280.572 58.1754 280.271 56.4804C280.387 56.5331 280.503 56.5962 280.619 56.6488C281.916 57.1647 282.762 57.2383 283.585 57.312C284.222 57.3647 284.894 57.4279 285.868 57.7121C287.386 58.1648 288.058 58.6913 288.927 59.365C289.634 59.9125 290.434 60.5441 291.813 61.2389C292.658 61.6705 293.852 62.2706 295.301 62.7128C294.768 63.6498 293.922 64.6815 292.6 65.2395ZM307.225 57.1646C305.95 60.9862 300.538 61.8391 300.492 61.8496C297.108 62.3549 294.142 60.8494 292.554 60.0492C291.314 59.4176 290.596 58.8703 289.912 58.3333C288.997 57.6174 288.139 56.9541 286.343 56.4172C285.207 56.0803 284.431 56.0172 283.736 55.954C282.971 55.8909 282.31 55.8277 281.233 55.396C279.541 54.7223 278.116 53.6905 277.107 52.4166C275.717 50.669 275.496 48.9425 275.195 46.5421C275.056 45.4367 274.998 44.3207 275.033 43.2048C275.949 45.2472 277.223 47.058 278.834 48.5319C282.322 51.7008 286.922 52.2798 296.077 53.4274C297.861 53.6484 299.588 53.7958 301.095 53.5642C301.187 53.7116 301.326 53.8273 301.5 53.88C303.447 54.4695 305.463 54.4274 307.26 53.88C307.514 54.7854 307.63 55.954 307.225 57.1752L307.225 57.1646ZM309.739 50.7111C308.256 52.4271 305.753 53.2167 303.239 52.8483C303.528 52.6798 303.818 52.4799 304.073 52.2377C304.803 51.5639 305.266 50.6902 305.51 49.6479C306.46 49.7111 307.874 49.6163 309.195 48.774C310.017 48.2476 310.643 47.5213 311.049 46.7001C311.107 47.7845 310.921 49.3425 309.728 50.7111L309.739 50.7111ZM313.158 38.2779C313.737 40.9519 312.393 43.1628 311.547 44.2156C311.524 43.8787 311.477 43.5522 311.373 43.2153C310.944 41.8046 309.948 40.9098 309.137 40.3834C309.994 39.6675 310.956 38.5305 311.269 36.9092C311.338 36.5618 311.361 36.225 311.361 35.9091C311.361 35.5406 311.315 35.2038 311.257 34.8774C311.976 35.6144 312.822 36.7303 313.158 38.2673L313.158 38.2779ZM310.933 33.7719C310.666 33.1192 310.342 32.6244 310.122 32.3507C308.731 30.5294 306.692 29.9399 305.753 29.7609C305.336 29.2661 304.78 28.7186 304.026 28.2343C303.308 27.7606 302.358 27.3922 301.245 27.1079C303.331 25.9814 305.962 25.9498 308.082 27.1605C310.539 28.5607 311.674 31.2453 310.921 33.7825L310.933 33.7719Z" fill="#DFD4CF" fill-opacity="0.05"/>
<path d="M13.4206 61.1343C13.4206 60.1517 12.5438 59.3552 11.4623 59.3552C10.3807 59.3552 9.50366 60.1517 9.50366 61.1343C9.50366 62.1169 10.3807 62.9136 11.4623 62.9136C12.5438 62.9136 13.4206 62.1169 13.4206 61.1343Z" fill="#DFD4CF" fill-opacity="0.05"/>
<path d="M13.7118 18.7912C13.7118 17.8086 12.8351 17.012 11.7535 17.012C10.6719 17.012 9.79492 17.8086 9.79492 18.7912C9.79492 19.7738 10.6719 20.5703 11.7535 20.5703C12.8351 20.5703 13.7118 19.7738 13.7118 18.7912Z" fill="#DFD4CF" fill-opacity="0.05"/>
<path d="M322.462 61.1765C322.462 63.7769 324.537 65.935 327.26 66.3877L327.26 78.6526C325.313 77.3577 323.111 76.5681 321.025 77.0524C319.496 77.3998 318.859 78.2631 317.7 79.8212C317.178 80.516 316.529 81.3898 315.614 82.4847C315.139 83.0637 310.758 88.2329 304.779 92.3282C302.508 93.8863 300.005 95.276 297.351 96.4446C297.351 96.4446 297.339 96.4551 297.328 96.4656C294.952 97.1394 293.202 99.1291 293.202 101.508C293.202 104.435 295.821 106.814 299.043 106.814C302.264 106.814 304.883 104.435 304.883 101.508C304.883 99.1817 303.215 97.2236 300.92 96.5077C302.647 95.6128 304.292 94.6444 305.834 93.5916C310.063 90.6859 313.516 87.2748 315.428 85.2219C316.228 88.9488 316.634 93.1705 315.672 95.2971C315.498 95.6971 315.162 96.4341 314.397 96.7605C313.876 96.9815 312.81 97.0973 312.195 96.4973C312.056 96.3499 311.94 96.1813 311.871 96.0024C312.022 96.0339 312.172 96.055 312.334 96.055C313.377 96.055 314.223 95.2865 314.223 94.339C314.223 93.3915 313.377 92.623 312.334 92.623C311.79 92.623 311.315 92.8335 310.967 93.1599C310.944 93.181 310.921 93.1914 310.897 93.2125C310.863 93.2546 310.839 93.2968 310.805 93.3389C310.781 93.3705 310.758 93.3915 310.747 93.4231C309.762 94.7285 309.808 96.4551 310.921 97.55C312.091 98.6976 313.922 98.687 315.127 98.1817C316.517 97.6026 317.062 96.4024 317.294 95.876C317.792 94.7706 317.978 93.3073 317.978 91.7598C317.978 88.6541 317.248 85.2324 316.865 83.6217C316.935 83.5375 316.993 83.4638 317.027 83.4217C317.966 82.2847 318.627 81.4004 319.16 80.6845C320.284 79.1685 320.62 78.7579 321.466 78.5579C324.548 77.8525 328.627 81.3793 330.539 84.106C334.537 89.8226 333.981 98.2132 329.253 103.635C328.314 104.719 323.239 110.089 316.066 109.72C314.907 109.657 313.748 109.446 312.612 109.088C316.645 105.772 320.075 102.014 322.822 97.8342C324.815 94.8127 326.449 91.5702 327.688 88.1908C327.723 88.0855 327.746 87.9697 327.746 87.8539C327.746 87.4117 327.445 87.0012 326.959 86.8538C326.356 86.6748 325.695 86.9696 325.498 87.517C324.316 90.7491 322.752 93.8548 320.852 96.7394C313.516 107.878 301.14 116.016 285.044 120.279C278.972 121.89 272.622 122.701 266.133 122.711C265.553 115.974 259.354 110.647 251.787 110.647C244.22 110.647 238.043 115.953 237.441 122.68L102.336 122.68C101.745 115.963 95.5452 110.647 87.9897 110.647C80.4343 110.647 74.2462 115.953 73.6436 122.669C67.1659 122.659 60.8155 121.848 54.7434 120.237C38.6592 115.974 26.2717 107.836 18.9364 96.6972C17.036 93.8021 15.4716 90.7069 14.2896 87.4749C14.0926 86.9274 13.4321 86.6221 12.8295 86.8116C12.2269 86.9906 11.9023 87.5907 12.0993 88.1381C13.3392 91.5176 14.9734 94.7601 16.9665 97.7816C19.7129 101.951 23.1543 105.719 27.1754 109.036C26.0397 109.383 24.881 109.604 23.7222 109.667C16.5607 110.036 11.4853 104.667 10.5351 103.582C5.80716 98.1606 5.2508 89.7699 9.24867 84.0534C11.1607 81.3161 15.2398 77.7893 18.3222 78.5052C19.1797 78.7052 19.5042 79.1053 20.6398 80.6318C21.1729 81.3477 21.8335 82.232 22.7721 83.369C22.8069 83.4111 22.8647 83.4849 22.9342 83.5691C22.3432 86.001 21.0108 92.5072 22.494 95.8235C22.7258 96.3393 23.2703 97.5394 24.6609 98.1184C25.866 98.6238 27.6971 98.6343 28.8675 97.4868C29.4585 96.9078 29.7598 96.1392 29.7598 95.3602C29.7598 94.6653 29.5163 93.9599 29.0412 93.3493C29.018 93.3283 29.0063 93.2967 28.9832 93.2757C28.9484 93.2336 28.9254 93.1915 28.8907 93.1494C28.8675 93.1283 28.8442 93.1177 28.8211 93.0967C28.4734 92.7703 27.9981 92.5597 27.4535 92.5597C26.4105 92.5597 25.5648 93.3283 25.5648 94.2758C25.5648 95.2233 26.4105 95.9918 27.4535 95.9918C27.6157 95.9918 27.7665 95.9708 27.9172 95.9393C27.8476 96.1288 27.7433 96.2972 27.5927 96.434C26.9785 97.0341 25.9125 96.9183 25.391 96.6972C24.6262 96.3814 24.2901 95.6339 24.1162 95.2338C23.1544 93.1072 23.5716 88.8857 24.3595 85.1588C26.2716 87.2117 29.7248 90.6332 33.9545 93.5284C35.4957 94.5917 37.1528 95.5602 38.8678 96.4446C36.5734 97.1605 34.9048 99.1186 34.9048 101.445C34.9048 104.372 37.5237 106.751 40.7452 106.751C43.9667 106.751 46.5854 104.372 46.5854 101.445C46.5854 99.066 44.8474 97.0762 42.4602 96.4024C42.4486 96.4024 42.437 96.3919 42.4254 96.3813C39.7718 95.2128 37.2686 93.8232 34.9973 92.2651C29.0179 88.1698 24.6377 83.0005 24.1626 82.4215C23.2472 81.3161 22.5982 80.4529 22.0767 79.7581C20.9179 78.2 20.2807 77.3367 18.7511 76.9893C16.6768 76.5155 14.475 77.3051 12.5166 78.5895L12.5166 66.3246C15.2398 65.8719 17.3139 63.7136 17.3139 61.1133C17.3139 58.1866 14.6952 55.8074 11.4737 55.8074C8.25227 55.8074 5.63333 58.1866 5.63333 61.1133C5.63333 63.8295 7.89294 66.0404 10.7784 66.3562L10.7784 79.9264C9.56163 80.9897 8.5186 82.1688 7.77697 83.2216C3.40827 89.4751 4.01109 98.6554 9.16777 104.583C10.2107 105.772 15.7844 111.678 23.815 111.268C25.4605 111.183 27.0827 110.825 28.6587 110.236C35.5883 115.563 44.1635 119.648 54.106 122.28C60.3867 123.943 66.9573 124.775 73.6552 124.796C74.2462 131.523 80.4457 136.829 88.0011 136.829C95.5565 136.829 101.745 131.523 102.347 124.796L237.452 124.796C238.043 131.523 244.243 136.829 251.798 136.829C259.354 136.829 265.53 131.544 266.133 124.838C272.842 124.827 279.413 123.985 285.693 122.322C295.636 119.69 304.211 115.595 311.141 110.278C312.717 110.868 314.339 111.226 315.985 111.31C324.004 111.72 329.589 105.814 330.632 104.625C333.483 101.361 334.943 97.0973 334.943 92.8756C334.943 89.4541 333.981 86.0642 332.022 83.2638C331.292 82.211 330.25 81.0319 329.021 79.9686L329.021 66.3983C331.918 66.0824 334.166 63.8611 334.166 61.1554C334.166 58.2287 331.547 55.8494 328.326 55.8494C325.104 55.8494 322.485 58.2287 322.485 61.1554L322.462 61.1765ZM303.145 101.508C303.145 103.561 301.302 105.235 299.043 105.235C296.783 105.235 294.941 103.561 294.941 101.508C294.941 99.4554 296.783 97.7816 299.043 97.7816C301.302 97.7816 303.145 99.4554 303.145 101.508ZM44.8356 101.466C44.8356 103.519 42.9933 105.193 40.7336 105.193C38.474 105.193 36.6314 103.519 36.6314 101.466C36.6314 99.4134 38.4739 97.7395 40.7336 97.7395C42.9933 97.7395 44.8356 99.4134 44.8356 101.466ZM7.35994 61.1344C7.35994 59.0814 9.20248 57.4076 11.4622 57.4076C13.7218 57.4076 15.5644 59.0814 15.5644 61.1344C15.5644 63.1873 13.7218 64.8612 11.4622 64.8612C9.20249 64.8612 7.35994 63.1873 7.35994 61.1344ZM87.9898 134.745C81.3266 134.745 75.9032 129.818 75.9032 123.764C75.9032 117.711 81.3266 112.784 87.9897 112.784C94.6529 112.784 100.076 117.711 100.076 123.764C100.076 129.818 94.6529 134.745 87.9898 134.745ZM251.775 134.745C245.112 134.745 239.689 129.818 239.689 123.764C239.689 117.711 245.112 112.784 251.775 112.784C258.438 112.784 263.861 117.711 263.861 123.764C263.861 129.818 258.438 134.745 251.775 134.745ZM332.405 61.1765C332.405 63.2294 330.562 64.9034 328.303 64.9034C326.043 64.9034 324.2 63.2294 324.2 61.1765C324.2 59.1236 326.043 57.4496 328.303 57.4496C330.562 57.4496 332.405 59.1236 332.405 61.1765Z" fill="#DFD4CF" fill-opacity="0.05"/>
<path d="M330.261 61.1759C330.261 60.1933 329.384 59.3967 328.303 59.3967C327.221 59.3967 326.344 60.1933 326.344 61.1759C326.344 62.1586 327.221 62.9551 328.303 62.9551C329.384 62.9551 330.261 62.1586 330.261 61.1759Z" fill="#DFD4CF" fill-opacity="0.05"/>
<path d="M329.984 18.8219C329.984 17.8393 329.107 17.0427 328.025 17.0427C326.944 17.0427 326.067 17.8393 326.067 18.8219C326.067 19.8046 326.944 20.6011 328.025 20.6011C329.107 20.6011 329.984 19.8046 329.984 18.8219Z" fill="#DFD4CF" fill-opacity="0.05"/>
<path d="M69.6821 70.0716C69.6821 72.2509 69.1257 77.4305 64.2587 81.1047C58.9051 85.1474 52.4737 84.1789 50.6312 83.7788C44.5938 82.4944 41.6389 78.3466 41.4303 77.4096C41.2217 76.4831 41.4767 75.7356 41.5115 75.6514C41.6042 75.4093 41.7085 75.2303 41.7664 75.125C42.3111 74.3565 43.0992 74.0301 43.667 73.8827C44.0726 73.7774 44.4895 73.988 44.5938 74.3565C44.7097 74.7144 44.478 75.0934 44.0724 75.1986C43.748 75.2829 43.3078 75.4619 43.0528 75.8304C43.0528 75.8515 42.9832 75.9567 42.9368 76.0831C42.9368 76.0831 42.7746 76.5673 42.902 77.1358C43.0295 77.5885 45.4629 81.2732 50.9673 82.4523C52.6359 82.8102 58.4765 83.6945 63.2855 80.0519C68.0946 76.4198 68.222 71.1244 68.1524 69.5768C67.9091 64.5656 64.4442 59.9545 59.0905 57.5437C58.7197 57.3752 58.569 56.9645 58.7544 56.6276C58.9398 56.2907 59.3919 56.154 59.7627 56.3224C65.6031 58.9544 69.3924 64.0181 69.6589 69.5242C69.6589 69.6715 69.6705 69.8611 69.6705 70.0716L69.6821 70.0716Z" fill="#DFD4CF" fill-opacity="0.05"/>
<path d="M47.6527 76.5767C47.6527 75.0243 46.2673 73.7658 44.5585 73.7658C42.8497 73.7658 41.4646 75.0243 41.4646 76.5767C41.4646 78.1292 42.8497 79.3877 44.5585 79.3877C46.2673 79.3877 47.6527 78.1292 47.6527 76.5767Z" fill="#DFD4CF" fill-opacity="0.05"/>
<path d="M69.6808 12.9667C69.6808 13.1772 69.6808 13.3667 69.6692 13.5141C69.4027 19.0202 65.6133 24.0841 59.773 26.716C59.4021 26.8845 58.9501 26.7476 58.7647 26.4107C58.5793 26.0738 58.7299 25.6632 59.1008 25.4948C64.4428 23.0839 67.9193 18.4727 68.1627 13.4614C68.2322 11.9244 68.1048 6.61844 63.2958 2.98636C58.4867 -0.645723 52.6462 0.22805 50.9775 0.585995C45.4732 1.76511 43.0397 5.44988 42.9123 5.90257C42.7848 6.47107 42.9471 6.95535 42.9471 6.95535C42.9934 7.08168 43.0515 7.18698 43.0863 7.23962C43.3296 7.57651 43.7582 7.75542 44.0827 7.82911C44.4883 7.93439 44.72 8.31344 44.6041 8.67138C44.4882 9.03986 44.071 9.25036 43.677 9.14508C43.1092 8.99769 42.3213 8.67131 41.7999 7.93436C41.7072 7.7975 41.6145 7.6081 41.5218 7.37649C41.487 7.29226 41.232 6.54475 41.4406 5.6183C41.6491 4.6708 44.604 0.533335 50.6414 -0.751053C52.4839 -1.14058 58.9269 -2.10909 64.269 1.92304C69.136 5.59724 69.6924 10.7769 69.6924 12.9561L69.6808 12.9667Z" fill="#DFD4CF" fill-opacity="0.05"/>
<path d="M47.6527 6.45967C47.6527 4.90725 46.2673 3.64871 44.5585 3.64871C42.8497 3.64871 41.4646 4.90725 41.4646 6.45967C41.4646 8.0121 42.8497 9.27051 44.5585 9.27051C46.2673 9.27051 47.6527 8.0121 47.6527 6.45967Z" fill="#DFD4CF" fill-opacity="0.05"/>
<path d="M296.702 76.2828C296.702 76.5039 296.678 76.7567 296.62 77.0093C296.412 77.9568 293.457 82.0942 287.42 83.3785C285.577 83.7681 279.134 84.7367 273.792 80.7046C268.45 76.6724 268.311 70.819 268.38 69.124C268.647 63.618 272.436 58.5541 278.277 55.9221C278.648 55.7537 279.099 55.8906 279.285 56.2275C279.47 56.5644 279.319 56.975 278.949 57.1434C273.607 59.5543 270.13 64.1654 269.887 69.1766C269.806 70.7136 269.945 76.0197 274.754 79.6518C279.563 83.2839 285.403 82.41 287.072 82.052C292.576 80.8729 295.01 77.1883 295.137 76.7356C295.265 76.1671 295.103 75.6828 295.103 75.6828C295.056 75.5565 294.998 75.4512 294.963 75.3985C294.72 75.0617 294.291 74.8826 293.967 74.8089C293.561 74.7036 293.329 74.3247 293.445 73.9668C293.561 73.5983 293.978 73.3877 294.372 73.4929C294.94 73.6403 295.728 73.9667 296.25 74.7037C296.343 74.8405 296.435 75.0301 296.528 75.2617C296.551 75.3248 296.69 75.7249 296.69 76.2934L296.702 76.2828Z" fill="#DFD4CF" fill-opacity="0.05"/>
<path d="M296.598 76.1892C296.598 74.6367 295.213 73.3782 293.504 73.3782C291.795 73.3782 290.41 74.6367 290.41 76.1892C290.41 77.7416 291.795 79 293.504 79C295.213 79 296.598 77.7416 296.598 76.1892Z" fill="#DFD4CF" fill-opacity="0.05"/>
<path d="M296.704 5.9675C296.705 6.536 296.566 6.93616 296.542 6.99933C296.45 7.24147 296.345 7.42044 296.287 7.52572C295.743 8.29425 294.955 8.62054 294.387 8.76793C293.981 8.8732 293.564 8.6627 293.46 8.29423C293.344 7.92575 293.576 7.5467 293.981 7.45195C294.306 7.36773 294.746 7.18878 295.001 6.82031C295.001 6.79926 295.071 6.69399 295.117 6.56766C295.117 6.56766 295.279 6.08338 295.152 5.51488C295.024 5.06218 292.591 1.37741 287.086 0.198299C285.418 -0.159645 279.577 -1.04395 274.768 2.59866C269.959 6.23075 269.832 11.5262 269.901 13.0737C270.145 18.085 273.609 22.6962 278.963 25.1071C279.334 25.2755 279.485 25.6861 279.299 26.023C279.114 26.3599 278.662 26.4968 278.291 26.3283C272.451 23.6964 268.662 18.6325 268.395 13.1264C268.314 11.4315 268.464 5.57802 273.806 1.54589C279.16 -2.49678 285.592 -1.52827 287.434 -1.12821C293.471 0.156177 296.426 4.30417 296.635 5.24115C296.693 5.50434 296.716 5.74642 296.716 5.9675L296.704 5.9675Z" fill="#DFD4CF" fill-opacity="0.05"/>
<path d="M296.598 6.07295C296.598 4.52053 295.213 3.26199 293.504 3.26199C291.796 3.26199 290.41 4.52053 290.41 6.07295C290.41 7.62538 291.796 8.88379 293.504 8.88379C295.213 8.88379 296.598 7.62538 296.598 6.07295Z" fill="#DFD4CF" fill-opacity="0.05"/>
</g>
</g>
<defs>
<linearGradient id="paint0_linear_69_18344" x1="169.5" y1="0" x2="169.5" y2="80" gradientUnits="userSpaceOnUse">
<stop stop-color="#4F1515"/>
<stop offset="1" stop-color="#380C0C"/>
</linearGradient>
<clipPath id="clip0_69_18344">
<rect width="339" height="80" fill="white"/>
</clipPath>
<clipPath id="clip1_69_18344">
<rect width="339" height="80" rx="8" fill="white"/>
</clipPath>
</defs>
</svg>
