<svg width="46" height="46" viewBox="0 0 46 46" fill="none" xmlns="http://www.w3.org/2000/svg">
<g clip-path="url(#clip0_339_583)">
<rect width="46" height="46" rx="23" fill="url(#paint0_linear_339_583)"/>
<path d="M34.8239 34.2702L16.9328 11H11L28.8911 34.2702H34.8239Z" stroke="white" stroke-linecap="round" stroke-linejoin="round"/>
<path d="M34.8239 11.082C26.886 18.8046 18.9482 26.5169 11 34.2394" stroke="white" stroke-linecap="round" stroke-linejoin="round"/>
<g clip-path="url(#clip1_339_583)">
<rect width="46" height="46" rx="23" fill="url(#paint1_linear_339_583)"/>
<path d="M23 46C35.7025 46 46 35.7025 46 23C46 10.2974 35.7025 0 23 0C10.2975 0 0 10.2974 0 23C0 35.7025 10.2975 46 23 46Z" stroke="white" stroke-width="1.33333" stroke-linecap="round" stroke-linejoin="round"/>
<path d="M23.0001 38.5861C31.6081 38.5861 38.5863 31.6079 38.5863 22.9998C38.5863 14.3918 31.6081 7.41357 23.0001 7.41357C14.392 7.41357 7.41382 14.3918 7.41382 22.9998C7.41382 31.6079 14.392 38.5861 23.0001 38.5861Z" stroke="white" stroke-width="0.7" stroke-linecap="round" stroke-linejoin="round"/>
<path d="M31.1094 40.2617C37.6379 37.4321 42.2063 30.9352 42.2063 23.3634C42.2063 20.0122 41.3052 16.8823 39.7403 14.1792" stroke="white" stroke-linecap="round" stroke-linejoin="round"/>
<path d="M3.88874 22.6523C3.88874 22.9211 3.84131 23.1898 3.84131 23.4744C3.84131 33.6386 12.0929 41.8902 22.2571 41.8902C22.763 41.8902 23.253 41.8586 23.743 41.8111" stroke="white" stroke-linecap="round" stroke-linejoin="round"/>
<path d="M15.5072 15.4438C15.5072 15.4438 15.602 15.3647 15.6653 15.4438C16.1079 15.9654 16.5189 16.5029 16.8508 17.1036C17.4989 18.2734 17.8467 19.5379 17.9416 20.8816C17.9416 20.9606 17.9257 20.9922 17.8467 20.9922C17.7519 20.9922 17.657 20.9922 17.5622 20.9922C17.3251 20.9922 17.1828 21.1187 17.1828 21.3558C17.1828 21.8933 17.1512 22.4149 17.1986 22.9524C17.1986 23.0788 17.2776 23.1737 17.3883 23.2211C17.4831 23.2685 17.5938 23.2844 17.6886 23.2844C17.9574 23.2844 17.9574 23.2843 17.9416 23.5531C17.9416 23.6321 17.9099 23.6795 17.8309 23.6795C17.6096 23.6954 17.4199 23.7744 17.2302 23.8692C16.677 24.1696 16.3608 24.6438 16.3292 25.2761C16.2976 25.94 16.5663 26.4617 17.1354 26.8252C17.4989 27.0465 17.8941 27.1098 18.3209 27.0782C18.4158 27.0782 18.479 27.094 18.5264 27.1888C18.7319 27.5998 18.9849 27.9792 19.301 28.327C19.3959 28.4376 19.3959 28.4534 19.2536 28.5008C18.3526 28.7538 17.4673 28.9909 16.5663 29.2438C15.9972 29.4019 15.4124 29.5599 14.8433 29.7338C14.622 29.797 14.5271 29.9077 14.5271 30.0974C14.5271 30.2871 14.6378 30.4135 14.8591 30.461H14.8907C15.9656 30.6665 16.3766 30.7297 16.3766 30.7297C17.0879 30.8245 17.7677 31.0142 18.479 31.1249C18.479 31.1249 18.5264 31.1249 18.5422 31.1565C18.5422 31.1881 18.5422 31.2197 18.5422 31.2513C18.4316 31.5517 18.3051 31.8679 18.1945 32.1682C18.0048 32.6898 17.7993 33.2115 17.6096 33.7331C17.5464 33.907 17.5938 34.0335 17.6886 34.1283C17.7835 34.1599 17.8941 34.1916 17.989 34.239C17.989 34.239 18.0048 34.239 18.0206 34.239C18.2103 34.1916 18.3842 34.0967 18.5739 34.0177C19.5381 33.6383 20.5024 33.2431 21.4508 32.8637C21.4983 32.8479 21.5299 32.8479 21.5615 32.8637C21.6089 32.8795 21.6247 32.9269 21.6405 32.9428C21.9883 33.6383 22.4151 34.2864 22.7471 34.9819C22.7945 35.061 22.8577 35.2032 23 35.2665C23.2055 35.3613 23.49 35.2981 23.6323 35.1242C23.6639 35.0768 23.6797 35.0293 23.6955 35.0135C23.9326 34.2706 24.723 33.2431 24.8811 32.9586C24.9285 32.8637 24.9759 32.8479 25.0866 32.8953C26.1773 33.3379 27.2522 33.7648 28.3429 34.2074C28.5168 34.2706 28.6749 34.318 28.833 34.1916C28.9752 34.0809 29.0068 33.9702 28.9278 33.7647C28.7697 33.3379 28.6117 32.9112 28.4536 32.4685C28.3113 32.0734 28.1532 31.6782 28.011 31.283C27.9794 31.1881 27.9794 31.1407 28.1058 31.1249C28.4378 31.0775 28.7539 30.9668 29.0859 30.951C29.244 30.951 29.0859 30.951 30.1134 30.7613C30.7141 30.6506 31.0302 30.6032 31.0302 30.6032C31.2673 30.5558 31.5044 30.5242 31.7416 30.461C31.8838 30.4293 31.9945 30.3187 32.0103 30.1606C32.0103 30.0025 31.9471 29.8603 31.789 29.7812C31.7416 29.7654 31.6941 29.7338 31.6309 29.718C31.378 29.639 31.1251 29.5758 30.8721 29.4967C29.6708 29.1489 28.4694 28.8012 27.2838 28.4692C27.1416 28.4218 27.1416 28.4218 27.2364 28.3111C27.5367 27.9634 27.8055 27.584 28.011 27.173C28.0584 27.0782 28.1058 27.0623 28.2007 27.0623C28.4062 27.0623 28.6117 27.0623 28.8014 27.0149C29.4337 26.841 29.8605 26.4617 30.0343 25.8452C30.2082 25.2287 30.0818 24.6596 29.6233 24.1854C29.3862 23.9324 29.0859 23.7744 28.7381 23.6953C28.6907 23.6953 28.6117 23.6953 28.5959 23.6005C28.5484 23.3317 28.5959 23.2844 28.8488 23.2844C28.8962 23.2844 28.9278 23.2844 28.9752 23.2844C29.1965 23.2527 29.3388 23.1579 29.3546 22.984C29.402 22.4307 29.402 21.8775 29.3546 21.3242C29.3546 21.1345 29.1965 21.0081 28.991 21.0081C28.8962 21.0081 28.7855 21.0081 28.6907 21.0081C28.6117 21.0081 28.58 20.9923 28.5959 20.9132C28.6591 20.2651 28.7381 19.6012 28.9278 18.9689C29.3072 17.6727 29.9395 16.5187 30.8405 15.507C30.9038 15.428 30.9512 15.428 31.0302 15.4754C31.4096 15.7125 31.8206 15.7283 32.2158 15.507C32.5952 15.2857 32.7849 14.9537 32.7849 14.5111C32.7849 13.9895 32.4213 13.5469 31.9154 13.4204C31.4412 13.2939 30.8721 13.5627 30.6508 14.0211C30.5876 14.1476 30.5244 14.1792 30.3979 14.1792C29.4811 14.1476 28.58 14.1792 27.6632 14.1792C27.3787 14.1792 27.0783 14.1792 26.7938 14.2266C25.2763 14.5111 24.1223 15.3015 23.411 16.6768C23.3794 16.7558 23.3477 16.8823 23.2845 16.8823C23.2055 16.8823 23.1897 16.7558 23.1581 16.6768C22.6048 15.6018 21.7354 14.8589 20.5972 14.4479C20.0282 14.2424 19.4275 14.1792 18.8268 14.1792C17.9257 14.1792 17.0089 14.1792 16.1079 14.1792C16.013 14.1792 15.9656 14.1476 15.9182 14.0685C15.7127 13.6575 15.3965 13.4362 14.9223 13.4204C14.4481 13.4204 14.0529 13.6733 13.8474 14.1159C13.6735 14.5111 13.7684 15.017 14.0687 15.3332C14.4481 15.7283 15.033 15.7916 15.5072 15.507V15.4438ZM31.6467 14.1002C31.8206 14.1002 32.0261 14.3215 32.0261 14.4954C32.0261 14.7009 31.8364 14.8905 31.6309 14.8905C31.4412 14.8905 31.2357 14.7009 31.2357 14.4954C31.2357 14.2899 31.4254 14.1002 31.6309 14.1002H31.6467ZM18.0364 26.2878C17.7044 26.2878 17.3725 26.0348 17.2302 25.6713C17.0405 25.197 17.3093 24.6122 17.7835 24.4541C17.9099 24.4067 17.9416 24.4225 17.9416 24.5648C17.9416 24.6596 17.9416 24.7703 17.9416 24.8651C17.9416 25.3077 18.0206 25.7503 18.1312 26.1771C18.1629 26.2878 18.1312 26.3036 18.0364 26.3036V26.2878ZM29.8605 29.9867C29.8605 29.9867 29.8763 29.9867 29.9237 30.0183C29.6866 30.0974 29.4811 30.1132 29.2598 30.1606C28.6433 30.2713 28.0268 30.3819 27.4103 30.4926C27.1257 30.54 27.0151 30.7455 27.1099 31.0459C27.268 31.5043 27.4577 31.9627 27.6316 32.4211C27.7106 32.6424 27.8055 32.8637 27.8845 33.085C27.8845 33.1166 27.9477 33.1641 27.9003 33.2115C27.8687 33.2431 27.8213 33.2115 27.7739 33.1957C27.0151 32.8953 26.2405 32.5792 25.4818 32.2789C25.3079 32.2156 25.134 32.1366 24.9601 32.0734C24.723 31.9785 24.5807 32.0259 24.4385 32.263C24.2488 32.595 24.0591 32.9269 23.8694 33.2431C23.6955 33.5592 23.5058 33.8754 23.3319 34.1916C23.2529 34.318 23.2529 34.318 23.1739 34.1916C22.8261 33.5751 22.4783 32.9586 22.1148 32.3263C21.9409 32.0101 21.8144 31.9627 21.4666 32.105C20.5498 32.4843 19.6172 32.8479 18.7003 33.2273C18.6687 33.2273 18.6371 33.2747 18.6213 33.2431C18.5897 33.2115 18.6213 33.1641 18.6213 33.1167C18.811 32.6266 19.0007 32.1208 19.1904 31.6307C19.2694 31.4252 19.3484 31.2355 19.4117 31.0301C19.5065 30.7455 19.38 30.5558 19.0955 30.5084C18.6371 30.4293 18.1787 30.3503 17.7203 30.2555C17.4041 30.1923 17.0721 30.1448 16.756 30.0816C16.7086 30.0816 16.6611 30.0816 16.6137 30.0026C16.7086 29.971 16.7876 29.9551 16.8824 29.9235C17.9099 29.6232 18.9374 29.3386 19.9649 29.0383C20.0282 29.0225 20.0914 29.0383 20.1388 29.0857C20.945 29.6706 21.846 30.0184 22.8419 30.0974C23.9642 30.1764 25.0233 29.9393 25.9876 29.3545C26.1299 29.2754 26.2563 29.1805 26.3828 29.0857C26.446 29.0383 26.4934 29.0383 26.5567 29.0541C27.6632 29.3703 28.7539 29.6864 29.8605 30.0026V29.9867ZM27.8371 24.96C27.7581 26.4142 27.1416 27.5998 25.956 28.4692C25.134 29.0857 24.2014 29.3544 23.1897 29.3386C21.0556 29.307 19.3959 27.8527 18.89 26.0665C18.7477 25.5922 18.7003 25.118 18.7003 24.628C18.7003 24.2328 18.7003 23.8218 18.7003 23.4266C18.7003 23.3002 18.7319 23.2527 18.8584 23.2685C20.3285 23.2685 21.8144 23.2685 23.2845 23.2685C24.7546 23.2685 26.2089 23.2685 27.679 23.2685C27.8055 23.2685 27.8371 23.3001 27.8371 23.4424C27.8371 23.9482 27.8529 24.4699 27.8371 24.9757V24.96ZM28.58 24.5805C28.58 24.4067 28.58 24.4067 28.7539 24.4699C29.1175 24.6122 29.3704 24.9915 29.3704 25.3709C29.3704 25.7503 29.0859 26.1297 28.7223 26.2561C28.6591 26.2719 28.5958 26.3036 28.5326 26.2878C28.3745 26.2878 28.3746 26.2878 28.4062 26.1455C28.5326 25.6397 28.6117 25.118 28.58 24.5805ZM23.6639 18.4472C23.6797 17.6727 23.9642 16.9929 24.4227 16.3764C24.9759 15.6493 25.6873 15.1909 26.5725 14.9854C26.8728 14.9222 27.1732 14.8747 27.4893 14.8747C28.3904 14.8747 29.3072 14.8747 30.2082 14.8747C30.2557 14.8747 30.3031 14.8589 30.3347 14.9063C30.3505 14.9537 30.3031 14.9695 30.2714 15.0012C29.1491 16.25 28.422 17.6885 28.0584 19.3325C27.9477 19.8383 27.8687 20.3442 27.8529 20.8658C27.8529 20.9765 27.7897 20.9764 27.7106 20.9764C27.0625 20.9764 26.3986 20.9764 25.7505 20.9764C25.1024 20.9764 24.4543 20.9764 23.822 20.9764C23.7113 20.9764 23.6797 20.9606 23.6797 20.8342C23.6797 20.0438 23.6797 19.2376 23.6797 18.4472H23.6639ZM28.3745 21.7194C28.3745 21.7194 28.4536 21.7194 28.4852 21.7194C28.58 21.7194 28.6117 21.751 28.6117 21.8459C28.6117 22.0197 28.6117 22.1936 28.6117 22.3517C28.6117 22.4466 28.58 22.4782 28.501 22.4782C28.1532 22.4782 27.8213 22.4782 27.4735 22.4782C26.0824 22.4782 24.6756 22.4782 23.2845 22.4782C21.5615 22.4782 19.8543 22.4782 18.1312 22.4782C18.0048 22.4782 17.9416 22.4149 17.9416 22.2885C17.9416 22.1304 17.9416 21.9881 17.9416 21.83C17.9416 21.7352 17.9732 21.7036 18.068 21.7036C18.0996 21.7036 18.1471 21.7036 18.1787 21.7036C21.5773 21.7036 24.9759 21.7036 28.3745 21.7036V21.7194ZM16.4398 14.8747C17.3725 14.8747 18.3051 14.8431 19.2378 14.8747C21.1505 14.9538 22.5574 16.3448 22.8419 18.0678C22.8577 18.1943 22.8735 18.3208 22.8735 18.463C22.8735 19.2534 22.8735 20.028 22.8735 20.8184C22.8735 20.9448 22.8419 20.9764 22.7154 20.9764C22.0673 20.9764 21.4192 20.9764 20.7711 20.9764C20.123 20.9764 19.4749 20.9764 18.8268 20.9764C18.7161 20.9764 18.6845 20.9448 18.6845 20.8342C18.558 18.6527 17.7677 16.7242 16.345 15.0644C16.2976 15.0012 16.2027 14.9538 16.2343 14.8747C16.266 14.8115 16.3608 14.8589 16.4398 14.8589V14.8747ZM14.8907 14.1002C15.0804 14.1002 15.2859 14.3056 15.2859 14.5111C15.2859 14.7008 15.0962 14.9063 14.9065 14.9063C14.6852 14.9063 14.4955 14.7167 14.4955 14.4954C14.4955 14.3057 14.701 14.1002 14.8907 14.1002Z" fill="white"/>
<path d="M23.0341 46C35.7178 46 46.0001 35.7025 46.0001 23C46.0001 10.2974 35.7178 0 23.0341 0C10.3503 0 0.0681152 10.2974 0.0681152 23C0.0681152 35.7025 10.3503 46 23.0341 46Z" fill="url(#paint2_linear_339_583)"/>
<path d="M23.0341 46C35.7178 46 46.0001 35.7025 46.0001 23C46.0001 10.2974 35.7178 0 23.0341 0C10.3503 0 0.0681152 10.2974 0.0681152 23C0.0681152 35.7025 10.3503 46 23.0341 46Z" fill="#8E7F83"/>
<path d="M23.0341 46C35.7178 46 46.0001 35.7025 46.0001 23C46.0001 10.2974 35.7178 0 23.0341 0C10.3503 0 0.0681152 10.2974 0.0681152 23C0.0681152 35.7025 10.3503 46 23.0341 46Z" stroke="black" stroke-linecap="round" stroke-linejoin="round"/>
<path d="M22.966 46C35.6497 46 45.9319 35.7025 45.9319 23C45.9319 10.2974 35.6497 0 22.966 0C10.2822 0 0 10.2974 0 23C0 35.7025 10.2822 46 22.966 46Z" stroke="#959387" stroke-width="0.37" stroke-linecap="round" stroke-linejoin="round"/>
<path d="M44.5542 23C44.5032 24.4311 43.5335 26.1689 42.2236 26.2371C41.6282 26.2712 41.1178 25.9304 40.8116 25.6578C40.6075 25.5726 39.8589 25.3171 38.9743 25.6067C38.0387 25.9134 37.5964 26.6289 37.4943 26.7993C36.1334 32.0808 32.0165 36.2549 26.7598 37.6689C26.3515 37.8734 25.8412 38.2652 25.586 38.9467C25.2458 39.8326 25.586 40.6163 25.6371 40.7697C25.9092 41.0934 26.2325 41.5874 26.2155 42.1837C26.1644 43.4956 24.4632 44.5178 22.9832 44.5178C21.5202 44.5178 19.819 43.4956 19.751 42.1837C19.7169 41.5874 20.0572 41.0763 20.3294 40.7697C20.3974 40.5993 20.7206 39.8156 20.3804 38.9467C20.1763 38.4015 19.785 38.0437 19.4447 37.8052C13.7968 36.5274 9.33972 32.0808 8.02981 26.4245C7.79164 26.1008 7.46841 25.7771 6.95806 25.5897C6.07344 25.2489 5.2909 25.5897 5.12078 25.6408C4.79755 25.9134 4.30421 26.2371 3.7088 26.22C2.39889 26.1689 1.37817 24.4652 1.37817 22.983C1.37817 21.5178 2.39889 19.8141 3.7088 19.746C4.30421 19.7119 4.81457 20.0526 5.12078 20.3252C5.2909 20.3934 6.07344 20.7171 6.95806 20.3763C7.4514 20.1889 7.79164 19.8652 8.02981 19.5415C9.33972 13.8852 13.7968 9.43856 19.4447 8.16078C19.785 7.9393 20.1592 7.58153 20.3804 7.0193C20.7206 6.13338 20.3804 5.34967 20.3294 5.1793C20.0572 4.8556 19.7339 4.36153 19.751 3.76523C19.802 2.45338 21.5032 1.43115 22.9832 1.43115C24.4462 1.43115 26.1644 2.45338 26.2155 3.76523C26.2495 4.36153 25.9092 4.8556 25.6371 5.1793C25.569 5.34967 25.2458 6.13338 25.586 7.0193C25.8412 7.70079 26.3686 8.09264 26.7598 8.29708C32.0165 9.71116 36.1334 13.8852 37.4943 19.1667C37.5964 19.3371 38.0387 20.0697 38.9743 20.3763C39.8589 20.666 40.6075 20.3934 40.8116 20.3252C40.9477 20.206 41.4751 19.7289 42.2236 19.763C42.9891 19.7971 43.4655 20.3423 43.7376 20.6319C44.5882 21.586 44.5542 22.7786 44.5542 22.983V23Z" stroke="black" stroke-width="0.5" stroke-linecap="round" stroke-linejoin="round"/>
<path d="M29.1415 9.13143L30.8767 3.67957C30.9108 3.54328 31.0639 3.47514 31.1829 3.52625C31.319 3.57736 31.3871 3.73069 31.336 3.86698L29.1245 9.14847L29.1415 9.13143Z" fill="#959387" stroke="black" stroke-width="0.18" stroke-linecap="round" stroke-linejoin="round"/>
<path d="M31.5061 10.2896L34.3471 5.33183C34.4151 5.21257 34.5682 5.1785 34.6873 5.24665C34.8064 5.3148 34.8574 5.48516 34.7724 5.60442L31.5061 10.3066V10.2896Z" fill="#959387" stroke="black" stroke-width="0.18" stroke-linecap="round" stroke-linejoin="round"/>
<path d="M33.582 11.9432L37.3927 7.68392C37.4777 7.5817 37.6479 7.5817 37.7499 7.66688C37.852 7.76911 37.852 7.93948 37.7499 8.0417L33.582 11.9432Z" fill="#959387" stroke="black" stroke-width="0.18" stroke-linecap="round" stroke-linejoin="round"/>
<path d="M35.2659 13.97L39.8931 10.6137C40.0122 10.5285 40.1653 10.5626 40.2333 10.6648C40.3184 10.7841 40.2844 10.9544 40.1653 11.0226L35.2659 13.97Z" fill="#959387" stroke="black" stroke-width="0.18" stroke-linecap="round" stroke-linejoin="round"/>
<path d="M36.4736 16.3211L41.6962 14.0041C41.8153 13.953 41.9684 14.0041 42.0194 14.1234C42.0704 14.2597 42.0194 14.413 41.8663 14.4641L36.4565 16.3041L36.4736 16.3211Z" fill="#959387" stroke="black" stroke-width="0.18" stroke-linecap="round" stroke-linejoin="round"/>
<path d="M16.4844 9.1661L14.7492 3.71425C14.7152 3.57795 14.5621 3.5098 14.443 3.56091C14.3069 3.61203 14.2389 3.76536 14.2899 3.90166L16.5014 9.18314L16.4844 9.1661Z" fill="#959387" stroke="black" stroke-width="0.18" stroke-linecap="round" stroke-linejoin="round"/>
<path d="M14.1195 10.3419L11.2786 5.38408C11.2105 5.26482 11.0574 5.23075 10.9383 5.29889C10.8192 5.36704 10.7682 5.53742 10.8533 5.65668L14.1195 10.3589V10.3419Z" fill="#959387" stroke="black" stroke-width="0.18" stroke-linecap="round" stroke-linejoin="round"/>
<path d="M12.0443 11.9779L8.2336 7.71859C8.14855 7.61637 7.97843 7.61637 7.87636 7.70155C7.77429 7.80377 7.77429 7.97415 7.87636 8.07637L12.0443 11.9779Z" fill="#959387" stroke="black" stroke-width="0.18" stroke-linecap="round" stroke-linejoin="round"/>
<path d="M10.377 14.0047L5.74979 10.6484C5.63071 10.5632 5.4776 10.5973 5.40955 10.6995C5.32449 10.8188 5.35852 10.9891 5.4776 11.0573L10.377 14.0047Z" fill="#959387" stroke="black" stroke-width="0.18" stroke-linecap="round" stroke-linejoin="round"/>
<path d="M9.15216 16.3558L3.92952 14.0388C3.81044 13.9877 3.65733 14.0388 3.6063 14.158C3.55526 14.2943 3.6063 14.4477 3.7594 14.4988L9.16917 16.3388L9.15216 16.3558Z" fill="#959387" stroke="black" stroke-width="0.18" stroke-linecap="round" stroke-linejoin="round"/>
<path d="M16.4165 36.7827L14.6813 42.2345C14.6473 42.3708 14.4942 42.439 14.3751 42.3879C14.239 42.3367 14.171 42.1834 14.222 42.0471L16.4336 36.7656L16.4165 36.7827Z" fill="#959387" stroke="black" stroke-width="0.18" stroke-linecap="round" stroke-linejoin="round"/>
<path d="M14.0519 35.624L11.2109 40.5817C11.1429 40.701 10.9898 40.7351 10.8707 40.6669C10.7516 40.5988 10.7006 40.4284 10.7856 40.3091L14.0519 35.6069V35.624Z" fill="#959387" stroke="black" stroke-width="0.18" stroke-linecap="round" stroke-linejoin="round"/>
<path d="M11.9766 33.9883L8.16598 38.2475C8.08092 38.3498 7.9108 38.3498 7.80873 38.2646C7.70666 38.1624 7.70666 37.992 7.80873 37.8898L11.9766 33.9883Z" fill="#959387" stroke="black" stroke-width="0.18" stroke-linecap="round" stroke-linejoin="round"/>
<path d="M10.2923 31.9443L5.66507 35.3006C5.54599 35.3858 5.39289 35.3517 5.32484 35.2495C5.23978 35.1303 5.2738 34.9599 5.39288 34.8917L10.2923 31.9443Z" fill="#959387" stroke="black" stroke-width="0.18" stroke-linecap="round" stroke-linejoin="round"/>
<path d="M9.08429 29.6099L3.86165 31.9269C3.74257 31.978 3.58946 31.9269 3.53843 31.8076C3.48739 31.6713 3.53843 31.518 3.69153 31.4669L9.1013 29.6269L9.08429 29.6099Z" fill="#959387" stroke="black" stroke-width="0.18" stroke-linecap="round" stroke-linejoin="round"/>
<path d="M29.2091 36.7827L30.9444 42.2345C30.9784 42.3708 31.1315 42.439 31.2506 42.3879C31.3867 42.3367 31.4547 42.1834 31.4037 42.0471L29.1921 36.7656L29.2091 36.7827Z" fill="#959387" stroke="black" stroke-width="0.18" stroke-linecap="round" stroke-linejoin="round"/>
<path d="M31.5737 35.624L34.4147 40.5817C34.4828 40.701 34.6359 40.7351 34.7549 40.6669C34.874 40.5988 34.9251 40.4284 34.84 40.3091L31.5737 35.6069V35.624Z" fill="#959387" stroke="black" stroke-width="0.18" stroke-linecap="round" stroke-linejoin="round"/>
<path d="M33.6494 33.9883L37.4601 38.2475C37.5451 38.3498 37.7152 38.3498 37.8173 38.2646C37.9194 38.1624 37.9194 37.992 37.8173 37.8898L33.6494 33.9883Z" fill="#959387" stroke="black" stroke-width="0.18" stroke-linecap="round" stroke-linejoin="round"/>
<path d="M35.3335 31.9443L39.9607 35.3006C40.0798 35.3858 40.2329 35.3517 40.3009 35.2495C40.386 35.1303 40.352 34.9599 40.2329 34.8917L35.3335 31.9443Z" fill="#959387" stroke="black" stroke-width="0.18" stroke-linecap="round" stroke-linejoin="round"/>
<path d="M36.5414 29.6099L41.7641 31.9269C41.8831 31.978 42.0362 31.9269 42.0873 31.8076C42.1383 31.6713 42.0873 31.518 41.9342 31.4669L36.5244 29.6269L36.5414 29.6099Z" fill="#959387" stroke="black" stroke-width="0.18" stroke-linecap="round" stroke-linejoin="round"/>
<path d="M23.7825 2.9814C23.1531 2.9814 23 3.45844 22.966 3.67992C22.9319 3.4414 22.7788 2.96436 22.1494 2.9814C21.3158 2.99844 21.1967 3.93548 21.4859 4.41251C21.7751 4.88955 21.9282 5.04289 22.2174 5.34955C22.4896 5.63918 22.8299 5.96288 22.949 6.15029C23.068 5.94585 23.3913 5.63918 23.6805 5.34955C23.9697 5.04289 24.1228 4.88955 24.412 4.41251C24.7012 3.93548 24.5991 2.99844 23.7485 2.9814H23.7825Z" fill="black"/>
<path d="M22.9489 39.9863C22.7448 40.293 22.5066 40.6337 22.2004 40.9915C21.9963 41.23 21.8091 41.4345 21.605 41.6219C21.8431 41.8604 22.1153 42.15 22.3705 42.4737C22.5917 42.7463 22.7788 43.0189 22.9319 43.2745C23.102 43.036 23.2891 42.7804 23.4933 42.5078C23.7655 42.1671 24.0377 41.8945 24.2928 41.6389C24.0717 41.4345 23.8165 41.196 23.5784 40.8893C23.3062 40.5826 23.102 40.2759 22.9319 40.0034L22.9489 39.9863Z" fill="black"/>
<path d="M41.7132 24.1078C42.0704 23.7841 42.4107 23.4093 42.5978 23.2389C42.7339 23.1197 42.836 23.0345 42.887 23.0004C42.836 22.9663 42.7339 22.8812 42.5978 22.7619C42.4107 22.6086 42.0704 22.2167 41.7132 21.893C41.356 21.5693 40.9987 21.5352 40.7095 21.6034C40.4203 21.6715 40.1311 21.9782 40.1991 22.4552C40.2162 22.6086 40.2842 22.7108 40.3863 22.796C39.961 22.7449 39.7568 22.5234 39.7568 22.5234V23.4604C39.944 23.29 40.2162 23.2219 40.3863 23.2049C40.3012 23.29 40.2332 23.3923 40.1991 23.5456C40.1311 24.0226 40.4203 24.3463 40.7095 24.3975C40.9987 24.4656 41.356 24.4315 41.7132 24.1078Z" fill="black"/>
<path d="M25.3648 29.5761C25.7901 29.5761 26.3855 29.5931 27.1 29.6101C28.546 29.6101 29.2605 29.6101 29.4987 29.5079C30.8767 28.8605 30.4514 25.2487 30.3153 24.2264C30.9277 23.9368 31.5401 23.6642 32.1525 23.3746C31.2509 21.6027 30.3663 19.8138 29.4647 18.042H18.7132C18.373 18.1953 18.1518 18.3827 18.0327 18.502C17.1481 19.405 17.4883 20.7679 17.4543 23.9368C17.4543 24.5161 17.4203 24.9931 17.4203 25.2487C15.9062 25.1294 14.5283 25.8961 14.0179 27.0887C13.4055 28.4857 14.2391 29.8316 14.3412 30.019C15.3619 31.6035 17.5054 31.859 18.9344 31.5694C19.5128 31.4501 20.7546 31.0753 21.6733 29.9509C22.0815 29.4568 22.5238 28.6901 22.8981 23.4257C23.0512 21.2109 23.0852 19.6264 24.2761 18.6042C24.5823 18.3316 24.8885 18.1783 25.1096 18.0931" stroke="black" stroke-linecap="round" stroke-linejoin="round"/>
<path d="M29.5324 18.1102H18.6619L16.5354 14.2769H31.6589L29.5324 18.1102Z" stroke="black" stroke-linecap="round" stroke-linejoin="round"/>
<path d="M27.4744 22.267C27.9159 22.267 28.2739 21.9085 28.2739 21.4663C28.2739 21.024 27.9159 20.6655 27.4744 20.6655C27.0328 20.6655 26.6748 21.024 26.6748 21.4663C26.6748 21.9085 27.0328 22.267 27.4744 22.267Z" fill="black"/>
<path d="M4.37201 21.7563C4.03178 22.08 4.23591 22.5571 4.23591 22.5571C4.08281 22.4208 3.98074 22.3356 3.74258 22.3526C3.74258 22.3526 3.74257 22.3526 3.72556 22.3526C3.3513 22.3526 3.02808 22.6593 3.02808 23.0511C3.02808 23.443 3.33429 23.7496 3.72556 23.7496C3.7766 23.7496 3.82764 23.7496 3.86166 23.7496C4.03178 23.7496 4.13385 23.6474 4.25293 23.5452C4.25293 23.5452 4.04878 24.0393 4.38902 24.3459C4.72926 24.6696 5.15456 24.4993 5.29065 24.3971C5.42675 24.2948 5.6479 24.1415 5.63088 23.7837C5.61387 23.4771 5.54583 23.4259 5.37571 23.2045C5.85204 23.2385 6.17527 23.5111 6.17527 23.5111V23.0341V22.5741V22.5571C5.98814 22.7274 5.57985 22.8808 5.37571 22.8637C5.54583 22.6593 5.59686 22.6082 5.61388 22.3015C5.6479 21.9437 5.40973 21.7904 5.27364 21.6882C5.13754 21.5859 4.72926 21.4326 4.37201 21.7393V21.7563Z" fill="black"/>
</g>
<rect x="0.5" y="0.5" width="45" height="45" rx="22.5" stroke="url(#paint3_linear_339_583)"/>
</g>
<rect x="0.5" y="0.5" width="45" height="45" rx="22.5" stroke="url(#paint4_linear_339_583)"/>
<defs>
<linearGradient id="paint0_linear_339_583" x1="23" y1="0" x2="23" y2="46" gradientUnits="userSpaceOnUse">
<stop stop-color="#381414"/>
<stop offset="1" stop-color="#1D0808"/>
</linearGradient>
<linearGradient id="paint1_linear_339_583" x1="23" y1="0" x2="23" y2="46" gradientUnits="userSpaceOnUse">
<stop stop-color="#381414"/>
<stop offset="1" stop-color="#1D0808"/>
</linearGradient>
<linearGradient id="paint2_linear_339_583" x1="23.0341" y1="46" x2="23.0341" y2="0" gradientUnits="userSpaceOnUse">
<stop stop-color="#80776D"/>
<stop offset="0.22" stop-color="#918789"/>
<stop offset="0.55" stop-color="#BBB0AE"/>
<stop offset="0.84" stop-color="#D7CCC8"/>
<stop offset="1" stop-color="#E2D7D2"/>
</linearGradient>
<linearGradient id="paint3_linear_339_583" x1="23.0027" y1="46.523" x2="23.0027" y2="-0.522964" gradientUnits="userSpaceOnUse">
<stop offset="0.2" stop-color="#918789"/>
<stop offset="0.55" stop-color="#BBB0AE"/>
<stop offset="0.83" stop-color="#D7CCC8"/>
<stop offset="1" stop-color="#E2D7D2"/>
</linearGradient>
<linearGradient id="paint4_linear_339_583" x1="23.0027" y1="46.523" x2="23.0027" y2="-0.522964" gradientUnits="userSpaceOnUse">
<stop offset="0.2" stop-color="#918789"/>
<stop offset="0.55" stop-color="#BBB0AE"/>
<stop offset="0.83" stop-color="#D7CCC8"/>
<stop offset="1" stop-color="#E2D7D2"/>
</linearGradient>
<clipPath id="clip0_339_583">
<rect width="46" height="46" rx="23" fill="white"/>
</clipPath>
<clipPath id="clip1_339_583">
<rect width="46" height="46" rx="23" fill="white"/>
</clipPath>
</defs>
</svg>
