<svg width="45.195312" height="47.000000" viewBox="0 0 45.1953 47" fill="none" xmlns="http://www.w3.org/2000/svg" xmlns:xlink="http://www.w3.org/1999/xlink">
	<desc>
			Created with Pixso.
	</desc>
	<defs>
		<linearGradient x1="23.052452" y1="64.458679" x2="22.488571" y2="21.258860" id="paint_linear_6_9659_0" gradientUnits="userSpaceOnUse">
			<stop offset="0.490000" stop-color="#E2D7D2"/>
			<stop offset="1.000000" stop-color="#918789"/>
		</linearGradient>
		<linearGradient x1="23.042774" y1="1.895019" x2="22.468491" y2="41.720760" id="paint_linear_6_9660_0" gradientUnits="userSpaceOnUse">
			<stop offset="0.460000" stop-color="#E2D7D2"/>
			<stop offset="0.760000" stop-color="#B2A8A7"/>
			<stop offset="1.000000" stop-color="#918789"/>
		</linearGradient>
	</defs>
	<path id="Vector" d="M41.7 20.39C36.96 15.3 29.65 18.32 29.65 18.32C31.7 16.17 33.06 14.48 32.8 10.96C32.8 10.84 32.8 10.73 32.8 10.61C32.8 5.03 28.19 0.5 22.5 0.5C16.81 0.5 12.21 5.02 12.21 10.61C12.21 11.31 12.28 11.99 12.42 12.66C12.65 15.09 13.88 16.55 15.56 18.32C15.56 18.32 8.26 15.29 3.52 20.39C2.06 21.97 1.38 23.68 1.13 24.44C0.79 25.48 -0.39 29.58 2.06 33.53C4.25 37.1 7.89 38.11 8.63 38.3C14.96 39.93 20 35.07 20.23 34.82C19.85 41.75 15.56 46.49 15.56 46.49L29.63 46.49C27.05 43.81 24.76 37.69 25.05 34.89C25.84 35.7 27.12 36.81 28.96 37.58C29.37 37.75 35.86 40.31 40.87 36.07C44.72 32.8 45.07 27.75 44.07 24.45C43.36 22.14 41.99 20.74 41.68 20.4L41.7 20.39Z" fill="url(#paint_linear_6_9659_0)" fill-opacity="1.000000" fill-rule="nonzero"/>
	<path id="Vector" d="M29.65 18.32C31.7 16.17 33.06 14.48 32.8 10.96C32.8 10.84 32.8 10.73 32.8 10.61C32.8 5.03 28.19 0.5 22.5 0.5C16.81 0.5 12.21 5.02 12.21 10.61C12.21 11.31 12.28 11.99 12.42 12.66C12.65 15.09 13.88 16.55 15.56 18.32C15.56 18.32 8.26 15.29 3.52 20.39C2.06 21.97 1.38 23.68 1.13 24.44C0.79 25.48 -0.39 29.58 2.06 33.53C4.25 37.1 7.89 38.11 8.63 38.3C14.96 39.93 20 35.07 20.23 34.82C19.85 41.75 15.56 46.49 15.56 46.49L29.63 46.49C27.05 43.81 24.76 37.69 25.05 34.89C25.84 35.7 27.12 36.81 28.96 37.58C29.37 37.75 35.86 40.31 40.87 36.07C44.72 32.8 45.07 27.75 44.07 24.45C43.36 22.14 41.99 20.74 41.68 20.4L41.7 20.39C36.96 15.3 29.65 18.32 29.65 18.32Z" stroke="#000000" stroke-opacity="1.000000" stroke-width="1.000000" stroke-linejoin="round"/>
	<path id="Vector" d="M38.4 20.44C34.47 16.23 28.44 18.73 28.44 18.73C30.12 16.96 31.25 15.55 31.03 12.65C31.03 12.55 31.03 12.45 31.03 12.35C31.03 7.73 27.23 3.99 22.52 3.99C17.82 3.99 14.01 7.73 14.01 12.35C14.01 12.93 14.07 13.5 14.18 14.05C14.38 16.06 15.39 17.28 16.78 18.73C16.78 18.73 10.75 16.23 6.82 20.44C2.9 24.66 4.86 29.66 6.1 31.31C7.34 32.95 9.19 35.71 13.55 35.39C17.42 35.12 17.98 34.46 20.64 32.39C20.54 34.16 20.23 36.44 19.4 38.98C18.32 42.3 16.79 44.81 15.58 46.5L29.64 46.5C28.33 44.79 26.59 42.06 25.55 38.36C24.9 36.1 24.69 34.06 24.64 32.44C25.29 33.13 26.36 34.05 27.87 34.67C31.13 36.02 36.14 35.84 38.98 32.42C41.93 28.88 40.52 24.3 40.36 23.81C40.06 22.88 39.5 21.66 38.39 20.46L38.4 20.44Z" fill="url(#paint_linear_6_9660_0)" fill-opacity="1.000000" fill-rule="nonzero"/>
	<path id="Vector" d="M28.44 18.73C30.12 16.96 31.25 15.55 31.03 12.65C31.03 12.55 31.03 12.45 31.03 12.35C31.03 7.73 27.23 3.99 22.52 3.99C17.82 3.99 14.01 7.73 14.01 12.35C14.01 12.93 14.07 13.5 14.18 14.05C14.38 16.06 15.39 17.28 16.78 18.73C16.78 18.73 10.75 16.23 6.82 20.44C2.9 24.66 4.86 29.66 6.1 31.31C7.34 32.95 9.19 35.71 13.55 35.39C17.42 35.12 17.98 34.46 20.64 32.39C20.54 34.16 20.23 36.44 19.4 38.98C18.32 42.3 16.79 44.81 15.58 46.5L29.64 46.5C28.33 44.79 26.59 42.06 25.55 38.36C24.9 36.1 24.69 34.06 24.64 32.44C25.29 33.13 26.36 34.05 27.87 34.67C31.13 36.02 36.14 35.84 38.98 32.42C41.93 28.88 40.52 24.3 40.36 23.81C40.06 22.88 39.5 21.66 38.39 20.46L38.4 20.44C34.47 16.23 28.44 18.73 28.44 18.73Z" stroke="#000000" stroke-opacity="1.000000" stroke-width="1.000000" stroke-linejoin="round"/>
	<path id="Vector" d="M22.68 19.21C20.66 19.21 19.03 17.6 19.03 15.62C19.03 13.65 20.66 12.04 22.68 12.04C24.69 12.04 26.32 13.65 26.32 15.62C26.32 17.6 24.69 19.21 22.68 19.21Z" stroke="#000000" stroke-opacity="1.000000" stroke-width="1.000000" stroke-linejoin="round"/>
	<path id="Vector" d="M16.25 30.24L16.25 24.76C16.25 22.73 17.92 21.09 19.99 21.09L25.36 21.09C27.43 21.09 29.1 22.73 29.1 24.76L29.1 30.24" stroke="#000000" stroke-opacity="1.000000" stroke-width="1.000000" stroke-linejoin="round" stroke-linecap="round"/>
</svg>
