<svg width="46" height="48" viewBox="0 0 46 48" fill="none" xmlns="http://www.w3.org/2000/svg">
<path d="M42.1516 20.8981C37.4081 15.8024 30.1065 18.8202 30.1065 18.8202C32.151 16.673 33.5106 14.9811 33.2487 11.4685C33.2487 11.3498 33.2487 11.231 33.2487 11.1123C33.2487 5.53175 28.6462 1 22.956 1C17.2658 1 12.6632 5.52186 12.6632 11.1123C12.6632 11.8148 12.7338 12.4976 12.8748 13.1605C13.1064 15.5946 14.3351 17.0589 16.017 18.8202C16.017 18.8202 8.71543 15.7925 3.97191 20.8981C2.51159 22.4713 1.83671 24.183 1.58493 24.9449C1.24251 25.9839 0.0642248 30.0802 2.51152 34.0381C4.70703 37.6001 8.34274 38.6193 9.07794 38.8073C15.4127 40.4399 20.4483 35.5717 20.6799 35.3243C20.2972 42.2505 16.017 46.9901 16.017 46.9901H30.0864C27.4981 44.3186 25.2119 38.1938 25.504 35.3936C26.2895 36.205 27.5685 37.3132 29.4116 38.085C29.8245 38.2532 36.3104 40.8158 41.3258 36.5711C45.173 33.3059 45.5254 28.2596 44.5183 24.9548C43.8133 22.6494 42.4437 21.2443 42.1315 20.9079L42.1516 20.8981Z" fill="url(#paint0_radial_239_4875)" stroke="black" stroke-linecap="round" stroke-linejoin="round"/>
<path d="M23.1272 19.7105C25.1407 19.7105 26.773 18.1069 26.773 16.1287C26.773 14.1505 25.1407 12.5469 23.1272 12.5469C21.1137 12.5469 19.4814 14.1505 19.4814 16.1287C19.4814 18.1069 21.1137 19.7105 23.1272 19.7105Z" stroke="white" stroke-linecap="round" stroke-linejoin="round"/>
<path d="M16.7017 30.7433V25.2617C16.7017 23.2333 18.3736 21.5908 20.4381 21.5908H25.8161C27.8807 21.5908 29.5525 23.2333 29.5525 25.2617V30.7433" stroke="white" stroke-linecap="round" stroke-linejoin="round"/>
<defs>
<radialGradient id="paint0_radial_239_4875" cx="0" cy="0" r="1" gradientUnits="userSpaceOnUse" gradientTransform="translate(23 23.995) rotate(90) scale(22.995 22)">
<stop stop-color="#2B2B2B"/>
<stop offset="0.875" stop-color="#0F0F0F"/>
<stop offset="1" stop-color="#2F2F2F"/>
</radialGradient>
</defs>
</svg>
