<svg xmlns="http://www.w3.org/2000/svg" fill="none" viewBox="11.563636363636363 4.82 294.8727272727273 215.454" style="max-height: 500px" width="294.8727272727273" height="215.454">
<g filter="url(#filter0_d_67_12926)">
<g clip-path="url(#clip0_67_12926)">
<rect fill="url(#paint0_linear_67_12926)" height="217" width="294" y="4" x="12"/>
<path stroke-linejoin="round" stroke-linecap="round" stroke-opacity="0.08" stroke="#959387" d="M159.21 251.399C235.63 251.399 297.581 189.449 297.581 113.028C297.581 36.6081 235.63 -25.3428 159.21 -25.3428C82.7897 -25.3428 20.8389 36.6081 20.8389 113.028C20.8389 189.449 82.7897 251.399 159.21 251.399Z"/>
<path stroke-linejoin="round" stroke-linecap="round" stroke-opacity="0.08" stroke="#959387" d="M158.532 239.388C228.318 239.388 284.892 182.815 284.892 113.028C284.892 43.2417 228.318 -13.3315 158.532 -13.3315C88.7451 -13.3315 32.1719 43.2417 32.1719 113.028C32.1719 182.815 88.7451 239.388 158.532 239.388Z"/>
<path stroke-linejoin="round" stroke-linecap="round" stroke-opacity="0.08" stroke="#959387" d="M150.735 -12.46C152.091 -7.03554 154.222 5.0241 148.144 16.7689C147.224 18.5367 145.843 20.8373 143.761 23.3315C134.147 34.7615 123.274 33.4297 108.575 42.5592C106.274 43.9879 100.559 47.7172 94.844 53.8923C79.8057 70.0687 79.9994 86.463 65.6635 98.1594C63.3629 100.048 60.2149 102.179 55.8802 103.317C49.2692 105.037 43.4088 103.439 40.2607 102.276"/>
<path stroke-linejoin="round" stroke-linecap="round" stroke-opacity="0.08" stroke="#959387" d="M49.438 94.6236C51.3268 94.9627 52.7798 94.8658 53.5789 94.7689C71.3294 92.7832 71.4747 58.033 97.2407 39.5803C104.239 34.5676 110.463 31.3953 110.463 31.3953C122.086 25.4865 127.245 25.9224 133.371 20.7402C136.495 18.0764 140.418 13.5237 142.912 5.31445"/>
<path fill-opacity="0.08" fill="#959387" d="M49.9468 95.8833C52.421 95.8833 54.4268 93.8776 54.4268 91.4033C54.4268 88.9291 52.421 86.9233 49.9468 86.9233C47.4726 86.9233 45.4668 88.9291 45.4668 91.4033C45.4668 93.8776 47.4726 95.8833 49.9468 95.8833Z"/>
<path fill-opacity="0.08" fill="#959387" d="M57.9381 76.3649C61.1345 76.3649 63.7257 73.7736 63.7257 70.5772C63.7257 67.3808 61.1345 64.7896 57.9381 64.7896C54.7417 64.7896 52.1504 67.3808 52.1504 70.5772C52.1504 73.7736 54.7417 76.3649 57.9381 76.3649Z"/>
<path fill-opacity="0.08" fill="#959387" d="M68.9564 58.7355C72.8617 58.7355 76.0275 55.5696 76.0275 51.6644C76.0275 47.7591 72.8617 44.5933 68.9564 44.5933C65.0511 44.5933 61.8853 47.7591 61.8853 51.6644C61.8853 55.5696 65.0511 58.7355 68.9564 58.7355Z"/>
<path fill-opacity="0.08" fill="#959387" d="M82.6385 39.8957C86.3432 39.8957 89.3464 36.8925 89.3464 33.1879C89.3464 29.4832 86.3432 26.48 82.6385 26.48C78.9339 26.48 75.9307 29.4832 75.9307 33.1879C75.9307 36.8925 78.9339 39.8957 82.6385 39.8957Z"/>
<path stroke-linejoin="round" stroke-linecap="round" stroke-opacity="0.08" stroke="#959387" d="M101.866 36.4567C104.288 34.9795 107.751 32.6063 111.31 29.0707C115.766 24.6634 118.454 21.9754 118.285 18.1977C118.139 14.8074 115.718 11.2235 111.989 9.84313C108.356 8.48703 104.07 9.43145 101.576 12.2405C101.116 12.7491 98.4759 15.7519 99.6383 19.2148C100.413 21.5637 102.786 23.7432 105.692 23.5737C108.986 23.38 110.632 20.3045 110.729 20.135"/>
<path fill-opacity="0.08" fill="#959387" d="M127.971 12.0465C131.168 12.0465 133.759 9.45529 133.759 6.25885C133.759 3.06241 131.168 0.471191 127.971 0.471191C124.775 0.471191 122.184 3.06241 122.184 6.25885C122.184 9.45529 124.775 12.0465 127.971 12.0465Z"/>
<path fill-opacity="0.08" fill="#959387" d="M42.4155 116.08C44.1007 116.08 45.4667 114.713 45.4667 113.028C45.4667 111.343 44.1007 109.977 42.4155 109.977C40.7304 109.977 39.3643 111.343 39.3643 113.028C39.3643 114.713 40.7304 116.08 42.4155 116.08Z"/>
<path stroke-linejoin="round" stroke-linecap="round" stroke-opacity="0.08" stroke="#959387" d="M159.21 184.225C198.53 184.225 230.406 152.349 230.406 113.029C230.406 73.7088 198.53 41.8335 159.21 41.8335C119.89 41.8335 88.0146 73.7088 88.0146 113.029C88.0146 152.349 119.89 184.225 159.21 184.225Z"/>
<path stroke-linejoin="round" stroke-linecap="round" stroke-opacity="0.08" stroke="#959387" d="M177.373 56.4106H141.073C130.56 56.4106 122.039 64.9324 122.039 75.4445V150.636C122.039 161.148 130.56 169.67 141.073 169.67H177.373C187.885 169.67 196.406 161.148 196.406 150.636V75.4445C196.406 64.9324 187.885 56.4106 177.373 56.4106Z"/>
<path stroke-linejoin="round" stroke-linecap="round" stroke-opacity="0.08" stroke="#959387" d="M102.593 94.8672V131.167C102.593 141.679 111.115 150.201 121.627 150.201H196.818C207.33 150.201 215.852 141.679 215.852 131.167V94.8672C215.852 84.3551 207.33 75.8333 196.818 75.8333H121.627C111.115 75.8333 102.593 84.3551 102.593 94.8672Z"/>
<path stroke-linejoin="round" stroke-linecap="round" stroke-opacity="0.08" stroke="#959387" d="M167.686 -12.46C166.33 -7.03554 164.199 5.0241 170.277 16.7689C171.197 18.5367 172.578 20.8373 174.66 23.3315C184.274 34.7615 195.147 33.4297 209.846 42.5592C212.147 43.9879 217.862 47.7172 223.577 53.8923C238.615 70.0687 238.421 86.463 252.757 98.1594C255.058 100.048 258.206 102.179 262.541 103.317C269.152 105.037 275.012 103.439 278.16 102.276"/>
<path stroke-linejoin="round" stroke-linecap="round" stroke-opacity="0.08" stroke="#959387" d="M268.982 94.6236C267.093 94.9627 265.64 94.8658 264.841 94.7689C247.091 92.7832 246.945 58.033 221.179 39.5803C214.181 34.5676 207.957 31.3953 207.957 31.3953C196.334 25.4865 191.176 25.9224 185.049 20.7402C181.925 18.0764 178.002 13.5237 175.508 5.31445"/>
<path fill-opacity="0.08" fill="#959387" d="M268.474 95.8833C270.948 95.8833 272.954 93.8776 272.954 91.4033C272.954 88.9291 270.948 86.9233 268.474 86.9233C265.999 86.9233 263.994 88.9291 263.994 91.4033C263.994 93.8776 265.999 95.8833 268.474 95.8833Z"/>
<path fill-opacity="0.08" fill="#959387" d="M260.482 76.3644C263.679 76.3644 266.27 73.7732 266.27 70.5767C266.27 67.3803 263.679 64.7891 260.482 64.7891C257.286 64.7891 254.695 67.3803 254.695 70.5767C254.695 73.7732 257.286 76.3644 260.482 76.3644Z"/>
<path fill-opacity="0.08" fill="#959387" d="M249.464 58.7355C253.369 58.7355 256.535 55.5696 256.535 51.6644C256.535 47.7591 253.369 44.5933 249.464 44.5933C245.558 44.5933 242.393 47.7591 242.393 51.6644C242.393 55.5696 245.558 58.7355 249.464 58.7355Z"/>
<path fill-opacity="0.08" fill="#959387" d="M235.782 39.8957C239.486 39.8957 242.49 36.8925 242.49 33.1879C242.49 29.4832 239.486 26.48 235.782 26.48C232.077 26.48 229.074 29.4832 229.074 33.1879C229.074 36.8925 232.077 39.8957 235.782 39.8957Z"/>
<path stroke-linejoin="round" stroke-linecap="round" stroke-opacity="0.08" stroke="#959387" d="M216.554 36.4562C214.133 34.979 210.67 32.6058 207.11 29.0703C202.654 24.6629 199.966 21.9749 200.136 18.1972C200.281 14.8069 202.702 11.223 206.432 9.84264C210.064 8.48654 214.35 9.43096 216.845 12.24C217.305 12.7486 219.944 15.7514 218.782 19.2143C218.007 21.5633 215.634 23.7427 212.728 23.5732C209.435 23.3795 207.788 20.304 207.691 20.1345"/>
<path fill-opacity="0.08" fill="#959387" d="M190.449 12.0465C193.646 12.0465 196.237 9.45529 196.237 6.25885C196.237 3.06241 193.646 0.471191 190.449 0.471191C187.253 0.471191 184.662 3.06241 184.662 6.25885C184.662 9.45529 187.253 12.0465 190.449 12.0465Z"/>
<path fill-opacity="0.08" fill="#959387" d="M276.005 115.449C277.69 115.449 279.056 114.083 279.056 112.398C279.056 110.713 277.69 109.347 276.005 109.347C274.32 109.347 272.954 110.713 272.954 112.398C272.954 114.083 274.32 115.449 276.005 115.449Z"/>
<path stroke-linejoin="round" stroke-linecap="round" stroke-opacity="0.08" stroke="#959387" d="M150.734 237.572C152.09 232.148 154.222 220.088 148.143 208.343C147.223 206.575 145.843 204.275 143.76 201.781C134.146 190.351 123.273 191.682 108.574 182.553C106.273 181.124 100.559 177.395 94.8435 171.22C79.8053 155.043 79.9989 138.649 65.663 126.953C63.3624 125.064 60.2144 122.933 55.8797 121.795C49.2687 120.075 43.4084 121.673 40.2603 122.836"/>
<path stroke-linejoin="round" stroke-linecap="round" stroke-opacity="0.08" stroke="#959387" d="M49.4385 130.512C51.3273 130.173 52.7803 130.27 53.5794 130.367C71.3299 132.353 71.4752 167.103 97.2411 185.556C104.24 190.569 110.463 193.741 110.463 193.741C122.087 199.65 127.245 199.214 133.372 204.396C136.496 207.06 140.419 211.612 142.913 219.822"/>
<path fill-opacity="0.08" fill="#959387" d="M49.9463 138.213C52.4205 138.213 54.4263 136.207 54.4263 133.733C54.4263 131.259 52.4205 129.253 49.9463 129.253C47.4721 129.253 45.4663 131.259 45.4663 133.733C45.4663 136.207 47.4721 138.213 49.9463 138.213Z"/>
<path fill-opacity="0.08" fill="#959387" d="M57.9376 160.347C61.134 160.347 63.7252 157.756 63.7252 154.559C63.7252 151.363 61.134 148.771 57.9376 148.771C54.7412 148.771 52.1499 151.363 52.1499 154.559C52.1499 157.756 54.7412 160.347 57.9376 160.347Z"/>
<path fill-opacity="0.08" fill="#959387" d="M68.9564 180.543C72.8617 180.543 76.0275 177.377 76.0275 173.472C76.0275 169.566 72.8617 166.4 68.9564 166.4C65.0511 166.4 61.8853 169.566 61.8853 173.472C61.8853 177.377 65.0511 180.543 68.9564 180.543Z"/>
<path fill-opacity="0.08" fill="#959387" d="M82.6385 198.657C86.3432 198.657 89.3464 195.654 89.3464 191.949C89.3464 188.244 86.3432 185.241 82.6385 185.241C78.9339 185.241 75.9307 188.244 75.9307 191.949C75.9307 195.654 78.9339 198.657 82.6385 198.657Z"/>
<path stroke-linejoin="round" stroke-linecap="round" stroke-opacity="0.08" stroke="#959387" d="M101.866 188.68C104.288 190.157 107.751 192.53 111.31 196.066C115.766 200.473 118.454 203.161 118.285 206.939C118.139 210.329 115.718 213.913 111.989 215.293C108.356 216.649 104.07 215.705 101.576 212.896C101.116 212.387 98.4759 209.384 99.6383 205.922C100.413 203.573 102.786 201.393 105.692 201.563C108.986 201.756 110.632 204.832 110.729 205.001"/>
<path fill-opacity="0.08" fill="#959387" d="M127.971 224.665C131.168 224.665 133.759 222.074 133.759 218.878C133.759 215.681 131.168 213.09 127.971 213.09C124.775 213.09 122.184 215.681 122.184 218.878C122.184 222.074 124.775 224.665 127.971 224.665Z"/>
<path stroke-linejoin="round" stroke-linecap="round" stroke-opacity="0.08" stroke="#959387" d="M167.686 237.572C166.33 232.148 164.199 220.088 170.277 208.343C171.197 206.575 172.578 204.275 174.66 201.781C184.274 190.351 195.147 191.682 209.846 182.553C212.147 181.124 217.862 177.395 223.577 171.22C238.615 155.043 238.421 138.649 252.757 126.953C255.058 125.064 258.206 122.933 262.541 121.795C269.152 120.075 275.012 121.673 278.16 122.836"/>
<path stroke-linejoin="round" stroke-linecap="round" stroke-opacity="0.08" stroke="#959387" d="M268.982 130.512C267.093 130.173 265.64 130.27 264.841 130.367C247.091 132.353 246.945 167.103 221.179 185.556C214.181 190.569 207.957 193.741 207.957 193.741C196.334 199.65 191.176 199.214 185.049 204.396C181.925 207.06 178.002 211.612 175.508 219.822"/>
<path fill-opacity="0.08" fill="#959387" d="M268.474 138.213C270.948 138.213 272.954 136.207 272.954 133.733C272.954 131.259 270.948 129.253 268.474 129.253C265.999 129.253 263.994 131.259 263.994 133.733C263.994 136.207 265.999 138.213 268.474 138.213Z"/>
<path fill-opacity="0.08" fill="#959387" d="M260.482 160.347C263.679 160.347 266.27 157.756 266.27 154.559C266.27 151.363 263.679 148.771 260.482 148.771C257.286 148.771 254.695 151.363 254.695 154.559C254.695 157.756 257.286 160.347 260.482 160.347Z"/>
<path fill-opacity="0.08" fill="#959387" d="M249.464 180.543C253.369 180.543 256.535 177.377 256.535 173.472C256.535 169.566 253.369 166.4 249.464 166.4C245.558 166.4 242.393 169.566 242.393 173.472C242.393 177.377 245.558 180.543 249.464 180.543Z"/>
<path fill-opacity="0.08" fill="#959387" d="M235.782 198.657C239.486 198.657 242.49 195.654 242.49 191.949C242.49 188.244 239.486 185.241 235.782 185.241C232.077 185.241 229.074 188.244 229.074 191.949C229.074 195.654 232.077 198.657 235.782 198.657Z"/>
<path stroke-linejoin="round" stroke-linecap="round" stroke-opacity="0.08" stroke="#959387" d="M216.554 188.68C214.133 190.157 210.67 192.53 207.11 196.066C202.654 200.473 199.966 203.161 200.136 206.939C200.281 210.329 202.702 213.913 206.432 215.293C210.064 216.649 214.35 215.705 216.845 212.896C217.305 212.387 219.944 209.384 218.782 205.922C218.007 203.573 215.634 201.393 212.728 201.563C209.435 201.756 207.788 204.832 207.691 205.001"/>
<path fill-opacity="0.08" fill="#959387" d="M190.449 224.665C193.646 224.665 196.237 222.074 196.237 218.878C196.237 215.681 193.646 213.09 190.449 213.09C187.253 213.09 184.662 215.681 184.662 218.878C184.662 222.074 187.253 224.665 190.449 224.665Z"/>
<path stroke-linejoin="round" stroke-linecap="round" stroke-opacity="0.08" stroke="#959387" d="M160.058 79.0784C157.83 78.1097 150.977 75.4943 142.671 77.6496C140.661 78.1581 130.732 80.9914 125.889 90.9685C120.852 101.333 125.284 111.31 126.01 112.933C131.241 124.193 144.996 130.998 160.325 129.496"/>
<path stroke-linejoin="round" stroke-linecap="round" stroke-opacity="0.08" stroke="#959387" d="M159.331 95.4969C156.74 95.2063 153.011 94.9884 148.579 95.5453C145.649 95.9086 142.404 96.3202 138.845 97.9669C132.742 100.8 129.473 105.571 128.189 107.484C126.906 109.421 121.869 117.219 123.467 127.559C123.734 129.254 124.702 135.018 128.795 139.958C135.43 147.925 147.78 150.661 160.203 147.295"/>
<path stroke-linejoin="round" stroke-linecap="round" stroke-opacity="0.08" stroke="#959387" d="M160.058 79.0776C157.394 80.1916 146.715 84.9622 140.83 97.1671C134.026 111.309 138.966 124.483 139.837 126.662C145.48 140.974 157.951 146.399 160.179 147.319"/>
<path stroke-linejoin="round" stroke-linecap="round" stroke-opacity="0.08" stroke="#959387" d="M159.332 95.4971C157.564 96.5384 151.074 100.655 149.088 108.598C148.773 109.857 148.071 112.86 148.87 116.492C150.735 125.017 159.114 128.915 160.373 129.472"/>
<path stroke-linejoin="round" stroke-linecap="round" stroke-opacity="0.08" stroke="#959387" d="M158.702 79.0534C160.93 78.0848 167.783 75.4694 176.09 77.6247C178.1 78.1332 188.028 80.9665 192.871 90.9436C197.908 101.308 193.477 111.285 192.75 112.908C187.52 124.168 173.765 130.973 158.436 129.471"/>
<path stroke-linejoin="round" stroke-linecap="round" stroke-opacity="0.08" stroke="#959387" d="M159.453 95.472C162.044 95.1814 165.774 94.9635 170.205 95.5204C173.135 95.8837 176.38 96.2954 179.94 97.9421C186.043 100.775 189.312 105.546 190.595 107.459C191.879 109.396 196.916 117.194 195.317 127.534C195.051 129.229 194.082 134.993 189.99 139.933C183.355 147.9 171.004 150.636 158.582 147.27"/>
<path stroke-linejoin="round" stroke-linecap="round" stroke-opacity="0.08" stroke="#959387" d="M158.703 79.0537C161.366 80.1677 172.046 84.9382 177.93 97.1432C184.735 111.285 179.795 124.459 178.923 126.638C173.281 140.95 160.809 146.375 158.582 147.295"/>
<path stroke-linejoin="round" stroke-linecap="round" stroke-opacity="0.08" stroke="#959387" d="M159.453 95.4717C161.221 96.513 167.711 100.63 169.696 108.573C170.011 109.832 170.713 112.835 169.914 116.467C168.05 124.991 159.671 128.89 158.412 129.447"/>
<path stroke-linejoin="round" stroke-linecap="round" stroke-opacity="0.08" stroke="#959387" d="M39.994 -17.0861C40.3572 -17.9337 42.3188 -22.1957 47.0409 -23.9151C51.8599 -25.6828 56.8969 -23.8182 59.8028 -20.9849C65.1788 -15.7784 64.3796 -6.11618 59.5606 -1.00657C55.686 3.11017 50.1405 3.25548 49.7773 3.2797C44.6677 3.61872 40.9868 1.36662 39.8245 0.591701C41.229 1.72986 44.6919 4.87795 45.7816 9.96334C47.2104 16.7197 44.1107 25.4617 36.6279 28.2708C30.5739 30.5471 22.292 28.6582 19.0712 22.4104C16.7707 17.9305 17.2308 11.5132 21.3475 7.71124C24.0113 5.24119 28.346 3.7398 32.4627 5.16855C33.1166 5.3865 37.8872 7.13005 38.9042 11.7796C39.776 15.751 37.645 20.8122 33.5767 21.8293C30.1138 22.701 27.111 20.1826 26.7235 19.8435"/>
<path fill-opacity="0.08" fill="#959387" d="M28.8783 21.902C31.299 21.902 33.2614 19.9396 33.2614 17.5189C33.2614 15.0981 31.299 13.1357 28.8783 13.1357C26.4576 13.1357 24.4951 15.0981 24.4951 17.5189C24.4951 19.9396 26.4576 21.902 28.8783 21.902Z"/>
<path stroke-linejoin="round" stroke-linecap="round" stroke-opacity="0.08" stroke="#959387" d="M19.4101 10.0605C17.933 12.24 16.2862 14.9764 14.8332 18.294C14.8332 18.3183 14.8091 18.3667 14.7848 18.3909C12.8718 22.774 12 27.5688 12 32.3636V124.288"/>
<path stroke-linejoin="round" stroke-linecap="round" stroke-opacity="0.08" stroke="#959387" d="M278.426 -16.8923C278.063 -17.7398 276.101 -22.0019 271.379 -23.7212C266.56 -25.489 261.523 -23.6243 258.617 -20.7911C253.241 -15.5846 254.04 -5.92234 258.859 -0.812729C262.734 3.30402 268.279 3.44931 268.643 3.47352C273.752 3.81255 277.433 1.56046 278.596 0.785546C277.191 1.92371 273.728 5.07179 272.638 10.1572C271.21 16.9135 274.309 25.6555 281.792 28.4646C287.846 30.7409 296.128 28.8521 299.349 22.6043C301.649 18.1243 301.189 11.707 297.073 7.90508C294.409 5.43504 290.074 3.93364 285.957 5.3624C285.303 5.58034 280.533 7.3239 279.516 11.9734C278.644 15.9448 280.775 21.006 284.843 22.0231C288.306 22.8949 291.309 20.3764 291.697 20.0374"/>
<path fill-opacity="0.08" fill="#959387" d="M289.541 22.0958C291.962 22.0958 293.924 20.1335 293.924 17.7127C293.924 15.292 291.962 13.3296 289.541 13.3296C287.121 13.3296 285.158 15.292 285.158 17.7127C285.158 20.1335 287.121 22.0958 289.541 22.0958Z"/>
<path stroke-linejoin="round" stroke-linecap="round" stroke-opacity="0.08" stroke="#959387" d="M299.01 10.2544C300.487 12.4338 302.134 15.1703 303.587 18.4879C303.587 18.5121 303.611 18.5605 303.635 18.5848C305.548 22.9679 306.42 27.7627 306.42 32.5575V124.482"/>
<path stroke-linejoin="round" stroke-linecap="round" stroke-opacity="0.08" stroke="#959387" d="M278.426 242.803C278.063 243.65 276.101 247.912 271.379 249.632C266.56 251.399 261.523 249.535 258.617 246.701C253.241 241.495 254.04 231.833 258.859 226.723C262.734 222.606 268.279 222.461 268.643 222.437C273.752 222.098 277.433 224.35 278.596 225.125C277.191 223.987 273.728 220.839 272.638 215.753C271.21 208.997 274.309 200.255 281.792 197.446C287.846 195.169 296.128 197.058 299.349 203.306C301.649 207.786 301.189 214.203 297.073 218.005C294.409 220.475 290.074 221.977 285.957 220.548C285.303 220.33 280.533 218.586 279.516 213.937C278.644 209.965 280.775 204.904 284.843 203.887C288.306 203.015 291.309 205.534 291.697 205.873"/>
<path fill-opacity="0.08" fill="#959387" d="M289.541 212.581C291.962 212.581 293.924 210.618 293.924 208.198C293.924 205.777 291.962 203.814 289.541 203.814C287.121 203.814 285.158 205.777 285.158 208.198C285.158 210.618 287.121 212.581 289.541 212.581Z"/>
<path stroke-linejoin="round" stroke-linecap="round" stroke-opacity="0.08" stroke="#959387" d="M299.01 215.681C300.487 213.501 302.134 210.765 303.587 207.447C303.587 207.423 303.611 207.375 303.635 207.35C305.548 202.967 306.42 198.172 306.42 193.378V101.453"/>
<path stroke-linejoin="round" stroke-linecap="round" stroke-opacity="0.08" stroke="#959387" d="M39.9935 242.632C40.3568 243.48 42.3183 247.742 47.0404 249.461C51.8594 251.229 56.8964 249.364 59.8023 246.531C65.1783 241.324 64.3792 231.662 59.5601 226.553C55.6856 222.436 50.14 222.291 49.7768 222.266C44.6672 221.927 40.9864 224.179 39.824 224.954C41.2285 223.816 44.6914 220.668 45.7811 215.583C47.2099 208.826 44.1102 200.084 36.6274 197.275C30.5734 194.999 22.2915 196.888 19.0707 203.136C16.7702 207.616 17.2303 214.033 21.347 217.835C24.0108 220.305 28.3455 221.806 32.4622 220.378C33.1161 220.16 37.8867 218.416 38.9038 213.767C39.7755 209.795 37.6445 204.734 33.5762 203.717C30.1133 202.845 27.1105 205.363 26.723 205.703"/>
<path fill-opacity="0.08" fill="#959387" d="M28.8783 212.387C31.299 212.387 33.2614 210.424 33.2614 208.004C33.2614 205.583 31.299 203.621 28.8783 203.621C26.4576 203.621 24.4951 205.583 24.4951 208.004C24.4951 210.424 26.4576 212.387 28.8783 212.387Z"/>
<path stroke-linejoin="round" stroke-linecap="round" stroke-opacity="0.08" stroke="#959387" d="M19.4101 215.486C17.933 213.307 16.2862 210.571 14.8332 207.253C14.8332 207.229 14.8091 207.18 14.7848 207.156C12.8718 202.773 12 197.978 12 193.183V101.259"/>
</g>
</g>
<defs>
<filter color-interpolation-filters="sRGB" filterUnits="userSpaceOnUse" height="241" width="318" y="0" x="0" id="filter0_d_67_12926">
<feFlood result="BackgroundImageFix" flood-opacity="0"/>
<feColorMatrix result="hardAlpha" values="0 0 0 0 0 0 0 0 0 0 0 0 0 0 0 0 0 0 127 0" type="matrix" in="SourceAlpha"/>
<feMorphology result="effect1_dropShadow_67_12926" in="SourceAlpha" operator="dilate" radius="2"/>
<feOffset dy="8"/>
<feGaussianBlur stdDeviation="5"/>
<feComposite operator="out" in2="hardAlpha"/>
<feColorMatrix values="0 0 0 0 0 0 0 0 0 0 0 0 0 0 0 0 0 0 0.5 0" type="matrix"/>
<feBlend result="effect1_dropShadow_67_12926" in2="BackgroundImageFix" mode="normal"/>
<feBlend result="shape" in2="effect1_dropShadow_67_12926" in="SourceGraphic" mode="normal"/>
</filter>
<linearGradient gradientUnits="userSpaceOnUse" y2="2.60263" x2="159" y1="2.60263" x1="159" id="paint0_linear_67_12926">
<stop stop-color="#2A2A2A"/>
<stop stop-color="#232323" offset="0.37"/>
<stop stop-color="#0F0F0F" offset="0.91"/>
<stop stop-color="#0C0C0C" offset="1"/>
</linearGradient>
<clipPath id="clip0_67_12926">
<rect fill="white" height="217" width="294" y="4" x="12"/>
</clipPath>
</defs>
</svg>