<svg width="45" height="48" viewBox="0 0 45 48" fill="none" xmlns="http://www.w3.org/2000/svg">
<path d="M39.3919 18.2303C34.4807 13.0317 28.778 7.96104 26.3833 5.30265C24.5872 3.30394 23.3188 1.78765 22.8013 1.15751C22.7607 1.10828 22.7099 1.04923 22.6694 1C22.6288 1.04923 22.578 1.10828 22.5374 1.15751C22.0199 1.78765 20.7413 3.30394 18.9554 5.30265C16.5708 7.96104 10.858 13.0317 5.94676 18.2303C1.03551 23.429 0.639824 28.6177 1.56322 32.9302C2.49676 37.2427 7.13398 41.2894 14.44 40.4033C16.7332 40.1276 18.4075 39.0544 19.6252 37.7252C18.8033 43.8198 15.4039 47 15.4039 47H29.5593C26.9718 44.2038 26.0585 40.226 25.7338 37.7645C26.9515 39.074 28.6156 40.1276 30.8886 40.4033C38.1844 41.2894 42.8319 37.2329 43.7654 32.9302C44.699 28.6177 44.293 23.429 39.3818 18.2303H39.3919Z" fill="url(#paint0_linear_239_4896)" stroke="black" stroke-linecap="round" stroke-linejoin="round"/>
<path d="M35.4752 20.3177C31.7105 16.3399 27.3371 12.4508 25.5106 10.4127C24.1408 8.88658 23.1666 7.72479 22.7607 7.23249C22.7302 7.19311 22.6897 7.15372 22.6592 7.10449C22.6288 7.14388 22.5882 7.18326 22.5578 7.23249C22.162 7.71494 21.1879 8.87674 19.8079 10.4127C17.9814 12.4508 13.6079 16.3399 9.84328 20.3177C6.07866 24.2954 5.77431 28.283 6.48462 31.5814C7.19492 34.8798 10.7566 37.9911 16.3477 37.3117C18.1031 37.0951 19.3919 36.2779 20.3254 35.2637C20.0413 36.8785 19.5542 38.8575 18.6816 41.0138C17.677 43.5146 16.4592 45.5133 15.4039 47H29.5594C28.4635 45.2376 27.266 42.973 26.3122 40.226C25.6932 38.4341 25.2874 36.7702 25.0134 35.2933C25.947 36.2976 27.2255 37.1049 28.9607 37.3117C34.5518 37.9911 38.1135 34.8798 38.8238 31.5814C39.5341 28.283 39.2296 24.2954 35.465 20.3177H35.4752Z" fill="url(#paint1_linear_239_4896)" stroke="black" stroke-linecap="round" stroke-linejoin="round"/>
<path d="M27.0631 21.8145H18.2756C17.3341 21.8145 16.5708 22.555 16.5708 23.4686V30.6265C16.5708 31.54 17.3341 32.2806 18.2756 32.2806H27.0631C28.0046 32.2806 28.7678 31.54 28.7678 30.6265V23.4686C28.7678 22.555 28.0046 21.8145 27.0631 21.8145Z" stroke="black" stroke-miterlimit="10"/>
<path d="M27.4514 21.4656L29.5695 19.6882C30.092 19.2498 29.4929 17.6756 28.2357 16.1774L27.0105 14.7172C25.7533 13.2189 24.3069 12.3554 23.7844 12.7938L21.6663 14.5712" stroke="black" stroke-linecap="round" stroke-linejoin="round"/>
<path d="M22.6693 26.8946C23.3194 26.8946 23.8464 26.3833 23.8464 25.7525C23.8464 25.1217 23.3194 24.6104 22.6693 24.6104C22.0192 24.6104 21.4922 25.1217 21.4922 25.7525C21.4922 26.3833 22.0192 26.8946 22.6693 26.8946Z" fill="black"/>
<path d="M23.8363 30.0652H21.4922L22.1011 26.3828H23.2274L23.8363 30.0652Z" fill="black"/>
<defs>
<linearGradient id="paint0_linear_239_4896" x1="23.0448" y1="57.4465" x2="22.5003" y2="14.4688" gradientUnits="userSpaceOnUse">
<stop offset="0.49" stop-color="#E2D7D2"/>
<stop offset="1" stop-color="#918789"/>
</linearGradient>
<linearGradient id="paint1_linear_239_4896" x1="23.0854" y1="0.113913" x2="22.5409" y2="39.7441" gradientUnits="userSpaceOnUse">
<stop offset="0.46" stop-color="#E2D7D2"/>
<stop offset="0.76" stop-color="#B2A8A7"/>
<stop offset="1" stop-color="#918789"/>
</linearGradient>
</defs>
</svg>
