<svg width="25" height="32" viewBox="0 0 25 32" fill="none" xmlns="http://www.w3.org/2000/svg">
<path d="M23.6458 32H1.35425C0.882613 32 0.5 31.6383 0.5 31.184V0.815984C0.5 0.361725 0.882613 0 1.35425 0H23.6458C24.1174 0 24.5 0.361725 24.5 0.815984V31.184C24.5 31.6383 24.1174 32 23.6458 32Z" fill="url(#paint0_linear_388_1468)"/>
<path d="M22.4264 15.8404L12.6645 6.72998V10.7846H4.43311V20.8877H12.6645V24.9424L22.4264 15.832V15.8404Z" fill="url(#paint1_linear_388_1468)"/>
<path d="M23.6458 32H1.35425C0.882613 32 0.5 31.6383 0.5 31.184V0.815984C0.5 0.361725 0.882613 0 1.35425 0H23.6458C24.1174 0 24.5 0.361725 24.5 0.815984V31.184C24.5 31.6383 24.1174 32 23.6458 32Z" fill="url(#paint2_linear_388_1468)"/>
<path d="M12.2999 9.68262C8.14421 9.78356 4.80713 12.997 4.80713 16.9508C4.80713 20.9045 8.25098 24.2273 12.5046 24.2273C16.7582 24.2273 20.202 20.9718 20.202 16.9508" stroke="url(#paint3_linear_388_1468)" stroke-width="3" stroke-linecap="round" stroke-linejoin="round"/>
<path d="M15.1651 9.68269L11.4453 13.1569V6.2085L15.1651 9.68269Z" fill="url(#paint4_linear_388_1468)"/>
<defs>
<linearGradient id="paint0_linear_388_1468" x1="12.5" y1="0" x2="12.5" y2="32" gradientUnits="userSpaceOnUse">
<stop stop-color="#FFC1C1"/>
<stop offset="1" stop-color="#9C7A7A"/>
</linearGradient>
<linearGradient id="paint1_linear_388_1468" x1="13.4298" y1="6.72998" x2="13.4298" y2="24.9424" gradientUnits="userSpaceOnUse">
<stop stop-color="#381414"/>
<stop offset="1" stop-color="#1D0808"/>
</linearGradient>
<linearGradient id="paint2_linear_388_1468" x1="12.5" y1="0" x2="12.5" y2="32" gradientUnits="userSpaceOnUse">
<stop stop-color="#FFC1C1"/>
<stop offset="1" stop-color="#9C7A7A"/>
</linearGradient>
<linearGradient id="paint3_linear_388_1468" x1="12.5045" y1="9.68262" x2="12.5045" y2="24.2273" gradientUnits="userSpaceOnUse">
<stop stop-color="#381414"/>
<stop offset="1" stop-color="#1D0808"/>
</linearGradient>
<linearGradient id="paint4_linear_388_1468" x1="13.3052" y1="6.2085" x2="13.3052" y2="13.1569" gradientUnits="userSpaceOnUse">
<stop stop-color="#381414"/>
<stop offset="1" stop-color="#1D0808"/>
</linearGradient>
</defs>
</svg>
