<svg width="16" height="16" viewBox="0 0 16 16" fill="none" xmlns="http://www.w3.org/2000/svg">
<path opacity="0.32" d="M12.8902 0H3.11076C1.3918 0 0.000488281 1.39174 0.000488281 3.11125V12.8938C0.000488281 14.6083 1.3918 16 3.11076 16H12.8902C14.6092 16 16.0005 14.6083 16.0005 12.8938V3.11125C16.0005 1.39174 14.6092 0 12.8902 0ZM12.2097 9.12701H9.12966V12.208C9.12966 12.8333 8.62556 13.3375 8.00048 13.3375C7.3754 13.3375 6.87131 12.8333 6.87131 12.208V9.12701H3.7913C3.17126 9.12701 2.66716 8.62275 2.66716 8.00252C2.66716 7.38229 3.17126 6.87299 3.7913 6.87299H6.87131V3.79199C6.87131 3.17176 7.38044 2.66246 8.00048 2.66246C8.62052 2.66246 9.12966 3.17176 9.12966 3.79199V6.87299H12.2097C12.8297 6.87299 13.3338 7.37724 13.3338 8.00252C13.3338 8.6278 12.8297 9.12701 12.2097 9.12701Z" fill="white"/>
</svg>
