<svg width="34" height="34" viewBox="0 0 34 34" fill="none" xmlns="http://www.w3.org/2000/svg">
<path d="M17 33C25.8366 33 33 25.8366 33 17C33 8.16344 25.8366 1 17 1C8.16345 1 1 8.16344 1 17C1 25.8366 8.16345 33 17 33Z" fill="#8E7F83" stroke="black" stroke-width="0.824742" stroke-linecap="round" stroke-linejoin="round"/>
<path d="M17.0002 29.5141C23.9115 29.5141 29.5143 23.9113 29.5143 16.9999C29.5143 10.0886 23.9115 4.48584 17.0002 4.48584C10.0888 4.48584 4.48608 10.0886 4.48608 16.9999C4.48608 23.9113 10.0888 29.5141 17.0002 29.5141Z" stroke="black" stroke-width="0.618557" stroke-linecap="round" stroke-linejoin="round"/>
<path d="M16.9999 9.896L19.2982 14.5695L24.4556 15.3173L20.7277 18.9572L21.6074 24.0926L16.9999 21.6733L12.3813 24.0926L13.261 18.9572L9.5332 15.3173L14.6906 14.5695L16.9999 9.896Z" fill="#B9AEAD" stroke="black" stroke-width="0.824742" stroke-linecap="round" stroke-linejoin="round"/>
<path d="M5.36597 25.3022C6.31167 26.5229 9.32473 30.0528 14.3612 30.9545C16.1316 31.2734 17.6931 31.1854 18.8918 30.9985" stroke="black" stroke-width="0.618557" stroke-linecap="round" stroke-linejoin="round"/>
<path d="M21.1462 3.52881C21.938 3.74874 22.9057 4.11161 23.9504 4.68344C25.4459 5.50818 26.5126 6.48688 27.2164 7.23465" stroke="black" stroke-width="0.618557" stroke-linecap="round" stroke-linejoin="round"/>
</svg>
