<svg width="393" height="73" viewBox="0 0 393 73" fill="none" xmlns="http://www.w3.org/2000/svg">
<g clip-path="url(#clip0_27_13298)">
<path d="M112.889 -0.747561C112.863 -0.688621 112.827 -0.636168 112.783 -0.592212C112.561 -0.19983 112.16 0.159117 111.535 0.481321C111.523 0.487556 111.51 0.493781 111.498 0.5H152.678C152.372 0.319865 152.089 0.106726 151.849 -0.146532C151.063 -0.969432 151.038 -1.89522 151.049 -2.53744C151.05 -2.59725 151.052 -2.65249 151.053 -2.70373C151.058 -2.95392 151.062 -3.10841 151.037 -3.23054C151.029 -3.26779 151.021 -3.28602 151.018 -3.29301C151.014 -3.29509 151.007 -3.29826 150.995 -3.302C150.916 -3.32426 150.784 -3.32014 150.531 -3.22037C150.338 -3.1442 150.135 -3.03871 149.886 -2.90967C149.797 -2.86359 149.702 -2.81451 149.6 -2.76268C148.858 -2.38564 147.877 -1.94776 146.616 -2.01776C146.025 -2.04927 145.393 -2.19294 144.858 -2.43175C144.341 -2.66248 143.822 -3.02381 143.596 -3.5488L143.596 -3.5497C143.333 -4.16338 143.59 -4.71219 143.831 -5.04515C144.055 -5.35508 144.335 -5.57833 144.418 -5.64445C144.425 -5.65021 144.431 -5.65479 144.435 -5.65812L144.435 -5.65815L144.44 -5.66245C145.054 -6.15235 145.959 -6.46028 147.679 -6.64501L147.68 -6.64514C150.563 -6.94768 152.914 -6.58771 153.29 -6.52784L153.29 -6.5278C156.05 -6.08637 157.717 -5.67558 159.115 -5.31298C159.245 -5.2791 159.373 -5.24572 159.499 -5.21282C160.718 -4.89486 161.761 -4.62295 163.261 -4.4002L163.262 -4.40015C164.717 -4.18297 166.124 -4.08366 167.386 -4.05771C166.516 -4.19123 165.573 -4.37084 164.585 -4.61539L164.584 -4.6155C162.848 -5.04672 161.916 -5.44694 160.799 -5.96795C160.68 -6.02331 160.56 -6.08003 160.436 -6.13833C159.411 -6.61979 158.158 -7.20856 155.964 -8.02387L155.963 -8.02417C151.681 -9.62376 149.616 -10.3756 146.962 -10.4856C142.552 -10.662 139.065 -9.1701 137.651 -8.56523L137.634 -8.55762C137.633 -8.55742 137.633 -8.55722 137.632 -8.55702C136.904 -8.24005 136.135 -7.73771 135.1 -6.95184C134.393 -6.41551 133.579 -5.76064 132.583 -4.95846C132.116 -4.58287 131.609 -4.175 131.054 -3.73188C131.008 -3.69455 130.962 -3.65752 130.916 -3.62081C129.617 -2.57574 128.63 -1.78185 126.819 -1.36937L126.818 -1.36916C125.761 -1.13043 124.529 -1.04457 123.479 -1.12059C122.955 -1.15859 122.458 -1.23824 122.043 -1.36867C121.648 -1.49276 121.246 -1.68762 121.006 -2.01349C120.725 -2.38613 120.712 -2.86039 120.84 -3.23957C120.971 -3.62603 121.275 -3.99561 121.737 -4.14298C121.909 -4.1976 122.092 -4.2146 122.203 -4.22489C122.225 -4.22691 122.244 -4.22868 122.26 -4.23042C122.379 -4.24368 122.424 -4.25924 122.459 -4.28169C122.476 -4.29246 122.483 -4.30054 122.485 -4.30352C122.488 -4.30708 122.49 -4.31076 122.491 -4.31535C122.492 -4.31642 122.492 -4.31753 122.492 -4.31866C122.492 -4.31891 122.493 -4.31916 122.493 -4.31941C122.491 -4.32109 122.49 -4.32295 122.488 -4.32499C122.466 -4.35282 122.425 -4.38993 122.363 -4.43045C122.25 -4.50434 122.131 -4.54881 122.114 -4.55537C122.113 -4.55568 122.112 -4.55591 122.112 -4.55605L122.112 -4.55599L122.102 -4.55939C121.84 -4.64912 121.526 -4.6514 121.227 -4.61094C120.934 -4.57133 120.695 -4.49658 120.596 -4.46502L120.594 -4.46459C119.846 -4.22838 119.562 -3.85176 119.308 -3.46796C119.286 -3.43441 119.263 -3.39912 119.24 -3.36258C118.995 -2.98094 118.661 -2.46168 117.898 -2.34178L117.894 -2.34118C117.454 -2.27595 117.044 -2.3662 116.679 -2.50092C116.356 -2.6199 116.036 -2.78704 115.746 -2.93832C115.714 -2.95521 115.682 -2.9719 115.651 -2.9883C114.976 -3.3395 114.456 -3.56911 113.921 -3.46108L113.921 -3.461C113.704 -3.4174 113.586 -3.33415 113.416 -3.21459L113.398 -3.20244C113.398 -3.20215 113.398 -3.20187 113.397 -3.20158C113.203 -3.06264 113.115 -2.93111 113.07 -2.81269C113.02 -2.68427 113.003 -2.53255 113.008 -2.3285C113.01 -2.23172 113.017 -2.13322 113.025 -2.02161L113.026 -2.00175C113.034 -1.88628 113.042 -1.75689 113.044 -1.62563C113.047 -1.36227 113.022 -1.05552 112.889 -0.747561ZM151.022 -3.29033C151.022 -3.29034 151.021 -3.29081 151.02 -3.29167C151.021 -3.29075 151.022 -3.29033 151.022 -3.29033Z" fill="url(#paint0_linear_27_13298)" stroke="url(#paint1_linear_27_13298)" stroke-linecap="round" stroke-linejoin="round"/>
<path d="M279.111 -0.747561C279.137 -0.688621 279.173 -0.636168 279.217 -0.592212C279.439 -0.19983 279.84 0.159117 280.465 0.481321C280.477 0.487556 280.49 0.493781 280.502 0.5H239.322C239.628 0.319865 239.911 0.106726 240.151 -0.146532C240.937 -0.969432 240.962 -1.89522 240.951 -2.53744C240.95 -2.59725 240.948 -2.65249 240.947 -2.70373C240.942 -2.95392 240.938 -3.10841 240.963 -3.23054C240.971 -3.26779 240.979 -3.28602 240.982 -3.29301C240.986 -3.29509 240.993 -3.29826 241.005 -3.302C241.084 -3.32426 241.216 -3.32014 241.469 -3.22037C241.662 -3.1442 241.865 -3.03871 242.114 -2.90967C242.203 -2.86359 242.298 -2.81451 242.4 -2.76268C243.142 -2.38564 244.123 -1.94776 245.384 -2.01776C245.975 -2.04927 246.607 -2.19294 247.142 -2.43175C247.659 -2.66248 248.178 -3.02381 248.404 -3.5488L248.404 -3.5497C248.667 -4.16338 248.41 -4.71219 248.169 -5.04515C247.945 -5.35508 247.665 -5.57833 247.582 -5.64445C247.575 -5.65021 247.569 -5.65479 247.565 -5.65812L247.565 -5.65815L247.56 -5.66245C246.946 -6.15235 246.041 -6.46028 244.321 -6.64501L244.32 -6.64514C241.437 -6.94768 239.086 -6.58771 238.71 -6.52784L238.71 -6.5278C235.95 -6.08637 234.283 -5.67558 232.885 -5.31298C232.755 -5.2791 232.627 -5.24572 232.501 -5.21282C231.282 -4.89486 230.239 -4.62295 228.739 -4.4002L228.738 -4.40015C227.283 -4.18297 225.876 -4.08366 224.614 -4.05771C225.484 -4.19123 226.427 -4.37084 227.415 -4.61539L227.416 -4.6155C229.152 -5.04672 230.084 -5.44694 231.201 -5.96795C231.32 -6.02331 231.44 -6.08003 231.564 -6.13833C232.589 -6.61979 233.842 -7.20856 236.036 -8.02387L236.037 -8.02417C240.319 -9.62376 242.384 -10.3756 245.038 -10.4856C249.448 -10.662 252.935 -9.1701 254.349 -8.56523L254.366 -8.55762C254.367 -8.55742 254.367 -8.55722 254.368 -8.55702C255.096 -8.24005 255.865 -7.73771 256.9 -6.95184C257.607 -6.41551 258.421 -5.76064 259.417 -4.95846C259.884 -4.58287 260.391 -4.175 260.946 -3.73188C260.992 -3.69455 261.038 -3.65752 261.084 -3.62081C262.383 -2.57574 263.37 -1.78185 265.181 -1.36937L265.182 -1.36916C266.239 -1.13043 267.471 -1.04457 268.521 -1.12059C269.045 -1.15859 269.542 -1.23824 269.957 -1.36867C270.352 -1.49276 270.754 -1.68762 270.994 -2.01349C271.275 -2.38613 271.288 -2.86039 271.16 -3.23957C271.029 -3.62603 270.725 -3.99561 270.263 -4.14298C270.091 -4.1976 269.908 -4.2146 269.797 -4.22489C269.775 -4.22691 269.756 -4.22868 269.74 -4.23042C269.621 -4.24368 269.576 -4.25924 269.541 -4.28169C269.524 -4.29246 269.517 -4.30054 269.515 -4.30352C269.512 -4.30708 269.51 -4.31076 269.509 -4.31535C269.508 -4.31642 269.508 -4.31753 269.508 -4.31866C269.508 -4.31891 269.507 -4.31916 269.507 -4.31941C269.509 -4.32109 269.51 -4.32295 269.512 -4.32499C269.534 -4.35282 269.575 -4.38993 269.637 -4.43045C269.75 -4.50434 269.869 -4.54881 269.886 -4.55537C269.887 -4.55568 269.888 -4.55591 269.888 -4.55605L269.888 -4.55599L269.898 -4.55939C270.16 -4.64912 270.474 -4.6514 270.773 -4.61094C271.066 -4.57133 271.305 -4.49658 271.404 -4.46502L271.406 -4.46459C272.154 -4.22838 272.438 -3.85176 272.692 -3.46796C272.714 -3.43441 272.737 -3.39912 272.76 -3.36258C273.005 -2.98094 273.339 -2.46168 274.102 -2.34178L274.106 -2.34118C274.546 -2.27595 274.956 -2.3662 275.321 -2.50092C275.644 -2.6199 275.964 -2.78704 276.254 -2.93832C276.286 -2.95521 276.318 -2.9719 276.349 -2.9883C277.024 -3.3395 277.544 -3.56911 278.079 -3.46108L278.079 -3.461C278.296 -3.4174 278.414 -3.33415 278.584 -3.21459L278.602 -3.20244C278.602 -3.20215 278.602 -3.20187 278.603 -3.20158C278.797 -3.06264 278.885 -2.93111 278.93 -2.81269C278.98 -2.68427 278.997 -2.53255 278.992 -2.3285C278.99 -2.23172 278.983 -2.13322 278.975 -2.02161L278.974 -2.00175C278.966 -1.88628 278.958 -1.75689 278.956 -1.62563C278.953 -1.36227 278.978 -1.05552 279.111 -0.747561ZM240.978 -3.29033C240.978 -3.29034 240.979 -3.29081 240.98 -3.29167C240.979 -3.29075 240.978 -3.29033 240.978 -3.29033Z" fill="url(#paint2_linear_27_13298)" stroke="url(#paint3_linear_27_13298)" stroke-linecap="round" stroke-linejoin="round"/>
<path d="M378.624 -0.129395H286.312C285.944 -0.129395 285.576 -0.129378 285.208 -0.11275C284.841 -0.11275 284.473 -0.129395 284.105 -0.129395H13.3756C-2.85249 -0.129395 -16 4.45987 -16 10.13V62.7573C-16 68.4108 -2.85249 73 13.3756 73H284.105C284.473 73 284.841 73 285.208 72.9834C285.576 72.9834 285.944 73 286.312 73H378.624C394.852 73 408 68.4108 408 62.7573V10.13C408 4.45987 394.852 -0.129395 378.624 -0.129395Z" fill="url(#paint4_linear_27_13298)"/>
<path d="M386 -79.0351L386 153.409C386 153.74 385.714 154 385.349 154L78.15 154L6.87081 154C6.50648 154 6.22021 153.74 6.22021 153.409L6.22017 -79.0351C6.22017 -79.3661 6.50643 -79.6262 6.87076 -79.6262L385.349 -79.6262C385.713 -79.6262 386 -79.3661 386 -79.0351ZM384.699 152.818L384.699 -78.444L7.52136 -78.444L7.52141 152.818L267.383 152.818L384.699 152.818Z" fill="#DFD4CF" fill-opacity="0.05"/>
<path d="M195.154 125.193C248.568 125.193 292.015 85.7212 292.015 37.1944C292.015 -11.3324 248.568 -50.804 195.154 -50.804C141.74 -50.804 98.2928 -11.3324 98.2929 37.1944C98.2929 85.7212 141.74 125.193 195.154 125.193ZM195.154 -48.4397C247.123 -48.4397 289.412 -10.0203 289.412 37.1944C289.412 84.409 247.124 122.829 195.154 122.829C143.184 122.829 100.895 84.409 100.895 37.1944C100.895 -10.0203 143.184 -48.4397 195.154 -48.4397Z" fill="#DFD4CF" fill-opacity="0.05"/>
<path d="M105.033 37.2052C105.033 43.045 109.444 49.7596 115.339 49.9842C117.421 50.067 119.581 49.2867 121.597 47.7381C122.755 47.3008 125.566 46.5087 128.637 47.5726C130.393 48.1873 131.864 49.263 132.983 50.7762C133.907 54.429 135.221 57.9518 136.873 61.3209L114.896 67.7045C114.467 67.8345 114.116 68.0946 113.907 68.4611C113.699 68.8275 113.66 69.2413 113.803 69.6196C113.946 70.0215 114.272 70.3643 114.701 70.5417C115.13 70.719 115.625 70.7308 116.054 70.5653L137.42 62.4439C138.812 65.1155 140.426 67.6808 142.234 70.1278L121.623 80.8735C121.233 81.0745 120.947 81.4055 120.83 81.7956C120.713 82.1857 120.765 82.5995 120.999 82.9541C121.233 83.3206 121.623 83.5925 122.092 83.687C122.56 83.7816 123.042 83.687 123.419 83.4505L142.924 71.1209C142.924 71.1209 142.937 71.0972 142.95 71.0854C144.824 73.497 146.893 75.7785 149.144 77.8945C149.066 77.9182 148.988 77.9536 148.923 78.0127L131.252 92.4466C130.914 92.7185 130.719 93.0968 130.693 93.5105C130.667 93.9125 130.823 94.3145 131.122 94.61C131.435 94.9292 131.89 95.1182 132.358 95.1182C132.827 95.1182 133.282 94.941 133.607 94.6337L149.833 78.8638C149.833 78.8638 149.938 78.7457 149.964 78.6748C152.254 80.7553 154.713 82.6822 157.315 84.4436C157.315 84.4436 157.289 84.4553 157.276 84.4671L143.327 101.951C142.781 102.637 142.95 103.594 143.705 104.091C144.082 104.339 144.564 104.434 145.032 104.351C145.5 104.268 145.904 104.008 146.138 103.642L158.343 85.141C160.985 86.8433 163.782 88.3564 166.697 89.6923L157.354 108.938C157.172 109.316 157.159 109.73 157.328 110.108C157.497 110.486 157.81 110.793 158.213 110.959C158.642 111.136 159.137 111.136 159.566 110.959C159.996 110.782 160.334 110.451 160.49 110.049L167.92 90.2478C171.927 91.9737 176.17 93.3332 180.568 94.2671C182.012 95.2483 183.066 96.4895 183.677 97.9436C184.914 100.887 183.899 103.5 183.495 104.339C181.791 106.183 180.919 108.145 181.023 110.037C181.283 115.404 188.674 119.399 195.102 119.399C201.53 119.399 208.908 115.392 209.168 110.037C209.246 108.145 208.4 106.171 206.695 104.339C206.214 103.299 205.342 100.745 206.513 97.9436C207.125 96.4777 208.179 95.2483 209.623 94.2671C213.969 93.3451 218.146 92.0093 222.102 90.3188L229.61 110.321C229.766 110.722 230.091 111.053 230.533 111.231C230.963 111.408 231.457 111.408 231.887 111.231C232.511 110.983 232.889 110.415 232.889 109.824C232.889 109.623 232.837 109.41 232.745 109.209L223.312 89.7868C226.239 88.4746 229.037 86.9615 231.678 85.2592C231.691 85.3065 231.704 85.3538 231.73 85.4011L243.949 103.913C244.183 104.28 244.599 104.54 245.055 104.623C245.523 104.705 246.005 104.623 246.382 104.363C246.746 104.126 246.981 103.772 247.059 103.37C247.072 103.287 247.085 103.204 247.085 103.121C247.085 102.802 246.981 102.495 246.759 102.223L232.811 84.7392C232.811 84.7392 232.707 84.6328 232.642 84.5973C235.283 82.8359 237.781 80.8972 240.097 78.8048C240.11 78.923 240.162 79.0413 240.253 79.1358L256.479 94.9055C256.805 95.2247 257.26 95.3902 257.728 95.3902C258.197 95.3902 258.652 95.201 258.965 94.8819C259.238 94.5981 259.394 94.2435 259.394 93.8652C259.394 93.8416 259.394 93.806 259.394 93.7824C259.368 93.3687 259.173 93.0023 258.834 92.7304L241.164 78.2964C241.06 78.2137 240.917 78.1664 240.787 78.1546C243.064 76.0267 245.172 73.7333 247.072 71.3099C247.098 71.3336 247.124 71.3691 247.163 71.3928L266.668 83.7224C267.058 83.9706 267.54 84.0535 268.008 83.9589C268.476 83.8643 268.867 83.5924 269.101 83.226C269.257 82.9896 269.322 82.7295 269.322 82.4694C269.322 81.9374 269.023 81.4173 268.476 81.1336L247.865 70.388C247.865 70.388 247.813 70.3761 247.8 70.3643C249.622 67.9291 251.261 65.3757 252.667 62.7041L274.058 70.8372C274.488 71.0027 274.982 70.9908 275.412 70.8135C275.841 70.6362 276.166 70.2933 276.309 69.8914C276.361 69.7377 276.388 69.584 276.388 69.4185C276.388 69.1821 276.323 68.9457 276.206 68.7211C275.997 68.3547 275.646 68.0946 275.217 67.9645L253.226 61.5809C254.944 58.1409 256.297 54.5237 257.247 50.7645C258.366 49.2514 259.823 48.1755 261.593 47.5608C264.651 46.4969 267.461 47.2889 268.619 47.7263C270.649 49.2749 272.809 50.0552 274.891 49.9724C280.799 49.736 285.197 43.0213 285.197 37.1816C285.197 31.3418 280.786 24.6392 274.891 24.4027C272.809 24.32 270.649 25.1002 268.619 26.6488C267.461 27.0862 264.664 27.8783 261.593 26.8143C258.939 25.8923 257.429 24.06 256.635 22.6768C255.738 19.6742 254.566 16.7779 253.174 13.988L275.204 7.59274C275.633 7.46271 275.984 7.20262 276.192 6.83616C276.323 6.61155 276.387 6.37517 276.387 6.13873C276.387 5.98506 276.361 5.83136 276.309 5.67768C276.166 5.27576 275.841 4.9329 275.412 4.75558C274.982 4.57826 274.488 4.56641 274.058 4.73192L252.628 12.8769C251.222 10.2052 249.609 7.62819 247.787 5.2048C247.813 5.2048 247.839 5.19295 247.865 5.18114L268.476 -5.56447C269.023 -5.84818 269.322 -6.36833 269.322 -6.90029C269.322 -7.16036 269.244 -7.42045 269.101 -7.65688C268.866 -8.02335 268.476 -8.29523 268.008 -8.3898C267.539 -8.48438 267.058 -8.38985 266.681 -8.15343L247.176 4.17635C247.176 4.17635 247.098 4.24723 247.058 4.2827C245.159 1.84749 243.051 -0.445786 240.761 -2.58546C240.904 -2.58546 241.06 -2.63274 241.177 -2.72731L258.847 -17.1613C259.186 -17.4332 259.381 -17.8115 259.407 -18.2134C259.407 -18.2371 259.407 -18.2725 259.407 -18.2961C259.407 -18.6744 259.251 -19.029 258.978 -19.3128C258.665 -19.6319 258.21 -19.8211 257.741 -19.8211C257.273 -19.8211 256.817 -19.6438 256.492 -19.3364L240.266 -3.56673C240.162 -3.46034 240.11 -3.34206 240.097 -3.21203C237.768 -5.31623 235.257 -7.24315 232.589 -9.00453C232.667 -9.03999 232.745 -9.09912 232.797 -9.17006L246.733 -26.6539C246.941 -26.914 247.058 -27.233 247.058 -27.5522C247.058 -27.635 247.058 -27.7178 247.032 -27.8006C246.967 -28.2025 246.72 -28.5571 246.356 -28.7935C245.978 -29.0418 245.497 -29.1363 245.029 -29.0536C244.56 -28.9708 244.157 -28.7108 243.923 -28.3443L231.704 -9.83197C231.665 -9.77287 231.639 -9.70203 231.626 -9.6311C228.972 -11.3216 226.187 -12.8465 223.26 -14.1586L232.719 -33.6284C232.81 -33.8294 232.863 -34.0422 232.863 -34.2432C232.863 -34.8342 232.485 -35.3899 231.861 -35.65C231.431 -35.8273 230.937 -35.8273 230.507 -35.65C230.078 -35.4727 229.74 -35.1417 229.583 -34.7397L222.05 -14.667C218.562 -16.1447 214.906 -17.374 211.107 -18.2725C210.027 -18.8635 207.58 -20.4831 206.5 -23.5212C205.459 -26.4057 206.253 -28.9235 206.695 -29.952C208.4 -31.7961 209.233 -33.7586 209.155 -35.65C208.895 -40.8987 201.543 -44.7997 195.089 -45.0125C193.683 -45.0597 188.791 -44.9652 184.848 -41.7971C183.547 -40.7568 181.14 -38.8063 180.997 -35.65C180.88 -32.8483 182.597 -30.7795 183.456 -29.9402C183.886 -28.8999 184.679 -26.3938 183.651 -23.5212C182.558 -20.4831 180.112 -18.8635 179.032 -18.2725C175.115 -17.3504 171.355 -16.0856 167.764 -14.537L160.282 -34.4797C160.126 -34.8816 159.8 -35.2125 159.358 -35.3898C158.929 -35.5671 158.434 -35.5553 158.005 -35.3898C157.588 -35.2243 157.276 -34.9288 157.12 -34.5387C156.964 -34.1604 156.964 -33.7467 157.146 -33.3684L166.554 -14.005C163.626 -12.6691 160.841 -11.1324 158.2 -9.43008C158.187 -9.47737 158.187 -9.52466 158.161 -9.57195L145.943 -28.0843C145.708 -28.4507 145.292 -28.7108 144.836 -28.7935C144.368 -28.8763 143.887 -28.7936 143.51 -28.5335C142.755 -28.037 142.586 -27.0794 143.132 -26.3938L157.081 -8.91002C157.081 -8.91002 157.172 -8.82715 157.224 -8.79169C154.583 -7.01848 152.097 -5.06802 149.794 -2.95199C149.794 -3.08202 149.729 -3.21212 149.625 -3.30669L133.399 -19.0764C133.074 -19.3956 132.618 -19.5729 132.15 -19.5611C131.681 -19.5611 131.226 -19.3719 130.914 -19.0527C130.615 -18.7454 130.459 -18.3552 130.485 -17.9533C130.511 -17.5395 130.706 -17.1732 131.044 -16.8895L148.714 -2.45544C148.831 -2.36087 148.987 -2.31359 149.131 -2.31359C146.853 -0.162094 144.758 2.14304 142.872 4.59006C142.833 4.53096 142.781 4.47185 142.716 4.43638L123.211 -7.89339C122.82 -8.14164 122.339 -8.22433 121.871 -8.12976C121.402 -8.03519 121.012 -7.76331 120.777 -7.39684C120.556 -7.0422 120.491 -6.62848 120.608 -6.23837C120.726 -5.84827 121.012 -5.51723 121.402 -5.31627L142.013 5.42934C142.013 5.42934 142.117 5.46485 142.169 5.47667C140.361 7.91187 138.786 10.5008 137.394 13.1842L115.833 4.99195C115.404 4.82645 114.909 4.83829 114.48 5.01562C114.05 5.19294 113.725 5.5358 113.582 5.93772C113.452 6.32783 113.478 6.74156 113.686 7.10802C113.894 7.47449 114.246 7.73458 114.675 7.86462L136.834 14.2954C135.52 16.9907 134.388 19.7924 133.529 22.6887C132.736 24.0718 131.239 25.8923 128.585 26.8262C125.514 27.8901 122.703 27.098 121.545 26.6607C119.528 25.1121 117.368 24.3318 115.286 24.4146C109.379 24.6392 104.981 31.3537 104.981 37.2052L105.033 37.2052ZM115.391 25.5849C117.629 25.5021 119.58 26.6369 120.817 27.6063C120.869 27.6417 120.921 27.6773 120.986 27.7009C122.222 28.1856 125.501 29.1667 129.092 27.9255C132.163 26.8497 133.867 24.7573 134.752 23.1851C134.765 23.1496 134.791 23.126 134.791 23.0906C134.791 23.0669 134.804 23.0432 134.817 23.0196C140.634 3.33696 157.758 -12.0545 179.501 -17.1377C179.553 -17.1495 179.617 -17.1732 179.67 -17.1968C180.841 -17.8234 183.69 -19.6437 184.952 -23.1429C186.15 -26.4765 185.174 -29.3728 184.692 -30.4604C184.666 -30.5313 184.614 -30.5905 184.562 -30.6496C183.872 -31.3234 182.246 -33.1083 182.376 -35.579C182.493 -38.2388 184.562 -39.8938 185.798 -40.8868C189.377 -43.7712 193.84 -43.8539 195.128 -43.8066C200.996 -43.6057 207.723 -40.0475 207.931 -35.579C208.036 -33.5575 206.773 -31.7608 205.706 -30.6259C205.654 -30.5786 205.629 -30.5195 205.603 -30.4604C205.121 -29.3728 204.145 -26.4765 205.342 -23.1429C206.591 -19.6556 209.441 -17.8234 210.599 -17.1968C210.651 -17.1732 210.703 -17.1495 210.768 -17.1377C232.498 -12.0545 249.635 3.33696 255.464 23.0196C255.464 23.0196 255.477 23.0669 255.49 23.0906C255.49 23.1142 255.516 23.1496 255.529 23.1733C256.414 24.7455 258.132 26.8379 261.19 27.9137C264.781 29.1667 268.047 28.1738 269.283 27.6891C269.348 27.6655 269.4 27.6299 269.452 27.5944C270.701 26.6251 272.666 25.4903 274.904 25.573C280.005 25.774 283.961 31.9803 283.961 37.1699C283.961 42.3713 280.005 48.5775 274.904 48.7784C272.666 48.873 270.701 47.7264 269.452 46.757C269.4 46.7216 269.348 46.686 269.283 46.6624C268.047 46.1777 264.781 45.1966 261.19 46.4378C259.134 47.1471 257.429 48.4119 256.154 50.1969C256.102 50.2679 256.076 50.3507 256.063 50.4335C250.793 71.4637 232.459 88.2027 209.324 93.085C209.22 93.0968 209.116 93.1322 209.025 93.1913C207.307 94.3262 206.071 95.7684 205.342 97.4825C203.989 100.769 205.056 103.724 205.577 104.847C205.603 104.906 205.641 104.954 205.681 105.001C206.748 106.136 207.997 107.921 207.906 109.954C207.685 114.588 200.853 118.182 195.141 118.182C189.416 118.182 182.584 114.588 182.35 109.954C182.298 107.933 183.508 106.136 184.575 105.001C184.614 104.954 184.653 104.906 184.679 104.859C185.109 104.008 186.384 100.946 184.927 97.4825C184.198 95.7684 182.962 94.3262 181.244 93.1913C181.166 93.1441 181.062 93.1086 180.971 93.085C157.836 88.2027 139.489 71.4518 134.245 50.5161C134.245 50.3979 134.206 50.2915 134.141 50.1969C132.853 48.4237 131.161 47.1589 129.105 46.4378C125.514 45.1848 122.235 46.1777 120.999 46.6624C120.934 46.686 120.882 46.7216 120.83 46.757C119.58 47.7264 117.629 48.8612 115.404 48.7784C110.303 48.5775 106.347 42.383 106.347 37.1816C106.347 31.9802 110.303 25.774 115.404 25.573L115.391 25.5849Z" fill="#DFD4CF" fill-opacity="0.05"/>
<path d="M149.169 37.751C148.752 41.4275 149.208 45.1866 150.496 48.6148C151.42 51.0973 153.358 56.2751 159.149 59.8451C163.391 62.4576 167.828 63.0724 170.977 63.096C172.07 64.6564 172.85 66.2405 173.579 67.7182C175.062 70.7327 176.377 73.3334 179.695 74.4092C180.801 77.3172 182.518 79.3978 184.822 80.5917C186.708 81.5729 188.296 81.6082 190.482 81.6555C191.77 81.6792 193.214 81.7148 195.14 81.9394C198.341 82.3058 199.824 82.8613 201.021 83.3106C202.205 83.7479 203.22 84.1263 205.146 84.1145C210.923 84.0672 218.249 80.6625 220.435 74.4208C220.904 73.0969 221.086 71.8202 221.086 70.6026C221.086 67.8364 220.123 65.4839 219.316 63.9589C219.732 63.8762 220.123 63.7935 220.474 63.7107C223.545 63.0606 224.794 62.8005 226.316 61.9257C230.819 61.2046 234.657 59.4314 237.39 56.8071C240.578 53.7572 241.358 50.0215 242.789 43.236C243.987 37.5854 244.832 33.5544 244.832 30.0434C244.832 27.4782 244.377 25.1848 243.284 22.7378C241.879 19.6287 239.68 16.8272 236.726 14.4156C236.362 13.3517 235.828 12.3705 235.021 11.4484C231.521 7.47642 225.276 7.38181 222.426 7.57096C221.567 4.15457 219.98 1.19914 217.664 -1.23607C211.301 -7.91515 200.722 -9.39283 193.605 -8.62444C188.374 -8.06883 184.47 -6.35472 183.156 -4.03774C183.026 -3.81313 182.883 -3.50576 182.713 -3.1393C182.076 -1.75619 181.1 0.33625 179.044 1.35289C178.315 1.71935 177.574 1.89663 177.574 1.89663C176.507 2.14488 175.804 2.02664 174.906 1.87296C174.269 1.76657 173.54 1.63662 172.629 1.66026C171.9 1.67208 169.363 1.84936 167.542 3.38614C165.46 5.1357 165.355 7.72468 165.46 9.09596C164.38 9.56882 163.3 10.1599 162.233 10.8692C157.145 14.2974 155.115 18.9195 154.321 21.6148C152.799 22.3713 148.726 24.7829 147.646 29.5587C146.787 33.3179 148.297 36.3797 149.156 37.7392L149.169 37.751ZM175.375 66.9971C173.865 63.9354 171.992 60.1289 167.411 56.9253C166.462 56.2633 165.577 55.7431 164.718 55.2466C162.883 54.1827 161.283 53.2606 159.552 51.1446C158.745 50.1516 157.249 48.0356 156.364 45.0802C155.805 43.2124 154.777 39.7487 156.325 36.025C156.859 34.7483 157.574 33.0106 159.604 31.8521C161.022 31.0483 162.506 30.859 163.625 30.859C163.3 32.5731 163.222 35.0202 164.965 37.219C166.787 39.5005 169.506 40.2216 171.159 40.4343C170.534 44.1226 170.703 47.0544 172.512 50.1043C173.553 51.842 174.893 53.2134 176.325 54.2891C176.559 56.0505 176.923 57.8118 177.47 59.5023C178.966 64.1599 181.712 69.1131 185.316 72.6831C183.637 73.1442 182.102 73.227 180.749 72.8723C177.925 72.1394 176.858 69.9879 175.388 66.9971L175.375 66.9971ZM195.335 1.5656C195.569 1.44738 195.738 1.23461 195.803 0.986359C196.038 0.0170058 196.597 -1.30688 197.924 -2.14619C199.056 -2.86729 200.279 -2.92647 200.813 -2.95011C204.17 -3.09196 211.795 -0.5504 219.004 7.06258C223.311 11.6138 226.16 14.6283 226.382 19.1795C226.486 21.4019 225.939 23.447 225.184 25.2084C221.411 23.7189 218.379 21.8511 216.167 19.6169C215.66 18.7539 214.983 17.8792 214.046 16.9807C213.448 16.0587 212.979 15.1131 212.485 14.1201C211.248 11.6494 209.96 9.08405 206.733 6.93256C204.456 5.40759 202.309 4.84017 201.281 4.56828C194.06 2.62957 186.955 5.15938 182.934 7.10991C183.481 5.58495 184.678 3.48071 187.242 2.204C190.442 0.619934 193.644 1.3647 194.554 1.6366C194.815 1.71934 195.101 1.68381 195.335 1.5656ZM199.447 53.8162C199.447 53.8162 199.434 53.8162 199.421 53.8162C199.356 53.8162 199.291 53.8162 199.226 53.8162C199.16 53.8162 199.096 53.8162 199.03 53.8162C199.03 53.8162 199.017 53.8162 199.004 53.8162C198.952 53.8281 198.9 53.8634 198.861 53.8753C198.809 53.8989 198.757 53.899 198.705 53.9344C197.209 54.8329 191.822 57.6581 185.056 56.2514C183.273 55.8849 177.235 54.2891 174.217 49.2414C173.189 47.5154 172.759 45.8131 172.759 43.8862C172.759 42.6568 172.928 41.3328 173.228 39.8551C173.228 39.8078 173.254 39.7724 173.254 39.7251C173.592 38.0228 174.087 36.1197 174.659 33.9091C176.429 27.0881 177.704 22.1585 182.258 19.9124C185.693 18.2101 190.143 18.3638 191.822 18.4229C192.407 18.4466 193.006 18.494 193.592 18.5531C191.614 19.1323 189.74 19.9361 188.1 21C181.243 25.4212 177.704 33.6962 179.682 40.6709C180.046 41.9712 181.178 45.9432 185.225 48.4848C189.18 50.9791 195.4 51.7711 198.77 49.3004C199.603 50.0451 200.787 50.8254 202.349 51.2628C205.797 52.244 208.802 50.9673 210.338 50.0925C210.26 50.2107 210.182 50.3408 210.091 50.459C209.089 51.8539 208.282 52.3976 208.022 52.5749C205.146 54.5373 201.412 54.1827 199.447 53.8044L199.447 53.8162ZM184.626 58.0011C186.175 58.3202 187.658 58.4384 189.05 58.4148C189.337 59.9634 190.052 61.9612 191.757 63.7462C194.476 66.5834 198.08 67.1626 199.824 67.4463C202.83 67.931 204.548 67.4936 209.115 66.3587C210.715 65.9568 212.693 65.4603 215.23 64.881C215.725 64.7628 216.193 64.6682 216.636 64.5618C216.232 66.0986 215.516 67.3517 214.462 68.2856C213.513 69.1249 212.771 69.3022 211.548 69.5978C210.442 69.8697 209.05 70.2007 207.111 71.1464C205.289 72.033 204.209 72.8605 203.246 73.5934C202.062 74.4918 201.204 75.142 199.382 75.603C199.174 75.6503 197.261 76.1114 195.257 75.9459C187.359 75.2957 181.425 65.4722 179.356 59.0295C179.018 57.9538 178.758 56.8543 178.55 55.7431C181.113 57.1617 183.572 57.8 184.652 58.0127L184.626 58.0011ZM211.6 17.2999C211.925 17.56 212.224 17.832 212.511 18.092C213.083 18.9668 213.76 19.7943 214.515 20.5745C215.36 22.0403 215.686 23.5889 215.425 25.1494C214.983 27.8328 212.979 30.1262 210.117 31.3438C210.091 31.2728 210.065 31.2018 210.039 31.1309C208.074 26.6033 202.83 23.6243 197.287 23.9081C189.87 24.2745 186.357 30.4335 186.318 30.4927C184.132 34.3937 183.689 40.1861 187.918 43.6852C190.781 46.0613 195.01 46.7588 199.03 45.6358C198.848 46.3569 198.536 46.9835 198.081 47.48C195.764 49.9388 189.857 49.265 186.331 47.0426C182.883 44.8675 181.894 41.392 181.569 40.2453C179.786 33.9563 183.013 26.4733 189.232 22.4659C191.822 20.7872 194.984 19.747 198.367 19.4397C198.367 19.4397 198.367 19.4397 198.38 19.4397C198.497 19.4279 198.601 19.3923 198.692 19.3568C198.718 19.345 198.757 19.3213 198.783 19.3095C198.848 19.2741 198.913 19.2268 198.965 19.1795C198.991 19.1559 199.017 19.1205 199.043 19.0968C199.096 19.0377 199.121 18.9786 199.16 18.9076C199.16 18.884 199.186 18.8723 199.199 18.8486C199.199 18.8368 199.199 18.8249 199.199 18.8131C199.199 18.8013 199.212 18.7894 199.212 18.7658C199.486 17.6073 200.123 16.0351 201.607 15.1367C204.613 13.328 209.323 15.5268 211.587 17.3354L211.6 17.2999ZM200.371 43.437C200.371 43.437 200.358 43.437 200.345 43.437C197.014 42.9051 194.177 40.4817 193.605 37.68C193.422 36.7579 193.162 34.4528 194.841 32.8451C195.817 31.9112 197.872 30.8 199.564 31.5448C200.527 31.9703 201.724 33.176 201.386 34.5236C201.151 35.4575 200.241 36.226 199.07 36.486C198.549 36.6043 198.224 37.0771 198.341 37.55C198.471 38.0228 198.991 38.3183 199.512 38.2119C201.398 37.7982 202.882 36.5097 203.285 34.9257C203.832 32.7624 202.218 30.7526 200.423 29.9606C197.964 28.873 195.075 30.0671 193.435 31.6393C191.822 33.1879 191.197 35.5167 191.705 38.011C192.251 40.6709 194.294 42.9996 197.04 44.2763C194.138 44.7137 191.275 44.0517 189.258 42.3849C185.264 39.0749 186.734 33.6962 188.074 31.2964C188.101 31.2491 191.106 25.9886 197.404 25.6813C202.114 25.4448 206.577 27.9628 208.23 31.793C210.052 36.0014 208.373 41.3447 204.717 43.0115C202.908 43.839 201.021 43.5434 200.384 43.4489L200.371 43.437ZM212.003 46.1087C211.327 47.1017 210.416 47.9528 209.375 48.5675C208.152 49.2767 205.693 50.3644 202.934 49.5842C201.672 49.2296 200.735 48.5793 200.071 47.9764C200.605 47.2198 200.943 46.3332 201.086 45.3166C202.205 45.3993 203.884 45.3757 205.589 44.5955C208.92 43.0824 210.923 39.335 210.923 35.4576C210.923 34.6656 210.832 33.8617 210.65 33.0696C214.254 31.6511 216.792 28.7903 217.351 25.4212C217.416 25.0075 217.468 24.5464 217.468 24.0617C217.468 23.7544 217.442 23.4235 217.403 23.0925C219.368 24.5228 221.71 25.7758 224.391 26.8397C223.376 28.6721 222.244 30.0552 221.658 30.7527C219.849 32.9278 218.496 33.708 217.299 34.3936C216.011 35.1384 214.788 35.8358 213.708 37.9282C212.641 39.9851 212.472 41.853 212.316 43.6499C212.238 44.4774 212.173 45.293 212.016 46.1205L212.003 46.1087ZM181.633 9.75789C181.633 9.75789 181.711 9.73421 181.764 9.72239C181.829 9.71056 181.881 9.69884 181.933 9.6752C181.959 9.6752 181.972 9.65152 181.998 9.6397L182.024 9.6397C185.042 7.9256 192.889 4.17826 200.735 6.28246C201.659 6.53072 203.585 7.05074 205.588 8.38657C208.217 10.1361 209.375 12.205 210.481 14.4038C207.67 12.8906 203.715 11.7321 200.553 13.6353C198.9 14.6283 198.041 16.1415 197.586 17.4655C195.725 17.0162 193.826 16.7443 191.913 16.6734C190.091 16.6143 185.238 16.4488 181.347 18.3757C176.025 21.0119 174.594 26.5324 172.785 33.5307C172.291 35.4221 171.848 37.1244 171.51 38.6966C170.248 38.5311 167.984 37.9874 166.566 36.1905C164.731 33.8972 165.525 31.1309 165.902 29.8069C166.761 26.8161 168.973 24.9602 170.222 24.1209C170.547 23.9081 170.677 23.5416 170.586 23.187C170.352 22.3595 169.376 18.0446 172.538 14.1436C175.739 10.1952 180.631 9.80518 181.581 9.76972L181.607 9.76972C181.62 9.76972 181.646 9.76972 181.659 9.76972L181.633 9.75789ZM218.574 73.8889C216.662 79.3386 210.221 82.3176 205.133 82.3531C203.598 82.3531 202.869 82.0929 201.763 81.6792C200.462 81.1945 198.848 80.5916 195.387 80.1897C193.37 79.9533 191.796 79.9178 190.534 79.8942C188.491 79.8469 187.255 79.8233 185.784 79.0549C184.171 78.2156 182.896 76.7971 181.972 74.8465C183.494 74.9411 185.134 74.6692 186.851 74.0663C189.297 76.0759 192.069 77.4353 195.049 77.6836C197.352 77.8727 199.46 77.3881 199.863 77.2817C202.101 76.7261 203.246 75.8513 204.469 74.9292C205.354 74.2554 206.369 73.487 208.009 72.6831C209.752 71.832 210.962 71.5365 212.029 71.2883C213.344 70.9691 214.489 70.6972 215.803 69.5269C216.857 68.593 217.624 67.3871 218.158 65.9922C218.991 67.99 219.628 70.839 218.561 73.8653L218.574 73.8889ZM214.736 63.1552C212.186 63.7462 210.195 64.2427 208.581 64.6447C204.079 65.7677 202.726 66.1104 200.149 65.6967C198.523 65.4366 195.491 64.952 193.227 62.5878C191.874 61.1692 191.275 59.585 191.015 58.3083C194.424 57.9418 197.131 56.8307 198.705 56.0268C199.148 57.0198 199.902 58.0956 201.164 58.8758C204.599 60.9682 209.076 59.0531 210.364 58.4266C211.769 57.7292 212.42 57.0672 213.109 56.3697C213.682 55.7786 214.267 55.1757 215.464 54.3955C217.052 53.367 217.963 53.1542 218.926 52.9296C219.824 52.7287 220.747 52.5158 222.009 51.7002C226.147 49.0758 227.813 44.0636 229.569 38.744L229.738 38.2237C230.142 36.9589 230.506 35.8714 231.469 34.5946C232.289 33.5189 233.356 32.5732 234.618 31.7811C233.824 36.8998 233.85 40.2215 233.876 42.9405C233.903 46.3923 233.928 48.674 232.12 52.3859C231.053 54.561 229.452 57.8473 225.744 60.1762C225.627 60.2471 225.523 60.3062 225.419 60.3653C225.419 60.3653 225.419 60.3653 225.406 60.3653C224.092 61.1337 223.089 61.3465 220.032 61.9967C218.691 62.2804 217 62.635 214.736 63.1552ZM241.475 23.4235C243.869 28.7549 242.868 33.4835 240.877 42.917C239.406 49.8561 238.652 53.0242 235.971 55.6013C234.332 57.1735 232.224 58.4029 229.791 59.2422C231.938 57.0671 233.122 54.691 233.903 53.0952C235.893 49.0286 235.854 46.4634 235.828 42.917C235.802 39.9498 235.763 36.2497 236.856 30.1853L236.973 29.5469C237.324 27.6673 237.728 25.4212 237.728 22.5722C237.728 21.863 237.702 21.1182 237.65 20.338C237.572 19.3686 237.507 18.4466 237.39 17.56C239.146 19.345 240.512 21.3073 241.462 23.4352L241.475 23.4235ZM233.499 12.5714C235.269 14.5928 235.464 17.1699 235.711 20.4445C235.997 24.18 235.477 26.9816 235.06 29.2395L235.021 29.476C232.874 30.54 231.144 31.8994 229.869 33.5662C228.724 35.0793 228.307 36.356 227.878 37.7037L227.709 38.2119C225.978 43.437 224.482 47.9528 220.904 50.2225C219.928 50.849 219.277 50.991 218.444 51.1801C217.403 51.4165 216.219 51.6884 214.333 52.9178C212.966 53.8162 212.264 54.5255 211.652 55.1521C211.014 55.8141 210.546 56.2868 209.44 56.8306C208.386 57.3507 204.782 58.9113 202.257 57.3745C201.555 56.9489 201.086 56.3697 200.761 55.7786C203.155 56.0151 206.447 55.8732 209.206 53.9936C210.104 53.3789 210.936 52.5395 211.743 51.4283C213.851 48.5202 214.059 46.1087 214.267 43.7681C214.424 42.054 214.567 40.4343 215.477 38.6611C216.323 37.0416 217.13 36.5688 218.353 35.8713C219.628 35.1384 221.203 34.2282 223.232 31.793C224.521 30.2326 228.359 25.6223 228.359 19.7352C228.359 19.5224 228.359 19.3096 228.346 19.0968C228.164 15.2667 226.355 12.4177 223.636 9.29684C226.316 9.24955 230.949 9.63966 233.512 12.5595L233.499 12.5714ZM168.882 4.6983C170.196 3.58708 172.135 3.45712 172.694 3.4453C173.384 3.43348 173.956 3.52808 174.555 3.62265C175.544 3.78815 176.585 3.96547 178.068 3.62265C178.107 3.62265 179.057 3.39793 180.007 2.91325C182.648 1.58926 183.832 -0.940422 184.522 -2.45356C184.665 -2.76092 184.782 -3.02102 184.899 -3.22198C185.888 -4.95972 189.402 -6.37824 193.852 -6.86292C200.501 -7.5722 210.351 -6.22457 216.206 -0.0774461C217.559 1.35294 218.613 3.00782 219.433 4.82832C211.535 -2.98563 203.819 -4.86517 200.735 -4.72332C200.097 -4.69968 198.419 -4.62868 196.831 -3.61204C195.387 -2.68996 194.619 -1.41335 194.19 -0.302132C192.511 -0.633133 189.415 -0.893143 186.318 0.643639C182.388 2.59417 181.126 6.02239 180.736 7.76014C178.315 7.24 173.006 6.50694 167.411 8.3629C167.411 7.27533 167.658 5.71492 168.895 4.68646L168.882 4.6983ZM155.596 23.0333C155.857 22.9151 156.052 22.7023 156.117 22.4422C156.755 20.0543 158.55 15.5741 163.404 12.3113C167.997 9.21414 173.085 8.81219 176.663 9.0368C174.763 9.7579 172.642 10.9991 170.938 13.1033C167.737 17.0516 168.192 21.3665 168.531 23.057C167.086 24.1327 165.017 26.1187 164.067 29.1095C162.636 29.0504 160.554 29.216 158.55 30.3626C155.974 31.8285 155.05 34.0744 154.491 35.4103C152.708 39.666 153.905 43.638 154.478 45.5531C155.44 48.7922 157.08 51.121 157.978 52.2085C159.929 54.5846 161.738 55.6367 163.651 56.7479C164.471 57.2208 165.317 57.7172 166.201 58.3319C167.542 59.2658 168.609 60.2588 169.506 61.2755C166.813 61.0863 163.456 60.3771 160.242 58.3911C154.998 55.1639 153.202 50.3644 152.343 48.0592C151.12 44.7729 150.704 41.1791 151.146 37.6682C151.172 37.4672 151.12 37.2663 151.003 37.1008C150.314 36.0841 148.791 33.3533 149.572 29.9488C150.6 25.4448 154.777 23.4116 155.596 23.0451L155.596 23.0333Z" fill="#DFD4CF" fill-opacity="0.05"/>
<path d="M111.839 40.1611C111.839 40.1611 111.839 40.2439 111.839 40.2793C111.878 41.8516 112.802 42.62 113.57 42.9983C114.884 43.6485 116.77 43.5894 118.046 42.8801C119.971 41.8044 120.635 41.2251 121.819 40.173L121.923 40.0785C122.131 39.8893 122.353 39.7002 122.574 39.4992C123.55 38.6363 124.565 37.7378 125.215 37.3595C125.254 37.3595 125.306 37.3241 125.345 37.2886L125.397 37.265L125.397 37.1821L125.397 37.1113L125.358 37.0876C125.358 37.0876 125.267 37.0286 125.228 37.0168C124.578 36.6385 123.563 35.74 122.587 34.877C122.366 34.6879 122.157 34.4869 121.936 34.2978L121.832 34.2033C120.635 33.1512 119.984 32.5837 118.059 31.4961C116.783 30.775 114.897 30.7278 113.583 31.3779C112.815 31.7562 111.891 32.5363 111.852 34.0968C111.852 34.1322 111.852 34.1796 111.852 34.2151C111.852 36.1538 113.192 36.8984 114.207 37.194C113.192 37.4777 111.852 38.2343 111.852 40.173L111.839 40.1611Z" fill="#DFD4CF" fill-opacity="0.05"/>
<path d="M269.357 34.7013C268.199 35.5879 266.963 36.4037 265.675 37.1366L265.454 37.2548L265.675 37.3848C267.119 38.2241 268.511 39.1698 269.8 40.1746C270.697 40.8839 271.569 41.6287 272.376 42.3971L272.493 42.5034L272.61 42.3971C273.716 41.3804 274.9 40.4112 276.137 39.5245C277.178 38.768 278.284 38.0468 279.416 37.3848L279.624 37.2666L279.416 37.1366C278.323 36.4746 277.255 35.7534 276.24 34.9969C274.978 34.063 273.782 33.0464 272.649 31.9825L272.532 31.8642L272.415 31.9825C271.465 32.94 270.437 33.8502 269.344 34.6895L269.357 34.7013Z" fill="#DFD4CF" fill-opacity="0.05"/>
<path d="M271.951 -57.8272L120.244 -57.8272C119.581 -65.3811 112.619 -71.339 104.136 -71.339C95.6519 -71.339 89.0157 -65.6411 88.0788 -58.3473C80.636 -58.3118 73.3494 -57.3661 66.4011 -55.5219C55.2368 -52.5666 45.6077 -47.9681 37.8266 -41.9983C36.0569 -42.6603 34.2353 -43.0622 32.3876 -43.1568C23.3704 -43.6178 17.1118 -36.9861 15.9407 -35.6503C10.1374 -29.0066 9.4605 -18.6983 14.379 -11.6764C15.1988 -10.4943 16.37 -9.1703 17.7492 -7.97634L17.7493 7.26145C14.4963 7.61609 11.972 10.1104 11.972 13.1485C11.972 16.4348 14.9128 19.1065 18.5301 19.1065C22.1474 19.1065 25.0882 16.4348 25.0882 13.1485C25.0882 10.2286 22.7589 7.80527 19.701 7.29695L19.701 -6.475C21.887 -5.02097 24.3595 -4.13434 26.7016 -4.67813C28.4192 -5.06823 29.1347 -6.03759 30.4359 -7.78716C31.0214 -8.56737 31.7502 -9.54859 32.7781 -10.7898C33.3116 -11.44 38.2302 -17.2443 44.9444 -21.8428C47.5077 -23.5924 50.3052 -25.1528 53.298 -26.465C53.311 -26.465 53.324 -26.4769 53.337 -26.4887C56.0045 -27.2453 57.9563 -29.4794 57.9563 -32.151C57.9563 -35.4374 55.0156 -38.1091 51.3983 -38.1091C47.7809 -38.1091 44.8402 -35.4374 44.8402 -32.151C44.8402 -29.5385 46.7138 -27.3397 49.2902 -26.5359C47.3644 -25.5311 45.5037 -24.4436 43.7731 -23.2615C39.0238 -19.9988 35.1462 -16.1685 32.9992 -13.8634C32.1014 -18.0481 31.646 -22.7886 32.726 -25.1765C32.9342 -25.6257 33.2986 -26.4531 34.1574 -26.8196C34.743 -27.0678 35.9399 -27.1979 36.6296 -26.524C36.7857 -26.3585 36.9159 -26.1694 36.9939 -25.9685C36.8248 -26.0039 36.6558 -26.0276 36.4866 -26.0276C35.3155 -26.0276 34.3655 -25.1647 34.3655 -24.1007C34.3655 -23.0368 35.3155 -22.1738 36.4866 -22.1738C37.0982 -22.1738 37.6446 -22.4103 38.0219 -22.7886C38.048 -22.8122 38.0741 -22.824 38.1001 -22.8476C38.1391 -22.8949 38.1649 -22.9422 38.204 -22.9776C38.23 -23.0131 38.2561 -23.0486 38.2821 -23.0723C38.8026 -23.7579 39.076 -24.55 39.076 -25.3184C39.076 -26.1932 38.7376 -27.056 38.074 -27.7062C36.7598 -28.9947 34.7038 -28.983 33.3505 -28.4156C31.7891 -27.7654 31.1777 -26.4177 30.9175 -25.8266C29.2389 -22.1029 30.7482 -14.7972 31.4118 -12.0665C31.3337 -11.9719 31.2688 -11.8892 31.2298 -11.842C30.1758 -10.5652 29.434 -9.57228 28.8354 -8.76843C27.5733 -7.06615 27.196 -6.6051 26.2461 -6.39231C22.7849 -5.60028 18.2046 -9.56047 16.0576 -12.6222C11.5685 -19.0412 12.1932 -28.4746 17.5021 -34.5508C18.556 -35.7684 24.2421 -41.7974 32.3095 -41.3836C33.6237 -41.3127 34.9119 -41.0763 36.187 -40.6744C31.6589 -36.9506 27.8076 -32.7185 24.7238 -28.0372C22.4857 -24.6445 20.6508 -21.0034 19.2585 -17.2088C19.0373 -16.5941 19.4018 -15.9204 20.0784 -15.7194C20.755 -15.5184 21.4967 -15.8495 21.7179 -16.4642C23.0452 -20.0933 24.8018 -23.5805 26.9357 -26.8196C35.1723 -39.3266 49.0689 -48.4647 67.1425 -53.2523C73.8306 -55.0255 80.8441 -55.9357 88.0137 -55.983C88.4041 -48.1927 95.4828 -41.9628 104.149 -41.9628C112.815 -41.9628 119.581 -47.9209 120.257 -55.4748L271.964 -55.4748C272.627 -47.9327 279.589 -41.9628 288.072 -41.9628C296.556 -41.9628 303.791 -48.169 304.207 -55.9357C311.377 -55.8884 318.403 -54.9782 325.091 -53.205C343.165 -48.4173 357.062 -39.2794 365.299 -26.7724C367.433 -23.5215 369.189 -20.046 370.516 -16.4168C370.738 -15.8021 371.479 -15.4593 372.156 -15.6721C372.702 -15.8376 373.041 -16.2986 373.041 -16.7951C373.041 -16.9133 373.015 -17.0434 372.975 -17.1734C371.583 -20.9681 369.749 -24.609 367.511 -28.0017C364.427 -32.683 360.575 -36.9151 356.047 -40.6389C357.322 -41.029 358.61 -41.2772 359.924 -41.3481C367.979 -41.7619 373.665 -35.7329 374.732 -34.5153C380.041 -28.4273 380.665 -19.0057 376.176 -12.5867C374.029 -9.51315 369.449 -5.55296 365.988 -6.35682C365.025 -6.58142 364.661 -7.03065 363.386 -8.73293C362.787 -9.53678 362.046 -10.5298 360.992 -11.8065C360.952 -11.8537 360.888 -11.9366 360.81 -12.0311C361.252 -13.8516 362.059 -17.6936 362.059 -21.1691C362.059 -22.9068 361.85 -24.5499 361.304 -25.7911C361.044 -26.3704 360.432 -27.7181 358.87 -28.3682C357.517 -28.9357 355.461 -28.9475 354.147 -27.659C352.898 -26.4296 352.833 -24.479 353.952 -23.0249C353.978 -22.9895 354.004 -22.9541 354.03 -22.9186C354.069 -22.8713 354.095 -22.824 354.134 -22.7886C354.16 -22.7649 354.186 -22.7531 354.212 -22.7294C354.603 -22.3511 355.149 -22.1147 355.748 -22.1147C356.919 -22.1147 357.869 -22.9776 357.869 -24.0416C357.869 -25.1055 356.919 -25.9685 355.748 -25.9685C355.566 -25.9685 355.396 -25.9449 355.227 -25.9094C355.305 -26.1104 355.423 -26.3113 355.592 -26.465C356.281 -27.1388 357.478 -27.0088 358.064 -26.7606C358.923 -26.4059 359.3 -25.5666 359.495 -25.1174C360.562 -22.7294 360.107 -17.9891 359.222 -13.8044C357.075 -16.1095 353.198 -19.9514 348.448 -23.2023C346.718 -24.3963 344.857 -25.4839 342.931 -26.4768C345.507 -27.2807 347.381 -29.4795 347.381 -32.092C347.381 -35.3784 344.44 -38.0499 340.823 -38.0499C337.206 -38.0499 334.265 -35.3784 334.265 -32.092C334.265 -29.4204 336.23 -27.1743 338.897 -26.4295C338.897 -26.4295 338.91 -26.4177 338.923 -26.4059C341.903 -25.0937 344.713 -23.5334 347.264 -21.7838C353.978 -17.1853 358.897 -11.3809 359.43 -10.7307C360.458 -9.48943 361.187 -8.52017 361.772 -7.72814C363.074 -5.97857 363.789 -5.02104 365.507 -4.61911C367.836 -4.08715 370.308 -4.97377 372.507 -6.41598L372.507 7.35597C369.449 7.86429 367.12 10.2878 367.12 13.2076C367.12 16.494 370.061 19.1655 373.678 19.1655C377.296 19.1655 380.236 16.494 380.236 13.2076C380.236 10.1577 377.699 7.67525 374.459 7.32061L374.459 -7.91718C375.825 -9.11114 376.996 -10.4351 377.829 -11.6173C380.028 -14.7618 381.108 -18.5683 381.108 -22.4102C381.108 -27.1388 379.468 -31.9265 376.268 -35.6029C375.109 -36.9387 368.838 -43.5705 359.821 -43.1095C357.973 -43.0149 356.151 -42.613 354.381 -41.951C346.6 -47.9326 336.971 -52.5194 325.807 -55.4748C318.859 -57.3189 311.572 -58.2527 304.116 -58.2999C303.205 -65.6292 296.361 -71.339 288.059 -71.339C279.758 -71.339 272.627 -65.3811 271.951 -57.8272ZM23.1494 13.1603C23.1494 15.4655 21.0805 17.3451 18.5431 17.3451C16.0058 17.3451 13.9369 15.4655 13.9368 13.1603C13.9368 10.8551 16.0058 8.97549 18.5431 8.97549C21.0805 8.97549 23.1494 10.8551 23.1494 13.1603ZM46.792 -32.1392C46.792 -34.4444 48.8609 -36.324 51.3983 -36.324C53.9356 -36.324 56.0045 -34.4444 56.0045 -32.1392C56.0045 -29.834 53.9356 -27.9545 51.3983 -27.9545C48.8609 -27.9545 46.792 -29.834 46.792 -32.1392ZM336.204 -32.092C336.204 -34.3972 338.273 -36.2767 340.81 -36.2767C343.347 -36.2767 345.416 -34.3972 345.416 -32.092C345.416 -29.7868 343.347 -27.9072 340.81 -27.9072C338.273 -27.9072 336.204 -29.7868 336.204 -32.092ZM378.284 13.1958C378.284 15.501 376.216 17.3805 373.678 17.3805C371.141 17.3805 369.072 15.501 369.072 13.1958C369.072 10.8906 371.141 9.01099 373.678 9.01099C376.216 9.01099 378.284 10.8906 378.284 13.1958ZM104.149 -44.3271C96.6669 -44.3271 90.577 -49.8596 90.577 -56.6569C90.577 -63.4542 96.6668 -68.9865 104.149 -68.9865C111.631 -68.9865 117.72 -63.4542 117.72 -56.6569C117.72 -49.8596 111.631 -44.3271 104.149 -44.3271ZM301.631 -56.6451C301.631 -49.8478 295.541 -44.3153 288.059 -44.3153C280.578 -44.3153 274.488 -49.8478 274.488 -56.6451C274.488 -63.4424 280.578 -68.9747 288.059 -68.9747C295.541 -68.9747 301.631 -63.4424 301.631 -56.6451Z" fill="#DFD4CF" fill-opacity="0.05"/>
<path d="M42.7692 62.5255C46.0612 64.3815 49.8478 63.9441 52.3721 63.2821C53.6083 64.807 55.5729 66.5566 58.4095 67.124C64.0828 68.2589 69.8472 63.8613 71.9161 59.1328C72.5407 57.726 72.8529 56.201 72.8529 54.6169C72.8529 54.5933 72.8529 54.5697 72.8529 54.5461C73.6467 53.955 74.4274 53.2574 75.13 52.3945C75.9498 51.4015 76.5222 50.3612 76.9516 49.3209C77.6672 50.2548 78.526 51.0705 79.5149 51.7207C83.5486 54.3687 88.1938 53.5768 89.534 53.2694C89.9114 53.1866 90.1716 52.8793 90.1716 52.5246C90.1716 52.5246 90.1716 52.5128 90.1716 52.501C90.1716 52.1463 89.8726 51.839 89.4822 51.7681C87.6345 51.4489 84.876 50.645 82.3257 48.5999C80.2828 46.9685 79.0987 45.1244 78.396 43.5994L84.7327 42.5118C85.045 42.4645 85.2922 42.2518 85.3833 41.9799C85.4744 41.708 85.3834 41.4125 85.1622 41.2115L82.0521 38.469L90.7964 38.469C91.2649 38.469 91.6421 38.1261 91.6421 37.7006C91.6421 37.275 91.2649 36.9322 90.7964 36.9322L82.1433 36.9322L85.2794 34.296C85.4615 34.1541 85.5526 33.9414 85.5526 33.7286C85.5526 33.6459 85.5395 33.5748 85.5135 33.4921C85.4094 33.2084 85.1361 32.9956 84.8108 32.9602L78.2527 32.2036C78.9294 30.6314 80.1266 28.6454 82.3126 26.8958C84.876 24.8389 87.6215 24.035 89.4692 23.7276C89.8595 23.6567 90.1458 23.3611 90.1589 22.9947C90.1589 22.9947 90.1589 22.983 90.1589 22.9712C90.1589 22.6165 89.8983 22.3092 89.521 22.2264C88.1937 21.9191 83.5355 21.1269 79.5018 23.7749C78.5259 24.4133 77.6672 25.229 76.9515 26.1511C76.6132 24.9216 76.0799 23.7513 75.143 22.581C74.3102 21.5289 73.2431 20.6305 72.033 19.874C71.8508 17.7579 71.0571 14.1286 67.8562 11.1733C67.5959 10.925 61.3504 5.25081 55.6511 7.66238C53.5952 8.52534 52.372 10.1212 51.6694 11.4807C50.3161 11.2206 48.8326 11.126 47.2451 11.3625C46.9589 11.4098 40.0757 12.4855 38.3321 17.6987C37.7206 19.5192 37.9548 21.2216 38.3452 22.4864C37.3823 22.9829 36.4975 23.6331 35.7949 24.437C33.5438 27.0377 33.8691 30.0994 34.1163 31.2815C33.1404 32.3809 30.746 35.6082 31.6178 39.6393C32.0472 41.6489 33.1404 43.1502 34.0903 44.1313C33.1664 47.4413 34.6108 50.905 37.6686 52.8674C37.6816 54.416 38.0978 59.9011 42.7431 62.5255L42.7692 62.5255ZM70.3414 58.5654C68.5197 62.7265 63.4322 66.5566 58.7739 65.6227C56.666 65.1971 55.1174 63.9558 54.0634 62.75C55.7029 62.1471 56.731 61.4024 57.7199 60.6813C58.956 59.7829 60.114 58.9436 62.5342 58.2343C63.6793 57.9033 64.33 57.8324 64.9806 57.7614C65.7353 57.6787 66.516 57.5842 67.8693 57.1113C68.5329 56.8749 69.7299 56.4493 71.0962 55.6927C70.9921 56.6975 70.7448 57.6669 70.3414 58.5654ZM67.2577 55.6809C66.0997 56.0946 65.4752 56.1655 64.7595 56.2483C64.0699 56.331 63.3021 56.4139 62.0139 56.7921C59.2944 57.5842 57.8893 58.6007 56.6531 59.4991C55.6252 60.2439 54.6622 60.9414 53.0097 61.497C50.9148 62.1827 46.9329 63.0693 43.6669 61.237C40.3619 59.381 39.6072 55.7045 39.438 53.7776C42.5999 54.9716 46.2433 54.4279 48.8717 52.3473C53.4128 53.0093 59.3985 52.5956 64.6293 51.047C70.3806 49.3447 74.4532 46.543 76.2879 43.0675C76.34 45.5737 76.0017 48.7536 73.7637 51.4844C71.5517 54.1796 68.4288 55.2789 67.2447 55.6927L67.2577 55.6809ZM37.0961 41.1288C37.3694 39.6393 38.2932 38.6226 39.0609 37.9961C39.1 38.2207 39.1128 38.4452 39.1778 38.658C39.4641 39.7929 39.9848 40.845 40.7135 41.8026C40.232 42.9965 39.7503 44.9235 40.453 46.9213C39.6723 46.5785 38.8004 46.0229 38.1238 45.1126C37.6944 44.557 36.7578 43.0439 37.1091 41.117L37.0961 41.1288ZM38.7226 28.8227C39.4773 28.338 40.271 28.1607 40.9476 28.1134C39.0348 30.5959 38.9046 34.367 38.9176 35.7973C38.241 35.3836 37.2911 34.6152 36.9268 33.3857C36.4193 31.6953 37.1481 29.8275 38.7226 28.8345L38.7226 28.8227ZM75.6764 37.8069C75.5983 39.0127 75.156 41.7198 72.8529 43.1502C71.6428 43.895 69.4308 44.5334 65.7354 43.3749C60.96 41.8736 58.4745 37.9133 56.0543 34.0832C53.621 30.2294 51.3179 26.5885 46.9068 25.9265C45.5536 25.7255 44.5128 25.8909 43.7841 26.1156C44.0053 25.5836 44.3045 25.1227 44.7079 24.7562C46.1652 23.4086 48.5855 23.4203 52.2549 23.8813C62.157 25.1225 67.1277 25.7491 70.6409 28.9409C73.1392 31.2106 74.8697 34.2723 75.6764 37.8069ZM43.9791 27.6761C44.7078 27.3687 45.6447 27.2859 46.6467 27.4277C50.264 27.9597 52.281 31.1396 54.5971 34.8279C54.8443 35.218 55.1044 35.6318 55.3646 36.0337L52.9706 36.0337C52.8145 35.1353 52.5152 34.4142 52.2809 33.9531C51.9036 33.2202 50.4592 30.7733 47.3884 29.9221C46.881 29.7803 45.8402 29.4846 44.617 29.662C43.3289 29.8511 42.1315 30.5249 41.1426 31.577C41.585 29.9575 42.4177 28.3381 43.9791 27.6761ZM45.4366 43.4103C44.6169 43.3039 43.9402 42.8902 43.3937 42.4291C44.1224 42.3109 44.9291 42.0627 45.6968 41.5425C47.9219 40.0412 48.2341 37.3578 47.5965 35.5018C46.998 33.7286 45.879 32.5937 44.4607 32.2981C43.8622 32.1681 43.2508 32.1918 42.6392 32.3454C43.3158 31.7071 44.0835 31.2934 44.8902 31.1751C45.723 31.0569 46.4905 31.2698 46.9068 31.3762C49.301 32.0382 50.4594 34.0005 50.7586 34.5915C51.097 35.2535 51.6303 36.6129 51.305 38.2088C50.7846 40.845 48.0521 43.7412 45.4366 43.3984L45.4366 43.4103ZM40.7262 36.8021C40.7262 36.8021 40.6483 36.7431 40.6223 36.7076C40.6223 36.5894 40.6223 36.483 40.6223 36.3647C40.6223 36.3647 40.6483 36.3647 40.6614 36.3411C41.6893 35.5727 42.7042 35.549 42.8863 35.7145C42.9904 35.7973 43.0815 36.2228 42.8994 36.7548C42.7432 37.2395 42.4178 37.6178 42.1055 37.6651C41.7412 37.7242 41.1295 37.4168 40.7262 36.7785L40.7262 36.8021ZM42.4178 39.1901C43.3807 39.0246 44.1615 38.2798 44.5128 37.204C44.6169 36.8848 44.6818 36.5302 44.6818 36.1756C44.6818 35.5963 44.5127 35.029 44.0443 34.6152C43.6279 34.2487 43.0293 34.095 42.3657 34.1187C42.9512 33.8113 43.5628 33.6931 44.0573 33.7995C44.864 33.965 45.5406 34.7334 45.957 35.9629C46.4384 37.3696 46.1522 39.3082 44.6558 40.3131C43.771 40.9041 42.7821 40.9988 42.0925 40.9751C41.6371 40.3722 41.273 39.7339 41.0257 39.0482C41.4812 39.2137 41.9493 39.2728 42.3917 39.1901L42.4178 39.1901ZM43.4849 46.7321C42.4439 45.9283 42.2228 44.6042 42.2488 43.5521C42.9905 44.1905 43.9664 44.7697 45.1895 44.9234C48.8198 45.4081 52.294 41.9327 52.9706 38.4927C53.0357 38.1735 53.0618 37.8779 53.0748 37.5824L55.2868 37.5824C53.7123 41.4716 50.4333 47.1458 46.4777 47.4296C46.0092 47.465 44.5649 47.5596 43.4979 46.744L43.4849 46.7321ZM43.4328 48.4935C44.3306 48.8718 45.3845 49.0373 46.5946 48.9546C51.9555 48.5881 55.4689 41.4835 56.8221 38.1971C58.839 40.9988 61.3502 43.6113 65.1887 44.8171C68.78 45.9519 71.2525 45.5736 72.8659 44.8879C70.8751 46.8503 67.8954 48.4581 64.0959 49.5811C56.9133 51.6972 47.948 51.6144 44.5259 49.3801C44.0965 49.0964 43.732 48.8009 43.4197 48.4935L43.4328 48.4935ZM81.2065 49.7347C82.4556 50.7277 83.731 51.4606 84.9541 52.0044C83.5488 51.8507 81.9741 51.4253 80.5038 50.4677C79.2937 49.6757 78.2788 48.5763 77.5761 47.3114C77.6802 46.874 77.7582 46.4366 77.8233 45.9992C78.617 47.2405 79.6971 48.5407 81.2065 49.7465L81.2065 49.7347ZM82.8069 34.2723L79.411 37.1213C79.411 37.1213 79.411 37.1213 79.411 37.1332C79.3589 37.1805 79.3067 37.2396 79.2677 37.3105C79.2547 37.3342 79.2286 37.3577 79.2156 37.3814C79.1896 37.4405 79.1765 37.4996 79.1635 37.5706C79.1635 37.606 79.1375 37.6414 79.1375 37.6769C79.1375 37.8897 79.2418 38.0788 79.398 38.2206L82.82 41.247L77.9535 42.0863C77.9275 41.6252 77.9014 41.1997 77.8753 40.8096C77.7973 39.7693 77.6413 38.729 77.3941 37.7124C77.6413 36.3766 77.7585 35.0289 77.7975 33.6931L82.8069 34.2723ZM77.524 28.2671C78.2266 26.9549 79.2546 25.8319 80.5038 25.0162C81.9741 24.0587 83.5488 23.6331 84.9541 23.4794C83.7309 24.0232 82.4426 24.7562 81.2065 25.7492C79.567 27.0613 78.4219 28.5035 77.6152 29.8393C77.5501 29.3428 77.4852 28.87 77.4201 28.3971C77.4591 28.3499 77.498 28.3144 77.524 28.2671ZM56.3926 9.05736C61.0248 7.10683 66.6332 12.2018 66.6852 12.2491C69.0144 14.4006 69.8992 16.9895 70.2375 18.8927C70.1074 18.8336 69.9772 18.7626 69.8471 18.7035C68.3897 18.1243 67.4398 18.0417 66.5159 17.9589C65.8003 17.8998 65.0456 17.8289 63.9526 17.5097C62.248 17.0014 61.4935 16.4102 60.5176 15.6536C59.7239 15.0389 58.826 14.3296 57.2776 13.5494C56.3277 13.0647 54.9875 12.391 53.361 11.8945C53.9596 10.8424 54.9092 9.6839 56.3926 9.05736ZM39.9717 18.1361C41.416 13.8331 47.4796 12.8875 47.5447 12.8756C51.3442 12.3082 54.6751 13.9986 56.4577 14.8971C57.85 15.6063 58.6568 16.2211 59.4245 16.824C60.4524 17.616 61.4154 18.3726 63.4323 18.9755C64.7074 19.3538 65.5792 19.4247 66.3599 19.4956C67.2187 19.5665 67.9603 19.6375 69.1704 20.1222C71.0702 20.8787 72.6707 22.0372 73.8027 23.4676C75.3642 25.4299 75.6113 27.3687 75.9496 30.064C76.1057 31.3052 76.171 32.5582 76.1319 33.8113C75.117 31.5179 73.6726 29.4847 71.864 27.8416C67.9474 24.2833 62.7815 23.6331 52.5151 22.3446C50.5112 22.0963 48.5726 21.9308 46.8811 22.1909C46.777 22.0254 46.6207 21.8953 46.4125 21.8362C44.2265 21.1624 41.9625 21.2215 39.9456 21.8362C39.6594 20.8196 39.5163 19.5074 39.9847 18.1361L39.9717 18.1361ZM37.1479 25.3826C38.8134 23.4557 41.6241 22.5692 44.4477 22.983C44.1224 23.1721 43.7971 23.3967 43.5109 23.6686C42.6911 24.4133 42.1707 25.4063 41.8974 26.5766C40.8304 26.5057 39.2431 26.6122 37.7597 27.5579C36.8359 28.1489 36.1331 28.9764 35.6777 29.8985C35.6126 28.6809 35.8207 26.9312 37.1609 25.3826L37.1479 25.3826ZM33.3094 39.3438C32.6588 36.3411 34.1814 33.8586 35.1183 32.6765C35.1443 33.0548 35.1962 33.4212 35.3133 33.7876C35.7947 35.3717 36.9137 36.3766 37.8245 36.9677C36.8616 37.7715 35.7819 39.0481 35.4436 40.8686C35.2874 41.7079 35.3265 42.4646 35.4436 43.1502C34.6368 42.3227 33.6868 41.0579 33.3094 39.3438ZM35.8079 44.4034C36.1072 45.1363 36.4715 45.6919 36.7187 45.9992C38.2801 48.0443 40.5703 48.7063 41.6112 48.9072C42.1057 49.4865 42.7432 50.1011 43.55 50.6213C44.3567 51.1532 45.4236 51.5671 46.6727 51.8862C44.3306 53.1511 41.377 53.1865 38.9958 51.8271C36.2373 50.2548 34.9622 47.2287 35.8079 44.3915L35.8079 44.4034Z" fill="#DFD4CF" fill-opacity="0.05"/>
<path d="M347.523 11.8611C344.231 10.0052 340.444 10.4425 337.92 11.1045C336.684 9.57958 334.719 7.83002 331.882 7.26259C326.209 6.12774 320.445 10.5253 318.376 15.2539C317.751 16.6842 317.452 18.2329 317.452 19.8406C316.658 20.4316 315.878 21.1409 315.175 22.0038C314.355 22.9968 313.77 24.0252 313.34 25.0655C312.625 24.1435 311.766 23.3161 310.777 22.6777C306.743 20.0297 302.085 20.8217 300.758 21.1291C300.367 21.2118 300.107 21.5428 300.12 21.8975C300.12 22.2521 300.419 22.5595 300.81 22.6304C302.658 22.9496 305.416 23.7534 307.966 25.7985C310.009 27.4298 311.193 29.2741 311.896 30.799L305.559 31.8865C305.247 31.9338 305 32.1467 304.908 32.4185C304.817 32.6904 304.909 32.9859 305.13 33.1868L308.227 35.9295L299.483 35.9295C299.014 35.9295 298.637 36.2723 298.637 36.6979C298.637 37.1235 299.014 37.4663 299.483 37.4663L308.135 37.4663L305 40.1025C304.752 40.3034 304.674 40.6225 304.766 40.9062C304.87 41.1899 305.143 41.4028 305.468 41.4383L312.026 42.1949C311.349 43.7671 310.152 45.7531 307.966 47.5027C305.403 49.5478 302.658 50.3633 300.81 50.6707C300.419 50.7416 300.133 51.0372 300.12 51.4036C300.094 51.7701 300.367 52.0893 300.758 52.172C302.085 52.4794 306.73 53.2714 310.777 50.6234C311.753 49.985 312.612 49.1695 313.327 48.2474C313.665 49.4768 314.199 50.647 315.136 51.8173C315.969 52.8695 317.036 53.7679 318.246 54.5245C318.428 56.6405 319.222 60.2697 322.423 63.225C322.683 63.4733 328.929 69.1475 334.628 66.7359C336.684 65.873 337.907 64.2771 338.61 62.9177C339.963 63.1777 341.459 63.2723 343.047 63.0358C343.333 62.9886 350.216 61.901 351.96 56.7114C352.233 55.9076 352.337 55.1274 352.337 54.3945C352.337 53.4724 352.168 52.6213 351.947 51.9238C352.91 51.4273 353.795 50.7771 354.497 49.9733C356.748 47.3844 356.41 44.3226 356.176 43.1287C357.009 42.1948 358.856 39.7241 358.856 36.5205C358.856 35.9531 358.804 35.3739 358.674 34.771C358.245 32.7614 357.152 31.2482 356.202 30.2788C357.113 26.9806 355.681 23.5051 352.623 21.5428C352.623 19.9232 352.22 14.521 347.549 11.8848L347.523 11.8611ZM319.95 15.8213C321.772 11.6601 326.86 7.83004 331.518 8.76393C333.626 9.1895 335.174 10.4307 336.228 11.6364C334.589 12.2393 333.561 12.9841 332.572 13.7052C331.336 14.6036 330.178 15.443 327.758 16.1405C326.612 16.4715 325.962 16.5424 325.311 16.6252C324.557 16.7079 323.776 16.8024 322.423 17.2753C321.772 17.5117 320.562 17.9374 319.196 18.6939C319.3 17.7009 319.547 16.7197 319.95 15.8213ZM323.034 18.7056C324.192 18.2919 324.817 18.221 325.533 18.1382C326.222 18.0555 326.99 17.9728 328.278 17.5945C330.998 16.8024 332.403 15.7858 333.639 14.8873C334.667 14.1426 335.63 13.4452 337.282 12.8896C339.377 12.1921 343.359 11.3173 346.625 13.1496C349.904 15.0056 350.685 18.6703 350.854 20.5972C347.692 19.4032 344.048 19.9469 341.42 22.0275C336.879 21.3655 330.894 21.7792 325.663 23.3278C319.911 25.0301 315.838 27.8318 314.004 31.3073C313.952 28.8011 314.29 25.6212 316.528 22.8904C318.753 20.1952 321.863 19.0958 323.047 18.6821L323.034 18.7056ZM353.196 33.2578C352.923 34.7355 352.012 35.7521 351.244 36.3787C351.205 36.1659 351.179 35.9412 351.114 35.7284C350.828 34.6054 350.294 33.5298 349.566 32.5722C349.982 31.5556 350.203 30.5271 350.203 29.5577C350.203 28.8248 350.06 28.1273 349.826 27.4535C350.606 27.7963 351.478 28.3519 352.181 29.2622C352.61 29.8178 353.56 31.3309 353.196 33.2578ZM351.569 45.5639C350.815 46.0486 350.008 46.2259 349.331 46.2732C351.179 43.8616 351.374 40.2324 351.374 38.8611C351.374 38.7548 351.374 38.672 351.374 38.6011C352.051 39.0149 353.001 39.7833 353.365 41.0127C353.872 42.7032 353.144 44.5709 351.569 45.5758L351.569 45.5639ZM314.603 36.5797C314.681 35.3739 315.136 32.655 317.426 31.2364C318.636 30.4917 320.848 29.8532 324.544 31.0117C329.319 32.513 331.804 36.4732 334.224 40.3033C336.658 44.1571 338.961 47.7981 343.372 48.4601C344.725 48.6611 345.766 48.4955 346.508 48.2709C346.286 48.8029 345.987 49.264 345.584 49.6304C344.127 50.9781 341.707 50.9662 338.037 50.5052C328.135 49.2639 323.164 48.6375 319.651 45.4457C317.153 43.176 315.422 40.1143 314.616 36.5797L314.603 36.5797ZM346.313 46.6987C345.597 47.0061 344.647 47.0888 343.645 46.9469C340.028 46.415 338.011 43.2232 335.695 39.5467C335.448 39.1566 335.187 38.743 334.927 38.3411L337.321 38.3411C337.478 39.2395 337.777 39.9606 338.011 40.4217C338.493 41.3555 339.924 43.6251 342.904 44.4526C343.411 44.5945 344.452 44.8783 345.675 44.701C346.976 44.5118 348.173 43.8262 349.162 42.7741C348.72 44.4054 347.874 46.0249 346.313 46.6869L346.313 46.6987ZM344.855 30.9762C345.675 31.0826 346.352 31.4965 346.898 31.9575C346.169 32.0757 345.363 32.3358 344.595 32.8441C342.383 34.3454 342.058 37.0289 342.695 38.8848C343.476 41.1545 344.829 41.8756 345.831 42.0884C346.43 42.2184 347.054 42.1949 347.653 42.0412C346.976 42.6795 346.209 43.0933 345.402 43.2115C344.569 43.3297 343.801 43.1169 343.385 43.0105C340.991 42.3485 339.833 40.3862 339.533 39.7951C339.195 39.1213 338.675 37.7617 338.987 36.1777C339.507 33.5415 342.24 30.6453 344.855 30.9999L344.855 30.9762ZM349.566 37.5845C349.566 37.5845 349.644 37.6435 349.67 37.679C349.67 37.7972 349.67 37.9037 349.67 38.0219C349.67 38.0219 349.644 38.0219 349.631 38.0455C348.603 38.8139 347.601 38.8375 347.406 38.672C347.354 38.6247 347.288 38.4473 347.288 38.2109C347.288 38.0454 347.315 37.8445 347.393 37.6317C347.549 37.147 347.874 36.7688 348.173 36.7215C348.538 36.6624 349.149 36.9698 349.566 37.6082L349.566 37.5845ZM347.874 35.1847C346.911 35.3502 346.131 36.095 345.779 37.1708C345.519 37.9864 345.493 39.0976 346.247 39.7596C346.664 40.126 347.262 40.2798 347.926 40.2561C347.341 40.5635 346.729 40.6816 346.234 40.5752C345.428 40.4097 344.751 39.6414 344.335 38.4119C343.853 37.0052 344.14 35.0666 345.636 34.0617C346.534 33.4588 347.562 33.376 348.199 33.3997C348.642 33.9907 349.019 34.6409 349.266 35.3147C348.811 35.1492 348.342 35.0901 347.9 35.1729L347.874 35.1847ZM346.807 27.6545C347.848 28.4583 348.069 29.7823 348.043 30.8344C347.302 30.196 346.326 29.6169 345.103 29.4632C341.472 28.9785 337.998 32.4539 337.321 35.894C337.256 36.2131 337.23 36.5087 337.217 36.8042L335.005 36.8042C336.58 32.915 339.859 27.2408 343.814 26.9571C344.283 26.9216 345.727 26.827 346.794 27.6427L346.807 27.6545ZM346.846 25.8931C345.948 25.5148 344.894 25.3493 343.684 25.4321C338.323 25.7985 334.81 32.9032 333.457 36.1895C331.44 33.3878 328.929 30.7753 325.09 29.5695C321.499 28.4347 319.027 28.8129 317.413 29.4986C319.404 27.5362 322.384 25.9285 326.183 24.8055C333.366 22.6895 342.331 22.7723 345.753 25.0065C346.183 25.2902 346.547 25.5857 346.846 25.8813L346.846 25.8931ZM309.086 24.6518C307.836 23.6588 306.561 22.926 305.338 22.3822C306.743 22.5359 308.318 22.9614 309.788 23.9189C311.011 24.7227 311.987 25.7867 312.703 27.0753C312.599 27.5126 312.521 27.9618 312.455 28.3874C311.662 27.158 310.582 25.8576 309.086 24.6518ZM307.485 40.1143L310.881 37.2653C310.933 37.218 310.985 37.147 311.024 37.0879C311.037 37.0643 311.063 37.0407 311.076 37.0171C311.102 36.958 311.115 36.8988 311.128 36.8279C311.128 36.7924 311.154 36.757 311.154 36.7215C311.154 36.5088 311.05 36.3195 310.894 36.1777L307.472 33.1515L312.339 32.312C312.365 32.7731 312.39 33.1987 312.416 33.5889C312.494 34.6291 312.651 35.6694 312.898 36.6861C312.651 38.0219 312.521 39.3695 312.482 40.7054L307.485 40.1261L307.485 40.1143ZM312.768 46.1195C312.052 47.4553 311.05 48.5429 309.788 49.3704C308.318 50.3279 306.743 50.7654 305.338 50.9072C306.561 50.3634 307.849 49.6305 309.086 48.6375C310.738 47.3253 311.87 45.8831 312.677 44.5473C312.742 45.0438 312.807 45.5166 312.872 45.9895C312.833 46.0368 312.794 46.0722 312.768 46.1195ZM333.899 65.3174C329.267 67.2798 323.659 62.173 323.607 62.1257C321.278 59.9742 320.393 57.3853 320.055 55.4821C320.185 55.5412 320.315 55.612 320.445 55.6711C321.902 56.2504 322.852 56.3331 323.776 56.4159C324.491 56.475 325.246 56.5459 326.339 56.8651C328.044 57.3734 328.799 57.9646 329.774 58.7211C330.568 59.3359 331.466 60.045 333.014 60.8252C333.964 61.3099 335.305 61.9838 336.931 62.4803C336.332 63.5324 335.383 64.6909 333.899 65.3174ZM350.32 56.2504C348.889 60.5415 342.812 61.4992 342.76 61.511C338.961 62.0784 335.63 60.3878 333.847 59.4894C332.455 58.7801 331.648 58.1656 330.881 57.5627C329.853 56.7588 328.89 56.014 326.873 55.4111C325.598 55.0328 324.726 54.962 323.945 54.891C323.086 54.8201 322.344 54.7491 321.134 54.2645C319.235 53.5079 317.634 52.3493 316.502 50.9189C314.941 48.9566 314.693 47.0179 314.355 44.3226C314.199 43.0814 314.134 41.8283 314.173 40.5752C315.201 42.8685 316.632 44.9019 318.441 46.5569C322.358 50.1151 327.523 50.7653 337.803 52.0539C339.807 52.3021 341.745 52.4676 343.437 52.2075C343.541 52.373 343.697 52.503 343.893 52.5621C346.079 53.2241 348.343 53.1768 350.359 52.5621C350.646 53.5787 350.776 54.8909 350.32 56.2622L350.32 56.2504ZM353.144 49.0038C351.478 50.9307 348.668 51.8174 345.844 51.4036C346.17 51.2145 346.495 50.9899 346.781 50.718C347.601 49.9615 348.121 48.9803 348.395 47.81C349.462 47.881 351.049 47.7745 352.532 46.8288C353.456 46.2377 354.159 45.422 354.614 44.5C354.679 45.7176 354.471 47.4671 353.131 49.0038L353.144 49.0038ZM356.982 35.0429C357.633 38.0455 356.124 40.528 355.174 41.7101C355.148 41.3319 355.096 40.9653 354.978 40.587C354.497 39.003 353.378 37.9982 352.467 37.4071C353.43 36.6033 354.51 35.3265 354.862 33.506C354.94 33.1159 354.965 32.7377 354.965 32.383C354.965 31.9693 354.914 31.591 354.848 31.2246C355.655 32.0521 356.605 33.3051 356.982 35.031L356.982 35.0429ZM354.484 29.9833C354.185 29.2503 353.821 28.6948 353.573 28.3874C352.012 26.3423 349.722 25.6804 348.668 25.4794C348.199 24.9238 347.575 24.309 346.729 23.7652C345.922 23.2332 344.855 22.8196 343.606 22.5004C345.948 21.2355 348.902 21.1999 351.283 22.5594C354.042 24.1316 355.317 27.1461 354.471 29.9951L354.484 29.9833Z" fill="#DFD4CF" fill-opacity="0.05"/>
<path d="M20.4146 60.7077C20.4146 59.6043 19.4301 58.7099 18.2156 58.7099C17.0011 58.7099 16.0164 59.6043 16.0164 60.7077C16.0164 61.811 17.0011 62.7056 18.2156 62.7056C19.4301 62.7056 20.4146 61.811 20.4146 60.7077Z" fill="#DFD4CF" fill-opacity="0.05"/>
<path d="M20.7417 13.1614C20.7417 12.0581 19.7572 11.1637 18.5428 11.1637C17.3283 11.1637 16.3435 12.0581 16.3435 13.1614C16.3435 14.2648 17.3283 15.1592 18.5428 15.1592C19.7573 15.1592 20.7417 14.2648 20.7417 13.1614Z" fill="#DFD4CF" fill-opacity="0.05"/>
<path d="M367.43 60.7551C367.43 63.675 369.76 66.0983 372.817 66.6067L372.817 80.3786C370.631 78.9246 368.159 78.0379 365.817 78.5817C364.099 78.9718 363.384 79.9412 362.082 81.6908C361.497 82.471 360.768 83.4522 359.74 84.6816C359.207 85.3318 354.288 91.1361 347.574 95.7346C345.024 97.4841 342.213 99.0446 339.233 100.357C339.233 100.357 339.22 100.369 339.207 100.38C336.54 101.137 334.575 103.371 334.575 106.043C334.575 109.329 337.516 112.001 341.133 112.001C344.75 112.001 347.691 109.329 347.691 106.043C347.691 103.43 345.818 101.231 343.241 100.428C345.18 99.4228 347.028 98.3354 348.758 97.1532C353.508 93.8905 357.385 90.0603 359.532 87.7551C360.43 91.9399 360.885 96.6804 359.805 99.0683C359.61 99.5175 359.233 100.345 358.374 100.711C357.788 100.96 356.591 101.09 355.902 100.416C355.746 100.25 355.616 100.061 355.537 99.8602C355.707 99.8957 355.876 99.9194 356.058 99.9194C357.229 99.9194 358.179 99.0564 358.179 97.9925C358.179 96.9286 357.229 96.0656 356.058 96.0656C355.446 96.0656 354.913 96.302 354.523 96.6685C354.496 96.6921 354.47 96.7039 354.444 96.7275C354.405 96.7748 354.379 96.8222 354.34 96.8695C354.314 96.905 354.288 96.9286 354.275 96.964C353.169 98.4299 353.221 100.369 354.47 101.598C355.785 102.887 357.84 102.875 359.194 102.307C360.755 101.657 361.367 100.309 361.627 99.7184C362.186 98.4771 362.395 96.8341 362.395 95.0963C362.395 91.609 361.575 87.7669 361.145 85.9583C361.223 85.8637 361.289 85.781 361.328 85.7337C362.382 84.457 363.123 83.464 363.722 82.6602C364.984 80.9579 365.362 80.4968 366.311 80.2722C369.773 79.4802 374.353 83.4404 376.5 86.5021C380.989 92.9212 380.364 102.343 375.055 108.431C374.001 109.648 368.302 115.677 360.248 115.264C358.946 115.193 357.645 114.956 356.37 114.554C360.898 110.831 364.75 106.61 367.834 101.917C370.072 98.5244 371.906 94.8835 373.299 91.0888C373.338 90.9706 373.364 90.8405 373.364 90.7105C373.364 90.214 373.026 89.753 372.479 89.5875C371.802 89.3865 371.061 89.7175 370.84 90.3323C369.512 93.9614 367.756 97.4487 365.622 100.688C357.385 113.195 343.488 122.333 325.415 127.12C318.596 128.929 311.466 129.839 304.179 129.851C303.529 122.285 296.567 116.304 288.07 116.304C279.574 116.304 272.638 122.262 271.962 129.816L120.255 129.816C119.592 122.274 112.63 116.304 104.147 116.304C95.6628 116.304 88.7143 122.262 88.0377 129.804C80.764 129.792 73.6334 128.882 66.8151 127.073C48.7545 122.285 34.8449 113.148 26.6083 100.64C24.4743 97.3896 22.7177 93.9141 21.3905 90.2849C21.1693 89.6702 20.4276 89.3274 19.751 89.5402C19.0743 89.7411 18.7098 90.415 18.931 91.0297C20.3233 94.8243 22.1583 98.4654 24.3963 101.858C27.4802 106.539 31.3445 110.771 35.8596 114.495C34.5844 114.885 33.2833 115.133 31.9821 115.204C23.9407 115.618 18.2416 109.589 17.1746 108.372C11.8657 102.284 11.241 92.862 15.7301 86.443C17.8771 83.3694 22.4574 79.4092 25.9186 80.2131C26.8815 80.4377 27.2458 80.8869 28.521 82.601C29.1195 83.4049 29.8613 84.3978 30.9153 85.6746C30.9543 85.7218 31.0193 85.8047 31.0973 85.8992C30.4337 88.63 28.9375 95.9356 30.603 99.6594C30.8633 100.239 31.4747 101.586 33.0361 102.236C34.3894 102.804 36.4454 102.816 37.7596 101.527C38.4232 100.877 38.7616 100.014 38.7616 99.1391C38.7616 98.3589 38.4882 97.5669 37.9547 96.8812C37.9286 96.8576 37.9156 96.8222 37.8895 96.7985C37.8505 96.7512 37.8247 96.704 37.7857 96.6567C37.7596 96.633 37.7335 96.6212 37.7075 96.5975C37.3172 96.231 36.7834 95.9946 36.1719 95.9946C35.0008 95.9946 34.0511 96.8576 34.0511 97.9215C34.0511 98.9854 35.0008 99.8484 36.1719 99.8484C36.354 99.8484 36.5234 99.8248 36.6925 99.7894C36.6145 100.002 36.4973 100.191 36.3282 100.345C35.6385 101.019 34.4416 100.889 33.856 100.64C32.9972 100.286 32.6198 99.4465 32.4246 98.9973C31.3446 96.6094 31.813 91.8691 32.6978 87.6843C34.8448 89.9895 38.7224 93.8313 43.4717 97.0822C45.2023 98.2762 47.063 99.3638 48.9888 100.357C46.4124 101.161 44.5388 103.359 44.5388 105.972C44.5388 109.258 47.4796 111.93 51.0969 111.93C54.7142 111.93 57.6546 109.258 57.6546 105.972C57.6546 103.3 55.7031 101.066 53.0226 100.309C53.0096 100.309 52.9965 100.298 52.9835 100.286C50.0038 98.9736 47.193 97.4133 44.6427 95.6637C37.9285 91.0652 33.0102 85.2608 32.4767 84.6106C31.4487 83.3694 30.72 82.4001 30.1345 81.6199C28.8333 79.8703 28.1178 78.901 26.4002 78.5109C24.071 77.9789 21.5986 78.8655 19.3996 80.3077L19.3996 66.5358C22.4574 66.0275 24.7864 63.604 24.7864 60.6841C24.7864 57.3978 21.8459 54.7262 18.2286 54.7262C14.6113 54.7262 11.6705 57.3978 11.6705 60.6841C11.6706 63.734 14.2078 66.2167 17.4478 66.5713L17.4478 81.8089C16.0815 83.0029 14.9104 84.3269 14.0776 85.509C9.1721 92.5309 9.84898 102.839 15.6393 109.495C16.8104 110.831 23.069 117.462 32.0863 117.001C33.934 116.907 35.7556 116.505 37.5252 115.843C45.3063 121.824 54.9351 126.411 66.0994 129.367C73.1519 131.234 80.5298 132.168 88.0507 132.192C88.7143 139.746 95.6756 145.704 104.159 145.704C112.643 145.704 119.592 139.746 120.268 132.192L271.975 132.192C272.638 139.746 279.6 145.704 288.083 145.704C296.567 145.704 303.503 139.769 304.179 132.239C311.713 132.227 319.091 131.281 326.143 129.414C337.308 126.458 346.936 121.86 354.718 115.89C356.487 116.552 358.309 116.954 360.157 117.049C369.161 117.51 375.433 110.878 376.604 109.542C379.805 105.877 381.444 101.09 381.444 96.3493C381.444 92.5074 380.364 88.7009 378.165 85.5564C377.345 84.3742 376.174 83.0502 374.795 81.8563L374.795 66.6185C378.048 66.2638 380.572 63.7696 380.572 60.7315C380.572 57.4451 377.632 54.7734 374.014 54.7734C370.397 54.7734 367.456 57.4451 367.456 60.7315L367.43 60.7551ZM345.739 106.043C345.739 108.348 343.67 110.228 341.133 110.228C338.596 110.228 336.527 108.348 336.527 106.043C336.527 103.738 338.596 101.858 341.133 101.858C343.67 101.858 345.739 103.738 345.739 106.043ZM55.6898 105.996C55.6898 108.301 53.6212 110.18 51.0839 110.18C48.5465 110.18 46.4776 108.301 46.4776 105.996C46.4776 103.69 48.5465 101.811 51.0838 101.811C53.6212 101.811 55.6898 103.69 55.6898 105.996ZM13.6093 60.7078C13.6093 58.4026 15.6783 56.5231 18.2156 56.5231C20.7529 56.5231 22.8219 58.4026 22.8219 60.7078C22.8219 63.013 20.7529 64.8926 18.2156 64.8926C15.6783 64.8926 13.6093 63.013 13.6093 60.7078ZM104.147 143.363C96.6648 143.363 90.575 137.831 90.575 131.033C90.5749 124.236 96.6648 118.704 104.147 118.704C111.629 118.704 117.718 124.236 117.718 131.033C117.718 137.831 111.629 143.363 104.147 143.363ZM288.057 143.363C280.576 143.363 274.486 137.831 274.486 131.033C274.486 124.236 280.576 118.704 288.057 118.704C295.539 118.704 301.629 124.236 301.629 131.033C301.629 137.831 295.539 143.363 288.057 143.363ZM378.595 60.7551C378.595 63.0603 376.526 64.9399 373.988 64.9399C371.451 64.9399 369.382 63.0603 369.382 60.7551C369.382 58.45 371.451 56.5703 373.988 56.5703C376.526 56.5703 378.595 58.45 378.595 60.7551Z" fill="#DFD4CF" fill-opacity="0.05"/>
<path d="M376.187 60.7547C376.187 59.6513 375.203 58.7568 373.988 58.7568C372.774 58.7568 371.79 59.6513 371.79 60.7547C371.79 61.8581 372.774 62.7524 373.988 62.7524C375.203 62.7524 376.187 61.8581 376.187 60.7547Z" fill="#DFD4CF" fill-opacity="0.05"/>
<path d="M375.876 13.1966C375.876 12.0932 374.891 11.1987 373.677 11.1987C372.462 11.1987 371.478 12.0932 371.478 13.1966C371.478 14.3 372.462 15.1943 373.677 15.1943C374.891 15.1943 375.876 14.3 375.876 13.1966Z" fill="#DFD4CF" fill-opacity="0.05"/>
<path d="M83.5894 70.7434C83.5894 73.1904 82.9646 79.0065 77.4996 83.1322C71.488 87.6716 64.2664 86.5841 62.1975 86.1349C55.4183 84.6927 52.1003 80.0351 51.8661 78.983C51.6319 77.9427 51.9182 77.1034 51.9572 77.0088C52.0613 76.7369 52.1784 76.5359 52.2435 76.4177C52.855 75.5548 53.74 75.1882 54.3776 75.0227C54.833 74.9045 55.3012 75.141 55.4183 75.5548C55.5484 75.9567 55.2883 76.3822 54.8328 76.5004C54.4685 76.595 53.9742 76.7961 53.6879 77.2098C53.6879 77.2335 53.6097 77.3517 53.5577 77.4935C53.5577 77.4935 53.3755 78.0373 53.5186 78.6757C53.6617 79.184 56.3942 83.3214 62.5749 84.6454C64.4486 85.0473 71.0068 86.0403 76.4068 81.9501C81.8067 77.8717 81.9498 71.9256 81.8717 70.1878C81.5984 64.5608 77.7078 59.3832 71.6963 56.6761C71.2799 56.4869 71.1107 56.0257 71.3189 55.6475C71.527 55.2692 72.0347 55.1156 72.451 55.3047C79.0091 58.2601 83.264 63.9461 83.5633 70.1287C83.5633 70.2942 83.5763 70.507 83.5763 70.7434L83.5894 70.7434Z" fill="#DFD4CF" fill-opacity="0.05"/>
<path d="M83.5881 6.62186C83.5881 6.85829 83.588 7.0711 83.575 7.2366C83.2758 13.4192 79.0208 19.1053 72.4628 22.0607C72.0464 22.2498 71.5388 22.0961 71.3306 21.7178C71.1224 21.3395 71.2916 20.8785 71.708 20.6893C77.7065 17.9822 81.6102 12.8044 81.8834 7.17743C81.9615 5.45151 81.8184 -0.506413 76.4185 -4.58479C71.0185 -8.66317 64.4603 -7.68203 62.5866 -7.2801C56.4059 -5.95611 53.6735 -1.81857 53.5303 -1.31025C53.3872 -0.67189 53.5694 -0.128105 53.5694 -0.128105C53.6214 0.013752 53.6867 0.131989 53.7257 0.191095C53.9989 0.56938 54.4802 0.770267 54.8445 0.853018C55.3 0.971231 55.5601 1.39686 55.43 1.79879C55.2999 2.21254 54.8314 2.44891 54.389 2.33069C53.7514 2.16519 52.8668 1.7987 52.2812 0.971203C52.1771 0.817524 52.073 0.604849 51.969 0.344778C51.9299 0.250208 51.6436 -0.589163 51.8778 -1.62945C52.112 -2.69337 55.43 -7.33924 62.2092 -8.78144C64.2781 -9.21884 71.5127 -10.3064 77.5113 -5.77876C82.9763 -1.6531 83.6011 4.163 83.6011 6.61003L83.5881 6.62186Z" fill="#DFD4CF" fill-opacity="0.05"/>
<path d="M58.8533 -0.68454C58.8533 -2.42772 57.2976 -3.8409 55.3789 -3.8409C53.4601 -3.8409 51.9048 -2.42772 51.9048 -0.68454C51.9048 1.05864 53.4601 2.47168 55.3789 2.47168C57.2976 2.47168 58.8533 1.05864 58.8533 -0.68454Z" fill="#DFD4CF" fill-opacity="0.05"/>
<path d="M338.504 77.7176C338.504 77.9659 338.478 78.2497 338.413 78.5334C338.179 79.5973 334.861 84.243 328.082 85.6852C326.013 86.1226 318.778 87.2103 312.78 82.6827C306.781 78.1551 306.625 71.5824 306.703 69.6792C307.002 63.4966 311.257 57.8104 317.815 54.8551C318.232 54.666 318.739 54.8197 318.947 55.198C319.155 55.5763 318.986 56.0373 318.57 56.2264C312.571 58.9335 308.668 64.1112 308.395 69.7382C308.304 71.4641 308.46 77.4222 313.86 81.5006C319.26 85.5789 325.817 84.5977 327.691 84.1957C333.872 82.8717 336.604 78.7343 336.747 78.226C336.891 77.5877 336.709 77.0439 336.709 77.0439C336.657 76.902 336.591 76.7838 336.552 76.7247C336.279 76.3464 335.798 76.1454 335.434 76.0626C334.978 75.9444 334.718 75.5189 334.848 75.117C334.978 74.7032 335.446 74.4667 335.889 74.5849C336.526 74.7504 337.411 75.1169 337.997 75.9444C338.101 76.0981 338.205 76.3109 338.309 76.571C338.335 76.6419 338.491 77.0911 338.491 77.7295L338.504 77.7176Z" fill="#DFD4CF" fill-opacity="0.05"/>
<path d="M338.508 -1.23755C338.508 -0.599199 338.352 -0.149866 338.326 -0.0789376C338.221 0.192955 338.104 0.393919 338.039 0.512133C337.428 1.37509 336.543 1.74148 335.905 1.90697C335.45 2.02519 334.981 1.78882 334.864 1.37507C334.734 0.961323 334.994 0.535694 335.45 0.429302C335.814 0.33473 336.309 0.133797 336.595 -0.279953C336.595 -0.303597 336.673 -0.421799 336.725 -0.563654C336.725 -0.563654 336.907 -1.10744 336.764 -1.74579C336.621 -2.25411 333.888 -6.39166 327.708 -7.71565C325.834 -8.11758 319.276 -9.11054 313.876 -5.02034C308.476 -0.941963 308.333 5.00414 308.411 6.74188C308.684 12.3689 312.575 17.5467 318.586 20.2538C319.003 20.4429 319.172 20.904 318.964 21.2823C318.755 21.6605 318.248 21.8143 317.832 21.6251C311.274 18.6698 307.019 12.9836 306.72 6.80105C306.628 4.8978 306.797 -1.67489 312.796 -6.20248C318.808 -10.7419 326.029 -9.65437 328.098 -9.20516C334.877 -7.76295 338.195 -3.10526 338.429 -2.05316C338.495 -1.75763 338.521 -1.4858 338.521 -1.23755L338.508 -1.23755Z" fill="#DFD4CF" fill-opacity="0.05"/>
<path d="M338.388 -1.11911C338.388 -2.86229 336.833 -4.27547 334.914 -4.27547C332.995 -4.27547 331.44 -2.86229 331.44 -1.11911C331.44 0.624073 332.995 2.03711 334.914 2.03711C336.833 2.03711 338.388 0.624073 338.388 -1.11911Z" fill="#DFD4CF" fill-opacity="0.05"/>
</g>
<defs>
<linearGradient id="paint0_linear_27_13298" x1="140.397" y1="-11" x2="140.397" y2="1" gradientUnits="userSpaceOnUse">
<stop stop-color="#6B2121"/>
<stop offset="1" stop-color="#380C0C"/>
</linearGradient>
<linearGradient id="paint1_linear_27_13298" x1="140.393" y1="1.13643" x2="140.393" y2="-11.1364" gradientUnits="userSpaceOnUse">
<stop offset="0.2" stop-color="#918789"/>
<stop offset="0.55" stop-color="#BBB0AE"/>
<stop offset="0.83" stop-color="#D7CCC8"/>
<stop offset="1" stop-color="#E2D7D2"/>
</linearGradient>
<linearGradient id="paint2_linear_27_13298" x1="251.603" y1="-11" x2="251.603" y2="1" gradientUnits="userSpaceOnUse">
<stop stop-color="#6B2121"/>
<stop offset="1" stop-color="#380C0C"/>
</linearGradient>
<linearGradient id="paint3_linear_27_13298" x1="251.607" y1="1.13643" x2="251.607" y2="-11.1364" gradientUnits="userSpaceOnUse">
<stop offset="0.2" stop-color="#918789"/>
<stop offset="0.55" stop-color="#BBB0AE"/>
<stop offset="0.83" stop-color="#D7CCC8"/>
<stop offset="1" stop-color="#E2D7D2"/>
</linearGradient>
<linearGradient id="paint4_linear_27_13298" x1="196" y1="-0.129395" x2="196" y2="73" gradientUnits="userSpaceOnUse">
<stop stop-color="#6B2121"/>
<stop offset="1" stop-color="#380C0C"/>
</linearGradient>
<clipPath id="clip0_27_13298">
<rect width="393" height="73" fill="white"/>
</clipPath>
</defs>
</svg>
