<svg width="226" height="318" viewBox="0 0 226 318" fill="none" xmlns="http://www.w3.org/2000/svg">
<path d="M217.47 317.26H8.78001C4.35001 317.26 0.76001 313.64 0.76001 309.18V8.41992C0.76001 3.95992 4.35001 0.340088 8.78001 0.340088H217.47C221.9 0.340088 225.49 3.95992 225.49 8.41992V309.18C225.49 313.64 221.9 317.26 217.47 317.26Z" fill="url(#paint0_linear_2_20069)"/>
<path d="M211.44 304.73H14.8101C14.5301 304.73 14.3101 304.51 14.3101 304.23V68.1399V13.3601C14.3101 13.0801 14.5301 12.8601 14.8101 12.8601H211.44C211.72 12.8601 211.94 13.0801 211.94 13.3601V304.23C211.94 304.51 211.72 304.73 211.44 304.73ZM15.3101 303.73H210.94V13.8601H15.3101V213.57V303.73Z" fill="#DFD4CF"/>
<path d="M38.6801 158.06C38.6801 199.11 72.0701 232.5 113.12 232.5C154.17 232.5 187.56 199.11 187.56 158.06C187.56 117.01 154.17 83.6201 113.12 83.6201C72.0701 83.6201 38.6801 117.01 38.6801 158.06ZM185.56 158.06C185.56 198 153.06 230.5 113.12 230.5C73.1801 230.5 40.6801 198 40.6801 158.06C40.6801 118.12 73.1801 85.6201 113.12 85.6201C153.06 85.6201 185.56 118.12 185.56 158.06Z" fill="#DFD4CF"/>
<path d="M113.11 88.8C108.17 88.8 102.49 92.19 102.3 96.72C102.23 98.32 102.89 99.98 104.2 101.53C104.57 102.42 105.24 104.58 104.34 106.94C103.82 108.29 102.91 109.42 101.63 110.28C98.5401 110.99 95.5601 112 92.7101 113.27L87.3101 96.3799C87.2001 96.0499 86.9801 95.7801 86.6701 95.6201C86.3601 95.4601 86.0101 95.43 85.6901 95.54C85.3501 95.65 85.0601 95.9 84.9101 96.23C84.7601 96.56 84.7501 96.94 84.8901 97.27L91.7601 113.69C89.5001 114.76 87.3301 116 85.2601 117.39L76.1701 101.55C76.0001 101.25 75.7201 101.03 75.3901 100.94C75.0601 100.85 74.7101 100.89 74.4101 101.07C74.1001 101.25 73.8701 101.55 73.7901 101.91C73.7101 102.27 73.7901 102.64 73.9901 102.93L84.4201 117.92C84.4201 117.92 84.4401 117.93 84.4501 117.94C82.4101 119.38 80.4801 120.97 78.6901 122.7C78.6701 122.64 78.6401 122.58 78.5901 122.53L66.3801 108.95C66.1501 108.69 65.8301 108.54 65.4801 108.52C65.1401 108.5 64.8001 108.62 64.5501 108.85C64.2801 109.09 64.1201 109.44 64.1201 109.8C64.1201 110.16 64.2701 110.51 64.5301 110.76L77.8701 123.23C77.8701 123.23 77.9701 123.31 78.0301 123.33C76.2701 125.09 74.6401 126.98 73.1501 128.98C73.1501 128.98 73.1401 128.96 73.1301 128.95L58.3401 118.23C57.7601 117.81 56.9501 117.94 56.5301 118.52C56.3201 118.81 56.2401 119.18 56.3101 119.54C56.3801 119.9 56.6001 120.21 56.9101 120.39L72.5601 129.77C71.1201 131.8 69.8401 133.95 68.7101 136.19L52.4301 129.01C52.1101 128.87 51.7601 128.86 51.4401 128.99C51.1201 129.12 50.8601 129.36 50.7201 129.67C50.5701 130 50.5701 130.38 50.7201 130.71C50.8701 131.04 51.1501 131.3 51.4901 131.42L68.2401 137.13C66.7801 140.21 65.6301 143.47 64.8401 146.85C64.0101 147.96 62.9601 148.77 61.7301 149.24C59.2401 150.19 57.0301 149.41 56.3201 149.1C54.7601 147.79 53.1001 147.12 51.5001 147.2C46.9601 147.4 43.5801 153.08 43.5801 158.02C43.5801 162.96 46.9701 168.63 51.5001 168.83C53.1001 168.89 54.7701 168.24 56.3201 166.93C57.2001 166.56 59.3601 165.89 61.7301 166.79C62.9701 167.26 64.0101 168.07 64.8401 169.18C65.6201 172.52 66.7501 175.73 68.1801 178.77L51.2601 184.54C50.9201 184.66 50.6401 184.91 50.4901 185.25C50.3401 185.58 50.3401 185.96 50.4901 186.29C50.7001 186.77 51.1801 187.06 51.6801 187.06C51.8501 187.06 52.0301 187.02 52.2001 186.95L68.6301 179.7C69.7401 181.95 71.0201 184.1 72.4601 186.13C72.4201 186.14 72.3801 186.15 72.3401 186.17L56.6801 195.56C56.3701 195.74 56.1501 196.06 56.0801 196.41C56.0101 196.77 56.0801 197.14 56.3001 197.43C56.5001 197.71 56.8001 197.89 57.1401 197.95C57.2101 197.96 57.2801 197.97 57.3501 197.97C57.6201 197.97 57.8801 197.89 58.1101 197.72L72.9001 187C72.9001 187 72.9901 186.92 73.0201 186.87C74.5101 188.9 76.1501 190.82 77.9201 192.6C77.8201 192.61 77.7201 192.65 77.6401 192.72L64.3001 205.19C64.0301 205.44 63.8901 205.79 63.8901 206.15C63.8901 206.51 64.0501 206.86 64.3201 207.1C64.5601 207.31 64.8601 207.43 65.1801 207.43C65.2001 207.43 65.2301 207.43 65.2501 207.43C65.6001 207.41 65.9101 207.26 66.1401 207L78.3501 193.42C78.4201 193.34 78.4601 193.23 78.4701 193.13C80.2701 194.88 82.2101 196.5 84.2601 197.96C84.2401 197.98 84.2101 198 84.1901 198.03L73.7601 213.02C73.5501 213.32 73.4801 213.69 73.5601 214.05C73.6401 214.41 73.8701 214.71 74.1801 214.89C74.3801 215.01 74.6001 215.06 74.8201 215.06C75.2701 215.06 75.7101 214.83 75.9501 214.41L85.0401 198.57C85.0401 198.57 85.0501 198.53 85.0601 198.52C87.1201 199.92 89.2801 201.18 91.5401 202.26L84.6601 218.7C84.5201 219.03 84.5301 219.41 84.6801 219.74C84.8301 220.07 85.1201 220.32 85.4601 220.43C85.5901 220.47 85.7201 220.49 85.8601 220.49C86.0601 220.49 86.2601 220.44 86.4501 220.35C86.7601 220.19 86.9801 219.92 87.0901 219.59L92.4901 202.69C95.4001 204.01 98.4601 205.05 101.64 205.78C102.92 206.64 103.83 207.76 104.35 209.12C105.25 211.47 104.58 213.63 104.21 214.52C102.9 216.08 102.24 217.74 102.31 219.34C102.51 223.88 108.19 227.26 113.13 227.26C118.07 227.26 123.74 223.87 123.94 219.34C124.01 217.74 123.35 216.08 122.04 214.52C121.67 213.63 121 211.48 121.9 209.12C122.68 207.08 124.23 205.92 125.4 205.31C127.94 204.62 130.39 203.72 132.75 202.65L138.16 219.58C138.27 219.91 138.49 220.18 138.8 220.34C138.99 220.44 139.19 220.49 139.39 220.49C139.52 220.49 139.65 220.47 139.78 220.43C140.12 220.32 140.41 220.07 140.56 219.74C140.71 219.41 140.72 219.03 140.58 218.7L133.69 202.23C135.95 201.15 138.13 199.91 140.18 198.51C140.18 198.53 140.19 198.55 140.2 198.57L149.29 214.41C149.53 214.83 149.97 215.06 150.42 215.06C150.64 215.06 150.86 215 151.06 214.89C151.37 214.71 151.6 214.41 151.68 214.05C151.76 213.69 151.68 213.32 151.48 213.03L141.05 198.04C141.05 198.04 140.99 197.98 140.96 197.95C143.02 196.49 144.96 194.87 146.77 193.11C146.77 193.22 146.81 193.34 146.89 193.43L159.1 207.01C159.33 207.27 159.65 207.42 159.99 207.44C160.01 207.44 160.04 207.44 160.06 207.44C160.38 207.44 160.68 207.32 160.92 207.11C161.19 206.87 161.35 206.52 161.35 206.16C161.35 205.8 161.2 205.45 160.94 205.2L147.6 192.73C147.51 192.65 147.41 192.61 147.3 192.6C149.08 190.81 150.71 188.88 152.2 186.83C152.23 186.89 152.28 186.95 152.34 186.99L167.13 197.7C167.35 197.86 167.62 197.95 167.89 197.95C167.96 197.95 168.03 197.95 168.1 197.93C168.44 197.88 168.74 197.69 168.94 197.41C169.15 197.12 169.23 196.75 169.16 196.39C169.09 196.03 168.87 195.72 168.56 195.54L152.9 186.15C152.85 186.12 152.79 186.1 152.73 186.09C154.16 184.05 155.45 181.91 156.56 179.66L173.03 186.93C173.2 187 173.38 187.04 173.55 187.04C174.05 187.04 174.52 186.75 174.74 186.27C174.89 185.94 174.89 185.56 174.74 185.23C174.59 184.9 174.31 184.64 173.97 184.52L156.99 178.73C158.24 176.05 159.28 173.24 160.04 170.32C160.54 169.49 161.91 167.61 164.48 166.78C166.92 165.98 169.05 166.59 169.92 166.93C171.48 168.24 173.14 168.88 174.74 168.82C179.18 168.62 182.48 162.97 182.66 158.01C182.7 156.93 182.62 153.17 179.94 150.14C179.06 149.14 177.41 147.29 174.74 147.18C172.37 147.09 170.62 148.41 169.91 149.07C169.03 149.4 166.91 150.01 164.48 149.22C161.91 148.38 160.54 146.5 160.04 145.67C159.26 142.66 158.19 139.77 156.88 137.01L173.75 131.26C174.09 131.14 174.37 130.89 174.52 130.55C174.67 130.22 174.66 129.84 174.52 129.51C174.38 129.19 174.13 128.95 173.8 128.83C173.48 128.71 173.13 128.71 172.81 128.85L156.43 136.08C155.3 133.83 154 131.69 152.56 129.66C152.6 129.65 152.64 129.65 152.68 129.63L168.34 120.24C168.65 120.06 168.87 119.74 168.94 119.39C169.01 119.03 168.94 118.66 168.72 118.37C168.3 117.79 167.49 117.66 166.91 118.08L152.12 128.8C152.12 128.8 152.05 128.87 152.02 128.91C150.52 126.88 148.87 124.97 147.08 123.2C147.19 123.2 147.3 123.15 147.38 123.07L160.72 110.6C160.99 110.35 161.14 110 161.13 109.64C161.13 109.28 160.97 108.93 160.7 108.69C160.44 108.46 160.11 108.34 159.77 108.36C159.42 108.38 159.11 108.53 158.87 108.79L146.66 122.37C146.58 122.46 146.54 122.58 146.54 122.69C144.72 120.94 142.77 119.33 140.7 117.88C140.75 117.85 140.8 117.81 140.83 117.76L151.26 102.77C151.47 102.47 151.54 102.1 151.46 101.74C151.38 101.38 151.15 101.08 150.84 100.9C150.54 100.73 150.19 100.68 149.86 100.77C149.53 100.86 149.25 101.08 149.08 101.38L139.99 117.22C139.99 117.22 139.96 117.3 139.95 117.34C137.89 115.95 135.7 114.74 133.43 113.67L140.36 97.1001C140.5 96.7701 140.49 96.3901 140.34 96.0601C140.19 95.7301 139.9 95.4801 139.56 95.3701C139.23 95.2701 138.88 95.29 138.57 95.45C138.26 95.61 138.04 95.88 137.93 96.21L132.49 113.24C130.21 112.23 127.84 111.36 125.39 110.7C124.22 110.09 122.68 108.94 121.89 106.9C120.99 104.54 121.66 102.38 122.03 101.49C123.34 99.94 124 98.2799 123.93 96.6799C123.74 92.1399 118.06 88.76 113.11 88.76V88.8ZM122.94 96.76C123.01 98.48 122.05 99.9799 121.23 100.93C121.2 100.97 121.17 101.01 121.15 101.06C120.74 102.01 119.91 104.53 120.96 107.29C121.87 109.65 123.64 110.96 124.97 111.64C125 111.65 125.02 111.67 125.05 111.67C125.07 111.67 125.09 111.68 125.11 111.69C141.76 116.16 154.78 129.32 159.08 146.03C159.09 146.07 159.11 146.12 159.13 146.16C159.66 147.06 161.2 149.25 164.16 150.22C166.98 151.14 169.43 150.39 170.35 150.02C170.41 150 170.46 149.96 170.51 149.92C171.08 149.39 172.59 148.14 174.68 148.24C176.93 148.33 178.33 149.92 179.17 150.87C181.61 153.62 181.68 157.05 181.64 158.04C181.47 162.55 178.46 167.72 174.68 167.88C172.97 167.96 171.45 166.99 170.49 166.17C170.45 166.13 170.4 166.11 170.35 166.09C169.43 165.72 166.98 164.97 164.16 165.89C161.21 166.85 159.66 169.04 159.13 169.93C159.11 169.97 159.09 170.01 159.08 170.06C154.78 186.76 141.76 199.93 125.11 204.41C125.11 204.41 125.07 204.42 125.05 204.43C125.03 204.43 125 204.45 124.98 204.46C123.65 205.14 121.88 206.46 120.97 208.81C119.91 211.57 120.75 214.08 121.16 215.03C121.18 215.08 121.21 215.12 121.24 215.16C122.06 216.12 123.02 217.63 122.95 219.35C122.78 223.27 117.53 226.31 113.14 226.31C108.74 226.31 103.49 223.27 103.32 219.35C103.24 217.63 104.21 216.12 105.03 215.16C105.06 215.12 105.09 215.08 105.11 215.03C105.52 214.08 106.35 211.57 105.3 208.81C104.7 207.23 103.63 205.92 102.12 204.94C102.06 204.9 101.99 204.88 101.92 204.87C84.1301 200.82 69.9701 186.73 65.8401 168.95C65.8301 168.87 65.8001 168.79 65.7501 168.72C64.7901 167.4 63.5701 166.45 62.1201 165.89C59.3401 164.85 56.8401 165.67 55.8901 166.07C55.8401 166.09 55.8001 166.12 55.7601 166.15C54.8001 166.97 53.2901 167.93 51.5701 167.86C47.6501 167.69 44.6101 162.44 44.6101 158.05C44.6101 153.65 47.6501 148.4 51.5701 148.22C53.2801 148.18 54.8001 149.11 55.7601 149.93C55.8001 149.96 55.8401 149.99 55.8801 150.01C56.6001 150.34 59.1901 151.32 62.1201 150.2C63.5701 149.64 64.7901 148.69 65.7501 147.37C65.7901 147.31 65.8201 147.23 65.8401 147.16C69.9701 129.38 84.1401 115.28 101.85 111.25C101.95 111.25 102.04 111.22 102.12 111.17C103.62 110.18 104.69 108.88 105.3 107.3C106.36 104.54 105.52 102.02 105.11 101.07C105.09 101.02 105.06 100.98 105.03 100.94C104.21 99.9799 103.25 98.48 103.32 96.77C103.49 92.85 108.73 89.8101 113.13 89.8101C117.53 89.8101 122.78 92.85 122.95 96.77L122.94 96.76Z" fill="#DFD4CF"/>
<path d="M112.65 122.72C109.54 122.4 106.36 122.75 103.46 123.74C101.36 124.45 96.9802 125.94 93.9602 130.39C91.7502 133.65 91.2302 137.06 91.2102 139.48C89.8902 140.32 88.5502 140.92 87.3002 141.48C84.7502 142.62 82.5502 143.63 81.6402 146.18C79.1802 147.03 77.4202 148.35 76.4102 150.12C75.5802 151.57 75.5502 152.79 75.5102 154.47C75.4902 155.46 75.4602 156.57 75.2702 158.05C74.9602 160.51 74.4902 161.65 74.1102 162.57C73.7402 163.48 73.4202 164.26 73.4302 165.74C73.4702 170.18 76.3502 175.81 81.6302 177.49C82.7502 177.85 83.8302 177.99 84.8602 177.99C87.2002 177.99 89.1902 177.25 90.4802 176.63C90.5502 176.95 90.6202 177.25 90.6902 177.52C91.2402 179.88 91.4602 180.84 92.2002 182.01C92.8102 185.47 94.3102 188.42 96.5302 190.52C99.1102 192.97 102.27 193.57 108.01 194.67C112.79 195.59 116.2 196.24 119.17 196.24C121.34 196.24 123.28 195.89 125.35 195.05C127.98 193.97 130.35 192.28 132.39 190.01C133.29 189.73 134.12 189.32 134.9 188.7C138.26 186.01 138.34 181.21 138.18 179.02C141.07 178.36 143.57 177.14 145.63 175.36C151.28 170.47 152.53 162.34 151.88 156.87C151.41 152.85 149.96 149.85 148 148.84C147.81 148.74 147.55 148.63 147.24 148.5C146.07 148.01 144.3 147.26 143.44 145.68C143.13 145.12 142.98 144.55 142.98 144.55C142.77 143.73 142.87 143.19 143 142.5C143.09 142.01 143.2 141.45 143.18 140.75C143.17 140.19 143.02 138.24 141.72 136.84C140.24 135.24 138.05 135.16 136.89 135.24C136.49 134.41 135.99 133.58 135.39 132.76C132.49 128.85 128.58 127.29 126.3 126.68C125.66 125.51 123.62 122.38 119.58 121.55C116.4 120.89 113.81 122.05 112.66 122.71L112.65 122.72ZM87.9102 142.86C90.5002 141.7 93.7202 140.26 96.4302 136.74C96.9902 136.01 97.4302 135.33 97.8502 134.67C98.7502 133.26 99.5302 132.03 101.32 130.7C102.16 130.08 103.95 128.93 106.45 128.25C108.03 127.82 110.96 127.03 114.11 128.22C115.19 128.63 116.66 129.18 117.64 130.74C118.32 131.83 118.48 132.97 118.48 133.83C117.03 133.58 114.96 133.52 113.1 134.86C111.17 136.26 110.56 138.35 110.38 139.62C107.26 139.14 104.78 139.27 102.2 140.66C100.73 141.46 99.5702 142.49 98.6602 143.59C97.1702 143.77 95.6802 144.05 94.2502 144.47C90.3102 145.62 86.1202 147.73 83.1002 150.5C82.7102 149.21 82.6402 148.03 82.9402 146.99C83.5602 144.82 85.3802 144 87.9102 142.87V142.86ZM143.26 158.2C143.36 158.38 143.54 158.51 143.75 158.56C144.57 158.74 145.69 159.17 146.4 160.19C147.01 161.06 147.06 162 147.08 162.41C147.2 164.99 145.05 170.85 138.61 176.39C134.76 179.7 132.21 181.89 128.36 182.06C126.48 182.14 124.75 181.72 123.26 181.14C124.52 178.24 126.1 175.91 127.99 174.21C128.72 173.82 129.46 173.3 130.22 172.58C131 172.12 131.8 171.76 132.64 171.38C134.73 170.43 136.9 169.44 138.72 166.96C140.01 165.21 140.49 163.56 140.72 162.77C142.36 157.22 140.22 151.76 138.57 148.67C139.86 149.09 141.64 150.01 142.72 151.98C144.06 154.44 143.43 156.9 143.2 157.6C143.13 157.8 143.16 158.02 143.26 158.2ZM99.0602 161.36C99.0602 161.36 99.0602 161.35 99.0602 161.34C99.0602 161.29 99.0602 161.24 99.0602 161.19C99.0602 161.14 99.0602 161.09 99.0602 161.04C99.0602 161.04 99.0602 161.03 99.0602 161.02C99.0502 160.98 99.0202 160.94 99.0102 160.91C98.9902 160.87 98.9902 160.83 98.9602 160.79C98.2002 159.64 95.8102 155.5 97.0002 150.3C97.3102 148.93 98.6602 144.29 102.93 141.97C104.39 141.18 105.83 140.85 107.46 140.85C108.5 140.85 109.62 140.98 110.87 141.21C110.91 141.21 110.94 141.23 110.98 141.23C112.42 141.49 114.03 141.87 115.9 142.31C121.67 143.67 125.84 144.65 127.74 148.15C129.18 150.79 129.05 154.21 129 155.5C128.98 155.95 128.94 156.41 128.89 156.86C128.4 155.34 127.72 153.9 126.82 152.64C123.08 147.37 116.08 144.65 110.18 146.17C109.08 146.45 105.72 147.32 103.57 150.43C101.46 153.47 100.79 158.25 102.88 160.84C102.25 161.48 101.59 162.39 101.22 163.59C100.39 166.24 101.47 168.55 102.21 169.73C102.11 169.67 102 169.61 101.9 169.54C100.72 168.77 100.26 168.15 100.11 167.95C98.4502 165.74 98.7502 162.87 99.0702 161.36H99.0602ZM95.5202 149.97C95.2502 151.16 95.1502 152.3 95.1702 153.37C93.8602 153.59 92.1702 154.14 90.6602 155.45C88.2602 157.54 87.7702 160.31 87.5302 161.65C87.1202 163.96 87.4902 165.28 88.4502 168.79C88.7902 170.02 89.2102 171.54 89.7002 173.49C89.8002 173.87 89.8802 174.23 89.9702 174.57C88.6702 174.26 87.6102 173.71 86.8202 172.9C86.1102 172.17 85.9602 171.6 85.7102 170.66C85.4802 169.81 85.2002 168.74 84.4002 167.25C83.6502 165.85 82.9502 165.02 82.3302 164.28C81.5702 163.37 81.0202 162.71 80.6302 161.31C80.5902 161.15 80.2002 159.68 80.3402 158.14C80.8902 152.07 89.2002 147.51 94.6502 145.92C95.5602 145.66 96.4902 145.46 97.4302 145.3C96.2302 147.27 95.6902 149.16 95.5102 149.99L95.5202 149.97ZM129.95 170.7C129.73 170.95 129.5 171.18 129.28 171.4C128.54 171.84 127.84 172.36 127.18 172.94C125.94 173.59 124.63 173.84 123.31 173.64C121.04 173.3 119.1 171.76 118.07 169.56C118.13 169.54 118.19 169.52 118.25 169.5C122.08 167.99 124.6 163.96 124.36 159.7C124.05 154 118.84 151.3 118.79 151.27C115.49 149.59 110.59 149.25 107.63 152.5C105.62 154.7 105.03 157.95 105.98 161.04C105.37 160.9 104.84 160.66 104.42 160.31C102.34 158.53 102.91 153.99 104.79 151.28C106.63 148.63 109.57 147.87 110.54 147.62C115.86 146.25 122.19 148.73 125.58 153.51C127 155.5 127.88 157.93 128.14 160.53C128.14 160.53 128.14 160.53 128.14 160.54C128.15 160.63 128.18 160.71 128.21 160.78C128.22 160.8 128.24 160.83 128.25 160.85C128.28 160.9 128.32 160.95 128.36 160.99C128.38 161.01 128.41 161.03 128.43 161.05C128.48 161.09 128.53 161.11 128.59 161.14C128.61 161.14 128.62 161.16 128.64 161.17C128.65 161.17 128.66 161.17 128.67 161.17C128.68 161.17 128.69 161.18 128.71 161.18C129.69 161.39 131.02 161.88 131.78 163.02C133.31 165.33 131.45 168.95 129.92 170.69L129.95 170.7ZM107.84 162.07C107.84 162.07 107.84 162.06 107.84 162.05C108.29 159.49 110.34 157.31 112.71 156.87C113.49 156.73 115.44 156.53 116.8 157.82C117.59 158.57 118.53 160.15 117.9 161.45C117.54 162.19 116.52 163.11 115.38 162.85C114.59 162.67 113.94 161.97 113.72 161.07C113.62 160.67 113.22 160.42 112.82 160.51C112.42 160.61 112.17 161.01 112.26 161.41C112.61 162.86 113.7 164 115.04 164.31C116.87 164.73 118.57 163.49 119.24 162.11C120.16 160.22 119.15 158 117.82 156.74C116.51 155.5 114.54 155.02 112.43 155.41C110.18 155.83 108.21 157.4 107.13 159.51C106.76 157.28 107.32 155.08 108.73 153.53C111.53 150.46 116.08 151.59 118.11 152.62C118.15 152.64 122.6 154.95 122.86 159.79C123.06 163.41 120.93 166.84 117.69 168.11C114.13 169.51 109.61 168.22 108.2 165.41C107.5 164.02 107.75 162.57 107.83 162.08L107.84 162.07ZM105.58 171.01C104.74 170.49 104.02 169.79 103.5 168.99C102.9 168.05 101.98 166.16 102.64 164.04C102.94 163.07 103.49 162.35 104 161.84C104.64 162.25 105.39 162.51 106.25 162.62C106.18 163.48 106.2 164.77 106.86 166.08C108.14 168.64 111.31 170.18 114.59 170.18C115.26 170.18 115.94 170.11 116.61 169.97C117.81 172.74 120.23 174.69 123.08 175.12C123.43 175.17 123.82 175.21 124.23 175.21C124.49 175.21 124.77 175.19 125.05 175.16C123.84 176.67 122.78 178.47 121.88 180.53C120.33 179.75 119.16 178.88 118.57 178.43C116.73 177.04 116.07 176 115.49 175.08C114.86 174.09 114.27 173.15 112.5 172.32C110.76 171.5 109.18 171.37 107.66 171.25C106.96 171.19 106.27 171.14 105.57 171.02L105.58 171.01ZM136.33 147.67C136.33 147.67 136.35 147.73 136.36 147.77C136.37 147.82 136.38 147.86 136.4 147.9C136.4 147.92 136.42 147.93 136.43 147.95V147.97C137.88 150.29 141.05 156.32 139.27 162.35C139.06 163.06 138.62 164.54 137.49 166.08C136.01 168.1 134.26 168.99 132.4 169.84C133.68 167.68 134.66 164.64 133.05 162.21C132.21 160.94 130.93 160.28 129.81 159.93C130.19 158.5 130.42 157.04 130.48 155.57C130.53 154.17 130.67 150.44 129.04 147.45C126.81 143.36 122.14 142.26 116.22 140.87C114.62 140.49 113.18 140.15 111.85 139.89C111.99 138.92 112.45 137.18 113.97 136.09C115.91 134.68 118.25 135.29 119.37 135.58C121.9 136.24 123.47 137.94 124.18 138.9C124.36 139.15 124.67 139.25 124.97 139.18C125.67 139 129.32 138.25 132.62 140.68C135.96 143.14 136.29 146.9 136.32 147.63V147.65C136.32 147.66 136.32 147.68 136.32 147.69L136.33 147.67ZM82.0802 176.06C77.4702 174.59 74.9502 169.64 74.9202 165.73C74.9202 164.55 75.1402 163.99 75.4902 163.14C75.9002 162.14 76.4102 160.9 76.7502 158.24C76.9502 156.69 76.9802 155.48 77.0002 154.51C77.0402 152.94 77.0602 151.99 77.7102 150.86C78.4202 149.62 79.6202 148.64 81.2702 147.93C81.1902 149.1 81.4202 150.36 81.9302 151.68C80.2302 153.56 79.0802 155.69 78.8702 157.98C78.7102 159.75 79.1202 161.37 79.2102 161.68C79.6802 163.4 80.4202 164.28 81.2002 165.22C81.7702 165.9 82.4202 166.68 83.1002 167.94C83.8202 169.28 84.0702 170.21 84.2802 171.03C84.5502 172.04 84.7802 172.92 85.7702 173.93C86.5602 174.74 87.5802 175.33 88.7602 175.74C87.0702 176.38 84.6602 176.87 82.1002 176.05L82.0802 176.06ZM91.1602 173.11C90.6602 171.15 90.2402 169.62 89.9002 168.38C88.9502 164.92 88.6602 163.88 89.0102 161.9C89.2302 160.65 89.6402 158.32 91.6402 156.58C92.8402 155.54 94.1802 155.08 95.2602 154.88C95.5702 157.5 96.5102 159.58 97.1902 160.79C96.3502 161.13 95.4402 161.71 94.7802 162.68C93.0102 165.32 94.6302 168.76 95.1602 169.75C95.7502 170.83 96.3102 171.33 96.9002 171.86C97.4002 172.3 97.9102 172.75 98.5702 173.67C99.4402 174.89 99.6202 175.59 99.8102 176.33C99.9802 177.02 100.16 177.73 100.85 178.7C103.07 181.88 107.31 183.16 111.81 184.51L112.25 184.64C113.32 184.95 114.24 185.23 115.32 185.97C116.23 186.6 117.03 187.42 117.7 188.39C113.37 187.78 110.56 187.8 108.26 187.82C105.34 187.84 103.41 187.86 100.27 186.47C98.4302 185.65 95.6502 184.42 93.6802 181.57C93.6202 181.48 93.5702 181.4 93.5202 181.32C93.5202 181.32 93.5202 181.32 93.5202 181.31C92.8702 180.3 92.6902 179.53 92.1402 177.18C91.9002 176.15 91.6002 174.85 91.1602 173.11ZM124.77 193.66C120.26 195.5 116.26 194.73 108.28 193.2C102.41 192.07 99.7302 191.49 97.5502 189.43C96.2202 188.17 95.1802 186.55 94.4702 184.68C96.3102 186.33 98.3202 187.24 99.6702 187.84C103.11 189.37 105.28 189.34 108.28 189.32C110.79 189.3 113.92 189.27 119.05 190.11L119.59 190.2C121.18 190.47 123.08 190.78 125.49 190.78C126.09 190.78 126.72 190.76 127.38 190.72C128.2 190.66 128.98 190.61 129.73 190.52C128.22 191.87 126.56 192.92 124.76 193.65L124.77 193.66ZM133.95 187.53C132.24 188.89 130.06 189.04 127.29 189.23C124.13 189.45 121.76 189.05 119.85 188.73L119.65 188.7C118.75 187.05 117.6 185.72 116.19 184.74C114.91 183.86 113.83 183.54 112.69 183.21L112.26 183.08C107.84 181.75 104.02 180.6 102.1 177.85C101.57 177.1 101.45 176.6 101.29 175.96C101.09 175.16 100.86 174.25 99.8202 172.8C99.0602 171.75 98.4602 171.21 97.9302 170.74C97.3702 170.25 96.9702 169.89 96.5102 169.04C96.0702 168.23 94.7502 165.46 96.0502 163.52C96.4102 162.98 96.9002 162.62 97.4002 162.37C97.2002 164.21 97.3202 166.74 98.9102 168.86C99.4302 169.55 100.14 170.19 101.08 170.81C103.54 172.43 105.58 172.59 107.56 172.75C109.01 172.87 110.38 172.98 111.88 173.68C113.25 174.33 113.65 174.95 114.24 175.89C114.86 176.87 115.63 178.08 117.69 179.64C119.01 180.63 122.91 183.58 127.89 183.58C128.07 183.58 128.25 183.58 128.43 183.57C131.67 183.43 134.08 182.04 136.72 179.95C136.76 182.01 136.43 185.57 133.96 187.54L133.95 187.53ZM140.62 137.87C141.56 138.88 141.67 140.37 141.68 140.8C141.69 141.33 141.61 141.77 141.53 142.23C141.39 142.99 141.24 143.79 141.53 144.93C141.53 144.96 141.72 145.69 142.13 146.42C143.25 148.45 145.39 149.36 146.67 149.89C146.93 150 147.15 150.09 147.32 150.18C148.79 150.94 149.99 153.64 150.4 157.06C151 162.17 149.86 169.74 144.66 174.24C143.45 175.28 142.05 176.09 140.51 176.72C147.12 170.65 148.71 164.72 148.59 162.35C148.57 161.86 148.51 160.57 147.65 159.35C146.87 158.24 145.79 157.65 144.85 157.32C145.13 156.03 145.35 153.65 144.05 151.27C142.4 148.25 139.5 147.28 138.03 146.98C138.47 145.12 139.09 141.04 137.52 136.74C138.44 136.74 139.76 136.93 140.63 137.88L140.62 137.87ZM125.1 127.66C125.2 127.86 125.38 128.01 125.6 128.06C127.62 128.55 131.41 129.93 134.17 133.66C136.79 137.19 137.13 141.1 136.94 143.85C136.33 142.39 135.28 140.76 133.5 139.45C130.16 136.99 126.51 137.34 125.08 137.6C124.17 136.49 122.49 134.9 119.96 134.17C120.01 133.07 119.87 131.47 118.9 129.93C117.66 127.95 115.76 127.24 114.63 126.81C111.03 125.44 107.67 126.36 106.05 126.8C103.31 127.54 101.34 128.8 100.42 129.49C98.4102 130.99 97.5202 132.38 96.5802 133.85C96.1802 134.48 95.7602 135.13 95.2402 135.81C94.4502 136.84 93.6102 137.66 92.7502 138.35C92.9102 136.28 93.5102 133.7 95.1902 131.23C97.9202 127.2 101.98 125.82 103.93 125.16C106.71 124.22 109.75 123.9 112.72 124.24C112.89 124.26 113.06 124.22 113.2 124.13C114.06 123.6 116.37 122.43 119.25 123.03C123.06 123.82 124.78 127.03 125.09 127.66H125.1Z" fill="#DFD4CF"/>
<path d="M110.61 94.03C110.61 94.03 110.54 94.03 110.51 94.03C109.18 94.06 108.53 94.7701 108.21 95.3601C107.66 96.3701 107.71 97.82 108.31 98.8C109.22 100.28 109.71 100.79 110.6 101.7L110.68 101.78C110.84 101.94 111 102.11 111.17 102.28C111.9 103.03 112.66 103.81 112.98 104.31C112.98 104.34 113.01 104.38 113.04 104.41L113.06 104.45H113.13H113.19L113.21 104.42C113.21 104.42 113.26 104.35 113.27 104.32C113.59 103.82 114.35 103.04 115.08 102.29C115.24 102.12 115.41 101.96 115.57 101.79L115.65 101.71C116.54 100.79 117.02 100.29 117.94 98.8101C118.55 97.8301 118.59 96.3801 118.04 95.3701C117.72 94.7801 117.06 94.07 115.74 94.04C115.71 94.04 115.67 94.04 115.64 94.04C114 94.04 113.37 95.0701 113.12 95.8501C112.88 95.0701 112.24 94.04 110.6 94.04L110.61 94.03Z" fill="#DFD4CF"/>
<path d="M115.23 215.09C114.48 214.2 113.79 213.25 113.17 212.26L113.07 212.09L112.96 212.26C112.25 213.37 111.45 214.44 110.6 215.43C110 216.12 109.37 216.79 108.72 217.41L108.63 217.5L108.72 217.59C109.58 218.44 110.4 219.35 111.15 220.3C111.79 221.1 112.4 221.95 112.96 222.82L113.06 222.98L113.17 222.82C113.73 221.98 114.34 221.16 114.98 220.38C115.77 219.41 116.63 218.49 117.53 217.62L117.63 217.53L117.53 217.44C116.72 216.71 115.95 215.92 115.24 215.08L115.23 215.09Z" fill="#DFD4CF"/>
<path d="M57.18 157.4C57.59 156.88 57.75 156.64 57.82 155.72C57.91 154.57 57.18 154.04 56.75 153.72L56.69 153.68C56.29 153.38 54.87 152.78 53.67 153.88C52.87 154.61 52.94 155.61 53.06 156.17C52.7 155.88 52.32 155.7 51.7 155.75H51.62C50.34 155.75 49.29 156.79 49.29 158.08C49.29 159.37 50.34 160.41 51.62 160.41C51.78 160.41 51.94 160.39 52.08 160.36C52.49 160.32 52.78 160.16 53.06 159.94C52.94 160.5 52.87 161.5 53.67 162.23C54.19 162.71 54.75 162.86 55.25 162.86C55.91 162.86 56.46 162.59 56.69 162.42L56.75 162.38C57.18 162.06 57.91 161.53 57.82 160.38C57.75 159.46 57.59 159.22 57.18 158.7C58.47 158.87 59.35 159.63 59.36 159.64L59.57 159.82V156.24L59.36 156.44C58.86 156.92 57.81 157.33 57.18 157.38V157.4Z" fill="#DFD4CF"/>
<path d="M168.45 158.89C168.25 159.15 168.13 159.45 168.09 159.79C167.89 161.39 168.81 162.45 169.82 162.66C170.09 162.72 170.36 162.75 170.62 162.75C171.54 162.75 172.38 162.4 173.14 161.7C173.75 161.14 174.34 160.54 174.87 160.02C175.32 159.57 175.7 159.18 175.97 158.95C176.44 158.54 176.78 158.27 176.87 158.19L176.99 158.04L176.86 157.94C176.58 157.71 176.26 157.45 175.96 157.18C175.69 156.95 175.31 156.56 174.86 156.1C174.34 155.57 173.75 154.98 173.14 154.42C172.16 153.53 171.05 153.2 169.82 153.46C168.81 153.67 167.89 154.73 168.09 156.33C168.13 156.67 168.25 156.97 168.45 157.23C167.41 157 166.86 156.44 166.86 156.44L166.65 156.22V159.81L166.86 159.62C167.32 159.21 167.94 159 168.46 158.9L168.45 158.89Z" fill="#DFD4CF"/>
<path d="M200.43 88.1201C200.43 83.7501 196.87 80.1899 192.5 80.1899C188.13 80.1899 184.57 83.7501 184.57 88.1201C184.57 92.4901 188.13 96.05 192.5 96.05C196.87 96.05 200.43 92.4901 200.43 88.1201ZM186.08 88.1201C186.08 84.5801 188.96 81.6899 192.51 81.6899C196.06 81.6899 198.94 84.5701 198.94 88.1201C198.94 91.6701 196.06 94.55 192.51 94.55C188.96 94.55 186.08 91.6701 186.08 88.1201Z" fill="#DFD4CF"/>
<path d="M195.34 88.1201C195.34 86.5601 194.07 85.29 192.51 85.29C190.95 85.29 189.68 86.5601 189.68 88.1201C189.68 89.6801 190.95 90.95 192.51 90.95C194.07 90.95 195.34 89.6801 195.34 88.1201Z" fill="#DFD4CF"/>
<path d="M193.5 217.08V100.49C199.89 99.9801 204.93 94.6302 204.93 88.1102C204.93 81.5902 200.11 76.4901 193.94 75.7701C193.91 70.0501 193.11 64.4502 191.55 59.1102C189.05 50.5302 185.16 43.13 180.11 37.15C180.67 35.79 181.01 34.3901 181.09 32.9701C181.48 26.0401 175.87 21.2302 174.74 20.3302C169.12 15.8702 160.4 15.35 154.46 19.13C153.46 19.76 152.34 20.6601 151.33 21.7201H138.44C138.14 19.2201 136.03 17.2801 133.46 17.2801C130.68 17.2801 128.42 19.5402 128.42 22.3202C128.42 25.1002 130.68 27.3602 133.46 27.3602C135.93 27.3602 137.98 25.5701 138.41 23.2201H150.06C148.83 24.9001 148.08 26.8002 148.54 28.6002C148.87 29.9202 149.69 30.4701 151.17 31.4701C151.83 31.9201 152.66 32.4801 153.71 33.2701C154.26 33.6801 159.17 37.4602 163.06 42.6202C164.54 44.5902 165.86 46.7401 166.97 49.0401C166.97 49.0501 166.98 49.0602 166.99 49.0702C167.63 51.1202 169.52 52.6202 171.78 52.6202C174.56 52.6202 176.82 50.3602 176.82 47.5802C176.82 44.8002 174.56 42.5401 171.78 42.5401C169.57 42.5401 167.71 43.98 167.03 45.96C166.18 44.48 165.26 43.0501 164.26 41.7201C161.5 38.0701 158.26 35.09 156.31 33.44C159.85 32.75 163.86 32.4001 165.88 33.2301C166.26 33.3901 166.96 33.6702 167.27 34.3302C167.48 34.7802 167.59 35.7001 167.02 36.2301C166.88 36.3501 166.72 36.4501 166.55 36.5101C166.58 36.3801 166.6 36.2502 166.6 36.1202C166.6 35.2202 165.87 34.4901 164.97 34.4901C164.07 34.4901 163.34 35.2202 163.34 36.1202C163.34 36.5902 163.54 37.0101 163.86 37.3001C163.88 37.3201 163.89 37.3402 163.91 37.3602C163.95 37.3902 163.99 37.41 164.02 37.44C164.05 37.46 164.08 37.4801 164.1 37.5001C164.68 37.9001 165.35 38.1102 166 38.1102C166.74 38.1102 167.47 37.8502 168.02 37.3402C169.11 36.3302 169.1 34.75 168.62 33.71C168.07 32.51 166.93 32.0402 166.43 31.8402C163.28 30.5502 157.1 31.7101 154.79 32.2201C154.71 32.1601 154.64 32.1102 154.6 32.0802C153.52 31.2702 152.68 30.7001 152 30.2401C150.56 29.2701 150.17 28.9801 149.99 28.2501C149.32 25.5901 152.67 22.07 155.26 20.42C160.69 16.97 168.67 17.4501 173.81 21.5301C174.84 22.3401 179.94 26.71 179.59 32.91C179.53 33.92 179.33 34.91 178.99 35.89C175.84 32.41 172.26 29.4502 168.3 27.0802C165.43 25.3602 162.35 23.95 159.14 22.88C158.62 22.71 158.05 22.9901 157.88 23.5101C157.71 24.0301 157.99 24.6001 158.51 24.7701C161.58 25.7901 164.53 27.1401 167.27 28.7801C177.85 35.1101 185.58 45.79 189.63 59.68C191.13 64.82 191.9 70.2101 191.94 75.7201C185.35 76.0201 180.08 81.4602 180.08 88.1202C180.08 94.7802 185.12 99.9801 191.51 100.5V217.09C185.13 217.6 180.08 222.95 180.08 229.47C180.08 235.99 185.33 241.55 191.9 241.87C191.86 247.38 191.09 252.78 189.59 257.92C185.54 271.81 177.81 282.49 167.23 288.82C164.48 290.46 161.54 291.81 158.47 292.83C157.95 293 157.66 293.57 157.84 294.09C157.98 294.51 158.37 294.77 158.79 294.77C158.89 294.77 159 294.75 159.11 294.72C162.32 293.65 165.4 292.24 168.27 290.52C172.23 288.15 175.81 285.19 178.96 281.71C179.29 282.69 179.5 283.68 179.56 284.69C179.91 290.88 174.81 295.25 173.78 296.07C168.63 300.15 160.66 300.63 155.23 297.18C152.63 295.53 149.28 292.01 149.96 289.35C150.15 288.61 150.53 288.33 151.97 287.35C152.65 286.89 153.49 286.32 154.57 285.51C154.61 285.48 154.68 285.43 154.76 285.37C156.3 285.71 159.55 286.33 162.49 286.33C163.96 286.33 165.35 286.17 166.4 285.75C166.89 285.55 168.03 285.08 168.58 283.88C169.06 282.84 169.07 281.26 167.98 280.25C166.94 279.29 165.29 279.24 164.06 280.1C164.03 280.12 164 280.14 163.97 280.16C163.93 280.19 163.89 280.21 163.86 280.24C163.84 280.26 163.83 280.28 163.81 280.3C163.49 280.6 163.29 281.02 163.29 281.48C163.29 282.38 164.02 283.11 164.92 283.11C165.82 283.11 166.55 282.38 166.55 281.48C166.55 281.34 166.53 281.21 166.5 281.08C166.67 281.14 166.84 281.23 166.97 281.36C167.54 281.89 167.43 282.81 167.22 283.26C166.92 283.92 166.21 284.21 165.83 284.36C163.81 285.18 159.8 284.83 156.26 284.15C158.21 282.5 161.46 279.52 164.21 275.87C165.22 274.54 166.14 273.11 166.98 271.63C167.66 273.61 169.52 275.05 171.73 275.05C174.51 275.05 176.77 272.79 176.77 270.01C176.77 267.23 174.51 264.97 171.73 264.97C169.47 264.97 167.57 266.48 166.94 268.53C166.94 268.53 166.93 268.54 166.92 268.55C165.81 270.84 164.49 273 163.01 274.96C159.12 280.12 154.21 283.9 153.66 284.31C152.61 285.1 151.79 285.66 151.12 286.11C149.64 287.11 148.83 287.66 148.49 288.98C148.04 290.77 148.79 292.67 150.01 294.36H138.36C137.93 292.01 135.88 290.22 133.41 290.22C130.63 290.22 128.37 292.48 128.37 295.26C128.37 298.04 130.63 300.3 133.41 300.3C135.99 300.3 138.09 298.35 138.39 295.86H151.28C152.29 296.91 153.41 297.81 154.41 298.45C157.07 300.14 160.29 300.97 163.54 300.97C167.54 300.97 171.59 299.71 174.7 297.25C175.83 296.36 181.44 291.54 181.05 284.61C180.97 283.19 180.63 281.79 180.07 280.43C185.13 274.45 189.01 267.05 191.51 258.47C193.07 253.13 193.86 247.53 193.9 241.8C200.1 241.1 204.93 235.84 204.93 229.46C204.93 223.08 199.89 217.6 193.5 217.08ZM133.45 25.8702C131.5 25.8702 129.91 24.2802 129.91 22.3302C129.91 20.3802 131.5 18.7901 133.45 18.7901C135.4 18.7901 136.99 20.3802 136.99 22.3302C136.99 24.2802 135.4 25.8702 133.45 25.8702ZM171.77 44.0401C173.72 44.0401 175.31 45.6302 175.31 47.5802C175.31 49.5302 173.72 51.1202 171.77 51.1202C169.82 51.1202 168.23 49.5302 168.23 47.5802C168.23 45.6302 169.82 44.0401 171.77 44.0401ZM171.73 266.46C173.68 266.46 175.27 268.05 175.27 270C175.27 271.95 173.68 273.54 171.73 273.54C169.78 273.54 168.19 271.95 168.19 270C168.19 268.05 169.78 266.46 171.73 266.46ZM133.42 298.8C131.47 298.8 129.88 297.21 129.88 295.26C129.88 293.31 131.47 291.72 133.42 291.72C135.37 291.72 136.96 293.31 136.96 295.26C136.96 297.21 135.37 298.8 133.42 298.8ZM182.08 88.1202C182.08 82.3702 186.76 77.69 192.51 77.69C198.26 77.69 202.94 82.3702 202.94 88.1202C202.94 93.8702 198.26 98.5501 192.51 98.5501C186.76 98.5501 182.08 93.8702 182.08 88.1202ZM192.5 239.89C186.75 239.89 182.07 235.21 182.07 229.46C182.07 223.71 186.75 219.03 192.5 219.03C198.25 219.03 202.93 223.71 202.93 229.46C202.93 235.21 198.25 239.89 192.5 239.89Z" fill="#DFD4CF"/>
<path d="M192.5 221.53C188.13 221.53 184.57 225.09 184.57 229.46C184.57 233.83 188.13 237.39 192.5 237.39C196.87 237.39 200.43 233.83 200.43 229.46C200.43 225.09 196.87 221.53 192.5 221.53ZM192.5 235.89C188.96 235.89 186.07 233.01 186.07 229.46C186.07 225.91 188.95 223.03 192.5 223.03C196.05 223.03 198.93 225.91 198.93 229.46C198.93 233.01 196.05 235.89 192.5 235.89Z" fill="#DFD4CF"/>
<path d="M192.51 232.29C194.073 232.29 195.34 231.023 195.34 229.46C195.34 227.897 194.073 226.63 192.51 226.63C190.947 226.63 189.68 227.897 189.68 229.46C189.68 231.023 190.947 232.29 192.51 232.29Z" fill="#DFD4CF"/>
<path d="M41.6701 88.1201C41.6701 83.7501 38.1101 80.1899 33.7401 80.1899C29.3701 80.1899 25.8101 83.7501 25.8101 88.1201C25.8101 92.4901 29.3701 96.05 33.7401 96.05C38.1101 96.05 41.6701 92.4901 41.6701 88.1201ZM27.3201 88.1201C27.3201 84.5801 30.2001 81.6899 33.7501 81.6899C37.3001 81.6899 40.1801 84.5701 40.1801 88.1201C40.1801 91.6701 37.3001 94.55 33.7501 94.55C30.2001 94.55 27.3201 91.6701 27.3201 88.1201Z" fill="#DFD4CF"/>
<path d="M36.5702 88.1201C36.5702 86.5601 35.3001 85.29 33.7401 85.29C32.1801 85.29 30.9102 86.5601 30.9102 88.1201C30.9102 89.6801 32.1801 90.95 33.7401 90.95C35.3001 90.95 36.5702 89.6801 36.5702 88.1201Z" fill="#DFD4CF"/>
<path d="M41.6701 229.46C41.6701 225.09 38.1101 221.53 33.7401 221.53C29.3701 221.53 25.8101 225.09 25.8101 229.46C25.8101 233.83 29.3701 237.39 33.7401 237.39C38.1101 237.39 41.6701 233.83 41.6701 229.46ZM27.3201 229.46C27.3201 225.92 30.2001 223.03 33.7501 223.03C37.3001 223.03 40.1801 225.91 40.1801 229.46C40.1801 233.01 37.3001 235.89 33.7501 235.89C30.2001 235.89 27.3201 233.01 27.3201 229.46Z" fill="#DFD4CF"/>
<path d="M33.7401 232.29C35.3031 232.29 36.5702 231.023 36.5702 229.46C36.5702 227.897 35.3031 226.63 33.7401 226.63C32.1772 226.63 30.9102 227.897 30.9102 229.46C30.9102 231.023 32.1772 232.29 33.7401 232.29Z" fill="#DFD4CF"/>
<path d="M91.6901 40.9499C90.1201 43.4799 90.49 46.39 91.05 48.33C89.76 49.28 88.28 50.7899 87.8 52.9699C86.84 57.3299 90.56 61.76 94.56 63.35C95.75 63.83 97.0401 64.07 98.3801 64.07C98.4001 64.07 98.4201 64.07 98.4401 64.07C98.9401 64.68 99.5301 65.28 100.26 65.82C101.1 66.45 101.98 66.8899 102.86 67.2199C102.07 67.7699 101.38 68.4299 100.83 69.1899C98.59 72.2899 99.26 75.8598 99.52 76.8898C99.59 77.1798 99.85 77.3798 100.15 77.3798C100.15 77.3798 100.16 77.3798 100.17 77.3798C100.47 77.3798 100.73 77.15 100.79 76.85C101.06 75.43 101.74 73.31 103.47 71.35C104.85 69.78 106.41 68.87 107.7 68.33L108.62 73.1999C108.66 73.4399 108.84 73.6299 109.07 73.6999C109.3 73.7699 109.55 73.7 109.72 73.53L112.04 71.1398V77.86C112.04 78.22 112.33 78.5099 112.69 78.5099C113.05 78.5099 113.34 78.22 113.34 77.86V71.2099L115.57 73.62C115.69 73.76 115.87 73.83 116.05 73.83C116.12 73.83 116.18 73.82 116.25 73.8C116.49 73.72 116.67 73.5099 116.7 73.2599L117.34 68.2199C118.67 68.7399 120.35 69.66 121.83 71.34C123.57 73.31 124.25 75.42 124.51 76.84C124.57 77.14 124.82 77.36 125.13 77.37C125.13 77.37 125.14 77.37 125.15 77.37C125.45 77.37 125.71 77.1698 125.78 76.8798C126.04 75.8598 126.71 72.2799 124.47 69.1799C123.93 68.4299 123.24 67.7699 122.46 67.2199C123.5 66.9599 124.49 66.55 125.48 65.83C126.37 65.19 127.13 64.3699 127.77 63.4399C129.56 63.2999 132.63 62.6899 135.13 60.2299C135.34 60.0299 140.14 55.23 138.1 50.85C137.37 49.27 136.02 48.33 134.87 47.79C135.09 46.75 135.17 45.6098 134.97 44.3898C134.93 44.1698 134.02 38.88 129.61 37.54C128.07 37.07 126.63 37.25 125.56 37.55C125.14 36.81 124.59 36.13 123.91 35.59C121.71 33.86 119.12 34.11 118.12 34.3C117.19 33.55 114.46 31.7098 111.05 32.3798C109.35 32.7098 108.08 33.55 107.25 34.28C104.45 33.57 101.52 34.68 99.86 37.03C98.55 37.04 93.9101 37.3599 91.6901 40.9299V40.9499ZM95.0401 62.1398C91.5201 60.7398 88.2801 56.8299 89.0701 53.2499C89.4301 51.6299 90.48 50.4398 91.5 49.6298C92.01 50.8898 92.64 51.6799 93.25 52.4399C94.01 53.3899 94.7201 54.2798 95.3201 56.1398C95.6001 57.0198 95.66 57.5199 95.72 58.0199C95.79 58.5999 95.87 59.1999 96.27 60.2399C96.47 60.7499 96.83 61.6699 97.47 62.7199C96.62 62.6399 95.8001 62.4498 95.0401 62.1398ZM97.4801 59.7699C97.1301 58.8799 97.07 58.4 97 57.85C96.93 57.32 96.8601 56.7299 96.5401 55.7399C95.8701 53.6499 95.01 52.57 94.25 51.62C93.62 50.83 93.03 50.09 92.56 48.82C91.98 47.21 91.23 44.1498 92.78 41.6398C94.35 39.0998 97.46 38.5198 99.09 38.3898C98.08 40.8198 98.54 43.6198 100.3 45.6398C99.74 49.1298 100.09 53.7299 101.4 57.7499C102.84 62.1699 105.21 65.2999 108.15 66.7099C106.03 66.7499 103.34 66.4899 101.03 64.7699C98.75 63.0699 97.8201 60.6699 97.47 59.7599L97.4801 59.7699ZM109.79 36.59C111.05 36.8 111.91 37.51 112.44 38.1C112.25 38.13 112.06 38.1399 111.88 38.1899C110.92 38.4099 110.03 38.81 109.22 39.37C108.21 39 106.58 38.6299 104.89 39.1699C105.18 38.5699 105.65 37.8998 106.42 37.3798C106.89 37.0498 108.17 36.33 109.8 36.6L109.79 36.59ZM120.2 37.84C120.61 38.42 120.76 39.03 120.8 39.55C118.7 38.08 115.51 37.9799 114.3 37.9899C114.65 37.4699 115.3 36.7399 116.34 36.4599C117.77 36.0699 119.35 36.63 120.19 37.84H120.2ZM112.61 66.2399C111.59 66.1799 109.3 65.84 108.09 64.07C107.46 63.14 106.92 61.44 107.9 58.6C109.17 54.93 112.52 53.0198 115.76 51.1598C119.02 49.2898 122.1 47.5198 122.66 44.1298C122.83 43.0898 122.69 42.2899 122.5 41.7299C122.95 41.8999 123.34 42.1299 123.65 42.4399C124.79 43.5599 124.78 45.4199 124.39 48.2399C123.34 55.8499 122.81 59.67 120.11 62.37C118.19 64.29 115.6 65.6199 112.61 66.2399ZM121.17 41.8798C121.43 42.4398 121.5 43.1599 121.38 43.9299C120.93 46.7099 118.24 48.26 115.12 50.04C114.79 50.23 114.44 50.4298 114.1 50.6298V48.79C114.86 48.67 115.47 48.4399 115.86 48.2599C116.48 47.9699 118.55 46.8599 119.27 44.4999C119.39 44.1099 119.64 43.31 119.49 42.37C119.33 41.38 118.76 40.4599 117.87 39.6999C119.24 40.0399 120.61 40.6798 121.17 41.8798ZM107.86 42.9999C107.95 42.3699 108.3 41.8499 108.69 41.4299C108.79 41.9899 109 42.6099 109.44 43.1999C110.71 44.9099 112.98 45.1498 114.55 44.6598C116.05 44.1998 117.01 43.3399 117.26 42.2499C117.37 41.7899 117.35 41.32 117.22 40.85C117.76 41.37 118.11 41.96 118.21 42.58C118.31 43.22 118.13 43.8098 118.04 44.1298C117.48 45.9698 115.82 46.86 115.32 47.09C114.76 47.35 113.61 47.7599 112.26 47.5099C110.03 47.1099 107.58 45.0099 107.87 42.9999H107.86ZM113.45 39.3798C113.45 39.3798 113.5 39.32 113.53 39.3C113.63 39.3 113.72 39.3 113.82 39.3C113.82 39.3 113.82 39.32 113.84 39.33C114.49 40.12 114.51 40.9 114.37 41.04C114.3 41.12 113.94 41.19 113.49 41.05C113.08 40.93 112.76 40.6799 112.72 40.4399C112.67 40.1599 112.93 39.6898 113.47 39.3798H113.45ZM111.43 40.6799C111.57 41.4199 112.2 42.02 113.11 42.29C113.38 42.37 113.68 42.4199 113.98 42.4199C114.47 42.4199 114.95 42.2899 115.3 41.9299C115.61 41.6099 115.74 41.1498 115.72 40.6398C115.98 41.0898 116.08 41.5599 115.99 41.9399C115.85 42.5599 115.2 43.0798 114.16 43.3998C112.97 43.7698 111.33 43.5498 110.48 42.3998C109.98 41.7198 109.9 40.9599 109.92 40.4299C110.43 40.0799 110.97 39.8 111.55 39.61C111.41 39.96 111.36 40.3198 111.43 40.6598V40.6799ZM105.05 41.4999C105.73 40.6999 106.85 40.53 107.74 40.55C107.2 41.12 106.71 41.87 106.58 42.81C106.17 45.6 109.11 48.27 112.02 48.79C112.29 48.84 112.54 48.86 112.79 48.87V50.57C109.5 49.36 104.7 46.84 104.46 43.8C104.43 43.44 104.35 42.3299 105.04 41.5099L105.05 41.4999ZM103.56 41.4599C103.24 42.1499 103.1 42.9598 103.17 43.8898C103.48 48.0098 109.49 50.7099 112.27 51.7499C109.9 53.2999 107.69 55.2299 106.67 58.1799C105.71 60.9399 106.03 62.84 106.61 64.08C104.95 62.55 103.59 60.26 102.64 57.34C100.85 51.82 100.92 44.93 102.81 42.3C103.05 41.97 103.3 41.6899 103.56 41.4499V41.4599ZM102.51 70.4899C101.67 71.4499 101.05 72.43 100.59 73.37C100.72 72.29 101.08 71.0799 101.89 69.9499C102.56 69.0199 103.49 68.2399 104.56 67.6999C104.93 67.7799 105.3 67.8398 105.67 67.8898C104.62 68.4998 103.52 69.3299 102.5 70.4899H102.51ZM115.59 71.7199L113.18 69.11C113.18 69.11 113.18 69.11 113.17 69.11C113.13 69.07 113.08 69.0299 113.02 68.9999C113 68.9899 112.98 68.9699 112.96 68.9599C112.91 68.9399 112.86 68.9298 112.8 68.9198C112.77 68.9198 112.74 68.8998 112.71 68.8998C112.53 68.8998 112.37 68.98 112.25 69.1L109.69 71.7299L108.98 67.9899C109.37 67.9699 109.73 67.9499 110.06 67.9299C110.94 67.8699 111.82 67.75 112.68 67.56C113.81 67.75 114.95 67.84 116.08 67.87L115.59 71.7199ZM120.67 67.6598C121.78 68.1998 122.73 68.9899 123.42 69.9499C124.23 71.0799 124.59 72.29 124.72 73.37C124.26 72.43 123.64 71.4399 122.8 70.4899C121.69 69.2299 120.47 68.3499 119.34 67.7299C119.76 67.6799 120.16 67.63 120.56 67.58C120.6 67.61 120.63 67.6398 120.67 67.6598ZM136.92 51.4199C138.57 54.9799 134.26 59.29 134.22 59.33C132.4 61.12 130.21 61.8 128.6 62.06C128.65 61.96 128.71 61.8599 128.76 61.7599C129.25 60.6399 129.32 59.9099 129.39 59.1999C129.44 58.6499 129.5 58.0699 129.77 57.2299C130.2 55.9199 130.7 55.34 131.34 54.59C131.86 53.98 132.46 53.29 133.12 52.1C133.53 51.37 134.1 50.34 134.52 49.09C135.41 49.55 136.39 50.2799 136.92 51.4199ZM129.24 38.8C132.88 39.91 133.68 44.57 133.69 44.62C134.17 47.54 132.74 50.0999 131.98 51.4699C131.38 52.5399 130.86 53.1599 130.35 53.7499C129.68 54.5399 129.04 55.28 128.53 56.83C128.21 57.81 128.15 58.48 128.09 59.08C128.03 59.74 127.97 60.3099 127.56 61.2399C126.92 62.6999 125.94 63.93 124.73 64.8C123.07 66 121.43 66.1899 119.15 66.4499C118.1 66.5699 117.04 66.62 115.98 66.59C117.92 65.81 119.64 64.7 121.03 63.31C124.04 60.3 124.59 56.3299 125.68 48.4399C125.89 46.8999 126.03 45.41 125.81 44.11C125.95 44.03 126.06 43.9099 126.11 43.7499C126.68 42.0699 126.63 40.33 126.11 38.78C126.97 38.56 128.08 38.45 129.24 38.81V38.8ZM123.11 36.6298C124.74 37.9098 125.49 40.0699 125.14 42.2399C124.98 41.9899 124.79 41.7399 124.56 41.5199C123.93 40.8899 123.09 40.49 122.1 40.28C122.16 39.46 122.07 38.24 121.27 37.1C120.77 36.39 120.07 35.8499 119.29 35.4999C120.32 35.4499 121.8 35.6098 123.11 36.6398V36.6298ZM111.3 33.6799C113.84 33.1799 115.94 34.35 116.94 35.07C116.62 35.09 116.31 35.1299 116 35.2199C114.66 35.5899 113.81 36.4498 113.31 37.1498C112.63 36.4098 111.55 35.58 110.01 35.32C109.3 35.2 108.66 35.23 108.08 35.32C108.78 34.7 109.85 33.9699 111.3 33.6799ZM107.02 35.6C106.4 35.83 105.93 36.11 105.67 36.3C103.94 37.5 103.38 39.26 103.21 40.06C102.72 40.44 102.2 40.93 101.76 41.55C101.31 42.17 100.96 42.9899 100.69 43.9499C99.6201 42.1499 99.59 39.88 100.74 38.05C102.07 35.93 104.63 34.95 107.03 35.6H107.02Z" fill="#DFD4CF"/>
<path d="M134.55 275.16C136.12 272.63 135.75 269.72 135.19 267.78C136.48 266.83 137.96 265.32 138.44 263.14C139.4 258.78 135.68 254.35 131.68 252.76C130.47 252.28 129.16 252.05 127.8 252.05C127.3 251.44 126.7 250.84 125.97 250.3C125.13 249.67 124.26 249.22 123.38 248.89C124.16 248.34 124.86 247.68 125.4 246.92C127.64 243.82 126.97 240.24 126.71 239.22C126.64 238.92 126.36 238.72 126.06 238.73C125.76 238.73 125.5 238.96 125.44 239.26C125.17 240.68 124.49 242.8 122.76 244.76C121.38 246.33 119.82 247.24 118.53 247.78L117.61 242.91C117.57 242.67 117.39 242.48 117.16 242.41C116.93 242.34 116.68 242.41 116.51 242.58L114.19 244.96V238.24C114.19 237.88 113.9 237.59 113.54 237.59C113.18 237.59 112.89 237.88 112.89 238.24V244.89L110.66 242.48C110.49 242.29 110.22 242.23 109.98 242.3C109.74 242.38 109.56 242.59 109.53 242.84L108.89 247.88C107.56 247.36 105.88 246.44 104.4 244.76C102.67 242.79 101.98 240.68 101.72 239.26C101.66 238.96 101.41 238.74 101.1 238.73C100.79 238.71 100.52 238.92 100.45 239.22C100.19 240.24 99.5201 243.81 101.76 246.92C102.3 247.67 102.99 248.33 103.77 248.88C102.73 249.14 101.74 249.55 100.75 250.27C99.8601 250.91 99.1 251.73 98.46 252.66C96.67 252.8 93.6001 253.41 91.1001 255.87C90.8901 256.07 86.0901 260.87 88.1301 265.25C88.8601 266.83 90.21 267.77 91.36 268.31C91.14 269.35 91.0601 270.5 91.2601 271.72C91.3001 271.94 92.22 277.23 96.61 278.57C97.29 278.78 97.9501 278.86 98.5701 278.86C99.3501 278.86 100.07 278.73 100.66 278.56C101.08 279.3 101.63 279.98 102.31 280.52C104.5 282.25 107.09 281.99 108.1 281.81C108.89 282.45 110.98 283.87 113.69 283.87C114.17 283.87 114.66 283.83 115.17 283.73C116.87 283.4 118.15 282.56 118.97 281.83C121.76 282.53 124.7 281.43 126.36 279.08C127.73 279.08 132.3 278.77 134.53 275.18L134.55 275.16ZM131.2 253.97C134.72 255.37 137.96 259.28 137.17 262.86C136.81 264.48 135.76 265.67 134.74 266.48C134.23 265.22 133.6 264.43 132.99 263.67C132.23 262.72 131.52 261.83 130.93 259.97C130.65 259.09 130.59 258.59 130.52 258.09C130.45 257.51 130.37 256.91 129.97 255.87C129.77 255.37 129.41 254.44 128.77 253.39C129.61 253.47 130.44 253.66 131.2 253.97ZM128.76 256.34C129.11 257.23 129.17 257.71 129.24 258.26C129.31 258.79 129.38 259.38 129.7 260.37C130.37 262.46 131.23 263.54 131.99 264.49C132.62 265.28 133.21 266.02 133.68 267.29C134.27 268.9 135.01 271.96 133.46 274.47C131.89 276.99 128.79 277.59 127.16 277.72C128.17 275.29 127.71 272.49 125.95 270.47C126.51 266.98 126.16 262.38 124.85 258.36C123.41 253.94 121.04 250.81 118.1 249.4C120.22 249.36 122.91 249.62 125.22 251.34C127.5 253.05 128.43 255.44 128.78 256.35L128.76 256.34ZM116.45 279.52C115.2 279.31 114.34 278.61 113.81 278.02C113.99 277.99 114.18 277.97 114.36 277.92C115.31 277.7 116.22 277.29 117.03 276.73C117.89 277.05 118.76 277.22 119.58 277.22C120.2 277.22 120.79 277.11 121.36 276.93C121.07 277.53 120.6 278.2 119.83 278.74C119.36 279.07 118.08 279.8 116.45 279.52ZM106.04 278.27C105.63 277.69 105.48 277.07 105.44 276.55C107.48 277.97 110.55 278.12 111.71 278.12C111.8 278.12 111.87 278.12 111.93 278.12C111.58 278.64 110.93 279.37 109.89 279.65C108.46 280.04 106.88 279.48 106.03 278.27H106.04ZM113.64 249.86C114.66 249.92 116.96 250.27 118.16 252.03C118.79 252.96 119.33 254.66 118.35 257.5C117.08 261.17 113.73 263.08 110.49 264.94C107.23 266.81 104.15 268.58 103.59 271.97C103.42 273.01 103.56 273.81 103.75 274.38C103.3 274.21 102.91 273.98 102.6 273.67C101.46 272.55 101.47 270.69 101.86 267.87C102.91 260.26 103.44 256.44 106.14 253.74C108.06 251.82 110.65 250.49 113.64 249.87V249.86ZM105.08 274.23C104.82 273.68 104.75 272.95 104.87 272.18C105.32 269.4 108.02 267.85 111.13 266.07C111.46 265.88 111.81 265.68 112.15 265.48V267.32C111.39 267.44 110.78 267.67 110.39 267.85C109.6 268.22 107.68 269.32 106.98 271.61C106.86 272 106.62 272.8 106.77 273.74C106.93 274.74 107.51 275.66 108.4 276.42C107.02 276.08 105.65 275.43 105.09 274.23H105.08ZM118.38 273.11C118.29 273.74 117.94 274.26 117.55 274.68C117.45 274.12 117.23 273.5 116.8 272.91C115.53 271.21 113.26 270.96 111.69 271.45C109.77 272.05 109.16 273.09 108.98 273.86C108.87 274.32 108.89 274.8 109.02 275.26C108.48 274.74 108.13 274.15 108.03 273.53C107.93 272.89 108.11 272.3 108.2 271.98C108.76 270.14 110.42 269.25 110.92 269.02C111.49 268.76 112.64 268.36 113.98 268.6C116.21 269 118.66 271.1 118.36 273.11H118.38ZM112.79 276.73C112.79 276.73 112.74 276.79 112.71 276.81C112.61 276.81 112.52 276.81 112.42 276.81C112.42 276.81 112.42 276.79 112.4 276.78C111.75 275.99 111.73 275.22 111.87 275.07C111.91 275.03 112.06 274.98 112.26 274.98C112.4 274.98 112.57 275 112.75 275.06C113.16 275.18 113.48 275.43 113.52 275.66C113.57 275.94 113.31 276.41 112.77 276.73H112.79ZM114.82 275.43C114.68 274.69 114.05 274.09 113.14 273.82C112.45 273.62 111.51 273.6 110.95 274.18C110.64 274.5 110.51 274.96 110.53 275.47C110.27 275.02 110.17 274.55 110.26 274.17C110.4 273.55 111.05 273.03 112.09 272.71C113.28 272.34 114.92 272.56 115.77 273.71C116.28 274.4 116.35 275.19 116.33 275.68C115.83 276.02 115.28 276.31 114.71 276.5C114.85 276.15 114.9 275.79 114.83 275.45L114.82 275.43ZM121.19 274.61C120.51 275.41 119.39 275.58 118.5 275.56C119.04 274.99 119.53 274.24 119.66 273.3C120.07 270.51 117.13 267.84 114.22 267.32C113.95 267.27 113.7 267.25 113.45 267.24V265.54C116.74 266.75 121.54 269.27 121.78 272.31C121.81 272.67 121.89 273.78 121.2 274.6L121.19 274.61ZM122.68 274.64C123 273.95 123.14 273.14 123.07 272.21C122.76 268.09 116.75 265.39 113.97 264.35C116.34 262.8 118.55 260.87 119.57 257.92C120.53 255.16 120.21 253.26 119.63 252.02C121.29 253.55 122.65 255.84 123.6 258.76C125.39 264.28 125.32 271.17 123.43 273.8C123.19 274.13 122.94 274.41 122.69 274.64H122.68ZM123.73 245.62C124.57 244.66 125.19 243.68 125.65 242.74C125.52 243.82 125.16 245.03 124.35 246.16C123.67 247.1 122.77 247.85 121.68 248.4C121.31 248.32 120.93 248.26 120.57 248.21C121.61 247.6 122.71 246.77 123.73 245.62ZM110.65 244.39L113.06 247C113.1 247.04 113.16 247.08 113.21 247.11C113.23 247.12 113.25 247.14 113.27 247.15C113.32 247.17 113.37 247.18 113.43 247.19C113.46 247.19 113.49 247.21 113.52 247.21C113.7 247.21 113.86 247.13 113.98 247.01L116.54 244.38L117.25 248.12C116.86 248.14 116.5 248.16 116.17 248.18C115.29 248.24 114.41 248.36 113.55 248.55C112.42 248.36 111.28 248.26 110.15 248.23L110.64 244.39H110.65ZM105.57 248.45C104.44 247.9 103.52 247.13 102.82 246.16C102.01 245.03 101.64 243.82 101.52 242.74C101.98 243.68 102.6 244.67 103.44 245.62C104.55 246.89 105.77 247.76 106.9 248.38C106.48 248.43 106.08 248.48 105.68 248.53C105.64 248.5 105.61 248.47 105.57 248.45ZM89.33 264.69C87.67 261.13 91.99 256.82 92.03 256.78C93.85 254.99 96.04 254.31 97.65 254.05C97.6 254.15 97.54 254.25 97.49 254.35C97 255.47 96.93 256.2 96.86 256.91C96.81 257.46 96.7501 258.04 96.4801 258.88C96.0501 260.19 95.5501 260.77 94.9101 261.52C94.3901 262.13 93.7901 262.82 93.1301 264.01C92.7201 264.74 92.1501 265.77 91.7301 267.02C90.8401 266.56 89.86 265.83 89.33 264.69ZM97.0001 277.31C93.3701 276.21 92.56 271.54 92.55 271.5C92.07 268.58 93.5001 266.02 94.2601 264.65C94.8601 263.58 95.3801 262.96 95.8901 262.37C96.5701 261.58 97.2 260.84 97.71 259.29C98.03 258.31 98.09 257.64 98.15 257.04C98.21 256.38 98.27 255.81 98.68 254.88C99.32 253.42 100.3 252.19 101.51 251.32C103.17 250.12 104.81 249.93 107.09 249.67C108.14 249.55 109.2 249.5 110.26 249.53C108.32 250.32 106.6 251.42 105.2 252.81C102.19 255.82 101.64 259.79 100.55 267.69C100.34 269.23 100.2 270.72 100.42 272.02C100.28 272.1 100.17 272.22 100.12 272.37C99.56 274.05 99.6 275.79 100.12 277.34C99.26 277.56 98.15 277.66 96.99 277.31H97.0001ZM103.13 279.48C101.5 278.2 100.75 276.04 101.1 273.87C101.26 274.12 101.45 274.37 101.68 274.59C102.32 275.22 103.15 275.62 104.14 275.83C104.08 276.65 104.17 277.87 104.97 279.01C105.47 279.72 106.16 280.26 106.94 280.61C105.91 280.66 104.43 280.5 103.13 279.47V279.48ZM114.94 282.43C112.4 282.93 110.3 281.77 109.3 281.04C109.62 281.02 109.93 280.98 110.25 280.89C111.59 280.52 112.44 279.66 112.94 278.96C113.62 279.7 114.7 280.53 116.24 280.8C116.57 280.86 116.89 280.88 117.19 280.88C117.54 280.88 117.86 280.84 118.17 280.79C117.47 281.41 116.41 282.14 114.95 282.43H114.94ZM119.22 280.51C119.84 280.28 120.31 280 120.57 279.81C122.3 278.61 122.86 276.85 123.03 276.04C123.5 275.68 124.02 275.2 124.48 274.55C124.93 273.93 125.28 273.11 125.55 272.15C126.62 273.95 126.65 276.22 125.5 278.05C124.17 280.17 121.62 281.15 119.21 280.5L119.22 280.51Z" fill="#DFD4CF"/>
<path d="M51.4701 59.8201C50.4101 59.8201 49.55 60.68 49.55 61.74C49.55 62.8 50.4101 63.6599 51.4701 63.6599C52.5301 63.6599 53.3901 62.8 53.3901 61.74C53.3901 60.68 52.5301 59.8201 51.4701 59.8201Z" fill="#DFD4CF"/>
<path d="M54.9201 49.03C55.8535 49.03 56.6101 48.2734 56.6101 47.3401C56.6101 46.4067 55.8535 45.6499 54.9201 45.6499C53.9867 45.6499 53.2301 46.4067 53.2301 47.3401C53.2301 48.2734 53.9867 49.03 54.9201 49.03Z" fill="#DFD4CF"/>
<path d="M50.2 75.6699C50.31 77.8499 51 83.17 55.17 85.5C55.57 85.72 57.23 86.5801 59.3 86.5801C60.03 86.5801 60.82 86.4699 61.61 86.1899C62.41 85.9099 64.54 85.15 65.19 82.98C65.64 81.47 65.12 80.1101 64.71 79.3701C64.36 78.4701 63.49 77.8401 62.47 77.8401C61.14 77.8401 60.06 78.92 60.06 80.25C60.06 81.58 61.14 82.6599 62.47 82.6599C62.97 82.6599 63.43 82.51 63.81 82.25C63.79 82.35 63.78 82.45 63.75 82.55C63.32 83.99 61.77 84.54 61.11 84.77C58.69 85.63 56.35 84.4399 55.91 84.1899C52.4 82.2299 51.8 77.5301 51.71 75.6001C51.62 73.6401 52 71.8899 52.58 70.3999C56.88 69.8599 60.23 66.19 60.23 61.74C60.23 56.92 56.31 53.01 51.5 53.01C46.69 53.01 42.77 56.93 42.77 61.74C42.77 66.55 46.41 70.17 50.98 70.45C50.46 71.98 50.13 73.7299 50.22 75.6699H50.2ZM51.47 68.48C47.76 68.48 44.74 65.46 44.74 61.75C44.74 58.04 47.76 55.02 51.47 55.02C55.18 55.02 58.2 58.04 58.2 61.75C58.2 64.69 56.31 67.1801 53.68 68.1001C54.35 66.9901 55.03 66.1499 55.49 65.6499C55.49 65.6499 55.49 65.6399 55.5 65.6299C56.47 64.6199 57.07 63.26 57.07 61.75C57.07 58.66 54.55 56.1399 51.46 56.1399C48.37 56.1399 45.85 58.66 45.85 61.75C45.85 64.84 48.37 67.3601 51.46 67.3601C51.79 67.3601 52.11 67.33 52.43 67.27C52.21 67.64 51.98 68.04 51.77 68.47C51.67 68.47 51.57 68.49 51.46 68.49L51.47 68.48ZM51.47 65.8501C49.21 65.8501 47.36 64.01 47.36 61.74C47.36 59.47 49.2 57.6299 51.47 57.6299C53.74 57.6299 55.58 59.47 55.58 61.74C55.58 64.01 53.74 65.8501 51.47 65.8501Z" fill="#DFD4CF"/>
<path d="M93.23 23.77C94.1634 23.77 94.92 23.0134 94.92 22.0801C94.92 21.1467 94.1634 20.3899 93.23 20.3899C92.2967 20.3899 91.54 21.1467 91.54 22.0801C91.54 23.0134 92.2967 23.77 93.23 23.77Z" fill="#DFD4CF"/>
<path d="M175.21 63.9099C176.27 63.9099 177.13 63.0504 177.13 61.99C177.13 60.9296 176.27 60.0701 175.21 60.0701C174.15 60.0701 173.29 60.9296 173.29 61.99C173.29 63.0504 174.15 63.9099 175.21 63.9099Z" fill="#DFD4CF"/>
<path d="M171.77 49.27C172.703 49.27 173.46 48.5134 173.46 47.5801C173.46 46.6467 172.703 45.8899 171.77 45.8899C170.837 45.8899 170.08 46.6467 170.08 47.5801C170.08 48.5134 170.837 49.27 171.77 49.27Z" fill="#DFD4CF"/>
<path d="M166.63 80.5C166.63 79.17 165.55 78.0901 164.22 78.0901C163.2 78.0901 162.33 78.7301 161.98 79.6201C161.58 80.3701 161.05 81.72 161.5 83.23C162.15 85.4 164.28 86.1499 165.08 86.4399C165.89 86.7299 166.68 86.8401 167.41 86.8401C169.37 86.8401 170.96 86.06 171.51 85.76C175.67 83.43 176.37 78.1099 176.48 75.9299C176.57 73.9899 176.24 72.24 175.73 70.71C180.3 70.44 183.94 66.64 183.94 62C183.94 57.36 180.02 53.27 175.21 53.27C170.4 53.27 166.48 57.19 166.48 62C166.48 66.45 169.82 70.1199 174.13 70.6599C174.7 72.1499 175.09 73.9001 175 75.8601C174.91 77.7901 174.31 82.49 170.8 84.45C170.36 84.7 168.02 85.89 165.6 85.03C164.94 84.8 163.39 84.2501 162.96 82.8101C162.93 82.7101 162.92 82.61 162.9 82.51C163.28 82.77 163.74 82.9199 164.24 82.9199C165.57 82.9199 166.65 81.84 166.65 80.51L166.63 80.5ZM168.47 61.99C168.47 58.28 171.49 55.26 175.2 55.26C178.91 55.26 181.93 58.28 181.93 61.99C181.93 65.7 178.91 68.72 175.2 68.72C175.1 68.72 175 68.71 174.89 68.7C174.68 68.27 174.46 67.87 174.23 67.5C174.54 67.56 174.87 67.5901 175.2 67.5901C178.29 67.5901 180.81 65.07 180.81 61.98C180.81 58.89 178.29 56.3701 175.2 56.3701C172.11 56.3701 169.59 58.89 169.59 61.98C169.59 63.48 170.19 64.8501 171.16 65.8601C171.16 65.8601 171.16 65.8699 171.17 65.8799C171.63 66.3899 172.32 67.2201 172.99 68.3301C170.36 67.4101 168.47 64.91 168.47 61.98V61.99ZM171.1 61.99C171.1 59.73 172.94 57.8799 175.21 57.8799C177.48 57.8799 179.32 59.72 179.32 61.99C179.32 64.26 177.48 66.1001 175.21 66.1001C172.94 66.1001 171.1 64.26 171.1 61.99Z" fill="#DFD4CF"/>
<path d="M133.45 24.02C134.383 24.02 135.14 23.2634 135.14 22.3301C135.14 21.3967 134.383 20.6399 133.45 20.6399C132.517 20.6399 131.76 21.3967 131.76 22.3301C131.76 23.2634 132.517 24.02 133.45 24.02Z" fill="#DFD4CF"/>
<path d="M51.44 257.76C52.5004 257.76 53.36 256.9 53.36 255.84C53.36 254.78 52.5004 253.92 51.44 253.92C50.3796 253.92 49.52 254.78 49.52 255.84C49.52 256.9 50.3796 257.76 51.44 257.76Z" fill="#DFD4CF"/>
<path d="M54.8801 271.94C55.8134 271.94 56.5701 271.183 56.5701 270.25C56.5701 269.317 55.8134 268.56 54.8801 268.56C53.9467 268.56 53.1901 269.317 53.1901 270.25C53.1901 271.183 53.9467 271.94 54.8801 271.94Z" fill="#DFD4CF"/>
<path d="M60.0101 237.34C60.0101 238.67 61.0901 239.75 62.4201 239.75C63.4401 239.75 64.3101 239.11 64.6601 238.22C65.0601 237.47 65.5901 236.11 65.1401 234.61C64.4901 232.44 62.3601 231.69 61.5601 231.4C58.5301 230.33 55.6701 231.78 55.1201 232.09C50.9501 234.42 50.2601 239.74 50.1501 241.92C50.0601 243.86 50.3901 245.61 50.9101 247.14C46.3401 247.41 42.7001 251.21 42.7001 255.85C42.7001 260.49 46.6201 264.58 51.4301 264.58C56.2401 264.58 60.1601 260.66 60.1601 255.85C60.1601 251.4 56.8201 247.73 52.5101 247.19C51.9401 245.7 51.5501 243.95 51.6401 241.99C51.7301 240.06 52.3301 235.36 55.8401 233.4C56.2801 233.15 58.6201 231.95 61.0401 232.82C61.7001 233.05 63.2501 233.6 63.6801 235.04C63.7101 235.14 63.7201 235.24 63.7401 235.34C63.3601 235.08 62.9001 234.93 62.4001 234.93C61.0701 234.93 59.9901 236.01 59.9901 237.34H60.0101ZM58.1701 255.85C58.1701 259.56 55.1501 262.58 51.4401 262.58C47.7301 262.58 44.7101 259.56 44.7101 255.85C44.7101 252.14 47.7301 249.12 51.4401 249.12C51.5401 249.12 51.6501 249.13 51.7501 249.14C51.9601 249.57 52.1901 249.97 52.4101 250.34C52.0901 250.28 51.7701 250.25 51.4401 250.25C48.3501 250.25 45.83 252.77 45.83 255.86C45.83 258.95 48.3501 261.47 51.4401 261.47C54.5301 261.47 57.05 258.95 57.05 255.86C57.05 254.36 56.4501 252.99 55.4801 251.98C55.4801 251.98 55.4801 251.97 55.4701 251.96C55.0101 251.45 54.3201 250.62 53.6601 249.51C56.2901 250.43 58.1801 252.93 58.1801 255.86L58.1701 255.85ZM55.5401 255.85C55.5401 258.11 53.7001 259.96 51.4301 259.96C49.1601 259.96 47.3201 258.12 47.3201 255.85C47.3201 253.58 49.1601 251.74 51.4301 251.74C53.7001 251.74 55.5401 253.58 55.5401 255.85Z" fill="#DFD4CF"/>
<path d="M93.1901 290.46C90.7201 290.46 88.6701 292.25 88.2401 294.6H76.5901C77.8201 292.92 78.5701 291.02 78.1101 289.22C77.7801 287.9 76.9601 287.35 75.4801 286.35C74.8201 285.9 73.9901 285.34 72.9501 284.55C72.4001 284.14 67.4901 280.36 63.6001 275.2C62.1201 273.24 60.8001 271.08 59.6901 268.79C59.6901 268.79 59.6801 268.78 59.6701 268.77C59.0301 266.72 57.1401 265.21 54.8801 265.21C52.1001 265.21 49.8401 267.47 49.8401 270.25C49.8401 273.03 52.1001 275.29 54.8801 275.29C57.0901 275.29 58.9501 273.85 59.6301 271.87C60.4801 273.36 61.4001 274.78 62.4001 276.11C65.1601 279.76 68.4001 282.74 70.3501 284.39C66.8101 285.08 62.8001 285.43 60.7801 284.6C60.4001 284.45 59.7001 284.16 59.3901 283.5C59.1801 283.05 59.0701 282.13 59.6401 281.6C59.7801 281.48 59.9401 281.38 60.1101 281.32C60.0801 281.45 60.0601 281.58 60.0601 281.72C60.0601 282.62 60.7901 283.35 61.6901 283.35C62.5901 283.35 63.3201 282.62 63.3201 281.72C63.3201 281.25 63.1201 280.84 62.8101 280.54C62.7901 280.52 62.7801 280.5 62.7601 280.48C62.7201 280.45 62.6801 280.43 62.6401 280.4C62.6101 280.38 62.5901 280.36 62.5601 280.35C61.3201 279.5 59.6801 279.54 58.6401 280.5C57.5501 281.51 57.5601 283.09 58.0401 284.13C58.5901 285.33 59.7301 285.8 60.2301 286C61.2801 286.43 62.6701 286.59 64.1401 286.59C67.0901 286.59 70.3401 285.96 71.8701 285.63C71.9501 285.69 72.0201 285.74 72.0601 285.77C73.1401 286.58 73.9801 287.15 74.6601 287.61C76.1001 288.58 76.4901 288.87 76.6801 289.6C77.3501 292.26 74.0001 295.78 71.4101 297.43C65.9801 300.88 58.0101 300.4 52.8601 296.32C51.8301 295.51 46.7301 291.13 47.0801 284.94C47.1401 283.94 47.3401 282.94 47.6801 281.96C50.8301 285.44 54.4001 288.4 58.3701 290.77C61.2401 292.49 64.3201 293.9 67.5301 294.97C67.6301 295 67.7401 295.02 67.8501 295.02C68.2701 295.02 68.6601 294.76 68.8001 294.34C68.9701 293.82 68.6901 293.25 68.1701 293.08C65.1001 292.06 62.1501 290.71 59.4101 289.07C48.8301 282.74 41.1001 272.06 37.0501 258.17C35.5201 252.93 34.7501 247.45 34.7401 241.85C41.1401 241.35 46.2001 236 46.2001 229.47C46.2001 222.94 41.1601 217.61 34.7701 217.09V100.5C41.1501 99.99 46.2001 94.6401 46.2001 88.1201C46.2001 81.6001 41.1601 76.26 34.7801 75.74C34.7901 70.15 35.5601 64.6699 37.0901 59.4299C41.1401 45.5499 48.8701 34.86 59.4501 28.53C62.2001 26.89 65.1401 25.54 68.2101 24.52C68.7301 24.35 69.0201 23.78 68.8401 23.26C68.6701 22.74 68.1001 22.4599 67.5801 22.6299C64.3701 23.6999 61.2901 25.1101 58.4201 26.8301C54.4601 29.2001 50.8801 32.1699 47.7301 35.6399C47.4001 34.6599 47.1901 33.6599 47.1301 32.6599C46.7801 26.4799 51.8801 22.1 52.9101 21.28C58.0601 17.2 66.0301 16.7199 71.4601 20.1699C74.0601 21.8199 77.4101 25.34 76.7301 28C76.5401 28.74 76.1601 29.02 74.7101 30C74.0301 30.46 73.1901 31.0301 72.1101 31.8401C72.0701 31.8701 72.0001 31.92 71.9201 31.98C69.6101 31.47 63.4301 30.3201 60.2801 31.6001C59.7901 31.8001 58.6501 32.27 58.1001 33.47C57.6201 34.51 57.6101 36.0901 58.7001 37.1001C59.2501 37.6101 59.9801 37.8701 60.7201 37.8701C61.3801 37.8701 62.0501 37.66 62.6301 37.25C62.6501 37.23 62.6801 37.2199 62.7001 37.1999C62.7401 37.1699 62.7801 37.1501 62.8201 37.1201C62.8401 37.1001 62.8501 37.0801 62.8701 37.0601C63.1801 36.7601 63.3801 36.3499 63.3801 35.8799C63.3801 34.9799 62.6501 34.25 61.7501 34.25C60.8501 34.25 60.1201 34.9799 60.1201 35.8799C60.1201 36.0199 60.1401 36.15 60.1701 36.28C59.9901 36.22 59.8301 36.13 59.7001 36C59.1301 35.47 59.2401 34.5501 59.4501 34.1001C59.7501 33.4401 60.4601 33.15 60.8401 33C62.8601 32.17 66.8701 32.53 70.4101 33.21C68.4601 34.86 65.2101 37.84 62.4601 41.49C61.4501 42.82 60.5301 44.25 59.6901 45.73C59.0101 43.75 57.1501 42.3101 54.9401 42.3101C52.1601 42.3101 49.9001 44.5701 49.9001 47.3501C49.9001 50.1301 52.1601 52.3899 54.9401 52.3899C57.2001 52.3899 59.0901 50.8901 59.7301 48.8301C59.7301 48.8201 59.7401 48.81 59.7501 48.8C60.8601 46.51 62.1801 44.3499 63.6601 42.3899C67.5501 37.2299 72.4601 33.45 73.0101 33.04C74.0601 32.25 74.8801 31.69 75.5401 31.24C77.0201 30.24 77.8401 29.6901 78.1701 28.3701C78.6201 26.5801 77.8701 24.68 76.6501 22.99H88.3001C88.7301 25.34 90.7801 27.1299 93.2501 27.1299C96.0301 27.1299 98.2901 24.8701 98.2901 22.0901C98.2901 19.3101 96.0301 17.05 93.2501 17.05C90.6701 17.05 88.5701 19 88.2701 21.49H75.3801C74.3701 20.44 73.2501 19.5399 72.2501 18.8999C66.3101 15.1299 57.5901 15.6501 51.9601 20.1001C50.8301 21.0001 45.2201 25.81 45.6101 32.74C45.6901 34.16 46.0301 35.5599 46.5901 36.9199C41.5301 42.8999 37.6501 50.2999 35.1501 58.8799C33.5701 64.2999 32.7801 69.97 32.7601 75.75C26.3701 76.26 21.3301 81.6099 21.3301 88.1299C21.3301 94.6499 26.3701 99.99 32.7601 100.51V217.1C26.3701 217.61 21.3301 222.96 21.3301 229.48C21.3301 236 26.3501 241.33 32.7201 241.85C32.7301 247.64 33.5301 253.31 35.1101 258.73C37.6101 267.31 41.5001 274.71 46.5501 280.69C45.9901 282.05 45.6501 283.45 45.5701 284.87C45.1801 291.79 50.7901 296.61 51.9201 297.51C55.0201 299.97 59.0701 301.23 63.0801 301.23C66.3301 301.23 69.5501 300.4 72.2101 298.71C73.2101 298.08 74.3301 297.18 75.3401 296.12H88.2301C88.5301 298.62 90.6401 300.56 93.2101 300.56C95.9901 300.56 98.2501 298.3 98.2501 295.52C98.2501 292.74 95.9901 290.48 93.2101 290.48L93.1901 290.46ZM54.8801 273.79C52.9301 273.79 51.3401 272.2 51.3401 270.25C51.3401 268.3 52.9301 266.71 54.8801 266.71C56.8301 266.71 58.4201 268.3 58.4201 270.25C58.4201 272.2 56.8301 273.79 54.8801 273.79ZM54.9201 50.8799C52.9701 50.8799 51.3801 49.2901 51.3801 47.3401C51.3801 45.3901 52.9701 43.8 54.9201 43.8C56.8701 43.8 58.4601 45.3901 58.4601 47.3401C58.4601 49.2901 56.8701 50.8799 54.9201 50.8799ZM93.2301 18.54C95.1801 18.54 96.7701 20.1301 96.7701 22.0801C96.7701 24.0301 95.1801 25.6201 93.2301 25.6201C91.2801 25.6201 89.6901 24.0301 89.6901 22.0801C89.6901 20.1301 91.2801 18.54 93.2301 18.54ZM23.3201 88.1201C23.3201 82.3701 28.0001 77.6899 33.7501 77.6899C39.5001 77.6899 44.1801 82.3701 44.1801 88.1201C44.1801 93.8701 39.5001 98.55 33.7501 98.55C28.0001 98.55 23.3201 93.8701 23.3201 88.1201ZM23.3201 229.46C23.3201 223.71 28.0001 219.03 33.7501 219.03C39.5001 219.03 44.1801 223.71 44.1801 229.46C44.1801 235.21 39.5001 239.89 33.7501 239.89C28.0001 239.89 23.3201 235.21 23.3201 229.46ZM93.1901 299.04C91.2401 299.04 89.6501 297.45 89.6501 295.5C89.6501 293.55 91.2401 291.96 93.1901 291.96C95.1401 291.96 96.7301 293.55 96.7301 295.5C96.7301 297.45 95.1401 299.04 93.1901 299.04Z" fill="#DFD4CF"/>
<path d="M93.1901 297.19C94.1235 297.19 94.8801 296.433 94.8801 295.5C94.8801 294.567 94.1235 293.81 93.1901 293.81C92.2568 293.81 91.5001 294.567 91.5001 295.5C91.5001 296.433 92.2568 297.19 93.1901 297.19Z" fill="#DFD4CF"/>
<path d="M175.17 257.52C176.23 257.52 177.09 256.66 177.09 255.6C177.09 254.54 176.23 253.68 175.17 253.68C174.11 253.68 173.25 254.54 173.25 255.6C173.25 256.66 174.11 257.52 175.17 257.52Z" fill="#DFD4CF"/>
<path d="M171.73 271.7C172.663 271.7 173.42 270.943 173.42 270.01C173.42 269.077 172.663 268.32 171.73 268.32C170.797 268.32 170.04 269.077 170.04 270.01C170.04 270.943 170.797 271.7 171.73 271.7Z" fill="#DFD4CF"/>
<path d="M176.45 241.67C176.34 239.49 175.65 234.16 171.48 231.84C170.72 231.41 168 230.11 165.04 231.15C164.24 231.43 162.11 232.19 161.46 234.36C161.01 235.87 161.53 237.23 161.94 237.97C162.29 238.86 163.16 239.5 164.18 239.5C165.51 239.5 166.59 238.42 166.59 237.09C166.59 235.76 165.51 234.68 164.18 234.68C163.68 234.68 163.22 234.83 162.84 235.09C162.86 234.99 162.87 234.89 162.9 234.79C163.33 233.35 164.88 232.8 165.54 232.57C167.96 231.71 170.3 232.91 170.74 233.15C174.25 235.11 174.85 239.81 174.94 241.74C175.03 243.7 174.65 245.45 174.07 246.94C169.77 247.48 166.42 251.15 166.42 255.6C166.42 260.42 170.34 264.33 175.15 264.33C179.96 264.33 183.88 260.41 183.88 255.6C183.88 250.79 180.24 247.17 175.67 246.89C176.19 245.36 176.52 243.61 176.42 241.67H176.45ZM175.17 248.87C178.88 248.87 181.9 251.89 181.9 255.6C181.9 259.31 178.88 262.33 175.17 262.33C171.46 262.33 168.44 259.31 168.44 255.6C168.44 252.66 170.33 250.17 172.96 249.25C172.29 250.36 171.61 251.2 171.14 251.7C171.14 251.7 171.14 251.71 171.13 251.72C170.16 252.73 169.56 254.09 169.56 255.6C169.56 258.69 172.08 261.21 175.17 261.21C178.26 261.21 180.78 258.69 180.78 255.6C180.78 252.51 178.26 249.99 175.17 249.99C174.84 249.99 174.52 250.02 174.2 250.08C174.42 249.71 174.65 249.31 174.86 248.88C174.96 248.88 175.06 248.86 175.17 248.86V248.87ZM175.17 251.49C177.43 251.49 179.28 253.33 179.28 255.6C179.28 257.87 177.44 259.71 175.17 259.71C172.9 259.71 171.06 257.87 171.06 255.6C171.06 253.33 172.9 251.49 175.17 251.49Z" fill="#DFD4CF"/>
<path d="M133.42 296.95C134.353 296.95 135.11 296.193 135.11 295.26C135.11 294.327 134.353 293.57 133.42 293.57C132.487 293.57 131.73 294.327 131.73 295.26C131.73 296.193 132.487 296.95 133.42 296.95Z" fill="#DFD4CF"/>
<path d="M198.49 43.6399C197.94 43.6399 197.49 43.1899 197.49 42.6399V23.22H182.61C182.06 23.22 181.61 22.77 181.61 22.22C181.61 21.67 182.06 21.22 182.61 21.22H198.49C199.04 21.22 199.49 21.67 199.49 22.22V42.6399C199.49 43.1899 199.04 43.6399 198.49 43.6399Z" fill="#DFD4CF"/>
<path d="M201.1 46.5C199.06 46.45 198.6 48.01 198.49 48.75C198.38 48 197.91 46.45 195.88 46.5C193.2 46.56 192.85 49.56 193.78 51.08C194.72 52.6 195.2 53.08 196.13 54.05C197.01 54.96 198.06 55.9901 198.45 56.6101C198.45 56.6101 198.47 56.6799 198.48 56.6599C198.49 56.6799 198.51 56.6101 198.51 56.6101C198.9 55.9801 199.95 54.96 200.83 54.05C201.77 53.08 202.25 52.6 203.18 51.08C204.12 49.56 203.76 46.57 201.08 46.5H201.1Z" fill="#DFD4CF"/>
<path d="M198.43 56.8L198.41 56.76C198.41 56.76 198.36 56.6899 198.35 56.6599C198.03 56.1599 197.27 55.3799 196.54 54.6299C196.38 54.4599 196.21 54.2999 196.06 54.1299L195.98 54.05C195.09 53.13 194.6 52.6299 193.69 51.1499C193.08 50.1699 193.04 48.72 193.59 47.71C193.91 47.12 194.57 46.4099 195.89 46.3799C195.92 46.3799 195.95 46.3799 195.99 46.3799C197.63 46.3799 198.26 47.4099 198.51 48.1899C198.75 47.4099 199.39 46.3799 201.03 46.3799C201.06 46.3799 201.09 46.3799 201.13 46.3799C202.46 46.4099 203.11 47.12 203.43 47.71C203.98 48.72 203.93 50.1699 203.33 51.1499C202.41 52.6299 201.93 53.1401 201.04 54.0601L200.96 54.1399C200.8 54.2999 200.64 54.4699 200.47 54.6399C199.74 55.3899 198.98 56.1699 198.66 56.6699C198.66 56.6999 198.63 56.74 198.6 56.77L198.58 56.8101H198.52H198.45L198.43 56.8ZM195.97 46.6201C195.97 46.6201 195.91 46.6201 195.88 46.6201C194.67 46.6501 194.08 47.2901 193.79 47.8201C193.29 48.7401 193.33 50.11 193.89 51.01C194.79 52.47 195.27 52.9701 196.15 53.8701L196.23 53.95C196.39 54.11 196.55 54.28 196.71 54.45C197.41 55.16 198.13 55.8999 198.49 56.4199C198.85 55.8999 199.57 55.17 200.26 54.45C200.42 54.28 200.59 54.12 200.75 53.95L200.83 53.8701C201.71 52.9701 202.19 52.47 203.09 51.01C203.64 50.11 203.69 48.7401 203.19 47.8201C202.9 47.2901 202.31 46.6501 201.1 46.6201C201.07 46.6201 201.04 46.6201 201.01 46.6201C199.2 46.6201 198.73 47.96 198.62 48.77L198.5 49.6299L198.38 48.77C198.26 47.96 197.8 46.6201 195.98 46.6201H195.97Z" fill="#DFD4CF"/>
<path d="M199.92 296.63H184.04C183.49 296.63 183.04 296.18 183.04 295.63C183.04 295.08 183.49 294.63 184.04 294.63H198.92V275.21C198.92 274.66 199.37 274.21 199.92 274.21C200.47 274.21 200.92 274.66 200.92 275.21V295.63C200.92 296.18 200.47 296.63 199.92 296.63Z" fill="#DFD4CF"/>
<path d="M203.46 265.01C202.42 263.87 201.21 262.77 200.7 262.18C200.32 261.74 200.05 261.41 199.94 261.27C199.94 261.26 199.92 261.25 199.91 261.23C199.91 261.24 199.89 261.25 199.88 261.27C199.77 261.41 199.5 261.74 199.12 262.18C198.61 262.76 197.4 263.87 196.36 265.01C195.32 266.15 195.23 267.28 195.43 268.22C195.63 269.16 196.61 270.05 198.16 269.85C198.65 269.79 199 269.56 199.26 269.27C199.09 270.6 198.37 271.3 198.37 271.3H201.37C200.82 270.69 200.63 269.82 200.56 269.28C200.82 269.57 201.17 269.8 201.65 269.86C203.2 270.05 204.18 269.17 204.38 268.23C204.58 267.29 204.49 266.15 203.45 265.02L203.46 265.01Z" fill="#DFD4CF"/>
<path d="M201.66 271.43H198.07L198.29 271.22C198.29 271.22 198.85 270.66 199.08 269.63C198.82 269.83 198.52 269.95 198.18 269.99C196.57 270.19 195.52 269.27 195.31 268.26C195.05 267.03 195.38 265.91 196.27 264.94C196.83 264.33 197.43 263.74 197.96 263.21C198.41 262.76 198.8 262.38 199.03 262.11C199.4 261.69 199.66 261.36 199.79 261.21L199.92 261.05L200.04 261.21C200.17 261.37 200.43 261.69 200.8 262.12C201.03 262.39 201.42 262.77 201.87 263.22C202.4 263.74 203 264.34 203.55 264.94C204.44 265.92 204.77 267.03 204.51 268.26C204.3 269.27 203.24 270.19 201.64 269.99C201.3 269.95 201 269.83 200.74 269.63C200.84 270.15 201.05 270.77 201.46 271.23L201.65 271.44L201.66 271.43ZM198.65 271.18H201.12C200.69 270.59 200.51 269.85 200.44 269.3L200.39 268.9L200.66 269.2C200.94 269.51 201.28 269.69 201.68 269.74C203.13 269.93 204.09 269.11 204.27 268.2C204.51 267.04 204.22 266.02 203.37 265.1C202.82 264.5 202.22 263.91 201.69 263.39C201.24 262.94 200.84 262.55 200.6 262.28C200.29 261.92 200.05 261.63 199.91 261.45C199.77 261.62 199.53 261.91 199.22 262.28C198.98 262.55 198.59 262.94 198.14 263.39C197.61 263.91 197.02 264.5 196.46 265.11C195.61 266.03 195.32 267.05 195.56 268.21C195.75 269.11 196.7 269.93 198.15 269.75C198.55 269.7 198.9 269.52 199.17 269.21L199.44 268.91L199.39 269.31C199.27 270.26 198.88 270.89 198.64 271.2L198.65 271.18Z" fill="#DFD4CF"/>
<path d="M24.66 41.9199C24.11 41.9199 23.66 41.4699 23.66 40.9199V20.5C23.66 19.95 24.11 19.5 24.66 19.5H40.54C41.09 19.5 41.54 19.95 41.54 20.5C41.54 21.05 41.09 21.5 40.54 21.5H25.66V40.9199C25.66 41.4699 25.21 41.9199 24.66 41.9199Z" fill="#DFD4CF"/>
<path d="M24.6899 44.6399C24.0599 45.6299 23.2699 46.7101 22.3199 47.8301C21.6799 48.5801 21.0399 49.2401 20.4299 49.8201C21.2099 50.6001 22.0399 51.5 22.8699 52.55C23.5699 53.43 24.1699 54.2801 24.6899 55.0801C25.2099 54.3001 25.8099 53.4799 26.4999 52.6299C27.3699 51.5599 28.2399 50.6501 29.0599 49.8601C28.3399 49.2101 27.5499 48.43 26.7599 47.49C25.9099 46.49 25.2299 45.5099 24.6899 44.6399Z" fill="#DFD4CF"/>
<path d="M24.69 55.3L24.59 55.1399C24.03 54.2699 23.42 53.4301 22.78 52.6201C22.02 51.6701 21.21 50.7599 20.35 49.9099L20.26 49.8201L20.35 49.73C21.01 49.1 21.64 48.44 22.23 47.75C23.09 46.75 23.88 45.6801 24.59 44.5801L24.7 44.4099L24.8 44.5801C25.41 45.5701 26.1 46.5199 26.86 47.4099C27.57 48.2499 28.34 49.04 29.15 49.77L29.25 49.8601L29.15 49.95C28.25 50.81 27.39 51.74 26.6 52.71C25.96 53.49 25.36 54.3099 24.79 55.1499L24.68 55.3101L24.69 55.3ZM20.61 49.8201C21.44 50.6501 22.23 51.54 22.97 52.46C23.58 53.23 24.16 54.0301 24.69 54.8401C25.23 54.0501 25.8 53.27 26.4 52.54C27.17 51.6 28 50.7001 28.87 49.8501C28.08 49.1401 27.34 48.3701 26.65 47.5601C25.93 46.7101 25.27 45.8101 24.68 44.8701C23.99 45.9301 23.23 46.9499 22.4 47.8999C21.83 48.5599 21.23 49.2001 20.59 49.8101L20.61 49.8201Z" fill="#DFD4CF"/>
<path d="M39.1101 294.9H23.2301C22.6801 294.9 22.2301 294.45 22.2301 293.9V273.48C22.2301 272.93 22.6801 272.48 23.2301 272.48C23.7801 272.48 24.2301 272.93 24.2301 273.48V292.9H39.1101C39.6601 292.9 40.1101 293.35 40.1101 293.9C40.1101 294.45 39.6601 294.9 39.1101 294.9Z" fill="#DFD4CF"/>
<path d="M27.3201 263.87C26.3001 262.76 24.7401 263.42 24.7401 263.42C25.1801 262.95 25.4701 262.58 25.4101 261.82C25.4101 261.79 25.4101 261.77 25.4101 261.74C25.4101 260.52 24.4201 259.53 23.2001 259.53C21.9801 259.53 20.9901 260.52 20.9901 261.74C20.9901 261.89 21.0101 262.04 21.0401 262.19C21.0901 262.72 21.3501 263.04 21.7101 263.43C21.7101 263.43 20.1501 262.77 19.1301 263.88C18.1101 264.99 18.6201 266.31 18.9401 266.74C19.2601 267.17 19.7401 267.9 20.8701 267.82C21.8701 267.75 22.0201 267.58 22.7101 267.03C22.6301 268.54 21.7101 269.57 21.7101 269.57H21.7701H23.2201H24.6701H24.7301C24.1801 268.99 23.6801 267.65 23.7501 267.04C24.4201 267.58 24.5801 267.75 25.5701 267.82C26.7001 267.9 27.1801 267.18 27.5001 266.74C27.8201 266.31 28.3301 264.99 27.3101 263.88L27.3201 263.87Z" fill="#DFD4CF"/>
<path d="M25.0301 269.69H21.4501L21.6301 269.48C21.6301 269.48 22.4001 268.59 22.5701 267.3C22.0601 267.71 21.8101 267.87 20.8901 267.94C19.7301 268.01 19.2101 267.3 18.8901 266.87L18.8501 266.81C18.5501 266.41 17.9501 264.99 19.0501 263.79C19.7801 262.99 20.7801 263.06 21.3501 263.18C21.1301 262.9 20.9701 262.61 20.9301 262.2C20.9001 262.06 20.8801 261.9 20.8801 261.74C20.8801 260.45 21.9301 259.41 23.2101 259.41C24.4901 259.41 25.5401 260.45 25.5401 261.74C25.5401 261.77 25.5401 261.8 25.5401 261.82C25.5801 262.44 25.4101 262.82 25.1201 263.18C25.6801 263.06 26.6801 262.99 27.4201 263.79C28.5201 264.99 27.9101 266.41 27.6201 266.81L27.5801 266.87C27.2801 267.28 26.7901 267.95 25.7601 267.95C25.7001 267.95 25.6401 267.95 25.5801 267.95C24.6601 267.88 24.4101 267.72 23.9001 267.31C23.9601 267.94 24.3701 268.99 24.8401 269.49L25.0401 269.7L25.0301 269.69ZM21.9801 269.44H24.4701C23.9901 268.78 23.5701 267.62 23.6301 267.02L23.6501 266.79L23.9401 267.02C24.5101 267.48 24.6801 267.62 25.5801 267.68C26.6001 267.76 27.0401 267.15 27.3601 266.71L27.4001 266.65C27.6701 266.29 28.2001 265.02 27.2201 263.94C26.2701 262.91 24.7901 263.51 24.7801 263.52L24.2401 263.75L24.6401 263.32C25.0701 262.86 25.3301 262.53 25.2801 261.81V261.72C25.2801 260.57 24.3501 259.64 23.2001 259.64C22.0501 259.64 21.1201 260.57 21.1201 261.72C21.1201 261.86 21.1301 262.01 21.1601 262.14C21.2101 262.65 21.4601 262.95 21.8001 263.31L22.2001 263.74L21.6601 263.51C21.6601 263.51 20.1601 262.9 19.2201 263.93C18.2401 265.01 18.7701 266.28 19.0401 266.64L19.0801 266.7C19.4001 267.14 19.8401 267.76 20.8601 267.67C21.7601 267.6 21.9301 267.47 22.5001 267.01L22.8501 266.73L22.8301 267.01C22.7701 268.17 22.2401 269.04 21.9601 269.42L21.9801 269.44Z" fill="#DFD4CF"/>
<path d="M23.23 125.48C24.5169 125.48 25.56 124.437 25.56 123.15C25.56 121.863 24.5169 120.82 23.23 120.82C21.9432 120.82 20.9 121.863 20.9 123.15C20.9 124.437 21.9432 125.48 23.23 125.48Z" fill="#DFD4CF"/>
<path d="M23.23 197.08C24.5169 197.08 25.56 196.037 25.56 194.75C25.56 193.463 24.5169 192.42 23.23 192.42C21.9432 192.42 20.9 193.463 20.9 194.75C20.9 196.037 21.9432 197.08 23.23 197.08Z" fill="#DFD4CF"/>
<path d="M23.23 193.39C22.95 193.39 22.73 193.17 22.73 192.89V125.48C22.73 125.2 22.95 124.98 23.23 124.98C23.51 124.98 23.73 125.2 23.73 125.48V192.89C23.73 193.17 23.51 193.39 23.23 193.39Z" fill="#DFD4CF"/>
<path d="M23.3 130.08C21.17 128.04 20.5001 127.72 20.3201 127.86C20.0301 128.1 20.5701 129.99 21.9301 130.3C22.5501 130.44 23.08 130.2 23.3 130.08Z" fill="#DFD4CF"/>
<path d="M22.31 130.46C22.18 130.46 22.04 130.45 21.9 130.42C20.97 130.21 20.34 129.27 20.16 128.49C20.11 128.28 20.06 127.91 20.24 127.77C20.47 127.58 21.01 127.73 23.38 130L23.5 130.12L23.35 130.2C23.14 130.31 22.76 130.47 22.3 130.47L22.31 130.46ZM20.43 127.95H20.4C20.38 127.97 20.34 128.15 20.43 128.5C20.57 129.02 21.05 129.96 21.96 130.17C22.4 130.27 22.81 130.16 23.08 130.04C21.08 128.14 20.56 127.95 20.43 127.95Z" fill="#DFD4CF"/>
<path d="M23.17 130.08C25.3 128.04 25.97 127.72 26.15 127.86C26.44 128.1 25.9 129.99 24.54 130.3C23.92 130.44 23.39 130.2 23.17 130.08Z" fill="#DFD4CF"/>
<path d="M24.1501 130.46C23.7001 130.46 23.3201 130.3 23.1001 130.19L22.9501 130.11L23.08 129.99C25.45 127.72 25.9901 127.58 26.2201 127.76C26.4001 127.91 26.34 128.28 26.3 128.48C26.12 129.26 25.5001 130.2 24.5601 130.41C24.4201 130.44 24.2801 130.45 24.1501 130.45V130.46ZM23.3801 130.04C23.6501 130.15 24.0601 130.27 24.5001 130.17C25.4001 129.97 25.8901 129.03 26.0301 128.5C26.1301 128.15 26.0901 127.97 26.0601 127.95C26.0101 127.93 25.6301 127.91 23.3801 130.04Z" fill="#DFD4CF"/>
<path d="M23.17 187.92C25.3 189.96 25.97 190.28 26.15 190.14C26.44 189.9 25.9 188.01 24.54 187.7C23.92 187.56 23.39 187.8 23.17 187.92Z" fill="#DFD4CF"/>
<path d="M26.05 190.3C25.73 190.3 25.01 189.86 23.08 188.02L22.9501 187.9L23.1001 187.82C23.3701 187.68 23.93 187.45 24.55 187.59C25.48 187.8 26.1101 188.74 26.2901 189.52C26.3401 189.73 26.3901 190.1 26.2101 190.24C26.1701 190.28 26.1101 190.3 26.0401 190.3H26.05ZM23.3801 187.96C25.6301 190.1 26.0101 190.08 26.0601 190.05C26.0801 190.03 26.1201 189.85 26.0301 189.5C25.8901 188.98 25.4001 188.04 24.5001 187.83C24.0601 187.73 23.6501 187.84 23.3801 187.96Z" fill="#DFD4CF"/>
<path d="M23.2999 187.92C21.1699 189.96 20.4999 190.28 20.3199 190.14C20.0299 189.9 20.5699 188.01 21.9299 187.7C22.5499 187.56 23.0799 187.8 23.2999 187.92Z" fill="#DFD4CF"/>
<path d="M20.41 190.3C20.34 190.3 20.28 190.28 20.24 190.24C20.06 190.1 20.12 189.73 20.16 189.52C20.34 188.74 20.96 187.8 21.9 187.59C22.52 187.45 23.08 187.67 23.35 187.82L23.5 187.9L23.38 188.02C21.45 189.87 20.73 190.3 20.41 190.3ZM22.31 187.79C22.2 187.79 22.08 187.8 21.96 187.83C21.06 188.04 20.57 188.98 20.43 189.5C20.33 189.85 20.37 190.02 20.4 190.05C20.45 190.07 20.84 190.09 23.08 187.96C22.88 187.88 22.62 187.79 22.31 187.79Z" fill="#DFD4CF"/>
<path d="M201.3 123.73C202.587 123.73 203.63 122.687 203.63 121.4C203.63 120.113 202.587 119.07 201.3 119.07C200.013 119.07 198.97 120.113 198.97 121.4C198.97 122.687 200.013 123.73 201.3 123.73Z" fill="#DFD4CF"/>
<path d="M201.3 195.33C202.587 195.33 203.63 194.287 203.63 193C203.63 191.713 202.587 190.67 201.3 190.67C200.013 190.67 198.97 191.713 198.97 193C198.97 194.287 200.013 195.33 201.3 195.33Z" fill="#DFD4CF"/>
<path d="M201.3 191.64C201.02 191.64 200.8 191.42 200.8 191.14V123.73C200.8 123.45 201.02 123.23 201.3 123.23C201.58 123.23 201.8 123.45 201.8 123.73V191.14C201.8 191.42 201.58 191.64 201.3 191.64Z" fill="#DFD4CF"/>
<path d="M201.36 128.33C199.23 126.29 198.56 125.97 198.38 126.11C198.09 126.35 198.63 128.24 199.99 128.55C200.61 128.69 201.14 128.45 201.36 128.33Z" fill="#DFD4CF"/>
<path d="M200.38 128.71C200.25 128.71 200.11 128.7 199.97 128.67C199.04 128.46 198.41 127.52 198.23 126.74C198.18 126.53 198.13 126.16 198.31 126.02C198.54 125.83 199.08 125.98 201.45 128.25L201.58 128.37L201.43 128.45C201.22 128.56 200.84 128.72 200.38 128.72V128.71ZM198.49 126.2H198.46C198.44 126.22 198.4 126.4 198.49 126.75C198.63 127.27 199.12 128.21 200.02 128.42C200.46 128.52 200.87 128.41 201.14 128.29C199.14 126.39 198.62 126.2 198.49 126.2Z" fill="#DFD4CF"/>
<path d="M201.23 128.33C203.36 126.29 204.03 125.97 204.21 126.11C204.5 126.35 203.96 128.24 202.6 128.55C201.98 128.69 201.45 128.45 201.23 128.33Z" fill="#DFD4CF"/>
<path d="M202.22 128.71C201.77 128.71 201.39 128.55 201.17 128.44L201.02 128.36L201.14 128.24C203.51 125.97 204.05 125.83 204.28 126.01C204.46 126.15 204.4 126.52 204.36 126.73C204.18 127.51 203.56 128.45 202.62 128.66C202.48 128.69 202.34 128.7 202.21 128.7L202.22 128.71ZM201.45 128.29C201.72 128.41 202.13 128.52 202.57 128.42C203.47 128.21 203.96 127.27 204.1 126.75C204.2 126.4 204.16 126.23 204.13 126.2C204.08 126.18 203.69 126.16 201.45 128.29Z" fill="#DFD4CF"/>
<path d="M201.23 186.17C203.36 188.21 204.03 188.53 204.21 188.39C204.5 188.15 203.96 186.26 202.6 185.95C201.98 185.81 201.45 186.05 201.23 186.17Z" fill="#DFD4CF"/>
<path d="M204.12 188.55C203.8 188.55 203.08 188.11 201.15 186.26L201.02 186.14L201.17 186.06C201.51 185.88 202.03 185.7 202.62 185.83C203.55 186.04 204.18 186.98 204.36 187.76C204.41 187.97 204.46 188.34 204.28 188.48C204.24 188.51 204.18 188.54 204.11 188.54L204.12 188.55ZM201.45 186.21C203.69 188.34 204.07 188.33 204.13 188.3C204.15 188.28 204.19 188.1 204.1 187.75C203.96 187.23 203.47 186.29 202.57 186.08C202.14 185.98 201.74 186.08 201.45 186.21Z" fill="#DFD4CF"/>
<path d="M201.36 186.17C199.23 188.21 198.56 188.53 198.38 188.39C198.09 188.15 198.63 186.26 199.99 185.95C200.61 185.81 201.14 186.05 201.36 186.17Z" fill="#DFD4CF"/>
<path d="M198.48 188.55C198.41 188.55 198.35 188.53 198.31 188.49C198.13 188.35 198.19 187.98 198.23 187.77C198.41 186.99 199.03 186.05 199.97 185.84C200.56 185.71 201.08 185.89 201.42 186.07L201.57 186.15L201.44 186.27C199.51 188.12 198.79 188.56 198.47 188.56L198.48 188.55ZM200.38 186.04C200.27 186.04 200.15 186.05 200.02 186.08C199.12 186.28 198.64 187.22 198.49 187.74C198.39 188.09 198.43 188.27 198.46 188.29C198.51 188.31 198.89 188.34 201.14 186.2C200.93 186.11 200.67 186.03 200.38 186.03V186.04Z" fill="#DFD4CF"/>
<path d="M84.7401 72.3201C82.6701 72.3201 77.7501 71.8399 74.2601 67.6399C70.4201 63.0199 71.3401 57.4699 71.7201 55.8799C72.9401 50.6699 76.8801 48.1199 77.7701 47.9399C78.6501 47.7599 79.3601 47.98 79.4401 48.01C79.6701 48.09 79.8401 48.18 79.9401 48.23C80.6701 48.7 80.9801 49.3801 81.1201 49.8701C81.2201 50.2201 81.0201 50.5799 80.6701 50.6699C80.3301 50.7699 79.9701 50.57 79.8701 50.22C79.7901 49.94 79.6201 49.5601 79.2701 49.3401C79.2501 49.3401 79.1501 49.28 79.0301 49.24C79.0301 49.24 78.5701 49.1 78.0301 49.21C77.6001 49.32 74.1001 51.4199 72.9801 56.1699C72.6401 57.6099 71.8001 62.6501 75.2601 66.8001C78.7101 70.9501 83.7401 71.06 85.2101 71C89.9701 70.79 94.3501 67.7999 96.6401 63.1799C96.8001 62.8599 97.1901 62.7299 97.5101 62.8899C97.8301 63.0499 97.9601 63.44 97.8001 63.76C95.3001 68.8 90.4901 72.0701 85.2601 72.3001C85.1201 72.3001 84.9401 72.3101 84.7401 72.3101V72.3201Z" fill="#DFD4CF"/>
<path d="M78.5601 53.3101C80.0347 53.3101 81.2301 52.1145 81.2301 50.6399C81.2301 49.1653 80.0347 47.97 78.5601 47.97C77.0855 47.97 75.8901 49.1653 75.8901 50.6399C75.8901 52.1145 77.0855 53.3101 78.5601 53.3101Z" fill="#DFD4CF"/>
<path d="M138.98 72.3201C138.78 72.3201 138.6 72.3201 138.46 72.3101C133.23 72.0801 128.42 68.81 125.92 63.77C125.76 63.45 125.89 63.0599 126.21 62.8999C126.53 62.7399 126.92 62.8699 127.08 63.1899C129.37 67.7999 133.75 70.8 138.51 71.01C139.97 71.07 145.01 70.9601 148.46 66.8101C151.91 62.6601 151.08 57.6199 150.74 56.1799C149.62 51.4299 146.12 49.33 145.69 49.22C145.15 49.11 144.69 49.25 144.69 49.25C144.57 49.29 144.47 49.3401 144.42 49.3701C144.1 49.5801 143.93 49.95 143.86 50.23C143.76 50.58 143.4 50.7799 143.06 50.6799C142.71 50.5799 142.51 50.2199 142.61 49.8799C142.75 49.3899 143.06 48.71 143.76 48.26C143.89 48.18 144.07 48.1 144.29 48.02C144.37 47.99 145.08 47.77 145.96 47.95C146.86 48.13 150.79 50.6799 152.01 55.8899C152.38 57.4799 153.3 63.0399 149.47 67.6499C145.98 71.8499 141.06 72.3301 138.99 72.3301L138.98 72.3201Z" fill="#DFD4CF"/>
<path d="M145.16 53.3101C146.635 53.3101 147.83 52.1145 147.83 50.6399C147.83 49.1653 146.635 47.97 145.16 47.97C143.685 47.97 142.49 49.1653 142.49 50.6399C142.49 52.1145 143.685 53.3101 145.16 53.3101Z" fill="#DFD4CF"/>
<path d="M78.8401 268.23C78.6301 268.23 78.3901 268.21 78.1501 268.16C77.2501 267.98 73.3201 265.43 72.1001 260.22C71.7301 258.63 70.8101 253.07 74.6401 248.46C78.4701 243.85 84.0301 243.73 85.6401 243.79C90.8701 244.02 95.6801 247.29 98.1801 252.33C98.3401 252.65 98.2101 253.04 97.8901 253.2C97.5701 253.36 97.1801 253.23 97.0201 252.91C94.7301 248.3 90.3501 245.3 85.5901 245.09C84.1301 245.02 79.0901 245.14 75.6401 249.29C72.1901 253.44 73.0201 258.48 73.3601 259.92C74.4801 264.67 77.9801 266.77 78.4101 266.88C78.9501 266.99 79.4101 266.85 79.4101 266.85C79.5301 266.81 79.6301 266.76 79.6801 266.73C80.0001 266.52 80.1701 266.15 80.2401 265.87C80.3401 265.52 80.7001 265.32 81.0401 265.42C81.3901 265.52 81.5901 265.88 81.4901 266.22C81.3501 266.71 81.0401 267.39 80.3401 267.84C80.2101 267.92 80.0301 268 79.8101 268.08C79.7501 268.1 79.3701 268.22 78.8301 268.22L78.8401 268.23Z" fill="#DFD4CF"/>
<path d="M78.9301 268.14C80.4047 268.14 81.6001 266.945 81.6001 265.47C81.6001 263.995 80.4047 262.8 78.9301 262.8C77.4555 262.8 76.2601 263.995 76.2601 265.47C76.2601 266.945 77.4555 268.14 78.9301 268.14Z" fill="#DFD4CF"/>
<path d="M145.63 268.23C145.09 268.23 144.71 268.11 144.65 268.09C144.42 268.01 144.25 267.92 144.15 267.87C143.42 267.4 143.11 266.72 142.97 266.23C142.87 265.88 143.07 265.52 143.42 265.43C143.77 265.33 144.13 265.53 144.22 265.88C144.3 266.16 144.47 266.54 144.82 266.76C144.84 266.76 144.94 266.82 145.06 266.86C145.06 266.86 145.52 267 146.06 266.89C146.49 266.78 149.99 264.68 151.11 259.93C151.45 258.49 152.29 253.45 148.83 249.3C145.38 245.15 140.35 245.04 138.88 245.1C134.12 245.31 129.74 248.3 127.45 252.92C127.29 253.24 126.9 253.37 126.58 253.21C126.26 253.05 126.13 252.66 126.29 252.34C128.79 247.3 133.6 244.03 138.83 243.8C140.44 243.73 146 243.86 149.83 248.47C153.67 253.09 152.75 258.64 152.37 260.23C151.15 265.44 147.21 267.99 146.32 268.17C146.07 268.22 145.84 268.24 145.63 268.24V268.23Z" fill="#DFD4CF"/>
<path d="M145.53 268.14C147.005 268.14 148.2 266.945 148.2 265.47C148.2 263.995 147.005 262.8 145.53 262.8C144.055 262.8 142.86 263.995 142.86 265.47C142.86 266.945 144.055 268.14 145.53 268.14Z" fill="#DFD4CF"/>
<defs>
<linearGradient id="paint0_linear_2_20069" x1="-5.10999" y1="-41.2199" x2="206.35" y2="316.51" gradientUnits="userSpaceOnUse">
<stop stop-color="#E0D5D0"/>
<stop offset="0.46" stop-color="#B2A8A0"/>
<stop offset="1" stop-color="#80776D"/>
</linearGradient>
</defs>
</svg>
