<svg width="226" height="318" viewBox="0 0 226 318" fill="none" xmlns="http://www.w3.org/2000/svg">
<path d="M217.2 317.26H8.51001C4.08001 317.26 0.48999 313.64 0.48999 309.18V8.41992C0.48999 3.95992 4.08001 0.340088 8.51001 0.340088H217.2C221.63 0.340088 225.22 3.95992 225.22 8.41992V309.18C225.22 313.64 221.63 317.26 217.2 317.26Z" fill="url(#paint0_linear_2_19969)"/>
<path d="M211.17 304.73H14.54C14.26 304.73 14.04 304.51 14.04 304.23V68.1399V13.3601C14.04 13.0801 14.26 12.8601 14.54 12.8601H211.17C211.45 12.8601 211.67 13.0801 211.67 13.3601V304.23C211.67 304.51 211.45 304.73 211.17 304.73ZM15.0301 303.73H210.66V13.8601H15.0301V213.57V303.73Z" fill="black"/>
<path d="M38.41 158.06C38.41 199.11 71.8 232.5 112.85 232.5C153.9 232.5 187.29 199.11 187.29 158.06C187.29 117.01 153.9 83.6201 112.85 83.6201C71.8 83.6201 38.41 117.01 38.41 158.06ZM185.29 158.06C185.29 198 152.79 230.5 112.85 230.5C72.91 230.5 40.41 198 40.41 158.06C40.41 118.12 72.91 85.6201 112.85 85.6201C152.79 85.6201 185.29 118.12 185.29 158.06Z" fill="black"/>
<path d="M112.84 88.8C107.9 88.8 102.22 92.19 102.03 96.72C101.96 98.32 102.62 99.98 103.93 101.53C104.3 102.42 104.97 104.58 104.07 106.94C103.55 108.29 102.64 109.42 101.36 110.28C98.27 110.99 95.2901 112 92.4401 113.27L87.04 96.3799C86.93 96.0499 86.7101 95.7801 86.4001 95.6201C86.0901 95.4601 85.74 95.43 85.42 95.54C85.08 95.65 84.7901 95.9 84.6401 96.23C84.4901 96.56 84.4801 96.94 84.6201 97.27L91.4901 113.69C89.2301 114.76 87.0601 116 84.9901 117.39L75.9001 101.55C75.7301 101.25 75.4501 101.03 75.1201 100.94C74.7901 100.85 74.4401 100.89 74.1401 101.07C73.8301 101.25 73.6001 101.55 73.5201 101.91C73.4401 102.27 73.52 102.64 73.72 102.93L84.1501 117.92C84.1501 117.92 84.1701 117.93 84.1801 117.94C82.1401 119.38 80.21 120.97 78.42 122.7C78.4 122.64 78.3701 122.58 78.3201 122.53L66.11 108.95C65.88 108.69 65.5601 108.54 65.2101 108.52C64.8701 108.5 64.5301 108.62 64.2801 108.85C64.0101 109.09 63.85 109.44 63.85 109.8C63.85 110.16 64.0001 110.51 64.2601 110.76L77.6 123.23C77.6 123.23 77.7001 123.31 77.7601 123.33C76.0001 125.09 74.3701 126.98 72.8801 128.98C72.8801 128.98 72.87 128.96 72.86 128.95L58.0701 118.23C57.4901 117.81 56.6801 117.94 56.2601 118.52C56.0501 118.81 55.97 119.18 56.04 119.54C56.11 119.9 56.3301 120.21 56.6401 120.39L72.29 129.77C70.85 131.8 69.5701 133.95 68.4401 136.19L52.16 129.01C51.84 128.87 51.49 128.86 51.17 128.99C50.85 129.12 50.5901 129.36 50.4501 129.67C50.3001 130 50.3001 130.38 50.4501 130.71C50.6001 131.04 50.88 131.3 51.22 131.42L67.97 137.13C66.51 140.21 65.3601 143.47 64.5701 146.85C63.7401 147.96 62.6901 148.77 61.4601 149.24C58.9701 150.19 56.76 149.41 56.05 149.1C54.49 147.79 52.83 147.12 51.23 147.2C46.69 147.4 43.3101 153.08 43.3101 158.02C43.3101 162.96 46.7 168.63 51.23 168.83C52.83 168.89 54.5 168.24 56.05 166.93C56.93 166.56 59.0901 165.89 61.4601 166.79C62.7001 167.26 63.7401 168.07 64.5701 169.18C65.3501 172.52 66.48 175.73 67.91 178.77L50.9901 184.54C50.6501 184.66 50.37 184.91 50.22 185.25C50.07 185.58 50.07 185.96 50.22 186.29C50.43 186.77 50.91 187.06 51.41 187.06C51.58 187.06 51.7601 187.02 51.9301 186.95L68.36 179.7C69.47 181.95 70.7501 184.1 72.1901 186.13C72.1501 186.14 72.1101 186.15 72.0701 186.17L56.41 195.56C56.1 195.74 55.8801 196.06 55.8101 196.41C55.7401 196.77 55.8101 197.14 56.0301 197.43C56.2301 197.71 56.5301 197.89 56.8701 197.95C56.9401 197.96 57.0101 197.97 57.0801 197.97C57.3501 197.97 57.6101 197.89 57.8401 197.72L72.6301 187C72.6301 187 72.7201 186.92 72.7501 186.87C74.2401 188.9 75.8801 190.82 77.6501 192.6C77.5501 192.61 77.4501 192.65 77.3701 192.72L64.0301 205.19C63.7601 205.44 63.6201 205.79 63.6201 206.15C63.6201 206.51 63.78 206.86 64.05 207.1C64.29 207.31 64.59 207.43 64.91 207.43C64.93 207.43 64.96 207.43 64.98 207.43C65.33 207.41 65.6401 207.26 65.8701 207L78.0801 193.42C78.1501 193.34 78.1901 193.23 78.2001 193.13C80.0001 194.88 81.9401 196.5 83.9901 197.96C83.9701 197.98 83.94 198 83.92 198.03L73.4901 213.02C73.2801 213.32 73.21 213.69 73.29 214.05C73.37 214.41 73.6 214.71 73.91 214.89C74.11 215.01 74.33 215.06 74.55 215.06C75 215.06 75.4401 214.83 75.6801 214.41L84.7701 198.57C84.7701 198.57 84.78 198.53 84.79 198.52C86.85 199.92 89.0101 201.18 91.2701 202.26L84.3901 218.7C84.2501 219.03 84.26 219.41 84.41 219.74C84.56 220.07 84.8501 220.32 85.1901 220.43C85.3201 220.47 85.4501 220.49 85.5901 220.49C85.7901 220.49 85.9901 220.44 86.1801 220.35C86.4901 220.19 86.7101 219.92 86.8201 219.59L92.22 202.69C95.13 204.01 98.1901 205.05 101.37 205.78C102.65 206.64 103.56 207.76 104.08 209.12C104.98 211.47 104.31 213.63 103.94 214.52C102.63 216.08 101.97 217.74 102.04 219.34C102.24 223.88 107.92 227.26 112.86 227.26C117.8 227.26 123.47 223.87 123.67 219.34C123.74 217.74 123.08 216.08 121.77 214.52C121.4 213.63 120.73 211.48 121.63 209.12C122.41 207.08 123.96 205.92 125.13 205.31C127.67 204.62 130.12 203.72 132.48 202.65L137.89 219.58C138 219.91 138.22 220.18 138.53 220.34C138.72 220.44 138.92 220.49 139.12 220.49C139.25 220.49 139.38 220.47 139.51 220.43C139.85 220.32 140.14 220.07 140.29 219.74C140.44 219.41 140.45 219.03 140.31 218.7L133.42 202.23C135.68 201.15 137.86 199.91 139.91 198.51C139.91 198.53 139.92 198.55 139.93 198.57L149.02 214.41C149.26 214.83 149.7 215.06 150.15 215.06C150.37 215.06 150.59 215 150.79 214.89C151.1 214.71 151.33 214.41 151.41 214.05C151.49 213.69 151.41 213.32 151.21 213.03L140.78 198.04C140.78 198.04 140.72 197.98 140.69 197.95C142.75 196.49 144.69 194.87 146.5 193.11C146.5 193.22 146.54 193.34 146.62 193.43L158.83 207.01C159.06 207.27 159.38 207.42 159.72 207.44C159.74 207.44 159.77 207.44 159.79 207.44C160.11 207.44 160.41 207.32 160.65 207.11C160.92 206.87 161.08 206.52 161.08 206.16C161.08 205.8 160.93 205.45 160.67 205.2L147.33 192.73C147.24 192.65 147.14 192.61 147.03 192.6C148.81 190.81 150.44 188.88 151.93 186.83C151.96 186.89 152.01 186.95 152.07 186.99L166.86 197.7C167.08 197.86 167.35 197.95 167.62 197.95C167.69 197.95 167.76 197.95 167.83 197.93C168.17 197.88 168.47 197.69 168.67 197.41C168.88 197.12 168.96 196.75 168.89 196.39C168.82 196.03 168.6 195.72 168.29 195.54L152.63 186.15C152.58 186.12 152.52 186.1 152.46 186.09C153.89 184.05 155.18 181.91 156.29 179.66L172.76 186.93C172.93 187 173.11 187.04 173.28 187.04C173.78 187.04 174.25 186.75 174.47 186.27C174.62 185.94 174.62 185.56 174.47 185.23C174.32 184.9 174.04 184.64 173.7 184.52L156.72 178.73C157.97 176.05 159.01 173.24 159.77 170.32C160.27 169.49 161.64 167.61 164.21 166.78C166.65 165.98 168.78 166.59 169.65 166.93C171.21 168.24 172.87 168.88 174.47 168.82C178.91 168.62 182.21 162.97 182.39 158.01C182.43 156.93 182.35 153.17 179.67 150.14C178.79 149.14 177.14 147.29 174.47 147.18C172.1 147.09 170.35 148.41 169.64 149.07C168.76 149.4 166.64 150.01 164.21 149.22C161.64 148.38 160.27 146.5 159.77 145.67C158.99 142.66 157.92 139.77 156.61 137.01L173.48 131.26C173.82 131.14 174.1 130.89 174.25 130.55C174.4 130.22 174.39 129.84 174.25 129.51C174.11 129.19 173.86 128.95 173.53 128.83C173.21 128.71 172.86 128.71 172.54 128.85L156.16 136.08C155.03 133.83 153.73 131.69 152.29 129.66C152.33 129.65 152.37 129.65 152.41 129.63L168.07 120.24C168.38 120.06 168.6 119.74 168.67 119.39C168.74 119.03 168.67 118.66 168.45 118.37C168.03 117.79 167.22 117.66 166.64 118.08L151.85 128.8C151.85 128.8 151.78 128.87 151.75 128.91C150.25 126.88 148.6 124.97 146.81 123.2C146.92 123.2 147.03 123.15 147.11 123.07L160.45 110.6C160.72 110.35 160.87 110 160.86 109.64C160.86 109.28 160.7 108.93 160.43 108.69C160.17 108.46 159.84 108.34 159.5 108.36C159.15 108.38 158.84 108.53 158.6 108.79L146.39 122.37C146.31 122.46 146.27 122.58 146.27 122.69C144.45 120.94 142.5 119.33 140.43 117.88C140.48 117.85 140.53 117.81 140.56 117.76L150.99 102.77C151.2 102.47 151.27 102.1 151.19 101.74C151.11 101.38 150.88 101.08 150.57 100.9C150.27 100.73 149.92 100.68 149.59 100.77C149.26 100.86 148.98 101.08 148.81 101.38L139.72 117.22C139.72 117.22 139.69 117.3 139.68 117.34C137.62 115.95 135.43 114.74 133.16 113.67L140.09 97.1001C140.23 96.7701 140.22 96.3901 140.07 96.0601C139.92 95.7301 139.63 95.4801 139.29 95.3701C138.96 95.2701 138.61 95.29 138.3 95.45C137.99 95.61 137.77 95.88 137.66 96.21L132.22 113.24C129.94 112.23 127.57 111.36 125.12 110.7C123.95 110.09 122.41 108.94 121.62 106.9C120.72 104.54 121.39 102.38 121.76 101.49C123.07 99.94 123.73 98.2799 123.66 96.6799C123.47 92.1399 117.79 88.76 112.84 88.76V88.8ZM122.67 96.76C122.74 98.48 121.78 99.9799 120.96 100.93C120.93 100.97 120.9 101.01 120.88 101.06C120.47 102.01 119.64 104.53 120.69 107.29C121.6 109.65 123.37 110.96 124.7 111.64C124.73 111.65 124.75 111.67 124.78 111.67C124.8 111.67 124.82 111.68 124.84 111.69C141.49 116.16 154.51 129.32 158.81 146.03C158.82 146.07 158.84 146.12 158.86 146.16C159.39 147.06 160.93 149.25 163.89 150.22C166.71 151.14 169.16 150.39 170.08 150.02C170.14 150 170.19 149.96 170.24 149.92C170.81 149.39 172.32 148.14 174.41 148.24C176.66 148.33 178.06 149.92 178.9 150.87C181.34 153.62 181.41 157.05 181.37 158.04C181.2 162.55 178.19 167.72 174.41 167.88C172.7 167.96 171.18 166.99 170.22 166.17C170.18 166.13 170.13 166.11 170.08 166.09C169.16 165.72 166.71 164.97 163.89 165.89C160.94 166.85 159.39 169.04 158.86 169.93C158.84 169.97 158.82 170.01 158.81 170.06C154.51 186.76 141.49 199.93 124.84 204.41C124.84 204.41 124.8 204.42 124.78 204.43C124.76 204.43 124.73 204.45 124.71 204.46C123.38 205.14 121.61 206.46 120.7 208.81C119.64 211.57 120.48 214.08 120.89 215.03C120.91 215.08 120.94 215.12 120.97 215.16C121.79 216.12 122.75 217.63 122.68 219.35C122.51 223.27 117.26 226.31 112.87 226.31C108.47 226.31 103.22 223.27 103.05 219.35C102.97 217.63 103.94 216.12 104.76 215.16C104.79 215.12 104.82 215.08 104.84 215.03C105.25 214.08 106.08 211.57 105.03 208.81C104.43 207.23 103.36 205.92 101.85 204.94C101.79 204.9 101.72 204.88 101.65 204.87C83.8601 200.82 69.7001 186.73 65.5701 168.95C65.5601 168.87 65.53 168.79 65.48 168.72C64.52 167.4 63.3 166.45 61.85 165.89C59.07 164.85 56.5701 165.67 55.6201 166.07C55.5701 166.09 55.5301 166.12 55.4901 166.15C54.5301 166.97 53.02 167.93 51.3 167.86C47.38 167.69 44.3401 162.44 44.3401 158.05C44.3401 153.65 47.38 148.4 51.3 148.22C53.01 148.18 54.5301 149.11 55.4901 149.93C55.5301 149.96 55.57 149.99 55.61 150.01C56.33 150.34 58.92 151.32 61.85 150.2C63.3 149.64 64.52 148.69 65.48 147.37C65.52 147.31 65.5501 147.23 65.5701 147.16C69.7001 129.38 83.8701 115.28 101.58 111.25C101.68 111.25 101.77 111.22 101.85 111.17C103.35 110.18 104.42 108.88 105.03 107.3C106.09 104.54 105.25 102.02 104.84 101.07C104.82 101.02 104.79 100.98 104.76 100.94C103.94 99.9799 102.98 98.48 103.05 96.77C103.22 92.85 108.46 89.8101 112.86 89.8101C117.26 89.8101 122.51 92.85 122.68 96.77L122.67 96.76Z" fill="black"/>
<path d="M112.37 122.72C109.26 122.4 106.08 122.75 103.18 123.74C101.08 124.45 96.7001 125.94 93.6801 130.39C91.4701 133.65 90.9501 137.06 90.9301 139.48C89.6101 140.32 88.2701 140.92 87.0201 141.48C84.4701 142.62 82.2701 143.63 81.3601 146.18C78.9001 147.03 77.1401 148.35 76.1301 150.12C75.3001 151.57 75.2701 152.79 75.2301 154.47C75.2101 155.46 75.1801 156.57 74.9901 158.05C74.6801 160.51 74.2101 161.65 73.8301 162.57C73.4601 163.48 73.1401 164.26 73.1501 165.74C73.1901 170.18 76.0701 175.81 81.3501 177.49C82.4701 177.85 83.5501 177.99 84.5801 177.99C86.9201 177.99 88.9101 177.25 90.2001 176.63C90.2701 176.95 90.3401 177.25 90.4101 177.52C90.9601 179.88 91.1801 180.84 91.9201 182.01C92.5301 185.47 94.0301 188.42 96.2501 190.52C98.8301 192.97 101.99 193.57 107.73 194.67C112.51 195.59 115.92 196.24 118.89 196.24C121.06 196.24 123 195.89 125.07 195.05C127.7 193.97 130.07 192.28 132.11 190.01C133.01 189.73 133.84 189.32 134.62 188.7C137.98 186.01 138.06 181.21 137.9 179.02C140.79 178.36 143.29 177.14 145.35 175.36C151 170.47 152.25 162.34 151.6 156.87C151.13 152.85 149.68 149.85 147.72 148.84C147.53 148.74 147.27 148.63 146.96 148.5C145.79 148.01 144.02 147.26 143.16 145.68C142.85 145.12 142.7 144.55 142.7 144.55C142.49 143.73 142.59 143.19 142.72 142.5C142.81 142.01 142.92 141.45 142.9 140.75C142.89 140.19 142.74 138.24 141.44 136.84C139.96 135.24 137.77 135.16 136.61 135.24C136.21 134.41 135.71 133.58 135.11 132.76C132.21 128.85 128.3 127.29 126.02 126.68C125.38 125.51 123.34 122.38 119.3 121.55C116.12 120.89 113.53 122.05 112.38 122.71L112.37 122.72ZM87.6401 142.86C90.2301 141.7 93.4501 140.26 96.1601 136.74C96.7201 136.01 97.1601 135.33 97.5801 134.67C98.4801 133.26 99.2601 132.03 101.05 130.7C101.89 130.08 103.68 128.93 106.18 128.25C107.76 127.82 110.69 127.03 113.84 128.22C114.92 128.63 116.39 129.18 117.37 130.74C118.05 131.83 118.21 132.97 118.21 133.83C116.76 133.58 114.69 133.52 112.83 134.86C110.9 136.26 110.29 138.35 110.11 139.62C106.99 139.14 104.51 139.27 101.93 140.66C100.46 141.46 99.3001 142.49 98.3901 143.59C96.9001 143.77 95.4101 144.05 93.9801 144.47C90.0401 145.62 85.8501 147.73 82.8301 150.5C82.4401 149.21 82.3701 148.03 82.6701 146.99C83.2901 144.82 85.1101 144 87.6401 142.87V142.86ZM142.99 158.2C143.09 158.38 143.27 158.51 143.48 158.56C144.3 158.74 145.42 159.17 146.13 160.19C146.74 161.06 146.79 162 146.81 162.41C146.93 164.99 144.78 170.85 138.34 176.39C134.49 179.7 131.94 181.89 128.09 182.06C126.21 182.14 124.48 181.72 122.99 181.14C124.25 178.24 125.83 175.91 127.72 174.21C128.45 173.82 129.19 173.3 129.95 172.58C130.73 172.12 131.53 171.76 132.37 171.38C134.46 170.43 136.63 169.44 138.45 166.96C139.74 165.21 140.22 163.56 140.45 162.77C142.09 157.22 139.95 151.76 138.3 148.67C139.59 149.09 141.37 150.01 142.45 151.98C143.79 154.44 143.16 156.9 142.93 157.6C142.86 157.8 142.89 158.02 142.99 158.2ZM98.7901 161.36C98.7901 161.36 98.7901 161.35 98.7901 161.34C98.7901 161.29 98.7901 161.24 98.7901 161.19C98.7901 161.14 98.7901 161.09 98.7901 161.04C98.7901 161.04 98.7901 161.03 98.7901 161.02C98.7801 160.98 98.7501 160.94 98.7401 160.91C98.7201 160.87 98.7201 160.83 98.6901 160.79C97.9301 159.64 95.5401 155.5 96.7301 150.3C97.0401 148.93 98.3901 144.29 102.66 141.97C104.12 141.18 105.56 140.85 107.19 140.85C108.23 140.85 109.35 140.98 110.6 141.21C110.64 141.21 110.67 141.23 110.71 141.23C112.15 141.49 113.76 141.87 115.63 142.31C121.4 143.67 125.57 144.65 127.47 148.15C128.91 150.79 128.78 154.21 128.73 155.5C128.71 155.95 128.67 156.41 128.62 156.86C128.13 155.34 127.45 153.9 126.55 152.64C122.81 147.37 115.81 144.65 109.91 146.17C108.81 146.45 105.45 147.32 103.3 150.43C101.19 153.47 100.52 158.25 102.61 160.84C101.98 161.48 101.32 162.39 100.95 163.59C100.12 166.24 101.2 168.55 101.94 169.73C101.84 169.67 101.73 169.61 101.63 169.54C100.45 168.77 99.9901 168.15 99.8401 167.95C98.1801 165.74 98.4801 162.87 98.8001 161.36H98.7901ZM95.2501 149.97C94.9801 151.16 94.8801 152.3 94.9001 153.37C93.5901 153.59 91.9001 154.14 90.3901 155.45C87.9901 157.54 87.5001 160.31 87.2601 161.65C86.8501 163.96 87.2201 165.28 88.1801 168.79C88.5201 170.02 88.9401 171.54 89.4301 173.49C89.5301 173.87 89.6101 174.23 89.7001 174.57C88.4001 174.26 87.3401 173.71 86.5501 172.9C85.8401 172.17 85.6901 171.6 85.4401 170.66C85.2101 169.81 84.9301 168.74 84.1301 167.25C83.3801 165.85 82.6801 165.02 82.0601 164.28C81.3001 163.37 80.7501 162.71 80.3601 161.31C80.3201 161.15 79.9301 159.68 80.0701 158.14C80.6201 152.07 88.9301 147.51 94.3801 145.92C95.2901 145.66 96.2201 145.46 97.1601 145.3C95.9601 147.27 95.4201 149.16 95.2401 149.99L95.2501 149.97ZM129.68 170.7C129.46 170.95 129.23 171.18 129.01 171.4C128.27 171.84 127.57 172.36 126.91 172.94C125.67 173.59 124.36 173.84 123.04 173.64C120.77 173.3 118.83 171.76 117.8 169.56C117.86 169.54 117.92 169.52 117.98 169.5C121.81 167.99 124.33 163.96 124.09 159.7C123.78 154 118.57 151.3 118.52 151.27C115.22 149.59 110.32 149.25 107.36 152.5C105.35 154.7 104.76 157.95 105.71 161.04C105.1 160.9 104.57 160.66 104.15 160.31C102.07 158.53 102.64 153.99 104.52 151.28C106.36 148.63 109.3 147.87 110.27 147.62C115.59 146.25 121.92 148.73 125.31 153.51C126.73 155.5 127.61 157.93 127.87 160.53C127.87 160.53 127.87 160.53 127.87 160.54C127.88 160.63 127.91 160.71 127.94 160.78C127.95 160.8 127.97 160.83 127.98 160.85C128.01 160.9 128.05 160.95 128.09 160.99C128.11 161.01 128.14 161.03 128.16 161.05C128.21 161.09 128.26 161.11 128.32 161.14C128.34 161.14 128.35 161.16 128.37 161.17C128.38 161.17 128.39 161.17 128.4 161.17C128.41 161.17 128.42 161.18 128.44 161.18C129.42 161.39 130.75 161.88 131.51 163.02C133.04 165.33 131.18 168.95 129.65 170.69L129.68 170.7ZM107.57 162.07C107.57 162.07 107.57 162.06 107.57 162.05C108.02 159.49 110.07 157.31 112.44 156.87C113.22 156.73 115.17 156.53 116.53 157.82C117.32 158.57 118.26 160.15 117.63 161.45C117.27 162.19 116.25 163.11 115.11 162.85C114.32 162.67 113.67 161.97 113.45 161.07C113.35 160.67 112.95 160.42 112.55 160.51C112.15 160.61 111.9 161.01 111.99 161.41C112.34 162.86 113.43 164 114.77 164.31C116.6 164.73 118.3 163.49 118.97 162.11C119.89 160.22 118.88 158 117.55 156.74C116.24 155.5 114.27 155.02 112.16 155.41C109.91 155.83 107.94 157.4 106.86 159.51C106.49 157.28 107.05 155.08 108.46 153.53C111.26 150.46 115.81 151.59 117.84 152.62C117.88 152.64 122.33 154.95 122.59 159.79C122.79 163.41 120.66 166.84 117.42 168.11C113.86 169.51 109.34 168.22 107.93 165.41C107.23 164.02 107.48 162.57 107.56 162.08L107.57 162.07ZM105.31 171.01C104.47 170.49 103.75 169.79 103.23 168.99C102.63 168.05 101.71 166.16 102.37 164.04C102.67 163.07 103.22 162.35 103.73 161.84C104.37 162.25 105.12 162.51 105.98 162.62C105.91 163.48 105.93 164.77 106.59 166.08C107.87 168.64 111.04 170.18 114.32 170.18C114.99 170.18 115.67 170.11 116.34 169.97C117.54 172.74 119.96 174.69 122.81 175.12C123.16 175.17 123.55 175.21 123.96 175.21C124.22 175.21 124.5 175.19 124.78 175.16C123.57 176.67 122.51 178.47 121.61 180.53C120.06 179.75 118.89 178.88 118.3 178.43C116.46 177.04 115.8 176 115.22 175.08C114.59 174.09 114 173.15 112.23 172.32C110.49 171.5 108.91 171.37 107.39 171.25C106.69 171.19 106 171.14 105.3 171.02L105.31 171.01ZM136.06 147.67C136.06 147.67 136.08 147.73 136.09 147.77C136.1 147.82 136.11 147.86 136.13 147.9C136.13 147.92 136.15 147.93 136.16 147.95V147.97C137.61 150.29 140.78 156.32 139 162.35C138.79 163.06 138.35 164.54 137.22 166.08C135.74 168.1 133.99 168.99 132.13 169.84C133.41 167.68 134.39 164.64 132.78 162.21C131.94 160.94 130.66 160.28 129.54 159.93C129.92 158.5 130.15 157.04 130.21 155.57C130.26 154.17 130.4 150.44 128.77 147.45C126.54 143.36 121.87 142.26 115.95 140.87C114.35 140.49 112.91 140.15 111.58 139.89C111.72 138.92 112.18 137.18 113.7 136.09C115.64 134.68 117.98 135.29 119.1 135.58C121.63 136.24 123.2 137.94 123.91 138.9C124.09 139.15 124.4 139.25 124.7 139.18C125.4 139 129.05 138.25 132.35 140.68C135.69 143.14 136.02 146.9 136.05 147.63V147.65C136.05 147.66 136.05 147.68 136.05 147.69L136.06 147.67ZM81.8101 176.06C77.2001 174.59 74.6801 169.64 74.6501 165.73C74.6501 164.55 74.8701 163.99 75.2201 163.14C75.6301 162.14 76.1401 160.9 76.4801 158.24C76.6801 156.69 76.7101 155.48 76.7301 154.51C76.7701 152.94 76.7901 151.99 77.4401 150.86C78.1501 149.62 79.3501 148.64 81.0001 147.93C80.9201 149.1 81.1501 150.36 81.6601 151.68C79.9601 153.56 78.8101 155.69 78.6001 157.98C78.4401 159.75 78.8501 161.37 78.9401 161.68C79.4101 163.4 80.1501 164.28 80.9301 165.22C81.5001 165.9 82.1501 166.68 82.8301 167.94C83.5501 169.28 83.8001 170.21 84.0101 171.03C84.2801 172.04 84.5101 172.92 85.5001 173.93C86.2901 174.74 87.3101 175.33 88.4901 175.74C86.8001 176.38 84.3901 176.87 81.8301 176.05L81.8101 176.06ZM90.8901 173.11C90.3901 171.15 89.9701 169.62 89.6301 168.38C88.6801 164.92 88.3901 163.88 88.7401 161.9C88.9601 160.65 89.3701 158.32 91.3701 156.58C92.5701 155.54 93.9101 155.08 94.9901 154.88C95.3001 157.5 96.2401 159.58 96.9201 160.79C96.0801 161.13 95.1701 161.71 94.5101 162.68C92.7401 165.32 94.3601 168.76 94.8901 169.75C95.4801 170.83 96.0401 171.33 96.6301 171.86C97.1301 172.3 97.6401 172.75 98.3001 173.67C99.1701 174.89 99.3501 175.59 99.5401 176.33C99.7101 177.02 99.8901 177.73 100.58 178.7C102.8 181.88 107.04 183.16 111.54 184.51L111.98 184.64C113.05 184.95 113.97 185.23 115.05 185.97C115.96 186.6 116.76 187.42 117.43 188.39C113.1 187.78 110.29 187.8 107.99 187.82C105.07 187.84 103.14 187.86 100 186.47C98.1601 185.65 95.3801 184.42 93.4101 181.57C93.3501 181.48 93.3001 181.4 93.2501 181.32C93.2501 181.32 93.2501 181.32 93.2501 181.31C92.6001 180.3 92.4201 179.53 91.8701 177.18C91.6301 176.15 91.3301 174.85 90.8901 173.11ZM124.5 193.66C119.99 195.5 115.99 194.73 108.01 193.2C102.14 192.07 99.4601 191.49 97.2801 189.43C95.9501 188.17 94.9101 186.55 94.2001 184.68C96.0401 186.33 98.0501 187.24 99.4001 187.84C102.84 189.37 105.01 189.34 108.01 189.32C110.52 189.3 113.65 189.27 118.78 190.11L119.32 190.2C120.91 190.47 122.81 190.78 125.22 190.78C125.82 190.78 126.45 190.76 127.11 190.72C127.93 190.66 128.71 190.61 129.46 190.52C127.95 191.87 126.29 192.92 124.49 193.65L124.5 193.66ZM133.67 187.53C131.96 188.89 129.78 189.04 127.01 189.23C123.85 189.45 121.48 189.05 119.57 188.73L119.37 188.7C118.47 187.05 117.32 185.72 115.91 184.74C114.63 183.86 113.55 183.54 112.41 183.21L111.98 183.08C107.56 181.75 103.74 180.6 101.82 177.85C101.29 177.1 101.17 176.6 101.01 175.96C100.81 175.16 100.58 174.25 99.5401 172.8C98.7801 171.75 98.1801 171.21 97.6501 170.74C97.0901 170.25 96.6901 169.89 96.2301 169.04C95.7901 168.23 94.4701 165.46 95.7701 163.52C96.1301 162.98 96.6201 162.62 97.1201 162.37C96.9201 164.21 97.0401 166.74 98.6301 168.86C99.1501 169.55 99.8601 170.19 100.8 170.81C103.26 172.43 105.3 172.59 107.28 172.75C108.73 172.87 110.1 172.98 111.6 173.68C112.97 174.33 113.37 174.95 113.96 175.89C114.58 176.87 115.35 178.08 117.41 179.64C118.73 180.63 122.63 183.58 127.61 183.58C127.79 183.58 127.97 183.58 128.15 183.57C131.39 183.43 133.8 182.04 136.44 179.95C136.48 182.01 136.15 185.57 133.68 187.54L133.67 187.53ZM140.34 137.87C141.28 138.88 141.39 140.37 141.4 140.8C141.41 141.33 141.33 141.77 141.25 142.23C141.11 142.99 140.96 143.79 141.25 144.93C141.25 144.96 141.44 145.69 141.85 146.42C142.97 148.45 145.11 149.36 146.39 149.89C146.65 150 146.87 150.09 147.04 150.18C148.51 150.94 149.71 153.64 150.12 157.06C150.72 162.17 149.58 169.74 144.38 174.24C143.17 175.28 141.77 176.09 140.23 176.72C146.84 170.65 148.43 164.72 148.31 162.35C148.29 161.86 148.23 160.57 147.37 159.35C146.59 158.24 145.51 157.65 144.57 157.32C144.85 156.03 145.07 153.65 143.77 151.27C142.12 148.25 139.22 147.28 137.75 146.98C138.19 145.12 138.81 141.04 137.24 136.74C138.16 136.74 139.48 136.93 140.35 137.88L140.34 137.87ZM124.83 127.66C124.93 127.86 125.11 128.01 125.33 128.06C127.35 128.55 131.14 129.93 133.9 133.66C136.52 137.19 136.86 141.1 136.67 143.85C136.06 142.39 135.01 140.76 133.23 139.45C129.89 136.99 126.24 137.34 124.81 137.6C123.9 136.49 122.22 134.9 119.69 134.17C119.74 133.07 119.6 131.47 118.63 129.93C117.39 127.95 115.49 127.24 114.36 126.81C110.76 125.44 107.4 126.36 105.78 126.8C103.04 127.54 101.07 128.8 100.15 129.49C98.1401 130.99 97.2501 132.38 96.3101 133.85C95.9101 134.48 95.4901 135.13 94.9701 135.81C94.1801 136.84 93.3401 137.66 92.4801 138.35C92.6401 136.28 93.2401 133.7 94.9201 131.23C97.6501 127.2 101.71 125.82 103.66 125.16C106.44 124.22 109.48 123.9 112.45 124.24C112.62 124.26 112.79 124.22 112.93 124.13C113.79 123.6 116.1 122.43 118.98 123.03C122.79 123.82 124.51 127.03 124.82 127.66H124.83Z" fill="black"/>
<path d="M110.33 94.03C110.33 94.03 110.26 94.03 110.23 94.03C108.9 94.06 108.25 94.7701 107.93 95.3601C107.38 96.3701 107.43 97.82 108.03 98.8C108.94 100.28 109.43 100.79 110.32 101.7L110.4 101.78C110.56 101.94 110.72 102.11 110.89 102.28C111.62 103.03 112.38 103.81 112.7 104.31C112.7 104.34 112.73 104.38 112.76 104.41L112.78 104.45H112.85H112.91L112.93 104.42C112.93 104.42 112.98 104.35 112.99 104.32C113.31 103.82 114.07 103.04 114.8 102.29C114.96 102.12 115.13 101.96 115.29 101.79L115.37 101.71C116.26 100.79 116.74 100.29 117.66 98.8101C118.27 97.8301 118.31 96.3801 117.76 95.3701C117.44 94.7801 116.78 94.07 115.46 94.04C115.43 94.04 115.39 94.04 115.36 94.04C113.72 94.04 113.09 95.0701 112.84 95.8501C112.6 95.0701 111.96 94.04 110.32 94.04L110.33 94.03Z" fill="black"/>
<path d="M114.96 215.09C114.21 214.2 113.52 213.25 112.9 212.26L112.8 212.09L112.69 212.26C111.98 213.37 111.18 214.44 110.33 215.43C109.73 216.12 109.1 216.79 108.45 217.41L108.36 217.5L108.45 217.59C109.31 218.44 110.13 219.35 110.88 220.3C111.52 221.1 112.13 221.95 112.69 222.82L112.79 222.98L112.9 222.82C113.46 221.98 114.07 221.16 114.71 220.38C115.5 219.41 116.36 218.49 117.26 217.62L117.36 217.53L117.26 217.44C116.45 216.71 115.68 215.92 114.97 215.08L114.96 215.09Z" fill="black"/>
<path d="M56.91 157.4C57.32 156.88 57.48 156.64 57.55 155.72C57.64 154.57 56.91 154.04 56.48 153.72L56.42 153.68C56.02 153.38 54.6 152.78 53.4 153.88C52.6 154.61 52.67 155.61 52.79 156.17C52.43 155.88 52.05 155.7 51.43 155.75H51.35C50.07 155.75 49.02 156.79 49.02 158.08C49.02 159.37 50.07 160.41 51.35 160.41C51.51 160.41 51.67 160.39 51.81 160.36C52.22 160.32 52.51 160.16 52.79 159.94C52.67 160.5 52.6 161.5 53.4 162.23C53.92 162.71 54.48 162.86 54.98 162.86C55.64 162.86 56.19 162.59 56.42 162.42L56.48 162.38C56.91 162.06 57.64 161.53 57.55 160.38C57.48 159.46 57.32 159.22 56.91 158.7C58.2 158.87 59.08 159.63 59.09 159.64L59.3 159.82V156.24L59.09 156.44C58.59 156.92 57.54 157.33 56.91 157.38V157.4Z" fill="black"/>
<path d="M168.17 158.89C167.97 159.15 167.85 159.45 167.81 159.79C167.61 161.39 168.53 162.45 169.54 162.66C169.81 162.72 170.08 162.75 170.34 162.75C171.26 162.75 172.1 162.4 172.86 161.7C173.47 161.14 174.06 160.54 174.59 160.02C175.04 159.57 175.42 159.18 175.69 158.95C176.16 158.54 176.5 158.27 176.59 158.19L176.71 158.04L176.58 157.94C176.3 157.71 175.98 157.45 175.68 157.18C175.41 156.95 175.03 156.56 174.58 156.1C174.06 155.57 173.47 154.98 172.86 154.42C171.88 153.53 170.77 153.2 169.54 153.46C168.53 153.67 167.61 154.73 167.81 156.33C167.85 156.67 167.97 156.97 168.17 157.23C167.13 157 166.58 156.44 166.58 156.44L166.37 156.22V159.81L166.58 159.62C167.04 159.21 167.66 159 168.18 158.9L168.17 158.89Z" fill="black"/>
<path d="M200.16 88.1201C200.16 83.7501 196.6 80.1899 192.23 80.1899C187.86 80.1899 184.3 83.7501 184.3 88.1201C184.3 92.4901 187.86 96.05 192.23 96.05C196.6 96.05 200.16 92.4901 200.16 88.1201ZM185.81 88.1201C185.81 84.5801 188.69 81.6899 192.24 81.6899C195.79 81.6899 198.67 84.5701 198.67 88.1201C198.67 91.6701 195.79 94.55 192.24 94.55C188.69 94.55 185.81 91.6701 185.81 88.1201Z" fill="black"/>
<path d="M195.07 88.1201C195.07 86.5601 193.8 85.29 192.24 85.29C190.68 85.29 189.41 86.5601 189.41 88.1201C189.41 89.6801 190.68 90.95 192.24 90.95C193.8 90.95 195.07 89.6801 195.07 88.1201Z" fill="black"/>
<path d="M193.23 217.08V100.49C199.62 99.9801 204.66 94.6302 204.66 88.1102C204.66 81.5902 199.84 76.4901 193.67 75.7701C193.64 70.0501 192.84 64.4502 191.28 59.1102C188.78 50.5302 184.89 43.13 179.84 37.15C180.4 35.79 180.74 34.3901 180.82 32.9701C181.21 26.0401 175.6 21.2302 174.47 20.3302C168.85 15.8702 160.13 15.35 154.19 19.13C153.19 19.76 152.07 20.6601 151.06 21.7201H138.17C137.87 19.2201 135.76 17.2801 133.19 17.2801C130.41 17.2801 128.15 19.5402 128.15 22.3202C128.15 25.1002 130.41 27.3602 133.19 27.3602C135.66 27.3602 137.71 25.5701 138.14 23.2201H149.79C148.56 24.9001 147.81 26.8002 148.27 28.6002C148.6 29.9202 149.42 30.4701 150.9 31.4701C151.56 31.9201 152.39 32.4801 153.44 33.2701C153.99 33.6801 158.9 37.4602 162.79 42.6202C164.27 44.5902 165.59 46.7401 166.7 49.0401C166.7 49.0501 166.71 49.0602 166.72 49.0702C167.36 51.1202 169.25 52.6202 171.51 52.6202C174.29 52.6202 176.55 50.3602 176.55 47.5802C176.55 44.8002 174.29 42.5401 171.51 42.5401C169.3 42.5401 167.44 43.98 166.76 45.96C165.91 44.48 164.99 43.0501 163.99 41.7201C161.23 38.0701 157.99 35.09 156.04 33.44C159.58 32.75 163.59 32.4001 165.61 33.2301C165.99 33.3901 166.69 33.6702 167 34.3302C167.21 34.7802 167.32 35.7001 166.75 36.2301C166.61 36.3501 166.45 36.4501 166.28 36.5101C166.31 36.3801 166.33 36.2502 166.33 36.1202C166.33 35.2202 165.6 34.4901 164.7 34.4901C163.8 34.4901 163.07 35.2202 163.07 36.1202C163.07 36.5902 163.27 37.0101 163.59 37.3001C163.61 37.3201 163.62 37.3402 163.64 37.3602C163.68 37.3902 163.72 37.41 163.75 37.44C163.78 37.46 163.81 37.4801 163.83 37.5001C164.41 37.9001 165.08 38.1102 165.73 38.1102C166.47 38.1102 167.2 37.8502 167.75 37.3402C168.84 36.3302 168.83 34.75 168.35 33.71C167.8 32.51 166.66 32.0402 166.16 31.8402C163.01 30.5502 156.83 31.7101 154.52 32.2201C154.44 32.1601 154.37 32.1102 154.33 32.0802C153.25 31.2702 152.41 30.7001 151.73 30.2401C150.29 29.2701 149.9 28.9801 149.72 28.2501C149.05 25.5901 152.4 22.07 154.99 20.42C160.42 16.97 168.4 17.4501 173.54 21.5301C174.57 22.3401 179.67 26.71 179.32 32.91C179.26 33.92 179.06 34.91 178.72 35.89C175.57 32.41 171.99 29.4502 168.03 27.0802C165.16 25.3602 162.08 23.95 158.87 22.88C158.35 22.71 157.78 22.9901 157.61 23.5101C157.44 24.0301 157.72 24.6001 158.24 24.7701C161.31 25.7901 164.26 27.1401 167 28.7801C177.58 35.1101 185.31 45.79 189.36 59.68C190.86 64.82 191.63 70.2101 191.67 75.7201C185.08 76.0201 179.81 81.4602 179.81 88.1202C179.81 94.7802 184.85 99.9801 191.24 100.5V217.09C184.86 217.6 179.81 222.95 179.81 229.47C179.81 235.99 185.06 241.55 191.63 241.87C191.59 247.38 190.82 252.78 189.32 257.92C185.27 271.81 177.54 282.49 166.96 288.82C164.21 290.46 161.27 291.81 158.2 292.83C157.68 293 157.39 293.57 157.57 294.09C157.71 294.51 158.1 294.77 158.52 294.77C158.62 294.77 158.73 294.75 158.84 294.72C162.05 293.65 165.13 292.24 168 290.52C171.96 288.15 175.54 285.19 178.69 281.71C179.02 282.69 179.23 283.68 179.29 284.69C179.64 290.88 174.54 295.25 173.51 296.07C168.36 300.15 160.39 300.63 154.96 297.18C152.36 295.53 149.01 292.01 149.69 289.35C149.88 288.61 150.26 288.33 151.7 287.35C152.38 286.89 153.22 286.32 154.3 285.51C154.34 285.48 154.41 285.43 154.49 285.37C156.03 285.71 159.28 286.33 162.22 286.33C163.69 286.33 165.08 286.17 166.13 285.75C166.62 285.55 167.76 285.08 168.31 283.88C168.79 282.84 168.8 281.26 167.71 280.25C166.67 279.29 165.02 279.24 163.79 280.1C163.76 280.12 163.73 280.14 163.7 280.16C163.66 280.19 163.62 280.21 163.59 280.24C163.57 280.26 163.56 280.28 163.54 280.3C163.22 280.6 163.02 281.02 163.02 281.48C163.02 282.38 163.75 283.11 164.65 283.11C165.55 283.11 166.28 282.38 166.28 281.48C166.28 281.34 166.26 281.21 166.23 281.08C166.4 281.14 166.57 281.23 166.7 281.36C167.27 281.89 167.16 282.81 166.95 283.26C166.65 283.92 165.94 284.21 165.56 284.36C163.54 285.18 159.53 284.83 155.99 284.15C157.94 282.5 161.19 279.52 163.94 275.87C164.95 274.54 165.87 273.11 166.71 271.63C167.39 273.61 169.25 275.05 171.46 275.05C174.24 275.05 176.5 272.79 176.5 270.01C176.5 267.23 174.24 264.97 171.46 264.97C169.2 264.97 167.3 266.48 166.67 268.53C166.67 268.53 166.66 268.54 166.65 268.55C165.54 270.84 164.22 273 162.74 274.96C158.85 280.12 153.94 283.9 153.39 284.31C152.34 285.1 151.52 285.66 150.85 286.11C149.37 287.11 148.56 287.66 148.22 288.98C147.77 290.77 148.52 292.67 149.74 294.36H138.09C137.66 292.01 135.61 290.22 133.14 290.22C130.36 290.22 128.1 292.48 128.1 295.26C128.1 298.04 130.36 300.3 133.14 300.3C135.72 300.3 137.82 298.35 138.12 295.86H151.01C152.02 296.91 153.14 297.81 154.14 298.45C156.8 300.14 160.02 300.97 163.27 300.97C167.27 300.97 171.32 299.71 174.43 297.25C175.56 296.36 181.17 291.54 180.78 284.61C180.7 283.19 180.36 281.79 179.8 280.43C184.86 274.45 188.74 267.05 191.24 258.47C192.8 253.13 193.59 247.53 193.63 241.8C199.83 241.1 204.66 235.84 204.66 229.46C204.66 223.08 199.62 217.6 193.23 217.08ZM133.18 25.8702C131.23 25.8702 129.64 24.2802 129.64 22.3302C129.64 20.3802 131.23 18.7901 133.18 18.7901C135.13 18.7901 136.72 20.3802 136.72 22.3302C136.72 24.2802 135.13 25.8702 133.18 25.8702ZM171.49 44.0401C173.44 44.0401 175.03 45.6302 175.03 47.5802C175.03 49.5302 173.44 51.1202 171.49 51.1202C169.54 51.1202 167.95 49.5302 167.95 47.5802C167.95 45.6302 169.54 44.0401 171.49 44.0401ZM171.46 266.46C173.41 266.46 175 268.05 175 270C175 271.95 173.41 273.54 171.46 273.54C169.51 273.54 167.92 271.95 167.92 270C167.92 268.05 169.51 266.46 171.46 266.46ZM133.14 298.8C131.19 298.8 129.6 297.21 129.6 295.26C129.6 293.31 131.19 291.72 133.14 291.72C135.09 291.72 136.68 293.31 136.68 295.26C136.68 297.21 135.09 298.8 133.14 298.8ZM181.81 88.1202C181.81 82.3702 186.49 77.69 192.24 77.69C197.99 77.69 202.67 82.3702 202.67 88.1202C202.67 93.8702 197.99 98.5501 192.24 98.5501C186.49 98.5501 181.81 93.8702 181.81 88.1202ZM192.23 239.89C186.48 239.89 181.8 235.21 181.8 229.46C181.8 223.71 186.48 219.03 192.23 219.03C197.98 219.03 202.66 223.71 202.66 229.46C202.66 235.21 197.98 239.89 192.23 239.89Z" fill="black"/>
<path d="M192.23 221.53C187.86 221.53 184.3 225.09 184.3 229.46C184.3 233.83 187.86 237.39 192.23 237.39C196.6 237.39 200.16 233.83 200.16 229.46C200.16 225.09 196.6 221.53 192.23 221.53ZM192.23 235.89C188.69 235.89 185.8 233.01 185.8 229.46C185.8 225.91 188.68 223.03 192.23 223.03C195.78 223.03 198.66 225.91 198.66 229.46C198.66 233.01 195.78 235.89 192.23 235.89Z" fill="black"/>
<path d="M192.23 232.29C193.793 232.29 195.06 231.023 195.06 229.46C195.06 227.897 193.793 226.63 192.23 226.63C190.667 226.63 189.4 227.897 189.4 229.46C189.4 231.023 190.667 232.29 192.23 232.29Z" fill="black"/>
<path d="M41.4001 88.1201C41.4001 83.7501 37.84 80.1899 33.47 80.1899C29.1 80.1899 25.54 83.7501 25.54 88.1201C25.54 92.4901 29.1 96.05 33.47 96.05C37.84 96.05 41.4001 92.4901 41.4001 88.1201ZM27.04 88.1201C27.04 84.5801 29.92 81.6899 33.47 81.6899C37.02 81.6899 39.9001 84.5701 39.9001 88.1201C39.9001 91.6701 37.02 94.55 33.47 94.55C29.92 94.55 27.04 91.6701 27.04 88.1201Z" fill="black"/>
<path d="M36.3001 88.1201C36.3001 86.5601 35.0301 85.29 33.4701 85.29C31.9101 85.29 30.6401 86.5601 30.6401 88.1201C30.6401 89.6801 31.9101 90.95 33.4701 90.95C35.0301 90.95 36.3001 89.6801 36.3001 88.1201Z" fill="black"/>
<path d="M41.4001 229.46C41.4001 225.09 37.84 221.53 33.47 221.53C29.1 221.53 25.54 225.09 25.54 229.46C25.54 233.83 29.1 237.39 33.47 237.39C37.84 237.39 41.4001 233.83 41.4001 229.46ZM27.04 229.46C27.04 225.92 29.92 223.03 33.47 223.03C37.02 223.03 39.9001 225.91 39.9001 229.46C39.9001 233.01 37.02 235.89 33.47 235.89C29.92 235.89 27.04 233.01 27.04 229.46Z" fill="black"/>
<path d="M33.4701 232.29C35.0331 232.29 36.3001 231.023 36.3001 229.46C36.3001 227.897 35.0331 226.63 33.4701 226.63C31.9071 226.63 30.6401 227.897 30.6401 229.46C30.6401 231.023 31.9071 232.29 33.4701 232.29Z" fill="black"/>
<path d="M91.42 40.9499C89.85 43.4799 90.22 46.39 90.78 48.33C89.49 49.28 88.01 50.7899 87.53 52.9699C86.57 57.3299 90.29 61.76 94.29 63.35C95.48 63.83 96.77 64.07 98.11 64.07C98.13 64.07 98.15 64.07 98.17 64.07C98.67 64.68 99.26 65.28 99.99 65.82C100.83 66.45 101.71 66.8899 102.59 67.2199C101.8 67.7699 101.11 68.4299 100.56 69.1899C98.32 72.2899 98.99 75.8598 99.25 76.8898C99.32 77.1798 99.58 77.3798 99.88 77.3798C99.88 77.3798 99.89 77.3798 99.9 77.3798C100.2 77.3798 100.46 77.15 100.52 76.85C100.79 75.43 101.47 73.31 103.2 71.35C104.58 69.78 106.14 68.87 107.43 68.33L108.35 73.1999C108.39 73.4399 108.57 73.6299 108.8 73.6999C109.03 73.7699 109.28 73.7 109.45 73.53L111.77 71.1398V77.86C111.77 78.22 112.06 78.5099 112.42 78.5099C112.78 78.5099 113.07 78.22 113.07 77.86V71.2099L115.3 73.62C115.42 73.76 115.6 73.83 115.78 73.83C115.85 73.83 115.91 73.82 115.98 73.8C116.22 73.72 116.4 73.5099 116.43 73.2599L117.07 68.2199C118.4 68.7399 120.08 69.66 121.56 71.34C123.3 73.31 123.98 75.42 124.24 76.84C124.3 77.14 124.55 77.36 124.86 77.37C124.86 77.37 124.87 77.37 124.88 77.37C125.18 77.37 125.44 77.1698 125.51 76.8798C125.77 75.8598 126.44 72.2799 124.2 69.1799C123.66 68.4299 122.97 67.7699 122.19 67.2199C123.23 66.9599 124.22 66.55 125.21 65.83C126.1 65.19 126.86 64.3699 127.5 63.4399C129.29 63.2999 132.36 62.6899 134.86 60.2299C135.07 60.0299 139.87 55.23 137.83 50.85C137.1 49.27 135.75 48.33 134.6 47.79C134.82 46.75 134.9 45.6098 134.7 44.3898C134.66 44.1698 133.75 38.88 129.34 37.54C127.8 37.07 126.36 37.25 125.29 37.55C124.87 36.81 124.32 36.13 123.64 35.59C121.44 33.86 118.85 34.11 117.85 34.3C116.92 33.55 114.19 31.7098 110.78 32.3798C109.08 32.7098 107.81 33.55 106.98 34.28C104.18 33.57 101.25 34.68 99.59 37.03C98.28 37.04 93.64 37.3599 91.42 40.9299V40.9499ZM94.76 62.1398C91.24 60.7398 88 56.8299 88.79 53.2499C89.15 51.6299 90.2 50.4398 91.22 49.6298C91.73 50.8898 92.36 51.6799 92.97 52.4399C93.73 53.3899 94.44 54.2798 95.04 56.1398C95.32 57.0198 95.38 57.5199 95.44 58.0199C95.51 58.5999 95.59 59.1999 95.99 60.2399C96.19 60.7499 96.55 61.6699 97.19 62.7199C96.34 62.6399 95.52 62.4498 94.76 62.1398ZM97.21 59.7699C96.86 58.8799 96.8 58.4 96.73 57.85C96.66 57.32 96.59 56.7299 96.27 55.7399C95.6 53.6499 94.74 52.57 93.98 51.62C93.35 50.83 92.76 50.09 92.29 48.82C91.71 47.21 90.96 44.1498 92.51 41.6398C94.08 39.0998 97.19 38.5198 98.82 38.3898C97.81 40.8198 98.27 43.6198 100.03 45.6398C99.47 49.1298 99.82 53.7299 101.13 57.7499C102.57 62.1699 104.94 65.2999 107.88 66.7099C105.76 66.7499 103.07 66.4899 100.76 64.7699C98.48 63.0699 97.55 60.6699 97.2 59.7599L97.21 59.7699ZM109.52 36.59C110.78 36.8 111.64 37.51 112.17 38.1C111.98 38.13 111.79 38.1399 111.61 38.1899C110.65 38.4099 109.76 38.81 108.95 39.37C107.94 39 106.31 38.6299 104.62 39.1699C104.91 38.5699 105.38 37.8998 106.15 37.3798C106.62 37.0498 107.9 36.33 109.53 36.6L109.52 36.59ZM119.93 37.84C120.34 38.42 120.49 39.03 120.53 39.55C118.43 38.08 115.24 37.9799 114.03 37.9899C114.38 37.4699 115.03 36.7399 116.07 36.4599C117.5 36.0699 119.08 36.63 119.92 37.84H119.93ZM112.33 66.2399C111.31 66.1799 109.02 65.84 107.81 64.07C107.18 63.14 106.64 61.44 107.62 58.6C108.89 54.93 112.24 53.0198 115.48 51.1598C118.74 49.2898 121.82 47.5198 122.38 44.1298C122.55 43.0898 122.41 42.2899 122.22 41.7299C122.67 41.8999 123.06 42.1299 123.37 42.4399C124.51 43.5599 124.5 45.4199 124.11 48.2399C123.06 55.8499 122.53 59.67 119.83 62.37C117.91 64.29 115.32 65.6199 112.33 66.2399ZM120.89 41.8798C121.15 42.4398 121.22 43.1599 121.1 43.9299C120.65 46.7099 117.96 48.26 114.84 50.04C114.51 50.23 114.16 50.4298 113.82 50.6298V48.79C114.58 48.67 115.19 48.4399 115.58 48.2599C116.2 47.9699 118.27 46.8599 118.99 44.4999C119.11 44.1099 119.36 43.31 119.21 42.37C119.05 41.38 118.48 40.4599 117.59 39.6999C118.96 40.0399 120.33 40.6798 120.89 41.8798ZM107.59 42.9999C107.68 42.3699 108.03 41.8499 108.42 41.4299C108.52 41.9899 108.73 42.6099 109.17 43.1999C110.44 44.9099 112.71 45.1498 114.28 44.6598C115.78 44.1998 116.74 43.3399 116.99 42.2499C117.1 41.7899 117.08 41.32 116.95 40.85C117.49 41.37 117.84 41.96 117.94 42.58C118.04 43.22 117.86 43.8098 117.77 44.1298C117.21 45.9698 115.55 46.86 115.05 47.09C114.49 47.35 113.34 47.7599 111.99 47.5099C109.76 47.1099 107.31 45.0099 107.6 42.9999H107.59ZM113.18 39.3798C113.18 39.3798 113.23 39.32 113.26 39.3C113.36 39.3 113.45 39.3 113.55 39.3C113.55 39.3 113.55 39.32 113.57 39.33C114.22 40.12 114.24 40.9 114.1 41.04C114.03 41.12 113.67 41.19 113.22 41.05C112.81 40.93 112.49 40.6799 112.45 40.4399C112.4 40.1599 112.66 39.6898 113.2 39.3798H113.18ZM111.15 40.6799C111.29 41.4199 111.92 42.02 112.83 42.29C113.1 42.37 113.4 42.4199 113.7 42.4199C114.19 42.4199 114.67 42.2899 115.02 41.9299C115.33 41.6099 115.46 41.1498 115.44 40.6398C115.7 41.0898 115.8 41.5599 115.71 41.9399C115.57 42.5599 114.92 43.0798 113.88 43.3998C112.69 43.7698 111.05 43.5498 110.2 42.3998C109.7 41.7198 109.62 40.9599 109.64 40.4299C110.15 40.0799 110.69 39.8 111.27 39.61C111.13 39.96 111.08 40.3198 111.15 40.6598V40.6799ZM104.78 41.4999C105.46 40.6999 106.58 40.53 107.47 40.55C106.93 41.12 106.44 41.87 106.31 42.81C105.9 45.6 108.84 48.27 111.75 48.79C112.02 48.84 112.27 48.86 112.52 48.87V50.57C109.23 49.36 104.43 46.84 104.19 43.8C104.16 43.44 104.08 42.3299 104.77 41.5099L104.78 41.4999ZM103.29 41.4599C102.97 42.1499 102.83 42.9598 102.9 43.8898C103.21 48.0098 109.22 50.7099 112 51.7499C109.63 53.2999 107.42 55.2299 106.4 58.1799C105.44 60.9399 105.76 62.84 106.34 64.08C104.68 62.55 103.32 60.26 102.37 57.34C100.58 51.82 100.65 44.93 102.54 42.3C102.78 41.97 103.03 41.6899 103.29 41.4499V41.4599ZM102.23 70.4899C101.39 71.4499 100.77 72.43 100.31 73.37C100.44 72.29 100.8 71.0799 101.61 69.9499C102.28 69.0199 103.21 68.2399 104.28 67.6999C104.65 67.7799 105.02 67.8398 105.39 67.8898C104.34 68.4998 103.24 69.3299 102.22 70.4899H102.23ZM115.31 71.7199L112.9 69.11C112.9 69.11 112.9 69.11 112.89 69.11C112.85 69.07 112.8 69.0299 112.74 68.9999C112.72 68.9899 112.7 68.9699 112.68 68.9599C112.63 68.9399 112.58 68.9298 112.52 68.9198C112.49 68.9198 112.46 68.8998 112.43 68.8998C112.25 68.8998 112.09 68.98 111.97 69.1L109.41 71.7299L108.7 67.9899C109.09 67.9699 109.45 67.9499 109.78 67.9299C110.66 67.8699 111.54 67.75 112.4 67.56C113.53 67.75 114.67 67.84 115.8 67.87L115.31 71.7199ZM120.4 67.6598C121.51 68.1998 122.46 68.9899 123.15 69.9499C123.96 71.0799 124.32 72.29 124.45 73.37C123.99 72.43 123.37 71.4399 122.53 70.4899C121.42 69.2299 120.2 68.3499 119.07 67.7299C119.49 67.6799 119.89 67.63 120.29 67.58C120.33 67.61 120.36 67.6398 120.4 67.6598ZM136.64 51.4199C138.29 54.9799 133.98 59.29 133.94 59.33C132.12 61.12 129.93 61.8 128.32 62.06C128.37 61.96 128.43 61.8599 128.48 61.7599C128.97 60.6399 129.04 59.9099 129.11 59.1999C129.16 58.6499 129.22 58.0699 129.49 57.2299C129.92 55.9199 130.42 55.34 131.06 54.59C131.58 53.98 132.18 53.29 132.84 52.1C133.25 51.37 133.82 50.34 134.24 49.09C135.13 49.55 136.11 50.2799 136.64 51.4199ZM128.96 38.8C132.6 39.91 133.4 44.57 133.41 44.62C133.89 47.54 132.46 50.0999 131.7 51.4699C131.1 52.5399 130.58 53.1599 130.07 53.7499C129.4 54.5399 128.76 55.28 128.25 56.83C127.93 57.81 127.87 58.48 127.81 59.08C127.75 59.74 127.69 60.3099 127.28 61.2399C126.64 62.6999 125.66 63.93 124.45 64.8C122.79 66 121.15 66.1899 118.87 66.4499C117.82 66.5699 116.76 66.62 115.7 66.59C117.64 65.81 119.36 64.7 120.75 63.31C123.76 60.3 124.31 56.3299 125.4 48.4399C125.61 46.8999 125.75 45.41 125.53 44.11C125.67 44.03 125.78 43.9099 125.83 43.7499C126.4 42.0699 126.35 40.33 125.83 38.78C126.69 38.56 127.8 38.45 128.96 38.81V38.8ZM122.83 36.6298C124.46 37.9098 125.21 40.0699 124.86 42.2399C124.7 41.9899 124.51 41.7399 124.28 41.5199C123.65 40.8899 122.81 40.49 121.82 40.28C121.88 39.46 121.79 38.24 120.99 37.1C120.49 36.39 119.79 35.8499 119.01 35.4999C120.04 35.4499 121.52 35.6098 122.83 36.6398V36.6298ZM111.03 33.6799C113.57 33.1799 115.67 34.35 116.67 35.07C116.35 35.09 116.04 35.1299 115.73 35.2199C114.39 35.5899 113.54 36.4498 113.04 37.1498C112.36 36.4098 111.28 35.58 109.74 35.32C109.03 35.2 108.39 35.23 107.81 35.32C108.51 34.7 109.58 33.9699 111.03 33.6799ZM106.75 35.6C106.13 35.83 105.66 36.11 105.4 36.3C103.67 37.5 103.11 39.26 102.94 40.06C102.45 40.44 101.93 40.93 101.49 41.55C101.04 42.17 100.69 42.9899 100.42 43.9499C99.35 42.1499 99.32 39.88 100.47 38.05C101.8 35.93 104.36 34.95 106.76 35.6H106.75Z" fill="black"/>
<path d="M134.28 275.16C135.85 272.63 135.48 269.72 134.92 267.78C136.21 266.83 137.69 265.32 138.17 263.14C139.13 258.78 135.41 254.35 131.41 252.76C130.2 252.28 128.89 252.05 127.53 252.05C127.03 251.44 126.43 250.84 125.7 250.3C124.86 249.67 123.99 249.22 123.11 248.89C123.89 248.34 124.59 247.68 125.13 246.92C127.37 243.82 126.7 240.24 126.44 239.22C126.37 238.92 126.09 238.72 125.79 238.73C125.49 238.73 125.23 238.96 125.17 239.26C124.9 240.68 124.22 242.8 122.49 244.76C121.11 246.33 119.55 247.24 118.26 247.78L117.34 242.91C117.3 242.67 117.12 242.48 116.89 242.41C116.66 242.34 116.41 242.41 116.24 242.58L113.92 244.96V238.24C113.92 237.88 113.63 237.59 113.27 237.59C112.91 237.59 112.62 237.88 112.62 238.24V244.89L110.39 242.48C110.22 242.29 109.95 242.23 109.71 242.3C109.47 242.38 109.29 242.59 109.26 242.84L108.62 247.88C107.29 247.36 105.61 246.44 104.13 244.76C102.4 242.79 101.71 240.68 101.45 239.26C101.39 238.96 101.14 238.74 100.83 238.73C100.52 238.71 100.25 238.92 100.18 239.22C99.92 240.24 99.25 243.81 101.49 246.92C102.03 247.67 102.72 248.33 103.5 248.88C102.46 249.14 101.47 249.55 100.48 250.27C99.59 250.91 98.8301 251.73 98.1901 252.66C96.4001 252.8 93.3301 253.41 90.8301 255.87C90.6201 256.07 85.82 260.87 87.86 265.25C88.59 266.83 89.9401 267.77 91.0901 268.31C90.8701 269.35 90.79 270.5 90.99 271.72C91.03 271.94 91.9501 277.23 96.3401 278.57C97.0201 278.78 97.68 278.86 98.3 278.86C99.08 278.86 99.8001 278.73 100.39 278.56C100.81 279.3 101.36 279.98 102.04 280.52C104.23 282.25 106.82 281.99 107.83 281.81C108.62 282.45 110.71 283.87 113.42 283.87C113.9 283.87 114.39 283.83 114.9 283.73C116.6 283.4 117.88 282.56 118.7 281.83C121.49 282.53 124.43 281.43 126.09 279.08C127.46 279.08 132.03 278.77 134.26 275.18L134.28 275.16ZM130.93 253.97C134.45 255.37 137.69 259.28 136.9 262.86C136.54 264.48 135.49 265.67 134.47 266.48C133.96 265.22 133.33 264.43 132.72 263.67C131.96 262.72 131.25 261.83 130.66 259.97C130.38 259.09 130.32 258.59 130.25 258.09C130.18 257.51 130.1 256.91 129.7 255.87C129.5 255.37 129.14 254.44 128.5 253.39C129.34 253.47 130.17 253.66 130.93 253.97ZM128.49 256.34C128.84 257.23 128.9 257.71 128.97 258.26C129.04 258.79 129.11 259.38 129.43 260.37C130.1 262.46 130.96 263.54 131.72 264.49C132.35 265.28 132.94 266.02 133.41 267.29C134 268.9 134.74 271.96 133.19 274.47C131.62 276.99 128.52 277.59 126.89 277.72C127.9 275.29 127.44 272.49 125.68 270.47C126.24 266.98 125.89 262.38 124.58 258.36C123.14 253.94 120.77 250.81 117.83 249.4C119.95 249.36 122.64 249.62 124.95 251.34C127.23 253.05 128.16 255.44 128.51 256.35L128.49 256.34ZM116.18 279.52C114.93 279.31 114.07 278.61 113.54 278.02C113.72 277.99 113.91 277.97 114.09 277.92C115.04 277.7 115.95 277.29 116.76 276.73C117.62 277.05 118.49 277.22 119.31 277.22C119.93 277.22 120.52 277.11 121.09 276.93C120.8 277.53 120.33 278.2 119.56 278.74C119.09 279.07 117.81 279.8 116.18 279.52ZM105.77 278.27C105.36 277.69 105.21 277.07 105.17 276.55C107.21 277.97 110.28 278.12 111.44 278.12C111.53 278.12 111.6 278.12 111.66 278.12C111.31 278.64 110.66 279.37 109.62 279.65C108.19 280.04 106.61 279.48 105.76 278.27H105.77ZM113.36 249.86C114.38 249.92 116.68 250.27 117.88 252.03C118.51 252.96 119.05 254.66 118.07 257.5C116.8 261.17 113.45 263.08 110.21 264.94C106.95 266.81 103.87 268.58 103.31 271.97C103.14 273.01 103.28 273.81 103.47 274.38C103.02 274.21 102.63 273.98 102.32 273.67C101.18 272.55 101.19 270.69 101.58 267.87C102.63 260.26 103.16 256.44 105.86 253.74C107.78 251.82 110.37 250.49 113.36 249.87V249.86ZM104.8 274.23C104.54 273.68 104.47 272.95 104.59 272.18C105.04 269.4 107.74 267.85 110.85 266.07C111.18 265.88 111.53 265.68 111.87 265.48V267.32C111.11 267.44 110.5 267.67 110.11 267.85C109.32 268.22 107.4 269.32 106.7 271.61C106.58 272 106.34 272.8 106.49 273.74C106.65 274.74 107.23 275.66 108.12 276.42C106.74 276.08 105.37 275.43 104.81 274.23H104.8ZM118.1 273.11C118.01 273.74 117.66 274.26 117.27 274.68C117.17 274.12 116.95 273.5 116.52 272.91C115.25 271.21 112.98 270.96 111.41 271.45C109.49 272.05 108.88 273.09 108.7 273.86C108.59 274.32 108.61 274.8 108.74 275.26C108.2 274.74 107.85 274.15 107.75 273.53C107.65 272.89 107.83 272.3 107.92 271.98C108.48 270.14 110.14 269.25 110.64 269.02C111.21 268.76 112.36 268.36 113.7 268.6C115.93 269 118.38 271.1 118.08 273.11H118.1ZM112.52 276.73C112.52 276.73 112.47 276.79 112.44 276.81C112.34 276.81 112.25 276.81 112.15 276.81C112.15 276.81 112.15 276.79 112.13 276.78C111.48 275.99 111.46 275.22 111.6 275.07C111.64 275.03 111.79 274.98 111.99 274.98C112.13 274.98 112.3 275 112.48 275.06C112.89 275.18 113.21 275.43 113.25 275.66C113.3 275.94 113.04 276.41 112.5 276.73H112.52ZM114.54 275.43C114.4 274.69 113.77 274.09 112.86 273.82C112.17 273.62 111.23 273.6 110.67 274.18C110.36 274.5 110.23 274.96 110.25 275.47C109.99 275.02 109.89 274.55 109.98 274.17C110.12 273.55 110.77 273.03 111.81 272.71C113 272.34 114.64 272.56 115.49 273.71C116 274.4 116.07 275.19 116.05 275.68C115.55 276.02 115 276.31 114.43 276.5C114.57 276.15 114.62 275.79 114.55 275.45L114.54 275.43ZM120.92 274.61C120.24 275.41 119.12 275.58 118.23 275.56C118.77 274.99 119.26 274.24 119.39 273.3C119.8 270.51 116.86 267.84 113.95 267.32C113.68 267.27 113.43 267.25 113.18 267.24V265.54C116.47 266.75 121.27 269.27 121.51 272.31C121.54 272.67 121.62 273.78 120.93 274.6L120.92 274.61ZM122.41 274.64C122.73 273.95 122.87 273.14 122.8 272.21C122.49 268.09 116.48 265.39 113.7 264.35C116.07 262.8 118.28 260.87 119.3 257.92C120.26 255.16 119.94 253.26 119.36 252.02C121.02 253.55 122.38 255.84 123.33 258.76C125.12 264.28 125.05 271.17 123.16 273.8C122.92 274.13 122.67 274.41 122.42 274.64H122.41ZM123.46 245.62C124.3 244.66 124.92 243.68 125.38 242.74C125.25 243.82 124.89 245.03 124.08 246.16C123.4 247.1 122.5 247.85 121.41 248.4C121.04 248.32 120.66 248.26 120.3 248.21C121.34 247.6 122.44 246.77 123.46 245.62ZM110.38 244.39L112.79 247C112.83 247.04 112.89 247.08 112.94 247.11C112.96 247.12 112.98 247.14 113 247.15C113.05 247.17 113.1 247.18 113.16 247.19C113.19 247.19 113.22 247.21 113.25 247.21C113.43 247.21 113.59 247.13 113.71 247.01L116.27 244.38L116.98 248.12C116.59 248.14 116.23 248.16 115.9 248.18C115.02 248.24 114.14 248.36 113.28 248.55C112.15 248.36 111.01 248.26 109.88 248.23L110.37 244.39H110.38ZM105.3 248.45C104.17 247.9 103.25 247.13 102.55 246.16C101.74 245.03 101.37 243.82 101.25 242.74C101.71 243.68 102.33 244.67 103.17 245.62C104.28 246.89 105.5 247.76 106.63 248.38C106.21 248.43 105.81 248.48 105.41 248.53C105.37 248.5 105.34 248.47 105.3 248.45ZM89.05 264.69C87.39 261.13 91.71 256.82 91.75 256.78C93.57 254.99 95.76 254.31 97.37 254.05C97.32 254.15 97.2601 254.25 97.2101 254.35C96.7201 255.47 96.6501 256.2 96.5801 256.91C96.5301 257.46 96.4701 258.04 96.2001 258.88C95.7701 260.19 95.2701 260.77 94.6301 261.52C94.1101 262.13 93.51 262.82 92.85 264.01C92.44 264.74 91.8701 265.77 91.4501 267.02C90.5601 266.56 89.58 265.83 89.05 264.69ZM96.73 277.31C93.1 276.21 92.2901 271.54 92.2801 271.5C91.8001 268.58 93.23 266.02 93.99 264.65C94.59 263.58 95.11 262.96 95.62 262.37C96.3 261.58 96.9301 260.84 97.4401 259.29C97.7601 258.31 97.8201 257.64 97.8801 257.04C97.9401 256.38 98 255.81 98.41 254.88C99.05 253.42 100.03 252.19 101.24 251.32C102.9 250.12 104.54 249.93 106.82 249.67C107.87 249.55 108.93 249.5 109.99 249.53C108.05 250.32 106.33 251.42 104.93 252.81C101.92 255.82 101.37 259.79 100.28 267.69C100.07 269.23 99.9301 270.72 100.15 272.02C100.01 272.1 99.9 272.22 99.85 272.37C99.29 274.05 99.33 275.79 99.85 277.34C98.99 277.56 97.88 277.66 96.72 277.31H96.73ZM102.86 279.48C101.23 278.2 100.48 276.04 100.83 273.87C100.99 274.12 101.18 274.37 101.41 274.59C102.05 275.22 102.88 275.62 103.87 275.83C103.81 276.65 103.9 277.87 104.7 279.01C105.2 279.72 105.89 280.26 106.67 280.61C105.64 280.66 104.16 280.5 102.86 279.47V279.48ZM114.66 282.43C112.12 282.93 110.02 281.77 109.02 281.04C109.34 281.02 109.65 280.98 109.97 280.89C111.31 280.52 112.16 279.66 112.66 278.96C113.34 279.7 114.42 280.53 115.96 280.8C116.29 280.86 116.61 280.88 116.91 280.88C117.26 280.88 117.58 280.84 117.89 280.79C117.19 281.41 116.13 282.14 114.67 282.43H114.66ZM118.95 280.51C119.57 280.28 120.04 280 120.3 279.81C122.03 278.61 122.59 276.85 122.76 276.04C123.23 275.68 123.75 275.2 124.21 274.55C124.66 273.93 125.01 273.11 125.28 272.15C126.35 273.95 126.38 276.22 125.23 278.05C123.9 280.17 121.35 281.15 118.94 280.5L118.95 280.51Z" fill="black"/>
<path d="M51.2 59.8201C50.14 59.8201 49.28 60.68 49.28 61.74C49.28 62.8 50.14 63.6599 51.2 63.6599C52.26 63.6599 53.12 62.8 53.12 61.74C53.12 60.68 52.26 59.8201 51.2 59.8201Z" fill="black"/>
<path d="M54.6401 49.03C55.5734 49.03 56.3301 48.2734 56.3301 47.3401C56.3301 46.4067 55.5734 45.6499 54.6401 45.6499C53.7067 45.6499 52.9501 46.4067 52.9501 47.3401C52.9501 48.2734 53.7067 49.03 54.6401 49.03Z" fill="black"/>
<path d="M49.92 75.6699C50.03 77.8499 50.72 83.17 54.89 85.5C55.29 85.72 56.95 86.5801 59.02 86.5801C59.75 86.5801 60.54 86.4699 61.33 86.1899C62.13 85.9099 64.26 85.15 64.91 82.98C65.36 81.47 64.84 80.1101 64.43 79.3701C64.08 78.4701 63.21 77.8401 62.19 77.8401C60.86 77.8401 59.78 78.92 59.78 80.25C59.78 81.58 60.86 82.6599 62.19 82.6599C62.69 82.6599 63.15 82.51 63.53 82.25C63.51 82.35 63.5 82.45 63.47 82.55C63.04 83.99 61.49 84.54 60.83 84.77C58.41 85.63 56.07 84.4399 55.63 84.1899C52.12 82.2299 51.52 77.5301 51.43 75.6001C51.34 73.6401 51.72 71.8899 52.3 70.3999C56.6 69.8599 59.95 66.19 59.95 61.74C59.95 56.92 56.03 53.01 51.22 53.01C46.41 53.01 42.49 56.93 42.49 61.74C42.49 66.55 46.13 70.17 50.7 70.45C50.18 71.98 49.85 73.7299 49.94 75.6699H49.92ZM51.2 68.48C47.49 68.48 44.47 65.46 44.47 61.75C44.47 58.04 47.49 55.02 51.2 55.02C54.91 55.02 57.93 58.04 57.93 61.75C57.93 64.69 56.04 67.1801 53.41 68.1001C54.08 66.9901 54.76 66.1499 55.22 65.6499C55.22 65.6499 55.22 65.6399 55.23 65.6299C56.2 64.6199 56.8 63.26 56.8 61.75C56.8 58.66 54.28 56.1399 51.19 56.1399C48.1 56.1399 45.58 58.66 45.58 61.75C45.58 64.84 48.1 67.3601 51.19 67.3601C51.52 67.3601 51.84 67.33 52.16 67.27C51.94 67.64 51.71 68.04 51.5 68.47C51.4 68.47 51.3 68.49 51.19 68.49L51.2 68.48ZM51.2 65.8501C48.94 65.8501 47.09 64.01 47.09 61.74C47.09 59.47 48.93 57.6299 51.2 57.6299C53.47 57.6299 55.31 59.47 55.31 61.74C55.31 64.01 53.47 65.8501 51.2 65.8501Z" fill="black"/>
<path d="M92.96 23.77C93.8934 23.77 94.65 23.0134 94.65 22.0801C94.65 21.1467 93.8934 20.3899 92.96 20.3899C92.0267 20.3899 91.27 21.1467 91.27 22.0801C91.27 23.0134 92.0267 23.77 92.96 23.77Z" fill="black"/>
<path d="M174.94 63.9099C176 63.9099 176.86 63.0504 176.86 61.99C176.86 60.9296 176 60.0701 174.94 60.0701C173.88 60.0701 173.02 60.9296 173.02 61.99C173.02 63.0504 173.88 63.9099 174.94 63.9099Z" fill="black"/>
<path d="M171.49 49.27C172.423 49.27 173.18 48.5134 173.18 47.5801C173.18 46.6467 172.423 45.8899 171.49 45.8899C170.557 45.8899 169.8 46.6467 169.8 47.5801C169.8 48.5134 170.557 49.27 171.49 49.27Z" fill="black"/>
<path d="M166.36 80.5C166.36 79.17 165.28 78.0901 163.95 78.0901C162.93 78.0901 162.06 78.7301 161.71 79.6201C161.31 80.3701 160.78 81.72 161.23 83.23C161.88 85.4 164.01 86.1499 164.81 86.4399C165.62 86.7299 166.41 86.8401 167.14 86.8401C169.1 86.8401 170.69 86.06 171.24 85.76C175.4 83.43 176.1 78.1099 176.21 75.9299C176.3 73.9899 175.97 72.24 175.46 70.71C180.03 70.44 183.67 66.64 183.67 62C183.67 57.36 179.75 53.27 174.94 53.27C170.13 53.27 166.21 57.19 166.21 62C166.21 66.45 169.55 70.1199 173.86 70.6599C174.43 72.1499 174.82 73.9001 174.73 75.8601C174.64 77.7901 174.04 82.49 170.53 84.45C170.09 84.7 167.75 85.89 165.33 85.03C164.67 84.8 163.12 84.2501 162.69 82.8101C162.66 82.7101 162.65 82.61 162.63 82.51C163.01 82.77 163.47 82.9199 163.97 82.9199C165.3 82.9199 166.38 81.84 166.38 80.51L166.36 80.5ZM168.2 61.99C168.2 58.28 171.22 55.26 174.93 55.26C178.64 55.26 181.66 58.28 181.66 61.99C181.66 65.7 178.64 68.72 174.93 68.72C174.83 68.72 174.73 68.71 174.62 68.7C174.41 68.27 174.19 67.87 173.96 67.5C174.27 67.56 174.6 67.5901 174.93 67.5901C178.02 67.5901 180.54 65.07 180.54 61.98C180.54 58.89 178.02 56.3701 174.93 56.3701C171.84 56.3701 169.32 58.89 169.32 61.98C169.32 63.48 169.92 64.8501 170.89 65.8601C170.89 65.8601 170.89 65.8699 170.9 65.8799C171.36 66.3899 172.05 67.2201 172.72 68.3301C170.09 67.4101 168.2 64.91 168.2 61.98V61.99ZM170.83 61.99C170.83 59.73 172.67 57.8799 174.94 57.8799C177.21 57.8799 179.05 59.72 179.05 61.99C179.05 64.26 177.21 66.1001 174.94 66.1001C172.67 66.1001 170.83 64.26 170.83 61.99Z" fill="black"/>
<path d="M133.18 24.02C134.113 24.02 134.87 23.2634 134.87 22.3301C134.87 21.3967 134.113 20.6399 133.18 20.6399C132.247 20.6399 131.49 21.3967 131.49 22.3301C131.49 23.2634 132.247 24.02 133.18 24.02Z" fill="black"/>
<path d="M51.16 257.76C52.2204 257.76 53.08 256.9 53.08 255.84C53.08 254.78 52.2204 253.92 51.16 253.92C50.0996 253.92 49.24 254.78 49.24 255.84C49.24 256.9 50.0996 257.76 51.16 257.76Z" fill="black"/>
<path d="M54.61 271.94C55.5434 271.94 56.3 271.183 56.3 270.25C56.3 269.317 55.5434 268.56 54.61 268.56C53.6767 268.56 52.92 269.317 52.92 270.25C52.92 271.183 53.6767 271.94 54.61 271.94Z" fill="black"/>
<path d="M59.7401 237.34C59.7401 238.67 60.8201 239.75 62.1501 239.75C63.1701 239.75 64.0401 239.11 64.3901 238.22C64.7901 237.47 65.3201 236.11 64.8701 234.61C64.2201 232.44 62.09 231.69 61.29 231.4C58.26 230.33 55.4 231.78 54.85 232.09C50.68 234.42 49.9901 239.74 49.8801 241.92C49.7901 243.86 50.1201 245.61 50.6401 247.14C46.0701 247.41 42.4301 251.21 42.4301 255.85C42.4301 260.49 46.35 264.58 51.16 264.58C55.97 264.58 59.8901 260.66 59.8901 255.85C59.8901 251.4 56.5501 247.73 52.2401 247.19C51.6701 245.7 51.2801 243.95 51.3701 241.99C51.4601 240.06 52.0601 235.36 55.5701 233.4C56.0101 233.15 58.3501 231.95 60.7701 232.82C61.4301 233.05 62.98 233.6 63.41 235.04C63.44 235.14 63.45 235.24 63.47 235.34C63.09 235.08 62.6301 234.93 62.1301 234.93C60.8001 234.93 59.72 236.01 59.72 237.34H59.7401ZM57.9001 255.85C57.9001 259.56 54.88 262.58 51.17 262.58C47.46 262.58 44.4401 259.56 44.4401 255.85C44.4401 252.14 47.46 249.12 51.17 249.12C51.27 249.12 51.38 249.13 51.48 249.14C51.69 249.57 51.9201 249.97 52.1401 250.34C51.8201 250.28 51.5 250.25 51.17 250.25C48.08 250.25 45.5601 252.77 45.5601 255.86C45.5601 258.95 48.08 261.47 51.17 261.47C54.26 261.47 56.7801 258.95 56.7801 255.86C56.7801 254.36 56.1801 252.99 55.2101 251.98C55.2101 251.98 55.2101 251.97 55.2001 251.96C54.7401 251.45 54.0501 250.62 53.3901 249.51C56.0201 250.43 57.91 252.93 57.91 255.86L57.9001 255.85ZM55.2701 255.85C55.2701 258.11 53.43 259.96 51.16 259.96C48.89 259.96 47.05 258.12 47.05 255.85C47.05 253.58 48.89 251.74 51.16 251.74C53.43 251.74 55.2701 253.58 55.2701 255.85Z" fill="black"/>
<path d="M92.92 290.46C90.45 290.46 88.4 292.25 87.97 294.6H76.3201C77.5501 292.92 78.3001 291.02 77.8401 289.22C77.5101 287.9 76.6901 287.35 75.2101 286.35C74.5501 285.9 73.7201 285.34 72.6801 284.55C72.1301 284.14 67.2201 280.36 63.3301 275.2C61.8501 273.24 60.53 271.08 59.42 268.79C59.42 268.79 59.4101 268.78 59.4001 268.77C58.7601 266.72 56.87 265.21 54.61 265.21C51.83 265.21 49.5701 267.47 49.5701 270.25C49.5701 273.03 51.83 275.29 54.61 275.29C56.82 275.29 58.68 273.85 59.36 271.87C60.21 273.36 61.1301 274.78 62.1301 276.11C64.8901 279.76 68.1301 282.74 70.0801 284.39C66.5401 285.08 62.5301 285.43 60.5101 284.6C60.1301 284.45 59.4301 284.16 59.1201 283.5C58.9101 283.05 58.8001 282.13 59.3701 281.6C59.5101 281.48 59.6701 281.38 59.8401 281.32C59.8101 281.45 59.79 281.58 59.79 281.72C59.79 282.62 60.52 283.35 61.42 283.35C62.32 283.35 63.05 282.62 63.05 281.72C63.05 281.25 62.85 280.84 62.54 280.54C62.52 280.52 62.5101 280.5 62.4901 280.48C62.4501 280.45 62.4101 280.43 62.3701 280.4C62.3401 280.38 62.32 280.36 62.29 280.35C61.05 279.5 59.4101 279.54 58.3701 280.5C57.2801 281.51 57.2901 283.09 57.7701 284.13C58.3201 285.33 59.4601 285.8 59.9601 286C61.0101 286.43 62.4001 286.59 63.8701 286.59C66.8201 286.59 70.07 285.96 71.6 285.63C71.68 285.69 71.75 285.74 71.79 285.77C72.87 286.58 73.7101 287.15 74.3901 287.61C75.8301 288.58 76.22 288.87 76.41 289.6C77.08 292.26 73.7301 295.78 71.1401 297.43C65.7101 300.88 57.7401 300.4 52.5901 296.32C51.5601 295.51 46.4601 291.13 46.8101 284.94C46.8701 283.94 47.07 282.94 47.41 281.96C50.56 285.44 54.13 288.4 58.1 290.77C60.97 292.49 64.0501 293.9 67.2601 294.97C67.3601 295 67.4701 295.02 67.5801 295.02C68.0001 295.02 68.3901 294.76 68.5301 294.34C68.7001 293.82 68.4201 293.25 67.9001 293.08C64.8301 292.06 61.8801 290.71 59.1401 289.07C48.5601 282.74 40.8301 272.06 36.7801 258.17C35.2501 252.93 34.48 247.45 34.47 241.85C40.87 241.35 45.9301 236 45.9301 229.47C45.9301 222.94 40.8901 217.61 34.5001 217.09V100.5C40.8801 99.99 45.9301 94.6401 45.9301 88.1201C45.9301 81.6001 40.8901 76.26 34.5101 75.74C34.5201 70.15 35.2901 64.6699 36.8201 59.4299C40.8701 45.5499 48.6001 34.86 59.1801 28.53C61.9301 26.89 64.8701 25.54 67.9401 24.52C68.4601 24.35 68.7501 23.78 68.5701 23.26C68.4001 22.74 67.8301 22.4599 67.3101 22.6299C64.1001 23.6999 61.0201 25.1101 58.1501 26.8301C54.1901 29.2001 50.6101 32.1699 47.4601 35.6399C47.1301 34.6599 46.92 33.6599 46.86 32.6599C46.51 26.4799 51.6101 22.1 52.6401 21.28C57.7901 17.2 65.7601 16.7199 71.1901 20.1699C73.7901 21.8199 77.1401 25.34 76.4601 28C76.2701 28.74 75.8901 29.02 74.4401 30C73.7601 30.46 72.9201 31.0301 71.8401 31.8401C71.8001 31.8701 71.7301 31.92 71.6501 31.98C69.3401 31.47 63.1601 30.3201 60.0101 31.6001C59.5201 31.8001 58.3801 32.27 57.8301 33.47C57.3501 34.51 57.3401 36.0901 58.4301 37.1001C58.9801 37.6101 59.7101 37.8701 60.4501 37.8701C61.1101 37.8701 61.78 37.66 62.36 37.25C62.38 37.23 62.4101 37.2199 62.4301 37.1999C62.4701 37.1699 62.51 37.1501 62.55 37.1201C62.57 37.1001 62.58 37.0801 62.6 37.0601C62.91 36.7601 63.11 36.3499 63.11 35.8799C63.11 34.9799 62.38 34.25 61.48 34.25C60.58 34.25 59.85 34.9799 59.85 35.8799C59.85 36.0199 59.8701 36.15 59.9001 36.28C59.7201 36.22 59.5601 36.13 59.4301 36C58.8601 35.47 58.9701 34.5501 59.1801 34.1001C59.4801 33.4401 60.1901 33.15 60.5701 33C62.5901 32.17 66.6001 32.53 70.1401 33.21C68.1901 34.86 64.9401 37.84 62.1901 41.49C61.1801 42.82 60.26 44.25 59.42 45.73C58.74 43.75 56.88 42.3101 54.67 42.3101C51.89 42.3101 49.6301 44.5701 49.6301 47.3501C49.6301 50.1301 51.89 52.3899 54.67 52.3899C56.93 52.3899 58.8201 50.8901 59.4601 48.8301C59.4601 48.8201 59.47 48.81 59.48 48.8C60.59 46.51 61.9101 44.3499 63.3901 42.3899C67.2801 37.2299 72.1901 33.45 72.7401 33.04C73.7901 32.25 74.6101 31.69 75.2701 31.24C76.7501 30.24 77.5701 29.6901 77.9001 28.3701C78.3501 26.5801 77.6001 24.68 76.3801 22.99H88.0301C88.4601 25.34 90.51 27.1299 92.98 27.1299C95.76 27.1299 98.0201 24.8701 98.0201 22.0901C98.0201 19.3101 95.76 17.05 92.98 17.05C90.4 17.05 88.3001 19 88.0001 21.49H75.11C74.1 20.44 72.98 19.5399 71.98 18.8999C66.04 15.1299 57.3201 15.6501 51.6901 20.1001C50.5601 21.0001 44.9501 25.81 45.3401 32.74C45.4201 34.16 45.7601 35.5599 46.3201 36.9199C41.2601 42.8999 37.3801 50.2999 34.8801 58.8799C33.3001 64.2999 32.5101 69.97 32.4901 75.75C26.1001 76.26 21.0601 81.6099 21.0601 88.1299C21.0601 94.6499 26.1001 99.99 32.4901 100.51V217.1C26.1001 217.61 21.0601 222.96 21.0601 229.48C21.0601 236 26.0801 241.33 32.4501 241.85C32.4601 247.64 33.2601 253.31 34.8401 258.73C37.3401 267.31 41.2301 274.71 46.2801 280.69C45.7201 282.05 45.38 283.45 45.3 284.87C44.91 291.79 50.5201 296.61 51.6501 297.51C54.7501 299.97 58.8001 301.23 62.8101 301.23C66.0601 301.23 69.2801 300.4 71.9401 298.71C72.9401 298.08 74.0601 297.18 75.0701 296.12H87.9601C88.2601 298.62 90.3701 300.56 92.9401 300.56C95.7201 300.56 97.98 298.3 97.98 295.52C97.98 292.74 95.7201 290.48 92.9401 290.48L92.92 290.46ZM54.61 273.79C52.66 273.79 51.0701 272.2 51.0701 270.25C51.0701 268.3 52.66 266.71 54.61 266.71C56.56 266.71 58.1501 268.3 58.1501 270.25C58.1501 272.2 56.56 273.79 54.61 273.79ZM54.6401 50.8799C52.6901 50.8799 51.1 49.2901 51.1 47.3401C51.1 45.3901 52.6901 43.8 54.6401 43.8C56.5901 43.8 58.1801 45.3901 58.1801 47.3401C58.1801 49.2901 56.5901 50.8799 54.6401 50.8799ZM92.9601 18.54C94.9101 18.54 96.5001 20.1301 96.5001 22.0801C96.5001 24.0301 94.9101 25.6201 92.9601 25.6201C91.0101 25.6201 89.42 24.0301 89.42 22.0801C89.42 20.1301 91.0101 18.54 92.9601 18.54ZM23.04 88.1201C23.04 82.3701 27.72 77.6899 33.47 77.6899C39.22 77.6899 43.9001 82.3701 43.9001 88.1201C43.9001 93.8701 39.22 98.55 33.47 98.55C27.72 98.55 23.04 93.8701 23.04 88.1201ZM23.04 229.46C23.04 223.71 27.72 219.03 33.47 219.03C39.22 219.03 43.9001 223.71 43.9001 229.46C43.9001 235.21 39.22 239.89 33.47 239.89C27.72 239.89 23.04 235.21 23.04 229.46ZM92.92 299.04C90.97 299.04 89.3801 297.45 89.3801 295.5C89.3801 293.55 90.97 291.96 92.92 291.96C94.87 291.96 96.4601 293.55 96.4601 295.5C96.4601 297.45 94.87 299.04 92.92 299.04Z" fill="black"/>
<path d="M92.92 297.19C93.8533 297.19 94.61 296.433 94.61 295.5C94.61 294.567 93.8533 293.81 92.92 293.81C91.9866 293.81 91.23 294.567 91.23 295.5C91.23 296.433 91.9866 297.19 92.92 297.19Z" fill="black"/>
<path d="M174.9 257.52C175.96 257.52 176.82 256.66 176.82 255.6C176.82 254.54 175.96 253.68 174.9 253.68C173.84 253.68 172.98 254.54 172.98 255.6C172.98 256.66 173.84 257.52 174.9 257.52Z" fill="black"/>
<path d="M171.46 271.7C172.393 271.7 173.15 270.943 173.15 270.01C173.15 269.077 172.393 268.32 171.46 268.32C170.527 268.32 169.77 269.077 169.77 270.01C169.77 270.943 170.527 271.7 171.46 271.7Z" fill="black"/>
<path d="M176.18 241.67C176.07 239.49 175.38 234.16 171.21 231.84C170.45 231.41 167.73 230.11 164.77 231.15C163.97 231.43 161.84 232.19 161.19 234.36C160.74 235.87 161.26 237.23 161.67 237.97C162.02 238.86 162.89 239.5 163.91 239.5C165.24 239.5 166.32 238.42 166.32 237.09C166.32 235.76 165.24 234.68 163.91 234.68C163.41 234.68 162.95 234.83 162.57 235.09C162.59 234.99 162.6 234.89 162.63 234.79C163.06 233.35 164.61 232.8 165.27 232.57C167.69 231.71 170.03 232.91 170.47 233.15C173.98 235.11 174.58 239.81 174.67 241.74C174.76 243.7 174.38 245.45 173.8 246.94C169.5 247.48 166.15 251.15 166.15 255.6C166.15 260.42 170.07 264.33 174.88 264.33C179.69 264.33 183.61 260.41 183.61 255.6C183.61 250.79 179.97 247.17 175.4 246.89C175.92 245.36 176.25 243.61 176.15 241.67H176.18ZM174.9 248.87C178.61 248.87 181.63 251.89 181.63 255.6C181.63 259.31 178.61 262.33 174.9 262.33C171.19 262.33 168.17 259.31 168.17 255.6C168.17 252.66 170.06 250.17 172.69 249.25C172.02 250.36 171.34 251.2 170.87 251.7C170.87 251.7 170.87 251.71 170.86 251.72C169.89 252.73 169.29 254.09 169.29 255.6C169.29 258.69 171.81 261.21 174.9 261.21C177.99 261.21 180.51 258.69 180.51 255.6C180.51 252.51 177.99 249.99 174.9 249.99C174.57 249.99 174.25 250.02 173.93 250.08C174.15 249.71 174.38 249.31 174.59 248.88C174.69 248.88 174.79 248.86 174.9 248.86V248.87ZM174.9 251.49C177.16 251.49 179.01 253.33 179.01 255.6C179.01 257.87 177.17 259.71 174.9 259.71C172.63 259.71 170.79 257.87 170.79 255.6C170.79 253.33 172.63 251.49 174.9 251.49Z" fill="black"/>
<path d="M133.14 296.95C134.073 296.95 134.83 296.193 134.83 295.26C134.83 294.327 134.073 293.57 133.14 293.57C132.207 293.57 131.45 294.327 131.45 295.26C131.45 296.193 132.207 296.95 133.14 296.95Z" fill="black"/>
<path d="M199.53 43.6399C198.98 43.6399 198.53 43.1899 198.53 42.6399V23.22H183.65C183.1 23.22 182.65 22.77 182.65 22.22C182.65 21.67 183.1 21.22 183.65 21.22H199.53C200.08 21.22 200.53 21.67 200.53 22.22V42.6399C200.53 43.1899 200.08 43.6399 199.53 43.6399Z" fill="black"/>
<path d="M202.14 46.5C200.1 46.45 199.64 48.01 199.53 48.75C199.42 48 198.95 46.45 196.92 46.5C194.24 46.56 193.89 49.56 194.82 51.08C195.76 52.6 196.24 53.08 197.17 54.05C198.05 54.96 199.1 55.9901 199.49 56.6101C199.49 56.6101 199.51 56.6799 199.52 56.6599C199.53 56.6799 199.55 56.6101 199.55 56.6101C199.94 55.9801 200.99 54.96 201.87 54.05C202.81 53.08 203.29 52.6 204.22 51.08C205.16 49.56 204.8 46.57 202.12 46.5H202.14Z" fill="black"/>
<path d="M199.46 56.8L199.44 56.76C199.44 56.76 199.39 56.6899 199.38 56.6599C199.06 56.1599 198.3 55.3799 197.57 54.6299C197.41 54.4599 197.24 54.2999 197.09 54.1299L197.01 54.05C196.12 53.13 195.63 52.6299 194.72 51.1499C194.11 50.1699 194.07 48.72 194.62 47.71C194.94 47.12 195.6 46.4099 196.92 46.3799C196.95 46.3799 196.98 46.3799 197.02 46.3799C198.66 46.3799 199.29 47.4099 199.54 48.1899C199.78 47.4099 200.42 46.3799 202.06 46.3799C202.09 46.3799 202.12 46.3799 202.16 46.3799C203.49 46.4099 204.14 47.12 204.46 47.71C205.01 48.72 204.96 50.1699 204.36 51.1499C203.44 52.6299 202.96 53.1401 202.07 54.0601L201.99 54.1399C201.83 54.2999 201.67 54.4699 201.5 54.6399C200.77 55.3899 200.01 56.1699 199.69 56.6699C199.69 56.6999 199.66 56.74 199.63 56.77L199.61 56.8101H199.55H199.48L199.46 56.8ZM197.01 46.6201C197.01 46.6201 196.95 46.6201 196.92 46.6201C195.71 46.6501 195.12 47.2901 194.83 47.8201C194.33 48.7401 194.37 50.11 194.93 51.01C195.83 52.47 196.31 52.9701 197.19 53.8701L197.27 53.95C197.43 54.11 197.59 54.28 197.75 54.45C198.45 55.16 199.17 55.8999 199.53 56.4199C199.89 55.8999 200.61 55.17 201.3 54.45C201.46 54.28 201.63 54.12 201.79 53.95L201.87 53.8701C202.75 52.9701 203.23 52.47 204.13 51.01C204.68 50.11 204.73 48.7401 204.23 47.8201C203.94 47.2901 203.35 46.6501 202.14 46.6201C202.11 46.6201 202.08 46.6201 202.05 46.6201C200.24 46.6201 199.77 47.96 199.66 48.77L199.54 49.6299L199.42 48.77C199.3 47.96 198.84 46.6201 197.02 46.6201H197.01Z" fill="black"/>
<path d="M200.95 296.63H185.07C184.52 296.63 184.07 296.18 184.07 295.63C184.07 295.08 184.52 294.63 185.07 294.63H199.95V275.21C199.95 274.66 200.4 274.21 200.95 274.21C201.5 274.21 201.95 274.66 201.95 275.21V295.63C201.95 296.18 201.5 296.63 200.95 296.63Z" fill="black"/>
<path d="M204.5 265.01C203.46 263.87 202.25 262.77 201.74 262.18C201.36 261.74 201.09 261.41 200.98 261.27C200.98 261.26 200.96 261.25 200.95 261.23C200.95 261.24 200.93 261.25 200.92 261.27C200.81 261.41 200.54 261.74 200.16 262.18C199.65 262.76 198.44 263.87 197.4 265.01C196.36 266.15 196.27 267.28 196.47 268.22C196.67 269.16 197.65 270.05 199.2 269.85C199.69 269.79 200.04 269.56 200.3 269.27C200.13 270.6 199.41 271.3 199.41 271.3H202.41C201.86 270.69 201.67 269.82 201.6 269.28C201.86 269.57 202.21 269.8 202.69 269.86C204.24 270.05 205.22 269.17 205.42 268.23C205.62 267.29 205.53 266.15 204.49 265.02L204.5 265.01Z" fill="black"/>
<path d="M202.7 271.43H199.11L199.33 271.22C199.33 271.22 199.89 270.66 200.12 269.63C199.86 269.83 199.56 269.95 199.22 269.99C197.61 270.19 196.56 269.27 196.35 268.26C196.09 267.03 196.42 265.91 197.31 264.94C197.87 264.33 198.47 263.74 199 263.21C199.45 262.76 199.84 262.38 200.07 262.11C200.44 261.69 200.7 261.36 200.83 261.21L200.96 261.05L201.08 261.21C201.21 261.37 201.47 261.69 201.84 262.12C202.07 262.39 202.46 262.77 202.91 263.22C203.44 263.74 204.04 264.34 204.59 264.94C205.48 265.92 205.81 267.03 205.55 268.26C205.34 269.27 204.28 270.19 202.68 269.99C202.34 269.95 202.04 269.83 201.78 269.63C201.88 270.15 202.09 270.77 202.5 271.23L202.69 271.44L202.7 271.43ZM199.68 271.18H202.15C201.72 270.59 201.54 269.85 201.47 269.3L201.42 268.9L201.69 269.2C201.97 269.51 202.31 269.69 202.71 269.74C204.16 269.93 205.12 269.11 205.3 268.2C205.54 267.04 205.25 266.02 204.4 265.1C203.85 264.5 203.25 263.91 202.72 263.39C202.27 262.94 201.87 262.55 201.63 262.28C201.32 261.92 201.08 261.63 200.94 261.45C200.8 261.62 200.56 261.91 200.25 262.28C200.01 262.55 199.62 262.94 199.17 263.39C198.64 263.91 198.05 264.5 197.49 265.11C196.64 266.03 196.35 267.05 196.59 268.21C196.78 269.11 197.73 269.93 199.18 269.75C199.58 269.7 199.93 269.52 200.2 269.21L200.47 268.91L200.42 269.31C200.3 270.26 199.91 270.89 199.67 271.2L199.68 271.18Z" fill="black"/>
<path d="M25.6901 41.9199C25.1401 41.9199 24.6901 41.4699 24.6901 40.9199V20.5C24.6901 19.95 25.1401 19.5 25.6901 19.5H41.5701C42.1201 19.5 42.5701 19.95 42.5701 20.5C42.5701 21.05 42.1201 21.5 41.5701 21.5H26.6901V40.9199C26.6901 41.4699 26.2401 41.9199 25.6901 41.9199Z" fill="black"/>
<path d="M25.73 44.6399C25.1 45.6299 24.31 46.7101 23.36 47.8301C22.72 48.5801 22.08 49.2401 21.47 49.8201C22.25 50.6001 23.08 51.5 23.91 52.55C24.61 53.43 25.21 54.2801 25.73 55.0801C26.25 54.3001 26.85 53.4799 27.54 52.6299C28.41 51.5599 29.28 50.6501 30.1 49.8601C29.38 49.2101 28.59 48.43 27.8 47.49C26.95 46.49 26.27 45.5099 25.73 44.6399Z" fill="black"/>
<path d="M25.72 55.3L25.6201 55.1399C25.0601 54.2699 24.4501 53.4301 23.8101 52.6201C23.0501 51.6701 22.2401 50.7599 21.3801 49.9099L21.29 49.8201L21.3801 49.73C22.0401 49.1 22.6701 48.44 23.2601 47.75C24.1201 46.75 24.9101 45.6801 25.6201 44.5801L25.73 44.4099L25.8301 44.5801C26.4401 45.5701 27.1301 46.5199 27.8901 47.4099C28.6001 48.2499 29.3701 49.04 30.1801 49.77L30.2801 49.8601L30.1801 49.95C29.2801 50.81 28.4201 51.74 27.6301 52.71C26.9901 53.49 26.3901 54.3099 25.8201 55.1499L25.7101 55.3101L25.72 55.3ZM21.6401 49.8201C22.4701 50.6501 23.2601 51.54 24.0001 52.46C24.6101 53.23 25.19 54.0301 25.72 54.8401C26.26 54.0501 26.8301 53.27 27.4301 52.54C28.2001 51.6 29.0301 50.7001 29.9001 49.8501C29.1101 49.1401 28.3701 48.3701 27.6801 47.5601C26.9601 46.7101 26.3001 45.8101 25.7101 44.8701C25.0201 45.9301 24.2601 46.9499 23.4301 47.8999C22.8601 48.5599 22.2601 49.2001 21.6201 49.8101L21.6401 49.8201Z" fill="black"/>
<path d="M40.14 294.9H24.26C23.71 294.9 23.26 294.45 23.26 293.9V273.48C23.26 272.93 23.71 272.48 24.26 272.48C24.81 272.48 25.26 272.93 25.26 273.48V292.9H40.14C40.69 292.9 41.14 293.35 41.14 293.9C41.14 294.45 40.69 294.9 40.14 294.9Z" fill="black"/>
<path d="M28.3601 263.87C27.3401 262.76 25.7802 263.42 25.7802 263.42C26.2202 262.95 26.5102 262.58 26.4502 261.82C26.4502 261.79 26.4502 261.77 26.4502 261.74C26.4502 260.52 25.4601 259.53 24.2401 259.53C23.0201 259.53 22.0302 260.52 22.0302 261.74C22.0302 261.89 22.0502 262.04 22.0802 262.19C22.1302 262.72 22.3901 263.04 22.7501 263.43C22.7501 263.43 21.1901 262.77 20.1701 263.88C19.1501 264.99 19.6601 266.31 19.9801 266.74C20.3001 267.17 20.7801 267.9 21.9101 267.82C22.9101 267.75 23.0601 267.58 23.7501 267.03C23.6701 268.54 22.7501 269.57 22.7501 269.57H22.8101H24.2602H25.7102H25.7702C25.2202 268.99 24.7201 267.65 24.7901 267.04C25.4601 267.58 25.6201 267.75 26.6101 267.82C27.7401 267.9 28.2201 267.18 28.5401 266.74C28.8601 266.31 29.3701 264.99 28.3501 263.88L28.3601 263.87Z" fill="black"/>
<path d="M26.0701 269.69H22.4901L22.6701 269.48C22.6701 269.48 23.4401 268.59 23.6101 267.3C23.1001 267.71 22.8501 267.87 21.9301 267.94C20.7701 268.01 20.2501 267.3 19.9301 266.87L19.8901 266.81C19.5901 266.41 18.9902 264.99 20.0902 263.79C20.8202 262.99 21.8201 263.06 22.3901 263.18C22.1701 262.9 22.0101 262.61 21.9701 262.2C21.9401 262.06 21.9201 261.9 21.9201 261.74C21.9201 260.45 22.9701 259.41 24.2501 259.41C25.5301 259.41 26.5802 260.45 26.5802 261.74C26.5802 261.77 26.5802 261.8 26.5802 261.82C26.6202 262.44 26.4501 262.82 26.1601 263.18C26.7201 263.06 27.7202 262.99 28.4602 263.79C29.5602 264.99 28.9501 266.41 28.6601 266.81L28.6201 266.87C28.3201 267.28 27.8301 267.95 26.8001 267.95C26.7401 267.95 26.6801 267.95 26.6201 267.95C25.7001 267.88 25.4501 267.72 24.9401 267.31C25.0001 267.94 25.4101 268.99 25.8801 269.49L26.0802 269.7L26.0701 269.69ZM23.0202 269.44H25.5101C25.0301 268.78 24.6101 267.62 24.6701 267.02L24.6901 266.79L24.9801 267.02C25.5501 267.48 25.7201 267.62 26.6201 267.68C27.6401 267.76 28.0802 267.15 28.4002 266.71L28.4401 266.65C28.7101 266.29 29.2401 265.02 28.2601 263.94C27.3101 262.91 25.8301 263.51 25.8201 263.52L25.2802 263.75L25.6801 263.32C26.1101 262.86 26.3701 262.53 26.3201 261.81V261.72C26.3201 260.57 25.3901 259.64 24.2401 259.64C23.0901 259.64 22.1601 260.57 22.1601 261.72C22.1601 261.86 22.1701 262.01 22.2001 262.14C22.2501 262.65 22.5002 262.95 22.8402 263.31L23.2401 263.74L22.7001 263.51C22.7001 263.51 21.2001 262.9 20.2601 263.93C19.2801 265.01 19.8102 266.28 20.0802 266.64L20.1201 266.7C20.4401 267.14 20.8802 267.76 21.9002 267.67C22.8002 267.6 22.9701 267.47 23.5401 267.01L23.8901 266.73L23.8701 267.01C23.8101 268.17 23.2801 269.04 23.0001 269.42L23.0202 269.44Z" fill="black"/>
<path d="M24.2701 125.48C25.5569 125.48 26.6 124.437 26.6 123.15C26.6 121.863 25.5569 120.82 24.2701 120.82C22.9833 120.82 21.9401 121.863 21.9401 123.15C21.9401 124.437 22.9833 125.48 24.2701 125.48Z" fill="black"/>
<path d="M24.2701 197.08C25.5569 197.08 26.6 196.037 26.6 194.75C26.6 193.463 25.5569 192.42 24.2701 192.42C22.9833 192.42 21.9401 193.463 21.9401 194.75C21.9401 196.037 22.9833 197.08 24.2701 197.08Z" fill="black"/>
<path d="M24.27 193.39C23.99 193.39 23.77 193.17 23.77 192.89V125.48C23.77 125.2 23.99 124.98 24.27 124.98C24.55 124.98 24.77 125.2 24.77 125.48V192.89C24.77 193.17 24.55 193.39 24.27 193.39Z" fill="black"/>
<path d="M24.33 130.08C22.2 128.04 21.53 127.72 21.35 127.86C21.06 128.1 21.6 129.99 22.96 130.3C23.58 130.44 24.11 130.2 24.33 130.08Z" fill="black"/>
<path d="M23.35 130.46C23.22 130.46 23.0801 130.45 22.9401 130.42C22.0101 130.21 21.3801 129.27 21.2001 128.49C21.1501 128.28 21.1001 127.91 21.2801 127.77C21.5101 127.58 22.05 127.73 24.42 130L24.54 130.12L24.3901 130.2C24.1801 130.31 23.8001 130.47 23.3401 130.47L23.35 130.46ZM21.4601 127.95H21.43C21.41 127.97 21.3701 128.15 21.4601 128.5C21.6001 129.02 22.08 129.96 22.99 130.17C23.43 130.27 23.84 130.16 24.11 130.04C22.11 128.14 21.5901 127.95 21.4601 127.95Z" fill="black"/>
<path d="M24.2 130.08C26.33 128.04 26.9999 127.72 27.1799 127.86C27.4699 128.1 26.9299 129.99 25.5699 130.3C24.9499 130.44 24.42 130.2 24.2 130.08Z" fill="black"/>
<path d="M25.19 130.46C24.74 130.46 24.36 130.3 24.14 130.19L23.99 130.11L24.12 129.99C26.49 127.72 27.03 127.58 27.26 127.76C27.44 127.91 27.38 128.28 27.34 128.48C27.16 129.26 26.54 130.2 25.6 130.41C25.46 130.44 25.32 130.45 25.19 130.45V130.46ZM24.42 130.04C24.69 130.15 25.1 130.27 25.54 130.17C26.44 129.97 26.93 129.03 27.07 128.5C27.17 128.15 27.13 127.97 27.1 127.95C27.05 127.93 26.67 127.91 24.42 130.04Z" fill="black"/>
<path d="M24.2 187.92C26.33 189.96 26.9999 190.28 27.1799 190.14C27.4699 189.9 26.9299 188.01 25.5699 187.7C24.9499 187.56 24.42 187.8 24.2 187.92Z" fill="black"/>
<path d="M27.09 190.3C26.77 190.3 26.05 189.86 24.12 188.02L23.99 187.9L24.14 187.82C24.41 187.68 24.97 187.45 25.59 187.59C26.52 187.8 27.15 188.74 27.33 189.52C27.38 189.73 27.43 190.1 27.25 190.24C27.21 190.28 27.15 190.3 27.08 190.3H27.09ZM24.42 187.96C26.67 190.1 27.05 190.08 27.1 190.05C27.12 190.03 27.16 189.85 27.07 189.5C26.93 188.98 26.44 188.04 25.54 187.83C25.1 187.73 24.69 187.84 24.42 187.96Z" fill="black"/>
<path d="M24.3301 187.92C22.2001 189.96 21.5301 190.28 21.3501 190.14C21.0601 189.9 21.6001 188.01 22.9601 187.7C23.5801 187.56 24.1101 187.8 24.3301 187.92Z" fill="black"/>
<path d="M21.4501 190.3C21.3801 190.3 21.3202 190.28 21.2802 190.24C21.1002 190.1 21.1601 189.73 21.2001 189.52C21.3801 188.74 22.0001 187.8 22.9401 187.59C23.5601 187.45 24.1201 187.67 24.3901 187.82L24.5401 187.9L24.4201 188.02C22.4901 189.87 21.7701 190.3 21.4501 190.3ZM23.3501 187.79C23.2401 187.79 23.1201 187.8 23.0001 187.83C22.1001 188.04 21.6101 188.98 21.4701 189.5C21.3701 189.85 21.4101 190.02 21.4401 190.05C21.4901 190.07 21.8801 190.09 24.1201 187.96C23.9201 187.88 23.6601 187.79 23.3501 187.79Z" fill="black"/>
<path d="M202.33 123.73C203.617 123.73 204.66 122.687 204.66 121.4C204.66 120.113 203.617 119.07 202.33 119.07C201.043 119.07 200 120.113 200 121.4C200 122.687 201.043 123.73 202.33 123.73Z" fill="black"/>
<path d="M202.33 195.33C203.617 195.33 204.66 194.287 204.66 193C204.66 191.713 203.617 190.67 202.33 190.67C201.043 190.67 200 191.713 200 193C200 194.287 201.043 195.33 202.33 195.33Z" fill="black"/>
<path d="M202.33 191.64C202.05 191.64 201.83 191.42 201.83 191.14V123.73C201.83 123.45 202.05 123.23 202.33 123.23C202.61 123.23 202.83 123.45 202.83 123.73V191.14C202.83 191.42 202.61 191.64 202.33 191.64Z" fill="black"/>
<path d="M202.4 128.33C200.27 126.29 199.6 125.97 199.42 126.11C199.13 126.35 199.67 128.24 201.03 128.55C201.65 128.69 202.18 128.45 202.4 128.33Z" fill="black"/>
<path d="M201.41 128.71C201.28 128.71 201.14 128.7 201 128.67C200.07 128.46 199.44 127.52 199.26 126.74C199.21 126.53 199.16 126.16 199.34 126.02C199.57 125.83 200.11 125.98 202.48 128.25L202.61 128.37L202.46 128.45C202.25 128.56 201.87 128.72 201.41 128.72V128.71ZM199.53 126.2H199.5C199.48 126.22 199.44 126.4 199.53 126.75C199.67 127.27 200.16 128.21 201.06 128.42C201.5 128.52 201.91 128.41 202.18 128.29C200.18 126.39 199.66 126.2 199.53 126.2Z" fill="black"/>
<path d="M202.27 128.33C204.4 126.29 205.07 125.97 205.25 126.11C205.54 126.35 205 128.24 203.64 128.55C203.02 128.69 202.49 128.45 202.27 128.33Z" fill="black"/>
<path d="M203.25 128.71C202.8 128.71 202.42 128.55 202.2 128.44L202.05 128.36L202.17 128.24C204.54 125.97 205.08 125.83 205.31 126.01C205.49 126.15 205.43 126.52 205.39 126.73C205.21 127.51 204.59 128.45 203.65 128.66C203.51 128.69 203.37 128.7 203.24 128.7L203.25 128.71ZM202.48 128.29C202.75 128.41 203.16 128.52 203.6 128.42C204.5 128.21 204.99 127.27 205.13 126.75C205.23 126.4 205.19 126.23 205.16 126.2C205.11 126.18 204.72 126.16 202.48 128.29Z" fill="black"/>
<path d="M202.27 186.17C204.4 188.21 205.07 188.53 205.25 188.39C205.54 188.15 205 186.26 203.64 185.95C203.02 185.81 202.49 186.05 202.27 186.17Z" fill="black"/>
<path d="M205.15 188.55C204.83 188.55 204.11 188.11 202.18 186.26L202.05 186.14L202.2 186.06C202.54 185.88 203.06 185.7 203.65 185.83C204.58 186.04 205.21 186.98 205.39 187.76C205.44 187.97 205.49 188.34 205.31 188.48C205.27 188.51 205.21 188.54 205.14 188.54L205.15 188.55ZM202.48 186.21C204.72 188.34 205.1 188.33 205.16 188.3C205.18 188.28 205.22 188.1 205.13 187.75C204.99 187.23 204.5 186.29 203.6 186.08C203.17 185.98 202.77 186.08 202.48 186.21Z" fill="black"/>
<path d="M202.4 186.17C200.27 188.21 199.6 188.53 199.42 188.39C199.13 188.15 199.67 186.26 201.03 185.95C201.65 185.81 202.18 186.05 202.4 186.17Z" fill="black"/>
<path d="M199.51 188.55C199.44 188.55 199.38 188.53 199.34 188.49C199.16 188.35 199.22 187.98 199.26 187.77C199.44 186.99 200.06 186.05 201 185.84C201.59 185.71 202.11 185.89 202.45 186.07L202.6 186.15L202.47 186.27C200.54 188.12 199.82 188.56 199.5 188.56L199.51 188.55ZM201.42 186.04C201.31 186.04 201.19 186.05 201.06 186.08C200.16 186.28 199.68 187.22 199.53 187.74C199.43 188.09 199.47 188.27 199.5 188.29C199.55 188.31 199.93 188.34 202.18 186.2C201.97 186.11 201.71 186.03 201.42 186.03V186.04Z" fill="black"/>
<path d="M85.7801 72.3201C83.7101 72.3201 78.79 71.8399 75.3 67.6399C71.46 63.0199 72.3801 57.4699 72.7601 55.8799C73.9801 50.6699 77.92 48.1199 78.81 47.9399C79.69 47.7599 80.4 47.98 80.48 48.01C80.71 48.09 80.88 48.18 80.98 48.23C81.71 48.7 82.02 49.3801 82.16 49.8701C82.26 50.2201 82.0601 50.5799 81.7101 50.6699C81.3701 50.7699 81.01 50.57 80.91 50.22C80.83 49.94 80.66 49.5601 80.31 49.3401C80.29 49.3401 80.1901 49.28 80.0701 49.24C80.0701 49.24 79.6101 49.1 79.0701 49.21C78.6401 49.32 75.1401 51.4199 74.0201 56.1699C73.6801 57.6099 72.84 62.6501 76.3 66.8001C79.75 70.9501 84.78 71.06 86.25 71C91.01 70.79 95.39 67.7999 97.68 63.1799C97.84 62.8599 98.23 62.7299 98.55 62.8899C98.87 63.0499 99.0001 63.44 98.8401 63.76C96.3401 68.8 91.53 72.0701 86.3 72.3001C86.16 72.3001 85.9801 72.3101 85.7801 72.3101V72.3201Z" fill="black"/>
<path d="M79.6 53.3101C81.0746 53.3101 82.2701 52.1145 82.2701 50.6399C82.2701 49.1653 81.0746 47.97 79.6 47.97C78.1254 47.97 76.9301 49.1653 76.9301 50.6399C76.9301 52.1145 78.1254 53.3101 79.6 53.3101Z" fill="black"/>
<path d="M140.01 72.3201C139.81 72.3201 139.63 72.3201 139.49 72.3101C134.26 72.0801 129.45 68.81 126.95 63.77C126.79 63.45 126.92 63.0599 127.24 62.8999C127.56 62.7399 127.95 62.8699 128.11 63.1899C130.4 67.7999 134.78 70.8 139.54 71.01C141 71.07 146.04 70.9601 149.49 66.8101C152.94 62.6601 152.11 57.6199 151.77 56.1799C150.65 51.4299 147.15 49.33 146.72 49.22C146.18 49.11 145.72 49.25 145.72 49.25C145.6 49.29 145.5 49.3401 145.45 49.3701C145.13 49.5801 144.96 49.95 144.89 50.23C144.79 50.58 144.43 50.7799 144.09 50.6799C143.74 50.5799 143.54 50.2199 143.64 49.8799C143.78 49.3899 144.09 48.71 144.79 48.26C144.92 48.18 145.1 48.1 145.32 48.02C145.4 47.99 146.11 47.77 146.99 47.95C147.89 48.13 151.82 50.6799 153.04 55.8899C153.41 57.4799 154.33 63.0399 150.5 67.6499C147.01 71.8499 142.09 72.3301 140.02 72.3301L140.01 72.3201Z" fill="black"/>
<path d="M146.19 53.3101C147.665 53.3101 148.86 52.1145 148.86 50.6399C148.86 49.1653 147.665 47.97 146.19 47.97C144.715 47.97 143.52 49.1653 143.52 50.6399C143.52 52.1145 144.715 53.3101 146.19 53.3101Z" fill="black"/>
<path d="M79.87 268.23C79.66 268.23 79.42 268.21 79.18 268.16C78.28 267.98 74.35 265.43 73.13 260.22C72.76 258.63 71.84 253.07 75.67 248.46C79.5 243.85 85.06 243.73 86.67 243.79C91.9 244.02 96.71 247.29 99.21 252.33C99.37 252.65 99.24 253.04 98.92 253.2C98.6 253.36 98.21 253.23 98.05 252.91C95.76 248.3 91.38 245.3 86.62 245.09C85.16 245.02 80.12 245.14 76.67 249.29C73.22 253.44 74.05 258.48 74.39 259.92C75.51 264.67 79.01 266.77 79.44 266.88C79.98 266.99 80.44 266.85 80.44 266.85C80.56 266.81 80.66 266.76 80.71 266.73C81.03 266.52 81.2 266.15 81.27 265.87C81.37 265.52 81.73 265.32 82.07 265.42C82.42 265.52 82.62 265.88 82.52 266.22C82.38 266.71 82.07 267.39 81.37 267.84C81.24 267.92 81.06 268 80.84 268.08C80.78 268.1 80.4 268.22 79.86 268.22L79.87 268.23Z" fill="black"/>
<path d="M79.97 268.14C81.4446 268.14 82.6401 266.945 82.6401 265.47C82.6401 263.995 81.4446 262.8 79.97 262.8C78.4954 262.8 77.3 263.995 77.3 265.47C77.3 266.945 78.4954 268.14 79.97 268.14Z" fill="black"/>
<path d="M146.66 268.23C146.12 268.23 145.74 268.11 145.68 268.09C145.45 268.01 145.28 267.92 145.18 267.87C144.45 267.4 144.14 266.72 144 266.23C143.9 265.88 144.1 265.52 144.45 265.43C144.8 265.33 145.16 265.53 145.25 265.88C145.33 266.16 145.5 266.54 145.85 266.76C145.87 266.76 145.97 266.82 146.09 266.86C146.09 266.86 146.55 267 147.09 266.89C147.52 266.78 151.02 264.68 152.14 259.93C152.48 258.49 153.32 253.45 149.86 249.3C146.41 245.15 141.38 245.04 139.91 245.1C135.15 245.31 130.77 248.3 128.48 252.92C128.32 253.24 127.93 253.37 127.61 253.21C127.29 253.05 127.16 252.66 127.32 252.34C129.82 247.3 134.63 244.03 139.86 243.8C141.47 243.73 147.03 243.86 150.86 248.47C154.7 253.09 153.78 258.64 153.4 260.23C152.18 265.44 148.24 267.99 147.35 268.17C147.1 268.22 146.87 268.24 146.66 268.24V268.23Z" fill="black"/>
<path d="M146.57 268.14C148.045 268.14 149.24 266.945 149.24 265.47C149.24 263.995 148.045 262.8 146.57 262.8C145.096 262.8 143.9 263.995 143.9 265.47C143.9 266.945 145.096 268.14 146.57 268.14Z" fill="black"/>
<defs>
<linearGradient id="paint0_linear_2_19969" x1="-13.15" y1="-51.3699" x2="263.52" y2="410.11" gradientUnits="userSpaceOnUse">
<stop stop-color="#E0D5D0"/>
<stop offset="0.46" stop-color="#B2A8A0"/>
<stop offset="1" stop-color="#80776D"/>
</linearGradient>
</defs>
</svg>
