<svg width="76" height="76" viewBox="0 0 76 76" fill="none" xmlns="http://www.w3.org/2000/svg">
<path d="M37.9226 74.0965C57.7762 74.0965 73.8707 57.9788 73.8707 38.0966C73.8707 18.2144 57.7762 2.09668 37.9226 2.09668C18.0691 2.09668 1.97461 18.2144 1.97461 38.0966C1.97461 57.9788 18.0691 74.0965 37.9226 74.0965Z" fill="url(#paint0_linear_77_17769)" stroke="black" stroke-width="3.82" stroke-linecap="round" stroke-linejoin="round"/>
<path d="M37.8186 74.0965C57.6722 74.0965 73.7667 57.9788 73.7667 38.0966C73.7667 18.2144 57.6722 2.09668 37.8186 2.09668C17.9651 2.09668 1.87061 18.2144 1.87061 38.0966C1.87061 57.9788 17.9651 74.0965 37.8186 74.0965Z" stroke="#959387" stroke-width="1.41" stroke-linecap="round" stroke-linejoin="round"/>
<path d="M71.6075 38.0962C71.5239 40.3284 70.0124 43.0697 67.9646 43.1604C67.0313 43.2022 66.2442 42.693 65.7427 42.2605C65.4292 42.135 64.2591 41.7165 62.8799 42.1699C61.4172 42.6442 60.7207 43.7602 60.5535 44.0462C58.4291 52.3121 51.9653 58.848 43.7462 61.0592C43.7462 61.0592 43.7323 61.0592 43.7253 61.0592C43.0984 61.38 42.2904 61.9939 41.8795 63.0611C41.3501 64.4422 41.8516 65.6629 41.9631 65.928C42.3879 66.4232 42.8964 67.2115 42.8616 68.1531C42.771 70.1969 40.1103 71.8012 37.8117 71.8012C35.5132 71.8012 32.8455 70.1969 32.7549 68.1531C32.7131 67.2184 33.2216 66.4302 33.6534 65.928C33.7649 65.6699 34.2664 64.4492 33.737 63.0611C33.4096 62.1962 32.8176 61.6381 32.2743 61.2824C23.4283 59.2735 16.456 52.319 14.4152 43.4673C14.053 42.9651 13.5236 42.4559 12.7505 42.1629C11.3644 41.6397 10.1455 42.135 9.88775 42.2466C9.39321 42.6721 8.60613 43.1813 7.66581 43.1464C5.62497 43.0557 4.02295 40.3911 4.02295 38.0893C4.02295 35.7874 5.62497 33.1158 7.66581 33.0251C8.59916 32.9833 9.38625 33.4925 9.88775 33.925C10.1455 34.0436 11.3644 34.5388 12.7505 34.0157C13.5306 33.7157 14.053 33.2135 14.4152 32.7113C16.463 23.8595 23.4283 16.912 32.2743 14.8962C32.8176 14.5404 33.4027 13.9824 33.737 13.1174C34.2664 11.7363 33.7649 10.5087 33.6534 10.2506C33.2285 9.75531 32.7201 8.9671 32.7549 8.0324C32.8455 5.98861 35.5062 4.38428 37.8048 4.38428C40.1033 4.38428 42.771 5.98861 42.8616 8.0324C42.9034 8.9671 42.3949 9.74834 41.9631 10.2506C41.8516 10.5156 41.3501 11.7363 41.8795 13.1174C42.2904 14.1847 43.0984 14.7985 43.7253 15.1194C43.7253 15.1194 43.7392 15.1194 43.7462 15.1194C51.9653 17.3306 58.4221 23.8595 60.5535 32.1253C60.7207 32.4043 61.4172 33.5274 62.8799 34.0087C64.266 34.4621 65.4292 34.0436 65.7427 33.918C65.9516 33.7227 66.7875 32.9763 67.9646 33.0251C69.1696 33.074 69.9219 33.925 70.3328 34.3993C71.6562 35.892 71.6144 37.7684 71.6075 38.0823V38.0962Z" stroke="black" stroke-width="0.7" stroke-linecap="round" stroke-linejoin="round"/>
<path d="M47.4795 16.3962L50.2029 7.87229C50.2656 7.67 50.4885 7.55142 50.6905 7.62117C50.9064 7.69093 51.0179 7.93506 50.9343 8.14432L47.4865 16.4032L47.4795 16.3962Z" fill="#959387" stroke="black" stroke-width="0.7" stroke-linecap="round" stroke-linejoin="round"/>
<path d="M51.1782 18.2168L55.6291 10.4532C55.7335 10.2649 55.9704 10.2021 56.1584 10.3068C56.3535 10.4184 56.4161 10.6834 56.2838 10.8648L51.1782 18.2168Z" fill="#959387" stroke="black" stroke-width="0.7" stroke-linecap="round" stroke-linejoin="round"/>
<path d="M54.4166 20.7841L60.3929 14.1296C60.5391 13.9691 60.7829 13.9552 60.9431 14.1017C61.1103 14.2551 61.1173 14.5202 60.9431 14.6737L54.4097 20.7841H54.4166Z" fill="#959387" stroke="black" stroke-width="0.7" stroke-linecap="round" stroke-linejoin="round"/>
<path d="M57.0498 23.9705L64.2868 18.7181C64.4609 18.5925 64.7047 18.6274 64.8301 18.8018C64.9624 18.9831 64.9067 19.2482 64.7186 19.3668L57.0498 23.9705Z" fill="#959387" stroke="black" stroke-width="0.7" stroke-linecap="round" stroke-linejoin="round"/>
<path d="M58.9517 27.6401L67.1289 24.0268C67.324 23.9431 67.5538 24.0268 67.6444 24.2291C67.7349 24.4384 67.6304 24.6825 67.4145 24.7523L58.9517 27.6401Z" fill="#959387" stroke="black" stroke-width="0.7" stroke-linecap="round" stroke-linejoin="round"/>
<path d="M27.6706 16.4587L24.9472 7.93479C24.8845 7.7325 24.6616 7.61392 24.4596 7.68367C24.2437 7.75343 24.1322 7.99756 24.2158 8.20682L27.6637 16.4657L27.6706 16.4587Z" fill="#959387" stroke="black" stroke-width="0.7" stroke-linecap="round" stroke-linejoin="round"/>
<path d="M23.9642 18.2866L19.5133 10.5231C19.4089 10.3347 19.172 10.2719 18.984 10.3766C18.7889 10.4882 18.7263 10.7532 18.8586 10.9346L23.9642 18.2866Z" fill="#959387" stroke="black" stroke-width="0.7" stroke-linecap="round" stroke-linejoin="round"/>
<path d="M20.7253 20.8461L14.7491 14.1916C14.6028 14.0312 14.359 14.0172 14.1988 14.1637C14.0316 14.3171 14.0247 14.5822 14.1988 14.7357L20.7323 20.8461H20.7253Z" fill="#959387" stroke="black" stroke-width="0.7" stroke-linecap="round" stroke-linejoin="round"/>
<path d="M18.0925 24.034L10.8555 18.7815C10.6814 18.656 10.4376 18.6909 10.3122 18.8652C10.1799 19.0466 10.2356 19.3117 10.4237 19.4303L18.0925 24.034Z" fill="#959387" stroke="black" stroke-width="0.7" stroke-linecap="round" stroke-linejoin="round"/>
<path d="M16.1912 27.7031L8.01392 24.0898C7.81889 24.0061 7.58903 24.0898 7.49848 24.2921C7.40793 24.5014 7.51242 24.7455 7.72834 24.8153L16.1912 27.7031Z" fill="#959387" stroke="black" stroke-width="0.7" stroke-linecap="round" stroke-linejoin="round"/>
<path d="M27.5578 59.6847L24.8344 68.2086C24.7717 68.4109 24.5488 68.5295 24.3468 68.4597C24.1309 68.39 24.0194 68.1458 24.103 67.9366L27.5509 59.6777L27.5578 59.6847Z" fill="#959387" stroke="black" stroke-width="0.7" stroke-linecap="round" stroke-linejoin="round"/>
<path d="M23.8524 57.8574L19.4015 65.621C19.297 65.8093 19.0602 65.8721 18.8722 65.7675C18.6771 65.6559 18.6144 65.3908 18.7468 65.2095L23.8524 57.8574Z" fill="#959387" stroke="black" stroke-width="0.7" stroke-linecap="round" stroke-linejoin="round"/>
<path d="M20.614 55.2974L14.6377 61.9519C14.4915 62.1123 14.2477 62.1262 14.0875 61.9798C13.9203 61.8263 13.9133 61.5612 14.0875 61.4078L20.6209 55.2974H20.614Z" fill="#959387" stroke="black" stroke-width="0.7" stroke-linecap="round" stroke-linejoin="round"/>
<path d="M17.9812 52.1099L10.7442 57.3623C10.5701 57.4879 10.3263 57.453 10.2009 57.2786C10.0686 57.0973 10.1243 56.8322 10.3124 56.7136L17.9812 52.1099Z" fill="#959387" stroke="black" stroke-width="0.7" stroke-linecap="round" stroke-linejoin="round"/>
<path d="M16.0799 48.4409L7.90259 52.0542C7.70756 52.1379 7.4777 52.0542 7.38715 51.8519C7.29661 51.6426 7.40109 51.3985 7.61701 51.3287L16.0799 48.4409Z" fill="#959387" stroke="black" stroke-width="0.7" stroke-linecap="round" stroke-linejoin="round"/>
<path d="M47.5835 59.6847L50.3069 68.2086C50.3696 68.4109 50.5925 68.5295 50.7945 68.4597C51.0104 68.39 51.1219 68.1458 51.0383 67.9366L47.5905 59.6777L47.5835 59.6847Z" fill="#959387" stroke="black" stroke-width="0.7" stroke-linecap="round" stroke-linejoin="round"/>
<path d="M51.2886 57.8574L55.7394 65.621C55.8439 65.8093 56.0807 65.8721 56.2688 65.7675C56.4638 65.6559 56.5265 65.3908 56.3942 65.2095L51.2886 57.8574Z" fill="#959387" stroke="black" stroke-width="0.7" stroke-linecap="round" stroke-linejoin="round"/>
<path d="M54.5275 55.2974L60.5037 61.9519C60.65 62.1123 60.8938 62.1262 61.054 61.9798C61.2211 61.8263 61.2281 61.5612 61.054 61.4078L54.5205 55.2974H54.5275Z" fill="#959387" stroke="black" stroke-width="0.7" stroke-linecap="round" stroke-linejoin="round"/>
<path d="M57.1611 52.1099L64.3981 57.3623C64.5722 57.4879 64.816 57.453 64.9414 57.2786C65.0737 57.0973 65.018 56.8322 64.83 56.7136L57.1611 52.1099Z" fill="#959387" stroke="black" stroke-width="0.7" stroke-linecap="round" stroke-linejoin="round"/>
<path d="M59.063 48.4409L67.2403 52.0542C67.4353 52.1379 67.6652 52.0542 67.7557 51.8519C67.8463 51.6426 67.7418 51.3985 67.5259 51.3287L59.063 48.4409Z" fill="#959387" stroke="black" stroke-width="0.7" stroke-linecap="round" stroke-linejoin="round"/>
<path d="M39.0927 6.76979C38.0967 6.74886 37.8668 7.50918 37.8111 7.8719C37.7554 7.5022 37.5255 6.74189 36.5295 6.76979C35.22 6.80467 35.0459 8.2695 35.5056 9.01586C35.9653 9.75525 36.2021 9.99241 36.6548 10.4667C37.0867 10.9132 37.6021 11.4154 37.7902 11.7223C37.7902 11.7223 37.7972 11.7572 37.8041 11.7502C37.8041 11.7572 37.8181 11.7223 37.8181 11.7223C38.0061 11.4154 38.5216 10.9132 38.9534 10.4667C39.4131 9.99241 39.6499 9.75525 40.1027 9.01586C40.5624 8.27647 40.3883 6.80467 39.0788 6.76979H39.0927Z" fill="black"/>
<path d="M37.7908 64.7002C37.4773 65.1885 37.1012 65.7186 36.6276 66.2627C36.3141 66.6254 36.0007 66.9532 35.7012 67.2392C36.0843 67.6229 36.4883 68.0623 36.8992 68.5785C37.2405 69.011 37.54 69.4295 37.7908 69.8201C38.0415 69.4365 38.341 69.0319 38.6754 68.6204C39.1003 68.0972 39.5251 67.6508 39.9291 67.2602C39.5739 66.9393 39.1908 66.5556 38.8007 66.0953C38.3828 65.6 38.0555 65.1257 37.7908 64.7002Z" fill="black"/>
<path d="M67.1568 39.8335C67.714 39.3243 68.2573 38.7314 68.5429 38.4803C68.7588 38.292 68.919 38.1594 68.9887 38.1106C68.9887 38.1106 69.0026 38.1036 69.0026 38.0967C69.0026 38.0967 68.9887 38.0897 68.9887 38.0827C68.919 38.0269 68.7588 37.8944 68.5429 37.713C68.2573 37.4619 67.714 36.869 67.1568 36.3598C66.5996 35.8506 66.0423 35.8087 65.5826 35.9064C65.1229 36.0041 64.6841 36.4854 64.7816 37.2457C64.8095 37.4828 64.9279 37.6572 65.0672 37.7828C64.4125 37.6991 64.0781 37.3433 64.0781 37.3433V38.8151C64.3776 38.5431 64.8025 38.4524 65.0672 38.4175C64.9279 38.5431 64.8164 38.7175 64.7816 38.9546C64.6841 39.715 65.1229 40.1963 65.5826 40.2939C66.0423 40.3916 66.5996 40.3497 67.1568 39.8405V39.8335Z" fill="black"/>
<path d="M41.5664 48.4071C42.2211 48.4211 43.1545 48.442 44.2689 48.4559C46.5187 48.4769 47.6541 48.4769 48.0371 48.2955C50.1825 47.2841 49.5277 41.641 49.3118 40.0436C50.273 39.5972 51.2273 39.1578 52.1885 38.7113C50.7884 35.9282 49.3954 33.145 47.9953 30.3618H31.1602C30.6169 30.606 30.2825 30.8989 30.1014 31.0873C28.7084 32.5102 29.2586 34.6377 29.189 39.6042C29.175 40.518 29.1472 41.2573 29.1263 41.6619C26.7441 41.4736 24.6128 42.6594 23.7909 44.5427C22.8366 46.733 24.1252 48.8396 24.3063 49.1256C25.9013 51.6158 29.2656 52.0203 31.4945 51.56C32.393 51.3786 34.3294 50.7927 35.7782 49.0419C36.412 48.2746 37.1225 47.0609 37.6936 38.8229C37.9305 35.3632 37.9931 32.873 39.8529 31.2895C40.3405 30.871 40.8211 30.6269 41.1484 30.4874" stroke="black" stroke-width="1.41" stroke-linecap="round" stroke-linejoin="round"/>
<path d="M48.0861 30.4379H31.0698L27.7334 24.46H51.4225L48.0861 30.4379Z" stroke="black" stroke-width="1.41" stroke-linecap="round" stroke-linejoin="round"/>
<path d="M44.8679 36.9386C45.5565 36.9386 46.1147 36.3796 46.1147 35.69C46.1147 35.0004 45.5565 34.4414 44.8679 34.4414C44.1793 34.4414 43.6211 35.0004 43.6211 35.69C43.6211 36.3796 44.1793 36.9386 44.8679 36.9386Z" fill="black"/>
<path d="M8.6962 36.15C8.15291 36.6523 8.47331 37.4126 8.47331 37.4126C8.24346 37.1964 8.06236 37.0568 7.68623 37.0847C7.6723 37.0847 7.65837 37.0847 7.6514 37.0847C7.05239 37.0847 6.57178 37.566 6.57178 38.1659C6.57178 38.7658 7.05239 39.2471 7.6514 39.2471C7.72802 39.2471 7.79767 39.2401 7.86733 39.2262C8.12504 39.1983 8.28525 39.0727 8.47331 38.8983C8.47331 38.8983 8.15291 39.6656 8.6962 40.1609C9.2395 40.6631 9.88727 40.412 10.0962 40.2516C10.3052 40.0911 10.6674 39.8609 10.6256 39.3029C10.5908 38.8146 10.5072 38.7379 10.2355 38.4031C10.9739 38.4449 11.4823 38.8914 11.4823 38.8914V38.8635V38.152V37.4405V37.4126C11.1968 37.6846 10.542 37.9218 10.2425 37.8939C10.5072 37.5661 10.5908 37.4893 10.6256 37.001C10.6674 36.443 10.3122 36.2128 10.0962 36.0524C9.88727 35.892 9.2395 35.6478 8.6962 36.1431V36.15Z" fill="black"/>
<defs>
<linearGradient id="paint0_linear_77_17769" x1="37.9226" y1="74.0965" x2="37.9226" y2="2.08971" gradientUnits="userSpaceOnUse">
<stop stop-color="#80776D"/>
<stop offset="0.22" stop-color="#918789"/>
<stop offset="0.55" stop-color="#BBB0AE"/>
<stop offset="0.84" stop-color="#D7CCC8"/>
<stop offset="1" stop-color="#E2D7D2"/>
</linearGradient>
</defs>
</svg>
