<svg width="96" height="98" viewBox="0 0 96 98" fill="none" xmlns="http://www.w3.org/2000/svg">
<path d="M47.7281 92.8959C72.014 92.8959 91.7017 73.1136 91.7017 48.7109C91.7017 24.3082 72.014 4.52588 47.7281 4.52588C23.4421 4.52588 3.75439 24.3082 3.75439 48.7109C3.75439 73.1136 23.4421 92.8959 47.7281 92.8959Z" fill="url(#paint0_linear_63_45815)" stroke="black" stroke-linecap="round" stroke-linejoin="round"/>
<path d="M33.8997 50.153C27.417 51.0202 22.1988 52.1193 18.5561 52.9865C10.2972 54.9628 6.09251 56.7072 3.29273 54.3578C1.75736 53.0671 0.834135 50.7076 1.0248 48.5296C1.03484 48.3885 1.31582 45.545 3.38304 43.8611C6.73476 41.1285 11.7724 43.8812 20.8842 45.4946C23.8445 46.0189 28.3302 46.6138 33.99 46.5735C33.9599 47.7633 33.9198 48.9632 33.8896 50.153H33.8997Z" fill="url(#paint1_linear_63_45815)" stroke="black" stroke-linecap="round" stroke-linejoin="round"/>
<path d="M34.0502 46.1802C31.1501 45.5147 26.835 44.456 21.6369 42.9334C7.44728 38.769 5.9922 36.7624 5.48041 35.2297C4.09557 31.1158 7.67809 25.1464 10.5682 25.096C12.8662 25.0557 13.9199 28.726 16.6996 32.3863C19.66 36.2784 24.9284 40.6243 35.0437 42.9737C34.8129 43.4073 34.562 43.9518 34.3714 44.6072C34.1907 45.2021 34.1004 45.7365 34.0502 46.1903V46.1802Z" fill="url(#paint2_linear_63_45815)" stroke="black" stroke-linecap="round" stroke-linejoin="round"/>
<path d="M34.1004 51.2923C31.2204 52.0183 26.9254 53.1678 21.7573 54.8013C7.65804 59.2682 6.2431 61.2949 5.76141 62.8478C4.46689 66.992 8.16983 72.8806 11.0599 72.8706C13.358 72.8706 14.3314 69.17 17.0408 65.4493C19.9209 61.4966 25.089 57.0398 35.1642 54.4786C34.9233 54.0551 34.6624 53.5106 34.4517 52.8552C34.261 52.2704 34.1607 51.7259 34.1004 51.2822V51.2923Z" fill="url(#paint3_linear_63_45815)" stroke="black" stroke-linecap="round" stroke-linejoin="round"/>
<path d="M49.8858 63.9971C50.508 70.5411 51.4212 75.8248 52.1537 79.5052C53.8196 87.8743 55.4051 92.1496 52.9666 94.8822C51.6319 96.3745 49.2436 97.2215 47.086 96.9493C46.9455 96.9291 44.1257 96.5459 42.5301 94.4083C39.9411 90.9396 42.8613 85.9887 44.788 76.8936C45.4202 73.9392 46.1728 69.4521 46.3334 63.7651C47.5175 63.8458 48.7017 63.9164 49.8959 63.9971H49.8858Z" fill="url(#paint4_linear_63_45815)" stroke="black" stroke-linecap="round" stroke-linejoin="round"/>
<path d="M45.9516 63.6948C45.1789 66.5786 43.9747 70.8741 42.2687 76.0468C37.6125 90.1432 35.5653 91.5247 34.0199 91.9885C29.8754 93.2287 24.0751 89.4172 24.1253 86.5032C24.1655 84.1941 27.8584 83.2664 31.6014 80.6044C35.5753 77.771 40.0911 72.6386 42.8006 62.5654C43.2221 62.8074 43.7539 63.0797 44.3962 63.3015C44.9782 63.5032 45.5101 63.6141 45.9516 63.6847V63.6948Z" fill="url(#paint5_linear_63_45815)" stroke="black" stroke-linecap="round" stroke-linejoin="round"/>
<path d="M51.0298 63.8258C51.652 66.7398 52.6354 71.1059 54.0704 76.3492C58.0042 90.6675 59.971 92.1598 61.4863 92.7043C65.5606 94.1563 71.5515 90.6574 71.6518 87.7433C71.7321 85.4443 68.0894 84.3251 64.4968 81.4715C60.6735 78.4365 56.4286 73.0822 54.241 62.8779C53.8095 63.0998 53.2576 63.3418 52.6053 63.5333C52.0132 63.7048 51.4713 63.7854 51.0298 63.8358V63.8258Z" fill="url(#paint6_linear_63_45815)" stroke="black" stroke-linecap="round" stroke-linejoin="round"/>
<path d="M49.5749 33.949C50.0666 27.3949 50.8594 22.091 51.5117 18.4006C52.9969 10.0012 54.4921 5.68552 52.0034 3.01344C50.6386 1.55136 48.2403 0.754783 46.0827 1.06737C45.9422 1.08753 43.1324 1.5312 41.577 3.70919C39.0582 7.22826 42.0787 12.1187 44.2062 21.1735C44.8986 24.1178 45.7415 28.5746 46.0325 34.2616C47.2167 34.1607 48.4008 34.0599 49.5849 33.949H49.5749Z" fill="url(#paint7_linear_63_45815)" stroke="black" stroke-linecap="round" stroke-linejoin="round"/>
<path d="M45.6408 34.3222C44.8079 31.4586 43.5134 27.1833 41.697 22.0509C36.7397 8.05523 34.6725 6.71416 33.117 6.28057C28.9525 5.13108 23.2325 9.06356 23.3429 11.9676C23.4332 14.2665 27.1361 15.1236 30.9394 17.705C34.9735 20.4476 39.5997 25.4893 42.5099 35.502C42.9213 35.2499 43.4532 34.9676 44.0954 34.7256C44.6774 34.5138 45.1993 34.3827 45.6508 34.3121L45.6408 34.3222Z" fill="url(#paint8_linear_63_45815)" stroke="black" stroke-linecap="round" stroke-linejoin="round"/>
<path d="M50.7188 34.0904C51.2807 31.1562 52.1738 26.78 53.4985 21.5064C57.1312 7.1075 59.0679 5.57484 60.5732 5.00009C64.6173 3.45734 70.6785 6.83525 70.8391 9.73924C70.9695 12.0382 67.3569 13.2381 63.8145 16.1623C60.0514 19.278 55.9169 24.723 53.95 34.9676C53.5185 34.7559 52.9666 34.524 52.3043 34.3526C51.7122 34.1912 51.1703 34.1207 50.7188 34.0904Z" fill="url(#paint9_linear_63_45815)" stroke="black" stroke-linecap="round" stroke-linejoin="round"/>
<path d="M62.209 50.5359C68.7318 51.03 74.0103 51.8266 77.6831 52.482C86.0423 53.9743 90.3373 55.4767 92.9966 52.9761C94.4517 51.6047 95.2445 49.1948 94.9334 47.0269C94.9133 46.8858 94.4718 44.0624 92.3042 42.4995C88.802 39.9686 83.9349 43.0037 74.9235 45.1413C71.9932 45.8371 67.5577 46.6841 61.8979 46.9765C61.9983 48.1663 62.0986 49.3562 62.209 50.546V50.5359Z" fill="url(#paint10_linear_63_45815)" stroke="black" stroke-linecap="round" stroke-linejoin="round"/>
<path d="M61.8274 46.5834C64.6774 45.7465 68.9323 44.4458 74.0401 42.6207C87.9688 37.6395 89.3034 35.5624 89.735 33.9995C90.879 29.8149 86.9653 24.0674 84.0752 24.1783C81.7872 24.2691 80.9342 27.9898 78.3652 31.8114C75.6357 35.8649 70.6181 40.5133 60.6533 43.4374C60.9042 43.8509 61.1852 44.3853 61.426 45.0306C61.6368 45.6154 61.7672 46.1398 61.8375 46.5935L61.8274 46.5834Z" fill="url(#paint11_linear_63_45815)" stroke="black" stroke-linecap="round" stroke-linejoin="round"/>
<path d="M62.0684 51.6855C64.9886 52.2502 69.3438 53.1476 74.5921 54.4786C88.9222 58.1288 90.4475 60.0749 91.0195 61.5873C92.5549 65.6509 89.1932 71.7412 86.3031 71.9026C84.0151 72.0336 82.8209 68.4037 79.9107 64.8442C76.8099 61.063 71.3909 56.9087 61.1953 54.9324C61.406 54.4988 61.6369 53.9442 61.8075 53.2787C61.968 52.6838 62.0383 52.1393 62.0684 51.6855Z" fill="url(#paint12_linear_63_45815)" stroke="black" stroke-linecap="round" stroke-linejoin="round"/>
<path d="M47.5877 34.7356C55.2746 34.655 61.5666 40.8461 61.6469 48.5699C61.7271 56.2937 55.5656 62.616 47.8788 62.6966C40.1919 62.7773 33.8999 56.5861 33.8196 48.8623C33.7393 41.1385 39.9009 34.8163 47.5877 34.7356Z" fill="url(#paint13_radial_63_45815)" stroke="black" stroke-linecap="round" stroke-linejoin="round"/>
<path d="M85.3008 48.9222C85.3008 69.0802 68.7181 85.7058 48.5031 85.9272H48.0984C27.8734 85.7058 11.3008 69.0802 11.3008 48.9222C11.3008 28.7642 27.8734 12.1386 48.0984 11.9272H48.5031C68.7282 12.1487 85.3008 28.7642 85.3008 48.9222Z" fill="url(#paint14_linear_63_45815)" stroke="black" stroke-linecap="round" stroke-linejoin="round"/>
<path d="M48.6865 79.3384C65.2551 79.3384 78.6865 65.9069 78.6865 49.3384C78.6865 32.7698 65.2551 19.3384 48.6865 19.3384C32.118 19.3384 18.6865 32.7698 18.6865 49.3384C18.6865 65.9069 32.118 79.3384 48.6865 79.3384Z" fill="white" stroke="black" stroke-linecap="round" stroke-linejoin="round"/>
<defs>
<linearGradient id="paint0_linear_63_45815" x1="48.2241" y1="93.3202" x2="47.2943" y2="4.95514" gradientUnits="userSpaceOnUse">
<stop stop-color="#80776D"/>
<stop offset="0.22" stop-color="#918789"/>
<stop offset="0.55" stop-color="#BBB0AE"/>
<stop offset="0.84" stop-color="#D7CCC8"/>
<stop offset="1" stop-color="#E2D7D2"/>
</linearGradient>
<linearGradient id="paint1_linear_63_45815" x1="17.6157" y1="55.7979" x2="17.4812" y2="43.0129" gradientUnits="userSpaceOnUse">
<stop stop-color="#80776D"/>
<stop offset="0.22" stop-color="#918789"/>
<stop offset="0.55" stop-color="#BBB0AE"/>
<stop offset="0.84" stop-color="#D7CCC8"/>
<stop offset="1" stop-color="#E2D7D2"/>
</linearGradient>
<linearGradient id="paint2_linear_63_45815" x1="20.2312" y1="46.7553" x2="20.0067" y2="25.4203" gradientUnits="userSpaceOnUse">
<stop stop-color="#80776D"/>
<stop offset="0.22" stop-color="#918789"/>
<stop offset="0.55" stop-color="#BBB0AE"/>
<stop offset="0.84" stop-color="#D7CCC8"/>
<stop offset="1" stop-color="#E2D7D2"/>
</linearGradient>
<linearGradient id="paint3_linear_63_45815" x1="20.6964" y1="51.8519" x2="20.9209" y2="73.187" gradientUnits="userSpaceOnUse">
<stop stop-color="#80776D"/>
<stop offset="0.22" stop-color="#918789"/>
<stop offset="0.55" stop-color="#BBB0AE"/>
<stop offset="0.84" stop-color="#D7CCC8"/>
<stop offset="1" stop-color="#E2D7D2"/>
</linearGradient>
<linearGradient id="paint4_linear_63_45815" x1="54.5461" y1="80.6316" x2="41.8258" y2="80.3045" gradientUnits="userSpaceOnUse">
<stop stop-color="#80776D"/>
<stop offset="0.22" stop-color="#918789"/>
<stop offset="0.55" stop-color="#BBB0AE"/>
<stop offset="0.84" stop-color="#D7CCC8"/>
<stop offset="1" stop-color="#E2D7D2"/>
</linearGradient>
<linearGradient id="paint5_linear_63_45815" x1="45.6473" y1="77.6774" x2="24.42" y2="77.1316" gradientUnits="userSpaceOnUse">
<stop stop-color="#80776D"/>
<stop offset="0.22" stop-color="#918789"/>
<stop offset="0.55" stop-color="#BBB0AE"/>
<stop offset="0.84" stop-color="#D7CCC8"/>
<stop offset="1" stop-color="#E2D7D2"/>
</linearGradient>
<linearGradient id="paint6_linear_63_45815" x1="50.7271" y1="77.7512" x2="71.9544" y2="78.2971" gradientUnits="userSpaceOnUse">
<stop stop-color="#80776D"/>
<stop offset="0.22" stop-color="#918789"/>
<stop offset="0.55" stop-color="#BBB0AE"/>
<stop offset="0.84" stop-color="#D7CCC8"/>
<stop offset="1" stop-color="#E2D7D2"/>
</linearGradient>
<linearGradient id="paint7_linear_63_45815" x1="53.7919" y1="17.1278" x2="41.0912" y2="17.7217" gradientUnits="userSpaceOnUse">
<stop stop-color="#80776D"/>
<stop offset="0.22" stop-color="#918789"/>
<stop offset="0.55" stop-color="#BBB0AE"/>
<stop offset="0.84" stop-color="#D7CCC8"/>
<stop offset="1" stop-color="#E2D7D2"/>
</linearGradient>
<linearGradient id="paint8_linear_63_45815" x1="44.9673" y1="20.27" x2="23.746" y2="21.2623" gradientUnits="userSpaceOnUse">
<stop stop-color="#80776D"/>
<stop offset="0.22" stop-color="#918789"/>
<stop offset="0.55" stop-color="#BBB0AE"/>
<stop offset="0.84" stop-color="#D7CCC8"/>
<stop offset="1" stop-color="#E2D7D2"/>
</linearGradient>
<linearGradient id="paint9_linear_63_45815" x1="50.055" y1="20.1621" x2="71.2663" y2="19.1702" gradientUnits="userSpaceOnUse">
<stop stop-color="#80776D"/>
<stop offset="0.22" stop-color="#918789"/>
<stop offset="0.55" stop-color="#BBB0AE"/>
<stop offset="0.84" stop-color="#D7CCC8"/>
<stop offset="1" stop-color="#E2D7D2"/>
</linearGradient>
<linearGradient id="paint10_linear_63_45815" x1="78.7867" y1="54.7626" x2="78.1843" y2="42.0014" gradientUnits="userSpaceOnUse">
<stop stop-color="#80776D"/>
<stop offset="0.22" stop-color="#918789"/>
<stop offset="0.55" stop-color="#BBB0AE"/>
<stop offset="0.84" stop-color="#D7CCC8"/>
<stop offset="1" stop-color="#E2D7D2"/>
</linearGradient>
<linearGradient id="paint11_linear_63_45815" x1="75.6589" y1="45.886" x2="74.6528" y2="24.5737" gradientUnits="userSpaceOnUse">
<stop stop-color="#80776D"/>
<stop offset="0.22" stop-color="#918789"/>
<stop offset="0.55" stop-color="#BBB0AE"/>
<stop offset="0.84" stop-color="#D7CCC8"/>
<stop offset="1" stop-color="#E2D7D2"/>
</linearGradient>
<linearGradient id="paint12_linear_63_45815" x1="75.7766" y1="50.998" x2="76.7827" y2="72.3103" gradientUnits="userSpaceOnUse">
<stop stop-color="#80776D"/>
<stop offset="0.22" stop-color="#918789"/>
<stop offset="0.55" stop-color="#BBB0AE"/>
<stop offset="0.84" stop-color="#D7CCC8"/>
<stop offset="1" stop-color="#E2D7D2"/>
</linearGradient>
<radialGradient id="paint13_radial_63_45815" cx="0" cy="0" r="1" gradientUnits="userSpaceOnUse" gradientTransform="translate(47.7638 49.1378) rotate(-90.5971) scale(13.9754 13.9086)">
<stop offset="0.16" stop-color="#FF0303"/>
<stop offset="0.49" stop-color="#FD0303"/>
<stop offset="0.63" stop-color="#F50303"/>
<stop offset="0.74" stop-color="#E90503"/>
<stop offset="0.82" stop-color="#D80604"/>
<stop offset="0.89" stop-color="#C10905"/>
<stop offset="0.96" stop-color="#A50B06"/>
<stop offset="1" stop-color="#8F0E08"/>
</radialGradient>
<linearGradient id="paint14_linear_63_45815" x1="28.7334" y1="17.6436" x2="67.5688" y2="80.3862" gradientUnits="userSpaceOnUse">
<stop stop-color="#E2D7D2"/>
<stop offset="0.16" stop-color="#D7CCC8"/>
<stop offset="0.45" stop-color="#BBB0AE"/>
<stop offset="0.78" stop-color="#918789"/>
<stop offset="1" stop-color="#80776D"/>
</linearGradient>
</defs>
</svg>
