<svg width="151" height="58" viewBox="0 0 151 58" fill="none" xmlns="http://www.w3.org/2000/svg">
<path d="M4.68944 26.48C4.98944 25.38 4.36943 24.04 5.23943 23.07C5.38943 22.91 5.54944 22.73 5.82944 22.64C7.02944 22.26 8.02943 24.3201 9.08943 24.0601C10.0294 23.8301 9.75943 22.0901 11.2294 21.3701C11.3994 21.2901 12.1194 20.94 12.7094 21.26C12.7394 21.28 13.2894 21.58 13.3094 22.14C13.3094 22.22 13.3094 22.5501 13.0894 22.7701C12.8694 22.9901 12.6294 22.9001 12.3994 23.0201C11.9394 23.2601 11.7494 24.21 12.0094 24.76C12.4794 25.76 14.6894 25.93 16.3294 25.35C17.7594 24.84 18.4994 23.86 19.6194 22.45C22.4494 18.91 23.8094 17.0501 25.0794 16.1901C26.2294 15.4101 29.1694 13.4301 32.8794 13.6601C35.1194 13.8001 36.8694 14.82 40.3494 16.85C44.3994 19.21 44.5694 20.1101 47.3494 21.1901C50.9894 22.6101 53.8794 22.3 53.8694 22.57C53.8594 22.87 50.2294 23.69 46.1194 22.73C43.3594 22.09 42.4494 21.1301 37.9694 20.0001C37.6894 19.9301 35.7994 19.47 33.4994 19.85C32.1094 20.08 31.4794 20.4701 31.0594 20.9701C30.9494 21.1001 30.2294 21.9701 30.4894 22.9301C30.7294 23.8401 31.7294 24.4301 32.5994 24.5001C34.4294 24.6601 35.4894 22.51 36.2694 22.89C37.0494 23.26 36.0994 25.38 37.1494 27.1C37.8794 28.3 39.2694 28.7901 40.2294 29.0001C39.2794 29.2201 37.8894 29.7001 37.1494 30.9001C36.0994 32.6201 37.0494 34.74 36.2694 35.11C35.4794 35.49 34.4194 33.3401 32.5994 33.5001C31.7294 33.5801 30.7294 34.17 30.4894 35.07C30.2294 36.03 30.9494 36.9001 31.0594 37.0301C31.4694 37.5301 32.1094 37.9201 33.4994 38.1501C35.7994 38.5301 37.6794 38.0701 37.9694 38.0001C42.4494 36.8701 43.3594 35.9101 46.1194 35.2701C50.2194 34.3201 53.8594 35.1401 53.8694 35.4401C53.8694 35.7101 50.9994 35.4 47.3494 36.82C44.5794 37.9 44.4094 38.8001 40.3494 41.1601C36.8594 43.1901 35.1194 44.21 32.8794 44.35C29.1694 44.58 26.2294 42.6 25.0794 41.82C23.7994 40.96 22.4494 39.1001 19.6194 35.5601C18.4994 34.1601 17.7594 33.1701 16.3294 32.6601C14.6894 32.0801 12.4794 32.2501 12.0094 33.2501C11.7494 33.8001 11.9394 34.7501 12.3994 34.9901C12.6294 35.1101 12.8594 35.0201 13.0894 35.2401C13.3194 35.4601 13.3094 35.7901 13.3094 35.8701C13.2794 36.4301 12.7394 36.7301 12.7094 36.7501C12.1094 37.0701 11.3994 36.72 11.2294 36.64C9.74943 35.92 10.0294 34.18 9.08943 33.95C8.02943 33.69 7.02944 35.7601 5.82944 35.3701C5.54944 35.2801 5.38943 35.1001 5.23943 34.9401C4.36943 33.9701 4.98944 32.6401 4.68944 31.5301C4.46944 30.7101 3.65943 29.7501 1.16943 29.0001C3.65943 28.2601 4.45944 27.2901 4.68944 26.4701V26.48Z" fill="url(#paint0_linear_2_13789)" stroke="black" stroke-linecap="round" stroke-linejoin="round"/>
<path d="M146.99 26.48C146.69 25.38 147.31 24.04 146.44 23.07C146.29 22.91 146.13 22.73 145.85 22.64C144.65 22.26 143.65 24.3201 142.59 24.0601C141.65 23.8301 141.92 22.0901 140.45 21.3701C140.28 21.2901 139.56 20.94 138.97 21.26C138.94 21.28 138.39 21.58 138.37 22.14C138.37 22.22 138.37 22.5501 138.59 22.7701C138.81 22.9901 139.05 22.9001 139.28 23.0201C139.74 23.2601 139.93 24.21 139.67 24.76C139.2 25.76 136.99 25.93 135.35 25.35C133.92 24.84 133.18 23.86 132.06 22.45C129.23 18.91 127.87 17.0501 126.6 16.1901C125.45 15.4101 122.51 13.4301 118.8 13.6601C116.56 13.8001 114.81 14.82 111.33 16.85C107.28 19.21 107.11 20.1101 104.33 21.1901C100.69 22.6101 97.7996 22.3 97.8096 22.57C97.8196 22.87 101.45 23.69 105.56 22.73C108.32 22.09 109.23 21.1301 113.71 20.0001C113.99 19.9301 115.88 19.47 118.18 19.85C119.57 20.08 120.2 20.4701 120.62 20.9701C120.73 21.1001 121.45 21.9701 121.19 22.9301C120.95 23.8401 119.95 24.4301 119.08 24.5001C117.25 24.6601 116.19 22.51 115.41 22.89C114.63 23.26 115.58 25.38 114.53 27.1C113.8 28.3 112.41 28.7901 111.45 29.0001C112.4 29.2201 113.79 29.7001 114.53 30.9001C115.58 32.6201 114.63 34.74 115.41 35.11C116.2 35.49 117.26 33.3401 119.08 33.5001C119.95 33.5801 120.95 34.17 121.19 35.07C121.45 36.03 120.73 36.9001 120.62 37.0301C120.21 37.5301 119.57 37.9201 118.18 38.1501C115.88 38.5301 114 38.0701 113.71 38.0001C109.23 36.8701 108.32 35.9101 105.56 35.2701C101.46 34.3201 97.8196 35.1401 97.8096 35.4401C97.8096 35.7101 100.68 35.4 104.33 36.82C107.1 37.9 107.27 38.8001 111.33 41.1601C114.82 43.1901 116.56 44.21 118.8 44.35C122.51 44.58 125.45 42.6 126.6 41.82C127.88 40.96 129.23 39.1001 132.06 35.5601C133.18 34.1601 133.92 33.1701 135.35 32.6601C136.99 32.0801 139.2 32.2501 139.67 33.2501C139.93 33.8001 139.74 34.7501 139.28 34.9901C139.05 35.1101 138.82 35.0201 138.59 35.2401C138.36 35.4601 138.37 35.7901 138.37 35.8701C138.4 36.4301 138.94 36.7301 138.97 36.7501C139.57 37.0701 140.28 36.72 140.45 36.64C141.93 35.92 141.65 34.18 142.59 33.95C143.65 33.69 144.65 35.7601 145.85 35.3701C146.13 35.2801 146.29 35.1001 146.44 34.9401C147.31 33.9701 146.69 32.6401 146.99 31.5301C147.21 30.7101 148.02 29.7501 150.51 29.0001C148.02 28.2601 147.22 27.2901 146.99 26.4701V26.48Z" fill="url(#paint1_linear_2_13789)" stroke="black" stroke-linecap="round" stroke-linejoin="round"/>
<path d="M135.82 48.47C135.61 49.23 136.04 50.14 135.44 50.81C135.34 50.92 135.23 51.05 135.04 51.11C134.22 51.37 133.53 49.96 132.8 50.13C132.15 50.29 132.34 51.48 131.33 51.98C131.21 52.04 130.72 52.28 130.31 52.06C130.29 52.05 129.91 51.84 129.9 51.46C129.9 51.41 129.9 51.18 130.05 51.03C130.2 50.88 130.36 50.94 130.52 50.86C130.84 50.7 130.97 50.04 130.79 49.67C130.47 48.98 128.95 48.87 127.82 49.27C126.84 49.62 126.33 50.29 125.56 51.26C123.62 53.69 122.69 54.96 121.81 55.56C121.02 56.09 119.01 57.45 116.46 57.29C114.92 57.19 113.72 56.5 111.33 55.1C108.55 53.48 108.43 52.86 106.53 52.12C104.03 51.15 102.05 51.36 102.06 51.18C102.06 50.97 104.56 50.41 107.38 51.07C109.27 51.51 109.9 52.17 112.97 52.94C113.17 52.99 114.46 53.3 116.04 53.04C116.99 52.88 117.43 52.62 117.71 52.27C117.78 52.18 118.28 51.59 118.1 50.93C117.93 50.31 117.25 49.9 116.65 49.85C115.39 49.74 114.67 51.21 114.13 50.96C113.6 50.7 114.25 49.25 113.53 48.07C113.03 47.24 112.07 46.91 111.42 46.76H138.24C136.53 47.27 135.98 47.93 135.83 48.49L135.82 48.47Z" fill="url(#paint2_linear_2_13789)" stroke="black" stroke-linecap="round" stroke-linejoin="round"/>
<path d="M15.8492 48.47C16.0592 49.23 15.6292 50.14 16.2292 50.81C16.3292 50.92 16.4392 51.05 16.6292 51.11C17.4492 51.37 18.1392 49.96 18.8692 50.13C19.5192 50.29 19.3292 51.48 20.3392 51.98C20.4592 52.04 20.9492 52.28 21.3592 52.06C21.3792 52.05 21.7592 51.84 21.7692 51.46C21.7692 51.41 21.7692 51.18 21.6192 51.03C21.4692 50.88 21.3092 50.94 21.1492 50.86C20.8292 50.7 20.6992 50.04 20.8792 49.67C21.1992 48.98 22.7192 48.87 23.8492 49.27C24.8292 49.62 25.3392 50.29 26.1092 51.26C28.0492 53.69 28.9792 54.96 29.8592 55.56C30.6492 56.09 32.6592 57.45 35.2092 57.29C36.7492 57.19 37.9492 56.5 40.3392 55.1C43.1192 53.48 43.2392 52.86 45.1392 52.12C47.6392 51.15 49.6192 51.36 49.6092 51.18C49.6092 50.97 47.1092 50.41 44.2892 51.07C42.3992 51.51 41.7692 52.17 38.6992 52.94C38.4992 52.99 37.2092 53.3 35.6292 53.04C34.6792 52.88 34.2392 52.62 33.9592 52.27C33.8892 52.18 33.3892 51.59 33.5692 50.93C33.7392 50.31 34.4192 49.9 35.0192 49.85C36.2792 49.74 36.9992 51.21 37.5392 50.96C38.0692 50.7 37.4192 49.25 38.1392 48.07C38.6392 47.24 39.5992 46.91 40.2492 46.76C34.6492 46.76 29.0592 46.76 23.4592 46.76H21.5392C18.8392 46.76 16.1292 46.76 13.4292 46.76C15.1392 47.27 15.6892 47.93 15.8392 48.49L15.8492 48.47Z" fill="url(#paint3_linear_2_13789)" stroke="black" stroke-linecap="round" stroke-linejoin="round"/>
<path d="M136.54 11.28H15.1395C11.8755 11.28 9.22949 13.926 9.22949 17.19V40.83C9.22949 44.094 11.8755 46.74 15.1395 46.74H136.54C139.804 46.74 142.45 44.094 142.45 40.83V17.19C142.45 13.926 139.804 11.28 136.54 11.28Z" fill="url(#paint4_linear_2_13789)" stroke="black" stroke-miterlimit="10"/>
<path d="M135.82 9.54001C135.61 8.78001 136.04 7.87001 135.44 7.20001C135.34 7.09001 135.23 6.96002 135.04 6.90002C134.22 6.64002 133.53 8.05 132.8 7.88C132.15 7.72 132.34 6.53003 131.33 6.03003C131.21 5.97003 130.72 5.73001 130.31 5.95001C130.29 5.96001 129.91 6.17001 129.9 6.55001C129.9 6.60002 129.9 6.83001 130.05 6.98001C130.2 7.13001 130.36 7.07002 130.52 7.15002C130.84 7.31002 130.97 7.97002 130.79 8.34002C130.47 9.03002 128.95 9.14002 127.82 8.74002C126.84 8.39002 126.33 7.72003 125.56 6.75003C123.62 4.32003 122.69 3.05001 121.81 2.45001C121.02 1.92001 119.01 0.560028 116.46 0.720028C114.92 0.820028 113.72 1.51003 111.33 2.91003C108.55 4.53003 108.43 5.15001 106.53 5.89001C104.03 6.86001 102.05 6.65001 102.06 6.83001C102.06 7.04001 104.56 7.60003 107.38 6.94003C109.27 6.50003 109.9 5.84 112.97 5.07C113.17 5.02 114.46 4.71003 116.04 4.97003C116.99 5.13003 117.43 5.39002 117.71 5.74002C117.78 5.83002 118.28 6.42001 118.1 7.08001C117.93 7.70001 117.25 8.11003 116.65 8.16003C115.39 8.27003 114.67 6.80001 114.13 7.05001C113.6 7.31001 114.25 8.76003 113.53 9.94003C113.03 10.77 112.07 11.1 111.42 11.25H138.24C136.53 10.74 135.98 10.08 135.83 9.52002L135.82 9.54001Z" fill="url(#paint5_linear_2_13789)" stroke="black" stroke-linecap="round" stroke-linejoin="round"/>
<path d="M15.8492 9.54001C16.0592 8.78001 15.6292 7.87001 16.2292 7.20001C16.3292 7.09001 16.4392 6.96002 16.6292 6.90002C17.4492 6.64002 18.1392 8.05 18.8692 7.88C19.5192 7.72 19.3292 6.53003 20.3392 6.03003C20.4592 5.97003 20.9492 5.73001 21.3592 5.95001C21.3792 5.96001 21.7592 6.17001 21.7692 6.55001C21.7692 6.60002 21.7692 6.83001 21.6192 6.98001C21.4692 7.13001 21.3092 7.07002 21.1492 7.15002C20.8292 7.31002 20.6992 7.97002 20.8792 8.34002C21.1992 9.03002 22.7192 9.14002 23.8492 8.74002C24.8292 8.39002 25.3392 7.72003 26.1092 6.75003C28.0492 4.32003 28.9792 3.05001 29.8592 2.45001C30.6492 1.92001 32.6592 0.560028 35.2092 0.720028C36.7492 0.820028 37.9492 1.51003 40.3392 2.91003C43.1192 4.53003 43.2392 5.15001 45.1392 5.89001C47.6392 6.86001 49.6192 6.65001 49.6092 6.83001C49.6092 7.04001 47.1092 7.60003 44.2892 6.94003C42.3992 6.50003 41.7692 5.84 38.6992 5.07C38.4992 5.02 37.2092 4.71003 35.6292 4.97003C34.6792 5.13003 34.2392 5.39002 33.9592 5.74002C33.8892 5.83002 33.3892 6.42001 33.5692 7.08001C33.7392 7.70001 34.4192 8.11003 35.0192 8.16003C36.2792 8.27003 36.9992 6.80001 37.5392 7.05001C38.0692 7.31001 37.4192 8.76003 38.1392 9.94003C38.6392 10.77 39.5992 11.1 40.2492 11.25C34.6492 11.25 29.0592 11.25 23.4592 11.25H21.5392C18.8392 11.25 16.1292 11.25 13.4292 11.25C15.1392 10.74 15.6892 10.08 15.8392 9.52002L15.8492 9.54001Z" fill="url(#paint6_linear_2_13789)" stroke="black" stroke-linecap="round" stroke-linejoin="round"/>
<defs>
<linearGradient id="paint0_linear_2_13789" x1="27.0894" y1="55.31" x2="27.3794" y2="40.29" gradientUnits="userSpaceOnUse">
<stop offset="0.2" stop-color="#918789"/>
<stop offset="0.55" stop-color="#BBB0AE"/>
<stop offset="0.83" stop-color="#D7CCC8"/>
<stop offset="1" stop-color="#E2D7D2"/>
</linearGradient>
<linearGradient id="paint1_linear_2_13789" x1="123.56" y1="57.13" x2="123.84" y2="42.11" gradientUnits="userSpaceOnUse">
<stop offset="0.2" stop-color="#918789"/>
<stop offset="0.55" stop-color="#BBB0AE"/>
<stop offset="0.83" stop-color="#D7CCC8"/>
<stop offset="1" stop-color="#E2D7D2"/>
</linearGradient>
<linearGradient id="paint2_linear_2_13789" x1="120" y1="57.06" x2="120.28" y2="42.04" gradientUnits="userSpaceOnUse">
<stop offset="0.2" stop-color="#918789"/>
<stop offset="0.55" stop-color="#BBB0AE"/>
<stop offset="0.83" stop-color="#D7CCC8"/>
<stop offset="1" stop-color="#E2D7D2"/>
</linearGradient>
<linearGradient id="paint3_linear_2_13789" x1="31.3992" y1="55.39" x2="31.6892" y2="40.37" gradientUnits="userSpaceOnUse">
<stop offset="0.2" stop-color="#918789"/>
<stop offset="0.55" stop-color="#BBB0AE"/>
<stop offset="0.83" stop-color="#D7CCC8"/>
<stop offset="1" stop-color="#E2D7D2"/>
</linearGradient>
<linearGradient id="paint4_linear_2_13789" x1="75.8395" y1="46.73" x2="75.8395" y2="11.28" gradientUnits="userSpaceOnUse">
<stop offset="0.2" stop-color="#918789"/>
<stop offset="0.55" stop-color="#BBB0AE"/>
<stop offset="0.83" stop-color="#D7CCC8"/>
<stop offset="1" stop-color="#E2D7D2"/>
</linearGradient>
<linearGradient id="paint5_linear_2_13789" x1="119.25" y1="57.05" x2="119.53" y2="42.02" gradientUnits="userSpaceOnUse">
<stop offset="0.2" stop-color="#918789"/>
<stop offset="0.55" stop-color="#BBB0AE"/>
<stop offset="0.83" stop-color="#D7CCC8"/>
<stop offset="1" stop-color="#E2D7D2"/>
</linearGradient>
<linearGradient id="paint6_linear_2_13789" x1="30.6492" y1="55.38" x2="30.9292" y2="40.35" gradientUnits="userSpaceOnUse">
<stop offset="0.2" stop-color="#918789"/>
<stop offset="0.55" stop-color="#BBB0AE"/>
<stop offset="0.83" stop-color="#D7CCC8"/>
<stop offset="1" stop-color="#E2D7D2"/>
</linearGradient>
</defs>
</svg>
