<svg width="20" height="20" viewBox="0 0 20 20" fill="none" xmlns="http://www.w3.org/2000/svg">
<path d="M10.0005 19C14.9711 19 19.0005 14.9706 19.0005 10C19.0005 5.02944 14.9711 1 10.0005 1C5.02993 1 1.00049 5.02944 1.00049 10C1.00049 14.9706 5.02993 19 10.0005 19Z" fill="#8E7F83" stroke="black" stroke-linecap="round" stroke-linejoin="round"/>
<path d="M10.0003 16.0993C13.3687 16.0993 16.0993 13.3687 16.0993 10.0003C16.0993 6.63197 13.3687 3.90137 10.0003 3.90137C6.63197 3.90137 3.90137 6.63197 3.90137 10.0003C3.90137 13.3687 6.63197 16.0993 10.0003 16.0993Z" fill="#8E7F83" stroke="black" stroke-width="0.75" stroke-linecap="round" stroke-linejoin="round"/>
<path d="M13.1738 16.7545C15.7285 15.6473 17.5161 13.105 17.5161 10.1422C17.5161 8.83081 17.1635 7.60607 16.5512 6.54834" fill="#8E7F83"/>
<path d="M13.1738 16.7545C15.7285 15.6473 17.5161 13.105 17.5161 10.1422C17.5161 8.83081 17.1635 7.60607 16.5512 6.54834" stroke="black" stroke-linecap="round" stroke-linejoin="round"/>
<path d="M2.52246 9.86377C2.52246 9.96892 2.50391 10.0741 2.50391 10.1854C2.50391 14.1627 5.73278 17.3916 9.7101 17.3916C9.90804 17.3916 10.0998 17.3792 10.2915 17.3607" fill="#8E7F83"/>
<path d="M2.52246 9.86377C2.52246 9.96892 2.50391 10.0741 2.50391 10.1854C2.50391 14.1627 5.73278 17.3916 9.7101 17.3916C9.90804 17.3916 10.0998 17.3792 10.2915 17.3607" stroke="black" stroke-linecap="round" stroke-linejoin="round"/>
<path d="M13.0997 5.70982C12.9142 5.66652 12.6915 5.76549 12.6049 5.94487C12.5863 5.99435 12.5554 6.00673 12.5059 6.00673C12.1472 5.99436 11.7946 6.00054 11.4358 6.00054C11.3245 6.00054 11.207 6.00054 11.0956 6.0191C10.5018 6.12425 10.0564 6.43972 9.77191 6.97786C9.75335 7.0026 9.74717 7.05209 9.71624 7.05209C9.6915 7.05209 9.68531 7.0026 9.66675 6.97786C9.45026 6.55106 9.11624 6.26652 8.67088 6.09951C8.4482 6.0191 8.21315 5.99435 7.9781 6.00054C7.62552 6.00054 7.26675 6.00054 6.91418 6.00054C6.87706 6.00673 6.8585 6.00054 6.83994 5.95724C6.75953 5.8026 6.63583 5.70982 6.45026 5.70363C6.27088 5.70363 6.11005 5.8026 6.03583 5.9758C5.96779 6.13044 5.99871 6.32838 6.12243 6.45209C6.27088 6.60673 6.49974 6.63147 6.6853 6.52013C6.70386 6.50776 6.72242 6.48302 6.74716 6.51394C6.92036 6.71807 7.08118 6.92838 7.21108 7.16343C7.46469 7.62116 7.60077 8.11601 7.63789 8.64178C7.64407 8.67271 7.6317 8.68508 7.60078 8.68508C7.56366 8.67889 7.52654 8.68508 7.48943 8.68508C7.39665 8.68508 7.34098 8.73456 7.34098 8.82735C7.3348 9.03147 7.32861 9.24178 7.34717 9.45209C7.34717 9.50157 7.37809 9.5325 7.42139 9.55724C7.4585 9.56961 7.5018 9.5758 7.53892 9.5758C7.60902 9.57992 7.64407 9.61704 7.64407 9.68714C7.64407 9.68714 7.6317 9.73044 7.59458 9.73662C7.51417 9.74281 7.43377 9.76755 7.35954 9.81085C7.14304 9.92838 7.01933 10.1139 7.00696 10.3614C6.99459 10.6212 7.09975 10.8253 7.32243 10.9676C7.4647 11.0542 7.62552 11.0789 7.78634 11.0665C7.82346 11.0665 7.84819 11.0789 7.86675 11.1098C7.94716 11.2768 8.04614 11.4253 8.16985 11.5552C8.19459 11.5882 8.18634 11.6109 8.1451 11.6232C7.79871 11.7222 7.44614 11.815 7.09975 11.9139C6.87088 11.9758 6.6482 12.0438 6.41933 12.1057C6.33892 12.1304 6.29562 12.1737 6.29562 12.248C6.29562 12.3222 6.34511 12.3717 6.4317 12.3902C6.4317 12.3902 6.43788 12.3902 6.44407 12.3964C6.86469 12.4768 7.02551 12.5016 7.02551 12.5016C7.30386 12.5387 7.56984 12.6129 7.84819 12.6562C7.85438 12.6562 7.86676 12.6624 7.87294 12.6686C7.87913 12.681 7.87294 12.6933 7.86675 12.7119C7.82345 12.8294 7.77397 12.9469 7.73067 13.0706C7.65644 13.2748 7.57603 13.4789 7.5018 13.683C7.47706 13.7511 7.49562 13.8005 7.53892 13.8377C7.57603 13.85 7.61933 13.8624 7.65644 13.881C7.66263 13.881 7.66263 13.881 7.66882 13.881C7.74304 13.8624 7.81108 13.8315 7.88531 13.8005C8.26263 13.6459 8.63995 13.4975 9.01108 13.349C9.02964 13.3366 9.04201 13.3366 9.05438 13.3428C9.07294 13.349 9.08531 13.3676 9.08531 13.3737C9.22139 13.6459 9.3884 13.8995 9.5183 14.1717C9.53685 14.2026 9.56778 14.2583 9.62345 14.283C9.70386 14.3201 9.8152 14.2954 9.86469 14.2273C9.88324 14.2088 9.88943 14.1902 9.88943 14.184C9.9884 13.8933 10.2915 13.4913 10.3534 13.3799C10.3719 13.3428 10.3905 13.3366 10.4338 13.349C10.8544 13.5222 11.2812 13.6954 11.708 13.8624C11.7698 13.8933 11.8379 13.9119 11.8997 13.8562C11.9554 13.8067 11.9678 13.7696 11.9369 13.6892C11.8812 13.5222 11.8131 13.3552 11.7513 13.182C11.6956 13.0273 11.6338 12.8727 11.5781 12.7181C11.5595 12.681 11.5657 12.6624 11.609 12.6562C11.7389 12.6377 11.8626 12.5944 11.9925 12.5882C12.0544 12.582 11.9925 12.582 12.4008 12.5139C12.6358 12.4706 12.7534 12.4459 12.7595 12.4459C12.8523 12.4335 12.9451 12.415 13.0379 12.3902C13.0936 12.3779 13.1369 12.3407 13.143 12.2727C13.1492 12.2109 13.1183 12.1552 13.0564 12.1304C13.0379 12.1181 13.0193 12.1119 13.0008 12.1057C12.8956 12.0748 12.7966 12.05 12.6977 12.0191C12.2276 11.883 11.7575 11.7531 11.2936 11.617C11.2523 11.6047 11.2461 11.582 11.275 11.549C11.3925 11.4129 11.4915 11.2645 11.5781 11.1036C11.5905 11.0727 11.6152 11.0603 11.6461 11.0603C11.7265 11.0603 11.807 11.0603 11.8874 11.0418C12.1286 10.9737 12.2956 10.8191 12.3637 10.5779C12.4379 10.3366 12.3822 10.1139 12.2028 9.92838C12.1101 9.82941 11.9925 9.76755 11.8564 9.74281C11.8317 9.73662 11.807 9.74281 11.8008 9.7057C11.7822 9.60054 11.7946 9.58199 11.8997 9.5758C11.9121 9.5758 11.9307 9.58199 11.943 9.5758C12.0296 9.56343 12.0853 9.52631 12.0915 9.45827C12.1101 9.24178 12.11 9.02528 12.0977 8.80879C12.0915 8.73456 12.0358 8.68508 11.9554 8.68508C11.9183 8.67889 11.8812 8.68508 11.8379 8.68508C11.8131 8.68508 11.7946 8.67271 11.8008 8.64178C11.8255 8.38817 11.8564 8.13456 11.9307 7.88095C12.0791 7.37374 12.3327 6.92219 12.6791 6.5325C12.7101 6.50157 12.7224 6.49539 12.7595 6.52013C12.908 6.61291 13.0688 6.6191 13.2173 6.52632C13.3657 6.4459 13.4461 6.316 13.44 6.14281C13.4338 5.93868 13.2977 5.7593 13.0997 5.70982ZM6.45026 6.30363C6.36366 6.30363 6.28943 6.22322 6.28943 6.14281C6.29561 6.06858 6.37603 5.98817 6.44407 5.98817C6.51829 5.98817 6.59871 6.06858 6.59871 6.14899C6.59871 6.22322 6.52449 6.30363 6.45026 6.30363ZM7.01315 6.37786C7.01315 6.37786 6.95747 6.32838 6.96985 6.30363C6.97603 6.27889 7.01933 6.29745 7.05026 6.29745C7.41521 6.29126 7.78015 6.28508 8.1451 6.29745C8.88737 6.32219 9.44407 6.87271 9.55541 7.54693C9.55541 7.59642 9.56778 7.65209 9.56778 7.70157V8.62322C9.56778 8.66652 9.5616 8.68508 9.51211 8.68508C9.25232 8.67889 8.99871 8.68508 8.7451 8.68508H7.98428C7.94098 8.68508 7.92861 8.67271 7.92861 8.62941C7.87913 7.7758 7.56985 7.02116 7.01315 6.37786ZM7.675 10.7634C7.5451 10.7572 7.41521 10.6645 7.35954 10.5222C7.27913 10.3366 7.38428 10.1078 7.57603 10.0459C7.62551 10.0273 7.63789 10.0335 7.63789 10.083V10.2005C7.63789 10.3737 7.66881 10.5469 7.71211 10.7139C7.72448 10.7511 7.71211 10.7634 7.675 10.7634ZM12.3018 12.2047C12.3018 12.2047 12.3018 12.2109 12.3266 12.217C12.2338 12.248 12.1534 12.2603 12.0668 12.2727L11.343 12.4026C11.2317 12.4273 11.1884 12.5016 11.2317 12.6191C11.2936 12.7985 11.3616 12.9779 11.4296 13.1572C11.4668 13.2438 11.4977 13.3304 11.5286 13.417C11.5286 13.4356 11.5534 13.4542 11.541 13.4665C11.5224 13.4789 11.5039 13.4665 11.4915 13.4603C11.1884 13.3366 10.8915 13.2191 10.5946 13.0954C10.5265 13.0706 10.4585 13.0397 10.3843 13.015C10.2915 12.9779 10.2358 12.9964 10.1802 13.0892C10.1059 13.2129 10.0317 13.3428 9.96366 13.4727C9.88943 13.5964 9.8214 13.7201 9.74717 13.8438C9.72243 13.8933 9.71624 13.8933 9.68531 13.8438C9.54923 13.6026 9.41314 13.3552 9.27706 13.1139C9.20902 12.9902 9.15954 12.9779 9.02346 13.0273C8.6647 13.1758 8.29975 13.3243 7.94098 13.4665C7.92861 13.4727 7.91624 13.4851 7.91005 13.4727C7.8915 13.4603 7.90387 13.4418 7.91005 13.4232C7.98428 13.2315 8.0585 13.0335 8.12654 12.8418C8.15747 12.7614 8.19459 12.6871 8.21933 12.6067C8.25026 12.5016 8.20696 12.4212 8.08943 12.4026C7.91624 12.3717 7.73685 12.3407 7.55747 12.3036C7.42758 12.2851 7.30386 12.2603 7.18015 12.2356C7.1616 12.2356 7.13686 12.2356 7.12448 12.2109C7.1616 12.1985 7.19252 12.1923 7.22964 12.1799C7.6317 12.0686 8.03376 11.9511 8.43582 11.8335C8.46056 11.8273 8.47912 11.8335 8.50386 11.8521C8.81933 12.081 9.1719 12.217 9.55541 12.2418C9.99458 12.2789 10.409 12.1799 10.7863 11.9511C10.842 11.9201 10.8915 11.883 10.941 11.8521C10.9657 11.8335 10.9843 11.8273 11.009 11.8335C11.442 11.9572 11.8688 12.081 12.3018 12.2047ZM11.5101 10.2438C11.4791 10.8129 11.2317 11.2706 10.774 11.617C10.4523 11.8521 10.0874 11.9634 9.69149 11.9572C8.85644 11.9387 8.20696 11.3758 8.00283 10.6768C7.95335 10.4913 7.92861 10.3057 7.92861 10.1139C7.92861 9.95931 7.9348 9.79848 7.92861 9.64384C7.92861 9.59436 7.94098 9.5758 7.99665 9.5758C8.57191 9.58199 9.14717 9.5758 9.72861 9.5758C10.3101 9.5758 10.8729 9.58199 11.4482 9.5758C11.4977 9.5758 11.5101 9.59436 11.5101 9.64384C11.5101 9.84178 11.5162 10.0397 11.5101 10.2438ZM11.8688 10.0459C12.0173 10.1016 12.1162 10.25 12.1101 10.3985C12.1039 10.5469 11.9987 10.6954 11.8564 10.7449C11.8317 10.7572 11.807 10.7634 11.7822 10.7572C11.7204 10.7634 11.7204 10.7572 11.7327 10.7016C11.7822 10.5036 11.8131 10.2995 11.8008 10.0892C11.7946 10.0212 11.8008 10.0212 11.8688 10.0459ZM11.807 9.02528C11.807 9.09332 11.807 9.16137 11.8131 9.22941C11.8131 9.26652 11.8008 9.27889 11.7637 9.27889C11.6338 9.27271 11.4977 9.27889 11.3616 9.27889H7.70593C7.65644 9.27889 7.63171 9.25415 7.63171 9.20467C7.63171 9.14281 7.63789 9.08095 7.63171 9.02528C7.63171 8.98817 7.64407 8.96961 7.68118 8.9758H11.7575C11.7946 8.9758 11.807 8.98817 11.807 9.02528ZM12.4564 6.34075C12.0235 6.82941 11.7327 7.39848 11.5905 8.03559C11.5472 8.23353 11.5224 8.43766 11.5101 8.63559C11.5101 8.68508 11.4853 8.68508 11.4544 8.68508H9.92655C9.88325 8.68508 9.87088 8.67271 9.87088 8.62941C9.87088 8.31394 9.87088 8.00467 9.87088 7.69539C9.88325 7.39229 9.9884 7.12013 10.174 6.87889C10.3843 6.60054 10.6688 6.41497 11.0152 6.33456C11.1327 6.30982 11.2503 6.29126 11.3678 6.29126H12.4317C12.4317 6.29126 12.475 6.28508 12.4812 6.30363C12.4874 6.32219 12.4688 6.32837 12.4564 6.34075ZM12.9946 6.30363C12.9204 6.30363 12.8461 6.22322 12.8461 6.14899C12.8461 6.06858 12.9204 5.98817 13.0008 5.98817C13.0688 5.98817 13.1492 6.07477 13.1492 6.14281C13.1492 6.22322 13.075 6.29745 12.9946 6.30363Z" fill="black"/>
<path d="M11.3431 12.4029C11.2317 12.4277 11.1884 12.5019 11.2317 12.6194C11.2936 12.7988 11.3616 12.9782 11.4297 13.1576C11.4668 13.2442 11.4977 13.3308 11.5286 13.4174C11.5286 13.4359 11.5534 13.4545 11.541 13.4669C11.5225 13.4792 11.5039 13.4669 11.4915 13.4607C11.1884 13.337 10.8915 13.2194 10.5946 13.0957C10.5266 13.071 10.4585 13.04 10.3843 13.0153C10.2915 12.9782 10.2359 12.9967 10.1802 13.0895C10.106 13.2132 10.0317 13.3431 9.96369 13.473C9.88946 13.5968 9.82142 13.7205 9.7472 13.8442C9.72245 13.8937 9.71626 13.8937 9.68534 13.8442C9.54925 13.6029 9.41317 13.3555 9.27709 13.1143C9.20905 12.9906 9.15957 12.9782 9.02349 13.0277C8.66472 13.1761 8.29977 13.3246 7.94101 13.4669C7.92864 13.473 7.91627 13.4854 7.91008 13.473C7.89152 13.4607 7.9039 13.4421 7.91008 13.4236C7.98431 13.2318 8.05853 13.0339 8.12657 12.8421C8.1575 12.7617 8.19462 12.6875 8.21936 12.6071C8.25029 12.5019 8.20698 12.4215 8.08946 12.4029C7.91626 12.372 7.73688 12.3411 7.5575 12.304C7.4276 12.2854 7.30389 12.2607 7.18018 12.2359C7.16162 12.2359 7.13688 12.2359 7.12451 12.2112C7.16163 12.1988 7.19255 12.1926 7.22967 12.1803C7.63173 12.0689 8.03379 11.9514 8.43585 11.8339C8.46059 11.8277 8.47915 11.8339 8.50389 11.8524C8.81936 12.0813 9.17193 12.2174 9.55544 12.2421C9.99461 12.2792 10.409 12.1803 10.7864 11.9514C10.842 11.9205 10.8915 11.8833 10.941 11.8524C10.9657 11.8339 10.9843 11.8277 11.009 11.8339C11.442 11.9576 11.8688 12.0813 12.3018 12.205C12.3018 12.205 12.3018 12.2112 12.3266 12.2174C12.2338 12.2483 12.1534 12.2607 12.0668 12.273L11.3431 12.4029Z" fill="#B9AEAD"/>
<path d="M7.71233 10.7143C7.7247 10.7514 7.71233 10.7638 7.67522 10.7638C7.54532 10.7576 7.41543 10.6648 7.35976 10.5225C7.27935 10.337 7.3845 10.1081 7.57625 10.0462C7.62573 10.0277 7.63811 10.0339 7.63811 10.0834V10.2009C7.63811 10.3741 7.66903 10.5473 7.71233 10.7143Z" fill="#B9AEAD"/>
<path d="M12.1099 10.3989C12.1037 10.5474 11.9985 10.6958 11.8562 10.7453C11.8315 10.7577 11.8068 10.7639 11.782 10.7577C11.7202 10.7639 11.7202 10.7577 11.7325 10.702C11.782 10.5041 11.813 10.3 11.8006 10.0897C11.7944 10.0216 11.8006 10.0216 11.8686 10.0464C12.0171 10.102 12.116 10.2505 12.1099 10.3989Z" fill="#B9AEAD"/>
<path d="M11.5102 9.64372C11.5102 9.84166 11.5163 10.0396 11.5102 10.2437C11.4792 10.8128 11.2318 11.2705 10.7741 11.6169C10.4524 11.852 10.0875 11.9633 9.69159 11.9571C8.85654 11.9386 8.20706 11.3757 8.00293 10.6767C7.95345 10.4911 7.92871 10.3056 7.92871 10.1138C7.92871 9.95919 7.9349 9.79836 7.92871 9.64372C7.92871 9.59424 7.94108 9.57568 7.99675 9.57568C8.57201 9.58187 9.14727 9.57568 9.72871 9.57568C10.3102 9.57568 10.873 9.58187 11.4483 9.57568C11.4978 9.57568 11.5102 9.59424 11.5102 9.64372Z" fill="#B9AEAD"/>
<path d="M11.8133 9.22988C11.8133 9.26699 11.8009 9.27936 11.7638 9.27936C11.6339 9.27318 11.4978 9.27936 11.3617 9.27936H7.70606C7.65658 9.27936 7.63184 9.25462 7.63184 9.20514C7.63184 9.14328 7.63802 9.08142 7.63184 9.02575C7.63184 8.98864 7.6442 8.97008 7.68131 8.97627H11.7576C11.7947 8.97627 11.8071 8.98864 11.8071 9.02575C11.8071 9.09379 11.8071 9.16184 11.8133 9.22988Z" fill="#B9AEAD"/>
<path d="M13.1493 6.14292C13.1493 6.22333 13.0751 6.29756 12.9946 6.30375C12.9204 6.30375 12.8462 6.22333 12.8462 6.14911C12.8462 6.06869 12.9204 5.98828 13.0008 5.98828C13.0689 5.98828 13.1493 6.07488 13.1493 6.14292Z" fill="#B9AEAD"/>
<path d="M12.4814 6.30389C12.4814 6.30389 12.469 6.32863 12.4567 6.341C12.0237 6.82966 11.7329 7.39873 11.5907 8.03585C11.5474 8.23379 11.5226 8.43791 11.5103 8.63585C11.5103 8.68533 11.4855 8.68533 11.4546 8.68533H9.92676C9.88346 8.68533 9.87109 8.67296 9.87109 8.62966C9.87109 8.3142 9.87109 8.00492 9.87109 7.69564C9.88346 7.39255 9.98861 7.12038 10.1742 6.87915C10.3845 6.6008 10.669 6.41523 11.0154 6.33482C11.1329 6.31007 11.2505 6.29152 11.368 6.29152H12.4319C12.4319 6.29152 12.4752 6.28533 12.4814 6.30389Z" fill="#B9AEAD"/>
<path d="M9.5677 7.70179V8.62344C9.5677 8.66674 9.56151 8.6853 9.51203 8.6853C9.25223 8.67911 8.99862 8.6853 8.74501 8.6853H7.98419C7.94089 8.6853 7.92852 8.67293 7.92852 8.62963C7.87904 7.77602 7.56976 7.02138 7.01306 6.37808C6.99451 6.35334 6.95739 6.3286 6.96976 6.30386C6.97594 6.27911 7.01925 6.29767 7.05017 6.29767C7.41512 6.29148 7.78006 6.2853 8.14501 6.29767C8.88728 6.32241 9.44398 6.87293 9.55532 7.54716C9.55532 7.59664 9.5677 7.65231 9.5677 7.70179Z" fill="#B9AEAD"/>
<path d="M6.59883 6.14911C6.59883 6.22333 6.52461 6.30375 6.45038 6.30375C6.36378 6.30375 6.28955 6.22333 6.28955 6.14292C6.29574 6.06869 6.37615 5.98828 6.44419 5.98828C6.51842 5.98828 6.59883 6.06869 6.59883 6.14911Z" fill="#B9AEAD"/>
</svg>
