<svg width="22" height="22" viewBox="0 0 22 22" fill="none" xmlns="http://www.w3.org/2000/svg">
<path d="M11.0005 21C16.5233 21 21.0005 16.5229 21.0005 11C21.0005 5.47715 16.5233 1 11.0005 1C5.47764 1 1.00049 5.47715 1.00049 11C1.00049 16.5229 5.47764 21 11.0005 21Z" fill="#8E7F83" stroke="black" stroke-width="0.824742" stroke-linecap="round" stroke-linejoin="round"/>
<path d="M11.0005 18.8213C15.3201 18.8213 18.8218 15.3196 18.8218 11C18.8218 6.68044 15.3201 3.17871 11.0005 3.17871C6.68092 3.17871 3.1792 6.68044 3.1792 11C3.1792 15.3196 6.68092 18.8213 11.0005 18.8213Z" stroke="black" stroke-width="0.618557" stroke-linecap="round" stroke-linejoin="round"/>
<path d="M11.0007 6.56006L12.4371 9.48102L15.6604 9.94837L13.3305 12.2233L13.8804 15.4329L11.0007 13.9209L8.11405 15.4329L8.66388 12.2233L6.33398 9.94837L9.55735 9.48102L11.0007 6.56006Z" fill="#B9AEAD" stroke="black" stroke-width="0.824742" stroke-linecap="round" stroke-linejoin="round"/>
<path d="M3.729 16.189C4.32007 16.9519 6.20323 19.158 9.351 19.7216C10.4575 19.9209 11.4335 19.866 12.1826 19.7491" stroke="black" stroke-width="0.618557" stroke-linecap="round" stroke-linejoin="round"/>
<path d="M13.5918 2.58057C14.0866 2.71802 14.6915 2.94482 15.3444 3.30221C16.2791 3.81767 16.9458 4.42936 17.3856 4.89672" stroke="black" stroke-width="0.618557" stroke-linecap="round" stroke-linejoin="round"/>
</svg>
