<svg width="49" height="48" viewBox="0 0 49 48" fill="none" xmlns="http://www.w3.org/2000/svg">
<path d="M36.7676 1.0049C27.5072 0.788225 25.372 7.81913 24.8817 11.1992C24.3914 7.81913 22.2561 0.788225 12.9956 1.0049C0.826352 1.2974 -0.796946 14.8609 3.46285 21.7185C7.71175 28.5761 9.91241 30.7645 14.1722 35.1412C18.1814 39.258 22.9642 43.9055 24.7292 46.7439C24.7292 46.7439 24.8272 47.0797 24.8708 46.9822C24.9253 47.0689 25.0124 46.7439 25.0124 46.7439C26.7774 43.9055 31.5709 39.2688 35.5693 35.1412C39.8182 30.7645 42.019 28.5761 46.2787 21.7185C50.5276 14.8609 48.9152 1.2974 36.746 1.0049H36.7676Z" fill="url(#paint0_linear_1031_2544)" stroke="black" stroke-linecap="round" stroke-linejoin="round"/>
<path d="M34.447 2.96581C26.9951 2.79247 25.2847 8.44757 24.8925 11.1668C24.5003 8.44757 22.7789 2.79247 15.3379 2.96581C5.54366 3.20415 4.24716 14.1135 7.66807 19.6277C11.089 25.142 12.8648 26.897 16.2857 30.4178C19.5106 33.7329 23.3563 37.4597 24.7835 39.7455C24.7835 39.7455 24.8598 40.0164 24.9034 39.9405C24.947 40.0164 25.0233 39.7455 25.0233 39.7455C26.4504 37.4597 30.2962 33.7329 33.521 30.4178C36.9419 26.897 38.7177 25.142 42.1387 19.6277C45.5596 14.1135 44.2631 3.20415 34.4688 2.96581H34.447Z" fill="url(#paint1_linear_1031_2544)" stroke="black" stroke-linecap="round" stroke-linejoin="round"/>
<path d="M18.0002 16.4167H20.7502C20.9933 16.4167 21.2264 16.3201 21.3983 16.1482C21.5703 15.9763 21.6668 15.7431 21.6668 15.5V14.5833C21.6668 14.0971 21.86 13.6308 22.2038 13.287C22.5476 12.9432 23.0139 12.75 23.5002 12.75C23.9864 12.75 24.4527 12.9432 24.7965 13.287C25.1403 13.6308 25.3335 14.0971 25.3335 14.5833V15.5C25.3335 15.7431 25.4301 15.9763 25.602 16.1482C25.7739 16.3201 26.007 16.4167 26.2502 16.4167H29.0002C29.2433 16.4167 29.4764 16.5132 29.6483 16.6852C29.8203 16.8571 29.9168 17.0902 29.9168 17.3333V20.0833C29.9168 20.3264 30.0134 20.5596 30.1853 20.7315C30.3572 20.9034 30.5904 21 30.8335 21H31.7502C32.2364 21 32.7027 21.1932 33.0465 21.537C33.3903 21.8808 33.5835 22.3471 33.5835 22.8333C33.5835 23.3196 33.3903 23.7859 33.0465 24.1297C32.7027 24.4735 32.2364 24.6667 31.7502 24.6667H30.8335C30.5904 24.6667 30.3572 24.7632 30.1853 24.9352C30.0134 25.1071 29.9168 25.3402 29.9168 25.5833V28.3333C29.9168 28.5764 29.8203 28.8096 29.6483 28.9815C29.4764 29.1534 29.2433 29.25 29.0002 29.25H26.2502C26.007 29.25 25.7739 29.1534 25.602 28.9815C25.4301 28.8096 25.3335 28.5764 25.3335 28.3333V27.4167C25.3335 26.9304 25.1403 26.4641 24.7965 26.1203C24.4527 25.7765 23.9864 25.5833 23.5002 25.5833C23.0139 25.5833 22.5476 25.7765 22.2038 26.1203C21.86 26.4641 21.6668 26.9304 21.6668 27.4167V28.3333C21.6668 28.5764 21.5703 28.8096 21.3983 28.9815C21.2264 29.1534 20.9933 29.25 20.7502 29.25H18.0002C17.757 29.25 17.5239 29.1534 17.352 28.9815C17.1801 28.8096 17.0835 28.5764 17.0835 28.3333V25.5833C17.0835 25.3402 17.1801 25.1071 17.352 24.9352C17.5239 24.7632 17.757 24.6667 18.0002 24.6667H18.9168C19.4031 24.6667 19.8694 24.4735 20.2132 24.1297C20.557 23.7859 20.7502 23.3196 20.7502 22.8333C20.7502 22.3471 20.557 21.8808 20.2132 21.537C19.8694 21.1932 19.4031 21 18.9168 21H18.0002C17.757 21 17.5239 20.9034 17.352 20.7315C17.1801 20.5596 17.0835 20.3264 17.0835 20.0833V17.3333C17.0835 17.0902 17.1801 16.8571 17.352 16.6852C17.5239 16.5132 17.757 16.4167 18.0002 16.4167Z" stroke="black" stroke-width="0.916667" stroke-linecap="round" stroke-linejoin="round"/>
<defs>
<linearGradient id="paint0_linear_1031_2544" x1="25.5245" y1="62.1275" x2="24.9104" y2="14.8392" gradientUnits="userSpaceOnUse">
<stop offset="0.49" stop-color="#E2D7D2"/>
<stop offset="1" stop-color="#918789"/>
</linearGradient>
<linearGradient id="paint1_linear_1031_2544" x1="25.1213" y1="-3.71846" x2="24.518" y2="39.8865" gradientUnits="userSpaceOnUse">
<stop offset="0.46" stop-color="#E2D7D2"/>
<stop offset="0.76" stop-color="#B2A8A7"/>
<stop offset="1" stop-color="#918789"/>
</linearGradient>
</defs>
</svg>
