<svg width="393" height="127" viewBox="0 0 393 127" fill="none" xmlns="http://www.w3.org/2000/svg">
<path d="M393.99 0.760742H1V121.076H393.99V0.760742Z" fill="url(#paint0_linear_205_21940)" stroke="black" stroke-linecap="round" stroke-linejoin="round"/>
<path d="M394 7.73675C291.86 7.73675 189.73 7.73675 87.5903 7.73675H82.1064C80.4622 7.73675 78.818 7.73675 77.1839 7.73675H1V0H393.99V7.73675H394Z" fill="url(#paint1_linear_205_21940)" stroke="black" stroke-linecap="round" stroke-linejoin="round"/>
<path d="M394 125.999C291.86 125.999 189.73 125.999 87.5903 125.999H82.1064C80.4622 125.999 78.818 125.999 77.1839 125.999H1V118.263H393.99V125.999H394Z" fill="url(#paint2_linear_205_21940)" stroke="black" stroke-linecap="round" stroke-linejoin="round"/>
<path opacity="0.32" d="M1 33.229C2.0226 30.4566 3.77707 26.6132 6.83485 22.6998C17.522 9.02788 34.8161 6.43562 43.2074 5.29462C70.6773 1.57137 79.9609 13.5118 104.594 7.56661C112.995 5.53483 119.471 2.32203 123.542 0C82.6979 0.0300262 41.8439 0.0600526 1 0.0900788V33.219V33.229Z" fill="#270D1D"/>
<path opacity="0.32" d="M1 125.56C62.9376 116.192 136.304 109.676 218.654 111.197C281.444 112.348 338.469 117.973 388.626 125.56H1Z" fill="#270D1D"/>
<defs>
<linearGradient id="paint0_linear_205_21940" x1="197.5" y1="142.324" x2="197.5" y2="30.4767" gradientUnits="userSpaceOnUse">
<stop stop-color="#80776D"/>
<stop offset="0.22" stop-color="#918789"/>
<stop offset="0.55" stop-color="#BBB0AE"/>
<stop offset="0.84" stop-color="#D7CCC8"/>
<stop offset="1" stop-color="#E2D7D2"/>
</linearGradient>
<linearGradient id="paint1_linear_205_21940" x1="6.66441" y1="3.87338" x2="393.068" y2="3.87338" gradientUnits="userSpaceOnUse">
<stop stop-color="#918789"/>
<stop offset="0.21" stop-color="#BBB0AE"/>
<stop offset="0.39" stop-color="#D7CCC8"/>
<stop offset="0.49" stop-color="#E2D7D2"/>
<stop offset="1" stop-color="#918789"/>
</linearGradient>
<linearGradient id="paint2_linear_205_21940" x1="-27.0915" y1="122.126" x2="-26.0889" y2="122.126" gradientUnits="userSpaceOnUse">
<stop stop-color="#918789"/>
<stop offset="0.21" stop-color="#BBB0AE"/>
<stop offset="0.39" stop-color="#D7CCC8"/>
<stop offset="0.49" stop-color="#E2D7D2"/>
<stop offset="1" stop-color="#918789"/>
</linearGradient>
</defs>
</svg>
