<svg width="269" height="542" viewBox="0 0 269 542" fill="none" xmlns="http://www.w3.org/2000/svg">
<path d="M239.546 55.1254V55.1143H29.5437V55.1254H29.5337V92.3712H29.5437L39.3782 98.9558V492.215L29.5437 498.8V536.881H239.546V498.8L229.711 492.215V98.9558L239.546 92.3712V55.1254Z" fill="url(#paint0_linear_92_61050)" stroke="black" stroke-linecap="round" stroke-linejoin="round"/>
<path d="M239.546 499.624H29.5337V536.87H239.546V499.624Z" fill="url(#paint1_linear_92_61050)"/>
<mask id="mask0_92_61050" style="mask-type:luminance" maskUnits="userSpaceOnUse" x="29" y="499" width="211" height="38">
<path d="M239.546 499.624H29.5337V536.87H239.546V499.624Z" fill="white"/>
</mask>
<g mask="url(#mask0_92_61050)">
<path d="M220.536 541.94H48.5527C50.4916 537.394 56.7481 525.963 78.7258 515.668C100.184 505.618 124.55 502.298 134.544 501.195C144.339 502.22 169.155 505.451 190.833 515.668C212.76 525.996 218.737 537.483 220.536 541.94Z" fill="url(#paint2_linear_92_61050)"/>
</g>
<path d="M239.546 499.624H29.5337V536.87H239.546V499.624Z" stroke="black" stroke-linecap="round" stroke-linejoin="round"/>
<path d="M220.537 158.718H48.5532C50.4921 149.326 56.7486 125.673 78.7263 104.37C100.184 83.5692 124.551 76.7172 134.545 74.4443C144.339 76.5724 169.155 83.2461 190.833 104.37C212.761 125.74 218.738 149.504 220.537 158.718Z" fill="url(#paint3_linear_92_61050)"/>
<path d="M220.537 158.718H48.5532V499.635H220.537V158.718Z" fill="url(#paint4_linear_92_61050)"/>
<path d="M185.347 109.551C165.788 90.4771 143.38 84.4607 134.545 82.5332C125.52 84.5832 103.523 90.7779 84.1634 109.551C64.3345 128.77 58.6777 150.117 56.9287 158.596V490.444H212.152V158.596C210.532 150.284 205.135 128.837 185.347 109.551Z" fill="url(#paint5_linear_92_61050)" stroke="black" stroke-linecap="round" stroke-linejoin="round"/>
<path d="M135.694 74.1545C138.773 73.954 143.46 73.5418 149.127 72.5725C158.462 70.9681 166.037 69.6645 175.362 66.077C181.549 63.6927 186.616 61.0188 193.302 62.7011C194.052 62.8905 195.621 63.3362 197.789 64.4503C207.744 69.5865 216.779 82.0204 220.557 87.58" stroke="black" stroke-linecap="round" stroke-linejoin="round"/>
<path d="M109.259 33.065C109.599 30.0122 109.809 25.1545 108.539 19.4501C107.4 14.3028 105.501 10.4144 104.052 7.95215C105.901 8.65406 108.849 10.0579 111.777 12.899C114.316 15.3612 115.875 17.9683 116.765 19.7732C114.256 24.2075 111.757 28.6418 109.249 33.0761L109.259 33.065Z" fill="url(#paint6_linear_92_61050)"/>
<mask id="mask1_92_61050" style="mask-type:luminance" maskUnits="userSpaceOnUse" x="104" y="7" width="13" height="27">
<path d="M109.259 33.065C109.599 30.0122 109.809 25.1545 108.539 19.4501C107.4 14.3028 105.501 10.4144 104.052 7.95215C105.901 8.65406 108.849 10.0579 111.777 12.899C114.316 15.3612 115.875 17.9683 116.765 19.7732C114.256 24.2075 111.757 28.6418 109.249 33.0761L109.259 33.065Z" fill="white"/>
</mask>
<g mask="url(#mask1_92_61050)">
<path opacity="0.43" d="M113.417 24.6084C113.167 23.1934 112.777 21.6448 112.188 20.007C110.149 14.3471 106.741 10.715 104.502 8.7207C106.291 16.2635 108.09 23.8173 109.879 31.3601C111.058 29.1095 112.238 26.8478 113.417 24.5973V24.6084Z" fill="#270D1D"/>
</g>
<path d="M109.259 33.065C109.599 30.0122 109.809 25.1545 108.539 19.4501C107.4 14.3028 105.501 10.4144 104.052 7.95215C105.901 8.65406 108.849 10.0579 111.777 12.899C114.316 15.3612 115.875 17.9683 116.765 19.7732C114.256 24.2075 111.757 28.6418 109.249 33.0761L109.259 33.065Z" stroke="black" stroke-linecap="round" stroke-linejoin="round"/>
<path d="M159.721 33.065C159.381 30.0122 159.171 25.1545 160.44 19.4501C161.58 14.3028 163.479 10.4144 164.928 7.95215C163.079 8.65406 160.13 10.0579 157.202 12.899C154.663 15.3612 153.104 17.9683 152.215 19.7732C154.723 24.2075 157.222 28.6418 159.731 33.0761L159.721 33.065Z" fill="url(#paint7_linear_92_61050)"/>
<mask id="mask2_92_61050" style="mask-type:luminance" maskUnits="userSpaceOnUse" x="152" y="7" width="13" height="27">
<path d="M159.721 33.065C159.381 30.0122 159.171 25.1545 160.44 19.4501C161.58 14.3028 163.479 10.4144 164.928 7.95215C163.079 8.65406 160.13 10.0579 157.202 12.899C154.663 15.3612 153.104 17.9683 152.215 19.7732C154.723 24.2075 157.222 28.6418 159.731 33.0761L159.721 33.065Z" fill="white"/>
</mask>
<g mask="url(#mask2_92_61050)">
<path opacity="0.43" d="M155.563 24.6084C155.813 23.1934 156.203 21.6448 156.792 20.007C158.831 14.3471 162.239 10.715 164.478 8.7207C162.689 16.2635 160.89 23.8173 159.101 31.3601C157.922 29.1095 156.742 26.8478 155.563 24.5973V24.6084Z" fill="#270D1D"/>
</g>
<path d="M159.721 33.065C159.381 30.0122 159.171 25.1545 160.44 19.4501C161.58 14.3028 163.479 10.4144 164.928 7.95215C163.079 8.65406 160.13 10.0579 157.202 12.899C154.663 15.3612 153.104 17.9683 152.215 19.7732C154.723 24.2075 157.222 28.6418 159.731 33.0761L159.721 33.065Z" stroke="black" stroke-linecap="round" stroke-linejoin="round"/>
<path d="M108.12 40.7975C108.44 37.8561 121.132 38.3575 134.545 39.7279V73.3082C131.027 73.1411 127.519 72.5729 124.6 71.6927C117.494 69.5647 107.45 47.059 108.12 40.7863V40.7975Z" fill="url(#paint8_linear_92_61050)" stroke="black" stroke-linecap="round" stroke-linejoin="round"/>
<path d="M160.86 40.7975C160.54 37.8561 147.847 38.3575 134.435 39.7279V73.3082C137.953 73.1411 141.461 72.5729 144.379 71.6927C151.485 69.5647 161.529 47.059 160.86 40.7863V40.7975Z" fill="url(#paint9_linear_92_61050)" stroke="black" stroke-linecap="round" stroke-linejoin="round"/>
<path d="M242.544 79.7254C235.988 80.0931 231.96 84.7948 222.136 83.6584C217.668 83.1459 213.021 81.6418 208.233 78.823C195.6 71.3471 210.042 49.2982 210.042 49.2982C205.195 48.4291 199.388 47.8386 192.832 48.1172C180.739 48.6297 170.874 51.8941 164.078 54.88C161.949 58.2336 153.754 70.4 142.56 71.3694C139.642 71.6256 139.162 70.8903 139.082 70.6786C138.093 67.9489 155.183 57.8325 160.19 43.928C165.367 29.5444 141.711 7.37291 134.545 1.08913V1C134.545 1 134.505 1.03343 134.495 1.04458C134.475 1.03343 134.455 1.01114 134.445 1V1.08913C127.279 7.37291 103.622 29.5444 108.799 43.928C113.806 57.8214 130.897 67.9489 129.907 70.6786C129.827 70.9014 129.358 71.6256 126.429 71.3694C115.236 70.4 107.04 58.2336 104.911 54.88C98.1052 51.8941 88.2507 48.6408 76.1575 48.1172C69.6112 47.8386 63.7945 48.418 58.9472 49.2982C58.9472 49.2982 73.3791 71.3471 60.7562 78.823C55.9789 81.6418 51.3215 83.1459 46.854 83.6584C37.0295 84.7948 33.0018 80.0931 26.4455 79.7254C20.4788 79.3912 11.9236 82.1766 1.00977 96.4599C2.60887 97.8414 4.54778 99.2564 6.85649 100.46C15.3717 104.916 23.6171 103.88 27.6548 103.011C26.6154 106.989 25.456 113.439 26.4555 121.194C28.3344 135.811 36.5798 144.869 39.3882 147.688V126.876C39.3083 124.269 39.678 122.107 40.1378 120.436C43.246 109.139 54.7696 105.005 56.5186 104.415C58.5374 99.6241 62.2654 92.3375 68.8716 85.519C71.0804 83.2461 73.9388 78.3885 79.1259 77.2075C85.7721 75.7034 102.173 74.9123 115.735 74.5224C123.991 74.2773 131.187 74.1658 134.505 74.1324C137.823 74.1658 145.019 74.2661 153.274 74.5224C166.837 74.9123 183.237 75.7034 189.884 77.2075C195.071 78.3773 197.929 83.235 200.138 85.519C206.744 92.3375 210.472 99.6129 212.491 104.415C214.25 105.017 225.763 109.139 228.872 120.436C229.331 122.107 229.701 124.269 229.621 126.876V147.688C232.42 144.858 240.665 135.811 242.554 121.194C243.553 113.439 242.394 106.989 241.355 103.011C245.392 103.869 253.628 104.916 262.153 100.46C264.452 99.2564 266.401 97.8526 268 96.4599C257.086 82.1766 248.541 79.3912 242.564 79.7254H242.544Z" fill="url(#paint10_linear_92_61050)"/>
<mask id="mask3_92_61050" style="mask-type:luminance" maskUnits="userSpaceOnUse" x="1" y="1" width="267" height="147">
<path d="M242.544 79.7254C235.988 80.0931 231.96 84.7948 222.136 83.6584C217.668 83.1459 213.021 81.6418 208.233 78.823C195.6 71.3471 210.042 49.2982 210.042 49.2982C205.195 48.4291 199.388 47.8386 192.832 48.1172C180.739 48.6297 170.874 51.8941 164.078 54.88C161.949 58.2336 153.754 70.4 142.56 71.3694C139.642 71.6256 139.162 70.8903 139.082 70.6786C138.093 67.9489 155.183 57.8325 160.19 43.928C165.367 29.5444 141.711 7.37291 134.545 1.08913V1C134.545 1 134.505 1.03343 134.495 1.04458C134.475 1.03343 134.455 1.01114 134.445 1V1.08913C127.279 7.37291 103.622 29.5444 108.799 43.928C113.806 57.8214 130.897 67.9489 129.907 70.6786C129.827 70.9014 129.358 71.6256 126.429 71.3694C115.236 70.4 107.04 58.2336 104.911 54.88C98.1052 51.8941 88.2507 48.6408 76.1575 48.1172C69.6112 47.8386 63.7945 48.418 58.9472 49.2982C58.9472 49.2982 73.3791 71.3471 60.7562 78.823C55.9789 81.6418 51.3215 83.1459 46.854 83.6584C37.0295 84.7948 33.0018 80.0931 26.4455 79.7254C20.4788 79.3912 11.9236 82.1766 1.00977 96.4599C2.60887 97.8414 4.54778 99.2564 6.85649 100.46C15.3717 104.916 23.6171 103.88 27.6548 103.011C26.6154 106.989 25.456 113.439 26.4555 121.194C28.3344 135.811 36.5798 144.869 39.3882 147.688V126.876C39.3083 124.269 39.678 122.107 40.1378 120.436C43.246 109.139 54.7696 105.005 56.5186 104.415C58.5374 99.6241 62.2654 92.3375 68.8716 85.519C71.0804 83.2461 73.9388 78.3885 79.1259 77.2075C85.7721 75.7034 102.173 74.9123 115.735 74.5224C123.991 74.2773 131.187 74.1658 134.505 74.1324C137.823 74.1658 145.019 74.2661 153.274 74.5224C166.837 74.9123 183.237 75.7034 189.884 77.2075C195.071 78.3773 197.929 83.235 200.138 85.519C206.744 92.3375 210.472 99.6129 212.491 104.415C214.25 105.017 225.763 109.139 228.872 120.436C229.331 122.107 229.701 124.269 229.621 126.876V147.688C232.42 144.858 240.665 135.811 242.554 121.194C243.553 113.439 242.394 106.989 241.355 103.011C245.392 103.869 253.628 104.916 262.153 100.46C264.452 99.2564 266.401 97.8526 268 96.4599C257.086 82.1766 248.541 79.3912 242.564 79.7254H242.544Z" fill="white"/>
</mask>
<g mask="url(#mask3_92_61050)">
<path d="M134.435 17.1997C129.208 20.9543 123.571 25.4778 117.805 30.9371C114.396 34.1569 111.298 37.3657 108.49 40.4853C108.11 37.5439 105.132 11.4841 120.363 -2.43155C122.492 -4.37017 127.999 -9.4061 135.335 -9.18327C148.197 -8.79332 157.612 7.46205 160.561 19.8736C162.599 28.4414 161.72 35.9061 160.9 40.2179C156.523 36.5746 152.095 32.8088 147.638 28.9205C143.12 24.9875 138.723 21.0769 134.435 17.1885V17.1997Z" fill="url(#paint11_linear_92_61050)"/>
<path d="M230.221 85.9302C235.258 84.0139 241.385 82.443 248.381 82.1979C249.75 82.1533 251.08 82.1533 252.359 82.209C250.25 81.0169 245.443 78.6994 239.136 79.2008C234.189 79.5908 230.501 81.5405 228.512 82.7995C229.082 83.8468 229.652 84.8941 230.221 85.9302Z" fill="url(#paint12_linear_92_61050)"/>
<path d="M160.69 60.6628C165.247 58.0445 170.794 55.3483 177.301 53.12C186.585 49.9558 194.931 48.7526 201.497 48.3737C194.281 48.0952 185.456 48.5966 175.672 51.0365C171.834 51.9947 168.286 53.1423 165.057 54.3678C163.608 56.4624 162.149 58.557 160.7 60.6516L160.69 60.6628Z" fill="url(#paint13_linear_92_61050)"/>
<path d="M108.09 60.5397C103.532 57.9215 97.9855 55.2252 91.4791 52.9969C82.1943 49.8328 73.849 48.6295 67.2827 48.2507C74.4987 47.9722 83.3237 48.4735 93.1082 50.9135C96.9461 51.8717 100.494 53.0192 103.722 54.2448C105.171 56.3394 106.631 58.434 108.08 60.5286L108.09 60.5397Z" fill="url(#paint14_linear_92_61050)"/>
<path d="M38.7987 85.9302C33.7615 84.0139 27.635 82.443 20.6389 82.1979C19.2697 82.1533 17.9404 82.1533 16.6611 82.209C18.7699 81.0169 23.5773 78.6994 29.8837 79.2008C34.8309 79.5908 38.5189 81.5405 40.5077 82.7995C39.9381 83.8468 39.3684 84.8941 38.7987 85.9302Z" fill="url(#paint15_linear_92_61050)"/>
</g>
<path d="M242.544 79.7254C235.988 80.0931 231.96 84.7948 222.136 83.6584C217.668 83.1459 213.021 81.6418 208.233 78.823C195.6 71.3471 210.042 49.2982 210.042 49.2982C205.195 48.4291 199.388 47.8386 192.832 48.1172C180.739 48.6297 170.874 51.8941 164.078 54.88C161.949 58.2336 153.754 70.4 142.56 71.3694C139.642 71.6256 139.162 70.8903 139.082 70.6786C138.093 67.9489 155.183 57.8325 160.19 43.928C165.367 29.5444 141.711 7.37291 134.545 1.08913V1C134.545 1 134.505 1.03343 134.495 1.04458C134.475 1.03343 134.455 1.01114 134.445 1V1.08913C127.279 7.37291 103.622 29.5444 108.799 43.928C113.806 57.8214 130.897 67.9489 129.907 70.6786C129.827 70.9014 129.358 71.6256 126.429 71.3694C115.236 70.4 107.04 58.2336 104.911 54.88C98.1052 51.8941 88.2507 48.6408 76.1575 48.1172C69.6112 47.8386 63.7945 48.418 58.9472 49.2982C58.9472 49.2982 73.3791 71.3471 60.7562 78.823C55.9789 81.6418 51.3215 83.1459 46.854 83.6584C37.0295 84.7948 33.0018 80.0931 26.4455 79.7254C20.4788 79.3912 11.9236 82.1766 1.00977 96.4599C2.60887 97.8414 4.54778 99.2564 6.85649 100.46C15.3717 104.916 23.6171 103.88 27.6548 103.011C26.6154 106.989 25.456 113.439 26.4555 121.194C28.3344 135.811 36.5798 144.869 39.3882 147.688V126.876C39.3083 124.269 39.678 122.107 40.1378 120.436C43.246 109.139 54.7696 105.005 56.5186 104.415C58.5374 99.6241 62.2654 92.3375 68.8716 85.519C71.0804 83.2461 73.9388 78.3885 79.1259 77.2075C85.7721 75.7034 102.173 74.9123 115.735 74.5224C123.991 74.2773 131.187 74.1658 134.505 74.1324C137.823 74.1658 145.019 74.2661 153.274 74.5224C166.837 74.9123 183.237 75.7034 189.884 77.2075C195.071 78.3773 197.929 83.235 200.138 85.519C206.744 92.3375 210.472 99.6129 212.491 104.415C214.25 105.017 225.763 109.139 228.872 120.436C229.331 122.107 229.701 124.269 229.621 126.876V147.688C232.42 144.858 240.665 135.811 242.554 121.194C243.553 113.439 242.394 106.989 241.355 103.011C245.392 103.869 253.628 104.916 262.153 100.46C264.452 99.2564 266.401 97.8526 268 96.4599C257.086 82.1766 248.541 79.3912 242.564 79.7254H242.544Z" stroke="black" stroke-linecap="round" stroke-linejoin="round"/>
<path d="M1 96.4601C7.32645 88.9842 43.4462 94.4992 43.4462 94.4992C43.4462 94.4992 41.1474 96.059 38.0192 97.9085C33.7816 100.404 30.9132 102.02 27.645 103.011C18.3502 105.819 9.99494 101.986 7.94609 101.006C4.87782 99.5463 2.55912 97.786 1.00999 96.4601H1Z" fill="url(#paint16_linear_92_61050)"/>
<mask id="mask4_92_61050" style="mask-type:luminance" maskUnits="userSpaceOnUse" x="1" y="92" width="43" height="13">
<path d="M1 96.4601C7.32645 88.9842 43.4462 94.4992 43.4462 94.4992C43.4462 94.4992 41.1474 96.059 38.0192 97.9085C33.7816 100.404 30.9132 102.02 27.645 103.011C18.3502 105.819 9.99494 101.986 7.94609 101.006C4.87782 99.5463 2.55912 97.786 1.00999 96.4601H1Z" fill="white"/>
</mask>
<g mask="url(#mask4_92_61050)">
<path opacity="0.43" d="M27.6051 85.1295C27.6851 85.0403 29.3641 86.6224 35.9205 93.4744C31.9627 95.5801 27.845 97.6636 23.5574 99.7136C20.8889 100.995 18.2504 102.209 15.6519 103.368C18.1704 103.947 22.9178 104.649 28.5746 103.034C35.041 101.184 39.2686 97.2736 41.1675 95.2682C39.7383 93.7307 38.3091 92.2043 36.8899 90.6668C35.8505 90.6333 33.8616 90.4105 31.7028 89.1404C29.1043 87.614 27.5052 85.2409 27.5951 85.1406L27.6051 85.1295Z" fill="#270D1D"/>
</g>
<path d="M1 96.4601C7.32645 88.9842 43.4462 94.4992 43.4462 94.4992C43.4462 94.4992 41.1474 96.059 38.0192 97.9085C33.7816 100.404 30.9132 102.02 27.645 103.011C18.3502 105.819 9.99494 101.986 7.94609 101.006C4.87782 99.5463 2.55912 97.786 1.00999 96.4601H1Z" stroke="black" stroke-linecap="round" stroke-linejoin="round"/>
<path d="M58.9375 49.3096C58.9375 49.3096 78.9363 54.1784 82.0845 55.6602C85.2327 57.142 75.4382 55.4151 65.5538 65.175C65.5538 65.175 63.2351 54.7912 58.9375 49.3096Z" fill="url(#paint17_linear_92_61050)" stroke="black" stroke-linecap="round" stroke-linejoin="round"/>
<path d="M61.266 86.132C65.8034 89.207 59.2571 92.594 55.5092 91.5913C51.7613 90.5885 48.0234 86.132 48.0234 86.132C48.0234 86.132 54.2399 81.3746 61.256 86.132H61.266Z" fill="white" stroke="black" stroke-linecap="round" stroke-linejoin="round"/>
<path d="M90.1196 77.1512C98.9347 75.2237 105.971 74.934 115.715 74.5329C123.441 74.2098 129.907 74.2878 134.545 74.4438C130.757 73.5302 124.86 71.9927 117.764 69.653C96.3761 62.6116 90.1396 56.8849 82.0842 55.6593C72.4196 54.1887 57.6179 58.7901 36.2599 88.5155C36.2599 88.5155 40.5975 92.5041 45.7746 92.2256C45.7746 92.2256 38.1588 96.0359 29.9235 101.763C18.8197 109.495 10.7542 115.678 10.3545 122.82C9.84475 131.867 21.878 142.217 39.3781 147.699V126.887C37.4992 126.508 30.703 124.993 30.4332 121.884C30.3632 121.115 30.723 120.48 30.9629 120.079C35.2805 113.06 44.8851 109.339 54.9094 106.297C62.5152 103.958 70.3807 102.03 76.3474 99.3004C90.1096 93.0054 90.1296 77.2737 90.1296 77.1623C83.0636 79.5354 75.9976 81.9086 68.9315 84.2817C77.4468 80.3822 84.7926 78.321 90.1296 77.1623L90.1196 77.1512Z" fill="url(#paint18_linear_92_61050)"/>
<mask id="mask5_92_61050" style="mask-type:luminance" maskUnits="userSpaceOnUse" x="10" y="55" width="125" height="93">
<path d="M90.1196 77.1512C98.9347 75.2237 105.971 74.934 115.715 74.5329C123.441 74.2098 129.907 74.2878 134.545 74.4438C130.757 73.5302 124.86 71.9927 117.764 69.653C96.3761 62.6116 90.1396 56.8849 82.0842 55.6593C72.4196 54.1887 57.6179 58.7901 36.2599 88.5155C36.2599 88.5155 40.5975 92.5041 45.7746 92.2256C45.7746 92.2256 38.1588 96.0359 29.9235 101.763C18.8197 109.495 10.7542 115.678 10.3545 122.82C9.84475 131.867 21.878 142.217 39.3781 147.699V126.887C37.4992 126.508 30.703 124.993 30.4332 121.884C30.3632 121.115 30.723 120.48 30.9629 120.079C35.2805 113.06 44.8851 109.339 54.9094 106.297C62.5152 103.958 70.3807 102.03 76.3474 99.3004C90.1096 93.0054 90.1296 77.2737 90.1296 77.1623C83.0636 79.5354 75.9976 81.9086 68.9315 84.2817C77.4468 80.3822 84.7926 78.321 90.1296 77.1623L90.1196 77.1512Z" fill="white"/>
</mask>
<g mask="url(#mask5_92_61050)">
<path d="M114.156 69.2961C110.268 66.8339 104.661 63.692 97.585 61.1183C87.5706 57.4639 74.9777 52.7288 62.7146 57.1185C43.3754 64.0485 36.1895 87.3007 35.25 90.5206C37.8685 86.3314 49.6619 68.5051 72.1093 62.9232C93.2674 57.6645 109.868 66.7559 114.156 69.2961Z" fill="url(#paint19_linear_92_61050)"/>
<path opacity="0.43" d="M91.5787 77.5961C74.9481 83.178 58.3074 88.7598 41.6768 94.3417C44.1654 94.0966 48.1032 93.7735 52.9904 93.6621C61.1258 93.4726 62.4451 94.0966 66.4329 93.1718C72.8492 91.69 77.7265 88.1582 78.8959 87.278C81.0646 85.6514 82.3739 84.2698 86.6315 81.0945C88.7003 79.557 90.4294 78.3649 91.5787 77.585V77.5961Z" fill="#270D1D"/>
<path opacity="0.43" d="M29.8333 121.415C27.4947 123.576 26.6851 125.693 26.3553 127.041C24.7762 133.581 29.7234 142.294 39.1181 147.753C39.1181 140.812 39.1181 133.882 39.1181 126.941C38.0787 126.908 36.0898 126.685 33.931 125.415C31.7323 124.111 30.433 122.362 29.8233 121.415H29.8333Z" fill="#270D1D"/>
<path d="M33.0017 100.324C28.0345 103.466 22.1678 108.057 17.5304 114.329C15.8913 116.546 14.7519 118.496 13.9424 120.958C12.3233 125.849 12.803 130.351 13.2628 132.846C12.6831 132.156 11.8935 131.108 11.144 129.716C7.98574 123.811 8.69534 117.493 9.01516 115.711C10.4543 107.6 20.2688 99.9456 33.0117 100.336L33.0017 100.324Z" fill="url(#paint20_linear_92_61050)"/>
</g>
<path d="M90.1296 77.1623C90.1296 77.2737 90.1096 93.0054 76.3474 99.3004C70.3807 102.03 62.5152 103.958 54.9094 106.297C44.8851 109.339 35.2805 113.06 30.9629 120.079C30.723 120.48 30.3632 121.115 30.4332 121.884C30.703 124.993 37.4992 126.508 39.3781 126.887V147.699C21.878 142.217 9.84475 131.867 10.3545 122.82C10.7542 115.678 18.8197 109.495 29.9235 101.763C38.1588 96.0359 45.7746 92.2256 45.7746 92.2256C40.5975 92.5041 36.2599 88.5155 36.2599 88.5155C57.6179 58.7901 72.4196 54.1887 82.0842 55.6593C90.1396 56.8849 96.3761 62.6116 117.764 69.653C124.86 71.9927 130.757 73.5302 134.545 74.4438C129.907 74.2878 123.441 74.2098 115.715 74.5329C105.971 74.934 98.9347 75.2237 90.1196 77.1512L90.1296 77.1623ZM90.1296 77.1623C83.0636 79.5355 75.9976 81.9086 68.9315 84.2817C77.4468 80.3822 84.7926 78.321 90.1296 77.1623Z" stroke="black" stroke-linecap="round" stroke-linejoin="round"/>
<path d="M65.8735 86.9338C70.7108 84.505 76.2677 82.1207 82.5342 80.1041C94.1776 76.3495 104.682 75.0236 113.117 74.7005C110.568 74.422 106.391 73.954 101.234 73.3301C85.1427 71.3692 82.0544 70.6116 78.0267 72.3274C75.1283 73.553 70.0112 76.7951 65.8835 86.945L65.8735 86.9338Z" fill="url(#paint21_linear_92_61050)" stroke="black" stroke-linecap="round" stroke-linejoin="round"/>
<path d="M45.7644 92.2156C45.7644 92.2156 58.0975 90.8786 65.8731 86.9346C65.8731 86.9346 52.0309 87.8705 45.7644 87.4582C39.4979 87.046 36.2598 88.5055 36.2598 88.5055C36.2598 88.5055 41.3569 92.8618 45.7644 92.2156Z" fill="url(#paint22_linear_92_61050)" stroke="black" stroke-linecap="round" stroke-linejoin="round"/>
<path d="M267.97 96.4601C261.644 88.9842 225.524 94.4992 225.524 94.4992C225.524 94.4992 227.823 96.059 230.951 97.9085C235.188 100.404 238.057 102.02 241.325 103.011C250.62 105.819 258.975 101.986 261.024 101.006C264.092 99.5463 266.411 97.786 267.96 96.4601H267.97Z" fill="url(#paint23_linear_92_61050)"/>
<mask id="mask6_92_61050" style="mask-type:luminance" maskUnits="userSpaceOnUse" x="225" y="92" width="43" height="13">
<path d="M267.97 96.4601C261.644 88.9842 225.524 94.4992 225.524 94.4992C225.524 94.4992 227.823 96.059 230.951 97.9085C235.188 100.404 238.057 102.02 241.325 103.011C250.62 105.819 258.975 101.986 261.024 101.006C264.092 99.5463 266.411 97.786 267.96 96.4601H267.97Z" fill="white"/>
</mask>
<g mask="url(#mask6_92_61050)">
<path opacity="0.43" d="M242.305 85.1187C242.225 85.0296 240.546 86.6117 233.989 93.4637C237.947 95.5694 242.065 97.6529 246.352 99.7029C249.021 100.984 251.659 102.199 254.258 103.357C251.739 103.937 246.992 104.639 241.335 103.023C234.869 101.174 230.641 97.2629 228.742 95.2575C230.171 93.7199 231.601 92.1936 233.02 90.656C234.059 90.6226 236.048 90.3998 238.207 89.1297C240.805 87.6033 242.404 85.2302 242.315 85.1299L242.305 85.1187Z" fill="#270D1D"/>
</g>
<path d="M267.97 96.4601C261.644 88.9842 225.524 94.4992 225.524 94.4992C225.524 94.4992 227.823 96.059 230.951 97.9085C235.188 100.404 238.057 102.02 241.325 103.011C250.62 105.819 258.975 101.986 261.024 101.006C264.092 99.5463 266.411 97.786 267.96 96.4601H267.97Z" stroke="black" stroke-linecap="round" stroke-linejoin="round"/>
<path d="M210.043 49.3096C210.043 49.3096 190.044 54.1784 186.896 55.6602C183.748 57.142 193.542 55.4151 203.426 65.175C203.426 65.175 205.745 54.7912 210.043 49.3096Z" fill="url(#paint24_linear_92_61050)" stroke="black" stroke-linecap="round" stroke-linejoin="round"/>
<path d="M134.505 17.244V17.166C134.505 17.166 134.455 17.1883 134.435 17.1994C134.415 17.1994 134.385 17.1772 134.365 17.166V17.244C128.089 20.3413 121.962 31.2599 122.742 39.6494C123.431 47.1031 129.868 53.2754 134.365 55.9716V56.0608C134.365 56.0608 134.415 56.0274 134.435 56.0162C134.455 56.0274 134.485 56.0496 134.505 56.0608V55.9716C139.012 53.2754 145.439 47.1031 146.128 39.6494C146.908 31.2711 140.781 20.3413 134.505 17.244Z" fill="url(#paint25_radial_92_61050)" stroke="black" stroke-linecap="round" stroke-linejoin="round"/>
<path d="M207.714 86.132C203.177 89.207 209.723 92.594 213.471 91.5913C217.219 90.5885 220.957 86.132 220.957 86.132C220.957 86.132 214.74 81.3746 207.724 86.132H207.714Z" fill="white" stroke="black" stroke-linecap="round" stroke-linejoin="round"/>
<path d="M178.86 77.1512C170.045 75.2237 163.009 74.934 153.264 74.5329C145.538 74.2098 139.072 74.2878 134.435 74.4438C138.222 73.5302 144.119 71.9927 151.215 69.653C172.603 62.6116 178.84 56.8849 186.895 55.6593C196.56 54.1887 211.361 58.7901 232.719 88.5155C232.719 88.5155 228.382 92.5041 223.205 92.2256C223.205 92.2256 230.82 96.0359 239.056 101.763C250.16 109.495 258.225 115.678 258.625 122.82C259.135 131.867 247.101 142.217 229.601 147.699V126.887C231.48 126.508 238.276 124.993 238.546 121.884C238.616 121.115 238.256 120.48 238.016 120.079C233.699 113.06 224.094 109.339 214.07 106.297C206.464 103.958 198.599 102.03 192.632 99.3004C178.87 93.0054 178.85 77.2737 178.85 77.1623C185.916 79.5354 192.982 81.9086 200.048 84.2817C191.532 80.3822 184.187 78.321 178.85 77.1623L178.86 77.1512Z" fill="url(#paint26_linear_92_61050)"/>
<mask id="mask7_92_61050" style="mask-type:luminance" maskUnits="userSpaceOnUse" x="134" y="55" width="125" height="93">
<path d="M178.86 77.1512C170.045 75.2237 163.009 74.934 153.264 74.5329C145.538 74.2098 139.072 74.2878 134.435 74.4438C138.222 73.5302 144.119 71.9927 151.215 69.653C172.603 62.6116 178.84 56.8849 186.895 55.6593C196.56 54.1887 211.361 58.7901 232.719 88.5155C232.719 88.5155 228.382 92.5041 223.205 92.2256C223.205 92.2256 230.82 96.0359 239.056 101.763C250.16 109.495 258.225 115.678 258.625 122.82C259.135 131.867 247.101 142.217 229.601 147.699V126.887C231.48 126.508 238.276 124.993 238.546 121.884C238.616 121.115 238.256 120.48 238.016 120.079C233.699 113.06 224.094 109.339 214.07 106.297C206.464 103.958 198.599 102.03 192.632 99.3004C178.87 93.0054 178.85 77.2737 178.85 77.1623C185.916 79.5354 192.982 81.9086 200.048 84.2817C191.532 80.3822 184.187 78.321 178.85 77.1623L178.86 77.1512Z" fill="white"/>
</mask>
<g mask="url(#mask7_92_61050)">
<path d="M154.573 69.2297C158.461 66.7675 164.068 63.6256 171.144 61.0519C181.158 57.3975 193.751 52.6624 206.014 57.0521C225.353 63.9821 232.539 87.2343 233.479 90.4542C230.86 86.265 219.067 68.4387 196.62 62.8568C175.461 57.5981 158.861 66.6895 154.573 69.2297Z" fill="url(#paint27_linear_92_61050)"/>
<path d="M235.528 99.4787C240.495 102.621 246.362 107.211 250.999 113.484C252.638 115.701 253.778 117.65 254.587 120.113C256.206 125.004 255.727 129.505 255.267 132.001C255.847 131.31 256.636 130.263 257.386 128.87C260.544 122.965 259.834 116.648 259.515 114.865C258.075 106.754 248.261 99.0999 235.518 99.4899L235.528 99.4787Z" fill="url(#paint28_linear_92_61050)"/>
<path opacity="0.43" d="M177.15 77.5414C193.781 83.1233 210.422 88.7051 227.052 94.287C224.564 94.0419 220.626 93.7188 215.739 93.6074C207.603 93.418 206.284 94.0419 202.296 93.1172C195.88 91.6353 191.003 88.1035 189.833 87.2233C187.664 85.5967 186.355 84.2151 182.098 81.0398C180.029 79.5023 178.3 78.3102 177.15 77.5303V77.5414Z" fill="#270D1D"/>
<path opacity="0.43" d="M238.896 121.36C241.235 123.522 242.044 125.639 242.374 126.987C243.953 133.527 239.006 142.239 229.611 147.699V126.886C230.651 126.853 232.64 126.63 234.798 125.36C236.997 124.057 238.296 122.307 238.906 121.36H238.896Z" fill="#270D1D"/>
</g>
<path d="M178.85 77.1623C178.85 77.2737 178.87 93.0054 192.632 99.3004C198.599 102.03 206.464 103.958 214.07 106.297C224.094 109.339 233.699 113.06 238.016 120.079C238.256 120.48 238.616 121.115 238.546 121.884C238.276 124.993 231.48 126.508 229.601 126.887V147.699C247.101 142.217 259.135 131.867 258.625 122.82C258.225 115.678 250.16 109.495 239.056 101.763C230.82 96.0359 223.205 92.2256 223.205 92.2256C228.382 92.5041 232.719 88.5155 232.719 88.5155C211.361 58.7901 196.56 54.1887 186.895 55.6593C178.84 56.8849 172.603 62.6116 151.215 69.653C144.119 71.9927 138.222 73.5302 134.435 74.4438C139.072 74.2878 145.538 74.2098 153.264 74.5329C163.009 74.934 170.045 75.2237 178.86 77.1512L178.85 77.1623ZM178.85 77.1623C185.916 79.5355 192.982 81.9086 200.048 84.2817C191.532 80.3822 184.187 78.321 178.85 77.1623Z" stroke="black" stroke-linecap="round" stroke-linejoin="round"/>
<path d="M203.107 86.9338C198.269 84.505 192.713 82.1207 186.446 80.1041C174.803 76.3495 164.299 75.0236 155.863 74.7005C158.412 74.422 162.59 73.954 167.747 73.3301C183.838 71.3692 186.926 70.6116 190.954 72.3274C193.852 73.553 198.969 76.7951 203.097 86.945L203.107 86.9338Z" fill="url(#paint29_linear_92_61050)" stroke="black" stroke-linecap="round" stroke-linejoin="round"/>
<path d="M223.215 92.2156C223.215 92.2156 210.882 90.8786 203.106 86.9346C203.106 86.9346 216.949 87.8705 223.215 87.4582C229.482 87.046 232.72 88.5055 232.72 88.5055C232.72 88.5055 227.623 92.8618 223.215 92.2156Z" fill="url(#paint30_linear_92_61050)" stroke="black" stroke-linecap="round" stroke-linejoin="round"/>
<path d="M137.953 512.727C140.991 511.189 147.178 507.468 151.356 499.691C152.845 496.928 153.744 494.254 154.304 492.004C158.322 480.862 139.992 463.682 134.435 458.813C131.377 461.476 129.018 463.872 127.399 465.599C120.573 472.907 114.117 480.005 114.197 488.929C114.207 490.266 114.366 491.347 114.476 491.993C119.923 498.9 125.38 505.808 130.827 512.716C125.79 520.76 120.753 528.815 115.716 536.859C115.516 537.628 115.386 538.675 115.826 539.567C117.385 542.686 124.051 539.778 134.165 539.544C144.839 539.288 152.285 542.163 153.664 538.954C153.984 538.196 153.864 537.383 153.724 536.859C148.457 528.815 143.2 520.76 137.933 512.716L137.953 512.727Z" fill="url(#paint31_linear_92_61050)"/>
<mask id="mask8_92_61050" style="mask-type:luminance" maskUnits="userSpaceOnUse" x="114" y="458" width="41" height="84">
<path d="M137.953 512.727C140.991 511.189 147.178 507.468 151.356 499.691C152.845 496.928 153.744 494.254 154.304 492.004C158.322 480.862 139.992 463.682 134.435 458.813C131.377 461.476 129.018 463.872 127.399 465.599C120.573 472.907 114.117 480.005 114.197 488.929C114.207 490.266 114.366 491.347 114.476 491.993C119.923 498.9 125.38 505.808 130.827 512.716C125.79 520.76 120.753 528.815 115.716 536.859C115.516 537.628 115.386 538.675 115.826 539.567C117.385 542.686 124.051 539.778 134.165 539.544C144.839 539.288 152.285 542.163 153.664 538.954C153.984 538.196 153.864 537.383 153.724 536.859C148.457 528.815 143.2 520.76 137.933 512.716L137.953 512.727Z" fill="white"/>
</mask>
<g mask="url(#mask8_92_61050)">
<path d="M134.355 471.303C130.307 474.21 125.94 477.72 121.472 481.943C118.834 484.438 116.435 486.923 114.256 489.341C113.966 487.057 111.658 466.879 123.451 456.095C125.1 454.59 129.368 450.691 135.044 450.869C145.009 451.17 152.305 463.771 154.593 473.386C156.173 480.026 155.493 485.809 154.853 489.151C151.465 486.332 148.037 483.413 144.579 480.405C141.081 477.363 137.673 474.333 134.355 471.314V471.303Z" fill="url(#paint32_linear_92_61050)"/>
<path opacity="0.43" d="M160.92 545.962H112.478V533.461C118.514 534.486 125.32 535.244 132.776 535.444C143.43 535.734 152.925 534.809 160.92 533.461V545.962Z" fill="#270D1D"/>
</g>
<path d="M137.953 512.727C140.991 511.189 147.178 507.468 151.356 499.691C152.845 496.928 153.744 494.254 154.304 492.004C158.322 480.862 139.992 463.682 134.435 458.813C131.377 461.476 129.018 463.872 127.399 465.599C120.573 472.907 114.117 480.005 114.197 488.929C114.207 490.266 114.366 491.347 114.476 491.993C119.923 498.9 125.38 505.808 130.827 512.716C125.79 520.76 120.753 528.815 115.716 536.859C115.516 537.628 115.386 538.675 115.826 539.567C117.385 542.686 124.051 539.778 134.165 539.544C144.839 539.288 152.285 542.163 153.664 538.954C153.984 538.196 153.864 537.383 153.724 536.859C148.457 528.815 143.2 520.76 137.933 512.716L137.953 512.727Z" stroke="black" stroke-linecap="round" stroke-linejoin="round"/>
<path d="M134.415 471.325V471.27C134.415 471.27 134.375 471.292 134.365 471.303C134.345 471.303 134.325 471.281 134.315 471.27V471.325C127.189 474.991 123.711 482.656 125.31 488.684C126.349 492.594 129.857 497.095 134.525 497.017C139.102 496.939 142.44 492.483 143.43 488.684C144.999 482.656 141.521 475.046 134.425 471.325H134.415Z" fill="url(#paint33_radial_92_61050)" stroke="black" stroke-linecap="round" stroke-linejoin="round"/>
<path d="M39.3786 455.805C38.9788 456.406 33.8617 464.083 29.5341 463.994C28.1749 463.96 26.7656 463.659 26.7656 463.659C24.5669 463.102 23.4475 462.044 22.3181 462.178C20.4292 462.4 24.6668 480.394 30.7534 481.118C32.6723 481.341 35.6407 480.037 38.8089 482.054C39.0587 482.221 39.2586 482.366 39.3786 482.455C39.3786 478.633 39.3786 474.812 39.3786 470.99C39.3786 465.932 39.3786 460.863 39.3786 455.805Z" fill="url(#paint34_linear_92_61050)" stroke="black" stroke-linecap="round" stroke-linejoin="round"/>
<path d="M22.1079 462.333C22.5477 461.966 22.9974 461.899 23.4472 461.832C28.7642 461.063 34.2011 469.91 36.5998 475.67C37.939 478.89 39.1084 481.686 38.009 483.313C36.4399 485.641 30.8131 484.639 27.1751 481.764C20.7687 476.706 19.1196 464.762 22.098 462.322L22.1079 462.333Z" fill="url(#paint35_linear_92_61050)"/>
<mask id="mask9_92_61050" style="mask-type:luminance" maskUnits="userSpaceOnUse" x="20" y="461" width="19" height="24">
<path d="M22.1079 462.333C22.5477 461.966 22.9974 461.899 23.4472 461.832C28.7642 461.063 34.2011 469.91 36.5998 475.67C37.939 478.89 39.1084 481.686 38.009 483.313C36.4399 485.641 30.8131 484.639 27.1751 481.764C20.7687 476.706 19.1196 464.762 22.098 462.322L22.1079 462.333Z" fill="white"/>
</mask>
<g mask="url(#mask9_92_61050)">
<path opacity="0.43" d="M31.703 465.921C31.5731 467.157 31.0734 470.645 28.5048 473.608C24.707 477.998 19.5499 477.642 18.8003 477.575C19.25 478.02 25.7764 484.36 33.3821 481.864C42.447 478.889 43.7863 466.4 43.9761 464.617C44.1261 463.258 44.7857 457.097 42.6269 455.994C39.6686 454.479 33.3621 463.492 31.6931 465.932L31.703 465.921Z" fill="#270D1D"/>
</g>
<path d="M22.1079 462.333C22.5477 461.966 22.9974 461.899 23.4472 461.832C28.7642 461.063 34.2011 469.91 36.5998 475.67C37.939 478.89 39.1084 481.686 38.009 483.313C36.4399 485.641 30.813 484.639 27.1751 481.764C20.7687 476.706 19.1196 464.762 22.098 462.322L22.1079 462.333Z" stroke="black" stroke-linecap="round" stroke-linejoin="round"/>
<path d="M28.8246 485.642C32.3427 483.892 35.8607 482.132 39.3887 480.383C39.3887 480.84 39.3887 481.296 39.4187 481.731C39.8884 490.009 45.0355 496.371 49.2532 500.326C53.131 499.513 58.9877 498.02 65.8139 495.145C72.0703 492.516 75.6883 490.176 78.2569 488.772C91.4794 481.575 114.227 478.901 125.57 491.023C126.58 492.104 132.826 498.777 132.297 507.523C131.967 513.005 129.548 516.904 128.259 518.899C126.5 521.606 124.581 523.422 123.202 524.536C123.421 522.62 123.571 519.534 122.742 515.969C122.612 515.434 120.143 505.484 111.558 500.994C108.67 499.479 105.592 498.844 101.214 498.944C91.1196 499.156 86.2924 502.989 73.7094 508.036C61.2964 513.005 54.4203 515.645 45.7351 513.907C41.9872 513.161 35.9406 511.868 31.833 506.03C26.5259 498.476 28.265 488.382 28.8246 485.653V485.642Z" fill="url(#paint36_linear_92_61050)"/>
<mask id="mask10_92_61050" style="mask-type:luminance" maskUnits="userSpaceOnUse" x="28" y="480" width="105" height="45">
<path d="M28.8246 485.642C32.3427 483.892 35.8607 482.132 39.3887 480.383C39.3887 480.84 39.3887 481.296 39.4187 481.731C39.8884 490.009 45.0355 496.371 49.2532 500.326C53.131 499.513 58.9877 498.02 65.8139 495.145C72.0703 492.516 75.6883 490.176 78.2569 488.772C91.4794 481.575 114.227 478.901 125.57 491.023C126.58 492.104 132.826 498.777 132.297 507.523C131.967 513.005 129.548 516.904 128.259 518.899C126.5 521.606 124.581 523.422 123.202 524.536C123.421 522.62 123.571 519.534 122.742 515.969C122.612 515.434 120.143 505.484 111.558 500.994C108.67 499.479 105.592 498.844 101.214 498.944C91.1196 499.156 86.2924 502.989 73.7094 508.036C61.2964 513.005 54.4203 515.645 45.7351 513.907C41.9872 513.161 35.9406 511.868 31.833 506.03C26.5259 498.476 28.265 488.382 28.8246 485.653V485.642Z" fill="white"/>
</mask>
<g mask="url(#mask10_92_61050)">
<path d="M132.336 508.592C130.517 503.957 127.019 497.072 120.433 491.724C102.303 477.006 78.7364 488.56 77.3872 489.251C82.4344 485.73 92.9385 479.625 106.301 480.661C111.648 481.073 118.644 481.619 124.551 487.646C131.957 495.211 132.316 505.996 132.336 508.581V508.592Z" fill="url(#paint37_linear_92_61050)"/>
</g>
<path d="M28.8246 485.642C32.3427 483.892 35.8607 482.132 39.3887 480.383C39.3887 480.84 39.3887 481.296 39.4187 481.731C39.8884 490.009 45.0355 496.371 49.2532 500.326C53.131 499.513 58.9877 498.02 65.8139 495.145C72.0703 492.516 75.6883 490.176 78.2569 488.772C91.4794 481.575 114.227 478.901 125.57 491.023C126.58 492.104 132.826 498.777 132.297 507.523C131.967 513.005 129.548 516.904 128.259 518.899C126.5 521.606 124.581 523.422 123.202 524.536C123.421 522.62 123.571 519.534 122.742 515.969C122.612 515.434 120.143 505.484 111.558 500.994C108.67 499.479 105.592 498.844 101.214 498.944C91.1196 499.156 86.2924 502.989 73.7094 508.036C61.2964 513.005 54.4203 515.645 45.7351 513.907C41.9872 513.161 35.9406 511.868 31.833 506.03C26.5259 498.476 28.265 488.382 28.8246 485.653V485.642Z" stroke="black" stroke-linecap="round" stroke-linejoin="round"/>
<path d="M28.8244 488.037C28.9143 489.63 29.394 497.239 34.1514 500.526C36.3301 502.03 39.0686 501.752 42.2568 501.596C45.2152 501.451 47.6238 500.849 49.2429 500.337C46.8043 497.696 41.2474 490.967 39.3684 480.394C38.309 474.433 38.7888 469.352 39.3684 466.032C37.9492 467.247 28.1048 475.937 28.8144 488.048L28.8244 488.037Z" fill="url(#paint38_linear_92_61050)"/>
<mask id="mask11_92_61050" style="mask-type:luminance" maskUnits="userSpaceOnUse" x="28" y="466" width="22" height="36">
<path d="M28.8244 488.037C28.9143 489.63 29.394 497.239 34.1514 500.526C36.3301 502.03 39.0686 501.752 42.2568 501.596C45.2152 501.451 47.6238 500.849 49.2429 500.337C46.8043 497.696 41.2474 490.967 39.3684 480.394C38.309 474.433 38.7888 469.352 39.3684 466.032C37.9492 467.247 28.1048 475.937 28.8144 488.048L28.8244 488.037Z" fill="white"/>
</mask>
<g mask="url(#mask11_92_61050)">
<path opacity="0.43" d="M42.2573 490.432C41.1479 490.288 38.0196 489.731 35.3611 486.867C31.4234 482.633 31.7432 476.884 31.8031 476.049C31.4034 476.55 25.7166 483.826 27.9553 492.304C30.6238 502.41 41.8275 503.902 43.4266 504.114C44.6459 504.281 50.1728 505.017 51.1623 502.61C52.5215 499.312 44.4361 492.282 42.2473 490.421L42.2573 490.432Z" fill="#270D1D"/>
</g>
<path d="M28.8244 488.037C28.9143 489.63 29.394 497.239 34.1514 500.526C36.3301 502.03 39.0686 501.752 42.2568 501.596C45.2152 501.451 47.6238 500.849 49.2429 500.337C46.8043 497.696 41.2474 490.967 39.3684 480.394C38.309 474.433 38.7888 469.352 39.3684 466.032C37.9492 467.247 28.1048 475.937 28.8144 488.048L28.8244 488.037Z" stroke="black" stroke-linecap="round" stroke-linejoin="round"/>
<path d="M74.5786 507.679C76.5875 506.855 79.4259 505.808 82.8839 504.927C88.8206 503.434 110.508 497.986 119.383 510.086C120.903 512.147 123.331 516.481 123.211 524.536C123.971 522.063 127.239 510.61 121.992 502.766C114.866 492.137 97.076 495.669 90.5396 498.833C89.7401 499.223 86.5919 500.816 82.8839 502.866C79.3659 504.805 76.5075 506.509 74.5786 507.679Z" fill="url(#paint39_linear_92_61050)" stroke="black" stroke-linecap="round" stroke-linejoin="round"/>
<path d="M229.711 455.805C230.111 456.406 235.228 464.083 239.556 463.994C240.915 463.96 242.324 463.659 242.324 463.659C244.523 463.102 245.642 462.044 246.772 462.178C248.661 462.4 244.423 480.394 238.337 481.118C236.418 481.341 233.449 480.037 230.281 482.054C230.031 482.221 229.831 482.366 229.711 482.455V455.805Z" fill="url(#paint40_linear_92_61050)" stroke="black" stroke-linecap="round" stroke-linejoin="round"/>
<path d="M246.992 462.333C246.552 461.966 246.102 461.899 245.653 461.832C240.336 461.063 234.899 469.91 232.5 475.67C231.161 478.89 229.991 481.686 231.091 483.313C232.66 485.641 238.287 484.639 241.925 481.764C248.331 476.706 249.98 464.762 247.002 462.322L246.992 462.333Z" fill="url(#paint41_linear_92_61050)"/>
<mask id="mask12_92_61050" style="mask-type:luminance" maskUnits="userSpaceOnUse" x="230" y="461" width="19" height="24">
<path d="M246.992 462.333C246.552 461.966 246.102 461.899 245.653 461.832C240.336 461.063 234.899 469.91 232.5 475.67C231.161 478.89 229.991 481.686 231.091 483.313C232.66 485.641 238.287 484.639 241.925 481.764C248.331 476.706 249.98 464.762 247.002 462.322L246.992 462.333Z" fill="white"/>
</mask>
<g mask="url(#mask12_92_61050)">
<path opacity="0.43" d="M237.397 465.921C237.527 467.157 238.027 470.645 240.595 473.608C244.393 477.998 249.55 477.642 250.3 477.575C249.85 478.02 243.324 484.36 235.718 481.864C226.653 478.889 225.314 466.4 225.124 464.617C224.974 463.258 224.314 457.097 226.473 455.994C229.431 454.479 235.738 463.492 237.407 465.932L237.397 465.921Z" fill="#270D1D"/>
</g>
<path d="M246.992 462.333C246.552 461.966 246.102 461.899 245.653 461.832C240.336 461.063 234.899 469.91 232.5 475.67C231.161 478.89 229.991 481.686 231.091 483.313C232.66 485.641 238.287 484.639 241.925 481.764C248.331 476.706 249.98 464.762 247.002 462.322L246.992 462.333Z" stroke="black" stroke-linecap="round" stroke-linejoin="round"/>
<path d="M240.276 485.642C236.758 483.892 233.24 482.132 229.712 480.383C229.712 480.84 229.712 481.296 229.682 481.731C229.212 490.009 224.065 496.371 219.847 500.326C215.969 499.513 210.113 498.02 203.286 495.145C197.03 492.516 193.412 490.176 190.843 488.772C177.621 481.575 154.874 478.901 143.53 491.023C142.521 492.104 136.274 498.777 136.804 507.523C137.134 513.005 139.552 516.904 140.842 518.899C142.601 521.606 144.519 523.422 145.899 524.536C145.679 522.62 145.529 519.534 146.358 515.969C146.488 515.434 148.957 505.484 157.542 500.994C160.431 499.479 163.509 498.844 167.886 498.944C177.981 499.156 182.808 502.989 195.391 508.036C207.804 513.005 214.68 515.645 223.365 513.907C227.113 513.161 233.16 511.868 237.267 506.03C242.574 498.476 240.835 488.382 240.276 485.653V485.642Z" fill="url(#paint42_linear_92_61050)"/>
<mask id="mask13_92_61050" style="mask-type:luminance" maskUnits="userSpaceOnUse" x="136" y="480" width="105" height="45">
<path d="M240.276 485.642C236.758 483.892 233.24 482.132 229.712 480.383C229.712 480.84 229.712 481.296 229.682 481.731C229.212 490.009 224.065 496.371 219.847 500.326C215.969 499.513 210.113 498.02 203.286 495.145C197.03 492.516 193.412 490.176 190.843 488.772C177.621 481.575 154.874 478.901 143.53 491.023C142.521 492.104 136.274 498.777 136.804 507.523C137.134 513.005 139.552 516.904 140.842 518.899C142.601 521.606 144.519 523.422 145.899 524.536C145.679 522.62 145.529 519.534 146.358 515.969C146.488 515.434 148.957 505.484 157.542 500.994C160.431 499.479 163.509 498.844 167.886 498.944C177.981 499.156 182.808 502.989 195.391 508.036C207.804 513.005 214.68 515.645 223.365 513.907C227.113 513.161 233.16 511.868 237.267 506.03C242.574 498.476 240.835 488.382 240.276 485.653V485.642Z" fill="white"/>
</mask>
<g mask="url(#mask13_92_61050)">
<path d="M136.764 508.592C138.583 503.957 142.081 497.072 148.667 491.724C166.797 477.006 190.364 488.56 191.713 489.251C186.666 485.73 176.162 479.625 162.799 480.661C157.452 481.073 150.456 481.619 144.549 487.646C137.143 495.211 136.784 505.996 136.764 508.581V508.592Z" fill="url(#paint43_linear_92_61050)"/>
</g>
<path d="M240.276 485.642C236.758 483.892 233.24 482.132 229.712 480.383C229.712 480.84 229.712 481.296 229.682 481.731C229.212 490.009 224.065 496.371 219.847 500.326C215.969 499.513 210.113 498.02 203.286 495.145C197.03 492.516 193.412 490.176 190.843 488.772C177.621 481.575 154.874 478.901 143.53 491.023C142.521 492.104 136.274 498.777 136.804 507.523C137.134 513.005 139.552 516.904 140.842 518.899C142.601 521.606 144.519 523.422 145.899 524.536C145.679 522.62 145.529 519.534 146.358 515.969C146.488 515.434 148.957 505.484 157.542 500.994C160.431 499.479 163.509 498.844 167.886 498.944C177.981 499.156 182.808 502.989 195.391 508.036C207.804 513.005 214.68 515.645 223.365 513.907C227.113 513.161 233.16 511.868 237.267 506.03C242.574 498.476 240.835 488.382 240.276 485.653V485.642Z" stroke="black" stroke-linecap="round" stroke-linejoin="round"/>
<path d="M240.275 488.037C240.186 489.63 239.706 497.239 234.948 500.526C232.77 502.03 230.031 501.752 226.843 501.596C223.885 501.451 221.476 500.849 219.857 500.337C222.296 497.696 227.852 490.967 229.731 480.394C230.791 474.433 230.311 469.352 229.731 466.032C231.151 467.247 240.995 475.937 240.285 488.048L240.275 488.037Z" fill="url(#paint44_linear_92_61050)"/>
<mask id="mask14_92_61050" style="mask-type:luminance" maskUnits="userSpaceOnUse" x="219" y="466" width="22" height="36">
<path d="M240.275 488.037C240.186 489.63 239.706 497.239 234.948 500.526C232.77 502.03 230.031 501.752 226.843 501.596C223.885 501.451 221.476 500.849 219.857 500.337C222.296 497.696 227.852 490.967 229.731 480.394C230.791 474.433 230.311 469.352 229.731 466.032C231.151 467.247 240.995 475.937 240.285 488.048L240.275 488.037Z" fill="white"/>
</mask>
<g mask="url(#mask14_92_61050)">
<path opacity="0.43" d="M226.843 490.432C227.952 490.288 231.081 489.731 233.739 486.867C237.677 482.633 237.357 476.884 237.297 476.049C237.697 476.55 243.384 483.826 241.145 492.304C238.477 502.41 227.273 503.902 225.674 504.114C224.454 504.281 218.928 505.017 217.938 502.61C216.579 499.312 224.664 492.282 226.853 490.421L226.843 490.432Z" fill="#270D1D"/>
</g>
<path d="M240.275 488.037C240.186 489.63 239.706 497.239 234.948 500.526C232.77 502.03 230.031 501.752 226.843 501.596C223.885 501.451 221.476 500.849 219.857 500.337C222.296 497.696 227.852 490.967 229.731 480.394C230.791 474.433 230.311 469.352 229.731 466.032C231.151 467.247 240.995 475.937 240.285 488.048L240.275 488.037Z" stroke="black" stroke-linecap="round" stroke-linejoin="round"/>
<path d="M194.521 507.679C192.512 506.855 189.674 505.808 186.216 504.927C180.279 503.434 158.591 497.986 149.716 510.086C148.197 512.147 145.768 516.481 145.888 524.536C145.129 522.063 141.861 510.61 147.108 502.766C154.234 492.137 172.024 495.669 178.56 498.833C179.359 499.223 182.508 500.816 186.216 502.866C189.734 504.805 192.592 506.509 194.521 507.679Z" fill="url(#paint45_linear_92_61050)" stroke="black" stroke-linecap="round" stroke-linejoin="round"/>
<defs>
<linearGradient id="paint0_linear_92_61050" x1="134.545" y1="536.881" x2="134.545" y2="55.1143" gradientUnits="userSpaceOnUse">
<stop stop-color="#80776D"/>
<stop offset="0.22" stop-color="#918789"/>
<stop offset="0.55" stop-color="#BBB0AE"/>
<stop offset="0.84" stop-color="#D7CCC8"/>
<stop offset="1" stop-color="#E2D7D2"/>
</linearGradient>
<linearGradient id="paint1_linear_92_61050" x1="134.545" y1="536.87" x2="134.545" y2="499.624" gradientUnits="userSpaceOnUse">
<stop stop-color="#80776D"/>
<stop offset="0.22" stop-color="#918789"/>
<stop offset="0.55" stop-color="#BBB0AE"/>
<stop offset="0.84" stop-color="#D7CCC8"/>
<stop offset="1" stop-color="#E2D7D2"/>
</linearGradient>
<linearGradient id="paint2_linear_92_61050" x1="134.544" y1="501.195" x2="134.544" y2="541.94" gradientUnits="userSpaceOnUse">
<stop stop-color="white"/>
<stop offset="1" stop-color="white" stop-opacity="0"/>
</linearGradient>
<linearGradient id="paint3_linear_92_61050" x1="134.545" y1="74.4443" x2="134.545" y2="158.718" gradientUnits="userSpaceOnUse">
<stop stop-color="#80776D"/>
<stop offset="0.28" stop-color="#918789"/>
<stop offset="0.46" stop-color="#A09696"/>
<stop offset="0.8" stop-color="#C8BDBA"/>
<stop offset="1" stop-color="#E2D7D2"/>
</linearGradient>
<linearGradient id="paint4_linear_92_61050" x1="134.545" y1="158.718" x2="134.545" y2="499.624" gradientUnits="userSpaceOnUse">
<stop stop-color="#E2D7D2"/>
<stop offset="0.12" stop-color="#C8BDBA"/>
<stop offset="0.33" stop-color="#A09696"/>
<stop offset="0.44" stop-color="#918789"/>
<stop offset="1" stop-color="#80706D"/>
</linearGradient>
<linearGradient id="paint5_linear_92_61050" x1="134.545" y1="490.444" x2="134.545" y2="82.5332" gradientUnits="userSpaceOnUse">
<stop stop-color="#807270"/>
<stop offset="1" stop-color="#918789"/>
</linearGradient>
<linearGradient id="paint6_linear_92_61050" x1="104.052" y1="20.5086" x2="116.775" y2="20.5086" gradientUnits="userSpaceOnUse">
<stop stop-color="#625258"/>
<stop offset="1" stop-color="#918789"/>
</linearGradient>
<linearGradient id="paint7_linear_92_61050" x1="164.918" y1="20.5086" x2="152.205" y2="20.5086" gradientUnits="userSpaceOnUse">
<stop stop-color="#625258"/>
<stop offset="1" stop-color="#918789"/>
</linearGradient>
<linearGradient id="paint8_linear_92_61050" x1="121.312" y1="73.3751" x2="121.312" y2="38.6472" gradientUnits="userSpaceOnUse">
<stop stop-color="#80776D"/>
<stop offset="0.22" stop-color="#918789"/>
<stop offset="0.55" stop-color="#BBB0AE"/>
<stop offset="0.84" stop-color="#D7CCC8"/>
<stop offset="1" stop-color="#E2D7D2"/>
</linearGradient>
<linearGradient id="paint9_linear_92_61050" x1="147.657" y1="73.3751" x2="147.657" y2="38.6472" gradientUnits="userSpaceOnUse">
<stop stop-color="#80776D"/>
<stop offset="0.22" stop-color="#918789"/>
<stop offset="0.55" stop-color="#BBB0AE"/>
<stop offset="0.84" stop-color="#D7CCC8"/>
<stop offset="1" stop-color="#E2D7D2"/>
</linearGradient>
<linearGradient id="paint10_linear_92_61050" x1="134.485" y1="148.312" x2="134.485" y2="-0.64893" gradientUnits="userSpaceOnUse">
<stop stop-color="#80776D"/>
<stop offset="0.22" stop-color="#918789"/>
<stop offset="0.55" stop-color="#BBB0AE"/>
<stop offset="0.84" stop-color="#D7CCC8"/>
<stop offset="1" stop-color="#E2D7D2"/>
</linearGradient>
<linearGradient id="paint11_linear_92_61050" x1="134.845" y1="-2.7658" x2="134.944" y2="39.6051" gradientUnits="userSpaceOnUse">
<stop stop-color="white"/>
<stop offset="0.1" stop-color="white" stop-opacity="0.9604"/>
<stop offset="0.23" stop-color="white" stop-opacity="0.8464"/>
<stop offset="0.36" stop-color="white" stop-opacity="0.6889"/>
<stop offset="0.49" stop-color="white" stop-opacity="0.49"/>
<stop offset="0.64" stop-color="white" stop-opacity="0.2809"/>
<stop offset="0.79" stop-color="white" stop-opacity="0.1089"/>
<stop offset="0.94" stop-color="white" stop-opacity="0.01"/>
<stop offset="0.99" stop-color="white" stop-opacity="0"/>
</linearGradient>
<linearGradient id="paint12_linear_92_61050" x1="243.224" y1="-63.0975" x2="239.883" y2="77.3915" gradientUnits="userSpaceOnUse">
<stop stop-color="white" stop-opacity="0"/>
<stop offset="1" stop-color="white"/>
</linearGradient>
<linearGradient id="paint13_linear_92_61050" x1="183.377" y1="-64.5225" x2="180.024" y2="75.9666" gradientUnits="userSpaceOnUse">
<stop stop-color="white" stop-opacity="0"/>
<stop offset="1" stop-color="white"/>
</linearGradient>
<linearGradient id="paint14_linear_92_61050" x1="90.0099" y1="-66.7401" x2="86.6569" y2="73.7378" gradientUnits="userSpaceOnUse">
<stop stop-color="white" stop-opacity="0"/>
<stop offset="1" stop-color="white"/>
</linearGradient>
<linearGradient id="paint15_linear_92_61050" x1="31.4728" y1="-68.1335" x2="28.1322" y2="72.3445" gradientUnits="userSpaceOnUse">
<stop stop-color="white" stop-opacity="0"/>
<stop offset="1" stop-color="white"/>
</linearGradient>
<linearGradient id="paint16_linear_92_61050" x1="43.4462" y1="98.2873" x2="1" y2="98.2873" gradientUnits="userSpaceOnUse">
<stop stop-color="#80776D"/>
<stop offset="1" stop-color="#918789"/>
</linearGradient>
<linearGradient id="paint17_linear_92_61050" x1="82.6742" y1="57.2423" x2="58.9375" y2="57.2423" gradientUnits="userSpaceOnUse">
<stop stop-color="#80776D"/>
<stop offset="1" stop-color="#918789"/>
</linearGradient>
<linearGradient id="paint18_linear_92_61050" x1="72.4396" y1="147.699" x2="72.4396" y2="55.4142" gradientUnits="userSpaceOnUse">
<stop stop-color="#80776D"/>
<stop offset="0.22" stop-color="#918789"/>
<stop offset="0.55" stop-color="#BBB0AE"/>
<stop offset="0.84" stop-color="#D7CCC8"/>
<stop offset="1" stop-color="#E2D7D2"/>
</linearGradient>
<linearGradient id="paint19_linear_92_61050" x1="77.5163" y1="-67.0417" x2="74.1632" y2="73.4474" gradientUnits="userSpaceOnUse">
<stop stop-color="white" stop-opacity="0"/>
<stop offset="1" stop-color="white"/>
</linearGradient>
<linearGradient id="paint20_linear_92_61050" x1="24.2666" y1="-68.3124" x2="20.9135" y2="72.1767" gradientUnits="userSpaceOnUse">
<stop stop-color="white" stop-opacity="0"/>
<stop offset="1" stop-color="white"/>
</linearGradient>
<linearGradient id="paint21_linear_92_61050" x1="113.117" y1="79.1571" x2="65.8735" y2="79.1571" gradientUnits="userSpaceOnUse">
<stop stop-color="#80776D"/>
<stop offset="1" stop-color="#918789"/>
</linearGradient>
<linearGradient id="paint22_linear_92_61050" x1="65.8731" y1="89.6085" x2="36.2598" y2="89.6085" gradientUnits="userSpaceOnUse">
<stop stop-color="#80776D"/>
<stop offset="1" stop-color="#918789"/>
</linearGradient>
<linearGradient id="paint23_linear_92_61050" x1="225.534" y1="98.2873" x2="267.97" y2="98.2873" gradientUnits="userSpaceOnUse">
<stop stop-color="#80776D"/>
<stop offset="1" stop-color="#918789"/>
</linearGradient>
<linearGradient id="paint24_linear_92_61050" x1="186.296" y1="57.2423" x2="210.043" y2="57.2423" gradientUnits="userSpaceOnUse">
<stop stop-color="#80776D"/>
<stop offset="1" stop-color="#918789"/>
</linearGradient>
<radialGradient id="paint25_radial_92_61050" cx="0" cy="0" r="1" gradientUnits="userSpaceOnUse" gradientTransform="translate(134.835 24.1517) scale(15.941 17.7706)">
<stop offset="0.16" stop-color="#FF0303"/>
<stop offset="0.49" stop-color="#FD0303"/>
<stop offset="0.63" stop-color="#F50303"/>
<stop offset="0.74" stop-color="#E90503"/>
<stop offset="0.82" stop-color="#D80604"/>
<stop offset="0.89" stop-color="#C10905"/>
<stop offset="0.96" stop-color="#A50B06"/>
<stop offset="1" stop-color="#8F0E08"/>
</radialGradient>
<linearGradient id="paint26_linear_92_61050" x1="196.54" y1="147.699" x2="196.54" y2="55.4142" gradientUnits="userSpaceOnUse">
<stop stop-color="#80776D"/>
<stop offset="0.22" stop-color="#918789"/>
<stop offset="0.55" stop-color="#BBB0AE"/>
<stop offset="0.84" stop-color="#D7CCC8"/>
<stop offset="1" stop-color="#E2D7D2"/>
</linearGradient>
<linearGradient id="paint27_linear_92_61050" x1="196.79" y1="-64.2002" x2="193.436" y2="76.2778" gradientUnits="userSpaceOnUse">
<stop stop-color="white" stop-opacity="0"/>
<stop offset="1" stop-color="white"/>
</linearGradient>
<linearGradient id="paint28_linear_92_61050" x1="250.969" y1="-62.9078" x2="247.629" y2="77.5703" gradientUnits="userSpaceOnUse">
<stop stop-color="white" stop-opacity="0"/>
<stop offset="1" stop-color="white"/>
</linearGradient>
<linearGradient id="paint29_linear_92_61050" x1="155.863" y1="79.1571" x2="203.097" y2="79.1571" gradientUnits="userSpaceOnUse">
<stop stop-color="#80776D"/>
<stop offset="1" stop-color="#918789"/>
</linearGradient>
<linearGradient id="paint30_linear_92_61050" x1="203.096" y1="89.6085" x2="232.72" y2="89.6085" gradientUnits="userSpaceOnUse">
<stop stop-color="#80776D"/>
<stop offset="1" stop-color="#918789"/>
</linearGradient>
<linearGradient id="paint31_linear_92_61050" x1="134.545" y1="541.36" x2="134.545" y2="457.9" gradientUnits="userSpaceOnUse">
<stop stop-color="#80776D"/>
<stop offset="0.22" stop-color="#918789"/>
<stop offset="0.55" stop-color="#BBB0AE"/>
<stop offset="0.84" stop-color="#D7CCC8"/>
<stop offset="1" stop-color="#E2D7D2"/>
</linearGradient>
<linearGradient id="paint32_linear_92_61050" x1="134.675" y1="455.838" x2="134.749" y2="488.65" gradientUnits="userSpaceOnUse">
<stop stop-color="white"/>
<stop offset="0.1" stop-color="white" stop-opacity="0.9604"/>
<stop offset="0.23" stop-color="white" stop-opacity="0.8464"/>
<stop offset="0.36" stop-color="white" stop-opacity="0.6889"/>
<stop offset="0.49" stop-color="white" stop-opacity="0.49"/>
<stop offset="0.64" stop-color="white" stop-opacity="0.2809"/>
<stop offset="0.79" stop-color="white" stop-opacity="0.1089"/>
<stop offset="0.94" stop-color="white" stop-opacity="0.01"/>
<stop offset="0.99" stop-color="white" stop-opacity="0"/>
</linearGradient>
<radialGradient id="paint33_radial_92_61050" cx="0" cy="0" r="1" gradientUnits="userSpaceOnUse" gradientTransform="translate(134.675 475.893) scale(10.8839 12.133)">
<stop offset="0.16" stop-color="#FF0303"/>
<stop offset="0.49" stop-color="#FD0303"/>
<stop offset="0.63" stop-color="#F50303"/>
<stop offset="0.74" stop-color="#E90503"/>
<stop offset="0.82" stop-color="#D80604"/>
<stop offset="0.89" stop-color="#C10905"/>
<stop offset="0.96" stop-color="#A50B06"/>
<stop offset="1" stop-color="#8F0E08"/>
</radialGradient>
<linearGradient id="paint34_linear_92_61050" x1="30.6235" y1="482.455" x2="30.6235" y2="455.805" gradientUnits="userSpaceOnUse">
<stop stop-color="#80776D"/>
<stop offset="0.22" stop-color="#918789"/>
<stop offset="0.55" stop-color="#BBB0AE"/>
<stop offset="0.84" stop-color="#D7CCC8"/>
<stop offset="1" stop-color="#E2D7D2"/>
</linearGradient>
<linearGradient id="paint35_linear_92_61050" x1="38.4488" y1="473.196" x2="20.6688" y2="473.196" gradientUnits="userSpaceOnUse">
<stop stop-color="#80776D"/>
<stop offset="1" stop-color="#918789"/>
</linearGradient>
<linearGradient id="paint36_linear_92_61050" x1="80.2158" y1="524.536" x2="80.2158" y2="480.383" gradientUnits="userSpaceOnUse">
<stop stop-color="#80776D"/>
<stop offset="0.22" stop-color="#918789"/>
<stop offset="0.55" stop-color="#BBB0AE"/>
<stop offset="0.84" stop-color="#D7CCC8"/>
<stop offset="1" stop-color="#E2D7D2"/>
</linearGradient>
<linearGradient id="paint37_linear_92_61050" x1="104.772" y1="456.25" x2="104.983" y2="535.555" gradientUnits="userSpaceOnUse">
<stop stop-color="white"/>
<stop offset="1" stop-color="white" stop-opacity="0"/>
</linearGradient>
<linearGradient id="paint38_linear_92_61050" x1="49.2529" y1="483.87" x2="28.7844" y2="483.87" gradientUnits="userSpaceOnUse">
<stop stop-color="#80776D"/>
<stop offset="1" stop-color="#918789"/>
</linearGradient>
<linearGradient id="paint39_linear_92_61050" x1="124.91" y1="510.086" x2="74.5686" y2="510.086" gradientUnits="userSpaceOnUse">
<stop stop-color="#625258"/>
<stop offset="1" stop-color="#918789"/>
</linearGradient>
<linearGradient id="paint40_linear_92_61050" x1="238.466" y1="482.455" x2="238.466" y2="455.805" gradientUnits="userSpaceOnUse">
<stop stop-color="#80776D"/>
<stop offset="0.22" stop-color="#918789"/>
<stop offset="0.55" stop-color="#BBB0AE"/>
<stop offset="0.84" stop-color="#D7CCC8"/>
<stop offset="1" stop-color="#E2D7D2"/>
</linearGradient>
<linearGradient id="paint41_linear_92_61050" x1="230.651" y1="473.196" x2="248.431" y2="473.196" gradientUnits="userSpaceOnUse">
<stop stop-color="#80776D"/>
<stop offset="1" stop-color="#918789"/>
</linearGradient>
<linearGradient id="paint42_linear_92_61050" x1="188.875" y1="524.536" x2="188.875" y2="480.383" gradientUnits="userSpaceOnUse">
<stop stop-color="#80776D"/>
<stop offset="0.22" stop-color="#918789"/>
<stop offset="0.55" stop-color="#BBB0AE"/>
<stop offset="0.84" stop-color="#D7CCC8"/>
<stop offset="1" stop-color="#E2D7D2"/>
</linearGradient>
<linearGradient id="paint43_linear_92_61050" x1="164.148" y1="456.094" x2="164.359" y2="535.399" gradientUnits="userSpaceOnUse">
<stop stop-color="white"/>
<stop offset="1" stop-color="white" stop-opacity="0"/>
</linearGradient>
<linearGradient id="paint44_linear_92_61050" x1="219.847" y1="483.87" x2="240.305" y2="483.87" gradientUnits="userSpaceOnUse">
<stop stop-color="#80776D"/>
<stop offset="1" stop-color="#918789"/>
</linearGradient>
<linearGradient id="paint45_linear_92_61050" x1="144.189" y1="510.086" x2="194.521" y2="510.086" gradientUnits="userSpaceOnUse">
<stop stop-color="#625258"/>
<stop offset="1" stop-color="#918789"/>
</linearGradient>
</defs>
</svg>
