<svg width="331" height="79" viewBox="0 0 331 79" fill="none" xmlns="http://www.w3.org/2000/svg">
    <path d="M165.038 118.563C212.607 118.563 251.299 83.4107 251.299 40.1942C251.299 -3.02237 212.607 -38.1746 165.038 -38.1746C117.469 -38.1746 78.7765 -3.02237 78.7766 40.1942C78.7766 83.4107 117.469 118.563 165.038 118.563ZM165.038 -36.069C211.321 -36.069 248.982 -1.85378 248.982 40.1942C248.982 82.2421 211.321 116.457 165.038 116.457C118.755 116.457 81.0942 82.2421 81.0942 40.1942C81.0941 -1.85378 118.755 -36.069 165.038 -36.069Z" fill="#DFD4CF" fill-opacity="0.05"/>
    <path d="M84.7793 40.2041C84.7793 45.4049 88.7075 51.3847 93.9569 51.5847C95.811 51.6584 97.7347 50.9636 99.5308 49.5844C100.562 49.1949 103.065 48.4895 105.8 49.437C107.364 49.9845 108.674 50.9425 109.67 52.29C110.493 55.5431 111.664 58.6804 113.135 61.6808L93.5628 67.3659C93.1804 67.4817 92.8678 67.7133 92.6824 68.0396C92.497 68.366 92.4621 68.7345 92.5896 69.0714C92.7171 69.4293 93.0067 69.7346 93.3891 69.8926C93.7715 70.0505 94.2119 70.061 94.5943 69.9136L113.622 62.6809C114.862 65.0602 116.299 67.3447 117.909 69.524L99.5541 79.0938C99.2064 79.2728 98.9513 79.5676 98.8471 79.915C98.7428 80.2624 98.7893 80.6309 98.9978 80.9467C99.2064 81.2731 99.5539 81.5152 99.9711 81.5994C100.388 81.6837 100.817 81.5994 101.153 81.3888L118.524 70.4084C118.524 70.4084 118.535 70.3873 118.547 70.3768C120.215 72.5245 122.058 74.5563 124.063 76.4408C123.993 76.4619 123.924 76.4934 123.866 76.546L108.129 89.4004C107.828 89.6426 107.654 89.9795 107.631 90.3479C107.608 90.7059 107.747 91.0639 108.013 91.3271C108.292 91.6113 108.697 91.7797 109.114 91.7797C109.531 91.7797 109.937 91.6219 110.227 91.3482L124.677 77.304C124.677 77.304 124.77 77.1988 124.793 77.1357C126.832 78.9886 129.022 80.7046 131.34 82.2732C131.34 82.2732 131.317 82.2836 131.305 82.2942L118.883 97.8648C118.396 98.4754 118.547 99.3282 119.219 99.7704C119.555 99.9915 119.984 100.076 120.401 100.002C120.818 99.9283 121.177 99.6967 121.386 99.3703L132.256 82.8943C134.608 84.4103 137.099 85.7579 139.695 86.9475L131.375 104.087C131.213 104.424 131.201 104.792 131.352 105.129C131.502 105.466 131.78 105.74 132.14 105.887C132.522 106.045 132.962 106.045 133.345 105.887C133.727 105.729 134.028 105.434 134.167 105.076L140.784 87.4423C144.353 88.9793 148.131 90.19 152.048 91.0217C153.334 91.8955 154.273 93.0009 154.817 94.2959C155.918 96.9173 155.015 99.244 154.655 99.9914C153.137 101.634 152.361 103.381 152.453 105.066C152.685 109.845 159.267 113.404 164.992 113.404C170.716 113.404 177.287 109.835 177.519 105.066C177.588 103.381 176.835 101.623 175.317 99.9914C174.888 99.065 174.112 96.7909 175.155 94.2959C175.699 92.9904 176.638 91.8955 177.924 91.0217C181.794 90.2006 185.514 89.011 189.037 87.5055L195.723 105.318C195.862 105.676 196.152 105.971 196.546 106.129C196.928 106.287 197.369 106.287 197.751 106.129C198.307 105.908 198.644 105.403 198.644 104.876C198.644 104.697 198.597 104.508 198.516 104.329L190.115 87.0317C192.722 85.8631 195.213 84.5156 197.566 82.9996C197.577 83.0417 197.589 83.0838 197.612 83.1259L208.493 99.6124C208.702 99.9388 209.073 100.17 209.478 100.244C209.895 100.318 210.324 100.244 210.66 100.013C210.985 99.8019 211.193 99.4862 211.263 99.1282C211.274 99.0545 211.286 98.9807 211.286 98.907C211.286 98.6228 211.193 98.3491 210.996 98.1069L198.574 82.5364C198.574 82.5364 198.481 82.4417 198.423 82.4101C200.776 80.8415 203.001 79.1149 205.063 77.2515C205.075 77.3567 205.121 77.462 205.202 77.5463L219.653 91.5903C219.942 91.8745 220.348 92.022 220.765 92.022C221.182 92.022 221.588 91.8535 221.866 91.5692C222.109 91.3165 222.248 91.0007 222.248 90.6638C222.248 90.6428 222.248 90.6111 222.248 90.5901C222.225 90.2216 222.051 89.8953 221.75 89.6532L206.013 76.7987C205.921 76.725 205.793 76.6829 205.677 76.6724C207.705 74.7774 209.583 72.7349 211.274 70.5768C211.298 70.5978 211.321 70.6295 211.356 70.6505L228.726 81.6309C229.074 81.852 229.502 81.9258 229.92 81.8415C230.337 81.7573 230.684 81.5152 230.893 81.1888C231.032 80.9783 231.09 80.7466 231.09 80.515C231.09 80.0413 230.823 79.5781 230.337 79.3254L211.981 69.7557C211.981 69.7557 211.935 69.7451 211.923 69.7346C213.546 67.5659 215.006 65.2919 216.257 62.9126L235.308 70.1557C235.69 70.3031 236.131 70.2926 236.513 70.1347C236.896 69.9768 237.185 69.6714 237.313 69.3135C237.359 69.1766 237.382 69.0397 237.382 68.8923C237.382 68.6818 237.324 68.4713 237.22 68.2712C237.035 67.9449 236.722 67.7132 236.339 67.5974L216.755 61.9124C218.285 58.8488 219.49 55.6274 220.336 52.2796C221.333 50.932 222.631 49.9739 224.207 49.4265C226.93 48.479 229.433 49.1844 230.464 49.5739C232.272 50.953 234.196 51.6479 236.05 51.5742C241.311 51.3636 245.227 45.3838 245.227 40.1831C245.227 34.9823 241.299 29.0132 236.05 28.8026C234.196 28.7289 232.272 29.4238 230.464 30.8029C229.433 31.1924 226.942 31.8978 224.207 30.9503C221.843 30.1291 220.499 28.4973 219.792 27.2656C218.992 24.5915 217.949 22.0121 216.709 19.5276L236.328 13.8321C236.71 13.7163 237.023 13.4847 237.209 13.1583C237.324 12.9583 237.382 12.7478 237.382 12.5372C237.382 12.4004 237.359 12.2635 237.313 12.1266C237.185 11.7687 236.896 11.4634 236.513 11.3054C236.131 11.1475 235.69 11.137 235.308 11.2844L216.222 18.538C214.971 16.1587 213.534 13.8637 211.912 11.7055C211.935 11.7055 211.958 11.695 211.981 11.6844L230.337 2.11471C230.823 1.86204 231.09 1.39882 231.09 0.925071C231.09 0.693458 231.02 0.461829 230.893 0.251273C230.684 -0.0750894 230.337 -0.317224 229.92 -0.401444C229.502 -0.485665 229.074 -0.401498 228.738 -0.190942L211.367 10.7896C211.367 10.7896 211.297 10.8527 211.263 10.8843C209.571 8.71558 207.694 6.67326 205.654 4.76773C205.782 4.76773 205.921 4.72562 206.025 4.6414L221.762 -8.2131C222.063 -8.45524 222.237 -8.79215 222.26 -9.15009C222.26 -9.17114 222.26 -9.20267 222.26 -9.22373C222.26 -9.56062 222.121 -9.87644 221.878 -10.1291C221.599 -10.4133 221.194 -10.5818 220.776 -10.5818C220.359 -10.5818 219.954 -10.4239 219.664 -10.1502L205.214 3.89384C205.121 3.98859 205.075 4.09392 205.063 4.20973C202.989 2.33578 200.753 0.619727 198.377 -0.948907C198.446 -0.980492 198.516 -1.03314 198.562 -1.09631L210.973 -16.6669C211.158 -16.8985 211.263 -17.1827 211.263 -17.4669C211.263 -17.5406 211.263 -17.6144 211.24 -17.6881C211.182 -18.0461 210.961 -18.3618 210.637 -18.5724C210.301 -18.7935 209.872 -18.8777 209.455 -18.804C209.038 -18.7303 208.679 -18.4987 208.47 -18.1723L197.589 -1.6858C197.554 -1.63316 197.531 -1.57008 197.519 -1.50691C195.155 -3.01238 192.675 -4.37042 190.068 -5.539L198.493 -22.8782C198.574 -23.0572 198.62 -23.2467 198.62 -23.4257C198.62 -23.9521 198.284 -24.4469 197.728 -24.6786C197.346 -24.8365 196.905 -24.8365 196.523 -24.6786C196.14 -24.5206 195.839 -24.2258 195.7 -23.8679L188.991 -5.99175C185.885 -7.30772 182.629 -8.40254 179.245 -9.20265C178.283 -9.72904 176.105 -11.1714 175.143 -13.8771C174.216 -16.4458 174.923 -18.6882 175.317 -19.6041C176.835 -21.2464 177.576 -22.9941 177.507 -24.6786C177.275 -29.3529 170.728 -32.827 164.98 -33.0165C163.729 -33.0586 159.371 -32.9744 155.86 -30.153C154.701 -29.2265 152.558 -27.4895 152.43 -24.6786C152.326 -22.1835 153.856 -20.341 154.62 -19.5936C155.003 -18.6671 155.71 -16.4353 154.794 -13.8771C153.821 -11.1714 151.642 -9.72903 150.68 -9.20265C147.192 -8.38149 143.843 -7.2551 140.645 -5.87596L133.982 -23.6363C133.843 -23.9943 133.553 -24.2889 133.159 -24.4469C132.777 -24.6048 132.337 -24.5942 131.954 -24.4469C131.583 -24.2995 131.305 -24.0363 131.166 -23.6889C131.027 -23.352 131.027 -22.9835 131.189 -22.6466L139.568 -5.40214C136.96 -4.2125 134.48 -2.8439 132.128 -1.32789C132.116 -1.37 132.116 -1.41211 132.093 -1.45422L121.212 -17.9408C121.003 -18.2671 120.632 -18.4987 120.227 -18.5724C119.81 -18.6461 119.381 -18.5724 119.045 -18.3408C118.373 -17.8987 118.222 -17.0458 118.709 -16.4352L131.131 -0.864731C131.131 -0.864731 131.212 -0.790932 131.259 -0.759354C128.906 0.819816 126.693 2.55684 124.642 4.44131C124.642 4.3255 124.584 4.20965 124.492 4.12543L110.041 -9.91859C109.752 -10.2028 109.346 -10.3608 108.929 -10.3503C108.511 -10.3503 108.106 -10.1818 107.828 -9.89752C107.561 -9.62379 107.422 -9.27632 107.446 -8.91838C107.469 -8.5499 107.642 -8.22365 107.944 -7.97098L123.68 4.88352C123.785 4.96774 123.924 5.00985 124.051 5.00985C122.023 6.9259 120.157 8.97879 118.477 11.158C118.442 11.1054 118.396 11.0528 118.338 11.0212L100.968 0.0406417C100.62 -0.180443 100.191 -0.254082 99.7741 -0.169861C99.3569 -0.08564 99.0092 0.156494 98.8006 0.482857C98.6036 0.798691 98.5458 1.16714 98.6501 1.51456C98.7544 1.86198 99.0092 2.15678 99.3568 2.33575L117.712 11.9055C117.712 11.9055 117.805 11.9371 117.852 11.9476C116.241 14.1163 114.839 16.4219 113.599 18.8118L94.3974 11.5159C94.015 11.3686 93.5746 11.3791 93.1922 11.537C92.8098 11.6949 92.5201 12.0003 92.3927 12.3582C92.2768 12.7056 92.2998 13.0741 92.4852 13.4005C92.6706 13.7268 92.9835 13.9584 93.3659 14.0742L113.1 19.8013C111.93 22.2016 110.922 24.6968 110.157 27.2761C109.45 28.5079 108.117 30.1292 105.753 30.9608C103.019 31.9083 100.516 31.203 99.4844 30.8134C97.6883 29.4343 95.7646 28.7394 93.9105 28.8131C88.6495 29.0132 84.7329 34.9929 84.7329 40.2041L84.7793 40.2041ZM94.0033 29.8554C95.9964 29.7817 97.7346 30.7923 98.8354 31.6556C98.8818 31.6872 98.9283 31.7188 98.9862 31.7399C100.087 32.1715 103.007 33.0453 106.206 31.9399C108.94 30.9818 110.458 29.1184 111.246 27.7182C111.258 27.6866 111.281 27.6656 111.281 27.634C111.281 27.613 111.293 27.5919 111.304 27.5708C116.484 10.0421 131.734 -3.66508 151.098 -8.19202C151.144 -8.20255 151.202 -8.22366 151.248 -8.24471C152.291 -8.80269 154.829 -10.4239 155.953 -13.5401C157.019 -16.5089 156.15 -19.0883 155.721 -20.0569C155.698 -20.12 155.652 -20.1727 155.605 -20.2253C154.991 -20.8254 153.543 -22.415 153.659 -24.6153C153.763 -26.9841 155.605 -28.458 156.706 -29.3423C159.893 -31.9111 163.868 -31.9847 165.015 -31.9426C170.241 -31.7637 176.232 -28.5948 176.417 -24.6153C176.51 -22.8151 175.386 -21.2149 174.436 -20.2043C174.389 -20.1621 174.367 -20.1095 174.343 -20.0569C173.915 -19.0883 173.045 -16.5089 174.111 -13.5401C175.224 -10.4344 177.762 -8.80269 178.793 -8.24471C178.839 -8.22366 178.886 -8.20255 178.944 -8.19202C198.296 -3.66508 213.557 10.0421 218.749 27.5708C218.749 27.5708 218.76 27.613 218.772 27.634C218.772 27.6551 218.795 27.6866 218.807 27.7077C219.595 29.1079 221.124 30.9713 223.848 31.9293C227.046 33.0453 229.954 32.161 231.055 31.7294C231.113 31.7083 231.159 31.6766 231.206 31.645C232.318 30.7818 234.068 29.7711 236.061 29.8448C240.604 30.0238 244.127 35.551 244.127 40.1727C244.127 44.8049 240.604 50.3319 236.061 50.5109C234.068 50.5951 232.318 49.5739 231.206 48.7107C231.159 48.6791 231.113 48.6474 231.055 48.6264C229.954 48.1947 227.046 47.321 223.848 48.4264C222.017 49.0581 220.498 50.1845 219.363 51.7742C219.316 51.8373 219.293 51.9111 219.282 51.9848C214.589 70.7137 198.261 85.621 177.657 89.969C177.565 89.9795 177.472 90.011 177.391 90.0637C175.861 91.0743 174.76 92.3587 174.111 93.8853C172.906 96.812 173.857 99.444 174.32 100.444C174.343 100.497 174.378 100.539 174.413 100.581C175.363 101.592 176.476 103.181 176.395 104.992C176.198 109.119 170.114 112.319 165.027 112.319C159.928 112.319 153.844 109.119 153.635 104.992C153.589 103.192 154.667 101.592 155.617 100.581C155.652 100.539 155.687 100.497 155.71 100.455C156.092 99.6966 157.228 96.9699 155.93 93.8853C155.281 92.3587 154.18 91.0743 152.651 90.0637C152.581 90.0216 152.488 89.99 152.407 89.969C131.803 85.621 115.464 70.7031 110.794 52.0584C110.794 51.9531 110.76 51.8584 110.702 51.7742C109.554 50.195 108.048 49.0686 106.217 48.4264C103.019 47.3104 100.099 48.1947 98.9978 48.6264C98.9399 48.6474 98.8934 48.6791 98.847 48.7107C97.7346 49.5739 95.9965 50.5846 94.0149 50.5109C89.4724 50.3319 85.9497 44.8153 85.9497 40.1831C85.9497 35.5508 89.4724 30.0238 94.0149 29.8448L94.0033 29.8554Z" fill="#DFD4CF" fill-opacity="0.05"/>
    <path d="M124.085 40.6898C123.714 43.964 124.12 47.3117 125.267 50.3648C126.09 52.5756 127.816 57.1868 132.973 60.3662C136.751 62.6928 140.702 63.2403 143.506 63.2613C144.48 64.651 145.175 66.0617 145.824 67.3777C147.145 70.0623 148.315 72.3784 151.27 73.3365C152.255 75.9263 153.785 77.7792 155.836 78.8425C157.517 79.7163 158.93 79.7478 160.877 79.7899C162.024 79.8109 163.311 79.8426 165.026 80.0427C167.876 80.369 169.197 80.8637 170.263 81.2638C171.318 81.6533 172.222 81.9903 173.937 81.9797C179.082 81.9376 185.606 78.9056 187.553 73.3469C187.97 72.1678 188.132 71.0308 188.132 69.9464C188.132 67.4829 187.274 65.3879 186.556 64.0298C186.927 63.9561 187.275 63.8825 187.587 63.8088C190.322 63.2298 191.435 62.9981 192.79 62.2191C196.8 61.5769 200.218 59.9978 202.652 57.6606C205.491 54.9444 206.186 51.6175 207.461 45.5746C208.527 40.5423 209.28 36.9524 209.28 33.8257C209.28 31.5412 208.875 29.4987 207.901 27.3195C206.65 24.5507 204.691 22.0557 202.061 19.908C201.736 18.9605 201.261 18.0867 200.543 17.2655C197.426 13.7282 191.863 13.6439 189.326 13.8124C188.561 10.7699 187.147 8.13783 185.085 5.96911C179.418 0.0209118 169.997 -1.29506 163.658 -0.610756C159 -0.115952 155.523 1.41058 154.353 3.47403C154.237 3.67406 154.11 3.94779 153.959 4.27415C153.391 5.5059 152.522 7.36937 150.691 8.27476C150.042 8.60112 149.382 8.75899 149.382 8.75899C148.431 8.98008 147.806 8.87478 147.006 8.73791C146.438 8.64317 145.789 8.52744 144.978 8.54849C144.329 8.55902 142.07 8.7169 140.447 10.0855C138.593 11.6436 138.5 13.9493 138.593 15.1705C137.631 15.5916 136.67 16.118 135.719 16.7497C131.188 19.8027 129.381 23.9191 128.674 26.3194C127.318 26.9932 123.691 29.1408 122.729 33.394C121.964 36.7419 123.308 39.4686 124.073 40.6793L124.085 40.6898ZM147.423 66.7355C146.079 64.0088 144.41 60.6189 140.331 57.7658C139.485 57.1763 138.697 56.713 137.933 56.2709C136.299 55.3234 134.873 54.5022 133.332 52.6178C132.614 51.7334 131.281 49.8489 130.493 47.217C129.995 45.5536 129.079 42.4689 130.458 39.1527C130.933 38.0157 131.571 36.4682 133.379 35.4365C134.642 34.7206 135.963 34.5521 136.959 34.5521C136.67 36.0786 136.6 38.2578 138.153 40.216C139.775 42.2479 142.197 42.89 143.669 43.0795C143.113 46.3642 143.263 48.9751 144.874 51.6913C145.801 53.2389 146.995 54.4601 148.269 55.4182C148.478 56.9868 148.802 58.5554 149.289 60.0608C150.622 64.2088 153.067 68.6199 156.277 71.7993C154.782 72.2099 153.414 72.2836 152.209 71.9678C149.695 71.3151 148.744 69.3991 147.435 66.7355L147.423 66.7355ZM165.199 8.46419C165.408 8.35891 165.559 8.16942 165.617 7.94833C165.825 7.08506 166.323 5.90605 167.505 5.15858C168.513 4.51638 169.603 4.46368 170.078 4.44263C173.067 4.3163 179.858 6.57974 186.278 13.3596C190.113 17.4128 192.651 20.0974 192.848 24.1506C192.941 26.1298 192.454 27.9511 191.782 29.5197C188.422 28.1932 185.722 26.5299 183.752 24.5401C183.3 23.7716 182.697 22.9926 181.863 22.1924C181.33 21.3713 180.913 20.5291 180.472 19.6448C179.371 17.4445 178.224 15.1599 175.35 13.2438C173.322 11.8858 171.411 11.3804 170.495 11.1383C164.064 9.41173 157.736 11.6647 154.156 13.4018C154.642 12.0437 155.709 10.1697 157.991 9.03273C160.842 7.622 163.693 8.28528 164.504 8.52741C164.736 8.60111 164.991 8.56947 165.199 8.46419ZM168.861 54.997C168.861 54.997 168.85 54.997 168.838 54.997C168.78 54.997 168.722 54.997 168.664 54.997C168.606 54.997 168.548 54.997 168.49 54.997C168.49 54.997 168.479 54.997 168.467 54.997C168.421 55.0076 168.374 55.0391 168.34 55.0496C168.293 55.0707 168.247 55.0707 168.201 55.1023C166.868 55.9024 162.071 58.4185 156.045 57.1657C154.457 56.8393 149.08 55.4182 146.392 50.9228C145.476 49.3857 145.094 47.8697 145.094 46.1537C145.094 45.0588 145.245 43.8796 145.511 42.5637C145.511 42.5216 145.534 42.49 145.534 42.4479C145.836 40.9319 146.276 39.237 146.786 37.2683C148.362 31.1938 149.497 26.8036 153.553 24.8033C156.612 23.2873 160.576 23.4242 162.071 23.4768C162.592 23.4979 163.125 23.5401 163.647 23.5927C161.885 24.1086 160.216 24.8244 158.756 25.7719C152.649 29.7093 149.497 37.0788 151.259 43.2902C151.583 44.4482 152.591 47.9855 156.195 50.249C159.718 52.4704 165.257 53.1757 168.259 50.9754C169 51.6386 170.055 52.3335 171.445 52.723C174.516 53.5968 177.193 52.4598 178.56 51.6808C178.491 51.786 178.421 51.9019 178.34 52.0072C177.448 53.2495 176.729 53.7337 176.498 53.8916C173.937 55.6392 170.611 55.3234 168.861 54.9865L168.861 54.997ZM155.662 58.7239C157.041 59.0082 158.363 59.1134 159.602 59.0924C159.857 60.4715 160.495 62.2507 162.013 63.8404C164.434 66.3671 167.644 66.8829 169.197 67.1356C171.874 67.5672 173.404 67.1777 177.471 66.167C178.896 65.8091 180.658 65.3669 182.917 64.851C183.358 64.7457 183.775 64.6615 184.169 64.5668C183.81 65.9354 183.172 67.0513 182.234 67.883C181.388 68.6305 180.727 68.7884 179.638 69.0516C178.653 69.2937 177.413 69.5886 175.687 70.4308C174.064 71.2204 173.102 71.9573 172.245 72.61C171.19 73.4101 170.426 73.9891 168.803 74.3997C168.618 74.4418 166.914 74.8524 165.13 74.705C158.096 74.126 152.812 65.3775 150.969 59.6398C150.668 58.6818 150.436 57.7027 150.251 56.7131C152.534 57.9764 154.724 58.5448 155.686 58.7343L155.662 58.7239ZM179.684 22.4767C179.974 22.7083 180.24 22.9505 180.495 23.1821C181.005 23.9612 181.608 24.6981 182.28 25.3929C183.033 26.6984 183.323 28.0775 183.091 29.4672C182.697 31.857 180.913 33.8994 178.363 34.9837C178.34 34.9206 178.317 34.8573 178.294 34.7942C176.544 30.762 171.874 28.109 166.937 28.3617C160.332 28.6881 157.204 34.1731 157.169 34.2258C155.222 37.6999 154.828 42.8584 158.594 45.9747C161.143 48.0907 164.91 48.7119 168.49 47.7118C168.328 48.354 168.05 48.912 167.644 49.3542C165.582 51.5439 160.321 50.9439 157.18 48.9646C154.11 47.0275 153.229 43.9324 152.939 42.9112C151.352 37.3104 154.225 30.6463 159.765 27.0774C162.071 25.5824 164.886 24.656 167.899 24.3823C167.899 24.3823 167.899 24.3823 167.911 24.3823C168.015 24.3718 168.108 24.3401 168.189 24.3085C168.212 24.298 168.247 24.2769 168.27 24.2664C168.328 24.2348 168.386 24.1927 168.432 24.1506C168.456 24.1295 168.479 24.098 168.502 24.077C168.548 24.0243 168.571 23.9716 168.606 23.9085C168.606 23.8874 168.629 23.877 168.641 23.8559C168.641 23.8454 168.641 23.8348 168.641 23.8243C168.641 23.8138 168.652 23.8032 168.652 23.7822C168.896 22.7504 169.464 21.3503 170.785 20.5502C173.462 18.9394 177.656 20.8976 179.673 22.5083L179.684 22.4767ZM169.684 45.7536C169.684 45.7536 169.672 45.7536 169.661 45.7536C166.694 45.2799 164.168 43.1217 163.658 40.6266C163.496 39.8054 163.264 37.7526 164.759 36.3208C165.628 35.4891 167.459 34.4995 168.965 35.1627C169.823 35.5417 170.889 36.6155 170.588 37.8156C170.379 38.6473 169.568 39.3317 168.525 39.5633C168.062 39.6686 167.772 40.0897 167.876 40.5108C167.992 40.9319 168.455 41.195 168.919 41.1003C170.599 40.7318 171.92 39.5844 172.28 38.1737C172.766 36.2471 171.33 34.4573 169.73 33.7519C167.54 32.7834 164.968 33.8467 163.507 35.2469C162.071 36.6261 161.514 38.7 161.966 40.9214C162.453 43.2902 164.272 45.3641 166.717 46.5011C164.133 46.8906 161.584 46.301 159.788 44.8166C156.23 41.8689 157.54 37.0787 158.733 34.9416C158.756 34.8995 161.433 30.2146 167.042 29.9409C171.237 29.7303 175.212 31.9728 176.683 35.3838C178.306 39.1317 176.81 43.8902 173.554 45.3746C171.943 46.1116 170.263 45.8484 169.696 45.7642L169.684 45.7536ZM180.044 48.1329C179.441 49.0172 178.63 49.7752 177.703 50.3226C176.614 50.9543 174.423 51.923 171.967 51.2281C170.843 50.9123 170.008 50.3332 169.417 49.7962C169.893 49.1225 170.194 48.3329 170.321 47.4275C171.318 47.5012 172.813 47.4802 174.331 46.7853C177.297 45.4378 179.082 42.1005 179.082 38.6474C179.082 37.942 179.001 37.2261 178.838 36.5207C182.048 35.2574 184.308 32.7097 184.806 29.7093C184.864 29.3408 184.911 28.9302 184.911 28.4986C184.911 28.2249 184.887 27.9301 184.853 27.6354C186.602 28.9092 188.688 30.0251 191.075 30.9726C190.172 32.6044 189.163 33.8362 188.642 34.4573C187.031 36.3944 185.826 37.0892 184.76 37.6998C183.613 38.3631 182.524 38.9842 181.562 40.8476C180.612 42.6795 180.461 44.343 180.322 45.9432C180.252 46.6801 180.194 47.4065 180.055 48.1434L180.044 48.1329ZM152.997 15.76C152.997 15.76 153.067 15.7389 153.113 15.7284C153.171 15.7178 153.217 15.7074 153.263 15.6864C153.287 15.6864 153.298 15.6653 153.321 15.6547L153.345 15.6547C156.033 14.1282 163.021 10.7909 170.008 12.6649C170.831 12.886 172.546 13.3491 174.331 14.5387C176.672 16.0968 177.703 17.9393 178.688 19.8975C176.185 18.5499 172.662 17.5182 169.846 19.2131C168.374 20.0975 167.61 21.445 167.204 22.6241C165.547 22.2241 163.855 21.9819 162.152 21.9187C160.529 21.8661 156.207 21.7188 152.742 23.4348C148.003 25.7825 146.728 30.6989 145.117 36.9313C144.677 38.6158 144.283 40.1318 143.981 41.532C142.857 41.3846 140.841 40.9003 139.578 39.3001C137.944 37.2577 138.651 34.7942 138.987 33.6151C139.752 30.9515 141.722 29.2987 142.834 28.5513C143.124 28.3618 143.24 28.0354 143.159 27.7195C142.95 26.9826 142.081 23.1399 144.897 19.6658C147.748 16.1495 152.105 15.8021 152.951 15.7705L152.974 15.7705C152.985 15.7705 153.009 15.7705 153.02 15.7705L152.997 15.76ZM185.896 72.8732C184.192 77.7265 178.456 80.3795 173.925 80.4111C172.558 80.4111 171.909 80.1794 170.924 79.811C169.765 79.3793 168.328 78.8424 165.246 78.4844C163.45 78.2739 162.047 78.2423 160.923 78.2213C159.104 78.1791 158.003 78.1581 156.694 77.4738C155.257 76.7263 154.121 75.4631 153.298 73.726C154.654 73.8102 156.114 73.568 157.644 73.0311C159.822 74.8209 162.291 76.0315 164.944 76.2526C166.995 76.421 168.873 75.9894 169.232 75.8947C171.225 75.3998 172.245 74.6208 173.334 73.7996C174.122 73.1996 175.026 72.5152 176.486 71.7993C178.039 71.0413 179.117 70.7782 180.067 70.5571C181.237 70.2729 182.257 70.0307 183.427 68.9885C184.366 68.1568 185.05 67.0829 185.525 65.8406C186.266 67.6198 186.834 70.157 185.884 72.8521L185.896 72.8732ZM182.477 63.314C180.206 63.8404 178.433 64.2826 176.996 64.6405C172.986 65.6407 171.781 65.9459 169.487 65.5774C168.038 65.3458 165.338 64.9143 163.322 62.8087C162.117 61.5454 161.584 60.1345 161.352 58.9975C164.388 58.6712 166.799 57.6816 168.201 56.9657C168.595 57.8501 169.267 58.8081 170.391 59.503C173.45 61.3664 177.436 59.6609 178.584 59.1029C179.835 58.4818 180.415 57.8922 181.029 57.2711C181.539 56.7447 182.06 56.2077 183.126 55.5129C184.54 54.597 185.351 54.4075 186.209 54.2075C187.008 54.0285 187.831 53.8389 188.955 53.1125C192.64 50.7754 194.123 46.3116 195.687 41.5741L195.838 41.1108C196.197 39.9844 196.522 39.0159 197.379 37.8789C198.109 36.9208 199.059 36.0786 200.184 35.3732C199.477 39.9318 199.5 42.89 199.523 45.3114C199.546 48.3855 199.569 50.4175 197.959 53.7232C197.008 55.6603 195.583 58.587 192.281 60.661C192.176 60.7242 192.084 60.7768 191.991 60.8295C191.991 60.8295 191.991 60.8295 191.979 60.8295C190.809 61.5138 189.917 61.7033 187.193 62.2823C186 62.535 184.494 62.8508 182.477 63.314ZM206.29 27.9302C208.423 32.6782 207.53 36.8893 205.757 45.2905C204.448 51.4703 203.776 54.2917 201.389 56.5867C199.929 57.9869 198.051 59.0818 195.884 59.8293C197.796 57.8921 198.851 55.7761 199.546 54.3549C201.319 50.7333 201.285 48.4488 201.261 45.2905C201.238 42.648 201.204 39.3528 202.177 33.952L202.281 33.3835C202.594 31.7096 202.953 29.7093 202.953 27.1721C202.953 26.5404 202.93 25.8771 202.884 25.1823C202.814 24.319 202.756 23.4979 202.652 22.7083C204.216 24.298 205.433 26.0456 206.279 27.9406L206.29 27.9302ZM199.187 18.2656C200.763 20.0659 200.937 22.3609 201.157 25.2771C201.412 28.6039 200.948 31.0989 200.578 33.1097L200.543 33.3204C198.631 34.2679 197.09 35.4785 195.954 36.963C194.934 38.3105 194.563 39.4475 194.181 40.6477L194.03 41.1003C192.489 45.7536 191.157 49.7752 187.97 51.7966C187.101 52.3545 186.521 52.4809 185.78 52.6494C184.853 52.8599 183.798 53.102 182.118 54.1969C180.901 54.997 180.275 55.6287 179.731 56.1867C179.163 56.7762 178.746 57.1973 177.761 57.6815C176.822 58.1448 173.612 59.5345 171.364 58.1659C170.738 57.7869 170.321 57.2711 170.032 56.7447C172.164 56.9552 175.096 56.8289 177.552 55.155C178.352 54.6075 179.093 53.86 179.812 52.8704C181.689 50.2806 181.875 48.1329 182.06 46.0484C182.199 44.5219 182.326 43.0795 183.138 41.5004C183.891 40.0581 184.609 39.637 185.698 39.0158C186.834 38.3631 188.236 37.5525 190.044 35.3838C191.191 33.9941 194.61 29.8883 194.61 24.6455C194.61 24.456 194.61 24.2665 194.598 24.077C194.436 20.666 192.825 18.1287 190.403 15.3494C192.79 15.3073 196.916 15.6547 199.199 18.2551L199.187 18.2656ZM141.641 11.2541C142.811 10.2645 144.538 10.1487 145.036 10.1382C145.65 10.1277 146.16 10.2119 146.693 10.2961C147.574 10.4435 148.501 10.6014 149.822 10.2961C149.857 10.2961 150.703 10.096 151.548 9.66437C153.901 8.48526 154.955 6.2324 155.569 4.88484C155.697 4.61112 155.801 4.37949 155.906 4.20052C156.786 2.65293 159.915 1.38964 163.878 0.958C169.8 0.326339 178.572 1.5265 183.787 7.00094C184.992 8.2748 185.93 9.74859 186.66 11.3699C179.626 4.411 172.755 2.73713 170.008 2.86346C169.441 2.88452 167.946 2.94775 166.532 3.85314C165.246 4.67431 164.562 5.81123 164.18 6.80084C162.685 6.50607 159.927 6.27451 157.169 7.64312C153.669 9.3802 152.545 12.4333 152.197 13.9809C150.042 13.5176 145.314 12.8648 140.331 14.5177C140.331 13.5491 140.551 12.1595 141.652 11.2435L141.641 11.2541ZM129.809 27.5827C130.041 27.4774 130.215 27.2879 130.273 27.0563C130.841 24.9297 132.44 20.9397 136.762 18.034C140.853 15.2757 145.384 14.9178 148.571 15.1178C146.879 15.76 144.99 16.8654 143.472 18.7393C140.621 22.2556 141.027 26.0983 141.328 27.6037C140.042 28.5618 138.199 30.3304 137.353 32.994C136.078 32.9413 134.224 33.0888 132.44 34.11C130.145 35.4154 129.323 37.4156 128.824 38.6052C127.237 42.3952 128.303 45.9326 128.813 47.6381C129.67 50.5227 131.13 52.5967 131.93 53.5653C133.668 55.6814 135.279 56.6183 136.983 57.6079C137.713 58.029 138.466 58.4711 139.254 59.0186C140.447 59.8503 141.398 60.7346 142.197 61.64C139.798 61.4716 136.809 60.84 133.946 59.0713C129.276 56.1972 127.677 51.9229 126.912 49.87C125.823 46.9433 125.452 43.7428 125.846 40.6161C125.869 40.4371 125.823 40.2581 125.719 40.1107C125.105 39.2054 123.749 36.7734 124.444 33.7414C125.36 29.7303 129.079 27.9196 129.809 27.5932L129.809 27.5827Z" fill="#DFD4CF" fill-opacity="0.05"/>
    <path d="M90.8401 42.8366C90.8401 42.8366 90.8401 42.9103 90.8401 42.9418C90.8749 44.342 91.6977 45.0264 92.3814 45.3633C93.5518 45.9423 95.232 45.8897 96.3676 45.258C98.0826 44.3 98.6735 43.7841 99.728 42.8471L99.8208 42.763C100.006 42.5945 100.203 42.4261 100.4 42.2471C101.269 41.4786 102.173 40.6784 102.753 40.3415C102.787 40.3415 102.834 40.31 102.868 40.2784L102.915 40.2573L102.915 40.1836L102.915 40.1205L102.88 40.0994C102.88 40.0994 102.799 40.0468 102.764 40.0363C102.185 39.6994 101.281 38.8992 100.412 38.1307C100.215 37.9623 100.029 37.7833 99.8324 37.6149L99.7396 37.5307C98.6735 36.5937 98.0942 36.0883 96.3792 35.1198C95.2436 34.4776 93.5634 34.4355 92.393 35.0145C91.7093 35.3514 90.8864 36.0462 90.8517 37.4358C90.8517 37.4674 90.8517 37.5096 90.8517 37.5412C90.8517 39.2678 92.0453 39.9309 92.9492 40.1941C92.0453 40.4468 90.8517 41.1206 90.8517 42.8471L90.8401 42.8366Z" fill="#DFD4CF" fill-opacity="0.05"/>
    <path d="M231.121 37.9741C230.09 38.7636 228.989 39.4901 227.842 40.1428L227.645 40.2481L227.842 40.3639C229.128 41.1114 230.368 41.9536 231.515 42.8484C232.315 43.4801 233.091 44.1433 233.81 44.8276L233.914 44.9224L234.018 44.8276C235.003 43.9223 236.058 43.0591 237.159 42.2695C238.086 41.5957 239.071 40.9534 240.079 40.3639L240.264 40.2586L240.079 40.1428C239.106 39.5533 238.155 38.911 237.251 38.2372C236.127 37.4056 235.061 36.5002 234.053 35.5527L233.949 35.4474L233.844 35.5527C232.999 36.4055 232.083 37.216 231.11 37.9635L231.121 37.9741Z" fill="#DFD4CF" fill-opacity="0.05"/>
    <path d="M233.431 -44.4292L98.3258 -44.4292C97.7348 -51.1565 91.5354 -56.4624 83.98 -56.4624C76.4245 -56.4624 70.5145 -51.388 69.6802 -44.8924C63.0518 -44.8608 56.5626 -44.0186 50.3746 -42.3762C40.4321 -39.7443 31.8567 -35.6491 24.927 -30.3325C23.351 -30.9221 21.7288 -31.28 20.0833 -31.3642C12.0528 -31.7748 6.47905 -25.8688 5.43612 -24.6791C0.267857 -18.7625 -0.334941 -9.58225 4.04535 -3.32875C4.7754 -2.27597 5.81842 -1.09686 7.04676 -0.0335522L7.04677 13.5368C4.14976 13.8526 1.90174 16.0739 1.90174 18.7796C1.90175 21.7063 4.52069 24.0856 7.74217 24.0856C10.9637 24.0856 13.5826 21.7063 13.5826 18.7796C13.5826 16.1792 11.5082 14.0211 8.78498 13.5684L8.78497 1.3035C10.7318 2.59841 12.9336 3.38802 15.0195 2.90374C16.5491 2.55632 17.1863 1.69304 18.3451 0.134928C18.8666 -0.559906 19.5156 -1.43375 20.431 -2.53917C20.9061 -3.1182 25.2865 -8.28731 31.2659 -12.3826C33.5488 -13.9407 36.0401 -15.3304 38.7054 -16.499C38.717 -16.499 38.7286 -16.5096 38.7402 -16.5201C41.1157 -17.1939 42.854 -19.1835 42.854 -21.5628C42.854 -24.4895 40.235 -26.8688 37.0136 -26.8688C33.7921 -26.8688 31.1731 -24.4895 31.1731 -21.5628C31.1731 -19.2362 32.8417 -17.278 35.1362 -16.5621C33.4211 -15.6673 31.7641 -14.6988 30.2229 -13.646C25.9932 -10.7404 22.5399 -7.32928 20.6279 -5.27637C19.8283 -9.0032 19.4228 -13.2249 20.3846 -15.3515C20.57 -15.7516 20.8946 -16.4884 21.6594 -16.8148C22.1809 -17.0359 23.2469 -17.1517 23.861 -16.5516C24.0001 -16.4042 24.116 -16.2358 24.1855 -16.0568C24.0349 -16.0884 23.8844 -16.1095 23.7337 -16.1095C22.6908 -16.1095 21.8447 -15.341 21.8447 -14.3935C21.8447 -13.446 22.6908 -12.6774 23.7337 -12.6774C24.2784 -12.6774 24.765 -12.888 25.101 -13.2249C25.1242 -13.2459 25.1474 -13.2564 25.1706 -13.2775C25.2054 -13.3196 25.2284 -13.3617 25.2631 -13.3932C25.2863 -13.4248 25.3096 -13.4565 25.3327 -13.4775C25.7962 -14.0882 26.0397 -14.7935 26.0397 -15.4778C26.0397 -16.2569 25.7384 -17.0253 25.1474 -17.6044C23.977 -18.7519 22.146 -18.7415 20.9408 -18.2361C19.5502 -17.6571 19.0058 -16.4569 18.774 -15.9305C17.2791 -12.6142 18.6232 -6.10804 19.2142 -3.67612C19.1447 -3.5919 19.0869 -3.51827 19.0521 -3.47616C18.1135 -2.33916 17.4528 -1.45485 16.9198 -0.73896C15.7958 0.77704 15.4597 1.18763 14.6138 1.37713C11.5314 2.08249 7.45228 -1.44433 5.54025 -4.17103C1.54237 -9.88761 2.09871 -18.2887 6.82663 -23.7C7.76527 -24.7843 12.8291 -30.1535 20.0137 -29.7851C21.1841 -29.7219 22.3313 -29.5114 23.4669 -29.1534C19.4343 -25.8372 16.0044 -22.0682 13.2581 -17.8992C11.2649 -14.8777 9.63078 -11.6351 8.39086 -8.25568C8.19387 -7.70824 8.51848 -7.10827 9.12106 -6.9293C9.72364 -6.75033 10.3842 -7.04511 10.5812 -7.59255C11.7631 -10.8246 13.3275 -13.9302 15.228 -16.8148C22.5632 -27.9532 34.9391 -36.0912 51.0349 -40.355C56.9912 -41.9342 63.2372 -42.7447 69.6222 -42.7868C69.9699 -35.849 76.2739 -30.3009 83.9916 -30.3009C91.7092 -30.3009 97.7349 -35.607 98.3374 -42.3342L233.443 -42.3342C234.034 -35.6175 240.233 -30.3009 247.789 -30.3009C255.344 -30.3009 261.787 -35.8279 262.158 -42.7447C268.543 -42.7026 274.8 -41.892 280.756 -40.3128C296.852 -36.0491 309.229 -27.9111 316.564 -16.7727C318.464 -13.8776 320.029 -10.7824 321.211 -7.5504C321.408 -7.00296 322.068 -6.69765 322.671 -6.88715C323.157 -7.03454 323.459 -7.44507 323.459 -7.88724C323.459 -7.99251 323.435 -8.10839 323.401 -8.2242C322.161 -11.6036 320.527 -14.8461 318.534 -17.8675C315.787 -22.0365 312.357 -25.8056 308.325 -29.1218C309.46 -29.4692 310.607 -29.6903 311.778 -29.7535C318.951 -30.1219 324.015 -24.7527 324.965 -23.6684C329.693 -18.2466 330.249 -9.856 326.251 -4.13941C324.339 -1.40219 320.26 2.12463 317.178 1.40874C316.32 1.20872 315.996 0.808653 314.86 -0.707348C314.327 -1.42324 313.667 -2.30754 312.728 -3.44454C312.693 -3.48666 312.635 -3.56042 312.566 -3.64464C312.96 -5.26592 313.678 -8.68743 313.678 -11.7826C313.678 -13.3302 313.493 -14.7934 313.006 -15.8989C312.774 -16.4147 312.23 -17.6149 310.839 -18.194C309.634 -18.6993 307.803 -18.7099 306.633 -17.5623C305.52 -16.4674 305.462 -14.7303 306.459 -13.4354C306.482 -13.4038 306.505 -13.3723 306.528 -13.3407C306.563 -13.2986 306.586 -13.2565 306.621 -13.2249C306.644 -13.2038 306.668 -13.1933 306.691 -13.1722C307.038 -12.8353 307.525 -12.6247 308.058 -12.6247C309.101 -12.6247 309.947 -13.3933 309.947 -14.3408C309.947 -15.2883 309.101 -16.0568 308.058 -16.0568C307.896 -16.0568 307.745 -16.0358 307.595 -16.0042C307.664 -16.1832 307.768 -16.3622 307.919 -16.499C308.533 -17.0991 309.599 -16.9833 310.121 -16.7622C310.886 -16.4464 311.222 -15.6989 311.396 -15.2988C312.346 -13.1722 311.94 -8.95064 311.152 -5.22381C309.24 -7.27672 305.787 -10.6982 301.557 -13.5933C300.016 -14.6566 298.359 -15.6252 296.644 -16.5096C298.938 -17.2254 300.607 -19.1836 300.607 -21.5102C300.607 -24.437 297.988 -26.8162 294.767 -26.8162C291.545 -26.8162 288.926 -24.437 288.926 -21.5102C288.926 -19.131 290.676 -17.1307 293.052 -16.4674C293.052 -16.4674 293.063 -16.4568 293.075 -16.4463C295.728 -15.2777 298.231 -13.8882 300.503 -12.3301C306.482 -8.23475 310.862 -3.06551 311.338 -2.48648C312.253 -1.38106 312.902 -0.517874 313.423 0.187487C314.582 1.7456 315.219 2.59835 316.749 2.9563C318.823 3.43005 321.025 2.64044 322.984 1.35606L322.984 13.6209C320.26 14.0736 318.186 16.2319 318.186 18.8323C318.186 21.759 320.805 24.1382 324.026 24.1382C327.248 24.1382 329.867 21.759 329.867 18.8323C329.867 16.1161 327.607 13.9053 324.722 13.5895L324.722 0.0191363C325.939 -1.04417 326.981 -2.22329 327.723 -3.27606C329.681 -6.07645 330.643 -9.4664 330.643 -12.8879C330.643 -17.099 329.183 -21.3628 326.332 -24.637C325.301 -25.8266 319.716 -31.7327 311.685 -31.3221C310.04 -31.2379 308.417 -30.8799 306.841 -30.2904C299.912 -35.6174 291.336 -39.7023 281.394 -42.3342C275.206 -43.9766 268.717 -44.8081 262.077 -44.8502C261.266 -51.3775 255.17 -56.4624 247.777 -56.4624C240.384 -56.4624 234.034 -51.1565 233.431 -44.4292ZM11.856 18.7901C11.856 20.843 10.0134 22.517 7.75377 22.517C5.4941 22.517 3.65155 20.843 3.65155 18.7901C3.65155 16.7372 5.49409 15.0632 7.75376 15.0632C10.0134 15.0632 11.856 16.7372 11.856 18.7901ZM32.9114 -21.5523C32.9114 -23.6052 34.7539 -25.2791 37.0136 -25.2791C39.2732 -25.2791 41.1158 -23.6052 41.1158 -21.5523C41.1158 -19.4994 39.2732 -17.8255 37.0136 -17.8255C34.7539 -17.8255 32.9114 -19.4994 32.9114 -21.5523ZM290.653 -21.5102C290.653 -23.5632 292.495 -25.237 294.755 -25.237C297.015 -25.237 298.857 -23.5632 298.857 -21.5102C298.857 -19.4573 297.015 -17.7834 294.755 -17.7834C292.495 -17.7834 290.653 -19.4573 290.653 -21.5102ZM328.129 18.8217C328.129 20.8746 326.286 22.5485 324.026 22.5485C321.767 22.5485 319.924 20.8746 319.924 18.8217C319.924 16.7688 321.767 15.0949 324.026 15.0949C326.286 15.0949 328.129 16.7688 328.129 18.8217ZM83.9916 -32.4065C77.3284 -32.4065 71.905 -37.3335 71.905 -43.387C71.905 -49.4405 77.3284 -54.3674 83.9916 -54.3674C90.6547 -54.3674 96.0778 -49.4405 96.0778 -43.387C96.0778 -37.3335 90.6547 -32.4065 83.9916 -32.4065ZM259.863 -43.3765C259.863 -37.323 254.44 -32.3959 247.777 -32.3959C241.114 -32.3959 235.691 -37.323 235.691 -43.3765C235.691 -49.4299 241.114 -54.3569 247.777 -54.3569C254.44 -54.3569 259.863 -49.4299 259.863 -43.3765Z" fill="#DFD4CF" fill-opacity="0.05"/>
    <path d="M29.3286 62.7536C32.2604 64.4064 35.6327 64.0169 37.8808 63.4274C38.9816 64.7854 40.7313 66.3435 43.2575 66.8489C48.3099 67.8595 53.4435 63.9432 55.286 59.7321C55.8423 58.4793 56.1203 57.1211 56.1203 55.7104C56.1203 55.6894 56.1203 55.6684 56.1203 55.6473C56.8272 55.1209 57.5225 54.4997 58.1482 53.7312C58.8783 52.8468 59.3881 51.9204 59.7705 50.994C60.4078 51.8257 61.1726 52.5521 62.0533 53.1312C65.6456 55.4894 69.7824 54.7841 70.976 54.5104C71.3121 54.4367 71.5438 54.1629 71.5438 53.8471C71.5438 53.8471 71.5438 53.8366 71.5438 53.826C71.5438 53.5102 71.2775 53.2365 70.9299 53.1733C69.2844 52.8891 66.8277 52.1731 64.5565 50.3518C62.7371 48.899 61.6826 47.2567 61.0568 45.8986L66.7001 44.93C66.9782 44.8879 67.1984 44.6984 67.2795 44.4563C67.3606 44.2141 67.2796 43.9509 67.0826 43.7719L64.3129 41.3296L72.1003 41.3296C72.5175 41.3296 72.8534 41.0242 72.8534 40.6452C72.8534 40.2662 72.5175 39.9609 72.1003 39.9609L64.3941 39.9609L67.187 37.6132C67.3492 37.4869 67.4303 37.2974 67.4303 37.1079C67.4303 37.0342 67.4186 36.971 67.3955 36.8973C67.3028 36.6446 67.0594 36.4552 66.7697 36.4236L60.9292 35.7498C61.5318 34.3496 62.5981 32.5809 64.5449 31.0228C66.8277 29.191 69.2728 28.475 70.9183 28.2013C71.2659 28.1382 71.5209 27.875 71.5325 27.5486C71.5325 27.5486 71.5325 27.5382 71.5325 27.5277C71.5325 27.2118 71.3004 26.9381 70.9644 26.8644C69.7824 26.5907 65.6339 25.8852 62.0416 28.2435C61.1725 28.812 60.4078 29.5384 59.7704 30.3596C59.4691 29.2647 58.9942 28.2224 58.1598 27.1802C57.4182 26.2432 56.4678 25.4432 55.3901 24.7694C55.2279 22.8849 54.5211 19.6528 51.6704 17.0208C51.4386 16.7997 45.8765 11.7464 40.8009 13.8941C38.97 14.6626 37.8807 16.0839 37.2549 17.2946C36.0498 17.0629 34.7286 16.9788 33.3148 17.1893C33.0599 17.2314 26.93 18.1894 25.3772 22.8322C24.8325 24.4535 25.0411 25.9695 25.3888 27.096C24.5313 27.5381 23.7433 28.1172 23.1176 28.8331C21.1128 31.1492 21.4025 33.8758 21.6227 34.9286C20.7536 35.9077 18.6212 38.7818 19.3976 42.3718C19.78 44.1615 20.7535 45.4985 21.5995 46.3723C20.7767 49.3201 22.063 52.4047 24.7862 54.1523C24.7978 55.5315 25.1685 60.4164 29.3054 62.7536L29.3286 62.7536ZM53.8836 59.2268C52.2613 62.9326 47.7305 66.3435 43.582 65.5118C41.7047 65.1328 40.3256 64.0274 39.387 62.9535C40.8471 62.4166 41.7626 61.7534 42.6433 61.1112C43.7442 60.3111 44.7754 59.5636 46.9308 58.932C47.9506 58.6372 48.5301 58.574 49.1095 58.5108C49.7816 58.4371 50.4769 58.353 51.682 57.9319C52.273 57.7213 53.3391 57.3423 54.5558 56.6685C54.4631 57.5633 54.2429 58.4267 53.8836 59.2268ZM51.1374 56.6579C50.1061 57.0264 49.5499 57.0896 48.9126 57.1632C48.2984 57.2369 47.6146 57.3107 46.4674 57.6476C44.0455 58.353 42.7941 59.2583 41.6933 60.0584C40.7778 60.7216 39.9202 61.3428 38.4486 61.8376C36.5829 62.4483 33.0367 63.2379 30.1281 61.6061C27.1848 59.9532 26.5127 56.679 26.362 54.963C29.1779 56.0263 32.4226 55.542 34.7633 53.6892C38.8076 54.2787 44.1382 53.9103 48.7966 52.5311C53.9185 51.0151 57.5455 48.52 59.1794 45.4249C59.2258 47.6568 58.9246 50.4887 56.9314 52.9207C54.9615 55.321 52.1803 56.3 51.1258 56.6685L51.1374 56.6579ZM24.2764 43.6983C24.5197 42.3718 25.3425 41.4664 26.0262 40.9084C26.0609 41.1084 26.0724 41.3084 26.1303 41.4979C26.3852 42.5086 26.849 43.4456 27.4979 44.2983C27.0691 45.3616 26.6402 47.0777 27.2659 48.8569C26.5706 48.5516 25.7942 48.0568 25.1916 47.2462C24.8092 46.7514 23.9751 45.4038 24.288 43.6878L24.2764 43.6983ZM25.7249 32.7389C26.397 32.3072 27.1038 32.1493 27.7064 32.1072C26.0029 34.318 25.887 37.6764 25.8986 38.9503C25.296 38.5818 24.45 37.8974 24.1256 36.8026C23.6736 35.2971 24.3227 33.6337 25.7249 32.7494L25.7249 32.7389ZM58.6348 40.7399C58.5653 41.8138 58.1714 44.2247 56.1203 45.4985C55.0426 46.1618 53.0727 46.7303 49.7817 45.6986C45.5289 44.3616 43.3153 40.8347 41.16 37.4237C38.993 33.9916 36.9419 30.7492 33.0135 30.1596C31.8084 29.9806 30.8814 30.1279 30.2325 30.328C30.4295 29.8542 30.696 29.4437 31.0552 29.1174C32.3531 27.9172 34.5085 27.9276 37.7763 28.3382C46.5948 29.4436 51.0216 30.0016 54.1504 32.8441C56.3753 34.8654 57.9164 37.5921 58.6348 40.7399ZM30.4062 31.7177C31.0551 31.444 31.8895 31.3702 32.7818 31.4965C36.0033 31.9703 37.7996 34.8023 39.8623 38.0869C40.0824 38.4343 40.314 38.8028 40.5458 39.1608L38.4137 39.1608C38.2747 38.3607 38.0081 37.7185 37.7995 37.3079C37.4635 36.6552 36.1772 34.476 33.4424 33.718C32.9905 33.5917 32.0636 33.3284 30.9743 33.4863C29.8271 33.6547 28.7608 34.2548 27.8801 35.1918C28.2741 33.7495 29.0156 32.3072 30.4062 31.7177ZM31.7042 45.7301C30.9742 45.6353 30.3715 45.2669 29.8848 44.8563C30.5337 44.7511 31.2522 44.53 31.9359 44.0668C33.9175 42.7297 34.1955 40.3399 33.6277 38.6871C33.0947 37.1079 32.0982 36.0972 30.8351 35.834C30.3021 35.7182 29.7575 35.7393 29.2129 35.8761C29.8155 35.3076 30.4991 34.9391 31.2176 34.8339C31.9592 34.7286 32.6427 34.9181 33.0135 35.0129C35.1457 35.6024 36.1773 37.35 36.4438 37.8764C36.7451 38.466 37.2201 39.6766 36.9304 41.0978C36.4669 43.4455 34.0334 46.0249 31.7042 45.7196L31.7042 45.7301ZM27.5092 39.8451C27.5092 39.8451 27.4399 39.7925 27.4167 39.7609C27.4167 39.6557 27.4167 39.5609 27.4167 39.4556C27.4167 39.4556 27.4399 39.4556 27.4515 39.4345C28.3669 38.7502 29.2708 38.7291 29.433 38.8765C29.5257 38.9502 29.6068 39.3292 29.4446 39.803C29.3055 40.2346 29.0157 40.5715 28.7376 40.6136C28.4131 40.6663 27.8684 40.3925 27.5092 39.824L27.5092 39.8451ZM29.0157 41.9717C29.8732 41.8243 30.5686 41.161 30.8815 40.203C30.9742 39.9188 31.032 39.6029 31.032 39.2871C31.032 38.7712 30.8814 38.266 30.4642 37.8975C30.0934 37.5711 29.5603 37.4342 28.9693 37.4553C29.4908 37.1816 30.0355 37.0763 30.4758 37.171C31.1943 37.3184 31.7968 38.0028 32.1676 39.0977C32.5964 40.3505 32.3414 42.077 31.0088 42.9718C30.2208 43.4982 29.3402 43.5825 28.726 43.5614C28.3204 43.0245 27.9962 42.456 27.776 41.8454C28.1816 41.9928 28.5985 42.0454 28.9925 41.9717L29.0157 41.9717ZM29.966 48.6885C29.039 47.9726 28.842 46.7934 28.8652 45.8564C29.5257 46.4249 30.3948 46.9408 31.4841 47.0777C34.7172 47.5093 37.8112 44.4142 38.4137 41.3506C38.4717 41.0664 38.495 40.8032 38.5065 40.54L40.4765 40.54C39.0743 44.0036 36.1541 49.0569 32.6313 49.3096C32.2142 49.3411 30.9278 49.4254 29.9776 48.699L29.966 48.6885ZM29.9196 50.2571C30.7192 50.594 31.6577 50.7414 32.7354 50.6677C37.5097 50.3413 40.6386 44.0142 41.8438 41.0874C43.6399 43.5825 45.8763 45.9091 49.2948 46.983C52.4931 47.9936 54.695 47.6567 56.1319 47.0461C54.359 48.7937 51.7053 50.2256 48.3216 51.2257C41.925 53.1102 33.9408 53.0364 30.8931 51.0467C30.5107 50.794 30.1861 50.5308 29.908 50.2571L29.9196 50.2571ZM63.5598 51.3624C64.6722 52.2468 65.808 52.8995 66.8973 53.3838C65.6458 53.247 64.2434 52.868 62.934 52.0153C61.8563 51.3099 60.9524 50.3308 60.3267 49.2043C60.4194 48.8148 60.4888 48.4253 60.5468 48.0357C61.2536 49.1412 62.2156 50.2991 63.5598 51.373L63.5598 51.3624ZM64.9851 37.5921L61.9607 40.1294C61.9607 40.1294 61.9607 40.1294 61.9607 40.1399C61.9144 40.182 61.8679 40.2347 61.8332 40.2979C61.8216 40.3189 61.7983 40.3399 61.7868 40.361C61.7636 40.4136 61.7519 40.4663 61.7404 40.5294C61.7404 40.561 61.7172 40.5926 61.7172 40.6241C61.7172 40.8136 61.8101 40.9821 61.9491 41.1084L64.9967 43.8036L60.6628 44.551C60.6396 44.1404 60.6163 43.7615 60.5932 43.414C60.5236 42.4876 60.3847 41.5612 60.1645 40.6558C60.3847 39.4661 60.4891 38.2659 60.5238 37.0763L64.9851 37.5921ZM60.2802 32.2441C60.906 31.0755 61.8215 30.0754 62.934 29.3489C64.2434 28.4962 65.6457 28.1171 66.8973 27.9803C65.808 28.4646 64.6606 29.1173 63.5598 30.0017C62.0997 31.1702 61.0799 32.4546 60.3614 33.6442C60.3035 33.2021 60.2457 32.781 60.1877 32.3599C60.2225 32.3178 60.2571 32.2862 60.2802 32.2441ZM41.4612 15.1364C45.5866 13.3994 50.5812 17.9368 50.6276 17.9789C52.7018 19.8949 53.4898 22.2005 53.7911 23.8955C53.6752 23.8429 53.5593 23.7797 53.4434 23.727C52.1455 23.2112 51.2995 23.1376 50.4768 23.0639C49.8394 23.0112 49.1674 22.9481 48.194 22.6638C46.6759 22.2111 46.004 21.6847 45.1349 21.0109C44.428 20.4635 43.6284 19.8318 42.2494 19.1369C41.4035 18.7053 40.2099 18.1053 38.7614 17.6631C39.2945 16.7262 40.1402 15.6944 41.4612 15.1364ZM26.8373 23.2217C28.1235 19.3896 33.5237 18.5474 33.5816 18.5369C36.9653 18.0316 39.9317 19.537 41.5192 20.3371C42.7592 20.9688 43.4777 21.5162 44.1614 22.0531C45.0768 22.7585 45.9344 23.4323 47.7306 23.9693C48.8662 24.3062 49.6426 24.3693 50.3379 24.4324C51.1027 24.4956 51.7631 24.5588 52.8408 24.9904C54.5327 25.6642 55.9581 26.6959 56.9662 27.9697C58.3568 29.7173 58.5768 31.444 58.8781 33.8443C59.0172 34.9497 59.0753 36.0656 59.0405 37.1815C58.1367 35.1392 56.8504 33.3285 55.2396 31.8651C51.7516 28.6962 47.151 28.1172 38.008 26.9697C36.2235 26.7486 34.4971 26.6012 32.9906 26.8328C32.8979 26.6854 32.7587 26.5695 32.5733 26.5169C30.6265 25.9168 28.6102 25.9695 26.8141 26.5169C26.5591 25.6115 26.4317 24.4429 26.8489 23.2217L26.8373 23.2217ZM24.3225 29.6752C25.8058 27.9592 28.3089 27.1697 30.8235 27.5382C30.5338 27.7066 30.2441 27.9066 29.9892 28.1488C29.2592 28.812 28.7956 29.6963 28.5523 30.7386C27.6021 30.6754 26.1884 30.7702 24.8674 31.6124C24.0446 32.1388 23.4188 32.8758 23.0132 33.6969C22.9552 32.6126 23.1405 31.0544 24.3341 29.6752L24.3225 29.6752ZM20.9041 42.1086C20.3247 39.4345 21.6806 37.2237 22.515 36.1709C22.5381 36.5078 22.5844 36.8341 22.6887 37.1605C23.1174 38.5712 24.1139 39.4661 24.9251 39.9925C24.0676 40.7084 23.106 41.8453 22.8047 43.4666C22.6656 44.2141 22.7004 44.8879 22.8047 45.4985C22.0862 44.7616 21.2401 43.6351 20.9041 42.1086ZM23.1292 46.6145C23.3957 47.2672 23.7201 47.762 23.9403 48.0357C25.3309 49.8571 27.3704 50.4466 28.2974 50.6255C28.7378 51.1414 29.3056 51.6888 30.024 52.152C30.7425 52.6258 31.6926 52.9943 32.805 53.2786C30.7192 54.405 28.0888 54.4366 25.9682 53.2259C23.5115 51.8257 22.376 49.1306 23.1292 46.604L23.1292 46.6145Z" fill="#DFD4CF" fill-opacity="0.05"/>
    <path d="M300.733 17.6334C297.801 15.9805 294.429 16.3701 292.181 16.9596C291.08 15.6015 289.33 14.0434 286.804 13.5381C281.752 12.5274 276.618 16.4438 274.776 20.6549C274.22 21.9287 273.953 23.3079 273.953 24.7397C273.246 25.266 272.551 25.8977 271.925 26.6662C271.195 27.5505 270.674 28.4664 270.291 29.3928C269.654 28.5717 268.889 27.8348 268.008 27.2663C264.416 24.9081 260.268 25.6134 259.086 25.8871C258.738 25.9608 258.506 26.2556 258.518 26.5715C258.518 26.8873 258.784 27.161 259.132 27.2242C260.778 27.5084 263.234 28.2243 265.506 30.0456C267.325 31.4984 268.379 33.1408 269.005 34.4989L263.362 35.4674C263.084 35.5095 262.863 35.6991 262.782 35.9412C262.701 36.1834 262.782 36.4465 262.979 36.6254L265.737 39.0679L257.95 39.0679C257.533 39.0679 257.197 39.3733 257.197 39.7523C257.197 40.1313 257.533 40.4366 257.95 40.4366L265.656 40.4366L262.863 42.7843C262.643 42.9632 262.574 43.2474 262.655 43.5001C262.748 43.7528 262.991 43.9423 263.281 43.9739L269.121 44.6477C268.518 46.0479 267.452 47.8166 265.506 49.3747C263.223 51.196 260.778 51.9223 259.132 52.196C258.784 52.2592 258.53 52.5224 258.518 52.8488C258.495 53.1751 258.738 53.4594 259.086 53.5331C260.268 53.8068 264.405 54.5121 268.008 52.1539C268.878 51.5854 269.642 50.8591 270.28 50.0379C270.581 51.1328 271.056 52.175 271.891 53.2172C272.632 54.1542 273.582 54.9543 274.66 55.6281C274.822 57.5126 275.529 60.7446 278.38 63.3765C278.612 63.5976 284.174 68.6509 289.249 66.5033C291.08 65.7347 292.17 64.3135 292.795 63.1028C294.001 63.3344 295.333 63.4186 296.747 63.2081C297.002 63.166 303.132 62.1974 304.685 57.5757C304.928 56.8598 305.021 56.165 305.021 55.5123C305.021 54.6912 304.87 53.9332 304.673 53.3121C305.531 52.8699 306.319 52.2908 306.944 51.5749C308.949 49.2694 308.648 46.5426 308.439 45.4793C309.181 44.6476 310.827 42.4474 310.827 39.5943C310.827 39.089 310.78 38.5732 310.664 38.0362C310.282 36.2465 309.308 34.8989 308.463 34.0356C309.274 31.0984 307.999 28.0032 305.276 26.2556C305.276 24.8133 304.916 20.0022 300.756 17.6545L300.733 17.6334ZM276.178 21.1602C277.8 17.4544 282.331 14.0434 286.48 14.8751C288.357 15.2541 289.736 16.3595 290.675 17.4333C289.215 17.9702 288.299 18.6335 287.418 19.2757C286.318 20.0758 285.286 20.8233 283.131 21.4445C282.111 21.7392 281.532 21.8024 280.952 21.8761C280.28 21.9498 279.585 22.034 278.38 22.4551C277.801 22.6656 276.723 23.0447 275.506 23.7185C275.599 22.8342 275.819 21.9603 276.178 21.1602ZM278.925 23.7289C279.956 23.3604 280.512 23.2973 281.149 23.2236C281.764 23.1499 282.447 23.0762 283.595 22.7393C286.017 22.034 287.268 21.1286 288.369 20.3284C289.284 19.6652 290.142 19.0441 291.613 18.5493C293.479 17.9282 297.025 17.1491 299.934 18.7809C302.854 20.4338 303.549 23.6974 303.7 25.4134C300.884 24.3501 297.639 24.8344 295.298 26.6873C291.254 26.0977 285.924 26.4662 281.265 27.8453C276.143 29.3613 272.516 31.8564 270.882 34.9515C270.836 32.7197 271.137 29.8877 273.131 27.4558C275.112 25.0554 277.882 24.0764 278.936 23.708L278.925 23.7289ZM305.786 36.6887C305.542 38.0046 304.731 38.91 304.047 39.468C304.013 39.2785 303.989 39.0784 303.931 38.8889C303.676 37.8888 303.201 36.9308 302.553 36.0781C302.923 35.1727 303.12 34.2567 303.12 33.3935C303.12 32.7407 302.993 32.1196 302.784 31.5195C303.479 31.8248 304.256 32.3196 304.882 33.1303C305.264 33.6251 306.11 34.9726 305.786 36.6887ZM304.337 47.6481C303.665 48.0797 302.947 48.2376 302.344 48.2797C303.99 46.1321 304.163 42.9 304.163 41.6788C304.163 41.5841 304.163 41.5104 304.163 41.4472C304.766 41.8157 305.612 42.5 305.936 43.5949C306.388 45.1004 305.739 46.7638 304.337 47.6586L304.337 47.6481ZM271.416 39.647C271.485 38.5732 271.891 36.1518 273.93 34.8884C275.008 34.2252 276.978 33.6566 280.269 34.6884C284.522 36.0254 286.735 39.5522 288.89 42.9632C291.057 46.3952 293.108 49.6378 297.037 50.2274C298.242 50.4063 299.169 50.2589 299.829 50.0589C299.632 50.5326 299.366 50.9432 299.007 51.2696C297.709 52.4698 295.554 52.4592 292.286 52.0486C283.467 50.9432 279.04 50.3854 275.912 47.5429C273.687 45.5215 272.146 42.7948 271.427 39.647L271.416 39.647ZM299.656 48.6587C299.018 48.9325 298.172 49.0061 297.28 48.8798C294.058 48.406 292.262 45.5635 290.2 42.2894C289.98 41.942 289.748 41.5736 289.516 41.2156L291.648 41.2156C291.787 42.0158 292.054 42.658 292.262 43.0685C292.691 43.9002 293.966 45.9215 296.62 46.6584C297.072 46.7848 297.998 47.0375 299.088 46.8796C300.247 46.7112 301.313 46.1005 302.193 45.1636C301.799 46.6164 301.046 48.0586 299.656 48.6482L299.656 48.6587ZM298.358 34.6567C299.088 34.7515 299.69 35.12 300.177 35.5306C299.528 35.6359 298.809 35.8675 298.126 36.3202C296.156 37.6572 295.866 40.047 296.434 41.6999C297.129 43.7212 298.335 44.3634 299.227 44.5529C299.76 44.6687 300.316 44.6477 300.849 44.5108C300.247 45.0793 299.563 45.4478 298.844 45.5531C298.103 45.6584 297.419 45.4688 297.048 45.3741C294.916 44.7845 293.885 43.0369 293.618 42.5105C293.317 41.9105 292.853 40.6997 293.132 39.289C293.595 36.9413 296.029 34.362 298.358 34.6778L298.358 34.6567ZM302.553 40.5419C302.553 40.5419 302.622 40.5944 302.645 40.626C302.645 40.7313 302.645 40.8261 302.645 40.9314C302.645 40.9314 302.622 40.9314 302.611 40.9525C301.695 41.6368 300.803 41.6577 300.629 41.5103C300.583 41.4682 300.525 41.3103 300.525 41.0997C300.525 40.9523 300.548 40.7734 300.617 40.5839C300.756 40.1522 301.046 39.8155 301.313 39.7733C301.637 39.7207 302.182 39.9944 302.553 40.5629L302.553 40.5419ZM301.046 38.4047C300.188 38.5521 299.493 39.2154 299.18 40.1734C298.949 40.8998 298.925 41.8894 299.598 42.4789C299.968 42.8053 300.501 42.9422 301.092 42.9211C300.571 43.1949 300.026 43.3 299.586 43.2053C298.867 43.0579 298.265 42.3736 297.894 41.2787C297.465 40.0259 297.72 38.2995 299.053 37.4046C299.852 36.8677 300.768 36.7939 301.336 36.815C301.73 37.3414 302.066 37.9204 302.286 38.5205C301.88 38.3731 301.463 38.3205 301.069 38.3941L301.046 38.4047ZM300.096 31.6985C301.023 32.4144 301.22 33.5934 301.197 34.5304C300.536 33.9619 299.667 33.4461 298.578 33.3093C295.345 32.8776 292.251 35.9727 291.648 39.0363C291.59 39.3206 291.567 39.5838 291.555 39.847L289.586 39.847C290.988 36.3833 293.908 31.3301 297.431 31.0774C297.848 31.0458 299.134 30.9615 300.084 31.688L300.096 31.6985ZM300.131 30.1299C299.331 29.793 298.392 29.6456 297.315 29.7193C292.54 30.0456 289.412 36.3728 288.207 39.2995C286.41 36.8044 284.174 34.4778 280.755 33.404C277.557 32.3933 275.355 32.7302 273.918 33.3408C275.691 31.5932 278.345 30.1614 281.729 29.1613C288.125 27.2768 296.11 27.3505 299.157 29.3403C299.54 29.593 299.864 29.8561 300.131 30.1193L300.131 30.1299ZM266.502 29.0244C265.39 28.1401 264.254 27.4874 263.165 27.0031C264.416 27.14 265.818 27.5189 267.128 28.3717C268.217 29.0876 269.086 30.0351 269.723 31.1826C269.631 31.5722 269.561 31.9722 269.503 32.3512C268.796 31.2563 267.835 30.0982 266.502 29.0244ZM265.077 42.7948L268.101 40.2576C268.148 40.2155 268.194 40.1523 268.229 40.0996C268.24 40.0786 268.263 40.0576 268.275 40.0365C268.298 39.9839 268.31 39.9312 268.321 39.8681C268.321 39.8365 268.345 39.8049 268.345 39.7733C268.345 39.5838 268.252 39.4153 268.113 39.289L265.065 36.5939L269.399 35.8464C269.422 36.257 269.445 36.636 269.469 36.9835C269.538 37.9099 269.677 38.8363 269.897 39.7417C269.677 40.9314 269.561 42.1316 269.527 43.3212L265.077 42.8054L265.077 42.7948ZM269.781 48.1429C269.144 49.3325 268.252 50.3011 267.128 51.038C265.818 51.8908 264.416 52.2803 263.165 52.4067C264.254 51.9224 265.401 51.2696 266.502 50.3853C267.974 49.2167 268.982 47.9324 269.7 46.7427C269.758 47.1849 269.816 47.606 269.874 48.0271C269.84 48.0692 269.805 48.1008 269.781 48.1429ZM288.6 65.24C284.475 66.9876 279.481 62.4396 279.434 62.3975C277.36 60.4815 276.572 58.1759 276.271 56.4809C276.387 56.5336 276.503 56.5966 276.619 56.6493C277.916 57.1651 278.762 57.2388 279.585 57.3125C280.222 57.3652 280.894 57.4283 281.868 57.7126C283.386 58.1653 284.058 58.6917 284.927 59.3655C285.634 59.913 286.434 60.5445 287.813 61.2394C288.658 61.671 289.852 62.2711 291.301 62.7133C290.768 63.6503 289.922 64.682 288.6 65.24ZM303.225 57.1651C301.95 60.9867 296.538 61.8395 296.492 61.8501C293.108 62.3554 290.142 60.8498 288.554 60.0497C287.314 59.4181 286.596 58.8707 285.912 58.3338C284.997 57.6179 284.139 56.9546 282.343 56.4177C281.207 56.0808 280.431 56.0177 279.736 55.9545C278.971 55.8914 278.31 55.8282 277.233 55.3965C275.541 54.7228 274.116 53.691 273.107 52.4171C271.717 50.6695 271.496 48.943 271.195 46.5426C271.056 45.4372 270.998 44.3212 271.033 43.2053C271.949 45.2477 273.223 47.0585 274.834 48.5324C278.322 51.7013 282.922 52.2803 292.077 53.4278C293.861 53.6489 295.588 53.7963 297.095 53.5647C297.187 53.7121 297.326 53.8278 297.5 53.8805C299.447 54.47 301.463 54.4279 303.26 53.8805C303.514 54.7859 303.63 55.9544 303.225 57.1757L303.225 57.1651ZM305.739 50.7116C304.256 52.4276 301.753 53.2172 299.239 52.8488C299.528 52.6803 299.818 52.4803 300.073 52.2382C300.803 51.5644 301.266 50.6907 301.51 49.6484C302.46 49.7116 303.874 49.6167 305.195 48.7745C306.017 48.2481 306.643 47.5217 307.049 46.7006C307.107 47.7849 306.921 49.343 305.728 50.7116L305.739 50.7116ZM309.158 38.2784C309.737 40.9524 308.393 43.1633 307.547 44.216C307.524 43.8792 307.477 43.5527 307.373 43.2158C306.944 41.8051 305.948 40.9103 305.137 40.3839C305.994 39.668 306.956 38.531 307.269 36.9097C307.338 36.5623 307.361 36.2254 307.361 35.9096C307.361 35.5411 307.315 35.2043 307.257 34.8779C307.976 35.6149 308.822 36.7308 309.158 38.2678L309.158 38.2784ZM306.933 33.7724C306.666 33.1197 306.342 32.6249 306.122 32.3512C304.731 30.5299 302.692 29.9404 301.753 29.7614C301.336 29.2666 300.78 28.7191 300.026 28.2348C299.308 27.7611 298.358 27.3927 297.245 27.1084C299.331 25.9819 301.962 25.9503 304.082 27.161C306.539 28.5612 307.674 31.2458 306.921 33.783L306.933 33.7724Z" fill="#DFD4CF" fill-opacity="0.05"/>
    <path d="M9.42033 61.1348C9.42032 60.1522 8.54359 59.3557 7.46201 59.3557C6.38043 59.3557 5.50342 60.1522 5.50342 61.1348C5.50342 62.1174 6.38043 62.9141 7.46201 62.9141C8.5436 62.9141 9.42033 62.1174 9.42033 61.1348Z" fill="#DFD4CF" fill-opacity="0.05"/>
    <path d="M9.71183 18.7912C9.71183 17.8086 8.8351 17.012 7.75352 17.012C6.67193 17.012 5.79492 17.8086 5.79492 18.7912C5.79492 19.7738 6.67193 20.5703 7.75352 20.5703C8.8351 20.5703 9.71183 19.7738 9.71183 18.7912Z" fill="#DFD4CF" fill-opacity="0.05"/>
    <path d="M318.462 61.1765C318.462 63.7769 320.537 65.935 323.26 66.3877L323.26 78.6526C321.313 77.3577 319.111 76.5681 317.025 77.0524C315.496 77.3998 314.859 78.2631 313.7 79.8212C313.178 80.516 312.529 81.3898 311.614 82.4847C311.139 83.0637 306.758 88.2329 300.779 92.3282C298.508 93.8863 296.005 95.276 293.351 96.4446C293.351 96.4446 293.339 96.4551 293.328 96.4656C290.952 97.1394 289.202 99.1291 289.202 101.508C289.202 104.435 291.821 106.814 295.043 106.814C298.264 106.814 300.883 104.435 300.883 101.508C300.883 99.1817 299.215 97.2236 296.92 96.5077C298.647 95.6128 300.292 94.6444 301.834 93.5916C306.063 90.6859 309.516 87.2748 311.428 85.2219C312.228 88.9488 312.634 93.1705 311.672 95.2971C311.498 95.6971 311.162 96.4341 310.397 96.7605C309.876 96.9815 308.81 97.0973 308.195 96.4973C308.056 96.3499 307.94 96.1813 307.871 96.0024C308.022 96.0339 308.172 96.055 308.334 96.055C309.377 96.055 310.223 95.2865 310.223 94.339C310.223 93.3915 309.377 92.623 308.334 92.623C307.79 92.623 307.315 92.8335 306.967 93.1599C306.944 93.181 306.921 93.1914 306.897 93.2125C306.863 93.2546 306.839 93.2968 306.805 93.3389C306.781 93.3705 306.758 93.3915 306.747 93.4231C305.762 94.7285 305.808 96.4551 306.921 97.55C308.091 98.6976 309.922 98.687 311.127 98.1817C312.517 97.6026 313.062 96.4024 313.294 95.876C313.792 94.7706 313.978 93.3073 313.978 91.7598C313.978 88.6541 313.248 85.2324 312.865 83.6217C312.935 83.5375 312.993 83.4638 313.027 83.4217C313.966 82.2847 314.627 81.4004 315.16 80.6845C316.284 79.1685 316.62 78.7579 317.466 78.5579C320.548 77.8525 324.627 81.3793 326.539 84.106C330.537 89.8226 329.981 98.2132 325.253 103.635C324.314 104.719 319.239 110.089 312.066 109.72C310.907 109.657 309.748 109.446 308.612 109.088C312.645 105.772 316.075 102.014 318.822 97.8342C320.815 94.8127 322.449 91.5702 323.688 88.1908C323.723 88.0855 323.746 87.9697 323.746 87.8539C323.746 87.4117 323.445 87.0012 322.959 86.8538C322.356 86.6748 321.695 86.9696 321.498 87.517C320.316 90.7491 318.752 93.8548 316.852 96.7394C309.516 107.878 297.14 116.016 281.044 120.279C274.972 121.89 268.622 122.701 262.133 122.711C261.553 115.974 255.354 110.647 247.787 110.647C240.22 110.647 234.043 115.953 233.441 122.68L98.3356 122.68C97.7446 115.963 91.5452 110.647 83.9897 110.647C76.4343 110.647 70.2462 115.953 69.6436 122.669C63.1659 122.659 56.8155 121.848 50.7434 120.237C34.6592 115.974 22.2717 107.836 14.9364 96.6972C13.036 93.8021 11.4716 90.7069 10.2896 87.4749C10.0926 86.9274 9.43206 86.6221 8.82948 86.8116C8.22691 86.9906 7.90229 87.5907 8.09929 88.1381C9.33922 91.5176 10.9734 94.7601 12.9665 97.7816C15.7129 101.951 19.1543 105.719 23.1754 109.036C22.0397 109.383 20.881 109.604 19.7222 109.667C12.5607 110.036 7.48531 104.667 6.53509 103.582C1.80716 98.1606 1.2508 89.7699 5.24867 84.0534C7.1607 81.3161 11.2398 77.7893 14.3222 78.5052C15.1797 78.7052 15.5042 79.1053 16.6398 80.6318C17.1729 81.3477 17.8335 82.232 18.7721 83.369C18.8069 83.4111 18.8647 83.4849 18.9342 83.5691C18.3432 86.001 17.0108 92.5072 18.494 95.8235C18.7258 96.3393 19.2703 97.5394 20.6609 98.1184C21.866 98.6238 23.6971 98.6343 24.8675 97.4868C25.4585 96.9078 25.7598 96.1392 25.7598 95.3602C25.7598 94.6653 25.5163 93.9599 25.0412 93.3493C25.018 93.3283 25.0063 93.2967 24.9832 93.2757C24.9484 93.2336 24.9254 93.1915 24.8907 93.1494C24.8675 93.1283 24.8442 93.1177 24.8211 93.0967C24.4734 92.7703 23.9981 92.5597 23.4535 92.5597C22.4105 92.5597 21.5648 93.3283 21.5648 94.2758C21.5648 95.2233 22.4105 95.9918 23.4535 95.9918C23.6157 95.9918 23.7665 95.9708 23.9172 95.9393C23.8476 96.1288 23.7433 96.2972 23.5927 96.434C22.9785 97.0341 21.9125 96.9183 21.391 96.6972C20.6262 96.3814 20.2901 95.6339 20.1162 95.2338C19.1544 93.1072 19.5716 88.8857 20.3595 85.1588C22.2716 87.2117 25.7248 90.6332 29.9545 93.5284C31.4957 94.5917 33.1528 95.5602 34.8678 96.4446C32.5734 97.1605 30.9048 99.1186 30.9048 101.445C30.9048 104.372 33.5237 106.751 36.7452 106.751C39.9667 106.751 42.5854 104.372 42.5854 101.445C42.5854 99.066 40.8474 97.0762 38.4602 96.4024C38.4486 96.4024 38.437 96.3919 38.4254 96.3813C35.7718 95.2128 33.2686 93.8232 30.9973 92.2651C25.0179 88.1698 20.6377 83.0005 20.1626 82.4215C19.2472 81.3161 18.5982 80.4529 18.0767 79.7581C16.9179 78.2 16.2807 77.3367 14.7511 76.9893C12.6768 76.5155 10.475 77.3051 8.51658 78.5895L8.51657 66.3246C11.2398 65.8719 13.3139 63.7136 13.3139 61.1133C13.3139 58.1866 10.6952 55.8074 7.47375 55.8074C4.25227 55.8074 1.63333 58.1866 1.63333 61.1133C1.63333 63.8295 3.89294 66.0404 6.77836 66.3562L6.77837 79.9264C5.56163 80.9897 4.5186 82.1688 3.77697 83.2216C-0.591726 89.4751 0.0110866 98.6554 5.16777 104.583C6.2107 105.772 11.7844 111.678 19.815 111.268C21.4605 111.183 23.0827 110.825 24.6587 110.236C31.5883 115.563 40.1635 119.648 50.106 122.28C56.3867 123.943 62.9573 124.775 69.6552 124.796C70.2462 131.523 76.4457 136.829 84.0011 136.829C91.5565 136.829 97.7447 131.523 98.3472 124.796L233.452 124.796C234.043 131.523 240.243 136.829 247.798 136.829C255.354 136.829 261.53 131.544 262.133 124.838C268.842 124.827 275.413 123.985 281.693 122.322C291.636 119.69 300.211 115.595 307.141 110.278C308.717 110.868 310.339 111.226 311.985 111.31C320.004 111.72 325.589 105.814 326.632 104.625C329.483 101.361 330.943 97.0973 330.943 92.8756C330.943 89.4541 329.981 86.0642 328.022 83.2638C327.292 82.211 326.25 81.0319 325.021 79.9686L325.021 66.3983C327.918 66.0824 330.166 63.8611 330.166 61.1554C330.166 58.2287 327.547 55.8494 324.326 55.8494C321.104 55.8494 318.485 58.2287 318.485 61.1554L318.462 61.1765ZM299.145 101.508C299.145 103.561 297.302 105.235 295.043 105.235C292.783 105.235 290.941 103.561 290.941 101.508C290.941 99.4554 292.783 97.7816 295.043 97.7816C297.302 97.7816 299.145 99.4554 299.145 101.508ZM40.8356 101.466C40.8356 103.519 38.9933 105.193 36.7336 105.193C34.474 105.193 32.6314 103.519 32.6314 101.466C32.6314 99.4134 34.4739 97.7395 36.7336 97.7395C38.9933 97.7395 40.8356 99.4134 40.8356 101.466ZM3.35994 61.1344C3.35994 59.0814 5.20248 57.4076 7.46215 57.4076C9.72182 57.4076 11.5644 59.0814 11.5644 61.1344C11.5644 63.1873 9.72183 64.8612 7.46216 64.8612C5.20249 64.8612 3.35994 63.1873 3.35994 61.1344ZM83.9898 134.745C77.3266 134.745 71.9032 129.818 71.9032 123.764C71.9032 117.711 77.3266 112.784 83.9897 112.784C90.6529 112.784 96.076 117.711 96.076 123.764C96.076 129.818 90.6529 134.745 83.9898 134.745ZM247.775 134.745C241.112 134.745 235.689 129.818 235.689 123.764C235.689 117.711 241.112 112.784 247.775 112.784C254.438 112.784 259.861 117.711 259.861 123.764C259.861 129.818 254.438 134.745 247.775 134.745ZM328.405 61.1765C328.405 63.2294 326.562 64.9034 324.303 64.9034C322.043 64.9034 320.2 63.2294 320.2 61.1765C320.2 59.1236 322.043 57.4496 324.303 57.4496C326.562 57.4496 328.405 59.1236 328.405 61.1765Z" fill="#DFD4CF" fill-opacity="0.05"/>
    <path d="M326.261 61.1764C326.261 60.1938 325.384 59.3972 324.303 59.3972C323.221 59.3972 322.344 60.1938 322.344 61.1764C322.344 62.1591 323.221 62.9556 324.303 62.9556C325.384 62.9556 326.261 62.1591 326.261 61.1764Z" fill="#DFD4CF" fill-opacity="0.05"/>
    <path d="M325.984 18.8224C325.984 17.8398 325.107 17.0432 324.025 17.0432C322.944 17.0432 322.067 17.8398 322.067 18.8224C322.067 19.8051 322.944 20.6016 324.025 20.6016C325.107 20.6016 325.984 19.8051 325.984 18.8224Z" fill="#DFD4CF" fill-opacity="0.05"/>
</svg>
