<svg width="169" height="239" viewBox="0 0 169 239" fill="none" xmlns="http://www.w3.org/2000/svg">
<path d="M162.578 238.078H6.05859C2.73828 238.078 0.046875 235.363 0.046875 232.02V6.44922C0.046875 3.10547 2.73828 0.390625 6.05859 0.390625H162.578C165.898 0.390625 168.594 3.10547 168.594 6.44922V232.02C168.594 235.363 165.898 238.078 162.578 238.078Z" fill="white"/>
<mask id="mask0_2320_5096" style="mask-type:luminance" maskUnits="userSpaceOnUse" x="11" y="10" width="147" height="79">
<path d="M11 10H158V89H11V10Z" fill="white"/>
</mask>
<g mask="url(#mask0_2320_5096)">
<mask id="mask1_2320_5096" style="mask-type:luminance" maskUnits="userSpaceOnUse" x="11" y="10" width="147" height="79">
<path d="M157.727 88.1328C157.727 62.2344 157.734 36.3281 157.738 10.4336C108.887 10.4336 60.0234 10.4336 11.168 10.4414C11.1445 35.918 11.1211 61.3945 11.1016 86.8711C13.6641 75.4336 18.8398 58.5664 28.7109 49.5586C36.2617 42.6758 40.0352 39.2266 42.9883 37.8438C44.3633 37.1992 48.75 35.3008 52.3789 30.8711C53.0547 30.0508 53.543 29.332 53.8516 28.8516C54.1641 29.2734 55.3789 30.8242 57.0508 30.8555C59.2266 30.8906 61.6562 28.3438 61.7773 24.5039C62.0312 25.0742 64.1719 29.6172 69.0312 30.6445C71.3711 31.1406 73.3359 30.6133 74.3477 30.2539C75.0078 29.707 75.8867 28.8594 76.6875 27.6445C77.4766 26.4531 77.9023 25.3359 78.1484 24.5234H90.6992C90.7734 24.9883 91.3789 28.418 94.5 30.1289C97.5508 31.8008 100.648 30.5234 101.602 30.1406C104.895 28.8164 106.289 26.0781 106.598 25.4336C107.34 28.9727 109.816 31.1641 111.988 30.9883C112.344 30.9609 113.477 30.8086 114.652 29.4883L118.41 32.6172C119.879 33.4883 121.941 34.7695 124.32 36.4336C127.109 38.3867 136.363 44.9531 143.633 54.3984C153.285 66.9375 156.516 80.7461 157.719 88.1172L157.727 88.1328Z" fill="white"/>
</mask>
<g mask="url(#mask1_2320_5096)">
<path d="M11.1016 10.4336V88.1328H157.738V10.4336H11.1016Z" fill="url(#paint0_linear_2320_5096)"/>
</g>
</g>
<path d="M158.113 228.227H10.6406C10.6406 182.895 10.6406 137.566 10.6406 92.2344C10.6406 64.8437 10.6406 37.4609 10.6406 10.0742H158.113C158.113 37.418 158.113 64.7617 158.113 92.1094C158.113 137.484 158.113 182.852 158.113 228.227Z" stroke="#0E0E0E" stroke-width="0.75" stroke-linecap="round" stroke-linejoin="round"/>
<path d="M84.293 32.5039C84.2383 31.8828 83.9844 29.6992 82.1758 27.8477C80.5586 26.1836 78.6523 25.7852 78 25.6719C78.0508 25.0195 78.1055 24.3672 78.1562 23.7148C79.0117 23.3164 80.7305 22.3711 82.1562 20.4609C83.6016 18.5156 84.0156 16.582 84.1484 15.6445C84.4883 16.8164 85.2305 18.8164 86.9258 20.7656C88.2305 22.2656 89.6172 23.1836 90.5781 23.7148C90.6289 24.3672 90.6836 25.0195 90.7344 25.6719C90.2695 25.7188 87.2773 26.0625 85.4766 28.6797C84.4219 30.2266 84.293 31.8008 84.2773 32.5039H84.293Z" fill="white"/>
<path d="M53.0859 22.0664C53.918 21.8242 55.2891 21.5625 56.8438 21.9375C58.1992 22.2617 59.1133 22.9218 59.6328 23.3086C64.1914 26.7304 64.8672 29.3867 68.0039 30.5859C68.4063 30.7422 71.3398 31.7109 74.2969 30.3281C76.3789 29.3554 77.8633 27.1367 78.0977 24.7265C78.4258 21.2773 76.0273 17.8633 73.2461 17.2422C72.9219 17.1679 71.168 16.7773 69.7344 17.8515C69.5547 17.9843 68.4453 18.8398 68.2891 20.3476C68.2656 20.5742 68.0859 22.5156 69.5703 23.4609C70.4023 23.9843 71.4609 24.0156 72.3008 23.625C73.4922 23.0781 74.2109 21.7031 74.0234 20.2343C74.3164 20.5586 74.7227 21.0586 75.0469 21.75C75.2031 22.0781 76.2227 24.3359 75.2461 26.5039C74.0625 29.1445 70.8281 29.6093 70.3945 29.6718C67.5078 30.082 64.5078 28.5664 62.543 25.8437" stroke="#0E0E0E" stroke-width="0.75" stroke-linecap="round" stroke-linejoin="round"/>
<path d="M78.1562 23.625C78.7266 23.3477 79.6211 22.8438 80.5273 22.0195C83.4297 19.3711 83.9609 15.6992 84.2031 14.0625C84.3359 13.1406 84.457 11.7656 84.3008 10.0664" stroke="#0E0E0E" stroke-width="0.75" stroke-linecap="round" stroke-linejoin="round"/>
<path d="M78 25.582C78.7109 25.7109 79.4844 25.9336 80.25 26.3242C83.707 28.0859 84.2188 31.7773 84.293 32.4141" stroke="#0E0E0E" stroke-width="0.75" stroke-linecap="round" stroke-linejoin="round"/>
<path d="M115.664 22.0664C114.832 21.8242 113.461 21.5625 111.906 21.9375C110.551 22.2617 109.637 22.9218 109.117 23.3086C104.559 26.7304 103.883 29.3867 100.746 30.5859C100.344 30.7422 97.4102 31.7109 94.4531 30.3281C92.3711 29.3554 90.8867 27.1367 90.6523 24.7265C90.3242 21.2773 92.7227 17.8633 95.5039 17.2422C95.8281 17.1679 97.582 16.7773 99.0156 17.8515C99.1953 17.9843 100.305 18.8398 100.461 20.3476C100.484 20.5742 100.664 22.5156 99.1797 23.4609C98.3477 23.9843 97.2891 24.0156 96.4492 23.625C95.2578 23.0781 94.5391 21.7031 94.7266 20.2343C94.4336 20.5586 94.0273 21.0586 93.7031 21.75C93.5469 22.0781 92.5273 24.3359 93.5039 26.5039C94.6875 29.1445 97.9219 29.6093 98.3555 29.6718C101.242 30.082 104.242 28.5664 106.207 25.8437" stroke="#0E0E0E" stroke-width="0.75" stroke-linecap="round" stroke-linejoin="round"/>
<path d="M90.75 25.582C90.0391 25.7109 89.2656 25.9336 88.5 26.3242C85.043 28.0859 84.5312 31.7773 84.457 32.4141" stroke="#0E0E0E" stroke-width="0.75" stroke-linecap="round" stroke-linejoin="round"/>
<path d="M114.961 28.9219C114.848 29.1758 114.254 30.4883 112.867 30.9219C111.398 31.3867 110.109 30.5312 109.566 30.1719C107.297 28.6641 107.07 25.793 107.047 25.3281" stroke="#0E0E0E" stroke-width="0.75" stroke-linecap="round" stroke-linejoin="round"/>
<path d="M122.934 35.836C122.289 35.4688 121.379 34.9141 120.359 34.172C117.414 32.0235 115.109 30.3516 114.512 27.6212C113.961 25.1407 115.078 23.047 115.273 22.6954C117.113 19.379 120.961 18.8321 121.754 18.7423C125.332 18.336 128.961 20.2266 131.234 23.5274" stroke="#0E0E0E" stroke-width="0.75" stroke-linecap="round" stroke-linejoin="round"/>
<path d="M130.738 40.9805C130.777 33.2617 128.887 27.2031 125.895 25.5312C124.359 24.6758 122.797 24.6523 122.797 24.6523C122.281 24.6523 119.664 24.6914 118.004 26.8516C116.527 28.7773 116.895 30.9844 116.961 31.3594" stroke="#0E0E0E" stroke-width="0.75" stroke-linecap="round" stroke-linejoin="round"/>
<path d="M151.867 37.0782C152.258 36.8867 153.504 36.3086 154.844 36.6524C157.238 37.2617 157.508 40.1485 157.523 40.3594C157.664 42.1953 156.539 44.3321 154.395 45.0977C152.746 45.6836 151.156 45.2188 150.309 44.9688C147.563 44.168 146.055 42.3008 145.305 41.3555C142.906 38.2969 144.074 36.8086 141.613 34.6367C140.949 34.043 139.598 32.8438 137.527 32.5274C135.375 32.1914 134.488 33.1211 132.523 32.5742C130.598 32.0313 129.602 30.6133 129.344 30.2188C129.227 30.0391 127.824 27.7813 129.141 25.5078C129.414 25.0352 130.215 23.6641 132.023 23.2657C133.664 22.9141 135.473 23.5117 136.461 24.6914C137.309 25.6953 137.559 27.1133 136.898 28.2383C136.754 28.4844 136.305 29.25 135.285 29.5586C134.43 29.8125 133.344 29.6992 132.594 29.1016C131.934 28.5664 131.813 27.8867 131.789 27.6836" stroke="#0E0E0E" stroke-width="0.75" stroke-linecap="round" stroke-linejoin="round"/>
<path d="M143.16 36.7266C142.844 33.3086 141.098 30.4961 138.539 29.5781C137.953 29.3711 137.039 29.1602 135.824 29.3086" stroke="#0E0E0E" stroke-width="0.75" stroke-linecap="round" stroke-linejoin="round"/>
<path d="M145.754 42.0391C145.289 41.918 143.355 41.4688 141.703 42.5469C139.719 43.8516 138.922 46.875 140.145 49.7383" stroke="#0E0E0E" stroke-width="0.75" stroke-linecap="round" stroke-linejoin="round"/>
<path d="M147.113 52.3437C146.805 52.3281 146.168 52.3359 145.492 52.6875C144.398 53.2656 144.039 54.3242 143.969 54.5625" stroke="#0E0E0E" stroke-width="0.75" stroke-linecap="round" stroke-linejoin="round"/>
<path d="M158.102 91.1563C158.086 91.0508 158.07 90.8633 158.039 90.6445C157.453 85.5078 154.148 61.5234 134.422 44.0234C131.969 41.8516 128.168 38.7969 122.934 35.8281" stroke="#0E0E0E" stroke-width="0.75" stroke-linecap="round" stroke-linejoin="round"/>
<path d="M84.293 32.5039C84.2383 31.8828 83.9844 29.6992 82.1758 27.8477C80.5586 26.1836 78.6523 25.7852 78 25.6719C78.0508 25.0195 78.1055 24.3672 78.1562 23.7148C79.0117 23.3164 80.7305 22.3711 82.1562 20.4609C83.6016 18.5156 84.0156 16.582 84.1484 15.6445C84.4883 16.8164 85.2305 18.8164 86.9258 20.7656C88.2305 22.2656 89.6172 23.1836 90.5781 23.7148C90.6289 24.3672 90.6836 25.0195 90.7344 25.6719C90.2695 25.7187 87.2773 26.0625 85.4766 28.6797C84.4219 30.2266 84.293 31.8008 84.2773 32.5039H84.293Z" fill="black" stroke="black" stroke-width="0.5625" stroke-linecap="round" stroke-linejoin="round"/>
<path d="M115.664 22.0664C114.832 21.8242 113.461 21.5625 111.906 21.9375C110.551 22.2617 109.637 22.9218 109.117 23.3086C104.559 26.7304 103.883 29.3867 100.746 30.5859C100.344 30.7422 97.4102 31.7109 94.4531 30.3281C92.3711 29.3554 90.8867 27.1367 90.6523 24.7265C90.3242 21.2773 92.7227 17.8633 95.5039 17.2422C95.8281 17.1679 97.582 16.7773 99.0156 17.8515C99.1953 17.9843 100.305 18.8398 100.461 20.3476C100.484 20.5742 100.664 22.5156 99.1797 23.4609C98.3477 23.9843 97.2891 24.0156 96.4492 23.625C95.2578 23.0781 94.5391 21.7031 94.7266 20.2343C94.4336 20.5586 94.0273 21.0586 93.7031 21.75C93.5469 22.0781 92.5273 24.3359 93.5039 26.5039C94.6875 29.1445 97.9219 29.6093 98.3555 29.6718C101.242 30.082 104.242 28.5664 106.207 25.8437" stroke="#0E0E0E" stroke-width="0.75" stroke-linecap="round" stroke-linejoin="round"/>
<path d="M90.5938 23.625C89.4883 23.0781 88.7188 22.4688 88.2227 22.0195C84.8789 18.9766 84.5547 14.4531 84.4336 12.7891C84.3516 11.6484 84.3985 10.7031 84.4492 10.0664" stroke="#0E0E0E" stroke-width="0.75" stroke-linecap="round" stroke-linejoin="round"/>
<path d="M90.75 25.582C90.0391 25.7109 89.2656 25.9336 88.5 26.3242C85.043 28.0859 84.5312 31.7773 84.457 32.4141" stroke="#0E0E0E" stroke-width="0.75" stroke-linecap="round" stroke-linejoin="round"/>
<path d="M114.961 28.9219C114.848 29.1758 114.254 30.4883 112.867 30.9219C111.398 31.3867 110.109 30.5312 109.566 30.1719C107.297 28.6641 107.07 25.793 107.047 25.3281" stroke="#0E0E0E" stroke-width="0.75" stroke-linecap="round" stroke-linejoin="round"/>
<path d="M122.934 35.836C122.289 35.4688 121.379 34.9141 120.359 34.172C117.414 32.0235 115.109 30.3516 114.512 27.6212C113.961 25.1407 115.078 23.047 115.273 22.6954C117.113 19.379 120.961 18.8321 121.754 18.7423C125.332 18.336 128.961 20.2266 131.234 23.5274" stroke="#0E0E0E" stroke-width="0.75" stroke-linecap="round" stroke-linejoin="round"/>
<path d="M130.738 40.9805C130.777 33.2617 128.887 27.2031 125.895 25.5312C124.359 24.6758 122.797 24.6523 122.797 24.6523C122.281 24.6523 119.664 24.6914 118.004 26.8516C116.527 28.7773 116.895 30.9844 116.961 31.3594" stroke="#0E0E0E" stroke-width="0.75" stroke-linecap="round" stroke-linejoin="round"/>
<path d="M151.867 37.0782C152.258 36.8867 153.504 36.3086 154.844 36.6524C157.238 37.2617 157.508 40.1485 157.523 40.3594C157.664 42.1953 156.539 44.3321 154.395 45.0977C152.746 45.6836 151.156 45.2188 150.309 44.9688C147.563 44.168 146.055 42.3008 145.305 41.3555C142.906 38.2969 144.074 36.8086 141.613 34.6367C140.949 34.043 139.598 32.8438 137.527 32.5274C135.375 32.1914 134.488 33.1211 132.523 32.5742C130.598 32.0313 129.602 30.6133 129.344 30.2188C129.227 30.0391 127.824 27.7813 129.141 25.5078C129.414 25.0352 130.215 23.6641 132.023 23.2657C133.664 22.9141 135.473 23.5117 136.461 24.6914C137.309 25.6953 137.559 27.1133 136.898 28.2383C136.754 28.4844 136.305 29.25 135.285 29.5586C134.43 29.8125 133.344 29.6992 132.594 29.1016C131.934 28.5664 131.813 27.8867 131.789 27.6836" stroke="#0E0E0E" stroke-width="0.75" stroke-linecap="round" stroke-linejoin="round"/>
<path d="M143.16 36.7266C142.844 33.3086 141.098 30.4961 138.539 29.5781C137.953 29.3711 137.039 29.1602 135.824 29.3086" stroke="#0E0E0E" stroke-width="0.75" stroke-linecap="round" stroke-linejoin="round"/>
<path d="M158.012 48.8007C156.781 46.6952 154.816 45.3827 152.859 45.5038C150.434 45.6523 149.012 47.9257 148.395 48.9062C144.93 54.4335 148.637 61.9882 149.203 63.121" stroke="#0E0E0E" stroke-width="0.75" stroke-linecap="round" stroke-linejoin="round"/>
<path d="M158.063 90.4805C156.652 80.8281 152.07 59.7148 134.422 44.0312C130.582 40.6211 126.66 37.9414 122.934 35.8359" stroke="#0E0E0E" stroke-width="0.75" stroke-linecap="round" stroke-linejoin="round"/>
<mask id="mask2_2320_5096" style="mask-type:luminance" maskUnits="userSpaceOnUse" x="10" y="148" width="148" height="80">
<path d="M10 148H158V228H10V148Z" fill="white"/>
</mask>
<g mask="url(#mask2_2320_5096)">
<mask id="mask3_2320_5096" style="mask-type:luminance" maskUnits="userSpaceOnUse" x="10" y="148" width="148" height="80">
<path d="M10.9492 148.68C10.9727 175.074 10.9883 201.465 11.0117 227.852C59.8711 227.844 108.734 227.828 157.598 227.82C157.621 202.344 157.641 176.863 157.664 151.387C152.813 162.676 145.371 176.43 133.828 190.172C129.375 195.465 124.891 200.086 120.562 204.09C119.363 205.68 118.164 207.262 116.969 208.852C116.289 209.039 115.605 209.219 114.922 209.406C114.609 208.988 113.391 207.434 111.719 207.406C109.547 207.367 107.113 209.918 106.996 213.758C106.738 213.188 104.602 208.641 99.7422 207.613C97.4023 207.121 95.4375 207.645 94.4258 208.004C93.7656 208.551 92.8867 209.398 92.0859 210.613C91.2969 211.809 90.8711 212.926 90.6211 213.734H78.0742C78 213.27 77.3906 209.844 74.2734 208.133C71.2187 206.461 68.1211 207.734 67.1719 208.117C63.8789 209.445 62.4844 212.184 62.1758 212.828C61.4336 209.289 58.957 207.098 56.7812 207.27C56.4297 207.301 55.2969 207.449 54.1211 208.77C52.8672 207.727 51.6133 206.684 50.3633 205.641C44.543 202.762 33.7031 196.426 24.6094 184.141C13.9727 169.77 11.6172 155.227 10.9648 148.688L10.9492 148.68Z" fill="white"/>
</mask>
<g mask="url(#mask3_2320_5096)">
<path d="M10.9492 148.68V227.852H157.664V148.68H10.9492Z" fill="url(#paint1_linear_2320_5096)"/>
</g>
</g>
<path d="M84.3359 205.957C84.3906 206.578 84.6445 208.762 86.4531 210.613C88.0742 212.281 89.9766 212.676 90.6289 212.789C90.5781 213.441 90.5234 214.094 90.4727 214.746C89.6172 215.145 87.8984 216.09 86.4766 218.004C85.0273 219.945 84.6133 221.879 84.4805 222.816C84.1406 221.648 83.3984 219.645 81.7031 217.695C80.3984 216.195 79.0117 215.281 78.0508 214.746C78 214.094 77.9492 213.441 77.8945 212.789C78.3594 212.746 81.3516 212.398 83.1523 209.781C84.2109 208.238 84.3359 206.664 84.3516 205.957H84.3359Z" fill="white"/>
<path d="M115.547 216.398C114.711 216.637 113.34 216.898 111.789 216.523C110.43 216.203 109.516 215.543 108.996 215.152C104.437 211.734 103.762 209.078 100.629 207.879C100.223 207.719 97.2891 206.754 94.3359 208.133C92.25 209.109 90.7656 211.328 90.5312 213.734C90.2031 217.184 92.6016 220.598 95.3867 221.219C95.707 221.297 97.4609 221.684 98.8945 220.613C99.0742 220.477 100.184 219.621 100.344 218.113C100.363 217.891 100.547 215.949 99.0586 215.004C98.2266 214.477 97.1719 214.449 96.3281 214.836C95.1367 215.387 94.418 216.758 94.6055 218.227C94.3125 217.906 93.9062 217.402 93.5859 216.711C93.4258 216.383 92.4062 214.125 93.3828 211.957C94.5664 209.316 97.8008 208.852 98.2344 208.793C101.121 208.379 104.121 209.895 106.086 212.617" stroke="#0E0E0E" stroke-width="0.75" stroke-linecap="round" stroke-linejoin="round"/>
<path d="M90.4726 214.836C89.414 215.363 88.6406 215.953 88.1015 216.441C84.9882 219.27 84.5312 223.387 84.3164 225.316C84.1718 226.566 84.1875 227.602 84.2187 228.238" stroke="#0E0E0E" stroke-width="0.75" stroke-linecap="round" stroke-linejoin="round"/>
<path d="M90.6289 212.879C89.918 212.754 89.1445 212.527 88.3789 212.137C84.9219 210.375 84.4141 206.684 84.3359 206.047" stroke="#0E0E0E" stroke-width="0.75" stroke-linecap="round" stroke-linejoin="round"/>
<path d="M52.9727 216.398C53.8047 216.637 55.1758 216.898 56.7305 216.523C58.0859 216.203 59.0039 215.543 59.5195 215.152C64.0781 211.734 64.7539 209.078 67.8906 207.879C68.2969 207.719 71.2266 206.754 74.1836 208.133C76.2656 209.109 77.7539 211.328 77.9844 213.734C78.3164 217.184 75.9141 220.598 73.1328 221.219C72.8086 221.297 71.0547 221.684 69.6211 220.613C69.4414 220.477 68.332 219.621 68.1758 218.113C68.1523 217.891 67.9727 215.949 69.457 215.004C70.2891 214.477 71.3477 214.449 72.1875 214.836C73.3789 215.387 74.1016 216.758 73.9141 218.227C74.2031 217.906 74.6094 217.402 74.9336 216.711C75.0898 216.383 76.1094 214.125 75.1367 211.957C73.9492 209.316 70.7187 208.852 70.2812 208.793C67.3945 208.379 64.3945 209.895 62.4297 212.617" stroke="#0E0E0E" stroke-width="0.75" stroke-linecap="round" stroke-linejoin="round"/>
<path d="M77.8867 212.879C78.5703 212.773 79.3516 212.559 80.1367 212.137C83.3477 210.441 84.1797 206.82 84.3359 206.047" stroke="#0E0E0E" stroke-width="0.75" stroke-linecap="round" stroke-linejoin="round"/>
<path d="M53.6758 209.543C53.7891 209.289 54.3828 207.977 55.7695 207.539C57.2383 207.074 58.5313 207.93 59.0703 208.289C61.3438 209.797 61.5664 212.672 61.5898 213.137" stroke="#0E0E0E" stroke-width="0.75" stroke-linecap="round" stroke-linejoin="round"/>
<path d="M45.6992 202.629C46.3438 202.996 47.25 203.551 48.2695 204.293C51.2187 206.438 53.5195 208.109 54.1211 210.84C54.668 213.324 53.5508 215.414 53.3555 215.766C51.5156 219.082 47.6719 219.629 46.875 219.719C43.2969 220.125 39.668 218.234 37.3945 214.934" stroke="#0E0E0E" stroke-width="0.75" stroke-linecap="round" stroke-linejoin="round"/>
<path d="M37.8984 197.484C37.8594 205.199 39.75 211.262 42.7422 212.934C44.2812 213.789 45.8398 213.809 45.8398 213.809C46.3594 213.809 48.9765 213.773 50.6328 211.613C52.1094 209.684 51.7422 207.48 51.6758 207.105" stroke="#0E0E0E" stroke-width="0.75" stroke-linecap="round" stroke-linejoin="round"/>
<path d="M16.7696 201.383C16.3789 201.578 15.1368 202.156 13.793 201.809C11.3985 201.203 11.1289 198.316 11.1133 198.105C10.9727 196.266 12.0977 194.129 14.2422 193.363C15.8907 192.781 17.4844 193.246 18.3282 193.492C21.0743 194.297 22.5821 196.164 23.3321 197.109C25.7344 200.168 24.5625 201.652 27.0235 203.828C27.6915 204.422 29.0391 205.621 31.1094 205.934C33.2618 206.273 34.1485 205.344 36.1133 205.891C38.0391 206.43 39.0391 207.848 39.293 208.246C39.4141 208.426 40.8164 210.684 39.4961 212.953C39.2266 213.426 38.4219 214.801 36.6133 215.199C34.9727 215.551 33.1641 214.949 32.1758 213.773C31.3282 212.766 31.0782 211.351 31.7383 210.226C31.8829 209.976 32.3321 209.211 33.3516 208.906C34.2071 208.648 35.2969 208.762 36.0469 209.363C36.7032 209.894 36.8243 210.578 36.8477 210.781" stroke="#0E0E0E" stroke-width="0.75" stroke-linecap="round" stroke-linejoin="round"/>
<path d="M25.4766 201.727C25.793 205.148 27.5391 207.961 30.0977 208.875C30.6836 209.086 31.5977 209.297 32.8125 209.145" stroke="#0E0E0E" stroke-width="0.75" stroke-linecap="round" stroke-linejoin="round"/>
<path d="M22.875 196.426C23.3555 196.547 25.2734 196.98 26.9258 195.914C28.9258 194.609 29.7461 191.586 28.5391 188.707" stroke="#0E0E0E" stroke-width="0.75" stroke-linecap="round" stroke-linejoin="round"/>
<path d="M21.5156 186.121C21.8242 186.137 22.4609 186.129 23.1367 185.773C24.2617 185.184 24.6094 184.078 24.6758 183.855" stroke="#0E0E0E" stroke-width="0.75" stroke-linecap="round" stroke-linejoin="round"/>
<path d="M10.6562 146.535C11.8594 156.195 16.0742 178.273 34.207 194.437C38.0391 197.852 41.9531 200.527 45.6992 202.637" stroke="#0E0E0E" stroke-width="0.75" stroke-linecap="round" stroke-linejoin="round"/>
<path d="M84.3359 205.957C84.3906 206.578 84.6445 208.762 86.4531 210.613C88.0742 212.281 89.9766 212.676 90.6289 212.789C90.5781 213.441 90.5234 214.094 90.4727 214.746C90.0078 214.957 89.3711 215.289 88.6875 215.805C87.1484 216.984 86.4141 218.363 85.7695 219.609C85.207 220.703 84.4805 222.398 84.1055 224.633C84.0977 223.559 83.9336 220.477 81.6992 217.687C80.4297 216.098 78.9766 215.203 78.0469 214.738C77.9922 214.086 77.9414 213.434 77.8867 212.781C78.3516 212.738 81.3438 212.391 83.1445 209.773C84.2031 208.23 84.3281 206.656 84.3438 205.949L84.3359 205.957Z" fill="black" stroke="black" stroke-width="0.5625" stroke-linecap="round" stroke-linejoin="round"/>
<path d="M52.9727 216.398C53.8047 216.637 55.1758 216.898 56.7305 216.523C58.0859 216.203 59.0039 215.543 59.5195 215.152C64.0781 211.734 64.7539 209.078 67.8906 207.879C68.2969 207.719 71.2266 206.754 74.1836 208.133C76.2656 209.109 77.7539 211.328 77.9844 213.734C78.3164 217.184 75.9141 220.598 73.1328 221.219C72.8086 221.297 71.0547 221.684 69.6211 220.613C69.4414 220.477 68.332 219.621 68.1758 218.113C68.1523 217.891 67.9727 215.949 69.457 215.004C70.2891 214.477 71.3477 214.449 72.1875 214.836C73.3789 215.387 74.1016 216.758 73.9141 218.227C74.2031 217.906 74.6094 217.402 74.9336 216.711C75.0898 216.383 76.1094 214.125 75.1367 211.957C73.9492 209.316 70.7187 208.852 70.2812 208.793C67.3945 208.379 64.3945 209.895 62.4297 212.617" stroke="#0E0E0E" stroke-width="0.75" stroke-linecap="round" stroke-linejoin="round"/>
<path d="M78.0469 214.836C78.668 215.137 79.5391 215.641 80.4141 216.441C82.2656 218.152 82.9336 220.133 83.4531 221.754C84.2539 224.258 84.3359 226.539 84.2266 228.238" stroke="#0E0E0E" stroke-width="0.75" stroke-linecap="round" stroke-linejoin="round"/>
<path d="M77.8867 212.879C78.5703 212.773 79.3516 212.559 80.1367 212.137C83.3789 210.422 84.1875 206.715 84.3359 205.957" stroke="#0E0E0E" stroke-width="0.75" stroke-linecap="round" stroke-linejoin="round"/>
<path d="M53.6758 209.543C53.7891 209.289 54.3828 207.977 55.7695 207.539C57.2383 207.074 58.5313 207.93 59.0703 208.289C61.3438 209.797 61.5664 212.672 61.5898 213.137" stroke="#0E0E0E" stroke-width="0.75" stroke-linecap="round" stroke-linejoin="round"/>
<path d="M45.6992 202.629C46.3438 202.996 47.25 203.551 48.2695 204.293C51.2187 206.438 53.5195 208.109 54.1211 210.84C54.668 213.324 53.5508 215.414 53.3555 215.766C51.5156 219.082 47.6719 219.629 46.875 219.719C43.2969 220.125 39.668 218.234 37.3945 214.934" stroke="#0E0E0E" stroke-width="0.75" stroke-linecap="round" stroke-linejoin="round"/>
<path d="M37.8984 197.484C37.8594 205.199 39.75 211.262 42.7422 212.934C44.2812 213.789 45.8398 213.809 45.8398 213.809C46.3594 213.809 48.9765 213.773 50.6328 211.613C52.1094 209.684 51.7422 207.48 51.6758 207.105" stroke="#0E0E0E" stroke-width="0.75" stroke-linecap="round" stroke-linejoin="round"/>
<path d="M16.7696 201.383C16.3789 201.578 15.1368 202.156 13.793 201.809C11.3985 201.203 11.1289 198.316 11.1133 198.105C10.9727 196.266 12.0977 194.129 14.2422 193.363C15.8907 192.781 17.4844 193.246 18.3282 193.492C21.0743 194.297 22.5821 196.164 23.3321 197.109C25.7344 200.168 24.5625 201.652 27.0235 203.828C27.6915 204.422 29.0391 205.621 31.1094 205.934C33.2618 206.273 34.1485 205.344 36.1133 205.891C38.0391 206.43 39.0391 207.848 39.293 208.246C39.4141 208.426 40.8164 210.684 39.4961 212.953C39.2266 213.426 38.4219 214.801 36.6133 215.199C34.9727 215.551 33.1641 214.949 32.1758 213.773C31.3282 212.766 31.0782 211.351 31.7383 210.226C31.8829 209.976 32.3321 209.211 33.3516 208.906C34.2071 208.648 35.2969 208.762 36.0469 209.363C36.7032 209.894 36.8243 210.578 36.8477 210.781" stroke="#0E0E0E" stroke-width="0.75" stroke-linecap="round" stroke-linejoin="round"/>
<path d="M25.4766 201.727C25.793 205.148 27.5391 207.961 30.0977 208.875C30.6836 209.086 31.5977 209.297 32.8125 209.145" stroke="#0E0E0E" stroke-width="0.75" stroke-linecap="round" stroke-linejoin="round"/>
<path d="M10.7109 189.797C10.8008 189.945 12.7969 193.141 15.7813 192.953C18.1953 192.801 19.6211 190.539 20.2422 189.547C23.6992 184.027 20.0039 176.469 19.4336 175.336" stroke="#0E0E0E" stroke-width="0.75" stroke-linecap="round" stroke-linejoin="round"/>
<path d="M22.875 196.426C23.3555 196.547 25.2734 196.98 26.9258 195.914C28.9258 194.609 29.7461 191.586 28.5391 188.707" stroke="#0E0E0E" stroke-width="0.75" stroke-linecap="round" stroke-linejoin="round"/>
<path d="M21.5156 186.121C21.8242 186.137 22.4609 186.129 23.1367 185.773C24.2617 185.184 24.6094 184.078 24.6758 183.855" stroke="#0E0E0E" stroke-width="0.75" stroke-linecap="round" stroke-linejoin="round"/>
<path d="M10.6562 146.535C11.8594 156.195 16.0742 178.273 34.207 194.437C38.0391 197.852 41.9531 200.527 45.6992 202.637" stroke="#0E0E0E" stroke-width="0.75" stroke-linecap="round" stroke-linejoin="round"/>
<path d="M124.727 194.625V193.547H131.91V194.578H131.52C131.406 194.578 131.281 194.602 131.145 194.641C131.012 194.684 130.898 194.766 130.801 194.887C130.719 195.016 130.672 195.172 130.672 195.359C130.672 195.547 130.719 195.758 130.816 195.988L130.828 196.02L133.461 202.426C134.023 202.516 134.609 202.566 135.203 202.566C137.094 202.566 138.824 202.117 140.379 201.227C141.938 200.332 143.102 199.117 143.879 197.578L144.023 197.234L144.051 197.16C144.211 196.77 144.285 196.41 144.285 196.078C144.285 195.555 144.09 195.156 143.707 194.871L143.691 194.859C143.422 194.676 143.078 194.586 142.672 194.586H142.266L142.281 193.551H149.469L149.453 194.586H149.062C148.273 194.586 147.504 194.863 146.723 195.414C145.949 195.961 145.379 196.641 145.027 197.461L144.996 197.535L138.832 212.551C138.684 212.902 138.613 213.246 138.613 213.57C138.613 213.988 138.742 214.336 138.988 214.621C139.469 214.941 139.926 215.109 140.355 215.109L140.781 215.078V216.141H135.699L127.539 196.297C127.328 195.816 126.988 195.414 126.523 195.082C126.059 194.754 125.602 194.586 125.152 194.586L124.727 194.633V194.625ZM135.426 203.602H133.934L137.656 212.641C137.73 212.504 137.797 212.371 137.859 212.234L137.918 212.078L142.5 200.926C141.219 202.074 139.672 202.867 137.887 203.297C137.805 203.316 137.707 203.34 137.602 203.355C136.891 203.512 136.164 203.594 135.422 203.602H135.426Z" fill="black"/>
<path d="M43.7109 43.9336V45.0156H36.5234V43.9805H36.9141C37.0273 43.9805 37.1563 43.957 37.2891 43.9219C37.4258 43.8828 37.5391 43.793 37.6367 43.6719C37.7187 43.5469 37.7617 43.3867 37.7617 43.1992C37.7617 43.0117 37.7187 42.8008 37.6211 42.5703L37.6055 42.5391L34.9727 36.1367C34.4102 36.0469 33.8242 35.9922 33.2344 35.9922C31.3438 35.9922 29.6094 36.4414 28.0586 37.3359C26.4961 38.2266 25.3359 39.4414 24.5547 40.9805L24.4141 41.3242L24.3828 41.3984C24.2266 41.7891 24.1484 42.1484 24.1484 42.4805C24.1484 43.0039 24.3438 43.4023 24.7266 43.6875L24.7422 43.7031C25.0117 43.8828 25.3516 43.9727 25.7617 43.9727H26.168L26.1523 45.0078H18.9688L18.9844 43.9727H19.3711C20.1523 43.9727 20.9336 43.6953 21.7109 43.1484C22.4844 42.6016 23.0547 41.918 23.4062 41.1016L23.4375 41.0234L29.6016 26.0117C29.7539 25.6562 29.8203 25.3125 29.8203 24.9883C29.8203 24.5703 29.6914 24.2266 29.4453 23.9414C28.9648 23.6172 28.5078 23.4531 28.0781 23.4531L27.6602 23.4844V22.418H32.7461L40.9062 42.2617C41.1133 42.7422 41.4531 43.1484 41.918 43.4766C42.3828 43.8086 42.8398 43.9727 43.2891 43.9727L43.7188 43.9258L43.7109 43.9336ZM33.0078 34.957H34.5L30.7812 25.9219C30.7031 26.0547 30.6367 26.1914 30.5781 26.3242L30.5156 26.4844L25.9336 37.6367C27.2187 36.4883 28.7617 35.6914 30.5469 35.2656C30.6289 35.2422 30.7266 35.2188 30.832 35.2031C31.5469 35.0469 32.2734 34.9648 33.0156 34.957H33.0078Z" fill="black"/>
<path d="M31.5508 52.4102C30.4961 54.0664 29.1914 55.8672 27.6016 57.7187C26.5273 58.9648 25.4688 60.0664 24.4492 61.043C25.7539 62.3398 27.1367 63.8477 28.5234 65.5859C29.6914 67.0586 30.6992 68.4766 31.5586 69.8164C32.4219 68.5195 33.4258 67.1484 34.582 65.7305C36.0391 63.9531 37.4844 62.4219 38.8516 61.1094C37.6406 60.0312 36.3281 58.7188 35.0117 57.1484C33.5937 55.4766 32.4609 53.8594 31.5586 52.4023L31.5508 52.4102Z" fill="#EB1C24" stroke="black" stroke-width="0.5625" stroke-linecap="round" stroke-linejoin="round"/>
<path d="M123.137 112.402C115.801 105.141 108.09 96.8867 100.297 87.5547C92.8047 78.5859 86.2812 69.8711 80.6094 61.6484C73.7461 71.9414 65.5586 82.957 55.793 94.2148C50.1836 100.688 44.6016 106.598 39.1641 111.996C40.7031 113.34 43.2617 115.605 45.8164 118.094C46.2734 118.547 46.9492 119.211 47.4297 120.293C48.0508 121.695 47.9609 122.926 47.7812 124.844C47.3086 130.004 46.9492 132.504 48.0664 133.828C48.2109 134.004 48.6445 134.52 49.1836 134.488C49.8828 134.453 50.3398 133.531 50.4453 133.32C51.7969 130.629 48.3516 127.434 49.6953 124.266C49.9336 123.691 50.2734 123.285 50.4766 123.059C55.2148 127.852 60.3281 133.582 65.4297 140.316C70.9883 147.668 75.4062 154.719 78.8906 161.039C79.2227 162.359 79.6719 164.43 79.8828 167.004C80.6758 176.684 77.2812 183.059 79.8164 184.859C80.6328 185.438 82.0742 185.559 83.0039 184.926C86.6641 182.469 78.8633 170.82 83.3633 160.605C84.6094 157.785 86.4297 155.887 87.5391 154.875C88.5078 155.34 86.3555 161.676 88.3281 162.766C88.8164 163.035 89.6016 163.027 90.0664 162.629C91.1406 161.707 89.2266 159.219 89.3789 155.453C89.4375 154.004 89.7656 152.984 90.1953 151.695C94.4102 138.855 117.797 117.254 117.797 117.254C119.137 116.016 120.953 114.352 123.129 112.41L123.137 112.402Z" fill="#EB1C24" stroke="black" stroke-width="0.5625" stroke-linecap="round" stroke-linejoin="round"/>
<path d="M80.6406 69.9453C76.8086 75.3906 72.668 80.9609 68.2031 86.6328C60.9297 95.8711 53.6562 104.242 46.5898 111.789C51.7812 116.387 57.457 122.055 63.1055 128.941C71.3008 138.938 77.0938 148.656 81.1719 156.789C78.7344 150.465 74.8047 141.645 68.5586 131.91C61.2539 120.523 57.1133 117.773 57.3594 111.359C57.5781 105.66 61.0117 103.387 71.3906 88.4023C75.3438 82.6953 78.4141 77.8711 80.4297 74.6172C86.4844 82.4531 92.543 90.2852 98.5938 98.1211C100.027 100.777 100.262 102.906 100.199 104.387C100.094 106.738 99.1641 109.02 100.41 110.34C100.574 110.52 100.875 110.836 101.152 110.766C102.156 110.527 101.828 105.504 101.297 100.738C105.504 104.152 109.703 107.566 113.91 110.977C108.676 106.199 103.012 100.453 97.3281 93.6523C90.3242 85.2617 84.8633 77.1367 80.6406 69.9453Z" fill="#AC1217"/>
<path d="M136.934 168.742C135.879 170.398 134.574 172.199 132.984 174.051C131.91 175.297 130.852 176.398 129.832 177.375C131.137 178.672 132.516 180.18 133.906 181.922C135.074 183.391 136.078 184.809 136.941 186.148C137.805 184.852 138.809 183.48 139.965 182.063C141.422 180.285 142.867 178.754 144.234 177.441C143.023 176.363 141.711 175.051 140.391 173.484C138.977 171.809 137.844 170.191 136.941 168.734L136.934 168.742Z" fill="#EB1C24" stroke="black" stroke-width="0.5625" stroke-linecap="round" stroke-linejoin="round"/>
<defs>
<linearGradient id="paint0_linear_2320_5096" x1="157.74" y1="49.275" x2="11.1" y2="49.275" gradientUnits="userSpaceOnUse">
<stop stop-color="#8F8587"/>
<stop offset="0.00390625" stop-color="#908688"/>
<stop offset="0.0078125" stop-color="#918789"/>
<stop offset="0.0117187" stop-color="#92888A"/>
<stop offset="0.015625" stop-color="#92898B"/>
<stop offset="0.0195312" stop-color="#938A8B"/>
<stop offset="0.0234375" stop-color="#948B8C"/>
<stop offset="0.0273438" stop-color="#958C8D"/>
<stop offset="0.03125" stop-color="#968D8E"/>
<stop offset="0.0351562" stop-color="#978D8F"/>
<stop offset="0.0390625" stop-color="#988E90"/>
<stop offset="0.0429687" stop-color="#988F91"/>
<stop offset="0.046875" stop-color="#999092"/>
<stop offset="0.0507812" stop-color="#9A9193"/>
<stop offset="0.0546875" stop-color="#9B9294"/>
<stop offset="0.0585937" stop-color="#9C9395"/>
<stop offset="0.0625" stop-color="#9D9496"/>
<stop offset="0.0664062" stop-color="#9D9596"/>
<stop offset="0.0703125" stop-color="#9E9697"/>
<stop offset="0.0742187" stop-color="#9F9798"/>
<stop offset="0.078125" stop-color="#A09899"/>
<stop offset="0.0820312" stop-color="#A1999A"/>
<stop offset="0.0859375" stop-color="#A2999B"/>
<stop offset="0.0898437" stop-color="#A39A9C"/>
<stop offset="0.09375" stop-color="#A39B9D"/>
<stop offset="0.0976562" stop-color="#A49C9E"/>
<stop offset="0.101562" stop-color="#A59D9F"/>
<stop offset="0.105469" stop-color="#A69EA0"/>
<stop offset="0.109375" stop-color="#A79FA0"/>
<stop offset="0.113281" stop-color="#A8A0A1"/>
<stop offset="0.117187" stop-color="#A8A1A2"/>
<stop offset="0.121094" stop-color="#A9A2A3"/>
<stop offset="0.125" stop-color="#AAA3A4"/>
<stop offset="0.128906" stop-color="#ABA4A5"/>
<stop offset="0.132812" stop-color="#ACA5A6"/>
<stop offset="0.136719" stop-color="#ADA5A7"/>
<stop offset="0.140625" stop-color="#AEA6A8"/>
<stop offset="0.144531" stop-color="#AEA7A9"/>
<stop offset="0.148437" stop-color="#AFA8AA"/>
<stop offset="0.152344" stop-color="#B0A9AB"/>
<stop offset="0.15625" stop-color="#B1AAAB"/>
<stop offset="0.160156" stop-color="#B2ABAC"/>
<stop offset="0.164062" stop-color="#B3ACAD"/>
<stop offset="0.167969" stop-color="#B3ADAE"/>
<stop offset="0.171875" stop-color="#B4AEAF"/>
<stop offset="0.175781" stop-color="#B5AFB0"/>
<stop offset="0.179687" stop-color="#B6B0B1"/>
<stop offset="0.183594" stop-color="#B7B1B2"/>
<stop offset="0.1875" stop-color="#B8B2B3"/>
<stop offset="0.191406" stop-color="#B9B2B4"/>
<stop offset="0.195312" stop-color="#B9B3B5"/>
<stop offset="0.199219" stop-color="#BAB4B5"/>
<stop offset="0.203125" stop-color="#BBB5B6"/>
<stop offset="0.207031" stop-color="#BCB6B7"/>
<stop offset="0.210937" stop-color="#BDB7B8"/>
<stop offset="0.214844" stop-color="#BEB8B9"/>
<stop offset="0.21875" stop-color="#BEB9BA"/>
<stop offset="0.222656" stop-color="#BFBABB"/>
<stop offset="0.226562" stop-color="#C0BBBC"/>
<stop offset="0.230469" stop-color="#C1BCBD"/>
<stop offset="0.234375" stop-color="#C2BDBE"/>
<stop offset="0.238281" stop-color="#C3BEBF"/>
<stop offset="0.242187" stop-color="#C3BEBF"/>
<stop offset="0.246094" stop-color="#C4BFC0"/>
<stop offset="0.25" stop-color="#C5C0C1"/>
<stop offset="0.253906" stop-color="#C6C1C2"/>
<stop offset="0.257812" stop-color="#C6C2C3"/>
<stop offset="0.261719" stop-color="#C7C3C3"/>
<stop offset="0.265625" stop-color="#C8C3C4"/>
<stop offset="0.269531" stop-color="#C9C4C5"/>
<stop offset="0.273437" stop-color="#C9C5C6"/>
<stop offset="0.277344" stop-color="#CAC6C7"/>
<stop offset="0.28125" stop-color="#CBC7C7"/>
<stop offset="0.285156" stop-color="#CCC7C8"/>
<stop offset="0.289062" stop-color="#CCC8C9"/>
<stop offset="0.292969" stop-color="#CDC9CA"/>
<stop offset="0.296875" stop-color="#CECACB"/>
<stop offset="0.300781" stop-color="#CFCBCB"/>
<stop offset="0.304687" stop-color="#CFCCCC"/>
<stop offset="0.308594" stop-color="#D0CCCD"/>
<stop offset="0.3125" stop-color="#D1CDCE"/>
<stop offset="0.316406" stop-color="#D2CECF"/>
<stop offset="0.320312" stop-color="#D2CFCF"/>
<stop offset="0.324219" stop-color="#D3D0D0"/>
<stop offset="0.328125" stop-color="#D4D0D1"/>
<stop offset="0.332031" stop-color="#D5D1D2"/>
<stop offset="0.335937" stop-color="#D5D2D3"/>
<stop offset="0.339844" stop-color="#D6D3D3"/>
<stop offset="0.34375" stop-color="#D7D4D4"/>
<stop offset="0.347656" stop-color="#D8D5D5"/>
<stop offset="0.351562" stop-color="#D8D5D6"/>
<stop offset="0.355469" stop-color="#D9D6D7"/>
<stop offset="0.359375" stop-color="#DAD7D7"/>
<stop offset="0.363281" stop-color="#DBD8D8"/>
<stop offset="0.367187" stop-color="#DBD9D9"/>
<stop offset="0.371094" stop-color="#DCDADA"/>
<stop offset="0.375" stop-color="#DDDADB"/>
<stop offset="0.378906" stop-color="#DEDBDB"/>
<stop offset="0.382812" stop-color="#DEDCDC"/>
<stop offset="0.386719" stop-color="#DFDDDD"/>
<stop offset="0.390625" stop-color="#E0DEDE"/>
<stop offset="0.394531" stop-color="#E1DEDF"/>
<stop offset="0.398437" stop-color="#E1DFE0"/>
<stop offset="0.402344" stop-color="#E2E0E0"/>
<stop offset="0.40625" stop-color="#E3E1E1"/>
<stop offset="0.410156" stop-color="#E4E2E2"/>
<stop offset="0.414062" stop-color="#E4E3E3"/>
<stop offset="0.417969" stop-color="#E5E3E4"/>
<stop offset="0.421875" stop-color="#E6E4E4"/>
<stop offset="0.425781" stop-color="#E6E5E5"/>
<stop offset="0.429687" stop-color="#E7E6E6"/>
<stop offset="0.433594" stop-color="#E8E7E7"/>
<stop offset="0.4375" stop-color="#E9E7E8"/>
<stop offset="0.441406" stop-color="#E9E8E8"/>
<stop offset="0.445312" stop-color="#EAE9E9"/>
<stop offset="0.449219" stop-color="#EBEAEA"/>
<stop offset="0.453125" stop-color="#ECEBEB"/>
<stop offset="0.457031" stop-color="#ECEBEB"/>
<stop offset="0.460937" stop-color="#EDECEC"/>
<stop offset="0.464844" stop-color="#EDECEC"/>
<stop offset="0.46875" stop-color="#EEEDED"/>
<stop offset="0.472656" stop-color="#EEEEEE"/>
<stop offset="0.476562" stop-color="#EFEEEE"/>
<stop offset="0.480469" stop-color="#EFEFEF"/>
<stop offset="0.484375" stop-color="#F0EFEF"/>
<stop offset="0.488281" stop-color="#F1F0F0"/>
<stop offset="0.492187" stop-color="#F1F1F1"/>
<stop offset="0.496094" stop-color="#F2F1F1"/>
<stop offset="0.5" stop-color="#F2F2F2"/>
<stop offset="0.503906" stop-color="#F3F2F2"/>
<stop offset="0.507812" stop-color="#F3F3F3"/>
<stop offset="0.511719" stop-color="#F4F4F4"/>
<stop offset="0.515625" stop-color="#F5F4F4"/>
<stop offset="0.519531" stop-color="#F5F5F5"/>
<stop offset="0.523438" stop-color="#F6F5F5"/>
<stop offset="0.527344" stop-color="#F6F6F6"/>
<stop offset="0.53125" stop-color="#F7F7F7"/>
<stop offset="0.535156" stop-color="#F7F7F7"/>
<stop offset="0.539062" stop-color="#F8F8F8"/>
<stop offset="0.542969" stop-color="#F8F8F8"/>
<stop offset="0.546875" stop-color="#F9F9F9"/>
<stop offset="0.550781" stop-color="#FAFAFA"/>
<stop offset="0.554688" stop-color="#FAFAFA"/>
<stop offset="0.5625" stop-color="#FBFBFB"/>
<stop offset="0.625" stop-color="#FBFBFB"/>
<stop offset="0.75" stop-color="#FBFBFB"/>
<stop offset="1" stop-color="#FBFBFB"/>
</linearGradient>
<linearGradient id="paint1_linear_2320_5096" x1="10.9501" y1="188.265" x2="157.665" y2="188.265" gradientUnits="userSpaceOnUse">
<stop stop-color="#8F8587"/>
<stop offset="0.00390625" stop-color="#908688"/>
<stop offset="0.0078125" stop-color="#918789"/>
<stop offset="0.0117187" stop-color="#91888A"/>
<stop offset="0.015625" stop-color="#92898A"/>
<stop offset="0.0195313" stop-color="#938A8B"/>
<stop offset="0.0234375" stop-color="#948A8C"/>
<stop offset="0.0273438" stop-color="#958B8D"/>
<stop offset="0.03125" stop-color="#968C8E"/>
<stop offset="0.0351562" stop-color="#968D8F"/>
<stop offset="0.0390625" stop-color="#978E90"/>
<stop offset="0.0429688" stop-color="#988F91"/>
<stop offset="0.046875" stop-color="#999091"/>
<stop offset="0.0507813" stop-color="#9A9192"/>
<stop offset="0.0546875" stop-color="#9A9293"/>
<stop offset="0.0585938" stop-color="#9B9294"/>
<stop offset="0.0625" stop-color="#9C9395"/>
<stop offset="0.0664062" stop-color="#9D9496"/>
<stop offset="0.0703125" stop-color="#9E9597"/>
<stop offset="0.0742188" stop-color="#9E9698"/>
<stop offset="0.078125" stop-color="#9F9798"/>
<stop offset="0.0820312" stop-color="#A09899"/>
<stop offset="0.0859375" stop-color="#A1999A"/>
<stop offset="0.0898438" stop-color="#A29A9B"/>
<stop offset="0.09375" stop-color="#A39A9C"/>
<stop offset="0.0976563" stop-color="#A39B9D"/>
<stop offset="0.101563" stop-color="#A49C9E"/>
<stop offset="0.105469" stop-color="#A59D9F"/>
<stop offset="0.109375" stop-color="#A69E9F"/>
<stop offset="0.113281" stop-color="#A79FA0"/>
<stop offset="0.117188" stop-color="#A7A0A1"/>
<stop offset="0.121094" stop-color="#A8A1A2"/>
<stop offset="0.125" stop-color="#A9A2A3"/>
<stop offset="0.128906" stop-color="#AAA2A4"/>
<stop offset="0.132812" stop-color="#ABA3A5"/>
<stop offset="0.136719" stop-color="#ABA4A6"/>
<stop offset="0.140625" stop-color="#ACA5A6"/>
<stop offset="0.144531" stop-color="#ADA6A7"/>
<stop offset="0.148438" stop-color="#AEA7A8"/>
<stop offset="0.152344" stop-color="#AFA8A9"/>
<stop offset="0.15625" stop-color="#B0A9AA"/>
<stop offset="0.160156" stop-color="#B0AAAB"/>
<stop offset="0.164063" stop-color="#B1AAAC"/>
<stop offset="0.167969" stop-color="#B2ABAD"/>
<stop offset="0.171875" stop-color="#B3ACAD"/>
<stop offset="0.175781" stop-color="#B4ADAE"/>
<stop offset="0.179688" stop-color="#B4AEAF"/>
<stop offset="0.183594" stop-color="#B5AFB0"/>
<stop offset="0.1875" stop-color="#B6B0B1"/>
<stop offset="0.191406" stop-color="#B7B1B2"/>
<stop offset="0.195312" stop-color="#B8B2B3"/>
<stop offset="0.199219" stop-color="#B9B2B4"/>
<stop offset="0.203125" stop-color="#B9B3B4"/>
<stop offset="0.207031" stop-color="#BAB4B5"/>
<stop offset="0.210938" stop-color="#BBB5B6"/>
<stop offset="0.214844" stop-color="#BCB6B7"/>
<stop offset="0.21875" stop-color="#BDB7B8"/>
<stop offset="0.222656" stop-color="#BDB8B9"/>
<stop offset="0.226562" stop-color="#BEB9BA"/>
<stop offset="0.230469" stop-color="#BFBABB"/>
<stop offset="0.234375" stop-color="#C0BABB"/>
<stop offset="0.238281" stop-color="#C1BBBC"/>
<stop offset="0.242188" stop-color="#C1BCBD"/>
<stop offset="0.246094" stop-color="#C2BDBE"/>
<stop offset="0.25" stop-color="#C3BEBF"/>
<stop offset="0.253906" stop-color="#C4BFC0"/>
<stop offset="0.257812" stop-color="#C5C0C1"/>
<stop offset="0.261719" stop-color="#C5C0C1"/>
<stop offset="0.265625" stop-color="#C6C1C2"/>
<stop offset="0.269531" stop-color="#C7C2C3"/>
<stop offset="0.273437" stop-color="#C8C3C4"/>
<stop offset="0.277344" stop-color="#C8C4C5"/>
<stop offset="0.28125" stop-color="#C9C5C5"/>
<stop offset="0.285156" stop-color="#CAC5C6"/>
<stop offset="0.289062" stop-color="#CBC6C7"/>
<stop offset="0.292969" stop-color="#CBC7C8"/>
<stop offset="0.296875" stop-color="#CCC8C9"/>
<stop offset="0.300781" stop-color="#CDC9C9"/>
<stop offset="0.304688" stop-color="#CDC9CA"/>
<stop offset="0.308594" stop-color="#CECACB"/>
<stop offset="0.3125" stop-color="#CFCBCC"/>
<stop offset="0.316406" stop-color="#D0CCCD"/>
<stop offset="0.320312" stop-color="#D0CDCD"/>
<stop offset="0.324219" stop-color="#D1CECE"/>
<stop offset="0.328125" stop-color="#D2CECF"/>
<stop offset="0.332031" stop-color="#D3CFD0"/>
<stop offset="0.335938" stop-color="#D3D0D1"/>
<stop offset="0.339844" stop-color="#D4D1D1"/>
<stop offset="0.34375" stop-color="#D5D2D2"/>
<stop offset="0.347656" stop-color="#D6D2D3"/>
<stop offset="0.351562" stop-color="#D6D3D4"/>
<stop offset="0.355469" stop-color="#D7D4D5"/>
<stop offset="0.359375" stop-color="#D8D5D5"/>
<stop offset="0.363281" stop-color="#D9D6D6"/>
<stop offset="0.367188" stop-color="#D9D7D7"/>
<stop offset="0.371094" stop-color="#DAD7D8"/>
<stop offset="0.375" stop-color="#DBD8D9"/>
<stop offset="0.378906" stop-color="#DCD9D9"/>
<stop offset="0.382813" stop-color="#DCDADA"/>
<stop offset="0.386719" stop-color="#DDDBDB"/>
<stop offset="0.390625" stop-color="#DEDCDC"/>
<stop offset="0.394531" stop-color="#DFDCDD"/>
<stop offset="0.398438" stop-color="#DFDDDD"/>
<stop offset="0.402344" stop-color="#E0DEDE"/>
<stop offset="0.40625" stop-color="#E1DFDF"/>
<stop offset="0.410156" stop-color="#E2E0E0"/>
<stop offset="0.414063" stop-color="#E2E0E1"/>
<stop offset="0.417969" stop-color="#E3E1E1"/>
<stop offset="0.421875" stop-color="#E4E2E2"/>
<stop offset="0.425781" stop-color="#E5E3E3"/>
<stop offset="0.429688" stop-color="#E5E4E4"/>
<stop offset="0.433594" stop-color="#E6E5E5"/>
<stop offset="0.4375" stop-color="#E7E5E5"/>
<stop offset="0.441406" stop-color="#E8E6E6"/>
<stop offset="0.445312" stop-color="#E8E7E7"/>
<stop offset="0.449219" stop-color="#E9E8E8"/>
<stop offset="0.453125" stop-color="#EAE9E9"/>
<stop offset="0.457031" stop-color="#EBE9E9"/>
<stop offset="0.460938" stop-color="#EBEAEA"/>
<stop offset="0.464844" stop-color="#ECEBEB"/>
<stop offset="0.46875" stop-color="#ECEBEB"/>
<stop offset="0.472656" stop-color="#EDECEC"/>
<stop offset="0.476562" stop-color="#EDEDED"/>
<stop offset="0.480469" stop-color="#EEEDED"/>
<stop offset="0.484375" stop-color="#EFEEEE"/>
<stop offset="0.488281" stop-color="#EFEEEE"/>
<stop offset="0.492188" stop-color="#F0EFEF"/>
<stop offset="0.496094" stop-color="#F0F0F0"/>
<stop offset="0.5" stop-color="#F1F0F0"/>
<stop offset="0.503906" stop-color="#F1F1F1"/>
<stop offset="0.507813" stop-color="#F2F1F1"/>
<stop offset="0.511719" stop-color="#F3F2F2"/>
<stop offset="0.515625" stop-color="#F3F3F3"/>
<stop offset="0.519531" stop-color="#F4F3F3"/>
<stop offset="0.523438" stop-color="#F4F4F4"/>
<stop offset="0.527344" stop-color="#F5F4F4"/>
<stop offset="0.53125" stop-color="#F5F5F5"/>
<stop offset="0.535156" stop-color="#F6F6F6"/>
<stop offset="0.539063" stop-color="#F6F6F6"/>
<stop offset="0.542969" stop-color="#F7F7F7"/>
<stop offset="0.546875" stop-color="#F8F7F7"/>
<stop offset="0.550781" stop-color="#F8F8F8"/>
<stop offset="0.554688" stop-color="#F9F9F9"/>
<stop offset="0.558594" stop-color="#F9F9F9"/>
<stop offset="0.5625" stop-color="#FAFAFA"/>
<stop offset="0.566406" stop-color="#FAFAFA"/>
<stop offset="0.570313" stop-color="#FBFBFB"/>
<stop offset="0.578125" stop-color="#FBFBFB"/>
<stop offset="0.59375" stop-color="#FBFBFB"/>
<stop offset="0.625" stop-color="#FBFBFB"/>
<stop offset="0.75" stop-color="#FBFBFB"/>
<stop offset="1" stop-color="#FBFBFB"/>
</linearGradient>
</defs>
</svg>
