<svg width="178" height="247" viewBox="0 0 178 247" fill="none" xmlns="http://www.w3.org/2000/svg">
<g filter="url(#filter0_d_2321_5101)">
<mask id="mask0_2321_5101" style="mask-type:luminance" maskUnits="userSpaceOnUse" x="4" y="0" width="170" height="239">
<path d="M4 0H173.5V239H4V0Z" fill="white"/>
</mask>
<g mask="url(#mask0_2321_5101)">
<path d="M167.328 238.262H10.8086C7.48828 238.262 4.79688 235.547 4.79688 232.199V6.62891C4.79688 3.28516 7.48828 0.570312 10.8086 0.570312H167.328C170.648 0.570312 173.344 3.28516 173.344 6.62891V232.199C173.344 235.547 170.648 238.262 167.328 238.262Z" fill="white"/>
</g>
<mask id="mask1_2321_5101" style="mask-type:luminance" maskUnits="userSpaceOnUse" x="15" y="10" width="148" height="79">
<path d="M15 10H163V89H15V10Z" fill="white"/>
</mask>
<g mask="url(#mask1_2321_5101)">
<mask id="mask2_2321_5101" style="mask-type:luminance" maskUnits="userSpaceOnUse" x="15" y="10" width="148" height="79">
<path d="M162.477 88.3125C162.477 62.4141 162.484 36.5117 162.488 10.6133C113.637 10.6133 64.7734 10.6133 15.918 10.6211C15.8945 36.0977 15.8711 61.5742 15.8516 87.0508C18.4141 75.6133 23.5898 58.7461 33.4609 49.7383C41.0117 42.8555 44.7852 39.4062 47.7383 38.0234C49.1133 37.3789 53.5 35.4844 57.1289 31.0508C57.8047 30.2344 58.293 29.5117 58.6016 29.0312C58.9141 29.4531 60.1289 31.0039 61.8008 31.0352C63.9766 31.0742 66.4062 28.5234 66.5273 24.6836C66.7812 25.2539 68.9219 29.7969 73.7812 30.8242C76.1211 31.3203 78.0859 30.7969 79.0977 30.4336C79.7578 29.8867 80.6367 29.0391 81.4375 27.8242C82.2266 26.6328 82.6523 25.5156 82.8984 24.7031H95.4492C95.5234 25.1719 96.1289 28.5977 99.25 30.3086C102.301 31.9805 105.398 30.7031 106.352 30.3242C109.645 28.9961 111.039 26.2578 111.348 25.6133C112.09 29.1523 114.566 31.3438 116.738 31.1719C117.094 31.1406 118.227 30.9883 119.402 29.6719L123.16 32.7969C124.629 33.668 126.691 34.9492 129.07 36.6133C131.859 38.5664 141.113 45.1367 148.383 54.5781C158.035 67.1172 161.266 80.9258 162.469 88.2969L162.477 88.3125Z" fill="white"/>
</mask>
<g mask="url(#mask2_2321_5101)">
<path d="M15.8516 10.6133V88.3125H162.488V10.6133H15.8516Z" fill="url(#paint0_linear_2321_5101)"/>
</g>
</g>
<path d="M162.863 228.406H15.3906C15.3906 183.074 15.3906 137.746 15.3906 92.4141C15.3906 65.0234 15.3906 37.6406 15.3906 10.2539H162.863C162.863 37.5977 162.863 64.9414 162.863 92.289C162.863 137.664 162.863 183.031 162.863 228.406Z" stroke="#0E0E0E" stroke-width="0.75" stroke-linecap="round" stroke-linejoin="round"/>
<path d="M89.0508 32.6836C88.9961 32.0625 88.7422 29.8789 86.9336 28.0273C85.3164 26.3633 83.4102 25.9648 82.7578 25.8516C82.8086 25.1992 82.8633 24.5469 82.9141 23.8945C83.7695 23.4961 85.4883 22.5508 86.9141 20.6406C88.3594 18.6992 88.7734 16.7617 88.9062 15.8242C89.2461 16.9961 89.9883 18.9961 91.6836 20.9492C92.9883 22.4492 94.375 23.3633 95.3359 23.8945C95.3867 24.5469 95.4414 25.1992 95.4922 25.8516C95.0273 25.8984 92.0352 26.2422 90.2344 28.8594C89.1758 30.4062 89.0508 31.9805 89.0352 32.6836H89.0508Z" fill="white"/>
<path d="M57.8359 22.2461C58.668 22.0039 60.0391 21.7422 61.5938 22.1172C62.9492 22.4414 63.8633 23.1015 64.3828 23.4882C68.9414 26.9101 69.6172 29.5664 72.7539 30.7656C73.1563 30.9218 76.0898 31.8906 79.0469 30.5117C81.1289 29.5351 82.6133 27.3164 82.8477 24.9062C83.1758 21.457 80.7774 18.0468 77.9961 17.4218C77.6719 17.3476 75.918 16.957 74.4844 18.0312C74.3047 18.164 73.1953 19.0195 73.0391 20.5273C73.0157 20.7539 72.836 22.6953 74.3203 23.6406C75.1524 24.164 76.211 24.1953 77.0508 23.8047C78.2422 23.2578 78.961 21.8867 78.7735 20.414C79.0664 20.7383 79.4727 21.2382 79.7969 21.9297C79.9531 22.2617 80.9727 24.5156 79.9961 26.6836C78.8125 29.3242 75.5781 29.789 75.1445 29.8515C72.2578 30.2617 69.2578 28.7461 67.293 26.0234" stroke="#0E0E0E" stroke-width="0.75" stroke-linecap="round" stroke-linejoin="round"/>
<path d="M82.9141 23.8047C83.4844 23.5273 84.3789 23.0234 85.2852 22.1992C88.1875 19.5508 88.7187 15.8789 88.9609 14.2422C89.0937 13.3203 89.2149 11.9492 89.0586 10.2461" stroke="#0E0E0E" stroke-width="0.75" stroke-linecap="round" stroke-linejoin="round"/>
<path d="M82.7578 25.7617C83.4688 25.8906 84.2422 26.1133 85.0078 26.5039C88.4648 28.2656 88.9766 31.957 89.0508 32.5938" stroke="#0E0E0E" stroke-width="0.75" stroke-linecap="round" stroke-linejoin="round"/>
<path d="M120.414 22.2461C119.582 22.0039 118.211 21.7422 116.656 22.1172C115.301 22.4414 114.387 23.1015 113.867 23.4882C109.309 26.9101 108.633 29.5664 105.496 30.7656C105.094 30.9218 102.16 31.8906 99.2031 30.5117C97.1211 29.5351 95.6367 27.3164 95.4023 24.9062C95.0742 21.457 97.4727 18.0468 100.254 17.4218C100.578 17.3476 102.332 16.957 103.766 18.0312C103.945 18.164 105.055 19.0195 105.211 20.5273C105.234 20.7539 105.414 22.6953 103.93 23.6406C103.098 24.164 102.039 24.1953 101.199 23.8047C100.008 23.2578 99.2891 21.8867 99.4766 20.414C99.1836 20.7383 98.7773 21.2382 98.4531 21.9297C98.2969 22.2617 97.2773 24.5156 98.2539 26.6836C99.4375 29.3242 102.672 29.789 103.105 29.8515C105.992 30.2617 108.992 28.7461 110.957 26.0234" stroke="#0E0E0E" stroke-width="0.75" stroke-linecap="round" stroke-linejoin="round"/>
<path d="M95.5 25.7617C94.7891 25.8906 94.0156 26.1133 93.25 26.5039C89.793 28.2656 89.2812 31.957 89.207 32.5938" stroke="#0E0E0E" stroke-width="0.75" stroke-linecap="round" stroke-linejoin="round"/>
<path d="M119.711 29.1016C119.598 29.3555 119.004 30.668 117.617 31.1016C116.148 31.5664 114.859 30.7109 114.316 30.3516C112.047 28.8438 111.82 25.9727 111.797 25.5078" stroke="#0E0E0E" stroke-width="0.75" stroke-linecap="round" stroke-linejoin="round"/>
<path d="M127.684 36.0157C127.039 35.6485 126.129 35.0938 125.109 34.3516C122.164 32.2032 119.859 30.5313 119.262 27.8008C118.711 25.3204 119.828 23.2266 120.023 22.8751C121.863 19.5587 125.711 19.0118 126.504 18.922C130.082 18.5157 133.711 20.4063 135.984 23.7071" stroke="#0E0E0E" stroke-width="0.75" stroke-linecap="round" stroke-linejoin="round"/>
<path d="M135.488 41.1601C135.527 33.4414 133.637 27.3828 130.645 25.7109C129.109 24.8555 127.547 24.832 127.547 24.832C127.031 24.832 124.414 24.8711 122.754 27.0312C121.277 28.957 121.645 31.164 121.711 31.539" stroke="#0E0E0E" stroke-width="0.75" stroke-linecap="round" stroke-linejoin="round"/>
<path d="M156.617 37.2617C157.008 37.0664 158.254 36.4883 159.594 36.8321C161.988 37.4414 162.258 40.3281 162.273 40.5391C162.414 42.375 161.289 44.5117 159.145 45.2774C157.496 45.8633 155.906 45.3985 155.059 45.1485C152.313 44.3477 150.805 42.4805 150.055 41.5352C147.656 38.4766 148.824 36.9883 146.363 34.8164C145.699 34.2227 144.348 33.0235 142.277 32.7071C140.125 32.3711 139.238 33.3008 137.273 32.7539C135.348 32.211 134.352 30.7969 134.094 30.3985C133.977 30.2188 132.574 27.961 133.891 25.6875C134.164 25.2149 134.965 23.8438 136.773 23.4453C138.414 23.0938 140.223 23.6914 141.211 24.8711C142.059 25.875 142.309 27.293 141.648 28.418C141.504 28.6641 141.055 29.4297 140.035 29.7383C139.18 29.9922 138.094 29.8789 137.344 29.2813C136.684 28.7461 136.563 28.0664 136.539 27.8633" stroke="#0E0E0E" stroke-width="0.75" stroke-linecap="round" stroke-linejoin="round"/>
<path d="M147.91 36.9141C147.594 33.4961 145.848 30.6836 143.289 29.7656C142.703 29.5586 141.789 29.3477 140.574 29.4961" stroke="#0E0E0E" stroke-width="0.75" stroke-linecap="round" stroke-linejoin="round"/>
<path d="M150.512 42.2188C150.047 42.0977 148.113 41.6485 146.461 42.7266C144.477 44.0313 143.68 47.0547 144.902 49.9219" stroke="#0E0E0E" stroke-width="0.75" stroke-linecap="round" stroke-linejoin="round"/>
<path d="M151.871 52.5234C151.563 52.5078 150.926 52.5156 150.25 52.8672C149.156 53.4453 148.797 54.5039 148.727 54.7422" stroke="#0E0E0E" stroke-width="0.75" stroke-linecap="round" stroke-linejoin="round"/>
<path d="M162.852 91.3359C162.836 91.2305 162.82 91.043 162.789 90.8242C162.203 85.6875 158.898 61.7031 139.172 44.2031C136.719 42.0313 132.918 38.9766 127.684 36.0078" stroke="#0E0E0E" stroke-width="0.75" stroke-linecap="round" stroke-linejoin="round"/>
<path d="M89.0508 32.6836C88.9961 32.0625 88.7422 29.8789 86.9336 28.0274C85.3164 26.3633 83.4102 25.9649 82.7578 25.8516C82.8086 25.1992 82.8633 24.5469 82.914 23.8945C83.7695 23.4961 85.4883 22.5508 86.9141 20.6406C88.3594 18.6992 88.7735 16.7617 88.9063 15.8242C89.2461 16.9961 89.9883 18.9961 91.6836 20.9492C92.9883 22.4492 94.375 23.3633 95.3359 23.8945C95.3867 24.5469 95.4414 25.1992 95.4922 25.8516C95.0274 25.8985 92.0352 26.2422 90.2344 28.8594C89.1758 30.4063 89.0508 31.9805 89.0352 32.6836H89.0508Z" fill="black" stroke="black" stroke-width="0.5625" stroke-linecap="round" stroke-linejoin="round"/>
<path d="M120.414 22.2461C119.582 22.0039 118.211 21.7422 116.656 22.1172C115.301 22.4414 114.387 23.1015 113.867 23.4882C109.309 26.9101 108.633 29.5664 105.496 30.7656C105.094 30.9218 102.16 31.8906 99.2031 30.5117C97.1211 29.5351 95.6367 27.3164 95.4023 24.9062C95.0742 21.457 97.4727 18.0468 100.254 17.4218C100.578 17.3476 102.332 16.957 103.766 18.0312C103.945 18.164 105.055 19.0195 105.211 20.5273C105.234 20.7539 105.414 22.6953 103.93 23.6406C103.098 24.164 102.039 24.1953 101.199 23.8047C100.008 23.2578 99.2891 21.8867 99.4766 20.414C99.1836 20.7383 98.7773 21.2382 98.4531 21.9297C98.2969 22.2617 97.2773 24.5156 98.2539 26.6836C99.4375 29.3242 102.672 29.789 103.105 29.8515C105.992 30.2617 108.992 28.7461 110.957 26.0234" stroke="#0E0E0E" stroke-width="0.75" stroke-linecap="round" stroke-linejoin="round"/>
<path d="M95.3438 23.8047C94.2383 23.2578 93.4688 22.6484 92.9727 22.1992C89.6289 19.1562 89.3047 14.6328 89.1836 12.9688C89.1016 11.8281 89.1485 10.8828 89.1993 10.2461" stroke="#0E0E0E" stroke-width="0.75" stroke-linecap="round" stroke-linejoin="round"/>
<path d="M95.5 25.7617C94.7891 25.8906 94.0156 26.1133 93.25 26.5039C89.793 28.2656 89.2812 31.957 89.207 32.5938" stroke="#0E0E0E" stroke-width="0.75" stroke-linecap="round" stroke-linejoin="round"/>
<path d="M119.711 29.1016C119.598 29.3555 119.004 30.668 117.617 31.1016C116.148 31.5664 114.859 30.7109 114.316 30.3516C112.047 28.8438 111.82 25.9727 111.797 25.5078" stroke="#0E0E0E" stroke-width="0.75" stroke-linecap="round" stroke-linejoin="round"/>
<path d="M127.684 36.0157C127.039 35.6485 126.129 35.0938 125.109 34.3516C122.164 32.2032 119.859 30.5313 119.262 27.8008C118.711 25.3204 119.828 23.2266 120.023 22.8751C121.863 19.5587 125.711 19.0118 126.504 18.922C130.082 18.5157 133.711 20.4063 135.984 23.7071" stroke="#0E0E0E" stroke-width="0.75" stroke-linecap="round" stroke-linejoin="round"/>
<path d="M135.488 41.1601C135.527 33.4414 133.637 27.3828 130.645 25.7109C129.109 24.8555 127.547 24.832 127.547 24.832C127.031 24.832 124.414 24.8711 122.754 27.0312C121.277 28.957 121.645 31.164 121.711 31.539" stroke="#0E0E0E" stroke-width="0.75" stroke-linecap="round" stroke-linejoin="round"/>
<path d="M156.617 37.2617C157.008 37.0664 158.254 36.4883 159.594 36.8321C161.988 37.4414 162.258 40.3281 162.273 40.5391C162.414 42.375 161.289 44.5117 159.145 45.2774C157.496 45.8633 155.906 45.3985 155.059 45.1485C152.313 44.3477 150.805 42.4805 150.055 41.5352C147.656 38.4766 148.824 36.9883 146.363 34.8164C145.699 34.2227 144.348 33.0235 142.277 32.7071C140.125 32.3711 139.238 33.3008 137.273 32.7539C135.348 32.211 134.352 30.7969 134.094 30.3985C133.977 30.2188 132.574 27.961 133.891 25.6875C134.164 25.2149 134.965 23.8438 136.773 23.4453C138.414 23.0938 140.223 23.6914 141.211 24.8711C142.059 25.875 142.309 27.293 141.648 28.418C141.504 28.6641 141.055 29.4297 140.035 29.7383C139.18 29.9922 138.094 29.8789 137.344 29.2813C136.684 28.7461 136.563 28.0664 136.539 27.8633" stroke="#0E0E0E" stroke-width="0.75" stroke-linecap="round" stroke-linejoin="round"/>
<path d="M147.91 36.9141C147.594 33.4961 145.848 30.6836 143.289 29.7656C142.703 29.5586 141.789 29.3477 140.574 29.4961" stroke="#0E0E0E" stroke-width="0.75" stroke-linecap="round" stroke-linejoin="round"/>
<path d="M162.762 48.9843C161.531 46.8749 159.566 45.5624 157.609 45.6835C155.184 45.8319 153.762 48.1054 153.145 49.0859C149.68 54.6132 153.387 62.1679 153.953 63.3007" stroke="#0E0E0E" stroke-width="0.75" stroke-linecap="round" stroke-linejoin="round"/>
<path d="M162.812 90.6602C161.402 81.0078 156.82 59.8945 139.172 44.2109C135.332 40.8008 131.41 38.1211 127.684 36.0156" stroke="#0E0E0E" stroke-width="0.75" stroke-linecap="round" stroke-linejoin="round"/>
<mask id="mask3_2321_5101" style="mask-type:luminance" maskUnits="userSpaceOnUse" x="15" y="148" width="148" height="81">
<path d="M15 148H163V229H15V148Z" fill="white"/>
</mask>
<g mask="url(#mask3_2321_5101)">
<mask id="mask4_2321_5101" style="mask-type:luminance" maskUnits="userSpaceOnUse" x="15" y="148" width="148" height="81">
<path d="M15.707 148.859C15.7305 175.254 15.7461 201.645 15.7656 228.031C64.6289 228.023 113.492 228.008 162.355 228C162.379 202.523 162.398 177.047 162.422 151.566C157.57 162.855 150.129 176.609 138.586 190.352C134.133 195.645 129.648 200.266 125.32 204.27C124.121 205.859 122.922 207.441 121.727 209.031C121.047 209.219 120.363 209.398 119.68 209.586C119.363 209.168 118.148 207.613 116.477 207.586C114.301 207.547 111.871 210.098 111.754 213.938C111.496 213.367 109.359 208.824 104.5 207.797C102.16 207.301 100.195 207.824 99.1836 208.184C98.5234 208.734 97.6445 209.578 96.8438 210.797C96.0547 211.988 95.6289 213.105 95.3789 213.914H82.832C82.7578 213.449 82.1484 210.023 79.0312 208.312C75.9766 206.641 72.8789 207.914 71.9258 208.297C68.6367 209.625 67.2383 212.363 66.9336 213.008C66.1914 209.469 63.7148 207.277 61.5391 207.449C61.1875 207.48 60.0547 207.629 58.8789 208.949C57.625 207.906 56.3711 206.863 55.1211 205.824C49.3008 202.941 38.4609 196.605 29.3633 184.32C18.7305 169.949 16.375 155.406 15.7227 148.867L15.707 148.859Z" fill="white"/>
</mask>
<g mask="url(#mask4_2321_5101)">
<path d="M15.707 148.859V228.031H162.422V148.859H15.707Z" fill="url(#paint1_linear_2321_5101)"/>
</g>
</g>
<path d="M89.0859 206.137C89.1406 206.762 89.3945 208.941 91.2031 210.797C92.8242 212.461 94.7266 212.859 95.3789 212.969C95.3281 213.621 95.2734 214.273 95.2227 214.926C94.3672 215.324 92.6484 216.27 91.2266 218.184C89.7773 220.125 89.3633 222.059 89.2305 222.996C88.8906 221.828 88.1484 219.824 86.4531 217.875C85.1484 216.375 83.7617 215.461 82.8008 214.926C82.75 214.273 82.6992 213.621 82.6445 212.969C83.1094 212.926 86.1016 212.578 87.9023 209.961C88.9609 208.418 89.0859 206.844 89.1016 206.137H89.0859Z" fill="white"/>
<path d="M120.301 216.578C119.469 216.816 118.098 217.078 116.547 216.703C115.187 216.383 114.273 215.723 113.754 215.332C109.195 211.914 108.52 209.258 105.387 208.059C104.98 207.898 102.047 206.934 99.0938 208.313C97.0078 209.289 95.5234 211.508 95.2891 213.914C94.9609 217.363 97.3594 220.777 100.141 221.398C100.465 221.477 102.219 221.863 103.652 220.793C103.832 220.656 104.941 219.801 105.102 218.297C105.121 218.07 105.301 216.129 103.816 215.184C102.984 214.656 101.926 214.629 101.086 215.016C99.8945 215.566 99.1758 216.938 99.3633 218.406C99.0703 218.086 98.6641 217.582 98.3438 216.891C98.1836 216.563 97.1641 214.305 98.1407 212.137C99.3242 209.496 102.559 209.031 102.992 208.973C105.879 208.559 108.879 210.074 110.844 212.797" stroke="#0E0E0E" stroke-width="0.75" stroke-linecap="round" stroke-linejoin="round"/>
<path d="M95.2226 215.016C94.164 215.543 93.3906 216.137 92.8515 216.621C89.7382 219.449 89.2812 223.566 89.0663 225.496C88.9218 226.746 88.9375 227.781 88.9687 228.422" stroke="#0E0E0E" stroke-width="0.75" stroke-linecap="round" stroke-linejoin="round"/>
<path d="M95.3789 213.059C94.668 212.934 93.8945 212.707 93.1289 212.316C89.6719 210.555 89.1641 206.863 89.0859 206.227" stroke="#0E0E0E" stroke-width="0.75" stroke-linecap="round" stroke-linejoin="round"/>
<path d="M57.7227 216.578C58.5547 216.816 59.9258 217.078 61.4804 216.703C62.8359 216.383 63.7539 215.723 64.2695 215.332C68.8281 211.914 69.5039 209.258 72.6406 208.059C73.0469 207.898 75.9766 206.934 78.9336 208.313C81.0156 209.289 82.5039 211.508 82.7344 213.914C83.0664 217.363 80.664 220.777 77.8828 221.398C77.5586 221.477 75.8047 221.863 74.3711 220.793C74.1914 220.656 73.082 219.801 72.9258 218.297C72.9023 218.07 72.7226 216.129 74.207 215.184C75.039 214.656 76.0976 214.629 76.9375 215.016C78.1289 215.566 78.8516 216.938 78.6641 218.406C78.9531 218.086 79.3594 217.582 79.6836 216.891C79.8398 216.563 80.8594 214.305 79.8867 212.137C78.6992 209.496 75.4687 209.031 75.0312 208.973C72.1445 208.559 69.1445 210.074 67.1797 212.797" stroke="#0E0E0E" stroke-width="0.75" stroke-linecap="round" stroke-linejoin="round"/>
<path d="M82.6367 213.059C83.3203 212.953 84.1016 212.738 84.8867 212.316C88.0977 210.621 88.9297 207 89.0859 206.227" stroke="#0E0E0E" stroke-width="0.75" stroke-linecap="round" stroke-linejoin="round"/>
<path d="M58.4258 209.723C58.5391 209.469 59.1328 208.156 60.5195 207.719C61.9883 207.254 63.2812 208.109 63.8203 208.469C66.0937 209.977 66.3164 212.852 66.3398 213.316" stroke="#0E0E0E" stroke-width="0.75" stroke-linecap="round" stroke-linejoin="round"/>
<path d="M50.4531 202.809C51.1015 203.176 52.0078 203.73 53.0273 204.473C55.9766 206.617 58.2773 208.289 58.8789 211.02C59.4258 213.504 58.3086 215.594 58.1133 215.949C56.2734 219.262 52.4258 219.809 51.6328 219.898C48.0547 220.305 44.4258 218.414 42.1523 215.113" stroke="#0E0E0E" stroke-width="0.75" stroke-linecap="round" stroke-linejoin="round"/>
<path d="M42.6484 197.664C42.6094 205.379 44.5 211.441 47.4922 213.113C49.0313 213.969 50.5898 213.988 50.5898 213.988C51.1094 213.988 53.7266 213.953 55.3828 211.793C56.8594 209.863 56.4922 207.66 56.4258 207.285" stroke="#0E0E0E" stroke-width="0.75" stroke-linecap="round" stroke-linejoin="round"/>
<path d="M21.5195 201.563C21.1289 201.758 19.8867 202.336 18.543 201.988C16.1484 201.383 15.8789 198.496 15.8633 198.285C15.7227 196.449 16.8477 194.309 18.9922 193.547C20.6407 192.961 22.2344 193.426 23.0781 193.672C25.8242 194.477 27.332 196.344 28.082 197.289C30.4844 200.348 29.3125 201.832 31.7734 204.008C32.4414 204.602 33.7891 205.801 35.8594 206.113C38.0117 206.453 38.8985 205.524 40.8633 206.07C42.7891 206.609 43.7891 208.027 44.043 208.426C44.1641 208.606 45.5664 210.863 44.2461 213.137C43.9766 213.609 43.1719 214.981 41.3633 215.379C39.7227 215.731 37.9141 215.129 36.9258 213.953C36.0782 212.949 35.8282 211.531 36.4883 210.406C36.6329 210.156 37.082 209.391 38.1016 209.086C38.957 208.828 40.0469 208.942 40.7969 209.543C41.4531 210.074 41.5743 210.758 41.5977 210.961" stroke="#0E0E0E" stroke-width="0.75" stroke-linecap="round" stroke-linejoin="round"/>
<path d="M30.2266 201.914C30.543 205.336 32.2891 208.148 34.8477 209.062C35.4336 209.273 36.3477 209.484 37.5625 209.332" stroke="#0E0E0E" stroke-width="0.75" stroke-linecap="round" stroke-linejoin="round"/>
<path d="M27.6328 196.605C28.1133 196.727 30.0313 197.16 31.6836 196.094C33.6836 194.789 34.5039 191.766 33.2969 188.887" stroke="#0E0E0E" stroke-width="0.75" stroke-linecap="round" stroke-linejoin="round"/>
<path d="M26.2656 186.301C26.5742 186.316 27.211 186.309 27.8867 185.953C29.0117 185.363 29.3594 184.262 29.4258 184.035" stroke="#0E0E0E" stroke-width="0.75" stroke-linecap="round" stroke-linejoin="round"/>
<path d="M15.4141 146.715C16.6133 156.375 20.8281 178.453 38.9649 194.617C42.7969 198.031 46.7109 200.707 50.4531 202.816" stroke="#0E0E0E" stroke-width="0.75" stroke-linecap="round" stroke-linejoin="round"/>
<path d="M89.0859 206.137C89.1406 206.762 89.3945 208.941 91.2031 210.797C92.8242 212.461 94.7265 212.859 95.3789 212.969C95.3281 213.621 95.2734 214.273 95.2227 214.926C94.7578 215.137 94.1211 215.469 93.4375 215.984C91.8984 217.164 91.164 218.543 90.5195 219.789C89.957 220.883 89.2304 222.578 88.8554 224.812C88.8476 223.738 88.6836 220.656 86.4492 217.867C85.1797 216.277 83.7265 215.387 82.7968 214.922C82.7422 214.266 82.6914 213.613 82.6367 212.961C83.1016 212.918 86.0937 212.574 87.8945 209.953C88.9531 208.41 89.0781 206.836 89.0938 206.129L89.0859 206.137Z" fill="black" stroke="black" stroke-width="0.5625" stroke-linecap="round" stroke-linejoin="round"/>
<path d="M57.7227 216.578C58.5547 216.816 59.9258 217.078 61.4804 216.703C62.8359 216.383 63.7539 215.723 64.2695 215.332C68.8281 211.914 69.5039 209.258 72.6406 208.059C73.0469 207.898 75.9766 206.934 78.9336 208.313C81.0156 209.289 82.5039 211.508 82.7344 213.914C83.0664 217.363 80.664 220.777 77.8828 221.398C77.5586 221.477 75.8047 221.863 74.3711 220.793C74.1914 220.656 73.082 219.801 72.9258 218.297C72.9023 218.07 72.7226 216.129 74.207 215.184C75.039 214.656 76.0976 214.629 76.9375 215.016C78.1289 215.566 78.8516 216.938 78.6641 218.406C78.9531 218.086 79.3594 217.582 79.6836 216.891C79.8398 216.563 80.8594 214.305 79.8867 212.137C78.6992 209.496 75.4687 209.031 75.0312 208.973C72.1445 208.559 69.1445 210.074 67.1797 212.797" stroke="#0E0E0E" stroke-width="0.75" stroke-linecap="round" stroke-linejoin="round"/>
<path d="M82.7969 215.016C83.418 215.316 84.2891 215.82 85.1641 216.621C87.0156 218.332 87.6836 220.313 88.2032 221.934C89.0039 224.438 89.086 226.719 88.9766 228.422" stroke="#0E0E0E" stroke-width="0.75" stroke-linecap="round" stroke-linejoin="round"/>
<path d="M82.6367 213.059C83.3203 212.953 84.1016 212.738 84.8867 212.316C88.1289 210.602 88.9375 206.895 89.0859 206.137" stroke="#0E0E0E" stroke-width="0.75" stroke-linecap="round" stroke-linejoin="round"/>
<path d="M58.4258 209.723C58.5391 209.469 59.1328 208.156 60.5195 207.719C61.9883 207.254 63.2812 208.109 63.8203 208.469C66.0937 209.977 66.3164 212.852 66.3398 213.316" stroke="#0E0E0E" stroke-width="0.75" stroke-linecap="round" stroke-linejoin="round"/>
<path d="M50.4531 202.809C51.1015 203.176 52.0078 203.73 53.0273 204.473C55.9766 206.617 58.2773 208.289 58.8789 211.02C59.4258 213.504 58.3086 215.594 58.1133 215.949C56.2734 219.262 52.4258 219.809 51.6328 219.898C48.0547 220.305 44.4258 218.414 42.1523 215.113" stroke="#0E0E0E" stroke-width="0.75" stroke-linecap="round" stroke-linejoin="round"/>
<path d="M42.6484 197.664C42.6094 205.379 44.5 211.441 47.4922 213.113C49.0313 213.969 50.5898 213.988 50.5898 213.988C51.1094 213.988 53.7266 213.953 55.3828 211.793C56.8594 209.863 56.4922 207.66 56.4258 207.285" stroke="#0E0E0E" stroke-width="0.75" stroke-linecap="round" stroke-linejoin="round"/>
<path d="M21.5195 201.563C21.1289 201.758 19.8867 202.336 18.543 201.988C16.1484 201.383 15.8789 198.496 15.8633 198.285C15.7227 196.449 16.8477 194.309 18.9922 193.547C20.6407 192.961 22.2344 193.426 23.0781 193.672C25.8242 194.477 27.332 196.344 28.082 197.289C30.4844 200.348 29.3125 201.832 31.7734 204.008C32.4414 204.602 33.7891 205.801 35.8594 206.113C38.0117 206.453 38.8985 205.524 40.8633 206.07C42.7891 206.609 43.7891 208.027 44.043 208.426C44.1641 208.606 45.5664 210.863 44.2461 213.137C43.9766 213.609 43.1719 214.981 41.3633 215.379C39.7227 215.731 37.9141 215.129 36.9258 213.953C36.0782 212.949 35.8282 211.531 36.4883 210.406C36.6329 210.156 37.082 209.391 38.1016 209.086C38.957 208.828 40.0469 208.942 40.7969 209.543C41.4531 210.074 41.5743 210.758 41.5977 210.961" stroke="#0E0E0E" stroke-width="0.75" stroke-linecap="round" stroke-linejoin="round"/>
<path d="M30.2266 201.914C30.543 205.336 32.2891 208.148 34.8477 209.062C35.4336 209.273 36.3477 209.484 37.5625 209.332" stroke="#0E0E0E" stroke-width="0.75" stroke-linecap="round" stroke-linejoin="round"/>
<path d="M15.4609 189.977C15.5508 190.125 17.5469 193.32 20.5313 193.133C22.9453 192.984 24.3711 190.719 24.9922 189.727C28.4492 184.207 24.7539 176.648 24.1836 175.516" stroke="#0E0E0E" stroke-width="0.75" stroke-linecap="round" stroke-linejoin="round"/>
<path d="M27.6328 196.605C28.1133 196.727 30.0313 197.16 31.6836 196.094C33.6836 194.789 34.5039 191.766 33.2969 188.887" stroke="#0E0E0E" stroke-width="0.75" stroke-linecap="round" stroke-linejoin="round"/>
<path d="M26.2656 186.301C26.5742 186.316 27.211 186.309 27.8867 185.953C29.0117 185.363 29.3594 184.262 29.4258 184.035" stroke="#0E0E0E" stroke-width="0.75" stroke-linecap="round" stroke-linejoin="round"/>
<path d="M15.4141 146.715C16.6133 156.375 20.8281 178.453 38.9649 194.617C42.7969 198.031 46.7109 200.707 50.4531 202.816" stroke="#0E0E0E" stroke-width="0.75" stroke-linecap="round" stroke-linejoin="round"/>
<path d="M26.9805 44.1133L27.332 44.0859V45.1484H21.25V44.0859L21.6016 44.1133C21.9688 44.1094 22.2773 43.9492 22.5312 43.6484C22.7812 43.3516 22.9062 42.9883 22.9062 42.5625V27.1133H21.25V26.2031L21.5117 26.1445L21.9844 26.0156C22.2617 25.9336 22.5313 25.8242 22.7891 25.6719C23.2383 25.3789 23.6289 24.9883 23.9727 24.5117C24.1289 24.2695 24.2656 24.0156 24.3789 23.7461C24.4375 23.6172 24.4883 23.4844 24.5352 23.3398C24.5508 23.2812 24.5938 23.1367 24.6562 22.9141L24.7383 22.6289H25.6992V42.5703C25.6992 42.9961 25.8242 43.3633 26.0742 43.6562C26.3203 43.9492 26.6289 44.1094 26.9883 44.1211L26.9805 44.1133Z" fill="black"/>
<path d="M45.5273 26.0117C46.3828 27.0977 47.043 28.3281 47.5 29.6992C47.957 31.0742 48.1836 32.5039 48.1836 34.0117C48.1836 35.5195 47.9492 36.9844 47.4766 38.3633C47.0117 39.75 46.3281 40.9883 45.4453 42.0898C44.5586 43.1719 43.5547 43.9961 42.4219 44.5664C41.2891 45.1406 40.1055 45.4258 38.8594 45.4258C37.6133 45.4258 36.4766 45.1484 35.3594 44.5859C34.2383 44.0234 33.2422 43.2227 32.3594 42.1641L32.2148 41.9922C31.3594 40.9062 30.6992 39.6758 30.2422 38.3008C29.7852 36.9297 29.5586 35.4961 29.5586 34.0039C29.5586 32.5117 29.793 31.0195 30.2656 29.6328C30.7305 28.2461 31.4062 27.0078 32.2812 25.9219C33.1758 24.832 34.1875 24 35.3125 23.4219C36.4375 22.8438 37.6211 22.5586 38.8672 22.5586C40.1133 22.5586 41.2656 22.8359 42.3789 23.3984C43.4961 23.9609 44.4922 24.7656 45.3789 25.8242C45.4219 25.8828 45.4688 25.9414 45.5195 25.9961L45.5273 26.0117ZM44.8438 41.3711C45.9102 39.9961 46.4492 38.3086 46.4492 36.3008C46.4492 35.9531 46.4336 35.6016 46.3984 35.25C46.1406 32.6992 45.2109 30.3984 43.6016 28.3516H43.5859C43.5859 28.3516 43.5469 28.2891 43.5312 28.2734L43.4648 28.1992C42.5273 27.082 41.5 26.2109 40.3828 25.6055C39.2656 24.9883 38.1406 24.6914 37.0156 24.6914C35.3789 24.6914 34.0078 25.3516 32.9062 26.6719C31.8398 28.043 31.3008 29.7305 31.3008 31.7383C31.3008 32.0859 31.3164 32.4375 31.3516 32.7891C31.6094 35.332 32.5391 37.6289 34.1484 39.6758L34.2773 39.832V39.8477C36.3164 42.1797 38.4688 43.3516 40.7266 43.3516C42.3789 43.3516 43.7422 42.6992 44.8359 41.3906L44.8438 41.3711Z" fill="black"/>
<path d="M57.7813 27.375C57.1094 28.4336 56.2734 29.5859 55.2539 30.7734C54.5742 31.5664 53.8906 32.2734 53.2383 32.8945C54.0703 33.7187 54.9531 34.6875 55.8398 35.8047C56.5898 36.7422 57.2266 37.6484 57.7813 38.5039C58.336 37.6797 58.9766 36.7969 59.7188 35.8945C60.6484 34.7539 61.5781 33.7813 62.4492 32.9414C61.6758 32.25 60.8359 31.4101 59.9883 30.414C59.0781 29.3398 58.3594 28.3047 57.7813 27.375Z" fill="#EB1C24" stroke="black" stroke-width="0.5625" stroke-linecap="round" stroke-linejoin="round"/>
<path d="M151.074 194.805L150.723 194.836V193.77H156.805V194.836L156.453 194.805C156.086 194.812 155.777 194.969 155.523 195.27C155.273 195.57 155.148 195.93 155.148 196.359V211.809H156.805V212.715L156.543 212.773L156.07 212.902C155.793 212.984 155.523 213.098 155.266 213.246C154.816 213.539 154.426 213.93 154.082 214.41C153.926 214.648 153.789 214.906 153.676 215.176C153.617 215.301 153.566 215.438 153.52 215.578C153.504 215.641 153.461 215.781 153.398 216.008L153.316 216.293H152.359V196.352C152.359 195.922 152.23 195.555 151.984 195.262C151.734 194.969 151.426 194.812 151.066 194.797L151.074 194.805Z" fill="black"/>
<path d="M132.527 212.91C131.672 211.824 131.012 210.594 130.555 209.219C130.098 207.848 129.871 206.414 129.871 204.906C129.871 203.398 130.105 201.937 130.578 200.559C131.043 199.172 131.727 197.934 132.609 196.828C133.496 195.75 134.5 194.926 135.633 194.355C136.766 193.777 137.949 193.492 139.195 193.492C140.441 193.492 141.578 193.77 142.699 194.332C143.816 194.895 144.812 195.699 145.699 196.754L145.84 196.926C146.695 198.016 147.355 199.246 147.812 200.617C148.27 201.988 148.496 203.422 148.496 204.914C148.496 206.406 148.262 207.898 147.789 209.289C147.324 210.676 146.648 211.914 145.773 213C144.879 214.086 143.867 214.922 142.742 215.496C141.617 216.074 140.434 216.359 139.188 216.359C137.941 216.359 136.789 216.082 135.676 215.52C134.559 214.957 133.563 214.156 132.676 213.098C132.633 213.039 132.586 212.977 132.535 212.926L132.527 212.91ZM133.211 197.551C132.145 198.922 131.605 200.609 131.605 202.621C131.605 202.965 131.621 203.316 131.656 203.672C131.914 206.219 132.844 208.523 134.453 210.57H134.469C134.469 210.57 134.508 210.629 134.523 210.645L134.59 210.719C135.527 211.836 136.555 212.707 137.672 213.316C138.789 213.93 139.914 214.23 141.039 214.23C142.676 214.23 144.047 213.57 145.148 212.25C146.215 210.879 146.754 209.191 146.754 207.18C146.754 206.836 146.738 206.484 146.703 206.129C146.449 203.586 145.516 201.293 143.906 199.246L143.777 199.086V199.074C141.738 196.738 139.586 195.57 137.328 195.57C135.676 195.57 134.312 196.223 133.219 197.527L133.211 197.551Z" fill="black"/>
<path d="M120.242 200.414C119.566 201.473 118.734 202.629 117.715 203.812C117.031 204.609 116.352 205.312 115.699 205.934C116.531 206.762 117.414 207.727 118.301 208.844C119.051 209.781 119.688 210.691 120.242 211.547C120.797 210.719 121.434 209.836 122.176 208.934C123.109 207.797 124.039 206.82 124.906 205.98C124.137 205.289 123.297 204.449 122.449 203.453C121.539 202.379 120.82 201.344 120.242 200.414Z" fill="#EB1C24" stroke="black" stroke-width="0.5625" stroke-linecap="round" stroke-linejoin="round"/>
<path d="M68.0742 45.9687C66.586 48.2851 64.7578 50.8203 62.5234 53.4219C61.0234 55.1719 59.5313 56.7148 58.1055 58.0781C59.9336 59.8945 61.8711 62.0117 63.8203 64.4531C65.4531 66.5117 66.8633 68.5117 68.0781 70.3789C69.2969 68.5664 70.6992 66.6289 72.3242 64.6484C74.3633 62.1523 76.3984 60.0078 78.3086 58.1719C76.6211 56.6563 74.7773 54.8164 72.918 52.6211C70.9297 50.2734 69.3398 48 68.0781 45.9609L68.0742 45.9687Z" fill="#EB1C24" stroke="black" stroke-width="0.5625" stroke-linecap="round" stroke-linejoin="round"/>
<path d="M68.0742 85.4687C66.586 87.7891 64.7578 90.3242 62.5234 92.9258C61.0234 94.6719 59.5313 96.2188 58.1055 97.582C59.9336 99.3984 61.8711 101.512 63.8203 103.957C65.4531 106.012 66.8633 108.016 68.0781 109.883C69.2969 108.066 70.6992 106.133 72.3242 104.152C74.3633 101.656 76.3984 99.5117 78.3086 97.6719C76.6211 96.1563 74.7773 94.3203 72.918 92.1211C70.9297 89.7734 69.3398 87.5039 68.0781 85.4609L68.0742 85.4687Z" fill="#EB1C24" stroke="black" stroke-width="0.5625" stroke-linecap="round" stroke-linejoin="round"/>
<path d="M68.0742 125.168C66.586 127.484 64.7578 130.02 62.5234 132.621C61.0234 134.371 59.5313 135.914 58.1055 137.281C59.9336 139.094 61.8711 141.211 63.8203 143.656C65.4531 145.711 66.8633 147.711 68.0781 149.578C69.2969 147.766 70.6992 145.828 72.3242 143.852C74.3633 141.352 76.3984 139.207 78.3086 137.371C76.6211 135.855 74.7773 134.016 72.918 131.82C70.9297 129.473 69.3398 127.199 68.0781 125.16L68.0742 125.168Z" fill="#EB1C24" stroke="black" stroke-width="0.5625" stroke-linecap="round" stroke-linejoin="round"/>
<path d="M68.0742 164.762C66.586 167.078 64.7578 169.613 62.5234 172.215C61.0234 173.961 59.5313 175.508 58.1055 176.871C59.9336 178.688 61.8711 180.801 63.8203 183.246C65.4531 185.301 66.8633 187.305 68.0781 189.172C69.2969 187.359 70.6992 185.422 72.3242 183.441C74.3633 180.945 76.3984 178.801 78.3086 176.961C76.6211 175.449 74.7773 173.609 72.918 171.414C70.9297 169.066 69.3398 166.793 68.0781 164.754L68.0742 164.762Z" fill="#EB1C24" stroke="black" stroke-width="0.5625" stroke-linecap="round" stroke-linejoin="round"/>
<path d="M109.922 164.762C108.438 167.078 106.609 169.613 104.371 172.215C102.871 173.961 101.379 175.508 99.9531 176.871C101.785 178.688 103.719 180.801 105.672 183.246C107.305 185.301 108.715 187.305 109.93 189.172C111.145 187.359 112.547 185.422 114.176 183.441C116.215 180.945 118.246 178.801 120.16 176.961C118.473 175.449 116.629 173.609 114.766 171.414C112.781 169.066 111.191 166.793 109.93 164.754L109.922 164.762Z" fill="#EB1C24" stroke="black" stroke-width="0.5625" stroke-linecap="round" stroke-linejoin="round"/>
<path d="M109.922 125.168C108.438 127.484 106.609 130.02 104.371 132.621C102.871 134.371 101.379 135.914 99.9531 137.281C101.785 139.094 103.719 141.211 105.672 143.656C107.305 145.711 108.715 147.711 109.93 149.578C111.145 147.766 112.547 145.828 114.176 143.852C116.215 141.352 118.246 139.207 120.16 137.371C118.473 135.855 116.629 134.016 114.766 131.82C112.781 129.473 111.191 127.199 109.93 125.16L109.922 125.168Z" fill="#EB1C24" stroke="black" stroke-width="0.5625" stroke-linecap="round" stroke-linejoin="round"/>
<path d="M109.922 85.4687C108.438 87.7891 106.609 90.3242 104.371 92.9258C102.871 94.6719 101.379 96.2188 99.9531 97.582C101.785 99.3984 103.719 101.512 105.672 103.957C107.305 106.012 108.715 108.016 109.93 109.883C111.145 108.066 112.547 106.133 114.176 104.152C116.215 101.656 118.246 99.5117 120.16 97.6719C118.473 96.1563 116.629 94.3203 114.766 92.1211C112.781 89.7734 111.191 87.5039 109.93 85.4609L109.922 85.4687Z" fill="#EB1C24" stroke="black" stroke-width="0.5625" stroke-linecap="round" stroke-linejoin="round"/>
<path d="M109.922 45.9687C108.438 48.2851 106.609 50.8203 104.371 53.4219C102.871 55.1719 101.379 56.7148 99.9531 58.0781C101.785 59.8945 103.719 62.0117 105.672 64.4531C107.305 66.5117 108.715 68.5117 109.93 70.3789C111.145 68.5664 112.547 66.6289 114.176 64.6484C116.215 62.1523 118.246 60.0078 120.16 58.1719C118.473 56.6563 116.629 54.8164 114.766 52.6211C112.781 50.2734 111.191 48 109.93 45.9609L109.922 45.9687Z" fill="#EB1C24" stroke="black" stroke-width="0.5625" stroke-linecap="round" stroke-linejoin="round"/>
<path d="M89.7109 65.6914C88.2265 68.0117 86.3945 70.5469 84.1602 73.1484C82.6602 74.8945 81.168 76.4414 79.7422 77.8047C81.5742 79.6211 83.5078 81.7344 85.457 84.1797C87.0937 86.2344 88.5039 88.2383 89.7187 90.1055C90.9336 88.2891 92.3359 86.3555 93.9609 84.375C96.0039 81.8789 98.0351 79.7344 99.9492 77.8945C98.2617 76.3789 96.4141 74.543 94.5547 72.3437C92.5664 69.9961 90.9765 67.7266 89.7187 65.6836L89.7109 65.6914Z" fill="#EB1C24" stroke="black" stroke-width="0.5625" stroke-linecap="round" stroke-linejoin="round"/>
<path d="M89.8828 143.836C88.3985 146.152 86.5664 148.687 84.332 151.289C82.832 153.039 81.3398 154.582 79.9141 155.949C81.7461 157.762 83.6797 159.879 85.6289 162.324C87.2656 164.379 88.6758 166.379 89.8907 168.246C91.1055 166.434 92.5078 164.496 94.1367 162.516C96.1758 160.02 98.2071 157.875 100.121 156.039C98.4336 154.523 96.5859 152.684 94.7266 150.488C92.7383 148.141 91.1485 145.867 89.8907 143.828L89.8828 143.836Z" fill="#EB1C24" stroke="black" stroke-width="0.5625" stroke-linecap="round" stroke-linejoin="round"/>
</g>
<defs>
<filter id="filter0_d_2321_5101" x="0" y="0" width="177.5" height="247" filterUnits="userSpaceOnUse" color-interpolation-filters="sRGB">
<feFlood flood-opacity="0" result="BackgroundImageFix"/>
<feColorMatrix in="SourceAlpha" type="matrix" values="0 0 0 0 0 0 0 0 0 0 0 0 0 0 0 0 0 0 127 0" result="hardAlpha"/>
<feOffset dy="4"/>
<feGaussianBlur stdDeviation="2"/>
<feComposite in2="hardAlpha" operator="out"/>
<feColorMatrix type="matrix" values="0 0 0 0 0 0 0 0 0 0 0 0 0 0 0 0 0 0 0.25 0"/>
<feBlend mode="normal" in2="BackgroundImageFix" result="effect1_dropShadow_2321_5101"/>
<feBlend mode="normal" in="SourceGraphic" in2="effect1_dropShadow_2321_5101" result="shape"/>
</filter>
<linearGradient id="paint0_linear_2321_5101" x1="162.49" y1="49.455" x2="15.85" y2="49.455" gradientUnits="userSpaceOnUse">
<stop stop-color="#8F8587"/>
<stop offset="0.00390625" stop-color="#908688"/>
<stop offset="0.0078125" stop-color="#918789"/>
<stop offset="0.0117188" stop-color="#92888A"/>
<stop offset="0.015625" stop-color="#92898B"/>
<stop offset="0.0195313" stop-color="#938A8B"/>
<stop offset="0.0234375" stop-color="#948B8C"/>
<stop offset="0.0273438" stop-color="#958C8D"/>
<stop offset="0.03125" stop-color="#968D8E"/>
<stop offset="0.0351563" stop-color="#978D8F"/>
<stop offset="0.0390625" stop-color="#988E90"/>
<stop offset="0.0429688" stop-color="#988F91"/>
<stop offset="0.046875" stop-color="#999092"/>
<stop offset="0.0507812" stop-color="#9A9193"/>
<stop offset="0.0546875" stop-color="#9B9294"/>
<stop offset="0.0585938" stop-color="#9C9395"/>
<stop offset="0.0625" stop-color="#9D9496"/>
<stop offset="0.0664062" stop-color="#9D9596"/>
<stop offset="0.0703125" stop-color="#9E9697"/>
<stop offset="0.0742188" stop-color="#9F9798"/>
<stop offset="0.078125" stop-color="#A09899"/>
<stop offset="0.0820312" stop-color="#A1999A"/>
<stop offset="0.0859375" stop-color="#A2999B"/>
<stop offset="0.0898438" stop-color="#A39A9C"/>
<stop offset="0.09375" stop-color="#A39B9D"/>
<stop offset="0.0976562" stop-color="#A49C9E"/>
<stop offset="0.101563" stop-color="#A59D9F"/>
<stop offset="0.105469" stop-color="#A69EA0"/>
<stop offset="0.109375" stop-color="#A79FA0"/>
<stop offset="0.113281" stop-color="#A8A0A1"/>
<stop offset="0.117188" stop-color="#A8A1A2"/>
<stop offset="0.121094" stop-color="#A9A2A3"/>
<stop offset="0.125" stop-color="#AAA3A4"/>
<stop offset="0.128906" stop-color="#ABA4A5"/>
<stop offset="0.132813" stop-color="#ACA5A6"/>
<stop offset="0.136719" stop-color="#ADA6A7"/>
<stop offset="0.140625" stop-color="#AEA6A8"/>
<stop offset="0.144531" stop-color="#AEA7A9"/>
<stop offset="0.148438" stop-color="#AFA8AA"/>
<stop offset="0.152344" stop-color="#B0A9AB"/>
<stop offset="0.15625" stop-color="#B1AAAB"/>
<stop offset="0.160156" stop-color="#B2ABAC"/>
<stop offset="0.164063" stop-color="#B3ACAD"/>
<stop offset="0.167969" stop-color="#B3ADAE"/>
<stop offset="0.171875" stop-color="#B4AEAF"/>
<stop offset="0.175781" stop-color="#B5AFB0"/>
<stop offset="0.179688" stop-color="#B6B0B1"/>
<stop offset="0.183594" stop-color="#B7B1B2"/>
<stop offset="0.1875" stop-color="#B8B2B3"/>
<stop offset="0.191406" stop-color="#B9B2B4"/>
<stop offset="0.195313" stop-color="#B9B3B5"/>
<stop offset="0.199219" stop-color="#BAB4B5"/>
<stop offset="0.203125" stop-color="#BBB5B6"/>
<stop offset="0.207031" stop-color="#BCB6B7"/>
<stop offset="0.210938" stop-color="#BDB7B8"/>
<stop offset="0.214844" stop-color="#BEB8B9"/>
<stop offset="0.21875" stop-color="#BEB9BA"/>
<stop offset="0.222656" stop-color="#BFBABB"/>
<stop offset="0.226563" stop-color="#C0BBBC"/>
<stop offset="0.230469" stop-color="#C1BCBD"/>
<stop offset="0.234375" stop-color="#C2BDBE"/>
<stop offset="0.238281" stop-color="#C3BEBF"/>
<stop offset="0.242188" stop-color="#C3BEBF"/>
<stop offset="0.246094" stop-color="#C4BFC0"/>
<stop offset="0.25" stop-color="#C5C0C1"/>
<stop offset="0.253906" stop-color="#C6C1C2"/>
<stop offset="0.257812" stop-color="#C6C2C3"/>
<stop offset="0.261719" stop-color="#C7C3C3"/>
<stop offset="0.265625" stop-color="#C8C3C4"/>
<stop offset="0.269531" stop-color="#C9C4C5"/>
<stop offset="0.273438" stop-color="#C9C5C6"/>
<stop offset="0.277344" stop-color="#CAC6C7"/>
<stop offset="0.28125" stop-color="#CBC7C7"/>
<stop offset="0.285156" stop-color="#CCC7C8"/>
<stop offset="0.289063" stop-color="#CCC8C9"/>
<stop offset="0.292969" stop-color="#CDC9CA"/>
<stop offset="0.296875" stop-color="#CECACB"/>
<stop offset="0.300781" stop-color="#CFCBCB"/>
<stop offset="0.304688" stop-color="#CFCCCC"/>
<stop offset="0.308594" stop-color="#D0CCCD"/>
<stop offset="0.3125" stop-color="#D1CDCE"/>
<stop offset="0.316406" stop-color="#D2CECF"/>
<stop offset="0.320313" stop-color="#D2CFCF"/>
<stop offset="0.324219" stop-color="#D3D0D0"/>
<stop offset="0.328125" stop-color="#D4D0D1"/>
<stop offset="0.332031" stop-color="#D5D1D2"/>
<stop offset="0.335938" stop-color="#D5D2D3"/>
<stop offset="0.339844" stop-color="#D6D3D3"/>
<stop offset="0.34375" stop-color="#D7D4D4"/>
<stop offset="0.347656" stop-color="#D8D5D5"/>
<stop offset="0.351563" stop-color="#D8D5D6"/>
<stop offset="0.355469" stop-color="#D9D6D7"/>
<stop offset="0.359375" stop-color="#DAD7D7"/>
<stop offset="0.363281" stop-color="#DBD8D8"/>
<stop offset="0.367188" stop-color="#DBD9D9"/>
<stop offset="0.371094" stop-color="#DCDADA"/>
<stop offset="0.375" stop-color="#DDDADB"/>
<stop offset="0.378906" stop-color="#DEDBDC"/>
<stop offset="0.382813" stop-color="#DEDCDC"/>
<stop offset="0.386719" stop-color="#DFDDDD"/>
<stop offset="0.390625" stop-color="#E0DEDE"/>
<stop offset="0.394531" stop-color="#E1DEDF"/>
<stop offset="0.398438" stop-color="#E1DFE0"/>
<stop offset="0.402344" stop-color="#E2E0E0"/>
<stop offset="0.40625" stop-color="#E3E1E1"/>
<stop offset="0.410156" stop-color="#E4E2E2"/>
<stop offset="0.414063" stop-color="#E4E3E3"/>
<stop offset="0.417969" stop-color="#E5E3E4"/>
<stop offset="0.421875" stop-color="#E6E4E4"/>
<stop offset="0.425781" stop-color="#E6E5E5"/>
<stop offset="0.429688" stop-color="#E7E6E6"/>
<stop offset="0.433594" stop-color="#E8E7E7"/>
<stop offset="0.4375" stop-color="#E9E7E8"/>
<stop offset="0.441406" stop-color="#E9E8E8"/>
<stop offset="0.445313" stop-color="#EAE9E9"/>
<stop offset="0.449219" stop-color="#EBEAEA"/>
<stop offset="0.453125" stop-color="#ECEBEB"/>
<stop offset="0.457031" stop-color="#ECEBEB"/>
<stop offset="0.460938" stop-color="#EDECEC"/>
<stop offset="0.464844" stop-color="#EDECEC"/>
<stop offset="0.46875" stop-color="#EEEDED"/>
<stop offset="0.472656" stop-color="#EEEEEE"/>
<stop offset="0.476563" stop-color="#EFEEEE"/>
<stop offset="0.480469" stop-color="#EFEFEF"/>
<stop offset="0.484375" stop-color="#F0EFEF"/>
<stop offset="0.488281" stop-color="#F1F0F0"/>
<stop offset="0.492188" stop-color="#F1F1F1"/>
<stop offset="0.496094" stop-color="#F2F1F1"/>
<stop offset="0.5" stop-color="#F2F2F2"/>
<stop offset="0.503906" stop-color="#F3F2F2"/>
<stop offset="0.507812" stop-color="#F3F3F3"/>
<stop offset="0.511719" stop-color="#F4F4F4"/>
<stop offset="0.515625" stop-color="#F5F4F4"/>
<stop offset="0.519531" stop-color="#F5F5F5"/>
<stop offset="0.523438" stop-color="#F6F5F5"/>
<stop offset="0.527344" stop-color="#F6F6F6"/>
<stop offset="0.53125" stop-color="#F7F7F7"/>
<stop offset="0.535156" stop-color="#F7F7F7"/>
<stop offset="0.539062" stop-color="#F8F8F8"/>
<stop offset="0.542969" stop-color="#F8F8F8"/>
<stop offset="0.546875" stop-color="#F9F9F9"/>
<stop offset="0.550781" stop-color="#FAFAFA"/>
<stop offset="0.554688" stop-color="#FAFAFA"/>
<stop offset="0.5625" stop-color="#FBFBFB"/>
<stop offset="0.625" stop-color="#FBFBFB"/>
<stop offset="0.75" stop-color="#FBFBFB"/>
<stop offset="1" stop-color="#FBFBFB"/>
</linearGradient>
<linearGradient id="paint1_linear_2321_5101" x1="15.7075" y1="188.445" x2="162.422" y2="188.445" gradientUnits="userSpaceOnUse">
<stop stop-color="#8F8587"/>
<stop offset="0.00390625" stop-color="#908688"/>
<stop offset="0.0078125" stop-color="#918789"/>
<stop offset="0.0117187" stop-color="#91888A"/>
<stop offset="0.015625" stop-color="#92898A"/>
<stop offset="0.0195312" stop-color="#938A8B"/>
<stop offset="0.0234375" stop-color="#948A8C"/>
<stop offset="0.0273437" stop-color="#958B8D"/>
<stop offset="0.03125" stop-color="#968C8E"/>
<stop offset="0.0351562" stop-color="#968D8F"/>
<stop offset="0.0390625" stop-color="#978E90"/>
<stop offset="0.0429687" stop-color="#988F91"/>
<stop offset="0.046875" stop-color="#999091"/>
<stop offset="0.0507812" stop-color="#9A9192"/>
<stop offset="0.0546875" stop-color="#9A9293"/>
<stop offset="0.0585937" stop-color="#9B9294"/>
<stop offset="0.0625" stop-color="#9C9395"/>
<stop offset="0.0664062" stop-color="#9D9496"/>
<stop offset="0.0703125" stop-color="#9E9597"/>
<stop offset="0.0742187" stop-color="#9F9698"/>
<stop offset="0.078125" stop-color="#9F9798"/>
<stop offset="0.0820313" stop-color="#A09899"/>
<stop offset="0.0859375" stop-color="#A1999A"/>
<stop offset="0.0898438" stop-color="#A29A9B"/>
<stop offset="0.09375" stop-color="#A39A9C"/>
<stop offset="0.0976562" stop-color="#A39B9D"/>
<stop offset="0.101562" stop-color="#A49C9E"/>
<stop offset="0.105469" stop-color="#A59D9F"/>
<stop offset="0.109375" stop-color="#A69E9F"/>
<stop offset="0.113281" stop-color="#A79FA0"/>
<stop offset="0.117188" stop-color="#A7A0A1"/>
<stop offset="0.121094" stop-color="#A8A1A2"/>
<stop offset="0.125" stop-color="#A9A2A3"/>
<stop offset="0.128906" stop-color="#AAA2A4"/>
<stop offset="0.132812" stop-color="#ABA3A5"/>
<stop offset="0.136719" stop-color="#ACA4A6"/>
<stop offset="0.140625" stop-color="#ACA5A6"/>
<stop offset="0.144531" stop-color="#ADA6A7"/>
<stop offset="0.148437" stop-color="#AEA7A8"/>
<stop offset="0.152344" stop-color="#AFA8A9"/>
<stop offset="0.15625" stop-color="#B0A9AA"/>
<stop offset="0.160156" stop-color="#B0AAAB"/>
<stop offset="0.164063" stop-color="#B1AAAC"/>
<stop offset="0.167969" stop-color="#B2ABAD"/>
<stop offset="0.171875" stop-color="#B3ACAD"/>
<stop offset="0.175781" stop-color="#B4ADAE"/>
<stop offset="0.179688" stop-color="#B4AEAF"/>
<stop offset="0.183594" stop-color="#B5AFB0"/>
<stop offset="0.1875" stop-color="#B6B0B1"/>
<stop offset="0.191406" stop-color="#B7B1B2"/>
<stop offset="0.195312" stop-color="#B8B2B3"/>
<stop offset="0.199219" stop-color="#B9B2B4"/>
<stop offset="0.203125" stop-color="#B9B3B4"/>
<stop offset="0.207031" stop-color="#BAB4B5"/>
<stop offset="0.210937" stop-color="#BBB5B6"/>
<stop offset="0.214844" stop-color="#BCB6B7"/>
<stop offset="0.21875" stop-color="#BDB7B8"/>
<stop offset="0.222656" stop-color="#BDB8B9"/>
<stop offset="0.226563" stop-color="#BEB9BA"/>
<stop offset="0.230469" stop-color="#BFBABB"/>
<stop offset="0.234375" stop-color="#C0BABB"/>
<stop offset="0.238281" stop-color="#C1BBBC"/>
<stop offset="0.242188" stop-color="#C1BCBD"/>
<stop offset="0.246094" stop-color="#C2BDBE"/>
<stop offset="0.25" stop-color="#C3BEBF"/>
<stop offset="0.253906" stop-color="#C4BFC0"/>
<stop offset="0.257812" stop-color="#C5C0C1"/>
<stop offset="0.261719" stop-color="#C5C0C1"/>
<stop offset="0.265625" stop-color="#C6C1C2"/>
<stop offset="0.269531" stop-color="#C7C2C3"/>
<stop offset="0.273438" stop-color="#C8C3C4"/>
<stop offset="0.277344" stop-color="#C8C4C5"/>
<stop offset="0.28125" stop-color="#C9C5C5"/>
<stop offset="0.285156" stop-color="#CAC5C6"/>
<stop offset="0.289062" stop-color="#CBC6C7"/>
<stop offset="0.292969" stop-color="#CBC7C8"/>
<stop offset="0.296875" stop-color="#CCC8C9"/>
<stop offset="0.300781" stop-color="#CDC9C9"/>
<stop offset="0.304688" stop-color="#CEC9CA"/>
<stop offset="0.308594" stop-color="#CECACB"/>
<stop offset="0.3125" stop-color="#CFCBCC"/>
<stop offset="0.316406" stop-color="#D0CCCD"/>
<stop offset="0.320312" stop-color="#D0CDCD"/>
<stop offset="0.324219" stop-color="#D1CECE"/>
<stop offset="0.328125" stop-color="#D2CECF"/>
<stop offset="0.332031" stop-color="#D3CFD0"/>
<stop offset="0.335938" stop-color="#D3D0D1"/>
<stop offset="0.339844" stop-color="#D4D1D1"/>
<stop offset="0.34375" stop-color="#D5D2D2"/>
<stop offset="0.347656" stop-color="#D6D2D3"/>
<stop offset="0.351562" stop-color="#D6D3D4"/>
<stop offset="0.355469" stop-color="#D7D4D5"/>
<stop offset="0.359375" stop-color="#D8D5D5"/>
<stop offset="0.363281" stop-color="#D9D6D6"/>
<stop offset="0.367188" stop-color="#D9D7D7"/>
<stop offset="0.371094" stop-color="#DAD7D8"/>
<stop offset="0.375" stop-color="#DBD8D9"/>
<stop offset="0.378906" stop-color="#DCD9D9"/>
<stop offset="0.382812" stop-color="#DCDADA"/>
<stop offset="0.386719" stop-color="#DDDBDB"/>
<stop offset="0.390625" stop-color="#DEDCDC"/>
<stop offset="0.394531" stop-color="#DFDCDD"/>
<stop offset="0.398438" stop-color="#DFDDDD"/>
<stop offset="0.402344" stop-color="#E0DEDE"/>
<stop offset="0.40625" stop-color="#E1DFDF"/>
<stop offset="0.410156" stop-color="#E2E0E0"/>
<stop offset="0.414062" stop-color="#E2E0E1"/>
<stop offset="0.417969" stop-color="#E3E1E1"/>
<stop offset="0.421875" stop-color="#E4E2E2"/>
<stop offset="0.425781" stop-color="#E5E3E3"/>
<stop offset="0.429688" stop-color="#E5E4E4"/>
<stop offset="0.433594" stop-color="#E6E5E5"/>
<stop offset="0.4375" stop-color="#E7E5E5"/>
<stop offset="0.441406" stop-color="#E8E6E6"/>
<stop offset="0.445312" stop-color="#E8E7E7"/>
<stop offset="0.449219" stop-color="#E9E8E8"/>
<stop offset="0.453125" stop-color="#EAE9E9"/>
<stop offset="0.457031" stop-color="#EBE9E9"/>
<stop offset="0.460938" stop-color="#EBEAEA"/>
<stop offset="0.464844" stop-color="#ECEBEB"/>
<stop offset="0.46875" stop-color="#ECEBEB"/>
<stop offset="0.472656" stop-color="#EDECEC"/>
<stop offset="0.476562" stop-color="#EDEDED"/>
<stop offset="0.480469" stop-color="#EEEDED"/>
<stop offset="0.484375" stop-color="#EFEEEE"/>
<stop offset="0.488281" stop-color="#EFEEEE"/>
<stop offset="0.492188" stop-color="#F0EFEF"/>
<stop offset="0.496094" stop-color="#F0F0F0"/>
<stop offset="0.5" stop-color="#F1F0F0"/>
<stop offset="0.503906" stop-color="#F1F1F1"/>
<stop offset="0.507812" stop-color="#F2F1F1"/>
<stop offset="0.511719" stop-color="#F3F2F2"/>
<stop offset="0.515625" stop-color="#F3F3F3"/>
<stop offset="0.519531" stop-color="#F4F3F3"/>
<stop offset="0.523438" stop-color="#F4F4F4"/>
<stop offset="0.527344" stop-color="#F5F4F4"/>
<stop offset="0.53125" stop-color="#F5F5F5"/>
<stop offset="0.535156" stop-color="#F6F6F6"/>
<stop offset="0.539062" stop-color="#F6F6F6"/>
<stop offset="0.542969" stop-color="#F7F7F7"/>
<stop offset="0.546875" stop-color="#F8F7F7"/>
<stop offset="0.550781" stop-color="#F8F8F8"/>
<stop offset="0.554688" stop-color="#F9F9F9"/>
<stop offset="0.558594" stop-color="#F9F9F9"/>
<stop offset="0.5625" stop-color="#FAFAFA"/>
<stop offset="0.566406" stop-color="#FAFAFA"/>
<stop offset="0.570312" stop-color="#FBFBFB"/>
<stop offset="0.578125" stop-color="#FBFBFB"/>
<stop offset="0.59375" stop-color="#FBFBFB"/>
<stop offset="0.625" stop-color="#FBFBFB"/>
<stop offset="0.75" stop-color="#FBFBFB"/>
<stop offset="1" stop-color="#FBFBFB"/>
</linearGradient>
</defs>
</svg>
