<svg width="169" height="239" viewBox="0 0 169 239" fill="none" xmlns="http://www.w3.org/2000/svg">
<path d="M162.578 238.422H6.05859C2.73828 238.422 0.046875 235.707 0.046875 232.363V6.79297C0.046875 3.44922 2.73828 0.734375 6.05859 0.734375H162.578C165.898 0.734375 168.594 3.44922 168.594 6.79297V232.363C168.594 235.707 165.898 238.422 162.578 238.422Z" fill="white"/>
<path d="M113.566 113C113.715 119.512 112.551 124.574 111.219 128.324C110.219 131.113 109.867 131.082 108.898 134.098C107.773 137.594 106.574 142.812 106.793 149.09C106.852 150.883 107.016 152.336 107.137 153.266C108.488 154.43 110.512 156.172 112.973 158.316C115.973 160.926 115.934 160.926 116.242 161.137C119.602 163.398 124.664 164.047 129.211 162.41C130.254 162.035 134.844 160.391 137.004 155.609C138.246 152.855 138.137 150.289 137.984 149C138.375 148.676 138.906 148.145 139.32 147.379C140.586 145.016 139.719 142.191 138.512 138.434C138.203 137.48 137.781 136.301 137.211 134.984C136.859 135.469 136.418 136.219 136.281 137.203C136.109 138.426 136.551 138.98 136.254 139.699C136.133 139.984 135.766 140.594 133.254 141.176C129.848 141.98 127.328 141.621 126.609 141.508C124.816 141.223 123.457 140.996 123.121 140.051C122.805 139.176 123.547 138.156 123.863 137.766C123.328 136.566 122.797 135.363 122.266 134.148C119.152 127.023 116.25 119.977 113.543 113H113.566Z" fill="#EB1C24"/>
<path d="M96.8906 207.793C96.9219 202.445 96.7187 196.594 96.1484 190.316C95.4883 183.094 94.4414 176.496 93.2344 170.594C95.6172 170.301 98.1367 169.902 100.785 169.363C102.227 169.07 103.613 168.746 104.949 168.41C105.742 172.602 106.484 176.93 107.145 181.391C108.555 190.859 109.469 199.879 110.016 208.391" fill="white"/>
<path d="M96.8906 207.793C96.9219 202.445 96.7187 196.594 96.1484 190.316C95.4883 183.094 94.4414 176.496 93.2344 170.594C95.6172 170.301 98.1367 169.902 100.785 169.363C102.227 169.07 103.613 168.746 104.949 168.41C105.742 172.602 106.484 176.93 107.145 181.391C108.555 190.859 109.469 199.879 110.016 208.391" stroke="black" stroke-width="0.5625" stroke-linecap="round" stroke-linejoin="round"/>
<path d="M90.2539 58.379C91.4336 57.1719 92.6172 56.6094 93.3164 56.3438C95.5508 55.4883 98.6992 55.4063 100.906 57.1719C101.469 57.6212 101.844 58.0938 102.066 58.3985C100.809 58.836 99.0156 59.3008 96.832 59.3751C93.9883 59.4805 91.6953 58.8789 90.2539 58.3867V58.379Z" fill="#EB1C24" stroke="black" stroke-width="0.5625" stroke-linecap="round" stroke-linejoin="round"/>
<path d="M111.988 73.9101C108.367 78.3125 107.707 83.4336 107.773 87.0273C107.707 90.6133 108.367 95.7344 111.988 100.145C114.301 102.957 116.992 104.473 118.687 105.246C118.012 98.2109 120.234 92.6093 123.891 91.3164C124.629 91.0625 125.707 90.875 127.184 91.2109C127.223 89.8867 127.254 88.5586 127.289 87.2305H127.297C127.297 87.1641 127.297 87.0937 127.297 87.0273V86.8242C127.262 85.4961 127.23 84.1718 127.191 82.8437C125.707 83.1797 124.629 82.9922 123.898 82.7383C120.238 81.4531 118.012 75.8516 118.695 68.8086C117 69.5898 114.309 71.1055 111.996 73.9101H111.988Z" stroke="black" stroke-width="0.5625" stroke-linecap="round" stroke-linejoin="round"/>
<path d="M130.273 91.2111C130.988 91.5783 132.352 92.1564 134.094 92.0666C134.977 92.0236 135.684 91.9845 136.281 91.5041C137.137 90.8244 137.145 89.2931 137.137 86.2541C137.137 83.8556 136.926 83.2033 136.434 82.7463C135.914 82.2736 135.293 82.1916 134.559 82.1096C133.762 82.0158 132.203 81.9728 130.273 82.8361V91.2111Z" stroke="black" stroke-width="0.5625" stroke-linecap="round" stroke-linejoin="round"/>
<path d="M70.0352 83.3593C70.1836 83.8476 70.6406 85.5859 69.75 87.3437C69.4805 87.875 68.7969 89.2187 67.3047 89.5937C66.3242 89.8398 65.4844 89.5312 65.1211 89.375C65.1523 89.6445 65.2734 90.5156 65.9687 91.2343C66.4492 91.7226 66.9766 91.9258 67.2461 92C66.7891 92.2031 66 92.4727 65.0117 92.4336C64.5 92.4141 64.0742 92.3242 63.7344 92.2187C64.0586 92.6523 64.875 93.6289 66.2852 94.1367C67.8437 94.707 69.1953 94.3711 69.8398 94.1992C70.3633 94.0625 72.5938 93.4765 73.7109 91.5586C74.7148 89.8242 74.1094 88.2266 75.6133 86.8086C75.9062 86.5391 76.1836 86.3516 76.3711 86.2461C75.8555 85.6719 74.0859 83.5468 74.3789 80.7812C74.4453 80.164 74.6016 79.625 74.7891 79.168C73.5586 80.0586 72.2773 81.1172 71.0039 82.3633C70.6641 82.6914 70.3438 83.0312 70.0273 83.3593H70.0352Z" fill="black" stroke="black" stroke-width="0.5625" stroke-linecap="round" stroke-linejoin="round"/>
<path d="M94.2305 100.566C95.0859 102.598 96.1211 105.859 95.918 109.871C95.8437 111.328 95.625 112.625 95.3477 113.742C94.582 112.812 93.2695 111.461 91.3047 110.383C89.8711 109.594 88.5469 109.199 87.5469 108.996C86.4609 109.656 85.1406 110.609 83.8281 111.957C83.0039 112.805 82.3359 113.645 81.8086 114.402C80.2812 113.059 78.7109 111.605 77.1211 110.047C75.4336 108.379 73.3047 106.168 70.9648 103.445C69.7422 102.02 68.3164 100.281 66.7891 98.2539C67.2891 97.8047 67.8594 97.2266 68.4141 96.5C69.0586 95.668 69.5156 94.8711 69.8477 94.2031C70.043 94.1523 70.2539 94.0938 70.4688 94.0156C70.5898 93.9805 70.7109 93.9336 70.8164 93.8906C72.0469 95.6523 73.5156 97.5273 75.2852 99.4258C79.5313 103.969 83.9609 107 87.5469 108.996C88.5078 108.086 89.6992 106.766 90.8086 104.977C91.8984 103.211 92.543 101.562 92.9336 100.297C93.3594 100.387 93.7891 100.477 94.2227 100.566H94.2305Z" fill="white"/>
<path d="M87.5469 108.996C88.5469 109.199 89.8711 109.594 91.3047 110.383C93.2695 111.461 94.582 112.813 95.3477 113.742C95.625 112.625 95.8438 111.328 95.918 109.871C96.1211 105.859 95.0859 102.598 94.2305 100.566H94.2227C93.7891 100.477 93.3594 100.387 92.9336 100.297C92.543 101.563 91.8984 103.211 90.8086 104.977C89.6992 106.766 88.5078 108.086 87.5469 108.996ZM87.5469 108.996C86.4609 109.656 85.1406 110.609 83.8281 111.957C83.0039 112.805 82.3359 113.645 81.8086 114.402C80.2813 113.059 78.7109 111.605 77.1211 110.047C75.4336 108.379 73.3047 106.168 70.9648 103.445C69.7422 102.02 68.3164 100.281 66.7891 98.2539C67.2891 97.8047 67.8594 97.2266 68.4141 96.5C69.0586 95.668 69.5156 94.8711 69.8477 94.2031C70.043 94.1524 70.2539 94.0938 70.4688 94.0156C70.5898 93.9805 70.7109 93.9336 70.8164 93.8906C72.0469 95.6523 73.5156 97.5273 75.2852 99.4258C79.5312 103.969 83.9609 107 87.5469 108.996Z" stroke="black" stroke-width="0.5625" stroke-linecap="round" stroke-linejoin="round"/>
<path d="M87.5625 108.996C87.9219 110.234 88.2617 111.621 88.5234 113.156C88.7266 114.344 88.8516 115.461 88.9336 116.496" stroke="black" stroke-width="0.5625" stroke-linecap="round" stroke-linejoin="round"/>
<path d="M77.0938 115.953C78.8984 116.352 80.9102 116.676 83.1016 116.832C89.4141 117.289 94.7773 116.246 98.6719 115.078" stroke="black" stroke-width="0.5625" stroke-linecap="round" stroke-linejoin="round"/>
<path d="M85.6562 159.629C85.8906 149.547 84.8711 133.371 77.0859 115.953C73.9141 108.852 70.2539 102.965 66.7969 98.254C66.6914 98.0665 66.4883 97.7735 66.1406 97.5743C64.8242 96.8087 62.6836 98.2345 62.0391 98.6368C54.9688 103.152 39.6016 105.539 39.5547 111.844C39.5547 112.16 39.5859 112.723 39.8789 113.434C40.2227 112.895 40.8281 112.102 41.7891 111.41C43.1016 110.465 44.3984 110.188 45.082 110.098C46.3203 111.059 47.9922 112.496 49.7109 114.484C51.4883 116.539 59.4961 125.809 57.7891 137.832C56.9531 143.699 54.1133 148.039 51.9375 150.656C52.6875 152.359 53.2031 153.762 53.5352 154.715C54.1641 156.551 54.3594 157.485 55.2383 158.328C56.0234 159.102 56.9531 159.402 57.5781 159.539C63.3359 159.793 69.3281 159.922 75.5391 159.867C78.9844 159.836 82.3594 159.762 85.6562 159.641V159.629Z" fill="white" stroke="black" stroke-width="0.5625" stroke-linecap="round" stroke-linejoin="round"/>
<path d="M95.8125 106.551C97.125 109.488 98.3086 112.789 99.1953 116.449C103.727 135.156 97.6719 151.633 94.0938 159.469C97.6719 159.266 101.25 159.066 104.828 158.871C105.172 158.504 105.668 157.918 106.102 157.113C107.863 153.891 106.941 150.469 106.621 147.941C106.164 144.402 106.98 141.32 108.609 135.156C110.586 127.664 112.246 128.238 113.309 122.211C113.859 119.113 114.891 112.762 111.367 108.77C110.586 107.887 109.801 107.375 108.531 106.648C105.48 104.898 100.793 102.582 94.2305 100.559C94.5586 101.328 94.8828 102.215 95.1602 103.219C95.4961 104.441 95.6992 105.566 95.8125 106.543V106.551Z" fill="white" stroke="black" stroke-width="0.5625" stroke-linecap="round" stroke-linejoin="round"/>
<path d="M40.9648 108.793C41.3906 108.516 41.7734 108.418 42.0391 108.387C43.7617 108.172 45.0234 109.984 45.0898 110.09" stroke="black" stroke-width="0.5625" stroke-linecap="round" stroke-linejoin="round"/>
<path d="M45.5391 105.836C45.6992 105.793 45.9844 105.719 46.3438 105.68C51.5703 105.149 57.0742 114.078 59.3555 120.906C59.9609 122.727 60.8633 125.488 60.9844 129.164C61.3516 140.391 54.0078 148.512 51.9453 150.649" stroke="black" stroke-width="0.5625" stroke-linecap="round" stroke-linejoin="round"/>
<path d="M106.656 105.629C108.156 107.602 110.258 110.945 111.105 115.512C111.203 116.047 111.414 117.281 111.48 119.188C111.578 122.137 111.344 127.031 109.148 133.281" stroke="black" stroke-width="0.5625" stroke-linecap="round" stroke-linejoin="round"/>
<path d="M39.8867 113.434C37.6485 121.527 35.543 127.969 34.0938 132.23C29.7891 144.852 27.2617 149.719 27.3985 157.664C27.4961 163.406 28.9336 168.043 30.0508 170.922C29.3321 172.16 27.9844 174.883 28.086 178.488C28.1836 181.953 29.5742 184.422 30.4414 185.922C31.7032 188.098 33.1641 189.582 34.1992 190.488C33.8477 190.762 33.3516 191.187 32.8711 191.801C32.4766 192.312 32.2188 192.641 32.1289 193.113C31.9571 194.051 32.5508 194.871 32.7657 195.141C32.6719 195.297 32.3907 195.801 32.4453 196.484C32.4883 197.051 32.7539 197.449 32.8711 197.609C32.7813 197.832 32.4063 198.883 32.9024 199.992C33.1485 200.555 33.5235 200.906 33.75 201.086C33.6992 201.164 33.2188 201.867 33.4883 202.73C33.7969 203.711 34.7774 203.953 34.8164 203.961C36.9766 202.863 39.375 201.762 42.0157 200.727C44.4063 199.789 46.6875 199.023 48.8164 198.395C48.8985 198.23 49.1758 197.613 48.9961 196.836C48.8399 196.137 48.4063 195.734 48.2539 195.605C48.3516 195.523 49.0196 194.93 49.0352 193.926C49.0508 192.898 48.3594 192.273 48.2617 192.199C48.4258 191.871 48.6094 191.383 48.6602 190.773C48.7813 189.32 48.0469 188.238 47.8125 187.926C50.168 183.703 50.2032 182.148 49.6875 181.578C49.5313 181.398 49.0938 181.07 48.668 180.395C48.3086 179.824 48.1211 179.293 48.0235 178.918C48.4219 177.641 48.7969 176.129 49.0117 174.387C49.4024 171.344 49.1836 168.719 48.8711 166.789C49.5508 164.18 50.2422 161.578 50.9258 158.969C50.8789 157.949 50.8282 156.922 50.7813 155.898C51.1719 154.145 51.5625 152.391 51.9532 150.637C53.7305 148.461 57.9219 142.699 58.0352 134.621C58.1094 129.336 56.4063 125.383 55.3711 123.035C52.3789 116.27 47.7657 112.129 45.0977 110.082C44.4141 110.18 43.1094 110.457 41.8047 111.395C40.8282 112.094 40.2305 112.887 39.8907 113.422L39.8867 113.434Z" fill="#EB1C24" stroke="black" stroke-width="0.5625" stroke-linecap="round" stroke-linejoin="round"/>
<path d="M30.0508 170.922C31.3789 172.773 33.8477 175.746 37.8164 178.16C41.4375 180.363 44.8203 181.203 46.957 181.559" stroke="black" stroke-width="0.5625" stroke-linecap="round" stroke-linejoin="round"/>
<path d="M28.1406 176.789C28.8906 178.242 29.9688 179.797 31.5391 181.121C37.9648 186.566 47.0703 183.621 48.1211 183.262" stroke="black" stroke-width="0.5625" stroke-linecap="round" stroke-linejoin="round"/>
<path d="M50.7812 155.906C50.4296 154.961 49.9335 153.539 49.4765 151.766C48.4882 147.941 47.9414 143.594 48.5468 131.684C48.6914 128.922 48.914 125.309 49.289 121.047" stroke="black" stroke-width="0.5625" stroke-linecap="round" stroke-linejoin="round"/>
<path d="M48.8711 166.797C47.2969 163.551 45.5118 159.117 44.3321 153.641C43.1329 148.078 42.9454 143.203 43.0586 139.543" stroke="black" stroke-width="0.5625" stroke-linecap="round" stroke-linejoin="round"/>
<path d="M32.7617 195.148C33.6133 194.336 35.0703 193.168 37.1328 192.336C39.6016 191.344 41.7813 191.309 43.0117 191.383" stroke="black" stroke-width="0.5625" stroke-linecap="round" stroke-linejoin="round"/>
<path d="M48.4414 195.734C46.0195 195.738 42.082 196.121 37.9219 198.289C36.2344 199.168 34.8516 200.164 33.75 201.094" stroke="black" stroke-width="0.5625" stroke-linecap="round" stroke-linejoin="round"/>
<path d="M34.1992 190.488C36.4414 189.402 39.668 188.211 43.6562 187.918C45.1719 187.805 46.5664 187.836 47.8047 187.949" stroke="black" stroke-width="0.5625" stroke-linecap="round" stroke-linejoin="round"/>
<path d="M107.137 153.273C108.562 154.578 110.781 156.559 113.656 158.871C114.898 159.867 115.516 160.371 115.891 160.625C120.863 164.066 129.969 164.203 134.813 159.363C136.746 157.43 137.527 155.172 137.633 154.871C138.48 152.328 138.211 150.094 138.008 149.008" stroke="black" stroke-width="0.5625" stroke-linecap="round" stroke-linejoin="round"/>
<path d="M113.316 112.398L123.039 136.055" stroke="black" stroke-width="0.5625" stroke-linecap="round" stroke-linejoin="round"/>
<path d="M48.1797 198.598C48.5234 199.16 48.8867 199.871 49.168 200.734C49.8281 202.738 49.7109 204.516 49.543 205.574C44.6328 205.039 39.7188 204.508 34.8086 203.977C39.2617 202.184 43.7266 200.391 48.1797 198.598Z" stroke="black" stroke-width="0.5625" stroke-linecap="round" stroke-linejoin="round"/>
<path d="M58.043 168.695C56.2187 175.023 54.5391 182.75 53.7383 191.629C53.1758 197.832 53.1445 203.512 53.3906 208.512C53.8281 209.047 61.7695 218.316 72.8789 216.484C78.5312 215.555 82.2305 212.203 83.7226 210.672C83.9336 209.324 84.1406 207.973 84.3594 206.613C84.3164 199.984 84.375 193.16 84.5781 186.148C84.7266 180.941 84.9375 175.852 85.2148 170.871C76.1641 170.141 67.1016 169.422 58.0508 168.695H58.043Z" fill="white" stroke="black" stroke-width="0.5625" stroke-linecap="round" stroke-linejoin="round"/>
<path d="M85.207 170.871C84.7187 179.797 84.4219 188.988 84.3516 198.426C84.3281 201.176 84.3281 203.906 84.3516 206.609" stroke="black" stroke-width="0.5625" stroke-linecap="round" stroke-linejoin="round"/>
<path d="M130.453 148.012C130.965 148.461 132.613 149.781 134.992 149.781C135.637 149.781 136.891 149.781 138 149C140.559 147.199 139.988 142.871 139.949 142.625C139.836 141.824 139.711 141.59 137.961 136.953C137.512 135.754 137.145 134.766 136.906 134.121" stroke="black" stroke-width="0.5625" stroke-linecap="round" stroke-linejoin="round"/>
<path d="M126.797 190.977C126.797 174.492 126.797 158 126.797 141.516H130.695C130.695 157.152 130.695 172.789 130.695 188.426" fill="white"/>
<path d="M126.797 190.977C126.797 174.492 126.797 158 126.797 141.516H130.695C130.695 157.152 130.695 172.789 130.695 188.426" stroke="black" stroke-width="0.5625" stroke-linecap="round" stroke-linejoin="round"/>
<path d="M130.695 116.008H126.797V125.496H130.695V116.008Z" fill="white" stroke="black" stroke-width="0.5625" stroke-linecap="round" stroke-linejoin="round"/>
<path d="M124.641 128.734C124.539 128.316 124.477 127.738 124.746 127.211C125.023 126.672 125.664 126.191 128.414 125.887C131.633 125.523 133.246 125.344 134.633 126.336C134.961 126.574 136.172 127.422 136.336 128.84C136.395 129.344 136.305 129.77 136.23 130.047C137.086 130.836 137.281 131.496 137.297 131.961C137.316 132.672 136.926 132.996 136.906 134.121C136.891 134.766 137.016 134.789 136.973 135.32C136.898 136.199 136.547 136.422 136.297 137.195C135.832 138.648 136.621 139.332 136.086 140.137C135.797 140.57 135.324 140.742 134.387 140.953C132.906 141.281 132.082 141.379 128.398 141.523C127.32 141.566 126.93 141.469 126.711 141.352C126.66 141.32 126.609 141.281 126.555 141.246C125.609 140.488 125.91 138.703 126.031 138.117" stroke="black" stroke-width="0.5625" stroke-linecap="round" stroke-linejoin="round"/>
<path d="M126.797 141.508C124.621 141.125 123.066 140.254 122.977 139.258C122.949 138.941 123.039 138.32 123.457 138.035C123.789 137.809 124.184 137.891 124.539 137.945C125.379 138.078 126.238 138.125 127.086 138.156C129.039 138.238 131.551 137.652 132.367 137.449" stroke="black" stroke-width="0.5625" stroke-linecap="round" stroke-linejoin="round"/>
<path d="M126.234 138.117C126.09 137.629 125.949 137.059 125.852 136.422C125.754 135.762 125.715 135.172 125.707 134.652C125.52 134.336 124.906 133.199 125.211 131.781C125.363 131.074 125.691 130.559 125.918 130.258C125.773 130.191 124.914 129.746 124.641 128.734C124.449 128.016 124.664 127.414 124.746 127.211" stroke="black" stroke-width="0.5625" stroke-linecap="round" stroke-linejoin="round"/>
<path d="M124.238 137.898C124.125 137.863 123.434 137.609 123.149 136.879C122.953 136.379 122.969 135.68 123.359 135.281C123.457 135.184 123.594 135.094 124.453 134.891C124.965 134.773 125.391 134.699 125.691 134.645C126.277 134.602 126.871 134.539 127.469 134.473C129.203 134.277 130.836 134.008 132.359 133.684" stroke="black" stroke-width="0.5625" stroke-linecap="round" stroke-linejoin="round"/>
<path d="M123.898 135.043C123.742 134.938 123.457 134.711 123.238 134.328C123.188 134.238 122.953 133.828 122.969 133.371C122.977 133.063 123.098 132.656 124.117 131.699C124.547 131.293 125.145 130.781 125.926 130.25C126.977 130.109 128.023 129.957 129.09 129.809C130.074 129.664 131.039 129.523 132.016 129.379" stroke="black" stroke-width="0.5625" stroke-linecap="round" stroke-linejoin="round"/>
<path d="M124.539 127.633C123.891 128.203 123.516 128.773 123.301 129.156C122.918 129.844 122.414 130.738 122.762 131.563C122.934 131.969 123.254 132.223 123.473 132.359" stroke="black" stroke-width="0.5625" stroke-linecap="round" stroke-linejoin="round"/>
<path d="M124.23 127.926C124.035 127.664 123.516 127.023 122.625 126.785C121.859 126.574 120.684 126.613 120.359 127.242C120.172 127.609 120.344 128.047 120.539 128.555C120.863 129.387 121.328 129.914 121.5 130.113C121.98 130.676 122.578 131.562 123.074 132.949" stroke="black" stroke-width="0.5625" stroke-linecap="round" stroke-linejoin="round"/>
<path d="M123.316 137.789C122.094 137.969 119.309 138.531 116.617 140.711C113.941 142.879 112.801 145.461 112.363 146.613" stroke="black" stroke-width="0.5625" stroke-linecap="round" stroke-linejoin="round"/>
<path d="M123.211 137.996C121.711 138.762 118.996 140.406 116.781 143.523C113.633 147.949 113.469 152.539 113.488 154.203" stroke="black" stroke-width="0.5625" stroke-linecap="round" stroke-linejoin="round"/>
<path d="M125.879 141.207C125.355 141.754 123.848 143.496 123.645 146.137C123.328 150.246 126.473 152.891 126.789 153.148" stroke="black" stroke-width="0.5625" stroke-linecap="round" stroke-linejoin="round"/>
<path d="M130.695 154.16C131.199 154.266 132.277 154.422 133.547 154.023C134.648 153.68 135.383 153.074 135.75 152.719" stroke="black" stroke-width="0.5625" stroke-linecap="round" stroke-linejoin="round"/>
<path d="M124.238 140.684C123.488 141.117 121.547 142.379 120.324 144.891C119.137 147.32 119.297 149.547 119.398 150.418" stroke="black" stroke-width="0.5625" stroke-linecap="round" stroke-linejoin="round"/>
<path d="M98.2109 89.7578C97.7383 89.832 97.3438 89.8477 97.0586 89.8477C96.3594 89.8477 95.7383 89.832 95.2891 89.4219C95.1836 89.3242 95.0039 89.1562 94.9883 88.9102C94.957 88.5664 95.25 88.3086 95.3008 88.2656" stroke="black" stroke-width="0.5625" stroke-linecap="round" stroke-linejoin="round"/>
<path d="M79.7032 86.9219C79.6407 87.0742 79.4102 87.6055 78.9297 87.7188C78.6212 87.793 78.3243 87.6563 77.8126 87.2891C77.0469 86.7422 76.6563 86.4649 76.1094 85.7461C75.4962 84.9336 74.1368 83.1407 74.3868 80.7735C74.4688 79.9844 74.6993 79.3711 74.8633 79.0117" stroke="black" stroke-width="0.5625" stroke-linecap="round" stroke-linejoin="round"/>
<path d="M76.0352 78.2305C76.4102 78.1094 77.1016 77.9531 77.8125 78.2305C78.4805 78.4922 78.8398 79.0117 79.2461 79.6094C80.1758 80.9844 80.0391 81.8281 80.7617 82.1094C81.1797 82.2735 81.6758 82.1524 81.9844 81.9219C82.5234 81.5156 82.5 80.7578 82.5898 79.9531C82.6367 79.6094 82.8359 77.8476 83.625 76.7148C84.8242 74.9765 86.9844 75.2813 87.5312 73.6016C87.6523 73.2344 87.6523 72.9141 87.6367 72.7031C84.9375 73.707 82.0508 74.9609 79.0664 76.5273C78.0078 77.082 76.9961 77.6523 76.0195 78.2227L76.0352 78.2305Z" fill="black" stroke="black" stroke-width="0.5625" stroke-linecap="round" stroke-linejoin="round"/>
<path d="M78.9688 84.793C79.1016 85.1445 78.8555 85.6406 78.5039 85.8711C78.3985 85.9414 78.2383 86.0508 78.0391 86.0312C77.4063 85.9765 77.0703 84.6953 76.9805 84.043C76.8985 83.4648 76.836 83.0234 77.1445 82.707C77.4531 82.3906 77.9688 82.3789 78.3242 82.5273C78.5117 82.6015 78.8008 82.7969 78.7813 82.9844C78.7578 83.1719 78.457 83.164 78.3086 83.457C78.2031 83.6601 78.211 83.914 78.2852 84.0937C78.4414 84.5078 78.8399 84.4492 78.9766 84.793H78.9688Z" fill="black"/>
<path d="M78.3672 80.7892C78.0313 80.0666 77.4063 79.6486 76.8516 79.7228C76.3711 79.7892 76.0782 80.2033 75.9844 80.3361C75.4805 81.0431 75.629 81.9142 75.6993 82.3478C76.004 84.1564 77.4376 85.3244 77.9844 85.7307" stroke="black" stroke-width="0.5625" stroke-linecap="round" stroke-linejoin="round"/>
<path d="M89.1758 78.9259C89.1758 78.9259 89.6016 78.4689 90.3672 78.2071C91.4688 77.84 92.5664 78.1407 93.2539 78.336C93.6016 78.4337 93.8868 78.5509 94.4493 78.7853C95.961 79.4142 96.5235 79.797 97.0938 79.5665C97.1641 79.5353 97.3789 79.4376 97.5313 79.211C97.6797 78.9805 97.7383 78.6485 97.6368 78.4181C97.4532 78.0118 96.7969 77.9454 96.4961 77.9142C93.9063 77.6212 93.75 76.879 92.3243 77.0899C90.4258 77.3751 89.168 78.922 89.1758 78.9259Z" fill="black" stroke="black" stroke-width="0.5625" stroke-linecap="round" stroke-linejoin="round"/>
<path d="M126.359 95.6601L125.191 116.367H132.309L131.137 95.6601H130.273V79.0468C130.785 79.2265 131.461 79.3789 131.941 79.0468C133.086 78.2539 132.238 75.2226 131.766 73.4765C130.973 70.5351 129.906 66.2539 128.73 60.3711C127.441 66.4531 126.414 70.8047 125.551 74.1641C125.203 75.4922 124.469 78.289 125.574 79.0468C126.047 79.3711 126.719 79.2265 127.238 79.0468V95.6601H126.359Z" fill="black" stroke="black" stroke-width="0.5625" stroke-linecap="round" stroke-linejoin="round"/>
<path d="M127.23 79.0469H130.273" stroke="black" stroke-width="0.5625" stroke-linecap="round" stroke-linejoin="round"/>
<path d="M130.273 95.6601H127.23V79.0468C127.734 77.6093 128.227 76.168 128.73 74.7266C129.246 76.168 129.758 77.6093 130.273 79.0468V95.6601Z" fill="white" stroke="black" stroke-width="0.5625" stroke-linecap="round" stroke-linejoin="round"/>
<path d="M70.0352 83.3593C71.0547 82.2812 72.4961 80.8789 74.3555 79.4141C76.6875 77.5859 80.6328 74.9219 86.1211 73.168C90.1406 71.8789 98.7461 69.8828 100.059 72.6875C100.199 72.9883 100.23 73.2812 100.23 73.4883C100.629 73.2109 102.066 72.1406 102.105 70.5664C102.105 70.5664 102.121 69.8437 101.766 69.1758C100.516 66.7851 92.8945 66.9726 85.8828 69.1758C83.8047 69.8281 80.8945 70.9492 77.5742 72.9062C76.5977 74.2773 75.4219 75.7695 74.0156 77.293C72.3086 79.1445 70.6367 80.6367 69.1289 81.8242C69.4258 82.332 69.7266 82.8437 70.0352 83.3593Z" fill="#EB1C24" stroke="black" stroke-width="0.5625" stroke-linecap="round" stroke-linejoin="round"/>
<path d="M101.926 69.5313C102.406 69.4688 103.141 69.3047 103.875 68.8399C106.117 67.4297 106.297 64.5508 106.336 63.9258C106.359 63.5313 106.523 60.1563 104.594 58.8868C103.68 58.2813 102.602 58.3633 101.309 58.4532C99.9843 58.543 99.0156 58.879 98.7617 58.961C97.3515 59.4258 94.9882 59.6446 90.8085 58.5352C88.6054 57.9258 85.7343 57.4532 82.4023 57.7266C79.8437 57.9337 78.082 58.4884 75.8984 59.1876C71.2968 60.6485 70.3203 61.9024 69.871 62.6993C69.3242 63.6485 69.1406 64.6173 69.082 65.293C67.8984 67.2501 66.789 68.6915 66.0156 69.6212C64.3593 71.6212 63.5703 72.1016 63.0664 73.6915C62.5429 75.3438 62.6914 76.9922 62.7617 77.6993C62.8281 78.4493 62.8945 79.086 63.2382 79.8047C63.8164 80.9883 64.7695 81.5821 65.2421 81.836C64.8749 82.9922 65.039 84.1915 65.7148 84.7618C66.6679 85.5743 68.8203 85.2735 70.0429 83.3751C69.7421 82.8634 69.4414 82.3555 69.1367 81.836C70.539 80.7266 72.082 79.3633 73.6562 77.6993C75.246 76.0157 76.539 74.3907 77.5781 72.922C81.0585 70.9845 84.1367 69.793 86.3789 69.043C86.3789 69.043 92.4765 67.0157 98.7304 67.6485C100.59 67.836 101.309 68.4883 101.641 68.9766C101.797 69.1993 101.879 69.4102 101.926 69.5391V69.5313Z" fill="#EB1C24" stroke="black" stroke-width="0.5625" stroke-linecap="round" stroke-linejoin="round"/>
<path d="M69.1367 81.8282C67.2891 81.9258 65.5782 80.9688 64.7774 79.3477C63.6836 77.1368 64.7617 74.6914 65.7149 73.5039C66.8321 72.1172 67.9336 72.2383 69.4063 71.4571C74.2422 68.8868 73.2227 61.7383 76.6407 60.6407C78.6367 60.004 79.7188 62.1953 83.8125 63.8594C87.6758 65.4258 91.2657 65.336 93.668 65.0313" stroke="black" stroke-width="0.5625" stroke-linecap="round" stroke-linejoin="round"/>
<path d="M83.3984 60.3516C83.9336 60.1641 84.8242 59.8906 85.9492 59.7656C89.0469 59.4141 90.5469 60.5156 93.3672 60.336C94.2812 60.2735 95.6719 60.0586 97.3516 59.2617" stroke="black" stroke-width="0.5625" stroke-linecap="round" stroke-linejoin="round"/>
<path d="M93.6094 58.6642C93.4414 58.4532 90.8398 55.2345 87.5156 55.7462C87.1133 55.8048 85.9414 55.9923 84.9141 56.9688C83.5508 58.2657 83.4141 59.9962 83.3906 60.3517C83.2266 59.254 83.0625 58.1603 82.8984 57.0665C82.4492 58.422 82.0039 59.7813 81.5547 61.129C81.0078 61.9337 80.2031 62.9142 79.0742 63.8517C76.6797 65.8243 74.2188 66.3868 72.9844 66.5743C73.0859 65.5157 73.1914 64.4688 73.2969 63.4103C72.2383 65.0392 71.1914 66.6563 70.1328 68.2853C68.6328 68.4415 65.8867 68.5118 63.0234 67.1368C61.7852 66.547 60.8164 65.8243 60.0977 65.1798C60.5703 64.1134 62.0039 61.2501 65.1602 59.1642C67.8438 57.3946 70.3867 57.1095 71.5117 57.0587C72.0586 57.297 72.8008 57.5509 73.7031 57.6876C74.6172 57.8282 75.4258 57.8165 76.0508 57.754C75.2266 57.2149 74.3906 56.6759 73.5586 56.1368C75.3828 56.504 76.8242 56.2852 77.6914 56.0665C79.3203 55.6641 79.4531 55.1446 81.2109 54.5157C83.5742 53.6681 86.4531 53.8712 87.8477 54.1407C88.6055 54.2892 89.6016 54.547 90.7266 55.0313" fill="white"/>
<path d="M93.6094 58.6642C93.4414 58.4532 90.8398 55.2345 87.5156 55.7462C87.1133 55.8048 85.9414 55.9923 84.9141 56.9688C83.5508 58.2657 83.4141 59.9962 83.3906 60.3517C83.2266 59.254 83.0625 58.1603 82.8984 57.0665C82.4492 58.422 82.0039 59.7813 81.5547 61.129C81.0078 61.9337 80.2031 62.9142 79.0742 63.8517C76.6797 65.8243 74.2188 66.3868 72.9844 66.5743C73.0859 65.5157 73.1914 64.4688 73.2969 63.4103C72.2383 65.0392 71.1914 66.6563 70.1328 68.2853C68.6328 68.4415 65.8867 68.5118 63.0234 67.1368C61.7852 66.547 60.8164 65.8243 60.0977 65.1798C60.5703 64.1134 62.0039 61.2501 65.1602 59.1642C67.8438 57.3946 70.3867 57.1095 71.5117 57.0587C72.0586 57.297 72.8008 57.5509 73.7031 57.6876C74.6172 57.8282 75.4258 57.8165 76.0508 57.754C75.2266 57.2149 74.3906 56.6759 73.5586 56.1368C75.3828 56.504 76.8242 56.2852 77.6914 56.0665C79.3203 55.6641 79.4531 55.1446 81.2109 54.5157C83.5742 53.6681 86.4531 53.8712 87.8477 54.1407C88.6055 54.2892 89.6016 54.547 90.7266 55.0313" stroke="black" stroke-width="0.5625" stroke-linecap="round" stroke-linejoin="round"/>
<path d="M60.3008 65.3516C60.832 64.7227 61.6484 63.8985 62.8047 63.2305C66.4336 61.1446 69.0391 63.1719 73.4687 61.1446C74.2422 60.793 75.4414 60.2461 76.7109 59.0977C78.4961 57.4844 78.8008 56.1367 80.4961 55.0157C81.6445 54.2617 82.793 54.0195 83.5742 53.9453" stroke="black" stroke-width="0.5625" stroke-linecap="round" stroke-linejoin="round"/>
<path d="M93.7734 59.9611C94.5234 60.1017 95.543 58.3321 95.9844 56.8165C96.7969 54.0587 95.8789 51.4767 95.3164 49.8712C94.8672 48.59 93.9531 46.504 92.1016 44.3907C91.8086 44.7579 91.5234 45.1173 91.2305 45.4845C90.6094 44.547 89.2266 42.7462 86.8711 41.6134C86.3711 41.3751 82.8906 39.754 79.0273 41.2462C77.918 41.6759 77.1523 42.2149 76.6133 42.5978C73.9414 44.4962 73.9414 46.0157 71.5195 47.7657C70.5312 48.4845 69.1133 49.4767 67.3516 49.2423C66.9961 49.1993 64.8984 48.9259 64.4101 47.2696C64.0742 46.1212 64.7109 45.004 64.8672 44.7579C64.6641 45.0431 64.3789 45.5157 64.2148 46.1759C64.1719 46.3634 63.8164 47.797 64.4687 49.0782C65.1601 50.4493 66.5781 50.8634 66.8555 50.9376C70.3203 51.9415 74.1992 47.84 78.4414 46.8595C78.7578 46.7814 79.3281 46.672 80.0391 46.7892C81.5469 47.0509 82.582 48.1915 83.1211 48.9142C84.1719 48.3517 85.2226 47.797 86.2734 47.2345C85.6953 48.1564 85.125 49.086 84.5469 50.0079C85.8008 50.6446 87.0586 51.2814 88.3125 51.922C88.0352 52.1095 87.7578 52.3009 87.4805 52.4884C90.9766 54.336 92.2578 56.3595 92.7734 57.8986C93.0664 58.7736 93.2344 59.8399 93.7812 59.9454L93.7734 59.9611Z" fill="white" stroke="black" stroke-width="0.5625" stroke-linecap="round" stroke-linejoin="round"/>
<path d="M94.0117 59.9453C94.2656 58.7227 94.6289 56.2696 93.8906 53.3672C93.7578 52.8203 93.0898 50.3242 91.125 47.8867C88.5 44.6289 83.2266 41.1133 77.9023 42.8985C76.8672 43.2422 74.6992 44.1719 72.6523 46.8203" stroke="black" stroke-width="0.5625" stroke-linecap="round" stroke-linejoin="round"/>
<path d="M72.4961 92.9531C72.5312 94.0625 72.5625 95.1797 72.6016 96.2891" stroke="black" stroke-width="0.5625" stroke-linecap="round" stroke-linejoin="round"/>
<path d="M45.8789 105.793C45.6133 107.227 45.3516 108.656 45.0898 110.09L53.4961 109.961C53.0234 112.332 52.5469 114.695 52.0742 117.066C54.1875 117.523 56.3008 117.98 58.418 118.445C57.6211 120.5 56.8281 122.547 56.0312 124.602L60.9062 128.051C59.9023 129.336 58.8906 130.617 57.8867 131.898C58.6953 133.176 59.5039 134.457 60.3242 135.734C59.4766 136.43 58.6367 137.129 57.7891 137.824" stroke="black" stroke-width="0.5625" stroke-linecap="round" stroke-linejoin="round"/>
<path d="M108.324 108.004C109.738 108.852 111.156 109.691 112.574 110.539C112.043 112.004 111.516 113.457 110.984 114.922C111.832 116.699 112.688 118.469 113.535 120.246C112.824 121.453 112.102 122.652 111.391 123.859" stroke="black" stroke-width="0.5625" stroke-linecap="round" stroke-linejoin="round"/>
<path d="M62.0469 98.6367C62.5195 99.3633 63.1953 100.406 63.9844 101.684C69.375 110.359 72.7109 117.477 73.3594 118.895C76.8086 126.5 80.3555 141.02 81.5234 159.711" stroke="black" stroke-width="0.5625" stroke-linecap="round" stroke-linejoin="round"/>
<path d="M97.0586 101.496C99.5469 106.398 102.547 113.848 103.559 123.297C105.383 140.293 99.6914 153.516 96.7656 159.273" stroke="black" stroke-width="0.5625" stroke-linecap="round" stroke-linejoin="round"/>
<path d="M81.0977 170.988C80.5664 184.773 80.0312 198.559 79.5 212.336" stroke="black" stroke-width="0.5625" stroke-linecap="round" stroke-linejoin="round"/>
<path d="M95.7656 170.316C96.8477 175.062 97.8359 180.109 98.6758 185.441C99.9688 193.609 100.719 201.281 101.113 208.355" stroke="black" stroke-width="0.5625" stroke-linecap="round" stroke-linejoin="round"/>
<path d="M62.0469 98.6367C63.6289 98.5117 65.2109 98.3828 66.7969 98.2539C66.1055 99.793 65.4062 101.328 64.7188 102.867C66.8633 103.488 69.0156 104.113 71.1602 104.742C70.6133 106.766 70.0586 108.801 69.5117 110.824C71.5742 111.547 73.6367 112.273 75.6992 112.992L73.5234 119.277L79.8437 122.84C78.7031 124.406 77.5586 125.969 76.418 127.535C78.4727 128.863 80.5273 130.191 82.582 131.516C81.1797 132.867 79.7852 134.227 78.3828 135.574C80.3398 137 82.3047 138.434 84.2617 139.859C82.8359 141.461 81.4063 143.066 79.9805 144.672C81.7734 145.953 83.5586 147.238 85.3516 148.52C83.9023 150.059 82.4492 151.586 81 153.125C82.5586 154.121 84.1211 155.113 85.6797 156.109C84.3906 157.199 83.0937 158.285 81.8008 159.371" stroke="black" stroke-width="0.5625" stroke-linecap="round" stroke-linejoin="round"/>
<path d="M81.0977 170.988C82.3945 172.363 83.6914 173.734 84.9883 175.109C83.625 176.203 82.2539 177.297 80.8867 178.391C82.1484 179.871 83.4141 181.348 84.6758 182.824C83.2734 184.242 81.8633 185.66 80.4609 187.07C81.7891 188.652 83.1133 190.234 84.4336 191.824C83.0625 193.102 81.6914 194.375 80.3164 195.648L84.3437 200.113C82.8359 201.648 81.3281 203.18 79.8242 204.719C81.0742 206.016 82.3359 207.32 83.5859 208.617" stroke="black" stroke-width="0.5625" stroke-linecap="round" stroke-linejoin="round"/>
<path d="M94.125 100.461C95.6914 102.066 97.2617 103.676 98.8203 105.281C97.9414 105.98 97.0586 106.676 96.1797 107.375L101.055 111.289C100.223 112.203 99.3984 113.121 98.5664 114.035C99.9844 115.43 101.391 116.824 102.809 118.227C101.953 119.422 101.094 120.613 100.238 121.805C101.43 123.207 102.613 124.609 103.809 126.02C102.809 127.152 101.82 128.293 100.824 129.426C101.812 130.969 102.801 132.516 103.785 134.059C102.668 135.078 101.551 136.094 100.434 137.113C101.199 138.77 101.961 140.426 102.727 142.086C101.578 142.746 100.434 143.398 99.2852 144.059C99.8398 145.723 100.395 147.379 100.949 149.047C99.7344 149.801 98.5195 150.559 97.3047 151.309C97.6367 152.898 97.9648 154.488 98.2969 156.078C96.9453 157.102 95.6016 158.129 94.2539 159.148" stroke="black" stroke-width="0.5625" stroke-linecap="round" stroke-linejoin="round"/>
<path d="M95.9492 170.277C95.2109 171.184 94.4844 172.102 93.75 173.008C94.8008 173.996 95.8516 174.996 96.8984 175.984C96.2773 177.469 95.6484 178.961 95.0234 180.449C96.1133 181.316 97.1992 182.18 98.2891 183.051C97.4844 184.379 96.6836 185.703 95.8711 187.039C97.0781 188.391 98.2891 189.746 99.4883 191.098C98.625 192.426 97.7617 193.754 96.8984 195.078C98.0859 196.617 99.2773 198.156 100.461 199.691C99.2617 201.051 98.0625 202.406 96.8711 203.766C98.2813 205.176 99.6836 206.578 101.094 207.988" stroke="black" stroke-width="0.5625" stroke-linecap="round" stroke-linejoin="round"/>
<path d="M80.7734 92.4492C80.5664 93.4688 80.4297 95.0078 81.2695 96.207C82.0039 97.25 82.8906 97.1992 86.1602 98.2617C88.125 98.8984 90.2188 99.7031 92.9414 100.297C93.5703 100.43 94.7461 100.672 95.8633 100.102C96.4258 99.8164 96.7656 99.4258 96.8555 99.3203C97.7383 98.2695 97.6563 96.8594 97.6367 96.1992C97.582 94.7383 97.6797 92.6992 98.2031 89.75C100.59 89.6289 100.996 88.9414 101.094 88.6719C101.234 88.2735 101.012 87.9727 100.246 86.4336C99.1367 84.2149 98.8945 83.4062 98.8125 83.0898C98.4844 81.8906 98.3008 81.2383 98.6016 80.5391C99.0234 79.5586 99.8984 79.6563 100.305 78.6289C100.539 78.0274 100.363 77.6836 100.254 76.3906C100.191 75.711 100.148 74.7188 100.238 73.4883" stroke="black" stroke-width="0.5625" stroke-linecap="round" stroke-linejoin="round"/>
<path d="M57.1953 159.523C57.0742 159.828 56.9336 160.297 56.9101 160.871C56.8789 161.863 57.2187 162.605 57.4062 162.957C56.7539 163.859 56.5508 164.898 56.9492 165.664C57.039 165.828 57.1797 166.047 57.4414 166.25C57.4062 166.309 56.9414 167.051 57.2617 167.855C57.4804 168.387 57.914 168.629 58.043 168.695C66.1953 169.852 73.207 170.398 78.6992 170.668C89.543 171.199 94.8984 170.668 99.8867 169.574C101.895 169.129 103.531 168.664 104.633 168.328C104.699 168.289 105.324 167.945 105.434 167.195C105.523 166.602 105.234 166.168 105.172 166.07C105.344 165.844 105.531 165.531 105.652 165.141C106.051 163.852 105.434 162.695 105.277 162.426C105.422 162.172 105.668 161.668 105.676 161C105.699 159.824 104.984 159.035 104.828 158.863C98.543 159.223 92.0703 159.484 85.4258 159.629C75.6523 159.836 66.2265 159.785 57.1875 159.516L57.1953 159.523Z" fill="black" stroke="black" stroke-width="0.5625" stroke-linecap="round" stroke-linejoin="round"/>
<path d="M56.2812 162.801C60.8555 163.387 65.707 163.828 70.8242 164.051C84.1641 164.652 96.1484 163.691 106.395 162.109" stroke="white" stroke-width="0.5625" stroke-linecap="round" stroke-linejoin="round"/>
<path d="M56.543 166.258C61.3633 166.684 67.1484 166.812 73.6289 166.176C78.1641 165.727 82.2656 164.984 85.8516 164.129" stroke="white" stroke-width="0.5625" stroke-linecap="round" stroke-linejoin="round"/>
<path d="M106.184 165.934C100.449 166.625 94.0664 167.121 87.1367 167.234C80.1836 167.344 73.7695 167.051 67.9961 166.535" stroke="white" stroke-width="0.5625" stroke-linecap="round" stroke-linejoin="round"/>
<path d="M89.8203 171.379C92.9219 171.379 95.4375 168.465 95.4375 164.871C95.4375 161.273 92.9219 158.359 89.8203 158.359C86.7188 158.359 84.2031 161.273 84.2031 164.871C84.2031 168.465 86.7188 171.379 89.8203 171.379Z" fill="white" stroke="black" stroke-width="0.5625" stroke-linecap="round" stroke-linejoin="round"/>
<path d="M91.3047 171.379C94.4062 171.379 96.9219 168.465 96.9219 164.871C96.9219 161.273 94.4062 158.359 91.3047 158.359C88.2031 158.359 85.6875 161.273 85.6875 164.871C85.6875 168.465 88.2031 171.379 91.3047 171.379Z" fill="white" stroke="black" stroke-width="0.5625" stroke-linecap="round" stroke-linejoin="round"/>
<path d="M91.7031 160.512C91.2656 161.344 90.7344 162.246 90.082 163.176C89.6484 163.797 89.2109 164.352 88.793 164.84C89.3242 165.484 89.8867 166.242 90.457 167.121C90.9375 167.855 91.3437 168.566 91.6953 169.234C92.0469 168.582 92.4609 167.898 92.9336 167.188C93.5234 166.297 94.1172 165.531 94.6797 164.871C94.1836 164.328 93.6523 163.672 93.1133 162.891C92.5352 162.051 92.0703 161.238 91.7031 160.512Z" fill="#EB1C24" stroke="black" stroke-width="0.5625" stroke-linecap="round" stroke-linejoin="round"/>
<path d="M128.723 57.5664C128.723 64.7383 128.723 71.8984 128.73 79.0703" stroke="white" stroke-width="0.5625" stroke-linecap="round" stroke-linejoin="round"/>
<path d="M116.527 82.7227C115.957 83.6133 115.254 84.5977 114.391 85.5938C113.813 86.2695 113.234 86.8633 112.688 87.3867C113.391 88.0859 114.141 88.9023 114.891 89.8477C115.523 90.6406 116.07 91.4062 116.535 92.1367C117 91.4375 117.547 90.6875 118.172 89.9219C118.957 88.9609 119.746 88.1289 120.48 87.4258C119.828 86.8398 119.113 86.1367 118.402 85.2891C117.637 84.3789 117.023 83.5039 116.535 82.7227H116.527Z" fill="#EB1C24" stroke="black" stroke-width="0.5625" stroke-linecap="round" stroke-linejoin="round"/>
<path d="M95.1094 83.961C93.9766 83.3516 92.8437 82.7461 91.7031 82.1367C92.3086 82.1367 93.0469 82.0859 93.8633 81.9258C94.5469 81.793 95.1367 81.6133 95.6328 81.4336" stroke="black" stroke-width="0.5625" stroke-linecap="round" stroke-linejoin="round"/>
<path d="M94.6797 81.7344C94.7266 81.8516 94.8594 82.2109 94.7344 82.6484C94.6406 82.9531 94.4688 83.1563 94.3789 83.2461" stroke="black" stroke-width="0.5625" stroke-linecap="round" stroke-linejoin="round"/>
<mask id="mask0_2321_5102" style="mask-type:luminance" maskUnits="userSpaceOnUse" x="11" y="10" width="147" height="79">
<path d="M11 10H158V89H11V10Z" fill="white"/>
</mask>
<g mask="url(#mask0_2321_5102)">
<mask id="mask1_2321_5102" style="mask-type:luminance" maskUnits="userSpaceOnUse" x="11" y="10" width="147" height="79">
<path d="M157.727 88.4766C157.727 62.5781 157.734 36.6719 157.738 10.7734C108.887 10.7734 60.0234 10.7734 11.168 10.7812C11.1445 36.2617 11.1211 61.7383 11.1016 87.2148C13.6641 75.7773 18.8398 58.9102 28.7109 49.9023C36.2617 43.0156 40.0352 39.5664 42.9883 38.1875C44.3633 37.543 48.75 35.6445 52.3789 31.2109C53.0547 30.3945 53.543 29.6758 53.8516 29.1953C54.1641 29.6133 55.3789 31.168 57.0508 31.1992C59.2266 31.2344 61.6562 28.6836 61.7773 24.8438C62.0312 25.4141 64.1719 29.9609 69.0312 30.9883C71.3711 31.4844 73.3359 30.957 74.3477 30.5977C75.0078 30.0508 75.8867 29.2031 76.6875 27.9883C77.4766 26.7969 77.9023 25.6758 78.1484 24.8672H90.6992C90.7734 25.332 91.3789 28.7617 94.5 30.4688C97.5508 32.1406 100.648 30.8672 101.602 30.4844C104.895 29.1562 106.289 26.4219 106.598 25.7734C107.34 29.3164 109.816 31.5039 111.988 31.332C112.344 31.3008 113.477 31.1523 114.652 29.832L118.41 32.9609C119.879 33.8281 121.941 35.1133 124.32 36.7773C127.109 38.7266 136.363 45.2969 143.633 54.7383C153.285 67.2812 156.516 81.0859 157.719 88.4609L157.727 88.4766Z" fill="white"/>
</mask>
<g mask="url(#mask1_2321_5102)">
<path d="M11.1016 10.7734V88.4766H157.738V10.7734H11.1016Z" fill="url(#paint0_linear_2321_5102)"/>
</g>
</g>
<path d="M158.113 228.566H10.6406C10.6406 183.238 10.6406 137.906 10.6406 92.5782C10.6406 65.1875 10.6406 37.8047 10.6406 10.4141H158.113C158.113 37.7617 158.113 65.1055 158.113 92.4492C158.113 137.824 158.113 183.191 158.113 228.566Z" stroke="#0E0E0E" stroke-width="0.75" stroke-linecap="round" stroke-linejoin="round"/>
<path d="M84.293 32.8477C84.2383 32.2266 83.9844 30.043 82.1758 28.1914C80.5586 26.5234 78.6523 26.1289 78 26.0156C78.0508 25.3633 78.1055 24.7109 78.1562 24.0586C79.0117 23.6602 80.7305 22.7148 82.1562 20.8008C83.6016 18.8594 84.0156 16.9258 84.1484 15.9883C84.4883 17.1563 85.2305 19.1602 86.9258 21.1094C88.2305 22.6094 89.6172 23.5234 90.5781 24.0586C90.6289 24.7109 90.6836 25.3633 90.7344 26.0156C90.2695 26.0586 87.2773 26.4062 85.4766 29.0234C84.4219 30.5664 84.293 32.1406 84.2773 32.8477H84.293Z" fill="white"/>
<path d="M53.0859 22.4063C53.918 22.168 55.2891 21.9063 56.8438 22.2813C58.1992 22.6016 59.1133 23.2618 59.6328 23.6524C64.1914 27.0743 64.8672 29.7266 68.0039 30.9259C68.4063 31.086 71.3398 32.0508 74.2969 30.6719C76.3789 29.6993 77.8633 27.4766 78.0977 25.0704C78.4258 21.6212 76.0273 18.2071 73.2461 17.586C72.9219 17.5118 71.168 17.1212 69.7344 18.1915C69.5547 18.3282 68.4453 19.1837 68.2891 20.6915C68.2656 20.9142 68.0859 22.8595 69.5703 23.8009C70.4023 24.3282 71.4609 24.3594 72.3008 23.9688C73.4922 23.4219 74.2109 22.047 74.0234 20.5782C74.3164 20.8985 74.7227 21.4024 75.0469 22.0938C75.2031 22.4219 76.2227 24.6798 75.2461 26.8477C74.0625 29.4884 70.8281 29.9532 70.3945 30.0118C67.5078 30.4259 64.5078 28.9103 62.543 26.1876" stroke="#0E0E0E" stroke-width="0.75" stroke-linecap="round" stroke-linejoin="round"/>
<path d="M78.1562 23.9687C78.7266 23.6914 79.6211 23.1875 80.5273 22.3633C83.4297 19.7148 83.9609 16.039 84.2031 14.4062C84.3359 13.4844 84.457 12.1094 84.3008 10.4062" stroke="#0E0E0E" stroke-width="0.75" stroke-linecap="round" stroke-linejoin="round"/>
<path d="M78 25.9258C78.7109 26.0508 79.4844 26.2774 80.25 26.668C83.707 28.4297 84.2188 32.1211 84.293 32.7578" stroke="#0E0E0E" stroke-width="0.75" stroke-linecap="round" stroke-linejoin="round"/>
<path d="M115.664 22.4063C114.832 22.168 113.461 21.9063 111.906 22.2813C110.551 22.6016 109.637 23.2618 109.117 23.6524C104.559 27.0743 103.883 29.7266 100.746 30.9259C100.344 31.086 97.4102 32.0508 94.4531 30.6719C92.3711 29.6993 90.8867 27.4766 90.6523 25.0704C90.3242 21.6212 92.7227 18.2071 95.5039 17.586C95.8281 17.5118 97.582 17.1212 99.0156 18.1915C99.1953 18.3282 100.305 19.1837 100.461 20.6915C100.484 20.9142 100.664 22.8595 99.1797 23.8009C98.3477 24.3282 97.2891 24.3594 96.4492 23.9688C95.2578 23.4219 94.5391 22.047 94.7266 20.5782C94.4336 20.8985 94.0273 21.4024 93.7031 22.0938C93.5469 22.4219 92.5273 24.6798 93.5039 26.8477C94.6875 29.4884 97.9219 29.9532 98.3555 30.0118C101.242 30.4259 104.242 28.9103 106.207 26.1876" stroke="#0E0E0E" stroke-width="0.75" stroke-linecap="round" stroke-linejoin="round"/>
<path d="M90.75 25.9258C90.0391 26.0508 89.2656 26.2774 88.5 26.668C85.043 28.4297 84.5312 32.1211 84.457 32.7578" stroke="#0E0E0E" stroke-width="0.75" stroke-linecap="round" stroke-linejoin="round"/>
<path d="M114.961 29.2617C114.848 29.5156 114.254 30.8281 112.867 31.2656C111.398 31.7305 110.109 30.875 109.566 30.5156C107.297 29.0078 107.07 26.1367 107.047 25.6719" stroke="#0E0E0E" stroke-width="0.75" stroke-linecap="round" stroke-linejoin="round"/>
<path d="M122.934 36.172C122.289 35.8009 121.379 35.2462 120.359 34.504C117.414 32.3594 115.109 30.6876 114.512 27.9571C113.961 25.4767 115.078 23.3829 115.273 23.0313C117.113 19.7149 120.961 19.168 121.754 19.0782C125.332 18.672 128.961 20.5626 131.234 23.8633" stroke="#0E0E0E" stroke-width="0.75" stroke-linecap="round" stroke-linejoin="round"/>
<path d="M130.738 41.3242C130.777 33.6055 128.887 27.5469 125.895 25.8711C124.359 25.0156 122.797 24.9961 122.797 24.9961C122.281 24.9961 119.664 25.0312 118.004 27.1914C116.527 29.1211 116.895 31.3242 116.961 31.6992" stroke="#0E0E0E" stroke-width="0.75" stroke-linecap="round" stroke-linejoin="round"/>
<path d="M151.867 37.4219C152.258 37.2266 153.504 36.6485 154.844 36.9961C157.238 37.6016 157.508 40.4883 157.523 40.6993C157.664 42.5391 156.539 44.6758 154.395 45.4415C152.746 46.0235 151.156 45.5587 150.309 45.3126C147.563 44.5118 146.055 42.6407 145.305 41.6993C142.906 38.6368 144.074 37.1524 141.613 34.9766C140.949 34.3868 139.598 33.1836 137.527 32.8711C135.375 32.5313 134.488 33.461 132.523 32.9141C130.598 32.3751 129.602 30.9571 129.344 30.5587C129.227 30.379 127.824 28.1211 129.141 25.8516C129.414 25.379 130.215 24.004 132.023 23.6094C133.664 23.254 135.473 23.8555 136.461 25.0313C137.309 26.0391 137.559 27.4532 136.898 28.5782C136.754 28.8282 136.305 29.5938 135.285 29.8985C134.43 30.1563 133.344 30.043 132.594 29.4414C131.934 28.9102 131.813 28.2266 131.789 28.0235" stroke="#0E0E0E" stroke-width="0.75" stroke-linecap="round" stroke-linejoin="round"/>
<path d="M143.16 37.0703C142.844 33.6485 141.098 30.836 138.539 29.9219C137.953 29.711 137.039 29.5039 135.824 29.6524" stroke="#0E0E0E" stroke-width="0.75" stroke-linecap="round" stroke-linejoin="round"/>
<path d="M145.754 42.3789C145.289 42.2617 143.355 41.8086 141.703 42.8907C139.719 44.1953 138.922 47.2188 140.145 50.0821" stroke="#0E0E0E" stroke-width="0.75" stroke-linecap="round" stroke-linejoin="round"/>
<path d="M147.113 52.6838C146.805 52.672 146.168 52.6759 145.492 53.0314C144.398 53.6095 144.039 54.6642 143.969 54.9064" stroke="#0E0E0E" stroke-width="0.75" stroke-linecap="round" stroke-linejoin="round"/>
<path d="M158.102 91.4961C158.086 91.3906 158.07 91.2031 158.039 90.9883C157.453 85.8515 154.148 61.8633 134.422 44.3672C131.969 42.1914 128.168 39.1406 122.934 36.1719" stroke="#0E0E0E" stroke-width="0.75" stroke-linecap="round" stroke-linejoin="round"/>
<path d="M84.293 32.8477C84.2383 32.2266 83.9844 30.043 82.1758 28.1914C80.5586 26.5235 78.6523 26.1289 78 26.0156C78.0508 25.3633 78.1055 24.711 78.1562 24.0586C79.0117 23.6602 80.7305 22.7149 82.1562 20.8008C83.6016 18.8594 84.0156 16.9258 84.1484 15.9883C84.4883 17.1563 85.2305 19.1602 86.9258 21.1094C88.2305 22.6094 89.6172 23.5235 90.5781 24.0586C90.6289 24.711 90.6836 25.3633 90.7344 26.0156C90.2695 26.0586 87.2773 26.4063 85.4766 29.0235C84.4219 30.5664 84.293 32.1406 84.2773 32.8477H84.293Z" fill="black" stroke="black" stroke-width="0.5625" stroke-linecap="round" stroke-linejoin="round"/>
<path d="M115.664 22.4063C114.832 22.168 113.461 21.9063 111.906 22.2813C110.551 22.6016 109.637 23.2618 109.117 23.6524C104.559 27.0743 103.883 29.7266 100.746 30.9259C100.344 31.086 97.4102 32.0508 94.4531 30.6719C92.3711 29.6993 90.8867 27.4766 90.6523 25.0704C90.3242 21.6212 92.7227 18.2071 95.5039 17.586C95.8281 17.5118 97.582 17.1212 99.0156 18.1915C99.1953 18.3282 100.305 19.1837 100.461 20.6915C100.484 20.9142 100.664 22.8595 99.1797 23.8009C98.3477 24.3282 97.2891 24.3594 96.4492 23.9688C95.2578 23.4219 94.5391 22.047 94.7266 20.5782C94.4336 20.8985 94.0273 21.4024 93.7031 22.0938C93.5469 22.4219 92.5273 24.6798 93.5039 26.8477C94.6875 29.4884 97.9219 29.9532 98.3555 30.0118C101.242 30.4259 104.242 28.9103 106.207 26.1876" stroke="#0E0E0E" stroke-width="0.75" stroke-linecap="round" stroke-linejoin="round"/>
<path d="M90.5938 23.9687C89.4883 23.4219 88.7188 22.8125 88.2227 22.3633C84.8789 19.3164 84.5547 14.7969 84.4336 13.1289C84.3516 11.9883 84.3985 11.0469 84.4492 10.4062" stroke="#0E0E0E" stroke-width="0.75" stroke-linecap="round" stroke-linejoin="round"/>
<path d="M90.75 25.9258C90.0391 26.0508 89.2656 26.2774 88.5 26.668C85.043 28.4297 84.5312 32.1211 84.457 32.7578" stroke="#0E0E0E" stroke-width="0.75" stroke-linecap="round" stroke-linejoin="round"/>
<path d="M114.961 29.2617C114.848 29.5156 114.254 30.8281 112.867 31.2656C111.398 31.7305 110.109 30.875 109.566 30.5156C107.297 29.0078 107.07 26.1367 107.047 25.6719" stroke="#0E0E0E" stroke-width="0.75" stroke-linecap="round" stroke-linejoin="round"/>
<path d="M122.934 36.172C122.289 35.8009 121.379 35.2462 120.359 34.504C117.414 32.3594 115.109 30.6876 114.512 27.9571C113.961 25.4767 115.078 23.3829 115.273 23.0313C117.113 19.7149 120.961 19.168 121.754 19.0782C125.332 18.672 128.961 20.5626 131.234 23.8633" stroke="#0E0E0E" stroke-width="0.75" stroke-linecap="round" stroke-linejoin="round"/>
<path d="M130.738 41.3242C130.777 33.6055 128.887 27.5469 125.895 25.8711C124.359 25.0156 122.797 24.9961 122.797 24.9961C122.281 24.9961 119.664 25.0312 118.004 27.1914C116.527 29.1211 116.895 31.3242 116.961 31.6992" stroke="#0E0E0E" stroke-width="0.75" stroke-linecap="round" stroke-linejoin="round"/>
<path d="M151.867 37.4219C152.258 37.2266 153.504 36.6485 154.844 36.9961C157.238 37.6016 157.508 40.4883 157.523 40.6993C157.664 42.5391 156.539 44.6758 154.395 45.4415C152.746 46.0235 151.156 45.5587 150.309 45.3126C147.563 44.5118 146.055 42.6407 145.305 41.6993C142.906 38.6368 144.074 37.1524 141.613 34.9766C140.949 34.3868 139.598 33.1836 137.527 32.8711C135.375 32.5313 134.488 33.461 132.523 32.9141C130.598 32.3751 129.602 30.9571 129.344 30.5587C129.227 30.379 127.824 28.1211 129.141 25.8516C129.414 25.379 130.215 24.004 132.023 23.6094C133.664 23.254 135.473 23.8555 136.461 25.0313C137.309 26.0391 137.559 27.4532 136.898 28.5782C136.754 28.8282 136.305 29.5938 135.285 29.8985C134.43 30.1563 133.344 30.043 132.594 29.4414C131.934 28.9102 131.813 28.2266 131.789 28.0235" stroke="#0E0E0E" stroke-width="0.75" stroke-linecap="round" stroke-linejoin="round"/>
<path d="M143.16 37.0703C142.844 33.6485 141.098 30.836 138.539 29.9219C137.953 29.711 137.039 29.5039 135.824 29.6524" stroke="#0E0E0E" stroke-width="0.75" stroke-linecap="round" stroke-linejoin="round"/>
<path d="M158.012 49.1445C156.781 47.039 154.816 45.7265 152.859 45.8437C150.434 45.996 149.012 48.2656 148.395 49.2499C144.93 54.7773 148.637 62.328 149.203 63.4608" stroke="#0E0E0E" stroke-width="0.75" stroke-linecap="round" stroke-linejoin="round"/>
<path d="M158.063 90.8242C156.652 81.1719 152.07 60.0586 134.422 44.375C130.582 40.961 126.66 38.2852 122.934 36.1758" stroke="#0E0E0E" stroke-width="0.75" stroke-linecap="round" stroke-linejoin="round"/>
<mask id="mask2_2321_5102" style="mask-type:luminance" maskUnits="userSpaceOnUse" x="10" y="149" width="148" height="80">
<path d="M10 149H158V229H10V149Z" fill="white"/>
</mask>
<g mask="url(#mask2_2321_5102)">
<mask id="mask3_2321_5102" style="mask-type:luminance" maskUnits="userSpaceOnUse" x="10" y="149" width="148" height="80">
<path d="M10.9492 149.023C10.9727 175.414 10.9883 201.809 11.0117 228.191C59.8711 228.184 108.734 228.172 157.598 228.164C157.621 202.684 157.641 177.207 157.664 151.73C152.813 163.016 145.371 176.773 133.828 190.512C129.375 195.809 124.891 200.426 120.562 204.434C119.363 206.023 118.164 207.605 116.969 209.195C116.289 209.383 115.605 209.562 114.922 209.75C115.523 213.559 113.211 216.469 110.961 216.621C109.484 216.719 107.969 215.629 106.996 214.102C106.516 213.336 105.758 212.246 104.625 211.137C103.395 209.93 101.969 208.527 99.7344 207.957C97.4844 207.387 95.4961 207.934 94.418 208.348C93.7578 208.895 92.8789 209.742 92.0781 210.957C91.2891 212.148 90.8633 213.266 90.6133 214.078H78.0664C77.9922 213.613 77.3867 210.184 74.2656 208.477C71.2109 206.801 68.1133 208.078 67.1641 208.461C63.8711 209.789 62.4766 212.523 62.168 213.172C61.4258 209.629 58.9492 207.441 56.7734 207.613C56.4219 207.641 55.2891 207.793 54.1133 209.113C52.8594 208.07 51.6094 207.027 50.3555 205.984C44.5352 203.105 33.6992 196.766 24.6016 184.484C13.9648 170.113 11.6094 155.57 10.957 149.031L10.9492 149.023Z" fill="white"/>
</mask>
<g mask="url(#mask3_2321_5102)">
<path d="M10.9492 149.023V228.191H157.664V149.023H10.9492Z" fill="url(#paint1_linear_2321_5102)"/>
</g>
</g>
<path d="M84.3359 206.301C84.3906 206.922 84.6445 209.105 86.4531 210.957C88.0742 212.621 89.9766 213.02 90.6289 213.133C90.5781 213.785 90.5234 214.437 90.4727 215.09C89.6172 215.488 87.8984 216.434 86.4766 218.344C85.0273 220.289 84.6133 222.223 84.4805 223.16C84.1406 221.988 83.3984 219.988 81.7031 218.039C80.3984 216.539 79.0117 215.621 78.0508 215.09C78 214.437 77.9492 213.785 77.8945 213.133C78.3594 213.086 81.3516 212.742 83.1523 210.125C84.2109 208.578 84.3359 207.004 84.3516 206.301H84.3359Z" fill="white"/>
<path d="M115.547 216.738C114.711 216.98 113.34 217.242 111.789 216.867C110.43 216.547 109.516 215.887 108.996 215.496C104.437 212.074 103.762 209.422 100.629 208.219C100.223 208.063 97.2891 207.094 94.3359 208.477C92.25 209.449 90.7656 211.672 90.5312 214.078C90.2031 217.527 92.6016 220.941 95.3867 221.563C95.707 221.637 97.4609 222.027 98.8945 220.953C99.0742 220.82 100.184 219.965 100.344 218.457C100.363 218.234 100.547 216.289 99.0586 215.344C98.2266 214.82 97.1719 214.789 96.3281 215.18C95.1367 215.727 94.418 217.102 94.6055 218.57C94.3125 218.246 93.9062 217.746 93.5859 217.055C93.4258 216.727 92.4062 214.469 93.3828 212.301C94.5664 209.66 97.8008 209.195 98.2344 209.137C101.121 208.723 104.121 210.238 106.086 212.961" stroke="#0E0E0E" stroke-width="0.75" stroke-linecap="round" stroke-linejoin="round"/>
<path d="M90.4726 215.172C89.414 215.699 88.6406 216.289 88.1015 216.777C84.9882 219.605 84.5312 223.723 84.3164 225.648C84.1718 226.902 84.1875 227.938 84.2187 228.574" stroke="#0E0E0E" stroke-width="0.75" stroke-linecap="round" stroke-linejoin="round"/>
<path d="M90.6289 213.223C89.918 213.094 89.1445 212.871 88.3789 212.48C84.9219 210.719 84.4141 207.027 84.3359 206.391" stroke="#0E0E0E" stroke-width="0.75" stroke-linecap="round" stroke-linejoin="round"/>
<path d="M52.9727 216.738C53.8047 216.98 55.1758 217.242 56.7305 216.867C58.0859 216.547 59.0039 215.887 59.5195 215.496C64.0781 212.074 64.7539 209.422 67.8906 208.219C68.2969 208.063 71.2266 207.094 74.1836 208.477C76.2656 209.449 77.7539 211.672 77.9844 214.078C78.3164 217.527 75.9141 220.941 73.1328 221.563C72.8086 221.637 71.0547 222.027 69.6211 220.953C69.4414 220.82 68.332 219.965 68.1758 218.457C68.1523 218.234 67.9727 216.289 69.457 215.344C70.2891 214.82 71.3477 214.789 72.1875 215.18C73.3789 215.727 74.1016 217.102 73.9141 218.57C74.2031 218.246 74.6094 217.746 74.9336 217.055C75.0898 216.727 76.1094 214.469 75.1367 212.301C73.9492 209.66 70.7187 209.195 70.2812 209.137C67.3945 208.723 64.3945 210.238 62.4297 212.961" stroke="#0E0E0E" stroke-width="0.75" stroke-linecap="round" stroke-linejoin="round"/>
<path d="M77.8867 213.223C78.5703 213.117 79.3516 212.898 80.1367 212.48C83.3477 210.785 84.1797 207.164 84.3359 206.391" stroke="#0E0E0E" stroke-width="0.75" stroke-linecap="round" stroke-linejoin="round"/>
<path d="M53.6758 209.887C53.7891 209.629 54.3828 208.316 55.7695 207.883C57.2383 207.418 58.5313 208.273 59.0703 208.633C61.3438 210.141 61.5664 213.012 61.5898 213.477" stroke="#0E0E0E" stroke-width="0.75" stroke-linecap="round" stroke-linejoin="round"/>
<path d="M45.6992 202.969C46.3438 203.336 47.25 203.891 48.2695 204.637C51.2187 206.781 53.5195 208.453 54.1211 211.184C54.668 213.664 53.5508 215.758 53.3555 216.109C51.5156 219.426 47.6719 219.973 46.875 220.063C43.2969 220.469 39.668 218.578 37.3945 215.277" stroke="#0E0E0E" stroke-width="0.75" stroke-linecap="round" stroke-linejoin="round"/>
<path d="M37.8984 197.824C37.8594 205.543 39.75 211.602 42.7422 213.273C44.2812 214.129 45.8398 214.152 45.8398 214.152C46.3594 214.152 48.9765 214.113 50.6328 211.953C52.1094 210.027 51.7422 207.824 51.6758 207.449" stroke="#0E0E0E" stroke-width="0.75" stroke-linecap="round" stroke-linejoin="round"/>
<path d="M16.7696 201.727C16.3789 201.922 15.1368 202.496 13.793 202.152C11.3985 201.547 11.1289 198.656 11.1133 198.449C10.9727 196.61 12.0977 194.473 14.2422 193.707C15.8907 193.121 17.4844 193.586 18.3282 193.836C21.0743 194.637 22.5821 196.504 23.3321 197.449C25.7344 200.512 24.5625 201.996 27.0235 204.172C27.6915 204.762 29.0391 205.961 31.1094 206.277C33.2618 206.613 34.1485 205.684 36.1133 206.235C38.0391 206.774 39.0391 208.192 39.293 208.586C39.4141 208.766 40.8164 211.024 39.4961 213.297C39.2266 213.77 38.4219 215.141 36.6133 215.539C34.9727 215.891 33.1641 215.293 32.1758 214.113C31.3282 213.11 31.0782 211.692 31.7383 210.567C31.8829 210.32 32.3321 209.555 33.3516 209.246C34.2071 208.992 35.2969 209.106 36.0469 209.703C36.7032 210.238 36.8243 210.922 36.8477 211.121" stroke="#0E0E0E" stroke-width="0.75" stroke-linecap="round" stroke-linejoin="round"/>
<path d="M25.4766 202.07C25.793 205.488 27.5391 208.301 30.0977 209.219C30.6836 209.426 31.5977 209.637 32.8125 209.488" stroke="#0E0E0E" stroke-width="0.75" stroke-linecap="round" stroke-linejoin="round"/>
<path d="M22.875 196.766C23.3555 196.887 25.2734 197.324 26.9258 196.258C28.9258 194.953 29.7461 191.93 28.5391 189.051" stroke="#0E0E0E" stroke-width="0.75" stroke-linecap="round" stroke-linejoin="round"/>
<path d="M21.5156 186.461C21.8242 186.477 22.4609 186.469 23.1367 186.117C24.2617 185.523 24.6094 184.422 24.6758 184.199" stroke="#0E0E0E" stroke-width="0.75" stroke-linecap="round" stroke-linejoin="round"/>
<path d="M10.6562 146.879C11.8594 156.539 16.0742 178.617 34.207 194.781C38.0391 198.191 41.9531 200.871 45.6992 202.977" stroke="#0E0E0E" stroke-width="0.75" stroke-linecap="round" stroke-linejoin="round"/>
<path d="M84.3359 206.301C84.3906 206.922 84.6445 209.105 86.4531 210.957C88.0742 212.621 89.9766 213.02 90.6289 213.133C90.5781 213.785 90.5234 214.437 90.4727 215.09C90.0078 215.301 89.3711 215.629 88.6875 216.148C87.1484 217.324 86.4141 218.703 85.7695 219.949C85.207 221.047 84.4805 222.738 84.1055 224.977C84.0977 223.902 83.9336 220.82 81.6992 218.031C80.4297 216.441 78.9766 215.547 78.0469 215.082C77.9922 214.43 77.9414 213.777 77.8867 213.125C78.3516 213.078 81.3438 212.734 83.1445 210.117C84.2031 208.574 84.3281 206.996 84.3438 206.293L84.3359 206.301Z" fill="black" stroke="black" stroke-width="0.5625" stroke-linecap="round" stroke-linejoin="round"/>
<path d="M52.9727 216.738C53.8047 216.98 55.1758 217.242 56.7305 216.867C58.0859 216.547 59.0039 215.887 59.5195 215.496C64.0781 212.074 64.7539 209.422 67.8906 208.219C68.2969 208.063 71.2266 207.094 74.1836 208.477C76.2656 209.449 77.7539 211.672 77.9844 214.078C78.3164 217.527 75.9141 220.941 73.1328 221.563C72.8086 221.637 71.0547 222.027 69.6211 220.953C69.4414 220.82 68.332 219.965 68.1758 218.457C68.1523 218.234 67.9727 216.289 69.457 215.344C70.2891 214.82 71.3477 214.789 72.1875 215.18C73.3789 215.727 74.1016 217.102 73.9141 218.57C74.2031 218.246 74.6094 217.746 74.9336 217.055C75.0898 216.727 76.1094 214.469 75.1367 212.301C73.9492 209.66 70.7187 209.195 70.2812 209.137C67.3945 208.723 64.3945 210.238 62.4297 212.961" stroke="#0E0E0E" stroke-width="0.75" stroke-linecap="round" stroke-linejoin="round"/>
<path d="M78.0469 215.172C78.668 215.473 79.5391 215.977 80.4141 216.777C82.2656 218.488 82.9336 220.469 83.4531 222.086C84.2539 224.594 84.3359 226.871 84.2266 228.574" stroke="#0E0E0E" stroke-width="0.75" stroke-linecap="round" stroke-linejoin="round"/>
<path d="M77.8867 213.223C78.5703 213.117 79.3516 212.898 80.1367 212.48C83.3789 210.762 84.1875 207.059 84.3359 206.301" stroke="#0E0E0E" stroke-width="0.75" stroke-linecap="round" stroke-linejoin="round"/>
<path d="M53.6758 209.887C53.7891 209.629 54.3828 208.316 55.7695 207.883C57.2383 207.418 58.5313 208.273 59.0703 208.633C61.3438 210.141 61.5664 213.012 61.5898 213.477" stroke="#0E0E0E" stroke-width="0.75" stroke-linecap="round" stroke-linejoin="round"/>
<path d="M45.6992 202.969C46.3438 203.336 47.25 203.891 48.2695 204.637C51.2187 206.781 53.5195 208.453 54.1211 211.184C54.668 213.664 53.5508 215.758 53.3555 216.109C51.5156 219.426 47.6719 219.973 46.875 220.063C43.2969 220.469 39.668 218.578 37.3945 215.277" stroke="#0E0E0E" stroke-width="0.75" stroke-linecap="round" stroke-linejoin="round"/>
<path d="M37.8984 197.824C37.8594 205.543 39.75 211.602 42.7422 213.273C44.2812 214.129 45.8398 214.152 45.8398 214.152C46.3594 214.152 48.9765 214.113 50.6328 211.953C52.1094 210.027 51.7422 207.824 51.6758 207.449" stroke="#0E0E0E" stroke-width="0.75" stroke-linecap="round" stroke-linejoin="round"/>
<path d="M16.7696 201.727C16.3789 201.922 15.1368 202.496 13.793 202.152C11.3985 201.547 11.1289 198.656 11.1133 198.449C10.9727 196.61 12.0977 194.473 14.2422 193.707C15.8907 193.121 17.4844 193.586 18.3282 193.836C21.0743 194.637 22.5821 196.504 23.3321 197.449C25.7344 200.512 24.5625 201.996 27.0235 204.172C27.6915 204.762 29.0391 205.961 31.1094 206.277C33.2618 206.613 34.1485 205.684 36.1133 206.235C38.0391 206.774 39.0391 208.192 39.293 208.586C39.4141 208.766 40.8164 211.024 39.4961 213.297C39.2266 213.77 38.4219 215.141 36.6133 215.539C34.9727 215.891 33.1641 215.293 32.1758 214.113C31.3282 213.11 31.0782 211.692 31.7383 210.567C31.8829 210.32 32.3321 209.555 33.3516 209.246C34.2071 208.992 35.2969 209.106 36.0469 209.703C36.7032 210.238 36.8243 210.922 36.8477 211.121" stroke="#0E0E0E" stroke-width="0.75" stroke-linecap="round" stroke-linejoin="round"/>
<path d="M25.4766 202.07C25.793 205.488 27.5391 208.301 30.0977 209.219C30.6836 209.426 31.5977 209.637 32.8125 209.488" stroke="#0E0E0E" stroke-width="0.75" stroke-linecap="round" stroke-linejoin="round"/>
<path d="M10.7109 190.137C10.8008 190.289 12.7969 193.484 15.7813 193.297C18.1953 193.145 19.6211 190.879 20.2422 189.891C23.6992 184.371 20.0039 176.809 19.4336 175.676" stroke="#0E0E0E" stroke-width="0.75" stroke-linecap="round" stroke-linejoin="round"/>
<path d="M22.875 196.766C23.3555 196.887 25.2734 197.324 26.9258 196.258C28.9258 194.953 29.7461 191.93 28.5391 189.051" stroke="#0E0E0E" stroke-width="0.75" stroke-linecap="round" stroke-linejoin="round"/>
<path d="M21.5156 186.461C21.8242 186.477 22.4609 186.469 23.1367 186.117C24.2617 185.523 24.6094 184.422 24.6758 184.199" stroke="#0E0E0E" stroke-width="0.75" stroke-linecap="round" stroke-linejoin="round"/>
<path d="M10.6562 146.879C11.8594 156.539 16.0742 178.617 34.207 194.781C38.0391 198.191 41.9531 200.871 45.6992 202.977" stroke="#0E0E0E" stroke-width="0.75" stroke-linecap="round" stroke-linejoin="round"/>
<path d="M128.297 206.156C127.523 204.852 127.133 203.465 127.133 202.004C127.133 200.684 127.426 199.461 128.012 198.336C128.594 197.211 129.391 196.266 130.395 195.508C131.398 194.75 132.547 194.254 133.844 194.016L134.191 193.969C134.535 193.926 134.879 193.91 135.227 193.91H147.238V194.977L146.812 194.945C146.371 194.953 146.012 195.109 145.719 195.41C145.426 195.711 145.273 196.07 145.273 196.496L145.262 213.852C145.281 214.297 145.453 214.664 145.777 214.969C146.086 215.234 146.43 215.359 146.812 215.359L147.238 215.328V216.395H135.227C134.754 216.395 134.301 216.305 133.859 216.125C133.148 215.832 132.594 215.383 132.18 214.766C131.766 214.152 131.566 213.469 131.566 212.719C131.566 212.039 131.746 211.398 132.113 210.793C132.352 210.395 132.66 210.059 133.02 209.789C132.172 209.547 131.387 209.172 130.648 208.672C129.676 208.004 128.887 207.164 128.281 206.156H128.297ZM140.406 194.938H135.234C133.352 194.938 131.684 195.621 130.246 196.992C129.555 197.703 129.211 198.613 129.211 199.723V199.836L129.227 199.863V200.023C129.227 200.105 129.227 200.188 129.238 200.27C129.238 200.301 129.238 200.336 129.254 200.383V200.414C129.254 200.414 129.254 200.473 129.27 200.504C129.277 200.602 129.301 200.684 129.316 200.773C129.316 200.801 129.316 200.84 129.328 200.887V200.898C129.336 200.945 129.352 200.977 129.359 201.012V201.027C129.359 201.027 129.359 201.074 129.375 201.102C129.375 201.125 129.375 201.148 129.391 201.164V201.176C129.48 201.523 129.602 201.867 129.734 202.211C129.781 202.363 129.84 202.496 129.922 202.641C129.945 202.691 129.969 202.738 129.984 202.781C130.027 202.863 130.059 202.941 130.094 203C130.117 203.031 130.125 203.051 130.125 203.059L130.141 203.074L130.297 203.375L130.344 203.434C130.344 203.434 130.363 203.473 130.371 203.48C130.395 203.523 130.418 203.562 130.449 203.609C130.5 203.691 130.559 203.781 130.621 203.879C130.672 203.961 130.727 204.043 130.777 204.109L130.809 204.141C130.809 204.141 130.852 204.207 130.883 204.254L130.98 204.379C130.98 204.379 131.012 204.426 131.023 204.441H131.039C131.039 204.441 131.047 204.484 131.07 204.5H131.086C131.086 204.5 131.094 204.539 131.113 204.547L131.129 204.559C131.129 204.559 131.16 204.605 131.176 204.621C131.199 204.648 131.219 204.68 131.234 204.695C131.363 204.852 131.496 205.004 131.641 205.152L131.984 205.496C132.047 205.559 132.105 205.609 132.156 205.656C132.211 205.699 132.27 205.746 132.328 205.812L132.406 205.887C132.406 205.887 132.449 205.934 132.48 205.949C132.562 206.023 132.652 206.098 132.75 206.164C132.809 206.219 132.879 206.262 132.953 206.309C133.051 206.391 133.148 206.465 133.254 206.523C133.281 206.547 133.305 206.563 133.312 206.57H133.328L133.371 206.613H133.387C133.387 206.613 133.418 206.652 133.449 206.66C133.5 206.703 133.559 206.734 133.621 206.773C133.672 206.801 133.734 206.84 133.793 206.887C133.816 206.906 133.836 206.922 133.867 206.93L133.898 206.945C133.898 206.945 133.926 206.953 133.957 206.977C134.016 207.012 134.086 207.051 134.16 207.086C134.211 207.109 134.25 207.133 134.289 207.148L134.301 207.164L134.332 207.176L134.363 207.191C134.363 207.191 134.391 207.199 134.422 207.223C134.477 207.23 134.52 207.254 134.551 207.281H134.566C134.656 207.328 134.746 207.359 134.812 207.395C134.82 207.402 134.836 207.418 134.859 207.426C134.918 207.449 134.977 207.469 135.031 207.484C135.039 207.484 135.059 207.484 135.09 207.5L135.105 207.516C135.18 207.547 135.254 207.574 135.336 207.59C135.359 207.598 135.383 207.605 135.398 207.605V207.621C135.398 207.621 135.457 207.629 135.488 207.648C135.531 207.672 135.578 207.68 135.629 207.68C135.676 207.703 135.711 207.719 135.758 207.727H135.773C135.824 207.746 135.887 207.762 135.945 207.77C136.109 207.816 136.281 207.852 136.461 207.883H136.508L136.551 207.898C136.68 207.922 136.785 207.926 136.883 207.926C136.906 207.934 136.926 207.941 136.957 207.941H137.086C137.086 207.941 137.113 207.941 137.145 207.957H137.664C137.664 207.957 137.684 207.957 137.707 207.941H137.836C137.836 207.941 137.895 207.941 137.91 207.926H138.023C138.023 207.926 138.066 207.914 138.082 207.914H138.113C138.113 207.914 138.172 207.898 138.203 207.898H138.219C138.219 207.898 138.277 207.883 138.309 207.883L138.336 207.867H138.383C138.383 207.867 138.426 207.844 138.441 207.836H138.457C138.457 207.836 138.488 207.836 138.516 207.824H138.531C138.531 207.824 138.555 207.824 138.578 207.809H138.594C138.594 207.809 138.621 207.809 138.637 207.793H138.652L138.711 207.777L138.758 207.762L138.789 207.746H138.801C138.855 207.727 138.914 207.703 138.977 207.688C138.996 207.664 139.02 207.656 139.051 207.656C139.059 207.648 139.078 207.637 139.094 207.629H139.109L139.141 207.613L139.156 207.598C139.199 207.59 139.246 207.566 139.297 207.539C139.305 207.539 139.32 207.539 139.344 207.523V207.508C139.344 207.508 139.395 207.5 139.402 207.477H139.418L139.434 207.461H139.449L139.461 207.449C139.461 207.449 139.492 207.441 139.508 207.418L139.551 207.387H139.566L139.613 207.344H139.629L139.641 207.328H139.656L139.719 207.266H139.734L139.746 207.254C139.746 207.254 139.824 207.191 139.875 207.156C139.875 207.133 139.883 207.125 139.906 207.125L139.988 207.051H140.004V207.035L140.016 207.02H140.031L140.121 206.93C140.91 206.129 141.473 205.191 141.816 204.125V196.484C141.816 196.055 141.668 195.687 141.359 195.387C141.051 195.086 140.691 194.93 140.266 194.93L140.406 194.938ZM133.027 211.379C133.02 211.438 133.012 211.504 133.012 211.578L133.059 211.863C133.102 212.059 133.172 212.246 133.262 212.414C133.344 212.57 133.434 212.711 133.531 212.832C133.605 212.914 133.68 212.996 133.746 213.066C135.211 214.578 137.121 215.336 139.492 215.336H140.398C140.844 215.328 141.211 215.172 141.504 214.871C141.797 214.574 141.953 214.211 141.953 213.785V206.473C140.594 208.453 138.711 209.621 136.305 209.988C135.953 210.043 135.586 210.066 135.227 210.066C134.797 210.066 134.387 210.164 134.004 210.363C133.898 210.418 133.801 210.477 133.703 210.539C133.492 210.68 133.312 210.859 133.172 211.07C133.117 211.145 133.078 211.219 133.043 211.301C133.043 211.324 133.043 211.348 133.027 211.363V211.379Z" fill="black"/>
<path d="M136.996 169.086C135.937 170.742 134.633 172.543 133.043 174.395C131.969 175.641 130.914 176.742 129.891 177.719C131.199 179.016 132.578 180.523 133.965 182.262C135.137 183.734 136.141 185.148 137.004 186.492C137.863 185.195 138.871 183.824 140.023 182.406C141.48 180.629 142.926 179.098 144.293 177.785C143.086 176.703 141.773 175.391 140.453 173.824C139.035 172.152 137.902 170.531 137.004 169.078L136.996 169.086Z" fill="#EB1C24" stroke="black" stroke-width="0.5625" stroke-linecap="round" stroke-linejoin="round"/>
<path d="M40.2812 33.0859C41.0547 34.3906 41.4453 35.7812 41.4453 37.2422C41.4453 38.5625 41.1523 39.7852 40.5664 40.9102C39.9844 42.0352 39.1875 42.9805 38.1836 43.7383C37.1758 44.4961 36.0312 44.9883 34.7344 45.2305L34.3867 45.2734C34.043 45.3203 33.6992 45.3359 33.3516 45.3359H21.3359V44.2695L21.7656 44.3008C22.207 44.293 22.5664 44.1367 22.8594 43.8359C23.1523 43.5352 23.3008 43.1758 23.3008 42.7461L23.3164 25.3906C23.2969 24.9492 23.1211 24.582 22.8008 24.2734C22.4922 24.0117 22.1484 23.8867 21.7656 23.8867L21.3359 23.9141V22.8516H33.3516C33.8242 22.8516 34.2734 22.9414 34.7188 23.1211C35.4297 23.4141 35.9844 23.8633 36.3984 24.4766C36.8086 25.0938 37.0117 25.7734 37.0117 26.5234C37.0117 27.207 36.832 27.8438 36.4648 28.4531C36.2266 28.8516 35.918 29.1875 35.5586 29.457C36.4062 29.6992 37.1914 30.0742 37.9258 30.5742C38.9023 31.2422 39.6914 32.082 40.2969 33.0859H40.2812ZM35.5508 27.8672C35.5586 27.8086 35.5664 27.7383 35.5664 27.6641L35.5195 27.3789C35.4766 27.1836 35.4063 26.9961 35.3164 26.832C35.2344 26.6758 35.1445 26.5313 35.0469 26.4141C34.9727 26.3281 34.8984 26.2461 34.8281 26.1797C33.3672 24.6641 31.4531 23.9062 29.0859 23.9062H28.1758C27.7344 23.9141 27.3672 24.0742 27.0742 24.3711C26.7812 24.6719 26.625 25.0312 26.625 25.4609V32.7734C27.9844 30.793 29.8633 29.6211 32.2734 29.2539C32.625 29.2031 32.9922 29.1797 33.3516 29.1797C33.7813 29.1797 34.1914 29.082 34.5742 28.8789C34.6797 28.8281 34.7773 28.7656 34.875 28.707C35.0859 28.5664 35.2656 28.3867 35.4062 28.1758C35.4609 28.1016 35.4961 28.0234 35.5352 27.9414C35.5352 27.9219 35.5352 27.8984 35.5508 27.8828V27.8672ZM28.1719 44.3086H33.3438C35.2266 44.3086 36.8906 43.625 38.332 42.2539C39.0234 41.5391 39.3672 40.6328 39.3672 39.5234V39.4102L39.3516 39.3789V39.2227C39.3516 39.1406 39.3516 39.0586 39.3359 38.9766C39.3359 38.9453 39.3359 38.9063 39.3242 38.8633V38.832C39.3242 38.832 39.3242 38.7734 39.3086 38.7422C39.3008 38.6445 39.2773 38.5625 39.2617 38.4727C39.2617 38.4414 39.2617 38.4062 39.2461 38.3594V38.3438C39.2383 38.3008 39.2266 38.2695 39.2188 38.2344V38.2188C39.2188 38.2188 39.2188 38.1719 39.2031 38.1406C39.2031 38.1211 39.2031 38.0977 39.1875 38.082V38.0664C39.0977 37.7227 38.9766 37.3789 38.8438 37.0312C38.7969 36.8828 38.7383 36.7461 38.6562 36.6055C38.6328 36.5508 38.6094 36.5078 38.5938 36.4609C38.5508 36.3789 38.5195 36.3047 38.4844 36.2461C38.4609 36.2148 38.4531 36.1914 38.4531 36.1836L38.4375 36.1719L38.2812 35.8711L38.2344 35.8086C38.2344 35.8086 38.2109 35.7734 38.2031 35.7656C38.1836 35.7188 38.1602 35.6836 38.1289 35.6367C38.0781 35.5547 38.0156 35.4648 37.957 35.3672C37.9063 35.2852 37.8516 35.2031 37.8008 35.1367L37.7695 35.1055C37.7695 35.1055 37.7266 35.0391 37.6953 34.9922L37.5977 34.8633C37.5977 34.8633 37.5664 34.8203 37.5508 34.8047H37.5391C37.5391 34.8047 37.5313 34.7617 37.5078 34.7461H37.4922C37.4922 34.7461 37.4844 34.707 37.4609 34.6992L37.4492 34.6836C37.4492 34.6836 37.418 34.6406 37.4023 34.625C37.3789 34.5938 37.3594 34.5664 37.3438 34.5508C37.2148 34.3906 37.0781 34.2422 36.9375 34.0938L36.5938 33.7461C36.5312 33.6875 36.4727 33.6367 36.4219 33.5898C36.3672 33.5469 36.3086 33.5 36.2461 33.4336L36.1719 33.3594C36.1719 33.3594 36.1289 33.3125 36.0977 33.2969C36.0156 33.2227 35.9258 33.1484 35.8281 33.0781C35.7656 33.0273 35.6992 32.9844 35.625 32.9375C35.5273 32.8555 35.4297 32.7812 35.3242 32.7188C35.2969 32.6992 35.2734 32.6836 35.2656 32.6758H35.25L35.2031 32.6289H35.1914C35.1914 32.6289 35.1602 32.5937 35.1289 32.5859C35.0781 32.5391 35.0156 32.5117 34.957 32.4727C34.9063 32.4414 34.8438 32.4062 34.7852 32.3594C34.7617 32.3359 34.7383 32.3242 34.7109 32.3164L34.6797 32.3008C34.6797 32.3008 34.6484 32.293 34.6211 32.2695C34.5586 32.2344 34.4922 32.1953 34.418 32.1562C34.3633 32.1367 34.3281 32.1133 34.2891 32.0977L34.2734 32.082L34.2461 32.0664L34.2148 32.0508C34.2148 32.0508 34.1836 32.0469 34.1562 32.0234C34.1016 32.0156 34.0586 31.9922 34.0273 31.9609H34.0117C33.9219 31.918 33.832 31.8867 33.7656 31.8516C33.7578 31.8438 33.7422 31.8281 33.7188 31.8203C33.6602 31.7969 33.6016 31.7734 33.5469 31.7617C33.5391 31.7617 33.5156 31.7617 33.4883 31.7461L33.4727 31.7305C33.3984 31.6992 33.3242 31.6719 33.2383 31.6562C33.2188 31.6484 33.1953 31.6406 33.1797 31.6406V31.625C33.1797 31.625 33.1211 31.6172 33.0898 31.5938C33.0469 31.5742 33 31.5664 32.9492 31.5664C32.9023 31.543 32.8633 31.5273 32.8203 31.5195H32.8047C32.7539 31.4961 32.6914 31.4844 32.6328 31.4766C32.4688 31.4297 32.2969 31.3906 32.1133 31.3633H32.0703L32.0234 31.3477C31.8984 31.3242 31.793 31.3164 31.6953 31.3164C31.6719 31.3086 31.6484 31.3008 31.6211 31.3008H31.4922C31.4922 31.3008 31.4609 31.3008 31.4336 31.2891H30.9141C30.9141 31.2891 30.8906 31.2891 30.8711 31.3008H30.7422C30.7422 31.3008 30.6836 31.3008 30.668 31.3164H30.5547C30.5547 31.3164 30.5117 31.332 30.4961 31.332H30.4648C30.4648 31.332 30.4062 31.3477 30.375 31.3477H30.3594C30.3594 31.3477 30.3008 31.3633 30.2695 31.3633L30.2383 31.3789H30.1953C30.1953 31.3789 30.1484 31.3984 30.1367 31.4062H30.1211C30.1211 31.4062 30.0898 31.4062 30.0586 31.4219H30.0469C30.0469 31.4219 30.0234 31.4219 30 31.4375H29.9844C29.9844 31.4375 29.9531 31.4375 29.9414 31.4531H29.9258L29.8633 31.4688L29.8203 31.4844L29.7891 31.4961H29.7734C29.7227 31.5195 29.6641 31.543 29.6016 31.5586C29.5781 31.5781 29.5586 31.5859 29.5273 31.5859C29.5195 31.5937 29.4961 31.6094 29.4844 31.6172H29.4688L29.4375 31.6328L29.4219 31.6484C29.3789 31.6562 29.332 31.6758 29.2812 31.707C29.2734 31.707 29.2578 31.707 29.2344 31.7227V31.7383C29.2344 31.7383 29.1836 31.7461 29.1758 31.7656H29.1602L29.1445 31.7812H29.1289L29.1133 31.7969C29.1133 31.7969 29.0859 31.8047 29.0703 31.8281L29.0234 31.8594H29.0117L28.9648 31.9023H28.9492L28.9336 31.918H28.9219L28.8594 31.9766H28.8438L28.8281 31.9922C28.8281 31.9922 28.7539 32.0508 28.7031 32.0898C28.7031 32.1133 28.6953 32.1211 28.6719 32.1211L28.5898 32.1953H28.5742V32.2109L28.5586 32.2266H28.5469L28.4531 32.3164C27.668 33.1172 27.1055 34.0547 26.7617 35.1211V42.7617C26.7617 43.1914 26.9102 43.5586 27.2188 43.8594C27.5234 44.1562 27.8867 44.3164 28.3125 44.3164L28.1719 44.3086Z" fill="black"/>
<path d="M31.4609 52.7539C30.4062 54.4102 29.1016 56.211 27.5117 58.0625C26.4375 59.3086 25.3789 60.4101 24.3594 61.3867C25.6641 62.6836 27.0469 64.1914 28.4336 65.9297C29.6016 67.3984 30.6094 68.8164 31.4688 70.1602C32.332 68.8633 33.3359 67.4883 34.4922 66.0742C35.9492 64.2969 37.3945 62.7656 38.7617 61.4531C37.5508 60.3711 36.2383 59.0586 34.9219 57.4922C33.5039 55.8203 32.3711 54.1992 31.4688 52.7461L31.4609 52.7539Z" fill="#EB1C24" stroke="black" stroke-width="0.5625" stroke-linecap="round" stroke-linejoin="round"/>
<path d="M136.266 139.699C135.961 143.059 135.652 146.422 135.344 149.781C134.609 149.797 133.41 149.719 132.113 149.105C131.559 148.844 131.109 148.535 130.746 148.258C130.727 146.008 130.711 143.758 130.688 141.508C132.059 141.477 133.207 141.363 134.062 141.262C134.738 141.176 135.375 141.066 135.832 140.555C136.094 140.262 136.207 139.934 136.262 139.707L136.266 139.699Z" fill="white" stroke="black" stroke-width="0.5625" stroke-linecap="round" stroke-linejoin="round"/>
<path d="M96.3516 95.3009C95.6485 95.7345 95.6758 96.3126 94.8672 96.8986C94.4024 97.2267 93.9454 97.3634 93.7188 97.4142C92.879 97.6095 92.0938 97.4142 91.5587 97.2892C91.4102 97.2501 91.2891 97.2188 91.2149 97.1993C87.2462 96.0274 84.6016 95.2462 82.3633 92.6603C81.6524 91.8439 80.5782 90.672 80.1368 88.8634C79.8985 87.8673 79.9063 86.9376 79.7188 86.9298C79.4532 86.9142 79.1641 88.6915 79.0586 89.3517C78.336 93.7384 79.1915 95.0236 79.5001 95.4337C79.5977 95.5626 79.6641 95.6524 79.7774 95.7579C80.3008 96.2891 81.3282 96.8516 85.3712 98.547C88.1094 99.6954 91.4844 101.047 95.1602 101.137C95.8868 101.149 96.8711 101.156 97.4766 100.512C98.1524 99.7931 98.0782 98.5938 97.9883 97.1524C97.9258 96.2462 97.7852 95.504 97.6563 94.9845C97.0196 94.9845 96.6133 95.1642 96.3751 95.3087L96.3516 95.3009Z" fill="black" stroke="black" stroke-width="0.5625" stroke-linecap="round" stroke-linejoin="round"/>
<path d="M91.3946 94.5938C92.1524 95.1485 94.4922 92.6133 96.7969 92.6094C97.0039 92.6094 97.7188 92.6094 97.9258 92.9961C98.1133 93.3438 97.7774 93.7188 97.9258 93.8516C98.168 94.0547 99.336 93.4766 99.4141 92.6289C99.4141 92.6133 99.4141 92.6016 99.4141 92.586C99.4258 92.2461 99.3086 91.5039 98.5664 89.7344C98.0625 89.7734 97.5586 89.8086 97.0508 89.8477C95.3242 90.4024 94.0117 91.0547 93.1289 91.5664C92.0391 92.1875 91.4336 92.6758 91.2539 93.4258C91.2227 93.5508 91.0352 94.3399 91.3946 94.5938Z" fill="black" stroke="black" stroke-width="0.5625" stroke-linecap="round" stroke-linejoin="round"/>
<path d="M65.4687 159.711C65.0234 159.336 64.3867 158.711 63.8789 157.805C63.0469 156.328 63 154.918 62.9687 154.297C62.8789 152.375 62.5195 149.594 61.6406 145.266" stroke="black" stroke-width="0.5625" stroke-linecap="round" stroke-linejoin="round"/>
<path d="M73.125 159.824C72.8789 159.41 72.5313 158.789 72.1641 158.016C70.0664 153.539 70.1758 149.555 70.1484 146.75C70.1094 143.523 69.8477 139.016 68.8711 133.25" stroke="black" stroke-width="0.5625" stroke-linecap="round" stroke-linejoin="round"/>
<path d="M69.7266 160.461C69.3242 160.145 68.6406 159.531 68.1602 158.523C67.8359 157.852 67.7188 157.234 67.6641 156.801" stroke="black" stroke-width="0.5625" stroke-linecap="round" stroke-linejoin="round"/>
<path d="M65.3711 169.609C64.8281 171.824 64.3281 174.125 63.8867 176.512C62.3711 184.633 61.8008 192.184 61.7617 198.941" stroke="black" stroke-width="0.5625" stroke-linecap="round" stroke-linejoin="round"/>
<path d="M72.5938 170.562C72.1367 175.168 71.6719 179.773 71.2109 184.387" stroke="black" stroke-width="0.5625" stroke-linecap="round" stroke-linejoin="round"/>
<path d="M100.801 158.871C102.059 157.934 102.676 156.965 102.996 156.32C103.648 155.008 103.59 153.996 103.844 150.508C103.949 149.074 104.062 147.922 104.129 147.246" stroke="black" stroke-width="0.5625" stroke-linecap="round" stroke-linejoin="round"/>
<path d="M98.0703 169.941C99.0898 174.273 100.02 178.941 100.785 183.906C101.289 187.152 101.676 190.289 101.984 193.309" stroke="black" stroke-width="0.5625" stroke-linecap="round" stroke-linejoin="round"/>
<path d="M102.148 169.496C102.609 171.102 103.043 172.828 103.426 174.672C103.867 176.801 104.191 178.82 104.414 180.695" stroke="black" stroke-width="0.5625" stroke-linecap="round" stroke-linejoin="round"/>
<path d="M129.539 79.9414H127.957V120.988H129.539V79.9414Z" fill="white" stroke="black" stroke-width="0.5625" stroke-linecap="round" stroke-linejoin="round"/>
<path d="M118.566 71.3828C117.863 71.7109 116.676 72.3359 115.469 73.3984C109.605 78.5469 108.269 89.3008 112.719 96.7188C113.574 98.1484 115.289 100.535 118.574 102.637" stroke="black" stroke-width="0.5625" stroke-linecap="round" stroke-linejoin="round"/>
<defs>
<linearGradient id="paint0_linear_2321_5102" x1="157.74" y1="49.6175" x2="11.1" y2="49.6175" gradientUnits="userSpaceOnUse">
<stop stop-color="#8F8587"/>
<stop offset="0.00390625" stop-color="#908688"/>
<stop offset="0.0078125" stop-color="#918789"/>
<stop offset="0.0117187" stop-color="#92888A"/>
<stop offset="0.015625" stop-color="#92898B"/>
<stop offset="0.0195312" stop-color="#938A8B"/>
<stop offset="0.0234375" stop-color="#948B8C"/>
<stop offset="0.0273438" stop-color="#958C8D"/>
<stop offset="0.03125" stop-color="#968D8E"/>
<stop offset="0.0351562" stop-color="#978D8F"/>
<stop offset="0.0390625" stop-color="#988E90"/>
<stop offset="0.0429687" stop-color="#988F91"/>
<stop offset="0.046875" stop-color="#999092"/>
<stop offset="0.0507812" stop-color="#9A9193"/>
<stop offset="0.0546875" stop-color="#9B9294"/>
<stop offset="0.0585937" stop-color="#9C9395"/>
<stop offset="0.0625" stop-color="#9D9496"/>
<stop offset="0.0664062" stop-color="#9D9596"/>
<stop offset="0.0703125" stop-color="#9E9697"/>
<stop offset="0.0742187" stop-color="#9F9798"/>
<stop offset="0.078125" stop-color="#A09899"/>
<stop offset="0.0820312" stop-color="#A1999A"/>
<stop offset="0.0859375" stop-color="#A2999B"/>
<stop offset="0.0898437" stop-color="#A39A9C"/>
<stop offset="0.09375" stop-color="#A39B9D"/>
<stop offset="0.0976562" stop-color="#A49C9E"/>
<stop offset="0.101562" stop-color="#A59D9F"/>
<stop offset="0.105469" stop-color="#A69EA0"/>
<stop offset="0.109375" stop-color="#A79FA0"/>
<stop offset="0.113281" stop-color="#A8A0A1"/>
<stop offset="0.117187" stop-color="#A8A1A2"/>
<stop offset="0.121094" stop-color="#A9A2A3"/>
<stop offset="0.125" stop-color="#AAA3A4"/>
<stop offset="0.128906" stop-color="#ABA4A5"/>
<stop offset="0.132812" stop-color="#ACA5A6"/>
<stop offset="0.136719" stop-color="#ADA5A7"/>
<stop offset="0.140625" stop-color="#AEA6A8"/>
<stop offset="0.144531" stop-color="#AEA7A9"/>
<stop offset="0.148437" stop-color="#AFA8AA"/>
<stop offset="0.152344" stop-color="#B0A9AB"/>
<stop offset="0.15625" stop-color="#B1AAAB"/>
<stop offset="0.160156" stop-color="#B2ABAC"/>
<stop offset="0.164062" stop-color="#B3ACAD"/>
<stop offset="0.167969" stop-color="#B3ADAE"/>
<stop offset="0.171875" stop-color="#B4AEAF"/>
<stop offset="0.175781" stop-color="#B5AFB0"/>
<stop offset="0.179687" stop-color="#B6B0B1"/>
<stop offset="0.183594" stop-color="#B7B1B2"/>
<stop offset="0.1875" stop-color="#B8B2B3"/>
<stop offset="0.191406" stop-color="#B9B2B4"/>
<stop offset="0.195312" stop-color="#B9B3B5"/>
<stop offset="0.199219" stop-color="#BAB4B5"/>
<stop offset="0.203125" stop-color="#BBB5B6"/>
<stop offset="0.207031" stop-color="#BCB6B7"/>
<stop offset="0.210937" stop-color="#BDB7B8"/>
<stop offset="0.214844" stop-color="#BEB8B9"/>
<stop offset="0.21875" stop-color="#BEB9BA"/>
<stop offset="0.222656" stop-color="#BFBABB"/>
<stop offset="0.226562" stop-color="#C0BBBC"/>
<stop offset="0.230469" stop-color="#C1BCBD"/>
<stop offset="0.234375" stop-color="#C2BDBE"/>
<stop offset="0.238281" stop-color="#C3BEBF"/>
<stop offset="0.242187" stop-color="#C3BEBF"/>
<stop offset="0.246094" stop-color="#C4BFC0"/>
<stop offset="0.25" stop-color="#C5C0C1"/>
<stop offset="0.253906" stop-color="#C6C1C2"/>
<stop offset="0.257812" stop-color="#C6C2C3"/>
<stop offset="0.261719" stop-color="#C7C3C3"/>
<stop offset="0.265625" stop-color="#C8C3C4"/>
<stop offset="0.269531" stop-color="#C9C4C5"/>
<stop offset="0.273437" stop-color="#C9C5C6"/>
<stop offset="0.277344" stop-color="#CAC6C7"/>
<stop offset="0.28125" stop-color="#CBC7C7"/>
<stop offset="0.285156" stop-color="#CCC7C8"/>
<stop offset="0.289062" stop-color="#CCC8C9"/>
<stop offset="0.292969" stop-color="#CDC9CA"/>
<stop offset="0.296875" stop-color="#CECACB"/>
<stop offset="0.300781" stop-color="#CFCBCB"/>
<stop offset="0.304687" stop-color="#CFCCCC"/>
<stop offset="0.308594" stop-color="#D0CCCD"/>
<stop offset="0.3125" stop-color="#D1CDCE"/>
<stop offset="0.316406" stop-color="#D2CECF"/>
<stop offset="0.320312" stop-color="#D2CFCF"/>
<stop offset="0.324219" stop-color="#D3D0D0"/>
<stop offset="0.328125" stop-color="#D4D0D1"/>
<stop offset="0.332031" stop-color="#D5D1D2"/>
<stop offset="0.335937" stop-color="#D5D2D3"/>
<stop offset="0.339844" stop-color="#D6D3D3"/>
<stop offset="0.34375" stop-color="#D7D4D4"/>
<stop offset="0.347656" stop-color="#D8D5D5"/>
<stop offset="0.351562" stop-color="#D8D5D6"/>
<stop offset="0.355469" stop-color="#D9D6D7"/>
<stop offset="0.359375" stop-color="#DAD7D7"/>
<stop offset="0.363281" stop-color="#DBD8D8"/>
<stop offset="0.367187" stop-color="#DBD9D9"/>
<stop offset="0.371094" stop-color="#DCDADA"/>
<stop offset="0.375" stop-color="#DDDADB"/>
<stop offset="0.378906" stop-color="#DEDBDB"/>
<stop offset="0.382812" stop-color="#DEDCDC"/>
<stop offset="0.386719" stop-color="#DFDDDD"/>
<stop offset="0.390625" stop-color="#E0DEDE"/>
<stop offset="0.394531" stop-color="#E1DEDF"/>
<stop offset="0.398437" stop-color="#E1DFE0"/>
<stop offset="0.402344" stop-color="#E2E0E0"/>
<stop offset="0.40625" stop-color="#E3E1E1"/>
<stop offset="0.410156" stop-color="#E4E2E2"/>
<stop offset="0.414062" stop-color="#E4E3E3"/>
<stop offset="0.417969" stop-color="#E5E3E4"/>
<stop offset="0.421875" stop-color="#E6E4E4"/>
<stop offset="0.425781" stop-color="#E6E5E5"/>
<stop offset="0.429687" stop-color="#E7E6E6"/>
<stop offset="0.433594" stop-color="#E8E7E7"/>
<stop offset="0.4375" stop-color="#E9E7E8"/>
<stop offset="0.441406" stop-color="#E9E8E8"/>
<stop offset="0.445312" stop-color="#EAE9E9"/>
<stop offset="0.449219" stop-color="#EBEAEA"/>
<stop offset="0.453125" stop-color="#ECEBEB"/>
<stop offset="0.457031" stop-color="#ECEBEB"/>
<stop offset="0.460937" stop-color="#EDECEC"/>
<stop offset="0.464844" stop-color="#EDECEC"/>
<stop offset="0.46875" stop-color="#EEEDED"/>
<stop offset="0.472656" stop-color="#EEEEEE"/>
<stop offset="0.476562" stop-color="#EFEEEE"/>
<stop offset="0.480469" stop-color="#EFEFEF"/>
<stop offset="0.484375" stop-color="#F0EFEF"/>
<stop offset="0.488281" stop-color="#F1F0F0"/>
<stop offset="0.492187" stop-color="#F1F1F1"/>
<stop offset="0.496094" stop-color="#F2F1F1"/>
<stop offset="0.5" stop-color="#F2F2F2"/>
<stop offset="0.503906" stop-color="#F3F2F2"/>
<stop offset="0.507812" stop-color="#F3F3F3"/>
<stop offset="0.511719" stop-color="#F4F4F4"/>
<stop offset="0.515625" stop-color="#F5F4F4"/>
<stop offset="0.519531" stop-color="#F5F5F5"/>
<stop offset="0.523438" stop-color="#F6F5F5"/>
<stop offset="0.527344" stop-color="#F6F6F6"/>
<stop offset="0.53125" stop-color="#F7F7F7"/>
<stop offset="0.535156" stop-color="#F7F7F7"/>
<stop offset="0.539062" stop-color="#F8F8F8"/>
<stop offset="0.542969" stop-color="#F8F8F8"/>
<stop offset="0.546875" stop-color="#F9F9F9"/>
<stop offset="0.550781" stop-color="#FAFAFA"/>
<stop offset="0.554688" stop-color="#FAFAFA"/>
<stop offset="0.5625" stop-color="#FBFBFB"/>
<stop offset="0.625" stop-color="#FBFBFB"/>
<stop offset="0.75" stop-color="#FBFBFB"/>
<stop offset="1" stop-color="#FBFBFB"/>
</linearGradient>
<linearGradient id="paint1_linear_2321_5102" x1="10.9501" y1="188.608" x2="157.665" y2="188.608" gradientUnits="userSpaceOnUse">
<stop stop-color="#8F8587"/>
<stop offset="0.00390625" stop-color="#908688"/>
<stop offset="0.0078125" stop-color="#918789"/>
<stop offset="0.0117187" stop-color="#91888A"/>
<stop offset="0.015625" stop-color="#92898A"/>
<stop offset="0.0195313" stop-color="#938A8B"/>
<stop offset="0.0234375" stop-color="#948A8C"/>
<stop offset="0.0273438" stop-color="#958B8D"/>
<stop offset="0.03125" stop-color="#968C8E"/>
<stop offset="0.0351562" stop-color="#968D8F"/>
<stop offset="0.0390625" stop-color="#978E90"/>
<stop offset="0.0429688" stop-color="#988F91"/>
<stop offset="0.046875" stop-color="#999091"/>
<stop offset="0.0507813" stop-color="#9A9192"/>
<stop offset="0.0546875" stop-color="#9A9293"/>
<stop offset="0.0585938" stop-color="#9B9294"/>
<stop offset="0.0625" stop-color="#9C9395"/>
<stop offset="0.0664062" stop-color="#9D9496"/>
<stop offset="0.0703125" stop-color="#9E9597"/>
<stop offset="0.0742188" stop-color="#9E9698"/>
<stop offset="0.078125" stop-color="#9F9798"/>
<stop offset="0.0820312" stop-color="#A09899"/>
<stop offset="0.0859375" stop-color="#A1999A"/>
<stop offset="0.0898438" stop-color="#A29A9B"/>
<stop offset="0.09375" stop-color="#A39A9C"/>
<stop offset="0.0976563" stop-color="#A39B9D"/>
<stop offset="0.101563" stop-color="#A49C9E"/>
<stop offset="0.105469" stop-color="#A59D9F"/>
<stop offset="0.109375" stop-color="#A69E9F"/>
<stop offset="0.113281" stop-color="#A79FA0"/>
<stop offset="0.117188" stop-color="#A7A0A1"/>
<stop offset="0.121094" stop-color="#A8A1A2"/>
<stop offset="0.125" stop-color="#A9A2A3"/>
<stop offset="0.128906" stop-color="#AAA2A4"/>
<stop offset="0.132812" stop-color="#ABA3A5"/>
<stop offset="0.136719" stop-color="#ABA4A6"/>
<stop offset="0.140625" stop-color="#ACA5A6"/>
<stop offset="0.144531" stop-color="#ADA6A7"/>
<stop offset="0.148438" stop-color="#AEA7A8"/>
<stop offset="0.152344" stop-color="#AFA8A9"/>
<stop offset="0.15625" stop-color="#B0A9AA"/>
<stop offset="0.160156" stop-color="#B0AAAB"/>
<stop offset="0.164063" stop-color="#B1AAAC"/>
<stop offset="0.167969" stop-color="#B2ABAD"/>
<stop offset="0.171875" stop-color="#B3ACAD"/>
<stop offset="0.175781" stop-color="#B4ADAE"/>
<stop offset="0.179688" stop-color="#B4AEAF"/>
<stop offset="0.183594" stop-color="#B5AFB0"/>
<stop offset="0.1875" stop-color="#B6B0B1"/>
<stop offset="0.191406" stop-color="#B7B1B2"/>
<stop offset="0.195312" stop-color="#B8B2B3"/>
<stop offset="0.199219" stop-color="#B9B2B4"/>
<stop offset="0.203125" stop-color="#B9B3B4"/>
<stop offset="0.207031" stop-color="#BAB4B5"/>
<stop offset="0.210938" stop-color="#BBB5B6"/>
<stop offset="0.214844" stop-color="#BCB6B7"/>
<stop offset="0.21875" stop-color="#BDB7B8"/>
<stop offset="0.222656" stop-color="#BDB8B9"/>
<stop offset="0.226562" stop-color="#BEB9BA"/>
<stop offset="0.230469" stop-color="#BFBABB"/>
<stop offset="0.234375" stop-color="#C0BABB"/>
<stop offset="0.238281" stop-color="#C1BBBC"/>
<stop offset="0.242188" stop-color="#C1BCBD"/>
<stop offset="0.246094" stop-color="#C2BDBE"/>
<stop offset="0.25" stop-color="#C3BEBF"/>
<stop offset="0.253906" stop-color="#C4BFC0"/>
<stop offset="0.257812" stop-color="#C5C0C1"/>
<stop offset="0.261719" stop-color="#C5C0C1"/>
<stop offset="0.265625" stop-color="#C6C1C2"/>
<stop offset="0.269531" stop-color="#C7C2C3"/>
<stop offset="0.273437" stop-color="#C8C3C4"/>
<stop offset="0.277344" stop-color="#C8C4C5"/>
<stop offset="0.28125" stop-color="#C9C5C5"/>
<stop offset="0.285156" stop-color="#CAC5C6"/>
<stop offset="0.289062" stop-color="#CBC6C7"/>
<stop offset="0.292969" stop-color="#CBC7C8"/>
<stop offset="0.296875" stop-color="#CCC8C9"/>
<stop offset="0.300781" stop-color="#CDC9C9"/>
<stop offset="0.304688" stop-color="#CDC9CA"/>
<stop offset="0.308594" stop-color="#CECACB"/>
<stop offset="0.3125" stop-color="#CFCBCC"/>
<stop offset="0.316406" stop-color="#D0CCCD"/>
<stop offset="0.320312" stop-color="#D0CDCD"/>
<stop offset="0.324219" stop-color="#D1CECE"/>
<stop offset="0.328125" stop-color="#D2CECF"/>
<stop offset="0.332031" stop-color="#D3CFD0"/>
<stop offset="0.335938" stop-color="#D3D0D1"/>
<stop offset="0.339844" stop-color="#D4D1D1"/>
<stop offset="0.34375" stop-color="#D5D2D2"/>
<stop offset="0.347656" stop-color="#D6D2D3"/>
<stop offset="0.351562" stop-color="#D6D3D4"/>
<stop offset="0.355469" stop-color="#D7D4D5"/>
<stop offset="0.359375" stop-color="#D8D5D5"/>
<stop offset="0.363281" stop-color="#D9D6D6"/>
<stop offset="0.367188" stop-color="#D9D7D7"/>
<stop offset="0.371094" stop-color="#DAD7D8"/>
<stop offset="0.375" stop-color="#DBD8D9"/>
<stop offset="0.378906" stop-color="#DCD9D9"/>
<stop offset="0.382813" stop-color="#DCDADA"/>
<stop offset="0.386719" stop-color="#DDDBDB"/>
<stop offset="0.390625" stop-color="#DEDCDC"/>
<stop offset="0.394531" stop-color="#DFDCDD"/>
<stop offset="0.398438" stop-color="#DFDDDD"/>
<stop offset="0.402344" stop-color="#E0DEDE"/>
<stop offset="0.40625" stop-color="#E1DFDF"/>
<stop offset="0.410156" stop-color="#E2E0E0"/>
<stop offset="0.414063" stop-color="#E2E0E1"/>
<stop offset="0.417969" stop-color="#E3E1E1"/>
<stop offset="0.421875" stop-color="#E4E2E2"/>
<stop offset="0.425781" stop-color="#E5E3E3"/>
<stop offset="0.429688" stop-color="#E5E4E4"/>
<stop offset="0.433594" stop-color="#E6E5E5"/>
<stop offset="0.4375" stop-color="#E7E5E5"/>
<stop offset="0.441406" stop-color="#E8E6E6"/>
<stop offset="0.445312" stop-color="#E8E7E7"/>
<stop offset="0.449219" stop-color="#E9E8E8"/>
<stop offset="0.453125" stop-color="#EAE9E9"/>
<stop offset="0.457031" stop-color="#EBE9E9"/>
<stop offset="0.460938" stop-color="#EBEAEA"/>
<stop offset="0.464844" stop-color="#ECEBEB"/>
<stop offset="0.46875" stop-color="#ECEBEB"/>
<stop offset="0.472656" stop-color="#EDECEC"/>
<stop offset="0.476562" stop-color="#EDEDED"/>
<stop offset="0.480469" stop-color="#EEEDED"/>
<stop offset="0.484375" stop-color="#EFEEEE"/>
<stop offset="0.488281" stop-color="#EFEEEE"/>
<stop offset="0.492188" stop-color="#F0EFEF"/>
<stop offset="0.496094" stop-color="#F0F0F0"/>
<stop offset="0.5" stop-color="#F1F0F0"/>
<stop offset="0.503906" stop-color="#F1F1F1"/>
<stop offset="0.507813" stop-color="#F2F1F1"/>
<stop offset="0.511719" stop-color="#F3F2F2"/>
<stop offset="0.515625" stop-color="#F3F3F3"/>
<stop offset="0.519531" stop-color="#F4F3F3"/>
<stop offset="0.523438" stop-color="#F4F4F4"/>
<stop offset="0.527344" stop-color="#F5F4F4"/>
<stop offset="0.53125" stop-color="#F5F5F5"/>
<stop offset="0.535156" stop-color="#F6F6F6"/>
<stop offset="0.539063" stop-color="#F6F6F6"/>
<stop offset="0.542969" stop-color="#F7F7F7"/>
<stop offset="0.546875" stop-color="#F8F7F7"/>
<stop offset="0.550781" stop-color="#F8F8F8"/>
<stop offset="0.554688" stop-color="#F9F9F9"/>
<stop offset="0.558594" stop-color="#F9F9F9"/>
<stop offset="0.5625" stop-color="#FAFAFA"/>
<stop offset="0.566406" stop-color="#FAFAFA"/>
<stop offset="0.570313" stop-color="#FBFBFB"/>
<stop offset="0.578125" stop-color="#FBFBFB"/>
<stop offset="0.59375" stop-color="#FBFBFB"/>
<stop offset="0.625" stop-color="#FBFBFB"/>
<stop offset="0.75" stop-color="#FBFBFB"/>
<stop offset="1" stop-color="#FBFBFB"/>
</linearGradient>
</defs>
</svg>
