<svg width="169" height="239" viewBox="0 0 169 239" fill="none" xmlns="http://www.w3.org/2000/svg">
<path d="M162.953 238.422H6.43359C3.11328 238.422 0.421875 235.707 0.421875 232.363V6.79297C0.421875 3.44922 3.11328 0.734375 6.43359 0.734375H162.953C166.273 0.734375 168.969 3.44922 168.969 6.79297V232.363C168.969 235.707 166.273 238.422 162.953 238.422Z" fill="white"/>
<mask id="mask0_2321_5103" style="mask-type:luminance" maskUnits="userSpaceOnUse" x="11" y="10" width="148" height="79">
<path d="M11 10H159V89H11V10Z" fill="white"/>
</mask>
<g mask="url(#mask0_2321_5103)">
<mask id="mask1_2321_5103" style="mask-type:luminance" maskUnits="userSpaceOnUse" x="11" y="10" width="148" height="79">
<path d="M158.102 88.4766C158.102 62.5781 158.109 36.6719 158.113 10.7734C109.262 10.7734 60.3984 10.7734 11.543 10.7812C11.5195 36.2617 11.4961 61.7383 11.4766 87.2148C14.0391 75.7773 19.2148 58.9102 29.0859 49.9023C36.6367 43.0156 40.4102 39.5664 43.3633 38.1875C44.7383 37.543 49.125 35.6445 52.7539 31.2109C53.4297 30.3945 53.918 29.6758 54.2266 29.1953C54.5391 29.6133 55.7539 31.168 57.4258 31.1992C59.6016 31.2344 62.0312 28.6836 62.1523 24.8438C62.4062 25.4141 64.5469 29.9609 69.4062 30.9883C71.7461 31.4844 73.7109 30.957 74.7227 30.5977C75.3828 30.0508 76.2617 29.2031 77.0625 27.9883C77.8516 26.7969 78.2773 25.6758 78.5234 24.8672H91.0742C91.1484 25.332 91.7539 28.7617 94.875 30.4688C97.9258 32.1406 101.023 30.8672 101.977 30.4844C105.27 29.1562 106.664 26.4219 106.973 25.7734C107.715 29.3164 110.191 31.5039 112.363 31.332C112.719 31.3008 113.852 31.1523 115.027 29.832L118.785 32.9609C120.254 33.8281 122.316 35.1133 124.695 36.7773C127.484 38.7266 136.738 45.2969 144.008 54.7383C153.66 67.2812 156.891 81.0859 158.094 88.4609L158.102 88.4766Z" fill="white"/>
</mask>
<g mask="url(#mask1_2321_5103)">
<path d="M11.4766 10.7734V88.4766H158.113V10.7734H11.4766Z" fill="url(#paint0_linear_2321_5103)"/>
</g>
</g>
<path d="M158.488 228.566H11.0156C11.0156 183.238 11.0156 137.906 11.0156 92.5782C11.0156 65.1875 11.0156 37.8047 11.0156 10.4141H158.488C158.488 37.7617 158.488 65.1055 158.488 92.4492C158.488 137.824 158.488 183.191 158.488 228.566Z" stroke="#0E0E0E" stroke-width="0.75" stroke-linecap="round" stroke-linejoin="round"/>
<path d="M84.668 32.8477C84.6133 32.2266 84.3594 30.043 82.5508 28.1914C80.9336 26.5234 79.0273 26.1289 78.375 26.0156C78.4258 25.3633 78.4805 24.7109 78.5312 24.0586C79.3867 23.6602 81.1055 22.7148 82.5312 20.8008C83.9766 18.8594 84.3906 16.9258 84.5234 15.9883C84.8633 17.1563 85.6055 19.1602 87.3008 21.1094C88.6055 22.6094 89.9922 23.5234 90.9531 24.0586C91.0039 24.7109 91.0586 25.3633 91.1094 26.0156C90.6445 26.0586 87.6523 26.4062 85.8516 29.0234C84.7969 30.5664 84.668 32.1406 84.6523 32.8477H84.668Z" fill="white"/>
<path d="M53.4609 22.4063C54.293 22.168 55.6641 21.9063 57.2188 22.2813C58.5742 22.6016 59.4883 23.2618 60.0078 23.6524C64.5664 27.0743 65.2422 29.7266 68.3789 30.9259C68.7812 31.086 71.7148 32.0508 74.6719 30.6719C76.7539 29.6993 78.2383 27.4766 78.4727 25.0704C78.8008 21.6212 76.4024 18.2071 73.6211 17.586C73.2969 17.5118 71.543 17.1212 70.1094 18.1915C69.9297 18.3282 68.8203 19.1837 68.6641 20.6915C68.6406 20.9142 68.461 22.8595 69.9453 23.8009C70.7774 24.3282 71.836 24.3594 72.6758 23.9688C73.8672 23.4219 74.586 22.047 74.3985 20.5782C74.6914 20.8985 75.0977 21.4024 75.4219 22.0938C75.5781 22.4219 76.5977 24.6798 75.6211 26.8477C74.4375 29.4884 71.2031 29.9532 70.7695 30.0118C67.8828 30.4259 64.8828 28.9103 62.918 26.1876" stroke="#0E0E0E" stroke-width="0.75" stroke-linecap="round" stroke-linejoin="round"/>
<path d="M78.5312 23.9687C79.1016 23.6914 79.9961 23.1875 80.9024 22.3633C83.8047 19.7148 84.3359 16.039 84.5781 14.4062C84.7109 13.4844 84.832 12.1094 84.6758 10.4062" stroke="#0E0E0E" stroke-width="0.75" stroke-linecap="round" stroke-linejoin="round"/>
<path d="M78.375 25.9258C79.0859 26.0508 79.8594 26.2774 80.625 26.668C84.082 28.4297 84.5938 32.1211 84.668 32.7578" stroke="#0E0E0E" stroke-width="0.75" stroke-linecap="round" stroke-linejoin="round"/>
<path d="M116.039 22.4063C115.207 22.168 113.836 21.9063 112.281 22.2813C110.926 22.6016 110.012 23.2618 109.492 23.6524C104.934 27.0743 104.258 29.7266 101.121 30.9259C100.719 31.086 97.7852 32.0508 94.8281 30.6719C92.7461 29.6993 91.2617 27.4766 91.0273 25.0704C90.6992 21.6212 93.0977 18.2071 95.8789 17.586C96.2031 17.5118 97.957 17.1212 99.3906 18.1915C99.5703 18.3282 100.68 19.1837 100.836 20.6915C100.859 20.9142 101.039 22.8595 99.5547 23.8009C98.7226 24.3282 97.6641 24.3594 96.8242 23.9688C95.6328 23.4219 94.9141 22.047 95.1016 20.5782C94.8086 20.8985 94.4023 21.4024 94.0781 22.0938C93.9219 22.4219 92.9023 24.6798 93.8789 26.8477C95.0625 29.4884 98.2969 29.9532 98.7305 30.0118C101.617 30.4259 104.617 28.9103 106.582 26.1876" stroke="#0E0E0E" stroke-width="0.75" stroke-linecap="round" stroke-linejoin="round"/>
<path d="M91.125 25.9258C90.4141 26.0508 89.6406 26.2774 88.875 26.668C85.418 28.4297 84.9062 32.1211 84.832 32.7578" stroke="#0E0E0E" stroke-width="0.75" stroke-linecap="round" stroke-linejoin="round"/>
<path d="M115.336 29.2617C115.223 29.5156 114.629 30.8281 113.242 31.2656C111.773 31.7305 110.484 30.875 109.941 30.5156C107.672 29.0078 107.445 26.1367 107.422 25.6719" stroke="#0E0E0E" stroke-width="0.75" stroke-linecap="round" stroke-linejoin="round"/>
<path d="M123.309 36.172C122.664 35.8009 121.754 35.2462 120.734 34.504C117.789 32.3594 115.484 30.6876 114.887 27.9571C114.336 25.4767 115.453 23.3829 115.648 23.0313C117.488 19.7149 121.336 19.168 122.129 19.0782C125.707 18.672 129.336 20.5626 131.609 23.8633" stroke="#0E0E0E" stroke-width="0.75" stroke-linecap="round" stroke-linejoin="round"/>
<path d="M131.113 41.3242C131.152 33.6055 129.262 27.5469 126.27 25.8711C124.734 25.0156 123.172 24.9961 123.172 24.9961C122.656 24.9961 120.039 25.0312 118.379 27.1914C116.902 29.1211 117.27 31.3242 117.336 31.6992" stroke="#0E0E0E" stroke-width="0.75" stroke-linecap="round" stroke-linejoin="round"/>
<path d="M152.242 37.4219C152.633 37.2266 153.879 36.6485 155.219 36.9961C157.613 37.6016 157.883 40.4883 157.898 40.6993C158.039 42.5391 156.914 44.6758 154.77 45.4415C153.121 46.0235 151.531 45.5587 150.684 45.3126C147.938 44.5118 146.43 42.6407 145.68 41.6993C143.281 38.6368 144.449 37.1524 141.988 34.9766C141.324 34.3868 139.973 33.1836 137.902 32.8711C135.75 32.5313 134.863 33.461 132.898 32.9141C130.973 32.3751 129.977 30.9571 129.719 30.5587C129.602 30.379 128.199 28.1211 129.516 25.8516C129.789 25.379 130.59 24.004 132.398 23.6094C134.039 23.254 135.848 23.8555 136.836 25.0313C137.684 26.0391 137.934 27.4532 137.273 28.5782C137.129 28.8282 136.68 29.5938 135.66 29.8985C134.805 30.1563 133.719 30.043 132.969 29.4414C132.309 28.9102 132.188 28.2266 132.164 28.0235" stroke="#0E0E0E" stroke-width="0.75" stroke-linecap="round" stroke-linejoin="round"/>
<path d="M143.535 37.0703C143.219 33.6485 141.473 30.836 138.914 29.9219C138.328 29.711 137.414 29.5039 136.199 29.6524" stroke="#0E0E0E" stroke-width="0.75" stroke-linecap="round" stroke-linejoin="round"/>
<path d="M146.129 42.3789C145.664 42.2617 143.73 41.8086 142.078 42.8907C140.094 44.1953 139.297 47.2188 140.52 50.0821" stroke="#0E0E0E" stroke-width="0.75" stroke-linecap="round" stroke-linejoin="round"/>
<path d="M147.488 52.6838C147.18 52.672 146.543 52.6759 145.867 53.0314C144.773 53.6095 144.414 54.6642 144.344 54.9064" stroke="#0E0E0E" stroke-width="0.75" stroke-linecap="round" stroke-linejoin="round"/>
<path d="M158.477 91.4961C158.461 91.3906 158.445 91.2031 158.414 90.9883C157.828 85.8515 154.523 61.8633 134.797 44.3672C132.344 42.1914 128.543 39.1406 123.309 36.1719" stroke="#0E0E0E" stroke-width="0.75" stroke-linecap="round" stroke-linejoin="round"/>
<path d="M84.668 32.8477C84.6133 32.2266 84.3594 30.043 82.5508 28.1914C80.9336 26.5235 79.0273 26.1289 78.375 26.0156C78.4258 25.3633 78.4805 24.711 78.5313 24.0586C79.3867 23.6602 81.1055 22.7149 82.5313 20.8008C83.9766 18.8594 84.3906 16.9258 84.5235 15.9883C84.8633 17.1563 85.6055 19.1602 87.3008 21.1094C88.6055 22.6094 89.9922 23.5235 90.9531 24.0586C91.0039 24.711 91.0586 25.3633 91.1094 26.0156C90.6445 26.0586 87.6524 26.4063 85.8516 29.0235C84.7969 30.5664 84.668 32.1406 84.6524 32.8477H84.668Z" fill="black" stroke="black" stroke-width="0.5625" stroke-linecap="round" stroke-linejoin="round"/>
<path d="M116.039 22.4063C115.207 22.168 113.836 21.9063 112.281 22.2813C110.926 22.6016 110.012 23.2618 109.492 23.6524C104.934 27.0743 104.258 29.7266 101.121 30.9259C100.719 31.086 97.7852 32.0508 94.8281 30.6719C92.7461 29.6993 91.2617 27.4766 91.0273 25.0704C90.6992 21.6212 93.0977 18.2071 95.8789 17.586C96.2031 17.5118 97.957 17.1212 99.3906 18.1915C99.5703 18.3282 100.68 19.1837 100.836 20.6915C100.859 20.9142 101.039 22.8595 99.5547 23.8009C98.7226 24.3282 97.6641 24.3594 96.8242 23.9688C95.6328 23.4219 94.9141 22.047 95.1016 20.5782C94.8086 20.8985 94.4023 21.4024 94.0781 22.0938C93.9219 22.4219 92.9023 24.6798 93.8789 26.8477C95.0625 29.4884 98.2969 29.9532 98.7305 30.0118C101.617 30.4259 104.617 28.9103 106.582 26.1876" stroke="#0E0E0E" stroke-width="0.75" stroke-linecap="round" stroke-linejoin="round"/>
<path d="M90.9688 23.9687C89.8633 23.4219 89.0938 22.8125 88.5977 22.3633C85.2539 19.3164 84.9297 14.7969 84.8086 13.1289C84.7266 11.9883 84.7734 11.0469 84.8242 10.4062" stroke="#0E0E0E" stroke-width="0.75" stroke-linecap="round" stroke-linejoin="round"/>
<path d="M91.125 25.9258C90.4141 26.0508 89.6406 26.2774 88.875 26.668C85.418 28.4297 84.9062 32.1211 84.832 32.7578" stroke="#0E0E0E" stroke-width="0.75" stroke-linecap="round" stroke-linejoin="round"/>
<path d="M115.336 29.2617C115.223 29.5156 114.629 30.8281 113.242 31.2656C111.773 31.7305 110.484 30.875 109.941 30.5156C107.672 29.0078 107.445 26.1367 107.422 25.6719" stroke="#0E0E0E" stroke-width="0.75" stroke-linecap="round" stroke-linejoin="round"/>
<path d="M123.309 36.172C122.664 35.8009 121.754 35.2462 120.734 34.504C117.789 32.3594 115.484 30.6876 114.887 27.9571C114.336 25.4767 115.453 23.3829 115.648 23.0313C117.488 19.7149 121.336 19.168 122.129 19.0782C125.707 18.672 129.336 20.5626 131.609 23.8633" stroke="#0E0E0E" stroke-width="0.75" stroke-linecap="round" stroke-linejoin="round"/>
<path d="M131.113 41.3242C131.152 33.6055 129.262 27.5469 126.27 25.8711C124.734 25.0156 123.172 24.9961 123.172 24.9961C122.656 24.9961 120.039 25.0312 118.379 27.1914C116.902 29.1211 117.27 31.3242 117.336 31.6992" stroke="#0E0E0E" stroke-width="0.75" stroke-linecap="round" stroke-linejoin="round"/>
<path d="M152.242 37.4219C152.633 37.2266 153.879 36.6485 155.219 36.9961C157.613 37.6016 157.883 40.4883 157.898 40.6993C158.039 42.5391 156.914 44.6758 154.77 45.4415C153.121 46.0235 151.531 45.5587 150.684 45.3126C147.938 44.5118 146.43 42.6407 145.68 41.6993C143.281 38.6368 144.449 37.1524 141.988 34.9766C141.324 34.3868 139.973 33.1836 137.902 32.8711C135.75 32.5313 134.863 33.461 132.898 32.9141C130.973 32.3751 129.977 30.9571 129.719 30.5587C129.602 30.379 128.199 28.1211 129.516 25.8516C129.789 25.379 130.59 24.004 132.398 23.6094C134.039 23.254 135.848 23.8555 136.836 25.0313C137.684 26.0391 137.934 27.4532 137.273 28.5782C137.129 28.8282 136.68 29.5938 135.66 29.8985C134.805 30.1563 133.719 30.043 132.969 29.4414C132.309 28.9102 132.188 28.2266 132.164 28.0235" stroke="#0E0E0E" stroke-width="0.75" stroke-linecap="round" stroke-linejoin="round"/>
<path d="M143.535 37.0703C143.219 33.6485 141.473 30.836 138.914 29.9219C138.328 29.711 137.414 29.5039 136.199 29.6524" stroke="#0E0E0E" stroke-width="0.75" stroke-linecap="round" stroke-linejoin="round"/>
<path d="M158.387 49.1445C157.156 47.039 155.191 45.7265 153.234 45.8437C150.809 45.996 149.387 48.2656 148.77 49.2499C145.305 54.7773 149.012 62.328 149.578 63.4608" stroke="#0E0E0E" stroke-width="0.75" stroke-linecap="round" stroke-linejoin="round"/>
<path d="M158.438 90.8242C157.027 81.1719 152.445 60.0586 134.797 44.375C130.957 40.961 127.035 38.2852 123.309 36.1758" stroke="#0E0E0E" stroke-width="0.75" stroke-linecap="round" stroke-linejoin="round"/>
<mask id="mask2_2321_5103" style="mask-type:luminance" maskUnits="userSpaceOnUse" x="11" y="149" width="148" height="80">
<path d="M11 149H159V229H11V149Z" fill="white"/>
</mask>
<g mask="url(#mask2_2321_5103)">
<mask id="mask3_2321_5103" style="mask-type:luminance" maskUnits="userSpaceOnUse" x="11" y="149" width="148" height="80">
<path d="M11.3242 149.023C11.3477 175.414 11.3633 201.809 11.3867 228.191C60.2461 228.184 109.109 228.172 157.973 228.164C157.996 202.684 158.016 177.207 158.039 151.73C153.188 163.016 145.746 176.773 134.203 190.512C129.75 195.809 125.266 200.426 120.938 204.434C119.738 206.023 118.539 207.605 117.344 209.195C116.664 209.383 115.98 209.562 115.297 209.75C114.984 209.328 113.766 207.777 112.094 207.746C109.922 207.711 107.488 210.262 107.371 214.102C107.113 213.531 104.977 208.984 100.117 207.957C97.7773 207.461 95.8125 207.988 94.8008 208.348C94.1406 208.895 93.2617 209.742 92.4609 210.957C91.6719 212.148 91.2461 213.266 90.9961 214.078H78.4492C78.375 213.613 77.7656 210.184 74.6484 208.477C71.5937 206.801 68.4961 208.078 67.5469 208.461C64.2539 209.789 62.8594 212.523 62.5508 213.172C61.8086 209.629 59.332 207.441 57.1562 207.613C56.8047 207.641 55.6719 207.793 54.4961 209.113C53.2422 208.07 51.9883 207.027 50.7383 205.984C44.918 203.105 34.0781 196.766 24.9844 184.484C14.3477 170.113 11.9922 155.57 11.3398 149.031L11.3242 149.023Z" fill="white"/>
</mask>
<g mask="url(#mask3_2321_5103)">
<path d="M11.3242 149.023V228.191H158.039V149.023H11.3242Z" fill="url(#paint1_linear_2321_5103)"/>
</g>
</g>
<path d="M84.7109 206.301C84.7656 206.922 85.0195 209.105 86.8281 210.957C88.4492 212.621 90.3516 213.02 91.0039 213.133C90.9531 213.785 90.8984 214.437 90.8477 215.09C89.9922 215.488 88.2734 216.434 86.8516 218.344C85.4023 220.289 84.9883 222.223 84.8555 223.16C84.5156 221.988 83.7734 219.988 82.0781 218.039C80.7734 216.539 79.3867 215.621 78.4258 215.09C78.375 214.437 78.3242 213.785 78.2695 213.133C78.7344 213.086 81.7266 212.742 83.5273 210.125C84.5859 208.578 84.7109 207.004 84.7266 206.301H84.7109Z" fill="white"/>
<path d="M115.926 216.738C115.094 216.98 113.723 217.242 112.172 216.867C110.812 216.547 109.898 215.887 109.379 215.496C104.82 212.074 104.145 209.422 101.012 208.219C100.605 208.063 97.6719 207.094 94.7187 208.477C92.6328 209.449 91.1484 211.672 90.9141 214.078C90.5859 217.527 92.9844 220.941 95.7656 221.563C96.0898 221.637 97.8437 222.027 99.2773 220.953C99.457 220.82 100.566 219.965 100.727 218.457C100.746 218.234 100.926 216.289 99.4414 215.344C98.6094 214.82 97.5508 214.789 96.7109 215.18C95.5195 215.727 94.8008 217.102 94.9883 218.57C94.6953 218.246 94.2891 217.746 93.9687 217.055C93.8086 216.727 92.789 214.469 93.7656 212.301C94.9492 209.66 98.1836 209.195 98.6172 209.137C101.504 208.723 104.504 210.238 106.469 212.961" stroke="#0E0E0E" stroke-width="0.75" stroke-linecap="round" stroke-linejoin="round"/>
<path d="M90.8476 215.172C89.789 215.699 89.0156 216.289 88.4765 216.777C85.3632 219.605 84.9062 223.723 84.6914 225.648C84.5468 226.902 84.5625 227.938 84.5937 228.574" stroke="#0E0E0E" stroke-width="0.75" stroke-linecap="round" stroke-linejoin="round"/>
<path d="M91.0039 213.223C90.293 213.094 89.5195 212.871 88.7539 212.48C85.2969 210.719 84.7891 207.027 84.7109 206.391" stroke="#0E0E0E" stroke-width="0.75" stroke-linecap="round" stroke-linejoin="round"/>
<path d="M53.3477 216.738C54.1797 216.98 55.5508 217.242 57.1055 216.867C58.4609 216.547 59.3789 215.887 59.8945 215.496C64.4531 212.074 65.1289 209.422 68.2656 208.219C68.6719 208.063 71.6016 207.094 74.5586 208.477C76.6406 209.449 78.1289 211.672 78.3594 214.078C78.6914 217.527 76.2891 220.941 73.5078 221.563C73.1836 221.637 71.4297 222.027 69.9961 220.953C69.8164 220.82 68.707 219.965 68.5508 218.457C68.5274 218.234 68.3476 216.289 69.832 215.344C70.6641 214.82 71.7226 214.789 72.5625 215.18C73.7539 215.727 74.4766 217.102 74.2891 218.57C74.5781 218.246 74.9844 217.746 75.3086 217.055C75.4648 216.727 76.4844 214.469 75.5117 212.301C74.3242 209.66 71.0937 209.195 70.6562 209.137C67.7695 208.723 64.7695 210.238 62.8047 212.961" stroke="#0E0E0E" stroke-width="0.75" stroke-linecap="round" stroke-linejoin="round"/>
<path d="M78.2617 213.223C78.9453 213.117 79.7266 212.898 80.5117 212.48C83.7227 210.785 84.5547 207.164 84.7109 206.391" stroke="#0E0E0E" stroke-width="0.75" stroke-linecap="round" stroke-linejoin="round"/>
<path d="M54.0508 209.887C54.1641 209.629 54.7578 208.316 56.1445 207.883C57.6133 207.418 58.9063 208.273 59.4453 208.633C61.7188 210.141 61.9414 213.012 61.9649 213.477" stroke="#0E0E0E" stroke-width="0.75" stroke-linecap="round" stroke-linejoin="round"/>
<path d="M46.0781 202.969C46.7265 203.336 47.6328 203.891 48.6523 204.637C51.6016 206.781 53.9023 208.453 54.5039 211.184C55.0508 213.664 53.9336 215.758 53.7383 216.109C51.8984 219.426 48.0508 219.973 47.2578 220.063C43.6797 220.469 40.0508 218.578 37.7773 215.277" stroke="#0E0E0E" stroke-width="0.75" stroke-linecap="round" stroke-linejoin="round"/>
<path d="M38.2734 197.824C38.2344 205.543 40.125 211.602 43.1172 213.273C44.6562 214.129 46.2148 214.152 46.2148 214.152C46.7344 214.152 49.3516 214.113 51.0078 211.953C52.4844 210.027 52.1172 207.824 52.0508 207.449" stroke="#0E0E0E" stroke-width="0.75" stroke-linecap="round" stroke-linejoin="round"/>
<path d="M17.1446 201.727C16.7539 201.922 15.5118 202.496 14.168 202.152C11.7735 201.547 11.5039 198.656 11.4883 198.449C11.3477 196.61 12.4727 194.473 14.6172 193.707C16.2657 193.121 17.8594 193.586 18.7032 193.836C21.4493 194.637 22.9571 196.504 23.7071 197.449C26.1094 200.512 24.9375 201.996 27.3985 204.172C28.0664 204.762 29.4141 205.961 31.4844 206.277C33.6368 206.613 34.5235 205.684 36.4883 206.235C38.4141 206.774 39.4141 208.192 39.668 208.586C39.7891 208.766 41.1914 211.024 39.8711 213.297C39.6016 213.77 38.7969 215.141 36.9883 215.539C35.3477 215.891 33.5391 215.293 32.5508 214.113C31.7032 213.11 31.4532 211.692 32.1133 210.567C32.2579 210.32 32.7071 209.555 33.7266 209.246C34.5821 208.992 35.6719 209.106 36.4219 209.703C37.0782 210.238 37.1993 210.922 37.2227 211.121" stroke="#0E0E0E" stroke-width="0.75" stroke-linecap="round" stroke-linejoin="round"/>
<path d="M25.8516 202.07C26.168 205.488 27.9141 208.301 30.4727 209.219C31.0586 209.426 31.9727 209.637 33.1875 209.488" stroke="#0E0E0E" stroke-width="0.75" stroke-linecap="round" stroke-linejoin="round"/>
<path d="M23.25 196.766C23.7305 196.887 25.6485 197.324 27.3008 196.258C29.3008 194.953 30.1211 191.93 28.9141 189.051" stroke="#0E0E0E" stroke-width="0.75" stroke-linecap="round" stroke-linejoin="round"/>
<path d="M21.8906 186.461C22.1992 186.477 22.8359 186.469 23.5117 186.117C24.6367 185.523 24.9844 184.422 25.0508 184.199" stroke="#0E0E0E" stroke-width="0.75" stroke-linecap="round" stroke-linejoin="round"/>
<path d="M11.0391 146.879C12.2383 156.539 16.4531 178.617 34.5899 194.781C38.4219 198.191 42.3359 200.871 46.0781 202.977" stroke="#0E0E0E" stroke-width="0.75" stroke-linecap="round" stroke-linejoin="round"/>
<path d="M84.7109 206.301C84.7656 206.922 85.0195 209.105 86.8281 210.957C88.4492 212.621 90.3516 213.02 91.0039 213.133C90.9531 213.785 90.8984 214.437 90.8477 215.09C90.3828 215.301 89.7461 215.629 89.0625 216.148C87.5235 217.324 86.7891 218.703 86.1445 219.949C85.582 221.047 84.8555 222.738 84.4805 224.977C84.4727 223.902 84.3086 220.82 82.0742 218.031C80.8047 216.441 79.3516 215.547 78.4219 215.082C78.3672 214.43 78.3164 213.777 78.2617 213.125C78.7266 213.078 81.7187 212.734 83.5195 210.117C84.5781 208.574 84.7031 206.996 84.7188 206.293L84.7109 206.301Z" fill="black" stroke="black" stroke-width="0.5625" stroke-linecap="round" stroke-linejoin="round"/>
<path d="M53.3477 216.738C54.1797 216.98 55.5508 217.242 57.1055 216.867C58.4609 216.547 59.3789 215.887 59.8945 215.496C64.4531 212.074 65.1289 209.422 68.2656 208.219C68.6719 208.063 71.6016 207.094 74.5586 208.477C76.6406 209.449 78.1289 211.672 78.3594 214.078C78.6914 217.527 76.2891 220.941 73.5078 221.563C73.1836 221.637 71.4297 222.027 69.9961 220.953C69.8164 220.82 68.707 219.965 68.5508 218.457C68.5274 218.234 68.3476 216.289 69.832 215.344C70.6641 214.82 71.7226 214.789 72.5625 215.18C73.7539 215.727 74.4766 217.102 74.2891 218.57C74.5781 218.246 74.9844 217.746 75.3086 217.055C75.4648 216.727 76.4844 214.469 75.5117 212.301C74.3242 209.66 71.0937 209.195 70.6562 209.137C67.7695 208.723 64.7695 210.238 62.8047 212.961" stroke="#0E0E0E" stroke-width="0.75" stroke-linecap="round" stroke-linejoin="round"/>
<path d="M78.4219 215.172C79.043 215.473 79.9141 215.977 80.7891 216.777C82.6406 218.488 83.3086 220.469 83.8281 222.086C84.6289 224.594 84.7109 226.871 84.6016 228.574" stroke="#0E0E0E" stroke-width="0.75" stroke-linecap="round" stroke-linejoin="round"/>
<path d="M78.2617 213.223C78.9453 213.117 79.7266 212.898 80.5117 212.48C83.7539 210.762 84.5625 207.059 84.7109 206.301" stroke="#0E0E0E" stroke-width="0.75" stroke-linecap="round" stroke-linejoin="round"/>
<path d="M54.0508 209.887C54.1641 209.629 54.7578 208.316 56.1445 207.883C57.6133 207.418 58.9063 208.273 59.4453 208.633C61.7188 210.141 61.9414 213.012 61.9649 213.477" stroke="#0E0E0E" stroke-width="0.75" stroke-linecap="round" stroke-linejoin="round"/>
<path d="M46.0781 202.969C46.7265 203.336 47.6328 203.891 48.6523 204.637C51.6016 206.781 53.9023 208.453 54.5039 211.184C55.0508 213.664 53.9336 215.758 53.7383 216.109C51.8984 219.426 48.0508 219.973 47.2578 220.063C43.6797 220.469 40.0508 218.578 37.7773 215.277" stroke="#0E0E0E" stroke-width="0.75" stroke-linecap="round" stroke-linejoin="round"/>
<path d="M38.2734 197.824C38.2344 205.543 40.125 211.602 43.1172 213.273C44.6562 214.129 46.2148 214.152 46.2148 214.152C46.7344 214.152 49.3516 214.113 51.0078 211.953C52.4844 210.027 52.1172 207.824 52.0508 207.449" stroke="#0E0E0E" stroke-width="0.75" stroke-linecap="round" stroke-linejoin="round"/>
<path d="M17.1446 201.727C16.7539 201.922 15.5118 202.496 14.168 202.152C11.7735 201.547 11.5039 198.656 11.4883 198.449C11.3477 196.61 12.4727 194.473 14.6172 193.707C16.2657 193.121 17.8594 193.586 18.7032 193.836C21.4493 194.637 22.9571 196.504 23.7071 197.449C26.1094 200.512 24.9375 201.996 27.3985 204.172C28.0664 204.762 29.4141 205.961 31.4844 206.277C33.6368 206.613 34.5235 205.684 36.4883 206.235C38.4141 206.774 39.4141 208.192 39.668 208.586C39.7891 208.766 41.1914 211.024 39.8711 213.297C39.6016 213.77 38.7969 215.141 36.9883 215.539C35.3477 215.891 33.5391 215.293 32.5508 214.113C31.7032 213.11 31.4532 211.692 32.1133 210.567C32.2579 210.32 32.7071 209.555 33.7266 209.246C34.5821 208.992 35.6719 209.106 36.4219 209.703C37.0782 210.238 37.1993 210.922 37.2227 211.121" stroke="#0E0E0E" stroke-width="0.75" stroke-linecap="round" stroke-linejoin="round"/>
<path d="M25.8516 202.07C26.168 205.488 27.9141 208.301 30.4727 209.219C31.0586 209.426 31.9727 209.637 33.1875 209.488" stroke="#0E0E0E" stroke-width="0.75" stroke-linecap="round" stroke-linejoin="round"/>
<path d="M11.0859 190.137C11.1758 190.289 13.1719 193.484 16.1563 193.297C18.5703 193.145 19.9961 190.879 20.6172 189.891C24.0742 184.371 20.3789 176.809 19.8086 175.676" stroke="#0E0E0E" stroke-width="0.75" stroke-linecap="round" stroke-linejoin="round"/>
<path d="M23.25 196.766C23.7305 196.887 25.6485 197.324 27.3008 196.258C29.3008 194.953 30.1211 191.93 28.9141 189.051" stroke="#0E0E0E" stroke-width="0.75" stroke-linecap="round" stroke-linejoin="round"/>
<path d="M21.8906 186.461C22.1992 186.477 22.8359 186.469 23.5117 186.117C24.6367 185.523 24.9844 184.422 25.0508 184.199" stroke="#0E0E0E" stroke-width="0.75" stroke-linecap="round" stroke-linejoin="round"/>
<path d="M11.0391 146.879C12.2383 156.539 16.4531 178.617 34.5899 194.781C38.4219 198.191 42.3359 200.871 46.0781 202.977" stroke="#0E0E0E" stroke-width="0.75" stroke-linecap="round" stroke-linejoin="round"/>
<path d="M128.469 194.969H125.309V190.844H126.344V191.234C126.344 191.969 126.602 192.59 127.117 193.113C127.629 193.641 128.273 193.918 129.031 193.949H144.891C145.656 193.918 146.297 193.641 146.812 193.121C147.328 192.605 147.594 191.977 147.594 191.234V190.844H148.629V194.969H147.148C145.922 195.043 144.871 195.477 144.016 196.289C143.16 197.09 142.648 198.109 142.492 199.348L142.477 199.836V199.852L142.395 201.215L141.781 212.75V212.891C141.652 214.422 140.887 215.504 139.492 216.141C139.051 216.32 138.602 216.41 138.129 216.41H128.023V215.344L128.445 215.391C128.871 215.367 129.234 215.219 129.516 214.934C129.801 214.648 129.961 214.297 129.984 213.867V196.535C129.984 196.113 129.832 195.754 129.539 195.461C129.246 195.172 128.887 195.004 128.461 194.984L128.469 194.969ZM144.031 194.969H134.836C134.406 194.988 134.047 195.148 133.754 195.449C133.461 195.746 133.312 196.109 133.312 196.52V213.824C133.312 214.039 133.352 214.25 133.441 214.453L133.453 214.484C133.746 215.047 134.211 215.344 134.852 215.375H135.871C137.078 215.375 138.137 214.789 139.066 213.613C139.988 212.434 140.586 210.922 140.852 209.051L141.441 199.781C141.441 199.52 141.465 199.266 141.504 199.012C141.516 198.957 141.523 198.906 141.531 198.852C141.539 198.801 141.555 198.738 141.562 198.68C141.578 198.629 141.586 198.574 141.594 198.523C141.602 198.477 141.613 198.434 141.621 198.379C141.629 198.336 141.645 198.297 141.652 198.254L141.684 198.125C141.691 198.078 141.711 198.051 141.727 198.012C141.734 197.969 141.75 197.93 141.758 197.887C141.781 197.84 141.797 197.801 141.801 197.758C141.809 197.727 141.832 197.691 141.848 197.645C141.855 197.602 141.879 197.562 141.891 197.516C141.914 197.488 141.93 197.449 141.938 197.406C141.961 197.359 141.984 197.328 141.996 197.293C142.004 197.246 142.027 197.219 142.043 197.18C142.066 197.137 142.086 197.098 142.102 197.051C142.125 197.023 142.148 196.984 142.164 196.941C142.172 196.91 142.191 196.871 142.207 196.828C142.238 196.797 142.266 196.766 142.281 196.73C142.305 196.684 142.328 196.656 142.344 196.617C142.363 196.574 142.387 196.543 142.402 196.504C142.426 196.477 142.449 196.445 142.484 196.414C142.508 196.371 142.523 196.34 142.547 196.301C142.574 196.273 142.605 196.242 142.629 196.203C142.656 196.176 142.687 196.137 142.711 196.094C142.738 196.062 142.77 196.031 142.785 196.004C142.816 195.973 142.844 195.941 142.867 195.906L142.957 195.816C142.957 195.816 143.004 195.754 143.039 195.719C143.07 195.695 143.102 195.672 143.129 195.641C143.16 195.613 143.191 195.582 143.203 195.551C143.234 195.523 143.266 195.492 143.301 195.477L143.391 195.379C143.391 195.379 143.453 195.336 143.484 195.305C143.512 195.281 143.543 195.262 143.574 195.23C143.602 195.199 143.641 195.172 143.684 195.156C143.715 195.133 143.746 195.109 143.781 195.078C143.812 195.059 143.852 195.035 143.895 195.004C143.926 194.984 143.953 194.961 143.984 194.945L144.031 194.969Z" fill="black"/>
<path d="M137.379 169.086C136.32 170.742 135.016 172.543 133.426 174.395C132.352 175.641 131.297 176.742 130.273 177.719C131.578 179.016 132.961 180.523 134.348 182.262C135.516 183.734 136.523 185.148 137.387 186.492C138.246 185.195 139.254 183.824 140.406 182.406C141.863 180.629 143.309 179.098 144.676 177.785C143.469 176.703 142.156 175.391 140.836 173.824C139.418 172.152 138.285 170.531 137.387 169.078L137.379 169.086Z" fill="#EB1C24" stroke="black" stroke-width="0.5625" stroke-linecap="round" stroke-linejoin="round"/>
<path d="M40.8672 44.2773H44.0234V48.4023H42.9883V48.0117C42.9883 47.2773 42.7344 46.6563 42.2188 46.1289C41.6992 45.6055 41.0625 45.3281 40.3047 45.2969H24.4414C23.6758 45.3281 23.0391 45.6055 22.5234 46.1211C22.0039 46.6406 21.7422 47.2695 21.7422 48.0117V48.4023H20.707V44.2773H22.1836C23.4141 44.2031 24.4648 43.7656 25.3203 42.957C26.1758 42.1563 26.6836 41.1367 26.8438 39.8984L26.8594 39.4102V39.3945L26.9414 38.0312L27.5547 26.4961V26.3516C27.6836 24.8242 28.4492 23.7422 29.8438 23.1055C30.2852 22.9258 30.7344 22.8359 31.207 22.8359H41.3086V23.8984L40.8906 23.8555C40.4609 23.8789 40.1016 24.0273 39.8164 24.3125C39.5313 24.5977 39.375 24.9492 39.3516 25.3789V42.7109C39.3516 43.1289 39.5039 43.4883 39.7969 43.7812C40.0859 44.0742 40.4492 44.2383 40.875 44.2617L40.8672 44.2773ZM25.3047 44.2773H34.5C34.9258 44.2539 35.2891 44.0977 35.5781 43.7969C35.8711 43.4961 36.0234 43.1367 36.0234 42.7266V25.4219C36.0234 25.2031 35.9844 24.9961 35.8945 24.793L35.8789 24.7617C35.5859 24.1992 35.1211 23.8984 34.4844 23.8711H33.4648C32.2578 23.8711 31.1992 24.4531 30.2695 25.6328C29.3477 26.8086 28.7461 28.3242 28.4844 30.1914L27.8906 39.4609C27.8906 39.7266 27.8711 39.9805 27.832 40.2344C27.8164 40.2891 27.8086 40.3398 27.8008 40.3906C27.7969 40.4453 27.7812 40.5039 27.7734 40.5664C27.7578 40.6172 27.75 40.6719 27.7422 40.7227C27.7344 40.7656 27.7187 40.8125 27.7109 40.8633C27.7031 40.9102 27.6914 40.9492 27.6836 40.9922L27.6523 41.1211C27.6445 41.1641 27.6211 41.1953 27.6094 41.2344C27.6016 41.2773 27.5859 41.3164 27.5781 41.3594C27.5547 41.4062 27.5391 41.4414 27.5312 41.4883C27.5234 41.5156 27.5039 41.5547 27.4883 41.6016C27.4805 41.6445 27.457 41.6836 27.4414 41.7266C27.4219 41.7578 27.4062 41.7969 27.3984 41.8398C27.375 41.8867 27.3516 41.9141 27.3359 41.9531C27.3281 41.9961 27.3086 42.0273 27.293 42.0664C27.2695 42.1094 27.2461 42.1484 27.2344 42.1914C27.2109 42.2227 27.1875 42.2617 27.1719 42.3047C27.1641 42.3359 27.1406 42.3711 27.1289 42.418C27.0977 42.4492 27.0664 42.4766 27.0508 42.5156C27.0313 42.5586 27.0078 42.5898 26.9922 42.6289C26.9687 42.6719 26.9492 42.7031 26.9336 42.7383C26.9102 42.7695 26.8867 42.8008 26.8516 42.8281C26.8281 42.875 26.8125 42.9063 26.7891 42.9414C26.7617 42.9727 26.7305 43.0039 26.707 43.0391C26.6758 43.0703 26.6484 43.1094 26.625 43.1523C26.5938 43.1836 26.5664 43.2109 26.5508 43.2422C26.5195 43.2734 26.4883 43.3008 26.4688 43.3398L26.3789 43.4297C26.3789 43.4297 26.332 43.4883 26.2969 43.5273C26.2656 43.5508 26.2344 43.5742 26.2031 43.6016C26.1758 43.6328 26.1445 43.6641 26.1289 43.6914C26.1016 43.7227 26.0703 43.7539 26.0312 43.7656L25.9414 43.8633C25.9414 43.8633 25.8828 43.9102 25.8516 43.9414C25.8242 43.9609 25.793 43.9844 25.7617 44.0156C25.7344 44.0469 25.6953 44.0742 25.6484 44.0898C25.6211 44.1133 25.5898 44.1367 25.5508 44.1641C25.5234 44.1875 25.4844 44.2109 25.4414 44.2383C25.4102 44.2617 25.3789 44.2852 25.3516 44.3008L25.3047 44.2773Z" fill="black"/>
<path d="M31.9258 52.7539C30.8711 54.4102 29.5664 56.211 27.9766 58.0625C26.9023 59.3086 25.8438 60.4101 24.8242 61.3867C26.1289 62.6836 27.5117 64.1914 28.8984 65.9297C30.0664 67.3984 31.0742 68.8164 31.9336 70.1602C32.7969 68.8633 33.8008 67.4883 34.957 66.0742C36.4141 64.2969 37.8594 62.7656 39.2266 61.4531C38.0156 60.3711 36.7031 59.0586 35.3867 57.4922C33.9688 55.8203 32.8359 54.1992 31.9336 52.7461L31.9258 52.7539Z" fill="#EB1C24" stroke="black" stroke-width="0.5625" stroke-linecap="round" stroke-linejoin="round"/>
<path d="M65.6758 187.012C67.2656 187.391 69.0586 188.141 70.4414 189.656C71.707 191.039 71.9531 192.312 73.3125 195.824C73.8672 197.254 74.6406 199.145 75.6523 201.352C78.6992 199.152 80.4375 198.266 80.8594 198.695C81.0586 198.898 80.9609 199.406 80.5586 200.227C84.4883 198.711 86.6914 198.32 87.1641 199.055C87.3828 199.391 87.2383 199.969 86.7227 200.797C86.8516 200.66 87.1367 200.309 87.2109 199.773C87.2539 199.469 87.2109 199.219 87.1641 199.055C86.8516 197.652 86.5352 196.242 86.2188 194.84C86.4297 195.793 86.6484 196.754 86.8594 197.703C87.0664 197.391 87.4141 196.977 87.9531 196.73C89.0703 196.227 90.1797 196.844 92.7383 197.742C93.4805 198.004 94.5469 198.363 95.8594 198.734C94.9727 196.543 93.8633 194.148 92.4531 191.645C90.1719 187.586 87.7031 184.281 85.4609 181.676C78.8633 183.453 72.2695 185.234 65.6719 187.012H65.6758Z" fill="black"/>
<path d="M87.1641 199.055C86.6914 198.32 84.4883 198.711 80.5586 200.227C80.9609 199.406 81.0586 198.898 80.8594 198.695C80.4375 198.266 78.6992 199.152 75.6524 201.352C74.6406 199.145 73.8672 197.254 73.3125 195.824C71.9531 192.312 71.707 191.039 70.4414 189.656C69.0586 188.141 67.2656 187.391 65.6758 187.012H65.6719C72.2695 185.234 78.8633 183.453 85.461 181.676C87.7031 184.281 90.1719 187.586 92.4531 191.645C93.8633 194.148 94.9727 196.543 95.8594 198.734C94.5469 198.363 93.4805 198.004 92.7383 197.742C90.1797 196.844 89.0703 196.227 87.9531 196.73C87.4141 196.977 87.0664 197.391 86.8594 197.703C86.6485 196.754 86.4297 195.793 86.2188 194.84C86.5352 196.242 86.8516 197.652 87.1641 199.055ZM87.1641 199.055C87.3828 199.391 87.2383 199.969 86.7227 200.797C86.8516 200.66 87.1367 200.309 87.211 199.773C87.2539 199.469 87.211 199.219 87.1641 199.055Z" stroke="black" stroke-width="0.5625" stroke-linecap="round" stroke-linejoin="round"/>
<path d="M41.3477 121.289L41.918 119.465C42.8164 118.738 43.9492 117.582 44.5117 115.91C45.1875 113.906 44.3711 113.203 44.5742 110.195C44.7383 107.809 45.4336 105.649 46.1641 103.406C46.9258 101.051 47.4766 100.047 47.0234 99.6407C46.4844 99.1486 44.7656 99.7852 43.8008 100.926C43.7461 100.984 43.6953 101.051 43.6406 101.121C42.8242 102.305 42.7422 103.453 42.5312 105.117C42.4492 105.754 42.3164 106.691 42.082 107.863" stroke="black" stroke-width="0.5625" stroke-linecap="round" stroke-linejoin="round"/>
<path d="M33.7812 119.129C31.6406 113.855 30.8164 109.863 30.9961 109.586C31.2304 109.219 31.539 108.898 31.539 108.898C32.0625 108.629 32.625 108.363 33.2265 108.109C35.0234 107.359 36.7187 106.902 38.1992 106.633C38.8789 106.707 39.8164 106.879 40.8594 107.324C41.8203 107.727 42.5547 108.223 43.0742 108.629C42.9609 110.188 42.8476 111.754 42.7344 113.316C42.457 113.316 42.2383 113.27 42.0664 113.195C41.1094 112.797 40.582 111.434 40.6562 109.781C39.8476 109.73 39.0312 109.684 38.2187 109.633C37.6875 110.441 37.1641 111.254 36.6289 112.055C37.2969 112.625 38.2422 113.504 39.2695 114.68C40.4765 116.074 41.1133 116.809 41.4453 117.793C42.2031 120.074 40.8984 122.434 40.2383 123.453" stroke="black" stroke-width="0.5625" stroke-linecap="round" stroke-linejoin="round"/>
<path d="M44.3164 95.0313C45.1289 93.2969 45 91.6915 44.1914 91.1133C44.0234 90.9962 43.7188 90.836 43.1914 90.8672C42.6367 92.5391 42.0742 94.2032 41.5195 95.879" stroke="black" stroke-width="0.5625" stroke-linecap="round" stroke-linejoin="round"/>
<path d="M42.9141 98.9141C42.4219 100.363 41.9258 101.816 41.4375 103.266" stroke="black" stroke-width="0.5625" stroke-linecap="round" stroke-linejoin="round"/>
<path d="M33.4414 118.25C37.8984 134.734 41.4453 146.906 42.8398 151.152C43.0781 151.887 43.582 153.934 45.3594 155.441C45.5313 155.586 48.1719 157.781 51.0586 157.168C52.7187 156.816 53.9336 155.637 57.6523 149.105C58.9414 146.832 60.4336 144.094 62.0234 140.93" stroke="black" stroke-width="0.5625" stroke-linecap="round" stroke-linejoin="round"/>
<path d="M42.4141 105.852C42.9961 99.8437 44.9258 96.6289 46.6641 94.7891C47.3867 94.0312 48.6211 92.9219 49.9492 90.9336C51.3516 88.8281 52.125 86.8477 52.5586 85.4609" stroke="black" stroke-width="0.5625" stroke-linecap="round" stroke-linejoin="round"/>
<path d="M31.4922 107.457C32.0234 106.559 32.5742 105.641 33.1484 104.727C34.8828 101.969 36.6601 99.4102 38.4375 97.0625C41.4687 96.125 44.4883 95.1875 47.5195 94.2422C47.7383 94.5664 47.8203 94.8594 47.8281 95.1133C47.8711 97.7148 40.1914 99.5742 39.8164 99.6562L38.6719 101.57" fill="white"/>
<path d="M31.4922 107.457C32.0234 106.559 32.5742 105.641 33.1484 104.727C34.8828 101.969 36.6601 99.4102 38.4375 97.0625C41.4687 96.125 44.4883 95.1875 47.5195 94.2422C47.7383 94.5664 47.8203 94.8594 47.8281 95.1133C47.8711 97.7148 40.1914 99.5742 39.8164 99.6562L38.6719 101.57" stroke="black" stroke-width="0.5625" stroke-linecap="round" stroke-linejoin="round"/>
<path d="M31.5469 108.891C31.5312 108.41 31.5078 107.938 31.4922 107.457C34.7695 104.676 37.2383 102.656 38.1133 101.996C38.2344 101.906 38.5664 101.66 39.0664 101.547C39.1406 101.531 40.2305 101.293 40.9063 101.871C41.3633 102.262 41.3906 102.828 41.4883 103.594C41.6016 104.434 41.8047 105.605 42.2344 107.023" stroke="black" stroke-width="0.5625" stroke-linecap="round" stroke-linejoin="round"/>
<path d="M39.5117 106.863C39.5938 106.281 39.668 105.688 39.75 105.102" stroke="black" stroke-width="0.5625" stroke-linecap="round" stroke-linejoin="round"/>
<path d="M57.9609 76.1132C57.9219 75.8359 57.8164 75.5742 57.668 75.3515C59.2734 74.6523 59.7148 76.3007 60.3984 77.3359C60.5859 77.621 60.8242 77.832 61.0781 78.0507C61.3789 78.3046 61.6875 78.5312 61.8516 78.8984C61.9961 79.2265 62.1445 80.1953 61.5898 80.2929C61.2539 79.8789 60.8086 79.5585 60.3242 79.3789C60.3359 78.7773 60.0391 78.1835 59.4883 77.8554C59.5352 77.6367 59.5586 77.4062 59.5273 77.1562C59.5273 77.1054 59.4687 77.0976 59.4297 77.121C59.4219 76.7226 59.0039 76.2734 58.6562 76.1289C58.4102 76.0234 58.1562 76.0468 57.9609 76.1445C57.9609 76.1367 57.9609 76.1289 57.9609 76.1132Z" fill="#EB1C24"/>
<path d="M59.4219 78.0781C60.6016 79.1211 59.9688 80.3672 58.7383 80.9844C58.125 81.2891 57.5234 81.5391 57.0742 82.0625C56.9766 82.0391 56.8711 82.0156 56.7734 82.0039C56.7734 82.0039 56.7812 81.9883 56.7812 81.9805C57.0742 80.4219 58.9336 79.5195 59.4141 78.0781H59.4219Z" fill="#EB1C24"/>
<path d="M57.8321 76.6991C57.8164 76.121 58.4844 76.1757 58.8008 76.4218C59.0313 76.6015 59.4219 77.0507 59.168 77.3437C59.168 76.828 58.1641 76.3866 58.1407 76.9179C58.1407 76.9843 58.2461 77.0077 58.2617 76.9413C58.3282 76.6249 58.9414 77.164 58.9336 77.2616C58.9258 77.578 58.6953 77.5234 58.5391 77.4648C58.2305 77.3515 57.8399 77.0468 57.8321 76.6991Z" fill="#8E0E08"/>
<path d="M55.8242 77.9687C56.1094 77.6523 57.1055 76.5273 57.5781 76.9023C57.6016 76.9179 57.6211 76.9179 57.6445 76.9101C57.6602 76.9531 57.6836 77.0078 57.7031 77.0507C57.8711 77.3593 58.7617 78.0429 59.0703 77.6093C59.0859 77.6093 59.1094 77.6093 59.1211 77.6015C59.2344 77.5312 59.3086 77.457 59.3555 77.3671C59.0156 79.2343 56.8945 80.039 56.543 81.9062C56.543 81.9257 56.543 81.9414 56.543 81.9648C56.25 81.9218 55.9648 81.9062 55.6875 81.9414C55.5312 81.9648 55.3789 81.996 55.2383 82.0312C56.1445 80.8789 55.8008 79.414 55.7383 77.996C55.7617 77.996 55.793 77.9882 55.8164 77.9687H55.8242Z" fill="#EB1C24"/>
<path d="M54.7656 82.5273C55.5 82.2187 56.3164 82.1445 57.2539 82.3711C58.3594 82.6406 59.6836 82.9922 60.5469 82.0234C60.6523 81.9062 60.4961 81.7266 60.375 81.8438C59.4766 82.7227 58.3438 82.3633 57.2266 82.1094C58.1172 81.3789 59.5273 81.2148 60.1055 80.1484C60.2109 79.9531 60.2695 79.7539 60.3008 79.5508C61.1172 80.0313 61.9492 80.8711 61.9219 81.875C61.9141 82.2969 61.7773 82.7383 61.5078 83.0664C61.0039 83.6758 60.3359 83.3438 59.707 83.2031C59.6641 83.1875 59.6172 83.2031 59.5938 83.2344C59.5586 83.2188 59.4961 83.2344 59.4844 83.2852C59.2969 83.8398 58.7617 84.0742 58.2148 83.9062C57.7109 83.7578 57.4141 83.3516 57.0664 82.9844C56.9844 82.9023 56.8281 83 56.8867 83.1055C56.918 83.1562 56.9531 83.2109 56.9922 83.2539C56.9023 83.6523 56.2813 83.6211 56.0039 83.4648C55.7539 83.3242 55.5586 83.0977 55.3516 82.9102C55.1719 82.7539 54.9844 82.6094 54.7656 82.5273Z" fill="#EB1C24"/>
<path d="M53.0039 83.832C53.4609 83.3359 53.9492 82.9414 54.4726 82.6641C55.207 82.8438 55.5664 83.7188 56.332 83.8008C56.6172 83.832 57.0156 83.6836 57.1211 83.4062C57.2851 83.6016 57.4726 83.7734 57.6914 83.9141C56.9492 84.1016 56.4218 84.5156 55.8593 85.0234C55.4492 85.3984 55.0195 85.6172 54.4648 85.5859C54.4492 85.5859 54.4336 85.5742 54.4218 85.5664C54.375 85.543 54.3281 85.5508 54.3007 85.5664C53.9023 85.4961 53.2734 85.2422 52.9726 84.8516C52.9726 84.8438 52.9726 84.8281 52.957 84.8242L52.9414 84.8086C52.7695 84.5508 52.7461 84.2461 53.0039 83.8984C53.0234 83.8711 53.0156 83.8398 53.0039 83.8164V83.832Z" fill="#EB1C24"/>
<path d="M54.1211 76.2813C54.3437 75.9492 54.6523 75.793 55.0507 75.8008C55.125 75.8008 55.1992 75.8008 55.2734 75.793C55.539 75.6367 55.4492 75.5 55.7031 75.2383C56.5429 74.3828 57.5312 75.3281 57.8164 76.1445C57.8242 76.1758 57.8476 76.1914 57.8711 76.1914C57.7031 76.3086 57.6015 76.4883 57.6093 76.707C57.039 76.3477 56.1093 77.3086 55.7343 77.7344C55.7265 77.0899 55.7929 76.4688 56.0859 75.8828C56.1367 75.7774 56.0039 75.6953 55.9336 75.7852C54.6289 77.668 56.414 80.1406 55.0742 81.9961C54.3515 81.2969 53.6484 79.9414 54.4648 79.0938C54.4648 79.0938 54.4648 79.1016 54.4726 79.1094C54.5546 79.2344 54.7734 79.1289 54.6914 78.9961C54.4492 78.6289 54.1953 78.2461 54.039 77.8242C54.1054 77.75 54.0507 77.6602 53.9765 77.6289C53.9531 77.5391 53.9336 77.4492 53.9179 77.3594C53.8632 77 53.9023 76.5781 54.1054 76.2656L54.1211 76.2813Z" fill="#EB1C24"/>
<path d="M51.1289 80.9961C51.4141 79.5781 52.7852 78.8242 53.8516 77.9961C53.9922 78.3359 54.1797 78.6484 54.3828 78.957C53.4141 79.7227 54.0234 81.4531 54.8789 82.1523C53.9688 82.4961 53.1992 83.1875 52.6875 84.0039C52.6719 84.0273 52.6797 84.0508 52.6875 84.0742C52.6133 84.207 52.582 84.3438 52.5899 84.4844C51.6758 83.5391 50.8438 82.3789 51.1211 81.0039L51.1289 80.9961Z" fill="#EB1C24"/>
<path d="M44.9024 81.6132C44.7813 81.582 44.8125 81.4258 44.9102 81.3945C47.0469 80.7031 49.4493 81.1914 51.0743 82.7461C50.8711 82.2578 50.7735 81.7383 50.836 81.1758C51.0078 79.5351 52.5664 78.6406 53.7656 77.7343C53.6719 77.4218 53.625 77.0898 53.6836 76.7461C53.7539 76.3867 53.9258 76.0469 54.2188 75.8164C54.5391 75.5664 54.75 75.6641 55.0664 75.5469C55.3633 75.4336 55.4492 75.0937 55.711 74.9062C55.9883 74.7187 56.3477 74.6289 56.6836 74.6836C57.0235 74.7344 57.3086 74.8984 57.5156 75.1406C58.1641 74.832 58.9063 74.8632 59.4688 75.3203C60.2774 75.9804 60.4063 77.1289 61.2149 77.8242C61.7774 78.3047 62.2578 78.7539 62.2188 79.5586C62.2032 79.9101 62.0782 80.4336 61.6641 80.3828C62.0703 80.9218 62.2891 81.5976 62.1524 82.2812C62.0625 82.7304 61.8242 83.2461 61.4414 83.5234C60.9297 83.8906 60.1875 83.5781 59.6485 83.4219C59.6485 83.4219 59.6485 83.4219 59.6407 83.4219C59.5352 83.9219 59.0157 84.2226 58.5079 84.1992C58.2891 84.1914 58.0781 84.125 57.8906 84.0351C57.8906 84.0664 57.8711 84.0937 57.8321 84.1093C57.3008 84.3047 56.8516 84.5 56.4141 84.875C56.1524 85.1016 55.9336 85.3789 55.6406 85.5664C55.418 85.707 55.1719 85.8047 54.9063 85.8437C55.711 86.3242 56.3907 86.9883 56.9102 87.7695C57.2696 88.3164 58.0664 89.5703 57.6602 90.2461C57.6289 90.3047 57.5313 90.2617 57.4493 90.2382C57.0313 90.1172 56.8282 89.6289 56.7813 89.5234C56.2813 88.414 53.8203 88.1015 52.9493 86.3906C52.7852 86.0742 52.6055 85.5508 52.6485 84.7617C52.4922 85.7734 52.0781 86.2695 51.7735 86.5234C50.9844 87.1718 50.1133 86.8906 48.1485 87.2305C47.5664 87.3359 46.9219 87.2304 46.3868 87.5078C46.3789 87.5078 46.336 87.5312 46.2969 87.5234C46.2071 87.5 46.1758 87.3594 46.2735 87.2891C46.9141 86.8555 47.3907 86.4492 47.8282 85.8125C48.0078 85.5508 48.1719 85.2812 48.4063 85.0468C48.7344 84.7265 49.1329 84.5078 49.5664 84.4414C49.4414 84.3789 49.3125 84.3203 49.1914 84.2539C47.6914 83.4258 46.6368 82.0039 44.9024 81.6055V81.6132ZM51.1719 83.1484C49.6485 81.6054 47.4297 80.9531 45.3438 81.5C47.7071 82.2578 49.4531 85.4453 52.1719 84.3203C51.8242 83.9765 51.5157 83.5937 51.2774 83.1718C51.2383 83.1797 51.2032 83.1718 51.1719 83.1484ZM55.0508 75.8086C54.6524 75.8008 54.3438 75.957 54.1211 76.289C53.9102 76.5937 53.8711 77.0234 53.9336 77.3828C53.9493 77.4726 53.9688 77.5625 53.9922 77.6523C54.0664 77.6836 54.1211 77.7734 54.0508 77.8476C54.211 78.2656 54.4649 78.6484 54.7031 79.0156C54.7969 79.1523 54.5782 79.2578 54.4883 79.1289C54.4883 79.1289 54.4883 79.1211 54.4805 79.1133C53.6641 79.9609 54.3672 81.3203 55.086 82.0156C56.4297 80.1641 54.6446 77.6836 55.9493 75.8086C56.0157 75.7109 56.1524 75.8007 56.1016 75.9062C55.8086 76.4843 55.7383 77.1132 55.7461 77.7578C56.1211 77.3281 57.0469 76.3711 57.6211 76.7305C57.6211 76.5117 57.7188 76.332 57.8868 76.2109C57.8633 76.2109 57.8477 76.1914 57.8321 76.168C57.5469 75.3516 56.5586 74.4062 55.7188 75.2617C55.461 75.5156 55.5508 75.6562 55.2891 75.8164C55.2149 75.8164 55.1406 75.8242 55.0664 75.8242L55.0508 75.8086ZM53.8516 77.9961C52.7852 78.8242 51.4141 79.5781 51.1289 80.9961C50.8516 82.3711 51.6836 83.5312 52.5977 84.4766C52.5899 84.3437 52.6133 84.1992 52.6954 84.0664C52.6797 84.043 52.6797 84.0195 52.6954 83.9961C53.1993 83.1797 53.9766 82.4883 54.8868 82.1445C54.0235 81.4531 53.4141 79.7148 54.3907 78.9492C54.1953 78.6484 54 78.3281 53.8594 77.9883L53.8516 77.9961ZM57.586 76.9023C57.1133 76.5273 56.1133 77.6601 55.8281 77.9687C55.8086 77.9882 55.7774 78.0039 55.7539 77.9961C55.8164 79.4141 56.1602 80.8711 55.2539 82.0312C55.4024 81.9961 55.5508 81.9648 55.7032 81.9414C55.9805 81.914 56.2657 81.9257 56.5586 81.9648C56.5586 81.9492 56.5586 81.9257 56.5586 81.9062C56.9102 80.0312 59.0313 79.2344 59.3711 77.3672C59.3243 77.4492 59.25 77.5312 59.1368 77.6015C59.1133 77.6094 59.1016 77.6133 59.086 77.6094C58.7696 78.043 57.8868 77.3594 57.7188 77.0508C57.6914 77 57.6758 76.9531 57.6602 76.9101C57.6368 76.918 57.6133 76.9179 57.5938 76.9023H57.586ZM57.668 75.3515C57.8164 75.5742 57.9141 75.8437 57.961 76.1133C57.961 76.1211 57.961 76.1367 57.961 76.1445C58.1563 76.0469 58.4102 76.0234 58.6563 76.1289C59.0039 76.2734 59.4219 76.7226 59.4297 77.1211C59.4688 77.0976 59.5196 77.0976 59.5274 77.1562C59.5508 77.4062 59.5352 77.6367 59.4883 77.8555C60.0391 78.1836 60.336 78.7695 60.3243 79.3789C60.8086 79.5586 61.2618 79.8789 61.5899 80.293C62.1368 80.2031 61.9961 79.2266 61.8516 78.8984C61.6875 78.5234 61.3789 78.3047 61.0781 78.0507C60.8242 77.832 60.586 77.6211 60.3985 77.3359C59.7149 76.3086 59.2735 74.6601 57.668 75.3515ZM58.8008 76.4218C58.4844 76.1757 57.8164 76.1289 57.8321 76.6992C57.8399 77.0469 58.2383 77.3515 58.5391 77.4648C58.6953 77.5234 58.9258 77.5781 58.9336 77.2617C58.9336 77.164 58.3282 76.625 58.2618 76.9414C58.2461 77.0078 58.1407 76.9844 58.1407 76.918C58.1641 76.3789 59.1758 76.8203 59.168 77.3437C59.4219 77.0508 59.0313 76.6015 58.8008 76.4218ZM50.0469 84.6797C48.9766 84.5898 48.4493 85.3789 47.9024 86.1484C47.6719 86.4804 47.3868 86.7578 47.0782 87.0039C47.7149 86.8632 48.375 86.8789 49.043 86.8398C50.3867 86.7578 51.711 86.293 52.2618 85.0547C52.2891 84.9258 52.3203 84.8086 52.3516 84.6875C52.3594 84.6484 52.3789 84.6367 52.4102 84.6211C52.4102 84.6055 52.418 84.5898 52.4258 84.5742C52.3711 84.5234 52.3203 84.4765 52.2656 84.4257C51.6211 84.8437 50.8516 84.8515 50.1368 84.6562C50.1133 84.6797 50.086 84.6875 50.0469 84.6875V84.6797ZM54.4727 82.664C53.9414 82.9414 53.4531 83.3359 53.0039 83.832C53.0235 83.8555 53.0313 83.8867 53.0039 83.9141C52.7461 84.2617 52.7696 84.5664 52.9414 84.8242C52.9414 84.8242 52.9571 84.8281 52.9571 84.8359C52.9649 84.8437 52.9727 84.8594 52.9727 84.8672C53.2735 85.2578 53.8946 85.5117 54.3008 85.5781C54.3282 85.5586 54.375 85.5508 54.4219 85.5781C54.4336 85.5781 54.4493 85.5937 54.4649 85.6016C55.0274 85.625 55.4493 85.4062 55.8594 85.0391C56.4219 84.5312 56.9492 84.1094 57.6914 83.9297C57.4727 83.7969 57.2774 83.6133 57.1211 83.4219C57.0157 83.6992 56.6172 83.8476 56.3321 83.8164C55.5664 83.7343 55.2071 82.8594 54.4727 82.6758V82.664ZM58.7383 80.9844C59.961 80.3672 60.6016 79.1289 59.4219 78.0781C58.9414 79.5195 57.0742 80.4219 56.7891 81.9805C56.7891 81.9883 56.7891 81.9961 56.7813 82.0039C56.8789 82.0156 56.9766 82.0391 57.0821 82.0625C57.5313 81.5312 58.1406 81.2812 58.7461 80.9844H58.7383ZM52.6875 84.793C52.6875 84.793 52.6641 84.7695 52.6563 84.7617C52.875 87.4609 56.4532 87.6406 57.5469 89.8242C57.6016 89.0664 56.6993 87.8359 56.3399 87.3945C55.8243 86.75 55.1836 86.2617 54.4727 85.8594C54.375 85.8594 54.2774 85.8437 54.1797 85.8281C53.6758 85.7383 52.9414 85.3008 52.6954 84.7851L52.6875 84.793ZM57.2539 82.3711C56.3164 82.1445 55.5 82.2187 54.7657 82.5273C54.9844 82.6093 55.1719 82.7461 55.3516 82.9101C55.5664 83.0976 55.7539 83.3242 56.0039 83.4648C56.2813 83.6211 56.9024 83.6523 56.9922 83.2539C56.9532 83.2031 56.9258 83.1562 56.8868 83.1055C56.8203 83 56.9844 82.8945 57.0664 82.9843C57.4141 83.3437 57.711 83.75 58.2149 83.9062C58.7618 84.0742 59.3008 83.8398 59.4844 83.2851C59.4961 83.2344 59.5508 83.2187 59.5938 83.2344C59.625 83.2031 59.6641 83.1875 59.7071 83.2031C60.3281 83.3437 61.0039 83.6757 61.5079 83.0664C61.7774 82.7461 61.9141 82.2969 61.9219 81.875C61.9414 80.8711 61.1094 80.0312 60.3008 79.5507C60.2774 79.7539 60.211 79.9609 60.1055 80.1484C59.5274 81.2148 58.1172 81.3789 57.2266 82.1094C58.3438 82.3633 59.4766 82.7226 60.375 81.8437C60.4961 81.7344 60.6446 81.914 60.5469 82.0234C59.6836 83 58.3516 82.6406 57.2539 82.3711Z" fill="black" stroke="black" stroke-width="0.1875" stroke-linecap="round" stroke-linejoin="round"/>
<path d="M74.9531 129.41C77.2266 128.613 80.625 127.496 84.8321 126.426C91.2969 124.766 101.309 122.277 113.805 123.176C122.348 123.793 126.789 125.609 130.176 127.984C131.762 129.094 132.93 130.199 133.688 130.969C133.824 131.773 134.109 134.074 132.781 136.297C132.293 137.113 131.707 137.703 131.219 138.117C131.273 139.398 131.113 140.516 130.828 141.492C127.914 151.617 110.078 153.582 108.871 153.703C107.023 150.566 105.18 147.441 103.336 144.305C100.672 149.324 98.0157 155.367 95.9414 162.402C95.1446 165.109 94.5 167.711 93.9883 170.195C89.1836 172.414 83.2657 175.836 77.4219 181.109C75.0899 183.215 73.0859 185.328 71.3789 187.348C68.3906 181.371 65.3984 175.391 62.4141 169.414C62.2188 155.316 62.0234 141.223 61.8281 127.121C60.8008 127.551 59.3321 128.024 57.5117 128.164C54.5391 128.391 52.1914 127.586 50.9492 127.055C50.4766 123.574 50.7813 120.734 51.1719 118.762C51.6133 116.516 51.9532 114.844 53.2578 113.09C53.6563 112.559 56.0234 109.469 60.2695 108.996C62.6484 108.734 64.5664 109.391 65.6328 109.871C65.586 109.941 64.8906 110.953 64.8438 111.02C64.7617 111.141 63.8711 112.438 63.7969 112.559C64.125 112.941 64.5391 113.422 65.0039 113.977C65.0039 113.977 65.9492 115.121 66.8555 116.301C70.3438 120.859 72.9688 125.336 74.961 129.387L74.9531 129.41Z" stroke="black" stroke-width="0.5625" stroke-linecap="round" stroke-linejoin="round"/>
<path d="M74.9609 129.41C75.3594 128.383 76.1172 126.844 77.5781 125.426C78.2031 124.82 78.8242 124.363 79.3789 124.016" stroke="black" stroke-width="0.5625" stroke-linecap="round" stroke-linejoin="round"/>
<path d="M65.6406 109.887C66.6602 108.672 68.2734 107.141 70.5899 106.422C73.3281 105.574 74.6406 106.609 78.2109 106.184C79.8906 105.98 83.2188 105.582 85.5156 103.355C88.9883 99.9883 88.1094 94.3633 87.9531 93.418" stroke="black" stroke-width="0.5625" stroke-linecap="round" stroke-linejoin="round"/>
<path d="M103.477 86.9219C104.191 96.8516 107.527 102.32 110.559 105.5C113.477 108.566 118.191 111.695 119.715 112.707C125.781 116.734 129.539 117.926 130.949 121.805C131.805 124.16 131.414 126.453 131.016 127.91" stroke="black" stroke-width="0.5625" stroke-linecap="round" stroke-linejoin="round"/>
<path d="M87.2382 102.574C88.0781 101.578 89.1289 100.543 90.4218 99.5899C96.0234 95.4571 102.465 95.6368 105.09 95.8712C104.894 95.1719 104.707 94.4844 104.512 93.7852C105.137 93.6876 106.035 93.6407 106.922 94.0704C108.473 94.8126 109.043 96.4844 109.809 98.9063C110.691 101.699 111.137 103.094 110.699 104.039C109.746 106.102 106.238 106.219 100.875 106.34C96.1718 106.445 88.2734 106.625 87.3007 103.609C87.164 103.199 87.1953 102.824 87.2343 102.566L87.2382 102.574Z" fill="white" stroke="black" stroke-width="0.5625" stroke-linecap="round" stroke-linejoin="round"/>
<path d="M87.4726 101.887C87.6211 101.121 87.75 100.309 87.8633 99.4531C88.043 98.0469 88.1328 96.7188 88.164 95.4961C87.7578 95.5312 87.0586 95.6602 86.3633 96.1172C84.375 97.4297 84.5625 100.102 84.5781 100.242C84.6836 101.391 85.2656 103.078 86.1367 103.102C86.7812 103.113 87.3008 102.215 87.4726 101.887Z" fill="white" stroke="black" stroke-width="0.5625" stroke-linecap="round" stroke-linejoin="round"/>
<path d="M103.336 144.313C102.074 142.094 100.656 138.914 100.035 134.914C99.8086 133.469 99.7188 132.125 99.7031 130.91C101.488 129.664 104.34 128.082 108.082 127.535C117.969 126.086 125.348 133.121 126.406 134.164C127.254 134.246 129.938 134.391 132.188 132.606C132.855 132.074 133.336 131.496 133.68 130.977" stroke="black" stroke-width="0.5625" stroke-linecap="round" stroke-linejoin="round"/>
<path d="M99.7109 130.902C102.637 131.113 107.863 131.887 113.355 135.125C117 137.277 119.535 139.789 121.148 141.688C122.895 141.41 125.012 140.906 127.32 140C128.812 139.406 130.109 138.754 131.219 138.117C131.762 137.645 133.043 136.398 133.582 134.336C133.965 132.891 133.824 131.66 133.688 130.969C133.238 131.594 131.828 133.355 129.336 133.992C128.145 134.301 127.109 134.246 126.406 134.148C125.406 133.113 119.062 126.727 109.734 127.355C104.969 127.676 101.477 129.688 99.7031 130.895L99.7109 130.902Z" fill="#EB1C24" stroke="black" stroke-width="0.5625" stroke-linecap="round" stroke-linejoin="round"/>
<path d="M99.7109 130.902C97.9219 131.344 95.2969 132.207 92.6328 134.051C84.5859 139.625 83.8945 148.844 78.4063 164.555C76.875 168.926 74.5352 175.063 71.1016 182.293C72.7578 180.41 74.9609 177.754 77.3399 174.402C79.8672 170.832 82.3594 167.316 84.4492 162.516C86.5859 157.625 85.5391 157.766 88.6406 149.164C90.4336 144.191 91.8828 140.602 95.2656 138.059C97.1484 136.641 99.0391 136.023 100.184 135.734C100.027 134.129 99.8789 132.523 99.7188 130.91L99.7109 130.902Z" fill="#EB1C24" stroke="black" stroke-width="0.5625" stroke-linecap="round" stroke-linejoin="round"/>
<path d="M61.8359 127.129C61.8828 127.102 62.5742 126.703 62.6172 126.672C62.6641 126.641 63.3515 126.246 63.3984 126.215C63.4492 131.277 63.6914 135.371 63.8867 138.035C64.7695 150.191 66.6836 160.055 69.5703 174.738C70.2148 178.016 70.7617 180.664 71.1016 182.277C69.1133 177.449 67.1562 171.809 65.543 165.418C63.4258 157.004 62.4531 149.367 62.0547 142.953C61.9805 137.676 61.9141 132.402 61.8359 127.121V127.129Z" fill="#EB1C24" stroke="black" stroke-width="0.5625" stroke-linecap="round" stroke-linejoin="round"/>
<path d="M63.3984 126.223C61.1836 124.219 58.8086 121.805 56.4453 118.918C55.0664 117.23 53.8516 115.574 52.7852 113.996" stroke="black" stroke-width="0.5625" stroke-linecap="round" stroke-linejoin="round"/>
<path d="M63.3984 126.223C61.582 124.578 59.6172 122.621 57.6367 120.336C55.7266 118.121 54.1211 115.969 52.7852 113.996C53.168 113.434 53.6641 112.789 54.293 112.137C55.0117 111.387 55.7187 110.816 56.332 110.383C58.6875 115.672 61.043 120.949 63.3984 126.238V126.223Z" fill="#EB1C24" stroke="black" stroke-width="0.5625" stroke-linecap="round" stroke-linejoin="round"/>
<path d="M74.9609 129.41C73.9414 140.082 73.0664 151.039 72.3672 162.281C71.9531 168.875 71.6172 175.371 71.3398 181.781" stroke="black" stroke-width="0.5625" stroke-linecap="round" stroke-linejoin="round"/>
<path d="M62.3906 167.383C57.4414 170.824 51.336 175.836 45.4649 182.887C41.6485 187.469 38.7539 191.922 36.5625 195.828" stroke="black" stroke-width="0.5625" stroke-linecap="round" stroke-linejoin="round"/>
<path d="M94.7109 167.234C100.027 168.688 112.262 172.902 119.391 184.496C120.676 186.582 121.641 188.66 122.371 190.656" stroke="black" stroke-width="0.5625" stroke-linecap="round" stroke-linejoin="round"/>
<path d="M75.832 64.6914C74.8593 67.6719 75.0234 69.8828 75.375 71.3985C75.8554 73.4297 76.6562 74.0078 76.5 75.7773C76.3281 77.7656 75.1055 79.6641 74.5508 80.5039C73.5312 82.0547 72.789 82.6094 72.9883 83.2773C73.2305 84.0781 74.6406 84.3711 75.8554 84.4922C76.1562 84.9727 77.9023 87.8281 78.3008 90.0859C78.5234 91.3789 78.6445 92.0235 78.5937 92.5157C78.5391 93.0508 78.4062 93.5235 78.6679 94.0313C78.8984 94.4844 79.3125 94.7383 79.4609 94.8281C79.4609 94.8281 79.9219 95.1055 80.5117 95.1875C83.7539 95.6446 87.9961 93.1562 87.9961 93.1562C90.6914 91.0469 93.375 88.9414 96.0664 86.8398" stroke="black" stroke-width="0.5625" stroke-linecap="round" stroke-linejoin="round"/>
<path d="M75.0977 68.7266C75.1212 68.0313 75.2032 67.2266 75.3751 66.3594C75.4727 65.8711 75.5938 65.4141 75.7266 65C76.754 64.543 78.336 64.0391 80.0235 64.4688C82.5392 65.1055 83.1993 67.2578 85.8009 68.8633C87.0899 69.6563 89.1134 70.4688 92.2345 70.3555C90.5313 73.3477 90.6759 74.8907 91.1915 75.7461C91.922 76.9532 93.5157 77.0156 93.961 78.3633C94.2892 79.3555 93.797 80.4063 93.336 81.1406C94.0587 80.9688 95.0235 80.6133 95.3985 79.8047C96.047 78.418 94.4024 76.961 94.9415 75.6407C95.1993 75.0196 96.0001 74.3008 98.504 74.0508C99.5392 72.3203 101.227 71.3985 102.711 71.7032C102.891 71.7422 103.809 71.9297 104.348 72.6953C105.352 74.1211 104.242 76.4844 103.77 77.4961C103.379 78.336 102.938 78.9648 102.613 79.3867C102.914 82.1016 103.215 84.8164 103.516 87.5313C103.629 88.4531 104.43 88.9844 105.039 88.836C105.457 88.7305 105.801 88.2969 105.891 87.7539C105.629 88.0039 105.27 88.1094 104.984 88.0039C104.566 87.8438 104.309 87.2539 104.559 86.6758C105.039 86.293 105.789 85.707 106.727 85.0313C112.996 80.4883 116.43 79.8282 117.188 76.9766C117.375 76.2578 117.504 75.043 116.731 73.2735C117.906 73.0235 120.399 72.3125 121.859 70.1211C124.363 66.3789 122.176 60.8672 119.031 58.1836C118.238 57.5 116.192 55.7539 113.414 56.0508C110.746 56.3438 108.399 58.4141 107.309 61.3789C106.012 60.7774 83.836 50.7734 76.5469 58.9609C75.9532 59.6289 75.4259 60.4493 75.0313 61.461C72.7735 62.6211 71.836 64.9844 72.5313 66.6641C73.1485 68.1485 74.8282 68.6367 75.0977 68.7109V68.7266Z" fill="black" stroke="black" stroke-width="0.5625" stroke-linecap="round" stroke-linejoin="round"/>
<path d="M98.8594 80.3359C98.9531 80.5703 99.2539 81.2227 99.8398 81.3594C100.418 81.4922 100.949 81.043 101.617 80.4492C102.082 80.0469 102.719 79.3867 103.297 78.3867" stroke="black" stroke-width="0.5625" stroke-linecap="round" stroke-linejoin="round"/>
<path d="M84.9844 55.707L85.5156 42.5977C85.9648 44.75 87.5234 46.4883 89.5586 47.082C91.9805 47.7891 94.6797 46.7539 96.1367 44.5039C95.4062 47.0899 96.6367 49.8125 98.9609 50.9375C101.453 52.1445 104.578 51.1992 106.043 48.7187C105.996 48.9805 105.504 51.9805 107.43 53.7969C109.395 55.6406 113.137 55.5742 115.762 53.0391C114.977 54.0508 114.195 55.0625 113.406 56.0742" stroke="black" stroke-width="0.5625" stroke-linecap="round" stroke-linejoin="round"/>
<path d="M67.2227 116.562C68.0312 116.426 68.9531 116.227 69.9531 115.91C71.1445 115.527 72.1719 115.078 73.0039 114.641" stroke="black" stroke-width="0.5625" stroke-linecap="round" stroke-linejoin="round"/>
<path d="M69.9609 115.91C69.9766 115.488 70.043 114.844 70.3359 114.117C70.5742 113.523 70.8828 113.074 71.1289 112.773" stroke="black" stroke-width="0.5625" stroke-linecap="round" stroke-linejoin="round"/>
<path d="M69.9883 115.453C69.9062 115.168 69.8008 114.859 69.668 114.539C69.4726 114.066 69.2461 113.66 69.0391 113.324" stroke="black" stroke-width="0.5625" stroke-linecap="round" stroke-linejoin="round"/>
<path d="M108.359 122.984C108.156 122.246 107.953 121.512 107.754 120.777" stroke="black" stroke-width="0.5625" stroke-linecap="round" stroke-linejoin="round"/>
<path d="M99.1719 78.1562C98.9688 78.5078 99.1406 79.0781 99.4805 79.3867C99.5781 79.4765 99.7344 79.6172 99.9453 79.6328C100.629 79.6836 101.203 78.3789 101.414 77.6992C101.602 77.0976 101.746 76.6328 101.477 76.25C101.199 75.8593 100.648 75.7539 100.254 75.8515C100.043 75.9062 99.6992 76.0547 99.6836 76.2578C99.668 76.4609 99.9883 76.5039 100.109 76.8437C100.191 77.0742 100.133 77.3437 100.027 77.5234C99.7891 77.9375 99.375 77.8007 99.1719 78.1484V78.1562Z" fill="black"/>
<path d="M100.5 73.9922C100.98 73.2813 101.715 72.9415 102.301 73.1211C102.801 73.2735 103.043 73.7617 103.125 73.9258C103.539 74.7656 103.23 75.6563 103.078 76.1133C102.441 77.9844 100.711 78.9883 100.059 79.3243" stroke="black" stroke-width="0.5625" stroke-linecap="round" stroke-linejoin="round"/>
<path d="M75.8633 84.5C76.4766 84.5899 76.9961 84.6367 77.3633 84.6562C77.9258 84.6953 78.082 84.6797 78.2383 84.5742C78.6016 84.3437 78.8242 83.75 78.5859 83.2773C78.414 82.9336 78.0664 82.8125 77.9765 82.7812" stroke="black" stroke-width="0.5625" stroke-linecap="round" stroke-linejoin="round"/>
<path d="M75.039 61.4766C74.9414 61.7812 74.5859 62.9766 75.2109 64.1211C75.414 64.5039 75.6757 64.7813 75.8906 64.9766" stroke="black" stroke-width="0.5625" stroke-linecap="round" stroke-linejoin="round"/>
<path d="M93.3438 81.1406C92.8867 81.3594 92.6094 81.6953 92.6328 82.0117C92.6328 82.0547 92.6485 82.1367 92.6992 82.2188C92.9336 82.5781 93.5782 82.3242 93.8321 82.6485C93.9688 82.8203 93.9297 83.0586 93.9141 83.1484C93.8243 83.6914 93.2266 83.7891 93.0742 84.3711C93.0313 84.5508 93.0469 84.7109 93.0508 84.8086" stroke="black" stroke-width="0.5625" stroke-linecap="round" stroke-linejoin="round"/>
<path d="M84.1953 107.269C84.1211 107.18 82.9961 105.656 83.6484 103.984C84.0234 103.039 84.7656 102.551 85.0508 102.394C85.0938 100.766 86.3398 99.7851 87.1719 99.9218C87.9297 100.047 88.7031 101.156 88.5156 102.551C89.8789 102.859 90.8086 104.129 90.7031 105.484C90.6094 106.789 89.5781 107.863 88.2539 108.035C88.1641 109.355 86.9492 110.269 85.793 110.066C84.6211 109.863 83.7891 108.551 84.1875 107.269H84.1953Z" fill="white" stroke="black" stroke-width="0.5625" stroke-linecap="round" stroke-linejoin="round"/>
<path d="M86.8047 102.492C87.6289 102.777 87.5703 104.856 87.5547 105.184C87.5313 105.891 87.4883 107.523 86.6016 107.906C86.2656 108.051 85.8516 108.004 85.5469 107.797C84.375 107.008 84.5625 103.664 85.9805 102.703C86.1094 102.621 86.4688 102.371 86.8125 102.492H86.8047Z" fill="#EB1C24" stroke="black" stroke-width="0.5625" stroke-linecap="round" stroke-linejoin="round"/>
<path d="M85.6797 110.047C85.5078 110.898 85.3281 111.746 85.1562 112.602L85.6797 110.047Z" fill="#EB1C24"/>
<path d="M85.6797 110.047C85.5078 110.898 85.3281 111.746 85.1562 112.602" stroke="black" stroke-width="0.5625" stroke-linecap="round" stroke-linejoin="round"/>
<path d="M85.1719 112.52C84.5039 113.141 83.7149 113.801 82.8242 114.441C82.2227 114.867 81.6523 115.234 81.1289 115.551C81.3281 116.328 81.5234 117.223 81.6836 118.219C81.8086 119.059 81.8906 119.863 81.9375 120.598C82.4766 120.117 83.0781 119.613 83.7383 119.121C84.5703 118.496 85.3516 117.98 86.0625 117.559C85.8516 116.891 85.6406 116.105 85.4766 115.199C85.3047 114.223 85.2149 113.316 85.1758 112.52H85.1719Z" fill="#EB1C24" stroke="black" stroke-width="0.5625" stroke-linecap="round" stroke-linejoin="round"/>
<path d="M90.293 103.836C95.5274 102.688 99.375 102.785 102.066 103.152C102.066 103.152 107.496 103.895 109.492 102.051C109.711 101.848 109.875 101.637 109.996 101.434C109.996 101.434 110.199 101.105 110.309 100.699C110.477 100.109 110.012 98.293 108.797 96.1172C109.012 96.6289 108.977 96.9805 108.906 97.2109C108.254 99.289 102.422 98.1055 96.1719 100.102C93.3594 101 91.2305 102.297 89.8516 103.273C90 103.461 90.1484 103.648 90.3008 103.836H90.293Z" fill="#EB1C24" stroke="black" stroke-width="0.5625" stroke-linecap="round" stroke-linejoin="round"/>
<path d="M77.8867 72.9961C77.8633 73.211 77.918 73.4766 78.0508 73.6406C78.4141 74.0742 79.1719 73.6094 80.0312 73.2969C81.4648 72.7695 82.7109 72.8281 83.7969 72.8828C85.3594 72.957 86.332 73.3906 86.3711 73.211C86.4062 73.0235 85.4258 72.4336 84.4883 72.0508C82.5391 71.2539 80.9688 71.457 80.2656 71.6016C79.6289 71.7266 77.9844 72.0664 77.8789 73.0039L77.8867 72.9961Z" fill="black"/>
<path d="M77.2657 86.7812C77.3633 86.7812 77.5196 86.7813 77.6993 86.8008C78.6368 86.9063 79.1407 87.3047 79.6875 87.5156C80.1094 87.6719 80.7657 87.793 81.7344 87.5664C81.0235 88.0625 80.3086 88.5781 79.5821 89.1211C79.1485 89.4414 78.7188 89.7735 78.3008 90.0938C78.1407 90.0352 77.8282 89.8984 77.6172 89.5938C77.3008 89.1406 77.3165 88.5274 77.6407 87.9961C77.1133 87.8438 76.8282 87.4492 76.9063 87.1562C76.9571 86.9453 77.168 86.8242 77.25 86.7891L77.2657 86.7812Z" fill="#EB1C24" stroke="black" stroke-width="0.5625" stroke-linecap="round" stroke-linejoin="round"/>
<path d="M53.1367 128.121C51.8399 130.609 50.543 133.102 49.2461 135.582C46.8008 130.211 44.3633 124.836 41.918 119.465" stroke="black" stroke-width="0.5625" stroke-linecap="round" stroke-linejoin="round"/>
<path d="M49.2461 135.582C50.3398 137.891 51.4414 140.203 52.5391 142.512" stroke="black" stroke-width="0.5625" stroke-linecap="round" stroke-linejoin="round"/>
<path d="M108.211 62.3827C108.301 62.8007 104.836 64.1992 101.16 64.7382C101.16 64.7382 95.3906 65.5624 90.6758 63.6484C90.4141 63.5468 90.6992 63.6484 85.3633 61.1093C83.3476 60.1484 82.2969 59.7499 81.1875 59.6992C80.414 59.6601 77.9023 59.7187 74.9609 63.0664C75.2344 62.4062 76.5508 59.3593 79.8086 58.1093C81.6211 57.4101 83.2109 57.582 83.5664 57.6289C85.6484 57.8906 86.9844 58.9765 87.9219 59.6211C90.8086 61.6093 93.75 62.0507 97.7851 62.6523C103.852 63.5507 108.105 61.9257 108.211 62.3906V62.3827Z" stroke="white" stroke-width="0.5625" stroke-linecap="round" stroke-linejoin="round"/>
<path d="M75.2031 59.6367C75.0156 60.0781 74.5195 61.4297 74.9531 63.0664C75.2617 64.2188 75.9063 64.9844 76.2539 65.3438C76.5156 64.8516 76.9961 64.1133 77.8281 63.5078C80.1992 61.7656 83.1914 62.7344 83.586 62.8711C84.1407 63.0586 84.5625 63.2812 84.8985 63.5391C86.5742 64.7734 87.4219 65.9766 87.8985 66.5469C90.3907 69.5235 96.4961 64.9687 102.301 67.9844C104.355 69.0508 105.848 70.7969 106.996 70.1836C107.969 69.6562 107.895 67.8633 109.484 67.0781C109.926 66.8594 110.355 66.793 110.633 66.7695" stroke="white" stroke-width="0.5625" stroke-linecap="round" stroke-linejoin="round"/>
<path d="M104.316 81.7383C104.438 81.4336 104.676 80.9062 105.121 80.3828C107.086 78.0351 110.219 79.0117 112.746 77.3828C113.754 76.7383 115.035 75.4336 115.77 72.5156" stroke="white" stroke-width="0.5625" stroke-linecap="round" stroke-linejoin="round"/>
<path d="M115.817 62.1953C116.121 62.6836 116.406 63.2891 116.574 64.0117C116.699 64.5742 116.781 64.961 116.574 65.1876C116.258 65.5235 115.359 65.3829 114.879 64.8946C114.293 64.2969 114.691 63.5 114.195 63.1641C113.617 62.7735 112.336 63.1641 112.125 63.7852C111.609 65.2852 116.754 69.5313 118.629 68.4727C120.328 67.5118 120.121 61.7305 116.863 59.1876C115.461 58.0938 112.965 57.1758 110.871 58.2188C110.625 58.3399 108.984 59.1954 108.516 60.9727C107.625 64.3555 111.758 68.2344 115.305 71.5626C116.371 72.5586 117.285 73.3164 117.863 73.7735" stroke="white" stroke-width="0.5625" stroke-linecap="round" stroke-linejoin="round"/>
<path d="M95.8281 77.6445C94.207 77.1719 93.0664 76.0703 92.9492 74.8398C92.8281 73.6484 93.7187 72.7187 94.2734 72.1562C95.8945 70.4844 99.0742 68.9297 101.926 69.8828C104.234 70.6562 105.234 73.0234 107.453 72.9141C107.715 72.8984 108.031 72.875 108.359 72.6875C109.336 72.1172 109.133 70.8125 109.949 69.1992C110.176 68.7578 110.559 68.1367 111.219 67.4766" stroke="white" stroke-width="0.5625" stroke-linecap="round" stroke-linejoin="round"/>
<path d="M89.5039 177.809C92.0781 179.953 94.6641 182.082 97.2383 184.227C99.5117 183.5 101.301 182.531 102.766 181.152C105.031 179.008 108.051 174.754 108.891 173.586C108.891 173.586 110.461 171.734 111.594 169.527C115.102 162.672 118.5 155.074 120.316 150.934C116.496 151.859 112.688 152.781 108.879 153.703C107.887 152.039 106.898 150.363 105.914 148.676C105.141 147.359 104.379 146.047 103.621 144.734C102.531 148.406 101.437 152.09 100.328 155.789C99.1289 159.785 97.9258 163.762 96.7109 167.719C92.7383 169.535 88.6797 171.5 84.5625 173.613C86.2031 175.023 87.8476 176.426 89.5117 177.816L89.5039 177.809Z" fill="white" stroke="black" stroke-width="0.5625" stroke-linecap="round" stroke-linejoin="round"/>
<path d="M62.2109 154.391C61.1719 151.926 60.1211 149.457 59.0781 146.996C58.1484 148.961 56.7148 151.43 54.5117 153.906C53.332 155.227 52.1562 156.297 51.0664 157.176C52.1992 162.656 53.332 168.141 54.4648 173.621C57.1055 171.547 59.7539 169.469 62.3906 167.391C62.332 163.062 62.2734 158.727 62.2109 154.398V154.391Z" fill="black" stroke="black" stroke-width="0.5625" stroke-linecap="round" stroke-linejoin="round"/>
<path d="M49.6289 134.855C49.8086 134.906 50.0937 135.004 50.4141 135.176C53.3789 136.754 53.6406 141.582 53.7617 143.488C54.5547 155.758 54.6211 168.078 55.8828 180.305C56.0469 181.902 56.5117 185.75 54.1875 188.383C52.9961 189.734 51.4805 190.309 50.5352 190.578C50.8789 189.664 50.9023 189.035 50.6016 188.676C49.9219 187.871 47.5664 188.496 43.5586 190.543C44.5273 187.625 45.7813 182.996 46.1094 177.223C46.4688 170.906 45.3984 168.875 45.6836 161.773C45.9531 155.031 47.0313 153.891 47.6172 147.598C48.0156 143.27 48.1406 136.926 46.6055 128.969C47.2266 128.863 47.6094 129.035 47.7735 129.125C48.6289 129.598 49.0195 130.953 48.5547 132.441C48.6602 132.926 48.8399 133.535 49.1914 134.18C49.336 134.434 49.4844 134.668 49.6289 134.871V134.855Z" fill="black" stroke="black" stroke-width="0.5625" stroke-linecap="round" stroke-linejoin="round"/>
<path d="M74.0469 139.699C74.2656 138.973 75.2461 136.004 78.3086 134.18C82.1914 131.863 86.1992 133.316 86.7148 133.512C84.9453 134.066 82.9883 134.797 80.9023 135.77C78.2031 137.031 75.9141 138.41 74.0547 139.699H74.0469Z" stroke="black" stroke-width="0.5625" stroke-linecap="round" stroke-linejoin="round"/>
<path d="M73.5664 147.133C73.7383 146.563 74.4961 144.266 76.8672 142.859C79.875 141.066 82.9805 142.191 83.3867 142.34C82.0117 142.766 80.4883 143.336 78.8789 144.086C76.7851 145.063 75.0156 146.137 73.5664 147.133Z" stroke="black" stroke-width="0.5625" stroke-linecap="round" stroke-linejoin="round"/>
<path d="M73.0781 153.434C73.2148 152.988 73.8086 151.192 75.668 150.078C78.0313 148.676 80.461 149.555 80.7735 149.676C79.7031 150.012 78.5117 150.453 77.2422 151.047C75.6016 151.813 74.2109 152.652 73.0781 153.442V153.434Z" stroke="black" stroke-width="0.5625" stroke-linecap="round" stroke-linejoin="round"/>
<path d="M72.7578 158.871C72.8633 158.516 73.3359 157.086 74.8125 156.207C76.6875 155.09 78.6133 155.789 78.8633 155.887C78.0078 156.156 77.0625 156.508 76.0586 156.973C74.7539 157.578 73.6562 158.246 72.7578 158.871Z" stroke="black" stroke-width="0.5625" stroke-linecap="round" stroke-linejoin="round"/>
<path d="M72.5859 163.578C72.668 163.301 73.0352 162.192 74.1836 161.512C75.6367 160.641 77.1445 161.188 77.332 161.262C76.6719 161.473 75.9297 161.742 75.1484 162.11C74.1367 162.582 73.2812 163.102 72.5781 163.586L72.5859 163.578Z" stroke="black" stroke-width="0.5625" stroke-linecap="round" stroke-linejoin="round"/>
<path d="M72.1875 167.977C72.2617 167.734 72.586 166.762 73.5899 166.16C74.8711 165.395 76.1914 165.875 76.3594 165.941C75.7734 166.121 75.1289 166.363 74.4453 166.684C73.5508 167.098 72.8008 167.555 72.1875 167.984V167.977Z" stroke="black" stroke-width="0.5625" stroke-linecap="round" stroke-linejoin="round"/>
<path d="M72.0391 171.859C72.0898 171.672 72.3437 170.922 73.1172 170.457C74.1094 169.863 75.1289 170.238 75.2539 170.285C74.8047 170.426 74.3008 170.613 73.7773 170.863C73.0859 171.184 72.5117 171.539 72.0312 171.859H72.0391Z" stroke="black" stroke-width="0.5625" stroke-linecap="round" stroke-linejoin="round"/>
<path d="M74.0469 139.594C74.0313 138.828 73.9063 135.719 72.2188 133.203C70.0742 130.016 67.1992 130.453 66.8242 130.512C67.8906 131.481 69.0469 132.664 70.2461 134.113C71.7969 135.996 73.0508 137.887 74.0469 139.586V139.594Z" stroke="black" stroke-width="0.5625" stroke-linecap="round" stroke-linejoin="round"/>
<path d="M73.1484 146.996C73.0937 146.414 72.8164 144.012 71.3789 142.16C69.5391 139.813 67.3437 140.317 67.0586 140.383C67.9336 141.074 68.8945 141.922 69.8984 142.977C71.2031 144.344 72.2773 145.738 73.1484 146.996Z" stroke="black" stroke-width="0.5625" stroke-linecap="round" stroke-linejoin="round"/>
<path d="M72.8789 153.434C72.8242 152.977 72.5703 151.094 71.4062 149.676C69.9297 147.867 68.2109 148.297 67.9961 148.356C68.6914 148.879 69.457 149.531 70.2656 150.336C71.3086 151.387 72.1797 152.457 72.8789 153.434Z" stroke="black" stroke-width="0.5625" stroke-linecap="round" stroke-linejoin="round"/>
<path d="M72.5234 158.871C72.457 158.512 72.1367 157.039 71.1289 155.988C69.8477 154.656 68.5195 155.098 68.3477 155.156C68.9336 155.523 69.5781 155.996 70.2656 156.582C71.1601 157.348 71.9102 158.141 72.5234 158.871Z" stroke="black" stroke-width="0.5625" stroke-linecap="round" stroke-linejoin="round"/>
<path d="M72.2852 163.578C72.2461 163.297 72.0586 162.141 71.3242 161.285C70.3867 160.191 69.3359 160.484 69.2031 160.52C69.6367 160.836 70.125 161.227 70.6367 161.711C71.2969 162.344 71.8437 162.996 72.293 163.586L72.2852 163.578Z" stroke="black" stroke-width="0.5625" stroke-linecap="round" stroke-linejoin="round"/>
<path d="M71.9531 167.977C71.918 167.727 71.7383 166.715 71.0781 165.973C70.2383 165.028 69.3164 165.297 69.1953 165.336C69.5859 165.606 70.0117 165.942 70.4687 166.363C71.0625 166.91 71.5508 167.473 71.9531 167.985V167.977Z" stroke="black" stroke-width="0.5625" stroke-linecap="round" stroke-linejoin="round"/>
<path d="M71.5352 171.875C71.4961 171.688 71.332 170.906 70.8008 170.352C70.125 169.648 69.4219 169.871 69.3281 169.91C69.6367 170.105 69.9844 170.352 70.3438 170.668C70.8164 171.074 71.2031 171.492 71.5274 171.883L71.5352 171.875Z" stroke="black" stroke-width="0.5625" stroke-linecap="round" stroke-linejoin="round"/>
<path d="M98.7812 154.16L100.949 153.672C99.5312 158.352 98.1133 163.039 96.7031 167.719C96.0391 167.555 95.3789 167.398 94.7109 167.234L98.7812 154.16Z" fill="black" stroke="black" stroke-width="0.5625" stroke-linecap="round" stroke-linejoin="round"/>
<path d="M85.1328 52.0391C88.5234 52.2344 93.0391 52.8516 98.0938 54.5586C102.234 55.9609 105.594 57.7187 108.137 59.293" stroke="black" stroke-width="0.5625" stroke-linecap="round" stroke-linejoin="round"/>
<path d="M91.875 47.2383C91.3281 47.7109 90.6133 48.4531 90.1133 49.5117C89.4219 50.9609 89.4062 52.3633 89.3242 52.3477C89.2422 52.3398 89.4375 51.0781 89.2891 49.5859C89.1602 48.3437 88.8359 47.3438 88.5742 46.6758C88.8984 46.8438 89.3242 47.0235 89.836 47.1406C90.6758 47.336 91.3945 47.3008 91.875 47.2344V47.2383Z" fill="#EB1C24" stroke="black" stroke-width="0.5625" stroke-linecap="round" stroke-linejoin="round"/>
<path d="M100.598 51.4101C100.207 51.7851 99.8008 52.2187 99.3906 52.7148C98.8633 53.3437 98.4453 53.9609 98.0937 54.5156C98.2266 53.8633 98.332 53.0078 98.2734 52.0156C98.2344 51.418 98.1445 50.8906 98.0391 50.4336C98.3164 50.6289 98.6836 50.8555 99.1406 51.043C99.7031 51.2734 100.215 51.3633 100.59 51.4101H100.598Z" fill="#EB1C24" stroke="black" stroke-width="0.5625" stroke-linecap="round" stroke-linejoin="round"/>
<path d="M109.746 54.9414C109.172 55.1602 108.375 55.5352 107.617 56.2344C106.641 57.1328 106.176 58.1602 106.078 58.1133C105.977 58.0625 106.613 57.0117 106.859 55.5664C107.016 54.6367 106.957 53.8398 106.883 53.3008C107.176 53.5781 107.566 53.8985 108.059 54.1992C108.699 54.5899 109.289 54.8164 109.746 54.9414Z" fill="#EB1C24" stroke="black" stroke-width="0.5625" stroke-linecap="round" stroke-linejoin="round"/>
<path d="M85.7265 42.5391C85.7265 43.4532 85.7187 44.3673 85.4492 44.4337C85.1484 44.504 84.4805 43.5274 84.4805 42.4922C84.4805 41.4571 85.1484 40.4844 85.4492 40.5508C85.7344 40.6172 85.7344 41.629 85.7265 42.5391Z" fill="#EB1C24" stroke="black" stroke-width="0.5625" stroke-linecap="round" stroke-linejoin="round"/>
<path d="M115.957 52.836C115.344 53.5118 114.727 54.1915 114.887 54.418C115.059 54.672 116.211 54.4024 116.91 53.6446C117.609 52.8868 117.773 51.7188 117.512 51.5587C117.254 51.418 116.574 52.168 115.965 52.836H115.957Z" fill="#EB1C24" stroke="black" stroke-width="0.5625" stroke-linecap="round" stroke-linejoin="round"/>
<path d="M97.0273 44.4142C96.8007 44.9142 96.2382 45.4766 95.6406 45.4024C94.8906 45.3048 94.3945 44.2189 94.582 43.3478C94.7617 42.5235 95.5781 41.8009 96.2343 41.9376C97.0039 42.1017 97.4531 43.4689 97.0273 44.4142Z" fill="#EB1C24" stroke="black" stroke-width="0.5625" stroke-linecap="round" stroke-linejoin="round"/>
<path d="M105.391 47.1368C105.316 47.6836 105.496 48.461 106.043 48.7032C106.734 49.0157 107.731 48.3516 108.024 47.5157C108.309 46.7227 107.992 45.6719 107.363 45.4532C106.621 45.1915 105.516 46.1133 105.383 47.1368H105.391Z" fill="#EB1C24" stroke="black" stroke-width="0.5625" stroke-linecap="round" stroke-linejoin="round"/>
<path d="M77.6484 87.9961C77.7656 88.0234 77.9336 88.0703 78.1406 88.0937C78.668 88.1601 79.0781 88.0938 79.3516 88.0391C79.9883 87.9258 80.7891 87.7773 81.7344 87.5742" fill="#EB1C24"/>
<path d="M77.6484 87.9961C77.7656 88.0234 77.9336 88.0703 78.1406 88.0937C78.668 88.1601 79.0781 88.0938 79.3516 88.0391C79.9883 87.9258 80.7891 87.7773 81.7344 87.5742" stroke="black" stroke-width="0.5625" stroke-linecap="round" stroke-linejoin="round"/>
<path d="M49.1406 132.477C49.6953 136.676 50.1758 140.996 50.5742 145.43C51.8984 160.234 52.0781 174.117 51.5312 186.891" stroke="white" stroke-width="0.5625" stroke-linecap="round" stroke-linejoin="round"/>
<path d="M92.6485 172.949C88.2227 174.664 83.7461 176.504 79.207 178.469C78.3437 178.844 77.4883 179.219 76.6367 179.594C76.6289 179.594 76.6133 179.594 76.6055 179.594C75.4414 180.109 73.6406 180.824 71.3633 181.355C69.7188 181.738 69.1211 181.73 66.6133 182.059C58.3281 183.172 56.6484 184.398 55.7266 185.336C55.4023 185.668 55.0195 186.262 54.2539 187.461C53.0547 189.336 51.9609 192.094 49.8164 197.539C49.1641 199.203 48.5313 200.84 49.1914 201.453C49.3945 201.641 49.6563 201.688 49.8594 201.695C50.5664 199.879 51.2617 198.059 51.9688 196.242C51.8906 196.406 51.7891 196.664 51.6445 196.977C51.2344 197.879 50.7891 198.785 50.5195 199.738C50.3711 200.137 50.2344 200.523 50.1211 200.93C49.8164 201.934 49.6133 202.199 49.7266 202.574C49.8086 202.871 50.0547 203.246 50.4375 203.336C50.8711 203.426 51.3984 203.129 51.6602 202.551C51.9766 202.766 52.3711 202.648 52.6797 202.469C52.875 202.348 53.0625 202.184 53.2344 202.016C53.3086 201.941 53.3867 201.859 53.4531 201.785C53.4609 201.777 53.4766 201.754 53.4883 201.738C53.5859 201.816 53.707 201.859 53.8516 201.867C54.3164 201.883 54.7656 201.539 55.1094 201.262C55.5156 200.938 55.8828 200.57 56.2344 200.195C56.7383 199.656 57.1641 199.055 57.5938 198.453C57.8906 198.035 58.1992 197.637 58.582 197.285L58.7852 197.129C58.7852 197.129 58.8086 197.129 58.8164 197.113C59.0039 196.977 59.2031 196.852 59.3984 196.715C60.1641 196.184 60.9297 195.656 61.6875 195.125C62.0781 194.848 62.4453 194.578 62.8281 194.301C63.1562 194.059 63.457 193.781 63.7813 193.527C63.8984 193.453 64.0938 193.324 64.3438 193.176C68.2188 190.828 70.4531 190.813 73.418 189.012C74.0781 188.609 75.0742 187.941 76.1836 186.891C79.5508 187.176 83.0391 187.406 86.6485 187.574C91.5156 187.789 96.1875 187.863 100.656 187.828C97.7695 182.984 94.7266 178.211 92.6563 172.949H92.6485Z" fill="white" stroke="black" stroke-width="0.5625" stroke-linecap="round" stroke-linejoin="round"/>
<path d="M51.9766 196.258C52.1172 195.922 52.3438 195.395 52.5899 194.734C52.9219 193.859 53.0039 193.543 53.2422 193.016C53.543 192.344 53.8516 191.879 54.1875 191.359C55.3437 189.613 56.5742 187.887 57.0234 187.25" stroke="black" stroke-width="0.5625" stroke-linecap="round" stroke-linejoin="round"/>
<path d="M51.6602 202.566C51.5781 202.496 51.457 202.379 51.3906 202.191C51.3164 201.965 51.3594 201.762 51.3828 201.656C51.5938 200.781 51.9531 200.066 51.9531 200.066C52.0938 199.754 52.2969 199.301 52.5586 198.77C53.2109 197.406 54.1367 195.469 55.3867 193.52C56.1914 192.266 57.375 190.609 59.0703 188.809" stroke="black" stroke-width="0.5625" stroke-linecap="round" stroke-linejoin="round"/>
<path d="M53.4609 201.793C53.4218 201.727 53.3476 201.582 53.3086 201.387C53.2031 200.832 53.5195 200.344 53.6328 200.172C56.3008 195.996 55.7344 196.355 57.0898 194.871C58.1992 193.648 59.789 192.078 61.9218 190.477" stroke="black" stroke-width="0.5625" stroke-linecap="round" stroke-linejoin="round"/>
<path d="M119.227 153.379C120.586 154.656 122.488 156.711 124.125 159.641C125.324 161.789 127.254 165.117 127.172 169.707C127.109 173.531 125.836 176.547 124.809 178.422C125.227 180.359 125.504 183.215 124.051 185.719C122.887 187.723 121.387 188.172 118.59 190.504C114.336 194.059 114.684 195.637 112.637 196.879C108.09 199.656 101.406 194.898 90.0977 189.441C85.5469 187.242 78.9453 184.297 70.5391 181.414C70.0938 181.551 69.6016 181.672 69.0469 181.766C68.5742 181.852 68.1289 181.902 67.7344 181.926C67.0742 180.5 67.2539 178.828 68.1992 177.605C69.211 176.293 70.9258 175.707 72.5547 176.121C73.1719 175.406 74.1211 174.395 75.4219 173.352C79.8672 169.789 84.6914 168.816 91.4688 167.938C105.645 166.094 107.039 167.406 110.707 165.281C114.898 162.852 117.555 158.539 119.199 153.387L119.227 153.379Z" fill="black" stroke="black" stroke-width="0.5625" stroke-linecap="round" stroke-linejoin="round"/>
<path d="M122.43 179.383C118.926 180.746 114.797 181.961 110.102 182.645C92.9492 185.141 78.9453 178.992 72.3672 175.496" stroke="white" stroke-width="0.5625" stroke-linecap="round" stroke-linejoin="round"/>
<path d="M119.242 157.199C119.551 157.488 124.547 162.32 123.211 164.848C122.602 165.996 120.531 166.199 116.406 166.551C113.691 166.781 110.766 166.852 106.027 166.633C103.523 166.52 101.477 166.371 100.102 166.266" stroke="white" stroke-width="0.5625" stroke-linecap="round" stroke-linejoin="round"/>
<path d="M95.2031 182.809C98.3711 183.648 102.016 184.871 105.922 186.68C108.586 187.918 110.949 189.223 113.012 190.504" stroke="white" stroke-width="0.5625" stroke-linecap="round" stroke-linejoin="round"/>
<path d="M98.5742 108.043C100.371 108.836 102.434 109.617 104.746 110.285C108.629 111.41 112.164 111.922 115.094 112.129" stroke="black" stroke-width="0.5625" stroke-linecap="round" stroke-linejoin="round"/>
<path d="M75.7266 106.273C76.2969 106.43 77.1211 106.641 78.1367 106.812C79.2383 107 80.0039 107.137 81.0078 107.098C81.6524 107.074 82.6289 106.961 83.7891 106.566" stroke="black" stroke-width="0.5625" stroke-linecap="round" stroke-linejoin="round"/>
<path d="M79.8008 77.7656C80.332 77.8789 81.2031 77.9883 82.2461 77.8008C83.5742 77.5625 84.5039 76.9531 84.9766 76.5938" stroke="black" stroke-width="0.5625" stroke-linecap="round" stroke-linejoin="round"/>
<path d="M56.8711 184.859C57.4063 185.172 57.9375 185.488 58.4688 185.797" stroke="black" stroke-width="0.5625" stroke-linecap="round" stroke-linejoin="round"/>
<path d="M61.8359 187.625C62.7383 188.277 63.6445 188.937 64.5469 189.59" stroke="black" stroke-width="0.5625" stroke-linecap="round" stroke-linejoin="round"/>
<path d="M76.1836 186.891L76.3203 185.801" stroke="black" stroke-width="0.5625" stroke-linecap="round" stroke-linejoin="round"/>
<defs>
<linearGradient id="paint0_linear_2321_5103" x1="158.115" y1="49.6175" x2="11.475" y2="49.6175" gradientUnits="userSpaceOnUse">
<stop stop-color="#8F8587"/>
<stop offset="0.00390625" stop-color="#908688"/>
<stop offset="0.0078125" stop-color="#918789"/>
<stop offset="0.0117188" stop-color="#92888A"/>
<stop offset="0.015625" stop-color="#92898B"/>
<stop offset="0.0195312" stop-color="#938A8B"/>
<stop offset="0.0234375" stop-color="#948B8C"/>
<stop offset="0.0273438" stop-color="#958C8D"/>
<stop offset="0.03125" stop-color="#968D8E"/>
<stop offset="0.0351562" stop-color="#978D8F"/>
<stop offset="0.0390625" stop-color="#988E90"/>
<stop offset="0.0429687" stop-color="#988F91"/>
<stop offset="0.046875" stop-color="#999092"/>
<stop offset="0.0507812" stop-color="#9A9193"/>
<stop offset="0.0546875" stop-color="#9B9294"/>
<stop offset="0.0585937" stop-color="#9C9395"/>
<stop offset="0.0625" stop-color="#9D9496"/>
<stop offset="0.0664062" stop-color="#9D9596"/>
<stop offset="0.0703125" stop-color="#9E9697"/>
<stop offset="0.0742187" stop-color="#9F9798"/>
<stop offset="0.078125" stop-color="#A09899"/>
<stop offset="0.0820312" stop-color="#A1999A"/>
<stop offset="0.0859375" stop-color="#A2999B"/>
<stop offset="0.0898437" stop-color="#A39A9C"/>
<stop offset="0.09375" stop-color="#A39B9D"/>
<stop offset="0.0976562" stop-color="#A49C9E"/>
<stop offset="0.101562" stop-color="#A59D9F"/>
<stop offset="0.105469" stop-color="#A69EA0"/>
<stop offset="0.109375" stop-color="#A79FA0"/>
<stop offset="0.113281" stop-color="#A8A0A1"/>
<stop offset="0.117187" stop-color="#A8A1A2"/>
<stop offset="0.121094" stop-color="#A9A2A3"/>
<stop offset="0.125" stop-color="#AAA3A4"/>
<stop offset="0.128906" stop-color="#ABA4A5"/>
<stop offset="0.132812" stop-color="#ACA5A6"/>
<stop offset="0.136719" stop-color="#ADA5A7"/>
<stop offset="0.140625" stop-color="#AEA6A8"/>
<stop offset="0.144531" stop-color="#AEA7A9"/>
<stop offset="0.148438" stop-color="#AFA8AA"/>
<stop offset="0.152344" stop-color="#B0A9AB"/>
<stop offset="0.15625" stop-color="#B1AAAB"/>
<stop offset="0.160156" stop-color="#B2ABAC"/>
<stop offset="0.164062" stop-color="#B3ACAD"/>
<stop offset="0.167969" stop-color="#B3ADAE"/>
<stop offset="0.171875" stop-color="#B4AEAF"/>
<stop offset="0.175781" stop-color="#B5AFB0"/>
<stop offset="0.179688" stop-color="#B6B0B1"/>
<stop offset="0.183594" stop-color="#B7B1B2"/>
<stop offset="0.1875" stop-color="#B8B2B3"/>
<stop offset="0.191406" stop-color="#B9B2B4"/>
<stop offset="0.195312" stop-color="#B9B3B5"/>
<stop offset="0.199219" stop-color="#BAB4B5"/>
<stop offset="0.203125" stop-color="#BBB5B6"/>
<stop offset="0.207031" stop-color="#BCB6B7"/>
<stop offset="0.210938" stop-color="#BDB7B8"/>
<stop offset="0.214844" stop-color="#BEB8B9"/>
<stop offset="0.21875" stop-color="#BEB9BA"/>
<stop offset="0.222656" stop-color="#BFBABB"/>
<stop offset="0.226562" stop-color="#C0BBBC"/>
<stop offset="0.230469" stop-color="#C1BCBD"/>
<stop offset="0.234375" stop-color="#C2BDBE"/>
<stop offset="0.238281" stop-color="#C3BEBF"/>
<stop offset="0.242188" stop-color="#C3BEBF"/>
<stop offset="0.246094" stop-color="#C4BFC0"/>
<stop offset="0.25" stop-color="#C5C0C1"/>
<stop offset="0.253906" stop-color="#C6C1C2"/>
<stop offset="0.257812" stop-color="#C6C2C3"/>
<stop offset="0.261719" stop-color="#C7C3C3"/>
<stop offset="0.265625" stop-color="#C8C3C4"/>
<stop offset="0.269531" stop-color="#C9C4C5"/>
<stop offset="0.273438" stop-color="#C9C5C6"/>
<stop offset="0.277344" stop-color="#CAC6C7"/>
<stop offset="0.28125" stop-color="#CBC7C7"/>
<stop offset="0.285156" stop-color="#CCC7C8"/>
<stop offset="0.289062" stop-color="#CCC8C9"/>
<stop offset="0.292969" stop-color="#CDC9CA"/>
<stop offset="0.296875" stop-color="#CECACB"/>
<stop offset="0.300781" stop-color="#CFCBCB"/>
<stop offset="0.304688" stop-color="#CFCCCC"/>
<stop offset="0.308594" stop-color="#D0CCCD"/>
<stop offset="0.3125" stop-color="#D1CDCE"/>
<stop offset="0.316406" stop-color="#D2CECF"/>
<stop offset="0.320312" stop-color="#D2CFCF"/>
<stop offset="0.324219" stop-color="#D3D0D0"/>
<stop offset="0.328125" stop-color="#D4D0D1"/>
<stop offset="0.332031" stop-color="#D5D1D2"/>
<stop offset="0.335938" stop-color="#D5D2D3"/>
<stop offset="0.339844" stop-color="#D6D3D3"/>
<stop offset="0.34375" stop-color="#D7D4D4"/>
<stop offset="0.347656" stop-color="#D8D5D5"/>
<stop offset="0.351562" stop-color="#D8D5D6"/>
<stop offset="0.355469" stop-color="#D9D6D7"/>
<stop offset="0.359375" stop-color="#DAD7D7"/>
<stop offset="0.363281" stop-color="#DBD8D8"/>
<stop offset="0.367188" stop-color="#DBD9D9"/>
<stop offset="0.371094" stop-color="#DCDADA"/>
<stop offset="0.375" stop-color="#DDDADB"/>
<stop offset="0.378906" stop-color="#DEDBDB"/>
<stop offset="0.382812" stop-color="#DEDCDC"/>
<stop offset="0.386719" stop-color="#DFDDDD"/>
<stop offset="0.390625" stop-color="#E0DEDE"/>
<stop offset="0.394531" stop-color="#E1DEDF"/>
<stop offset="0.398438" stop-color="#E1DFE0"/>
<stop offset="0.402344" stop-color="#E2E0E0"/>
<stop offset="0.40625" stop-color="#E3E1E1"/>
<stop offset="0.410156" stop-color="#E4E2E2"/>
<stop offset="0.414062" stop-color="#E4E3E3"/>
<stop offset="0.417969" stop-color="#E5E3E4"/>
<stop offset="0.421875" stop-color="#E6E4E4"/>
<stop offset="0.425781" stop-color="#E6E5E5"/>
<stop offset="0.429688" stop-color="#E7E6E6"/>
<stop offset="0.433594" stop-color="#E8E7E7"/>
<stop offset="0.4375" stop-color="#E9E7E8"/>
<stop offset="0.441406" stop-color="#E9E8E8"/>
<stop offset="0.445312" stop-color="#EAE9E9"/>
<stop offset="0.449219" stop-color="#EBEAEA"/>
<stop offset="0.453125" stop-color="#ECEBEB"/>
<stop offset="0.457031" stop-color="#ECEBEB"/>
<stop offset="0.460938" stop-color="#EDECEC"/>
<stop offset="0.464844" stop-color="#EDECEC"/>
<stop offset="0.46875" stop-color="#EEEDED"/>
<stop offset="0.472656" stop-color="#EEEEEE"/>
<stop offset="0.476562" stop-color="#EFEEEE"/>
<stop offset="0.480469" stop-color="#EFEFEF"/>
<stop offset="0.484375" stop-color="#F0EFEF"/>
<stop offset="0.488281" stop-color="#F1F0F0"/>
<stop offset="0.492188" stop-color="#F1F1F1"/>
<stop offset="0.496094" stop-color="#F2F1F1"/>
<stop offset="0.5" stop-color="#F2F2F2"/>
<stop offset="0.503906" stop-color="#F3F2F2"/>
<stop offset="0.507812" stop-color="#F3F3F3"/>
<stop offset="0.511719" stop-color="#F4F4F4"/>
<stop offset="0.515625" stop-color="#F5F4F4"/>
<stop offset="0.519531" stop-color="#F5F5F5"/>
<stop offset="0.523438" stop-color="#F6F5F5"/>
<stop offset="0.527344" stop-color="#F6F6F6"/>
<stop offset="0.53125" stop-color="#F7F7F7"/>
<stop offset="0.535156" stop-color="#F7F7F7"/>
<stop offset="0.539062" stop-color="#F8F8F8"/>
<stop offset="0.542969" stop-color="#F8F8F8"/>
<stop offset="0.546875" stop-color="#F9F9F9"/>
<stop offset="0.550781" stop-color="#FAFAFA"/>
<stop offset="0.554688" stop-color="#FAFAFA"/>
<stop offset="0.5625" stop-color="#FBFBFB"/>
<stop offset="0.625" stop-color="#FBFBFB"/>
<stop offset="0.75" stop-color="#FBFBFB"/>
<stop offset="1" stop-color="#FBFBFB"/>
</linearGradient>
<linearGradient id="paint1_linear_2321_5103" x1="11.325" y1="188.608" x2="158.04" y2="188.608" gradientUnits="userSpaceOnUse">
<stop stop-color="#8F8587"/>
<stop offset="0.00390625" stop-color="#908688"/>
<stop offset="0.0078125" stop-color="#918789"/>
<stop offset="0.0117188" stop-color="#91888A"/>
<stop offset="0.015625" stop-color="#92898A"/>
<stop offset="0.0195312" stop-color="#938A8B"/>
<stop offset="0.0234375" stop-color="#948A8C"/>
<stop offset="0.0273438" stop-color="#958B8D"/>
<stop offset="0.03125" stop-color="#968C8E"/>
<stop offset="0.0351563" stop-color="#968D8F"/>
<stop offset="0.0390625" stop-color="#978E90"/>
<stop offset="0.0429688" stop-color="#988F91"/>
<stop offset="0.046875" stop-color="#999091"/>
<stop offset="0.0507813" stop-color="#9A9192"/>
<stop offset="0.0546875" stop-color="#9A9293"/>
<stop offset="0.0585938" stop-color="#9B9294"/>
<stop offset="0.0625" stop-color="#9C9395"/>
<stop offset="0.0664062" stop-color="#9D9496"/>
<stop offset="0.0703125" stop-color="#9E9597"/>
<stop offset="0.0742188" stop-color="#9E9698"/>
<stop offset="0.078125" stop-color="#9F9798"/>
<stop offset="0.0820312" stop-color="#A09899"/>
<stop offset="0.0859375" stop-color="#A1999A"/>
<stop offset="0.0898438" stop-color="#A29A9B"/>
<stop offset="0.09375" stop-color="#A39A9C"/>
<stop offset="0.0976562" stop-color="#A39B9D"/>
<stop offset="0.101562" stop-color="#A49C9E"/>
<stop offset="0.105469" stop-color="#A59D9F"/>
<stop offset="0.109375" stop-color="#A69E9F"/>
<stop offset="0.113281" stop-color="#A79FA0"/>
<stop offset="0.117188" stop-color="#A7A0A1"/>
<stop offset="0.121094" stop-color="#A8A1A2"/>
<stop offset="0.125" stop-color="#A9A2A3"/>
<stop offset="0.128906" stop-color="#AAA2A4"/>
<stop offset="0.132812" stop-color="#ABA3A5"/>
<stop offset="0.136719" stop-color="#ABA4A6"/>
<stop offset="0.140625" stop-color="#ACA5A6"/>
<stop offset="0.144531" stop-color="#ADA6A7"/>
<stop offset="0.148437" stop-color="#AEA7A8"/>
<stop offset="0.152344" stop-color="#AFA8A9"/>
<stop offset="0.15625" stop-color="#B0A9AA"/>
<stop offset="0.160156" stop-color="#B0AAAB"/>
<stop offset="0.164062" stop-color="#B1AAAC"/>
<stop offset="0.167969" stop-color="#B2ABAD"/>
<stop offset="0.171875" stop-color="#B3ACAD"/>
<stop offset="0.175781" stop-color="#B4ADAE"/>
<stop offset="0.179688" stop-color="#B4AEAF"/>
<stop offset="0.183594" stop-color="#B5AFB0"/>
<stop offset="0.1875" stop-color="#B6B0B1"/>
<stop offset="0.191406" stop-color="#B7B1B2"/>
<stop offset="0.195313" stop-color="#B8B2B3"/>
<stop offset="0.199219" stop-color="#B9B2B4"/>
<stop offset="0.203125" stop-color="#B9B3B4"/>
<stop offset="0.207031" stop-color="#BAB4B5"/>
<stop offset="0.210938" stop-color="#BBB5B6"/>
<stop offset="0.214844" stop-color="#BCB6B7"/>
<stop offset="0.21875" stop-color="#BDB7B8"/>
<stop offset="0.222656" stop-color="#BDB8B9"/>
<stop offset="0.226562" stop-color="#BEB9BA"/>
<stop offset="0.230469" stop-color="#BFBABB"/>
<stop offset="0.234375" stop-color="#C0BABB"/>
<stop offset="0.238281" stop-color="#C1BBBC"/>
<stop offset="0.242188" stop-color="#C1BCBD"/>
<stop offset="0.246094" stop-color="#C2BDBE"/>
<stop offset="0.25" stop-color="#C3BEBF"/>
<stop offset="0.253906" stop-color="#C4BFC0"/>
<stop offset="0.257812" stop-color="#C5C0C1"/>
<stop offset="0.261719" stop-color="#C5C0C1"/>
<stop offset="0.265625" stop-color="#C6C1C2"/>
<stop offset="0.269531" stop-color="#C7C2C3"/>
<stop offset="0.273438" stop-color="#C8C3C4"/>
<stop offset="0.277344" stop-color="#C8C4C5"/>
<stop offset="0.28125" stop-color="#C9C5C5"/>
<stop offset="0.285156" stop-color="#CAC5C6"/>
<stop offset="0.289062" stop-color="#CBC6C7"/>
<stop offset="0.292969" stop-color="#CBC7C8"/>
<stop offset="0.296875" stop-color="#CCC8C9"/>
<stop offset="0.300781" stop-color="#CDC9C9"/>
<stop offset="0.304688" stop-color="#CDC9CA"/>
<stop offset="0.308594" stop-color="#CECACB"/>
<stop offset="0.3125" stop-color="#CFCBCC"/>
<stop offset="0.316406" stop-color="#D0CCCD"/>
<stop offset="0.320313" stop-color="#D0CDCD"/>
<stop offset="0.324219" stop-color="#D1CECE"/>
<stop offset="0.328125" stop-color="#D2CECF"/>
<stop offset="0.332031" stop-color="#D3CFD0"/>
<stop offset="0.335938" stop-color="#D3D0D1"/>
<stop offset="0.339844" stop-color="#D4D1D1"/>
<stop offset="0.34375" stop-color="#D5D2D2"/>
<stop offset="0.347656" stop-color="#D6D2D3"/>
<stop offset="0.351563" stop-color="#D6D3D4"/>
<stop offset="0.355469" stop-color="#D7D4D5"/>
<stop offset="0.359375" stop-color="#D8D5D5"/>
<stop offset="0.363281" stop-color="#D9D6D6"/>
<stop offset="0.367188" stop-color="#D9D7D7"/>
<stop offset="0.371094" stop-color="#DAD7D8"/>
<stop offset="0.375" stop-color="#DBD8D9"/>
<stop offset="0.378906" stop-color="#DCD9D9"/>
<stop offset="0.382813" stop-color="#DCDADA"/>
<stop offset="0.386719" stop-color="#DDDBDB"/>
<stop offset="0.390625" stop-color="#DEDCDC"/>
<stop offset="0.394531" stop-color="#DFDCDD"/>
<stop offset="0.398438" stop-color="#DFDDDD"/>
<stop offset="0.402344" stop-color="#E0DEDE"/>
<stop offset="0.40625" stop-color="#E1DFDF"/>
<stop offset="0.410156" stop-color="#E2E0E0"/>
<stop offset="0.414063" stop-color="#E2E0E1"/>
<stop offset="0.417969" stop-color="#E3E1E1"/>
<stop offset="0.421875" stop-color="#E4E2E2"/>
<stop offset="0.425781" stop-color="#E5E3E3"/>
<stop offset="0.429688" stop-color="#E5E4E4"/>
<stop offset="0.433594" stop-color="#E6E5E5"/>
<stop offset="0.4375" stop-color="#E7E5E5"/>
<stop offset="0.441406" stop-color="#E8E6E6"/>
<stop offset="0.445313" stop-color="#E8E7E7"/>
<stop offset="0.449219" stop-color="#E9E8E8"/>
<stop offset="0.453125" stop-color="#EAE9E9"/>
<stop offset="0.457031" stop-color="#EBE9E9"/>
<stop offset="0.460938" stop-color="#EBEAEA"/>
<stop offset="0.464844" stop-color="#ECEBEB"/>
<stop offset="0.46875" stop-color="#ECEBEB"/>
<stop offset="0.472656" stop-color="#EDECEC"/>
<stop offset="0.476563" stop-color="#EDEDED"/>
<stop offset="0.480469" stop-color="#EEEDED"/>
<stop offset="0.484375" stop-color="#EFEEEE"/>
<stop offset="0.488281" stop-color="#EFEEEE"/>
<stop offset="0.492188" stop-color="#F0EFEF"/>
<stop offset="0.496094" stop-color="#F0F0F0"/>
<stop offset="0.5" stop-color="#F1F0F0"/>
<stop offset="0.503906" stop-color="#F1F1F1"/>
<stop offset="0.507812" stop-color="#F2F1F1"/>
<stop offset="0.511719" stop-color="#F3F2F2"/>
<stop offset="0.515625" stop-color="#F3F3F3"/>
<stop offset="0.519531" stop-color="#F4F3F3"/>
<stop offset="0.523438" stop-color="#F4F4F4"/>
<stop offset="0.527344" stop-color="#F5F4F4"/>
<stop offset="0.53125" stop-color="#F5F5F5"/>
<stop offset="0.535156" stop-color="#F6F6F6"/>
<stop offset="0.539062" stop-color="#F6F6F6"/>
<stop offset="0.542969" stop-color="#F7F7F7"/>
<stop offset="0.546875" stop-color="#F8F7F7"/>
<stop offset="0.550781" stop-color="#F8F8F8"/>
<stop offset="0.554687" stop-color="#F9F9F9"/>
<stop offset="0.558594" stop-color="#F9F9F9"/>
<stop offset="0.5625" stop-color="#FAFAFA"/>
<stop offset="0.566406" stop-color="#FAFAFA"/>
<stop offset="0.570312" stop-color="#FBFBFB"/>
<stop offset="0.578125" stop-color="#FBFBFB"/>
<stop offset="0.59375" stop-color="#FBFBFB"/>
<stop offset="0.625" stop-color="#FBFBFB"/>
<stop offset="0.75" stop-color="#FBFBFB"/>
<stop offset="1" stop-color="#FBFBFB"/>
</linearGradient>
</defs>
</svg>
