<svg width="169" height="238" viewBox="0 0 169 238" fill="none" xmlns="http://www.w3.org/2000/svg">
<path d="M162.953 237.996H6.43359C3.11328 237.996 0.421875 235.281 0.421875 231.938V6.36719C0.421875 3.02344 3.11328 0.308594 6.43359 0.308594H162.953C166.273 0.308594 168.969 3.02344 168.969 6.36719V231.938C168.969 235.281 166.273 237.996 162.953 237.996Z" fill="white"/>
<mask id="mask0_2321_5097" style="mask-type:luminance" maskUnits="userSpaceOnUse" x="11" y="10" width="148" height="79">
<path d="M11 10H159V89H11V10Z" fill="white"/>
</mask>
<g mask="url(#mask0_2321_5097)">
<mask id="mask1_2321_5097" style="mask-type:luminance" maskUnits="userSpaceOnUse" x="11" y="10" width="148" height="79">
<path d="M158.102 88.0508C158.102 62.1523 158.109 36.2461 158.113 10.3516C109.262 10.3516 60.3984 10.3516 11.543 10.3594C11.5195 35.8359 11.4961 61.3125 11.4766 86.7891C14.0391 75.3516 19.2148 58.4844 29.0859 49.4766C36.6367 42.5938 40.4102 39.1406 43.3633 37.7617C44.7383 37.1172 49.125 35.2188 52.7539 30.7891C53.4297 29.9688 53.918 29.25 54.2266 28.7695C54.5391 29.1914 55.7539 30.7422 57.4258 30.7734C59.6016 30.8086 62.0312 28.2617 62.1523 24.4219C62.4062 24.9883 64.5469 29.5352 69.4062 30.5625C71.7461 31.0586 73.7109 30.5312 74.7227 30.1719C75.3828 29.625 76.2617 28.7773 77.0625 27.5625C77.8516 26.3711 78.2773 25.2539 78.5234 24.4414H91.0742C91.1484 24.9063 91.7539 28.3359 94.875 30.0469C97.9258 31.7188 101.023 30.4414 101.977 30.0586C105.27 28.7344 106.664 25.9961 106.973 25.3516C107.715 28.8906 110.191 31.0781 112.363 30.9062C112.719 30.8789 113.852 30.7266 115.027 29.4062L118.785 32.5352C120.254 33.4063 122.316 34.6875 124.695 36.3516C127.484 38.3008 136.738 44.8711 144.008 54.3164C153.66 66.8555 156.891 80.6641 158.094 88.0352L158.102 88.0508Z" fill="white"/>
</mask>
<g mask="url(#mask1_2321_5097)">
<path d="M11.4766 10.3516V88.0508H158.113V10.3516H11.4766Z" fill="url(#paint0_linear_2321_5097)"/>
</g>
</g>
<path d="M158.488 228.141H11.0156C11.0156 182.812 11.0156 137.484 11.0156 92.1523C11.0156 64.7617 11.0156 37.3789 11.0156 9.98828H158.488C158.488 37.3359 158.488 64.6797 158.488 92.0234C158.488 137.398 158.488 182.766 158.488 228.141Z" stroke="#0E0E0E" stroke-width="0.75" stroke-linecap="round" stroke-linejoin="round"/>
<path d="M84.668 32.4219C84.6133 31.8008 84.3594 29.6172 82.5508 27.7656C80.9336 26.1016 79.0273 25.7031 78.375 25.5898C78.4258 24.9375 78.4805 24.2852 78.5312 23.6328C79.3867 23.2344 81.1055 22.2891 82.5312 20.3789C83.9766 18.4336 84.3906 16.5 84.5234 15.5625C84.8633 16.7344 85.6055 18.7344 87.3008 20.6836C88.6055 22.1836 89.9922 23.1016 90.9531 23.6328C91.0039 24.2852 91.0586 24.9375 91.1094 25.5898C90.6445 25.6367 87.6523 25.9805 85.8516 28.5977C84.7969 30.1406 84.668 31.7188 84.6523 32.4219H84.668Z" fill="white"/>
<path d="M53.4609 21.9845C54.293 21.7423 55.6641 21.4806 57.2188 21.8556C58.5742 22.1759 59.4883 22.836 60.0078 23.2266C64.5664 26.6485 65.2422 29.3009 68.3789 30.504C68.7812 30.6602 71.7148 31.629 74.6719 30.2462C76.7539 29.2735 78.2383 27.0509 78.4727 24.6446C78.8008 21.1954 76.4024 17.7813 73.6211 17.1602C73.2969 17.086 71.543 16.6954 70.1094 17.7657C69.9297 17.9024 68.8203 18.7579 68.6641 20.2657C68.6406 20.4884 68.461 22.4337 69.9453 23.379C70.7774 23.9024 71.836 23.9337 72.6758 23.5431C73.8672 22.9962 74.586 21.6212 74.3985 20.1524C74.6914 20.4766 75.0977 20.9766 75.4219 21.6681C75.5781 21.9962 76.5977 24.254 75.6211 26.422C74.4375 29.0626 71.2031 29.5274 70.7695 29.586C67.8828 30.0001 64.8828 28.4845 62.918 25.7618" stroke="#0E0E0E" stroke-width="0.75" stroke-linecap="round" stroke-linejoin="round"/>
<path d="M78.5312 23.543C79.1016 23.2656 79.9961 22.7617 80.9024 21.9375C83.8047 19.2891 84.3359 15.6133 84.5781 13.9805C84.7109 13.0586 84.832 11.6836 84.6758 9.98438" stroke="#0E0E0E" stroke-width="0.75" stroke-linecap="round" stroke-linejoin="round"/>
<path d="M78.375 25.5C79.0859 25.6289 79.8594 25.8516 80.625 26.2422C84.082 28.0039 84.5938 31.6953 84.668 32.332" stroke="#0E0E0E" stroke-width="0.75" stroke-linecap="round" stroke-linejoin="round"/>
<path d="M116.039 21.9845C115.207 21.7423 113.836 21.4806 112.281 21.8556C110.926 22.1759 110.012 22.836 109.492 23.2266C104.934 26.6485 104.258 29.3009 101.121 30.504C100.719 30.6602 97.7852 31.629 94.8281 30.2462C92.7461 29.2735 91.2617 27.0509 91.0273 24.6446C90.6992 21.1954 93.0977 17.7813 95.8789 17.1602C96.2031 17.086 97.957 16.6954 99.3906 17.7657C99.5703 17.9024 100.68 18.7579 100.836 20.2657C100.859 20.4884 101.039 22.4337 99.5547 23.379C98.7226 23.9024 97.6641 23.9337 96.8242 23.5431C95.6328 22.9962 94.9141 21.6212 95.1016 20.1524C94.8086 20.4766 94.4023 20.9766 94.0781 21.6681C93.9219 21.9962 92.9023 24.254 93.8789 26.422C95.0625 29.0626 98.2969 29.5274 98.7305 29.586C101.617 30.0001 104.617 28.4845 106.582 25.7618" stroke="#0E0E0E" stroke-width="0.75" stroke-linecap="round" stroke-linejoin="round"/>
<path d="M91.125 25.5C90.4141 25.6289 89.6406 25.8516 88.875 26.2422C85.418 28.0039 84.9062 31.6953 84.832 32.332" stroke="#0E0E0E" stroke-width="0.75" stroke-linecap="round" stroke-linejoin="round"/>
<path d="M115.336 28.8359C115.223 29.0937 114.629 30.4062 113.242 30.8398C111.773 31.3047 110.484 30.4492 109.941 30.0898C107.672 28.582 107.445 25.7109 107.422 25.2461" stroke="#0E0E0E" stroke-width="0.75" stroke-linecap="round" stroke-linejoin="round"/>
<path d="M123.309 35.7462C122.664 35.379 121.754 34.8243 120.734 34.0782C117.789 31.9337 115.484 30.2618 114.887 27.5313C114.336 25.0509 115.453 22.9571 115.648 22.6055C117.488 19.2891 121.336 18.7423 122.129 18.6524C125.707 18.2462 129.336 20.1368 131.609 23.4376" stroke="#0E0E0E" stroke-width="0.75" stroke-linecap="round" stroke-linejoin="round"/>
<path d="M131.113 40.8984C131.152 33.1797 129.262 27.1211 126.27 25.4492C124.734 24.5938 123.172 24.5703 123.172 24.5703C122.656 24.5703 120.039 24.6094 118.379 26.7656C116.902 28.6953 117.27 30.8984 117.336 31.2734" stroke="#0E0E0E" stroke-width="0.75" stroke-linecap="round" stroke-linejoin="round"/>
<path d="M152.242 36.9961C152.633 36.8008 153.879 36.2266 155.219 36.5703C157.613 37.1758 157.883 40.0664 157.898 40.2735C158.039 42.1133 156.914 44.25 154.77 45.0157C153.121 45.6016 151.531 45.1368 150.684 44.8868C147.938 44.086 146.43 42.2188 145.68 41.2735C143.281 38.211 144.449 36.7266 141.988 34.5508C141.324 33.961 139.973 32.7618 137.902 32.4453C135.75 32.1094 134.863 33.0391 132.898 32.4883C130.973 31.9493 129.977 30.5313 129.719 30.1368C129.602 29.9532 128.199 27.6993 129.516 25.4258C129.789 24.9532 130.59 23.5782 132.398 23.1836C134.039 22.8282 135.848 23.4297 136.836 24.6094C137.684 25.6133 137.934 27.0313 137.273 28.1563C137.129 28.4024 136.68 29.168 135.66 29.4766C134.805 29.7305 133.719 29.6172 132.969 29.0157C132.309 28.4844 132.188 27.8008 132.164 27.6016" stroke="#0E0E0E" stroke-width="0.75" stroke-linecap="round" stroke-linejoin="round"/>
<path d="M143.535 36.6446C143.219 33.2266 141.473 30.4141 138.914 29.4961C138.328 29.2891 137.414 29.0781 136.199 29.2266" stroke="#0E0E0E" stroke-width="0.75" stroke-linecap="round" stroke-linejoin="round"/>
<path d="M146.129 41.9532C145.664 41.836 143.73 41.3868 142.078 42.4649C140.094 43.7696 139.297 46.793 140.52 49.6563" stroke="#0E0E0E" stroke-width="0.75" stroke-linecap="round" stroke-linejoin="round"/>
<path d="M147.488 52.2617C147.18 52.2461 146.543 52.2539 145.867 52.6055C144.773 53.1836 144.414 54.2383 144.344 54.4805" stroke="#0E0E0E" stroke-width="0.75" stroke-linecap="round" stroke-linejoin="round"/>
<path d="M158.477 91.0742C158.461 90.9688 158.445 90.7813 158.414 90.5625C157.828 85.4258 154.523 61.4414 134.797 43.9414C132.344 41.7656 128.543 38.7148 123.309 35.7461" stroke="#0E0E0E" stroke-width="0.75" stroke-linecap="round" stroke-linejoin="round"/>
<path d="M84.668 32.4219C84.6133 31.8008 84.3594 29.6172 82.5508 27.7656C80.9336 26.1016 79.0273 25.7031 78.375 25.5898C78.4258 24.9375 78.4805 24.2852 78.5313 23.6328C79.3867 23.2344 81.1055 22.2891 82.5313 20.3789C83.9766 18.4336 84.3906 16.5 84.5235 15.5625C84.8633 16.7344 85.6055 18.7344 87.3008 20.6836C88.6055 22.1836 89.9922 23.1016 90.9531 23.6328C91.0039 24.2852 91.0586 24.9375 91.1094 25.5898C90.6445 25.6367 87.6524 25.9805 85.8516 28.5977C84.7969 30.1406 84.668 31.7187 84.6524 32.4219H84.668Z" fill="black" stroke="black" stroke-width="0.5625" stroke-linecap="round" stroke-linejoin="round"/>
<path d="M116.039 21.9845C115.207 21.7423 113.836 21.4806 112.281 21.8556C110.926 22.1759 110.012 22.836 109.492 23.2266C104.934 26.6485 104.258 29.3009 101.121 30.504C100.719 30.6602 97.7852 31.629 94.8281 30.2462C92.7461 29.2735 91.2617 27.0509 91.0273 24.6446C90.6992 21.1954 93.0977 17.7813 95.8789 17.1602C96.2031 17.086 97.957 16.6954 99.3906 17.7657C99.5703 17.9024 100.68 18.7579 100.836 20.2657C100.859 20.4884 101.039 22.4337 99.5547 23.379C98.7226 23.9024 97.6641 23.9337 96.8242 23.5431C95.6328 22.9962 94.9141 21.6212 95.1016 20.1524C94.8086 20.4766 94.4023 20.9766 94.0781 21.6681C93.9219 21.9962 92.9023 24.254 93.8789 26.422C95.0625 29.0626 98.2969 29.5274 98.7305 29.586C101.617 30.0001 104.617 28.4845 106.582 25.7618" stroke="#0E0E0E" stroke-width="0.75" stroke-linecap="round" stroke-linejoin="round"/>
<path d="M90.9688 23.543C89.8633 22.9961 89.0938 22.3867 88.5977 21.9375C85.2539 18.8906 84.9297 14.3711 84.8086 12.7031C84.7266 11.5664 84.7734 10.6211 84.8242 9.98438" stroke="#0E0E0E" stroke-width="0.75" stroke-linecap="round" stroke-linejoin="round"/>
<path d="M91.125 25.5C90.4141 25.6289 89.6406 25.8516 88.875 26.2422C85.418 28.0039 84.9062 31.6953 84.832 32.332" stroke="#0E0E0E" stroke-width="0.75" stroke-linecap="round" stroke-linejoin="round"/>
<path d="M115.336 28.8359C115.223 29.0937 114.629 30.4062 113.242 30.8398C111.773 31.3047 110.484 30.4492 109.941 30.0898C107.672 28.582 107.445 25.7109 107.422 25.2461" stroke="#0E0E0E" stroke-width="0.75" stroke-linecap="round" stroke-linejoin="round"/>
<path d="M123.309 35.7462C122.664 35.379 121.754 34.8243 120.734 34.0782C117.789 31.9337 115.484 30.2618 114.887 27.5313C114.336 25.0509 115.453 22.9571 115.648 22.6055C117.488 19.2891 121.336 18.7423 122.129 18.6524C125.707 18.2462 129.336 20.1368 131.609 23.4376" stroke="#0E0E0E" stroke-width="0.75" stroke-linecap="round" stroke-linejoin="round"/>
<path d="M131.113 40.8984C131.152 33.1797 129.262 27.1211 126.27 25.4492C124.734 24.5938 123.172 24.5703 123.172 24.5703C122.656 24.5703 120.039 24.6094 118.379 26.7656C116.902 28.6953 117.27 30.8984 117.336 31.2734" stroke="#0E0E0E" stroke-width="0.75" stroke-linecap="round" stroke-linejoin="round"/>
<path d="M152.242 36.9961C152.633 36.8008 153.879 36.2266 155.219 36.5703C157.613 37.1758 157.883 40.0664 157.898 40.2735C158.039 42.1133 156.914 44.25 154.77 45.0157C153.121 45.6016 151.531 45.1368 150.684 44.8868C147.938 44.086 146.43 42.2188 145.68 41.2735C143.281 38.211 144.449 36.7266 141.988 34.5508C141.324 33.961 139.973 32.7618 137.902 32.4453C135.75 32.1094 134.863 33.0391 132.898 32.4883C130.973 31.9493 129.977 30.5313 129.719 30.1368C129.602 29.9532 128.199 27.6993 129.516 25.4258C129.789 24.9532 130.59 23.5782 132.398 23.1836C134.039 22.8282 135.848 23.4297 136.836 24.6094C137.684 25.6133 137.934 27.0313 137.273 28.1563C137.129 28.4024 136.68 29.168 135.66 29.4766C134.805 29.7305 133.719 29.6172 132.969 29.0157C132.309 28.4844 132.188 27.8008 132.164 27.6016" stroke="#0E0E0E" stroke-width="0.75" stroke-linecap="round" stroke-linejoin="round"/>
<path d="M143.535 36.6446C143.219 33.2266 141.473 30.4141 138.914 29.4961C138.328 29.2891 137.414 29.0781 136.199 29.2266" stroke="#0E0E0E" stroke-width="0.75" stroke-linecap="round" stroke-linejoin="round"/>
<path d="M158.387 48.7187C157.156 46.6132 155.191 45.3007 153.234 45.4218C150.809 45.5702 149.387 47.8437 148.77 48.8241C145.305 54.3515 149.012 61.9062 149.578 63.039" stroke="#0E0E0E" stroke-width="0.75" stroke-linecap="round" stroke-linejoin="round"/>
<path d="M158.438 90.3984C157.027 80.7461 152.445 59.6328 134.797 43.9492C130.957 40.5391 127.035 37.8594 123.309 35.7539" stroke="#0E0E0E" stroke-width="0.75" stroke-linecap="round" stroke-linejoin="round"/>
<mask id="mask2_2321_5097" style="mask-type:luminance" maskUnits="userSpaceOnUse" x="11" y="148" width="148" height="80">
<path d="M11 148H159V228H11V148Z" fill="white"/>
</mask>
<g mask="url(#mask2_2321_5097)">
<mask id="mask3_2321_5097" style="mask-type:luminance" maskUnits="userSpaceOnUse" x="11" y="148" width="148" height="80">
<path d="M11.3242 148.598C11.3477 174.988 11.3633 201.383 11.3867 227.766C60.2461 227.762 109.109 227.746 157.973 227.738C157.996 202.262 158.016 176.781 158.039 151.305C153.188 162.594 145.746 176.348 134.203 190.086C129.75 195.383 125.266 200.004 120.938 204.008C119.738 205.598 118.539 207.18 117.344 208.77C116.664 208.957 115.98 209.137 115.297 209.324C114.984 208.906 113.766 207.352 112.094 207.324C109.922 207.285 107.488 209.836 107.371 213.676C107.113 213.105 104.977 208.559 100.117 207.531C97.7773 207.039 95.8125 207.562 94.8008 207.922C94.1406 208.469 93.2617 209.316 92.4609 210.531C91.6719 211.727 91.2461 212.844 90.9961 213.652H78.4492C78.375 213.187 77.7656 209.762 74.6484 208.051C71.5937 206.379 68.4961 207.652 67.5469 208.035C64.2539 209.363 62.8594 212.102 62.5508 212.746C61.8086 209.203 59.332 207.016 57.1562 207.188C56.8047 207.219 55.6719 207.367 54.4961 208.688C53.2422 207.645 51.9883 206.602 50.7383 205.559C44.918 202.68 34.0781 196.344 24.9844 184.059C14.3477 169.688 11.9922 155.145 11.3398 148.605L11.3242 148.598Z" fill="white"/>
</mask>
<g mask="url(#mask3_2321_5097)">
<path d="M11.3242 148.598V227.766H158.039V148.598H11.3242Z" fill="url(#paint1_linear_2321_5097)"/>
</g>
</g>
<path d="M84.7109 205.875C84.7656 206.496 85.0195 208.68 86.8281 210.531C88.4492 212.199 90.3516 212.594 91.0039 212.707C90.9531 213.359 90.8984 214.012 90.8477 214.664C89.9922 215.063 88.2734 216.008 86.8516 217.922C85.4023 219.863 84.9883 221.797 84.8555 222.734C84.5156 221.566 83.7734 219.563 82.0781 217.613C80.7734 216.113 79.3867 215.199 78.4258 214.664C78.375 214.012 78.3242 213.359 78.2695 212.707C78.7344 212.664 81.7266 212.316 83.5273 209.699C84.5859 208.156 84.7109 206.578 84.7266 205.875H84.7109Z" fill="white"/>
<path d="M115.926 216.316C115.094 216.555 113.723 216.816 112.172 216.441C110.812 216.121 109.898 215.461 109.379 215.07C104.82 211.648 104.145 208.996 101.012 207.797C100.605 207.637 97.6719 206.672 94.7187 208.051C92.6328 209.023 91.1484 211.246 90.9141 213.652C90.5859 217.102 92.9844 220.516 95.7656 221.137C96.0898 221.211 97.8437 221.602 99.2773 220.531C99.457 220.395 100.566 219.539 100.727 218.031C100.746 217.809 100.926 215.863 99.4414 214.922C98.6094 214.395 97.5508 214.363 96.7109 214.754C95.5195 215.301 94.8008 216.676 94.9883 218.145C94.6953 217.824 94.2891 217.32 93.9687 216.629C93.8086 216.301 92.789 214.043 93.7656 211.875C94.9492 209.234 98.1836 208.77 98.6172 208.711C101.504 208.297 104.504 209.813 106.469 212.535" stroke="#0E0E0E" stroke-width="0.75" stroke-linecap="round" stroke-linejoin="round"/>
<path d="M90.8476 214.746C89.789 215.273 89.0156 215.863 88.4765 216.352C85.3632 219.18 84.9062 223.297 84.6914 225.227C84.5468 226.477 84.5625 227.512 84.5937 228.148" stroke="#0E0E0E" stroke-width="0.75" stroke-linecap="round" stroke-linejoin="round"/>
<path d="M91.0039 212.797C90.293 212.672 89.5195 212.445 88.7539 212.055C85.2969 210.293 84.7891 206.602 84.7109 205.965" stroke="#0E0E0E" stroke-width="0.75" stroke-linecap="round" stroke-linejoin="round"/>
<path d="M53.3477 216.316C54.1797 216.555 55.5508 216.816 57.1055 216.441C58.4609 216.121 59.3789 215.461 59.8945 215.07C64.4531 211.648 65.1289 208.996 68.2656 207.797C68.6719 207.637 71.6016 206.672 74.5586 208.051C76.6406 209.023 78.1289 211.246 78.3594 213.652C78.6914 217.102 76.2891 220.516 73.5078 221.137C73.1836 221.211 71.4297 221.602 69.9961 220.531C69.8164 220.395 68.707 219.539 68.5508 218.031C68.5274 217.809 68.3476 215.863 69.832 214.922C70.6641 214.395 71.7226 214.363 72.5625 214.754C73.7539 215.301 74.4766 216.676 74.2891 218.145C74.5781 217.824 74.9844 217.32 75.3086 216.629C75.4648 216.301 76.4844 214.043 75.5117 211.875C74.3242 209.234 71.0937 208.77 70.6562 208.711C67.7695 208.297 64.7695 209.813 62.8047 212.535" stroke="#0E0E0E" stroke-width="0.75" stroke-linecap="round" stroke-linejoin="round"/>
<path d="M78.2617 212.797C78.9453 212.691 79.7266 212.477 80.5117 212.055C83.7227 210.359 84.5547 206.738 84.7109 205.965" stroke="#0E0E0E" stroke-width="0.75" stroke-linecap="round" stroke-linejoin="round"/>
<path d="M54.0508 209.461C54.1641 209.203 54.7578 207.891 56.1445 207.457C57.6133 206.992 58.9063 207.848 59.4453 208.207C61.7188 209.715 61.9414 212.586 61.9649 213.051" stroke="#0E0E0E" stroke-width="0.75" stroke-linecap="round" stroke-linejoin="round"/>
<path d="M46.0781 202.547C46.7265 202.914 47.6328 203.469 48.6523 204.211C51.6016 206.355 53.9023 208.027 54.5039 210.758C55.0508 213.238 53.9336 215.332 53.7383 215.684C51.8984 219 48.0508 219.547 47.2578 219.637C43.6797 220.043 40.0508 218.152 37.7773 214.852" stroke="#0E0E0E" stroke-width="0.75" stroke-linecap="round" stroke-linejoin="round"/>
<path d="M38.2734 197.398C38.2344 205.117 40.125 211.176 43.1172 212.852C44.6562 213.703 46.2148 213.727 46.2148 213.727C46.7344 213.727 49.3516 213.691 51.0078 211.531C52.4844 209.602 52.1172 207.398 52.0508 207.023" stroke="#0E0E0E" stroke-width="0.75" stroke-linecap="round" stroke-linejoin="round"/>
<path d="M17.1446 201.301C16.7539 201.496 15.5118 202.074 14.168 201.726C11.7735 201.121 11.5039 198.234 11.4883 198.023C11.3477 196.184 12.4727 194.047 14.6172 193.281C16.2657 192.699 17.8594 193.164 18.7032 193.41C21.4493 194.211 22.9571 196.078 23.7071 197.023C26.1094 200.086 24.9375 201.57 27.3985 203.746C28.0664 204.336 29.4141 205.539 31.4844 205.851C33.6368 206.191 34.5235 205.262 36.4883 205.809C38.4141 206.348 39.4141 207.766 39.668 208.164C39.7891 208.344 41.1914 210.601 39.8711 212.871C39.6016 213.344 38.7969 214.719 36.9883 215.113C35.3477 215.469 33.5391 214.867 32.5508 213.691C31.7032 212.684 31.4532 211.266 32.1133 210.141C32.2579 209.894 32.7071 209.129 33.7266 208.824C34.5821 208.566 35.6719 208.68 36.4219 209.281C37.0782 209.812 37.1993 210.496 37.2227 210.699" stroke="#0E0E0E" stroke-width="0.75" stroke-linecap="round" stroke-linejoin="round"/>
<path d="M25.8516 201.645C26.168 205.066 27.9141 207.879 30.4727 208.793C31.0586 209.004 31.9727 209.211 33.1875 209.062" stroke="#0E0E0E" stroke-width="0.75" stroke-linecap="round" stroke-linejoin="round"/>
<path d="M23.25 196.344C23.7305 196.461 25.6485 196.898 27.3008 195.832C29.3008 194.527 30.1211 191.504 28.9141 188.625" stroke="#0E0E0E" stroke-width="0.75" stroke-linecap="round" stroke-linejoin="round"/>
<path d="M21.8906 186.039C22.1992 186.051 22.8359 186.047 23.5117 185.691C24.6367 185.102 24.9844 183.996 25.0508 183.773" stroke="#0E0E0E" stroke-width="0.75" stroke-linecap="round" stroke-linejoin="round"/>
<path d="M11.0391 146.453C12.2383 156.113 16.4531 178.191 34.5899 194.355C38.4219 197.766 42.3359 200.445 46.0781 202.551" stroke="#0E0E0E" stroke-width="0.75" stroke-linecap="round" stroke-linejoin="round"/>
<path d="M84.7109 205.875C84.7656 206.496 85.0195 208.68 86.8281 210.531C88.4492 212.199 90.3516 212.594 91.0039 212.707C90.9531 213.359 90.8984 214.012 90.8477 214.664C90.3828 214.875 89.7461 215.203 89.0625 215.723C87.5235 216.898 86.7891 218.281 86.1445 219.523C85.582 220.621 84.8555 222.316 84.4805 224.551C84.4727 223.477 84.3086 220.395 82.0742 217.605C80.8047 216.016 79.3516 215.121 78.4219 214.656C78.3672 214.004 78.3164 213.352 78.2617 212.699C78.7266 212.656 81.7187 212.309 83.5195 209.691C84.5781 208.148 84.7031 206.574 84.7188 205.867L84.7109 205.875Z" fill="black" stroke="black" stroke-width="0.5625" stroke-linecap="round" stroke-linejoin="round"/>
<path d="M53.3477 216.316C54.1797 216.555 55.5508 216.816 57.1055 216.441C58.4609 216.121 59.3789 215.461 59.8945 215.07C64.4531 211.648 65.1289 208.996 68.2656 207.797C68.6719 207.637 71.6016 206.672 74.5586 208.051C76.6406 209.023 78.1289 211.246 78.3594 213.652C78.6914 217.102 76.2891 220.516 73.5078 221.137C73.1836 221.211 71.4297 221.602 69.9961 220.531C69.8164 220.395 68.707 219.539 68.5508 218.031C68.5274 217.809 68.3476 215.863 69.832 214.922C70.6641 214.395 71.7226 214.363 72.5625 214.754C73.7539 215.301 74.4766 216.676 74.2891 218.145C74.5781 217.824 74.9844 217.32 75.3086 216.629C75.4648 216.301 76.4844 214.043 75.5117 211.875C74.3242 209.234 71.0937 208.77 70.6562 208.711C67.7695 208.297 64.7695 209.813 62.8047 212.535" stroke="#0E0E0E" stroke-width="0.75" stroke-linecap="round" stroke-linejoin="round"/>
<path d="M78.4219 214.746C79.043 215.047 79.9141 215.551 80.7891 216.352C82.6406 218.062 83.3086 220.043 83.8281 221.664C84.6289 224.168 84.7109 226.449 84.6016 228.148" stroke="#0E0E0E" stroke-width="0.75" stroke-linecap="round" stroke-linejoin="round"/>
<path d="M78.2617 212.797C78.9453 212.691 79.7266 212.477 80.5117 212.055C83.7539 210.336 84.5625 206.633 84.7109 205.875" stroke="#0E0E0E" stroke-width="0.75" stroke-linecap="round" stroke-linejoin="round"/>
<path d="M54.0508 209.461C54.1641 209.203 54.7578 207.891 56.1445 207.457C57.6133 206.992 58.9063 207.848 59.4453 208.207C61.7188 209.715 61.9414 212.586 61.9649 213.051" stroke="#0E0E0E" stroke-width="0.75" stroke-linecap="round" stroke-linejoin="round"/>
<path d="M46.0781 202.547C46.7265 202.914 47.6328 203.469 48.6523 204.211C51.6016 206.355 53.9023 208.027 54.5039 210.758C55.0508 213.238 53.9336 215.332 53.7383 215.684C51.8984 219 48.0508 219.547 47.2578 219.637C43.6797 220.043 40.0508 218.152 37.7773 214.852" stroke="#0E0E0E" stroke-width="0.75" stroke-linecap="round" stroke-linejoin="round"/>
<path d="M38.2734 197.398C38.2344 205.117 40.125 211.176 43.1172 212.852C44.6562 213.703 46.2148 213.727 46.2148 213.727C46.7344 213.727 49.3516 213.691 51.0078 211.531C52.4844 209.602 52.1172 207.398 52.0508 207.023" stroke="#0E0E0E" stroke-width="0.75" stroke-linecap="round" stroke-linejoin="round"/>
<path d="M17.1446 201.301C16.7539 201.496 15.5118 202.074 14.168 201.726C11.7735 201.121 11.5039 198.234 11.4883 198.023C11.3477 196.184 12.4727 194.047 14.6172 193.281C16.2657 192.699 17.8594 193.164 18.7032 193.41C21.4493 194.211 22.9571 196.078 23.7071 197.023C26.1094 200.086 24.9375 201.57 27.3985 203.746C28.0664 204.336 29.4141 205.539 31.4844 205.851C33.6368 206.191 34.5235 205.262 36.4883 205.809C38.4141 206.348 39.4141 207.766 39.668 208.164C39.7891 208.344 41.1914 210.601 39.8711 212.871C39.6016 213.344 38.7969 214.719 36.9883 215.113C35.3477 215.469 33.5391 214.867 32.5508 213.691C31.7032 212.684 31.4532 211.266 32.1133 210.141C32.2579 209.894 32.7071 209.129 33.7266 208.824C34.5821 208.566 35.6719 208.68 36.4219 209.281C37.0782 209.812 37.1993 210.496 37.2227 210.699" stroke="#0E0E0E" stroke-width="0.75" stroke-linecap="round" stroke-linejoin="round"/>
<path d="M25.8516 201.645C26.168 205.066 27.9141 207.879 30.4727 208.793C31.0586 209.004 31.9727 209.211 33.1875 209.062" stroke="#0E0E0E" stroke-width="0.75" stroke-linecap="round" stroke-linejoin="round"/>
<path d="M11.0859 189.711C11.1758 189.863 13.1719 193.059 16.1563 192.871C18.5703 192.719 19.9961 190.453 20.6172 189.465C24.0742 183.945 20.3789 176.387 19.8086 175.254" stroke="#0E0E0E" stroke-width="0.75" stroke-linecap="round" stroke-linejoin="round"/>
<path d="M23.25 196.344C23.7305 196.461 25.6485 196.898 27.3008 195.832C29.3008 194.527 30.1211 191.504 28.9141 188.625" stroke="#0E0E0E" stroke-width="0.75" stroke-linecap="round" stroke-linejoin="round"/>
<path d="M21.8906 186.039C22.1992 186.051 22.8359 186.047 23.5117 185.691C24.6367 185.102 24.9844 183.996 25.0508 183.773" stroke="#0E0E0E" stroke-width="0.75" stroke-linecap="round" stroke-linejoin="round"/>
<path d="M11.0391 146.453C12.2383 156.113 16.4531 178.191 34.5899 194.355C38.4219 197.766 42.3359 200.445 46.0781 202.551" stroke="#0E0E0E" stroke-width="0.75" stroke-linecap="round" stroke-linejoin="round"/>
<path d="M37.3594 30.2461C39.0508 31.9727 39.9219 34.0508 39.9609 36.4727C39.9609 38.1094 39.5039 39.6914 38.5781 41.2266C37.6289 42.7422 36.3906 43.8359 34.8594 44.5039C33.8789 44.9336 32.8438 45.1484 31.7539 45.1484C30.3984 45.1484 29.0469 44.8359 27.7188 44.2188C26.3906 43.5977 25.207 42.7266 24.1719 41.6094C23.7734 41.168 23.4062 40.7031 23.0781 40.2148C21.7969 38.2344 21.1484 36.1133 21.1484 33.832V33.7578C21.1484 30.6602 22.2812 27.9453 24.5547 25.5977C26.918 23.3477 29.6406 22.2227 32.7148 22.2227C33.6914 22.2227 34.6406 22.3438 35.5742 22.582C36 22.6875 36.4258 22.8164 36.8398 22.9727C36.8633 22.9805 36.8789 22.9883 36.8867 22.9883C36.9375 22.9883 36.9766 22.9492 36.9961 22.875L36.9688 22.4492H38.0312V27.75H36.9688L36.9961 27.3242C36.9961 26.7969 36.7734 26.3711 36.3242 26.0391C36.293 26.0156 36.2539 25.9961 36.2109 25.9805C35.8867 25.7695 35.5586 25.582 35.2188 25.418C34.4336 25.0937 33.6367 24.832 32.8203 24.6367C32.0039 24.4414 31.1992 24.3438 30.4062 24.3438C28.3594 24.3438 26.6406 25.0117 25.2617 26.3398C23.9336 27.7266 23.2656 29.4375 23.2656 31.4531C23.2656 31.7539 23.2812 32.0625 23.3086 32.3633C24.0977 30.9219 25.1758 29.7813 26.5664 28.9414C27.9531 28.1016 29.4688 27.6914 31.1094 27.6914C33.4648 27.6914 35.543 28.5469 37.3594 30.2461ZM26.9844 30.1055C26.2109 30.4219 25.582 30.9219 25.1094 31.6133C24.6367 32.3008 24.3828 33.082 24.3516 33.9531V34.1094C24.3516 35.0156 24.5391 35.8945 24.9141 36.7344C25.2891 37.5742 25.793 38.3555 26.4141 39.0664C27.0391 39.7813 27.7266 40.4102 28.4922 40.957C29.2578 41.5039 30.0391 41.9609 30.832 42.3164C31.3281 42.5313 31.8281 42.7266 32.3633 42.8984C32.8867 43.0742 33.4258 43.1641 33.9688 43.1641C34.2148 43.1641 34.4766 43.1328 34.7383 43.0859C35.7969 42.8398 36.5781 42.2852 37.0859 41.4375C37.5977 40.5898 37.8438 39.668 37.8438 38.6758C37.8438 38.3633 37.8164 38.0547 37.7695 37.7539C37.4492 35.8945 36.5156 34.1914 34.9961 32.6562C33.9883 31.6484 32.8789 30.8984 31.6641 30.3984C30.6758 30 29.7227 29.8047 28.8242 29.8047C28.1641 29.8047 27.5547 29.9102 26.9844 30.1211V30.1055Z" fill="black"/>
<path d="M131.953 208.148C130.262 206.422 129.391 204.344 129.352 201.922C129.352 200.289 129.809 198.703 130.734 197.168C131.684 195.652 132.922 194.559 134.453 193.891C135.434 193.461 136.469 193.246 137.559 193.246C138.914 193.246 140.266 193.559 141.594 194.176C142.922 194.797 144.105 195.668 145.141 196.785C145.539 197.227 145.906 197.691 146.234 198.18C147.516 200.16 148.164 202.281 148.164 204.562V204.637C148.164 207.734 147.031 210.449 144.758 212.797C142.395 215.047 139.672 216.172 136.598 216.172C135.621 216.172 134.672 216.051 133.738 215.812C133.313 215.707 132.887 215.578 132.473 215.422C132.449 215.414 132.434 215.406 132.426 215.406C132.375 215.406 132.336 215.445 132.316 215.52L132.344 215.949H131.281V210.645H132.344L132.316 211.074C132.316 211.598 132.539 212.023 132.988 212.355C133.02 212.379 133.059 212.398 133.102 212.414C133.426 212.625 133.754 212.813 134.094 212.977C134.879 213.301 135.676 213.563 136.492 213.758C137.309 213.953 138.113 214.051 138.906 214.051C140.953 214.051 142.672 213.383 144.051 212.055C145.379 210.668 146.047 208.957 146.047 206.941C146.047 206.641 146.031 206.332 146.004 206.031C145.215 207.473 144.137 208.613 142.746 209.453C141.359 210.293 139.844 210.703 138.203 210.703C135.848 210.703 133.77 209.852 131.953 208.148ZM142.32 208.281C143.094 207.969 143.723 207.465 144.195 206.773C144.668 206.086 144.922 205.305 144.953 204.434V204.277C144.953 203.371 144.766 202.492 144.391 201.652C144.016 200.812 143.512 200.031 142.891 199.32C142.266 198.609 141.578 197.977 140.812 197.43C140.047 196.883 139.266 196.426 138.473 196.074C137.977 195.855 137.477 195.66 136.941 195.488C136.418 195.316 135.879 195.227 135.336 195.227C135.09 195.227 134.828 195.254 134.566 195.301C133.508 195.547 132.727 196.102 132.219 196.949C131.707 197.797 131.461 198.719 131.461 199.711C131.461 200.023 131.488 200.332 131.535 200.633C131.859 202.492 132.789 204.195 134.309 205.734C135.316 206.738 136.426 207.488 137.641 207.988C138.629 208.387 139.582 208.582 140.484 208.582C141.141 208.582 141.75 208.477 142.32 208.266V208.281Z" fill="black"/>
<path d="M115.785 199.453C115.109 200.512 114.277 201.668 113.258 202.852C112.574 203.648 111.891 204.352 111.238 204.977C112.074 205.801 112.957 206.766 113.844 207.887C114.594 208.824 115.23 209.73 115.785 210.586C116.34 209.762 116.977 208.875 117.719 207.977C118.648 206.836 119.578 205.859 120.449 205.02C119.676 204.328 118.836 203.488 117.988 202.492C117.082 201.422 116.363 200.387 115.785 199.453Z" fill="#EB1C24" stroke="black" stroke-width="0.5625" stroke-linecap="round" stroke-linejoin="round"/>
<path d="M53.3985 27.7656C52.7266 28.8242 51.8906 29.9766 50.8711 31.1641C50.1914 31.957 49.5078 32.6641 48.8555 33.2852C49.6875 34.1094 50.5742 35.0781 51.457 36.1953C52.207 37.1328 52.8438 38.0391 53.3985 38.8945C53.9531 38.0703 54.5938 37.1836 55.3359 36.2852C56.2656 35.1445 57.1953 34.168 58.0664 33.3281C57.293 32.6406 56.4531 31.8008 55.6055 30.8008C54.6992 29.7305 53.9766 28.6953 53.3985 27.7656Z" fill="#EB1C24" stroke="black" stroke-width="0.5625" stroke-linecap="round" stroke-linejoin="round"/>
<path d="M63.8008 47.1016C62.3164 49.418 60.4883 51.9531 58.2539 54.5547C56.7539 56.3008 55.2617 57.8477 53.8359 59.2109C55.6641 61.0273 57.6016 63.1406 59.5508 65.5859C61.1836 67.6406 62.5938 69.6445 63.8086 71.5117C65.0234 69.6992 66.4258 67.7617 68.0547 65.7812C70.0938 63.2852 72.1289 61.1406 74.0391 59.3008C72.3516 57.7891 70.5078 55.9492 68.6484 53.7539C66.6602 51.4062 65.0703 49.1328 63.8086 47.0938L63.8008 47.1016Z" fill="#EB1C24" stroke="black" stroke-width="0.5625" stroke-linecap="round" stroke-linejoin="round"/>
<path d="M105.637 47.1016C104.152 49.418 102.324 51.9531 100.086 54.5547C98.5859 56.3008 97.0938 57.8477 95.6719 59.2109C97.5 61.0273 99.4336 63.1406 101.387 65.5859C103.02 67.6406 104.43 69.6445 105.645 71.5117C106.859 69.6992 108.262 67.7617 109.891 65.7812C111.93 63.2852 113.961 61.1406 115.875 59.3008C114.188 57.7891 112.344 55.9492 110.484 53.7539C108.496 51.4062 106.906 49.1328 105.645 47.0938L105.637 47.1016Z" fill="#EB1C24" stroke="black" stroke-width="0.5625" stroke-linecap="round" stroke-linejoin="round"/>
<path d="M63.8008 105.105C62.3164 107.422 60.4883 109.957 58.2539 112.559C56.7539 114.309 55.2617 115.852 53.8359 117.219C55.6641 119.031 57.6016 121.148 59.5508 123.594C61.1836 125.648 62.5938 127.648 63.8086 129.516C65.0234 127.703 66.4258 125.766 68.0547 123.789C70.0938 121.289 72.1289 119.145 74.0391 117.309C72.3516 115.793 70.5078 113.953 68.6484 111.758C66.6602 109.41 65.0703 107.137 63.8086 105.098L63.8008 105.105Z" fill="#EB1C24" stroke="black" stroke-width="0.5625" stroke-linecap="round" stroke-linejoin="round"/>
<path d="M105.637 105.105C104.152 107.422 102.324 109.957 100.086 112.559C98.5859 114.309 97.0938 115.852 95.6719 117.219C97.5 119.031 99.4336 121.148 101.387 123.594C103.02 125.648 104.43 127.648 105.645 129.516C106.859 127.703 108.262 125.766 109.891 123.789C111.93 121.289 113.961 119.145 115.875 117.309C114.188 115.793 112.344 113.953 110.484 111.758C108.496 109.41 106.906 107.137 105.645 105.098L105.637 105.105Z" fill="#EB1C24" stroke="black" stroke-width="0.5625" stroke-linecap="round" stroke-linejoin="round"/>
<path d="M63.8008 163.125C62.3164 165.441 60.4883 167.977 58.2539 170.578C56.7539 172.328 55.2617 173.871 53.8359 175.238C55.6641 177.051 57.6016 179.168 59.5508 181.613C61.1836 183.668 62.5938 185.672 63.8086 187.539C65.0234 185.723 66.4258 183.789 68.0547 181.809C70.0938 179.309 72.1289 177.164 74.0391 175.328C72.3516 173.813 70.5078 171.977 68.6484 169.777C66.6602 167.43 65.0703 165.156 63.8086 163.117L63.8008 163.125Z" fill="#EB1C24" stroke="black" stroke-width="0.5625" stroke-linecap="round" stroke-linejoin="round"/>
<path d="M105.637 163.125C104.152 165.441 102.324 167.977 100.086 170.578C98.5859 172.328 97.0938 173.871 95.6719 175.238C97.5 177.051 99.4336 179.168 101.387 181.613C103.02 183.668 104.43 185.672 105.645 187.539C106.859 185.723 108.262 183.789 109.891 181.809C111.93 179.309 113.961 177.164 115.875 175.328C114.188 173.813 112.344 171.977 110.484 169.777C108.496 167.43 106.906 165.156 105.645 163.117L105.637 163.125Z" fill="#EB1C24" stroke="black" stroke-width="0.5625" stroke-linecap="round" stroke-linejoin="round"/>
<defs>
<linearGradient id="paint0_linear_2321_5097" x1="158.115" y1="49.1925" x2="11.475" y2="49.1925" gradientUnits="userSpaceOnUse">
<stop stop-color="#8F8587"/>
<stop offset="0.00390625" stop-color="#908688"/>
<stop offset="0.0078125" stop-color="#918789"/>
<stop offset="0.0117188" stop-color="#92888A"/>
<stop offset="0.015625" stop-color="#92898B"/>
<stop offset="0.0195312" stop-color="#938A8B"/>
<stop offset="0.0234375" stop-color="#948B8C"/>
<stop offset="0.0273438" stop-color="#958C8D"/>
<stop offset="0.03125" stop-color="#968D8E"/>
<stop offset="0.0351562" stop-color="#978D8F"/>
<stop offset="0.0390625" stop-color="#988E90"/>
<stop offset="0.0429687" stop-color="#988F91"/>
<stop offset="0.046875" stop-color="#999092"/>
<stop offset="0.0507812" stop-color="#9A9193"/>
<stop offset="0.0546875" stop-color="#9B9294"/>
<stop offset="0.0585937" stop-color="#9C9395"/>
<stop offset="0.0625" stop-color="#9D9496"/>
<stop offset="0.0664062" stop-color="#9D9596"/>
<stop offset="0.0703125" stop-color="#9E9697"/>
<stop offset="0.0742187" stop-color="#9F9798"/>
<stop offset="0.078125" stop-color="#A09899"/>
<stop offset="0.0820312" stop-color="#A1999A"/>
<stop offset="0.0859375" stop-color="#A2999B"/>
<stop offset="0.0898437" stop-color="#A39A9C"/>
<stop offset="0.09375" stop-color="#A39B9D"/>
<stop offset="0.0976562" stop-color="#A49C9E"/>
<stop offset="0.101562" stop-color="#A59D9F"/>
<stop offset="0.105469" stop-color="#A69EA0"/>
<stop offset="0.109375" stop-color="#A79FA0"/>
<stop offset="0.113281" stop-color="#A8A0A1"/>
<stop offset="0.117187" stop-color="#A8A1A2"/>
<stop offset="0.121094" stop-color="#A9A2A3"/>
<stop offset="0.125" stop-color="#AAA3A4"/>
<stop offset="0.128906" stop-color="#ABA4A5"/>
<stop offset="0.132812" stop-color="#ACA5A6"/>
<stop offset="0.136719" stop-color="#ADA5A7"/>
<stop offset="0.140625" stop-color="#AEA6A8"/>
<stop offset="0.144531" stop-color="#AEA7A9"/>
<stop offset="0.148438" stop-color="#AFA8AA"/>
<stop offset="0.152344" stop-color="#B0A9AB"/>
<stop offset="0.15625" stop-color="#B1AAAB"/>
<stop offset="0.160156" stop-color="#B2ABAC"/>
<stop offset="0.164062" stop-color="#B3ACAD"/>
<stop offset="0.167969" stop-color="#B3ADAE"/>
<stop offset="0.171875" stop-color="#B4AEAF"/>
<stop offset="0.175781" stop-color="#B5AFB0"/>
<stop offset="0.179688" stop-color="#B6B0B1"/>
<stop offset="0.183594" stop-color="#B7B1B2"/>
<stop offset="0.1875" stop-color="#B8B2B3"/>
<stop offset="0.191406" stop-color="#B9B2B4"/>
<stop offset="0.195312" stop-color="#B9B3B5"/>
<stop offset="0.199219" stop-color="#BAB4B5"/>
<stop offset="0.203125" stop-color="#BBB5B6"/>
<stop offset="0.207031" stop-color="#BCB6B7"/>
<stop offset="0.210938" stop-color="#BDB7B8"/>
<stop offset="0.214844" stop-color="#BEB8B9"/>
<stop offset="0.21875" stop-color="#BEB9BA"/>
<stop offset="0.222656" stop-color="#BFBABB"/>
<stop offset="0.226562" stop-color="#C0BBBC"/>
<stop offset="0.230469" stop-color="#C1BCBD"/>
<stop offset="0.234375" stop-color="#C2BDBE"/>
<stop offset="0.238281" stop-color="#C3BEBF"/>
<stop offset="0.242188" stop-color="#C3BEBF"/>
<stop offset="0.246094" stop-color="#C4BFC0"/>
<stop offset="0.25" stop-color="#C5C0C1"/>
<stop offset="0.253906" stop-color="#C6C1C2"/>
<stop offset="0.257812" stop-color="#C6C2C3"/>
<stop offset="0.261719" stop-color="#C7C3C3"/>
<stop offset="0.265625" stop-color="#C8C3C4"/>
<stop offset="0.269531" stop-color="#C9C4C5"/>
<stop offset="0.273438" stop-color="#C9C5C6"/>
<stop offset="0.277344" stop-color="#CAC6C7"/>
<stop offset="0.28125" stop-color="#CBC7C7"/>
<stop offset="0.285156" stop-color="#CCC7C8"/>
<stop offset="0.289062" stop-color="#CCC8C9"/>
<stop offset="0.292969" stop-color="#CDC9CA"/>
<stop offset="0.296875" stop-color="#CECACB"/>
<stop offset="0.300781" stop-color="#CFCBCB"/>
<stop offset="0.304688" stop-color="#CFCCCC"/>
<stop offset="0.308594" stop-color="#D0CCCD"/>
<stop offset="0.3125" stop-color="#D1CDCE"/>
<stop offset="0.316406" stop-color="#D2CECF"/>
<stop offset="0.320312" stop-color="#D2CFCF"/>
<stop offset="0.324219" stop-color="#D3D0D0"/>
<stop offset="0.328125" stop-color="#D4D0D1"/>
<stop offset="0.332031" stop-color="#D5D1D2"/>
<stop offset="0.335938" stop-color="#D5D2D3"/>
<stop offset="0.339844" stop-color="#D6D3D3"/>
<stop offset="0.34375" stop-color="#D7D4D4"/>
<stop offset="0.347656" stop-color="#D8D5D5"/>
<stop offset="0.351562" stop-color="#D8D5D6"/>
<stop offset="0.355469" stop-color="#D9D6D7"/>
<stop offset="0.359375" stop-color="#DAD7D7"/>
<stop offset="0.363281" stop-color="#DBD8D8"/>
<stop offset="0.367188" stop-color="#DBD9D9"/>
<stop offset="0.371094" stop-color="#DCDADA"/>
<stop offset="0.375" stop-color="#DDDADB"/>
<stop offset="0.378906" stop-color="#DEDBDB"/>
<stop offset="0.382812" stop-color="#DEDCDC"/>
<stop offset="0.386719" stop-color="#DFDDDD"/>
<stop offset="0.390625" stop-color="#E0DEDE"/>
<stop offset="0.394531" stop-color="#E1DEDF"/>
<stop offset="0.398438" stop-color="#E1DFE0"/>
<stop offset="0.402344" stop-color="#E2E0E0"/>
<stop offset="0.40625" stop-color="#E3E1E1"/>
<stop offset="0.410156" stop-color="#E4E2E2"/>
<stop offset="0.414062" stop-color="#E4E3E3"/>
<stop offset="0.417969" stop-color="#E5E3E4"/>
<stop offset="0.421875" stop-color="#E6E4E4"/>
<stop offset="0.425781" stop-color="#E6E5E5"/>
<stop offset="0.429688" stop-color="#E7E6E6"/>
<stop offset="0.433594" stop-color="#E8E7E7"/>
<stop offset="0.4375" stop-color="#E9E7E8"/>
<stop offset="0.441406" stop-color="#E9E8E8"/>
<stop offset="0.445312" stop-color="#EAE9E9"/>
<stop offset="0.449219" stop-color="#EBEAEA"/>
<stop offset="0.453125" stop-color="#ECEBEB"/>
<stop offset="0.457031" stop-color="#ECEBEB"/>
<stop offset="0.460938" stop-color="#EDECEC"/>
<stop offset="0.464844" stop-color="#EDECEC"/>
<stop offset="0.46875" stop-color="#EEEDED"/>
<stop offset="0.472656" stop-color="#EEEEEE"/>
<stop offset="0.476562" stop-color="#EFEEEE"/>
<stop offset="0.480469" stop-color="#EFEFEF"/>
<stop offset="0.484375" stop-color="#F0EFEF"/>
<stop offset="0.488281" stop-color="#F1F0F0"/>
<stop offset="0.492188" stop-color="#F1F1F1"/>
<stop offset="0.496094" stop-color="#F2F1F1"/>
<stop offset="0.5" stop-color="#F2F2F2"/>
<stop offset="0.503906" stop-color="#F3F2F2"/>
<stop offset="0.507812" stop-color="#F3F3F3"/>
<stop offset="0.511719" stop-color="#F4F4F4"/>
<stop offset="0.515625" stop-color="#F5F4F4"/>
<stop offset="0.519531" stop-color="#F5F5F5"/>
<stop offset="0.523438" stop-color="#F6F5F5"/>
<stop offset="0.527344" stop-color="#F6F6F6"/>
<stop offset="0.53125" stop-color="#F7F7F7"/>
<stop offset="0.535156" stop-color="#F7F7F7"/>
<stop offset="0.539062" stop-color="#F8F8F8"/>
<stop offset="0.542969" stop-color="#F8F8F8"/>
<stop offset="0.546875" stop-color="#F9F9F9"/>
<stop offset="0.550781" stop-color="#FAFAFA"/>
<stop offset="0.554688" stop-color="#FAFAFA"/>
<stop offset="0.5625" stop-color="#FBFBFB"/>
<stop offset="0.625" stop-color="#FBFBFB"/>
<stop offset="0.75" stop-color="#FBFBFB"/>
<stop offset="1" stop-color="#FBFBFB"/>
</linearGradient>
<linearGradient id="paint1_linear_2321_5097" x1="11.325" y1="188.182" x2="158.04" y2="188.182" gradientUnits="userSpaceOnUse">
<stop stop-color="#8F8587"/>
<stop offset="0.00390625" stop-color="#908688"/>
<stop offset="0.0078125" stop-color="#918789"/>
<stop offset="0.0117188" stop-color="#91888A"/>
<stop offset="0.015625" stop-color="#92898A"/>
<stop offset="0.0195312" stop-color="#938A8B"/>
<stop offset="0.0234375" stop-color="#948A8C"/>
<stop offset="0.0273438" stop-color="#958B8D"/>
<stop offset="0.03125" stop-color="#968C8E"/>
<stop offset="0.0351563" stop-color="#968D8F"/>
<stop offset="0.0390625" stop-color="#978E90"/>
<stop offset="0.0429688" stop-color="#988F91"/>
<stop offset="0.046875" stop-color="#999091"/>
<stop offset="0.0507813" stop-color="#9A9192"/>
<stop offset="0.0546875" stop-color="#9A9293"/>
<stop offset="0.0585938" stop-color="#9B9294"/>
<stop offset="0.0625" stop-color="#9C9395"/>
<stop offset="0.0664062" stop-color="#9D9496"/>
<stop offset="0.0703125" stop-color="#9E9597"/>
<stop offset="0.0742188" stop-color="#9E9698"/>
<stop offset="0.078125" stop-color="#9F9798"/>
<stop offset="0.0820312" stop-color="#A09899"/>
<stop offset="0.0859375" stop-color="#A1999A"/>
<stop offset="0.0898438" stop-color="#A29A9B"/>
<stop offset="0.09375" stop-color="#A39A9C"/>
<stop offset="0.0976562" stop-color="#A39B9D"/>
<stop offset="0.101562" stop-color="#A49C9E"/>
<stop offset="0.105469" stop-color="#A59D9F"/>
<stop offset="0.109375" stop-color="#A69E9F"/>
<stop offset="0.113281" stop-color="#A79FA0"/>
<stop offset="0.117188" stop-color="#A7A0A1"/>
<stop offset="0.121094" stop-color="#A8A1A2"/>
<stop offset="0.125" stop-color="#A9A2A3"/>
<stop offset="0.128906" stop-color="#AAA2A4"/>
<stop offset="0.132812" stop-color="#ABA3A5"/>
<stop offset="0.136719" stop-color="#ABA4A6"/>
<stop offset="0.140625" stop-color="#ACA5A6"/>
<stop offset="0.144531" stop-color="#ADA6A7"/>
<stop offset="0.148437" stop-color="#AEA7A8"/>
<stop offset="0.152344" stop-color="#AFA8A9"/>
<stop offset="0.15625" stop-color="#B0A9AA"/>
<stop offset="0.160156" stop-color="#B0AAAB"/>
<stop offset="0.164062" stop-color="#B1AAAC"/>
<stop offset="0.167969" stop-color="#B2ABAD"/>
<stop offset="0.171875" stop-color="#B3ACAD"/>
<stop offset="0.175781" stop-color="#B4ADAE"/>
<stop offset="0.179688" stop-color="#B4AEAF"/>
<stop offset="0.183594" stop-color="#B5AFB0"/>
<stop offset="0.1875" stop-color="#B6B0B1"/>
<stop offset="0.191406" stop-color="#B7B1B2"/>
<stop offset="0.195313" stop-color="#B8B2B3"/>
<stop offset="0.199219" stop-color="#B9B2B4"/>
<stop offset="0.203125" stop-color="#B9B3B4"/>
<stop offset="0.207031" stop-color="#BAB4B5"/>
<stop offset="0.210938" stop-color="#BBB5B6"/>
<stop offset="0.214844" stop-color="#BCB6B7"/>
<stop offset="0.21875" stop-color="#BDB7B8"/>
<stop offset="0.222656" stop-color="#BDB8B9"/>
<stop offset="0.226562" stop-color="#BEB9BA"/>
<stop offset="0.230469" stop-color="#BFBABB"/>
<stop offset="0.234375" stop-color="#C0BABB"/>
<stop offset="0.238281" stop-color="#C1BBBC"/>
<stop offset="0.242188" stop-color="#C1BCBD"/>
<stop offset="0.246094" stop-color="#C2BDBE"/>
<stop offset="0.25" stop-color="#C3BEBF"/>
<stop offset="0.253906" stop-color="#C4BFC0"/>
<stop offset="0.257812" stop-color="#C5C0C1"/>
<stop offset="0.261719" stop-color="#C5C0C1"/>
<stop offset="0.265625" stop-color="#C6C1C2"/>
<stop offset="0.269531" stop-color="#C7C2C3"/>
<stop offset="0.273438" stop-color="#C8C3C4"/>
<stop offset="0.277344" stop-color="#C8C4C5"/>
<stop offset="0.28125" stop-color="#C9C5C5"/>
<stop offset="0.285156" stop-color="#CAC5C6"/>
<stop offset="0.289062" stop-color="#CBC6C7"/>
<stop offset="0.292969" stop-color="#CBC7C8"/>
<stop offset="0.296875" stop-color="#CCC8C9"/>
<stop offset="0.300781" stop-color="#CDC9C9"/>
<stop offset="0.304688" stop-color="#CDC9CA"/>
<stop offset="0.308594" stop-color="#CECACB"/>
<stop offset="0.3125" stop-color="#CFCBCC"/>
<stop offset="0.316406" stop-color="#D0CCCD"/>
<stop offset="0.320313" stop-color="#D0CDCD"/>
<stop offset="0.324219" stop-color="#D1CECE"/>
<stop offset="0.328125" stop-color="#D2CECF"/>
<stop offset="0.332031" stop-color="#D3CFD0"/>
<stop offset="0.335938" stop-color="#D3D0D1"/>
<stop offset="0.339844" stop-color="#D4D1D1"/>
<stop offset="0.34375" stop-color="#D5D2D2"/>
<stop offset="0.347656" stop-color="#D6D2D3"/>
<stop offset="0.351563" stop-color="#D6D3D4"/>
<stop offset="0.355469" stop-color="#D7D4D5"/>
<stop offset="0.359375" stop-color="#D8D5D5"/>
<stop offset="0.363281" stop-color="#D9D6D6"/>
<stop offset="0.367188" stop-color="#D9D7D7"/>
<stop offset="0.371094" stop-color="#DAD7D8"/>
<stop offset="0.375" stop-color="#DBD8D9"/>
<stop offset="0.378906" stop-color="#DCD9D9"/>
<stop offset="0.382813" stop-color="#DCDADA"/>
<stop offset="0.386719" stop-color="#DDDBDB"/>
<stop offset="0.390625" stop-color="#DEDCDC"/>
<stop offset="0.394531" stop-color="#DFDCDD"/>
<stop offset="0.398438" stop-color="#DFDDDD"/>
<stop offset="0.402344" stop-color="#E0DEDE"/>
<stop offset="0.40625" stop-color="#E1DFDF"/>
<stop offset="0.410156" stop-color="#E2E0E0"/>
<stop offset="0.414063" stop-color="#E2E0E1"/>
<stop offset="0.417969" stop-color="#E3E1E1"/>
<stop offset="0.421875" stop-color="#E4E2E2"/>
<stop offset="0.425781" stop-color="#E5E3E3"/>
<stop offset="0.429688" stop-color="#E5E4E4"/>
<stop offset="0.433594" stop-color="#E6E5E5"/>
<stop offset="0.4375" stop-color="#E7E5E5"/>
<stop offset="0.441406" stop-color="#E8E6E6"/>
<stop offset="0.445313" stop-color="#E8E7E7"/>
<stop offset="0.449219" stop-color="#E9E8E8"/>
<stop offset="0.453125" stop-color="#EAE9E9"/>
<stop offset="0.457031" stop-color="#EBE9E9"/>
<stop offset="0.460938" stop-color="#EBEAEA"/>
<stop offset="0.464844" stop-color="#ECEBEB"/>
<stop offset="0.46875" stop-color="#ECEBEB"/>
<stop offset="0.472656" stop-color="#EDECEC"/>
<stop offset="0.476563" stop-color="#EDEDED"/>
<stop offset="0.480469" stop-color="#EEEDED"/>
<stop offset="0.484375" stop-color="#EFEEEE"/>
<stop offset="0.488281" stop-color="#EFEEEE"/>
<stop offset="0.492188" stop-color="#F0EFEF"/>
<stop offset="0.496094" stop-color="#F0F0F0"/>
<stop offset="0.5" stop-color="#F1F0F0"/>
<stop offset="0.503906" stop-color="#F1F1F1"/>
<stop offset="0.507812" stop-color="#F2F1F1"/>
<stop offset="0.511719" stop-color="#F3F2F2"/>
<stop offset="0.515625" stop-color="#F3F3F3"/>
<stop offset="0.519531" stop-color="#F4F3F3"/>
<stop offset="0.523438" stop-color="#F4F4F4"/>
<stop offset="0.527344" stop-color="#F5F4F4"/>
<stop offset="0.53125" stop-color="#F5F5F5"/>
<stop offset="0.535156" stop-color="#F6F6F6"/>
<stop offset="0.539062" stop-color="#F6F6F6"/>
<stop offset="0.542969" stop-color="#F7F7F7"/>
<stop offset="0.546875" stop-color="#F8F7F7"/>
<stop offset="0.550781" stop-color="#F8F8F8"/>
<stop offset="0.554687" stop-color="#F9F9F9"/>
<stop offset="0.558594" stop-color="#F9F9F9"/>
<stop offset="0.5625" stop-color="#FAFAFA"/>
<stop offset="0.566406" stop-color="#FAFAFA"/>
<stop offset="0.570312" stop-color="#FBFBFB"/>
<stop offset="0.578125" stop-color="#FBFBFB"/>
<stop offset="0.59375" stop-color="#FBFBFB"/>
<stop offset="0.625" stop-color="#FBFBFB"/>
<stop offset="0.75" stop-color="#FBFBFB"/>
<stop offset="1" stop-color="#FBFBFB"/>
</linearGradient>
</defs>
</svg>
