<svg width="170" height="239" viewBox="0 0 170 239" fill="none" xmlns="http://www.w3.org/2000/svg">
<mask id="mask0_2321_5098" style="mask-type:luminance" maskUnits="userSpaceOnUse" x="0" y="0" width="170" height="239">
<path d="M0 0H169.5V239H0V0Z" fill="white"/>
</mask>
<g mask="url(#mask0_2321_5098)">
<path d="M163.305 238.078H6.78906C3.46484 238.078 0.773438 235.363 0.773438 232.02V6.44922C0.773438 3.10547 3.46484 0.390625 6.78906 0.390625H163.305C166.629 0.390625 169.32 3.10547 169.32 6.44922V232.02C169.32 235.363 166.629 238.078 163.305 238.078Z" fill="white"/>
</g>
<mask id="mask1_2321_5098" style="mask-type:luminance" maskUnits="userSpaceOnUse" x="11" y="10" width="148" height="79">
<path d="M11 10H159V89H11V10Z" fill="white"/>
</mask>
<g mask="url(#mask1_2321_5098)">
<mask id="mask2_2321_5098" style="mask-type:luminance" maskUnits="userSpaceOnUse" x="11" y="10" width="148" height="79">
<path d="M158.453 88.1328C158.453 62.2344 158.461 36.3281 158.469 10.4336C109.613 10.4336 60.75 10.4336 11.8945 10.4414C11.8711 35.918 11.8516 61.3945 11.8281 86.8711C14.3906 75.4336 19.5664 58.5664 29.4375 49.5586C36.9883 42.6758 40.7617 39.2266 43.7188 37.8438C45.0898 37.1992 49.4766 35.3008 53.1094 30.8711C53.7812 30.0508 54.2695 29.332 54.5781 28.8516C54.8906 29.2734 56.1094 30.8242 57.7812 30.8555C59.9531 30.8906 62.3867 28.3438 62.5039 24.5039C62.7617 25.0742 64.8984 29.6172 69.7578 30.6445C72.0977 31.1406 74.0625 30.6133 75.0742 30.2539C75.7344 29.707 76.6133 28.8594 77.4141 27.6445C78.2031 26.4531 78.6289 25.3359 78.8789 24.5234H91.4258C91.5 24.9883 92.1094 28.418 95.2266 30.1289C98.2813 31.8008 101.379 30.5234 102.328 30.1406C105.621 28.8164 107.016 26.0781 107.324 25.4336C108.066 28.9727 110.543 31.1641 112.719 30.9883C113.07 30.9609 114.203 30.8086 115.379 29.4883L119.137 32.6172C120.609 33.4883 122.672 34.7695 125.047 36.4336C127.836 38.3867 137.094 44.9531 144.359 54.3984C154.012 66.9375 157.246 80.7461 158.445 88.1172L158.453 88.1328Z" fill="white"/>
</mask>
<g mask="url(#mask2_2321_5098)">
<path d="M11.8281 10.4336V88.1328H158.469V10.4336H11.8281Z" fill="url(#paint0_linear_2321_5098)"/>
</g>
</g>
<path d="M158.844 228.227H11.3711C11.3711 182.895 11.3711 137.566 11.3711 92.2344C11.3711 64.8437 11.3711 37.4609 11.3711 10.0742H158.844C158.844 37.418 158.844 64.7617 158.844 92.1094C158.844 137.484 158.844 182.852 158.844 228.227Z" stroke="#0E0E0E" stroke-width="0.75" stroke-linecap="round" stroke-linejoin="round"/>
<path d="M85.0273 32.5039C84.9766 31.8828 84.7188 29.6992 82.9141 27.8477C81.293 26.1836 79.3867 25.7852 78.7344 25.6719C78.7891 25.0195 78.8398 24.3672 78.8906 23.7148C79.7461 23.3164 81.4648 22.3711 82.8906 20.4609C84.3359 18.5156 84.75 16.582 84.8867 15.6445C85.2227 16.8164 85.9648 18.8164 87.6602 20.7656C88.9648 22.2656 90.3516 23.1836 91.3125 23.7148C91.3633 24.3672 91.418 25.0195 91.4688 25.6719C91.0039 25.7188 88.0117 26.0625 86.2109 28.6797C85.1562 30.2266 85.0273 31.8008 85.0117 32.5039H85.0273Z" fill="white"/>
<path d="M53.8125 22.0664C54.6445 21.8242 56.0156 21.5625 57.5703 21.9375C58.9258 22.2617 59.8438 22.9218 60.3594 23.3086C64.9219 26.7304 65.5937 29.3867 68.7305 30.5859C69.1367 30.7422 72.0664 31.7109 75.0234 30.3281C77.1094 29.3554 78.5938 27.1367 78.8242 24.7265C79.1563 21.2773 76.7539 17.8633 73.9727 17.2422C73.6485 17.1679 71.8945 16.7773 70.461 17.8515C70.2813 17.9843 69.1719 18.8398 69.0157 20.3476C68.9922 20.5742 68.8125 22.5156 70.2969 23.4609C71.1289 23.9843 72.1875 24.0156 73.0274 23.625C74.2188 23.0781 74.9414 21.7031 74.7539 20.2343C75.0469 20.5586 75.4492 21.0586 75.7734 21.75C75.9297 22.0781 76.9492 24.3359 75.9766 26.5039C74.7891 29.1445 71.5586 29.6093 71.1211 29.6718C68.2344 30.082 65.2344 28.5664 63.2695 25.8437" stroke="#0E0E0E" stroke-width="0.75" stroke-linecap="round" stroke-linejoin="round"/>
<path d="M78.8906 23.625C79.4609 23.3477 80.3555 22.8438 81.2617 22.0195C84.1641 19.3711 84.6992 15.6992 84.9375 14.0625C85.0742 13.1406 85.1914 11.7656 85.0352 10.0664" stroke="#0E0E0E" stroke-width="0.75" stroke-linecap="round" stroke-linejoin="round"/>
<path d="M78.7344 25.582C79.4492 25.7109 80.2188 25.9336 80.9844 26.3242C84.4414 28.0859 84.9531 31.7773 85.0273 32.4141" stroke="#0E0E0E" stroke-width="0.75" stroke-linecap="round" stroke-linejoin="round"/>
<path d="M116.391 22.0664C115.559 21.8242 114.187 21.5625 112.637 21.9375C111.277 22.2617 110.363 22.9218 109.844 23.3086C105.285 26.7304 104.609 29.3867 101.477 30.5859C101.07 30.7422 98.1367 31.7109 95.1836 30.3281C93.0977 29.3554 91.6133 27.1367 91.3789 24.7265C91.0508 21.2773 93.4492 17.8633 96.2344 17.2422C96.5547 17.1679 98.3086 16.7773 99.7422 17.8515C99.9219 17.9843 101.031 18.8398 101.191 20.3476C101.211 20.5742 101.391 22.5156 99.9063 23.4609C99.0742 23.9843 98.0156 24.0156 97.1758 23.625C95.9844 23.0781 95.2656 21.7031 95.4531 20.2343C95.1602 20.5586 94.7539 21.0586 94.4336 21.75C94.2734 22.0781 93.2539 24.3359 94.2304 26.5039C95.414 29.1445 98.6484 29.6093 99.082 29.6718C101.969 30.082 104.969 28.5664 106.934 25.8437" stroke="#0E0E0E" stroke-width="0.75" stroke-linecap="round" stroke-linejoin="round"/>
<path d="M91.4766 25.582C90.7656 25.7109 89.9922 25.9336 89.2266 26.3242C85.7695 28.0859 85.2617 31.7773 85.1836 32.4141" stroke="#0E0E0E" stroke-width="0.75" stroke-linecap="round" stroke-linejoin="round"/>
<path d="M115.687 28.9219C115.574 29.1758 114.984 30.4883 113.594 30.9219C112.125 31.3867 110.836 30.5312 110.297 30.1719C108.023 28.6641 107.797 25.793 107.773 25.3281" stroke="#0E0E0E" stroke-width="0.75" stroke-linecap="round" stroke-linejoin="round"/>
<path d="M123.66 35.836C123.016 35.4688 122.109 34.9141 121.086 34.172C118.141 32.0235 115.836 30.3516 115.238 27.6212C114.691 25.1407 115.809 23.047 116.004 22.6954C117.84 19.379 121.687 18.8321 122.484 18.7423C126.059 18.336 129.691 20.2266 131.961 23.5274" stroke="#0E0E0E" stroke-width="0.75" stroke-linecap="round" stroke-linejoin="round"/>
<path d="M131.469 40.9805C131.504 33.2617 129.613 27.2031 126.621 25.5312C125.086 24.6758 123.524 24.6523 123.524 24.6523C123.008 24.6523 120.391 24.6914 118.734 26.8516C117.254 28.7773 117.621 30.9844 117.691 31.3594" stroke="#0E0E0E" stroke-width="0.75" stroke-linecap="round" stroke-linejoin="round"/>
<path d="M152.594 37.0782C152.985 36.8867 154.231 36.3086 155.574 36.6524C157.965 37.2617 158.234 40.1485 158.25 40.3594C158.391 42.1953 157.266 44.3321 155.121 45.0977C153.473 45.6836 151.883 45.2188 151.035 44.9688C148.289 44.168 146.781 42.3008 146.031 41.3555C143.633 38.2969 144.801 36.8086 142.344 34.6367C141.676 34.043 140.324 32.8438 138.254 32.5274C136.102 32.1914 135.219 33.1211 133.254 32.5742C131.324 32.0313 130.328 30.6133 130.074 30.2188C129.953 30.0391 128.551 27.7813 129.871 25.5078C130.141 25.0352 130.941 23.6641 132.75 23.2657C134.391 22.9141 136.199 23.5117 137.192 24.6914C138.039 25.6953 138.285 27.1133 137.625 28.2383C137.484 28.4844 137.031 29.25 136.012 29.5586C135.156 29.8125 134.07 29.6992 133.32 29.1016C132.66 28.5664 132.539 27.8867 132.516 27.6836" stroke="#0E0E0E" stroke-width="0.75" stroke-linecap="round" stroke-linejoin="round"/>
<path d="M143.887 36.7266C143.574 33.3086 141.824 30.4961 139.266 29.5781C138.684 29.3711 137.766 29.1602 136.551 29.3086" stroke="#0E0E0E" stroke-width="0.75" stroke-linecap="round" stroke-linejoin="round"/>
<path d="M146.488 42.0391C146.023 41.918 144.09 41.4688 142.441 42.5469C140.453 43.8516 139.656 46.875 140.879 49.7383" stroke="#0E0E0E" stroke-width="0.75" stroke-linecap="round" stroke-linejoin="round"/>
<path d="M147.848 52.3437C147.539 52.3281 146.902 52.3359 146.227 52.6875C145.133 53.2656 144.773 54.3242 144.703 54.5625" stroke="#0E0E0E" stroke-width="0.75" stroke-linecap="round" stroke-linejoin="round"/>
<path d="M158.836 91.1563C158.82 91.0508 158.805 90.8633 158.773 90.6445C158.191 85.5078 154.883 61.5234 135.156 44.0234C132.703 41.8516 128.902 38.7969 123.668 35.8281" stroke="#0E0E0E" stroke-width="0.75" stroke-linecap="round" stroke-linejoin="round"/>
<path d="M85.0273 32.5039C84.9766 31.8828 84.7188 29.6992 82.9141 27.8477C81.293 26.1836 79.3867 25.7852 78.7344 25.6719C78.7891 25.0195 78.8398 24.3672 78.8906 23.7148C79.7461 23.3164 81.4649 22.3711 82.8906 20.4609C84.336 18.5156 84.75 16.582 84.8867 15.6445C85.2227 16.8164 85.9649 18.8164 87.6602 20.7656C88.9649 22.2656 90.3515 23.1836 91.3125 23.7148C91.3633 24.3672 91.418 25.0195 91.4688 25.6719C91.0039 25.7187 88.0117 26.0625 86.2109 28.6797C85.1562 30.2266 85.0274 31.8008 85.0117 32.5039H85.0273Z" fill="black" stroke="black" stroke-width="0.5625" stroke-linecap="round" stroke-linejoin="round"/>
<path d="M116.391 22.0664C115.559 21.8242 114.187 21.5625 112.637 21.9375C111.277 22.2617 110.363 22.9218 109.844 23.3086C105.285 26.7304 104.609 29.3867 101.477 30.5859C101.07 30.7422 98.1367 31.7109 95.1836 30.3281C93.0977 29.3554 91.6133 27.1367 91.3789 24.7265C91.0508 21.2773 93.4492 17.8633 96.2344 17.2422C96.5547 17.1679 98.3086 16.7773 99.7422 17.8515C99.9219 17.9843 101.031 18.8398 101.191 20.3476C101.211 20.5742 101.391 22.5156 99.9063 23.4609C99.0742 23.9843 98.0156 24.0156 97.1758 23.625C95.9844 23.0781 95.2656 21.7031 95.4531 20.2343C95.1602 20.5586 94.7539 21.0586 94.4336 21.75C94.2734 22.0781 93.2539 24.3359 94.2304 26.5039C95.414 29.1445 98.6484 29.6093 99.082 29.6718C101.969 30.082 104.969 28.5664 106.934 25.8437" stroke="#0E0E0E" stroke-width="0.75" stroke-linecap="round" stroke-linejoin="round"/>
<path d="M91.3203 23.625C90.2188 23.0781 89.4453 22.4688 88.9492 22.0195C85.6055 18.9766 85.2813 14.4531 85.1641 12.7891C85.0781 11.6484 85.125 10.7031 85.1758 10.0664" stroke="#0E0E0E" stroke-width="0.75" stroke-linecap="round" stroke-linejoin="round"/>
<path d="M91.4766 25.582C90.7656 25.7109 89.9922 25.9336 89.2266 26.3242C85.7695 28.0859 85.2617 31.7773 85.1836 32.4141" stroke="#0E0E0E" stroke-width="0.75" stroke-linecap="round" stroke-linejoin="round"/>
<path d="M115.687 28.9219C115.574 29.1758 114.984 30.4883 113.594 30.9219C112.125 31.3867 110.836 30.5312 110.297 30.1719C108.023 28.6641 107.797 25.793 107.773 25.3281" stroke="#0E0E0E" stroke-width="0.75" stroke-linecap="round" stroke-linejoin="round"/>
<path d="M123.66 35.836C123.016 35.4688 122.109 34.9141 121.086 34.172C118.141 32.0235 115.836 30.3516 115.238 27.6212C114.691 25.1407 115.809 23.047 116.004 22.6954C117.84 19.379 121.687 18.8321 122.484 18.7423C126.059 18.336 129.691 20.2266 131.961 23.5274" stroke="#0E0E0E" stroke-width="0.75" stroke-linecap="round" stroke-linejoin="round"/>
<path d="M131.469 40.9805C131.504 33.2617 129.613 27.2031 126.621 25.5312C125.086 24.6758 123.524 24.6523 123.524 24.6523C123.008 24.6523 120.391 24.6914 118.734 26.8516C117.254 28.7773 117.621 30.9844 117.691 31.3594" stroke="#0E0E0E" stroke-width="0.75" stroke-linecap="round" stroke-linejoin="round"/>
<path d="M152.594 37.0782C152.985 36.8867 154.231 36.3086 155.574 36.6524C157.965 37.2617 158.234 40.1485 158.25 40.3594C158.391 42.1953 157.266 44.3321 155.121 45.0977C153.473 45.6836 151.883 45.2188 151.035 44.9688C148.289 44.168 146.781 42.3008 146.031 41.3555C143.633 38.2969 144.801 36.8086 142.344 34.6367C141.676 34.043 140.324 32.8438 138.254 32.5274C136.102 32.1914 135.219 33.1211 133.254 32.5742C131.324 32.0313 130.328 30.6133 130.074 30.2188C129.953 30.0391 128.551 27.7813 129.871 25.5078C130.141 25.0352 130.941 23.6641 132.75 23.2657C134.391 22.9141 136.199 23.5117 137.192 24.6914C138.039 25.6953 138.285 27.1133 137.625 28.2383C137.484 28.4844 137.031 29.25 136.012 29.5586C135.156 29.8125 134.07 29.6992 133.32 29.1016C132.66 28.5664 132.539 27.8867 132.516 27.6836" stroke="#0E0E0E" stroke-width="0.75" stroke-linecap="round" stroke-linejoin="round"/>
<path d="M143.887 36.7266C143.574 33.3086 141.824 30.4961 139.266 29.5781C138.684 29.3711 137.766 29.1602 136.551 29.3086" stroke="#0E0E0E" stroke-width="0.75" stroke-linecap="round" stroke-linejoin="round"/>
<path d="M158.738 48.8007C157.508 46.6952 155.543 45.3827 153.586 45.5038C151.164 45.6523 149.738 47.9257 149.121 48.9062C145.656 54.4335 149.363 61.9882 149.934 63.121" stroke="#0E0E0E" stroke-width="0.75" stroke-linecap="round" stroke-linejoin="round"/>
<path d="M158.789 90.4805C157.379 80.8281 152.797 59.7148 135.148 44.0312C131.309 40.6211 127.387 37.9414 123.66 35.8359" stroke="#0E0E0E" stroke-width="0.75" stroke-linecap="round" stroke-linejoin="round"/>
<mask id="mask3_2321_5098" style="mask-type:luminance" maskUnits="userSpaceOnUse" x="11" y="148" width="148" height="80">
<path d="M11 148H159V228H11V148Z" fill="white"/>
</mask>
<g mask="url(#mask3_2321_5098)">
<mask id="mask4_2321_5098" style="mask-type:luminance" maskUnits="userSpaceOnUse" x="11" y="148" width="148" height="80">
<path d="M11.6836 148.68C11.707 175.074 11.7227 201.465 11.7461 227.852C60.6094 227.844 109.469 227.828 158.332 227.82C158.355 202.344 158.379 176.863 158.398 151.387C153.547 162.676 146.109 176.43 134.566 190.172C130.109 195.465 125.625 200.086 121.297 204.09C120.098 205.68 118.898 207.262 117.703 208.852C117.023 209.039 116.34 209.219 115.656 209.406C115.344 208.988 114.129 207.434 112.453 207.406C110.281 207.367 107.852 209.918 107.73 213.758C107.477 213.188 105.336 208.641 100.477 207.613C98.1367 207.121 96.1719 207.645 95.1602 208.004C94.5 208.551 93.6211 209.398 92.8203 210.613C92.0313 211.809 91.6055 212.926 91.3594 213.734H78.8086C78.7344 213.27 78.1289 209.844 75.0078 208.133C71.9531 206.461 68.8594 207.734 67.9062 208.117C64.6133 209.445 63.2188 212.184 62.9102 212.828C62.168 209.289 59.6914 207.098 57.5156 207.27C57.1641 207.301 56.0312 207.449 54.8555 208.77C53.6016 207.727 52.3516 206.684 51.0977 205.641C45.2773 202.762 34.4414 196.426 25.3438 184.141C14.707 169.77 12.3516 155.227 11.6992 148.688L11.6836 148.68Z" fill="white"/>
</mask>
<g mask="url(#mask4_2321_5098)">
<path d="M11.6836 148.68V227.852H158.398V148.68H11.6836Z" fill="url(#paint1_linear_2321_5098)"/>
</g>
</g>
<path d="M85.0742 205.957C85.125 206.578 85.3789 208.762 87.1875 210.613C88.8086 212.281 90.7109 212.676 91.3633 212.789C91.3125 213.441 91.2617 214.094 91.207 214.746C90.3516 215.145 88.6367 216.09 87.2109 218.004C85.7617 219.945 85.3516 221.879 85.2148 222.816C84.8789 221.648 84.1367 219.645 82.4414 217.695C81.1367 216.195 79.7461 215.281 78.7891 214.746C78.7344 214.094 78.6836 213.441 78.6289 212.789C79.0938 212.746 82.0859 212.398 83.8867 209.781C84.9453 208.238 85.0742 206.664 85.0859 205.957H85.0742Z" fill="white"/>
<path d="M116.281 216.398C115.449 216.637 114.074 216.898 112.523 216.523C111.164 216.203 110.25 215.543 109.734 215.152C105.172 211.734 104.496 209.078 101.363 207.879C100.957 207.719 98.0234 206.754 95.0703 208.133C92.9844 209.109 91.5 211.328 91.2656 213.734C90.9375 217.184 93.336 220.598 96.1211 221.219C96.4414 221.297 98.1992 221.684 99.6289 220.613C99.8086 220.477 100.922 219.621 101.078 218.113C101.102 217.891 101.281 215.949 99.7969 215.004C98.9609 214.477 97.9062 214.449 97.0664 214.836C95.8711 215.387 95.1524 216.758 95.3399 218.227C95.0469 217.906 94.6406 217.402 94.3203 216.711C94.1641 216.383 93.1407 214.125 94.1172 211.957C95.3008 209.316 98.5352 208.852 98.9688 208.793C101.859 208.379 104.859 209.895 106.824 212.617" stroke="#0E0E0E" stroke-width="0.75" stroke-linecap="round" stroke-linejoin="round"/>
<path d="M91.1992 214.836C90.1406 215.363 89.371 215.953 88.8281 216.441C85.7187 219.27 85.2617 223.387 85.0429 225.316C84.8984 226.566 84.914 227.602 84.9453 228.238" stroke="#0E0E0E" stroke-width="0.75" stroke-linecap="round" stroke-linejoin="round"/>
<path d="M91.3594 212.879C90.6445 212.754 89.8711 212.527 89.1094 212.137C85.6484 210.375 85.1406 206.684 85.0664 206.047" stroke="#0E0E0E" stroke-width="0.75" stroke-linecap="round" stroke-linejoin="round"/>
<path d="M53.6992 216.398C54.5312 216.637 55.9062 216.898 57.457 216.523C58.8164 216.203 59.7304 215.543 60.2461 215.152C64.8086 211.734 65.4844 209.078 68.6172 207.879C69.0234 207.719 71.9531 206.754 74.9102 208.133C76.9961 209.109 78.4805 211.328 78.7109 213.734C79.043 217.184 76.6406 220.598 73.8594 221.219C73.539 221.297 71.7812 221.684 70.3516 220.613C70.1719 220.477 69.0586 219.621 68.9023 218.113C68.8789 217.891 68.6992 215.949 70.1836 215.004C71.0156 214.477 72.0742 214.449 72.914 214.836C74.1093 215.387 74.8281 216.758 74.6406 218.227C74.9336 217.906 75.3359 217.402 75.6602 216.711C75.8164 216.383 76.8359 214.125 75.8633 211.957C74.6758 209.316 71.4453 208.852 71.0117 208.793C68.1211 208.379 65.1211 209.895 63.1562 212.617" stroke="#0E0E0E" stroke-width="0.75" stroke-linecap="round" stroke-linejoin="round"/>
<path d="M78.6133 212.879C79.2969 212.773 80.0781 212.559 80.8633 212.137C84.0742 210.441 84.9062 206.82 85.0664 206.047" stroke="#0E0E0E" stroke-width="0.75" stroke-linecap="round" stroke-linejoin="round"/>
<path d="M54.4062 209.543C54.5156 209.289 55.1094 207.977 56.4961 207.539C57.9687 207.074 59.2578 207.93 59.7969 208.289C62.0703 209.797 62.2969 212.672 62.3164 213.137" stroke="#0E0E0E" stroke-width="0.75" stroke-linecap="round" stroke-linejoin="round"/>
<path d="M46.4336 202.629C47.0781 202.996 47.9844 203.551 49.0039 204.293C51.9531 206.438 54.2539 208.109 54.8555 210.84C55.4023 213.324 54.2852 215.414 54.0898 215.766C52.2539 219.082 48.4063 219.629 47.6094 219.719C44.0312 220.125 40.4023 218.234 38.1289 214.934" stroke="#0E0E0E" stroke-width="0.75" stroke-linecap="round" stroke-linejoin="round"/>
<path d="M38.625 197.484C38.5859 205.199 40.4766 211.262 43.4688 212.934C45.0078 213.789 46.5664 213.809 46.5664 213.809C47.0859 213.809 49.7031 213.773 51.3594 211.613C52.8359 209.684 52.4687 207.48 52.4023 207.105" stroke="#0E0E0E" stroke-width="0.75" stroke-linecap="round" stroke-linejoin="round"/>
<path d="M17.496 201.383C17.1093 201.578 15.8632 202.156 14.5195 201.809C12.1288 201.203 11.8593 198.316 11.8437 198.105C11.6992 196.266 12.8242 194.129 14.9687 193.363C16.621 192.781 18.2109 193.246 19.0585 193.492C21.8007 194.297 23.3085 196.164 24.0585 197.109C26.4609 200.168 25.289 201.652 27.7499 203.828C28.4179 204.422 29.7656 205.621 31.8359 205.934C33.9882 206.273 34.8749 205.344 36.8398 205.891C38.7656 206.43 39.7655 207.848 40.0195 208.246C40.1405 208.426 41.5429 210.684 40.2226 212.953C39.9531 213.426 39.1484 214.801 37.3437 215.199C35.6992 215.551 33.8906 214.949 32.9023 213.773C32.0546 212.766 31.8085 211.351 32.4687 210.226C32.6093 209.976 33.0585 209.211 34.078 208.906C34.9335 208.648 36.0234 208.762 36.7734 209.363C37.4335 209.894 37.5507 210.578 37.5742 210.781" stroke="#0E0E0E" stroke-width="0.75" stroke-linecap="round" stroke-linejoin="round"/>
<path d="M26.2031 201.727C26.5195 205.148 28.2657 207.961 30.8242 208.875C31.4102 209.086 32.3242 209.297 33.5391 209.145" stroke="#0E0E0E" stroke-width="0.75" stroke-linecap="round" stroke-linejoin="round"/>
<path d="M23.6094 196.426C24.0898 196.547 26.0117 196.98 27.6602 195.914C29.6641 194.609 30.4805 191.586 29.2734 188.707" stroke="#0E0E0E" stroke-width="0.75" stroke-linecap="round" stroke-linejoin="round"/>
<path d="M22.2539 186.121C22.5586 186.137 23.1992 186.129 23.8711 185.773C24.9961 185.184 25.3438 184.078 25.4102 183.855" stroke="#0E0E0E" stroke-width="0.75" stroke-linecap="round" stroke-linejoin="round"/>
<path d="M11.3906 146.535C12.5938 156.195 16.8086 178.273 34.9414 194.437C38.7735 197.852 42.6914 200.527 46.4336 202.637" stroke="#0E0E0E" stroke-width="0.75" stroke-linecap="round" stroke-linejoin="round"/>
<path d="M85.0742 205.957C85.125 206.578 85.3789 208.762 87.1875 210.613C88.8086 212.281 90.711 212.676 91.3633 212.789C91.3125 213.441 91.2617 214.094 91.207 214.746C90.7422 214.957 90.1055 215.289 89.4219 215.805C87.8867 216.984 87.1485 218.363 86.5039 219.609C85.9414 220.703 85.2149 222.398 84.8399 224.633C84.832 223.559 84.668 220.477 82.4336 217.687C81.1641 216.098 79.711 215.203 78.7813 214.738C78.7266 214.086 78.6758 213.434 78.6211 212.781C79.0859 212.738 82.0781 212.391 83.8789 209.773C84.9375 208.23 85.0664 206.656 85.0781 205.949L85.0742 205.957Z" fill="black" stroke="black" stroke-width="0.5625" stroke-linecap="round" stroke-linejoin="round"/>
<path d="M53.6992 216.398C54.5312 216.637 55.9062 216.898 57.457 216.523C58.8164 216.203 59.7304 215.543 60.2461 215.152C64.8086 211.734 65.4844 209.078 68.6172 207.879C69.0234 207.719 71.9531 206.754 74.9102 208.133C76.9961 209.109 78.4805 211.328 78.7109 213.734C79.043 217.184 76.6406 220.598 73.8594 221.219C73.539 221.297 71.7812 221.684 70.3516 220.613C70.1719 220.477 69.0586 219.621 68.9023 218.113C68.8789 217.891 68.6992 215.949 70.1836 215.004C71.0156 214.477 72.0742 214.449 72.914 214.836C74.1093 215.387 74.8281 216.758 74.6406 218.227C74.9336 217.906 75.3359 217.402 75.6602 216.711C75.8164 216.383 76.8359 214.125 75.8633 211.957C74.6758 209.316 71.4453 208.852 71.0117 208.793C68.1211 208.379 65.1211 209.895 63.1562 212.617" stroke="#0E0E0E" stroke-width="0.75" stroke-linecap="round" stroke-linejoin="round"/>
<path d="M78.7734 214.836C79.3945 215.137 80.2656 215.641 81.1406 216.441C82.9961 218.152 83.6641 220.133 84.1797 221.754C84.9844 224.258 85.0664 226.539 84.9532 228.238" stroke="#0E0E0E" stroke-width="0.75" stroke-linecap="round" stroke-linejoin="round"/>
<path d="M78.6133 212.879C79.2969 212.773 80.0781 212.559 80.8633 212.137C84.1055 210.422 84.914 206.715 85.0664 205.957" stroke="#0E0E0E" stroke-width="0.75" stroke-linecap="round" stroke-linejoin="round"/>
<path d="M54.4062 209.543C54.5156 209.289 55.1094 207.977 56.4961 207.539C57.9687 207.074 59.2578 207.93 59.7969 208.289C62.0703 209.797 62.2969 212.672 62.3164 213.137" stroke="#0E0E0E" stroke-width="0.75" stroke-linecap="round" stroke-linejoin="round"/>
<path d="M46.4336 202.629C47.0781 202.996 47.9844 203.551 49.0039 204.293C51.9531 206.438 54.2539 208.109 54.8555 210.84C55.4023 213.324 54.2852 215.414 54.0898 215.766C52.2539 219.082 48.4063 219.629 47.6094 219.719C44.0312 220.125 40.4023 218.234 38.1289 214.934" stroke="#0E0E0E" stroke-width="0.75" stroke-linecap="round" stroke-linejoin="round"/>
<path d="M38.625 197.484C38.5859 205.199 40.4766 211.262 43.4688 212.934C45.0078 213.789 46.5664 213.809 46.5664 213.809C47.0859 213.809 49.7031 213.773 51.3594 211.613C52.8359 209.684 52.4687 207.48 52.4023 207.105" stroke="#0E0E0E" stroke-width="0.75" stroke-linecap="round" stroke-linejoin="round"/>
<path d="M17.496 201.383C17.1093 201.578 15.8632 202.156 14.5195 201.809C12.1288 201.203 11.8593 198.316 11.8437 198.105C11.6992 196.266 12.8242 194.129 14.9687 193.363C16.621 192.781 18.2109 193.246 19.0585 193.492C21.8007 194.297 23.3085 196.164 24.0585 197.109C26.4609 200.168 25.289 201.652 27.7499 203.828C28.4179 204.422 29.7656 205.621 31.8359 205.934C33.9882 206.273 34.8749 205.344 36.8398 205.891C38.7656 206.43 39.7655 207.848 40.0195 208.246C40.1405 208.426 41.5429 210.684 40.2226 212.953C39.9531 213.426 39.1484 214.801 37.3437 215.199C35.6992 215.551 33.8906 214.949 32.9023 213.773C32.0546 212.766 31.8085 211.351 32.4687 210.226C32.6093 209.976 33.0585 209.211 34.078 208.906C34.9335 208.648 36.0234 208.762 36.7734 209.363C37.4335 209.894 37.5507 210.578 37.5742 210.781" stroke="#0E0E0E" stroke-width="0.75" stroke-linecap="round" stroke-linejoin="round"/>
<path d="M26.2031 201.727C26.5195 205.148 28.2657 207.961 30.8242 208.875C31.4102 209.086 32.3242 209.297 33.5391 209.145" stroke="#0E0E0E" stroke-width="0.75" stroke-linecap="round" stroke-linejoin="round"/>
<path d="M11.4375 189.797C11.5273 189.945 13.5235 193.141 16.5078 192.953C18.9219 192.801 20.3477 190.539 20.9688 189.547C24.4258 184.027 20.7305 176.469 20.1602 175.336" stroke="#0E0E0E" stroke-width="0.75" stroke-linecap="round" stroke-linejoin="round"/>
<path d="M23.6094 196.426C24.0898 196.547 26.0117 196.98 27.6602 195.914C29.6641 194.609 30.4805 191.586 29.2734 188.707" stroke="#0E0E0E" stroke-width="0.75" stroke-linecap="round" stroke-linejoin="round"/>
<path d="M22.2539 186.121C22.5586 186.137 23.1992 186.129 23.8711 185.773C24.9961 185.184 25.3438 184.078 25.4102 183.855" stroke="#0E0E0E" stroke-width="0.75" stroke-linecap="round" stroke-linejoin="round"/>
<path d="M11.3906 146.535C12.5938 156.195 16.8086 178.273 34.9414 194.437C38.7735 197.852 42.6914 200.527 46.4336 202.637" stroke="#0E0E0E" stroke-width="0.75" stroke-linecap="round" stroke-linejoin="round"/>
<path d="M23.707 22.5H42.8008V23.5352H42.3984C41.6328 23.5352 41.0312 23.8711 40.5898 24.5547L30.3438 42.6602C30.2344 42.9219 30.1719 43.1563 30.1719 43.3633C30.1719 43.5156 30.2031 43.6367 30.2617 43.7383C30.3906 43.918 30.6016 44.0117 30.8906 44.0117L31.3125 43.9805L31.2969 45.0469H24.0312V43.9805L24.4492 44.0117C24.8008 44.0117 25.1641 43.9062 25.5078 43.6875C25.8594 43.4688 26.1445 43.1836 26.3633 42.832V42.8164C29.1914 37.7852 32.7891 31.3594 37.1719 23.5352H27.4414C26.6914 23.5352 26.0469 23.8047 25.5234 24.3359C24.9883 24.8711 24.7266 25.5078 24.7266 26.25V26.6562H23.6914V22.5H23.707Z" fill="black"/>
<path d="M146.309 216.051H127.215V215.016H127.621C128.387 215.016 128.984 214.68 129.426 213.996L139.672 195.891C139.785 195.629 139.844 195.398 139.844 195.188C139.844 195.039 139.816 194.918 139.754 194.812C139.629 194.633 139.418 194.543 139.125 194.543L138.703 194.574L138.719 193.508H145.988V194.574L145.566 194.543C145.215 194.543 144.855 194.648 144.512 194.863C144.156 195.082 143.871 195.367 143.656 195.719V195.734C140.828 200.766 137.227 207.195 132.848 215.016H142.574C143.324 215.016 143.969 214.746 144.496 214.215C145.027 213.684 145.289 213.047 145.289 212.301V211.898H146.324V216.051H146.309Z" fill="black"/>
<path d="M116.145 199.539C115.469 200.594 114.637 201.75 113.617 202.934C112.934 203.73 112.254 204.434 111.602 205.059C112.434 205.883 113.316 206.852 114.203 207.969C114.953 208.906 115.59 209.812 116.145 210.668C116.699 209.844 117.336 208.957 118.078 208.059C119.012 206.918 119.941 205.941 120.809 205.102C120.039 204.414 119.199 203.574 118.352 202.574C117.441 201.504 116.723 200.469 116.145 199.539Z" fill="#EB1C24" stroke="black" stroke-width="0.5625" stroke-linecap="round" stroke-linejoin="round"/>
<path d="M53.7617 27.8477C53.0859 28.9063 52.2539 30.0586 51.2344 31.2461C50.5508 32.0391 49.8672 32.7461 49.2148 33.3672C50.0469 34.1914 50.9336 35.1602 51.8164 36.2773C52.5664 37.2148 53.2031 38.1211 53.7617 38.9766C54.3164 38.1523 54.9531 37.2656 55.6953 36.3672C56.625 35.2266 57.5547 34.2539 58.4258 33.4141C57.6523 32.7227 56.8125 31.8828 55.9648 30.8867C55.0586 29.8125 54.3359 28.7773 53.7617 27.8477Z" fill="#EB1C24" stroke="black" stroke-width="0.5625" stroke-linecap="round" stroke-linejoin="round"/>
<path d="M64.1641 46.5469C62.6758 48.8633 60.8477 51.3984 58.6133 54C57.1133 55.7461 55.6211 57.293 54.1953 58.6562C56.0234 60.4727 57.961 62.5859 59.9102 65.0312C61.5469 67.0859 62.9531 69.0898 64.1719 70.957C65.3867 69.1406 66.789 67.207 68.414 65.2266C70.4531 62.7305 72.4883 60.5859 74.3984 58.7461C72.7109 57.2344 70.8672 55.3945 69.0078 53.1992C67.0195 50.8516 65.4297 48.5781 64.1719 46.5391L64.1641 46.5469Z" fill="#EB1C24" stroke="black" stroke-width="0.5625" stroke-linecap="round" stroke-linejoin="round"/>
<path d="M105.996 46.5469C104.512 48.8633 102.684 51.3984 100.449 54C98.9492 55.7461 97.4531 57.293 96.0312 58.6562C97.8594 60.4727 99.7969 62.5859 101.746 65.0312C103.379 67.0859 104.789 69.0898 106.004 70.957C107.219 69.1406 108.621 67.207 110.25 65.2266C112.289 62.7305 114.324 60.5859 116.234 58.7461C114.547 57.2344 112.703 55.3945 110.844 53.1992C108.855 50.8516 107.266 48.5781 106.004 46.5391L105.996 46.5469Z" fill="#EB1C24" stroke="black" stroke-width="0.5625" stroke-linecap="round" stroke-linejoin="round"/>
<path d="M64.1641 104.551C62.6758 106.867 60.8477 109.402 58.6133 112.004C57.1133 113.754 55.6211 115.297 54.1953 116.664C56.0234 118.477 57.961 120.594 59.9102 123.039C61.5469 125.094 62.9531 127.094 64.1719 128.961C65.3867 127.148 66.789 125.211 68.414 123.234C70.4531 120.734 72.4883 118.59 74.3984 116.754C72.7109 115.238 70.8672 113.398 69.0078 111.203C67.0195 108.855 65.4297 106.582 64.1719 104.543L64.1641 104.551Z" fill="#EB1C24" stroke="black" stroke-width="0.5625" stroke-linecap="round" stroke-linejoin="round"/>
<path d="M105.996 104.551C104.512 106.867 102.684 109.402 100.449 112.004C98.9492 113.754 97.4531 115.297 96.0312 116.664C97.8594 118.477 99.7969 120.594 101.746 123.039C103.379 125.094 104.789 127.094 106.004 128.961C107.219 127.148 108.621 125.211 110.25 123.234C112.289 120.734 114.324 118.59 116.234 116.754C114.547 115.238 112.703 113.398 110.844 111.203C108.855 108.855 107.266 106.582 106.004 104.543L105.996 104.551Z" fill="#EB1C24" stroke="black" stroke-width="0.5625" stroke-linecap="round" stroke-linejoin="round"/>
<path d="M64.1641 162.57C62.6758 164.887 60.8477 167.422 58.6133 170.023C57.1133 171.773 55.6211 173.316 54.1953 174.684C56.0234 176.496 57.961 178.613 59.9102 181.059C61.5469 183.113 62.9531 185.113 64.1719 186.984C65.3867 185.168 66.789 183.234 68.414 181.254C70.4531 178.754 72.4883 176.609 74.3984 174.773C72.7109 173.258 70.8672 171.422 69.0078 169.223C67.0195 166.875 65.4297 164.602 64.1719 162.562L64.1641 162.57Z" fill="#EB1C24" stroke="black" stroke-width="0.5625" stroke-linecap="round" stroke-linejoin="round"/>
<path d="M105.996 162.57C104.512 164.887 102.684 167.422 100.449 170.023C98.9492 171.773 97.4531 173.316 96.0312 174.684C97.8594 176.496 99.7969 178.613 101.746 181.059C103.379 183.113 104.789 185.113 106.004 186.984C107.219 185.168 108.621 183.234 110.25 181.254C112.289 178.754 114.324 176.609 116.234 174.773C114.547 173.258 112.703 171.422 110.844 169.223C108.855 166.875 107.266 164.602 106.004 162.562L105.996 162.57Z" fill="#EB1C24" stroke="black" stroke-width="0.5625" stroke-linecap="round" stroke-linejoin="round"/>
<path d="M85.1836 74.0937C83.6992 76.4102 81.8711 78.9453 79.6367 81.5469C78.1367 83.2969 76.6406 84.8398 75.2188 86.2031C77.0469 88.0195 78.9844 90.1367 80.9336 92.5781C82.5664 94.6367 83.9766 96.6367 85.1914 98.5039C86.4062 96.6914 87.8086 94.7539 89.4375 92.7734C91.4765 90.2773 93.5117 88.1328 95.4219 86.2969C93.7344 84.7813 91.8906 82.9414 90.0312 80.7461C88.043 78.3984 86.4531 76.125 85.1914 74.0859L85.1836 74.0937Z" fill="#EB1C24" stroke="black" stroke-width="0.5625" stroke-linecap="round" stroke-linejoin="round"/>
<defs>
<linearGradient id="paint0_linear_2321_5098" x1="158.467" y1="49.275" x2="11.8275" y2="49.275" gradientUnits="userSpaceOnUse">
<stop stop-color="#8F8587"/>
<stop offset="0.00390625" stop-color="#908688"/>
<stop offset="0.0078125" stop-color="#918789"/>
<stop offset="0.0117187" stop-color="#92888A"/>
<stop offset="0.015625" stop-color="#92898B"/>
<stop offset="0.0195312" stop-color="#938A8B"/>
<stop offset="0.0234375" stop-color="#948B8C"/>
<stop offset="0.0273437" stop-color="#958C8D"/>
<stop offset="0.03125" stop-color="#968D8E"/>
<stop offset="0.0351563" stop-color="#978D8F"/>
<stop offset="0.0390625" stop-color="#988E90"/>
<stop offset="0.0429688" stop-color="#988F91"/>
<stop offset="0.046875" stop-color="#999092"/>
<stop offset="0.0507812" stop-color="#9A9193"/>
<stop offset="0.0546875" stop-color="#9B9294"/>
<stop offset="0.0585938" stop-color="#9C9395"/>
<stop offset="0.0625" stop-color="#9D9496"/>
<stop offset="0.0664062" stop-color="#9D9596"/>
<stop offset="0.0703125" stop-color="#9E9697"/>
<stop offset="0.0742188" stop-color="#9F9798"/>
<stop offset="0.078125" stop-color="#A09899"/>
<stop offset="0.0820312" stop-color="#A1999A"/>
<stop offset="0.0859375" stop-color="#A2999B"/>
<stop offset="0.0898438" stop-color="#A39A9C"/>
<stop offset="0.09375" stop-color="#A39B9D"/>
<stop offset="0.0976562" stop-color="#A49C9E"/>
<stop offset="0.101562" stop-color="#A59D9F"/>
<stop offset="0.105469" stop-color="#A69EA0"/>
<stop offset="0.109375" stop-color="#A79FA0"/>
<stop offset="0.113281" stop-color="#A8A0A1"/>
<stop offset="0.117188" stop-color="#A8A1A2"/>
<stop offset="0.121094" stop-color="#A9A2A3"/>
<stop offset="0.125" stop-color="#AAA3A4"/>
<stop offset="0.128906" stop-color="#ABA4A5"/>
<stop offset="0.132812" stop-color="#ACA5A6"/>
<stop offset="0.136719" stop-color="#ADA6A7"/>
<stop offset="0.140625" stop-color="#AEA6A8"/>
<stop offset="0.144531" stop-color="#AEA7A9"/>
<stop offset="0.148438" stop-color="#AFA8AA"/>
<stop offset="0.152344" stop-color="#B0A9AB"/>
<stop offset="0.15625" stop-color="#B1AAAB"/>
<stop offset="0.160156" stop-color="#B2ABAC"/>
<stop offset="0.164062" stop-color="#B3ACAD"/>
<stop offset="0.167969" stop-color="#B3ADAE"/>
<stop offset="0.171875" stop-color="#B4AEAF"/>
<stop offset="0.175781" stop-color="#B5AFB0"/>
<stop offset="0.179688" stop-color="#B6B0B1"/>
<stop offset="0.183594" stop-color="#B7B1B2"/>
<stop offset="0.1875" stop-color="#B8B2B3"/>
<stop offset="0.191406" stop-color="#B9B2B4"/>
<stop offset="0.195312" stop-color="#B9B3B5"/>
<stop offset="0.199219" stop-color="#BAB4B5"/>
<stop offset="0.203125" stop-color="#BBB5B6"/>
<stop offset="0.207031" stop-color="#BCB6B7"/>
<stop offset="0.210938" stop-color="#BDB7B8"/>
<stop offset="0.214844" stop-color="#BEB8B9"/>
<stop offset="0.21875" stop-color="#BEB9BA"/>
<stop offset="0.222656" stop-color="#BFBABB"/>
<stop offset="0.226562" stop-color="#C0BBBC"/>
<stop offset="0.230469" stop-color="#C1BCBD"/>
<stop offset="0.234375" stop-color="#C2BDBE"/>
<stop offset="0.238281" stop-color="#C3BEBF"/>
<stop offset="0.242188" stop-color="#C3BEBF"/>
<stop offset="0.246094" stop-color="#C4BFC0"/>
<stop offset="0.25" stop-color="#C5C0C1"/>
<stop offset="0.253906" stop-color="#C6C1C2"/>
<stop offset="0.257812" stop-color="#C6C2C3"/>
<stop offset="0.261719" stop-color="#C7C3C3"/>
<stop offset="0.265625" stop-color="#C8C3C4"/>
<stop offset="0.269531" stop-color="#C9C4C5"/>
<stop offset="0.273438" stop-color="#C9C5C6"/>
<stop offset="0.277344" stop-color="#CAC6C7"/>
<stop offset="0.28125" stop-color="#CBC7C7"/>
<stop offset="0.285156" stop-color="#CCC7C8"/>
<stop offset="0.289062" stop-color="#CCC8C9"/>
<stop offset="0.292969" stop-color="#CDC9CA"/>
<stop offset="0.296875" stop-color="#CECACB"/>
<stop offset="0.300781" stop-color="#CFCBCB"/>
<stop offset="0.304688" stop-color="#CFCCCC"/>
<stop offset="0.308594" stop-color="#D0CCCD"/>
<stop offset="0.3125" stop-color="#D1CDCE"/>
<stop offset="0.316406" stop-color="#D2CECF"/>
<stop offset="0.320312" stop-color="#D2CFCF"/>
<stop offset="0.324219" stop-color="#D3D0D0"/>
<stop offset="0.328125" stop-color="#D4D0D1"/>
<stop offset="0.332031" stop-color="#D5D1D2"/>
<stop offset="0.335938" stop-color="#D5D2D3"/>
<stop offset="0.339844" stop-color="#D6D3D3"/>
<stop offset="0.34375" stop-color="#D7D4D4"/>
<stop offset="0.347656" stop-color="#D8D5D5"/>
<stop offset="0.351562" stop-color="#D8D5D6"/>
<stop offset="0.355469" stop-color="#D9D6D7"/>
<stop offset="0.359375" stop-color="#DAD7D7"/>
<stop offset="0.363281" stop-color="#DBD8D8"/>
<stop offset="0.367188" stop-color="#DBD9D9"/>
<stop offset="0.371094" stop-color="#DCDADA"/>
<stop offset="0.375" stop-color="#DDDADB"/>
<stop offset="0.378906" stop-color="#DEDBDC"/>
<stop offset="0.382812" stop-color="#DEDCDC"/>
<stop offset="0.386719" stop-color="#DFDDDD"/>
<stop offset="0.390625" stop-color="#E0DEDE"/>
<stop offset="0.394531" stop-color="#E1DEDF"/>
<stop offset="0.398438" stop-color="#E1DFE0"/>
<stop offset="0.402344" stop-color="#E2E0E0"/>
<stop offset="0.40625" stop-color="#E3E1E1"/>
<stop offset="0.410156" stop-color="#E4E2E2"/>
<stop offset="0.414062" stop-color="#E4E3E3"/>
<stop offset="0.417969" stop-color="#E5E3E4"/>
<stop offset="0.421875" stop-color="#E6E4E4"/>
<stop offset="0.425781" stop-color="#E6E5E5"/>
<stop offset="0.429687" stop-color="#E7E6E6"/>
<stop offset="0.433594" stop-color="#E8E7E7"/>
<stop offset="0.4375" stop-color="#E9E7E8"/>
<stop offset="0.441406" stop-color="#E9E8E8"/>
<stop offset="0.445312" stop-color="#EAE9E9"/>
<stop offset="0.449219" stop-color="#EBEAEA"/>
<stop offset="0.453125" stop-color="#ECEBEB"/>
<stop offset="0.457031" stop-color="#ECEBEB"/>
<stop offset="0.460938" stop-color="#EDECEC"/>
<stop offset="0.464844" stop-color="#EDECEC"/>
<stop offset="0.46875" stop-color="#EEEDED"/>
<stop offset="0.472656" stop-color="#EEEEEE"/>
<stop offset="0.476562" stop-color="#EFEEEE"/>
<stop offset="0.480469" stop-color="#EFEFEF"/>
<stop offset="0.484375" stop-color="#F0EFEF"/>
<stop offset="0.488281" stop-color="#F1F0F0"/>
<stop offset="0.492188" stop-color="#F1F1F1"/>
<stop offset="0.496094" stop-color="#F2F1F1"/>
<stop offset="0.5" stop-color="#F2F2F2"/>
<stop offset="0.503906" stop-color="#F3F2F2"/>
<stop offset="0.507813" stop-color="#F3F3F3"/>
<stop offset="0.511719" stop-color="#F4F4F4"/>
<stop offset="0.515625" stop-color="#F5F4F4"/>
<stop offset="0.519531" stop-color="#F5F5F5"/>
<stop offset="0.523438" stop-color="#F6F5F5"/>
<stop offset="0.527344" stop-color="#F6F6F6"/>
<stop offset="0.53125" stop-color="#F7F7F7"/>
<stop offset="0.535156" stop-color="#F7F7F7"/>
<stop offset="0.539062" stop-color="#F8F8F8"/>
<stop offset="0.542969" stop-color="#F8F8F8"/>
<stop offset="0.546875" stop-color="#F9F9F9"/>
<stop offset="0.550781" stop-color="#FAFAFA"/>
<stop offset="0.554688" stop-color="#FAFAFA"/>
<stop offset="0.5625" stop-color="#FBFBFB"/>
<stop offset="0.625" stop-color="#FBFBFB"/>
<stop offset="0.75" stop-color="#FBFBFB"/>
<stop offset="1" stop-color="#FBFBFB"/>
</linearGradient>
<linearGradient id="paint1_linear_2321_5098" x1="11.685" y1="188.265" x2="158.4" y2="188.265" gradientUnits="userSpaceOnUse">
<stop stop-color="#8F8587"/>
<stop offset="0.00390625" stop-color="#908688"/>
<stop offset="0.0078125" stop-color="#918789"/>
<stop offset="0.0117188" stop-color="#91888A"/>
<stop offset="0.015625" stop-color="#92898A"/>
<stop offset="0.0195312" stop-color="#938A8B"/>
<stop offset="0.0234375" stop-color="#948A8C"/>
<stop offset="0.0273438" stop-color="#958B8D"/>
<stop offset="0.03125" stop-color="#968C8E"/>
<stop offset="0.0351563" stop-color="#968D8F"/>
<stop offset="0.0390625" stop-color="#978E90"/>
<stop offset="0.0429688" stop-color="#988F91"/>
<stop offset="0.046875" stop-color="#999091"/>
<stop offset="0.0507813" stop-color="#9A9192"/>
<stop offset="0.0546875" stop-color="#9A9293"/>
<stop offset="0.0585938" stop-color="#9B9294"/>
<stop offset="0.0625" stop-color="#9C9395"/>
<stop offset="0.0664062" stop-color="#9D9496"/>
<stop offset="0.0703125" stop-color="#9E9597"/>
<stop offset="0.0742188" stop-color="#9F9698"/>
<stop offset="0.078125" stop-color="#9F9798"/>
<stop offset="0.0820313" stop-color="#A09899"/>
<stop offset="0.0859375" stop-color="#A1999A"/>
<stop offset="0.0898438" stop-color="#A29A9B"/>
<stop offset="0.09375" stop-color="#A39A9C"/>
<stop offset="0.0976562" stop-color="#A39B9D"/>
<stop offset="0.101562" stop-color="#A49C9E"/>
<stop offset="0.105469" stop-color="#A59D9F"/>
<stop offset="0.109375" stop-color="#A69E9F"/>
<stop offset="0.113281" stop-color="#A79FA0"/>
<stop offset="0.117188" stop-color="#A7A0A1"/>
<stop offset="0.121094" stop-color="#A8A1A2"/>
<stop offset="0.125" stop-color="#A9A2A3"/>
<stop offset="0.128906" stop-color="#AAA2A4"/>
<stop offset="0.132812" stop-color="#ABA3A5"/>
<stop offset="0.136719" stop-color="#ACA4A6"/>
<stop offset="0.140625" stop-color="#ACA5A6"/>
<stop offset="0.144531" stop-color="#ADA6A7"/>
<stop offset="0.148437" stop-color="#AEA7A8"/>
<stop offset="0.152344" stop-color="#AFA8A9"/>
<stop offset="0.15625" stop-color="#B0A9AA"/>
<stop offset="0.160156" stop-color="#B0AAAB"/>
<stop offset="0.164062" stop-color="#B1AAAC"/>
<stop offset="0.167969" stop-color="#B2ABAD"/>
<stop offset="0.171875" stop-color="#B3ACAD"/>
<stop offset="0.175781" stop-color="#B4ADAE"/>
<stop offset="0.179688" stop-color="#B4AEAF"/>
<stop offset="0.183594" stop-color="#B5AFB0"/>
<stop offset="0.1875" stop-color="#B6B0B1"/>
<stop offset="0.191406" stop-color="#B7B1B2"/>
<stop offset="0.195312" stop-color="#B8B2B3"/>
<stop offset="0.199219" stop-color="#B9B2B4"/>
<stop offset="0.203125" stop-color="#B9B3B4"/>
<stop offset="0.207031" stop-color="#BAB4B5"/>
<stop offset="0.210937" stop-color="#BBB5B6"/>
<stop offset="0.214844" stop-color="#BCB6B7"/>
<stop offset="0.21875" stop-color="#BDB7B8"/>
<stop offset="0.222656" stop-color="#BDB8B9"/>
<stop offset="0.226562" stop-color="#BEB9BA"/>
<stop offset="0.230469" stop-color="#BFBABB"/>
<stop offset="0.234375" stop-color="#C0BABB"/>
<stop offset="0.238281" stop-color="#C1BBBC"/>
<stop offset="0.242187" stop-color="#C1BCBD"/>
<stop offset="0.246094" stop-color="#C2BDBE"/>
<stop offset="0.25" stop-color="#C3BEBF"/>
<stop offset="0.253906" stop-color="#C4BFC0"/>
<stop offset="0.257812" stop-color="#C5C0C1"/>
<stop offset="0.261719" stop-color="#C5C0C1"/>
<stop offset="0.265625" stop-color="#C6C1C2"/>
<stop offset="0.269531" stop-color="#C7C2C3"/>
<stop offset="0.273438" stop-color="#C8C3C4"/>
<stop offset="0.277344" stop-color="#C8C4C5"/>
<stop offset="0.28125" stop-color="#C9C5C5"/>
<stop offset="0.285156" stop-color="#CAC5C6"/>
<stop offset="0.289062" stop-color="#CBC6C7"/>
<stop offset="0.292969" stop-color="#CBC7C8"/>
<stop offset="0.296875" stop-color="#CCC8C9"/>
<stop offset="0.300781" stop-color="#CDC9C9"/>
<stop offset="0.304688" stop-color="#CEC9CA"/>
<stop offset="0.308594" stop-color="#CECACB"/>
<stop offset="0.3125" stop-color="#CFCBCC"/>
<stop offset="0.316406" stop-color="#D0CCCD"/>
<stop offset="0.320312" stop-color="#D0CDCD"/>
<stop offset="0.324219" stop-color="#D1CECE"/>
<stop offset="0.328125" stop-color="#D2CECF"/>
<stop offset="0.332031" stop-color="#D3CFD0"/>
<stop offset="0.335938" stop-color="#D3D0D1"/>
<stop offset="0.339844" stop-color="#D4D1D1"/>
<stop offset="0.34375" stop-color="#D5D2D2"/>
<stop offset="0.347656" stop-color="#D6D2D3"/>
<stop offset="0.351562" stop-color="#D6D3D4"/>
<stop offset="0.355469" stop-color="#D7D4D5"/>
<stop offset="0.359375" stop-color="#D8D5D5"/>
<stop offset="0.363281" stop-color="#D9D6D6"/>
<stop offset="0.367188" stop-color="#D9D7D7"/>
<stop offset="0.371094" stop-color="#DAD7D8"/>
<stop offset="0.375" stop-color="#DBD8D9"/>
<stop offset="0.378906" stop-color="#DCD9D9"/>
<stop offset="0.382812" stop-color="#DCDADA"/>
<stop offset="0.386719" stop-color="#DDDBDB"/>
<stop offset="0.390625" stop-color="#DEDCDC"/>
<stop offset="0.394531" stop-color="#DFDCDD"/>
<stop offset="0.398438" stop-color="#DFDDDD"/>
<stop offset="0.402344" stop-color="#E0DEDE"/>
<stop offset="0.40625" stop-color="#E1DFDF"/>
<stop offset="0.410156" stop-color="#E2E0E0"/>
<stop offset="0.414062" stop-color="#E2E0E1"/>
<stop offset="0.417969" stop-color="#E3E1E1"/>
<stop offset="0.421875" stop-color="#E4E2E2"/>
<stop offset="0.425781" stop-color="#E5E3E3"/>
<stop offset="0.429688" stop-color="#E5E4E4"/>
<stop offset="0.433594" stop-color="#E6E5E5"/>
<stop offset="0.4375" stop-color="#E7E5E5"/>
<stop offset="0.441406" stop-color="#E8E6E6"/>
<stop offset="0.445312" stop-color="#E8E7E7"/>
<stop offset="0.449219" stop-color="#E9E8E8"/>
<stop offset="0.453125" stop-color="#EAE9E9"/>
<stop offset="0.457031" stop-color="#EBE9E9"/>
<stop offset="0.460938" stop-color="#EBEAEA"/>
<stop offset="0.464844" stop-color="#ECEBEB"/>
<stop offset="0.46875" stop-color="#ECEBEB"/>
<stop offset="0.472656" stop-color="#EDECEC"/>
<stop offset="0.476562" stop-color="#EDEDED"/>
<stop offset="0.480469" stop-color="#EEEDED"/>
<stop offset="0.484375" stop-color="#EFEEEE"/>
<stop offset="0.488281" stop-color="#EFEEEE"/>
<stop offset="0.492188" stop-color="#F0EFEF"/>
<stop offset="0.496094" stop-color="#F0F0F0"/>
<stop offset="0.5" stop-color="#F1F0F0"/>
<stop offset="0.503906" stop-color="#F1F1F1"/>
<stop offset="0.507812" stop-color="#F2F1F1"/>
<stop offset="0.511719" stop-color="#F3F2F2"/>
<stop offset="0.515625" stop-color="#F3F3F3"/>
<stop offset="0.519531" stop-color="#F4F3F3"/>
<stop offset="0.523438" stop-color="#F4F4F4"/>
<stop offset="0.527344" stop-color="#F5F4F4"/>
<stop offset="0.53125" stop-color="#F5F5F5"/>
<stop offset="0.535156" stop-color="#F6F6F6"/>
<stop offset="0.539062" stop-color="#F6F6F6"/>
<stop offset="0.542969" stop-color="#F7F7F7"/>
<stop offset="0.546875" stop-color="#F8F7F7"/>
<stop offset="0.550781" stop-color="#F8F8F8"/>
<stop offset="0.554688" stop-color="#F9F9F9"/>
<stop offset="0.558594" stop-color="#F9F9F9"/>
<stop offset="0.5625" stop-color="#FAFAFA"/>
<stop offset="0.566406" stop-color="#FAFAFA"/>
<stop offset="0.570312" stop-color="#FBFBFB"/>
<stop offset="0.578125" stop-color="#FBFBFB"/>
<stop offset="0.59375" stop-color="#FBFBFB"/>
<stop offset="0.625" stop-color="#FBFBFB"/>
<stop offset="0.75" stop-color="#FBFBFB"/>
<stop offset="1" stop-color="#FBFBFB"/>
</linearGradient>
</defs>
</svg>
