<svg width="169" height="239" viewBox="0 0 169 239" fill="none" xmlns="http://www.w3.org/2000/svg">
<path d="M162.578 238.262H6.05859C2.73828 238.262 0.046875 235.547 0.046875 232.199V6.62891C0.046875 3.28516 2.73828 0.570312 6.05859 0.570312H162.578C165.898 0.570312 168.594 3.28516 168.594 6.62891V232.199C168.594 235.547 165.898 238.262 162.578 238.262Z" fill="white"/>
<mask id="mask0_2321_5099" style="mask-type:luminance" maskUnits="userSpaceOnUse" x="11" y="10" width="147" height="79">
<path d="M11 10H158V89H11V10Z" fill="white"/>
</mask>
<g mask="url(#mask0_2321_5099)">
<mask id="mask1_2321_5099" style="mask-type:luminance" maskUnits="userSpaceOnUse" x="11" y="10" width="147" height="79">
<path d="M157.727 88.3125C157.727 62.4141 157.734 36.5117 157.738 10.6133C108.887 10.6133 60.0234 10.6133 11.168 10.6211C11.1445 36.0977 11.1211 61.5742 11.1016 87.0508C13.6641 75.6133 18.8398 58.7461 28.7109 49.7383C36.2617 42.8555 40.0352 39.4062 42.9883 38.0234C44.3633 37.3789 48.75 35.4844 52.3789 31.0508C53.0547 30.2344 53.543 29.5117 53.8516 29.0312C54.1641 29.4531 55.3789 31.0039 57.0508 31.0352C59.2266 31.0742 61.6562 28.5234 61.7773 24.6836C62.0312 25.2539 64.1719 29.7969 69.0312 30.8242C71.3711 31.3203 73.3359 30.7969 74.3477 30.4336C75.0078 29.8867 75.8867 29.0391 76.6875 27.8242C77.4766 26.6328 77.9023 25.5156 78.1484 24.7031H90.6992C90.7734 25.1719 91.3789 28.5977 94.5 30.3086C97.5508 31.9805 100.648 30.7031 101.602 30.3242C104.895 28.9961 106.289 26.2578 106.598 25.6133C107.34 29.1523 109.816 31.3438 111.988 31.1719C112.344 31.1406 113.477 30.9883 114.652 29.6719L118.41 32.7969C119.879 33.668 121.941 34.9492 124.32 36.6133C127.109 38.5664 136.363 45.1367 143.633 54.5781C153.285 67.1172 156.516 80.9258 157.719 88.2969L157.727 88.3125Z" fill="white"/>
</mask>
<g mask="url(#mask1_2321_5099)">
<path d="M11.1016 10.6133V88.3125H157.738V10.6133H11.1016Z" fill="url(#paint0_linear_2321_5099)"/>
</g>
</g>
<path d="M158.113 228.406H10.6406C10.6406 183.074 10.6406 137.746 10.6406 92.4141C10.6406 65.0234 10.6406 37.6406 10.6406 10.2539H158.113C158.113 37.5977 158.113 64.9414 158.113 92.289C158.113 137.664 158.113 183.031 158.113 228.406Z" stroke="#0E0E0E" stroke-width="0.75" stroke-linecap="round" stroke-linejoin="round"/>
<path d="M84.293 32.6836C84.2383 32.0625 83.9844 29.8789 82.1758 28.0273C80.5586 26.3633 78.6523 25.9648 78 25.8516C78.0508 25.1992 78.1055 24.5469 78.1562 23.8945C79.0117 23.4961 80.7305 22.5508 82.1562 20.6406C83.6016 18.6992 84.0156 16.7617 84.1484 15.8242C84.4883 16.9961 85.2305 18.9961 86.9258 20.9492C88.2305 22.4492 89.6172 23.3633 90.5781 23.8945C90.6289 24.5469 90.6836 25.1992 90.7344 25.8516C90.2695 25.8984 87.2773 26.2422 85.4766 28.8594C84.4219 30.4062 84.293 31.9805 84.2773 32.6836H84.293Z" fill="white"/>
<path d="M53.0859 22.2461C53.918 22.0039 55.2891 21.7422 56.8438 22.1172C58.1992 22.4414 59.1133 23.1015 59.6328 23.4882C64.1914 26.9101 64.8672 29.5664 68.0039 30.7656C68.4063 30.9218 71.3398 31.8906 74.2969 30.5117C76.3789 29.5351 77.8633 27.3164 78.0977 24.9062C78.4258 21.457 76.0273 18.0468 73.2461 17.4218C72.9219 17.3476 71.168 16.957 69.7344 18.0312C69.5547 18.164 68.4453 19.0195 68.2891 20.5273C68.2656 20.7539 68.0859 22.6953 69.5703 23.6406C70.4023 24.164 71.4609 24.1953 72.3008 23.8047C73.4922 23.2578 74.2109 21.8867 74.0234 20.414C74.3164 20.7383 74.7227 21.2382 75.0469 21.9297C75.2031 22.2617 76.2227 24.5156 75.2461 26.6836C74.0625 29.3242 70.8281 29.789 70.3945 29.8515C67.5078 30.2617 64.5078 28.7461 62.543 26.0234" stroke="#0E0E0E" stroke-width="0.75" stroke-linecap="round" stroke-linejoin="round"/>
<path d="M78.1562 23.8047C78.7266 23.5273 79.6211 23.0234 80.5273 22.1992C83.4297 19.5508 83.9609 15.8789 84.2031 14.2422C84.3359 13.3203 84.457 11.9492 84.3008 10.2461" stroke="#0E0E0E" stroke-width="0.75" stroke-linecap="round" stroke-linejoin="round"/>
<path d="M78 25.7617C78.7109 25.8906 79.4844 26.1133 80.25 26.5039C83.707 28.2656 84.2188 31.957 84.293 32.5938" stroke="#0E0E0E" stroke-width="0.75" stroke-linecap="round" stroke-linejoin="round"/>
<path d="M115.664 22.2461C114.832 22.0039 113.461 21.7422 111.906 22.1172C110.551 22.4414 109.637 23.1015 109.117 23.4882C104.559 26.9101 103.883 29.5664 100.746 30.7656C100.344 30.9218 97.4102 31.8906 94.4531 30.5117C92.3711 29.5351 90.8867 27.3164 90.6523 24.9062C90.3242 21.457 92.7227 18.0468 95.5039 17.4218C95.8281 17.3476 97.582 16.957 99.0156 18.0312C99.1953 18.164 100.305 19.0195 100.461 20.5273C100.484 20.7539 100.664 22.6953 99.1797 23.6406C98.3477 24.164 97.2891 24.1953 96.4492 23.8047C95.2578 23.2578 94.5391 21.8867 94.7266 20.414C94.4336 20.7383 94.0273 21.2382 93.7031 21.9297C93.5469 22.2617 92.5273 24.5156 93.5039 26.6836C94.6875 29.3242 97.9219 29.789 98.3555 29.8515C101.242 30.2617 104.242 28.7461 106.207 26.0234" stroke="#0E0E0E" stroke-width="0.75" stroke-linecap="round" stroke-linejoin="round"/>
<path d="M90.75 25.7617C90.0391 25.8906 89.2656 26.1133 88.5 26.5039C85.043 28.2656 84.5312 31.957 84.457 32.5938" stroke="#0E0E0E" stroke-width="0.75" stroke-linecap="round" stroke-linejoin="round"/>
<path d="M114.961 29.1016C114.848 29.3555 114.254 30.668 112.867 31.1016C111.398 31.5664 110.109 30.7109 109.566 30.3516C107.297 28.8438 107.07 25.9727 107.047 25.5078" stroke="#0E0E0E" stroke-width="0.75" stroke-linecap="round" stroke-linejoin="round"/>
<path d="M122.934 36.0157C122.289 35.6485 121.379 35.0938 120.359 34.3516C117.414 32.2032 115.109 30.5313 114.512 27.8008C113.961 25.3204 115.078 23.2266 115.273 22.8751C117.113 19.5587 120.961 19.0118 121.754 18.922C125.332 18.5157 128.961 20.4063 131.234 23.7071" stroke="#0E0E0E" stroke-width="0.75" stroke-linecap="round" stroke-linejoin="round"/>
<path d="M130.738 41.1601C130.777 33.4414 128.887 27.3828 125.895 25.7109C124.359 24.8555 122.797 24.832 122.797 24.832C122.281 24.832 119.664 24.8711 118.004 27.0312C116.527 28.957 116.895 31.164 116.961 31.539" stroke="#0E0E0E" stroke-width="0.75" stroke-linecap="round" stroke-linejoin="round"/>
<path d="M151.867 37.2617C152.258 37.0664 153.504 36.4883 154.844 36.8321C157.238 37.4414 157.508 40.3281 157.523 40.5391C157.664 42.375 156.539 44.5117 154.395 45.2774C152.746 45.8633 151.156 45.3985 150.309 45.1485C147.563 44.3477 146.055 42.4805 145.305 41.5352C142.906 38.4766 144.074 36.9883 141.613 34.8164C140.949 34.2227 139.598 33.0235 137.527 32.7071C135.375 32.3711 134.488 33.3008 132.523 32.7539C130.598 32.211 129.602 30.7969 129.344 30.3985C129.227 30.2188 127.824 27.961 129.141 25.6875C129.414 25.2149 130.215 23.8438 132.023 23.4453C133.664 23.0938 135.473 23.6914 136.461 24.8711C137.309 25.875 137.559 27.293 136.898 28.418C136.754 28.6641 136.305 29.4297 135.285 29.7383C134.43 29.9922 133.344 29.8789 132.594 29.2813C131.934 28.7461 131.813 28.0664 131.789 27.8633" stroke="#0E0E0E" stroke-width="0.75" stroke-linecap="round" stroke-linejoin="round"/>
<path d="M143.16 36.9141C142.844 33.4961 141.098 30.6836 138.539 29.7656C137.953 29.5586 137.039 29.3477 135.824 29.4961" stroke="#0E0E0E" stroke-width="0.75" stroke-linecap="round" stroke-linejoin="round"/>
<path d="M145.754 42.2188C145.289 42.0977 143.355 41.6485 141.703 42.7266C139.719 44.0313 138.922 47.0547 140.145 49.9219" stroke="#0E0E0E" stroke-width="0.75" stroke-linecap="round" stroke-linejoin="round"/>
<path d="M147.113 52.5234C146.805 52.5078 146.168 52.5156 145.492 52.8672C144.398 53.4453 144.039 54.5039 143.969 54.7422" stroke="#0E0E0E" stroke-width="0.75" stroke-linecap="round" stroke-linejoin="round"/>
<path d="M158.102 91.3359C158.086 91.2305 158.07 91.043 158.039 90.8242C157.453 85.6875 154.148 61.7031 134.422 44.2031C131.969 42.0313 128.168 38.9766 122.934 36.0078" stroke="#0E0E0E" stroke-width="0.75" stroke-linecap="round" stroke-linejoin="round"/>
<path d="M84.293 32.6836C84.2383 32.0625 83.9844 29.8789 82.1758 28.0274C80.5586 26.3633 78.6523 25.9649 78 25.8516C78.0508 25.1992 78.1055 24.5469 78.1562 23.8945C79.0117 23.4961 80.7305 22.5508 82.1562 20.6406C83.6016 18.6992 84.0156 16.7617 84.1484 15.8242C84.4883 16.9961 85.2305 18.9961 86.9258 20.9492C88.2305 22.4492 89.6172 23.3633 90.5781 23.8945C90.6289 24.5469 90.6836 25.1992 90.7344 25.8516C90.2695 25.8985 87.2773 26.2422 85.4766 28.8594C84.4219 30.4063 84.293 31.9805 84.2773 32.6836H84.293Z" fill="black" stroke="black" stroke-width="0.5625" stroke-linecap="round" stroke-linejoin="round"/>
<path d="M115.664 22.2461C114.832 22.0039 113.461 21.7422 111.906 22.1172C110.551 22.4414 109.637 23.1015 109.117 23.4882C104.559 26.9101 103.883 29.5664 100.746 30.7656C100.344 30.9218 97.4102 31.8906 94.4531 30.5117C92.3711 29.5351 90.8867 27.3164 90.6523 24.9062C90.3242 21.457 92.7227 18.0468 95.5039 17.4218C95.8281 17.3476 97.582 16.957 99.0156 18.0312C99.1953 18.164 100.305 19.0195 100.461 20.5273C100.484 20.7539 100.664 22.6953 99.1797 23.6406C98.3477 24.164 97.2891 24.1953 96.4492 23.8047C95.2578 23.2578 94.5391 21.8867 94.7266 20.414C94.4336 20.7383 94.0273 21.2382 93.7031 21.9297C93.5469 22.2617 92.5273 24.5156 93.5039 26.6836C94.6875 29.3242 97.9219 29.789 98.3555 29.8515C101.242 30.2617 104.242 28.7461 106.207 26.0234" stroke="#0E0E0E" stroke-width="0.75" stroke-linecap="round" stroke-linejoin="round"/>
<path d="M90.5938 23.8047C89.4883 23.2578 88.7188 22.6484 88.2227 22.1992C84.8789 19.1562 84.5547 14.6328 84.4336 12.9688C84.3516 11.8281 84.3985 10.8828 84.4492 10.2461" stroke="#0E0E0E" stroke-width="0.75" stroke-linecap="round" stroke-linejoin="round"/>
<path d="M90.75 25.7617C90.0391 25.8906 89.2656 26.1133 88.5 26.5039C85.043 28.2656 84.5312 31.957 84.457 32.5938" stroke="#0E0E0E" stroke-width="0.75" stroke-linecap="round" stroke-linejoin="round"/>
<path d="M114.961 29.1016C114.848 29.3555 114.254 30.668 112.867 31.1016C111.398 31.5664 110.109 30.7109 109.566 30.3516C107.297 28.8438 107.07 25.9727 107.047 25.5078" stroke="#0E0E0E" stroke-width="0.75" stroke-linecap="round" stroke-linejoin="round"/>
<path d="M122.934 36.0157C122.289 35.6485 121.379 35.0938 120.359 34.3516C117.414 32.2032 115.109 30.5313 114.512 27.8008C113.961 25.3204 115.078 23.2266 115.273 22.8751C117.113 19.5587 120.961 19.0118 121.754 18.922C125.332 18.5157 128.961 20.4063 131.234 23.7071" stroke="#0E0E0E" stroke-width="0.75" stroke-linecap="round" stroke-linejoin="round"/>
<path d="M130.738 41.1601C130.777 33.4414 128.887 27.3828 125.895 25.7109C124.359 24.8555 122.797 24.832 122.797 24.832C122.281 24.832 119.664 24.8711 118.004 27.0312C116.527 28.957 116.895 31.164 116.961 31.539" stroke="#0E0E0E" stroke-width="0.75" stroke-linecap="round" stroke-linejoin="round"/>
<path d="M151.867 37.2617C152.258 37.0664 153.504 36.4883 154.844 36.8321C157.238 37.4414 157.508 40.3281 157.523 40.5391C157.664 42.375 156.539 44.5117 154.395 45.2774C152.746 45.8633 151.156 45.3985 150.309 45.1485C147.563 44.3477 146.055 42.4805 145.305 41.5352C142.906 38.4766 144.074 36.9883 141.613 34.8164C140.949 34.2227 139.598 33.0235 137.527 32.7071C135.375 32.3711 134.488 33.3008 132.523 32.7539C130.598 32.211 129.602 30.7969 129.344 30.3985C129.227 30.2188 127.824 27.961 129.141 25.6875C129.414 25.2149 130.215 23.8438 132.023 23.4453C133.664 23.0938 135.473 23.6914 136.461 24.8711C137.309 25.875 137.559 27.293 136.898 28.418C136.754 28.6641 136.305 29.4297 135.285 29.7383C134.43 29.9922 133.344 29.8789 132.594 29.2813C131.934 28.7461 131.813 28.0664 131.789 27.8633" stroke="#0E0E0E" stroke-width="0.75" stroke-linecap="round" stroke-linejoin="round"/>
<path d="M143.16 36.9141C142.844 33.4961 141.098 30.6836 138.539 29.7656C137.953 29.5586 137.039 29.3477 135.824 29.4961" stroke="#0E0E0E" stroke-width="0.75" stroke-linecap="round" stroke-linejoin="round"/>
<path d="M158.012 48.9843C156.781 46.8749 154.816 45.5624 152.859 45.6835C150.434 45.8319 149.012 48.1054 148.395 49.0859C144.93 54.6132 148.637 62.1679 149.203 63.3007" stroke="#0E0E0E" stroke-width="0.75" stroke-linecap="round" stroke-linejoin="round"/>
<path d="M158.063 90.6602C156.652 81.0078 152.07 59.8945 134.422 44.2109C130.582 40.8008 126.66 38.1211 122.934 36.0156" stroke="#0E0E0E" stroke-width="0.75" stroke-linecap="round" stroke-linejoin="round"/>
<mask id="mask2_2321_5099" style="mask-type:luminance" maskUnits="userSpaceOnUse" x="10" y="148" width="148" height="81">
<path d="M10 148H158V229H10V148Z" fill="white"/>
</mask>
<g mask="url(#mask2_2321_5099)">
<mask id="mask3_2321_5099" style="mask-type:luminance" maskUnits="userSpaceOnUse" x="10" y="148" width="148" height="81">
<path d="M10.9492 148.859C10.9727 175.254 10.9883 201.645 11.0117 228.031C59.8711 228.023 108.734 228.008 157.598 228C157.621 202.523 157.641 177.047 157.664 151.566C152.813 162.855 145.371 176.609 133.828 190.352C129.375 195.645 124.891 200.266 120.562 204.27C119.363 205.859 118.164 207.441 116.969 209.031C116.289 209.219 115.605 209.398 114.922 209.586C114.609 209.168 113.391 207.613 111.719 207.586C109.547 207.547 107.113 210.098 106.996 213.938C106.738 213.367 104.602 208.824 99.7422 207.797C97.4023 207.301 95.4375 207.824 94.4258 208.184C93.7656 208.734 92.8867 209.578 92.0859 210.797C91.2969 211.988 90.8711 213.105 90.6211 213.914H78.0742C78 213.449 77.3906 210.023 74.2734 208.312C71.2187 206.641 68.1211 207.914 67.1719 208.297C63.8789 209.625 62.4844 212.363 62.1758 213.008C61.4336 209.469 58.957 207.277 56.7812 207.449C56.4297 207.48 55.2969 207.629 54.1211 208.949C52.8672 207.906 51.6133 206.863 50.3633 205.824C44.543 202.941 33.7031 196.605 24.6094 184.32C13.9727 169.949 11.6172 155.406 10.9648 148.867L10.9492 148.859Z" fill="white"/>
</mask>
<g mask="url(#mask3_2321_5099)">
<path d="M10.9492 148.859V228.031H157.664V148.859H10.9492Z" fill="url(#paint1_linear_2321_5099)"/>
</g>
</g>
<path d="M84.3359 206.137C84.3906 206.762 84.6445 208.941 86.4531 210.797C88.0742 212.461 89.9766 212.859 90.6289 212.969C90.5781 213.621 90.5234 214.273 90.4727 214.926C89.6172 215.324 87.8984 216.27 86.4766 218.184C85.0273 220.125 84.6133 222.059 84.4805 222.996C84.1406 221.828 83.3984 219.824 81.7031 217.875C80.3984 216.375 79.0117 215.461 78.0508 214.926C78 214.273 77.9492 213.621 77.8945 212.969C78.3594 212.926 81.3516 212.578 83.1523 209.961C84.2109 208.418 84.3359 206.844 84.3516 206.137H84.3359Z" fill="white"/>
<path d="M115.547 216.578C114.711 216.816 113.34 217.078 111.789 216.703C110.43 216.383 109.516 215.723 108.996 215.332C104.437 211.914 103.762 209.258 100.629 208.059C100.223 207.898 97.2891 206.934 94.3359 208.313C92.25 209.289 90.7656 211.508 90.5312 213.914C90.2031 217.363 92.6016 220.777 95.3867 221.398C95.707 221.477 97.4609 221.863 98.8945 220.793C99.0742 220.656 100.184 219.801 100.344 218.297C100.363 218.07 100.547 216.129 99.0586 215.184C98.2266 214.656 97.1719 214.629 96.3281 215.016C95.1367 215.566 94.418 216.938 94.6055 218.406C94.3125 218.086 93.9062 217.582 93.5859 216.891C93.4258 216.563 92.4062 214.305 93.3828 212.137C94.5664 209.496 97.8008 209.031 98.2344 208.973C101.121 208.559 104.121 210.074 106.086 212.797" stroke="#0E0E0E" stroke-width="0.75" stroke-linecap="round" stroke-linejoin="round"/>
<path d="M90.4726 215.016C89.414 215.543 88.6406 216.137 88.1015 216.621C84.9882 219.449 84.5312 223.566 84.3164 225.496C84.1718 226.746 84.1875 227.781 84.2187 228.422" stroke="#0E0E0E" stroke-width="0.75" stroke-linecap="round" stroke-linejoin="round"/>
<path d="M90.6289 213.059C89.918 212.934 89.1445 212.707 88.3789 212.316C84.9219 210.555 84.4141 206.863 84.3359 206.227" stroke="#0E0E0E" stroke-width="0.75" stroke-linecap="round" stroke-linejoin="round"/>
<path d="M52.9727 216.578C53.8047 216.816 55.1758 217.078 56.7305 216.703C58.0859 216.383 59.0039 215.723 59.5195 215.332C64.0781 211.914 64.7539 209.258 67.8906 208.059C68.2969 207.898 71.2266 206.934 74.1836 208.313C76.2656 209.289 77.7539 211.508 77.9844 213.914C78.3164 217.363 75.9141 220.777 73.1328 221.398C72.8086 221.477 71.0547 221.863 69.6211 220.793C69.4414 220.656 68.332 219.801 68.1758 218.297C68.1523 218.07 67.9727 216.129 69.457 215.184C70.2891 214.656 71.3477 214.629 72.1875 215.016C73.3789 215.566 74.1016 216.938 73.9141 218.406C74.2031 218.086 74.6094 217.582 74.9336 216.891C75.0898 216.563 76.1094 214.305 75.1367 212.137C73.9492 209.496 70.7187 209.031 70.2812 208.973C67.3945 208.559 64.3945 210.074 62.4297 212.797" stroke="#0E0E0E" stroke-width="0.75" stroke-linecap="round" stroke-linejoin="round"/>
<path d="M77.8867 213.059C78.5703 212.953 79.3516 212.738 80.1367 212.316C83.3477 210.621 84.1797 207 84.3359 206.227" stroke="#0E0E0E" stroke-width="0.75" stroke-linecap="round" stroke-linejoin="round"/>
<path d="M53.6758 209.723C53.7891 209.469 54.3828 208.156 55.7695 207.719C57.2383 207.254 58.5313 208.109 59.0703 208.469C61.3438 209.977 61.5664 212.852 61.5898 213.316" stroke="#0E0E0E" stroke-width="0.75" stroke-linecap="round" stroke-linejoin="round"/>
<path d="M45.6992 202.809C46.3438 203.176 47.25 203.73 48.2695 204.473C51.2187 206.617 53.5195 208.289 54.1211 211.02C54.668 213.504 53.5508 215.594 53.3555 215.949C51.5156 219.262 47.6719 219.809 46.875 219.898C43.2969 220.305 39.668 218.414 37.3945 215.113" stroke="#0E0E0E" stroke-width="0.75" stroke-linecap="round" stroke-linejoin="round"/>
<path d="M37.8984 197.664C37.8594 205.379 39.75 211.441 42.7422 213.113C44.2812 213.969 45.8398 213.988 45.8398 213.988C46.3594 213.988 48.9765 213.953 50.6328 211.793C52.1094 209.863 51.7422 207.66 51.6758 207.285" stroke="#0E0E0E" stroke-width="0.75" stroke-linecap="round" stroke-linejoin="round"/>
<path d="M16.7696 201.563C16.3789 201.758 15.1368 202.336 13.793 201.988C11.3985 201.383 11.1289 198.496 11.1133 198.285C10.9727 196.449 12.0977 194.309 14.2422 193.547C15.8907 192.961 17.4844 193.426 18.3282 193.672C21.0743 194.477 22.5821 196.344 23.3321 197.289C25.7344 200.348 24.5625 201.832 27.0235 204.008C27.6915 204.602 29.0391 205.801 31.1094 206.113C33.2618 206.453 34.1485 205.524 36.1133 206.07C38.0391 206.609 39.0391 208.027 39.293 208.426C39.4141 208.606 40.8164 210.863 39.4961 213.137C39.2266 213.609 38.4219 214.981 36.6133 215.379C34.9727 215.731 33.1641 215.129 32.1758 213.953C31.3282 212.949 31.0782 211.531 31.7383 210.406C31.8829 210.156 32.3321 209.391 33.3516 209.086C34.2071 208.828 35.2969 208.942 36.0469 209.543C36.7032 210.074 36.8243 210.758 36.8477 210.961" stroke="#0E0E0E" stroke-width="0.75" stroke-linecap="round" stroke-linejoin="round"/>
<path d="M25.4766 201.914C25.793 205.336 27.5391 208.148 30.0977 209.062C30.6836 209.273 31.5977 209.484 32.8125 209.332" stroke="#0E0E0E" stroke-width="0.75" stroke-linecap="round" stroke-linejoin="round"/>
<path d="M22.875 196.605C23.3555 196.727 25.2734 197.16 26.9258 196.094C28.9258 194.789 29.7461 191.766 28.5391 188.887" stroke="#0E0E0E" stroke-width="0.75" stroke-linecap="round" stroke-linejoin="round"/>
<path d="M21.5156 186.301C21.8242 186.316 22.4609 186.309 23.1367 185.953C24.2617 185.363 24.6094 184.262 24.6758 184.035" stroke="#0E0E0E" stroke-width="0.75" stroke-linecap="round" stroke-linejoin="round"/>
<path d="M10.6562 146.715C11.8594 156.375 16.0742 178.453 34.207 194.617C38.0391 198.031 41.9531 200.707 45.6992 202.816" stroke="#0E0E0E" stroke-width="0.75" stroke-linecap="round" stroke-linejoin="round"/>
<path d="M84.3359 206.137C84.3906 206.762 84.6445 208.941 86.4531 210.797C88.0742 212.461 89.9766 212.859 90.6289 212.969C90.5781 213.621 90.5234 214.273 90.4727 214.926C90.0078 215.137 89.3711 215.469 88.6875 215.984C87.1484 217.164 86.4141 218.543 85.7695 219.789C85.207 220.883 84.4805 222.578 84.1055 224.812C84.0977 223.738 83.9336 220.656 81.6992 217.867C80.4297 216.277 78.9766 215.387 78.0469 214.922C77.9922 214.266 77.9414 213.613 77.8867 212.961C78.3516 212.918 81.3438 212.574 83.1445 209.953C84.2031 208.41 84.3281 206.836 84.3438 206.129L84.3359 206.137Z" fill="black" stroke="black" stroke-width="0.5625" stroke-linecap="round" stroke-linejoin="round"/>
<path d="M52.9727 216.578C53.8047 216.816 55.1758 217.078 56.7305 216.703C58.0859 216.383 59.0039 215.723 59.5195 215.332C64.0781 211.914 64.7539 209.258 67.8906 208.059C68.2969 207.898 71.2266 206.934 74.1836 208.313C76.2656 209.289 77.7539 211.508 77.9844 213.914C78.3164 217.363 75.9141 220.777 73.1328 221.398C72.8086 221.477 71.0547 221.863 69.6211 220.793C69.4414 220.656 68.332 219.801 68.1758 218.297C68.1523 218.07 67.9727 216.129 69.457 215.184C70.2891 214.656 71.3477 214.629 72.1875 215.016C73.3789 215.566 74.1016 216.938 73.9141 218.406C74.2031 218.086 74.6094 217.582 74.9336 216.891C75.0898 216.563 76.1094 214.305 75.1367 212.137C73.9492 209.496 70.7187 209.031 70.2812 208.973C67.3945 208.559 64.3945 210.074 62.4297 212.797" stroke="#0E0E0E" stroke-width="0.75" stroke-linecap="round" stroke-linejoin="round"/>
<path d="M78.0469 215.016C78.668 215.316 79.5391 215.82 80.4141 216.621C82.2656 218.332 82.9336 220.313 83.4531 221.934C84.2539 224.438 84.3359 226.719 84.2266 228.422" stroke="#0E0E0E" stroke-width="0.75" stroke-linecap="round" stroke-linejoin="round"/>
<path d="M77.8867 213.059C78.5703 212.953 79.3516 212.738 80.1367 212.316C83.3789 210.602 84.1875 206.895 84.3359 206.137" stroke="#0E0E0E" stroke-width="0.75" stroke-linecap="round" stroke-linejoin="round"/>
<path d="M53.6758 209.723C53.7891 209.469 54.3828 208.156 55.7695 207.719C57.2383 207.254 58.5313 208.109 59.0703 208.469C61.3438 209.977 61.5664 212.852 61.5898 213.316" stroke="#0E0E0E" stroke-width="0.75" stroke-linecap="round" stroke-linejoin="round"/>
<path d="M45.6992 202.809C46.3438 203.176 47.25 203.73 48.2695 204.473C51.2187 206.617 53.5195 208.289 54.1211 211.02C54.668 213.504 53.5508 215.594 53.3555 215.949C51.5156 219.262 47.6719 219.809 46.875 219.898C43.2969 220.305 39.668 218.414 37.3945 215.113" stroke="#0E0E0E" stroke-width="0.75" stroke-linecap="round" stroke-linejoin="round"/>
<path d="M37.8984 197.664C37.8594 205.379 39.75 211.441 42.7422 213.113C44.2812 213.969 45.8398 213.988 45.8398 213.988C46.3594 213.988 48.9765 213.953 50.6328 211.793C52.1094 209.863 51.7422 207.66 51.6758 207.285" stroke="#0E0E0E" stroke-width="0.75" stroke-linecap="round" stroke-linejoin="round"/>
<path d="M16.7696 201.563C16.3789 201.758 15.1368 202.336 13.793 201.988C11.3985 201.383 11.1289 198.496 11.1133 198.285C10.9727 196.449 12.0977 194.309 14.2422 193.547C15.8907 192.961 17.4844 193.426 18.3282 193.672C21.0743 194.477 22.5821 196.344 23.3321 197.289C25.7344 200.348 24.5625 201.832 27.0235 204.008C27.6915 204.602 29.0391 205.801 31.1094 206.113C33.2618 206.453 34.1485 205.524 36.1133 206.07C38.0391 206.609 39.0391 208.027 39.293 208.426C39.4141 208.606 40.8164 210.863 39.4961 213.137C39.2266 213.609 38.4219 214.981 36.6133 215.379C34.9727 215.731 33.1641 215.129 32.1758 213.953C31.3282 212.949 31.0782 211.531 31.7383 210.406C31.8829 210.156 32.3321 209.391 33.3516 209.086C34.2071 208.828 35.2969 208.942 36.0469 209.543C36.7032 210.074 36.8243 210.758 36.8477 210.961" stroke="#0E0E0E" stroke-width="0.75" stroke-linecap="round" stroke-linejoin="round"/>
<path d="M25.4766 201.914C25.793 205.336 27.5391 208.148 30.0977 209.062C30.6836 209.273 31.5977 209.484 32.8125 209.332" stroke="#0E0E0E" stroke-width="0.75" stroke-linecap="round" stroke-linejoin="round"/>
<path d="M10.7109 189.977C10.8008 190.125 12.7969 193.32 15.7813 193.133C18.1953 192.984 19.6211 190.719 20.2422 189.727C23.6992 184.207 20.0039 176.648 19.4336 175.516" stroke="#0E0E0E" stroke-width="0.75" stroke-linecap="round" stroke-linejoin="round"/>
<path d="M22.875 196.605C23.3555 196.727 25.2734 197.16 26.9258 196.094C28.9258 194.789 29.7461 191.766 28.5391 188.887" stroke="#0E0E0E" stroke-width="0.75" stroke-linecap="round" stroke-linejoin="round"/>
<path d="M21.5156 186.301C21.8242 186.316 22.4609 186.309 23.1367 185.953C24.2617 185.363 24.6094 184.262 24.6758 184.035" stroke="#0E0E0E" stroke-width="0.75" stroke-linecap="round" stroke-linejoin="round"/>
<path d="M10.6562 146.715C11.8594 156.375 16.0742 178.453 34.207 194.617C38.0391 198.031 41.9531 200.707 45.6992 202.816" stroke="#0E0E0E" stroke-width="0.75" stroke-linecap="round" stroke-linejoin="round"/>
<path d="M39.8789 36.6289C40.0938 37.2383 40.207 37.8438 40.207 38.4688C40.207 39.0469 40.1094 39.6094 39.9062 40.1641C39.4805 41.3242 38.4844 42.4414 36.9062 43.5234C34.9141 44.8437 32.7539 45.5039 30.4414 45.5039C29.6563 45.5039 28.8984 45.4258 28.1562 45.2695C26.6914 44.9688 25.3281 44.3867 24.0586 43.5312C22.8359 42.6914 21.9453 41.7656 21.375 40.7539C20.9531 39.9883 20.7461 39.2109 20.7461 38.3984C20.7461 37.8984 20.8203 37.3867 20.9766 36.8789C21.2695 36 21.7187 35.2578 22.3359 34.6562C22.9492 34.0586 23.5742 33.5547 24.2109 33.1562C24.5859 32.918 24.9766 32.6992 25.3711 32.4961C25.3945 32.4961 25.4336 32.4766 25.4844 32.4375C25.5156 32.4141 25.5391 32.4062 25.5469 32.4062C24.8477 32.0703 24.2109 31.6406 23.6484 31.1172C23.0859 30.5937 22.6875 29.918 22.4688 29.0781C22.3867 28.7344 22.3438 28.3867 22.3438 28.043C22.3438 27.2266 22.5586 26.4531 23.0039 25.7188C23.3789 25.1094 23.8711 24.6016 24.4961 24.1953C25.2656 23.7227 25.9727 23.3867 26.6094 23.1758C27.7812 22.7461 29.0234 22.5312 30.3438 22.5312C30.6133 22.5312 30.8867 22.5312 31.1484 22.5469C32.6406 22.6562 34.0742 23.0313 35.4453 23.6641C37.7188 24.75 38.8516 26.2422 38.8516 28.1484C38.8516 28.7852 38.707 29.3984 38.4219 30C38.3633 30.1562 38.2734 30.3086 38.1758 30.457C38.168 30.4883 38.1445 30.5156 38.1133 30.5469C37.793 31.0195 37.4023 31.4102 36.9531 31.7188C36.5039 32.0234 36.0469 32.2891 35.5859 32.4961C35.5859 32.5039 35.5859 32.5117 35.6016 32.5117C36.1641 32.7812 36.7734 33.1562 37.4258 33.6367C38.0781 34.1094 38.6563 34.6875 39.1641 35.3555C39.4648 35.7539 39.7031 36.1797 39.8711 36.6367L39.8789 36.6289ZM36.3828 37.1016C35.5664 36.2461 34.6484 35.5352 33.6367 34.9727C31.7344 33.9375 29.8789 33.4219 28.0664 33.4219C26.4531 33.4219 25.0742 33.8398 23.9258 34.6719C23.2031 35.2266 22.8438 35.8789 22.8438 36.6289C22.8438 37.1328 23.0117 37.6484 23.3477 38.1836C23.9531 39.1367 24.9297 40.1016 26.2812 41.0859C27.4492 41.9414 28.6875 42.5625 29.9844 42.9531C30.9609 43.2383 31.9141 43.3711 32.8594 43.3711C33.6445 43.3711 34.3867 43.2734 35.0859 43.0742C36.2344 42.7266 37.1172 42.2031 37.7188 41.4883C38.0625 41.0625 38.2344 40.6055 38.2344 40.125C38.2344 40.043 38.2344 39.9531 38.2188 39.8555C38.1289 39.3516 37.8906 38.8633 37.5234 38.3789C37.1562 37.8906 36.7734 37.4687 36.3828 37.0859V37.1016ZM36.8164 30.4062C36.9453 30.1953 37.0039 29.9844 37.0039 29.7734C37.0039 29.5117 36.9375 29.2656 36.8086 29.0234C36.6836 28.7852 36.5312 28.5742 36.3672 28.3867C36.2031 28.207 36.0742 28.0664 35.9688 27.9766C35.8438 27.8477 35.7227 27.7344 35.5938 27.6289C34.9805 27.1055 34.2461 26.6094 33.3984 26.1289C32.5508 25.6563 31.6406 25.2617 30.6836 24.9531C29.7227 24.6445 28.7695 24.4883 27.8242 24.4883C26.6328 24.4883 25.6211 24.7734 24.7812 25.3516C24.4805 25.5586 24.293 25.8437 24.2344 26.1992C24.2266 26.2734 24.2188 26.3477 24.2188 26.4297C24.2188 26.8203 24.3438 27.1875 24.6094 27.5469C25.4023 28.5898 26.6328 29.5195 28.2969 30.3242C29.8594 31.0664 31.4688 31.4414 33.1406 31.4414C33.5703 31.4414 33.9961 31.418 34.4336 31.3633C34.9141 31.3125 35.3789 31.2148 35.8203 31.0781C36.2617 30.9453 36.6016 30.7188 36.8164 30.4062Z" fill="black"/>
<path d="M128.676 202.289C128.461 201.684 128.348 201.074 128.348 200.453C128.348 199.875 128.445 199.313 128.648 198.758C129.074 197.594 130.074 196.477 131.648 195.398C133.641 194.078 135.801 193.418 138.113 193.418C138.898 193.418 139.656 193.492 140.398 193.648C141.863 193.949 143.227 194.535 144.496 195.391C145.719 196.23 146.609 197.152 147.18 198.164C147.602 198.93 147.809 199.711 147.809 200.52C147.809 201.023 147.734 201.531 147.578 202.043C147.285 202.922 146.836 203.664 146.219 204.262C145.605 204.863 144.984 205.363 144.344 205.762C143.969 206.004 143.578 206.219 143.184 206.422C143.16 206.422 143.121 206.445 143.07 206.484C143.039 206.504 143.016 206.512 143.012 206.512C143.707 206.852 144.344 207.277 144.906 207.801C145.469 208.328 145.867 209.004 146.086 209.844C146.168 210.188 146.211 210.531 146.211 210.879C146.211 211.695 145.996 212.469 145.551 213.203C145.176 213.809 144.684 214.32 144.059 214.727C143.289 215.199 142.582 215.535 141.945 215.746C140.773 216.172 139.531 216.391 138.211 216.391C137.941 216.391 137.672 216.391 137.406 216.375C135.914 216.262 134.484 215.887 133.109 215.258C130.836 214.172 129.703 212.676 129.703 210.773C129.703 210.137 129.848 209.52 130.133 208.922C130.191 208.762 130.281 208.613 130.379 208.461C130.387 208.434 130.41 208.402 130.441 208.371C130.762 207.898 131.152 207.512 131.602 207.203C132.051 206.895 132.512 206.633 132.969 206.422C132.969 206.414 132.969 206.406 132.953 206.406C132.391 206.137 131.781 205.762 131.129 205.281C130.477 204.809 129.898 204.234 129.391 203.566C129.09 203.168 128.852 202.738 128.684 202.281L128.676 202.289ZM132.172 201.816C132.988 202.672 133.906 203.387 134.918 203.949C136.824 204.984 138.676 205.5 140.488 205.5C142.102 205.5 143.484 205.078 144.629 204.246C145.352 203.691 145.711 203.039 145.711 202.289C145.711 201.789 145.547 201.27 145.207 200.738C144.602 199.785 143.625 198.816 142.273 197.836C141.105 196.98 139.867 196.359 138.57 195.969C137.594 195.684 136.641 195.547 135.699 195.547C134.91 195.547 134.168 195.645 133.469 195.848C132.324 196.191 131.437 196.719 130.836 197.43C130.492 197.859 130.32 198.316 130.32 198.797C130.32 198.879 130.32 198.969 130.336 199.066C130.426 199.566 130.664 200.055 131.031 200.543C131.398 201.031 131.781 201.449 132.172 201.832V201.816ZM131.738 208.516C131.609 208.727 131.551 208.934 131.551 209.145C131.551 209.406 131.617 209.656 131.746 209.895C131.871 210.137 132.023 210.344 132.188 210.531C132.352 210.711 132.48 210.855 132.586 210.945C132.711 211.074 132.832 211.184 132.961 211.289C133.574 211.816 134.309 212.309 135.156 212.789C136.004 213.262 136.914 213.66 137.871 213.969C138.832 214.273 139.785 214.434 140.73 214.434C141.922 214.434 142.934 214.148 143.773 213.57C144.074 213.359 144.262 213.074 144.324 212.723C144.328 212.648 144.336 212.574 144.336 212.488C144.336 212.102 144.211 211.734 143.949 211.371C143.152 210.328 141.922 209.398 140.258 208.598C138.699 207.855 137.086 207.48 135.414 207.48C134.984 207.48 134.559 207.504 134.121 207.555C133.641 207.609 133.176 207.703 132.734 207.84C132.293 207.977 131.953 208.199 131.738 208.516Z" fill="black"/>
<path d="M115.41 199.719C114.734 200.773 113.902 201.93 112.883 203.113C112.199 203.91 111.516 204.613 110.863 205.238C111.699 206.063 112.582 207.031 113.469 208.148C114.219 209.086 114.855 209.992 115.41 210.848C115.965 210.023 116.602 209.137 117.344 208.238C118.273 207.098 119.203 206.121 120.074 205.281C119.301 204.594 118.461 203.754 117.613 202.754C116.707 201.684 115.988 200.648 115.41 199.719Z" fill="#EB1C24" stroke="black" stroke-width="0.5625" stroke-linecap="round" stroke-linejoin="round"/>
<path d="M53.0234 28.0273C52.3516 29.0859 51.5156 30.2383 50.4961 31.4258C49.8164 32.2187 49.1328 32.9258 48.4805 33.5469C49.3125 34.3711 50.1992 35.3399 51.082 36.457C51.832 37.3945 52.4688 38.3008 53.0234 39.1562C53.5781 38.332 54.2188 37.4492 54.9609 36.5469C55.8906 35.4062 56.8203 34.4336 57.6914 33.5938C56.918 32.9023 56.0781 32.0625 55.2305 31.0664C54.3242 29.9922 53.6016 28.957 53.0234 28.0273Z" fill="#EB1C24" stroke="black" stroke-width="0.5625" stroke-linecap="round" stroke-linejoin="round"/>
<path d="M63.4063 47.2266C61.9219 49.5469 60.0898 52.0781 57.8555 54.6836C56.3555 56.4297 54.8633 57.9766 53.4375 59.3399C55.2656 61.1563 57.2031 63.2695 59.1523 65.7149C60.7891 67.7695 62.1992 69.7734 63.4141 71.6406C64.6289 69.8242 66.0313 67.8906 67.6563 65.9102C69.6992 63.4141 71.7305 61.2656 73.6406 59.4297C71.9531 57.9141 70.1094 56.0781 68.25 53.8789C66.2617 51.5313 64.6719 49.2617 63.4141 47.2188L63.4063 47.2266Z" fill="#EB1C24" stroke="black" stroke-width="0.5625" stroke-linecap="round" stroke-linejoin="round"/>
<path d="M105.238 47.2266C103.754 49.5469 101.926 52.0781 99.6914 54.6836C98.1914 56.4297 96.6992 57.9766 95.2734 59.3399C97.1016 61.1563 99.0391 63.2695 100.988 65.7149C102.621 67.7695 104.031 69.7734 105.246 71.6406C106.461 69.8242 107.863 67.8906 109.492 65.9102C111.531 63.4141 113.566 61.2656 115.477 59.4297C113.789 57.9141 111.945 56.0781 110.086 53.8789C108.098 51.5313 106.508 49.2617 105.246 47.2188L105.238 47.2266Z" fill="#EB1C24" stroke="black" stroke-width="0.5625" stroke-linecap="round" stroke-linejoin="round"/>
<path d="M63.4063 105.238C61.9219 107.559 60.0898 110.094 57.8555 112.695C56.3555 114.441 54.8633 115.988 53.4375 117.352C55.2656 119.168 57.2031 121.281 59.1523 123.727C60.7891 125.781 62.1992 127.785 63.4141 129.652C64.6289 127.836 66.0313 125.902 67.6563 123.922C69.6992 121.426 71.7305 119.281 73.6406 117.441C71.9531 115.926 70.1094 114.09 68.25 111.891C66.2617 109.547 64.6719 107.273 63.4141 105.234L63.4063 105.238Z" fill="#EB1C24" stroke="black" stroke-width="0.5625" stroke-linecap="round" stroke-linejoin="round"/>
<path d="M105.238 105.238C103.754 107.559 101.926 110.094 99.6914 112.695C98.1914 114.441 96.6992 115.988 95.2734 117.352C97.1016 119.168 99.0391 121.281 100.988 123.727C102.621 125.781 104.031 127.785 105.246 129.652C106.461 127.836 107.863 125.902 109.492 123.922C111.531 121.426 113.566 119.281 115.477 117.441C113.789 115.926 111.945 114.09 110.086 111.891C108.098 109.547 106.508 107.273 105.246 105.234L105.238 105.238Z" fill="#EB1C24" stroke="black" stroke-width="0.5625" stroke-linecap="round" stroke-linejoin="round"/>
<path d="M63.4063 163.262C61.9219 165.578 60.0898 168.113 57.8555 170.715C56.3555 172.461 54.8633 174.008 53.4375 175.371C55.2656 177.188 57.2031 179.301 59.1523 181.746C60.7891 183.801 62.1992 185.805 63.4141 187.672C64.6289 185.859 66.0313 183.922 67.6563 181.941C69.6992 179.445 71.7305 177.301 73.6406 175.461C71.9531 173.949 70.1094 172.109 68.25 169.914C66.2617 167.566 64.6719 165.293 63.4141 163.254L63.4063 163.262Z" fill="#EB1C24" stroke="black" stroke-width="0.5625" stroke-linecap="round" stroke-linejoin="round"/>
<path d="M105.238 163.262C103.754 165.578 101.926 168.113 99.6914 170.715C98.1914 172.461 96.6992 174.008 95.2734 175.371C97.1016 177.188 99.0391 179.301 100.988 181.746C102.621 183.801 104.031 185.805 105.246 187.672C106.461 185.859 107.863 183.922 109.492 181.941C111.531 179.445 113.566 177.301 115.477 175.461C113.789 173.949 111.945 172.109 110.086 169.914C108.098 167.566 106.508 165.293 105.246 163.254L105.238 163.262Z" fill="#EB1C24" stroke="black" stroke-width="0.5625" stroke-linecap="round" stroke-linejoin="round"/>
<path d="M84.4336 74.7812C82.9492 77.1016 81.1211 79.6367 78.8867 82.2383C77.3867 83.9844 75.8906 85.5313 74.4688 86.8945C76.2969 88.7109 78.2344 90.8242 80.1836 93.2695C81.8164 95.3242 83.2266 97.3281 84.4414 99.1953C85.6562 97.3789 87.0586 95.4453 88.6875 93.4648C90.7266 90.9688 92.7617 88.8242 94.6719 86.9844C92.9844 85.4687 91.1406 83.6328 89.2812 81.4336C87.293 79.0859 85.7031 76.8164 84.4414 74.7734L84.4336 74.7812Z" fill="#EB1C24" stroke="black" stroke-width="0.5625" stroke-linecap="round" stroke-linejoin="round"/>
<path d="M84.2461 134.535C82.7617 136.852 80.9336 139.387 78.6992 141.988C77.1992 143.738 75.7031 145.281 74.2812 146.648C76.1094 148.461 78.0469 150.578 79.9961 153.023C81.6289 155.078 83.0391 157.078 84.2539 158.949C85.4687 157.133 86.8711 155.199 88.5 153.219C90.5391 150.719 92.5742 148.574 94.4844 146.738C92.7969 145.223 90.9531 143.387 89.0938 141.187C87.1055 138.84 85.5156 136.566 84.2539 134.527L84.2461 134.535Z" fill="#EB1C24" stroke="black" stroke-width="0.5625" stroke-linecap="round" stroke-linejoin="round"/>
<defs>
<linearGradient id="paint0_linear_2321_5099" x1="157.74" y1="49.455" x2="11.1" y2="49.455" gradientUnits="userSpaceOnUse">
<stop stop-color="#8F8587"/>
<stop offset="0.00390625" stop-color="#908688"/>
<stop offset="0.0078125" stop-color="#918789"/>
<stop offset="0.0117187" stop-color="#92888A"/>
<stop offset="0.015625" stop-color="#92898B"/>
<stop offset="0.0195312" stop-color="#938A8B"/>
<stop offset="0.0234375" stop-color="#948B8C"/>
<stop offset="0.0273438" stop-color="#958C8D"/>
<stop offset="0.03125" stop-color="#968D8E"/>
<stop offset="0.0351562" stop-color="#978D8F"/>
<stop offset="0.0390625" stop-color="#988E90"/>
<stop offset="0.0429687" stop-color="#988F91"/>
<stop offset="0.046875" stop-color="#999092"/>
<stop offset="0.0507812" stop-color="#9A9193"/>
<stop offset="0.0546875" stop-color="#9B9294"/>
<stop offset="0.0585937" stop-color="#9C9395"/>
<stop offset="0.0625" stop-color="#9D9496"/>
<stop offset="0.0664062" stop-color="#9D9596"/>
<stop offset="0.0703125" stop-color="#9E9697"/>
<stop offset="0.0742187" stop-color="#9F9798"/>
<stop offset="0.078125" stop-color="#A09899"/>
<stop offset="0.0820312" stop-color="#A1999A"/>
<stop offset="0.0859375" stop-color="#A2999B"/>
<stop offset="0.0898437" stop-color="#A39A9C"/>
<stop offset="0.09375" stop-color="#A39B9D"/>
<stop offset="0.0976562" stop-color="#A49C9E"/>
<stop offset="0.101562" stop-color="#A59D9F"/>
<stop offset="0.105469" stop-color="#A69EA0"/>
<stop offset="0.109375" stop-color="#A79FA0"/>
<stop offset="0.113281" stop-color="#A8A0A1"/>
<stop offset="0.117187" stop-color="#A8A1A2"/>
<stop offset="0.121094" stop-color="#A9A2A3"/>
<stop offset="0.125" stop-color="#AAA3A4"/>
<stop offset="0.128906" stop-color="#ABA4A5"/>
<stop offset="0.132812" stop-color="#ACA5A6"/>
<stop offset="0.136719" stop-color="#ADA5A7"/>
<stop offset="0.140625" stop-color="#AEA6A8"/>
<stop offset="0.144531" stop-color="#AEA7A9"/>
<stop offset="0.148437" stop-color="#AFA8AA"/>
<stop offset="0.152344" stop-color="#B0A9AB"/>
<stop offset="0.15625" stop-color="#B1AAAB"/>
<stop offset="0.160156" stop-color="#B2ABAC"/>
<stop offset="0.164062" stop-color="#B3ACAD"/>
<stop offset="0.167969" stop-color="#B3ADAE"/>
<stop offset="0.171875" stop-color="#B4AEAF"/>
<stop offset="0.175781" stop-color="#B5AFB0"/>
<stop offset="0.179687" stop-color="#B6B0B1"/>
<stop offset="0.183594" stop-color="#B7B1B2"/>
<stop offset="0.1875" stop-color="#B8B2B3"/>
<stop offset="0.191406" stop-color="#B9B2B4"/>
<stop offset="0.195312" stop-color="#B9B3B5"/>
<stop offset="0.199219" stop-color="#BAB4B5"/>
<stop offset="0.203125" stop-color="#BBB5B6"/>
<stop offset="0.207031" stop-color="#BCB6B7"/>
<stop offset="0.210937" stop-color="#BDB7B8"/>
<stop offset="0.214844" stop-color="#BEB8B9"/>
<stop offset="0.21875" stop-color="#BEB9BA"/>
<stop offset="0.222656" stop-color="#BFBABB"/>
<stop offset="0.226562" stop-color="#C0BBBC"/>
<stop offset="0.230469" stop-color="#C1BCBD"/>
<stop offset="0.234375" stop-color="#C2BDBE"/>
<stop offset="0.238281" stop-color="#C3BEBF"/>
<stop offset="0.242187" stop-color="#C3BEBF"/>
<stop offset="0.246094" stop-color="#C4BFC0"/>
<stop offset="0.25" stop-color="#C5C0C1"/>
<stop offset="0.253906" stop-color="#C6C1C2"/>
<stop offset="0.257812" stop-color="#C6C2C3"/>
<stop offset="0.261719" stop-color="#C7C3C3"/>
<stop offset="0.265625" stop-color="#C8C3C4"/>
<stop offset="0.269531" stop-color="#C9C4C5"/>
<stop offset="0.273437" stop-color="#C9C5C6"/>
<stop offset="0.277344" stop-color="#CAC6C7"/>
<stop offset="0.28125" stop-color="#CBC7C7"/>
<stop offset="0.285156" stop-color="#CCC7C8"/>
<stop offset="0.289062" stop-color="#CCC8C9"/>
<stop offset="0.292969" stop-color="#CDC9CA"/>
<stop offset="0.296875" stop-color="#CECACB"/>
<stop offset="0.300781" stop-color="#CFCBCB"/>
<stop offset="0.304687" stop-color="#CFCCCC"/>
<stop offset="0.308594" stop-color="#D0CCCD"/>
<stop offset="0.3125" stop-color="#D1CDCE"/>
<stop offset="0.316406" stop-color="#D2CECF"/>
<stop offset="0.320312" stop-color="#D2CFCF"/>
<stop offset="0.324219" stop-color="#D3D0D0"/>
<stop offset="0.328125" stop-color="#D4D0D1"/>
<stop offset="0.332031" stop-color="#D5D1D2"/>
<stop offset="0.335937" stop-color="#D5D2D3"/>
<stop offset="0.339844" stop-color="#D6D3D3"/>
<stop offset="0.34375" stop-color="#D7D4D4"/>
<stop offset="0.347656" stop-color="#D8D5D5"/>
<stop offset="0.351562" stop-color="#D8D5D6"/>
<stop offset="0.355469" stop-color="#D9D6D7"/>
<stop offset="0.359375" stop-color="#DAD7D7"/>
<stop offset="0.363281" stop-color="#DBD8D8"/>
<stop offset="0.367187" stop-color="#DBD9D9"/>
<stop offset="0.371094" stop-color="#DCDADA"/>
<stop offset="0.375" stop-color="#DDDADB"/>
<stop offset="0.378906" stop-color="#DEDBDB"/>
<stop offset="0.382812" stop-color="#DEDCDC"/>
<stop offset="0.386719" stop-color="#DFDDDD"/>
<stop offset="0.390625" stop-color="#E0DEDE"/>
<stop offset="0.394531" stop-color="#E1DEDF"/>
<stop offset="0.398437" stop-color="#E1DFE0"/>
<stop offset="0.402344" stop-color="#E2E0E0"/>
<stop offset="0.40625" stop-color="#E3E1E1"/>
<stop offset="0.410156" stop-color="#E4E2E2"/>
<stop offset="0.414062" stop-color="#E4E3E3"/>
<stop offset="0.417969" stop-color="#E5E3E4"/>
<stop offset="0.421875" stop-color="#E6E4E4"/>
<stop offset="0.425781" stop-color="#E6E5E5"/>
<stop offset="0.429687" stop-color="#E7E6E6"/>
<stop offset="0.433594" stop-color="#E8E7E7"/>
<stop offset="0.4375" stop-color="#E9E7E8"/>
<stop offset="0.441406" stop-color="#E9E8E8"/>
<stop offset="0.445312" stop-color="#EAE9E9"/>
<stop offset="0.449219" stop-color="#EBEAEA"/>
<stop offset="0.453125" stop-color="#ECEBEB"/>
<stop offset="0.457031" stop-color="#ECEBEB"/>
<stop offset="0.460937" stop-color="#EDECEC"/>
<stop offset="0.464844" stop-color="#EDECEC"/>
<stop offset="0.46875" stop-color="#EEEDED"/>
<stop offset="0.472656" stop-color="#EEEEEE"/>
<stop offset="0.476562" stop-color="#EFEEEE"/>
<stop offset="0.480469" stop-color="#EFEFEF"/>
<stop offset="0.484375" stop-color="#F0EFEF"/>
<stop offset="0.488281" stop-color="#F1F0F0"/>
<stop offset="0.492187" stop-color="#F1F1F1"/>
<stop offset="0.496094" stop-color="#F2F1F1"/>
<stop offset="0.5" stop-color="#F2F2F2"/>
<stop offset="0.503906" stop-color="#F3F2F2"/>
<stop offset="0.507812" stop-color="#F3F3F3"/>
<stop offset="0.511719" stop-color="#F4F4F4"/>
<stop offset="0.515625" stop-color="#F5F4F4"/>
<stop offset="0.519531" stop-color="#F5F5F5"/>
<stop offset="0.523438" stop-color="#F6F5F5"/>
<stop offset="0.527344" stop-color="#F6F6F6"/>
<stop offset="0.53125" stop-color="#F7F7F7"/>
<stop offset="0.535156" stop-color="#F7F7F7"/>
<stop offset="0.539062" stop-color="#F8F8F8"/>
<stop offset="0.542969" stop-color="#F8F8F8"/>
<stop offset="0.546875" stop-color="#F9F9F9"/>
<stop offset="0.550781" stop-color="#FAFAFA"/>
<stop offset="0.554688" stop-color="#FAFAFA"/>
<stop offset="0.5625" stop-color="#FBFBFB"/>
<stop offset="0.625" stop-color="#FBFBFB"/>
<stop offset="0.75" stop-color="#FBFBFB"/>
<stop offset="1" stop-color="#FBFBFB"/>
</linearGradient>
<linearGradient id="paint1_linear_2321_5099" x1="10.9501" y1="188.445" x2="157.665" y2="188.445" gradientUnits="userSpaceOnUse">
<stop stop-color="#8F8587"/>
<stop offset="0.00390625" stop-color="#908688"/>
<stop offset="0.0078125" stop-color="#918789"/>
<stop offset="0.0117187" stop-color="#91888A"/>
<stop offset="0.015625" stop-color="#92898A"/>
<stop offset="0.0195313" stop-color="#938A8B"/>
<stop offset="0.0234375" stop-color="#948A8C"/>
<stop offset="0.0273438" stop-color="#958B8D"/>
<stop offset="0.03125" stop-color="#968C8E"/>
<stop offset="0.0351562" stop-color="#968D8F"/>
<stop offset="0.0390625" stop-color="#978E90"/>
<stop offset="0.0429688" stop-color="#988F91"/>
<stop offset="0.046875" stop-color="#999091"/>
<stop offset="0.0507813" stop-color="#9A9192"/>
<stop offset="0.0546875" stop-color="#9A9293"/>
<stop offset="0.0585938" stop-color="#9B9294"/>
<stop offset="0.0625" stop-color="#9C9395"/>
<stop offset="0.0664062" stop-color="#9D9496"/>
<stop offset="0.0703125" stop-color="#9E9597"/>
<stop offset="0.0742188" stop-color="#9E9698"/>
<stop offset="0.078125" stop-color="#9F9798"/>
<stop offset="0.0820312" stop-color="#A09899"/>
<stop offset="0.0859375" stop-color="#A1999A"/>
<stop offset="0.0898438" stop-color="#A29A9B"/>
<stop offset="0.09375" stop-color="#A39A9C"/>
<stop offset="0.0976563" stop-color="#A39B9D"/>
<stop offset="0.101563" stop-color="#A49C9E"/>
<stop offset="0.105469" stop-color="#A59D9F"/>
<stop offset="0.109375" stop-color="#A69E9F"/>
<stop offset="0.113281" stop-color="#A79FA0"/>
<stop offset="0.117188" stop-color="#A7A0A1"/>
<stop offset="0.121094" stop-color="#A8A1A2"/>
<stop offset="0.125" stop-color="#A9A2A3"/>
<stop offset="0.128906" stop-color="#AAA2A4"/>
<stop offset="0.132812" stop-color="#ABA3A5"/>
<stop offset="0.136719" stop-color="#ABA4A6"/>
<stop offset="0.140625" stop-color="#ACA5A6"/>
<stop offset="0.144531" stop-color="#ADA6A7"/>
<stop offset="0.148438" stop-color="#AEA7A8"/>
<stop offset="0.152344" stop-color="#AFA8A9"/>
<stop offset="0.15625" stop-color="#B0A9AA"/>
<stop offset="0.160156" stop-color="#B0AAAB"/>
<stop offset="0.164063" stop-color="#B1AAAC"/>
<stop offset="0.167969" stop-color="#B2ABAD"/>
<stop offset="0.171875" stop-color="#B3ACAD"/>
<stop offset="0.175781" stop-color="#B4ADAE"/>
<stop offset="0.179688" stop-color="#B4AEAF"/>
<stop offset="0.183594" stop-color="#B5AFB0"/>
<stop offset="0.1875" stop-color="#B6B0B1"/>
<stop offset="0.191406" stop-color="#B7B1B2"/>
<stop offset="0.195312" stop-color="#B8B2B3"/>
<stop offset="0.199219" stop-color="#B9B2B4"/>
<stop offset="0.203125" stop-color="#B9B3B4"/>
<stop offset="0.207031" stop-color="#BAB4B5"/>
<stop offset="0.210938" stop-color="#BBB5B6"/>
<stop offset="0.214844" stop-color="#BCB6B7"/>
<stop offset="0.21875" stop-color="#BDB7B8"/>
<stop offset="0.222656" stop-color="#BDB8B9"/>
<stop offset="0.226562" stop-color="#BEB9BA"/>
<stop offset="0.230469" stop-color="#BFBABB"/>
<stop offset="0.234375" stop-color="#C0BABB"/>
<stop offset="0.238281" stop-color="#C1BBBC"/>
<stop offset="0.242188" stop-color="#C1BCBD"/>
<stop offset="0.246094" stop-color="#C2BDBE"/>
<stop offset="0.25" stop-color="#C3BEBF"/>
<stop offset="0.253906" stop-color="#C4BFC0"/>
<stop offset="0.257812" stop-color="#C5C0C1"/>
<stop offset="0.261719" stop-color="#C5C0C1"/>
<stop offset="0.265625" stop-color="#C6C1C2"/>
<stop offset="0.269531" stop-color="#C7C2C3"/>
<stop offset="0.273437" stop-color="#C8C3C4"/>
<stop offset="0.277344" stop-color="#C8C4C5"/>
<stop offset="0.28125" stop-color="#C9C5C5"/>
<stop offset="0.285156" stop-color="#CAC5C6"/>
<stop offset="0.289062" stop-color="#CBC6C7"/>
<stop offset="0.292969" stop-color="#CBC7C8"/>
<stop offset="0.296875" stop-color="#CCC8C9"/>
<stop offset="0.300781" stop-color="#CDC9C9"/>
<stop offset="0.304688" stop-color="#CDC9CA"/>
<stop offset="0.308594" stop-color="#CECACB"/>
<stop offset="0.3125" stop-color="#CFCBCC"/>
<stop offset="0.316406" stop-color="#D0CCCD"/>
<stop offset="0.320312" stop-color="#D0CDCD"/>
<stop offset="0.324219" stop-color="#D1CECE"/>
<stop offset="0.328125" stop-color="#D2CECF"/>
<stop offset="0.332031" stop-color="#D3CFD0"/>
<stop offset="0.335938" stop-color="#D3D0D1"/>
<stop offset="0.339844" stop-color="#D4D1D1"/>
<stop offset="0.34375" stop-color="#D5D2D2"/>
<stop offset="0.347656" stop-color="#D6D2D3"/>
<stop offset="0.351562" stop-color="#D6D3D4"/>
<stop offset="0.355469" stop-color="#D7D4D5"/>
<stop offset="0.359375" stop-color="#D8D5D5"/>
<stop offset="0.363281" stop-color="#D9D6D6"/>
<stop offset="0.367188" stop-color="#D9D7D7"/>
<stop offset="0.371094" stop-color="#DAD7D8"/>
<stop offset="0.375" stop-color="#DBD8D9"/>
<stop offset="0.378906" stop-color="#DCD9D9"/>
<stop offset="0.382813" stop-color="#DCDADA"/>
<stop offset="0.386719" stop-color="#DDDBDB"/>
<stop offset="0.390625" stop-color="#DEDCDC"/>
<stop offset="0.394531" stop-color="#DFDCDD"/>
<stop offset="0.398438" stop-color="#DFDDDD"/>
<stop offset="0.402344" stop-color="#E0DEDE"/>
<stop offset="0.40625" stop-color="#E1DFDF"/>
<stop offset="0.410156" stop-color="#E2E0E0"/>
<stop offset="0.414063" stop-color="#E2E0E1"/>
<stop offset="0.417969" stop-color="#E3E1E1"/>
<stop offset="0.421875" stop-color="#E4E2E2"/>
<stop offset="0.425781" stop-color="#E5E3E3"/>
<stop offset="0.429688" stop-color="#E5E4E4"/>
<stop offset="0.433594" stop-color="#E6E5E5"/>
<stop offset="0.4375" stop-color="#E7E5E5"/>
<stop offset="0.441406" stop-color="#E8E6E6"/>
<stop offset="0.445312" stop-color="#E8E7E7"/>
<stop offset="0.449219" stop-color="#E9E8E8"/>
<stop offset="0.453125" stop-color="#EAE9E9"/>
<stop offset="0.457031" stop-color="#EBE9E9"/>
<stop offset="0.460938" stop-color="#EBEAEA"/>
<stop offset="0.464844" stop-color="#ECEBEB"/>
<stop offset="0.46875" stop-color="#ECEBEB"/>
<stop offset="0.472656" stop-color="#EDECEC"/>
<stop offset="0.476562" stop-color="#EDEDED"/>
<stop offset="0.480469" stop-color="#EEEDED"/>
<stop offset="0.484375" stop-color="#EFEEEE"/>
<stop offset="0.488281" stop-color="#EFEEEE"/>
<stop offset="0.492188" stop-color="#F0EFEF"/>
<stop offset="0.496094" stop-color="#F0F0F0"/>
<stop offset="0.5" stop-color="#F1F0F0"/>
<stop offset="0.503906" stop-color="#F1F1F1"/>
<stop offset="0.507813" stop-color="#F2F1F1"/>
<stop offset="0.511719" stop-color="#F3F2F2"/>
<stop offset="0.515625" stop-color="#F3F3F3"/>
<stop offset="0.519531" stop-color="#F4F3F3"/>
<stop offset="0.523438" stop-color="#F4F4F4"/>
<stop offset="0.527344" stop-color="#F5F4F4"/>
<stop offset="0.53125" stop-color="#F5F5F5"/>
<stop offset="0.535156" stop-color="#F6F6F6"/>
<stop offset="0.539063" stop-color="#F6F6F6"/>
<stop offset="0.542969" stop-color="#F7F7F7"/>
<stop offset="0.546875" stop-color="#F8F7F7"/>
<stop offset="0.550781" stop-color="#F8F8F8"/>
<stop offset="0.554688" stop-color="#F9F9F9"/>
<stop offset="0.558594" stop-color="#F9F9F9"/>
<stop offset="0.5625" stop-color="#FAFAFA"/>
<stop offset="0.566406" stop-color="#FAFAFA"/>
<stop offset="0.570313" stop-color="#FBFBFB"/>
<stop offset="0.578125" stop-color="#FBFBFB"/>
<stop offset="0.59375" stop-color="#FBFBFB"/>
<stop offset="0.625" stop-color="#FBFBFB"/>
<stop offset="0.75" stop-color="#FBFBFB"/>
<stop offset="1" stop-color="#FBFBFB"/>
</linearGradient>
</defs>
</svg>
