<svg width="169" height="239" viewBox="0 0 169 239" fill="none" xmlns="http://www.w3.org/2000/svg">
<path d="M162.953 238.262H6.43359C3.11328 238.262 0.421875 235.547 0.421875 232.199V6.62891C0.421875 3.28516 3.11328 0.570312 6.43359 0.570312H162.953C166.273 0.570312 168.969 3.28516 168.969 6.62891V232.199C168.969 235.547 166.273 238.262 162.953 238.262Z" fill="white"/>
<mask id="mask0_2321_5100" style="mask-type:luminance" maskUnits="userSpaceOnUse" x="11" y="10" width="148" height="79">
<path d="M11 10H159V89H11V10Z" fill="white"/>
</mask>
<g mask="url(#mask0_2321_5100)">
<mask id="mask1_2321_5100" style="mask-type:luminance" maskUnits="userSpaceOnUse" x="11" y="10" width="148" height="79">
<path d="M158.102 88.3125C158.102 62.4141 158.109 36.5117 158.113 10.6133C109.262 10.6133 60.3984 10.6133 11.543 10.6211C11.5195 36.0977 11.4961 61.5742 11.4766 87.0508C14.0391 75.6133 19.2148 58.7461 29.0859 49.7383C36.6367 42.8555 40.4102 39.4062 43.3633 38.0234C44.7383 37.3789 49.125 35.4844 52.7539 31.0508C53.4297 30.2344 53.918 29.5117 54.2266 29.0312C54.5391 29.4531 55.7539 31.0039 57.4258 31.0352C59.6016 31.0742 62.0312 28.5234 62.1523 24.6836C62.4062 25.2539 64.5469 29.7969 69.4062 30.8242C71.7461 31.3203 73.7109 30.7969 74.7227 30.4336C75.3828 29.8867 76.2617 29.0391 77.0625 27.8242C77.8516 26.6328 78.2773 25.5156 78.5234 24.7031H91.0742C91.1484 25.1719 91.7539 28.5977 94.875 30.3086C97.9258 31.9805 101.023 30.7031 101.977 30.3242C105.27 28.9961 106.664 26.2578 106.973 25.6133C107.715 29.1523 110.191 31.3438 112.363 31.1719C112.719 31.1406 113.852 30.9883 115.027 29.6719L118.785 32.7969C120.254 33.668 122.316 34.9492 124.695 36.6133C127.484 38.5664 136.738 45.1367 144.008 54.5781C153.66 67.1172 156.891 80.9258 158.094 88.2969L158.102 88.3125Z" fill="white"/>
</mask>
<g mask="url(#mask1_2321_5100)">
<path d="M11.4766 10.6133V88.3125H158.113V10.6133H11.4766Z" fill="url(#paint0_linear_2321_5100)"/>
</g>
</g>
<path d="M158.488 228.406H11.0156C11.0156 183.074 11.0156 137.746 11.0156 92.4141C11.0156 65.0234 11.0156 37.6406 11.0156 10.2539H158.488C158.488 37.5977 158.488 64.9414 158.488 92.289C158.488 137.664 158.488 183.031 158.488 228.406Z" stroke="#0E0E0E" stroke-width="0.75" stroke-linecap="round" stroke-linejoin="round"/>
<path d="M84.668 32.6836C84.6133 32.0625 84.3594 29.8789 82.5508 28.0273C80.9336 26.3633 79.0273 25.9648 78.375 25.8516C78.4258 25.1992 78.4805 24.5469 78.5312 23.8945C79.3867 23.4961 81.1055 22.5508 82.5312 20.6406C83.9766 18.6992 84.3906 16.7617 84.5234 15.8242C84.8633 16.9961 85.6055 18.9961 87.3008 20.9492C88.6055 22.4492 89.9922 23.3633 90.9531 23.8945C91.0039 24.5469 91.0586 25.1992 91.1094 25.8516C90.6445 25.8984 87.6523 26.2422 85.8516 28.8594C84.7969 30.4062 84.668 31.9805 84.6523 32.6836H84.668Z" fill="white"/>
<path d="M53.4609 22.2461C54.293 22.0039 55.6641 21.7422 57.2188 22.1172C58.5742 22.4414 59.4883 23.1015 60.0078 23.4882C64.5664 26.9101 65.2422 29.5664 68.3789 30.7656C68.7812 30.9218 71.7148 31.8906 74.6719 30.5117C76.7539 29.5351 78.2383 27.3164 78.4727 24.9062C78.8008 21.457 76.4024 18.0468 73.6211 17.4218C73.2969 17.3476 71.543 16.957 70.1094 18.0312C69.9297 18.164 68.8203 19.0195 68.6641 20.5273C68.6406 20.7539 68.461 22.6953 69.9453 23.6406C70.7774 24.164 71.836 24.1953 72.6758 23.8047C73.8672 23.2578 74.586 21.8867 74.3985 20.414C74.6914 20.7383 75.0977 21.2382 75.4219 21.9297C75.5781 22.2617 76.5977 24.5156 75.6211 26.6836C74.4375 29.3242 71.2031 29.789 70.7695 29.8515C67.8828 30.2617 64.8828 28.7461 62.918 26.0234" stroke="#0E0E0E" stroke-width="0.75" stroke-linecap="round" stroke-linejoin="round"/>
<path d="M78.5312 23.8047C79.1016 23.5273 79.9961 23.0234 80.9024 22.1992C83.8047 19.5508 84.3359 15.8789 84.5781 14.2422C84.7109 13.3203 84.832 11.9492 84.6758 10.2461" stroke="#0E0E0E" stroke-width="0.75" stroke-linecap="round" stroke-linejoin="round"/>
<path d="M78.375 25.7617C79.0859 25.8906 79.8594 26.1133 80.625 26.5039C84.082 28.2656 84.5938 31.957 84.668 32.5938" stroke="#0E0E0E" stroke-width="0.75" stroke-linecap="round" stroke-linejoin="round"/>
<path d="M116.039 22.2461C115.207 22.0039 113.836 21.7422 112.281 22.1172C110.926 22.4414 110.012 23.1015 109.492 23.4882C104.934 26.9101 104.258 29.5664 101.121 30.7656C100.719 30.9218 97.7852 31.8906 94.8281 30.5117C92.7461 29.5351 91.2617 27.3164 91.0273 24.9062C90.6992 21.457 93.0977 18.0468 95.8789 17.4218C96.2031 17.3476 97.957 16.957 99.3906 18.0312C99.5703 18.164 100.68 19.0195 100.836 20.5273C100.859 20.7539 101.039 22.6953 99.5547 23.6406C98.7226 24.164 97.6641 24.1953 96.8242 23.8047C95.6328 23.2578 94.9141 21.8867 95.1016 20.414C94.8086 20.7383 94.4023 21.2382 94.0781 21.9297C93.9219 22.2617 92.9023 24.5156 93.8789 26.6836C95.0625 29.3242 98.2969 29.789 98.7305 29.8515C101.617 30.2617 104.617 28.7461 106.582 26.0234" stroke="#0E0E0E" stroke-width="0.75" stroke-linecap="round" stroke-linejoin="round"/>
<path d="M91.125 25.7617C90.4141 25.8906 89.6406 26.1133 88.875 26.5039C85.418 28.2656 84.9062 31.957 84.832 32.5938" stroke="#0E0E0E" stroke-width="0.75" stroke-linecap="round" stroke-linejoin="round"/>
<path d="M115.336 29.1016C115.223 29.3555 114.629 30.668 113.242 31.1016C111.773 31.5664 110.484 30.7109 109.941 30.3516C107.672 28.8438 107.445 25.9727 107.422 25.5078" stroke="#0E0E0E" stroke-width="0.75" stroke-linecap="round" stroke-linejoin="round"/>
<path d="M123.309 36.0157C122.664 35.6485 121.754 35.0938 120.734 34.3516C117.789 32.2032 115.484 30.5313 114.887 27.8008C114.336 25.3204 115.453 23.2266 115.648 22.8751C117.488 19.5587 121.336 19.0118 122.129 18.922C125.707 18.5157 129.336 20.4063 131.609 23.7071" stroke="#0E0E0E" stroke-width="0.75" stroke-linecap="round" stroke-linejoin="round"/>
<path d="M131.113 41.1601C131.152 33.4414 129.262 27.3828 126.27 25.7109C124.734 24.8555 123.172 24.832 123.172 24.832C122.656 24.832 120.039 24.8711 118.379 27.0312C116.902 28.957 117.27 31.164 117.336 31.539" stroke="#0E0E0E" stroke-width="0.75" stroke-linecap="round" stroke-linejoin="round"/>
<path d="M152.242 37.2617C152.633 37.0664 153.879 36.4883 155.219 36.8321C157.613 37.4414 157.883 40.3281 157.898 40.5391C158.039 42.375 156.914 44.5117 154.77 45.2774C153.121 45.8633 151.531 45.3985 150.684 45.1485C147.938 44.3477 146.43 42.4805 145.68 41.5352C143.281 38.4766 144.449 36.9883 141.988 34.8164C141.324 34.2227 139.973 33.0235 137.902 32.7071C135.75 32.3711 134.863 33.3008 132.898 32.7539C130.973 32.211 129.977 30.7969 129.719 30.3985C129.602 30.2188 128.199 27.961 129.516 25.6875C129.789 25.2149 130.59 23.8438 132.398 23.4453C134.039 23.0938 135.848 23.6914 136.836 24.8711C137.684 25.875 137.934 27.293 137.273 28.418C137.129 28.6641 136.68 29.4297 135.66 29.7383C134.805 29.9922 133.719 29.8789 132.969 29.2813C132.309 28.7461 132.188 28.0664 132.164 27.8633" stroke="#0E0E0E" stroke-width="0.75" stroke-linecap="round" stroke-linejoin="round"/>
<path d="M143.535 36.9141C143.219 33.4961 141.473 30.6836 138.914 29.7656C138.328 29.5586 137.414 29.3477 136.199 29.4961" stroke="#0E0E0E" stroke-width="0.75" stroke-linecap="round" stroke-linejoin="round"/>
<path d="M146.129 42.2188C145.664 42.0977 143.73 41.6485 142.078 42.7266C140.094 44.0313 139.297 47.0547 140.52 49.9219" stroke="#0E0E0E" stroke-width="0.75" stroke-linecap="round" stroke-linejoin="round"/>
<path d="M147.488 52.5234C147.18 52.5078 146.543 52.5156 145.867 52.8672C144.773 53.4453 144.414 54.5039 144.344 54.7422" stroke="#0E0E0E" stroke-width="0.75" stroke-linecap="round" stroke-linejoin="round"/>
<path d="M158.477 91.3359C158.461 91.2305 158.445 91.043 158.414 90.8242C157.828 85.6875 154.523 61.7031 134.797 44.2031C132.344 42.0313 128.543 38.9766 123.309 36.0078" stroke="#0E0E0E" stroke-width="0.75" stroke-linecap="round" stroke-linejoin="round"/>
<path d="M84.668 32.6836C84.6133 32.0625 84.3594 29.8789 82.5508 28.0274C80.9336 26.3633 79.0273 25.9649 78.375 25.8516C78.4258 25.1992 78.4805 24.5469 78.5313 23.8945C79.3867 23.4961 81.1055 22.5508 82.5313 20.6406C83.9766 18.6992 84.3906 16.7617 84.5235 15.8242C84.8633 16.9961 85.6055 18.9961 87.3008 20.9492C88.6055 22.4492 89.9922 23.3633 90.9531 23.8945C91.0039 24.5469 91.0586 25.1992 91.1094 25.8516C90.6445 25.8985 87.6524 26.2422 85.8516 28.8594C84.7969 30.4063 84.668 31.9805 84.6524 32.6836H84.668Z" fill="black" stroke="black" stroke-width="0.5625" stroke-linecap="round" stroke-linejoin="round"/>
<path d="M116.039 22.2461C115.207 22.0039 113.836 21.7422 112.281 22.1172C110.926 22.4414 110.012 23.1015 109.492 23.4882C104.934 26.9101 104.258 29.5664 101.121 30.7656C100.719 30.9218 97.7852 31.8906 94.8281 30.5117C92.7461 29.5351 91.2617 27.3164 91.0273 24.9062C90.6992 21.457 93.0977 18.0468 95.8789 17.4218C96.2031 17.3476 97.957 16.957 99.3906 18.0312C99.5703 18.164 100.68 19.0195 100.836 20.5273C100.859 20.7539 101.039 22.6953 99.5547 23.6406C98.7226 24.164 97.6641 24.1953 96.8242 23.8047C95.6328 23.2578 94.9141 21.8867 95.1016 20.414C94.8086 20.7383 94.4023 21.2382 94.0781 21.9297C93.9219 22.2617 92.9023 24.5156 93.8789 26.6836C95.0625 29.3242 98.2969 29.789 98.7305 29.8515C101.617 30.2617 104.617 28.7461 106.582 26.0234" stroke="#0E0E0E" stroke-width="0.75" stroke-linecap="round" stroke-linejoin="round"/>
<path d="M90.9688 23.8047C89.8633 23.2578 89.0938 22.6484 88.5977 22.1992C85.2539 19.1562 84.9297 14.6328 84.8086 12.9688C84.7266 11.8281 84.7734 10.8828 84.8242 10.2461" stroke="#0E0E0E" stroke-width="0.75" stroke-linecap="round" stroke-linejoin="round"/>
<path d="M91.125 25.7617C90.4141 25.8906 89.6406 26.1133 88.875 26.5039C85.418 28.2656 84.9062 31.957 84.832 32.5938" stroke="#0E0E0E" stroke-width="0.75" stroke-linecap="round" stroke-linejoin="round"/>
<path d="M115.336 29.1016C115.223 29.3555 114.629 30.668 113.242 31.1016C111.773 31.5664 110.484 30.7109 109.941 30.3516C107.672 28.8438 107.445 25.9727 107.422 25.5078" stroke="#0E0E0E" stroke-width="0.75" stroke-linecap="round" stroke-linejoin="round"/>
<path d="M123.309 36.0157C122.664 35.6485 121.754 35.0938 120.734 34.3516C117.789 32.2032 115.484 30.5313 114.887 27.8008C114.336 25.3204 115.453 23.2266 115.648 22.8751C117.488 19.5587 121.336 19.0118 122.129 18.922C125.707 18.5157 129.336 20.4063 131.609 23.7071" stroke="#0E0E0E" stroke-width="0.75" stroke-linecap="round" stroke-linejoin="round"/>
<path d="M131.113 41.1601C131.152 33.4414 129.262 27.3828 126.27 25.7109C124.734 24.8555 123.172 24.832 123.172 24.832C122.656 24.832 120.039 24.8711 118.379 27.0312C116.902 28.957 117.27 31.164 117.336 31.539" stroke="#0E0E0E" stroke-width="0.75" stroke-linecap="round" stroke-linejoin="round"/>
<path d="M152.242 37.2617C152.633 37.0664 153.879 36.4883 155.219 36.8321C157.613 37.4414 157.883 40.3281 157.898 40.5391C158.039 42.375 156.914 44.5117 154.77 45.2774C153.121 45.8633 151.531 45.3985 150.684 45.1485C147.938 44.3477 146.43 42.4805 145.68 41.5352C143.281 38.4766 144.449 36.9883 141.988 34.8164C141.324 34.2227 139.973 33.0235 137.902 32.7071C135.75 32.3711 134.863 33.3008 132.898 32.7539C130.973 32.211 129.977 30.7969 129.719 30.3985C129.602 30.2188 128.199 27.961 129.516 25.6875C129.789 25.2149 130.59 23.8438 132.398 23.4453C134.039 23.0938 135.848 23.6914 136.836 24.8711C137.684 25.875 137.934 27.293 137.273 28.418C137.129 28.6641 136.68 29.4297 135.66 29.7383C134.805 29.9922 133.719 29.8789 132.969 29.2813C132.309 28.7461 132.188 28.0664 132.164 27.8633" stroke="#0E0E0E" stroke-width="0.75" stroke-linecap="round" stroke-linejoin="round"/>
<path d="M143.535 36.9141C143.219 33.4961 141.473 30.6836 138.914 29.7656C138.328 29.5586 137.414 29.3477 136.199 29.4961" stroke="#0E0E0E" stroke-width="0.75" stroke-linecap="round" stroke-linejoin="round"/>
<path d="M158.387 48.9843C157.156 46.8749 155.191 45.5624 153.234 45.6835C150.809 45.8319 149.387 48.1054 148.77 49.0859C145.305 54.6132 149.012 62.1679 149.578 63.3007" stroke="#0E0E0E" stroke-width="0.75" stroke-linecap="round" stroke-linejoin="round"/>
<path d="M158.438 90.6602C157.027 81.0078 152.445 59.8945 134.797 44.2109C130.957 40.8008 127.035 38.1211 123.309 36.0156" stroke="#0E0E0E" stroke-width="0.75" stroke-linecap="round" stroke-linejoin="round"/>
<mask id="mask2_2321_5100" style="mask-type:luminance" maskUnits="userSpaceOnUse" x="11" y="148" width="148" height="81">
<path d="M11 148H159V229H11V148Z" fill="white"/>
</mask>
<g mask="url(#mask2_2321_5100)">
<mask id="mask3_2321_5100" style="mask-type:luminance" maskUnits="userSpaceOnUse" x="11" y="148" width="148" height="81">
<path d="M11.3242 148.859C11.3477 175.254 11.3633 201.645 11.3867 228.031C60.2461 228.023 109.109 228.008 157.973 228C157.996 202.523 158.016 177.047 158.039 151.566C153.188 162.855 145.746 176.609 134.203 190.352C129.75 195.645 125.266 200.266 120.938 204.27C119.738 205.859 118.539 207.441 117.344 209.031C116.664 209.219 115.98 209.398 115.297 209.586C114.984 209.168 113.766 207.613 112.094 207.586C109.922 207.547 107.488 210.098 107.371 213.938C107.113 213.367 104.977 208.824 100.117 207.797C97.7773 207.301 95.8125 207.824 94.8008 208.184C94.1406 208.734 93.2617 209.578 92.4609 210.797C91.6719 211.988 91.2461 213.105 90.9961 213.914H78.4492C78.375 213.449 77.7656 210.023 74.6484 208.312C71.5937 206.641 68.4961 207.914 67.5469 208.297C64.2539 209.625 62.8594 212.363 62.5508 213.008C61.8086 209.469 59.332 207.277 57.1562 207.449C56.8047 207.48 55.6719 207.629 54.4961 208.949C53.2422 207.906 51.9883 206.863 50.7383 205.824C44.918 202.941 34.0781 196.605 24.9844 184.32C14.3477 169.949 11.9922 155.406 11.3398 148.867L11.3242 148.859Z" fill="white"/>
</mask>
<g mask="url(#mask3_2321_5100)">
<path d="M11.3242 148.859V228.031H158.039V148.859H11.3242Z" fill="url(#paint1_linear_2321_5100)"/>
</g>
</g>
<path d="M84.7109 206.137C84.7656 206.762 85.0195 208.941 86.8281 210.797C88.4492 212.461 90.3516 212.859 91.0039 212.969C90.9531 213.621 90.8984 214.273 90.8477 214.926C89.9922 215.324 88.2734 216.27 86.8516 218.184C85.4023 220.125 84.9883 222.059 84.8555 222.996C84.5156 221.828 83.7734 219.824 82.0781 217.875C80.7734 216.375 79.3867 215.461 78.4258 214.926C78.375 214.273 78.3242 213.621 78.2695 212.969C78.7344 212.926 81.7266 212.578 83.5273 209.961C84.5859 208.418 84.7109 206.844 84.7266 206.137H84.7109Z" fill="white"/>
<path d="M115.926 216.578C115.094 216.816 113.723 217.078 112.172 216.703C110.812 216.383 109.898 215.723 109.379 215.332C104.82 211.914 104.145 209.258 101.012 208.059C100.605 207.898 97.6719 206.934 94.7187 208.313C92.6328 209.289 91.1484 211.508 90.9141 213.914C90.5859 217.363 92.9844 220.777 95.7656 221.398C96.0898 221.477 97.8437 221.863 99.2773 220.793C99.457 220.656 100.566 219.801 100.727 218.297C100.746 218.07 100.926 216.129 99.4414 215.184C98.6094 214.656 97.5508 214.629 96.7109 215.016C95.5195 215.566 94.8008 216.938 94.9883 218.406C94.6953 218.086 94.2891 217.582 93.9687 216.891C93.8086 216.563 92.789 214.305 93.7656 212.137C94.9492 209.496 98.1836 209.031 98.6172 208.973C101.504 208.559 104.504 210.074 106.469 212.797" stroke="#0E0E0E" stroke-width="0.75" stroke-linecap="round" stroke-linejoin="round"/>
<path d="M90.8476 215.016C89.789 215.543 89.0156 216.137 88.4765 216.621C85.3632 219.449 84.9062 223.566 84.6914 225.496C84.5468 226.746 84.5625 227.781 84.5937 228.422" stroke="#0E0E0E" stroke-width="0.75" stroke-linecap="round" stroke-linejoin="round"/>
<path d="M91.0039 213.059C90.293 212.934 89.5195 212.707 88.7539 212.316C85.2969 210.555 84.7891 206.863 84.7109 206.227" stroke="#0E0E0E" stroke-width="0.75" stroke-linecap="round" stroke-linejoin="round"/>
<path d="M53.3477 216.578C54.1797 216.816 55.5508 217.078 57.1055 216.703C58.4609 216.383 59.3789 215.723 59.8945 215.332C64.4531 211.914 65.1289 209.258 68.2656 208.059C68.6719 207.898 71.6016 206.934 74.5586 208.313C76.6406 209.289 78.1289 211.508 78.3594 213.914C78.6914 217.363 76.2891 220.777 73.5078 221.398C73.1836 221.477 71.4297 221.863 69.9961 220.793C69.8164 220.656 68.707 219.801 68.5508 218.297C68.5274 218.07 68.3476 216.129 69.832 215.184C70.6641 214.656 71.7226 214.629 72.5625 215.016C73.7539 215.566 74.4766 216.938 74.2891 218.406C74.5781 218.086 74.9844 217.582 75.3086 216.891C75.4648 216.563 76.4844 214.305 75.5117 212.137C74.3242 209.496 71.0937 209.031 70.6562 208.973C67.7695 208.559 64.7695 210.074 62.8047 212.797" stroke="#0E0E0E" stroke-width="0.75" stroke-linecap="round" stroke-linejoin="round"/>
<path d="M78.2617 213.059C78.9453 212.953 79.7266 212.738 80.5117 212.316C83.7227 210.621 84.5547 207 84.7109 206.227" stroke="#0E0E0E" stroke-width="0.75" stroke-linecap="round" stroke-linejoin="round"/>
<path d="M54.0508 209.723C54.1641 209.469 54.7578 208.156 56.1445 207.719C57.6133 207.254 58.9063 208.109 59.4453 208.469C61.7188 209.977 61.9414 212.852 61.9649 213.316" stroke="#0E0E0E" stroke-width="0.75" stroke-linecap="round" stroke-linejoin="round"/>
<path d="M46.0781 202.809C46.7265 203.176 47.6328 203.73 48.6523 204.473C51.6016 206.617 53.9023 208.289 54.5039 211.02C55.0508 213.504 53.9336 215.594 53.7383 215.949C51.8984 219.262 48.0508 219.809 47.2578 219.898C43.6797 220.305 40.0508 218.414 37.7773 215.113" stroke="#0E0E0E" stroke-width="0.75" stroke-linecap="round" stroke-linejoin="round"/>
<path d="M38.2734 197.664C38.2344 205.379 40.125 211.441 43.1172 213.113C44.6562 213.969 46.2148 213.988 46.2148 213.988C46.7344 213.988 49.3516 213.953 51.0078 211.793C52.4844 209.863 52.1172 207.66 52.0508 207.285" stroke="#0E0E0E" stroke-width="0.75" stroke-linecap="round" stroke-linejoin="round"/>
<path d="M17.1446 201.563C16.7539 201.758 15.5118 202.336 14.168 201.988C11.7735 201.383 11.5039 198.496 11.4883 198.285C11.3477 196.449 12.4727 194.309 14.6172 193.547C16.2657 192.961 17.8594 193.426 18.7032 193.672C21.4493 194.477 22.9571 196.344 23.7071 197.289C26.1094 200.348 24.9375 201.832 27.3985 204.008C28.0664 204.602 29.4141 205.801 31.4844 206.113C33.6368 206.453 34.5235 205.524 36.4883 206.07C38.4141 206.609 39.4141 208.027 39.668 208.426C39.7891 208.606 41.1914 210.863 39.8711 213.137C39.6016 213.609 38.7969 214.981 36.9883 215.379C35.3477 215.731 33.5391 215.129 32.5508 213.953C31.7032 212.949 31.4532 211.531 32.1133 210.406C32.2579 210.156 32.7071 209.391 33.7266 209.086C34.5821 208.828 35.6719 208.942 36.4219 209.543C37.0782 210.074 37.1993 210.758 37.2227 210.961" stroke="#0E0E0E" stroke-width="0.75" stroke-linecap="round" stroke-linejoin="round"/>
<path d="M25.8516 201.914C26.168 205.336 27.9141 208.148 30.4727 209.062C31.0586 209.273 31.9727 209.484 33.1875 209.332" stroke="#0E0E0E" stroke-width="0.75" stroke-linecap="round" stroke-linejoin="round"/>
<path d="M23.25 196.605C23.7305 196.727 25.6485 197.16 27.3008 196.094C29.3008 194.789 30.1211 191.766 28.9141 188.887" stroke="#0E0E0E" stroke-width="0.75" stroke-linecap="round" stroke-linejoin="round"/>
<path d="M21.8906 186.301C22.1992 186.316 22.8359 186.309 23.5117 185.953C24.6367 185.363 24.9844 184.262 25.0508 184.035" stroke="#0E0E0E" stroke-width="0.75" stroke-linecap="round" stroke-linejoin="round"/>
<path d="M11.0391 146.715C12.2383 156.375 16.4531 178.453 34.5899 194.617C38.4219 198.031 42.3359 200.707 46.0781 202.816" stroke="#0E0E0E" stroke-width="0.75" stroke-linecap="round" stroke-linejoin="round"/>
<path d="M84.7109 206.137C84.7656 206.762 85.0195 208.941 86.8281 210.797C88.4492 212.461 90.3516 212.859 91.0039 212.969C90.9531 213.621 90.8984 214.273 90.8477 214.926C90.3828 215.137 89.7461 215.469 89.0625 215.984C87.5235 217.164 86.7891 218.543 86.1445 219.789C85.582 220.883 84.8555 222.578 84.4805 224.812C84.4727 223.738 84.3086 220.656 82.0742 217.867C80.8047 216.277 79.3516 215.387 78.4219 214.922C78.3672 214.266 78.3164 213.613 78.2617 212.961C78.7266 212.918 81.7187 212.574 83.5195 209.953C84.5781 208.41 84.7031 206.836 84.7188 206.129L84.7109 206.137Z" fill="black" stroke="black" stroke-width="0.5625" stroke-linecap="round" stroke-linejoin="round"/>
<path d="M53.3477 216.578C54.1797 216.816 55.5508 217.078 57.1055 216.703C58.4609 216.383 59.3789 215.723 59.8945 215.332C64.4531 211.914 65.1289 209.258 68.2656 208.059C68.6719 207.898 71.6016 206.934 74.5586 208.313C76.6406 209.289 78.1289 211.508 78.3594 213.914C78.6914 217.363 76.2891 220.777 73.5078 221.398C73.1836 221.477 71.4297 221.863 69.9961 220.793C69.8164 220.656 68.707 219.801 68.5508 218.297C68.5274 218.07 68.3476 216.129 69.832 215.184C70.6641 214.656 71.7226 214.629 72.5625 215.016C73.7539 215.566 74.4766 216.938 74.2891 218.406C74.5781 218.086 74.9844 217.582 75.3086 216.891C75.4648 216.563 76.4844 214.305 75.5117 212.137C74.3242 209.496 71.0937 209.031 70.6562 208.973C67.7695 208.559 64.7695 210.074 62.8047 212.797" stroke="#0E0E0E" stroke-width="0.75" stroke-linecap="round" stroke-linejoin="round"/>
<path d="M78.4219 215.016C79.043 215.316 79.9141 215.82 80.7891 216.621C82.6406 218.332 83.3086 220.313 83.8281 221.934C84.6289 224.438 84.7109 226.719 84.6016 228.422" stroke="#0E0E0E" stroke-width="0.75" stroke-linecap="round" stroke-linejoin="round"/>
<path d="M78.2617 213.059C78.9453 212.953 79.7266 212.738 80.5117 212.316C83.7539 210.602 84.5625 206.895 84.7109 206.137" stroke="#0E0E0E" stroke-width="0.75" stroke-linecap="round" stroke-linejoin="round"/>
<path d="M54.0508 209.723C54.1641 209.469 54.7578 208.156 56.1445 207.719C57.6133 207.254 58.9063 208.109 59.4453 208.469C61.7188 209.977 61.9414 212.852 61.9649 213.316" stroke="#0E0E0E" stroke-width="0.75" stroke-linecap="round" stroke-linejoin="round"/>
<path d="M46.0781 202.809C46.7265 203.176 47.6328 203.73 48.6523 204.473C51.6016 206.617 53.9023 208.289 54.5039 211.02C55.0508 213.504 53.9336 215.594 53.7383 215.949C51.8984 219.262 48.0508 219.809 47.2578 219.898C43.6797 220.305 40.0508 218.414 37.7773 215.113" stroke="#0E0E0E" stroke-width="0.75" stroke-linecap="round" stroke-linejoin="round"/>
<path d="M38.2734 197.664C38.2344 205.379 40.125 211.441 43.1172 213.113C44.6562 213.969 46.2148 213.988 46.2148 213.988C46.7344 213.988 49.3516 213.953 51.0078 211.793C52.4844 209.863 52.1172 207.66 52.0508 207.285" stroke="#0E0E0E" stroke-width="0.75" stroke-linecap="round" stroke-linejoin="round"/>
<path d="M17.1446 201.563C16.7539 201.758 15.5118 202.336 14.168 201.988C11.7735 201.383 11.5039 198.496 11.4883 198.285C11.3477 196.449 12.4727 194.309 14.6172 193.547C16.2657 192.961 17.8594 193.426 18.7032 193.672C21.4493 194.477 22.9571 196.344 23.7071 197.289C26.1094 200.348 24.9375 201.832 27.3985 204.008C28.0664 204.602 29.4141 205.801 31.4844 206.113C33.6368 206.453 34.5235 205.524 36.4883 206.07C38.4141 206.609 39.4141 208.027 39.668 208.426C39.7891 208.606 41.1914 210.863 39.8711 213.137C39.6016 213.609 38.7969 214.981 36.9883 215.379C35.3477 215.731 33.5391 215.129 32.5508 213.953C31.7032 212.949 31.4532 211.531 32.1133 210.406C32.2579 210.156 32.7071 209.391 33.7266 209.086C34.5821 208.828 35.6719 208.942 36.4219 209.543C37.0782 210.074 37.1993 210.758 37.2227 210.961" stroke="#0E0E0E" stroke-width="0.75" stroke-linecap="round" stroke-linejoin="round"/>
<path d="M25.8516 201.914C26.168 205.336 27.9141 208.148 30.4727 209.062C31.0586 209.273 31.9727 209.484 33.1875 209.332" stroke="#0E0E0E" stroke-width="0.75" stroke-linecap="round" stroke-linejoin="round"/>
<path d="M11.0859 189.977C11.1758 190.125 13.1719 193.32 16.1563 193.133C18.5703 192.984 19.9961 190.719 20.6172 189.727C24.0742 184.207 20.3789 176.648 19.8086 175.516" stroke="#0E0E0E" stroke-width="0.75" stroke-linecap="round" stroke-linejoin="round"/>
<path d="M23.25 196.605C23.7305 196.727 25.6485 197.16 27.3008 196.094C29.3008 194.789 30.1211 191.766 28.9141 188.887" stroke="#0E0E0E" stroke-width="0.75" stroke-linecap="round" stroke-linejoin="round"/>
<path d="M21.8906 186.301C22.1992 186.316 22.8359 186.309 23.5117 185.953C24.6367 185.363 24.9844 184.262 25.0508 184.035" stroke="#0E0E0E" stroke-width="0.75" stroke-linecap="round" stroke-linejoin="round"/>
<path d="M11.0391 146.715C12.2383 156.375 16.4531 178.453 34.5899 194.617C38.4219 198.031 42.3359 200.707 46.0781 202.816" stroke="#0E0E0E" stroke-width="0.75" stroke-linecap="round" stroke-linejoin="round"/>
<path d="M23.7383 37.3867C22.0117 35.6016 21.1484 33.5234 21.1484 31.1758V31.1016C21.1484 29.4883 21.6094 27.9297 22.5156 26.4141C23.4688 24.9063 24.7031 23.8203 26.2344 23.1367C27.2266 22.7109 28.2656 22.4922 29.3398 22.4922C30.6992 22.4922 32.0469 22.8086 33.375 23.4297C34.7031 24.0508 35.8867 24.9297 36.9219 26.0469C37.3281 26.4883 37.6953 26.9531 38.0156 27.4414C39.3164 29.4297 39.9609 31.582 39.9609 33.9062C39.9062 37.0781 38.7734 39.7891 36.5547 42.0508C35.4453 43.1484 34.1914 43.9883 32.7891 44.5664C31.3867 45.1406 29.918 45.4258 28.3789 45.4258C27.4063 45.4258 26.4531 45.3164 25.5234 45.082C25.0937 44.9688 24.668 44.8359 24.2461 44.6758H24.2031C24.1562 44.6758 24.1211 44.707 24.0898 44.7656L24.1211 45.1953H23.0547V39.8906H24.1211L24.0898 40.3125C24.0898 40.8242 24.3164 41.25 24.7656 41.5938C24.8008 41.625 24.8398 41.6484 24.8789 41.6562V41.6719C25.1992 41.8633 25.5391 42.0586 25.8828 42.2344C26.6719 42.5547 27.4648 42.8086 28.2734 42.9961C29.0859 43.1836 29.8867 43.2812 30.6836 43.2812C32.7461 43.2812 34.4609 42.6133 35.8281 41.2891C37.1562 39.8867 37.8242 38.1836 37.8242 36.1719C37.8242 35.8789 37.8086 35.5781 37.7773 35.2812C36.9961 36.7109 35.9102 37.8516 34.5312 38.6914C33.1484 39.5313 31.6367 39.9531 29.9766 39.9531C28.8086 39.9531 27.6836 39.7344 26.6016 39.293C25.5234 38.8516 24.5703 38.2109 23.7305 37.3789L23.7383 37.3867ZM34.1016 37.5234C34.8906 37.207 35.5117 36.7031 35.9844 36.0156C36.457 35.3242 36.7031 34.5469 36.7422 33.6758V33.5156C36.7422 32.6094 36.5547 31.7344 36.1797 30.8906C35.8047 30.0508 35.3008 29.2734 34.6797 28.5586C34.0586 27.8477 33.3672 27.2188 32.6016 26.6719C31.8359 26.1211 31.0586 25.6719 30.2617 25.3281C29.7734 25.0938 29.2578 24.8906 28.7266 24.7188C28.1914 24.5469 27.6523 24.457 27.1055 24.457C26.8594 24.457 26.6016 24.4883 26.3555 24.5391C25.2969 24.7891 24.5156 25.3437 24.0078 26.1992C23.4961 27.0508 23.25 27.9766 23.25 28.9648C23.25 29.2812 23.2734 29.5859 23.3242 29.8867C23.6641 31.7383 24.5859 33.4336 26.1016 34.9883C27.1055 35.9688 28.2148 36.7187 29.4297 37.2461C30.4336 37.6406 31.3789 37.8359 32.2734 37.8359C32.9336 37.8359 33.5469 37.7266 34.1094 37.5078L34.1016 37.5234Z" fill="black"/>
<path d="M145.574 201.531C147.301 203.316 148.164 205.395 148.164 207.742V207.816C148.164 209.43 147.703 210.988 146.797 212.504C145.844 214.012 144.609 215.102 143.078 215.781C142.086 216.211 141.047 216.426 139.973 216.426C138.613 216.426 137.266 216.113 135.938 215.488C134.609 214.859 133.426 213.988 132.391 212.871C131.984 212.43 131.617 211.965 131.297 211.477C129.996 209.488 129.352 207.336 129.352 205.012C129.406 201.84 130.539 199.133 132.758 196.867C133.867 195.773 135.121 194.934 136.523 194.355C137.926 193.777 139.395 193.492 140.934 193.492C141.906 193.492 142.859 193.605 143.789 193.836C144.219 193.949 144.645 194.086 145.059 194.242H145.102C145.148 194.242 145.184 194.211 145.215 194.152L145.184 193.727H146.25V199.027H145.184L145.215 198.609C145.215 198.098 144.988 197.672 144.539 197.324C144.496 197.297 144.465 197.273 144.426 197.266V197.25C144.105 197.055 143.766 196.859 143.422 196.688C142.637 196.363 141.84 196.109 141.031 195.922C140.219 195.734 139.418 195.637 138.621 195.637C136.559 195.637 134.852 196.305 133.477 197.633C132.148 199.035 131.484 200.738 131.484 202.746C131.484 203.039 131.496 203.34 131.527 203.641C132.316 202.207 133.395 201.066 134.773 200.227C136.156 199.387 137.672 198.969 139.328 198.969C140.496 198.969 141.621 199.184 142.703 199.629C143.781 200.07 144.734 200.707 145.574 201.539V201.531ZM135.203 201.398C134.414 201.711 133.793 202.215 133.32 202.906C132.848 203.594 132.602 204.375 132.57 205.246V205.402C132.57 206.309 132.758 207.187 133.133 208.027C133.508 208.867 134.012 209.648 134.633 210.359C135.254 211.074 135.945 211.703 136.711 212.25C137.477 212.797 138.254 213.246 139.051 213.594C139.547 213.824 140.055 214.027 140.586 214.199C141.121 214.371 141.66 214.461 142.207 214.461C142.453 214.461 142.711 214.434 142.957 214.379C144.016 214.133 144.797 213.578 145.305 212.723C145.816 211.867 146.062 210.945 146.062 209.953C146.062 209.641 146.039 209.332 145.988 209.031C145.648 207.18 144.727 205.484 143.211 203.934C142.207 202.949 141.098 202.199 139.883 201.676C138.879 201.277 137.934 201.082 137.039 201.082C136.379 201.082 135.773 201.195 135.203 201.414V201.398Z" fill="black"/>
<path d="M115.785 199.719C115.109 200.773 114.277 201.93 113.258 203.113C112.574 203.91 111.891 204.613 111.238 205.238C112.074 206.063 112.957 207.031 113.844 208.148C114.594 209.086 115.23 209.992 115.785 210.848C116.34 210.023 116.977 209.137 117.719 208.238C118.648 207.098 119.578 206.121 120.449 205.281C119.676 204.594 118.836 203.754 117.988 202.754C117.082 201.684 116.363 200.648 115.785 199.719Z" fill="#EB1C24" stroke="black" stroke-width="0.5625" stroke-linecap="round" stroke-linejoin="round"/>
<path d="M53.3985 28.0273C52.7266 29.0859 51.8906 30.2383 50.8711 31.4258C50.1914 32.2187 49.5078 32.9258 48.8555 33.5469C49.6875 34.3711 50.5742 35.3399 51.457 36.457C52.207 37.3945 52.8438 38.3008 53.3985 39.1562C53.9531 38.332 54.5938 37.4492 55.3359 36.5469C56.2656 35.4062 57.1953 34.4336 58.0664 33.5938C57.293 32.9023 56.4531 32.0625 55.6055 31.0664C54.6992 29.9922 53.9766 28.957 53.3985 28.0273Z" fill="#EB1C24" stroke="black" stroke-width="0.5625" stroke-linecap="round" stroke-linejoin="round"/>
<path d="M63.7031 46.3711C62.2187 48.6914 60.3906 51.2266 58.1562 53.8281C56.6562 55.5742 55.1641 57.1211 53.7383 58.4844C55.5664 60.3008 57.5039 62.4141 59.4531 64.8594C61.0859 66.9141 62.4961 68.918 63.7109 70.7852C64.9258 68.9688 66.3281 67.0352 67.957 65.0547C69.9961 62.5586 72.0312 60.4141 73.9414 58.5742C72.2539 57.0586 70.4102 55.2227 68.5508 53.0234C66.5625 50.6758 64.9727 48.4063 63.7109 46.3633L63.7031 46.3711Z" fill="#EB1C24" stroke="black" stroke-width="0.5625" stroke-linecap="round" stroke-linejoin="round"/>
<path d="M63.7031 85.875C62.2187 88.1914 60.3906 90.7266 58.1562 93.3281C56.6562 95.0781 55.1641 96.6211 53.7383 97.9883C55.5664 99.8008 57.5039 101.918 59.4531 104.363C61.0859 106.418 62.4961 108.422 63.7109 110.289C64.9258 108.473 66.3281 106.539 67.957 104.559C69.9961 102.059 72.0312 99.9141 73.9414 98.0781C72.2539 96.5625 70.4102 94.7266 68.5508 92.5274C66.5625 90.1797 64.9727 87.9062 63.7109 85.8672L63.7031 85.875Z" fill="#EB1C24" stroke="black" stroke-width="0.5625" stroke-linecap="round" stroke-linejoin="round"/>
<path d="M63.7031 125.574C62.2187 127.891 60.3906 130.426 58.1562 133.027C56.6562 134.773 55.1641 136.32 53.7383 137.684C55.5664 139.5 57.5039 141.613 59.4531 144.059C61.0859 146.113 62.4961 148.117 63.7109 149.984C64.9258 148.172 66.3281 146.234 67.957 144.254C69.9961 141.758 72.0312 139.613 73.9414 137.773C72.2539 136.262 70.4102 134.422 68.5508 132.227C66.5625 129.879 64.9727 127.605 63.7109 125.566L63.7031 125.574Z" fill="#EB1C24" stroke="black" stroke-width="0.5625" stroke-linecap="round" stroke-linejoin="round"/>
<path d="M63.7031 165.164C62.2187 167.484 60.3906 170.016 58.1562 172.621C56.6562 174.367 55.1641 175.914 53.7383 177.277C55.5664 179.094 57.5039 181.207 59.4531 183.652C61.0859 185.707 62.4961 187.711 63.7109 189.578C64.9258 187.762 66.3281 185.828 67.957 183.848C69.9961 181.352 72.0312 179.203 73.9414 177.367C72.2539 175.852 70.4102 174.016 68.5508 171.816C66.5625 169.469 64.9727 167.199 63.7109 165.156L63.7031 165.164Z" fill="#EB1C24" stroke="black" stroke-width="0.5625" stroke-linecap="round" stroke-linejoin="round"/>
<path d="M105.555 165.164C104.07 167.484 102.238 170.016 100.004 172.621C98.5039 174.367 97.0117 175.914 95.5859 177.277C97.418 179.094 99.3516 181.207 101.301 183.652C102.937 185.707 104.348 187.711 105.563 189.578C106.777 187.762 108.18 185.828 109.809 183.848C111.848 181.352 113.879 179.203 115.793 177.367C114.105 175.852 112.262 174.016 110.398 171.816C108.414 169.469 106.824 167.199 105.563 165.156L105.555 165.164Z" fill="#EB1C24" stroke="black" stroke-width="0.5625" stroke-linecap="round" stroke-linejoin="round"/>
<path d="M105.555 125.574C104.07 127.891 102.238 130.426 100.004 133.027C98.5039 134.773 97.0117 136.32 95.5859 137.684C97.418 139.5 99.3516 141.613 101.301 144.059C102.937 146.113 104.348 148.117 105.563 149.984C106.777 148.172 108.18 146.234 109.809 144.254C111.848 141.758 113.879 139.613 115.793 137.773C114.105 136.262 112.262 134.422 110.398 132.227C108.414 129.879 106.824 127.605 105.563 125.566L105.555 125.574Z" fill="#EB1C24" stroke="black" stroke-width="0.5625" stroke-linecap="round" stroke-linejoin="round"/>
<path d="M105.555 85.875C104.07 88.1914 102.238 90.7266 100.004 93.3281C98.5039 95.0781 97.0117 96.6211 95.5859 97.9883C97.418 99.8008 99.3516 101.918 101.301 104.363C102.937 106.418 104.348 108.422 105.563 110.289C106.777 108.473 108.18 106.539 109.809 104.559C111.848 102.059 113.879 99.9141 115.793 98.0781C114.105 96.5625 112.262 94.7266 110.398 92.5274C108.414 90.1797 106.824 87.9062 105.563 85.8672L105.555 85.875Z" fill="#EB1C24" stroke="black" stroke-width="0.5625" stroke-linecap="round" stroke-linejoin="round"/>
<path d="M105.555 46.3711C104.07 48.6914 102.238 51.2266 100.004 53.8281C98.5039 55.5742 97.0117 57.1211 95.5859 58.4844C97.418 60.3008 99.3516 62.4141 101.301 64.8594C102.937 66.9141 104.348 68.918 105.563 70.7852C106.777 68.9688 108.18 67.0352 109.809 65.0547C111.848 62.5586 113.879 60.4141 115.793 58.5742C114.105 57.0586 112.262 55.2227 110.398 53.0234C108.414 50.6758 106.824 48.4063 105.563 46.3633L105.555 46.3711Z" fill="#EB1C24" stroke="black" stroke-width="0.5625" stroke-linecap="round" stroke-linejoin="round"/>
<path d="M84.6211 105.09C83.1367 107.406 81.3086 109.941 79.0742 112.547C77.5742 114.293 76.0781 115.836 74.6562 117.203C76.4844 119.016 78.4219 121.133 80.3711 123.578C82.0039 125.633 83.4141 127.637 84.6289 129.504C85.8438 127.687 87.2461 125.754 88.875 123.773C90.9141 121.273 92.9492 119.129 94.8594 117.293C93.1719 115.777 91.3281 113.941 89.4688 111.742C87.4805 109.395 85.8906 107.121 84.6289 105.082L84.6211 105.09Z" fill="#EB1C24" stroke="black" stroke-width="0.5625" stroke-linecap="round" stroke-linejoin="round"/>
<defs>
<linearGradient id="paint0_linear_2321_5100" x1="158.115" y1="49.455" x2="11.475" y2="49.455" gradientUnits="userSpaceOnUse">
<stop stop-color="#8F8587"/>
<stop offset="0.00390625" stop-color="#908688"/>
<stop offset="0.0078125" stop-color="#918789"/>
<stop offset="0.0117188" stop-color="#92888A"/>
<stop offset="0.015625" stop-color="#92898B"/>
<stop offset="0.0195312" stop-color="#938A8B"/>
<stop offset="0.0234375" stop-color="#948B8C"/>
<stop offset="0.0273438" stop-color="#958C8D"/>
<stop offset="0.03125" stop-color="#968D8E"/>
<stop offset="0.0351562" stop-color="#978D8F"/>
<stop offset="0.0390625" stop-color="#988E90"/>
<stop offset="0.0429687" stop-color="#988F91"/>
<stop offset="0.046875" stop-color="#999092"/>
<stop offset="0.0507812" stop-color="#9A9193"/>
<stop offset="0.0546875" stop-color="#9B9294"/>
<stop offset="0.0585937" stop-color="#9C9395"/>
<stop offset="0.0625" stop-color="#9D9496"/>
<stop offset="0.0664062" stop-color="#9D9596"/>
<stop offset="0.0703125" stop-color="#9E9697"/>
<stop offset="0.0742187" stop-color="#9F9798"/>
<stop offset="0.078125" stop-color="#A09899"/>
<stop offset="0.0820312" stop-color="#A1999A"/>
<stop offset="0.0859375" stop-color="#A2999B"/>
<stop offset="0.0898437" stop-color="#A39A9C"/>
<stop offset="0.09375" stop-color="#A39B9D"/>
<stop offset="0.0976562" stop-color="#A49C9E"/>
<stop offset="0.101562" stop-color="#A59D9F"/>
<stop offset="0.105469" stop-color="#A69EA0"/>
<stop offset="0.109375" stop-color="#A79FA0"/>
<stop offset="0.113281" stop-color="#A8A0A1"/>
<stop offset="0.117187" stop-color="#A8A1A2"/>
<stop offset="0.121094" stop-color="#A9A2A3"/>
<stop offset="0.125" stop-color="#AAA3A4"/>
<stop offset="0.128906" stop-color="#ABA4A5"/>
<stop offset="0.132812" stop-color="#ACA5A6"/>
<stop offset="0.136719" stop-color="#ADA5A7"/>
<stop offset="0.140625" stop-color="#AEA6A8"/>
<stop offset="0.144531" stop-color="#AEA7A9"/>
<stop offset="0.148438" stop-color="#AFA8AA"/>
<stop offset="0.152344" stop-color="#B0A9AB"/>
<stop offset="0.15625" stop-color="#B1AAAB"/>
<stop offset="0.160156" stop-color="#B2ABAC"/>
<stop offset="0.164062" stop-color="#B3ACAD"/>
<stop offset="0.167969" stop-color="#B3ADAE"/>
<stop offset="0.171875" stop-color="#B4AEAF"/>
<stop offset="0.175781" stop-color="#B5AFB0"/>
<stop offset="0.179688" stop-color="#B6B0B1"/>
<stop offset="0.183594" stop-color="#B7B1B2"/>
<stop offset="0.1875" stop-color="#B8B2B3"/>
<stop offset="0.191406" stop-color="#B9B2B4"/>
<stop offset="0.195312" stop-color="#B9B3B5"/>
<stop offset="0.199219" stop-color="#BAB4B5"/>
<stop offset="0.203125" stop-color="#BBB5B6"/>
<stop offset="0.207031" stop-color="#BCB6B7"/>
<stop offset="0.210938" stop-color="#BDB7B8"/>
<stop offset="0.214844" stop-color="#BEB8B9"/>
<stop offset="0.21875" stop-color="#BEB9BA"/>
<stop offset="0.222656" stop-color="#BFBABB"/>
<stop offset="0.226562" stop-color="#C0BBBC"/>
<stop offset="0.230469" stop-color="#C1BCBD"/>
<stop offset="0.234375" stop-color="#C2BDBE"/>
<stop offset="0.238281" stop-color="#C3BEBF"/>
<stop offset="0.242188" stop-color="#C3BEBF"/>
<stop offset="0.246094" stop-color="#C4BFC0"/>
<stop offset="0.25" stop-color="#C5C0C1"/>
<stop offset="0.253906" stop-color="#C6C1C2"/>
<stop offset="0.257812" stop-color="#C6C2C3"/>
<stop offset="0.261719" stop-color="#C7C3C3"/>
<stop offset="0.265625" stop-color="#C8C3C4"/>
<stop offset="0.269531" stop-color="#C9C4C5"/>
<stop offset="0.273438" stop-color="#C9C5C6"/>
<stop offset="0.277344" stop-color="#CAC6C7"/>
<stop offset="0.28125" stop-color="#CBC7C7"/>
<stop offset="0.285156" stop-color="#CCC7C8"/>
<stop offset="0.289062" stop-color="#CCC8C9"/>
<stop offset="0.292969" stop-color="#CDC9CA"/>
<stop offset="0.296875" stop-color="#CECACB"/>
<stop offset="0.300781" stop-color="#CFCBCB"/>
<stop offset="0.304688" stop-color="#CFCCCC"/>
<stop offset="0.308594" stop-color="#D0CCCD"/>
<stop offset="0.3125" stop-color="#D1CDCE"/>
<stop offset="0.316406" stop-color="#D2CECF"/>
<stop offset="0.320312" stop-color="#D2CFCF"/>
<stop offset="0.324219" stop-color="#D3D0D0"/>
<stop offset="0.328125" stop-color="#D4D0D1"/>
<stop offset="0.332031" stop-color="#D5D1D2"/>
<stop offset="0.335938" stop-color="#D5D2D3"/>
<stop offset="0.339844" stop-color="#D6D3D3"/>
<stop offset="0.34375" stop-color="#D7D4D4"/>
<stop offset="0.347656" stop-color="#D8D5D5"/>
<stop offset="0.351562" stop-color="#D8D5D6"/>
<stop offset="0.355469" stop-color="#D9D6D7"/>
<stop offset="0.359375" stop-color="#DAD7D7"/>
<stop offset="0.363281" stop-color="#DBD8D8"/>
<stop offset="0.367188" stop-color="#DBD9D9"/>
<stop offset="0.371094" stop-color="#DCDADA"/>
<stop offset="0.375" stop-color="#DDDADB"/>
<stop offset="0.378906" stop-color="#DEDBDB"/>
<stop offset="0.382812" stop-color="#DEDCDC"/>
<stop offset="0.386719" stop-color="#DFDDDD"/>
<stop offset="0.390625" stop-color="#E0DEDE"/>
<stop offset="0.394531" stop-color="#E1DEDF"/>
<stop offset="0.398438" stop-color="#E1DFE0"/>
<stop offset="0.402344" stop-color="#E2E0E0"/>
<stop offset="0.40625" stop-color="#E3E1E1"/>
<stop offset="0.410156" stop-color="#E4E2E2"/>
<stop offset="0.414062" stop-color="#E4E3E3"/>
<stop offset="0.417969" stop-color="#E5E3E4"/>
<stop offset="0.421875" stop-color="#E6E4E4"/>
<stop offset="0.425781" stop-color="#E6E5E5"/>
<stop offset="0.429688" stop-color="#E7E6E6"/>
<stop offset="0.433594" stop-color="#E8E7E7"/>
<stop offset="0.4375" stop-color="#E9E7E8"/>
<stop offset="0.441406" stop-color="#E9E8E8"/>
<stop offset="0.445312" stop-color="#EAE9E9"/>
<stop offset="0.449219" stop-color="#EBEAEA"/>
<stop offset="0.453125" stop-color="#ECEBEB"/>
<stop offset="0.457031" stop-color="#ECEBEB"/>
<stop offset="0.460938" stop-color="#EDECEC"/>
<stop offset="0.464844" stop-color="#EDECEC"/>
<stop offset="0.46875" stop-color="#EEEDED"/>
<stop offset="0.472656" stop-color="#EEEEEE"/>
<stop offset="0.476562" stop-color="#EFEEEE"/>
<stop offset="0.480469" stop-color="#EFEFEF"/>
<stop offset="0.484375" stop-color="#F0EFEF"/>
<stop offset="0.488281" stop-color="#F1F0F0"/>
<stop offset="0.492188" stop-color="#F1F1F1"/>
<stop offset="0.496094" stop-color="#F2F1F1"/>
<stop offset="0.5" stop-color="#F2F2F2"/>
<stop offset="0.503906" stop-color="#F3F2F2"/>
<stop offset="0.507812" stop-color="#F3F3F3"/>
<stop offset="0.511719" stop-color="#F4F4F4"/>
<stop offset="0.515625" stop-color="#F5F4F4"/>
<stop offset="0.519531" stop-color="#F5F5F5"/>
<stop offset="0.523438" stop-color="#F6F5F5"/>
<stop offset="0.527344" stop-color="#F6F6F6"/>
<stop offset="0.53125" stop-color="#F7F7F7"/>
<stop offset="0.535156" stop-color="#F7F7F7"/>
<stop offset="0.539062" stop-color="#F8F8F8"/>
<stop offset="0.542969" stop-color="#F8F8F8"/>
<stop offset="0.546875" stop-color="#F9F9F9"/>
<stop offset="0.550781" stop-color="#FAFAFA"/>
<stop offset="0.554688" stop-color="#FAFAFA"/>
<stop offset="0.5625" stop-color="#FBFBFB"/>
<stop offset="0.625" stop-color="#FBFBFB"/>
<stop offset="0.75" stop-color="#FBFBFB"/>
<stop offset="1" stop-color="#FBFBFB"/>
</linearGradient>
<linearGradient id="paint1_linear_2321_5100" x1="11.325" y1="188.445" x2="158.04" y2="188.445" gradientUnits="userSpaceOnUse">
<stop stop-color="#8F8587"/>
<stop offset="0.00390625" stop-color="#908688"/>
<stop offset="0.0078125" stop-color="#918789"/>
<stop offset="0.0117188" stop-color="#91888A"/>
<stop offset="0.015625" stop-color="#92898A"/>
<stop offset="0.0195312" stop-color="#938A8B"/>
<stop offset="0.0234375" stop-color="#948A8C"/>
<stop offset="0.0273438" stop-color="#958B8D"/>
<stop offset="0.03125" stop-color="#968C8E"/>
<stop offset="0.0351563" stop-color="#968D8F"/>
<stop offset="0.0390625" stop-color="#978E90"/>
<stop offset="0.0429688" stop-color="#988F91"/>
<stop offset="0.046875" stop-color="#999091"/>
<stop offset="0.0507813" stop-color="#9A9192"/>
<stop offset="0.0546875" stop-color="#9A9293"/>
<stop offset="0.0585938" stop-color="#9B9294"/>
<stop offset="0.0625" stop-color="#9C9395"/>
<stop offset="0.0664062" stop-color="#9D9496"/>
<stop offset="0.0703125" stop-color="#9E9597"/>
<stop offset="0.0742188" stop-color="#9E9698"/>
<stop offset="0.078125" stop-color="#9F9798"/>
<stop offset="0.0820312" stop-color="#A09899"/>
<stop offset="0.0859375" stop-color="#A1999A"/>
<stop offset="0.0898438" stop-color="#A29A9B"/>
<stop offset="0.09375" stop-color="#A39A9C"/>
<stop offset="0.0976562" stop-color="#A39B9D"/>
<stop offset="0.101562" stop-color="#A49C9E"/>
<stop offset="0.105469" stop-color="#A59D9F"/>
<stop offset="0.109375" stop-color="#A69E9F"/>
<stop offset="0.113281" stop-color="#A79FA0"/>
<stop offset="0.117188" stop-color="#A7A0A1"/>
<stop offset="0.121094" stop-color="#A8A1A2"/>
<stop offset="0.125" stop-color="#A9A2A3"/>
<stop offset="0.128906" stop-color="#AAA2A4"/>
<stop offset="0.132812" stop-color="#ABA3A5"/>
<stop offset="0.136719" stop-color="#ABA4A6"/>
<stop offset="0.140625" stop-color="#ACA5A6"/>
<stop offset="0.144531" stop-color="#ADA6A7"/>
<stop offset="0.148437" stop-color="#AEA7A8"/>
<stop offset="0.152344" stop-color="#AFA8A9"/>
<stop offset="0.15625" stop-color="#B0A9AA"/>
<stop offset="0.160156" stop-color="#B0AAAB"/>
<stop offset="0.164062" stop-color="#B1AAAC"/>
<stop offset="0.167969" stop-color="#B2ABAD"/>
<stop offset="0.171875" stop-color="#B3ACAD"/>
<stop offset="0.175781" stop-color="#B4ADAE"/>
<stop offset="0.179688" stop-color="#B4AEAF"/>
<stop offset="0.183594" stop-color="#B5AFB0"/>
<stop offset="0.1875" stop-color="#B6B0B1"/>
<stop offset="0.191406" stop-color="#B7B1B2"/>
<stop offset="0.195313" stop-color="#B8B2B3"/>
<stop offset="0.199219" stop-color="#B9B2B4"/>
<stop offset="0.203125" stop-color="#B9B3B4"/>
<stop offset="0.207031" stop-color="#BAB4B5"/>
<stop offset="0.210938" stop-color="#BBB5B6"/>
<stop offset="0.214844" stop-color="#BCB6B7"/>
<stop offset="0.21875" stop-color="#BDB7B8"/>
<stop offset="0.222656" stop-color="#BDB8B9"/>
<stop offset="0.226562" stop-color="#BEB9BA"/>
<stop offset="0.230469" stop-color="#BFBABB"/>
<stop offset="0.234375" stop-color="#C0BABB"/>
<stop offset="0.238281" stop-color="#C1BBBC"/>
<stop offset="0.242188" stop-color="#C1BCBD"/>
<stop offset="0.246094" stop-color="#C2BDBE"/>
<stop offset="0.25" stop-color="#C3BEBF"/>
<stop offset="0.253906" stop-color="#C4BFC0"/>
<stop offset="0.257812" stop-color="#C5C0C1"/>
<stop offset="0.261719" stop-color="#C5C0C1"/>
<stop offset="0.265625" stop-color="#C6C1C2"/>
<stop offset="0.269531" stop-color="#C7C2C3"/>
<stop offset="0.273438" stop-color="#C8C3C4"/>
<stop offset="0.277344" stop-color="#C8C4C5"/>
<stop offset="0.28125" stop-color="#C9C5C5"/>
<stop offset="0.285156" stop-color="#CAC5C6"/>
<stop offset="0.289062" stop-color="#CBC6C7"/>
<stop offset="0.292969" stop-color="#CBC7C8"/>
<stop offset="0.296875" stop-color="#CCC8C9"/>
<stop offset="0.300781" stop-color="#CDC9C9"/>
<stop offset="0.304688" stop-color="#CDC9CA"/>
<stop offset="0.308594" stop-color="#CECACB"/>
<stop offset="0.3125" stop-color="#CFCBCC"/>
<stop offset="0.316406" stop-color="#D0CCCD"/>
<stop offset="0.320313" stop-color="#D0CDCD"/>
<stop offset="0.324219" stop-color="#D1CECE"/>
<stop offset="0.328125" stop-color="#D2CECF"/>
<stop offset="0.332031" stop-color="#D3CFD0"/>
<stop offset="0.335938" stop-color="#D3D0D1"/>
<stop offset="0.339844" stop-color="#D4D1D1"/>
<stop offset="0.34375" stop-color="#D5D2D2"/>
<stop offset="0.347656" stop-color="#D6D2D3"/>
<stop offset="0.351563" stop-color="#D6D3D4"/>
<stop offset="0.355469" stop-color="#D7D4D5"/>
<stop offset="0.359375" stop-color="#D8D5D5"/>
<stop offset="0.363281" stop-color="#D9D6D6"/>
<stop offset="0.367188" stop-color="#D9D7D7"/>
<stop offset="0.371094" stop-color="#DAD7D8"/>
<stop offset="0.375" stop-color="#DBD8D9"/>
<stop offset="0.378906" stop-color="#DCD9D9"/>
<stop offset="0.382813" stop-color="#DCDADA"/>
<stop offset="0.386719" stop-color="#DDDBDB"/>
<stop offset="0.390625" stop-color="#DEDCDC"/>
<stop offset="0.394531" stop-color="#DFDCDD"/>
<stop offset="0.398438" stop-color="#DFDDDD"/>
<stop offset="0.402344" stop-color="#E0DEDE"/>
<stop offset="0.40625" stop-color="#E1DFDF"/>
<stop offset="0.410156" stop-color="#E2E0E0"/>
<stop offset="0.414063" stop-color="#E2E0E1"/>
<stop offset="0.417969" stop-color="#E3E1E1"/>
<stop offset="0.421875" stop-color="#E4E2E2"/>
<stop offset="0.425781" stop-color="#E5E3E3"/>
<stop offset="0.429688" stop-color="#E5E4E4"/>
<stop offset="0.433594" stop-color="#E6E5E5"/>
<stop offset="0.4375" stop-color="#E7E5E5"/>
<stop offset="0.441406" stop-color="#E8E6E6"/>
<stop offset="0.445313" stop-color="#E8E7E7"/>
<stop offset="0.449219" stop-color="#E9E8E8"/>
<stop offset="0.453125" stop-color="#EAE9E9"/>
<stop offset="0.457031" stop-color="#EBE9E9"/>
<stop offset="0.460938" stop-color="#EBEAEA"/>
<stop offset="0.464844" stop-color="#ECEBEB"/>
<stop offset="0.46875" stop-color="#ECEBEB"/>
<stop offset="0.472656" stop-color="#EDECEC"/>
<stop offset="0.476563" stop-color="#EDEDED"/>
<stop offset="0.480469" stop-color="#EEEDED"/>
<stop offset="0.484375" stop-color="#EFEEEE"/>
<stop offset="0.488281" stop-color="#EFEEEE"/>
<stop offset="0.492188" stop-color="#F0EFEF"/>
<stop offset="0.496094" stop-color="#F0F0F0"/>
<stop offset="0.5" stop-color="#F1F0F0"/>
<stop offset="0.503906" stop-color="#F1F1F1"/>
<stop offset="0.507812" stop-color="#F2F1F1"/>
<stop offset="0.511719" stop-color="#F3F2F2"/>
<stop offset="0.515625" stop-color="#F3F3F3"/>
<stop offset="0.519531" stop-color="#F4F3F3"/>
<stop offset="0.523438" stop-color="#F4F4F4"/>
<stop offset="0.527344" stop-color="#F5F4F4"/>
<stop offset="0.53125" stop-color="#F5F5F5"/>
<stop offset="0.535156" stop-color="#F6F6F6"/>
<stop offset="0.539062" stop-color="#F6F6F6"/>
<stop offset="0.542969" stop-color="#F7F7F7"/>
<stop offset="0.546875" stop-color="#F8F7F7"/>
<stop offset="0.550781" stop-color="#F8F8F8"/>
<stop offset="0.554687" stop-color="#F9F9F9"/>
<stop offset="0.558594" stop-color="#F9F9F9"/>
<stop offset="0.5625" stop-color="#FAFAFA"/>
<stop offset="0.566406" stop-color="#FAFAFA"/>
<stop offset="0.570312" stop-color="#FBFBFB"/>
<stop offset="0.578125" stop-color="#FBFBFB"/>
<stop offset="0.59375" stop-color="#FBFBFB"/>
<stop offset="0.625" stop-color="#FBFBFB"/>
<stop offset="0.75" stop-color="#FBFBFB"/>
<stop offset="1" stop-color="#FBFBFB"/>
</linearGradient>
</defs>
</svg>
