<svg width="381" height="73" viewBox="0 0 381 73" fill="none" xmlns="http://www.w3.org/2000/svg">
<g clip-path="url(#clip0_555_16801)">
<g clip-path="url(#clip1_555_16801)">
<path d="M380.5 -39.0351L380.5 193.409C380.5 193.74 380.214 194 379.849 194L72.65 194L1.37081 194C1.00648 194 0.720215 193.74 0.720215 193.409L0.720166 -39.0351C0.720166 -39.3661 1.00643 -39.6262 1.37076 -39.6262L379.849 -39.6262C380.213 -39.6262 380.5 -39.3661 380.5 -39.0351ZM379.199 192.818L379.199 -38.444L2.02136 -38.444L2.02141 192.818L261.883 192.818L379.199 192.818Z" fill="#DFD4CF" fill-opacity="0.05"/>
<path d="M189.654 165.193C243.068 165.193 286.515 125.721 286.515 77.1944C286.514 28.6676 243.068 -10.804 189.653 -10.804C136.239 -10.804 92.7927 28.6676 92.7928 77.1944C92.7929 125.721 136.24 165.193 189.654 165.193ZM189.654 -8.43971C241.623 -8.43971 283.912 29.9797 283.912 77.1944C283.912 124.409 241.624 162.829 189.654 162.829C137.684 162.829 95.3953 124.409 95.3952 77.1944C95.3951 29.9797 137.684 -8.43971 189.654 -8.43971Z" fill="#DFD4CF" fill-opacity="0.05"/>
<path d="M99.5334 77.2052C99.5334 83.045 103.944 89.7596 109.839 89.9842C111.921 90.067 114.081 89.2867 116.098 87.7381C117.256 87.3008 120.066 86.5087 123.137 87.5726C124.894 88.1873 126.364 89.263 127.483 90.7762C128.407 94.429 129.721 97.9518 131.374 101.321L109.396 107.704C108.967 107.835 108.616 108.095 108.408 108.461C108.199 108.828 108.16 109.241 108.303 109.62C108.447 110.021 108.772 110.364 109.201 110.542C109.631 110.719 110.125 110.731 110.555 110.565L131.92 102.444C133.312 105.116 134.926 107.681 136.734 110.128L116.124 120.874C115.733 121.075 115.447 121.406 115.33 121.796C115.213 122.186 115.265 122.599 115.499 122.954C115.733 123.321 116.124 123.592 116.592 123.687C117.06 123.782 117.542 123.687 117.919 123.451L137.424 111.121C137.424 111.121 137.437 111.097 137.45 111.085C139.324 113.497 141.393 115.778 143.644 117.895C143.566 117.918 143.488 117.954 143.423 118.013L125.752 132.447C125.414 132.718 125.219 133.097 125.193 133.511C125.167 133.912 125.323 134.314 125.623 134.61C125.935 134.929 126.39 135.118 126.859 135.118C127.327 135.118 127.782 134.941 128.108 134.634L144.334 118.864C144.334 118.864 144.438 118.746 144.464 118.675C146.754 120.755 149.213 122.682 151.815 124.444C151.815 124.444 151.789 124.455 151.776 124.467L137.828 141.951C137.281 142.637 137.45 143.594 138.205 144.091C138.582 144.339 139.064 144.434 139.532 144.351C140.001 144.268 140.404 144.008 140.638 143.642L152.843 125.141C155.485 126.843 158.282 128.356 161.197 129.692L151.855 148.938C151.672 149.316 151.659 149.73 151.828 150.108C151.998 150.486 152.31 150.793 152.713 150.959C153.143 151.136 153.637 151.136 154.066 150.959C154.496 150.782 154.834 150.451 154.99 150.049L162.42 130.248C166.428 131.974 170.67 133.333 175.068 134.267C176.512 135.248 177.566 136.49 178.178 137.944C179.414 140.887 178.399 143.5 177.996 144.339C176.291 146.183 175.419 148.145 175.523 150.037C175.783 155.404 183.174 159.399 189.602 159.399C196.03 159.399 203.408 155.392 203.668 150.037C203.746 148.145 202.9 146.171 201.196 144.339C200.714 143.299 199.843 140.745 201.014 137.944C201.625 136.478 202.679 135.248 204.123 134.267C208.469 133.345 212.646 132.009 216.602 130.319L224.11 150.321C224.266 150.722 224.591 151.053 225.034 151.231C225.463 151.408 225.958 151.408 226.387 151.231C227.012 150.983 227.389 150.415 227.389 149.824C227.389 149.623 227.337 149.41 227.246 149.209L217.812 129.787C220.74 128.475 223.537 126.962 226.179 125.259C226.192 125.307 226.205 125.354 226.231 125.401L238.449 143.913C238.683 144.28 239.1 144.54 239.555 144.623C240.023 144.705 240.505 144.623 240.882 144.363C241.247 144.126 241.481 143.772 241.559 143.37C241.572 143.287 241.585 143.204 241.585 143.121C241.585 142.802 241.481 142.495 241.26 142.223L227.311 124.739C227.311 124.739 227.207 124.633 227.142 124.597C229.783 122.836 232.281 120.897 234.598 118.805C234.611 118.923 234.662 119.041 234.754 119.136L250.979 134.906C251.305 135.225 251.76 135.39 252.229 135.39C252.697 135.39 253.153 135.201 253.465 134.882C253.738 134.598 253.894 134.244 253.894 133.865C253.894 133.842 253.894 133.806 253.894 133.782C253.868 133.369 253.673 133.002 253.335 132.73L235.664 118.296C235.56 118.214 235.417 118.166 235.287 118.155C237.564 116.027 239.672 113.733 241.572 111.31C241.598 111.334 241.624 111.369 241.663 111.393L261.168 123.722C261.558 123.971 262.04 124.053 262.508 123.959C262.977 123.864 263.367 123.592 263.601 123.226C263.757 122.99 263.822 122.729 263.822 122.469C263.822 121.937 263.523 121.417 262.976 121.134L242.366 110.388C242.366 110.388 242.314 110.376 242.301 110.364C244.122 107.929 245.762 105.376 247.167 102.704L268.559 110.837C268.988 111.003 269.482 110.991 269.912 110.814C270.341 110.636 270.666 110.293 270.81 109.891C270.862 109.738 270.888 109.584 270.888 109.419C270.888 109.182 270.823 108.946 270.706 108.721C270.498 108.355 270.146 108.095 269.717 107.965L247.726 101.581C249.444 98.1409 250.797 94.5237 251.747 90.7645C252.866 89.2513 254.324 88.1755 256.093 87.5608C259.151 86.4969 261.962 87.2889 263.12 87.7263C265.149 89.2749 267.31 90.0552 269.391 89.9724C275.299 89.736 279.697 83.0213 279.697 77.1816C279.697 71.3418 275.286 64.6392 269.391 64.4027C267.309 64.32 265.149 65.1002 263.12 66.6488C261.962 67.0862 259.164 67.8783 256.093 66.8143C253.439 65.8923 251.929 64.06 251.136 62.6768C250.238 59.6742 249.066 56.7779 247.674 53.988L269.704 47.5927C270.133 47.4627 270.484 47.2026 270.693 46.8362C270.823 46.6115 270.888 46.3752 270.888 46.1387C270.888 45.9851 270.862 45.8314 270.809 45.6777C270.666 45.2758 270.341 44.9329 269.912 44.7556C269.482 44.5783 268.988 44.5664 268.558 44.7319L247.128 52.8769C245.723 50.2052 244.109 47.6282 242.287 45.2048C242.313 45.2048 242.339 45.193 242.366 45.1811L262.976 34.4355C263.523 34.1518 263.822 33.6317 263.822 33.0997C263.822 32.8396 263.744 32.5796 263.601 32.3431C263.367 31.9767 262.976 31.7048 262.508 31.6102C262.04 31.5156 261.558 31.6101 261.181 31.8466L241.676 44.1763C241.676 44.1763 241.598 44.2472 241.559 44.2827C239.659 41.8475 237.551 39.5542 235.261 37.4145C235.404 37.4145 235.56 37.3673 235.677 37.2727L253.347 22.8387C253.686 22.5668 253.881 22.1885 253.907 21.7866C253.907 21.7629 253.907 21.7275 253.907 21.7039C253.907 21.3256 253.751 20.971 253.478 20.6872C253.165 20.3681 252.71 20.1789 252.241 20.1789C251.773 20.1789 251.318 20.3562 250.992 20.6636L234.766 36.4333C234.662 36.5397 234.61 36.6579 234.597 36.788C232.268 34.6838 229.757 32.7569 227.089 30.9955C227.168 30.96 227.246 30.9009 227.298 30.8299L241.233 13.3461C241.441 13.086 241.559 12.767 241.559 12.4478C241.559 12.365 241.559 12.2822 241.533 12.1994C241.467 11.7975 241.22 11.4429 240.856 11.2065C240.479 10.9582 239.997 10.8637 239.529 10.9464C239.06 11.0292 238.657 11.2892 238.423 11.6557L226.204 30.168C226.165 30.2271 226.14 30.298 226.127 30.3689C223.472 28.6784 220.687 27.1535 217.76 25.8414L227.219 6.37155C227.31 6.17059 227.363 5.95778 227.363 5.75682C227.363 5.16576 226.985 4.61008 226.361 4.35001C225.931 4.17268 225.437 4.17268 225.007 4.35001C224.578 4.52733 224.24 4.85834 224.084 5.26027L216.55 25.333C213.062 23.8553 209.406 22.626 205.607 21.7275C204.527 21.1365 202.08 19.5169 201 16.4788C199.959 13.5943 200.753 11.0765 201.195 10.048C202.9 8.20386 203.733 6.24142 203.655 4.35001C203.395 -0.898698 196.043 -4.79967 189.589 -5.01245C188.184 -5.05974 183.291 -4.9652 179.348 -1.79706C178.047 -0.756775 175.64 1.19369 175.497 4.35001C175.38 7.15167 177.098 9.2205 177.956 10.0598C178.386 11.1001 179.179 13.6062 178.151 16.4788C177.058 19.5169 174.612 21.1365 173.532 21.7275C169.615 22.6496 165.855 23.9144 162.264 25.463L154.782 5.52031C154.626 5.11838 154.301 4.78751 153.858 4.61018C153.429 4.43286 152.934 4.44469 152.505 4.61018C152.088 4.77568 151.776 5.07118 151.62 5.46129C151.464 5.83957 151.464 6.25331 151.646 6.63159L161.054 25.995C158.126 27.3309 155.341 28.8676 152.7 30.5699C152.687 30.5226 152.687 30.4753 152.661 30.4281L140.443 11.9157C140.209 11.5493 139.792 11.2892 139.337 11.2065C138.868 11.1237 138.387 11.2064 138.01 11.4665C137.255 11.963 137.086 12.9206 137.632 13.6062L151.581 31.09C151.581 31.09 151.672 31.1729 151.724 31.2083C149.083 32.9815 146.597 34.932 144.294 37.048C144.294 36.918 144.229 36.7879 144.125 36.6933L127.899 20.9236C127.574 20.6044 127.118 20.4271 126.65 20.4389C126.182 20.4389 125.726 20.6281 125.414 20.9473C125.115 21.2546 124.959 21.6448 124.985 22.0467C125.011 22.4605 125.206 22.8268 125.544 23.1105L143.215 37.5446C143.332 37.6391 143.488 37.6864 143.631 37.6864C141.354 39.8379 139.259 42.143 137.372 44.5901C137.333 44.531 137.281 44.4718 137.216 44.4364L117.711 32.1066C117.321 31.8584 116.839 31.7757 116.371 31.8702C115.902 31.9648 115.512 32.2367 115.278 32.6032C115.056 32.9578 114.991 33.3715 115.109 33.7616C115.226 34.1517 115.512 34.4828 115.902 34.6837L136.513 45.4293C136.513 45.4293 136.617 45.4649 136.669 45.4767C134.861 47.9119 133.286 50.5008 131.894 53.1842L110.333 44.992C109.904 44.8265 109.409 44.8383 108.98 45.0156C108.551 45.1929 108.225 45.5358 108.082 45.9377C107.952 46.3278 107.978 46.7416 108.186 47.108C108.394 47.4745 108.746 47.7346 109.175 47.8646L131.334 54.2954C130.02 56.9907 128.888 59.7924 128.029 62.6887C127.236 64.0718 125.739 65.8923 123.085 66.8262C120.014 67.8901 117.204 67.098 116.045 66.6607C114.029 65.1121 111.869 64.3318 109.787 64.4146C103.879 64.6392 99.4813 71.3537 99.4813 77.2052L99.5334 77.2052ZM109.891 65.5849C112.129 65.5021 114.081 66.6369 115.317 67.6063C115.369 67.6417 115.421 67.6773 115.486 67.7009C116.722 68.1856 120.001 69.1667 123.592 67.9255C126.663 66.8497 128.368 64.7573 129.252 63.1851C129.265 63.1496 129.292 63.126 129.292 63.0906C129.292 63.0669 129.305 63.0432 129.318 63.0196C135.134 43.337 152.258 27.9455 174.001 22.8623C174.053 22.8505 174.118 22.8268 174.17 22.8032C175.341 22.1766 178.19 20.3563 179.453 16.8571C180.65 13.5235 179.674 10.6272 179.192 9.53961C179.166 9.46869 179.114 9.40953 179.062 9.35043C178.372 8.6766 176.746 6.89166 176.876 4.421C176.993 1.76118 179.062 0.106201 180.298 -0.886796C183.877 -3.77121 188.34 -3.85393 189.628 -3.80664C195.496 -3.60568 202.223 -0.047486 202.432 4.421C202.536 6.44246 201.274 8.23924 200.207 9.3741C200.154 9.42137 200.129 9.4805 200.103 9.53961C199.621 10.6272 198.645 13.5235 199.842 16.8571C201.091 20.3444 203.941 22.1766 205.099 22.8032C205.151 22.8268 205.203 22.8505 205.268 22.8623C226.998 27.9455 244.135 43.337 249.964 63.0196C249.964 63.0196 249.977 63.0669 249.99 63.0906C249.99 63.1142 250.016 63.1496 250.029 63.1733C250.914 64.7455 252.632 66.8379 255.69 67.9136C259.281 69.1667 262.547 68.1738 263.783 67.6891C263.848 67.6655 263.9 67.6299 263.952 67.5944C265.201 66.6251 267.166 65.4903 269.404 65.573C274.505 65.774 278.461 71.9803 278.461 77.1699C278.461 82.3713 274.505 88.5775 269.404 88.7784C267.166 88.873 265.201 87.7264 263.952 86.757C263.9 86.7216 263.848 86.686 263.783 86.6624C262.547 86.1777 259.281 85.1966 255.69 86.4378C253.634 87.1471 251.929 88.4119 250.654 90.1969C250.602 90.2679 250.576 90.3507 250.563 90.4335C245.293 111.464 226.959 128.203 203.824 133.085C203.72 133.097 203.616 133.132 203.525 133.191C201.807 134.326 200.571 135.768 199.842 137.483C198.489 140.769 199.556 143.724 200.077 144.847C200.103 144.906 200.142 144.954 200.181 145.001C201.248 146.136 202.497 147.921 202.406 149.954C202.185 154.588 195.354 158.182 189.641 158.182C183.916 158.182 177.085 154.588 176.85 149.954C176.798 147.933 178.008 146.136 179.075 145.001C179.114 144.954 179.154 144.906 179.18 144.859C179.609 144.008 180.884 140.946 179.427 137.483C178.698 135.768 177.462 134.326 175.745 133.191C175.667 133.144 175.562 133.109 175.471 133.085C152.336 128.203 133.989 111.452 128.745 90.5161C128.745 90.3979 128.706 90.2915 128.641 90.1969C127.353 88.4237 125.661 87.1589 123.606 86.4378C120.014 85.1848 116.735 86.1777 115.499 86.6624C115.434 86.686 115.382 86.7216 115.33 86.757C114.081 87.7264 112.129 88.8612 109.904 88.7784C104.803 88.5775 100.848 82.383 100.848 77.1816C100.848 71.9802 104.803 65.774 109.904 65.573L109.891 65.5849Z" fill="#DFD4CF" fill-opacity="0.05"/>
<path d="M143.669 77.751C143.252 81.4275 143.708 85.1866 144.996 88.6148C145.92 91.0973 147.858 96.2751 153.649 99.8451C157.891 102.458 162.328 103.072 165.477 103.096C166.57 104.656 167.35 106.241 168.079 107.718C169.562 110.733 170.877 113.333 174.195 114.409C175.301 117.317 177.018 119.398 179.322 120.592C181.208 121.573 182.796 121.608 184.982 121.656C186.27 121.679 187.714 121.715 189.64 121.939C192.841 122.306 194.324 122.861 195.521 123.311C196.705 123.748 197.72 124.126 199.646 124.114C205.423 124.067 212.749 120.663 214.935 114.421C215.404 113.097 215.586 111.82 215.586 110.603C215.586 107.836 214.623 105.484 213.816 103.959C214.232 103.876 214.623 103.793 214.974 103.711C218.045 103.061 219.294 102.8 220.816 101.926C225.319 101.205 229.157 99.4314 231.89 96.8071C235.078 93.7572 235.858 90.0215 237.289 83.236C238.487 77.5854 239.332 73.5544 239.332 70.0434C239.332 67.4782 238.877 65.1848 237.784 62.7378C236.379 59.6287 234.18 56.8272 231.226 54.4156C230.862 53.3517 230.328 52.3705 229.521 51.4484C226.021 47.4764 219.775 47.3818 216.926 47.571C216.067 44.1546 214.48 41.1991 212.164 38.7639C205.801 32.0848 195.222 30.6072 188.104 31.3756C182.874 31.9312 178.97 33.6453 177.656 35.9623C177.526 36.1869 177.382 36.4942 177.213 36.8607C176.576 38.2438 175.6 40.3363 173.544 41.3529C172.815 41.7194 172.074 41.8966 172.074 41.8966C171.007 42.1449 170.304 42.0266 169.406 41.873C168.769 41.7666 168.04 41.6366 167.129 41.6603C166.4 41.6721 163.863 41.8494 162.041 43.3861C159.96 45.1357 159.855 47.7247 159.959 49.096C158.879 49.5688 157.8 50.1599 156.733 50.8692C151.645 54.2974 149.615 58.9195 148.821 61.6148C147.299 62.3713 143.226 64.7829 142.146 69.5587C141.287 73.3179 142.797 76.3797 143.656 77.7392L143.669 77.751ZM169.875 106.997C168.365 103.935 166.492 100.129 161.911 96.9253C160.961 96.2633 160.077 95.7431 159.218 95.2466C157.383 94.1827 155.783 93.2606 154.052 91.1446C153.245 90.1516 151.749 88.0356 150.864 85.0802C150.305 83.2124 149.277 79.7487 150.825 76.025C151.359 74.7483 152.074 73.0106 154.104 71.8521C155.522 71.0483 157.006 70.859 158.125 70.859C157.8 72.5731 157.722 75.0202 159.465 77.219C161.287 79.5005 164.006 80.2216 165.659 80.4343C165.034 84.1226 165.203 87.0544 167.012 90.1043C168.053 91.842 169.393 93.2134 170.825 94.2891C171.059 96.0505 171.423 97.8118 171.97 99.5023C173.466 104.16 176.212 109.113 179.816 112.683C178.137 113.144 176.602 113.227 175.249 112.872C172.425 112.139 171.358 109.988 169.888 106.997L169.875 106.997ZM189.835 41.5656C190.069 41.4474 190.238 41.2346 190.303 40.9864C190.538 40.017 191.097 38.6931 192.424 37.8538C193.556 37.1327 194.779 37.0735 195.313 37.0499C198.67 36.908 206.295 39.4496 213.504 47.0626C217.81 51.6138 220.66 54.6283 220.882 59.1795C220.986 61.4019 220.439 63.447 219.684 65.2084C215.911 63.7189 212.879 61.8511 210.667 59.6169C210.16 58.7539 209.483 57.8792 208.546 56.9807C207.948 56.0587 207.479 55.1131 206.985 54.1201C205.748 51.6494 204.46 49.0841 201.233 46.9326C198.956 45.4076 196.809 44.8402 195.781 44.5683C188.56 42.6296 181.455 45.1594 177.434 47.1099C177.981 45.5849 179.178 43.4807 181.741 42.204C184.942 40.6199 188.143 41.3647 189.054 41.6366C189.315 41.7193 189.601 41.6838 189.835 41.5656ZM193.947 93.8162C193.947 93.8162 193.934 93.8162 193.921 93.8162C193.856 93.8162 193.791 93.8162 193.725 93.8162C193.66 93.8162 193.596 93.8162 193.53 93.8162C193.53 93.8162 193.517 93.8162 193.504 93.8162C193.452 93.8281 193.4 93.8634 193.361 93.8753C193.309 93.8989 193.257 93.899 193.205 93.9344C191.709 94.8329 186.322 97.6581 179.556 96.2514C177.773 95.8849 171.735 94.2891 168.717 89.2414C167.689 87.5154 167.259 85.8131 167.259 83.8862C167.259 82.6568 167.428 81.3328 167.728 79.8551C167.728 79.8078 167.754 79.7724 167.754 79.7251C168.092 78.0228 168.587 76.1197 169.159 73.9091C170.929 67.0881 172.204 62.1585 176.758 59.9124C180.193 58.2101 184.643 58.3638 186.322 58.4229C186.907 58.4466 187.506 58.494 188.091 58.5531C186.114 59.1323 184.24 59.9361 182.6 61C175.743 65.4212 172.204 73.6962 174.181 80.6709C174.546 81.9712 175.678 85.9432 179.725 88.4848C183.68 90.9791 189.9 91.7711 193.27 89.3004C194.103 90.0451 195.287 90.8254 196.849 91.2628C200.297 92.244 203.302 90.9673 204.838 90.0925C204.76 90.2107 204.682 90.3408 204.591 90.459C203.589 91.8539 202.782 92.3976 202.522 92.5749C199.646 94.5373 195.912 94.1827 193.947 93.8044L193.947 93.8162ZM179.126 98.0011C180.675 98.3202 182.158 98.4384 183.55 98.4148C183.837 99.9634 184.552 101.961 186.257 103.746C188.976 106.583 192.58 107.163 194.324 107.446C197.33 107.931 199.048 107.494 203.615 106.359C205.215 105.957 207.193 105.46 209.73 104.881C210.225 104.763 210.693 104.668 211.136 104.562C210.732 106.099 210.016 107.352 208.962 108.286C208.013 109.125 207.271 109.302 206.048 109.598C204.942 109.87 203.55 110.201 201.611 111.146C199.789 112.033 198.709 112.86 197.746 113.593C196.562 114.492 195.704 115.142 193.882 115.603C193.674 115.65 191.761 116.111 189.757 115.946C181.859 115.296 175.925 105.472 173.856 99.0295C173.518 97.9538 173.258 96.8543 173.05 95.7431C175.613 97.1617 178.072 97.8 179.152 98.0127L179.126 98.0011ZM206.1 57.2999C206.425 57.56 206.724 57.832 207.011 58.092C207.583 58.9668 208.26 59.7943 209.014 60.5745C209.86 62.0403 210.185 63.5889 209.925 65.1494C209.483 67.8328 207.479 70.1262 204.617 71.3438C204.591 71.2728 204.564 71.2018 204.538 71.1309C202.574 66.6033 197.33 63.6243 191.787 63.9081C184.37 64.2745 180.857 70.4335 180.818 70.4927C178.632 74.3937 178.189 80.1861 182.418 83.6852C185.281 86.0613 189.51 86.7588 193.53 85.6358C193.348 86.3569 193.036 86.9835 192.581 87.48C190.264 89.9388 184.357 89.265 180.831 87.0426C177.383 84.8675 176.394 81.392 176.068 80.2453C174.286 73.9563 177.513 66.4733 183.732 62.4659C186.322 60.7872 189.484 59.747 192.867 59.4397C192.867 59.4397 192.867 59.4397 192.88 59.4397C192.997 59.4279 193.101 59.3923 193.192 59.3568C193.218 59.345 193.257 59.3213 193.283 59.3095C193.348 59.2741 193.413 59.2268 193.465 59.1795C193.491 59.1559 193.517 59.1205 193.543 59.0968C193.595 59.0377 193.621 58.9786 193.66 58.9076C193.66 58.884 193.686 58.8723 193.699 58.8486C193.699 58.8368 193.699 58.8249 193.699 58.8131C193.699 58.8013 193.712 58.7894 193.712 58.7658C193.986 57.6073 194.623 56.0351 196.107 55.1367C199.112 53.328 203.823 55.5268 206.087 57.3354L206.1 57.2999ZM194.871 83.437C194.871 83.437 194.858 83.437 194.845 83.437C191.514 82.9051 188.677 80.4817 188.105 77.68C187.922 76.7579 187.662 74.4528 189.341 72.8451C190.316 71.9112 192.372 70.8 194.064 71.5448C195.027 71.9703 196.224 73.176 195.886 74.5236C195.651 75.4575 194.741 76.226 193.569 76.486C193.049 76.6043 192.724 77.0771 192.841 77.55C192.971 78.0228 193.491 78.3183 194.012 78.2119C195.898 77.7982 197.382 76.5097 197.785 74.9257C198.332 72.7624 196.718 70.7526 194.923 69.9606C192.464 68.873 189.575 70.0671 187.935 71.6393C186.322 73.1879 185.697 75.5167 186.205 78.011C186.751 80.6709 188.794 82.9996 191.54 84.2763C188.638 84.7137 185.775 84.0517 183.758 82.3849C179.764 79.0749 181.234 73.6962 182.574 71.2964C182.6 71.2491 185.606 65.9886 191.904 65.6813C196.614 65.4448 201.077 67.9628 202.73 71.793C204.552 76.0014 202.873 81.3447 199.216 83.0115C197.408 83.839 195.521 83.5434 194.884 83.4489L194.871 83.437ZM206.503 86.1087C205.827 87.1017 204.916 87.9528 203.875 88.5675C202.652 89.2767 200.193 90.3644 197.434 89.5842C196.172 89.2296 195.235 88.5793 194.571 87.9764C195.105 87.2198 195.443 86.3332 195.586 85.3166C196.705 85.3993 198.384 85.3757 200.088 84.5955C203.42 83.0824 205.423 79.335 205.423 75.4576C205.423 74.6655 205.332 73.8617 205.15 73.0696C208.754 71.6511 211.292 68.7903 211.851 65.4212C211.916 65.0075 211.968 64.5464 211.968 64.0617C211.968 63.7544 211.942 63.4235 211.903 63.0925C213.868 64.5228 216.21 65.7758 218.891 66.8397C217.876 68.6721 216.744 70.0552 216.158 70.7527C214.349 72.9278 212.996 73.708 211.799 74.3936C210.511 75.1384 209.288 75.8358 208.208 77.9282C207.141 79.9851 206.972 81.853 206.816 83.6499C206.738 84.4774 206.672 85.293 206.516 86.1205L206.503 86.1087ZM176.133 49.7579C176.133 49.7579 176.211 49.7342 176.263 49.7224C176.329 49.7106 176.38 49.6988 176.432 49.6752C176.459 49.6752 176.472 49.6515 176.498 49.6397L176.524 49.6397C179.542 47.9256 187.389 44.1783 195.235 46.2825C196.159 46.5307 198.085 47.0507 200.088 48.3866C202.717 50.1361 203.875 52.205 204.981 54.4038C202.17 52.8906 198.215 51.7321 195.053 53.6353C193.4 54.6283 192.541 56.1415 192.086 57.4655C190.225 57.0162 188.326 56.7443 186.413 56.6734C184.591 56.6143 179.738 56.4488 175.847 58.3757C170.525 61.0119 169.094 66.5324 167.285 73.5307C166.791 75.4221 166.348 77.1244 166.01 78.6966C164.748 78.5311 162.484 77.9874 161.066 76.1905C159.231 73.8972 160.025 71.1309 160.402 69.8069C161.261 66.8161 163.473 64.9602 164.722 64.1209C165.047 63.9081 165.177 63.5416 165.086 63.187C164.852 62.3595 163.876 58.0446 167.038 54.1436C170.239 50.1952 175.131 49.8052 176.081 49.7697L176.107 49.7697C176.12 49.7697 176.146 49.7697 176.159 49.7697L176.133 49.7579ZM213.074 113.889C211.162 119.339 204.721 122.318 199.633 122.353C198.098 122.353 197.369 122.093 196.263 121.679C194.962 121.195 193.348 120.592 189.887 120.19C187.87 119.953 186.296 119.918 185.034 119.894C182.991 119.847 181.755 119.823 180.284 119.055C178.671 118.216 177.396 116.797 176.472 114.847C177.994 114.941 179.634 114.669 181.351 114.066C183.797 116.076 186.569 117.435 189.549 117.684C191.852 117.873 193.96 117.388 194.363 117.282C196.601 116.726 197.746 115.851 198.969 114.929C199.854 114.255 200.869 113.487 202.509 112.683C204.252 111.832 205.462 111.537 206.529 111.288C207.844 110.969 208.989 110.697 210.303 109.527C211.357 108.593 212.124 107.387 212.658 105.992C213.491 107.99 214.128 110.839 213.061 113.865L213.074 113.889ZM209.236 103.155C206.686 103.746 204.695 104.243 203.081 104.645C198.579 105.768 197.226 106.11 194.649 105.697C193.023 105.437 189.991 104.952 187.727 102.588C186.374 101.169 185.775 99.585 185.515 98.3083C188.924 97.9418 191.631 96.8307 193.205 96.0268C193.648 97.0198 194.402 98.0956 195.664 98.8758C199.099 100.968 203.576 99.0531 204.864 98.4266C206.269 97.7292 206.92 97.0672 207.609 96.3697C208.182 95.7786 208.767 95.1757 209.964 94.3955C211.552 93.367 212.463 93.1542 213.426 92.9296C214.324 92.7287 215.247 92.5158 216.509 91.7002C220.647 89.0758 222.313 84.0636 224.069 78.744L224.238 78.2237C224.642 76.9589 225.006 75.8714 225.969 74.5946C226.789 73.5189 227.856 72.5732 229.118 71.7811C228.324 76.8998 228.35 80.2215 228.376 82.9405C228.402 86.3923 228.428 88.674 226.62 92.3859C225.553 94.561 223.952 97.8473 220.244 100.176C220.127 100.247 220.023 100.306 219.919 100.365C219.919 100.365 219.919 100.365 219.906 100.365C218.591 101.134 217.589 101.347 214.532 101.997C213.191 102.28 211.5 102.635 209.236 103.155ZM235.975 63.4235C238.369 68.7549 237.368 73.4835 235.377 82.9169C233.906 89.8561 233.152 93.0242 230.471 95.6013C228.832 97.1735 226.724 98.4029 224.291 99.2422C226.438 97.0671 227.622 94.691 228.403 93.0952C230.393 89.0286 230.354 86.4634 230.328 82.9169C230.302 79.9498 230.263 76.2497 231.356 70.1853L231.473 69.5469C231.824 67.6673 232.228 65.4212 232.228 62.5722C232.228 61.863 232.202 61.1182 232.15 60.338C232.072 59.3686 232.007 58.4466 231.89 57.56C233.646 59.345 235.012 61.3073 235.962 63.4352L235.975 63.4235ZM227.999 52.5714C229.769 54.5928 229.964 57.1699 230.211 60.4445C230.497 64.18 229.977 66.9816 229.56 69.2395L229.521 69.476C227.374 70.54 225.644 71.8994 224.369 73.5662C223.224 75.0793 222.807 76.356 222.378 77.7037L222.209 78.2119C220.478 83.437 218.982 87.9528 215.404 90.2225C214.428 90.849 213.777 90.991 212.944 91.1801C211.903 91.4165 210.719 91.6884 208.833 92.9178C207.466 93.8162 206.764 94.5255 206.152 95.1521C205.514 95.8141 205.046 96.2868 203.94 96.8306C202.886 97.3507 199.282 98.9113 196.757 97.3745C196.055 96.9489 195.586 96.3697 195.261 95.7786C197.655 96.0151 200.947 95.8732 203.706 93.9936C204.604 93.3789 205.436 92.5395 206.243 91.4283C208.351 88.5202 208.559 86.1087 208.767 83.7681C208.924 82.054 209.067 80.4343 209.977 78.6611C210.823 77.0416 211.63 76.5688 212.853 75.8713C214.128 75.1384 215.703 74.2282 217.732 71.793C219.021 70.2326 222.859 65.6223 222.859 59.7352C222.859 59.5224 222.859 59.3096 222.846 59.0968C222.664 55.2667 220.855 52.4177 218.136 49.2968C220.816 49.2495 225.449 49.6397 228.012 52.5595L227.999 52.5714ZM163.382 44.6983C164.696 43.5871 166.635 43.4571 167.194 43.4453C167.884 43.4335 168.456 43.5281 169.055 43.6226C170.044 43.7882 171.085 43.9655 172.568 43.6226C172.607 43.6226 173.557 43.3979 174.507 42.9133C177.148 41.5893 178.332 39.0596 179.022 37.5464C179.165 37.2391 179.282 36.979 179.399 36.778C180.388 35.0403 183.902 33.6218 188.352 33.1371C195.001 32.4278 204.851 33.7754 210.706 39.9226C212.059 41.3529 213.113 43.0078 213.933 44.8283C206.035 37.0144 198.319 35.1348 195.235 35.2767C194.597 35.3003 192.919 35.3713 191.331 36.388C189.887 37.31 189.119 38.5867 188.69 39.6979C187.011 39.3669 183.914 39.1069 180.818 40.6436C176.888 42.5942 175.626 46.0224 175.235 47.7601C172.815 47.24 167.506 46.5069 161.911 48.3629C161.911 47.2753 162.158 45.7149 163.394 44.6865L163.382 44.6983ZM150.096 63.0333C150.357 62.9151 150.552 62.7023 150.617 62.4422C151.255 60.0543 153.05 55.5741 157.903 52.3113C162.497 49.2141 167.585 48.8122 171.163 49.0368C169.263 49.7579 167.142 50.9991 165.437 53.1033C162.237 57.0516 162.692 61.3665 163.03 63.057C161.586 64.1327 159.517 66.1187 158.567 69.1095C157.136 69.0504 155.054 69.216 153.05 70.3626C150.474 71.8285 149.55 74.0744 148.991 75.4103C147.208 79.666 148.405 83.638 148.978 85.5531C149.94 88.7922 151.58 91.121 152.478 92.2085C154.429 94.5846 156.238 95.6367 158.151 96.7479C158.971 97.2208 159.817 97.7172 160.701 98.3319C162.042 99.2658 163.109 100.259 164.006 101.275C161.313 101.086 157.956 100.377 154.742 98.3911C149.498 95.1639 147.702 90.3644 146.843 88.0592C145.62 84.7729 145.204 81.1791 145.646 77.6682C145.672 77.4672 145.62 77.2663 145.503 77.1008C144.813 76.0841 143.291 73.3533 144.072 69.9488C145.1 65.4448 149.277 63.4116 150.096 63.0451L150.096 63.0333Z" fill="#DFD4CF" fill-opacity="0.05"/>
<path d="M106.339 80.1611C106.339 80.1611 106.339 80.2439 106.339 80.2793C106.378 81.8516 107.302 82.62 108.07 82.9983C109.384 83.6485 111.27 83.5894 112.546 82.8801C114.471 81.8044 115.135 81.2251 116.319 80.173L116.423 80.0785C116.631 79.8893 116.853 79.7002 117.074 79.4992C118.05 78.6363 119.065 77.7378 119.715 77.3595C119.754 77.3595 119.806 77.3241 119.845 77.2886L119.897 77.265L119.897 77.1821L119.897 77.1113L119.858 77.0876C119.858 77.0876 119.767 77.0286 119.728 77.0168C119.078 76.6385 118.063 75.74 117.087 74.877C116.866 74.6879 116.657 74.4869 116.436 74.2978L116.332 74.2033C115.135 73.1512 114.484 72.5837 112.559 71.4961C111.283 70.775 109.397 70.7278 108.083 71.3779C107.315 71.7562 106.391 72.5363 106.352 74.0968C106.352 74.1322 106.352 74.1796 106.352 74.2151C106.352 76.1538 107.692 76.8984 108.707 77.194C107.692 77.4777 106.352 78.2343 106.352 80.173L106.339 80.1611Z" fill="#DFD4CF" fill-opacity="0.05"/>
<path d="M263.858 74.7013C262.7 75.5879 261.463 76.4037 260.175 77.1366L259.954 77.2548L260.175 77.3848C261.62 78.2241 263.012 79.1698 264.3 80.1746C265.198 80.8839 266.069 81.6287 266.876 82.3971L266.993 82.5034L267.111 82.3971C268.217 81.3804 269.401 80.4112 270.637 79.5245C271.678 78.768 272.784 78.0468 273.916 77.3848L274.124 77.2666L273.916 77.1366C272.823 76.4746 271.756 75.7534 270.741 74.9969C269.479 74.063 268.282 73.0464 267.15 71.9825L267.033 71.8642L266.915 71.9825C265.965 72.94 264.938 73.8502 263.845 74.6895L263.858 74.7013Z" fill="#DFD4CF" fill-opacity="0.05"/>
<path d="M190.73 11.7866C191.069 12.0231 191.459 12.1649 191.902 12.2122C193.984 12.4486 195.363 11.3611 195.636 10.1671C195.714 9.84794 195.753 9.5287 195.753 9.22135C195.753 8.13378 195.298 7.1409 194.387 6.24248C193.658 5.52137 192.877 4.82379 192.201 4.19726C191.615 3.66529 191.108 3.21611 190.809 2.89693C190.275 2.34133 189.924 1.93937 189.82 1.83298L189.625 1.69113L189.494 1.84481C189.195 2.17581 188.857 2.55412 188.505 2.90877C188.206 3.22794 187.699 3.67713 187.1 4.20909C186.411 4.8238 185.643 5.52137 184.914 6.24248C183.756 7.40098 183.327 8.71309 183.665 10.1671C183.938 11.3611 185.318 12.4486 187.4 12.2122C187.842 12.1649 188.232 12.0231 188.571 11.7866C188.271 13.0161 187.543 13.6662 187.543 13.6662L187.256 13.9146L191.928 13.9146L191.681 13.6662C191.147 13.1224 190.874 12.3895 190.743 11.7748L190.73 11.7866Z" fill="#DFD4CF" fill-opacity="0.05"/>
<path d="M266.45 -17.8272L114.744 -17.8272C114.08 -25.3811 107.119 -31.339 98.6354 -31.339C90.1516 -31.339 83.5154 -25.6411 82.5785 -18.3473C75.1357 -18.3118 67.8491 -17.3661 60.9007 -15.5219C49.7365 -12.5666 40.1074 -7.96815 32.3263 -1.99834C30.5566 -2.66034 28.735 -3.06224 26.8873 -3.15681C17.8701 -3.61785 11.6115 3.01392 10.4404 4.34974C4.63708 10.9934 3.96022 21.3017 8.87875 28.3236C9.69851 29.5057 10.8697 30.8297 12.249 32.0237L12.249 47.2614C8.99601 47.6161 6.47178 50.1104 6.47178 53.1485C6.47179 56.4348 9.41255 59.1065 13.0299 59.1065C16.6472 59.1065 19.5879 56.4348 19.5879 53.1485C19.5879 50.2286 17.2586 47.8053 14.2008 47.2969L14.2008 33.525C16.3868 34.979 18.8592 35.8657 21.2014 35.3219C22.9189 34.9318 23.6344 33.9624 24.9356 32.2128C25.5212 31.4326 26.2499 30.4514 27.2778 29.2102C27.8113 28.56 32.73 22.7557 39.4441 18.1572C42.0075 16.4076 44.8049 14.8472 47.7977 13.535C47.8107 13.535 47.8237 13.5231 47.8367 13.5113C50.5042 12.7547 52.456 10.5206 52.456 7.84897C52.456 4.56262 49.5153 1.89094 45.898 1.89094C42.2806 1.89094 39.3399 4.56262 39.3399 7.84897C39.3399 10.4615 41.2135 12.6603 43.7899 13.4641C41.8641 14.4689 40.0034 15.5564 38.2728 16.7385C33.5235 20.0012 29.6459 23.8315 27.4989 26.1366C26.6011 21.9519 26.1457 17.2114 27.2257 14.8235C27.4339 14.3743 27.7984 13.5469 28.6571 13.1804C29.2427 12.9322 30.4396 12.8021 31.1293 13.476C31.2854 13.6415 31.4156 13.8306 31.4937 14.0315C31.3245 13.9961 31.1555 13.9724 30.9863 13.9724C29.8153 13.9724 28.8652 14.8353 28.8652 15.8993C28.8652 16.9632 29.8153 17.8262 30.9863 17.8262C31.5979 17.8262 32.1443 17.5897 32.5217 17.2114C32.5477 17.1878 32.5738 17.176 32.5998 17.1524C32.6388 17.1051 32.6647 17.0578 32.7037 17.0224C32.7297 16.9869 32.7558 16.9514 32.7818 16.9277C33.3023 16.2421 33.5757 15.45 33.5757 14.6816C33.5757 13.8068 33.2374 12.944 32.5737 12.2938C31.2595 11.0053 29.2035 11.017 27.8502 11.5844C26.2888 12.2346 25.6774 13.5823 25.4172 14.1734C23.7386 17.8971 25.2479 25.2028 25.9115 27.9335C25.8334 28.0281 25.7685 28.1108 25.7295 28.158C24.6755 29.4348 23.9337 30.4277 23.3352 31.2316C22.073 32.9339 21.6957 33.3949 20.7458 33.6077C17.2846 34.3997 12.7043 30.4395 10.5573 27.3778C6.06821 20.9588 6.6929 11.5254 12.0018 5.44919C13.0557 4.23159 18.7418 -1.79736 26.8092 -1.38361C28.1234 -1.31268 29.4116 -1.07628 30.6867 -0.674351C26.1586 3.04939 22.3073 7.28152 19.2235 11.9628C16.9854 15.3555 15.1505 18.9966 13.7582 22.7912C13.537 23.4059 13.9015 24.0796 14.5781 24.2806C15.2548 24.4816 15.9965 24.1505 16.2177 23.5358C17.5449 19.9067 19.3015 16.4195 21.4354 13.1804C29.672 0.673397 43.5686 -8.46467 61.6422 -13.2523C68.3303 -15.0255 75.3438 -15.9357 82.5134 -15.983C82.9038 -8.1927 89.9825 -1.96284 98.6484 -1.96284C107.314 -1.96284 114.08 -7.92089 114.757 -15.4748L266.464 -15.4748C267.127 -7.93271 274.088 -1.96284 282.572 -1.96284C291.056 -1.96284 298.291 -8.16901 298.707 -15.9357C305.877 -15.8884 312.903 -14.9782 319.591 -13.205C337.665 -8.41734 351.562 0.720583 359.798 13.2276C361.932 16.4785 363.689 19.954 365.016 23.5832C365.237 24.1979 365.979 24.5407 366.656 24.3279C367.202 24.1624 367.54 23.7014 367.54 23.2049C367.54 23.0867 367.514 22.9566 367.475 22.8266C366.083 19.0319 364.248 15.391 362.01 11.9983C358.926 7.31702 355.075 3.08488 350.547 -0.638853C351.822 -1.02896 353.11 -1.27718 354.424 -1.34811C362.479 -1.76186 368.165 4.26709 369.232 5.48469C374.541 11.5727 375.165 20.9943 370.676 27.4133C368.529 30.4868 363.949 34.447 360.488 33.6432C359.525 33.4186 359.161 32.9694 357.886 31.2671C357.287 30.4632 356.545 29.4702 355.491 28.1935C355.452 28.1463 355.387 28.0634 355.309 27.9689C355.752 26.1484 356.558 22.3064 356.558 18.8309C356.558 17.0932 356.35 15.4501 355.803 14.2089C355.543 13.6296 354.932 12.2819 353.37 11.6318C352.017 11.0643 349.961 11.0525 348.647 12.341C347.398 13.5704 347.333 15.521 348.452 16.975C348.478 17.0105 348.504 17.0459 348.53 17.0814C348.569 17.1287 348.595 17.176 348.634 17.2114C348.66 17.2351 348.686 17.2469 348.712 17.2706C349.102 17.6489 349.649 17.8853 350.247 17.8853C351.418 17.8853 352.368 17.0224 352.368 15.9584C352.368 14.8945 351.418 14.0315 350.247 14.0315C350.065 14.0315 349.896 14.0551 349.727 14.0906C349.805 13.8896 349.922 13.6887 350.091 13.535C350.781 12.8612 351.978 12.9912 352.564 13.2394C353.422 13.5941 353.8 14.4334 353.995 14.8826C355.062 17.2706 354.606 22.0109 353.721 26.1956C351.575 23.8905 347.697 20.0486 342.948 16.7977C341.217 15.6037 339.356 14.5161 337.43 13.5231C340.007 12.7193 341.881 10.5205 341.881 7.90799C341.881 4.62164 338.94 1.95011 335.323 1.95011C331.705 1.95011 328.765 4.62164 328.765 7.90799C328.765 10.5796 330.729 12.8257 333.397 13.5705C333.397 13.5705 333.41 13.5823 333.423 13.5941C336.403 14.9063 339.213 16.4666 341.764 18.2162C348.478 22.8147 353.396 28.6191 353.93 29.2693C354.958 30.5106 355.687 31.4798 356.272 32.2719C357.573 34.0214 358.289 34.979 360.006 35.3809C362.336 35.9129 364.808 35.0262 367.007 33.584L367.007 47.356C363.949 47.8643 361.62 50.2878 361.62 53.2076C361.62 56.494 364.561 59.1655 368.178 59.1655C371.795 59.1655 374.736 56.494 374.736 53.2076C374.736 50.1577 372.199 47.6753 368.959 47.3206L368.959 32.0828C370.325 30.8889 371.496 29.5649 372.329 28.3827C374.528 25.2382 375.608 21.4317 375.608 17.5898C375.608 12.8612 373.968 8.07352 370.767 4.39707C369.609 3.06125 363.338 -3.57052 354.32 -3.10948C352.473 -3.01491 350.651 -2.61301 348.881 -1.95101C341.1 -7.93263 331.471 -12.5194 320.307 -15.4748C313.358 -17.3189 306.072 -18.2527 298.616 -18.2999C297.705 -25.6292 290.861 -31.339 282.559 -31.339C274.257 -31.339 267.127 -25.3811 266.45 -17.8272ZM17.6492 53.1603C17.6492 55.4655 15.5802 57.3451 13.0429 57.3451C10.5056 57.3451 8.4366 55.4655 8.4366 53.1603C8.43659 50.8551 10.5055 48.9755 13.0429 48.9755C15.5802 48.9755 17.6492 50.8551 17.6492 53.1603ZM41.2917 7.8608C41.2917 5.55563 43.3606 3.67598 45.898 3.67598C48.4353 3.67598 50.5042 5.55563 50.5042 7.8608C50.5043 10.166 48.4353 12.0455 45.898 12.0455C43.3606 12.0455 41.2917 10.166 41.2917 7.8608ZM330.703 7.90799C330.703 5.60282 332.772 3.72331 335.31 3.72331C337.847 3.72331 339.916 5.60282 339.916 7.90799C339.916 10.2132 337.847 12.0928 335.31 12.0928C332.772 12.0928 330.703 10.2132 330.703 7.90799ZM372.784 53.1958C372.784 55.501 370.715 57.3805 368.178 57.3805C365.641 57.3805 363.572 55.501 363.572 53.1958C363.572 50.8906 365.641 49.011 368.178 49.011C370.715 49.011 372.784 50.8906 372.784 53.1958ZM98.6484 -4.32712C91.1666 -4.32712 85.0767 -9.8596 85.0767 -16.6569C85.0767 -23.4542 91.1665 -28.9865 98.6484 -28.9865C106.13 -28.9865 112.22 -23.4542 112.22 -16.6569C112.22 -9.8596 106.13 -4.32712 98.6484 -4.32712ZM296.13 -16.6451C296.131 -9.84776 290.041 -4.31529 282.559 -4.31529C275.077 -4.31529 268.988 -9.84776 268.988 -16.6451C268.988 -23.4424 275.077 -28.9747 282.559 -28.9747C290.041 -28.9747 296.13 -23.4424 296.13 -16.6451Z" fill="#DFD4CF" fill-opacity="0.05"/>
<path d="M37.2692 102.525C40.5612 104.381 44.3478 103.944 46.8721 103.282C48.1083 104.807 50.0729 106.557 52.9095 107.124C58.5828 108.259 64.3472 103.861 66.4161 99.1328C67.0407 97.726 67.3529 96.201 67.3529 94.6169C67.3529 94.5933 67.3529 94.5697 67.3529 94.5461C68.1466 93.955 68.9274 93.2574 69.63 92.3945C70.4498 91.4015 71.0221 90.3612 71.4515 89.3209C72.1672 90.2548 73.026 91.0705 74.0149 91.7207C78.0486 94.3687 82.6938 93.5768 84.034 93.2694C84.4113 93.1866 84.6716 92.8793 84.6716 92.5246C84.6716 92.5246 84.6716 92.5128 84.6716 92.501C84.6716 92.1463 84.3726 91.839 83.9822 91.7681C82.1345 91.4489 79.376 90.645 76.8256 88.5999C74.7828 86.9685 73.5986 85.1244 72.896 83.5994L79.2326 82.5118C79.5449 82.4645 79.7922 82.2518 79.8832 81.9799C79.9743 81.708 79.8833 81.4125 79.6621 81.2115L76.5521 78.469L85.2964 78.469C85.7648 78.469 86.1421 78.1261 86.1421 77.7006C86.1421 77.275 85.7648 76.9322 85.2964 76.9322L76.6433 76.9322L79.7793 74.296C79.9615 74.1541 80.0526 73.9414 80.0525 73.7286C80.0525 73.6459 80.0395 73.5748 80.0135 73.4921C79.9094 73.2084 79.6361 72.9956 79.3108 72.9602L72.7527 72.2036C73.4293 70.6314 74.6266 68.6454 76.8126 66.8958C79.3759 64.8389 82.1214 64.035 83.9691 63.7276C84.3595 63.6567 84.6458 63.3611 84.6588 62.9947C84.6588 62.9947 84.6588 62.983 84.6588 62.9712C84.6588 62.6165 84.3983 62.3092 84.0209 62.2264C82.6937 61.9191 78.0355 61.1269 74.0018 63.7749C73.0259 64.4133 72.1671 65.229 71.4515 66.1511C71.1132 64.9216 70.5798 63.7513 69.643 62.581C68.8102 61.5289 67.743 60.6305 66.5329 59.874C66.3508 57.7579 65.5571 54.1286 62.3561 51.1733C62.0959 50.925 55.8503 45.2508 50.1511 47.6624C48.0952 48.5253 46.872 50.1212 46.1693 51.4807C44.8161 51.2206 43.3325 51.126 41.7451 51.3625C41.4588 51.4098 34.5757 52.4855 32.8321 57.6987C32.2205 59.5192 32.4548 61.2216 32.8451 62.4864C31.8823 62.9829 30.9975 63.6331 30.2948 64.437C28.0438 67.0377 28.369 70.0994 28.6163 71.2815C27.6404 72.3809 25.246 75.6082 26.1178 79.6393C26.5472 81.6489 27.6404 83.1502 28.5902 84.1313C27.6664 87.4413 29.1107 90.905 32.1685 92.8674C32.1816 94.416 32.5978 99.9011 37.2431 102.525L37.2692 102.525ZM64.8414 98.5654C63.0197 102.726 57.9322 106.557 53.2739 105.623C51.166 105.197 49.6174 103.956 48.5634 102.75C50.2029 102.147 51.231 101.402 52.2199 100.681C53.456 99.7829 54.614 98.9436 57.0342 98.2343C58.1793 97.9033 58.83 97.8324 59.4806 97.7614C60.2353 97.6787 61.016 97.5842 62.3692 97.1113C63.0329 96.8749 64.2299 96.4493 65.5962 95.6927C65.4921 96.6975 65.2448 97.6669 64.8414 98.5654ZM61.7577 95.6809C60.5997 96.0946 59.9752 96.1655 59.2595 96.2483C58.5699 96.331 57.802 96.4139 56.5139 96.7921C53.7944 97.5842 52.3892 98.6007 51.1531 99.4991C50.1252 100.244 49.1622 100.941 47.5097 101.497C45.4148 102.183 41.4329 103.069 38.1669 101.237C34.8619 99.381 34.1072 95.7045 33.938 93.7776C37.0999 94.9716 40.7432 94.4279 43.3717 92.3473C47.9128 93.0093 53.8985 92.5956 59.1293 91.047C64.8805 89.3447 68.9532 86.543 70.7879 83.0675C70.84 85.5737 70.5017 88.7536 68.2637 91.4844C66.0517 94.1796 62.9288 95.2789 61.7447 95.6927L61.7577 95.6809ZM31.5961 81.1288C31.8693 79.6393 32.7932 78.6226 33.5609 77.9961C33.5999 78.2207 33.6127 78.4452 33.6778 78.658C33.9641 79.7929 34.4848 80.845 35.2134 81.8026C34.732 82.9965 34.2503 84.9235 34.953 86.9213C34.1722 86.5785 33.3004 86.0229 32.6238 85.1126C32.1944 84.557 31.2578 83.0439 31.6091 81.117L31.5961 81.1288ZM33.2225 68.8227C33.9772 68.338 34.7709 68.1607 35.4475 68.1134C33.5348 70.5959 33.4046 74.367 33.4176 75.7973C32.741 75.3836 31.7911 74.6152 31.4267 73.3857C30.9193 71.6953 31.6481 69.8275 33.2225 68.8345L33.2225 68.8227ZM70.1764 77.8069C70.0983 79.0127 69.656 81.7198 67.3529 83.1502C66.1428 83.895 63.9308 84.5334 60.2354 83.3749C55.46 81.8736 52.9745 77.9133 50.5542 74.0832C48.121 70.2294 45.8178 66.5885 41.4068 65.9265C40.0535 65.7255 39.0127 65.8909 38.284 66.1156C38.5053 65.5836 38.8045 65.1227 39.2078 64.7562C40.6652 63.4086 43.0855 63.4203 46.7548 63.8813C56.6569 65.1225 61.6277 65.7491 65.1409 68.9409C67.6392 71.2106 69.3696 74.2723 70.1764 77.8069ZM38.4791 67.6761C39.2078 67.3687 40.1447 67.2859 41.1466 67.4277C44.7639 67.9597 46.7809 71.1396 49.0971 74.8279C49.3443 75.218 49.6043 75.6318 49.8646 76.0337L47.4706 76.0337C47.3144 75.1353 47.0151 74.4142 46.7809 73.9531C46.4036 73.2202 44.9592 70.7733 41.8884 69.9221C41.3809 69.7803 40.3401 69.4846 39.117 69.662C37.8288 69.8511 36.6315 70.5249 35.6426 71.577C36.085 69.9575 36.9177 68.3381 38.4791 67.6761ZM39.9366 83.4103C39.1169 83.3039 38.4402 82.8902 37.8937 82.4291C38.6223 82.3109 39.4291 82.0627 40.1968 81.5425C42.4218 80.0412 42.7341 77.3578 42.0965 75.5018C41.4979 73.7286 40.379 72.5937 38.9607 72.2981C38.3622 72.1681 37.7507 72.1918 37.1392 72.3454C37.8158 71.7071 38.5835 71.2934 39.3902 71.1751C40.223 71.0569 40.9904 71.2698 41.4068 71.3762C43.801 72.0382 44.9593 74.0005 45.2586 74.5915C45.5969 75.2535 46.1303 76.6129 45.805 78.2088C45.2845 80.845 42.552 83.7412 39.9366 83.3984L39.9366 83.4103ZM35.2261 76.8021C35.2261 76.8021 35.1483 76.7431 35.1223 76.7076C35.1223 76.5894 35.1223 76.483 35.1223 76.3647C35.1223 76.3647 35.1483 76.3647 35.1613 76.3411C36.1893 75.5727 37.2042 75.549 37.3863 75.7145C37.4904 75.7973 37.5815 76.2228 37.3993 76.7548C37.2432 77.2395 36.9178 77.6178 36.6055 77.6651C36.2411 77.7242 35.6295 77.4168 35.2261 76.7785L35.2261 76.8021ZM36.9178 79.1901C37.8806 79.0246 38.6615 78.2798 39.0128 77.204C39.1169 76.8848 39.1818 76.5302 39.1818 76.1756C39.1818 75.5963 39.0127 75.029 38.5442 74.6152C38.1279 74.2487 37.5293 74.095 36.8656 74.1187C37.4512 73.8113 38.0628 73.6931 38.5573 73.7995C39.364 73.965 40.0406 74.7334 40.457 75.9629C40.9384 77.3696 40.6521 79.3082 39.1558 80.3131C38.271 80.9041 37.2821 80.9988 36.5925 80.9751C36.137 80.3722 35.7729 79.7339 35.5257 79.0482C35.9811 79.2137 36.4493 79.2728 36.8917 79.1901L36.9178 79.1901ZM37.9848 86.7321C36.9439 85.9283 36.7227 84.6042 36.7488 83.5521C37.4904 84.1905 38.4664 84.7697 39.6895 84.9234C43.3198 85.4081 46.794 81.9327 47.4706 78.4927C47.5356 78.1735 47.5618 77.8779 47.5748 77.5824L49.7867 77.5824C48.2123 81.4716 44.9333 87.1458 40.9777 87.4296C40.5092 87.465 39.0648 87.5596 37.9979 86.744L37.9848 86.7321ZM37.9327 88.4935C38.8306 88.8718 39.8844 89.0373 41.0946 88.9546C46.4555 88.5881 49.9688 81.4835 51.3221 78.1971C53.3389 80.9988 55.8502 83.6113 59.6887 84.8171C63.28 85.9519 65.7524 85.5736 67.3659 84.8879C65.3751 86.8503 62.3954 88.4581 58.5959 89.5811C51.4133 91.6972 42.448 91.6144 39.0259 89.3801C38.5965 89.0964 38.232 88.8009 37.9197 88.4935L37.9327 88.4935ZM75.7065 89.7347C76.9556 90.7277 78.231 91.4606 79.4541 92.0044C78.0488 91.8507 76.4741 91.4253 75.0038 90.4677C73.7937 89.6757 72.7787 88.5763 72.0761 87.3114C72.1802 86.874 72.2582 86.4366 72.3232 85.9992C73.117 87.2405 74.1971 88.5407 75.7065 89.7465L75.7065 89.7347ZM77.3069 74.2723L73.911 77.1213C73.911 77.1213 73.911 77.1213 73.911 77.1332C73.8589 77.1805 73.8067 77.2396 73.7677 77.3105C73.7547 77.3342 73.7286 77.3577 73.7156 77.3814C73.6896 77.4405 73.6765 77.4996 73.6635 77.5706C73.6635 77.606 73.6374 77.6414 73.6374 77.6769C73.6374 77.8897 73.7418 78.0788 73.8979 78.2206L77.3199 81.247L72.4535 82.0863C72.4274 81.6252 72.4013 81.1997 72.3753 80.8096C72.2972 79.7693 72.1413 78.729 71.894 77.7124C72.1413 76.3766 72.2584 75.0289 72.2975 73.6931L77.3069 74.2723ZM72.0239 68.2671C72.7266 66.9549 73.7546 65.8319 75.0037 65.0162C76.4741 64.0587 78.0487 63.6331 79.454 63.4794C78.2309 64.0232 76.9426 64.7562 75.7064 65.7492C74.0669 67.0613 72.9219 68.5035 72.1151 69.8393C72.0501 69.3428 71.9851 68.87 71.9201 68.3971C71.9591 68.3499 71.9979 68.3144 72.0239 68.2671ZM50.8925 49.0574C55.5248 47.1068 61.1331 52.2018 61.1852 52.2491C63.5143 54.4006 64.3991 56.9895 64.7374 58.8927C64.6073 58.8336 64.4771 58.7626 64.347 58.7035C62.8897 58.1243 61.9397 58.0417 61.0159 57.9589C60.3002 57.8998 59.5456 57.8289 58.4526 57.5097C56.748 57.0014 55.9934 56.4102 55.0175 55.6536C54.2238 55.0389 53.326 54.3296 51.7776 53.5494C50.8277 53.0647 49.4874 52.391 47.861 51.8945C48.4595 50.8424 49.4092 49.6839 50.8925 49.0574ZM34.4716 58.1361C35.9159 53.8331 41.9796 52.8875 42.0447 52.8756C45.8441 52.3082 49.175 53.9986 50.9577 54.8971C52.3499 55.6063 53.1567 56.2211 53.9244 56.824C54.9524 57.616 55.9154 58.3726 57.9322 58.9755C59.2074 59.3538 60.0792 59.4247 60.8599 59.4956C61.7187 59.5665 62.4603 59.6375 63.6704 60.1222C65.5701 60.8787 67.1707 62.0372 68.3027 63.4676C69.8641 65.4299 70.1112 67.3687 70.4496 70.064C70.6057 71.3052 70.6709 72.5582 70.6319 73.8113C69.617 71.5179 68.1726 69.4847 66.3639 67.8416C62.4473 64.2833 57.2814 63.6331 47.015 62.3446C45.0112 62.0963 43.0726 61.9308 41.3811 62.1909C41.277 62.0254 41.1207 61.8953 40.9125 61.8362C38.7265 61.1624 36.4624 61.2215 34.4456 61.8362C34.1593 60.8196 34.0162 59.5074 34.4846 58.1361L34.4716 58.1361ZM31.6478 65.3826C33.3134 63.4557 36.1241 62.5692 38.9477 62.983C38.6224 63.1721 38.2971 63.3967 38.0108 63.6686C37.1911 64.4133 36.6706 65.4063 36.3974 66.5766C35.3304 66.5057 33.743 66.6122 32.2597 67.5579C31.3358 68.1489 30.6331 68.9764 30.1776 69.8985C30.1126 68.6809 30.3206 66.9312 31.6608 65.3826L31.6478 65.3826ZM27.8094 79.3438C27.1588 76.3411 28.6814 73.8586 29.6182 72.6765C29.6442 73.0548 29.6962 73.4212 29.8133 73.7876C30.2947 75.3717 31.4137 76.3766 32.3245 76.9677C31.3616 77.7715 30.2818 79.0481 29.9435 80.8686C29.7874 81.7079 29.8264 82.4646 29.9435 83.1502C29.1368 82.3227 28.1867 81.0579 27.8094 79.3438ZM30.3079 84.4034C30.6072 85.1363 30.9715 85.6919 31.2187 85.9992C32.7801 88.0443 35.0702 88.7063 36.1112 88.9072C36.6057 89.4865 37.2432 90.1011 38.05 90.6213C38.8567 91.1532 39.9236 91.5671 41.1727 91.8862C38.8306 93.1511 35.877 93.1865 33.4958 91.8271C30.7373 90.2548 29.4621 87.2287 30.3079 84.3915L30.3079 84.4034Z" fill="#DFD4CF" fill-opacity="0.05"/>
<path d="M342.022 51.8611C338.73 50.0052 334.944 50.4425 332.42 51.1045C331.183 49.5796 329.218 47.83 326.382 47.2626C320.709 46.1277 314.945 50.5253 312.876 55.2539C312.251 56.6842 311.952 58.2329 311.952 59.8406C311.158 60.4316 310.377 61.1409 309.675 62.0038C308.855 62.9968 308.269 64.0252 307.84 65.0655C307.124 64.1435 306.265 63.3161 305.277 62.6777C301.243 60.0297 296.585 60.8217 295.257 61.1291C294.867 61.2118 294.607 61.5428 294.62 61.8975C294.62 62.2521 294.919 62.5595 295.31 62.6304C297.157 62.9496 299.916 63.7534 302.466 65.7985C304.509 67.4298 305.693 69.2741 306.396 70.799L300.059 71.8865C299.746 71.9338 299.499 72.1467 299.408 72.4185C299.317 72.6904 299.408 72.9859 299.63 73.1868L302.726 75.9295L293.982 75.9295C293.514 75.9295 293.137 76.2723 293.137 76.6979C293.137 77.1235 293.514 77.4663 293.982 77.4663L302.635 77.4663L299.499 80.1025C299.252 80.3034 299.174 80.6225 299.265 80.9062C299.369 81.1899 299.643 81.4028 299.968 81.4383L306.526 82.1949C305.849 83.7671 304.652 85.7531 302.466 87.5027C299.903 89.5478 297.157 90.3633 295.31 90.6707C294.919 90.7416 294.633 91.0372 294.62 91.4036C294.594 91.7701 294.867 92.0893 295.257 92.172C296.585 92.4794 301.23 93.2714 305.277 90.6234C306.253 89.985 307.111 89.1695 307.827 88.2474C308.165 89.4768 308.699 90.647 309.636 91.8173C310.469 92.8695 311.535 93.7679 312.745 94.5245C312.928 96.6405 313.722 100.27 316.923 103.225C317.183 103.473 323.428 109.148 329.128 106.736C331.184 105.873 332.407 104.277 333.109 102.918C334.463 103.178 335.959 103.272 337.546 103.036C337.833 102.989 344.716 101.901 346.46 96.7114C346.733 95.9076 346.837 95.1274 346.837 94.3945C346.837 93.4724 346.668 92.6213 346.447 91.9238C347.409 91.4273 348.294 90.7771 348.997 89.9733C351.248 87.3844 350.91 84.3226 350.675 83.1287C351.508 82.1948 353.356 79.7241 353.356 76.5205C353.356 75.9531 353.304 75.3739 353.174 74.771C352.744 72.7614 351.651 71.2482 350.701 70.2788C351.612 66.9806 350.181 63.5051 347.123 61.5428C347.123 59.9232 346.72 54.521 342.048 51.8848L342.022 51.8611ZM314.45 55.8213C316.272 51.6601 321.36 47.83 326.018 48.7639C328.126 49.1895 329.674 50.4307 330.728 51.6364C329.088 52.2393 328.06 52.9841 327.072 53.7052C325.835 54.6036 324.677 55.443 322.257 56.1405C321.112 56.4715 320.462 56.5424 319.811 56.6252C319.056 56.7079 318.276 56.8024 316.923 57.2753C316.272 57.5117 315.062 57.9374 313.695 58.6939C313.799 57.7009 314.047 56.7197 314.45 55.8213ZM317.534 58.7056C318.692 58.2919 319.317 58.221 320.032 58.1382C320.722 58.0555 321.49 57.9728 322.778 57.5945C325.497 56.8024 326.903 55.7858 328.139 54.8873C329.167 54.1426 330.13 53.4452 331.782 52.8896C333.877 52.1921 337.859 51.3173 341.125 53.1496C344.404 55.0056 345.184 58.6703 345.353 60.5972C342.192 59.4032 338.548 59.9469 335.92 62.0275C331.379 61.3655 325.393 61.7792 320.162 63.3278C314.411 65.0301 310.338 67.8318 308.504 71.3073C308.451 68.8011 308.79 65.6212 311.028 62.8904C313.253 60.1952 316.363 59.0958 317.547 58.6821L317.534 58.7056ZM347.696 73.2578C347.422 74.7355 346.512 75.7521 345.744 76.3787C345.705 76.1659 345.679 75.9412 345.614 75.7284C345.327 74.6054 344.794 73.5298 344.065 72.5722C344.482 71.5556 344.703 70.5271 344.703 69.5577C344.703 68.8248 344.56 68.1273 344.325 67.4535C345.106 67.7963 345.978 68.3519 346.681 69.2622C347.11 69.8178 348.06 71.3309 347.696 73.2578ZM346.069 85.5639C345.315 86.0486 344.508 86.2259 343.831 86.2732C345.679 83.8616 345.874 80.2324 345.874 78.8611C345.874 78.7548 345.874 78.672 345.874 78.6011C346.551 79.0149 347.5 79.7833 347.865 81.0127C348.372 82.7032 347.644 84.5709 346.069 85.5758L346.069 85.5639ZM309.102 76.5797C309.18 75.3739 309.636 72.655 311.926 71.2364C313.136 70.4917 315.348 69.8532 319.043 71.0117C323.819 72.513 326.304 76.4732 328.724 80.3033C331.157 84.1571 333.461 87.7981 337.872 88.4601C339.225 88.6611 340.266 88.4955 341.007 88.2709C340.786 88.8029 340.487 89.264 340.084 89.6304C338.626 90.9781 336.206 90.9662 332.537 90.5052C322.635 89.2639 317.664 88.6375 314.151 85.4457C311.653 83.176 309.922 80.1143 309.115 76.5797L309.102 76.5797ZM340.812 86.6987C340.097 87.0061 339.147 87.0888 338.145 86.9469C334.527 86.415 332.511 83.2232 330.195 79.5467C329.947 79.1566 329.687 78.743 329.427 78.3411L331.821 78.3411C331.977 79.2395 332.277 79.9606 332.511 80.4217C332.992 81.3555 334.424 83.6251 337.403 84.4526C337.911 84.5945 338.952 84.8783 340.175 84.701C341.476 84.5118 342.673 83.8262 343.662 82.7741C343.219 84.4054 342.374 86.0249 340.812 86.6869L340.812 86.6987ZM339.355 70.9762C340.175 71.0826 340.851 71.4965 341.398 71.9575C340.669 72.0757 339.862 72.3358 339.095 72.8441C336.883 74.3454 336.557 77.0289 337.195 78.8848C337.976 81.1545 339.329 81.8756 340.331 82.0884C340.93 82.2184 341.554 82.1949 342.153 82.0412C341.476 82.6795 340.708 83.0933 339.902 83.2115C339.069 83.3297 338.301 83.1169 337.885 83.0105C335.49 82.3485 334.332 80.3862 334.033 79.7951C333.695 79.1213 333.174 77.7617 333.487 76.1777C334.007 73.5415 336.74 70.6453 339.355 70.9999L339.355 70.9762ZM344.065 77.5845C344.065 77.5845 344.143 77.6435 344.169 77.679C344.169 77.7972 344.169 77.9037 344.169 78.0219C344.169 78.0219 344.143 78.0219 344.13 78.0455C343.102 78.8139 342.101 78.8375 341.905 78.672C341.853 78.6247 341.788 78.4473 341.788 78.2109C341.788 78.0454 341.814 77.8445 341.892 77.6317C342.049 77.147 342.374 76.7688 342.673 76.7215C343.037 76.6624 343.649 76.9698 344.065 77.6082L344.065 77.5845ZM342.374 75.1847C341.411 75.3502 340.63 76.095 340.279 77.1708C340.019 77.9864 339.992 79.0976 340.747 79.7596C341.164 80.126 341.762 80.2798 342.426 80.2561C341.84 80.5635 341.229 80.6816 340.734 80.5752C339.927 80.4097 339.251 79.6414 338.834 78.4119C338.353 77.0052 338.639 75.0666 340.136 74.0617C341.033 73.4588 342.061 73.376 342.699 73.3997C343.141 73.9907 343.519 74.6409 343.766 75.3147C343.311 75.1492 342.842 75.0901 342.4 75.1729L342.374 75.1847ZM341.307 67.6545C342.348 68.4583 342.569 69.7823 342.543 70.8344C341.801 70.196 340.825 69.6169 339.602 69.4632C335.972 68.9785 332.498 72.4539 331.821 75.894C331.756 76.2131 331.73 76.5087 331.717 76.8042L329.505 76.8042C331.079 72.915 334.358 67.2408 338.314 66.9571C338.783 66.9216 340.227 66.827 341.294 67.6427L341.307 67.6545ZM341.346 65.8931C340.448 65.5148 339.394 65.3493 338.184 65.4321C332.823 65.7985 329.31 72.9032 327.957 76.1895C325.94 73.3878 323.428 70.7753 319.59 69.5695C315.998 68.4347 313.526 68.8129 311.913 69.4986C313.904 67.5362 316.883 65.9285 320.683 64.8055C327.865 62.6895 336.831 62.7723 340.253 65.0065C340.682 65.2902 341.046 65.5857 341.346 65.8813L341.346 65.8931ZM303.585 64.6518C302.336 63.6588 301.061 62.926 299.838 62.3822C301.243 62.5359 302.817 62.9614 304.288 63.9189C305.511 64.7227 306.487 65.7867 307.202 67.0753C307.098 67.5126 307.02 67.9618 306.955 68.3874C306.161 67.158 305.082 65.8576 303.585 64.6518ZM301.985 80.1143L305.381 77.2653C305.433 77.218 305.485 77.147 305.524 77.0879C305.537 77.0643 305.563 77.0407 305.576 77.0171C305.602 76.958 305.615 76.8988 305.628 76.8279C305.628 76.7924 305.654 76.757 305.654 76.7215C305.654 76.5088 305.55 76.3195 305.394 76.1777L301.971 73.1515L306.838 72.312C306.864 72.7731 306.89 73.1987 306.916 73.5889C306.994 74.6291 307.15 75.6694 307.398 76.6861C307.15 78.0219 307.02 79.3695 306.981 80.7054L301.985 80.1261L301.985 80.1143ZM307.267 86.1195C306.552 87.4553 305.55 88.5429 304.288 89.3704C302.817 90.3279 301.243 90.7654 299.838 90.9072C301.061 90.3634 302.349 89.6305 303.585 88.6375C305.238 87.3253 306.37 85.8831 307.176 84.5473C307.241 85.0438 307.307 85.5166 307.372 85.9895C307.333 86.0368 307.294 86.0722 307.267 86.1195ZM328.399 105.317C323.767 107.28 318.159 102.173 318.107 102.126C315.777 99.9742 314.893 97.3853 314.554 95.4821C314.684 95.5412 314.815 95.612 314.945 95.6711C316.402 96.2504 317.352 96.3331 318.276 96.4159C318.991 96.475 319.746 96.5459 320.839 96.8651C322.543 97.3734 323.298 97.9646 324.274 98.7211C325.068 99.3359 325.966 100.045 327.514 100.825C328.464 101.31 329.804 101.984 331.431 102.48C330.832 103.532 329.882 104.691 328.399 105.317ZM344.82 96.2504C343.389 100.542 337.312 101.499 337.26 101.511C333.461 102.078 330.129 100.388 328.347 99.4894C326.955 98.7801 326.148 98.1656 325.38 97.5627C324.352 96.7588 323.389 96.014 321.373 95.4111C320.097 95.0328 319.226 94.962 318.445 94.891C317.586 94.8201 316.844 94.7491 315.634 94.2645C313.734 93.5079 312.134 92.3493 311.002 90.9189C309.441 88.9566 309.193 87.0179 308.855 84.3226C308.699 83.0814 308.634 81.8283 308.673 80.5752C309.701 82.8685 311.132 84.9019 312.941 86.5569C316.857 90.1151 322.023 90.7653 332.302 92.0539C334.306 92.3021 336.245 92.4676 337.937 92.2075C338.041 92.373 338.197 92.503 338.392 92.5621C340.578 93.2241 342.842 93.1768 344.859 92.5621C345.145 93.5787 345.276 94.8909 344.82 96.2622L344.82 96.2504ZM347.644 89.0038C345.978 90.9307 343.168 91.8174 340.344 91.4036C340.669 91.2145 340.995 90.9899 341.281 90.718C342.101 89.9615 342.621 88.9803 342.894 87.81C343.961 87.881 345.549 87.7745 347.032 86.8288C347.956 86.2377 348.659 85.422 349.114 84.5C349.179 85.7176 348.971 87.4671 347.631 89.0038L347.644 89.0038ZM351.482 75.0429C352.133 78.0455 350.623 80.528 349.674 81.7101C349.648 81.3319 349.595 80.9653 349.478 80.587C348.997 79.003 347.878 77.9982 346.967 77.4071C347.93 76.6033 349.01 75.3265 349.361 73.506C349.439 73.1159 349.465 72.7377 349.465 72.383C349.465 71.9693 349.413 71.591 349.348 71.2246C350.155 72.0521 351.105 73.3051 351.482 75.031L351.482 75.0429ZM348.984 69.9833C348.685 69.2503 348.32 68.6948 348.073 68.3874C346.512 66.3423 344.221 65.6804 343.168 65.4794C342.699 64.9238 342.075 64.309 341.229 63.7652C340.422 63.2332 339.355 62.8196 338.106 62.5004C340.448 61.2355 343.402 61.1999 345.783 62.5594C348.541 64.1316 349.817 67.1461 348.971 69.9951L348.984 69.9833Z" fill="#DFD4CF" fill-opacity="0.05"/>
<path d="M67.1468 3.79518C67.1468 2.54166 66.0283 1.52542 64.6486 1.52542C63.2688 1.52542 62.1504 2.54166 62.1504 3.79518C62.1504 5.04871 63.2688 6.06494 64.6486 6.06494C66.0284 6.06494 67.1468 5.04871 67.1468 3.79518Z" fill="#DFD4CF" fill-opacity="0.05"/>
<path d="M48.0984 7.8732C48.0984 6.76984 47.1139 5.87546 45.8994 5.87546C44.685 5.87546 43.7002 6.76984 43.7002 7.8732C43.7002 8.97657 44.685 9.87109 45.8995 9.87109C47.1139 9.87109 48.0984 8.97657 48.0984 7.8732Z" fill="#DFD4CF" fill-opacity="0.05"/>
<path d="M88.7347 13.9378C87.0041 13.9378 85.599 15.2146 85.599 16.7868C85.599 17.9926 86.4318 19.0211 87.5898 19.4348C88.5657 19.9077 90.3222 20.5342 92.287 20.0022C95.1106 19.2338 96.0864 16.7159 96.4638 15.7702C96.8411 14.8127 96.9844 13.8788 96.9844 13.0159C96.9844 10.6989 95.9694 8.81916 95.579 8.16898C92.5472 3.25128 85.6248 2.42382 82.7882 2.29378C80.2638 2.18739 77.9868 2.5775 75.996 3.18039C75.6446 -2.22199 70.7001 -6.52493 64.6626 -6.52493C58.625 -6.52493 53.3032 -1.89097 53.3032 3.79512C53.3032 9.48121 58.4039 14.1152 64.6626 14.1152C70.4529 14.1152 75.2282 10.1668 75.9308 5.07178C77.8696 4.39796 80.147 3.93693 82.6973 4.04333C85.2086 4.14972 91.324 4.85909 93.8744 9.0084C94.1997 9.52854 95.7482 12.2947 94.6292 15.1555C94.3299 15.9357 93.6143 17.768 91.7406 18.2763C91.6105 18.3118 91.4803 18.3237 91.3501 18.3473C91.6885 17.8981 91.8835 17.3542 91.8835 16.7632C91.8835 15.1909 90.4783 13.9143 88.7477 13.9143L88.7347 13.9378ZM64.6496 11.7627C59.8222 11.7627 55.8926 8.19269 55.8926 3.80696C55.8925 -0.578781 59.8221 -4.14882 64.6496 -4.14882C69.477 -4.14882 73.4066 -0.578781 73.4066 3.80696C73.4066 3.92517 73.3936 4.04345 73.3805 4.17349C72.821 4.42174 72.3006 4.6817 71.8192 4.9536C71.8972 4.58713 71.9364 4.19706 71.9364 3.80696C71.9364 0.154146 68.6572 -2.82483 64.6365 -2.82483C60.6158 -2.82483 57.337 0.154146 57.337 3.80696C57.337 7.45977 60.6159 10.4387 64.6366 10.4387C66.5884 10.4387 68.3712 9.72952 69.6854 8.58284C69.6854 8.58284 69.6981 8.58283 69.7111 8.57101C70.3747 8.02723 71.4549 7.21147 72.8993 6.41944C71.7022 9.52846 68.4491 11.7627 64.6366 11.7627L64.6496 11.7627ZM64.6496 8.6537C61.7089 8.6537 59.3015 6.47858 59.3015 3.79512C59.3015 1.11167 61.6959 -1.06345 64.6496 -1.06345C67.6033 -1.06345 69.9976 1.11167 69.9976 3.79512C69.9976 6.47858 67.6033 8.6537 64.6496 8.6537Z" fill="#DFD4CF" fill-opacity="0.05"/>
<path d="M15.2415 53.1614C15.2415 52.0581 14.257 51.1637 13.0425 51.1637C11.828 51.1637 10.8433 52.0581 10.8433 53.1614C10.8433 54.2648 11.828 55.1592 13.0425 55.1592C14.257 55.1592 15.2415 54.2648 15.2415 53.1614Z" fill="#DFD4CF" fill-opacity="0.05"/>
<path d="M319.067 3.84367C319.067 2.5906 317.949 1.57391 316.569 1.57391C315.19 1.57391 314.071 2.5906 314.071 3.84367C314.071 5.09673 315.19 6.11328 316.569 6.11328C317.949 6.11328 319.068 5.09673 319.067 3.84367Z" fill="#DFD4CF" fill-opacity="0.05"/>
<path d="M337.519 7.90934C337.519 6.80597 336.535 5.91159 335.32 5.91159C334.106 5.91159 333.121 6.80597 333.121 7.90934C333.121 9.0127 334.106 9.90723 335.32 9.90723C336.535 9.90723 337.519 9.0127 337.519 7.90934Z" fill="#DFD4CF" fill-opacity="0.05"/>
<path d="M298.446 2.32984C295.609 2.45988 288.674 3.27552 285.655 8.20504C285.096 9.10346 283.404 12.319 284.757 15.8181C285.121 16.7638 286.111 19.2817 288.934 20.0501C290.899 20.5821 292.668 19.9674 293.631 19.4827C294.789 19.0689 295.622 18.0405 295.622 16.8347C295.622 15.2625 294.217 13.9857 292.486 13.9857C290.756 13.9857 289.35 15.2625 289.35 16.8347C289.35 17.4258 289.546 17.9695 289.884 18.4187C289.754 18.3951 289.624 18.3833 289.494 18.3479C287.62 17.8396 286.904 16.0072 286.605 15.227C285.486 12.3662 287.047 9.59995 287.359 9.07981C289.91 4.9305 296.026 4.22128 298.537 4.11488C301.087 4.00849 303.364 4.4577 305.303 5.14334C306.006 10.2265 310.781 14.1867 316.572 14.1867C322.843 14.1867 327.931 9.55277 327.931 3.86668C327.931 -1.81941 322.83 -6.45352 316.572 -6.45352C310.313 -6.45352 305.602 -2.15043 305.238 3.25194C303.247 2.63723 300.97 2.24713 298.446 2.36534L298.446 2.32984ZM307.815 3.84301C307.815 -0.542723 311.744 -4.11276 316.572 -4.11276C321.399 -4.11276 325.329 -0.542723 325.329 3.84301C325.329 8.22875 321.399 11.7988 316.572 11.7988C312.746 11.7988 309.506 9.56452 308.309 6.45549C309.753 7.24753 310.846 8.05146 311.497 8.60707C311.497 8.60707 311.51 8.60694 311.523 8.61876C312.837 9.76543 314.607 10.4748 316.572 10.4748C320.592 10.4748 323.871 7.49582 323.871 3.84301C323.871 0.190204 320.592 -2.78877 316.572 -2.78877C312.551 -2.78877 309.272 0.190204 309.272 3.84301C309.272 4.23312 309.311 4.61137 309.389 4.98965C308.907 4.72958 308.387 4.45765 307.827 4.2094C307.827 4.09119 307.801 3.97305 307.801 3.84301L307.815 3.84301ZM311.223 3.84301C311.223 1.17138 313.618 -1.01556 316.572 -1.01556C319.525 -1.01556 321.919 1.15956 321.919 3.84301C321.919 6.52647 319.525 8.70159 316.572 8.70159C313.618 8.70159 311.223 6.52647 311.223 3.84301Z" fill="#DFD4CF" fill-opacity="0.05"/>
<path d="M370.376 53.1966C370.376 52.0932 369.391 51.1987 368.177 51.1987C366.962 51.1987 365.978 52.0932 365.978 53.1966C365.978 54.3 366.962 55.1943 368.177 55.1943C369.391 55.1943 370.376 54.3 370.376 53.1966Z" fill="#DFD4CF" fill-opacity="0.05"/>
<path d="M78.088 46.6219C78.088 46.8583 78.088 47.0711 78.075 47.2366C77.7758 53.4192 73.5208 59.1053 66.9628 62.0607C66.5464 62.2498 66.0388 62.0961 65.8306 61.7178C65.6224 61.3395 65.7916 60.8785 66.208 60.6893C72.2065 57.9822 76.1102 52.8044 76.3834 47.1774C76.4615 45.4515 76.3184 39.4936 70.9184 35.4152C65.5185 31.3368 58.9603 32.318 57.0866 32.7199C50.9059 34.0439 48.1734 38.1814 48.0303 38.6898C47.8872 39.3281 48.0694 39.8719 48.0694 39.8719C48.1214 40.0138 48.1866 40.132 48.2257 40.1911C48.4989 40.5694 48.9802 40.7703 49.3445 40.853C49.7999 40.9712 50.0601 41.3969 49.93 41.7988C49.7999 42.2125 49.3314 42.4489 48.889 42.3307C48.2514 42.1652 47.3667 41.7987 46.7812 40.9712C46.6771 40.8175 46.573 40.6048 46.4689 40.3448C46.4299 40.2502 46.1435 39.4108 46.3778 38.3706C46.612 37.3066 49.9299 32.6608 56.7092 31.2186C58.7781 30.7812 66.0127 29.6936 72.0112 34.2212C77.4763 38.3469 78.1011 44.163 78.1011 46.61L78.088 46.6219Z" fill="#DFD4CF" fill-opacity="0.05"/>
<path d="M53.3533 39.3155C53.3533 37.5723 51.7976 36.1591 49.8789 36.1591C47.9601 36.1591 46.4048 37.5723 46.4048 39.3155C46.4048 41.0586 47.9601 42.4717 49.8789 42.4717C51.7976 42.4717 53.3533 41.0586 53.3533 39.3155Z" fill="#DFD4CF" fill-opacity="0.05"/>
<path d="M333.007 38.7624C333.007 39.4008 332.851 39.8501 332.825 39.9211C332.721 40.193 332.604 40.3939 332.539 40.5121C331.928 41.3751 331.043 41.7415 330.405 41.907C329.95 42.0252 329.481 41.7888 329.364 41.3751C329.234 40.9613 329.494 40.5357 329.949 40.4293C330.314 40.3347 330.808 40.1338 331.095 39.72C331.095 39.6964 331.173 39.5782 331.225 39.4363C331.225 39.4363 331.407 38.8926 331.264 38.2542C331.121 37.7459 328.388 33.6083 322.207 32.2843C320.334 31.8824 313.776 30.8895 308.376 34.9797C302.976 39.058 302.833 45.0041 302.911 46.7419C303.184 52.3689 307.074 57.5467 313.086 60.2538C313.502 60.4429 313.672 60.904 313.463 61.2823C313.255 61.6605 312.748 61.8143 312.332 61.6251C305.774 58.6698 301.519 52.9836 301.219 46.801C301.128 44.8978 301.297 38.3251 307.296 33.7975C313.307 29.2581 320.529 30.3456 322.598 30.7948C329.377 32.237 332.695 36.8947 332.929 37.9468C332.994 38.2424 333.02 38.5142 333.02 38.7624L333.007 38.7624Z" fill="#DFD4CF" fill-opacity="0.05"/>
<path d="M332.888 38.8809C332.888 37.1377 331.333 35.7245 329.414 35.7245C327.495 35.7245 325.94 37.1377 325.94 38.8809C325.94 40.6241 327.495 42.0371 329.414 42.0371C331.333 42.0371 332.888 40.6241 332.888 38.8809Z" fill="#DFD4CF" fill-opacity="0.05"/>
</g>
<path d="M103.172 24.104C104.276 24.104 105.416 24.212 106.592 24.428C107.768 24.62 108.704 24.896 109.4 25.256C109.592 25.352 109.712 25.46 109.76 25.58C109.832 25.676 109.892 25.856 109.94 26.12L110.336 30.476C110.336 30.548 110.276 30.596 110.156 30.62C110.036 30.62 109.964 30.584 109.94 30.512C109.316 28.64 108.296 27.248 106.88 26.336C105.464 25.4 103.76 24.932 101.768 24.932C100.016 24.932 98.4922 25.34 97.1962 26.156C95.9002 26.948 94.9042 28.076 94.2082 29.54C93.5362 31.004 93.2002 32.696 93.2002 34.616C93.2002 36.848 93.6322 38.9 94.4962 40.772C95.3602 42.644 96.5242 44.132 97.9882 45.236C99.4762 46.316 101.096 46.856 102.848 46.856C106.304 46.856 108.776 44.876 110.264 40.916C110.264 40.844 110.312 40.808 110.408 40.808C110.48 40.808 110.54 40.82 110.588 40.844C110.66 40.868 110.696 40.904 110.696 40.952L110.192 45.308C110.144 45.596 110.084 45.788 110.012 45.884C109.964 45.956 109.832 46.04 109.616 46.136C107.408 47 105.152 47.432 102.848 47.432C99.9442 47.432 97.5202 46.856 95.5762 45.704C93.6322 44.528 92.2042 43.04 91.2922 41.24C90.3802 39.44 89.9242 37.556 89.9242 35.588C89.9242 33.356 90.5362 31.376 91.7602 29.648C93.0082 27.896 94.6402 26.54 96.6562 25.58C98.6962 24.596 100.868 24.104 103.172 24.104ZM120.63 47.468C119.214 47.468 117.966 47.132 116.886 46.46C115.806 45.764 114.966 44.84 114.366 43.688C113.79 42.512 113.502 41.24 113.502 39.872C113.502 38.312 113.886 36.992 114.654 35.912C115.422 34.808 116.406 33.992 117.606 33.464C118.806 32.912 120.03 32.636 121.278 32.636C122.694 32.636 123.942 32.984 125.022 33.68C126.102 34.376 126.93 35.3 127.506 36.452C128.082 37.58 128.37 38.78 128.37 40.052C128.37 41.516 128.01 42.812 127.29 43.94C126.594 45.068 125.658 45.944 124.482 46.568C123.306 47.168 122.022 47.468 120.63 47.468ZM121.674 46.784C122.874 46.784 123.798 46.316 124.446 45.38C125.094 44.444 125.418 43.04 125.418 41.168C125.418 39.608 125.178 38.24 124.698 37.064C124.242 35.864 123.606 34.952 122.79 34.328C121.974 33.68 121.062 33.356 120.054 33.356C118.878 33.356 117.966 33.812 117.318 34.724C116.694 35.612 116.382 36.932 116.382 38.684C116.382 40.196 116.61 41.576 117.066 42.824C117.522 44.048 118.146 45.02 118.938 45.74C119.754 46.436 120.666 46.784 121.674 46.784ZM137.673 43.544C138.873 43.592 139.905 43.916 140.769 44.516C141.657 45.116 142.329 45.884 142.785 46.82C143.241 47.756 143.469 48.752 143.469 49.808C143.469 51.2 143.145 52.448 142.497 53.552C141.849 54.656 140.925 55.52 139.725 56.144C138.549 56.792 137.205 57.116 135.693 57.116C134.085 57.116 132.753 56.852 131.697 56.324C130.665 55.796 130.149 55.124 130.149 54.308C130.149 53.852 130.281 53.504 130.545 53.264C130.809 53.048 131.121 52.94 131.481 52.94C131.937 52.94 132.309 53.06 132.597 53.3C132.885 53.564 133.185 53.948 133.497 54.452C133.977 55.124 134.433 55.628 134.865 55.964C135.321 56.324 135.969 56.504 136.809 56.504C138.057 56.504 138.969 55.904 139.545 54.704C140.121 53.504 140.409 52.028 140.409 50.276C140.409 46.076 138.189 43.976 133.749 43.976C133.653 43.976 133.593 43.904 133.569 43.76C133.545 43.616 133.605 43.544 133.749 43.544C135.741 43.544 137.145 43.088 137.961 42.176C138.777 41.24 139.185 39.92 139.185 38.216C139.185 34.976 138.069 33.356 135.837 33.356C134.805 33.356 133.833 33.764 132.921 34.58C132.033 35.396 131.325 36.56 130.797 38.072C130.773 38.096 130.725 38.108 130.653 38.108C130.437 38.108 130.341 38.06 130.365 37.964L131.625 32.348C131.625 32.3 131.673 32.276 131.769 32.276C131.841 32.276 131.913 32.3 131.985 32.348C132.057 32.372 132.081 32.396 132.057 32.42C132.033 32.516 132.021 32.648 132.021 32.816C132.021 33.056 132.081 33.236 132.201 33.356C132.321 33.452 132.453 33.5 132.597 33.5C132.885 33.5 133.281 33.404 133.785 33.212C134.337 33.02 134.841 32.876 135.297 32.78C135.753 32.684 136.293 32.636 136.917 32.636C138.549 32.636 139.821 33.104 140.733 34.04C141.645 34.952 142.101 36.092 142.101 37.46C142.101 38.78 141.705 40.004 140.913 41.132C140.121 42.236 139.041 43.04 137.673 43.544ZM158.134 32.744C158.158 32.72 158.194 32.708 158.242 32.708C158.29 32.708 158.338 32.732 158.386 32.78C158.458 32.804 158.494 32.828 158.494 32.852V49.52C158.494 51.8 157.846 53.636 156.55 55.028C155.254 56.42 153.454 57.116 151.15 57.116C149.662 57.116 148.45 56.864 147.514 56.36C146.578 55.88 146.11 55.232 146.11 54.416C146.11 53.936 146.242 53.576 146.506 53.336C146.77 53.12 147.082 53.012 147.442 53.012C147.874 53.012 148.222 53.12 148.486 53.336C148.75 53.576 149.026 53.936 149.314 54.416C149.746 55.064 150.178 55.544 150.61 55.856C151.042 56.192 151.69 56.36 152.554 56.36C153.634 56.36 154.486 55.928 155.11 55.064C155.734 54.224 156.046 52.664 156.046 50.384V44.588C155.206 45.452 154.342 46.136 153.454 46.64C152.59 47.144 151.642 47.396 150.61 47.396C149.122 47.396 147.874 46.856 146.866 45.776C145.858 44.672 145.354 43.136 145.354 41.168C145.354 39.44 145.75 37.928 146.542 36.632C147.358 35.336 148.39 34.352 149.638 33.68C150.91 32.984 152.206 32.636 153.526 32.636C154.798 32.636 155.962 32.984 157.018 33.68C157.498 33.44 157.87 33.128 158.134 32.744ZM152.014 45.956C153.286 45.956 154.63 45.296 156.046 43.976V36.488C156.046 35.6 155.71 34.856 155.038 34.256C154.366 33.656 153.562 33.356 152.626 33.356C151.282 33.356 150.202 33.98 149.386 35.228C148.57 36.476 148.162 38.084 148.162 40.052C148.162 41.852 148.498 43.292 149.17 44.372C149.866 45.428 150.814 45.956 152.014 45.956ZM178.322 44.804C178.394 44.804 178.442 44.864 178.466 44.984C178.514 45.104 178.502 45.176 178.43 45.2L174.002 47.36C173.954 47.384 173.894 47.396 173.822 47.396C173.63 47.396 173.426 47.132 173.21 46.604C173.018 46.076 172.898 45.404 172.85 44.588C172.01 45.452 171.158 46.136 170.294 46.64C169.43 47.144 168.47 47.396 167.414 47.396C165.926 47.396 164.678 46.856 163.67 45.776C162.662 44.672 162.158 43.136 162.158 41.168C162.158 39.44 162.554 37.928 163.346 36.632C164.162 35.336 165.194 34.352 166.442 33.68C167.714 32.984 169.01 32.636 170.33 32.636C171.602 32.636 172.766 32.984 173.822 33.68C174.302 33.44 174.674 33.128 174.938 32.744C174.962 32.72 174.998 32.708 175.046 32.708C175.094 32.708 175.142 32.732 175.19 32.78C175.262 32.804 175.298 32.828 175.298 32.852V43.148C175.298 43.916 175.382 44.468 175.55 44.804C175.742 45.14 176.054 45.308 176.486 45.308C176.798 45.308 177.386 45.152 178.25 44.84L178.322 44.804ZM168.818 45.956C170.09 45.956 171.434 45.296 172.85 43.976V36.488C172.85 35.6 172.514 34.856 171.842 34.256C171.17 33.656 170.366 33.356 169.43 33.356C168.086 33.356 167.006 33.98 166.19 35.228C165.374 36.476 164.966 38.084 164.966 40.052C164.966 41.852 165.302 43.292 165.974 44.372C166.67 45.428 167.618 45.956 168.818 45.956ZM205.475 46.568C205.547 46.568 205.583 46.64 205.583 46.784C205.583 46.928 205.547 47 205.475 47C204.875 47 204.407 46.988 204.071 46.964L202.055 46.928L200.075 46.964C199.715 46.988 199.247 47 198.671 47C198.623 47 198.599 46.928 198.599 46.784C198.599 46.64 198.623 46.568 198.671 46.568C199.559 46.568 200.147 46.412 200.435 46.1C200.723 45.764 200.867 45.092 200.867 44.084V38.54C200.867 37.148 200.615 36.128 200.111 35.48C199.631 34.808 198.887 34.472 197.879 34.472C197.183 34.472 196.487 34.652 195.791 35.012C195.095 35.372 194.483 35.864 193.955 36.488V36.956V44.084C193.955 45.092 194.087 45.764 194.351 46.1C194.639 46.412 195.227 46.568 196.115 46.568C196.187 46.568 196.223 46.64 196.223 46.784C196.223 46.928 196.187 47 196.115 47C195.539 47 195.071 46.988 194.711 46.964L192.731 46.928L190.751 46.964C190.391 46.988 189.923 47 189.347 47C189.275 47 189.239 46.928 189.239 46.784C189.239 46.64 189.275 46.568 189.347 46.568C190.211 46.568 190.787 46.412 191.075 46.1C191.363 45.764 191.507 45.092 191.507 44.084V38.54C191.507 37.148 191.267 36.128 190.787 35.48C190.307 34.808 189.563 34.472 188.555 34.472C187.883 34.472 187.211 34.64 186.539 34.976C185.867 35.312 185.255 35.78 184.703 36.38V44.084C184.703 45.092 184.835 45.764 185.099 46.1C185.387 46.412 185.975 46.568 186.863 46.568C186.935 46.568 186.971 46.64 186.971 46.784C186.971 46.928 186.935 47 186.863 47C186.287 47 185.819 46.988 185.459 46.964L183.479 46.928L181.463 46.964C181.127 46.988 180.671 47 180.095 47C180.023 47 179.987 46.928 179.987 46.784C179.987 46.64 180.023 46.568 180.095 46.568C180.959 46.568 181.523 46.412 181.787 46.1C182.075 45.764 182.219 45.092 182.219 44.084V37.064C182.219 36.272 182.123 35.708 181.931 35.372C181.763 35.012 181.463 34.832 181.031 34.832C180.575 34.832 179.939 35 179.123 35.336H179.051C178.979 35.336 178.919 35.276 178.871 35.156C178.847 35.036 178.871 34.964 178.943 34.94L183.407 32.816C183.455 32.792 183.527 32.78 183.623 32.78C183.863 32.78 184.091 33.056 184.307 33.608C184.547 34.136 184.679 34.832 184.703 35.696C186.359 33.704 188.123 32.708 189.995 32.708C191.075 32.708 191.951 32.984 192.623 33.536C193.295 34.064 193.715 34.844 193.883 35.876C195.635 33.764 197.459 32.708 199.355 32.708C200.627 32.708 201.599 33.08 202.271 33.824C202.967 34.568 203.315 35.672 203.315 37.136V44.084C203.315 44.78 203.363 45.308 203.459 45.668C203.579 46.004 203.783 46.244 204.071 46.388C204.383 46.508 204.851 46.568 205.475 46.568ZM214.676 38.828C216.404 38.828 217.688 39.152 218.528 39.8C219.368 40.448 219.788 41.432 219.788 42.752C219.788 44.216 219.284 45.368 218.276 46.208C217.268 47.048 215.78 47.468 213.812 47.468C212.204 47.468 210.98 47.18 210.14 46.604C209.3 46.004 208.88 45.128 208.88 43.976V37.46C208.88 36.548 208.796 35.9 208.628 35.516C208.46 35.108 208.184 34.904 207.8 34.904C207.56 34.904 207.188 35 206.684 35.192H206.612C206.54 35.192 206.48 35.132 206.432 35.012C206.408 34.892 206.432 34.82 206.504 34.796L210.752 32.816L210.896 32.78C210.992 32.78 211.088 32.816 211.184 32.888C211.28 32.96 211.328 33.044 211.328 33.14V39.26C212.288 38.972 213.404 38.828 214.676 38.828ZM214.316 46.964C216.164 46.964 217.088 45.812 217.088 43.508C217.088 42.284 216.788 41.312 216.188 40.592C215.612 39.872 214.688 39.512 213.416 39.512C212.672 39.512 211.976 39.62 211.328 39.836V43.076C211.328 44.324 211.568 45.284 212.048 45.956C212.552 46.628 213.308 46.964 214.316 46.964ZM246.671 44.84C246.767 44.84 246.839 44.9 246.887 45.02C246.935 45.116 246.923 45.188 246.851 45.236L242.387 47.36C242.339 47.384 242.279 47.396 242.207 47.396C241.991 47.396 241.775 47.12 241.559 46.568C241.343 45.992 241.235 45.248 241.235 44.336C239.459 46.328 237.611 47.324 235.691 47.324C234.467 47.324 233.495 46.94 232.775 46.172C232.079 45.38 231.731 44.288 231.731 42.896V37.46C231.731 36.548 231.647 35.9 231.479 35.516C231.311 35.108 231.035 34.904 230.651 34.904C230.315 34.904 229.943 35 229.535 35.192H229.463C229.391 35.192 229.331 35.132 229.283 35.012C229.259 34.892 229.283 34.82 229.355 34.796L233.603 32.816L233.747 32.78C233.843 32.78 233.939 32.816 234.035 32.888C234.131 32.96 234.179 33.044 234.179 33.14V41.528C234.179 44.24 235.187 45.596 237.203 45.596C237.875 45.596 238.571 45.428 239.291 45.092C240.011 44.756 240.659 44.288 241.235 43.688V37.46C241.235 36.548 241.151 35.9 240.983 35.516C240.815 35.108 240.539 34.904 240.155 34.904C239.843 34.904 239.459 35 239.003 35.192H238.931C238.859 35.192 238.811 35.132 238.787 35.012C238.763 34.892 238.787 34.82 238.859 34.796L243.107 32.816L243.251 32.78C243.347 32.78 243.443 32.816 243.539 32.888C243.635 32.96 243.683 33.044 243.683 33.14V43.04C243.683 43.856 243.767 44.444 243.935 44.804C244.127 45.164 244.439 45.344 244.871 45.344C245.255 45.344 245.843 45.176 246.635 44.84H246.671ZM252.794 33.5C251.978 33.5 251.21 33.848 250.49 34.544C249.794 35.24 249.278 36.14 248.942 37.244C248.918 37.268 248.87 37.28 248.798 37.28C248.582 37.28 248.486 37.232 248.51 37.136L249.662 32.348C249.662 32.3 249.71 32.276 249.806 32.276C249.878 32.276 249.938 32.3 249.986 32.348C250.058 32.372 250.082 32.396 250.058 32.42C250.034 32.516 250.022 32.636 250.022 32.78C250.022 33.26 250.214 33.5 250.598 33.5C250.766 33.5 251.138 33.404 251.714 33.212C252.17 33.02 252.59 32.876 252.974 32.78C253.382 32.684 253.838 32.636 254.342 32.636C255.422 32.636 256.238 32.9 256.79 33.428C257.342 33.932 257.618 34.64 257.618 35.552C257.618 36.488 257.342 37.232 256.79 37.784C256.262 38.312 255.41 38.9 254.234 39.548C253.178 40.124 252.398 40.652 251.894 41.132C251.414 41.588 251.174 42.236 251.174 43.076C251.174 43.94 251.498 44.636 252.146 45.164C252.818 45.692 253.61 45.956 254.522 45.956C255.218 45.956 255.878 45.788 256.502 45.452C257.15 45.116 257.702 44.612 258.158 43.94C258.182 43.892 258.23 43.868 258.302 43.868C258.374 43.868 258.434 43.904 258.482 43.976C258.53 44.048 258.53 44.12 258.482 44.192C257.834 45.224 257.006 46.016 255.998 46.568C254.99 47.096 253.922 47.36 252.794 47.36C251.666 47.36 250.67 47.084 249.806 46.532C248.966 45.98 248.546 45.128 248.546 43.976C248.546 43.136 248.798 42.452 249.302 41.924C249.806 41.396 250.598 40.82 251.678 40.196C252.734 39.62 253.526 39.032 254.054 38.432C254.582 37.808 254.846 37.028 254.846 36.092C254.846 35.276 254.666 34.64 254.306 34.184C253.946 33.728 253.442 33.5 252.794 33.5ZM270.434 32.636C271.442 32.636 272.366 32.9 273.206 33.428C274.07 33.956 274.754 34.724 275.258 35.732C275.762 36.74 276.014 37.916 276.014 39.26C276.014 41.108 275.606 42.656 274.79 43.904C273.998 45.128 273.002 46.028 271.802 46.604C270.602 47.18 269.402 47.468 268.202 47.468C267.506 47.468 266.882 47.408 266.33 47.288C265.802 47.192 265.238 47.012 264.638 46.748V53.984C264.638 54.704 264.722 55.232 264.89 55.568C265.058 55.904 265.382 56.132 265.862 56.252C266.342 56.396 267.086 56.468 268.094 56.468C268.166 56.468 268.202 56.54 268.202 56.684C268.202 56.828 268.166 56.9 268.094 56.9C267.254 56.9 266.594 56.888 266.114 56.864L263.414 56.828L261.398 56.864C261.062 56.888 260.594 56.9 259.994 56.9C259.922 56.9 259.886 56.828 259.886 56.684C259.886 56.54 259.922 56.468 259.994 56.468C260.618 56.468 261.086 56.396 261.398 56.252C261.71 56.132 261.914 55.904 262.01 55.568C262.13 55.232 262.19 54.704 262.19 53.984V37.136C262.19 36.32 262.094 35.732 261.902 35.372C261.71 34.988 261.386 34.796 260.93 34.796C260.474 34.796 259.862 34.976 259.094 35.336H259.058C258.962 35.336 258.89 35.276 258.842 35.156C258.77 35.036 258.782 34.964 258.878 34.94L263.234 32.852L263.45 32.78C263.738 32.78 263.99 33.02 264.206 33.5C264.446 33.98 264.59 34.64 264.638 35.48C266.534 33.584 268.466 32.636 270.434 32.636ZM269.174 46.676C270.422 46.676 271.418 46.136 272.162 45.056C272.906 43.952 273.278 42.392 273.278 40.376C273.278 38.408 272.846 36.896 271.982 35.84C271.118 34.76 270.014 34.22 268.67 34.22C267.902 34.22 267.194 34.388 266.546 34.724C265.922 35.06 265.286 35.54 264.638 36.164V44.552C265.262 45.248 265.922 45.776 266.618 46.136C267.314 46.496 268.166 46.676 269.174 46.676ZM292.925 33.104C292.997 33.104 293.033 33.176 293.033 33.32C293.033 33.464 292.997 33.536 292.925 33.536C292.253 33.536 291.677 33.788 291.197 34.292C290.741 34.772 290.321 35.552 289.937 36.632L285.653 48.008C284.789 50.312 283.961 52.124 283.169 53.444C282.377 54.764 281.561 55.7 280.721 56.252C279.905 56.828 278.981 57.116 277.949 57.116C277.373 57.116 276.905 56.984 276.545 56.72C276.185 56.456 276.005 56.084 276.005 55.604C276.005 55.196 276.137 54.872 276.401 54.632C276.641 54.416 276.941 54.308 277.301 54.308C277.613 54.308 277.865 54.344 278.057 54.416C278.249 54.512 278.477 54.632 278.741 54.776C279.005 54.92 279.209 55.028 279.353 55.1C279.521 55.172 279.737 55.208 280.001 55.208C280.577 55.208 281.105 54.968 281.585 54.488C282.089 54.008 282.617 53.204 283.169 52.076C283.721 50.972 284.381 49.4 285.149 47.36L279.569 36.092C279.017 35.036 278.597 34.352 278.309 34.04C278.021 33.704 277.649 33.536 277.193 33.536C277.145 33.536 277.121 33.464 277.121 33.32C277.121 33.176 277.145 33.104 277.193 33.104L278.525 33.14C278.837 33.164 279.269 33.176 279.821 33.176L282.161 33.14C282.521 33.116 283.013 33.104 283.637 33.104C283.685 33.104 283.709 33.176 283.709 33.32C283.709 33.464 283.685 33.536 283.637 33.536C282.989 33.536 282.497 33.596 282.161 33.716C281.825 33.836 281.657 34.04 281.657 34.328C281.657 34.52 281.717 34.724 281.837 34.94L286.409 44.336L289.073 36.704C289.265 36.08 289.361 35.6 289.361 35.264C289.361 34.664 289.145 34.232 288.713 33.968C288.305 33.68 287.657 33.536 286.769 33.536C286.721 33.536 286.697 33.464 286.697 33.32C286.697 33.176 286.721 33.104 286.769 33.104C287.417 33.104 287.909 33.116 288.245 33.14L290.405 33.176L291.773 33.14C292.013 33.116 292.397 33.104 292.925 33.104Z" fill="#E3E3E3"/>
</g>
<defs>
<clipPath id="clip0_555_16801">
<rect width="73" height="380" fill="white" transform="translate(0.5 73) rotate(-90)"/>
</clipPath>
<clipPath id="clip1_555_16801">
<rect width="73" height="391" fill="white" transform="translate(-5 73) rotate(-90)"/>
</clipPath>
</defs>
</svg>
