<svg width="120" height="45" viewBox="0 0 120 45" fill="none" xmlns="http://www.w3.org/2000/svg">
<path d="M85.2476 0.510242C85.264 0.510242 85.2803 0.509441 85.2966 0.507843C85.3722 0.500405 85.4518 0.5 85.5599 0.5H111.686C113.883 0.5 115.853 1.17613 117.263 2.24637C118.672 3.31628 119.5 4.75843 119.5 6.31308V38.6972C119.5 40.2462 118.673 41.6859 117.263 42.7548C115.853 43.8239 113.883 44.5 111.686 44.5H85.5599C85.5222 44.5 85.4824 44.4981 85.4283 44.4955L85.4241 44.4953C85.3747 44.4928 85.3122 44.4898 85.2476 44.4898C85.2313 44.4898 85.215 44.4906 85.1987 44.4922C85.1231 44.4996 85.0434 44.5 84.9354 44.5H8.31386C6.11648 44.5 4.14649 43.8239 2.73673 42.7548C1.32727 41.6859 0.5 40.2462 0.5 38.6972V6.31308C0.5 4.75842 1.32773 3.31627 2.73695 2.24636C4.1466 1.17613 6.11648 0.5 8.31386 0.5H84.9354C84.9731 0.5 85.0128 0.501855 85.0669 0.504517L85.0713 0.504732C85.1207 0.507162 85.1832 0.510242 85.2476 0.510242Z" fill="url(#paint0_linear_555_16506)" stroke="url(#paint1_linear_555_16506)" stroke-linecap="round" stroke-linejoin="round"/>
<path d="M49.6914 28C49.67 28 49.6594 27.968 49.6594 27.904C49.6594 27.84 49.67 27.808 49.6914 27.808C50.1607 27.808 50.5127 27.7813 50.7474 27.728C50.9927 27.664 51.1687 27.5573 51.2754 27.408C51.382 27.248 51.4354 27.0133 51.4354 26.704V20.752C51.4354 20.0267 51.2647 19.664 50.9234 19.664C50.6674 19.664 50.2567 19.8667 49.6914 20.272L49.6594 20.288C49.6167 20.288 49.5847 20.2667 49.5634 20.224C49.542 20.1707 49.542 20.1333 49.5634 20.112L52.6514 17.888C52.694 17.8667 52.7314 17.856 52.7634 17.856C52.7847 17.856 52.806 17.8667 52.8274 17.888C52.8487 17.9093 52.8594 17.9307 52.8594 17.952V26.704C52.8594 27.024 52.9074 27.2587 53.0034 27.408C53.0994 27.5573 53.2647 27.664 53.4994 27.728C53.7447 27.7813 54.1074 27.808 54.5874 27.808C54.6194 27.808 54.6354 27.84 54.6354 27.904C54.6354 27.968 54.6194 28 54.5874 28C54.1607 28 53.8247 27.9947 53.5794 27.984L52.1394 27.968L50.7474 27.984C50.4914 27.9947 50.1394 28 49.6914 28ZM59.1254 28.208C58.432 28.208 57.8294 28 57.3174 27.584C56.816 27.1573 56.4267 26.5547 56.1494 25.776C55.8827 24.9867 55.7494 24.0587 55.7494 22.992C55.7494 21.936 55.8827 21.0187 56.1494 20.24C56.4267 19.4613 56.8214 18.864 57.3334 18.448C57.856 18.0213 58.464 17.808 59.1574 17.808C59.84 17.808 60.4267 18.0213 60.9174 18.448C61.4187 18.864 61.8027 19.4667 62.0694 20.256C62.336 21.0453 62.4694 21.9733 62.4694 23.04C62.4694 24.096 62.3307 25.0133 62.0534 25.792C61.7867 26.5707 61.4027 27.168 60.9014 27.584C60.4 28 59.808 28.208 59.1254 28.208ZM59.3174 27.904C59.8507 27.904 60.2347 27.5307 60.4694 26.784C60.7147 26.0267 60.8374 24.8427 60.8374 23.232C60.8374 21.4507 60.6827 20.1493 60.3734 19.328C60.064 18.5067 59.6 18.096 58.9814 18.096C58.4374 18.096 58.032 18.4907 57.7654 19.28C57.5094 20.0587 57.3814 21.2587 57.3814 22.88C57.3814 24.5867 57.536 25.8507 57.8454 26.672C58.1654 27.4933 58.656 27.904 59.3174 27.904ZM67.141 28.208C66.4477 28.208 65.845 28 65.333 27.584C64.8317 27.1573 64.4423 26.5547 64.165 25.776C63.8983 24.9867 63.765 24.0587 63.765 22.992C63.765 21.936 63.8983 21.0187 64.165 20.24C64.4423 19.4613 64.837 18.864 65.349 18.448C65.8717 18.0213 66.4797 17.808 67.173 17.808C67.8557 17.808 68.4423 18.0213 68.933 18.448C69.4343 18.864 69.8183 19.4667 70.085 20.256C70.3517 21.0453 70.485 21.9733 70.485 23.04C70.485 24.096 70.3463 25.0133 70.069 25.792C69.8023 26.5707 69.4183 27.168 68.917 27.584C68.4157 28 67.8237 28.208 67.141 28.208ZM67.333 27.904C67.8663 27.904 68.2503 27.5307 68.485 26.784C68.7303 26.0267 68.853 24.8427 68.853 23.232C68.853 21.4507 68.6983 20.1493 68.389 19.328C68.0797 18.5067 67.6157 18.096 66.997 18.096C66.453 18.096 66.0477 18.4907 65.781 19.28C65.525 20.0587 65.397 21.2587 65.397 22.88C65.397 24.5867 65.5517 25.8507 65.861 26.672C66.181 27.4933 66.6717 27.904 67.333 27.904Z" fill="white"/>
<path d="M48.8594 29.6H71.141V30.4H48.8594V29.6Z" fill="white"/>
<defs>
<linearGradient id="paint0_linear_555_16506" x1="60" y1="0" x2="60" y2="45" gradientUnits="userSpaceOnUse">
<stop stop-color="#4F1515"/>
<stop offset="1" stop-color="#380C0C"/>
</linearGradient>
<linearGradient id="paint1_linear_555_16506" x1="60.0065" y1="45.5116" x2="60.0065" y2="-0.511595" gradientUnits="userSpaceOnUse">
<stop offset="0.2" stop-color="#918789"/>
<stop offset="0.55" stop-color="#BBB0AE"/>
<stop offset="0.83" stop-color="#D7CCC8"/>
<stop offset="1" stop-color="#E2D7D2"/>
</linearGradient>
</defs>
</svg>
