<svg width="120" height="46" viewBox="0 0 120 46" fill="none" xmlns="http://www.w3.org/2000/svg">
<path d="M85.2476 1.01024C85.264 1.01024 85.2803 1.00944 85.2966 1.00784C85.3722 1.00041 85.4518 1 85.5599 1H111.686C113.883 1 115.853 1.67613 117.263 2.74637C118.672 3.81628 119.5 5.25843 119.5 6.81308V39.1972C119.5 40.7462 118.673 42.1859 117.263 43.2548C115.853 44.3239 113.883 45 111.686 45H85.5599C85.5222 45 85.4824 44.9981 85.4283 44.9955L85.4241 44.9953C85.3747 44.9928 85.3122 44.9898 85.2476 44.9898C85.2313 44.9898 85.215 44.9906 85.1987 44.9922C85.1231 44.9996 85.0434 45 84.9354 45H8.31386C6.11648 45 4.14649 44.3239 2.73673 43.2548C1.32727 42.1859 0.5 40.7462 0.5 39.1972V6.81308C0.5 5.25842 1.32773 3.81627 2.73695 2.74636C4.1466 1.67613 6.11648 1 8.31386 1H84.9354C84.9731 1 85.0128 1.00186 85.0669 1.00452L85.0713 1.00473C85.1207 1.00716 85.1832 1.01024 85.2476 1.01024Z" fill="url(#paint0_linear_555_16510)" stroke="url(#paint1_linear_555_16510)" stroke-linecap="round" stroke-linejoin="round"/>
<defs>
<linearGradient id="paint0_linear_555_16510" x1="60" y1="0.5" x2="60" y2="45.5" gradientUnits="userSpaceOnUse">
<stop stop-color="#381414"/>
<stop offset="1" stop-color="#1D0808"/>
</linearGradient>
<linearGradient id="paint1_linear_555_16510" x1="60.0065" y1="46.0116" x2="60.0065" y2="-0.0115951" gradientUnits="userSpaceOnUse">
<stop offset="0.2" stop-color="#918789"/>
<stop offset="0.55" stop-color="#BBB0AE"/>
<stop offset="0.83" stop-color="#D7CCC8"/>
<stop offset="1" stop-color="#E2D7D2"/>
</linearGradient>
</defs>
</svg>
