<svg width="169" height="239" viewBox="0 0 169 239" fill="none" xmlns="http://www.w3.org/2000/svg">
<path d="M162.906 238.078H6.39062C3.06641 238.078 0.375 235.363 0.375 232.02V6.44922C0.375 3.10547 3.06641 0.390625 6.39062 0.390625H162.906C166.23 0.390625 168.922 3.10547 168.922 6.44922V232.02C168.922 235.363 166.23 238.078 162.906 238.078Z" fill="white"/>
<mask id="mask0_2314_2672" style="mask-type:luminance" maskUnits="userSpaceOnUse" x="11" y="10" width="148" height="79">
<path d="M11 10H159V89H11V10Z" fill="white"/>
</mask>
<g mask="url(#mask0_2314_2672)">
<mask id="mask1_2314_2672" style="mask-type:luminance" maskUnits="userSpaceOnUse" x="11" y="10" width="148" height="79">
<path d="M158.055 88.1328C158.055 62.2344 158.063 36.3281 158.07 10.4336C109.215 10.4336 60.3516 10.4336 11.4961 10.4414C11.4766 35.918 11.4531 61.3945 11.4297 86.8711C13.9961 75.4336 19.1719 58.5664 29.0391 49.5586C36.5938 42.6758 40.3633 39.2266 43.3203 37.8438C44.6914 37.1992 49.0781 35.3008 52.7109 30.8711C53.3867 30.0508 53.8711 29.332 54.1797 28.8516C54.4961 29.2734 55.7109 30.8242 57.3828 30.8555C59.5586 30.8906 61.9883 28.3438 62.1094 24.5039C62.3633 25.0742 64.5 29.6172 69.3594 30.6445C71.6992 31.1406 73.6641 30.6133 74.6758 30.2539C75.3359 29.707 76.2148 28.8594 77.0156 27.6445C77.8047 26.4531 78.2344 25.3359 78.4805 24.5234H91.0273C91.1016 24.9883 91.7109 28.418 94.8281 30.1289C97.8828 31.8008 100.98 30.5234 101.934 30.1406C105.227 28.8164 106.621 26.0781 106.926 25.4336C107.672 28.9727 110.145 31.1641 112.32 30.9883C112.672 30.9609 113.805 30.8086 114.984 29.4883L118.738 32.6172C120.211 33.4883 122.273 34.7695 124.648 36.4336C127.441 38.3867 136.695 44.9531 143.961 54.3984C153.613 66.9375 156.848 80.7461 158.047 88.1172L158.055 88.1328Z" fill="white"/>
</mask>
<g mask="url(#mask1_2314_2672)">
<path d="M11.4297 10.4336V88.1328H158.07V10.4336H11.4297Z" fill="url(#paint0_linear_2314_2672)"/>
</g>
</g>
<path d="M158.437 228.227H10.9648C10.9648 182.895 10.9648 137.566 10.9648 92.2344C10.9648 64.8437 10.9648 37.4609 10.9648 10.0742H158.437C158.437 37.418 158.437 64.7617 158.437 92.1094C158.437 137.484 158.437 182.852 158.437 228.227Z" stroke="#0E0E0E" stroke-width="0.75" stroke-linecap="round" stroke-linejoin="round"/>
<path d="M84.6211 32.5039C84.5703 31.8828 84.3164 29.6992 82.5078 27.8477C80.8867 26.1836 78.9844 25.7852 78.3281 25.6719C78.3828 25.0195 78.4336 24.3672 78.4883 23.7148C79.3438 23.3164 81.0586 22.3711 82.4844 20.4609C83.9336 18.5156 84.3437 16.582 84.4805 15.6445C84.8164 16.8164 85.5586 18.8164 87.2539 20.7656C88.5586 22.2656 89.9492 23.1836 90.9062 23.7148C90.9609 24.3672 91.0117 25.0195 91.0664 25.6719C90.6016 25.7188 87.6094 26.0625 85.8086 28.6797C84.75 30.2266 84.6211 31.8008 84.6094 32.5039H84.6211Z" fill="white"/>
<path d="M53.4141 22.0664C54.2461 21.8242 55.6211 21.5625 57.1719 21.9375C58.5313 22.2617 59.4453 22.9218 59.9609 23.3086C64.5234 26.7304 65.1992 29.3867 68.332 30.5859C68.7383 30.7422 71.6719 31.7109 74.625 30.3281C76.7109 29.3554 78.1953 27.1367 78.4258 24.7265C78.7578 21.2773 76.3594 17.8633 73.5742 17.2422C73.2539 17.1679 71.4961 16.7773 70.0664 17.8515C69.8867 17.9843 68.7734 18.8398 68.6172 20.3476C68.5938 20.5742 68.4141 22.5156 69.8984 23.4609C70.7344 23.9843 71.7891 24.0156 72.6289 23.625C73.8242 23.0781 74.543 21.7031 74.3555 20.2343C74.6484 20.5586 75.0508 21.0586 75.375 21.75C75.5313 22.0781 76.5508 24.3359 75.5781 26.5039C74.3906 29.1445 71.1602 29.6093 70.7266 29.6718C67.8359 30.082 64.8359 28.5664 62.8711 25.8437" stroke="#0E0E0E" stroke-width="0.75" stroke-linecap="round" stroke-linejoin="round"/>
<path d="M78.4883 23.625C79.0586 23.3477 79.9492 22.8438 80.8594 22.0195C83.7617 19.3711 84.293 15.6992 84.5312 14.0625C84.668 13.1406 84.7891 11.7656 84.6289 10.0664" stroke="#0E0E0E" stroke-width="0.75" stroke-linecap="round" stroke-linejoin="round"/>
<path d="M78.3281 25.582C79.043 25.7109 79.8164 25.9336 80.5781 26.3242C84.0391 28.0859 84.5469 31.7773 84.6211 32.4141" stroke="#0E0E0E" stroke-width="0.75" stroke-linecap="round" stroke-linejoin="round"/>
<path d="M115.996 22.0664C115.164 21.8242 113.789 21.5625 112.238 21.9375C110.879 22.2617 109.965 22.9218 109.449 23.3086C104.887 26.7304 104.211 29.3867 101.078 30.5859C100.672 30.7422 97.7383 31.7109 94.7852 30.3281C92.6992 29.3554 91.2149 27.1367 90.9844 24.7265C90.6524 21.2773 93.0508 17.8633 95.8359 17.2422C96.1563 17.1679 97.9141 16.7773 99.3438 17.8515C99.5234 17.9843 100.637 18.8398 100.793 20.3476C100.816 20.5742 100.996 22.5156 99.5117 23.4609C98.6758 23.9843 97.6211 24.0156 96.7813 23.625C95.5859 23.0781 94.8672 21.7031 95.0547 20.2343C94.7617 20.5586 94.3594 21.0586 94.0352 21.75C93.8789 22.0781 92.8594 24.3359 93.832 26.5039C95.0156 29.1445 98.25 29.6093 98.6836 29.6718C101.574 30.082 104.574 28.5664 106.539 25.8437" stroke="#0E0E0E" stroke-width="0.75" stroke-linecap="round" stroke-linejoin="round"/>
<path d="M91.0742 25.582C90.3594 25.7109 89.5859 25.9336 88.8242 26.3242C85.3633 28.0859 84.8555 31.7773 84.7812 32.4141" stroke="#0E0E0E" stroke-width="0.75" stroke-linecap="round" stroke-linejoin="round"/>
<path d="M115.281 28.9219C115.172 29.1758 114.578 30.4883 113.191 30.9219C111.719 31.3867 110.43 30.5312 109.891 30.1719C107.617 28.6641 107.391 25.793 107.371 25.3281" stroke="#0E0E0E" stroke-width="0.75" stroke-linecap="round" stroke-linejoin="round"/>
<path d="M123.262 35.836C122.617 35.4688 121.711 34.9141 120.691 34.172C117.742 32.0235 115.441 30.3516 114.84 27.6212C114.293 25.1407 115.41 23.047 115.605 22.6954C117.441 19.379 121.289 18.8321 122.086 18.7423C125.664 18.336 129.293 20.2266 131.566 23.5274" stroke="#0E0E0E" stroke-width="0.75" stroke-linecap="round" stroke-linejoin="round"/>
<path d="M131.063 40.9805C131.102 33.2617 129.211 27.2031 126.219 25.5312C124.68 24.6758 123.121 24.6523 123.121 24.6523C122.602 24.6523 119.984 24.6914 118.328 26.8516C116.852 28.7773 117.219 30.9844 117.285 31.3594" stroke="#0E0E0E" stroke-width="0.75" stroke-linecap="round" stroke-linejoin="round"/>
<path d="M152.199 37.0782C152.586 36.8867 153.832 36.3086 155.176 36.6524C157.566 37.2617 157.836 40.1485 157.852 40.3594C157.996 42.1953 156.871 44.3321 154.727 45.0977C153.074 45.6836 151.484 45.2188 150.637 44.9688C147.891 44.168 146.387 42.3008 145.637 41.3555C143.234 38.2969 144.406 36.8086 141.945 34.6367C141.277 34.043 139.926 32.8438 137.859 32.5274C135.703 32.1914 134.82 33.1211 132.855 32.5742C130.926 32.0313 129.93 30.6133 129.676 30.2188C129.555 30.0391 128.152 27.7813 129.473 25.5078C129.742 25.0352 130.547 23.6641 132.352 23.2657C133.996 22.9141 135.801 23.5117 136.793 24.6914C137.641 25.6953 137.887 27.1133 137.227 28.2383C137.086 28.4844 136.637 29.25 135.613 29.5586C134.762 29.8125 133.672 29.6992 132.922 29.1016C132.262 28.5664 132.141 27.8867 132.121 27.6836" stroke="#0E0E0E" stroke-width="0.75" stroke-linecap="round" stroke-linejoin="round"/>
<path d="M143.488 36.7266C143.176 33.3086 141.426 30.4961 138.871 29.5781C138.285 29.3711 137.371 29.1602 136.156 29.3086" stroke="#0E0E0E" stroke-width="0.75" stroke-linecap="round" stroke-linejoin="round"/>
<path d="M146.086 42.0391C145.621 41.918 143.684 41.4688 142.035 42.5469C140.047 43.8516 139.254 46.875 140.477 49.7383" stroke="#0E0E0E" stroke-width="0.75" stroke-linecap="round" stroke-linejoin="round"/>
<path d="M147.441 52.3437C147.137 52.3281 146.496 52.3359 145.824 52.6875C144.727 53.2656 144.367 54.3242 144.301 54.5625" stroke="#0E0E0E" stroke-width="0.75" stroke-linecap="round" stroke-linejoin="round"/>
<path d="M158.43 91.1563C158.414 91.0508 158.398 90.8633 158.371 90.6445C157.785 85.5078 154.477 61.5234 134.754 44.0234C132.301 41.8516 128.496 38.7969 123.262 35.8281" stroke="#0E0E0E" stroke-width="0.75" stroke-linecap="round" stroke-linejoin="round"/>
<path d="M84.6211 32.5039C84.5703 31.8828 84.3164 29.6992 82.5078 27.8477C80.8867 26.1836 78.9844 25.7852 78.3281 25.6719C78.3828 25.0195 78.4336 24.3672 78.4883 23.7148C79.3438 23.3164 81.0586 22.3711 82.4844 20.4609C83.9336 18.5156 84.3438 16.582 84.4805 15.6445C84.8164 16.8164 85.5586 18.8164 87.2539 20.7656C88.5586 22.2656 89.9492 23.1836 90.9063 23.7148C90.9609 24.3672 91.0117 25.0195 91.0664 25.6719C90.6016 25.7187 87.6094 26.0625 85.8086 28.6797C84.75 30.2266 84.6211 31.8008 84.6094 32.5039H84.6211Z" fill="black" stroke="black" stroke-width="0.5625" stroke-linecap="round" stroke-linejoin="round"/>
<path d="M115.996 22.0664C115.164 21.8242 113.789 21.5625 112.238 21.9375C110.879 22.2617 109.965 22.9218 109.449 23.3086C104.887 26.7304 104.211 29.3867 101.078 30.5859C100.672 30.7422 97.7383 31.7109 94.7852 30.3281C92.6992 29.3554 91.2149 27.1367 90.9844 24.7265C90.6524 21.2773 93.0508 17.8633 95.8359 17.2422C96.1563 17.1679 97.9141 16.7773 99.3438 17.8515C99.5234 17.9843 100.637 18.8398 100.793 20.3476C100.816 20.5742 100.996 22.5156 99.5117 23.4609C98.6758 23.9843 97.6211 24.0156 96.7813 23.625C95.5859 23.0781 94.8672 21.7031 95.0547 20.2343C94.7617 20.5586 94.3594 21.0586 94.0352 21.75C93.8789 22.0781 92.8594 24.3359 93.832 26.5039C95.0156 29.1445 98.25 29.6093 98.6836 29.6718C101.574 30.082 104.574 28.5664 106.539 25.8437" stroke="#0E0E0E" stroke-width="0.75" stroke-linecap="round" stroke-linejoin="round"/>
<path d="M90.9141 23.625C89.8125 23.0781 89.0391 22.4688 88.5469 22.0195C85.1992 18.9766 84.8789 14.4531 84.7578 12.7891C84.6758 11.6484 84.7188 10.7031 84.7734 10.0664" stroke="#0E0E0E" stroke-width="0.75" stroke-linecap="round" stroke-linejoin="round"/>
<path d="M91.0742 25.582C90.3594 25.7109 89.5859 25.9336 88.8242 26.3242C85.3633 28.0859 84.8555 31.7773 84.7812 32.4141" stroke="#0E0E0E" stroke-width="0.75" stroke-linecap="round" stroke-linejoin="round"/>
<path d="M115.281 28.9219C115.172 29.1758 114.578 30.4883 113.191 30.9219C111.719 31.3867 110.43 30.5312 109.891 30.1719C107.617 28.6641 107.391 25.793 107.371 25.3281" stroke="#0E0E0E" stroke-width="0.75" stroke-linecap="round" stroke-linejoin="round"/>
<path d="M123.262 35.836C122.617 35.4688 121.711 34.9141 120.691 34.172C117.742 32.0235 115.441 30.3516 114.84 27.6212C114.293 25.1407 115.41 23.047 115.605 22.6954C117.441 19.379 121.289 18.8321 122.086 18.7423C125.664 18.336 129.293 20.2266 131.566 23.5274" stroke="#0E0E0E" stroke-width="0.75" stroke-linecap="round" stroke-linejoin="round"/>
<path d="M131.063 40.9805C131.102 33.2617 129.211 27.2031 126.219 25.5312C124.68 24.6758 123.121 24.6523 123.121 24.6523C122.602 24.6523 119.984 24.6914 118.328 26.8516C116.852 28.7773 117.219 30.9844 117.285 31.3594" stroke="#0E0E0E" stroke-width="0.75" stroke-linecap="round" stroke-linejoin="round"/>
<path d="M152.199 37.0782C152.586 36.8867 153.832 36.3086 155.176 36.6524C157.566 37.2617 157.836 40.1485 157.852 40.3594C157.996 42.1953 156.871 44.3321 154.727 45.0977C153.074 45.6836 151.484 45.2188 150.637 44.9688C147.891 44.168 146.387 42.3008 145.637 41.3555C143.234 38.2969 144.406 36.8086 141.945 34.6367C141.277 34.043 139.926 32.8438 137.859 32.5274C135.703 32.1914 134.82 33.1211 132.855 32.5742C130.926 32.0313 129.93 30.6133 129.676 30.2188C129.555 30.0391 128.152 27.7813 129.473 25.5078C129.742 25.0352 130.547 23.6641 132.352 23.2657C133.996 22.9141 135.801 23.5117 136.793 24.6914C137.641 25.6953 137.887 27.1133 137.227 28.2383C137.086 28.4844 136.637 29.25 135.613 29.5586C134.762 29.8125 133.672 29.6992 132.922 29.1016C132.262 28.5664 132.141 27.8867 132.121 27.6836" stroke="#0E0E0E" stroke-width="0.75" stroke-linecap="round" stroke-linejoin="round"/>
<path d="M143.488 36.7266C143.176 33.3086 141.426 30.4961 138.871 29.5781C138.285 29.3711 137.371 29.1602 136.156 29.3086" stroke="#0E0E0E" stroke-width="0.75" stroke-linecap="round" stroke-linejoin="round"/>
<path d="M158.34 48.8007C157.109 46.6952 155.145 45.3827 153.188 45.5038C150.766 45.6523 149.34 47.9257 148.727 48.9062C145.262 54.4335 148.965 61.9882 149.535 63.121" stroke="#0E0E0E" stroke-width="0.75" stroke-linecap="round" stroke-linejoin="round"/>
<path d="M158.391 90.4805C156.984 80.8281 152.398 59.7148 134.754 44.0312C130.914 40.6211 126.988 37.9414 123.262 35.8359" stroke="#0E0E0E" stroke-width="0.75" stroke-linecap="round" stroke-linejoin="round"/>
<mask id="mask2_2314_2672" style="mask-type:luminance" maskUnits="userSpaceOnUse" x="11" y="148" width="147" height="80">
<path d="M11 148H158V228H11V148Z" fill="white"/>
</mask>
<g mask="url(#mask2_2314_2672)">
<mask id="mask3_2314_2672" style="mask-type:luminance" maskUnits="userSpaceOnUse" x="11" y="148" width="147" height="80">
<path d="M11.2812 148.68C11.3008 175.074 11.3164 201.465 11.3398 227.852C60.2031 227.844 109.066 227.828 157.926 227.82C157.949 202.344 157.973 176.863 157.996 151.387C153.141 162.676 145.703 176.43 134.16 190.172C129.703 195.465 125.219 200.086 120.891 204.09C119.691 205.68 118.492 207.262 117.301 208.852C116.617 209.039 115.934 209.219 115.254 209.406C114.938 208.988 113.723 207.434 112.051 207.406C109.875 207.367 107.445 209.918 107.324 213.758C107.07 213.188 104.934 208.641 100.074 207.613C97.7344 207.121 95.7656 207.645 94.7539 208.004C94.0938 208.551 93.2188 209.398 92.4141 210.613C91.6289 211.809 91.1992 212.926 90.9531 213.734H78.4062C78.3281 213.27 77.7227 209.844 74.6016 208.133C71.5508 206.461 68.4531 207.734 67.5 208.117C64.207 209.445 62.8125 212.184 62.5039 212.828C61.7617 209.289 59.2891 207.098 57.1133 207.27C56.7617 207.301 55.6289 207.449 54.4492 208.77C53.1992 207.727 51.9453 206.684 50.6914 205.641C44.8711 202.762 34.0352 196.426 24.9375 184.141C14.3008 169.77 11.9492 155.227 11.2969 148.688L11.2812 148.68Z" fill="white"/>
</mask>
<g mask="url(#mask3_2314_2672)">
<path d="M11.2812 148.68V227.852H157.996V148.68H11.2812Z" fill="url(#paint1_linear_2314_2672)"/>
</g>
</g>
<path d="M84.668 205.957C84.7187 206.578 84.9766 208.762 86.7812 210.613C88.4023 212.281 90.3086 212.676 90.9609 212.789C90.9062 213.441 90.8555 214.094 90.8008 214.746C89.9492 215.145 88.2305 216.09 86.8047 218.004C85.3594 219.945 84.9453 221.879 84.8086 222.816C84.4727 221.648 83.7305 219.645 82.0352 217.695C80.7305 216.195 79.3438 215.281 78.3828 214.746C78.3281 214.094 78.2773 213.441 78.2266 212.789C78.6914 212.746 81.6836 212.398 83.4844 209.781C84.5391 208.238 84.668 206.664 84.6836 205.957H84.668Z" fill="white"/>
<path d="M115.875 216.398C115.043 216.637 113.672 216.898 112.117 216.523C110.762 216.203 109.844 215.543 109.328 215.152C104.766 211.734 104.094 209.078 100.957 207.879C100.551 207.719 97.6211 206.754 94.6641 208.133C92.5781 209.109 91.0938 211.328 90.8633 213.734C90.5313 217.184 92.9336 220.598 95.7148 221.219C96.0391 221.297 97.793 221.684 99.2266 220.613C99.4063 220.477 100.516 219.621 100.672 218.113C100.695 217.891 100.875 215.949 99.3906 215.004C98.5586 214.477 97.5 214.449 96.6602 214.836C95.4688 215.387 94.7461 216.758 94.9336 218.227C94.6406 217.906 94.2383 217.402 93.9141 216.711C93.7578 216.383 92.7383 214.125 93.7109 211.957C94.8984 209.316 98.1289 208.852 98.5664 208.793C101.453 208.379 104.453 209.895 106.418 212.617" stroke="#0E0E0E" stroke-width="0.75" stroke-linecap="round" stroke-linejoin="round"/>
<path d="M90.8008 214.836C89.7461 215.363 88.9727 215.953 88.4336 216.441C85.3203 219.27 84.8633 223.387 84.6445 225.316C84.5039 226.566 84.5156 227.602 84.5469 228.238" stroke="#0E0E0E" stroke-width="0.75" stroke-linecap="round" stroke-linejoin="round"/>
<path d="M90.9609 212.879C90.2461 212.754 89.4766 212.527 88.7109 212.137C85.2539 210.375 84.7422 206.684 84.668 206.047" stroke="#0E0E0E" stroke-width="0.75" stroke-linecap="round" stroke-linejoin="round"/>
<path d="M53.2969 216.398C54.1289 216.637 55.5 216.898 57.0508 216.523C58.4102 216.203 59.3242 215.543 59.8438 215.152C64.4023 211.734 65.0781 209.078 68.2109 207.879C68.6172 207.719 71.5508 206.754 74.5039 208.133C76.5898 209.109 78.0742 211.328 78.3086 213.734C78.6367 217.184 76.2383 220.598 73.4531 221.219C73.1328 221.297 71.3789 221.684 69.9453 220.613C69.7656 220.477 68.6563 219.621 68.4961 218.113C68.4766 217.891 68.2969 215.949 69.7813 215.004C70.6133 214.477 71.6719 214.449 72.5117 214.836C73.7031 215.387 74.4219 216.758 74.2344 218.227C74.5273 217.906 74.9336 217.402 75.2539 216.711C75.4141 216.383 76.4336 214.125 75.457 211.957C74.2734 209.316 71.0391 208.852 70.6055 208.793C67.7188 208.379 64.7188 209.895 62.7539 212.617" stroke="#0E0E0E" stroke-width="0.75" stroke-linecap="round" stroke-linejoin="round"/>
<path d="M78.2188 212.879C78.8984 212.773 79.6797 212.559 80.4688 212.137C83.6758 210.441 84.5117 206.82 84.668 206.047" stroke="#0E0E0E" stroke-width="0.75" stroke-linecap="round" stroke-linejoin="round"/>
<path d="M54.0078 209.543C54.1211 209.289 54.7109 207.977 56.1016 207.539C57.5703 207.074 58.8594 207.93 59.3984 208.289C61.6719 209.797 61.8984 212.672 61.9219 213.137" stroke="#0E0E0E" stroke-width="0.75" stroke-linecap="round" stroke-linejoin="round"/>
<path d="M46.0273 202.629C46.6719 202.996 47.5781 203.551 48.6016 204.293C51.5469 206.438 53.8516 208.109 54.4492 210.84C54.9961 213.324 53.8789 215.414 53.6836 215.766C51.8477 219.082 48 219.629 47.2031 219.719C43.6289 220.125 39.9961 218.234 37.7266 214.934" stroke="#0E0E0E" stroke-width="0.75" stroke-linecap="round" stroke-linejoin="round"/>
<path d="M38.2266 197.484C38.1914 205.199 40.0781 211.262 43.0742 212.934C44.6094 213.789 46.1719 213.809 46.1719 213.809C46.6875 213.809 49.3047 213.773 50.9609 211.613C52.4414 209.684 52.0742 207.48 52.0039 207.105" stroke="#0E0E0E" stroke-width="0.75" stroke-linecap="round" stroke-linejoin="round"/>
<path d="M17.0937 201.383C16.7031 201.578 15.457 202.156 14.1133 201.809C11.7227 201.203 11.4531 198.316 11.4375 198.105C11.2969 196.266 12.4219 194.129 14.5664 193.363C16.2148 192.781 17.8047 193.246 18.6523 193.492C21.3984 194.297 22.9062 196.164 23.6562 197.109C26.0547 200.168 24.8867 201.652 27.3437 203.828C28.0117 204.422 29.3633 205.621 31.4336 205.934C33.5859 206.273 34.4688 205.344 36.4336 205.891C38.3633 206.43 39.3594 207.848 39.6133 208.246C39.7344 208.426 41.1367 210.684 39.8164 212.953C39.5469 213.426 38.7461 214.801 36.9375 215.199C35.2969 215.551 33.4883 214.949 32.4961 213.773C31.6484 212.766 31.4023 211.351 32.0625 210.226C32.2031 209.976 32.6562 209.211 33.6758 208.906C34.5312 208.648 35.6172 208.762 36.3672 209.363C37.0273 209.894 37.1484 210.578 37.1719 210.781" stroke="#0E0E0E" stroke-width="0.75" stroke-linecap="round" stroke-linejoin="round"/>
<path d="M25.8008 201.727C26.1133 205.148 27.8633 207.961 30.4219 208.875C31.0039 209.086 31.9219 209.297 33.1367 209.145" stroke="#0E0E0E" stroke-width="0.75" stroke-linecap="round" stroke-linejoin="round"/>
<path d="M23.2031 196.426C23.6836 196.547 25.6055 196.98 27.2539 195.914C29.2578 194.609 30.0742 191.586 28.8672 188.707" stroke="#0E0E0E" stroke-width="0.75" stroke-linecap="round" stroke-linejoin="round"/>
<path d="M21.8477 186.121C22.1562 186.137 22.793 186.129 23.4687 185.773C24.5937 185.184 24.9375 184.078 25.0039 183.855" stroke="#0E0E0E" stroke-width="0.75" stroke-linecap="round" stroke-linejoin="round"/>
<path d="M10.9883 146.535C12.1875 156.195 16.4023 178.273 34.5391 194.437C38.3711 197.852 42.2852 200.527 46.0273 202.637" stroke="#0E0E0E" stroke-width="0.75" stroke-linecap="round" stroke-linejoin="round"/>
<path d="M84.668 205.957C84.7188 206.578 84.9766 208.762 86.7812 210.613C88.4023 212.281 90.3086 212.676 90.9609 212.789C90.9063 213.441 90.8555 214.094 90.8008 214.746C90.3359 214.957 89.6992 215.289 89.0156 215.805C87.4805 216.984 86.7461 218.363 86.1016 219.609C85.5391 220.703 84.8086 222.398 84.4336 224.633C84.4258 223.559 84.2617 220.477 82.0273 217.687C80.7617 216.098 79.3047 215.203 78.375 214.738C78.3242 214.086 78.2695 213.434 78.2188 212.781C78.6836 212.738 81.6758 212.391 83.4766 209.773C84.5312 208.23 84.6602 206.656 84.6758 205.949L84.668 205.957Z" fill="black" stroke="black" stroke-width="0.5625" stroke-linecap="round" stroke-linejoin="round"/>
<path d="M53.2969 216.398C54.1289 216.637 55.5 216.898 57.0508 216.523C58.4102 216.203 59.3242 215.543 59.8438 215.152C64.4023 211.734 65.0781 209.078 68.2109 207.879C68.6172 207.719 71.5508 206.754 74.5039 208.133C76.5898 209.109 78.0742 211.328 78.3086 213.734C78.6367 217.184 76.2383 220.598 73.4531 221.219C73.1328 221.297 71.3789 221.684 69.9453 220.613C69.7656 220.477 68.6563 219.621 68.4961 218.113C68.4766 217.891 68.2969 215.949 69.7813 215.004C70.6133 214.477 71.6719 214.449 72.5117 214.836C73.7031 215.387 74.4219 216.758 74.2344 218.227C74.5273 217.906 74.9336 217.402 75.2539 216.711C75.4141 216.383 76.4336 214.125 75.457 211.957C74.2734 209.316 71.0391 208.852 70.6055 208.793C67.7188 208.379 64.7188 209.895 62.7539 212.617" stroke="#0E0E0E" stroke-width="0.75" stroke-linecap="round" stroke-linejoin="round"/>
<path d="M78.375 214.836C78.9961 215.137 79.8672 215.641 80.7461 216.441C82.5977 218.152 83.2656 220.133 83.7813 221.754C84.5859 224.258 84.668 226.539 84.5547 228.238" stroke="#0E0E0E" stroke-width="0.75" stroke-linecap="round" stroke-linejoin="round"/>
<path d="M78.2188 212.879C78.8984 212.773 79.6797 212.559 80.4688 212.137C83.707 210.422 84.5156 206.715 84.668 205.957" stroke="#0E0E0E" stroke-width="0.75" stroke-linecap="round" stroke-linejoin="round"/>
<path d="M54.0078 209.543C54.1211 209.289 54.7109 207.977 56.1016 207.539C57.5703 207.074 58.8594 207.93 59.3984 208.289C61.6719 209.797 61.8984 212.672 61.9219 213.137" stroke="#0E0E0E" stroke-width="0.75" stroke-linecap="round" stroke-linejoin="round"/>
<path d="M46.0273 202.629C46.6719 202.996 47.5781 203.551 48.6016 204.293C51.5469 206.438 53.8516 208.109 54.4492 210.84C54.9961 213.324 53.8789 215.414 53.6836 215.766C51.8477 219.082 48 219.629 47.2031 219.719C43.6289 220.125 39.9961 218.234 37.7266 214.934" stroke="#0E0E0E" stroke-width="0.75" stroke-linecap="round" stroke-linejoin="round"/>
<path d="M38.2266 197.484C38.1914 205.199 40.0781 211.262 43.0742 212.934C44.6094 213.789 46.1719 213.809 46.1719 213.809C46.6875 213.809 49.3047 213.773 50.9609 211.613C52.4414 209.684 52.0742 207.48 52.0039 207.105" stroke="#0E0E0E" stroke-width="0.75" stroke-linecap="round" stroke-linejoin="round"/>
<path d="M17.0937 201.383C16.7031 201.578 15.457 202.156 14.1133 201.809C11.7227 201.203 11.4531 198.316 11.4375 198.105C11.2969 196.266 12.4219 194.129 14.5664 193.363C16.2148 192.781 17.8047 193.246 18.6523 193.492C21.3984 194.297 22.9062 196.164 23.6562 197.109C26.0547 200.168 24.8867 201.652 27.3437 203.828C28.0117 204.422 29.3633 205.621 31.4336 205.934C33.5859 206.273 34.4688 205.344 36.4336 205.891C38.3633 206.43 39.3594 207.848 39.6133 208.246C39.7344 208.426 41.1367 210.684 39.8164 212.953C39.5469 213.426 38.7461 214.801 36.9375 215.199C35.2969 215.551 33.4883 214.949 32.4961 213.773C31.6484 212.766 31.4023 211.351 32.0625 210.226C32.2031 209.976 32.6562 209.211 33.6758 208.906C34.5312 208.648 35.6172 208.762 36.3672 209.363C37.0273 209.894 37.1484 210.578 37.1719 210.781" stroke="#0E0E0E" stroke-width="0.75" stroke-linecap="round" stroke-linejoin="round"/>
<path d="M25.8008 201.727C26.1133 205.148 27.8633 207.961 30.4219 208.875C31.0039 209.086 31.9219 209.297 33.1367 209.145" stroke="#0E0E0E" stroke-width="0.75" stroke-linecap="round" stroke-linejoin="round"/>
<path d="M11.0312 189.797C11.1211 189.945 13.1172 193.141 16.1016 192.953C18.5156 192.801 19.9414 190.539 20.5664 189.547C24.0234 184.027 20.3242 176.469 19.7539 175.336" stroke="#0E0E0E" stroke-width="0.75" stroke-linecap="round" stroke-linejoin="round"/>
<path d="M23.2031 196.426C23.6836 196.547 25.6055 196.98 27.2539 195.914C29.2578 194.609 30.0742 191.586 28.8672 188.707" stroke="#0E0E0E" stroke-width="0.75" stroke-linecap="round" stroke-linejoin="round"/>
<path d="M21.8477 186.121C22.1562 186.137 22.793 186.129 23.4687 185.773C24.5937 185.184 24.9375 184.078 25.0039 183.855" stroke="#0E0E0E" stroke-width="0.75" stroke-linecap="round" stroke-linejoin="round"/>
<path d="M10.9883 146.535C12.1875 156.195 16.4023 178.273 34.5391 194.437C38.3711 197.852 42.2852 200.527 46.0273 202.637" stroke="#0E0E0E" stroke-width="0.75" stroke-linecap="round" stroke-linejoin="round"/>
<path d="M125.055 194.625V193.547H132.238V194.578H131.852C131.738 194.578 131.609 194.602 131.477 194.641C131.34 194.684 131.227 194.766 131.129 194.887C131.047 195.016 131.004 195.172 131.004 195.359C131.004 195.547 131.047 195.758 131.145 195.988L131.16 196.02L133.793 202.426C134.355 202.516 134.941 202.566 135.531 202.566C137.422 202.566 139.156 202.117 140.707 201.227C142.266 200.332 143.43 199.117 144.211 197.578L144.352 197.234L144.383 197.16C144.539 196.77 144.613 196.41 144.613 196.078C144.613 195.555 144.422 195.156 144.039 194.871L144.023 194.859C143.754 194.676 143.406 194.586 143.004 194.586H142.598L142.613 193.551H149.797L149.781 194.586H149.391C148.605 194.586 147.832 194.863 147.051 195.414C146.281 195.961 145.711 196.641 145.359 197.461L145.328 197.535L139.164 212.551C139.012 212.902 138.945 213.246 138.945 213.57C138.945 213.988 139.074 214.336 139.32 214.621C139.801 214.941 140.258 215.109 140.684 215.109L141.113 215.078V216.141H136.027L127.867 196.297C127.656 195.816 127.32 195.414 126.855 195.082C126.391 194.754 125.934 194.586 125.484 194.586L125.055 194.633V194.625ZM135.758 203.602H134.266L137.984 212.641C138.059 212.504 138.129 212.371 138.188 212.234L138.246 212.078L142.828 200.926C141.547 202.074 140.004 202.867 138.219 203.297C138.137 203.316 138.039 203.34 137.934 203.355C137.219 203.512 136.492 203.594 135.75 203.602H135.758Z" fill="black"/>
<path d="M129.969 178.176C131.805 180.187 134.633 178.996 134.633 178.996C133.844 179.844 133.313 180.512 133.418 181.891C133.418 181.934 133.418 181.988 133.418 182.031C133.418 184.23 135.203 186.016 137.398 186.016C139.598 186.016 141.383 184.23 141.383 182.031C141.383 181.754 141.352 181.484 141.301 181.223C141.211 180.262 140.738 179.684 140.086 178.996C140.086 178.996 142.914 180.187 144.75 178.176C146.586 176.168 145.672 173.789 145.086 173.004C144.512 172.223 143.641 170.902 141.602 171.059C139.793 171.195 139.523 171.504 138.285 172.492C138.434 169.762 140.094 167.895 140.094 167.895H134.648C135.645 168.945 136.539 171.359 136.418 172.461C135.203 171.488 134.926 171.187 133.133 171.051C131.094 170.902 130.223 172.215 129.645 172.996C129.066 173.773 128.145 176.16 129.984 178.172L129.969 178.176Z" fill="#292929" stroke="black" stroke-width="0.5625" stroke-linecap="round" stroke-linejoin="round"/>
<path d="M44.0391 43.9336V45.0156H36.8555V43.9805H37.2461C37.3594 43.9805 37.4844 43.957 37.6211 43.9219C37.7539 43.875 37.8672 43.793 37.9648 43.6719C38.0469 43.5469 38.0938 43.3867 38.0938 43.1992C38.0938 43.0117 38.0469 42.8008 37.9492 42.5703L37.9336 42.5391L35.3008 36.1367C34.7383 36.0469 34.1562 35.9922 33.5625 35.9922C31.6719 35.9922 29.9414 36.4414 28.3867 37.3359C26.8281 38.2266 25.6641 39.4414 24.8867 40.9805L24.7422 41.3242L24.7109 41.3984C24.5547 41.7891 24.4805 42.1484 24.4805 42.4805C24.4805 43.0039 24.6758 43.4023 25.0586 43.6875L25.0742 43.7031C25.3437 43.8828 25.6875 43.9727 26.0938 43.9727H26.4961L26.4844 45.0078H19.2969L19.3125 43.9727H19.7031C20.4883 43.9727 21.2617 43.6953 22.043 43.1484C22.8164 42.6016 23.3867 41.918 23.7383 41.1016L23.7656 41.0234L29.9336 26.0117C30.082 25.6562 30.1484 25.3125 30.1484 24.9883C30.1484 24.5703 30.0234 24.2266 29.7734 23.9414C29.2969 23.6172 28.8359 23.4531 28.4102 23.4531L27.9844 23.4844V22.418H33.0664L41.2266 42.2617C41.4375 42.7422 41.7734 43.1484 42.2383 43.4766C42.7031 43.8086 43.1641 43.9727 43.6133 43.9727L44.0391 43.9258V43.9336ZM33.3359 34.957H34.8281L31.1094 25.9219C31.0352 26.0547 30.9688 26.1914 30.9062 26.3242L30.8477 26.4844L26.2656 37.6367C27.5469 36.4883 29.0938 35.6914 30.8789 35.2656C30.9609 35.2422 31.0586 35.2188 31.1641 35.2031C31.875 35.0469 32.6016 34.9648 33.3438 34.957H33.3359Z" fill="black"/>
<path d="M39.2695 59.7969C37.4336 57.7891 34.6055 58.9805 34.6055 58.9805C35.3906 58.1328 35.9258 57.4648 35.8203 56.0859C35.8203 56.0391 35.8203 55.9883 35.8203 55.9414C35.8203 53.7461 34.0352 51.9609 31.8359 51.9609C29.6406 51.9609 27.8555 53.7461 27.8555 55.9414C27.8555 56.2188 27.8867 56.4883 27.9375 56.7539C28.0273 57.7109 28.5 58.2891 29.1523 58.9805C29.1523 58.9805 26.3242 57.7891 24.4883 59.7969C22.6484 61.8086 23.5664 64.1836 24.1484 64.9727C24.7266 65.7539 25.5977 67.0742 27.6367 66.9141C29.4453 66.7813 29.7148 66.4727 30.9531 65.4844C30.8008 68.2109 29.1445 70.0781 29.1445 70.0781H34.5898C33.5938 69.0313 32.6992 66.6133 32.8203 65.5117C34.0352 66.4883 34.3125 66.7891 36.1055 66.9219C38.1445 67.0742 39.0156 65.7617 39.5938 64.9805C40.168 64.1992 41.0938 61.8164 39.2539 59.8047L39.2695 59.7969Z" fill="#292929" stroke="black" stroke-width="0.5625" stroke-linecap="round" stroke-linejoin="round"/>
<path d="M121.793 102.09C112.289 91.7031 97.6797 97.8672 97.6797 97.8672C101.762 93.5039 104.488 90.0391 103.98 82.8828C103.988 82.6406 103.996 82.3945 103.996 82.1562C103.996 70.7852 94.7774 61.5586 83.3984 61.5586C72.0234 61.5586 62.8047 70.7773 62.8047 82.1562C62.8047 83.5859 62.9531 84.9844 63.2344 86.332C63.6992 91.2813 66.1484 94.2656 69.5156 97.8672C69.5156 97.8672 54.9063 91.7109 45.4063 102.09C35.9024 112.477 40.6484 124.793 43.6406 128.844C45 130.68 47.6172 135.172 53.1758 137.633C53.9531 137.977 56.6328 139.094 60.3438 139.289C60.7656 139.313 61.6211 139.418 62.4063 140.016C63.2383 140.648 63.5469 141.48 63.6836 141.863C64.8086 145.012 62.0391 147.57 63.3281 149.445C63.7813 150.105 64.8438 150.629 65.5938 150.367C66.0078 150.227 66.2344 149.879 66.3008 149.766C66.8711 148.875 66.4063 147.773 66.0156 146.332C65.5781 144.699 65.1289 143.016 65.4453 141.512C65.6406 140.594 66.1719 139.516 67.4922 138.414H67.4766C68.8711 137.984 70.0039 137.484 70.8516 137.102C74.5274 135.441 77.1445 133.223 78.8399 131.488C78.0742 145.605 69.5117 155.25 69.5117 155.25H79.7383C80.7539 155.43 82.2149 155.859 83.1992 157.066C84.4727 158.625 84.293 160.687 83.4609 167.273C82.7109 173.219 82.3438 175.59 83.5352 176.316C84.1211 176.676 85.0508 176.617 85.6563 176.176C86.918 175.266 86.5586 172.965 85.5156 164.129C85.1719 161.203 85.0039 159.594 85.9649 157.973C86.8516 156.48 88.2734 155.684 89.3086 155.258H97.6719C92.4961 149.812 87.9141 137.324 88.5078 131.633C90.3164 133.41 92.8867 135.48 96.3281 137.109C97.0742 137.461 97.9063 137.844 98.8359 138.211H98.8516C99.3516 138.406 99.8906 138.594 100.461 138.766C101.102 139.078 101.738 139.547 102.188 140.242C102.414 140.586 102.996 141.613 102.523 145.336C101.992 149.527 100.914 150.816 101.82 152.137C102.422 153.008 103.664 153.563 104.715 153.375C105.613 153.211 106.191 152.527 106.371 152.289C108.516 149.445 103.688 144.172 105.719 141.008C106.074 140.469 106.785 139.727 108.457 139.313C110.016 139.074 111.961 138.602 114.023 137.648C119.656 135.047 122.34 130.508 123.555 128.859C126.547 124.809 131.301 112.484 121.793 102.105V102.09Z" fill="#292929" stroke="black" stroke-width="0.5625" stroke-linecap="round" stroke-linejoin="round"/>
<path d="M62.9023 100.613C61.7852 100.641 54.3594 100.941 49.8594 106.844C45.0664 113.145 45.5234 123.262 52.1992 129.023C58.8008 134.723 69.1484 134.113 75.2344 127.395C74.0625 127.754 66.7891 129.84 60.0664 125.551C58.8086 124.746 53.1211 121.117 52.6953 114.781C52.3047 109.027 56.3984 103.215 62.9023 100.605V100.613Z" fill="black"/>
<path d="M74.6992 97.7383C73.0664 96.2461 70.0937 93.1289 68.5742 88.2812C68.1367 86.8867 64.8828 76.5508 71.6914 69.7109C77.4453 63.9297 85.6562 65.3906 86.0117 65.4609C92.168 66.6602 95.4883 71.1016 96.2187 72.1211C94.9492 71.4687 89.8633 69.0234 83.7461 70.7031C77.7734 72.3437 73.3437 77.2187 71.8437 82.8906C69.7734 90.7109 74.1094 96.8984 74.7148 97.7383H74.6992Z" fill="black"/>
<path d="M81.3984 121.164C82.0859 124.5 82.8086 130.066 81.6094 136.754C80.3789 143.648 77.6484 148.734 75.7969 151.637H89.2578C87.1367 146.258 85.3438 139.207 85.8516 131.086C85.9258 129.887 86.0469 128.73 86.2031 127.613C87.2383 128.691 94.2305 135.727 104.273 134.766C105.797 134.625 110.543 134.109 114.758 130.516C121.5 124.77 124.191 113.445 119.219 106.352C116.902 103.043 113.535 101.527 111.457 100.824C112.254 101.633 117.234 106.898 116.594 114.645C116.031 121.441 111.449 126.539 106.816 128.82C98.9609 132.684 88.1328 129.816 81.375 121.172L81.3984 121.164Z" fill="black"/>
<defs>
<linearGradient id="paint0_linear_2314_2672" x1="158.07" y1="49.275" x2="11.43" y2="49.275" gradientUnits="userSpaceOnUse">
<stop stop-color="#8F8587"/>
<stop offset="0.00390625" stop-color="#908688"/>
<stop offset="0.0078125" stop-color="#918789"/>
<stop offset="0.0117188" stop-color="#92888A"/>
<stop offset="0.015625" stop-color="#92898B"/>
<stop offset="0.0195313" stop-color="#938A8B"/>
<stop offset="0.0234375" stop-color="#948B8C"/>
<stop offset="0.0273438" stop-color="#958C8D"/>
<stop offset="0.03125" stop-color="#968D8E"/>
<stop offset="0.0351563" stop-color="#978D8F"/>
<stop offset="0.0390625" stop-color="#988E90"/>
<stop offset="0.0429688" stop-color="#988F91"/>
<stop offset="0.046875" stop-color="#999092"/>
<stop offset="0.0507813" stop-color="#9A9193"/>
<stop offset="0.0546875" stop-color="#9B9294"/>
<stop offset="0.0585938" stop-color="#9C9395"/>
<stop offset="0.0625" stop-color="#9D9496"/>
<stop offset="0.0664062" stop-color="#9D9596"/>
<stop offset="0.0703125" stop-color="#9E9697"/>
<stop offset="0.0742188" stop-color="#9F9798"/>
<stop offset="0.078125" stop-color="#A09899"/>
<stop offset="0.0820312" stop-color="#A1999A"/>
<stop offset="0.0859375" stop-color="#A2999B"/>
<stop offset="0.0898438" stop-color="#A39A9C"/>
<stop offset="0.09375" stop-color="#A39B9D"/>
<stop offset="0.0976562" stop-color="#A49C9E"/>
<stop offset="0.101562" stop-color="#A59D9F"/>
<stop offset="0.105469" stop-color="#A69EA0"/>
<stop offset="0.109375" stop-color="#A79FA0"/>
<stop offset="0.113281" stop-color="#A8A0A1"/>
<stop offset="0.117188" stop-color="#A8A1A2"/>
<stop offset="0.121094" stop-color="#A9A2A3"/>
<stop offset="0.125" stop-color="#AAA3A4"/>
<stop offset="0.128906" stop-color="#ABA4A5"/>
<stop offset="0.132812" stop-color="#ACA5A6"/>
<stop offset="0.136719" stop-color="#ADA5A7"/>
<stop offset="0.140625" stop-color="#AEA6A8"/>
<stop offset="0.144531" stop-color="#AEA7A9"/>
<stop offset="0.148438" stop-color="#AFA8AA"/>
<stop offset="0.152344" stop-color="#B0A9AB"/>
<stop offset="0.15625" stop-color="#B1AAAB"/>
<stop offset="0.160156" stop-color="#B2ABAC"/>
<stop offset="0.164062" stop-color="#B3ACAD"/>
<stop offset="0.167969" stop-color="#B3ADAE"/>
<stop offset="0.171875" stop-color="#B4AEAF"/>
<stop offset="0.175781" stop-color="#B5AFB0"/>
<stop offset="0.179688" stop-color="#B6B0B1"/>
<stop offset="0.183594" stop-color="#B7B1B2"/>
<stop offset="0.1875" stop-color="#B8B2B3"/>
<stop offset="0.191406" stop-color="#B9B2B4"/>
<stop offset="0.195312" stop-color="#B9B3B5"/>
<stop offset="0.199219" stop-color="#BAB4B5"/>
<stop offset="0.203125" stop-color="#BBB5B6"/>
<stop offset="0.207031" stop-color="#BCB6B7"/>
<stop offset="0.210938" stop-color="#BDB7B8"/>
<stop offset="0.214844" stop-color="#BEB8B9"/>
<stop offset="0.21875" stop-color="#BEB9BA"/>
<stop offset="0.222656" stop-color="#BFBABB"/>
<stop offset="0.226562" stop-color="#C0BBBC"/>
<stop offset="0.230469" stop-color="#C1BCBD"/>
<stop offset="0.234375" stop-color="#C2BDBE"/>
<stop offset="0.238281" stop-color="#C3BEBF"/>
<stop offset="0.242188" stop-color="#C3BEBF"/>
<stop offset="0.246094" stop-color="#C4BFC0"/>
<stop offset="0.25" stop-color="#C5C0C1"/>
<stop offset="0.253906" stop-color="#C6C1C2"/>
<stop offset="0.257813" stop-color="#C6C2C3"/>
<stop offset="0.261719" stop-color="#C7C3C3"/>
<stop offset="0.265625" stop-color="#C8C3C4"/>
<stop offset="0.269531" stop-color="#C9C4C5"/>
<stop offset="0.273438" stop-color="#C9C5C6"/>
<stop offset="0.277344" stop-color="#CAC6C7"/>
<stop offset="0.28125" stop-color="#CBC7C7"/>
<stop offset="0.285156" stop-color="#CCC7C8"/>
<stop offset="0.289063" stop-color="#CCC8C9"/>
<stop offset="0.292969" stop-color="#CDC9CA"/>
<stop offset="0.296875" stop-color="#CECACB"/>
<stop offset="0.300781" stop-color="#CFCBCB"/>
<stop offset="0.304688" stop-color="#CFCCCC"/>
<stop offset="0.308594" stop-color="#D0CCCD"/>
<stop offset="0.3125" stop-color="#D1CDCE"/>
<stop offset="0.316406" stop-color="#D2CECF"/>
<stop offset="0.320313" stop-color="#D2CFCF"/>
<stop offset="0.324219" stop-color="#D3D0D0"/>
<stop offset="0.328125" stop-color="#D4D0D1"/>
<stop offset="0.332031" stop-color="#D5D1D2"/>
<stop offset="0.335938" stop-color="#D5D2D3"/>
<stop offset="0.339844" stop-color="#D6D3D3"/>
<stop offset="0.34375" stop-color="#D7D4D4"/>
<stop offset="0.347656" stop-color="#D8D5D5"/>
<stop offset="0.351563" stop-color="#D8D5D6"/>
<stop offset="0.355469" stop-color="#D9D6D7"/>
<stop offset="0.359375" stop-color="#DAD7D7"/>
<stop offset="0.363281" stop-color="#DBD8D8"/>
<stop offset="0.367188" stop-color="#DBD9D9"/>
<stop offset="0.371094" stop-color="#DCDADA"/>
<stop offset="0.375" stop-color="#DDDADB"/>
<stop offset="0.378906" stop-color="#DEDBDB"/>
<stop offset="0.382813" stop-color="#DEDCDC"/>
<stop offset="0.386719" stop-color="#DFDDDD"/>
<stop offset="0.390625" stop-color="#E0DEDE"/>
<stop offset="0.394531" stop-color="#E1DEDF"/>
<stop offset="0.398438" stop-color="#E1DFE0"/>
<stop offset="0.402344" stop-color="#E2E0E0"/>
<stop offset="0.40625" stop-color="#E3E1E1"/>
<stop offset="0.410156" stop-color="#E4E2E2"/>
<stop offset="0.414063" stop-color="#E4E3E3"/>
<stop offset="0.417969" stop-color="#E5E3E4"/>
<stop offset="0.421875" stop-color="#E6E4E4"/>
<stop offset="0.425781" stop-color="#E6E5E5"/>
<stop offset="0.429688" stop-color="#E7E6E6"/>
<stop offset="0.433594" stop-color="#E8E7E7"/>
<stop offset="0.4375" stop-color="#E9E7E8"/>
<stop offset="0.441406" stop-color="#E9E8E8"/>
<stop offset="0.445313" stop-color="#EAE9E9"/>
<stop offset="0.449219" stop-color="#EBEAEA"/>
<stop offset="0.453125" stop-color="#ECEBEB"/>
<stop offset="0.457031" stop-color="#ECEBEB"/>
<stop offset="0.460938" stop-color="#EDECEC"/>
<stop offset="0.464844" stop-color="#EDECEC"/>
<stop offset="0.46875" stop-color="#EEEDED"/>
<stop offset="0.472656" stop-color="#EEEEEE"/>
<stop offset="0.476563" stop-color="#EFEEEE"/>
<stop offset="0.480469" stop-color="#EFEFEF"/>
<stop offset="0.484375" stop-color="#F0EFEF"/>
<stop offset="0.488281" stop-color="#F1F0F0"/>
<stop offset="0.492188" stop-color="#F1F1F1"/>
<stop offset="0.496094" stop-color="#F2F1F1"/>
<stop offset="0.5" stop-color="#F2F2F2"/>
<stop offset="0.503906" stop-color="#F3F2F2"/>
<stop offset="0.507813" stop-color="#F3F3F3"/>
<stop offset="0.511719" stop-color="#F4F4F4"/>
<stop offset="0.515625" stop-color="#F5F4F4"/>
<stop offset="0.519531" stop-color="#F5F5F5"/>
<stop offset="0.523438" stop-color="#F6F5F5"/>
<stop offset="0.527344" stop-color="#F6F6F6"/>
<stop offset="0.53125" stop-color="#F7F7F7"/>
<stop offset="0.535156" stop-color="#F7F7F7"/>
<stop offset="0.539062" stop-color="#F8F8F8"/>
<stop offset="0.542969" stop-color="#F8F8F8"/>
<stop offset="0.546875" stop-color="#F9F9F9"/>
<stop offset="0.550781" stop-color="#FAFAFA"/>
<stop offset="0.554688" stop-color="#FAFAFA"/>
<stop offset="0.5625" stop-color="#FBFBFB"/>
<stop offset="0.625" stop-color="#FBFBFB"/>
<stop offset="0.75" stop-color="#FBFBFB"/>
<stop offset="1" stop-color="#FBFBFB"/>
</linearGradient>
<linearGradient id="paint1_linear_2314_2672" x1="11.28" y1="188.265" x2="157.995" y2="188.265" gradientUnits="userSpaceOnUse">
<stop stop-color="#8F8587"/>
<stop offset="0.00390625" stop-color="#908688"/>
<stop offset="0.0078125" stop-color="#918789"/>
<stop offset="0.0117188" stop-color="#91888A"/>
<stop offset="0.015625" stop-color="#92898A"/>
<stop offset="0.0195312" stop-color="#938A8B"/>
<stop offset="0.0234375" stop-color="#948A8C"/>
<stop offset="0.0273438" stop-color="#958B8D"/>
<stop offset="0.03125" stop-color="#968C8E"/>
<stop offset="0.0351563" stop-color="#968D8F"/>
<stop offset="0.0390625" stop-color="#978E90"/>
<stop offset="0.0429688" stop-color="#988F91"/>
<stop offset="0.046875" stop-color="#999091"/>
<stop offset="0.0507813" stop-color="#9A9192"/>
<stop offset="0.0546875" stop-color="#9A9293"/>
<stop offset="0.0585938" stop-color="#9B9294"/>
<stop offset="0.0625" stop-color="#9C9395"/>
<stop offset="0.0664062" stop-color="#9D9496"/>
<stop offset="0.0703125" stop-color="#9E9597"/>
<stop offset="0.0742188" stop-color="#9E9698"/>
<stop offset="0.078125" stop-color="#9F9798"/>
<stop offset="0.0820312" stop-color="#A09899"/>
<stop offset="0.0859375" stop-color="#A1999A"/>
<stop offset="0.0898438" stop-color="#A29A9B"/>
<stop offset="0.09375" stop-color="#A39A9C"/>
<stop offset="0.0976562" stop-color="#A39B9D"/>
<stop offset="0.101562" stop-color="#A49C9E"/>
<stop offset="0.105469" stop-color="#A59D9F"/>
<stop offset="0.109375" stop-color="#A69E9F"/>
<stop offset="0.113281" stop-color="#A79FA0"/>
<stop offset="0.117188" stop-color="#A7A0A1"/>
<stop offset="0.121094" stop-color="#A8A1A2"/>
<stop offset="0.125" stop-color="#A9A2A3"/>
<stop offset="0.128906" stop-color="#AAA2A4"/>
<stop offset="0.132812" stop-color="#ABA3A5"/>
<stop offset="0.136719" stop-color="#ABA4A6"/>
<stop offset="0.140625" stop-color="#ACA5A6"/>
<stop offset="0.144531" stop-color="#ADA6A7"/>
<stop offset="0.148438" stop-color="#AEA7A8"/>
<stop offset="0.152344" stop-color="#AFA8A9"/>
<stop offset="0.15625" stop-color="#B0A9AA"/>
<stop offset="0.160156" stop-color="#B0AAAB"/>
<stop offset="0.164062" stop-color="#B1AAAC"/>
<stop offset="0.167969" stop-color="#B2ABAD"/>
<stop offset="0.171875" stop-color="#B3ACAD"/>
<stop offset="0.175781" stop-color="#B4ADAE"/>
<stop offset="0.179688" stop-color="#B4AEAF"/>
<stop offset="0.183594" stop-color="#B5AFB0"/>
<stop offset="0.1875" stop-color="#B6B0B1"/>
<stop offset="0.191406" stop-color="#B7B1B2"/>
<stop offset="0.195312" stop-color="#B8B2B3"/>
<stop offset="0.199219" stop-color="#B9B2B4"/>
<stop offset="0.203125" stop-color="#B9B3B4"/>
<stop offset="0.207031" stop-color="#BAB4B5"/>
<stop offset="0.210938" stop-color="#BBB5B6"/>
<stop offset="0.214844" stop-color="#BCB6B7"/>
<stop offset="0.21875" stop-color="#BDB7B8"/>
<stop offset="0.222656" stop-color="#BDB8B9"/>
<stop offset="0.226562" stop-color="#BEB9BA"/>
<stop offset="0.230469" stop-color="#BFBABB"/>
<stop offset="0.234375" stop-color="#C0BABB"/>
<stop offset="0.238281" stop-color="#C1BBBC"/>
<stop offset="0.242188" stop-color="#C1BCBD"/>
<stop offset="0.246094" stop-color="#C2BDBE"/>
<stop offset="0.25" stop-color="#C3BEBF"/>
<stop offset="0.253906" stop-color="#C4BFC0"/>
<stop offset="0.257812" stop-color="#C5C0C1"/>
<stop offset="0.261719" stop-color="#C5C0C1"/>
<stop offset="0.265625" stop-color="#C6C1C2"/>
<stop offset="0.269531" stop-color="#C7C2C3"/>
<stop offset="0.273438" stop-color="#C8C3C4"/>
<stop offset="0.277344" stop-color="#C8C4C5"/>
<stop offset="0.28125" stop-color="#C9C5C5"/>
<stop offset="0.285156" stop-color="#CAC5C6"/>
<stop offset="0.289062" stop-color="#CBC6C7"/>
<stop offset="0.292969" stop-color="#CBC7C8"/>
<stop offset="0.296875" stop-color="#CCC8C9"/>
<stop offset="0.300781" stop-color="#CDC9C9"/>
<stop offset="0.304688" stop-color="#CDC9CA"/>
<stop offset="0.308594" stop-color="#CECACB"/>
<stop offset="0.3125" stop-color="#CFCBCC"/>
<stop offset="0.316406" stop-color="#D0CCCD"/>
<stop offset="0.320312" stop-color="#D0CDCD"/>
<stop offset="0.324219" stop-color="#D1CECE"/>
<stop offset="0.328125" stop-color="#D2CECF"/>
<stop offset="0.332031" stop-color="#D3CFD0"/>
<stop offset="0.335938" stop-color="#D3D0D1"/>
<stop offset="0.339844" stop-color="#D4D1D1"/>
<stop offset="0.34375" stop-color="#D5D2D2"/>
<stop offset="0.347656" stop-color="#D6D2D3"/>
<stop offset="0.351562" stop-color="#D6D3D4"/>
<stop offset="0.355469" stop-color="#D7D4D5"/>
<stop offset="0.359375" stop-color="#D8D5D5"/>
<stop offset="0.363281" stop-color="#D9D6D6"/>
<stop offset="0.367188" stop-color="#D9D7D7"/>
<stop offset="0.371094" stop-color="#DAD7D8"/>
<stop offset="0.375" stop-color="#DBD8D9"/>
<stop offset="0.378906" stop-color="#DCD9D9"/>
<stop offset="0.382812" stop-color="#DCDADA"/>
<stop offset="0.386719" stop-color="#DDDBDB"/>
<stop offset="0.390625" stop-color="#DEDCDC"/>
<stop offset="0.394531" stop-color="#DFDCDD"/>
<stop offset="0.398438" stop-color="#DFDDDD"/>
<stop offset="0.402344" stop-color="#E0DEDE"/>
<stop offset="0.40625" stop-color="#E1DFDF"/>
<stop offset="0.410156" stop-color="#E2E0E0"/>
<stop offset="0.414062" stop-color="#E2E0E1"/>
<stop offset="0.417969" stop-color="#E3E1E1"/>
<stop offset="0.421875" stop-color="#E4E2E2"/>
<stop offset="0.425781" stop-color="#E5E3E3"/>
<stop offset="0.429688" stop-color="#E5E4E4"/>
<stop offset="0.433594" stop-color="#E6E5E5"/>
<stop offset="0.4375" stop-color="#E7E5E5"/>
<stop offset="0.441406" stop-color="#E8E6E6"/>
<stop offset="0.445312" stop-color="#E8E7E7"/>
<stop offset="0.449219" stop-color="#E9E8E8"/>
<stop offset="0.453125" stop-color="#EAE9E9"/>
<stop offset="0.457031" stop-color="#EBE9E9"/>
<stop offset="0.460938" stop-color="#EBEAEA"/>
<stop offset="0.464844" stop-color="#ECEBEB"/>
<stop offset="0.46875" stop-color="#ECEBEB"/>
<stop offset="0.472656" stop-color="#EDECEC"/>
<stop offset="0.476562" stop-color="#EDEDED"/>
<stop offset="0.480469" stop-color="#EEEDED"/>
<stop offset="0.484375" stop-color="#EFEEEE"/>
<stop offset="0.488281" stop-color="#EFEEEE"/>
<stop offset="0.492188" stop-color="#F0EFEF"/>
<stop offset="0.496094" stop-color="#F0F0F0"/>
<stop offset="0.5" stop-color="#F1F0F0"/>
<stop offset="0.503906" stop-color="#F1F1F1"/>
<stop offset="0.507812" stop-color="#F2F1F1"/>
<stop offset="0.511719" stop-color="#F3F2F2"/>
<stop offset="0.515625" stop-color="#F3F3F3"/>
<stop offset="0.519531" stop-color="#F4F3F3"/>
<stop offset="0.523438" stop-color="#F4F4F4"/>
<stop offset="0.527344" stop-color="#F5F4F4"/>
<stop offset="0.53125" stop-color="#F5F5F5"/>
<stop offset="0.535156" stop-color="#F6F6F6"/>
<stop offset="0.539062" stop-color="#F6F6F6"/>
<stop offset="0.542969" stop-color="#F7F7F7"/>
<stop offset="0.546875" stop-color="#F8F7F7"/>
<stop offset="0.550781" stop-color="#F8F8F8"/>
<stop offset="0.554688" stop-color="#F9F9F9"/>
<stop offset="0.558594" stop-color="#F9F9F9"/>
<stop offset="0.5625" stop-color="#FAFAFA"/>
<stop offset="0.566406" stop-color="#FAFAFA"/>
<stop offset="0.570312" stop-color="#FBFBFB"/>
<stop offset="0.578125" stop-color="#FBFBFB"/>
<stop offset="0.59375" stop-color="#FBFBFB"/>
<stop offset="0.625" stop-color="#FBFBFB"/>
<stop offset="0.75" stop-color="#FBFBFB"/>
<stop offset="1" stop-color="#FBFBFB"/>
</linearGradient>
</defs>
</svg>
