<svg width="170" height="239" viewBox="0 0 170 239" fill="none" xmlns="http://www.w3.org/2000/svg">
<path d="M163.281 238.422H6.76562C3.44141 238.422 0.75 235.707 0.75 232.363V6.79297C0.75 3.44922 3.44141 0.734375 6.76562 0.734375H163.281C166.605 0.734375 169.297 3.44922 169.297 6.79297V232.363C169.297 235.707 166.605 238.422 163.281 238.422Z" fill="white"/>
<mask id="mask0_2314_2680" style="mask-type:luminance" maskUnits="userSpaceOnUse" x="11" y="10" width="148" height="79">
<path d="M11 10H159V89H11V10Z" fill="white"/>
</mask>
<g mask="url(#mask0_2314_2680)">
<mask id="mask1_2314_2680" style="mask-type:luminance" maskUnits="userSpaceOnUse" x="11" y="10" width="148" height="79">
<path d="M158.43 88.4766C158.43 62.5781 158.438 36.6719 158.445 10.7734C109.59 10.7734 60.7266 10.7734 11.8711 10.7812C11.8516 36.2617 11.8281 61.7383 11.8047 87.2148C14.3711 75.7773 19.5469 58.9102 29.4141 49.9023C36.9688 43.0156 40.7383 39.5664 43.6953 38.1875C45.0664 37.543 49.4531 35.6445 53.0859 31.2109C53.7617 30.3945 54.2461 29.6758 54.5547 29.1953C54.8711 29.6133 56.0859 31.168 57.7578 31.1992C59.9336 31.2344 62.3633 28.6836 62.4844 24.8438C62.7383 25.4141 64.875 29.9609 69.7344 30.9883C72.0742 31.4844 74.0391 30.957 75.0508 30.5977C75.7109 30.0508 76.5898 29.2031 77.3906 27.9883C78.1797 26.7969 78.6094 25.6758 78.8555 24.8672H91.4023C91.4766 25.332 92.0859 28.7617 95.2031 30.4688C98.2578 32.1406 101.355 30.8672 102.309 30.4844C105.602 29.1562 106.996 26.4219 107.301 25.7734C108.047 29.3164 110.52 31.5039 112.695 31.332C113.047 31.3008 114.18 31.1523 115.359 29.832L119.113 32.9609C120.586 33.8281 122.648 35.1133 125.023 36.7773C127.816 38.7266 137.07 45.2969 144.336 54.7383C153.988 67.2812 157.223 81.0859 158.422 88.4609L158.43 88.4766Z" fill="white"/>
</mask>
<g mask="url(#mask1_2314_2680)">
<path d="M11.8047 10.7734V88.4766H158.445V10.7734H11.8047Z" fill="url(#paint0_linear_2314_2680)"/>
</g>
</g>
<path d="M158.82 228.566H11.3477C11.3477 183.238 11.3477 137.906 11.3477 92.5782C11.3477 65.1875 11.3477 37.8047 11.3477 10.4141H158.82C158.82 37.7617 158.82 65.1055 158.82 92.4492C158.82 137.824 158.82 183.191 158.82 228.566Z" stroke="#0E0E0E" stroke-width="0.75" stroke-linecap="round" stroke-linejoin="round"/>
<path d="M84.9961 32.8477C84.9453 32.2266 84.6914 30.043 82.8828 28.1914C81.2617 26.5234 79.3594 26.1289 78.7031 26.0156C78.7578 25.3633 78.8086 24.7109 78.8633 24.0586C79.7188 23.6602 81.4336 22.7148 82.8594 20.8008C84.3086 18.8594 84.7187 16.9258 84.8555 15.9883C85.1914 17.1563 85.9336 19.1602 87.6289 21.1094C88.9336 22.6094 90.3242 23.5234 91.2812 24.0586C91.3359 24.7109 91.3867 25.3633 91.4414 26.0156C90.9766 26.0586 87.9844 26.4062 86.1836 29.0234C85.125 30.5664 84.9961 32.1406 84.9844 32.8477H84.9961Z" fill="white"/>
<path d="M53.7891 22.4063C54.6211 22.168 55.9961 21.9063 57.5469 22.2813C58.9063 22.6016 59.8203 23.2618 60.336 23.6524C64.8985 27.0743 65.5742 29.7266 68.707 30.9259C69.1133 31.086 72.0469 32.0508 75 30.6719C77.0859 29.6993 78.5703 27.4766 78.8008 25.0704C79.1328 21.6212 76.7344 18.2071 73.9492 17.586C73.6289 17.5118 71.8711 17.1212 70.4414 18.1915C70.2617 18.3282 69.1484 19.1837 68.9922 20.6915C68.9688 20.9142 68.7891 22.8595 70.2735 23.8009C71.1094 24.3282 72.1641 24.3594 73.0039 23.9688C74.1992 23.4219 74.918 22.047 74.7305 20.5782C75.0234 20.8985 75.4258 21.4024 75.75 22.0938C75.9062 22.4219 76.9258 24.6798 75.9531 26.8477C74.7656 29.4884 71.5352 29.9532 71.1016 30.0118C68.2109 30.4259 65.2109 28.9103 63.2461 26.1876" stroke="#0E0E0E" stroke-width="0.75" stroke-linecap="round" stroke-linejoin="round"/>
<path d="M78.8633 23.9687C79.4336 23.6914 80.3242 23.1875 81.2344 22.3633C84.1367 19.7148 84.668 16.039 84.9062 14.4062C85.043 13.4844 85.1641 12.1094 85.0039 10.4062" stroke="#0E0E0E" stroke-width="0.75" stroke-linecap="round" stroke-linejoin="round"/>
<path d="M78.7031 25.9258C79.418 26.0508 80.1914 26.2774 80.9531 26.668C84.4141 28.4297 84.9219 32.1211 84.9961 32.7578" stroke="#0E0E0E" stroke-width="0.75" stroke-linecap="round" stroke-linejoin="round"/>
<path d="M116.371 22.4063C115.539 22.168 114.164 21.9063 112.613 22.2813C111.254 22.6016 110.34 23.2618 109.824 23.6524C105.262 27.0743 104.586 29.7266 101.453 30.9259C101.047 31.086 98.1133 32.0508 95.1601 30.6719C93.0742 29.6993 91.5899 27.4766 91.3594 25.0704C91.0274 21.6212 93.4258 18.2071 96.2109 17.586C96.5313 17.5118 98.2891 17.1212 99.7187 18.1915C99.8984 18.3282 101.012 19.1837 101.168 20.6915C101.191 20.9142 101.371 22.8595 99.8867 23.8009C99.0508 24.3282 97.9961 24.3594 97.1562 23.9688C95.9609 23.4219 95.2422 22.047 95.4297 20.5782C95.1367 20.8985 94.7344 21.4024 94.4101 22.0938C94.2539 22.4219 93.2344 24.6798 94.207 26.8477C95.3906 29.4884 98.625 29.9532 99.0586 30.0118C101.949 30.4259 104.949 28.9103 106.914 26.1876" stroke="#0E0E0E" stroke-width="0.75" stroke-linecap="round" stroke-linejoin="round"/>
<path d="M91.4531 25.9258C90.7422 26.0508 89.9688 26.2774 89.2031 26.668C85.7461 28.4297 85.2383 32.1211 85.1641 32.7578" stroke="#0E0E0E" stroke-width="0.75" stroke-linecap="round" stroke-linejoin="round"/>
<path d="M115.664 29.2617C115.551 29.5156 114.961 30.8281 113.574 31.2656C112.102 31.7305 110.813 30.875 110.273 30.5156C108 29.0078 107.773 26.1367 107.754 25.6719" stroke="#0E0E0E" stroke-width="0.75" stroke-linecap="round" stroke-linejoin="round"/>
<path d="M123.637 36.172C122.992 35.8009 122.086 35.2462 121.066 34.504C118.117 32.3594 115.816 30.6876 115.215 27.9571C114.668 25.4767 115.785 23.3829 115.98 23.0313C117.816 19.7149 121.664 19.168 122.461 19.0782C126.039 18.672 129.668 20.5626 131.941 23.8633" stroke="#0E0E0E" stroke-width="0.75" stroke-linecap="round" stroke-linejoin="round"/>
<path d="M131.445 41.3242C131.484 33.6055 129.594 27.5469 126.602 25.8711C125.063 25.0156 123.504 24.9961 123.504 24.9961C122.984 24.9961 120.367 25.0312 118.711 27.1914C117.234 29.1211 117.602 31.3242 117.668 31.6992" stroke="#0E0E0E" stroke-width="0.75" stroke-linecap="round" stroke-linejoin="round"/>
<path d="M152.574 37.4219C152.961 37.2266 154.207 36.6485 155.551 36.9961C157.941 37.6016 158.211 40.4883 158.227 40.6993C158.371 42.5391 157.246 44.6758 155.102 45.4415C153.449 46.0235 151.859 45.5587 151.012 45.3126C148.266 44.5118 146.762 42.6407 146.012 41.6993C143.609 38.6368 144.781 37.1524 142.32 34.9766C141.652 34.3868 140.301 33.1836 138.234 32.8711C136.078 32.5313 135.195 33.461 133.23 32.9141C131.301 32.3751 130.305 30.9571 130.051 30.5587C129.93 30.379 128.527 28.1211 129.848 25.8516C130.117 25.379 130.922 24.004 132.727 23.6094C134.371 23.254 136.176 23.8555 137.168 25.0313C138.016 26.0391 138.262 27.4532 137.602 28.5782C137.461 28.8282 137.012 29.5938 135.988 29.8985C135.137 30.1563 134.047 30.043 133.297 29.4414C132.637 28.9102 132.516 28.2266 132.496 28.0235" stroke="#0E0E0E" stroke-width="0.75" stroke-linecap="round" stroke-linejoin="round"/>
<path d="M143.863 37.0703C143.551 33.6485 141.801 30.836 139.246 29.9219C138.66 29.711 137.746 29.5039 136.531 29.6524" stroke="#0E0E0E" stroke-width="0.75" stroke-linecap="round" stroke-linejoin="round"/>
<path d="M146.461 42.3789C145.996 42.2617 144.059 41.8086 142.41 42.8907C140.422 44.1953 139.629 47.2188 140.852 50.0821" stroke="#0E0E0E" stroke-width="0.75" stroke-linecap="round" stroke-linejoin="round"/>
<path d="M147.816 52.6838C147.512 52.672 146.871 52.6759 146.199 53.0314C145.102 53.6095 144.742 54.6642 144.676 54.9064" stroke="#0E0E0E" stroke-width="0.75" stroke-linecap="round" stroke-linejoin="round"/>
<path d="M158.805 91.4961C158.789 91.3906 158.773 91.2031 158.746 90.9883C158.16 85.8515 154.852 61.8633 135.129 44.3672C132.676 42.1914 128.871 39.1406 123.637 36.1719" stroke="#0E0E0E" stroke-width="0.75" stroke-linecap="round" stroke-linejoin="round"/>
<path d="M84.9961 32.8477C84.9453 32.2266 84.6914 30.043 82.8828 28.1914C81.2617 26.5235 79.3594 26.1289 78.7031 26.0156C78.7578 25.3633 78.8086 24.711 78.8633 24.0586C79.7188 23.6602 81.4336 22.7149 82.8594 20.8008C84.3086 18.8594 84.7188 16.9258 84.8555 15.9883C85.1914 17.1563 85.9336 19.1602 87.6289 21.1094C88.9336 22.6094 90.3242 23.5235 91.2813 24.0586C91.3359 24.711 91.3867 25.3633 91.4414 26.0156C90.9766 26.0586 87.9844 26.4063 86.1836 29.0235C85.125 30.5664 84.9961 32.1406 84.9844 32.8477H84.9961Z" fill="black" stroke="black" stroke-width="0.5625" stroke-linecap="round" stroke-linejoin="round"/>
<path d="M116.371 22.4063C115.539 22.168 114.164 21.9063 112.613 22.2813C111.254 22.6016 110.34 23.2618 109.824 23.6524C105.262 27.0743 104.586 29.7266 101.453 30.9259C101.047 31.086 98.1133 32.0508 95.1601 30.6719C93.0742 29.6993 91.5899 27.4766 91.3594 25.0704C91.0274 21.6212 93.4258 18.2071 96.2109 17.586C96.5313 17.5118 98.2891 17.1212 99.7187 18.1915C99.8984 18.3282 101.012 19.1837 101.168 20.6915C101.191 20.9142 101.371 22.8595 99.8867 23.8009C99.0508 24.3282 97.9961 24.3594 97.1562 23.9688C95.9609 23.4219 95.2422 22.047 95.4297 20.5782C95.1367 20.8985 94.7344 21.4024 94.4101 22.0938C94.2539 22.4219 93.2344 24.6798 94.207 26.8477C95.3906 29.4884 98.625 29.9532 99.0586 30.0118C101.949 30.4259 104.949 28.9103 106.914 26.1876" stroke="#0E0E0E" stroke-width="0.75" stroke-linecap="round" stroke-linejoin="round"/>
<path d="M91.2969 23.9687C90.1953 23.4219 89.4219 22.8125 88.9258 22.3633C85.582 19.3164 85.2617 14.7969 85.1406 13.1289C85.0586 11.9883 85.1016 11.0469 85.1563 10.4062" stroke="#0E0E0E" stroke-width="0.75" stroke-linecap="round" stroke-linejoin="round"/>
<path d="M91.4531 25.9258C90.7422 26.0508 89.9688 26.2774 89.2031 26.668C85.7461 28.4297 85.2383 32.1211 85.1641 32.7578" stroke="#0E0E0E" stroke-width="0.75" stroke-linecap="round" stroke-linejoin="round"/>
<path d="M115.664 29.2617C115.551 29.5156 114.961 30.8281 113.574 31.2656C112.102 31.7305 110.813 30.875 110.273 30.5156C108 29.0078 107.773 26.1367 107.754 25.6719" stroke="#0E0E0E" stroke-width="0.75" stroke-linecap="round" stroke-linejoin="round"/>
<path d="M123.637 36.172C122.992 35.8009 122.086 35.2462 121.066 34.504C118.117 32.3594 115.816 30.6876 115.215 27.9571C114.668 25.4767 115.785 23.3829 115.98 23.0313C117.816 19.7149 121.664 19.168 122.461 19.0782C126.039 18.672 129.668 20.5626 131.941 23.8633" stroke="#0E0E0E" stroke-width="0.75" stroke-linecap="round" stroke-linejoin="round"/>
<path d="M131.445 41.3242C131.484 33.6055 129.594 27.5469 126.602 25.8711C125.063 25.0156 123.504 24.9961 123.504 24.9961C122.984 24.9961 120.367 25.0312 118.711 27.1914C117.234 29.1211 117.602 31.3242 117.668 31.6992" stroke="#0E0E0E" stroke-width="0.75" stroke-linecap="round" stroke-linejoin="round"/>
<path d="M152.574 37.4219C152.961 37.2266 154.207 36.6485 155.551 36.9961C157.941 37.6016 158.211 40.4883 158.227 40.6993C158.371 42.5391 157.246 44.6758 155.102 45.4415C153.449 46.0235 151.859 45.5587 151.012 45.3126C148.266 44.5118 146.762 42.6407 146.012 41.6993C143.609 38.6368 144.781 37.1524 142.32 34.9766C141.652 34.3868 140.301 33.1836 138.234 32.8711C136.078 32.5313 135.195 33.461 133.23 32.9141C131.301 32.3751 130.305 30.9571 130.051 30.5587C129.93 30.379 128.527 28.1211 129.848 25.8516C130.117 25.379 130.922 24.004 132.727 23.6094C134.371 23.254 136.176 23.8555 137.168 25.0313C138.016 26.0391 138.262 27.4532 137.602 28.5782C137.461 28.8282 137.012 29.5938 135.988 29.8985C135.137 30.1563 134.047 30.043 133.297 29.4414C132.637 28.9102 132.516 28.2266 132.496 28.0235" stroke="#0E0E0E" stroke-width="0.75" stroke-linecap="round" stroke-linejoin="round"/>
<path d="M143.863 37.0703C143.551 33.6485 141.801 30.836 139.246 29.9219C138.66 29.711 137.746 29.5039 136.531 29.6524" stroke="#0E0E0E" stroke-width="0.75" stroke-linecap="round" stroke-linejoin="round"/>
<path d="M158.715 49.1445C157.484 47.039 155.52 45.7265 153.563 45.8437C151.141 45.996 149.715 48.2656 149.102 49.2499C145.637 54.7773 149.34 62.328 149.91 63.4608" stroke="#0E0E0E" stroke-width="0.75" stroke-linecap="round" stroke-linejoin="round"/>
<path d="M158.766 90.8242C157.359 81.1719 152.773 60.0586 135.129 44.375C131.289 40.961 127.363 38.2852 123.637 36.1758" stroke="#0E0E0E" stroke-width="0.75" stroke-linecap="round" stroke-linejoin="round"/>
<mask id="mask2_2314_2680" style="mask-type:luminance" maskUnits="userSpaceOnUse" x="11" y="149" width="148" height="80">
<path d="M11 149H159V229H11V149Z" fill="white"/>
</mask>
<g mask="url(#mask2_2314_2680)">
<mask id="mask3_2314_2680" style="mask-type:luminance" maskUnits="userSpaceOnUse" x="11" y="149" width="148" height="80">
<path d="M11.6562 149.023C11.6758 175.414 11.6914 201.809 11.7148 228.191C60.5781 228.184 109.441 228.172 158.301 228.164C158.324 202.684 158.348 177.207 158.371 151.73C153.516 163.016 146.078 176.773 134.535 190.512C130.078 195.809 125.594 200.426 121.266 204.434C120.066 206.023 118.867 207.605 117.676 209.195C116.992 209.383 116.309 209.562 115.629 209.75C115.313 209.328 114.098 207.777 112.426 207.746C110.25 207.711 107.82 210.262 107.699 214.102C107.445 213.531 105.309 208.984 100.449 207.957C98.1094 207.461 96.1406 207.988 95.1289 208.348C94.4688 208.895 93.5938 209.742 92.7891 210.957C92.0039 212.148 91.5742 213.266 91.3281 214.078H78.7812C78.7031 213.613 78.0977 210.184 74.9766 208.477C71.9258 206.801 68.8281 208.078 67.875 208.461C64.582 209.789 63.1875 212.523 62.8789 213.172C62.1367 209.629 59.6641 207.441 57.4883 207.613C57.1367 207.641 56.0039 207.793 54.8242 209.113C53.5742 208.07 52.3203 207.027 51.0664 205.984C45.2461 203.105 34.4102 196.766 25.3125 184.484C14.6758 170.113 12.3242 155.57 11.6719 149.031L11.6562 149.023Z" fill="white"/>
</mask>
<g mask="url(#mask3_2314_2680)">
<path d="M11.6562 149.023V228.191H158.371V149.023H11.6562Z" fill="url(#paint1_linear_2314_2680)"/>
</g>
</g>
<path d="M85.043 206.301C85.0937 206.922 85.3516 209.105 87.1562 210.957C88.7773 212.621 90.6836 213.02 91.3359 213.133C91.2812 213.785 91.2305 214.437 91.1758 215.09C90.3242 215.488 88.6055 216.434 87.1797 218.344C85.7344 220.289 85.3203 222.223 85.1836 223.16C84.8477 221.988 84.1055 219.988 82.4102 218.039C81.1055 216.539 79.7188 215.621 78.7578 215.09C78.7031 214.437 78.6523 213.785 78.6016 213.133C79.0664 213.086 82.0586 212.742 83.8594 210.125C84.9141 208.578 85.043 207.004 85.0586 206.301H85.043Z" fill="white"/>
<path d="M116.25 216.738C115.418 216.98 114.047 217.242 112.492 216.867C111.137 216.547 110.219 215.887 109.703 215.496C105.141 212.074 104.469 209.422 101.332 208.219C100.926 208.063 97.9961 207.094 95.0391 208.477C92.9532 209.449 91.4688 211.672 91.2383 214.078C90.9063 217.527 93.3086 220.941 96.0899 221.563C96.4141 221.637 98.168 222.027 99.6016 220.953C99.7813 220.82 100.891 219.965 101.047 218.457C101.07 218.234 101.25 216.289 99.7656 215.344C98.9336 214.82 97.875 214.789 97.0352 215.18C95.8438 215.727 95.1211 217.102 95.3086 218.57C95.0157 218.246 94.6133 217.746 94.2891 217.055C94.1328 216.727 93.1133 214.469 94.086 212.301C95.2735 209.66 98.5039 209.195 98.9414 209.137C101.828 208.723 104.828 210.238 106.793 212.961" stroke="#0E0E0E" stroke-width="0.75" stroke-linecap="round" stroke-linejoin="round"/>
<path d="M91.1758 215.172C90.1211 215.699 89.3476 216.289 88.8086 216.777C85.6953 219.605 85.2383 223.723 85.0195 225.648C84.8789 226.902 84.8906 227.938 84.9219 228.574" stroke="#0E0E0E" stroke-width="0.75" stroke-linecap="round" stroke-linejoin="round"/>
<path d="M91.336 213.223C90.6211 213.094 89.8516 212.871 89.086 212.48C85.6289 210.719 85.1172 207.027 85.043 206.391" stroke="#0E0E0E" stroke-width="0.75" stroke-linecap="round" stroke-linejoin="round"/>
<path d="M53.6758 216.738C54.5117 216.98 55.8828 217.242 57.4336 216.867C58.793 216.547 59.707 215.887 60.2266 215.496C64.7852 212.074 65.4609 209.422 68.5938 208.219C69 208.063 71.9336 207.094 74.8867 208.477C76.9727 209.449 78.457 211.672 78.6914 214.078C79.0195 217.527 76.6211 220.941 73.8359 221.563C73.5156 221.637 71.7617 222.027 70.3281 220.953C70.1484 220.82 69.0391 219.965 68.8789 218.457C68.8594 218.234 68.6758 216.289 70.1641 215.344C70.9961 214.82 72.0508 214.789 72.8906 215.18C74.0859 215.727 74.8047 217.102 74.6172 218.57C74.9102 218.246 75.3164 217.746 75.6367 217.055C75.7969 216.727 76.8164 214.469 75.8399 212.301C74.6563 209.66 71.4219 209.195 70.9883 209.137C68.1016 208.723 65.1016 210.238 63.1367 212.961" stroke="#0E0E0E" stroke-width="0.75" stroke-linecap="round" stroke-linejoin="round"/>
<path d="M78.5938 213.223C79.2734 213.117 80.0547 212.898 80.8438 212.48C84.0508 210.785 84.8867 207.164 85.043 206.391" stroke="#0E0E0E" stroke-width="0.75" stroke-linecap="round" stroke-linejoin="round"/>
<path d="M54.3828 209.887C54.4961 209.629 55.0859 208.316 56.4766 207.883C57.9453 207.418 59.2344 208.273 59.7735 208.633C62.0469 210.141 62.2734 213.012 62.2969 213.477" stroke="#0E0E0E" stroke-width="0.75" stroke-linecap="round" stroke-linejoin="round"/>
<path d="M46.4024 202.969C47.0469 203.336 47.9531 203.891 48.9766 204.637C51.9219 206.781 54.2266 208.453 54.8242 211.184C55.3711 213.664 54.2539 215.758 54.0586 216.109C52.2226 219.426 48.375 219.973 47.5781 220.063C44.0039 220.469 40.3711 218.578 38.1016 215.277" stroke="#0E0E0E" stroke-width="0.75" stroke-linecap="round" stroke-linejoin="round"/>
<path d="M38.6016 197.824C38.5664 205.543 40.4531 211.602 43.4492 213.273C44.9844 214.129 46.5469 214.152 46.5469 214.152C47.0625 214.152 49.6797 214.113 51.3359 211.953C52.8164 210.027 52.4492 207.824 52.3789 207.449" stroke="#0E0E0E" stroke-width="0.75" stroke-linecap="round" stroke-linejoin="round"/>
<path d="M17.4766 201.727C17.086 201.922 15.8399 202.496 14.4961 202.152C12.1055 201.547 11.836 198.656 11.8203 198.449C11.6758 196.61 12.8008 194.473 14.9492 193.707C16.5977 193.121 18.1875 193.586 19.0352 193.836C21.7813 194.637 23.2891 196.504 24.0391 197.449C26.4375 200.512 25.2656 201.996 27.7266 204.172C28.3945 204.762 29.7461 205.961 31.8164 206.277C33.9688 206.613 34.8516 205.684 36.8164 206.235C38.7461 206.774 39.7422 208.192 39.9961 208.586C40.1172 208.766 41.5195 211.024 40.1992 213.297C39.9297 213.77 39.1289 215.141 37.3203 215.539C35.6758 215.891 33.8711 215.293 32.8789 214.113C32.0313 213.11 31.7852 211.692 32.4453 210.567C32.586 210.32 33.0391 209.555 34.0586 209.246C34.9141 208.992 36 209.106 36.75 209.703C37.4102 210.238 37.5313 210.922 37.5508 211.121" stroke="#0E0E0E" stroke-width="0.75" stroke-linecap="round" stroke-linejoin="round"/>
<path d="M26.1836 202.07C26.4961 205.488 28.2461 208.301 30.8008 209.219C31.3867 209.426 32.3008 209.637 33.5156 209.488" stroke="#0E0E0E" stroke-width="0.75" stroke-linecap="round" stroke-linejoin="round"/>
<path d="M23.5781 196.766C24.0586 196.887 25.9805 197.324 27.6289 196.258C29.6328 194.953 30.4492 191.93 29.2422 189.051" stroke="#0E0E0E" stroke-width="0.75" stroke-linecap="round" stroke-linejoin="round"/>
<path d="M22.2227 186.461C22.5313 186.477 23.168 186.469 23.8438 186.117C24.9688 185.523 25.3125 184.422 25.3789 184.199" stroke="#0E0E0E" stroke-width="0.75" stroke-linecap="round" stroke-linejoin="round"/>
<path d="M11.3633 146.879C12.5625 156.539 16.7774 178.617 34.9141 194.781C38.7461 198.191 42.6602 200.871 46.4024 202.977" stroke="#0E0E0E" stroke-width="0.75" stroke-linecap="round" stroke-linejoin="round"/>
<path d="M85.043 206.301C85.0938 206.922 85.3516 209.105 87.1562 210.957C88.7773 212.621 90.6836 213.02 91.3359 213.133C91.2813 213.785 91.2305 214.437 91.1758 215.09C90.7109 215.301 90.0742 215.629 89.3906 216.148C87.8555 217.324 87.1211 218.703 86.4766 219.949C85.9141 221.047 85.1836 222.738 84.8086 224.977C84.8008 223.902 84.6367 220.82 82.4023 218.031C81.1367 216.441 79.6797 215.547 78.75 215.082C78.6992 214.43 78.6445 213.777 78.5938 213.125C79.0586 213.078 82.0508 212.734 83.8516 210.117C84.9062 208.574 85.0352 206.996 85.0508 206.293L85.043 206.301Z" fill="black" stroke="black" stroke-width="0.5625" stroke-linecap="round" stroke-linejoin="round"/>
<path d="M53.6758 216.738C54.5117 216.98 55.8828 217.242 57.4336 216.867C58.793 216.547 59.707 215.887 60.2266 215.496C64.7852 212.074 65.4609 209.422 68.5938 208.219C69 208.063 71.9336 207.094 74.8867 208.477C76.9727 209.449 78.457 211.672 78.6914 214.078C79.0195 217.527 76.6211 220.941 73.8359 221.563C73.5156 221.637 71.7617 222.027 70.3281 220.953C70.1484 220.82 69.0391 219.965 68.8789 218.457C68.8594 218.234 68.6758 216.289 70.1641 215.344C70.9961 214.82 72.0508 214.789 72.8906 215.18C74.0859 215.727 74.8047 217.102 74.6172 218.57C74.9102 218.246 75.3164 217.746 75.6367 217.055C75.7969 216.727 76.8164 214.469 75.8399 212.301C74.6563 209.66 71.4219 209.195 70.9883 209.137C68.1016 208.723 65.1016 210.238 63.1367 212.961" stroke="#0E0E0E" stroke-width="0.75" stroke-linecap="round" stroke-linejoin="round"/>
<path d="M78.75 215.172C79.3711 215.473 80.2422 215.977 81.1211 216.777C82.9727 218.488 83.6406 220.469 84.1563 222.086C84.9609 224.594 85.043 226.871 84.9297 228.574" stroke="#0E0E0E" stroke-width="0.75" stroke-linecap="round" stroke-linejoin="round"/>
<path d="M78.5938 213.223C79.2734 213.117 80.0547 212.898 80.8438 212.48C84.082 210.762 84.8906 207.059 85.043 206.301" stroke="#0E0E0E" stroke-width="0.75" stroke-linecap="round" stroke-linejoin="round"/>
<path d="M54.3828 209.887C54.4961 209.629 55.0859 208.316 56.4766 207.883C57.9453 207.418 59.2344 208.273 59.7735 208.633C62.0469 210.141 62.2734 213.012 62.2969 213.477" stroke="#0E0E0E" stroke-width="0.75" stroke-linecap="round" stroke-linejoin="round"/>
<path d="M46.4024 202.969C47.0469 203.336 47.9531 203.891 48.9766 204.637C51.9219 206.781 54.2266 208.453 54.8242 211.184C55.3711 213.664 54.2539 215.758 54.0586 216.109C52.2226 219.426 48.375 219.973 47.5781 220.063C44.0039 220.469 40.3711 218.578 38.1016 215.277" stroke="#0E0E0E" stroke-width="0.75" stroke-linecap="round" stroke-linejoin="round"/>
<path d="M38.6016 197.824C38.5664 205.543 40.4531 211.602 43.4492 213.273C44.9844 214.129 46.5469 214.152 46.5469 214.152C47.0625 214.152 49.6797 214.113 51.3359 211.953C52.8164 210.027 52.4492 207.824 52.3789 207.449" stroke="#0E0E0E" stroke-width="0.75" stroke-linecap="round" stroke-linejoin="round"/>
<path d="M17.4766 201.727C17.086 201.922 15.8399 202.496 14.4961 202.152C12.1055 201.547 11.836 198.656 11.8203 198.449C11.6758 196.61 12.8008 194.473 14.9492 193.707C16.5977 193.121 18.1875 193.586 19.0352 193.836C21.7813 194.637 23.2891 196.504 24.0391 197.449C26.4375 200.512 25.2656 201.996 27.7266 204.172C28.3945 204.762 29.7461 205.961 31.8164 206.277C33.9688 206.613 34.8516 205.684 36.8164 206.235C38.7461 206.774 39.7422 208.192 39.9961 208.586C40.1172 208.766 41.5195 211.024 40.1992 213.297C39.9297 213.77 39.1289 215.141 37.3203 215.539C35.6758 215.891 33.8711 215.293 32.8789 214.113C32.0313 213.11 31.7852 211.692 32.4453 210.567C32.586 210.32 33.0391 209.555 34.0586 209.246C34.9141 208.992 36 209.106 36.75 209.703C37.4102 210.238 37.5313 210.922 37.5508 211.121" stroke="#0E0E0E" stroke-width="0.75" stroke-linecap="round" stroke-linejoin="round"/>
<path d="M26.1836 202.07C26.4961 205.488 28.2461 208.301 30.8008 209.219C31.3867 209.426 32.3008 209.637 33.5156 209.488" stroke="#0E0E0E" stroke-width="0.75" stroke-linecap="round" stroke-linejoin="round"/>
<path d="M11.4141 190.137C11.5039 190.289 13.5 193.484 16.4844 193.297C18.8985 193.145 20.3242 190.879 20.9492 189.891C24.4063 184.371 20.707 176.809 20.1367 175.676" stroke="#0E0E0E" stroke-width="0.75" stroke-linecap="round" stroke-linejoin="round"/>
<path d="M23.5781 196.766C24.0586 196.887 25.9805 197.324 27.6289 196.258C29.6328 194.953 30.4492 191.93 29.2422 189.051" stroke="#0E0E0E" stroke-width="0.75" stroke-linecap="round" stroke-linejoin="round"/>
<path d="M22.2227 186.461C22.5313 186.477 23.168 186.469 23.8438 186.117C24.9688 185.523 25.3125 184.422 25.3789 184.199" stroke="#0E0E0E" stroke-width="0.75" stroke-linecap="round" stroke-linejoin="round"/>
<path d="M11.3633 146.879C12.5625 156.539 16.7774 178.617 34.9141 194.781C38.7461 198.191 42.6602 200.871 46.4024 202.977" stroke="#0E0E0E" stroke-width="0.75" stroke-linecap="round" stroke-linejoin="round"/>
<path d="M128.797 194.969H125.641V190.844H126.676V191.234C126.676 191.969 126.93 192.59 127.449 193.113C127.965 193.641 128.594 193.918 129.359 193.949H145.223C145.988 193.918 146.625 193.641 147.141 193.121C147.66 192.605 147.922 191.977 147.922 191.234V190.844H148.957V194.969H147.48C146.242 195.043 145.199 195.477 144.344 196.289C143.488 197.098 142.98 198.109 142.824 199.348L142.809 199.836V199.852L142.727 201.215L142.109 212.75V212.891C141.984 214.422 141.219 215.504 139.824 216.141C139.379 216.32 138.93 216.41 138.457 216.41H128.355V215.344L128.773 215.391C129.203 215.367 129.563 215.219 129.848 214.934C130.133 214.648 130.289 214.297 130.312 213.867V196.535C130.312 196.113 130.164 195.754 129.871 195.461C129.578 195.172 129.219 195.004 128.789 194.984L128.797 194.969ZM144.359 194.969H135.164C134.738 194.988 134.379 195.148 134.086 195.449C133.793 195.746 133.641 196.109 133.641 196.52V213.824C133.641 214.039 133.688 214.25 133.77 214.453L133.785 214.484C134.078 215.047 134.543 215.344 135.18 215.375H136.199C137.398 215.375 138.465 214.789 139.395 213.613C140.316 212.434 140.918 210.922 141.172 209.051L141.766 199.781C141.766 199.52 141.789 199.266 141.824 199.012C141.832 198.957 141.848 198.906 141.855 198.852C141.863 198.801 141.879 198.738 141.887 198.68C141.891 198.629 141.906 198.574 141.914 198.523C141.922 198.477 141.938 198.434 141.945 198.379C141.953 198.336 141.969 198.297 141.977 198.254C141.984 198.207 141.996 198.172 142.004 198.125C142.012 198.078 142.027 198.051 142.051 198.012C142.059 197.969 142.074 197.93 142.078 197.887C142.102 197.84 142.117 197.801 142.125 197.758C142.133 197.727 142.156 197.691 142.172 197.645C142.176 197.602 142.199 197.562 142.215 197.516C142.238 197.488 142.254 197.449 142.262 197.406C142.281 197.359 142.305 197.328 142.32 197.293C142.328 197.246 142.352 197.219 142.363 197.18C142.387 197.137 142.41 197.098 142.426 197.051C142.449 197.023 142.469 196.984 142.484 196.941C142.492 196.91 142.516 196.871 142.531 196.828C142.559 196.797 142.59 196.766 142.605 196.73C142.629 196.684 142.648 196.656 142.664 196.617C142.688 196.574 142.711 196.543 142.727 196.504C142.746 196.477 142.77 196.445 142.801 196.414C142.824 196.371 142.844 196.34 142.859 196.301C142.891 196.273 142.922 196.242 142.941 196.203C142.973 196.176 143.004 196.137 143.016 196.094C143.047 196.062 143.078 196.031 143.094 196.004C143.121 195.973 143.152 195.941 143.168 195.906L143.258 195.816C143.258 195.816 143.301 195.754 143.34 195.719C143.371 195.695 143.398 195.672 143.43 195.641C143.461 195.613 143.488 195.582 143.504 195.551C143.535 195.523 143.566 195.492 143.602 195.477L143.691 195.379C143.691 195.379 143.754 195.336 143.789 195.305C143.82 195.281 143.852 195.262 143.879 195.23C143.91 195.199 143.949 195.172 143.992 195.156C144.023 195.133 144.051 195.109 144.09 195.078C144.121 195.059 144.156 195.035 144.203 195.004C144.234 194.984 144.262 194.961 144.293 194.945L144.359 194.969Z" fill="black"/>
<path d="M130.344 178.398C132.18 180.41 135.008 179.219 135.008 179.219C134.219 180.066 133.688 180.734 133.793 182.113C133.793 182.156 133.793 182.211 133.793 182.254C133.793 184.453 135.578 186.238 137.773 186.238C139.973 186.238 141.758 184.453 141.758 182.254C141.758 181.977 141.727 181.707 141.676 181.445C141.586 180.484 141.113 179.906 140.461 179.219C140.461 179.219 143.289 180.41 145.125 178.398C146.961 176.391 146.047 174.012 145.461 173.227C144.887 172.445 144.016 171.125 141.977 171.281C140.168 171.418 139.898 171.727 138.66 172.715C138.809 169.984 140.469 168.117 140.469 168.117H135.023C136.02 169.168 136.914 171.582 136.793 172.684C135.578 171.711 135.301 171.41 133.508 171.273C131.469 171.125 130.598 172.437 130.02 173.219C129.441 173.996 128.52 176.383 130.359 178.391L130.344 178.398Z" fill="#292929" stroke="black" stroke-width="0.5625" stroke-linecap="round" stroke-linejoin="round"/>
<path d="M41.1992 44.2773H44.3555V48.4023H43.3203V48.0117C43.3203 47.2773 43.0664 46.6563 42.5469 46.1289C42.0312 45.6055 41.3984 45.3281 40.6367 45.2969H24.7734C24.0078 45.3281 23.3711 45.6055 22.8516 46.1211C22.3359 46.6406 22.0742 47.2695 22.0742 48.0117V48.4023H21.0391V44.2773H22.5156C23.7539 44.2031 24.7969 43.7656 25.6484 42.957C26.5039 42.1484 27.0156 41.1367 27.1719 39.8984L27.1875 39.4102V39.3945L27.2695 38.0312L27.8867 26.4961V26.3516C28.0117 24.8242 28.7773 23.7422 30.1719 23.1055C30.6133 22.9258 31.0664 22.8359 31.5391 22.8359H41.6406V23.8984L41.2188 23.8555C40.793 23.8789 40.4336 24.0273 40.1484 24.3125C39.8633 24.5977 39.7031 24.9492 39.6836 25.3789V42.7109C39.6836 43.1289 39.832 43.4883 40.125 43.7812C40.418 44.0742 40.7773 44.2383 41.2031 44.2617L41.1992 44.2773ZM25.6289 44.2773H34.8242C35.25 44.2539 35.6094 44.0977 35.9023 43.7969C36.1953 43.4961 36.3438 43.1367 36.3438 42.7266V25.4219C36.3438 25.2031 36.3008 24.9961 36.2188 24.793L36.2031 24.7617C35.9102 24.1992 35.4453 23.8984 34.8086 23.8711H33.7891C32.5859 23.8711 31.5234 24.4531 30.5938 25.6328C29.6719 26.8086 29.0703 28.3242 28.8164 30.1914L28.2227 39.4609C28.2227 39.7266 28.1992 39.9805 28.1641 40.2344C28.1563 40.2891 28.1406 40.3398 28.1328 40.3906C28.125 40.4453 28.1094 40.5039 28.1016 40.5664C28.0938 40.6172 28.0781 40.6719 28.0742 40.7227C28.0664 40.7656 28.0508 40.8125 28.043 40.8633C28.0352 40.9102 28.0195 40.9492 28.0117 40.9922C28.0039 41.0391 27.9883 41.0742 27.9844 41.1211C27.9766 41.1641 27.9609 41.1953 27.9375 41.2344C27.9297 41.2773 27.9141 41.3164 27.9062 41.3594C27.8867 41.4062 27.8711 41.4414 27.8633 41.4883C27.8555 41.5156 27.832 41.5547 27.8164 41.6016C27.8086 41.6445 27.7891 41.6836 27.7734 41.7266C27.75 41.7578 27.7344 41.7969 27.7266 41.8398C27.7031 41.8867 27.6836 41.9141 27.668 41.9531C27.6602 41.9961 27.6367 42.0273 27.6211 42.0664C27.6016 42.1094 27.5781 42.1484 27.5625 42.1914C27.5391 42.2227 27.5156 42.2617 27.5039 42.3047C27.4961 42.3359 27.4727 42.3711 27.457 42.418C27.4258 42.4492 27.3984 42.4766 27.3828 42.5156C27.3594 42.5586 27.3359 42.5898 27.3242 42.6289C27.3008 42.6719 27.2773 42.7031 27.2617 42.7383C27.2383 42.7695 27.2188 42.8008 27.1875 42.8281C27.1641 42.875 27.1406 42.9063 27.1289 42.9414C27.0977 42.9727 27.0664 43.0039 27.0469 43.0391C27.0156 43.0703 26.9844 43.1094 26.9688 43.1523C26.9414 43.1836 26.9102 43.2109 26.8945 43.2422C26.8633 43.2734 26.8359 43.3008 26.8203 43.3398L26.7305 43.4297C26.7305 43.4297 26.6836 43.4883 26.6484 43.5273C26.6172 43.5508 26.5859 43.5742 26.5586 43.6016C26.5273 43.6328 26.4961 43.6641 26.4844 43.6914C26.4531 43.7227 26.4219 43.7539 26.3867 43.7656L26.2969 43.8633C26.2969 43.8633 26.2344 43.9102 26.1992 43.9414C26.168 43.9609 26.1367 43.9844 26.1094 44.0156C26.0781 44.0469 26.0391 44.0742 25.9961 44.0898C25.9648 44.1133 25.9336 44.1367 25.8984 44.1641C25.8672 44.1875 25.8281 44.2109 25.7852 44.2383C25.7539 44.2617 25.7266 44.2852 25.6953 44.3008L25.6289 44.2773Z" fill="black"/>
<path d="M39.5547 60.7266C37.7188 58.7148 34.8907 59.9062 34.8907 59.9062C35.6758 59.0586 36.211 58.3906 36.1055 57.0117C36.1055 56.9687 36.1055 56.9141 36.1055 56.8711C36.1055 54.6719 34.3203 52.8867 32.1211 52.8867C29.9258 52.8867 28.1406 54.6719 28.1406 56.8711C28.1406 57.1484 28.1719 57.418 28.2227 57.6797C28.3125 58.6406 28.7852 59.2188 29.4375 59.9062C29.4375 59.9062 26.6094 58.7148 24.7735 60.7266C22.9336 62.7344 23.8516 65.1133 24.4336 65.8984C25.0117 66.6797 25.8828 68 27.9219 67.8437C29.7305 67.707 30 67.3984 31.2383 66.4102C31.086 69.1406 29.4297 71.0078 29.4297 71.0078H34.875C33.8789 69.957 32.9844 67.543 33.1055 66.4414C34.3203 67.4141 34.5977 67.7148 36.3906 67.8516C38.4297 68 39.3008 66.6875 39.8789 65.9062C40.4531 65.1289 41.3789 62.7422 39.5391 60.7344L39.5547 60.7266Z" fill="#292929" stroke="black" stroke-width="0.5625" stroke-linecap="round" stroke-linejoin="round"/>
<path d="M66.0078 187.012C67.5977 187.391 69.3906 188.141 70.7695 189.656C72.0391 191.039 72.2852 192.312 73.6406 195.824C74.1992 197.254 74.9688 199.145 75.9844 201.352C79.0273 199.152 80.7656 198.266 81.1875 198.695C81.3906 198.898 81.293 199.406 80.8867 200.227C84.8164 198.711 87.0234 198.32 87.4961 199.055C87.7109 199.391 87.5703 199.969 87.0508 200.797C87.1797 200.66 87.4648 200.309 87.5391 199.773C87.5859 199.469 87.5391 199.219 87.4961 199.055C87.1797 197.652 86.8633 196.242 86.5508 194.84C86.7617 195.793 86.9766 196.754 87.1875 197.703C87.3984 197.391 87.7422 196.977 88.2812 196.73C89.3984 196.227 90.5117 196.844 93.0664 197.742C93.8086 198.004 94.875 198.363 96.1875 198.734C95.3008 196.543 94.1914 194.148 92.7812 191.645C90.5039 187.586 88.0352 184.281 85.793 181.676C79.1914 183.453 72.6016 185.234 66 187.012H66.0078Z" fill="black"/>
<path d="M87.4961 199.055C87.0234 198.32 84.8164 198.711 80.8867 200.227C81.293 199.406 81.3906 198.898 81.1875 198.695C80.7656 198.266 79.0273 199.152 75.9844 201.352C74.9687 199.145 74.1992 197.254 73.6406 195.824C72.2852 192.312 72.0391 191.039 70.7695 189.656C69.3906 188.141 67.5977 187.391 66.0078 187.012H66C72.6016 185.234 79.1914 183.453 85.793 181.676C88.0352 184.281 90.5039 187.586 92.7813 191.645C94.1914 194.148 95.3008 196.543 96.1875 198.734C94.875 198.363 93.8086 198.004 93.0664 197.742C90.5117 196.844 89.3984 196.227 88.2813 196.73C87.7422 196.977 87.3985 197.391 87.1875 197.703C86.9766 196.754 86.7617 195.793 86.5508 194.84C86.8633 196.242 87.1797 197.652 87.4961 199.055ZM87.4961 199.055C87.7109 199.391 87.5703 199.969 87.0508 200.797C87.1797 200.66 87.4649 200.309 87.5391 199.773C87.586 199.469 87.5391 199.219 87.4961 199.055Z" stroke="black" stroke-width="0.5625" stroke-linecap="round" stroke-linejoin="round"/>
<path d="M41.6758 121.289C41.8633 120.68 42.0586 120.074 42.2461 119.465C43.1484 118.738 44.2813 117.582 44.8438 115.91C45.5156 113.906 44.6992 113.203 44.9024 110.195C45.0664 107.809 45.7656 105.649 46.4922 103.406C47.2578 101.051 47.8047 100.047 47.3555 99.6407C46.8164 99.1486 45.0977 99.7852 44.1289 100.926C44.0781 100.984 44.0234 101.051 43.9727 101.121C43.1562 102.305 43.0742 103.453 42.8633 105.117C42.7813 105.754 42.6445 106.691 42.4141 107.863" stroke="black" stroke-width="0.5625" stroke-linecap="round" stroke-linejoin="round"/>
<path d="M34.1094 119.129C31.9727 113.855 31.1484 109.863 31.3281 109.586C31.5586 109.219 31.8672 108.898 31.8672 108.898C32.3906 108.629 32.9531 108.363 33.5547 108.109C35.3555 107.359 37.0508 106.902 38.5274 106.633C39.211 106.707 40.1484 106.879 41.1914 107.324C42.1484 107.727 42.8867 108.223 43.4024 108.629C43.2891 110.188 43.1758 111.754 43.0664 113.316C42.7891 113.316 42.5703 113.27 42.3984 113.195C41.4375 112.797 40.9141 111.434 40.9883 109.781C40.1758 109.73 39.3594 109.684 38.5508 109.633C38.0156 110.441 37.4922 111.254 36.9609 112.055C37.6289 112.625 38.5742 113.504 39.6016 114.68C40.8086 116.074 41.4453 116.809 41.7735 117.793C42.5313 120.074 41.2266 122.434 40.5664 123.453" stroke="black" stroke-width="0.5625" stroke-linecap="round" stroke-linejoin="round"/>
<path d="M44.6484 95.0313C45.457 93.2969 45.3281 91.6915 44.5195 91.1133C44.3555 90.9962 44.0469 90.836 43.5234 90.8672C42.9687 92.5391 42.4063 94.2032 41.8516 95.879" stroke="black" stroke-width="0.5625" stroke-linecap="round" stroke-linejoin="round"/>
<path d="M43.2461 98.9141C42.75 100.363 42.2539 101.816 41.7656 103.266" stroke="black" stroke-width="0.5625" stroke-linecap="round" stroke-linejoin="round"/>
<path d="M33.7734 118.25C38.2266 134.734 41.7734 146.906 43.1719 151.152C43.4102 151.887 43.9141 153.934 45.6914 155.441C45.8633 155.586 48.5039 157.781 51.3906 157.168C53.0469 156.816 54.2617 155.637 57.9844 149.105C59.2734 146.832 60.7656 144.094 62.3555 140.93" stroke="black" stroke-width="0.5625" stroke-linecap="round" stroke-linejoin="round"/>
<path d="M42.7422 105.852C43.3281 99.8437 45.2539 96.6289 46.9961 94.7891C47.7148 94.0312 48.9531 92.9219 50.2813 90.9336C51.6836 88.8281 52.4531 86.8477 52.8906 85.4609" stroke="black" stroke-width="0.5625" stroke-linecap="round" stroke-linejoin="round"/>
<path d="M31.8242 107.457C32.3555 106.559 32.9023 105.641 33.4805 104.727C35.2109 101.969 36.9883 99.4102 38.7656 97.0625C41.7969 96.125 44.8203 95.1875 47.8516 94.2422C48.0664 94.5664 48.1484 94.8594 48.1563 95.1133C48.2031 97.7148 40.5234 99.5742 40.1484 99.6562C39.7656 100.297 39.3828 100.934 39 101.57" fill="white"/>
<path d="M31.8242 107.457C32.3555 106.559 32.9023 105.641 33.4805 104.727C35.2109 101.969 36.9883 99.4102 38.7656 97.0625C41.7969 96.125 44.8203 95.1875 47.8516 94.2422C48.0664 94.5664 48.1484 94.8594 48.1563 95.1133C48.2031 97.7148 40.5234 99.5742 40.1484 99.6562C39.7656 100.297 39.3828 100.934 39 101.57" stroke="black" stroke-width="0.5625" stroke-linecap="round" stroke-linejoin="round"/>
<path d="M31.875 108.891C31.8594 108.41 31.836 107.938 31.8242 107.457C35.1016 104.676 37.5664 102.656 38.4453 101.996C38.5664 101.906 38.8945 101.66 39.3984 101.547C39.4727 101.531 40.5586 101.293 41.2344 101.871C41.6914 102.262 41.7227 102.828 41.8203 103.594C41.9336 104.434 42.1367 105.605 42.5625 107.023" stroke="black" stroke-width="0.5625" stroke-linecap="round" stroke-linejoin="round"/>
<path d="M39.8399 106.863C39.9219 106.281 39.9961 105.688 40.0781 105.102" stroke="black" stroke-width="0.5625" stroke-linecap="round" stroke-linejoin="round"/>
<path d="M58.2891 76.1132C58.2539 75.8359 58.1484 75.5742 57.9961 75.3515C59.6016 74.6523 60.0469 76.3007 60.7266 77.3359C60.9141 77.621 61.1563 77.832 61.4102 78.0507C61.7109 78.3046 62.0156 78.5312 62.1836 78.8984C62.3242 79.2265 62.4766 80.1953 61.9219 80.2929C61.582 79.8789 61.1406 79.5585 60.6523 79.3789C60.668 78.7773 60.3672 78.1835 59.8203 77.8554C59.8633 77.6367 59.8867 77.4062 59.8594 77.1562C59.8594 77.1054 59.7969 77.0976 59.7617 77.121C59.7539 76.7226 59.332 76.2734 58.9883 76.1289C58.7383 76.0234 58.4844 76.0468 58.2891 76.1445C58.2891 76.1367 58.2891 76.1289 58.2891 76.1132Z" fill="#EB1C24"/>
<path d="M59.7539 78.0781C60.9297 79.1211 60.3008 80.3672 59.0703 80.9844C58.4531 81.2891 57.8555 81.5391 57.4062 82.0625C57.3086 82.0391 57.2031 82.0156 57.1055 82.0039C57.1055 82.0039 57.1133 81.9883 57.1133 81.9805C57.4063 80.4219 59.2656 79.5195 59.7461 78.0781H59.7539Z" fill="#EB1C24"/>
<path d="M58.1641 76.6991C58.1484 76.121 58.8164 76.1757 59.1289 76.4218C59.3633 76.6015 59.7539 77.0507 59.4961 77.3437C59.4961 76.828 58.4922 76.3866 58.4687 76.9179C58.4687 76.9843 58.5742 77.0077 58.5898 76.9413C58.6562 76.6249 59.2734 77.164 59.2656 77.2616C59.2578 77.578 59.0234 77.5234 58.8672 77.4648C58.5586 77.3515 58.1719 77.0468 58.1641 76.6991Z" fill="#8E0E08"/>
<path d="M56.1523 77.9687C56.4375 77.6523 57.4336 76.5273 57.9062 76.9023C57.9297 76.9179 57.9531 76.9179 57.9766 76.9101C57.9883 76.9531 58.0117 77.0078 58.0352 77.0507C58.1992 77.3593 59.0937 78.0429 59.3984 77.6093C59.4141 77.6093 59.4375 77.6093 59.4531 77.6015C59.5664 77.5312 59.6406 77.457 59.6836 77.3671C59.3477 79.2343 57.2266 80.039 56.8711 81.9062C56.8711 81.9257 56.8711 81.9414 56.8711 81.9648C56.5781 81.9218 56.2969 81.9062 56.0156 81.9414C55.8594 81.9648 55.7109 81.996 55.5664 82.0312C56.4766 80.8789 56.1289 79.414 56.0703 77.996C56.0938 77.996 56.1211 77.9882 56.1445 77.9687H56.1523Z" fill="#EB1C24"/>
<path d="M55.0938 82.5273C55.8281 82.2187 56.6484 82.1445 57.5859 82.3711C58.6875 82.6406 60.0156 82.9922 60.8789 82.0234C60.9844 81.9062 60.8242 81.7266 60.7031 81.8438C59.8047 82.7227 58.6719 82.3633 57.5547 82.1094C58.4492 81.3789 59.8594 81.2148 60.4336 80.1484C60.5391 79.9531 60.6016 79.7539 60.6289 79.5508C61.4492 80.0313 62.2812 80.8711 62.25 81.875C62.2422 82.2969 62.1094 82.7383 61.8359 83.0664C61.3359 83.6758 60.668 83.3438 60.0391 83.2031C59.9922 83.1875 59.9492 83.2031 59.9258 83.2344C59.8867 83.2188 59.8281 83.2344 59.8125 83.2852C59.625 83.8398 59.0938 84.0742 58.5469 83.9062C58.043 83.7578 57.7422 83.3516 57.3984 82.9844C57.3164 82.9023 57.1562 83 57.2188 83.1055C57.2461 83.1562 57.2852 83.2109 57.3242 83.2539C57.2344 83.6523 56.6094 83.6211 56.332 83.4648C56.0859 83.3242 55.8906 83.0977 55.6797 82.9102C55.5 82.7539 55.3125 82.6094 55.0938 82.5273Z" fill="#EB1C24"/>
<path d="M53.3242 83.832C53.7812 83.3359 54.2695 82.9414 54.7969 82.6641C55.5312 82.8438 55.8906 83.7188 56.6562 83.8008C56.9414 83.832 57.3359 83.6836 57.4414 83.4062C57.6094 83.6016 57.7969 83.7734 58.0117 83.9141C57.2695 84.1016 56.7461 84.5156 56.1836 85.0234C55.7695 85.3984 55.3437 85.6172 54.7891 85.5859C54.7734 85.5859 54.7578 85.5742 54.7422 85.5664C54.6992 85.543 54.6523 85.5508 54.6211 85.5664C54.2266 85.4961 53.5937 85.2422 53.2969 84.8516C53.2969 84.8438 53.2969 84.8281 53.2812 84.8242L53.2656 84.8086C53.0937 84.5508 53.0703 84.2461 53.3242 83.8984C53.3477 83.8711 53.3398 83.8398 53.3242 83.8164V83.832Z" fill="#EB1C24"/>
<path d="M54.4492 76.2813C54.6758 75.9492 54.9844 75.793 55.3789 75.8008C55.4531 75.8008 55.5312 75.8008 55.6055 75.793C55.8672 75.6367 55.7773 75.5 56.0312 75.2383C56.8711 74.3828 57.8633 75.3281 58.1484 76.1445C58.1562 76.1758 58.1758 76.1914 58.1992 76.1914C58.0352 76.3086 57.9297 76.4883 57.9375 76.707C57.3672 76.3477 56.4375 77.3086 56.0625 77.7344C56.0547 77.0899 56.1211 76.4688 56.4141 75.8828C56.4688 75.7774 56.332 75.6953 56.2656 75.7852C54.9609 77.668 56.7461 80.1406 55.4023 81.9961C54.6836 81.2969 53.9766 79.9414 54.7969 79.0938C54.7969 79.0938 54.7969 79.1016 54.8008 79.1094C54.8867 79.2344 55.1016 79.1289 55.0195 78.9961C54.7813 78.6289 54.5234 78.2461 54.3672 77.8242C54.4336 77.75 54.3828 77.6602 54.3086 77.6289C54.2852 77.5391 54.2617 77.4492 54.2461 77.3594C54.1953 77 54.2344 76.5781 54.4336 76.2656L54.4492 76.2813Z" fill="#EB1C24"/>
<path d="M51.457 80.9961C51.7422 79.5781 53.1133 78.8242 54.1797 77.9961C54.3242 78.3359 54.5117 78.6484 54.7109 78.957C53.7461 79.7227 54.3516 81.4531 55.207 82.1523C54.3008 82.4961 53.5273 83.1875 53.0156 84.0039C53.0039 84.0273 53.0117 84.0508 53.0156 84.0742C52.9414 84.207 52.9141 84.3438 52.9219 84.4844C52.0039 83.5391 51.1719 82.3789 51.4492 81.0039L51.457 80.9961Z" fill="#EB1C24"/>
<path d="M45.2266 81.6132C45.1055 81.582 45.1367 81.4258 45.2344 81.3945C47.3711 80.7031 49.7695 81.1914 51.3984 82.7461C51.1953 82.2578 51.0977 81.7383 51.1563 81.1758C51.3281 79.5351 52.8906 78.6406 54.0899 77.7343C53.9922 77.4218 53.9492 77.0898 54.0078 76.7461C54.0742 76.3867 54.2461 76.0469 54.5391 75.8164C54.8633 75.5664 55.0742 75.6641 55.3867 75.5469C55.6875 75.4336 55.7695 75.0937 56.0313 74.9062C56.3086 74.7187 56.6719 74.6289 57.0078 74.6836C57.3438 74.7344 57.6289 74.8984 57.8399 75.1406C58.4844 74.832 59.2266 74.8632 59.7891 75.3203C60.6016 75.9804 60.7266 77.1289 61.5391 77.8242C62.1016 78.3047 62.5781 78.7539 62.543 79.5586C62.5273 79.9101 62.3985 80.4336 61.9883 80.3828C62.3906 80.9218 62.6094 81.5976 62.4766 82.2812C62.3867 82.7304 62.1445 83.2461 61.7617 83.5234C61.2539 83.8906 60.5117 83.5781 59.9688 83.4219C59.9688 83.4219 59.9688 83.4219 59.961 83.4219C59.8594 83.9219 59.3398 84.2226 58.8281 84.1992C58.6133 84.1914 58.4024 84.125 58.2149 84.0351C58.2149 84.0664 58.1914 84.0937 58.1563 84.1093C57.6211 84.3047 57.1719 84.5 56.7383 84.875C56.4766 85.1016 56.2578 85.3789 55.9649 85.5664C55.7383 85.707 55.4922 85.8047 55.2305 85.8437C56.0313 86.3242 56.7148 86.9883 57.2344 87.7695C57.5938 88.3164 58.3867 89.5703 57.9844 90.2461C57.9531 90.3047 57.8555 90.2617 57.7734 90.2382C57.3516 90.1172 57.1484 89.6289 57.1055 89.5234C56.6016 88.414 54.1406 88.1015 53.2734 86.3906C53.1094 86.0742 52.9258 85.5508 52.9727 84.7617C52.8164 85.7734 52.4024 86.2695 52.0938 86.5234C51.3086 87.1718 50.4375 86.8906 48.4727 87.2305C47.8867 87.3359 47.2422 87.2304 46.7109 87.5078C46.7031 87.5078 46.6563 87.5312 46.6211 87.5234C46.5313 87.5 46.5 87.3594 46.5977 87.2891C47.2344 86.8555 47.7149 86.4492 48.1485 85.8125C48.3281 85.5508 48.4961 85.2812 48.7266 85.0468C49.0586 84.7265 49.4531 84.5078 49.8906 84.4414C49.7617 84.3789 49.6367 84.3203 49.5156 84.2539C48.0156 83.4258 46.957 82.0039 45.2266 81.6055V81.6132ZM51.5039 83.1484C49.9805 81.6054 47.7617 80.9531 45.6758 81.5C48.0391 82.2578 49.7852 85.4453 52.5 84.3203C52.1563 83.9765 51.8477 83.5937 51.6094 83.1718C51.5703 83.1797 51.5313 83.1718 51.5039 83.1484ZM55.3789 75.8086C54.9844 75.8008 54.6758 75.957 54.4492 76.289C54.2383 76.5937 54.2031 77.0234 54.2617 77.3828C54.2774 77.4726 54.3008 77.5625 54.3242 77.6523C54.3985 77.6836 54.4492 77.7734 54.3828 77.8476C54.5391 78.2656 54.7969 78.6484 55.0352 79.0156C55.125 79.1523 54.9063 79.2578 54.8164 79.1289C54.8164 79.1289 54.8164 79.1211 54.8086 79.1133C53.9922 79.9609 54.6992 81.3203 55.418 82.0156C56.7617 80.1641 54.9766 77.6836 56.2813 75.8086C56.3477 75.7109 56.4844 75.8007 56.4297 75.9062C56.1367 76.4843 56.0703 77.1132 56.0781 77.7578C56.4531 77.3281 57.375 76.3711 57.9531 76.7305C57.9531 76.5117 58.0508 76.332 58.2149 76.2109C58.1914 76.2109 58.1758 76.1914 58.1641 76.168C57.8789 75.3516 56.8867 74.4062 56.0469 75.2617C55.793 75.5156 55.8828 75.6562 55.6211 75.8164C55.5469 75.8164 55.4688 75.8242 55.3945 75.8242L55.3789 75.8086ZM54.1797 77.9961C53.1133 78.8242 51.7422 79.5781 51.457 80.9961C51.1797 82.3711 52.0117 83.5312 52.9258 84.4766C52.9219 84.3437 52.9414 84.1992 53.0235 84.0664C53.0117 84.043 53.0117 84.0195 53.0235 83.9961C53.5274 83.1797 54.3086 82.4883 55.2149 82.1445C54.3516 81.4531 53.7461 79.7148 54.7188 78.9492C54.5234 78.6484 54.3281 78.3281 54.1875 77.9883L54.1797 77.9961ZM57.9063 76.9023C57.4336 76.5273 56.4375 77.6601 56.1524 77.9687C56.1289 77.9882 56.1016 78.0039 56.0781 77.9961C56.1367 79.4141 56.4844 80.8711 55.5742 82.0312C55.7266 81.9961 55.875 81.9648 56.0235 81.9414C56.3008 81.914 56.586 81.9257 56.8789 81.9648C56.8789 81.9492 56.8789 81.9257 56.8789 81.9062C57.2344 80.0312 59.3555 79.2344 59.6914 77.3672C59.6485 77.4492 59.5742 77.5312 59.4609 77.6015C59.4375 77.6094 59.4219 77.6133 59.4063 77.6094C59.0938 78.043 58.207 77.3594 58.043 77.0508C58.0117 77 57.9961 76.9531 57.9844 76.9101C57.9609 76.918 57.9375 76.9179 57.9141 76.9023H57.9063ZM57.9961 75.3515C58.1484 75.5742 58.2461 75.8437 58.2891 76.1133C58.2891 76.1211 58.2891 76.1367 58.2891 76.1445C58.4844 76.0469 58.7383 76.0234 58.9883 76.1289C59.332 76.2734 59.7539 76.7226 59.7617 77.1211C59.7969 77.0976 59.8516 77.0976 59.8594 77.1562C59.8789 77.4062 59.8633 77.6367 59.8203 77.8555C60.3672 78.1836 60.668 78.7695 60.6524 79.3789C61.1406 79.5586 61.5898 79.8789 61.9219 80.293C62.4688 80.2031 62.3242 79.2266 62.1836 78.8984C62.0156 78.5234 61.7109 78.3047 61.4102 78.0507C61.1563 77.832 60.9141 77.6211 60.7266 77.3359C60.0469 76.3086 59.6016 74.6601 57.9961 75.3515ZM59.1289 76.4218C58.8164 76.1757 58.1484 76.1289 58.1641 76.6992C58.1719 77.0469 58.5664 77.3515 58.8672 77.4648C59.0234 77.5234 59.2578 77.5781 59.2656 77.2617C59.2656 77.164 58.6563 76.625 58.5899 76.9414C58.5742 77.0078 58.4688 76.9844 58.4688 76.918C58.4922 76.3789 59.5039 76.8203 59.4961 77.3437C59.7539 77.0508 59.3633 76.6015 59.1289 76.4218ZM50.3789 84.6797C49.3047 84.5898 48.7813 85.3789 48.2344 86.1484C48 86.4804 47.7149 86.7578 47.4063 87.0039C48.0469 86.8632 48.7031 86.8789 49.3711 86.8398C50.7148 86.7578 52.043 86.293 52.5899 85.0547C52.6211 84.9258 52.6484 84.8086 52.6797 84.6875C52.6875 84.6484 52.7109 84.6367 52.7383 84.6211C52.7383 84.6055 52.7461 84.5898 52.7539 84.5742C52.7031 84.5234 52.6484 84.4765 52.5977 84.4257C51.9531 84.8437 51.1797 84.8515 50.4688 84.6562C50.4453 84.6797 50.4141 84.6875 50.3789 84.6875V84.6797ZM54.8008 82.664C54.2695 82.9414 53.7813 83.3359 53.332 83.832C53.3555 83.8555 53.3633 83.8867 53.332 83.9141C53.0781 84.2617 53.1016 84.5664 53.2734 84.8242C53.2734 84.8242 53.2891 84.8281 53.2891 84.8359C53.2969 84.8437 53.3008 84.8594 53.3008 84.8672C53.6016 85.2578 54.2266 85.5117 54.6289 85.5781C54.6602 85.5586 54.7031 85.5508 54.75 85.5781C54.7656 85.5781 54.7813 85.5937 54.7969 85.6016C55.3594 85.625 55.7773 85.4062 56.1914 85.0391C56.7539 84.5312 57.2773 84.1094 58.0195 83.9297C57.8008 83.7969 57.6094 83.6133 57.4492 83.4219C57.3438 83.6992 56.9492 83.8476 56.6641 83.8164C55.8984 83.7343 55.5391 82.8594 54.8008 82.6758V82.664ZM59.0703 80.9844C60.293 80.3672 60.9297 79.1289 59.7539 78.0781C59.2734 79.5195 57.4063 80.4219 57.1211 81.9805C57.1211 81.9883 57.1211 81.9961 57.1133 82.0039C57.211 82.0156 57.3086 82.0391 57.4141 82.0625C57.8633 81.5312 58.4688 81.2812 59.0781 80.9844H59.0703ZM53.0117 84.793C53.0117 84.793 52.9883 84.7695 52.9805 84.7617C53.1992 87.4609 56.7734 87.6406 57.8711 89.8242C57.9219 89.0664 57.0234 87.8359 56.6641 87.3945C56.1445 86.75 55.5078 86.2617 54.7969 85.8594C54.6992 85.8594 54.6016 85.8437 54.5039 85.8281C54 85.7383 53.2656 85.3008 53.0156 84.7851L53.0117 84.793ZM57.5859 82.3711C56.6484 82.1445 55.8281 82.2187 55.0938 82.5273C55.3125 82.6093 55.5 82.7461 55.6797 82.9101C55.8984 83.0976 56.0859 83.3242 56.332 83.4648C56.6094 83.6211 57.2344 83.6523 57.3242 83.2539C57.2852 83.2031 57.2539 83.1562 57.2188 83.1055C57.1485 83 57.3164 82.8945 57.3984 82.9843C57.7422 83.3437 58.043 83.75 58.5469 83.9062C59.0938 84.0742 59.6328 83.8398 59.8125 83.2851C59.8281 83.2344 59.8789 83.2187 59.9258 83.2344C59.9531 83.2031 59.9922 83.1875 60.0391 83.2031C60.6602 83.3437 61.336 83.6757 61.836 83.0664C62.1094 82.7461 62.2422 82.2969 62.25 81.875C62.2734 80.8711 61.4414 80.0312 60.6289 79.5507C60.6094 79.7539 60.5391 79.9609 60.4336 80.1484C59.8594 81.2148 58.4492 81.3789 57.5547 82.1094C58.6719 82.3633 59.8047 82.7226 60.7031 81.8437C60.8242 81.7344 60.9766 81.914 60.8789 82.0234C60.0156 83 58.6797 82.6406 57.5859 82.3711Z" fill="black" stroke="black" stroke-width="0.1875" stroke-linecap="round" stroke-linejoin="round"/>
<path d="M75.2852 129.41C77.5586 128.613 80.9531 127.496 85.1641 126.426C91.6289 124.766 101.641 122.277 114.137 123.176C122.676 123.793 127.117 125.609 130.508 127.984C132.09 129.094 133.262 130.199 134.016 130.969C134.152 131.773 134.438 134.074 133.109 136.297C132.621 137.113 132.039 137.703 131.551 138.117C131.602 139.398 131.445 140.516 131.16 141.492C128.242 151.617 110.406 153.582 109.199 153.703C107.355 150.566 105.512 147.441 103.664 144.305C101.004 149.324 98.3477 155.367 96.2696 162.402C95.4766 165.109 94.8282 167.711 94.3203 170.195C89.5117 172.414 83.5938 175.836 77.7539 181.109C75.4219 183.215 73.418 185.328 71.707 187.348C68.7227 181.371 65.7305 175.391 62.7461 169.414C62.5508 155.316 62.3555 141.223 62.1602 127.121C61.1328 127.551 59.6641 128.024 57.8399 128.164C54.8711 128.391 52.5235 127.586 51.2774 127.055C50.8047 123.574 51.1133 120.734 51.5039 118.762C51.9453 116.516 52.2813 114.844 53.586 113.09C53.9844 112.559 56.3555 109.469 60.6016 108.996C62.9766 108.734 64.8985 109.391 65.961 109.871C65.918 109.941 65.2188 110.953 65.1758 111.02C65.0938 111.141 64.1992 112.438 64.125 112.559C64.4531 112.941 64.8672 113.422 65.332 113.977C65.332 113.977 66.2774 115.121 67.1836 116.301C70.6719 120.859 73.2969 125.336 75.293 129.387L75.2852 129.41Z" stroke="black" stroke-width="0.5625" stroke-linecap="round" stroke-linejoin="round"/>
<path d="M75.2852 129.41C75.6836 128.383 76.4414 126.844 77.9024 125.426C78.5234 124.82 79.1484 124.363 79.7031 124.016" stroke="black" stroke-width="0.5625" stroke-linecap="round" stroke-linejoin="round"/>
<path d="M65.9609 109.887C66.9844 108.672 68.5937 107.141 70.9141 106.422C73.6484 105.574 74.9609 106.609 78.5312 106.184C80.2109 105.98 83.543 105.582 85.8359 103.355C89.3086 99.9883 88.4336 94.3633 88.2734 93.418" stroke="black" stroke-width="0.5625" stroke-linecap="round" stroke-linejoin="round"/>
<path d="M103.809 86.9219C104.52 96.8516 107.859 102.32 110.887 105.5C113.805 108.566 118.523 111.695 120.047 112.707C126.113 116.734 129.871 117.926 131.281 121.805C132.137 124.16 131.746 126.453 131.348 127.91" stroke="black" stroke-width="0.5625" stroke-linecap="round" stroke-linejoin="round"/>
<path d="M87.5625 102.574C88.4024 101.578 89.4531 100.543 90.7422 99.5899C96.3438 95.4571 102.789 95.6368 105.414 95.8712C105.219 95.1719 105.031 94.4844 104.836 93.7852C105.457 93.6876 106.359 93.6407 107.242 94.0704C108.797 94.8126 109.363 96.4844 110.129 98.9063C111.016 101.699 111.457 103.094 111.023 104.039C110.07 106.102 106.559 106.219 101.199 106.34C96.4961 106.445 88.5977 106.625 87.6211 103.609C87.4883 103.199 87.5156 102.824 87.5547 102.566L87.5625 102.574Z" fill="white" stroke="black" stroke-width="0.5625" stroke-linecap="round" stroke-linejoin="round"/>
<path d="M87.7969 101.887C87.9453 101.121 88.0742 100.309 88.1836 99.4531C88.3633 98.0469 88.4531 96.7188 88.4844 95.4961C88.0781 95.5312 87.3828 95.6602 86.6836 96.1172C84.6992 97.4297 84.8867 100.102 84.8985 100.242C85.0039 101.391 85.5899 103.078 86.461 103.102C87.1055 103.113 87.6211 102.215 87.7969 101.887Z" fill="white" stroke="black" stroke-width="0.5625" stroke-linecap="round" stroke-linejoin="round"/>
<path d="M103.664 144.313C102.406 142.094 100.988 138.914 100.363 134.914C100.141 133.469 100.051 132.125 100.035 130.91C101.82 129.664 104.672 128.082 108.414 127.535C118.297 126.086 125.676 133.121 126.734 134.164C127.582 134.246 130.266 134.391 132.516 132.606C133.184 132.074 133.664 131.496 134.012 130.977" stroke="black" stroke-width="0.5625" stroke-linecap="round" stroke-linejoin="round"/>
<path d="M100.043 130.902C102.969 131.113 108.195 131.887 113.684 135.125C117.328 137.277 119.863 139.789 121.477 141.688C123.227 141.41 125.34 140.906 127.648 140C129.141 139.406 130.441 138.754 131.551 138.117C132.09 137.645 133.371 136.398 133.914 134.336C134.297 132.891 134.152 131.66 134.016 130.969C133.566 131.594 132.156 133.355 129.668 133.992C128.477 134.301 127.441 134.246 126.734 134.148C125.738 133.113 119.391 126.727 110.063 127.355C105.301 127.676 101.805 129.688 100.035 130.895L100.043 130.902Z" fill="#EB1C24" stroke="black" stroke-width="0.5625" stroke-linecap="round" stroke-linejoin="round"/>
<path d="M100.043 130.902C98.25 131.344 95.625 132.207 92.9609 134.051C84.9141 139.625 84.2266 148.844 78.7344 164.555C77.2031 168.926 74.8633 175.063 71.4297 182.293C73.0859 180.41 75.293 177.754 77.6719 174.402C80.1992 170.832 82.6875 167.316 84.7813 162.516C86.918 157.625 85.8672 157.766 88.9727 149.164C90.7656 144.191 92.2109 140.602 95.5938 138.059C97.4766 136.641 99.3672 136.023 100.516 135.734C100.359 134.129 100.207 132.523 100.051 130.91L100.043 130.902Z" fill="#EB1C24" stroke="black" stroke-width="0.5625" stroke-linecap="round" stroke-linejoin="round"/>
<path d="M62.168 127.129C62.2109 127.102 62.9024 126.703 62.9492 126.672C62.9922 126.641 63.6836 126.246 63.7266 126.215C63.7813 131.277 64.0195 135.371 64.2149 138.035C65.1016 150.191 67.0117 160.055 69.8985 174.738C70.5469 178.016 71.0938 180.664 71.4297 182.277C69.4414 177.449 67.4844 171.809 65.8711 165.418C63.7578 157.004 62.7813 149.367 62.3867 142.953C62.3086 137.676 62.2422 132.402 62.168 127.121V127.129Z" fill="#EB1C24" stroke="black" stroke-width="0.5625" stroke-linecap="round" stroke-linejoin="round"/>
<path d="M63.7188 126.223C61.5078 124.219 59.1289 121.805 56.7656 118.918C55.3867 117.23 54.1719 115.574 53.1094 113.996" stroke="black" stroke-width="0.5625" stroke-linecap="round" stroke-linejoin="round"/>
<path d="M63.7188 126.223C61.9063 124.578 59.9414 122.621 57.9609 120.336C56.0469 118.121 54.4414 115.969 53.1094 113.996C53.4883 113.434 53.9844 112.789 54.6133 112.137C55.3359 111.387 56.0391 110.816 56.6563 110.383C59.0117 115.672 61.3633 120.949 63.7188 126.238V126.223Z" fill="#EB1C24" stroke="black" stroke-width="0.5625" stroke-linecap="round" stroke-linejoin="round"/>
<path d="M75.2852 129.41C74.2656 140.082 73.3867 151.039 72.6914 162.281C72.2773 168.875 71.9414 175.371 71.6641 181.781" stroke="black" stroke-width="0.5625" stroke-linecap="round" stroke-linejoin="round"/>
<path d="M62.7227 167.383C57.7734 170.824 51.668 175.836 45.7969 182.887C41.9766 187.469 39.082 191.922 36.8906 195.828" stroke="black" stroke-width="0.5625" stroke-linecap="round" stroke-linejoin="round"/>
<path d="M95.0391 167.234C100.359 168.688 112.59 172.902 119.723 184.496C121.004 186.582 121.973 188.66 122.699 190.656" stroke="black" stroke-width="0.5625" stroke-linecap="round" stroke-linejoin="round"/>
<path d="M76.1562 64.6914C75.1797 67.6719 75.3437 69.8828 75.6992 71.3985C76.1758 73.4297 76.9805 74.0078 76.8242 75.7773C76.6484 77.7656 75.4258 79.6641 74.8711 80.5039C73.8515 82.0547 73.1094 82.6094 73.3125 83.2773C73.5508 84.0781 74.9609 84.3711 76.1758 84.4922C76.4766 84.9727 78.2265 87.8281 78.6211 90.0859C78.8476 91.3789 78.9687 92.0235 78.914 92.5157C78.8633 93.0508 78.7266 93.5235 78.9883 94.0313C79.2226 94.4844 79.6367 94.7383 79.7851 94.8281C79.7851 94.8281 80.2422 95.1055 80.8359 95.1875C84.0742 95.6446 88.3203 93.1562 88.3203 93.1562C91.0117 91.0469 93.6992 88.9414 96.3906 86.8398" stroke="black" stroke-width="0.5625" stroke-linecap="round" stroke-linejoin="round"/>
<path d="M75.4258 68.7266C75.4492 68.0313 75.5312 67.2266 75.7031 66.3594C75.8008 65.8711 75.9219 65.4141 76.0586 65C77.0859 64.543 78.668 64.0391 80.3555 64.4688C82.8672 65.1055 83.5274 67.2578 86.1289 68.8633C87.4219 69.6563 89.4453 70.4688 92.5664 70.3555C90.8633 73.3477 91.0039 74.8907 91.5235 75.7461C92.25 76.9532 93.8477 77.0156 94.2891 78.3633C94.6211 79.3555 94.125 80.4063 93.668 81.1406C94.3867 80.9688 95.3555 80.6133 95.7305 79.8047C96.375 78.418 94.7344 76.961 95.2735 75.6407C95.5274 75.0196 96.3281 74.3008 98.836 74.0508C99.8711 72.3203 101.559 71.3985 103.043 71.7032C103.223 71.7422 104.137 71.9297 104.676 72.6953C105.684 74.1211 104.574 76.4844 104.102 77.4961C103.711 78.336 103.266 78.9648 102.945 79.3867C103.246 82.1016 103.547 84.8164 103.844 87.5313C103.957 88.4531 104.762 88.9844 105.367 88.836C105.789 88.7305 106.133 88.2969 106.223 87.7539C105.961 88.0039 105.602 88.1094 105.316 88.0039C104.895 87.8438 104.641 87.2539 104.887 86.6758C105.367 86.293 106.117 85.707 107.055 85.0313C113.324 80.4883 116.762 79.8282 117.516 76.9766C117.703 76.2578 117.832 75.043 117.059 73.2735C118.238 73.0235 120.727 72.3125 122.191 70.1211C124.695 66.3789 122.504 60.8672 119.363 58.1836C118.566 57.5 116.52 55.7539 113.746 56.0508C111.074 56.3438 108.727 58.4141 107.641 61.3789C106.344 60.7774 84.1641 50.7734 76.875 58.9609C76.2812 59.6289 75.7578 60.4493 75.3594 61.461C73.1016 62.6211 72.1641 64.9844 72.8633 66.6641C73.4766 68.1485 75.1563 68.6367 75.4258 68.7109V68.7266Z" fill="black" stroke="black" stroke-width="0.5625" stroke-linecap="round" stroke-linejoin="round"/>
<path d="M99.1797 80.3359C99.2773 80.5703 99.5781 81.2227 100.164 81.3594C100.738 81.4922 101.273 81.043 101.941 80.4492C102.406 80.0469 103.043 79.3867 103.621 78.3867" stroke="black" stroke-width="0.5625" stroke-linecap="round" stroke-linejoin="round"/>
<path d="M85.3047 55.707L85.8359 42.5977C86.2891 44.75 87.8477 46.4883 89.8789 47.082C92.3008 47.7891 95.0039 46.7539 96.457 44.5039C95.7305 47.0899 96.9609 49.8125 99.2852 50.9375C101.773 52.1445 104.902 51.1992 106.363 48.7187C106.32 48.9805 105.824 51.9805 107.754 53.7969C109.719 55.6406 113.461 55.5742 116.086 53.0391C115.297 54.0508 114.516 55.0625 113.73 56.0742" stroke="black" stroke-width="0.5625" stroke-linecap="round" stroke-linejoin="round"/>
<path d="M67.5508 116.562C68.3633 116.426 69.2852 116.227 70.2812 115.91C71.4766 115.527 72.5039 115.078 73.3359 114.641" stroke="black" stroke-width="0.5625" stroke-linecap="round" stroke-linejoin="round"/>
<path d="M70.2812 115.91C70.2969 115.488 70.3633 114.844 70.6562 114.117C70.8984 113.523 71.2031 113.074 71.4531 112.773" stroke="black" stroke-width="0.5625" stroke-linecap="round" stroke-linejoin="round"/>
<path d="M70.3203 115.453C70.2383 115.168 70.1328 114.859 69.9961 114.539C69.8008 114.066 69.5781 113.66 69.3672 113.324" stroke="black" stroke-width="0.5625" stroke-linecap="round" stroke-linejoin="round"/>
<path d="M108.691 122.984C108.488 122.246 108.285 121.512 108.082 120.777" stroke="black" stroke-width="0.5625" stroke-linecap="round" stroke-linejoin="round"/>
<path d="M99.5039 78.1562C99.3008 78.5078 99.4727 79.0781 99.8086 79.3867C99.9062 79.4765 100.066 79.6172 100.273 79.6328C100.957 79.6836 101.535 78.3789 101.746 77.6992C101.934 77.0976 102.074 76.6328 101.805 76.25C101.527 75.8593 100.98 75.7539 100.582 75.8515C100.371 75.9062 100.027 76.0547 100.012 76.2578C99.9961 76.4609 100.32 76.5039 100.441 76.8437C100.523 77.0742 100.461 77.3437 100.359 77.5234C100.117 77.9375 99.7031 77.8007 99.5039 78.1484V78.1562Z" fill="black"/>
<path d="M100.828 73.9922C101.309 73.2813 102.047 72.9415 102.629 73.1211C103.133 73.2735 103.371 73.7617 103.453 73.9258C103.867 74.7656 103.559 75.6563 103.41 76.1133C102.773 77.9844 101.039 78.9883 100.387 79.3243" stroke="black" stroke-width="0.5625" stroke-linecap="round" stroke-linejoin="round"/>
<path d="M76.1914 84.5C76.8086 84.5899 77.3242 84.6367 77.6914 84.6562C78.2539 84.6953 78.4141 84.6797 78.5703 84.5742C78.9297 84.3437 79.1562 83.75 78.914 83.2773C78.7422 82.9336 78.3984 82.8125 78.3086 82.7812" stroke="black" stroke-width="0.5625" stroke-linecap="round" stroke-linejoin="round"/>
<path d="M75.3594 61.4766C75.2617 61.7812 74.9102 62.9766 75.5313 64.1211C75.7344 64.5039 75.9961 64.7813 76.2149 64.9766" stroke="black" stroke-width="0.5625" stroke-linecap="round" stroke-linejoin="round"/>
<path d="M93.6758 81.1406C93.2188 81.3594 92.9414 81.6953 92.961 82.0117C92.961 82.0547 92.9766 82.1367 93.0313 82.2188C93.2617 82.5781 93.9063 82.3242 94.1641 82.6485C94.2969 82.8203 94.2617 83.0586 94.2461 83.1484C94.1563 83.6914 93.5547 83.7891 93.4063 84.3711C93.3594 84.5508 93.375 84.7109 93.3828 84.8086" stroke="black" stroke-width="0.5625" stroke-linecap="round" stroke-linejoin="round"/>
<path d="M84.5156 107.269C84.4414 107.18 83.3164 105.656 83.9687 103.984C84.3437 103.039 85.0859 102.551 85.3711 102.394C85.418 100.766 86.664 99.7851 87.4961 99.9218C88.2539 100.047 89.0234 101.156 88.8359 102.551C90.2031 102.859 91.1328 104.129 91.0273 105.484C90.9297 106.789 89.9023 107.863 88.5742 108.035C88.4844 109.355 87.2695 110.269 86.1133 110.066C84.9453 109.863 84.1133 108.551 84.5117 107.269H84.5156Z" fill="white" stroke="black" stroke-width="0.5625" stroke-linecap="round" stroke-linejoin="round"/>
<path d="M87.1367 102.492C87.961 102.777 87.8985 104.856 87.8867 105.184C87.8633 105.891 87.8164 107.523 86.9336 107.906C86.5938 108.051 86.1836 108.004 85.875 107.797C84.7031 107.008 84.8906 103.664 86.3086 102.703C86.4375 102.621 86.7969 102.371 87.1406 102.492H87.1367Z" fill="#EB1C24" stroke="black" stroke-width="0.5625" stroke-linecap="round" stroke-linejoin="round"/>
<path d="M86.0117 110.047C85.8359 110.898 85.6562 111.746 85.4844 112.602L86.0117 110.047Z" fill="#EB1C24"/>
<path d="M86.0117 110.047C85.8359 110.898 85.6563 111.746 85.4844 112.602" stroke="black" stroke-width="0.5625" stroke-linecap="round" stroke-linejoin="round"/>
<path d="M87.3008 116.141C86.8867 115.031 85.6289 115.199 85.6289 115.199C86.0547 114.926 86.3477 114.703 86.5117 114.086C86.5117 114.067 86.5273 114.051 86.5352 114.028C86.8516 113.067 86.4219 112.07 85.582 111.785C84.7422 111.5 83.7969 112.055 83.4844 113.016C83.4453 113.137 83.4141 113.254 83.3984 113.375C83.2969 113.801 83.3984 114.117 83.543 114.5C83.543 114.5 82.6367 113.621 81.6367 114.266C80.6484 114.914 80.6563 116.067 80.7617 116.481C80.8711 116.891 81.0156 117.574 81.8164 117.77C82.5313 117.942 82.6719 117.836 83.2969 117.567C82.8437 118.738 81.9453 119.336 81.9453 119.336L81.9844 119.352L82.9883 119.684L83.9922 120.012L84.0313 120.028C83.7969 119.442 83.8047 118.281 84.0078 117.817C84.3281 118.391 84.3984 118.559 85.0664 118.844C85.8242 119.164 86.3477 118.707 86.6836 118.438C87.0234 118.168 87.7109 117.246 87.3008 116.141Z" fill="#292929" stroke="black" stroke-width="0.5625" stroke-linecap="round" stroke-linejoin="round"/>
<path d="M90.6211 103.836C95.8594 102.688 99.7031 102.785 102.398 103.152C102.398 103.152 107.828 103.895 109.824 102.051C110.039 101.848 110.203 101.637 110.324 101.434C110.324 101.434 110.527 101.105 110.641 100.699C110.805 100.109 110.34 98.293 109.125 96.1172C109.344 96.6289 109.305 96.9805 109.238 97.2109C108.586 99.289 102.75 98.1055 96.5039 100.102C93.6914 101 91.5586 102.297 90.1797 103.273C90.3281 103.461 90.4805 103.648 90.6289 103.836H90.6211Z" fill="#EB1C24" stroke="black" stroke-width="0.5625" stroke-linecap="round" stroke-linejoin="round"/>
<path d="M78.2188 72.9961C78.1953 73.211 78.2461 73.4766 78.3828 73.6406C78.7422 74.0742 79.5 73.6094 80.3633 73.2969C81.7969 72.7695 83.0391 72.8281 84.1289 72.8828C85.6875 72.957 86.6641 73.3906 86.6992 73.211C86.7383 73.0235 85.7539 72.4336 84.8164 72.0508C82.8672 71.2539 81.3008 71.457 80.5938 71.6016C79.957 71.7266 78.3164 72.0664 78.2109 73.0039L78.2188 72.9961Z" fill="black"/>
<path d="M77.586 86.7812C77.6836 86.7812 77.8438 86.7813 78.0234 86.8008C78.9609 86.9063 79.461 87.3047 80.0117 87.5156C80.4297 87.6719 81.0899 87.793 82.0586 87.5664C81.3438 88.0625 80.6328 88.5781 79.9063 89.1211C79.4688 89.4414 79.043 89.7735 78.6211 90.0938C78.4648 90.0352 78.1484 89.8984 77.9414 89.5938C77.625 89.1406 77.6406 88.5274 77.961 87.9961C77.4375 87.8438 77.1523 87.4492 77.2266 87.1562C77.2813 86.9453 77.4883 86.8242 77.5742 86.7891L77.586 86.7812Z" fill="#EB1C24" stroke="black" stroke-width="0.5625" stroke-linecap="round" stroke-linejoin="round"/>
<path d="M53.4688 128.121C52.1719 130.609 50.8711 133.102 49.5742 135.582C47.1289 130.211 44.6914 124.836 42.2461 119.465" stroke="black" stroke-width="0.5625" stroke-linecap="round" stroke-linejoin="round"/>
<path d="M49.5742 135.582C50.6719 137.891 51.7734 140.203 52.8672 142.512" stroke="black" stroke-width="0.5625" stroke-linecap="round" stroke-linejoin="round"/>
<path d="M108.531 62.3827C108.621 62.8007 105.156 64.1992 101.484 64.7382C101.484 64.7382 95.7149 65.5624 90.9961 63.6484C90.7344 63.5468 91.0195 63.6484 85.6875 61.1093C83.6719 60.1484 82.6211 59.7499 81.5117 59.6992C80.7383 59.6601 78.2266 59.7187 75.2852 63.0664C75.5547 62.4062 76.875 59.3593 80.1289 58.1093C81.9453 57.4101 83.5352 57.582 83.8867 57.6289C85.9727 57.8906 87.3086 58.9765 88.2461 59.6211C91.1328 61.6093 94.0742 62.0507 98.1094 62.6523C104.176 63.5507 108.426 61.9257 108.531 62.3906V62.3827Z" stroke="white" stroke-width="0.5625" stroke-linecap="round" stroke-linejoin="round"/>
<path d="M75.5313 59.6367C75.3438 60.0781 74.8516 61.4297 75.2852 63.0664C75.5938 64.2188 76.2383 64.9844 76.582 65.3438C76.8438 64.8516 77.3242 64.1133 78.1563 63.5078C80.5274 61.7656 83.5195 62.7344 83.918 62.8711C84.4727 63.0586 84.8907 63.2812 85.2305 63.5391C86.9024 64.7734 87.75 65.9766 88.2305 66.5469C90.7188 69.5235 96.8242 64.9687 102.629 67.9844C104.684 69.0508 106.176 70.7969 107.324 70.1836C108.301 69.6562 108.227 67.8633 109.816 67.0781C110.258 66.8594 110.684 66.793 110.961 66.7695" stroke="white" stroke-width="0.5625" stroke-linecap="round" stroke-linejoin="round"/>
<path d="M104.648 81.7383C104.766 81.4336 105.008 80.9062 105.449 80.3828C107.414 78.0351 110.551 79.0117 113.078 77.3828C114.082 76.7383 115.363 75.4336 116.102 72.5156" stroke="white" stroke-width="0.5625" stroke-linecap="round" stroke-linejoin="round"/>
<path d="M116.145 62.1953C116.453 62.6836 116.738 63.2891 116.902 64.0117C117.031 64.5742 117.113 64.961 116.902 65.1876C116.586 65.5235 115.688 65.3829 115.207 64.8946C114.621 64.2969 115.02 63.5 114.523 63.1641C113.949 62.7735 112.664 63.1641 112.453 63.7852C111.938 65.2852 117.082 69.5313 118.957 68.4727C120.66 67.5118 120.449 61.7305 117.195 59.1876C115.793 58.0938 113.297 57.1758 111.203 58.2188C110.953 58.3399 109.313 59.1954 108.848 60.9727C107.953 64.3555 112.086 68.2344 115.637 71.5626C116.699 72.5586 117.613 73.3164 118.191 73.7735" stroke="white" stroke-width="0.5625" stroke-linecap="round" stroke-linejoin="round"/>
<path d="M96.1485 77.6445C94.5313 77.1719 93.3907 76.0703 93.2696 74.8398C93.1485 73.6484 94.043 72.7187 94.5977 72.1562C96.2188 70.4844 99.3985 68.9297 102.246 69.8828C104.559 70.6562 105.555 73.0234 107.773 72.9141C108.039 72.8984 108.352 72.875 108.684 72.6875C109.656 72.1172 109.453 70.8125 110.273 69.1992C110.496 68.7578 110.879 68.1367 111.539 67.4766" stroke="white" stroke-width="0.5625" stroke-linecap="round" stroke-linejoin="round"/>
<path d="M89.836 177.809C92.4063 179.953 94.9961 182.082 97.5664 184.227C99.8399 183.5 101.633 182.531 103.094 181.152C105.359 179.008 108.383 174.754 109.223 173.586C109.223 173.586 110.789 171.734 111.922 169.527C115.434 162.672 118.828 155.074 120.645 150.934C116.828 151.859 113.016 152.781 109.207 153.703C108.219 152.039 107.227 150.363 106.246 148.676C105.473 147.359 104.707 146.047 103.949 144.734C102.863 148.406 101.766 152.09 100.656 155.789C99.457 159.785 98.2578 163.762 97.043 167.719C93.0664 169.535 89.0117 171.5 84.8907 173.613C86.5352 175.023 88.1758 176.426 89.8438 177.816L89.836 177.809Z" fill="white" stroke="black" stroke-width="0.5625" stroke-linecap="round" stroke-linejoin="round"/>
<path d="M62.543 154.391C61.5 151.926 60.4492 149.457 59.4063 146.996C58.4766 148.961 57.0469 151.43 54.8399 153.906C53.6641 155.227 52.4844 156.297 51.3984 157.176C52.5312 162.656 53.6641 168.141 54.7969 173.621C57.4336 171.547 60.082 169.469 62.7227 167.391C62.6641 163.062 62.6016 158.727 62.543 154.398V154.391Z" fill="black" stroke="black" stroke-width="0.5625" stroke-linecap="round" stroke-linejoin="round"/>
<path d="M49.957 134.855C50.1367 134.906 50.4219 135.004 50.7461 135.176C53.707 136.754 53.9688 141.582 54.0899 143.488C54.8867 155.758 54.9531 168.078 56.2109 180.305C56.3789 181.902 56.8437 185.75 54.5156 188.383C53.3242 189.734 51.8086 190.309 50.8633 190.578C51.2109 189.664 51.2344 189.035 50.9336 188.676C50.25 187.871 47.8945 188.496 43.8906 190.543C44.8594 187.625 46.1094 182.996 46.4414 177.223C46.8008 170.906 45.7266 168.875 46.0117 161.773C46.2812 155.031 47.3633 153.891 47.9492 147.598C48.3438 143.27 48.4726 136.926 46.9336 128.969C47.5586 128.863 47.9414 129.035 48.1055 129.125C48.9609 129.598 49.3516 130.953 48.8867 132.441C48.9883 132.926 49.1719 133.535 49.5234 134.18C49.6641 134.434 49.8164 134.668 49.957 134.871V134.855Z" fill="black" stroke="black" stroke-width="0.5625" stroke-linecap="round" stroke-linejoin="round"/>
<path d="M74.3789 139.699C74.5937 138.973 75.5781 136.004 78.6367 134.18C82.5234 131.863 86.5274 133.316 87.0469 133.512C85.2735 134.066 83.3164 134.797 81.2344 135.77C78.5313 137.031 76.2461 138.41 74.3867 139.699H74.3789Z" stroke="black" stroke-width="0.5625" stroke-linecap="round" stroke-linejoin="round"/>
<path d="M73.8984 147.133C74.0703 146.563 74.8281 144.266 77.1992 142.859C80.2031 141.066 83.3086 142.191 83.7149 142.34C82.3438 142.766 80.8203 143.336 79.207 144.086C77.1133 145.063 75.3437 146.137 73.8984 147.133Z" stroke="black" stroke-width="0.5625" stroke-linecap="round" stroke-linejoin="round"/>
<path d="M73.4023 153.434C73.5391 152.988 74.1289 151.192 75.9883 150.078C78.3516 148.676 80.7812 149.555 81.0976 149.676C80.0234 150.012 78.832 150.453 77.5664 151.047C75.9219 151.813 74.5352 152.652 73.4023 153.442V153.434Z" stroke="black" stroke-width="0.5625" stroke-linecap="round" stroke-linejoin="round"/>
<path d="M73.0859 158.871C73.1914 158.516 73.664 157.086 75.1406 156.207C77.0156 155.09 78.9453 155.789 79.1914 155.887C78.3359 156.156 77.3906 156.508 76.3867 156.973C75.082 157.578 73.9883 158.246 73.0859 158.871Z" stroke="black" stroke-width="0.5625" stroke-linecap="round" stroke-linejoin="round"/>
<path d="M72.9141 163.578C72.9961 163.301 73.3633 162.192 74.5117 161.512C75.9688 160.641 77.4766 161.188 77.6641 161.262C77.0039 161.473 76.2617 161.742 75.4805 162.11C74.4687 162.582 73.6133 163.102 72.9062 163.586L72.9141 163.578Z" stroke="black" stroke-width="0.5625" stroke-linecap="round" stroke-linejoin="round"/>
<path d="M72.5156 167.977C72.5938 167.734 72.9141 166.762 73.9219 166.16C75.2031 165.395 76.5234 165.875 76.6875 165.941C76.1016 166.121 75.457 166.363 74.7735 166.684C73.8828 167.098 73.1328 167.555 72.5156 167.984V167.977Z" stroke="black" stroke-width="0.5625" stroke-linecap="round" stroke-linejoin="round"/>
<path d="M72.3672 171.859C72.4219 171.672 72.6758 170.922 73.4492 170.457C74.4375 169.863 75.457 170.238 75.5859 170.285C75.1367 170.426 74.6328 170.613 74.1094 170.863C73.418 171.184 72.8398 171.539 72.3594 171.859H72.3672Z" stroke="black" stroke-width="0.5625" stroke-linecap="round" stroke-linejoin="round"/>
<path d="M74.3789 139.594C74.3633 138.828 74.2344 135.719 72.5469 133.203C70.4023 130.016 67.5312 130.453 67.1562 130.512C68.2188 131.481 69.375 132.664 70.5742 134.113C72.1289 135.996 73.3789 137.887 74.3789 139.586V139.594Z" stroke="black" stroke-width="0.5625" stroke-linecap="round" stroke-linejoin="round"/>
<path d="M73.4766 146.996C73.4258 146.414 73.1484 144.012 71.707 142.16C69.8711 139.813 67.6719 140.317 67.3867 140.383C68.2656 141.074 69.2266 141.922 70.2305 142.977C71.5351 144.344 72.6094 145.738 73.4766 146.996Z" stroke="black" stroke-width="0.5625" stroke-linecap="round" stroke-linejoin="round"/>
<path d="M73.207 153.434C73.1562 152.977 72.8984 151.094 71.7383 149.676C70.2617 147.867 68.543 148.297 68.3242 148.356C69.0234 148.879 69.7891 149.531 70.5977 150.336C71.6406 151.387 72.5117 152.457 73.207 153.434Z" stroke="black" stroke-width="0.5625" stroke-linecap="round" stroke-linejoin="round"/>
<path d="M72.8555 158.871C72.7891 158.512 72.4648 157.039 71.4609 155.988C70.1758 154.656 68.8516 155.098 68.6758 155.156C69.2617 155.523 69.9062 155.996 70.5977 156.582C71.4883 157.348 72.2383 158.141 72.8555 158.871Z" stroke="black" stroke-width="0.5625" stroke-linecap="round" stroke-linejoin="round"/>
<path d="M72.6133 163.578C72.5781 163.297 72.3906 162.141 71.6563 161.285C70.7188 160.191 69.668 160.484 69.5312 160.52C69.9687 160.836 70.4531 161.227 70.9649 161.711C71.625 162.344 72.1719 162.996 72.6211 163.586L72.6133 163.578Z" stroke="black" stroke-width="0.5625" stroke-linecap="round" stroke-linejoin="round"/>
<path d="M72.2851 167.977C72.2461 167.727 72.0664 166.715 71.4062 165.973C70.5664 165.028 69.6445 165.297 69.5234 165.336C69.9141 165.606 70.3438 165.942 70.8008 166.363C71.3906 166.91 71.8789 167.473 72.2851 167.985V167.977Z" stroke="black" stroke-width="0.5625" stroke-linecap="round" stroke-linejoin="round"/>
<path d="M71.8633 171.875C71.8281 171.688 71.6641 170.906 71.1289 170.352C70.4531 169.648 69.75 169.871 69.6602 169.91C69.9687 170.105 70.3125 170.352 70.6719 170.668C71.1445 171.074 71.5351 171.492 71.8594 171.883L71.8633 171.875Z" stroke="black" stroke-width="0.5625" stroke-linecap="round" stroke-linejoin="round"/>
<path d="M99.1133 154.16L101.281 153.672C99.8633 158.352 98.4453 163.039 97.0352 167.719C96.3672 167.555 95.7071 167.398 95.0391 167.234L99.1133 154.16Z" fill="black" stroke="black" stroke-width="0.5625" stroke-linecap="round" stroke-linejoin="round"/>
<path d="M85.4532 52.0391C88.8438 52.2344 93.3594 52.8516 98.4141 54.5586C102.555 55.9609 105.914 57.7187 108.457 59.293" stroke="black" stroke-width="0.5625" stroke-linecap="round" stroke-linejoin="round"/>
<path d="M92.2031 47.2383C91.6563 47.7109 90.9453 48.4531 90.4414 49.5117C89.7539 50.9609 89.7383 52.3633 89.6562 52.3477C89.5742 52.3398 89.7656 51.0781 89.6172 49.5859C89.4883 48.3437 89.168 47.3438 88.9062 46.6758C89.2266 46.8438 89.6563 47.0235 90.1641 47.1406C91.0039 47.336 91.7266 47.3008 92.2031 47.2344V47.2383Z" fill="#EB1C24" stroke="black" stroke-width="0.5625" stroke-linecap="round" stroke-linejoin="round"/>
<path d="M100.922 51.4101C100.531 51.7851 100.125 52.2187 99.7109 52.7148C99.1875 53.3437 98.7656 53.9609 98.4141 54.5156C98.5508 53.8633 98.6562 53.0078 98.5937 52.0156C98.5586 51.418 98.4688 50.8906 98.3633 50.4336C98.6406 50.6289 99.0078 50.8555 99.4648 51.043C100.027 51.2734 100.539 51.3633 100.914 51.4101H100.922Z" fill="#EB1C24" stroke="black" stroke-width="0.5625" stroke-linecap="round" stroke-linejoin="round"/>
<path d="M110.078 54.9414C109.5 55.1602 108.703 55.5352 107.949 56.2344C106.973 57.1328 106.508 58.1602 106.41 58.1133C106.305 58.0625 106.941 57.0117 107.191 55.5664C107.348 54.6367 107.289 53.8398 107.211 53.3008C107.504 53.5781 107.895 53.8985 108.391 54.1992C109.027 54.5899 109.621 54.8164 110.078 54.9414Z" fill="#EB1C24" stroke="black" stroke-width="0.5625" stroke-linecap="round" stroke-linejoin="round"/>
<path d="M86.0469 42.5391C86.0469 43.4532 86.0391 44.3673 85.7695 44.4337C85.4688 44.504 84.8008 43.5274 84.8008 42.4922C84.8008 41.4571 85.4688 40.4844 85.7695 40.5508C86.0547 40.6172 86.0547 41.629 86.0469 42.5391Z" fill="#EB1C24" stroke="black" stroke-width="0.5625" stroke-linecap="round" stroke-linejoin="round"/>
<path d="M116.281 52.836C115.664 53.5118 115.051 54.1915 115.207 54.418C115.379 54.672 116.535 54.4024 117.234 53.6446C117.93 52.8868 118.094 51.7188 117.832 51.5587C117.578 51.418 116.895 52.168 116.289 52.836H116.281Z" fill="#EB1C24" stroke="black" stroke-width="0.5625" stroke-linecap="round" stroke-linejoin="round"/>
<path d="M97.3516 44.4142C97.125 44.9142 96.5625 45.4766 95.9609 45.4024C95.2109 45.3048 94.7187 44.2189 94.9062 43.3478C95.0859 42.5235 95.9023 41.8009 96.5547 41.9376C97.3281 42.1017 97.7773 43.4689 97.3516 44.4142Z" fill="#EB1C24" stroke="black" stroke-width="0.5625" stroke-linecap="round" stroke-linejoin="round"/>
<path d="M105.719 47.1368C105.645 47.6836 105.824 48.461 106.371 48.7032C107.063 49.0157 108.059 48.3516 108.352 47.5157C108.637 46.7227 108.324 45.6719 107.691 45.4532C106.949 45.1915 105.848 46.1133 105.711 47.1368H105.719Z" fill="#EB1C24" stroke="black" stroke-width="0.5625" stroke-linecap="round" stroke-linejoin="round"/>
<path d="M77.9766 87.9961C78.0977 88.0234 78.2617 88.0703 78.4727 88.0937C78.9961 88.1601 79.4102 88.0938 79.6797 88.0391C80.3164 87.9258 81.1211 87.7773 82.0664 87.5742" fill="#EB1C24"/>
<path d="M77.9766 87.9961C78.0977 88.0234 78.2617 88.0703 78.4727 88.0937C78.9961 88.1601 79.4102 88.0938 79.6797 88.0391C80.3164 87.9258 81.1211 87.7773 82.0664 87.5742" stroke="black" stroke-width="0.5625" stroke-linecap="round" stroke-linejoin="round"/>
<path d="M49.461 132.477C50.0156 136.676 50.4961 140.996 50.8945 145.43C52.2227 160.234 52.4023 174.117 51.8555 186.891" stroke="white" stroke-width="0.5625" stroke-linecap="round" stroke-linejoin="round"/>
<path d="M92.9766 172.949C88.5508 174.664 84.0742 176.504 79.5391 178.469C78.6758 178.844 77.8203 179.219 76.9649 179.594C76.957 179.594 76.9414 179.594 76.9336 179.594C75.7734 180.109 73.9727 180.824 71.6914 181.355C70.0508 181.738 69.4492 181.73 66.9453 182.059C58.6563 183.172 56.9766 184.398 56.0547 185.336C55.7344 185.668 55.3516 186.262 54.5859 187.461C53.3867 189.336 52.2891 192.094 50.1445 197.539C49.4922 199.203 48.8633 200.84 49.5234 201.453C49.7266 201.641 49.9883 201.688 50.1914 201.695C50.8945 199.879 51.5938 198.059 52.2969 196.242C52.2227 196.406 52.1172 196.664 51.9766 196.977C51.5625 197.879 51.1211 198.785 50.8516 199.738C50.6992 200.137 50.5664 200.523 50.4531 200.93C50.1445 201.934 49.9414 202.199 50.0547 202.574C50.1367 202.871 50.3867 203.246 50.7656 203.336C51.2031 203.426 51.7266 203.129 51.9883 202.551C52.3047 202.766 52.7031 202.648 53.0117 202.469C53.2031 202.348 53.3906 202.184 53.5664 202.016C53.6406 201.941 53.7148 201.859 53.7813 201.785C53.7891 201.777 53.8047 201.754 53.8203 201.738C53.918 201.816 54.0391 201.859 54.1797 201.867C54.6445 201.883 55.0937 201.539 55.4414 201.262C55.8437 200.938 56.2109 200.57 56.5664 200.195C57.0664 199.656 57.4961 199.055 57.9219 198.453C58.2227 198.035 58.5313 197.637 58.9141 197.285L59.1133 197.129C59.1133 197.129 59.1367 197.129 59.1445 197.113C59.332 196.977 59.5351 196.852 59.7305 196.715C60.4961 196.184 61.2617 195.656 62.0156 195.125C62.4062 194.848 62.7734 194.578 63.1562 194.301C63.4883 194.059 63.7891 193.781 64.1094 193.527C64.2305 193.453 64.4258 193.324 64.6719 193.176C68.5508 190.828 70.7851 190.813 73.7461 189.012C74.4062 188.609 75.4063 187.941 76.5156 186.891C79.8828 187.176 83.3711 187.406 86.9766 187.574C91.8438 187.789 96.5156 187.863 100.988 187.828C98.1016 182.984 95.0547 178.211 92.9844 172.949H92.9766Z" fill="white" stroke="black" stroke-width="0.5625" stroke-linecap="round" stroke-linejoin="round"/>
<path d="M52.3047 196.258C52.4492 195.922 52.6719 195.395 52.9219 194.734C53.25 193.859 53.332 193.543 53.5742 193.016C53.8711 192.344 54.1797 191.879 54.5156 191.359C55.6719 189.613 56.9023 187.887 57.3516 187.25" stroke="black" stroke-width="0.5625" stroke-linecap="round" stroke-linejoin="round"/>
<path d="M51.9883 202.566C51.9063 202.496 51.7891 202.379 51.7188 202.191C51.6445 201.965 51.6914 201.762 51.711 201.656C51.9219 200.781 52.2813 200.066 52.2813 200.066C52.4258 199.754 52.6289 199.301 52.8906 198.77C53.543 197.406 54.4649 195.469 55.7188 193.52C56.5196 192.266 57.7031 190.609 59.3985 188.809" stroke="black" stroke-width="0.5625" stroke-linecap="round" stroke-linejoin="round"/>
<path d="M53.7891 201.793C53.7539 201.727 53.6758 201.582 53.6406 201.387C53.5352 200.832 53.8516 200.344 53.961 200.172C56.6328 195.996 56.0625 196.355 57.4219 194.871C58.5312 193.648 60.1211 192.078 62.25 190.477" stroke="black" stroke-width="0.5625" stroke-linecap="round" stroke-linejoin="round"/>
<path d="M119.559 153.379C120.914 154.656 122.82 156.711 124.453 159.641C125.656 161.789 127.582 165.117 127.5 169.707C127.441 173.531 126.164 176.547 125.137 178.422C125.559 180.359 125.836 183.215 124.379 185.719C123.219 187.723 121.719 188.172 118.922 190.504C114.668 194.059 115.012 195.637 112.965 196.879C108.422 199.656 101.738 194.898 90.4258 189.441C85.875 187.242 79.2735 184.297 70.8672 181.414C70.4258 181.551 69.9297 181.672 69.375 181.766C68.9024 181.852 68.4609 181.902 68.0625 181.926C67.4024 180.5 67.5821 178.828 68.5274 177.605C69.5391 176.293 71.2578 175.707 72.8867 176.121C73.5 175.406 74.4531 174.395 75.75 173.352C80.1992 169.789 85.0196 168.816 91.8008 167.938C105.977 166.094 107.371 167.406 111.039 165.281C115.23 162.852 117.887 158.539 119.527 153.387L119.559 153.379Z" fill="black" stroke="black" stroke-width="0.5625" stroke-linecap="round" stroke-linejoin="round"/>
<path d="M122.762 179.383C119.258 180.746 115.125 181.961 110.43 182.645C93.2773 185.141 79.2734 178.992 72.6992 175.496" stroke="white" stroke-width="0.5625" stroke-linecap="round" stroke-linejoin="round"/>
<path d="M119.574 157.199C119.879 157.488 124.875 162.32 123.539 164.848C122.934 165.996 120.863 166.199 116.738 166.551C114.023 166.781 111.098 166.852 106.359 166.633C103.852 166.52 101.805 166.371 100.434 166.266" stroke="white" stroke-width="0.5625" stroke-linecap="round" stroke-linejoin="round"/>
<path d="M95.5273 182.809C98.6914 183.648 102.336 184.871 106.246 186.68C108.906 187.918 111.27 189.223 113.332 190.504" stroke="white" stroke-width="0.5625" stroke-linecap="round" stroke-linejoin="round"/>
<path d="M98.9023 108.043C100.703 108.836 102.766 109.617 105.074 110.285C108.961 111.41 112.492 111.922 115.426 112.129" stroke="black" stroke-width="0.5625" stroke-linecap="round" stroke-linejoin="round"/>
<path d="M76.0586 106.273C76.6289 106.43 77.4531 106.641 78.4649 106.812C79.5664 107 80.332 107.137 81.3359 107.098C81.9844 107.074 82.957 106.961 84.1211 106.566" stroke="black" stroke-width="0.5625" stroke-linecap="round" stroke-linejoin="round"/>
<path d="M80.1289 77.7656C80.6641 77.8789 81.5312 77.9883 82.5742 77.8008C83.9023 77.5625 84.832 76.9531 85.3047 76.5938" stroke="black" stroke-width="0.5625" stroke-linecap="round" stroke-linejoin="round"/>
<path d="M57.2031 184.859C57.7344 185.172 58.2656 185.488 58.8008 185.797" stroke="black" stroke-width="0.5625" stroke-linecap="round" stroke-linejoin="round"/>
<path d="M62.168 187.625C63.0664 188.277 63.9766 188.937 64.875 189.59" stroke="black" stroke-width="0.5625" stroke-linecap="round" stroke-linejoin="round"/>
<path d="M76.5156 186.891L76.6484 185.801" stroke="black" stroke-width="0.5625" stroke-linecap="round" stroke-linejoin="round"/>
<defs>
<linearGradient id="paint0_linear_2314_2680" x1="158.445" y1="49.6175" x2="11.805" y2="49.6175" gradientUnits="userSpaceOnUse">
<stop stop-color="#8F8587"/>
<stop offset="0.00390625" stop-color="#908688"/>
<stop offset="0.0078125" stop-color="#918789"/>
<stop offset="0.0117188" stop-color="#92888A"/>
<stop offset="0.015625" stop-color="#92898B"/>
<stop offset="0.0195312" stop-color="#938A8B"/>
<stop offset="0.0234375" stop-color="#948B8C"/>
<stop offset="0.0273438" stop-color="#958C8D"/>
<stop offset="0.03125" stop-color="#968D8E"/>
<stop offset="0.0351562" stop-color="#978D8F"/>
<stop offset="0.0390625" stop-color="#988E90"/>
<stop offset="0.0429688" stop-color="#988F91"/>
<stop offset="0.046875" stop-color="#999092"/>
<stop offset="0.0507813" stop-color="#9A9193"/>
<stop offset="0.0546875" stop-color="#9B9294"/>
<stop offset="0.0585938" stop-color="#9C9395"/>
<stop offset="0.0625" stop-color="#9D9496"/>
<stop offset="0.0664063" stop-color="#9D9596"/>
<stop offset="0.0703125" stop-color="#9E9697"/>
<stop offset="0.0742188" stop-color="#9F9798"/>
<stop offset="0.078125" stop-color="#A09899"/>
<stop offset="0.0820313" stop-color="#A1999A"/>
<stop offset="0.0859375" stop-color="#A2999B"/>
<stop offset="0.0898438" stop-color="#A39A9C"/>
<stop offset="0.09375" stop-color="#A39B9D"/>
<stop offset="0.0976563" stop-color="#A49C9E"/>
<stop offset="0.101563" stop-color="#A59D9F"/>
<stop offset="0.105469" stop-color="#A69EA0"/>
<stop offset="0.109375" stop-color="#A79FA0"/>
<stop offset="0.113281" stop-color="#A8A0A1"/>
<stop offset="0.117188" stop-color="#A8A1A2"/>
<stop offset="0.121094" stop-color="#A9A2A3"/>
<stop offset="0.125" stop-color="#AAA3A4"/>
<stop offset="0.128906" stop-color="#ABA4A5"/>
<stop offset="0.132812" stop-color="#ACA5A6"/>
<stop offset="0.136719" stop-color="#ADA5A7"/>
<stop offset="0.140625" stop-color="#AEA6A8"/>
<stop offset="0.144531" stop-color="#AEA7A9"/>
<stop offset="0.148438" stop-color="#AFA8AA"/>
<stop offset="0.152344" stop-color="#B0A9AB"/>
<stop offset="0.15625" stop-color="#B1AAAB"/>
<stop offset="0.160156" stop-color="#B2ABAC"/>
<stop offset="0.164062" stop-color="#B3ACAD"/>
<stop offset="0.167969" stop-color="#B3ADAE"/>
<stop offset="0.171875" stop-color="#B4AEAF"/>
<stop offset="0.175781" stop-color="#B5AFB0"/>
<stop offset="0.179688" stop-color="#B6B0B1"/>
<stop offset="0.183594" stop-color="#B7B1B2"/>
<stop offset="0.1875" stop-color="#B8B2B3"/>
<stop offset="0.191406" stop-color="#B9B2B4"/>
<stop offset="0.195312" stop-color="#B9B3B5"/>
<stop offset="0.199219" stop-color="#BAB4B5"/>
<stop offset="0.203125" stop-color="#BBB5B6"/>
<stop offset="0.207031" stop-color="#BCB6B7"/>
<stop offset="0.210937" stop-color="#BDB7B8"/>
<stop offset="0.214844" stop-color="#BEB8B9"/>
<stop offset="0.21875" stop-color="#BEB9BA"/>
<stop offset="0.222656" stop-color="#BFBABB"/>
<stop offset="0.226562" stop-color="#C0BBBC"/>
<stop offset="0.230469" stop-color="#C1BCBD"/>
<stop offset="0.234375" stop-color="#C2BDBE"/>
<stop offset="0.238281" stop-color="#C3BEBF"/>
<stop offset="0.242187" stop-color="#C3BEBF"/>
<stop offset="0.246094" stop-color="#C4BFC0"/>
<stop offset="0.25" stop-color="#C5C0C1"/>
<stop offset="0.253906" stop-color="#C6C1C2"/>
<stop offset="0.257812" stop-color="#C6C2C3"/>
<stop offset="0.261719" stop-color="#C7C3C3"/>
<stop offset="0.265625" stop-color="#C8C3C4"/>
<stop offset="0.269531" stop-color="#C9C4C5"/>
<stop offset="0.273437" stop-color="#C9C5C6"/>
<stop offset="0.277344" stop-color="#CAC6C7"/>
<stop offset="0.28125" stop-color="#CBC7C7"/>
<stop offset="0.285156" stop-color="#CCC7C8"/>
<stop offset="0.289062" stop-color="#CCC8C9"/>
<stop offset="0.292969" stop-color="#CDC9CA"/>
<stop offset="0.296875" stop-color="#CECACB"/>
<stop offset="0.300781" stop-color="#CFCBCB"/>
<stop offset="0.304687" stop-color="#CFCCCC"/>
<stop offset="0.308594" stop-color="#D0CCCD"/>
<stop offset="0.3125" stop-color="#D1CDCE"/>
<stop offset="0.316406" stop-color="#D2CECF"/>
<stop offset="0.320312" stop-color="#D2CFCF"/>
<stop offset="0.324219" stop-color="#D3D0D0"/>
<stop offset="0.328125" stop-color="#D4D0D1"/>
<stop offset="0.332031" stop-color="#D5D1D2"/>
<stop offset="0.335937" stop-color="#D5D2D3"/>
<stop offset="0.339844" stop-color="#D6D3D3"/>
<stop offset="0.34375" stop-color="#D7D4D4"/>
<stop offset="0.347656" stop-color="#D8D5D5"/>
<stop offset="0.351562" stop-color="#D8D5D6"/>
<stop offset="0.355469" stop-color="#D9D6D7"/>
<stop offset="0.359375" stop-color="#DAD7D7"/>
<stop offset="0.363281" stop-color="#DBD8D8"/>
<stop offset="0.367187" stop-color="#DBD9D9"/>
<stop offset="0.371094" stop-color="#DCDADA"/>
<stop offset="0.375" stop-color="#DDDADB"/>
<stop offset="0.378906" stop-color="#DEDBDB"/>
<stop offset="0.382813" stop-color="#DEDCDC"/>
<stop offset="0.386719" stop-color="#DFDDDD"/>
<stop offset="0.390625" stop-color="#E0DEDE"/>
<stop offset="0.394531" stop-color="#E1DEDF"/>
<stop offset="0.398438" stop-color="#E1DFE0"/>
<stop offset="0.402344" stop-color="#E2E0E0"/>
<stop offset="0.40625" stop-color="#E3E1E1"/>
<stop offset="0.410156" stop-color="#E4E2E2"/>
<stop offset="0.414063" stop-color="#E4E3E3"/>
<stop offset="0.417969" stop-color="#E5E3E4"/>
<stop offset="0.421875" stop-color="#E6E4E4"/>
<stop offset="0.425781" stop-color="#E6E5E5"/>
<stop offset="0.429688" stop-color="#E7E6E6"/>
<stop offset="0.433594" stop-color="#E8E7E7"/>
<stop offset="0.4375" stop-color="#E9E7E8"/>
<stop offset="0.441406" stop-color="#E9E8E8"/>
<stop offset="0.445312" stop-color="#EAE9E9"/>
<stop offset="0.449219" stop-color="#EBEAEA"/>
<stop offset="0.453125" stop-color="#ECEBEB"/>
<stop offset="0.457031" stop-color="#ECEBEB"/>
<stop offset="0.460938" stop-color="#EDECEC"/>
<stop offset="0.464844" stop-color="#EDECEC"/>
<stop offset="0.46875" stop-color="#EEEDED"/>
<stop offset="0.472656" stop-color="#EEEEEE"/>
<stop offset="0.476562" stop-color="#EFEEEE"/>
<stop offset="0.480469" stop-color="#EFEFEF"/>
<stop offset="0.484375" stop-color="#F0EFEF"/>
<stop offset="0.488281" stop-color="#F1F0F0"/>
<stop offset="0.492188" stop-color="#F1F1F1"/>
<stop offset="0.496094" stop-color="#F2F1F1"/>
<stop offset="0.5" stop-color="#F2F2F2"/>
<stop offset="0.503906" stop-color="#F3F2F2"/>
<stop offset="0.507812" stop-color="#F3F3F3"/>
<stop offset="0.511719" stop-color="#F4F4F4"/>
<stop offset="0.515625" stop-color="#F5F4F4"/>
<stop offset="0.519531" stop-color="#F5F5F5"/>
<stop offset="0.523438" stop-color="#F6F5F5"/>
<stop offset="0.527344" stop-color="#F6F6F6"/>
<stop offset="0.53125" stop-color="#F7F7F7"/>
<stop offset="0.535156" stop-color="#F7F7F7"/>
<stop offset="0.539063" stop-color="#F8F8F8"/>
<stop offset="0.542969" stop-color="#F8F8F8"/>
<stop offset="0.546875" stop-color="#F9F9F9"/>
<stop offset="0.550781" stop-color="#FAFAFA"/>
<stop offset="0.554688" stop-color="#FAFAFA"/>
<stop offset="0.5625" stop-color="#FBFBFB"/>
<stop offset="0.625" stop-color="#FBFBFB"/>
<stop offset="0.75" stop-color="#FBFBFB"/>
<stop offset="1" stop-color="#FBFBFB"/>
</linearGradient>
<linearGradient id="paint1_linear_2314_2680" x1="11.655" y1="188.608" x2="158.37" y2="188.608" gradientUnits="userSpaceOnUse">
<stop stop-color="#8F8587"/>
<stop offset="0.00390625" stop-color="#908688"/>
<stop offset="0.0078125" stop-color="#918789"/>
<stop offset="0.0117188" stop-color="#91888A"/>
<stop offset="0.015625" stop-color="#92898A"/>
<stop offset="0.0195313" stop-color="#938A8B"/>
<stop offset="0.0234375" stop-color="#948A8C"/>
<stop offset="0.0273437" stop-color="#958B8D"/>
<stop offset="0.03125" stop-color="#968C8E"/>
<stop offset="0.0351562" stop-color="#968D8F"/>
<stop offset="0.0390625" stop-color="#978E90"/>
<stop offset="0.0429688" stop-color="#988F91"/>
<stop offset="0.046875" stop-color="#999091"/>
<stop offset="0.0507812" stop-color="#9A9192"/>
<stop offset="0.0546875" stop-color="#9A9293"/>
<stop offset="0.0585938" stop-color="#9B9294"/>
<stop offset="0.0625" stop-color="#9C9395"/>
<stop offset="0.0664062" stop-color="#9D9496"/>
<stop offset="0.0703125" stop-color="#9E9597"/>
<stop offset="0.0742187" stop-color="#9E9698"/>
<stop offset="0.078125" stop-color="#9F9798"/>
<stop offset="0.0820312" stop-color="#A09899"/>
<stop offset="0.0859375" stop-color="#A1999A"/>
<stop offset="0.0898437" stop-color="#A29A9B"/>
<stop offset="0.09375" stop-color="#A39A9C"/>
<stop offset="0.0976562" stop-color="#A39B9D"/>
<stop offset="0.101562" stop-color="#A49C9E"/>
<stop offset="0.105469" stop-color="#A59D9F"/>
<stop offset="0.109375" stop-color="#A69E9F"/>
<stop offset="0.113281" stop-color="#A79FA0"/>
<stop offset="0.117187" stop-color="#A7A0A1"/>
<stop offset="0.121094" stop-color="#A8A1A2"/>
<stop offset="0.125" stop-color="#A9A2A3"/>
<stop offset="0.128906" stop-color="#AAA2A4"/>
<stop offset="0.132812" stop-color="#ABA3A5"/>
<stop offset="0.136719" stop-color="#ABA4A6"/>
<stop offset="0.140625" stop-color="#ACA5A6"/>
<stop offset="0.144531" stop-color="#ADA6A7"/>
<stop offset="0.148438" stop-color="#AEA7A8"/>
<stop offset="0.152344" stop-color="#AFA8A9"/>
<stop offset="0.15625" stop-color="#B0A9AA"/>
<stop offset="0.160156" stop-color="#B0AAAB"/>
<stop offset="0.164062" stop-color="#B1AAAC"/>
<stop offset="0.167969" stop-color="#B2ABAD"/>
<stop offset="0.171875" stop-color="#B3ACAD"/>
<stop offset="0.175781" stop-color="#B4ADAE"/>
<stop offset="0.179687" stop-color="#B4AEAF"/>
<stop offset="0.183594" stop-color="#B5AFB0"/>
<stop offset="0.1875" stop-color="#B6B0B1"/>
<stop offset="0.191406" stop-color="#B7B1B2"/>
<stop offset="0.195312" stop-color="#B8B2B3"/>
<stop offset="0.199219" stop-color="#B9B2B4"/>
<stop offset="0.203125" stop-color="#B9B3B4"/>
<stop offset="0.207031" stop-color="#BAB4B5"/>
<stop offset="0.210937" stop-color="#BBB5B6"/>
<stop offset="0.214844" stop-color="#BCB6B7"/>
<stop offset="0.21875" stop-color="#BDB7B8"/>
<stop offset="0.222656" stop-color="#BDB8B9"/>
<stop offset="0.226562" stop-color="#BEB9BA"/>
<stop offset="0.230469" stop-color="#BFBABB"/>
<stop offset="0.234375" stop-color="#C0BABB"/>
<stop offset="0.238281" stop-color="#C1BBBC"/>
<stop offset="0.242187" stop-color="#C1BCBD"/>
<stop offset="0.246094" stop-color="#C2BDBE"/>
<stop offset="0.25" stop-color="#C3BEBF"/>
<stop offset="0.253906" stop-color="#C4BFC0"/>
<stop offset="0.257812" stop-color="#C5C0C1"/>
<stop offset="0.261719" stop-color="#C5C0C1"/>
<stop offset="0.265625" stop-color="#C6C1C2"/>
<stop offset="0.269531" stop-color="#C7C2C3"/>
<stop offset="0.273438" stop-color="#C8C3C4"/>
<stop offset="0.277344" stop-color="#C8C4C5"/>
<stop offset="0.28125" stop-color="#C9C5C5"/>
<stop offset="0.285156" stop-color="#CAC5C6"/>
<stop offset="0.289062" stop-color="#CBC6C7"/>
<stop offset="0.292969" stop-color="#CBC7C8"/>
<stop offset="0.296875" stop-color="#CCC8C9"/>
<stop offset="0.300781" stop-color="#CDC9C9"/>
<stop offset="0.304688" stop-color="#CDC9CA"/>
<stop offset="0.308594" stop-color="#CECACB"/>
<stop offset="0.3125" stop-color="#CFCBCC"/>
<stop offset="0.316406" stop-color="#D0CCCD"/>
<stop offset="0.320312" stop-color="#D0CDCD"/>
<stop offset="0.324219" stop-color="#D1CECE"/>
<stop offset="0.328125" stop-color="#D2CECF"/>
<stop offset="0.332031" stop-color="#D3CFD0"/>
<stop offset="0.335938" stop-color="#D3D0D1"/>
<stop offset="0.339844" stop-color="#D4D1D1"/>
<stop offset="0.34375" stop-color="#D5D2D2"/>
<stop offset="0.347656" stop-color="#D6D2D3"/>
<stop offset="0.351562" stop-color="#D6D3D4"/>
<stop offset="0.355469" stop-color="#D7D4D5"/>
<stop offset="0.359375" stop-color="#D8D5D5"/>
<stop offset="0.363281" stop-color="#D9D6D6"/>
<stop offset="0.367188" stop-color="#D9D7D7"/>
<stop offset="0.371094" stop-color="#DAD7D8"/>
<stop offset="0.375" stop-color="#DBD8D9"/>
<stop offset="0.378906" stop-color="#DCD9D9"/>
<stop offset="0.382812" stop-color="#DCDADA"/>
<stop offset="0.386719" stop-color="#DDDBDB"/>
<stop offset="0.390625" stop-color="#DEDCDC"/>
<stop offset="0.394531" stop-color="#DFDCDD"/>
<stop offset="0.398438" stop-color="#DFDDDD"/>
<stop offset="0.402344" stop-color="#E0DEDE"/>
<stop offset="0.40625" stop-color="#E1DFDF"/>
<stop offset="0.410156" stop-color="#E2E0E0"/>
<stop offset="0.414062" stop-color="#E2E0E1"/>
<stop offset="0.417969" stop-color="#E3E1E1"/>
<stop offset="0.421875" stop-color="#E4E2E2"/>
<stop offset="0.425781" stop-color="#E5E3E3"/>
<stop offset="0.429688" stop-color="#E5E4E4"/>
<stop offset="0.433594" stop-color="#E6E5E5"/>
<stop offset="0.4375" stop-color="#E7E5E5"/>
<stop offset="0.441406" stop-color="#E8E6E6"/>
<stop offset="0.445312" stop-color="#E8E7E7"/>
<stop offset="0.449219" stop-color="#E9E8E8"/>
<stop offset="0.453125" stop-color="#EAE9E9"/>
<stop offset="0.457031" stop-color="#EBE9E9"/>
<stop offset="0.460938" stop-color="#EBEAEA"/>
<stop offset="0.464844" stop-color="#ECEBEB"/>
<stop offset="0.46875" stop-color="#ECEBEB"/>
<stop offset="0.472656" stop-color="#EDECEC"/>
<stop offset="0.476562" stop-color="#EDEDED"/>
<stop offset="0.480469" stop-color="#EEEDED"/>
<stop offset="0.484375" stop-color="#EFEEEE"/>
<stop offset="0.488281" stop-color="#EFEEEE"/>
<stop offset="0.492188" stop-color="#F0EFEF"/>
<stop offset="0.496094" stop-color="#F0F0F0"/>
<stop offset="0.5" stop-color="#F1F0F0"/>
<stop offset="0.503906" stop-color="#F1F1F1"/>
<stop offset="0.507812" stop-color="#F2F1F1"/>
<stop offset="0.511719" stop-color="#F3F2F2"/>
<stop offset="0.515625" stop-color="#F3F3F3"/>
<stop offset="0.519531" stop-color="#F4F3F3"/>
<stop offset="0.523438" stop-color="#F4F4F4"/>
<stop offset="0.527344" stop-color="#F5F4F4"/>
<stop offset="0.53125" stop-color="#F5F5F5"/>
<stop offset="0.535156" stop-color="#F6F6F6"/>
<stop offset="0.539062" stop-color="#F6F6F6"/>
<stop offset="0.542969" stop-color="#F7F7F7"/>
<stop offset="0.546875" stop-color="#F8F7F7"/>
<stop offset="0.550781" stop-color="#F8F8F8"/>
<stop offset="0.554688" stop-color="#F9F9F9"/>
<stop offset="0.558594" stop-color="#F9F9F9"/>
<stop offset="0.5625" stop-color="#FAFAFA"/>
<stop offset="0.566406" stop-color="#FAFAFA"/>
<stop offset="0.570312" stop-color="#FBFBFB"/>
<stop offset="0.578125" stop-color="#FBFBFB"/>
<stop offset="0.59375" stop-color="#FBFBFB"/>
<stop offset="0.625" stop-color="#FBFBFB"/>
<stop offset="0.75" stop-color="#FBFBFB"/>
<stop offset="1" stop-color="#FBFBFB"/>
</linearGradient>
</defs>
</svg>
