<svg width="169" height="239" viewBox="0 0 169 239" fill="none" xmlns="http://www.w3.org/2000/svg">
<path d="M162.906 238.422H6.39062C3.06641 238.422 0.375 235.707 0.375 232.363V6.79297C0.375 3.44922 3.06641 0.734375 6.39062 0.734375H162.906C166.23 0.734375 168.922 3.44922 168.922 6.79297V232.363C168.922 235.707 166.23 238.422 162.906 238.422Z" fill="white"/>
<path d="M113.895 113C114.047 119.512 112.883 124.574 111.547 128.324C110.551 131.113 110.199 131.082 109.23 134.098C108.105 137.594 106.906 142.812 107.121 149.09C107.184 150.883 107.348 152.336 107.469 153.266C108.816 154.43 110.844 156.172 113.301 158.316C116.301 160.926 116.266 160.926 116.574 161.137C119.934 163.398 124.996 164.047 129.539 162.41C130.582 162.035 135.172 160.391 137.332 155.609C138.578 152.855 138.465 150.289 138.316 149C138.703 148.676 139.238 148.145 139.648 147.379C140.918 145.016 140.047 142.191 138.84 138.434C138.531 137.48 138.113 136.301 137.543 134.984C137.191 135.469 136.746 136.219 136.613 137.203C136.441 138.426 136.883 138.98 136.582 139.699C136.461 139.984 136.094 140.594 133.582 141.176C130.176 141.98 127.656 141.621 126.938 141.508C125.145 141.223 123.789 140.996 123.449 140.051C123.137 139.176 123.879 138.156 124.191 137.766C123.66 136.566 123.129 135.363 122.594 134.148C119.484 127.023 116.578 119.977 113.871 113H113.895Z" fill="#EB1C24"/>
<path d="M97.2148 207.793C97.2461 202.445 97.043 196.594 96.4727 190.316C95.8125 183.094 94.7617 176.496 93.5547 170.594C95.9414 170.301 98.4609 169.902 101.109 169.363C102.547 169.07 103.934 168.746 105.27 168.41C106.066 172.602 106.809 176.93 107.469 181.391C108.879 190.859 109.793 199.879 110.34 208.391" fill="white"/>
<path d="M97.2148 207.793C97.2461 202.445 97.043 196.594 96.4727 190.316C95.8125 183.094 94.7617 176.496 93.5547 170.594C95.9414 170.301 98.4609 169.902 101.109 169.363C102.547 169.07 103.934 168.746 105.27 168.41C106.066 172.602 106.809 176.93 107.469 181.391C108.879 190.859 109.793 199.879 110.34 208.391" stroke="black" stroke-width="0.5625" stroke-linecap="round" stroke-linejoin="round"/>
<path d="M90.5859 58.379C91.7617 57.1719 92.9492 56.6094 93.6445 56.3438C95.8789 55.4883 99.0313 55.4063 101.234 57.1719C101.797 57.6212 102.172 58.0938 102.398 58.3985C101.137 58.836 99.3438 59.3008 97.1641 59.3751C94.3203 59.4805 92.0234 58.8789 90.5859 58.3867V58.379Z" fill="#EB1C24" stroke="black" stroke-width="0.5625" stroke-linecap="round" stroke-linejoin="round"/>
<path d="M112.32 73.9101C108.699 78.3125 108.039 83.4336 108.105 87.0273C108.039 90.6133 108.699 95.7344 112.32 100.145C114.629 102.957 117.324 104.473 119.016 105.246C118.344 98.2109 120.563 92.6093 124.223 91.3164C124.957 91.0625 126.039 90.875 127.516 91.2109C127.551 89.8867 127.582 88.5586 127.621 87.2305H127.629C127.629 87.1641 127.629 87.0937 127.629 87.0273V86.8242C127.59 85.4961 127.559 84.1718 127.523 82.8437C126.039 83.1797 124.957 82.9922 124.23 82.7383C120.57 81.4531 118.344 75.8516 119.023 68.8086C117.328 69.5898 114.637 71.1055 112.328 73.9101H112.32Z" stroke="black" stroke-width="0.5625" stroke-linecap="round" stroke-linejoin="round"/>
<path d="M130.605 91.2111C131.316 91.5783 132.684 92.1564 134.422 92.0666C135.309 92.0236 136.012 91.9845 136.613 91.5041C137.469 90.8244 137.477 89.2931 137.469 86.2541C137.469 83.8556 137.258 83.2033 136.762 82.7463C136.246 82.2736 135.621 82.1916 134.887 82.1096C134.094 82.0158 132.531 81.9728 130.605 82.8361V91.2111Z" stroke="black" stroke-width="0.5625" stroke-linecap="round" stroke-linejoin="round"/>
<path d="M70.3633 83.3593C70.5156 83.8476 70.9727 85.5859 70.0781 87.3437C69.8086 87.875 69.1289 89.2187 67.6367 89.5937C66.6523 89.8398 65.8125 89.5312 65.4531 89.375C65.4844 89.6445 65.6016 90.5156 66.3008 91.2343C66.7813 91.7226 67.3047 91.9258 67.5742 92C67.1172 92.2031 66.3281 92.4727 65.3398 92.4336C64.8281 92.4141 64.4024 92.3242 64.0664 92.2187C64.3867 92.6523 65.2031 93.6289 66.6133 94.1367C68.1758 94.707 69.5234 94.3711 70.1719 94.1992C70.6953 94.0625 72.9219 93.4765 74.0391 91.5586C75.0469 89.8242 74.4375 88.2266 75.9453 86.8086C76.2383 86.5391 76.5156 86.3516 76.7031 86.2461C76.1836 85.6719 74.4141 83.5468 74.707 80.7812C74.7734 80.164 74.9336 79.625 75.1211 79.168C73.8906 80.0586 72.6094 81.1172 71.332 82.3633C70.9961 82.6914 70.6719 83.0312 70.3594 83.3593H70.3633Z" fill="black" stroke="black" stroke-width="0.5625" stroke-linecap="round" stroke-linejoin="round"/>
<path d="M94.5586 100.566C95.4141 102.598 96.4492 105.859 96.2461 109.871C96.1719 111.328 95.9531 112.625 95.6758 113.742C94.9141 112.812 93.6016 111.461 91.6367 110.383C90.2031 109.594 88.875 109.199 87.8789 108.996C86.7891 109.656 85.4688 110.609 84.1562 111.957C83.332 112.805 82.6641 113.645 82.1406 114.402C80.6094 113.059 79.043 111.605 77.4531 110.047C75.7656 108.379 73.6367 106.168 71.2969 103.445C70.0742 102.02 68.6484 100.281 67.1172 98.2539C67.6211 97.8047 68.1914 97.2266 68.7461 96.5C69.3906 95.668 69.8477 94.8711 70.1758 94.2031C70.3711 94.1523 70.582 94.0938 70.8008 94.0156C70.9219 93.9805 71.0391 93.9336 71.1445 93.8906C72.375 95.6523 73.8438 97.5273 75.6133 99.4258C79.8594 103.969 84.293 107 87.8789 108.996C88.8359 108.086 90.0312 106.766 91.1406 104.977C92.2266 103.211 92.8711 101.562 93.2617 100.297C93.6914 100.387 94.1172 100.477 94.5508 100.566H94.5586Z" fill="white"/>
<path d="M87.8789 108.996C88.875 109.199 90.2031 109.594 91.6367 110.383C93.6016 111.461 94.9141 112.813 95.6758 113.742C95.9531 112.625 96.1719 111.328 96.2461 109.871C96.4492 105.859 95.4141 102.598 94.5586 100.566H94.5508C94.1172 100.477 93.6914 100.387 93.2617 100.297C92.8711 101.563 92.2266 103.211 91.1406 104.977C90.0312 106.766 88.8359 108.086 87.8789 108.996ZM87.8789 108.996C86.7891 109.656 85.4688 110.609 84.1562 111.957C83.332 112.805 82.6641 113.645 82.1406 114.402C80.6094 113.059 79.043 111.605 77.4531 110.047C75.7656 108.379 73.6367 106.168 71.2969 103.445C70.0742 102.02 68.6484 100.281 67.1172 98.2539C67.6211 97.8047 68.1914 97.2266 68.7461 96.5C69.3906 95.668 69.8477 94.8711 70.1758 94.2031C70.3711 94.1524 70.582 94.0938 70.8008 94.0156C70.9219 93.9805 71.0391 93.9336 71.1445 93.8906C72.375 95.6523 73.8438 97.5273 75.6133 99.4258C79.8594 103.969 84.293 107 87.8789 108.996Z" stroke="black" stroke-width="0.5625" stroke-linecap="round" stroke-linejoin="round"/>
<path d="M87.8867 108.996C88.2461 110.234 88.582 111.621 88.8437 113.156C89.0469 114.344 89.1758 115.461 89.2578 116.496" stroke="black" stroke-width="0.5625" stroke-linecap="round" stroke-linejoin="round"/>
<path d="M77.4141 115.953C79.2227 116.352 81.2344 116.676 83.4219 116.832C89.7383 117.289 95.1016 116.246 98.9922 115.078" stroke="black" stroke-width="0.5625" stroke-linecap="round" stroke-linejoin="round"/>
<path d="M85.9883 159.629C86.2188 149.547 85.1992 133.371 77.4141 115.953C74.2422 108.852 70.582 102.965 67.125 98.254C67.0195 98.0665 66.8164 97.7735 66.4727 97.5743C65.1523 96.8087 63.0156 98.2345 62.3711 98.6368C55.2969 103.152 39.9297 105.539 39.8867 111.844C39.8867 112.16 39.9141 112.723 40.207 113.434C40.5508 112.895 41.1602 112.102 42.1211 111.41C43.4336 110.465 44.7305 110.188 45.4141 110.098C46.6484 111.059 48.3242 112.496 50.0391 114.484C51.8164 116.539 59.8281 125.809 58.1172 137.832C57.2852 143.699 54.4414 148.039 52.2656 150.656C53.0156 152.359 53.5352 153.762 53.8633 154.715C54.4961 156.551 54.6914 157.485 55.5664 158.328C56.3555 159.102 57.2852 159.402 57.9063 159.539C63.668 159.793 69.6602 159.922 75.8711 159.867C79.3125 159.836 82.6875 159.762 85.9883 159.641V159.629Z" fill="white" stroke="black" stroke-width="0.5625" stroke-linecap="round" stroke-linejoin="round"/>
<path d="M96.1406 106.551C97.4531 109.488 98.6406 112.789 99.5234 116.449C104.055 135.156 98.0039 151.633 94.4258 159.469C98.0039 159.266 101.578 159.066 105.156 158.871C105.504 158.504 105.996 157.918 106.434 157.113C108.195 153.891 107.273 150.469 106.949 147.941C106.492 144.402 107.309 141.32 108.937 135.156C110.918 127.664 112.574 128.238 113.641 122.211C114.188 119.113 115.223 112.762 111.699 108.77C110.918 107.887 110.129 107.375 108.863 106.648C105.809 104.898 101.121 102.582 94.5586 100.559C94.8906 101.328 95.2109 102.215 95.4883 103.219C95.8281 104.441 96.0312 105.566 96.1406 106.543V106.551Z" fill="white" stroke="black" stroke-width="0.5625" stroke-linecap="round" stroke-linejoin="round"/>
<path d="M41.2969 108.793C41.7227 108.516 42.1055 108.418 42.3672 108.387C44.0937 108.172 45.3516 109.984 45.4219 110.09" stroke="black" stroke-width="0.5625" stroke-linecap="round" stroke-linejoin="round"/>
<path d="M45.8711 105.836C46.0273 105.793 46.3125 105.719 46.6719 105.68C51.8984 105.149 57.4063 114.078 59.6836 120.906C60.293 122.727 61.1914 125.488 61.3125 129.164C61.6797 140.391 54.3359 148.512 52.2734 150.649" stroke="black" stroke-width="0.5625" stroke-linecap="round" stroke-linejoin="round"/>
<path d="M106.988 105.629C108.488 107.602 110.586 110.945 111.434 115.512C111.531 116.047 111.742 117.281 111.809 119.188C111.906 122.137 111.676 127.031 109.477 133.281" stroke="black" stroke-width="0.5625" stroke-linecap="round" stroke-linejoin="round"/>
<path d="M40.2149 113.434C37.9805 121.527 35.8711 127.969 34.4258 132.23C30.1211 144.852 27.5938 149.719 27.7266 157.664C27.8242 163.406 29.2656 168.043 30.3828 170.922C29.6641 172.16 28.3125 174.883 28.418 178.488C28.5156 181.953 29.9024 184.422 30.7735 185.922C32.0313 188.098 33.4961 189.582 34.5313 190.488C34.1758 190.762 33.6836 191.187 33.2031 191.801C32.8047 192.312 32.5508 192.641 32.461 193.113C32.2891 194.051 32.8789 194.871 33.0977 195.141C33 195.297 32.7227 195.801 32.7734 196.484C32.8203 197.051 33.082 197.449 33.2031 197.609C33.1133 197.832 32.7383 198.883 33.2344 199.992C33.4805 200.555 33.8555 200.906 34.0781 201.086C34.0274 201.164 33.5469 201.867 33.8164 202.73C34.125 203.711 35.1094 203.953 35.1445 203.961C37.3047 202.863 39.7031 201.762 42.3438 200.727C44.7383 199.789 47.0156 199.023 49.1484 198.395C49.2305 198.23 49.5078 197.613 49.3281 196.836C49.1719 196.137 48.7344 195.734 48.5859 195.605C48.6836 195.523 49.3516 194.93 49.3633 193.926C49.3789 192.898 48.6914 192.273 48.5938 192.199C48.7578 191.871 48.9375 191.383 48.9883 190.773C49.1094 189.32 48.375 188.238 48.1406 187.926C50.4961 183.703 50.5352 182.148 50.0156 181.578C49.8594 181.398 49.4258 181.07 48.9961 180.395C48.6367 179.824 48.4492 179.293 48.3516 178.918C48.75 177.641 49.125 176.129 49.3438 174.387C49.7344 171.344 49.5156 168.719 49.1992 166.789C49.8828 164.18 50.5742 161.578 51.2539 158.969C51.211 157.949 51.1563 156.922 51.1133 155.898C51.5039 154.145 51.8906 152.391 52.2813 150.637C54.0586 148.461 58.2539 142.699 58.3633 134.621C58.4414 129.336 56.7383 125.383 55.7031 123.035C52.7109 116.27 48.0977 112.129 45.4258 110.082C44.7461 110.18 43.4414 110.457 42.1367 111.395C41.1602 112.094 40.5586 112.887 40.2227 113.422L40.2149 113.434Z" fill="#EB1C24" stroke="black" stroke-width="0.5625" stroke-linecap="round" stroke-linejoin="round"/>
<path d="M30.3828 170.922C31.7109 172.773 34.1758 175.746 38.1445 178.16C41.7656 180.363 45.1484 181.203 47.2891 181.559" stroke="black" stroke-width="0.5625" stroke-linecap="round" stroke-linejoin="round"/>
<path d="M28.4688 176.789C29.2188 178.242 30.3008 179.797 31.8672 181.121C38.2969 186.566 47.3984 183.621 48.4492 183.262" stroke="black" stroke-width="0.5625" stroke-linecap="round" stroke-linejoin="round"/>
<path d="M51.1133 155.906C50.7617 154.961 50.2656 153.539 49.8086 151.766C48.8164 147.941 48.2695 143.594 48.8789 131.684C49.0195 128.922 49.2461 125.309 49.6211 121.047" stroke="black" stroke-width="0.5625" stroke-linecap="round" stroke-linejoin="round"/>
<path d="M49.1914 166.797C47.6172 163.551 45.832 159.117 44.6562 153.641C43.4531 148.078 43.2656 143.203 43.3789 139.543" stroke="black" stroke-width="0.5625" stroke-linecap="round" stroke-linejoin="round"/>
<path d="M33.0898 195.148C33.9453 194.336 35.3984 193.168 37.4609 192.336C39.9297 191.344 42.1133 191.309 43.3438 191.383" stroke="black" stroke-width="0.5625" stroke-linecap="round" stroke-linejoin="round"/>
<path d="M48.7734 195.734C46.3516 195.738 42.4141 196.121 38.25 198.289C36.5625 199.168 35.1836 200.164 34.0781 201.094" stroke="black" stroke-width="0.5625" stroke-linecap="round" stroke-linejoin="round"/>
<path d="M34.5234 190.488C36.7656 189.402 39.9883 188.211 43.9805 187.918C45.4961 187.805 46.8906 187.836 48.1289 187.949" stroke="black" stroke-width="0.5625" stroke-linecap="round" stroke-linejoin="round"/>
<path d="M107.469 153.273C108.891 154.578 111.113 156.559 113.984 158.871C115.23 159.867 115.844 160.371 116.219 160.625C121.191 164.066 130.297 164.203 135.141 159.363C137.078 157.43 137.859 155.172 137.961 154.871C138.809 152.328 138.539 150.094 138.336 149.008" stroke="black" stroke-width="0.5625" stroke-linecap="round" stroke-linejoin="round"/>
<path d="M113.648 112.398L123.367 136.055" stroke="black" stroke-width="0.5625" stroke-linecap="round" stroke-linejoin="round"/>
<path d="M48.5117 198.598C48.8555 199.16 49.2148 199.871 49.5 200.734C50.1602 202.738 50.0391 204.516 49.875 205.574C44.9609 205.039 40.0508 204.508 35.1367 203.977C39.5937 202.184 44.0547 200.391 48.5117 198.598Z" stroke="black" stroke-width="0.5625" stroke-linecap="round" stroke-linejoin="round"/>
<path d="M58.3711 168.695C56.5508 175.023 54.8711 182.75 54.0664 191.629C53.5039 197.832 53.4766 203.512 53.7227 208.512C54.1563 209.047 62.1016 218.316 73.207 216.484C78.8633 215.555 82.5586 212.203 84.0508 210.672C84.2617 209.324 84.4727 207.973 84.6914 206.613C84.6445 199.984 84.7031 193.16 84.9063 186.148C85.0586 180.941 85.2656 175.852 85.5469 170.871C76.4922 170.141 67.4336 169.422 58.3789 168.695H58.3711Z" fill="white" stroke="black" stroke-width="0.5625" stroke-linecap="round" stroke-linejoin="round"/>
<path d="M85.5391 170.871C85.0508 179.797 84.75 188.988 84.6836 198.426C84.6602 201.176 84.6602 203.906 84.6836 206.609" stroke="black" stroke-width="0.5625" stroke-linecap="round" stroke-linejoin="round"/>
<path d="M130.785 148.012C131.297 148.461 132.945 149.781 135.324 149.781C135.969 149.781 137.219 149.781 138.328 149C140.887 147.199 140.316 142.871 140.281 142.625C140.168 141.824 140.039 141.59 138.293 136.953C137.844 135.754 137.477 134.766 137.234 134.121" stroke="black" stroke-width="0.5625" stroke-linecap="round" stroke-linejoin="round"/>
<path d="M127.125 190.977C127.125 174.492 127.125 158 127.125 141.516H131.023C131.023 157.152 131.023 172.789 131.023 188.426" fill="white"/>
<path d="M127.125 190.977C127.125 174.492 127.125 158 127.125 141.516H131.023C131.023 157.152 131.023 172.789 131.023 188.426" stroke="black" stroke-width="0.5625" stroke-linecap="round" stroke-linejoin="round"/>
<path d="M131.023 116.008H127.125V125.496H131.023V116.008Z" fill="white" stroke="black" stroke-width="0.5625" stroke-linecap="round" stroke-linejoin="round"/>
<path d="M124.973 128.734C124.867 128.316 124.809 127.738 125.078 127.211C125.355 126.672 125.992 126.191 128.746 125.887C131.961 125.523 133.574 125.344 134.961 126.336C135.293 126.574 136.5 127.422 136.664 128.84C136.727 129.344 136.637 129.77 136.559 130.047C137.414 130.836 137.609 131.496 137.625 131.961C137.648 132.672 137.258 132.996 137.234 134.121C137.219 134.766 137.348 134.789 137.301 135.32C137.227 136.199 136.875 136.422 136.629 137.195C136.164 138.648 136.949 139.332 136.418 140.137C136.125 140.57 135.652 140.742 134.715 140.953C133.238 141.281 132.414 141.379 128.73 141.523C127.648 141.566 127.262 141.469 127.043 141.352C126.988 141.32 126.938 141.281 126.887 141.246C125.941 140.488 126.238 138.703 126.359 138.117" stroke="black" stroke-width="0.5625" stroke-linecap="round" stroke-linejoin="round"/>
<path d="M127.125 141.508C124.949 141.125 123.398 140.254 123.309 139.258C123.277 138.941 123.367 138.32 123.789 138.035C124.117 137.809 124.516 137.891 124.867 137.945C125.707 138.078 126.57 138.125 127.418 138.156C129.367 138.238 131.879 137.652 132.699 137.449" stroke="black" stroke-width="0.5625" stroke-linecap="round" stroke-linejoin="round"/>
<path d="M126.555 138.117C126.414 137.629 126.27 137.059 126.172 136.422C126.074 135.762 126.039 135.172 126.031 134.652C125.844 134.336 125.227 133.199 125.535 131.781C125.684 131.074 126.016 130.559 126.238 130.258C126.098 130.191 125.234 129.746 124.965 128.734C124.77 128.016 124.988 127.414 125.07 127.211" stroke="black" stroke-width="0.5625" stroke-linecap="round" stroke-linejoin="round"/>
<path d="M124.566 137.898C124.453 137.863 123.766 137.609 123.48 136.879C123.285 136.379 123.301 135.68 123.691 135.281C123.789 135.184 123.922 135.094 124.785 134.891C125.297 134.773 125.723 134.699 126.023 134.645C126.609 134.602 127.199 134.539 127.801 134.473C129.531 134.277 131.168 134.008 132.691 133.684" stroke="black" stroke-width="0.5625" stroke-linecap="round" stroke-linejoin="round"/>
<path d="M124.223 135.043C124.066 134.938 123.781 134.711 123.562 134.328C123.512 134.238 123.277 133.828 123.293 133.371C123.301 133.063 123.422 132.656 124.441 131.699C124.867 131.293 125.469 130.781 126.246 130.25C127.297 130.109 128.348 129.957 129.414 129.809C130.395 129.664 131.363 129.523 132.336 129.379" stroke="black" stroke-width="0.5625" stroke-linecap="round" stroke-linejoin="round"/>
<path d="M124.859 127.633C124.215 128.203 123.84 128.773 123.621 129.156C123.238 129.844 122.738 130.738 123.082 131.563C123.254 131.969 123.578 132.223 123.797 132.359" stroke="black" stroke-width="0.5625" stroke-linecap="round" stroke-linejoin="round"/>
<path d="M124.551 127.926C124.359 127.664 123.84 127.023 122.949 126.785C122.184 126.574 121.004 126.613 120.684 127.242C120.496 127.609 120.668 128.047 120.863 128.555C121.184 129.387 121.648 129.914 121.824 130.113C122.301 130.676 122.902 131.562 123.398 132.949" stroke="black" stroke-width="0.5625" stroke-linecap="round" stroke-linejoin="round"/>
<path d="M123.645 137.789C122.422 137.969 119.641 138.531 116.949 140.711C114.27 142.879 113.129 145.461 112.695 146.613" stroke="black" stroke-width="0.5625" stroke-linecap="round" stroke-linejoin="round"/>
<path d="M123.539 137.996C122.039 138.762 119.324 140.406 117.113 143.523C113.961 147.949 113.797 152.539 113.82 154.203" stroke="black" stroke-width="0.5625" stroke-linecap="round" stroke-linejoin="round"/>
<path d="M126.211 141.207C125.684 141.754 124.176 143.496 123.977 146.137C123.66 150.246 126.801 152.891 127.117 153.148" stroke="black" stroke-width="0.5625" stroke-linecap="round" stroke-linejoin="round"/>
<path d="M131.023 154.16C131.527 154.266 132.609 154.422 133.875 154.023C134.977 153.68 135.711 153.074 136.078 152.719" stroke="black" stroke-width="0.5625" stroke-linecap="round" stroke-linejoin="round"/>
<path d="M124.566 140.684C123.816 141.117 121.875 142.379 120.652 144.891C119.469 147.32 119.625 149.547 119.73 150.418" stroke="black" stroke-width="0.5625" stroke-linecap="round" stroke-linejoin="round"/>
<path d="M98.5352 89.7578C98.0625 89.832 97.6641 89.8477 97.3789 89.8477C96.6836 89.8477 96.0586 89.832 95.6094 89.4219C95.5039 89.3242 95.3242 89.1562 95.3086 88.9102C95.2813 88.5664 95.5742 88.3086 95.625 88.2656" stroke="black" stroke-width="0.5625" stroke-linecap="round" stroke-linejoin="round"/>
<path d="M80.0313 86.9219C79.9727 87.0742 79.7383 87.6055 79.2617 87.7188C78.9531 87.793 78.6523 87.6563 78.1406 87.2891C77.3789 86.7422 76.9883 86.4649 76.4414 85.7461C75.8242 84.9336 74.4688 83.1407 74.7148 80.7735C74.7969 79.9844 75.0313 79.3711 75.1953 79.0117" stroke="black" stroke-width="0.5625" stroke-linecap="round" stroke-linejoin="round"/>
<path d="M76.3633 78.2305C76.7383 78.1094 77.4297 77.9531 78.1406 78.2305C78.8086 78.4922 79.1719 79.0117 79.5742 79.6094C80.5039 80.9844 80.3711 81.8281 81.0898 82.1094C81.5117 82.2735 82.0039 82.1524 82.3125 81.9219C82.8516 81.5156 82.8281 80.7578 82.9219 79.9531C82.9648 79.6094 83.168 77.8476 83.9531 76.7148C85.1563 74.9765 87.3164 75.2813 87.8633 73.6016C87.9844 73.2344 87.9844 72.9141 87.9688 72.7031C85.2656 73.707 82.3789 74.9609 79.3945 76.5273C78.3359 77.082 77.3242 77.6523 76.3516 78.2227L76.3633 78.2305Z" fill="black" stroke="black" stroke-width="0.5625" stroke-linecap="round" stroke-linejoin="round"/>
<path d="M79.2891 84.793C79.4258 85.1445 79.1758 85.6406 78.8242 85.8711C78.7188 85.9414 78.5625 86.0508 78.3594 86.0312C77.7305 85.9765 77.3906 84.6953 77.3008 84.043C77.2188 83.4648 77.1602 83.0234 77.4688 82.707C77.7734 82.3906 78.293 82.3789 78.6445 82.5273C78.832 82.6015 79.125 82.7969 79.1016 82.9844C79.0781 83.1719 78.7813 83.164 78.6289 83.457C78.5234 83.6601 78.5313 83.914 78.6094 84.0937C78.7656 84.5078 79.1641 84.4492 79.2969 84.793H79.2891Z" fill="black"/>
<path d="M78.6992 80.7892C78.3594 80.0666 77.7383 79.6486 77.1836 79.7228C76.7031 79.7892 76.4102 80.2033 76.3125 80.3361C75.8086 81.0431 75.9609 81.9142 76.0273 82.3478C76.3359 84.1564 77.7656 85.3244 78.3164 85.7307" stroke="black" stroke-width="0.5625" stroke-linecap="round" stroke-linejoin="round"/>
<path d="M89.5039 78.9259C89.5039 78.9259 89.9336 78.4689 90.6992 78.2071C91.8008 77.84 92.8945 78.1407 93.5859 78.336C93.9297 78.4337 94.2148 78.5509 94.7773 78.7853C96.293 79.4142 96.8555 79.797 97.4258 79.5665C97.4922 79.5353 97.7109 79.4376 97.8594 79.211C98.0117 78.9805 98.0703 78.6485 97.9648 78.4181C97.7852 78.0118 97.125 77.9454 96.8242 77.9142C94.2383 77.6212 94.0781 76.879 92.6563 77.0899C90.7578 77.3751 89.4961 78.922 89.5039 78.9259Z" fill="black" stroke="black" stroke-width="0.5625" stroke-linecap="round" stroke-linejoin="round"/>
<path d="M126.691 95.6601L125.52 116.367H132.637L131.469 95.6601H130.605V79.0468C131.113 79.2265 131.789 79.3789 132.27 79.0468C133.418 78.2539 132.57 75.2226 132.098 73.4765C131.301 70.5351 130.238 66.2539 129.059 60.3711C127.77 66.4531 126.742 70.8047 125.879 74.1641C125.535 75.4922 124.801 78.289 125.902 79.0468C126.375 79.3711 127.051 79.2265 127.566 79.0468V95.6601H126.691Z" fill="black" stroke="black" stroke-width="0.5625" stroke-linecap="round" stroke-linejoin="round"/>
<path d="M127.559 79.0469H130.605" stroke="black" stroke-width="0.5625" stroke-linecap="round" stroke-linejoin="round"/>
<path d="M130.605 95.6601H127.559V79.0468C128.062 77.6093 128.559 76.168 129.059 74.7266C129.578 76.168 130.086 77.6093 130.605 79.0468V95.6601Z" fill="white" stroke="black" stroke-width="0.5625" stroke-linecap="round" stroke-linejoin="round"/>
<path d="M70.3633 83.3593C71.3867 82.2812 72.8242 80.8789 74.6836 79.4141C77.0156 77.5859 80.9609 74.9219 86.4531 73.168C90.4727 71.8789 99.0742 69.8828 100.387 72.6875C100.531 72.9883 100.559 73.2812 100.559 73.4883C100.957 73.2109 102.398 72.1406 102.434 70.5664C102.434 70.5664 102.449 69.8437 102.098 69.1758C100.844 66.7851 93.2266 66.9726 86.2109 69.1758C84.1367 69.8281 81.2266 70.9492 77.9024 72.9062C76.9258 74.2773 75.75 75.7695 74.3477 77.293C72.6367 79.1445 70.9649 80.6367 69.457 81.8242C69.7578 82.332 70.0586 82.8437 70.3633 83.3593Z" fill="#EB1C24" stroke="black" stroke-width="0.5625" stroke-linecap="round" stroke-linejoin="round"/>
<path d="M102.254 69.5313C102.734 69.4688 103.469 69.3047 104.203 68.8399C106.449 67.4297 106.629 64.5508 106.664 63.9258C106.687 63.5313 106.852 60.1563 104.926 58.8868C104.012 58.2813 102.93 58.3633 101.641 58.4532C100.313 58.543 99.3437 58.879 99.0898 58.961C97.6797 59.4258 95.3164 59.6446 91.1406 58.5352C88.9336 57.9258 86.0625 57.4532 82.7344 57.7266C80.1758 57.9337 78.4141 58.4884 76.2305 59.1876C71.625 60.6485 70.6484 61.9024 70.1992 62.6993C69.6523 63.6485 69.4727 64.6173 69.4141 65.293C68.2266 67.2501 67.1172 68.6915 66.3437 69.6212C64.6875 71.6212 63.8984 72.1016 63.3984 73.6915C62.8711 75.3438 63.0234 76.9922 63.0898 77.6993C63.1563 78.4493 63.2266 79.086 63.5703 79.8047C64.1484 80.9883 65.1016 81.5821 65.5742 81.836C65.2031 82.9922 65.3711 84.1915 66.0469 84.7618C66.9961 85.5743 69.1484 85.2735 70.3711 83.3751C70.0742 82.8634 69.7734 82.3555 69.4648 81.836C70.8672 80.7266 72.4141 79.3633 73.9883 77.6993C75.5781 76.0157 76.8672 74.3907 77.9102 72.922C81.3906 70.9845 84.4648 69.793 86.707 69.043C86.707 69.043 92.8047 67.0157 99.0586 67.6485C100.922 67.836 101.641 68.4883 101.969 68.9766C102.129 69.1993 102.211 69.4102 102.254 69.5391V69.5313Z" fill="#EB1C24" stroke="black" stroke-width="0.5625" stroke-linecap="round" stroke-linejoin="round"/>
<path d="M69.4649 81.8282C67.6211 81.9258 65.9102 80.9688 65.1055 79.3477C64.0117 77.1368 65.0938 74.6914 66.043 73.5039C67.1641 72.1172 68.2656 72.2383 69.7344 71.4571C74.5742 68.8868 73.5508 61.7383 76.9727 60.6407C78.9688 60.004 80.0469 62.1953 84.1406 63.8594C88.0039 65.4258 91.5977 65.336 93.9961 65.0313" stroke="black" stroke-width="0.5625" stroke-linecap="round" stroke-linejoin="round"/>
<path d="M83.7305 60.3516C84.2617 60.1641 85.1563 59.8906 86.2813 59.7656C89.3789 59.4141 90.8789 60.5156 93.6992 60.336C94.6133 60.2735 96 60.0586 97.6797 59.2617" stroke="black" stroke-width="0.5625" stroke-linecap="round" stroke-linejoin="round"/>
<path d="M93.9375 58.6642C93.7734 58.4532 91.1719 55.2345 87.8477 55.7462C87.4414 55.8048 86.2734 55.9923 85.2461 56.9688C83.8789 58.2657 83.7461 59.9962 83.7227 60.3517C83.5586 59.254 83.3906 58.1603 83.2266 57.0665C82.7773 58.422 82.3359 59.7813 81.8867 61.129C81.3359 61.9337 80.5352 62.9142 79.4023 63.8517C77.0117 65.8243 74.5508 66.3868 73.3125 66.5743C73.418 65.5157 73.5234 64.4688 73.6289 63.4103C72.5703 65.0392 71.5195 66.6563 70.4609 68.2853C68.9609 68.4415 66.2188 68.5118 63.3516 67.1368C62.1133 66.547 61.1484 65.8243 60.4258 65.1798C60.8984 64.1134 62.332 61.2501 65.4883 59.1642C68.1758 57.3946 70.7188 57.1095 71.8438 57.0587C72.3906 57.297 73.1328 57.5509 74.0312 57.6876C74.9492 57.8282 75.7578 57.8165 76.3789 57.754C75.5547 57.2149 74.7227 56.6759 73.8906 56.1368C75.7109 56.504 77.1523 56.2852 78.0234 56.0665C79.6484 55.6641 79.7852 55.1446 81.5391 54.5157C83.9023 53.6681 86.7812 53.8712 88.1758 54.1407C88.9336 54.2892 89.9336 54.547 91.0586 55.0313" fill="white"/>
<path d="M93.9375 58.6642C93.7734 58.4532 91.1719 55.2345 87.8477 55.7462C87.4414 55.8048 86.2734 55.9923 85.2461 56.9688C83.8789 58.2657 83.7461 59.9962 83.7227 60.3517C83.5586 59.254 83.3906 58.1603 83.2266 57.0665C82.7773 58.422 82.3359 59.7813 81.8867 61.129C81.3359 61.9337 80.5352 62.9142 79.4023 63.8517C77.0117 65.8243 74.5508 66.3868 73.3125 66.5743C73.418 65.5157 73.5234 64.4688 73.6289 63.4103C72.5703 65.0392 71.5195 66.6563 70.4609 68.2853C68.9609 68.4415 66.2188 68.5118 63.3516 67.1368C62.1133 66.547 61.1484 65.8243 60.4258 65.1798C60.8984 64.1134 62.332 61.2501 65.4883 59.1642C68.1758 57.3946 70.7188 57.1095 71.8438 57.0587C72.3906 57.297 73.1328 57.5509 74.0312 57.6876C74.9492 57.8282 75.7578 57.8165 76.3789 57.754C75.5547 57.2149 74.7227 56.6759 73.8906 56.1368C75.7109 56.504 77.1523 56.2852 78.0234 56.0665C79.6484 55.6641 79.7852 55.1446 81.5391 54.5157C83.9023 53.6681 86.7812 53.8712 88.1758 54.1407C88.9336 54.2892 89.9336 54.547 91.0586 55.0313" stroke="black" stroke-width="0.5625" stroke-linecap="round" stroke-linejoin="round"/>
<path d="M60.6289 65.3516C61.1641 64.7227 61.9805 63.8985 63.1367 63.2305C66.7656 61.1446 69.3672 63.1719 73.8008 61.1446C74.5742 60.793 75.7734 60.2461 77.0391 59.0977C78.8242 57.4844 79.1328 56.1367 80.8281 55.0157C81.9766 54.2617 83.1211 54.0195 83.9023 53.9453" stroke="black" stroke-width="0.5625" stroke-linecap="round" stroke-linejoin="round"/>
<path d="M94.1016 59.9611C94.8516 60.1017 95.8711 58.3321 96.3164 56.8165C97.125 54.0587 96.2109 51.4767 95.6484 49.8712C95.1992 48.59 94.2812 46.504 92.4297 44.3907C92.1367 44.7579 91.8516 45.1173 91.5586 45.4845C90.9375 44.547 89.5586 42.7462 87.2031 41.6134C86.6992 41.3751 83.2188 39.754 79.3594 41.2462C78.2461 41.6759 77.4844 42.2149 76.9414 42.5978C74.2734 44.4962 74.2734 46.0157 71.8516 47.7657C70.8594 48.4845 69.4414 49.4767 67.6797 49.2423C67.3281 49.1993 65.2266 48.9259 64.7383 47.2696C64.4023 46.1212 65.0391 45.004 65.1992 44.7579C64.9961 45.0431 64.7109 45.5157 64.543 46.1759C64.5 46.3634 64.1484 47.797 64.8008 49.0782C65.4883 50.4493 66.9063 50.8634 67.1836 50.9376C70.6484 51.9415 74.5273 47.84 78.7734 46.8595C79.0859 46.7814 79.6562 46.672 80.3711 46.7892C81.8789 47.0509 82.9141 48.1915 83.4531 48.9142C84.5039 48.3517 85.5508 47.797 86.6016 47.2345C86.0234 48.1564 85.4531 49.086 84.8789 50.0079C86.1289 50.6446 87.3906 51.2814 88.6406 51.922C88.3633 52.1095 88.0859 52.3009 87.8086 52.4884C91.3047 54.336 92.5859 56.3595 93.1055 57.8986C93.3984 58.7736 93.5625 59.8399 94.1094 59.9454L94.1016 59.9611Z" fill="white" stroke="black" stroke-width="0.5625" stroke-linecap="round" stroke-linejoin="round"/>
<path d="M94.3359 59.9453C94.5898 58.7227 94.9492 56.2696 94.2148 53.3672C94.0781 52.8203 93.4141 50.3242 91.4492 47.8867C88.8242 44.6289 83.5508 41.1133 78.2266 42.8985C77.1914 43.2422 75.0234 44.1719 72.9766 46.8203" stroke="black" stroke-width="0.5625" stroke-linecap="round" stroke-linejoin="round"/>
<path d="M72.8242 92.9531C72.8633 94.0625 72.8906 95.1797 72.9297 96.2891" stroke="black" stroke-width="0.5625" stroke-linecap="round" stroke-linejoin="round"/>
<path d="M46.207 105.793C45.9453 107.227 45.6836 108.656 45.4219 110.09L53.8281 109.961C53.3555 112.332 52.875 114.695 52.4023 117.066C54.5156 117.523 56.6328 117.98 58.7461 118.445C57.9531 120.5 57.1563 122.547 56.3633 124.602L61.2383 128.051C60.2344 129.336 59.2188 130.617 58.2148 131.898C59.0234 133.176 59.8359 134.457 60.6523 135.734C59.8047 136.43 58.9648 137.129 58.1172 137.824" stroke="black" stroke-width="0.5625" stroke-linecap="round" stroke-linejoin="round"/>
<path d="M108.652 108.004C110.07 108.852 111.488 109.691 112.906 110.539C112.371 112.004 111.848 113.457 111.316 114.922C112.164 116.699 113.016 118.469 113.863 120.246C113.152 121.453 112.434 122.652 111.719 123.859" stroke="black" stroke-width="0.5625" stroke-linecap="round" stroke-linejoin="round"/>
<path d="M62.3789 98.6367C62.8516 99.3633 63.5234 100.406 64.3125 101.684C69.7031 110.359 73.043 117.477 73.6875 118.895C77.1367 126.5 80.6836 141.02 81.8555 159.711" stroke="black" stroke-width="0.5625" stroke-linecap="round" stroke-linejoin="round"/>
<path d="M97.3867 101.496C99.8789 106.398 102.879 113.848 103.891 123.297C105.711 140.293 100.02 153.516 97.0938 159.273" stroke="black" stroke-width="0.5625" stroke-linecap="round" stroke-linejoin="round"/>
<path d="M81.4258 170.988C80.8945 184.773 80.3633 198.559 79.8281 212.336" stroke="black" stroke-width="0.5625" stroke-linecap="round" stroke-linejoin="round"/>
<path d="M96.0977 170.316C97.1758 175.062 98.168 180.109 99.0078 185.441C100.297 193.609 101.047 201.281 101.445 208.355" stroke="black" stroke-width="0.5625" stroke-linecap="round" stroke-linejoin="round"/>
<path d="M62.3789 98.6367C63.9609 98.5117 65.543 98.3828 67.125 98.2539C66.4336 99.793 65.7383 101.328 65.0469 102.867C67.1914 103.488 69.3438 104.113 71.4883 104.742C70.9414 106.766 70.3867 108.801 69.8398 110.824C71.9023 111.547 73.9648 112.273 76.0273 112.992L73.8516 119.277L80.1758 122.84C79.0352 124.406 77.8867 125.969 76.7461 127.535C78.8008 128.863 80.8594 130.191 82.9141 131.516C81.5117 132.867 80.1133 134.227 78.7109 135.574C80.6719 137 82.6367 138.434 84.5938 139.859C83.168 141.461 81.7344 143.066 80.3086 144.672C82.1016 145.953 83.8867 147.238 85.6797 148.52C84.2344 150.059 82.7774 151.586 81.3281 153.125C82.8906 154.121 84.4492 155.113 86.0117 156.109C84.7188 157.199 83.4219 158.285 82.1328 159.371" stroke="black" stroke-width="0.5625" stroke-linecap="round" stroke-linejoin="round"/>
<path d="M81.4258 170.988C82.7266 172.363 84.0234 173.734 85.3203 175.109C83.9531 176.203 82.582 177.297 81.2188 178.391C82.4766 179.871 83.7461 181.348 85.0039 182.824C83.6016 184.242 82.1914 185.66 80.7891 187.07C82.1172 188.652 83.4453 190.234 84.7656 191.824C83.3906 193.102 82.0195 194.375 80.6484 195.648L84.6758 200.113C83.168 201.648 81.6602 203.18 80.1523 204.719C81.4063 206.016 82.6641 207.32 83.918 208.617" stroke="black" stroke-width="0.5625" stroke-linecap="round" stroke-linejoin="round"/>
<path d="M94.4492 100.461C96.0156 102.066 97.582 103.676 99.1406 105.281C98.2656 105.98 97.3789 106.676 96.5039 107.375L101.379 111.289C100.547 112.203 99.7188 113.121 98.8867 114.035C100.305 115.43 101.715 116.824 103.133 118.227C102.277 119.422 101.414 120.613 100.559 121.805C101.754 123.207 102.937 124.609 104.129 126.02C103.133 127.152 102.141 128.293 101.145 129.426C102.137 130.969 103.125 132.516 104.109 134.059C102.988 135.078 101.871 136.094 100.754 137.113C101.52 138.77 102.285 140.426 103.051 142.086C101.902 142.746 100.754 143.398 99.6094 144.059C100.164 145.723 100.719 147.379 101.273 149.047C100.059 149.801 98.8437 150.559 97.6289 151.309C97.957 152.898 98.2891 154.488 98.6172 156.078C97.2656 157.102 95.9258 158.129 94.5742 159.148" stroke="black" stroke-width="0.5625" stroke-linecap="round" stroke-linejoin="round"/>
<path d="M96.2773 170.277C95.543 171.184 94.8164 172.102 94.0781 173.008C95.1289 173.996 96.1797 174.996 97.2305 175.984C96.6094 177.469 95.9766 178.961 95.3555 180.449C96.4414 181.316 97.5313 182.18 98.6172 183.051C97.8164 184.379 97.0117 185.703 96.2031 187.039C97.4102 188.391 98.6172 189.746 99.8164 191.098C98.9531 192.426 98.0938 193.754 97.2305 195.078C98.4141 196.617 99.6094 198.156 100.793 199.691C99.5938 201.051 98.3906 202.406 97.1992 203.766C98.6094 205.176 100.012 206.578 101.422 207.988" stroke="black" stroke-width="0.5625" stroke-linecap="round" stroke-linejoin="round"/>
<path d="M81.1055 92.4492C80.8945 93.4688 80.7617 95.0078 81.6016 96.207C82.3359 97.25 83.2188 97.1992 86.4883 98.2617C88.4531 98.8984 90.5469 99.7031 93.2695 100.297C93.8984 100.43 95.0781 100.672 96.1953 100.102C96.7578 99.8164 97.0938 99.4258 97.1836 99.3203C98.0703 98.2695 97.9883 96.8594 97.9649 96.1992C97.9141 94.7383 98.0117 92.6992 98.5352 89.75C100.922 89.6289 101.324 88.9414 101.422 88.6719C101.566 88.2735 101.34 87.9727 100.574 86.4336C99.4649 84.2149 99.2266 83.4062 99.1406 83.0898C98.8125 81.8906 98.6328 81.2383 98.9336 80.5391C99.3516 79.5586 100.23 79.6563 100.637 78.6289C100.867 78.0274 100.695 77.6836 100.582 76.3906C100.523 75.711 100.477 74.7188 100.566 73.4883" stroke="black" stroke-width="0.5625" stroke-linecap="round" stroke-linejoin="round"/>
<path d="M57.5234 159.523C57.4063 159.828 57.2617 160.297 57.2383 160.871C57.2109 161.863 57.5469 162.605 57.7344 162.957C57.082 163.859 56.8789 164.898 57.2773 165.664C57.3672 165.828 57.5117 166.047 57.7734 166.25C57.7344 166.309 57.2695 167.051 57.5938 167.855C57.8086 168.387 58.2461 168.629 58.3711 168.695C66.5234 169.852 73.5391 170.398 79.0273 170.668C89.8711 171.199 95.2266 170.668 100.215 169.574C102.227 169.129 103.859 168.664 104.961 168.328C105.031 168.289 105.652 167.945 105.766 167.195C105.855 166.602 105.562 166.168 105.504 166.07C105.676 165.844 105.863 165.531 105.984 165.141C106.379 163.852 105.766 162.695 105.609 162.426C105.75 162.172 105.996 161.668 106.004 161C106.027 159.824 105.316 159.035 105.156 158.863C98.8711 159.223 92.3984 159.484 85.7539 159.629C75.9844 159.836 66.5547 159.785 57.5156 159.516L57.5234 159.523Z" fill="black" stroke="black" stroke-width="0.5625" stroke-linecap="round" stroke-linejoin="round"/>
<path d="M56.6094 162.801C61.1836 163.387 66.0391 163.828 71.1523 164.051C84.4961 164.652 96.4805 163.691 106.727 162.109" stroke="white" stroke-width="0.5625" stroke-linecap="round" stroke-linejoin="round"/>
<path d="M56.8711 166.258C61.6953 166.684 67.4766 166.812 73.957 166.176C78.4961 165.727 82.5977 164.984 86.1836 164.129" stroke="white" stroke-width="0.5625" stroke-linecap="round" stroke-linejoin="round"/>
<path d="M106.516 165.934C100.777 166.625 94.3945 167.121 87.4648 167.234C80.5117 167.344 74.1016 167.051 68.3242 166.535" stroke="white" stroke-width="0.5625" stroke-linecap="round" stroke-linejoin="round"/>
<path d="M90.1484 171.379C93.2539 171.379 95.7656 168.465 95.7656 164.871C95.7656 161.273 93.2539 158.359 90.1484 158.359C87.0469 158.359 84.5312 161.273 84.5312 164.871C84.5312 168.465 87.0469 171.379 90.1484 171.379Z" fill="white" stroke="black" stroke-width="0.5625" stroke-linecap="round" stroke-linejoin="round"/>
<path d="M91.6367 171.379C94.7383 171.379 97.2539 168.465 97.2539 164.871C97.2539 161.273 94.7383 158.359 91.6367 158.359C88.5313 158.359 86.0156 161.273 86.0156 164.871C86.0156 168.465 88.5313 171.379 91.6367 171.379Z" fill="white" stroke="black" stroke-width="0.5625" stroke-linecap="round" stroke-linejoin="round"/>
<path d="M129.051 57.5664C129.051 64.7383 129.051 71.8984 129.059 79.0703" stroke="white" stroke-width="0.5625" stroke-linecap="round" stroke-linejoin="round"/>
<path d="M120.855 86.1719C119.895 85.1211 118.418 85.7461 118.418 85.7461C118.828 85.3008 119.109 84.9492 119.055 84.2305C119.055 84.2071 119.055 84.1758 119.055 84.1562C119.055 83.0078 118.125 82.0703 116.969 82.0703C115.816 82.0703 114.887 83 114.887 84.1562C114.887 84.2969 114.898 84.4414 114.93 84.5742C114.977 85.0781 115.223 85.3789 115.566 85.7461C115.566 85.7461 114.09 85.1211 113.129 86.1719C112.172 87.2227 112.648 88.4688 112.949 88.8789C113.25 89.293 113.707 89.9766 114.773 89.8984C115.719 89.832 115.859 89.668 116.512 89.1484C116.438 90.5742 115.566 91.5586 115.566 91.5586H118.418C117.891 91.0117 117.426 89.7422 117.488 89.1641C118.125 89.6758 118.266 89.832 119.203 89.8984C120.277 89.9844 120.727 89.293 121.027 88.8789C121.328 88.4688 121.809 87.2227 120.848 86.1719H120.855Z" fill="#292929" stroke="black" stroke-width="0.5625" stroke-linecap="round" stroke-linejoin="round"/>
<path d="M94.8594 164.039C94.1094 163.07 92.9531 163.641 92.9531 163.641C93.2773 163.234 93.4961 162.906 93.4492 162.238C93.4492 162.215 93.4492 162.191 93.4492 162.172C93.4492 161.105 92.7227 160.242 91.8242 160.242C90.9219 160.242 90.1953 161.105 90.1953 162.172C90.1953 162.305 90.2109 162.434 90.2266 162.559C90.2617 163.023 90.457 163.301 90.7187 163.641C90.7187 163.641 89.5664 163.063 88.8164 164.039C88.0664 165.004 88.4414 166.16 88.6719 166.535C88.9141 166.91 89.2656 167.547 90.0977 167.473C90.8398 167.406 90.9453 167.254 91.4531 166.781C91.3945 168.102 90.7187 169.004 90.7187 169.004H92.9531C92.543 168.492 92.1836 167.328 92.2266 166.797C92.7227 167.27 92.8359 167.414 93.5703 167.48C94.4023 167.555 94.7617 166.918 94.9961 166.543C95.2344 166.168 95.6094 165.012 94.8516 164.047L94.8594 164.039Z" fill="#292929" stroke="black" stroke-width="0.5625" stroke-linecap="round" stroke-linejoin="round"/>
<path d="M95.4375 83.961C94.3047 83.3516 93.1719 82.7461 92.0312 82.1367C92.6406 82.1367 93.375 82.0859 94.1914 81.9258C94.875 81.793 95.4688 81.6133 95.9609 81.4336" stroke="black" stroke-width="0.5625" stroke-linecap="round" stroke-linejoin="round"/>
<path d="M95.0117 81.7344C95.0547 81.8516 95.1914 82.2109 95.0625 82.6484C94.9727 82.9531 94.8008 83.1563 94.7109 83.2461" stroke="black" stroke-width="0.5625" stroke-linecap="round" stroke-linejoin="round"/>
<mask id="mask0_2314_2679" style="mask-type:luminance" maskUnits="userSpaceOnUse" x="11" y="10" width="148" height="79">
<path d="M11 10H159V89H11V10Z" fill="white"/>
</mask>
<g mask="url(#mask0_2314_2679)">
<mask id="mask1_2314_2679" style="mask-type:luminance" maskUnits="userSpaceOnUse" x="11" y="10" width="148" height="79">
<path d="M158.055 88.4766C158.055 62.5781 158.063 36.6719 158.07 10.7734C109.215 10.7734 60.3516 10.7734 11.4961 10.7812C11.4766 36.2617 11.4531 61.7383 11.4297 87.2148C13.9961 75.7773 19.1719 58.9102 29.0391 49.9023C36.5938 43.0156 40.3633 39.5664 43.3203 38.1875C44.6914 37.543 49.0781 35.6445 52.7109 31.2109C53.3867 30.3945 53.8711 29.6758 54.1797 29.1953C54.4961 29.6133 55.7109 31.168 57.3828 31.1992C59.5586 31.2344 61.9883 28.6836 62.1094 24.8438C62.3633 25.4141 64.5 29.9609 69.3594 30.9883C71.6992 31.4844 73.6641 30.957 74.6758 30.5977C75.3359 30.0508 76.2148 29.2031 77.0156 27.9883C77.8047 26.7969 78.2344 25.6758 78.4805 24.8672H91.0273C91.1016 25.332 91.7109 28.7617 94.8281 30.4688C97.8828 32.1406 100.98 30.8672 101.934 30.4844C105.227 29.1562 106.621 26.4219 106.926 25.7734C107.672 29.3164 110.145 31.5039 112.32 31.332C112.672 31.3008 113.805 31.1523 114.984 29.832L118.738 32.9609C120.211 33.8281 122.273 35.1133 124.648 36.7773C127.441 38.7266 136.695 45.2969 143.961 54.7383C153.613 67.2812 156.848 81.0859 158.047 88.4609L158.055 88.4766Z" fill="white"/>
</mask>
<g mask="url(#mask1_2314_2679)">
<path d="M11.4297 10.7734V88.4766H158.07V10.7734H11.4297Z" fill="url(#paint0_linear_2314_2679)"/>
</g>
</g>
<path d="M158.437 228.566H10.9648C10.9648 183.238 10.9648 137.906 10.9648 92.5782C10.9648 65.1875 10.9648 37.8047 10.9648 10.4141H158.437C158.437 37.7617 158.437 65.1055 158.437 92.4492C158.437 137.824 158.437 183.191 158.437 228.566Z" stroke="#0E0E0E" stroke-width="0.75" stroke-linecap="round" stroke-linejoin="round"/>
<path d="M84.6211 32.8477C84.5703 32.2266 84.3164 30.043 82.5078 28.1914C80.8867 26.5234 78.9844 26.1289 78.3281 26.0156C78.3828 25.3633 78.4336 24.7109 78.4883 24.0586C79.3438 23.6602 81.0586 22.7148 82.4844 20.8008C83.9336 18.8594 84.3437 16.9258 84.4805 15.9883C84.8164 17.1563 85.5586 19.1602 87.2539 21.1094C88.5586 22.6094 89.9492 23.5234 90.9062 24.0586C90.9609 24.7109 91.0117 25.3633 91.0664 26.0156C90.6016 26.0586 87.6094 26.4062 85.8086 29.0234C84.75 30.5664 84.6211 32.1406 84.6094 32.8477H84.6211Z" fill="white"/>
<path d="M53.4141 22.4063C54.2461 22.168 55.6211 21.9063 57.1719 22.2813C58.5313 22.6016 59.4453 23.2618 59.9609 23.6524C64.5234 27.0743 65.1992 29.7266 68.332 30.9259C68.7383 31.086 71.6719 32.0508 74.625 30.6719C76.7109 29.6993 78.1953 27.4766 78.4258 25.0704C78.7578 21.6212 76.3594 18.2071 73.5742 17.586C73.2539 17.5118 71.4961 17.1212 70.0664 18.1915C69.8867 18.3282 68.7734 19.1837 68.6172 20.6915C68.5938 20.9142 68.4141 22.8595 69.8984 23.8009C70.7344 24.3282 71.7891 24.3594 72.6289 23.9688C73.8242 23.4219 74.543 22.047 74.3555 20.5782C74.6484 20.8985 75.0508 21.4024 75.375 22.0938C75.5313 22.4219 76.5508 24.6798 75.5781 26.8477C74.3906 29.4884 71.1602 29.9532 70.7266 30.0118C67.8359 30.4259 64.8359 28.9103 62.8711 26.1876" stroke="#0E0E0E" stroke-width="0.75" stroke-linecap="round" stroke-linejoin="round"/>
<path d="M78.4883 23.9687C79.0586 23.6914 79.9492 23.1875 80.8594 22.3633C83.7617 19.7148 84.293 16.039 84.5312 14.4062C84.668 13.4844 84.7891 12.1094 84.6289 10.4062" stroke="#0E0E0E" stroke-width="0.75" stroke-linecap="round" stroke-linejoin="round"/>
<path d="M78.3281 25.9258C79.043 26.0508 79.8164 26.2774 80.5781 26.668C84.0391 28.4297 84.5469 32.1211 84.6211 32.7578" stroke="#0E0E0E" stroke-width="0.75" stroke-linecap="round" stroke-linejoin="round"/>
<path d="M115.996 22.4063C115.164 22.168 113.789 21.9063 112.238 22.2813C110.879 22.6016 109.965 23.2618 109.449 23.6524C104.887 27.0743 104.211 29.7266 101.078 30.9259C100.672 31.086 97.7383 32.0508 94.7852 30.6719C92.6992 29.6993 91.2149 27.4766 90.9844 25.0704C90.6524 21.6212 93.0508 18.2071 95.8359 17.586C96.1563 17.5118 97.9141 17.1212 99.3438 18.1915C99.5234 18.3282 100.637 19.1837 100.793 20.6915C100.816 20.9142 100.996 22.8595 99.5117 23.8009C98.6758 24.3282 97.6211 24.3594 96.7813 23.9688C95.5859 23.4219 94.8672 22.047 95.0547 20.5782C94.7617 20.8985 94.3594 21.4024 94.0352 22.0938C93.8789 22.4219 92.8594 24.6798 93.832 26.8477C95.0156 29.4884 98.25 29.9532 98.6836 30.0118C101.574 30.4259 104.574 28.9103 106.539 26.1876" stroke="#0E0E0E" stroke-width="0.75" stroke-linecap="round" stroke-linejoin="round"/>
<path d="M91.0742 25.9258C90.3594 26.0508 89.5859 26.2774 88.8242 26.668C85.3633 28.4297 84.8555 32.1211 84.7812 32.7578" stroke="#0E0E0E" stroke-width="0.75" stroke-linecap="round" stroke-linejoin="round"/>
<path d="M115.281 29.2617C115.172 29.5156 114.578 30.8281 113.191 31.2656C111.719 31.7305 110.43 30.875 109.891 30.5156C107.617 29.0078 107.391 26.1367 107.371 25.6719" stroke="#0E0E0E" stroke-width="0.75" stroke-linecap="round" stroke-linejoin="round"/>
<path d="M123.262 36.172C122.617 35.8009 121.711 35.2462 120.691 34.504C117.742 32.3594 115.441 30.6876 114.84 27.9571C114.293 25.4767 115.41 23.3829 115.605 23.0313C117.441 19.7149 121.289 19.168 122.086 19.0782C125.664 18.672 129.293 20.5626 131.566 23.8633" stroke="#0E0E0E" stroke-width="0.75" stroke-linecap="round" stroke-linejoin="round"/>
<path d="M131.063 41.3242C131.102 33.6055 129.211 27.5469 126.219 25.8711C124.68 25.0156 123.121 24.9961 123.121 24.9961C122.602 24.9961 119.984 25.0312 118.328 27.1914C116.852 29.1211 117.219 31.3242 117.285 31.6992" stroke="#0E0E0E" stroke-width="0.75" stroke-linecap="round" stroke-linejoin="round"/>
<path d="M152.199 37.4219C152.586 37.2266 153.832 36.6485 155.176 36.9961C157.566 37.6016 157.836 40.4883 157.852 40.6993C157.996 42.5391 156.871 44.6758 154.727 45.4415C153.074 46.0235 151.484 45.5587 150.637 45.3126C147.891 44.5118 146.387 42.6407 145.637 41.6993C143.234 38.6368 144.406 37.1524 141.945 34.9766C141.277 34.3868 139.926 33.1836 137.859 32.8711C135.703 32.5313 134.82 33.461 132.855 32.9141C130.926 32.3751 129.93 30.9571 129.676 30.5587C129.555 30.379 128.152 28.1211 129.473 25.8516C129.742 25.379 130.547 24.004 132.352 23.6094C133.996 23.254 135.801 23.8555 136.793 25.0313C137.641 26.0391 137.887 27.4532 137.227 28.5782C137.086 28.8282 136.637 29.5938 135.613 29.8985C134.762 30.1563 133.672 30.043 132.922 29.4414C132.262 28.9102 132.141 28.2266 132.121 28.0235" stroke="#0E0E0E" stroke-width="0.75" stroke-linecap="round" stroke-linejoin="round"/>
<path d="M143.488 37.0703C143.176 33.6485 141.426 30.836 138.871 29.9219C138.285 29.711 137.371 29.5039 136.156 29.6524" stroke="#0E0E0E" stroke-width="0.75" stroke-linecap="round" stroke-linejoin="round"/>
<path d="M146.086 42.3789C145.621 42.2617 143.684 41.8086 142.035 42.8907C140.047 44.1953 139.254 47.2188 140.477 50.0821" stroke="#0E0E0E" stroke-width="0.75" stroke-linecap="round" stroke-linejoin="round"/>
<path d="M147.441 52.6838C147.137 52.672 146.496 52.6759 145.824 53.0314C144.727 53.6095 144.367 54.6642 144.301 54.9064" stroke="#0E0E0E" stroke-width="0.75" stroke-linecap="round" stroke-linejoin="round"/>
<path d="M158.43 91.4961C158.414 91.3906 158.398 91.2031 158.371 90.9883C157.785 85.8515 154.477 61.8633 134.754 44.3672C132.301 42.1914 128.496 39.1406 123.262 36.1719" stroke="#0E0E0E" stroke-width="0.75" stroke-linecap="round" stroke-linejoin="round"/>
<path d="M84.6211 32.8477C84.5703 32.2266 84.3164 30.043 82.5078 28.1914C80.8867 26.5235 78.9844 26.1289 78.3281 26.0156C78.3828 25.3633 78.4336 24.711 78.4883 24.0586C79.3438 23.6602 81.0586 22.7149 82.4844 20.8008C83.9336 18.8594 84.3438 16.9258 84.4805 15.9883C84.8164 17.1563 85.5586 19.1602 87.2539 21.1094C88.5586 22.6094 89.9492 23.5235 90.9063 24.0586C90.9609 24.711 91.0117 25.3633 91.0664 26.0156C90.6016 26.0586 87.6094 26.4063 85.8086 29.0235C84.75 30.5664 84.6211 32.1406 84.6094 32.8477H84.6211Z" fill="black" stroke="black" stroke-width="0.5625" stroke-linecap="round" stroke-linejoin="round"/>
<path d="M115.996 22.4063C115.164 22.168 113.789 21.9063 112.238 22.2813C110.879 22.6016 109.965 23.2618 109.449 23.6524C104.887 27.0743 104.211 29.7266 101.078 30.9259C100.672 31.086 97.7383 32.0508 94.7852 30.6719C92.6992 29.6993 91.2149 27.4766 90.9844 25.0704C90.6524 21.6212 93.0508 18.2071 95.8359 17.586C96.1563 17.5118 97.9141 17.1212 99.3438 18.1915C99.5234 18.3282 100.637 19.1837 100.793 20.6915C100.816 20.9142 100.996 22.8595 99.5117 23.8009C98.6758 24.3282 97.6211 24.3594 96.7813 23.9688C95.5859 23.4219 94.8672 22.047 95.0547 20.5782C94.7617 20.8985 94.3594 21.4024 94.0352 22.0938C93.8789 22.4219 92.8594 24.6798 93.832 26.8477C95.0156 29.4884 98.25 29.9532 98.6836 30.0118C101.574 30.4259 104.574 28.9103 106.539 26.1876" stroke="#0E0E0E" stroke-width="0.75" stroke-linecap="round" stroke-linejoin="round"/>
<path d="M90.9141 23.9687C89.8125 23.4219 89.0391 22.8125 88.5469 22.3633C85.1992 19.3164 84.8789 14.7969 84.7578 13.1289C84.6758 11.9883 84.7188 11.0469 84.7734 10.4062" stroke="#0E0E0E" stroke-width="0.75" stroke-linecap="round" stroke-linejoin="round"/>
<path d="M91.0742 25.9258C90.3594 26.0508 89.5859 26.2774 88.8242 26.668C85.3633 28.4297 84.8555 32.1211 84.7812 32.7578" stroke="#0E0E0E" stroke-width="0.75" stroke-linecap="round" stroke-linejoin="round"/>
<path d="M115.281 29.2617C115.172 29.5156 114.578 30.8281 113.191 31.2656C111.719 31.7305 110.43 30.875 109.891 30.5156C107.617 29.0078 107.391 26.1367 107.371 25.6719" stroke="#0E0E0E" stroke-width="0.75" stroke-linecap="round" stroke-linejoin="round"/>
<path d="M123.262 36.172C122.617 35.8009 121.711 35.2462 120.691 34.504C117.742 32.3594 115.441 30.6876 114.84 27.9571C114.293 25.4767 115.41 23.3829 115.605 23.0313C117.441 19.7149 121.289 19.168 122.086 19.0782C125.664 18.672 129.293 20.5626 131.566 23.8633" stroke="#0E0E0E" stroke-width="0.75" stroke-linecap="round" stroke-linejoin="round"/>
<path d="M131.063 41.3242C131.102 33.6055 129.211 27.5469 126.219 25.8711C124.68 25.0156 123.121 24.9961 123.121 24.9961C122.602 24.9961 119.984 25.0312 118.328 27.1914C116.852 29.1211 117.219 31.3242 117.285 31.6992" stroke="#0E0E0E" stroke-width="0.75" stroke-linecap="round" stroke-linejoin="round"/>
<path d="M152.199 37.4219C152.586 37.2266 153.832 36.6485 155.176 36.9961C157.566 37.6016 157.836 40.4883 157.852 40.6993C157.996 42.5391 156.871 44.6758 154.727 45.4415C153.074 46.0235 151.484 45.5587 150.637 45.3126C147.891 44.5118 146.387 42.6407 145.637 41.6993C143.234 38.6368 144.406 37.1524 141.945 34.9766C141.277 34.3868 139.926 33.1836 137.859 32.8711C135.703 32.5313 134.82 33.461 132.855 32.9141C130.926 32.3751 129.93 30.9571 129.676 30.5587C129.555 30.379 128.152 28.1211 129.473 25.8516C129.742 25.379 130.547 24.004 132.352 23.6094C133.996 23.254 135.801 23.8555 136.793 25.0313C137.641 26.0391 137.887 27.4532 137.227 28.5782C137.086 28.8282 136.637 29.5938 135.613 29.8985C134.762 30.1563 133.672 30.043 132.922 29.4414C132.262 28.9102 132.141 28.2266 132.121 28.0235" stroke="#0E0E0E" stroke-width="0.75" stroke-linecap="round" stroke-linejoin="round"/>
<path d="M143.488 37.0703C143.176 33.6485 141.426 30.836 138.871 29.9219C138.285 29.711 137.371 29.5039 136.156 29.6524" stroke="#0E0E0E" stroke-width="0.75" stroke-linecap="round" stroke-linejoin="round"/>
<path d="M158.34 49.1445C157.109 47.039 155.145 45.7265 153.188 45.8437C150.766 45.996 149.34 48.2656 148.727 49.2499C145.262 54.7773 148.965 62.328 149.535 63.4608" stroke="#0E0E0E" stroke-width="0.75" stroke-linecap="round" stroke-linejoin="round"/>
<path d="M158.391 90.8242C156.984 81.1719 152.398 60.0586 134.754 44.375C130.914 40.961 126.988 38.2852 123.262 36.1758" stroke="#0E0E0E" stroke-width="0.75" stroke-linecap="round" stroke-linejoin="round"/>
<mask id="mask2_2314_2679" style="mask-type:luminance" maskUnits="userSpaceOnUse" x="11" y="149" width="147" height="80">
<path d="M11 149H158V229H11V149Z" fill="white"/>
</mask>
<g mask="url(#mask2_2314_2679)">
<mask id="mask3_2314_2679" style="mask-type:luminance" maskUnits="userSpaceOnUse" x="11" y="149" width="147" height="80">
<path d="M11.2812 149.023C11.3008 175.414 11.3164 201.809 11.3398 228.191C60.2031 228.184 109.066 228.172 157.926 228.164C157.949 202.684 157.973 177.207 157.996 151.73C153.141 163.016 145.703 176.773 134.16 190.512C129.703 195.809 125.219 200.426 120.891 204.434C119.691 206.023 118.492 207.605 117.301 209.195C116.617 209.383 115.934 209.562 115.254 209.75C115.852 213.559 113.543 216.469 111.293 216.621C109.816 216.719 108.301 215.629 107.324 214.102C106.844 213.336 106.086 212.246 104.953 211.137C103.727 209.93 102.301 208.527 100.066 207.957C97.8164 207.387 95.8281 207.934 94.7461 208.348C94.0859 208.895 93.2109 209.742 92.4062 210.957C91.6211 212.148 91.1914 213.266 90.9453 214.078H78.3984C78.3242 213.613 77.7148 210.184 74.5938 208.477C71.543 206.801 68.4453 208.078 67.4922 208.461C64.1992 209.789 62.8047 212.523 62.4961 213.172C61.7539 209.629 59.2812 207.441 57.1055 207.613C56.7539 207.641 55.6211 207.793 54.4414 209.113C53.1914 208.07 51.9375 207.027 50.6836 205.984C44.8633 203.105 34.0273 196.766 24.9297 184.484C14.2969 170.113 11.9414 155.57 11.2891 149.031L11.2812 149.023Z" fill="white"/>
</mask>
<g mask="url(#mask3_2314_2679)">
<path d="M11.2812 149.023V228.191H157.996V149.023H11.2812Z" fill="url(#paint1_linear_2314_2679)"/>
</g>
</g>
<path d="M84.668 206.301C84.7187 206.922 84.9766 209.105 86.7812 210.957C88.4023 212.621 90.3086 213.02 90.9609 213.133C90.9062 213.785 90.8555 214.437 90.8008 215.09C89.9492 215.488 88.2305 216.434 86.8047 218.344C85.3594 220.289 84.9453 222.223 84.8086 223.16C84.4727 221.988 83.7305 219.988 82.0352 218.039C80.7305 216.539 79.3438 215.621 78.3828 215.09C78.3281 214.437 78.2773 213.785 78.2266 213.133C78.6914 213.086 81.6836 212.742 83.4844 210.125C84.5391 208.578 84.668 207.004 84.6836 206.301H84.668Z" fill="white"/>
<path d="M115.875 216.738C115.043 216.98 113.672 217.242 112.117 216.867C110.762 216.547 109.844 215.887 109.328 215.496C104.766 212.074 104.094 209.422 100.957 208.219C100.551 208.063 97.6211 207.094 94.6641 208.477C92.5781 209.449 91.0938 211.672 90.8633 214.078C90.5313 217.527 92.9336 220.941 95.7148 221.563C96.0391 221.637 97.793 222.027 99.2266 220.953C99.4063 220.82 100.516 219.965 100.672 218.457C100.695 218.234 100.875 216.289 99.3906 215.344C98.5586 214.82 97.5 214.789 96.6602 215.18C95.4688 215.727 94.7461 217.102 94.9336 218.57C94.6406 218.246 94.2383 217.746 93.9141 217.055C93.7578 216.727 92.7383 214.469 93.7109 212.301C94.8984 209.66 98.1289 209.195 98.5664 209.137C101.453 208.723 104.453 210.238 106.418 212.961" stroke="#0E0E0E" stroke-width="0.75" stroke-linecap="round" stroke-linejoin="round"/>
<path d="M90.8008 215.172C89.7461 215.699 88.9727 216.289 88.4336 216.777C85.3203 219.605 84.8633 223.723 84.6445 225.648C84.5039 226.902 84.5156 227.938 84.5469 228.574" stroke="#0E0E0E" stroke-width="0.75" stroke-linecap="round" stroke-linejoin="round"/>
<path d="M90.9609 213.223C90.2461 213.094 89.4766 212.871 88.7109 212.48C85.2539 210.719 84.7422 207.027 84.668 206.391" stroke="#0E0E0E" stroke-width="0.75" stroke-linecap="round" stroke-linejoin="round"/>
<path d="M53.2969 216.738C54.1289 216.98 55.5 217.242 57.0508 216.867C58.4102 216.547 59.3242 215.887 59.8438 215.496C64.4023 212.074 65.0781 209.422 68.2109 208.219C68.6172 208.063 71.5508 207.094 74.5039 208.477C76.5898 209.449 78.0742 211.672 78.3086 214.078C78.6367 217.527 76.2383 220.941 73.4531 221.563C73.1328 221.637 71.3789 222.027 69.9453 220.953C69.7656 220.82 68.6563 219.965 68.4961 218.457C68.4766 218.234 68.2969 216.289 69.7813 215.344C70.6133 214.82 71.6719 214.789 72.5117 215.18C73.7031 215.727 74.4219 217.102 74.2344 218.57C74.5273 218.246 74.9336 217.746 75.2539 217.055C75.4141 216.727 76.4336 214.469 75.457 212.301C74.2734 209.66 71.0391 209.195 70.6055 209.137C67.7188 208.723 64.7188 210.238 62.7539 212.961" stroke="#0E0E0E" stroke-width="0.75" stroke-linecap="round" stroke-linejoin="round"/>
<path d="M78.2188 213.223C78.8984 213.117 79.6797 212.898 80.4688 212.48C83.6758 210.785 84.5117 207.164 84.668 206.391" stroke="#0E0E0E" stroke-width="0.75" stroke-linecap="round" stroke-linejoin="round"/>
<path d="M54.0078 209.887C54.1211 209.629 54.7109 208.316 56.1016 207.883C57.5703 207.418 58.8594 208.273 59.3984 208.633C61.6719 210.141 61.8984 213.012 61.9219 213.477" stroke="#0E0E0E" stroke-width="0.75" stroke-linecap="round" stroke-linejoin="round"/>
<path d="M46.0273 202.969C46.6719 203.336 47.5781 203.891 48.6016 204.637C51.5469 206.781 53.8516 208.453 54.4492 211.184C54.9961 213.664 53.8789 215.758 53.6836 216.109C51.8477 219.426 48 219.973 47.2031 220.063C43.6289 220.469 39.9961 218.578 37.7266 215.277" stroke="#0E0E0E" stroke-width="0.75" stroke-linecap="round" stroke-linejoin="round"/>
<path d="M38.2266 197.824C38.1914 205.543 40.0781 211.602 43.0742 213.273C44.6094 214.129 46.1719 214.152 46.1719 214.152C46.6875 214.152 49.3047 214.113 50.9609 211.953C52.4414 210.027 52.0742 207.824 52.0039 207.449" stroke="#0E0E0E" stroke-width="0.75" stroke-linecap="round" stroke-linejoin="round"/>
<path d="M17.0937 201.727C16.7031 201.922 15.457 202.496 14.1133 202.152C11.7227 201.547 11.4531 198.656 11.4375 198.449C11.2969 196.61 12.4219 194.473 14.5664 193.707C16.2148 193.121 17.8047 193.586 18.6523 193.836C21.3984 194.637 22.9062 196.504 23.6562 197.449C26.0547 200.512 24.8867 201.996 27.3437 204.172C28.0117 204.762 29.3633 205.961 31.4336 206.277C33.5859 206.613 34.4688 205.684 36.4336 206.235C38.3633 206.774 39.3594 208.192 39.6133 208.586C39.7344 208.766 41.1367 211.024 39.8164 213.297C39.5469 213.77 38.7461 215.141 36.9375 215.539C35.2969 215.891 33.4883 215.293 32.4961 214.113C31.6484 213.11 31.4023 211.692 32.0625 210.567C32.2031 210.32 32.6562 209.555 33.6758 209.246C34.5312 208.992 35.6172 209.106 36.3672 209.703C37.0273 210.238 37.1484 210.922 37.1719 211.121" stroke="#0E0E0E" stroke-width="0.75" stroke-linecap="round" stroke-linejoin="round"/>
<path d="M25.8008 202.07C26.1133 205.488 27.8633 208.301 30.4219 209.219C31.0039 209.426 31.9219 209.637 33.1367 209.488" stroke="#0E0E0E" stroke-width="0.75" stroke-linecap="round" stroke-linejoin="round"/>
<path d="M23.2031 196.766C23.6836 196.887 25.6055 197.324 27.2539 196.258C29.2578 194.953 30.0742 191.93 28.8672 189.051" stroke="#0E0E0E" stroke-width="0.75" stroke-linecap="round" stroke-linejoin="round"/>
<path d="M21.8477 186.461C22.1562 186.477 22.793 186.469 23.4687 186.117C24.5937 185.523 24.9375 184.422 25.0039 184.199" stroke="#0E0E0E" stroke-width="0.75" stroke-linecap="round" stroke-linejoin="round"/>
<path d="M10.9883 146.879C12.1875 156.539 16.4023 178.617 34.5391 194.781C38.3711 198.191 42.2852 200.871 46.0273 202.977" stroke="#0E0E0E" stroke-width="0.75" stroke-linecap="round" stroke-linejoin="round"/>
<path d="M84.668 206.301C84.7188 206.922 84.9766 209.105 86.7812 210.957C88.4023 212.621 90.3086 213.02 90.9609 213.133C90.9063 213.785 90.8555 214.437 90.8008 215.09C90.3359 215.301 89.6992 215.629 89.0156 216.148C87.4805 217.324 86.7461 218.703 86.1016 219.949C85.5391 221.047 84.8086 222.738 84.4336 224.977C84.4258 223.902 84.2617 220.82 82.0273 218.031C80.7617 216.441 79.3047 215.547 78.375 215.082C78.3242 214.43 78.2695 213.777 78.2188 213.125C78.6836 213.078 81.6758 212.734 83.4766 210.117C84.5312 208.574 84.6602 206.996 84.6758 206.293L84.668 206.301Z" fill="black" stroke="black" stroke-width="0.5625" stroke-linecap="round" stroke-linejoin="round"/>
<path d="M53.2969 216.738C54.1289 216.98 55.5 217.242 57.0508 216.867C58.4102 216.547 59.3242 215.887 59.8438 215.496C64.4023 212.074 65.0781 209.422 68.2109 208.219C68.6172 208.063 71.5508 207.094 74.5039 208.477C76.5898 209.449 78.0742 211.672 78.3086 214.078C78.6367 217.527 76.2383 220.941 73.4531 221.563C73.1328 221.637 71.3789 222.027 69.9453 220.953C69.7656 220.82 68.6563 219.965 68.4961 218.457C68.4766 218.234 68.2969 216.289 69.7813 215.344C70.6133 214.82 71.6719 214.789 72.5117 215.18C73.7031 215.727 74.4219 217.102 74.2344 218.57C74.5273 218.246 74.9336 217.746 75.2539 217.055C75.4141 216.727 76.4336 214.469 75.457 212.301C74.2734 209.66 71.0391 209.195 70.6055 209.137C67.7188 208.723 64.7188 210.238 62.7539 212.961" stroke="#0E0E0E" stroke-width="0.75" stroke-linecap="round" stroke-linejoin="round"/>
<path d="M78.375 215.172C78.9961 215.473 79.8672 215.977 80.7461 216.777C82.5977 218.488 83.2656 220.469 83.7813 222.086C84.5859 224.594 84.668 226.871 84.5547 228.574" stroke="#0E0E0E" stroke-width="0.75" stroke-linecap="round" stroke-linejoin="round"/>
<path d="M78.2188 213.223C78.8984 213.117 79.6797 212.898 80.4688 212.48C83.707 210.762 84.5156 207.059 84.668 206.301" stroke="#0E0E0E" stroke-width="0.75" stroke-linecap="round" stroke-linejoin="round"/>
<path d="M54.0078 209.887C54.1211 209.629 54.7109 208.316 56.1016 207.883C57.5703 207.418 58.8594 208.273 59.3984 208.633C61.6719 210.141 61.8984 213.012 61.9219 213.477" stroke="#0E0E0E" stroke-width="0.75" stroke-linecap="round" stroke-linejoin="round"/>
<path d="M46.0273 202.969C46.6719 203.336 47.5781 203.891 48.6016 204.637C51.5469 206.781 53.8516 208.453 54.4492 211.184C54.9961 213.664 53.8789 215.758 53.6836 216.109C51.8477 219.426 48 219.973 47.2031 220.063C43.6289 220.469 39.9961 218.578 37.7266 215.277" stroke="#0E0E0E" stroke-width="0.75" stroke-linecap="round" stroke-linejoin="round"/>
<path d="M38.2266 197.824C38.1914 205.543 40.0781 211.602 43.0742 213.273C44.6094 214.129 46.1719 214.152 46.1719 214.152C46.6875 214.152 49.3047 214.113 50.9609 211.953C52.4414 210.027 52.0742 207.824 52.0039 207.449" stroke="#0E0E0E" stroke-width="0.75" stroke-linecap="round" stroke-linejoin="round"/>
<path d="M17.0937 201.727C16.7031 201.922 15.457 202.496 14.1133 202.152C11.7227 201.547 11.4531 198.656 11.4375 198.449C11.2969 196.61 12.4219 194.473 14.5664 193.707C16.2148 193.121 17.8047 193.586 18.6523 193.836C21.3984 194.637 22.9062 196.504 23.6562 197.449C26.0547 200.512 24.8867 201.996 27.3437 204.172C28.0117 204.762 29.3633 205.961 31.4336 206.277C33.5859 206.613 34.4688 205.684 36.4336 206.235C38.3633 206.774 39.3594 208.192 39.6133 208.586C39.7344 208.766 41.1367 211.024 39.8164 213.297C39.5469 213.77 38.7461 215.141 36.9375 215.539C35.2969 215.891 33.4883 215.293 32.4961 214.113C31.6484 213.11 31.4023 211.692 32.0625 210.567C32.2031 210.32 32.6562 209.555 33.6758 209.246C34.5312 208.992 35.6172 209.106 36.3672 209.703C37.0273 210.238 37.1484 210.922 37.1719 211.121" stroke="#0E0E0E" stroke-width="0.75" stroke-linecap="round" stroke-linejoin="round"/>
<path d="M25.8008 202.07C26.1133 205.488 27.8633 208.301 30.4219 209.219C31.0039 209.426 31.9219 209.637 33.1367 209.488" stroke="#0E0E0E" stroke-width="0.75" stroke-linecap="round" stroke-linejoin="round"/>
<path d="M11.0312 190.137C11.1211 190.289 13.1172 193.484 16.1016 193.297C18.5156 193.145 19.9414 190.879 20.5664 189.891C24.0234 184.371 20.3242 176.809 19.7539 175.676" stroke="#0E0E0E" stroke-width="0.75" stroke-linecap="round" stroke-linejoin="round"/>
<path d="M23.2031 196.766C23.6836 196.887 25.6055 197.324 27.2539 196.258C29.2578 194.953 30.0742 191.93 28.8672 189.051" stroke="#0E0E0E" stroke-width="0.75" stroke-linecap="round" stroke-linejoin="round"/>
<path d="M21.8477 186.461C22.1562 186.477 22.793 186.469 23.4687 186.117C24.5937 185.523 24.9375 184.422 25.0039 184.199" stroke="#0E0E0E" stroke-width="0.75" stroke-linecap="round" stroke-linejoin="round"/>
<path d="M10.9883 146.879C12.1875 156.539 16.4023 178.617 34.5391 194.781C38.3711 198.191 42.2852 200.871 46.0273 202.977" stroke="#0E0E0E" stroke-width="0.75" stroke-linecap="round" stroke-linejoin="round"/>
<path d="M128.625 206.148C127.852 204.844 127.461 203.457 127.461 201.996C127.461 200.676 127.754 199.453 128.34 198.328C128.926 197.203 129.719 196.258 130.727 195.5C131.73 194.742 132.879 194.246 134.176 194.008L134.52 193.961C134.863 193.918 135.211 193.902 135.555 193.902H147.57V194.969L147.141 194.938C146.699 194.945 146.34 195.102 146.047 195.402C145.754 195.703 145.605 196.063 145.605 196.488L145.59 213.844C145.613 214.289 145.785 214.656 146.109 214.961C146.414 215.227 146.762 215.352 147.141 215.352L147.57 215.324V216.387H135.555C135.082 216.387 134.633 216.297 134.191 216.117C133.477 215.824 132.922 215.375 132.512 214.762C132.098 214.145 131.895 213.461 131.895 212.711C131.895 212.031 132.074 211.391 132.441 210.785C132.684 210.387 132.988 210.051 133.352 209.781C132.504 209.539 131.715 209.164 130.98 208.664C130.004 207.996 129.219 207.156 128.609 206.148H128.625ZM140.73 194.938H135.555C133.672 194.938 132.008 195.621 130.566 196.992C129.879 197.703 129.531 198.613 129.531 199.723V199.836L129.547 199.863V200.023C129.547 200.105 129.547 200.188 129.562 200.27C129.562 200.301 129.562 200.336 129.578 200.383V200.414C129.578 200.414 129.578 200.473 129.594 200.504C129.602 200.602 129.621 200.684 129.637 200.773C129.637 200.801 129.637 200.84 129.652 200.887V200.898C129.66 200.945 129.676 200.977 129.684 201.012V201.027C129.684 201.027 129.684 201.074 129.699 201.102C129.699 201.125 129.699 201.148 129.711 201.164V201.176C129.801 201.523 129.922 201.867 130.059 202.211C130.102 202.363 130.164 202.496 130.246 202.641C130.266 202.691 130.289 202.738 130.305 202.781C130.352 202.863 130.379 202.941 130.418 203C130.441 203.031 130.449 203.051 130.449 203.059L130.461 203.074L130.621 203.375L130.664 203.434C130.664 203.434 130.688 203.473 130.695 203.48C130.719 203.523 130.738 203.562 130.77 203.609C130.824 203.691 130.883 203.781 130.941 203.879C130.996 203.961 131.047 204.043 131.102 204.109L131.129 204.141C131.129 204.141 131.176 204.207 131.203 204.254L131.301 204.379C131.301 204.379 131.332 204.426 131.348 204.441H131.363C131.363 204.441 131.371 204.484 131.391 204.5H131.406C131.406 204.5 131.414 204.539 131.438 204.547L131.453 204.559C131.453 204.559 131.484 204.605 131.496 204.621C131.52 204.648 131.543 204.68 131.559 204.695C131.684 204.852 131.82 205.004 131.961 205.152L132.309 205.496C132.367 205.559 132.426 205.609 132.48 205.656C132.531 205.699 132.594 205.746 132.652 205.812L132.727 205.887C132.727 205.887 132.773 205.934 132.801 205.949C132.887 206.023 132.977 206.098 133.074 206.164C133.133 206.219 133.199 206.262 133.273 206.309C133.371 206.391 133.469 206.465 133.574 206.523C133.605 206.547 133.629 206.563 133.637 206.57H133.648L133.695 206.613H133.711C133.711 206.613 133.738 206.652 133.77 206.66C133.824 206.703 133.883 206.734 133.941 206.773C133.996 206.801 134.055 206.84 134.113 206.887C134.137 206.906 134.16 206.922 134.191 206.93L134.219 206.945C134.219 206.945 134.25 206.953 134.281 206.977C134.34 207.012 134.406 207.051 134.484 207.086C134.535 207.109 134.574 207.133 134.609 207.148L134.625 207.164L134.656 207.176L134.684 207.191C134.684 207.191 134.715 207.199 134.746 207.223C134.797 207.23 134.844 207.254 134.871 207.281H134.887C134.977 207.328 135.066 207.359 135.137 207.395C135.141 207.402 135.156 207.418 135.18 207.426C135.238 207.449 135.301 207.469 135.352 207.484C135.359 207.484 135.383 207.484 135.414 207.5L135.426 207.516C135.504 207.547 135.578 207.574 135.66 207.59C135.684 207.598 135.703 207.605 135.719 207.605V207.621C135.719 207.621 135.781 207.629 135.809 207.648C135.855 207.672 135.898 207.68 135.953 207.68C135.996 207.703 136.035 207.719 136.078 207.727H136.094C136.148 207.746 136.207 207.762 136.266 207.77C136.434 207.816 136.605 207.852 136.785 207.883H136.828L136.875 207.898C137.004 207.922 137.109 207.926 137.203 207.926C137.227 207.934 137.25 207.941 137.281 207.941H137.406C137.406 207.941 137.438 207.941 137.469 207.957H137.984C137.984 207.957 138.008 207.957 138.031 207.941H138.156C138.156 207.941 138.219 207.941 138.234 207.926H138.344C138.344 207.926 138.391 207.914 138.406 207.914H138.434C138.434 207.914 138.496 207.898 138.523 207.898H138.539C138.539 207.898 138.602 207.883 138.629 207.883L138.66 207.867H138.703C138.703 207.867 138.75 207.844 138.766 207.836H138.781C138.781 207.836 138.809 207.836 138.84 207.824H138.855C138.855 207.824 138.879 207.824 138.898 207.809H138.914C138.914 207.809 138.945 207.809 138.961 207.793H138.977L139.035 207.777L139.078 207.762L139.109 207.746H139.125C139.176 207.727 139.238 207.703 139.297 207.688C139.32 207.664 139.344 207.656 139.371 207.656C139.379 207.648 139.402 207.637 139.418 207.629H139.434L139.461 207.613L139.477 207.598C139.523 207.59 139.566 207.566 139.621 207.539C139.629 207.539 139.641 207.539 139.664 207.523V207.508C139.664 207.508 139.719 207.5 139.727 207.477H139.738L139.754 207.461H139.77L139.785 207.449C139.785 207.449 139.816 207.441 139.828 207.418L139.875 207.387H139.891L139.934 207.344H139.949L139.965 207.328H139.98L140.039 207.266H140.055L140.07 207.254C140.07 207.254 140.145 207.191 140.199 207.156C140.199 207.133 140.203 207.125 140.227 207.125L140.309 207.051H140.324V207.035L140.34 207.02H140.355L140.445 206.93C141.234 206.129 141.797 205.191 142.141 204.125V196.484C142.141 196.055 141.988 195.687 141.684 195.387C141.375 195.086 141.016 194.93 140.586 194.93L140.73 194.938ZM133.359 211.379C133.352 211.438 133.344 211.504 133.344 211.578L133.387 211.863C133.434 212.059 133.5 212.246 133.59 212.414C133.672 212.57 133.762 212.711 133.859 212.832C133.934 212.914 134.012 212.996 134.078 213.066C135.539 214.578 137.453 215.336 139.824 215.336H140.73C141.172 215.328 141.539 215.172 141.832 214.871C142.125 214.574 142.281 214.211 142.281 213.785V206.473C140.926 208.453 139.043 209.621 136.637 209.988C136.281 210.043 135.914 210.066 135.555 210.066C135.129 210.066 134.715 210.164 134.332 210.363C134.227 210.418 134.129 210.477 134.031 210.539C133.824 210.68 133.641 210.859 133.5 211.07C133.449 211.145 133.41 211.219 133.371 211.301C133.371 211.324 133.371 211.348 133.359 211.363V211.379Z" fill="black"/>
<path d="M130.238 177.891C132.074 179.898 134.902 178.707 134.902 178.707C134.113 179.555 133.582 180.223 133.688 181.602C133.688 181.648 133.688 181.699 133.688 181.746C133.688 183.941 135.473 185.727 137.672 185.727C139.867 185.727 141.652 183.941 141.652 181.746C141.652 181.469 141.621 181.199 141.57 180.934C141.48 179.977 141.008 179.398 140.355 178.707C140.355 178.707 143.184 179.898 145.02 177.891C146.859 175.879 145.941 173.504 145.359 172.715C144.781 171.934 143.91 170.613 141.871 170.773C140.063 170.906 139.793 171.215 138.555 172.203C138.703 169.477 140.363 167.609 140.363 167.609H134.918C135.914 168.656 136.809 171.074 136.688 172.176C135.473 171.199 135.195 170.898 133.402 170.766C131.363 170.613 130.492 171.926 129.914 172.707C129.336 173.488 128.414 175.871 130.254 177.883L130.238 177.891Z" fill="#292929" stroke="black" stroke-width="0.5625" stroke-linecap="round" stroke-linejoin="round"/>
<path d="M40.6133 33.0859C41.3867 34.3906 41.7734 35.7812 41.7734 37.2422C41.7734 38.5625 41.4844 39.7852 40.8984 40.9102C40.3125 42.0352 39.5156 42.9805 38.5117 43.7383C37.5078 44.4961 36.3594 44.9883 35.0625 45.2305L34.7188 45.2734C34.3711 45.3203 34.0273 45.3359 33.6836 45.3359H21.668V44.2695L22.0938 44.3008C22.5391 44.293 22.8984 44.1367 23.1914 43.8359C23.4844 43.5352 23.6328 43.1758 23.6328 42.7461L23.6484 25.3906C23.625 24.9492 23.4531 24.582 23.1289 24.2734C22.8242 24.0117 22.4766 23.8867 22.0938 23.8867L21.668 23.9141V22.8516H33.6836C34.1562 22.8516 34.6055 22.9414 35.0469 23.1211C35.7617 23.4141 36.3164 23.8633 36.7266 24.4766C37.1406 25.0938 37.3438 25.7734 37.3438 26.5234C37.3438 27.207 37.1641 27.8438 36.7969 28.4531C36.5547 28.8516 36.2461 29.1875 35.8867 29.457C36.7344 29.6992 37.5234 30.0742 38.2578 30.5742C39.2344 31.2422 40.0195 32.082 40.6289 33.0859H40.6133ZM35.8711 27.8672C35.8789 27.8086 35.8867 27.7383 35.8867 27.6641L35.8438 27.3789C35.7969 27.1836 35.7305 26.9961 35.6406 26.832C35.5586 26.6758 35.4687 26.5313 35.3711 26.4141C35.2969 26.3281 35.2187 26.2461 35.1523 26.1797C33.6914 24.6641 31.7773 23.9062 29.4062 23.9062H28.5C28.0586 23.9141 27.6914 24.0742 27.3984 24.3711C27.1055 24.6719 26.9492 25.0312 26.9492 25.4609V32.7734C28.3047 30.793 30.1875 29.6211 32.5938 29.2539C32.9492 29.2031 33.3164 29.1797 33.6758 29.1797C34.1016 29.1797 34.5156 29.082 34.8984 28.8789C35.0039 28.8281 35.1016 28.7656 35.1992 28.707C35.4062 28.5664 35.5859 28.3867 35.7305 28.1758C35.7812 28.1016 35.8203 28.0234 35.8594 27.9414C35.8594 27.9219 35.8594 27.8984 35.8711 27.8828V27.8672ZM28.5 44.3086H33.6758C35.5586 44.3086 37.2227 43.625 38.6641 42.2539C39.3516 41.5391 39.6992 40.6328 39.6992 39.5234V39.4102L39.6836 39.3789V39.2227C39.6836 39.1406 39.6836 39.0586 39.668 38.9766C39.668 38.9453 39.668 38.9063 39.6523 38.8633V38.832C39.6523 38.832 39.6523 38.7734 39.6367 38.7422C39.6289 38.6445 39.6094 38.5625 39.5938 38.4727C39.5938 38.4414 39.5938 38.4062 39.5781 38.3594V38.3438C39.5703 38.3008 39.5547 38.2695 39.5469 38.2344V38.2188C39.5469 38.2188 39.5469 38.1719 39.5312 38.1406C39.5312 38.1211 39.5312 38.0977 39.5156 38.082V38.0664C39.4258 37.7227 39.3086 37.3789 39.1719 37.0312C39.1289 36.8828 39.0664 36.7461 38.9844 36.6055C38.9609 36.5508 38.9414 36.5078 38.9258 36.4609C38.8789 36.3789 38.8516 36.3047 38.8125 36.2461C38.7891 36.2148 38.7812 36.1914 38.7812 36.1836L38.7656 36.1719L38.6094 35.8711L38.5664 35.8086C38.5664 35.8086 38.543 35.7734 38.5352 35.7656C38.5117 35.7188 38.4883 35.6836 38.4609 35.6367C38.4062 35.5547 38.3477 35.4648 38.2891 35.3672C38.2344 35.2852 38.1836 35.2031 38.1289 35.1367L38.1016 35.1055C38.1016 35.1055 38.0547 35.0391 38.0234 34.9922L37.9258 34.8633C37.9258 34.8633 37.8984 34.8203 37.8828 34.8047H37.8672C37.8672 34.8047 37.8594 34.7617 37.8359 34.7461H37.8242C37.8242 34.7461 37.8164 34.707 37.793 34.6992L37.7773 34.6836C37.7773 34.6836 37.7461 34.6406 37.7344 34.625C37.7109 34.5938 37.6875 34.5664 37.6719 34.5508C37.5469 34.3906 37.4102 34.2422 37.2656 34.0938L36.9219 33.7461C36.8633 33.6875 36.8008 33.6367 36.75 33.5898C36.6992 33.5469 36.6367 33.5 36.5781 33.4336L36.5039 33.3594C36.5039 33.3594 36.457 33.3125 36.4258 33.2969C36.3438 33.2227 36.2539 33.1484 36.1562 33.0781C36.0977 33.0273 36.0312 32.9844 35.9531 32.9375C35.8594 32.8555 35.7617 32.7812 35.6562 32.7188C35.625 32.6992 35.6016 32.6836 35.5938 32.6758H35.5781L35.5352 32.6289H35.5195C35.5195 32.6289 35.4883 32.5937 35.4609 32.5859C35.4062 32.5391 35.3477 32.5117 35.2891 32.4727C35.2344 32.4414 35.1758 32.4062 35.1133 32.3594C35.0938 32.3359 35.0703 32.3242 35.0391 32.3164L35.0117 32.3008C35.0117 32.3008 34.9805 32.293 34.9492 32.2695C34.8906 32.2344 34.8242 32.1953 34.7461 32.1562C34.6953 32.1367 34.6562 32.1133 34.6211 32.0977L34.6055 32.082L34.5742 32.0664L34.5469 32.0508C34.5469 32.0508 34.5156 32.0469 34.4844 32.0234C34.4336 32.0156 34.3867 31.9922 34.3594 31.9609H34.3438C34.2539 31.918 34.1641 31.8867 34.0938 31.8516C34.0859 31.8438 34.0742 31.8281 34.0508 31.8203C33.9883 31.7969 33.9297 31.7734 33.8789 31.7617C33.8711 31.7617 33.8477 31.7617 33.8164 31.7461L33.8008 31.7305C33.7266 31.6992 33.6523 31.6719 33.5703 31.6562C33.5469 31.6484 33.5234 31.6406 33.5117 31.6406V31.625C33.5117 31.625 33.4492 31.6172 33.4219 31.5938C33.375 31.5742 33.3281 31.5664 33.2773 31.5664C33.2344 31.543 33.1953 31.5273 33.1484 31.5195H33.1367C33.082 31.4961 33.0234 31.4844 32.9609 31.4766C32.7969 31.4297 32.625 31.3906 32.4453 31.3633H32.3984L32.3555 31.3477C32.2266 31.3242 32.1211 31.3164 32.0234 31.3164C32.0039 31.3086 31.9805 31.3008 31.9492 31.3008H31.8242C31.8242 31.3008 31.793 31.3008 31.7617 31.2891H31.2461C31.2461 31.2891 31.2227 31.2891 31.1992 31.3008H31.0742C31.0742 31.3008 31.0117 31.3008 30.9961 31.3164H30.8867C30.8867 31.3164 30.8398 31.332 30.8242 31.332H30.7969C30.7969 31.332 30.7344 31.3477 30.7031 31.3477H30.6914C30.6914 31.3477 30.6289 31.3633 30.6016 31.3633L30.5703 31.3789H30.5234C30.5234 31.3789 30.4805 31.3984 30.4648 31.4062H30.4492C30.4492 31.4062 30.4219 31.4062 30.3906 31.4219H30.375C30.375 31.4219 30.3516 31.4219 30.3281 31.4375H30.3164C30.3164 31.4375 30.2852 31.4375 30.2695 31.4531H30.2539L30.1953 31.4688L30.1484 31.4844L30.1211 31.4961H30.1055C30.0508 31.5195 29.9922 31.543 29.9336 31.5586C29.9102 31.5781 29.8867 31.5859 29.8594 31.5859C29.8516 31.5937 29.8281 31.6094 29.8125 31.6172H29.7969L29.7656 31.6328L29.7539 31.6484C29.707 31.6562 29.6641 31.6758 29.6094 31.707C29.6016 31.707 29.5859 31.707 29.5664 31.7227V31.7383C29.5664 31.7383 29.5117 31.7461 29.5039 31.7656H29.4883L29.4766 31.7812H29.4609L29.4453 31.7969C29.4453 31.7969 29.4141 31.8047 29.3984 31.8281L29.3555 31.8594H29.3398L29.2969 31.9023H29.2812L29.2656 31.918H29.25L29.1914 31.9766H29.1758L29.1602 31.9922C29.1602 31.9922 29.0859 32.0508 29.0312 32.0898C29.0312 32.1133 29.0234 32.1211 29.0039 32.1211L28.9219 32.1953H28.9062V32.2109L28.8906 32.2266H28.875L28.7852 32.3164C27.9961 33.1172 27.4336 34.0547 27.0898 35.1211V42.7617C27.0898 43.1914 27.2383 43.5586 27.5469 43.8594C27.8555 44.1562 28.2148 44.3164 28.6406 44.3164L28.5 44.3086Z" fill="black"/>
<path d="M39.1797 60.7266C37.3438 58.7148 34.5156 59.9062 34.5156 59.9062C35.3008 59.0586 35.8359 58.3906 35.7305 57.0117C35.7305 56.9687 35.7305 56.9141 35.7305 56.8711C35.7305 54.6719 33.9453 52.8867 31.7461 52.8867C29.5508 52.8867 27.7656 54.6719 27.7656 56.8711C27.7656 57.1484 27.7969 57.418 27.8477 57.6797C27.9375 58.6406 28.4102 59.2188 29.0625 59.9062C29.0625 59.9062 26.2344 58.7148 24.3984 60.7266C22.5586 62.7344 23.4766 65.1133 24.0586 65.8984C24.6367 66.6797 25.5078 68 27.5469 67.8437C29.3555 67.707 29.625 67.3984 30.8633 66.4102C30.7109 69.1406 29.0547 71.0078 29.0547 71.0078H34.5C33.5039 69.957 32.6094 67.543 32.7305 66.4414C33.9453 67.4141 34.2227 67.7148 36.0156 67.8516C38.0547 68 38.9258 66.6875 39.5039 65.9062C40.0781 65.1289 41.0039 62.7422 39.1641 60.7344L39.1797 60.7266Z" fill="#292929" stroke="black" stroke-width="0.5625" stroke-linecap="round" stroke-linejoin="round"/>
<path d="M136.598 139.699C136.289 143.059 135.984 146.422 135.676 149.781C134.941 149.797 133.738 149.719 132.441 149.105C131.887 148.844 131.438 148.535 131.078 148.258C131.055 146.008 131.039 143.758 131.016 141.508C132.391 141.477 133.539 141.363 134.391 141.262C135.066 141.176 135.703 141.066 136.164 140.555C136.426 140.262 136.539 139.934 136.59 139.707L136.598 139.699Z" fill="white" stroke="black" stroke-width="0.5625" stroke-linecap="round" stroke-linejoin="round"/>
<path d="M96.6836 95.3009C95.9766 95.7345 96.0078 96.3126 95.1992 96.8986C94.7344 97.2267 94.2734 97.3634 94.0508 97.4142C93.2109 97.6095 92.4219 97.4142 91.8906 97.2892C91.7383 97.2501 91.6211 97.2188 91.5469 97.1993C87.5781 96.0274 84.9297 95.2462 82.6953 92.6603C81.9844 91.8439 80.9102 90.672 80.4688 88.8634C80.2266 87.8673 80.2344 86.9376 80.0469 86.9298C79.7852 86.9142 79.4922 88.6915 79.3867 89.3517C78.668 93.7384 79.5234 95.0236 79.8281 95.4337C79.9258 95.5626 79.9961 95.6524 80.1094 95.7579C80.6328 96.2891 81.6602 96.8516 85.7031 98.547C88.4414 99.6954 91.8164 101.047 95.4883 101.137C96.2187 101.149 97.1992 101.156 97.8086 100.512C98.4844 99.7931 98.4063 98.5938 98.3164 97.1524C98.2578 96.2462 98.1133 95.504 97.9883 94.9845C97.3516 94.9845 96.9453 95.1642 96.7031 95.3087L96.6836 95.3009Z" fill="black" stroke="black" stroke-width="0.5625" stroke-linecap="round" stroke-linejoin="round"/>
<path d="M91.7266 94.5938C92.4844 95.1485 94.8242 92.6133 97.125 92.6094C97.3359 92.6094 98.0469 92.6094 98.2578 92.9961C98.4453 93.3438 98.1094 93.7188 98.2578 93.8516C98.4961 94.0547 99.668 93.4766 99.7422 92.6289C99.7422 92.6133 99.7422 92.6016 99.7422 92.586C99.7578 92.2461 99.6367 91.5039 98.8945 89.7344C98.3906 89.7734 97.8906 89.8086 97.3789 89.8477C95.6563 90.4024 94.3438 91.0547 93.457 91.5664C92.3711 92.1875 91.7617 92.6758 91.582 93.4258C91.5508 93.5508 91.3633 94.3399 91.7266 94.5938Z" fill="black" stroke="black" stroke-width="0.5625" stroke-linecap="round" stroke-linejoin="round"/>
<path d="M65.7969 159.711C65.3555 159.336 64.7188 158.711 64.207 157.805C63.375 156.328 63.3281 154.918 63.3008 154.297C63.2109 152.375 62.8516 149.594 61.9727 145.266" stroke="black" stroke-width="0.5625" stroke-linecap="round" stroke-linejoin="round"/>
<path d="M73.4531 159.824C73.207 159.41 72.8633 158.789 72.4961 158.016C70.3945 153.539 70.5078 149.555 70.4766 146.75C70.4414 143.523 70.1758 139.016 69.2031 133.25" stroke="black" stroke-width="0.5625" stroke-linecap="round" stroke-linejoin="round"/>
<path d="M70.0586 160.461C69.6523 160.145 68.9688 159.531 68.4883 158.523C68.168 157.852 68.0469 157.234 67.9961 156.801" stroke="black" stroke-width="0.5625" stroke-linecap="round" stroke-linejoin="round"/>
<path d="M65.6914 169.609C65.1523 171.824 64.6484 174.125 64.207 176.512C62.6914 184.633 62.1211 192.184 62.0859 198.941" stroke="black" stroke-width="0.5625" stroke-linecap="round" stroke-linejoin="round"/>
<path d="M72.9219 170.562C72.4648 175.168 72 179.773 71.543 184.387" stroke="black" stroke-width="0.5625" stroke-linecap="round" stroke-linejoin="round"/>
<path d="M101.129 158.871C102.391 157.934 103.004 156.965 103.328 156.32C103.98 155.008 103.922 153.996 104.176 150.508C104.281 149.074 104.391 147.922 104.461 147.246" stroke="black" stroke-width="0.5625" stroke-linecap="round" stroke-linejoin="round"/>
<path d="M98.3984 169.941C99.4219 174.273 100.352 178.941 101.113 183.906C101.617 187.152 102.008 190.289 102.316 193.309" stroke="black" stroke-width="0.5625" stroke-linecap="round" stroke-linejoin="round"/>
<path d="M102.473 169.496C102.93 171.102 103.363 172.828 103.746 174.672C104.191 176.801 104.512 178.82 104.738 180.695" stroke="black" stroke-width="0.5625" stroke-linecap="round" stroke-linejoin="round"/>
<path d="M129.871 79.9414H128.289V120.988H129.871V79.9414Z" fill="white" stroke="black" stroke-width="0.5625" stroke-linecap="round" stroke-linejoin="round"/>
<path d="M118.898 71.3828C118.191 71.7109 117.008 72.3359 115.801 73.3984C109.934 78.5469 108.602 89.3008 113.047 96.7188C113.902 98.1484 115.621 100.535 118.906 102.637" stroke="black" stroke-width="0.5625" stroke-linecap="round" stroke-linejoin="round"/>
<defs>
<linearGradient id="paint0_linear_2314_2679" x1="158.07" y1="49.6175" x2="11.43" y2="49.6175" gradientUnits="userSpaceOnUse">
<stop stop-color="#8F8587"/>
<stop offset="0.00390625" stop-color="#908688"/>
<stop offset="0.0078125" stop-color="#918789"/>
<stop offset="0.0117188" stop-color="#92888A"/>
<stop offset="0.015625" stop-color="#92898B"/>
<stop offset="0.0195313" stop-color="#938A8B"/>
<stop offset="0.0234375" stop-color="#948B8C"/>
<stop offset="0.0273438" stop-color="#958C8D"/>
<stop offset="0.03125" stop-color="#968D8E"/>
<stop offset="0.0351563" stop-color="#978D8F"/>
<stop offset="0.0390625" stop-color="#988E90"/>
<stop offset="0.0429688" stop-color="#988F91"/>
<stop offset="0.046875" stop-color="#999092"/>
<stop offset="0.0507813" stop-color="#9A9193"/>
<stop offset="0.0546875" stop-color="#9B9294"/>
<stop offset="0.0585938" stop-color="#9C9395"/>
<stop offset="0.0625" stop-color="#9D9496"/>
<stop offset="0.0664062" stop-color="#9D9596"/>
<stop offset="0.0703125" stop-color="#9E9697"/>
<stop offset="0.0742188" stop-color="#9F9798"/>
<stop offset="0.078125" stop-color="#A09899"/>
<stop offset="0.0820312" stop-color="#A1999A"/>
<stop offset="0.0859375" stop-color="#A2999B"/>
<stop offset="0.0898438" stop-color="#A39A9C"/>
<stop offset="0.09375" stop-color="#A39B9D"/>
<stop offset="0.0976562" stop-color="#A49C9E"/>
<stop offset="0.101562" stop-color="#A59D9F"/>
<stop offset="0.105469" stop-color="#A69EA0"/>
<stop offset="0.109375" stop-color="#A79FA0"/>
<stop offset="0.113281" stop-color="#A8A0A1"/>
<stop offset="0.117188" stop-color="#A8A1A2"/>
<stop offset="0.121094" stop-color="#A9A2A3"/>
<stop offset="0.125" stop-color="#AAA3A4"/>
<stop offset="0.128906" stop-color="#ABA4A5"/>
<stop offset="0.132812" stop-color="#ACA5A6"/>
<stop offset="0.136719" stop-color="#ADA5A7"/>
<stop offset="0.140625" stop-color="#AEA6A8"/>
<stop offset="0.144531" stop-color="#AEA7A9"/>
<stop offset="0.148438" stop-color="#AFA8AA"/>
<stop offset="0.152344" stop-color="#B0A9AB"/>
<stop offset="0.15625" stop-color="#B1AAAB"/>
<stop offset="0.160156" stop-color="#B2ABAC"/>
<stop offset="0.164062" stop-color="#B3ACAD"/>
<stop offset="0.167969" stop-color="#B3ADAE"/>
<stop offset="0.171875" stop-color="#B4AEAF"/>
<stop offset="0.175781" stop-color="#B5AFB0"/>
<stop offset="0.179688" stop-color="#B6B0B1"/>
<stop offset="0.183594" stop-color="#B7B1B2"/>
<stop offset="0.1875" stop-color="#B8B2B3"/>
<stop offset="0.191406" stop-color="#B9B2B4"/>
<stop offset="0.195312" stop-color="#B9B3B5"/>
<stop offset="0.199219" stop-color="#BAB4B5"/>
<stop offset="0.203125" stop-color="#BBB5B6"/>
<stop offset="0.207031" stop-color="#BCB6B7"/>
<stop offset="0.210938" stop-color="#BDB7B8"/>
<stop offset="0.214844" stop-color="#BEB8B9"/>
<stop offset="0.21875" stop-color="#BEB9BA"/>
<stop offset="0.222656" stop-color="#BFBABB"/>
<stop offset="0.226562" stop-color="#C0BBBC"/>
<stop offset="0.230469" stop-color="#C1BCBD"/>
<stop offset="0.234375" stop-color="#C2BDBE"/>
<stop offset="0.238281" stop-color="#C3BEBF"/>
<stop offset="0.242188" stop-color="#C3BEBF"/>
<stop offset="0.246094" stop-color="#C4BFC0"/>
<stop offset="0.25" stop-color="#C5C0C1"/>
<stop offset="0.253906" stop-color="#C6C1C2"/>
<stop offset="0.257813" stop-color="#C6C2C3"/>
<stop offset="0.261719" stop-color="#C7C3C3"/>
<stop offset="0.265625" stop-color="#C8C3C4"/>
<stop offset="0.269531" stop-color="#C9C4C5"/>
<stop offset="0.273438" stop-color="#C9C5C6"/>
<stop offset="0.277344" stop-color="#CAC6C7"/>
<stop offset="0.28125" stop-color="#CBC7C7"/>
<stop offset="0.285156" stop-color="#CCC7C8"/>
<stop offset="0.289063" stop-color="#CCC8C9"/>
<stop offset="0.292969" stop-color="#CDC9CA"/>
<stop offset="0.296875" stop-color="#CECACB"/>
<stop offset="0.300781" stop-color="#CFCBCB"/>
<stop offset="0.304688" stop-color="#CFCCCC"/>
<stop offset="0.308594" stop-color="#D0CCCD"/>
<stop offset="0.3125" stop-color="#D1CDCE"/>
<stop offset="0.316406" stop-color="#D2CECF"/>
<stop offset="0.320313" stop-color="#D2CFCF"/>
<stop offset="0.324219" stop-color="#D3D0D0"/>
<stop offset="0.328125" stop-color="#D4D0D1"/>
<stop offset="0.332031" stop-color="#D5D1D2"/>
<stop offset="0.335938" stop-color="#D5D2D3"/>
<stop offset="0.339844" stop-color="#D6D3D3"/>
<stop offset="0.34375" stop-color="#D7D4D4"/>
<stop offset="0.347656" stop-color="#D8D5D5"/>
<stop offset="0.351563" stop-color="#D8D5D6"/>
<stop offset="0.355469" stop-color="#D9D6D7"/>
<stop offset="0.359375" stop-color="#DAD7D7"/>
<stop offset="0.363281" stop-color="#DBD8D8"/>
<stop offset="0.367188" stop-color="#DBD9D9"/>
<stop offset="0.371094" stop-color="#DCDADA"/>
<stop offset="0.375" stop-color="#DDDADB"/>
<stop offset="0.378906" stop-color="#DEDBDB"/>
<stop offset="0.382813" stop-color="#DEDCDC"/>
<stop offset="0.386719" stop-color="#DFDDDD"/>
<stop offset="0.390625" stop-color="#E0DEDE"/>
<stop offset="0.394531" stop-color="#E1DEDF"/>
<stop offset="0.398438" stop-color="#E1DFE0"/>
<stop offset="0.402344" stop-color="#E2E0E0"/>
<stop offset="0.40625" stop-color="#E3E1E1"/>
<stop offset="0.410156" stop-color="#E4E2E2"/>
<stop offset="0.414063" stop-color="#E4E3E3"/>
<stop offset="0.417969" stop-color="#E5E3E4"/>
<stop offset="0.421875" stop-color="#E6E4E4"/>
<stop offset="0.425781" stop-color="#E6E5E5"/>
<stop offset="0.429688" stop-color="#E7E6E6"/>
<stop offset="0.433594" stop-color="#E8E7E7"/>
<stop offset="0.4375" stop-color="#E9E7E8"/>
<stop offset="0.441406" stop-color="#E9E8E8"/>
<stop offset="0.445313" stop-color="#EAE9E9"/>
<stop offset="0.449219" stop-color="#EBEAEA"/>
<stop offset="0.453125" stop-color="#ECEBEB"/>
<stop offset="0.457031" stop-color="#ECEBEB"/>
<stop offset="0.460938" stop-color="#EDECEC"/>
<stop offset="0.464844" stop-color="#EDECEC"/>
<stop offset="0.46875" stop-color="#EEEDED"/>
<stop offset="0.472656" stop-color="#EEEEEE"/>
<stop offset="0.476563" stop-color="#EFEEEE"/>
<stop offset="0.480469" stop-color="#EFEFEF"/>
<stop offset="0.484375" stop-color="#F0EFEF"/>
<stop offset="0.488281" stop-color="#F1F0F0"/>
<stop offset="0.492188" stop-color="#F1F1F1"/>
<stop offset="0.496094" stop-color="#F2F1F1"/>
<stop offset="0.5" stop-color="#F2F2F2"/>
<stop offset="0.503906" stop-color="#F3F2F2"/>
<stop offset="0.507813" stop-color="#F3F3F3"/>
<stop offset="0.511719" stop-color="#F4F4F4"/>
<stop offset="0.515625" stop-color="#F5F4F4"/>
<stop offset="0.519531" stop-color="#F5F5F5"/>
<stop offset="0.523438" stop-color="#F6F5F5"/>
<stop offset="0.527344" stop-color="#F6F6F6"/>
<stop offset="0.53125" stop-color="#F7F7F7"/>
<stop offset="0.535156" stop-color="#F7F7F7"/>
<stop offset="0.539062" stop-color="#F8F8F8"/>
<stop offset="0.542969" stop-color="#F8F8F8"/>
<stop offset="0.546875" stop-color="#F9F9F9"/>
<stop offset="0.550781" stop-color="#FAFAFA"/>
<stop offset="0.554688" stop-color="#FAFAFA"/>
<stop offset="0.5625" stop-color="#FBFBFB"/>
<stop offset="0.625" stop-color="#FBFBFB"/>
<stop offset="0.75" stop-color="#FBFBFB"/>
<stop offset="1" stop-color="#FBFBFB"/>
</linearGradient>
<linearGradient id="paint1_linear_2314_2679" x1="11.28" y1="188.608" x2="157.995" y2="188.608" gradientUnits="userSpaceOnUse">
<stop stop-color="#8F8587"/>
<stop offset="0.00390625" stop-color="#908688"/>
<stop offset="0.0078125" stop-color="#918789"/>
<stop offset="0.0117188" stop-color="#91888A"/>
<stop offset="0.015625" stop-color="#92898A"/>
<stop offset="0.0195312" stop-color="#938A8B"/>
<stop offset="0.0234375" stop-color="#948A8C"/>
<stop offset="0.0273438" stop-color="#958B8D"/>
<stop offset="0.03125" stop-color="#968C8E"/>
<stop offset="0.0351563" stop-color="#968D8F"/>
<stop offset="0.0390625" stop-color="#978E90"/>
<stop offset="0.0429688" stop-color="#988F91"/>
<stop offset="0.046875" stop-color="#999091"/>
<stop offset="0.0507813" stop-color="#9A9192"/>
<stop offset="0.0546875" stop-color="#9A9293"/>
<stop offset="0.0585938" stop-color="#9B9294"/>
<stop offset="0.0625" stop-color="#9C9395"/>
<stop offset="0.0664062" stop-color="#9D9496"/>
<stop offset="0.0703125" stop-color="#9E9597"/>
<stop offset="0.0742188" stop-color="#9E9698"/>
<stop offset="0.078125" stop-color="#9F9798"/>
<stop offset="0.0820312" stop-color="#A09899"/>
<stop offset="0.0859375" stop-color="#A1999A"/>
<stop offset="0.0898438" stop-color="#A29A9B"/>
<stop offset="0.09375" stop-color="#A39A9C"/>
<stop offset="0.0976562" stop-color="#A39B9D"/>
<stop offset="0.101562" stop-color="#A49C9E"/>
<stop offset="0.105469" stop-color="#A59D9F"/>
<stop offset="0.109375" stop-color="#A69E9F"/>
<stop offset="0.113281" stop-color="#A79FA0"/>
<stop offset="0.117188" stop-color="#A7A0A1"/>
<stop offset="0.121094" stop-color="#A8A1A2"/>
<stop offset="0.125" stop-color="#A9A2A3"/>
<stop offset="0.128906" stop-color="#AAA2A4"/>
<stop offset="0.132812" stop-color="#ABA3A5"/>
<stop offset="0.136719" stop-color="#ABA4A6"/>
<stop offset="0.140625" stop-color="#ACA5A6"/>
<stop offset="0.144531" stop-color="#ADA6A7"/>
<stop offset="0.148438" stop-color="#AEA7A8"/>
<stop offset="0.152344" stop-color="#AFA8A9"/>
<stop offset="0.15625" stop-color="#B0A9AA"/>
<stop offset="0.160156" stop-color="#B0AAAB"/>
<stop offset="0.164062" stop-color="#B1AAAC"/>
<stop offset="0.167969" stop-color="#B2ABAD"/>
<stop offset="0.171875" stop-color="#B3ACAD"/>
<stop offset="0.175781" stop-color="#B4ADAE"/>
<stop offset="0.179688" stop-color="#B4AEAF"/>
<stop offset="0.183594" stop-color="#B5AFB0"/>
<stop offset="0.1875" stop-color="#B6B0B1"/>
<stop offset="0.191406" stop-color="#B7B1B2"/>
<stop offset="0.195312" stop-color="#B8B2B3"/>
<stop offset="0.199219" stop-color="#B9B2B4"/>
<stop offset="0.203125" stop-color="#B9B3B4"/>
<stop offset="0.207031" stop-color="#BAB4B5"/>
<stop offset="0.210938" stop-color="#BBB5B6"/>
<stop offset="0.214844" stop-color="#BCB6B7"/>
<stop offset="0.21875" stop-color="#BDB7B8"/>
<stop offset="0.222656" stop-color="#BDB8B9"/>
<stop offset="0.226562" stop-color="#BEB9BA"/>
<stop offset="0.230469" stop-color="#BFBABB"/>
<stop offset="0.234375" stop-color="#C0BABB"/>
<stop offset="0.238281" stop-color="#C1BBBC"/>
<stop offset="0.242188" stop-color="#C1BCBD"/>
<stop offset="0.246094" stop-color="#C2BDBE"/>
<stop offset="0.25" stop-color="#C3BEBF"/>
<stop offset="0.253906" stop-color="#C4BFC0"/>
<stop offset="0.257812" stop-color="#C5C0C1"/>
<stop offset="0.261719" stop-color="#C5C0C1"/>
<stop offset="0.265625" stop-color="#C6C1C2"/>
<stop offset="0.269531" stop-color="#C7C2C3"/>
<stop offset="0.273438" stop-color="#C8C3C4"/>
<stop offset="0.277344" stop-color="#C8C4C5"/>
<stop offset="0.28125" stop-color="#C9C5C5"/>
<stop offset="0.285156" stop-color="#CAC5C6"/>
<stop offset="0.289062" stop-color="#CBC6C7"/>
<stop offset="0.292969" stop-color="#CBC7C8"/>
<stop offset="0.296875" stop-color="#CCC8C9"/>
<stop offset="0.300781" stop-color="#CDC9C9"/>
<stop offset="0.304688" stop-color="#CDC9CA"/>
<stop offset="0.308594" stop-color="#CECACB"/>
<stop offset="0.3125" stop-color="#CFCBCC"/>
<stop offset="0.316406" stop-color="#D0CCCD"/>
<stop offset="0.320312" stop-color="#D0CDCD"/>
<stop offset="0.324219" stop-color="#D1CECE"/>
<stop offset="0.328125" stop-color="#D2CECF"/>
<stop offset="0.332031" stop-color="#D3CFD0"/>
<stop offset="0.335938" stop-color="#D3D0D1"/>
<stop offset="0.339844" stop-color="#D4D1D1"/>
<stop offset="0.34375" stop-color="#D5D2D2"/>
<stop offset="0.347656" stop-color="#D6D2D3"/>
<stop offset="0.351562" stop-color="#D6D3D4"/>
<stop offset="0.355469" stop-color="#D7D4D5"/>
<stop offset="0.359375" stop-color="#D8D5D5"/>
<stop offset="0.363281" stop-color="#D9D6D6"/>
<stop offset="0.367188" stop-color="#D9D7D7"/>
<stop offset="0.371094" stop-color="#DAD7D8"/>
<stop offset="0.375" stop-color="#DBD8D9"/>
<stop offset="0.378906" stop-color="#DCD9D9"/>
<stop offset="0.382812" stop-color="#DCDADA"/>
<stop offset="0.386719" stop-color="#DDDBDB"/>
<stop offset="0.390625" stop-color="#DEDCDC"/>
<stop offset="0.394531" stop-color="#DFDCDD"/>
<stop offset="0.398438" stop-color="#DFDDDD"/>
<stop offset="0.402344" stop-color="#E0DEDE"/>
<stop offset="0.40625" stop-color="#E1DFDF"/>
<stop offset="0.410156" stop-color="#E2E0E0"/>
<stop offset="0.414062" stop-color="#E2E0E1"/>
<stop offset="0.417969" stop-color="#E3E1E1"/>
<stop offset="0.421875" stop-color="#E4E2E2"/>
<stop offset="0.425781" stop-color="#E5E3E3"/>
<stop offset="0.429688" stop-color="#E5E4E4"/>
<stop offset="0.433594" stop-color="#E6E5E5"/>
<stop offset="0.4375" stop-color="#E7E5E5"/>
<stop offset="0.441406" stop-color="#E8E6E6"/>
<stop offset="0.445312" stop-color="#E8E7E7"/>
<stop offset="0.449219" stop-color="#E9E8E8"/>
<stop offset="0.453125" stop-color="#EAE9E9"/>
<stop offset="0.457031" stop-color="#EBE9E9"/>
<stop offset="0.460938" stop-color="#EBEAEA"/>
<stop offset="0.464844" stop-color="#ECEBEB"/>
<stop offset="0.46875" stop-color="#ECEBEB"/>
<stop offset="0.472656" stop-color="#EDECEC"/>
<stop offset="0.476562" stop-color="#EDEDED"/>
<stop offset="0.480469" stop-color="#EEEDED"/>
<stop offset="0.484375" stop-color="#EFEEEE"/>
<stop offset="0.488281" stop-color="#EFEEEE"/>
<stop offset="0.492188" stop-color="#F0EFEF"/>
<stop offset="0.496094" stop-color="#F0F0F0"/>
<stop offset="0.5" stop-color="#F1F0F0"/>
<stop offset="0.503906" stop-color="#F1F1F1"/>
<stop offset="0.507812" stop-color="#F2F1F1"/>
<stop offset="0.511719" stop-color="#F3F2F2"/>
<stop offset="0.515625" stop-color="#F3F3F3"/>
<stop offset="0.519531" stop-color="#F4F3F3"/>
<stop offset="0.523438" stop-color="#F4F4F4"/>
<stop offset="0.527344" stop-color="#F5F4F4"/>
<stop offset="0.53125" stop-color="#F5F5F5"/>
<stop offset="0.535156" stop-color="#F6F6F6"/>
<stop offset="0.539062" stop-color="#F6F6F6"/>
<stop offset="0.542969" stop-color="#F7F7F7"/>
<stop offset="0.546875" stop-color="#F8F7F7"/>
<stop offset="0.550781" stop-color="#F8F8F8"/>
<stop offset="0.554688" stop-color="#F9F9F9"/>
<stop offset="0.558594" stop-color="#F9F9F9"/>
<stop offset="0.5625" stop-color="#FAFAFA"/>
<stop offset="0.566406" stop-color="#FAFAFA"/>
<stop offset="0.570312" stop-color="#FBFBFB"/>
<stop offset="0.578125" stop-color="#FBFBFB"/>
<stop offset="0.59375" stop-color="#FBFBFB"/>
<stop offset="0.625" stop-color="#FBFBFB"/>
<stop offset="0.75" stop-color="#FBFBFB"/>
<stop offset="1" stop-color="#FBFBFB"/>
</linearGradient>
</defs>
</svg>
