<svg width="169" height="239" viewBox="0 0 169 239" fill="none" xmlns="http://www.w3.org/2000/svg">
<path d="M162.656 238.262H6.14062C2.81641 238.262 0.125 235.547 0.125 232.199V6.62891C0.125 3.28516 2.81641 0.570312 6.14062 0.570312H162.656C165.98 0.570312 168.672 3.28516 168.672 6.62891V232.199C168.672 235.547 165.98 238.262 162.656 238.262Z" fill="white"/>
<mask id="mask0_2314_2676" style="mask-type:luminance" maskUnits="userSpaceOnUse" x="11" y="10" width="147" height="79">
<path d="M11 10H158V89H11V10Z" fill="white"/>
</mask>
<g mask="url(#mask0_2314_2676)">
<mask id="mask1_2314_2676" style="mask-type:luminance" maskUnits="userSpaceOnUse" x="11" y="10" width="147" height="79">
<path d="M157.805 88.3125C157.805 62.4141 157.813 36.5117 157.82 10.6133C108.965 10.6133 60.1016 10.6133 11.2461 10.6211C11.2266 36.0977 11.2031 61.5742 11.1797 87.0508C13.7461 75.6133 18.9219 58.7461 28.7891 49.7383C36.3438 42.8555 40.1133 39.4062 43.0703 38.0234C44.4414 37.3789 48.8281 35.4844 52.4609 31.0508C53.1367 30.2344 53.6211 29.5117 53.9297 29.0312C54.2461 29.4531 55.4609 31.0039 57.1328 31.0352C59.3086 31.0742 61.7383 28.5234 61.8594 24.6836C62.1133 25.2539 64.25 29.7969 69.1094 30.8242C71.4492 31.3203 73.4141 30.7969 74.4258 30.4336C75.0859 29.8867 75.9648 29.0391 76.7656 27.8242C77.5547 26.6328 77.9844 25.5156 78.2305 24.7031H90.7773C90.8516 25.1719 91.4609 28.5977 94.5781 30.3086C97.6328 31.9805 100.73 30.7031 101.684 30.3242C104.977 28.9961 106.371 26.2578 106.676 25.6133C107.422 29.1523 109.895 31.3438 112.07 31.1719C112.422 31.1406 113.555 30.9883 114.734 29.6719L118.488 32.7969C119.961 33.668 122.023 34.9492 124.398 36.6133C127.191 38.5664 136.445 45.1367 143.711 54.5781C153.363 67.1172 156.598 80.9258 157.797 88.2969L157.805 88.3125Z" fill="white"/>
</mask>
<g mask="url(#mask1_2314_2676)">
<path d="M11.1797 10.6133V88.3125H157.82V10.6133H11.1797Z" fill="#FBFBFB"/>
</g>
</g>
<path d="M158.195 228.406H10.7227C10.7227 183.074 10.7227 137.746 10.7227 92.4141C10.7227 65.0234 10.7227 37.6406 10.7227 10.2539H158.195C158.195 37.5977 158.195 64.9414 158.195 92.289C158.195 137.664 158.195 183.031 158.195 228.406Z" stroke="#0E0E0E" stroke-width="0.75" stroke-linecap="round" stroke-linejoin="round"/>
<path d="M84.3711 32.6836C84.3203 32.0625 84.0664 29.8789 82.2578 28.0273C80.6367 26.3633 78.7344 25.9648 78.0781 25.8516C78.1328 25.1992 78.1836 24.5469 78.2383 23.8945C79.0938 23.4961 80.8086 22.5508 82.2344 20.6406C83.6836 18.6992 84.0937 16.7617 84.2305 15.8242C84.5664 16.9961 85.3086 18.9961 87.0039 20.9492C88.3086 22.4492 89.6992 23.3633 90.6562 23.8945C90.7109 24.5469 90.7617 25.1992 90.8164 25.8516C90.3516 25.8984 87.3594 26.2422 85.5586 28.8594C84.5 30.4062 84.3711 31.9805 84.3594 32.6836H84.3711Z" fill="white"/>
<path d="M53.1641 22.2461C53.9961 22.0039 55.3711 21.7422 56.9219 22.1172C58.2813 22.4414 59.1953 23.1015 59.711 23.4882C64.2735 26.9101 64.9492 29.5664 68.082 30.7656C68.4883 30.9218 71.4219 31.8906 74.375 30.5117C76.4609 29.5351 77.9453 27.3164 78.1758 24.9062C78.5078 21.457 76.1094 18.0468 73.3242 17.4218C73.0039 17.3476 71.2461 16.957 69.8164 18.0312C69.6367 18.164 68.5235 19.0195 68.3672 20.5273C68.3438 20.7539 68.1641 22.6953 69.6485 23.6406C70.4844 24.164 71.5391 24.1953 72.3789 23.8047C73.5742 23.2578 74.293 21.8867 74.1055 20.414C74.3984 20.7383 74.8008 21.2382 75.125 21.9297C75.2812 22.2617 76.3008 24.5156 75.3282 26.6836C74.1407 29.3242 70.9102 29.789 70.4766 29.8515C67.586 30.2617 64.5859 28.7461 62.6211 26.0234" stroke="#0E0E0E" stroke-width="0.75" stroke-linecap="round" stroke-linejoin="round"/>
<path d="M78.2383 23.8047C78.8086 23.5273 79.6992 23.0234 80.6094 22.1992C83.5117 19.5508 84.043 15.8789 84.2813 14.2422C84.418 13.3203 84.5391 11.9492 84.3789 10.2461" stroke="#0E0E0E" stroke-width="0.75" stroke-linecap="round" stroke-linejoin="round"/>
<path d="M78.0781 25.7617C78.793 25.8906 79.5664 26.1133 80.3281 26.5039C83.7891 28.2656 84.2969 31.957 84.3711 32.5938" stroke="#0E0E0E" stroke-width="0.75" stroke-linecap="round" stroke-linejoin="round"/>
<path d="M115.746 22.2461C114.914 22.0039 113.539 21.7422 111.988 22.1172C110.629 22.4414 109.715 23.1015 109.199 23.4882C104.637 26.9101 103.961 29.5664 100.828 30.7656C100.422 30.9218 97.4883 31.8906 94.5352 30.5117C92.4493 29.5351 90.9649 27.3164 90.7344 24.9062C90.4024 21.457 92.8008 18.0468 95.5859 17.4218C95.9063 17.3476 97.6641 16.957 99.0938 18.0312C99.2735 18.164 100.387 19.0195 100.543 20.5273C100.566 20.7539 100.746 22.6953 99.2617 23.6406C98.4258 24.164 97.3711 24.1953 96.5313 23.8047C95.336 23.2578 94.6172 21.8867 94.8047 20.414C94.5118 20.7383 94.1094 21.2382 93.7852 21.9297C93.6289 22.2617 92.6094 24.5156 93.582 26.6836C94.7656 29.3242 98 29.789 98.4336 29.8515C101.324 30.2617 104.324 28.7461 106.289 26.0234" stroke="#0E0E0E" stroke-width="0.75" stroke-linecap="round" stroke-linejoin="round"/>
<path d="M90.8281 25.7617C90.1172 25.8906 89.3438 26.1133 88.5781 26.5039C85.1211 28.2656 84.6133 31.957 84.5391 32.5938" stroke="#0E0E0E" stroke-width="0.75" stroke-linecap="round" stroke-linejoin="round"/>
<path d="M115.039 29.1016C114.926 29.3555 114.336 30.668 112.949 31.1016C111.477 31.5664 110.188 30.7109 109.648 30.3516C107.375 28.8438 107.148 25.9727 107.129 25.5078" stroke="#0E0E0E" stroke-width="0.75" stroke-linecap="round" stroke-linejoin="round"/>
<path d="M123.012 36.0157C122.367 35.6485 121.461 35.0938 120.441 34.3516C117.492 32.2032 115.191 30.5313 114.59 27.8008C114.043 25.3204 115.16 23.2266 115.355 22.8751C117.191 19.5587 121.039 19.0118 121.836 18.922C125.414 18.5157 129.043 20.4063 131.316 23.7071" stroke="#0E0E0E" stroke-width="0.75" stroke-linecap="round" stroke-linejoin="round"/>
<path d="M130.82 41.1601C130.859 33.4414 128.969 27.3828 125.977 25.7109C124.437 24.8555 122.879 24.832 122.879 24.832C122.359 24.832 119.742 24.8711 118.086 27.0312C116.609 28.957 116.977 31.164 117.043 31.539" stroke="#0E0E0E" stroke-width="0.75" stroke-linecap="round" stroke-linejoin="round"/>
<path d="M151.949 37.2617C152.336 37.0664 153.582 36.4883 154.926 36.8321C157.316 37.4414 157.586 40.3281 157.602 40.5391C157.746 42.375 156.621 44.5117 154.477 45.2774C152.824 45.8633 151.234 45.3985 150.387 45.1485C147.641 44.3477 146.137 42.4805 145.387 41.5352C142.984 38.4766 144.156 36.9883 141.695 34.8164C141.027 34.2227 139.676 33.0235 137.609 32.7071C135.453 32.3711 134.57 33.3008 132.606 32.7539C130.676 32.211 129.68 30.7969 129.426 30.3985C129.305 30.2188 127.902 27.961 129.223 25.6875C129.492 25.2149 130.297 23.8438 132.102 23.4453C133.746 23.0938 135.551 23.6914 136.543 24.8711C137.391 25.875 137.637 27.293 136.977 28.418C136.836 28.6641 136.387 29.4297 135.363 29.7383C134.512 29.9922 133.422 29.8789 132.672 29.2813C132.012 28.7461 131.891 28.0664 131.871 27.8633" stroke="#0E0E0E" stroke-width="0.75" stroke-linecap="round" stroke-linejoin="round"/>
<path d="M143.238 36.9141C142.926 33.4961 141.176 30.6836 138.621 29.7656C138.035 29.5586 137.121 29.3477 135.906 29.4961" stroke="#0E0E0E" stroke-width="0.75" stroke-linecap="round" stroke-linejoin="round"/>
<path d="M145.836 42.2188C145.371 42.0977 143.434 41.6485 141.785 42.7266C139.797 44.0313 139.004 47.0547 140.227 49.9219" stroke="#0E0E0E" stroke-width="0.75" stroke-linecap="round" stroke-linejoin="round"/>
<path d="M147.191 52.5234C146.887 52.5078 146.246 52.5156 145.574 52.8672C144.477 53.4453 144.117 54.5039 144.051 54.7422" stroke="#0E0E0E" stroke-width="0.75" stroke-linecap="round" stroke-linejoin="round"/>
<path d="M158.18 91.3359C158.164 91.2305 158.148 91.043 158.121 90.8242C157.535 85.6875 154.227 61.7031 134.504 44.2031C132.051 42.0313 128.246 38.9766 123.012 36.0078" stroke="#0E0E0E" stroke-width="0.75" stroke-linecap="round" stroke-linejoin="round"/>
<path d="M84.3711 32.6836C84.3203 32.0625 84.0664 29.8789 82.2578 28.0274C80.6367 26.3633 78.7344 25.9649 78.0781 25.8516C78.1328 25.1992 78.1836 24.5469 78.2383 23.8945C79.0938 23.4961 80.8086 22.5508 82.2344 20.6406C83.6836 18.6992 84.0937 16.7617 84.2305 15.8242C84.5664 16.9961 85.3086 18.9961 87.0039 20.9492C88.3086 22.4492 89.6992 23.3633 90.6563 23.8945C90.711 24.5469 90.7617 25.1992 90.8164 25.8516C90.3516 25.8985 87.3594 26.2422 85.5586 28.8594C84.5 30.4063 84.3711 31.9805 84.3594 32.6836H84.3711Z" fill="black" stroke="black" stroke-width="0.5625" stroke-linecap="round" stroke-linejoin="round"/>
<path d="M115.746 22.2461C114.914 22.0039 113.539 21.7422 111.988 22.1172C110.629 22.4414 109.715 23.1015 109.199 23.4882C104.637 26.9101 103.961 29.5664 100.828 30.7656C100.422 30.9218 97.4883 31.8906 94.5352 30.5117C92.4493 29.5351 90.9649 27.3164 90.7344 24.9062C90.4024 21.457 92.8008 18.0468 95.5859 17.4218C95.9063 17.3476 97.6641 16.957 99.0938 18.0312C99.2735 18.164 100.387 19.0195 100.543 20.5273C100.566 20.7539 100.746 22.6953 99.2617 23.6406C98.4258 24.164 97.3711 24.1953 96.5313 23.8047C95.336 23.2578 94.6172 21.8867 94.8047 20.414C94.5118 20.7383 94.1094 21.2382 93.7852 21.9297C93.6289 22.2617 92.6094 24.5156 93.582 26.6836C94.7656 29.3242 98 29.789 98.4336 29.8515C101.324 30.2617 104.324 28.7461 106.289 26.0234" stroke="#0E0E0E" stroke-width="0.75" stroke-linecap="round" stroke-linejoin="round"/>
<path d="M90.6719 23.8047C89.5703 23.2578 88.7969 22.6484 88.3008 22.1992C84.9571 19.1562 84.6368 14.6328 84.5157 12.9688C84.4336 11.8281 84.4766 10.8828 84.5313 10.2461" stroke="#0E0E0E" stroke-width="0.75" stroke-linecap="round" stroke-linejoin="round"/>
<path d="M90.8281 25.7617C90.1172 25.8906 89.3438 26.1133 88.5781 26.5039C85.1211 28.2656 84.6133 31.957 84.5391 32.5938" stroke="#0E0E0E" stroke-width="0.75" stroke-linecap="round" stroke-linejoin="round"/>
<path d="M115.039 29.1016C114.926 29.3555 114.336 30.668 112.949 31.1016C111.477 31.5664 110.188 30.7109 109.648 30.3516C107.375 28.8438 107.148 25.9727 107.129 25.5078" stroke="#0E0E0E" stroke-width="0.75" stroke-linecap="round" stroke-linejoin="round"/>
<path d="M123.012 36.0157C122.367 35.6485 121.461 35.0938 120.441 34.3516C117.492 32.2032 115.191 30.5313 114.59 27.8008C114.043 25.3204 115.16 23.2266 115.355 22.8751C117.191 19.5587 121.039 19.0118 121.836 18.922C125.414 18.5157 129.043 20.4063 131.316 23.7071" stroke="#0E0E0E" stroke-width="0.75" stroke-linecap="round" stroke-linejoin="round"/>
<path d="M130.82 41.1601C130.859 33.4414 128.969 27.3828 125.977 25.7109C124.437 24.8555 122.879 24.832 122.879 24.832C122.359 24.832 119.742 24.8711 118.086 27.0312C116.609 28.957 116.977 31.164 117.043 31.539" stroke="#0E0E0E" stroke-width="0.75" stroke-linecap="round" stroke-linejoin="round"/>
<path d="M151.949 37.2617C152.336 37.0664 153.582 36.4883 154.926 36.8321C157.316 37.4414 157.586 40.3281 157.602 40.5391C157.746 42.375 156.621 44.5117 154.477 45.2774C152.824 45.8633 151.234 45.3985 150.387 45.1485C147.641 44.3477 146.137 42.4805 145.387 41.5352C142.984 38.4766 144.156 36.9883 141.695 34.8164C141.027 34.2227 139.676 33.0235 137.609 32.7071C135.453 32.3711 134.57 33.3008 132.606 32.7539C130.676 32.211 129.68 30.7969 129.426 30.3985C129.305 30.2188 127.902 27.961 129.223 25.6875C129.492 25.2149 130.297 23.8438 132.102 23.4453C133.746 23.0938 135.551 23.6914 136.543 24.8711C137.391 25.875 137.637 27.293 136.977 28.418C136.836 28.6641 136.387 29.4297 135.363 29.7383C134.512 29.9922 133.422 29.8789 132.672 29.2813C132.012 28.7461 131.891 28.0664 131.871 27.8633" stroke="#0E0E0E" stroke-width="0.75" stroke-linecap="round" stroke-linejoin="round"/>
<path d="M143.238 36.9141C142.926 33.4961 141.176 30.6836 138.621 29.7656C138.035 29.5586 137.121 29.3477 135.906 29.4961" stroke="#0E0E0E" stroke-width="0.75" stroke-linecap="round" stroke-linejoin="round"/>
<path d="M158.09 48.9843C156.859 46.8749 154.895 45.5624 152.937 45.6835C150.516 45.8319 149.09 48.1054 148.477 49.0859C145.012 54.6132 148.715 62.1679 149.285 63.3007" stroke="#0E0E0E" stroke-width="0.75" stroke-linecap="round" stroke-linejoin="round"/>
<path d="M158.141 90.6602C156.734 81.0078 152.148 59.8945 134.504 44.2109C130.664 40.8008 126.738 38.1211 123.012 36.0156" stroke="#0E0E0E" stroke-width="0.75" stroke-linecap="round" stroke-linejoin="round"/>
<mask id="mask2_2314_2676" style="mask-type:luminance" maskUnits="userSpaceOnUse" x="11" y="148" width="147" height="81">
<path d="M11 148H158V229H11V148Z" fill="white"/>
</mask>
<g mask="url(#mask2_2314_2676)">
<mask id="mask3_2314_2676" style="mask-type:luminance" maskUnits="userSpaceOnUse" x="11" y="148" width="147" height="81">
<path d="M11.0312 148.859C11.0508 175.254 11.0664 201.645 11.0898 228.031C59.9531 228.023 108.816 228.008 157.676 228C157.699 202.523 157.723 177.047 157.746 151.566C152.891 162.855 145.453 176.609 133.91 190.352C129.453 195.645 124.969 200.266 120.641 204.27C119.441 205.859 118.242 207.441 117.051 209.031C116.367 209.219 115.684 209.398 115.004 209.586C114.688 209.168 113.473 207.613 111.801 207.586C109.625 207.547 107.195 210.098 107.074 213.938C106.82 213.367 104.684 208.824 99.8242 207.797C97.4844 207.301 95.5156 207.824 94.5039 208.184C93.8438 208.734 92.9688 209.578 92.1641 210.797C91.3789 211.988 90.9492 213.105 90.7031 213.914H78.1562C78.0781 213.449 77.4727 210.023 74.3516 208.312C71.3008 206.641 68.2031 207.914 67.25 208.297C63.957 209.625 62.5625 212.363 62.2539 213.008C61.5117 209.469 59.0391 207.277 56.8633 207.449C56.5117 207.48 55.3789 207.629 54.1992 208.949C52.9492 207.906 51.6953 206.863 50.4414 205.824C44.6211 202.941 33.7852 196.605 24.6875 184.32C14.0508 169.949 11.6992 155.406 11.0469 148.867L11.0312 148.859Z" fill="white"/>
</mask>
<g mask="url(#mask3_2314_2676)">
<path d="M11.0312 148.859V228.031H157.746V148.859H11.0312Z" fill="#FBFBFB"/>
</g>
</g>
<path d="M84.418 206.137C84.4687 206.762 84.7266 208.941 86.5312 210.797C88.1523 212.461 90.0586 212.859 90.7109 212.969C90.6562 213.621 90.6055 214.273 90.5508 214.926C89.6992 215.324 87.9805 216.27 86.5547 218.184C85.1094 220.125 84.6953 222.059 84.5586 222.996C84.2227 221.828 83.4805 219.824 81.7852 217.875C80.4805 216.375 79.0938 215.461 78.1328 214.926C78.0781 214.273 78.0273 213.621 77.9766 212.969C78.4414 212.926 81.4336 212.578 83.2344 209.961C84.2891 208.418 84.418 206.844 84.4336 206.137H84.418Z" fill="white"/>
<path d="M115.625 216.578C114.793 216.816 113.422 217.078 111.867 216.703C110.512 216.383 109.594 215.723 109.078 215.332C104.516 211.914 103.844 209.258 100.707 208.059C100.301 207.898 97.3711 206.934 94.414 208.313C92.3281 209.289 90.8437 211.508 90.6133 213.914C90.2812 217.363 92.6836 220.777 95.4648 221.398C95.7891 221.477 97.543 221.863 98.9766 220.793C99.1563 220.656 100.266 219.801 100.422 218.297C100.445 218.07 100.625 216.129 99.1406 215.184C98.3086 214.656 97.25 214.629 96.4102 215.016C95.2188 215.566 94.4961 216.938 94.6836 218.406C94.3906 218.086 93.9883 217.582 93.664 216.891C93.5078 216.563 92.4883 214.305 93.4609 212.137C94.6484 209.496 97.8789 209.031 98.3164 208.973C101.203 208.559 104.203 210.074 106.168 212.797" stroke="#0E0E0E" stroke-width="0.75" stroke-linecap="round" stroke-linejoin="round"/>
<path d="M90.5508 215.016C89.4961 215.543 88.7227 216.137 88.1836 216.621C85.0703 219.449 84.6133 223.566 84.3945 225.496C84.2539 226.746 84.2656 227.781 84.2969 228.422" stroke="#0E0E0E" stroke-width="0.75" stroke-linecap="round" stroke-linejoin="round"/>
<path d="M90.7109 213.059C89.9961 212.934 89.2266 212.707 88.4609 212.316C85.0039 210.555 84.4922 206.863 84.418 206.227" stroke="#0E0E0E" stroke-width="0.75" stroke-linecap="round" stroke-linejoin="round"/>
<path d="M53.0508 216.578C53.8867 216.816 55.2578 217.078 56.8086 216.703C58.168 216.383 59.0821 215.723 59.6016 215.332C64.1602 211.914 64.836 209.258 67.9688 208.059C68.375 207.898 71.3086 206.934 74.2617 208.313C76.3477 209.289 77.832 211.508 78.0664 213.914C78.3945 217.363 75.9961 220.777 73.211 221.398C72.8906 221.477 71.1367 221.863 69.7032 220.793C69.5235 220.656 68.4141 219.801 68.2539 218.297C68.2344 218.07 68.0508 216.129 69.5391 215.184C70.3711 214.656 71.4258 214.629 72.2656 215.016C73.4609 215.566 74.1797 216.938 73.9922 218.406C74.2852 218.086 74.6914 217.582 75.0117 216.891C75.1719 216.563 76.1914 214.305 75.2149 212.137C74.0313 209.496 70.7969 209.031 70.3633 208.973C67.4766 208.559 64.4766 210.074 62.5117 212.797" stroke="#0E0E0E" stroke-width="0.75" stroke-linecap="round" stroke-linejoin="round"/>
<path d="M77.9688 213.059C78.6484 212.953 79.4297 212.738 80.2188 212.316C83.4258 210.621 84.2617 207 84.418 206.227" stroke="#0E0E0E" stroke-width="0.75" stroke-linecap="round" stroke-linejoin="round"/>
<path d="M53.7578 209.723C53.8711 209.469 54.461 208.156 55.8516 207.719C57.3203 207.254 58.6094 208.109 59.1484 208.469C61.4219 209.977 61.6484 212.852 61.6719 213.316" stroke="#0E0E0E" stroke-width="0.75" stroke-linecap="round" stroke-linejoin="round"/>
<path d="M45.7852 202.809C46.4297 203.176 47.3359 203.73 48.3594 204.473C51.3047 206.617 53.6094 208.289 54.207 211.02C54.7539 213.504 53.6367 215.594 53.4414 215.949C51.6055 219.262 47.7578 219.809 46.961 219.898C43.3867 220.305 39.7539 218.414 37.4844 215.113" stroke="#0E0E0E" stroke-width="0.75" stroke-linecap="round" stroke-linejoin="round"/>
<path d="M37.9766 197.664C37.9414 205.379 39.8281 211.441 42.8242 213.113C44.3594 213.969 45.9219 213.988 45.9219 213.988C46.4375 213.988 49.0547 213.953 50.7109 211.793C52.1914 209.863 51.8242 207.66 51.7539 207.285" stroke="#0E0E0E" stroke-width="0.75" stroke-linecap="round" stroke-linejoin="round"/>
<path d="M16.8516 201.563C16.4609 201.758 15.2148 202.336 13.8711 201.988C11.4804 201.383 11.2109 198.496 11.1953 198.285C11.0508 196.449 12.1758 194.309 14.3242 193.547C15.9727 192.961 17.5625 193.426 18.4102 193.672C21.1563 194.477 22.6641 196.344 23.4141 197.289C25.8125 200.348 24.6406 201.832 27.1015 204.008C27.7695 204.602 29.1211 205.801 31.1914 206.113C33.3437 206.453 34.2266 205.524 36.1914 206.07C38.1211 206.609 39.1172 208.027 39.3711 208.426C39.4922 208.606 40.8945 210.863 39.5742 213.137C39.3047 213.609 38.5039 214.981 36.6953 215.379C35.0508 215.731 33.2461 215.129 32.2539 213.953C31.4062 212.949 31.1602 211.531 31.8203 210.406C31.9609 210.156 32.4141 209.391 33.4336 209.086C34.2891 208.828 35.375 208.942 36.125 209.543C36.7851 210.074 36.9063 210.758 36.9258 210.961" stroke="#0E0E0E" stroke-width="0.75" stroke-linecap="round" stroke-linejoin="round"/>
<path d="M25.5586 201.914C25.8711 205.336 27.6211 208.148 30.1758 209.062C30.7617 209.273 31.6758 209.484 32.8906 209.332" stroke="#0E0E0E" stroke-width="0.75" stroke-linecap="round" stroke-linejoin="round"/>
<path d="M22.9531 196.605C23.4336 196.727 25.3555 197.16 27.0039 196.094C29.0078 194.789 29.8242 191.766 28.6172 188.887" stroke="#0E0E0E" stroke-width="0.75" stroke-linecap="round" stroke-linejoin="round"/>
<path d="M21.5977 186.301C21.9063 186.316 22.543 186.309 23.2188 185.953C24.3438 185.363 24.6875 184.262 24.7539 184.035" stroke="#0E0E0E" stroke-width="0.75" stroke-linecap="round" stroke-linejoin="round"/>
<path d="M10.7461 146.715C11.9453 156.375 16.1602 178.453 34.2969 194.617C38.1289 198.031 42.043 200.707 45.7852 202.816" stroke="#0E0E0E" stroke-width="0.75" stroke-linecap="round" stroke-linejoin="round"/>
<path d="M84.418 206.137C84.4687 206.762 84.7266 208.941 86.5313 210.797C88.1524 212.461 90.0586 212.859 90.7109 212.969C90.6562 213.621 90.6055 214.273 90.5508 214.926C90.086 215.137 89.4492 215.469 88.7656 215.984C87.2305 217.164 86.4961 218.543 85.8516 219.789C85.2891 220.883 84.5586 222.578 84.1836 224.812C84.1758 223.738 84.0117 220.656 81.7773 217.867C80.5117 216.277 79.0547 215.387 78.125 214.922C78.0742 214.266 78.0195 213.613 77.9688 212.961C78.4336 212.918 81.4258 212.574 83.2266 209.953C84.2813 208.41 84.4102 206.836 84.4258 206.129L84.418 206.137Z" fill="black" stroke="black" stroke-width="0.5625" stroke-linecap="round" stroke-linejoin="round"/>
<path d="M53.0508 216.578C53.8867 216.816 55.2578 217.078 56.8086 216.703C58.168 216.383 59.0821 215.723 59.6016 215.332C64.1602 211.914 64.836 209.258 67.9688 208.059C68.375 207.898 71.3086 206.934 74.2617 208.313C76.3477 209.289 77.832 211.508 78.0664 213.914C78.3945 217.363 75.9961 220.777 73.211 221.398C72.8906 221.477 71.1367 221.863 69.7032 220.793C69.5235 220.656 68.4141 219.801 68.2539 218.297C68.2344 218.07 68.0508 216.129 69.5391 215.184C70.3711 214.656 71.4258 214.629 72.2656 215.016C73.4609 215.566 74.1797 216.938 73.9922 218.406C74.2852 218.086 74.6914 217.582 75.0117 216.891C75.1719 216.563 76.1914 214.305 75.2149 212.137C74.0313 209.496 70.7969 209.031 70.3633 208.973C67.4766 208.559 64.4766 210.074 62.5117 212.797" stroke="#0E0E0E" stroke-width="0.75" stroke-linecap="round" stroke-linejoin="round"/>
<path d="M78.125 215.016C78.7461 215.316 79.6172 215.82 80.4961 216.621C82.3477 218.332 83.0157 220.313 83.5313 221.934C84.336 224.438 84.418 226.719 84.3047 228.422" stroke="#0E0E0E" stroke-width="0.75" stroke-linecap="round" stroke-linejoin="round"/>
<path d="M77.9688 213.059C78.6484 212.953 79.4297 212.738 80.2188 212.316C83.457 210.602 84.2656 206.895 84.418 206.137" stroke="#0E0E0E" stroke-width="0.75" stroke-linecap="round" stroke-linejoin="round"/>
<path d="M53.7578 209.723C53.8711 209.469 54.461 208.156 55.8516 207.719C57.3203 207.254 58.6094 208.109 59.1484 208.469C61.4219 209.977 61.6484 212.852 61.6719 213.316" stroke="#0E0E0E" stroke-width="0.75" stroke-linecap="round" stroke-linejoin="round"/>
<path d="M45.7852 202.809C46.4297 203.176 47.3359 203.73 48.3594 204.473C51.3047 206.617 53.6094 208.289 54.207 211.02C54.7539 213.504 53.6367 215.594 53.4414 215.949C51.6055 219.262 47.7578 219.809 46.961 219.898C43.3867 220.305 39.7539 218.414 37.4844 215.113" stroke="#0E0E0E" stroke-width="0.75" stroke-linecap="round" stroke-linejoin="round"/>
<path d="M37.9766 197.664C37.9414 205.379 39.8281 211.441 42.8242 213.113C44.3594 213.969 45.9219 213.988 45.9219 213.988C46.4375 213.988 49.0547 213.953 50.7109 211.793C52.1914 209.863 51.8242 207.66 51.7539 207.285" stroke="#0E0E0E" stroke-width="0.75" stroke-linecap="round" stroke-linejoin="round"/>
<path d="M16.8516 201.563C16.4609 201.758 15.2148 202.336 13.8711 201.988C11.4804 201.383 11.2109 198.496 11.1953 198.285C11.0508 196.449 12.1758 194.309 14.3242 193.547C15.9727 192.961 17.5625 193.426 18.4102 193.672C21.1563 194.477 22.6641 196.344 23.4141 197.289C25.8125 200.348 24.6406 201.832 27.1015 204.008C27.7695 204.602 29.1211 205.801 31.1914 206.113C33.3437 206.453 34.2266 205.524 36.1914 206.07C38.1211 206.609 39.1172 208.027 39.3711 208.426C39.4922 208.606 40.8945 210.863 39.5742 213.137C39.3047 213.609 38.5039 214.981 36.6953 215.379C35.0508 215.731 33.2461 215.129 32.2539 213.953C31.4062 212.949 31.1602 211.531 31.8203 210.406C31.9609 210.156 32.4141 209.391 33.4336 209.086C34.2891 208.828 35.375 208.942 36.125 209.543C36.7851 210.074 36.9063 210.758 36.9258 210.961" stroke="#0E0E0E" stroke-width="0.75" stroke-linecap="round" stroke-linejoin="round"/>
<path d="M25.5586 201.914C25.8711 205.336 27.6211 208.148 30.1758 209.062C30.7617 209.273 31.6758 209.484 32.8906 209.332" stroke="#0E0E0E" stroke-width="0.75" stroke-linecap="round" stroke-linejoin="round"/>
<path d="M10.7891 189.977C10.8789 190.125 12.875 193.32 15.8594 193.133C18.2735 192.984 19.6992 190.719 20.3242 189.727C23.7813 184.207 20.0821 176.648 19.5117 175.516" stroke="#0E0E0E" stroke-width="0.75" stroke-linecap="round" stroke-linejoin="round"/>
<path d="M22.9531 196.605C23.4336 196.727 25.3555 197.16 27.0039 196.094C29.0078 194.789 29.8242 191.766 28.6172 188.887" stroke="#0E0E0E" stroke-width="0.75" stroke-linecap="round" stroke-linejoin="round"/>
<path d="M21.5977 186.301C21.9063 186.316 22.543 186.309 23.2188 185.953C24.3438 185.363 24.6875 184.262 24.7539 184.035" stroke="#0E0E0E" stroke-width="0.75" stroke-linecap="round" stroke-linejoin="round"/>
<path d="M10.7461 146.715C11.9453 156.375 16.1602 178.453 34.2969 194.617C38.1289 198.031 42.043 200.707 45.7852 202.816" stroke="#0E0E0E" stroke-width="0.75" stroke-linecap="round" stroke-linejoin="round"/>
<path d="M22.3086 44.1133L22.6641 44.0859V45.1484H16.5781V44.0859L16.9336 44.1133C17.3008 44.1094 17.6094 43.9492 17.8633 43.6484C18.1094 43.3516 18.2383 42.9883 18.2383 42.5625V27.1133H16.5781V26.2031L16.8438 26.1445L17.3164 26.0156C17.5938 25.9336 17.8633 25.8242 18.1172 25.6719C18.5664 25.3789 18.957 24.9883 19.3008 24.5117C19.4609 24.2695 19.5938 24.0156 19.707 23.7461C19.7656 23.6172 19.8203 23.4844 19.8633 23.3398C19.8789 23.2812 19.9258 23.1367 19.9844 22.9141L20.0664 22.6289H21.0273V42.5703C21.0273 42.9961 21.1562 43.3633 21.4023 43.6562C21.6484 43.9492 21.957 44.1094 22.3164 44.1211L22.3086 44.1133Z" fill="black"/>
<path d="M40.8594 26.0117C41.7109 27.0977 42.3711 28.3281 42.8281 29.6992C43.2891 31.0742 43.5117 32.5039 43.5117 34.0117C43.5117 35.5195 43.2812 36.9844 42.8086 38.3633C42.3437 39.75 41.6602 40.9883 40.7734 42.0898C39.8906 43.1719 38.8867 43.9961 37.7539 44.5664C36.6211 45.1406 35.4336 45.4258 34.1914 45.4258C32.9453 45.4258 31.8047 45.1484 30.6875 44.5859C29.5703 44.0234 28.5742 43.2227 27.6875 42.1641L27.5469 41.9922C26.6914 40.9062 26.0312 39.6758 25.5742 38.3008C25.1133 36.9297 24.8906 35.4961 24.8906 34.0039C24.8906 32.5117 25.1211 31.0195 25.5938 29.6328C26.0586 28.2461 26.7344 27.0078 27.6133 25.9219C28.5039 24.832 29.5156 24 30.6406 23.4219C31.7656 22.8438 32.9531 22.5586 34.1992 22.5586C35.4414 22.5586 36.5977 22.8359 37.707 23.3984C38.8242 23.9609 39.8242 24.7656 40.707 25.8242C40.7539 25.8828 40.7969 25.9414 40.8516 25.9961L40.8594 26.0117ZM40.1758 41.3711C41.2383 39.9961 41.7812 38.3086 41.7812 36.3008C41.7812 35.9531 41.7656 35.6016 41.7266 35.25C41.4727 32.6992 40.543 30.3984 38.9297 28.3516H38.9141C38.9141 28.3516 38.8789 28.2891 38.8633 28.2734L38.7969 28.1992C37.8594 27.082 36.8281 26.2109 35.7109 25.6055C34.5937 24.9883 33.4688 24.6914 32.3438 24.6914C30.7109 24.6914 29.3359 25.3516 28.2344 26.6719C27.1719 28.043 26.6289 29.7305 26.6289 31.7383C26.6289 32.0859 26.6445 32.4375 26.6836 32.7891C26.9375 35.332 27.8672 37.6289 29.4805 39.6758L29.6094 39.832V39.8477C31.6484 42.1797 33.8008 43.3516 36.0586 43.3516C37.707 43.3516 39.0742 42.6992 40.168 41.3906L40.1758 41.3711Z" fill="black"/>
<path d="M57.6953 32.1914C56.5703 30.9609 54.8359 31.6875 54.8359 31.6875C55.3164 31.1719 55.6484 30.7578 55.5859 29.9101C55.5859 29.8789 55.5859 29.8516 55.5859 29.8203C55.5859 28.4688 54.4922 27.3828 53.1484 27.3828C51.8086 27.3828 50.7109 28.4766 50.7109 29.8203C50.7109 29.9922 50.7266 30.1563 50.7656 30.3164C50.8164 30.8984 51.1094 31.2539 51.5078 31.6797C51.5078 31.6797 49.7734 30.9531 48.6484 32.1836C47.5234 33.4141 48.0859 34.875 48.4414 35.3555C48.793 35.8359 49.3242 36.6367 50.5781 36.5469C51.6875 36.4648 51.8438 36.2774 52.6094 35.6719C52.5195 37.3438 51.5078 38.4844 51.5078 38.4844H54.8359C54.2227 37.8359 53.6836 36.3594 53.75 35.6836C54.4922 36.2774 54.6641 36.4648 55.7617 36.5469C57.0117 36.6367 57.5469 35.8359 57.8984 35.3555C58.25 34.875 58.8125 33.4141 57.6875 32.1836L57.6953 32.1914Z" fill="#292929" stroke="black" stroke-width="0.5625" stroke-linecap="round" stroke-linejoin="round"/>
<path d="M146.406 194.805L146.051 194.836V193.77H152.137V194.836L151.781 194.805C151.414 194.812 151.109 194.969 150.852 195.27C150.605 195.57 150.477 195.93 150.477 196.359V211.809H152.137V212.715L151.871 212.773L151.398 212.902C151.121 212.984 150.852 213.098 150.598 213.246C150.148 213.539 149.758 213.93 149.414 214.41C149.254 214.648 149.121 214.906 149.008 215.176C148.949 215.301 148.895 215.438 148.852 215.578C148.836 215.641 148.789 215.781 148.73 216.008L148.648 216.293H147.688V196.352C147.688 195.922 147.559 195.555 147.312 195.262C147.066 194.969 146.758 194.812 146.398 194.797L146.406 194.805Z" fill="black"/>
<path d="M127.859 212.91C127.004 211.824 126.344 210.594 125.887 209.219C125.426 207.848 125.203 206.414 125.203 204.906C125.203 203.398 125.434 201.937 125.906 200.559C126.371 199.172 127.055 197.934 127.941 196.828C128.824 195.75 129.828 194.926 130.961 194.355C132.094 193.777 133.281 193.492 134.523 193.492C135.77 193.492 136.91 193.77 138.027 194.332C139.145 194.895 140.141 195.699 141.027 196.754L141.172 196.926C142.023 198.016 142.684 199.246 143.141 200.617C143.602 201.988 143.824 203.422 143.824 204.914C143.824 206.406 143.594 207.898 143.121 209.289C142.656 210.676 141.98 211.914 141.102 213C140.211 214.086 139.199 214.922 138.074 215.496C136.949 216.074 135.762 216.359 134.516 216.359C133.273 216.359 132.117 216.082 131.008 215.52C129.891 214.957 128.891 214.156 128.008 213.098C127.961 213.039 127.918 212.977 127.863 212.926L127.859 212.91ZM128.539 197.551C127.477 198.922 126.934 200.609 126.934 202.621C126.934 202.965 126.949 203.316 126.988 203.672C127.242 206.219 128.172 208.523 129.785 210.57H129.801C129.801 210.57 129.836 210.629 129.852 210.645L129.922 210.719C130.859 211.836 131.887 212.707 133.004 213.316C134.121 213.93 135.246 214.23 136.371 214.23C138.004 214.23 139.379 213.57 140.48 212.25C141.547 210.879 142.086 209.191 142.086 207.18C142.086 206.836 142.07 206.484 142.031 206.129C141.777 203.586 140.848 201.293 139.234 199.246L139.109 199.086V199.074C137.066 196.738 134.914 195.57 132.656 195.57C131.008 195.57 129.641 196.223 128.547 197.527L128.539 197.551Z" fill="black"/>
<path d="M111.019 206.73C112.144 207.961 113.879 207.234 113.879 207.234C113.398 207.75 113.066 208.164 113.129 209.012C113.129 209.039 113.129 209.07 113.129 209.102C113.129 210.449 114.223 211.539 115.566 211.539C116.914 211.539 118.004 210.441 118.004 209.102C118.004 208.926 117.988 208.762 117.949 208.605C117.898 208.02 117.605 207.668 117.207 207.238C117.207 207.238 118.941 207.969 120.066 206.738C121.191 205.508 120.629 204.047 120.273 203.566C119.922 203.086 119.391 202.281 118.137 202.371C117.027 202.453 116.871 202.641 116.105 203.25C116.195 201.578 117.207 200.438 117.207 200.438H113.879C114.492 201.082 115.031 202.559 114.965 203.234C114.223 202.641 114.051 202.453 112.953 202.371C111.703 202.281 111.172 203.086 110.816 203.566C110.465 204.047 109.902 205.508 111.027 206.738L111.019 206.73Z" fill="#292929" stroke="black" stroke-width="0.5625" stroke-linecap="round" stroke-linejoin="round"/>
<path d="M72.4766 56.7148C70.2344 54.2617 66.793 55.7188 66.793 55.7188C67.7539 54.6914 68.3985 53.8711 68.2774 52.1836C68.2774 52.125 68.2774 52.0742 68.2774 52.0117C68.2774 49.3281 66.1016 47.1523 63.418 47.1523C60.7344 47.1523 58.5664 49.3281 58.5664 52.0117C58.5664 52.3516 58.6016 52.6797 58.6641 52.9961C58.7735 54.1641 59.3516 54.8711 60.1485 55.7188C60.1485 55.7188 56.7032 54.2617 54.461 56.7148C52.2188 59.168 53.3438 62.0703 54.0508 63.0234C54.754 63.9766 55.8126 65.5781 58.3008 65.3906C60.5079 65.2266 60.8282 64.8516 62.3516 63.6445C62.1719 66.9766 60.1563 69.2461 60.1563 69.2461H66.8008C65.5782 67.9649 64.4962 65.0156 64.6407 63.6758C66.1251 64.8594 66.461 65.2266 68.6446 65.3906C71.1367 65.5781 72.1914 63.9766 72.8985 63.0234C73.6016 62.0703 74.7266 59.1602 72.4844 56.7148H72.4766Z" fill="#292929" stroke="black" stroke-width="0.5625" stroke-linecap="round" stroke-linejoin="round"/>
<path d="M72.4766 96.0078C70.2344 93.5547 66.793 95.0117 66.793 95.0117C67.7539 93.9844 68.3985 93.1641 68.2774 91.4766C68.2774 91.418 68.2774 91.3633 68.2774 91.3047C68.2774 88.6211 66.1016 86.4453 63.418 86.4453C60.7344 86.4453 58.5664 88.6211 58.5664 91.3047C58.5664 91.6406 58.6016 91.9726 58.6641 92.2891C58.7735 93.457 59.3516 94.1641 60.1485 95.0117C60.1485 95.0117 56.7032 93.5547 54.461 96.0078C52.2188 98.4609 53.3438 101.363 54.0508 102.316C54.754 103.266 55.8126 104.871 58.3008 104.684C60.5079 104.52 60.8282 104.145 62.3516 102.938C62.1719 106.266 60.1563 108.539 60.1563 108.539H66.8008C65.5782 107.258 64.4962 104.309 64.6407 102.969C66.1251 104.152 66.461 104.52 68.6446 104.684C71.1367 104.871 72.1914 103.266 72.8985 102.316C73.6016 101.363 74.7266 98.4531 72.4844 96.0078H72.4766Z" fill="#292929" stroke="black" stroke-width="0.5625" stroke-linecap="round" stroke-linejoin="round"/>
<path d="M72.4766 135.293C70.2344 132.84 66.793 134.297 66.793 134.297C67.7539 133.266 68.3985 132.449 68.2774 130.762C68.2774 130.703 68.2774 130.648 68.2774 130.59C68.2774 127.906 66.1016 125.73 63.418 125.73C60.7344 125.73 58.5664 127.906 58.5664 130.59C58.5664 130.926 58.6016 131.258 58.6641 131.574C58.7735 132.742 59.3516 133.449 60.1485 134.297C60.1485 134.297 56.7032 132.84 54.461 135.293C52.2188 137.746 53.3438 140.648 54.0508 141.602C54.754 142.551 55.8126 144.156 58.3008 143.969C60.5079 143.805 60.8282 143.43 62.3516 142.223C62.1719 145.551 60.1563 147.824 60.1563 147.824H66.8008C65.5782 146.543 64.4962 143.594 64.6407 142.254C66.1251 143.438 66.461 143.805 68.6446 143.969C71.1367 144.156 72.1914 142.551 72.8985 141.602C73.6016 140.648 74.7266 137.738 72.4844 135.293H72.4766Z" fill="#292929" stroke="black" stroke-width="0.5625" stroke-linecap="round" stroke-linejoin="round"/>
<path d="M72.4766 174.578C70.2344 172.125 66.793 173.578 66.793 173.578C67.7539 172.551 68.3985 171.734 68.2774 170.047C68.2774 169.988 68.2774 169.934 68.2774 169.875C68.2774 167.191 66.1016 165.016 63.418 165.016C60.7344 165.016 58.5664 167.191 58.5664 169.875C58.5664 170.211 58.6016 170.543 58.6641 170.859C58.7735 172.027 59.3516 172.734 60.1485 173.578C60.1485 173.578 56.7032 172.125 54.461 174.578C52.2188 177.031 53.3438 179.934 54.0508 180.887C54.754 181.836 55.8126 183.441 58.3008 183.254C60.5079 183.09 60.8282 182.715 62.3516 181.508C62.1719 184.836 60.1563 187.109 60.1563 187.109H66.8008C65.5782 185.828 64.4962 182.879 64.6407 181.539C66.1251 182.723 66.461 183.09 68.6446 183.254C71.1367 183.441 72.1914 181.836 72.8985 180.887C73.6016 179.934 74.7266 177.023 72.4844 174.578H72.4766Z" fill="#292929" stroke="black" stroke-width="0.5625" stroke-linecap="round" stroke-linejoin="round"/>
<path d="M114.336 56.7148C112.094 54.2617 108.648 55.7188 108.648 55.7188C109.609 54.6914 110.254 53.8711 110.137 52.1836C110.137 52.125 110.137 52.0742 110.137 52.0117C110.137 49.3281 107.961 47.1523 105.273 47.1523C102.59 47.1523 100.422 49.3281 100.422 52.0117C100.422 52.3516 100.461 52.6797 100.52 52.9961C100.633 54.1641 101.211 54.8711 102.004 55.7188C102.004 55.7188 98.5625 54.2617 96.3203 56.7148C94.0781 59.168 95.2032 62.0703 95.9063 63.0234C96.6133 63.9766 97.6719 65.5781 100.16 65.3906C102.363 65.2266 102.687 64.8516 104.211 63.6445C104.031 66.9766 102.012 69.2461 102.012 69.2461H108.656C107.434 67.9649 106.355 65.0156 106.496 63.6758C107.984 64.8594 108.32 65.2266 110.504 65.3906C112.992 65.5781 114.051 63.9766 114.754 63.0234C115.461 62.0703 116.586 59.1602 114.344 56.7148H114.336Z" fill="#292929" stroke="black" stroke-width="0.5625" stroke-linecap="round" stroke-linejoin="round"/>
<path d="M114.336 96.0078C112.094 93.5547 108.648 95.0117 108.648 95.0117C109.609 93.9844 110.254 93.1641 110.137 91.4766C110.137 91.418 110.137 91.3633 110.137 91.3047C110.137 88.6211 107.961 86.4453 105.273 86.4453C102.59 86.4453 100.422 88.6211 100.422 91.3047C100.422 91.6406 100.461 91.9726 100.52 92.2891C100.633 93.457 101.211 94.1641 102.004 95.0117C102.004 95.0117 98.5625 93.5547 96.3203 96.0078C94.0781 98.4609 95.2032 101.363 95.9063 102.316C96.6133 103.266 97.6719 104.871 100.16 104.684C102.363 104.52 102.687 104.145 104.211 102.938C104.031 106.266 102.012 108.539 102.012 108.539H108.656C107.434 107.258 106.355 104.309 106.496 102.969C107.984 104.152 108.32 104.52 110.504 104.684C112.992 104.871 114.051 103.266 114.754 102.316C115.461 101.363 116.586 98.4531 114.344 96.0078H114.336Z" fill="#292929" stroke="black" stroke-width="0.5625" stroke-linecap="round" stroke-linejoin="round"/>
<path d="M114.336 135.293C112.094 132.84 108.648 134.297 108.648 134.297C109.609 133.266 110.254 132.449 110.137 130.762C110.137 130.703 110.137 130.648 110.137 130.59C110.137 127.906 107.961 125.73 105.273 125.73C102.59 125.73 100.422 127.906 100.422 130.59C100.422 130.926 100.461 131.258 100.52 131.574C100.633 132.742 101.211 133.449 102.004 134.297C102.004 134.297 98.5625 132.84 96.3203 135.293C94.0781 137.746 95.2032 140.648 95.9063 141.602C96.6133 142.551 97.6719 144.156 100.16 143.969C102.363 143.805 102.687 143.43 104.211 142.223C104.031 145.551 102.012 147.824 102.012 147.824H108.656C107.434 146.543 106.355 143.594 106.496 142.254C107.984 143.438 108.32 143.805 110.504 143.969C112.992 144.156 114.051 142.551 114.754 141.602C115.461 140.648 116.586 137.738 114.344 135.293H114.336Z" fill="#292929" stroke="black" stroke-width="0.5625" stroke-linecap="round" stroke-linejoin="round"/>
<path d="M114.336 174.578C112.094 172.125 108.648 173.578 108.648 173.578C109.609 172.551 110.254 171.734 110.137 170.047C110.137 169.988 110.137 169.934 110.137 169.875C110.137 167.191 107.961 165.016 105.273 165.016C102.59 165.016 100.422 167.191 100.422 169.875C100.422 170.211 100.461 170.543 100.52 170.859C100.633 172.027 101.211 172.734 102.004 173.578C102.004 173.578 98.5625 172.125 96.3203 174.578C94.0781 177.031 95.2032 179.934 95.9063 180.887C96.6133 181.836 97.6719 183.441 100.16 183.254C102.363 183.09 102.687 182.715 104.211 181.508C104.031 184.836 102.012 187.109 102.012 187.109H108.656C107.434 185.828 106.355 182.879 106.496 181.539C107.984 182.723 108.32 183.09 110.504 183.254C112.992 183.441 114.051 181.836 114.754 180.887C115.461 179.934 116.586 177.023 114.344 174.578H114.336Z" fill="#292929" stroke="black" stroke-width="0.5625" stroke-linecap="round" stroke-linejoin="round"/>
<path d="M94.1758 75.7109C91.9336 73.2617 88.4883 74.7148 88.4883 74.7148C89.4493 73.6875 90.0938 72.8711 89.9766 71.1836C89.9766 71.1211 89.9766 71.0703 89.9766 71.0117C89.9766 68.3242 87.8008 66.1484 85.1133 66.1484C82.4297 66.1484 80.2618 68.3242 80.2618 71.0117C80.2618 71.3477 80.3008 71.6758 80.3594 71.9922C80.4727 73.1641 81.0508 73.8672 81.8438 74.7148C81.8438 74.7148 78.4024 73.2617 76.1602 75.7109C73.918 78.1641 75.043 81.0664 75.7461 82.0195C76.4531 82.9727 77.5117 84.5781 80 84.3906C82.2031 84.2266 82.5274 83.8516 84.0508 82.6406C83.8711 85.9727 81.8516 88.2461 81.8516 88.2461H88.4961C87.2734 86.9609 86.1953 84.0156 86.336 82.6719C87.8242 83.8594 88.1602 84.2266 90.3438 84.3906C92.832 84.5781 93.8907 82.9727 94.5938 82.0195C95.3008 81.0664 96.4258 78.1563 94.1836 75.7109H94.1758Z" fill="#292929" stroke="black" stroke-width="0.5625" stroke-linecap="round" stroke-linejoin="round"/>
<path d="M94.0938 154.402C91.8516 151.949 88.4063 153.406 88.4063 153.406C89.3672 152.379 90.0117 151.559 89.8906 149.871C89.8906 149.812 89.8906 149.762 89.8906 149.699C89.8906 147.016 87.7188 144.84 85.0313 144.84C82.3477 144.84 80.1797 147.016 80.1797 149.699C80.1797 150.039 80.2188 150.367 80.2774 150.684C80.3906 151.852 80.9688 152.559 81.7618 153.406C81.7618 153.406 78.3203 151.949 76.0782 154.402C73.836 156.855 74.9609 159.758 75.6641 160.711C76.3711 161.664 77.4258 163.266 79.918 163.078C82.1211 162.914 82.4453 162.539 83.9688 161.332C83.7891 164.664 81.7695 166.934 81.7695 166.934H88.4141C87.1914 165.652 86.1133 162.703 86.2539 161.363C87.7383 162.547 88.0781 162.914 90.2617 163.078C92.75 163.266 93.8086 161.664 94.5118 160.711C95.2188 159.758 96.3438 156.848 94.1016 154.402H94.0938Z" fill="#292929" stroke="black" stroke-width="0.5625" stroke-linecap="round" stroke-linejoin="round"/>
</svg>
