<svg width="170" height="239" viewBox="0 0 170 239" fill="none" xmlns="http://www.w3.org/2000/svg">
<path d="M163.281 238.078H6.76562C3.44141 238.078 0.75 235.363 0.75 232.02V6.44922C0.75 3.10547 3.44141 0.390625 6.76562 0.390625H163.281C166.605 0.390625 169.297 3.10547 169.297 6.44922V232.02C169.297 235.363 166.605 238.078 163.281 238.078Z" fill="white"/>
<mask id="mask0_2314_2673" style="mask-type:luminance" maskUnits="userSpaceOnUse" x="11" y="10" width="148" height="79">
<path d="M11 10H159V89H11V10Z" fill="white"/>
</mask>
<g mask="url(#mask0_2314_2673)">
<mask id="mask1_2314_2673" style="mask-type:luminance" maskUnits="userSpaceOnUse" x="11" y="10" width="148" height="79">
<path d="M158.43 88.1328C158.43 62.2344 158.438 36.3281 158.445 10.4336C109.59 10.4336 60.7266 10.4336 11.8711 10.4414C11.8516 35.918 11.8281 61.3945 11.8047 86.8711C14.3711 75.4336 19.5469 58.5664 29.4141 49.5586C36.9688 42.6758 40.7383 39.2266 43.6953 37.8438C45.0664 37.1992 49.4531 35.3008 53.0859 30.8711C53.7617 30.0508 54.2461 29.332 54.5547 28.8516C54.8711 29.2734 56.0859 30.8242 57.7578 30.8555C59.9336 30.8906 62.3633 28.3438 62.4844 24.5039C62.7383 25.0742 64.875 29.6172 69.7344 30.6445C72.0742 31.1406 74.0391 30.6133 75.0508 30.2539C75.7109 29.707 76.5898 28.8594 77.3906 27.6445C78.1797 26.4531 78.6094 25.3359 78.8555 24.5234H91.4023C91.4766 24.9883 92.0859 28.418 95.2031 30.1289C98.2578 31.8008 101.355 30.5234 102.309 30.1406C105.602 28.8164 106.996 26.0781 107.301 25.4336C108.047 28.9727 110.52 31.1641 112.695 30.9883C113.047 30.9609 114.18 30.8086 115.359 29.4883L119.113 32.6172C120.586 33.4883 122.648 34.7695 125.023 36.4336C127.816 38.3867 137.07 44.9531 144.336 54.3984C153.988 66.9375 157.223 80.7461 158.422 88.1172L158.43 88.1328Z" fill="white"/>
</mask>
<g mask="url(#mask1_2314_2673)">
<path d="M11.8047 10.4336V88.1328H158.445V10.4336H11.8047Z" fill="url(#paint0_linear_2314_2673)"/>
</g>
</g>
<path d="M158.82 228.227H11.3477C11.3477 182.895 11.3477 137.566 11.3477 92.2344C11.3477 64.8437 11.3477 37.4609 11.3477 10.0742H158.82C158.82 37.418 158.82 64.7617 158.82 92.1094C158.82 137.484 158.82 182.852 158.82 228.227Z" stroke="#0E0E0E" stroke-width="0.75" stroke-linecap="round" stroke-linejoin="round"/>
<path d="M84.9961 32.5039C84.9453 31.8828 84.6914 29.6992 82.8828 27.8477C81.2617 26.1836 79.3594 25.7852 78.7031 25.6719C78.7578 25.0195 78.8086 24.3672 78.8633 23.7148C79.7188 23.3164 81.4336 22.3711 82.8594 20.4609C84.3086 18.5156 84.7187 16.582 84.8555 15.6445C85.1914 16.8164 85.9336 18.8164 87.6289 20.7656C88.9336 22.2656 90.3242 23.1836 91.2812 23.7148C91.3359 24.3672 91.3867 25.0195 91.4414 25.6719C90.9766 25.7188 87.9844 26.0625 86.1836 28.6797C85.125 30.2266 84.9961 31.8008 84.9844 32.5039H84.9961Z" fill="white"/>
<path d="M53.7891 22.0664C54.6211 21.8242 55.9961 21.5625 57.5469 21.9375C58.9063 22.2617 59.8203 22.9218 60.336 23.3086C64.8985 26.7304 65.5742 29.3867 68.707 30.5859C69.1133 30.7422 72.0469 31.7109 75 30.3281C77.0859 29.3554 78.5703 27.1367 78.8008 24.7265C79.1328 21.2773 76.7344 17.8633 73.9492 17.2422C73.6289 17.1679 71.8711 16.7773 70.4414 17.8515C70.2617 17.9843 69.1484 18.8398 68.9922 20.3476C68.9688 20.5742 68.7891 22.5156 70.2735 23.4609C71.1094 23.9843 72.1641 24.0156 73.0039 23.625C74.1992 23.0781 74.918 21.7031 74.7305 20.2343C75.0234 20.5586 75.4258 21.0586 75.75 21.75C75.9062 22.0781 76.9258 24.3359 75.9531 26.5039C74.7656 29.1445 71.5352 29.6093 71.1016 29.6718C68.2109 30.082 65.2109 28.5664 63.2461 25.8437" stroke="#0E0E0E" stroke-width="0.75" stroke-linecap="round" stroke-linejoin="round"/>
<path d="M78.8633 23.625C79.4336 23.3477 80.3242 22.8438 81.2344 22.0195C84.1367 19.3711 84.668 15.6992 84.9062 14.0625C85.043 13.1406 85.1641 11.7656 85.0039 10.0664" stroke="#0E0E0E" stroke-width="0.75" stroke-linecap="round" stroke-linejoin="round"/>
<path d="M78.7031 25.582C79.418 25.7109 80.1914 25.9336 80.9531 26.3242C84.4141 28.0859 84.9219 31.7773 84.9961 32.4141" stroke="#0E0E0E" stroke-width="0.75" stroke-linecap="round" stroke-linejoin="round"/>
<path d="M116.371 22.0664C115.539 21.8242 114.164 21.5625 112.613 21.9375C111.254 22.2617 110.34 22.9218 109.824 23.3086C105.262 26.7304 104.586 29.3867 101.453 30.5859C101.047 30.7422 98.1133 31.7109 95.1601 30.3281C93.0742 29.3554 91.5899 27.1367 91.3594 24.7265C91.0274 21.2773 93.4258 17.8633 96.2109 17.2422C96.5313 17.1679 98.2891 16.7773 99.7187 17.8515C99.8984 17.9843 101.012 18.8398 101.168 20.3476C101.191 20.5742 101.371 22.5156 99.8867 23.4609C99.0508 23.9843 97.9961 24.0156 97.1562 23.625C95.9609 23.0781 95.2422 21.7031 95.4297 20.2343C95.1367 20.5586 94.7344 21.0586 94.4101 21.75C94.2539 22.0781 93.2344 24.3359 94.207 26.5039C95.3906 29.1445 98.625 29.6093 99.0586 29.6718C101.949 30.082 104.949 28.5664 106.914 25.8437" stroke="#0E0E0E" stroke-width="0.75" stroke-linecap="round" stroke-linejoin="round"/>
<path d="M91.4531 25.582C90.7422 25.7109 89.9688 25.9336 89.2031 26.3242C85.7461 28.0859 85.2383 31.7773 85.1641 32.4141" stroke="#0E0E0E" stroke-width="0.75" stroke-linecap="round" stroke-linejoin="round"/>
<path d="M115.664 28.9219C115.551 29.1758 114.961 30.4883 113.574 30.9219C112.102 31.3867 110.813 30.5312 110.273 30.1719C108 28.6641 107.773 25.793 107.754 25.3281" stroke="#0E0E0E" stroke-width="0.75" stroke-linecap="round" stroke-linejoin="round"/>
<path d="M123.637 35.836C122.992 35.4688 122.086 34.9141 121.066 34.172C118.117 32.0235 115.816 30.3516 115.215 27.6212C114.668 25.1407 115.785 23.047 115.98 22.6954C117.816 19.379 121.664 18.8321 122.461 18.7423C126.039 18.336 129.668 20.2266 131.941 23.5274" stroke="#0E0E0E" stroke-width="0.75" stroke-linecap="round" stroke-linejoin="round"/>
<path d="M131.445 40.9805C131.484 33.2617 129.594 27.2031 126.602 25.5312C125.063 24.6758 123.504 24.6523 123.504 24.6523C122.984 24.6523 120.367 24.6914 118.711 26.8516C117.234 28.7773 117.602 30.9844 117.668 31.3594" stroke="#0E0E0E" stroke-width="0.75" stroke-linecap="round" stroke-linejoin="round"/>
<path d="M152.574 37.0782C152.961 36.8867 154.207 36.3086 155.551 36.6524C157.941 37.2617 158.211 40.1485 158.227 40.3594C158.371 42.1953 157.246 44.3321 155.102 45.0977C153.449 45.6836 151.859 45.2188 151.012 44.9688C148.266 44.168 146.762 42.3008 146.012 41.3555C143.609 38.2969 144.781 36.8086 142.32 34.6367C141.652 34.043 140.301 32.8438 138.234 32.5274C136.078 32.1914 135.195 33.1211 133.23 32.5742C131.301 32.0313 130.305 30.6133 130.051 30.2188C129.93 30.0391 128.527 27.7813 129.848 25.5078C130.117 25.0352 130.922 23.6641 132.727 23.2657C134.371 22.9141 136.176 23.5117 137.168 24.6914C138.016 25.6953 138.262 27.1133 137.602 28.2383C137.461 28.4844 137.012 29.25 135.988 29.5586C135.137 29.8125 134.047 29.6992 133.297 29.1016C132.637 28.5664 132.516 27.8867 132.496 27.6836" stroke="#0E0E0E" stroke-width="0.75" stroke-linecap="round" stroke-linejoin="round"/>
<path d="M143.863 36.7266C143.551 33.3086 141.801 30.4961 139.246 29.5781C138.66 29.3711 137.746 29.1602 136.531 29.3086" stroke="#0E0E0E" stroke-width="0.75" stroke-linecap="round" stroke-linejoin="round"/>
<path d="M146.461 42.0391C145.996 41.918 144.059 41.4688 142.41 42.5469C140.422 43.8516 139.629 46.875 140.852 49.7383" stroke="#0E0E0E" stroke-width="0.75" stroke-linecap="round" stroke-linejoin="round"/>
<path d="M147.816 52.3437C147.512 52.3281 146.871 52.3359 146.199 52.6875C145.102 53.2656 144.742 54.3242 144.676 54.5625" stroke="#0E0E0E" stroke-width="0.75" stroke-linecap="round" stroke-linejoin="round"/>
<path d="M158.805 91.1563C158.789 91.0508 158.773 90.8633 158.746 90.6445C158.16 85.5078 154.852 61.5234 135.129 44.0234C132.676 41.8516 128.871 38.7969 123.637 35.8281" stroke="#0E0E0E" stroke-width="0.75" stroke-linecap="round" stroke-linejoin="round"/>
<path d="M84.9961 32.5039C84.9453 31.8828 84.6914 29.6992 82.8828 27.8477C81.2617 26.1836 79.3594 25.7852 78.7031 25.6719C78.7578 25.0195 78.8086 24.3672 78.8633 23.7148C79.7188 23.3164 81.4336 22.3711 82.8594 20.4609C84.3086 18.5156 84.7188 16.582 84.8555 15.6445C85.1914 16.8164 85.9336 18.8164 87.6289 20.7656C88.9336 22.2656 90.3242 23.1836 91.2813 23.7148C91.3359 24.3672 91.3867 25.0195 91.4414 25.6719C90.9766 25.7187 87.9844 26.0625 86.1836 28.6797C85.125 30.2266 84.9961 31.8008 84.9844 32.5039H84.9961Z" fill="black" stroke="black" stroke-width="0.5625" stroke-linecap="round" stroke-linejoin="round"/>
<path d="M116.371 22.0664C115.539 21.8242 114.164 21.5625 112.613 21.9375C111.254 22.2617 110.34 22.9218 109.824 23.3086C105.262 26.7304 104.586 29.3867 101.453 30.5859C101.047 30.7422 98.1133 31.7109 95.1601 30.3281C93.0742 29.3554 91.5899 27.1367 91.3594 24.7265C91.0274 21.2773 93.4258 17.8633 96.2109 17.2422C96.5313 17.1679 98.2891 16.7773 99.7187 17.8515C99.8984 17.9843 101.012 18.8398 101.168 20.3476C101.191 20.5742 101.371 22.5156 99.8867 23.4609C99.0508 23.9843 97.9961 24.0156 97.1562 23.625C95.9609 23.0781 95.2422 21.7031 95.4297 20.2343C95.1367 20.5586 94.7344 21.0586 94.4101 21.75C94.2539 22.0781 93.2344 24.3359 94.207 26.5039C95.3906 29.1445 98.625 29.6093 99.0586 29.6718C101.949 30.082 104.949 28.5664 106.914 25.8437" stroke="#0E0E0E" stroke-width="0.75" stroke-linecap="round" stroke-linejoin="round"/>
<path d="M91.2969 23.625C90.1953 23.0781 89.4219 22.4688 88.9258 22.0195C85.582 18.9766 85.2617 14.4531 85.1406 12.7891C85.0586 11.6484 85.1016 10.7031 85.1563 10.0664" stroke="#0E0E0E" stroke-width="0.75" stroke-linecap="round" stroke-linejoin="round"/>
<path d="M91.4531 25.582C90.7422 25.7109 89.9688 25.9336 89.2031 26.3242C85.7461 28.0859 85.2383 31.7773 85.1641 32.4141" stroke="#0E0E0E" stroke-width="0.75" stroke-linecap="round" stroke-linejoin="round"/>
<path d="M115.664 28.9219C115.551 29.1758 114.961 30.4883 113.574 30.9219C112.102 31.3867 110.813 30.5312 110.273 30.1719C108 28.6641 107.773 25.793 107.754 25.3281" stroke="#0E0E0E" stroke-width="0.75" stroke-linecap="round" stroke-linejoin="round"/>
<path d="M123.637 35.836C122.992 35.4688 122.086 34.9141 121.066 34.172C118.117 32.0235 115.816 30.3516 115.215 27.6212C114.668 25.1407 115.785 23.047 115.98 22.6954C117.816 19.379 121.664 18.8321 122.461 18.7423C126.039 18.336 129.668 20.2266 131.941 23.5274" stroke="#0E0E0E" stroke-width="0.75" stroke-linecap="round" stroke-linejoin="round"/>
<path d="M131.445 40.9805C131.484 33.2617 129.594 27.2031 126.602 25.5312C125.063 24.6758 123.504 24.6523 123.504 24.6523C122.984 24.6523 120.367 24.6914 118.711 26.8516C117.234 28.7773 117.602 30.9844 117.668 31.3594" stroke="#0E0E0E" stroke-width="0.75" stroke-linecap="round" stroke-linejoin="round"/>
<path d="M152.574 37.0782C152.961 36.8867 154.207 36.3086 155.551 36.6524C157.941 37.2617 158.211 40.1485 158.227 40.3594C158.371 42.1953 157.246 44.3321 155.102 45.0977C153.449 45.6836 151.859 45.2188 151.012 44.9688C148.266 44.168 146.762 42.3008 146.012 41.3555C143.609 38.2969 144.781 36.8086 142.32 34.6367C141.652 34.043 140.301 32.8438 138.234 32.5274C136.078 32.1914 135.195 33.1211 133.23 32.5742C131.301 32.0313 130.305 30.6133 130.051 30.2188C129.93 30.0391 128.527 27.7813 129.848 25.5078C130.117 25.0352 130.922 23.6641 132.727 23.2657C134.371 22.9141 136.176 23.5117 137.168 24.6914C138.016 25.6953 138.262 27.1133 137.602 28.2383C137.461 28.4844 137.012 29.25 135.988 29.5586C135.137 29.8125 134.047 29.6992 133.297 29.1016C132.637 28.5664 132.516 27.8867 132.496 27.6836" stroke="#0E0E0E" stroke-width="0.75" stroke-linecap="round" stroke-linejoin="round"/>
<path d="M143.863 36.7266C143.551 33.3086 141.801 30.4961 139.246 29.5781C138.66 29.3711 137.746 29.1602 136.531 29.3086" stroke="#0E0E0E" stroke-width="0.75" stroke-linecap="round" stroke-linejoin="round"/>
<path d="M158.715 48.8007C157.484 46.6952 155.52 45.3827 153.563 45.5038C151.141 45.6523 149.715 47.9257 149.102 48.9062C145.637 54.4335 149.34 61.9882 149.91 63.121" stroke="#0E0E0E" stroke-width="0.75" stroke-linecap="round" stroke-linejoin="round"/>
<path d="M158.766 90.4805C157.359 80.8281 152.773 59.7148 135.129 44.0312C131.289 40.6211 127.363 37.9414 123.637 35.8359" stroke="#0E0E0E" stroke-width="0.75" stroke-linecap="round" stroke-linejoin="round"/>
<mask id="mask2_2314_2673" style="mask-type:luminance" maskUnits="userSpaceOnUse" x="11" y="148" width="148" height="80">
<path d="M11 148H159V228H11V148Z" fill="white"/>
</mask>
<g mask="url(#mask2_2314_2673)">
<mask id="mask3_2314_2673" style="mask-type:luminance" maskUnits="userSpaceOnUse" x="11" y="148" width="148" height="80">
<path d="M11.6562 148.68C11.6758 175.074 11.6914 201.465 11.7148 227.852C60.5781 227.844 109.441 227.828 158.301 227.82C158.324 202.344 158.348 176.863 158.371 151.387C153.516 162.676 146.078 176.43 134.535 190.172C130.078 195.465 125.594 200.086 121.266 204.09C120.066 205.68 118.867 207.262 117.676 208.852C116.992 209.039 116.309 209.219 115.629 209.406C115.313 208.988 114.098 207.434 112.426 207.406C110.25 207.367 107.82 209.918 107.699 213.758C107.445 213.188 105.309 208.641 100.449 207.613C98.1094 207.121 96.1406 207.645 95.1289 208.004C94.4688 208.551 93.5938 209.398 92.7891 210.613C92.0039 211.809 91.5742 212.926 91.3281 213.734H78.7812C78.7031 213.27 78.0977 209.844 74.9766 208.133C71.9258 206.461 68.8281 207.734 67.875 208.117C64.582 209.445 63.1875 212.184 62.8789 212.828C62.1367 209.289 59.6641 207.098 57.4883 207.27C57.1367 207.301 56.0039 207.449 54.8242 208.77C53.5742 207.727 52.3203 206.684 51.0664 205.641C45.2461 202.762 34.4102 196.426 25.3125 184.141C14.6758 169.77 12.3242 155.227 11.6719 148.688L11.6562 148.68Z" fill="white"/>
</mask>
<g mask="url(#mask3_2314_2673)">
<path d="M11.6562 148.68V227.852H158.371V148.68H11.6562Z" fill="url(#paint1_linear_2314_2673)"/>
</g>
</g>
<path d="M85.043 205.957C85.0937 206.578 85.3516 208.762 87.1562 210.613C88.7773 212.281 90.6836 212.676 91.3359 212.789C91.2812 213.441 91.2305 214.094 91.1758 214.746C90.3242 215.145 88.6055 216.09 87.1797 218.004C85.7344 219.945 85.3203 221.879 85.1836 222.816C84.8477 221.648 84.1055 219.645 82.4102 217.695C81.1055 216.195 79.7188 215.281 78.7578 214.746C78.7031 214.094 78.6523 213.441 78.6016 212.789C79.0664 212.746 82.0586 212.398 83.8594 209.781C84.9141 208.238 85.043 206.664 85.0586 205.957H85.043Z" fill="white"/>
<path d="M116.25 216.398C115.418 216.637 114.047 216.898 112.492 216.523C111.137 216.203 110.219 215.543 109.703 215.152C105.141 211.734 104.469 209.078 101.332 207.879C100.926 207.719 97.9961 206.754 95.0391 208.133C92.9532 209.109 91.4688 211.328 91.2383 213.734C90.9063 217.184 93.3086 220.598 96.0899 221.219C96.4141 221.297 98.168 221.684 99.6016 220.613C99.7813 220.477 100.891 219.621 101.047 218.113C101.07 217.891 101.25 215.949 99.7656 215.004C98.9336 214.477 97.875 214.449 97.0352 214.836C95.8438 215.387 95.1211 216.758 95.3086 218.227C95.0157 217.906 94.6133 217.402 94.2891 216.711C94.1328 216.383 93.1133 214.125 94.086 211.957C95.2735 209.316 98.5039 208.852 98.9414 208.793C101.828 208.379 104.828 209.895 106.793 212.617" stroke="#0E0E0E" stroke-width="0.75" stroke-linecap="round" stroke-linejoin="round"/>
<path d="M91.1758 214.836C90.1211 215.363 89.3476 215.953 88.8086 216.441C85.6953 219.27 85.2383 223.387 85.0195 225.316C84.8789 226.566 84.8906 227.602 84.9219 228.238" stroke="#0E0E0E" stroke-width="0.75" stroke-linecap="round" stroke-linejoin="round"/>
<path d="M91.336 212.879C90.6211 212.754 89.8516 212.527 89.086 212.137C85.6289 210.375 85.1172 206.684 85.043 206.047" stroke="#0E0E0E" stroke-width="0.75" stroke-linecap="round" stroke-linejoin="round"/>
<path d="M53.6758 216.398C54.5117 216.637 55.8828 216.898 57.4336 216.523C58.793 216.203 59.707 215.543 60.2266 215.152C64.7852 211.734 65.4609 209.078 68.5938 207.879C69 207.719 71.9336 206.754 74.8867 208.133C76.9727 209.109 78.457 211.328 78.6914 213.734C79.0195 217.184 76.6211 220.598 73.8359 221.219C73.5156 221.297 71.7617 221.684 70.3281 220.613C70.1484 220.477 69.0391 219.621 68.8789 218.113C68.8594 217.891 68.6758 215.949 70.1641 215.004C70.9961 214.477 72.0508 214.449 72.8906 214.836C74.0859 215.387 74.8047 216.758 74.6172 218.227C74.9102 217.906 75.3164 217.402 75.6367 216.711C75.7969 216.383 76.8164 214.125 75.8399 211.957C74.6563 209.316 71.4219 208.852 70.9883 208.793C68.1016 208.379 65.1016 209.895 63.1367 212.617" stroke="#0E0E0E" stroke-width="0.75" stroke-linecap="round" stroke-linejoin="round"/>
<path d="M78.5938 212.879C79.2734 212.773 80.0547 212.559 80.8438 212.137C84.0508 210.441 84.8867 206.82 85.043 206.047" stroke="#0E0E0E" stroke-width="0.75" stroke-linecap="round" stroke-linejoin="round"/>
<path d="M54.3828 209.543C54.4961 209.289 55.0859 207.977 56.4766 207.539C57.9453 207.074 59.2344 207.93 59.7735 208.289C62.0469 209.797 62.2734 212.672 62.2969 213.137" stroke="#0E0E0E" stroke-width="0.75" stroke-linecap="round" stroke-linejoin="round"/>
<path d="M46.4024 202.629C47.0469 202.996 47.9531 203.551 48.9766 204.293C51.9219 206.438 54.2266 208.109 54.8242 210.84C55.3711 213.324 54.2539 215.414 54.0586 215.766C52.2226 219.082 48.375 219.629 47.5781 219.719C44.0039 220.125 40.3711 218.234 38.1016 214.934" stroke="#0E0E0E" stroke-width="0.75" stroke-linecap="round" stroke-linejoin="round"/>
<path d="M38.6016 197.484C38.5664 205.199 40.4531 211.262 43.4492 212.934C44.9844 213.789 46.5469 213.809 46.5469 213.809C47.0625 213.809 49.6797 213.773 51.3359 211.613C52.8164 209.684 52.4492 207.48 52.3789 207.105" stroke="#0E0E0E" stroke-width="0.75" stroke-linecap="round" stroke-linejoin="round"/>
<path d="M17.4766 201.383C17.086 201.578 15.8399 202.156 14.4961 201.809C12.1055 201.203 11.836 198.316 11.8203 198.105C11.6758 196.266 12.8008 194.129 14.9492 193.363C16.5977 192.781 18.1875 193.246 19.0352 193.492C21.7813 194.297 23.2891 196.164 24.0391 197.109C26.4375 200.168 25.2656 201.652 27.7266 203.828C28.3945 204.422 29.7461 205.621 31.8164 205.934C33.9688 206.273 34.8516 205.344 36.8164 205.891C38.7461 206.43 39.7422 207.848 39.9961 208.246C40.1172 208.426 41.5195 210.684 40.1992 212.953C39.9297 213.426 39.1289 214.801 37.3203 215.199C35.6758 215.551 33.8711 214.949 32.8789 213.773C32.0313 212.766 31.7852 211.351 32.4453 210.226C32.586 209.976 33.0391 209.211 34.0586 208.906C34.9141 208.648 36 208.762 36.75 209.363C37.4102 209.894 37.5313 210.578 37.5508 210.781" stroke="#0E0E0E" stroke-width="0.75" stroke-linecap="round" stroke-linejoin="round"/>
<path d="M26.1836 201.727C26.4961 205.148 28.2461 207.961 30.8008 208.875C31.3867 209.086 32.3008 209.297 33.5156 209.145" stroke="#0E0E0E" stroke-width="0.75" stroke-linecap="round" stroke-linejoin="round"/>
<path d="M23.5781 196.426C24.0586 196.547 25.9805 196.98 27.6289 195.914C29.6328 194.609 30.4492 191.586 29.2422 188.707" stroke="#0E0E0E" stroke-width="0.75" stroke-linecap="round" stroke-linejoin="round"/>
<path d="M22.2227 186.121C22.5313 186.137 23.168 186.129 23.8438 185.773C24.9688 185.184 25.3125 184.078 25.3789 183.855" stroke="#0E0E0E" stroke-width="0.75" stroke-linecap="round" stroke-linejoin="round"/>
<path d="M11.3633 146.535C12.5625 156.195 16.7774 178.273 34.9141 194.437C38.7461 197.852 42.6602 200.527 46.4024 202.637" stroke="#0E0E0E" stroke-width="0.75" stroke-linecap="round" stroke-linejoin="round"/>
<path d="M85.043 205.957C85.0938 206.578 85.3516 208.762 87.1562 210.613C88.7773 212.281 90.6836 212.676 91.3359 212.789C91.2813 213.441 91.2305 214.094 91.1758 214.746C90.7109 214.957 90.0742 215.289 89.3906 215.805C87.8555 216.984 87.1211 218.363 86.4766 219.609C85.9141 220.703 85.1836 222.398 84.8086 224.633C84.8008 223.559 84.6367 220.477 82.4023 217.687C81.1367 216.098 79.6797 215.203 78.75 214.738C78.6992 214.086 78.6445 213.434 78.5938 212.781C79.0586 212.738 82.0508 212.391 83.8516 209.773C84.9062 208.23 85.0352 206.656 85.0508 205.949L85.043 205.957Z" fill="black" stroke="black" stroke-width="0.5625" stroke-linecap="round" stroke-linejoin="round"/>
<path d="M53.6758 216.398C54.5117 216.637 55.8828 216.898 57.4336 216.523C58.793 216.203 59.707 215.543 60.2266 215.152C64.7852 211.734 65.4609 209.078 68.5938 207.879C69 207.719 71.9336 206.754 74.8867 208.133C76.9727 209.109 78.457 211.328 78.6914 213.734C79.0195 217.184 76.6211 220.598 73.8359 221.219C73.5156 221.297 71.7617 221.684 70.3281 220.613C70.1484 220.477 69.0391 219.621 68.8789 218.113C68.8594 217.891 68.6758 215.949 70.1641 215.004C70.9961 214.477 72.0508 214.449 72.8906 214.836C74.0859 215.387 74.8047 216.758 74.6172 218.227C74.9102 217.906 75.3164 217.402 75.6367 216.711C75.7969 216.383 76.8164 214.125 75.8399 211.957C74.6563 209.316 71.4219 208.852 70.9883 208.793C68.1016 208.379 65.1016 209.895 63.1367 212.617" stroke="#0E0E0E" stroke-width="0.75" stroke-linecap="round" stroke-linejoin="round"/>
<path d="M78.75 214.836C79.3711 215.137 80.2422 215.641 81.1211 216.441C82.9727 218.152 83.6406 220.133 84.1563 221.754C84.9609 224.258 85.043 226.539 84.9297 228.238" stroke="#0E0E0E" stroke-width="0.75" stroke-linecap="round" stroke-linejoin="round"/>
<path d="M78.5938 212.879C79.2734 212.773 80.0547 212.559 80.8438 212.137C84.082 210.422 84.8906 206.715 85.043 205.957" stroke="#0E0E0E" stroke-width="0.75" stroke-linecap="round" stroke-linejoin="round"/>
<path d="M54.3828 209.543C54.4961 209.289 55.0859 207.977 56.4766 207.539C57.9453 207.074 59.2344 207.93 59.7735 208.289C62.0469 209.797 62.2734 212.672 62.2969 213.137" stroke="#0E0E0E" stroke-width="0.75" stroke-linecap="round" stroke-linejoin="round"/>
<path d="M46.4024 202.629C47.0469 202.996 47.9531 203.551 48.9766 204.293C51.9219 206.438 54.2266 208.109 54.8242 210.84C55.3711 213.324 54.2539 215.414 54.0586 215.766C52.2226 219.082 48.375 219.629 47.5781 219.719C44.0039 220.125 40.3711 218.234 38.1016 214.934" stroke="#0E0E0E" stroke-width="0.75" stroke-linecap="round" stroke-linejoin="round"/>
<path d="M38.6016 197.484C38.5664 205.199 40.4531 211.262 43.4492 212.934C44.9844 213.789 46.5469 213.809 46.5469 213.809C47.0625 213.809 49.6797 213.773 51.3359 211.613C52.8164 209.684 52.4492 207.48 52.3789 207.105" stroke="#0E0E0E" stroke-width="0.75" stroke-linecap="round" stroke-linejoin="round"/>
<path d="M17.4766 201.383C17.086 201.578 15.8399 202.156 14.4961 201.809C12.1055 201.203 11.836 198.316 11.8203 198.105C11.6758 196.266 12.8008 194.129 14.9492 193.363C16.5977 192.781 18.1875 193.246 19.0352 193.492C21.7813 194.297 23.2891 196.164 24.0391 197.109C26.4375 200.168 25.2656 201.652 27.7266 203.828C28.3945 204.422 29.7461 205.621 31.8164 205.934C33.9688 206.273 34.8516 205.344 36.8164 205.891C38.7461 206.43 39.7422 207.848 39.9961 208.246C40.1172 208.426 41.5195 210.684 40.1992 212.953C39.9297 213.426 39.1289 214.801 37.3203 215.199C35.6758 215.551 33.8711 214.949 32.8789 213.773C32.0313 212.766 31.7852 211.351 32.4453 210.226C32.586 209.976 33.0391 209.211 34.0586 208.906C34.9141 208.648 36 208.762 36.75 209.363C37.4102 209.894 37.5313 210.578 37.5508 210.781" stroke="#0E0E0E" stroke-width="0.75" stroke-linecap="round" stroke-linejoin="round"/>
<path d="M26.1836 201.727C26.4961 205.148 28.2461 207.961 30.8008 208.875C31.3867 209.086 32.3008 209.297 33.5156 209.145" stroke="#0E0E0E" stroke-width="0.75" stroke-linecap="round" stroke-linejoin="round"/>
<path d="M11.4141 189.797C11.5039 189.945 13.5 193.141 16.4844 192.953C18.8985 192.801 20.3242 190.539 20.9492 189.547C24.4063 184.027 20.707 176.469 20.1367 175.336" stroke="#0E0E0E" stroke-width="0.75" stroke-linecap="round" stroke-linejoin="round"/>
<path d="M23.5781 196.426C24.0586 196.547 25.9805 196.98 27.6289 195.914C29.6328 194.609 30.4492 191.586 29.2422 188.707" stroke="#0E0E0E" stroke-width="0.75" stroke-linecap="round" stroke-linejoin="round"/>
<path d="M22.2227 186.121C22.5313 186.137 23.168 186.129 23.8438 185.773C24.9688 185.184 25.3125 184.078 25.3789 183.855" stroke="#0E0E0E" stroke-width="0.75" stroke-linecap="round" stroke-linejoin="round"/>
<path d="M11.3633 146.535C12.5625 156.195 16.7774 178.273 34.9141 194.437C38.7461 197.852 42.6602 200.527 46.4024 202.637" stroke="#0E0E0E" stroke-width="0.75" stroke-linecap="round" stroke-linejoin="round"/>
<path d="M37.6797 30.3281C39.375 32.0547 40.2461 34.1328 40.2812 36.5547C40.2812 38.1914 39.8242 39.7734 38.9023 41.3086C37.9492 42.8242 36.7109 43.9219 35.1836 44.5859C34.1992 45.0156 33.1641 45.2344 32.0781 45.2344C30.7188 45.2344 29.3711 44.918 28.043 44.3008C26.7148 43.6797 25.5312 42.8086 24.4961 41.6914C24.0977 41.25 23.7305 40.7852 23.3984 40.2969C22.1172 38.3164 21.4727 36.1953 21.4727 33.9141V33.8398C21.4727 30.7422 22.6055 28.0273 24.8789 25.6797C27.2383 23.4297 29.9609 22.3047 33.0391 22.3047C34.0117 22.3047 34.9648 22.4258 35.8945 22.6641C36.3242 22.7695 36.75 22.8984 37.1641 23.0547C37.1836 23.0625 37.1992 23.0703 37.207 23.0703C37.2617 23.0703 37.2969 23.0313 37.3203 22.957L37.2891 22.5312H38.3555V27.832H37.2891L37.3203 27.4062C37.3203 26.8789 37.0938 26.4531 36.6445 26.1211C36.6133 26.1016 36.5781 26.0781 36.5312 26.0625C36.2109 25.8516 35.8789 25.6641 35.543 25.5C34.7539 25.1758 33.9609 24.9141 33.1406 24.7188C32.3242 24.5234 31.5234 24.4258 30.7266 24.4258C28.6797 24.4258 26.9609 25.0938 25.582 26.4219C24.2539 27.8086 23.5859 29.5195 23.5859 31.5391C23.5859 31.8359 23.6016 32.1445 23.6328 32.4453C24.4219 31.0039 25.5 29.8633 26.8867 29.0234C28.2734 28.1836 29.7891 27.7734 31.4336 27.7734C33.7891 27.7734 35.8633 28.6289 37.6797 30.3281ZM27.3164 30.1953C26.543 30.5117 25.9141 31.0117 25.4414 31.7031C24.9688 32.3906 24.7109 33.1719 24.6836 34.043V34.1992C24.6836 35.1094 24.8711 35.9844 25.2461 36.8242C25.6211 37.6641 26.1211 38.4453 26.7461 39.1562C27.3672 39.8711 28.0586 40.5 28.8242 41.0469C29.5859 41.5938 30.3672 42.0508 31.1641 42.4062C31.6563 42.6211 32.1602 42.8164 32.6914 42.9883C33.2188 43.1641 33.7578 43.2539 34.2969 43.2539C34.5469 43.2539 34.8086 43.2227 35.0703 43.1758C36.1289 42.9297 36.9062 42.375 37.418 41.5273C37.9258 40.6797 38.1758 39.7578 38.1758 38.7656C38.1758 38.4531 38.1445 38.1445 38.1016 37.8438C37.7773 35.9844 36.8477 34.2812 35.3242 32.7461C34.3203 31.7383 33.2109 30.9883 31.9961 30.4883C31.0039 30.0898 30.0508 29.8945 29.1523 29.8945C28.4922 29.8945 27.8867 30 27.3164 30.2109V30.1953Z" fill="black"/>
<path d="M132.277 208.23C130.582 206.504 129.711 204.426 129.676 202.004C129.676 200.371 130.133 198.789 131.055 197.25C132.008 195.734 133.246 194.641 134.773 193.973C135.758 193.547 136.793 193.328 137.879 193.328C139.238 193.328 140.586 193.641 141.914 194.258C143.242 194.879 144.426 195.75 145.461 196.867C145.859 197.309 146.227 197.773 146.559 198.262C147.84 200.242 148.484 202.363 148.484 204.645V204.719C148.484 207.816 147.352 210.531 145.078 212.879C142.719 215.129 139.996 216.254 136.922 216.254C135.945 216.254 134.992 216.137 134.062 215.895C133.637 215.789 133.207 215.664 132.797 215.504C132.773 215.496 132.758 215.488 132.75 215.488C132.699 215.488 132.66 215.527 132.637 215.602L132.668 216.031H131.602V210.727H132.668L132.637 211.156C132.637 211.68 132.863 212.109 133.312 212.438C133.344 212.461 133.379 212.484 133.426 212.496C133.746 212.707 134.078 212.895 134.414 213.059C135.203 213.383 135.996 213.645 136.816 213.84C137.633 214.035 138.434 214.133 139.23 214.133C141.277 214.133 142.996 213.465 144.375 212.137C145.703 210.75 146.371 209.039 146.371 207.023C146.371 206.723 146.355 206.414 146.324 206.113C145.539 207.555 144.457 208.695 143.07 209.535C141.684 210.375 140.168 210.789 138.523 210.789C136.172 210.789 134.094 209.934 132.277 208.23ZM142.648 208.371C143.422 208.059 144.051 207.555 144.523 206.863C144.996 206.176 145.254 205.395 145.281 204.523V204.367C145.281 203.461 145.094 202.582 144.719 201.742C144.344 200.902 143.844 200.121 143.219 199.41C142.598 198.699 141.906 198.066 141.141 197.52C140.379 196.973 139.598 196.516 138.801 196.164C138.309 195.945 137.805 195.75 137.273 195.578C136.746 195.406 136.207 195.316 135.668 195.316C135.422 195.316 135.156 195.344 134.895 195.391C133.836 195.637 133.059 196.191 132.547 197.039C132.039 197.887 131.789 198.809 131.789 199.801C131.789 200.113 131.82 200.422 131.863 200.723C132.188 202.582 133.117 204.285 134.641 205.824C135.645 206.828 136.754 207.578 137.969 208.078C138.961 208.477 139.914 208.672 140.812 208.672C141.473 208.672 142.078 208.566 142.648 208.359V208.371Z" fill="black"/>
<path d="M111.652 205.844C112.777 207.074 114.512 206.348 114.512 206.348C114.031 206.863 113.699 207.277 113.762 208.125C113.762 208.156 113.762 208.184 113.762 208.215C113.762 209.566 114.855 210.652 116.199 210.652C117.539 210.652 118.637 209.559 118.637 208.215C118.637 208.043 118.621 207.879 118.582 207.719C118.531 207.137 118.238 206.781 117.84 206.355C117.84 206.355 119.574 207.082 120.699 205.852C121.824 204.621 121.262 203.16 120.906 202.68C120.555 202.199 120.023 201.398 118.77 201.488C117.66 201.57 117.504 201.758 116.738 202.363C116.828 200.691 117.84 199.551 117.84 199.551H114.512C115.125 200.199 115.664 201.676 115.598 202.352C114.855 201.758 114.684 201.57 113.586 201.488C112.336 201.398 111.801 202.199 111.449 202.68C111.098 203.16 110.535 204.621 111.66 205.852L111.652 205.844Z" fill="#292929" stroke="black" stroke-width="0.5625" stroke-linecap="round" stroke-linejoin="round"/>
<path d="M58.3125 32.6758C57.1875 31.4492 55.4531 32.1758 55.4531 32.1758C55.9336 31.6562 56.2656 31.2461 56.2031 30.3984C56.2031 30.3672 56.2031 30.3359 56.2031 30.3086C56.2031 28.957 55.1094 27.8711 53.7656 27.8711C52.4258 27.8711 51.3281 28.9648 51.3281 30.3086C51.3281 30.4805 51.3438 30.6445 51.3828 30.8008C51.4336 31.3867 51.7266 31.7383 52.125 32.168C52.125 32.168 50.3906 31.4414 49.2656 32.6719C48.1406 33.8984 48.7031 35.3633 49.0586 35.8437C49.4102 36.3242 49.9414 37.125 51.1953 37.0352C52.3047 36.9531 52.4609 36.7656 53.2266 36.1562C53.1367 37.8281 52.125 38.9688 52.125 38.9688H55.4531C54.8398 38.3242 54.3008 36.8477 54.3672 36.1719C55.1094 36.7656 55.2812 36.9531 56.3789 37.0352C57.6289 37.125 58.1641 36.3242 58.5156 35.8437C58.8672 35.3633 59.4297 33.8984 58.3047 32.6719L58.3125 32.6758Z" fill="#292929" stroke="black" stroke-width="0.5625" stroke-linecap="round" stroke-linejoin="round"/>
<path d="M73.0508 58.0039C70.8086 55.5508 67.3633 57.0078 67.3633 57.0078C68.3242 55.9805 68.9687 55.1641 68.8516 53.4766C68.8516 53.4141 68.8516 53.3633 68.8516 53.3008C68.8516 50.6172 66.6758 48.4414 63.9883 48.4414C61.3047 48.4414 59.1367 50.6172 59.1367 53.3008C59.1367 53.6406 59.1758 53.9687 59.2344 54.2852C59.3477 55.4531 59.9258 56.1602 60.7187 57.0078C60.7187 57.0078 57.2773 55.5508 55.0351 58.0039C52.793 60.457 53.918 63.3594 54.6211 64.3125C55.3281 65.2656 56.3867 66.8711 58.875 66.6836C61.0781 66.5156 61.4023 66.1406 62.9258 64.9336C62.7461 68.2656 60.7265 70.5391 60.7265 70.5391H67.3711C66.1484 69.2539 65.0703 66.3086 65.2109 64.9648C66.6992 66.1484 67.0352 66.5156 69.2188 66.6836C71.707 66.8711 72.7656 65.2656 73.4687 64.3125C74.1758 63.3594 75.3008 60.4492 73.0586 58.0039H73.0508Z" fill="#292929" stroke="black" stroke-width="0.5625" stroke-linecap="round" stroke-linejoin="round"/>
<path d="M114.969 58.0039C112.727 55.5508 109.281 57.0078 109.281 57.0078C110.242 55.9805 110.887 55.1641 110.766 53.4766C110.766 53.4141 110.766 53.3633 110.766 53.3008C110.766 50.6172 108.594 48.4414 105.906 48.4414C103.223 48.4414 101.055 50.6172 101.055 53.3008C101.055 53.6406 101.094 53.9687 101.152 54.2852C101.266 55.4531 101.844 56.1602 102.637 57.0078C102.637 57.0078 99.1953 55.5508 96.9531 58.0039C94.711 60.457 95.836 63.3594 96.5391 64.3125C97.2461 65.2656 98.3008 66.8711 100.793 66.6836C102.996 66.5156 103.32 66.1406 104.844 64.9336C104.664 68.2656 102.645 70.5391 102.645 70.5391H109.289C108.066 69.2539 106.988 66.3086 107.129 64.9648C108.613 66.1484 108.953 66.5156 111.137 66.6836C113.625 66.8711 114.684 65.2656 115.387 64.3125C116.094 63.3594 117.219 60.4492 114.977 58.0039H114.969Z" fill="#292929" stroke="black" stroke-width="0.5625" stroke-linecap="round" stroke-linejoin="round"/>
<path d="M73.0508 115.988C70.8086 113.535 67.3633 114.988 67.3633 114.988C68.3242 113.961 68.9687 113.145 68.8516 111.457C68.8516 111.398 68.8516 111.344 68.8516 111.285C68.8516 108.602 66.6758 106.426 63.9883 106.426C61.3047 106.426 59.1367 108.602 59.1367 111.285C59.1367 111.621 59.1758 111.953 59.2344 112.266C59.3477 113.437 59.9258 114.141 60.7187 114.988C60.7187 114.988 57.2773 113.535 55.0351 115.988C52.793 118.441 53.918 121.344 54.6211 122.297C55.3281 123.246 56.3867 124.852 58.875 124.664C61.0781 124.5 61.4023 124.125 62.9258 122.918C62.7461 126.246 60.7265 128.52 60.7265 128.52H67.3711C66.1484 127.238 65.0703 124.289 65.2109 122.949C66.6992 124.133 67.0352 124.5 69.2188 124.664C71.707 124.852 72.7656 123.246 73.4687 122.297C74.1758 121.344 75.3008 118.434 73.0586 115.988H73.0508Z" fill="#292929" stroke="black" stroke-width="0.5625" stroke-linecap="round" stroke-linejoin="round"/>
<path d="M114.969 115.988C112.727 113.535 109.281 114.988 109.281 114.988C110.242 113.961 110.887 113.145 110.766 111.457C110.766 111.398 110.766 111.344 110.766 111.285C110.766 108.602 108.594 106.426 105.906 106.426C103.223 106.426 101.055 108.602 101.055 111.285C101.055 111.621 101.094 111.953 101.152 112.266C101.266 113.437 101.844 114.141 102.637 114.988C102.637 114.988 99.1953 113.535 96.9531 115.988C94.711 118.441 95.836 121.344 96.5391 122.297C97.2461 123.246 98.3008 124.852 100.793 124.664C102.996 124.5 103.32 124.125 104.844 122.918C104.664 126.246 102.645 128.52 102.645 128.52H109.289C108.066 127.238 106.988 124.289 107.129 122.949C108.613 124.133 108.953 124.5 111.137 124.664C113.625 124.852 114.684 123.246 115.387 122.297C116.094 121.344 117.219 118.434 114.977 115.988H114.969Z" fill="#292929" stroke="black" stroke-width="0.5625" stroke-linecap="round" stroke-linejoin="round"/>
<path d="M73.0508 173.844C70.8086 171.391 67.3633 172.844 67.3633 172.844C68.3242 171.816 68.9687 171 68.8516 169.313C68.8516 169.254 68.8516 169.199 68.8516 169.141C68.8516 166.453 66.6758 164.281 63.9883 164.281C61.3047 164.281 59.1367 166.453 59.1367 169.141C59.1367 169.477 59.1758 169.809 59.2344 170.121C59.3477 171.293 59.9258 171.996 60.7187 172.844C60.7187 172.844 57.2773 171.391 55.0351 173.844C52.793 176.297 53.918 179.199 54.6211 180.148C55.3281 181.102 56.3867 182.707 58.875 182.52C61.0781 182.355 61.4023 181.98 62.9258 180.773C62.7461 184.102 60.7265 186.375 60.7265 186.375H67.3711C66.1484 185.094 65.0703 182.145 65.2109 180.801C66.6992 181.988 67.0352 182.355 69.2188 182.52C71.707 182.707 72.7656 181.102 73.4687 180.148C74.1758 179.199 75.3008 176.289 73.0586 173.844H73.0508Z" fill="#292929" stroke="black" stroke-width="0.5625" stroke-linecap="round" stroke-linejoin="round"/>
<path d="M114.969 173.844C112.727 171.391 109.281 172.844 109.281 172.844C110.242 171.816 110.887 171 110.766 169.313C110.766 169.254 110.766 169.199 110.766 169.141C110.766 166.453 108.594 164.281 105.906 164.281C103.223 164.281 101.055 166.453 101.055 169.141C101.055 169.477 101.094 169.809 101.152 170.121C101.266 171.293 101.844 171.996 102.637 172.844C102.637 172.844 99.1953 171.391 96.9531 173.844C94.711 176.297 95.836 179.199 96.5391 180.148C97.2461 181.102 98.3008 182.707 100.793 182.52C102.996 182.355 103.32 181.98 104.844 180.773C104.664 184.102 102.645 186.375 102.645 186.375H109.289C108.066 185.094 106.988 182.145 107.129 180.801C108.613 181.988 108.953 182.355 111.137 182.52C113.625 182.707 114.684 181.102 115.387 180.148C116.094 179.199 117.219 176.289 114.977 173.844H114.969Z" fill="#292929" stroke="black" stroke-width="0.5625" stroke-linecap="round" stroke-linejoin="round"/>
<defs>
<linearGradient id="paint0_linear_2314_2673" x1="158.445" y1="49.275" x2="11.805" y2="49.275" gradientUnits="userSpaceOnUse">
<stop stop-color="#8F8587"/>
<stop offset="0.00390625" stop-color="#908688"/>
<stop offset="0.0078125" stop-color="#918789"/>
<stop offset="0.0117188" stop-color="#92888A"/>
<stop offset="0.015625" stop-color="#92898B"/>
<stop offset="0.0195312" stop-color="#938A8B"/>
<stop offset="0.0234375" stop-color="#948B8C"/>
<stop offset="0.0273438" stop-color="#958C8D"/>
<stop offset="0.03125" stop-color="#968D8E"/>
<stop offset="0.0351562" stop-color="#978D8F"/>
<stop offset="0.0390625" stop-color="#988E90"/>
<stop offset="0.0429688" stop-color="#988F91"/>
<stop offset="0.046875" stop-color="#999092"/>
<stop offset="0.0507813" stop-color="#9A9193"/>
<stop offset="0.0546875" stop-color="#9B9294"/>
<stop offset="0.0585938" stop-color="#9C9395"/>
<stop offset="0.0625" stop-color="#9D9496"/>
<stop offset="0.0664063" stop-color="#9D9596"/>
<stop offset="0.0703125" stop-color="#9E9697"/>
<stop offset="0.0742188" stop-color="#9F9798"/>
<stop offset="0.078125" stop-color="#A09899"/>
<stop offset="0.0820313" stop-color="#A1999A"/>
<stop offset="0.0859375" stop-color="#A2999B"/>
<stop offset="0.0898438" stop-color="#A39A9C"/>
<stop offset="0.09375" stop-color="#A39B9D"/>
<stop offset="0.0976563" stop-color="#A49C9E"/>
<stop offset="0.101563" stop-color="#A59D9F"/>
<stop offset="0.105469" stop-color="#A69EA0"/>
<stop offset="0.109375" stop-color="#A79FA0"/>
<stop offset="0.113281" stop-color="#A8A0A1"/>
<stop offset="0.117188" stop-color="#A8A1A2"/>
<stop offset="0.121094" stop-color="#A9A2A3"/>
<stop offset="0.125" stop-color="#AAA3A4"/>
<stop offset="0.128906" stop-color="#ABA4A5"/>
<stop offset="0.132812" stop-color="#ACA5A6"/>
<stop offset="0.136719" stop-color="#ADA5A7"/>
<stop offset="0.140625" stop-color="#AEA6A8"/>
<stop offset="0.144531" stop-color="#AEA7A9"/>
<stop offset="0.148438" stop-color="#AFA8AA"/>
<stop offset="0.152344" stop-color="#B0A9AB"/>
<stop offset="0.15625" stop-color="#B1AAAB"/>
<stop offset="0.160156" stop-color="#B2ABAC"/>
<stop offset="0.164062" stop-color="#B3ACAD"/>
<stop offset="0.167969" stop-color="#B3ADAE"/>
<stop offset="0.171875" stop-color="#B4AEAF"/>
<stop offset="0.175781" stop-color="#B5AFB0"/>
<stop offset="0.179688" stop-color="#B6B0B1"/>
<stop offset="0.183594" stop-color="#B7B1B2"/>
<stop offset="0.1875" stop-color="#B8B2B3"/>
<stop offset="0.191406" stop-color="#B9B2B4"/>
<stop offset="0.195312" stop-color="#B9B3B5"/>
<stop offset="0.199219" stop-color="#BAB4B5"/>
<stop offset="0.203125" stop-color="#BBB5B6"/>
<stop offset="0.207031" stop-color="#BCB6B7"/>
<stop offset="0.210937" stop-color="#BDB7B8"/>
<stop offset="0.214844" stop-color="#BEB8B9"/>
<stop offset="0.21875" stop-color="#BEB9BA"/>
<stop offset="0.222656" stop-color="#BFBABB"/>
<stop offset="0.226562" stop-color="#C0BBBC"/>
<stop offset="0.230469" stop-color="#C1BCBD"/>
<stop offset="0.234375" stop-color="#C2BDBE"/>
<stop offset="0.238281" stop-color="#C3BEBF"/>
<stop offset="0.242187" stop-color="#C3BEBF"/>
<stop offset="0.246094" stop-color="#C4BFC0"/>
<stop offset="0.25" stop-color="#C5C0C1"/>
<stop offset="0.253906" stop-color="#C6C1C2"/>
<stop offset="0.257812" stop-color="#C6C2C3"/>
<stop offset="0.261719" stop-color="#C7C3C3"/>
<stop offset="0.265625" stop-color="#C8C3C4"/>
<stop offset="0.269531" stop-color="#C9C4C5"/>
<stop offset="0.273437" stop-color="#C9C5C6"/>
<stop offset="0.277344" stop-color="#CAC6C7"/>
<stop offset="0.28125" stop-color="#CBC7C7"/>
<stop offset="0.285156" stop-color="#CCC7C8"/>
<stop offset="0.289062" stop-color="#CCC8C9"/>
<stop offset="0.292969" stop-color="#CDC9CA"/>
<stop offset="0.296875" stop-color="#CECACB"/>
<stop offset="0.300781" stop-color="#CFCBCB"/>
<stop offset="0.304687" stop-color="#CFCCCC"/>
<stop offset="0.308594" stop-color="#D0CCCD"/>
<stop offset="0.3125" stop-color="#D1CDCE"/>
<stop offset="0.316406" stop-color="#D2CECF"/>
<stop offset="0.320312" stop-color="#D2CFCF"/>
<stop offset="0.324219" stop-color="#D3D0D0"/>
<stop offset="0.328125" stop-color="#D4D0D1"/>
<stop offset="0.332031" stop-color="#D5D1D2"/>
<stop offset="0.335937" stop-color="#D5D2D3"/>
<stop offset="0.339844" stop-color="#D6D3D3"/>
<stop offset="0.34375" stop-color="#D7D4D4"/>
<stop offset="0.347656" stop-color="#D8D5D5"/>
<stop offset="0.351562" stop-color="#D8D5D6"/>
<stop offset="0.355469" stop-color="#D9D6D7"/>
<stop offset="0.359375" stop-color="#DAD7D7"/>
<stop offset="0.363281" stop-color="#DBD8D8"/>
<stop offset="0.367187" stop-color="#DBD9D9"/>
<stop offset="0.371094" stop-color="#DCDADA"/>
<stop offset="0.375" stop-color="#DDDADB"/>
<stop offset="0.378906" stop-color="#DEDBDB"/>
<stop offset="0.382813" stop-color="#DEDCDC"/>
<stop offset="0.386719" stop-color="#DFDDDD"/>
<stop offset="0.390625" stop-color="#E0DEDE"/>
<stop offset="0.394531" stop-color="#E1DEDF"/>
<stop offset="0.398438" stop-color="#E1DFE0"/>
<stop offset="0.402344" stop-color="#E2E0E0"/>
<stop offset="0.40625" stop-color="#E3E1E1"/>
<stop offset="0.410156" stop-color="#E4E2E2"/>
<stop offset="0.414063" stop-color="#E4E3E3"/>
<stop offset="0.417969" stop-color="#E5E3E4"/>
<stop offset="0.421875" stop-color="#E6E4E4"/>
<stop offset="0.425781" stop-color="#E6E5E5"/>
<stop offset="0.429688" stop-color="#E7E6E6"/>
<stop offset="0.433594" stop-color="#E8E7E7"/>
<stop offset="0.4375" stop-color="#E9E7E8"/>
<stop offset="0.441406" stop-color="#E9E8E8"/>
<stop offset="0.445312" stop-color="#EAE9E9"/>
<stop offset="0.449219" stop-color="#EBEAEA"/>
<stop offset="0.453125" stop-color="#ECEBEB"/>
<stop offset="0.457031" stop-color="#ECEBEB"/>
<stop offset="0.460938" stop-color="#EDECEC"/>
<stop offset="0.464844" stop-color="#EDECEC"/>
<stop offset="0.46875" stop-color="#EEEDED"/>
<stop offset="0.472656" stop-color="#EEEEEE"/>
<stop offset="0.476562" stop-color="#EFEEEE"/>
<stop offset="0.480469" stop-color="#EFEFEF"/>
<stop offset="0.484375" stop-color="#F0EFEF"/>
<stop offset="0.488281" stop-color="#F1F0F0"/>
<stop offset="0.492188" stop-color="#F1F1F1"/>
<stop offset="0.496094" stop-color="#F2F1F1"/>
<stop offset="0.5" stop-color="#F2F2F2"/>
<stop offset="0.503906" stop-color="#F3F2F2"/>
<stop offset="0.507812" stop-color="#F3F3F3"/>
<stop offset="0.511719" stop-color="#F4F4F4"/>
<stop offset="0.515625" stop-color="#F5F4F4"/>
<stop offset="0.519531" stop-color="#F5F5F5"/>
<stop offset="0.523438" stop-color="#F6F5F5"/>
<stop offset="0.527344" stop-color="#F6F6F6"/>
<stop offset="0.53125" stop-color="#F7F7F7"/>
<stop offset="0.535156" stop-color="#F7F7F7"/>
<stop offset="0.539063" stop-color="#F8F8F8"/>
<stop offset="0.542969" stop-color="#F8F8F8"/>
<stop offset="0.546875" stop-color="#F9F9F9"/>
<stop offset="0.550781" stop-color="#FAFAFA"/>
<stop offset="0.554688" stop-color="#FAFAFA"/>
<stop offset="0.5625" stop-color="#FBFBFB"/>
<stop offset="0.625" stop-color="#FBFBFB"/>
<stop offset="0.75" stop-color="#FBFBFB"/>
<stop offset="1" stop-color="#FBFBFB"/>
</linearGradient>
<linearGradient id="paint1_linear_2314_2673" x1="11.655" y1="188.265" x2="158.37" y2="188.265" gradientUnits="userSpaceOnUse">
<stop stop-color="#8F8587"/>
<stop offset="0.00390625" stop-color="#908688"/>
<stop offset="0.0078125" stop-color="#918789"/>
<stop offset="0.0117188" stop-color="#91888A"/>
<stop offset="0.015625" stop-color="#92898A"/>
<stop offset="0.0195313" stop-color="#938A8B"/>
<stop offset="0.0234375" stop-color="#948A8C"/>
<stop offset="0.0273437" stop-color="#958B8D"/>
<stop offset="0.03125" stop-color="#968C8E"/>
<stop offset="0.0351562" stop-color="#968D8F"/>
<stop offset="0.0390625" stop-color="#978E90"/>
<stop offset="0.0429688" stop-color="#988F91"/>
<stop offset="0.046875" stop-color="#999091"/>
<stop offset="0.0507812" stop-color="#9A9192"/>
<stop offset="0.0546875" stop-color="#9A9293"/>
<stop offset="0.0585938" stop-color="#9B9294"/>
<stop offset="0.0625" stop-color="#9C9395"/>
<stop offset="0.0664062" stop-color="#9D9496"/>
<stop offset="0.0703125" stop-color="#9E9597"/>
<stop offset="0.0742187" stop-color="#9E9698"/>
<stop offset="0.078125" stop-color="#9F9798"/>
<stop offset="0.0820312" stop-color="#A09899"/>
<stop offset="0.0859375" stop-color="#A1999A"/>
<stop offset="0.0898437" stop-color="#A29A9B"/>
<stop offset="0.09375" stop-color="#A39A9C"/>
<stop offset="0.0976562" stop-color="#A39B9D"/>
<stop offset="0.101562" stop-color="#A49C9E"/>
<stop offset="0.105469" stop-color="#A59D9F"/>
<stop offset="0.109375" stop-color="#A69E9F"/>
<stop offset="0.113281" stop-color="#A79FA0"/>
<stop offset="0.117187" stop-color="#A7A0A1"/>
<stop offset="0.121094" stop-color="#A8A1A2"/>
<stop offset="0.125" stop-color="#A9A2A3"/>
<stop offset="0.128906" stop-color="#AAA2A4"/>
<stop offset="0.132812" stop-color="#ABA3A5"/>
<stop offset="0.136719" stop-color="#ABA4A6"/>
<stop offset="0.140625" stop-color="#ACA5A6"/>
<stop offset="0.144531" stop-color="#ADA6A7"/>
<stop offset="0.148438" stop-color="#AEA7A8"/>
<stop offset="0.152344" stop-color="#AFA8A9"/>
<stop offset="0.15625" stop-color="#B0A9AA"/>
<stop offset="0.160156" stop-color="#B0AAAB"/>
<stop offset="0.164062" stop-color="#B1AAAC"/>
<stop offset="0.167969" stop-color="#B2ABAD"/>
<stop offset="0.171875" stop-color="#B3ACAD"/>
<stop offset="0.175781" stop-color="#B4ADAE"/>
<stop offset="0.179687" stop-color="#B4AEAF"/>
<stop offset="0.183594" stop-color="#B5AFB0"/>
<stop offset="0.1875" stop-color="#B6B0B1"/>
<stop offset="0.191406" stop-color="#B7B1B2"/>
<stop offset="0.195312" stop-color="#B8B2B3"/>
<stop offset="0.199219" stop-color="#B9B2B4"/>
<stop offset="0.203125" stop-color="#B9B3B4"/>
<stop offset="0.207031" stop-color="#BAB4B5"/>
<stop offset="0.210937" stop-color="#BBB5B6"/>
<stop offset="0.214844" stop-color="#BCB6B7"/>
<stop offset="0.21875" stop-color="#BDB7B8"/>
<stop offset="0.222656" stop-color="#BDB8B9"/>
<stop offset="0.226562" stop-color="#BEB9BA"/>
<stop offset="0.230469" stop-color="#BFBABB"/>
<stop offset="0.234375" stop-color="#C0BABB"/>
<stop offset="0.238281" stop-color="#C1BBBC"/>
<stop offset="0.242187" stop-color="#C1BCBD"/>
<stop offset="0.246094" stop-color="#C2BDBE"/>
<stop offset="0.25" stop-color="#C3BEBF"/>
<stop offset="0.253906" stop-color="#C4BFC0"/>
<stop offset="0.257812" stop-color="#C5C0C1"/>
<stop offset="0.261719" stop-color="#C5C0C1"/>
<stop offset="0.265625" stop-color="#C6C1C2"/>
<stop offset="0.269531" stop-color="#C7C2C3"/>
<stop offset="0.273438" stop-color="#C8C3C4"/>
<stop offset="0.277344" stop-color="#C8C4C5"/>
<stop offset="0.28125" stop-color="#C9C5C5"/>
<stop offset="0.285156" stop-color="#CAC5C6"/>
<stop offset="0.289062" stop-color="#CBC6C7"/>
<stop offset="0.292969" stop-color="#CBC7C8"/>
<stop offset="0.296875" stop-color="#CCC8C9"/>
<stop offset="0.300781" stop-color="#CDC9C9"/>
<stop offset="0.304688" stop-color="#CDC9CA"/>
<stop offset="0.308594" stop-color="#CECACB"/>
<stop offset="0.3125" stop-color="#CFCBCC"/>
<stop offset="0.316406" stop-color="#D0CCCD"/>
<stop offset="0.320312" stop-color="#D0CDCD"/>
<stop offset="0.324219" stop-color="#D1CECE"/>
<stop offset="0.328125" stop-color="#D2CECF"/>
<stop offset="0.332031" stop-color="#D3CFD0"/>
<stop offset="0.335938" stop-color="#D3D0D1"/>
<stop offset="0.339844" stop-color="#D4D1D1"/>
<stop offset="0.34375" stop-color="#D5D2D2"/>
<stop offset="0.347656" stop-color="#D6D2D3"/>
<stop offset="0.351562" stop-color="#D6D3D4"/>
<stop offset="0.355469" stop-color="#D7D4D5"/>
<stop offset="0.359375" stop-color="#D8D5D5"/>
<stop offset="0.363281" stop-color="#D9D6D6"/>
<stop offset="0.367188" stop-color="#D9D7D7"/>
<stop offset="0.371094" stop-color="#DAD7D8"/>
<stop offset="0.375" stop-color="#DBD8D9"/>
<stop offset="0.378906" stop-color="#DCD9D9"/>
<stop offset="0.382812" stop-color="#DCDADA"/>
<stop offset="0.386719" stop-color="#DDDBDB"/>
<stop offset="0.390625" stop-color="#DEDCDC"/>
<stop offset="0.394531" stop-color="#DFDCDD"/>
<stop offset="0.398438" stop-color="#DFDDDD"/>
<stop offset="0.402344" stop-color="#E0DEDE"/>
<stop offset="0.40625" stop-color="#E1DFDF"/>
<stop offset="0.410156" stop-color="#E2E0E0"/>
<stop offset="0.414062" stop-color="#E2E0E1"/>
<stop offset="0.417969" stop-color="#E3E1E1"/>
<stop offset="0.421875" stop-color="#E4E2E2"/>
<stop offset="0.425781" stop-color="#E5E3E3"/>
<stop offset="0.429688" stop-color="#E5E4E4"/>
<stop offset="0.433594" stop-color="#E6E5E5"/>
<stop offset="0.4375" stop-color="#E7E5E5"/>
<stop offset="0.441406" stop-color="#E8E6E6"/>
<stop offset="0.445312" stop-color="#E8E7E7"/>
<stop offset="0.449219" stop-color="#E9E8E8"/>
<stop offset="0.453125" stop-color="#EAE9E9"/>
<stop offset="0.457031" stop-color="#EBE9E9"/>
<stop offset="0.460938" stop-color="#EBEAEA"/>
<stop offset="0.464844" stop-color="#ECEBEB"/>
<stop offset="0.46875" stop-color="#ECEBEB"/>
<stop offset="0.472656" stop-color="#EDECEC"/>
<stop offset="0.476562" stop-color="#EDEDED"/>
<stop offset="0.480469" stop-color="#EEEDED"/>
<stop offset="0.484375" stop-color="#EFEEEE"/>
<stop offset="0.488281" stop-color="#EFEEEE"/>
<stop offset="0.492188" stop-color="#F0EFEF"/>
<stop offset="0.496094" stop-color="#F0F0F0"/>
<stop offset="0.5" stop-color="#F1F0F0"/>
<stop offset="0.503906" stop-color="#F1F1F1"/>
<stop offset="0.507812" stop-color="#F2F1F1"/>
<stop offset="0.511719" stop-color="#F3F2F2"/>
<stop offset="0.515625" stop-color="#F3F3F3"/>
<stop offset="0.519531" stop-color="#F4F3F3"/>
<stop offset="0.523438" stop-color="#F4F4F4"/>
<stop offset="0.527344" stop-color="#F5F4F4"/>
<stop offset="0.53125" stop-color="#F5F5F5"/>
<stop offset="0.535156" stop-color="#F6F6F6"/>
<stop offset="0.539062" stop-color="#F6F6F6"/>
<stop offset="0.542969" stop-color="#F7F7F7"/>
<stop offset="0.546875" stop-color="#F8F7F7"/>
<stop offset="0.550781" stop-color="#F8F8F8"/>
<stop offset="0.554688" stop-color="#F9F9F9"/>
<stop offset="0.558594" stop-color="#F9F9F9"/>
<stop offset="0.5625" stop-color="#FAFAFA"/>
<stop offset="0.566406" stop-color="#FAFAFA"/>
<stop offset="0.570312" stop-color="#FBFBFB"/>
<stop offset="0.578125" stop-color="#FBFBFB"/>
<stop offset="0.59375" stop-color="#FBFBFB"/>
<stop offset="0.625" stop-color="#FBFBFB"/>
<stop offset="0.75" stop-color="#FBFBFB"/>
<stop offset="1" stop-color="#FBFBFB"/>
</linearGradient>
</defs>
</svg>
