<svg width="169" height="239" viewBox="0 0 169 239" fill="none" xmlns="http://www.w3.org/2000/svg">
<path d="M162.656 238.078H6.14062C2.81641 238.078 0.125 235.363 0.125 232.02V6.44922C0.125 3.10547 2.81641 0.390625 6.14062 0.390625H162.656C165.98 0.390625 168.672 3.10547 168.672 6.44922V232.02C168.672 235.363 165.98 238.078 162.656 238.078Z" fill="white"/>
<mask id="mask0_2314_2674" style="mask-type:luminance" maskUnits="userSpaceOnUse" x="11" y="10" width="147" height="79">
<path d="M11 10H158V89H11V10Z" fill="white"/>
</mask>
<g mask="url(#mask0_2314_2674)">
<mask id="mask1_2314_2674" style="mask-type:luminance" maskUnits="userSpaceOnUse" x="11" y="10" width="147" height="79">
<path d="M157.805 88.1328C157.805 62.2344 157.813 36.3281 157.82 10.4336C108.965 10.4336 60.1016 10.4336 11.2461 10.4414C11.2266 35.918 11.2031 61.3945 11.1797 86.8711C13.7461 75.4336 18.9219 58.5664 28.7891 49.5586C36.3438 42.6758 40.1133 39.2266 43.0703 37.8438C44.4414 37.1992 48.8281 35.3008 52.4609 30.8711C53.1367 30.0508 53.6211 29.332 53.9297 28.8516C54.2461 29.2734 55.4609 30.8242 57.1328 30.8555C59.3086 30.8906 61.7383 28.3438 61.8594 24.5039C62.1133 25.0742 64.25 29.6172 69.1094 30.6445C71.4492 31.1406 73.4141 30.6133 74.4258 30.2539C75.0859 29.707 75.9648 28.8594 76.7656 27.6445C77.5547 26.4531 77.9844 25.3359 78.2305 24.5234H90.7773C90.8516 24.9883 91.4609 28.418 94.5781 30.1289C97.6328 31.8008 100.73 30.5234 101.684 30.1406C104.977 28.8164 106.371 26.0781 106.676 25.4336C107.422 28.9727 109.895 31.1641 112.07 30.9883C112.422 30.9609 113.555 30.8086 114.734 29.4883L118.488 32.6172C119.961 33.4883 122.023 34.7695 124.398 36.4336C127.191 38.3867 136.445 44.9531 143.711 54.3984C153.363 66.9375 156.598 80.7461 157.797 88.1172L157.805 88.1328Z" fill="white"/>
</mask>
<g mask="url(#mask1_2314_2674)">
<path d="M11.1797 10.4336V88.1328H157.82V10.4336H11.1797Z" fill="#FBFBFB"/>
</g>
</g>
<path d="M158.195 228.227H10.7227C10.7227 182.895 10.7227 137.566 10.7227 92.2344C10.7227 64.8437 10.7227 37.4609 10.7227 10.0742H158.195C158.195 37.418 158.195 64.7617 158.195 92.1094C158.195 137.484 158.195 182.852 158.195 228.227Z" stroke="#0E0E0E" stroke-width="0.75" stroke-linecap="round" stroke-linejoin="round"/>
<path d="M84.3711 32.5039C84.3203 31.8828 84.0664 29.6992 82.2578 27.8477C80.6367 26.1836 78.7344 25.7852 78.0781 25.6719C78.1328 25.0195 78.1836 24.3672 78.2383 23.7148C79.0938 23.3164 80.8086 22.3711 82.2344 20.4609C83.6836 18.5156 84.0937 16.582 84.2305 15.6445C84.5664 16.8164 85.3086 18.8164 87.0039 20.7656C88.3086 22.2656 89.6992 23.1836 90.6562 23.7148C90.7109 24.3672 90.7617 25.0195 90.8164 25.6719C90.3516 25.7188 87.3594 26.0625 85.5586 28.6797C84.5 30.2266 84.3711 31.8008 84.3594 32.5039H84.3711Z" fill="white"/>
<path d="M53.1641 22.0664C53.9961 21.8242 55.3711 21.5625 56.9219 21.9375C58.2813 22.2617 59.1953 22.9218 59.711 23.3086C64.2735 26.7304 64.9492 29.3867 68.082 30.5859C68.4883 30.7422 71.4219 31.7109 74.375 30.3281C76.4609 29.3554 77.9453 27.1367 78.1758 24.7265C78.5078 21.2773 76.1094 17.8633 73.3242 17.2422C73.0039 17.1679 71.2461 16.7773 69.8164 17.8515C69.6367 17.9843 68.5235 18.8398 68.3672 20.3476C68.3438 20.5742 68.1641 22.5156 69.6485 23.4609C70.4844 23.9843 71.5391 24.0156 72.3789 23.625C73.5742 23.0781 74.293 21.7031 74.1055 20.2343C74.3984 20.5586 74.8008 21.0586 75.125 21.75C75.2812 22.0781 76.3008 24.3359 75.3282 26.5039C74.1407 29.1445 70.9102 29.6093 70.4766 29.6718C67.586 30.082 64.5859 28.5664 62.6211 25.8437" stroke="#0E0E0E" stroke-width="0.75" stroke-linecap="round" stroke-linejoin="round"/>
<path d="M78.2383 23.625C78.8086 23.3477 79.6992 22.8438 80.6094 22.0195C83.5117 19.3711 84.043 15.6992 84.2813 14.0625C84.418 13.1406 84.5391 11.7656 84.3789 10.0664" stroke="#0E0E0E" stroke-width="0.75" stroke-linecap="round" stroke-linejoin="round"/>
<path d="M78.0781 25.582C78.793 25.7109 79.5664 25.9336 80.3281 26.3242C83.7891 28.0859 84.2969 31.7773 84.3711 32.4141" stroke="#0E0E0E" stroke-width="0.75" stroke-linecap="round" stroke-linejoin="round"/>
<path d="M115.746 22.0664C114.914 21.8242 113.539 21.5625 111.988 21.9375C110.629 22.2617 109.715 22.9218 109.199 23.3086C104.637 26.7304 103.961 29.3867 100.828 30.5859C100.422 30.7422 97.4883 31.7109 94.5352 30.3281C92.4493 29.3554 90.9649 27.1367 90.7344 24.7265C90.4024 21.2773 92.8008 17.8633 95.5859 17.2422C95.9063 17.1679 97.6641 16.7773 99.0938 17.8515C99.2735 17.9843 100.387 18.8398 100.543 20.3476C100.566 20.5742 100.746 22.5156 99.2617 23.4609C98.4258 23.9843 97.3711 24.0156 96.5313 23.625C95.336 23.0781 94.6172 21.7031 94.8047 20.2343C94.5118 20.5586 94.1094 21.0586 93.7852 21.75C93.6289 22.0781 92.6094 24.3359 93.582 26.5039C94.7656 29.1445 98 29.6093 98.4336 29.6718C101.324 30.082 104.324 28.5664 106.289 25.8437" stroke="#0E0E0E" stroke-width="0.75" stroke-linecap="round" stroke-linejoin="round"/>
<path d="M90.8281 25.582C90.1172 25.7109 89.3438 25.9336 88.5781 26.3242C85.1211 28.0859 84.6133 31.7773 84.5391 32.4141" stroke="#0E0E0E" stroke-width="0.75" stroke-linecap="round" stroke-linejoin="round"/>
<path d="M115.039 28.9219C114.926 29.1758 114.336 30.4883 112.949 30.9219C111.477 31.3867 110.188 30.5312 109.648 30.1719C107.375 28.6641 107.148 25.793 107.129 25.3281" stroke="#0E0E0E" stroke-width="0.75" stroke-linecap="round" stroke-linejoin="round"/>
<path d="M123.012 35.836C122.367 35.4688 121.461 34.9141 120.441 34.172C117.492 32.0235 115.191 30.3516 114.59 27.6212C114.043 25.1407 115.16 23.047 115.355 22.6954C117.191 19.379 121.039 18.8321 121.836 18.7423C125.414 18.336 129.043 20.2266 131.316 23.5274" stroke="#0E0E0E" stroke-width="0.75" stroke-linecap="round" stroke-linejoin="round"/>
<path d="M130.82 40.9805C130.859 33.2617 128.969 27.2031 125.977 25.5312C124.437 24.6758 122.879 24.6523 122.879 24.6523C122.359 24.6523 119.742 24.6914 118.086 26.8516C116.609 28.7773 116.977 30.9844 117.043 31.3594" stroke="#0E0E0E" stroke-width="0.75" stroke-linecap="round" stroke-linejoin="round"/>
<path d="M151.949 37.0782C152.336 36.8867 153.582 36.3086 154.926 36.6524C157.316 37.2617 157.586 40.1485 157.602 40.3594C157.746 42.1953 156.621 44.3321 154.477 45.0977C152.824 45.6836 151.234 45.2188 150.387 44.9688C147.641 44.168 146.137 42.3008 145.387 41.3555C142.984 38.2969 144.156 36.8086 141.695 34.6367C141.027 34.043 139.676 32.8438 137.609 32.5274C135.453 32.1914 134.57 33.1211 132.606 32.5742C130.676 32.0313 129.68 30.6133 129.426 30.2188C129.305 30.0391 127.902 27.7813 129.223 25.5078C129.492 25.0352 130.297 23.6641 132.102 23.2657C133.746 22.9141 135.551 23.5117 136.543 24.6914C137.391 25.6953 137.637 27.1133 136.977 28.2383C136.836 28.4844 136.387 29.25 135.363 29.5586C134.512 29.8125 133.422 29.6992 132.672 29.1016C132.012 28.5664 131.891 27.8867 131.871 27.6836" stroke="#0E0E0E" stroke-width="0.75" stroke-linecap="round" stroke-linejoin="round"/>
<path d="M143.238 36.7266C142.926 33.3086 141.176 30.4961 138.621 29.5781C138.035 29.3711 137.121 29.1602 135.906 29.3086" stroke="#0E0E0E" stroke-width="0.75" stroke-linecap="round" stroke-linejoin="round"/>
<path d="M145.836 42.0391C145.371 41.918 143.434 41.4688 141.785 42.5469C139.797 43.8516 139.004 46.875 140.227 49.7383" stroke="#0E0E0E" stroke-width="0.75" stroke-linecap="round" stroke-linejoin="round"/>
<path d="M147.191 52.3437C146.887 52.3281 146.246 52.3359 145.574 52.6875C144.477 53.2656 144.117 54.3242 144.051 54.5625" stroke="#0E0E0E" stroke-width="0.75" stroke-linecap="round" stroke-linejoin="round"/>
<path d="M158.18 91.1563C158.164 91.0508 158.148 90.8633 158.121 90.6445C157.535 85.5078 154.227 61.5234 134.504 44.0234C132.051 41.8516 128.246 38.7969 123.012 35.8281" stroke="#0E0E0E" stroke-width="0.75" stroke-linecap="round" stroke-linejoin="round"/>
<path d="M84.3711 32.5039C84.3203 31.8828 84.0664 29.6992 82.2578 27.8477C80.6367 26.1836 78.7344 25.7852 78.0781 25.6719C78.1328 25.0195 78.1836 24.3672 78.2383 23.7148C79.0938 23.3164 80.8086 22.3711 82.2344 20.4609C83.6836 18.5156 84.0937 16.582 84.2305 15.6445C84.5664 16.8164 85.3086 18.8164 87.0039 20.7656C88.3086 22.2656 89.6992 23.1836 90.6563 23.7148C90.711 24.3672 90.7617 25.0195 90.8164 25.6719C90.3516 25.7187 87.3594 26.0625 85.5586 28.6797C84.5 30.2266 84.3711 31.8008 84.3594 32.5039H84.3711Z" fill="black" stroke="black" stroke-width="0.5625" stroke-linecap="round" stroke-linejoin="round"/>
<path d="M115.746 22.0664C114.914 21.8242 113.539 21.5625 111.988 21.9375C110.629 22.2617 109.715 22.9218 109.199 23.3086C104.637 26.7304 103.961 29.3867 100.828 30.5859C100.422 30.7422 97.4883 31.7109 94.5352 30.3281C92.4493 29.3554 90.9649 27.1367 90.7344 24.7265C90.4024 21.2773 92.8008 17.8633 95.5859 17.2422C95.9063 17.1679 97.6641 16.7773 99.0938 17.8515C99.2735 17.9843 100.387 18.8398 100.543 20.3476C100.566 20.5742 100.746 22.5156 99.2617 23.4609C98.4258 23.9843 97.3711 24.0156 96.5313 23.625C95.336 23.0781 94.6172 21.7031 94.8047 20.2343C94.5118 20.5586 94.1094 21.0586 93.7852 21.75C93.6289 22.0781 92.6094 24.3359 93.582 26.5039C94.7656 29.1445 98 29.6093 98.4336 29.6718C101.324 30.082 104.324 28.5664 106.289 25.8437" stroke="#0E0E0E" stroke-width="0.75" stroke-linecap="round" stroke-linejoin="round"/>
<path d="M90.6719 23.625C89.5703 23.0781 88.7969 22.4688 88.3008 22.0195C84.9571 18.9766 84.6368 14.4531 84.5157 12.7891C84.4336 11.6484 84.4766 10.7031 84.5313 10.0664" stroke="#0E0E0E" stroke-width="0.75" stroke-linecap="round" stroke-linejoin="round"/>
<path d="M90.8281 25.582C90.1172 25.7109 89.3438 25.9336 88.5781 26.3242C85.1211 28.0859 84.6133 31.7773 84.5391 32.4141" stroke="#0E0E0E" stroke-width="0.75" stroke-linecap="round" stroke-linejoin="round"/>
<path d="M115.039 28.9219C114.926 29.1758 114.336 30.4883 112.949 30.9219C111.477 31.3867 110.188 30.5312 109.648 30.1719C107.375 28.6641 107.148 25.793 107.129 25.3281" stroke="#0E0E0E" stroke-width="0.75" stroke-linecap="round" stroke-linejoin="round"/>
<path d="M123.012 35.836C122.367 35.4688 121.461 34.9141 120.441 34.172C117.492 32.0235 115.191 30.3516 114.59 27.6212C114.043 25.1407 115.16 23.047 115.355 22.6954C117.191 19.379 121.039 18.8321 121.836 18.7423C125.414 18.336 129.043 20.2266 131.316 23.5274" stroke="#0E0E0E" stroke-width="0.75" stroke-linecap="round" stroke-linejoin="round"/>
<path d="M130.82 40.9805C130.859 33.2617 128.969 27.2031 125.977 25.5312C124.437 24.6758 122.879 24.6523 122.879 24.6523C122.359 24.6523 119.742 24.6914 118.086 26.8516C116.609 28.7773 116.977 30.9844 117.043 31.3594" stroke="#0E0E0E" stroke-width="0.75" stroke-linecap="round" stroke-linejoin="round"/>
<path d="M151.949 37.0782C152.336 36.8867 153.582 36.3086 154.926 36.6524C157.316 37.2617 157.586 40.1485 157.602 40.3594C157.746 42.1953 156.621 44.3321 154.477 45.0977C152.824 45.6836 151.234 45.2188 150.387 44.9688C147.641 44.168 146.137 42.3008 145.387 41.3555C142.984 38.2969 144.156 36.8086 141.695 34.6367C141.027 34.043 139.676 32.8438 137.609 32.5274C135.453 32.1914 134.57 33.1211 132.606 32.5742C130.676 32.0313 129.68 30.6133 129.426 30.2188C129.305 30.0391 127.902 27.7813 129.223 25.5078C129.492 25.0352 130.297 23.6641 132.102 23.2657C133.746 22.9141 135.551 23.5117 136.543 24.6914C137.391 25.6953 137.637 27.1133 136.977 28.2383C136.836 28.4844 136.387 29.25 135.363 29.5586C134.512 29.8125 133.422 29.6992 132.672 29.1016C132.012 28.5664 131.891 27.8867 131.871 27.6836" stroke="#0E0E0E" stroke-width="0.75" stroke-linecap="round" stroke-linejoin="round"/>
<path d="M143.238 36.7266C142.926 33.3086 141.176 30.4961 138.621 29.5781C138.035 29.3711 137.121 29.1602 135.906 29.3086" stroke="#0E0E0E" stroke-width="0.75" stroke-linecap="round" stroke-linejoin="round"/>
<path d="M158.09 48.8007C156.859 46.6952 154.895 45.3827 152.937 45.5038C150.516 45.6523 149.09 47.9257 148.477 48.9062C145.012 54.4335 148.715 61.9882 149.285 63.121" stroke="#0E0E0E" stroke-width="0.75" stroke-linecap="round" stroke-linejoin="round"/>
<path d="M158.141 90.4805C156.734 80.8281 152.148 59.7148 134.504 44.0312C130.664 40.6211 126.738 37.9414 123.012 35.8359" stroke="#0E0E0E" stroke-width="0.75" stroke-linecap="round" stroke-linejoin="round"/>
<mask id="mask2_2314_2674" style="mask-type:luminance" maskUnits="userSpaceOnUse" x="11" y="148" width="147" height="80">
<path d="M11 148H158V228H11V148Z" fill="white"/>
</mask>
<g mask="url(#mask2_2314_2674)">
<mask id="mask3_2314_2674" style="mask-type:luminance" maskUnits="userSpaceOnUse" x="11" y="148" width="147" height="80">
<path d="M11.0312 148.68C11.0508 175.074 11.0664 201.465 11.0898 227.852C59.9531 227.844 108.816 227.828 157.676 227.82C157.699 202.344 157.723 176.863 157.746 151.387C152.891 162.676 145.453 176.43 133.91 190.172C129.453 195.465 124.969 200.086 120.641 204.09C119.441 205.68 118.242 207.262 117.051 208.852C116.367 209.039 115.684 209.219 115.004 209.406C114.688 208.988 113.473 207.434 111.801 207.406C109.625 207.367 107.195 209.918 107.074 213.758C106.82 213.188 104.684 208.641 99.8242 207.613C97.4844 207.121 95.5156 207.645 94.5039 208.004C93.8438 208.551 92.9688 209.398 92.1641 210.613C91.3789 211.809 90.9492 212.926 90.7031 213.734H78.1562C78.0781 213.27 77.4727 209.844 74.3516 208.133C71.3008 206.461 68.2031 207.734 67.25 208.117C63.957 209.445 62.5625 212.184 62.2539 212.828C61.5117 209.289 59.0391 207.098 56.8633 207.27C56.5117 207.301 55.3789 207.449 54.1992 208.77C52.9492 207.727 51.6953 206.684 50.4414 205.641C44.6211 202.762 33.7852 196.426 24.6875 184.141C14.0508 169.77 11.6992 155.227 11.0469 148.688L11.0312 148.68Z" fill="white"/>
</mask>
<g mask="url(#mask3_2314_2674)">
<path d="M11.0312 148.68V227.852H157.746V148.68H11.0312Z" fill="#FBFBFB"/>
</g>
</g>
<path d="M84.418 205.957C84.4687 206.578 84.7266 208.762 86.5312 210.613C88.1523 212.281 90.0586 212.676 90.7109 212.789C90.6562 213.441 90.6055 214.094 90.5508 214.746C89.6992 215.145 87.9805 216.09 86.5547 218.004C85.1094 219.945 84.6953 221.879 84.5586 222.816C84.2227 221.648 83.4805 219.645 81.7852 217.695C80.4805 216.195 79.0938 215.281 78.1328 214.746C78.0781 214.094 78.0273 213.441 77.9766 212.789C78.4414 212.746 81.4336 212.398 83.2344 209.781C84.2891 208.238 84.418 206.664 84.4336 205.957H84.418Z" fill="white"/>
<path d="M115.625 216.398C114.793 216.637 113.422 216.898 111.867 216.523C110.512 216.203 109.594 215.543 109.078 215.152C104.516 211.734 103.844 209.078 100.707 207.879C100.301 207.719 97.3711 206.754 94.414 208.133C92.3281 209.109 90.8437 211.328 90.6133 213.734C90.2812 217.184 92.6836 220.598 95.4648 221.219C95.7891 221.297 97.543 221.684 98.9766 220.613C99.1563 220.477 100.266 219.621 100.422 218.113C100.445 217.891 100.625 215.949 99.1406 215.004C98.3086 214.477 97.25 214.449 96.4102 214.836C95.2188 215.387 94.4961 216.758 94.6836 218.227C94.3906 217.906 93.9883 217.402 93.664 216.711C93.5078 216.383 92.4883 214.125 93.4609 211.957C94.6484 209.316 97.8789 208.852 98.3164 208.793C101.203 208.379 104.203 209.895 106.168 212.617" stroke="#0E0E0E" stroke-width="0.75" stroke-linecap="round" stroke-linejoin="round"/>
<path d="M90.5508 214.836C89.4961 215.363 88.7227 215.953 88.1836 216.441C85.0703 219.27 84.6133 223.387 84.3945 225.316C84.2539 226.566 84.2656 227.602 84.2969 228.238" stroke="#0E0E0E" stroke-width="0.75" stroke-linecap="round" stroke-linejoin="round"/>
<path d="M90.7109 212.879C89.9961 212.754 89.2266 212.527 88.4609 212.137C85.0039 210.375 84.4922 206.684 84.418 206.047" stroke="#0E0E0E" stroke-width="0.75" stroke-linecap="round" stroke-linejoin="round"/>
<path d="M53.0508 216.398C53.8867 216.637 55.2578 216.898 56.8086 216.523C58.168 216.203 59.0821 215.543 59.6016 215.152C64.1602 211.734 64.836 209.078 67.9688 207.879C68.375 207.719 71.3086 206.754 74.2617 208.133C76.3477 209.109 77.832 211.328 78.0664 213.734C78.3945 217.184 75.9961 220.598 73.211 221.219C72.8906 221.297 71.1367 221.684 69.7032 220.613C69.5235 220.477 68.4141 219.621 68.2539 218.113C68.2344 217.891 68.0508 215.949 69.5391 215.004C70.3711 214.477 71.4258 214.449 72.2656 214.836C73.4609 215.387 74.1797 216.758 73.9922 218.227C74.2852 217.906 74.6914 217.402 75.0117 216.711C75.1719 216.383 76.1914 214.125 75.2149 211.957C74.0313 209.316 70.7969 208.852 70.3633 208.793C67.4766 208.379 64.4766 209.895 62.5117 212.617" stroke="#0E0E0E" stroke-width="0.75" stroke-linecap="round" stroke-linejoin="round"/>
<path d="M77.9688 212.879C78.6484 212.773 79.4297 212.559 80.2188 212.137C83.4258 210.441 84.2617 206.82 84.418 206.047" stroke="#0E0E0E" stroke-width="0.75" stroke-linecap="round" stroke-linejoin="round"/>
<path d="M53.7578 209.543C53.8711 209.289 54.461 207.977 55.8516 207.539C57.3203 207.074 58.6094 207.93 59.1484 208.289C61.4219 209.797 61.6484 212.672 61.6719 213.137" stroke="#0E0E0E" stroke-width="0.75" stroke-linecap="round" stroke-linejoin="round"/>
<path d="M45.7852 202.629C46.4297 202.996 47.3359 203.551 48.3594 204.293C51.3047 206.438 53.6094 208.109 54.207 210.84C54.7539 213.324 53.6367 215.414 53.4414 215.766C51.6055 219.082 47.7578 219.629 46.961 219.719C43.3867 220.125 39.7539 218.234 37.4844 214.934" stroke="#0E0E0E" stroke-width="0.75" stroke-linecap="round" stroke-linejoin="round"/>
<path d="M37.9766 197.484C37.9414 205.199 39.8281 211.262 42.8242 212.934C44.3594 213.789 45.9219 213.809 45.9219 213.809C46.4375 213.809 49.0547 213.773 50.7109 211.613C52.1914 209.684 51.8242 207.48 51.7539 207.105" stroke="#0E0E0E" stroke-width="0.75" stroke-linecap="round" stroke-linejoin="round"/>
<path d="M16.8516 201.383C16.4609 201.578 15.2148 202.156 13.8711 201.809C11.4804 201.203 11.2109 198.316 11.1953 198.105C11.0508 196.266 12.1758 194.129 14.3242 193.363C15.9727 192.781 17.5625 193.246 18.4102 193.492C21.1563 194.297 22.6641 196.164 23.4141 197.109C25.8125 200.168 24.6406 201.652 27.1015 203.828C27.7695 204.422 29.1211 205.621 31.1914 205.934C33.3437 206.273 34.2266 205.344 36.1914 205.891C38.1211 206.43 39.1172 207.848 39.3711 208.246C39.4922 208.426 40.8945 210.684 39.5742 212.953C39.3047 213.426 38.5039 214.801 36.6953 215.199C35.0508 215.551 33.2461 214.949 32.2539 213.773C31.4062 212.766 31.1602 211.351 31.8203 210.226C31.9609 209.976 32.4141 209.211 33.4336 208.906C34.2891 208.648 35.375 208.762 36.125 209.363C36.7851 209.894 36.9063 210.578 36.9258 210.781" stroke="#0E0E0E" stroke-width="0.75" stroke-linecap="round" stroke-linejoin="round"/>
<path d="M25.5586 201.727C25.8711 205.148 27.6211 207.961 30.1758 208.875C30.7617 209.086 31.6758 209.297 32.8906 209.145" stroke="#0E0E0E" stroke-width="0.75" stroke-linecap="round" stroke-linejoin="round"/>
<path d="M22.9531 196.426C23.4336 196.547 25.3555 196.98 27.0039 195.914C29.0078 194.609 29.8242 191.586 28.6172 188.707" stroke="#0E0E0E" stroke-width="0.75" stroke-linecap="round" stroke-linejoin="round"/>
<path d="M53.0508 216.398C53.8867 216.637 55.2578 216.898 56.8086 216.523C58.168 216.203 59.0821 215.543 59.6016 215.152C64.1602 211.734 64.836 209.078 67.9688 207.879C68.375 207.719 71.3086 206.754 74.2617 208.133C76.3477 209.109 77.832 211.328 78.0664 213.734C78.3945 217.184 75.9961 220.598 73.211 221.219C72.8906 221.297 71.1367 221.684 69.7032 220.613C69.5235 220.477 68.4141 219.621 68.2539 218.113C68.2344 217.891 68.0508 215.949 69.5391 215.004C70.3711 214.477 71.4258 214.449 72.2656 214.836C73.4609 215.387 74.1797 216.758 73.9922 218.227C74.2852 217.906 74.6914 217.402 75.0117 216.711C75.1719 216.383 76.1914 214.125 75.2149 211.957C74.0313 209.316 70.7969 208.852 70.3633 208.793C67.4766 208.379 64.4766 209.895 62.5117 212.617" stroke="#0E0E0E" stroke-width="0.75" stroke-linecap="round" stroke-linejoin="round"/>
<path d="M78.125 214.836C78.7461 215.137 79.6172 215.641 80.4961 216.441C82.3477 218.152 83.0157 220.133 83.5313 221.754C84.336 224.258 84.418 226.539 84.3047 228.238" stroke="#0E0E0E" stroke-width="0.75" stroke-linecap="round" stroke-linejoin="round"/>
<path d="M77.9688 212.879C78.6484 212.773 79.4297 212.559 80.2188 212.137C83.457 210.422 84.2656 206.715 84.418 205.957" stroke="#0E0E0E" stroke-width="0.75" stroke-linecap="round" stroke-linejoin="round"/>
<path d="M53.7578 209.543C53.8711 209.289 54.461 207.977 55.8516 207.539C57.3203 207.074 58.6094 207.93 59.1484 208.289C61.4219 209.797 61.6484 212.672 61.6719 213.137" stroke="#0E0E0E" stroke-width="0.75" stroke-linecap="round" stroke-linejoin="round"/>
<path d="M45.7852 202.629C46.4297 202.996 47.3359 203.551 48.3594 204.293C51.3047 206.438 53.6094 208.109 54.207 210.84C54.7539 213.324 53.6367 215.414 53.4414 215.766C51.6055 219.082 47.7578 219.629 46.961 219.719C43.3867 220.125 39.7539 218.234 37.4844 214.934" stroke="#0E0E0E" stroke-width="0.75" stroke-linecap="round" stroke-linejoin="round"/>
<path d="M37.9766 197.484C37.9414 205.199 39.8281 211.262 42.8242 212.934C44.3594 213.789 45.9219 213.809 45.9219 213.809C46.4375 213.809 49.0547 213.773 50.7109 211.613C52.1914 209.684 51.8242 207.48 51.7539 207.105" stroke="#0E0E0E" stroke-width="0.75" stroke-linecap="round" stroke-linejoin="round"/>
<path d="M16.8516 201.383C16.4609 201.578 15.2148 202.156 13.8711 201.809C11.4804 201.203 11.2109 198.316 11.1953 198.105C11.0508 196.266 12.1758 194.129 14.3242 193.363C15.9727 192.781 17.5625 193.246 18.4102 193.492C21.1563 194.297 22.6641 196.164 23.4141 197.109C25.8125 200.168 24.6406 201.652 27.1015 203.828C27.7695 204.422 29.1211 205.621 31.1914 205.934C33.3437 206.273 34.2266 205.344 36.1914 205.891C38.1211 206.43 39.1172 207.848 39.3711 208.246C39.4922 208.426 40.8945 210.684 39.5742 212.953C39.3047 213.426 38.5039 214.801 36.6953 215.199C35.0508 215.551 33.2461 214.949 32.2539 213.773C31.4062 212.766 31.1602 211.351 31.8203 210.226C31.9609 209.976 32.4141 209.211 33.4336 208.906C34.2891 208.648 35.375 208.762 36.125 209.363C36.7851 209.894 36.9063 210.578 36.9258 210.781" stroke="#0E0E0E" stroke-width="0.75" stroke-linecap="round" stroke-linejoin="round"/>
<path d="M25.5586 201.727C25.8711 205.148 27.6211 207.961 30.1758 208.875C30.7617 209.086 31.6758 209.297 32.8906 209.145" stroke="#0E0E0E" stroke-width="0.75" stroke-linecap="round" stroke-linejoin="round"/>
<path d="M10.7891 189.797C10.8789 189.945 12.875 193.141 15.8594 192.953C18.2735 192.801 19.6992 190.539 20.3242 189.547C23.7813 184.027 20.0821 176.469 19.5117 175.336" stroke="#0E0E0E" stroke-width="0.75" stroke-linecap="round" stroke-linejoin="round"/>
<path d="M22.9531 196.426C23.4336 196.547 25.3555 196.98 27.0039 195.914C29.0078 194.609 29.8242 191.586 28.6172 188.707" stroke="#0E0E0E" stroke-width="0.75" stroke-linecap="round" stroke-linejoin="round"/>
<path d="M21.5977 186.121C21.9063 186.137 22.543 186.129 23.2188 185.773C24.3438 185.184 24.6875 184.078 24.7539 183.855" stroke="#0E0E0E" stroke-width="0.75" stroke-linecap="round" stroke-linejoin="round"/>
<path d="M10.7461 146.535C11.9453 156.195 16.1602 178.273 34.2969 194.437C38.1289 197.852 42.043 200.527 45.7852 202.637" stroke="#0E0E0E" stroke-width="0.75" stroke-linecap="round" stroke-linejoin="round"/>
<path d="M23.0508 22.5H42.1484V23.5352H41.7422C40.9766 23.5352 40.3789 23.8711 39.9336 24.5547L29.6914 42.6602C29.5781 42.9219 29.5156 43.1563 29.5156 43.3633C29.5156 43.5156 29.5469 43.6367 29.6094 43.7383C29.7344 43.918 29.9453 44.0117 30.2383 44.0117L30.6562 43.9805L30.6406 45.0469H23.375V43.9805L23.7969 44.0117C24.1484 44.0117 24.5078 43.9062 24.8516 43.6875C25.2031 43.4688 25.4883 43.1836 25.707 42.832V42.8164C28.5352 37.7852 32.1367 31.3594 36.5156 23.5352H26.7891C26.0391 23.5352 25.3906 23.8047 24.8672 24.3359C24.3359 24.8711 24.0742 25.5078 24.0742 26.25V26.6562H23.0391V22.5H23.0508Z" fill="black"/>
<path d="M145.664 216.059H126.566V215.023H126.973C127.738 215.023 128.336 214.688 128.781 214.004L139.023 195.898C139.137 195.637 139.199 195.406 139.199 195.195C139.199 195.047 139.168 194.926 139.109 194.82C138.98 194.641 138.77 194.551 138.477 194.551L138.059 194.578L138.074 193.516H145.34V194.578L144.922 194.551C144.566 194.551 144.207 194.656 143.863 194.871C143.512 195.09 143.227 195.375 143.008 195.727V195.742C140.18 200.773 136.578 207.203 132.199 215.023H141.926C142.676 215.023 143.324 214.754 143.848 214.223C144.379 213.691 144.641 213.051 144.641 212.309V211.906H145.676V216.059H145.664Z" fill="black"/>
<path d="M111.027 205.844C112.152 207.074 113.887 206.348 113.887 206.348C113.406 206.863 113.074 207.277 113.137 208.125C113.137 208.156 113.137 208.184 113.137 208.215C113.137 209.566 114.23 210.652 115.574 210.652C116.914 210.652 118.012 209.559 118.012 208.215C118.012 208.043 117.996 207.879 117.957 207.719C117.906 207.137 117.613 206.781 117.215 206.355C117.215 206.355 118.949 207.082 120.074 205.852C121.199 204.621 120.637 203.16 120.281 202.68C119.93 202.199 119.398 201.398 118.145 201.488C117.035 201.57 116.879 201.758 116.113 202.363C116.203 200.691 117.215 199.551 117.215 199.551H113.887C114.5 200.199 115.039 201.676 114.973 202.352C114.23 201.758 114.059 201.57 112.961 201.488C111.711 201.398 111.176 202.199 110.824 202.68C110.473 203.16 109.91 204.621 111.035 205.852L111.027 205.844Z" fill="#292929" stroke="black" stroke-width="0.5625" stroke-linecap="round" stroke-linejoin="round"/>
<path d="M57.6953 32.6758C56.5703 31.4492 54.8359 32.1758 54.8359 32.1758C55.3164 31.6562 55.6484 31.2461 55.5859 30.3984C55.5859 30.3672 55.5859 30.3359 55.5859 30.3086C55.5859 28.957 54.4922 27.8711 53.1484 27.8711C51.8086 27.8711 50.7109 28.9648 50.7109 30.3086C50.7109 30.4805 50.7266 30.6445 50.7656 30.8008C50.8164 31.3867 51.1094 31.7383 51.5078 32.168C51.5078 32.168 49.7734 31.4414 48.6484 32.6719C47.5234 33.8984 48.0859 35.3633 48.4414 35.8437C48.793 36.3242 49.3242 37.125 50.5781 37.0352C51.6875 36.9531 51.8438 36.7656 52.6094 36.1562C52.5195 37.8281 51.5078 38.9688 51.5078 38.9688H54.8359C54.2227 38.3242 53.6836 36.8477 53.75 36.1719C54.4922 36.7656 54.6641 36.9531 55.7617 37.0352C57.0117 37.125 57.5469 36.3242 57.8984 35.8437C58.25 35.3633 58.8125 33.8984 57.6875 32.6719L57.6953 32.6758Z" fill="#292929" stroke="black" stroke-width="0.5625" stroke-linecap="round" stroke-linejoin="round"/>
<path d="M72.4258 58.0039C70.1836 55.5508 66.7383 57.0078 66.7383 57.0078C67.6993 55.9805 68.3438 55.1641 68.2266 53.4766C68.2266 53.4141 68.2266 53.3633 68.2266 53.3008C68.2266 50.6172 66.0508 48.4414 63.3633 48.4414C60.6797 48.4414 58.5118 50.6172 58.5118 53.3008C58.5118 53.6406 58.5508 53.9687 58.6094 54.2852C58.7227 55.4531 59.3008 56.1602 60.0938 57.0078C60.0938 57.0078 56.6524 55.5508 54.4102 58.0039C52.168 60.457 53.293 63.3594 53.9961 64.3125C54.7031 65.2656 55.7617 66.8711 58.25 66.6836C60.4531 66.5156 60.7774 66.1406 62.3008 64.9336C62.1211 68.2656 60.1016 70.5391 60.1016 70.5391H66.7461C65.5234 69.2539 64.4453 66.3086 64.586 64.9648C66.0742 66.1484 66.4102 66.5156 68.5938 66.6836C71.082 66.8711 72.1407 65.2656 72.8438 64.3125C73.5508 63.3594 74.6758 60.4492 72.4336 58.0039H72.4258Z" fill="#292929" stroke="black" stroke-width="0.5625" stroke-linecap="round" stroke-linejoin="round"/>
<path d="M114.344 58.0039C112.102 55.5508 108.656 57.0078 108.656 57.0078C109.617 55.9805 110.262 55.1641 110.141 53.4766C110.141 53.4141 110.141 53.3633 110.141 53.3008C110.141 50.6172 107.969 48.4414 105.281 48.4414C102.598 48.4414 100.43 50.6172 100.43 53.3008C100.43 53.6406 100.469 53.9687 100.527 54.2852C100.641 55.4531 101.219 56.1602 102.012 57.0078C102.012 57.0078 98.5703 55.5508 96.3282 58.0039C94.086 60.457 95.2109 63.3594 95.9141 64.3125C96.6211 65.2656 97.6758 66.8711 100.168 66.6836C102.371 66.5156 102.695 66.1406 104.219 64.9336C104.039 68.2656 102.02 70.5391 102.02 70.5391H108.664C107.441 69.2539 106.363 66.3086 106.504 64.9648C107.988 66.1484 108.328 66.5156 110.512 66.6836C113 66.8711 114.059 65.2656 114.762 64.3125C115.469 63.3594 116.594 60.4492 114.352 58.0039H114.344Z" fill="#292929" stroke="black" stroke-width="0.5625" stroke-linecap="round" stroke-linejoin="round"/>
<path d="M72.4258 115.988C70.1836 113.535 66.7383 114.988 66.7383 114.988C67.6993 113.961 68.3438 113.145 68.2266 111.457C68.2266 111.398 68.2266 111.344 68.2266 111.285C68.2266 108.602 66.0508 106.426 63.3633 106.426C60.6797 106.426 58.5118 108.602 58.5118 111.285C58.5118 111.621 58.5508 111.953 58.6094 112.266C58.7227 113.437 59.3008 114.141 60.0938 114.988C60.0938 114.988 56.6524 113.535 54.4102 115.988C52.168 118.441 53.293 121.344 53.9961 122.297C54.7031 123.246 55.7617 124.852 58.25 124.664C60.4531 124.5 60.7774 124.125 62.3008 122.918C62.1211 126.246 60.1016 128.52 60.1016 128.52H66.7461C65.5234 127.238 64.4453 124.289 64.586 122.949C66.0742 124.133 66.4102 124.5 68.5938 124.664C71.082 124.852 72.1407 123.246 72.8438 122.297C73.5508 121.344 74.6758 118.434 72.4336 115.988H72.4258Z" fill="#292929" stroke="black" stroke-width="0.5625" stroke-linecap="round" stroke-linejoin="round"/>
<path d="M114.344 115.988C112.102 113.535 108.656 114.988 108.656 114.988C109.617 113.961 110.262 113.145 110.141 111.457C110.141 111.398 110.141 111.344 110.141 111.285C110.141 108.602 107.969 106.426 105.281 106.426C102.598 106.426 100.43 108.602 100.43 111.285C100.43 111.621 100.469 111.953 100.527 112.266C100.641 113.437 101.219 114.141 102.012 114.988C102.012 114.988 98.5703 113.535 96.3282 115.988C94.086 118.441 95.2109 121.344 95.9141 122.297C96.6211 123.246 97.6758 124.852 100.168 124.664C102.371 124.5 102.695 124.125 104.219 122.918C104.039 126.246 102.02 128.52 102.02 128.52H108.664C107.441 127.238 106.363 124.289 106.504 122.949C107.988 124.133 108.328 124.5 110.512 124.664C113 124.852 114.059 123.246 114.762 122.297C115.469 121.344 116.594 118.434 114.352 115.988H114.344Z" fill="#292929" stroke="black" stroke-width="0.5625" stroke-linecap="round" stroke-linejoin="round"/>
<path d="M72.4258 173.844C70.1836 171.391 66.7383 172.844 66.7383 172.844C67.6993 171.816 68.3438 171 68.2266 169.313C68.2266 169.254 68.2266 169.199 68.2266 169.141C68.2266 166.453 66.0508 164.281 63.3633 164.281C60.6797 164.281 58.5118 166.453 58.5118 169.141C58.5118 169.477 58.5508 169.809 58.6094 170.121C58.7227 171.293 59.3008 171.996 60.0938 172.844C60.0938 172.844 56.6524 171.391 54.4102 173.844C52.168 176.297 53.293 179.199 53.9961 180.148C54.7031 181.102 55.7617 182.707 58.25 182.52C60.4531 182.355 60.7774 181.98 62.3008 180.773C62.1211 184.102 60.1016 186.375 60.1016 186.375H66.7461C65.5234 185.094 64.4453 182.145 64.586 180.801C66.0742 181.988 66.4102 182.355 68.5938 182.52C71.082 182.707 72.1407 181.102 72.8438 180.148C73.5508 179.199 74.6758 176.289 72.4336 173.844H72.4258Z" fill="#292929" stroke="black" stroke-width="0.5625" stroke-linecap="round" stroke-linejoin="round"/>
<path d="M114.344 173.844C112.102 171.391 108.656 172.844 108.656 172.844C109.617 171.816 110.262 171 110.141 169.313C110.141 169.254 110.141 169.199 110.141 169.141C110.141 166.453 107.969 164.281 105.281 164.281C102.598 164.281 100.43 166.453 100.43 169.141C100.43 169.477 100.469 169.809 100.527 170.121C100.641 171.293 101.219 171.996 102.012 172.844C102.012 172.844 98.5703 171.391 96.3282 173.844C94.086 176.297 95.2109 179.199 95.9141 180.148C96.6211 181.102 97.6758 182.707 100.168 182.52C102.371 182.355 102.695 181.98 104.219 180.773C104.039 184.102 102.02 186.375 102.02 186.375H108.664C107.441 185.094 106.363 182.145 106.504 180.801C107.988 181.988 108.328 182.355 110.512 182.52C113 182.707 114.059 181.102 114.762 180.148C115.469 179.199 116.594 176.289 114.352 173.844H114.344Z" fill="#292929" stroke="black" stroke-width="0.5625" stroke-linecap="round" stroke-linejoin="round"/>
<path d="M72.5078 57.9375C70.2656 55.4844 66.8242 56.9414 66.8242 56.9414C67.7813 55.9141 68.4258 55.0938 68.3086 53.4063C68.3086 53.3477 68.3086 53.2969 68.3086 53.2344C68.3086 50.5508 66.1328 48.375 63.4492 48.375C60.7617 48.375 58.5938 50.5508 58.5938 53.2344C58.5938 53.5742 58.6328 53.9023 58.6914 54.2188C58.8047 55.3867 59.3828 56.0938 60.1758 56.9414C60.1758 56.9414 56.7344 55.4844 54.4922 57.9375C52.25 60.3906 53.375 63.293 54.0781 64.2461C54.7852 65.1992 55.8438 66.8008 58.332 66.6133C60.5391 66.4492 60.8594 66.0742 62.3828 64.8672C62.2031 68.1992 60.1836 70.4688 60.1836 70.4688H66.8281C65.6094 69.1875 64.5273 66.2383 64.6719 64.8984C66.1563 66.082 66.4922 66.4492 68.6758 66.6133C71.1641 66.8008 72.2227 65.1992 72.9258 64.2461C73.6328 63.293 74.7578 60.3828 72.5157 57.9375H72.5078Z" fill="#292929" stroke="black" stroke-width="0.5625" stroke-linecap="round" stroke-linejoin="round"/>
<path d="M114.418 57.9375C112.176 55.4844 108.734 56.9414 108.734 56.9414C109.691 55.9141 110.336 55.0938 110.219 53.4063C110.219 53.3477 110.219 53.2969 110.219 53.2344C110.219 50.5508 108.043 48.375 105.359 48.375C102.672 48.375 100.504 50.5508 100.504 53.2344C100.504 53.5742 100.543 53.9023 100.602 54.2188C100.715 55.3867 101.293 56.0938 102.086 56.9414C102.086 56.9414 98.6445 55.4844 96.4024 57.9375C94.1602 60.3906 95.2852 63.293 95.9883 64.2461C96.6953 65.1992 97.7539 66.8008 100.242 66.6133C102.449 66.4492 102.77 66.0742 104.293 64.8672C104.113 68.1992 102.094 70.4688 102.094 70.4688H108.738C107.516 69.1875 106.437 66.2383 106.578 64.8984C108.066 66.082 108.402 66.4492 110.586 66.6133C113.074 66.8008 114.133 65.1992 114.836 64.2461C115.543 63.293 116.668 60.3828 114.426 57.9375H114.418Z" fill="#292929" stroke="black" stroke-width="0.5625" stroke-linecap="round" stroke-linejoin="round"/>
<path d="M72.5078 115.922C70.2656 113.469 66.8242 114.922 66.8242 114.922C67.7813 113.895 68.4258 113.078 68.3086 111.391C68.3086 111.328 68.3086 111.277 68.3086 111.219C68.3086 108.531 66.1328 106.359 63.4492 106.359C60.7617 106.359 58.5938 108.531 58.5938 111.219C58.5938 111.555 58.6328 111.887 58.6914 112.199C58.8047 113.371 59.3828 114.074 60.1758 114.922C60.1758 114.922 56.7344 113.469 54.4922 115.922C52.25 118.371 53.375 121.273 54.0781 122.227C54.7852 123.18 55.8438 124.785 58.332 124.598C60.5391 124.434 60.8594 124.059 62.3828 122.852C62.2031 126.18 60.1836 128.453 60.1836 128.453H66.8281C65.6094 127.172 64.5273 124.223 64.6719 122.879C66.1563 124.066 66.4922 124.434 68.6758 124.598C71.1641 124.785 72.2227 123.18 72.9258 122.227C73.6328 121.273 74.7578 118.363 72.5157 115.922H72.5078Z" fill="#292929" stroke="black" stroke-width="0.5625" stroke-linecap="round" stroke-linejoin="round"/>
<path d="M114.418 115.922C112.176 113.469 108.734 114.922 108.734 114.922C109.691 113.895 110.336 113.078 110.219 111.391C110.219 111.328 110.219 111.277 110.219 111.219C110.219 108.531 108.043 106.359 105.359 106.359C102.672 106.359 100.504 108.531 100.504 111.219C100.504 111.555 100.543 111.887 100.602 112.199C100.715 113.371 101.293 114.074 102.086 114.922C102.086 114.922 98.6445 113.469 96.4024 115.922C94.1602 118.371 95.2852 121.273 95.9883 122.227C96.6953 123.18 97.7539 124.785 100.242 124.598C102.449 124.434 102.77 124.059 104.293 122.852C104.113 126.18 102.094 128.453 102.094 128.453H108.738C107.516 127.172 106.437 124.223 106.578 122.879C108.066 124.066 108.402 124.434 110.586 124.598C113.074 124.785 114.133 123.18 114.836 122.227C115.543 121.273 116.668 118.363 114.426 115.922H114.418Z" fill="#292929" stroke="black" stroke-width="0.5625" stroke-linecap="round" stroke-linejoin="round"/>
<path d="M72.5078 173.781C70.2656 171.328 66.8242 172.785 66.8242 172.785C67.7813 171.758 68.4258 170.941 68.3086 169.254C68.3086 169.191 68.3086 169.141 68.3086 169.078C68.3086 166.395 66.1328 164.219 63.4492 164.219C60.7617 164.219 58.5938 166.395 58.5938 169.078C58.5938 169.418 58.6328 169.746 58.6914 170.063C58.8047 171.234 59.3828 171.938 60.1758 172.785C60.1758 172.785 56.7344 171.328 54.4922 173.781C52.25 176.234 53.375 179.137 54.0781 180.09C54.7852 181.043 55.8438 182.648 58.332 182.461C60.5391 182.297 60.8594 181.922 62.3828 180.711C62.2031 184.043 60.1836 186.316 60.1836 186.316H66.8281C65.6094 185.031 64.5273 182.086 64.6719 180.742C66.1563 181.926 66.4922 182.297 68.6758 182.461C71.1641 182.648 72.2227 181.043 72.9258 180.09C73.6328 179.137 74.7578 176.227 72.5157 173.781H72.5078Z" fill="#292929" stroke="black" stroke-width="0.5625" stroke-linecap="round" stroke-linejoin="round"/>
<path d="M114.418 173.781C112.176 171.328 108.734 172.785 108.734 172.785C109.691 171.758 110.336 170.941 110.219 169.254C110.219 169.191 110.219 169.141 110.219 169.078C110.219 166.395 108.043 164.219 105.359 164.219C102.672 164.219 100.504 166.395 100.504 169.078C100.504 169.418 100.543 169.746 100.602 170.063C100.715 171.234 101.293 171.938 102.086 172.785C102.086 172.785 98.6445 171.328 96.4024 173.781C94.1602 176.234 95.2852 179.137 95.9883 180.09C96.6953 181.043 97.7539 182.648 100.242 182.461C102.449 182.297 102.77 181.922 104.293 180.711C104.113 184.043 102.094 186.316 102.094 186.316H108.738C107.516 185.031 106.437 182.086 106.578 180.742C108.066 181.926 108.402 182.297 110.586 182.461C113.074 182.648 114.133 181.043 114.836 180.09C115.543 179.137 116.668 176.227 114.426 173.781H114.418Z" fill="#292929" stroke="black" stroke-width="0.5625" stroke-linecap="round" stroke-linejoin="round"/>
<path d="M93.4024 84.8555C91.1602 82.4023 87.7188 83.8594 87.7188 83.8594C88.6758 82.8281 89.3243 82.0117 89.2032 80.3242C89.2032 80.2656 89.2032 80.2109 89.2032 80.1523C89.2032 77.4687 87.0274 75.293 84.3438 75.293C81.6563 75.293 79.4883 77.4687 79.4883 80.1523C79.4883 80.4883 79.5274 80.8203 79.586 81.1367C79.6992 82.3047 80.2774 83.0117 81.0742 83.8594C81.0742 83.8594 77.629 82.4023 75.3868 84.8555C73.1446 87.3086 74.2696 90.2109 74.9766 91.1641C75.6797 92.1133 76.7383 93.7187 79.2266 93.5312C81.4336 93.3672 81.7539 92.9922 83.2774 91.7852C83.0977 95.1133 81.0781 97.3867 81.0781 97.3867H87.7266C86.5039 96.1055 85.4219 93.1563 85.5664 91.8164C87.0508 93 87.3867 93.3672 89.5703 93.5312C92.0586 93.7187 93.1172 92.1133 93.8242 91.1641C94.5274 90.2109 95.6524 87.3008 93.4102 84.8555H93.4024Z" fill="#292929" stroke="black" stroke-width="0.5625" stroke-linecap="round" stroke-linejoin="round"/>
</svg>
