<svg width="169" height="239" viewBox="0 0 169 239" fill="none" xmlns="http://www.w3.org/2000/svg">
<path d="M162.906 238.262H6.39062C3.06641 238.262 0.375 235.547 0.375 232.199V6.62891C0.375 3.28516 3.06641 0.570312 6.39062 0.570312H162.906C166.23 0.570312 168.922 3.28516 168.922 6.62891V232.199C168.922 235.547 166.23 238.262 162.906 238.262Z" fill="white"/>
<mask id="mask0_2314_2675" style="mask-type:luminance" maskUnits="userSpaceOnUse" x="11" y="10" width="148" height="79">
<path d="M11 10H159V89H11V10Z" fill="white"/>
</mask>
<g mask="url(#mask0_2314_2675)">
<mask id="mask1_2314_2675" style="mask-type:luminance" maskUnits="userSpaceOnUse" x="11" y="10" width="148" height="79">
<path d="M158.055 88.3125C158.055 62.4141 158.063 36.5117 158.07 10.6133C109.215 10.6133 60.3516 10.6133 11.4961 10.6211C11.4766 36.0977 11.4531 61.5742 11.4297 87.0508C13.9961 75.6133 19.1719 58.7461 29.0391 49.7383C36.5938 42.8555 40.3633 39.4062 43.3203 38.0234C44.6914 37.3789 49.0781 35.4844 52.7109 31.0508C53.3867 30.2344 53.8711 29.5117 54.1797 29.0312C54.4961 29.4531 55.7109 31.0039 57.3828 31.0352C59.5586 31.0742 61.9883 28.5234 62.1094 24.6836C62.3633 25.2539 64.5 29.7969 69.3594 30.8242C71.6992 31.3203 73.6641 30.7969 74.6758 30.4336C75.3359 29.8867 76.2148 29.0391 77.0156 27.8242C77.8047 26.6328 78.2344 25.5156 78.4805 24.7031H91.0273C91.1016 25.1719 91.7109 28.5977 94.8281 30.3086C97.8828 31.9805 100.98 30.7031 101.934 30.3242C105.227 28.9961 106.621 26.2578 106.926 25.6133C107.672 29.1523 110.145 31.3438 112.32 31.1719C112.672 31.1406 113.805 30.9883 114.984 29.6719L118.738 32.7969C120.211 33.668 122.273 34.9492 124.648 36.6133C127.441 38.5664 136.695 45.1367 143.961 54.5781C153.613 67.1172 156.848 80.9258 158.047 88.2969L158.055 88.3125Z" fill="white"/>
</mask>
<g mask="url(#mask1_2314_2675)">
<path d="M11.4297 10.6133V88.3125H158.07V10.6133H11.4297Z" fill="url(#paint0_linear_2314_2675)"/>
</g>
</g>
<path d="M158.437 228.406H10.9648C10.9648 183.074 10.9648 137.746 10.9648 92.4141C10.9648 65.0234 10.9648 37.6406 10.9648 10.2539H158.437C158.437 37.5977 158.437 64.9414 158.437 92.289C158.437 137.664 158.437 183.031 158.437 228.406Z" stroke="#0E0E0E" stroke-width="0.75" stroke-linecap="round" stroke-linejoin="round"/>
<path d="M84.6211 32.6836C84.5703 32.0625 84.3164 29.8789 82.5078 28.0273C80.8867 26.3633 78.9844 25.9648 78.3281 25.8516C78.3828 25.1992 78.4336 24.5469 78.4883 23.8945C79.3438 23.4961 81.0586 22.5508 82.4844 20.6406C83.9336 18.6992 84.3437 16.7617 84.4805 15.8242C84.8164 16.9961 85.5586 18.9961 87.2539 20.9492C88.5586 22.4492 89.9492 23.3633 90.9062 23.8945C90.9609 24.5469 91.0117 25.1992 91.0664 25.8516C90.6016 25.8984 87.6094 26.2422 85.8086 28.8594C84.75 30.4062 84.6211 31.9805 84.6094 32.6836H84.6211Z" fill="white"/>
<path d="M53.4141 22.2461C54.2461 22.0039 55.6211 21.7422 57.1719 22.1172C58.5313 22.4414 59.4453 23.1015 59.9609 23.4882C64.5234 26.9101 65.1992 29.5664 68.332 30.7656C68.7383 30.9218 71.6719 31.8906 74.625 30.5117C76.7109 29.5351 78.1953 27.3164 78.4258 24.9062C78.7578 21.457 76.3594 18.0468 73.5742 17.4218C73.2539 17.3476 71.4961 16.957 70.0664 18.0312C69.8867 18.164 68.7734 19.0195 68.6172 20.5273C68.5938 20.7539 68.4141 22.6953 69.8984 23.6406C70.7344 24.164 71.7891 24.1953 72.6289 23.8047C73.8242 23.2578 74.543 21.8867 74.3555 20.414C74.6484 20.7383 75.0508 21.2382 75.375 21.9297C75.5313 22.2617 76.5508 24.5156 75.5781 26.6836C74.3906 29.3242 71.1602 29.789 70.7266 29.8515C67.8359 30.2617 64.8359 28.7461 62.8711 26.0234" stroke="#0E0E0E" stroke-width="0.75" stroke-linecap="round" stroke-linejoin="round"/>
<path d="M78.4883 23.8047C79.0586 23.5273 79.9492 23.0234 80.8594 22.1992C83.7617 19.5508 84.293 15.8789 84.5312 14.2422C84.668 13.3203 84.7891 11.9492 84.6289 10.2461" stroke="#0E0E0E" stroke-width="0.75" stroke-linecap="round" stroke-linejoin="round"/>
<path d="M78.3281 25.7617C79.043 25.8906 79.8164 26.1133 80.5781 26.5039C84.0391 28.2656 84.5469 31.957 84.6211 32.5938" stroke="#0E0E0E" stroke-width="0.75" stroke-linecap="round" stroke-linejoin="round"/>
<path d="M115.996 22.2461C115.164 22.0039 113.789 21.7422 112.238 22.1172C110.879 22.4414 109.965 23.1015 109.449 23.4882C104.887 26.9101 104.211 29.5664 101.078 30.7656C100.672 30.9218 97.7383 31.8906 94.7852 30.5117C92.6992 29.5351 91.2149 27.3164 90.9844 24.9062C90.6524 21.457 93.0508 18.0468 95.8359 17.4218C96.1563 17.3476 97.9141 16.957 99.3438 18.0312C99.5234 18.164 100.637 19.0195 100.793 20.5273C100.816 20.7539 100.996 22.6953 99.5117 23.6406C98.6758 24.164 97.6211 24.1953 96.7813 23.8047C95.5859 23.2578 94.8672 21.8867 95.0547 20.414C94.7617 20.7383 94.3594 21.2382 94.0352 21.9297C93.8789 22.2617 92.8594 24.5156 93.832 26.6836C95.0156 29.3242 98.25 29.789 98.6836 29.8515C101.574 30.2617 104.574 28.7461 106.539 26.0234" stroke="#0E0E0E" stroke-width="0.75" stroke-linecap="round" stroke-linejoin="round"/>
<path d="M91.0742 25.7617C90.3594 25.8906 89.5859 26.1133 88.8242 26.5039C85.3633 28.2656 84.8555 31.957 84.7812 32.5938" stroke="#0E0E0E" stroke-width="0.75" stroke-linecap="round" stroke-linejoin="round"/>
<path d="M115.281 29.1016C115.172 29.3555 114.578 30.668 113.191 31.1016C111.719 31.5664 110.43 30.7109 109.891 30.3516C107.617 28.8438 107.391 25.9727 107.371 25.5078" stroke="#0E0E0E" stroke-width="0.75" stroke-linecap="round" stroke-linejoin="round"/>
<path d="M123.262 36.0157C122.617 35.6485 121.711 35.0938 120.691 34.3516C117.742 32.2032 115.441 30.5313 114.84 27.8008C114.293 25.3204 115.41 23.2266 115.605 22.8751C117.441 19.5587 121.289 19.0118 122.086 18.922C125.664 18.5157 129.293 20.4063 131.566 23.7071" stroke="#0E0E0E" stroke-width="0.75" stroke-linecap="round" stroke-linejoin="round"/>
<path d="M131.063 41.1601C131.102 33.4414 129.211 27.3828 126.219 25.7109C124.68 24.8555 123.121 24.832 123.121 24.832C122.602 24.832 119.984 24.8711 118.328 27.0312C116.852 28.957 117.219 31.164 117.285 31.539" stroke="#0E0E0E" stroke-width="0.75" stroke-linecap="round" stroke-linejoin="round"/>
<path d="M152.199 37.2617C152.586 37.0664 153.832 36.4883 155.176 36.8321C157.566 37.4414 157.836 40.3281 157.852 40.5391C157.996 42.375 156.871 44.5117 154.727 45.2774C153.074 45.8633 151.484 45.3985 150.637 45.1485C147.891 44.3477 146.387 42.4805 145.637 41.5352C143.234 38.4766 144.406 36.9883 141.945 34.8164C141.277 34.2227 139.926 33.0235 137.859 32.7071C135.703 32.3711 134.82 33.3008 132.855 32.7539C130.926 32.211 129.93 30.7969 129.676 30.3985C129.555 30.2188 128.152 27.961 129.473 25.6875C129.742 25.2149 130.547 23.8438 132.352 23.4453C133.996 23.0938 135.801 23.6914 136.793 24.8711C137.641 25.875 137.887 27.293 137.227 28.418C137.086 28.6641 136.637 29.4297 135.613 29.7383C134.762 29.9922 133.672 29.8789 132.922 29.2813C132.262 28.7461 132.141 28.0664 132.121 27.8633" stroke="#0E0E0E" stroke-width="0.75" stroke-linecap="round" stroke-linejoin="round"/>
<path d="M143.488 36.9141C143.176 33.4961 141.426 30.6836 138.871 29.7656C138.285 29.5586 137.371 29.3477 136.156 29.4961" stroke="#0E0E0E" stroke-width="0.75" stroke-linecap="round" stroke-linejoin="round"/>
<path d="M146.086 42.2188C145.621 42.0977 143.684 41.6485 142.035 42.7266C140.047 44.0313 139.254 47.0547 140.477 49.9219" stroke="#0E0E0E" stroke-width="0.75" stroke-linecap="round" stroke-linejoin="round"/>
<path d="M147.441 52.5234C147.137 52.5078 146.496 52.5156 145.824 52.8672C144.727 53.4453 144.367 54.5039 144.301 54.7422" stroke="#0E0E0E" stroke-width="0.75" stroke-linecap="round" stroke-linejoin="round"/>
<path d="M158.43 91.3359C158.414 91.2305 158.398 91.043 158.371 90.8242C157.785 85.6875 154.477 61.7031 134.754 44.2031C132.301 42.0313 128.496 38.9766 123.262 36.0078" stroke="#0E0E0E" stroke-width="0.75" stroke-linecap="round" stroke-linejoin="round"/>
<path d="M84.6211 32.6836C84.5703 32.0625 84.3164 29.8789 82.5078 28.0274C80.8867 26.3633 78.9844 25.9649 78.3281 25.8516C78.3828 25.1992 78.4336 24.5469 78.4883 23.8945C79.3438 23.4961 81.0586 22.5508 82.4844 20.6406C83.9336 18.6992 84.3438 16.7617 84.4805 15.8242C84.8164 16.9961 85.5586 18.9961 87.2539 20.9492C88.5586 22.4492 89.9492 23.3633 90.9063 23.8945C90.9609 24.5469 91.0117 25.1992 91.0664 25.8516C90.6016 25.8985 87.6094 26.2422 85.8086 28.8594C84.75 30.4063 84.6211 31.9805 84.6094 32.6836H84.6211Z" fill="black" stroke="black" stroke-width="0.5625" stroke-linecap="round" stroke-linejoin="round"/>
<path d="M115.996 22.2461C115.164 22.0039 113.789 21.7422 112.238 22.1172C110.879 22.4414 109.965 23.1015 109.449 23.4882C104.887 26.9101 104.211 29.5664 101.078 30.7656C100.672 30.9218 97.7383 31.8906 94.7852 30.5117C92.6992 29.5351 91.2149 27.3164 90.9844 24.9062C90.6524 21.457 93.0508 18.0468 95.8359 17.4218C96.1563 17.3476 97.9141 16.957 99.3438 18.0312C99.5234 18.164 100.637 19.0195 100.793 20.5273C100.816 20.7539 100.996 22.6953 99.5117 23.6406C98.6758 24.164 97.6211 24.1953 96.7813 23.8047C95.5859 23.2578 94.8672 21.8867 95.0547 20.414C94.7617 20.7383 94.3594 21.2382 94.0352 21.9297C93.8789 22.2617 92.8594 24.5156 93.832 26.6836C95.0156 29.3242 98.25 29.789 98.6836 29.8515C101.574 30.2617 104.574 28.7461 106.539 26.0234" stroke="#0E0E0E" stroke-width="0.75" stroke-linecap="round" stroke-linejoin="round"/>
<path d="M90.9141 23.8047C89.8125 23.2578 89.0391 22.6484 88.5469 22.1992C85.1992 19.1562 84.8789 14.6328 84.7578 12.9688C84.6758 11.8281 84.7188 10.8828 84.7734 10.2461" stroke="#0E0E0E" stroke-width="0.75" stroke-linecap="round" stroke-linejoin="round"/>
<path d="M91.0742 25.7617C90.3594 25.8906 89.5859 26.1133 88.8242 26.5039C85.3633 28.2656 84.8555 31.957 84.7812 32.5938" stroke="#0E0E0E" stroke-width="0.75" stroke-linecap="round" stroke-linejoin="round"/>
<path d="M115.281 29.1016C115.172 29.3555 114.578 30.668 113.191 31.1016C111.719 31.5664 110.43 30.7109 109.891 30.3516C107.617 28.8438 107.391 25.9727 107.371 25.5078" stroke="#0E0E0E" stroke-width="0.75" stroke-linecap="round" stroke-linejoin="round"/>
<path d="M123.262 36.0157C122.617 35.6485 121.711 35.0938 120.691 34.3516C117.742 32.2032 115.441 30.5313 114.84 27.8008C114.293 25.3204 115.41 23.2266 115.605 22.8751C117.441 19.5587 121.289 19.0118 122.086 18.922C125.664 18.5157 129.293 20.4063 131.566 23.7071" stroke="#0E0E0E" stroke-width="0.75" stroke-linecap="round" stroke-linejoin="round"/>
<path d="M131.063 41.1601C131.102 33.4414 129.211 27.3828 126.219 25.7109C124.68 24.8555 123.121 24.832 123.121 24.832C122.602 24.832 119.984 24.8711 118.328 27.0312C116.852 28.957 117.219 31.164 117.285 31.539" stroke="#0E0E0E" stroke-width="0.75" stroke-linecap="round" stroke-linejoin="round"/>
<path d="M152.199 37.2617C152.586 37.0664 153.832 36.4883 155.176 36.8321C157.566 37.4414 157.836 40.3281 157.852 40.5391C157.996 42.375 156.871 44.5117 154.727 45.2774C153.074 45.8633 151.484 45.3985 150.637 45.1485C147.891 44.3477 146.387 42.4805 145.637 41.5352C143.234 38.4766 144.406 36.9883 141.945 34.8164C141.277 34.2227 139.926 33.0235 137.859 32.7071C135.703 32.3711 134.82 33.3008 132.855 32.7539C130.926 32.211 129.93 30.7969 129.676 30.3985C129.555 30.2188 128.152 27.961 129.473 25.6875C129.742 25.2149 130.547 23.8438 132.352 23.4453C133.996 23.0938 135.801 23.6914 136.793 24.8711C137.641 25.875 137.887 27.293 137.227 28.418C137.086 28.6641 136.637 29.4297 135.613 29.7383C134.762 29.9922 133.672 29.8789 132.922 29.2813C132.262 28.7461 132.141 28.0664 132.121 27.8633" stroke="#0E0E0E" stroke-width="0.75" stroke-linecap="round" stroke-linejoin="round"/>
<path d="M143.488 36.9141C143.176 33.4961 141.426 30.6836 138.871 29.7656C138.285 29.5586 137.371 29.3477 136.156 29.4961" stroke="#0E0E0E" stroke-width="0.75" stroke-linecap="round" stroke-linejoin="round"/>
<path d="M158.34 48.9843C157.109 46.8749 155.145 45.5624 153.188 45.6835C150.766 45.8319 149.34 48.1054 148.727 49.0859C145.262 54.6132 148.965 62.1679 149.535 63.3007" stroke="#0E0E0E" stroke-width="0.75" stroke-linecap="round" stroke-linejoin="round"/>
<path d="M158.391 90.6602C156.984 81.0078 152.398 59.8945 134.754 44.2109C130.914 40.8008 126.988 38.1211 123.262 36.0156" stroke="#0E0E0E" stroke-width="0.75" stroke-linecap="round" stroke-linejoin="round"/>
<mask id="mask2_2314_2675" style="mask-type:luminance" maskUnits="userSpaceOnUse" x="11" y="148" width="147" height="81">
<path d="M11 148H158V229H11V148Z" fill="white"/>
</mask>
<g mask="url(#mask2_2314_2675)">
<mask id="mask3_2314_2675" style="mask-type:luminance" maskUnits="userSpaceOnUse" x="11" y="148" width="147" height="81">
<path d="M11.2812 148.859C11.3008 175.254 11.3164 201.645 11.3398 228.031C60.2031 228.023 109.066 228.008 157.926 228C157.949 202.523 157.973 177.047 157.996 151.566C153.141 162.855 145.703 176.609 134.16 190.352C129.703 195.645 125.219 200.266 120.891 204.27C119.691 205.859 118.492 207.441 117.301 209.031C116.617 209.219 115.934 209.398 115.254 209.586C114.938 209.168 113.723 207.613 112.051 207.586C109.875 207.547 107.445 210.098 107.324 213.938C107.07 213.367 104.934 208.824 100.074 207.797C97.7344 207.301 95.7656 207.824 94.7539 208.184C94.0938 208.734 93.2188 209.578 92.4141 210.797C91.6289 211.988 91.1992 213.105 90.9531 213.914H78.4062C78.3281 213.449 77.7227 210.023 74.6016 208.312C71.5508 206.641 68.4531 207.914 67.5 208.297C64.207 209.625 62.8125 212.363 62.5039 213.008C61.7617 209.469 59.2891 207.277 57.1133 207.449C56.7617 207.48 55.6289 207.629 54.4492 208.949C53.1992 207.906 51.9453 206.863 50.6914 205.824C44.8711 202.941 34.0352 196.605 24.9375 184.32C14.3008 169.949 11.9492 155.406 11.2969 148.867L11.2812 148.859Z" fill="white"/>
</mask>
<g mask="url(#mask3_2314_2675)">
<path d="M11.2812 148.859V228.031H157.996V148.859H11.2812Z" fill="url(#paint1_linear_2314_2675)"/>
</g>
</g>
<path d="M84.668 206.137C84.7187 206.762 84.9766 208.941 86.7812 210.797C88.4023 212.461 90.3086 212.859 90.9609 212.969C90.9062 213.621 90.8555 214.273 90.8008 214.926C89.9492 215.324 88.2305 216.27 86.8047 218.184C85.3594 220.125 84.9453 222.059 84.8086 222.996C84.4727 221.828 83.7305 219.824 82.0352 217.875C80.7305 216.375 79.3438 215.461 78.3828 214.926C78.3281 214.273 78.2773 213.621 78.2266 212.969C78.6914 212.926 81.6836 212.578 83.4844 209.961C84.5391 208.418 84.668 206.844 84.6836 206.137H84.668Z" fill="white"/>
<path d="M115.875 216.578C115.043 216.816 113.672 217.078 112.117 216.703C110.762 216.383 109.844 215.723 109.328 215.332C104.766 211.914 104.094 209.258 100.957 208.059C100.551 207.898 97.6211 206.934 94.6641 208.313C92.5781 209.289 91.0938 211.508 90.8633 213.914C90.5313 217.363 92.9336 220.777 95.7148 221.398C96.0391 221.477 97.793 221.863 99.2266 220.793C99.4063 220.656 100.516 219.801 100.672 218.297C100.695 218.07 100.875 216.129 99.3906 215.184C98.5586 214.656 97.5 214.629 96.6602 215.016C95.4688 215.566 94.7461 216.938 94.9336 218.406C94.6406 218.086 94.2383 217.582 93.9141 216.891C93.7578 216.563 92.7383 214.305 93.7109 212.137C94.8984 209.496 98.1289 209.031 98.5664 208.973C101.453 208.559 104.453 210.074 106.418 212.797" stroke="#0E0E0E" stroke-width="0.75" stroke-linecap="round" stroke-linejoin="round"/>
<path d="M90.8008 215.016C89.7461 215.543 88.9727 216.137 88.4336 216.621C85.3203 219.449 84.8633 223.566 84.6445 225.496C84.5039 226.746 84.5156 227.781 84.5469 228.422" stroke="#0E0E0E" stroke-width="0.75" stroke-linecap="round" stroke-linejoin="round"/>
<path d="M90.9609 213.059C90.2461 212.934 89.4766 212.707 88.7109 212.316C85.2539 210.555 84.7422 206.863 84.668 206.227" stroke="#0E0E0E" stroke-width="0.75" stroke-linecap="round" stroke-linejoin="round"/>
<path d="M53.2969 216.578C54.1289 216.816 55.5 217.078 57.0508 216.703C58.4102 216.383 59.3242 215.723 59.8438 215.332C64.4023 211.914 65.0781 209.258 68.2109 208.059C68.6172 207.898 71.5508 206.934 74.5039 208.313C76.5898 209.289 78.0742 211.508 78.3086 213.914C78.6367 217.363 76.2383 220.777 73.4531 221.398C73.1328 221.477 71.3789 221.863 69.9453 220.793C69.7656 220.656 68.6563 219.801 68.4961 218.297C68.4766 218.07 68.2969 216.129 69.7813 215.184C70.6133 214.656 71.6719 214.629 72.5117 215.016C73.7031 215.566 74.4219 216.938 74.2344 218.406C74.5273 218.086 74.9336 217.582 75.2539 216.891C75.4141 216.563 76.4336 214.305 75.457 212.137C74.2734 209.496 71.0391 209.031 70.6055 208.973C67.7188 208.559 64.7188 210.074 62.7539 212.797" stroke="#0E0E0E" stroke-width="0.75" stroke-linecap="round" stroke-linejoin="round"/>
<path d="M78.2188 213.059C78.8984 212.953 79.6797 212.738 80.4688 212.316C83.6758 210.621 84.5117 207 84.668 206.227" stroke="#0E0E0E" stroke-width="0.75" stroke-linecap="round" stroke-linejoin="round"/>
<path d="M54.0078 209.723C54.1211 209.469 54.7109 208.156 56.1016 207.719C57.5703 207.254 58.8594 208.109 59.3984 208.469C61.6719 209.977 61.8984 212.852 61.9219 213.316" stroke="#0E0E0E" stroke-width="0.75" stroke-linecap="round" stroke-linejoin="round"/>
<path d="M46.0273 202.809C46.6719 203.176 47.5781 203.73 48.6016 204.473C51.5469 206.617 53.8516 208.289 54.4492 211.02C54.9961 213.504 53.8789 215.594 53.6836 215.949C51.8477 219.262 48 219.809 47.2031 219.898C43.6289 220.305 39.9961 218.414 37.7266 215.113" stroke="#0E0E0E" stroke-width="0.75" stroke-linecap="round" stroke-linejoin="round"/>
<path d="M38.2266 197.664C38.1914 205.379 40.0781 211.441 43.0742 213.113C44.6094 213.969 46.1719 213.988 46.1719 213.988C46.6875 213.988 49.3047 213.953 50.9609 211.793C52.4414 209.863 52.0742 207.66 52.0039 207.285" stroke="#0E0E0E" stroke-width="0.75" stroke-linecap="round" stroke-linejoin="round"/>
<path d="M17.0937 201.563C16.7031 201.758 15.457 202.336 14.1133 201.988C11.7227 201.383 11.4531 198.496 11.4375 198.285C11.2969 196.449 12.4219 194.309 14.5664 193.547C16.2148 192.961 17.8047 193.426 18.6523 193.672C21.3984 194.477 22.9062 196.344 23.6562 197.289C26.0547 200.348 24.8867 201.832 27.3437 204.008C28.0117 204.602 29.3633 205.801 31.4336 206.113C33.5859 206.453 34.4688 205.524 36.4336 206.07C38.3633 206.609 39.3594 208.027 39.6133 208.426C39.7344 208.606 41.1367 210.863 39.8164 213.137C39.5469 213.609 38.7461 214.981 36.9375 215.379C35.2969 215.731 33.4883 215.129 32.4961 213.953C31.6484 212.949 31.4023 211.531 32.0625 210.406C32.2031 210.156 32.6562 209.391 33.6758 209.086C34.5312 208.828 35.6172 208.942 36.3672 209.543C37.0273 210.074 37.1484 210.758 37.1719 210.961" stroke="#0E0E0E" stroke-width="0.75" stroke-linecap="round" stroke-linejoin="round"/>
<path d="M25.8008 201.914C26.1133 205.336 27.8633 208.148 30.4219 209.062C31.0039 209.273 31.9219 209.484 33.1367 209.332" stroke="#0E0E0E" stroke-width="0.75" stroke-linecap="round" stroke-linejoin="round"/>
<path d="M23.2031 196.605C23.6836 196.727 25.6055 197.16 27.2539 196.094C29.2578 194.789 30.0742 191.766 28.8672 188.887" stroke="#0E0E0E" stroke-width="0.75" stroke-linecap="round" stroke-linejoin="round"/>
<path d="M21.8477 186.301C22.1562 186.316 22.793 186.309 23.4687 185.953C24.5937 185.363 24.9375 184.262 25.0039 184.035" stroke="#0E0E0E" stroke-width="0.75" stroke-linecap="round" stroke-linejoin="round"/>
<path d="M10.9883 146.715C12.1875 156.375 16.4023 178.453 34.5391 194.617C38.3711 198.031 42.2852 200.707 46.0273 202.816" stroke="#0E0E0E" stroke-width="0.75" stroke-linecap="round" stroke-linejoin="round"/>
<path d="M84.668 206.137C84.7188 206.762 84.9766 208.941 86.7812 210.797C88.4023 212.461 90.3086 212.859 90.9609 212.969C90.9063 213.621 90.8555 214.273 90.8008 214.926C90.3359 215.137 89.6992 215.469 89.0156 215.984C87.4805 217.164 86.7461 218.543 86.1016 219.789C85.5391 220.883 84.8086 222.578 84.4336 224.812C84.4258 223.738 84.2617 220.656 82.0273 217.867C80.7617 216.277 79.3047 215.387 78.375 214.922C78.3242 214.266 78.2695 213.613 78.2188 212.961C78.6836 212.918 81.6758 212.574 83.4766 209.953C84.5312 208.41 84.6602 206.836 84.6758 206.129L84.668 206.137Z" fill="black" stroke="black" stroke-width="0.5625" stroke-linecap="round" stroke-linejoin="round"/>
<path d="M53.2969 216.578C54.1289 216.816 55.5 217.078 57.0508 216.703C58.4102 216.383 59.3242 215.723 59.8438 215.332C64.4023 211.914 65.0781 209.258 68.2109 208.059C68.6172 207.898 71.5508 206.934 74.5039 208.313C76.5898 209.289 78.0742 211.508 78.3086 213.914C78.6367 217.363 76.2383 220.777 73.4531 221.398C73.1328 221.477 71.3789 221.863 69.9453 220.793C69.7656 220.656 68.6563 219.801 68.4961 218.297C68.4766 218.07 68.2969 216.129 69.7813 215.184C70.6133 214.656 71.6719 214.629 72.5117 215.016C73.7031 215.566 74.4219 216.938 74.2344 218.406C74.5273 218.086 74.9336 217.582 75.2539 216.891C75.4141 216.563 76.4336 214.305 75.457 212.137C74.2734 209.496 71.0391 209.031 70.6055 208.973C67.7188 208.559 64.7188 210.074 62.7539 212.797" stroke="#0E0E0E" stroke-width="0.75" stroke-linecap="round" stroke-linejoin="round"/>
<path d="M78.375 215.016C78.9961 215.316 79.8672 215.82 80.7461 216.621C82.5977 218.332 83.2656 220.313 83.7813 221.934C84.5859 224.438 84.668 226.719 84.5547 228.422" stroke="#0E0E0E" stroke-width="0.75" stroke-linecap="round" stroke-linejoin="round"/>
<path d="M78.2188 213.059C78.8984 212.953 79.6797 212.738 80.4688 212.316C83.707 210.602 84.5156 206.895 84.668 206.137" stroke="#0E0E0E" stroke-width="0.75" stroke-linecap="round" stroke-linejoin="round"/>
<path d="M54.0078 209.723C54.1211 209.469 54.7109 208.156 56.1016 207.719C57.5703 207.254 58.8594 208.109 59.3984 208.469C61.6719 209.977 61.8984 212.852 61.9219 213.316" stroke="#0E0E0E" stroke-width="0.75" stroke-linecap="round" stroke-linejoin="round"/>
<path d="M46.0273 202.809C46.6719 203.176 47.5781 203.73 48.6016 204.473C51.5469 206.617 53.8516 208.289 54.4492 211.02C54.9961 213.504 53.8789 215.594 53.6836 215.949C51.8477 219.262 48 219.809 47.2031 219.898C43.6289 220.305 39.9961 218.414 37.7266 215.113" stroke="#0E0E0E" stroke-width="0.75" stroke-linecap="round" stroke-linejoin="round"/>
<path d="M38.2266 197.664C38.1914 205.379 40.0781 211.441 43.0742 213.113C44.6094 213.969 46.1719 213.988 46.1719 213.988C46.6875 213.988 49.3047 213.953 50.9609 211.793C52.4414 209.863 52.0742 207.66 52.0039 207.285" stroke="#0E0E0E" stroke-width="0.75" stroke-linecap="round" stroke-linejoin="round"/>
<path d="M17.0937 201.563C16.7031 201.758 15.457 202.336 14.1133 201.988C11.7227 201.383 11.4531 198.496 11.4375 198.285C11.2969 196.449 12.4219 194.309 14.5664 193.547C16.2148 192.961 17.8047 193.426 18.6523 193.672C21.3984 194.477 22.9062 196.344 23.6562 197.289C26.0547 200.348 24.8867 201.832 27.3437 204.008C28.0117 204.602 29.3633 205.801 31.4336 206.113C33.5859 206.453 34.4688 205.524 36.4336 206.07C38.3633 206.609 39.3594 208.027 39.6133 208.426C39.7344 208.606 41.1367 210.863 39.8164 213.137C39.5469 213.609 38.7461 214.981 36.9375 215.379C35.2969 215.731 33.4883 215.129 32.4961 213.953C31.6484 212.949 31.4023 211.531 32.0625 210.406C32.2031 210.156 32.6562 209.391 33.6758 209.086C34.5312 208.828 35.6172 208.942 36.3672 209.543C37.0273 210.074 37.1484 210.758 37.1719 210.961" stroke="#0E0E0E" stroke-width="0.75" stroke-linecap="round" stroke-linejoin="round"/>
<path d="M25.8008 201.914C26.1133 205.336 27.8633 208.148 30.4219 209.062C31.0039 209.273 31.9219 209.484 33.1367 209.332" stroke="#0E0E0E" stroke-width="0.75" stroke-linecap="round" stroke-linejoin="round"/>
<path d="M11.0312 189.977C11.1211 190.125 13.1172 193.32 16.1016 193.133C18.5156 192.984 19.9414 190.719 20.5664 189.727C24.0234 184.207 20.3242 176.648 19.7539 175.516" stroke="#0E0E0E" stroke-width="0.75" stroke-linecap="round" stroke-linejoin="round"/>
<path d="M23.2031 196.605C23.6836 196.727 25.6055 197.16 27.2539 196.094C29.2578 194.789 30.0742 191.766 28.8672 188.887" stroke="#0E0E0E" stroke-width="0.75" stroke-linecap="round" stroke-linejoin="round"/>
<path d="M21.8477 186.301C22.1562 186.316 22.793 186.309 23.4687 185.953C24.5937 185.363 24.9375 184.262 25.0039 184.035" stroke="#0E0E0E" stroke-width="0.75" stroke-linecap="round" stroke-linejoin="round"/>
<path d="M10.9883 146.715C12.1875 156.375 16.4023 178.453 34.5391 194.617C38.3711 198.031 42.2852 200.707 46.0273 202.816" stroke="#0E0E0E" stroke-width="0.75" stroke-linecap="round" stroke-linejoin="round"/>
<path d="M39.457 36.6289C39.6758 37.2383 39.7891 37.8438 39.7891 38.4688C39.7891 39.0469 39.6914 39.6094 39.4883 40.1641C39.0586 41.3242 38.0625 42.4414 36.4883 43.5234C34.4922 44.8437 32.332 45.5039 30.0234 45.5039C29.2344 45.5039 28.4766 45.4258 27.7344 45.2695C26.2734 44.9688 24.9062 44.3867 23.6406 43.5312C22.418 42.6914 21.5234 41.7656 20.9531 40.7539C20.5352 39.9883 20.3242 39.2109 20.3242 38.3984C20.3242 37.8984 20.3984 37.3867 20.5586 36.8789C20.8516 36 21.3008 35.2578 21.9141 34.6562C22.5313 34.0586 23.1523 33.5547 23.7891 33.1562C24.1641 32.918 24.5547 32.6992 24.9531 32.4961C24.9766 32.4961 25.0117 32.4766 25.0664 32.4375C25.0938 32.4141 25.1172 32.4062 25.125 32.4062C24.4258 32.0703 23.7891 31.6406 23.2266 31.1172C22.6641 30.5937 22.2656 29.918 22.0508 29.0781C21.9688 28.7344 21.9219 28.3867 21.9219 28.043C21.9219 27.2266 22.1406 26.4531 22.582 25.7188C22.957 25.1094 23.4531 24.6016 24.0742 24.1953C24.8477 23.7227 25.5508 23.3867 26.1914 23.1758C27.3594 22.7461 28.6055 22.5312 29.9258 22.5312C30.1953 22.5312 30.4648 22.5312 30.7266 22.5469C32.2188 22.6562 33.6523 23.0313 35.0234 23.6641C37.2969 24.75 38.4297 26.2422 38.4297 28.1484C38.4297 28.7852 38.2891 29.3984 38.0039 30C37.9414 30.1562 37.8516 30.3086 37.7539 30.457C37.7461 30.4883 37.7266 30.5156 37.6953 30.5469C37.3711 31.0195 36.9844 31.4102 36.5312 31.7188C36.082 32.0234 35.625 32.2891 35.168 32.4961C35.168 32.5039 35.168 32.5117 35.1836 32.5117C35.7461 32.7812 36.3516 33.1562 37.0039 33.6367C37.6563 34.1094 38.2344 34.6875 38.7461 35.3555C39.0469 35.7539 39.2852 36.1797 39.4492 36.6367L39.457 36.6289ZM35.9531 37.1016C35.1367 36.2461 34.2227 35.5352 33.2109 34.9727C31.3047 33.9375 29.4531 33.4219 27.6367 33.4219C26.0234 33.4219 24.6445 33.8398 23.4961 34.6719C22.7773 35.2266 22.418 35.8789 22.418 36.6289C22.418 37.1328 22.582 37.6484 22.9219 38.1836C23.5273 39.1367 24.5039 40.1016 25.8516 41.0859C27.0234 41.9414 28.2617 42.5625 29.5586 42.9531C30.5312 43.2383 31.4844 43.3711 32.4297 43.3711C33.2187 43.3711 33.9609 43.2734 34.6562 43.0742C35.8047 42.7266 36.6914 42.2031 37.2891 41.4883C37.6367 41.0625 37.8086 40.6055 37.8086 40.125C37.8086 40.043 37.8086 39.9531 37.793 39.8555C37.7031 39.3516 37.4609 38.8633 37.0938 38.3789C36.7266 37.8906 36.3438 37.4687 35.9531 37.0859V37.1016ZM36.3984 30.4062C36.5234 30.1953 36.5859 29.9844 36.5859 29.7734C36.5859 29.5117 36.5156 29.2656 36.3906 29.0234C36.2617 28.7852 36.1133 28.5742 35.9492 28.3867C35.7812 28.207 35.6563 28.0664 35.5508 27.9766C35.4219 27.8477 35.3008 27.7344 35.1758 27.6289C34.5586 27.1055 33.8242 26.6094 32.9766 26.1289C32.1289 25.6563 31.2227 25.2617 30.2617 24.9531C29.3008 24.6445 28.3516 24.4883 27.4062 24.4883C26.2109 24.4883 25.1992 24.7734 24.3594 25.3516C24.0586 25.5586 23.8711 25.8437 23.8125 26.1992C23.8047 26.2734 23.7969 26.3477 23.7969 26.4297C23.7969 26.8203 23.9258 27.1875 24.1875 27.5469C24.9844 28.5898 26.2109 29.5195 27.8789 30.3242C29.4375 31.0664 31.0508 31.4414 32.7227 31.4414C33.1484 31.4414 33.5781 31.418 34.0117 31.3633C34.4922 31.3125 34.957 31.2148 35.3984 31.0781C35.8437 30.9453 36.1797 30.7188 36.3984 30.4062Z" fill="black"/>
<path d="M129.75 202.289C129.531 201.684 129.422 201.074 129.422 200.453C129.422 199.875 129.516 199.313 129.719 198.758C130.148 197.594 131.145 196.477 132.719 195.398C134.715 194.078 136.875 193.418 139.184 193.418C139.973 193.418 140.73 193.492 141.473 193.648C142.934 193.949 144.301 194.535 145.566 195.391C146.789 196.23 147.684 197.152 148.254 198.164C148.672 198.93 148.883 199.711 148.883 200.52C148.883 201.023 148.809 201.531 148.648 202.043C148.359 202.922 147.906 203.664 147.293 204.262C146.676 204.863 146.055 205.363 145.418 205.762C145.043 206.004 144.652 206.219 144.254 206.422C144.234 206.422 144.195 206.445 144.141 206.484C144.113 206.504 144.09 206.512 144.082 206.512C144.781 206.852 145.418 207.277 145.98 207.801C146.543 208.328 146.941 209.004 147.156 209.844C147.238 210.188 147.285 210.531 147.285 210.879C147.285 211.695 147.066 212.469 146.625 213.203C146.25 213.809 145.754 214.32 145.133 214.727C144.359 215.199 143.656 215.535 143.016 215.746C141.848 216.172 140.602 216.391 139.281 216.391C139.012 216.391 138.742 216.391 138.48 216.375C136.988 216.262 135.555 215.887 134.184 215.258C131.91 214.172 130.777 212.676 130.777 210.773C130.777 210.137 130.922 209.52 131.203 208.922C131.266 208.762 131.355 208.613 131.453 208.461C131.461 208.434 131.484 208.402 131.512 208.371C131.836 207.898 132.227 207.512 132.676 207.203C133.125 206.895 133.582 206.633 134.039 206.422C134.039 206.414 134.039 206.406 134.023 206.406C133.461 206.137 132.855 205.762 132.203 205.281C131.551 204.809 130.973 204.234 130.461 203.566C130.164 203.168 129.922 202.738 129.758 202.281L129.75 202.289ZM133.254 201.816C134.07 202.672 134.984 203.387 135.996 203.949C137.902 204.984 139.754 205.5 141.57 205.5C143.184 205.5 144.562 205.078 145.711 204.246C146.43 203.691 146.789 203.039 146.789 202.289C146.789 201.789 146.625 201.27 146.289 200.738C145.68 199.785 144.703 198.816 143.355 197.836C142.184 196.98 140.949 196.359 139.648 195.969C138.676 195.684 137.723 195.547 136.777 195.547C135.988 195.547 135.246 195.645 134.551 195.848C133.402 196.191 132.516 196.719 131.918 197.43C131.574 197.859 131.398 198.316 131.398 198.797C131.398 198.879 131.398 198.969 131.414 199.066C131.504 199.566 131.746 200.055 132.113 200.543C132.48 201.031 132.863 201.449 133.254 201.832V201.816ZM132.809 208.516C132.684 208.727 132.621 208.934 132.621 209.145C132.621 209.406 132.691 209.656 132.816 209.895C132.945 210.137 133.094 210.344 133.262 210.531C133.426 210.711 133.551 210.855 133.656 210.945C133.785 211.074 133.906 211.184 134.031 211.289C134.648 211.816 135.383 212.309 136.23 212.789C137.078 213.262 137.984 213.66 138.945 213.969C139.906 214.273 140.859 214.434 141.801 214.434C142.996 214.434 144.008 214.148 144.848 213.57C145.148 213.359 145.336 213.074 145.395 212.723C145.402 212.648 145.41 212.574 145.41 212.488C145.41 212.102 145.281 211.734 145.02 211.371C144.227 210.328 142.996 209.398 141.328 208.598C139.77 207.855 138.156 207.48 136.484 207.48C136.059 207.48 135.629 207.504 135.195 207.555C134.715 207.609 134.25 207.703 133.809 207.84C133.363 207.977 133.027 208.199 132.809 208.516Z" fill="black"/>
<path d="M111.27 206.023C112.395 207.254 114.129 206.527 114.129 206.527C113.648 207.047 113.316 207.457 113.379 208.305C113.379 208.336 113.379 208.363 113.379 208.395C113.379 209.746 114.473 210.832 115.816 210.832C117.156 210.832 118.254 209.738 118.254 208.395C118.254 208.223 118.238 208.059 118.199 207.898C118.148 207.316 117.855 206.961 117.457 206.535C117.457 206.535 119.191 207.262 120.316 206.031C121.441 204.801 120.879 203.34 120.523 202.859C120.172 202.379 119.641 201.578 118.387 201.668C117.277 201.75 117.121 201.938 116.355 202.547C116.445 200.871 117.457 199.734 117.457 199.734H114.129C114.742 200.379 115.281 201.855 115.215 202.531C114.473 201.938 114.301 201.75 113.203 201.668C111.953 201.578 111.422 202.379 111.066 202.859C110.715 203.34 110.152 204.801 111.277 206.031L111.27 206.023Z" fill="#292929" stroke="black" stroke-width="0.5625" stroke-linecap="round" stroke-linejoin="round"/>
<path d="M57.9375 32.8594C56.8125 31.6289 55.0781 32.3555 55.0781 32.3555C55.5586 31.8359 55.8906 31.4258 55.8281 30.5781C55.8281 30.5469 55.8281 30.5156 55.8281 30.4883C55.8281 29.1367 54.7344 28.0508 53.3906 28.0508C52.0508 28.0508 50.9531 29.1445 50.9531 30.4883C50.9531 30.6602 50.9688 30.8242 51.0078 30.9844C51.0586 31.5664 51.3516 31.9219 51.75 32.3476C51.75 32.3476 50.0156 31.6211 48.8906 32.8516C47.7656 34.0781 48.3281 35.543 48.6836 36.0234C49.0352 36.5039 49.5664 37.3047 50.8203 37.2148C51.9297 37.1328 52.0859 36.9453 52.8516 36.3359C52.7617 38.0117 51.75 39.1484 51.75 39.1484H55.0781C54.4648 38.5039 53.9258 37.0274 53.9922 36.3516C54.7344 36.9453 54.9063 37.1328 56.0039 37.2148C57.2539 37.3047 57.7891 36.5039 58.1406 36.0234C58.4922 35.543 59.0547 34.0781 57.9297 32.8516L57.9375 32.8594Z" fill="#292929" stroke="black" stroke-width="0.5625" stroke-linecap="round" stroke-linejoin="round"/>
<path d="M72.75 58.5391C70.5078 56.0859 67.0664 57.5391 67.0664 57.5391C68.0234 56.5117 68.6719 55.6953 68.5508 54.0078C68.5508 53.9492 68.5508 53.8945 68.5508 53.836C68.5508 51.1485 66.375 48.9766 63.6914 48.9766C61.0039 48.9766 58.8359 51.1485 58.8359 53.836C58.8359 54.1719 58.875 54.5039 58.9336 54.8164C59.0469 55.9883 59.625 56.6914 60.4219 57.5391C60.4219 57.5391 56.9766 56.0859 54.7344 58.5391C52.4922 60.9883 53.6172 63.8906 54.3242 64.8438C55.0274 65.7969 56.0859 67.4024 58.5742 67.2149C60.7813 67.0508 61.1016 66.6758 62.625 65.4688C62.4453 68.7969 60.4258 71.0703 60.4258 71.0703H67.0742C65.8516 69.7891 64.7695 66.8399 64.9141 65.4961C66.3984 66.6836 66.7344 67.0508 68.918 67.2149C71.4063 67.4024 72.4649 65.7969 73.1719 64.8438C73.875 63.8906 75 60.9844 72.7578 58.5391H72.75Z" fill="#292929" stroke="black" stroke-width="0.5625" stroke-linecap="round" stroke-linejoin="round"/>
<path d="M114.668 58.5391C112.426 56.0859 108.984 57.5391 108.984 57.5391C109.941 56.5117 110.586 55.6953 110.469 54.0078C110.469 53.9492 110.469 53.8945 110.469 53.836C110.469 51.1485 108.293 48.9766 105.609 48.9766C102.922 48.9766 100.754 51.1485 100.754 53.836C100.754 54.1719 100.793 54.5039 100.852 54.8164C100.965 55.9883 101.543 56.6914 102.336 57.5391C102.336 57.5391 98.8945 56.0859 96.6523 58.5391C94.4102 60.9883 95.5352 63.8906 96.2383 64.8438C96.9453 65.7969 98.0039 67.4024 100.492 67.2149C102.699 67.0508 103.02 66.6758 104.543 65.4688C104.363 68.7969 102.344 71.0703 102.344 71.0703H108.988C107.766 69.7891 106.688 66.8399 106.828 65.4961C108.316 66.6836 108.652 67.0508 110.836 67.2149C113.324 67.4024 114.383 65.7969 115.086 64.8438C115.793 63.8906 116.918 60.9844 114.676 58.5391H114.668Z" fill="#292929" stroke="black" stroke-width="0.5625" stroke-linecap="round" stroke-linejoin="round"/>
<path d="M72.75 116.52C70.5078 114.066 67.0664 115.523 67.0664 115.523C68.0234 114.496 68.6719 113.676 68.5508 111.988C68.5508 111.93 68.5508 111.879 68.5508 111.816C68.5508 109.133 66.375 106.957 63.6914 106.957C61.0039 106.957 58.8359 109.133 58.8359 111.816C58.8359 112.156 58.875 112.484 58.9336 112.801C59.0469 113.969 59.625 114.676 60.4219 115.523C60.4219 115.523 56.9766 114.066 54.7344 116.52C52.4922 118.973 53.6172 121.875 54.3242 122.828C55.0274 123.781 56.0859 125.387 58.5742 125.199C60.7813 125.031 61.1016 124.656 62.625 123.449C62.4453 126.781 60.4258 129.051 60.4258 129.051H67.0742C65.8516 127.77 64.7695 124.824 64.9141 123.48C66.3984 124.664 66.7344 125.031 68.918 125.199C71.4063 125.387 72.4649 123.781 73.1719 122.828C73.875 121.875 75 118.965 72.7578 116.52H72.75Z" fill="#292929" stroke="black" stroke-width="0.5625" stroke-linecap="round" stroke-linejoin="round"/>
<path d="M114.668 116.52C112.426 114.066 108.984 115.523 108.984 115.523C109.941 114.496 110.586 113.676 110.469 111.988C110.469 111.93 110.469 111.879 110.469 111.816C110.469 109.133 108.293 106.957 105.609 106.957C102.922 106.957 100.754 109.133 100.754 111.816C100.754 112.156 100.793 112.484 100.852 112.801C100.965 113.969 101.543 114.676 102.336 115.523C102.336 115.523 98.8945 114.066 96.6523 116.52C94.4102 118.973 95.5352 121.875 96.2383 122.828C96.9453 123.781 98.0039 125.387 100.492 125.199C102.699 125.031 103.02 124.656 104.543 123.449C104.363 126.781 102.344 129.051 102.344 129.051H108.988C107.766 127.77 106.688 124.824 106.828 123.48C108.316 124.664 108.652 125.031 110.836 125.199C113.324 125.387 114.383 123.781 115.086 122.828C115.793 121.875 116.918 118.965 114.676 116.52H114.668Z" fill="#292929" stroke="black" stroke-width="0.5625" stroke-linecap="round" stroke-linejoin="round"/>
<path d="M72.75 174.383C70.5078 171.93 67.0664 173.387 67.0664 173.387C68.0234 172.359 68.6719 171.539 68.5508 169.852C68.5508 169.793 68.5508 169.738 68.5508 169.68C68.5508 166.996 66.375 164.82 63.6914 164.82C61.0039 164.82 58.8359 166.996 58.8359 169.68C58.8359 170.016 58.875 170.348 58.9336 170.664C59.0469 171.832 59.625 172.539 60.4219 173.387C60.4219 173.387 56.9766 171.93 54.7344 174.383C52.4922 176.836 53.6172 179.738 54.3242 180.691C55.0274 181.641 56.0859 183.246 58.5742 183.059C60.7813 182.895 61.1016 182.52 62.625 181.312C62.4453 184.641 60.4258 186.914 60.4258 186.914H67.0742C65.8516 185.633 64.7695 182.684 64.9141 181.344C66.3984 182.527 66.7344 182.895 68.918 183.059C71.4063 183.246 72.4649 181.641 73.1719 180.691C73.875 179.738 75 176.828 72.7578 174.383H72.75Z" fill="#292929" stroke="black" stroke-width="0.5625" stroke-linecap="round" stroke-linejoin="round"/>
<path d="M114.668 174.383C112.426 171.93 108.984 173.387 108.984 173.387C109.941 172.359 110.586 171.539 110.469 169.852C110.469 169.793 110.469 169.738 110.469 169.68C110.469 166.996 108.293 164.82 105.609 164.82C102.922 164.82 100.754 166.996 100.754 169.68C100.754 170.016 100.793 170.348 100.852 170.664C100.965 171.832 101.543 172.539 102.336 173.387C102.336 173.387 98.8945 171.93 96.6523 174.383C94.4102 176.836 95.5352 179.738 96.2383 180.691C96.9453 181.641 98.0039 183.246 100.492 183.059C102.699 182.895 103.02 182.52 104.543 181.312C104.363 184.641 102.344 186.914 102.344 186.914H108.988C107.766 185.633 106.688 182.684 106.828 181.344C108.316 182.527 108.652 182.895 110.836 183.059C113.324 183.246 114.383 181.641 115.086 180.691C115.793 179.738 116.918 176.828 114.676 174.383H114.668Z" fill="#292929" stroke="black" stroke-width="0.5625" stroke-linecap="round" stroke-linejoin="round"/>
<path d="M93.6523 85.4531C91.4102 83.0039 87.9688 84.457 87.9688 84.457C88.9258 83.4297 89.5742 82.6133 89.4531 80.9258C89.4531 80.8633 89.4531 80.8125 89.4531 80.7539C89.4531 78.0664 87.2773 75.8906 84.5938 75.8906C81.9063 75.8906 79.7383 78.0664 79.7383 80.7539C79.7383 81.0898 79.7773 81.4219 79.8359 81.7344C79.9492 82.9062 80.5273 83.6094 81.3242 84.457C81.3242 84.457 77.8789 83.0039 75.6367 85.4531C73.3945 87.9062 74.5195 90.8086 75.2266 91.7617C75.9297 92.7148 76.9883 94.3203 79.4766 94.1328C81.6836 93.9687 82.0039 93.5937 83.5273 92.3867C83.3477 95.7148 81.3281 97.9883 81.3281 97.9883H87.9766C86.7539 96.7031 85.6719 93.7578 85.8164 92.4141C87.3008 93.6016 87.6367 93.9687 89.8203 94.1328C92.3086 94.3203 93.3672 92.7148 94.0742 91.7617C94.7773 90.8086 95.9023 87.8984 93.6602 85.4531H93.6523Z" fill="#292929" stroke="black" stroke-width="0.5625" stroke-linecap="round" stroke-linejoin="round"/>
<path d="M93.5391 145.223C91.2969 142.77 87.8555 144.227 87.8555 144.227C88.8164 143.199 89.4609 142.379 89.3399 140.691C89.3399 140.633 89.3399 140.578 89.3399 140.52C89.3399 137.836 87.1641 135.66 84.4805 135.66C81.7969 135.66 79.6289 137.836 79.6289 140.52C79.6289 140.859 79.6641 141.187 79.7266 141.504C79.8359 142.672 80.4141 143.379 81.2109 144.227C81.2109 144.227 77.7656 142.77 75.5234 145.223C73.2813 147.676 74.4063 150.578 75.1133 151.531C75.8164 152.484 76.875 154.086 79.3633 153.898C81.5703 153.734 81.8906 153.359 83.4141 152.152C83.2344 155.484 81.2188 157.754 81.2188 157.754H87.8633C86.6406 156.473 85.5586 153.523 85.7031 152.184C87.1875 153.367 87.5234 153.734 89.707 153.898C92.1992 154.086 93.2539 152.484 93.9609 151.531C94.6641 150.578 95.7891 147.668 93.5469 145.223H93.5391Z" fill="#292929" stroke="black" stroke-width="0.5625" stroke-linecap="round" stroke-linejoin="round"/>
<defs>
<linearGradient id="paint0_linear_2314_2675" x1="158.07" y1="49.455" x2="11.43" y2="49.455" gradientUnits="userSpaceOnUse">
<stop stop-color="#8F8587"/>
<stop offset="0.00390625" stop-color="#908688"/>
<stop offset="0.0078125" stop-color="#918789"/>
<stop offset="0.0117188" stop-color="#92888A"/>
<stop offset="0.015625" stop-color="#92898B"/>
<stop offset="0.0195313" stop-color="#938A8B"/>
<stop offset="0.0234375" stop-color="#948B8C"/>
<stop offset="0.0273438" stop-color="#958C8D"/>
<stop offset="0.03125" stop-color="#968D8E"/>
<stop offset="0.0351563" stop-color="#978D8F"/>
<stop offset="0.0390625" stop-color="#988E90"/>
<stop offset="0.0429688" stop-color="#988F91"/>
<stop offset="0.046875" stop-color="#999092"/>
<stop offset="0.0507813" stop-color="#9A9193"/>
<stop offset="0.0546875" stop-color="#9B9294"/>
<stop offset="0.0585938" stop-color="#9C9395"/>
<stop offset="0.0625" stop-color="#9D9496"/>
<stop offset="0.0664062" stop-color="#9D9596"/>
<stop offset="0.0703125" stop-color="#9E9697"/>
<stop offset="0.0742188" stop-color="#9F9798"/>
<stop offset="0.078125" stop-color="#A09899"/>
<stop offset="0.0820312" stop-color="#A1999A"/>
<stop offset="0.0859375" stop-color="#A2999B"/>
<stop offset="0.0898438" stop-color="#A39A9C"/>
<stop offset="0.09375" stop-color="#A39B9D"/>
<stop offset="0.0976562" stop-color="#A49C9E"/>
<stop offset="0.101562" stop-color="#A59D9F"/>
<stop offset="0.105469" stop-color="#A69EA0"/>
<stop offset="0.109375" stop-color="#A79FA0"/>
<stop offset="0.113281" stop-color="#A8A0A1"/>
<stop offset="0.117188" stop-color="#A8A1A2"/>
<stop offset="0.121094" stop-color="#A9A2A3"/>
<stop offset="0.125" stop-color="#AAA3A4"/>
<stop offset="0.128906" stop-color="#ABA4A5"/>
<stop offset="0.132812" stop-color="#ACA5A6"/>
<stop offset="0.136719" stop-color="#ADA5A7"/>
<stop offset="0.140625" stop-color="#AEA6A8"/>
<stop offset="0.144531" stop-color="#AEA7A9"/>
<stop offset="0.148438" stop-color="#AFA8AA"/>
<stop offset="0.152344" stop-color="#B0A9AB"/>
<stop offset="0.15625" stop-color="#B1AAAB"/>
<stop offset="0.160156" stop-color="#B2ABAC"/>
<stop offset="0.164062" stop-color="#B3ACAD"/>
<stop offset="0.167969" stop-color="#B3ADAE"/>
<stop offset="0.171875" stop-color="#B4AEAF"/>
<stop offset="0.175781" stop-color="#B5AFB0"/>
<stop offset="0.179688" stop-color="#B6B0B1"/>
<stop offset="0.183594" stop-color="#B7B1B2"/>
<stop offset="0.1875" stop-color="#B8B2B3"/>
<stop offset="0.191406" stop-color="#B9B2B4"/>
<stop offset="0.195312" stop-color="#B9B3B5"/>
<stop offset="0.199219" stop-color="#BAB4B5"/>
<stop offset="0.203125" stop-color="#BBB5B6"/>
<stop offset="0.207031" stop-color="#BCB6B7"/>
<stop offset="0.210938" stop-color="#BDB7B8"/>
<stop offset="0.214844" stop-color="#BEB8B9"/>
<stop offset="0.21875" stop-color="#BEB9BA"/>
<stop offset="0.222656" stop-color="#BFBABB"/>
<stop offset="0.226562" stop-color="#C0BBBC"/>
<stop offset="0.230469" stop-color="#C1BCBD"/>
<stop offset="0.234375" stop-color="#C2BDBE"/>
<stop offset="0.238281" stop-color="#C3BEBF"/>
<stop offset="0.242188" stop-color="#C3BEBF"/>
<stop offset="0.246094" stop-color="#C4BFC0"/>
<stop offset="0.25" stop-color="#C5C0C1"/>
<stop offset="0.253906" stop-color="#C6C1C2"/>
<stop offset="0.257813" stop-color="#C6C2C3"/>
<stop offset="0.261719" stop-color="#C7C3C3"/>
<stop offset="0.265625" stop-color="#C8C3C4"/>
<stop offset="0.269531" stop-color="#C9C4C5"/>
<stop offset="0.273438" stop-color="#C9C5C6"/>
<stop offset="0.277344" stop-color="#CAC6C7"/>
<stop offset="0.28125" stop-color="#CBC7C7"/>
<stop offset="0.285156" stop-color="#CCC7C8"/>
<stop offset="0.289063" stop-color="#CCC8C9"/>
<stop offset="0.292969" stop-color="#CDC9CA"/>
<stop offset="0.296875" stop-color="#CECACB"/>
<stop offset="0.300781" stop-color="#CFCBCB"/>
<stop offset="0.304688" stop-color="#CFCCCC"/>
<stop offset="0.308594" stop-color="#D0CCCD"/>
<stop offset="0.3125" stop-color="#D1CDCE"/>
<stop offset="0.316406" stop-color="#D2CECF"/>
<stop offset="0.320313" stop-color="#D2CFCF"/>
<stop offset="0.324219" stop-color="#D3D0D0"/>
<stop offset="0.328125" stop-color="#D4D0D1"/>
<stop offset="0.332031" stop-color="#D5D1D2"/>
<stop offset="0.335938" stop-color="#D5D2D3"/>
<stop offset="0.339844" stop-color="#D6D3D3"/>
<stop offset="0.34375" stop-color="#D7D4D4"/>
<stop offset="0.347656" stop-color="#D8D5D5"/>
<stop offset="0.351563" stop-color="#D8D5D6"/>
<stop offset="0.355469" stop-color="#D9D6D7"/>
<stop offset="0.359375" stop-color="#DAD7D7"/>
<stop offset="0.363281" stop-color="#DBD8D8"/>
<stop offset="0.367188" stop-color="#DBD9D9"/>
<stop offset="0.371094" stop-color="#DCDADA"/>
<stop offset="0.375" stop-color="#DDDADB"/>
<stop offset="0.378906" stop-color="#DEDBDB"/>
<stop offset="0.382813" stop-color="#DEDCDC"/>
<stop offset="0.386719" stop-color="#DFDDDD"/>
<stop offset="0.390625" stop-color="#E0DEDE"/>
<stop offset="0.394531" stop-color="#E1DEDF"/>
<stop offset="0.398438" stop-color="#E1DFE0"/>
<stop offset="0.402344" stop-color="#E2E0E0"/>
<stop offset="0.40625" stop-color="#E3E1E1"/>
<stop offset="0.410156" stop-color="#E4E2E2"/>
<stop offset="0.414063" stop-color="#E4E3E3"/>
<stop offset="0.417969" stop-color="#E5E3E4"/>
<stop offset="0.421875" stop-color="#E6E4E4"/>
<stop offset="0.425781" stop-color="#E6E5E5"/>
<stop offset="0.429688" stop-color="#E7E6E6"/>
<stop offset="0.433594" stop-color="#E8E7E7"/>
<stop offset="0.4375" stop-color="#E9E7E8"/>
<stop offset="0.441406" stop-color="#E9E8E8"/>
<stop offset="0.445313" stop-color="#EAE9E9"/>
<stop offset="0.449219" stop-color="#EBEAEA"/>
<stop offset="0.453125" stop-color="#ECEBEB"/>
<stop offset="0.457031" stop-color="#ECEBEB"/>
<stop offset="0.460938" stop-color="#EDECEC"/>
<stop offset="0.464844" stop-color="#EDECEC"/>
<stop offset="0.46875" stop-color="#EEEDED"/>
<stop offset="0.472656" stop-color="#EEEEEE"/>
<stop offset="0.476563" stop-color="#EFEEEE"/>
<stop offset="0.480469" stop-color="#EFEFEF"/>
<stop offset="0.484375" stop-color="#F0EFEF"/>
<stop offset="0.488281" stop-color="#F1F0F0"/>
<stop offset="0.492188" stop-color="#F1F1F1"/>
<stop offset="0.496094" stop-color="#F2F1F1"/>
<stop offset="0.5" stop-color="#F2F2F2"/>
<stop offset="0.503906" stop-color="#F3F2F2"/>
<stop offset="0.507813" stop-color="#F3F3F3"/>
<stop offset="0.511719" stop-color="#F4F4F4"/>
<stop offset="0.515625" stop-color="#F5F4F4"/>
<stop offset="0.519531" stop-color="#F5F5F5"/>
<stop offset="0.523438" stop-color="#F6F5F5"/>
<stop offset="0.527344" stop-color="#F6F6F6"/>
<stop offset="0.53125" stop-color="#F7F7F7"/>
<stop offset="0.535156" stop-color="#F7F7F7"/>
<stop offset="0.539062" stop-color="#F8F8F8"/>
<stop offset="0.542969" stop-color="#F8F8F8"/>
<stop offset="0.546875" stop-color="#F9F9F9"/>
<stop offset="0.550781" stop-color="#FAFAFA"/>
<stop offset="0.554688" stop-color="#FAFAFA"/>
<stop offset="0.5625" stop-color="#FBFBFB"/>
<stop offset="0.625" stop-color="#FBFBFB"/>
<stop offset="0.75" stop-color="#FBFBFB"/>
<stop offset="1" stop-color="#FBFBFB"/>
</linearGradient>
<linearGradient id="paint1_linear_2314_2675" x1="11.28" y1="188.445" x2="157.995" y2="188.445" gradientUnits="userSpaceOnUse">
<stop stop-color="#8F8587"/>
<stop offset="0.00390625" stop-color="#908688"/>
<stop offset="0.0078125" stop-color="#918789"/>
<stop offset="0.0117188" stop-color="#91888A"/>
<stop offset="0.015625" stop-color="#92898A"/>
<stop offset="0.0195312" stop-color="#938A8B"/>
<stop offset="0.0234375" stop-color="#948A8C"/>
<stop offset="0.0273438" stop-color="#958B8D"/>
<stop offset="0.03125" stop-color="#968C8E"/>
<stop offset="0.0351563" stop-color="#968D8F"/>
<stop offset="0.0390625" stop-color="#978E90"/>
<stop offset="0.0429688" stop-color="#988F91"/>
<stop offset="0.046875" stop-color="#999091"/>
<stop offset="0.0507813" stop-color="#9A9192"/>
<stop offset="0.0546875" stop-color="#9A9293"/>
<stop offset="0.0585938" stop-color="#9B9294"/>
<stop offset="0.0625" stop-color="#9C9395"/>
<stop offset="0.0664062" stop-color="#9D9496"/>
<stop offset="0.0703125" stop-color="#9E9597"/>
<stop offset="0.0742188" stop-color="#9E9698"/>
<stop offset="0.078125" stop-color="#9F9798"/>
<stop offset="0.0820312" stop-color="#A09899"/>
<stop offset="0.0859375" stop-color="#A1999A"/>
<stop offset="0.0898438" stop-color="#A29A9B"/>
<stop offset="0.09375" stop-color="#A39A9C"/>
<stop offset="0.0976562" stop-color="#A39B9D"/>
<stop offset="0.101562" stop-color="#A49C9E"/>
<stop offset="0.105469" stop-color="#A59D9F"/>
<stop offset="0.109375" stop-color="#A69E9F"/>
<stop offset="0.113281" stop-color="#A79FA0"/>
<stop offset="0.117188" stop-color="#A7A0A1"/>
<stop offset="0.121094" stop-color="#A8A1A2"/>
<stop offset="0.125" stop-color="#A9A2A3"/>
<stop offset="0.128906" stop-color="#AAA2A4"/>
<stop offset="0.132812" stop-color="#ABA3A5"/>
<stop offset="0.136719" stop-color="#ABA4A6"/>
<stop offset="0.140625" stop-color="#ACA5A6"/>
<stop offset="0.144531" stop-color="#ADA6A7"/>
<stop offset="0.148438" stop-color="#AEA7A8"/>
<stop offset="0.152344" stop-color="#AFA8A9"/>
<stop offset="0.15625" stop-color="#B0A9AA"/>
<stop offset="0.160156" stop-color="#B0AAAB"/>
<stop offset="0.164062" stop-color="#B1AAAC"/>
<stop offset="0.167969" stop-color="#B2ABAD"/>
<stop offset="0.171875" stop-color="#B3ACAD"/>
<stop offset="0.175781" stop-color="#B4ADAE"/>
<stop offset="0.179688" stop-color="#B4AEAF"/>
<stop offset="0.183594" stop-color="#B5AFB0"/>
<stop offset="0.1875" stop-color="#B6B0B1"/>
<stop offset="0.191406" stop-color="#B7B1B2"/>
<stop offset="0.195312" stop-color="#B8B2B3"/>
<stop offset="0.199219" stop-color="#B9B2B4"/>
<stop offset="0.203125" stop-color="#B9B3B4"/>
<stop offset="0.207031" stop-color="#BAB4B5"/>
<stop offset="0.210938" stop-color="#BBB5B6"/>
<stop offset="0.214844" stop-color="#BCB6B7"/>
<stop offset="0.21875" stop-color="#BDB7B8"/>
<stop offset="0.222656" stop-color="#BDB8B9"/>
<stop offset="0.226562" stop-color="#BEB9BA"/>
<stop offset="0.230469" stop-color="#BFBABB"/>
<stop offset="0.234375" stop-color="#C0BABB"/>
<stop offset="0.238281" stop-color="#C1BBBC"/>
<stop offset="0.242188" stop-color="#C1BCBD"/>
<stop offset="0.246094" stop-color="#C2BDBE"/>
<stop offset="0.25" stop-color="#C3BEBF"/>
<stop offset="0.253906" stop-color="#C4BFC0"/>
<stop offset="0.257812" stop-color="#C5C0C1"/>
<stop offset="0.261719" stop-color="#C5C0C1"/>
<stop offset="0.265625" stop-color="#C6C1C2"/>
<stop offset="0.269531" stop-color="#C7C2C3"/>
<stop offset="0.273438" stop-color="#C8C3C4"/>
<stop offset="0.277344" stop-color="#C8C4C5"/>
<stop offset="0.28125" stop-color="#C9C5C5"/>
<stop offset="0.285156" stop-color="#CAC5C6"/>
<stop offset="0.289062" stop-color="#CBC6C7"/>
<stop offset="0.292969" stop-color="#CBC7C8"/>
<stop offset="0.296875" stop-color="#CCC8C9"/>
<stop offset="0.300781" stop-color="#CDC9C9"/>
<stop offset="0.304688" stop-color="#CDC9CA"/>
<stop offset="0.308594" stop-color="#CECACB"/>
<stop offset="0.3125" stop-color="#CFCBCC"/>
<stop offset="0.316406" stop-color="#D0CCCD"/>
<stop offset="0.320312" stop-color="#D0CDCD"/>
<stop offset="0.324219" stop-color="#D1CECE"/>
<stop offset="0.328125" stop-color="#D2CECF"/>
<stop offset="0.332031" stop-color="#D3CFD0"/>
<stop offset="0.335938" stop-color="#D3D0D1"/>
<stop offset="0.339844" stop-color="#D4D1D1"/>
<stop offset="0.34375" stop-color="#D5D2D2"/>
<stop offset="0.347656" stop-color="#D6D2D3"/>
<stop offset="0.351562" stop-color="#D6D3D4"/>
<stop offset="0.355469" stop-color="#D7D4D5"/>
<stop offset="0.359375" stop-color="#D8D5D5"/>
<stop offset="0.363281" stop-color="#D9D6D6"/>
<stop offset="0.367188" stop-color="#D9D7D7"/>
<stop offset="0.371094" stop-color="#DAD7D8"/>
<stop offset="0.375" stop-color="#DBD8D9"/>
<stop offset="0.378906" stop-color="#DCD9D9"/>
<stop offset="0.382812" stop-color="#DCDADA"/>
<stop offset="0.386719" stop-color="#DDDBDB"/>
<stop offset="0.390625" stop-color="#DEDCDC"/>
<stop offset="0.394531" stop-color="#DFDCDD"/>
<stop offset="0.398438" stop-color="#DFDDDD"/>
<stop offset="0.402344" stop-color="#E0DEDE"/>
<stop offset="0.40625" stop-color="#E1DFDF"/>
<stop offset="0.410156" stop-color="#E2E0E0"/>
<stop offset="0.414062" stop-color="#E2E0E1"/>
<stop offset="0.417969" stop-color="#E3E1E1"/>
<stop offset="0.421875" stop-color="#E4E2E2"/>
<stop offset="0.425781" stop-color="#E5E3E3"/>
<stop offset="0.429688" stop-color="#E5E4E4"/>
<stop offset="0.433594" stop-color="#E6E5E5"/>
<stop offset="0.4375" stop-color="#E7E5E5"/>
<stop offset="0.441406" stop-color="#E8E6E6"/>
<stop offset="0.445312" stop-color="#E8E7E7"/>
<stop offset="0.449219" stop-color="#E9E8E8"/>
<stop offset="0.453125" stop-color="#EAE9E9"/>
<stop offset="0.457031" stop-color="#EBE9E9"/>
<stop offset="0.460938" stop-color="#EBEAEA"/>
<stop offset="0.464844" stop-color="#ECEBEB"/>
<stop offset="0.46875" stop-color="#ECEBEB"/>
<stop offset="0.472656" stop-color="#EDECEC"/>
<stop offset="0.476562" stop-color="#EDEDED"/>
<stop offset="0.480469" stop-color="#EEEDED"/>
<stop offset="0.484375" stop-color="#EFEEEE"/>
<stop offset="0.488281" stop-color="#EFEEEE"/>
<stop offset="0.492188" stop-color="#F0EFEF"/>
<stop offset="0.496094" stop-color="#F0F0F0"/>
<stop offset="0.5" stop-color="#F1F0F0"/>
<stop offset="0.503906" stop-color="#F1F1F1"/>
<stop offset="0.507812" stop-color="#F2F1F1"/>
<stop offset="0.511719" stop-color="#F3F2F2"/>
<stop offset="0.515625" stop-color="#F3F3F3"/>
<stop offset="0.519531" stop-color="#F4F3F3"/>
<stop offset="0.523438" stop-color="#F4F4F4"/>
<stop offset="0.527344" stop-color="#F5F4F4"/>
<stop offset="0.53125" stop-color="#F5F5F5"/>
<stop offset="0.535156" stop-color="#F6F6F6"/>
<stop offset="0.539062" stop-color="#F6F6F6"/>
<stop offset="0.542969" stop-color="#F7F7F7"/>
<stop offset="0.546875" stop-color="#F8F7F7"/>
<stop offset="0.550781" stop-color="#F8F8F8"/>
<stop offset="0.554688" stop-color="#F9F9F9"/>
<stop offset="0.558594" stop-color="#F9F9F9"/>
<stop offset="0.5625" stop-color="#FAFAFA"/>
<stop offset="0.566406" stop-color="#FAFAFA"/>
<stop offset="0.570312" stop-color="#FBFBFB"/>
<stop offset="0.578125" stop-color="#FBFBFB"/>
<stop offset="0.59375" stop-color="#FBFBFB"/>
<stop offset="0.625" stop-color="#FBFBFB"/>
<stop offset="0.75" stop-color="#FBFBFB"/>
<stop offset="1" stop-color="#FBFBFB"/>
</linearGradient>
</defs>
</svg>
