<svg width="170" height="239" viewBox="0 0 170 239" fill="none" xmlns="http://www.w3.org/2000/svg">
<path d="M163.281 238.262H6.76562C3.44141 238.262 0.75 235.547 0.75 232.199V6.62891C0.75 3.28516 3.44141 0.570312 6.76562 0.570312H163.281C166.605 0.570312 169.297 3.28516 169.297 6.62891V232.199C169.297 235.547 166.605 238.262 163.281 238.262Z" fill="white"/>
<mask id="mask0_2314_2677" style="mask-type:luminance" maskUnits="userSpaceOnUse" x="11" y="10" width="148" height="79">
<path d="M11 10H159V89H11V10Z" fill="white"/>
</mask>
<g mask="url(#mask0_2314_2677)">
<mask id="mask1_2314_2677" style="mask-type:luminance" maskUnits="userSpaceOnUse" x="11" y="10" width="148" height="79">
<path d="M158.43 88.3125C158.43 62.4141 158.438 36.5117 158.445 10.6133C109.59 10.6133 60.7266 10.6133 11.8711 10.6211C11.8516 36.0977 11.8281 61.5742 11.8047 87.0508C14.3711 75.6133 19.5469 58.7461 29.4141 49.7383C36.9688 42.8555 40.7383 39.4062 43.6953 38.0234C45.0664 37.3789 49.4531 35.4844 53.0859 31.0508C53.7617 30.2344 54.2461 29.5117 54.5547 29.0312C54.8711 29.4531 56.0859 31.0039 57.7578 31.0352C59.9336 31.0742 62.3633 28.5234 62.4844 24.6836C62.7383 25.2539 64.875 29.7969 69.7344 30.8242C72.0742 31.3203 74.0391 30.7969 75.0508 30.4336C75.7109 29.8867 76.5898 29.0391 77.3906 27.8242C78.1797 26.6328 78.6094 25.5156 78.8555 24.7031H91.4023C91.4766 25.1719 92.0859 28.5977 95.2031 30.3086C98.2578 31.9805 101.355 30.7031 102.309 30.3242C105.602 28.9961 106.996 26.2578 107.301 25.6133C108.047 29.1523 110.52 31.3438 112.695 31.1719C113.047 31.1406 114.18 30.9883 115.359 29.6719L119.113 32.7969C120.586 33.668 122.648 34.9492 125.023 36.6133C127.816 38.5664 137.07 45.1367 144.336 54.5781C153.988 67.1172 157.223 80.9258 158.422 88.2969L158.43 88.3125Z" fill="white"/>
</mask>
<g mask="url(#mask1_2314_2677)">
<path d="M11.8047 10.6133V88.3125H158.445V10.6133H11.8047Z" fill="url(#paint0_linear_2314_2677)"/>
</g>
</g>
<path d="M158.82 228.406H11.3477C11.3477 183.074 11.3477 137.746 11.3477 92.4141C11.3477 65.0234 11.3477 37.6406 11.3477 10.2539H158.82C158.82 37.5977 158.82 64.9414 158.82 92.289C158.82 137.664 158.82 183.031 158.82 228.406Z" stroke="#0E0E0E" stroke-width="0.75" stroke-linecap="round" stroke-linejoin="round"/>
<path d="M84.9961 32.6836C84.9453 32.0625 84.6914 29.8789 82.8828 28.0273C81.2617 26.3633 79.3594 25.9648 78.7031 25.8516C78.7578 25.1992 78.8086 24.5469 78.8633 23.8945C79.7188 23.4961 81.4336 22.5508 82.8594 20.6406C84.3086 18.6992 84.7187 16.7617 84.8555 15.8242C85.1914 16.9961 85.9336 18.9961 87.6289 20.9492C88.9336 22.4492 90.3242 23.3633 91.2812 23.8945C91.3359 24.5469 91.3867 25.1992 91.4414 25.8516C90.9766 25.8984 87.9844 26.2422 86.1836 28.8594C85.125 30.4062 84.9961 31.9805 84.9844 32.6836H84.9961Z" fill="white"/>
<path d="M53.7891 22.2461C54.6211 22.0039 55.9961 21.7422 57.5469 22.1172C58.9063 22.4414 59.8203 23.1015 60.336 23.4882C64.8985 26.9101 65.5742 29.5664 68.707 30.7656C69.1133 30.9218 72.0469 31.8906 75 30.5117C77.0859 29.5351 78.5703 27.3164 78.8008 24.9062C79.1328 21.457 76.7344 18.0468 73.9492 17.4218C73.6289 17.3476 71.8711 16.957 70.4414 18.0312C70.2617 18.164 69.1484 19.0195 68.9922 20.5273C68.9688 20.7539 68.7891 22.6953 70.2735 23.6406C71.1094 24.164 72.1641 24.1953 73.0039 23.8047C74.1992 23.2578 74.918 21.8867 74.7305 20.414C75.0234 20.7383 75.4258 21.2382 75.75 21.9297C75.9062 22.2617 76.9258 24.5156 75.9531 26.6836C74.7656 29.3242 71.5352 29.789 71.1016 29.8515C68.2109 30.2617 65.2109 28.7461 63.2461 26.0234" stroke="#0E0E0E" stroke-width="0.75" stroke-linecap="round" stroke-linejoin="round"/>
<path d="M78.8633 23.8047C79.4336 23.5273 80.3242 23.0234 81.2344 22.1992C84.1367 19.5508 84.668 15.8789 84.9062 14.2422C85.043 13.3203 85.1641 11.9492 85.0039 10.2461" stroke="#0E0E0E" stroke-width="0.75" stroke-linecap="round" stroke-linejoin="round"/>
<path d="M78.7031 25.7617C79.418 25.8906 80.1914 26.1133 80.9531 26.5039C84.4141 28.2656 84.9219 31.957 84.9961 32.5938" stroke="#0E0E0E" stroke-width="0.75" stroke-linecap="round" stroke-linejoin="round"/>
<path d="M116.371 22.2461C115.539 22.0039 114.164 21.7422 112.613 22.1172C111.254 22.4414 110.34 23.1015 109.824 23.4882C105.262 26.9101 104.586 29.5664 101.453 30.7656C101.047 30.9218 98.1133 31.8906 95.1601 30.5117C93.0742 29.5351 91.5899 27.3164 91.3594 24.9062C91.0274 21.457 93.4258 18.0468 96.2109 17.4218C96.5313 17.3476 98.2891 16.957 99.7187 18.0312C99.8984 18.164 101.012 19.0195 101.168 20.5273C101.191 20.7539 101.371 22.6953 99.8867 23.6406C99.0508 24.164 97.9961 24.1953 97.1562 23.8047C95.9609 23.2578 95.2422 21.8867 95.4297 20.414C95.1367 20.7383 94.7344 21.2382 94.4101 21.9297C94.2539 22.2617 93.2344 24.5156 94.207 26.6836C95.3906 29.3242 98.625 29.789 99.0586 29.8515C101.949 30.2617 104.949 28.7461 106.914 26.0234" stroke="#0E0E0E" stroke-width="0.75" stroke-linecap="round" stroke-linejoin="round"/>
<path d="M91.4531 25.7617C90.7422 25.8906 89.9688 26.1133 89.2031 26.5039C85.7461 28.2656 85.2383 31.957 85.1641 32.5938" stroke="#0E0E0E" stroke-width="0.75" stroke-linecap="round" stroke-linejoin="round"/>
<path d="M115.664 29.1016C115.551 29.3555 114.961 30.668 113.574 31.1016C112.102 31.5664 110.813 30.7109 110.273 30.3516C108 28.8438 107.773 25.9727 107.754 25.5078" stroke="#0E0E0E" stroke-width="0.75" stroke-linecap="round" stroke-linejoin="round"/>
<path d="M123.637 36.0157C122.992 35.6485 122.086 35.0938 121.066 34.3516C118.117 32.2032 115.816 30.5313 115.215 27.8008C114.668 25.3204 115.785 23.2266 115.98 22.8751C117.816 19.5587 121.664 19.0118 122.461 18.922C126.039 18.5157 129.668 20.4063 131.941 23.7071" stroke="#0E0E0E" stroke-width="0.75" stroke-linecap="round" stroke-linejoin="round"/>
<path d="M131.445 41.1601C131.484 33.4414 129.594 27.3828 126.602 25.7109C125.063 24.8555 123.504 24.832 123.504 24.832C122.984 24.832 120.367 24.8711 118.711 27.0312C117.234 28.957 117.602 31.164 117.668 31.539" stroke="#0E0E0E" stroke-width="0.75" stroke-linecap="round" stroke-linejoin="round"/>
<path d="M152.574 37.2617C152.961 37.0664 154.207 36.4883 155.551 36.8321C157.941 37.4414 158.211 40.3281 158.227 40.5391C158.371 42.375 157.246 44.5117 155.102 45.2774C153.449 45.8633 151.859 45.3985 151.012 45.1485C148.266 44.3477 146.762 42.4805 146.012 41.5352C143.609 38.4766 144.781 36.9883 142.32 34.8164C141.652 34.2227 140.301 33.0235 138.234 32.7071C136.078 32.3711 135.195 33.3008 133.23 32.7539C131.301 32.211 130.305 30.7969 130.051 30.3985C129.93 30.2188 128.527 27.961 129.848 25.6875C130.117 25.2149 130.922 23.8438 132.727 23.4453C134.371 23.0938 136.176 23.6914 137.168 24.8711C138.016 25.875 138.262 27.293 137.602 28.418C137.461 28.6641 137.012 29.4297 135.988 29.7383C135.137 29.9922 134.047 29.8789 133.297 29.2813C132.637 28.7461 132.516 28.0664 132.496 27.8633" stroke="#0E0E0E" stroke-width="0.75" stroke-linecap="round" stroke-linejoin="round"/>
<path d="M143.863 36.9141C143.551 33.4961 141.801 30.6836 139.246 29.7656C138.66 29.5586 137.746 29.3477 136.531 29.4961" stroke="#0E0E0E" stroke-width="0.75" stroke-linecap="round" stroke-linejoin="round"/>
<path d="M146.461 42.2188C145.996 42.0977 144.059 41.6485 142.41 42.7266C140.422 44.0313 139.629 47.0547 140.852 49.9219" stroke="#0E0E0E" stroke-width="0.75" stroke-linecap="round" stroke-linejoin="round"/>
<path d="M147.816 52.5234C147.512 52.5078 146.871 52.5156 146.199 52.8672C145.102 53.4453 144.742 54.5039 144.676 54.7422" stroke="#0E0E0E" stroke-width="0.75" stroke-linecap="round" stroke-linejoin="round"/>
<path d="M158.805 91.3359C158.789 91.2305 158.773 91.043 158.746 90.8242C158.16 85.6875 154.852 61.7031 135.129 44.2031C132.676 42.0313 128.871 38.9766 123.637 36.0078" stroke="#0E0E0E" stroke-width="0.75" stroke-linecap="round" stroke-linejoin="round"/>
<path d="M84.9961 32.6836C84.9453 32.0625 84.6914 29.8789 82.8828 28.0274C81.2617 26.3633 79.3594 25.9649 78.7031 25.8516C78.7578 25.1992 78.8086 24.5469 78.8633 23.8945C79.7188 23.4961 81.4336 22.5508 82.8594 20.6406C84.3086 18.6992 84.7188 16.7617 84.8555 15.8242C85.1914 16.9961 85.9336 18.9961 87.6289 20.9492C88.9336 22.4492 90.3242 23.3633 91.2813 23.8945C91.3359 24.5469 91.3867 25.1992 91.4414 25.8516C90.9766 25.8985 87.9844 26.2422 86.1836 28.8594C85.125 30.4063 84.9961 31.9805 84.9844 32.6836H84.9961Z" fill="black" stroke="black" stroke-width="0.5625" stroke-linecap="round" stroke-linejoin="round"/>
<path d="M116.371 22.2461C115.539 22.0039 114.164 21.7422 112.613 22.1172C111.254 22.4414 110.34 23.1015 109.824 23.4882C105.262 26.9101 104.586 29.5664 101.453 30.7656C101.047 30.9218 98.1133 31.8906 95.1601 30.5117C93.0742 29.5351 91.5899 27.3164 91.3594 24.9062C91.0274 21.457 93.4258 18.0468 96.2109 17.4218C96.5313 17.3476 98.2891 16.957 99.7187 18.0312C99.8984 18.164 101.012 19.0195 101.168 20.5273C101.191 20.7539 101.371 22.6953 99.8867 23.6406C99.0508 24.164 97.9961 24.1953 97.1562 23.8047C95.9609 23.2578 95.2422 21.8867 95.4297 20.414C95.1367 20.7383 94.7344 21.2382 94.4101 21.9297C94.2539 22.2617 93.2344 24.5156 94.207 26.6836C95.3906 29.3242 98.625 29.789 99.0586 29.8515C101.949 30.2617 104.949 28.7461 106.914 26.0234" stroke="#0E0E0E" stroke-width="0.75" stroke-linecap="round" stroke-linejoin="round"/>
<path d="M91.2969 23.8047C90.1953 23.2578 89.4219 22.6484 88.9258 22.1992C85.582 19.1562 85.2617 14.6328 85.1406 12.9688C85.0586 11.8281 85.1016 10.8828 85.1563 10.2461" stroke="#0E0E0E" stroke-width="0.75" stroke-linecap="round" stroke-linejoin="round"/>
<path d="M91.4531 25.7617C90.7422 25.8906 89.9688 26.1133 89.2031 26.5039C85.7461 28.2656 85.2383 31.957 85.1641 32.5938" stroke="#0E0E0E" stroke-width="0.75" stroke-linecap="round" stroke-linejoin="round"/>
<path d="M115.664 29.1016C115.551 29.3555 114.961 30.668 113.574 31.1016C112.102 31.5664 110.813 30.7109 110.273 30.3516C108 28.8438 107.773 25.9727 107.754 25.5078" stroke="#0E0E0E" stroke-width="0.75" stroke-linecap="round" stroke-linejoin="round"/>
<path d="M123.637 36.0157C122.992 35.6485 122.086 35.0938 121.066 34.3516C118.117 32.2032 115.816 30.5313 115.215 27.8008C114.668 25.3204 115.785 23.2266 115.98 22.8751C117.816 19.5587 121.664 19.0118 122.461 18.922C126.039 18.5157 129.668 20.4063 131.941 23.7071" stroke="#0E0E0E" stroke-width="0.75" stroke-linecap="round" stroke-linejoin="round"/>
<path d="M131.445 41.1601C131.484 33.4414 129.594 27.3828 126.602 25.7109C125.063 24.8555 123.504 24.832 123.504 24.832C122.984 24.832 120.367 24.8711 118.711 27.0312C117.234 28.957 117.602 31.164 117.668 31.539" stroke="#0E0E0E" stroke-width="0.75" stroke-linecap="round" stroke-linejoin="round"/>
<path d="M152.574 37.2617C152.961 37.0664 154.207 36.4883 155.551 36.8321C157.941 37.4414 158.211 40.3281 158.227 40.5391C158.371 42.375 157.246 44.5117 155.102 45.2774C153.449 45.8633 151.859 45.3985 151.012 45.1485C148.266 44.3477 146.762 42.4805 146.012 41.5352C143.609 38.4766 144.781 36.9883 142.32 34.8164C141.652 34.2227 140.301 33.0235 138.234 32.7071C136.078 32.3711 135.195 33.3008 133.23 32.7539C131.301 32.211 130.305 30.7969 130.051 30.3985C129.93 30.2188 128.527 27.961 129.848 25.6875C130.117 25.2149 130.922 23.8438 132.727 23.4453C134.371 23.0938 136.176 23.6914 137.168 24.8711C138.016 25.875 138.262 27.293 137.602 28.418C137.461 28.6641 137.012 29.4297 135.988 29.7383C135.137 29.9922 134.047 29.8789 133.297 29.2813C132.637 28.7461 132.516 28.0664 132.496 27.8633" stroke="#0E0E0E" stroke-width="0.75" stroke-linecap="round" stroke-linejoin="round"/>
<path d="M143.863 36.9141C143.551 33.4961 141.801 30.6836 139.246 29.7656C138.66 29.5586 137.746 29.3477 136.531 29.4961" stroke="#0E0E0E" stroke-width="0.75" stroke-linecap="round" stroke-linejoin="round"/>
<path d="M158.715 48.9843C157.484 46.8749 155.52 45.5624 153.563 45.6835C151.141 45.8319 149.715 48.1054 149.102 49.0859C145.637 54.6132 149.34 62.1679 149.91 63.3007" stroke="#0E0E0E" stroke-width="0.75" stroke-linecap="round" stroke-linejoin="round"/>
<path d="M158.766 90.6602C157.359 81.0078 152.773 59.8945 135.129 44.2109C131.289 40.8008 127.363 38.1211 123.637 36.0156" stroke="#0E0E0E" stroke-width="0.75" stroke-linecap="round" stroke-linejoin="round"/>
<mask id="mask2_2314_2677" style="mask-type:luminance" maskUnits="userSpaceOnUse" x="11" y="148" width="148" height="81">
<path d="M11 148H159V229H11V148Z" fill="white"/>
</mask>
<g mask="url(#mask2_2314_2677)">
<mask id="mask3_2314_2677" style="mask-type:luminance" maskUnits="userSpaceOnUse" x="11" y="148" width="148" height="81">
<path d="M11.6562 148.859C11.6758 175.254 11.6914 201.645 11.7148 228.031C60.5781 228.023 109.441 228.008 158.301 228C158.324 202.523 158.348 177.047 158.371 151.566C153.516 162.855 146.078 176.609 134.535 190.352C130.078 195.645 125.594 200.266 121.266 204.27C120.066 205.859 118.867 207.441 117.676 209.031C116.992 209.219 116.309 209.398 115.629 209.586C115.313 209.168 114.098 207.613 112.426 207.586C110.25 207.547 107.82 210.098 107.699 213.938C107.445 213.367 105.309 208.824 100.449 207.797C98.1094 207.301 96.1406 207.824 95.1289 208.184C94.4688 208.734 93.5938 209.578 92.7891 210.797C92.0039 211.988 91.5742 213.105 91.3281 213.914H78.7812C78.7031 213.449 78.0977 210.023 74.9766 208.312C71.9258 206.641 68.8281 207.914 67.875 208.297C64.582 209.625 63.1875 212.363 62.8789 213.008C62.1367 209.469 59.6641 207.277 57.4883 207.449C57.1367 207.48 56.0039 207.629 54.8242 208.949C53.5742 207.906 52.3203 206.863 51.0664 205.824C45.2461 202.941 34.4102 196.605 25.3125 184.32C14.6758 169.949 12.3242 155.406 11.6719 148.867L11.6562 148.859Z" fill="white"/>
</mask>
<g mask="url(#mask3_2314_2677)">
<path d="M11.6562 148.859V228.031H158.371V148.859H11.6562Z" fill="url(#paint1_linear_2314_2677)"/>
</g>
</g>
<path d="M85.043 206.137C85.0937 206.762 85.3516 208.941 87.1562 210.797C88.7773 212.461 90.6836 212.859 91.3359 212.969C91.2812 213.621 91.2305 214.273 91.1758 214.926C90.3242 215.324 88.6055 216.27 87.1797 218.184C85.7344 220.125 85.3203 222.059 85.1836 222.996C84.8477 221.828 84.1055 219.824 82.4102 217.875C81.1055 216.375 79.7188 215.461 78.7578 214.926C78.7031 214.273 78.6523 213.621 78.6016 212.969C79.0664 212.926 82.0586 212.578 83.8594 209.961C84.9141 208.418 85.043 206.844 85.0586 206.137H85.043Z" fill="white"/>
<path d="M116.25 216.578C115.418 216.816 114.047 217.078 112.492 216.703C111.137 216.383 110.219 215.723 109.703 215.332C105.141 211.914 104.469 209.258 101.332 208.059C100.926 207.898 97.9961 206.934 95.0391 208.313C92.9532 209.289 91.4688 211.508 91.2383 213.914C90.9063 217.363 93.3086 220.777 96.0899 221.398C96.4141 221.477 98.168 221.863 99.6016 220.793C99.7813 220.656 100.891 219.801 101.047 218.297C101.07 218.07 101.25 216.129 99.7656 215.184C98.9336 214.656 97.875 214.629 97.0352 215.016C95.8438 215.566 95.1211 216.938 95.3086 218.406C95.0157 218.086 94.6133 217.582 94.2891 216.891C94.1328 216.563 93.1133 214.305 94.086 212.137C95.2735 209.496 98.5039 209.031 98.9414 208.973C101.828 208.559 104.828 210.074 106.793 212.797" stroke="#0E0E0E" stroke-width="0.75" stroke-linecap="round" stroke-linejoin="round"/>
<path d="M91.1758 215.016C90.1211 215.543 89.3476 216.137 88.8086 216.621C85.6953 219.449 85.2383 223.566 85.0195 225.496C84.8789 226.746 84.8906 227.781 84.9219 228.422" stroke="#0E0E0E" stroke-width="0.75" stroke-linecap="round" stroke-linejoin="round"/>
<path d="M91.336 213.059C90.6211 212.934 89.8516 212.707 89.086 212.316C85.6289 210.555 85.1172 206.863 85.043 206.227" stroke="#0E0E0E" stroke-width="0.75" stroke-linecap="round" stroke-linejoin="round"/>
<path d="M53.6758 216.578C54.5117 216.816 55.8828 217.078 57.4336 216.703C58.793 216.383 59.707 215.723 60.2266 215.332C64.7852 211.914 65.4609 209.258 68.5938 208.059C69 207.898 71.9336 206.934 74.8867 208.313C76.9727 209.289 78.457 211.508 78.6914 213.914C79.0195 217.363 76.6211 220.777 73.8359 221.398C73.5156 221.477 71.7617 221.863 70.3281 220.793C70.1484 220.656 69.0391 219.801 68.8789 218.297C68.8594 218.07 68.6758 216.129 70.1641 215.184C70.9961 214.656 72.0508 214.629 72.8906 215.016C74.0859 215.566 74.8047 216.938 74.6172 218.406C74.9102 218.086 75.3164 217.582 75.6367 216.891C75.7969 216.563 76.8164 214.305 75.8399 212.137C74.6563 209.496 71.4219 209.031 70.9883 208.973C68.1016 208.559 65.1016 210.074 63.1367 212.797" stroke="#0E0E0E" stroke-width="0.75" stroke-linecap="round" stroke-linejoin="round"/>
<path d="M78.5938 213.059C79.2734 212.953 80.0547 212.738 80.8438 212.316C84.0508 210.621 84.8867 207 85.043 206.227" stroke="#0E0E0E" stroke-width="0.75" stroke-linecap="round" stroke-linejoin="round"/>
<path d="M54.3828 209.723C54.4961 209.469 55.0859 208.156 56.4766 207.719C57.9453 207.254 59.2344 208.109 59.7735 208.469C62.0469 209.977 62.2734 212.852 62.2969 213.316" stroke="#0E0E0E" stroke-width="0.75" stroke-linecap="round" stroke-linejoin="round"/>
<path d="M46.4024 202.809C47.0469 203.176 47.9531 203.73 48.9766 204.473C51.9219 206.617 54.2266 208.289 54.8242 211.02C55.3711 213.504 54.2539 215.594 54.0586 215.949C52.2226 219.262 48.375 219.809 47.5781 219.898C44.0039 220.305 40.3711 218.414 38.1016 215.113" stroke="#0E0E0E" stroke-width="0.75" stroke-linecap="round" stroke-linejoin="round"/>
<path d="M38.6016 197.664C38.5664 205.379 40.4531 211.441 43.4492 213.113C44.9844 213.969 46.5469 213.988 46.5469 213.988C47.0625 213.988 49.6797 213.953 51.3359 211.793C52.8164 209.863 52.4492 207.66 52.3789 207.285" stroke="#0E0E0E" stroke-width="0.75" stroke-linecap="round" stroke-linejoin="round"/>
<path d="M17.4766 201.563C17.086 201.758 15.8399 202.336 14.4961 201.988C12.1055 201.383 11.836 198.496 11.8203 198.285C11.6758 196.449 12.8008 194.309 14.9492 193.547C16.5977 192.961 18.1875 193.426 19.0352 193.672C21.7813 194.477 23.2891 196.344 24.0391 197.289C26.4375 200.348 25.2656 201.832 27.7266 204.008C28.3945 204.602 29.7461 205.801 31.8164 206.113C33.9688 206.453 34.8516 205.524 36.8164 206.07C38.7461 206.609 39.7422 208.027 39.9961 208.426C40.1172 208.606 41.5195 210.863 40.1992 213.137C39.9297 213.609 39.1289 214.981 37.3203 215.379C35.6758 215.731 33.8711 215.129 32.8789 213.953C32.0313 212.949 31.7852 211.531 32.4453 210.406C32.586 210.156 33.0391 209.391 34.0586 209.086C34.9141 208.828 36 208.942 36.75 209.543C37.4102 210.074 37.5313 210.758 37.5508 210.961" stroke="#0E0E0E" stroke-width="0.75" stroke-linecap="round" stroke-linejoin="round"/>
<path d="M26.1836 201.914C26.4961 205.336 28.2461 208.148 30.8008 209.062C31.3867 209.273 32.3008 209.484 33.5156 209.332" stroke="#0E0E0E" stroke-width="0.75" stroke-linecap="round" stroke-linejoin="round"/>
<path d="M23.5781 196.605C24.0586 196.727 25.9805 197.16 27.6289 196.094C29.6328 194.789 30.4492 191.766 29.2422 188.887" stroke="#0E0E0E" stroke-width="0.75" stroke-linecap="round" stroke-linejoin="round"/>
<path d="M22.2227 186.301C22.5313 186.316 23.168 186.309 23.8438 185.953C24.9688 185.363 25.3125 184.262 25.3789 184.035" stroke="#0E0E0E" stroke-width="0.75" stroke-linecap="round" stroke-linejoin="round"/>
<path d="M11.3633 146.715C12.5625 156.375 16.7774 178.453 34.9141 194.617C38.7461 198.031 42.6602 200.707 46.4024 202.816" stroke="#0E0E0E" stroke-width="0.75" stroke-linecap="round" stroke-linejoin="round"/>
<path d="M85.043 206.137C85.0938 206.762 85.3516 208.941 87.1562 210.797C88.7773 212.461 90.6836 212.859 91.3359 212.969C91.2813 213.621 91.2305 214.273 91.1758 214.926C90.7109 215.137 90.0742 215.469 89.3906 215.984C87.8555 217.164 87.1211 218.543 86.4766 219.789C85.9141 220.883 85.1836 222.578 84.8086 224.812C84.8008 223.738 84.6367 220.656 82.4023 217.867C81.1367 216.277 79.6797 215.387 78.75 214.922C78.6992 214.266 78.6445 213.613 78.5938 212.961C79.0586 212.918 82.0508 212.574 83.8516 209.953C84.9062 208.41 85.0352 206.836 85.0508 206.129L85.043 206.137Z" fill="black" stroke="black" stroke-width="0.5625" stroke-linecap="round" stroke-linejoin="round"/>
<path d="M53.6758 216.578C54.5117 216.816 55.8828 217.078 57.4336 216.703C58.793 216.383 59.707 215.723 60.2266 215.332C64.7852 211.914 65.4609 209.258 68.5938 208.059C69 207.898 71.9336 206.934 74.8867 208.313C76.9727 209.289 78.457 211.508 78.6914 213.914C79.0195 217.363 76.6211 220.777 73.8359 221.398C73.5156 221.477 71.7617 221.863 70.3281 220.793C70.1484 220.656 69.0391 219.801 68.8789 218.297C68.8594 218.07 68.6758 216.129 70.1641 215.184C70.9961 214.656 72.0508 214.629 72.8906 215.016C74.0859 215.566 74.8047 216.938 74.6172 218.406C74.9102 218.086 75.3164 217.582 75.6367 216.891C75.7969 216.563 76.8164 214.305 75.8399 212.137C74.6563 209.496 71.4219 209.031 70.9883 208.973C68.1016 208.559 65.1016 210.074 63.1367 212.797" stroke="#0E0E0E" stroke-width="0.75" stroke-linecap="round" stroke-linejoin="round"/>
<path d="M78.75 215.016C79.3711 215.316 80.2422 215.82 81.1211 216.621C82.9727 218.332 83.6406 220.313 84.1563 221.934C84.9609 224.438 85.043 226.719 84.9297 228.422" stroke="#0E0E0E" stroke-width="0.75" stroke-linecap="round" stroke-linejoin="round"/>
<path d="M78.5938 213.059C79.2734 212.953 80.0547 212.738 80.8438 212.316C84.082 210.602 84.8906 206.895 85.043 206.137" stroke="#0E0E0E" stroke-width="0.75" stroke-linecap="round" stroke-linejoin="round"/>
<path d="M54.3828 209.723C54.4961 209.469 55.0859 208.156 56.4766 207.719C57.9453 207.254 59.2344 208.109 59.7735 208.469C62.0469 209.977 62.2734 212.852 62.2969 213.316" stroke="#0E0E0E" stroke-width="0.75" stroke-linecap="round" stroke-linejoin="round"/>
<path d="M46.4024 202.809C47.0469 203.176 47.9531 203.73 48.9766 204.473C51.9219 206.617 54.2266 208.289 54.8242 211.02C55.3711 213.504 54.2539 215.594 54.0586 215.949C52.2226 219.262 48.375 219.809 47.5781 219.898C44.0039 220.305 40.3711 218.414 38.1016 215.113" stroke="#0E0E0E" stroke-width="0.75" stroke-linecap="round" stroke-linejoin="round"/>
<path d="M38.6016 197.664C38.5664 205.379 40.4531 211.441 43.4492 213.113C44.9844 213.969 46.5469 213.988 46.5469 213.988C47.0625 213.988 49.6797 213.953 51.3359 211.793C52.8164 209.863 52.4492 207.66 52.3789 207.285" stroke="#0E0E0E" stroke-width="0.75" stroke-linecap="round" stroke-linejoin="round"/>
<path d="M17.4766 201.563C17.086 201.758 15.8399 202.336 14.4961 201.988C12.1055 201.383 11.836 198.496 11.8203 198.285C11.6758 196.449 12.8008 194.309 14.9492 193.547C16.5977 192.961 18.1875 193.426 19.0352 193.672C21.7813 194.477 23.2891 196.344 24.0391 197.289C26.4375 200.348 25.2656 201.832 27.7266 204.008C28.3945 204.602 29.7461 205.801 31.8164 206.113C33.9688 206.453 34.8516 205.524 36.8164 206.07C38.7461 206.609 39.7422 208.027 39.9961 208.426C40.1172 208.606 41.5195 210.863 40.1992 213.137C39.9297 213.609 39.1289 214.981 37.3203 215.379C35.6758 215.731 33.8711 215.129 32.8789 213.953C32.0313 212.949 31.7852 211.531 32.4453 210.406C32.586 210.156 33.0391 209.391 34.0586 209.086C34.9141 208.828 36 208.942 36.75 209.543C37.4102 210.074 37.5313 210.758 37.5508 210.961" stroke="#0E0E0E" stroke-width="0.75" stroke-linecap="round" stroke-linejoin="round"/>
<path d="M26.1836 201.914C26.4961 205.336 28.2461 208.148 30.8008 209.062C31.3867 209.273 32.3008 209.484 33.5156 209.332" stroke="#0E0E0E" stroke-width="0.75" stroke-linecap="round" stroke-linejoin="round"/>
<path d="M11.4141 189.977C11.5039 190.125 13.5 193.32 16.4844 193.133C18.8985 192.984 20.3242 190.719 20.9492 189.727C24.4063 184.207 20.707 176.648 20.1367 175.516" stroke="#0E0E0E" stroke-width="0.75" stroke-linecap="round" stroke-linejoin="round"/>
<path d="M23.5781 196.605C24.0586 196.727 25.9805 197.16 27.6289 196.094C29.6328 194.789 30.4492 191.766 29.2422 188.887" stroke="#0E0E0E" stroke-width="0.75" stroke-linecap="round" stroke-linejoin="round"/>
<path d="M22.2227 186.301C22.5313 186.316 23.168 186.309 23.8438 185.953C24.9688 185.363 25.3125 184.262 25.3789 184.035" stroke="#0E0E0E" stroke-width="0.75" stroke-linecap="round" stroke-linejoin="round"/>
<path d="M11.3633 146.715C12.5625 156.375 16.7774 178.453 34.9141 194.617C38.7461 198.031 42.6602 200.707 46.4024 202.816" stroke="#0E0E0E" stroke-width="0.75" stroke-linecap="round" stroke-linejoin="round"/>
<path d="M23.3086 37.3867C21.5859 35.6016 20.7227 33.5234 20.7227 31.1758V31.1016C20.7227 29.4883 21.1797 27.9297 22.0859 26.4141C23.0391 24.9063 24.2773 23.8203 25.8086 23.1367C26.7969 22.7109 27.8398 22.4922 28.9141 22.4922C30.2695 22.4922 31.6211 22.8086 32.9492 23.4297C34.2734 24.0586 35.4609 24.9297 36.4961 26.0469C36.8984 26.4883 37.2656 26.9531 37.5898 27.4414C38.8867 29.4297 39.5312 31.582 39.5312 33.9062C39.4805 37.0781 38.3477 39.7891 36.1289 42.0508C35.0156 43.1484 33.7656 43.9883 32.3633 44.5664C30.9609 45.1406 29.4883 45.4258 27.9531 45.4258C26.9766 45.4258 26.0234 45.3164 25.0938 45.082C24.668 44.9688 24.2383 44.8359 23.8281 44.6758H23.7812C23.7383 44.6758 23.6992 44.707 23.6719 44.7656L23.6992 45.1953H22.6367V39.8906H23.6992L23.6719 40.3125C23.6719 40.8242 23.8945 41.25 24.3438 41.5938C24.3906 41.625 24.4219 41.6484 24.457 41.6562V41.6719C24.7813 41.8633 25.1172 42.0586 25.4609 42.2344C26.25 42.5547 27.0469 42.8086 27.8555 42.9961C28.6641 43.1836 29.4687 43.2812 30.2617 43.2812C32.3242 43.2812 34.0352 42.6133 35.4062 41.2891C36.7344 39.8867 37.4023 38.1836 37.4023 36.1719C37.4023 35.8789 37.3867 35.5781 37.3594 35.2812C36.5703 36.7109 35.4883 37.8516 34.1094 38.6914C32.7305 39.5313 31.2148 39.9531 29.5586 39.9531C28.3867 39.9531 27.2617 39.7344 26.1836 39.293C25.1016 38.8516 24.1484 38.2109 23.3086 37.3789V37.3867ZM33.6836 37.5234C34.4687 37.207 35.0938 36.7031 35.5664 36.0156C36.0391 35.3242 36.2852 34.5469 36.3164 33.6758V33.5156C36.3164 32.6094 36.1289 31.7344 35.7539 30.8906C35.3789 30.0508 34.875 29.2734 34.2539 28.5586C33.6289 27.8477 32.9414 27.2188 32.1758 26.6719C31.4102 26.1211 30.6289 25.6719 29.8359 25.3281C29.3398 25.0938 28.8281 24.8906 28.2969 24.7188C27.7656 24.5469 27.2266 24.457 26.6758 24.457C26.4297 24.457 26.1758 24.4883 25.9258 24.5391C24.8711 24.7891 24.0898 25.3437 23.5781 26.1992C23.0703 27.0508 22.8242 27.9766 22.8242 28.9648C22.8242 29.2812 22.8437 29.5859 22.8984 29.8867C23.2344 31.7383 24.1562 33.4336 25.6719 34.9883C26.6758 35.9688 27.7891 36.7187 29.0039 37.2461C30.0078 37.6406 30.9531 37.8359 31.8438 37.8359C32.5039 37.8359 33.1133 37.7266 33.6836 37.5078V37.5234Z" fill="black"/>
<path d="M146.648 201.539C148.371 203.324 149.234 205.402 149.234 207.75V207.824C149.234 209.437 148.777 210.996 147.871 212.512C146.918 214.02 145.68 215.109 144.148 215.789C143.16 216.219 142.117 216.434 141.047 216.434C139.688 216.434 138.336 216.121 137.012 215.496C135.684 214.867 134.496 213.996 133.461 212.879C133.059 212.438 132.691 211.973 132.367 211.484C131.07 209.496 130.426 207.344 130.426 205.02C130.477 201.848 131.609 199.141 133.828 196.875C134.941 195.781 136.191 194.941 137.594 194.363C138.996 193.785 140.469 193.5 142.004 193.5C142.98 193.5 143.934 193.613 144.863 193.844C145.289 193.957 145.719 194.094 146.129 194.25H146.176C146.219 194.25 146.258 194.219 146.289 194.16L146.258 193.734H147.324V199.035H146.258L146.289 198.613C146.289 198.105 146.063 197.676 145.613 197.332C145.566 197.301 145.539 197.281 145.5 197.273V197.258C145.176 197.063 144.84 196.867 144.496 196.695C143.707 196.371 142.914 196.117 142.102 195.93C141.293 195.742 140.488 195.645 139.695 195.645C137.633 195.645 135.922 196.312 134.551 197.641C133.223 199.043 132.555 200.746 132.555 202.754C132.555 203.047 132.57 203.348 132.602 203.648C133.387 202.215 134.469 201.074 135.848 200.234C137.227 199.395 138.742 198.977 140.398 198.977C141.57 198.977 142.695 199.191 143.773 199.637C144.855 200.078 145.809 200.715 146.648 201.547V201.539ZM136.273 201.398C135.488 201.711 134.863 202.215 134.391 202.906C133.922 203.594 133.672 204.375 133.641 205.246V205.402C133.641 206.309 133.828 207.187 134.203 208.027C134.578 208.867 135.082 209.648 135.703 210.359C136.328 211.074 137.016 211.703 137.781 212.25C138.547 212.797 139.328 213.246 140.121 213.594C140.617 213.824 141.129 214.027 141.66 214.199C142.191 214.371 142.734 214.461 143.281 214.461C143.527 214.461 143.781 214.434 144.031 214.379C145.086 214.133 145.867 213.578 146.379 212.723C146.887 211.867 147.137 210.945 147.137 209.953C147.137 209.641 147.113 209.332 147.059 209.031C146.723 207.18 145.801 205.484 144.285 203.934C143.281 202.949 142.172 202.199 140.953 201.676C139.949 201.277 139.004 201.082 138.113 201.082C137.453 201.082 136.844 201.195 136.273 201.414V201.398Z" fill="black"/>
<path d="M111.652 206.023C112.777 207.254 114.512 206.527 114.512 206.527C114.031 207.047 113.699 207.457 113.762 208.305C113.762 208.336 113.762 208.363 113.762 208.395C113.762 209.746 114.855 210.832 116.199 210.832C117.539 210.832 118.637 209.738 118.637 208.395C118.637 208.223 118.621 208.059 118.582 207.898C118.531 207.316 118.238 206.961 117.84 206.535C117.84 206.535 119.574 207.262 120.699 206.031C121.824 204.801 121.262 203.34 120.906 202.859C120.555 202.379 120.023 201.578 118.77 201.668C117.66 201.75 117.504 201.938 116.738 202.547C116.828 200.871 117.84 199.734 117.84 199.734H114.512C115.125 200.379 115.664 201.855 115.598 202.531C114.855 201.938 114.684 201.75 113.586 201.668C112.336 201.578 111.801 202.379 111.449 202.859C111.098 203.34 110.535 204.801 111.66 206.031L111.652 206.023Z" fill="#292929" stroke="black" stroke-width="0.5625" stroke-linecap="round" stroke-linejoin="round"/>
<path d="M58.3125 32.8594C57.1875 31.6289 55.4531 32.3555 55.4531 32.3555C55.9336 31.8359 56.2656 31.4258 56.2031 30.5781C56.2031 30.5469 56.2031 30.5156 56.2031 30.4883C56.2031 29.1367 55.1094 28.0508 53.7656 28.0508C52.4258 28.0508 51.3281 29.1445 51.3281 30.4883C51.3281 30.6602 51.3438 30.8242 51.3828 30.9844C51.4336 31.5664 51.7266 31.9219 52.125 32.3476C52.125 32.3476 50.3906 31.6211 49.2656 32.8516C48.1406 34.0781 48.7031 35.543 49.0586 36.0234C49.4102 36.5039 49.9414 37.3047 51.1953 37.2148C52.3047 37.1328 52.4609 36.9453 53.2266 36.3359C53.1367 38.0117 52.125 39.1484 52.125 39.1484H55.4531C54.8398 38.5039 54.3008 37.0274 54.3672 36.3516C55.1094 36.9453 55.2812 37.1328 56.3789 37.2148C57.6289 37.3047 58.1641 36.5039 58.5156 36.0234C58.8672 35.543 59.4297 34.0781 58.3047 32.8516L58.3125 32.8594Z" fill="#292929" stroke="black" stroke-width="0.5625" stroke-linecap="round" stroke-linejoin="round"/>
<path d="M72.9844 57.4727C70.7383 55.0195 67.2969 56.4766 67.2969 56.4766C68.2578 55.4492 68.9023 54.6289 68.7813 52.9414C68.7813 52.8828 68.7813 52.8281 68.7813 52.7695C68.7813 50.086 66.6094 47.9102 63.9219 47.9102C61.2383 47.9102 59.0703 50.086 59.0703 52.7695C59.0703 53.1094 59.1094 53.4375 59.168 53.7539C59.2812 54.9219 59.8594 55.6289 60.6524 56.4766C60.6524 56.4766 57.2109 55.0195 54.9688 57.4727C52.7266 59.9258 53.8516 62.8281 54.5547 63.7813C55.2617 64.7344 56.3164 66.3359 58.8086 66.1484C61.0117 65.9844 61.3359 65.6094 62.8594 64.4024C62.6758 67.7344 60.6602 70.0039 60.6602 70.0039H67.3047C66.082 68.7227 65.0039 65.7734 65.1445 64.4336C66.6289 65.6172 66.9688 65.9844 69.1484 66.1484C71.6406 66.3359 72.6992 64.7344 73.4024 63.7813C74.1094 62.8281 75.2344 59.918 72.9883 57.4727H72.9844Z" fill="#292929" stroke="black" stroke-width="0.5625" stroke-linecap="round" stroke-linejoin="round"/>
<path d="M72.9844 96.7656C70.7383 94.3125 67.2969 95.7656 67.2969 95.7656C68.2578 94.7383 68.9023 93.9219 68.7813 92.2344C68.7813 92.1758 68.7813 92.1211 68.7813 92.0625C68.7813 89.3789 66.6094 87.2031 63.9219 87.2031C61.2383 87.2031 59.0703 89.3789 59.0703 92.0625C59.0703 92.3985 59.1094 92.7305 59.168 93.0469C59.2812 94.2149 59.8594 94.9219 60.6524 95.7656C60.6524 95.7656 57.2109 94.3125 54.9688 96.7656C52.7266 99.2187 53.8516 102.121 54.5547 103.074C55.2617 104.023 56.3164 105.629 58.8086 105.441C61.0117 105.277 61.3359 104.902 62.8594 103.695C62.6758 107.023 60.6602 109.297 60.6602 109.297H67.3047C66.082 108.016 65.0039 105.066 65.1445 103.727C66.6289 104.91 66.9688 105.277 69.1484 105.441C71.6406 105.629 72.6992 104.023 73.4024 103.074C74.1094 102.121 75.2344 99.2109 72.9883 96.7656H72.9844Z" fill="#292929" stroke="black" stroke-width="0.5625" stroke-linecap="round" stroke-linejoin="round"/>
<path d="M72.9844 136.051C70.7383 133.598 67.2969 135.051 67.2969 135.051C68.2578 134.023 68.9023 133.207 68.7813 131.52C68.7813 131.461 68.7813 131.406 68.7813 131.348C68.7813 128.664 66.6094 126.488 63.9219 126.488C61.2383 126.488 59.0703 128.664 59.0703 131.348C59.0703 131.684 59.1094 132.016 59.168 132.328C59.2812 133.5 59.8594 134.203 60.6524 135.051C60.6524 135.051 57.2109 133.598 54.9688 136.051C52.7266 138.504 53.8516 141.406 54.5547 142.359C55.2617 143.309 56.3164 144.914 58.8086 144.727C61.0117 144.562 61.3359 144.187 62.8594 142.98C62.6758 146.309 60.6602 148.582 60.6602 148.582H67.3047C66.082 147.301 65.0039 144.352 65.1445 143.012C66.6289 144.195 66.9688 144.562 69.1484 144.727C71.6406 144.914 72.6992 143.309 73.4024 142.359C74.1094 141.406 75.2344 138.496 72.9883 136.051H72.9844Z" fill="#292929" stroke="black" stroke-width="0.5625" stroke-linecap="round" stroke-linejoin="round"/>
<path d="M72.9844 175.344C70.7383 172.891 67.2969 174.344 67.2969 174.344C68.2578 173.316 68.9023 172.5 68.7813 170.812C68.7813 170.754 68.7813 170.699 68.7813 170.641C68.7813 167.953 66.6094 165.781 63.9219 165.781C61.2383 165.781 59.0703 167.953 59.0703 170.641C59.0703 170.977 59.1094 171.309 59.168 171.621C59.2812 172.793 59.8594 173.496 60.6524 174.344C60.6524 174.344 57.2109 172.891 54.9688 175.344C52.7266 177.797 53.8516 180.699 54.5547 181.648C55.2617 182.602 56.3164 184.207 58.8086 184.02C61.0117 183.855 61.3359 183.48 62.8594 182.273C62.6758 185.602 60.6602 187.875 60.6602 187.875H67.3047C66.082 186.594 65.0039 183.645 65.1445 182.301C66.6289 183.488 66.9688 183.855 69.1484 184.02C71.6406 184.207 72.6992 182.602 73.4024 181.648C74.1094 180.699 75.2344 177.789 72.9883 175.344H72.9844Z" fill="#292929" stroke="black" stroke-width="0.5625" stroke-linecap="round" stroke-linejoin="round"/>
<path d="M114.84 57.4727C112.598 55.0195 109.156 56.4766 109.156 56.4766C110.113 55.4492 110.762 54.6289 110.641 52.9414C110.641 52.8828 110.641 52.8281 110.641 52.7695C110.641 50.086 108.465 47.9102 105.781 47.9102C103.094 47.9102 100.926 50.086 100.926 52.7695C100.926 53.1094 100.965 53.4375 101.023 53.7539C101.137 54.9219 101.715 55.6289 102.512 56.4766C102.512 56.4766 99.0664 55.0195 96.8242 57.4727C94.582 59.9258 95.707 62.8281 96.414 63.7813C97.1172 64.7344 98.1758 66.3359 100.664 66.1484C102.871 65.9844 103.191 65.6094 104.715 64.4024C104.535 67.7344 102.516 70.0039 102.516 70.0039H109.164C107.941 68.7227 106.859 65.7734 107.004 64.4336C108.488 65.6172 108.824 65.9844 111.008 66.1484C113.496 66.3359 114.555 64.7344 115.262 63.7813C115.965 62.8281 117.09 59.918 114.848 57.4727H114.84Z" fill="#292929" stroke="black" stroke-width="0.5625" stroke-linecap="round" stroke-linejoin="round"/>
<path d="M114.84 96.7656C112.598 94.3125 109.156 95.7656 109.156 95.7656C110.113 94.7383 110.762 93.9219 110.641 92.2344C110.641 92.1758 110.641 92.1211 110.641 92.0625C110.641 89.3789 108.465 87.2031 105.781 87.2031C103.094 87.2031 100.926 89.3789 100.926 92.0625C100.926 92.3985 100.965 92.7305 101.023 93.0469C101.137 94.2149 101.715 94.9219 102.512 95.7656C102.512 95.7656 99.0664 94.3125 96.8242 96.7656C94.582 99.2187 95.707 102.121 96.414 103.074C97.1172 104.023 98.1758 105.629 100.664 105.441C102.871 105.277 103.191 104.902 104.715 103.695C104.535 107.023 102.516 109.297 102.516 109.297H109.164C107.941 108.016 106.859 105.066 107.004 103.727C108.488 104.91 108.824 105.277 111.008 105.441C113.496 105.629 114.555 104.023 115.262 103.074C115.965 102.121 117.09 99.2109 114.848 96.7656H114.84Z" fill="#292929" stroke="black" stroke-width="0.5625" stroke-linecap="round" stroke-linejoin="round"/>
<path d="M114.84 136.051C112.598 133.598 109.156 135.051 109.156 135.051C110.113 134.023 110.762 133.207 110.641 131.52C110.641 131.461 110.641 131.406 110.641 131.348C110.641 128.664 108.465 126.488 105.781 126.488C103.094 126.488 100.926 128.664 100.926 131.348C100.926 131.684 100.965 132.016 101.023 132.328C101.137 133.5 101.715 134.203 102.512 135.051C102.512 135.051 99.0664 133.598 96.8242 136.051C94.582 138.504 95.707 141.406 96.414 142.359C97.1172 143.309 98.1758 144.914 100.664 144.727C102.871 144.562 103.191 144.187 104.715 142.98C104.535 146.309 102.516 148.582 102.516 148.582H109.164C107.941 147.301 106.859 144.352 107.004 143.012C108.488 144.195 108.824 144.562 111.008 144.727C113.496 144.914 114.555 143.309 115.262 142.359C115.965 141.406 117.09 138.496 114.848 136.051H114.84Z" fill="#292929" stroke="black" stroke-width="0.5625" stroke-linecap="round" stroke-linejoin="round"/>
<path d="M114.84 175.344C112.598 172.891 109.156 174.344 109.156 174.344C110.113 173.316 110.762 172.5 110.641 170.812C110.641 170.754 110.641 170.699 110.641 170.641C110.641 167.953 108.465 165.781 105.781 165.781C103.094 165.781 100.926 167.953 100.926 170.641C100.926 170.977 100.965 171.309 101.023 171.621C101.137 172.793 101.715 173.496 102.512 174.344C102.512 174.344 99.0664 172.891 96.8242 175.344C94.582 177.797 95.707 180.699 96.414 181.648C97.1172 182.602 98.1758 184.207 100.664 184.02C102.871 183.855 103.191 183.48 104.715 182.273C104.535 185.602 102.516 187.875 102.516 187.875H109.164C107.941 186.594 106.859 183.645 107.004 182.301C108.488 183.488 108.824 183.855 111.008 184.02C113.496 184.207 114.555 182.602 115.262 181.648C115.965 180.699 117.09 177.789 114.848 175.344H114.84Z" fill="#292929" stroke="black" stroke-width="0.5625" stroke-linecap="round" stroke-linejoin="round"/>
<path d="M94.0196 115.711C91.7774 113.258 88.336 114.711 88.336 114.711C89.2969 113.684 89.9414 112.867 89.8203 111.18C89.8203 111.121 89.8203 111.066 89.8203 111.008C89.8203 108.324 87.6446 106.148 84.961 106.148C82.2735 106.148 80.1094 108.324 80.1094 111.008C80.1094 111.344 80.1445 111.676 80.2031 111.988C80.3164 113.16 80.8945 113.863 81.6914 114.711C81.6914 114.711 78.2461 113.258 76.0039 115.711C73.7617 118.164 74.8867 121.066 75.5938 122.016C76.2969 122.969 77.3555 124.574 79.8438 124.387C82.0508 124.223 82.3711 123.848 83.8945 122.641C83.7148 125.969 81.6992 128.242 81.6992 128.242H88.3438C87.1211 126.961 86.0391 124.012 86.1836 122.672C87.668 123.855 88.0039 124.223 90.1875 124.387C92.6758 124.574 93.7344 122.969 94.4414 122.016C95.1446 121.066 96.2695 118.156 94.0274 115.711H94.0196Z" fill="#292929" stroke="black" stroke-width="0.5625" stroke-linecap="round" stroke-linejoin="round"/>
<defs>
<linearGradient id="paint0_linear_2314_2677" x1="158.445" y1="49.455" x2="11.805" y2="49.455" gradientUnits="userSpaceOnUse">
<stop stop-color="#8F8587"/>
<stop offset="0.00390625" stop-color="#908688"/>
<stop offset="0.0078125" stop-color="#918789"/>
<stop offset="0.0117188" stop-color="#92888A"/>
<stop offset="0.015625" stop-color="#92898B"/>
<stop offset="0.0195312" stop-color="#938A8B"/>
<stop offset="0.0234375" stop-color="#948B8C"/>
<stop offset="0.0273438" stop-color="#958C8D"/>
<stop offset="0.03125" stop-color="#968D8E"/>
<stop offset="0.0351562" stop-color="#978D8F"/>
<stop offset="0.0390625" stop-color="#988E90"/>
<stop offset="0.0429688" stop-color="#988F91"/>
<stop offset="0.046875" stop-color="#999092"/>
<stop offset="0.0507813" stop-color="#9A9193"/>
<stop offset="0.0546875" stop-color="#9B9294"/>
<stop offset="0.0585938" stop-color="#9C9395"/>
<stop offset="0.0625" stop-color="#9D9496"/>
<stop offset="0.0664063" stop-color="#9D9596"/>
<stop offset="0.0703125" stop-color="#9E9697"/>
<stop offset="0.0742188" stop-color="#9F9798"/>
<stop offset="0.078125" stop-color="#A09899"/>
<stop offset="0.0820313" stop-color="#A1999A"/>
<stop offset="0.0859375" stop-color="#A2999B"/>
<stop offset="0.0898438" stop-color="#A39A9C"/>
<stop offset="0.09375" stop-color="#A39B9D"/>
<stop offset="0.0976563" stop-color="#A49C9E"/>
<stop offset="0.101563" stop-color="#A59D9F"/>
<stop offset="0.105469" stop-color="#A69EA0"/>
<stop offset="0.109375" stop-color="#A79FA0"/>
<stop offset="0.113281" stop-color="#A8A0A1"/>
<stop offset="0.117188" stop-color="#A8A1A2"/>
<stop offset="0.121094" stop-color="#A9A2A3"/>
<stop offset="0.125" stop-color="#AAA3A4"/>
<stop offset="0.128906" stop-color="#ABA4A5"/>
<stop offset="0.132812" stop-color="#ACA5A6"/>
<stop offset="0.136719" stop-color="#ADA5A7"/>
<stop offset="0.140625" stop-color="#AEA6A8"/>
<stop offset="0.144531" stop-color="#AEA7A9"/>
<stop offset="0.148438" stop-color="#AFA8AA"/>
<stop offset="0.152344" stop-color="#B0A9AB"/>
<stop offset="0.15625" stop-color="#B1AAAB"/>
<stop offset="0.160156" stop-color="#B2ABAC"/>
<stop offset="0.164062" stop-color="#B3ACAD"/>
<stop offset="0.167969" stop-color="#B3ADAE"/>
<stop offset="0.171875" stop-color="#B4AEAF"/>
<stop offset="0.175781" stop-color="#B5AFB0"/>
<stop offset="0.179688" stop-color="#B6B0B1"/>
<stop offset="0.183594" stop-color="#B7B1B2"/>
<stop offset="0.1875" stop-color="#B8B2B3"/>
<stop offset="0.191406" stop-color="#B9B2B4"/>
<stop offset="0.195312" stop-color="#B9B3B5"/>
<stop offset="0.199219" stop-color="#BAB4B5"/>
<stop offset="0.203125" stop-color="#BBB5B6"/>
<stop offset="0.207031" stop-color="#BCB6B7"/>
<stop offset="0.210937" stop-color="#BDB7B8"/>
<stop offset="0.214844" stop-color="#BEB8B9"/>
<stop offset="0.21875" stop-color="#BEB9BA"/>
<stop offset="0.222656" stop-color="#BFBABB"/>
<stop offset="0.226562" stop-color="#C0BBBC"/>
<stop offset="0.230469" stop-color="#C1BCBD"/>
<stop offset="0.234375" stop-color="#C2BDBE"/>
<stop offset="0.238281" stop-color="#C3BEBF"/>
<stop offset="0.242187" stop-color="#C3BEBF"/>
<stop offset="0.246094" stop-color="#C4BFC0"/>
<stop offset="0.25" stop-color="#C5C0C1"/>
<stop offset="0.253906" stop-color="#C6C1C2"/>
<stop offset="0.257812" stop-color="#C6C2C3"/>
<stop offset="0.261719" stop-color="#C7C3C3"/>
<stop offset="0.265625" stop-color="#C8C3C4"/>
<stop offset="0.269531" stop-color="#C9C4C5"/>
<stop offset="0.273437" stop-color="#C9C5C6"/>
<stop offset="0.277344" stop-color="#CAC6C7"/>
<stop offset="0.28125" stop-color="#CBC7C7"/>
<stop offset="0.285156" stop-color="#CCC7C8"/>
<stop offset="0.289062" stop-color="#CCC8C9"/>
<stop offset="0.292969" stop-color="#CDC9CA"/>
<stop offset="0.296875" stop-color="#CECACB"/>
<stop offset="0.300781" stop-color="#CFCBCB"/>
<stop offset="0.304687" stop-color="#CFCCCC"/>
<stop offset="0.308594" stop-color="#D0CCCD"/>
<stop offset="0.3125" stop-color="#D1CDCE"/>
<stop offset="0.316406" stop-color="#D2CECF"/>
<stop offset="0.320312" stop-color="#D2CFCF"/>
<stop offset="0.324219" stop-color="#D3D0D0"/>
<stop offset="0.328125" stop-color="#D4D0D1"/>
<stop offset="0.332031" stop-color="#D5D1D2"/>
<stop offset="0.335937" stop-color="#D5D2D3"/>
<stop offset="0.339844" stop-color="#D6D3D3"/>
<stop offset="0.34375" stop-color="#D7D4D4"/>
<stop offset="0.347656" stop-color="#D8D5D5"/>
<stop offset="0.351562" stop-color="#D8D5D6"/>
<stop offset="0.355469" stop-color="#D9D6D7"/>
<stop offset="0.359375" stop-color="#DAD7D7"/>
<stop offset="0.363281" stop-color="#DBD8D8"/>
<stop offset="0.367187" stop-color="#DBD9D9"/>
<stop offset="0.371094" stop-color="#DCDADA"/>
<stop offset="0.375" stop-color="#DDDADB"/>
<stop offset="0.378906" stop-color="#DEDBDB"/>
<stop offset="0.382813" stop-color="#DEDCDC"/>
<stop offset="0.386719" stop-color="#DFDDDD"/>
<stop offset="0.390625" stop-color="#E0DEDE"/>
<stop offset="0.394531" stop-color="#E1DEDF"/>
<stop offset="0.398438" stop-color="#E1DFE0"/>
<stop offset="0.402344" stop-color="#E2E0E0"/>
<stop offset="0.40625" stop-color="#E3E1E1"/>
<stop offset="0.410156" stop-color="#E4E2E2"/>
<stop offset="0.414063" stop-color="#E4E3E3"/>
<stop offset="0.417969" stop-color="#E5E3E4"/>
<stop offset="0.421875" stop-color="#E6E4E4"/>
<stop offset="0.425781" stop-color="#E6E5E5"/>
<stop offset="0.429688" stop-color="#E7E6E6"/>
<stop offset="0.433594" stop-color="#E8E7E7"/>
<stop offset="0.4375" stop-color="#E9E7E8"/>
<stop offset="0.441406" stop-color="#E9E8E8"/>
<stop offset="0.445312" stop-color="#EAE9E9"/>
<stop offset="0.449219" stop-color="#EBEAEA"/>
<stop offset="0.453125" stop-color="#ECEBEB"/>
<stop offset="0.457031" stop-color="#ECEBEB"/>
<stop offset="0.460938" stop-color="#EDECEC"/>
<stop offset="0.464844" stop-color="#EDECEC"/>
<stop offset="0.46875" stop-color="#EEEDED"/>
<stop offset="0.472656" stop-color="#EEEEEE"/>
<stop offset="0.476562" stop-color="#EFEEEE"/>
<stop offset="0.480469" stop-color="#EFEFEF"/>
<stop offset="0.484375" stop-color="#F0EFEF"/>
<stop offset="0.488281" stop-color="#F1F0F0"/>
<stop offset="0.492188" stop-color="#F1F1F1"/>
<stop offset="0.496094" stop-color="#F2F1F1"/>
<stop offset="0.5" stop-color="#F2F2F2"/>
<stop offset="0.503906" stop-color="#F3F2F2"/>
<stop offset="0.507812" stop-color="#F3F3F3"/>
<stop offset="0.511719" stop-color="#F4F4F4"/>
<stop offset="0.515625" stop-color="#F5F4F4"/>
<stop offset="0.519531" stop-color="#F5F5F5"/>
<stop offset="0.523438" stop-color="#F6F5F5"/>
<stop offset="0.527344" stop-color="#F6F6F6"/>
<stop offset="0.53125" stop-color="#F7F7F7"/>
<stop offset="0.535156" stop-color="#F7F7F7"/>
<stop offset="0.539063" stop-color="#F8F8F8"/>
<stop offset="0.542969" stop-color="#F8F8F8"/>
<stop offset="0.546875" stop-color="#F9F9F9"/>
<stop offset="0.550781" stop-color="#FAFAFA"/>
<stop offset="0.554688" stop-color="#FAFAFA"/>
<stop offset="0.5625" stop-color="#FBFBFB"/>
<stop offset="0.625" stop-color="#FBFBFB"/>
<stop offset="0.75" stop-color="#FBFBFB"/>
<stop offset="1" stop-color="#FBFBFB"/>
</linearGradient>
<linearGradient id="paint1_linear_2314_2677" x1="11.655" y1="188.445" x2="158.37" y2="188.445" gradientUnits="userSpaceOnUse">
<stop stop-color="#8F8587"/>
<stop offset="0.00390625" stop-color="#908688"/>
<stop offset="0.0078125" stop-color="#918789"/>
<stop offset="0.0117188" stop-color="#91888A"/>
<stop offset="0.015625" stop-color="#92898A"/>
<stop offset="0.0195313" stop-color="#938A8B"/>
<stop offset="0.0234375" stop-color="#948A8C"/>
<stop offset="0.0273437" stop-color="#958B8D"/>
<stop offset="0.03125" stop-color="#968C8E"/>
<stop offset="0.0351562" stop-color="#968D8F"/>
<stop offset="0.0390625" stop-color="#978E90"/>
<stop offset="0.0429688" stop-color="#988F91"/>
<stop offset="0.046875" stop-color="#999091"/>
<stop offset="0.0507812" stop-color="#9A9192"/>
<stop offset="0.0546875" stop-color="#9A9293"/>
<stop offset="0.0585938" stop-color="#9B9294"/>
<stop offset="0.0625" stop-color="#9C9395"/>
<stop offset="0.0664062" stop-color="#9D9496"/>
<stop offset="0.0703125" stop-color="#9E9597"/>
<stop offset="0.0742187" stop-color="#9E9698"/>
<stop offset="0.078125" stop-color="#9F9798"/>
<stop offset="0.0820312" stop-color="#A09899"/>
<stop offset="0.0859375" stop-color="#A1999A"/>
<stop offset="0.0898437" stop-color="#A29A9B"/>
<stop offset="0.09375" stop-color="#A39A9C"/>
<stop offset="0.0976562" stop-color="#A39B9D"/>
<stop offset="0.101562" stop-color="#A49C9E"/>
<stop offset="0.105469" stop-color="#A59D9F"/>
<stop offset="0.109375" stop-color="#A69E9F"/>
<stop offset="0.113281" stop-color="#A79FA0"/>
<stop offset="0.117187" stop-color="#A7A0A1"/>
<stop offset="0.121094" stop-color="#A8A1A2"/>
<stop offset="0.125" stop-color="#A9A2A3"/>
<stop offset="0.128906" stop-color="#AAA2A4"/>
<stop offset="0.132812" stop-color="#ABA3A5"/>
<stop offset="0.136719" stop-color="#ABA4A6"/>
<stop offset="0.140625" stop-color="#ACA5A6"/>
<stop offset="0.144531" stop-color="#ADA6A7"/>
<stop offset="0.148438" stop-color="#AEA7A8"/>
<stop offset="0.152344" stop-color="#AFA8A9"/>
<stop offset="0.15625" stop-color="#B0A9AA"/>
<stop offset="0.160156" stop-color="#B0AAAB"/>
<stop offset="0.164062" stop-color="#B1AAAC"/>
<stop offset="0.167969" stop-color="#B2ABAD"/>
<stop offset="0.171875" stop-color="#B3ACAD"/>
<stop offset="0.175781" stop-color="#B4ADAE"/>
<stop offset="0.179687" stop-color="#B4AEAF"/>
<stop offset="0.183594" stop-color="#B5AFB0"/>
<stop offset="0.1875" stop-color="#B6B0B1"/>
<stop offset="0.191406" stop-color="#B7B1B2"/>
<stop offset="0.195312" stop-color="#B8B2B3"/>
<stop offset="0.199219" stop-color="#B9B2B4"/>
<stop offset="0.203125" stop-color="#B9B3B4"/>
<stop offset="0.207031" stop-color="#BAB4B5"/>
<stop offset="0.210937" stop-color="#BBB5B6"/>
<stop offset="0.214844" stop-color="#BCB6B7"/>
<stop offset="0.21875" stop-color="#BDB7B8"/>
<stop offset="0.222656" stop-color="#BDB8B9"/>
<stop offset="0.226562" stop-color="#BEB9BA"/>
<stop offset="0.230469" stop-color="#BFBABB"/>
<stop offset="0.234375" stop-color="#C0BABB"/>
<stop offset="0.238281" stop-color="#C1BBBC"/>
<stop offset="0.242187" stop-color="#C1BCBD"/>
<stop offset="0.246094" stop-color="#C2BDBE"/>
<stop offset="0.25" stop-color="#C3BEBF"/>
<stop offset="0.253906" stop-color="#C4BFC0"/>
<stop offset="0.257812" stop-color="#C5C0C1"/>
<stop offset="0.261719" stop-color="#C5C0C1"/>
<stop offset="0.265625" stop-color="#C6C1C2"/>
<stop offset="0.269531" stop-color="#C7C2C3"/>
<stop offset="0.273438" stop-color="#C8C3C4"/>
<stop offset="0.277344" stop-color="#C8C4C5"/>
<stop offset="0.28125" stop-color="#C9C5C5"/>
<stop offset="0.285156" stop-color="#CAC5C6"/>
<stop offset="0.289062" stop-color="#CBC6C7"/>
<stop offset="0.292969" stop-color="#CBC7C8"/>
<stop offset="0.296875" stop-color="#CCC8C9"/>
<stop offset="0.300781" stop-color="#CDC9C9"/>
<stop offset="0.304688" stop-color="#CDC9CA"/>
<stop offset="0.308594" stop-color="#CECACB"/>
<stop offset="0.3125" stop-color="#CFCBCC"/>
<stop offset="0.316406" stop-color="#D0CCCD"/>
<stop offset="0.320312" stop-color="#D0CDCD"/>
<stop offset="0.324219" stop-color="#D1CECE"/>
<stop offset="0.328125" stop-color="#D2CECF"/>
<stop offset="0.332031" stop-color="#D3CFD0"/>
<stop offset="0.335938" stop-color="#D3D0D1"/>
<stop offset="0.339844" stop-color="#D4D1D1"/>
<stop offset="0.34375" stop-color="#D5D2D2"/>
<stop offset="0.347656" stop-color="#D6D2D3"/>
<stop offset="0.351562" stop-color="#D6D3D4"/>
<stop offset="0.355469" stop-color="#D7D4D5"/>
<stop offset="0.359375" stop-color="#D8D5D5"/>
<stop offset="0.363281" stop-color="#D9D6D6"/>
<stop offset="0.367188" stop-color="#D9D7D7"/>
<stop offset="0.371094" stop-color="#DAD7D8"/>
<stop offset="0.375" stop-color="#DBD8D9"/>
<stop offset="0.378906" stop-color="#DCD9D9"/>
<stop offset="0.382812" stop-color="#DCDADA"/>
<stop offset="0.386719" stop-color="#DDDBDB"/>
<stop offset="0.390625" stop-color="#DEDCDC"/>
<stop offset="0.394531" stop-color="#DFDCDD"/>
<stop offset="0.398438" stop-color="#DFDDDD"/>
<stop offset="0.402344" stop-color="#E0DEDE"/>
<stop offset="0.40625" stop-color="#E1DFDF"/>
<stop offset="0.410156" stop-color="#E2E0E0"/>
<stop offset="0.414062" stop-color="#E2E0E1"/>
<stop offset="0.417969" stop-color="#E3E1E1"/>
<stop offset="0.421875" stop-color="#E4E2E2"/>
<stop offset="0.425781" stop-color="#E5E3E3"/>
<stop offset="0.429688" stop-color="#E5E4E4"/>
<stop offset="0.433594" stop-color="#E6E5E5"/>
<stop offset="0.4375" stop-color="#E7E5E5"/>
<stop offset="0.441406" stop-color="#E8E6E6"/>
<stop offset="0.445312" stop-color="#E8E7E7"/>
<stop offset="0.449219" stop-color="#E9E8E8"/>
<stop offset="0.453125" stop-color="#EAE9E9"/>
<stop offset="0.457031" stop-color="#EBE9E9"/>
<stop offset="0.460938" stop-color="#EBEAEA"/>
<stop offset="0.464844" stop-color="#ECEBEB"/>
<stop offset="0.46875" stop-color="#ECEBEB"/>
<stop offset="0.472656" stop-color="#EDECEC"/>
<stop offset="0.476562" stop-color="#EDEDED"/>
<stop offset="0.480469" stop-color="#EEEDED"/>
<stop offset="0.484375" stop-color="#EFEEEE"/>
<stop offset="0.488281" stop-color="#EFEEEE"/>
<stop offset="0.492188" stop-color="#F0EFEF"/>
<stop offset="0.496094" stop-color="#F0F0F0"/>
<stop offset="0.5" stop-color="#F1F0F0"/>
<stop offset="0.503906" stop-color="#F1F1F1"/>
<stop offset="0.507812" stop-color="#F2F1F1"/>
<stop offset="0.511719" stop-color="#F3F2F2"/>
<stop offset="0.515625" stop-color="#F3F3F3"/>
<stop offset="0.519531" stop-color="#F4F3F3"/>
<stop offset="0.523438" stop-color="#F4F4F4"/>
<stop offset="0.527344" stop-color="#F5F4F4"/>
<stop offset="0.53125" stop-color="#F5F5F5"/>
<stop offset="0.535156" stop-color="#F6F6F6"/>
<stop offset="0.539062" stop-color="#F6F6F6"/>
<stop offset="0.542969" stop-color="#F7F7F7"/>
<stop offset="0.546875" stop-color="#F8F7F7"/>
<stop offset="0.550781" stop-color="#F8F8F8"/>
<stop offset="0.554688" stop-color="#F9F9F9"/>
<stop offset="0.558594" stop-color="#F9F9F9"/>
<stop offset="0.5625" stop-color="#FAFAFA"/>
<stop offset="0.566406" stop-color="#FAFAFA"/>
<stop offset="0.570312" stop-color="#FBFBFB"/>
<stop offset="0.578125" stop-color="#FBFBFB"/>
<stop offset="0.59375" stop-color="#FBFBFB"/>
<stop offset="0.625" stop-color="#FBFBFB"/>
<stop offset="0.75" stop-color="#FBFBFB"/>
<stop offset="1" stop-color="#FBFBFB"/>
</linearGradient>
</defs>
</svg>
